<?xml version="1.0" encoding="UTF-8"?>
<svg xmlns="http://www.w3.org/2000/svg" xmlns:xlink="http://www.w3.org/1999/xlink" width="600pt" height="600pt" viewBox="0 0 600 600" version="1.1">
<defs>
<clipPath id="clip1">
  <path d="M 247 269 L 404 269 L 404 425 L 247 425 Z M 247 269 "/>
</clipPath>
<clipPath id="clip2">
  <path d="M 198.820312 219.730469 L 452.433594 219.730469 L 452.433594 474.214844 L 198.820312 474.214844 Z M 198.820312 219.730469 L 377.144531 383.683594 C 377.144531 391.683594 370.65625 398.171875 362.65625 398.171875 C 354.65625 398.171875 348.167969 391.683594 348.167969 383.683594 C 348.167969 375.683594 354.65625 369.195312 362.65625 369.195312 C 370.65625 369.195312 377.144531 375.683594 377.144531 383.683594 Z M 198.820312 219.730469 "/>
</clipPath>
<clipPath id="clip3">
  <path d="M 198.820312 219.730469 L 452.433594 219.730469 L 452.433594 474.214844 L 198.820312 474.214844 Z M 198.820312 219.730469 L 303.085938 310.261719 C 303.085938 318.261719 296.601562 324.75 288.597656 324.75 C 280.597656 324.75 274.109375 318.261719 274.109375 310.261719 C 274.109375 302.261719 280.597656 295.773438 288.597656 295.773438 C 296.601562 295.773438 303.085938 302.261719 303.085938 310.261719 Z M 198.820312 219.730469 "/>
</clipPath>
<clipPath id="clip4">
  <path d="M 321 342 L 453 342 L 453 519 L 321 519 Z M 321 342 "/>
</clipPath>
<clipPath id="clip5">
  <path d="M 250.152344 324.097656 L 523.898438 324.097656 L 523.898438 537.507812 L 250.152344 537.507812 Z M 250.152344 324.097656 L 377.144531 383.683594 C 377.144531 391.683594 370.65625 398.171875 362.65625 398.171875 C 354.65625 398.171875 348.167969 391.683594 348.167969 383.683594 C 348.167969 375.683594 354.65625 369.195312 362.65625 369.195312 C 370.65625 369.195312 377.144531 375.683594 377.144531 383.683594 Z M 250.152344 324.097656 "/>
</clipPath>
<clipPath id="clip6">
  <path d="M 250.152344 324.097656 L 523.898438 324.097656 L 523.898438 537.507812 L 250.152344 537.507812 Z M 250.152344 324.097656 L 425.882812 477.921875 C 425.882812 485.925781 419.398438 492.410156 411.394531 492.410156 C 403.394531 492.410156 396.90625 485.925781 396.90625 477.921875 C 396.90625 469.921875 403.394531 463.433594 411.394531 463.433594 C 419.398438 463.433594 425.882812 469.921875 425.882812 477.921875 Z M 250.152344 324.097656 "/>
</clipPath>
<clipPath id="clip7">
  <path d="M 321 315 L 446 315 L 446 425 L 321 425 Z M 321 315 "/>
</clipPath>
<clipPath id="clip8">
  <path d="M 291.585938 250.296875 L 475.414062 250.296875 L 475.414062 489.441406 L 291.585938 489.441406 Z M 291.585938 250.296875 L 377.144531 383.683594 C 377.144531 391.683594 370.65625 398.171875 362.65625 398.171875 C 354.65625 398.171875 348.167969 391.683594 348.167969 383.683594 C 348.167969 375.683594 354.65625 369.195312 362.65625 369.195312 C 370.65625 369.195312 377.144531 375.683594 377.144531 383.683594 Z M 291.585938 250.296875 "/>
</clipPath>
<clipPath id="clip9">
  <path d="M 291.585938 250.296875 L 475.414062 250.296875 L 475.414062 489.441406 L 291.585938 489.441406 Z M 291.585938 250.296875 L 418.832031 356.054688 C 418.832031 364.054688 412.347656 370.542969 404.34375 370.542969 C 396.34375 370.542969 389.855469 364.054688 389.855469 356.054688 C 389.855469 348.050781 396.34375 341.566406 404.34375 341.566406 C 412.347656 341.566406 418.832031 348.050781 418.832031 356.054688 Z M 291.585938 250.296875 "/>
</clipPath>
<clipPath id="clip10">
  <path d="M 369 146 L 531 146 L 531 261 L 369 261 Z M 369 146 "/>
</clipPath>
<clipPath id="clip11">
  <path d="M 361.449219 70.335938 L 538.554688 70.335938 L 538.554688 337.242188 L 361.449219 337.242188 Z M 361.449219 70.335938 L 424.535156 219.71875 C 424.535156 227.71875 418.046875 234.207031 410.046875 234.207031 C 402.042969 234.207031 395.558594 227.71875 395.558594 219.71875 C 395.558594 211.714844 402.042969 205.230469 410.046875 205.230469 C 418.046875 205.230469 424.535156 211.714844 424.535156 219.71875 Z M 361.449219 70.335938 "/>
</clipPath>
<clipPath id="clip12">
  <path d="M 361.449219 70.335938 L 538.554688 70.335938 L 538.554688 337.242188 L 361.449219 337.242188 Z M 361.449219 70.335938 L 504.449219 187.859375 C 504.449219 195.859375 497.960938 202.347656 489.957031 202.347656 C 481.957031 202.347656 475.46875 195.859375 475.46875 187.859375 C 475.46875 179.855469 481.957031 173.371094 489.957031 173.371094 C 497.960938 173.371094 504.449219 179.855469 504.449219 187.859375 Z M 361.449219 70.335938 "/>
</clipPath>
<clipPath id="clip13">
  <path d="M 247 178 L 452 178 L 452 352 L 247 352 Z M 247 178 "/>
</clipPath>
<clipPath id="clip14">
  <path d="M 211.945312 117.890625 L 486.699219 117.890625 L 486.699219 412.089844 L 211.945312 412.089844 Z M 211.945312 117.890625 L 424.535156 219.71875 C 424.535156 227.71875 418.046875 234.207031 410.046875 234.207031 C 402.042969 234.207031 395.558594 227.71875 395.558594 219.71875 C 395.558594 211.714844 402.042969 205.230469 410.046875 205.230469 C 418.046875 205.230469 424.535156 211.714844 424.535156 219.71875 Z M 211.945312 117.890625 "/>
</clipPath>
<clipPath id="clip15">
  <path d="M 211.945312 117.890625 L 486.699219 117.890625 L 486.699219 412.089844 L 211.945312 412.089844 Z M 211.945312 117.890625 L 303.085938 310.261719 C 303.085938 318.261719 296.601562 324.75 288.597656 324.75 C 280.597656 324.75 274.109375 318.261719 274.109375 310.261719 C 274.109375 302.261719 280.597656 295.773438 288.597656 295.773438 C 296.601562 295.773438 303.085938 302.261719 303.085938 310.261719 Z M 211.945312 117.890625 "/>
</clipPath>
<clipPath id="clip16">
  <path d="M 369 178 L 551 178 L 551 296 L 369 296 Z M 369 178 "/>
</clipPath>
<clipPath id="clip17">
  <path d="M 366.128906 100.441406 L 553.722656 100.441406 L 553.722656 374.15625 L 366.128906 374.15625 Z M 366.128906 100.441406 L 424.535156 219.71875 C 424.535156 227.71875 418.046875 234.207031 410.046875 234.207031 C 402.042969 234.207031 395.558594 227.71875 395.558594 219.71875 C 395.558594 211.714844 402.042969 205.230469 410.046875 205.230469 C 418.046875 205.230469 424.535156 211.714844 424.535156 219.71875 Z M 366.128906 100.441406 "/>
</clipPath>
<clipPath id="clip18">
  <path d="M 366.128906 100.441406 L 553.722656 100.441406 L 553.722656 374.15625 L 366.128906 374.15625 Z M 366.128906 100.441406 L 524.292969 254.878906 C 524.292969 262.878906 517.808594 269.367188 509.804688 269.367188 C 501.804688 269.367188 495.316406 262.878906 495.316406 254.878906 C 495.316406 246.875 501.804688 240.390625 509.804688 240.390625 C 517.808594 240.390625 524.292969 246.875 524.292969 254.878906 Z M 366.128906 100.441406 "/>
</clipPath>
<clipPath id="clip19">
  <path d="M 298 92 L 452 92 L 452 261 L 298 261 Z M 298 92 "/>
</clipPath>
<clipPath id="clip20">
  <path d="M 241.105469 52.453125 L 508.378906 52.453125 L 508.378906 300.847656 L 241.105469 300.847656 Z M 241.105469 52.453125 L 424.535156 219.71875 C 424.535156 227.71875 418.046875 234.207031 410.046875 234.207031 C 402.042969 234.207031 395.558594 227.71875 395.558594 219.71875 C 395.558594 211.714844 402.042969 205.230469 410.046875 205.230469 C 418.046875 205.230469 424.535156 211.714844 424.535156 219.71875 Z M 241.105469 52.453125 "/>
</clipPath>
<clipPath id="clip21">
  <path d="M 241.105469 52.453125 L 508.378906 52.453125 L 508.378906 300.847656 L 241.105469 300.847656 Z M 241.105469 52.453125 L 353.925781 133.582031 C 353.925781 141.585938 347.441406 148.070312 339.4375 148.070312 C 331.4375 148.070312 324.949219 141.585938 324.949219 133.582031 C 324.949219 125.582031 331.4375 119.09375 339.4375 119.09375 C 347.441406 119.09375 353.925781 125.582031 353.925781 133.582031 Z M 241.105469 52.453125 "/>
</clipPath>
<clipPath id="clip22">
  <path d="M 456.355469 133 L 574.757812 133 L 574.757812 229 L 456.355469 229 Z M 456.355469 133 "/>
</clipPath>
<clipPath id="clip23">
  <path d="M 456.355469 52.292969 L 574.757812 52.292969 L 574.757812 310.273438 L 456.355469 310.273438 Z M 456.355469 52.292969 L 555.644531 174.707031 C 555.644531 182.707031 549.15625 189.195312 541.15625 189.195312 C 533.152344 189.195312 526.667969 182.707031 526.667969 174.707031 C 526.667969 166.707031 533.152344 160.21875 541.15625 160.21875 C 549.15625 160.21875 555.644531 166.707031 555.644531 174.707031 Z M 456.355469 52.292969 "/>
</clipPath>
<clipPath id="clip24">
  <path d="M 456.355469 52.292969 L 574.757812 52.292969 L 574.757812 310.273438 L 456.355469 310.273438 Z M 456.355469 52.292969 L 504.449219 187.859375 C 504.449219 195.859375 497.960938 202.347656 489.957031 202.347656 C 481.957031 202.347656 475.46875 195.859375 475.46875 187.859375 C 475.46875 179.855469 481.957031 173.371094 489.957031 173.371094 C 497.960938 173.371094 504.449219 179.855469 504.449219 187.859375 Z M 456.355469 52.292969 "/>
</clipPath>
<clipPath id="clip25">
  <path d="M 97.03125 269 L 329.671875 269 L 329.671875 401 L 97.03125 401 Z M 97.03125 269 "/>
</clipPath>
<clipPath id="clip26">
  <path d="M 97.03125 190.019531 L 329.671875 190.019531 L 329.671875 479.464844 L 97.03125 479.464844 Z M 97.03125 190.019531 L 303.085938 310.261719 C 303.085938 318.261719 296.601562 324.75 288.597656 324.75 C 280.597656 324.75 274.109375 318.261719 274.109375 310.261719 C 274.109375 302.261719 280.597656 295.773438 288.597656 295.773438 C 296.601562 295.773438 303.085938 302.261719 303.085938 310.261719 Z M 97.03125 190.019531 "/>
</clipPath>
<clipPath id="clip27">
  <path d="M 97.03125 190.019531 L 329.671875 190.019531 L 329.671875 479.464844 L 97.03125 479.464844 Z M 97.03125 190.019531 L 152.59375 359.222656 C 152.59375 367.222656 146.109375 373.710938 138.105469 373.710938 C 130.105469 373.710938 123.617188 367.222656 123.617188 359.222656 C 123.617188 351.21875 130.105469 344.734375 138.105469 344.734375 C 146.109375 344.734375 152.59375 351.21875 152.59375 359.222656 Z M 97.03125 190.019531 "/>
</clipPath>
<clipPath id="clip28">
  <path d="M 188 242 L 330 242 L 330 352 L 188 352 Z M 188 242 "/>
</clipPath>
<clipPath id="clip29">
  <path d="M 174.851562 167.960938 L 342.957031 167.960938 L 342.957031 425.3125 L 174.851562 425.3125 Z M 174.851562 167.960938 L 303.085938 310.261719 C 303.085938 318.261719 296.601562 324.75 288.597656 324.75 C 280.597656 324.75 274.109375 318.261719 274.109375 310.261719 C 274.109375 302.261719 280.597656 295.773438 288.597656 295.773438 C 296.601562 295.773438 303.085938 302.261719 303.085938 310.261719 Z M 174.851562 167.960938 "/>
</clipPath>
<clipPath id="clip30">
  <path d="M 174.851562 167.960938 L 342.957031 167.960938 L 342.957031 425.3125 L 174.851562 425.3125 Z M 174.851562 167.960938 L 243.699219 283.011719 C 243.699219 291.011719 237.214844 297.5 229.210938 297.5 C 221.210938 297.5 214.722656 291.011719 214.722656 283.011719 C 214.722656 275.007812 221.210938 268.523438 229.210938 268.523438 C 237.214844 268.523438 243.699219 275.007812 243.699219 283.011719 Z M 174.851562 167.960938 "/>
</clipPath>
<clipPath id="clip31">
  <path d="M 385.503906 427 L 488.839844 427 L 488.839844 519 L 385.503906 519 Z M 385.503906 427 "/>
</clipPath>
<clipPath id="clip32">
  <path d="M 385.503906 344.007812 L 488.839844 344.007812 L 488.839844 602.058594 L 385.503906 602.058594 Z M 385.503906 344.007812 L 477.4375 468.144531 C 477.4375 476.148438 470.953125 482.632812 462.949219 482.632812 C 454.949219 482.632812 448.460938 476.148438 448.460938 468.144531 C 448.460938 460.144531 454.949219 453.65625 462.949219 453.65625 C 470.953125 453.65625 477.4375 460.144531 477.4375 468.144531 Z M 385.503906 344.007812 "/>
</clipPath>
<clipPath id="clip33">
  <path d="M 385.503906 344.007812 L 488.839844 344.007812 L 488.839844 602.058594 L 385.503906 602.058594 Z M 385.503906 344.007812 L 425.882812 477.921875 C 425.882812 485.925781 419.398438 492.410156 411.394531 492.410156 C 403.394531 492.410156 396.90625 485.925781 396.90625 477.921875 C 396.90625 469.921875 403.394531 463.433594 411.394531 463.433594 C 419.398438 463.433594 425.882812 469.921875 425.882812 477.921875 Z M 385.503906 344.007812 "/>
</clipPath>
<clipPath id="clip34">
  <path d="M 445.507812 419 L 542.761719 419 L 542.761719 510 L 445.507812 510 Z M 445.507812 419 "/>
</clipPath>
<clipPath id="clip35">
  <path d="M 445.507812 335.304688 L 542.761719 335.304688 L 542.761719 593.582031 L 445.507812 593.582031 Z M 445.507812 335.304688 L 477.4375 468.144531 C 477.4375 476.148438 470.953125 482.632812 462.949219 482.632812 C 454.949219 482.632812 448.460938 476.148438 448.460938 468.144531 C 448.460938 460.144531 454.949219 453.65625 462.949219 453.65625 C 470.953125 453.65625 477.4375 460.144531 477.4375 468.144531 Z M 445.507812 335.304688 "/>
</clipPath>
<clipPath id="clip36">
  <path d="M 445.507812 335.304688 L 542.761719 335.304688 L 542.761719 593.582031 L 445.507812 593.582031 Z M 445.507812 335.304688 L 539.808594 460.742188 C 539.808594 468.746094 533.320312 475.230469 525.320312 475.230469 C 517.320312 475.230469 510.832031 468.746094 510.832031 460.742188 C 510.832031 452.742188 517.320312 446.253906 525.320312 446.253906 C 533.320312 446.253906 539.808594 452.742188 539.808594 460.742188 Z M 445.507812 335.304688 "/>
</clipPath>
<clipPath id="clip37">
  <path d="M 421 374 L 571 374 L 571 510 L 421 510 Z M 421 374 "/>
</clipPath>
<clipPath id="clip38">
  <path d="M 383.691406 315.746094 L 608.9375 315.746094 L 608.9375 567.976562 L 383.691406 567.976562 Z M 383.691406 315.746094 L 477.4375 468.144531 C 477.4375 476.148438 470.953125 482.632812 462.949219 482.632812 C 454.949219 482.632812 448.460938 476.148438 448.460938 468.144531 C 448.460938 460.144531 454.949219 453.65625 462.949219 453.65625 C 470.953125 453.65625 477.4375 460.144531 477.4375 468.144531 Z M 383.691406 315.746094 "/>
</clipPath>
<clipPath id="clip39">
  <path d="M 383.691406 315.746094 L 608.9375 315.746094 L 608.9375 567.976562 L 383.691406 567.976562 Z M 383.691406 315.746094 L 544.167969 415.578125 C 544.167969 423.582031 537.679688 430.066406 529.679688 430.066406 C 521.675781 430.066406 515.191406 423.582031 515.191406 415.578125 C 515.191406 407.578125 521.675781 401.089844 529.679688 401.089844 C 537.679688 401.089844 544.167969 407.578125 544.167969 415.578125 Z M 383.691406 315.746094 "/>
</clipPath>
<clipPath id="clip40">
  <path d="M 296 427 L 504 427 L 504 569 L 296 569 Z M 296 427 "/>
</clipPath>
<clipPath id="clip41">
  <path d="M 281.585938 353.84375 L 518.917969 353.84375 L 518.917969 642.183594 L 281.585938 642.183594 Z M 281.585938 353.84375 L 477.4375 468.144531 C 477.4375 476.148438 470.953125 482.632812 462.949219 482.632812 C 454.949219 482.632812 448.460938 476.148438 448.460938 468.144531 C 448.460938 460.144531 454.949219 453.65625 462.949219 453.65625 C 470.953125 453.65625 477.4375 460.144531 477.4375 468.144531 Z M 281.585938 353.84375 "/>
</clipPath>
<clipPath id="clip42">
  <path d="M 281.585938 353.84375 L 518.917969 353.84375 L 518.917969 642.183594 L 281.585938 642.183594 Z M 281.585938 353.84375 L 352.042969 527.882812 C 352.042969 535.882812 345.558594 542.371094 337.554688 542.371094 C 329.554688 542.371094 323.066406 535.882812 323.066406 527.882812 C 323.066406 519.882812 329.554688 513.394531 337.554688 513.394531 C 345.558594 513.394531 352.042969 519.882812 352.042969 527.882812 Z M 281.585938 353.84375 "/>
</clipPath>
<clipPath id="clip43">
  <path d="M 347 436 L 453 436 L 453 576 L 347 576 Z M 347 436 "/>
</clipPath>
<clipPath id="clip44">
  <path d="M 271.117188 428.871094 L 528.734375 428.871094 L 528.734375 583.851562 L 271.117188 583.851562 Z M 271.117188 428.871094 L 425.882812 477.921875 C 425.882812 485.925781 419.398438 492.410156 411.394531 492.410156 C 403.394531 492.410156 396.90625 485.925781 396.90625 477.921875 C 396.90625 469.921875 403.394531 463.433594 411.394531 463.433594 C 419.398438 463.433594 425.882812 469.921875 425.882812 477.921875 Z M 271.117188 428.871094 "/>
</clipPath>
<clipPath id="clip45">
  <path d="M 271.117188 428.871094 L 528.734375 428.871094 L 528.734375 583.851562 L 271.117188 583.851562 Z M 271.117188 428.871094 L 402.945312 534.800781 C 402.945312 542.800781 396.460938 549.289062 388.457031 549.289062 C 380.457031 549.289062 373.96875 542.800781 373.96875 534.800781 C 373.96875 526.796875 380.457031 520.3125 388.457031 520.3125 C 396.460938 520.3125 402.945312 526.796875 402.945312 534.800781 Z M 271.117188 428.871094 "/>
</clipPath>
<clipPath id="clip46">
  <path d="M 370 436 L 484 436 L 484 569 L 370 569 Z M 370 436 "/>
</clipPath>
<clipPath id="clip47">
  <path d="M 303.933594 409.496094 L 549.875 409.496094 L 549.875 595.84375 L 303.933594 595.84375 Z M 303.933594 409.496094 L 425.882812 477.921875 C 425.882812 485.925781 419.398438 492.410156 411.394531 492.410156 C 403.394531 492.410156 396.90625 485.925781 396.90625 477.921875 C 396.90625 469.921875 403.394531 463.433594 411.394531 463.433594 C 419.398438 463.433594 425.882812 469.921875 425.882812 477.921875 Z M 303.933594 409.496094 "/>
</clipPath>
<clipPath id="clip48">
  <path d="M 303.933594 409.496094 L 549.875 409.496094 L 549.875 595.84375 L 303.933594 595.84375 Z M 303.933594 409.496094 L 456.902344 527.417969 C 456.902344 535.417969 450.414062 541.90625 442.414062 541.90625 C 434.410156 541.90625 427.925781 535.417969 427.925781 527.417969 C 427.925781 519.414062 434.410156 512.929688 442.414062 512.929688 C 450.414062 512.929688 456.902344 519.414062 456.902344 527.417969 Z M 303.933594 409.496094 "/>
</clipPath>
<clipPath id="clip49">
  <path d="M 50 245 L 201 245 L 201 371 L 50 371 Z M 50 245 "/>
</clipPath>
<clipPath id="clip50">
  <path d="M 22.847656 179.863281 L 228.246094 179.863281 L 228.246094 436.84375 L 22.847656 436.84375 Z M 22.847656 179.863281 L 173.753906 286.972656 C 173.753906 294.976562 167.265625 301.460938 159.265625 301.460938 C 151.261719 301.460938 144.777344 294.976562 144.777344 286.972656 C 144.777344 278.972656 151.261719 272.484375 159.265625 272.484375 C 167.265625 272.484375 173.753906 278.972656 173.753906 286.972656 Z M 22.847656 179.863281 "/>
</clipPath>
<clipPath id="clip51">
  <path d="M 22.847656 179.863281 L 228.246094 179.863281 L 228.246094 436.84375 L 22.847656 436.84375 Z M 22.847656 179.863281 L 106.316406 329.734375 C 106.316406 337.738281 99.832031 344.222656 91.828125 344.222656 C 83.828125 344.222656 77.339844 337.738281 77.339844 329.734375 C 77.339844 321.734375 83.828125 315.246094 91.828125 315.246094 C 99.832031 315.246094 106.316406 321.734375 106.316406 329.734375 Z M 22.847656 179.863281 "/>
</clipPath>
<clipPath id="clip52">
  <path d="M 149.390625 242 L 239.085938 242 L 239.085938 328 L 149.390625 328 Z M 149.390625 242 "/>
</clipPath>
<clipPath id="clip53">
  <path d="M 149.390625 156.914062 L 239.085938 156.914062 L 239.085938 413.070312 L 149.390625 413.070312 Z M 149.390625 156.914062 L 173.753906 286.972656 C 173.753906 294.976562 167.265625 301.460938 159.265625 301.460938 C 151.261719 301.460938 144.777344 294.976562 144.777344 286.972656 C 144.777344 278.972656 151.261719 272.484375 159.265625 272.484375 C 167.265625 272.484375 173.753906 278.972656 173.753906 286.972656 Z M 149.390625 156.914062 "/>
</clipPath>
<clipPath id="clip54">
  <path d="M 149.390625 156.914062 L 239.085938 156.914062 L 239.085938 413.070312 L 149.390625 413.070312 Z M 149.390625 156.914062 L 243.699219 283.011719 C 243.699219 291.011719 237.214844 297.5 229.210938 297.5 C 221.210938 297.5 214.722656 291.011719 214.722656 283.011719 C 214.722656 275.007812 221.210938 268.523438 229.210938 268.523438 C 237.214844 268.523438 243.699219 275.007812 243.699219 283.011719 Z M 149.390625 156.914062 "/>
</clipPath>
<clipPath id="clip55">
  <path d="M 0 265 L 133 265 L 133 371 L 0 371 Z M 0 265 "/>
</clipPath>
<clipPath id="clip56">
  <path d="M -15.644531 189.027344 L 141.742188 189.027344 L 141.742188 446.722656 L -15.644531 446.722656 Z M -15.644531 189.027344 L 106.316406 329.734375 C 106.316406 337.738281 99.832031 344.222656 91.828125 344.222656 C 83.828125 344.222656 77.339844 337.738281 77.339844 329.734375 C 77.339844 321.734375 83.828125 315.246094 91.828125 315.246094 C 99.832031 315.246094 106.316406 321.734375 106.316406 329.734375 Z M -15.644531 189.027344 "/>
</clipPath>
<clipPath id="clip57">
  <path d="M -15.644531 189.027344 L 141.742188 189.027344 L 141.742188 446.722656 L -15.644531 446.722656 Z M -15.644531 189.027344 L 48.757812 306.015625 C 48.757812 314.015625 42.269531 320.503906 34.269531 320.503906 C 26.269531 320.503906 19.78125 314.015625 19.78125 306.015625 C 19.78125 298.011719 26.269531 291.527344 34.269531 291.527344 C 42.269531 291.527344 48.757812 298.011719 48.757812 306.015625 Z M -15.644531 189.027344 "/>
</clipPath>
<clipPath id="clip58">
  <path d="M 48 320.617188 L 133 320.617188 L 133 393.210938 L 48 393.210938 Z M 48 320.617188 "/>
</clipPath>
<clipPath id="clip59">
  <path d="M -37.054688 320.617188 L 217.96875 320.617188 L 217.96875 393.210938 L -37.054688 393.210938 Z M -37.054688 320.617188 L 106.316406 329.734375 C 106.316406 337.738281 99.832031 344.222656 91.828125 344.222656 C 83.828125 344.222656 77.339844 337.738281 77.339844 329.734375 C 77.339844 321.734375 83.828125 315.246094 91.828125 315.246094 C 99.832031 315.246094 106.316406 321.734375 106.316406 329.734375 Z M -37.054688 320.617188 "/>
</clipPath>
<clipPath id="clip60">
  <path d="M -37.054688 320.617188 L 217.96875 320.617188 L 217.96875 393.210938 L -37.054688 393.210938 Z M -37.054688 320.617188 L 103.574219 384.09375 C 103.574219 392.09375 97.085938 398.582031 89.085938 398.582031 C 81.082031 398.582031 74.597656 392.09375 74.597656 384.09375 C 74.597656 376.089844 81.082031 369.605469 89.085938 369.605469 C 97.085938 369.605469 103.574219 376.089844 103.574219 384.09375 Z M -37.054688 320.617188 "/>
</clipPath>
<clipPath id="clip61">
  <path d="M 50 288 L 180 288 L 180 401 L 50 401 Z M 50 288 "/>
</clipPath>
<clipPath id="clip62">
  <path d="M 22.617188 222.769531 L 207.316406 222.769531 L 207.316406 466.1875 L 22.617188 466.1875 Z M 22.617188 222.769531 L 106.316406 329.734375 C 106.316406 337.738281 99.832031 344.222656 91.828125 344.222656 C 83.828125 344.222656 77.339844 337.738281 77.339844 329.734375 C 77.339844 321.734375 83.828125 315.246094 91.828125 315.246094 C 99.832031 315.246094 106.316406 321.734375 106.316406 329.734375 Z M 22.617188 222.769531 "/>
</clipPath>
<clipPath id="clip63">
  <path d="M 22.617188 222.769531 L 207.316406 222.769531 L 207.316406 466.1875 L 22.617188 466.1875 Z M 22.617188 222.769531 L 152.59375 359.222656 C 152.59375 367.222656 146.109375 373.710938 138.105469 373.710938 C 130.105469 373.710938 123.617188 367.222656 123.617188 359.222656 C 123.617188 351.21875 130.105469 344.734375 138.105469 344.734375 C 146.109375 344.734375 152.59375 351.21875 152.59375 359.222656 Z M 22.617188 222.769531 "/>
</clipPath>
<clipPath id="clip64">
  <path d="M 48 318 L 180 318 L 180 426 L 48 426 Z M 48 318 "/>
</clipPath>
<clipPath id="clip65">
  <path d="M 30.355469 246.28125 L 196.835938 246.28125 L 196.835938 497.035156 L 30.355469 497.035156 Z M 30.355469 246.28125 L 103.574219 384.09375 C 103.574219 392.09375 97.085938 398.582031 89.085938 398.582031 C 81.082031 398.582031 74.597656 392.09375 74.597656 384.09375 C 74.597656 376.089844 81.082031 369.605469 89.085938 369.605469 C 97.085938 369.605469 103.574219 376.089844 103.574219 384.09375 Z M 30.355469 246.28125 "/>
</clipPath>
<clipPath id="clip66">
  <path d="M 30.355469 246.28125 L 196.835938 246.28125 L 196.835938 497.035156 L 30.355469 497.035156 Z M 30.355469 246.28125 L 152.59375 359.222656 C 152.59375 367.222656 146.109375 373.710938 138.105469 373.710938 C 130.105469 373.710938 123.617188 367.222656 123.617188 359.222656 C 123.617188 351.21875 130.105469 344.734375 138.105469 344.734375 C 146.109375 344.734375 152.59375 351.21875 152.59375 359.222656 Z M 30.355469 246.28125 "/>
</clipPath>
<clipPath id="clip67">
  <path d="M 48 360.507812 L 136 360.507812 L 136 442.292969 L 48 442.292969 Z M 48 360.507812 "/>
</clipPath>
<clipPath id="clip68">
  <path d="M -35.464844 360.507812 L 219.523438 360.507812 L 219.523438 442.292969 L -35.464844 442.292969 Z M -35.464844 360.507812 L 103.574219 384.09375 C 103.574219 392.09375 97.085938 398.582031 89.085938 398.582031 C 81.082031 398.582031 74.597656 392.09375 74.597656 384.09375 C 74.597656 376.089844 81.082031 369.605469 89.085938 369.605469 C 97.085938 369.605469 103.574219 376.089844 103.574219 384.09375 Z M -35.464844 360.507812 "/>
</clipPath>
<clipPath id="clip69">
  <path d="M -35.464844 360.507812 L 219.523438 360.507812 L 219.523438 442.292969 L -35.464844 442.292969 Z M -35.464844 360.507812 L 109.460938 418.707031 C 109.460938 426.707031 102.972656 433.195312 94.972656 433.195312 C 86.96875 433.195312 80.484375 426.707031 80.484375 418.707031 C 80.484375 410.703125 86.96875 404.21875 94.972656 404.21875 C 102.972656 404.21875 109.460938 410.703125 109.460938 418.707031 Z M -35.464844 360.507812 "/>
</clipPath>
<clipPath id="clip70">
  <path d="M 53 318 L 180 318 L 180 460 L 53 460 Z M 53 318 "/>
</clipPath>
<clipPath id="clip71">
  <path d="M -7.824219 283.886719 L 240.902344 283.886719 L 240.902344 494.042969 L -7.824219 494.042969 Z M -7.824219 283.886719 L 152.59375 359.222656 C 152.59375 367.222656 146.109375 373.710938 138.105469 373.710938 C 130.105469 373.710938 123.617188 367.222656 123.617188 359.222656 C 123.617188 351.21875 130.105469 344.734375 138.105469 344.734375 C 146.109375 344.734375 152.59375 351.21875 152.59375 359.222656 Z M -7.824219 283.886719 "/>
</clipPath>
<clipPath id="clip72">
  <path d="M -7.824219 283.886719 L 240.902344 283.886719 L 240.902344 494.042969 L -7.824219 494.042969 Z M -7.824219 283.886719 L 109.460938 418.707031 C 109.460938 426.707031 102.972656 433.195312 94.972656 433.195312 C 86.96875 433.195312 80.484375 426.707031 80.484375 418.707031 C 80.484375 410.703125 86.96875 404.21875 94.972656 404.21875 C 102.972656 404.21875 109.460938 410.703125 109.460938 418.707031 Z M -7.824219 283.886719 "/>
</clipPath>
<clipPath id="clip73">
  <path d="M 97 344.796875 L 188 344.796875 L 188 463.378906 L 97 463.378906 Z M 97 344.796875 "/>
</clipPath>
<clipPath id="clip74">
  <path d="M 12.347656 344.796875 L 272.28125 344.796875 L 272.28125 463.378906 L 12.347656 463.378906 Z M 12.347656 344.796875 L 152.59375 359.222656 C 152.59375 367.222656 146.109375 373.710938 138.105469 373.710938 C 130.105469 373.710938 123.617188 367.222656 123.617188 359.222656 C 123.617188 351.21875 130.105469 344.734375 138.105469 344.734375 C 146.109375 344.734375 152.59375 351.21875 152.59375 359.222656 Z M 12.347656 344.796875 "/>
</clipPath>
<clipPath id="clip75">
  <path d="M 12.347656 344.796875 L 272.28125 344.796875 L 272.28125 463.378906 L 12.347656 463.378906 Z M 12.347656 344.796875 L 161.011719 448.953125 C 161.011719 456.953125 154.527344 463.441406 146.523438 463.441406 C 138.523438 463.441406 132.035156 456.953125 132.035156 448.953125 C 132.035156 440.953125 138.523438 434.464844 146.523438 434.464844 C 154.527344 434.464844 161.011719 440.953125 161.011719 448.953125 Z M 12.347656 344.796875 "/>
</clipPath>
<clipPath id="clip76">
  <path d="M 59 194.054688 L 180 194.054688 L 180 396.933594 L 59 396.933594 Z M 59 194.054688 "/>
</clipPath>
<clipPath id="clip77">
  <path d="M -20.660156 194.054688 L 259.390625 194.054688 L 259.390625 396.933594 L -20.660156 396.933594 Z M -20.660156 194.054688 L 152.59375 359.222656 C 152.59375 367.222656 146.109375 373.710938 138.105469 373.710938 C 130.105469 373.710938 123.617188 367.222656 123.617188 359.222656 C 123.617188 351.21875 130.105469 344.734375 138.105469 344.734375 C 146.109375 344.734375 152.59375 351.21875 152.59375 359.222656 Z M -20.660156 194.054688 "/>
</clipPath>
<clipPath id="clip78">
  <path d="M -20.660156 194.054688 L 259.390625 194.054688 L 259.390625 396.933594 L -20.660156 396.933594 Z M -20.660156 194.054688 L 115.113281 231.765625 C 115.113281 239.765625 108.625 246.253906 100.625 246.253906 C 92.621094 246.253906 86.136719 239.765625 86.136719 231.765625 C 86.136719 223.761719 92.621094 217.277344 100.625 217.277344 C 108.625 217.277344 115.113281 223.761719 115.113281 231.765625 Z M -20.660156 194.054688 "/>
</clipPath>
<clipPath id="clip79">
  <path d="M 468 213 L 600 213 L 600 315 L 468 315 Z M 468 213 "/>
</clipPath>
<clipPath id="clip80">
  <path d="M 467.425781 135.070312 L 608.109375 135.070312 L 608.109375 393.574219 L 467.425781 393.574219 Z M 467.425781 135.070312 L 524.292969 254.878906 C 524.292969 262.878906 517.808594 269.367188 509.804688 269.367188 C 501.804688 269.367188 495.316406 262.878906 495.316406 254.878906 C 495.316406 246.875 501.804688 240.390625 509.804688 240.390625 C 517.808594 240.390625 524.292969 246.875 524.292969 254.878906 Z M 467.425781 135.070312 "/>
</clipPath>
<clipPath id="clip81">
  <path d="M 467.425781 135.070312 L 608.109375 135.070312 L 608.109375 393.574219 L 467.425781 393.574219 Z M 467.425781 135.070312 L 580.21875 273.765625 C 580.21875 281.769531 573.730469 288.253906 565.730469 288.253906 C 557.730469 288.253906 551.242188 281.769531 551.242188 273.765625 C 551.242188 265.765625 557.730469 259.277344 565.730469 259.277344 C 573.730469 259.277344 580.21875 265.765625 580.21875 273.765625 Z M 467.425781 135.070312 "/>
</clipPath>
<clipPath id="clip82">
  <path d="M 376 7 L 501 7 L 501 107 L 376 107 Z M 376 7 "/>
</clipPath>
<clipPath id="clip83">
  <path d="M 367.738281 -68.511719 L 509.761719 -68.511719 L 509.761719 182.578125 L 367.738281 182.578125 Z M 367.738281 -68.511719 L 474.113281 65.683594 C 474.113281 73.683594 467.625 80.171875 459.625 80.171875 C 451.621094 80.171875 445.136719 73.683594 445.136719 65.683594 C 445.136719 57.683594 451.621094 51.195312 459.625 51.195312 C 467.625 51.195312 474.113281 57.683594 474.113281 65.683594 Z M 367.738281 -68.511719 "/>
</clipPath>
<clipPath id="clip84">
  <path d="M 367.738281 -68.511719 L 509.761719 -68.511719 L 509.761719 182.578125 L 367.738281 182.578125 Z M 367.738281 -68.511719 L 432.363281 48.382812 C 432.363281 56.382812 425.878906 62.871094 417.875 62.871094 C 409.875 62.871094 403.386719 56.382812 403.386719 48.382812 C 403.386719 40.378906 409.875 33.894531 417.875 33.894531 C 425.878906 33.894531 432.363281 40.378906 432.363281 48.382812 Z M 367.738281 -68.511719 "/>
</clipPath>
<clipPath id="clip85">
  <path d="M 290 0 L 406 0 L 406 111 L 290 111 Z M 290 0 "/>
</clipPath>
<clipPath id="clip86">
  <path d="M 245.199219 -54.523438 L 450.777344 -54.523438 L 450.777344 163.074219 L 245.199219 163.074219 Z M 245.199219 -54.523438 L 378.855469 39.21875 C 378.855469 47.21875 372.367188 53.707031 364.367188 53.707031 C 356.363281 53.707031 349.875 47.21875 349.875 39.21875 C 349.875 31.214844 356.363281 24.730469 364.367188 24.730469 C 372.367188 24.730469 378.855469 31.214844 378.855469 39.21875 Z M 245.199219 -54.523438 "/>
</clipPath>
<clipPath id="clip87">
  <path d="M 245.199219 -54.523438 L 450.777344 -54.523438 L 450.777344 163.074219 L 245.199219 163.074219 Z M 245.199219 -54.523438 L 346.097656 69.332031 C 346.097656 77.332031 339.613281 83.820312 331.609375 83.820312 C 323.609375 83.820312 317.121094 77.332031 317.121094 69.332031 C 317.121094 61.328125 323.609375 54.84375 331.609375 54.84375 C 339.613281 54.84375 346.097656 61.328125 346.097656 69.332031 Z M 245.199219 -54.523438 "/>
</clipPath>
<clipPath id="clip88">
  <path d="M 340.636719 0 L 441.605469 0 L 441.605469 90 L 340.636719 90 Z M 340.636719 0 "/>
</clipPath>
<clipPath id="clip89">
  <path d="M 340.636719 -85.304688 L 441.605469 -85.304688 L 441.605469 172.90625 L 340.636719 172.90625 Z M 340.636719 -85.304688 L 378.855469 39.21875 C 378.855469 47.21875 372.367188 53.707031 364.367188 53.707031 C 356.363281 53.707031 349.875 47.21875 349.875 39.21875 C 349.875 31.214844 356.363281 24.730469 364.367188 24.730469 C 372.367188 24.730469 378.855469 31.214844 378.855469 39.21875 Z M 340.636719 -85.304688 "/>
</clipPath>
<clipPath id="clip90">
  <path d="M 340.636719 -85.304688 L 441.605469 -85.304688 L 441.605469 172.90625 L 340.636719 172.90625 Z M 340.636719 -85.304688 L 432.363281 48.382812 C 432.363281 56.382812 425.878906 62.871094 417.875 62.871094 C 409.875 62.871094 403.386719 56.382812 403.386719 48.382812 C 403.386719 40.378906 409.875 33.894531 417.875 33.894531 C 425.878906 33.894531 432.363281 40.378906 432.363281 48.382812 Z M 340.636719 -85.304688 "/>
</clipPath>
<clipPath id="clip91">
  <path d="M 240 65 L 381 65 L 381 175 L 240 175 Z M 240 65 "/>
</clipPath>
<clipPath id="clip92">
  <path d="M 225.589844 -8.242188 L 395.5625 -8.242188 L 395.5625 247.808594 L 225.589844 247.808594 Z M 225.589844 -8.242188 L 296.203125 105.984375 C 296.203125 113.988281 289.714844 120.472656 281.714844 120.472656 C 273.710938 120.472656 267.226562 113.988281 267.226562 105.984375 C 267.226562 97.984375 273.710938 91.496094 281.714844 91.496094 C 289.714844 91.496094 296.203125 97.984375 296.203125 105.984375 Z M 225.589844 -8.242188 "/>
</clipPath>
<clipPath id="clip93">
  <path d="M 225.589844 -8.242188 L 395.5625 -8.242188 L 395.5625 247.808594 L 225.589844 247.808594 Z M 225.589844 -8.242188 L 353.925781 133.582031 C 353.925781 141.585938 347.441406 148.070312 339.4375 148.070312 C 331.4375 148.070312 324.949219 141.585938 324.949219 133.582031 C 324.949219 125.582031 331.4375 119.09375 339.4375 119.09375 C 347.441406 119.09375 353.925781 125.582031 353.925781 133.582031 Z M 225.589844 -8.242188 "/>
</clipPath>
<clipPath id="clip94">
  <path d="M 290 51.507812 L 381 51.507812 L 381 151.40625 L 290 151.40625 Z M 290 51.507812 "/>
</clipPath>
<clipPath id="clip95">
  <path d="M 206.21875 51.507812 L 464.828125 51.507812 L 464.828125 151.40625 L 206.21875 151.40625 Z M 206.21875 51.507812 L 346.097656 69.332031 C 346.097656 77.332031 339.613281 83.820312 331.609375 83.820312 C 323.609375 83.820312 317.121094 77.332031 317.121094 69.332031 C 317.121094 61.328125 323.609375 54.84375 331.609375 54.84375 C 339.613281 54.84375 346.097656 61.328125 346.097656 69.332031 Z M 206.21875 51.507812 "/>
</clipPath>
<clipPath id="clip96">
  <path d="M 206.21875 51.507812 L 464.828125 51.507812 L 464.828125 151.40625 L 206.21875 151.40625 Z M 206.21875 51.507812 L 353.925781 133.582031 C 353.925781 141.585938 347.441406 148.070312 339.4375 148.070312 C 331.4375 148.070312 324.949219 141.585938 324.949219 133.582031 C 324.949219 125.582031 331.4375 119.09375 339.4375 119.09375 C 347.441406 119.09375 353.925781 125.582031 353.925781 133.582031 Z M 206.21875 51.507812 "/>
</clipPath>
<clipPath id="clip97">
  <path d="M 198.160156 512 L 287.300781 512 L 287.300781 600 L 198.160156 600 Z M 198.160156 512 "/>
</clipPath>
<clipPath id="clip98">
  <path d="M 198.160156 428.886719 L 287.300781 428.886719 L 287.300781 685.613281 L 198.160156 685.613281 Z M 198.160156 428.886719 L 279.949219 553.71875 C 279.949219 561.722656 273.460938 568.207031 265.460938 568.207031 C 257.457031 568.207031 250.972656 561.722656 250.972656 553.71875 C 250.972656 545.71875 257.457031 539.230469 265.460938 539.230469 C 273.460938 539.230469 279.949219 545.71875 279.949219 553.71875 Z M 198.160156 428.886719 "/>
</clipPath>
<clipPath id="clip99">
  <path d="M 198.160156 428.886719 L 287.300781 428.886719 L 287.300781 685.613281 L 198.160156 685.613281 Z M 198.160156 428.886719 L 234.488281 560.78125 C 234.488281 568.785156 228 575.269531 220 575.269531 C 211.996094 575.269531 205.511719 568.785156 205.511719 560.78125 C 205.511719 552.78125 211.996094 546.292969 220 546.292969 C 228 546.292969 234.488281 552.78125 234.488281 560.78125 Z M 198.160156 428.886719 "/>
</clipPath>
<clipPath id="clip100">
  <path d="M 224 486 L 379 486 L 379 595 L 224 595 Z M 224 486 "/>
</clipPath>
<clipPath id="clip101">
  <path d="M 220.933594 408.820312 L 382.082031 408.820312 L 382.082031 672.78125 L 220.933594 672.78125 Z M 220.933594 408.820312 L 279.949219 553.71875 C 279.949219 561.722656 273.460938 568.207031 265.460938 568.207031 C 257.457031 568.207031 250.972656 561.722656 250.972656 553.71875 C 250.972656 545.71875 257.457031 539.230469 265.460938 539.230469 C 273.460938 539.230469 279.949219 545.71875 279.949219 553.71875 Z M 220.933594 408.820312 "/>
</clipPath>
<clipPath id="clip102">
  <path d="M 220.933594 408.820312 L 382.082031 408.820312 L 382.082031 672.78125 L 220.933594 672.78125 Z M 220.933594 408.820312 L 352.042969 527.882812 C 352.042969 535.882812 345.558594 542.371094 337.554688 542.371094 C 329.554688 542.371094 323.066406 535.882812 323.066406 527.882812 C 323.066406 519.882812 329.554688 513.394531 337.554688 513.394531 C 345.558594 513.394531 352.042969 519.882812 352.042969 527.882812 Z M 220.933594 408.820312 "/>
</clipPath>
<clipPath id="clip103">
  <path d="M 85 31 L 195 31 L 195 147 L 85 147 Z M 85 31 "/>
</clipPath>
<clipPath id="clip104">
  <path d="M 28.132812 -8.039062 L 251.816406 -8.039062 L 251.816406 186.34375 L 28.132812 186.34375 Z M 28.132812 -8.039062 L 167.765625 72.835938 C 167.765625 80.835938 161.277344 87.324219 153.277344 87.324219 C 145.277344 87.324219 138.789062 80.835938 138.789062 72.835938 C 138.789062 64.835938 145.277344 58.347656 153.277344 58.347656 C 161.277344 58.347656 167.765625 64.835938 167.765625 72.835938 Z M 28.132812 -8.039062 "/>
</clipPath>
<clipPath id="clip105">
  <path d="M 28.132812 -8.039062 L 251.816406 -8.039062 L 251.816406 186.34375 L 28.132812 186.34375 Z M 28.132812 -8.039062 L 141.160156 105.46875 C 141.160156 113.472656 134.671875 119.957031 126.671875 119.957031 C 118.667969 119.957031 112.183594 113.472656 112.183594 105.46875 C 112.183594 97.46875 118.667969 90.980469 126.671875 90.980469 C 134.671875 90.980469 141.160156 97.46875 141.160156 105.46875 Z M 28.132812 -8.039062 "/>
</clipPath>
<clipPath id="clip106">
  <path d="M 61 64 L 168 64 L 168 198 L 61 198 Z M 61 64 "/>
</clipPath>
<clipPath id="clip107">
  <path d="M -12.03125 49.371094 L 240.910156 49.371094 L 240.910156 212.769531 L -12.03125 212.769531 Z M -12.03125 49.371094 L 141.160156 105.46875 C 141.160156 113.472656 134.671875 119.957031 126.671875 119.957031 C 118.667969 119.957031 112.183594 113.472656 112.183594 105.46875 C 112.183594 97.46875 118.667969 90.980469 126.671875 90.980469 C 134.671875 90.980469 141.160156 97.46875 141.160156 105.46875 Z M -12.03125 49.371094 "/>
</clipPath>
<clipPath id="clip108">
  <path d="M -12.03125 49.371094 L 240.910156 49.371094 L 240.910156 212.769531 L -12.03125 212.769531 Z M -12.03125 49.371094 L 116.699219 156.671875 C 116.699219 164.675781 110.210938 171.160156 102.207031 171.160156 C 94.207031 171.160156 87.71875 164.675781 87.71875 156.671875 C 87.71875 148.671875 94.207031 142.183594 102.207031 142.183594 C 110.210938 142.183594 116.699219 148.671875 116.699219 156.671875 Z M -12.03125 49.371094 "/>
</clipPath>
<clipPath id="clip109">
  <path d="M 59 151.175781 L 144 151.175781 L 144 237.261719 L 59 237.261719 Z M 59 151.175781 "/>
</clipPath>
<clipPath id="clip110">
  <path d="M -25.644531 151.175781 L 228.476562 151.175781 L 228.476562 237.261719 L -25.644531 237.261719 Z M -25.644531 151.175781 L 115.113281 231.765625 C 115.113281 239.765625 108.625 246.253906 100.625 246.253906 C 92.621094 246.253906 86.136719 239.765625 86.136719 231.765625 C 86.136719 223.761719 92.621094 217.277344 100.625 217.277344 C 108.625 217.277344 115.113281 223.761719 115.113281 231.765625 Z M -25.644531 151.175781 "/>
</clipPath>
<clipPath id="clip111">
  <path d="M -25.644531 151.175781 L 228.476562 151.175781 L 228.476562 237.261719 L -25.644531 237.261719 Z M -25.644531 151.175781 L 116.699219 156.671875 C 116.699219 164.675781 110.210938 171.160156 102.207031 171.160156 C 94.207031 171.160156 87.71875 164.675781 87.71875 156.671875 C 87.71875 148.671875 94.207031 142.183594 102.207031 142.183594 C 110.210938 142.183594 116.699219 148.671875 116.699219 156.671875 Z M -25.644531 151.175781 "/>
</clipPath>
</defs>
<g id="surface766">
<g clip-path="url(#clip1)" clip-rule="nonzero">
<g clip-path="url(#clip2)" clip-rule="evenodd">
<g clip-path="url(#clip3)" clip-rule="evenodd">
<path style="fill:none;stroke-width:0.0234824;stroke-linecap:butt;stroke-linejoin:miter;stroke:rgb(17.96875%,20.3125%,21.09375%);stroke-opacity:0.8;stroke-miterlimit:10;" d="M 3.557536 3.715211 L 2.957374 3.120208 " transform="matrix(123.39754,0,0,123.39754,-76.334959,-74.764286)"/>
</g>
</g>
</g>
<g clip-path="url(#clip4)" clip-rule="nonzero">
<g clip-path="url(#clip5)" clip-rule="evenodd">
<g clip-path="url(#clip6)" clip-rule="evenodd">
<path style="fill:none;stroke-width:0.0234824;stroke-linecap:butt;stroke-linejoin:miter;stroke:rgb(17.96875%,20.3125%,21.09375%);stroke-opacity:0.8;stroke-miterlimit:10;" d="M 3.557536 3.715211 L 3.952506 4.478907 " transform="matrix(123.39754,0,0,123.39754,-76.334959,-74.764286)"/>
</g>
</g>
</g>
<g clip-path="url(#clip7)" clip-rule="nonzero">
<g clip-path="url(#clip8)" clip-rule="evenodd">
<g clip-path="url(#clip9)" clip-rule="evenodd">
<path style="fill:none;stroke-width:0.0234824;stroke-linecap:butt;stroke-linejoin:miter;stroke:rgb(17.96875%,20.3125%,21.09375%);stroke-opacity:0.8;stroke-miterlimit:10;" d="M 3.557536 3.715211 L 3.895367 3.491309 " transform="matrix(123.39754,0,0,123.39754,-76.334959,-74.764286)"/>
</g>
</g>
</g>
<g clip-path="url(#clip10)" clip-rule="nonzero">
<g clip-path="url(#clip11)" clip-rule="evenodd">
<g clip-path="url(#clip12)" clip-rule="evenodd">
<path style="fill:none;stroke-width:0.0234824;stroke-linecap:butt;stroke-linejoin:miter;stroke:rgb(17.96875%,20.3125%,21.09375%);stroke-opacity:0.8;stroke-miterlimit:10;" d="M 3.941585 2.386458 L 4.589168 2.128273 " transform="matrix(123.39754,0,0,123.39754,-76.334959,-74.764286)"/>
</g>
</g>
</g>
<g clip-path="url(#clip13)" clip-rule="nonzero">
<g clip-path="url(#clip14)" clip-rule="evenodd">
<g clip-path="url(#clip15)" clip-rule="evenodd">
<path style="fill:none;stroke-width:0.0234824;stroke-linecap:butt;stroke-linejoin:miter;stroke:rgb(17.96875%,20.3125%,21.09375%);stroke-opacity:0.8;stroke-miterlimit:10;" d="M 3.941585 2.386458 L 2.957374 3.120208 " transform="matrix(123.39754,0,0,123.39754,-76.334959,-74.764286)"/>
</g>
</g>
</g>
<g clip-path="url(#clip16)" clip-rule="nonzero">
<g clip-path="url(#clip17)" clip-rule="evenodd">
<g clip-path="url(#clip18)" clip-rule="evenodd">
<path style="fill:none;stroke-width:0.0234824;stroke-linecap:butt;stroke-linejoin:miter;stroke:rgb(17.96875%,20.3125%,21.09375%);stroke-opacity:0.8;stroke-miterlimit:10;" d="M 3.941585 2.386458 L 4.750011 2.671392 " transform="matrix(123.39754,0,0,123.39754,-76.334959,-74.764286)"/>
</g>
</g>
</g>
<g clip-path="url(#clip19)" clip-rule="nonzero">
<g clip-path="url(#clip20)" clip-rule="evenodd">
<g clip-path="url(#clip21)" clip-rule="evenodd">
<path style="fill:none;stroke-width:0.0234824;stroke-linecap:butt;stroke-linejoin:miter;stroke:rgb(17.96875%,20.3125%,21.09375%);stroke-opacity:0.8;stroke-miterlimit:10;" d="M 3.941585 2.386458 L 3.369374 1.688415 " transform="matrix(123.39754,0,0,123.39754,-76.334959,-74.764286)"/>
</g>
</g>
</g>
<g clip-path="url(#clip22)" clip-rule="nonzero">
<g clip-path="url(#clip23)" clip-rule="evenodd">
<g clip-path="url(#clip24)" clip-rule="evenodd">
<path style="fill:none;stroke-width:0.0234824;stroke-linecap:butt;stroke-linejoin:miter;stroke:rgb(17.96875%,20.3125%,21.09375%);stroke-opacity:0.8;stroke-miterlimit:10;" d="M 5.00408 2.021688 L 4.589168 2.128273 " transform="matrix(123.39754,0,0,123.39754,-76.334959,-74.764286)"/>
</g>
</g>
</g>
<g clip-path="url(#clip25)" clip-rule="nonzero">
<g clip-path="url(#clip26)" clip-rule="evenodd">
<g clip-path="url(#clip27)" clip-rule="evenodd">
<path style="fill:none;stroke-width:0.0234824;stroke-linecap:butt;stroke-linejoin:miter;stroke:rgb(17.96875%,20.3125%,21.09375%);stroke-opacity:0.8;stroke-miterlimit:10;" d="M 2.957374 3.120208 L 1.737801 3.516982 " transform="matrix(123.39754,0,0,123.39754,-76.334959,-74.764286)"/>
</g>
</g>
</g>
<g clip-path="url(#clip28)" clip-rule="nonzero">
<g clip-path="url(#clip29)" clip-rule="evenodd">
<g clip-path="url(#clip30)" clip-rule="evenodd">
<path style="fill:none;stroke-width:0.0234824;stroke-linecap:butt;stroke-linejoin:miter;stroke:rgb(17.96875%,20.3125%,21.09375%);stroke-opacity:0.8;stroke-miterlimit:10;" d="M 2.957374 3.120208 L 2.47611 2.899377 " transform="matrix(123.39754,0,0,123.39754,-76.334959,-74.764286)"/>
</g>
</g>
</g>
<g clip-path="url(#clip31)" clip-rule="nonzero">
<g clip-path="url(#clip32)" clip-rule="evenodd">
<g clip-path="url(#clip33)" clip-rule="evenodd">
<path style="fill:none;stroke-width:0.0234824;stroke-linecap:butt;stroke-linejoin:miter;stroke:rgb(17.96875%,20.3125%,21.09375%);stroke-opacity:0.8;stroke-miterlimit:10;" d="M 4.370299 4.399673 L 3.952506 4.478907 " transform="matrix(123.39754,0,0,123.39754,-76.334959,-74.764286)"/>
</g>
</g>
</g>
<g clip-path="url(#clip34)" clip-rule="nonzero">
<g clip-path="url(#clip35)" clip-rule="evenodd">
<g clip-path="url(#clip36)" clip-rule="evenodd">
<path style="fill:none;stroke-width:0.0234824;stroke-linecap:butt;stroke-linejoin:miter;stroke:rgb(17.96875%,20.3125%,21.09375%);stroke-opacity:0.8;stroke-miterlimit:10;" d="M 4.370299 4.399673 L 4.875748 4.339685 " transform="matrix(123.39754,0,0,123.39754,-76.334959,-74.764286)"/>
</g>
</g>
</g>
<g clip-path="url(#clip37)" clip-rule="nonzero">
<g clip-path="url(#clip38)" clip-rule="evenodd">
<g clip-path="url(#clip39)" clip-rule="evenodd">
<path style="fill:none;stroke-width:0.0234824;stroke-linecap:butt;stroke-linejoin:miter;stroke:rgb(17.96875%,20.3125%,21.09375%);stroke-opacity:0.8;stroke-miterlimit:10;" d="M 4.370299 4.399673 L 4.911076 3.973681 " transform="matrix(123.39754,0,0,123.39754,-76.334959,-74.764286)"/>
</g>
</g>
</g>
<g clip-path="url(#clip40)" clip-rule="nonzero">
<g clip-path="url(#clip41)" clip-rule="evenodd">
<g clip-path="url(#clip42)" clip-rule="evenodd">
<path style="fill:none;stroke-width:0.0234824;stroke-linecap:butt;stroke-linejoin:miter;stroke:rgb(17.96875%,20.3125%,21.09375%);stroke-opacity:0.8;stroke-miterlimit:10;" d="M 4.370299 4.399673 L 3.354116 4.883785 " transform="matrix(123.39754,0,0,123.39754,-76.334959,-74.764286)"/>
</g>
</g>
</g>
<g clip-path="url(#clip43)" clip-rule="nonzero">
<g clip-path="url(#clip44)" clip-rule="evenodd">
<g clip-path="url(#clip45)" clip-rule="evenodd">
<path style="fill:none;stroke-width:0.0234824;stroke-linecap:butt;stroke-linejoin:miter;stroke:rgb(17.96875%,20.3125%,21.09375%);stroke-opacity:0.8;stroke-miterlimit:10;" d="M 3.952506 4.478907 L 3.766623 4.939848 " transform="matrix(123.39754,0,0,123.39754,-76.334959,-74.764286)"/>
</g>
</g>
</g>
<g clip-path="url(#clip46)" clip-rule="nonzero">
<g clip-path="url(#clip47)" clip-rule="evenodd">
<g clip-path="url(#clip48)" clip-rule="evenodd">
<path style="fill:none;stroke-width:0.0234824;stroke-linecap:butt;stroke-linejoin:miter;stroke:rgb(17.96875%,20.3125%,21.09375%);stroke-opacity:0.8;stroke-miterlimit:10;" d="M 3.952506 4.478907 L 4.203885 4.880018 " transform="matrix(123.39754,0,0,123.39754,-76.334959,-74.764286)"/>
</g>
</g>
</g>
<g clip-path="url(#clip49)" clip-rule="nonzero">
<g clip-path="url(#clip50)" clip-rule="evenodd">
<g clip-path="url(#clip51)" clip-rule="evenodd">
<path style="fill:none;stroke-width:0.0234824;stroke-linecap:butt;stroke-linejoin:miter;stroke:rgb(17.96875%,20.3125%,21.09375%);stroke-opacity:0.8;stroke-miterlimit:10;" d="M 1.909281 2.931476 L 1.362775 3.278012 " transform="matrix(123.39754,0,0,123.39754,-76.334959,-74.764286)"/>
</g>
</g>
</g>
<g clip-path="url(#clip52)" clip-rule="nonzero">
<g clip-path="url(#clip53)" clip-rule="evenodd">
<g clip-path="url(#clip54)" clip-rule="evenodd">
<path style="fill:none;stroke-width:0.0234824;stroke-linecap:butt;stroke-linejoin:miter;stroke:rgb(17.96875%,20.3125%,21.09375%);stroke-opacity:0.8;stroke-miterlimit:10;" d="M 1.909281 2.931476 L 2.47611 2.899377 " transform="matrix(123.39754,0,0,123.39754,-76.334959,-74.764286)"/>
</g>
</g>
</g>
<g clip-path="url(#clip55)" clip-rule="nonzero">
<g clip-path="url(#clip56)" clip-rule="evenodd">
<g clip-path="url(#clip57)" clip-rule="evenodd">
<path style="fill:none;stroke-width:0.0234824;stroke-linecap:butt;stroke-linejoin:miter;stroke:rgb(17.96875%,20.3125%,21.09375%);stroke-opacity:0.8;stroke-miterlimit:10;" d="M 1.362775 3.278012 L 0.896327 3.085798 " transform="matrix(123.39754,0,0,123.39754,-76.334959,-74.764286)"/>
</g>
</g>
</g>
<g clip-path="url(#clip58)" clip-rule="nonzero">
<g clip-path="url(#clip59)" clip-rule="evenodd">
<g clip-path="url(#clip60)" clip-rule="evenodd">
<path style="fill:none;stroke-width:0.0234824;stroke-linecap:butt;stroke-linejoin:miter;stroke:rgb(17.96875%,20.3125%,21.09375%);stroke-opacity:0.8;stroke-miterlimit:10;" d="M 1.362775 3.278012 L 1.340553 3.718535 " transform="matrix(123.39754,0,0,123.39754,-76.334959,-74.764286)"/>
</g>
</g>
</g>
<g clip-path="url(#clip61)" clip-rule="nonzero">
<g clip-path="url(#clip62)" clip-rule="evenodd">
<g clip-path="url(#clip63)" clip-rule="evenodd">
<path style="fill:none;stroke-width:0.0234824;stroke-linecap:butt;stroke-linejoin:miter;stroke:rgb(17.96875%,20.3125%,21.09375%);stroke-opacity:0.8;stroke-miterlimit:10;" d="M 1.362775 3.278012 L 1.737801 3.516982 " transform="matrix(123.39754,0,0,123.39754,-76.334959,-74.764286)"/>
</g>
</g>
</g>
<g clip-path="url(#clip64)" clip-rule="nonzero">
<g clip-path="url(#clip65)" clip-rule="evenodd">
<g clip-path="url(#clip66)" clip-rule="evenodd">
<path style="fill:none;stroke-width:0.0234824;stroke-linecap:butt;stroke-linejoin:miter;stroke:rgb(17.96875%,20.3125%,21.09375%);stroke-opacity:0.8;stroke-miterlimit:10;" d="M 1.340553 3.718535 L 1.737801 3.516982 " transform="matrix(123.39754,0,0,123.39754,-76.334959,-74.764286)"/>
</g>
</g>
</g>
<g clip-path="url(#clip67)" clip-rule="nonzero">
<g clip-path="url(#clip68)" clip-rule="evenodd">
<g clip-path="url(#clip69)" clip-rule="evenodd">
<path style="fill:none;stroke-width:0.0234824;stroke-linecap:butt;stroke-linejoin:miter;stroke:rgb(17.96875%,20.3125%,21.09375%);stroke-opacity:0.8;stroke-miterlimit:10;" d="M 1.340553 3.718535 L 1.388258 3.999037 " transform="matrix(123.39754,0,0,123.39754,-76.334959,-74.764286)"/>
</g>
</g>
</g>
<g clip-path="url(#clip70)" clip-rule="nonzero">
<g clip-path="url(#clip71)" clip-rule="evenodd">
<g clip-path="url(#clip72)" clip-rule="evenodd">
<path style="fill:none;stroke-width:0.0234824;stroke-linecap:butt;stroke-linejoin:miter;stroke:rgb(17.96875%,20.3125%,21.09375%);stroke-opacity:0.8;stroke-miterlimit:10;" d="M 1.737801 3.516982 L 1.388258 3.999037 " transform="matrix(123.39754,0,0,123.39754,-76.334959,-74.764286)"/>
</g>
</g>
</g>
<g clip-path="url(#clip73)" clip-rule="nonzero">
<g clip-path="url(#clip74)" clip-rule="evenodd">
<g clip-path="url(#clip75)" clip-rule="evenodd">
<path style="fill:none;stroke-width:0.0234824;stroke-linecap:butt;stroke-linejoin:miter;stroke:rgb(17.96875%,20.3125%,21.09375%);stroke-opacity:0.8;stroke-miterlimit:10;" d="M 1.737801 3.516982 L 1.80602 4.244148 " transform="matrix(123.39754,0,0,123.39754,-76.334959,-74.764286)"/>
</g>
</g>
</g>
<g clip-path="url(#clip76)" clip-rule="nonzero">
<g clip-path="url(#clip77)" clip-rule="evenodd">
<g clip-path="url(#clip78)" clip-rule="evenodd">
<path style="fill:none;stroke-width:0.0234824;stroke-linecap:butt;stroke-linejoin:miter;stroke:rgb(17.96875%,20.3125%,21.09375%);stroke-opacity:0.8;stroke-miterlimit:10;" d="M 1.737801 3.516982 L 1.434064 2.484084 " transform="matrix(123.39754,0,0,123.39754,-76.334959,-74.764286)"/>
</g>
</g>
</g>
<g clip-path="url(#clip79)" clip-rule="nonzero">
<g clip-path="url(#clip80)" clip-rule="evenodd">
<g clip-path="url(#clip81)" clip-rule="evenodd">
<path style="fill:none;stroke-width:0.0234824;stroke-linecap:butt;stroke-linejoin:miter;stroke:rgb(17.96875%,20.3125%,21.09375%);stroke-opacity:0.8;stroke-miterlimit:10;" d="M 4.750011 2.671392 L 5.203227 2.824448 " transform="matrix(123.39754,0,0,123.39754,-76.334959,-74.764286)"/>
</g>
</g>
</g>
<g clip-path="url(#clip82)" clip-rule="nonzero">
<g clip-path="url(#clip83)" clip-rule="evenodd">
<g clip-path="url(#clip84)" clip-rule="evenodd">
<path style="fill:none;stroke-width:0.0234824;stroke-linecap:butt;stroke-linejoin:miter;stroke:rgb(17.96875%,20.3125%,21.09375%);stroke-opacity:0.8;stroke-miterlimit:10;" d="M 4.34336 1.138174 L 4.005023 0.99797 " transform="matrix(123.39754,0,0,123.39754,-76.334959,-74.764286)"/>
</g>
</g>
</g>
<g clip-path="url(#clip85)" clip-rule="nonzero">
<g clip-path="url(#clip86)" clip-rule="evenodd">
<g clip-path="url(#clip87)" clip-rule="evenodd">
<path style="fill:none;stroke-width:0.0234824;stroke-linecap:butt;stroke-linejoin:miter;stroke:rgb(17.96875%,20.3125%,21.09375%);stroke-opacity:0.8;stroke-miterlimit:10;" d="M 3.571401 0.923706 L 3.305936 1.167741 " transform="matrix(123.39754,0,0,123.39754,-76.334959,-74.764286)"/>
</g>
</g>
</g>
<g clip-path="url(#clip88)" clip-rule="nonzero">
<g clip-path="url(#clip89)" clip-rule="evenodd">
<g clip-path="url(#clip90)" clip-rule="evenodd">
<path style="fill:none;stroke-width:0.0234824;stroke-linecap:butt;stroke-linejoin:miter;stroke:rgb(17.96875%,20.3125%,21.09375%);stroke-opacity:0.8;stroke-miterlimit:10;" d="M 3.571401 0.923706 L 4.005023 0.99797 " transform="matrix(123.39754,0,0,123.39754,-76.334959,-74.764286)"/>
</g>
</g>
</g>
<g clip-path="url(#clip91)" clip-rule="nonzero">
<g clip-path="url(#clip92)" clip-rule="evenodd">
<g clip-path="url(#clip93)" clip-rule="evenodd">
<path style="fill:none;stroke-width:0.0234824;stroke-linecap:butt;stroke-linejoin:miter;stroke:rgb(17.96875%,20.3125%,21.09375%);stroke-opacity:0.8;stroke-miterlimit:10;" d="M 2.901596 1.464767 L 3.369374 1.688415 " transform="matrix(123.39754,0,0,123.39754,-76.334959,-74.764286)"/>
</g>
</g>
</g>
<g clip-path="url(#clip94)" clip-rule="nonzero">
<g clip-path="url(#clip95)" clip-rule="evenodd">
<g clip-path="url(#clip96)" clip-rule="evenodd">
<path style="fill:none;stroke-width:0.0234824;stroke-linecap:butt;stroke-linejoin:miter;stroke:rgb(17.96875%,20.3125%,21.09375%);stroke-opacity:0.8;stroke-miterlimit:10;" d="M 3.305936 1.167741 L 3.369374 1.688415 " transform="matrix(123.39754,0,0,123.39754,-76.334959,-74.764286)"/>
</g>
</g>
</g>
<g clip-path="url(#clip97)" clip-rule="nonzero">
<g clip-path="url(#clip98)" clip-rule="evenodd">
<g clip-path="url(#clip99)" clip-rule="evenodd">
<path style="fill:none;stroke-width:0.0234824;stroke-linecap:butt;stroke-linejoin:miter;stroke:rgb(17.96875%,20.3125%,21.09375%);stroke-opacity:0.8;stroke-miterlimit:10;" d="M 2.769876 5.093157 L 2.401466 5.150391 " transform="matrix(123.39754,0,0,123.39754,-76.334959,-74.764286)"/>
</g>
</g>
</g>
<g clip-path="url(#clip100)" clip-rule="nonzero">
<g clip-path="url(#clip101)" clip-rule="evenodd">
<g clip-path="url(#clip102)" clip-rule="evenodd">
<path style="fill:none;stroke-width:0.0234824;stroke-linecap:butt;stroke-linejoin:miter;stroke:rgb(17.96875%,20.3125%,21.09375%);stroke-opacity:0.8;stroke-miterlimit:10;" d="M 2.769876 5.093157 L 3.354116 4.883785 " transform="matrix(123.39754,0,0,123.39754,-76.334959,-74.764286)"/>
</g>
</g>
</g>
<g clip-path="url(#clip103)" clip-rule="nonzero">
<g clip-path="url(#clip104)" clip-rule="evenodd">
<g clip-path="url(#clip105)" clip-rule="evenodd">
<path style="fill:none;stroke-width:0.0234824;stroke-linecap:butt;stroke-linejoin:miter;stroke:rgb(17.96875%,20.3125%,21.09375%);stroke-opacity:0.8;stroke-miterlimit:10;" d="M 1.860753 1.196136 L 1.645145 1.460589 " transform="matrix(123.39754,0,0,123.39754,-76.334959,-74.764286)"/>
</g>
</g>
</g>
<g clip-path="url(#clip106)" clip-rule="nonzero">
<g clip-path="url(#clip107)" clip-rule="evenodd">
<g clip-path="url(#clip108)" clip-rule="evenodd">
<path style="fill:none;stroke-width:0.0234824;stroke-linecap:butt;stroke-linejoin:miter;stroke:rgb(17.96875%,20.3125%,21.09375%);stroke-opacity:0.8;stroke-miterlimit:10;" d="M 1.645145 1.460589 L 1.446885 1.875533 " transform="matrix(123.39754,0,0,123.39754,-76.334959,-74.764286)"/>
</g>
</g>
</g>
<g clip-path="url(#clip109)" clip-rule="nonzero">
<g clip-path="url(#clip110)" clip-rule="evenodd">
<g clip-path="url(#clip111)" clip-rule="evenodd">
<path style="fill:none;stroke-width:0.0234824;stroke-linecap:butt;stroke-linejoin:miter;stroke:rgb(17.96875%,20.3125%,21.09375%);stroke-opacity:0.8;stroke-miterlimit:10;" d="M 1.434064 2.484084 L 1.446885 1.875533 " transform="matrix(123.39754,0,0,123.39754,-76.334959,-74.764286)"/>
</g>
</g>
</g>
<path style="fill-rule:nonzero;fill:rgb(100%,92.941176%,43.529412%);fill-opacity:1;stroke-width:0.0234824;stroke-linecap:butt;stroke-linejoin:miter;stroke:rgb(60%,60%,60%);stroke-opacity:0.8;stroke-miterlimit:10;" d="M 0.117411 -0.00000170864 C 0.117411 0.0648294 0.0648307 0.11741 -0.000000442588 0.11741 C -0.0648316 0.11741 -0.117412 0.0648294 -0.117412 -0.00000170864 C -0.117412 -0.0648328 -0.0648316 -0.117413 -0.000000442588 -0.117413 C 0.0648307 -0.117413 0.117411 -0.0648328 0.117411 -0.00000170864 Z M 0.117411 -0.00000170864 " transform="matrix(123.39754,0,0,123.39754,362.656305,383.683805)"/>
<path style="fill-rule:nonzero;fill:rgb(100%,92.941176%,43.529412%);fill-opacity:1;stroke-width:0.0234824;stroke-linecap:butt;stroke-linejoin:miter;stroke:rgb(60%,60%,60%);stroke-opacity:0.8;stroke-miterlimit:10;" d="M 0.117424 0.0000127811 C 0.117424 0.0648439 0.0648433 0.117424 0.0000122174 0.117424 C -0.0648506 0.117424 -0.117399 0.0648439 -0.117399 0.0000127811 C -0.117399 -0.06485 -0.0648506 -0.117399 0.0000122174 -0.117399 C 0.0648433 -0.117399 0.117424 -0.06485 0.117424 0.0000127811 Z M 0.117424 0.0000127811 " transform="matrix(123.39754,0,0,123.39754,410.045367,219.717173)"/>
<path style="fill-rule:nonzero;fill:rgb(100%,92.941176%,43.529412%);fill-opacity:1;stroke-width:0.0234824;stroke-linecap:butt;stroke-linejoin:miter;stroke:rgb(60%,60%,60%);stroke-opacity:0.8;stroke-miterlimit:10;" d="M 0.117421 0.000000021397 C 0.117421 0.0648311 0.064841 0.117411 0.00000991783 0.117411 C -0.0648529 0.117411 -0.117402 0.0648311 -0.117402 0.000000021397 C -0.117402 -0.0648311 -0.0648529 -0.117411 0.00000991783 -0.117411 C 0.064841 -0.117411 0.117421 -0.0648311 0.117421 0.000000021397 Z M 0.117421 0.000000021397 " transform="matrix(123.39754,0,0,123.39754,541.155026,174.707029)"/>
<path style="fill-rule:nonzero;fill:rgb(100%,92.941176%,43.529412%);fill-opacity:1;stroke-width:0.0234824;stroke-linecap:butt;stroke-linejoin:miter;stroke:rgb(60%,60%,60%);stroke-opacity:0.8;stroke-miterlimit:10;" d="M 0.117428 0.00000915182 C 0.117428 0.0648403 0.0648474 0.117421 -0.0000154031 0.117421 C -0.0648465 0.117421 -0.117427 0.0648403 -0.117427 0.00000915182 C -0.117427 -0.0648536 -0.0648465 -0.117402 -0.0000154031 -0.117402 C 0.0648474 -0.117402 0.117428 -0.0648536 0.117428 0.00000915182 Z M 0.117428 0.00000915182 " transform="matrix(123.39754,0,0,123.39754,489.958932,187.858246)"/>
<path style="fill-rule:nonzero;fill:rgb(100%,92.941176%,43.529412%);fill-opacity:1;stroke-width:0.0234824;stroke-linecap:butt;stroke-linejoin:miter;stroke:rgb(60%,60%,60%);stroke-opacity:0.8;stroke-miterlimit:10;" d="M 0.117403 0.00000116368 C 0.117403 0.0648323 0.0648545 0.117413 -0.00000831227 0.117413 C -0.0648394 0.117413 -0.11742 0.0648323 -0.11742 0.00000116368 C -0.11742 -0.06483 -0.0648394 -0.11741 -0.00000831227 -0.11741 C 0.0648545 -0.11741 0.117403 -0.06483 0.117403 0.00000116368 Z M 0.117403 0.00000116368 " transform="matrix(123.39754,0,0,123.39754,288.598682,310.261575)"/>
<path style="fill-rule:nonzero;fill:rgb(100%,92.941176%,43.529412%);fill-opacity:1;stroke-width:0.0234824;stroke-linecap:butt;stroke-linejoin:miter;stroke:rgb(60%,60%,60%);stroke-opacity:0.8;stroke-miterlimit:10;" d="M 0.117407 -0.00000810734 C 0.117407 0.0648547 0.0648586 0.117403 -0.00000414909 0.117403 C -0.0648353 0.117403 -0.117416 0.0648547 -0.117416 -0.00000810734 C -0.117416 -0.0648392 -0.0648353 -0.11742 -0.00000414909 -0.11742 C 0.0648586 -0.11742 0.117407 -0.0648392 0.117407 -0.00000810734 Z M 0.117407 -0.00000810734 " transform="matrix(123.39754,0,0,123.39754,462.949731,468.145532)"/>
<path style="fill-rule:nonzero;fill:rgb(100%,92.941176%,43.529412%);fill-opacity:1;stroke-width:0.0234824;stroke-linecap:butt;stroke-linejoin:miter;stroke:rgb(60%,60%,60%);stroke-opacity:0.8;stroke-miterlimit:10;" d="M 0.117408 -0.0000027261 C 0.117408 0.06486 0.0648597 0.117409 -0.00000308537 0.117409 C -0.0648342 0.117409 -0.117415 0.06486 -0.117415 -0.0000027261 C -0.117415 -0.0648338 -0.0648342 -0.117414 -0.00000308537 -0.117414 C 0.0648597 -0.117414 0.117408 -0.0648338 0.117408 -0.0000027261 Z M 0.117408 -0.0000027261 " transform="matrix(123.39754,0,0,123.39754,411.394912,477.922211)"/>
<path style="fill-rule:nonzero;fill:rgb(100%,92.941176%,43.529412%);fill-opacity:1;stroke-width:0.0234824;stroke-linecap:butt;stroke-linejoin:miter;stroke:rgb(60%,60%,60%);stroke-opacity:0.8;stroke-miterlimit:10;" d="M 0.117412 -0.0000132141 C 0.117412 0.0648496 0.0648316 0.117398 0.000000494149 0.117398 C -0.0648306 0.117398 -0.117411 0.0648496 -0.117411 -0.0000132141 C -0.117411 -0.0648443 -0.0648306 -0.117425 0.000000494149 -0.117425 C 0.0648316 -0.117425 0.117412 -0.0648443 0.117412 -0.0000132141 Z M 0.117412 -0.0000132141 " transform="matrix(123.39754,0,0,123.39754,525.320252,460.743818)"/>
<path style="fill-rule:nonzero;fill:rgb(100%,92.941176%,43.529412%);fill-opacity:1;stroke-width:0.0234824;stroke-linecap:butt;stroke-linejoin:miter;stroke:rgb(60%,60%,60%);stroke-opacity:0.8;stroke-miterlimit:10;" d="M 0.11742 -0.0000138589 C 0.11742 0.0648489 0.0648392 0.117398 0.00000807319 0.117398 C -0.0648547 0.117398 -0.117403 0.0648489 -0.117403 -0.0000138589 C -0.117403 -0.064845 -0.0648547 -0.117425 0.00000807319 -0.117425 C 0.0648392 -0.117425 0.11742 -0.064845 0.11742 -0.0000138589 Z M 0.11742 -0.0000138589 " transform="matrix(123.39754,0,0,123.39754,529.678691,415.579835)"/>
<path style="fill-rule:nonzero;fill:rgb(100%,92.941176%,43.529412%);fill-opacity:1;stroke-width:0.0234824;stroke-linecap:butt;stroke-linejoin:miter;stroke:rgb(60%,60%,60%);stroke-opacity:0.8;stroke-miterlimit:10;" d="M 0.117401 0.00000599038 C 0.117401 0.0648371 0.0648523 0.117417 -0.0000104304 0.117417 C -0.0648415 0.117417 -0.117422 0.0648371 -0.117422 0.00000599038 C -0.117422 -0.0648568 -0.0648415 -0.117405 -0.0000104304 -0.117405 C 0.0648523 -0.117405 0.117401 -0.0648568 0.117401 0.00000599038 Z M 0.117401 0.00000599038 " transform="matrix(123.39754,0,0,123.39754,388.458318,534.800042)"/>
<path style="fill-rule:nonzero;fill:rgb(100%,92.941176%,43.529412%);fill-opacity:1;stroke-width:0.0234824;stroke-linecap:butt;stroke-linejoin:miter;stroke:rgb(60%,60%,60%);stroke-opacity:0.8;stroke-miterlimit:10;" d="M 0.117418 0.0000149255 C 0.117418 0.064846 0.0648377 0.117426 0.00000660832 0.117426 C -0.0648562 0.117426 -0.117405 0.064846 -0.117405 0.0000149255 C -0.117405 -0.0648478 -0.0648562 -0.117397 0.00000660832 -0.117397 C 0.0648377 -0.117397 0.117418 -0.0648478 0.117418 0.0000149255 Z M 0.117418 0.0000149255 " transform="matrix(123.39754,0,0,123.39754,442.413247,527.416127)"/>
<path style="fill-rule:nonzero;fill:rgb(100%,92.941176%,43.529412%);fill-opacity:1;stroke-width:0.0234824;stroke-linecap:butt;stroke-linejoin:miter;stroke:rgb(60%,60%,60%);stroke-opacity:0.8;stroke-miterlimit:10;" d="M 0.117417 -0.0000100347 C 0.117417 0.0648527 0.0648366 0.117401 0.00000546178 0.117401 C -0.0648573 0.117401 -0.117406 0.0648527 -0.117406 -0.0000100347 C -0.117406 -0.0648411 -0.0648573 -0.117421 0.00000546178 -0.117421 C 0.0648366 -0.117421 0.117417 -0.0648411 0.117417 -0.0000100347 Z M 0.117417 -0.0000100347 " transform="matrix(123.39754,0,0,123.39754,159.264951,286.973895)"/>
<path style="fill-rule:nonzero;fill:rgb(100%,92.941176%,43.529412%);fill-opacity:1;stroke-width:0.0234824;stroke-linecap:butt;stroke-linejoin:miter;stroke:rgb(60%,60%,60%);stroke-opacity:0.8;stroke-miterlimit:10;" d="M 0.117406 -0.00000353623 C 0.117406 0.0648592 0.0648575 0.117408 -0.00000522476 0.117408 C -0.0648363 0.117408 -0.117417 0.0648592 -0.117417 -0.00000353623 C -0.117417 -0.0648347 -0.0648363 -0.117415 -0.00000522476 -0.117415 C 0.0648575 -0.117415 0.117406 -0.0648347 0.117406 -0.00000353623 Z M 0.117406 -0.00000353623 " transform="matrix(123.39754,0,0,123.39754,91.82877,329.734811)"/>
<path style="fill-rule:nonzero;fill:rgb(100%,92.941176%,43.529412%);fill-opacity:1;stroke-width:0.0234824;stroke-linecap:butt;stroke-linejoin:miter;stroke:rgb(60%,60%,60%);stroke-opacity:0.8;stroke-miterlimit:10;" d="M 0.117412 0.0000131363 C 0.117412 0.0648443 0.0648312 0.117425 0.000000115417 0.117425 C -0.064831 0.117425 -0.117411 0.0648443 -0.117411 0.0000131363 C -0.117411 -0.0648496 -0.064831 -0.117398 0.000000115417 -0.117398 C 0.0648312 -0.117398 0.117412 -0.0648496 0.117412 0.0000131363 Z M 0.117412 0.0000131363 " transform="matrix(123.39754,0,0,123.39754,34.269517,306.014004)"/>
<path style="fill-rule:nonzero;fill:rgb(100%,92.941176%,43.529412%);fill-opacity:1;stroke-width:0.0234824;stroke-linecap:butt;stroke-linejoin:miter;stroke:rgb(60%,60%,60%);stroke-opacity:0.8;stroke-miterlimit:10;" d="M 0.117426 0.00000346475 C 0.117426 0.0648346 0.0648458 0.117415 0.0000146926 0.117415 C -0.0648481 0.117415 -0.117397 0.0648346 -0.117397 0.00000346475 C -0.117397 -0.0648593 -0.0648481 -0.117408 0.0000146926 -0.117408 C 0.0648458 -0.117408 0.117426 -0.0648593 0.117426 0.00000346475 Z M 0.117426 0.00000346475 " transform="matrix(123.39754,0,0,123.39754,89.084124,384.093322)"/>
<path style="fill-rule:nonzero;fill:rgb(100%,92.941176%,43.529412%);fill-opacity:1;stroke-width:0.0234824;stroke-linecap:butt;stroke-linejoin:miter;stroke:rgb(60%,60%,60%);stroke-opacity:0.8;stroke-miterlimit:10;" d="M 0.117397 0.00000714602 C 0.117397 0.0648383 0.0648481 0.117419 -0.0000147042 0.117419 C -0.0648458 0.117419 -0.117426 0.0648383 -0.117426 0.00000714602 C -0.117426 -0.0648556 -0.0648458 -0.117404 -0.0000147042 -0.117404 C 0.0648481 -0.117404 0.117397 -0.0648556 0.117397 0.00000714602 Z M 0.117397 0.00000714602 " transform="matrix(123.39754,0,0,123.39754,138.107283,359.221774)"/>
<path style="fill-rule:nonzero;fill:rgb(100%,92.941176%,43.529412%);fill-opacity:1;stroke-width:0.0234824;stroke-linecap:butt;stroke-linejoin:miter;stroke:rgb(60%,60%,60%);stroke-opacity:0.8;stroke-miterlimit:10;" d="M 0.117404 0.00000481552 C 0.117404 0.0648359 0.0648551 0.117416 -0.00000768464 0.117416 C -0.0648388 0.117416 -0.117419 0.0648359 -0.117419 0.00000481552 C -0.117419 -0.064858 -0.0648388 -0.117407 -0.00000768464 -0.117407 C 0.0648551 -0.117407 0.117404 -0.064858 0.117404 0.00000481552 Z M 0.117404 0.00000481552 " transform="matrix(123.39754,0,0,123.39754,229.211886,283.011125)"/>
<path style="fill-rule:nonzero;fill:rgb(100%,92.941176%,43.529412%);fill-opacity:1;stroke-width:0.0234824;stroke-linecap:butt;stroke-linejoin:miter;stroke:rgb(60%,60%,60%);stroke-opacity:0.8;stroke-miterlimit:10;" d="M 0.117417 0.00000552449 C 0.117417 0.0648366 0.0648365 0.117417 0.0000054108 0.117417 C -0.0648574 0.117417 -0.117406 0.0648366 -0.117406 0.00000552449 C -0.117406 -0.0648572 -0.0648574 -0.117406 0.0000054108 -0.117406 C 0.0648365 -0.117406 0.117417 -0.0648572 0.117417 0.00000552449 Z M 0.117417 0.00000552449 " transform="matrix(123.39754,0,0,123.39754,94.971989,418.70635)"/>
<path style="fill-rule:nonzero;fill:rgb(100%,92.941176%,43.529412%);fill-opacity:1;stroke-width:0.0234824;stroke-linecap:butt;stroke-linejoin:miter;stroke:rgb(60%,60%,60%);stroke-opacity:0.8;stroke-miterlimit:10;" d="M 0.117396 0.000010376 C 0.117396 0.0648415 0.0648476 0.117422 -0.0000151941 0.117422 C -0.0648463 0.117422 -0.117427 0.0648415 -0.117427 0.000010376 C -0.117427 -0.0648524 -0.0648463 -0.117401 -0.0000151941 -0.117401 C 0.0648476 -0.117401 0.117396 -0.0648524 0.117396 0.000010376 Z M 0.117396 0.000010376 " transform="matrix(123.39754,0,0,123.39754,509.806562,254.877626)"/>
<path style="fill-rule:nonzero;fill:rgb(100%,92.941176%,43.529412%);fill-opacity:1;stroke-width:0.0234824;stroke-linecap:butt;stroke-linejoin:miter;stroke:rgb(60%,60%,60%);stroke-opacity:0.8;stroke-miterlimit:10;" d="M 0.117411 -0.0000082203 C 0.117411 0.0648545 0.064831 0.117403 -0.000000115417 0.117403 C -0.0648312 0.117403 -0.117412 0.0648545 -0.117412 -0.0000082203 C -0.117412 -0.0648393 -0.0648312 -0.11742 -0.000000115417 -0.11742 C 0.064831 -0.11742 0.117411 -0.0648393 0.117411 -0.0000082203 Z M 0.117411 -0.0000082203 " transform="matrix(123.39754,0,0,123.39754,565.730483,273.766639)"/>
<path style="fill-rule:nonzero;fill:rgb(100%,92.941176%,43.529412%);fill-opacity:1;stroke-width:0.0234824;stroke-linecap:butt;stroke-linejoin:miter;stroke:rgb(60%,60%,60%);stroke-opacity:0.8;stroke-miterlimit:10;" d="M 0.117401 0.00000998649 C 0.117401 0.0648411 0.064852 0.117421 -0.0000107963 0.117421 C -0.0648419 0.117421 -0.117422 0.0648411 -0.117422 0.00000998649 C -0.117422 -0.0648528 -0.0648419 -0.117401 -0.0000107963 -0.117401 C 0.064852 -0.117401 0.117401 -0.0648528 0.117401 0.00000998649 Z M 0.117401 0.00000998649 " transform="matrix(123.39754,0,0,123.39754,404.345082,356.053455)"/>
<path style="fill-rule:nonzero;fill:rgb(55.294118%,82.745098%,78.039216%);fill-opacity:1;stroke-width:0.0234824;stroke-linecap:butt;stroke-linejoin:miter;stroke:rgb(60%,60%,60%);stroke-opacity:0.8;stroke-miterlimit:10;" d="M 0.117417 0.000000809541 C 0.117417 0.0648319 0.0648363 0.117412 0.00000521013 0.117412 C -0.0648576 0.117412 -0.117406 0.0648319 -0.117406 0.000000809541 C -0.117406 -0.0648303 -0.0648576 -0.117411 0.00000521013 -0.117411 C 0.0648363 -0.117411 0.117417 -0.0648303 0.117417 0.000000809541 Z M 0.117417 0.000000809541 " transform="matrix(123.39754,0,0,123.39754,459.624357,65.683494)"/>
<path style="fill-rule:nonzero;fill:rgb(55.294118%,82.745098%,78.039216%);fill-opacity:1;stroke-width:0.0234824;stroke-linecap:butt;stroke-linejoin:miter;stroke:rgb(60%,60%,60%);stroke-opacity:0.8;stroke-miterlimit:10;" d="M 0.117427 0.0000131803 C 0.117427 0.0648443 0.0648463 0.117425 0.0000152221 0.117425 C -0.0648475 0.117425 -0.117428 0.0648443 -0.117428 0.0000131803 C -0.117428 -0.0648496 -0.0648475 -0.117398 0.0000152221 -0.117398 C 0.0648463 -0.117398 0.117427 -0.0648496 0.117427 0.0000131803 Z M 0.117427 0.0000131803 " transform="matrix(123.39754,0,0,123.39754,364.365309,39.217124)"/>
<path style="fill-rule:nonzero;fill:rgb(100%,92.941176%,43.529412%);fill-opacity:1;stroke-width:0.0234824;stroke-linecap:butt;stroke-linejoin:miter;stroke:rgb(60%,60%,60%);stroke-opacity:0.8;stroke-miterlimit:10;" d="M 0.11742 -0.00000499255 C 0.11742 0.0648578 0.0648396 0.117406 0.00000845842 0.117406 C -0.0648543 0.117406 -0.117403 0.0648578 -0.117403 -0.00000499255 C -0.117403 -0.0648361 -0.0648543 -0.117416 0.00000845842 -0.117416 C 0.0648396 -0.117416 0.11742 -0.0648361 0.11742 -0.00000499255 Z M 0.11742 -0.00000499255 " transform="matrix(123.39754,0,0,123.39754,281.7138,105.984991)"/>
<path style="fill-rule:nonzero;fill:rgb(55.294118%,82.745098%,78.039216%);fill-opacity:1;stroke-width:0.0234824;stroke-linecap:butt;stroke-linejoin:miter;stroke:rgb(60%,60%,60%);stroke-opacity:0.8;stroke-miterlimit:10;" d="M 0.117404 0.0000121654 C 0.117404 0.0648433 0.0648558 0.117424 -0.0000069893 0.117424 C -0.0648381 0.117424 -0.117418 0.0648433 -0.117418 0.0000121654 C -0.117418 -0.0648506 -0.0648381 -0.117399 -0.0000069893 -0.117399 C 0.0648558 -0.117399 0.117404 -0.0648506 0.117404 0.0000121654 Z M 0.117404 0.0000121654 " transform="matrix(123.39754,0,0,123.39754,331.610237,69.33053)"/>
<path style="fill-rule:nonzero;fill:rgb(100%,92.941176%,43.529412%);fill-opacity:1;stroke-width:0.0234824;stroke-linecap:butt;stroke-linejoin:miter;stroke:rgb(60%,60%,60%);stroke-opacity:0.8;stroke-miterlimit:10;" d="M 0.117399 -0.00000728484 C 0.117399 0.0648555 0.0648499 0.117404 -0.0000128626 0.117404 C -0.064844 0.117404 -0.117424 0.0648555 -0.117424 -0.00000728484 C -0.117424 -0.0648384 -0.064844 -0.117419 -0.0000128626 -0.117419 C 0.0648499 -0.117419 0.117399 -0.0648384 0.117399 -0.00000728484 Z M 0.117399 -0.00000728484 " transform="matrix(123.39754,0,0,123.39754,339.439087,133.58293)"/>
<path style="fill-rule:nonzero;fill:rgb(55.294118%,82.745098%,78.039216%);fill-opacity:1;stroke-width:0.0234824;stroke-linecap:butt;stroke-linejoin:miter;stroke:rgb(60%,60%,60%);stroke-opacity:0.8;stroke-miterlimit:10;" d="M 0.117398 0.00000429993 C 0.117398 0.0648354 0.0648498 0.117416 -0.0000129525 0.117416 C -0.0648441 0.117416 -0.117424 0.0648354 -0.117424 0.00000429993 C -0.117424 -0.0648585 -0.0648441 -0.117407 -0.0000129525 -0.117407 C 0.0648498 -0.117407 0.117398 -0.0648585 0.117398 0.00000429993 Z M 0.117398 0.00000429993 " transform="matrix(123.39754,0,0,123.39754,417.876598,48.382282)"/>
<path style="fill-rule:nonzero;fill:rgb(100%,92.941176%,43.529412%);fill-opacity:1;stroke-width:0.0234824;stroke-linecap:butt;stroke-linejoin:miter;stroke:rgb(60%,60%,60%);stroke-opacity:0.8;stroke-miterlimit:10;" d="M 0.117426 -0.00000563685 C 0.117426 0.0648571 0.0648454 0.117406 0.0000142718 0.117406 C -0.0648485 0.117406 -0.117397 0.0648571 -0.117397 -0.00000563685 C -0.117397 -0.0648368 -0.0648485 -0.117417 0.0000142718 -0.117417 C 0.0648454 -0.117417 0.117426 -0.0648368 0.117426 -0.00000563685 Z M 0.117426 -0.00000563685 " transform="matrix(123.39754,0,0,123.39754,265.459176,553.719446)"/>
<path style="fill-rule:nonzero;fill:rgb(100%,92.941176%,43.529412%);fill-opacity:1;stroke-width:0.0234824;stroke-linecap:butt;stroke-linejoin:miter;stroke:rgb(60%,60%,60%);stroke-opacity:0.8;stroke-miterlimit:10;" d="M 0.117417 -0.0000131803 C 0.117417 0.0648496 0.0648372 0.117398 0.00000605146 0.117398 C -0.0648567 0.117398 -0.117405 0.0648496 -0.117405 -0.0000131803 C -0.117405 -0.0648443 -0.0648567 -0.117425 0.00000605146 -0.117425 C 0.0648372 -0.117425 0.117417 -0.0648443 0.117417 -0.0000131803 Z M 0.117417 -0.0000131803 " transform="matrix(123.39754,0,0,123.39754,219.999253,560.782876)"/>
<path style="fill-rule:nonzero;fill:rgb(100%,92.941176%,43.529412%);fill-opacity:1;stroke-width:0.0234824;stroke-linecap:butt;stroke-linejoin:miter;stroke:rgb(60%,60%,60%);stroke-opacity:0.8;stroke-miterlimit:10;" d="M 0.117408 -0.00000192785 C 0.117408 0.0648292 0.0648592 0.117409 -0.00000359229 0.117409 C -0.0648347 0.117409 -0.117415 0.0648292 -0.117415 -0.00000192785 C -0.117415 -0.064833 -0.0648347 -0.117413 -0.00000359229 -0.117413 C 0.0648592 -0.117413 0.117408 -0.064833 0.117408 -0.00000192785 Z M 0.117408 -0.00000192785 " transform="matrix(123.39754,0,0,123.39754,337.555131,527.88305)"/>
<path style="fill-rule:nonzero;fill:rgb(100%,92.941176%,43.529412%);fill-opacity:1;stroke-width:0.0234824;stroke-linecap:butt;stroke-linejoin:miter;stroke:rgb(60%,60%,60%);stroke-opacity:0.8;stroke-miterlimit:10;" d="M 0.117404 0.00000117314 C 0.117404 0.0648323 0.0648558 0.117413 -0.00000698376 0.117413 C -0.0648381 0.117413 -0.117418 0.0648323 -0.117418 0.00000117314 C -0.117418 -0.0648299 -0.0648381 -0.11741 -0.00000698376 -0.11741 C 0.0648558 -0.11741 0.117404 -0.0648299 0.117404 0.00000117314 Z M 0.117404 0.00000117314 " transform="matrix(123.39754,0,0,123.39754,146.524299,448.95298)"/>
<path style="fill-rule:nonzero;fill:rgb(100%,92.941176%,43.529412%);fill-opacity:1;stroke-width:0.0234824;stroke-linecap:butt;stroke-linejoin:miter;stroke:rgb(60%,60%,60%);stroke-opacity:0.8;stroke-miterlimit:10;" d="M 0.117411 -0.00000136301 C 0.117411 0.0648298 0.0648303 0.11741 -0.000000778774 0.11741 C -0.0648319 0.11741 -0.117412 0.0648298 -0.117412 -0.00000136301 C -0.117412 -0.0648325 -0.0648319 -0.117413 -0.000000778774 -0.117413 C 0.0648303 -0.117413 0.117411 -0.0648325 0.117411 -0.00000136301 Z M 0.117411 -0.00000136301 " transform="matrix(123.39754,0,0,123.39754,153.27744,72.836106)"/>
<path style="fill-rule:nonzero;fill:rgb(100%,92.941176%,43.529412%);fill-opacity:1;stroke-width:0.0234824;stroke-linecap:butt;stroke-linejoin:miter;stroke:rgb(60%,60%,60%);stroke-opacity:0.8;stroke-miterlimit:10;" d="M 0.117418 -0.00000415786 C 0.117418 0.0648586 0.0648372 0.117407 0.00000609111 0.117407 C -0.0648567 0.117407 -0.117405 0.0648586 -0.117405 -0.00000415786 C -0.117405 -0.0648353 -0.0648567 -0.117416 0.00000609111 -0.117416 C 0.0648372 -0.117416 0.117418 -0.0648353 0.117418 -0.00000415786 Z M 0.117418 -0.00000415786 " transform="matrix(123.39754,0,0,123.39754,126.671123,105.469263)"/>
<path style="fill-rule:nonzero;fill:rgb(100%,92.941176%,43.529412%);fill-opacity:1;stroke-width:0.0234824;stroke-linecap:butt;stroke-linejoin:miter;stroke:rgb(60%,60%,60%);stroke-opacity:0.8;stroke-miterlimit:10;" d="M 0.117415 0.0000131523 C 0.117415 0.0648443 0.0648346 0.117425 0.0000034756 0.117425 C -0.0648593 0.117425 -0.117408 0.0648443 -0.117408 0.0000131523 C -0.117408 -0.0648496 -0.0648593 -0.117398 0.0000034756 -0.117398 C 0.0648346 -0.117398 0.117415 -0.0648496 0.117415 0.0000131523 Z M 0.117415 0.0000131523 " transform="matrix(123.39754,0,0,123.39754,100.624571,231.764002)"/>
<path style="fill-rule:nonzero;fill:rgb(100%,92.941176%,43.529412%);fill-opacity:1;stroke-width:0.0234824;stroke-linecap:butt;stroke-linejoin:miter;stroke:rgb(60%,60%,60%);stroke-opacity:0.8;stroke-miterlimit:10;" d="M 0.117428 -0.0000107814 C 0.117428 0.064852 0.0648474 0.117401 -0.0000153806 0.117401 C -0.0648465 0.117401 -0.117427 0.064852 -0.117427 -0.0000107814 C -0.117427 -0.0648419 -0.0648465 -0.117422 -0.0000153806 -0.117422 C 0.0648474 -0.117422 0.117428 -0.0648419 0.117428 -0.0000107814 Z M 0.117428 -0.0000107814 " transform="matrix(123.39754,0,0,123.39754,102.208929,156.673205)"/>
</g>
</svg>
