<?xml version="1.0" encoding="UTF-8"?>
<svg xmlns="http://www.w3.org/2000/svg" xmlns:xlink="http://www.w3.org/1999/xlink" width="600pt" height="600pt" viewBox="0 0 600 600" version="1.1">
<defs>
<clipPath id="clip1">
  <path d="M 445 223 L 586 223 L 586 330 L 445 330 Z M 445 223 "/>
</clipPath>
<clipPath id="clip2">
  <path d="M 438.785156 151.121094 L 592.582031 151.121094 L 592.582031 401.777344 L 438.785156 401.777344 Z M 438.785156 151.121094 L 558.890625 288.15625 C 558.890625 296.277344 552.308594 302.855469 544.1875 302.855469 C 536.070312 302.855469 529.488281 296.277344 529.488281 288.15625 C 529.488281 280.039062 536.070312 273.457031 544.1875 273.457031 C 552.308594 273.457031 558.890625 280.039062 558.890625 288.15625 Z M 438.785156 151.121094 "/>
</clipPath>
<clipPath id="clip3">
  <path d="M 438.785156 151.121094 L 592.582031 151.121094 L 592.582031 401.777344 L 438.785156 401.777344 Z M 438.785156 151.121094 L 501.882812 264.746094 C 501.882812 272.867188 495.300781 279.449219 487.183594 279.449219 C 479.0625 279.449219 472.484375 272.867188 472.484375 264.746094 C 472.484375 256.628906 479.0625 250.046875 487.183594 250.046875 C 495.300781 250.046875 501.882812 256.628906 501.882812 264.746094 Z M 438.785156 151.121094 "/>
</clipPath>
<clipPath id="clip4">
  <path d="M 502 208 L 600 208 L 600 330 L 502 330 Z M 502 208 "/>
</clipPath>
<clipPath id="clip5">
  <path d="M 436.847656 188.785156 L 672.785156 188.785156 L 672.785156 349.554688 L 436.847656 349.554688 Z M 436.847656 188.785156 L 558.890625 288.15625 C 558.890625 296.277344 552.308594 302.855469 544.1875 302.855469 C 536.070312 302.855469 529.488281 296.277344 529.488281 288.15625 C 529.488281 280.039062 536.070312 273.457031 544.1875 273.457031 C 552.308594 273.457031 558.890625 280.039062 558.890625 288.15625 Z M 436.847656 188.785156 "/>
</clipPath>
<clipPath id="clip6">
  <path d="M 436.847656 188.785156 L 672.785156 188.785156 L 672.785156 349.554688 L 436.847656 349.554688 Z M 436.847656 188.785156 L 580.148438 250.1875 C 580.148438 258.308594 573.566406 264.886719 565.449219 264.886719 C 557.332031 264.886719 550.75 258.308594 550.75 250.1875 C 550.75 242.070312 557.332031 235.488281 565.449219 235.488281 C 573.566406 235.488281 580.148438 242.070312 580.148438 250.1875 Z M 436.847656 188.785156 "/>
</clipPath>
<clipPath id="clip7">
  <path d="M 502 255.675781 L 599 255.675781 L 599 369.410156 L 502 369.410156 Z M 502 255.675781 "/>
</clipPath>
<clipPath id="clip8">
  <path d="M 425.296875 255.675781 L 675.5 255.675781 L 675.5 369.410156 L 425.296875 369.410156 Z M 425.296875 255.675781 L 558.890625 288.15625 C 558.890625 296.277344 552.308594 302.855469 544.1875 302.855469 C 536.070312 302.855469 529.488281 296.277344 529.488281 288.15625 C 529.488281 280.039062 536.070312 273.457031 544.1875 273.457031 C 552.308594 273.457031 558.890625 280.039062 558.890625 288.15625 Z M 425.296875 255.675781 "/>
</clipPath>
<clipPath id="clip9">
  <path d="M 425.296875 255.675781 L 675.5 255.675781 L 675.5 369.410156 L 425.296875 369.410156 Z M 425.296875 255.675781 L 571.316406 336.933594 C 571.316406 345.050781 564.734375 351.632812 556.613281 351.632812 C 548.496094 351.632812 541.914062 345.050781 541.914062 336.933594 C 541.914062 328.816406 548.496094 322.234375 556.613281 322.234375 C 564.734375 322.234375 571.316406 328.816406 571.316406 336.933594 Z M 425.296875 255.675781 "/>
</clipPath>
<clipPath id="clip10">
  <path d="M 335.613281 219 L 473.929688 219 L 473.929688 323 L 335.613281 323 Z M 335.613281 219 "/>
</clipPath>
<clipPath id="clip11">
  <path d="M 335.613281 144.019531 L 473.929688 144.019531 L 473.929688 397.960938 L 335.613281 397.960938 Z M 335.613281 144.019531 L 388.054688 261.441406 C 388.054688 269.558594 381.472656 276.140625 373.355469 276.140625 C 365.238281 276.140625 358.65625 269.558594 358.65625 261.441406 C 358.65625 253.324219 365.238281 246.742188 373.355469 246.742188 C 381.472656 246.742188 388.054688 253.324219 388.054688 261.441406 Z M 335.613281 144.019531 "/>
</clipPath>
<clipPath id="clip12">
  <path d="M 335.613281 144.019531 L 473.929688 144.019531 L 473.929688 397.960938 L 335.613281 397.960938 Z M 335.613281 144.019531 L 450.890625 280.542969 C 450.890625 288.660156 444.308594 295.242188 436.191406 295.242188 C 428.070312 295.242188 421.492188 288.660156 421.492188 280.542969 C 421.492188 272.425781 428.070312 265.84375 436.191406 265.84375 C 444.308594 265.84375 450.890625 272.425781 450.890625 280.542969 Z M 335.613281 144.019531 "/>
</clipPath>
<clipPath id="clip13">
  <path d="M 331 194 L 484 194 L 484 304 L 331 304 Z M 331 194 "/>
</clipPath>
<clipPath id="clip14">
  <path d="M 328.527344 120.972656 L 486.265625 120.972656 L 486.265625 376.460938 L 328.527344 376.460938 Z M 328.527344 120.972656 L 388.054688 261.441406 C 388.054688 269.558594 381.472656 276.140625 373.355469 276.140625 C 365.238281 276.140625 358.65625 269.558594 358.65625 261.441406 C 358.65625 253.324219 365.238281 246.742188 373.355469 246.742188 C 381.472656 246.742188 388.054688 253.324219 388.054688 261.441406 Z M 328.527344 120.972656 "/>
</clipPath>
<clipPath id="clip15">
  <path d="M 328.527344 120.972656 L 486.265625 120.972656 L 486.265625 376.460938 L 328.527344 376.460938 Z M 328.527344 120.972656 L 456.140625 235.996094 C 456.140625 244.117188 449.558594 250.699219 441.441406 250.699219 C 433.324219 250.699219 426.742188 244.117188 426.742188 235.996094 C 426.742188 227.878906 433.324219 221.296875 441.441406 221.296875 C 449.558594 221.296875 456.140625 227.878906 456.140625 235.996094 Z M 328.527344 120.972656 "/>
</clipPath>
<clipPath id="clip16">
  <path d="M 233.464844 219 L 385.402344 219 L 385.402344 313 L 233.464844 313 Z M 233.464844 219 "/>
</clipPath>
<clipPath id="clip17">
  <path d="M 233.464844 139.195312 L 385.402344 139.195312 L 385.402344 393.445312 L 233.464844 393.445312 Z M 233.464844 139.195312 L 388.054688 261.441406 C 388.054688 269.558594 381.472656 276.140625 373.355469 276.140625 C 365.238281 276.140625 358.65625 269.558594 358.65625 261.441406 C 358.65625 253.324219 365.238281 246.742188 373.355469 246.742188 C 381.472656 246.742188 388.054688 253.324219 388.054688 261.441406 Z M 233.464844 139.195312 "/>
</clipPath>
<clipPath id="clip18">
  <path d="M 233.464844 139.195312 L 385.402344 139.195312 L 385.402344 393.445312 L 233.464844 393.445312 Z M 233.464844 139.195312 L 260.214844 271.203125 C 260.214844 279.324219 253.632812 285.90625 245.515625 285.90625 C 237.394531 285.90625 230.816406 279.324219 230.816406 271.203125 C 230.816406 263.085938 237.394531 256.503906 245.515625 256.503906 C 253.632812 256.503906 260.214844 263.085938 260.214844 271.203125 Z M 233.464844 139.195312 "/>
</clipPath>
<clipPath id="clip19">
  <path d="M 397.84375 223 L 525.527344 223 L 525.527344 323 L 397.84375 323 Z M 397.84375 223 "/>
</clipPath>
<clipPath id="clip20">
  <path d="M 397.84375 147.507812 L 525.527344 147.507812 L 525.527344 397.777344 L 397.84375 397.777344 Z M 397.84375 147.507812 L 450.890625 280.542969 C 450.890625 288.660156 444.308594 295.242188 436.191406 295.242188 C 428.070312 295.242188 421.492188 288.660156 421.492188 280.542969 C 421.492188 272.425781 428.070312 265.84375 436.191406 265.84375 C 444.308594 265.84375 450.890625 272.425781 450.890625 280.542969 Z M 397.84375 147.507812 "/>
</clipPath>
<clipPath id="clip21">
  <path d="M 397.84375 147.507812 L 525.527344 147.507812 L 525.527344 397.777344 L 397.84375 397.777344 Z M 397.84375 147.507812 L 501.882812 264.746094 C 501.882812 272.867188 495.300781 279.449219 487.183594 279.449219 C 479.0625 279.449219 472.484375 272.867188 472.484375 264.746094 C 472.484375 256.628906 479.0625 250.046875 487.183594 250.046875 C 495.300781 250.046875 501.882812 256.628906 501.882812 264.746094 Z M 397.84375 147.507812 "/>
</clipPath>
<clipPath id="clip22">
  <path d="M 399 194 L 529 194 L 529 307 L 399 307 Z M 399 194 "/>
</clipPath>
<clipPath id="clip23">
  <path d="M 374.828125 131.75 L 553.792969 131.75 L 553.792969 368.988281 L 374.828125 368.988281 Z M 374.828125 131.75 L 501.882812 264.746094 C 501.882812 272.867188 495.300781 279.449219 487.183594 279.449219 C 479.0625 279.449219 472.484375 272.867188 472.484375 264.746094 C 472.484375 256.628906 479.0625 250.046875 487.183594 250.046875 C 495.300781 250.046875 501.882812 256.628906 501.882812 264.746094 Z M 374.828125 131.75 "/>
</clipPath>
<clipPath id="clip24">
  <path d="M 374.828125 131.75 L 553.792969 131.75 L 553.792969 368.988281 L 374.828125 368.988281 Z M 374.828125 131.75 L 456.140625 235.996094 C 456.140625 244.117188 449.558594 250.699219 441.441406 250.699219 C 433.324219 250.699219 426.742188 244.117188 426.742188 235.996094 C 426.742188 227.878906 433.324219 221.296875 441.441406 221.296875 C 449.558594 221.296875 456.140625 227.878906 456.140625 235.996094 Z M 374.828125 131.75 "/>
</clipPath>
<clipPath id="clip25">
  <path d="M 209.453125 382 L 240.5625 382 L 240.5625 466 L 209.453125 466 Z M 209.453125 382 "/>
</clipPath>
<clipPath id="clip26">
  <path d="M 209.453125 301.074219 L 240.5625 301.074219 L 240.5625 546.425781 L 209.453125 546.425781 Z M 209.453125 301.074219 L 251.46875 423.667969 C 251.46875 431.785156 244.890625 438.367188 236.769531 438.367188 C 228.652344 438.367188 222.070312 431.785156 222.070312 423.667969 C 222.070312 415.550781 228.652344 408.96875 236.769531 408.96875 C 244.890625 408.96875 251.46875 415.550781 251.46875 423.667969 Z M 209.453125 301.074219 "/>
</clipPath>
<clipPath id="clip27">
  <path d="M 209.453125 301.074219 L 240.5625 301.074219 L 240.5625 546.425781 L 209.453125 546.425781 Z M 209.453125 301.074219 L 227.949219 423.835938 C 227.949219 431.953125 221.367188 438.535156 213.25 438.535156 C 205.132812 438.535156 198.550781 431.953125 198.550781 423.835938 C 198.550781 415.714844 205.132812 409.132812 213.25 409.132812 C 221.367188 409.132812 227.949219 415.714844 227.949219 423.835938 Z M 209.453125 301.074219 "/>
</clipPath>
<clipPath id="clip28">
  <path d="M 192 355.121094 L 279 355.121094 L 279 432.65625 L 192 432.65625 Z M 192 355.121094 "/>
</clipPath>
<clipPath id="clip29">
  <path d="M 111.3125 355.121094 L 359.207031 355.121094 L 359.207031 432.65625 L 111.3125 432.65625 Z M 111.3125 355.121094 L 251.46875 423.667969 C 251.46875 431.785156 244.890625 438.367188 236.769531 438.367188 C 228.652344 438.367188 222.070312 431.785156 222.070312 423.667969 C 222.070312 415.550781 228.652344 408.96875 236.769531 408.96875 C 244.890625 408.96875 251.46875 415.550781 251.46875 423.667969 Z M 111.3125 355.121094 "/>
</clipPath>
<clipPath id="clip30">
  <path d="M 111.3125 355.121094 L 359.207031 355.121094 L 359.207031 432.65625 L 111.3125 432.65625 Z M 111.3125 355.121094 L 248.457031 364.113281 C 248.457031 372.230469 241.875 378.8125 233.753906 378.8125 C 225.636719 378.8125 219.054688 372.230469 219.054688 364.113281 C 219.054688 355.992188 225.636719 349.414062 233.753906 349.414062 C 241.875 349.414062 248.457031 355.992188 248.457031 364.113281 Z M 111.3125 355.121094 "/>
</clipPath>
<clipPath id="clip31">
  <path d="M 180 382 L 279 382 L 279 509 L 180 509 Z M 180 382 "/>
</clipPath>
<clipPath id="clip32">
  <path d="M 105.875 380.785156 L 352.5 380.785156 L 352.5 509.359375 L 105.875 509.359375 Z M 105.875 380.785156 L 251.46875 423.667969 C 251.46875 431.785156 244.890625 438.367188 236.769531 438.367188 C 228.652344 438.367188 222.070312 431.785156 222.070312 423.667969 C 222.070312 415.550781 228.652344 408.96875 236.769531 408.96875 C 244.890625 408.96875 251.46875 415.550781 251.46875 423.667969 Z M 105.875 380.785156 "/>
</clipPath>
<clipPath id="clip33">
  <path d="M 105.875 380.785156 L 352.5 380.785156 L 352.5 509.359375 L 105.875 509.359375 Z M 105.875 380.785156 L 236.308594 466.480469 C 236.308594 474.597656 229.726562 481.179688 221.609375 481.179688 C 213.492188 481.179688 206.910156 474.597656 206.910156 466.480469 C 206.910156 458.363281 213.492188 451.78125 221.609375 451.78125 C 229.726562 451.78125 236.308594 458.363281 236.308594 466.480469 Z M 105.875 380.785156 "/>
</clipPath>
<clipPath id="clip34">
  <path d="M 261 485.691406 L 352 485.691406 L 352 574.101562 L 261 574.101562 Z M 261 485.691406 "/>
</clipPath>
<clipPath id="clip35">
  <path d="M 181.390625 485.691406 L 431.265625 485.691406 L 431.265625 574.101562 L 181.390625 574.101562 Z M 181.390625 485.691406 L 317.636719 555.359375 C 317.636719 563.476562 311.054688 570.058594 302.9375 570.058594 C 294.816406 570.058594 288.238281 563.476562 288.238281 555.359375 C 288.238281 547.242188 294.816406 540.660156 302.9375 540.660156 C 311.054688 540.660156 317.636719 547.242188 317.636719 555.359375 Z M 181.390625 485.691406 "/>
</clipPath>
<clipPath id="clip36">
  <path d="M 181.390625 485.691406 L 431.265625 485.691406 L 431.265625 574.101562 L 181.390625 574.101562 Z M 181.390625 485.691406 L 324.425781 504.4375 C 324.425781 512.554688 317.84375 519.136719 309.722656 519.136719 C 301.605469 519.136719 295.023438 512.554688 295.023438 504.4375 C 295.023438 496.316406 301.605469 489.738281 309.722656 489.738281 C 317.84375 489.738281 324.425781 496.316406 324.425781 504.4375 Z M 181.390625 485.691406 "/>
</clipPath>
<clipPath id="clip37">
  <path d="M 171 382 L 352 382 L 352 547 L 171 547 Z M 171 382 "/>
</clipPath>
<clipPath id="clip38">
  <path d="M 133.589844 329.070312 L 389.378906 329.070312 L 389.378906 599.199219 L 133.589844 599.199219 Z M 133.589844 329.070312 L 227.949219 423.835938 C 227.949219 431.953125 221.367188 438.535156 213.25 438.535156 C 205.132812 438.535156 198.550781 431.953125 198.550781 423.835938 C 198.550781 415.714844 205.132812 409.132812 213.25 409.132812 C 221.367188 409.132812 227.949219 415.714844 227.949219 423.835938 Z M 133.589844 329.070312 "/>
</clipPath>
<clipPath id="clip39">
  <path d="M 133.589844 329.070312 L 389.378906 329.070312 L 389.378906 599.199219 L 133.589844 599.199219 Z M 133.589844 329.070312 L 324.425781 504.4375 C 324.425781 512.554688 317.84375 519.136719 309.722656 519.136719 C 301.605469 519.136719 295.023438 512.554688 295.023438 504.4375 C 295.023438 496.316406 301.605469 489.738281 309.722656 489.738281 C 317.84375 489.738281 324.425781 496.316406 324.425781 504.4375 Z M 133.589844 329.070312 "/>
</clipPath>
<clipPath id="clip40">
  <path d="M 171 322.320312 L 276 322.320312 L 276 465.625 L 171 465.625 Z M 171 322.320312 "/>
</clipPath>
<clipPath id="clip41">
  <path d="M 97.136719 322.320312 L 349.863281 322.320312 L 349.863281 465.625 L 97.136719 465.625 Z M 97.136719 322.320312 L 227.949219 423.835938 C 227.949219 431.953125 221.367188 438.535156 213.25 438.535156 C 205.132812 438.535156 198.550781 431.953125 198.550781 423.835938 C 198.550781 415.714844 205.132812 409.132812 213.25 409.132812 C 221.367188 409.132812 227.949219 415.714844 227.949219 423.835938 Z M 97.136719 322.320312 "/>
</clipPath>
<clipPath id="clip42">
  <path d="M 97.136719 322.320312 L 349.863281 322.320312 L 349.863281 465.625 L 97.136719 465.625 Z M 97.136719 322.320312 L 248.457031 364.113281 C 248.457031 372.230469 241.875 378.8125 233.753906 378.8125 C 225.636719 378.8125 219.054688 372.230469 219.054688 364.113281 C 219.054688 355.992188 225.636719 349.414062 233.753906 349.414062 C 241.875 349.414062 248.457031 355.992188 248.457031 364.113281 Z M 97.136719 322.320312 "/>
</clipPath>
<clipPath id="clip43">
  <path d="M 171 243.515625 L 288 243.515625 L 288 451.519531 L 171 451.519531 Z M 171 243.515625 "/>
</clipPath>
<clipPath id="clip44">
  <path d="M 93.242188 243.515625 L 365.519531 243.515625 L 365.519531 451.519531 L 93.242188 451.519531 Z M 93.242188 243.515625 L 227.949219 423.835938 C 227.949219 431.953125 221.367188 438.535156 213.25 438.535156 C 205.132812 438.535156 198.550781 431.953125 198.550781 423.835938 C 198.550781 415.714844 205.132812 409.132812 213.25 409.132812 C 221.367188 409.132812 227.949219 415.714844 227.949219 423.835938 Z M 93.242188 243.515625 "/>
</clipPath>
<clipPath id="clip45">
  <path d="M 93.242188 243.515625 L 365.519531 243.515625 L 365.519531 451.519531 L 93.242188 451.519531 Z M 93.242188 243.515625 L 260.214844 271.203125 C 260.214844 279.324219 253.632812 285.90625 245.515625 285.90625 C 237.394531 285.90625 230.816406 279.324219 230.816406 271.203125 C 230.816406 263.085938 237.394531 256.503906 245.515625 256.503906 C 253.632812 256.503906 260.214844 263.085938 260.214844 271.203125 Z M 93.242188 243.515625 "/>
</clipPath>
<clipPath id="clip46">
  <path d="M 171 397.878906 L 264 397.878906 L 264 492.433594 L 171 492.433594 Z M 171 397.878906 "/>
</clipPath>
<clipPath id="clip47">
  <path d="M 92.890625 397.878906 L 341.964844 397.878906 L 341.964844 492.433594 L 92.890625 492.433594 Z M 92.890625 397.878906 L 227.949219 423.835938 C 227.949219 431.953125 221.367188 438.535156 213.25 438.535156 C 205.132812 438.535156 198.550781 431.953125 198.550781 423.835938 C 198.550781 415.714844 205.132812 409.132812 213.25 409.132812 C 221.367188 409.132812 227.949219 415.714844 227.949219 423.835938 Z M 92.890625 397.878906 "/>
</clipPath>
<clipPath id="clip48">
  <path d="M 92.890625 397.878906 L 341.964844 397.878906 L 341.964844 492.433594 L 92.890625 492.433594 Z M 92.890625 397.878906 L 236.308594 466.480469 C 236.308594 474.597656 229.726562 481.179688 221.609375 481.179688 C 213.492188 481.179688 206.910156 474.597656 206.910156 466.480469 C 206.910156 458.363281 213.492188 451.78125 221.609375 451.78125 C 229.726562 451.78125 236.308594 458.363281 236.308594 466.480469 Z M 92.890625 397.878906 "/>
</clipPath>
<clipPath id="clip49">
  <path d="M 128 382 L 255 382 L 255 541 L 128 541 Z M 128 382 "/>
</clipPath>
<clipPath id="clip50">
  <path d="M 63.1875 360.855469 L 319.6875 360.855469 L 319.6875 562.011719 L 63.1875 562.011719 Z M 63.1875 360.855469 L 227.949219 423.835938 C 227.949219 431.953125 221.367188 438.535156 213.25 438.535156 C 205.132812 438.535156 198.550781 431.953125 198.550781 423.835938 C 198.550781 415.714844 205.132812 409.132812 213.25 409.132812 C 221.367188 409.132812 227.949219 415.714844 227.949219 423.835938 Z M 63.1875 360.855469 "/>
</clipPath>
<clipPath id="clip51">
  <path d="M 63.1875 360.855469 L 319.6875 360.855469 L 319.6875 562.011719 L 63.1875 562.011719 Z M 63.1875 360.855469 L 184.328125 499.035156 C 184.328125 507.152344 177.746094 513.734375 169.628906 513.734375 C 161.507812 513.734375 154.925781 507.152344 154.925781 499.035156 C 154.925781 490.914062 161.507812 484.335938 169.628906 484.335938 C 177.746094 484.335938 184.328125 490.914062 184.328125 499.035156 Z M 63.1875 360.855469 "/>
</clipPath>
<clipPath id="clip52">
  <path d="M 114.664062 381 L 216.855469 381 L 216.855469 466 L 114.664062 466 Z M 114.664062 381 "/>
</clipPath>
<clipPath id="clip53">
  <path d="M 114.664062 300.710938 L 216.855469 300.710938 L 216.855469 546.425781 L 114.664062 546.425781 Z M 114.664062 300.710938 L 227.949219 423.835938 C 227.949219 431.953125 221.367188 438.535156 213.25 438.535156 C 205.132812 438.535156 198.550781 431.953125 198.550781 423.835938 C 198.550781 415.714844 205.132812 409.132812 213.25 409.132812 C 221.367188 409.132812 227.949219 415.714844 227.949219 423.835938 Z M 114.664062 300.710938 "/>
</clipPath>
<clipPath id="clip54">
  <path d="M 114.664062 300.710938 L 216.855469 300.710938 L 216.855469 546.425781 L 114.664062 546.425781 Z M 114.664062 300.710938 L 132.972656 423.304688 C 132.972656 431.421875 126.390625 438.003906 118.273438 438.003906 C 110.15625 438.003906 103.574219 431.421875 103.574219 423.304688 C 103.574219 415.1875 110.15625 408.605469 118.273438 408.605469 C 126.390625 408.605469 132.972656 415.1875 132.972656 423.304688 Z M 114.664062 300.710938 "/>
</clipPath>
<clipPath id="clip55">
  <path d="M 308 502 L 398 502 L 398 506 L 308 506 Z M 308 502 "/>
</clipPath>
<clipPath id="clip56">
  <path d="M 306.78125 381.84375 L 399.117188 381.84375 L 399.117188 627.027344 L 306.78125 627.027344 Z M 306.78125 381.84375 L 324.425781 504.4375 C 324.425781 512.554688 317.84375 519.136719 309.722656 519.136719 C 301.605469 519.136719 295.023438 512.554688 295.023438 504.4375 C 295.023438 496.316406 301.605469 489.738281 309.722656 489.738281 C 317.84375 489.738281 324.425781 496.316406 324.425781 504.4375 Z M 306.78125 381.84375 "/>
</clipPath>
<clipPath id="clip57">
  <path d="M 306.78125 381.84375 L 399.117188 381.84375 L 399.117188 627.027344 L 306.78125 627.027344 Z M 306.78125 381.84375 L 410.878906 504.4375 C 410.878906 512.558594 404.296875 519.136719 396.179688 519.136719 C 388.0625 519.136719 381.480469 512.558594 381.480469 504.4375 C 381.480469 496.320312 388.0625 489.738281 396.179688 489.738281 C 404.296875 489.738281 410.878906 496.320312 410.878906 504.4375 Z M 306.78125 381.84375 "/>
</clipPath>
<clipPath id="clip58">
  <path d="M 192 253.234375 L 288 253.234375 L 288 382.078125 L 192 382.078125 Z M 192 253.234375 "/>
</clipPath>
<clipPath id="clip59">
  <path d="M 112.105469 253.234375 L 367.160156 253.234375 L 367.160156 382.078125 L 112.105469 382.078125 Z M 112.105469 253.234375 L 248.457031 364.113281 C 248.457031 372.230469 241.875 378.8125 233.753906 378.8125 C 225.636719 378.8125 219.054688 372.230469 219.054688 364.113281 C 219.054688 355.992188 225.636719 349.414062 233.753906 349.414062 C 241.875 349.414062 248.457031 355.992188 248.457031 364.113281 Z M 112.105469 253.234375 "/>
</clipPath>
<clipPath id="clip60">
  <path d="M 112.105469 253.234375 L 367.160156 253.234375 L 367.160156 382.078125 L 112.105469 382.078125 Z M 112.105469 253.234375 L 260.214844 271.203125 C 260.214844 279.324219 253.632812 285.90625 245.515625 285.90625 C 237.394531 285.90625 230.816406 279.324219 230.816406 271.203125 C 230.816406 263.085938 237.394531 256.503906 245.515625 256.503906 C 253.632812 256.503906 260.214844 263.085938 260.214844 271.203125 Z M 112.105469 253.234375 "/>
</clipPath>
<clipPath id="clip61">
  <path d="M 194 201.59375 L 288 201.59375 L 288 302.628906 L 194 302.628906 Z M 194 201.59375 "/>
</clipPath>
<clipPath id="clip62">
  <path d="M 117 201.59375 L 364.667969 201.59375 L 364.667969 302.628906 L 117 302.628906 Z M 117 201.59375 L 260.214844 271.203125 C 260.214844 279.324219 253.632812 285.90625 245.515625 285.90625 C 237.394531 285.90625 230.816406 279.324219 230.816406 271.203125 C 230.816406 263.085938 237.394531 256.503906 245.515625 256.503906 C 253.632812 256.503906 260.214844 263.085938 260.214844 271.203125 Z M 117 201.59375 "/>
</clipPath>
<clipPath id="clip63">
  <path d="M 117 201.59375 L 364.667969 201.59375 L 364.667969 302.628906 L 117 302.628906 Z M 117 201.59375 L 250.855469 233.023438 C 250.855469 241.140625 244.273438 247.722656 236.15625 247.722656 C 228.035156 247.722656 221.457031 241.140625 221.457031 233.023438 C 221.457031 224.90625 228.035156 218.324219 236.15625 218.324219 C 244.273438 218.324219 250.855469 224.90625 250.855469 233.023438 Z M 117 201.59375 "/>
</clipPath>
<clipPath id="clip64">
  <path d="M 203 111.550781 L 301 111.550781 L 301 285.191406 L 203 285.191406 Z M 203 111.550781 "/>
</clipPath>
<clipPath id="clip65">
  <path d="M 123.433594 111.550781 L 381.105469 111.550781 L 381.105469 285.191406 L 123.433594 285.191406 Z M 123.433594 111.550781 L 260.214844 271.203125 C 260.214844 279.324219 253.632812 285.90625 245.515625 285.90625 C 237.394531 285.90625 230.816406 279.324219 230.816406 271.203125 C 230.816406 263.085938 237.394531 256.503906 245.515625 256.503906 C 253.632812 256.503906 260.214844 263.085938 260.214844 271.203125 Z M 123.433594 111.550781 "/>
</clipPath>
<clipPath id="clip66">
  <path d="M 123.433594 111.550781 L 381.105469 111.550781 L 381.105469 285.191406 L 123.433594 285.191406 Z M 123.433594 111.550781 L 273.726562 125.542969 C 273.726562 133.664062 267.144531 140.246094 259.027344 140.246094 C 250.90625 140.246094 244.324219 133.664062 244.324219 125.542969 C 244.324219 117.425781 250.90625 110.84375 259.027344 110.84375 C 267.144531 110.84375 273.726562 117.425781 273.726562 125.542969 Z M 123.433594 111.550781 "/>
</clipPath>
<clipPath id="clip67">
  <path d="M 111 174 L 288 174 L 288 313 L 111 313 Z M 111 174 "/>
</clipPath>
<clipPath id="clip68">
  <path d="M 89.460938 110.738281 L 309.539062 110.738281 L 309.539062 377.027344 L 89.460938 377.027344 Z M 89.460938 110.738281 L 260.214844 271.203125 C 260.214844 279.324219 253.632812 285.90625 245.515625 285.90625 C 237.394531 285.90625 230.816406 279.324219 230.816406 271.203125 C 230.816406 263.085938 237.394531 256.503906 245.515625 256.503906 C 253.632812 256.503906 260.214844 263.085938 260.214844 271.203125 Z M 89.460938 110.738281 "/>
</clipPath>
<clipPath id="clip69">
  <path d="M 89.460938 110.738281 L 309.539062 110.738281 L 309.539062 377.027344 L 89.460938 377.027344 Z M 89.460938 110.738281 L 168.1875 216.566406 C 168.1875 224.6875 161.605469 231.269531 153.488281 231.269531 C 145.367188 231.269531 138.785156 224.6875 138.785156 216.566406 C 138.785156 208.449219 145.367188 201.867188 153.488281 201.867188 C 161.605469 201.867188 168.1875 208.449219 168.1875 216.566406 Z M 89.460938 110.738281 "/>
</clipPath>
<clipPath id="clip70">
  <path d="M 354 462 L 457 462 L 457 577 L 354 577 Z M 354 462 "/>
</clipPath>
<clipPath id="clip71">
  <path d="M 291.253906 438.914062 L 519.800781 438.914062 L 519.800781 600.429688 L 291.253906 600.429688 Z M 291.253906 438.914062 L 429.578125 534.910156 C 429.578125 543.03125 422.996094 549.609375 414.878906 549.609375 C 406.757812 549.609375 400.179688 543.03125 400.179688 534.910156 C 400.179688 526.792969 406.757812 520.210938 414.878906 520.210938 C 422.996094 520.210938 429.578125 526.792969 429.578125 534.910156 Z M 291.253906 438.914062 "/>
</clipPath>
<clipPath id="clip72">
  <path d="M 291.253906 438.914062 L 519.800781 438.914062 L 519.800781 600.429688 L 291.253906 600.429688 Z M 291.253906 438.914062 L 410.878906 504.4375 C 410.878906 512.558594 404.296875 519.136719 396.179688 519.136719 C 388.0625 519.136719 381.480469 512.558594 381.480469 504.4375 C 381.480469 496.320312 388.0625 489.738281 396.179688 489.738281 C 404.296875 489.738281 410.878906 496.320312 410.878906 504.4375 Z M 291.253906 438.914062 "/>
</clipPath>
<clipPath id="clip73">
  <path d="M 354 435 L 500 435 L 500 547 L 354 547 Z M 354 435 "/>
</clipPath>
<clipPath id="clip74">
  <path d="M 345.457031 364.886719 L 508.679688 364.886719 L 508.679688 617.074219 L 345.457031 617.074219 Z M 345.457031 364.886719 L 410.878906 504.4375 C 410.878906 512.558594 404.296875 519.136719 396.179688 519.136719 C 388.0625 519.136719 381.480469 512.558594 381.480469 504.4375 C 381.480469 496.320312 388.0625 489.738281 396.179688 489.738281 C 404.296875 489.738281 410.878906 496.320312 410.878906 504.4375 Z M 345.457031 364.886719 "/>
</clipPath>
<clipPath id="clip75">
  <path d="M 345.457031 364.886719 L 508.679688 364.886719 L 508.679688 617.074219 L 345.457031 617.074219 Z M 345.457031 364.886719 L 472.660156 477.527344 C 472.660156 485.644531 466.078125 492.226562 457.960938 492.226562 C 449.84375 492.226562 443.261719 485.644531 443.261719 477.527344 C 443.261719 469.40625 449.84375 462.828125 457.960938 462.828125 C 466.078125 462.828125 472.660156 469.40625 472.660156 477.527344 Z M 345.457031 364.886719 "/>
</clipPath>
<clipPath id="clip76">
  <path d="M 163 48 L 301 48 L 301 168 L 163 168 Z M 163 48 "/>
</clipPath>
<clipPath id="clip77">
  <path d="M 136.613281 -12.941406 L 327.269531 -12.941406 L 327.269531 228.742188 L 136.613281 228.742188 Z M 136.613281 -12.941406 L 273.726562 125.542969 C 273.726562 133.664062 267.144531 140.246094 259.027344 140.246094 C 250.90625 140.246094 244.324219 133.664062 244.324219 125.542969 C 244.324219 117.425781 250.90625 110.84375 259.027344 110.84375 C 267.144531 110.84375 273.726562 117.425781 273.726562 125.542969 Z M 136.613281 -12.941406 "/>
</clipPath>
<clipPath id="clip78">
  <path d="M 136.613281 -12.941406 L 327.269531 -12.941406 L 327.269531 228.742188 L 136.613281 228.742188 Z M 136.613281 -12.941406 L 219.558594 90.261719 C 219.558594 98.382812 212.980469 104.960938 204.859375 104.960938 C 196.742188 104.960938 190.160156 98.382812 190.160156 90.261719 C 190.160156 82.144531 196.742188 75.5625 204.859375 75.5625 C 212.980469 75.5625 219.558594 82.144531 219.558594 90.261719 Z M 136.613281 -12.941406 "/>
</clipPath>
<clipPath id="clip79">
  <path d="M 204 39.542969 L 301 39.542969 L 301 157.128906 L 204 157.128906 Z M 204 39.542969 "/>
</clipPath>
<clipPath id="clip80">
  <path d="M 126.496094 39.542969 L 378.136719 39.542969 L 378.136719 157.128906 L 126.496094 157.128906 Z M 126.496094 39.542969 L 273.726562 125.542969 C 273.726562 133.664062 267.144531 140.246094 259.027344 140.246094 C 250.90625 140.246094 244.324219 133.664062 244.324219 125.542969 C 244.324219 117.425781 250.90625 110.84375 259.027344 110.84375 C 267.144531 110.84375 273.726562 117.425781 273.726562 125.542969 Z M 126.496094 39.542969 "/>
</clipPath>
<clipPath id="clip81">
  <path d="M 126.496094 39.542969 L 378.136719 39.542969 L 378.136719 157.128906 L 126.496094 157.128906 Z M 126.496094 39.542969 L 260.308594 71.132812 C 260.308594 79.25 253.730469 85.832031 245.609375 85.832031 C 237.492188 85.832031 230.910156 79.25 230.910156 71.132812 C 230.910156 63.011719 237.492188 56.433594 245.609375 56.433594 C 253.730469 56.433594 260.308594 63.011719 260.308594 71.132812 Z M 126.496094 39.542969 "/>
</clipPath>
<clipPath id="clip82">
  <path d="M 217 41 L 384 41 L 384 168 L 217 168 Z M 217 41 "/>
</clipPath>
<clipPath id="clip83">
  <path d="M 201.792969 -26.1875 L 399.0625 -26.1875 L 399.0625 235.105469 L 201.792969 235.105469 Z M 201.792969 -26.1875 L 273.726562 125.542969 C 273.726562 133.664062 267.144531 140.246094 259.027344 140.246094 C 250.90625 140.246094 244.324219 133.664062 244.324219 125.542969 C 244.324219 117.425781 250.90625 110.84375 259.027344 110.84375 C 267.144531 110.84375 273.726562 117.425781 273.726562 125.542969 Z M 201.792969 -26.1875 "/>
</clipPath>
<clipPath id="clip84">
  <path d="M 201.792969 -26.1875 L 399.0625 -26.1875 L 399.0625 235.105469 L 201.792969 235.105469 Z M 201.792969 -26.1875 L 356.53125 83.378906 C 356.53125 91.496094 349.949219 98.078125 341.832031 98.078125 C 333.710938 98.078125 327.132812 91.496094 327.132812 83.378906 C 327.132812 75.261719 333.710938 68.679688 341.832031 68.679688 C 349.949219 68.679688 356.53125 75.261719 356.53125 83.378906 Z M 201.792969 -26.1875 "/>
</clipPath>
<clipPath id="clip85">
  <path d="M 2 302 L 110 302 L 110 435 L 2 435 Z M 2 302 "/>
</clipPath>
<clipPath id="clip86">
  <path d="M -66.703125 288.945312 L 177.988281 288.945312 L 177.988281 448.125 L -66.703125 448.125 Z M -66.703125 288.945312 L 58.523438 344.253906 C 58.523438 352.375 51.941406 358.953125 43.824219 358.953125 C 35.707031 358.953125 29.125 352.375 29.125 344.253906 C 29.125 336.136719 35.707031 329.554688 43.824219 329.554688 C 51.941406 329.554688 58.523438 336.136719 58.523438 344.253906 Z M -66.703125 288.945312 "/>
</clipPath>
<clipPath id="clip87">
  <path d="M -66.703125 288.945312 L 177.988281 288.945312 L 177.988281 448.125 L -66.703125 448.125 Z M -66.703125 288.945312 L 82.167969 392.820312 C 82.167969 400.9375 75.585938 407.519531 67.464844 407.519531 C 59.347656 407.519531 52.765625 400.9375 52.765625 392.820312 C 52.765625 384.703125 59.347656 378.121094 67.464844 378.121094 C 75.585938 378.121094 82.167969 384.703125 82.167969 392.820312 Z M -66.703125 288.945312 "/>
</clipPath>
<clipPath id="clip88">
  <path d="M 0 273.863281 L 86 273.863281 L 86 373.503906 L 0 373.503906 Z M 0 273.863281 "/>
</clipPath>
<clipPath id="clip89">
  <path d="M -85.117188 273.863281 L 163.488281 273.863281 L 163.488281 373.503906 L -85.117188 373.503906 Z M -85.117188 273.863281 L 58.523438 344.253906 C 58.523438 352.375 51.941406 358.953125 43.824219 358.953125 C 35.707031 358.953125 29.125 352.375 29.125 344.253906 C 29.125 336.136719 35.707031 329.554688 43.824219 329.554688 C 51.941406 329.554688 58.523438 336.136719 58.523438 344.253906 Z M -85.117188 273.863281 "/>
</clipPath>
<clipPath id="clip90">
  <path d="M -85.117188 273.863281 L 163.488281 273.863281 L 163.488281 373.503906 L -85.117188 373.503906 Z M -85.117188 273.863281 L 49.25 303.117188 C 49.25 311.234375 42.667969 317.816406 34.550781 317.816406 C 26.433594 317.816406 19.851562 311.234375 19.851562 303.117188 C 19.851562 295 26.433594 288.417969 34.550781 288.417969 C 42.667969 288.417969 49.25 295 49.25 303.117188 Z M -85.117188 273.863281 "/>
</clipPath>
<clipPath id="clip91">
  <path d="M 25 351 L 160 351 L 160 465 L 25 465 Z M 25 351 "/>
</clipPath>
<clipPath id="clip92">
  <path d="M 2.964844 287.277344 L 182.769531 287.277344 L 182.769531 528.84375 L 2.964844 528.84375 Z M 2.964844 287.277344 L 82.167969 392.820312 C 82.167969 400.9375 75.585938 407.519531 67.464844 407.519531 C 59.347656 407.519531 52.765625 400.9375 52.765625 392.820312 C 52.765625 384.703125 59.347656 378.121094 67.464844 378.121094 C 75.585938 378.121094 82.167969 384.703125 82.167969 392.820312 Z M 2.964844 287.277344 "/>
</clipPath>
<clipPath id="clip93">
  <path d="M 2.964844 287.277344 L 182.769531 287.277344 L 182.769531 528.84375 L 2.964844 528.84375 Z M 2.964844 287.277344 L 132.972656 423.304688 C 132.972656 431.421875 126.390625 438.003906 118.273438 438.003906 C 110.15625 438.003906 103.574219 431.421875 103.574219 423.304688 C 103.574219 415.1875 110.15625 408.605469 118.273438 408.605469 C 126.390625 408.605469 132.972656 415.1875 132.972656 423.304688 Z M 2.964844 287.277344 "/>
</clipPath>
<clipPath id="clip94">
  <path d="M 37 108 L 144 108 L 144 220 L 37 220 Z M 37 108 "/>
</clipPath>
<clipPath id="clip95">
  <path d="M -14.949219 69.03125 L 195.824219 69.03125 L 195.824219 258.636719 L -14.949219 258.636719 Z M -14.949219 69.03125 L 93.304688 150.113281 C 93.304688 158.230469 86.722656 164.8125 78.605469 164.8125 C 70.488281 164.8125 63.90625 158.230469 63.90625 150.113281 C 63.90625 141.992188 70.488281 135.410156 78.605469 135.410156 C 86.722656 135.410156 93.304688 141.992188 93.304688 150.113281 Z M -14.949219 69.03125 "/>
</clipPath>
<clipPath id="clip96">
  <path d="M -14.949219 69.03125 L 195.824219 69.03125 L 195.824219 258.636719 L -14.949219 258.636719 Z M -14.949219 69.03125 L 116.972656 177.558594 C 116.972656 185.675781 110.390625 192.257812 102.273438 192.257812 C 94.15625 192.257812 87.574219 185.675781 87.574219 177.558594 C 87.574219 169.441406 94.15625 162.859375 102.273438 162.859375 C 110.390625 162.859375 116.972656 169.441406 116.972656 177.558594 Z M -14.949219 69.03125 "/>
</clipPath>
<clipPath id="clip97">
  <path d="M 60 135 L 196 135 L 196 259 L 60 259 Z M 60 135 "/>
</clipPath>
<clipPath id="clip98">
  <path d="M 26.832031 79.429688 L 228.925781 79.429688 L 228.925781 314.691406 L 26.832031 314.691406 Z M 26.832031 79.429688 L 168.1875 216.566406 C 168.1875 224.6875 161.605469 231.269531 153.488281 231.269531 C 145.367188 231.269531 138.785156 224.6875 138.785156 216.566406 C 138.785156 208.449219 145.367188 201.867188 153.488281 201.867188 C 161.605469 201.867188 168.1875 208.449219 168.1875 216.566406 Z M 26.832031 79.429688 "/>
</clipPath>
<clipPath id="clip99">
  <path d="M 26.832031 79.429688 L 228.925781 79.429688 L 228.925781 314.691406 L 26.832031 314.691406 Z M 26.832031 79.429688 L 116.972656 177.558594 C 116.972656 185.675781 110.390625 192.257812 102.273438 192.257812 C 94.15625 192.257812 87.574219 185.675781 87.574219 177.558594 C 87.574219 169.441406 94.15625 162.859375 102.273438 162.859375 C 110.390625 162.859375 116.972656 169.441406 116.972656 177.558594 Z M 26.832031 79.429688 "/>
</clipPath>
<clipPath id="clip100">
  <path d="M 416 417 L 538 417 L 538 520 L 416 520 Z M 416 417 "/>
</clipPath>
<clipPath id="clip101">
  <path d="M 402.320312 348.359375 L 551.929688 348.359375 L 551.929688 587.886719 L 402.320312 587.886719 Z M 402.320312 348.359375 L 472.660156 477.527344 C 472.660156 485.644531 466.078125 492.226562 457.960938 492.226562 C 449.84375 492.226562 443.261719 485.644531 443.261719 477.527344 C 443.261719 469.40625 449.84375 462.828125 457.960938 462.828125 C 466.078125 462.828125 472.660156 469.40625 472.660156 477.527344 Z M 402.320312 348.359375 "/>
</clipPath>
<clipPath id="clip102">
  <path d="M 402.320312 348.359375 L 551.929688 348.359375 L 551.929688 587.886719 L 402.320312 587.886719 Z M 402.320312 348.359375 L 510.992188 458.722656 C 510.992188 466.839844 504.414062 473.421875 496.292969 473.421875 C 488.175781 473.421875 481.59375 466.839844 481.59375 458.722656 C 481.59375 450.605469 488.175781 444.023438 496.292969 444.023438 C 504.414062 444.023438 510.992188 450.605469 510.992188 458.722656 Z M 402.320312 348.359375 "/>
</clipPath>
<clipPath id="clip103">
  <path d="M 300 30.859375 L 387 30.859375 L 387 97.15625 L 300 97.15625 Z M 300 30.859375 "/>
</clipPath>
<clipPath id="clip104">
  <path d="M 219.730469 30.859375 L 467.453125 30.859375 L 467.453125 97.15625 L 219.730469 97.15625 Z M 219.730469 30.859375 L 360.054688 44.640625 C 360.054688 52.757812 353.472656 59.339844 345.355469 59.339844 C 337.238281 59.339844 330.65625 52.757812 330.65625 44.640625 C 330.65625 36.523438 337.238281 29.941406 345.355469 29.941406 C 353.472656 29.941406 360.054688 36.523438 360.054688 44.640625 Z M 219.730469 30.859375 "/>
</clipPath>
<clipPath id="clip105">
  <path d="M 219.730469 30.859375 L 467.453125 30.859375 L 467.453125 97.15625 L 219.730469 97.15625 Z M 219.730469 30.859375 L 356.53125 83.378906 C 356.53125 91.496094 349.949219 98.078125 341.832031 98.078125 C 333.710938 98.078125 327.132812 91.496094 327.132812 83.378906 C 327.132812 75.261719 333.710938 68.679688 341.832031 68.679688 C 349.949219 68.679688 356.53125 75.261719 356.53125 83.378906 Z M 219.730469 30.859375 "/>
</clipPath>
<clipPath id="clip106">
  <path d="M 388.296875 43 L 481.199219 43 L 481.199219 135 L 388.296875 135 Z M 388.296875 43 "/>
</clipPath>
<clipPath id="clip107">
  <path d="M 388.296875 -35.824219 L 481.199219 -35.824219 L 481.199219 213.625 L 388.296875 213.625 Z M 388.296875 -35.824219 L 471.816406 92.917969 C 471.816406 101.039062 465.234375 107.617188 457.117188 107.617188 C 449 107.617188 442.417969 101.039062 442.417969 92.917969 C 442.417969 84.800781 449 78.21875 457.117188 78.21875 C 465.234375 78.21875 471.816406 84.800781 471.816406 92.917969 Z M 388.296875 -35.824219 "/>
</clipPath>
<clipPath id="clip108">
  <path d="M 388.296875 -35.824219 L 481.199219 -35.824219 L 481.199219 213.625 L 388.296875 213.625 Z M 388.296875 -35.824219 L 427.082031 84.886719 C 427.082031 93.003906 420.5 99.585938 412.382812 99.585938 C 404.261719 99.585938 397.679688 93.003906 397.679688 84.886719 C 397.679688 76.765625 404.261719 70.1875 412.382812 70.1875 C 420.5 70.1875 427.082031 76.765625 427.082031 84.886719 Z M 388.296875 -35.824219 "/>
</clipPath>
<clipPath id="clip109">
  <path d="M 336.332031 41 L 417.878906 41 L 417.878906 127 L 336.332031 127 Z M 336.332031 41 "/>
</clipPath>
<clipPath id="clip110">
  <path d="M 336.332031 -39.1875 L 417.878906 -39.1875 L 417.878906 207.449219 L 336.332031 207.449219 Z M 336.332031 -39.1875 L 427.082031 84.886719 C 427.082031 93.003906 420.5 99.585938 412.382812 99.585938 C 404.261719 99.585938 397.679688 93.003906 397.679688 84.886719 C 397.679688 76.765625 404.261719 70.1875 412.382812 70.1875 C 420.5 70.1875 427.082031 76.765625 427.082031 84.886719 Z M 336.332031 -39.1875 "/>
</clipPath>
<clipPath id="clip111">
  <path d="M 336.332031 -39.1875 L 417.878906 -39.1875 L 417.878906 207.449219 L 336.332031 207.449219 Z M 336.332031 -39.1875 L 356.53125 83.378906 C 356.53125 91.496094 349.949219 98.078125 341.832031 98.078125 C 333.710938 98.078125 327.132812 91.496094 327.132812 83.378906 C 327.132812 75.261719 333.710938 68.679688 341.832031 68.679688 C 349.949219 68.679688 356.53125 75.261719 356.53125 83.378906 Z M 336.332031 -39.1875 "/>
</clipPath>
</defs>
<g id="surface836">
<g clip-path="url(#clip1)" clip-rule="nonzero">
<g clip-path="url(#clip2)" clip-rule="evenodd">
<g clip-path="url(#clip3)" clip-rule="evenodd">
<path style="fill:none;stroke-width:0.0245707;stroke-linecap:butt;stroke-linejoin:miter;stroke:rgb(17.96875%,20.3125%,21.09375%);stroke-opacity:0.8;stroke-miterlimit:10;" d="M 5.195932 3.268929 L 4.719525 3.07328 " transform="matrix(119.653816,0,0,119.653816,-77.525533,-102.983556)"/>
</g>
</g>
</g>
<g clip-path="url(#clip4)" clip-rule="nonzero">
<g clip-path="url(#clip5)" clip-rule="evenodd">
<g clip-path="url(#clip6)" clip-rule="evenodd">
<path style="fill:none;stroke-width:0.0245707;stroke-linecap:butt;stroke-linejoin:miter;stroke:rgb(17.96875%,20.3125%,21.09375%);stroke-opacity:0.8;stroke-miterlimit:10;" d="M 5.195932 3.268929 L 5.373625 2.951607 " transform="matrix(119.653816,0,0,119.653816,-77.525533,-102.983556)"/>
</g>
</g>
</g>
<g clip-path="url(#clip7)" clip-rule="nonzero">
<g clip-path="url(#clip8)" clip-rule="evenodd">
<g clip-path="url(#clip9)" clip-rule="evenodd">
<path style="fill:none;stroke-width:0.0245707;stroke-linecap:butt;stroke-linejoin:miter;stroke:rgb(17.96875%,20.3125%,21.09375%);stroke-opacity:0.8;stroke-miterlimit:10;" d="M 5.195932 3.268929 L 5.299779 3.676583 " transform="matrix(119.653816,0,0,119.653816,-77.525533,-102.983556)"/>
</g>
</g>
</g>
<g clip-path="url(#clip10)" clip-rule="nonzero">
<g clip-path="url(#clip11)" clip-rule="evenodd">
<g clip-path="url(#clip12)" clip-rule="evenodd">
<path style="fill:none;stroke-width:0.0245707;stroke-linecap:butt;stroke-linejoin:miter;stroke:rgb(17.96875%,20.3125%,21.09375%);stroke-opacity:0.8;stroke-miterlimit:10;" d="M 3.768212 3.045661 L 4.29336 3.205301 " transform="matrix(119.653816,0,0,119.653816,-77.525533,-102.983556)"/>
</g>
</g>
</g>
<g clip-path="url(#clip13)" clip-rule="nonzero">
<g clip-path="url(#clip14)" clip-rule="evenodd">
<g clip-path="url(#clip15)" clip-rule="evenodd">
<path style="fill:none;stroke-width:0.0245707;stroke-linecap:butt;stroke-linejoin:miter;stroke:rgb(17.96875%,20.3125%,21.09375%);stroke-opacity:0.8;stroke-miterlimit:10;" d="M 3.768212 3.045661 L 4.337237 2.833003 " transform="matrix(119.653816,0,0,119.653816,-77.525533,-102.983556)"/>
</g>
</g>
</g>
<g clip-path="url(#clip16)" clip-rule="nonzero">
<g clip-path="url(#clip17)" clip-rule="evenodd">
<g clip-path="url(#clip18)" clip-rule="evenodd">
<path style="fill:none;stroke-width:0.0245707;stroke-linecap:butt;stroke-linejoin:miter;stroke:rgb(17.96875%,20.3125%,21.09375%);stroke-opacity:0.8;stroke-miterlimit:10;" d="M 3.768212 3.045661 L 2.699798 3.127244 " transform="matrix(119.653816,0,0,119.653816,-77.525533,-102.983556)"/>
</g>
</g>
</g>
<g clip-path="url(#clip19)" clip-rule="nonzero">
<g clip-path="url(#clip20)" clip-rule="evenodd">
<g clip-path="url(#clip21)" clip-rule="evenodd">
<path style="fill:none;stroke-width:0.0245707;stroke-linecap:butt;stroke-linejoin:miter;stroke:rgb(17.96875%,20.3125%,21.09375%);stroke-opacity:0.8;stroke-miterlimit:10;" d="M 4.29336 3.205301 L 4.719525 3.07328 " transform="matrix(119.653816,0,0,119.653816,-77.525533,-102.983556)"/>
</g>
</g>
</g>
<g clip-path="url(#clip22)" clip-rule="nonzero">
<g clip-path="url(#clip23)" clip-rule="evenodd">
<g clip-path="url(#clip24)" clip-rule="evenodd">
<path style="fill:none;stroke-width:0.0245707;stroke-linecap:butt;stroke-linejoin:miter;stroke:rgb(17.96875%,20.3125%,21.09375%);stroke-opacity:0.8;stroke-miterlimit:10;" d="M 4.719525 3.07328 L 4.337237 2.833003 " transform="matrix(119.653816,0,0,119.653816,-77.525533,-102.983556)"/>
</g>
</g>
</g>
<g clip-path="url(#clip25)" clip-rule="nonzero">
<g clip-path="url(#clip26)" clip-rule="evenodd">
<g clip-path="url(#clip27)" clip-rule="evenodd">
<path style="fill:none;stroke-width:0.0245707;stroke-linecap:butt;stroke-linejoin:miter;stroke:rgb(17.96875%,20.3125%,21.09375%);stroke-opacity:0.8;stroke-miterlimit:10;" d="M 2.626703 4.40146 L 2.43014 4.402864 " transform="matrix(119.653816,0,0,119.653816,-77.525533,-102.983556)"/>
</g>
</g>
</g>
<g clip-path="url(#clip28)" clip-rule="nonzero">
<g clip-path="url(#clip29)" clip-rule="evenodd">
<g clip-path="url(#clip30)" clip-rule="evenodd">
<path style="fill:none;stroke-width:0.0245707;stroke-linecap:butt;stroke-linejoin:miter;stroke:rgb(17.96875%,20.3125%,21.09375%);stroke-opacity:0.8;stroke-miterlimit:10;" d="M 2.626703 4.40146 L 2.6015 3.903735 " transform="matrix(119.653816,0,0,119.653816,-77.525533,-102.983556)"/>
</g>
</g>
</g>
<g clip-path="url(#clip31)" clip-rule="nonzero">
<g clip-path="url(#clip32)" clip-rule="evenodd">
<g clip-path="url(#clip33)" clip-rule="evenodd">
<path style="fill:none;stroke-width:0.0245707;stroke-linecap:butt;stroke-linejoin:miter;stroke:rgb(17.96875%,20.3125%,21.09375%);stroke-opacity:0.8;stroke-miterlimit:10;" d="M 2.626703 4.40146 L 2.500003 4.759263 " transform="matrix(119.653816,0,0,119.653816,-77.525533,-102.983556)"/>
</g>
</g>
</g>
<g clip-path="url(#clip34)" clip-rule="nonzero">
<g clip-path="url(#clip35)" clip-rule="evenodd">
<g clip-path="url(#clip36)" clip-rule="evenodd">
<path style="fill:none;stroke-width:0.0245707;stroke-linecap:butt;stroke-linejoin:miter;stroke:rgb(17.96875%,20.3125%,21.09375%);stroke-opacity:0.8;stroke-miterlimit:10;" d="M 3.179698 5.502064 L 3.236405 5.076487 " transform="matrix(119.653816,0,0,119.653816,-77.525533,-102.983556)"/>
</g>
</g>
</g>
<g clip-path="url(#clip37)" clip-rule="nonzero">
<g clip-path="url(#clip38)" clip-rule="evenodd">
<g clip-path="url(#clip39)" clip-rule="evenodd">
<path style="fill:none;stroke-width:0.0245707;stroke-linecap:butt;stroke-linejoin:miter;stroke:rgb(17.96875%,20.3125%,21.09375%);stroke-opacity:0.8;stroke-miterlimit:10;" d="M 2.43014 4.402864 L 3.236405 5.076487 " transform="matrix(119.653816,0,0,119.653816,-77.525533,-102.983556)"/>
</g>
</g>
</g>
<g clip-path="url(#clip40)" clip-rule="nonzero">
<g clip-path="url(#clip41)" clip-rule="evenodd">
<g clip-path="url(#clip42)" clip-rule="evenodd">
<path style="fill:none;stroke-width:0.0245707;stroke-linecap:butt;stroke-linejoin:miter;stroke:rgb(17.96875%,20.3125%,21.09375%);stroke-opacity:0.8;stroke-miterlimit:10;" d="M 2.43014 4.402864 L 2.6015 3.903735 " transform="matrix(119.653816,0,0,119.653816,-77.525533,-102.983556)"/>
</g>
</g>
</g>
<g clip-path="url(#clip43)" clip-rule="nonzero">
<g clip-path="url(#clip44)" clip-rule="evenodd">
<g clip-path="url(#clip45)" clip-rule="evenodd">
<path style="fill:none;stroke-width:0.0245707;stroke-linecap:butt;stroke-linejoin:miter;stroke:rgb(17.96875%,20.3125%,21.09375%);stroke-opacity:0.8;stroke-miterlimit:10;" d="M 2.43014 4.402864 L 2.699798 3.127244 " transform="matrix(119.653816,0,0,119.653816,-77.525533,-102.983556)"/>
</g>
</g>
</g>
<g clip-path="url(#clip46)" clip-rule="nonzero">
<g clip-path="url(#clip47)" clip-rule="evenodd">
<g clip-path="url(#clip48)" clip-rule="evenodd">
<path style="fill:none;stroke-width:0.0245707;stroke-linecap:butt;stroke-linejoin:miter;stroke:rgb(17.96875%,20.3125%,21.09375%);stroke-opacity:0.8;stroke-miterlimit:10;" d="M 2.43014 4.402864 L 2.500003 4.759263 " transform="matrix(119.653816,0,0,119.653816,-77.525533,-102.983556)"/>
</g>
</g>
</g>
<g clip-path="url(#clip49)" clip-rule="nonzero">
<g clip-path="url(#clip50)" clip-rule="evenodd">
<g clip-path="url(#clip51)" clip-rule="evenodd">
<path style="fill:none;stroke-width:0.0245707;stroke-linecap:butt;stroke-linejoin:miter;stroke:rgb(17.96875%,20.3125%,21.09375%);stroke-opacity:0.8;stroke-miterlimit:10;" d="M 2.43014 4.402864 L 2.065579 5.031337 " transform="matrix(119.653816,0,0,119.653816,-77.525533,-102.983556)"/>
</g>
</g>
</g>
<g clip-path="url(#clip52)" clip-rule="nonzero">
<g clip-path="url(#clip53)" clip-rule="evenodd">
<g clip-path="url(#clip54)" clip-rule="evenodd">
<path style="fill:none;stroke-width:0.0245707;stroke-linecap:butt;stroke-linejoin:miter;stroke:rgb(17.96875%,20.3125%,21.09375%);stroke-opacity:0.8;stroke-miterlimit:10;" d="M 2.43014 4.402864 L 1.636379 4.398424 " transform="matrix(119.653816,0,0,119.653816,-77.525533,-102.983556)"/>
</g>
</g>
</g>
<g clip-path="url(#clip55)" clip-rule="nonzero">
<g clip-path="url(#clip56)" clip-rule="evenodd">
<g clip-path="url(#clip57)" clip-rule="evenodd">
<path style="fill:none;stroke-width:0.0245707;stroke-linecap:butt;stroke-linejoin:miter;stroke:rgb(17.96875%,20.3125%,21.09375%);stroke-opacity:0.8;stroke-miterlimit:10;" d="M 3.236405 5.076487 L 3.958965 5.076487 " transform="matrix(119.653816,0,0,119.653816,-77.525533,-102.983556)"/>
</g>
</g>
</g>
<g clip-path="url(#clip58)" clip-rule="nonzero">
<g clip-path="url(#clip59)" clip-rule="evenodd">
<g clip-path="url(#clip60)" clip-rule="evenodd">
<path style="fill:none;stroke-width:0.0245707;stroke-linecap:butt;stroke-linejoin:miter;stroke:rgb(17.96875%,20.3125%,21.09375%);stroke-opacity:0.8;stroke-miterlimit:10;" d="M 2.6015 3.903735 L 2.699798 3.127244 " transform="matrix(119.653816,0,0,119.653816,-77.525533,-102.983556)"/>
</g>
</g>
</g>
<g clip-path="url(#clip61)" clip-rule="nonzero">
<g clip-path="url(#clip62)" clip-rule="evenodd">
<g clip-path="url(#clip63)" clip-rule="evenodd">
<path style="fill:none;stroke-width:0.0245707;stroke-linecap:butt;stroke-linejoin:miter;stroke:rgb(17.96875%,20.3125%,21.09375%);stroke-opacity:0.8;stroke-miterlimit:10;" d="M 2.699798 3.127244 L 2.621578 2.808159 " transform="matrix(119.653816,0,0,119.653816,-77.525533,-102.983556)"/>
</g>
</g>
</g>
<g clip-path="url(#clip64)" clip-rule="nonzero">
<g clip-path="url(#clip65)" clip-rule="evenodd">
<g clip-path="url(#clip66)" clip-rule="evenodd">
<path style="fill:none;stroke-width:0.0245707;stroke-linecap:butt;stroke-linejoin:miter;stroke:rgb(17.96875%,20.3125%,21.09375%);stroke-opacity:0.8;stroke-miterlimit:10;" d="M 2.699798 3.127244 L 2.812722 1.909898 " transform="matrix(119.653816,0,0,119.653816,-77.525533,-102.983556)"/>
</g>
</g>
</g>
<g clip-path="url(#clip67)" clip-rule="nonzero">
<g clip-path="url(#clip68)" clip-rule="evenodd">
<g clip-path="url(#clip69)" clip-rule="evenodd">
<path style="fill:none;stroke-width:0.0245707;stroke-linecap:butt;stroke-linejoin:miter;stroke:rgb(17.96875%,20.3125%,21.09375%);stroke-opacity:0.8;stroke-miterlimit:10;" d="M 2.699798 3.127244 L 1.930685 2.670621 " transform="matrix(119.653816,0,0,119.653816,-77.525533,-102.983556)"/>
</g>
</g>
</g>
<g clip-path="url(#clip70)" clip-rule="nonzero">
<g clip-path="url(#clip71)" clip-rule="evenodd">
<g clip-path="url(#clip72)" clip-rule="evenodd">
<path style="fill:none;stroke-width:0.0245707;stroke-linecap:butt;stroke-linejoin:miter;stroke:rgb(17.96875%,20.3125%,21.09375%);stroke-opacity:0.8;stroke-miterlimit:10;" d="M 4.115242 5.331161 L 3.958965 5.076487 " transform="matrix(119.653816,0,0,119.653816,-77.525533,-102.983556)"/>
</g>
</g>
</g>
<g clip-path="url(#clip73)" clip-rule="nonzero">
<g clip-path="url(#clip74)" clip-rule="evenodd">
<g clip-path="url(#clip75)" clip-rule="evenodd">
<path style="fill:none;stroke-width:0.0245707;stroke-linecap:butt;stroke-linejoin:miter;stroke:rgb(17.96875%,20.3125%,21.09375%);stroke-opacity:0.8;stroke-miterlimit:10;" d="M 3.958965 5.076487 L 4.475298 4.851587 " transform="matrix(119.653816,0,0,119.653816,-77.525533,-102.983556)"/>
</g>
</g>
</g>
<g clip-path="url(#clip76)" clip-rule="nonzero">
<g clip-path="url(#clip77)" clip-rule="evenodd">
<g clip-path="url(#clip78)" clip-rule="evenodd">
<path style="fill:none;stroke-width:0.0245707;stroke-linecap:butt;stroke-linejoin:miter;stroke:rgb(17.96875%,20.3125%,21.09375%);stroke-opacity:0.8;stroke-miterlimit:10;" d="M 2.812722 1.909898 L 2.360016 1.615036 " transform="matrix(119.653816,0,0,119.653816,-77.525533,-102.983556)"/>
</g>
</g>
</g>
<g clip-path="url(#clip79)" clip-rule="nonzero">
<g clip-path="url(#clip80)" clip-rule="evenodd">
<g clip-path="url(#clip81)" clip-rule="evenodd">
<path style="fill:none;stroke-width:0.0245707;stroke-linecap:butt;stroke-linejoin:miter;stroke:rgb(17.96875%,20.3125%,21.09375%);stroke-opacity:0.8;stroke-miterlimit:10;" d="M 2.812722 1.909898 L 2.700582 1.455168 " transform="matrix(119.653816,0,0,119.653816,-77.525533,-102.983556)"/>
</g>
</g>
</g>
<g clip-path="url(#clip82)" clip-rule="nonzero">
<g clip-path="url(#clip83)" clip-rule="evenodd">
<g clip-path="url(#clip84)" clip-rule="evenodd">
<path style="fill:none;stroke-width:0.0245707;stroke-linecap:butt;stroke-linejoin:miter;stroke:rgb(17.96875%,20.3125%,21.09375%);stroke-opacity:0.8;stroke-miterlimit:10;" d="M 2.812722 1.909898 L 3.504757 1.557514 " transform="matrix(119.653816,0,0,119.653816,-77.525533,-102.983556)"/>
</g>
</g>
</g>
<g clip-path="url(#clip85)" clip-rule="nonzero">
<g clip-path="url(#clip86)" clip-rule="evenodd">
<g clip-path="url(#clip87)" clip-rule="evenodd">
<path style="fill:none;stroke-width:0.0245707;stroke-linecap:butt;stroke-linejoin:miter;stroke:rgb(17.96875%,20.3125%,21.09375%);stroke-opacity:0.8;stroke-miterlimit:10;" d="M 1.014174 3.737762 L 1.211749 4.143653 " transform="matrix(119.653816,0,0,119.653816,-77.525533,-102.983556)"/>
</g>
</g>
</g>
<g clip-path="url(#clip88)" clip-rule="nonzero">
<g clip-path="url(#clip89)" clip-rule="evenodd">
<g clip-path="url(#clip90)" clip-rule="evenodd">
<path style="fill:none;stroke-width:0.0245707;stroke-linecap:butt;stroke-linejoin:miter;stroke:rgb(17.96875%,20.3125%,21.09375%);stroke-opacity:0.8;stroke-miterlimit:10;" d="M 1.014174 3.737762 L 0.936671 3.393964 " transform="matrix(119.653816,0,0,119.653816,-77.525533,-102.983556)"/>
</g>
</g>
</g>
<g clip-path="url(#clip91)" clip-rule="nonzero">
<g clip-path="url(#clip92)" clip-rule="evenodd">
<g clip-path="url(#clip93)" clip-rule="evenodd">
<path style="fill:none;stroke-width:0.0245707;stroke-linecap:butt;stroke-linejoin:miter;stroke:rgb(17.96875%,20.3125%,21.09375%);stroke-opacity:0.8;stroke-miterlimit:10;" d="M 1.211749 4.143653 L 1.636379 4.398424 " transform="matrix(119.653816,0,0,119.653816,-77.525533,-102.983556)"/>
</g>
</g>
</g>
<g clip-path="url(#clip94)" clip-rule="nonzero">
<g clip-path="url(#clip95)" clip-rule="evenodd">
<g clip-path="url(#clip96)" clip-rule="evenodd">
<path style="fill:none;stroke-width:0.0245707;stroke-linecap:butt;stroke-linejoin:miter;stroke:rgb(17.96875%,20.3125%,21.09375%);stroke-opacity:0.8;stroke-miterlimit:10;" d="M 1.304856 2.115243 L 1.50266 2.344615 " transform="matrix(119.653816,0,0,119.653816,-77.525533,-102.983556)"/>
</g>
</g>
</g>
<g clip-path="url(#clip97)" clip-rule="nonzero">
<g clip-path="url(#clip98)" clip-rule="evenodd">
<g clip-path="url(#clip99)" clip-rule="evenodd">
<path style="fill:none;stroke-width:0.0245707;stroke-linecap:butt;stroke-linejoin:miter;stroke:rgb(17.96875%,20.3125%,21.09375%);stroke-opacity:0.8;stroke-miterlimit:10;" d="M 1.930685 2.670621 L 1.50266 2.344615 " transform="matrix(119.653816,0,0,119.653816,-77.525533,-102.983556)"/>
</g>
</g>
</g>
<g clip-path="url(#clip100)" clip-rule="nonzero">
<g clip-path="url(#clip101)" clip-rule="evenodd">
<g clip-path="url(#clip102)" clip-rule="evenodd">
<path style="fill:none;stroke-width:0.0245707;stroke-linecap:butt;stroke-linejoin:miter;stroke:rgb(17.96875%,20.3125%,21.09375%);stroke-opacity:0.8;stroke-miterlimit:10;" d="M 4.475298 4.851587 L 4.795656 4.694428 " transform="matrix(119.653816,0,0,119.653816,-77.525533,-102.983556)"/>
</g>
</g>
</g>
<g clip-path="url(#clip103)" clip-rule="nonzero">
<g clip-path="url(#clip104)" clip-rule="evenodd">
<g clip-path="url(#clip105)" clip-rule="evenodd">
<path style="fill:none;stroke-width:0.0245707;stroke-linecap:butt;stroke-linejoin:miter;stroke:rgb(17.96875%,20.3125%,21.09375%);stroke-opacity:0.8;stroke-miterlimit:10;" d="M 3.534204 1.233761 L 3.504757 1.557514 " transform="matrix(119.653816,0,0,119.653816,-77.525533,-102.983556)"/>
</g>
</g>
</g>
<g clip-path="url(#clip106)" clip-rule="nonzero">
<g clip-path="url(#clip107)" clip-rule="evenodd">
<g clip-path="url(#clip108)" clip-rule="evenodd">
<path style="fill:none;stroke-width:0.0245707;stroke-linecap:butt;stroke-linejoin:miter;stroke:rgb(17.96875%,20.3125%,21.09375%);stroke-opacity:0.8;stroke-miterlimit:10;" d="M 4.468246 1.637236 L 4.094381 1.570115 " transform="matrix(119.653816,0,0,119.653816,-77.525533,-102.983556)"/>
</g>
</g>
</g>
<g clip-path="url(#clip109)" clip-rule="nonzero">
<g clip-path="url(#clip110)" clip-rule="evenodd">
<g clip-path="url(#clip111)" clip-rule="evenodd">
<path style="fill:none;stroke-width:0.0245707;stroke-linecap:butt;stroke-linejoin:miter;stroke:rgb(17.96875%,20.3125%,21.09375%);stroke-opacity:0.8;stroke-miterlimit:10;" d="M 4.094381 1.570115 L 3.504757 1.557514 " transform="matrix(119.653816,0,0,119.653816,-77.525533,-102.983556)"/>
</g>
</g>
</g>
<path style="fill-rule:nonzero;fill:rgb(55.294118%,82.745098%,78.039216%);fill-opacity:1;stroke-width:0.0245707;stroke-linecap:butt;stroke-linejoin:miter;stroke:rgb(60%,60%,60%);stroke-opacity:0.8;stroke-miterlimit:10;" d="M 0.122868 -0.00000751809 C 0.122868 0.0678641 0.0678595 0.12284 -0.0000121069 0.12284 C -0.067851 0.12284 -0.12286 0.0678641 -0.12286 -0.00000751809 C -0.12286 -0.0678465 -0.067851 -0.122855 -0.0000121069 -0.122855 C 0.0678595 -0.122855 0.122868 -0.0678465 0.122868 -0.00000751809 Z M 0.122868 -0.00000751809 " transform="matrix(119.653816,0,0,119.653816,544.188949,288.15715)"/>
<path style="fill-rule:nonzero;fill:rgb(55.294118%,82.745098%,78.039216%);fill-opacity:1;stroke-width:0.0245707;stroke-linecap:butt;stroke-linejoin:miter;stroke:rgb(60%,60%,60%);stroke-opacity:0.8;stroke-miterlimit:10;" d="M 0.122843 -0.0000046726 C 0.122843 0.0678343 0.0678339 0.122843 -0.00000504922 0.122843 C -0.067844 0.122843 -0.122853 0.0678343 -0.122853 -0.0000046726 C -0.122853 -0.0678436 -0.067844 -0.122853 -0.00000504922 -0.122853 C 0.0678339 -0.122853 0.122843 -0.0678436 0.122843 -0.0000046726 Z M 0.122843 -0.0000046726 " transform="matrix(119.653816,0,0,119.653816,373.356073,261.441965)"/>
<path style="fill-rule:nonzero;fill:rgb(55.294118%,82.745098%,78.039216%);fill-opacity:1;stroke-width:0.0245707;stroke-linecap:butt;stroke-linejoin:miter;stroke:rgb(60%,60%,60%);stroke-opacity:0.8;stroke-miterlimit:10;" d="M 0.122855 -0.000000736484 C 0.122855 0.0678382 0.0678462 0.122847 0.00000725239 0.122847 C -0.0678643 0.122847 -0.122841 0.0678382 -0.122841 -0.000000736484 C -0.122841 -0.0678397 -0.0678643 -0.122849 0.00000725239 -0.122849 C 0.0678462 -0.122849 0.122855 -0.0678397 0.122855 -0.000000736484 Z M 0.122855 -0.000000736484 " transform="matrix(119.653816,0,0,119.653816,436.190538,280.543057)"/>
<path style="fill-rule:nonzero;fill:rgb(55.294118%,82.745098%,78.039216%);fill-opacity:1;stroke-width:0.0245707;stroke-linecap:butt;stroke-linejoin:miter;stroke:rgb(60%,60%,60%);stroke-opacity:0.8;stroke-miterlimit:10;" d="M 0.122854 -0.0000148094 C 0.122854 0.0678568 0.0678449 0.122866 0.0000059999 0.122866 C -0.0678656 0.122866 -0.122842 0.0678568 -0.122842 -0.0000148094 C -0.122842 -0.0678537 -0.0678656 -0.122863 0.0000059999 -0.122863 C 0.0678449 -0.122863 0.122854 -0.0678537 0.122854 -0.0000148094 Z M 0.122854 -0.0000148094 " transform="matrix(119.653816,0,0,119.653816,487.182876,264.747866)"/>
<path style="fill-rule:nonzero;fill:rgb(55.294118%,82.745098%,78.039216%);fill-opacity:1;stroke-width:0.0245707;stroke-linecap:butt;stroke-linejoin:miter;stroke:rgb(60%,60%,60%);stroke-opacity:0.8;stroke-miterlimit:10;" d="M 0.122845 -0.0000158658 C 0.122845 0.0678557 0.0678362 0.122865 -0.0000027052 0.122865 C -0.0678416 0.122865 -0.122851 0.0678557 -0.122851 -0.0000158658 C -0.122851 -0.0678548 -0.0678416 -0.122864 -0.0000027052 -0.122864 C 0.0678362 -0.122864 0.122845 -0.0678548 0.122845 -0.0000158658 Z M 0.122845 -0.0000158658 " transform="matrix(119.653816,0,0,119.653816,441.44173,235.997992)"/>
<path style="fill-rule:nonzero;fill:rgb(100%,92.941176%,43.529412%);fill-opacity:1;stroke-width:0.0245707;stroke-linecap:butt;stroke-linejoin:miter;stroke:rgb(60%,60%,60%);stroke-opacity:0.8;stroke-miterlimit:10;" d="M 0.122839 0.00000487109 C 0.122839 0.0678438 0.0678622 0.122853 -0.00000938801 0.122853 C -0.0678483 0.122853 -0.122857 0.0678438 -0.122857 0.00000487109 C -0.122857 -0.0678341 -0.0678483 -0.122843 -0.00000938801 -0.122843 C 0.0678622 -0.122843 0.122839 -0.0678341 0.122839 0.00000487109 Z M 0.122839 0.00000487109 " transform="matrix(119.653816,0,0,119.653816,236.770655,423.667386)"/>
<path style="fill-rule:nonzero;fill:rgb(55.294118%,82.745098%,78.039216%);fill-opacity:1;stroke-width:0.0245707;stroke-linecap:butt;stroke-linejoin:miter;stroke:rgb(60%,60%,60%);stroke-opacity:0.8;stroke-miterlimit:10;" d="M 0.122855 -0.00000498527 C 0.122855 0.067834 0.0678463 0.122843 0.00000732854 0.122843 C -0.0678643 0.122843 -0.122841 0.067834 -0.122841 -0.00000498527 C -0.122841 -0.0678439 -0.0678643 -0.122853 0.00000732854 -0.122853 C 0.0678463 -0.122853 0.122855 -0.0678439 0.122855 -0.00000498527 Z M 0.122855 -0.00000498527 " transform="matrix(119.653816,0,0,119.653816,302.936623,555.359972)"/>
<path style="fill-rule:nonzero;fill:rgb(55.294118%,82.745098%,78.039216%);fill-opacity:1;stroke-width:0.0245707;stroke-linecap:butt;stroke-linejoin:miter;stroke:rgb(60%,60%,60%);stroke-opacity:0.8;stroke-miterlimit:10;" d="M 0.122852 0.0000133609 C 0.122852 0.0678523 0.0678435 0.122861 0.00000453872 0.122861 C -0.0678344 0.122861 -0.122843 0.0678523 -0.122843 0.0000133609 C -0.122843 -0.0678582 -0.0678344 -0.122867 0.00000453872 -0.122867 C 0.0678435 -0.122867 0.122852 -0.0678582 0.122852 0.0000133609 Z M 0.122852 0.0000133609 " transform="matrix(119.653816,0,0,119.653816,213.249457,423.834339)"/>
<path style="fill-rule:nonzero;fill:rgb(55.294118%,82.745098%,78.039216%);fill-opacity:1;stroke-width:0.0245707;stroke-linecap:butt;stroke-linejoin:miter;stroke:rgb(60%,60%,60%);stroke-opacity:0.8;stroke-miterlimit:10;" d="M 0.122866 0.00000546074 C 0.122866 0.0678444 0.0678575 0.122853 -0.0000141093 0.122853 C -0.067853 0.122853 -0.122862 0.0678444 -0.122862 0.00000546074 C -0.122862 -0.0678661 -0.067853 -0.122842 -0.0000141093 -0.122842 C 0.0678575 -0.122842 0.122866 -0.0678661 0.122866 0.00000546074 Z M 0.122866 0.00000546074 " transform="matrix(119.653816,0,0,119.653816,309.724344,504.436847)"/>
<path style="fill-rule:nonzero;fill:rgb(100%,92.941176%,43.529412%);fill-opacity:1;stroke-width:0.0245707;stroke-linecap:butt;stroke-linejoin:miter;stroke:rgb(60%,60%,60%);stroke-opacity:0.8;stroke-miterlimit:10;" d="M 0.122865 0.00000660465 C 0.122865 0.0678455 0.0678562 0.122854 -0.0000154034 0.122854 C -0.0678543 0.122854 -0.122863 0.0678455 -0.122863 0.00000660465 C -0.122863 -0.067865 -0.0678543 -0.122841 -0.0000154034 -0.122841 C 0.0678562 -0.122841 0.122865 -0.067865 0.122865 0.00000660465 Z M 0.122865 0.00000660465 " transform="matrix(119.653816,0,0,119.653816,233.755749,364.112491)"/>
<path style="fill-rule:nonzero;fill:rgb(55.294118%,82.745098%,78.039216%);fill-opacity:1;stroke-width:0.0245707;stroke-linecap:butt;stroke-linejoin:miter;stroke:rgb(60%,60%,60%);stroke-opacity:0.8;stroke-miterlimit:10;" d="M 0.122854 -0.0000126867 C 0.122854 0.0678589 0.0678449 0.122868 0.00000600352 0.122868 C -0.0678656 0.122868 -0.122842 0.0678589 -0.122842 -0.0000126867 C -0.122842 -0.0678516 -0.0678656 -0.122861 0.00000600352 -0.122861 C 0.0678449 -0.122861 0.122854 -0.0678516 0.122854 -0.0000126867 Z M 0.122854 -0.0000126867 " transform="matrix(119.653816,0,0,119.653816,245.514907,271.204643)"/>
<path style="fill-rule:nonzero;fill:rgb(55.294118%,82.745098%,78.039216%);fill-opacity:1;stroke-width:0.0245707;stroke-linecap:butt;stroke-linejoin:miter;stroke:rgb(60%,60%,60%);stroke-opacity:0.8;stroke-miterlimit:10;" d="M 0.122852 -0.00000188641 C 0.122852 0.067837 0.067843 0.122846 0.00000403941 0.122846 C -0.0678349 0.122846 -0.122844 0.067837 -0.122844 -0.00000188641 C -0.122844 -0.0678408 -0.0678349 -0.12285 0.00000403941 -0.12285 C 0.067843 -0.12285 0.122852 -0.0678408 0.122852 -0.00000188641 Z M 0.122852 -0.00000188641 " transform="matrix(119.653816,0,0,119.653816,221.608892,466.480694)"/>
<path style="fill-rule:nonzero;fill:rgb(55.294118%,82.745098%,78.039216%);fill-opacity:1;stroke-width:0.0245707;stroke-linecap:butt;stroke-linejoin:miter;stroke:rgb(60%,60%,60%);stroke-opacity:0.8;stroke-miterlimit:10;" d="M 0.122854 -0.00000557632 C 0.122854 0.067866 0.0678449 0.122842 0.00000601169 0.122842 C -0.0678656 0.122842 -0.122842 0.067866 -0.122842 -0.00000557632 C -0.122842 -0.0678445 -0.0678656 -0.122853 0.00000601169 -0.122853 C 0.0678449 -0.122853 0.122854 -0.0678445 0.122854 -0.00000557632 Z M 0.122854 -0.00000557632 " transform="matrix(119.653816,0,0,119.653816,414.878187,534.910823)"/>
<path style="fill-rule:nonzero;fill:rgb(55.294118%,82.745098%,78.039216%);fill-opacity:1;stroke-width:0.0245707;stroke-linecap:butt;stroke-linejoin:miter;stroke:rgb(60%,60%,60%);stroke-opacity:0.8;stroke-miterlimit:10;" d="M 0.12285 -0.00000572552 C 0.12285 0.0678659 0.0678409 0.122842 0.00000193666 0.122842 C -0.067837 0.122842 -0.122846 0.0678659 -0.122846 -0.00000572552 C -0.122846 -0.0678447 -0.067837 -0.122854 0.00000193666 -0.122854 C 0.0678409 -0.122854 0.12285 -0.0678447 0.12285 -0.00000572552 Z M 0.12285 -0.00000572552 " transform="matrix(119.653816,0,0,119.653816,396.179456,504.438185)"/>
<path style="fill-rule:nonzero;fill:rgb(55.294118%,82.745098%,78.039216%);fill-opacity:1;stroke-width:0.0245707;stroke-linecap:butt;stroke-linejoin:miter;stroke:rgb(60%,60%,60%);stroke-opacity:0.8;stroke-miterlimit:10;" d="M 0.122856 0.00000361798 C 0.122856 0.0678426 0.0678475 0.122852 0.00000851754 0.122852 C -0.0678631 0.122852 -0.122839 0.0678426 -0.122839 0.00000361798 C -0.122839 -0.0678353 -0.0678631 -0.122844 0.00000851754 -0.122844 C 0.0678475 -0.122844 0.122856 -0.0678353 0.122856 0.00000361798 Z M 0.122856 0.00000361798 " transform="matrix(119.653816,0,0,119.653816,236.155231,233.023005)"/>
<path style="fill-rule:nonzero;fill:rgb(55.294118%,82.745098%,78.039216%);fill-opacity:1;stroke-width:0.0245707;stroke-linecap:butt;stroke-linejoin:miter;stroke:rgb(60%,60%,60%);stroke-opacity:0.8;stroke-miterlimit:10;" d="M 0.122861 -0.0000158396 C 0.122861 0.0678557 0.0678523 0.122865 0.0000133468 0.122865 C -0.0678582 0.122865 -0.122867 0.0678557 -0.122867 -0.0000158396 C -0.122867 -0.0678548 -0.0678582 -0.122864 0.0000133468 -0.122864 C 0.0678523 -0.122864 0.122861 -0.0678548 0.122861 -0.0000158396 Z M 0.122861 -0.0000158396 " transform="matrix(119.653816,0,0,119.653816,259.025747,125.544864)"/>
<path style="fill-rule:nonzero;fill:rgb(55.294118%,82.745098%,78.039216%);fill-opacity:1;stroke-width:0.0245707;stroke-linecap:butt;stroke-linejoin:miter;stroke:rgb(60%,60%,60%);stroke-opacity:0.8;stroke-miterlimit:10;" d="M 0.122844 -0.00000941098 C 0.122844 0.0678622 0.0678351 0.122838 -0.00000383205 0.122838 C -0.0678428 0.122838 -0.122852 0.0678622 -0.122852 -0.00000941098 C -0.122852 -0.0678483 -0.0678428 -0.122857 -0.00000383205 -0.122857 C 0.0678351 -0.122857 0.122844 -0.0678483 0.122844 -0.00000941098 Z M 0.122844 -0.00000941098 " transform="matrix(119.653816,0,0,119.653816,43.824677,344.255032)"/>
<path style="fill-rule:nonzero;fill:rgb(55.294118%,82.745098%,78.039216%);fill-opacity:1;stroke-width:0.0245707;stroke-linecap:butt;stroke-linejoin:miter;stroke:rgb(60%,60%,60%);stroke-opacity:0.8;stroke-miterlimit:10;" d="M 0.122861 0.00000965884 C 0.122861 0.0678486 0.0678523 0.122858 0.0000133842 0.122858 C -0.0678582 0.122858 -0.122867 0.0678486 -0.122867 0.00000965884 C -0.122867 -0.0678619 -0.0678582 -0.122838 0.0000133842 -0.122838 C 0.0678523 -0.122838 0.122861 -0.0678619 0.122861 0.00000965884 Z M 0.122861 0.00000965884 " transform="matrix(119.653816,0,0,119.653816,169.627305,499.034001)"/>
<path style="fill-rule:nonzero;fill:rgb(55.294118%,82.745098%,78.039216%);fill-opacity:1;stroke-width:0.0245707;stroke-linecap:butt;stroke-linejoin:miter;stroke:rgb(60%,60%,60%);stroke-opacity:0.8;stroke-miterlimit:10;" d="M 0.12287 -0.00000339098 C 0.12287 0.0678355 0.0678605 0.122844 -0.0000110357 0.122844 C -0.06785 0.122844 -0.122859 0.0678355 -0.122859 -0.00000339098 C -0.122859 -0.0678423 -0.06785 -0.122851 -0.0000110357 -0.122851 C 0.0678605 -0.122851 0.12287 -0.0678423 0.12287 -0.00000339098 Z M 0.12287 -0.00000339098 " transform="matrix(119.653816,0,0,119.653816,67.466164,392.820718)"/>
<path style="fill-rule:nonzero;fill:rgb(55.294118%,82.745098%,78.039216%);fill-opacity:1;stroke-width:0.0245707;stroke-linecap:butt;stroke-linejoin:miter;stroke:rgb(60%,60%,60%);stroke-opacity:0.8;stroke-miterlimit:10;" d="M 0.122847 -0.00000240374 C 0.122847 0.0678365 0.0678385 0.122845 -0.000000480187 0.122845 C -0.0678394 0.122845 -0.122848 0.0678365 -0.122848 -0.00000240374 C -0.122848 -0.0678413 -0.0678394 -0.12285 -0.000000480187 -0.12285 C 0.0678385 -0.12285 0.122847 -0.0678413 0.122847 -0.00000240374 Z M 0.122847 -0.00000240374 " transform="matrix(119.653816,0,0,119.653816,34.550839,303.117475)"/>
<path style="fill-rule:nonzero;fill:rgb(55.294118%,82.745098%,78.039216%);fill-opacity:1;stroke-width:0.0245707;stroke-linecap:butt;stroke-linejoin:miter;stroke:rgb(60%,60%,60%);stroke-opacity:0.8;stroke-miterlimit:10;" d="M 0.122844 0.00000450543 C 0.122844 0.0678434 0.0678353 0.122852 -0.00000366117 0.122852 C -0.0678426 0.122852 -0.122852 0.0678434 -0.122852 0.00000450543 C -0.122852 -0.0678344 -0.0678426 -0.122843 -0.00000366117 -0.122843 C 0.0678353 -0.122843 0.122844 -0.0678344 0.122844 0.00000450543 Z M 0.122844 0.00000450543 " transform="matrix(119.653816,0,0,119.653816,118.273876,423.304148)"/>
<path style="fill-rule:nonzero;fill:rgb(55.294118%,82.745098%,78.039216%);fill-opacity:1;stroke-width:0.0245707;stroke-linecap:butt;stroke-linejoin:miter;stroke:rgb(60%,60%,60%);stroke-opacity:0.8;stroke-miterlimit:10;" d="M 0.122849 0.0000146955 C 0.122849 0.0678536 0.0678397 0.122863 0.000000734605 0.122863 C -0.0678382 0.122863 -0.122847 0.0678536 -0.122847 0.0000146955 C -0.122847 -0.0678569 -0.0678382 -0.122866 0.000000734605 -0.122866 C 0.0678397 -0.122866 0.122849 -0.0678569 0.122849 0.0000146955 Z M 0.122849 0.0000146955 " transform="matrix(119.653816,0,0,119.653816,78.605381,150.111523)"/>
<path style="fill-rule:nonzero;fill:rgb(55.294118%,82.745098%,78.039216%);fill-opacity:1;stroke-width:0.0245707;stroke-linecap:butt;stroke-linejoin:miter;stroke:rgb(60%,60%,60%);stroke-opacity:0.8;stroke-miterlimit:10;" d="M 0.122861 -0.0000137694 C 0.122861 0.0678578 0.0678522 0.122867 0.0000132612 0.122867 C -0.0678583 0.122867 -0.122867 0.0678578 -0.122867 -0.0000137694 C -0.122867 -0.0678527 -0.0678583 -0.122862 0.0000132612 -0.122862 C 0.0678522 -0.122862 0.122861 -0.0678527 0.122861 -0.0000137694 Z M 0.122861 -0.0000137694 " transform="matrix(119.653816,0,0,119.653816,153.486694,216.568054)"/>
<path style="fill-rule:nonzero;fill:rgb(55.294118%,82.745098%,78.039216%);fill-opacity:1;stroke-width:0.0245707;stroke-linecap:butt;stroke-linejoin:miter;stroke:rgb(60%,60%,60%);stroke-opacity:0.8;stroke-miterlimit:10;" d="M 0.122847 0.00000224397 C 0.122847 0.0678412 0.0678378 0.12285 -0.0000011464 0.12285 C -0.0678401 0.12285 -0.122849 0.0678412 -0.122849 0.00000224397 C -0.122849 -0.0678367 -0.0678401 -0.122846 -0.0000011464 -0.122846 C 0.0678378 -0.122846 0.122847 -0.0678367 0.122847 0.00000224397 Z M 0.122847 0.00000224397 " transform="matrix(119.653816,0,0,119.653816,102.273575,177.558325)"/>
<path style="fill-rule:nonzero;fill:rgb(55.294118%,82.745098%,78.039216%);fill-opacity:1;stroke-width:0.0245707;stroke-linecap:butt;stroke-linejoin:miter;stroke:rgb(60%,60%,60%);stroke-opacity:0.8;stroke-miterlimit:10;" d="M 0.12285 0.0000103705 C 0.12285 0.0678493 0.0678409 0.122858 0.00000198923 0.122858 C -0.0678369 0.122858 -0.122846 0.0678493 -0.122846 0.0000103705 C -0.122846 -0.0678612 -0.0678369 -0.122838 0.00000198923 -0.122838 C 0.0678409 -0.122838 0.12285 -0.0678612 0.12285 0.0000103705 Z M 0.12285 0.0000103705 " transform="matrix(119.653816,0,0,119.653816,457.960699,477.526103)"/>
<path style="fill-rule:nonzero;fill:rgb(55.294118%,82.745098%,78.039216%);fill-opacity:1;stroke-width:0.0245707;stroke-linecap:butt;stroke-linejoin:miter;stroke:rgb(60%,60%,60%);stroke-opacity:0.8;stroke-miterlimit:10;" d="M 0.122839 0.000000916637 C 0.122839 0.0678399 0.067863 0.122849 -0.00000862082 0.122849 C -0.0678476 0.122849 -0.122857 0.0678399 -0.122857 0.000000916637 C -0.122857 -0.067838 -0.0678476 -0.122847 -0.00000862082 -0.122847 C 0.067863 -0.122847 0.122839 -0.067838 0.122839 0.000000916637 Z M 0.122839 0.000000916637 " transform="matrix(119.653816,0,0,119.653816,496.294,458.722547)"/>
<path style="fill-rule:nonzero;fill:rgb(55.294118%,82.745098%,78.039216%);fill-opacity:1;stroke-width:0.0245707;stroke-linecap:butt;stroke-linejoin:miter;stroke:rgb(60%,60%,60%);stroke-opacity:0.8;stroke-miterlimit:10;" d="M 0.122842 -0.0000082605 C 0.122842 0.0678633 0.0678655 0.12284 -0.00000608012 0.12284 C -0.067845 0.12284 -0.122854 0.0678633 -0.122854 -0.0000082605 C -0.122854 -0.0678472 -0.067845 -0.122856 -0.00000608012 -0.122856 C 0.0678655 -0.122856 0.122842 -0.0678472 0.122842 -0.0000082605 Z M 0.122842 -0.0000082605 " transform="matrix(119.653816,0,0,119.653816,204.860103,90.262707)"/>
<path style="fill-rule:nonzero;fill:rgb(55.294118%,82.745098%,78.039216%);fill-opacity:1;stroke-width:0.0245707;stroke-linecap:butt;stroke-linejoin:miter;stroke:rgb(60%,60%,60%);stroke-opacity:0.8;stroke-miterlimit:10;" d="M 0.122839 0.00000801422 C 0.122839 0.0678469 0.0678625 0.122856 -0.00000903757 0.122856 C -0.067848 0.122856 -0.122857 0.0678469 -0.122857 0.00000801422 C -0.122857 -0.0678636 -0.067848 -0.12284 -0.00000903757 -0.12284 C 0.0678625 -0.12284 0.122839 -0.0678636 0.122839 0.00000801422 Z M 0.122839 0.00000801422 " transform="matrix(119.653816,0,0,119.653816,245.610456,71.131854)"/>
<path style="fill-rule:nonzero;fill:rgb(55.294118%,82.745098%,78.039216%);fill-opacity:1;stroke-width:0.0245707;stroke-linecap:butt;stroke-linejoin:miter;stroke:rgb(60%,60%,60%);stroke-opacity:0.8;stroke-miterlimit:10;" d="M 0.122844 0.00000498527 C 0.122844 0.0678439 0.0678351 0.122853 -0.00000379834 0.122853 C -0.0678427 0.122853 -0.122852 0.0678439 -0.122852 0.00000498527 C -0.122852 -0.067834 -0.0678427 -0.122843 -0.00000379834 -0.122843 C 0.0678351 -0.122843 0.122844 -0.067834 0.122844 0.00000498527 Z M 0.122844 0.00000498527 " transform="matrix(119.653816,0,0,119.653816,345.355923,44.640028)"/>
<path style="fill-rule:nonzero;fill:rgb(55.294118%,82.745098%,78.039216%);fill-opacity:1;stroke-width:0.0245707;stroke-linecap:butt;stroke-linejoin:miter;stroke:rgb(60%,60%,60%);stroke-opacity:0.8;stroke-miterlimit:10;" d="M 0.122849 -0.00000675144 C 0.122849 0.0678648 0.0678401 0.122841 0.00000114277 0.122841 C -0.0678378 0.122841 -0.122847 0.0678648 -0.122847 -0.00000675144 C -0.122847 -0.0678457 -0.0678378 -0.122855 0.00000114277 -0.122855 C 0.0678401 -0.122855 0.122849 -0.0678457 0.122849 -0.00000675144 Z M 0.122849 -0.00000675144 " transform="matrix(119.653816,0,0,119.653816,457.117051,92.918777)"/>
<path style="fill-rule:nonzero;fill:rgb(55.294118%,82.745098%,78.039216%);fill-opacity:1;stroke-width:0.0245707;stroke-linecap:butt;stroke-linejoin:miter;stroke:rgb(60%,60%,60%);stroke-opacity:0.8;stroke-miterlimit:10;" d="M 0.122861 0.00000705062 C 0.122861 0.067846 0.0678524 0.122855 0.0000134527 0.122855 C -0.0678581 0.122855 -0.122867 0.067846 -0.122867 0.00000705062 C -0.122867 -0.0678645 -0.0678581 -0.122841 0.0000134527 -0.122841 C 0.0678524 -0.122841 0.122861 -0.0678645 0.122861 0.00000705062 Z M 0.122861 0.00000705062 " transform="matrix(119.653816,0,0,119.653816,412.381203,84.885875)"/>
<path style="fill-rule:nonzero;fill:rgb(55.294118%,82.745098%,78.039216%);fill-opacity:1;stroke-width:0.0245707;stroke-linecap:butt;stroke-linejoin:miter;stroke:rgb(60%,60%,60%);stroke-opacity:0.8;stroke-miterlimit:10;" d="M 0.122857 -0.00000505967 C 0.122857 0.0678339 0.0678484 0.122843 0.000009452 0.122843 C -0.0678621 0.122843 -0.122838 0.0678339 -0.122838 -0.00000505967 C -0.122838 -0.067844 -0.0678621 -0.122853 0.000009452 -0.122853 C 0.0678484 -0.122853 0.122857 -0.067844 0.122857 -0.00000505967 Z M 0.122857 -0.00000505967 " transform="matrix(119.653816,0,0,119.653816,341.8309,83.379512)"/>
<path style="fill-rule:nonzero;fill:rgb(55.294118%,82.745098%,78.039216%);fill-opacity:1;stroke-width:0.0245707;stroke-linecap:butt;stroke-linejoin:miter;stroke:rgb(60%,60%,60%);stroke-opacity:0.8;stroke-miterlimit:10;" d="M 0.122848 -0.00000896252 C 0.122848 0.0678626 0.0678394 0.122839 0.000000480187 0.122839 C -0.0678385 0.122839 -0.122847 0.0678626 -0.122847 -0.00000896252 C -0.122847 -0.0678479 -0.0678385 -0.122857 0.000000480187 -0.122857 C 0.0678394 -0.122857 0.122848 -0.0678479 0.122848 -0.00000896252 Z M 0.122848 -0.00000896252 " transform="matrix(119.653816,0,0,119.653816,565.449161,250.188572)"/>
<path style="fill-rule:nonzero;fill:rgb(55.294118%,82.745098%,78.039216%);fill-opacity:1;stroke-width:0.0245707;stroke-linecap:butt;stroke-linejoin:miter;stroke:rgb(60%,60%,60%);stroke-opacity:0.8;stroke-miterlimit:10;" d="M 0.122869 0.00000125182 C 0.122869 0.0678402 0.0678604 0.122849 -0.0000112173 0.122849 C -0.0678502 0.122849 -0.122859 0.0678402 -0.122859 0.00000125182 C -0.122859 -0.0678377 -0.0678502 -0.122847 -0.0000112173 -0.122847 C 0.0678604 -0.122847 0.122869 -0.0678377 0.122869 0.00000125182 Z M 0.122869 0.00000125182 " transform="matrix(119.653816,0,0,119.653816,556.614623,336.933444)"/>
</g>
</svg>
