<?xml version="1.0" encoding="UTF-8"?>
<svg xmlns="http://www.w3.org/2000/svg" xmlns:xlink="http://www.w3.org/1999/xlink" width="600pt" height="600pt" viewBox="0 0 600 600" version="1.1">
<defs>
<clipPath id="clip1">
  <path d="M 285.472656 501 L 429.347656 501 L 429.347656 600 L 285.472656 600 Z M 285.472656 501 "/>
</clipPath>
<clipPath id="clip2">
  <path d="M 285.472656 415.859375 L 429.347656 415.859375 L 429.347656 689.160156 L 285.472656 689.160156 Z M 285.472656 415.859375 L 414.535156 543.46875 C 414.535156 551.585938 407.953125 558.167969 399.832031 558.167969 C 391.714844 558.167969 385.132812 551.585938 385.132812 543.46875 C 385.132812 535.351562 391.714844 528.769531 399.832031 528.769531 C 407.953125 528.769531 414.535156 535.351562 414.535156 543.46875 Z M 285.472656 415.859375 "/>
</clipPath>
<clipPath id="clip3">
  <path d="M 285.472656 415.859375 L 429.347656 415.859375 L 429.347656 689.160156 L 285.472656 689.160156 Z M 285.472656 415.859375 L 329.691406 561.554688 C 329.691406 569.675781 323.109375 576.253906 314.992188 576.253906 C 306.871094 576.253906 300.292969 569.675781 300.292969 561.554688 C 300.292969 553.4375 306.871094 546.855469 314.992188 546.855469 C 323.109375 546.855469 329.691406 553.4375 329.691406 561.554688 Z M 285.472656 415.859375 "/>
</clipPath>
<clipPath id="clip4">
  <path d="M 358 501 L 476.777344 501 L 476.777344 597 L 358 597 Z M 358 501 "/>
</clipPath>
<clipPath id="clip5">
  <path d="M 357.9375 419.15625 L 476.777344 419.15625 L 476.777344 679.027344 L 357.9375 679.027344 Z M 357.9375 419.15625 L 414.535156 543.46875 C 414.535156 551.585938 407.953125 558.167969 399.832031 558.167969 C 391.714844 558.167969 385.132812 551.585938 385.132812 543.46875 C 385.132812 535.351562 391.714844 528.769531 399.832031 528.769531 C 407.953125 528.769531 414.535156 535.351562 414.535156 543.46875 Z M 357.9375 419.15625 "/>
</clipPath>
<clipPath id="clip6">
  <path d="M 357.9375 419.15625 L 476.777344 419.15625 L 476.777344 679.027344 L 357.9375 679.027344 Z M 357.9375 419.15625 L 449.585938 554.71875 C 449.585938 562.839844 443.003906 569.421875 434.886719 569.421875 C 426.769531 569.421875 420.1875 562.839844 420.1875 554.71875 C 420.1875 546.601562 426.769531 540.019531 434.886719 540.019531 C 443.003906 540.019531 449.585938 546.601562 449.585938 554.71875 Z M 357.9375 419.15625 "/>
</clipPath>
<clipPath id="clip7">
  <path d="M 358 469 L 494 469 L 494 586 L 358 586 Z M 358 469 "/>
</clipPath>
<clipPath id="clip8">
  <path d="M 329.371094 399.765625 L 522.5625 399.765625 L 522.5625 654.523438 L 329.371094 654.523438 Z M 329.371094 399.765625 L 414.535156 543.46875 C 414.535156 551.585938 407.953125 558.167969 399.832031 558.167969 C 391.714844 558.167969 385.132812 551.585938 385.132812 543.46875 C 385.132812 535.351562 391.714844 528.769531 399.832031 528.769531 C 407.953125 528.769531 414.535156 535.351562 414.535156 543.46875 Z M 329.371094 399.765625 "/>
</clipPath>
<clipPath id="clip9">
  <path d="M 329.371094 399.765625 L 522.5625 399.765625 L 522.5625 654.523438 L 329.371094 654.523438 Z M 329.371094 399.765625 L 466.804688 510.824219 C 466.804688 518.941406 460.222656 525.523438 452.105469 525.523438 C 443.988281 525.523438 437.40625 518.941406 437.40625 510.824219 C 437.40625 502.707031 443.988281 496.125 452.105469 496.125 C 460.222656 496.125 466.804688 502.707031 466.804688 510.824219 Z M 329.371094 399.765625 "/>
</clipPath>
<clipPath id="clip10">
  <path d="M 191 451 L 316 451 L 316 581 L 191 581 Z M 191 451 "/>
</clipPath>
<clipPath id="clip11">
  <path d="M 134.925781 405.535156 L 372.40625 405.535156 L 372.40625 625.992188 L 134.925781 625.992188 Z M 134.925781 405.535156 L 248.125 492.835938 C 248.125 500.953125 241.542969 507.535156 233.425781 507.535156 C 225.308594 507.535156 218.726562 500.953125 218.726562 492.835938 C 218.726562 484.714844 225.308594 478.132812 233.425781 478.132812 C 241.542969 478.132812 248.125 484.714844 248.125 492.835938 Z M 134.925781 405.535156 "/>
</clipPath>
<clipPath id="clip12">
  <path d="M 134.925781 405.535156 L 372.40625 405.535156 L 372.40625 625.992188 L 134.925781 625.992188 Z M 134.925781 405.535156 L 288.609375 538.695312 C 288.609375 546.816406 282.027344 553.398438 273.910156 553.398438 C 265.792969 553.398438 259.210938 546.816406 259.210938 538.695312 C 259.210938 530.578125 265.792969 523.996094 273.910156 523.996094 C 282.027344 523.996094 288.609375 530.578125 288.609375 538.695312 Z M 134.925781 405.535156 "/>
</clipPath>
<clipPath id="clip13">
  <path d="M 191 463.625 L 290 463.625 L 290 588.761719 L 191 588.761719 Z M 191 463.625 "/>
</clipPath>
<clipPath id="clip14">
  <path d="M 105.75 463.625 L 375.148438 463.625 L 375.148438 588.761719 L 105.75 588.761719 Z M 105.75 463.625 L 248.125 492.835938 C 248.125 500.953125 241.542969 507.535156 233.425781 507.535156 C 225.308594 507.535156 218.726562 500.953125 218.726562 492.835938 C 218.726562 484.714844 225.308594 478.132812 233.425781 478.132812 C 241.542969 478.132812 248.125 484.714844 248.125 492.835938 Z M 105.75 463.625 "/>
</clipPath>
<clipPath id="clip15">
  <path d="M 105.75 463.625 L 375.148438 463.625 L 375.148438 588.761719 L 105.75 588.761719 Z M 105.75 463.625 L 262.179688 559.554688 C 262.179688 567.671875 255.597656 574.253906 247.476562 574.253906 C 239.359375 574.253906 232.777344 567.671875 232.777344 559.554688 C 232.777344 551.433594 239.359375 544.855469 247.476562 544.855469 C 255.597656 544.855469 262.179688 551.433594 262.179688 559.554688 Z M 105.75 463.625 "/>
</clipPath>
<clipPath id="clip16">
  <path d="M 169 336.792969 L 276 336.792969 L 276 517.1875 L 169 517.1875 Z M 169 336.792969 "/>
</clipPath>
<clipPath id="clip17">
  <path d="M 82.386719 336.792969 L 362.019531 336.792969 L 362.019531 517.1875 L 82.386719 517.1875 Z M 82.386719 336.792969 L 248.125 492.835938 C 248.125 500.953125 241.542969 507.535156 233.425781 507.535156 C 225.308594 507.535156 218.726562 500.953125 218.726562 492.835938 C 218.726562 484.714844 225.308594 478.132812 233.425781 478.132812 C 241.542969 478.132812 248.125 484.714844 248.125 492.835938 Z M 82.386719 336.792969 "/>
</clipPath>
<clipPath id="clip18">
  <path d="M 82.386719 336.792969 L 362.019531 336.792969 L 362.019531 517.1875 L 82.386719 517.1875 Z M 82.386719 336.792969 L 225.683594 361.148438 C 225.683594 369.269531 219.105469 375.851562 210.984375 375.851562 C 202.867188 375.851562 196.285156 369.269531 196.285156 361.148438 C 196.285156 353.03125 202.867188 346.449219 210.984375 346.449219 C 219.105469 346.449219 225.683594 353.03125 225.683594 361.148438 Z M 82.386719 336.792969 "/>
</clipPath>
<clipPath id="clip19">
  <path d="M 232 497 L 357 497 L 357 600 L 232 600 Z M 232 497 "/>
</clipPath>
<clipPath id="clip20">
  <path d="M 208.988281 424.367188 L 379.910156 424.367188 L 379.910156 675.878906 L 208.988281 675.878906 Z M 208.988281 424.367188 L 288.609375 538.695312 C 288.609375 546.816406 282.027344 553.398438 273.910156 553.398438 C 265.792969 553.398438 259.210938 546.816406 259.210938 538.695312 C 259.210938 530.578125 265.792969 523.996094 273.910156 523.996094 C 282.027344 523.996094 288.609375 530.578125 288.609375 538.695312 Z M 208.988281 424.367188 "/>
</clipPath>
<clipPath id="clip21">
  <path d="M 208.988281 424.367188 L 379.910156 424.367188 L 379.910156 675.878906 L 208.988281 675.878906 Z M 208.988281 424.367188 L 329.691406 561.554688 C 329.691406 569.675781 323.109375 576.253906 314.992188 576.253906 C 306.871094 576.253906 300.292969 569.675781 300.292969 561.554688 C 300.292969 553.4375 306.871094 546.855469 314.992188 546.855469 C 323.109375 546.855469 329.691406 553.4375 329.691406 561.554688 Z M 208.988281 424.367188 "/>
</clipPath>
<clipPath id="clip22">
  <path d="M 240.761719 517 L 321.703125 517 L 321.703125 600 L 240.761719 600 Z M 240.761719 517 "/>
</clipPath>
<clipPath id="clip23">
  <path d="M 240.761719 429.199219 L 321.703125 429.199219 L 321.703125 691.90625 L 240.761719 691.90625 Z M 240.761719 429.199219 L 329.691406 561.554688 C 329.691406 569.675781 323.109375 576.253906 314.992188 576.253906 C 306.871094 576.253906 300.292969 569.675781 300.292969 561.554688 C 300.292969 553.4375 306.871094 546.855469 314.992188 546.855469 C 323.109375 546.855469 329.691406 553.4375 329.691406 561.554688 Z M 240.761719 429.199219 "/>
</clipPath>
<clipPath id="clip24">
  <path d="M 240.761719 429.199219 L 321.703125 429.199219 L 321.703125 691.90625 L 240.761719 691.90625 Z M 240.761719 429.199219 L 262.179688 559.554688 C 262.179688 567.671875 255.597656 574.253906 247.476562 574.253906 C 239.359375 574.253906 232.777344 567.671875 232.777344 559.554688 C 232.777344 551.433594 239.359375 544.855469 247.476562 544.855469 C 255.597656 544.855469 262.179688 551.433594 262.179688 559.554688 Z M 240.761719 429.199219 "/>
</clipPath>
<clipPath id="clip25">
  <path d="M 316 264.972656 L 403 264.972656 L 403 330.777344 L 316 330.777344 Z M 316 264.972656 "/>
</clipPath>
<clipPath id="clip26">
  <path d="M 227.921875 264.972656 L 490.894531 264.972656 L 490.894531 330.777344 L 227.921875 330.777344 Z M 227.921875 264.972656 L 372.832031 320.722656 C 372.832031 328.84375 366.25 335.425781 358.132812 335.425781 C 350.011719 335.425781 343.433594 328.84375 343.433594 320.722656 C 343.433594 312.605469 350.011719 306.023438 358.132812 306.023438 C 366.25 306.023438 372.832031 312.605469 372.832031 320.722656 Z M 227.921875 264.972656 "/>
</clipPath>
<clipPath id="clip27">
  <path d="M 227.921875 264.972656 L 490.894531 264.972656 L 490.894531 330.777344 L 227.921875 330.777344 Z M 227.921875 264.972656 L 375.386719 275.03125 C 375.386719 283.152344 368.808594 289.734375 360.6875 289.734375 C 352.570312 289.734375 345.988281 283.152344 345.988281 275.03125 C 345.988281 266.914062 352.570312 260.332031 360.6875 260.332031 C 368.808594 260.332031 375.386719 266.914062 375.386719 275.03125 Z M 227.921875 264.972656 "/>
</clipPath>
<clipPath id="clip28">
  <path d="M 289.992188 279 L 366.71875 279 L 366.71875 365 L 289.992188 365 Z M 289.992188 279 "/>
</clipPath>
<clipPath id="clip29">
  <path d="M 289.992188 190.4375 L 366.71875 190.4375 L 366.71875 453.644531 L 289.992188 453.644531 Z M 289.992188 190.4375 L 372.832031 320.722656 C 372.832031 328.84375 366.25 335.425781 358.132812 335.425781 C 350.011719 335.425781 343.433594 328.84375 343.433594 320.722656 C 343.433594 312.605469 350.011719 306.023438 358.132812 306.023438 C 366.25 306.023438 372.832031 312.605469 372.832031 320.722656 Z M 289.992188 190.4375 "/>
</clipPath>
<clipPath id="clip30">
  <path d="M 289.992188 190.4375 L 366.71875 190.4375 L 366.71875 453.644531 L 289.992188 453.644531 Z M 289.992188 190.4375 L 313.28125 323.363281 C 313.28125 331.480469 306.703125 338.0625 298.582031 338.0625 C 290.464844 338.0625 283.882812 331.480469 283.882812 323.363281 C 283.882812 315.246094 290.464844 308.664062 298.582031 308.664062 C 306.703125 308.664062 313.28125 315.246094 313.28125 323.363281 Z M 289.992188 190.4375 "/>
</clipPath>
<clipPath id="clip31">
  <path d="M 343.300781 275 L 414.53125 275 L 414.53125 363 L 343.300781 363 Z M 343.300781 275 "/>
</clipPath>
<clipPath id="clip32">
  <path d="M 343.300781 186.972656 L 414.53125 186.972656 L 414.53125 450.574219 L 343.300781 450.574219 Z M 343.300781 186.972656 L 372.832031 320.722656 C 372.832031 328.84375 366.25 335.425781 358.132812 335.425781 C 350.011719 335.425781 343.433594 328.84375 343.433594 320.722656 C 343.433594 312.605469 350.011719 306.023438 358.132812 306.023438 C 366.25 306.023438 372.832031 312.605469 372.832031 320.722656 Z M 343.300781 186.972656 "/>
</clipPath>
<clipPath id="clip33">
  <path d="M 343.300781 186.972656 L 414.53125 186.972656 L 414.53125 450.574219 L 343.300781 450.574219 Z M 343.300781 186.972656 L 414.40625 316.828125 C 414.40625 324.949219 407.824219 331.527344 399.703125 331.527344 C 391.585938 331.527344 385.003906 324.949219 385.003906 316.828125 C 385.003906 308.710938 391.585938 302.128906 399.703125 302.128906 C 407.824219 302.128906 414.40625 308.710938 414.40625 316.828125 Z M 343.300781 186.972656 "/>
</clipPath>
<clipPath id="clip34">
  <path d="M 393.484375 102 L 520.582031 102 L 520.582031 201 L 393.484375 201 Z M 393.484375 102 "/>
</clipPath>
<clipPath id="clip35">
  <path d="M 393.484375 16.847656 L 520.582031 16.847656 L 520.582031 286.066406 L 393.484375 286.066406 Z M 393.484375 16.847656 L 504.191406 144.109375 C 504.191406 152.230469 497.613281 158.8125 489.492188 158.8125 C 481.375 158.8125 474.792969 152.230469 474.792969 144.109375 C 474.792969 135.992188 481.375 129.410156 489.492188 129.410156 C 497.613281 129.410156 504.191406 135.992188 504.191406 144.109375 Z M 393.484375 16.847656 "/>
</clipPath>
<clipPath id="clip36">
  <path d="M 393.484375 16.847656 L 520.582031 16.847656 L 520.582031 286.066406 L 393.484375 286.066406 Z M 393.484375 16.847656 L 439.277344 158.808594 C 439.277344 166.929688 432.695312 173.511719 424.578125 173.511719 C 416.457031 173.511719 409.875 166.929688 409.875 158.808594 C 409.875 150.691406 416.457031 144.109375 424.578125 144.109375 C 432.695312 144.109375 439.277344 150.691406 439.277344 158.808594 Z M 393.484375 16.847656 "/>
</clipPath>
<clipPath id="clip37">
  <path d="M 319 117 L 467 117 L 467 317 L 319 317 Z M 319 117 "/>
</clipPath>
<clipPath id="clip38">
  <path d="M 246.042969 94.460938 L 539.21875 94.460938 L 539.21875 339.375 L 246.042969 339.375 Z M 246.042969 94.460938 L 375.386719 275.03125 C 375.386719 283.152344 368.808594 289.734375 360.6875 289.734375 C 352.570312 289.734375 345.988281 283.152344 345.988281 275.03125 C 345.988281 266.914062 352.570312 260.332031 360.6875 260.332031 C 368.808594 260.332031 375.386719 266.914062 375.386719 275.03125 Z M 246.042969 94.460938 "/>
</clipPath>
<clipPath id="clip39">
  <path d="M 246.042969 94.460938 L 539.21875 94.460938 L 539.21875 339.375 L 246.042969 339.375 Z M 246.042969 94.460938 L 439.277344 158.808594 C 439.277344 166.929688 432.695312 173.511719 424.578125 173.511719 C 416.457031 173.511719 409.875 166.929688 409.875 158.808594 C 409.875 150.691406 416.457031 144.109375 424.578125 144.109375 C 432.695312 144.109375 439.277344 150.691406 439.277344 158.808594 Z M 246.042969 94.460938 "/>
</clipPath>
<clipPath id="clip40">
  <path d="M 257 233 L 403 233 L 403 365 L 257 365 Z M 257 233 "/>
</clipPath>
<clipPath id="clip41">
  <path d="M 217.355469 171.492188 L 441.910156 171.492188 L 441.910156 426.898438 L 217.355469 426.898438 Z M 217.355469 171.492188 L 375.386719 275.03125 C 375.386719 283.152344 368.808594 289.734375 360.6875 289.734375 C 352.570312 289.734375 345.988281 283.152344 345.988281 275.03125 C 345.988281 266.914062 352.570312 260.332031 360.6875 260.332031 C 368.808594 260.332031 375.386719 266.914062 375.386719 275.03125 Z M 217.355469 171.492188 "/>
</clipPath>
<clipPath id="clip42">
  <path d="M 217.355469 171.492188 L 441.910156 171.492188 L 441.910156 426.898438 L 217.355469 426.898438 Z M 217.355469 171.492188 L 313.28125 323.363281 C 313.28125 331.480469 306.703125 338.0625 298.582031 338.0625 C 290.464844 338.0625 283.882812 331.480469 283.882812 323.363281 C 283.882812 315.246094 290.464844 308.664062 298.582031 308.664062 C 306.703125 308.664062 313.28125 315.246094 313.28125 323.363281 Z M 217.355469 171.492188 "/>
</clipPath>
<clipPath id="clip43">
  <path d="M 169 233 L 403 233 L 403 403 L 169 403 Z M 169 233 "/>
</clipPath>
<clipPath id="clip44">
  <path d="M 144.480469 161.597656 L 427.1875 161.597656 L 427.1875 474.578125 L 144.480469 474.578125 Z M 144.480469 161.597656 L 375.386719 275.03125 C 375.386719 283.152344 368.808594 289.734375 360.6875 289.734375 C 352.570312 289.734375 345.988281 283.152344 345.988281 275.03125 C 345.988281 266.914062 352.570312 260.332031 360.6875 260.332031 C 368.808594 260.332031 375.386719 266.914062 375.386719 275.03125 Z M 144.480469 161.597656 "/>
</clipPath>
<clipPath id="clip45">
  <path d="M 144.480469 161.597656 L 427.1875 161.597656 L 427.1875 474.578125 L 144.480469 474.578125 Z M 144.480469 161.597656 L 225.683594 361.148438 C 225.683594 369.269531 219.105469 375.851562 210.984375 375.851562 C 202.867188 375.851562 196.285156 369.269531 196.285156 361.148438 C 196.285156 353.03125 202.867188 346.449219 210.984375 346.449219 C 219.105469 346.449219 225.683594 353.03125 225.683594 361.148438 Z M 144.480469 161.597656 "/>
</clipPath>
<clipPath id="clip46">
  <path d="M 319 233 L 442 233 L 442 359 L 319 359 Z M 319 233 "/>
</clipPath>
<clipPath id="clip47">
  <path d="M 264.566406 185.109375 L 495.820312 185.109375 L 495.820312 406.746094 L 264.566406 406.746094 Z M 264.566406 185.109375 L 375.386719 275.03125 C 375.386719 283.152344 368.808594 289.734375 360.6875 289.734375 C 352.570312 289.734375 345.988281 283.152344 345.988281 275.03125 C 345.988281 266.914062 352.570312 260.332031 360.6875 260.332031 C 368.808594 260.332031 375.386719 266.914062 375.386719 275.03125 Z M 264.566406 185.109375 "/>
</clipPath>
<clipPath id="clip48">
  <path d="M 264.566406 185.109375 L 495.820312 185.109375 L 495.820312 406.746094 L 264.566406 406.746094 Z M 264.566406 185.109375 L 414.40625 316.828125 C 414.40625 324.949219 407.824219 331.527344 399.703125 331.527344 C 391.585938 331.527344 385.003906 324.949219 385.003906 316.828125 C 385.003906 308.710938 391.585938 302.128906 399.703125 302.128906 C 407.824219 302.128906 414.40625 308.710938 414.40625 316.828125 Z M 264.566406 185.109375 "/>
</clipPath>
<clipPath id="clip49">
  <path d="M 292 167 L 403 167 L 403 317 L 292 317 Z M 292 167 "/>
</clipPath>
<clipPath id="clip50">
  <path d="M 212.816406 158.0625 L 481.722656 158.0625 L 481.722656 325.9375 L 212.816406 325.9375 Z M 212.816406 158.0625 L 375.386719 275.03125 C 375.386719 283.152344 368.808594 289.734375 360.6875 289.734375 C 352.570312 289.734375 345.988281 283.152344 345.988281 275.03125 C 345.988281 266.914062 352.570312 260.332031 360.6875 260.332031 C 368.808594 260.332031 375.386719 266.914062 375.386719 275.03125 Z M 212.816406 158.0625 "/>
</clipPath>
<clipPath id="clip51">
  <path d="M 212.816406 158.0625 L 481.722656 158.0625 L 481.722656 325.9375 L 212.816406 325.9375 Z M 212.816406 158.0625 L 348.554688 208.972656 C 348.554688 217.09375 341.972656 223.675781 333.855469 223.675781 C 325.738281 223.675781 319.15625 217.09375 319.15625 208.972656 C 319.15625 200.855469 325.738281 194.273438 333.855469 194.273438 C 341.972656 194.273438 348.554688 200.855469 348.554688 208.972656 Z M 212.816406 158.0625 "/>
</clipPath>
<clipPath id="clip52">
  <path d="M 354.605469 233 L 490.015625 233 L 490.015625 320 L 354.605469 320 Z M 354.605469 233 "/>
</clipPath>
<clipPath id="clip53">
  <path d="M 354.605469 144.660156 L 490.015625 144.660156 L 490.015625 408.4375 L 354.605469 408.4375 Z M 354.605469 144.660156 L 375.386719 275.03125 C 375.386719 283.152344 368.808594 289.734375 360.6875 289.734375 C 352.570312 289.734375 345.988281 283.152344 345.988281 275.03125 C 345.988281 266.914062 352.570312 260.332031 360.6875 260.332031 C 368.808594 260.332031 375.386719 266.914062 375.386719 275.03125 Z M 354.605469 144.660156 "/>
</clipPath>
<clipPath id="clip54">
  <path d="M 354.605469 144.660156 L 490.015625 144.660156 L 490.015625 408.4375 L 354.605469 408.4375 Z M 354.605469 144.660156 L 498.636719 278.070312 C 498.636719 286.1875 492.054688 292.769531 483.9375 292.769531 C 475.816406 292.769531 469.238281 286.1875 469.238281 278.070312 C 469.238281 269.949219 475.816406 263.367188 483.9375 263.367188 C 492.054688 263.367188 498.636719 269.949219 498.636719 278.070312 Z M 354.605469 144.660156 "/>
</clipPath>
<clipPath id="clip55">
  <path d="M 343 41 L 467 41 L 467 201 L 343 201 Z M 343 41 "/>
</clipPath>
<clipPath id="clip56">
  <path d="M 269.363281 21.699219 L 540.589844 21.699219 L 540.589844 220.59375 L 269.363281 220.59375 Z M 269.363281 21.699219 L 439.277344 158.808594 C 439.277344 166.929688 432.695312 173.511719 424.578125 173.511719 C 416.457031 173.511719 409.875 166.929688 409.875 158.808594 C 409.875 150.691406 416.457031 144.109375 424.578125 144.109375 C 432.695312 144.109375 439.277344 150.691406 439.277344 158.808594 Z M 269.363281 21.699219 "/>
</clipPath>
<clipPath id="clip57">
  <path d="M 269.363281 21.699219 L 540.589844 21.699219 L 540.589844 220.59375 L 269.363281 220.59375 Z M 269.363281 21.699219 L 400.078125 83.488281 C 400.078125 91.605469 393.5 98.1875 385.378906 98.1875 C 377.261719 98.1875 370.679688 91.605469 370.679688 83.488281 C 370.679688 75.371094 377.261719 68.789062 385.378906 68.789062 C 393.5 68.789062 400.078125 75.371094 400.078125 83.488281 Z M 269.363281 21.699219 "/>
</clipPath>
<clipPath id="clip58">
  <path d="M 169 281 L 341 281 L 341 403 L 169 403 Z M 169 281 "/>
</clipPath>
<clipPath id="clip59">
  <path d="M 157.554688 203.378906 L 352.007812 203.378906 L 352.007812 481.128906 L 157.554688 481.128906 Z M 157.554688 203.378906 L 313.28125 323.363281 C 313.28125 331.480469 306.703125 338.0625 298.582031 338.0625 C 290.464844 338.0625 283.882812 331.480469 283.882812 323.363281 C 283.882812 315.246094 290.464844 308.664062 298.582031 308.664062 C 306.703125 308.664062 313.28125 315.246094 313.28125 323.363281 Z M 157.554688 203.378906 "/>
</clipPath>
<clipPath id="clip60">
  <path d="M 157.554688 203.378906 L 352.007812 203.378906 L 352.007812 481.128906 L 157.554688 481.128906 Z M 157.554688 203.378906 L 225.683594 361.148438 C 225.683594 369.269531 219.105469 375.851562 210.984375 375.851562 C 202.867188 375.851562 196.285156 369.269531 196.285156 361.148438 C 196.285156 353.03125 202.867188 346.449219 210.984375 346.449219 C 219.105469 346.449219 225.683594 353.03125 225.683594 361.148438 Z M 157.554688 203.378906 "/>
</clipPath>
<clipPath id="clip61">
  <path d="M 157.277344 318 L 216.558594 318 L 216.558594 403 L 157.277344 403 Z M 157.277344 318 "/>
</clipPath>
<clipPath id="clip62">
  <path d="M 157.277344 229.769531 L 216.558594 229.769531 L 216.558594 491.527344 L 157.277344 491.527344 Z M 157.277344 229.769531 L 225.683594 361.148438 C 225.683594 369.269531 219.105469 375.851562 210.984375 375.851562 C 202.867188 375.851562 196.285156 369.269531 196.285156 361.148438 C 196.285156 353.03125 202.867188 346.449219 210.984375 346.449219 C 219.105469 346.449219 225.683594 353.03125 225.683594 361.148438 Z M 157.277344 229.769531 "/>
</clipPath>
<clipPath id="clip63">
  <path d="M 157.277344 229.769531 L 216.558594 229.769531 L 216.558594 491.527344 L 157.277344 491.527344 Z M 157.277344 229.769531 L 177.554688 360.152344 C 177.554688 368.269531 170.972656 374.851562 162.855469 374.851562 C 154.734375 374.851562 148.152344 368.269531 148.152344 360.152344 C 148.152344 352.035156 154.734375 345.453125 162.855469 345.453125 C 170.972656 345.453125 177.554688 352.035156 177.554688 360.152344 Z M 157.277344 229.769531 "/>
</clipPath>
<clipPath id="clip64">
  <path d="M 49 236 L 253 236 L 253 403 L 49 403 Z M 49 236 "/>
</clipPath>
<clipPath id="clip65">
  <path d="M 15.523438 170.34375 L 286.496094 170.34375 L 286.496094 468.878906 L 15.523438 468.878906 Z M 15.523438 170.34375 L 225.683594 361.148438 C 225.683594 369.269531 219.105469 375.851562 210.984375 375.851562 C 202.867188 375.851562 196.285156 369.269531 196.285156 361.148438 C 196.285156 353.03125 202.867188 346.449219 210.984375 346.449219 C 219.105469 346.449219 225.683594 353.03125 225.683594 361.148438 Z M 15.523438 170.34375 "/>
</clipPath>
<clipPath id="clip66">
  <path d="M 15.523438 170.34375 L 286.496094 170.34375 L 286.496094 468.878906 L 15.523438 468.878906 Z M 15.523438 170.34375 L 105.738281 278.078125 C 105.738281 286.195312 99.15625 292.777344 91.039062 292.777344 C 82.917969 292.777344 76.339844 286.195312 76.339844 278.078125 C 76.339844 269.960938 82.917969 263.378906 91.039062 263.378906 C 99.15625 263.378906 105.738281 269.960938 105.738281 278.078125 Z M 15.523438 170.34375 "/>
</clipPath>
<clipPath id="clip67">
  <path d="M 85 319 L 253 319 L 253 472 L 85 472 Z M 85 319 "/>
</clipPath>
<clipPath id="clip68">
  <path d="M 42.851562 259.660156 L 294.773438 259.660156 L 294.773438 531.828125 L 42.851562 531.828125 Z M 42.851562 259.660156 L 225.683594 361.148438 C 225.683594 369.269531 219.105469 375.851562 210.984375 375.851562 C 202.867188 375.851562 196.285156 369.269531 196.285156 361.148438 C 196.285156 353.03125 202.867188 346.449219 210.984375 346.449219 C 219.105469 346.449219 225.683594 353.03125 225.683594 361.148438 Z M 42.851562 259.660156 "/>
</clipPath>
<clipPath id="clip69">
  <path d="M 42.851562 259.660156 L 294.773438 259.660156 L 294.773438 531.828125 L 42.851562 531.828125 Z M 42.851562 259.660156 L 141.34375 430.34375 C 141.34375 438.460938 134.761719 445.042969 126.644531 445.042969 C 118.527344 445.042969 111.945312 438.460938 111.945312 430.34375 C 111.945312 422.222656 118.527344 415.640625 126.644531 415.640625 C 134.761719 415.640625 141.34375 422.222656 141.34375 430.34375 Z M 42.851562 259.660156 "/>
</clipPath>
<clipPath id="clip70">
  <path d="M 343 14 L 457 14 L 457 126 L 343 126 Z M 343 14 "/>
</clipPath>
<clipPath id="clip71">
  <path d="M 296.644531 -40.957031 L 504.03125 -40.957031 L 504.03125 180.699219 L 296.644531 180.699219 Z M 296.644531 -40.957031 L 430 56.257812 C 430 64.375 423.417969 70.957031 415.300781 70.957031 C 407.179688 70.957031 400.597656 64.375 400.597656 56.257812 C 400.597656 48.140625 407.179688 41.558594 415.300781 41.558594 C 423.417969 41.558594 430 48.140625 430 56.257812 Z M 296.644531 -40.957031 "/>
</clipPath>
<clipPath id="clip72">
  <path d="M 296.644531 -40.957031 L 504.03125 -40.957031 L 504.03125 180.699219 L 296.644531 180.699219 Z M 296.644531 -40.957031 L 400.078125 83.488281 C 400.078125 91.605469 393.5 98.1875 385.378906 98.1875 C 377.261719 98.1875 370.679688 91.605469 370.679688 83.488281 C 370.679688 75.371094 377.261719 68.789062 385.378906 68.789062 C 393.5 68.789062 400.078125 75.371094 400.078125 83.488281 Z M 296.644531 -40.957031 "/>
</clipPath>
<clipPath id="clip73">
  <path d="M 279 10 L 427 10 L 427 126 L 279 126 Z M 279 10 "/>
</clipPath>
<clipPath id="clip74">
  <path d="M 261.5625 -65.667969 L 444.390625 -65.667969 L 444.390625 200.898438 L 261.5625 200.898438 Z M 261.5625 -65.667969 L 400.078125 83.488281 C 400.078125 91.605469 393.5 98.1875 385.378906 98.1875 C 377.261719 98.1875 370.679688 91.605469 370.679688 83.488281 C 370.679688 75.371094 377.261719 68.789062 385.378906 68.789062 C 393.5 68.789062 400.078125 75.371094 400.078125 83.488281 Z M 261.5625 -65.667969 "/>
</clipPath>
<clipPath id="clip75">
  <path d="M 261.5625 -65.667969 L 444.390625 -65.667969 L 444.390625 200.898438 L 261.5625 200.898438 Z M 261.5625 -65.667969 L 335.277344 51.746094 C 335.277344 59.867188 328.699219 66.445312 320.578125 66.445312 C 312.460938 66.445312 305.878906 59.867188 305.878906 51.746094 C 305.878906 43.628906 312.460938 37.046875 320.578125 37.046875 C 328.699219 37.046875 335.277344 43.628906 335.277344 51.746094 Z M 261.5625 -65.667969 "/>
</clipPath>
<clipPath id="clip76">
  <path d="M 0 236 L 133 236 L 133 357 L 0 357 Z M 0 236 "/>
</clipPath>
<clipPath id="clip77">
  <path d="M -37.460938 168.003906 L 163.046875 168.003906 L 163.046875 424.566406 L -37.460938 424.566406 Z M -37.460938 168.003906 L 105.738281 278.078125 C 105.738281 286.195312 99.15625 292.777344 91.039062 292.777344 C 82.917969 292.777344 76.339844 286.195312 76.339844 278.078125 C 76.339844 269.960938 82.917969 263.378906 91.039062 263.378906 C 99.15625 263.378906 105.738281 269.960938 105.738281 278.078125 Z M -37.460938 168.003906 "/>
</clipPath>
<clipPath id="clip78">
  <path d="M -37.460938 168.003906 L 163.046875 168.003906 L 163.046875 424.566406 L -37.460938 424.566406 Z M -37.460938 168.003906 L 49.25 314.496094 C 49.25 322.613281 42.667969 329.195312 34.550781 329.195312 C 26.433594 329.195312 19.851562 322.613281 19.851562 314.496094 C 19.851562 306.378906 26.433594 299.796875 34.550781 299.796875 C 42.667969 299.796875 49.25 306.378906 49.25 314.496094 Z M -37.460938 168.003906 "/>
</clipPath>
<clipPath id="clip79">
  <path d="M 1.296875 222 L 126.261719 222 L 126.261719 320 L 1.296875 320 Z M 1.296875 222 "/>
</clipPath>
<clipPath id="clip80">
  <path d="M 1.296875 137.550781 L 126.261719 137.550781 L 126.261719 404.328125 L 1.296875 404.328125 Z M 1.296875 137.550781 L 105.738281 278.078125 C 105.738281 286.195312 99.15625 292.777344 91.039062 292.777344 C 82.917969 292.777344 76.339844 286.195312 76.339844 278.078125 C 76.339844 269.960938 82.917969 263.378906 91.039062 263.378906 C 99.15625 263.378906 105.738281 269.960938 105.738281 278.078125 Z M 1.296875 137.550781 "/>
</clipPath>
<clipPath id="clip81">
  <path d="M 1.296875 137.550781 L 126.261719 137.550781 L 126.261719 404.328125 L 1.296875 404.328125 Z M 1.296875 137.550781 L 51.222656 263.804688 C 51.222656 271.925781 44.640625 278.503906 36.523438 278.503906 C 28.402344 278.503906 21.824219 271.925781 21.824219 263.804688 C 21.824219 255.6875 28.402344 249.105469 36.523438 249.105469 C 44.640625 249.105469 51.222656 255.6875 51.222656 263.804688 Z M 1.296875 137.550781 "/>
</clipPath>
<clipPath id="clip82">
  <path d="M 49 172.445312 L 137 172.445312 L 137 286.316406 L 49 286.316406 Z M 49 172.445312 "/>
</clipPath>
<clipPath id="clip83">
  <path d="M -39.261719 172.445312 L 225.390625 172.445312 L 225.390625 286.316406 L -39.261719 286.316406 Z M -39.261719 172.445312 L 105.738281 278.078125 C 105.738281 286.195312 99.15625 292.777344 91.039062 292.777344 C 82.917969 292.777344 76.339844 286.195312 76.339844 278.078125 C 76.339844 269.960938 82.917969 263.378906 91.039062 263.378906 C 99.15625 263.378906 105.738281 269.960938 105.738281 278.078125 Z M -39.261719 172.445312 "/>
</clipPath>
<clipPath id="clip84">
  <path d="M -39.261719 172.445312 L 225.390625 172.445312 L 225.390625 286.316406 L -39.261719 286.316406 Z M -39.261719 172.445312 L 109.792969 180.6875 C 109.792969 188.804688 103.214844 195.386719 95.09375 195.386719 C 86.976562 195.386719 80.394531 188.804688 80.394531 180.6875 C 80.394531 172.566406 86.976562 165.988281 95.09375 165.988281 C 103.214844 165.988281 109.792969 172.566406 109.792969 180.6875 Z M -39.261719 172.445312 "/>
</clipPath>
<clipPath id="clip85">
  <path d="M 504 257 L 600 257 L 600 389 L 504 389 Z M 504 257 "/>
</clipPath>
<clipPath id="clip86">
  <path d="M 424.871094 248.769531 L 686.863281 248.769531 L 686.863281 396.96875 L 424.871094 396.96875 Z M 424.871094 248.769531 L 580.148438 347.007812 C 580.148438 355.125 573.566406 361.707031 565.449219 361.707031 C 557.332031 361.707031 550.75 355.125 550.75 347.007812 C 550.75 338.890625 557.332031 332.308594 565.449219 332.308594 C 573.566406 332.308594 580.148438 338.890625 580.148438 347.007812 Z M 424.871094 248.769531 "/>
</clipPath>
<clipPath id="clip87">
  <path d="M 424.871094 248.769531 L 686.863281 248.769531 L 686.863281 396.96875 L 424.871094 396.96875 Z M 424.871094 248.769531 L 560.988281 298.734375 C 560.988281 306.851562 554.40625 313.433594 546.289062 313.433594 C 538.171875 313.433594 531.589844 306.851562 531.589844 298.734375 C 531.589844 290.613281 538.171875 284.03125 546.289062 284.03125 C 554.40625 284.03125 560.988281 290.613281 560.988281 298.734375 Z M 424.871094 248.769531 "/>
</clipPath>
<clipPath id="clip88">
  <path d="M 521 336.414062 L 600 336.414062 L 600 401.105469 L 521 401.105469 Z M 521 336.414062 "/>
</clipPath>
<clipPath id="clip89">
  <path d="M 432.652344 336.414062 L 695.625 336.414062 L 695.625 401.105469 L 432.652344 401.105469 Z M 432.652344 336.414062 L 580.148438 347.007812 C 580.148438 355.125 573.566406 361.707031 565.449219 361.707031 C 557.332031 361.707031 550.75 355.125 550.75 347.007812 C 550.75 338.890625 557.332031 332.308594 565.449219 332.308594 C 573.566406 332.308594 580.148438 338.890625 580.148438 347.007812 Z M 432.652344 336.414062 "/>
</clipPath>
<clipPath id="clip90">
  <path d="M 432.652344 336.414062 L 695.625 336.414062 L 695.625 401.105469 L 432.652344 401.105469 Z M 432.652344 336.414062 L 577.53125 390.515625 C 577.53125 398.632812 570.949219 405.214844 562.832031 405.214844 C 554.714844 405.214844 548.132812 398.632812 548.132812 390.515625 C 548.132812 382.398438 554.714844 375.816406 562.832031 375.816406 C 570.949219 375.816406 577.53125 382.398438 577.53125 390.515625 Z M 432.652344 336.414062 "/>
</clipPath>
<clipPath id="clip91">
  <path d="M 442 236 L 588 236 L 588 341 L 442 341 Z M 442 236 "/>
</clipPath>
<clipPath id="clip92">
  <path d="M 440.894531 154.132812 L 589.328125 154.132812 L 589.328125 422.667969 L 440.894531 422.667969 Z M 440.894531 154.132812 L 560.988281 298.734375 C 560.988281 306.851562 554.40625 313.433594 546.289062 313.433594 C 538.171875 313.433594 531.589844 306.851562 531.589844 298.734375 C 531.589844 290.613281 538.171875 284.03125 546.289062 284.03125 C 554.40625 284.03125 560.988281 290.613281 560.988281 298.734375 Z M 440.894531 154.132812 "/>
</clipPath>
<clipPath id="clip93">
  <path d="M 440.894531 154.132812 L 589.328125 154.132812 L 589.328125 422.667969 L 440.894531 422.667969 Z M 440.894531 154.132812 L 498.636719 278.070312 C 498.636719 286.1875 492.054688 292.769531 483.9375 292.769531 C 475.816406 292.769531 469.238281 286.1875 469.238281 278.070312 C 469.238281 269.949219 475.816406 263.367188 483.9375 263.367188 C 492.054688 263.367188 498.636719 269.949219 498.636719 278.070312 Z M 440.894531 154.132812 "/>
</clipPath>
<clipPath id="clip94">
  <path d="M 18 428 L 122 428 L 122 540 L 18 540 Z M 18 428 "/>
</clipPath>
<clipPath id="clip95">
  <path d="M -45.949219 392.378906 L 186.515625 392.378906 L 186.515625 574.980469 L -45.949219 574.980469 Z M -45.949219 392.378906 L 75.050781 497.445312 C 75.050781 505.5625 68.472656 512.144531 60.351562 512.144531 C 52.234375 512.144531 45.652344 505.5625 45.652344 497.445312 C 45.652344 489.324219 52.234375 482.746094 60.351562 482.746094 C 68.472656 482.746094 75.050781 489.324219 75.050781 497.445312 Z M -45.949219 392.378906 "/>
</clipPath>
<clipPath id="clip96">
  <path d="M -45.949219 392.378906 L 186.515625 392.378906 L 186.515625 574.980469 L -45.949219 574.980469 Z M -45.949219 392.378906 L 94.917969 469.917969 C 94.917969 478.035156 88.335938 484.617188 80.21875 484.617188 C 72.101562 484.617188 65.519531 478.035156 65.519531 469.917969 C 65.519531 461.796875 72.101562 455.214844 80.21875 455.214844 C 88.335938 455.214844 94.917969 461.796875 94.917969 469.917969 Z M -45.949219 392.378906 "/>
</clipPath>
<clipPath id="clip97">
  <path d="M 38 388 L 169 388 L 169 512 L 38 512 Z M 38 388 "/>
</clipPath>
<clipPath id="clip98">
  <path d="M -5.414062 330.394531 L 212.273438 330.394531 L 212.273438 569.863281 L -5.414062 569.863281 Z M -5.414062 330.394531 L 141.34375 430.34375 C 141.34375 438.460938 134.761719 445.042969 126.644531 445.042969 C 118.527344 445.042969 111.945312 438.460938 111.945312 430.34375 C 111.945312 422.222656 118.527344 415.640625 126.644531 415.640625 C 134.761719 415.640625 141.34375 422.222656 141.34375 430.34375 Z M -5.414062 330.394531 "/>
</clipPath>
<clipPath id="clip99">
  <path d="M -5.414062 330.394531 L 212.273438 330.394531 L 212.273438 569.863281 L -5.414062 569.863281 Z M -5.414062 330.394531 L 94.917969 469.917969 C 94.917969 478.035156 88.335938 484.617188 80.21875 484.617188 C 72.101562 484.617188 65.519531 478.035156 65.519531 469.917969 C 65.519531 461.796875 72.101562 455.214844 80.21875 455.214844 C 88.335938 455.214844 94.917969 461.796875 94.917969 469.917969 Z M -5.414062 330.394531 "/>
</clipPath>
<clipPath id="clip100">
  <path d="M 236.617188 0 L 359.972656 0 L 359.972656 94 L 236.617188 94 Z M 236.617188 0 "/>
</clipPath>
<clipPath id="clip101">
  <path d="M 236.617188 -86.640625 L 359.972656 -86.640625 L 359.972656 176.828125 L 236.617188 176.828125 Z M 236.617188 -86.640625 L 335.277344 51.746094 C 335.277344 59.867188 328.699219 66.445312 320.578125 66.445312 C 312.460938 66.445312 305.878906 59.867188 305.878906 51.746094 C 305.878906 43.628906 312.460938 37.046875 320.578125 37.046875 C 328.699219 37.046875 335.277344 43.628906 335.277344 51.746094 Z M 236.617188 -86.640625 "/>
</clipPath>
<clipPath id="clip102">
  <path d="M 236.617188 -86.640625 L 359.972656 -86.640625 L 359.972656 176.828125 L 236.617188 176.828125 Z M 236.617188 -86.640625 L 290.714844 38.445312 C 290.714844 46.5625 284.132812 53.144531 276.015625 53.144531 C 267.898438 53.144531 261.316406 46.5625 261.316406 38.445312 C 261.316406 30.324219 267.898438 23.746094 276.015625 23.746094 C 284.132812 23.746094 290.714844 30.324219 290.714844 38.445312 Z M 236.617188 -86.640625 "/>
</clipPath>
<clipPath id="clip103">
  <path d="M 20 113 L 137 113 L 137 223 L 20 223 Z M 20 113 "/>
</clipPath>
<clipPath id="clip104">
  <path d="M -18.886719 51.695312 L 176.351562 51.695312 L 176.351562 284.195312 L -18.886719 284.195312 Z M -18.886719 51.695312 L 77.074219 155.207031 C 77.074219 163.324219 70.496094 169.90625 62.375 169.90625 C 54.257812 169.90625 47.675781 163.324219 47.675781 155.207031 C 47.675781 147.089844 54.257812 140.507812 62.375 140.507812 C 70.496094 140.507812 77.074219 147.089844 77.074219 155.207031 Z M -18.886719 51.695312 "/>
</clipPath>
<clipPath id="clip105">
  <path d="M -18.886719 51.695312 L 176.351562 51.695312 L 176.351562 284.195312 L -18.886719 284.195312 Z M -18.886719 51.695312 L 109.792969 180.6875 C 109.792969 188.804688 103.214844 195.386719 95.09375 195.386719 C 86.976562 195.386719 80.394531 188.804688 80.394531 180.6875 C 80.394531 172.566406 86.976562 165.988281 95.09375 165.988281 C 103.214844 165.988281 109.792969 172.566406 109.792969 180.6875 Z M -18.886719 51.695312 "/>
</clipPath>
<clipPath id="clip106">
  <path d="M 87 37 L 195 37 L 195 160 L 87 160 Z M 87 37 "/>
</clipPath>
<clipPath id="clip107">
  <path d="M 17.871094 8.960938 L 263.878906 8.960938 L 263.878906 187.984375 L 17.871094 187.984375 Z M 17.871094 8.960938 L 167.496094 79.375 C 167.496094 87.492188 160.914062 94.074219 152.792969 94.074219 C 144.675781 94.074219 138.09375 87.492188 138.09375 79.375 C 138.09375 71.253906 144.675781 64.671875 152.792969 64.671875 C 160.914062 64.671875 167.496094 71.253906 167.496094 79.375 Z M 17.871094 8.960938 "/>
</clipPath>
<clipPath id="clip108">
  <path d="M 17.871094 8.960938 L 263.878906 8.960938 L 263.878906 187.984375 L 17.871094 187.984375 Z M 17.871094 8.960938 L 143.660156 117.574219 C 143.660156 125.691406 137.078125 132.273438 128.960938 132.273438 C 120.84375 132.273438 114.261719 125.691406 114.261719 117.574219 C 114.261719 109.453125 120.84375 102.871094 128.960938 102.871094 C 137.078125 102.871094 143.660156 109.453125 143.660156 117.574219 Z M 17.871094 8.960938 "/>
</clipPath>
<clipPath id="clip109">
  <path d="M 53 75 L 171 75 L 171 223 L 53 223 Z M 53 75 "/>
</clipPath>
<clipPath id="clip110">
  <path d="M -20.167969 54.359375 L 244.21875 54.359375 L 244.21875 243.898438 L -20.167969 243.898438 Z M -20.167969 54.359375 L 143.660156 117.574219 C 143.660156 125.691406 137.078125 132.273438 128.960938 132.273438 C 120.84375 132.273438 114.261719 125.691406 114.261719 117.574219 C 114.261719 109.453125 120.84375 102.871094 128.960938 102.871094 C 137.078125 102.871094 143.660156 109.453125 143.660156 117.574219 Z M -20.167969 54.359375 "/>
</clipPath>
<clipPath id="clip111">
  <path d="M -20.167969 54.359375 L 244.21875 54.359375 L 244.21875 243.898438 L -20.167969 243.898438 Z M -20.167969 54.359375 L 109.792969 180.6875 C 109.792969 188.804688 103.214844 195.386719 95.09375 195.386719 C 86.976562 195.386719 80.394531 188.804688 80.394531 180.6875 C 80.394531 172.566406 86.976562 165.988281 95.09375 165.988281 C 103.214844 165.988281 109.792969 172.566406 109.792969 180.6875 Z M -20.167969 54.359375 "/>
</clipPath>
</defs>
<g id="surface801">
<g clip-path="url(#clip1)" clip-rule="nonzero">
<g clip-path="url(#clip2)" clip-rule="evenodd">
<g clip-path="url(#clip3)" clip-rule="evenodd">
<path style="fill:none;stroke-width:0.0230642;stroke-linecap:butt;stroke-linejoin:miter;stroke:rgb(17.96875%,20.3125%,21.09375%);stroke-opacity:0.8;stroke-miterlimit:10;" d="M 3.823283 4.951841 L 3.157711 5.093726 " transform="matrix(127.469247,0,0,127.469247,-87.518917,-87.738742)"/>
</g>
</g>
</g>
<g clip-path="url(#clip4)" clip-rule="nonzero">
<g clip-path="url(#clip5)" clip-rule="evenodd">
<g clip-path="url(#clip6)" clip-rule="evenodd">
<path style="fill:none;stroke-width:0.0230642;stroke-linecap:butt;stroke-linejoin:miter;stroke:rgb(17.96875%,20.3125%,21.09375%);stroke-opacity:0.8;stroke-miterlimit:10;" d="M 3.823283 4.951841 L 4.098288 5.040098 " transform="matrix(127.469247,0,0,127.469247,-87.518917,-87.738742)"/>
</g>
</g>
</g>
<g clip-path="url(#clip7)" clip-rule="nonzero">
<g clip-path="url(#clip8)" clip-rule="evenodd">
<g clip-path="url(#clip9)" clip-rule="evenodd">
<path style="fill:none;stroke-width:0.0230642;stroke-linecap:butt;stroke-linejoin:miter;stroke:rgb(17.96875%,20.3125%,21.09375%);stroke-opacity:0.8;stroke-miterlimit:10;" d="M 3.823283 4.951841 L 4.233369 4.695744 " transform="matrix(127.469247,0,0,127.469247,-87.518917,-87.738742)"/>
</g>
</g>
</g>
<g clip-path="url(#clip10)" clip-rule="nonzero">
<g clip-path="url(#clip11)" clip-rule="evenodd">
<g clip-path="url(#clip12)" clip-rule="evenodd">
<path style="fill:none;stroke-width:0.0230642;stroke-linecap:butt;stroke-linejoin:miter;stroke:rgb(17.96875%,20.3125%,21.09375%);stroke-opacity:0.8;stroke-miterlimit:10;" d="M 2.517821 4.554625 L 2.835422 4.914394 " transform="matrix(127.469247,0,0,127.469247,-87.518917,-87.738742)"/>
</g>
</g>
</g>
<g clip-path="url(#clip13)" clip-rule="nonzero">
<g clip-path="url(#clip14)" clip-rule="evenodd">
<g clip-path="url(#clip15)" clip-rule="evenodd">
<path style="fill:none;stroke-width:0.0230642;stroke-linecap:butt;stroke-linejoin:miter;stroke:rgb(17.96875%,20.3125%,21.09375%);stroke-opacity:0.8;stroke-miterlimit:10;" d="M 2.517821 4.554625 L 2.628049 5.078036 " transform="matrix(127.469247,0,0,127.469247,-87.518917,-87.738742)"/>
</g>
</g>
</g>
<g clip-path="url(#clip16)" clip-rule="nonzero">
<g clip-path="url(#clip17)" clip-rule="evenodd">
<g clip-path="url(#clip18)" clip-rule="evenodd">
<path style="fill:none;stroke-width:0.0230642;stroke-linecap:butt;stroke-linejoin:miter;stroke:rgb(17.96875%,20.3125%,21.09375%);stroke-opacity:0.8;stroke-miterlimit:10;" d="M 2.517821 4.554625 L 2.341767 3.521533 " transform="matrix(127.469247,0,0,127.469247,-87.518917,-87.738742)"/>
</g>
</g>
</g>
<g clip-path="url(#clip19)" clip-rule="nonzero">
<g clip-path="url(#clip20)" clip-rule="evenodd">
<g clip-path="url(#clip21)" clip-rule="evenodd">
<path style="fill:none;stroke-width:0.0230642;stroke-linecap:butt;stroke-linejoin:miter;stroke:rgb(17.96875%,20.3125%,21.09375%);stroke-opacity:0.8;stroke-miterlimit:10;" d="M 2.835422 4.914394 L 3.157711 5.093726 " transform="matrix(127.469247,0,0,127.469247,-87.518917,-87.738742)"/>
</g>
</g>
</g>
<g clip-path="url(#clip22)" clip-rule="nonzero">
<g clip-path="url(#clip23)" clip-rule="evenodd">
<g clip-path="url(#clip24)" clip-rule="evenodd">
<path style="fill:none;stroke-width:0.0230642;stroke-linecap:butt;stroke-linejoin:miter;stroke:rgb(17.96875%,20.3125%,21.09375%);stroke-opacity:0.8;stroke-miterlimit:10;" d="M 3.157711 5.093726 L 2.628049 5.078036 " transform="matrix(127.469247,0,0,127.469247,-87.518917,-87.738742)"/>
</g>
</g>
</g>
<g clip-path="url(#clip25)" clip-rule="nonzero">
<g clip-path="url(#clip26)" clip-rule="evenodd">
<g clip-path="url(#clip27)" clip-rule="evenodd">
<path style="fill:none;stroke-width:0.0230642;stroke-linecap:butt;stroke-linejoin:miter;stroke:rgb(17.96875%,20.3125%,21.09375%);stroke-opacity:0.8;stroke-miterlimit:10;" d="M 3.496151 3.204392 L 3.516193 2.845941 " transform="matrix(127.469247,0,0,127.469247,-87.518917,-87.738742)"/>
</g>
</g>
</g>
<g clip-path="url(#clip28)" clip-rule="nonzero">
<g clip-path="url(#clip29)" clip-rule="evenodd">
<g clip-path="url(#clip30)" clip-rule="evenodd">
<path style="fill:none;stroke-width:0.0230642;stroke-linecap:butt;stroke-linejoin:miter;stroke:rgb(17.96875%,20.3125%,21.09375%);stroke-opacity:0.8;stroke-miterlimit:10;" d="M 3.496151 3.204392 L 3.028973 3.225107 " transform="matrix(127.469247,0,0,127.469247,-87.518917,-87.738742)"/>
</g>
</g>
</g>
<g clip-path="url(#clip31)" clip-rule="nonzero">
<g clip-path="url(#clip32)" clip-rule="evenodd">
<g clip-path="url(#clip33)" clip-rule="evenodd">
<path style="fill:none;stroke-width:0.0230642;stroke-linecap:butt;stroke-linejoin:miter;stroke:rgb(17.96875%,20.3125%,21.09375%);stroke-opacity:0.8;stroke-miterlimit:10;" d="M 3.496151 3.204392 L 3.822271 3.173839 " transform="matrix(127.469247,0,0,127.469247,-87.518917,-87.738742)"/>
</g>
</g>
</g>
<g clip-path="url(#clip34)" clip-rule="nonzero">
<g clip-path="url(#clip35)" clip-rule="evenodd">
<g clip-path="url(#clip36)" clip-rule="evenodd">
<path style="fill:none;stroke-width:0.0230642;stroke-linecap:butt;stroke-linejoin:miter;stroke:rgb(17.96875%,20.3125%,21.09375%);stroke-opacity:0.8;stroke-miterlimit:10;" d="M 4.526669 1.818855 L 4.017416 1.934171 " transform="matrix(127.469247,0,0,127.469247,-87.518917,-87.738742)"/>
</g>
</g>
</g>
<g clip-path="url(#clip37)" clip-rule="nonzero">
<g clip-path="url(#clip38)" clip-rule="evenodd">
<g clip-path="url(#clip39)" clip-rule="evenodd">
<path style="fill:none;stroke-width:0.0230642;stroke-linecap:butt;stroke-linejoin:miter;stroke:rgb(17.96875%,20.3125%,21.09375%);stroke-opacity:0.8;stroke-miterlimit:10;" d="M 3.516193 2.845941 L 4.017416 1.934171 " transform="matrix(127.469247,0,0,127.469247,-87.518917,-87.738742)"/>
</g>
</g>
</g>
<g clip-path="url(#clip40)" clip-rule="nonzero">
<g clip-path="url(#clip41)" clip-rule="evenodd">
<g clip-path="url(#clip42)" clip-rule="evenodd">
<path style="fill:none;stroke-width:0.0230642;stroke-linecap:butt;stroke-linejoin:miter;stroke:rgb(17.96875%,20.3125%,21.09375%);stroke-opacity:0.8;stroke-miterlimit:10;" d="M 3.516193 2.845941 L 3.028973 3.225107 " transform="matrix(127.469247,0,0,127.469247,-87.518917,-87.738742)"/>
</g>
</g>
</g>
<g clip-path="url(#clip43)" clip-rule="nonzero">
<g clip-path="url(#clip44)" clip-rule="evenodd">
<g clip-path="url(#clip45)" clip-rule="evenodd">
<path style="fill:none;stroke-width:0.0230642;stroke-linecap:butt;stroke-linejoin:miter;stroke:rgb(17.96875%,20.3125%,21.09375%);stroke-opacity:0.8;stroke-miterlimit:10;" d="M 3.516193 2.845941 L 2.341767 3.521533 " transform="matrix(127.469247,0,0,127.469247,-87.518917,-87.738742)"/>
</g>
</g>
</g>
<g clip-path="url(#clip46)" clip-rule="nonzero">
<g clip-path="url(#clip47)" clip-rule="evenodd">
<g clip-path="url(#clip48)" clip-rule="evenodd">
<path style="fill:none;stroke-width:0.0230642;stroke-linecap:butt;stroke-linejoin:miter;stroke:rgb(17.96875%,20.3125%,21.09375%);stroke-opacity:0.8;stroke-miterlimit:10;" d="M 3.516193 2.845941 L 3.822271 3.173839 " transform="matrix(127.469247,0,0,127.469247,-87.518917,-87.738742)"/>
</g>
</g>
</g>
<g clip-path="url(#clip49)" clip-rule="nonzero">
<g clip-path="url(#clip50)" clip-rule="evenodd">
<g clip-path="url(#clip51)" clip-rule="evenodd">
<path style="fill:none;stroke-width:0.0230642;stroke-linecap:butt;stroke-linejoin:miter;stroke:rgb(17.96875%,20.3125%,21.09375%);stroke-opacity:0.8;stroke-miterlimit:10;" d="M 3.516193 2.845941 L 3.305694 2.32771 " transform="matrix(127.469247,0,0,127.469247,-87.518917,-87.738742)"/>
</g>
</g>
</g>
<g clip-path="url(#clip52)" clip-rule="nonzero">
<g clip-path="url(#clip53)" clip-rule="evenodd">
<g clip-path="url(#clip54)" clip-rule="evenodd">
<path style="fill:none;stroke-width:0.0230642;stroke-linecap:butt;stroke-linejoin:miter;stroke:rgb(17.96875%,20.3125%,21.09375%);stroke-opacity:0.8;stroke-miterlimit:10;" d="M 3.516193 2.845941 L 4.483092 2.869783 " transform="matrix(127.469247,0,0,127.469247,-87.518917,-87.738742)"/>
</g>
</g>
</g>
<g clip-path="url(#clip55)" clip-rule="nonzero">
<g clip-path="url(#clip56)" clip-rule="evenodd">
<g clip-path="url(#clip57)" clip-rule="evenodd">
<path style="fill:none;stroke-width:0.0230642;stroke-linecap:butt;stroke-linejoin:miter;stroke:rgb(17.96875%,20.3125%,21.09375%);stroke-opacity:0.8;stroke-miterlimit:10;" d="M 4.017416 1.934171 L 3.709897 1.343281 " transform="matrix(127.469247,0,0,127.469247,-87.518917,-87.738742)"/>
</g>
</g>
</g>
<g clip-path="url(#clip58)" clip-rule="nonzero">
<g clip-path="url(#clip59)" clip-rule="evenodd">
<g clip-path="url(#clip60)" clip-rule="evenodd">
<path style="fill:none;stroke-width:0.0230642;stroke-linecap:butt;stroke-linejoin:miter;stroke:rgb(17.96875%,20.3125%,21.09375%);stroke-opacity:0.8;stroke-miterlimit:10;" d="M 3.028973 3.225107 L 2.341767 3.521533 " transform="matrix(127.469247,0,0,127.469247,-87.518917,-87.738742)"/>
</g>
</g>
</g>
<g clip-path="url(#clip61)" clip-rule="nonzero">
<g clip-path="url(#clip62)" clip-rule="evenodd">
<g clip-path="url(#clip63)" clip-rule="evenodd">
<path style="fill:none;stroke-width:0.0230642;stroke-linecap:butt;stroke-linejoin:miter;stroke:rgb(17.96875%,20.3125%,21.09375%);stroke-opacity:0.8;stroke-miterlimit:10;" d="M 2.341767 3.521533 L 1.964194 3.513719 " transform="matrix(127.469247,0,0,127.469247,-87.518917,-87.738742)"/>
</g>
</g>
</g>
<g clip-path="url(#clip64)" clip-rule="nonzero">
<g clip-path="url(#clip65)" clip-rule="evenodd">
<g clip-path="url(#clip66)" clip-rule="evenodd">
<path style="fill:none;stroke-width:0.0230642;stroke-linecap:butt;stroke-linejoin:miter;stroke:rgb(17.96875%,20.3125%,21.09375%);stroke-opacity:0.8;stroke-miterlimit:10;" d="M 2.341767 3.521533 L 1.400793 2.869844 " transform="matrix(127.469247,0,0,127.469247,-87.518917,-87.738742)"/>
</g>
</g>
</g>
<g clip-path="url(#clip67)" clip-rule="nonzero">
<g clip-path="url(#clip68)" clip-rule="evenodd">
<g clip-path="url(#clip69)" clip-rule="evenodd">
<path style="fill:none;stroke-width:0.0230642;stroke-linecap:butt;stroke-linejoin:miter;stroke:rgb(17.96875%,20.3125%,21.09375%);stroke-opacity:0.8;stroke-miterlimit:10;" d="M 2.341767 3.521533 L 1.680119 4.064372 " transform="matrix(127.469247,0,0,127.469247,-87.518917,-87.738742)"/>
</g>
</g>
</g>
<g clip-path="url(#clip70)" clip-rule="nonzero">
<g clip-path="url(#clip71)" clip-rule="evenodd">
<g clip-path="url(#clip72)" clip-rule="evenodd">
<path style="fill:none;stroke-width:0.0230642;stroke-linecap:butt;stroke-linejoin:miter;stroke:rgb(17.96875%,20.3125%,21.09375%);stroke-opacity:0.8;stroke-miterlimit:10;" d="M 3.944635 1.129657 L 3.709897 1.343281 " transform="matrix(127.469247,0,0,127.469247,-87.518917,-87.738742)"/>
</g>
</g>
</g>
<g clip-path="url(#clip73)" clip-rule="nonzero">
<g clip-path="url(#clip74)" clip-rule="evenodd">
<g clip-path="url(#clip75)" clip-rule="evenodd">
<path style="fill:none;stroke-width:0.0230642;stroke-linecap:butt;stroke-linejoin:miter;stroke:rgb(17.96875%,20.3125%,21.09375%);stroke-opacity:0.8;stroke-miterlimit:10;" d="M 3.709897 1.343281 L 3.201533 1.094263 " transform="matrix(127.469247,0,0,127.469247,-87.518917,-87.738742)"/>
</g>
</g>
</g>
<g clip-path="url(#clip76)" clip-rule="nonzero">
<g clip-path="url(#clip77)" clip-rule="evenodd">
<g clip-path="url(#clip78)" clip-rule="evenodd">
<path style="fill:none;stroke-width:0.0230642;stroke-linecap:butt;stroke-linejoin:miter;stroke:rgb(17.96875%,20.3125%,21.09375%);stroke-opacity:0.8;stroke-miterlimit:10;" d="M 1.400793 2.869844 L 0.95764 3.155544 " transform="matrix(127.469247,0,0,127.469247,-87.518917,-87.738742)"/>
</g>
</g>
</g>
<g clip-path="url(#clip79)" clip-rule="nonzero">
<g clip-path="url(#clip80)" clip-rule="evenodd">
<g clip-path="url(#clip81)" clip-rule="evenodd">
<path style="fill:none;stroke-width:0.0230642;stroke-linecap:butt;stroke-linejoin:miter;stroke:rgb(17.96875%,20.3125%,21.09375%);stroke-opacity:0.8;stroke-miterlimit:10;" d="M 1.400793 2.869844 L 0.973116 2.757869 " transform="matrix(127.469247,0,0,127.469247,-87.518917,-87.738742)"/>
</g>
</g>
</g>
<g clip-path="url(#clip82)" clip-rule="nonzero">
<g clip-path="url(#clip83)" clip-rule="evenodd">
<g clip-path="url(#clip84)" clip-rule="evenodd">
<path style="fill:none;stroke-width:0.0230642;stroke-linecap:butt;stroke-linejoin:miter;stroke:rgb(17.96875%,20.3125%,21.09375%);stroke-opacity:0.8;stroke-miterlimit:10;" d="M 1.400793 2.869844 L 1.432602 2.105812 " transform="matrix(127.469247,0,0,127.469247,-87.518917,-87.738742)"/>
</g>
</g>
</g>
<g clip-path="url(#clip85)" clip-rule="nonzero">
<g clip-path="url(#clip86)" clip-rule="evenodd">
<g clip-path="url(#clip87)" clip-rule="evenodd">
<path style="fill:none;stroke-width:0.0230642;stroke-linecap:butt;stroke-linejoin:miter;stroke:rgb(17.96875%,20.3125%,21.09375%);stroke-opacity:0.8;stroke-miterlimit:10;" d="M 5.122554 3.4106 L 4.972242 3.031893 " transform="matrix(127.469247,0,0,127.469247,-87.518917,-87.738742)"/>
</g>
</g>
</g>
<g clip-path="url(#clip88)" clip-rule="nonzero">
<g clip-path="url(#clip89)" clip-rule="evenodd">
<g clip-path="url(#clip90)" clip-rule="evenodd">
<path style="fill:none;stroke-width:0.0230642;stroke-linecap:butt;stroke-linejoin:miter;stroke:rgb(17.96875%,20.3125%,21.09375%);stroke-opacity:0.8;stroke-miterlimit:10;" d="M 5.122554 3.4106 L 5.102022 3.75192 " transform="matrix(127.469247,0,0,127.469247,-87.518917,-87.738742)"/>
</g>
</g>
</g>
<g clip-path="url(#clip91)" clip-rule="nonzero">
<g clip-path="url(#clip92)" clip-rule="evenodd">
<g clip-path="url(#clip93)" clip-rule="evenodd">
<path style="fill:none;stroke-width:0.0230642;stroke-linecap:butt;stroke-linejoin:miter;stroke:rgb(17.96875%,20.3125%,21.09375%);stroke-opacity:0.8;stroke-miterlimit:10;" d="M 4.972242 3.031893 L 4.483092 2.869783 " transform="matrix(127.469247,0,0,127.469247,-87.518917,-87.738742)"/>
</g>
</g>
</g>
<g clip-path="url(#clip94)" clip-rule="nonzero">
<g clip-path="url(#clip95)" clip-rule="evenodd">
<g clip-path="url(#clip96)" clip-rule="evenodd">
<path style="fill:none;stroke-width:0.0230642;stroke-linecap:butt;stroke-linejoin:miter;stroke:rgb(17.96875%,20.3125%,21.09375%);stroke-opacity:0.8;stroke-miterlimit:10;" d="M 1.160048 4.590786 L 1.315907 4.374833 " transform="matrix(127.469247,0,0,127.469247,-87.518917,-87.738742)"/>
</g>
</g>
</g>
<g clip-path="url(#clip97)" clip-rule="nonzero">
<g clip-path="url(#clip98)" clip-rule="evenodd">
<g clip-path="url(#clip99)" clip-rule="evenodd">
<path style="fill:none;stroke-width:0.0230642;stroke-linecap:butt;stroke-linejoin:miter;stroke:rgb(17.96875%,20.3125%,21.09375%);stroke-opacity:0.8;stroke-miterlimit:10;" d="M 1.680119 4.064372 L 1.315907 4.374833 " transform="matrix(127.469247,0,0,127.469247,-87.518917,-87.738742)"/>
</g>
</g>
</g>
<g clip-path="url(#clip100)" clip-rule="nonzero">
<g clip-path="url(#clip101)" clip-rule="evenodd">
<g clip-path="url(#clip102)" clip-rule="evenodd">
<path style="fill:none;stroke-width:0.0230642;stroke-linecap:butt;stroke-linejoin:miter;stroke:rgb(17.96875%,20.3125%,21.09375%);stroke-opacity:0.8;stroke-miterlimit:10;" d="M 3.201533 1.094263 L 2.851939 0.989918 " transform="matrix(127.469247,0,0,127.469247,-87.518917,-87.738742)"/>
</g>
</g>
</g>
<g clip-path="url(#clip103)" clip-rule="nonzero">
<g clip-path="url(#clip104)" clip-rule="evenodd">
<g clip-path="url(#clip105)" clip-rule="evenodd">
<path style="fill:none;stroke-width:0.0230642;stroke-linecap:butt;stroke-linejoin:miter;stroke:rgb(17.96875%,20.3125%,21.09375%);stroke-opacity:0.8;stroke-miterlimit:10;" d="M 1.175922 1.905917 L 1.432602 2.105812 " transform="matrix(127.469247,0,0,127.469247,-87.518917,-87.738742)"/>
</g>
</g>
</g>
<g clip-path="url(#clip106)" clip-rule="nonzero">
<g clip-path="url(#clip107)" clip-rule="evenodd">
<g clip-path="url(#clip108)" clip-rule="evenodd">
<path style="fill:none;stroke-width:0.0230642;stroke-linecap:butt;stroke-linejoin:miter;stroke:rgb(17.96875%,20.3125%,21.09375%);stroke-opacity:0.8;stroke-miterlimit:10;" d="M 1.885254 1.311012 L 1.698291 1.610686 " transform="matrix(127.469247,0,0,127.469247,-87.518917,-87.738742)"/>
</g>
</g>
</g>
<g clip-path="url(#clip109)" clip-rule="nonzero">
<g clip-path="url(#clip110)" clip-rule="evenodd">
<g clip-path="url(#clip111)" clip-rule="evenodd">
<path style="fill:none;stroke-width:0.0230642;stroke-linecap:butt;stroke-linejoin:miter;stroke:rgb(17.96875%,20.3125%,21.09375%);stroke-opacity:0.8;stroke-miterlimit:10;" d="M 1.698291 1.610686 L 1.432602 2.105812 " transform="matrix(127.469247,0,0,127.469247,-87.518917,-87.738742)"/>
</g>
</g>
</g>
<path style="fill-rule:nonzero;fill:rgb(100%,92.941176%,43.529412%);fill-opacity:1;stroke-width:0.0230642;stroke-linecap:butt;stroke-linejoin:miter;stroke:rgb(60%,60%,60%);stroke-opacity:0.8;stroke-miterlimit:10;" d="M 0.115334 0.00000198564 C 0.115334 0.0636816 0.0636975 0.115318 -0.0000126923 0.115318 C -0.0636923 0.115318 -0.115328 0.0636816 -0.115328 0.00000198564 C -0.115328 -0.0636776 -0.0636923 -0.115314 -0.0000126923 -0.115314 C 0.0636975 -0.115314 0.115334 -0.0636776 0.115334 0.00000198564 Z M 0.115334 0.00000198564 " transform="matrix(127.469247,0,0,127.469247,399.833649,543.468497)"/>
<path style="fill-rule:nonzero;fill:rgb(100%,92.941176%,43.529412%);fill-opacity:1;stroke-width:0.0230642;stroke-linecap:butt;stroke-linejoin:miter;stroke:rgb(60%,60%,60%);stroke-opacity:0.8;stroke-miterlimit:10;" d="M 0.115312 0.0000125709 C 0.115312 0.0636921 0.0636763 0.115328 -0.00000330469 0.115328 C -0.0636829 0.115328 -0.115319 0.0636921 -0.115319 0.0000125709 C -0.115319 -0.0636976 -0.0636829 -0.115334 -0.00000330469 -0.115334 C 0.0636763 -0.115334 0.115312 -0.0636976 0.115312 0.0000125709 Z M 0.115312 0.0000125709 " transform="matrix(127.469247,0,0,127.469247,233.426202,492.834335)"/>
<path style="fill-rule:nonzero;fill:rgb(100%,92.941176%,43.529412%);fill-opacity:1;stroke-width:0.0230642;stroke-linecap:butt;stroke-linejoin:miter;stroke:rgb(60%,60%,60%);stroke-opacity:0.8;stroke-miterlimit:10;" d="M 0.115313 -0.0000108561 C 0.115313 0.0636994 0.0636765 0.115336 -0.00000307953 0.115336 C -0.0636827 0.115336 -0.115319 0.0636994 -0.115319 -0.0000108561 C -0.115319 -0.0636904 -0.0636827 -0.115327 -0.00000307953 -0.115327 C 0.0636765 -0.115327 0.115313 -0.0636904 0.115313 -0.0000108561 Z M 0.115313 -0.0000108561 " transform="matrix(127.469247,0,0,127.469247,273.910549,538.696696)"/>
<path style="fill-rule:nonzero;fill:rgb(100%,92.941176%,43.529412%);fill-opacity:1;stroke-width:0.0230642;stroke-linecap:butt;stroke-linejoin:miter;stroke:rgb(60%,60%,60%);stroke-opacity:0.8;stroke-miterlimit:10;" d="M 0.115325 -0.00000833774 C 0.115325 0.0637019 0.0636883 0.115307 0.00000870445 0.115307 C -0.0637015 0.115307 -0.115307 0.0637019 -0.115307 -0.00000833774 C -0.115307 -0.0636879 -0.0637015 -0.115324 0.00000870445 -0.115324 C 0.0636883 -0.115324 0.115325 -0.0636879 0.115325 -0.00000833774 Z M 0.115325 -0.00000833774 " transform="matrix(127.469247,0,0,127.469247,314.991078,561.55575)"/>
<path style="fill-rule:nonzero;fill:rgb(100%,92.941176%,43.529412%);fill-opacity:1;stroke-width:0.0230642;stroke-linecap:butt;stroke-linejoin:miter;stroke:rgb(60%,60%,60%);stroke-opacity:0.8;stroke-miterlimit:10;" d="M 0.115333 0.00000759954 C 0.115333 0.0636872 0.0636968 0.115323 -0.0000134692 0.115323 C -0.063693 0.115323 -0.115329 0.0636872 -0.115329 0.00000759954 C -0.115329 -0.0637026 -0.063693 -0.115308 -0.0000134692 -0.115308 C 0.0636968 -0.115308 0.115333 -0.0637026 0.115333 0.00000759954 Z M 0.115333 0.00000759954 " transform="matrix(127.469247,0,0,127.469247,247.478279,559.553719)"/>
<path style="fill-rule:nonzero;fill:rgb(100%,92.941176%,43.529412%);fill-opacity:1;stroke-width:0.0230642;stroke-linecap:butt;stroke-linejoin:miter;stroke:rgb(60%,60%,60%);stroke-opacity:0.8;stroke-miterlimit:10;" d="M 0.115326 -0.0000102931 C 0.115326 0.0636999 0.0636897 0.115336 0.0000101301 0.115336 C -0.0637001 0.115336 -0.115306 0.0636999 -0.115306 -0.0000102931 C -0.115306 -0.0636899 -0.0637001 -0.115326 0.0000101301 -0.115326 C 0.0636897 -0.115326 0.115326 -0.0636899 0.115326 -0.0000102931 Z M 0.115326 -0.0000102931 " transform="matrix(127.469247,0,0,127.469247,358.131521,320.723968)"/>
<path style="fill-rule:nonzero;fill:rgb(100%,92.941176%,43.529412%);fill-opacity:1;stroke-width:0.0230642;stroke-linecap:butt;stroke-linejoin:miter;stroke:rgb(60%,60%,60%);stroke-opacity:0.8;stroke-miterlimit:10;" d="M 0.115307 -0.0000126827 C 0.115307 0.0636975 0.0637012 0.115334 -0.00000906895 0.115334 C -0.0636886 0.115334 -0.115325 0.0636975 -0.115325 -0.0000126827 C -0.115325 -0.0636923 -0.0636886 -0.115328 -0.00000906895 -0.115328 C 0.0637012 -0.115328 0.115307 -0.0636923 0.115307 -0.0000126827 Z M 0.115307 -0.0000126827 " transform="matrix(127.469247,0,0,127.469247,489.493344,144.110992)"/>
<path style="fill-rule:nonzero;fill:rgb(100%,92.941176%,43.529412%);fill-opacity:1;stroke-width:0.0230642;stroke-linecap:butt;stroke-linejoin:miter;stroke:rgb(60%,60%,60%);stroke-opacity:0.8;stroke-miterlimit:10;" d="M 0.115306 -0.000014583 C 0.115306 0.0636956 0.0637003 0.115332 -0.00000991816 0.115332 C -0.0636895 0.115332 -0.115326 0.0636956 -0.115326 -0.000014583 C -0.115326 -0.0636942 -0.0636895 -0.11533 -0.00000991816 -0.11533 C 0.0637003 -0.11533 0.115306 -0.0636942 0.115306 -0.000014583 Z M 0.115306 -0.000014583 " transform="matrix(127.469247,0,0,127.469247,360.688764,275.033109)"/>
<path style="fill-rule:nonzero;fill:rgb(100%,92.941176%,43.529412%);fill-opacity:1;stroke-width:0.0230642;stroke-linecap:butt;stroke-linejoin:miter;stroke:rgb(60%,60%,60%);stroke-opacity:0.8;stroke-miterlimit:10;" d="M 0.115328 -0.0000121399 C 0.115328 0.0636981 0.063692 0.115334 0.0000123839 0.115334 C -0.0636978 0.115334 -0.115334 0.0636981 -0.115334 -0.0000121399 C -0.115334 -0.0636917 -0.0636978 -0.115328 0.0000123839 -0.115328 C 0.063692 -0.115328 0.115328 -0.0636917 0.115328 -0.0000121399 Z M 0.115328 -0.0000121399 " transform="matrix(127.469247,0,0,127.469247,424.576546,158.810141)"/>
<path style="fill-rule:nonzero;fill:rgb(100%,92.941176%,43.529412%);fill-opacity:1;stroke-width:0.0230642;stroke-linecap:butt;stroke-linejoin:miter;stroke:rgb(60%,60%,60%);stroke-opacity:0.8;stroke-miterlimit:10;" d="M 0.115307 0.000000463936 C 0.115307 0.06368 0.0637018 0.115316 -0.0000084206 0.115316 C -0.063688 0.115316 -0.115324 0.06368 -0.115324 0.000000463936 C -0.115324 -0.0636791 -0.063688 -0.115315 -0.0000084206 -0.115315 C 0.0637018 -0.115315 0.115307 -0.0636791 0.115307 0.000000463936 Z M 0.115307 0.000000463936 " transform="matrix(127.469247,0,0,127.469247,298.583105,323.363222)"/>
<path style="fill-rule:nonzero;fill:rgb(100%,92.941176%,43.529412%);fill-opacity:1;stroke-width:0.0230642;stroke-linecap:butt;stroke-linejoin:miter;stroke:rgb(60%,60%,60%);stroke-opacity:0.8;stroke-miterlimit:10;" d="M 0.115306 -0.0000151927 C 0.115306 0.063695 0.0637005 0.115331 -0.00000968522 0.115331 C -0.0636893 0.115331 -0.115325 0.063695 -0.115325 -0.0000151927 C -0.115325 -0.0636948 -0.0636893 -0.115331 -0.00000968522 -0.115331 C 0.0637005 -0.115331 0.115306 -0.0636948 0.115306 -0.0000151927 Z M 0.115306 -0.0000151927 " transform="matrix(127.469247,0,0,127.469247,210.98561,361.150374)"/>
<path style="fill-rule:nonzero;fill:rgb(100%,92.941176%,43.529412%);fill-opacity:1;stroke-width:0.0230642;stroke-linecap:butt;stroke-linejoin:miter;stroke:rgb(60%,60%,60%);stroke-opacity:0.8;stroke-miterlimit:10;" d="M 0.115334 -0.00000531163 C 0.115334 0.0637049 0.0636982 0.11531 -0.0000120642 0.11531 C -0.0636916 0.11531 -0.115328 0.0637049 -0.115328 -0.00000531163 C -0.115328 -0.0636849 -0.0636916 -0.115321 -0.0000120642 -0.115321 C 0.0636982 -0.115321 0.115334 -0.0636849 0.115334 -0.00000531163 Z M 0.115334 -0.00000531163 " transform="matrix(127.469247,0,0,127.469247,399.704663,316.828802)"/>
<path style="fill-rule:nonzero;fill:rgb(100%,92.941176%,43.529412%);fill-opacity:1;stroke-width:0.0230642;stroke-linecap:butt;stroke-linejoin:miter;stroke:rgb(60%,60%,60%);stroke-opacity:0.8;stroke-miterlimit:10;" d="M 0.115327 -0.00000293758 C 0.115327 0.0636766 0.0636904 0.115313 0.0000108415 0.115313 C -0.0636994 0.115313 -0.115336 0.0636766 -0.115336 -0.00000293758 C -0.115336 -0.0636825 -0.0636994 -0.115319 0.0000108415 -0.115319 C 0.0636904 -0.115319 0.115327 -0.0636825 0.115327 -0.00000293758 Z M 0.115327 -0.00000293758 " transform="matrix(127.469247,0,0,127.469247,415.299399,56.258187)"/>
<path style="fill-rule:nonzero;fill:rgb(100%,92.941176%,43.529412%);fill-opacity:1;stroke-width:0.0230642;stroke-linecap:butt;stroke-linejoin:miter;stroke:rgb(60%,60%,60%);stroke-opacity:0.8;stroke-miterlimit:10;" d="M 0.115309 0.0000039119 C 0.115309 0.0636835 0.0637029 0.11532 -0.00000727908 0.11532 C -0.0636869 0.11532 -0.115323 0.0636835 -0.115323 0.0000039119 C -0.115323 -0.0636757 -0.0636869 -0.115312 -0.00000727908 -0.115312 C 0.0637029 -0.115312 0.115309 -0.0636757 0.115309 0.0000039119 Z M 0.115309 0.0000039119 " transform="matrix(127.469247,0,0,127.469247,385.379834,83.487783)"/>
<path style="fill-rule:nonzero;fill:rgb(100%,92.941176%,43.529412%);fill-opacity:1;stroke-width:0.0230642;stroke-linecap:butt;stroke-linejoin:miter;stroke:rgb(60%,60%,60%);stroke-opacity:0.8;stroke-miterlimit:10;" d="M 0.115328 0.00000259789 C 0.115328 0.0636822 0.0636914 0.115318 0.0000118523 0.115318 C -0.0636984 0.115318 -0.115335 0.0636822 -0.115335 0.00000259789 C -0.115335 -0.063677 -0.0636984 -0.115313 0.0000118523 -0.115313 C 0.0636914 -0.115313 0.115328 -0.063677 0.115328 0.00000259789 Z M 0.115328 0.00000259789 " transform="matrix(127.469247,0,0,127.469247,162.853958,360.152013)"/>
<path style="fill-rule:nonzero;fill:rgb(100%,92.941176%,43.529412%);fill-opacity:1;stroke-width:0.0230642;stroke-linecap:butt;stroke-linejoin:miter;stroke:rgb(60%,60%,60%);stroke-opacity:0.8;stroke-miterlimit:10;" d="M 0.115325 0.0000047575 C 0.115325 0.0636843 0.0636884 0.115321 0.00000885018 0.115321 C -0.0637014 0.115321 -0.115307 0.0636843 -0.115307 0.0000047575 C -0.115307 -0.0636748 -0.0637014 -0.115311 0.00000885018 -0.115311 C 0.0636884 -0.115311 0.115325 -0.0636748 0.115325 0.0000047575 Z M 0.115325 0.0000047575 " transform="matrix(127.469247,0,0,127.469247,91.037934,278.077519)"/>
<path style="fill-rule:nonzero;fill:rgb(100%,92.941176%,43.529412%);fill-opacity:1;stroke-width:0.0230642;stroke-linecap:butt;stroke-linejoin:miter;stroke:rgb(60%,60%,60%);stroke-opacity:0.8;stroke-miterlimit:10;" d="M 0.115316 -0.000000136273 C 0.115316 0.0636794 0.06368 0.115316 0.000000450746 0.115316 C -0.0636791 0.115316 -0.115315 0.0636794 -0.115315 -0.000000136273 C -0.115315 -0.0636797 -0.0636791 -0.115316 0.000000450746 -0.115316 C 0.06368 -0.115316 0.115316 -0.0636797 0.115316 -0.000000136273 Z M 0.115316 -0.000000136273 " transform="matrix(127.469247,0,0,127.469247,565.449161,347.00783)"/>
<path style="fill-rule:nonzero;fill:rgb(100%,92.941176%,43.529412%);fill-opacity:1;stroke-width:0.0230642;stroke-linecap:butt;stroke-linejoin:miter;stroke:rgb(60%,60%,60%);stroke-opacity:0.8;stroke-miterlimit:10;" d="M 0.115316 -0.0000117437 C 0.115316 0.0636985 0.0636797 0.115335 0.000000165809 0.115335 C -0.0636794 0.115335 -0.115316 0.0636985 -0.115316 -0.0000117437 C -0.115316 -0.0636913 -0.0636794 -0.115328 0.000000165809 -0.115328 C 0.0636797 -0.115328 0.115316 -0.0636913 0.115316 -0.0000117437 Z M 0.115316 -0.0000117437 " transform="matrix(127.469247,0,0,127.469247,333.855448,208.974153)"/>
<path style="fill-rule:nonzero;fill:rgb(100%,92.941176%,43.529412%);fill-opacity:1;stroke-width:0.0230642;stroke-linecap:butt;stroke-linejoin:miter;stroke:rgb(60%,60%,60%);stroke-opacity:0.8;stroke-miterlimit:10;" d="M 0.115317 0.0000102691 C 0.115317 0.0636898 0.0636808 0.115326 0.0000011934 0.115326 C -0.0636784 0.115326 -0.115315 0.0636898 -0.115315 0.0000102691 C -0.115315 -0.0637 -0.0636784 -0.115336 0.0000011934 -0.115336 C 0.0636808 -0.115336 0.115317 -0.0637 0.115317 0.0000102691 Z M 0.115317 0.0000102691 " transform="matrix(127.469247,0,0,127.469247,546.28891,298.733066)"/>
<path style="fill-rule:nonzero;fill:rgb(100%,92.941176%,43.529412%);fill-opacity:1;stroke-width:0.0230642;stroke-linecap:butt;stroke-linejoin:miter;stroke:rgb(60%,60%,60%);stroke-opacity:0.8;stroke-miterlimit:10;" d="M 0.115316 -0.00000351216 C 0.115316 0.0636761 0.0636797 0.115312 0.000000174148 0.115312 C -0.0636794 0.115312 -0.115316 0.0636761 -0.115316 -0.00000351216 C -0.115316 -0.0636831 -0.0636794 -0.115319 0.000000174148 -0.115319 C 0.0636797 -0.115319 0.115316 -0.0636831 0.115316 -0.00000351216 Z M 0.115316 -0.00000351216 " transform="matrix(127.469247,0,0,127.469247,562.832009,390.516073)"/>
<path style="fill-rule:nonzero;fill:rgb(100%,92.941176%,43.529412%);fill-opacity:1;stroke-width:0.0230642;stroke-linecap:butt;stroke-linejoin:miter;stroke:rgb(60%,60%,60%);stroke-opacity:0.8;stroke-miterlimit:10;" d="M 0.115322 0.0000111713 C 0.115322 0.0636907 0.0636861 0.115327 0.00000656289 0.115327 C -0.0637037 0.115327 -0.115309 0.0636907 -0.115309 0.0000111713 C -0.115309 -0.063699 -0.0637037 -0.115335 0.00000656289 -0.115335 C 0.0636861 -0.115335 0.115322 -0.063699 0.115322 0.0000111713 Z M 0.115322 0.0000111713 " transform="matrix(127.469247,0,0,127.469247,483.936663,278.068888)"/>
<path style="fill-rule:nonzero;fill:rgb(100%,92.941176%,43.529412%);fill-opacity:1;stroke-width:0.0230642;stroke-linecap:butt;stroke-linejoin:miter;stroke:rgb(60%,60%,60%);stroke-opacity:0.8;stroke-miterlimit:10;" d="M 0.115311 0.00000945916 C 0.115311 0.063689 0.0637051 0.115325 -0.00000507822 0.115325 C -0.0636847 0.115325 -0.115321 0.063689 -0.115321 0.00000945916 C -0.115321 -0.0637008 -0.0636847 -0.115306 -0.00000507822 -0.115306 C 0.0637051 -0.115306 0.115311 -0.0637008 0.115311 0.00000945916 Z M 0.115311 0.00000945916 " transform="matrix(127.469247,0,0,127.469247,60.35221,497.444107)"/>
<path style="fill-rule:nonzero;fill:rgb(100%,92.941176%,43.529412%);fill-opacity:1;stroke-width:0.0230642;stroke-linecap:butt;stroke-linejoin:miter;stroke:rgb(60%,60%,60%);stroke-opacity:0.8;stroke-miterlimit:10;" d="M 0.115312 0.0000111756 C 0.115312 0.0636908 0.0636761 0.115327 -0.00000342533 0.115327 C -0.063683 0.115327 -0.115319 0.0636908 -0.115319 0.0000111756 C -0.115319 -0.063699 -0.063683 -0.115335 -0.00000342533 -0.115335 C 0.0636761 -0.115335 0.115312 -0.063699 0.115312 0.0000111756 Z M 0.115312 0.0000111756 " transform="matrix(127.469247,0,0,127.469247,126.644968,430.342325)"/>
<path style="fill-rule:nonzero;fill:rgb(100%,92.941176%,43.529412%);fill-opacity:1;stroke-width:0.0230642;stroke-linecap:butt;stroke-linejoin:miter;stroke:rgb(60%,60%,60%);stroke-opacity:0.8;stroke-miterlimit:10;" d="M 0.115318 0.000014836 C 0.115318 0.0636944 0.0636817 0.115331 0.0000021266 0.115331 C -0.0636774 0.115331 -0.115314 0.0636944 -0.115314 0.000014836 C -0.115314 -0.0636954 -0.0636774 -0.115332 0.0000021266 -0.115332 C 0.0636817 -0.115332 0.115318 -0.0636954 0.115318 0.000014836 Z M 0.115318 0.000014836 " transform="matrix(127.469247,0,0,127.469247,80.218479,469.916078)"/>
<path style="fill-rule:nonzero;fill:rgb(100%,92.941176%,43.529412%);fill-opacity:1;stroke-width:0.0230642;stroke-linecap:butt;stroke-linejoin:miter;stroke:rgb(60%,60%,60%);stroke-opacity:0.8;stroke-miterlimit:10;" d="M 0.115311 -0.00000851234 C 0.115311 0.0637017 0.0637051 0.115307 -0.00000512187 0.115307 C -0.0636847 0.115307 -0.115321 0.0637017 -0.115321 -0.00000851234 C -0.115321 -0.0636881 -0.0636847 -0.115324 -0.00000512187 -0.115324 C 0.0637051 -0.115324 0.115311 -0.0636881 0.115311 -0.00000851234 Z M 0.115311 -0.00000851234 " transform="matrix(127.469247,0,0,127.469247,320.578778,51.747179)"/>
<path style="fill-rule:nonzero;fill:rgb(100%,92.941176%,43.529412%);fill-opacity:1;stroke-width:0.0230642;stroke-linecap:butt;stroke-linejoin:miter;stroke:rgb(60%,60%,60%);stroke-opacity:0.8;stroke-miterlimit:10;" d="M 0.115315 0.00000833774 C 0.115315 0.0636879 0.063679 0.115324 -0.000000572834 0.115324 C -0.0636801 0.115324 -0.115316 0.0636879 -0.115316 0.00000833774 C -0.115316 -0.0637019 -0.0636801 -0.115307 -0.000000572834 -0.115307 C 0.063679 -0.115307 0.115315 -0.0637019 0.115315 0.00000833774 Z M 0.115315 0.00000833774 " transform="matrix(127.469247,0,0,127.469247,276.015698,38.44425)"/>
<path style="fill-rule:nonzero;fill:rgb(100%,92.941176%,43.529412%);fill-opacity:1;stroke-width:0.0230642;stroke-linecap:butt;stroke-linejoin:miter;stroke:rgb(60%,60%,60%);stroke-opacity:0.8;stroke-miterlimit:10;" d="M 0.115315 0.000000630825 C 0.115315 0.0636802 0.0636791 0.115316 -0.000000450746 0.115316 C -0.06368 0.115316 -0.115316 0.0636802 -0.115316 0.000000630825 C -0.115316 -0.0636789 -0.06368 -0.115315 -0.000000450746 -0.115315 C 0.0636791 -0.115315 0.115315 -0.0636789 0.115315 0.000000630825 Z M 0.115315 0.000000630825 " transform="matrix(127.469247,0,0,127.469247,34.550839,314.496013)"/>
<path style="fill-rule:nonzero;fill:rgb(100%,92.941176%,43.529412%);fill-opacity:1;stroke-width:0.0230642;stroke-linecap:butt;stroke-linejoin:miter;stroke:rgb(60%,60%,60%);stroke-opacity:0.8;stroke-miterlimit:10;" d="M 0.115323 -0.0000100429 C 0.115323 0.0637002 0.0636869 0.115306 0.00000736185 0.115306 C -0.0637029 0.115306 -0.115308 0.0637002 -0.115308 -0.0000100429 C -0.115308 -0.0636896 -0.0637029 -0.115326 0.00000736185 -0.115326 C 0.0636869 -0.115326 0.115323 -0.0636896 0.115323 -0.0000100429 Z M 0.115323 -0.0000100429 " transform="matrix(127.469247,0,0,127.469247,36.522499,263.805968)"/>
<path style="fill-rule:nonzero;fill:rgb(55.294118%,82.745098%,78.039216%);fill-opacity:1;stroke-width:0.0230642;stroke-linecap:butt;stroke-linejoin:miter;stroke:rgb(60%,60%,60%);stroke-opacity:0.8;stroke-miterlimit:10;" d="M 0.115307 0.00000268728 C 0.115307 0.0636823 0.0637017 0.115318 -0.00000854331 0.115318 C -0.0636881 0.115318 -0.115324 0.0636823 -0.115324 0.00000268728 C -0.115324 -0.0636769 -0.0636881 -0.115313 -0.00000854331 -0.115313 C 0.0637017 -0.115313 0.115307 -0.0636769 0.115307 0.00000268728 Z M 0.115307 0.00000268728 " transform="matrix(127.469247,0,0,127.469247,62.376089,155.206689)"/>
<path style="fill-rule:nonzero;fill:rgb(55.294118%,82.745098%,78.039216%);fill-opacity:1;stroke-width:0.0230642;stroke-linecap:butt;stroke-linejoin:miter;stroke:rgb(60%,60%,60%);stroke-opacity:0.8;stroke-miterlimit:10;" d="M 0.115335 0.0000131005 C 0.115335 0.0636927 0.0636985 0.115329 -0.0000116837 0.115329 C -0.0636913 0.115329 -0.115327 0.0636927 -0.115327 0.0000131005 C -0.115327 -0.0636971 -0.0636913 -0.115333 -0.0000116837 -0.115333 C 0.0636985 -0.115333 0.115335 -0.0636971 0.115335 0.0000131005 Z M 0.115335 0.0000131005 " transform="matrix(127.469247,0,0,127.469247,152.794458,79.37333)"/>
<path style="fill-rule:nonzero;fill:rgb(55.294118%,82.745098%,78.039216%);fill-opacity:1;stroke-width:0.0230642;stroke-linecap:butt;stroke-linejoin:miter;stroke:rgb(60%,60%,60%);stroke-opacity:0.8;stroke-miterlimit:10;" d="M 0.115317 0.000013471 C 0.115317 0.063693 0.0636807 0.115329 0.00000115494 0.115329 C -0.0636784 0.115329 -0.115315 0.063693 -0.115315 0.000013471 C -0.115315 -0.0636967 -0.0636784 -0.115333 0.00000115494 -0.115333 C 0.0636807 -0.115333 0.115317 -0.0636967 0.115317 0.000013471 Z M 0.115317 0.000013471 " transform="matrix(127.469247,0,0,127.469247,128.96079,117.572502)"/>
<path style="fill-rule:nonzero;fill:rgb(55.294118%,82.745098%,78.039216%);fill-opacity:1;stroke-width:0.0230642;stroke-linecap:butt;stroke-linejoin:miter;stroke:rgb(60%,60%,60%);stroke-opacity:0.8;stroke-miterlimit:10;" d="M 0.115309 0.00000540254 C 0.115309 0.063685 0.063703 0.115321 -0.00000718199 0.115321 C -0.0636868 0.115321 -0.115323 0.063685 -0.115323 0.00000540254 C -0.115323 -0.0637048 -0.0636868 -0.11531 -0.00000718199 -0.11531 C 0.063703 -0.11531 0.115309 -0.0637048 0.115309 0.00000540254 Z M 0.115309 0.00000540254 " transform="matrix(127.469247,0,0,127.469247,95.094665,180.686811)"/>
<path style="fill-rule:nonzero;fill:rgb(100%,92.941176%,43.529412%);fill-opacity:1;stroke-width:0.0230642;stroke-linecap:butt;stroke-linejoin:miter;stroke:rgb(60%,60%,60%);stroke-opacity:0.8;stroke-miterlimit:10;" d="M 0.115318 -0.0000104682 C 0.115318 0.0636998 0.0636817 0.115336 0.00000208975 0.115336 C -0.0636775 0.115336 -0.115314 0.0636998 -0.115314 -0.0000104682 C -0.115314 -0.06369 -0.0636775 -0.115326 0.00000208975 -0.115326 C 0.0636817 -0.115326 0.115318 -0.06369 0.115318 -0.0000104682 Z M 0.115318 -0.0000104682 " transform="matrix(127.469247,0,0,127.469247,434.886452,554.720084)"/>
<path style="fill-rule:nonzero;fill:rgb(100%,92.941176%,43.529412%);fill-opacity:1;stroke-width:0.0230642;stroke-linecap:butt;stroke-linejoin:miter;stroke:rgb(60%,60%,60%);stroke-opacity:0.8;stroke-miterlimit:10;" d="M 0.115318 -0.00000187774 C 0.115318 0.0636777 0.0636822 0.115314 0.00000265321 0.115314 C -0.0636769 0.115314 -0.115313 0.0636777 -0.115313 -0.00000187774 C -0.115313 -0.0636815 -0.0636769 -0.115318 0.00000265321 -0.115318 C 0.0636822 -0.115318 0.115318 -0.0636815 0.115318 -0.00000187774 Z M 0.115318 -0.00000187774 " transform="matrix(127.469247,0,0,127.469247,452.105131,510.824458)"/>
</g>
</svg>
