<?xml version="1.0" encoding="UTF-8"?>
<svg xmlns="http://www.w3.org/2000/svg" xmlns:xlink="http://www.w3.org/1999/xlink" width="600pt" height="600pt" viewBox="0 0 600 600" version="1.1">
<defs>
<clipPath id="clip1">
  <path d="M 197 439 L 309 439 L 309 584 L 197 584 Z M 197 439 "/>
</clipPath>
<clipPath id="clip2">
  <path d="M 127.304688 429.089844 L 378.582031 429.089844 L 378.582031 593.726562 L 127.304688 593.726562 Z M 127.304688 429.089844 L 281.324219 541.917969 C 281.324219 550.035156 274.742188 556.617188 266.621094 556.617188 C 258.503906 556.617188 251.921875 550.035156 251.921875 541.917969 C 251.921875 533.800781 258.503906 527.21875 266.621094 527.21875 C 274.742188 527.21875 281.324219 533.800781 281.324219 541.917969 Z M 127.304688 429.089844 "/>
</clipPath>
<clipPath id="clip3">
  <path d="M 127.304688 429.089844 L 378.582031 429.089844 L 378.582031 593.726562 L 127.304688 593.726562 Z M 127.304688 429.089844 L 253.96875 480.902344 C 253.96875 489.023438 247.386719 495.601562 239.269531 495.601562 C 231.148438 495.601562 224.566406 489.023438 224.566406 480.902344 C 224.566406 472.785156 231.148438 466.203125 239.269531 466.203125 C 247.386719 466.203125 253.96875 472.785156 253.96875 480.902344 Z M 127.304688 429.089844 "/>
</clipPath>
<clipPath id="clip4">
  <path d="M 193 500 L 309 500 L 309 600 L 193 600 Z M 193 500 "/>
</clipPath>
<clipPath id="clip5">
  <path d="M 160.792969 442.984375 L 340.691406 442.984375 L 340.691406 664.378906 L 160.792969 664.378906 Z M 160.792969 442.984375 L 281.324219 541.917969 C 281.324219 550.035156 274.742188 556.617188 266.621094 556.617188 C 258.503906 556.617188 251.921875 550.035156 251.921875 541.917969 C 251.921875 533.800781 258.503906 527.21875 266.621094 527.21875 C 274.742188 527.21875 281.324219 533.800781 281.324219 541.917969 Z M 160.792969 442.984375 "/>
</clipPath>
<clipPath id="clip6">
  <path d="M 160.792969 442.984375 L 340.691406 442.984375 L 340.691406 664.378906 L 160.792969 664.378906 Z M 160.792969 442.984375 L 249.566406 565.449219 C 249.566406 573.566406 242.984375 580.148438 234.867188 580.148438 C 226.75 580.148438 220.167969 573.566406 220.167969 565.449219 C 220.167969 557.332031 226.75 550.75 234.867188 550.75 C 242.984375 550.75 249.566406 557.332031 249.566406 565.449219 Z M 160.792969 442.984375 "/>
</clipPath>
<clipPath id="clip7">
  <path d="M 225 500 L 355 500 L 355 600 L 225 600 Z M 225 500 "/>
</clipPath>
<clipPath id="clip8">
  <path d="M 219.964844 427.785156 L 360.019531 427.785156 L 360.019531 674.425781 L 219.964844 674.425781 Z M 219.964844 427.785156 L 281.324219 541.917969 C 281.324219 550.035156 274.742188 556.617188 266.621094 556.617188 C 258.503906 556.617188 251.921875 550.035156 251.921875 541.917969 C 251.921875 533.800781 258.503906 527.21875 266.621094 527.21875 C 274.742188 527.21875 281.324219 533.800781 281.324219 541.917969 Z M 219.964844 427.785156 "/>
</clipPath>
<clipPath id="clip9">
  <path d="M 219.964844 427.785156 L 360.019531 427.785156 L 360.019531 674.425781 L 219.964844 674.425781 Z M 219.964844 427.785156 L 328.066406 560.296875 C 328.066406 568.414062 321.484375 574.996094 313.367188 574.996094 C 305.25 574.996094 298.667969 568.414062 298.667969 560.296875 C 298.667969 552.179688 305.25 545.597656 313.367188 545.597656 C 321.484375 545.597656 328.066406 552.179688 328.066406 560.296875 Z M 219.964844 427.785156 "/>
</clipPath>
<clipPath id="clip10">
  <path d="M 170 317.839844 L 277 317.839844 L 277 468.050781 L 170 468.050781 Z M 170 317.839844 "/>
</clipPath>
<clipPath id="clip11">
  <path d="M 95.046875 317.839844 L 352.570312 317.839844 L 352.570312 468.050781 L 95.046875 468.050781 Z M 95.046875 317.839844 L 249.851562 354.96875 C 249.851562 363.085938 243.269531 369.667969 235.152344 369.667969 C 227.03125 369.667969 220.449219 363.085938 220.449219 354.96875 C 220.449219 346.847656 227.03125 340.265625 235.152344 340.265625 C 243.269531 340.265625 249.851562 346.847656 249.851562 354.96875 Z M 95.046875 317.839844 "/>
</clipPath>
<clipPath id="clip12">
  <path d="M 95.046875 317.839844 L 352.570312 317.839844 L 352.570312 468.050781 L 95.046875 468.050781 Z M 95.046875 317.839844 L 227.167969 430.925781 C 227.167969 439.046875 220.585938 445.625 212.46875 445.625 C 204.351562 445.625 197.769531 439.046875 197.769531 430.925781 C 197.769531 422.808594 204.351562 416.226562 212.46875 416.226562 C 220.585938 416.226562 227.167969 422.808594 227.167969 430.925781 Z M 95.046875 317.839844 "/>
</clipPath>
<clipPath id="clip13">
  <path d="M 193 325.664062 L 293 325.664062 L 293 454.210938 L 193 454.210938 Z M 193 325.664062 "/>
</clipPath>
<clipPath id="clip14">
  <path d="M 115.679688 325.664062 L 370.445312 325.664062 L 370.445312 454.210938 L 115.679688 454.210938 Z M 115.679688 325.664062 L 249.851562 354.96875 C 249.851562 363.085938 243.269531 369.667969 235.152344 369.667969 C 227.03125 369.667969 220.449219 363.085938 220.449219 354.96875 C 220.449219 346.847656 227.03125 340.265625 235.152344 340.265625 C 243.269531 340.265625 249.851562 346.847656 249.851562 354.96875 Z M 115.679688 325.664062 "/>
</clipPath>
<clipPath id="clip15">
  <path d="M 115.679688 325.664062 L 370.445312 325.664062 L 370.445312 454.210938 L 115.679688 454.210938 Z M 115.679688 325.664062 L 265.675781 424.910156 C 265.675781 433.027344 259.09375 439.609375 250.976562 439.609375 C 242.859375 439.609375 236.277344 433.027344 236.277344 424.910156 C 236.277344 416.792969 242.859375 410.210938 250.976562 410.210938 C 259.09375 410.210938 265.675781 416.792969 265.675781 424.910156 Z M 115.679688 325.664062 "/>
</clipPath>
<clipPath id="clip16">
  <path d="M 193 201.785156 L 287 201.785156 L 287 366.195312 L 193 366.195312 Z M 193 201.785156 "/>
</clipPath>
<clipPath id="clip17">
  <path d="M 113.023438 201.785156 L 367.148438 201.785156 L 367.148438 366.195312 L 113.023438 366.195312 Z M 113.023438 201.785156 L 249.851562 354.96875 C 249.851562 363.085938 243.269531 369.667969 235.152344 369.667969 C 227.03125 369.667969 220.449219 363.085938 220.449219 354.96875 C 220.449219 346.847656 227.03125 340.265625 235.152344 340.265625 C 243.269531 340.265625 249.851562 346.847656 249.851562 354.96875 Z M 113.023438 201.785156 "/>
</clipPath>
<clipPath id="clip18">
  <path d="M 113.023438 201.785156 L 367.148438 201.785156 L 367.148438 366.195312 L 113.023438 366.195312 Z M 113.023438 201.785156 L 259.722656 213.015625 C 259.722656 221.136719 253.140625 227.71875 245.023438 227.71875 C 236.902344 227.71875 230.320312 221.136719 230.320312 213.015625 C 230.320312 204.898438 236.902344 198.316406 245.023438 198.316406 C 253.140625 198.316406 259.722656 204.898438 259.722656 213.015625 Z M 113.023438 201.785156 "/>
</clipPath>
<clipPath id="clip19">
  <path d="M 170 389 L 281 389 L 281 523 L 170 523 Z M 170 389 "/>
</clipPath>
<clipPath id="clip20">
  <path d="M 104.234375 371.519531 L 347.5 371.519531 L 347.5 540.304688 L 104.234375 540.304688 Z M 104.234375 371.519531 L 227.167969 430.925781 C 227.167969 439.046875 220.585938 445.625 212.46875 445.625 C 204.351562 445.625 197.769531 439.046875 197.769531 430.925781 C 197.769531 422.808594 204.351562 416.226562 212.46875 416.226562 C 220.585938 416.226562 227.167969 422.808594 227.167969 430.925781 Z M 104.234375 371.519531 "/>
</clipPath>
<clipPath id="clip21">
  <path d="M 104.234375 371.519531 L 347.5 371.519531 L 347.5 540.304688 L 104.234375 540.304688 Z M 104.234375 371.519531 L 253.96875 480.902344 C 253.96875 489.023438 247.386719 495.601562 239.269531 495.601562 C 231.148438 495.601562 224.566406 489.023438 224.566406 480.902344 C 224.566406 472.785156 231.148438 466.203125 239.269531 466.203125 C 247.386719 466.203125 253.96875 472.785156 253.96875 480.902344 Z M 104.234375 371.519531 "/>
</clipPath>
<clipPath id="clip22">
  <path d="M 197 397.515625 L 293 397.515625 L 293 508.292969 L 197 508.292969 Z M 197 397.515625 "/>
</clipPath>
<clipPath id="clip23">
  <path d="M 119.382812 397.515625 L 370.859375 397.515625 L 370.859375 508.292969 L 119.382812 508.292969 Z M 119.382812 397.515625 L 253.96875 480.902344 C 253.96875 489.023438 247.386719 495.601562 239.269531 495.601562 C 231.148438 495.601562 224.566406 489.023438 224.566406 480.902344 C 224.566406 472.785156 231.148438 466.203125 239.269531 466.203125 C 247.386719 466.203125 253.96875 472.785156 253.96875 480.902344 Z M 119.382812 397.515625 "/>
</clipPath>
<clipPath id="clip24">
  <path d="M 119.382812 397.515625 L 370.859375 397.515625 L 370.859375 508.292969 L 119.382812 508.292969 Z M 119.382812 397.515625 L 265.675781 424.910156 C 265.675781 433.027344 259.09375 439.609375 250.976562 439.609375 C 242.859375 439.609375 236.277344 433.027344 236.277344 424.910156 C 236.277344 416.792969 242.859375 410.210938 250.976562 410.210938 C 259.09375 410.210938 265.675781 416.792969 265.675781 424.910156 Z M 119.382812 397.515625 "/>
</clipPath>
<clipPath id="clip25">
  <path d="M 319 89 L 423 89 L 423 225 L 319 225 Z M 319 89 "/>
</clipPath>
<clipPath id="clip26">
  <path d="M 246.234375 85.636719 L 494.988281 85.636719 L 494.988281 228.433594 L 246.234375 228.433594 Z M 246.234375 85.636719 L 375.457031 131.289062 C 375.457031 139.410156 368.875 145.988281 360.757812 145.988281 C 352.636719 145.988281 346.054688 139.410156 346.054688 131.289062 C 346.054688 123.171875 352.636719 116.589844 360.757812 116.589844 C 368.875 116.589844 375.457031 123.171875 375.457031 131.289062 Z M 246.234375 85.636719 "/>
</clipPath>
<clipPath id="clip27">
  <path d="M 246.234375 85.636719 L 494.988281 85.636719 L 494.988281 228.433594 L 246.234375 228.433594 Z M 246.234375 85.636719 L 395.167969 182.785156 C 395.167969 190.90625 388.585938 197.488281 380.46875 197.488281 C 372.347656 197.488281 365.765625 190.90625 365.765625 182.785156 C 365.765625 174.667969 372.347656 168.085938 380.46875 168.085938 C 388.585938 168.085938 395.167969 174.667969 395.167969 182.785156 Z M 246.234375 85.636719 "/>
</clipPath>
<clipPath id="clip28">
  <path d="M 280 89 L 403 89 L 403 213 L 280 213 Z M 280 89 "/>
</clipPath>
<clipPath id="clip29">
  <path d="M 234.027344 44.589844 L 448.894531 44.589844 L 448.894531 257.238281 L 234.027344 257.238281 Z M 234.027344 44.589844 L 375.457031 131.289062 C 375.457031 139.410156 368.875 145.988281 360.757812 145.988281 C 352.636719 145.988281 346.054688 139.410156 346.054688 131.289062 C 346.054688 123.171875 352.636719 116.589844 360.757812 116.589844 C 368.875 116.589844 375.457031 123.171875 375.457031 131.289062 Z M 234.027344 44.589844 "/>
</clipPath>
<clipPath id="clip30">
  <path d="M 234.027344 44.589844 L 448.894531 44.589844 L 448.894531 257.238281 L 234.027344 257.238281 Z M 234.027344 44.589844 L 336.867188 170.542969 C 336.867188 178.660156 330.285156 185.242188 322.167969 185.242188 C 314.050781 185.242188 307.46875 178.660156 307.46875 170.542969 C 307.46875 162.425781 314.050781 155.84375 322.167969 155.84375 C 330.285156 155.84375 336.867188 162.425781 336.867188 170.542969 Z M 234.027344 44.589844 "/>
</clipPath>
<clipPath id="clip31">
  <path d="M 319 64 L 425 64 L 425 173 L 319 173 Z M 319 64 "/>
</clipPath>
<clipPath id="clip32">
  <path d="M 268.714844 23.453125 L 475.398438 23.453125 L 475.398438 213.820312 L 268.714844 213.820312 Z M 268.714844 23.453125 L 375.457031 131.289062 C 375.457031 139.410156 368.875 145.988281 360.757812 145.988281 C 352.636719 145.988281 346.054688 139.410156 346.054688 131.289062 C 346.054688 123.171875 352.636719 116.589844 360.757812 116.589844 C 368.875 116.589844 375.457031 123.171875 375.457031 131.289062 Z M 268.714844 23.453125 "/>
</clipPath>
<clipPath id="clip33">
  <path d="M 268.714844 23.453125 L 475.398438 23.453125 L 475.398438 213.820312 L 268.714844 213.820312 Z M 268.714844 23.453125 L 398.058594 105.988281 C 398.058594 114.105469 391.476562 120.6875 383.359375 120.6875 C 375.238281 120.6875 368.65625 114.105469 368.65625 105.988281 C 368.65625 97.867188 375.238281 91.289062 383.359375 91.289062 C 391.476562 91.289062 398.058594 97.867188 398.058594 105.988281 Z M 268.714844 23.453125 "/>
</clipPath>
<clipPath id="clip34">
  <path d="M 441 139 L 562 139 L 562 259 L 441 259 Z M 441 139 "/>
</clipPath>
<clipPath id="clip35">
  <path d="M 396.691406 92.714844 L 605.660156 92.714844 L 605.660156 305.601562 L 396.691406 305.601562 Z M 396.691406 92.714844 L 534.195312 181.375 C 534.195312 189.492188 527.613281 196.074219 519.496094 196.074219 C 511.375 196.074219 504.792969 189.492188 504.792969 181.375 C 504.792969 173.257812 511.375 166.675781 519.496094 166.675781 C 527.613281 166.675781 534.195312 173.257812 534.195312 181.375 Z M 396.691406 92.714844 "/>
</clipPath>
<clipPath id="clip36">
  <path d="M 396.691406 92.714844 L 605.660156 92.714844 L 605.660156 305.601562 L 396.691406 305.601562 Z M 396.691406 92.714844 L 497.5625 216.945312 C 497.5625 225.0625 490.980469 231.644531 482.859375 231.644531 C 474.742188 231.644531 468.160156 225.0625 468.160156 216.945312 C 468.160156 208.824219 474.742188 202.246094 482.859375 202.246094 C 490.980469 202.246094 497.5625 208.824219 497.5625 216.945312 Z M 396.691406 92.714844 "/>
</clipPath>
<clipPath id="clip37">
  <path d="M 339.714844 141 L 523.609375 141 L 523.609375 259 L 339.714844 259 Z M 339.714844 141 "/>
</clipPath>
<clipPath id="clip38">
  <path d="M 339.714844 66.507812 L 523.609375 66.507812 L 523.609375 333.21875 L 339.714844 333.21875 Z M 339.714844 66.507812 L 395.167969 182.785156 C 395.167969 190.90625 388.585938 197.488281 380.46875 197.488281 C 372.347656 197.488281 365.765625 190.90625 365.765625 182.785156 C 365.765625 174.667969 372.347656 168.085938 380.46875 168.085938 C 388.585938 168.085938 395.167969 174.667969 395.167969 182.785156 Z M 339.714844 66.507812 "/>
</clipPath>
<clipPath id="clip39">
  <path d="M 339.714844 66.507812 L 523.609375 66.507812 L 523.609375 333.21875 L 339.714844 333.21875 Z M 339.714844 66.507812 L 497.5625 216.945312 C 497.5625 225.0625 490.980469 231.644531 482.859375 231.644531 C 474.742188 231.644531 468.160156 225.0625 468.160156 216.945312 C 468.160156 208.824219 474.742188 202.246094 482.859375 202.246094 C 490.980469 202.246094 497.5625 208.824219 497.5625 216.945312 Z M 339.714844 66.507812 "/>
</clipPath>
<clipPath id="clip40">
  <path d="M 294.675781 128 L 407.957031 128 L 407.957031 225 L 294.675781 225 Z M 294.675781 128 "/>
</clipPath>
<clipPath id="clip41">
  <path d="M 294.675781 50.675781 L 407.957031 50.675781 L 407.957031 302.648438 L 294.675781 302.648438 Z M 294.675781 50.675781 L 395.167969 182.785156 C 395.167969 190.90625 388.585938 197.488281 380.46875 197.488281 C 372.347656 197.488281 365.765625 190.90625 365.765625 182.785156 C 365.765625 174.667969 372.347656 168.085938 380.46875 168.085938 C 388.585938 168.085938 395.167969 174.667969 395.167969 182.785156 Z M 294.675781 50.675781 "/>
</clipPath>
<clipPath id="clip42">
  <path d="M 294.675781 50.675781 L 407.957031 50.675781 L 407.957031 302.648438 L 294.675781 302.648438 Z M 294.675781 50.675781 L 336.867188 170.542969 C 336.867188 178.660156 330.285156 185.242188 322.167969 185.242188 C 314.050781 185.242188 307.46875 178.660156 307.46875 170.542969 C 307.46875 162.425781 314.050781 155.84375 322.167969 155.84375 C 330.285156 155.84375 336.867188 162.425781 336.867188 170.542969 Z M 294.675781 50.675781 "/>
</clipPath>
<clipPath id="clip43">
  <path d="M 216.054688 141 L 409.433594 141 L 409.433594 255 L 216.054688 255 Z M 216.054688 141 "/>
</clipPath>
<clipPath id="clip44">
  <path d="M 216.054688 63.238281 L 409.433594 63.238281 L 409.433594 332.558594 L 216.054688 332.558594 Z M 216.054688 63.238281 L 395.167969 182.785156 C 395.167969 190.90625 388.585938 197.488281 380.46875 197.488281 C 372.347656 197.488281 365.765625 190.90625 365.765625 182.785156 C 365.765625 174.667969 372.347656 168.085938 380.46875 168.085938 C 388.585938 168.085938 395.167969 174.667969 395.167969 182.785156 Z M 216.054688 63.238281 "/>
</clipPath>
<clipPath id="clip45">
  <path d="M 216.054688 63.238281 L 409.433594 63.238281 L 409.433594 332.558594 L 216.054688 332.558594 Z M 216.054688 63.238281 L 259.722656 213.015625 C 259.722656 221.136719 253.140625 227.71875 245.023438 227.71875 C 236.902344 227.71875 230.320312 221.136719 230.320312 213.015625 C 230.320312 204.898438 236.902344 198.316406 245.023438 198.316406 C 253.140625 198.316406 259.722656 204.898438 259.722656 213.015625 Z M 216.054688 63.238281 "/>
</clipPath>
<clipPath id="clip46">
  <path d="M 338 98.554688 L 425 98.554688 L 425 190.214844 L 338 190.214844 Z M 338 98.554688 "/>
</clipPath>
<clipPath id="clip47">
  <path d="M 258.136719 98.554688 L 505.6875 98.554688 L 505.6875 190.214844 L 258.136719 190.214844 Z M 258.136719 98.554688 L 395.167969 182.785156 C 395.167969 190.90625 388.585938 197.488281 380.46875 197.488281 C 372.347656 197.488281 365.765625 190.90625 365.765625 182.785156 C 365.765625 174.667969 372.347656 168.085938 380.46875 168.085938 C 388.585938 168.085938 395.167969 174.667969 395.167969 182.785156 Z M 258.136719 98.554688 "/>
</clipPath>
<clipPath id="clip48">
  <path d="M 258.136719 98.554688 L 505.6875 98.554688 L 505.6875 190.214844 L 258.136719 190.214844 Z M 258.136719 98.554688 L 398.058594 105.988281 C 398.058594 114.105469 391.476562 120.6875 383.359375 120.6875 C 375.238281 120.6875 368.65625 114.105469 368.65625 105.988281 C 368.65625 97.867188 375.238281 91.289062 383.359375 91.289062 C 391.476562 91.289062 398.058594 97.867188 398.058594 105.988281 Z M 258.136719 98.554688 "/>
</clipPath>
<clipPath id="clip49">
  <path d="M 338 82 L 479 82 L 479 225 L 338 225 Z M 338 82 "/>
</clipPath>
<clipPath id="clip50">
  <path d="M 291.5625 37.898438 L 526.289062 37.898438 L 526.289062 268.695312 L 291.5625 268.695312 Z M 291.5625 37.898438 L 395.167969 182.785156 C 395.167969 190.90625 388.585938 197.488281 380.46875 197.488281 C 372.347656 197.488281 365.765625 190.90625 365.765625 182.785156 C 365.765625 174.667969 372.347656 168.085938 380.46875 168.085938 C 388.585938 168.085938 395.167969 174.667969 395.167969 182.785156 Z M 291.5625 37.898438 "/>
</clipPath>
<clipPath id="clip51">
  <path d="M 291.5625 37.898438 L 526.289062 37.898438 L 526.289062 268.695312 L 291.5625 268.695312 Z M 291.5625 37.898438 L 452.089844 123.8125 C 452.089844 131.929688 445.507812 138.511719 437.386719 138.511719 C 429.269531 138.511719 422.6875 131.929688 422.6875 123.8125 C 422.6875 115.695312 429.269531 109.113281 437.386719 109.113281 C 445.507812 109.113281 452.089844 115.695312 452.089844 123.8125 Z M 291.5625 37.898438 "/>
</clipPath>
<clipPath id="clip52">
  <path d="M 338 160.167969 L 443 160.167969 L 443 329.046875 L 338 329.046875 Z M 338 160.167969 "/>
</clipPath>
<clipPath id="clip53">
  <path d="M 259.683594 160.167969 L 521.894531 160.167969 L 521.894531 329.046875 L 259.683594 329.046875 Z M 259.683594 160.167969 L 395.167969 182.785156 C 395.167969 190.90625 388.585938 197.488281 380.46875 197.488281 C 372.347656 197.488281 365.765625 190.90625 365.765625 182.785156 C 365.765625 174.667969 372.347656 168.085938 380.46875 168.085938 C 388.585938 168.085938 395.167969 174.667969 395.167969 182.785156 Z M 259.683594 160.167969 "/>
</clipPath>
<clipPath id="clip54">
  <path d="M 259.683594 160.167969 L 521.894531 160.167969 L 521.894531 329.046875 L 259.683594 329.046875 Z M 259.683594 160.167969 L 415.8125 306.433594 C 415.8125 314.554688 409.230469 321.132812 401.113281 321.132812 C 392.992188 321.132812 386.410156 314.554688 386.410156 306.433594 C 386.410156 298.316406 392.992188 291.734375 401.113281 291.734375 C 409.230469 291.734375 415.8125 298.316406 415.8125 306.433594 Z M 259.683594 160.167969 "/>
</clipPath>
<clipPath id="clip55">
  <path d="M 441 175 L 568 175 L 568 335 L 441 335 Z M 441 175 "/>
</clipPath>
<clipPath id="clip56">
  <path d="M 375.605469 155.75 L 632.726562 155.75 L 632.726562 354.449219 L 375.605469 354.449219 Z M 375.605469 155.75 L 497.5625 216.945312 C 497.5625 225.0625 490.980469 231.644531 482.859375 231.644531 C 474.742188 231.644531 468.160156 225.0625 468.160156 216.945312 C 468.160156 208.824219 474.742188 202.246094 482.859375 202.246094 C 490.980469 202.246094 497.5625 208.824219 497.5625 216.945312 Z M 375.605469 155.75 "/>
</clipPath>
<clipPath id="clip57">
  <path d="M 375.605469 155.75 L 632.726562 155.75 L 632.726562 354.449219 L 375.605469 354.449219 Z M 375.605469 155.75 L 540.175781 293.257812 C 540.175781 301.378906 533.59375 307.960938 525.476562 307.960938 C 517.355469 307.960938 510.773438 301.378906 510.773438 293.257812 C 510.773438 285.140625 517.355469 278.558594 525.476562 278.558594 C 533.59375 278.558594 540.175781 285.140625 540.175781 293.257812 Z M 375.605469 155.75 "/>
</clipPath>
<clipPath id="clip58">
  <path d="M 203 128 L 364 128 L 364 255 L 203 255 Z M 203 128 "/>
</clipPath>
<clipPath id="clip59">
  <path d="M 184.460938 62.941406 L 382.726562 62.941406 L 382.726562 320.613281 L 184.460938 320.613281 Z M 184.460938 62.941406 L 336.867188 170.542969 C 336.867188 178.660156 330.285156 185.242188 322.167969 185.242188 C 314.050781 185.242188 307.46875 178.660156 307.46875 170.542969 C 307.46875 162.425781 314.050781 155.84375 322.167969 155.84375 C 330.285156 155.84375 336.867188 162.425781 336.867188 170.542969 Z M 184.460938 62.941406 "/>
</clipPath>
<clipPath id="clip60">
  <path d="M 184.460938 62.941406 L 382.726562 62.941406 L 382.726562 320.613281 L 184.460938 320.613281 Z M 184.460938 62.941406 L 259.722656 213.015625 C 259.722656 221.136719 253.140625 227.71875 245.023438 227.71875 C 236.902344 227.71875 230.320312 221.136719 230.320312 213.015625 C 230.320312 204.898438 236.902344 198.316406 245.023438 198.316406 C 253.140625 198.316406 259.722656 204.898438 259.722656 213.015625 Z M 184.460938 62.941406 "/>
</clipPath>
<clipPath id="clip61">
  <path d="M 167.691406 159 L 281.8125 159 L 281.8125 255 L 167.691406 255 Z M 167.691406 159 "/>
</clipPath>
<clipPath id="clip62">
  <path d="M 167.691406 83.519531 L 281.8125 83.519531 L 281.8125 330.53125 L 167.691406 330.53125 Z M 167.691406 83.519531 L 259.722656 213.015625 C 259.722656 221.136719 253.140625 227.71875 245.023438 227.71875 C 236.902344 227.71875 230.320312 221.136719 230.320312 213.015625 C 230.320312 204.898438 236.902344 198.316406 245.023438 198.316406 C 253.140625 198.316406 259.722656 204.898438 259.722656 213.015625 Z M 167.691406 83.519531 "/>
</clipPath>
<clipPath id="clip63">
  <path d="M 167.691406 83.519531 L 281.8125 83.519531 L 281.8125 330.53125 L 167.691406 330.53125 Z M 167.691406 83.519531 L 219.183594 201.039062 C 219.183594 209.15625 212.601562 215.738281 204.484375 215.738281 C 196.367188 215.738281 189.785156 209.15625 189.785156 201.039062 C 189.785156 192.917969 196.367188 186.335938 204.484375 186.335938 C 212.601562 186.335938 219.183594 192.917969 219.183594 201.039062 Z M 167.691406 83.519531 "/>
</clipPath>
<clipPath id="clip64">
  <path d="M 91.75 171 L 268.964844 171 L 268.964844 278 L 91.75 278 Z M 91.75 171 "/>
</clipPath>
<clipPath id="clip65">
  <path d="M 91.75 92.460938 L 268.964844 92.460938 L 268.964844 356.660156 L 91.75 356.660156 Z M 91.75 92.460938 L 259.722656 213.015625 C 259.722656 221.136719 253.140625 227.71875 245.023438 227.71875 C 236.902344 227.71875 230.320312 221.136719 230.320312 213.015625 C 230.320312 204.898438 236.902344 198.316406 245.023438 198.316406 C 253.140625 198.316406 259.722656 204.898438 259.722656 213.015625 Z M 91.75 92.460938 "/>
</clipPath>
<clipPath id="clip66">
  <path d="M 91.75 92.460938 L 268.964844 92.460938 L 268.964844 356.660156 L 91.75 356.660156 Z M 91.75 92.460938 L 130.394531 236.109375 C 130.394531 244.230469 123.8125 250.808594 115.695312 250.808594 C 107.574219 250.808594 100.996094 244.230469 100.996094 236.109375 C 100.996094 227.992188 107.574219 221.410156 115.695312 221.410156 C 123.8125 221.410156 130.394531 227.992188 130.394531 236.109375 Z M 91.75 92.460938 "/>
</clipPath>
<clipPath id="clip67">
  <path d="M 170 78 L 287 78 L 287 255 L 170 255 Z M 170 78 "/>
</clipPath>
<clipPath id="clip68">
  <path d="M 96.390625 76.917969 L 360.527344 76.917969 L 360.527344 255.996094 L 96.390625 255.996094 Z M 96.390625 76.917969 L 259.722656 213.015625 C 259.722656 221.136719 253.140625 227.71875 245.023438 227.71875 C 236.902344 227.71875 230.320312 221.136719 230.320312 213.015625 C 230.320312 204.898438 236.902344 198.316406 245.023438 198.316406 C 253.140625 198.316406 259.722656 204.898438 259.722656 213.015625 Z M 96.390625 76.917969 "/>
</clipPath>
<clipPath id="clip69">
  <path d="M 96.390625 76.917969 L 360.527344 76.917969 L 360.527344 255.996094 L 96.390625 255.996094 Z M 96.390625 76.917969 L 226.601562 119.902344 C 226.601562 128.019531 220.019531 134.601562 211.898438 134.601562 C 203.78125 134.601562 197.199219 128.019531 197.199219 119.902344 C 197.199219 111.785156 203.78125 105.203125 211.898438 105.203125 C 220.019531 105.203125 226.601562 111.785156 226.601562 119.902344 Z M 96.390625 76.917969 "/>
</clipPath>
<clipPath id="clip70">
  <path d="M 514.175781 249 L 571.242188 249 L 571.242188 335 L 514.175781 335 Z M 514.175781 249 "/>
</clipPath>
<clipPath id="clip71">
  <path d="M 514.175781 168.714844 L 571.242188 168.714844 L 571.242188 415.378906 L 514.175781 415.378906 Z M 514.175781 168.714844 L 574.644531 290.839844 C 574.644531 298.960938 568.0625 305.542969 559.945312 305.542969 C 551.824219 305.542969 545.242188 298.960938 545.242188 290.839844 C 545.242188 282.722656 551.824219 276.140625 559.945312 276.140625 C 568.0625 276.140625 574.644531 282.722656 574.644531 290.839844 Z M 514.175781 168.714844 "/>
</clipPath>
<clipPath id="clip72">
  <path d="M 514.175781 168.714844 L 571.242188 168.714844 L 571.242188 415.378906 L 514.175781 415.378906 Z M 514.175781 168.714844 L 540.175781 293.257812 C 540.175781 301.378906 533.59375 307.960938 525.476562 307.960938 C 517.355469 307.960938 510.773438 301.378906 510.773438 293.257812 C 510.773438 285.140625 517.355469 278.558594 525.476562 278.558594 C 533.59375 278.558594 540.175781 285.140625 540.175781 293.257812 Z M 514.175781 168.714844 "/>
</clipPath>
<clipPath id="clip73">
  <path d="M 483 278.359375 L 575 278.359375 L 575 381.128906 L 483 381.128906 Z M 483 278.359375 "/>
</clipPath>
<clipPath id="clip74">
  <path d="M 403.660156 278.359375 L 654.628906 278.359375 L 654.628906 381.128906 L 403.660156 381.128906 Z M 403.660156 278.359375 L 540.175781 293.257812 C 540.175781 301.378906 533.59375 307.960938 525.476562 307.960938 C 517.355469 307.960938 510.773438 301.378906 510.773438 293.257812 C 510.773438 285.140625 517.355469 278.558594 525.476562 278.558594 C 533.59375 278.558594 540.175781 285.140625 540.175781 293.257812 Z M 403.660156 278.359375 "/>
</clipPath>
<clipPath id="clip75">
  <path d="M 403.660156 278.359375 L 654.628906 278.359375 L 654.628906 381.128906 L 403.660156 381.128906 Z M 403.660156 278.359375 L 547.515625 366.234375 C 547.515625 374.351562 540.933594 380.933594 532.816406 380.933594 C 524.695312 380.933594 518.117188 374.351562 518.117188 366.234375 C 518.117188 358.117188 524.695312 351.535156 532.816406 351.535156 C 540.933594 351.535156 547.515625 358.117188 547.515625 366.234375 Z M 403.660156 278.359375 "/>
</clipPath>
<clipPath id="clip76">
  <path d="M 46 139 L 158 139 L 158 278 L 46 278 Z M 46 139 "/>
</clipPath>
<clipPath id="clip77">
  <path d="M -21.667969 125.242188 L 225.933594 125.242188 L 225.933594 291.59375 L -21.667969 291.59375 Z M -21.667969 125.242188 L 130.394531 236.109375 C 130.394531 244.230469 123.8125 250.808594 115.695312 250.808594 C 107.574219 250.808594 100.996094 244.230469 100.996094 236.109375 C 100.996094 227.992188 107.574219 221.410156 115.695312 221.410156 C 123.8125 221.410156 130.394531 227.992188 130.394531 236.109375 Z M -21.667969 125.242188 "/>
</clipPath>
<clipPath id="clip78">
  <path d="M -21.667969 125.242188 L 225.933594 125.242188 L 225.933594 291.59375 L -21.667969 291.59375 Z M -21.667969 125.242188 L 103.273438 180.730469 C 103.273438 188.847656 96.691406 195.429688 88.574219 195.429688 C 80.453125 195.429688 73.875 188.847656 73.875 180.730469 C 73.875 172.613281 80.453125 166.03125 88.574219 166.03125 C 96.691406 166.03125 103.273438 172.613281 103.273438 180.730469 Z M -21.667969 125.242188 "/>
</clipPath>
<clipPath id="clip79">
  <path d="M 37.949219 183 L 144.230469 183 L 144.230469 278 L 37.949219 278 Z M 37.949219 183 "/>
</clipPath>
<clipPath id="clip80">
  <path d="M 37.949219 105.671875 L 144.230469 105.671875 L 144.230469 355.75 L 37.949219 355.75 Z M 37.949219 105.671875 L 130.394531 236.109375 C 130.394531 244.230469 123.8125 250.808594 115.695312 250.808594 C 107.574219 250.808594 100.996094 244.230469 100.996094 236.109375 C 100.996094 227.992188 107.574219 221.410156 115.695312 221.410156 C 123.8125 221.410156 130.394531 227.992188 130.394531 236.109375 Z M 37.949219 105.671875 "/>
</clipPath>
<clipPath id="clip81">
  <path d="M 37.949219 105.671875 L 144.230469 105.671875 L 144.230469 355.75 L 37.949219 355.75 Z M 37.949219 105.671875 L 81.1875 225.316406 C 81.1875 233.433594 74.609375 240.015625 66.488281 240.015625 C 58.371094 240.015625 51.789062 233.433594 51.789062 225.316406 C 51.789062 217.199219 58.371094 210.617188 66.488281 210.617188 C 74.609375 210.617188 81.1875 217.199219 81.1875 225.316406 Z M 37.949219 105.671875 "/>
</clipPath>
<clipPath id="clip82">
  <path d="M 34 194 L 158 194 L 158 367 L 34 367 Z M 34 194 "/>
</clipPath>
<clipPath id="clip83">
  <path d="M -36.03125 184.40625 L 227.703125 184.40625 L 227.703125 376.640625 L -36.03125 376.640625 Z M -36.03125 184.40625 L 130.394531 236.109375 C 130.394531 244.230469 123.8125 250.808594 115.695312 250.808594 C 107.574219 250.808594 100.996094 244.230469 100.996094 236.109375 C 100.996094 227.992188 107.574219 221.410156 115.695312 221.410156 C 123.8125 221.410156 130.394531 227.992188 130.394531 236.109375 Z M -36.03125 184.40625 "/>
</clipPath>
<clipPath id="clip84">
  <path d="M -36.03125 184.40625 L 227.703125 184.40625 L 227.703125 376.640625 L -36.03125 376.640625 Z M -36.03125 184.40625 L 90.679688 324.941406 C 90.679688 333.0625 84.097656 339.640625 75.980469 339.640625 C 67.859375 339.640625 61.28125 333.0625 61.28125 324.941406 C 61.28125 316.824219 67.859375 310.242188 75.980469 310.242188 C 84.097656 310.242188 90.679688 316.824219 90.679688 324.941406 Z M -36.03125 184.40625 "/>
</clipPath>
<clipPath id="clip85">
  <path d="M 376 377.277344 L 474 377.277344 L 474 499.316406 L 376 499.316406 Z M 376 377.277344 "/>
</clipPath>
<clipPath id="clip86">
  <path d="M 298.21875 377.277344 L 552.261719 377.277344 L 552.261719 499.316406 L 298.21875 499.316406 Z M 298.21875 377.277344 L 446.878906 472.910156 C 446.878906 481.027344 440.296875 487.609375 432.175781 487.609375 C 424.058594 487.609375 417.476562 481.027344 417.476562 472.910156 C 417.476562 464.789062 424.058594 458.210938 432.175781 458.210938 C 440.296875 458.210938 446.878906 464.789062 446.878906 472.910156 Z M 298.21875 377.277344 "/>
</clipPath>
<clipPath id="clip87">
  <path d="M 298.21875 377.277344 L 552.261719 377.277344 L 552.261719 499.316406 L 298.21875 499.316406 Z M 298.21875 377.277344 L 433.007812 403.6875 C 433.007812 411.808594 426.425781 418.386719 418.308594 418.386719 C 410.1875 418.386719 403.605469 411.808594 403.605469 403.6875 C 403.605469 395.570312 410.1875 388.988281 418.308594 388.988281 C 426.425781 388.988281 433.007812 395.570312 433.007812 403.6875 Z M 298.21875 377.277344 "/>
</clipPath>
<clipPath id="clip88">
  <path d="M 390 453.4375 L 480 453.4375 L 480 533.671875 L 390 533.671875 Z M 390 453.4375 "/>
</clipPath>
<clipPath id="clip89">
  <path d="M 310.910156 453.4375 L 559.207031 453.4375 L 559.207031 533.671875 L 310.910156 533.671875 Z M 310.910156 453.4375 L 446.878906 472.910156 C 446.878906 481.027344 440.296875 487.609375 432.175781 487.609375 C 424.058594 487.609375 417.476562 481.027344 417.476562 472.910156 C 417.476562 464.789062 424.058594 458.210938 432.175781 458.210938 C 440.296875 458.210938 446.878906 464.789062 446.878906 472.910156 Z M 310.910156 453.4375 "/>
</clipPath>
<clipPath id="clip90">
  <path d="M 310.910156 453.4375 L 559.207031 453.4375 L 559.207031 533.671875 L 310.910156 533.671875 Z M 310.910156 453.4375 L 452.644531 514.203125 C 452.644531 522.324219 446.0625 528.90625 437.945312 528.90625 C 429.824219 528.90625 423.242188 522.324219 423.242188 514.203125 C 423.242188 506.085938 429.824219 499.503906 437.945312 499.503906 C 446.0625 499.503906 452.644531 506.085938 452.644531 514.203125 Z M 310.910156 453.4375 "/>
</clipPath>
<clipPath id="clip91">
  <path d="M 359 282.691406 L 460 282.691406 L 460 427.425781 L 359 427.425781 Z M 359 282.691406 "/>
</clipPath>
<clipPath id="clip92">
  <path d="M 280.519531 282.691406 L 538.898438 282.691406 L 538.898438 427.425781 L 280.519531 427.425781 Z M 280.519531 282.691406 L 433.007812 403.6875 C 433.007812 411.808594 426.425781 418.386719 418.308594 418.386719 C 410.1875 418.386719 403.605469 411.808594 403.605469 403.6875 C 403.605469 395.570312 410.1875 388.988281 418.308594 388.988281 C 426.425781 388.988281 433.007812 395.570312 433.007812 403.6875 Z M 280.519531 282.691406 "/>
</clipPath>
<clipPath id="clip93">
  <path d="M 280.519531 282.691406 L 538.898438 282.691406 L 538.898438 427.425781 L 280.519531 427.425781 Z M 280.519531 282.691406 L 415.8125 306.433594 C 415.8125 314.554688 409.230469 321.132812 401.113281 321.132812 C 392.992188 321.132812 386.410156 314.554688 386.410156 306.433594 C 386.410156 298.316406 392.992188 291.734375 401.113281 291.734375 C 409.230469 291.734375 415.8125 298.316406 415.8125 306.433594 Z M 280.519531 282.691406 "/>
</clipPath>
<clipPath id="clip94">
  <path d="M 165 0 L 269 0 L 269 107 L 165 107 Z M 165 0 "/>
</clipPath>
<clipPath id="clip95">
  <path d="M 104.296875 -33.640625 L 330.167969 -33.640625 L 330.167969 133.140625 L 104.296875 133.140625 Z M 104.296875 -33.640625 L 241.84375 34.550781 C 241.84375 42.667969 235.261719 49.25 227.144531 49.25 C 219.027344 49.25 212.445312 42.667969 212.445312 34.550781 C 212.445312 26.433594 219.027344 19.851562 227.144531 19.851562 C 235.261719 19.851562 241.84375 26.433594 241.84375 34.550781 Z M 104.296875 -33.640625 "/>
</clipPath>
<clipPath id="clip96">
  <path d="M 104.296875 -33.640625 L 330.167969 -33.640625 L 330.167969 133.140625 L 104.296875 133.140625 Z M 104.296875 -33.640625 L 222.023438 64.953125 C 222.023438 73.074219 215.441406 79.652344 207.324219 79.652344 C 199.207031 79.652344 192.625 73.074219 192.625 64.953125 C 192.625 56.835938 199.207031 50.253906 207.324219 50.253906 C 215.441406 50.253906 222.023438 56.835938 222.023438 64.953125 Z M 104.296875 -33.640625 "/>
</clipPath>
<clipPath id="clip97">
  <path d="M 165 52.101562 L 254 52.101562 L 254 132.75 L 165 132.75 Z M 165 52.101562 "/>
</clipPath>
<clipPath id="clip98">
  <path d="M 85.320312 52.101562 L 333.898438 52.101562 L 333.898438 132.75 L 85.320312 132.75 Z M 85.320312 52.101562 L 226.601562 119.902344 C 226.601562 128.019531 220.019531 134.601562 211.898438 134.601562 C 203.78125 134.601562 197.199219 128.019531 197.199219 119.902344 C 197.199219 111.785156 203.78125 105.203125 211.898438 105.203125 C 220.019531 105.203125 226.601562 111.785156 226.601562 119.902344 Z M 85.320312 52.101562 "/>
</clipPath>
<clipPath id="clip99">
  <path d="M 85.320312 52.101562 L 333.898438 52.101562 L 333.898438 132.75 L 85.320312 132.75 Z M 85.320312 52.101562 L 222.023438 64.953125 C 222.023438 73.074219 215.441406 79.652344 207.324219 79.652344 C 199.207031 79.652344 192.625 73.074219 192.625 64.953125 C 192.625 56.835938 199.207031 50.253906 207.324219 50.253906 C 215.441406 50.253906 222.023438 56.835938 222.023438 64.953125 Z M 85.320312 52.101562 "/>
</clipPath>
<clipPath id="clip100">
  <path d="M 490 361.179688 L 575 361.179688 L 575 418.792969 L 490 418.792969 Z M 490 361.179688 "/>
</clipPath>
<clipPath id="clip101">
  <path d="M 409.578125 361.179688 L 655.210938 361.179688 L 655.210938 418.792969 L 409.578125 418.792969 Z M 409.578125 361.179688 L 547.515625 366.234375 C 547.515625 374.351562 540.933594 380.933594 532.816406 380.933594 C 524.695312 380.933594 518.117188 374.351562 518.117188 366.234375 C 518.117188 358.117188 524.695312 351.535156 532.816406 351.535156 C 540.933594 351.535156 547.515625 358.117188 547.515625 366.234375 Z M 409.578125 361.179688 "/>
</clipPath>
<clipPath id="clip102">
  <path d="M 409.578125 361.179688 L 655.210938 361.179688 L 655.210938 418.792969 L 409.578125 418.792969 Z M 409.578125 361.179688 L 546.675781 413.742188 C 546.675781 421.859375 540.09375 428.441406 531.976562 428.441406 C 523.855469 428.441406 517.277344 421.859375 517.277344 413.742188 C 517.277344 405.621094 523.855469 399.039062 531.976562 399.039062 C 540.09375 399.039062 546.675781 405.621094 546.675781 413.742188 Z M 409.578125 361.179688 "/>
</clipPath>
<clipPath id="clip103">
  <path d="M 11.578125 283 L 104.453125 283 L 104.453125 375 L 11.578125 375 Z M 11.578125 283 "/>
</clipPath>
<clipPath id="clip104">
  <path d="M 11.578125 205.285156 L 104.453125 205.285156 L 104.453125 452.453125 L 11.578125 452.453125 Z M 11.578125 205.285156 L 54.757812 332.800781 C 54.757812 340.917969 48.175781 347.5 40.054688 347.5 C 31.9375 347.5 25.355469 340.917969 25.355469 332.800781 C 25.355469 324.683594 31.9375 318.101562 40.054688 318.101562 C 48.175781 318.101562 54.757812 324.683594 54.757812 332.800781 Z M 11.578125 205.285156 "/>
</clipPath>
<clipPath id="clip105">
  <path d="M 11.578125 205.285156 L 104.453125 205.285156 L 104.453125 452.453125 L 11.578125 452.453125 Z M 11.578125 205.285156 L 90.679688 324.941406 C 90.679688 333.0625 84.097656 339.640625 75.980469 339.640625 C 67.859375 339.640625 61.28125 333.0625 61.28125 324.941406 C 61.28125 316.824219 67.859375 310.242188 75.980469 310.242188 C 84.097656 310.242188 90.679688 316.824219 90.679688 324.941406 Z M 11.578125 205.285156 "/>
</clipPath>
<clipPath id="clip106">
  <path d="M 32 382.601562 L 122 382.601562 L 122 464.132812 L 32 464.132812 Z M 32 382.601562 "/>
</clipPath>
<clipPath id="clip107">
  <path d="M -47.292969 382.601562 L 201.503906 382.601562 L 201.503906 464.132812 L -47.292969 464.132812 Z M -47.292969 382.601562 L 94.632812 447.015625 C 94.632812 455.136719 88.050781 461.71875 79.933594 461.71875 C 71.8125 461.71875 65.230469 455.136719 65.230469 447.015625 C 65.230469 438.898438 71.8125 432.316406 79.933594 432.316406 C 88.050781 432.316406 94.632812 438.898438 94.632812 447.015625 Z M -47.292969 382.601562 "/>
</clipPath>
<clipPath id="clip108">
  <path d="M -47.292969 382.601562 L 201.503906 382.601562 L 201.503906 464.132812 L -47.292969 464.132812 Z M -47.292969 382.601562 L 88.980469 399.722656 C 88.980469 407.839844 82.398438 414.421875 74.28125 414.421875 C 66.160156 414.421875 59.578125 407.839844 59.578125 399.722656 C 59.578125 391.605469 66.160156 385.023438 74.28125 385.023438 C 82.398438 385.023438 88.980469 391.605469 88.980469 399.722656 Z M -47.292969 382.601562 "/>
</clipPath>
<clipPath id="clip109">
  <path d="M 32 319.285156 L 118 319.285156 L 118 405.375 L 32 405.375 Z M 32 319.285156 "/>
</clipPath>
<clipPath id="clip110">
  <path d="M -48.105469 319.285156 L 198.363281 319.285156 L 198.363281 405.375 L -48.105469 405.375 Z M -48.105469 319.285156 L 88.980469 399.722656 C 88.980469 407.839844 82.398438 414.421875 74.28125 414.421875 C 66.160156 414.421875 59.578125 407.839844 59.578125 399.722656 C 59.578125 391.605469 66.160156 385.023438 74.28125 385.023438 C 82.398438 385.023438 88.980469 391.605469 88.980469 399.722656 Z M -48.105469 319.285156 "/>
</clipPath>
<clipPath id="clip111">
  <path d="M -48.105469 319.285156 L 198.363281 319.285156 L 198.363281 405.375 L -48.105469 405.375 Z M -48.105469 319.285156 L 90.679688 324.941406 C 90.679688 333.0625 84.097656 339.640625 75.980469 339.640625 C 67.859375 339.640625 61.28125 333.0625 61.28125 324.941406 C 61.28125 316.824219 67.859375 310.242188 75.980469 310.242188 C 84.097656 310.242188 90.679688 316.824219 90.679688 324.941406 Z M -48.105469 319.285156 "/>
</clipPath>
</defs>
<g id="surface826">
<g clip-path="url(#clip1)" clip-rule="nonzero">
<g clip-path="url(#clip2)" clip-rule="evenodd">
<g clip-path="url(#clip3)" clip-rule="evenodd">
<path style="fill:none;stroke-width:0.0246073;stroke-linecap:butt;stroke-linejoin:miter;stroke:rgb(17.96875%,20.3125%,21.09375%);stroke-opacity:0.8;stroke-miterlimit:10;" d="M 2.444876 4.443847 L 2.215946 3.933152 " transform="matrix(119.475538,0,0,119.475538,-25.481812,10.98694)"/>
</g>
</g>
</g>
<g clip-path="url(#clip4)" clip-rule="nonzero">
<g clip-path="url(#clip5)" clip-rule="evenodd">
<g clip-path="url(#clip6)" clip-rule="evenodd">
<path style="fill:none;stroke-width:0.0246073;stroke-linecap:butt;stroke-linejoin:miter;stroke:rgb(17.96875%,20.3125%,21.09375%);stroke-opacity:0.8;stroke-miterlimit:10;" d="M 2.444876 4.443847 L 2.179099 4.640802 " transform="matrix(119.475538,0,0,119.475538,-25.481812,10.98694)"/>
</g>
</g>
</g>
<g clip-path="url(#clip7)" clip-rule="nonzero">
<g clip-path="url(#clip8)" clip-rule="evenodd">
<g clip-path="url(#clip9)" clip-rule="evenodd">
<path style="fill:none;stroke-width:0.0246073;stroke-linecap:butt;stroke-linejoin:miter;stroke:rgb(17.96875%,20.3125%,21.09375%);stroke-opacity:0.8;stroke-miterlimit:10;" d="M 2.444876 4.443847 L 2.836137 4.597677 " transform="matrix(119.475538,0,0,119.475538,-25.481812,10.98694)"/>
</g>
</g>
</g>
<g clip-path="url(#clip10)" clip-rule="nonzero">
<g clip-path="url(#clip11)" clip-rule="evenodd">
<g clip-path="url(#clip12)" clip-rule="evenodd">
<path style="fill:none;stroke-width:0.0246073;stroke-linecap:butt;stroke-linejoin:miter;stroke:rgb(17.96875%,20.3125%,21.09375%);stroke-opacity:0.8;stroke-miterlimit:10;" d="M 2.181486 2.879098 L 1.991626 3.514852 " transform="matrix(119.475538,0,0,119.475538,-25.481812,10.98694)"/>
</g>
</g>
</g>
<g clip-path="url(#clip13)" clip-rule="nonzero">
<g clip-path="url(#clip14)" clip-rule="evenodd">
<g clip-path="url(#clip15)" clip-rule="evenodd">
<path style="fill:none;stroke-width:0.0246073;stroke-linecap:butt;stroke-linejoin:miter;stroke:rgb(17.96875%,20.3125%,21.09375%);stroke-opacity:0.8;stroke-miterlimit:10;" d="M 2.181486 2.879098 L 2.313933 3.464502 " transform="matrix(119.475538,0,0,119.475538,-25.481812,10.98694)"/>
</g>
</g>
</g>
<g clip-path="url(#clip16)" clip-rule="nonzero">
<g clip-path="url(#clip17)" clip-rule="evenodd">
<g clip-path="url(#clip18)" clip-rule="evenodd">
<path style="fill:none;stroke-width:0.0246073;stroke-linecap:butt;stroke-linejoin:miter;stroke:rgb(17.96875%,20.3125%,21.09375%);stroke-opacity:0.8;stroke-miterlimit:10;" d="M 2.181486 2.879098 L 2.264106 1.690963 " transform="matrix(119.475538,0,0,119.475538,-25.481812,10.98694)"/>
</g>
</g>
</g>
<g clip-path="url(#clip19)" clip-rule="nonzero">
<g clip-path="url(#clip20)" clip-rule="evenodd">
<g clip-path="url(#clip21)" clip-rule="evenodd">
<path style="fill:none;stroke-width:0.0246073;stroke-linecap:butt;stroke-linejoin:miter;stroke:rgb(17.96875%,20.3125%,21.09375%);stroke-opacity:0.8;stroke-miterlimit:10;" d="M 1.991626 3.514852 L 2.215946 3.933152 " transform="matrix(119.475538,0,0,119.475538,-25.481812,10.98694)"/>
</g>
</g>
</g>
<g clip-path="url(#clip22)" clip-rule="nonzero">
<g clip-path="url(#clip23)" clip-rule="evenodd">
<g clip-path="url(#clip24)" clip-rule="evenodd">
<path style="fill:none;stroke-width:0.0246073;stroke-linecap:butt;stroke-linejoin:miter;stroke:rgb(17.96875%,20.3125%,21.09375%);stroke-opacity:0.8;stroke-miterlimit:10;" d="M 2.215946 3.933152 L 2.313933 3.464502 " transform="matrix(119.475538,0,0,119.475538,-25.481812,10.98694)"/>
</g>
</g>
</g>
<g clip-path="url(#clip25)" clip-rule="nonzero">
<g clip-path="url(#clip26)" clip-rule="evenodd">
<g clip-path="url(#clip27)" clip-rule="evenodd">
<path style="fill:none;stroke-width:0.0246073;stroke-linecap:butt;stroke-linejoin:miter;stroke:rgb(17.96875%,20.3125%,21.09375%);stroke-opacity:0.8;stroke-miterlimit:10;" d="M 3.232793 1.006918 L 3.397771 1.437936 " transform="matrix(119.475538,0,0,119.475538,-25.481812,10.98694)"/>
</g>
</g>
</g>
<g clip-path="url(#clip28)" clip-rule="nonzero">
<g clip-path="url(#clip29)" clip-rule="evenodd">
<g clip-path="url(#clip30)" clip-rule="evenodd">
<path style="fill:none;stroke-width:0.0246073;stroke-linecap:butt;stroke-linejoin:miter;stroke:rgb(17.96875%,20.3125%,21.09375%);stroke-opacity:0.8;stroke-miterlimit:10;" d="M 3.232793 1.006918 L 2.909799 1.33547 " transform="matrix(119.475538,0,0,119.475538,-25.481812,10.98694)"/>
</g>
</g>
</g>
<g clip-path="url(#clip31)" clip-rule="nonzero">
<g clip-path="url(#clip32)" clip-rule="evenodd">
<g clip-path="url(#clip33)" clip-rule="evenodd">
<path style="fill:none;stroke-width:0.0246073;stroke-linecap:butt;stroke-linejoin:miter;stroke:rgb(17.96875%,20.3125%,21.09375%);stroke-opacity:0.8;stroke-miterlimit:10;" d="M 3.232793 1.006918 L 3.421966 0.795153 " transform="matrix(119.475538,0,0,119.475538,-25.481812,10.98694)"/>
</g>
</g>
</g>
<g clip-path="url(#clip34)" clip-rule="nonzero">
<g clip-path="url(#clip35)" clip-rule="evenodd">
<g clip-path="url(#clip36)" clip-rule="evenodd">
<path style="fill:none;stroke-width:0.0246073;stroke-linecap:butt;stroke-linejoin:miter;stroke:rgb(17.96875%,20.3125%,21.09375%);stroke-opacity:0.8;stroke-miterlimit:10;" d="M 4.561418 1.426133 L 4.254772 1.723854 " transform="matrix(119.475538,0,0,119.475538,-25.481812,10.98694)"/>
</g>
</g>
</g>
<g clip-path="url(#clip37)" clip-rule="nonzero">
<g clip-path="url(#clip38)" clip-rule="evenodd">
<g clip-path="url(#clip39)" clip-rule="evenodd">
<path style="fill:none;stroke-width:0.0246073;stroke-linecap:butt;stroke-linejoin:miter;stroke:rgb(17.96875%,20.3125%,21.09375%);stroke-opacity:0.8;stroke-miterlimit:10;" d="M 3.397771 1.437936 L 4.254772 1.723854 " transform="matrix(119.475538,0,0,119.475538,-25.481812,10.98694)"/>
</g>
</g>
</g>
<g clip-path="url(#clip40)" clip-rule="nonzero">
<g clip-path="url(#clip41)" clip-rule="evenodd">
<g clip-path="url(#clip42)" clip-rule="evenodd">
<path style="fill:none;stroke-width:0.0246073;stroke-linecap:butt;stroke-linejoin:miter;stroke:rgb(17.96875%,20.3125%,21.09375%);stroke-opacity:0.8;stroke-miterlimit:10;" d="M 3.397771 1.437936 L 2.909799 1.33547 " transform="matrix(119.475538,0,0,119.475538,-25.481812,10.98694)"/>
</g>
</g>
</g>
<g clip-path="url(#clip43)" clip-rule="nonzero">
<g clip-path="url(#clip44)" clip-rule="evenodd">
<g clip-path="url(#clip45)" clip-rule="evenodd">
<path style="fill:none;stroke-width:0.0246073;stroke-linecap:butt;stroke-linejoin:miter;stroke:rgb(17.96875%,20.3125%,21.09375%);stroke-opacity:0.8;stroke-miterlimit:10;" d="M 3.397771 1.437936 L 2.264106 1.690963 " transform="matrix(119.475538,0,0,119.475538,-25.481812,10.98694)"/>
</g>
</g>
</g>
<g clip-path="url(#clip46)" clip-rule="nonzero">
<g clip-path="url(#clip47)" clip-rule="evenodd">
<g clip-path="url(#clip48)" clip-rule="evenodd">
<path style="fill:none;stroke-width:0.0246073;stroke-linecap:butt;stroke-linejoin:miter;stroke:rgb(17.96875%,20.3125%,21.09375%);stroke-opacity:0.8;stroke-miterlimit:10;" d="M 3.397771 1.437936 L 3.421966 0.795153 " transform="matrix(119.475538,0,0,119.475538,-25.481812,10.98694)"/>
</g>
</g>
</g>
<g clip-path="url(#clip49)" clip-rule="nonzero">
<g clip-path="url(#clip50)" clip-rule="evenodd">
<g clip-path="url(#clip51)" clip-rule="evenodd">
<path style="fill:none;stroke-width:0.0246073;stroke-linecap:butt;stroke-linejoin:miter;stroke:rgb(17.96875%,20.3125%,21.09375%);stroke-opacity:0.8;stroke-miterlimit:10;" d="M 3.397771 1.437936 L 3.87417 0.94434 " transform="matrix(119.475538,0,0,119.475538,-25.481812,10.98694)"/>
</g>
</g>
</g>
<g clip-path="url(#clip52)" clip-rule="nonzero">
<g clip-path="url(#clip53)" clip-rule="evenodd">
<g clip-path="url(#clip54)" clip-rule="evenodd">
<path style="fill:none;stroke-width:0.0246073;stroke-linecap:butt;stroke-linejoin:miter;stroke:rgb(17.96875%,20.3125%,21.09375%);stroke-opacity:0.8;stroke-miterlimit:10;" d="M 3.397771 1.437936 L 3.570564 2.472863 " transform="matrix(119.475538,0,0,119.475538,-25.481812,10.98694)"/>
</g>
</g>
</g>
<g clip-path="url(#clip55)" clip-rule="nonzero">
<g clip-path="url(#clip56)" clip-rule="evenodd">
<g clip-path="url(#clip57)" clip-rule="evenodd">
<path style="fill:none;stroke-width:0.0246073;stroke-linecap:butt;stroke-linejoin:miter;stroke:rgb(17.96875%,20.3125%,21.09375%);stroke-opacity:0.8;stroke-miterlimit:10;" d="M 4.254772 1.723854 L 4.611474 2.362583 " transform="matrix(119.475538,0,0,119.475538,-25.481812,10.98694)"/>
</g>
</g>
</g>
<g clip-path="url(#clip58)" clip-rule="nonzero">
<g clip-path="url(#clip59)" clip-rule="evenodd">
<g clip-path="url(#clip60)" clip-rule="evenodd">
<path style="fill:none;stroke-width:0.0246073;stroke-linecap:butt;stroke-linejoin:miter;stroke:rgb(17.96875%,20.3125%,21.09375%);stroke-opacity:0.8;stroke-miterlimit:10;" d="M 2.909799 1.33547 L 2.264106 1.690963 " transform="matrix(119.475538,0,0,119.475538,-25.481812,10.98694)"/>
</g>
</g>
</g>
<g clip-path="url(#clip61)" clip-rule="nonzero">
<g clip-path="url(#clip62)" clip-rule="evenodd">
<g clip-path="url(#clip63)" clip-rule="evenodd">
<path style="fill:none;stroke-width:0.0246073;stroke-linecap:butt;stroke-linejoin:miter;stroke:rgb(17.96875%,20.3125%,21.09375%);stroke-opacity:0.8;stroke-miterlimit:10;" d="M 2.264106 1.690963 L 1.924797 1.59072 " transform="matrix(119.475538,0,0,119.475538,-25.481812,10.98694)"/>
</g>
</g>
</g>
<g clip-path="url(#clip64)" clip-rule="nonzero">
<g clip-path="url(#clip65)" clip-rule="evenodd">
<g clip-path="url(#clip66)" clip-rule="evenodd">
<path style="fill:none;stroke-width:0.0246073;stroke-linecap:butt;stroke-linejoin:miter;stroke:rgb(17.96875%,20.3125%,21.09375%);stroke-opacity:0.8;stroke-miterlimit:10;" d="M 2.264106 1.690963 L 1.18164 1.884255 " transform="matrix(119.475538,0,0,119.475538,-25.481812,10.98694)"/>
</g>
</g>
</g>
<g clip-path="url(#clip67)" clip-rule="nonzero">
<g clip-path="url(#clip68)" clip-rule="evenodd">
<g clip-path="url(#clip69)" clip-rule="evenodd">
<path style="fill:none;stroke-width:0.0246073;stroke-linecap:butt;stroke-linejoin:miter;stroke:rgb(17.96875%,20.3125%,21.09375%);stroke-opacity:0.8;stroke-miterlimit:10;" d="M 2.264106 1.690963 L 1.986852 0.911613 " transform="matrix(119.475538,0,0,119.475538,-25.481812,10.98694)"/>
</g>
</g>
</g>
<g clip-path="url(#clip70)" clip-rule="nonzero">
<g clip-path="url(#clip71)" clip-rule="evenodd">
<g clip-path="url(#clip72)" clip-rule="evenodd">
<path style="fill:none;stroke-width:0.0246073;stroke-linecap:butt;stroke-linejoin:miter;stroke:rgb(17.96875%,20.3125%,21.09375%);stroke-opacity:0.8;stroke-miterlimit:10;" d="M 4.899975 2.342345 L 4.611474 2.362583 " transform="matrix(119.475538,0,0,119.475538,-25.481812,10.98694)"/>
</g>
</g>
</g>
<g clip-path="url(#clip73)" clip-rule="nonzero">
<g clip-path="url(#clip74)" clip-rule="evenodd">
<g clip-path="url(#clip75)" clip-rule="evenodd">
<path style="fill:none;stroke-width:0.0246073;stroke-linecap:butt;stroke-linejoin:miter;stroke:rgb(17.96875%,20.3125%,21.09375%);stroke-opacity:0.8;stroke-miterlimit:10;" d="M 4.611474 2.362583 L 4.672908 2.973391 " transform="matrix(119.475538,0,0,119.475538,-25.481812,10.98694)"/>
</g>
</g>
</g>
<g clip-path="url(#clip76)" clip-rule="nonzero">
<g clip-path="url(#clip77)" clip-rule="evenodd">
<g clip-path="url(#clip78)" clip-rule="evenodd">
<path style="fill:none;stroke-width:0.0246073;stroke-linecap:butt;stroke-linejoin:miter;stroke:rgb(17.96875%,20.3125%,21.09375%);stroke-opacity:0.8;stroke-miterlimit:10;" d="M 1.18164 1.884255 L 0.954639 1.420739 " transform="matrix(119.475538,0,0,119.475538,-25.481812,10.98694)"/>
</g>
</g>
</g>
<g clip-path="url(#clip79)" clip-rule="nonzero">
<g clip-path="url(#clip80)" clip-rule="evenodd">
<g clip-path="url(#clip81)" clip-rule="evenodd">
<path style="fill:none;stroke-width:0.0246073;stroke-linecap:butt;stroke-linejoin:miter;stroke:rgb(17.96875%,20.3125%,21.09375%);stroke-opacity:0.8;stroke-miterlimit:10;" d="M 1.18164 1.884255 L 0.769782 1.793919 " transform="matrix(119.475538,0,0,119.475538,-25.481812,10.98694)"/>
</g>
</g>
</g>
<g clip-path="url(#clip82)" clip-rule="nonzero">
<g clip-path="url(#clip83)" clip-rule="evenodd">
<g clip-path="url(#clip84)" clip-rule="evenodd">
<path style="fill:none;stroke-width:0.0246073;stroke-linecap:butt;stroke-linejoin:miter;stroke:rgb(17.96875%,20.3125%,21.09375%);stroke-opacity:0.8;stroke-miterlimit:10;" d="M 1.18164 1.884255 L 0.849231 2.627772 " transform="matrix(119.475538,0,0,119.475538,-25.481812,10.98694)"/>
</g>
</g>
</g>
<g clip-path="url(#clip85)" clip-rule="nonzero">
<g clip-path="url(#clip86)" clip-rule="evenodd">
<g clip-path="url(#clip87)" clip-rule="evenodd">
<path style="fill:none;stroke-width:0.0246073;stroke-linecap:butt;stroke-linejoin:miter;stroke:rgb(17.96875%,20.3125%,21.09375%);stroke-opacity:0.8;stroke-miterlimit:10;" d="M 3.830555 3.866258 L 3.714488 3.28687 " transform="matrix(119.475538,0,0,119.475538,-25.481812,10.98694)"/>
</g>
</g>
</g>
<g clip-path="url(#clip88)" clip-rule="nonzero">
<g clip-path="url(#clip89)" clip-rule="evenodd">
<g clip-path="url(#clip90)" clip-rule="evenodd">
<path style="fill:none;stroke-width:0.0246073;stroke-linecap:butt;stroke-linejoin:miter;stroke:rgb(17.96875%,20.3125%,21.09375%);stroke-opacity:0.8;stroke-miterlimit:10;" d="M 3.830555 3.866258 L 3.878845 4.211876 " transform="matrix(119.475538,0,0,119.475538,-25.481812,10.98694)"/>
</g>
</g>
</g>
<g clip-path="url(#clip91)" clip-rule="nonzero">
<g clip-path="url(#clip92)" clip-rule="evenodd">
<g clip-path="url(#clip93)" clip-rule="evenodd">
<path style="fill:none;stroke-width:0.0246073;stroke-linecap:butt;stroke-linejoin:miter;stroke:rgb(17.96875%,20.3125%,21.09375%);stroke-opacity:0.8;stroke-miterlimit:10;" d="M 3.714488 3.28687 L 3.570564 2.472863 " transform="matrix(119.475538,0,0,119.475538,-25.481812,10.98694)"/>
</g>
</g>
</g>
<g clip-path="url(#clip94)" clip-rule="nonzero">
<g clip-path="url(#clip95)" clip-rule="evenodd">
<g clip-path="url(#clip96)" clip-rule="evenodd">
<path style="fill:none;stroke-width:0.0246073;stroke-linecap:butt;stroke-linejoin:miter;stroke:rgb(17.96875%,20.3125%,21.09375%);stroke-opacity:0.8;stroke-miterlimit:10;" d="M 2.114461 0.197227 L 1.948567 0.451692 " transform="matrix(119.475538,0,0,119.475538,-25.481812,10.98694)"/>
</g>
</g>
</g>
<g clip-path="url(#clip97)" clip-rule="nonzero">
<g clip-path="url(#clip98)" clip-rule="evenodd">
<g clip-path="url(#clip99)" clip-rule="evenodd">
<path style="fill:none;stroke-width:0.0246073;stroke-linecap:butt;stroke-linejoin:miter;stroke:rgb(17.96875%,20.3125%,21.09375%);stroke-opacity:0.8;stroke-miterlimit:10;" d="M 1.986852 0.911613 L 1.948567 0.451692 " transform="matrix(119.475538,0,0,119.475538,-25.481812,10.98694)"/>
</g>
</g>
</g>
<g clip-path="url(#clip100)" clip-rule="nonzero">
<g clip-path="url(#clip101)" clip-rule="evenodd">
<g clip-path="url(#clip102)" clip-rule="evenodd">
<path style="fill:none;stroke-width:0.0246073;stroke-linecap:butt;stroke-linejoin:miter;stroke:rgb(17.96875%,20.3125%,21.09375%);stroke-opacity:0.8;stroke-miterlimit:10;" d="M 4.672908 2.973391 L 4.665879 3.371027 " transform="matrix(119.475538,0,0,119.475538,-25.481812,10.98694)"/>
</g>
</g>
</g>
<g clip-path="url(#clip103)" clip-rule="nonzero">
<g clip-path="url(#clip104)" clip-rule="evenodd">
<g clip-path="url(#clip105)" clip-rule="evenodd">
<path style="fill:none;stroke-width:0.0246073;stroke-linecap:butt;stroke-linejoin:miter;stroke:rgb(17.96875%,20.3125%,21.09375%);stroke-opacity:0.8;stroke-miterlimit:10;" d="M 0.548535 2.693554 L 0.849231 2.627772 " transform="matrix(119.475538,0,0,119.475538,-25.481812,10.98694)"/>
</g>
</g>
</g>
<g clip-path="url(#clip106)" clip-rule="nonzero">
<g clip-path="url(#clip107)" clip-rule="evenodd">
<g clip-path="url(#clip108)" clip-rule="evenodd">
<path style="fill:none;stroke-width:0.0246073;stroke-linecap:butt;stroke-linejoin:miter;stroke:rgb(17.96875%,20.3125%,21.09375%);stroke-opacity:0.8;stroke-miterlimit:10;" d="M 0.882318 3.649523 L 0.835008 3.253685 " transform="matrix(119.475538,0,0,119.475538,-25.481812,10.98694)"/>
</g>
</g>
</g>
<g clip-path="url(#clip109)" clip-rule="nonzero">
<g clip-path="url(#clip110)" clip-rule="evenodd">
<g clip-path="url(#clip111)" clip-rule="evenodd">
<path style="fill:none;stroke-width:0.0246073;stroke-linecap:butt;stroke-linejoin:miter;stroke:rgb(17.96875%,20.3125%,21.09375%);stroke-opacity:0.8;stroke-miterlimit:10;" d="M 0.835008 3.253685 L 0.849231 2.627772 " transform="matrix(119.475538,0,0,119.475538,-25.481812,10.98694)"/>
</g>
</g>
</g>
<path style="fill-rule:nonzero;fill:rgb(100%,92.941176%,43.529412%);fill-opacity:1;stroke-width:0.0246073;stroke-linecap:butt;stroke-linejoin:miter;stroke:rgb(60%,60%,60%);stroke-opacity:0.8;stroke-miterlimit:10;" d="M 0.123049 0.00000295805 C 0.123049 0.0679431 0.0679577 0.123034 -0.000015157 0.123034 C -0.0679553 0.123034 -0.123046 0.0679431 -0.123046 0.00000295805 C -0.123046 -0.0679372 -0.0679553 -0.123028 -0.000015157 -0.123028 C 0.0679577 -0.123028 0.123049 -0.0679372 0.123049 0.00000295805 Z M 0.123049 0.00000295805 " transform="matrix(119.475538,0,0,119.475538,266.622905,541.917615)"/>
<path style="fill-rule:nonzero;fill:rgb(100%,92.941176%,43.529412%);fill-opacity:1;stroke-width:0.0246073;stroke-linecap:butt;stroke-linejoin:miter;stroke:rgb(60%,60%,60%);stroke-opacity:0.8;stroke-miterlimit:10;" d="M 0.123046 0.0000117319 C 0.123046 0.0679519 0.0679553 0.123043 0.0000151815 0.123043 C -0.0679577 0.123043 -0.123049 0.0679519 -0.123049 0.0000117319 C -0.123049 -0.0679611 -0.0679577 -0.123052 0.0000151815 -0.123052 C 0.0679553 -0.123052 0.123046 -0.0679611 0.123046 0.0000117319 Z M 0.123046 0.0000117319 " transform="matrix(119.475538,0,0,119.475538,235.15053,354.967348)"/>
<path style="fill-rule:nonzero;fill:rgb(100%,92.941176%,43.529412%);fill-opacity:1;stroke-width:0.0246073;stroke-linecap:butt;stroke-linejoin:miter;stroke:rgb(60%,60%,60%);stroke-opacity:0.8;stroke-miterlimit:10;" d="M 0.123036 -0.00000797474 C 0.123036 0.0679649 0.0679448 0.123023 0.0000046473 0.123023 C -0.0679355 0.123023 -0.123027 0.0679649 -0.123027 -0.00000797474 C -0.123027 -0.0679481 -0.0679355 -0.123039 0.0000046473 -0.123039 C 0.0679448 -0.123039 0.123036 -0.0679481 0.123036 -0.00000797474 Z M 0.123036 -0.00000797474 " transform="matrix(119.475538,0,0,119.475538,212.468195,430.926734)"/>
<path style="fill-rule:nonzero;fill:rgb(100%,92.941176%,43.529412%);fill-opacity:1;stroke-width:0.0246073;stroke-linecap:butt;stroke-linejoin:miter;stroke:rgb(60%,60%,60%);stroke-opacity:0.8;stroke-miterlimit:10;" d="M 0.123045 -0.00000569372 C 0.123045 0.0679672 0.0679536 0.123026 0.000013452 0.123026 C -0.0679594 0.123026 -0.12305 0.0679672 -0.12305 -0.00000569372 C -0.12305 -0.0679459 -0.0679594 -0.123037 0.000013452 -0.123037 C 0.0679536 -0.123037 0.123045 -0.0679459 0.123045 -0.00000569372 Z M 0.123045 -0.00000569372 " transform="matrix(119.475538,0,0,119.475538,239.267924,480.903024)"/>
<path style="fill-rule:nonzero;fill:rgb(100%,92.941176%,43.529412%);fill-opacity:1;stroke-width:0.0246073;stroke-linecap:butt;stroke-linejoin:miter;stroke:rgb(60%,60%,60%);stroke-opacity:0.8;stroke-miterlimit:10;" d="M 0.123032 0.00000134963 C 0.123032 0.0679415 0.0679406 0.123033 0.000000402645 0.123033 C -0.0679398 0.123033 -0.123031 0.0679415 -0.123031 0.00000134963 C -0.123031 -0.0679388 -0.0679398 -0.12303 0.000000402645 -0.12303 C 0.0679406 -0.12303 0.123032 -0.0679388 0.123032 0.00000134963 Z M 0.123032 0.00000134963 " transform="matrix(119.475538,0,0,119.475538,250.976514,424.909995)"/>
<path style="fill-rule:nonzero;fill:rgb(55.294118%,82.745098%,78.039216%);fill-opacity:1;stroke-width:0.0246073;stroke-linecap:butt;stroke-linejoin:miter;stroke:rgb(60%,60%,60%);stroke-opacity:0.8;stroke-miterlimit:10;" d="M 0.123044 -0.00000613288 C 0.123044 0.0679667 0.0679527 0.123025 0.0000125668 0.123025 C -0.0679603 0.123025 -0.123051 0.0679667 -0.123051 -0.00000613288 C -0.123051 -0.0679463 -0.0679603 -0.123037 0.0000125668 -0.123037 C 0.0679527 -0.123037 0.123044 -0.0679463 0.123044 -0.00000613288 Z M 0.123044 -0.00000613288 " transform="matrix(119.475538,0,0,119.475538,360.756311,131.289795)"/>
<path style="fill-rule:nonzero;fill:rgb(55.294118%,82.745098%,78.039216%);fill-opacity:1;stroke-width:0.0246073;stroke-linecap:butt;stroke-linejoin:miter;stroke:rgb(60%,60%,60%);stroke-opacity:0.8;stroke-miterlimit:10;" d="M 0.123044 0.00000122071 C 0.123044 0.0679414 0.0679529 0.123032 0.0000126909 0.123032 C -0.0679602 0.123032 -0.123051 0.0679414 -0.123051 0.00000122071 C -0.123051 -0.0679389 -0.0679602 -0.12303 0.0000126909 -0.12303 C 0.0679529 -0.12303 0.123044 -0.0679389 0.123044 0.00000122071 Z M 0.123044 0.00000122071 " transform="matrix(119.475538,0,0,119.475538,519.494577,181.374854)"/>
<path style="fill-rule:nonzero;fill:rgb(55.294118%,82.745098%,78.039216%);fill-opacity:1;stroke-width:0.0246073;stroke-linecap:butt;stroke-linejoin:miter;stroke:rgb(60%,60%,60%);stroke-opacity:0.8;stroke-miterlimit:10;" d="M 0.123044 -0.00001486 C 0.123044 0.067958 0.067953 0.123049 0.0000128155 0.123049 C -0.06796 0.123049 -0.123051 0.067958 -0.123051 -0.00001486 C -0.123051 -0.067955 -0.06796 -0.123046 0.0000128155 -0.123046 C 0.067953 -0.123046 0.123044 -0.067955 0.123044 -0.00001486 Z M 0.123044 -0.00001486 " transform="matrix(119.475538,0,0,119.475538,380.467219,182.786932)"/>
<path style="fill-rule:nonzero;fill:rgb(55.294118%,82.745098%,78.039216%);fill-opacity:1;stroke-width:0.0246073;stroke-linecap:butt;stroke-linejoin:miter;stroke:rgb(60%,60%,60%);stroke-opacity:0.8;stroke-miterlimit:10;" d="M 0.123053 0.00000526046 C 0.123053 0.0679454 0.0679616 0.123036 -0.0000112771 0.123036 C -0.0679514 0.123036 -0.123042 0.0679454 -0.123042 0.00000526046 C -0.123042 -0.0679676 -0.0679514 -0.123026 -0.0000112771 -0.123026 C 0.0679616 -0.123026 0.123053 -0.0679676 0.123053 0.00000526046 Z M 0.123053 0.00000526046 " transform="matrix(119.475538,0,0,119.475538,482.860722,216.944684)"/>
<path style="fill-rule:nonzero;fill:rgb(55.294118%,82.745098%,78.039216%);fill-opacity:1;stroke-width:0.0246073;stroke-linecap:butt;stroke-linejoin:miter;stroke:rgb(60%,60%,60%);stroke-opacity:0.8;stroke-miterlimit:10;" d="M 0.123031 -0.000000048109 C 0.123031 0.0679401 0.0679401 0.123031 -0.0000000353607 0.123031 C -0.0679402 0.123031 -0.123031 0.0679401 -0.123031 -0.000000048109 C -0.123031 -0.0679402 -0.0679402 -0.123031 -0.0000000353607 -0.123031 C 0.0679401 -0.123031 0.123031 -0.0679402 0.123031 -0.000000048109 Z M 0.123031 -0.000000048109 " transform="matrix(119.475538,0,0,119.475538,322.167973,170.542974)"/>
<path style="fill-rule:nonzero;fill:rgb(100%,92.941176%,43.529412%);fill-opacity:1;stroke-width:0.0246073;stroke-linecap:butt;stroke-linejoin:miter;stroke:rgb(60%,60%,60%);stroke-opacity:0.8;stroke-miterlimit:10;" d="M 0.123043 -0.0000126816 C 0.123043 0.0679602 0.0679519 0.123051 0.0000117129 0.123051 C -0.0679611 0.123051 -0.123052 0.0679602 -0.123052 -0.0000126816 C -0.123052 -0.0679528 -0.0679611 -0.123044 0.0000117129 -0.123044 C 0.0679519 -0.123044 0.123043 -0.0679528 0.123043 -0.0000126816 Z M 0.123043 -0.0000126816 " transform="matrix(119.475538,0,0,119.475538,245.022038,213.01714)"/>
<path style="fill-rule:nonzero;fill:rgb(55.294118%,82.745098%,78.039216%);fill-opacity:1;stroke-width:0.0246073;stroke-linecap:butt;stroke-linejoin:miter;stroke:rgb(60%,60%,60%);stroke-opacity:0.8;stroke-miterlimit:10;" d="M 0.123048 0.00000645598 C 0.123048 0.0679466 0.0679565 0.123038 0.0000163168 0.123038 C -0.0679565 0.123038 -0.123048 0.0679466 -0.123048 0.00000645598 C -0.123048 -0.0679664 -0.0679565 -0.123025 0.0000163168 -0.123025 C 0.0679565 -0.123025 0.123048 -0.0679664 0.123048 0.00000645598 Z M 0.123048 0.00000645598 " transform="matrix(119.475538,0,0,119.475538,383.357426,105.98751)"/>
<path style="fill-rule:nonzero;fill:rgb(55.294118%,82.745098%,78.039216%);fill-opacity:1;stroke-width:0.0246073;stroke-linecap:butt;stroke-linejoin:miter;stroke:rgb(60%,60%,60%);stroke-opacity:0.8;stroke-miterlimit:10;" d="M 0.123044 -0.0000156837 C 0.123044 0.0679572 0.0679529 0.123048 0.0000127258 0.123048 C -0.0679601 0.123048 -0.123051 0.0679572 -0.123051 -0.0000156837 C -0.123051 -0.0679558 -0.0679601 -0.123047 0.0000127258 -0.123047 C 0.0679529 -0.123047 0.123044 -0.0679558 0.123044 -0.0000156837 Z M 0.123044 -0.0000156837 " transform="matrix(119.475538,0,0,119.475538,559.943792,290.841718)"/>
<path style="fill-rule:nonzero;fill:rgb(55.294118%,82.745098%,78.039216%);fill-opacity:1;stroke-width:0.0246073;stroke-linecap:butt;stroke-linejoin:miter;stroke:rgb(60%,60%,60%);stroke-opacity:0.8;stroke-miterlimit:10;" d="M 0.123046 -0.0000155931 C 0.123046 0.0679573 0.0679551 0.123048 0.0000149359 0.123048 C -0.0679579 0.123048 -0.123049 0.0679573 -0.123049 -0.0000155931 C -0.123049 -0.0679558 -0.0679579 -0.123047 0.0000149359 -0.123047 C 0.0679551 -0.123047 0.123046 -0.0679558 0.123046 -0.0000155931 Z M 0.123046 -0.0000155931 " transform="matrix(119.475538,0,0,119.475538,525.474778,293.259675)"/>
<path style="fill-rule:nonzero;fill:rgb(100%,92.941176%,43.529412%);fill-opacity:1;stroke-width:0.0246073;stroke-linecap:butt;stroke-linejoin:miter;stroke:rgb(60%,60%,60%);stroke-opacity:0.8;stroke-miterlimit:10;" d="M 0.123035 0.0000148363 C 0.123035 0.067955 0.0679441 0.123046 0.00000395152 0.123046 C -0.0679362 0.123046 -0.123027 0.067955 -0.123027 0.0000148363 C -0.123027 -0.067958 -0.0679362 -0.123049 0.00000395152 -0.123049 C 0.0679441 -0.123049 0.123035 -0.067958 0.123035 0.0000148363 Z M 0.123035 0.0000148363 " transform="matrix(119.475538,0,0,119.475538,204.483903,201.03729)"/>
<path style="fill-rule:nonzero;fill:rgb(100%,92.941176%,43.529412%);fill-opacity:1;stroke-width:0.0246073;stroke-linecap:butt;stroke-linejoin:miter;stroke:rgb(60%,60%,60%);stroke-opacity:0.8;stroke-miterlimit:10;" d="M 0.123041 -0.00000948921 C 0.123041 0.0679634 0.0679502 0.123022 0.0000100349 0.123022 C -0.0679628 0.123022 -0.123021 0.0679634 -0.123021 -0.00000948921 C -0.123021 -0.0679497 -0.0679628 -0.123041 0.0000100349 -0.123041 C 0.0679502 -0.123041 0.123041 -0.0679497 0.123041 -0.00000948921 Z M 0.123041 -0.00000948921 " transform="matrix(119.475538,0,0,119.475538,115.694114,236.110509)"/>
<path style="fill-rule:nonzero;fill:rgb(55.294118%,82.745098%,78.039216%);fill-opacity:1;stroke-width:0.0246073;stroke-linecap:butt;stroke-linejoin:miter;stroke:rgb(60%,60%,60%);stroke-opacity:0.8;stroke-miterlimit:10;" d="M 0.12305 0.00000788347 C 0.12305 0.067948 0.0679588 0.123039 -0.0000140692 0.123039 C -0.0679542 0.123039 -0.123045 0.067948 -0.123045 0.00000788347 C -0.123045 -0.067965 -0.0679542 -0.123023 -0.0000140692 -0.123023 C 0.0679588 -0.123023 0.12305 -0.067965 0.12305 0.00000788347 Z M 0.12305 0.00000788347 " transform="matrix(119.475538,0,0,119.475538,432.177462,472.909214)"/>
<path style="fill-rule:nonzero;fill:rgb(55.294118%,82.745098%,78.039216%);fill-opacity:1;stroke-width:0.0246073;stroke-linecap:butt;stroke-linejoin:miter;stroke:rgb(60%,60%,60%);stroke-opacity:0.8;stroke-miterlimit:10;" d="M 0.123053 -0.000000163304 C 0.123053 0.06794 0.0679619 0.123031 -0.0000109754 0.123031 C -0.0679511 0.123031 -0.123042 0.06794 -0.123042 -0.000000163304 C -0.123042 -0.0679403 -0.0679511 -0.123031 -0.0000109754 -0.123031 C 0.0679619 -0.123031 0.123053 -0.0679403 0.123053 -0.000000163304 Z M 0.123053 -0.000000163304 " transform="matrix(119.475538,0,0,119.475538,437.38803,123.81252)"/>
<path style="fill-rule:nonzero;fill:rgb(55.294118%,82.745098%,78.039216%);fill-opacity:1;stroke-width:0.0246073;stroke-linecap:butt;stroke-linejoin:miter;stroke:rgb(60%,60%,60%);stroke-opacity:0.8;stroke-miterlimit:10;" d="M 0.123044 -0.00000948278 C 0.123044 0.0679634 0.0679531 0.123022 0.0000129771 0.123022 C -0.0679599 0.123022 -0.123051 0.0679634 -0.123051 -0.00000948278 C -0.123051 -0.0679496 -0.0679599 -0.123041 0.0000129771 -0.123041 C 0.0679531 -0.123041 0.123044 -0.0679496 0.123044 -0.00000948278 Z M 0.123044 -0.00000948278 " transform="matrix(119.475538,0,0,119.475538,418.307043,403.688633)"/>
<path style="fill-rule:nonzero;fill:rgb(55.294118%,82.745098%,78.039216%);fill-opacity:1;stroke-width:0.0246073;stroke-linecap:butt;stroke-linejoin:miter;stroke:rgb(60%,60%,60%);stroke-opacity:0.8;stroke-miterlimit:10;" d="M 0.123046 -0.0000123529 C 0.123046 0.0679605 0.0679551 0.123052 0.0000149546 0.123052 C -0.0679579 0.123052 -0.123049 0.0679605 -0.123049 -0.0000123529 C -0.123049 -0.0679525 -0.0679579 -0.123044 0.0000149546 -0.123044 C 0.0679551 -0.123044 0.123046 -0.0679525 0.123046 -0.0000123529 Z M 0.123046 -0.0000123529 " transform="matrix(119.475538,0,0,119.475538,437.943526,514.204601)"/>
<path style="fill-rule:nonzero;fill:rgb(55.294118%,82.745098%,78.039216%);fill-opacity:1;stroke-width:0.0246073;stroke-linecap:butt;stroke-linejoin:miter;stroke:rgb(60%,60%,60%);stroke-opacity:0.8;stroke-miterlimit:10;" d="M 0.123044 -0.00000732081 C 0.123044 0.0679655 0.0679526 0.123024 0.0000123969 0.123024 C -0.0679605 0.123024 -0.123051 0.0679655 -0.123051 -0.00000732081 C -0.123051 -0.0679475 -0.0679605 -0.123039 0.0000123969 -0.123039 C 0.0679526 -0.123039 0.123044 -0.0679475 0.123044 -0.00000732081 Z M 0.123044 -0.00000732081 " transform="matrix(119.475538,0,0,119.475538,401.1118,306.434468)"/>
<path style="fill-rule:nonzero;fill:rgb(100%,92.941176%,43.529412%);fill-opacity:1;stroke-width:0.0246073;stroke-linecap:butt;stroke-linejoin:miter;stroke:rgb(60%,60%,60%);stroke-opacity:0.8;stroke-miterlimit:10;" d="M 0.123032 -0.000000480904 C 0.123032 0.0679397 0.0679409 0.123031 0.000000775016 0.123031 C -0.0679394 0.123031 -0.12303 0.0679397 -0.12303 -0.000000480904 C -0.12303 -0.0679406 -0.0679394 -0.123032 0.000000775016 -0.123032 C 0.0679409 -0.123032 0.123032 -0.0679406 0.123032 -0.000000480904 Z M 0.123032 -0.000000480904 " transform="matrix(119.475538,0,0,119.475538,227.144439,34.550839)"/>
<path style="fill-rule:nonzero;fill:rgb(100%,92.941176%,43.529412%);fill-opacity:1;stroke-width:0.0246073;stroke-linecap:butt;stroke-linejoin:miter;stroke:rgb(60%,60%,60%);stroke-opacity:0.8;stroke-miterlimit:10;" d="M 0.123052 0.00000218526 C 0.123052 0.0679423 0.0679613 0.123033 -0.0000115529 0.123033 C -0.0679517 0.123033 -0.123043 0.0679423 -0.123043 0.00000218526 C -0.123043 -0.067938 -0.0679517 -0.123029 -0.0000115529 -0.123029 C 0.0679613 -0.123029 0.123052 -0.067938 0.123052 0.00000218526 Z M 0.123052 0.00000218526 " transform="matrix(119.475538,0,0,119.475538,211.899818,119.902083)"/>
<path style="fill-rule:nonzero;fill:rgb(100%,92.941176%,43.529412%);fill-opacity:1;stroke-width:0.0246073;stroke-linecap:butt;stroke-linejoin:miter;stroke:rgb(60%,60%,60%);stroke-opacity:0.8;stroke-miterlimit:10;" d="M 0.123028 -0.00000737288 C 0.123028 0.0679655 0.0679369 0.123024 -0.000003288 0.123024 C -0.0679435 0.123024 -0.123034 0.0679655 -0.123034 -0.00000737288 C -0.123034 -0.0679475 -0.0679435 -0.123039 -0.000003288 -0.123039 C 0.0679369 -0.123039 0.123028 -0.0679475 0.123028 -0.00000737288 Z M 0.123028 -0.00000737288 " transform="matrix(119.475538,0,0,119.475538,207.324612,64.954006)"/>
<path style="fill-rule:nonzero;fill:rgb(55.294118%,82.745098%,78.039216%);fill-opacity:1;stroke-width:0.0246073;stroke-linecap:butt;stroke-linejoin:miter;stroke:rgb(60%,60%,60%);stroke-opacity:0.8;stroke-miterlimit:10;" d="M 0.123038 0.000000663884 C 0.123038 0.0679408 0.0679468 0.123032 0.00000667027 0.123032 C -0.0679662 0.123032 -0.123025 0.0679408 -0.123025 0.000000663884 C -0.123025 -0.0679395 -0.0679662 -0.123031 0.00000667027 -0.123031 C 0.0679468 -0.123031 0.123038 -0.0679395 0.123038 0.000000663884 Z M 0.123038 0.000000663884 " transform="matrix(119.475538,0,0,119.475538,532.815609,366.234296)"/>
<path style="fill-rule:nonzero;fill:rgb(55.294118%,82.745098%,78.039216%);fill-opacity:1;stroke-width:0.0246073;stroke-linecap:butt;stroke-linejoin:miter;stroke:rgb(60%,60%,60%);stroke-opacity:0.8;stroke-miterlimit:10;" d="M 0.123038 0.0000143887 C 0.123038 0.0679546 0.067947 0.123046 0.00000688335 0.123046 C -0.067966 0.123046 -0.123024 0.0679546 -0.123024 0.0000143887 C -0.123024 -0.0679585 -0.067966 -0.12305 0.00000688335 -0.12305 C 0.067947 -0.12305 0.123038 -0.0679585 0.123038 0.0000143887 Z M 0.123038 0.0000143887 " transform="matrix(119.475538,0,0,119.475538,531.97574,413.740468)"/>
<path style="fill-rule:nonzero;fill:rgb(100%,92.941176%,43.529412%);fill-opacity:1;stroke-width:0.0246073;stroke-linecap:butt;stroke-linejoin:miter;stroke:rgb(60%,60%,60%);stroke-opacity:0.8;stroke-miterlimit:10;" d="M 0.123038 -0.00000187953 C 0.123038 0.0679383 0.0679474 0.123029 0.00000722032 0.123029 C -0.0679656 0.123029 -0.123024 0.0679383 -0.123024 -0.00000187953 C -0.123024 -0.067942 -0.0679656 -0.123033 0.00000722032 -0.123033 C 0.0679474 -0.123033 0.123038 -0.067942 0.123038 -0.00000187953 Z M 0.123038 -0.00000187953 " transform="matrix(119.475538,0,0,119.475538,88.573356,180.730693)"/>
<path style="fill-rule:nonzero;fill:rgb(100%,92.941176%,43.529412%);fill-opacity:1;stroke-width:0.0246073;stroke-linecap:butt;stroke-linejoin:miter;stroke:rgb(60%,60%,60%);stroke-opacity:0.8;stroke-miterlimit:10;" d="M 0.123021 0.00000187821 C 0.123021 0.067942 0.0679624 0.123033 -0.0000104521 0.123033 C -0.0679506 0.123033 -0.123042 0.067942 -0.123042 0.00000187821 C -0.123042 -0.0679383 -0.0679506 -0.123029 -0.0000104521 -0.123029 C 0.0679624 -0.123029 0.123021 -0.0679383 0.123021 0.00000187821 Z M 0.123021 0.00000187821 " transform="matrix(119.475538,0,0,119.475538,66.48953,225.316182)"/>
<path style="fill-rule:nonzero;fill:rgb(100%,92.941176%,43.529412%);fill-opacity:1;stroke-width:0.0246073;stroke-linecap:butt;stroke-linejoin:miter;stroke:rgb(60%,60%,60%);stroke-opacity:0.8;stroke-miterlimit:10;" d="M 0.123051 0.00000474493 C 0.123051 0.0679449 0.0679601 0.123036 -0.0000127258 0.123036 C -0.0679529 0.123036 -0.123044 0.0679449 -0.123044 0.00000474493 C -0.123044 -0.0679354 -0.0679529 -0.123026 -0.0000127258 -0.123026 C 0.0679601 -0.123026 0.123051 -0.0679354 0.123051 0.00000474493 Z M 0.123051 0.00000474493 " transform="matrix(119.475538,0,0,119.475538,40.056208,332.800214)"/>
<path style="fill-rule:nonzero;fill:rgb(100%,92.941176%,43.529412%);fill-opacity:1;stroke-width:0.0246073;stroke-linecap:butt;stroke-linejoin:miter;stroke:rgb(60%,60%,60%);stroke-opacity:0.8;stroke-miterlimit:10;" d="M 0.123046 -0.0000158122 C 0.123046 0.067957 0.0679547 0.123048 0.0000144915 0.123048 C -0.0679584 0.123048 -0.123049 0.067957 -0.123049 -0.0000158122 C -0.123049 -0.067956 -0.0679584 -0.123047 0.0000144915 -0.123047 C 0.0679547 -0.123047 0.123046 -0.067956 0.123046 -0.0000158122 Z M 0.123046 -0.0000158122 " transform="matrix(119.475538,0,0,119.475538,79.931862,447.017514)"/>
<path style="fill-rule:nonzero;fill:rgb(100%,92.941176%,43.529412%);fill-opacity:1;stroke-width:0.0246073;stroke-linecap:butt;stroke-linejoin:miter;stroke:rgb(60%,60%,60%);stroke-opacity:0.8;stroke-miterlimit:10;" d="M 0.123047 -0.00000445082 C 0.123047 0.0679357 0.0679558 0.123027 0.0000156659 0.123027 C -0.0679572 0.123027 -0.123048 0.0679357 -0.123048 -0.00000445082 C -0.123048 -0.0679446 -0.0679572 -0.123036 0.0000156659 -0.123036 C 0.0679558 -0.123036 0.123047 -0.0679446 0.123047 -0.00000445082 Z M 0.123047 -0.00000445082 " transform="matrix(119.475538,0,0,119.475538,74.279378,399.723188)"/>
<path style="fill-rule:nonzero;fill:rgb(100%,92.941176%,43.529412%);fill-opacity:1;stroke-width:0.0246073;stroke-linecap:butt;stroke-linejoin:miter;stroke:rgb(60%,60%,60%);stroke-opacity:0.8;stroke-miterlimit:10;" d="M 0.123037 -0.00000635272 C 0.123037 0.0679665 0.0679455 0.123025 0.00000532707 0.123025 C -0.0679675 0.123025 -0.123026 0.0679665 -0.123026 -0.00000635272 C -0.123026 -0.0679465 -0.0679675 -0.123038 0.00000532707 -0.123038 C 0.0679455 -0.123038 0.123037 -0.0679465 0.123037 -0.00000635272 Z M 0.123037 -0.00000635272 " transform="matrix(119.475538,0,0,119.475538,75.979832,324.942165)"/>
<path style="fill-rule:nonzero;fill:rgb(100%,92.941176%,43.529412%);fill-opacity:1;stroke-width:0.0246073;stroke-linecap:butt;stroke-linejoin:miter;stroke:rgb(60%,60%,60%);stroke-opacity:0.8;stroke-miterlimit:10;" d="M 0.123027 0.000000480904 C 0.123027 0.0679406 0.0679355 0.123032 -0.00000462432 0.123032 C -0.0679448 0.123032 -0.123036 0.0679406 -0.123036 0.000000480904 C -0.123036 -0.0679397 -0.0679448 -0.123031 -0.00000462432 -0.123031 C 0.0679355 -0.123031 0.123027 -0.0679397 0.123027 0.000000480904 Z M 0.123027 0.000000480904 " transform="matrix(119.475538,0,0,119.475538,234.86774,565.449161)"/>
<path style="fill-rule:nonzero;fill:rgb(100%,92.941176%,43.529412%);fill-opacity:1;stroke-width:0.0246073;stroke-linecap:butt;stroke-linejoin:miter;stroke:rgb(60%,60%,60%);stroke-opacity:0.8;stroke-miterlimit:10;" d="M 0.123027 0.0000014059 C 0.123027 0.0679416 0.0679362 0.123033 -0.00000399005 0.123033 C -0.0679442 0.123033 -0.123035 0.0679416 -0.123035 0.0000014059 C -0.123035 -0.0679388 -0.0679442 -0.12303 -0.00000399005 -0.12303 C 0.0679362 -0.12303 0.123027 -0.0679388 0.123027 0.0000014059 Z M 0.123027 0.0000014059 " transform="matrix(119.475538,0,0,119.475538,313.367664,560.296707)"/>
</g>
</svg>
