<?xml version="1.0" encoding="UTF-8"?>
<svg xmlns="http://www.w3.org/2000/svg" xmlns:xlink="http://www.w3.org/1999/xlink" width="600pt" height="600pt" viewBox="0 0 600 600" version="1.1">
<defs>
<clipPath id="clip1">
  <path d="M 270 217.386719 L 368 217.386719 L 368 378.328125 L 270 378.328125 Z M 270 217.386719 "/>
</clipPath>
<clipPath id="clip2">
  <path d="M 185.332031 217.386719 L 452.703125 217.386719 L 452.703125 378.328125 L 185.332031 378.328125 Z M 185.332031 217.386719 L 325.902344 360.46875 C 325.902344 368.46875 319.417969 374.957031 311.414062 374.957031 C 303.414062 374.957031 296.925781 368.46875 296.925781 360.46875 C 296.925781 352.464844 303.414062 345.980469 311.414062 345.980469 C 319.417969 345.980469 325.902344 352.464844 325.902344 360.46875 Z M 185.332031 217.386719 "/>
</clipPath>
<clipPath id="clip3">
  <path d="M 185.332031 217.386719 L 452.703125 217.386719 L 452.703125 378.328125 L 185.332031 378.328125 Z M 185.332031 217.386719 L 341.109375 235.246094 C 341.109375 243.25 334.621094 249.734375 326.621094 249.734375 C 318.617188 249.734375 312.132812 243.25 312.132812 235.246094 C 312.132812 227.246094 318.617188 220.757812 326.621094 220.757812 C 334.621094 220.757812 341.109375 227.246094 341.109375 235.246094 Z M 185.332031 217.386719 "/>
</clipPath>
<clipPath id="clip4">
  <path d="M 263 350.351562 L 353 350.351562 L 353 492.175781 L 263 492.175781 Z M 263 350.351562 "/>
</clipPath>
<clipPath id="clip5">
  <path d="M 177.550781 350.351562 L 438.191406 350.351562 L 438.191406 492.175781 L 177.550781 492.175781 Z M 177.550781 350.351562 L 325.902344 360.46875 C 325.902344 368.46875 319.417969 374.957031 311.414062 374.957031 C 303.414062 374.957031 296.925781 368.46875 296.925781 360.46875 C 296.925781 352.464844 303.414062 345.980469 311.414062 345.980469 C 319.417969 345.980469 325.902344 352.464844 325.902344 360.46875 Z M 177.550781 350.351562 "/>
</clipPath>
<clipPath id="clip6">
  <path d="M 177.550781 350.351562 L 438.191406 350.351562 L 438.191406 492.175781 L 177.550781 492.175781 Z M 177.550781 350.351562 L 318.816406 482.058594 C 318.816406 490.0625 312.328125 496.546875 304.328125 496.546875 C 296.324219 496.546875 289.839844 490.0625 289.839844 482.058594 C 289.839844 474.058594 296.324219 467.570312 304.328125 467.570312 C 312.328125 467.570312 318.816406 474.058594 318.816406 482.058594 Z M 177.550781 350.351562 "/>
</clipPath>
<clipPath id="clip7">
  <path d="M 270 319 L 380 319 L 380 416 L 270 416 Z M 270 319 "/>
</clipPath>
<clipPath id="clip8">
  <path d="M 251.851562 247.175781 L 397.871094 247.175781 L 397.871094 487.566406 L 251.851562 487.566406 Z M 251.851562 247.175781 L 325.902344 360.46875 C 325.902344 368.46875 319.417969 374.957031 311.414062 374.957031 C 303.414062 374.957031 296.925781 368.46875 296.925781 360.46875 C 296.925781 352.464844 303.414062 345.980469 311.414062 345.980469 C 319.417969 345.980469 325.902344 352.464844 325.902344 360.46875 Z M 251.851562 247.175781 "/>
</clipPath>
<clipPath id="clip9">
  <path d="M 251.851562 247.175781 L 397.871094 247.175781 L 397.871094 487.566406 L 251.851562 487.566406 Z M 251.851562 247.175781 L 352.796875 374.273438 C 352.796875 382.273438 346.3125 388.761719 338.308594 388.761719 C 330.308594 388.761719 323.820312 382.273438 323.820312 374.273438 C 323.820312 366.269531 330.308594 359.785156 338.308594 359.785156 C 346.3125 359.785156 352.796875 366.269531 352.796875 374.273438 Z M 251.851562 247.175781 "/>
</clipPath>
<clipPath id="clip10">
  <path d="M 417 123.386719 L 511 123.386719 L 511 247.664062 L 417 247.664062 Z M 417 123.386719 "/>
</clipPath>
<clipPath id="clip11">
  <path d="M 332.3125 123.386719 L 595.648438 123.386719 L 595.648438 247.664062 L 332.3125 247.664062 Z M 332.3125 123.386719 L 472.609375 227.683594 C 472.609375 235.683594 466.121094 242.171875 458.121094 242.171875 C 450.117188 242.171875 443.632812 235.683594 443.632812 227.683594 C 443.632812 219.683594 450.117188 213.195312 458.121094 213.195312 C 466.121094 213.195312 472.609375 219.683594 472.609375 227.683594 Z M 332.3125 123.386719 "/>
</clipPath>
<clipPath id="clip12">
  <path d="M 332.3125 123.386719 L 595.648438 123.386719 L 595.648438 247.664062 L 332.3125 247.664062 Z M 332.3125 123.386719 L 484.328125 143.367188 C 484.328125 151.367188 477.84375 157.855469 469.839844 157.855469 C 461.839844 157.855469 455.351562 151.367188 455.351562 143.367188 C 455.351562 135.367188 461.839844 128.878906 469.839844 128.878906 C 477.84375 128.878906 484.328125 135.367188 484.328125 143.367188 Z M 332.3125 123.386719 "/>
</clipPath>
<clipPath id="clip13">
  <path d="M 316.597656 186 L 468.144531 186 L 468.144531 277 L 316.597656 277 Z M 316.597656 186 "/>
</clipPath>
<clipPath id="clip14">
  <path d="M 316.597656 100.898438 L 468.144531 100.898438 L 468.144531 362.03125 L 316.597656 362.03125 Z M 316.597656 100.898438 L 472.609375 227.683594 C 472.609375 235.683594 466.121094 242.171875 458.121094 242.171875 C 450.117188 242.171875 443.632812 235.683594 443.632812 227.683594 C 443.632812 219.683594 450.117188 213.195312 458.121094 213.195312 C 466.121094 213.195312 472.609375 219.683594 472.609375 227.683594 Z M 316.597656 100.898438 "/>
</clipPath>
<clipPath id="clip15">
  <path d="M 316.597656 100.898438 L 468.144531 100.898438 L 468.144531 362.03125 L 316.597656 362.03125 Z M 316.597656 100.898438 L 341.109375 235.246094 C 341.109375 243.25 334.621094 249.734375 326.621094 249.734375 C 318.617188 249.734375 312.132812 243.25 312.132812 235.246094 C 312.132812 227.246094 318.617188 220.757812 326.621094 220.757812 C 334.621094 220.757812 341.109375 227.246094 341.109375 235.246094 Z M 316.597656 100.898438 "/>
</clipPath>
<clipPath id="clip16">
  <path d="M 420.601562 168 L 557.929688 168 L 557.929688 269 L 420.601562 269 Z M 420.601562 168 "/>
</clipPath>
<clipPath id="clip17">
  <path d="M 420.601562 87.527344 L 557.929688 87.527344 L 557.929688 349.742188 L 420.601562 349.742188 Z M 420.601562 87.527344 L 472.609375 227.683594 C 472.609375 235.683594 466.121094 242.171875 458.121094 242.171875 C 450.117188 242.171875 443.632812 235.683594 443.632812 227.683594 C 443.632812 219.683594 450.117188 213.195312 458.121094 213.195312 C 466.121094 213.195312 472.609375 219.683594 472.609375 227.683594 Z M 420.601562 87.527344 "/>
</clipPath>
<clipPath id="clip18">
  <path d="M 420.601562 87.527344 L 557.929688 87.527344 L 557.929688 349.742188 L 420.601562 349.742188 Z M 420.601562 87.527344 L 534.898438 209.585938 C 534.898438 217.589844 528.410156 224.074219 520.410156 224.074219 C 512.40625 224.074219 505.921875 217.589844 505.921875 209.585938 C 505.921875 201.585938 512.40625 195.097656 520.410156 195.097656 C 528.410156 195.097656 534.898438 201.585938 534.898438 209.585938 Z M 420.601562 87.527344 "/>
</clipPath>
<clipPath id="clip19">
  <path d="M 417 186 L 560 186 L 560 356 L 417 356 Z M 417 186 "/>
</clipPath>
<clipPath id="clip20">
  <path d="M 353.066406 154.34375 L 623.226562 154.34375 L 623.226562 388.109375 L 353.066406 388.109375 Z M 353.066406 154.34375 L 472.609375 227.683594 C 472.609375 235.683594 466.121094 242.171875 458.121094 242.171875 C 450.117188 242.171875 443.632812 235.683594 443.632812 227.683594 C 443.632812 219.683594 450.117188 213.195312 458.121094 213.195312 C 466.121094 213.195312 472.609375 219.683594 472.609375 227.683594 Z M 353.066406 154.34375 "/>
</clipPath>
<clipPath id="clip21">
  <path d="M 353.066406 154.34375 L 623.226562 154.34375 L 623.226562 388.109375 L 353.066406 388.109375 Z M 353.066406 154.34375 L 532.660156 314.769531 C 532.660156 322.773438 526.175781 329.257812 518.171875 329.257812 C 510.171875 329.257812 503.683594 322.773438 503.683594 314.769531 C 503.683594 306.769531 510.171875 300.28125 518.171875 300.28125 C 526.175781 300.28125 532.660156 306.769531 532.660156 314.769531 Z M 353.066406 154.34375 "/>
</clipPath>
<clipPath id="clip22">
  <path d="M 428 87.328125 L 513 87.328125 L 513 149.632812 L 428 149.632812 Z M 428 87.328125 "/>
</clipPath>
<clipPath id="clip23">
  <path d="M 342.898438 87.328125 L 598.132812 87.328125 L 598.132812 149.632812 L 342.898438 149.632812 Z M 342.898438 87.328125 L 485.679688 93.59375 C 485.679688 101.597656 479.191406 108.085938 471.191406 108.085938 C 463.1875 108.085938 456.703125 101.597656 456.703125 93.59375 C 456.703125 85.59375 463.1875 79.105469 471.191406 79.105469 C 479.191406 79.105469 485.679688 85.59375 485.679688 93.59375 Z M 342.898438 87.328125 "/>
</clipPath>
<clipPath id="clip24">
  <path d="M 342.898438 87.328125 L 598.132812 87.328125 L 598.132812 149.632812 L 342.898438 149.632812 Z M 342.898438 87.328125 L 484.328125 143.367188 C 484.328125 151.367188 477.84375 157.855469 469.839844 157.855469 C 461.839844 157.855469 455.351562 151.367188 455.351562 143.367188 C 455.351562 135.367188 461.839844 128.878906 469.839844 128.878906 C 477.84375 128.878906 484.328125 135.367188 484.328125 143.367188 Z M 342.898438 87.328125 "/>
</clipPath>
<clipPath id="clip25">
  <path d="M 159 116 L 368 116 L 368 277 L 159 277 Z M 159 116 "/>
</clipPath>
<clipPath id="clip26">
  <path d="M 132.566406 48.980469 L 394.722656 48.980469 L 394.722656 343.722656 L 132.566406 343.722656 Z M 132.566406 48.980469 L 341.109375 235.246094 C 341.109375 243.25 334.621094 249.734375 326.621094 249.734375 C 318.617188 249.734375 312.132812 243.25 312.132812 235.246094 C 312.132812 227.246094 318.617188 220.757812 326.621094 220.757812 C 334.621094 220.757812 341.109375 227.246094 341.109375 235.246094 Z M 132.566406 48.980469 "/>
</clipPath>
<clipPath id="clip27">
  <path d="M 132.566406 48.980469 L 394.722656 48.980469 L 394.722656 343.722656 L 132.566406 343.722656 Z M 132.566406 48.980469 L 215.15625 157.457031 C 215.15625 165.460938 208.667969 171.945312 200.667969 171.945312 C 192.664062 171.945312 186.179688 165.460938 186.179688 157.457031 C 186.179688 149.457031 192.664062 142.96875 200.667969 142.96875 C 208.667969 142.96875 215.15625 149.457031 215.15625 157.457031 Z M 132.566406 48.980469 "/>
</clipPath>
<clipPath id="clip28">
  <path d="M 285 141.75 L 380 141.75 L 380 259.976562 L 285 259.976562 Z M 285 141.75 "/>
</clipPath>
<clipPath id="clip29">
  <path d="M 201.566406 141.75 L 463.964844 141.75 L 463.964844 259.976562 L 201.566406 259.976562 Z M 201.566406 141.75 L 341.109375 235.246094 C 341.109375 243.25 334.621094 249.734375 326.621094 249.734375 C 318.617188 249.734375 312.132812 243.25 312.132812 235.246094 C 312.132812 227.246094 318.617188 220.757812 326.621094 220.757812 C 334.621094 220.757812 341.109375 227.246094 341.109375 235.246094 Z M 201.566406 141.75 "/>
</clipPath>
<clipPath id="clip30">
  <path d="M 201.566406 141.75 L 463.964844 141.75 L 463.964844 259.976562 L 201.566406 259.976562 Z M 201.566406 141.75 L 353.398438 166.480469 C 353.398438 174.480469 346.910156 180.96875 338.910156 180.96875 C 330.90625 180.96875 324.421875 174.480469 324.421875 166.480469 C 324.421875 158.480469 330.90625 151.992188 338.910156 151.992188 C 346.910156 151.992188 353.398438 158.480469 353.398438 166.480469 Z M 201.566406 141.75 "/>
</clipPath>
<clipPath id="clip31">
  <path d="M 177 441 L 346 441 L 346 557 L 177 557 Z M 177 441 "/>
</clipPath>
<clipPath id="clip32">
  <path d="M 170.675781 363.519531 L 352.230469 363.519531 L 352.230469 633.96875 L 170.675781 633.96875 Z M 170.675781 363.519531 L 233.066406 515.429688 C 233.066406 523.433594 226.578125 529.917969 218.578125 529.917969 C 210.578125 529.917969 204.089844 523.433594 204.089844 515.429688 C 204.089844 507.429688 210.578125 500.941406 218.578125 500.941406 C 226.578125 500.941406 233.066406 507.429688 233.066406 515.429688 Z M 170.675781 363.519531 "/>
</clipPath>
<clipPath id="clip33">
  <path d="M 170.675781 363.519531 L 352.230469 363.519531 L 352.230469 633.96875 L 170.675781 633.96875 Z M 170.675781 363.519531 L 318.816406 482.058594 C 318.816406 490.0625 312.328125 496.546875 304.328125 496.546875 C 296.324219 496.546875 289.839844 490.0625 289.839844 482.058594 C 289.839844 474.058594 296.324219 467.570312 304.328125 467.570312 C 312.328125 467.570312 318.816406 474.058594 318.816406 482.058594 Z M 170.675781 363.519531 "/>
</clipPath>
<clipPath id="clip34">
  <path d="M 141 474 L 260 474 L 260 585 L 141 585 Z M 141 474 "/>
</clipPath>
<clipPath id="clip35">
  <path d="M 103.585938 414.15625 L 297.109375 414.15625 L 297.109375 644.734375 L 103.585938 644.734375 Z M 103.585938 414.15625 L 233.066406 515.429688 C 233.066406 523.433594 226.578125 529.917969 218.578125 529.917969 C 210.578125 529.917969 204.089844 523.433594 204.089844 515.429688 C 204.089844 507.429688 210.578125 500.941406 218.578125 500.941406 C 226.578125 500.941406 233.066406 507.429688 233.066406 515.429688 Z M 103.585938 414.15625 "/>
</clipPath>
<clipPath id="clip36">
  <path d="M 103.585938 414.15625 L 297.109375 414.15625 L 297.109375 644.734375 L 103.585938 644.734375 Z M 103.585938 414.15625 L 196.605469 543.460938 C 196.605469 551.460938 190.117188 557.949219 182.117188 557.949219 C 174.113281 557.949219 167.628906 551.460938 167.628906 543.460938 C 167.628906 535.460938 174.113281 528.972656 182.117188 528.972656 C 190.117188 528.972656 196.605469 535.460938 196.605469 543.460938 Z M 103.585938 414.15625 "/>
</clipPath>
<clipPath id="clip37">
  <path d="M 177 474 L 279 474 L 279 600 L 177 600 Z M 177 474 "/>
</clipPath>
<clipPath id="clip38">
  <path d="M 99.5625 468.769531 L 356.550781 468.769531 L 356.550781 612.390625 L 99.5625 612.390625 Z M 99.5625 468.769531 L 233.066406 515.429688 C 233.066406 523.433594 226.578125 529.917969 218.578125 529.917969 C 210.578125 529.917969 204.089844 523.433594 204.089844 515.429688 C 204.089844 507.429688 210.578125 500.941406 218.578125 500.941406 C 226.578125 500.941406 233.066406 507.429688 233.066406 515.429688 Z M 99.5625 468.769531 "/>
</clipPath>
<clipPath id="clip39">
  <path d="M 99.5625 468.769531 L 356.550781 468.769531 L 356.550781 612.390625 L 99.5625 612.390625 Z M 99.5625 468.769531 L 252.023438 565.730469 C 252.023438 573.730469 245.539062 580.21875 237.535156 580.21875 C 229.535156 580.21875 223.046875 573.730469 223.046875 565.730469 C 223.046875 557.730469 229.535156 551.242188 237.535156 551.242188 C 245.539062 551.242188 252.023438 557.730469 252.023438 565.730469 Z M 99.5625 468.769531 "/>
</clipPath>
<clipPath id="clip40">
  <path d="M 110 436 L 260 436 L 260 557 L 110 557 Z M 110 436 "/>
</clipPath>
<clipPath id="clip41">
  <path d="M 87.21875 366.496094 L 282.828125 366.496094 L 282.828125 626.191406 L 87.21875 626.191406 Z M 87.21875 366.496094 L 233.066406 515.429688 C 233.066406 523.433594 226.578125 529.917969 218.578125 529.917969 C 210.578125 529.917969 204.089844 523.433594 204.089844 515.429688 C 204.089844 507.429688 210.578125 500.941406 218.578125 500.941406 C 226.578125 500.941406 233.066406 507.429688 233.066406 515.429688 Z M 87.21875 366.496094 "/>
</clipPath>
<clipPath id="clip42">
  <path d="M 87.21875 366.496094 L 282.828125 366.496094 L 282.828125 626.191406 L 87.21875 626.191406 Z M 87.21875 366.496094 L 165.957031 477.257812 C 165.957031 485.261719 159.46875 491.75 151.46875 491.75 C 143.464844 491.75 136.980469 485.261719 136.980469 477.257812 C 136.980469 469.257812 143.464844 462.769531 151.46875 462.769531 C 159.46875 462.769531 165.957031 469.257812 165.957031 477.257812 Z M 87.21875 366.496094 "/>
</clipPath>
<clipPath id="clip43">
  <path d="M 263 441 L 374 441 L 374 589 L 263 589 Z M 263 441 "/>
</clipPath>
<clipPath id="clip44">
  <path d="M 187.414062 430.1875 L 449.335938 430.1875 L 449.335938 599.335938 L 187.414062 599.335938 Z M 187.414062 430.1875 L 318.816406 482.058594 C 318.816406 490.0625 312.328125 496.546875 304.328125 496.546875 C 296.324219 496.546875 289.839844 490.0625 289.839844 482.058594 C 289.839844 474.058594 296.324219 467.570312 304.328125 467.570312 C 312.328125 467.570312 318.816406 474.058594 318.816406 482.058594 Z M 187.414062 430.1875 "/>
</clipPath>
<clipPath id="clip45">
  <path d="M 187.414062 430.1875 L 449.335938 430.1875 L 449.335938 599.335938 L 187.414062 599.335938 Z M 187.414062 430.1875 L 346.910156 547.464844 C 346.910156 555.464844 340.421875 561.953125 332.421875 561.953125 C 324.421875 561.953125 317.933594 555.464844 317.933594 547.464844 C 317.933594 539.460938 324.421875 532.976562 332.421875 532.976562 C 340.421875 532.976562 346.910156 539.460938 346.910156 547.464844 Z M 187.414062 430.1875 "/>
</clipPath>
<clipPath id="clip46">
  <path d="M 263 441 L 396 441 L 396 547 L 263 547 Z M 263 441 "/>
</clipPath>
<clipPath id="clip47">
  <path d="M 248.214844 367.058594 L 410.644531 367.058594 L 410.644531 620.890625 L 248.214844 620.890625 Z M 248.214844 367.058594 L 318.816406 482.058594 C 318.816406 490.0625 312.328125 496.546875 304.328125 496.546875 C 296.324219 496.546875 289.839844 490.0625 289.839844 482.058594 C 289.839844 474.058594 296.324219 467.570312 304.328125 467.570312 C 312.328125 467.570312 318.816406 474.058594 318.816406 482.058594 Z M 248.214844 367.058594 "/>
</clipPath>
<clipPath id="clip48">
  <path d="M 248.214844 367.058594 L 410.644531 367.058594 L 410.644531 620.890625 L 248.214844 620.890625 Z M 248.214844 367.058594 L 369.019531 505.890625 C 369.019531 513.890625 362.53125 520.378906 354.53125 520.378906 C 346.527344 520.378906 340.039062 513.890625 340.039062 505.890625 C 340.039062 497.886719 346.527344 491.402344 354.53125 491.402344 C 362.53125 491.402344 369.019531 497.886719 369.019531 505.890625 Z M 248.214844 367.058594 "/>
</clipPath>
<clipPath id="clip49">
  <path d="M 224.707031 46 L 356.945312 46 L 356.945312 146 L 224.707031 146 Z M 224.707031 46 "/>
</clipPath>
<clipPath id="clip50">
  <path d="M 224.707031 -35.167969 L 356.945312 -35.167969 L 356.945312 227.636719 L 224.707031 227.636719 Z M 224.707031 -35.167969 L 337.6875 104.542969 C 337.6875 112.546875 331.203125 119.03125 323.199219 119.03125 C 315.199219 119.03125 308.710938 112.546875 308.710938 104.542969 C 308.710938 96.542969 315.199219 90.054688 323.199219 90.054688 C 331.203125 90.054688 337.6875 96.542969 337.6875 104.542969 Z M 224.707031 -35.167969 "/>
</clipPath>
<clipPath id="clip51">
  <path d="M 224.707031 -35.167969 L 356.945312 -35.167969 L 356.945312 227.636719 L 224.707031 227.636719 Z M 224.707031 -35.167969 L 272.941406 87.925781 C 272.941406 95.925781 266.457031 102.414062 258.453125 102.414062 C 250.453125 102.414062 243.964844 95.925781 243.964844 87.925781 C 243.964844 79.921875 250.453125 73.4375 258.453125 73.4375 C 266.457031 73.4375 272.941406 79.921875 272.941406 87.925781 Z M 224.707031 -35.167969 "/>
</clipPath>
<clipPath id="clip52">
  <path d="M 282 71.132812 L 380 71.132812 L 380 199.890625 L 282 199.890625 Z M 282 71.132812 "/>
</clipPath>
<clipPath id="clip53">
  <path d="M 200.019531 71.132812 L 462.089844 71.132812 L 462.089844 199.890625 L 200.019531 199.890625 Z M 200.019531 71.132812 L 337.6875 104.542969 C 337.6875 112.546875 331.203125 119.03125 323.199219 119.03125 C 315.199219 119.03125 308.710938 112.546875 308.710938 104.542969 C 308.710938 96.542969 315.199219 90.054688 323.199219 90.054688 C 331.203125 90.054688 337.6875 96.542969 337.6875 104.542969 Z M 200.019531 71.132812 "/>
</clipPath>
<clipPath id="clip54">
  <path d="M 200.019531 71.132812 L 462.089844 71.132812 L 462.089844 199.890625 L 200.019531 199.890625 Z M 200.019531 71.132812 L 353.398438 166.480469 C 353.398438 174.480469 346.910156 180.96875 338.910156 180.96875 C 330.90625 180.96875 324.421875 174.480469 324.421875 166.480469 C 324.421875 158.480469 330.90625 151.992188 338.910156 151.992188 C 346.910156 151.992188 353.398438 158.480469 353.398438 166.480469 Z M 200.019531 71.132812 "/>
</clipPath>
<clipPath id="clip55">
  <path d="M 217 0 L 331 0 L 331 129 L 217 129 Z M 217 0 "/>
</clipPath>
<clipPath id="clip56">
  <path d="M 148.519531 -31.410156 L 399.859375 -31.410156 L 399.859375 153.605469 L 148.519531 153.605469 Z M 148.519531 -31.410156 L 272.941406 87.925781 C 272.941406 95.925781 266.457031 102.414062 258.453125 102.414062 C 250.453125 102.414062 243.964844 95.925781 243.964844 87.925781 C 243.964844 79.921875 250.453125 73.4375 258.453125 73.4375 C 266.457031 73.4375 272.941406 79.921875 272.941406 87.925781 Z M 148.519531 -31.410156 "/>
</clipPath>
<clipPath id="clip57">
  <path d="M 148.519531 -31.410156 L 399.859375 -31.410156 L 399.859375 153.605469 L 148.519531 153.605469 Z M 148.519531 -31.410156 L 304.414062 34.269531 C 304.414062 42.269531 297.925781 48.757812 289.925781 48.757812 C 281.925781 48.757812 275.4375 42.269531 275.4375 34.269531 C 275.4375 26.269531 281.925781 19.78125 289.925781 19.78125 C 297.925781 19.78125 304.414062 26.269531 304.414062 34.269531 Z M 148.519531 -31.410156 "/>
</clipPath>
<clipPath id="clip58">
  <path d="M 171.246094 46 L 292.476562 46 L 292.476562 143 L 171.246094 143 Z M 171.246094 46 "/>
</clipPath>
<clipPath id="clip59">
  <path d="M 171.246094 -35.09375 L 292.476562 -35.09375 L 292.476562 224.726562 L 171.246094 224.726562 Z M 171.246094 -35.09375 L 272.941406 87.925781 C 272.941406 95.925781 266.457031 102.414062 258.453125 102.414062 C 250.453125 102.414062 243.964844 95.925781 243.964844 87.925781 C 243.964844 79.921875 250.453125 73.4375 258.453125 73.4375 C 266.457031 73.4375 272.941406 79.921875 272.941406 87.925781 Z M 171.246094 -35.09375 "/>
</clipPath>
<clipPath id="clip60">
  <path d="M 171.246094 -35.09375 L 292.476562 -35.09375 L 292.476562 224.726562 L 171.246094 224.726562 Z M 171.246094 -35.09375 L 219.757812 101.707031 C 219.757812 109.707031 213.273438 116.195312 205.269531 116.195312 C 197.269531 116.195312 190.78125 109.707031 190.78125 101.707031 C 190.78125 93.703125 197.269531 87.21875 205.269531 87.21875 C 213.273438 87.21875 219.757812 93.703125 219.757812 101.707031 Z M 171.246094 -35.09375 "/>
</clipPath>
<clipPath id="clip61">
  <path d="M 159 46 L 300 46 L 300 199 L 159 199 Z M 159 46 "/>
</clipPath>
<clipPath id="clip62">
  <path d="M 102.335938 5.714844 L 356.785156 5.714844 L 356.785156 239.667969 L 102.335938 239.667969 Z M 102.335938 5.714844 L 272.941406 87.925781 C 272.941406 95.925781 266.457031 102.414062 258.453125 102.414062 C 250.453125 102.414062 243.964844 95.925781 243.964844 87.925781 C 243.964844 79.921875 250.453125 73.4375 258.453125 73.4375 C 266.457031 73.4375 272.941406 79.921875 272.941406 87.925781 Z M 102.335938 5.714844 "/>
</clipPath>
<clipPath id="clip63">
  <path d="M 102.335938 5.714844 L 356.785156 5.714844 L 356.785156 239.667969 L 102.335938 239.667969 Z M 102.335938 5.714844 L 215.15625 157.457031 C 215.15625 165.460938 208.667969 171.945312 200.667969 171.945312 C 192.664062 171.945312 186.179688 165.460938 186.179688 157.457031 C 186.179688 149.457031 192.664062 142.96875 200.667969 142.96875 C 208.667969 142.96875 215.15625 149.457031 215.15625 157.457031 Z M 102.335938 5.714844 "/>
</clipPath>
<clipPath id="clip64">
  <path d="M 159 88.601562 L 247 88.601562 L 247 170.5625 L 159 170.5625 Z M 159 88.601562 "/>
</clipPath>
<clipPath id="clip65">
  <path d="M 74.101562 88.601562 L 331.835938 88.601562 L 331.835938 170.5625 L 74.101562 170.5625 Z M 74.101562 88.601562 L 219.757812 101.707031 C 219.757812 109.707031 213.273438 116.195312 205.269531 116.195312 C 197.269531 116.195312 190.78125 109.707031 190.78125 101.707031 C 190.78125 93.703125 197.269531 87.21875 205.269531 87.21875 C 213.273438 87.21875 219.757812 93.703125 219.757812 101.707031 Z M 74.101562 88.601562 "/>
</clipPath>
<clipPath id="clip66">
  <path d="M 74.101562 88.601562 L 331.835938 88.601562 L 331.835938 170.5625 L 74.101562 170.5625 Z M 74.101562 88.601562 L 215.15625 157.457031 C 215.15625 165.460938 208.667969 171.945312 200.667969 171.945312 C 192.664062 171.945312 186.179688 165.460938 186.179688 157.457031 C 186.179688 149.457031 192.664062 142.96875 200.667969 142.96875 C 208.667969 142.96875 215.15625 149.457031 215.15625 157.457031 Z M 74.101562 88.601562 "/>
</clipPath>
<clipPath id="clip67">
  <path d="M 141.734375 60 L 233.554688 60 L 233.554688 151 L 141.734375 151 Z M 141.734375 60 "/>
</clipPath>
<clipPath id="clip68">
  <path d="M 141.734375 -22.65625 L 233.554688 -22.65625 L 233.554688 233.4375 L 141.734375 233.4375 Z M 141.734375 -22.65625 L 219.757812 101.707031 C 219.757812 109.707031 213.273438 116.195312 205.269531 116.195312 C 197.269531 116.195312 190.78125 109.707031 190.78125 101.707031 C 190.78125 93.703125 197.269531 87.21875 205.269531 87.21875 C 213.273438 87.21875 219.757812 93.703125 219.757812 101.707031 Z M 141.734375 -22.65625 "/>
</clipPath>
<clipPath id="clip69">
  <path d="M 141.734375 -22.65625 L 233.554688 -22.65625 L 233.554688 233.4375 L 141.734375 233.4375 Z M 141.734375 -22.65625 L 184.507812 109.074219 C 184.507812 117.078125 178.019531 123.5625 170.019531 123.5625 C 162.015625 123.5625 155.53125 117.078125 155.53125 109.074219 C 155.53125 101.074219 162.015625 94.585938 170.019531 94.585938 C 178.019531 94.585938 184.507812 101.074219 184.507812 109.074219 Z M 141.734375 -22.65625 "/>
</clipPath>
<clipPath id="clip70">
  <path d="M 129 68 L 242 68 L 242 199 L 129 199 Z M 129 68 "/>
</clipPath>
<clipPath id="clip71">
  <path d="M 62.292969 39.773438 L 308.394531 39.773438 L 308.394531 226.757812 L 62.292969 226.757812 Z M 62.292969 39.773438 L 215.15625 157.457031 C 215.15625 165.460938 208.667969 171.945312 200.667969 171.945312 C 192.664062 171.945312 186.179688 165.460938 186.179688 157.457031 C 186.179688 149.457031 192.664062 142.96875 200.667969 142.96875 C 208.667969 142.96875 215.15625 149.457031 215.15625 157.457031 Z M 62.292969 39.773438 "/>
</clipPath>
<clipPath id="clip72">
  <path d="M 62.292969 39.773438 L 308.394531 39.773438 L 308.394531 226.757812 L 62.292969 226.757812 Z M 62.292969 39.773438 L 184.507812 109.074219 C 184.507812 117.078125 178.019531 123.5625 170.019531 123.5625 C 162.015625 123.5625 155.53125 117.078125 155.53125 109.074219 C 155.53125 101.074219 162.015625 94.585938 170.019531 94.585938 C 178.019531 94.585938 184.507812 101.074219 184.507812 109.074219 Z M 62.292969 39.773438 "/>
</clipPath>
<clipPath id="clip73">
  <path d="M 116.042969 111 L 211.804688 111 L 211.804688 199 L 116.042969 199 Z M 116.042969 111 "/>
</clipPath>
<clipPath id="clip74">
  <path d="M 116.042969 25.851562 L 211.804688 25.851562 L 211.804688 284.171875 L 116.042969 284.171875 Z M 116.042969 25.851562 L 215.15625 157.457031 C 215.15625 165.460938 208.667969 171.945312 200.667969 171.945312 C 192.664062 171.945312 186.179688 165.460938 186.179688 157.457031 C 186.179688 149.457031 192.664062 142.96875 200.667969 142.96875 C 208.667969 142.96875 215.15625 149.457031 215.15625 157.457031 Z M 116.042969 25.851562 "/>
</clipPath>
<clipPath id="clip75">
  <path d="M 116.042969 25.851562 L 211.804688 25.851562 L 211.804688 284.171875 L 116.042969 284.171875 Z M 116.042969 25.851562 L 141.667969 152.566406 C 141.667969 160.570312 135.179688 167.054688 127.179688 167.054688 C 119.175781 167.054688 112.6875 160.570312 112.6875 152.566406 C 112.6875 144.566406 119.175781 138.078125 127.179688 138.078125 C 135.179688 138.078125 141.667969 144.566406 141.667969 152.566406 Z M 116.042969 25.851562 "/>
</clipPath>
<clipPath id="clip76">
  <path d="M 85 116 L 242 116 L 242 261 L 85 261 Z M 85 116 "/>
</clipPath>
<clipPath id="clip77">
  <path d="M 43.847656 59.800781 L 283.683594 59.800781 L 283.683594 317.515625 L 43.847656 317.515625 Z M 43.847656 59.800781 L 215.15625 157.457031 C 215.15625 165.460938 208.667969 171.945312 200.667969 171.945312 C 192.664062 171.945312 186.179688 165.460938 186.179688 157.457031 C 186.179688 149.457031 192.664062 142.96875 200.667969 142.96875 C 208.667969 142.96875 215.15625 149.457031 215.15625 157.457031 Z M 43.847656 59.800781 "/>
</clipPath>
<clipPath id="clip78">
  <path d="M 43.847656 59.800781 L 283.683594 59.800781 L 283.683594 317.515625 L 43.847656 317.515625 Z M 43.847656 59.800781 L 141.351562 219.859375 C 141.351562 227.859375 134.863281 234.347656 126.863281 234.347656 C 118.859375 234.347656 112.375 227.859375 112.375 219.859375 C 112.375 211.855469 118.859375 205.371094 126.863281 205.371094 C 134.863281 205.371094 141.351562 211.855469 141.351562 219.859375 Z M 43.847656 59.800781 "/>
</clipPath>
<clipPath id="clip79">
  <path d="M 482.769531 156 L 598.113281 156 L 598.113281 251 L 482.769531 251 Z M 482.769531 156 "/>
</clipPath>
<clipPath id="clip80">
  <path d="M 482.769531 75.875 L 598.113281 75.875 L 598.113281 331.613281 L 482.769531 331.613281 Z M 482.769531 75.875 L 534.898438 209.585938 C 534.898438 217.589844 528.410156 224.074219 520.410156 224.074219 C 512.40625 224.074219 505.921875 217.589844 505.921875 209.585938 C 505.921875 201.585938 512.40625 195.097656 520.410156 195.097656 C 528.410156 195.097656 534.898438 201.585938 534.898438 209.585938 Z M 482.769531 75.875 "/>
</clipPath>
<clipPath id="clip81">
  <path d="M 482.769531 75.875 L 598.113281 75.875 L 598.113281 331.613281 L 482.769531 331.613281 Z M 482.769531 75.875 L 574.960938 197.902344 C 574.960938 205.90625 568.472656 212.390625 560.472656 212.390625 C 552.46875 212.390625 545.984375 205.90625 545.984375 197.902344 C 545.984375 189.902344 552.46875 183.414062 560.472656 183.414062 C 568.472656 183.414062 574.960938 189.902344 574.960938 197.902344 Z M 482.769531 75.875 "/>
</clipPath>
<clipPath id="clip82">
  <path d="M 436 451 L 542 451 L 542 569 L 436 569 Z M 436 451 "/>
</clipPath>
<clipPath id="clip83">
  <path d="M 371.113281 421.960938 L 607.292969 421.960938 L 607.292969 598.140625 L 371.113281 598.140625 Z M 371.113281 421.960938 L 492.378906 527.363281 C 492.378906 535.363281 485.890625 541.851562 477.890625 541.851562 C 469.890625 541.851562 463.402344 535.363281 463.402344 527.363281 C 463.402344 519.363281 469.890625 512.875 477.890625 512.875 C 485.890625 512.875 492.378906 519.363281 492.378906 527.363281 Z M 371.113281 421.960938 "/>
</clipPath>
<clipPath id="clip84">
  <path d="M 371.113281 421.960938 L 607.292969 421.960938 L 607.292969 598.140625 L 371.113281 598.140625 Z M 371.113281 421.960938 L 515.003906 492.738281 C 515.003906 500.738281 508.515625 507.226562 500.515625 507.226562 C 492.511719 507.226562 486.027344 500.738281 486.027344 492.738281 C 486.027344 484.734375 492.511719 478.25 500.515625 478.25 C 508.515625 478.25 515.003906 484.734375 515.003906 492.738281 Z M 371.113281 421.960938 "/>
</clipPath>
<clipPath id="clip85">
  <path d="M 480 370.644531 L 570 370.644531 L 570 461.148438 L 480 461.148438 Z M 480 370.644531 "/>
</clipPath>
<clipPath id="clip86">
  <path d="M 395.710938 370.644531 L 654.53125 370.644531 L 654.53125 461.148438 L 395.710938 461.148438 Z M 395.710938 370.644531 L 536.441406 444.667969 C 536.441406 452.667969 529.957031 459.15625 521.953125 459.15625 C 513.953125 459.15625 507.464844 452.667969 507.464844 444.667969 C 507.464844 436.664062 513.953125 430.179688 521.953125 430.179688 C 529.957031 430.179688 536.441406 436.664062 536.441406 444.667969 Z M 395.710938 370.644531 "/>
</clipPath>
<clipPath id="clip87">
  <path d="M 395.710938 370.644531 L 654.53125 370.644531 L 654.53125 461.148438 L 395.710938 461.148438 Z M 395.710938 370.644531 L 542.777344 387.125 C 542.777344 395.125 536.289062 401.613281 528.289062 401.613281 C 520.285156 401.613281 513.800781 395.125 513.800781 387.125 C 513.800781 379.121094 520.285156 372.636719 528.289062 372.636719 C 536.289062 372.636719 542.777344 379.121094 542.777344 387.125 Z M 395.710938 370.644531 "/>
</clipPath>
<clipPath id="clip88">
  <path d="M 459 403 L 563 403 L 563 534 L 459 534 Z M 459 403 "/>
</clipPath>
<clipPath id="clip89">
  <path d="M 384.285156 391.226562 L 638.183594 391.226562 L 638.183594 546.179688 L 384.285156 546.179688 Z M 384.285156 391.226562 L 536.441406 444.667969 C 536.441406 452.667969 529.957031 459.15625 521.953125 459.15625 C 513.953125 459.15625 507.464844 452.667969 507.464844 444.667969 C 507.464844 436.664062 513.953125 430.179688 521.953125 430.179688 C 529.957031 430.179688 536.441406 436.664062 536.441406 444.667969 Z M 384.285156 391.226562 "/>
</clipPath>
<clipPath id="clip90">
  <path d="M 384.285156 391.226562 L 638.183594 391.226562 L 638.183594 546.179688 L 384.285156 546.179688 Z M 384.285156 391.226562 L 515.003906 492.738281 C 515.003906 500.738281 508.515625 507.226562 500.515625 507.226562 C 492.511719 507.226562 486.027344 500.738281 486.027344 492.738281 C 486.027344 484.734375 492.511719 478.25 500.515625 478.25 C 508.515625 478.25 515.003906 484.734375 515.003906 492.738281 Z M 384.285156 391.226562 "/>
</clipPath>
<clipPath id="clip91">
  <path d="M 496.902344 273 L 586.207031 273 L 586.207031 363 L 496.902344 363 Z M 496.902344 273 "/>
</clipPath>
<clipPath id="clip92">
  <path d="M 496.902344 189.148438 L 586.207031 189.148438 L 586.207031 447.390625 L 496.902344 447.390625 Z M 496.902344 189.148438 L 579.425781 321.769531 C 579.425781 329.769531 572.941406 336.257812 564.9375 336.257812 C 556.9375 336.257812 550.449219 329.769531 550.449219 321.769531 C 550.449219 313.765625 556.9375 307.28125 564.9375 307.28125 C 572.941406 307.28125 579.425781 313.765625 579.425781 321.769531 Z M 496.902344 189.148438 "/>
</clipPath>
<clipPath id="clip93">
  <path d="M 496.902344 189.148438 L 586.207031 189.148438 L 586.207031 447.390625 L 496.902344 447.390625 Z M 496.902344 189.148438 L 532.660156 314.769531 C 532.660156 322.773438 526.175781 329.257812 518.171875 329.257812 C 510.171875 329.257812 503.683594 322.773438 503.683594 314.769531 C 503.683594 306.769531 510.171875 300.28125 518.171875 300.28125 C 526.175781 300.28125 532.660156 306.769531 532.660156 314.769531 Z M 496.902344 189.148438 "/>
</clipPath>
<clipPath id="clip94">
  <path d="M 477 294.6875 L 570 294.6875 L 570 407.207031 L 477 407.207031 Z M 477 294.6875 "/>
</clipPath>
<clipPath id="clip95">
  <path d="M 392.378906 294.6875 L 654.082031 294.6875 L 654.082031 407.207031 L 392.378906 407.207031 Z M 392.378906 294.6875 L 542.777344 387.125 C 542.777344 395.125 536.289062 401.613281 528.289062 401.613281 C 520.285156 401.613281 513.800781 395.125 513.800781 387.125 C 513.800781 379.121094 520.285156 372.636719 528.289062 372.636719 C 536.289062 372.636719 542.777344 379.121094 542.777344 387.125 Z M 392.378906 294.6875 "/>
</clipPath>
<clipPath id="clip96">
  <path d="M 392.378906 294.6875 L 654.082031 294.6875 L 654.082031 407.207031 L 392.378906 407.207031 Z M 392.378906 294.6875 L 532.660156 314.769531 C 532.660156 322.773438 526.175781 329.257812 518.171875 329.257812 C 510.171875 329.257812 503.683594 322.773438 503.683594 314.769531 C 503.683594 306.769531 510.171875 300.28125 518.171875 300.28125 C 526.175781 300.28125 532.660156 306.769531 532.660156 314.769531 Z M 392.378906 294.6875 "/>
</clipPath>
<clipPath id="clip97">
  <path d="M 31 388 L 145 388 L 145 492 L 31 492 Z M 31 388 "/>
</clipPath>
<clipPath id="clip98">
  <path d="M 2.175781 322.332031 L 173.695312 322.332031 L 173.695312 557.5625 L 2.175781 557.5625 Z M 2.175781 322.332031 L 118.375 450.160156 C 118.375 458.160156 111.890625 464.648438 103.886719 464.648438 C 95.886719 464.648438 89.398438 458.160156 89.398438 450.160156 C 89.398438 442.15625 95.886719 435.671875 103.886719 435.671875 C 111.890625 435.671875 118.375 442.15625 118.375 450.160156 Z M 2.175781 322.332031 "/>
</clipPath>
<clipPath id="clip99">
  <path d="M 2.175781 322.332031 L 173.695312 322.332031 L 173.695312 557.5625 L 2.175781 557.5625 Z M 2.175781 322.332031 L 86.472656 429.734375 C 86.472656 437.734375 79.984375 444.222656 71.984375 444.222656 C 63.980469 444.222656 57.496094 437.734375 57.496094 429.734375 C 57.496094 421.734375 63.980469 415.246094 71.984375 415.246094 C 79.984375 415.246094 86.472656 421.734375 86.472656 429.734375 Z M 2.175781 322.332031 "/>
</clipPath>
<clipPath id="clip100">
  <path d="M 62 409 L 193 409 L 193 519 L 62 519 Z M 62 409 "/>
</clipPath>
<clipPath id="clip101">
  <path d="M 39.578125 339.433594 L 215.777344 339.433594 L 215.777344 587.984375 L 39.578125 587.984375 Z M 39.578125 339.433594 L 118.375 450.160156 C 118.375 458.160156 111.890625 464.648438 103.886719 464.648438 C 95.886719 464.648438 89.398438 458.160156 89.398438 450.160156 C 89.398438 442.15625 95.886719 435.671875 103.886719 435.671875 C 111.890625 435.671875 118.375 442.15625 118.375 450.160156 Z M 39.578125 339.433594 "/>
</clipPath>
<clipPath id="clip102">
  <path d="M 39.578125 339.433594 L 215.777344 339.433594 L 215.777344 587.984375 L 39.578125 587.984375 Z M 39.578125 339.433594 L 165.957031 477.257812 C 165.957031 485.261719 159.46875 491.75 151.46875 491.75 C 143.464844 491.75 136.980469 485.261719 136.980469 477.257812 C 136.980469 469.257812 143.464844 462.769531 151.46875 462.769531 C 159.46875 462.769531 165.957031 469.257812 165.957031 477.257812 Z M 39.578125 339.433594 "/>
</clipPath>
<clipPath id="clip103">
  <path d="M 0 251 L 90 251 L 90 367 L 0 367 Z M 0 251 "/>
</clipPath>
<clipPath id="clip104">
  <path d="M -83.117188 243.5 L 166.558594 243.5 L 166.558594 374.570312 L -83.117188 374.570312 Z M -83.117188 243.5 L 49.550781 325.75 C 49.550781 333.753906 43.0625 340.238281 35.0625 340.238281 C 27.058594 340.238281 20.574219 333.753906 20.574219 325.75 C 20.574219 317.75 27.058594 311.261719 35.0625 311.261719 C 43.0625 311.261719 49.550781 317.75 49.550781 325.75 Z M -83.117188 243.5 "/>
</clipPath>
<clipPath id="clip105">
  <path d="M -83.117188 243.5 L 166.558594 243.5 L 166.558594 374.570312 L -83.117188 374.570312 Z M -83.117188 243.5 L 62.867188 292.320312 C 62.867188 300.320312 56.378906 306.808594 48.378906 306.808594 C 40.378906 306.808594 33.890625 300.320312 33.890625 292.320312 C 33.890625 284.316406 40.378906 277.832031 48.378906 277.832031 C 56.378906 277.832031 62.867188 284.316406 62.867188 292.320312 Z M -83.117188 243.5 "/>
</clipPath>
<clipPath id="clip106">
  <path d="M 7 214 L 119 214 L 119 334 L 7 334 Z M 7 214 "/>
</clipPath>
<clipPath id="clip107">
  <path d="M -52.101562 175.980469 L 177.757812 175.980469 L 177.757812 371.871094 L -52.101562 371.871094 Z M -52.101562 175.980469 L 62.867188 292.320312 C 62.867188 300.320312 56.378906 306.808594 48.378906 306.808594 C 40.378906 306.808594 33.890625 300.320312 33.890625 292.320312 C 33.890625 284.316406 40.378906 277.832031 48.378906 277.832031 C 56.378906 277.832031 62.867188 284.316406 62.867188 292.320312 Z M -52.101562 175.980469 "/>
</clipPath>
<clipPath id="clip108">
  <path d="M -52.101562 175.980469 L 177.757812 175.980469 L 177.757812 371.871094 L -52.101562 371.871094 Z M -52.101562 175.980469 L 91.765625 255.53125 C 91.765625 263.535156 85.277344 270.019531 77.277344 270.019531 C 69.277344 270.019531 62.789062 263.535156 62.789062 255.53125 C 62.789062 247.53125 69.277344 241.042969 77.277344 241.042969 C 85.277344 241.042969 91.765625 247.53125 91.765625 255.53125 Z M -52.101562 175.980469 "/>
</clipPath>
<clipPath id="clip109">
  <path d="M 36 178 L 168 178 L 168 297 L 36 297 Z M 36 178 "/>
</clipPath>
<clipPath id="clip110">
  <path d="M 1.914062 116.230469 L 202.226562 116.230469 L 202.226562 359.160156 L 1.914062 359.160156 Z M 1.914062 116.230469 L 141.351562 219.859375 C 141.351562 227.859375 134.863281 234.347656 126.863281 234.347656 C 118.859375 234.347656 112.375 227.859375 112.375 219.859375 C 112.375 211.855469 118.859375 205.371094 126.863281 205.371094 C 134.863281 205.371094 141.351562 211.855469 141.351562 219.859375 Z M 1.914062 116.230469 "/>
</clipPath>
<clipPath id="clip111">
  <path d="M 1.914062 116.230469 L 202.226562 116.230469 L 202.226562 359.160156 L 1.914062 359.160156 Z M 1.914062 116.230469 L 91.765625 255.53125 C 91.765625 263.535156 85.277344 270.019531 77.277344 270.019531 C 69.277344 270.019531 62.789062 263.535156 62.789062 255.53125 C 62.789062 247.53125 69.277344 241.042969 77.277344 241.042969 C 85.277344 241.042969 91.765625 247.53125 91.765625 255.53125 Z M 1.914062 116.230469 "/>
</clipPath>
</defs>
<g id="surface776">
<g clip-path="url(#clip1)" clip-rule="nonzero">
<g clip-path="url(#clip2)" clip-rule="evenodd">
<g clip-path="url(#clip3)" clip-rule="evenodd">
<path style="fill:none;stroke-width:0.0233514;stroke-linecap:butt;stroke-linejoin:miter;stroke:rgb(17.96875%,20.3125%,21.09375%);stroke-opacity:0.8;stroke-miterlimit:10;" d="M 2.924864 3.254756 L 3.047413 2.245627 " transform="matrix(124.089765,0,0,124.089765,-51.531677,-43.413184)"/>
</g>
</g>
</g>
<g clip-path="url(#clip4)" clip-rule="nonzero">
<g clip-path="url(#clip5)" clip-rule="evenodd">
<g clip-path="url(#clip6)" clip-rule="evenodd">
<path style="fill:none;stroke-width:0.0233514;stroke-linecap:butt;stroke-linejoin:miter;stroke:rgb(17.96875%,20.3125%,21.09375%);stroke-opacity:0.8;stroke-miterlimit:10;" d="M 2.924864 3.254756 L 2.867761 4.23461 " transform="matrix(124.089765,0,0,124.089765,-51.531677,-43.413184)"/>
</g>
</g>
</g>
<g clip-path="url(#clip7)" clip-rule="nonzero">
<g clip-path="url(#clip8)" clip-rule="evenodd">
<g clip-path="url(#clip9)" clip-rule="evenodd">
<path style="fill:none;stroke-width:0.0233514;stroke-linecap:butt;stroke-linejoin:miter;stroke:rgb(17.96875%,20.3125%,21.09375%);stroke-opacity:0.8;stroke-miterlimit:10;" d="M 2.924864 3.254756 L 3.141599 3.366004 " transform="matrix(124.089765,0,0,124.089765,-51.531677,-43.413184)"/>
</g>
</g>
</g>
<g clip-path="url(#clip10)" clip-rule="nonzero">
<g clip-path="url(#clip11)" clip-rule="evenodd">
<g clip-path="url(#clip12)" clip-rule="evenodd">
<path style="fill:none;stroke-width:0.0233514;stroke-linecap:butt;stroke-linejoin:miter;stroke:rgb(17.96875%,20.3125%,21.09375%);stroke-opacity:0.8;stroke-miterlimit:10;" d="M 4.10713 2.184683 L 4.201567 1.505204 " transform="matrix(124.089765,0,0,124.089765,-51.531677,-43.413184)"/>
</g>
</g>
</g>
<g clip-path="url(#clip13)" clip-rule="nonzero">
<g clip-path="url(#clip14)" clip-rule="evenodd">
<g clip-path="url(#clip15)" clip-rule="evenodd">
<path style="fill:none;stroke-width:0.0233514;stroke-linecap:butt;stroke-linejoin:miter;stroke:rgb(17.96875%,20.3125%,21.09375%);stroke-opacity:0.8;stroke-miterlimit:10;" d="M 4.10713 2.184683 L 3.047413 2.245627 " transform="matrix(124.089765,0,0,124.089765,-51.531677,-43.413184)"/>
</g>
</g>
</g>
<g clip-path="url(#clip16)" clip-rule="nonzero">
<g clip-path="url(#clip17)" clip-rule="evenodd">
<g clip-path="url(#clip18)" clip-rule="evenodd">
<path style="fill:none;stroke-width:0.0233514;stroke-linecap:butt;stroke-linejoin:miter;stroke:rgb(17.96875%,20.3125%,21.09375%);stroke-opacity:0.8;stroke-miterlimit:10;" d="M 4.10713 2.184683 L 4.609098 2.03884 " transform="matrix(124.089765,0,0,124.089765,-51.531677,-43.413184)"/>
</g>
</g>
</g>
<g clip-path="url(#clip19)" clip-rule="nonzero">
<g clip-path="url(#clip20)" clip-rule="evenodd">
<g clip-path="url(#clip21)" clip-rule="evenodd">
<path style="fill:none;stroke-width:0.0233514;stroke-linecap:butt;stroke-linejoin:miter;stroke:rgb(17.96875%,20.3125%,21.09375%);stroke-opacity:0.8;stroke-miterlimit:10;" d="M 4.10713 2.184683 L 4.59106 2.886481 " transform="matrix(124.089765,0,0,124.089765,-51.531677,-43.413184)"/>
</g>
</g>
</g>
<g clip-path="url(#clip22)" clip-rule="nonzero">
<g clip-path="url(#clip23)" clip-rule="evenodd">
<g clip-path="url(#clip24)" clip-rule="evenodd">
<path style="fill:none;stroke-width:0.0233514;stroke-linecap:butt;stroke-linejoin:miter;stroke:rgb(17.96875%,20.3125%,21.09375%);stroke-opacity:0.8;stroke-miterlimit:10;" d="M 4.212459 1.104095 L 4.201567 1.505204 " transform="matrix(124.089765,0,0,124.089765,-51.531677,-43.413184)"/>
</g>
</g>
</g>
<g clip-path="url(#clip25)" clip-rule="nonzero">
<g clip-path="url(#clip26)" clip-rule="evenodd">
<g clip-path="url(#clip27)" clip-rule="evenodd">
<path style="fill:none;stroke-width:0.0233514;stroke-linecap:butt;stroke-linejoin:miter;stroke:rgb(17.96875%,20.3125%,21.09375%);stroke-opacity:0.8;stroke-miterlimit:10;" d="M 3.047413 2.245627 L 2.032397 1.618749 " transform="matrix(124.089765,0,0,124.089765,-51.531677,-43.413184)"/>
</g>
</g>
</g>
<g clip-path="url(#clip28)" clip-rule="nonzero">
<g clip-path="url(#clip29)" clip-rule="evenodd">
<g clip-path="url(#clip30)" clip-rule="evenodd">
<path style="fill:none;stroke-width:0.0233514;stroke-linecap:butt;stroke-linejoin:miter;stroke:rgb(17.96875%,20.3125%,21.09375%);stroke-opacity:0.8;stroke-miterlimit:10;" d="M 3.047413 2.245627 L 3.146447 1.691466 " transform="matrix(124.089765,0,0,124.089765,-51.531677,-43.413184)"/>
</g>
</g>
</g>
<g clip-path="url(#clip31)" clip-rule="nonzero">
<g clip-path="url(#clip32)" clip-rule="evenodd">
<g clip-path="url(#clip33)" clip-rule="evenodd">
<path style="fill:none;stroke-width:0.0233514;stroke-linecap:butt;stroke-linejoin:miter;stroke:rgb(17.96875%,20.3125%,21.09375%);stroke-opacity:0.8;stroke-miterlimit:10;" d="M 2.176729 4.503537 L 2.867761 4.23461 " transform="matrix(124.089765,0,0,124.089765,-51.531677,-43.413184)"/>
</g>
</g>
</g>
<g clip-path="url(#clip34)" clip-rule="nonzero">
<g clip-path="url(#clip35)" clip-rule="evenodd">
<g clip-path="url(#clip36)" clip-rule="evenodd">
<path style="fill:none;stroke-width:0.0233514;stroke-linecap:butt;stroke-linejoin:miter;stroke:rgb(17.96875%,20.3125%,21.09375%);stroke-opacity:0.8;stroke-miterlimit:10;" d="M 2.176729 4.503537 L 1.882902 4.729432 " transform="matrix(124.089765,0,0,124.089765,-51.531677,-43.413184)"/>
</g>
</g>
</g>
<g clip-path="url(#clip37)" clip-rule="nonzero">
<g clip-path="url(#clip38)" clip-rule="evenodd">
<g clip-path="url(#clip39)" clip-rule="evenodd">
<path style="fill:none;stroke-width:0.0233514;stroke-linecap:butt;stroke-linejoin:miter;stroke:rgb(17.96875%,20.3125%,21.09375%);stroke-opacity:0.8;stroke-miterlimit:10;" d="M 2.176729 4.503537 L 2.329498 4.908895 " transform="matrix(124.089765,0,0,124.089765,-51.531677,-43.413184)"/>
</g>
</g>
</g>
<g clip-path="url(#clip40)" clip-rule="nonzero">
<g clip-path="url(#clip41)" clip-rule="evenodd">
<g clip-path="url(#clip42)" clip-rule="evenodd">
<path style="fill:none;stroke-width:0.0233514;stroke-linecap:butt;stroke-linejoin:miter;stroke:rgb(17.96875%,20.3125%,21.09375%);stroke-opacity:0.8;stroke-miterlimit:10;" d="M 2.176729 4.503537 L 1.635916 4.195922 " transform="matrix(124.089765,0,0,124.089765,-51.531677,-43.413184)"/>
</g>
</g>
</g>
<g clip-path="url(#clip43)" clip-rule="nonzero">
<g clip-path="url(#clip44)" clip-rule="evenodd">
<g clip-path="url(#clip45)" clip-rule="evenodd">
<path style="fill:none;stroke-width:0.0233514;stroke-linecap:butt;stroke-linejoin:miter;stroke:rgb(17.96875%,20.3125%,21.09375%);stroke-opacity:0.8;stroke-miterlimit:10;" d="M 2.867761 4.23461 L 3.09416 4.761698 " transform="matrix(124.089765,0,0,124.089765,-51.531677,-43.413184)"/>
</g>
</g>
</g>
<g clip-path="url(#clip46)" clip-rule="nonzero">
<g clip-path="url(#clip47)" clip-rule="evenodd">
<g clip-path="url(#clip48)" clip-rule="evenodd">
<path style="fill:none;stroke-width:0.0233514;stroke-linecap:butt;stroke-linejoin:miter;stroke:rgb(17.96875%,20.3125%,21.09375%);stroke-opacity:0.8;stroke-miterlimit:10;" d="M 2.867761 4.23461 L 3.272332 4.426665 " transform="matrix(124.089765,0,0,124.089765,-51.531677,-43.413184)"/>
</g>
</g>
</g>
<g clip-path="url(#clip49)" clip-rule="nonzero">
<g clip-path="url(#clip50)" clip-rule="evenodd">
<g clip-path="url(#clip51)" clip-rule="evenodd">
<path style="fill:none;stroke-width:0.0233514;stroke-linecap:butt;stroke-linejoin:miter;stroke:rgb(17.96875%,20.3125%,21.09375%);stroke-opacity:0.8;stroke-miterlimit:10;" d="M 3.019837 1.192332 L 2.498069 1.058419 " transform="matrix(124.089765,0,0,124.089765,-51.531677,-43.413184)"/>
</g>
</g>
</g>
<g clip-path="url(#clip52)" clip-rule="nonzero">
<g clip-path="url(#clip53)" clip-rule="evenodd">
<g clip-path="url(#clip54)" clip-rule="evenodd">
<path style="fill:none;stroke-width:0.0233514;stroke-linecap:butt;stroke-linejoin:miter;stroke:rgb(17.96875%,20.3125%,21.09375%);stroke-opacity:0.8;stroke-miterlimit:10;" d="M 3.019837 1.192332 L 3.146447 1.691466 " transform="matrix(124.089765,0,0,124.089765,-51.531677,-43.413184)"/>
</g>
</g>
</g>
<g clip-path="url(#clip55)" clip-rule="nonzero">
<g clip-path="url(#clip56)" clip-rule="evenodd">
<g clip-path="url(#clip57)" clip-rule="evenodd">
<path style="fill:none;stroke-width:0.0233514;stroke-linecap:butt;stroke-linejoin:miter;stroke:rgb(17.96875%,20.3125%,21.09375%);stroke-opacity:0.8;stroke-miterlimit:10;" d="M 2.498069 1.058419 L 2.751697 0.62602 " transform="matrix(124.089765,0,0,124.089765,-51.531677,-43.413184)"/>
</g>
</g>
</g>
<g clip-path="url(#clip58)" clip-rule="nonzero">
<g clip-path="url(#clip59)" clip-rule="evenodd">
<g clip-path="url(#clip60)" clip-rule="evenodd">
<path style="fill:none;stroke-width:0.0233514;stroke-linecap:butt;stroke-linejoin:miter;stroke:rgb(17.96875%,20.3125%,21.09375%);stroke-opacity:0.8;stroke-miterlimit:10;" d="M 2.498069 1.058419 L 2.069479 1.169478 " transform="matrix(124.089765,0,0,124.089765,-51.531677,-43.413184)"/>
</g>
</g>
</g>
<g clip-path="url(#clip61)" clip-rule="nonzero">
<g clip-path="url(#clip62)" clip-rule="evenodd">
<g clip-path="url(#clip63)" clip-rule="evenodd">
<path style="fill:none;stroke-width:0.0233514;stroke-linecap:butt;stroke-linejoin:miter;stroke:rgb(17.96875%,20.3125%,21.09375%);stroke-opacity:0.8;stroke-miterlimit:10;" d="M 2.498069 1.058419 L 2.032397 1.618749 " transform="matrix(124.089765,0,0,124.089765,-51.531677,-43.413184)"/>
</g>
</g>
</g>
<g clip-path="url(#clip64)" clip-rule="nonzero">
<g clip-path="url(#clip65)" clip-rule="evenodd">
<g clip-path="url(#clip66)" clip-rule="evenodd">
<path style="fill:none;stroke-width:0.0233514;stroke-linecap:butt;stroke-linejoin:miter;stroke:rgb(17.96875%,20.3125%,21.09375%);stroke-opacity:0.8;stroke-miterlimit:10;" d="M 2.069479 1.169478 L 2.032397 1.618749 " transform="matrix(124.089765,0,0,124.089765,-51.531677,-43.413184)"/>
</g>
</g>
</g>
<g clip-path="url(#clip67)" clip-rule="nonzero">
<g clip-path="url(#clip68)" clip-rule="evenodd">
<g clip-path="url(#clip69)" clip-rule="evenodd">
<path style="fill:none;stroke-width:0.0233514;stroke-linecap:butt;stroke-linejoin:miter;stroke:rgb(17.96875%,20.3125%,21.09375%);stroke-opacity:0.8;stroke-miterlimit:10;" d="M 2.069479 1.169478 L 1.785411 1.228848 " transform="matrix(124.089765,0,0,124.089765,-51.531677,-43.413184)"/>
</g>
</g>
</g>
<g clip-path="url(#clip70)" clip-rule="nonzero">
<g clip-path="url(#clip71)" clip-rule="evenodd">
<g clip-path="url(#clip72)" clip-rule="evenodd">
<path style="fill:none;stroke-width:0.0233514;stroke-linecap:butt;stroke-linejoin:miter;stroke:rgb(17.96875%,20.3125%,21.09375%);stroke-opacity:0.8;stroke-miterlimit:10;" d="M 2.032397 1.618749 L 1.785411 1.228848 " transform="matrix(124.089765,0,0,124.089765,-51.531677,-43.413184)"/>
</g>
</g>
</g>
<g clip-path="url(#clip73)" clip-rule="nonzero">
<g clip-path="url(#clip74)" clip-rule="evenodd">
<g clip-path="url(#clip75)" clip-rule="evenodd">
<path style="fill:none;stroke-width:0.0233514;stroke-linecap:butt;stroke-linejoin:miter;stroke:rgb(17.96875%,20.3125%,21.09375%);stroke-opacity:0.8;stroke-miterlimit:10;" d="M 2.032397 1.618749 L 1.440178 1.579337 " transform="matrix(124.089765,0,0,124.089765,-51.531677,-43.413184)"/>
</g>
</g>
</g>
<g clip-path="url(#clip76)" clip-rule="nonzero">
<g clip-path="url(#clip77)" clip-rule="evenodd">
<g clip-path="url(#clip78)" clip-rule="evenodd">
<path style="fill:none;stroke-width:0.0233514;stroke-linecap:butt;stroke-linejoin:miter;stroke:rgb(17.96875%,20.3125%,21.09375%);stroke-opacity:0.8;stroke-miterlimit:10;" d="M 2.032397 1.618749 L 1.437628 2.12163 " transform="matrix(124.089765,0,0,124.089765,-51.531677,-43.413184)"/>
</g>
</g>
</g>
<g clip-path="url(#clip79)" clip-rule="nonzero">
<g clip-path="url(#clip80)" clip-rule="evenodd">
<g clip-path="url(#clip81)" clip-rule="evenodd">
<path style="fill:none;stroke-width:0.0233514;stroke-linecap:butt;stroke-linejoin:miter;stroke:rgb(17.96875%,20.3125%,21.09375%);stroke-opacity:0.8;stroke-miterlimit:10;" d="M 4.609098 2.03884 L 4.931949 1.944685 " transform="matrix(124.089765,0,0,124.089765,-51.531677,-43.413184)"/>
</g>
</g>
</g>
<g clip-path="url(#clip82)" clip-rule="nonzero">
<g clip-path="url(#clip83)" clip-rule="evenodd">
<g clip-path="url(#clip84)" clip-rule="evenodd">
<path style="fill:none;stroke-width:0.0233514;stroke-linecap:butt;stroke-linejoin:miter;stroke:rgb(17.96875%,20.3125%,21.09375%);stroke-opacity:0.8;stroke-miterlimit:10;" d="M 4.266446 4.599706 L 4.448774 4.320674 " transform="matrix(124.089765,0,0,124.089765,-51.531677,-43.413184)"/>
</g>
</g>
</g>
<g clip-path="url(#clip85)" clip-rule="nonzero">
<g clip-path="url(#clip86)" clip-rule="evenodd">
<g clip-path="url(#clip87)" clip-rule="evenodd">
<path style="fill:none;stroke-width:0.0233514;stroke-linecap:butt;stroke-linejoin:miter;stroke:rgb(17.96875%,20.3125%,21.09375%);stroke-opacity:0.8;stroke-miterlimit:10;" d="M 4.621532 3.933291 L 4.672591 3.46957 " transform="matrix(124.089765,0,0,124.089765,-51.531677,-43.413184)"/>
</g>
</g>
</g>
<g clip-path="url(#clip88)" clip-rule="nonzero">
<g clip-path="url(#clip89)" clip-rule="evenodd">
<g clip-path="url(#clip90)" clip-rule="evenodd">
<path style="fill:none;stroke-width:0.0233514;stroke-linecap:butt;stroke-linejoin:miter;stroke:rgb(17.96875%,20.3125%,21.09375%);stroke-opacity:0.8;stroke-miterlimit:10;" d="M 4.621532 3.933291 L 4.448774 4.320674 " transform="matrix(124.089765,0,0,124.089765,-51.531677,-43.413184)"/>
</g>
</g>
</g>
<g clip-path="url(#clip91)" clip-rule="nonzero">
<g clip-path="url(#clip92)" clip-rule="evenodd">
<g clip-path="url(#clip93)" clip-rule="evenodd">
<path style="fill:none;stroke-width:0.0233514;stroke-linecap:butt;stroke-linejoin:miter;stroke:rgb(17.96875%,20.3125%,21.09375%);stroke-opacity:0.8;stroke-miterlimit:10;" d="M 4.967929 2.942891 L 4.59106 2.886481 " transform="matrix(124.089765,0,0,124.089765,-51.531677,-43.413184)"/>
</g>
</g>
</g>
<g clip-path="url(#clip94)" clip-rule="nonzero">
<g clip-path="url(#clip95)" clip-rule="evenodd">
<g clip-path="url(#clip96)" clip-rule="evenodd">
<path style="fill:none;stroke-width:0.0233514;stroke-linecap:butt;stroke-linejoin:miter;stroke:rgb(17.96875%,20.3125%,21.09375%);stroke-opacity:0.8;stroke-miterlimit:10;" d="M 4.672591 3.46957 L 4.59106 2.886481 " transform="matrix(124.089765,0,0,124.089765,-51.531677,-43.413184)"/>
</g>
</g>
</g>
<g clip-path="url(#clip97)" clip-rule="nonzero">
<g clip-path="url(#clip98)" clip-rule="evenodd">
<g clip-path="url(#clip99)" clip-rule="evenodd">
<path style="fill:none;stroke-width:0.0233514;stroke-linecap:butt;stroke-linejoin:miter;stroke:rgb(17.96875%,20.3125%,21.09375%);stroke-opacity:0.8;stroke-miterlimit:10;" d="M 1.252467 3.977551 L 0.995377 3.812946 " transform="matrix(124.089765,0,0,124.089765,-51.531677,-43.413184)"/>
</g>
</g>
</g>
<g clip-path="url(#clip100)" clip-rule="nonzero">
<g clip-path="url(#clip101)" clip-rule="evenodd">
<g clip-path="url(#clip102)" clip-rule="evenodd">
<path style="fill:none;stroke-width:0.0233514;stroke-linecap:butt;stroke-linejoin:miter;stroke:rgb(17.96875%,20.3125%,21.09375%);stroke-opacity:0.8;stroke-miterlimit:10;" d="M 1.252467 3.977551 L 1.635916 4.195922 " transform="matrix(124.089765,0,0,124.089765,-51.531677,-43.413184)"/>
</g>
</g>
</g>
<g clip-path="url(#clip103)" clip-rule="nonzero">
<g clip-path="url(#clip104)" clip-rule="evenodd">
<g clip-path="url(#clip105)" clip-rule="evenodd">
<path style="fill:none;stroke-width:0.0233514;stroke-linecap:butt;stroke-linejoin:miter;stroke:rgb(17.96875%,20.3125%,21.09375%);stroke-opacity:0.8;stroke-miterlimit:10;" d="M 0.697835 2.974969 L 0.805148 2.70557 " transform="matrix(124.089765,0,0,124.089765,-51.531677,-43.413184)"/>
</g>
</g>
</g>
<g clip-path="url(#clip106)" clip-rule="nonzero">
<g clip-path="url(#clip107)" clip-rule="evenodd">
<g clip-path="url(#clip108)" clip-rule="evenodd">
<path style="fill:none;stroke-width:0.0233514;stroke-linecap:butt;stroke-linejoin:miter;stroke:rgb(17.96875%,20.3125%,21.09375%);stroke-opacity:0.8;stroke-miterlimit:10;" d="M 0.805148 2.70557 L 1.038031 2.409098 " transform="matrix(124.089765,0,0,124.089765,-51.531677,-43.413184)"/>
</g>
</g>
</g>
<g clip-path="url(#clip109)" clip-rule="nonzero">
<g clip-path="url(#clip110)" clip-rule="evenodd">
<g clip-path="url(#clip111)" clip-rule="evenodd">
<path style="fill:none;stroke-width:0.0233514;stroke-linecap:butt;stroke-linejoin:miter;stroke:rgb(17.96875%,20.3125%,21.09375%);stroke-opacity:0.8;stroke-miterlimit:10;" d="M 1.437628 2.12163 L 1.038031 2.409098 " transform="matrix(124.089765,0,0,124.089765,-51.531677,-43.413184)"/>
</g>
</g>
</g>
<path style="fill-rule:nonzero;fill:rgb(100%,92.941176%,43.529412%);fill-opacity:1;stroke-width:0.0233514;stroke-linecap:butt;stroke-linejoin:miter;stroke:rgb(60%,60%,60%);stroke-opacity:0.8;stroke-miterlimit:10;" d="M 0.116753 0.00000326109 C 0.116753 0.0644727 0.0644975 0.11676 -0.00000344352 0.11676 C -0.0644729 0.11676 -0.11676 0.0644727 -0.11676 0.00000326109 C -0.11676 -0.0644977 -0.0644729 -0.116753 -0.00000344352 -0.116753 C 0.0644975 -0.116753 0.116753 -0.0644977 0.116753 0.00000326109 Z M 0.116753 0.00000326109 " transform="matrix(124.089765,0,0,124.089765,311.41449,360.468345)"/>
<path style="fill-rule:nonzero;fill:rgb(100%,92.941176%,43.529412%);fill-opacity:1;stroke-width:0.0233514;stroke-linecap:butt;stroke-linejoin:miter;stroke:rgb(60%,60%,60%);stroke-opacity:0.8;stroke-miterlimit:10;" d="M 0.116769 0.00000190379 C 0.116769 0.0644714 0.0644815 0.116758 0.0000120685 0.116758 C -0.0644889 0.116758 -0.116744 0.0644714 -0.116744 0.00000190379 C -0.116744 -0.0644676 -0.0644889 -0.116755 0.0000120685 -0.116755 C 0.0644815 -0.116755 0.116769 -0.0644676 0.116769 0.00000190379 Z M 0.116769 0.00000190379 " transform="matrix(124.089765,0,0,124.089765,458.119596,227.683358)"/>
<path style="fill-rule:nonzero;fill:rgb(100%,92.941176%,43.529412%);fill-opacity:1;stroke-width:0.0233514;stroke-linecap:butt;stroke-linejoin:miter;stroke:rgb(60%,60%,60%);stroke-opacity:0.8;stroke-miterlimit:10;" d="M 0.116767 -0.0000152683 C 0.116767 0.0644857 0.0644799 0.116773 0.0000104443 0.116773 C -0.0644905 0.116773 -0.116746 0.0644857 -0.116746 -0.0000152683 C -0.116746 -0.0644847 -0.0644905 -0.116772 0.0000104443 -0.116772 C 0.0644799 -0.116772 0.116767 -0.0644847 0.116767 -0.0000152683 Z M 0.116767 -0.0000152683 " transform="matrix(124.089765,0,0,124.089765,471.19011,93.595645)"/>
<path style="fill-rule:nonzero;fill:rgb(100%,92.941176%,43.529412%);fill-opacity:1;stroke-width:0.0233514;stroke-linecap:butt;stroke-linejoin:miter;stroke:rgb(60%,60%,60%);stroke-opacity:0.8;stroke-miterlimit:10;" d="M 0.116742 0.0000000401763 C 0.116742 0.0644695 0.064486 0.116756 -0.0000149175 0.116756 C -0.0644844 0.116756 -0.116771 0.0644695 -0.116771 0.0000000401763 C -0.116771 -0.0644694 -0.0644844 -0.116756 -0.0000149175 -0.116756 C 0.064486 -0.116756 0.116742 -0.0644694 0.116742 0.0000000401763 Z M 0.116742 0.0000000401763 " transform="matrix(124.089765,0,0,124.089765,469.841695,143.367183)"/>
<path style="fill-rule:nonzero;fill:rgb(100%,92.941176%,43.529412%);fill-opacity:1;stroke-width:0.0233514;stroke-linecap:butt;stroke-linejoin:miter;stroke:rgb(60%,60%,60%);stroke-opacity:0.8;stroke-miterlimit:10;" d="M 0.116762 -0.00000205537 C 0.116762 0.0644989 0.0644753 0.116754 0.00000585227 0.116754 C -0.0644951 0.116754 -0.116751 0.0644989 -0.116751 -0.00000205537 C -0.116751 -0.0644715 -0.0644951 -0.116759 0.00000585227 -0.116759 C 0.0644753 -0.116759 0.116762 -0.0644715 0.116762 -0.00000205537 Z M 0.116762 -0.00000205537 " transform="matrix(124.089765,0,0,124.089765,326.620368,235.246349)"/>
<path style="fill-rule:nonzero;fill:rgb(100%,92.941176%,43.529412%);fill-opacity:1;stroke-width:0.0233514;stroke-linecap:butt;stroke-linejoin:miter;stroke:rgb(60%,60%,60%);stroke-opacity:0.8;stroke-miterlimit:10;" d="M 0.116757 -0.0000111921 C 0.116757 0.0644897 0.0644696 0.116745 0.000000168538 0.116745 C -0.0644693 0.116745 -0.116756 0.0644897 -0.116756 -0.0000111921 C -0.116756 -0.0644807 -0.0644693 -0.116768 0.000000168538 -0.116768 C 0.0644696 -0.116768 0.116757 -0.0644807 0.116757 -0.0000111921 Z M 0.116757 -0.0000111921 " transform="matrix(124.089765,0,0,124.089765,218.578104,515.431076)"/>
<path style="fill-rule:nonzero;fill:rgb(100%,92.941176%,43.529412%);fill-opacity:1;stroke-width:0.0233514;stroke-linecap:butt;stroke-linejoin:miter;stroke:rgb(60%,60%,60%);stroke-opacity:0.8;stroke-miterlimit:10;" d="M 0.116762 -0.000010681 C 0.116762 0.0644903 0.0644755 0.116746 0.00000602205 0.116746 C -0.0644949 0.116746 -0.11675 0.0644903 -0.11675 -0.000010681 C -0.11675 -0.0644801 -0.0644949 -0.116767 0.00000602205 -0.116767 C 0.0644755 -0.116767 0.116762 -0.0644801 0.116762 -0.000010681 Z M 0.116762 -0.000010681 " transform="matrix(124.089765,0,0,124.089765,304.327378,482.059919)"/>
<path style="fill-rule:nonzero;fill:rgb(100%,92.941176%,43.529412%);fill-opacity:1;stroke-width:0.0233514;stroke-linecap:butt;stroke-linejoin:miter;stroke:rgb(60%,60%,60%);stroke-opacity:0.8;stroke-miterlimit:10;" d="M 0.11676 0.00000187307 C 0.11676 0.0644713 0.0644732 0.116758 0.00000372667 0.116758 C -0.0644972 0.116758 -0.116753 0.0644713 -0.116753 0.00000187307 C -0.116753 -0.0644676 -0.0644972 -0.116755 0.00000372667 -0.116755 C 0.0644732 -0.116755 0.11676 -0.0644676 0.11676 0.00000187307 Z M 0.11676 0.00000187307 " transform="matrix(124.089765,0,0,124.089765,182.116725,543.460705)"/>
<path style="fill-rule:nonzero;fill:rgb(100%,92.941176%,43.529412%);fill-opacity:1;stroke-width:0.0233514;stroke-linecap:butt;stroke-linejoin:miter;stroke:rgb(60%,60%,60%);stroke-opacity:0.8;stroke-miterlimit:10;" d="M 0.116746 -0.000000114773 C 0.116746 0.0644693 0.0644905 0.116756 -0.0000104818 0.116756 C -0.0644799 0.116756 -0.116767 0.0644693 -0.116767 -0.000000114773 C -0.116767 -0.0644696 -0.0644799 -0.116757 -0.0000104818 -0.116757 C 0.0644905 -0.116757 0.116746 -0.0644696 0.116746 -0.000000114773 Z M 0.116746 -0.000000114773 " transform="matrix(124.089765,0,0,124.089765,237.536457,565.730483)"/>
<path style="fill-rule:nonzero;fill:rgb(100%,92.941176%,43.529412%);fill-opacity:1;stroke-width:0.0233514;stroke-linecap:butt;stroke-linejoin:miter;stroke:rgb(60%,60%,60%);stroke-opacity:0.8;stroke-miterlimit:10;" d="M 0.116755 0.00000835499 C 0.116755 0.0644778 0.0644675 0.116765 -0.00000192577 0.116765 C -0.0644714 0.116765 -0.116758 0.0644778 -0.116758 0.00000835499 C -0.116758 -0.0644926 -0.0644714 -0.116748 -0.00000192577 -0.116748 C 0.0644675 -0.116748 0.116755 -0.0644926 0.116755 0.00000835499 Z M 0.116755 0.00000835499 " transform="matrix(124.089765,0,0,124.089765,332.422114,547.463807)"/>
<path style="fill-rule:nonzero;fill:rgb(100%,92.941176%,43.529412%);fill-opacity:1;stroke-width:0.0233514;stroke-linecap:butt;stroke-linejoin:miter;stroke:rgb(60%,60%,60%);stroke-opacity:0.8;stroke-miterlimit:10;" d="M 0.116772 0.00000694951 C 0.116772 0.0644764 0.0644852 0.116763 0.0000157376 0.116763 C -0.0644852 0.116763 -0.116772 0.0644764 -0.116772 0.00000694951 C -0.116772 -0.064494 -0.0644852 -0.11675 0.0000157376 -0.11675 C 0.0644852 -0.11675 0.116772 -0.064494 0.116772 0.00000694951 Z M 0.116772 0.00000694951 " transform="matrix(124.089765,0,0,124.089765,354.529297,505.889763)"/>
<path style="fill-rule:nonzero;fill:rgb(100%,92.941176%,43.529412%);fill-opacity:1;stroke-width:0.0233514;stroke-linecap:butt;stroke-linejoin:miter;stroke:rgb(60%,60%,60%);stroke-opacity:0.8;stroke-miterlimit:10;" d="M 0.116747 -0.0000149162 C 0.116747 0.064486 0.0644917 0.116742 -0.00000921981 0.116742 C -0.0644787 0.116742 -0.116766 0.064486 -0.116766 -0.0000149162 C -0.116766 -0.0644844 -0.0644787 -0.116771 -0.00000921981 -0.116771 C 0.0644917 -0.116771 0.116747 -0.0644844 0.116747 -0.0000149162 Z M 0.116747 -0.0000149162 " transform="matrix(124.089765,0,0,124.089765,323.200363,104.54482)"/>
<path style="fill-rule:nonzero;fill:rgb(100%,92.941176%,43.529412%);fill-opacity:1;stroke-width:0.0233514;stroke-linecap:butt;stroke-linejoin:miter;stroke:rgb(60%,60%,60%);stroke-opacity:0.8;stroke-miterlimit:10;" d="M 0.116747 0.0000130329 C 0.116747 0.0644825 0.0644918 0.116769 -0.00000913385 0.116769 C -0.0644786 0.116769 -0.116766 0.0644825 -0.116766 0.0000130329 C -0.116766 -0.0644879 -0.0644786 -0.116743 -0.00000913385 -0.116743 C 0.0644918 -0.116743 0.116747 -0.0644879 0.116747 0.0000130329 Z M 0.116747 0.0000130329 " transform="matrix(124.089765,0,0,124.089765,258.454258,87.924164)"/>
<path style="fill-rule:nonzero;fill:rgb(100%,92.941176%,43.529412%);fill-opacity:1;stroke-width:0.0233514;stroke-linecap:butt;stroke-linejoin:miter;stroke:rgb(60%,60%,60%);stroke-opacity:0.8;stroke-miterlimit:10;" d="M 0.116755 0.000000114773 C 0.116755 0.0644696 0.064468 0.116757 -0.00000146624 0.116757 C -0.0644709 0.116757 -0.116758 0.0644696 -0.116758 0.000000114773 C -0.116758 -0.0644693 -0.0644709 -0.116756 -0.00000146624 -0.116756 C 0.064468 -0.116756 0.116755 -0.0644693 0.116755 0.000000114773 Z M 0.116755 0.000000114773 " transform="matrix(124.089765,0,0,124.089765,289.925963,34.269517)"/>
<path style="fill-rule:nonzero;fill:rgb(100%,92.941176%,43.529412%);fill-opacity:1;stroke-width:0.0233514;stroke-linecap:butt;stroke-linejoin:miter;stroke:rgb(60%,60%,60%);stroke-opacity:0.8;stroke-miterlimit:10;" d="M 0.116753 0.0000148654 C 0.116753 0.0644843 0.0644977 0.116771 -0.00000320108 0.116771 C -0.0644727 0.116771 -0.11676 0.0644843 -0.11676 0.0000148654 C -0.11676 -0.0644861 -0.0644727 -0.116742 -0.00000320108 -0.116742 C 0.0644977 -0.116742 0.116753 -0.0644861 0.116753 0.0000148654 Z M 0.116753 0.0000148654 " transform="matrix(124.089765,0,0,124.089765,205.269928,101.705187)"/>
<path style="fill-rule:nonzero;fill:rgb(100%,92.941176%,43.529412%);fill-opacity:1;stroke-width:0.0233514;stroke-linecap:butt;stroke-linejoin:miter;stroke:rgb(60%,60%,60%);stroke-opacity:0.8;stroke-miterlimit:10;" d="M 0.116768 -0.0000110377 C 0.116768 0.0644899 0.0644811 0.116745 0.0000116174 0.116745 C -0.0644893 0.116745 -0.116745 0.0644899 -0.116745 -0.0000110377 C -0.116745 -0.0644805 -0.0644893 -0.116767 0.0000116174 -0.116767 C 0.0644811 -0.116767 0.116768 -0.0644805 0.116768 -0.0000110377 Z M 0.116768 -0.0000110377 " transform="matrix(124.089765,0,0,124.089765,200.666527,157.458401)"/>
<path style="fill-rule:nonzero;fill:rgb(100%,92.941176%,43.529412%);fill-opacity:1;stroke-width:0.0233514;stroke-linecap:butt;stroke-linejoin:miter;stroke:rgb(60%,60%,60%);stroke-opacity:0.8;stroke-miterlimit:10;" d="M 0.116765 -0.00000116444 C 0.116765 0.0644683 0.0644779 0.116755 0.00000846684 0.116755 C -0.0644925 0.116755 -0.116748 0.0644683 -0.116748 -0.00000116444 C -0.116748 -0.0644706 -0.0644925 -0.116758 0.00000846684 -0.116758 C 0.0644779 -0.116758 0.116765 -0.0644706 0.116765 -0.00000116444 Z M 0.116765 -0.00000116444 " transform="matrix(124.089765,0,0,124.089765,338.909106,166.480613)"/>
<path style="fill-rule:nonzero;fill:rgb(100%,92.941176%,43.529412%);fill-opacity:1;stroke-width:0.0233514;stroke-linecap:butt;stroke-linejoin:miter;stroke:rgb(60%,60%,60%);stroke-opacity:0.8;stroke-miterlimit:10;" d="M 0.11676 -0.00000348373 C 0.11676 0.0644975 0.0644727 0.116753 0.00000323047 0.116753 C -0.0644977 0.116753 -0.116753 0.0644975 -0.116753 -0.00000348373 C -0.116753 -0.0644729 -0.0644977 -0.11676 0.00000323047 -0.11676 C 0.0644727 -0.11676 0.11676 -0.0644729 0.11676 -0.00000348373 Z M 0.11676 -0.00000348373 " transform="matrix(124.089765,0,0,124.089765,170.01913,109.074651)"/>
<path style="fill-rule:nonzero;fill:rgb(100%,92.941176%,43.529412%);fill-opacity:1;stroke-width:0.0233514;stroke-linecap:butt;stroke-linejoin:miter;stroke:rgb(60%,60%,60%);stroke-opacity:0.8;stroke-miterlimit:10;" d="M 0.116765 -0.00000593869 C 0.116765 0.064495 0.0644779 0.116751 0.00000846641 0.116751 C -0.0644925 0.116751 -0.116748 0.064495 -0.116748 -0.00000593869 C -0.116748 -0.0644754 -0.0644925 -0.116762 0.00000846641 -0.116762 C 0.0644779 -0.116762 0.116765 -0.0644754 0.116765 -0.00000593869 Z M 0.116765 -0.00000593869 " transform="matrix(124.089765,0,0,124.089765,520.409106,209.586674)"/>
<path style="fill-rule:nonzero;fill:rgb(100%,92.941176%,43.529412%);fill-opacity:1;stroke-width:0.0233514;stroke-linecap:butt;stroke-linejoin:miter;stroke:rgb(60%,60%,60%);stroke-opacity:0.8;stroke-miterlimit:10;" d="M 0.116764 -0.00000322788 C 0.116764 0.0644977 0.0644767 0.116753 0.0000072762 0.116753 C -0.0644937 0.116753 -0.116749 0.0644977 -0.116749 -0.00000322788 C -0.116749 -0.0644727 -0.0644937 -0.11676 0.0000072762 -0.11676 C 0.0644767 -0.11676 0.116764 -0.0644727 0.116764 -0.00000322788 Z M 0.116764 -0.00000322788 " transform="matrix(124.089765,0,0,124.089765,560.471753,197.902744)"/>
<path style="fill-rule:nonzero;fill:rgb(100%,92.941176%,43.529412%);fill-opacity:1;stroke-width:0.0233514;stroke-linecap:butt;stroke-linejoin:miter;stroke:rgb(60%,60%,60%);stroke-opacity:0.8;stroke-miterlimit:10;" d="M 0.116754 0.000011291 C 0.116754 0.0644807 0.0644988 0.116768 -0.00000211311 0.116768 C -0.0644716 0.116768 -0.116759 0.0644807 -0.116759 0.000011291 C -0.116759 -0.0644896 -0.0644716 -0.116745 -0.00000211311 -0.116745 C 0.0644988 -0.116745 0.116754 -0.0644896 0.116754 0.000011291 Z M 0.116754 0.000011291 " transform="matrix(124.089765,0,0,124.089765,338.308856,374.272036)"/>
<path style="fill-rule:nonzero;fill:rgb(100%,92.941176%,43.529412%);fill-opacity:1;stroke-width:0.0233514;stroke-linecap:butt;stroke-linejoin:miter;stroke:rgb(60%,60%,60%);stroke-opacity:0.8;stroke-miterlimit:10;" d="M 0.116757 0.000000811018 C 0.116757 0.0644703 0.0644696 0.116757 0.000000165185 0.116757 C -0.0644693 0.116757 -0.116756 0.0644703 -0.116756 0.000000811018 C -0.116756 -0.0644686 -0.0644693 -0.116756 0.000000165185 -0.116756 C 0.0644696 -0.116756 0.116757 -0.0644686 0.116757 0.000000811018 Z M 0.116757 0.000000811018 " transform="matrix(124.089765,0,0,124.089765,477.890605,527.363181)"/>
<path style="fill-rule:nonzero;fill:rgb(100%,92.941176%,43.529412%);fill-opacity:1;stroke-width:0.0233514;stroke-linecap:butt;stroke-linejoin:miter;stroke:rgb(60%,60%,60%);stroke-opacity:0.8;stroke-miterlimit:10;" d="M 0.116747 0.0000123203 C 0.116747 0.0644818 0.064491 0.116769 -0.00000995332 0.116769 C -0.0644794 0.116769 -0.116766 0.0644818 -0.116766 0.0000123203 C -0.116766 -0.0644886 -0.0644794 -0.116744 -0.00000995332 -0.116744 C 0.064491 -0.116744 0.116747 -0.0644886 0.116747 0.0000123203 Z M 0.116747 0.0000123203 " transform="matrix(124.089765,0,0,124.089765,521.95436,444.66644)"/>
<path style="fill-rule:nonzero;fill:rgb(100%,92.941176%,43.529412%);fill-opacity:1;stroke-width:0.0233514;stroke-linecap:butt;stroke-linejoin:miter;stroke:rgb(60%,60%,60%);stroke-opacity:0.8;stroke-miterlimit:10;" d="M 0.116751 0.00000910091 C 0.116751 0.0644786 0.0644959 0.116766 -0.00000501326 0.116766 C -0.0644745 0.116766 -0.116761 0.0644786 -0.116761 0.00000910091 C -0.116761 -0.0644918 -0.0644745 -0.116747 -0.00000501326 -0.116747 C 0.0644959 -0.116747 0.116751 -0.0644918 0.116751 0.00000910091 Z M 0.116751 0.00000910091 " transform="matrix(124.089765,0,0,124.089765,564.938122,321.768402)"/>
<path style="fill-rule:nonzero;fill:rgb(100%,92.941176%,43.529412%);fill-opacity:1;stroke-width:0.0233514;stroke-linecap:butt;stroke-linejoin:miter;stroke:rgb(60%,60%,60%);stroke-opacity:0.8;stroke-miterlimit:10;" d="M 0.11677 0.00000649746 C 0.11677 0.064476 0.0644835 0.116763 0.0000140058 0.116763 C -0.0644869 0.116763 -0.116742 0.064476 -0.116742 0.00000649746 C -0.116742 -0.0644944 -0.0644869 -0.11675 0.0000140058 -0.11675 C 0.0644835 -0.11675 0.11677 -0.0644944 0.11677 0.00000649746 Z M 0.11677 0.00000649746 " transform="matrix(124.089765,0,0,124.089765,528.287325,387.124194)"/>
<path style="fill-rule:nonzero;fill:rgb(100%,92.941176%,43.529412%);fill-opacity:1;stroke-width:0.0233514;stroke-linecap:butt;stroke-linejoin:miter;stroke:rgb(60%,60%,60%);stroke-opacity:0.8;stroke-miterlimit:10;" d="M 0.116748 -0.0000118385 C 0.116748 0.0644891 0.0644926 0.116745 -0.00000835523 0.116745 C -0.0644778 0.116745 -0.116765 0.0644891 -0.116765 -0.0000118385 C -0.116765 -0.0644813 -0.0644778 -0.116768 -0.00000835523 -0.116768 C 0.0644926 -0.116768 0.116748 -0.0644813 0.116748 -0.0000118385 Z M 0.116748 -0.0000118385 " transform="matrix(124.089765,0,0,124.089765,518.172912,314.771)"/>
<path style="fill-rule:nonzero;fill:rgb(100%,92.941176%,43.529412%);fill-opacity:1;stroke-width:0.0233514;stroke-linecap:butt;stroke-linejoin:miter;stroke:rgb(60%,60%,60%);stroke-opacity:0.8;stroke-miterlimit:10;" d="M 0.116764 0.0000142842 C 0.116764 0.0644837 0.0644775 0.116771 0.00000799573 0.116771 C -0.0644929 0.116771 -0.116748 0.0644837 -0.116748 0.0000142842 C -0.116748 -0.0644867 -0.0644929 -0.116742 0.00000799573 -0.116742 C 0.0644775 -0.116742 0.116764 -0.0644867 0.116764 0.0000142842 Z M 0.116764 0.0000142842 " transform="matrix(124.089765,0,0,124.089765,500.514633,492.736509)"/>
<path style="fill-rule:nonzero;fill:rgb(100%,92.941176%,43.529412%);fill-opacity:1;stroke-width:0.0233514;stroke-linecap:butt;stroke-linejoin:miter;stroke:rgb(60%,60%,60%);stroke-opacity:0.8;stroke-miterlimit:10;" d="M 0.11675 0.000005748 C 0.11675 0.0644752 0.0644941 0.116762 -0.00000680526 0.116762 C -0.0644763 0.116762 -0.116763 0.0644752 -0.116763 0.000005748 C -0.116763 -0.0644952 -0.0644763 -0.116751 -0.00000680526 -0.116751 C 0.0644941 -0.116751 0.11675 -0.0644952 0.11675 0.000005748 Z M 0.11675 0.000005748 " transform="matrix(124.089765,0,0,124.089765,103.887563,450.159443)"/>
<path style="fill-rule:nonzero;fill:rgb(100%,92.941176%,43.529412%);fill-opacity:1;stroke-width:0.0233514;stroke-linecap:butt;stroke-linejoin:miter;stroke:rgb(60%,60%,60%);stroke-opacity:0.8;stroke-miterlimit:10;" d="M 0.116767 -0.000000237712 C 0.116767 0.0644692 0.0644804 0.116756 0.0000109744 0.116756 C -0.06449 0.116756 -0.116745 0.0644692 -0.116745 -0.000000237712 C -0.116745 -0.0644697 -0.06449 -0.116757 0.0000109744 -0.116757 C 0.0644804 -0.116757 0.116767 -0.0644697 0.116767 -0.000000237712 Z M 0.116767 -0.000000237712 " transform="matrix(124.089765,0,0,124.089765,71.983013,429.734404)"/>
<path style="fill-rule:nonzero;fill:rgb(100%,92.941176%,43.529412%);fill-opacity:1;stroke-width:0.0233514;stroke-linecap:butt;stroke-linejoin:miter;stroke:rgb(60%,60%,60%);stroke-opacity:0.8;stroke-miterlimit:10;" d="M 0.116761 -0.0000157148 C 0.116761 0.0644852 0.0644744 0.116772 0.00000493739 0.116772 C -0.064496 0.116772 -0.116752 0.0644852 -0.116752 -0.0000157148 C -0.116752 -0.0644852 -0.064496 -0.116772 0.00000493739 -0.116772 C 0.0644744 -0.116772 0.116761 -0.0644852 0.116761 -0.0000157148 Z M 0.116761 -0.0000157148 " transform="matrix(124.089765,0,0,124.089765,151.468137,477.259763)"/>
<path style="fill-rule:nonzero;fill:rgb(100%,92.941176%,43.529412%);fill-opacity:1;stroke-width:0.0233514;stroke-linecap:butt;stroke-linejoin:miter;stroke:rgb(60%,60%,60%);stroke-opacity:0.8;stroke-miterlimit:10;" d="M 0.116772 -0.00000727108 C 0.116772 0.0644937 0.064485 0.116749 0.000015579 0.116749 C -0.0644854 0.116749 -0.116772 0.0644937 -0.116772 -0.00000727108 C -0.116772 -0.0644767 -0.0644854 -0.116764 0.000015579 -0.116764 C 0.064485 -0.116764 0.116772 -0.0644767 0.116772 -0.00000727108 Z M 0.116772 -0.00000727108 " transform="matrix(124.089765,0,0,124.089765,127.177754,152.567309)"/>
<path style="fill-rule:nonzero;fill:rgb(55.294118%,82.745098%,78.039216%);fill-opacity:1;stroke-width:0.0233514;stroke-linecap:butt;stroke-linejoin:miter;stroke:rgb(60%,60%,60%);stroke-opacity:0.8;stroke-miterlimit:10;" d="M 0.116761 -0.00000228476 C 0.116761 0.0644987 0.0644745 0.116754 0.00000501326 0.116754 C -0.0644959 0.116754 -0.116751 0.0644987 -0.116751 -0.00000228476 C -0.116751 -0.0644717 -0.0644959 -0.116759 0.00000501326 -0.116759 C 0.0644745 -0.116759 0.116761 -0.0644717 0.116761 -0.00000228476 Z M 0.116761 -0.00000228476 " transform="matrix(124.089765,0,0,124.089765,35.061878,325.750284)"/>
<path style="fill-rule:nonzero;fill:rgb(55.294118%,82.745098%,78.039216%);fill-opacity:1;stroke-width:0.0233514;stroke-linecap:butt;stroke-linejoin:miter;stroke:rgb(60%,60%,60%);stroke-opacity:0.8;stroke-miterlimit:10;" d="M 0.116758 0.0000121156 C 0.116758 0.0644816 0.0644705 0.116769 0.00000107218 0.116769 C -0.0644684 0.116769 -0.116755 0.0644816 -0.116755 0.0000121156 C -0.116755 -0.0644888 -0.0644684 -0.116744 0.00000107218 -0.116744 C 0.0644705 -0.116744 0.116758 -0.0644888 0.116758 0.0000121156 Z M 0.116758 0.0000121156 " transform="matrix(124.089765,0,0,124.089765,48.378773,292.318809)"/>
<path style="fill-rule:nonzero;fill:rgb(100%,92.941176%,43.529412%);fill-opacity:1;stroke-width:0.0233514;stroke-linecap:butt;stroke-linejoin:miter;stroke:rgb(60%,60%,60%);stroke-opacity:0.8;stroke-miterlimit:10;" d="M 0.116763 0.0000133795 C 0.116763 0.0644828 0.0644763 0.11677 0.000006864 0.11677 C -0.0644941 0.11677 -0.11675 0.0644828 -0.11675 0.0000133795 C -0.11675 -0.0644876 -0.0644941 -0.116743 0.000006864 -0.116743 C 0.0644763 -0.116743 0.116763 -0.0644876 0.116763 0.0000133795 Z M 0.116763 0.0000133795 " transform="matrix(124.089765,0,0,124.089765,126.862429,219.857715)"/>
<path style="fill-rule:nonzero;fill:rgb(55.294118%,82.745098%,78.039216%);fill-opacity:1;stroke-width:0.0233514;stroke-linecap:butt;stroke-linejoin:miter;stroke:rgb(60%,60%,60%);stroke-opacity:0.8;stroke-miterlimit:10;" d="M 0.116758 -0.0000120183 C 0.116758 0.0644889 0.0644706 0.116744 0.00000110306 0.116744 C -0.0644684 0.116744 -0.116755 0.0644889 -0.116755 -0.0000120183 C -0.116755 -0.0644815 -0.0644684 -0.116768 0.00000110306 -0.116768 C 0.0644706 -0.116768 0.116758 -0.0644815 0.116758 -0.0000120183 Z M 0.116758 -0.0000120183 " transform="matrix(124.089765,0,0,124.089765,77.277207,255.532741)"/>
</g>
</svg>
