<?xml version="1.0" encoding="UTF-8"?>
<svg xmlns="http://www.w3.org/2000/svg" xmlns:xlink="http://www.w3.org/1999/xlink" width="600pt" height="600pt" viewBox="0 0 600 600" version="1.1">
<defs>
<clipPath id="clip1">
  <path d="M 292 459 L 446 459 L 446 576 L 292 576 Z M 292 459 "/>
</clipPath>
<clipPath id="clip2">
  <path d="M 278.6875 387.445312 L 459.515625 387.445312 L 459.515625 647.296875 L 278.6875 647.296875 Z M 278.6875 387.445312 L 348.601562 534.054688 C 348.601562 542.175781 342.019531 548.757812 333.902344 548.757812 C 325.78125 548.757812 319.203125 542.175781 319.203125 534.054688 C 319.203125 525.9375 325.78125 519.355469 333.902344 519.355469 C 342.019531 519.355469 348.601562 525.9375 348.601562 534.054688 Z M 278.6875 387.445312 "/>
</clipPath>
<clipPath id="clip3">
  <path d="M 278.6875 387.445312 L 459.515625 387.445312 L 459.515625 647.296875 L 278.6875 647.296875 Z M 278.6875 387.445312 L 419.003906 500.691406 C 419.003906 508.808594 412.425781 515.390625 404.304688 515.390625 C 396.1875 515.390625 389.605469 508.808594 389.605469 500.691406 C 389.605469 492.570312 396.1875 485.988281 404.304688 485.988281 C 412.425781 485.988281 419.003906 492.570312 419.003906 500.691406 Z M 278.6875 387.445312 "/>
</clipPath>
<clipPath id="clip4">
  <path d="M 273 492 L 376 492 L 376 600 L 273 600 Z M 273 492 "/>
</clipPath>
<clipPath id="clip5">
  <path d="M 207.449219 469.058594 L 441.953125 469.058594 L 441.953125 630.210938 L 207.449219 630.210938 Z M 207.449219 469.058594 L 348.601562 534.054688 C 348.601562 542.175781 342.019531 548.757812 333.902344 548.757812 C 325.78125 548.757812 319.203125 542.175781 319.203125 534.054688 C 319.203125 525.9375 325.78125 519.355469 333.902344 519.355469 C 342.019531 519.355469 348.601562 525.9375 348.601562 534.054688 Z M 207.449219 469.058594 "/>
</clipPath>
<clipPath id="clip6">
  <path d="M 207.449219 469.058594 L 441.953125 469.058594 L 441.953125 630.210938 L 207.449219 630.210938 Z M 207.449219 469.058594 L 330.203125 565.21875 C 330.203125 573.335938 323.621094 579.917969 315.503906 579.917969 C 307.382812 579.917969 300.804688 573.335938 300.804688 565.21875 C 300.804688 557.101562 307.382812 550.519531 315.503906 550.519531 C 323.621094 550.519531 330.203125 557.101562 330.203125 565.21875 Z M 207.449219 469.058594 "/>
</clipPath>
<clipPath id="clip7">
  <path d="M 274.179688 492 L 339.261719 492 L 339.261719 577 L 274.179688 577 Z M 274.179688 492 "/>
</clipPath>
<clipPath id="clip8">
  <path d="M 274.179688 409.074219 L 339.261719 409.074219 L 339.261719 660.109375 L 274.179688 660.109375 Z M 274.179688 409.074219 L 348.601562 534.054688 C 348.601562 542.175781 342.019531 548.757812 333.902344 548.757812 C 325.78125 548.757812 319.203125 542.175781 319.203125 534.054688 C 319.203125 525.9375 325.78125 519.355469 333.902344 519.355469 C 342.019531 519.355469 348.601562 525.9375 348.601562 534.054688 Z M 274.179688 409.074219 "/>
</clipPath>
<clipPath id="clip9">
  <path d="M 274.179688 409.074219 L 339.261719 409.074219 L 339.261719 660.109375 L 274.179688 660.109375 Z M 274.179688 409.074219 L 294.242188 535.132812 C 294.242188 543.25 287.664062 549.832031 279.542969 549.832031 C 271.425781 549.832031 264.84375 543.25 264.84375 535.132812 C 264.84375 527.015625 271.425781 520.433594 279.542969 520.433594 C 287.664062 520.433594 294.242188 527.015625 294.242188 535.132812 Z M 274.179688 409.074219 "/>
</clipPath>
<clipPath id="clip10">
  <path d="M 377 378.949219 L 469 378.949219 L 469 477.894531 L 377 477.894531 Z M 377 378.949219 "/>
</clipPath>
<clipPath id="clip11">
  <path d="M 295.042969 378.949219 L 550.9375 378.949219 L 550.9375 477.894531 L 295.042969 477.894531 Z M 295.042969 378.949219 L 441.898438 399.398438 C 441.898438 407.515625 435.316406 414.097656 427.199219 414.097656 C 419.082031 414.097656 412.5 407.515625 412.5 399.398438 C 412.5 391.277344 419.082031 384.699219 427.199219 384.699219 C 435.316406 384.699219 441.898438 391.277344 441.898438 399.398438 Z M 295.042969 378.949219 "/>
</clipPath>
<clipPath id="clip12">
  <path d="M 295.042969 378.949219 L 550.9375 378.949219 L 550.9375 477.894531 L 295.042969 477.894531 Z M 295.042969 378.949219 L 433.484375 457.449219 C 433.484375 465.570312 426.902344 472.152344 418.785156 472.152344 C 410.667969 472.152344 404.085938 465.570312 404.085938 457.449219 C 404.085938 449.332031 410.667969 442.75 418.785156 442.75 C 426.902344 442.75 433.484375 449.332031 433.484375 457.449219 Z M 295.042969 378.949219 "/>
</clipPath>
<clipPath id="clip13">
  <path d="M 385 357 L 494 357 L 494 505 L 385 505 Z M 385 357 "/>
</clipPath>
<clipPath id="clip14">
  <path d="M 310.695312 351.703125 L 568.921875 351.703125 L 568.921875 511.089844 L 310.695312 511.089844 Z M 310.695312 351.703125 L 441.898438 399.398438 C 441.898438 407.515625 435.316406 414.097656 427.199219 414.097656 C 419.082031 414.097656 412.5 407.515625 412.5 399.398438 C 412.5 391.277344 419.082031 384.699219 427.199219 384.699219 C 435.316406 384.699219 441.898438 391.277344 441.898438 399.398438 Z M 310.695312 351.703125 "/>
</clipPath>
<clipPath id="clip15">
  <path d="M 310.695312 351.703125 L 568.921875 351.703125 L 568.921875 511.089844 L 310.695312 511.089844 Z M 310.695312 351.703125 L 467.121094 463.398438 C 467.121094 471.515625 460.542969 478.097656 452.421875 478.097656 C 444.304688 478.097656 437.722656 471.515625 437.722656 463.398438 C 437.722656 455.28125 444.304688 448.699219 452.421875 448.699219 C 460.542969 448.699219 467.121094 455.28125 467.121094 463.398438 Z M 310.695312 351.703125 "/>
</clipPath>
<clipPath id="clip16">
  <path d="M 342 233 L 469 233 L 469 441 L 342 441 Z M 342 233 "/>
</clipPath>
<clipPath id="clip17">
  <path d="M 265.746094 232.242188 L 545.390625 232.242188 L 545.390625 442.539062 L 265.746094 442.539062 Z M 265.746094 232.242188 L 441.898438 399.398438 C 441.898438 407.515625 435.316406 414.097656 427.199219 414.097656 C 419.082031 414.097656 412.5 407.515625 412.5 399.398438 C 412.5 391.277344 419.082031 384.699219 427.199219 384.699219 C 435.316406 384.699219 441.898438 391.277344 441.898438 399.398438 Z M 265.746094 232.242188 "/>
</clipPath>
<clipPath id="clip18">
  <path d="M 265.746094 232.242188 L 545.390625 232.242188 L 545.390625 442.539062 L 265.746094 442.539062 Z M 265.746094 232.242188 L 398.640625 275.386719 C 398.640625 283.503906 392.058594 290.085938 383.941406 290.085938 C 375.820312 290.085938 369.238281 283.503906 369.238281 275.386719 C 369.238281 267.265625 375.820312 260.683594 383.941406 260.683594 C 392.058594 260.683594 398.640625 267.265625 398.640625 275.386719 Z M 265.746094 232.242188 "/>
</clipPath>
<clipPath id="clip19">
  <path d="M 362 415.746094 L 461 415.746094 L 461 542.390625 L 362 542.390625 Z M 362 415.746094 "/>
</clipPath>
<clipPath id="clip20">
  <path d="M 285.617188 415.746094 L 537.46875 415.746094 L 537.46875 542.390625 L 285.617188 542.390625 Z M 285.617188 415.746094 L 433.484375 457.449219 C 433.484375 465.570312 426.902344 472.152344 418.785156 472.152344 C 410.667969 472.152344 404.085938 465.570312 404.085938 457.449219 C 404.085938 449.332031 410.667969 442.75 418.785156 442.75 C 426.902344 442.75 433.484375 449.332031 433.484375 457.449219 Z M 285.617188 415.746094 "/>
</clipPath>
<clipPath id="clip21">
  <path d="M 285.617188 415.746094 L 537.46875 415.746094 L 537.46875 542.390625 L 285.617188 542.390625 Z M 285.617188 415.746094 L 419.003906 500.691406 C 419.003906 508.808594 412.425781 515.390625 404.304688 515.390625 C 396.1875 515.390625 389.605469 508.808594 389.605469 500.691406 C 389.605469 492.570312 396.1875 485.988281 404.304688 485.988281 C 412.425781 485.988281 419.003906 492.570312 419.003906 500.691406 Z M 285.617188 415.746094 "/>
</clipPath>
<clipPath id="clip22">
  <path d="M 362 421 L 494 421 L 494 543 L 362 543 Z M 362 421 "/>
</clipPath>
<clipPath id="clip23">
  <path d="M 326.585938 363.976562 L 530.136719 363.976562 L 530.136719 600.109375 L 326.585938 600.109375 Z M 326.585938 363.976562 L 419.003906 500.691406 C 419.003906 508.808594 412.425781 515.390625 404.304688 515.390625 C 396.1875 515.390625 389.605469 508.808594 389.605469 500.691406 C 389.605469 492.570312 396.1875 485.988281 404.304688 485.988281 C 412.425781 485.988281 419.003906 492.570312 419.003906 500.691406 Z M 326.585938 363.976562 "/>
</clipPath>
<clipPath id="clip24">
  <path d="M 326.585938 363.976562 L 530.136719 363.976562 L 530.136719 600.109375 L 326.585938 600.109375 Z M 326.585938 363.976562 L 467.121094 463.398438 C 467.121094 471.515625 460.542969 478.097656 452.421875 478.097656 C 444.304688 478.097656 437.722656 471.515625 437.722656 463.398438 C 437.722656 455.28125 444.304688 448.699219 452.421875 448.699219 C 460.542969 448.699219 467.121094 455.28125 467.121094 463.398438 Z M 326.585938 363.976562 "/>
</clipPath>
<clipPath id="clip25">
  <path d="M 181 202 L 290 202 L 290 317 L 181 317 Z M 181 202 "/>
</clipPath>
<clipPath id="clip26">
  <path d="M 124.429688 165.90625 L 346.816406 165.90625 L 346.816406 353.671875 L 124.429688 353.671875 Z M 124.429688 165.90625 L 262.554688 244.207031 C 262.554688 252.328125 255.972656 258.90625 247.855469 258.90625 C 239.738281 258.90625 233.15625 252.328125 233.15625 244.207031 C 233.15625 236.089844 239.738281 229.507812 247.855469 229.507812 C 255.972656 229.507812 262.554688 236.089844 262.554688 244.207031 Z M 124.429688 165.90625 "/>
</clipPath>
<clipPath id="clip27">
  <path d="M 124.429688 165.90625 L 346.816406 165.90625 L 346.816406 353.671875 L 124.429688 353.671875 Z M 124.429688 165.90625 L 238.09375 275.375 C 238.09375 283.496094 231.511719 290.074219 223.394531 290.074219 C 215.273438 290.074219 208.695312 283.496094 208.695312 275.375 C 208.695312 267.257812 215.273438 260.675781 223.394531 260.675781 C 231.511719 260.675781 238.09375 267.257812 238.09375 275.375 Z M 124.429688 165.90625 "/>
</clipPath>
<clipPath id="clip28">
  <path d="M 206 202 L 339 202 L 339 310 L 206 310 Z M 206 202 "/>
</clipPath>
<clipPath id="clip29">
  <path d="M 191.863281 131.332031 L 353.261719 131.332031 L 353.261719 380.925781 L 191.863281 380.925781 Z M 191.863281 131.332031 L 262.554688 244.207031 C 262.554688 252.328125 255.972656 258.90625 247.855469 258.90625 C 239.738281 258.90625 233.15625 252.328125 233.15625 244.207031 C 233.15625 236.089844 239.738281 229.507812 247.855469 229.507812 C 255.972656 229.507812 262.554688 236.089844 262.554688 244.207031 Z M 191.863281 131.332031 "/>
</clipPath>
<clipPath id="clip30">
  <path d="M 191.863281 131.332031 L 353.261719 131.332031 L 353.261719 380.925781 L 191.863281 380.925781 Z M 191.863281 131.332031 L 311.976562 268.054688 C 311.976562 276.171875 305.394531 282.753906 297.273438 282.753906 C 289.15625 282.753906 282.574219 276.171875 282.574219 268.054688 C 282.574219 259.933594 289.15625 253.351562 297.273438 253.351562 C 305.394531 253.351562 311.976562 259.933594 311.976562 268.054688 Z M 191.863281 131.332031 "/>
</clipPath>
<clipPath id="clip31">
  <path d="M 168 188 L 290 188 L 290 286 L 168 286 Z M 168 188 "/>
</clipPath>
<clipPath id="clip32">
  <path d="M 165.671875 112.652344 L 291.785156 112.652344 L 291.785156 362.121094 L 165.671875 362.121094 Z M 165.671875 112.652344 L 262.554688 244.207031 C 262.554688 252.328125 255.972656 258.90625 247.855469 258.90625 C 239.738281 258.90625 233.15625 252.328125 233.15625 244.207031 C 233.15625 236.089844 239.738281 229.507812 247.855469 229.507812 C 255.972656 229.507812 262.554688 236.089844 262.554688 244.207031 Z M 165.671875 112.652344 "/>
</clipPath>
<clipPath id="clip33">
  <path d="M 165.671875 112.652344 L 291.785156 112.652344 L 291.785156 362.121094 L 165.671875 362.121094 Z M 165.671875 112.652344 L 224.308594 230.570312 C 224.308594 238.691406 217.726562 245.273438 209.605469 245.273438 C 201.488281 245.273438 194.90625 238.691406 194.90625 230.570312 C 194.90625 222.453125 201.488281 215.871094 209.605469 215.871094 C 217.726562 215.871094 224.308594 222.453125 224.308594 230.570312 Z M 165.671875 112.652344 "/>
</clipPath>
<clipPath id="clip34">
  <path d="M 10.550781 283 L 143.90625 283 L 143.90625 384 L 10.550781 384 Z M 10.550781 283 "/>
</clipPath>
<clipPath id="clip35">
  <path d="M 10.550781 204.617188 L 143.90625 204.617188 L 143.90625 462.410156 L 10.550781 462.410156 Z M 10.550781 204.617188 L 61.867188 324.886719 C 61.867188 333.003906 55.285156 339.585938 47.164062 339.585938 C 39.046875 339.585938 32.464844 333.003906 32.464844 324.886719 C 32.464844 316.769531 39.046875 310.1875 47.164062 310.1875 C 55.285156 310.1875 61.867188 316.769531 61.867188 324.886719 Z M 10.550781 204.617188 "/>
</clipPath>
<clipPath id="clip36">
  <path d="M 10.550781 204.617188 L 143.90625 204.617188 L 143.90625 462.410156 L 10.550781 462.410156 Z M 10.550781 204.617188 L 122 342.144531 C 122 350.265625 115.417969 356.847656 107.296875 356.847656 C 99.179688 356.847656 92.597656 350.265625 92.597656 342.144531 C 92.597656 334.027344 99.179688 327.445312 107.296875 327.445312 C 115.417969 327.445312 122 334.027344 122 342.144531 Z M 10.550781 204.617188 "/>
</clipPath>
<clipPath id="clip37">
  <path d="M 65 233 L 265 233 L 265 384 L 65 384 Z M 65 233 "/>
</clipPath>
<clipPath id="clip38">
  <path d="M 43.5 166.621094 L 287.1875 166.621094 L 287.1875 450.894531 L 43.5 450.894531 Z M 43.5 166.621094 L 238.09375 275.375 C 238.09375 283.496094 231.511719 290.074219 223.394531 290.074219 C 215.273438 290.074219 208.695312 283.496094 208.695312 275.375 C 208.695312 267.257812 215.273438 260.675781 223.394531 260.675781 C 231.511719 260.675781 238.09375 267.257812 238.09375 275.375 Z M 43.5 166.621094 "/>
</clipPath>
<clipPath id="clip39">
  <path d="M 43.5 166.621094 L 287.1875 166.621094 L 287.1875 450.894531 L 43.5 450.894531 Z M 43.5 166.621094 L 122 342.144531 C 122 350.265625 115.417969 356.847656 107.296875 356.847656 C 99.179688 356.847656 92.597656 350.265625 92.597656 342.144531 C 92.597656 334.027344 99.179688 327.445312 107.296875 327.445312 C 115.417969 327.445312 122 334.027344 122 342.144531 Z M 43.5 166.621094 "/>
</clipPath>
<clipPath id="clip40">
  <path d="M 208.417969 226 L 312.246094 226 L 312.246094 317 L 208.417969 317 Z M 208.417969 226 "/>
</clipPath>
<clipPath id="clip41">
  <path d="M 208.417969 143.644531 L 312.246094 143.644531 L 312.246094 399.78125 L 208.417969 399.78125 Z M 208.417969 143.644531 L 238.09375 275.375 C 238.09375 283.496094 231.511719 290.074219 223.394531 290.074219 C 215.273438 290.074219 208.695312 283.496094 208.695312 275.375 C 208.695312 267.257812 215.273438 260.675781 223.394531 260.675781 C 231.511719 260.675781 238.09375 267.257812 238.09375 275.375 Z M 208.417969 143.644531 "/>
</clipPath>
<clipPath id="clip42">
  <path d="M 208.417969 143.644531 L 312.246094 143.644531 L 312.246094 399.78125 L 208.417969 399.78125 Z M 208.417969 143.644531 L 311.976562 268.054688 C 311.976562 276.171875 305.394531 282.753906 297.273438 282.753906 C 289.15625 282.753906 282.574219 276.171875 282.574219 268.054688 C 282.574219 259.933594 289.15625 253.351562 297.273438 253.351562 C 305.394531 253.351562 311.976562 259.933594 311.976562 268.054688 Z M 208.417969 143.644531 "/>
</clipPath>
<clipPath id="clip43">
  <path d="M 220.445312 233 L 386.886719 233 L 386.886719 317 L 220.445312 317 Z M 220.445312 233 "/>
</clipPath>
<clipPath id="clip44">
  <path d="M 220.445312 150.371094 L 386.886719 150.371094 L 386.886719 400.386719 L 220.445312 400.386719 Z M 220.445312 150.371094 L 238.09375 275.375 C 238.09375 283.496094 231.511719 290.074219 223.394531 290.074219 C 215.273438 290.074219 208.695312 283.496094 208.695312 275.375 C 208.695312 267.257812 215.273438 260.675781 223.394531 260.675781 C 231.511719 260.675781 238.09375 267.257812 238.09375 275.375 Z M 220.445312 150.371094 "/>
</clipPath>
<clipPath id="clip45">
  <path d="M 220.445312 150.371094 L 386.886719 150.371094 L 386.886719 400.386719 L 220.445312 400.386719 Z M 220.445312 150.371094 L 398.640625 275.386719 C 398.640625 283.503906 392.058594 290.085938 383.941406 290.085938 C 375.820312 290.085938 369.238281 283.503906 369.238281 275.386719 C 369.238281 267.265625 375.820312 260.683594 383.941406 260.683594 C 392.058594 260.683594 398.640625 267.265625 398.640625 275.386719 Z M 220.445312 150.371094 "/>
</clipPath>
<clipPath id="clip46">
  <path d="M 168 191.722656 L 265 191.722656 L 265 314.21875 L 168 314.21875 Z M 168 191.722656 "/>
</clipPath>
<clipPath id="clip47">
  <path d="M 90 191.722656 L 342.996094 191.722656 L 342.996094 314.21875 L 90 314.21875 Z M 90 191.722656 L 238.09375 275.375 C 238.09375 283.496094 231.511719 290.074219 223.394531 290.074219 C 215.273438 290.074219 208.695312 283.496094 208.695312 275.375 C 208.695312 267.257812 215.273438 260.675781 223.394531 260.675781 C 231.511719 260.675781 238.09375 267.257812 238.09375 275.375 Z M 90 191.722656 "/>
</clipPath>
<clipPath id="clip48">
  <path d="M 90 191.722656 L 342.996094 191.722656 L 342.996094 314.21875 L 90 314.21875 Z M 90 191.722656 L 224.308594 230.570312 C 224.308594 238.691406 217.726562 245.273438 209.605469 245.273438 C 201.488281 245.273438 194.90625 238.691406 194.90625 230.570312 C 194.90625 222.453125 201.488281 215.871094 209.605469 215.871094 C 217.726562 215.871094 224.308594 222.453125 224.308594 230.570312 Z M 90 191.722656 "/>
</clipPath>
<clipPath id="clip49">
  <path d="M 165 244.175781 L 265 244.175781 L 265 376.824219 L 165 376.824219 Z M 165 244.175781 "/>
</clipPath>
<clipPath id="clip50">
  <path d="M 84.988281 244.175781 L 345.078125 244.175781 L 345.078125 376.824219 L 84.988281 376.824219 Z M 84.988281 244.175781 L 238.09375 275.375 C 238.09375 283.496094 231.511719 290.074219 223.394531 290.074219 C 215.273438 290.074219 208.695312 283.496094 208.695312 275.375 C 208.695312 267.257812 215.273438 260.675781 223.394531 260.675781 C 231.511719 260.675781 238.09375 267.257812 238.09375 275.375 Z M 84.988281 244.175781 "/>
</clipPath>
<clipPath id="clip51">
  <path d="M 84.988281 244.175781 L 345.078125 244.175781 L 345.078125 376.824219 L 84.988281 376.824219 Z M 84.988281 244.175781 L 221.375 345.628906 C 221.375 353.746094 214.792969 360.328125 206.675781 360.328125 C 198.554688 360.328125 191.972656 353.746094 191.972656 345.628906 C 191.972656 337.511719 198.554688 330.929688 206.675781 330.929688 C 214.792969 330.929688 221.375 337.511719 221.375 345.628906 Z M 84.988281 244.175781 "/>
</clipPath>
<clipPath id="clip52">
  <path d="M 104 144 L 265 144 L 265 317 L 104 317 Z M 104 144 "/>
</clipPath>
<clipPath id="clip53">
  <path d="M 51.050781 103.457031 L 318.550781 103.457031 L 318.550781 358.28125 L 51.050781 358.28125 Z M 51.050781 103.457031 L 238.09375 275.375 C 238.09375 283.496094 231.511719 290.074219 223.394531 290.074219 C 215.273438 290.074219 208.695312 283.496094 208.695312 275.375 C 208.695312 267.257812 215.273438 260.675781 223.394531 260.675781 C 231.511719 260.675781 238.09375 267.257812 238.09375 275.375 Z M 51.050781 103.457031 "/>
</clipPath>
<clipPath id="clip54">
  <path d="M 51.050781 103.457031 L 318.550781 103.457031 L 318.550781 358.28125 L 51.050781 358.28125 Z M 51.050781 103.457031 L 160.914062 186.367188 C 160.914062 194.484375 154.332031 201.066406 146.210938 201.066406 C 138.09375 201.066406 131.511719 194.484375 131.511719 186.367188 C 131.511719 178.246094 138.09375 171.667969 146.210938 171.667969 C 154.332031 171.667969 160.914062 178.246094 160.914062 186.367188 Z M 51.050781 103.457031 "/>
</clipPath>
<clipPath id="clip55">
  <path d="M 49 315.648438 L 149 315.648438 L 149 448.761719 L 49 448.761719 Z M 49 315.648438 "/>
</clipPath>
<clipPath id="clip56">
  <path d="M -31.171875 315.648438 L 230.003906 315.648438 L 230.003906 448.761719 L -31.171875 448.761719 Z M -31.171875 315.648438 L 122 342.144531 C 122 350.265625 115.417969 356.847656 107.296875 356.847656 C 99.179688 356.847656 92.597656 350.265625 92.597656 342.144531 C 92.597656 334.027344 99.179688 327.445312 107.296875 327.445312 C 115.417969 327.445312 122 334.027344 122 342.144531 Z M -31.171875 315.648438 "/>
</clipPath>
<clipPath id="clip57">
  <path d="M -31.171875 315.648438 L 230.003906 315.648438 L 230.003906 448.761719 L -31.171875 448.761719 Z M -31.171875 315.648438 L 106.238281 422.269531 C 106.238281 430.386719 99.65625 436.96875 91.539062 436.96875 C 83.421875 436.96875 76.839844 430.386719 76.839844 422.269531 C 76.839844 414.152344 83.421875 407.570312 91.539062 407.570312 C 99.65625 407.570312 106.238281 414.152344 106.238281 422.269531 Z M -31.171875 315.648438 "/>
</clipPath>
<clipPath id="clip58">
  <path d="M 284.042969 226 L 397.167969 226 L 397.167969 317 L 284.042969 317 Z M 284.042969 226 "/>
</clipPath>
<clipPath id="clip59">
  <path d="M 284.042969 143.484375 L 397.167969 143.484375 L 397.167969 399.953125 L 284.042969 399.953125 Z M 284.042969 143.484375 L 311.976562 268.054688 C 311.976562 276.171875 305.394531 282.753906 297.273438 282.753906 C 289.15625 282.753906 282.574219 276.171875 282.574219 268.054688 C 282.574219 259.933594 289.15625 253.351562 297.273438 253.351562 C 305.394531 253.351562 311.976562 259.933594 311.976562 268.054688 Z M 284.042969 143.484375 "/>
</clipPath>
<clipPath id="clip60">
  <path d="M 284.042969 143.484375 L 397.167969 143.484375 L 397.167969 399.953125 L 284.042969 399.953125 Z M 284.042969 143.484375 L 398.640625 275.386719 C 398.640625 283.503906 392.058594 290.085938 383.941406 290.085938 C 375.820312 290.085938 369.238281 283.503906 369.238281 275.386719 C 369.238281 267.265625 375.820312 260.683594 383.941406 260.683594 C 392.058594 260.683594 398.640625 267.265625 398.640625 275.386719 Z M 284.042969 143.484375 "/>
</clipPath>
<clipPath id="clip61">
  <path d="M 344.898438 219 L 470.75 219 L 470.75 317 L 344.898438 317 Z M 344.898438 219 "/>
</clipPath>
<clipPath id="clip62">
  <path d="M 344.898438 141.050781 L 470.75 141.050781 L 470.75 394.929688 L 344.898438 394.929688 Z M 344.898438 141.050781 L 398.640625 275.386719 C 398.640625 283.503906 392.058594 290.085938 383.941406 290.085938 C 375.820312 290.085938 369.238281 283.503906 369.238281 275.386719 C 369.238281 267.265625 375.820312 260.683594 383.941406 260.683594 C 392.058594 260.683594 398.640625 267.265625 398.640625 275.386719 Z M 344.898438 141.050781 "/>
</clipPath>
<clipPath id="clip63">
  <path d="M 344.898438 141.050781 L 470.75 141.050781 L 470.75 394.929688 L 344.898438 394.929688 Z M 344.898438 141.050781 L 446.410156 260.597656 C 446.410156 268.714844 439.828125 275.296875 431.710938 275.296875 C 423.59375 275.296875 417.011719 268.714844 417.011719 260.597656 C 417.011719 252.480469 423.59375 245.898438 431.710938 245.898438 C 439.828125 245.898438 446.410156 252.480469 446.410156 260.597656 Z M 344.898438 141.050781 "/>
</clipPath>
<clipPath id="clip64">
  <path d="M 342 109.480469 L 464 109.480469 L 464 312.773438 L 342 312.773438 Z M 342 109.480469 "/>
</clipPath>
<clipPath id="clip65">
  <path d="M 263.898438 109.480469 L 541.789062 109.480469 L 541.789062 312.773438 L 263.898438 312.773438 Z M 263.898438 109.480469 L 398.640625 275.386719 C 398.640625 283.503906 392.058594 290.085938 383.941406 290.085938 C 375.820312 290.085938 369.238281 283.503906 369.238281 275.386719 C 369.238281 267.265625 375.820312 260.683594 383.941406 260.683594 C 392.058594 260.683594 398.640625 267.265625 398.640625 275.386719 Z M 263.898438 109.480469 "/>
</clipPath>
<clipPath id="clip66">
  <path d="M 263.898438 109.480469 L 541.789062 109.480469 L 541.789062 312.773438 L 263.898438 312.773438 Z M 263.898438 109.480469 L 436.453125 146.871094 C 436.453125 154.988281 429.871094 161.570312 421.75 161.570312 C 413.632812 161.570312 407.050781 154.988281 407.050781 146.871094 C 407.050781 138.75 413.632812 132.167969 421.75 132.167969 C 429.871094 132.167969 436.453125 138.75 436.453125 146.871094 Z M 263.898438 109.480469 "/>
</clipPath>
<clipPath id="clip67">
  <path d="M 362.144531 233 L 509.054688 233 L 509.054688 334 L 362.144531 334 Z M 362.144531 233 "/>
</clipPath>
<clipPath id="clip68">
  <path d="M 362.144531 151.847656 L 509.054688 151.847656 L 509.054688 415.074219 L 362.144531 415.074219 Z M 362.144531 151.847656 L 398.640625 275.386719 C 398.640625 283.503906 392.058594 290.085938 383.941406 290.085938 C 375.820312 290.085938 369.238281 283.503906 369.238281 275.386719 C 369.238281 267.265625 375.820312 260.683594 383.941406 260.683594 C 392.058594 260.683594 398.640625 267.265625 398.640625 275.386719 Z M 362.144531 151.847656 "/>
</clipPath>
<clipPath id="clip69">
  <path d="M 362.144531 151.847656 L 509.054688 151.847656 L 509.054688 415.074219 L 362.144531 415.074219 Z M 362.144531 151.847656 L 501.960938 291.539062 C 501.960938 299.65625 495.378906 306.238281 487.261719 306.238281 C 479.144531 306.238281 472.5625 299.65625 472.5625 291.539062 C 472.5625 283.421875 479.144531 276.839844 487.261719 276.839844 C 495.378906 276.839844 501.960938 283.421875 501.960938 291.539062 Z M 362.144531 151.847656 "/>
</clipPath>
<clipPath id="clip70">
  <path d="M 30.816406 380 L 112.507812 380 L 112.507812 470 L 30.816406 470 Z M 30.816406 380 "/>
</clipPath>
<clipPath id="clip71">
  <path d="M 30.816406 298.601562 L 112.507812 298.601562 L 112.507812 551.871094 L 30.816406 551.871094 Z M 30.816406 298.601562 L 66.488281 428.207031 C 66.488281 436.328125 59.910156 442.90625 51.789062 442.90625 C 43.671875 442.90625 37.089844 436.328125 37.089844 428.207031 C 37.089844 420.089844 43.671875 413.507812 51.789062 413.507812 C 59.910156 413.507812 66.488281 420.089844 66.488281 428.207031 Z M 30.816406 298.601562 "/>
</clipPath>
<clipPath id="clip72">
  <path d="M 30.816406 298.601562 L 112.507812 298.601562 L 112.507812 551.871094 L 30.816406 551.871094 Z M 30.816406 298.601562 L 106.238281 422.269531 C 106.238281 430.386719 99.65625 436.96875 91.539062 436.96875 C 83.421875 436.96875 76.839844 430.386719 76.839844 422.269531 C 76.839844 414.152344 83.421875 407.570312 91.539062 407.570312 C 99.65625 407.570312 106.238281 414.152344 106.238281 422.269531 Z M 30.816406 298.601562 "/>
</clipPath>
<clipPath id="clip73">
  <path d="M 49 380 L 164 380 L 164 524 L 49 524 Z M 49 380 "/>
</clipPath>
<clipPath id="clip74">
  <path d="M -19.917969 363.433594 L 233.613281 363.433594 L 233.613281 540.550781 L -19.917969 540.550781 Z M -19.917969 363.433594 L 106.238281 422.269531 C 106.238281 430.386719 99.65625 436.96875 91.539062 436.96875 C 83.421875 436.96875 76.839844 430.386719 76.839844 422.269531 C 76.839844 414.152344 83.421875 407.570312 91.539062 407.570312 C 99.65625 407.570312 106.238281 414.152344 106.238281 422.269531 Z M -19.917969 363.433594 "/>
</clipPath>
<clipPath id="clip75">
  <path d="M -19.917969 363.433594 L 233.613281 363.433594 L 233.613281 540.550781 L -19.917969 540.550781 Z M -19.917969 363.433594 L 136.859375 481.71875 C 136.859375 489.835938 130.28125 496.417969 122.160156 496.417969 C 114.042969 496.417969 107.460938 489.835938 107.460938 481.71875 C 107.460938 473.601562 114.042969 467.019531 122.160156 467.019531 C 130.28125 467.019531 136.859375 473.601562 136.859375 481.71875 Z M -19.917969 363.433594 "/>
</clipPath>
<clipPath id="clip76">
  <path d="M 380 64 L 496 64 L 496 189 L 380 189 Z M 380 64 "/>
</clipPath>
<clipPath id="clip77">
  <path d="M 322.714844 28.121094 L 552.535156 28.121094 L 552.535156 225.078125 L 322.714844 225.078125 Z M 322.714844 28.121094 L 436.453125 146.871094 C 436.453125 154.988281 429.871094 161.570312 421.75 161.570312 C 413.632812 161.570312 407.050781 154.988281 407.050781 146.871094 C 407.050781 138.75 413.632812 132.167969 421.75 132.167969 C 429.871094 132.167969 436.453125 138.75 436.453125 146.871094 Z M 322.714844 28.121094 "/>
</clipPath>
<clipPath id="clip78">
  <path d="M 322.714844 28.121094 L 552.535156 28.121094 L 552.535156 225.078125 L 322.714844 225.078125 Z M 322.714844 28.121094 L 468.203125 106.332031 C 468.203125 114.449219 461.621094 121.03125 453.503906 121.03125 C 445.382812 121.03125 438.804688 114.449219 438.804688 106.332031 C 438.804688 98.210938 445.382812 91.628906 453.503906 91.628906 C 461.621094 91.628906 468.203125 98.210938 468.203125 106.332031 Z M 322.714844 28.121094 "/>
</clipPath>
<clipPath id="clip79">
  <path d="M 417.847656 104 L 489.566406 104 L 489.566406 189 L 417.847656 189 Z M 417.847656 104 "/>
</clipPath>
<clipPath id="clip80">
  <path d="M 417.847656 21.367188 L 489.566406 21.367188 L 489.566406 271.867188 L 417.847656 271.867188 Z M 417.847656 21.367188 L 436.453125 146.871094 C 436.453125 154.988281 429.871094 161.570312 421.75 161.570312 C 413.632812 161.570312 407.050781 154.988281 407.050781 146.871094 C 407.050781 138.75 413.632812 132.167969 421.75 132.167969 C 429.871094 132.167969 436.453125 138.75 436.453125 146.871094 Z M 417.847656 21.367188 "/>
</clipPath>
<clipPath id="clip81">
  <path d="M 417.847656 21.367188 L 489.566406 21.367188 L 489.566406 271.867188 L 417.847656 271.867188 Z M 417.847656 21.367188 L 500.371094 146.367188 C 500.371094 154.488281 493.789062 161.070312 485.667969 161.070312 C 477.550781 161.070312 470.96875 154.488281 470.96875 146.367188 C 470.96875 138.25 477.550781 131.667969 485.667969 131.667969 C 493.789062 131.667969 500.371094 138.25 500.371094 146.367188 Z M 417.847656 21.367188 "/>
</clipPath>
<clipPath id="clip82">
  <path d="M 311 33 L 464 33 L 464 189 L 311 189 Z M 311 33 "/>
</clipPath>
<clipPath id="clip83">
  <path d="M 261.460938 -12.722656 L 512.902344 -12.722656 L 512.902344 234.171875 L 261.460938 234.171875 Z M 261.460938 -12.722656 L 436.453125 146.871094 C 436.453125 154.988281 429.871094 161.570312 421.75 161.570312 C 413.632812 161.570312 407.050781 154.988281 407.050781 146.871094 C 407.050781 138.75 413.632812 132.167969 421.75 132.167969 C 429.871094 132.167969 436.453125 138.75 436.453125 146.871094 Z M 261.460938 -12.722656 "/>
</clipPath>
<clipPath id="clip84">
  <path d="M 261.460938 -12.722656 L 512.902344 -12.722656 L 512.902344 234.171875 L 261.460938 234.171875 Z M 261.460938 -12.722656 L 367.316406 74.582031 C 367.316406 82.699219 360.734375 89.28125 352.617188 89.28125 C 344.496094 89.28125 337.917969 82.699219 337.917969 74.582031 C 337.917969 66.464844 344.496094 59.882812 352.617188 59.882812 C 360.734375 59.882812 367.316406 66.464844 367.316406 74.582031 Z M 261.460938 -12.722656 "/>
</clipPath>
<clipPath id="clip85">
  <path d="M 46.789062 95 L 121.941406 95 L 121.941406 184 L 46.789062 184 Z M 46.789062 95 "/>
</clipPath>
<clipPath id="clip86">
  <path d="M 46.789062 13.273438 L 121.941406 13.273438 L 121.941406 266.511719 L 46.789062 266.511719 Z M 46.789062 13.273438 L 77.6875 142.230469 C 77.6875 150.347656 71.105469 156.929688 62.988281 156.929688 C 54.867188 156.929688 48.289062 150.347656 48.289062 142.230469 C 48.289062 134.109375 54.867188 127.53125 62.988281 127.53125 C 71.105469 127.53125 77.6875 134.109375 77.6875 142.230469 Z M 46.789062 13.273438 "/>
</clipPath>
<clipPath id="clip87">
  <path d="M 46.789062 13.273438 L 121.941406 13.273438 L 121.941406 266.511719 L 46.789062 266.511719 Z M 46.789062 13.273438 L 120.445312 137.558594 C 120.445312 145.679688 113.863281 152.261719 105.746094 152.261719 C 97.625 152.261719 91.042969 145.679688 91.042969 137.558594 C 91.042969 129.441406 97.625 122.859375 105.746094 122.859375 C 113.863281 122.859375 120.445312 129.441406 120.445312 137.558594 Z M 46.789062 13.273438 "/>
</clipPath>
<clipPath id="clip88">
  <path d="M 0 100 L 105 100 L 105 214 L 0 214 Z M 0 100 "/>
</clipPath>
<clipPath id="clip89">
  <path d="M -56.078125 54.375 L 153.613281 54.375 L 153.613281 259.449219 L -56.078125 259.449219 Z M -56.078125 54.375 L 77.6875 142.230469 C 77.6875 150.347656 71.105469 156.929688 62.988281 156.929688 C 54.867188 156.929688 48.289062 150.347656 48.289062 142.230469 C 48.289062 134.109375 54.867188 127.53125 62.988281 127.53125 C 71.105469 127.53125 77.6875 134.109375 77.6875 142.230469 Z M -56.078125 54.375 "/>
</clipPath>
<clipPath id="clip90">
  <path d="M -56.078125 54.375 L 153.613281 54.375 L 153.613281 259.449219 L -56.078125 259.449219 Z M -56.078125 54.375 L 49.25 171.597656 C 49.25 179.714844 42.667969 186.296875 34.550781 186.296875 C 26.433594 186.296875 19.851562 179.714844 19.851562 171.597656 C 19.851562 163.476562 26.433594 156.898438 34.550781 156.898438 C 42.667969 156.898438 49.25 163.476562 49.25 171.597656 Z M -56.078125 54.375 "/>
</clipPath>
<clipPath id="clip91">
  <path d="M 64 95 L 188 95 L 188 228 L 64 228 Z M 64 95 "/>
</clipPath>
<clipPath id="clip92">
  <path d="M 8.835938 56.710938 L 243.117188 56.710938 L 243.117188 267.210938 L 8.835938 267.210938 Z M 8.835938 56.710938 L 120.445312 137.558594 C 120.445312 145.679688 113.863281 152.261719 105.746094 152.261719 C 97.625 152.261719 91.042969 145.679688 91.042969 137.558594 C 91.042969 129.441406 97.625 122.859375 105.746094 122.859375 C 113.863281 122.859375 120.445312 129.441406 120.445312 137.558594 Z M 8.835938 56.710938 "/>
</clipPath>
<clipPath id="clip93">
  <path d="M 8.835938 56.710938 L 243.117188 56.710938 L 243.117188 267.210938 L 8.835938 267.210938 Z M 8.835938 56.710938 L 160.914062 186.367188 C 160.914062 194.484375 154.332031 201.066406 146.210938 201.066406 C 138.09375 201.066406 131.511719 194.484375 131.511719 186.367188 C 131.511719 178.246094 138.09375 171.667969 146.210938 171.667969 C 154.332031 171.667969 160.914062 178.246094 160.914062 186.367188 Z M 8.835938 56.710938 "/>
</clipPath>
<clipPath id="clip94">
  <path d="M 500 265 L 600 265 L 600 375 L 500 375 Z M 500 265 "/>
</clipPath>
<clipPath id="clip95">
  <path d="M 447.871094 222.996094 L 659.691406 222.996094 L 659.691406 417.195312 L 447.871094 417.195312 Z M 447.871094 222.996094 L 580.148438 333.246094 C 580.148438 341.363281 573.566406 347.945312 565.449219 347.945312 C 557.332031 347.945312 550.75 341.363281 550.75 333.246094 C 550.75 325.128906 557.332031 318.546875 565.449219 318.546875 C 573.566406 318.546875 580.148438 325.128906 580.148438 333.246094 Z M 447.871094 222.996094 "/>
</clipPath>
<clipPath id="clip96">
  <path d="M 447.871094 222.996094 L 659.691406 222.996094 L 659.691406 417.195312 L 447.871094 417.195312 Z M 447.871094 222.996094 L 556.816406 306.949219 C 556.816406 315.066406 550.234375 321.648438 542.117188 321.648438 C 534 321.648438 527.417969 315.066406 527.417969 306.949219 C 527.417969 298.828125 534 292.246094 542.117188 292.246094 C 550.234375 292.246094 556.816406 298.828125 556.816406 306.949219 Z M 447.871094 222.996094 "/>
</clipPath>
<clipPath id="clip97">
  <path d="M 451.308594 249 L 578.066406 249 L 578.066406 349 L 451.308594 349 Z M 451.308594 249 "/>
</clipPath>
<clipPath id="clip98">
  <path d="M 451.308594 171.082031 L 578.066406 171.082031 L 578.066406 427.402344 L 451.308594 427.402344 Z M 451.308594 171.082031 L 501.960938 291.539062 C 501.960938 299.65625 495.378906 306.238281 487.261719 306.238281 C 479.144531 306.238281 472.5625 299.65625 472.5625 291.539062 C 472.5625 283.421875 479.144531 276.839844 487.261719 276.839844 C 495.378906 276.839844 501.960938 283.421875 501.960938 291.539062 Z M 451.308594 171.082031 "/>
</clipPath>
<clipPath id="clip99">
  <path d="M 451.308594 171.082031 L 578.066406 171.082031 L 578.066406 427.402344 L 451.308594 427.402344 Z M 451.308594 171.082031 L 556.816406 306.949219 C 556.816406 315.066406 550.234375 321.648438 542.117188 321.648438 C 534 321.648438 527.417969 315.066406 527.417969 306.949219 C 527.417969 298.828125 534 292.246094 542.117188 292.246094 C 550.234375 292.246094 556.816406 298.828125 556.816406 306.949219 Z M 451.308594 171.082031 "/>
</clipPath>
<clipPath id="clip100">
  <path d="M 80 440 L 190 440 L 190 559 L 80 559 Z M 80 440 "/>
</clipPath>
<clipPath id="clip101">
  <path d="M 21.679688 405.386719 L 248.753906 405.386719 L 248.753906 592.757812 L 21.679688 592.757812 Z M 21.679688 405.386719 L 136.859375 481.71875 C 136.859375 489.835938 130.28125 496.417969 122.160156 496.417969 C 114.042969 496.417969 107.460938 489.835938 107.460938 481.71875 C 107.460938 473.601562 114.042969 467.019531 122.160156 467.019531 C 130.28125 467.019531 136.859375 473.601562 136.859375 481.71875 Z M 21.679688 405.386719 "/>
</clipPath>
<clipPath id="clip102">
  <path d="M 21.679688 405.386719 L 248.753906 405.386719 L 248.753906 592.757812 L 21.679688 592.757812 Z M 21.679688 405.386719 L 162.976562 516.429688 C 162.976562 524.546875 156.394531 531.128906 148.277344 531.128906 C 140.15625 531.128906 133.578125 524.546875 133.578125 516.429688 C 133.578125 508.308594 140.15625 501.730469 148.277344 501.730469 C 156.394531 501.730469 162.976562 508.308594 162.976562 516.429688 Z M 21.679688 405.386719 "/>
</clipPath>
<clipPath id="clip103">
  <path d="M 311 16.632812 L 400 16.632812 L 400 96.019531 L 311 96.019531 Z M 311 16.632812 "/>
</clipPath>
<clipPath id="clip104">
  <path d="M 229.023438 16.632812 L 481.804688 16.632812 L 481.804688 96.019531 L 229.023438 96.019531 Z M 229.023438 16.632812 L 372.914062 38.074219 C 372.914062 46.195312 366.335938 52.773438 358.214844 52.773438 C 350.097656 52.773438 343.515625 46.195312 343.515625 38.074219 C 343.515625 29.957031 350.097656 23.375 358.214844 23.375 C 366.335938 23.375 372.914062 29.957031 372.914062 38.074219 Z M 229.023438 16.632812 "/>
</clipPath>
<clipPath id="clip105">
  <path d="M 229.023438 16.632812 L 481.804688 16.632812 L 481.804688 96.019531 L 229.023438 96.019531 Z M 229.023438 16.632812 L 367.316406 74.582031 C 367.316406 82.699219 360.734375 89.28125 352.617188 89.28125 C 344.496094 89.28125 337.917969 82.699219 337.917969 74.582031 C 337.917969 66.464844 344.496094 59.882812 352.617188 59.882812 C 360.734375 59.882812 367.316406 66.464844 367.316406 74.582031 Z M 229.023438 16.632812 "/>
</clipPath>
<clipPath id="clip106">
  <path d="M 203.386719 0 L 313.023438 0 L 313.023438 88 L 203.386719 88 Z M 203.386719 0 "/>
</clipPath>
<clipPath id="clip107">
  <path d="M 203.386719 -86.828125 L 313.023438 -86.828125 L 313.023438 167.609375 L 203.386719 167.609375 Z M 203.386719 -86.828125 L 249.613281 34.78125 C 249.613281 42.898438 243.035156 49.480469 234.914062 49.480469 C 226.796875 49.480469 220.214844 42.898438 220.214844 34.78125 C 220.214844 26.664062 226.796875 20.082031 234.914062 20.082031 C 243.035156 20.082031 249.613281 26.664062 249.613281 34.78125 Z M 203.386719 -86.828125 "/>
</clipPath>
<clipPath id="clip108">
  <path d="M 203.386719 -86.828125 L 313.023438 -86.828125 L 313.023438 167.609375 L 203.386719 167.609375 Z M 203.386719 -86.828125 L 296.199219 46.003906 C 296.199219 54.121094 289.617188 60.703125 281.5 60.703125 C 273.378906 60.703125 266.800781 54.121094 266.800781 46.003906 C 266.800781 37.882812 273.378906 31.304688 281.5 31.304688 C 289.617188 31.304688 296.199219 37.882812 296.199219 46.003906 Z M 203.386719 -86.828125 "/>
</clipPath>
<clipPath id="clip109">
  <path d="M 239 4 L 395 4 L 395 117 L 239 117 Z M 239 4 "/>
</clipPath>
<clipPath id="clip110">
  <path d="M 233.046875 -70.199219 L 401.066406 -70.199219 L 401.066406 190.78125 L 233.046875 190.78125 Z M 233.046875 -70.199219 L 296.199219 46.003906 C 296.199219 54.121094 289.617188 60.703125 281.5 60.703125 C 273.378906 60.703125 266.800781 54.121094 266.800781 46.003906 C 266.800781 37.882812 273.378906 31.304688 281.5 31.304688 C 289.617188 31.304688 296.199219 37.882812 296.199219 46.003906 Z M 233.046875 -70.199219 "/>
</clipPath>
<clipPath id="clip111">
  <path d="M 233.046875 -70.199219 L 401.066406 -70.199219 L 401.066406 190.78125 L 233.046875 190.78125 Z M 233.046875 -70.199219 L 367.316406 74.582031 C 367.316406 82.699219 360.734375 89.28125 352.617188 89.28125 C 344.496094 89.28125 337.917969 82.699219 337.917969 74.582031 C 337.917969 66.464844 344.496094 59.882812 352.617188 59.882812 C 360.734375 59.882812 367.316406 66.464844 367.316406 74.582031 Z M 233.046875 -70.199219 "/>
</clipPath>
</defs>
<g id="surface806">
<g clip-path="url(#clip1)" clip-rule="nonzero">
<g clip-path="url(#clip2)" clip-rule="evenodd">
<g clip-path="url(#clip3)" clip-rule="evenodd">
<path style="fill:none;stroke-width:0.0240855;stroke-linecap:butt;stroke-linejoin:miter;stroke:rgb(17.96875%,20.3125%,21.09375%);stroke-opacity:0.8;stroke-miterlimit:10;" d="M 3.250367 5.705095 L 3.827133 5.431769 " transform="matrix(122.064077,0,0,122.064077,-62.850762,-162.332494)"/>
</g>
</g>
</g>
<g clip-path="url(#clip4)" clip-rule="nonzero">
<g clip-path="url(#clip5)" clip-rule="evenodd">
<g clip-path="url(#clip6)" clip-rule="evenodd">
<path style="fill:none;stroke-width:0.0240855;stroke-linecap:butt;stroke-linejoin:miter;stroke:rgb(17.96875%,20.3125%,21.09375%);stroke-opacity:0.8;stroke-miterlimit:10;" d="M 3.250367 5.705095 L 3.09964 5.960404 " transform="matrix(122.064077,0,0,122.064077,-62.850762,-162.332494)"/>
</g>
</g>
</g>
<g clip-path="url(#clip7)" clip-rule="nonzero">
<g clip-path="url(#clip8)" clip-rule="evenodd">
<g clip-path="url(#clip9)" clip-rule="evenodd">
<path style="fill:none;stroke-width:0.0240855;stroke-linecap:butt;stroke-linejoin:miter;stroke:rgb(17.96875%,20.3125%,21.09375%);stroke-opacity:0.8;stroke-miterlimit:10;" d="M 3.250367 5.705095 L 2.805033 5.713928 " transform="matrix(122.064077,0,0,122.064077,-62.850762,-162.332494)"/>
</g>
</g>
</g>
<g clip-path="url(#clip10)" clip-rule="nonzero">
<g clip-path="url(#clip11)" clip-rule="evenodd">
<g clip-path="url(#clip12)" clip-rule="evenodd">
<path style="fill:none;stroke-width:0.0240855;stroke-linecap:butt;stroke-linejoin:miter;stroke:rgb(17.96875%,20.3125%,21.09375%);stroke-opacity:0.8;stroke-miterlimit:10;" d="M 4.014695 4.601935 L 3.945763 5.077511 " transform="matrix(122.064077,0,0,122.064077,-62.850762,-162.332494)"/>
</g>
</g>
</g>
<g clip-path="url(#clip13)" clip-rule="nonzero">
<g clip-path="url(#clip14)" clip-rule="evenodd">
<g clip-path="url(#clip15)" clip-rule="evenodd">
<path style="fill:none;stroke-width:0.0240855;stroke-linecap:butt;stroke-linejoin:miter;stroke:rgb(17.96875%,20.3125%,21.09375%);stroke-opacity:0.8;stroke-miterlimit:10;" d="M 4.014695 4.601935 L 4.221329 5.12625 " transform="matrix(122.064077,0,0,122.064077,-62.850762,-162.332494)"/>
</g>
</g>
</g>
<g clip-path="url(#clip16)" clip-rule="nonzero">
<g clip-path="url(#clip17)" clip-rule="evenodd">
<g clip-path="url(#clip18)" clip-rule="evenodd">
<path style="fill:none;stroke-width:0.0240855;stroke-linecap:butt;stroke-linejoin:miter;stroke:rgb(17.96875%,20.3125%,21.09375%);stroke-opacity:0.8;stroke-miterlimit:10;" d="M 4.014695 4.601935 L 3.660308 3.585979 " transform="matrix(122.064077,0,0,122.064077,-62.850762,-162.332494)"/>
</g>
</g>
</g>
<g clip-path="url(#clip19)" clip-rule="nonzero">
<g clip-path="url(#clip20)" clip-rule="evenodd">
<g clip-path="url(#clip21)" clip-rule="evenodd">
<path style="fill:none;stroke-width:0.0240855;stroke-linecap:butt;stroke-linejoin:miter;stroke:rgb(17.96875%,20.3125%,21.09375%);stroke-opacity:0.8;stroke-miterlimit:10;" d="M 3.945763 5.077511 L 3.827133 5.431769 " transform="matrix(122.064077,0,0,122.064077,-62.850762,-162.332494)"/>
</g>
</g>
</g>
<g clip-path="url(#clip22)" clip-rule="nonzero">
<g clip-path="url(#clip23)" clip-rule="evenodd">
<g clip-path="url(#clip24)" clip-rule="evenodd">
<path style="fill:none;stroke-width:0.0240855;stroke-linecap:butt;stroke-linejoin:miter;stroke:rgb(17.96875%,20.3125%,21.09375%);stroke-opacity:0.8;stroke-miterlimit:10;" d="M 3.827133 5.431769 L 4.221329 5.12625 " transform="matrix(122.064077,0,0,122.064077,-62.850762,-162.332494)"/>
</g>
</g>
</g>
<g clip-path="url(#clip25)" clip-rule="nonzero">
<g clip-path="url(#clip26)" clip-rule="evenodd">
<g clip-path="url(#clip27)" clip-rule="evenodd">
<path style="fill:none;stroke-width:0.0240855;stroke-linecap:butt;stroke-linejoin:miter;stroke:rgb(17.96875%,20.3125%,21.09375%);stroke-opacity:0.8;stroke-miterlimit:10;" d="M 2.545435 3.330542 L 2.345041 3.585883 " transform="matrix(122.064077,0,0,122.064077,-62.850762,-162.332494)"/>
</g>
</g>
</g>
<g clip-path="url(#clip28)" clip-rule="nonzero">
<g clip-path="url(#clip29)" clip-rule="evenodd">
<g clip-path="url(#clip30)" clip-rule="evenodd">
<path style="fill:none;stroke-width:0.0240855;stroke-linecap:butt;stroke-linejoin:miter;stroke:rgb(17.96875%,20.3125%,21.09375%);stroke-opacity:0.8;stroke-miterlimit:10;" d="M 2.545435 3.330542 L 2.950288 3.525912 " transform="matrix(122.064077,0,0,122.064077,-62.850762,-162.332494)"/>
</g>
</g>
</g>
<g clip-path="url(#clip31)" clip-rule="nonzero">
<g clip-path="url(#clip32)" clip-rule="evenodd">
<g clip-path="url(#clip33)" clip-rule="evenodd">
<path style="fill:none;stroke-width:0.0240855;stroke-linecap:butt;stroke-linejoin:miter;stroke:rgb(17.96875%,20.3125%,21.09375%);stroke-opacity:0.8;stroke-miterlimit:10;" d="M 2.545435 3.330542 L 2.232075 3.218824 " transform="matrix(122.064077,0,0,122.064077,-62.850762,-162.332494)"/>
</g>
</g>
</g>
<g clip-path="url(#clip34)" clip-rule="nonzero">
<g clip-path="url(#clip35)" clip-rule="evenodd">
<g clip-path="url(#clip36)" clip-rule="evenodd">
<path style="fill:none;stroke-width:0.0240855;stroke-linecap:butt;stroke-linejoin:miter;stroke:rgb(17.96875%,20.3125%,21.09375%);stroke-opacity:0.8;stroke-miterlimit:10;" d="M 0.901287 3.991504 L 1.393921 4.132887 " transform="matrix(122.064077,0,0,122.064077,-62.850762,-162.332494)"/>
</g>
</g>
</g>
<g clip-path="url(#clip37)" clip-rule="nonzero">
<g clip-path="url(#clip38)" clip-rule="evenodd">
<g clip-path="url(#clip39)" clip-rule="evenodd">
<path style="fill:none;stroke-width:0.0240855;stroke-linecap:butt;stroke-linejoin:miter;stroke:rgb(17.96875%,20.3125%,21.09375%);stroke-opacity:0.8;stroke-miterlimit:10;" d="M 2.345041 3.585883 L 1.393921 4.132887 " transform="matrix(122.064077,0,0,122.064077,-62.850762,-162.332494)"/>
</g>
</g>
</g>
<g clip-path="url(#clip40)" clip-rule="nonzero">
<g clip-path="url(#clip41)" clip-rule="evenodd">
<g clip-path="url(#clip42)" clip-rule="evenodd">
<path style="fill:none;stroke-width:0.0240855;stroke-linecap:butt;stroke-linejoin:miter;stroke:rgb(17.96875%,20.3125%,21.09375%);stroke-opacity:0.8;stroke-miterlimit:10;" d="M 2.345041 3.585883 L 2.950288 3.525912 " transform="matrix(122.064077,0,0,122.064077,-62.850762,-162.332494)"/>
</g>
</g>
</g>
<g clip-path="url(#clip43)" clip-rule="nonzero">
<g clip-path="url(#clip44)" clip-rule="evenodd">
<g clip-path="url(#clip45)" clip-rule="evenodd">
<path style="fill:none;stroke-width:0.0240855;stroke-linecap:butt;stroke-linejoin:miter;stroke:rgb(17.96875%,20.3125%,21.09375%);stroke-opacity:0.8;stroke-miterlimit:10;" d="M 2.345041 3.585883 L 3.660308 3.585979 " transform="matrix(122.064077,0,0,122.064077,-62.850762,-162.332494)"/>
</g>
</g>
</g>
<g clip-path="url(#clip46)" clip-rule="nonzero">
<g clip-path="url(#clip47)" clip-rule="evenodd">
<g clip-path="url(#clip48)" clip-rule="evenodd">
<path style="fill:none;stroke-width:0.0240855;stroke-linecap:butt;stroke-linejoin:miter;stroke:rgb(17.96875%,20.3125%,21.09375%);stroke-opacity:0.8;stroke-miterlimit:10;" d="M 2.345041 3.585883 L 2.232075 3.218824 " transform="matrix(122.064077,0,0,122.064077,-62.850762,-162.332494)"/>
</g>
</g>
</g>
<g clip-path="url(#clip49)" clip-rule="nonzero">
<g clip-path="url(#clip50)" clip-rule="evenodd">
<g clip-path="url(#clip51)" clip-rule="evenodd">
<path style="fill:none;stroke-width:0.0240855;stroke-linecap:butt;stroke-linejoin:miter;stroke:rgb(17.96875%,20.3125%,21.09375%);stroke-opacity:0.8;stroke-miterlimit:10;" d="M 2.345041 3.585883 L 2.208074 4.161432 " transform="matrix(122.064077,0,0,122.064077,-62.850762,-162.332494)"/>
</g>
</g>
</g>
<g clip-path="url(#clip52)" clip-rule="nonzero">
<g clip-path="url(#clip53)" clip-rule="evenodd">
<g clip-path="url(#clip54)" clip-rule="evenodd">
<path style="fill:none;stroke-width:0.0240855;stroke-linecap:butt;stroke-linejoin:miter;stroke:rgb(17.96875%,20.3125%,21.09375%);stroke-opacity:0.8;stroke-miterlimit:10;" d="M 2.345041 3.585883 L 1.712721 2.856694 " transform="matrix(122.064077,0,0,122.064077,-62.850762,-162.332494)"/>
</g>
</g>
</g>
<g clip-path="url(#clip55)" clip-rule="nonzero">
<g clip-path="url(#clip56)" clip-rule="evenodd">
<g clip-path="url(#clip57)" clip-rule="evenodd">
<path style="fill:none;stroke-width:0.0240855;stroke-linecap:butt;stroke-linejoin:miter;stroke:rgb(17.96875%,20.3125%,21.09375%);stroke-opacity:0.8;stroke-miterlimit:10;" d="M 1.393921 4.132887 L 1.264826 4.789304 " transform="matrix(122.064077,0,0,122.064077,-62.850762,-162.332494)"/>
</g>
</g>
</g>
<g clip-path="url(#clip58)" clip-rule="nonzero">
<g clip-path="url(#clip59)" clip-rule="evenodd">
<g clip-path="url(#clip60)" clip-rule="evenodd">
<path style="fill:none;stroke-width:0.0240855;stroke-linecap:butt;stroke-linejoin:miter;stroke:rgb(17.96875%,20.3125%,21.09375%);stroke-opacity:0.8;stroke-miterlimit:10;" d="M 2.950288 3.525912 L 3.660308 3.585979 " transform="matrix(122.064077,0,0,122.064077,-62.850762,-162.332494)"/>
</g>
</g>
</g>
<g clip-path="url(#clip61)" clip-rule="nonzero">
<g clip-path="url(#clip62)" clip-rule="evenodd">
<g clip-path="url(#clip63)" clip-rule="evenodd">
<path style="fill:none;stroke-width:0.0240855;stroke-linecap:butt;stroke-linejoin:miter;stroke:rgb(17.96875%,20.3125%,21.09375%);stroke-opacity:0.8;stroke-miterlimit:10;" d="M 3.660308 3.585979 L 4.051656 3.464821 " transform="matrix(122.064077,0,0,122.064077,-62.850762,-162.332494)"/>
</g>
</g>
</g>
<g clip-path="url(#clip64)" clip-rule="nonzero">
<g clip-path="url(#clip65)" clip-rule="evenodd">
<g clip-path="url(#clip66)" clip-rule="evenodd">
<path style="fill:none;stroke-width:0.0240855;stroke-linecap:butt;stroke-linejoin:miter;stroke:rgb(17.96875%,20.3125%,21.09375%);stroke-opacity:0.8;stroke-miterlimit:10;" d="M 3.660308 3.585979 L 3.970052 2.533125 " transform="matrix(122.064077,0,0,122.064077,-62.850762,-162.332494)"/>
</g>
</g>
</g>
<g clip-path="url(#clip67)" clip-rule="nonzero">
<g clip-path="url(#clip68)" clip-rule="evenodd">
<g clip-path="url(#clip69)" clip-rule="evenodd">
<path style="fill:none;stroke-width:0.0240855;stroke-linecap:butt;stroke-linejoin:miter;stroke:rgb(17.96875%,20.3125%,21.09375%);stroke-opacity:0.8;stroke-miterlimit:10;" d="M 3.660308 3.585979 L 4.506752 3.718306 " transform="matrix(122.064077,0,0,122.064077,-62.850762,-162.332494)"/>
</g>
</g>
</g>
<g clip-path="url(#clip70)" clip-rule="nonzero">
<g clip-path="url(#clip71)" clip-rule="evenodd">
<g clip-path="url(#clip72)" clip-rule="evenodd">
<path style="fill:none;stroke-width:0.0240855;stroke-linecap:butt;stroke-linejoin:miter;stroke:rgb(17.96875%,20.3125%,21.09375%);stroke-opacity:0.8;stroke-miterlimit:10;" d="M 0.939177 4.837947 L 1.264826 4.789304 " transform="matrix(122.064077,0,0,122.064077,-62.850762,-162.332494)"/>
</g>
</g>
</g>
<g clip-path="url(#clip73)" clip-rule="nonzero">
<g clip-path="url(#clip74)" clip-rule="evenodd">
<g clip-path="url(#clip75)" clip-rule="evenodd">
<path style="fill:none;stroke-width:0.0240855;stroke-linecap:butt;stroke-linejoin:miter;stroke:rgb(17.96875%,20.3125%,21.09375%);stroke-opacity:0.8;stroke-miterlimit:10;" d="M 1.264826 4.789304 L 1.515687 5.276337 " transform="matrix(122.064077,0,0,122.064077,-62.850762,-162.332494)"/>
</g>
</g>
</g>
<g clip-path="url(#clip76)" clip-rule="nonzero">
<g clip-path="url(#clip77)" clip-rule="evenodd">
<g clip-path="url(#clip78)" clip-rule="evenodd">
<path style="fill:none;stroke-width:0.0240855;stroke-linecap:butt;stroke-linejoin:miter;stroke:rgb(17.96875%,20.3125%,21.09375%);stroke-opacity:0.8;stroke-miterlimit:10;" d="M 3.970052 2.533125 L 4.230194 2.201012 " transform="matrix(122.064077,0,0,122.064077,-62.850762,-162.332494)"/>
</g>
</g>
</g>
<g clip-path="url(#clip79)" clip-rule="nonzero">
<g clip-path="url(#clip80)" clip-rule="evenodd">
<g clip-path="url(#clip81)" clip-rule="evenodd">
<path style="fill:none;stroke-width:0.0240855;stroke-linecap:butt;stroke-linejoin:miter;stroke:rgb(17.96875%,20.3125%,21.09375%);stroke-opacity:0.8;stroke-miterlimit:10;" d="M 3.970052 2.533125 L 4.493695 2.528997 " transform="matrix(122.064077,0,0,122.064077,-62.850762,-162.332494)"/>
</g>
</g>
</g>
<g clip-path="url(#clip82)" clip-rule="nonzero">
<g clip-path="url(#clip83)" clip-rule="evenodd">
<g clip-path="url(#clip84)" clip-rule="evenodd">
<path style="fill:none;stroke-width:0.0240855;stroke-linecap:butt;stroke-linejoin:miter;stroke:rgb(17.96875%,20.3125%,21.09375%);stroke-opacity:0.8;stroke-miterlimit:10;" d="M 3.970052 2.533125 L 3.403687 1.940903 " transform="matrix(122.064077,0,0,122.064077,-62.850762,-162.332494)"/>
</g>
</g>
</g>
<g clip-path="url(#clip85)" clip-rule="nonzero">
<g clip-path="url(#clip86)" clip-rule="evenodd">
<g clip-path="url(#clip87)" clip-rule="evenodd">
<path style="fill:none;stroke-width:0.0240855;stroke-linecap:butt;stroke-linejoin:miter;stroke:rgb(17.96875%,20.3125%,21.09375%);stroke-opacity:0.8;stroke-miterlimit:10;" d="M 1.030926 2.495107 L 1.381216 2.456833 " transform="matrix(122.064077,0,0,122.064077,-62.850762,-162.332494)"/>
</g>
</g>
</g>
<g clip-path="url(#clip88)" clip-rule="nonzero">
<g clip-path="url(#clip89)" clip-rule="evenodd">
<g clip-path="url(#clip90)" clip-rule="evenodd">
<path style="fill:none;stroke-width:0.0240855;stroke-linecap:butt;stroke-linejoin:miter;stroke:rgb(17.96875%,20.3125%,21.09375%);stroke-opacity:0.8;stroke-miterlimit:10;" d="M 1.030926 2.495107 L 0.797954 2.735696 " transform="matrix(122.064077,0,0,122.064077,-62.850762,-162.332494)"/>
</g>
</g>
</g>
<g clip-path="url(#clip91)" clip-rule="nonzero">
<g clip-path="url(#clip92)" clip-rule="evenodd">
<g clip-path="url(#clip93)" clip-rule="evenodd">
<path style="fill:none;stroke-width:0.0240855;stroke-linecap:butt;stroke-linejoin:miter;stroke:rgb(17.96875%,20.3125%,21.09375%);stroke-opacity:0.8;stroke-miterlimit:10;" d="M 1.381216 2.456833 L 1.712721 2.856694 " transform="matrix(122.064077,0,0,122.064077,-62.850762,-162.332494)"/>
</g>
</g>
</g>
<g clip-path="url(#clip94)" clip-rule="nonzero">
<g clip-path="url(#clip95)" clip-rule="evenodd">
<g clip-path="url(#clip96)" clip-rule="evenodd">
<path style="fill:none;stroke-width:0.0240855;stroke-linecap:butt;stroke-linejoin:miter;stroke:rgb(17.96875%,20.3125%,21.09375%);stroke-opacity:0.8;stroke-miterlimit:10;" d="M 5.147296 4.059987 L 4.956151 3.844552 " transform="matrix(122.064077,0,0,122.064077,-62.850762,-162.332494)"/>
</g>
</g>
</g>
<g clip-path="url(#clip97)" clip-rule="nonzero">
<g clip-path="url(#clip98)" clip-rule="evenodd">
<g clip-path="url(#clip99)" clip-rule="evenodd">
<path style="fill:none;stroke-width:0.0240855;stroke-linecap:butt;stroke-linejoin:miter;stroke:rgb(17.96875%,20.3125%,21.09375%);stroke-opacity:0.8;stroke-miterlimit:10;" d="M 4.506752 3.718306 L 4.956151 3.844552 " transform="matrix(122.064077,0,0,122.064077,-62.850762,-162.332494)"/>
</g>
</g>
</g>
<g clip-path="url(#clip100)" clip-rule="nonzero">
<g clip-path="url(#clip101)" clip-rule="evenodd">
<g clip-path="url(#clip102)" clip-rule="evenodd">
<path style="fill:none;stroke-width:0.0240855;stroke-linecap:butt;stroke-linejoin:miter;stroke:rgb(17.96875%,20.3125%,21.09375%);stroke-opacity:0.8;stroke-miterlimit:10;" d="M 1.515687 5.276337 L 1.72965 5.560704 " transform="matrix(122.064077,0,0,122.064077,-62.850762,-162.332494)"/>
</g>
</g>
</g>
<g clip-path="url(#clip103)" clip-rule="nonzero">
<g clip-path="url(#clip104)" clip-rule="evenodd">
<g clip-path="url(#clip105)" clip-rule="evenodd">
<path style="fill:none;stroke-width:0.0240855;stroke-linecap:butt;stroke-linejoin:miter;stroke:rgb(17.96875%,20.3125%,21.09375%);stroke-opacity:0.8;stroke-miterlimit:10;" d="M 3.449546 1.641816 L 3.403687 1.940903 " transform="matrix(122.064077,0,0,122.064077,-62.850762,-162.332494)"/>
</g>
</g>
</g>
<g clip-path="url(#clip106)" clip-rule="nonzero">
<g clip-path="url(#clip107)" clip-rule="evenodd">
<g clip-path="url(#clip108)" clip-rule="evenodd">
<path style="fill:none;stroke-width:0.0240855;stroke-linecap:butt;stroke-linejoin:miter;stroke:rgb(17.96875%,20.3125%,21.09375%);stroke-opacity:0.8;stroke-miterlimit:10;" d="M 2.439414 1.614838 L 2.821066 1.706779 " transform="matrix(122.064077,0,0,122.064077,-62.850762,-162.332494)"/>
</g>
</g>
</g>
<g clip-path="url(#clip109)" clip-rule="nonzero">
<g clip-path="url(#clip110)" clip-rule="evenodd">
<g clip-path="url(#clip111)" clip-rule="evenodd">
<path style="fill:none;stroke-width:0.0240855;stroke-linecap:butt;stroke-linejoin:miter;stroke:rgb(17.96875%,20.3125%,21.09375%);stroke-opacity:0.8;stroke-miterlimit:10;" d="M 2.821066 1.706779 L 3.403687 1.940903 " transform="matrix(122.064077,0,0,122.064077,-62.850762,-162.332494)"/>
</g>
</g>
</g>
<path style="fill-rule:nonzero;fill:rgb(100%,92.941176%,43.529412%);fill-opacity:1;stroke-width:0.0240855;stroke-linecap:butt;stroke-linejoin:miter;stroke:rgb(60%,60%,60%);stroke-opacity:0.8;stroke-miterlimit:10;" d="M 0.120428 -0.0000153266 C 0.120428 0.0665161 0.0665048 0.120439 0.00000542303 0.120439 C -0.066526 0.120439 -0.120417 0.0665161 -0.120417 -0.0000153266 C -0.120417 -0.0665147 -0.066526 -0.120437 0.00000542303 -0.120437 C 0.0665048 -0.120437 0.120428 -0.0665147 0.120428 -0.0000153266 Z M 0.120428 -0.0000153266 " transform="matrix(122.064077,0,0,122.064077,333.901682,534.056558)"/>
<path style="fill-rule:nonzero;fill:rgb(100%,92.941176%,43.529412%);fill-opacity:1;stroke-width:0.0240855;stroke-linecap:butt;stroke-linejoin:miter;stroke:rgb(60%,60%,60%);stroke-opacity:0.8;stroke-miterlimit:10;" d="M 0.120422 0.00000963256 C 0.120422 0.066509 0.0664989 0.120432 -0.000000521761 0.120432 C -0.0664999 0.120432 -0.120423 0.066509 -0.120423 0.00000963256 C -0.120423 -0.0665218 -0.0664999 -0.120413 -0.000000521761 -0.120413 C 0.0664989 -0.120413 0.120422 -0.0665218 0.120422 0.00000963256 Z M 0.120422 0.00000963256 " transform="matrix(122.064077,0,0,122.064077,427.199282,399.397262)"/>
<path style="fill-rule:nonzero;fill:rgb(100%,92.941176%,43.529412%);fill-opacity:1;stroke-width:0.0240855;stroke-linecap:butt;stroke-linejoin:miter;stroke:rgb(60%,60%,60%);stroke-opacity:0.8;stroke-miterlimit:10;" d="M 0.120424 -0.0000143432 C 0.120424 0.0665171 0.0665015 0.12044 0.00000208542 0.12044 C -0.0664973 0.12044 -0.12042 0.0665171 -0.12042 -0.0000143432 C -0.12042 -0.0665137 -0.0664973 -0.120436 0.00000208542 -0.120436 C 0.0665015 -0.120436 0.120424 -0.0665137 0.120424 -0.0000143432 Z M 0.120424 -0.0000143432 " transform="matrix(122.064077,0,0,122.064077,418.784902,457.45097)"/>
<path style="fill-rule:nonzero;fill:rgb(100%,92.941176%,43.529412%);fill-opacity:1;stroke-width:0.0240855;stroke-linecap:butt;stroke-linejoin:miter;stroke:rgb(60%,60%,60%);stroke-opacity:0.8;stroke-miterlimit:10;" d="M 0.120416 0.0000158099 C 0.120416 0.0665152 0.0665254 0.120438 -0.00000603474 0.120438 C -0.0665054 0.120438 -0.120428 0.0665152 -0.120428 0.0000158099 C -0.120428 -0.0665156 -0.0665054 -0.120438 -0.00000603474 -0.120438 C 0.0665254 -0.120438 0.120416 -0.0665156 0.120416 0.0000158099 Z M 0.120416 0.0000158099 " transform="matrix(122.064077,0,0,122.064077,404.305424,500.689476)"/>
<path style="fill-rule:nonzero;fill:rgb(100%,92.941176%,43.529412%);fill-opacity:1;stroke-width:0.0240855;stroke-linecap:butt;stroke-linejoin:miter;stroke:rgb(60%,60%,60%);stroke-opacity:0.8;stroke-miterlimit:10;" d="M 0.120415 0.000000954811 C 0.120415 0.0665004 0.0665238 0.120423 -0.00000756173 0.120423 C -0.066507 0.120423 -0.12043 0.0665004 -0.12043 0.000000954811 C -0.12043 -0.0664984 -0.066507 -0.120421 -0.00000756173 -0.120421 C 0.0665238 -0.120421 0.120415 -0.0664984 0.120415 0.000000954811 Z M 0.120415 0.000000954811 " transform="matrix(122.064077,0,0,122.064077,452.422798,463.398321)"/>
<path style="fill-rule:nonzero;fill:rgb(55.294118%,82.745098%,78.039216%);fill-opacity:1;stroke-width:0.0240855;stroke-linecap:butt;stroke-linejoin:miter;stroke:rgb(60%,60%,60%);stroke-opacity:0.8;stroke-miterlimit:10;" d="M 0.120417 -0.00000930937 C 0.120417 0.0665221 0.0664947 0.120413 -0.0000047153 0.120413 C -0.0665041 0.120413 -0.120427 0.0665221 -0.120427 -0.00000930937 C -0.120427 -0.0665087 -0.0665041 -0.120431 -0.0000047153 -0.120431 C 0.0664947 -0.120431 0.120417 -0.0665087 0.120417 -0.00000930937 Z M 0.120417 -0.00000930937 " transform="matrix(122.064077,0,0,122.064077,247.856044,244.208168)"/>
<path style="fill-rule:nonzero;fill:rgb(55.294118%,82.745098%,78.039216%);fill-opacity:1;stroke-width:0.0240855;stroke-linecap:butt;stroke-linejoin:miter;stroke:rgb(60%,60%,60%);stroke-opacity:0.8;stroke-miterlimit:10;" d="M 0.120442 -0.00000130008 C 0.120442 0.0664981 0.0665193 0.120421 -0.0000121459 0.120421 C -0.0665115 0.120421 -0.120434 0.0664981 -0.120434 -0.00000130008 C -0.120434 -0.0665007 -0.0665115 -0.120423 -0.0000121459 -0.120423 C 0.0665193 -0.120423 0.120442 -0.0665007 0.120442 -0.00000130008 Z M 0.120442 -0.00000130008 " transform="matrix(122.064077,0,0,122.064077,47.165545,324.886877)"/>
<path style="fill-rule:nonzero;fill:rgb(55.294118%,82.745098%,78.039216%);fill-opacity:1;stroke-width:0.0240855;stroke-linecap:butt;stroke-linejoin:miter;stroke:rgb(60%,60%,60%);stroke-opacity:0.8;stroke-miterlimit:10;" d="M 0.120428 -0.00000934027 C 0.120428 0.0665221 0.0665052 0.120413 0.00000576792 0.120413 C -0.0665256 0.120413 -0.120416 0.0665221 -0.120416 -0.00000934027 C -0.120416 -0.0665087 -0.0665256 -0.120431 0.00000576792 -0.120431 C 0.0665052 -0.120431 0.120428 -0.0665087 0.120428 -0.00000934027 Z M 0.120428 -0.00000934027 " transform="matrix(122.064077,0,0,122.064077,223.393827,275.37614)"/>
<path style="fill-rule:nonzero;fill:rgb(55.294118%,82.745098%,78.039216%);fill-opacity:1;stroke-width:0.0240855;stroke-linecap:butt;stroke-linejoin:miter;stroke:rgb(60%,60%,60%);stroke-opacity:0.8;stroke-miterlimit:10;" d="M 0.120439 -0.0000149706 C 0.120439 0.0665164 0.0665158 0.120439 -0.000015596 0.120439 C -0.066515 0.120439 -0.120438 0.0665164 -0.120438 -0.0000149706 C -0.120438 -0.0665144 -0.066515 -0.120437 -0.000015596 -0.120437 C 0.0665158 -0.120437 0.120439 -0.0665144 0.120439 -0.0000149706 Z M 0.120439 -0.0000149706 " transform="matrix(122.064077,0,0,122.064077,107.298779,342.146359)"/>
<path style="fill-rule:nonzero;fill:rgb(100%,92.941176%,43.529412%);fill-opacity:1;stroke-width:0.0240855;stroke-linecap:butt;stroke-linejoin:miter;stroke:rgb(60%,60%,60%);stroke-opacity:0.8;stroke-miterlimit:10;" d="M 0.120442 0.000014846 C 0.120442 0.0665142 0.0665189 0.120437 -0.0000125376 0.120437 C -0.0665119 0.120437 -0.120435 0.0665142 -0.120435 0.000014846 C -0.120435 -0.0665166 -0.0665119 -0.120439 -0.0000125376 -0.120439 C 0.0665189 -0.120439 0.120442 -0.0665166 0.120442 0.000014846 Z M 0.120442 0.000014846 " transform="matrix(122.064077,0,0,122.064077,297.274968,268.052875)"/>
<path style="fill-rule:nonzero;fill:rgb(100%,92.941176%,43.529412%);fill-opacity:1;stroke-width:0.0240855;stroke-linecap:butt;stroke-linejoin:miter;stroke:rgb(60%,60%,60%);stroke-opacity:0.8;stroke-miterlimit:10;" d="M 0.120438 0.0000129913 C 0.120438 0.0665124 0.0665147 0.120435 0.0000153505 0.120435 C -0.066516 0.120435 -0.120439 0.0665124 -0.120439 0.0000129913 C -0.120439 -0.0665184 -0.066516 -0.120441 0.0000153505 -0.120441 C 0.0665147 -0.120441 0.120438 -0.0665184 0.120438 0.0000129913 Z M 0.120438 0.0000129913 " transform="matrix(122.064077,0,0,122.064077,383.939533,275.385133)"/>
<path style="fill-rule:nonzero;fill:rgb(55.294118%,82.745098%,78.039216%);fill-opacity:1;stroke-width:0.0240855;stroke-linecap:butt;stroke-linejoin:miter;stroke:rgb(60%,60%,60%);stroke-opacity:0.8;stroke-miterlimit:10;" d="M 0.120442 -0.0000132622 C 0.120442 0.0665181 0.0665197 0.120441 -0.0000117072 0.120441 C -0.0665111 0.120441 -0.120434 0.0665181 -0.120434 -0.0000132622 C -0.120434 -0.0665127 -0.0665111 -0.120435 -0.0000117072 -0.120435 C 0.0665197 -0.120435 0.120442 -0.0665127 0.120442 -0.0000132622 Z M 0.120442 -0.0000132622 " transform="matrix(122.064077,0,0,122.064077,209.606898,230.571931)"/>
<path style="fill-rule:nonzero;fill:rgb(55.294118%,82.745098%,78.039216%);fill-opacity:1;stroke-width:0.0240855;stroke-linecap:butt;stroke-linejoin:miter;stroke:rgb(60%,60%,60%);stroke-opacity:0.8;stroke-miterlimit:10;" d="M 0.120415 -0.00000598516 C 0.120415 0.0665254 0.0665241 0.120416 -0.00000731013 0.120416 C -0.0665067 0.120416 -0.120429 0.0665254 -0.120429 -0.00000598516 C -0.120429 -0.0665054 -0.0665067 -0.120428 -0.00000731013 -0.120428 C 0.0665241 -0.120428 0.120415 -0.0665054 0.120415 -0.00000598516 Z M 0.120415 -0.00000598516 " transform="matrix(122.064077,0,0,122.064077,51.789955,428.207762)"/>
<path style="fill-rule:nonzero;fill:rgb(55.294118%,82.745098%,78.039216%);fill-opacity:1;stroke-width:0.0240855;stroke-linecap:butt;stroke-linejoin:miter;stroke:rgb(60%,60%,60%);stroke-opacity:0.8;stroke-miterlimit:10;" d="M 0.120427 -0.00000363334 C 0.120427 0.0664958 0.0665043 0.120419 0.00000492191 0.120419 C -0.0664945 0.120419 -0.120417 0.0664958 -0.120417 -0.00000363334 C -0.120417 -0.066503 -0.0664945 -0.120426 0.00000492191 -0.120426 C 0.0665043 -0.120426 0.120427 -0.066503 0.120427 -0.00000363334 Z M 0.120427 -0.00000363334 " transform="matrix(122.064077,0,0,122.064077,91.538462,422.269975)"/>
<path style="fill-rule:nonzero;fill:rgb(100%,92.941176%,43.529412%);fill-opacity:1;stroke-width:0.0240855;stroke-linecap:butt;stroke-linejoin:miter;stroke:rgb(60%,60%,60%);stroke-opacity:0.8;stroke-miterlimit:10;" d="M 0.120424 0.000000491673 C 0.120424 0.0664999 0.0665015 0.120423 0.00000212007 0.120423 C -0.0664973 0.120423 -0.12042 0.0664999 -0.12042 0.000000491673 C -0.12042 -0.0664989 -0.0664973 -0.120422 0.00000212007 -0.120422 C 0.0665015 -0.120422 0.120424 -0.0664989 0.120424 0.000000491673 Z M 0.120424 0.000000491673 " transform="matrix(122.064077,0,0,122.064077,431.710679,260.597596)"/>
<path style="fill-rule:nonzero;fill:rgb(100%,92.941176%,43.529412%);fill-opacity:1;stroke-width:0.0240855;stroke-linecap:butt;stroke-linejoin:miter;stroke:rgb(60%,60%,60%);stroke-opacity:0.8;stroke-miterlimit:10;" d="M 0.12044 0.000013702 C 0.12044 0.0665131 0.0665177 0.120436 -0.0000137461 0.120436 C -0.0665131 0.120436 -0.120436 0.0665131 -0.120436 0.000013702 C -0.120436 -0.0665177 -0.0665131 -0.12044 -0.0000137461 -0.12044 C 0.0665177 -0.12044 0.12044 -0.0665177 0.12044 0.000013702 Z M 0.12044 0.000013702 " transform="matrix(122.064077,0,0,122.064077,421.751678,146.869421)"/>
<path style="fill-rule:nonzero;fill:rgb(55.294118%,82.745098%,78.039216%);fill-opacity:1;stroke-width:0.0240855;stroke-linecap:butt;stroke-linejoin:miter;stroke:rgb(60%,60%,60%);stroke-opacity:0.8;stroke-miterlimit:10;" d="M 0.120432 0.0000103464 C 0.120432 0.0665097 0.0665093 0.120432 0.00000992759 0.120432 C -0.0665215 0.120432 -0.120412 0.0665097 -0.120412 0.0000103464 C -0.120412 -0.0665211 -0.0665215 -0.120412 0.00000992759 -0.120412 C 0.0665093 -0.120412 0.120432 -0.0665211 0.120432 0.0000103464 Z M 0.120432 0.0000103464 " transform="matrix(122.064077,0,0,122.064077,62.987069,142.229206)"/>
<path style="fill-rule:nonzero;fill:rgb(55.294118%,82.745098%,78.039216%);fill-opacity:1;stroke-width:0.0240855;stroke-linecap:butt;stroke-linejoin:miter;stroke:rgb(60%,60%,60%);stroke-opacity:0.8;stroke-miterlimit:10;" d="M 0.120436 -0.00000177246 C 0.120436 0.0664976 0.0665136 0.12042 0.0000141568 0.12042 C -0.0665172 0.12042 -0.12044 0.0664976 -0.12044 -0.00000177246 C -0.12044 -0.0665012 -0.0665172 -0.120424 0.0000141568 -0.120424 C 0.0665136 -0.120424 0.120436 -0.0665012 0.120436 -0.00000177246 Z M 0.120436 -0.00000177246 " transform="matrix(122.064077,0,0,122.064077,206.674053,345.629123)"/>
<path style="fill-rule:nonzero;fill:rgb(55.294118%,82.745098%,78.039216%);fill-opacity:1;stroke-width:0.0240855;stroke-linecap:butt;stroke-linejoin:miter;stroke:rgb(60%,60%,60%);stroke-opacity:0.8;stroke-miterlimit:10;" d="M 0.120433 -0.0000137519 C 0.120433 0.0665176 0.0665107 0.12044 0.000011293 0.12044 C -0.0665201 0.12044 -0.120443 0.0665176 -0.120443 -0.0000137519 C -0.120443 -0.0665131 -0.0665201 -0.120436 0.000011293 -0.120436 C 0.0665107 -0.120436 0.120433 -0.0665131 0.120433 -0.0000137519 Z M 0.120433 -0.0000137519 " transform="matrix(122.064077,0,0,122.064077,105.744715,137.560272)"/>
<path style="fill-rule:nonzero;fill:rgb(55.294118%,82.745098%,78.039216%);fill-opacity:1;stroke-width:0.0240855;stroke-linecap:butt;stroke-linejoin:miter;stroke:rgb(60%,60%,60%);stroke-opacity:0.8;stroke-miterlimit:10;" d="M 0.120422 0.00000869609 C 0.120422 0.0665081 0.0664989 0.120431 -0.000000470706 0.120431 C -0.0664999 0.120431 -0.120423 0.0665081 -0.120423 0.00000869609 C -0.120423 -0.0665227 -0.0664999 -0.120413 -0.000000470706 -0.120413 C 0.0664989 -0.120413 0.120422 -0.0665227 0.120422 0.00000869609 Z M 0.120422 0.00000869609 " transform="matrix(122.064077,0,0,122.064077,34.550839,171.596595)"/>
<path style="fill-rule:nonzero;fill:rgb(55.294118%,82.745098%,78.039216%);fill-opacity:1;stroke-width:0.0240855;stroke-linecap:butt;stroke-linejoin:miter;stroke:rgb(60%,60%,60%);stroke-opacity:0.8;stroke-miterlimit:10;" d="M 0.120441 0.00000829382 C 0.120441 0.0665077 0.0665186 0.12043 -0.0000128388 0.12043 C -0.0665122 0.12043 -0.120435 0.0665077 -0.120435 0.00000829382 C -0.120435 -0.0665231 -0.0665122 -0.120414 -0.0000128388 -0.120414 C 0.0665186 -0.120414 0.120441 -0.0665231 0.120441 0.00000829382 Z M 0.120441 0.00000829382 " transform="matrix(122.064077,0,0,122.064077,146.212505,186.366175)"/>
<path style="fill-rule:nonzero;fill:rgb(100%,92.941176%,43.529412%);fill-opacity:1;stroke-width:0.0240855;stroke-linecap:butt;stroke-linejoin:miter;stroke:rgb(60%,60%,60%);stroke-opacity:0.8;stroke-miterlimit:10;" d="M 0.120423 0.00000215398 C 0.120423 0.0665016 0.0664999 0.120424 0.000000470706 0.120424 C -0.0664989 0.120424 -0.120422 0.0665016 -0.120422 0.00000215398 C -0.120422 -0.0664972 -0.0664989 -0.12042 0.000000470706 -0.12042 C 0.0664999 -0.12042 0.120423 -0.0664972 0.120423 0.00000215398 Z M 0.120423 0.00000215398 " transform="matrix(122.064077,0,0,122.064077,565.449161,333.245831)"/>
<path style="fill-rule:nonzero;fill:rgb(100%,92.941176%,43.529412%);fill-opacity:1;stroke-width:0.0240855;stroke-linecap:butt;stroke-linejoin:miter;stroke:rgb(60%,60%,60%);stroke-opacity:0.8;stroke-miterlimit:10;" d="M 0.120425 0.00000241946 C 0.120425 0.0665018 0.0665026 0.120425 0.00000316068 0.120425 C -0.0664962 0.120425 -0.120419 0.0665018 -0.120419 0.00000241946 C -0.120419 -0.066497 -0.0664962 -0.12042 0.00000316068 -0.12042 C 0.0665026 -0.12042 0.120425 -0.066497 0.120425 0.00000241946 Z M 0.120425 0.00000241946 " transform="matrix(122.064077,0,0,122.064077,487.261333,291.538767)"/>
<path style="fill-rule:nonzero;fill:rgb(100%,92.941176%,43.529412%);fill-opacity:1;stroke-width:0.0240855;stroke-linecap:butt;stroke-linejoin:miter;stroke:rgb(60%,60%,60%);stroke-opacity:0.8;stroke-miterlimit:10;" d="M 0.120426 0.0000152394 C 0.120426 0.0665146 0.0665032 0.120437 0.00000384097 0.120437 C -0.0664956 0.120437 -0.120418 0.0665146 -0.120418 0.0000152394 C -0.120418 -0.0665162 -0.0664956 -0.120439 0.00000384097 -0.120439 C 0.0665032 -0.120439 0.120426 -0.0665162 0.120426 0.0000152394 Z M 0.120426 0.0000152394 " transform="matrix(122.064077,0,0,122.064077,542.116719,306.947359)"/>
<path style="fill-rule:nonzero;fill:rgb(55.294118%,82.745098%,78.039216%);fill-opacity:1;stroke-width:0.0240855;stroke-linecap:butt;stroke-linejoin:miter;stroke:rgb(60%,60%,60%);stroke-opacity:0.8;stroke-miterlimit:10;" d="M 0.120416 -0.00000444948 C 0.120416 0.0664949 0.0665253 0.120418 -0.0000061397 0.120418 C -0.0665055 0.120418 -0.120428 0.0664949 -0.120428 -0.00000444948 C -0.120428 -0.0665038 -0.0665055 -0.120427 -0.0000061397 -0.120427 C 0.0665253 -0.120427 0.120416 -0.0665038 0.120416 -0.00000444948 Z M 0.120416 -0.00000444948 " transform="matrix(122.064077,0,0,122.064077,122.160906,481.719293)"/>
<path style="fill-rule:nonzero;fill:rgb(55.294118%,82.745098%,78.039216%);fill-opacity:1;stroke-width:0.0240855;stroke-linecap:butt;stroke-linejoin:miter;stroke:rgb(60%,60%,60%);stroke-opacity:0.8;stroke-miterlimit:10;" d="M 0.120428 0.00000804669 C 0.120428 0.0665074 0.0665055 0.12043 0.00000608321 0.12043 C -0.0665253 0.12043 -0.120416 0.0665074 -0.120416 0.00000804669 C -0.120416 -0.0665234 -0.0665253 -0.120414 0.00000608321 -0.120414 C 0.0665055 -0.120414 0.120428 -0.0665234 0.120428 0.00000804669 Z M 0.120428 0.00000804669 " transform="matrix(122.064077,0,0,122.064077,148.276601,516.428705)"/>
<path style="fill-rule:nonzero;fill:rgb(100%,92.941176%,43.529412%);fill-opacity:1;stroke-width:0.0240855;stroke-linecap:butt;stroke-linejoin:miter;stroke:rgb(60%,60%,60%);stroke-opacity:0.8;stroke-miterlimit:10;" d="M 0.12043 0.0000109877 C 0.12043 0.0665104 0.0665075 0.120433 0.00000813469 0.120433 C -0.0665233 0.120433 -0.120414 0.0665104 -0.120414 0.0000109877 C -0.120414 -0.0665204 -0.0665233 -0.120443 0.00000813469 -0.120443 C 0.0665075 -0.120443 0.12043 -0.0665204 0.12043 0.0000109877 Z M 0.12043 0.0000109877 " transform="matrix(122.064077,0,0,122.064077,453.502913,106.33069)"/>
<path style="fill-rule:nonzero;fill:rgb(100%,92.941176%,43.529412%);fill-opacity:1;stroke-width:0.0240855;stroke-linecap:butt;stroke-linejoin:miter;stroke:rgb(60%,60%,60%);stroke-opacity:0.8;stroke-miterlimit:10;" d="M 0.120438 -0.0000129313 C 0.120438 0.0665185 0.0665157 0.120441 -0.0000157332 0.120441 C -0.0665151 0.120441 -0.120438 0.0665185 -0.120438 -0.0000129313 C -0.120438 -0.0665123 -0.0665151 -0.120435 -0.0000157332 -0.120435 C 0.0665157 -0.120435 0.120438 -0.0665123 0.120438 -0.0000129313 Z M 0.120438 -0.0000129313 " transform="matrix(122.064077,0,0,122.064077,485.669889,146.368766)"/>
<path style="fill-rule:nonzero;fill:rgb(100%,92.941176%,43.529412%);fill-opacity:1;stroke-width:0.0240855;stroke-linecap:butt;stroke-linejoin:miter;stroke:rgb(60%,60%,60%);stroke-opacity:0.8;stroke-miterlimit:10;" d="M 0.120414 -0.000009014 C 0.120414 0.0665224 0.0665236 0.120413 -0.00000776195 0.120413 C -0.0665072 0.120413 -0.12043 0.0665224 -0.12043 -0.000009014 C -0.12043 -0.0665084 -0.0665072 -0.120431 -0.00000776195 -0.120431 C 0.0665236 -0.120431 0.120414 -0.0665084 0.120414 -0.000009014 Z M 0.120414 -0.000009014 " transform="matrix(122.064077,0,0,122.064077,358.215791,38.075319)"/>
<path style="fill-rule:nonzero;fill:rgb(100%,92.941176%,43.529412%);fill-opacity:1;stroke-width:0.0240855;stroke-linecap:butt;stroke-linejoin:miter;stroke:rgb(60%,60%,60%);stroke-opacity:0.8;stroke-miterlimit:10;" d="M 0.120415 0.00000308916 C 0.120415 0.0665025 0.0665241 0.120425 -0.0000072673 0.120425 C -0.0665067 0.120425 -0.120429 0.0665025 -0.120429 0.00000308916 C -0.120429 -0.0664963 -0.0665067 -0.120419 -0.0000072673 -0.120419 C 0.0665241 -0.120419 0.120415 -0.0664963 0.120415 0.00000308916 Z M 0.120415 0.00000308916 " transform="matrix(122.064077,0,0,122.064077,234.91495,34.780873)"/>
<path style="fill-rule:nonzero;fill:rgb(100%,92.941176%,43.529412%);fill-opacity:1;stroke-width:0.0240855;stroke-linecap:butt;stroke-linejoin:miter;stroke:rgb(60%,60%,60%);stroke-opacity:0.8;stroke-miterlimit:10;" d="M 0.120431 0.00000650173 C 0.120431 0.0665059 0.0665081 0.120429 0.00000875154 0.120429 C -0.0665226 0.120429 -0.120413 0.0665059 -0.120413 0.00000650173 C -0.120413 -0.0665249 -0.0665226 -0.120416 0.00000875154 -0.120416 C 0.0665081 -0.120416 0.120431 -0.0665249 0.120431 0.00000650173 Z M 0.120431 0.00000650173 " transform="matrix(122.064077,0,0,122.064077,281.498932,46.003113)"/>
<path style="fill-rule:nonzero;fill:rgb(100%,92.941176%,43.529412%);fill-opacity:1;stroke-width:0.0240855;stroke-linecap:butt;stroke-linejoin:miter;stroke:rgb(60%,60%,60%);stroke-opacity:0.8;stroke-miterlimit:10;" d="M 0.120431 0.000000921755 C 0.120431 0.0665003 0.0665086 0.120423 0.00000919993 0.120423 C -0.0665222 0.120423 -0.120413 0.0665003 -0.120413 0.000000921755 C -0.120413 -0.0664985 -0.0665222 -0.120421 0.00000919993 -0.120421 C 0.0665086 -0.120421 0.120431 -0.0664985 0.120431 0.000000921755 Z M 0.120431 0.000000921755 " transform="matrix(122.064077,0,0,122.064077,352.616065,74.581919)"/>
<path style="fill-rule:nonzero;fill:rgb(100%,92.941176%,43.529412%);fill-opacity:1;stroke-width:0.0240855;stroke-linecap:butt;stroke-linejoin:miter;stroke:rgb(60%,60%,60%);stroke-opacity:0.8;stroke-miterlimit:10;" d="M 0.120429 -0.00000308916 C 0.120429 0.0664963 0.0665058 0.120419 0.00000637837 0.120419 C -0.066525 0.120419 -0.120416 0.0664963 -0.120416 -0.00000308916 C -0.120416 -0.0665025 -0.066525 -0.120425 0.00000637837 -0.120425 C 0.0665058 -0.120425 0.120429 -0.0665025 0.120429 -0.00000308916 Z M 0.120429 -0.00000308916 " transform="matrix(122.064077,0,0,122.064077,315.503128,565.219127)"/>
<path style="fill-rule:nonzero;fill:rgb(100%,92.941176%,43.529412%);fill-opacity:1;stroke-width:0.0240855;stroke-linecap:butt;stroke-linejoin:miter;stroke:rgb(60%,60%,60%);stroke-opacity:0.8;stroke-miterlimit:10;" d="M 0.120415 -0.00000125553 C 0.120415 0.0664981 0.0665241 0.120421 -0.00000729242 0.120421 C -0.0665067 0.120421 -0.120429 0.0664981 -0.120429 -0.00000125553 C -0.120429 -0.0665007 -0.0665067 -0.120423 -0.00000729242 -0.120423 C 0.0665241 -0.120423 0.120415 -0.0665007 0.120415 -0.00000125553 Z M 0.120415 -0.00000125553 " transform="matrix(122.064077,0,0,122.064077,279.543859,535.132966)"/>
</g>
</svg>
