<?xml version="1.0" encoding="UTF-8"?>
<svg xmlns="http://www.w3.org/2000/svg" xmlns:xlink="http://www.w3.org/1999/xlink" width="600pt" height="600pt" viewBox="0 0 600 600" version="1.1">
<defs>
<clipPath id="clip1">
  <path d="M 137 243 L 281 243 L 281 424 L 137 424 Z M 137 243 "/>
</clipPath>
<clipPath id="clip2">
  <path d="M 72.960938 217.757812 L 345.128906 217.757812 L 345.128906 449.550781 L 72.960938 449.550781 Z M 72.960938 217.757812 L 192.921875 382.921875 C 192.921875 390.921875 186.4375 397.410156 178.433594 397.410156 C 170.433594 397.410156 163.945312 390.921875 163.945312 382.921875 C 163.945312 374.921875 170.433594 368.433594 178.433594 368.433594 C 186.4375 368.433594 192.921875 374.921875 192.921875 382.921875 Z M 72.960938 217.757812 "/>
</clipPath>
<clipPath id="clip3">
  <path d="M 72.960938 217.757812 L 345.128906 217.757812 L 345.128906 449.550781 L 72.960938 449.550781 Z M 72.960938 217.757812 L 254.144531 284.386719 C 254.144531 292.386719 247.660156 298.875 239.65625 298.875 C 231.65625 298.875 225.167969 292.386719 225.167969 284.386719 C 225.167969 276.382812 231.65625 269.898438 239.65625 269.898438 C 247.660156 269.898438 254.144531 276.382812 254.144531 284.386719 Z M 72.960938 217.757812 "/>
</clipPath>
<clipPath id="clip4">
  <path d="M 137 341 L 252 341 L 252 501 L 137 501 Z M 137 341 "/>
</clipPath>
<clipPath id="clip5">
  <path d="M 64.03125 333.65625 L 324.613281 333.65625 L 324.613281 508.609375 L 64.03125 508.609375 Z M 64.03125 333.65625 L 192.921875 382.921875 C 192.921875 390.921875 186.4375 397.410156 178.433594 397.410156 C 170.433594 397.410156 163.945312 390.921875 163.945312 382.921875 C 163.945312 374.921875 170.433594 368.433594 178.433594 368.433594 C 186.4375 368.433594 192.921875 374.921875 192.921875 382.921875 Z M 64.03125 333.65625 "/>
</clipPath>
<clipPath id="clip6">
  <path d="M 64.03125 333.65625 L 324.613281 333.65625 L 324.613281 508.609375 L 64.03125 508.609375 Z M 64.03125 333.65625 L 224.699219 459.34375 C 224.699219 467.34375 218.210938 473.832031 210.210938 473.832031 C 202.207031 473.832031 195.722656 467.34375 195.722656 459.34375 C 195.722656 451.339844 202.207031 444.855469 210.210938 444.855469 C 218.210938 444.855469 224.699219 451.339844 224.699219 459.34375 Z M 64.03125 333.65625 "/>
</clipPath>
<clipPath id="clip7">
  <path d="M 78.613281 341 L 203.796875 341 L 203.796875 438 L 78.613281 438 Z M 78.613281 341 "/>
</clipPath>
<clipPath id="clip8">
  <path d="M 78.613281 261.371094 L 203.796875 261.371094 L 203.796875 518.570312 L 78.613281 518.570312 Z M 78.613281 261.371094 L 192.921875 382.921875 C 192.921875 390.921875 186.4375 397.410156 178.433594 397.410156 C 170.433594 397.410156 163.945312 390.921875 163.945312 382.921875 C 163.945312 374.921875 170.433594 368.433594 178.433594 368.433594 C 186.4375 368.433594 192.921875 374.921875 192.921875 382.921875 Z M 78.613281 261.371094 "/>
</clipPath>
<clipPath id="clip9">
  <path d="M 78.613281 261.371094 L 203.796875 261.371094 L 203.796875 518.570312 L 78.613281 518.570312 Z M 78.613281 261.371094 L 118.464844 397.019531 C 118.464844 405.023438 111.976562 411.507812 103.976562 411.507812 C 95.972656 411.507812 89.488281 405.023438 89.488281 397.019531 C 89.488281 389.019531 95.972656 382.53125 103.976562 382.53125 C 111.976562 382.53125 118.464844 389.019531 118.464844 397.019531 Z M 78.613281 261.371094 "/>
</clipPath>
<clipPath id="clip10">
  <path d="M 365 262 L 518 262 L 518 416 L 365 416 Z M 365 262 "/>
</clipPath>
<clipPath id="clip11">
  <path d="M 317.371094 215.667969 L 564.957031 215.667969 L 564.957031 462.113281 L 317.371094 462.113281 Z M 317.371094 215.667969 L 420.632812 303.46875 C 420.632812 311.46875 414.148438 317.957031 406.144531 317.957031 C 398.144531 317.957031 391.65625 311.46875 391.65625 303.46875 C 391.65625 295.464844 398.144531 288.980469 406.144531 288.980469 C 414.148438 288.980469 420.632812 295.464844 420.632812 303.46875 Z M 317.371094 215.667969 "/>
</clipPath>
<clipPath id="clip12">
  <path d="M 317.371094 215.667969 L 564.957031 215.667969 L 564.957031 462.113281 L 317.371094 462.113281 Z M 317.371094 215.667969 L 490.671875 374.3125 C 490.671875 382.3125 484.183594 388.800781 476.183594 388.800781 C 468.179688 388.800781 461.695312 382.3125 461.695312 374.3125 C 461.695312 366.308594 468.179688 359.824219 476.183594 359.824219 C 484.183594 359.824219 490.671875 366.308594 490.671875 374.3125 Z M 317.371094 215.667969 "/>
</clipPath>
<clipPath id="clip13">
  <path d="M 223.007812 243 L 422.792969 243 L 422.792969 345 L 223.007812 345 Z M 223.007812 243 "/>
</clipPath>
<clipPath id="clip14">
  <path d="M 223.007812 161.511719 L 422.792969 161.511719 L 422.792969 426.34375 L 223.007812 426.34375 Z M 223.007812 161.511719 L 420.632812 303.46875 C 420.632812 311.46875 414.148438 317.957031 406.144531 317.957031 C 398.144531 317.957031 391.65625 311.46875 391.65625 303.46875 C 391.65625 295.464844 398.144531 288.980469 406.144531 288.980469 C 414.148438 288.980469 420.632812 295.464844 420.632812 303.46875 Z M 223.007812 161.511719 "/>
</clipPath>
<clipPath id="clip15">
  <path d="M 223.007812 161.511719 L 422.792969 161.511719 L 422.792969 426.34375 L 223.007812 426.34375 Z M 223.007812 161.511719 L 254.144531 284.386719 C 254.144531 292.386719 247.660156 298.875 239.65625 298.875 C 231.65625 298.875 225.167969 292.386719 225.167969 284.386719 C 225.167969 276.382812 231.65625 269.898438 239.65625 269.898438 C 247.660156 269.898438 254.144531 276.382812 254.144531 284.386719 Z M 223.007812 161.511719 "/>
</clipPath>
<clipPath id="clip16">
  <path d="M 357 224.339844 L 448 224.339844 L 448 322.28125 L 357 322.28125 Z M 357 224.339844 "/>
</clipPath>
<clipPath id="clip17">
  <path d="M 275.519531 224.339844 L 528.75 224.339844 L 528.75 322.28125 L 275.519531 322.28125 Z M 275.519531 224.339844 L 420.632812 303.46875 C 420.632812 311.46875 414.148438 317.957031 406.144531 317.957031 C 398.144531 317.957031 391.65625 311.46875 391.65625 303.46875 C 391.65625 295.464844 398.144531 288.980469 406.144531 288.980469 C 414.148438 288.980469 420.632812 295.464844 420.632812 303.46875 Z M 275.519531 224.339844 "/>
</clipPath>
<clipPath id="clip18">
  <path d="M 275.519531 224.339844 L 528.75 224.339844 L 528.75 322.28125 L 275.519531 322.28125 Z M 275.519531 224.339844 L 412.613281 243.152344 C 412.613281 251.15625 406.125 257.640625 398.125 257.640625 C 390.121094 257.640625 383.636719 251.15625 383.636719 243.152344 C 383.636719 235.152344 390.121094 228.664062 398.125 228.664062 C 406.125 228.664062 412.613281 235.152344 412.613281 243.152344 Z M 275.519531 224.339844 "/>
</clipPath>
<clipPath id="clip19">
  <path d="M 389.695312 250 L 528.699219 250 L 528.699219 345 L 389.695312 345 Z M 389.695312 250 "/>
</clipPath>
<clipPath id="clip20">
  <path d="M 389.695312 168.589844 L 528.699219 168.589844 L 528.699219 426.367188 L 389.695312 426.367188 Z M 389.695312 168.589844 L 420.632812 303.46875 C 420.632812 311.46875 414.148438 317.957031 406.144531 317.957031 C 398.144531 317.957031 391.65625 311.46875 391.65625 303.46875 C 391.65625 295.464844 398.144531 288.980469 406.144531 288.980469 C 414.148438 288.980469 420.632812 295.464844 420.632812 303.46875 Z M 389.695312 168.589844 "/>
</clipPath>
<clipPath id="clip21">
  <path d="M 389.695312 168.589844 L 528.699219 168.589844 L 528.699219 426.367188 L 389.695312 426.367188 Z M 389.695312 168.589844 L 526.738281 291.488281 C 526.738281 299.488281 520.253906 305.976562 512.25 305.976562 C 504.25 305.976562 497.761719 299.488281 497.761719 291.488281 C 497.761719 283.484375 504.25 277 512.25 277 C 520.253906 277 526.738281 283.484375 526.738281 291.488281 Z M 389.695312 168.589844 "/>
</clipPath>
<clipPath id="clip22">
  <path d="M 435 333 L 562 333 L 562 457 L 435 457 Z M 435 333 "/>
</clipPath>
<clipPath id="clip23">
  <path d="M 390.65625 283.351562 L 605.582031 283.351562 L 605.582031 506.4375 L 390.65625 506.4375 Z M 390.65625 283.351562 L 534.542969 415.476562 C 534.542969 423.476562 528.054688 429.964844 520.054688 429.964844 C 512.054688 429.964844 505.566406 423.476562 505.566406 415.476562 C 505.566406 407.472656 512.054688 400.988281 520.054688 400.988281 C 528.054688 400.988281 534.542969 407.472656 534.542969 415.476562 Z M 390.65625 283.351562 "/>
</clipPath>
<clipPath id="clip24">
  <path d="M 390.65625 283.351562 L 605.582031 283.351562 L 605.582031 506.4375 L 390.65625 506.4375 Z M 390.65625 283.351562 L 490.671875 374.3125 C 490.671875 382.3125 484.183594 388.800781 476.183594 388.800781 C 468.179688 388.800781 461.695312 382.3125 461.695312 374.3125 C 461.695312 366.308594 468.179688 359.824219 476.183594 359.824219 C 484.183594 359.824219 490.671875 366.308594 490.671875 374.3125 Z M 390.65625 283.351562 "/>
</clipPath>
<clipPath id="clip25">
  <path d="M 131 119 L 281 119 L 281 326 L 131 326 Z M 131 119 "/>
</clipPath>
<clipPath id="clip26">
  <path d="M 63.4375 100 L 348.753906 100 L 348.753906 344.769531 L 63.4375 344.769531 Z M 63.4375 100 L 254.144531 284.386719 C 254.144531 292.386719 247.660156 298.875 239.65625 298.875 C 231.65625 298.875 225.167969 292.386719 225.167969 284.386719 C 225.167969 276.382812 231.65625 269.898438 239.65625 269.898438 C 247.660156 269.898438 254.144531 276.382812 254.144531 284.386719 Z M 63.4375 100 "/>
</clipPath>
<clipPath id="clip27">
  <path d="M 63.4375 100 L 348.753906 100 L 348.753906 344.769531 L 63.4375 344.769531 Z M 63.4375 100 L 187.023438 160.382812 C 187.023438 168.382812 180.535156 174.871094 172.535156 174.871094 C 164.535156 174.871094 158.046875 168.382812 158.046875 160.382812 C 158.046875 152.382812 164.535156 145.894531 172.535156 145.894531 C 180.535156 145.894531 187.023438 152.382812 187.023438 160.382812 Z M 63.4375 100 "/>
</clipPath>
<clipPath id="clip28">
  <path d="M 156.25 243 L 251.414062 243 L 251.414062 331 L 156.25 331 Z M 156.25 243 "/>
</clipPath>
<clipPath id="clip29">
  <path d="M 156.25 161.054688 L 251.414062 161.054688 L 251.414062 412.988281 L 156.25 412.988281 Z M 156.25 161.054688 L 254.144531 284.386719 C 254.144531 292.386719 247.660156 298.875 239.65625 298.875 C 231.65625 298.875 225.167969 292.386719 225.167969 284.386719 C 225.167969 276.382812 231.65625 269.898438 239.65625 269.898438 C 247.660156 269.898438 254.144531 276.382812 254.144531 284.386719 Z M 156.25 161.054688 "/>
</clipPath>
<clipPath id="clip30">
  <path d="M 156.25 161.054688 L 251.414062 161.054688 L 251.414062 412.988281 L 156.25 412.988281 Z M 156.25 161.054688 L 182.496094 289.65625 C 182.496094 297.65625 176.011719 304.144531 168.007812 304.144531 C 160.007812 304.144531 153.519531 297.65625 153.519531 289.65625 C 153.519531 281.652344 160.007812 275.167969 168.007812 275.167969 C 176.011719 275.167969 182.496094 281.652344 182.496094 289.65625 Z M 156.25 161.054688 "/>
</clipPath>
<clipPath id="clip31">
  <path d="M 187.699219 418 L 363.773438 418 L 363.773438 522 L 187.699219 522 Z M 187.699219 418 "/>
</clipPath>
<clipPath id="clip32">
  <path d="M 187.699219 337.289062 L 363.773438 337.289062 L 363.773438 602.96875 L 187.699219 602.96875 Z M 187.699219 337.289062 L 355.75 480.914062 C 355.75 488.917969 349.265625 495.402344 341.261719 495.402344 C 333.261719 495.402344 326.773438 488.917969 326.773438 480.914062 C 326.773438 472.914062 333.261719 466.425781 341.261719 466.425781 C 349.265625 466.425781 355.75 472.914062 355.75 480.914062 Z M 187.699219 337.289062 "/>
</clipPath>
<clipPath id="clip33">
  <path d="M 187.699219 337.289062 L 363.773438 337.289062 L 363.773438 602.96875 L 187.699219 602.96875 Z M 187.699219 337.289062 L 224.699219 459.34375 C 224.699219 467.34375 218.210938 473.832031 210.210938 473.832031 C 202.207031 473.832031 195.722656 467.34375 195.722656 459.34375 C 195.722656 451.339844 202.207031 444.855469 210.210938 444.855469 C 218.210938 444.855469 224.699219 451.339844 224.699219 459.34375 Z M 187.699219 337.289062 "/>
</clipPath>
<clipPath id="clip34">
  <path d="M 308.785156 439 L 453.335938 439 L 453.335938 543 L 308.785156 543 Z M 308.785156 439 "/>
</clipPath>
<clipPath id="clip35">
  <path d="M 308.785156 360.933594 L 453.335938 360.933594 L 453.335938 621.003906 L 308.785156 621.003906 Z M 308.785156 360.933594 L 355.75 480.914062 C 355.75 488.917969 349.265625 495.402344 341.261719 495.402344 C 333.261719 495.402344 326.773438 488.917969 326.773438 480.914062 C 326.773438 472.914062 333.261719 466.425781 341.261719 466.425781 C 349.265625 466.425781 355.75 472.914062 355.75 480.914062 Z M 308.785156 360.933594 "/>
</clipPath>
<clipPath id="clip36">
  <path d="M 308.785156 360.933594 L 453.335938 360.933594 L 453.335938 621.003906 L 308.785156 621.003906 Z M 308.785156 360.933594 L 435.347656 501.023438 C 435.347656 509.027344 428.863281 515.511719 420.859375 515.511719 C 412.859375 515.511719 406.371094 509.027344 406.371094 501.023438 C 406.371094 493.023438 412.859375 486.535156 420.859375 486.535156 C 428.863281 486.535156 435.347656 493.023438 435.347656 501.023438 Z M 308.785156 360.933594 "/>
</clipPath>
<clipPath id="clip37">
  <path d="M 300 415 L 428 415 L 428 522 L 300 522 Z M 300 415 "/>
</clipPath>
<clipPath id="clip38">
  <path d="M 281.792969 347.207031 L 446.214844 347.207031 L 446.214844 590.503906 L 281.792969 590.503906 Z M 281.792969 347.207031 L 355.75 480.914062 C 355.75 488.917969 349.265625 495.402344 341.261719 495.402344 C 333.261719 495.402344 326.773438 488.917969 326.773438 480.914062 C 326.773438 472.914062 333.261719 466.425781 341.261719 466.425781 C 349.265625 466.425781 355.75 472.914062 355.75 480.914062 Z M 281.792969 347.207031 "/>
</clipPath>
<clipPath id="clip39">
  <path d="M 281.792969 347.207031 L 446.214844 347.207031 L 446.214844 590.503906 L 281.792969 590.503906 Z M 281.792969 347.207031 L 401.234375 456.796875 C 401.234375 464.796875 394.746094 471.285156 386.746094 471.285156 C 378.742188 471.285156 372.257812 464.796875 372.257812 456.796875 C 372.257812 448.792969 378.742188 442.308594 386.746094 442.308594 C 394.746094 442.308594 401.234375 448.792969 401.234375 456.796875 Z M 281.792969 347.207031 "/>
</clipPath>
<clipPath id="clip40">
  <path d="M 300 462.535156 L 389 462.535156 L 389 547.40625 L 300 547.40625 Z M 300 462.535156 "/>
</clipPath>
<clipPath id="clip41">
  <path d="M 218.597656 462.535156 L 470.144531 462.535156 L 470.144531 547.40625 L 218.597656 547.40625 Z M 218.597656 462.535156 L 355.75 480.914062 C 355.75 488.917969 349.265625 495.402344 341.261719 495.402344 C 333.261719 495.402344 326.773438 488.917969 326.773438 480.914062 C 326.773438 472.914062 333.261719 466.425781 341.261719 466.425781 C 349.265625 466.425781 355.75 472.914062 355.75 480.914062 Z M 218.597656 462.535156 "/>
</clipPath>
<clipPath id="clip42">
  <path d="M 218.597656 462.535156 L 470.144531 462.535156 L 470.144531 547.40625 L 218.597656 547.40625 Z M 218.597656 462.535156 L 361.96875 529.027344 C 361.96875 537.03125 355.480469 543.515625 347.480469 543.515625 C 339.476562 543.515625 332.992188 537.03125 332.992188 529.027344 C 332.992188 521.027344 339.476562 514.539062 347.480469 514.539062 C 355.480469 514.539062 361.96875 521.027344 361.96875 529.027344 Z M 218.597656 462.535156 "/>
</clipPath>
<clipPath id="clip43">
  <path d="M 116.601562 418 L 235.261719 418 L 235.261719 514 L 116.601562 514 Z M 116.601562 418 "/>
</clipPath>
<clipPath id="clip44">
  <path d="M 116.601562 337.734375 L 235.261719 337.734375 L 235.261719 593.746094 L 116.601562 593.746094 Z M 116.601562 337.734375 L 224.699219 459.34375 C 224.699219 467.34375 218.210938 473.832031 210.210938 473.832031 C 202.207031 473.832031 195.722656 467.34375 195.722656 459.34375 C 195.722656 451.339844 202.207031 444.855469 210.210938 444.855469 C 218.210938 444.855469 224.699219 451.339844 224.699219 459.34375 Z M 116.601562 337.734375 "/>
</clipPath>
<clipPath id="clip45">
  <path d="M 116.601562 337.734375 L 235.261719 337.734375 L 235.261719 593.746094 L 116.601562 593.746094 Z M 116.601562 337.734375 L 156.140625 472.136719 C 156.140625 480.140625 149.652344 486.625 141.652344 486.625 C 133.648438 486.625 127.164062 480.140625 127.164062 472.136719 C 127.164062 464.136719 133.648438 457.648438 141.652344 457.648438 C 149.652344 457.648438 156.140625 464.136719 156.140625 472.136719 Z M 116.601562 337.734375 "/>
</clipPath>
<clipPath id="clip46">
  <path d="M 138 418 L 252 418 L 252 540 L 138 540 Z M 138 418 "/>
</clipPath>
<clipPath id="clip47">
  <path d="M 81.171875 382.453125 L 308.546875 382.453125 L 308.546875 575.835938 L 81.171875 575.835938 Z M 81.171875 382.453125 L 224.699219 459.34375 C 224.699219 467.34375 218.210938 473.832031 210.210938 473.832031 C 202.207031 473.832031 195.722656 467.34375 195.722656 459.34375 C 195.722656 451.339844 202.207031 444.855469 210.210938 444.855469 C 218.210938 444.855469 224.699219 451.339844 224.699219 459.34375 Z M 81.171875 382.453125 "/>
</clipPath>
<clipPath id="clip48">
  <path d="M 81.171875 382.453125 L 308.546875 382.453125 L 308.546875 575.835938 L 81.171875 575.835938 Z M 81.171875 382.453125 L 193.996094 498.945312 C 193.996094 506.945312 187.511719 513.433594 179.507812 513.433594 C 171.507812 513.433594 165.019531 506.945312 165.019531 498.945312 C 165.019531 490.945312 171.507812 484.457031 179.507812 484.457031 C 187.511719 484.457031 193.996094 490.945312 193.996094 498.945312 Z M 81.171875 382.453125 "/>
</clipPath>
<clipPath id="clip49">
  <path d="M 54 190.835938 L 146 190.835938 L 146 295.207031 L 54 295.207031 Z M 54 190.835938 "/>
</clipPath>
<clipPath id="clip50">
  <path d="M -27.214844 190.835938 L 226.796875 190.835938 L 226.796875 295.207031 L -27.214844 295.207031 Z M -27.214844 190.835938 L 119.050781 273.816406 C 119.050781 281.820312 112.5625 288.308594 104.5625 288.308594 C 96.558594 288.308594 90.074219 281.820312 90.074219 273.816406 C 90.074219 265.816406 96.558594 259.328125 104.5625 259.328125 C 112.5625 259.328125 119.050781 265.816406 119.050781 273.816406 Z M -27.214844 190.835938 "/>
</clipPath>
<clipPath id="clip51">
  <path d="M -27.214844 190.835938 L 226.796875 190.835938 L 226.796875 295.207031 L -27.214844 295.207031 Z M -27.214844 190.835938 L 109.507812 212.226562 C 109.507812 220.226562 103.023438 226.714844 95.019531 226.714844 C 87.019531 226.714844 80.53125 220.226562 80.53125 212.226562 C 80.53125 204.226562 87.019531 197.738281 95.019531 197.738281 C 103.023438 197.738281 109.507812 204.226562 109.507812 212.226562 Z M -27.214844 190.835938 "/>
</clipPath>
<clipPath id="clip52">
  <path d="M 72.414062 232 L 200.15625 232 L 200.15625 331 L 72.414062 331 Z M 72.414062 232 "/>
</clipPath>
<clipPath id="clip53">
  <path d="M 72.414062 153.753906 L 200.15625 153.753906 L 200.15625 409.71875 L 72.414062 409.71875 Z M 72.414062 153.753906 L 119.050781 273.816406 C 119.050781 281.820312 112.5625 288.308594 104.5625 288.308594 C 96.558594 288.308594 90.074219 281.820312 90.074219 273.816406 C 90.074219 265.816406 96.558594 259.328125 104.5625 259.328125 C 112.5625 259.328125 119.050781 265.816406 119.050781 273.816406 Z M 72.414062 153.753906 "/>
</clipPath>
<clipPath id="clip54">
  <path d="M 72.414062 153.753906 L 200.15625 153.753906 L 200.15625 409.71875 L 72.414062 409.71875 Z M 72.414062 153.753906 L 182.496094 289.65625 C 182.496094 297.65625 176.011719 304.144531 168.007812 304.144531 C 160.007812 304.144531 153.519531 297.65625 153.519531 289.65625 C 153.519531 281.652344 160.007812 275.167969 168.007812 275.167969 C 176.011719 275.167969 182.496094 281.652344 182.496094 289.65625 Z M 72.414062 153.753906 "/>
</clipPath>
<clipPath id="clip55">
  <path d="M 0 171 L 136 171 L 136 286 L 0 286 Z M 0 171 "/>
</clipPath>
<clipPath id="clip56">
  <path d="M -24.691406 105.148438 L 158.992188 105.148438 L 158.992188 351.980469 L -24.691406 351.980469 Z M -24.691406 105.148438 L 109.507812 212.226562 C 109.507812 220.226562 103.023438 226.714844 95.019531 226.714844 C 87.019531 226.714844 80.53125 220.226562 80.53125 212.226562 C 80.53125 204.226562 87.019531 197.738281 95.019531 197.738281 C 103.023438 197.738281 109.507812 204.226562 109.507812 212.226562 Z M -24.691406 105.148438 "/>
</clipPath>
<clipPath id="clip57">
  <path d="M -24.691406 105.148438 L 158.992188 105.148438 L 158.992188 351.980469 L -24.691406 351.980469 Z M -24.691406 105.148438 L 53.769531 244.902344 C 53.769531 252.902344 47.28125 259.390625 39.28125 259.390625 C 31.277344 259.390625 24.792969 252.902344 24.792969 244.902344 C 24.792969 236.898438 31.277344 230.414062 39.28125 230.414062 C 47.28125 230.414062 53.769531 236.898438 53.769531 244.902344 Z M -24.691406 105.148438 "/>
</clipPath>
<clipPath id="clip58">
  <path d="M 54 120 L 157 120 L 157 254 L 54 254 Z M 54 120 "/>
</clipPath>
<clipPath id="clip59">
  <path d="M -19.433594 112.566406 L 230.414062 112.566406 L 230.414062 261.367188 L -19.433594 261.367188 Z M -19.433594 112.566406 L 109.507812 212.226562 C 109.507812 220.226562 103.023438 226.714844 95.019531 226.714844 C 87.019531 226.714844 80.53125 220.226562 80.53125 212.226562 C 80.53125 204.226562 87.019531 197.738281 95.019531 197.738281 C 103.023438 197.738281 109.507812 204.226562 109.507812 212.226562 Z M -19.433594 112.566406 "/>
</clipPath>
<clipPath id="clip60">
  <path d="M -19.433594 112.566406 L 230.414062 112.566406 L 230.414062 261.367188 L -19.433594 261.367188 Z M -19.433594 112.566406 L 130.449219 161.707031 C 130.449219 169.707031 123.964844 176.195312 115.960938 176.195312 C 107.960938 176.195312 101.472656 169.707031 101.472656 161.707031 C 101.472656 153.707031 107.960938 147.21875 115.960938 147.21875 C 123.964844 147.21875 130.449219 153.707031 130.449219 161.707031 Z M -19.433594 112.566406 "/>
</clipPath>
<clipPath id="clip61">
  <path d="M 54 119 L 214 119 L 214 254 L 54 254 Z M 54 119 "/>
</clipPath>
<clipPath id="clip62">
  <path d="M 24.984375 57.105469 L 242.570312 57.105469 L 242.570312 315.503906 L 24.984375 315.503906 Z M 24.984375 57.105469 L 109.507812 212.226562 C 109.507812 220.226562 103.023438 226.714844 95.019531 226.714844 C 87.019531 226.714844 80.53125 220.226562 80.53125 212.226562 C 80.53125 204.226562 87.019531 197.738281 95.019531 197.738281 C 103.023438 197.738281 109.507812 204.226562 109.507812 212.226562 Z M 24.984375 57.105469 "/>
</clipPath>
<clipPath id="clip63">
  <path d="M 24.984375 57.105469 L 242.570312 57.105469 L 242.570312 315.503906 L 24.984375 315.503906 Z M 24.984375 57.105469 L 187.023438 160.382812 C 187.023438 168.382812 180.535156 174.871094 172.535156 174.871094 C 164.535156 174.871094 158.046875 168.382812 158.046875 160.382812 C 158.046875 152.382812 164.535156 145.894531 172.535156 145.894531 C 180.535156 145.894531 187.023438 152.382812 187.023438 160.382812 Z M 24.984375 57.105469 "/>
</clipPath>
<clipPath id="clip64">
  <path d="M 110.238281 119 L 178.257812 119 L 178.257812 203 L 110.238281 203 Z M 110.238281 119 "/>
</clipPath>
<clipPath id="clip65">
  <path d="M 110.238281 36.757812 L 178.257812 36.757812 L 178.257812 285.332031 L 110.238281 285.332031 Z M 110.238281 36.757812 L 130.449219 161.707031 C 130.449219 169.707031 123.964844 176.195312 115.960938 176.195312 C 107.960938 176.195312 101.472656 169.707031 101.472656 161.707031 C 101.472656 153.707031 107.960938 147.21875 115.960938 147.21875 C 123.964844 147.21875 130.449219 153.707031 130.449219 161.707031 Z M 110.238281 36.757812 "/>
</clipPath>
<clipPath id="clip66">
  <path d="M 110.238281 36.757812 L 178.257812 36.757812 L 178.257812 285.332031 L 110.238281 285.332031 Z M 110.238281 36.757812 L 187.023438 160.382812 C 187.023438 168.382812 180.535156 174.871094 172.535156 174.871094 C 164.535156 174.871094 158.046875 168.382812 158.046875 160.382812 C 158.046875 152.382812 164.535156 145.894531 172.535156 145.894531 C 180.535156 145.894531 187.023438 152.382812 187.023438 160.382812 Z M 110.238281 36.757812 "/>
</clipPath>
<clipPath id="clip67">
  <path d="M 74 87 L 170 87 L 170 203 L 74 203 Z M 74 87 "/>
</clipPath>
<clipPath id="clip68">
  <path d="M 0.160156 82.765625 L 244.359375 82.765625 L 244.359375 207.457031 L 0.160156 207.457031 Z M 0.160156 82.765625 L 130.449219 161.707031 C 130.449219 169.707031 123.964844 176.195312 115.960938 176.195312 C 107.960938 176.195312 101.472656 169.707031 101.472656 161.707031 C 101.472656 153.707031 107.960938 147.21875 115.960938 147.21875 C 123.964844 147.21875 130.449219 153.707031 130.449219 161.707031 Z M 0.160156 82.765625 "/>
</clipPath>
<clipPath id="clip69">
  <path d="M 0.160156 82.765625 L 244.359375 82.765625 L 244.359375 207.457031 L 0.160156 207.457031 Z M 0.160156 82.765625 L 143.046875 128.515625 C 143.046875 136.515625 136.5625 143.003906 128.558594 143.003906 C 120.558594 143.003906 114.070312 136.515625 114.070312 128.515625 C 114.070312 120.511719 120.558594 114.027344 128.558594 114.027344 C 136.5625 114.027344 143.046875 120.511719 143.046875 128.515625 Z M 0.160156 82.765625 "/>
</clipPath>
<clipPath id="clip70">
  <path d="M 87 87 L 214 87 L 214 202 L 87 202 Z M 87 87 "/>
</clipPath>
<clipPath id="clip71">
  <path d="M 54.800781 27.832031 L 246.292969 27.832031 L 246.292969 261.066406 L 54.800781 261.066406 Z M 54.800781 27.832031 L 187.023438 160.382812 C 187.023438 168.382812 180.535156 174.871094 172.535156 174.871094 C 164.535156 174.871094 158.046875 168.382812 158.046875 160.382812 C 158.046875 152.382812 164.535156 145.894531 172.535156 145.894531 C 180.535156 145.894531 187.023438 152.382812 187.023438 160.382812 Z M 54.800781 27.832031 "/>
</clipPath>
<clipPath id="clip72">
  <path d="M 54.800781 27.832031 L 246.292969 27.832031 L 246.292969 261.066406 L 54.800781 261.066406 Z M 54.800781 27.832031 L 143.046875 128.515625 C 143.046875 136.515625 136.5625 143.003906 128.558594 143.003906 C 120.558594 143.003906 114.070312 136.515625 114.070312 128.515625 C 114.070312 120.511719 120.558594 114.027344 128.558594 114.027344 C 136.5625 114.027344 143.046875 120.511719 143.046875 128.515625 Z M 54.800781 27.832031 "/>
</clipPath>
<clipPath id="clip73">
  <path d="M 131 78.6875 L 220 78.6875 L 220 174.285156 L 131 174.285156 Z M 131 78.6875 "/>
</clipPath>
<clipPath id="clip74">
  <path d="M 49.378906 78.6875 L 301.894531 78.6875 L 301.894531 174.285156 L 49.378906 174.285156 Z M 49.378906 78.6875 L 187.023438 160.382812 C 187.023438 168.382812 180.535156 174.871094 172.535156 174.871094 C 164.535156 174.871094 158.046875 168.382812 158.046875 160.382812 C 158.046875 152.382812 164.535156 145.894531 172.535156 145.894531 C 180.535156 145.894531 187.023438 152.382812 187.023438 160.382812 Z M 49.378906 78.6875 "/>
</clipPath>
<clipPath id="clip75">
  <path d="M 49.378906 78.6875 L 301.894531 78.6875 L 301.894531 174.285156 L 49.378906 174.285156 Z M 49.378906 78.6875 L 193.226562 92.589844 C 193.226562 100.59375 186.738281 107.078125 178.738281 107.078125 C 170.734375 107.078125 164.25 100.59375 164.25 92.589844 C 164.25 84.589844 170.734375 78.101562 178.738281 78.101562 C 186.738281 78.101562 193.226562 84.589844 193.226562 92.589844 Z M 49.378906 78.6875 "/>
</clipPath>
<clipPath id="clip76">
  <path d="M 131 50 L 284 50 L 284 202 L 131 202 Z M 131 50 "/>
</clipPath>
<clipPath id="clip77">
  <path d="M 85.011719 2.328125 L 330.308594 2.328125 L 330.308594 249.433594 L 85.011719 249.433594 Z M 85.011719 2.328125 L 187.023438 160.382812 C 187.023438 168.382812 180.535156 174.871094 172.535156 174.871094 C 164.535156 174.871094 158.046875 168.382812 158.046875 160.382812 C 158.046875 152.382812 164.535156 145.894531 172.535156 145.894531 C 180.535156 145.894531 187.023438 152.382812 187.023438 160.382812 Z M 85.011719 2.328125 "/>
</clipPath>
<clipPath id="clip78">
  <path d="M 85.011719 2.328125 L 330.308594 2.328125 L 330.308594 249.433594 L 85.011719 249.433594 Z M 85.011719 2.328125 L 257.273438 91.378906 C 257.273438 99.378906 250.789062 105.867188 242.785156 105.867188 C 234.785156 105.867188 228.296875 99.378906 228.296875 91.378906 C 228.296875 83.375 234.785156 76.890625 242.785156 76.890625 C 250.789062 76.890625 257.273438 83.375 257.273438 91.378906 Z M 85.011719 2.328125 "/>
</clipPath>
<clipPath id="clip79">
  <path d="M 352 180.996094 L 440 180.996094 L 440 256.339844 L 352 256.339844 Z M 352 180.996094 "/>
</clipPath>
<clipPath id="clip80">
  <path d="M 270.71875 180.996094 L 521.34375 180.996094 L 521.34375 256.339844 L 270.71875 256.339844 Z M 270.71875 180.996094 L 412.613281 243.152344 C 412.613281 251.15625 406.125 257.640625 398.125 257.640625 C 390.121094 257.640625 383.636719 251.15625 383.636719 243.152344 C 383.636719 235.152344 390.121094 228.664062 398.125 228.664062 C 406.125 228.664062 412.613281 235.152344 412.613281 243.152344 Z M 270.71875 180.996094 "/>
</clipPath>
<clipPath id="clip81">
  <path d="M 270.71875 180.996094 L 521.34375 180.996094 L 521.34375 256.339844 L 270.71875 256.339844 Z M 270.71875 180.996094 L 408.425781 194.183594 C 408.425781 202.1875 401.9375 208.671875 393.9375 208.671875 C 385.933594 208.671875 379.449219 202.1875 379.449219 194.183594 C 379.449219 186.183594 385.933594 179.695312 393.9375 179.695312 C 401.9375 179.695312 408.425781 186.183594 408.425781 194.183594 Z M 270.71875 180.996094 "/>
</clipPath>
<clipPath id="clip82">
  <path d="M 446 55 L 555 55 L 555 172 L 446 172 Z M 446 55 "/>
</clipPath>
<clipPath id="clip83">
  <path d="M 388.644531 20.175781 L 612.054688 20.175781 L 612.054688 206.335938 L 388.644531 206.335938 Z M 388.644531 20.175781 L 501.964844 96.417969 C 501.964844 104.421875 495.476562 110.90625 487.476562 110.90625 C 479.472656 110.90625 472.988281 104.421875 472.988281 96.417969 C 472.988281 88.417969 479.472656 81.929688 487.476562 81.929688 C 495.476562 81.929688 501.964844 88.417969 501.964844 96.417969 Z M 388.644531 20.175781 "/>
</clipPath>
<clipPath id="clip84">
  <path d="M 388.644531 20.175781 L 612.054688 20.175781 L 612.054688 206.335938 L 388.644531 206.335938 Z M 388.644531 20.175781 L 527.710938 130.09375 C 527.710938 138.09375 521.226562 144.582031 513.222656 144.582031 C 505.222656 144.582031 498.734375 138.09375 498.734375 130.09375 C 498.734375 122.089844 505.222656 115.605469 513.222656 115.605469 C 521.226562 115.605469 527.710938 122.089844 527.710938 130.09375 Z M 388.644531 20.175781 "/>
</clipPath>
<clipPath id="clip85">
  <path d="M 497 165.3125 L 586 165.3125 L 586 250.484375 L 497 250.484375 Z M 497 165.3125 "/>
</clipPath>
<clipPath id="clip86">
  <path d="M 415.707031 165.3125 L 667.292969 165.3125 L 667.292969 250.484375 L 415.707031 250.484375 Z M 415.707031 165.3125 L 553.332031 179.429688 C 553.332031 187.429688 546.847656 193.917969 538.84375 193.917969 C 530.84375 193.917969 524.355469 187.429688 524.355469 179.429688 C 524.355469 171.425781 530.84375 164.941406 538.84375 164.941406 C 546.847656 164.941406 553.332031 171.425781 553.332031 179.429688 Z M 415.707031 165.3125 "/>
</clipPath>
<clipPath id="clip87">
  <path d="M 415.707031 165.3125 L 667.292969 165.3125 L 667.292969 250.484375 L 415.707031 250.484375 Z M 415.707031 165.3125 L 558.644531 236.367188 C 558.644531 244.371094 552.15625 250.855469 544.15625 250.855469 C 536.152344 250.855469 529.667969 244.371094 529.667969 236.367188 C 529.667969 228.367188 536.152344 221.878906 544.15625 221.878906 C 552.15625 221.878906 558.644531 228.367188 558.644531 236.367188 Z M 415.707031 165.3125 "/>
</clipPath>
<clipPath id="clip88">
  <path d="M 472 89 L 580 89 L 580 221 L 472 221 Z M 472 89 "/>
</clipPath>
<clipPath id="clip89">
  <path d="M 403.152344 71.539062 L 648.914062 71.539062 L 648.914062 237.984375 L 403.152344 237.984375 Z M 403.152344 71.539062 L 553.332031 179.429688 C 553.332031 187.429688 546.847656 193.917969 538.84375 193.917969 C 530.84375 193.917969 524.355469 187.429688 524.355469 179.429688 C 524.355469 171.425781 530.84375 164.941406 538.84375 164.941406 C 546.847656 164.941406 553.332031 171.425781 553.332031 179.429688 Z M 403.152344 71.539062 "/>
</clipPath>
<clipPath id="clip90">
  <path d="M 403.152344 71.539062 L 648.914062 71.539062 L 648.914062 237.984375 L 403.152344 237.984375 Z M 403.152344 71.539062 L 527.710938 130.09375 C 527.710938 138.09375 521.226562 144.582031 513.222656 144.582031 C 505.222656 144.582031 498.734375 138.09375 498.734375 130.09375 C 498.734375 122.089844 505.222656 115.605469 513.222656 115.605469 C 521.226562 115.605469 527.710938 122.089844 527.710938 130.09375 Z M 403.152344 71.539062 "/>
</clipPath>
<clipPath id="clip91">
  <path d="M 471 250 L 600 250 L 600 364 L 471 364 Z M 471 250 "/>
</clipPath>
<clipPath id="clip92">
  <path d="M 444.359375 186.808594 L 628.609375 186.808594 L 628.609375 427.117188 L 444.359375 427.117188 Z M 444.359375 186.808594 L 575.207031 322.4375 C 575.207031 330.441406 568.722656 336.925781 560.71875 336.925781 C 552.71875 336.925781 546.230469 330.441406 546.230469 322.4375 C 546.230469 314.4375 552.71875 307.949219 560.71875 307.949219 C 568.722656 307.949219 575.207031 314.4375 575.207031 322.4375 Z M 444.359375 186.808594 "/>
</clipPath>
<clipPath id="clip93">
  <path d="M 444.359375 186.808594 L 628.609375 186.808594 L 628.609375 427.117188 L 444.359375 427.117188 Z M 444.359375 186.808594 L 526.738281 291.488281 C 526.738281 299.488281 520.253906 305.976562 512.25 305.976562 C 504.25 305.976562 497.761719 299.488281 497.761719 291.488281 C 497.761719 283.484375 504.25 277 512.25 277 C 520.253906 277 526.738281 283.484375 526.738281 291.488281 Z M 444.359375 186.808594 "/>
</clipPath>
<clipPath id="clip94">
  <path d="M 471 195 L 586 195 L 586 333 L 471 333 Z M 471 195 "/>
</clipPath>
<clipPath id="clip95">
  <path d="M 404.835938 172.972656 L 651.570312 172.972656 L 651.570312 354.882812 L 404.835938 354.882812 Z M 404.835938 172.972656 L 558.644531 236.367188 C 558.644531 244.371094 552.15625 250.855469 544.15625 250.855469 C 536.152344 250.855469 529.667969 244.371094 529.667969 236.367188 C 529.667969 228.367188 536.152344 221.878906 544.15625 221.878906 C 552.15625 221.878906 558.644531 228.367188 558.644531 236.367188 Z M 404.835938 172.972656 "/>
</clipPath>
<clipPath id="clip96">
  <path d="M 404.835938 172.972656 L 651.570312 172.972656 L 651.570312 354.882812 L 404.835938 354.882812 Z M 404.835938 172.972656 L 526.738281 291.488281 C 526.738281 299.488281 520.253906 305.976562 512.25 305.976562 C 504.25 305.976562 497.761719 299.488281 497.761719 291.488281 C 497.761719 283.484375 504.25 277 512.25 277 C 520.253906 277 526.738281 283.484375 526.738281 291.488281 Z M 404.835938 172.972656 "/>
</clipPath>
<clipPath id="clip97">
  <path d="M 250.714844 517 L 341.925781 517 L 341.925781 600 L 250.714844 600 Z M 250.714844 517 "/>
</clipPath>
<clipPath id="clip98">
  <path d="M 250.714844 436.667969 L 341.925781 436.667969 L 341.925781 687.152344 L 250.714844 687.152344 Z M 250.714844 436.667969 L 330.371094 558.089844 C 330.371094 566.089844 323.882812 572.578125 315.882812 572.578125 C 307.882812 572.578125 301.394531 566.089844 301.394531 558.089844 C 301.394531 550.089844 307.882812 543.601562 315.882812 543.601562 C 323.882812 543.601562 330.371094 550.089844 330.371094 558.089844 Z M 250.714844 436.667969 "/>
</clipPath>
<clipPath id="clip99">
  <path d="M 250.714844 436.667969 L 341.925781 436.667969 L 341.925781 687.152344 L 250.714844 687.152344 Z M 250.714844 436.667969 L 291.246094 565.730469 C 291.246094 573.730469 284.757812 580.21875 276.757812 580.21875 C 268.757812 580.21875 262.269531 573.730469 262.269531 565.730469 C 262.269531 557.730469 268.757812 551.242188 276.757812 551.242188 C 284.757812 551.242188 291.246094 557.730469 291.246094 565.730469 Z M 250.714844 436.667969 "/>
</clipPath>
<clipPath id="clip100">
  <path d="M 274 488 L 389 488 L 389 600 L 274 600 Z M 274 488 "/>
</clipPath>
<clipPath id="clip101">
  <path d="M 231.234375 437.246094 L 432.128906 437.246094 L 432.128906 649.871094 L 231.234375 649.871094 Z M 231.234375 437.246094 L 330.371094 558.089844 C 330.371094 566.089844 323.882812 572.578125 315.882812 572.578125 C 307.882812 572.578125 301.394531 566.089844 301.394531 558.089844 C 301.394531 550.089844 307.882812 543.601562 315.882812 543.601562 C 323.882812 543.601562 330.371094 550.089844 330.371094 558.089844 Z M 231.234375 437.246094 "/>
</clipPath>
<clipPath id="clip102">
  <path d="M 231.234375 437.246094 L 432.128906 437.246094 L 432.128906 649.871094 L 231.234375 649.871094 Z M 231.234375 437.246094 L 361.96875 529.027344 C 361.96875 537.03125 355.480469 543.515625 347.480469 543.515625 C 339.476562 543.515625 332.992188 537.03125 332.992188 529.027344 C 332.992188 521.027344 339.476562 514.539062 347.480469 514.539062 C 355.480469 514.539062 361.96875 521.027344 361.96875 529.027344 Z M 231.234375 437.246094 "/>
</clipPath>
<clipPath id="clip103">
  <path d="M 327.457031 0 L 383.871094 0 L 383.871094 78 L 327.457031 78 Z M 327.457031 0 "/>
</clipPath>
<clipPath id="clip104">
  <path d="M 327.457031 -89.214844 L 383.871094 -89.214844 L 383.871094 159.78125 L 327.457031 159.78125 Z M 327.457031 -89.214844 L 388.960938 34.269531 C 388.960938 42.269531 382.476562 48.757812 374.472656 48.757812 C 366.472656 48.757812 359.984375 42.269531 359.984375 34.269531 C 359.984375 26.269531 366.472656 19.78125 374.472656 19.78125 C 382.476562 19.78125 388.960938 26.269531 388.960938 34.269531 Z M 327.457031 -89.214844 "/>
</clipPath>
<clipPath id="clip105">
  <path d="M 327.457031 -89.214844 L 383.871094 -89.214844 L 383.871094 159.78125 L 327.457031 159.78125 Z M 327.457031 -89.214844 L 351.34375 36.296875 C 351.34375 44.296875 344.855469 50.785156 336.855469 50.785156 C 328.851562 50.785156 322.367188 44.296875 322.367188 36.296875 C 322.367188 28.292969 328.851562 21.808594 336.855469 21.808594 C 344.855469 21.808594 351.34375 28.292969 351.34375 36.296875 Z M 327.457031 -89.214844 "/>
</clipPath>
<clipPath id="clip106">
  <path d="M 249.722656 0 L 377.332031 0 L 377.332031 93 L 249.722656 93 Z M 249.722656 0 "/>
</clipPath>
<clipPath id="clip107">
  <path d="M 249.722656 -81.367188 L 377.332031 -81.367188 L 377.332031 169.238281 L 249.722656 169.238281 Z M 249.722656 -81.367188 L 351.34375 36.296875 C 351.34375 44.296875 344.855469 50.785156 336.855469 50.785156 C 328.851562 50.785156 322.367188 44.296875 322.367188 36.296875 C 322.367188 28.292969 328.851562 21.808594 336.855469 21.808594 C 344.855469 21.808594 351.34375 28.292969 351.34375 36.296875 Z M 249.722656 -81.367188 "/>
</clipPath>
<clipPath id="clip108">
  <path d="M 249.722656 -81.367188 L 377.332031 -81.367188 L 377.332031 169.238281 L 249.722656 169.238281 Z M 249.722656 -81.367188 L 304.6875 51.574219 C 304.6875 59.574219 298.199219 66.0625 290.199219 66.0625 C 282.195312 66.0625 275.710938 59.574219 275.710938 51.574219 C 275.710938 43.570312 282.195312 37.085938 290.199219 37.085938 C 298.199219 37.085938 304.6875 43.570312 304.6875 51.574219 Z M 249.722656 -81.367188 "/>
</clipPath>
<clipPath id="clip109">
  <path d="M 201 10 L 332 10 L 332 133 L 201 133 Z M 201 10 "/>
</clipPath>
<clipPath id="clip110">
  <path d="M 162.242188 -43.8125 L 370.742188 -43.8125 L 370.742188 186.765625 L 162.242188 186.765625 Z M 162.242188 -43.8125 L 257.273438 91.378906 C 257.273438 99.378906 250.789062 105.867188 242.785156 105.867188 C 234.785156 105.867188 228.296875 99.378906 228.296875 91.378906 C 228.296875 83.375 234.785156 76.890625 242.785156 76.890625 C 250.789062 76.890625 257.273438 83.375 257.273438 91.378906 Z M 162.242188 -43.8125 "/>
</clipPath>
<clipPath id="clip111">
  <path d="M 162.242188 -43.8125 L 370.742188 -43.8125 L 370.742188 186.765625 L 162.242188 186.765625 Z M 162.242188 -43.8125 L 304.6875 51.574219 C 304.6875 59.574219 298.199219 66.0625 290.199219 66.0625 C 282.195312 66.0625 275.710938 59.574219 275.710938 51.574219 C 275.710938 43.570312 282.195312 37.085938 290.199219 37.085938 C 298.199219 37.085938 304.6875 43.570312 304.6875 51.574219 Z M 162.242188 -43.8125 "/>
</clipPath>
</defs>
<g id="surface756">
<g clip-path="url(#clip1)" clip-rule="nonzero">
<g clip-path="url(#clip2)" clip-rule="evenodd">
<g clip-path="url(#clip3)" clip-rule="evenodd">
<path style="fill:none;stroke-width:0.0239952;stroke-linecap:butt;stroke-linejoin:miter;stroke:rgb(17.96875%,20.3125%,21.09375%);stroke-opacity:0.8;stroke-miterlimit:10;" d="M 2.025322 3.569457 L 2.532297 2.753502 " transform="matrix(120.760551,0,0,120.760551,-66.145362,-48.127721)"/>
</g>
</g>
</g>
<g clip-path="url(#clip4)" clip-rule="nonzero">
<g clip-path="url(#clip5)" clip-rule="evenodd">
<g clip-path="url(#clip6)" clip-rule="evenodd">
<path style="fill:none;stroke-width:0.0239952;stroke-linecap:butt;stroke-linejoin:miter;stroke:rgb(17.96875%,20.3125%,21.09375%);stroke-opacity:0.8;stroke-miterlimit:10;" d="M 2.025322 3.569457 L 2.288465 4.202295 " transform="matrix(120.760551,0,0,120.760551,-66.145362,-48.127721)"/>
</g>
</g>
</g>
<g clip-path="url(#clip7)" clip-rule="nonzero">
<g clip-path="url(#clip8)" clip-rule="evenodd">
<g clip-path="url(#clip9)" clip-rule="evenodd">
<path style="fill:none;stroke-width:0.0239952;stroke-linecap:butt;stroke-linejoin:miter;stroke:rgb(17.96875%,20.3125%,21.09375%);stroke-opacity:0.8;stroke-miterlimit:10;" d="M 2.025322 3.569457 L 1.408754 3.686198 " transform="matrix(120.760551,0,0,120.760551,-66.145362,-48.127721)"/>
</g>
</g>
</g>
<g clip-path="url(#clip10)" clip-rule="nonzero">
<g clip-path="url(#clip11)" clip-rule="evenodd">
<g clip-path="url(#clip12)" clip-rule="evenodd">
<path style="fill:none;stroke-width:0.0239952;stroke-linecap:butt;stroke-linejoin:miter;stroke:rgb(17.96875%,20.3125%,21.09375%);stroke-opacity:0.8;stroke-miterlimit:10;" d="M 3.910962 2.911518 L 4.490945 3.498164 " transform="matrix(120.760551,0,0,120.760551,-66.145362,-48.127721)"/>
</g>
</g>
</g>
<g clip-path="url(#clip13)" clip-rule="nonzero">
<g clip-path="url(#clip14)" clip-rule="evenodd">
<g clip-path="url(#clip15)" clip-rule="evenodd">
<path style="fill:none;stroke-width:0.0239952;stroke-linecap:butt;stroke-linejoin:miter;stroke:rgb(17.96875%,20.3125%,21.09375%);stroke-opacity:0.8;stroke-miterlimit:10;" d="M 3.910962 2.911518 L 2.532297 2.753502 " transform="matrix(120.760551,0,0,120.760551,-66.145362,-48.127721)"/>
</g>
</g>
</g>
<g clip-path="url(#clip16)" clip-rule="nonzero">
<g clip-path="url(#clip17)" clip-rule="evenodd">
<g clip-path="url(#clip18)" clip-rule="evenodd">
<path style="fill:none;stroke-width:0.0239952;stroke-linecap:butt;stroke-linejoin:miter;stroke:rgb(17.96875%,20.3125%,21.09375%);stroke-opacity:0.8;stroke-miterlimit:10;" d="M 3.910962 2.911518 L 3.844553 2.412047 " transform="matrix(120.760551,0,0,120.760551,-66.145362,-48.127721)"/>
</g>
</g>
</g>
<g clip-path="url(#clip19)" clip-rule="nonzero">
<g clip-path="url(#clip20)" clip-rule="evenodd">
<g clip-path="url(#clip21)" clip-rule="evenodd">
<path style="fill:none;stroke-width:0.0239952;stroke-linecap:butt;stroke-linejoin:miter;stroke:rgb(17.96875%,20.3125%,21.09375%);stroke-opacity:0.8;stroke-miterlimit:10;" d="M 3.910962 2.911518 L 4.789605 2.812309 " transform="matrix(120.760551,0,0,120.760551,-66.145362,-48.127721)"/>
</g>
</g>
</g>
<g clip-path="url(#clip22)" clip-rule="nonzero">
<g clip-path="url(#clip23)" clip-rule="evenodd">
<g clip-path="url(#clip24)" clip-rule="evenodd">
<path style="fill:none;stroke-width:0.0239952;stroke-linecap:butt;stroke-linejoin:miter;stroke:rgb(17.96875%,20.3125%,21.09375%);stroke-opacity:0.8;stroke-miterlimit:10;" d="M 4.854235 3.839038 L 4.490945 3.498164 " transform="matrix(120.760551,0,0,120.760551,-66.145362,-48.127721)"/>
</g>
</g>
</g>
<g clip-path="url(#clip25)" clip-rule="nonzero">
<g clip-path="url(#clip26)" clip-rule="evenodd">
<g clip-path="url(#clip27)" clip-rule="evenodd">
<path style="fill:none;stroke-width:0.0239952;stroke-linecap:butt;stroke-linejoin:miter;stroke:rgb(17.96875%,20.3125%,21.09375%);stroke-opacity:0.8;stroke-miterlimit:10;" d="M 2.532297 2.753502 L 1.976478 1.726644 " transform="matrix(120.760551,0,0,120.760551,-66.145362,-48.127721)"/>
</g>
</g>
</g>
<g clip-path="url(#clip28)" clip-rule="nonzero">
<g clip-path="url(#clip29)" clip-rule="evenodd">
<g clip-path="url(#clip30)" clip-rule="evenodd">
<path style="fill:none;stroke-width:0.0239952;stroke-linecap:butt;stroke-linejoin:miter;stroke:rgb(17.96875%,20.3125%,21.09375%);stroke-opacity:0.8;stroke-miterlimit:10;" d="M 2.532297 2.753502 L 1.938987 2.797138 " transform="matrix(120.760551,0,0,120.760551,-66.145362,-48.127721)"/>
</g>
</g>
</g>
<g clip-path="url(#clip31)" clip-rule="nonzero">
<g clip-path="url(#clip32)" clip-rule="evenodd">
<g clip-path="url(#clip33)" clip-rule="evenodd">
<path style="fill:none;stroke-width:0.0239952;stroke-linecap:butt;stroke-linejoin:miter;stroke:rgb(17.96875%,20.3125%,21.09375%);stroke-opacity:0.8;stroke-miterlimit:10;" d="M 3.373677 4.380916 L 2.288465 4.202295 " transform="matrix(120.760551,0,0,120.760551,-66.145362,-48.127721)"/>
</g>
</g>
</g>
<g clip-path="url(#clip34)" clip-rule="nonzero">
<g clip-path="url(#clip35)" clip-rule="evenodd">
<g clip-path="url(#clip36)" clip-rule="evenodd">
<path style="fill:none;stroke-width:0.0239952;stroke-linecap:butt;stroke-linejoin:miter;stroke:rgb(17.96875%,20.3125%,21.09375%);stroke-opacity:0.8;stroke-miterlimit:10;" d="M 3.373677 4.380916 L 4.032813 4.547438 " transform="matrix(120.760551,0,0,120.760551,-66.145362,-48.127721)"/>
</g>
</g>
</g>
<g clip-path="url(#clip37)" clip-rule="nonzero">
<g clip-path="url(#clip38)" clip-rule="evenodd">
<g clip-path="url(#clip39)" clip-rule="evenodd">
<path style="fill:none;stroke-width:0.0239952;stroke-linecap:butt;stroke-linejoin:miter;stroke:rgb(17.96875%,20.3125%,21.09375%);stroke-opacity:0.8;stroke-miterlimit:10;" d="M 3.373677 4.380916 L 3.750326 4.181205 " transform="matrix(120.760551,0,0,120.760551,-66.145362,-48.127721)"/>
</g>
</g>
</g>
<g clip-path="url(#clip40)" clip-rule="nonzero">
<g clip-path="url(#clip41)" clip-rule="evenodd">
<g clip-path="url(#clip42)" clip-rule="evenodd">
<path style="fill:none;stroke-width:0.0239952;stroke-linecap:butt;stroke-linejoin:miter;stroke:rgb(17.96875%,20.3125%,21.09375%);stroke-opacity:0.8;stroke-miterlimit:10;" d="M 3.373677 4.380916 L 3.425173 4.779334 " transform="matrix(120.760551,0,0,120.760551,-66.145362,-48.127721)"/>
</g>
</g>
</g>
<g clip-path="url(#clip43)" clip-rule="nonzero">
<g clip-path="url(#clip44)" clip-rule="evenodd">
<g clip-path="url(#clip45)" clip-rule="evenodd">
<path style="fill:none;stroke-width:0.0239952;stroke-linecap:butt;stroke-linejoin:miter;stroke:rgb(17.96875%,20.3125%,21.09375%);stroke-opacity:0.8;stroke-miterlimit:10;" d="M 2.288465 4.202295 L 1.720742 4.308232 " transform="matrix(120.760551,0,0,120.760551,-66.145362,-48.127721)"/>
</g>
</g>
</g>
<g clip-path="url(#clip46)" clip-rule="nonzero">
<g clip-path="url(#clip47)" clip-rule="evenodd">
<g clip-path="url(#clip48)" clip-rule="evenodd">
<path style="fill:none;stroke-width:0.0239952;stroke-linecap:butt;stroke-linejoin:miter;stroke:rgb(17.96875%,20.3125%,21.09375%);stroke-opacity:0.8;stroke-miterlimit:10;" d="M 2.288465 4.202295 L 2.034217 4.53023 " transform="matrix(120.760551,0,0,120.760551,-66.145362,-48.127721)"/>
</g>
</g>
</g>
<g clip-path="url(#clip49)" clip-rule="nonzero">
<g clip-path="url(#clip50)" clip-rule="evenodd">
<g clip-path="url(#clip51)" clip-rule="evenodd">
<path style="fill:none;stroke-width:0.0239952;stroke-linecap:butt;stroke-linejoin:miter;stroke:rgb(17.96875%,20.3125%,21.09375%);stroke-opacity:0.8;stroke-miterlimit:10;" d="M 1.413606 2.665971 L 1.334582 2.155955 " transform="matrix(120.760551,0,0,120.760551,-66.145362,-48.127721)"/>
</g>
</g>
</g>
<g clip-path="url(#clip52)" clip-rule="nonzero">
<g clip-path="url(#clip53)" clip-rule="evenodd">
<g clip-path="url(#clip54)" clip-rule="evenodd">
<path style="fill:none;stroke-width:0.0239952;stroke-linecap:butt;stroke-linejoin:miter;stroke:rgb(17.96875%,20.3125%,21.09375%);stroke-opacity:0.8;stroke-miterlimit:10;" d="M 1.413606 2.665971 L 1.938987 2.797138 " transform="matrix(120.760551,0,0,120.760551,-66.145362,-48.127721)"/>
</g>
</g>
</g>
<g clip-path="url(#clip55)" clip-rule="nonzero">
<g clip-path="url(#clip56)" clip-rule="evenodd">
<g clip-path="url(#clip57)" clip-rule="evenodd">
<path style="fill:none;stroke-width:0.0239952;stroke-linecap:butt;stroke-linejoin:miter;stroke:rgb(17.96875%,20.3125%,21.09375%);stroke-opacity:0.8;stroke-miterlimit:10;" d="M 1.334582 2.155955 L 0.873022 2.426538 " transform="matrix(120.760551,0,0,120.760551,-66.145362,-48.127721)"/>
</g>
</g>
</g>
<g clip-path="url(#clip58)" clip-rule="nonzero">
<g clip-path="url(#clip59)" clip-rule="evenodd">
<g clip-path="url(#clip60)" clip-rule="evenodd">
<path style="fill:none;stroke-width:0.0239952;stroke-linecap:butt;stroke-linejoin:miter;stroke:rgb(17.96875%,20.3125%,21.09375%);stroke-opacity:0.8;stroke-miterlimit:10;" d="M 1.334582 2.155955 L 1.507995 1.73761 " transform="matrix(120.760551,0,0,120.760551,-66.145362,-48.127721)"/>
</g>
</g>
</g>
<g clip-path="url(#clip61)" clip-rule="nonzero">
<g clip-path="url(#clip62)" clip-rule="evenodd">
<g clip-path="url(#clip63)" clip-rule="evenodd">
<path style="fill:none;stroke-width:0.0239952;stroke-linecap:butt;stroke-linejoin:miter;stroke:rgb(17.96875%,20.3125%,21.09375%);stroke-opacity:0.8;stroke-miterlimit:10;" d="M 1.334582 2.155955 L 1.976478 1.726644 " transform="matrix(120.760551,0,0,120.760551,-66.145362,-48.127721)"/>
</g>
</g>
</g>
<g clip-path="url(#clip64)" clip-rule="nonzero">
<g clip-path="url(#clip65)" clip-rule="evenodd">
<g clip-path="url(#clip66)" clip-rule="evenodd">
<path style="fill:none;stroke-width:0.0239952;stroke-linecap:butt;stroke-linejoin:miter;stroke:rgb(17.96875%,20.3125%,21.09375%);stroke-opacity:0.8;stroke-miterlimit:10;" d="M 1.507995 1.73761 L 1.976478 1.726644 " transform="matrix(120.760551,0,0,120.760551,-66.145362,-48.127721)"/>
</g>
</g>
</g>
<g clip-path="url(#clip67)" clip-rule="nonzero">
<g clip-path="url(#clip68)" clip-rule="evenodd">
<g clip-path="url(#clip69)" clip-rule="evenodd">
<path style="fill:none;stroke-width:0.0239952;stroke-linecap:butt;stroke-linejoin:miter;stroke:rgb(17.96875%,20.3125%,21.09375%);stroke-opacity:0.8;stroke-miterlimit:10;" d="M 1.507995 1.73761 L 1.612314 1.462757 " transform="matrix(120.760551,0,0,120.760551,-66.145362,-48.127721)"/>
</g>
</g>
</g>
<g clip-path="url(#clip70)" clip-rule="nonzero">
<g clip-path="url(#clip71)" clip-rule="evenodd">
<g clip-path="url(#clip72)" clip-rule="evenodd">
<path style="fill:none;stroke-width:0.0239952;stroke-linecap:butt;stroke-linejoin:miter;stroke:rgb(17.96875%,20.3125%,21.09375%);stroke-opacity:0.8;stroke-miterlimit:10;" d="M 1.976478 1.726644 L 1.612314 1.462757 " transform="matrix(120.760551,0,0,120.760551,-66.145362,-48.127721)"/>
</g>
</g>
</g>
<g clip-path="url(#clip73)" clip-rule="nonzero">
<g clip-path="url(#clip74)" clip-rule="evenodd">
<g clip-path="url(#clip75)" clip-rule="evenodd">
<path style="fill:none;stroke-width:0.0239952;stroke-linecap:butt;stroke-linejoin:miter;stroke:rgb(17.96875%,20.3125%,21.09375%);stroke-opacity:0.8;stroke-miterlimit:10;" d="M 1.976478 1.726644 L 2.027845 1.165261 " transform="matrix(120.760551,0,0,120.760551,-66.145362,-48.127721)"/>
</g>
</g>
</g>
<g clip-path="url(#clip76)" clip-rule="nonzero">
<g clip-path="url(#clip77)" clip-rule="evenodd">
<g clip-path="url(#clip78)" clip-rule="evenodd">
<path style="fill:none;stroke-width:0.0239952;stroke-linecap:butt;stroke-linejoin:miter;stroke:rgb(17.96875%,20.3125%,21.09375%);stroke-opacity:0.8;stroke-miterlimit:10;" d="M 1.976478 1.726644 L 2.558207 1.155233 " transform="matrix(120.760551,0,0,120.760551,-66.145362,-48.127721)"/>
</g>
</g>
</g>
<g clip-path="url(#clip79)" clip-rule="nonzero">
<g clip-path="url(#clip80)" clip-rule="evenodd">
<g clip-path="url(#clip81)" clip-rule="evenodd">
<path style="fill:none;stroke-width:0.0239952;stroke-linecap:butt;stroke-linejoin:miter;stroke:rgb(17.96875%,20.3125%,21.09375%);stroke-opacity:0.8;stroke-miterlimit:10;" d="M 3.844553 2.412047 L 3.809877 2.006544 " transform="matrix(120.760551,0,0,120.760551,-66.145362,-48.127721)"/>
</g>
</g>
</g>
<g clip-path="url(#clip82)" clip-rule="nonzero">
<g clip-path="url(#clip83)" clip-rule="evenodd">
<g clip-path="url(#clip84)" clip-rule="evenodd">
<path style="fill:none;stroke-width:0.0239952;stroke-linecap:butt;stroke-linejoin:miter;stroke:rgb(17.96875%,20.3125%,21.09375%);stroke-opacity:0.8;stroke-miterlimit:10;" d="M 4.58446 1.196961 L 4.79766 1.475825 " transform="matrix(120.760551,0,0,120.760551,-66.145362,-48.127721)"/>
</g>
</g>
</g>
<g clip-path="url(#clip85)" clip-rule="nonzero">
<g clip-path="url(#clip86)" clip-rule="evenodd">
<g clip-path="url(#clip87)" clip-rule="evenodd">
<path style="fill:none;stroke-width:0.0239952;stroke-linecap:butt;stroke-linejoin:miter;stroke:rgb(17.96875%,20.3125%,21.09375%);stroke-opacity:0.8;stroke-miterlimit:10;" d="M 5.009824 1.884369 L 5.053816 2.35586 " transform="matrix(120.760551,0,0,120.760551,-66.145362,-48.127721)"/>
</g>
</g>
</g>
<g clip-path="url(#clip88)" clip-rule="nonzero">
<g clip-path="url(#clip89)" clip-rule="evenodd">
<g clip-path="url(#clip90)" clip-rule="evenodd">
<path style="fill:none;stroke-width:0.0239952;stroke-linecap:butt;stroke-linejoin:miter;stroke:rgb(17.96875%,20.3125%,21.09375%);stroke-opacity:0.8;stroke-miterlimit:10;" d="M 5.009824 1.884369 L 4.79766 1.475825 " transform="matrix(120.760551,0,0,120.760551,-66.145362,-48.127721)"/>
</g>
</g>
</g>
<g clip-path="url(#clip91)" clip-rule="nonzero">
<g clip-path="url(#clip92)" clip-rule="evenodd">
<g clip-path="url(#clip93)" clip-rule="evenodd">
<path style="fill:none;stroke-width:0.0239952;stroke-linecap:butt;stroke-linejoin:miter;stroke:rgb(17.96875%,20.3125%,21.09375%);stroke-opacity:0.8;stroke-miterlimit:10;" d="M 5.190968 3.068595 L 4.789605 2.812309 " transform="matrix(120.760551,0,0,120.760551,-66.145362,-48.127721)"/>
</g>
</g>
</g>
<g clip-path="url(#clip94)" clip-rule="nonzero">
<g clip-path="url(#clip95)" clip-rule="evenodd">
<g clip-path="url(#clip96)" clip-rule="evenodd">
<path style="fill:none;stroke-width:0.0239952;stroke-linecap:butt;stroke-linejoin:miter;stroke:rgb(17.96875%,20.3125%,21.09375%);stroke-opacity:0.8;stroke-miterlimit:10;" d="M 5.053816 2.35586 L 4.789605 2.812309 " transform="matrix(120.760551,0,0,120.760551,-66.145362,-48.127721)"/>
</g>
</g>
</g>
<g clip-path="url(#clip97)" clip-rule="nonzero">
<g clip-path="url(#clip98)" clip-rule="evenodd">
<g clip-path="url(#clip99)" clip-rule="evenodd">
<path style="fill:none;stroke-width:0.0239952;stroke-linecap:butt;stroke-linejoin:miter;stroke:rgb(17.96875%,20.3125%,21.09375%);stroke-opacity:0.8;stroke-miterlimit:10;" d="M 3.163518 5.019997 L 2.83953 5.083268 " transform="matrix(120.760551,0,0,120.760551,-66.145362,-48.127721)"/>
</g>
</g>
</g>
<g clip-path="url(#clip100)" clip-rule="nonzero">
<g clip-path="url(#clip101)" clip-rule="evenodd">
<g clip-path="url(#clip102)" clip-rule="evenodd">
<path style="fill:none;stroke-width:0.0239952;stroke-linecap:butt;stroke-linejoin:miter;stroke:rgb(17.96875%,20.3125%,21.09375%);stroke-opacity:0.8;stroke-miterlimit:10;" d="M 3.163518 5.019997 L 3.425173 4.779334 " transform="matrix(120.760551,0,0,120.760551,-66.145362,-48.127721)"/>
</g>
</g>
</g>
<g clip-path="url(#clip103)" clip-rule="nonzero">
<g clip-path="url(#clip104)" clip-rule="evenodd">
<g clip-path="url(#clip105)" clip-rule="evenodd">
<path style="fill:none;stroke-width:0.0239952;stroke-linecap:butt;stroke-linejoin:miter;stroke:rgb(17.96875%,20.3125%,21.09375%);stroke-opacity:0.8;stroke-miterlimit:10;" d="M 3.648692 0.682319 L 3.337189 0.699107 " transform="matrix(120.760551,0,0,120.760551,-66.145362,-48.127721)"/>
</g>
</g>
</g>
<g clip-path="url(#clip106)" clip-rule="nonzero">
<g clip-path="url(#clip107)" clip-rule="evenodd">
<g clip-path="url(#clip108)" clip-rule="evenodd">
<path style="fill:none;stroke-width:0.0239952;stroke-linecap:butt;stroke-linejoin:miter;stroke:rgb(17.96875%,20.3125%,21.09375%);stroke-opacity:0.8;stroke-miterlimit:10;" d="M 3.337189 0.699107 L 2.950836 0.825617 " transform="matrix(120.760551,0,0,120.760551,-66.145362,-48.127721)"/>
</g>
</g>
</g>
<g clip-path="url(#clip109)" clip-rule="nonzero">
<g clip-path="url(#clip110)" clip-rule="evenodd">
<g clip-path="url(#clip111)" clip-rule="evenodd">
<path style="fill:none;stroke-width:0.0239952;stroke-linecap:butt;stroke-linejoin:miter;stroke:rgb(17.96875%,20.3125%,21.09375%);stroke-opacity:0.8;stroke-miterlimit:10;" d="M 2.558207 1.155233 L 2.950836 0.825617 " transform="matrix(120.760551,0,0,120.760551,-66.145362,-48.127721)"/>
</g>
</g>
</g>
<path style="fill-rule:nonzero;fill:rgb(100%,92.941176%,43.529412%);fill-opacity:1;stroke-width:0.0239952;stroke-linecap:butt;stroke-linejoin:miter;stroke:rgb(60%,60%,60%);stroke-opacity:0.8;stroke-miterlimit:10;" d="M 0.11997 0.000000931641 C 0.11997 0.0662477 0.0662737 0.119976 -0.00000544727 0.119976 C -0.0662522 0.119976 -0.119981 0.0662477 -0.119981 0.000000931641 C -0.119981 -0.0662459 -0.0662522 -0.119974 -0.00000544727 -0.119974 C 0.0662737 -0.119974 0.11997 -0.0662459 0.11997 0.000000931641 Z M 0.11997 0.000000931641 " transform="matrix(120.760551,0,0,120.760551,178.434252,382.921762)"/>
<path style="fill-rule:nonzero;fill:rgb(55.294118%,82.745098%,78.039216%);fill-opacity:1;stroke-width:0.0239952;stroke-linecap:butt;stroke-linejoin:miter;stroke:rgb(60%,60%,60%);stroke-opacity:0.8;stroke-miterlimit:10;" d="M 0.119965 0.000013703 C 0.119965 0.0662605 0.0662692 0.119989 -0.00000998329 0.119989 C -0.0662568 0.119989 -0.119985 0.0662605 -0.119985 0.000013703 C -0.119985 -0.0662654 -0.0662568 -0.119962 -0.00000998329 -0.119962 C 0.0662692 -0.119962 0.119965 -0.0662654 0.119965 0.000013703 Z M 0.119965 0.000013703 " transform="matrix(120.760551,0,0,120.760551,406.145737,303.467095)"/>
<path style="fill-rule:nonzero;fill:rgb(55.294118%,82.745098%,78.039216%);fill-opacity:1;stroke-width:0.0239952;stroke-linecap:butt;stroke-linejoin:miter;stroke:rgb(60%,60%,60%);stroke-opacity:0.8;stroke-miterlimit:10;" d="M 0.119974 0.00000940226 C 0.119974 0.0662562 0.0662451 0.119985 -0.00000166661 0.119985 C -0.0662485 0.119985 -0.119977 0.0662562 -0.119977 0.00000940226 C -0.119977 -0.0662697 -0.0662485 -0.119966 -0.00000166661 -0.119966 C 0.0662451 -0.119966 0.119974 -0.0662697 0.119974 0.00000940226 Z M 0.119974 0.00000940226 " transform="matrix(120.760551,0,0,120.760551,520.054889,415.475427)"/>
<path style="fill-rule:nonzero;fill:rgb(55.294118%,82.745098%,78.039216%);fill-opacity:1;stroke-width:0.0239952;stroke-linecap:butt;stroke-linejoin:miter;stroke:rgb(60%,60%,60%);stroke-opacity:0.8;stroke-miterlimit:10;" d="M 0.119983 0.00000635333 C 0.119983 0.0662532 0.066254 0.119982 0.00000724571 0.119982 C -0.0662719 0.119982 -0.119968 0.0662532 -0.119968 0.00000635333 C -0.119968 -0.0662728 -0.0662719 -0.119969 0.00000724571 -0.119969 C 0.066254 -0.119969 0.119983 -0.0662728 0.119983 0.00000635333 Z M 0.119983 0.00000635333 " transform="matrix(120.760551,0,0,120.760551,476.182719,374.311733)"/>
<path style="fill-rule:nonzero;fill:rgb(55.294118%,82.745098%,78.039216%);fill-opacity:1;stroke-width:0.0239952;stroke-linecap:butt;stroke-linejoin:miter;stroke:rgb(60%,60%,60%);stroke-opacity:0.8;stroke-miterlimit:10;" d="M 0.11997 0.00000671095 C 0.11997 0.0662535 0.0662738 0.119982 -0.00000538257 0.119982 C -0.0662522 0.119982 -0.119981 0.0662535 -0.119981 0.00000671095 C -0.119981 -0.0662724 -0.0662522 -0.119969 -0.00000538257 -0.119969 C 0.0662738 -0.119969 0.11997 -0.0662724 0.11997 0.00000671095 Z M 0.11997 0.00000671095 " transform="matrix(120.760551,0,0,120.760551,239.6569,284.385908)"/>
<path style="fill-rule:nonzero;fill:rgb(100%,92.941176%,43.529412%);fill-opacity:1;stroke-width:0.0239952;stroke-linecap:butt;stroke-linejoin:miter;stroke:rgb(60%,60%,60%);stroke-opacity:0.8;stroke-miterlimit:10;" d="M 0.119969 -0.00000862527 C 0.119969 0.0662705 0.0662731 0.119967 -0.00000602669 0.119967 C -0.0662528 0.119967 -0.119981 0.0662705 -0.119981 -0.00000862527 C -0.119981 -0.0662554 -0.0662528 -0.119984 -0.00000602669 -0.119984 C 0.0662731 -0.119984 0.119969 -0.0662554 0.119969 -0.00000862527 Z M 0.119969 -0.00000862527 " transform="matrix(120.760551,0,0,120.760551,341.262447,480.915104)"/>
<path style="fill-rule:nonzero;fill:rgb(100%,92.941176%,43.529412%);fill-opacity:1;stroke-width:0.0239952;stroke-linecap:butt;stroke-linejoin:miter;stroke:rgb(60%,60%,60%);stroke-opacity:0.8;stroke-miterlimit:10;" d="M 0.119987 0.00000420184 C 0.119987 0.066251 0.0662585 0.119979 0.0000117027 0.119979 C -0.0662674 0.119979 -0.119964 0.066251 -0.119964 0.00000420184 C -0.119964 -0.0662749 -0.0662674 -0.119971 0.0000117027 -0.119971 C 0.0662585 -0.119971 0.119987 -0.0662749 0.119987 0.00000420184 Z M 0.119987 0.00000420184 " transform="matrix(120.760551,0,0,120.760551,210.209524,459.343243)"/>
<path style="fill-rule:nonzero;fill:rgb(100%,92.941176%,43.529412%);fill-opacity:1;stroke-width:0.0239952;stroke-linecap:butt;stroke-linejoin:miter;stroke:rgb(60%,60%,60%);stroke-opacity:0.8;stroke-miterlimit:10;" d="M 0.119964 -0.00000271913 C 0.119964 0.0662764 0.0662677 0.119973 -0.0000114008 0.119973 C -0.0662582 0.119973 -0.119987 0.0662764 -0.119987 -0.00000271913 C -0.119987 -0.0662495 -0.0662582 -0.119978 -0.0000114008 -0.119978 C 0.0662677 -0.119978 0.119964 -0.0662495 0.119964 -0.00000271913 Z M 0.119964 -0.00000271913 " transform="matrix(120.760551,0,0,120.760551,420.860752,501.023766)"/>
<path style="fill-rule:nonzero;fill:rgb(100%,92.941176%,43.529412%);fill-opacity:1;stroke-width:0.0239952;stroke-linecap:butt;stroke-linejoin:miter;stroke:rgb(60%,60%,60%);stroke-opacity:0.8;stroke-miterlimit:10;" d="M 0.119979 0.00000744607 C 0.119979 0.0662542 0.0662507 0.119983 0.00000392941 0.119983 C -0.0662752 0.119983 -0.119971 0.0662542 -0.119971 0.00000744607 C -0.119971 -0.0662717 -0.0662752 -0.119968 0.00000392941 -0.119968 C 0.0662507 -0.119968 0.119979 -0.0662717 0.119979 0.00000744607 Z M 0.119979 0.00000744607 " transform="matrix(120.760551,0,0,120.760551,386.745619,456.795976)"/>
<path style="fill-rule:nonzero;fill:rgb(100%,92.941176%,43.529412%);fill-opacity:1;stroke-width:0.0239952;stroke-linecap:butt;stroke-linejoin:miter;stroke:rgb(60%,60%,60%);stroke-opacity:0.8;stroke-miterlimit:10;" d="M 0.11998 -0.0000128408 C 0.11998 0.0662663 0.0662516 0.119962 0.0000048393 0.119962 C -0.0662743 0.119962 -0.11997 0.0662663 -0.11997 -0.0000128408 C -0.11997 -0.0662596 -0.0662743 -0.119988 0.0000048393 -0.119988 C 0.0662516 -0.119988 0.11998 -0.0662596 0.11998 -0.0000128408 Z M 0.11998 -0.0000128408 " transform="matrix(120.760551,0,0,120.760551,141.651759,472.138269)"/>
<path style="fill-rule:nonzero;fill:rgb(100%,92.941176%,43.529412%);fill-opacity:1;stroke-width:0.0239952;stroke-linecap:butt;stroke-linejoin:miter;stroke:rgb(60%,60%,60%);stroke-opacity:0.8;stroke-miterlimit:10;" d="M 0.119961 -0.00000184547 C 0.119961 0.066245 0.0662644 0.119973 -0.000014738 0.119973 C -0.0662615 0.119973 -0.11999 0.066245 -0.11999 -0.00000184547 C -0.11999 -0.0662486 -0.0662615 -0.119977 -0.000014738 -0.119977 C 0.0662644 -0.119977 0.119961 -0.0662486 0.119961 -0.00000184547 Z M 0.119961 -0.00000184547 " transform="matrix(120.760551,0,0,120.760551,179.509592,498.945535)"/>
<path style="fill-rule:nonzero;fill:rgb(55.294118%,82.745098%,78.039216%);fill-opacity:1;stroke-width:0.0239952;stroke-linecap:butt;stroke-linejoin:miter;stroke:rgb(60%,60%,60%);stroke-opacity:0.8;stroke-miterlimit:10;" d="M 0.11999 -0.0000160305 C 0.11999 0.0662631 0.0662619 0.119992 0.0000151129 0.119992 C -0.066264 0.119992 -0.11996 0.0662631 -0.11996 -0.0000160305 C -0.11996 -0.0662628 -0.066264 -0.119991 0.0000151129 -0.119991 C 0.0662619 -0.119991 0.11999 -0.0662628 0.11999 -0.0000160305 Z M 0.11999 -0.0000160305 " transform="matrix(120.760551,0,0,120.760551,104.560675,273.818342)"/>
<path style="fill-rule:nonzero;fill:rgb(55.294118%,82.745098%,78.039216%);fill-opacity:1;stroke-width:0.0239952;stroke-linecap:butt;stroke-linejoin:miter;stroke:rgb(60%,60%,60%);stroke-opacity:0.8;stroke-miterlimit:10;" d="M 0.11996 -0.000000280413 C 0.11996 0.0662465 0.0662644 0.119975 -0.0000147917 0.119975 C -0.0662616 0.119975 -0.11999 0.0662465 -0.11999 -0.000000280413 C -0.11999 -0.0662471 -0.0662616 -0.119976 -0.0000147917 -0.119976 C 0.0662644 -0.119976 0.11996 -0.0662471 0.11996 -0.000000280413 Z M 0.11996 -0.000000280413 " transform="matrix(120.760551,0,0,120.760551,95.021317,212.226596)"/>
<path style="fill-rule:nonzero;fill:rgb(55.294118%,82.745098%,78.039216%);fill-opacity:1;stroke-width:0.0239952;stroke-linecap:butt;stroke-linejoin:miter;stroke:rgb(60%,60%,60%);stroke-opacity:0.8;stroke-miterlimit:10;" d="M 0.11999 0.000010903 C 0.11999 0.0662577 0.0662619 0.119986 0.0000151192 0.119986 C -0.066264 0.119986 -0.11996 0.0662577 -0.11996 0.000010903 C -0.11996 -0.0662682 -0.066264 -0.119964 0.0000151192 -0.119964 C 0.0662619 -0.119964 0.11999 -0.0662682 0.11999 0.000010903 Z M 0.11999 0.000010903 " transform="matrix(120.760551,0,0,120.760551,39.279424,244.901027)"/>
<path style="fill-rule:nonzero;fill:rgb(55.294118%,82.745098%,78.039216%);fill-opacity:1;stroke-width:0.0239952;stroke-linecap:butt;stroke-linejoin:miter;stroke:rgb(60%,60%,60%);stroke-opacity:0.8;stroke-miterlimit:10;" d="M 0.119962 0.00000191662 C 0.119962 0.0662487 0.0662659 0.119977 -0.0000132121 0.119977 C -0.06626 0.119977 -0.119988 0.0662487 -0.119988 0.00000191662 C -0.119988 -0.0662449 -0.06626 -0.119973 -0.0000132121 -0.119973 C 0.0662659 -0.119973 0.119962 -0.0662449 0.119962 0.00000191662 Z M 0.119962 0.00000191662 " transform="matrix(120.760551,0,0,120.760551,115.962533,161.7068)"/>
<path style="fill-rule:nonzero;fill:rgb(55.294118%,82.745098%,78.039216%);fill-opacity:1;stroke-width:0.0239952;stroke-linecap:butt;stroke-linejoin:miter;stroke:rgb(60%,60%,60%);stroke-opacity:0.8;stroke-miterlimit:10;" d="M 0.119974 -0.000000239045 C 0.119974 0.0662466 0.0662452 0.119975 -0.00000159355 0.119975 C -0.0662484 0.119975 -0.119977 0.0662466 -0.119977 -0.000000239045 C -0.119977 -0.066247 -0.0662484 -0.119976 -0.00000159355 -0.119976 C 0.0662452 -0.119976 0.119974 -0.066247 0.119974 -0.000000239045 Z M 0.119974 -0.000000239045 " transform="matrix(120.760551,0,0,120.760551,172.535349,160.382841)"/>
<path style="fill-rule:nonzero;fill:rgb(55.294118%,82.745098%,78.039216%);fill-opacity:1;stroke-width:0.0239952;stroke-linecap:butt;stroke-linejoin:miter;stroke:rgb(60%,60%,60%);stroke-opacity:0.8;stroke-miterlimit:10;" d="M 0.119962 0.0000128066 C 0.119962 0.0662596 0.0662657 0.119988 -0.0000134434 0.119988 C -0.0662602 0.119988 -0.119989 0.0662596 -0.119989 0.0000128066 C -0.119989 -0.0662663 -0.0662602 -0.119962 -0.0000134434 -0.119962 C 0.0662657 -0.119962 0.119962 -0.0662663 0.119962 0.0000128066 Z M 0.119962 0.0000128066 " transform="matrix(120.760551,0,0,120.760551,168.009436,289.654703)"/>
<path style="fill-rule:nonzero;fill:rgb(55.294118%,82.745098%,78.039216%);fill-opacity:1;stroke-width:0.0239952;stroke-linecap:butt;stroke-linejoin:miter;stroke:rgb(60%,60%,60%);stroke-opacity:0.8;stroke-miterlimit:10;" d="M 0.119964 0.000010885 C 0.119964 0.0662577 0.0662682 0.119986 -0.0000109728 0.119986 C -0.0662578 0.119986 -0.119986 0.0662577 -0.119986 0.000010885 C -0.119986 -0.0662683 -0.0662578 -0.119964 -0.0000109728 -0.119964 C 0.0662682 -0.119964 0.119964 -0.0662683 0.119964 0.000010885 Z M 0.119964 0.000010885 " transform="matrix(120.760551,0,0,120.760551,128.559919,128.514311)"/>
<path style="fill-rule:nonzero;fill:rgb(55.294118%,82.745098%,78.039216%);fill-opacity:1;stroke-width:0.0239952;stroke-linecap:butt;stroke-linejoin:miter;stroke:rgb(60%,60%,60%);stroke-opacity:0.8;stroke-miterlimit:10;" d="M 0.119989 -0.00000368885 C 0.119989 0.0662755 0.0662604 0.119972 0.0000136393 0.119972 C -0.0662655 0.119972 -0.119962 0.0662755 -0.119962 -0.00000368885 C -0.119962 -0.0662505 -0.0662655 -0.119979 0.0000136393 -0.119979 C 0.0662604 -0.119979 0.119989 -0.0662505 0.119989 -0.00000368885 Z M 0.119989 -0.00000368885 " transform="matrix(120.760551,0,0,120.760551,398.123353,243.152789)"/>
<path style="fill-rule:nonzero;fill:rgb(55.294118%,82.745098%,78.039216%);fill-opacity:1;stroke-width:0.0239952;stroke-linecap:butt;stroke-linejoin:miter;stroke:rgb(60%,60%,60%);stroke-opacity:0.8;stroke-miterlimit:10;" d="M 0.11999 -0.0000102224 C 0.11999 0.0662689 0.0662616 0.119965 0.0000147927 0.119965 C -0.0662644 0.119965 -0.11996 0.0662689 -0.11996 -0.0000102224 C -0.11996 -0.066257 -0.0662644 -0.119986 0.0000147927 -0.119986 C 0.0662616 -0.119986 0.11999 -0.066257 0.11999 -0.0000102224 Z M 0.11999 -0.0000102224 " transform="matrix(120.760551,0,0,120.760551,393.935714,194.184828)"/>
<path style="fill-rule:nonzero;fill:rgb(100%,92.941176%,43.529412%);fill-opacity:1;stroke-width:0.0239952;stroke-linecap:butt;stroke-linejoin:miter;stroke:rgb(60%,60%,60%);stroke-opacity:0.8;stroke-miterlimit:10;" d="M 0.119988 -0.00000248414 C 0.119988 0.0662767 0.066259 0.119973 0.0000122338 0.119973 C -0.0662669 0.119973 -0.119963 0.0662767 -0.119963 -0.00000248414 C -0.119963 -0.0662493 -0.0662669 -0.119978 0.0000122338 -0.119978 C 0.066259 -0.119978 0.119988 -0.0662493 0.119988 -0.00000248414 Z M 0.119988 -0.00000248414 " transform="matrix(120.760551,0,0,120.760551,103.975085,397.019831)"/>
<path style="fill-rule:nonzero;fill:rgb(55.294118%,82.745098%,78.039216%);fill-opacity:1;stroke-width:0.0239952;stroke-linecap:butt;stroke-linejoin:miter;stroke:rgb(60%,60%,60%);stroke-opacity:0.8;stroke-miterlimit:10;" d="M 0.11998 -0.00000354824 C 0.11998 0.0662756 0.0662518 0.119972 0.00000503855 0.119972 C -0.0662741 0.119972 -0.11997 0.0662756 -0.11997 -0.00000354824 C -0.11997 -0.0662503 -0.0662741 -0.119979 0.00000503855 -0.119979 C 0.0662518 -0.119979 0.11998 -0.0662503 0.11998 -0.00000354824 Z M 0.11998 -0.00000354824 " transform="matrix(120.760551,0,0,120.760551,487.475954,96.418397)"/>
<path style="fill-rule:nonzero;fill:rgb(55.294118%,82.745098%,78.039216%);fill-opacity:1;stroke-width:0.0239952;stroke-linecap:butt;stroke-linejoin:miter;stroke:rgb(60%,60%,60%);stroke-opacity:0.8;stroke-miterlimit:10;" d="M 0.119962 0.00000945761 C 0.119962 0.0662563 0.0662656 0.119985 -0.0000135741 0.119985 C -0.0662604 0.119985 -0.119989 0.0662563 -0.119989 0.00000945761 C -0.119989 -0.0662697 -0.0662604 -0.119966 -0.0000135741 -0.119966 C 0.0662656 -0.119966 0.119962 -0.0662697 0.119962 0.00000945761 Z M 0.119962 0.00000945761 " transform="matrix(120.760551,0,0,120.760551,538.845389,179.428545)"/>
<path style="fill-rule:nonzero;fill:rgb(55.294118%,82.745098%,78.039216%);fill-opacity:1;stroke-width:0.0239952;stroke-linecap:butt;stroke-linejoin:miter;stroke:rgb(60%,60%,60%);stroke-opacity:0.8;stroke-miterlimit:10;" d="M 0.11996 -0.00000518229 C 0.11996 0.066274 0.066264 0.11997 -0.0000151192 0.11997 C -0.0662619 0.11997 -0.11999 0.066274 -0.11999 -0.00000518229 C -0.11999 -0.066252 -0.0662619 -0.11998 -0.0000151192 -0.11998 C 0.066264 -0.11998 0.11996 -0.066252 0.11996 -0.00000518229 Z M 0.11996 -0.00000518229 " transform="matrix(120.760551,0,0,120.760551,560.720576,322.438126)"/>
<path style="fill-rule:nonzero;fill:rgb(55.294118%,82.745098%,78.039216%);fill-opacity:1;stroke-width:0.0239952;stroke-linecap:butt;stroke-linejoin:miter;stroke:rgb(60%,60%,60%);stroke-opacity:0.8;stroke-miterlimit:10;" d="M 0.119981 -0.0000136508 C 0.119981 0.0662655 0.0662524 0.119962 0.00000557868 0.119962 C -0.0662736 0.119962 -0.11997 0.0662655 -0.11997 -0.0000136508 C -0.11997 -0.0662605 -0.0662736 -0.119989 0.00000557868 -0.119989 C 0.0662524 -0.119989 0.119981 -0.0662605 0.119981 -0.0000136508 Z M 0.119981 -0.0000136508 " transform="matrix(120.760551,0,0,120.760551,544.155576,236.368836)"/>
<path style="fill-rule:nonzero;fill:rgb(55.294118%,82.745098%,78.039216%);fill-opacity:1;stroke-width:0.0239952;stroke-linecap:butt;stroke-linejoin:miter;stroke:rgb(60%,60%,60%);stroke-opacity:0.8;stroke-miterlimit:10;" d="M 0.11997 0.0000062499 C 0.11997 0.066253 0.0662739 0.119982 -0.00000528531 0.119982 C -0.0662521 0.119982 -0.119981 0.066253 -0.119981 0.0000062499 C -0.119981 -0.0662729 -0.0662521 -0.119969 -0.00000528531 -0.119969 C 0.0662739 -0.119969 0.11997 -0.0662729 0.11997 0.0000062499 Z M 0.11997 0.0000062499 " transform="matrix(120.760551,0,0,120.760551,512.250638,291.487527)"/>
<path style="fill-rule:nonzero;fill:rgb(55.294118%,82.745098%,78.039216%);fill-opacity:1;stroke-width:0.0239952;stroke-linecap:butt;stroke-linejoin:miter;stroke:rgb(60%,60%,60%);stroke-opacity:0.8;stroke-miterlimit:10;" d="M 0.119961 0.0000110658 C 0.119961 0.0662579 0.0662651 0.119986 -0.0000140638 0.119986 C -0.0662609 0.119986 -0.119989 0.0662579 -0.119989 0.0000110658 C -0.119989 -0.0662681 -0.0662609 -0.119964 -0.0000140638 -0.119964 C 0.0662651 -0.119964 0.119961 -0.0662681 0.119961 0.0000110658 Z M 0.119961 0.0000110658 " transform="matrix(120.760551,0,0,120.760551,513.224355,130.092414)"/>
<path style="fill-rule:nonzero;fill:rgb(100%,92.941176%,43.529412%);fill-opacity:1;stroke-width:0.0239952;stroke-linecap:butt;stroke-linejoin:miter;stroke:rgb(60%,60%,60%);stroke-opacity:0.8;stroke-miterlimit:10;" d="M 0.119977 0.000000545336 C 0.119977 0.0662473 0.0662485 0.119976 0.00000168674 0.119976 C -0.0662451 0.119976 -0.119974 0.0662473 -0.119974 0.000000545336 C -0.119974 -0.0662463 -0.0662451 -0.119975 0.00000168674 -0.119975 C 0.0662485 -0.119975 0.119977 -0.0662463 0.119977 0.000000545336 Z M 0.119977 0.000000545336 " transform="matrix(120.760551,0,0,120.760551,315.882609,558.089778)"/>
<path style="fill-rule:nonzero;fill:rgb(100%,92.941176%,43.529412%);fill-opacity:1;stroke-width:0.0239952;stroke-linecap:butt;stroke-linejoin:miter;stroke:rgb(60%,60%,60%);stroke-opacity:0.8;stroke-miterlimit:10;" d="M 0.119974 -0.000000117937 C 0.119974 0.0662467 0.0662457 0.119975 -0.00000107234 0.119975 C -0.0662479 0.119975 -0.119976 0.0662467 -0.119976 -0.000000117937 C -0.119976 -0.0662469 -0.0662479 -0.119975 -0.00000107234 -0.119975 C 0.0662457 -0.119975 0.119974 -0.0662469 0.119974 -0.000000117937 Z M 0.119974 -0.000000117937 " transform="matrix(120.760551,0,0,120.760551,276.757942,565.730483)"/>
<path style="fill-rule:nonzero;fill:rgb(100%,92.941176%,43.529412%);fill-opacity:1;stroke-width:0.0239952;stroke-linecap:butt;stroke-linejoin:miter;stroke:rgb(60%,60%,60%);stroke-opacity:0.8;stroke-miterlimit:10;" d="M 0.119987 -0.0000152333 C 0.119987 0.0662639 0.0662582 0.11996 0.0000114062 0.11996 C -0.0662677 0.11996 -0.119964 0.0662639 -0.119964 -0.0000152333 C -0.119964 -0.066262 -0.0662677 -0.119991 0.0000114062 -0.119991 C 0.0662582 -0.119991 0.119987 -0.066262 0.119987 -0.0000152333 Z M 0.119987 -0.0000152333 " transform="matrix(120.760551,0,0,120.760551,347.479091,529.029183)"/>
<path style="fill-rule:nonzero;fill:rgb(55.294118%,82.745098%,78.039216%);fill-opacity:1;stroke-width:0.0239952;stroke-linecap:butt;stroke-linejoin:miter;stroke:rgb(60%,60%,60%);stroke-opacity:0.8;stroke-miterlimit:10;" d="M 0.11999 -0.00000501495 C 0.11999 0.0662741 0.066261 0.11997 0.0000142335 0.11997 C -0.0662649 0.11997 -0.119961 0.0662741 -0.119961 -0.00000501495 C -0.119961 -0.0662518 -0.0662649 -0.11998 0.0000142335 -0.11998 C 0.066261 -0.11998 0.11999 -0.0662518 0.11999 -0.00000501495 Z M 0.11999 -0.00000501495 " transform="matrix(120.760551,0,0,120.760551,178.736562,92.590449)"/>
<path style="fill-rule:nonzero;fill:rgb(55.294118%,82.745098%,78.039216%);fill-opacity:1;stroke-width:0.0239952;stroke-linecap:butt;stroke-linejoin:miter;stroke:rgb(60%,60%,60%);stroke-opacity:0.8;stroke-miterlimit:10;" d="M 0.119973 0.000000117937 C 0.119973 0.0662469 0.0662765 0.119975 -0.00000260099 0.119975 C -0.0662494 0.119975 -0.119978 0.0662469 -0.119978 0.000000117937 C -0.119978 -0.0662467 -0.0662494 -0.119975 -0.00000260099 -0.119975 C 0.0662765 -0.119975 0.119973 -0.0662467 0.119973 0.000000117937 Z M 0.119973 0.000000117937 " transform="matrix(120.760551,0,0,120.760551,374.47297,34.269517)"/>
<path style="fill-rule:nonzero;fill:rgb(55.294118%,82.745098%,78.039216%);fill-opacity:1;stroke-width:0.0239952;stroke-linecap:butt;stroke-linejoin:miter;stroke:rgb(60%,60%,60%);stroke-opacity:0.8;stroke-miterlimit:10;" d="M 0.119989 0.00000610566 C 0.119989 0.0662529 0.0662604 0.119981 0.0000135878 0.119981 C -0.0662656 0.119981 -0.119962 0.0662529 -0.119962 0.00000610566 C -0.119962 -0.066273 -0.0662656 -0.119969 0.0000135878 -0.119969 C 0.0662604 -0.119969 0.119989 -0.066273 0.119989 0.00000610566 Z M 0.119989 0.00000610566 " transform="matrix(120.760551,0,0,120.760551,336.853828,36.296138)"/>
<path style="fill-rule:nonzero;fill:rgb(55.294118%,82.745098%,78.039216%);fill-opacity:1;stroke-width:0.0239952;stroke-linecap:butt;stroke-linejoin:miter;stroke:rgb(60%,60%,60%);stroke-opacity:0.8;stroke-miterlimit:10;" d="M 0.119969 0.00000800157 C 0.119969 0.0662548 0.0662731 0.119983 -0.00000601135 0.119983 C -0.0662528 0.119983 -0.119981 0.0662548 -0.119981 0.00000800157 C -0.119981 -0.0662711 -0.0662528 -0.119967 -0.00000601135 -0.119967 C 0.0662731 -0.119967 0.119969 -0.0662711 0.119969 0.00000800157 Z M 0.119969 0.00000800157 " transform="matrix(120.760551,0,0,120.760551,242.785882,91.37794)"/>
<path style="fill-rule:nonzero;fill:rgb(55.294118%,82.745098%,78.039216%);fill-opacity:1;stroke-width:0.0239952;stroke-linecap:butt;stroke-linejoin:miter;stroke:rgb(60%,60%,60%);stroke-opacity:0.8;stroke-miterlimit:10;" d="M 0.119985 0.00000538096 C 0.119985 0.0662522 0.066257 0.119981 0.0000101927 0.119981 C -0.066269 0.119981 -0.119965 0.0662522 -0.119965 0.00000538096 C -0.119965 -0.0662738 -0.066269 -0.11997 0.0000101927 -0.11997 C 0.066257 -0.11997 0.119985 -0.0662738 0.119985 0.00000538096 Z M 0.119985 0.00000538096 " transform="matrix(120.760551,0,0,120.760551,290.197988,51.573569)"/>
</g>
</svg>
