<?xml version="1.0" encoding="UTF-8"?>
<svg xmlns="http://www.w3.org/2000/svg" xmlns:xlink="http://www.w3.org/1999/xlink" width="600pt" height="600pt" viewBox="0 0 600 600" version="1.1">
<defs>
<clipPath id="clip1">
  <path d="M 16 245.574219 L 115 245.574219 L 115 379.601562 L 16 379.601562 Z M 16 245.574219 "/>
</clipPath>
<clipPath id="clip2">
  <path d="M -66.789062 245.574219 L 197.648438 245.574219 L 197.648438 379.601562 L -66.789062 379.601562 Z M -66.789062 245.574219 L 72.402344 271.230469 C 72.402344 279.347656 65.824219 285.929688 57.703125 285.929688 C 49.585938 285.929688 43.003906 279.347656 43.003906 271.230469 C 43.003906 263.113281 49.585938 256.53125 57.703125 256.53125 C 65.824219 256.53125 72.402344 263.113281 72.402344 271.230469 Z M -66.789062 245.574219 "/>
</clipPath>
<clipPath id="clip3">
  <path d="M -66.789062 245.574219 L 197.648438 245.574219 L 197.648438 379.601562 L -66.789062 379.601562 Z M -66.789062 245.574219 L 87.859375 353.949219 C 87.859375 362.070312 81.28125 368.652344 73.160156 368.652344 C 65.042969 368.652344 58.460938 362.070312 58.460938 353.949219 C 58.460938 345.832031 65.042969 339.25 73.160156 339.25 C 81.28125 339.25 87.859375 345.832031 87.859375 353.949219 Z M -66.789062 245.574219 "/>
</clipPath>
<clipPath id="clip4">
  <path d="M 16 189.175781 L 110 189.175781 L 110 294.292969 L 16 294.292969 Z M 16 189.175781 "/>
</clipPath>
<clipPath id="clip5">
  <path d="M -67.242188 189.175781 L 192.375 189.175781 L 192.375 294.292969 L -67.242188 294.292969 Z M -67.242188 189.175781 L 72.402344 271.230469 C 72.402344 279.347656 65.824219 285.929688 57.703125 285.929688 C 49.585938 285.929688 43.003906 279.347656 43.003906 271.230469 C 43.003906 263.113281 49.585938 256.53125 57.703125 256.53125 C 65.824219 256.53125 72.402344 263.113281 72.402344 271.230469 Z M -67.242188 189.175781 "/>
</clipPath>
<clipPath id="clip6">
  <path d="M -67.242188 189.175781 L 192.375 189.175781 L 192.375 294.292969 L -67.242188 294.292969 Z M -67.242188 189.175781 L 82.132812 212.242188 C 82.132812 220.363281 75.550781 226.945312 67.433594 226.945312 C 59.316406 226.945312 52.734375 220.363281 52.734375 212.242188 C 52.734375 204.125 59.316406 197.542969 67.433594 197.542969 C 75.550781 197.542969 82.132812 204.125 82.132812 212.242188 Z M -67.242188 189.175781 "/>
</clipPath>
<clipPath id="clip7">
  <path d="M 0 202 L 100 202 L 100 313 L 0 313 Z M 0 202 "/>
</clipPath>
<clipPath id="clip8">
  <path d="M -62.539062 160.933594 L 154.789062 160.933594 L 154.789062 354.332031 L -62.539062 354.332031 Z M -62.539062 160.933594 L 72.402344 271.230469 C 72.402344 279.347656 65.824219 285.929688 57.703125 285.929688 C 49.585938 285.929688 43.003906 279.347656 43.003906 271.230469 C 43.003906 263.113281 49.585938 256.53125 57.703125 256.53125 C 65.824219 256.53125 72.402344 263.113281 72.402344 271.230469 Z M -62.539062 160.933594 "/>
</clipPath>
<clipPath id="clip9">
  <path d="M -62.539062 160.933594 L 154.789062 160.933594 L 154.789062 354.332031 L -62.539062 354.332031 Z M -62.539062 160.933594 L 49.25 244.039062 C 49.25 252.15625 42.667969 258.738281 34.550781 258.738281 C 26.433594 258.738281 19.851562 252.15625 19.851562 244.039062 C 19.851562 235.921875 26.433594 229.339844 34.550781 229.339844 C 42.667969 229.339844 49.25 235.921875 49.25 244.039062 Z M -62.539062 160.933594 "/>
</clipPath>
<clipPath id="clip10">
  <path d="M 67 340 L 207 340 L 207 443 L 67 443 Z M 67 340 "/>
</clipPath>
<clipPath id="clip11">
  <path d="M 66.125 262.222656 L 207.957031 262.222656 L 207.957031 521.332031 L 66.125 521.332031 Z M 66.125 262.222656 L 179.828125 401.351562 C 179.828125 409.46875 173.246094 416.050781 165.128906 416.050781 C 157.011719 416.050781 150.429688 409.46875 150.429688 401.351562 C 150.429688 393.230469 157.011719 386.652344 165.128906 386.652344 C 173.246094 386.652344 179.828125 393.230469 179.828125 401.351562 Z M 66.125 262.222656 "/>
</clipPath>
<clipPath id="clip12">
  <path d="M 66.125 262.222656 L 207.957031 262.222656 L 207.957031 521.332031 L 66.125 521.332031 Z M 66.125 262.222656 L 123.65625 382.207031 C 123.65625 390.328125 117.074219 396.910156 108.957031 396.910156 C 100.839844 396.910156 94.257812 390.328125 94.257812 382.207031 C 94.257812 374.089844 100.839844 367.507812 108.957031 367.507812 C 117.074219 367.507812 123.65625 374.089844 123.65625 382.207031 Z M 66.125 262.222656 "/>
</clipPath>
<clipPath id="clip13">
  <path d="M 74.1875 359 L 191.078125 359 L 191.078125 456 L 74.1875 456 Z M 74.1875 359 "/>
</clipPath>
<clipPath id="clip14">
  <path d="M 74.1875 276.914062 L 191.078125 276.914062 L 191.078125 538.09375 L 74.1875 538.09375 Z M 74.1875 276.914062 L 179.828125 401.351562 C 179.828125 409.46875 173.246094 416.050781 165.128906 416.050781 C 157.011719 416.050781 150.429688 409.46875 150.429688 401.351562 C 150.429688 393.230469 157.011719 386.652344 165.128906 386.652344 C 173.246094 386.652344 179.828125 393.230469 179.828125 401.351562 Z M 74.1875 276.914062 "/>
</clipPath>
<clipPath id="clip15">
  <path d="M 74.1875 276.914062 L 191.078125 276.914062 L 191.078125 538.09375 L 74.1875 538.09375 Z M 74.1875 276.914062 L 114.839844 413.660156 C 114.839844 421.777344 108.261719 428.359375 100.140625 428.359375 C 92.023438 428.359375 85.441406 421.777344 85.441406 413.660156 C 85.441406 405.539062 92.023438 398.960938 100.140625 398.960938 C 108.261719 398.960938 114.839844 405.539062 114.839844 413.660156 Z M 74.1875 276.914062 "/>
</clipPath>
<clipPath id="clip16">
  <path d="M 134.480469 330 L 322.0625 330 L 322.0625 443 L 134.480469 443 Z M 134.480469 330 "/>
</clipPath>
<clipPath id="clip17">
  <path d="M 134.480469 248.863281 L 322.0625 248.863281 L 322.0625 524.800781 L 134.480469 524.800781 Z M 134.480469 248.863281 L 179.828125 401.351562 C 179.828125 409.46875 173.246094 416.050781 165.128906 416.050781 C 157.011719 416.050781 150.429688 409.46875 150.429688 401.351562 C 150.429688 393.230469 157.011719 386.652344 165.128906 386.652344 C 173.246094 386.652344 179.828125 393.230469 179.828125 401.351562 Z M 134.480469 248.863281 "/>
</clipPath>
<clipPath id="clip18">
  <path d="M 134.480469 248.863281 L 322.0625 248.863281 L 322.0625 524.800781 L 134.480469 524.800781 Z M 134.480469 248.863281 L 306.117188 372.316406 C 306.117188 380.433594 299.539062 387.015625 291.417969 387.015625 C 283.300781 387.015625 276.71875 380.433594 276.71875 372.316406 C 276.71875 364.195312 283.300781 357.617188 291.417969 357.617188 C 299.539062 357.617188 306.117188 364.195312 306.117188 372.316406 Z M 134.480469 248.863281 "/>
</clipPath>
<clipPath id="clip19">
  <path d="M 31 312 L 151 312 L 151 424 L 31 424 Z M 31 312 "/>
</clipPath>
<clipPath id="clip20">
  <path d="M -6.398438 253.949219 L 188.511719 253.949219 L 188.511719 482.203125 L -6.398438 482.203125 Z M -6.398438 253.949219 L 123.65625 382.207031 C 123.65625 390.328125 117.074219 396.910156 108.957031 396.910156 C 100.839844 396.910156 94.257812 390.328125 94.257812 382.207031 C 94.257812 374.089844 100.839844 367.507812 108.957031 367.507812 C 117.074219 367.507812 123.65625 374.089844 123.65625 382.207031 Z M -6.398438 253.949219 "/>
</clipPath>
<clipPath id="clip21">
  <path d="M -6.398438 253.949219 L 188.511719 253.949219 L 188.511719 482.203125 L -6.398438 482.203125 Z M -6.398438 253.949219 L 87.859375 353.949219 C 87.859375 362.070312 81.28125 368.652344 73.160156 368.652344 C 65.042969 368.652344 58.460938 362.070312 58.460938 353.949219 C 58.460938 345.832031 65.042969 339.25 73.160156 339.25 C 81.28125 339.25 87.859375 345.832031 87.859375 353.949219 Z M -6.398438 253.949219 "/>
</clipPath>
<clipPath id="clip22">
  <path d="M 31 312 L 142 312 L 142 456 L 31 456 Z M 31 312 "/>
</clipPath>
<clipPath id="clip23">
  <path d="M -42.464844 300.089844 L 215.761719 300.089844 L 215.761719 467.515625 L -42.464844 467.515625 Z M -42.464844 300.089844 L 87.859375 353.949219 C 87.859375 362.070312 81.28125 368.652344 73.160156 368.652344 C 65.042969 368.652344 58.460938 362.070312 58.460938 353.949219 C 58.460938 345.832031 65.042969 339.25 73.160156 339.25 C 81.28125 339.25 87.859375 345.832031 87.859375 353.949219 Z M -42.464844 300.089844 "/>
</clipPath>
<clipPath id="clip24">
  <path d="M -42.464844 300.089844 L 215.761719 300.089844 L 215.761719 467.515625 L -42.464844 467.515625 Z M -42.464844 300.089844 L 114.839844 413.660156 C 114.839844 421.777344 108.261719 428.359375 100.140625 428.359375 C 92.023438 428.359375 85.441406 421.777344 85.441406 413.660156 C 85.441406 405.539062 92.023438 398.960938 100.140625 398.960938 C 108.261719 398.960938 114.839844 405.539062 114.839844 413.660156 Z M -42.464844 300.089844 "/>
</clipPath>
<clipPath id="clip25">
  <path d="M 231 164 L 355 164 L 355 268 L 231 268 Z M 231 164 "/>
</clipPath>
<clipPath id="clip26">
  <path d="M 215.917969 91.886719 L 369.480469 91.886719 L 369.480469 339.710938 L 215.917969 339.710938 Z M 215.917969 91.886719 L 287.421875 225.46875 C 287.421875 233.589844 280.839844 240.167969 272.722656 240.167969 C 264.601562 240.167969 258.019531 233.589844 258.019531 225.46875 C 258.019531 217.351562 264.601562 210.769531 272.722656 210.769531 C 280.839844 210.769531 287.421875 217.351562 287.421875 225.46875 Z M 215.917969 91.886719 "/>
</clipPath>
<clipPath id="clip27">
  <path d="M 215.917969 91.886719 L 369.480469 91.886719 L 369.480469 339.710938 L 215.917969 339.710938 Z M 215.917969 91.886719 L 327.382812 206.132812 C 327.382812 214.25 320.800781 220.832031 312.679688 220.832031 C 304.5625 220.832031 297.980469 214.25 297.980469 206.132812 C 297.980469 198.015625 304.5625 191.433594 312.679688 191.433594 C 320.800781 191.433594 327.382812 198.015625 327.382812 206.132812 Z M 215.917969 91.886719 "/>
</clipPath>
<clipPath id="clip28">
  <path d="M 231 183 L 335 183 L 335 322 L 231 322 Z M 231 183 "/>
</clipPath>
<clipPath id="clip29">
  <path d="M 153.640625 180.074219 L 411.652344 180.074219 L 411.652344 325.167969 L 153.640625 325.167969 Z M 153.640625 180.074219 L 287.421875 225.46875 C 287.421875 233.589844 280.839844 240.167969 272.722656 240.167969 C 264.601562 240.167969 258.019531 233.589844 258.019531 225.46875 C 258.019531 217.351562 264.601562 210.769531 272.722656 210.769531 C 280.839844 210.769531 287.421875 217.351562 287.421875 225.46875 Z M 153.640625 180.074219 "/>
</clipPath>
<clipPath id="clip30">
  <path d="M 153.640625 180.074219 L 411.652344 180.074219 L 411.652344 325.167969 L 153.640625 325.167969 Z M 153.640625 180.074219 L 307.273438 279.777344 C 307.273438 287.894531 300.691406 294.476562 292.574219 294.476562 C 284.457031 294.476562 277.875 287.894531 277.875 279.777344 C 277.875 271.660156 284.457031 265.078125 292.574219 265.078125 C 300.691406 265.078125 307.273438 271.660156 307.273438 279.777344 Z M 153.640625 180.074219 "/>
</clipPath>
<clipPath id="clip31">
  <path d="M 219 147.140625 L 315 147.140625 L 315 265.113281 L 219 265.113281 Z M 219 147.140625 "/>
</clipPath>
<clipPath id="clip32">
  <path d="M 139.675781 147.140625 L 393.742188 147.140625 L 393.742188 265.113281 L 139.675781 265.113281 Z M 139.675781 147.140625 L 287.421875 225.46875 C 287.421875 233.589844 280.839844 240.167969 272.722656 240.167969 C 264.601562 240.167969 258.019531 233.589844 258.019531 225.46875 C 258.019531 217.351562 264.601562 210.769531 272.722656 210.769531 C 280.839844 210.769531 287.421875 217.351562 287.421875 225.46875 Z M 139.675781 147.140625 "/>
</clipPath>
<clipPath id="clip33">
  <path d="M 139.675781 147.140625 L 393.742188 147.140625 L 393.742188 265.113281 L 139.675781 265.113281 Z M 139.675781 147.140625 L 275.398438 186.789062 C 275.398438 194.90625 268.816406 201.488281 260.699219 201.488281 C 252.582031 201.488281 246 194.90625 246 186.789062 C 246 178.671875 252.582031 172.089844 260.699219 172.089844 C 268.816406 172.089844 275.398438 178.671875 275.398438 186.789062 Z M 139.675781 147.140625 "/>
</clipPath>
<clipPath id="clip34">
  <path d="M 340 17.835938 L 435 17.835938 L 435 129.671875 L 340 129.671875 Z M 340 17.835938 "/>
</clipPath>
<clipPath id="clip35">
  <path d="M 257.09375 17.835938 L 517.683594 17.835938 L 517.683594 129.671875 L 257.09375 129.671875 Z M 257.09375 17.835938 L 396.5625 41.949219 C 396.5625 50.066406 389.980469 56.648438 381.863281 56.648438 C 373.742188 56.648438 367.160156 50.066406 367.160156 41.949219 C 367.160156 33.832031 373.742188 27.25 381.863281 27.25 C 389.980469 27.25 396.5625 33.832031 396.5625 41.949219 Z M 257.09375 17.835938 "/>
</clipPath>
<clipPath id="clip36">
  <path d="M 257.09375 17.835938 L 517.683594 17.835938 L 517.683594 129.671875 L 257.09375 129.671875 Z M 257.09375 17.835938 L 407.617188 105.5625 C 407.617188 113.683594 401.039062 120.261719 392.917969 120.261719 C 384.800781 120.261719 378.21875 113.683594 378.21875 105.5625 C 378.21875 97.445312 384.800781 90.863281 392.917969 90.863281 C 401.039062 90.863281 407.617188 97.445312 407.617188 105.5625 Z M 257.09375 17.835938 "/>
</clipPath>
<clipPath id="clip37">
  <path d="M 271 63 L 435 63 L 435 248 L 271 248 Z M 271 63 "/>
</clipPath>
<clipPath id="clip38">
  <path d="M 213.078125 25.503906 L 492.515625 25.503906 L 492.515625 286.1875 L 213.078125 286.1875 Z M 213.078125 25.503906 L 327.382812 206.132812 C 327.382812 214.25 320.800781 220.832031 312.679688 220.832031 C 304.5625 220.832031 297.980469 214.25 297.980469 206.132812 C 297.980469 198.015625 304.5625 191.433594 312.679688 191.433594 C 320.800781 191.433594 327.382812 198.015625 327.382812 206.132812 Z M 213.078125 25.503906 "/>
</clipPath>
<clipPath id="clip39">
  <path d="M 213.078125 25.503906 L 492.515625 25.503906 L 492.515625 286.1875 L 213.078125 286.1875 Z M 213.078125 25.503906 L 407.617188 105.5625 C 407.617188 113.683594 401.039062 120.261719 392.917969 120.261719 C 384.800781 120.261719 378.21875 113.683594 378.21875 105.5625 C 378.21875 97.445312 384.800781 90.863281 392.917969 90.863281 C 401.039062 90.863281 407.617188 97.445312 407.617188 105.5625 Z M 213.078125 25.503906 "/>
</clipPath>
<clipPath id="clip40">
  <path d="M 250 170.625 L 355 170.625 L 355 315.28125 L 250 315.28125 Z M 250 170.625 "/>
</clipPath>
<clipPath id="clip41">
  <path d="M 170.34375 170.625 L 434.90625 170.625 L 434.90625 315.28125 L 170.34375 315.28125 Z M 170.34375 170.625 L 327.382812 206.132812 C 327.382812 214.25 320.800781 220.832031 312.679688 220.832031 C 304.5625 220.832031 297.980469 214.25 297.980469 206.132812 C 297.980469 198.015625 304.5625 191.433594 312.679688 191.433594 C 320.800781 191.433594 327.382812 198.015625 327.382812 206.132812 Z M 170.34375 170.625 "/>
</clipPath>
<clipPath id="clip42">
  <path d="M 170.34375 170.625 L 434.90625 170.625 L 434.90625 315.28125 L 170.34375 315.28125 Z M 170.34375 170.625 L 307.273438 279.777344 C 307.273438 287.894531 300.691406 294.476562 292.574219 294.476562 C 284.457031 294.476562 277.875 287.894531 277.875 279.777344 C 277.875 271.660156 284.457031 265.078125 292.574219 265.078125 C 300.691406 265.078125 307.273438 271.660156 307.273438 279.777344 Z M 170.34375 170.625 "/>
</clipPath>
<clipPath id="clip43">
  <path d="M 249 187.5 L 355 187.5 L 355 390.945312 L 249 390.945312 Z M 249 187.5 "/>
</clipPath>
<clipPath id="clip44">
  <path d="M 165.820312 187.5 L 438.273438 187.5 L 438.273438 390.945312 L 165.820312 390.945312 Z M 165.820312 187.5 L 327.382812 206.132812 C 327.382812 214.25 320.800781 220.832031 312.679688 220.832031 C 304.5625 220.832031 297.980469 214.25 297.980469 206.132812 C 297.980469 198.015625 304.5625 191.433594 312.679688 191.433594 C 320.800781 191.433594 327.382812 198.015625 327.382812 206.132812 Z M 165.820312 187.5 "/>
</clipPath>
<clipPath id="clip45">
  <path d="M 165.820312 187.5 L 438.273438 187.5 L 438.273438 390.945312 L 165.820312 390.945312 Z M 165.820312 187.5 L 306.117188 372.316406 C 306.117188 380.433594 299.539062 387.015625 291.417969 387.015625 C 283.300781 387.015625 276.71875 380.433594 276.71875 372.316406 C 276.71875 364.195312 283.300781 357.617188 291.417969 357.617188 C 299.539062 357.617188 306.117188 364.195312 306.117188 372.316406 Z M 165.820312 187.5 "/>
</clipPath>
<clipPath id="clip46">
  <path d="M 219 145 L 355 145 L 355 248 L 219 248 Z M 219 145 "/>
</clipPath>
<clipPath id="clip47">
  <path d="M 214.632812 67.957031 L 358.742188 67.957031 L 358.742188 324.960938 L 214.632812 324.960938 Z M 214.632812 67.957031 L 327.382812 206.132812 C 327.382812 214.25 320.800781 220.832031 312.679688 220.832031 C 304.5625 220.832031 297.980469 214.25 297.980469 206.132812 C 297.980469 198.015625 304.5625 191.433594 312.679688 191.433594 C 320.800781 191.433594 327.382812 198.015625 327.382812 206.132812 Z M 214.632812 67.957031 "/>
</clipPath>
<clipPath id="clip48">
  <path d="M 214.632812 67.957031 L 358.742188 67.957031 L 358.742188 324.960938 L 214.632812 324.960938 Z M 214.632812 67.957031 L 275.398438 186.789062 C 275.398438 194.90625 268.816406 201.488281 260.699219 201.488281 C 252.582031 201.488281 246 194.90625 246 186.789062 C 246 178.671875 252.582031 172.089844 260.699219 172.089844 C 268.816406 172.089844 275.398438 178.671875 275.398438 186.789062 Z M 214.632812 67.957031 "/>
</clipPath>
<clipPath id="clip49">
  <path d="M 308.636719 163 L 385.882812 163 L 385.882812 248 L 308.636719 248 Z M 308.636719 163 "/>
</clipPath>
<clipPath id="clip50">
  <path d="M 308.636719 78.925781 L 385.882812 78.925781 L 385.882812 332.71875 L 308.636719 332.71875 Z M 308.636719 78.925781 L 327.382812 206.132812 C 327.382812 214.25 320.800781 220.832031 312.679688 220.832031 C 304.5625 220.832031 297.980469 214.25 297.980469 206.132812 C 297.980469 198.015625 304.5625 191.433594 312.679688 191.433594 C 320.800781 191.433594 327.382812 198.015625 327.382812 206.132812 Z M 308.636719 78.925781 "/>
</clipPath>
<clipPath id="clip51">
  <path d="M 308.636719 78.925781 L 385.882812 78.925781 L 385.882812 332.71875 L 308.636719 332.71875 Z M 308.636719 78.925781 L 396.546875 205.515625 C 396.546875 213.632812 389.964844 220.214844 381.84375 220.214844 C 373.726562 220.214844 367.144531 213.632812 367.144531 205.515625 C 367.144531 197.398438 373.726562 190.816406 381.84375 190.816406 C 389.964844 190.816406 396.546875 197.398438 396.546875 205.515625 Z M 308.636719 78.925781 "/>
</clipPath>
<clipPath id="clip52">
  <path d="M 222 55 L 355 55 L 355 248 L 222 248 Z M 222 55 "/>
</clipPath>
<clipPath id="clip53">
  <path d="M 148.101562 43.609375 L 428.554688 43.609375 L 428.554688 259.421875 L 148.101562 259.421875 Z M 148.101562 43.609375 L 327.382812 206.132812 C 327.382812 214.25 320.800781 220.832031 312.679688 220.832031 C 304.5625 220.832031 297.980469 214.25 297.980469 206.132812 C 297.980469 198.015625 304.5625 191.433594 312.679688 191.433594 C 320.800781 191.433594 327.382812 198.015625 327.382812 206.132812 Z M 148.101562 43.609375 "/>
</clipPath>
<clipPath id="clip54">
  <path d="M 148.101562 43.609375 L 428.554688 43.609375 L 428.554688 259.421875 L 148.101562 259.421875 Z M 148.101562 43.609375 L 278.679688 96.902344 C 278.679688 105.019531 272.101562 111.601562 263.980469 111.601562 C 255.863281 111.601562 249.28125 105.019531 249.28125 96.902344 C 249.28125 88.785156 255.863281 82.203125 263.980469 82.203125 C 272.101562 82.203125 278.679688 88.785156 278.679688 96.902344 Z M 148.101562 43.609375 "/>
</clipPath>
<clipPath id="clip55">
  <path d="M 379.46875 63 L 488.4375 63 L 488.4375 155 L 379.46875 155 Z M 379.46875 63 "/>
</clipPath>
<clipPath id="clip56">
  <path d="M 379.46875 -20.585938 L 488.4375 -20.585938 L 488.4375 238.707031 L 379.46875 238.707031 Z M 379.46875 -20.585938 L 407.617188 105.5625 C 407.617188 113.683594 401.039062 120.261719 392.917969 120.261719 C 384.800781 120.261719 378.21875 113.683594 378.21875 105.5625 C 378.21875 97.445312 384.800781 90.863281 392.917969 90.863281 C 401.039062 90.863281 407.617188 97.445312 407.617188 105.5625 Z M 379.46875 -20.585938 "/>
</clipPath>
<clipPath id="clip57">
  <path d="M 379.46875 -20.585938 L 488.4375 -20.585938 L 488.4375 238.707031 L 379.46875 238.707031 Z M 379.46875 -20.585938 L 489.691406 112.5625 C 489.691406 120.679688 483.109375 127.261719 474.992188 127.261719 C 466.871094 127.261719 460.289062 120.679688 460.289062 112.5625 C 460.289062 104.441406 466.871094 97.859375 474.992188 97.859375 C 483.109375 97.859375 489.691406 104.441406 489.691406 112.5625 Z M 379.46875 -20.585938 "/>
</clipPath>
<clipPath id="clip58">
  <path d="M 249 275.292969 L 335 275.292969 L 335 376.796875 L 249 376.796875 Z M 249 275.292969 "/>
</clipPath>
<clipPath id="clip59">
  <path d="M 164.832031 275.292969 L 419.15625 275.292969 L 419.15625 376.796875 L 164.832031 376.796875 Z M 164.832031 275.292969 L 307.273438 279.777344 C 307.273438 287.894531 300.691406 294.476562 292.574219 294.476562 C 284.457031 294.476562 277.875 287.894531 277.875 279.777344 C 277.875 271.660156 284.457031 265.078125 292.574219 265.078125 C 300.691406 265.078125 307.273438 271.660156 307.273438 279.777344 Z M 164.832031 275.292969 "/>
</clipPath>
<clipPath id="clip60">
  <path d="M 164.832031 275.292969 L 419.15625 275.292969 L 419.15625 376.796875 L 164.832031 376.796875 Z M 164.832031 275.292969 L 306.117188 372.316406 C 306.117188 380.433594 299.539062 387.015625 291.417969 387.015625 C 283.300781 387.015625 276.71875 380.433594 276.71875 372.316406 C 276.71875 364.195312 283.300781 357.617188 291.417969 357.617188 C 299.539062 357.617188 306.117188 364.195312 306.117188 372.316406 Z M 164.832031 275.292969 "/>
</clipPath>
<clipPath id="clip61">
  <path d="M 249 330 L 352 330 L 352 457 L 249 457 Z M 249 330 "/>
</clipPath>
<clipPath id="clip62">
  <path d="M 175.34375 319.460938 L 426.339844 319.460938 L 426.339844 467.894531 L 175.34375 467.894531 Z M 175.34375 319.460938 L 306.117188 372.316406 C 306.117188 380.433594 299.539062 387.015625 291.417969 387.015625 C 283.300781 387.015625 276.71875 380.433594 276.71875 372.316406 C 276.71875 364.195312 283.300781 357.617188 291.417969 357.617188 C 299.539062 357.617188 306.117188 364.195312 306.117188 372.316406 Z M 175.34375 319.460938 "/>
</clipPath>
<clipPath id="clip63">
  <path d="M 175.34375 319.460938 L 426.339844 319.460938 L 426.339844 467.894531 L 175.34375 467.894531 Z M 175.34375 319.460938 L 324.96875 415.042969 C 324.96875 423.160156 318.386719 429.742188 310.269531 429.742188 C 302.152344 429.742188 295.570312 423.160156 295.570312 415.042969 C 295.570312 406.925781 302.152344 400.34375 310.269531 400.34375 C 318.386719 400.34375 324.96875 406.925781 324.96875 415.042969 Z M 175.34375 319.460938 "/>
</clipPath>
<clipPath id="clip64">
  <path d="M 249 330 L 453 330 L 453 491 L 249 491 Z M 249 330 "/>
</clipPath>
<clipPath id="clip65">
  <path d="M 221.71875 265.289062 L 480.253906 265.289062 L 480.253906 555.753906 L 221.71875 555.753906 Z M 221.71875 265.289062 L 306.117188 372.316406 C 306.117188 380.433594 299.539062 387.015625 291.417969 387.015625 C 283.300781 387.015625 276.71875 380.433594 276.71875 372.316406 C 276.71875 364.195312 283.300781 357.617188 291.417969 357.617188 C 299.539062 357.617188 306.117188 364.195312 306.117188 372.316406 Z M 221.71875 265.289062 "/>
</clipPath>
<clipPath id="clip66">
  <path d="M 221.71875 265.289062 L 480.253906 265.289062 L 480.253906 555.753906 L 221.71875 555.753906 Z M 221.71875 265.289062 L 425.257812 448.730469 C 425.257812 456.847656 418.675781 463.429688 410.558594 463.429688 C 402.4375 463.429688 395.859375 456.847656 395.859375 448.730469 C 395.859375 440.613281 402.4375 434.03125 410.558594 434.03125 C 418.675781 434.03125 425.257812 440.613281 425.257812 448.730469 Z M 221.71875 265.289062 "/>
</clipPath>
<clipPath id="clip67">
  <path d="M 219 333.746094 L 333 333.746094 L 333 512.21875 L 219 512.21875 Z M 219 333.746094 "/>
</clipPath>
<clipPath id="clip68">
  <path d="M 139.574219 333.746094 L 412.765625 333.746094 L 412.765625 512.21875 L 139.574219 512.21875 Z M 139.574219 333.746094 L 306.117188 372.316406 C 306.117188 380.433594 299.539062 387.015625 291.417969 387.015625 C 283.300781 387.015625 276.71875 380.433594 276.71875 372.316406 C 276.71875 364.195312 283.300781 357.617188 291.417969 357.617188 C 299.539062 357.617188 306.117188 364.195312 306.117188 372.316406 Z M 139.574219 333.746094 "/>
</clipPath>
<clipPath id="clip69">
  <path d="M 139.574219 333.746094 L 412.765625 333.746094 L 412.765625 512.21875 L 139.574219 512.21875 Z M 139.574219 333.746094 L 275.625 473.652344 C 275.625 481.773438 269.042969 488.355469 260.925781 488.355469 C 252.808594 488.355469 246.226562 481.773438 246.226562 473.652344 C 246.226562 465.535156 252.808594 458.953125 260.925781 458.953125 C 269.042969 458.953125 275.625 465.535156 275.625 473.652344 Z M 139.574219 333.746094 "/>
</clipPath>
<clipPath id="clip70">
  <path d="M 433 34 L 530 34 L 530 155 L 433 155 Z M 433 34 "/>
</clipPath>
<clipPath id="clip71">
  <path d="M 355.621094 31.019531 L 607.578125 31.019531 L 607.578125 157.148438 L 355.621094 157.148438 Z M 355.621094 31.019531 L 502.910156 75.609375 C 502.910156 83.730469 496.328125 90.308594 488.210938 90.308594 C 480.09375 90.308594 473.511719 83.730469 473.511719 75.609375 C 473.511719 67.492188 480.09375 60.910156 488.210938 60.910156 C 496.328125 60.910156 502.910156 67.492188 502.910156 75.609375 Z M 355.621094 31.019531 "/>
</clipPath>
<clipPath id="clip72">
  <path d="M 355.621094 31.019531 L 607.578125 31.019531 L 607.578125 157.148438 L 355.621094 157.148438 Z M 355.621094 31.019531 L 489.691406 112.5625 C 489.691406 120.679688 483.109375 127.261719 474.992188 127.261719 C 466.871094 127.261719 460.289062 120.679688 460.289062 112.5625 C 460.289062 104.441406 466.871094 97.859375 474.992188 97.859375 C 483.109375 97.859375 489.691406 104.441406 489.691406 112.5625 Z M 355.621094 31.019531 "/>
</clipPath>
<clipPath id="clip73">
  <path d="M 433 70 L 570 70 L 570 201 L 433 201 Z M 433 70 "/>
</clipPath>
<clipPath id="clip74">
  <path d="M 390.464844 16.703125 L 612.113281 16.703125 L 612.113281 254.601562 L 390.464844 254.601562 Z M 390.464844 16.703125 L 489.691406 112.5625 C 489.691406 120.679688 483.109375 127.261719 474.992188 127.261719 C 466.871094 127.261719 460.289062 120.679688 460.289062 112.5625 C 460.289062 104.441406 466.871094 97.859375 474.992188 97.859375 C 483.109375 97.859375 489.691406 104.441406 489.691406 112.5625 Z M 390.464844 16.703125 "/>
</clipPath>
<clipPath id="clip75">
  <path d="M 390.464844 16.703125 L 612.113281 16.703125 L 612.113281 254.601562 L 390.464844 254.601562 Z M 390.464844 16.703125 L 542.289062 158.746094 C 542.289062 166.863281 535.707031 173.445312 527.589844 173.445312 C 519.472656 173.445312 512.890625 166.863281 512.890625 158.746094 C 512.890625 150.628906 519.472656 144.046875 527.589844 144.046875 C 535.707031 144.046875 542.289062 150.628906 542.289062 158.746094 Z M 390.464844 16.703125 "/>
</clipPath>
<clipPath id="clip76">
  <path d="M 357 423.902344 L 453 423.902344 L 453 537.722656 L 357 537.722656 Z M 357 423.902344 "/>
</clipPath>
<clipPath id="clip77">
  <path d="M 274.375 423.902344 L 535.199219 423.902344 L 535.199219 537.722656 L 274.375 537.722656 Z M 274.375 423.902344 L 425.257812 448.730469 C 425.257812 456.847656 418.675781 463.429688 410.558594 463.429688 C 402.4375 463.429688 395.859375 456.847656 395.859375 448.730469 C 395.859375 440.613281 402.4375 434.03125 410.558594 434.03125 C 418.675781 434.03125 425.257812 440.613281 425.257812 448.730469 Z M 274.375 423.902344 "/>
</clipPath>
<clipPath id="clip78">
  <path d="M 274.375 423.902344 L 535.199219 423.902344 L 535.199219 537.722656 L 274.375 537.722656 Z M 274.375 423.902344 L 413.722656 512.898438 C 413.722656 521.019531 407.140625 527.601562 399.019531 527.601562 C 390.902344 527.601562 384.320312 521.019531 384.320312 512.898438 C 384.320312 504.78125 390.902344 498.199219 399.019531 498.199219 C 407.140625 498.199219 413.722656 504.78125 413.722656 512.898438 Z M 274.375 423.902344 "/>
</clipPath>
<clipPath id="clip79">
  <path d="M 368 407 L 486 407 L 486 534 L 368 534 Z M 368 407 "/>
</clipPath>
<clipPath id="clip80">
  <path d="M 309.238281 370.878906 L 544.992188 370.878906 L 544.992188 570.070312 L 309.238281 570.070312 Z M 309.238281 370.878906 L 425.257812 448.730469 C 425.257812 456.847656 418.675781 463.429688 410.558594 463.429688 C 402.4375 463.429688 395.859375 456.847656 395.859375 448.730469 C 395.859375 440.613281 402.4375 434.03125 410.558594 434.03125 C 418.675781 434.03125 425.257812 440.613281 425.257812 448.730469 Z M 309.238281 370.878906 "/>
</clipPath>
<clipPath id="clip81">
  <path d="M 309.238281 370.878906 L 544.992188 370.878906 L 544.992188 570.070312 L 309.238281 570.070312 Z M 309.238281 370.878906 L 458.375 492.222656 C 458.375 500.339844 451.792969 506.921875 443.675781 506.921875 C 435.558594 506.921875 428.976562 500.339844 428.976562 492.222656 C 428.976562 484.105469 435.558594 477.523438 443.675781 477.523438 C 451.792969 477.523438 458.375 484.105469 458.375 492.222656 Z M 309.238281 370.878906 "/>
</clipPath>
<clipPath id="clip82">
  <path d="M 368 367 L 538 367 L 538 491 L 368 491 Z M 368 367 "/>
</clipPath>
<clipPath id="clip83">
  <path d="M 355.347656 293.753906 L 551.460938 293.753906 L 551.460938 563.734375 L 355.347656 563.734375 Z M 355.347656 293.753906 L 425.257812 448.730469 C 425.257812 456.847656 418.675781 463.429688 410.558594 463.429688 C 402.4375 463.429688 395.859375 456.847656 395.859375 448.730469 C 395.859375 440.613281 402.4375 434.03125 410.558594 434.03125 C 418.675781 434.03125 425.257812 440.613281 425.257812 448.730469 Z M 355.347656 293.753906 "/>
</clipPath>
<clipPath id="clip84">
  <path d="M 355.347656 293.753906 L 551.460938 293.753906 L 551.460938 563.734375 L 355.347656 563.734375 Z M 355.347656 293.753906 L 510.953125 408.761719 C 510.953125 416.882812 504.371094 423.464844 496.253906 423.464844 C 488.136719 423.464844 481.554688 416.882812 481.554688 408.761719 C 481.554688 400.644531 488.136719 394.0625 496.253906 394.0625 C 504.371094 394.0625 510.953125 400.644531 510.953125 408.761719 Z M 355.347656 293.753906 "/>
</clipPath>
<clipPath id="clip85">
  <path d="M 166.800781 7 L 227.25 7 L 227.25 92 L 166.800781 92 Z M 166.800781 7 "/>
</clipPath>
<clipPath id="clip86">
  <path d="M 166.800781 -77.800781 L 227.25 -77.800781 L 227.25 176.207031 L 166.800781 176.207031 Z M 166.800781 -77.800781 L 186.539062 49.632812 C 186.539062 57.75 179.957031 64.332031 171.839844 64.332031 C 163.71875 64.332031 157.136719 57.75 157.136719 49.632812 C 157.136719 41.511719 163.71875 34.929688 171.839844 34.929688 C 179.957031 34.929688 186.539062 41.511719 186.539062 49.632812 Z M 166.800781 -77.800781 "/>
</clipPath>
<clipPath id="clip87">
  <path d="M 166.800781 -77.800781 L 227.25 -77.800781 L 227.25 176.207031 L 166.800781 176.207031 Z M 166.800781 -77.800781 L 236.914062 48.777344 C 236.914062 56.894531 230.332031 63.476562 222.214844 63.476562 C 214.097656 63.476562 207.515625 56.894531 207.515625 48.777344 C 207.515625 40.660156 214.097656 34.078125 222.214844 34.078125 C 230.332031 34.078125 236.914062 40.660156 236.914062 48.777344 Z M 166.800781 -77.800781 "/>
</clipPath>
<clipPath id="clip88">
  <path d="M 92 8 L 214 8 L 214 110 L 92 110 Z M 92 8 "/>
</clipPath>
<clipPath id="clip89">
  <path d="M 76.59375 -64.394531 L 229.097656 -64.394531 L 229.097656 182.230469 L 76.59375 182.230469 Z M 76.59375 -64.394531 L 186.539062 49.632812 C 186.539062 57.75 179.957031 64.332031 171.839844 64.332031 C 163.71875 64.332031 157.136719 57.75 157.136719 49.632812 C 157.136719 41.511719 163.71875 34.929688 171.839844 34.929688 C 179.957031 34.929688 186.539062 41.511719 186.539062 49.632812 Z M 76.59375 -64.394531 "/>
</clipPath>
<clipPath id="clip90">
  <path d="M 76.59375 -64.394531 L 229.097656 -64.394531 L 229.097656 182.230469 L 76.59375 182.230469 Z M 76.59375 -64.394531 L 148.554688 68.207031 C 148.554688 76.324219 141.972656 82.90625 133.855469 82.90625 C 125.734375 82.90625 119.15625 76.324219 119.15625 68.207031 C 119.15625 60.089844 125.734375 53.507812 133.855469 53.507812 C 141.972656 53.507812 148.554688 60.089844 148.554688 68.207031 Z M 76.59375 -64.394531 "/>
</clipPath>
<clipPath id="clip91">
  <path d="M 180 7 L 306 7 L 306 139 L 180 139 Z M 180 7 "/>
</clipPath>
<clipPath id="clip92">
  <path d="M 125.882812 -35.210938 L 360.308594 -35.210938 L 360.308594 180.886719 L 125.882812 180.886719 Z M 125.882812 -35.210938 L 236.914062 48.777344 C 236.914062 56.894531 230.332031 63.476562 222.214844 63.476562 C 214.097656 63.476562 207.515625 56.894531 207.515625 48.777344 C 207.515625 40.660156 214.097656 34.078125 222.214844 34.078125 C 230.332031 34.078125 236.914062 40.660156 236.914062 48.777344 Z M 125.882812 -35.210938 "/>
</clipPath>
<clipPath id="clip93">
  <path d="M 125.882812 -35.210938 L 360.308594 -35.210938 L 360.308594 180.886719 L 125.882812 180.886719 Z M 125.882812 -35.210938 L 278.679688 96.902344 C 278.679688 105.019531 272.101562 111.601562 263.980469 111.601562 C 255.863281 111.601562 249.28125 105.019531 249.28125 96.902344 C 249.28125 88.785156 255.863281 82.203125 263.980469 82.203125 C 272.101562 82.203125 278.679688 88.785156 278.679688 96.902344 Z M 125.882812 -35.210938 "/>
</clipPath>
<clipPath id="clip94">
  <path d="M 183 488 L 285 488 L 285 600 L 183 600 Z M 183 488 "/>
</clipPath>
<clipPath id="clip95">
  <path d="M 117.277344 462.3125 L 351.101562 462.3125 L 351.101562 625.726562 L 117.277344 625.726562 Z M 117.277344 462.3125 L 240.273438 558.050781 C 240.273438 566.167969 233.691406 572.75 225.570312 572.75 C 217.453125 572.75 210.871094 566.167969 210.871094 558.050781 C 210.871094 549.933594 217.453125 543.351562 225.570312 543.351562 C 233.691406 543.351562 240.273438 549.933594 240.273438 558.050781 Z M 117.277344 462.3125 "/>
</clipPath>
<clipPath id="clip96">
  <path d="M 117.277344 462.3125 L 351.101562 462.3125 L 351.101562 625.726562 L 117.277344 625.726562 Z M 117.277344 462.3125 L 257.511719 529.992188 C 257.511719 538.109375 250.929688 544.691406 242.8125 544.691406 C 234.691406 544.691406 228.109375 538.109375 228.109375 529.992188 C 228.109375 521.871094 234.691406 515.292969 242.8125 515.292969 C 250.929688 515.292969 257.511719 521.871094 257.511719 529.992188 Z M 117.277344 462.3125 "/>
</clipPath>
<clipPath id="clip97">
  <path d="M 201 432.863281 L 303 432.863281 L 303 570.777344 L 201 570.777344 Z M 201 432.863281 "/>
</clipPath>
<clipPath id="clip98">
  <path d="M 122.152344 432.863281 L 381.582031 432.863281 L 381.582031 570.777344 L 122.152344 570.777344 Z M 122.152344 432.863281 L 275.625 473.652344 C 275.625 481.773438 269.042969 488.355469 260.925781 488.355469 C 252.808594 488.355469 246.226562 481.773438 246.226562 473.652344 C 246.226562 465.535156 252.808594 458.953125 260.925781 458.953125 C 269.042969 458.953125 275.625 465.535156 275.625 473.652344 Z M 122.152344 432.863281 "/>
</clipPath>
<clipPath id="clip99">
  <path d="M 122.152344 432.863281 L 381.582031 432.863281 L 381.582031 570.777344 L 122.152344 570.777344 Z M 122.152344 432.863281 L 257.511719 529.992188 C 257.511719 538.109375 250.929688 544.691406 242.8125 544.691406 C 234.691406 544.691406 228.109375 538.109375 228.109375 529.992188 C 228.109375 521.871094 234.691406 515.292969 242.8125 515.292969 C 250.929688 515.292969 257.511719 521.871094 257.511719 529.992188 Z M 122.152344 432.863281 "/>
</clipPath>
<clipPath id="clip100">
  <path d="M 486 117 L 598 117 L 598 236 L 486 236 Z M 486 117 "/>
</clipPath>
<clipPath id="clip101">
  <path d="M 428.878906 77.582031 L 654.835938 77.582031 L 654.835938 274.847656 L 428.878906 274.847656 Z M 428.878906 77.582031 L 542.289062 158.746094 C 542.289062 166.863281 535.707031 173.445312 527.589844 173.445312 C 519.472656 173.445312 512.890625 166.863281 512.890625 158.746094 C 512.890625 150.628906 519.472656 144.046875 527.589844 144.046875 C 535.707031 144.046875 542.289062 150.628906 542.289062 158.746094 Z M 428.878906 77.582031 "/>
</clipPath>
<clipPath id="clip102">
  <path d="M 428.878906 77.582031 L 654.835938 77.582031 L 654.835938 274.847656 L 428.878906 274.847656 Z M 428.878906 77.582031 L 570.828125 193.6875 C 570.828125 201.804688 564.246094 208.386719 556.128906 208.386719 C 548.007812 208.386719 541.425781 201.804688 541.425781 193.6875 C 541.425781 185.570312 548.007812 178.988281 556.128906 178.988281 C 564.246094 178.988281 570.828125 185.570312 570.828125 193.6875 Z M 428.878906 77.582031 "/>
</clipPath>
<clipPath id="clip103">
  <path d="M 454 367 L 573 367 L 573 471 L 454 471 Z M 454 367 "/>
</clipPath>
<clipPath id="clip104">
  <path d="M 432.472656 298.167969 L 595.054688 298.167969 L 595.054688 539.144531 L 432.472656 539.144531 Z M 432.472656 298.167969 L 545.976562 428.554688 C 545.976562 436.671875 539.394531 443.253906 531.277344 443.253906 C 523.160156 443.253906 516.578125 436.671875 516.578125 428.554688 C 516.578125 420.4375 523.160156 413.855469 531.277344 413.855469 C 539.394531 413.855469 545.976562 420.4375 545.976562 428.554688 Z M 432.472656 298.167969 "/>
</clipPath>
<clipPath id="clip105">
  <path d="M 432.472656 298.167969 L 595.054688 298.167969 L 595.054688 539.144531 L 432.472656 539.144531 Z M 432.472656 298.167969 L 510.953125 408.761719 C 510.953125 416.882812 504.371094 423.464844 496.253906 423.464844 C 488.136719 423.464844 481.554688 416.882812 481.554688 408.761719 C 481.554688 400.644531 488.136719 394.0625 496.253906 394.0625 C 504.371094 394.0625 510.953125 400.644531 510.953125 408.761719 Z M 432.472656 298.167969 "/>
</clipPath>
<clipPath id="clip106">
  <path d="M 498 277 L 600 277 L 600 397 L 498 397 Z M 498 277 "/>
</clipPath>
<clipPath id="clip107">
  <path d="M 436.425781 244.691406 L 669.15625 244.691406 L 669.15625 429.492188 L 436.425781 429.492188 Z M 436.425781 244.691406 L 580.148438 319.296875 C 580.148438 327.414062 573.566406 333.996094 565.449219 333.996094 C 557.332031 333.996094 550.75 327.414062 550.75 319.296875 C 550.75 311.179688 557.332031 304.597656 565.449219 304.597656 C 573.566406 304.597656 580.148438 311.179688 580.148438 319.296875 Z M 436.425781 244.691406 "/>
</clipPath>
<clipPath id="clip108">
  <path d="M 436.425781 244.691406 L 669.15625 244.691406 L 669.15625 429.492188 L 436.425781 429.492188 Z M 436.425781 244.691406 L 554.835938 354.890625 C 554.835938 363.007812 548.253906 369.589844 540.136719 369.589844 C 532.015625 369.589844 525.433594 363.007812 525.433594 354.890625 C 525.433594 346.773438 532.015625 340.191406 540.136719 340.191406 C 548.253906 340.191406 554.835938 346.773438 554.835938 354.890625 Z M 436.425781 244.691406 "/>
</clipPath>
<clipPath id="clip109">
  <path d="M 454 313 L 582 313 L 582 451 L 454 451 Z M 454 313 "/>
</clipPath>
<clipPath id="clip110">
  <path d="M 397.441406 273.851562 L 638.945312 273.851562 L 638.945312 489.796875 L 397.441406 489.796875 Z M 397.441406 273.851562 L 554.835938 354.890625 C 554.835938 363.007812 548.253906 369.589844 540.136719 369.589844 C 532.015625 369.589844 525.433594 363.007812 525.433594 354.890625 C 525.433594 346.773438 532.015625 340.191406 540.136719 340.191406 C 548.253906 340.191406 554.835938 346.773438 554.835938 354.890625 Z M 397.441406 273.851562 "/>
</clipPath>
<clipPath id="clip111">
  <path d="M 397.441406 273.851562 L 638.945312 273.851562 L 638.945312 489.796875 L 397.441406 489.796875 Z M 397.441406 273.851562 L 510.953125 408.761719 C 510.953125 416.882812 504.371094 423.464844 496.253906 423.464844 C 488.136719 423.464844 481.554688 416.882812 481.554688 408.761719 C 481.554688 400.644531 488.136719 394.0625 496.253906 394.0625 C 504.371094 394.0625 510.953125 400.644531 510.953125 408.761719 Z M 397.441406 273.851562 "/>
</clipPath>
</defs>
<g id="surface811">
<g clip-path="url(#clip1)" clip-rule="nonzero">
<g clip-path="url(#clip2)" clip-rule="evenodd">
<g clip-path="url(#clip3)" clip-rule="evenodd">
<path style="fill:none;stroke-width:0.0237757;stroke-linecap:butt;stroke-linejoin:miter;stroke:rgb(17.96875%,20.3125%,21.09375%);stroke-opacity:0.8;stroke-miterlimit:10;" d="M 0.819953 2.600737 L 0.944955 3.269688 " transform="matrix(123.654449,0,0,123.654449,-43.687732,-50.362232)"/>
</g>
</g>
</g>
<g clip-path="url(#clip4)" clip-rule="nonzero">
<g clip-path="url(#clip5)" clip-rule="evenodd">
<g clip-path="url(#clip6)" clip-rule="evenodd">
<path style="fill:none;stroke-width:0.0237757;stroke-linecap:butt;stroke-linejoin:miter;stroke:rgb(17.96875%,20.3125%,21.09375%);stroke-opacity:0.8;stroke-miterlimit:10;" d="M 0.819953 2.600737 L 0.898644 2.123696 " transform="matrix(123.654449,0,0,123.654449,-43.687732,-50.362232)"/>
</g>
</g>
</g>
<g clip-path="url(#clip7)" clip-rule="nonzero">
<g clip-path="url(#clip8)" clip-rule="evenodd">
<g clip-path="url(#clip9)" clip-rule="evenodd">
<path style="fill:none;stroke-width:0.0237757;stroke-linecap:butt;stroke-linejoin:miter;stroke:rgb(17.96875%,20.3125%,21.09375%);stroke-opacity:0.8;stroke-miterlimit:10;" d="M 0.819953 2.600737 L 0.632719 2.380839 " transform="matrix(123.654449,0,0,123.654449,-43.687732,-50.362232)"/>
</g>
</g>
</g>
<g clip-path="url(#clip10)" clip-rule="nonzero">
<g clip-path="url(#clip11)" clip-rule="evenodd">
<g clip-path="url(#clip12)" clip-rule="evenodd">
<path style="fill:none;stroke-width:0.0237757;stroke-linecap:butt;stroke-linejoin:miter;stroke:rgb(17.96875%,20.3125%,21.09375%);stroke-opacity:0.8;stroke-miterlimit:10;" d="M 1.688711 3.653033 L 1.234446 3.49821 " transform="matrix(123.654449,0,0,123.654449,-43.687732,-50.362232)"/>
</g>
</g>
</g>
<g clip-path="url(#clip13)" clip-rule="nonzero">
<g clip-path="url(#clip14)" clip-rule="evenodd">
<g clip-path="url(#clip15)" clip-rule="evenodd">
<path style="fill:none;stroke-width:0.0237757;stroke-linecap:butt;stroke-linejoin:miter;stroke:rgb(17.96875%,20.3125%,21.09375%);stroke-opacity:0.8;stroke-miterlimit:10;" d="M 1.688711 3.653033 L 1.163147 3.752573 " transform="matrix(123.654449,0,0,123.654449,-43.687732,-50.362232)"/>
</g>
</g>
</g>
<g clip-path="url(#clip16)" clip-rule="nonzero">
<g clip-path="url(#clip17)" clip-rule="evenodd">
<g clip-path="url(#clip18)" clip-rule="evenodd">
<path style="fill:none;stroke-width:0.0237757;stroke-linecap:butt;stroke-linejoin:miter;stroke:rgb(17.96875%,20.3125%,21.09375%);stroke-opacity:0.8;stroke-miterlimit:10;" d="M 1.688711 3.653033 L 2.710017 3.418224 " transform="matrix(123.654449,0,0,123.654449,-43.687732,-50.362232)"/>
</g>
</g>
</g>
<g clip-path="url(#clip19)" clip-rule="nonzero">
<g clip-path="url(#clip20)" clip-rule="evenodd">
<g clip-path="url(#clip21)" clip-rule="evenodd">
<path style="fill:none;stroke-width:0.0237757;stroke-linecap:butt;stroke-linejoin:miter;stroke:rgb(17.96875%,20.3125%,21.09375%);stroke-opacity:0.8;stroke-miterlimit:10;" d="M 1.234446 3.49821 L 0.944955 3.269688 " transform="matrix(123.654449,0,0,123.654449,-43.687732,-50.362232)"/>
</g>
</g>
</g>
<g clip-path="url(#clip22)" clip-rule="nonzero">
<g clip-path="url(#clip23)" clip-rule="evenodd">
<g clip-path="url(#clip24)" clip-rule="evenodd">
<path style="fill:none;stroke-width:0.0237757;stroke-linecap:butt;stroke-linejoin:miter;stroke:rgb(17.96875%,20.3125%,21.09375%);stroke-opacity:0.8;stroke-miterlimit:10;" d="M 0.944955 3.269688 L 1.163147 3.752573 " transform="matrix(123.654449,0,0,123.654449,-43.687732,-50.362232)"/>
</g>
</g>
</g>
<g clip-path="url(#clip25)" clip-rule="nonzero">
<g clip-path="url(#clip26)" clip-rule="evenodd">
<g clip-path="url(#clip27)" clip-rule="evenodd">
<path style="fill:none;stroke-width:0.0237757;stroke-linecap:butt;stroke-linejoin:miter;stroke:rgb(17.96875%,20.3125%,21.09375%);stroke-opacity:0.8;stroke-miterlimit:10;" d="M 2.558827 2.23066 L 2.881962 2.074289 " transform="matrix(123.654449,0,0,123.654449,-43.687732,-50.362232)"/>
</g>
</g>
</g>
<g clip-path="url(#clip28)" clip-rule="nonzero">
<g clip-path="url(#clip29)" clip-rule="evenodd">
<g clip-path="url(#clip30)" clip-rule="evenodd">
<path style="fill:none;stroke-width:0.0237757;stroke-linecap:butt;stroke-linejoin:miter;stroke:rgb(17.96875%,20.3125%,21.09375%);stroke-opacity:0.8;stroke-miterlimit:10;" d="M 2.558827 2.23066 L 2.719368 2.669856 " transform="matrix(123.654449,0,0,123.654449,-43.687732,-50.362232)"/>
</g>
</g>
</g>
<g clip-path="url(#clip31)" clip-rule="nonzero">
<g clip-path="url(#clip32)" clip-rule="evenodd">
<g clip-path="url(#clip33)" clip-rule="evenodd">
<path style="fill:none;stroke-width:0.0237757;stroke-linecap:butt;stroke-linejoin:miter;stroke:rgb(17.96875%,20.3125%,21.09375%);stroke-opacity:0.8;stroke-miterlimit:10;" d="M 2.558827 2.23066 L 2.461593 1.917855 " transform="matrix(123.654449,0,0,123.654449,-43.687732,-50.362232)"/>
</g>
</g>
</g>
<g clip-path="url(#clip34)" clip-rule="nonzero">
<g clip-path="url(#clip35)" clip-rule="evenodd">
<g clip-path="url(#clip36)" clip-rule="evenodd">
<path style="fill:none;stroke-width:0.0237757;stroke-linecap:butt;stroke-linejoin:miter;stroke:rgb(17.96875%,20.3125%,21.09375%);stroke-opacity:0.8;stroke-miterlimit:10;" d="M 3.441453 0.746528 L 3.530853 1.260971 " transform="matrix(123.654449,0,0,123.654449,-43.687732,-50.362232)"/>
</g>
</g>
</g>
<g clip-path="url(#clip37)" clip-rule="nonzero">
<g clip-path="url(#clip38)" clip-rule="evenodd">
<g clip-path="url(#clip39)" clip-rule="evenodd">
<path style="fill:none;stroke-width:0.0237757;stroke-linecap:butt;stroke-linejoin:miter;stroke:rgb(17.96875%,20.3125%,21.09375%);stroke-opacity:0.8;stroke-miterlimit:10;" d="M 2.881962 2.074289 L 3.530853 1.260971 " transform="matrix(123.654449,0,0,123.654449,-43.687732,-50.362232)"/>
</g>
</g>
</g>
<g clip-path="url(#clip40)" clip-rule="nonzero">
<g clip-path="url(#clip41)" clip-rule="evenodd">
<g clip-path="url(#clip42)" clip-rule="evenodd">
<path style="fill:none;stroke-width:0.0237757;stroke-linecap:butt;stroke-linejoin:miter;stroke:rgb(17.96875%,20.3125%,21.09375%);stroke-opacity:0.8;stroke-miterlimit:10;" d="M 2.881962 2.074289 L 2.719368 2.669856 " transform="matrix(123.654449,0,0,123.654449,-43.687732,-50.362232)"/>
</g>
</g>
</g>
<g clip-path="url(#clip43)" clip-rule="nonzero">
<g clip-path="url(#clip44)" clip-rule="evenodd">
<g clip-path="url(#clip45)" clip-rule="evenodd">
<path style="fill:none;stroke-width:0.0237757;stroke-linecap:butt;stroke-linejoin:miter;stroke:rgb(17.96875%,20.3125%,21.09375%);stroke-opacity:0.8;stroke-miterlimit:10;" d="M 2.881962 2.074289 L 2.710017 3.418224 " transform="matrix(123.654449,0,0,123.654449,-43.687732,-50.362232)"/>
</g>
</g>
</g>
<g clip-path="url(#clip46)" clip-rule="nonzero">
<g clip-path="url(#clip47)" clip-rule="evenodd">
<g clip-path="url(#clip48)" clip-rule="evenodd">
<path style="fill:none;stroke-width:0.0237757;stroke-linecap:butt;stroke-linejoin:miter;stroke:rgb(17.96875%,20.3125%,21.09375%);stroke-opacity:0.8;stroke-miterlimit:10;" d="M 2.881962 2.074289 L 2.461593 1.917855 " transform="matrix(123.654449,0,0,123.654449,-43.687732,-50.362232)"/>
</g>
</g>
</g>
<g clip-path="url(#clip49)" clip-rule="nonzero">
<g clip-path="url(#clip50)" clip-rule="evenodd">
<g clip-path="url(#clip51)" clip-rule="evenodd">
<path style="fill:none;stroke-width:0.0237757;stroke-linecap:butt;stroke-linejoin:miter;stroke:rgb(17.96875%,20.3125%,21.09375%);stroke-opacity:0.8;stroke-miterlimit:10;" d="M 2.881962 2.074289 L 3.441295 2.069298 " transform="matrix(123.654449,0,0,123.654449,-43.687732,-50.362232)"/>
</g>
</g>
</g>
<g clip-path="url(#clip52)" clip-rule="nonzero">
<g clip-path="url(#clip53)" clip-rule="evenodd">
<g clip-path="url(#clip54)" clip-rule="evenodd">
<path style="fill:none;stroke-width:0.0237757;stroke-linecap:butt;stroke-linejoin:miter;stroke:rgb(17.96875%,20.3125%,21.09375%);stroke-opacity:0.8;stroke-miterlimit:10;" d="M 2.881962 2.074289 L 2.488129 1.190936 " transform="matrix(123.654449,0,0,123.654449,-43.687732,-50.362232)"/>
</g>
</g>
</g>
<g clip-path="url(#clip55)" clip-rule="nonzero">
<g clip-path="url(#clip56)" clip-rule="evenodd">
<g clip-path="url(#clip57)" clip-rule="evenodd">
<path style="fill:none;stroke-width:0.0237757;stroke-linecap:butt;stroke-linejoin:miter;stroke:rgb(17.96875%,20.3125%,21.09375%);stroke-opacity:0.8;stroke-miterlimit:10;" d="M 3.530853 1.260971 L 4.194592 1.317581 " transform="matrix(123.654449,0,0,123.654449,-43.687732,-50.362232)"/>
</g>
</g>
</g>
<g clip-path="url(#clip58)" clip-rule="nonzero">
<g clip-path="url(#clip59)" clip-rule="evenodd">
<g clip-path="url(#clip60)" clip-rule="evenodd">
<path style="fill:none;stroke-width:0.0237757;stroke-linecap:butt;stroke-linejoin:miter;stroke:rgb(17.96875%,20.3125%,21.09375%);stroke-opacity:0.8;stroke-miterlimit:10;" d="M 2.719368 2.669856 L 2.710017 3.418224 " transform="matrix(123.654449,0,0,123.654449,-43.687732,-50.362232)"/>
</g>
</g>
</g>
<g clip-path="url(#clip61)" clip-rule="nonzero">
<g clip-path="url(#clip62)" clip-rule="evenodd">
<g clip-path="url(#clip63)" clip-rule="evenodd">
<path style="fill:none;stroke-width:0.0237757;stroke-linecap:butt;stroke-linejoin:miter;stroke:rgb(17.96875%,20.3125%,21.09375%);stroke-opacity:0.8;stroke-miterlimit:10;" d="M 2.710017 3.418224 L 2.862471 3.763756 " transform="matrix(123.654449,0,0,123.654449,-43.687732,-50.362232)"/>
</g>
</g>
</g>
<g clip-path="url(#clip64)" clip-rule="nonzero">
<g clip-path="url(#clip65)" clip-rule="evenodd">
<g clip-path="url(#clip66)" clip-rule="evenodd">
<path style="fill:none;stroke-width:0.0237757;stroke-linecap:butt;stroke-linejoin:miter;stroke:rgb(17.96875%,20.3125%,21.09375%);stroke-opacity:0.8;stroke-miterlimit:10;" d="M 2.710017 3.418224 L 3.673514 4.036189 " transform="matrix(123.654449,0,0,123.654449,-43.687732,-50.362232)"/>
</g>
</g>
</g>
<g clip-path="url(#clip67)" clip-rule="nonzero">
<g clip-path="url(#clip68)" clip-rule="evenodd">
<g clip-path="url(#clip69)" clip-rule="evenodd">
<path style="fill:none;stroke-width:0.0237757;stroke-linecap:butt;stroke-linejoin:miter;stroke:rgb(17.96875%,20.3125%,21.09375%);stroke-opacity:0.8;stroke-miterlimit:10;" d="M 2.710017 3.418224 L 2.463425 4.237733 " transform="matrix(123.654449,0,0,123.654449,-43.687732,-50.362232)"/>
</g>
</g>
</g>
<g clip-path="url(#clip70)" clip-rule="nonzero">
<g clip-path="url(#clip71)" clip-rule="evenodd">
<g clip-path="url(#clip72)" clip-rule="evenodd">
<path style="fill:none;stroke-width:0.0237757;stroke-linecap:butt;stroke-linejoin:miter;stroke:rgb(17.96875%,20.3125%,21.09375%);stroke-opacity:0.8;stroke-miterlimit:10;" d="M 4.301492 1.018739 L 4.194592 1.317581 " transform="matrix(123.654449,0,0,123.654449,-43.687732,-50.362232)"/>
</g>
</g>
</g>
<g clip-path="url(#clip73)" clip-rule="nonzero">
<g clip-path="url(#clip74)" clip-rule="evenodd">
<g clip-path="url(#clip75)" clip-rule="evenodd">
<path style="fill:none;stroke-width:0.0237757;stroke-linecap:butt;stroke-linejoin:miter;stroke:rgb(17.96875%,20.3125%,21.09375%);stroke-opacity:0.8;stroke-miterlimit:10;" d="M 4.194592 1.317581 L 4.619952 1.69107 " transform="matrix(123.654449,0,0,123.654449,-43.687732,-50.362232)"/>
</g>
</g>
</g>
<g clip-path="url(#clip76)" clip-rule="nonzero">
<g clip-path="url(#clip77)" clip-rule="evenodd">
<g clip-path="url(#clip78)" clip-rule="evenodd">
<path style="fill:none;stroke-width:0.0237757;stroke-linecap:butt;stroke-linejoin:miter;stroke:rgb(17.96875%,20.3125%,21.09375%);stroke-opacity:0.8;stroke-miterlimit:10;" d="M 3.673514 4.036189 L 3.580197 4.555119 " transform="matrix(123.654449,0,0,123.654449,-43.687732,-50.362232)"/>
</g>
</g>
</g>
<g clip-path="url(#clip79)" clip-rule="nonzero">
<g clip-path="url(#clip80)" clip-rule="evenodd">
<g clip-path="url(#clip81)" clip-rule="evenodd">
<path style="fill:none;stroke-width:0.0237757;stroke-linecap:butt;stroke-linejoin:miter;stroke:rgb(17.96875%,20.3125%,21.09375%);stroke-opacity:0.8;stroke-miterlimit:10;" d="M 3.673514 4.036189 L 3.941334 4.387912 " transform="matrix(123.654449,0,0,123.654449,-43.687732,-50.362232)"/>
</g>
</g>
</g>
<g clip-path="url(#clip82)" clip-rule="nonzero">
<g clip-path="url(#clip83)" clip-rule="evenodd">
<g clip-path="url(#clip84)" clip-rule="evenodd">
<path style="fill:none;stroke-width:0.0237757;stroke-linecap:butt;stroke-linejoin:miter;stroke:rgb(17.96875%,20.3125%,21.09375%);stroke-opacity:0.8;stroke-miterlimit:10;" d="M 3.673514 4.036189 L 4.366536 3.712959 " transform="matrix(123.654449,0,0,123.654449,-43.687732,-50.362232)"/>
</g>
</g>
</g>
<g clip-path="url(#clip85)" clip-rule="nonzero">
<g clip-path="url(#clip86)" clip-rule="evenodd">
<g clip-path="url(#clip87)" clip-rule="evenodd">
<path style="fill:none;stroke-width:0.0237757;stroke-linecap:butt;stroke-linejoin:miter;stroke:rgb(17.96875%,20.3125%,21.09375%);stroke-opacity:0.8;stroke-miterlimit:10;" d="M 1.742983 0.808665 L 2.150368 0.801747 " transform="matrix(123.654449,0,0,123.654449,-43.687732,-50.362232)"/>
</g>
</g>
</g>
<g clip-path="url(#clip88)" clip-rule="nonzero">
<g clip-path="url(#clip89)" clip-rule="evenodd">
<g clip-path="url(#clip90)" clip-rule="evenodd">
<path style="fill:none;stroke-width:0.0237757;stroke-linecap:butt;stroke-linejoin:miter;stroke:rgb(17.96875%,20.3125%,21.09375%);stroke-opacity:0.8;stroke-miterlimit:10;" d="M 1.742983 0.808665 L 1.435801 0.958876 " transform="matrix(123.654449,0,0,123.654449,-43.687732,-50.362232)"/>
</g>
</g>
</g>
<g clip-path="url(#clip91)" clip-rule="nonzero">
<g clip-path="url(#clip92)" clip-rule="evenodd">
<g clip-path="url(#clip93)" clip-rule="evenodd">
<path style="fill:none;stroke-width:0.0237757;stroke-linecap:butt;stroke-linejoin:miter;stroke:rgb(17.96875%,20.3125%,21.09375%);stroke-opacity:0.8;stroke-miterlimit:10;" d="M 2.150368 0.801747 L 2.488129 1.190936 " transform="matrix(123.654449,0,0,123.654449,-43.687732,-50.362232)"/>
</g>
</g>
</g>
<g clip-path="url(#clip94)" clip-rule="nonzero">
<g clip-path="url(#clip95)" clip-rule="evenodd">
<g clip-path="url(#clip96)" clip-rule="evenodd">
<path style="fill:none;stroke-width:0.0237757;stroke-linecap:butt;stroke-linejoin:miter;stroke:rgb(17.96875%,20.3125%,21.09375%);stroke-opacity:0.8;stroke-miterlimit:10;" d="M 2.177504 4.920268 L 2.316942 4.693357 " transform="matrix(123.654449,0,0,123.654449,-43.687732,-50.362232)"/>
</g>
</g>
</g>
<g clip-path="url(#clip97)" clip-rule="nonzero">
<g clip-path="url(#clip98)" clip-rule="evenodd">
<g clip-path="url(#clip99)" clip-rule="evenodd">
<path style="fill:none;stroke-width:0.0237757;stroke-linecap:butt;stroke-linejoin:miter;stroke:rgb(17.96875%,20.3125%,21.09375%);stroke-opacity:0.8;stroke-miterlimit:10;" d="M 2.463425 4.237733 L 2.316942 4.693357 " transform="matrix(123.654449,0,0,123.654449,-43.687732,-50.362232)"/>
</g>
</g>
</g>
<g clip-path="url(#clip100)" clip-rule="nonzero">
<g clip-path="url(#clip101)" clip-rule="evenodd">
<g clip-path="url(#clip102)" clip-rule="evenodd">
<path style="fill:none;stroke-width:0.0237757;stroke-linecap:butt;stroke-linejoin:miter;stroke:rgb(17.96875%,20.3125%,21.09375%);stroke-opacity:0.8;stroke-miterlimit:10;" d="M 4.619952 1.69107 L 4.850749 1.973643 " transform="matrix(123.654449,0,0,123.654449,-43.687732,-50.362232)"/>
</g>
</g>
</g>
<g clip-path="url(#clip103)" clip-rule="nonzero">
<g clip-path="url(#clip104)" clip-rule="evenodd">
<g clip-path="url(#clip105)" clip-rule="evenodd">
<path style="fill:none;stroke-width:0.0237757;stroke-linecap:butt;stroke-linejoin:miter;stroke:rgb(17.96875%,20.3125%,21.09375%);stroke-opacity:0.8;stroke-miterlimit:10;" d="M 4.649773 3.873026 L 4.366536 3.712959 " transform="matrix(123.654449,0,0,123.654449,-43.687732,-50.362232)"/>
</g>
</g>
</g>
<g clip-path="url(#clip106)" clip-rule="nonzero">
<g clip-path="url(#clip107)" clip-rule="evenodd">
<g clip-path="url(#clip108)" clip-rule="evenodd">
<path style="fill:none;stroke-width:0.0237757;stroke-linecap:butt;stroke-linejoin:miter;stroke:rgb(17.96875%,20.3125%,21.09375%);stroke-opacity:0.8;stroke-miterlimit:10;" d="M 4.926122 2.989453 L 4.721419 3.277301 " transform="matrix(123.654449,0,0,123.654449,-43.687732,-50.362232)"/>
</g>
</g>
</g>
<g clip-path="url(#clip109)" clip-rule="nonzero">
<g clip-path="url(#clip110)" clip-rule="evenodd">
<g clip-path="url(#clip111)" clip-rule="evenodd">
<path style="fill:none;stroke-width:0.0237757;stroke-linecap:butt;stroke-linejoin:miter;stroke:rgb(17.96875%,20.3125%,21.09375%);stroke-opacity:0.8;stroke-miterlimit:10;" d="M 4.721419 3.277301 L 4.366536 3.712959 " transform="matrix(123.654449,0,0,123.654449,-43.687732,-50.362232)"/>
</g>
</g>
</g>
<path style="fill-rule:nonzero;fill:rgb(55.294118%,82.745098%,78.039216%);fill-opacity:1;stroke-width:0.0237757;stroke-linecap:butt;stroke-linejoin:miter;stroke:rgb(60%,60%,60%);stroke-opacity:0.8;stroke-miterlimit:10;" d="M 0.118867 0.00000493239 C 0.118867 0.0656491 0.0656698 0.118878 -0.000005877 0.118878 C -0.06565 0.118878 -0.118879 0.0656491 -0.118879 0.00000493239 C -0.118879 -0.0656392 -0.06565 -0.118868 -0.000005877 -0.118868 C 0.0656698 -0.118868 0.118867 -0.0656392 0.118867 0.00000493239 Z M 0.118867 0.00000493239 " transform="matrix(123.654449,0,0,123.654449,57.703852,271.229859)"/>
<path style="fill-rule:nonzero;fill:rgb(55.294118%,82.745098%,78.039216%);fill-opacity:1;stroke-width:0.0237757;stroke-linecap:butt;stroke-linejoin:miter;stroke:rgb(60%,60%,60%);stroke-opacity:0.8;stroke-miterlimit:10;" d="M 0.118874 0.0000103511 C 0.118874 0.0656545 0.065645 0.118884 0.000000868246 0.118884 C -0.0656433 0.118884 -0.118872 0.0656545 -0.118872 0.0000103511 C -0.118872 -0.0656654 -0.0656433 -0.118863 0.000000868246 -0.118863 C 0.065645 -0.118863 0.118874 -0.0656654 0.118874 0.0000103511 Z M 0.118874 0.0000103511 " transform="matrix(123.654449,0,0,123.654449,165.128799,401.350283)"/>
<path style="fill-rule:nonzero;fill:rgb(55.294118%,82.745098%,78.039216%);fill-opacity:1;stroke-width:0.0237757;stroke-linecap:butt;stroke-linejoin:miter;stroke:rgb(60%,60%,60%);stroke-opacity:0.8;stroke-miterlimit:10;" d="M 0.118875 -0.0000135267 C 0.118875 0.0656622 0.0656461 0.118891 0.00000196442 0.118891 C -0.0656422 0.118891 -0.118871 0.0656622 -0.118871 -0.0000135267 C -0.118871 -0.0656576 -0.0656422 -0.118887 0.00000196442 -0.118887 C 0.0656461 -0.118887 0.118875 -0.0656576 0.118875 -0.0000135267 Z M 0.118875 -0.0000135267 " transform="matrix(123.654449,0,0,123.654449,108.956788,382.208704)"/>
<path style="fill-rule:nonzero;fill:rgb(55.294118%,82.745098%,78.039216%);fill-opacity:1;stroke-width:0.0237757;stroke-linecap:butt;stroke-linejoin:miter;stroke:rgb(60%,60%,60%);stroke-opacity:0.8;stroke-miterlimit:10;" d="M 0.118867 -0.0000150986 C 0.118867 0.0656606 0.0656697 0.11889 -0.00000600128 0.11889 C -0.0656501 0.11889 -0.118879 0.0656606 -0.118879 -0.0000150986 C -0.118879 -0.0656592 -0.0656501 -0.118888 -0.00000600128 -0.118888 C 0.0656697 -0.118888 0.118867 -0.0656592 0.118867 -0.0000150986 Z M 0.118867 -0.0000150986 " transform="matrix(123.654449,0,0,123.654449,73.160898,353.951086)"/>
<path style="fill-rule:nonzero;fill:rgb(55.294118%,82.745098%,78.039216%);fill-opacity:1;stroke-width:0.0237757;stroke-linecap:butt;stroke-linejoin:miter;stroke:rgb(60%,60%,60%);stroke-opacity:0.8;stroke-miterlimit:10;" d="M 0.118865 0.00000784777 C 0.118865 0.065652 0.0656676 0.118881 -0.00000811492 0.118881 C -0.0656522 0.118881 -0.118881 0.065652 -0.118881 0.00000784777 C -0.118881 -0.0656679 -0.0656522 -0.118866 -0.00000811492 -0.118866 C 0.0656676 -0.118866 0.118865 -0.0656679 0.118865 0.00000784777 Z M 0.118865 0.00000784777 " transform="matrix(123.654449,0,0,123.654449,100.141628,413.659186)"/>
<path style="fill-rule:nonzero;fill:rgb(100%,92.941176%,43.529412%);fill-opacity:1;stroke-width:0.0237757;stroke-linecap:butt;stroke-linejoin:miter;stroke:rgb(60%,60%,60%);stroke-opacity:0.8;stroke-miterlimit:10;" d="M 0.118886 -0.00000919179 C 0.118886 0.0656665 0.0656563 0.118864 0.0000122019 0.118864 C -0.0656635 0.118864 -0.118893 0.0656665 -0.118893 -0.00000919179 C -0.118893 -0.0656533 -0.0656635 -0.118883 0.0000122019 -0.118883 C 0.0656563 -0.118883 0.118886 -0.0656533 0.118886 -0.00000919179 Z M 0.118886 -0.00000919179 " transform="matrix(123.654449,0,0,123.654449,272.721147,225.469887)"/>
<path style="fill-rule:nonzero;fill:rgb(100%,92.941176%,43.529412%);fill-opacity:1;stroke-width:0.0237757;stroke-linecap:butt;stroke-linejoin:miter;stroke:rgb(60%,60%,60%);stroke-opacity:0.8;stroke-miterlimit:10;" d="M 0.118884 0.0000017548 C 0.118884 0.0656459 0.0656548 0.118875 0.000010646 0.118875 C -0.0656651 0.118875 -0.118894 0.0656459 -0.118894 0.0000017548 C -0.118894 -0.0656424 -0.0656651 -0.118872 0.000010646 -0.118872 C 0.0656548 -0.118872 0.118884 -0.0656424 0.118884 0.0000017548 Z M 0.118884 0.0000017548 " transform="matrix(123.654449,0,0,123.654449,381.861965,41.949002)"/>
<path style="fill-rule:nonzero;fill:rgb(100%,92.941176%,43.529412%);fill-opacity:1;stroke-width:0.0237757;stroke-linecap:butt;stroke-linejoin:miter;stroke:rgb(60%,60%,60%);stroke-opacity:0.8;stroke-miterlimit:10;" d="M 0.118891 -0.00000489445 C 0.118891 0.0656392 0.0656616 0.118868 -0.0000140723 0.118868 C -0.0656582 0.118868 -0.118887 0.0656392 -0.118887 -0.00000489445 C -0.118887 -0.065649 -0.0656582 -0.118878 -0.0000140723 -0.118878 C 0.0656616 -0.118878 0.118891 -0.065649 0.118891 -0.00000489445 Z M 0.118891 -0.00000489445 " transform="matrix(123.654449,0,0,123.654449,312.681428,206.133418)"/>
<path style="fill-rule:nonzero;fill:rgb(100%,92.941176%,43.529412%);fill-opacity:1;stroke-width:0.0237757;stroke-linecap:butt;stroke-linejoin:miter;stroke:rgb(60%,60%,60%);stroke-opacity:0.8;stroke-miterlimit:10;" d="M 0.118866 -0.0000076053 C 0.118866 0.0656681 0.065668 0.118866 -0.00000771524 0.118866 C -0.0656518 0.118866 -0.118881 0.0656681 -0.118881 -0.0000076053 C -0.118881 -0.0656517 -0.0656518 -0.118881 -0.00000771524 -0.118881 C 0.065668 -0.118881 0.118866 -0.0656517 0.118866 -0.0000076053 Z M 0.118866 -0.0000076053 " transform="matrix(123.654449,0,0,123.654449,392.918923,105.56344)"/>
<path style="fill-rule:nonzero;fill:rgb(100%,92.941176%,43.529412%);fill-opacity:1;stroke-width:0.0237757;stroke-linecap:butt;stroke-linejoin:miter;stroke:rgb(60%,60%,60%);stroke-opacity:0.8;stroke-miterlimit:10;" d="M 0.118872 -0.00000362252 C 0.118872 0.0656405 0.0656426 0.11887 -0.00000148348 0.11887 C -0.0656456 0.11887 -0.118875 0.0656405 -0.118875 -0.00000362252 C -0.118875 -0.0656477 -0.0656456 -0.118877 -0.00000148348 -0.118877 C 0.0656426 -0.118877 0.118872 -0.0656477 0.118872 -0.00000362252 Z M 0.118872 -0.00000362252 " transform="matrix(123.654449,0,0,123.654449,292.574402,279.777792)"/>
<path style="fill-rule:nonzero;fill:rgb(55.294118%,82.745098%,78.039216%);fill-opacity:1;stroke-width:0.0237757;stroke-linecap:butt;stroke-linejoin:miter;stroke:rgb(60%,60%,60%);stroke-opacity:0.8;stroke-miterlimit:10;" d="M 0.118867 0.00000592418 C 0.118867 0.06565 0.065669 0.118879 -0.00000666259 0.118879 C -0.0656508 0.118879 -0.11888 0.06565 -0.11888 0.00000592418 C -0.11888 -0.0656698 -0.0656508 -0.118867 -0.00000666259 -0.118867 C 0.065669 -0.118867 0.118867 -0.0656698 0.118867 0.00000592418 Z M 0.118867 0.00000592418 " transform="matrix(123.654449,0,0,123.654449,291.418793,372.315674)"/>
<path style="fill-rule:nonzero;fill:rgb(100%,92.941176%,43.529412%);fill-opacity:1;stroke-width:0.0237757;stroke-linecap:butt;stroke-linejoin:miter;stroke:rgb(60%,60%,60%);stroke-opacity:0.8;stroke-miterlimit:10;" d="M 0.118877 -0.00000405622 C 0.118877 0.0656401 0.0656474 0.118869 0.00000328962 0.118869 C -0.0656408 0.118869 -0.11887 0.0656401 -0.11887 -0.00000405622 C -0.11887 -0.0656482 -0.0656408 -0.118877 0.00000328962 -0.118877 C 0.0656474 -0.118877 0.118877 -0.0656482 0.118877 -0.00000405622 Z M 0.118877 -0.00000405622 " transform="matrix(123.654449,0,0,123.654449,260.698812,186.789564)"/>
<path style="fill-rule:nonzero;fill:rgb(100%,92.941176%,43.529412%);fill-opacity:1;stroke-width:0.0237757;stroke-linecap:butt;stroke-linejoin:miter;stroke:rgb(60%,60%,60%);stroke-opacity:0.8;stroke-miterlimit:10;" d="M 0.118871 -0.00000662782 C 0.118871 0.0656691 0.0656413 0.118867 -0.00000279171 0.118867 C -0.0656469 0.118867 -0.118876 0.0656691 -0.118876 -0.00000662782 C -0.118876 -0.0656507 -0.0656469 -0.11888 -0.00000279171 -0.11888 C 0.0656413 -0.11888 0.118871 -0.0656507 0.118871 -0.00000662782 Z M 0.118871 -0.00000662782 " transform="matrix(123.654449,0,0,123.654449,488.211283,75.610195)"/>
<path style="fill-rule:nonzero;fill:rgb(100%,92.941176%,43.529412%);fill-opacity:1;stroke-width:0.0237757;stroke-linecap:butt;stroke-linejoin:miter;stroke:rgb(60%,60%,60%);stroke-opacity:0.8;stroke-miterlimit:10;" d="M 0.118885 0.0000127724 C 0.118885 0.0656569 0.0656554 0.118886 0.0000112741 0.118886 C -0.0656644 0.118886 -0.118894 0.0656569 -0.118894 0.0000127724 C -0.118894 -0.0656629 -0.0656644 -0.118892 0.0000112741 -0.118892 C 0.0656554 -0.118892 0.118885 -0.0656629 0.118885 0.0000127724 Z M 0.118885 0.0000127724 " transform="matrix(123.654449,0,0,123.654449,474.990793,112.560921)"/>
<path style="fill-rule:nonzero;fill:rgb(55.294118%,82.745098%,78.039216%);fill-opacity:1;stroke-width:0.0237757;stroke-linecap:butt;stroke-linejoin:miter;stroke:rgb(60%,60%,60%);stroke-opacity:0.8;stroke-miterlimit:10;" d="M 0.11887 -0.00000171647 C 0.11887 0.0656424 0.0656406 0.118872 -0.00000352598 0.118872 C -0.0656476 0.118872 -0.118877 0.0656424 -0.118877 -0.00000171647 C -0.118877 -0.0656458 -0.0656476 -0.118875 -0.00000352598 -0.118875 C 0.0656406 -0.118875 0.11887 -0.0656458 0.11887 -0.00000171647 Z M 0.11887 -0.00000171647 " transform="matrix(123.654449,0,0,123.654449,310.269967,415.043181)"/>
<path style="fill-rule:nonzero;fill:rgb(55.294118%,82.745098%,78.039216%);fill-opacity:1;stroke-width:0.0237757;stroke-linecap:butt;stroke-linejoin:miter;stroke:rgb(60%,60%,60%);stroke-opacity:0.8;stroke-miterlimit:10;" d="M 0.118879 -0.00000299861 C 0.118879 0.0656411 0.06565 0.11887 0.00000583848 0.11887 C -0.0656699 0.11887 -0.118868 0.0656411 -0.118868 -0.00000299861 C -0.118868 -0.0656471 -0.0656699 -0.118876 0.00000583848 -0.118876 C 0.06565 -0.118876 0.118879 -0.0656471 0.118879 -0.00000299861 Z M 0.118879 -0.00000299861 " transform="matrix(123.654449,0,0,123.654449,410.557872,448.73084)"/>
<path style="fill-rule:nonzero;fill:rgb(100%,92.941176%,43.529412%);fill-opacity:1;stroke-width:0.0237757;stroke-linecap:butt;stroke-linejoin:miter;stroke:rgb(60%,60%,60%);stroke-opacity:0.8;stroke-miterlimit:10;" d="M 0.118889 0.0000123358 C 0.118889 0.0656565 0.0656594 0.118886 0.0000152341 0.118886 C -0.0656605 0.118886 -0.11889 0.0656565 -0.11889 0.0000123358 C -0.11889 -0.0656634 -0.0656605 -0.118893 0.0000152341 -0.118893 C 0.0656594 -0.118893 0.118889 -0.0656634 0.118889 0.0000123358 Z M 0.118889 0.0000123358 " transform="matrix(123.654449,0,0,123.654449,171.83796,49.631287)"/>
<path style="fill-rule:nonzero;fill:rgb(100%,92.941176%,43.529412%);fill-opacity:1;stroke-width:0.0237757;stroke-linecap:butt;stroke-linejoin:miter;stroke:rgb(60%,60%,60%);stroke-opacity:0.8;stroke-miterlimit:10;" d="M 0.118889 -0.00000304968 C 0.118889 0.0656411 0.06566 0.11887 -0.0000157344 0.11887 C -0.0656599 0.11887 -0.118889 0.0656411 -0.118889 -0.00000304968 C -0.118889 -0.0656472 -0.0656599 -0.118876 -0.0000157344 -0.118876 C 0.06566 -0.118876 0.118889 -0.0656472 0.118889 -0.00000304968 Z M 0.118889 -0.00000304968 " transform="matrix(123.654449,0,0,123.654449,381.845696,205.516002)"/>
<path style="fill-rule:nonzero;fill:rgb(100%,92.941176%,43.529412%);fill-opacity:1;stroke-width:0.0237757;stroke-linecap:butt;stroke-linejoin:miter;stroke:rgb(60%,60%,60%);stroke-opacity:0.8;stroke-miterlimit:10;" d="M 0.118876 -0.00000494778 C 0.118876 0.0656392 0.065647 0.118868 0.00000287668 0.118868 C -0.0656412 0.118868 -0.11887 0.0656392 -0.11887 -0.00000494778 C -0.11887 -0.0656491 -0.0656412 -0.118878 0.00000287668 -0.118878 C 0.065647 -0.118878 0.118876 -0.0656491 0.118876 -0.00000494778 Z M 0.118876 -0.00000494778 " transform="matrix(123.654449,0,0,123.654449,222.214488,48.777956)"/>
<path style="fill-rule:nonzero;fill:rgb(100%,92.941176%,43.529412%);fill-opacity:1;stroke-width:0.0237757;stroke-linecap:butt;stroke-linejoin:miter;stroke:rgb(60%,60%,60%);stroke-opacity:0.8;stroke-miterlimit:10;" d="M 0.118881 -0.000000568535 C 0.118881 0.0656436 0.0656521 0.118873 0.00000801672 0.118873 C -0.0656677 0.118873 -0.118865 0.0656436 -0.118865 -0.000000568535 C -0.118865 -0.0656447 -0.0656677 -0.118874 0.00000801672 -0.118874 C 0.0656521 -0.118874 0.118881 -0.0656447 0.118881 -0.000000568535 Z M 0.118881 -0.000000568535 " transform="matrix(123.654449,0,0,123.654449,133.854477,68.207102)"/>
<path style="fill-rule:nonzero;fill:rgb(100%,92.941176%,43.529412%);fill-opacity:1;stroke-width:0.0237757;stroke-linecap:butt;stroke-linejoin:miter;stroke:rgb(60%,60%,60%);stroke-opacity:0.8;stroke-miterlimit:10;" d="M 0.118868 -0.000000666262 C 0.118868 0.0656435 0.0656706 0.118873 -0.00000514809 0.118873 C -0.0656493 0.118873 -0.118878 0.0656435 -0.118878 -0.000000666262 C -0.118878 -0.0656448 -0.0656493 -0.118874 -0.00000514809 -0.118874 C 0.0656706 -0.118874 0.118868 -0.0656448 0.118868 -0.000000666262 Z M 0.118868 -0.000000666262 " transform="matrix(123.654449,0,0,123.654449,263.981105,96.902426)"/>
<path style="fill-rule:nonzero;fill:rgb(55.294118%,82.745098%,78.039216%);fill-opacity:1;stroke-width:0.0237757;stroke-linecap:butt;stroke-linejoin:miter;stroke:rgb(60%,60%,60%);stroke-opacity:0.8;stroke-miterlimit:10;" d="M 0.11889 -0.0000017548 C 0.11889 0.0656424 0.0656606 0.118872 -0.0000151504 0.118872 C -0.0656593 0.118872 -0.118889 0.0656424 -0.118889 -0.0000017548 C -0.118889 -0.0656459 -0.0656593 -0.118875 -0.0000151504 -0.118875 C 0.0656606 -0.118875 0.11889 -0.0656459 0.11889 -0.0000017548 Z M 0.11889 -0.0000017548 " transform="matrix(123.654449,0,0,123.654449,225.572186,558.050998)"/>
<path style="fill-rule:nonzero;fill:rgb(55.294118%,82.745098%,78.039216%);fill-opacity:1;stroke-width:0.0237757;stroke-linecap:butt;stroke-linejoin:miter;stroke:rgb(60%,60%,60%);stroke-opacity:0.8;stroke-miterlimit:10;" d="M 0.118869 -0.0000119573 C 0.118869 0.0656638 0.0656395 0.118893 -0.00000461157 0.118893 C -0.0656487 0.118893 -0.118878 0.0656638 -0.118878 -0.0000119573 C -0.118878 -0.0656561 -0.0656487 -0.118885 -0.00000461157 -0.118885 C 0.0656395 -0.118885 0.118869 -0.0656561 0.118869 -0.0000119573 Z M 0.118869 -0.0000119573 " transform="matrix(123.654449,0,0,123.654449,260.926351,473.653822)"/>
<path style="fill-rule:nonzero;fill:rgb(55.294118%,82.745098%,78.039216%);fill-opacity:1;stroke-width:0.0237757;stroke-linecap:butt;stroke-linejoin:miter;stroke:rgb(60%,60%,60%);stroke-opacity:0.8;stroke-miterlimit:10;" d="M 0.118888 0.00000751592 C 0.118888 0.0656516 0.0656592 0.118881 0.0000150332 0.118881 C -0.0656607 0.118881 -0.11889 0.0656516 -0.11889 0.00000751592 C -0.11889 -0.0656682 -0.0656607 -0.118866 0.0000150332 -0.118866 C 0.0656592 -0.118866 0.118888 -0.0656682 0.118888 0.00000751592 Z M 0.118888 0.00000751592 " transform="matrix(123.654449,0,0,123.654449,242.810641,529.991258)"/>
<path style="fill-rule:nonzero;fill:rgb(100%,92.941176%,43.529412%);fill-opacity:1;stroke-width:0.0237757;stroke-linecap:butt;stroke-linejoin:miter;stroke:rgb(60%,60%,60%);stroke-opacity:0.8;stroke-miterlimit:10;" d="M 0.118876 0.00000271727 C 0.118876 0.0656468 0.0656467 0.118876 0.00000259148 0.118876 C -0.0656415 0.118876 -0.118871 0.0656468 -0.118871 0.00000271727 C -0.118871 -0.0656414 -0.0656415 -0.118871 0.00000259148 -0.118871 C 0.0656467 -0.118871 0.118876 -0.0656414 0.118876 0.00000271727 Z M 0.118876 0.00000271727 " transform="matrix(123.654449,0,0,123.654449,527.589523,158.745758)"/>
<path style="fill-rule:nonzero;fill:rgb(100%,92.941176%,43.529412%);fill-opacity:1;stroke-width:0.0237757;stroke-linecap:butt;stroke-linejoin:miter;stroke:rgb(60%,60%,60%);stroke-opacity:0.8;stroke-miterlimit:10;" d="M 0.118884 0.00000319158 C 0.118884 0.0656473 0.0656549 0.118877 0.0000108092 0.118877 C -0.0656649 0.118877 -0.118894 0.0656473 -0.118894 0.00000319158 C -0.118894 -0.0656409 -0.0656649 -0.11887 0.0000108092 -0.11887 C 0.0656549 -0.11887 0.118884 -0.0656409 0.118884 0.00000319158 Z M 0.118884 0.00000319158 " transform="matrix(123.654449,0,0,123.654449,556.12757,193.687105)"/>
<path style="fill-rule:nonzero;fill:rgb(55.294118%,82.745098%,78.039216%);fill-opacity:1;stroke-width:0.0237757;stroke-linecap:butt;stroke-linejoin:miter;stroke:rgb(60%,60%,60%);stroke-opacity:0.8;stroke-miterlimit:10;" d="M 0.118893 -0.0000123977 C 0.118893 0.0656633 0.0656636 0.118893 -0.000012097 0.118893 C -0.0656562 0.118893 -0.118885 0.0656633 -0.118885 -0.0000123977 C -0.118885 -0.0656565 -0.0656562 -0.118886 -0.000012097 -0.118886 C 0.0656636 -0.118886 0.118893 -0.0656565 0.118893 -0.0000123977 Z M 0.118893 -0.0000123977 " transform="matrix(123.654449,0,0,123.654449,399.021027,512.899971)"/>
<path style="fill-rule:nonzero;fill:rgb(55.294118%,82.745098%,78.039216%);fill-opacity:1;stroke-width:0.0237757;stroke-linecap:butt;stroke-linejoin:miter;stroke:rgb(60%,60%,60%);stroke-opacity:0.8;stroke-miterlimit:10;" d="M 0.118869 -0.000000740949 C 0.118869 0.0656434 0.0656395 0.118873 -0.00000461344 0.118873 C -0.0656487 0.118873 -0.118878 0.0656434 -0.118878 -0.000000740949 C -0.118878 -0.0656449 -0.0656487 -0.118874 -0.00000461344 -0.118874 C 0.0656395 -0.118874 0.118869 -0.0656449 0.118869 -0.000000740949 Z M 0.118869 -0.000000740949 " transform="matrix(123.654449,0,0,123.654449,443.676352,492.222748)"/>
<path style="fill-rule:nonzero;fill:rgb(55.294118%,82.745098%,78.039216%);fill-opacity:1;stroke-width:0.0237757;stroke-linecap:butt;stroke-linejoin:miter;stroke:rgb(60%,60%,60%);stroke-opacity:0.8;stroke-miterlimit:10;" d="M 0.118875 -0.00000381489 C 0.118875 0.0656403 0.065646 0.11887 0.00000188317 0.11887 C -0.0656422 0.11887 -0.118871 0.0656403 -0.118871 -0.00000381489 C -0.118871 -0.0656479 -0.0656422 -0.118877 0.00000188317 -0.118877 C 0.065646 -0.118877 0.118875 -0.0656479 0.118875 -0.00000381489 Z M 0.118875 -0.00000381489 " transform="matrix(123.654449,0,0,123.654449,531.277111,428.555159)"/>
<path style="fill-rule:nonzero;fill:rgb(55.294118%,82.745098%,78.039216%);fill-opacity:1;stroke-width:0.0237757;stroke-linecap:butt;stroke-linejoin:miter;stroke:rgb(60%,60%,60%);stroke-opacity:0.8;stroke-miterlimit:10;" d="M 0.118874 0.000000282186 C 0.118874 0.0656444 0.0656446 0.118874 0.000000464652 0.118874 C -0.0656437 0.118874 -0.118873 0.0656444 -0.118873 0.000000282186 C -0.118873 -0.0656438 -0.0656437 -0.118873 0.000000464652 -0.118873 C 0.0656446 -0.118873 0.118874 -0.0656438 0.118874 0.000000282186 Z M 0.118874 0.000000282186 " transform="matrix(123.654449,0,0,123.654449,565.449161,319.29684)"/>
<path style="fill-rule:nonzero;fill:rgb(55.294118%,82.745098%,78.039216%);fill-opacity:1;stroke-width:0.0237757;stroke-linecap:butt;stroke-linejoin:miter;stroke:rgb(60%,60%,60%);stroke-opacity:0.8;stroke-miterlimit:10;" d="M 0.118885 0.00000127259 C 0.118885 0.0656454 0.0656556 0.118875 0.000011491 0.118875 C -0.0656642 0.118875 -0.118893 0.0656454 -0.118893 0.00000127259 C -0.118893 -0.0656428 -0.0656642 -0.118872 0.000011491 -0.118872 C 0.0656556 -0.118872 0.118885 -0.0656428 0.118885 0.00000127259 Z M 0.118885 0.00000127259 " transform="matrix(123.654449,0,0,123.654449,540.135298,354.890468)"/>
<path style="fill-rule:nonzero;fill:rgb(55.294118%,82.745098%,78.039216%);fill-opacity:1;stroke-width:0.0237757;stroke-linecap:butt;stroke-linejoin:miter;stroke:rgb(60%,60%,60%);stroke-opacity:0.8;stroke-miterlimit:10;" d="M 0.118874 -0.0000121232 C 0.118874 0.0656636 0.0656444 0.118893 0.000000256814 0.118893 C -0.0656439 0.118893 -0.118873 0.0656636 -0.118873 -0.0000121232 C -0.118873 -0.0656562 -0.0656439 -0.118885 0.000000256814 -0.118885 C 0.0656444 -0.118885 0.118874 -0.0656562 0.118874 -0.0000121232 Z M 0.118874 -0.0000121232 " transform="matrix(123.654449,0,0,123.654449,496.253874,408.763218)"/>
<path style="fill-rule:nonzero;fill:rgb(55.294118%,82.745098%,78.039216%);fill-opacity:1;stroke-width:0.0237757;stroke-linecap:butt;stroke-linejoin:miter;stroke:rgb(60%,60%,60%);stroke-opacity:0.8;stroke-miterlimit:10;" d="M 0.118873 -0.0000133195 C 0.118873 0.0656624 0.0656441 0.118892 -0.0000000681095 0.118892 C -0.0656442 0.118892 -0.118873 0.0656624 -0.118873 -0.0000133195 C -0.118873 -0.0656574 -0.0656442 -0.118887 -0.0000000681095 -0.118887 C 0.0656441 -0.118887 0.118873 -0.0656574 0.118873 -0.0000133195 Z M 0.118873 -0.0000133195 " transform="matrix(123.654449,0,0,123.654449,67.433602,212.243835)"/>
<path style="fill-rule:nonzero;fill:rgb(55.294118%,82.745098%,78.039216%);fill-opacity:1;stroke-width:0.0237757;stroke-linecap:butt;stroke-linejoin:miter;stroke:rgb(60%,60%,60%);stroke-opacity:0.8;stroke-miterlimit:10;" d="M 0.118873 -0.00000161168 C 0.118873 0.0656425 0.0656437 0.118872 -0.000000464652 0.118872 C -0.0656446 0.118872 -0.118874 0.0656425 -0.118874 -0.00000161168 C -0.118874 -0.0656457 -0.0656446 -0.118875 -0.000000464652 -0.118875 C 0.0656437 -0.118875 0.118873 -0.0656457 0.118873 -0.00000161168 Z M 0.118873 -0.00000161168 " transform="matrix(123.654449,0,0,123.654449,34.550839,244.039262)"/>
</g>
</svg>
