<?xml version="1.0" encoding="UTF-8"?>
<svg xmlns="http://www.w3.org/2000/svg" xmlns:xlink="http://www.w3.org/1999/xlink" width="600pt" height="600pt" viewBox="0 0 600 600" version="1.1">
<defs>
<clipPath id="clip1">
  <path d="M 441 304 L 564 304 L 564 463 L 441 463 Z M 441 304 "/>
</clipPath>
<clipPath id="clip2">
  <path d="M 375.878906 289.023438 L 628.992188 289.023438 L 628.992188 478.011719 L 375.878906 478.011719 Z M 375.878906 289.023438 L 536.492188 346.566406 C 536.492188 354.6875 529.910156 361.265625 521.789062 361.265625 C 513.671875 361.265625 507.089844 354.6875 507.089844 346.566406 C 507.089844 338.449219 513.671875 331.867188 521.789062 331.867188 C 529.910156 331.867188 536.492188 338.449219 536.492188 346.566406 Z M 375.878906 289.023438 "/>
</clipPath>
<clipPath id="clip3">
  <path d="M 375.878906 289.023438 L 628.992188 289.023438 L 628.992188 478.011719 L 375.878906 478.011719 Z M 375.878906 289.023438 L 497.785156 420.472656 C 497.785156 428.589844 491.203125 435.171875 483.085938 435.171875 C 474.964844 435.171875 468.386719 428.589844 468.386719 420.472656 C 468.386719 412.355469 474.964844 405.773438 483.085938 405.773438 C 491.203125 405.773438 497.785156 412.355469 497.785156 420.472656 Z M 375.878906 289.023438 "/>
</clipPath>
<clipPath id="clip4">
  <path d="M 480 263.523438 L 574 263.523438 L 574 369.996094 L 480 369.996094 Z M 480 263.523438 "/>
</clipPath>
<clipPath id="clip5">
  <path d="M 402.945312 263.523438 L 651.167969 263.523438 L 651.167969 369.996094 L 402.945312 369.996094 Z M 402.945312 263.523438 L 536.492188 346.566406 C 536.492188 354.6875 529.910156 361.265625 521.789062 361.265625 C 513.671875 361.265625 507.089844 354.6875 507.089844 346.566406 C 507.089844 338.449219 513.671875 331.867188 521.789062 331.867188 C 529.910156 331.867188 536.492188 338.449219 536.492188 346.566406 Z M 402.945312 263.523438 "/>
</clipPath>
<clipPath id="clip6">
  <path d="M 402.945312 263.523438 L 651.167969 263.523438 L 651.167969 369.996094 L 402.945312 369.996094 Z M 402.945312 263.523438 L 547.027344 286.957031 C 547.027344 295.074219 540.445312 301.65625 532.328125 301.65625 C 524.207031 301.65625 517.628906 295.074219 517.628906 286.957031 C 517.628906 278.839844 524.207031 272.257812 532.328125 272.257812 C 540.445312 272.257812 547.027344 278.839844 547.027344 286.957031 Z M 402.945312 263.523438 "/>
</clipPath>
<clipPath id="clip7">
  <path d="M 480 285 L 590 285 L 590 389 L 480 389 Z M 480 285 "/>
</clipPath>
<clipPath id="clip8">
  <path d="M 448.539062 229.460938 L 621.582031 229.460938 L 621.582031 443.894531 L 448.539062 443.894531 Z M 448.539062 229.460938 L 536.492188 346.566406 C 536.492188 354.6875 529.910156 361.265625 521.789062 361.265625 C 513.671875 361.265625 507.089844 354.6875 507.089844 346.566406 C 507.089844 338.449219 513.671875 331.867188 521.789062 331.867188 C 529.910156 331.867188 536.492188 338.449219 536.492188 346.566406 Z M 448.539062 229.460938 "/>
</clipPath>
<clipPath id="clip9">
  <path d="M 448.539062 229.460938 L 621.582031 229.460938 L 621.582031 443.894531 L 448.539062 443.894531 Z M 448.539062 229.460938 L 563.035156 326.792969 C 563.035156 334.910156 556.457031 341.492188 548.335938 341.492188 C 540.21875 341.492188 533.636719 334.910156 533.636719 326.792969 C 533.636719 318.675781 540.21875 312.09375 548.335938 312.09375 C 556.457031 312.09375 563.035156 318.675781 563.035156 326.792969 Z M 448.539062 229.460938 "/>
</clipPath>
<clipPath id="clip10">
  <path d="M 340 398 L 482 398 L 482 510 L 340 510 Z M 340 398 "/>
</clipPath>
<clipPath id="clip11">
  <path d="M 327.539062 331.425781 L 494.117188 331.425781 L 494.117188 577.25 L 327.539062 577.25 Z M 327.539062 331.425781 L 396.519531 440.277344 C 396.519531 448.398438 389.9375 454.976562 381.820312 454.976562 C 373.703125 454.976562 367.121094 448.398438 367.121094 440.277344 C 367.121094 432.160156 373.703125 425.578125 381.820312 425.578125 C 389.9375 425.578125 396.519531 432.160156 396.519531 440.277344 Z M 327.539062 331.425781 "/>
</clipPath>
<clipPath id="clip12">
  <path d="M 327.539062 331.425781 L 494.117188 331.425781 L 494.117188 577.25 L 327.539062 577.25 Z M 327.539062 331.425781 L 454.539062 468.402344 C 454.539062 476.523438 447.957031 483.105469 439.839844 483.105469 C 431.71875 483.105469 425.140625 476.523438 425.140625 468.402344 C 425.140625 460.285156 431.71875 453.703125 439.839844 453.703125 C 447.957031 453.703125 454.539062 460.285156 454.539062 468.402344 Z M 327.539062 331.425781 "/>
</clipPath>
<clipPath id="clip13">
  <path d="M 375.453125 396 L 448.695312 396 L 448.695312 482 L 375.453125 482 Z M 375.453125 396 "/>
</clipPath>
<clipPath id="clip14">
  <path d="M 375.453125 317.925781 L 448.695312 317.925781 L 448.695312 560.863281 L 375.453125 560.863281 Z M 375.453125 317.925781 L 396.519531 440.277344 C 396.519531 448.398438 389.9375 454.976562 381.820312 454.976562 C 373.703125 454.976562 367.121094 448.398438 367.121094 440.277344 C 367.121094 432.160156 373.703125 425.578125 381.820312 425.578125 C 389.9375 425.578125 396.519531 432.160156 396.519531 440.277344 Z M 375.453125 317.925781 "/>
</clipPath>
<clipPath id="clip15">
  <path d="M 375.453125 317.925781 L 448.695312 317.925781 L 448.695312 560.863281 L 375.453125 560.863281 Z M 375.453125 317.925781 L 457.03125 438.515625 C 457.03125 446.632812 450.449219 453.214844 442.332031 453.214844 C 434.214844 453.214844 427.632812 446.632812 427.632812 438.515625 C 427.632812 430.394531 434.214844 423.816406 442.332031 423.816406 C 450.449219 423.816406 457.03125 430.394531 457.03125 438.515625 Z M 375.453125 317.925781 "/>
</clipPath>
<clipPath id="clip16">
  <path d="M 221 331 L 424 331 L 424 482 L 221 482 Z M 221 331 "/>
</clipPath>
<clipPath id="clip17">
  <path d="M 202.152344 267.714844 L 442.671875 267.714844 L 442.671875 545.679688 L 202.152344 545.679688 Z M 202.152344 267.714844 L 396.519531 440.277344 C 396.519531 448.398438 389.9375 454.976562 381.820312 454.976562 C 373.703125 454.976562 367.121094 448.398438 367.121094 440.277344 C 367.121094 432.160156 373.703125 425.578125 381.820312 425.578125 C 389.9375 425.578125 396.519531 432.160156 396.519531 440.277344 Z M 202.152344 267.714844 "/>
</clipPath>
<clipPath id="clip18">
  <path d="M 202.152344 267.714844 L 442.671875 267.714844 L 442.671875 545.679688 L 202.152344 545.679688 Z M 202.152344 267.714844 L 277.710938 373.121094 C 277.710938 381.238281 271.128906 387.820312 263.007812 387.820312 C 254.890625 387.820312 248.308594 381.238281 248.308594 373.121094 C 248.308594 365.003906 254.890625 358.421875 263.007812 358.421875 C 271.128906 358.421875 277.710938 365.003906 277.710938 373.121094 Z M 202.152344 267.714844 "/>
</clipPath>
<clipPath id="clip19">
  <path d="M 398 378 L 525 378 L 525 510 L 398 510 Z M 398 378 "/>
</clipPath>
<clipPath id="clip20">
  <path d="M 349.511719 338.683594 L 573.410156 338.683594 L 573.410156 550.1875 L 349.511719 550.1875 Z M 349.511719 338.683594 L 454.539062 468.402344 C 454.539062 476.523438 447.957031 483.105469 439.839844 483.105469 C 431.71875 483.105469 425.140625 476.523438 425.140625 468.402344 C 425.140625 460.285156 431.71875 453.703125 439.839844 453.703125 C 447.957031 453.703125 454.539062 460.285156 454.539062 468.402344 Z M 349.511719 338.683594 "/>
</clipPath>
<clipPath id="clip21">
  <path d="M 349.511719 338.683594 L 573.410156 338.683594 L 573.410156 550.1875 L 349.511719 550.1875 Z M 349.511719 338.683594 L 497.785156 420.472656 C 497.785156 428.589844 491.203125 435.171875 483.085938 435.171875 C 474.964844 435.171875 468.386719 428.589844 468.386719 420.472656 C 468.386719 412.355469 474.964844 405.773438 483.085938 405.773438 C 491.203125 405.773438 497.785156 412.355469 497.785156 420.472656 Z M 349.511719 338.683594 "/>
</clipPath>
<clipPath id="clip22">
  <path d="M 400 378 L 525 378 L 525 481 L 400 481 Z M 400 378 "/>
</clipPath>
<clipPath id="clip23">
  <path d="M 391.742188 309.910156 L 533.671875 309.910156 L 533.671875 549.074219 L 391.742188 549.074219 Z M 391.742188 309.910156 L 497.785156 420.472656 C 497.785156 428.589844 491.203125 435.171875 483.085938 435.171875 C 474.964844 435.171875 468.386719 428.589844 468.386719 420.472656 C 468.386719 412.355469 474.964844 405.773438 483.085938 405.773438 C 491.203125 405.773438 497.785156 412.355469 497.785156 420.472656 Z M 391.742188 309.910156 "/>
</clipPath>
<clipPath id="clip24">
  <path d="M 391.742188 309.910156 L 533.671875 309.910156 L 533.671875 549.074219 L 391.742188 549.074219 Z M 391.742188 309.910156 L 457.03125 438.515625 C 457.03125 446.632812 450.449219 453.214844 442.332031 453.214844 C 434.214844 453.214844 427.632812 446.632812 427.632812 438.515625 C 427.632812 430.394531 434.214844 423.816406 442.332031 423.816406 C 450.449219 423.816406 457.03125 430.394531 457.03125 438.515625 Z M 391.742188 309.910156 "/>
</clipPath>
<clipPath id="clip25">
  <path d="M 238 196 L 343 196 L 343 309 L 238 309 Z M 238 196 "/>
</clipPath>
<clipPath id="clip26">
  <path d="M 181.398438 165.824219 L 399.304688 165.824219 L 399.304688 338.539062 L 181.398438 338.539062 Z M 181.398438 165.824219 L 294.527344 237.578125 C 294.527344 245.695312 287.945312 252.277344 279.828125 252.277344 C 271.707031 252.277344 265.125 245.695312 265.125 237.578125 C 265.125 229.457031 271.707031 222.875 279.828125 222.875 C 287.945312 222.875 294.527344 229.457031 294.527344 237.578125 Z M 181.398438 165.824219 "/>
</clipPath>
<clipPath id="clip27">
  <path d="M 181.398438 165.824219 L 399.304688 165.824219 L 399.304688 338.539062 L 181.398438 338.539062 Z M 181.398438 165.824219 L 315.578125 266.789062 C 315.578125 274.90625 308.996094 281.488281 300.878906 281.488281 C 292.761719 281.488281 286.179688 274.90625 286.179688 266.789062 C 286.179688 258.671875 292.761719 252.089844 300.878906 252.089844 C 308.996094 252.089844 315.578125 258.671875 315.578125 266.789062 Z M 181.398438 165.824219 "/>
</clipPath>
<clipPath id="clip28">
  <path d="M 238 234.191406 L 322 234.191406 L 322 304.859375 L 238 304.859375 Z M 238 234.191406 "/>
</clipPath>
<clipPath id="clip29">
  <path d="M 159.1875 234.191406 L 400.707031 234.191406 L 400.707031 304.859375 L 159.1875 304.859375 Z M 159.1875 234.191406 L 294.527344 237.578125 C 294.527344 245.695312 287.945312 252.277344 279.828125 252.277344 C 271.707031 252.277344 265.125 245.695312 265.125 237.578125 C 265.125 229.457031 271.707031 222.875 279.828125 222.875 C 287.945312 222.875 294.527344 229.457031 294.527344 237.578125 Z M 159.1875 234.191406 "/>
</clipPath>
<clipPath id="clip30">
  <path d="M 159.1875 234.191406 L 400.707031 234.191406 L 400.707031 304.859375 L 159.1875 304.859375 Z M 159.1875 234.191406 L 294.769531 301.476562 C 294.769531 309.597656 288.1875 316.179688 280.070312 316.179688 C 271.949219 316.179688 265.371094 309.597656 265.371094 301.476562 C 265.371094 293.359375 271.949219 286.777344 280.070312 286.777344 C 288.1875 286.777344 294.769531 293.359375 294.769531 301.476562 Z M 159.1875 234.191406 "/>
</clipPath>
<clipPath id="clip31">
  <path d="M 238 185.542969 L 326 185.542969 L 326 252.984375 L 238 252.984375 Z M 238 185.542969 "/>
</clipPath>
<clipPath id="clip32">
  <path d="M 159.851562 185.542969 L 403.703125 185.542969 L 403.703125 252.984375 L 159.851562 252.984375 Z M 159.851562 185.542969 L 294.527344 237.578125 C 294.527344 245.695312 287.945312 252.277344 279.828125 252.277344 C 271.707031 252.277344 265.125 245.695312 265.125 237.578125 C 265.125 229.457031 271.707031 222.875 279.828125 222.875 C 287.945312 222.875 294.527344 229.457031 294.527344 237.578125 Z M 159.851562 185.542969 "/>
</clipPath>
<clipPath id="clip33">
  <path d="M 159.851562 185.542969 L 403.703125 185.542969 L 403.703125 252.984375 L 159.851562 252.984375 Z M 159.851562 185.542969 L 298.429688 200.953125 C 298.429688 209.074219 291.851562 215.65625 283.730469 215.65625 C 275.613281 215.65625 269.03125 209.074219 269.03125 200.953125 C 269.03125 192.835938 275.613281 186.253906 283.730469 186.253906 C 291.851562 186.253906 298.429688 192.835938 298.429688 200.953125 Z M 159.851562 185.542969 "/>
</clipPath>
<clipPath id="clip34">
  <path d="M 392.394531 119 L 480.570312 119 L 480.570312 208 L 392.394531 208 Z M 392.394531 119 "/>
</clipPath>
<clipPath id="clip35">
  <path d="M 392.394531 41.132812 L 480.570312 41.132812 L 480.570312 286.191406 L 392.394531 286.191406 Z M 392.394531 41.132812 L 484.9375 161.539062 C 484.9375 169.65625 478.359375 176.238281 470.238281 176.238281 C 462.121094 176.238281 455.539062 169.65625 455.539062 161.539062 C 455.539062 153.417969 462.121094 146.835938 470.238281 146.835938 C 478.359375 146.835938 484.9375 153.417969 484.9375 161.539062 Z M 392.394531 41.132812 "/>
</clipPath>
<clipPath id="clip36">
  <path d="M 392.394531 41.132812 L 480.570312 41.132812 L 480.570312 286.191406 L 392.394531 286.191406 Z M 392.394531 41.132812 L 417.433594 165.789062 C 417.433594 173.90625 410.851562 180.488281 402.730469 180.488281 C 394.613281 180.488281 388.03125 173.90625 388.03125 165.789062 C 388.03125 157.671875 394.613281 151.089844 402.730469 151.089844 C 410.851562 151.089844 417.433594 157.671875 417.433594 165.789062 Z M 392.394531 41.132812 "/>
</clipPath>
<clipPath id="clip37">
  <path d="M 259 124 L 445 124 L 445 309 L 259 309 Z M 259 124 "/>
</clipPath>
<clipPath id="clip38">
  <path d="M 215.0625 79.273438 L 488.542969 79.273438 L 488.542969 353.300781 L 215.0625 353.300781 Z M 215.0625 79.273438 L 315.578125 266.789062 C 315.578125 274.90625 308.996094 281.488281 300.878906 281.488281 C 292.761719 281.488281 286.179688 274.90625 286.179688 266.789062 C 286.179688 258.671875 292.761719 252.089844 300.878906 252.089844 C 308.996094 252.089844 315.578125 258.671875 315.578125 266.789062 Z M 215.0625 79.273438 "/>
</clipPath>
<clipPath id="clip39">
  <path d="M 215.0625 79.273438 L 488.542969 79.273438 L 488.542969 353.300781 L 215.0625 353.300781 Z M 215.0625 79.273438 L 417.433594 165.789062 C 417.433594 173.90625 410.851562 180.488281 402.730469 180.488281 C 394.613281 180.488281 388.03125 173.90625 388.03125 165.789062 C 388.03125 157.671875 394.613281 151.089844 402.730469 151.089844 C 410.851562 151.089844 417.433594 157.671875 417.433594 165.789062 Z M 215.0625 79.273438 "/>
</clipPath>
<clipPath id="clip40">
  <path d="M 238 225 L 343 225 L 343 344 L 238 344 Z M 238 225 "/>
</clipPath>
<clipPath id="clip41">
  <path d="M 176.199219 203.300781 L 404.746094 203.300781 L 404.746094 364.960938 L 176.199219 364.960938 Z M 176.199219 203.300781 L 315.578125 266.789062 C 315.578125 274.90625 308.996094 281.488281 300.878906 281.488281 C 292.761719 281.488281 286.179688 274.90625 286.179688 266.789062 C 286.179688 258.671875 292.761719 252.089844 300.878906 252.089844 C 308.996094 252.089844 315.578125 258.671875 315.578125 266.789062 Z M 176.199219 203.300781 "/>
</clipPath>
<clipPath id="clip42">
  <path d="M 176.199219 203.300781 L 404.746094 203.300781 L 404.746094 364.960938 L 176.199219 364.960938 Z M 176.199219 203.300781 L 294.769531 301.476562 C 294.769531 309.597656 288.1875 316.179688 280.070312 316.179688 C 271.949219 316.179688 265.371094 309.597656 265.371094 301.476562 C 265.371094 293.359375 271.949219 286.777344 280.070312 286.777344 C 288.1875 286.777344 294.769531 293.359375 294.769531 301.476562 Z M 176.199219 203.300781 "/>
</clipPath>
<clipPath id="clip43">
  <path d="M 221 225 L 343 225 L 343 415 L 221 415 Z M 221 225 "/>
</clipPath>
<clipPath id="clip44">
  <path d="M 149.191406 224.359375 L 414.691406 224.359375 L 414.691406 415.546875 L 149.191406 415.546875 Z M 149.191406 224.359375 L 315.578125 266.789062 C 315.578125 274.90625 308.996094 281.488281 300.878906 281.488281 C 292.761719 281.488281 286.179688 274.90625 286.179688 266.789062 C 286.179688 258.671875 292.761719 252.089844 300.878906 252.089844 C 308.996094 252.089844 315.578125 258.671875 315.578125 266.789062 Z M 149.191406 224.359375 "/>
</clipPath>
<clipPath id="clip45">
  <path d="M 149.191406 224.359375 L 414.691406 224.359375 L 414.691406 415.546875 L 149.191406 415.546875 Z M 149.191406 224.359375 L 277.710938 373.121094 C 277.710938 381.238281 271.128906 387.820312 263.007812 387.820312 C 254.890625 387.820312 248.308594 381.238281 248.308594 373.121094 C 248.308594 365.003906 254.890625 358.421875 263.007812 358.421875 C 271.128906 358.421875 277.710938 365.003906 277.710938 373.121094 Z M 149.191406 224.359375 "/>
</clipPath>
<clipPath id="clip46">
  <path d="M 242 168.34375 L 343 168.34375 L 343 299.394531 L 242 299.394531 Z M 242 168.34375 "/>
</clipPath>
<clipPath id="clip47">
  <path d="M 166.890625 168.34375 L 417.714844 168.34375 L 417.714844 299.394531 L 166.890625 299.394531 Z M 166.890625 168.34375 L 315.578125 266.789062 C 315.578125 274.90625 308.996094 281.488281 300.878906 281.488281 C 292.761719 281.488281 286.179688 274.90625 286.179688 266.789062 C 286.179688 258.671875 292.761719 252.089844 300.878906 252.089844 C 308.996094 252.089844 315.578125 258.671875 315.578125 266.789062 Z M 166.890625 168.34375 "/>
</clipPath>
<clipPath id="clip48">
  <path d="M 166.890625 168.34375 L 417.714844 168.34375 L 417.714844 299.394531 L 166.890625 299.394531 Z M 166.890625 168.34375 L 298.429688 200.953125 C 298.429688 209.074219 291.851562 215.65625 283.730469 215.65625 C 275.613281 215.65625 269.03125 209.074219 269.03125 200.953125 C 269.03125 192.835938 275.613281 186.253906 283.730469 186.253906 C 291.851562 186.253906 298.429688 192.835938 298.429688 200.953125 Z M 166.890625 168.34375 "/>
</clipPath>
<clipPath id="clip49">
  <path d="M 286.324219 217 L 394.574219 217 L 394.574219 309 L 286.324219 309 Z M 286.324219 217 "/>
</clipPath>
<clipPath id="clip50">
  <path d="M 286.324219 138.875 L 394.574219 138.875 L 394.574219 386.851562 L 286.324219 386.851562 Z M 286.324219 138.875 L 315.578125 266.789062 C 315.578125 274.90625 308.996094 281.488281 300.878906 281.488281 C 292.761719 281.488281 286.179688 274.90625 286.179688 266.789062 C 286.179688 258.671875 292.761719 252.089844 300.878906 252.089844 C 308.996094 252.089844 315.578125 258.671875 315.578125 266.789062 Z M 286.324219 138.875 "/>
</clipPath>
<clipPath id="clip51">
  <path d="M 286.324219 138.875 L 394.574219 138.875 L 394.574219 386.851562 L 286.324219 386.851562 Z M 286.324219 138.875 L 394.722656 258.941406 C 394.722656 267.058594 388.140625 273.640625 380.023438 273.640625 C 371.902344 273.640625 365.320312 267.058594 365.320312 258.941406 C 365.320312 250.824219 371.902344 244.242188 380.023438 244.242188 C 388.140625 244.242188 394.722656 250.824219 394.722656 258.941406 Z M 286.324219 138.875 "/>
</clipPath>
<clipPath id="clip52">
  <path d="M 139 225 L 343 225 L 343 382 L 139 382 Z M 139 225 "/>
</clipPath>
<clipPath id="clip53">
  <path d="M 116.390625 163.445312 L 365.238281 163.445312 L 365.238281 443.617188 L 116.390625 443.617188 Z M 116.390625 163.445312 L 315.578125 266.789062 C 315.578125 274.90625 308.996094 281.488281 300.878906 281.488281 C 292.761719 281.488281 286.179688 274.90625 286.179688 266.789062 C 286.179688 258.671875 292.761719 252.089844 300.878906 252.089844 C 308.996094 252.089844 315.578125 258.671875 315.578125 266.789062 Z M 116.390625 163.445312 "/>
</clipPath>
<clipPath id="clip54">
  <path d="M 116.390625 163.445312 L 365.238281 163.445312 L 365.238281 443.617188 L 116.390625 443.617188 Z M 116.390625 163.445312 L 195.453125 340.277344 C 195.453125 348.398438 188.871094 354.976562 180.753906 354.976562 C 172.636719 354.976562 166.054688 348.398438 166.054688 340.277344 C 166.054688 332.160156 172.636719 325.578125 180.753906 325.578125 C 188.871094 325.578125 195.453125 332.160156 195.453125 340.277344 Z M 116.390625 163.445312 "/>
</clipPath>
<clipPath id="clip55">
  <path d="M 354 77.117188 L 445 77.117188 L 445 179.164062 L 354 179.164062 Z M 354 77.117188 "/>
</clipPath>
<clipPath id="clip56">
  <path d="M 275.851562 77.117188 L 522.902344 77.117188 L 522.902344 179.164062 L 275.851562 179.164062 Z M 275.851562 77.117188 L 417.433594 165.789062 C 417.433594 173.90625 410.851562 180.488281 402.730469 180.488281 C 394.613281 180.488281 388.03125 173.90625 388.03125 165.789062 C 388.03125 157.671875 394.613281 151.089844 402.730469 151.089844 C 410.851562 151.089844 417.433594 157.671875 417.433594 165.789062 Z M 275.851562 77.117188 "/>
</clipPath>
<clipPath id="clip57">
  <path d="M 275.851562 77.117188 L 522.902344 77.117188 L 522.902344 179.164062 L 275.851562 179.164062 Z M 275.851562 77.117188 L 410.730469 90.496094 C 410.730469 98.613281 404.148438 105.195312 396.027344 105.195312 C 387.910156 105.195312 381.328125 98.613281 381.328125 90.496094 C 381.328125 82.378906 387.910156 75.796875 396.027344 75.796875 C 404.148438 75.796875 410.730469 82.378906 410.730469 90.496094 Z M 275.851562 77.117188 "/>
</clipPath>
<clipPath id="clip58">
  <path d="M 221 271.265625 L 322 271.265625 L 322 403.328125 L 221 403.328125 Z M 221 271.265625 "/>
</clipPath>
<clipPath id="clip59">
  <path d="M 145.570312 271.265625 L 397.503906 271.265625 L 397.503906 403.328125 L 145.570312 403.328125 Z M 145.570312 271.265625 L 294.769531 301.476562 C 294.769531 309.597656 288.1875 316.179688 280.070312 316.179688 C 271.949219 316.179688 265.371094 309.597656 265.371094 301.476562 C 265.371094 293.359375 271.949219 286.777344 280.070312 286.777344 C 288.1875 286.777344 294.769531 293.359375 294.769531 301.476562 Z M 145.570312 271.265625 "/>
</clipPath>
<clipPath id="clip60">
  <path d="M 145.570312 271.265625 L 397.503906 271.265625 L 397.503906 403.328125 L 145.570312 403.328125 Z M 145.570312 271.265625 L 277.710938 373.121094 C 277.710938 381.238281 271.128906 387.820312 263.007812 387.820312 C 254.890625 387.820312 248.308594 381.238281 248.308594 373.121094 C 248.308594 365.003906 254.890625 358.421875 263.007812 358.421875 C 271.128906 358.421875 277.710938 365.003906 277.710938 373.121094 Z M 145.570312 271.265625 "/>
</clipPath>
<clipPath id="clip61">
  <path d="M 192 331 L 305 331 L 305 475 L 192 475 Z M 192 331 "/>
</clipPath>
<clipPath id="clip62">
  <path d="M 125.039062 318.238281 L 371.5625 318.238281 L 371.5625 487.804688 L 125.039062 487.804688 Z M 125.039062 318.238281 L 277.710938 373.121094 C 277.710938 381.238281 271.128906 387.820312 263.007812 387.820312 C 254.890625 387.820312 248.308594 381.238281 248.308594 373.121094 C 248.308594 365.003906 254.890625 358.421875 263.007812 358.421875 C 271.128906 358.421875 277.710938 365.003906 277.710938 373.121094 Z M 125.039062 318.238281 "/>
</clipPath>
<clipPath id="clip63">
  <path d="M 125.039062 318.238281 L 371.5625 318.238281 L 371.5625 487.804688 L 125.039062 487.804688 Z M 125.039062 318.238281 L 248.296875 432.925781 C 248.296875 441.042969 241.714844 447.625 233.597656 447.625 C 225.476562 447.625 218.894531 441.042969 218.894531 432.925781 C 218.894531 424.808594 225.476562 418.226562 233.597656 418.226562 C 241.714844 418.226562 248.296875 424.808594 248.296875 432.925781 Z M 125.039062 318.238281 "/>
</clipPath>
<clipPath id="clip64">
  <path d="M 69 229 L 305 229 L 305 415 L 69 415 Z M 69 229 "/>
</clipPath>
<clipPath id="clip65">
  <path d="M 42.667969 170.382812 L 331.738281 170.382812 L 331.738281 473.652344 L 42.667969 473.652344 Z M 42.667969 170.382812 L 277.710938 373.121094 C 277.710938 381.238281 271.128906 387.820312 263.007812 387.820312 C 254.890625 387.820312 248.308594 381.238281 248.308594 373.121094 C 248.308594 365.003906 254.890625 358.421875 263.007812 358.421875 C 271.128906 358.421875 277.710938 365.003906 277.710938 373.121094 Z M 42.667969 170.382812 "/>
</clipPath>
<clipPath id="clip66">
  <path d="M 42.667969 170.382812 L 331.738281 170.382812 L 331.738281 473.652344 L 42.667969 473.652344 Z M 42.667969 170.382812 L 126.101562 270.917969 C 126.101562 279.039062 119.519531 285.621094 111.402344 285.621094 C 103.285156 285.621094 96.703125 279.039062 96.703125 270.917969 C 96.703125 262.800781 103.285156 256.21875 111.402344 256.21875 C 119.519531 256.21875 126.101562 262.800781 126.101562 270.917969 Z M 42.667969 170.382812 "/>
</clipPath>
<clipPath id="clip67">
  <path d="M 221 367.15625 L 308 367.15625 L 308 488.847656 L 221 488.847656 Z M 221 367.15625 "/>
</clipPath>
<clipPath id="clip68">
  <path d="M 142.40625 367.15625 L 386.425781 367.15625 L 386.425781 488.847656 L 142.40625 488.847656 Z M 142.40625 367.15625 L 277.710938 373.121094 C 277.710938 381.238281 271.128906 387.820312 263.007812 387.820312 C 254.890625 387.820312 248.308594 381.238281 248.308594 373.121094 C 248.308594 365.003906 254.890625 358.421875 263.007812 358.421875 C 271.128906 358.421875 277.710938 365.003906 277.710938 373.121094 Z M 142.40625 367.15625 "/>
</clipPath>
<clipPath id="clip69">
  <path d="M 142.40625 367.15625 L 386.425781 367.15625 L 386.425781 488.847656 L 142.40625 488.847656 Z M 142.40625 367.15625 L 280.53125 482.886719 C 280.53125 491.003906 273.949219 497.585938 265.828125 497.585938 C 257.710938 497.585938 251.128906 491.003906 251.128906 482.886719 C 251.128906 474.769531 257.710938 468.1875 265.828125 468.1875 C 273.949219 468.1875 280.53125 474.769531 280.53125 482.886719 Z M 142.40625 367.15625 "/>
</clipPath>
<clipPath id="clip70">
  <path d="M 354.890625 35 L 477.136719 35 L 477.136719 133 L 354.890625 133 Z M 354.890625 35 "/>
</clipPath>
<clipPath id="clip71">
  <path d="M 354.890625 -37.488281 L 477.136719 -37.488281 L 477.136719 204.761719 L 354.890625 204.761719 Z M 354.890625 -37.488281 L 450.703125 76.78125 C 450.703125 84.898438 444.121094 91.480469 436.003906 91.480469 C 427.882812 91.480469 421.300781 84.898438 421.300781 76.78125 C 421.300781 68.664062 427.882812 62.082031 436.003906 62.082031 C 444.121094 62.082031 450.703125 68.664062 450.703125 76.78125 Z M 354.890625 -37.488281 "/>
</clipPath>
<clipPath id="clip72">
  <path d="M 354.890625 -37.488281 L 477.136719 -37.488281 L 477.136719 204.761719 L 354.890625 204.761719 Z M 354.890625 -37.488281 L 410.730469 90.496094 C 410.730469 98.613281 404.148438 105.195312 396.027344 105.195312 C 387.910156 105.195312 381.328125 98.613281 381.328125 90.496094 C 381.328125 82.378906 387.910156 75.796875 396.027344 75.796875 C 404.148438 75.796875 410.730469 82.378906 410.730469 90.496094 Z M 354.890625 -37.488281 "/>
</clipPath>
<clipPath id="clip73">
  <path d="M 301 9 L 438 9 L 438 133 L 301 133 Z M 301 9 "/>
</clipPath>
<clipPath id="clip74">
  <path d="M 270.28125 -46.105469 L 469.003906 -46.105469 L 469.003906 188.023438 L 270.28125 188.023438 Z M 270.28125 -46.105469 L 410.730469 90.496094 C 410.730469 98.613281 404.148438 105.195312 396.027344 105.195312 C 387.910156 105.195312 381.328125 98.613281 381.328125 90.496094 C 381.328125 82.378906 387.910156 75.796875 396.027344 75.796875 C 404.148438 75.796875 410.730469 82.378906 410.730469 90.496094 Z M 270.28125 -46.105469 "/>
</clipPath>
<clipPath id="clip75">
  <path d="M 270.28125 -46.105469 L 469.003906 -46.105469 L 469.003906 188.023438 L 270.28125 188.023438 Z M 270.28125 -46.105469 L 357.960938 51.425781 C 357.960938 59.542969 351.378906 66.125 343.261719 66.125 C 335.144531 66.125 328.5625 59.542969 328.5625 51.425781 C 328.5625 43.304688 335.144531 36.726562 343.261719 36.726562 C 351.378906 36.726562 357.960938 43.304688 357.960938 51.425781 Z M 270.28125 -46.105469 "/>
</clipPath>
<clipPath id="clip76">
  <path d="M 15.910156 210 L 151.121094 210 L 151.121094 313 L 15.910156 313 Z M 15.910156 210 "/>
</clipPath>
<clipPath id="clip77">
  <path d="M 15.910156 137.824219 L 151.121094 137.824219 L 151.121094 385.660156 L 15.910156 385.660156 Z M 15.910156 137.824219 L 126.101562 270.917969 C 126.101562 279.039062 119.519531 285.621094 111.402344 285.621094 C 103.285156 285.621094 96.703125 279.039062 96.703125 270.917969 C 96.703125 262.800781 103.285156 256.21875 111.402344 256.21875 C 119.519531 256.21875 126.101562 262.800781 126.101562 270.917969 Z M 15.910156 137.824219 "/>
</clipPath>
<clipPath id="clip78">
  <path d="M 15.910156 137.824219 L 151.121094 137.824219 L 151.121094 385.660156 L 15.910156 385.660156 Z M 15.910156 137.824219 L 70.332031 252.570312 C 70.332031 260.6875 63.75 267.269531 55.632812 267.269531 C 47.515625 267.269531 40.933594 260.6875 40.933594 252.570312 C 40.933594 244.449219 47.515625 237.867188 55.632812 237.867188 C 63.75 237.867188 70.332031 244.449219 70.332031 252.570312 Z M 15.910156 137.824219 "/>
</clipPath>
<clipPath id="clip79">
  <path d="M 10 229 L 153 229 L 153 341 L 10 341 Z M 10 229 "/>
</clipPath>
<clipPath id="clip80">
  <path d="M -1.378906 161.472656 L 164.441406 161.472656 L 164.441406 408.460938 L -1.378906 408.460938 Z M -1.378906 161.472656 L 126.101562 270.917969 C 126.101562 279.039062 119.519531 285.621094 111.402344 285.621094 C 103.285156 285.621094 96.703125 279.039062 96.703125 270.917969 C 96.703125 262.800781 103.285156 256.21875 111.402344 256.21875 C 119.519531 256.21875 126.101562 262.800781 126.101562 270.917969 Z M -1.378906 161.472656 "/>
</clipPath>
<clipPath id="clip81">
  <path d="M -1.378906 161.472656 L 164.441406 161.472656 L 164.441406 408.460938 L -1.378906 408.460938 Z M -1.378906 161.472656 L 66.363281 299.019531 C 66.363281 307.140625 59.78125 313.722656 51.664062 313.722656 C 43.542969 313.722656 36.964844 307.140625 36.964844 299.019531 C 36.964844 290.902344 43.542969 284.320312 51.664062 284.320312 C 59.78125 284.320312 66.363281 290.902344 66.363281 299.019531 Z M -1.378906 161.472656 "/>
</clipPath>
<clipPath id="clip82">
  <path d="M 63 158.8125 L 153 158.8125 L 153 280.761719 L 63 280.761719 Z M 63 158.8125 "/>
</clipPath>
<clipPath id="clip83">
  <path d="M -15.046875 158.8125 L 231.835938 158.8125 L 231.835938 280.761719 L -15.046875 280.761719 Z M -15.046875 158.8125 L 126.101562 270.917969 C 126.101562 279.039062 119.519531 285.621094 111.402344 285.621094 C 103.285156 285.621094 96.703125 279.039062 96.703125 270.917969 C 96.703125 262.800781 103.285156 256.21875 111.402344 256.21875 C 119.519531 256.21875 126.101562 262.800781 126.101562 270.917969 Z M -15.046875 158.8125 "/>
</clipPath>
<clipPath id="clip84">
  <path d="M -15.046875 158.8125 L 231.835938 158.8125 L 231.835938 280.761719 L -15.046875 280.761719 Z M -15.046875 158.8125 L 120.089844 168.660156 C 120.089844 176.78125 113.507812 183.363281 105.390625 183.363281 C 97.269531 183.363281 90.6875 176.78125 90.6875 168.660156 C 90.6875 160.542969 97.269531 153.960938 105.390625 153.960938 C 113.507812 153.960938 120.089844 160.542969 120.089844 168.660156 Z M -15.046875 158.8125 "/>
</clipPath>
<clipPath id="clip85">
  <path d="M 44 358 L 154 358 L 154 488 L 44 488 Z M 44 358 "/>
</clipPath>
<clipPath id="clip86">
  <path d="M -19.113281 338.332031 L 216.464844 338.332031 L 216.464844 507.515625 L -19.113281 507.515625 Z M -19.113281 338.332031 L 100.296875 445.441406 C 100.296875 453.5625 93.714844 460.144531 85.59375 460.144531 C 77.476562 460.144531 70.894531 453.5625 70.894531 445.441406 C 70.894531 437.324219 77.476562 430.742188 85.59375 430.742188 C 93.714844 430.742188 100.296875 437.324219 100.296875 445.441406 Z M -19.113281 338.332031 "/>
</clipPath>
<clipPath id="clip87">
  <path d="M -19.113281 338.332031 L 216.464844 338.332031 L 216.464844 507.515625 L -19.113281 507.515625 Z M -19.113281 338.332031 L 126.460938 400.410156 C 126.460938 408.53125 119.882812 415.113281 111.761719 415.113281 C 103.644531 415.113281 97.0625 408.53125 97.0625 400.410156 C 97.0625 392.292969 103.644531 385.710938 111.761719 385.710938 C 119.882812 385.710938 126.460938 392.292969 126.460938 400.410156 Z M -19.113281 338.332031 "/>
</clipPath>
<clipPath id="clip88">
  <path d="M 44 426.804688 L 132 426.804688 L 132 499.871094 L 44 499.871094 Z M 44 426.804688 "/>
</clipPath>
<clipPath id="clip89">
  <path d="M -33.996094 426.804688 L 209.996094 426.804688 L 209.996094 499.871094 L -33.996094 499.871094 Z M -33.996094 426.804688 L 100.296875 445.441406 C 100.296875 453.5625 93.714844 460.144531 85.59375 460.144531 C 77.476562 460.144531 70.894531 453.5625 70.894531 445.441406 C 70.894531 437.324219 77.476562 430.742188 85.59375 430.742188 C 93.714844 430.742188 100.296875 437.324219 100.296875 445.441406 Z M -33.996094 426.804688 "/>
</clipPath>
<clipPath id="clip90">
  <path d="M -33.996094 426.804688 L 209.996094 426.804688 L 209.996094 499.871094 L -33.996094 499.871094 Z M -33.996094 426.804688 L 105.109375 481.238281 C 105.109375 489.355469 98.527344 495.9375 90.410156 495.9375 C 82.289062 495.9375 75.707031 489.355469 75.707031 481.238281 C 75.707031 473.117188 82.289062 466.535156 90.410156 466.535156 C 98.527344 466.535156 105.109375 473.117188 105.109375 481.238281 Z M -33.996094 426.804688 "/>
</clipPath>
<clipPath id="clip91">
  <path d="M 70 298 L 223 298 L 223 442 L 70 442 Z M 70 298 "/>
</clipPath>
<clipPath id="clip92">
  <path d="M 31.488281 248.609375 L 261.023438 248.609375 L 261.023438 492.074219 L 31.488281 492.074219 Z M 31.488281 248.609375 L 126.460938 400.410156 C 126.460938 408.53125 119.882812 415.113281 111.761719 415.113281 C 103.644531 415.113281 97.0625 408.53125 97.0625 400.410156 C 97.0625 392.292969 103.644531 385.710938 111.761719 385.710938 C 119.882812 385.710938 126.460938 392.292969 126.460938 400.410156 Z M 31.488281 248.609375 "/>
</clipPath>
<clipPath id="clip93">
  <path d="M 31.488281 248.609375 L 261.023438 248.609375 L 261.023438 492.074219 L 31.488281 492.074219 Z M 31.488281 248.609375 L 195.453125 340.277344 C 195.453125 348.398438 188.871094 354.976562 180.753906 354.976562 C 172.636719 354.976562 166.054688 348.398438 166.054688 340.277344 C 166.054688 332.160156 172.636719 325.578125 180.753906 325.578125 C 188.871094 325.578125 195.453125 332.160156 195.453125 340.277344 Z M 31.488281 248.609375 "/>
</clipPath>
<clipPath id="clip94">
  <path d="M 229 497 L 332 497 L 332 600 L 229 600 Z M 229 497 "/>
</clipPath>
<clipPath id="clip95">
  <path d="M 171.617188 467.757812 L 388.476562 467.757812 L 388.476562 636.441406 L 171.617188 636.441406 Z M 171.617188 467.757812 L 304.207031 565.449219 C 304.207031 573.566406 297.625 580.148438 289.507812 580.148438 C 281.386719 580.148438 274.808594 573.566406 274.808594 565.449219 C 274.808594 557.332031 281.386719 550.75 289.507812 550.75 C 297.625 550.75 304.207031 557.332031 304.207031 565.449219 Z M 171.617188 467.757812 "/>
</clipPath>
<clipPath id="clip96">
  <path d="M 171.617188 467.757812 L 388.476562 467.757812 L 388.476562 636.441406 L 171.617188 636.441406 Z M 171.617188 467.757812 L 285.289062 538.753906 C 285.289062 546.871094 278.707031 553.453125 270.589844 553.453125 C 262.46875 553.453125 255.890625 546.871094 255.890625 538.753906 C 255.890625 530.632812 262.46875 524.050781 270.589844 524.050781 C 278.707031 524.050781 285.289062 530.632812 285.289062 538.753906 Z M 171.617188 467.757812 "/>
</clipPath>
<clipPath id="clip97">
  <path d="M 224 469.949219 L 313 469.949219 L 313 551.6875 L 224 551.6875 Z M 224 469.949219 "/>
</clipPath>
<clipPath id="clip98">
  <path d="M 145.613281 469.949219 L 390.800781 469.949219 L 390.800781 551.6875 L 145.613281 551.6875 Z M 145.613281 469.949219 L 280.53125 482.886719 C 280.53125 491.003906 273.949219 497.585938 265.828125 497.585938 C 257.710938 497.585938 251.128906 491.003906 251.128906 482.886719 C 251.128906 474.769531 257.710938 468.1875 265.828125 468.1875 C 273.949219 468.1875 280.53125 474.769531 280.53125 482.886719 Z M 145.613281 469.949219 "/>
</clipPath>
<clipPath id="clip99">
  <path d="M 145.613281 469.949219 L 390.800781 469.949219 L 390.800781 551.6875 L 145.613281 551.6875 Z M 145.613281 469.949219 L 285.289062 538.753906 C 285.289062 546.871094 278.707031 553.453125 270.589844 553.453125 C 262.46875 553.453125 255.890625 546.871094 255.890625 538.753906 C 255.890625 530.632812 262.46875 524.050781 270.589844 524.050781 C 278.707031 524.050781 285.289062 530.632812 285.289062 538.753906 Z M 145.613281 469.949219 "/>
</clipPath>
<clipPath id="clip100">
  <path d="M 260 0 L 385 0 L 385 94 L 260 94 Z M 260 0 "/>
</clipPath>
<clipPath id="clip101">
  <path d="M 254.527344 -77.199219 L 391.070312 -77.199219 L 391.070312 163.171875 L 254.527344 163.171875 Z M 254.527344 -77.199219 L 357.960938 51.425781 C 357.960938 59.542969 351.378906 66.125 343.261719 66.125 C 335.144531 66.125 328.5625 59.542969 328.5625 51.425781 C 328.5625 43.304688 335.144531 36.726562 343.261719 36.726562 C 351.378906 36.726562 357.960938 43.304688 357.960938 51.425781 Z M 254.527344 -77.199219 "/>
</clipPath>
<clipPath id="clip102">
  <path d="M 254.527344 -77.199219 L 391.070312 -77.199219 L 391.070312 163.171875 L 254.527344 163.171875 Z M 254.527344 -77.199219 L 317.039062 34.550781 C 317.039062 42.667969 310.460938 49.25 302.339844 49.25 C 294.222656 49.25 287.640625 42.667969 287.640625 34.550781 C 287.640625 26.433594 294.222656 19.851562 302.339844 19.851562 C 310.460938 19.851562 317.039062 26.433594 317.039062 34.550781 Z M 254.527344 -77.199219 "/>
</clipPath>
<clipPath id="clip103">
  <path d="M 32 104 L 147 104 L 147 211 L 32 211 Z M 32 104 "/>
</clipPath>
<clipPath id="clip104">
  <path d="M 1.9375 47.605469 L 177.371094 47.605469 L 177.371094 266.917969 L 1.9375 266.917969 Z M 1.9375 47.605469 L 88.621094 145.867188 C 88.621094 153.984375 82.039062 160.566406 73.921875 160.566406 C 65.800781 160.566406 59.222656 153.984375 59.222656 145.867188 C 59.222656 137.746094 65.800781 131.167969 73.921875 131.167969 C 82.039062 131.167969 88.621094 137.746094 88.621094 145.867188 Z M 1.9375 47.605469 "/>
</clipPath>
<clipPath id="clip105">
  <path d="M 1.9375 47.605469 L 177.371094 47.605469 L 177.371094 266.917969 L 1.9375 266.917969 Z M 1.9375 47.605469 L 120.089844 168.660156 C 120.089844 176.78125 113.507812 183.363281 105.390625 183.363281 C 97.269531 183.363281 90.6875 176.78125 90.6875 168.660156 C 90.6875 160.542969 97.269531 153.960938 105.390625 153.960938 C 113.507812 153.960938 120.089844 160.542969 120.089844 168.660156 Z M 1.9375 47.605469 "/>
</clipPath>
<clipPath id="clip106">
  <path d="M 96 26 L 207 26 L 207 146 L 96 146 Z M 96 26 "/>
</clipPath>
<clipPath id="clip107">
  <path d="M 40.769531 -5.789062 L 261.777344 -5.789062 L 261.777344 177.472656 L 40.769531 177.472656 Z M 40.769531 -5.789062 L 179.472656 67.894531 C 179.472656 76.015625 172.894531 82.59375 164.773438 82.59375 C 156.65625 82.59375 150.074219 76.015625 150.074219 67.894531 C 150.074219 59.777344 156.65625 53.195312 164.773438 53.195312 C 172.894531 53.195312 179.472656 59.777344 179.472656 67.894531 Z M 40.769531 -5.789062 "/>
</clipPath>
<clipPath id="clip108">
  <path d="M 40.769531 -5.789062 L 261.777344 -5.789062 L 261.777344 177.472656 L 40.769531 177.472656 Z M 40.769531 -5.789062 L 152.480469 103.792969 C 152.480469 111.910156 145.898438 118.492188 137.777344 118.492188 C 129.660156 118.492188 123.078125 111.910156 123.078125 103.792969 C 123.078125 95.671875 129.660156 89.089844 137.777344 89.089844 C 145.898438 89.089844 152.480469 95.671875 152.480469 103.792969 Z M 40.769531 -5.789062 "/>
</clipPath>
<clipPath id="clip109">
  <path d="M 63 62 L 180 62 L 180 211 L 63 211 Z M 63 62 "/>
</clipPath>
<clipPath id="clip110">
  <path d="M -2.855469 48.277344 L 246.019531 48.277344 L 246.019531 224.171875 L -2.855469 224.171875 Z M -2.855469 48.277344 L 152.480469 103.792969 C 152.480469 111.910156 145.898438 118.492188 137.777344 118.492188 C 129.660156 118.492188 123.078125 111.910156 123.078125 103.792969 C 123.078125 95.671875 129.660156 89.089844 137.777344 89.089844 C 145.898438 89.089844 152.480469 95.671875 152.480469 103.792969 Z M -2.855469 48.277344 "/>
</clipPath>
<clipPath id="clip111">
  <path d="M -2.855469 48.277344 L 246.019531 48.277344 L 246.019531 224.171875 L -2.855469 224.171875 Z M -2.855469 48.277344 L 120.089844 168.660156 C 120.089844 176.78125 113.507812 183.363281 105.390625 183.363281 C 97.269531 183.363281 90.6875 176.78125 90.6875 168.660156 C 90.6875 160.542969 97.269531 153.960938 105.390625 153.960938 C 113.507812 153.960938 120.089844 160.542969 120.089844 168.660156 Z M -2.855469 48.277344 "/>
</clipPath>
</defs>
<g id="surface821">
<g clip-path="url(#clip1)" clip-rule="nonzero">
<g clip-path="url(#clip2)" clip-rule="evenodd">
<g clip-path="url(#clip3)" clip-rule="evenodd">
<path style="fill:none;stroke-width:0.0249788;stroke-linecap:butt;stroke-linejoin:miter;stroke:rgb(17.96875%,20.3125%,21.09375%);stroke-opacity:0.8;stroke-miterlimit:10;" d="M 4.482765 3.718186 L 4.153934 4.346113 " transform="matrix(117.698844,0,0,117.698844,-5.82725,-91.05978)"/>
</g>
</g>
</g>
<g clip-path="url(#clip4)" clip-rule="nonzero">
<g clip-path="url(#clip5)" clip-rule="evenodd">
<g clip-path="url(#clip6)" clip-rule="evenodd">
<path style="fill:none;stroke-width:0.0249788;stroke-linecap:butt;stroke-linejoin:miter;stroke:rgb(17.96875%,20.3125%,21.09375%);stroke-opacity:0.8;stroke-miterlimit:10;" d="M 4.482765 3.718186 L 4.572308 3.211729 " transform="matrix(117.698844,0,0,117.698844,-5.82725,-91.05978)"/>
</g>
</g>
</g>
<g clip-path="url(#clip7)" clip-rule="nonzero">
<g clip-path="url(#clip8)" clip-rule="evenodd">
<g clip-path="url(#clip9)" clip-rule="evenodd">
<path style="fill:none;stroke-width:0.0249788;stroke-linecap:butt;stroke-linejoin:miter;stroke:rgb(17.96875%,20.3125%,21.09375%);stroke-opacity:0.8;stroke-miterlimit:10;" d="M 4.482765 3.718186 L 4.708315 3.550186 " transform="matrix(117.698844,0,0,117.698844,-5.82725,-91.05978)"/>
</g>
</g>
</g>
<g clip-path="url(#clip10)" clip-rule="nonzero">
<g clip-path="url(#clip11)" clip-rule="evenodd">
<g clip-path="url(#clip12)" clip-rule="evenodd">
<path style="fill:none;stroke-width:0.0249788;stroke-linecap:butt;stroke-linejoin:miter;stroke:rgb(17.96875%,20.3125%,21.09375%);stroke-opacity:0.8;stroke-miterlimit:10;" d="M 3.293555 4.514378 L 3.786504 4.753336 " transform="matrix(117.698844,0,0,117.698844,-5.82725,-91.05978)"/>
</g>
</g>
</g>
<g clip-path="url(#clip13)" clip-rule="nonzero">
<g clip-path="url(#clip14)" clip-rule="evenodd">
<g clip-path="url(#clip15)" clip-rule="evenodd">
<path style="fill:none;stroke-width:0.0249788;stroke-linecap:butt;stroke-linejoin:miter;stroke:rgb(17.96875%,20.3125%,21.09375%);stroke-opacity:0.8;stroke-miterlimit:10;" d="M 3.293555 4.514378 L 3.807678 4.49941 " transform="matrix(117.698844,0,0,117.698844,-5.82725,-91.05978)"/>
</g>
</g>
</g>
<g clip-path="url(#clip16)" clip-rule="nonzero">
<g clip-path="url(#clip17)" clip-rule="evenodd">
<g clip-path="url(#clip18)" clip-rule="evenodd">
<path style="fill:none;stroke-width:0.0249788;stroke-linecap:butt;stroke-linejoin:miter;stroke:rgb(17.96875%,20.3125%,21.09375%);stroke-opacity:0.8;stroke-miterlimit:10;" d="M 3.293555 4.514378 L 2.284093 3.943801 " transform="matrix(117.698844,0,0,117.698844,-5.82725,-91.05978)"/>
</g>
</g>
</g>
<g clip-path="url(#clip19)" clip-rule="nonzero">
<g clip-path="url(#clip20)" clip-rule="evenodd">
<g clip-path="url(#clip21)" clip-rule="evenodd">
<path style="fill:none;stroke-width:0.0249788;stroke-linecap:butt;stroke-linejoin:miter;stroke:rgb(17.96875%,20.3125%,21.09375%);stroke-opacity:0.8;stroke-miterlimit:10;" d="M 3.786504 4.753336 L 4.153934 4.346113 " transform="matrix(117.698844,0,0,117.698844,-5.82725,-91.05978)"/>
</g>
</g>
</g>
<g clip-path="url(#clip22)" clip-rule="nonzero">
<g clip-path="url(#clip23)" clip-rule="evenodd">
<g clip-path="url(#clip24)" clip-rule="evenodd">
<path style="fill:none;stroke-width:0.0249788;stroke-linecap:butt;stroke-linejoin:miter;stroke:rgb(17.96875%,20.3125%,21.09375%);stroke-opacity:0.8;stroke-miterlimit:10;" d="M 4.153934 4.346113 L 3.807678 4.49941 " transform="matrix(117.698844,0,0,117.698844,-5.82725,-91.05978)"/>
</g>
</g>
</g>
<g clip-path="url(#clip25)" clip-rule="nonzero">
<g clip-path="url(#clip26)" clip-rule="evenodd">
<g clip-path="url(#clip27)" clip-rule="evenodd">
<path style="fill:none;stroke-width:0.0249788;stroke-linecap:butt;stroke-linejoin:miter;stroke:rgb(17.96875%,20.3125%,21.09375%);stroke-opacity:0.8;stroke-miterlimit:10;" d="M 2.427002 2.792193 L 2.605855 3.040377 " transform="matrix(117.698844,0,0,117.698844,-5.82725,-91.05978)"/>
</g>
</g>
</g>
<g clip-path="url(#clip28)" clip-rule="nonzero">
<g clip-path="url(#clip29)" clip-rule="evenodd">
<g clip-path="url(#clip30)" clip-rule="evenodd">
<path style="fill:none;stroke-width:0.0249788;stroke-linecap:butt;stroke-linejoin:miter;stroke:rgb(17.96875%,20.3125%,21.09375%);stroke-opacity:0.8;stroke-miterlimit:10;" d="M 2.427002 2.792193 L 2.42906 3.335091 " transform="matrix(117.698844,0,0,117.698844,-5.82725,-91.05978)"/>
</g>
</g>
</g>
<g clip-path="url(#clip31)" clip-rule="nonzero">
<g clip-path="url(#clip32)" clip-rule="evenodd">
<g clip-path="url(#clip33)" clip-rule="evenodd">
<path style="fill:none;stroke-width:0.0249788;stroke-linecap:butt;stroke-linejoin:miter;stroke:rgb(17.96875%,20.3125%,21.09375%);stroke-opacity:0.8;stroke-miterlimit:10;" d="M 2.427002 2.792193 L 2.460158 2.481018 " transform="matrix(117.698844,0,0,117.698844,-5.82725,-91.05978)"/>
</g>
</g>
</g>
<g clip-path="url(#clip34)" clip-rule="nonzero">
<g clip-path="url(#clip35)" clip-rule="evenodd">
<g clip-path="url(#clip36)" clip-rule="evenodd">
<path style="fill:none;stroke-width:0.0249788;stroke-linecap:butt;stroke-linejoin:miter;stroke:rgb(17.96875%,20.3125%,21.09375%);stroke-opacity:0.8;stroke-miterlimit:10;" d="M 4.044777 2.146145 L 3.471213 2.182255 " transform="matrix(117.698844,0,0,117.698844,-5.82725,-91.05978)"/>
</g>
</g>
</g>
<g clip-path="url(#clip37)" clip-rule="nonzero">
<g clip-path="url(#clip38)" clip-rule="evenodd">
<g clip-path="url(#clip39)" clip-rule="evenodd">
<path style="fill:none;stroke-width:0.0249788;stroke-linecap:butt;stroke-linejoin:miter;stroke:rgb(17.96875%,20.3125%,21.09375%);stroke-opacity:0.8;stroke-miterlimit:10;" d="M 2.605855 3.040377 L 3.471213 2.182255 " transform="matrix(117.698844,0,0,117.698844,-5.82725,-91.05978)"/>
</g>
</g>
</g>
<g clip-path="url(#clip40)" clip-rule="nonzero">
<g clip-path="url(#clip41)" clip-rule="evenodd">
<g clip-path="url(#clip42)" clip-rule="evenodd">
<path style="fill:none;stroke-width:0.0249788;stroke-linecap:butt;stroke-linejoin:miter;stroke:rgb(17.96875%,20.3125%,21.09375%);stroke-opacity:0.8;stroke-miterlimit:10;" d="M 2.605855 3.040377 L 2.42906 3.335091 " transform="matrix(117.698844,0,0,117.698844,-5.82725,-91.05978)"/>
</g>
</g>
</g>
<g clip-path="url(#clip43)" clip-rule="nonzero">
<g clip-path="url(#clip44)" clip-rule="evenodd">
<g clip-path="url(#clip45)" clip-rule="evenodd">
<path style="fill:none;stroke-width:0.0249788;stroke-linecap:butt;stroke-linejoin:miter;stroke:rgb(17.96875%,20.3125%,21.09375%);stroke-opacity:0.8;stroke-miterlimit:10;" d="M 2.605855 3.040377 L 2.284093 3.943801 " transform="matrix(117.698844,0,0,117.698844,-5.82725,-91.05978)"/>
</g>
</g>
</g>
<g clip-path="url(#clip46)" clip-rule="nonzero">
<g clip-path="url(#clip47)" clip-rule="evenodd">
<g clip-path="url(#clip48)" clip-rule="evenodd">
<path style="fill:none;stroke-width:0.0249788;stroke-linecap:butt;stroke-linejoin:miter;stroke:rgb(17.96875%,20.3125%,21.09375%);stroke-opacity:0.8;stroke-miterlimit:10;" d="M 2.605855 3.040377 L 2.460158 2.481018 " transform="matrix(117.698844,0,0,117.698844,-5.82725,-91.05978)"/>
</g>
</g>
</g>
<g clip-path="url(#clip49)" clip-rule="nonzero">
<g clip-path="url(#clip50)" clip-rule="evenodd">
<g clip-path="url(#clip51)" clip-rule="evenodd">
<path style="fill:none;stroke-width:0.0249788;stroke-linecap:butt;stroke-linejoin:miter;stroke:rgb(17.96875%,20.3125%,21.09375%);stroke-opacity:0.8;stroke-miterlimit:10;" d="M 2.605855 3.040377 L 3.278288 2.973701 " transform="matrix(117.698844,0,0,117.698844,-5.82725,-91.05978)"/>
</g>
</g>
</g>
<g clip-path="url(#clip52)" clip-rule="nonzero">
<g clip-path="url(#clip53)" clip-rule="evenodd">
<g clip-path="url(#clip54)" clip-rule="evenodd">
<path style="fill:none;stroke-width:0.0249788;stroke-linecap:butt;stroke-linejoin:miter;stroke:rgb(17.96875%,20.3125%,21.09375%);stroke-opacity:0.8;stroke-miterlimit:10;" d="M 2.605855 3.040377 L 1.585242 3.664752 " transform="matrix(117.698844,0,0,117.698844,-5.82725,-91.05978)"/>
</g>
</g>
</g>
<g clip-path="url(#clip55)" clip-rule="nonzero">
<g clip-path="url(#clip56)" clip-rule="evenodd">
<g clip-path="url(#clip57)" clip-rule="evenodd">
<path style="fill:none;stroke-width:0.0249788;stroke-linecap:butt;stroke-linejoin:miter;stroke:rgb(17.96875%,20.3125%,21.09375%);stroke-opacity:0.8;stroke-miterlimit:10;" d="M 3.471213 2.182255 L 3.414261 1.542546 " transform="matrix(117.698844,0,0,117.698844,-5.82725,-91.05978)"/>
</g>
</g>
</g>
<g clip-path="url(#clip58)" clip-rule="nonzero">
<g clip-path="url(#clip59)" clip-rule="evenodd">
<g clip-path="url(#clip60)" clip-rule="evenodd">
<path style="fill:none;stroke-width:0.0249788;stroke-linecap:butt;stroke-linejoin:miter;stroke:rgb(17.96875%,20.3125%,21.09375%);stroke-opacity:0.8;stroke-miterlimit:10;" d="M 2.42906 3.335091 L 2.284093 3.943801 " transform="matrix(117.698844,0,0,117.698844,-5.82725,-91.05978)"/>
</g>
</g>
</g>
<g clip-path="url(#clip61)" clip-rule="nonzero">
<g clip-path="url(#clip62)" clip-rule="evenodd">
<g clip-path="url(#clip63)" clip-rule="evenodd">
<path style="fill:none;stroke-width:0.0249788;stroke-linecap:butt;stroke-linejoin:miter;stroke:rgb(17.96875%,20.3125%,21.09375%);stroke-opacity:0.8;stroke-miterlimit:10;" d="M 2.284093 3.943801 L 2.034216 4.451918 " transform="matrix(117.698844,0,0,117.698844,-5.82725,-91.05978)"/>
</g>
</g>
</g>
<g clip-path="url(#clip64)" clip-rule="nonzero">
<g clip-path="url(#clip65)" clip-rule="evenodd">
<g clip-path="url(#clip66)" clip-rule="evenodd">
<path style="fill:none;stroke-width:0.0249788;stroke-linecap:butt;stroke-linejoin:miter;stroke:rgb(17.96875%,20.3125%,21.09375%);stroke-opacity:0.8;stroke-miterlimit:10;" d="M 2.284093 3.943801 L 0.996013 3.075457 " transform="matrix(117.698844,0,0,117.698844,-5.82725,-91.05978)"/>
</g>
</g>
</g>
<g clip-path="url(#clip67)" clip-rule="nonzero">
<g clip-path="url(#clip68)" clip-rule="evenodd">
<g clip-path="url(#clip69)" clip-rule="evenodd">
<path style="fill:none;stroke-width:0.0249788;stroke-linecap:butt;stroke-linejoin:miter;stroke:rgb(17.96875%,20.3125%,21.09375%);stroke-opacity:0.8;stroke-miterlimit:10;" d="M 2.284093 3.943801 L 2.308055 4.876399 " transform="matrix(117.698844,0,0,117.698844,-5.82725,-91.05978)"/>
</g>
</g>
</g>
<g clip-path="url(#clip70)" clip-rule="nonzero">
<g clip-path="url(#clip71)" clip-rule="evenodd">
<g clip-path="url(#clip72)" clip-rule="evenodd">
<path style="fill:none;stroke-width:0.0249788;stroke-linecap:butt;stroke-linejoin:miter;stroke:rgb(17.96875%,20.3125%,21.09375%);stroke-opacity:0.8;stroke-miterlimit:10;" d="M 3.753912 1.426021 L 3.414261 1.542546 " transform="matrix(117.698844,0,0,117.698844,-5.82725,-91.05978)"/>
</g>
</g>
</g>
<g clip-path="url(#clip73)" clip-rule="nonzero">
<g clip-path="url(#clip74)" clip-rule="evenodd">
<g clip-path="url(#clip75)" clip-rule="evenodd">
<path style="fill:none;stroke-width:0.0249788;stroke-linecap:butt;stroke-linejoin:miter;stroke:rgb(17.96875%,20.3125%,21.09375%);stroke-opacity:0.8;stroke-miterlimit:10;" d="M 3.414261 1.542546 L 2.965951 1.210594 " transform="matrix(117.698844,0,0,117.698844,-5.82725,-91.05978)"/>
</g>
</g>
</g>
<g clip-path="url(#clip76)" clip-rule="nonzero">
<g clip-path="url(#clip77)" clip-rule="evenodd">
<g clip-path="url(#clip78)" clip-rule="evenodd">
<path style="fill:none;stroke-width:0.0249788;stroke-linecap:butt;stroke-linejoin:miter;stroke:rgb(17.96875%,20.3125%,21.09375%);stroke-opacity:0.8;stroke-miterlimit:10;" d="M 0.996013 3.075457 L 0.522181 2.919571 " transform="matrix(117.698844,0,0,117.698844,-5.82725,-91.05978)"/>
</g>
</g>
</g>
<g clip-path="url(#clip79)" clip-rule="nonzero">
<g clip-path="url(#clip80)" clip-rule="evenodd">
<g clip-path="url(#clip81)" clip-rule="evenodd">
<path style="fill:none;stroke-width:0.0249788;stroke-linecap:butt;stroke-linejoin:miter;stroke:rgb(17.96875%,20.3125%,21.09375%);stroke-opacity:0.8;stroke-miterlimit:10;" d="M 0.996013 3.075457 L 0.488461 3.314215 " transform="matrix(117.698844,0,0,117.698844,-5.82725,-91.05978)"/>
</g>
</g>
</g>
<g clip-path="url(#clip82)" clip-rule="nonzero">
<g clip-path="url(#clip83)" clip-rule="evenodd">
<g clip-path="url(#clip84)" clip-rule="evenodd">
<path style="fill:none;stroke-width:0.0249788;stroke-linecap:butt;stroke-linejoin:miter;stroke:rgb(17.96875%,20.3125%,21.09375%);stroke-opacity:0.8;stroke-miterlimit:10;" d="M 0.996013 3.075457 L 0.944936 2.206648 " transform="matrix(117.698844,0,0,117.698844,-5.82725,-91.05978)"/>
</g>
</g>
</g>
<g clip-path="url(#clip85)" clip-rule="nonzero">
<g clip-path="url(#clip86)" clip-rule="evenodd">
<g clip-path="url(#clip87)" clip-rule="evenodd">
<path style="fill:none;stroke-width:0.0249788;stroke-linecap:butt;stroke-linejoin:miter;stroke:rgb(17.96875%,20.3125%,21.09375%);stroke-opacity:0.8;stroke-miterlimit:10;" d="M 0.776737 4.558254 L 0.999066 4.175656 " transform="matrix(117.698844,0,0,117.698844,-5.82725,-91.05978)"/>
</g>
</g>
</g>
<g clip-path="url(#clip88)" clip-rule="nonzero">
<g clip-path="url(#clip89)" clip-rule="evenodd">
<g clip-path="url(#clip90)" clip-rule="evenodd">
<path style="fill:none;stroke-width:0.0249788;stroke-linecap:butt;stroke-linejoin:miter;stroke:rgb(17.96875%,20.3125%,21.09375%);stroke-opacity:0.8;stroke-miterlimit:10;" d="M 0.776737 4.558254 L 0.817658 4.862393 " transform="matrix(117.698844,0,0,117.698844,-5.82725,-91.05978)"/>
</g>
</g>
</g>
<g clip-path="url(#clip91)" clip-rule="nonzero">
<g clip-path="url(#clip92)" clip-rule="evenodd">
<g clip-path="url(#clip93)" clip-rule="evenodd">
<path style="fill:none;stroke-width:0.0249788;stroke-linecap:butt;stroke-linejoin:miter;stroke:rgb(17.96875%,20.3125%,21.09375%);stroke-opacity:0.8;stroke-miterlimit:10;" d="M 0.999066 4.175656 L 1.585242 3.664752 " transform="matrix(117.698844,0,0,117.698844,-5.82725,-91.05978)"/>
</g>
</g>
</g>
<g clip-path="url(#clip94)" clip-rule="nonzero">
<g clip-path="url(#clip95)" clip-rule="evenodd">
<g clip-path="url(#clip96)" clip-rule="evenodd">
<path style="fill:none;stroke-width:0.0249788;stroke-linecap:butt;stroke-linejoin:miter;stroke:rgb(17.96875%,20.3125%,21.09375%);stroke-opacity:0.8;stroke-miterlimit:10;" d="M 2.509244 5.577871 L 2.348512 5.351061 " transform="matrix(117.698844,0,0,117.698844,-5.82725,-91.05978)"/>
</g>
</g>
</g>
<g clip-path="url(#clip97)" clip-rule="nonzero">
<g clip-path="url(#clip98)" clip-rule="evenodd">
<g clip-path="url(#clip99)" clip-rule="evenodd">
<path style="fill:none;stroke-width:0.0249788;stroke-linecap:butt;stroke-linejoin:miter;stroke:rgb(17.96875%,20.3125%,21.09375%);stroke-opacity:0.8;stroke-miterlimit:10;" d="M 2.308055 4.876399 L 2.348512 5.351061 " transform="matrix(117.698844,0,0,117.698844,-5.82725,-91.05978)"/>
</g>
</g>
</g>
<g clip-path="url(#clip100)" clip-rule="nonzero">
<g clip-path="url(#clip101)" clip-rule="evenodd">
<g clip-path="url(#clip102)" clip-rule="evenodd">
<path style="fill:none;stroke-width:0.0249788;stroke-linecap:butt;stroke-linejoin:miter;stroke:rgb(17.96875%,20.3125%,21.09375%);stroke-opacity:0.8;stroke-miterlimit:10;" d="M 2.965951 1.210594 L 2.618268 1.06722 " transform="matrix(117.698844,0,0,117.698844,-5.82725,-91.05978)"/>
</g>
</g>
</g>
<g clip-path="url(#clip103)" clip-rule="nonzero">
<g clip-path="url(#clip104)" clip-rule="evenodd">
<g clip-path="url(#clip105)" clip-rule="evenodd">
<path style="fill:none;stroke-width:0.0249788;stroke-linecap:butt;stroke-linejoin:miter;stroke:rgb(17.96875%,20.3125%,21.09375%);stroke-opacity:0.8;stroke-miterlimit:10;" d="M 0.677569 2.012993 L 0.944936 2.206648 " transform="matrix(117.698844,0,0,117.698844,-5.82725,-91.05978)"/>
</g>
</g>
</g>
<g clip-path="url(#clip106)" clip-rule="nonzero">
<g clip-path="url(#clip107)" clip-rule="evenodd">
<g clip-path="url(#clip108)" clip-rule="evenodd">
<path style="fill:none;stroke-width:0.0249788;stroke-linecap:butt;stroke-linejoin:miter;stroke:rgb(17.96875%,20.3125%,21.09375%);stroke-opacity:0.8;stroke-miterlimit:10;" d="M 1.449468 1.350517 L 1.220102 1.65552 " transform="matrix(117.698844,0,0,117.698844,-5.82725,-91.05978)"/>
</g>
</g>
</g>
<g clip-path="url(#clip109)" clip-rule="nonzero">
<g clip-path="url(#clip110)" clip-rule="evenodd">
<g clip-path="url(#clip111)" clip-rule="evenodd">
<path style="fill:none;stroke-width:0.0249788;stroke-linecap:butt;stroke-linejoin:miter;stroke:rgb(17.96875%,20.3125%,21.09375%);stroke-opacity:0.8;stroke-miterlimit:10;" d="M 1.220102 1.65552 L 0.944936 2.206648 " transform="matrix(117.698844,0,0,117.698844,-5.82725,-91.05978)"/>
</g>
</g>
</g>
<path style="fill-rule:nonzero;fill:rgb(100%,92.941176%,43.529412%);fill-opacity:1;stroke-width:0.0249788;stroke-linecap:butt;stroke-linejoin:miter;stroke:rgb(60%,60%,60%);stroke-opacity:0.8;stroke-miterlimit:10;" d="M 0.124906 -0.00000553963 C 0.124906 0.0689934 0.0689832 0.124883 -0.0000157181 0.124883 C -0.0689815 0.124883 -0.124904 0.0689934 -0.124904 -0.00000553963 C -0.124904 -0.0689713 -0.0689815 -0.124894 -0.0000157181 -0.124894 C 0.0689832 -0.124894 0.124906 -0.0689713 0.124906 -0.00000553963 Z M 0.124906 -0.00000553963 " transform="matrix(117.698844,0,0,117.698844,521.790913,346.567058)"/>
<path style="fill-rule:nonzero;fill:rgb(100%,92.941176%,43.529412%);fill-opacity:1;stroke-width:0.0249788;stroke-linecap:butt;stroke-linejoin:miter;stroke:rgb(60%,60%,60%);stroke-opacity:0.8;stroke-miterlimit:10;" d="M 0.124889 -0.00000842637 C 0.124889 0.0689905 0.0689661 0.12488 0.000000395507 0.12488 C -0.0689653 0.12488 -0.124888 0.0689905 -0.124888 -0.00000842637 C -0.124888 -0.0689742 -0.0689653 -0.124897 0.000000395507 -0.124897 C 0.0689661 -0.124897 0.124889 -0.0689742 0.124889 -0.00000842637 Z M 0.124889 -0.00000842637 " transform="matrix(117.698844,0,0,117.698844,381.820266,440.278336)"/>
<path style="fill-rule:nonzero;fill:rgb(100%,92.941176%,43.529412%);fill-opacity:1;stroke-width:0.0249788;stroke-linecap:butt;stroke-linejoin:miter;stroke:rgb(60%,60%,60%);stroke-opacity:0.8;stroke-miterlimit:10;" d="M 0.124898 -0.0000119659 C 0.124898 0.068987 0.0689755 0.12491 0.00000980727 0.12491 C -0.0689891 0.12491 -0.124879 0.068987 -0.124879 -0.0000119659 C -0.124879 -0.0689777 -0.0689891 -0.1249 0.00000980727 -0.1249 C 0.0689755 -0.1249 0.124898 -0.0689777 0.124898 -0.0000119659 Z M 0.124898 -0.0000119659 " transform="matrix(117.698844,0,0,117.698844,439.838689,468.403752)"/>
<path style="fill-rule:nonzero;fill:rgb(100%,92.941176%,43.529412%);fill-opacity:1;stroke-width:0.0249788;stroke-linecap:butt;stroke-linejoin:miter;stroke:rgb(60%,60%,60%);stroke-opacity:0.8;stroke-miterlimit:10;" d="M 0.124897 0.00000047521 C 0.124897 0.0689662 0.0689747 0.124889 0.00000892054 0.124889 C -0.06899 0.124889 -0.124879 0.0689662 -0.124879 0.00000047521 C -0.124879 -0.0689653 -0.06899 -0.124888 0.00000892054 -0.124888 C 0.0689747 -0.124888 0.124897 -0.0689653 0.124897 0.00000047521 Z M 0.124897 0.00000047521 " transform="matrix(117.698844,0,0,117.698844,483.084888,420.4726)"/>
<path style="fill-rule:nonzero;fill:rgb(100%,92.941176%,43.529412%);fill-opacity:1;stroke-width:0.0249788;stroke-linecap:butt;stroke-linejoin:miter;stroke:rgb(60%,60%,60%);stroke-opacity:0.8;stroke-miterlimit:10;" d="M 0.124886 0.00000550617 C 0.124886 0.0689712 0.0689635 0.124894 -0.00000225657 0.124894 C -0.068968 0.124894 -0.124891 0.0689712 -0.124891 0.00000550617 C -0.124891 -0.0689934 -0.068968 -0.124883 -0.00000225657 -0.124883 C 0.0689635 -0.124883 0.124886 -0.0689934 0.124886 0.00000550617 Z M 0.124886 0.00000550617 " transform="matrix(117.698844,0,0,117.698844,442.332297,438.514977)"/>
<path style="fill-rule:nonzero;fill:rgb(55.294118%,82.745098%,78.039216%);fill-opacity:1;stroke-width:0.0249788;stroke-linecap:butt;stroke-linejoin:miter;stroke:rgb(60%,60%,60%);stroke-opacity:0.8;stroke-miterlimit:10;" d="M 0.124905 0.0000146063 C 0.124905 0.0689803 0.068982 0.124903 0.0000162902 0.124903 C -0.0689826 0.124903 -0.124905 0.0689803 -0.124905 0.0000146063 C -0.124905 -0.0689843 -0.0689826 -0.124907 0.0000162902 -0.124907 C 0.068982 -0.124907 0.124905 -0.0689843 0.124905 0.0000146063 Z M 0.124905 0.0000146063 " transform="matrix(117.698844,0,0,117.698844,279.826208,237.576406)"/>
<path style="fill-rule:nonzero;fill:rgb(55.294118%,82.745098%,78.039216%);fill-opacity:1;stroke-width:0.0249788;stroke-linecap:butt;stroke-linejoin:miter;stroke:rgb(60%,60%,60%);stroke-opacity:0.8;stroke-miterlimit:10;" d="M 0.124882 0.0000124259 C 0.124882 0.0689782 0.0689926 0.124901 -0.00000636377 0.124901 C -0.0689721 0.124901 -0.124895 0.0689782 -0.124895 0.0000124259 C -0.124895 -0.0689865 -0.0689721 -0.124909 -0.00000636377 -0.124909 C 0.0689926 -0.124909 0.124882 -0.0689865 0.124882 0.0000124259 Z M 0.124882 0.0000124259 " transform="matrix(117.698844,0,0,117.698844,470.23903,161.5376)"/>
<path style="fill-rule:nonzero;fill:rgb(55.294118%,82.745098%,78.039216%);fill-opacity:1;stroke-width:0.0249788;stroke-linecap:butt;stroke-linejoin:miter;stroke:rgb(60%,60%,60%);stroke-opacity:0.8;stroke-miterlimit:10;" d="M 0.124885 0.000000228295 C 0.124885 0.068966 0.0689628 0.124889 -0.00000296127 0.124889 C -0.0689687 0.124889 -0.124891 0.068966 -0.124891 0.000000228295 C -0.124891 -0.0689655 -0.0689687 -0.124888 -0.00000296127 -0.124888 C 0.0689628 -0.124888 0.124885 -0.0689655 0.124885 0.000000228295 Z M 0.124885 0.000000228295 " transform="matrix(117.698844,0,0,117.698844,300.879255,266.789036)"/>
<path style="fill-rule:nonzero;fill:rgb(55.294118%,82.745098%,78.039216%);fill-opacity:1;stroke-width:0.0249788;stroke-linecap:butt;stroke-linejoin:miter;stroke:rgb(60%,60%,60%);stroke-opacity:0.8;stroke-miterlimit:10;" d="M 0.124909 -0.00000474471 C 0.124909 0.068961 0.0689862 0.124884 -0.0000127591 0.124884 C -0.0689785 0.124884 -0.124901 0.068961 -0.124901 -0.00000474471 C -0.124901 -0.0689705 -0.0689785 -0.124893 -0.0000127591 -0.124893 C 0.0689862 -0.124893 0.124909 -0.0689705 0.124909 -0.00000474471 Z M 0.124909 -0.00000474471 " transform="matrix(117.698844,0,0,117.698844,402.73197,165.789621)"/>
<path style="fill-rule:nonzero;fill:rgb(100%,92.941176%,43.529412%);fill-opacity:1;stroke-width:0.0249788;stroke-linecap:butt;stroke-linejoin:miter;stroke:rgb(60%,60%,60%);stroke-opacity:0.8;stroke-miterlimit:10;" d="M 0.124894 -0.0000128977 C 0.124894 0.068986 0.0689715 0.124909 0.00000574874 0.124909 C -0.0689932 0.124909 -0.124883 0.068986 -0.124883 -0.0000128977 C -0.124883 -0.0689786 -0.0689932 -0.124901 0.00000574874 -0.124901 C 0.0689715 -0.124901 0.124894 -0.0689786 0.124894 -0.0000128977 Z M 0.124894 -0.0000128977 " transform="matrix(117.698844,0,0,117.698844,280.069636,301.478081)"/>
<path style="fill-rule:nonzero;fill:rgb(100%,92.941176%,43.529412%);fill-opacity:1;stroke-width:0.0249788;stroke-linecap:butt;stroke-linejoin:miter;stroke:rgb(60%,60%,60%);stroke-opacity:0.8;stroke-miterlimit:10;" d="M 0.124908 0.00000367898 C 0.124908 0.0689694 0.0689851 0.124892 -0.000013788 0.124892 C -0.0689795 0.124892 -0.124902 0.0689694 -0.124902 0.00000367898 C -0.124902 -0.0689621 -0.0689795 -0.124885 -0.000013788 -0.124885 C 0.0689851 -0.124885 0.124908 -0.0689621 0.124908 0.00000367898 Z M 0.124908 0.00000367898 " transform="matrix(117.698844,0,0,117.698844,263.009435,373.120661)"/>
<path style="fill-rule:nonzero;fill:rgb(55.294118%,82.745098%,78.039216%);fill-opacity:1;stroke-width:0.0249788;stroke-linecap:butt;stroke-linejoin:miter;stroke:rgb(60%,60%,60%);stroke-opacity:0.8;stroke-miterlimit:10;" d="M 0.124881 -0.0000119457 C 0.124881 0.068987 0.0689919 0.12491 -0.00000700055 0.12491 C -0.0689727 0.12491 -0.124895 0.068987 -0.124895 -0.0000119457 C -0.124895 -0.0689777 -0.0689727 -0.1249 -0.00000700055 -0.1249 C 0.0689919 -0.1249 0.124881 -0.0689777 0.124881 -0.0000119457 Z M 0.124881 -0.0000119457 " transform="matrix(117.698844,0,0,117.698844,283.731293,200.954531)"/>
<path style="fill-rule:nonzero;fill:rgb(55.294118%,82.745098%,78.039216%);fill-opacity:1;stroke-width:0.0249788;stroke-linecap:butt;stroke-linejoin:miter;stroke:rgb(60%,60%,60%);stroke-opacity:0.8;stroke-miterlimit:10;" d="M 0.124904 0.00000373461 C 0.124904 0.0689695 0.0689817 0.124892 0.0000159417 0.124892 C -0.068983 0.124892 -0.124906 0.0689695 -0.124906 0.00000373461 C -0.124906 -0.068962 -0.068983 -0.124885 0.0000159417 -0.124885 C 0.0689817 -0.124885 0.124904 -0.068962 0.124904 0.00000373461 Z M 0.124904 0.00000373461 " transform="matrix(117.698844,0,0,117.698844,436.00203,76.78081)"/>
<path style="fill-rule:nonzero;fill:rgb(55.294118%,82.745098%,78.039216%);fill-opacity:1;stroke-width:0.0249788;stroke-linecap:butt;stroke-linejoin:miter;stroke:rgb(60%,60%,60%);stroke-opacity:0.8;stroke-miterlimit:10;" d="M 0.12491 -0.00000359534 C 0.12491 0.0689621 0.0689875 0.124885 -0.0000114606 0.124885 C -0.0689772 0.124885 -0.1249 0.0689621 -0.1249 -0.00000359534 C -0.1249 -0.0689693 -0.0689772 -0.124892 -0.0000114606 -0.124892 C 0.0689875 -0.124892 0.12491 -0.0689693 0.12491 -0.00000359534 Z M 0.12491 -0.00000359534 " transform="matrix(117.698844,0,0,117.698844,396.028693,90.496517)"/>
<path style="fill-rule:nonzero;fill:rgb(100%,92.941176%,43.529412%);fill-opacity:1;stroke-width:0.0249788;stroke-linecap:butt;stroke-linejoin:miter;stroke:rgb(60%,60%,60%);stroke-opacity:0.8;stroke-miterlimit:10;" d="M 0.124902 -0.00000241588 C 0.124902 0.0689633 0.0689793 0.124886 0.0000135389 0.124886 C -0.0689854 0.124886 -0.124908 0.0689633 -0.124908 -0.00000241588 C -0.124908 -0.0689682 -0.0689854 -0.124891 0.0000135389 -0.124891 C 0.0689793 -0.124891 0.124902 -0.0689682 0.124902 -0.00000241588 Z M 0.124902 -0.00000241588 " transform="matrix(117.698844,0,0,117.698844,233.596063,432.926066)"/>
<path style="fill-rule:nonzero;fill:rgb(100%,92.941176%,43.529412%);fill-opacity:1;stroke-width:0.0249788;stroke-linecap:butt;stroke-linejoin:miter;stroke:rgb(60%,60%,60%);stroke-opacity:0.8;stroke-miterlimit:10;" d="M 0.124892 -0.0000138189 C 0.124892 0.0689851 0.068969 0.124908 0.00000327087 0.124908 C -0.0689625 0.124908 -0.124885 0.0689851 -0.124885 -0.0000138189 C -0.124885 -0.0689796 -0.0689625 -0.124902 0.00000327087 -0.124902 C 0.068969 -0.124902 0.124892 -0.0689796 0.124892 -0.0000138189 Z M 0.124892 -0.0000138189 " transform="matrix(117.698844,0,0,117.698844,111.401959,270.919595)"/>
<path style="fill-rule:nonzero;fill:rgb(55.294118%,82.745098%,78.039216%);fill-opacity:1;stroke-width:0.0249788;stroke-linecap:butt;stroke-linejoin:miter;stroke:rgb(60%,60%,60%);stroke-opacity:0.8;stroke-miterlimit:10;" d="M 0.124908 -0.0000121121 C 0.124908 0.0689868 0.0689855 0.124909 -0.0000134595 0.124909 C -0.0689792 0.124909 -0.124902 0.0689868 -0.124902 -0.0000121121 C -0.124902 -0.0689778 -0.0689792 -0.1249 -0.0000134595 -0.1249 C 0.0689855 -0.1249 0.124908 -0.0689778 0.124908 -0.0000121121 Z M 0.124908 -0.0000121121 " transform="matrix(117.698844,0,0,117.698844,85.595334,445.442832)"/>
<path style="fill-rule:nonzero;fill:rgb(55.294118%,82.745098%,78.039216%);fill-opacity:1;stroke-width:0.0249788;stroke-linecap:butt;stroke-linejoin:miter;stroke:rgb(60%,60%,60%);stroke-opacity:0.8;stroke-miterlimit:10;" d="M 0.1249 0.00000103516 C 0.1249 0.0689668 0.0689769 0.124889 0.0000112008 0.124889 C -0.0689877 0.124889 -0.12491 0.0689668 -0.12491 0.00000103516 C -0.12491 -0.0689647 -0.0689877 -0.124887 0.0000112008 -0.124887 C 0.0689769 -0.124887 0.1249 -0.0689647 0.1249 0.00000103516 Z M 0.1249 0.00000103516 " transform="matrix(117.698844,0,0,117.698844,380.022119,258.941284)"/>
<path style="fill-rule:nonzero;fill:rgb(55.294118%,82.745098%,78.039216%);fill-opacity:1;stroke-width:0.0249788;stroke-linecap:butt;stroke-linejoin:miter;stroke:rgb(60%,60%,60%);stroke-opacity:0.8;stroke-miterlimit:10;" d="M 0.124879 -0.0000164537 C 0.124879 0.0689825 0.0689894 0.124905 -0.00000955069 0.124905 C -0.0689753 0.124905 -0.124898 0.0689825 -0.124898 -0.0000164537 C -0.124898 -0.0689822 -0.0689753 -0.124905 -0.00000955069 -0.124905 C 0.0689894 -0.124905 0.124879 -0.0689822 0.124879 -0.0000164537 Z M 0.124879 -0.0000164537 " transform="matrix(117.698844,0,0,117.698844,111.762843,400.412093)"/>
<path style="fill-rule:nonzero;fill:rgb(55.294118%,82.745098%,78.039216%);fill-opacity:1;stroke-width:0.0249788;stroke-linecap:butt;stroke-linejoin:miter;stroke:rgb(60%,60%,60%);stroke-opacity:0.8;stroke-miterlimit:10;" d="M 0.1249 0.0000134546 C 0.1249 0.0689792 0.0689778 0.124902 0.0000120916 0.124902 C -0.0689868 0.124902 -0.124909 0.0689792 -0.124909 0.0000134546 C -0.124909 -0.0689855 -0.0689868 -0.124908 0.0000120916 -0.124908 C 0.0689778 -0.124908 0.1249 -0.0689855 0.1249 0.0000134546 Z M 0.1249 0.0000134546 " transform="matrix(117.698844,0,0,117.698844,90.408733,481.236698)"/>
<path style="fill-rule:nonzero;fill:rgb(55.294118%,82.745098%,78.039216%);fill-opacity:1;stroke-width:0.0249788;stroke-linecap:butt;stroke-linejoin:miter;stroke:rgb(60%,60%,60%);stroke-opacity:0.8;stroke-miterlimit:10;" d="M 0.124892 -0.00000965484 C 0.124892 0.0689893 0.068969 0.124879 0.00000330774 0.124879 C -0.0689624 0.124879 -0.124885 0.0689893 -0.124885 -0.00000965484 C -0.124885 -0.0689754 -0.0689624 -0.124898 0.00000330774 -0.124898 C 0.068969 -0.124898 0.124892 -0.0689754 0.124892 -0.00000965484 Z M 0.124892 -0.00000965484 " transform="matrix(117.698844,0,0,117.698844,180.753517,340.27848)"/>
<path style="fill-rule:nonzero;fill:rgb(100%,92.941176%,43.529412%);fill-opacity:1;stroke-width:0.0249788;stroke-linecap:butt;stroke-linejoin:miter;stroke:rgb(60%,60%,60%);stroke-opacity:0.8;stroke-miterlimit:10;" d="M 0.124897 0.000000488163 C 0.124897 0.0689662 0.0689747 0.124889 0.000008999 0.124889 C -0.0689899 0.124889 -0.124879 0.0689662 -0.124879 0.000000488163 C -0.124879 -0.0689652 -0.0689899 -0.124888 0.000008999 -0.124888 C 0.0689747 -0.124888 0.124897 -0.0689652 0.124897 0.000000488163 Z M 0.124897 0.000000488163 " transform="matrix(117.698844,0,0,117.698844,289.506753,565.449161)"/>
<path style="fill-rule:nonzero;fill:rgb(100%,92.941176%,43.529412%);fill-opacity:1;stroke-width:0.0249788;stroke-linecap:butt;stroke-linejoin:miter;stroke:rgb(60%,60%,60%);stroke-opacity:0.8;stroke-miterlimit:10;" d="M 0.124907 -0.00000263922 C 0.124907 0.0689631 0.0689842 0.124886 -0.0000147543 0.124886 C -0.0689805 0.124886 -0.124903 0.0689631 -0.124903 -0.00000263922 C -0.124903 -0.0689684 -0.0689805 -0.124891 -0.0000147543 -0.124891 C 0.0689842 -0.124891 0.124907 -0.0689684 0.124907 -0.00000263922 Z M 0.124907 -0.00000263922 " transform="matrix(117.698844,0,0,117.698844,265.829862,482.887029)"/>
<path style="fill-rule:nonzero;fill:rgb(100%,92.941176%,43.529412%);fill-opacity:1;stroke-width:0.0249788;stroke-linecap:butt;stroke-linejoin:miter;stroke:rgb(60%,60%,60%);stroke-opacity:0.8;stroke-miterlimit:10;" d="M 0.124896 0.0000165611 C 0.124896 0.0689823 0.068973 0.124905 0.00000724317 0.124905 C -0.0689917 0.124905 -0.124881 0.0689823 -0.124881 0.0000165611 C -0.124881 -0.0689824 -0.0689917 -0.124905 0.00000724317 -0.124905 C 0.068973 -0.124905 0.124896 -0.0689824 0.124896 0.0000165611 Z M 0.124896 0.0000165611 " transform="matrix(117.698844,0,0,117.698844,270.588991,538.751957)"/>
<path style="fill-rule:nonzero;fill:rgb(55.294118%,82.745098%,78.039216%);fill-opacity:1;stroke-width:0.0249788;stroke-linecap:butt;stroke-linejoin:miter;stroke:rgb(60%,60%,60%);stroke-opacity:0.8;stroke-miterlimit:10;" d="M 0.12489 0.00000980507 C 0.12489 0.0689755 0.0689674 0.124898 0.00000167243 0.124898 C -0.0689641 0.124898 -0.124887 0.0689755 -0.124887 0.00000980507 C -0.124887 -0.0689891 -0.0689641 -0.124879 0.00000167243 -0.124879 C 0.0689674 -0.124879 0.12489 -0.0689891 0.12489 0.00000980507 Z M 0.12489 0.00000980507 " transform="matrix(117.698844,0,0,117.698844,343.261522,51.424627)"/>
<path style="fill-rule:nonzero;fill:rgb(55.294118%,82.745098%,78.039216%);fill-opacity:1;stroke-width:0.0249788;stroke-linecap:butt;stroke-linejoin:miter;stroke:rgb(60%,60%,60%);stroke-opacity:0.8;stroke-miterlimit:10;" d="M 0.124881 -0.000000488163 C 0.124881 0.0689652 0.0689912 0.124888 -0.00000769991 0.124888 C -0.0689734 0.124888 -0.124896 0.0689652 -0.124896 -0.000000488163 C -0.124896 -0.0689662 -0.0689734 -0.124889 -0.00000769991 -0.124889 C 0.0689912 -0.124889 0.124881 -0.0689662 0.124881 -0.000000488163 Z M 0.124881 -0.000000488163 " transform="matrix(117.698844,0,0,117.698844,302.34075,34.550839)"/>
<path style="fill-rule:nonzero;fill:rgb(100%,92.941176%,43.529412%);fill-opacity:1;stroke-width:0.0249788;stroke-linecap:butt;stroke-linejoin:miter;stroke:rgb(60%,60%,60%);stroke-opacity:0.8;stroke-miterlimit:10;" d="M 0.124886 0.0000152896 C 0.124886 0.068981 0.0689633 0.124904 -0.00000248239 0.124904 C -0.0689682 0.124904 -0.124891 0.068981 -0.124891 0.0000152896 C -0.124891 -0.0689836 -0.0689682 -0.124906 -0.00000248239 -0.124906 C 0.0689633 -0.124906 0.124886 -0.0689836 0.124886 0.0000152896 Z M 0.124886 0.0000152896 " transform="matrix(117.698844,0,0,117.698844,55.633105,252.568513)"/>
<path style="fill-rule:nonzero;fill:rgb(100%,92.941176%,43.529412%);fill-opacity:1;stroke-width:0.0249788;stroke-linecap:butt;stroke-linejoin:miter;stroke:rgb(60%,60%,60%);stroke-opacity:0.8;stroke-miterlimit:10;" d="M 0.124895 -0.0000111364 C 0.124895 0.0689878 0.0689727 0.12491 0.0000069681 0.12491 C -0.068992 0.12491 -0.124881 0.0689878 -0.124881 -0.0000111364 C -0.124881 -0.0689769 -0.068992 -0.1249 0.0000069681 -0.1249 C 0.0689727 -0.1249 0.124895 -0.0689769 0.124895 -0.0000111364 Z M 0.124895 -0.0000111364 " transform="matrix(117.698844,0,0,117.698844,51.663242,299.020842)"/>
<path style="fill-rule:nonzero;fill:rgb(100%,92.941176%,43.529412%);fill-opacity:1;stroke-width:0.0249788;stroke-linecap:butt;stroke-linejoin:miter;stroke:rgb(60%,60%,60%);stroke-opacity:0.8;stroke-miterlimit:10;" d="M 0.124896 0.0000058317 C 0.124896 0.0689716 0.0689737 0.124894 0.00000791877 0.124894 C -0.068991 0.124894 -0.12488 0.0689716 -0.12488 0.0000058317 C -0.12488 -0.0689931 -0.068991 -0.124883 0.00000791877 -0.124883 C 0.0689737 -0.124883 0.124896 -0.0689931 0.124896 0.0000058317 Z M 0.124896 0.0000058317 " transform="matrix(117.698844,0,0,117.698844,73.920943,145.866501)"/>
<path style="fill-rule:nonzero;fill:rgb(100%,92.941176%,43.529412%);fill-opacity:1;stroke-width:0.0249788;stroke-linecap:butt;stroke-linejoin:miter;stroke:rgb(60%,60%,60%);stroke-opacity:0.8;stroke-miterlimit:10;" d="M 0.12488 -0.00000992589 C 0.12488 0.068989 0.068991 0.124878 -0.00000788912 0.124878 C -0.0689736 0.124878 -0.124896 0.068989 -0.124896 -0.00000992589 C -0.124896 -0.0689757 -0.0689736 -0.124898 -0.00000788912 -0.124898 C 0.068991 -0.124898 0.12488 -0.0689757 0.12488 -0.00000992589 Z M 0.12488 -0.00000992589 " transform="matrix(117.698844,0,0,117.698844,164.774366,67.8957)"/>
<path style="fill-rule:nonzero;fill:rgb(100%,92.941176%,43.529412%);fill-opacity:1;stroke-width:0.0249788;stroke-linecap:butt;stroke-linejoin:miter;stroke:rgb(60%,60%,60%);stroke-opacity:0.8;stroke-miterlimit:10;" d="M 0.124908 0.0000165033 C 0.124908 0.0689822 0.0689851 0.124905 -0.0000138264 0.124905 C -0.0689796 0.124905 -0.124902 0.0689822 -0.124902 0.0000165033 C -0.124902 -0.0689824 -0.0689796 -0.124905 -0.0000138264 -0.124905 C 0.0689851 -0.124905 0.124908 -0.0689824 0.124908 0.0000165033 Z M 0.124908 0.0000165033 " transform="matrix(117.698844,0,0,117.698844,137.778971,103.791026)"/>
<path style="fill-rule:nonzero;fill:rgb(100%,92.941176%,43.529412%);fill-opacity:1;stroke-width:0.0249788;stroke-linecap:butt;stroke-linejoin:miter;stroke:rgb(60%,60%,60%);stroke-opacity:0.8;stroke-miterlimit:10;" d="M 0.124901 -0.0000136258 C 0.124901 0.0689853 0.068978 0.124908 0.0000122984 0.124908 C -0.0689866 0.124908 -0.124909 0.0689853 -0.124909 -0.0000136258 C -0.124909 -0.0689794 -0.0689866 -0.124902 0.0000122984 -0.124902 C 0.068978 -0.124902 0.124901 -0.0689794 0.124901 -0.0000136258 Z M 0.124901 -0.0000136258 " transform="matrix(117.698844,0,0,117.698844,105.389177,168.66176)"/>
<path style="fill-rule:nonzero;fill:rgb(100%,92.941176%,43.529412%);fill-opacity:1;stroke-width:0.0249788;stroke-linecap:butt;stroke-linejoin:miter;stroke:rgb(60%,60%,60%);stroke-opacity:0.8;stroke-miterlimit:10;" d="M 0.124897 0.00000132114 C 0.124897 0.0689671 0.0689742 0.12489 0.00000846796 0.12489 C -0.0689905 0.12489 -0.12488 0.0689671 -0.12488 0.00000132114 C -0.12488 -0.0689644 -0.0689905 -0.124887 0.00000846796 -0.124887 C 0.0689742 -0.124887 0.124897 -0.0689644 0.124897 0.00000132114 Z M 0.124897 0.00000132114 " transform="matrix(117.698844,0,0,117.698844,532.327128,286.956876)"/>
<path style="fill-rule:nonzero;fill:rgb(100%,92.941176%,43.529412%);fill-opacity:1;stroke-width:0.0249788;stroke-linecap:butt;stroke-linejoin:miter;stroke:rgb(60%,60%,60%);stroke-opacity:0.8;stroke-miterlimit:10;" d="M 0.124881 0.00000234091 C 0.124881 0.0689681 0.068992 0.124891 -0.0000069681 0.124891 C -0.0689727 0.124891 -0.124895 0.0689681 -0.124895 0.00000234091 C -0.124895 -0.0689634 -0.0689727 -0.124886 -0.0000069681 -0.124886 C 0.068992 -0.124886 0.124881 -0.0689634 0.124881 0.00000234091 Z M 0.124881 0.00000234091 " transform="matrix(117.698844,0,0,117.698844,548.336758,326.792693)"/>
</g>
</svg>
