<?xml version="1.0" encoding="UTF-8"?>
<svg xmlns="http://www.w3.org/2000/svg" xmlns:xlink="http://www.w3.org/1999/xlink" width="600pt" height="600pt" viewBox="0 0 600 600" version="1.1">
<defs>
<clipPath id="clip1">
  <path d="M 484 248.265625 L 581 248.265625 L 581 374.890625 L 484 374.890625 Z M 484 248.265625 "/>
</clipPath>
<clipPath id="clip2">
  <path d="M 401.820312 248.265625 L 662.96875 248.265625 L 662.96875 374.890625 L 401.820312 374.890625 Z M 401.820312 248.265625 L 553.828125 271.53125 C 553.828125 279.652344 547.246094 286.234375 539.128906 286.234375 C 531.011719 286.234375 524.429688 279.652344 524.429688 271.53125 C 524.429688 263.414062 531.011719 256.832031 539.128906 256.832031 C 547.246094 256.832031 553.828125 263.414062 553.828125 271.53125 Z M 401.820312 248.265625 "/>
</clipPath>
<clipPath id="clip3">
  <path d="M 401.820312 248.265625 L 662.96875 248.265625 L 662.96875 374.890625 L 401.820312 374.890625 Z M 401.820312 248.265625 L 540.367188 351.628906 C 540.367188 359.746094 533.785156 366.328125 525.664062 366.328125 C 517.546875 366.328125 510.964844 359.746094 510.964844 351.628906 C 510.964844 343.511719 517.546875 336.929688 525.664062 336.929688 C 533.785156 336.929688 540.367188 343.511719 540.367188 351.628906 Z M 401.820312 248.265625 "/>
</clipPath>
<clipPath id="clip4">
  <path d="M 497 204 L 600 204 L 600 314 L 497 314 Z M 497 204 "/>
</clipPath>
<clipPath id="clip5">
  <path d="M 444.644531 161.625 L 656.25 161.625 L 656.25 356.019531 L 444.644531 356.019531 Z M 444.644531 161.625 L 553.828125 271.53125 C 553.828125 279.652344 547.246094 286.234375 539.128906 286.234375 C 531.011719 286.234375 524.429688 279.652344 524.429688 271.53125 C 524.429688 263.414062 531.011719 256.832031 539.128906 256.832031 C 547.246094 256.832031 553.828125 263.414062 553.828125 271.53125 Z M 444.644531 161.625 "/>
</clipPath>
<clipPath id="clip6">
  <path d="M 444.644531 161.625 L 656.25 161.625 L 656.25 356.019531 L 444.644531 356.019531 Z M 444.644531 161.625 L 576.46875 246.117188 C 576.46875 254.234375 569.886719 260.816406 561.769531 260.816406 C 553.652344 260.816406 547.070312 254.234375 547.070312 246.117188 C 547.070312 238 553.652344 231.417969 561.769531 231.417969 C 569.886719 231.417969 576.46875 238 576.46875 246.117188 Z M 444.644531 161.625 "/>
</clipPath>
<clipPath id="clip7">
  <path d="M 486 186.890625 L 581 186.890625 L 581 296.683594 L 486 296.683594 Z M 486 186.890625 "/>
</clipPath>
<clipPath id="clip8">
  <path d="M 404.65625 186.890625 L 662.636719 186.890625 L 662.636719 296.683594 L 404.65625 296.683594 Z M 404.65625 186.890625 L 553.828125 271.53125 C 553.828125 279.652344 547.246094 286.234375 539.128906 286.234375 C 531.011719 286.234375 524.429688 279.652344 524.429688 271.53125 C 524.429688 263.414062 531.011719 256.832031 539.128906 256.832031 C 547.246094 256.832031 553.828125 263.414062 553.828125 271.53125 Z M 404.65625 186.890625 "/>
</clipPath>
<clipPath id="clip9">
  <path d="M 404.65625 186.890625 L 662.636719 186.890625 L 662.636719 296.683594 L 404.65625 296.683594 Z M 404.65625 186.890625 L 542.871094 212.046875 C 542.871094 220.164062 536.289062 226.746094 528.167969 226.746094 C 520.050781 226.746094 513.46875 220.164062 513.46875 212.046875 C 513.46875 203.925781 520.050781 197.347656 528.167969 197.347656 C 536.289062 197.347656 542.871094 203.925781 542.871094 212.046875 Z M 404.65625 186.890625 "/>
</clipPath>
<clipPath id="clip10">
  <path d="M 387 329 L 539 329 L 539 445 L 387 445 Z M 387 329 "/>
</clipPath>
<clipPath id="clip11">
  <path d="M 374.652344 256.96875 L 551.777344 256.96875 L 551.777344 516.972656 L 374.652344 516.972656 Z M 374.652344 256.96875 L 443.773438 371.175781 C 443.773438 379.296875 437.195312 385.878906 429.074219 385.878906 C 420.957031 385.878906 414.375 379.296875 414.375 371.175781 C 414.375 363.058594 420.957031 356.476562 429.074219 356.476562 C 437.195312 356.476562 443.773438 363.058594 443.773438 371.175781 Z M 374.652344 256.96875 "/>
</clipPath>
<clipPath id="clip12">
  <path d="M 374.652344 256.96875 L 551.777344 256.96875 L 551.777344 516.972656 L 374.652344 516.972656 Z M 374.652344 256.96875 L 512.0625 402.769531 C 512.0625 410.886719 505.480469 417.46875 497.359375 417.46875 C 489.242188 417.46875 482.660156 410.886719 482.660156 402.769531 C 482.660156 394.652344 489.242188 388.070312 497.359375 388.070312 C 505.480469 388.070312 512.0625 394.652344 512.0625 402.769531 Z M 374.652344 256.96875 "/>
</clipPath>
<clipPath id="clip13">
  <path d="M 423.613281 328 L 491.582031 328 L 491.582031 413 L 423.613281 413 Z M 423.613281 328 "/>
</clipPath>
<clipPath id="clip14">
  <path d="M 423.613281 244.488281 L 491.582031 244.488281 L 491.582031 496.6875 L 423.613281 496.6875 Z M 423.613281 244.488281 L 443.773438 371.175781 C 443.773438 379.296875 437.195312 385.878906 429.074219 385.878906 C 420.957031 385.878906 414.375 379.296875 414.375 371.175781 C 414.375 363.058594 420.957031 356.476562 429.074219 356.476562 C 437.195312 356.476562 443.773438 363.058594 443.773438 371.175781 Z M 423.613281 244.488281 "/>
</clipPath>
<clipPath id="clip15">
  <path d="M 423.613281 244.488281 L 491.582031 244.488281 L 491.582031 496.6875 L 423.613281 496.6875 Z M 423.613281 244.488281 L 500.828125 370.003906 C 500.828125 378.125 494.246094 384.707031 486.125 384.707031 C 478.007812 384.707031 471.425781 378.125 471.425781 370.003906 C 471.425781 361.886719 478.007812 355.304688 486.125 355.304688 C 494.246094 355.304688 500.828125 361.886719 500.828125 370.003906 Z M 423.613281 244.488281 "/>
</clipPath>
<clipPath id="clip16">
  <path d="M 264 281 L 471 281 L 471 413 L 264 413 Z M 264 281 "/>
</clipPath>
<clipPath id="clip17">
  <path d="M 258.582031 206.160156 L 476.304688 206.160156 L 476.304688 488.429688 L 258.582031 488.429688 Z M 258.582031 206.160156 L 443.773438 371.175781 C 443.773438 379.296875 437.195312 385.878906 429.074219 385.878906 C 420.957031 385.878906 414.375 379.296875 414.375 371.175781 C 414.375 363.058594 420.957031 356.476562 429.074219 356.476562 C 437.195312 356.476562 443.773438 363.058594 443.773438 371.175781 Z M 258.582031 206.160156 "/>
</clipPath>
<clipPath id="clip18">
  <path d="M 258.582031 206.160156 L 476.304688 206.160156 L 476.304688 488.429688 L 258.582031 488.429688 Z M 258.582031 206.160156 L 320.515625 323.417969 C 320.515625 331.535156 313.9375 338.117188 305.816406 338.117188 C 297.699219 338.117188 291.117188 331.535156 291.117188 323.417969 C 291.117188 315.300781 297.699219 308.71875 305.816406 308.71875 C 313.9375 308.71875 320.515625 315.300781 320.515625 323.417969 Z M 258.582031 206.160156 "/>
</clipPath>
<clipPath id="clip19">
  <path d="M 455 310 L 568 310 L 568 445 L 455 445 Z M 455 310 "/>
</clipPath>
<clipPath id="clip20">
  <path d="M 387.152344 289.320312 L 635.867188 289.320312 L 635.867188 465.074219 L 387.152344 465.074219 Z M 387.152344 289.320312 L 512.0625 402.769531 C 512.0625 410.886719 505.480469 417.46875 497.359375 417.46875 C 489.242188 417.46875 482.660156 410.886719 482.660156 402.769531 C 482.660156 394.652344 489.242188 388.070312 497.359375 388.070312 C 505.480469 388.070312 512.0625 394.652344 512.0625 402.769531 Z M 387.152344 289.320312 "/>
</clipPath>
<clipPath id="clip21">
  <path d="M 387.152344 289.320312 L 635.867188 289.320312 L 635.867188 465.074219 L 387.152344 465.074219 Z M 387.152344 289.320312 L 540.367188 351.628906 C 540.367188 359.746094 533.785156 366.328125 525.664062 366.328125 C 517.546875 366.328125 510.964844 359.746094 510.964844 351.628906 C 510.964844 343.511719 517.546875 336.929688 525.664062 336.929688 C 533.785156 336.929688 540.367188 343.511719 540.367188 351.628906 Z M 387.152344 289.320312 "/>
</clipPath>
<clipPath id="clip22">
  <path d="M 444 310 L 568 310 L 568 412 L 444 412 Z M 444 310 "/>
</clipPath>
<clipPath id="clip23">
  <path d="M 431.515625 237.507812 L 580.269531 237.507812 L 580.269531 484.121094 L 431.515625 484.121094 Z M 431.515625 237.507812 L 540.367188 351.628906 C 540.367188 359.746094 533.785156 366.328125 525.664062 366.328125 C 517.546875 366.328125 510.964844 359.746094 510.964844 351.628906 C 510.964844 343.511719 517.546875 336.929688 525.664062 336.929688 C 533.785156 336.929688 540.367188 343.511719 540.367188 351.628906 Z M 431.515625 237.507812 "/>
</clipPath>
<clipPath id="clip24">
  <path d="M 431.515625 237.507812 L 580.269531 237.507812 L 580.269531 484.121094 L 431.515625 484.121094 Z M 431.515625 237.507812 L 500.828125 370.003906 C 500.828125 378.125 494.246094 384.707031 486.125 384.707031 C 478.007812 384.707031 471.425781 378.125 471.425781 370.003906 C 471.425781 361.886719 478.007812 355.304688 486.125 355.304688 C 494.246094 355.304688 500.828125 361.886719 500.828125 370.003906 Z M 431.515625 237.507812 "/>
</clipPath>
<clipPath id="clip25">
  <path d="M 121 230.253906 L 207 230.253906 L 207 274.0625 L 121 274.0625 Z M 121 230.253906 "/>
</clipPath>
<clipPath id="clip26">
  <path d="M 37.871094 230.253906 L 289.875 230.253906 L 289.875 274.0625 L 37.871094 274.0625 Z M 37.871094 230.253906 L 179.136719 266.226562 C 179.136719 274.34375 172.554688 280.925781 164.4375 280.925781 C 156.320312 280.925781 149.738281 274.34375 149.738281 266.226562 C 149.738281 258.109375 156.320312 251.527344 164.4375 251.527344 C 172.554688 251.527344 179.136719 258.109375 179.136719 266.226562 Z M 37.871094 230.253906 "/>
</clipPath>
<clipPath id="clip27">
  <path d="M 37.871094 230.253906 L 289.875 230.253906 L 289.875 274.0625 L 37.871094 274.0625 Z M 37.871094 230.253906 L 178.011719 238.09375 C 178.011719 246.210938 171.429688 252.792969 163.3125 252.792969 C 155.191406 252.792969 148.609375 246.210938 148.609375 238.09375 C 148.609375 229.976562 155.191406 223.394531 163.3125 223.394531 C 171.429688 223.394531 178.011719 229.976562 178.011719 238.09375 Z M 37.871094 230.253906 "/>
</clipPath>
<clipPath id="clip28">
  <path d="M 129.5625 224 L 254.242188 224 L 254.242188 323 L 129.5625 323 Z M 129.5625 224 "/>
</clipPath>
<clipPath id="clip29">
  <path d="M 129.5625 144.917969 L 254.242188 144.917969 L 254.242188 402.351562 L 129.5625 402.351562 Z M 129.5625 144.917969 L 179.136719 266.226562 C 179.136719 274.34375 172.554688 280.925781 164.4375 280.925781 C 156.320312 280.925781 149.738281 274.34375 149.738281 266.226562 C 149.738281 258.109375 156.320312 251.527344 164.4375 251.527344 C 172.554688 251.527344 179.136719 258.109375 179.136719 266.226562 Z M 129.5625 144.917969 "/>
</clipPath>
<clipPath id="clip30">
  <path d="M 129.5625 144.917969 L 254.242188 144.917969 L 254.242188 402.351562 L 129.5625 402.351562 Z M 129.5625 144.917969 L 234.070312 281.046875 C 234.070312 289.164062 227.492188 295.746094 219.371094 295.746094 C 211.253906 295.746094 204.671875 289.164062 204.671875 281.046875 C 204.671875 272.929688 211.253906 266.347656 219.371094 266.347656 C 227.492188 266.347656 234.070312 272.929688 234.070312 281.046875 Z M 129.5625 144.917969 "/>
</clipPath>
<clipPath id="clip31">
  <path d="M 83 199 L 207 199 L 207 308 L 83 308 Z M 83 199 "/>
</clipPath>
<clipPath id="clip32">
  <path d="M 56.644531 134.457031 L 232.433594 134.457031 L 232.433594 373.078125 L 56.644531 373.078125 Z M 56.644531 134.457031 L 179.136719 266.226562 C 179.136719 274.34375 172.554688 280.925781 164.4375 280.925781 C 156.320312 280.925781 149.738281 274.34375 149.738281 266.226562 C 149.738281 258.109375 156.320312 251.527344 164.4375 251.527344 C 172.554688 251.527344 179.136719 258.109375 179.136719 266.226562 Z M 56.644531 134.457031 "/>
</clipPath>
<clipPath id="clip33">
  <path d="M 56.644531 134.457031 L 232.433594 134.457031 L 232.433594 373.078125 L 56.644531 373.078125 Z M 56.644531 134.457031 L 139.34375 241.3125 C 139.34375 249.433594 132.765625 256.011719 124.644531 256.011719 C 116.527344 256.011719 109.945312 249.433594 109.945312 241.3125 C 109.945312 233.195312 116.527344 226.613281 124.644531 226.613281 C 132.765625 226.613281 139.34375 233.195312 139.34375 241.3125 Z M 56.644531 134.457031 "/>
</clipPath>
<clipPath id="clip34">
  <path d="M 94 47 L 221 47 L 221 165 L 94 165 Z M 94 47 "/>
</clipPath>
<clipPath id="clip35">
  <path d="M 57.601562 -10.238281 L 256.621094 -10.238281 L 256.621094 222.492188 L 57.601562 222.492188 Z M 57.601562 -10.238281 L 150.441406 89.53125 C 150.441406 97.652344 143.859375 104.234375 135.742188 104.234375 C 127.625 104.234375 121.042969 97.652344 121.042969 89.53125 C 121.042969 81.414062 127.625 74.832031 135.742188 74.832031 C 143.859375 74.832031 150.441406 81.414062 150.441406 89.53125 Z M 57.601562 -10.238281 "/>
</clipPath>
<clipPath id="clip36">
  <path d="M 57.601562 -10.238281 L 256.621094 -10.238281 L 256.621094 222.492188 L 57.601562 222.492188 Z M 57.601562 -10.238281 L 193.183594 122.726562 C 193.183594 130.84375 186.601562 137.425781 178.484375 137.425781 C 170.367188 137.425781 163.785156 130.84375 163.785156 122.726562 C 163.785156 114.609375 170.367188 108.027344 178.484375 108.027344 C 186.601562 108.027344 193.183594 114.609375 193.183594 122.726562 Z M 57.601562 -10.238281 "/>
</clipPath>
<clipPath id="clip37">
  <path d="M 121 103.800781 L 221 103.800781 L 221 257.015625 L 121 257.015625 Z M 121 103.800781 "/>
</clipPath>
<clipPath id="clip38">
  <path d="M 38.820312 103.800781 L 302.972656 103.800781 L 302.972656 257.015625 L 38.820312 257.015625 Z M 38.820312 103.800781 L 178.011719 238.09375 C 178.011719 246.210938 171.429688 252.792969 163.3125 252.792969 C 155.191406 252.792969 148.609375 246.210938 148.609375 238.09375 C 148.609375 229.976562 155.191406 223.394531 163.3125 223.394531 C 171.429688 223.394531 178.011719 229.976562 178.011719 238.09375 Z M 38.820312 103.800781 "/>
</clipPath>
<clipPath id="clip39">
  <path d="M 38.820312 103.800781 L 302.972656 103.800781 L 302.972656 257.015625 L 38.820312 257.015625 Z M 38.820312 103.800781 L 193.183594 122.726562 C 193.183594 130.84375 186.601562 137.425781 178.484375 137.425781 C 170.367188 137.425781 163.785156 130.84375 163.785156 122.726562 C 163.785156 114.609375 170.367188 108.027344 178.484375 108.027344 C 186.601562 108.027344 193.183594 114.609375 193.183594 122.726562 Z M 38.820312 103.800781 "/>
</clipPath>
<clipPath id="clip40">
  <path d="M 121 196 L 261 196 L 261 323 L 121 323 Z M 121 196 "/>
</clipPath>
<clipPath id="clip41">
  <path d="M 85.804688 137.835938 L 296.875 137.835938 L 296.875 381.300781 L 85.804688 381.300781 Z M 85.804688 137.835938 L 178.011719 238.09375 C 178.011719 246.210938 171.429688 252.792969 163.3125 252.792969 C 155.191406 252.792969 148.609375 246.210938 148.609375 238.09375 C 148.609375 229.976562 155.191406 223.394531 163.3125 223.394531 C 171.429688 223.394531 178.011719 229.976562 178.011719 238.09375 Z M 85.804688 137.835938 "/>
</clipPath>
<clipPath id="clip42">
  <path d="M 85.804688 137.835938 L 296.875 137.835938 L 296.875 381.300781 L 85.804688 381.300781 Z M 85.804688 137.835938 L 234.070312 281.046875 C 234.070312 289.164062 227.492188 295.746094 219.371094 295.746094 C 211.253906 295.746094 204.671875 289.164062 204.671875 281.046875 C 204.671875 272.929688 211.253906 266.347656 219.371094 266.347656 C 227.492188 266.347656 234.070312 272.929688 234.070312 281.046875 Z M 85.804688 137.835938 "/>
</clipPath>
<clipPath id="clip43">
  <path d="M 121 196 L 348 196 L 348 365 L 121 365 Z M 121 196 "/>
</clipPath>
<clipPath id="clip44">
  <path d="M 97.390625 129.964844 L 371.734375 129.964844 L 371.734375 431.542969 L 97.390625 431.542969 Z M 97.390625 129.964844 L 178.011719 238.09375 C 178.011719 246.210938 171.429688 252.792969 163.3125 252.792969 C 155.191406 252.792969 148.609375 246.210938 148.609375 238.09375 C 148.609375 229.976562 155.191406 223.394531 163.3125 223.394531 C 171.429688 223.394531 178.011719 229.976562 178.011719 238.09375 Z M 97.390625 129.964844 "/>
</clipPath>
<clipPath id="clip45">
  <path d="M 97.390625 129.964844 L 371.734375 129.964844 L 371.734375 431.542969 L 97.390625 431.542969 Z M 97.390625 129.964844 L 320.515625 323.417969 C 320.515625 331.535156 313.9375 338.117188 305.816406 338.117188 C 297.699219 338.117188 291.117188 331.535156 291.117188 323.417969 C 291.117188 315.300781 297.699219 308.71875 305.816406 308.71875 C 313.9375 308.71875 320.515625 315.300781 320.515625 323.417969 Z M 97.390625 129.964844 "/>
</clipPath>
<clipPath id="clip46">
  <path d="M 111.53125 196 L 176.421875 196 L 176.421875 283 L 111.53125 283 Z M 111.53125 196 "/>
</clipPath>
<clipPath id="clip47">
  <path d="M 111.53125 112.976562 L 176.421875 112.976562 L 176.421875 366.425781 L 111.53125 366.425781 Z M 111.53125 112.976562 L 178.011719 238.09375 C 178.011719 246.210938 171.429688 252.792969 163.3125 252.792969 C 155.191406 252.792969 148.609375 246.210938 148.609375 238.09375 C 148.609375 229.976562 155.191406 223.394531 163.3125 223.394531 C 171.429688 223.394531 178.011719 229.976562 178.011719 238.09375 Z M 111.53125 112.976562 "/>
</clipPath>
<clipPath id="clip48">
  <path d="M 111.53125 112.976562 L 176.421875 112.976562 L 176.421875 366.425781 L 111.53125 366.425781 Z M 111.53125 112.976562 L 139.34375 241.3125 C 139.34375 249.433594 132.765625 256.011719 124.644531 256.011719 C 116.527344 256.011719 109.945312 249.433594 109.945312 241.3125 C 109.945312 233.195312 116.527344 226.613281 124.644531 226.613281 C 132.765625 226.613281 139.34375 233.195312 139.34375 241.3125 Z M 111.53125 112.976562 "/>
</clipPath>
<clipPath id="clip49">
  <path d="M 43 146 L 205 146 L 205 280 L 43 280 Z M 43 146 "/>
</clipPath>
<clipPath id="clip50">
  <path d="M 16.414062 82.035156 L 232.253906 82.035156 L 232.253906 344.347656 L 16.414062 344.347656 Z M 16.414062 82.035156 L 178.011719 238.09375 C 178.011719 246.210938 171.429688 252.792969 163.3125 252.792969 C 155.191406 252.792969 148.609375 246.210938 148.609375 238.09375 C 148.609375 229.976562 155.191406 223.394531 163.3125 223.394531 C 171.429688 223.394531 178.011719 229.976562 178.011719 238.09375 Z M 16.414062 82.035156 "/>
</clipPath>
<clipPath id="clip51">
  <path d="M 16.414062 82.035156 L 232.253906 82.035156 L 232.253906 344.347656 L 16.414062 344.347656 Z M 16.414062 82.035156 L 100.058594 188.292969 C 100.058594 196.414062 93.476562 202.992188 85.359375 202.992188 C 77.242188 202.992188 70.660156 196.414062 70.660156 188.292969 C 70.660156 180.175781 77.242188 173.59375 85.359375 173.59375 C 93.476562 173.59375 100.058594 180.175781 100.058594 188.292969 Z M 16.414062 82.035156 "/>
</clipPath>
<clipPath id="clip52">
  <path d="M 26 196 L 205 196 L 205 334 L 26 334 Z M 26 196 "/>
</clipPath>
<clipPath id="clip53">
  <path d="M 4.597656 128.601562 L 226.894531 128.601562 L 226.894531 401.726562 L 4.597656 401.726562 Z M 4.597656 128.601562 L 178.011719 238.09375 C 178.011719 246.210938 171.429688 252.792969 163.3125 252.792969 C 155.191406 252.792969 148.609375 246.210938 148.609375 238.09375 C 148.609375 229.976562 155.191406 223.394531 163.3125 223.394531 C 171.429688 223.394531 178.011719 229.976562 178.011719 238.09375 Z M 4.597656 128.601562 "/>
</clipPath>
<clipPath id="clip54">
  <path d="M 4.597656 128.601562 L 226.894531 128.601562 L 226.894531 401.726562 L 4.597656 401.726562 Z M 4.597656 128.601562 L 82.882812 292.238281 C 82.882812 300.355469 76.300781 306.9375 68.183594 306.9375 C 60.066406 306.9375 53.484375 300.355469 53.484375 292.238281 C 53.484375 284.121094 60.066406 277.539062 68.183594 277.539062 C 76.300781 277.539062 82.882812 284.121094 82.882812 292.238281 Z M 4.597656 128.601562 "/>
</clipPath>
<clipPath id="clip55">
  <path d="M 136 27 L 288 27 L 288 165 L 136 165 Z M 136 27 "/>
</clipPath>
<clipPath id="clip56">
  <path d="M 99.46875 -29.667969 L 324.871094 -29.667969 L 324.871094 221.804688 L 99.46875 221.804688 Z M 99.46875 -29.667969 L 193.183594 122.726562 C 193.183594 130.84375 186.601562 137.425781 178.484375 137.425781 C 170.367188 137.425781 163.785156 130.84375 163.785156 122.726562 C 163.785156 114.609375 170.367188 108.027344 178.484375 108.027344 C 186.601562 108.027344 193.183594 114.609375 193.183594 122.726562 Z M 99.46875 -29.667969 "/>
</clipPath>
<clipPath id="clip57">
  <path d="M 99.46875 -29.667969 L 324.871094 -29.667969 L 324.871094 221.804688 L 99.46875 221.804688 Z M 99.46875 -29.667969 L 260.5625 69.414062 C 260.5625 77.53125 253.980469 84.113281 245.859375 84.113281 C 237.742188 84.113281 231.160156 77.53125 231.160156 69.414062 C 231.160156 61.296875 237.742188 54.714844 245.859375 54.714844 C 253.980469 54.714844 260.5625 61.296875 260.5625 69.414062 Z M 99.46875 -29.667969 "/>
</clipPath>
<clipPath id="clip58">
  <path d="M 177 239 L 348 239 L 348 365 L 177 365 Z M 177 239 "/>
</clipPath>
<clipPath id="clip59">
  <path d="M 162.472656 168.019531 L 362.710938 168.019531 L 362.710938 436.441406 L 162.472656 436.441406 Z M 162.472656 168.019531 L 234.070312 281.046875 C 234.070312 289.164062 227.492188 295.746094 219.371094 295.746094 C 211.253906 295.746094 204.671875 289.164062 204.671875 281.046875 C 204.671875 272.929688 211.253906 266.347656 219.371094 266.347656 C 227.492188 266.347656 234.070312 272.929688 234.070312 281.046875 Z M 162.472656 168.019531 "/>
</clipPath>
<clipPath id="clip60">
  <path d="M 162.472656 168.019531 L 362.710938 168.019531 L 362.710938 436.441406 L 162.472656 436.441406 Z M 162.472656 168.019531 L 320.515625 323.417969 C 320.515625 331.535156 313.9375 338.117188 305.816406 338.117188 C 297.699219 338.117188 291.117188 331.535156 291.117188 323.417969 C 291.117188 315.300781 297.699219 308.71875 305.816406 308.71875 C 313.9375 308.71875 320.515625 315.300781 320.515625 323.417969 Z M 162.472656 168.019531 "/>
</clipPath>
<clipPath id="clip61">
  <path d="M 260 308.175781 L 348 308.175781 L 348 379.832031 L 260 379.832031 Z M 260 308.175781 "/>
</clipPath>
<clipPath id="clip62">
  <path d="M 176.742188 308.175781 L 430.734375 308.175781 L 430.734375 379.832031 L 176.742188 379.832031 Z M 176.742188 308.175781 L 320.515625 323.417969 C 320.515625 331.535156 313.9375 338.117188 305.816406 338.117188 C 297.699219 338.117188 291.117188 331.535156 291.117188 323.417969 C 291.117188 315.300781 297.699219 308.71875 305.816406 308.71875 C 313.9375 308.71875 320.515625 315.300781 320.515625 323.417969 Z M 176.742188 308.175781 "/>
</clipPath>
<clipPath id="clip63">
  <path d="M 176.742188 308.175781 L 430.734375 308.175781 L 430.734375 379.832031 L 176.742188 379.832031 Z M 176.742188 308.175781 L 316.367188 364.59375 C 316.367188 372.710938 309.785156 379.292969 301.664062 379.292969 C 293.546875 379.292969 286.964844 372.710938 286.964844 364.59375 C 286.964844 356.472656 293.546875 349.894531 301.664062 349.894531 C 309.785156 349.894531 316.367188 356.472656 316.367188 364.59375 Z M 176.742188 308.175781 "/>
</clipPath>
<clipPath id="clip64">
  <path d="M 264 296.402344 L 378 296.402344 L 378 500.398438 L 264 500.398438 Z M 264 296.402344 "/>
</clipPath>
<clipPath id="clip65">
  <path d="M 182.664062 296.402344 L 459 296.402344 L 459 500.398438 L 182.664062 500.398438 Z M 182.664062 296.402344 L 320.515625 323.417969 C 320.515625 331.535156 313.9375 338.117188 305.816406 338.117188 C 297.699219 338.117188 291.117188 331.535156 291.117188 323.417969 C 291.117188 315.300781 297.699219 308.71875 305.816406 308.71875 C 313.9375 308.71875 320.515625 315.300781 320.515625 323.417969 Z M 182.664062 296.402344 "/>
</clipPath>
<clipPath id="clip66">
  <path d="M 182.664062 296.402344 L 459 296.402344 L 459 500.398438 L 182.664062 500.398438 Z M 182.664062 296.402344 L 350.554688 473.386719 C 350.554688 481.507812 343.972656 488.089844 335.851562 488.089844 C 327.734375 488.089844 321.152344 481.507812 321.152344 473.386719 C 321.152344 465.269531 327.734375 458.6875 335.851562 458.6875 C 343.972656 458.6875 350.554688 465.269531 350.554688 473.386719 Z M 182.664062 296.402344 "/>
</clipPath>
<clipPath id="clip67">
  <path d="M 264 183 L 413 183 L 413 365 L 264 365 Z M 264 183 "/>
</clipPath>
<clipPath id="clip68">
  <path d="M 200.441406 154.679688 L 475.917969 154.679688 L 475.917969 393.71875 L 200.441406 393.71875 Z M 200.441406 154.679688 L 320.515625 323.417969 C 320.515625 331.535156 313.9375 338.117188 305.816406 338.117188 C 297.699219 338.117188 291.117188 331.535156 291.117188 323.417969 C 291.117188 315.300781 297.699219 308.71875 305.816406 308.71875 C 313.9375 308.71875 320.515625 315.300781 320.515625 323.417969 Z M 200.441406 154.679688 "/>
</clipPath>
<clipPath id="clip69">
  <path d="M 200.441406 154.679688 L 475.917969 154.679688 L 475.917969 393.71875 L 200.441406 393.71875 Z M 200.441406 154.679688 L 385.25 224.984375 C 385.25 233.101562 378.667969 239.683594 370.546875 239.683594 C 362.429688 239.683594 355.847656 233.101562 355.847656 224.984375 C 355.847656 216.867188 362.429688 210.285156 370.546875 210.285156 C 378.667969 210.285156 385.25 216.867188 385.25 224.984375 Z M 200.441406 154.679688 "/>
</clipPath>
<clipPath id="clip70">
  <path d="M 195 3.1875 L 288 3.1875 L 288 100.773438 L 195 100.773438 Z M 195 3.1875 "/>
</clipPath>
<clipPath id="clip71">
  <path d="M 115.351562 3.1875 L 368.054688 3.1875 L 368.054688 100.773438 L 115.351562 100.773438 Z M 115.351562 3.1875 L 252.25 34.550781 C 252.25 42.667969 245.667969 49.25 237.550781 49.25 C 229.429688 49.25 222.847656 42.667969 222.847656 34.550781 C 222.847656 26.433594 229.429688 19.851562 237.550781 19.851562 C 245.667969 19.851562 252.25 26.433594 252.25 34.550781 Z M 115.351562 3.1875 "/>
</clipPath>
<clipPath id="clip72">
  <path d="M 115.351562 3.1875 L 368.054688 3.1875 L 368.054688 100.773438 L 115.351562 100.773438 Z M 115.351562 3.1875 L 260.5625 69.414062 C 260.5625 77.53125 253.980469 84.113281 245.859375 84.113281 C 237.742188 84.113281 231.160156 77.53125 231.160156 69.414062 C 231.160156 61.296875 237.742188 54.714844 245.859375 54.714844 C 253.980469 54.714844 260.5625 61.296875 260.5625 69.414062 Z M 115.351562 3.1875 "/>
</clipPath>
<clipPath id="clip73">
  <path d="M 212.140625 10 L 347.90625 10 L 347.90625 111 L 212.140625 111 Z M 212.140625 10 "/>
</clipPath>
<clipPath id="clip74">
  <path d="M 212.140625 -69.921875 L 347.90625 -69.921875 L 347.90625 191.023438 L 212.140625 191.023438 Z M 212.140625 -69.921875 L 260.5625 69.414062 C 260.5625 77.53125 253.980469 84.113281 245.859375 84.113281 C 237.742188 84.113281 231.160156 77.53125 231.160156 69.414062 C 231.160156 61.296875 237.742188 54.714844 245.859375 54.714844 C 253.980469 54.714844 260.5625 61.296875 260.5625 69.414062 Z M 212.140625 -69.921875 "/>
</clipPath>
<clipPath id="clip75">
  <path d="M 212.140625 -69.921875 L 347.90625 -69.921875 L 347.90625 191.023438 L 212.140625 191.023438 Z M 212.140625 -69.921875 L 328.890625 51.691406 C 328.890625 59.8125 322.308594 66.390625 314.191406 66.390625 C 306.070312 66.390625 299.488281 59.8125 299.488281 51.691406 C 299.488281 43.574219 306.070312 36.992188 314.191406 36.992188 C 322.308594 36.992188 328.890625 43.574219 328.890625 51.691406 Z M 212.140625 -69.921875 "/>
</clipPath>
<clipPath id="clip76">
  <path d="M 294 431 L 406 431 L 406 569 L 294 569 Z M 294 431 "/>
</clipPath>
<clipPath id="clip77">
  <path d="M 224.085938 413.984375 L 475.546875 413.984375 L 475.546875 586.625 L 224.085938 586.625 Z M 224.085938 413.984375 L 350.554688 473.386719 C 350.554688 481.507812 343.972656 488.089844 335.851562 488.089844 C 327.734375 488.089844 321.152344 481.507812 321.152344 473.386719 C 321.152344 465.269531 327.734375 458.6875 335.851562 458.6875 C 343.972656 458.6875 350.554688 465.269531 350.554688 473.386719 Z M 224.085938 413.984375 "/>
</clipPath>
<clipPath id="clip78">
  <path d="M 224.085938 413.984375 L 475.546875 413.984375 L 475.546875 586.625 L 224.085938 586.625 Z M 224.085938 413.984375 L 378.484375 527.226562 C 378.484375 535.34375 371.902344 541.925781 363.785156 541.925781 C 355.667969 541.925781 349.085938 535.34375 349.085938 527.226562 C 349.085938 519.109375 355.667969 512.527344 363.785156 512.527344 C 371.902344 512.527344 378.484375 519.109375 378.484375 527.226562 Z M 224.085938 413.984375 "/>
</clipPath>
<clipPath id="clip79">
  <path d="M 294 431 L 443 431 L 443 548 L 294 548 Z M 294 431 "/>
</clipPath>
<clipPath id="clip80">
  <path d="M 278.59375 360.535156 L 458.59375 360.535156 L 458.59375 618.597656 L 278.59375 618.597656 Z M 278.59375 360.535156 L 350.554688 473.386719 C 350.554688 481.507812 343.972656 488.089844 335.851562 488.089844 C 327.734375 488.089844 321.152344 481.507812 321.152344 473.386719 C 321.152344 465.269531 327.734375 458.6875 335.851562 458.6875 C 343.972656 458.6875 350.554688 465.269531 350.554688 473.386719 Z M 278.59375 360.535156 "/>
</clipPath>
<clipPath id="clip81">
  <path d="M 278.59375 360.535156 L 458.59375 360.535156 L 458.59375 618.597656 L 278.59375 618.597656 Z M 278.59375 360.535156 L 416.039062 505.75 C 416.039062 513.871094 409.457031 520.449219 401.339844 520.449219 C 393.21875 520.449219 386.636719 513.871094 386.636719 505.75 C 386.636719 497.632812 393.21875 491.050781 401.339844 491.050781 C 409.457031 491.050781 416.039062 497.632812 416.039062 505.75 Z M 278.59375 360.535156 "/>
</clipPath>
<clipPath id="clip82">
  <path d="M 224 431 L 378 431 L 378 566 L 224 566 Z M 224 431 "/>
</clipPath>
<clipPath id="clip83">
  <path d="M 191.066406 371.140625 L 410.683594 371.140625 L 410.683594 626.269531 L 191.066406 626.269531 Z M 191.066406 371.140625 L 350.554688 473.386719 C 350.554688 481.507812 343.972656 488.089844 335.851562 488.089844 C 327.734375 488.089844 321.152344 481.507812 321.152344 473.386719 C 321.152344 465.269531 327.734375 458.6875 335.851562 458.6875 C 343.972656 458.6875 350.554688 465.269531 350.554688 473.386719 Z M 191.066406 371.140625 "/>
</clipPath>
<clipPath id="clip84">
  <path d="M 191.066406 371.140625 L 410.683594 371.140625 L 410.683594 626.269531 L 191.066406 626.269531 Z M 191.066406 371.140625 L 280.605469 524.027344 C 280.605469 532.144531 274.023438 538.726562 265.902344 538.726562 C 257.785156 538.726562 251.203125 532.144531 251.203125 524.027344 C 251.203125 515.910156 257.785156 509.328125 265.902344 509.328125 C 274.023438 509.328125 280.605469 515.910156 280.605469 524.027344 Z M 191.066406 371.140625 "/>
</clipPath>
<clipPath id="clip85">
  <path d="M 0 326.765625 L 87 326.765625 L 87 417.839844 L 0 417.839844 Z M 0 326.765625 "/>
</clipPath>
<clipPath id="clip86">
  <path d="M -86.28125 326.765625 L 169.710938 326.765625 L 169.710938 417.839844 L -86.28125 417.839844 Z M -86.28125 326.765625 L 59.902344 399.0625 C 59.902344 407.179688 53.320312 413.761719 45.203125 413.761719 C 37.085938 413.761719 30.503906 407.179688 30.503906 399.0625 C 30.503906 390.941406 37.085938 384.363281 45.203125 384.363281 C 53.320312 384.363281 59.902344 390.941406 59.902344 399.0625 Z M -86.28125 326.765625 "/>
</clipPath>
<clipPath id="clip87">
  <path d="M -86.28125 326.765625 L 169.710938 326.765625 L 169.710938 417.839844 L -86.28125 417.839844 Z M -86.28125 326.765625 L 52.929688 345.546875 C 52.929688 353.664062 46.347656 360.246094 38.230469 360.246094 C 30.113281 360.246094 23.53125 353.664062 23.53125 345.546875 C 23.53125 337.425781 30.113281 330.847656 38.230469 330.847656 C 46.347656 330.847656 52.929688 337.425781 52.929688 345.546875 Z M -86.28125 326.765625 "/>
</clipPath>
<clipPath id="clip88">
  <path d="M 3 357 L 103 357 L 103 480 L 3 480 Z M 3 357 "/>
</clipPath>
<clipPath id="clip89">
  <path d="M -71.207031 349.691406 L 177.363281 349.691406 L 177.363281 486.929688 L -71.207031 486.929688 Z M -71.207031 349.691406 L 59.902344 399.0625 C 59.902344 407.179688 53.320312 413.761719 45.203125 413.761719 C 37.085938 413.761719 30.503906 407.179688 30.503906 399.0625 C 30.503906 390.941406 37.085938 384.363281 45.203125 384.363281 C 53.320312 384.363281 59.902344 390.941406 59.902344 399.0625 Z M -71.207031 349.691406 "/>
</clipPath>
<clipPath id="clip90">
  <path d="M -71.207031 349.691406 L 177.363281 349.691406 L 177.363281 486.929688 L -71.207031 486.929688 Z M -71.207031 349.691406 L 75.65625 437.5625 C 75.65625 445.679688 69.074219 452.261719 60.957031 452.261719 C 52.835938 452.261719 46.253906 445.679688 46.253906 437.5625 C 46.253906 429.441406 52.835938 422.859375 60.957031 422.859375 C 69.074219 422.859375 75.65625 429.441406 75.65625 437.5625 Z M -71.207031 349.691406 "/>
</clipPath>
<clipPath id="clip91">
  <path d="M 0 250 L 110 250 L 110 388 L 0 388 Z M 0 250 "/>
</clipPath>
<clipPath id="clip92">
  <path d="M -71.59375 229.242188 L 178.003906 229.242188 L 178.003906 408.539062 L -71.59375 408.539062 Z M -71.59375 229.242188 L 52.929688 345.546875 C 52.929688 353.664062 46.347656 360.246094 38.230469 360.246094 C 30.113281 360.246094 23.53125 353.664062 23.53125 345.546875 C 23.53125 337.425781 30.113281 330.847656 38.230469 330.847656 C 46.347656 330.847656 52.929688 337.425781 52.929688 345.546875 Z M -71.59375 229.242188 "/>
</clipPath>
<clipPath id="clip93">
  <path d="M -71.59375 229.242188 L 178.003906 229.242188 L 178.003906 408.539062 L -71.59375 408.539062 Z M -71.59375 229.242188 L 82.882812 292.238281 C 82.882812 300.355469 76.300781 306.9375 68.183594 306.9375 C 60.066406 306.9375 53.484375 300.355469 53.484375 292.238281 C 53.484375 284.121094 60.066406 277.539062 68.183594 277.539062 C 76.300781 277.539062 82.882812 284.121094 82.882812 292.238281 Z M -71.59375 229.242188 "/>
</clipPath>
<clipPath id="clip94">
  <path d="M 376 72 L 491 72 L 491 198 L 376 198 Z M 376 72 "/>
</clipPath>
<clipPath id="clip95">
  <path d="M 316.636719 38.296875 L 549.878906 38.296875 L 549.878906 231.539062 L 316.636719 231.539062 Z M 316.636719 38.296875 L 463.238281 114.363281 C 463.238281 122.484375 456.65625 129.0625 448.535156 129.0625 C 440.417969 129.0625 433.835938 122.484375 433.835938 114.363281 C 433.835938 106.246094 440.417969 99.664062 448.535156 99.664062 C 456.65625 99.664062 463.238281 106.246094 463.238281 114.363281 Z M 316.636719 38.296875 "/>
</clipPath>
<clipPath id="clip96">
  <path d="M 316.636719 38.296875 L 549.878906 38.296875 L 549.878906 231.539062 L 316.636719 231.539062 Z M 316.636719 38.296875 L 432.683594 155.476562 C 432.683594 163.59375 426.105469 170.175781 417.984375 170.175781 C 409.867188 170.175781 403.285156 163.59375 403.285156 155.476562 C 403.285156 147.359375 409.867188 140.777344 417.984375 140.777344 C 426.105469 140.777344 432.683594 147.359375 432.683594 155.476562 Z M 316.636719 38.296875 "/>
</clipPath>
<clipPath id="clip97">
  <path d="M 328 113 L 460 113 L 460 267 L 328 267 Z M 328 113 "/>
</clipPath>
<clipPath id="clip98">
  <path d="M 266.34375 83.425781 L 522.183594 83.425781 L 522.183594 297.03125 L 266.34375 297.03125 Z M 266.34375 83.425781 L 385.25 224.984375 C 385.25 233.101562 378.667969 239.683594 370.546875 239.683594 C 362.429688 239.683594 355.847656 233.101562 355.847656 224.984375 C 355.847656 216.867188 362.429688 210.285156 370.546875 210.285156 C 378.667969 210.285156 385.25 216.867188 385.25 224.984375 Z M 266.34375 83.425781 "/>
</clipPath>
<clipPath id="clip99">
  <path d="M 266.34375 83.425781 L 522.183594 83.425781 L 522.183594 297.03125 L 266.34375 297.03125 Z M 266.34375 83.425781 L 432.683594 155.476562 C 432.683594 163.59375 426.105469 170.175781 417.984375 170.175781 C 409.867188 170.175781 403.285156 163.59375 403.285156 155.476562 C 403.285156 147.359375 409.867188 140.777344 417.984375 140.777344 C 426.105469 140.777344 432.683594 147.359375 432.683594 155.476562 Z M 266.34375 83.425781 "/>
</clipPath>
<clipPath id="clip100">
  <path d="M 289.550781 2 L 383.941406 2 L 383.941406 94 L 289.550781 94 Z M 289.550781 2 "/>
</clipPath>
<clipPath id="clip101">
  <path d="M 289.550781 -80.027344 L 383.941406 -80.027344 L 383.941406 175.292969 L 289.550781 175.292969 Z M 289.550781 -80.027344 L 328.890625 51.691406 C 328.890625 59.8125 322.308594 66.390625 314.191406 66.390625 C 306.070312 66.390625 299.488281 59.8125 299.488281 51.691406 C 299.488281 43.574219 306.070312 36.992188 314.191406 36.992188 C 322.308594 36.992188 328.890625 43.574219 328.890625 51.691406 Z M 289.550781 -80.027344 "/>
</clipPath>
<clipPath id="clip102">
  <path d="M 289.550781 -80.027344 L 383.941406 -80.027344 L 383.941406 175.292969 L 289.550781 175.292969 Z M 289.550781 -80.027344 L 374.003906 43.578125 C 374.003906 51.699219 367.421875 58.277344 359.304688 58.277344 C 351.1875 58.277344 344.605469 51.699219 344.605469 43.578125 C 344.605469 35.460938 351.1875 28.878906 359.304688 28.878906 C 367.421875 28.878906 374.003906 35.460938 374.003906 43.578125 Z M 289.550781 -80.027344 "/>
</clipPath>
<clipPath id="clip103">
  <path d="M 224 505.21875 L 313 505.21875 L 313 584.253906 L 224 584.253906 Z M 224 505.21875 "/>
</clipPath>
<clipPath id="clip104">
  <path d="M 141.394531 505.21875 L 395.8125 505.21875 L 395.8125 584.253906 L 141.394531 584.253906 Z M 141.394531 505.21875 L 286.007812 565.449219 C 286.007812 573.566406 279.425781 580.148438 271.308594 580.148438 C 263.1875 580.148438 256.609375 573.566406 256.609375 565.449219 C 256.609375 557.332031 263.1875 550.75 271.308594 550.75 C 279.425781 550.75 286.007812 557.332031 286.007812 565.449219 Z M 141.394531 505.21875 "/>
</clipPath>
<clipPath id="clip105">
  <path d="M 141.394531 505.21875 L 395.8125 505.21875 L 395.8125 584.253906 L 141.394531 584.253906 Z M 141.394531 505.21875 L 280.605469 524.027344 C 280.605469 532.144531 274.023438 538.726562 265.902344 538.726562 C 257.785156 538.726562 251.203125 532.144531 251.203125 524.027344 C 251.203125 515.910156 257.785156 509.328125 265.902344 509.328125 C 274.023438 509.328125 280.605469 515.910156 280.605469 524.027344 Z M 141.394531 505.21875 "/>
</clipPath>
<clipPath id="clip106">
  <path d="M 142.78125 480 L 214.179688 480 L 214.179688 568 L 142.78125 568 Z M 142.78125 480 "/>
</clipPath>
<clipPath id="clip107">
  <path d="M 142.78125 397.242188 L 214.179688 397.242188 L 214.179688 651.246094 L 142.78125 651.246094 Z M 142.78125 397.242188 L 171.929688 522.242188 C 171.929688 530.363281 165.347656 536.945312 157.230469 536.945312 C 149.109375 536.945312 142.53125 530.363281 142.53125 522.242188 C 142.53125 514.125 149.109375 507.542969 157.230469 507.542969 C 165.347656 507.542969 171.929688 514.125 171.929688 522.242188 Z M 142.78125 397.242188 "/>
</clipPath>
<clipPath id="clip108">
  <path d="M 142.78125 397.242188 L 214.179688 397.242188 L 214.179688 651.246094 L 142.78125 651.246094 Z M 142.78125 397.242188 L 214.433594 526.25 C 214.433594 534.371094 207.851562 540.953125 199.734375 540.953125 C 191.613281 540.953125 185.03125 534.371094 185.03125 526.25 C 185.03125 518.132812 191.613281 511.550781 199.734375 511.550781 C 207.851562 511.550781 214.433594 518.132812 214.433594 526.25 Z M 142.78125 397.242188 "/>
</clipPath>
<clipPath id="clip109">
  <path d="M 192.675781 482 L 272.957031 482 L 272.957031 568 L 192.675781 568 Z M 192.675781 482 "/>
</clipPath>
<clipPath id="clip110">
  <path d="M 192.675781 398.554688 L 272.957031 398.554688 L 272.957031 651.71875 L 192.675781 651.71875 Z M 192.675781 398.554688 L 214.433594 526.25 C 214.433594 534.371094 207.851562 540.953125 199.734375 540.953125 C 191.613281 540.953125 185.03125 534.371094 185.03125 526.25 C 185.03125 518.132812 191.613281 511.550781 199.734375 511.550781 C 207.851562 511.550781 214.433594 518.132812 214.433594 526.25 Z M 192.675781 398.554688 "/>
</clipPath>
<clipPath id="clip111">
  <path d="M 192.675781 398.554688 L 272.957031 398.554688 L 272.957031 651.71875 L 192.675781 651.71875 Z M 192.675781 398.554688 L 280.605469 524.027344 C 280.605469 532.144531 274.023438 538.726562 265.902344 538.726562 C 257.785156 538.726562 251.203125 532.144531 251.203125 524.027344 C 251.203125 515.910156 257.785156 509.328125 265.902344 509.328125 C 274.023438 509.328125 280.605469 515.910156 280.605469 524.027344 Z M 192.675781 398.554688 "/>
</clipPath>
</defs>
<g id="surface841">
<g clip-path="url(#clip1)" clip-rule="nonzero">
<g clip-path="url(#clip2)" clip-rule="evenodd">
<g clip-path="url(#clip3)" clip-rule="evenodd">
<path style="fill:none;stroke-width:0.0239804;stroke-linecap:butt;stroke-linejoin:miter;stroke:rgb(17.96875%,20.3125%,21.09375%);stroke-opacity:0.8;stroke-miterlimit:10;" d="M 5.161999 2.550778 L 5.052171 3.204108 " transform="matrix(122.599009,0,0,122.599009,-93.727101,-41.19156)"/>
</g>
</g>
</g>
<g clip-path="url(#clip4)" clip-rule="nonzero">
<g clip-path="url(#clip5)" clip-rule="evenodd">
<g clip-path="url(#clip6)" clip-rule="evenodd">
<path style="fill:none;stroke-width:0.0239804;stroke-linecap:butt;stroke-linejoin:miter;stroke:rgb(17.96875%,20.3125%,21.09375%);stroke-opacity:0.8;stroke-miterlimit:10;" d="M 5.161999 2.550778 L 5.346672 2.343483 " transform="matrix(122.599009,0,0,122.599009,-93.727101,-41.19156)"/>
</g>
</g>
</g>
<g clip-path="url(#clip7)" clip-rule="nonzero">
<g clip-path="url(#clip8)" clip-rule="evenodd">
<g clip-path="url(#clip9)" clip-rule="evenodd">
<path style="fill:none;stroke-width:0.0239804;stroke-linecap:butt;stroke-linejoin:miter;stroke:rgb(17.96875%,20.3125%,21.09375%);stroke-opacity:0.8;stroke-miterlimit:10;" d="M 5.161999 2.550778 L 5.072595 2.065583 " transform="matrix(122.599009,0,0,122.599009,-93.727101,-41.19156)"/>
</g>
</g>
</g>
<g clip-path="url(#clip10)" clip-rule="nonzero">
<g clip-path="url(#clip11)" clip-rule="evenodd">
<g clip-path="url(#clip12)" clip-rule="evenodd">
<path style="fill:none;stroke-width:0.0239804;stroke-linecap:butt;stroke-linejoin:miter;stroke:rgb(17.96875%,20.3125%,21.09375%);stroke-opacity:0.8;stroke-miterlimit:10;" d="M 4.264319 3.363545 L 4.821299 3.621245 " transform="matrix(122.599009,0,0,122.599009,-93.727101,-41.19156)"/>
</g>
</g>
</g>
<g clip-path="url(#clip13)" clip-rule="nonzero">
<g clip-path="url(#clip14)" clip-rule="evenodd">
<g clip-path="url(#clip15)" clip-rule="evenodd">
<path style="fill:none;stroke-width:0.0239804;stroke-linecap:butt;stroke-linejoin:miter;stroke:rgb(17.96875%,20.3125%,21.09375%);stroke-opacity:0.8;stroke-miterlimit:10;" d="M 4.264319 3.363545 L 4.729664 3.353987 " transform="matrix(122.599009,0,0,122.599009,-93.727101,-41.19156)"/>
</g>
</g>
</g>
<g clip-path="url(#clip16)" clip-rule="nonzero">
<g clip-path="url(#clip17)" clip-rule="evenodd">
<g clip-path="url(#clip18)" clip-rule="evenodd">
<path style="fill:none;stroke-width:0.0239804;stroke-linecap:butt;stroke-linejoin:miter;stroke:rgb(17.96875%,20.3125%,21.09375%);stroke-opacity:0.8;stroke-miterlimit:10;" d="M 4.264319 3.363545 L 3.258946 2.974001 " transform="matrix(122.599009,0,0,122.599009,-93.727101,-41.19156)"/>
</g>
</g>
</g>
<g clip-path="url(#clip19)" clip-rule="nonzero">
<g clip-path="url(#clip20)" clip-rule="evenodd">
<g clip-path="url(#clip21)" clip-rule="evenodd">
<path style="fill:none;stroke-width:0.0239804;stroke-linecap:butt;stroke-linejoin:miter;stroke:rgb(17.96875%,20.3125%,21.09375%);stroke-opacity:0.8;stroke-miterlimit:10;" d="M 4.821299 3.621245 L 5.052171 3.204108 " transform="matrix(122.599009,0,0,122.599009,-93.727101,-41.19156)"/>
</g>
</g>
</g>
<g clip-path="url(#clip22)" clip-rule="nonzero">
<g clip-path="url(#clip23)" clip-rule="evenodd">
<g clip-path="url(#clip24)" clip-rule="evenodd">
<path style="fill:none;stroke-width:0.0239804;stroke-linecap:butt;stroke-linejoin:miter;stroke:rgb(17.96875%,20.3125%,21.09375%);stroke-opacity:0.8;stroke-miterlimit:10;" d="M 5.052171 3.204108 L 4.729664 3.353987 " transform="matrix(122.599009,0,0,122.599009,-93.727101,-41.19156)"/>
</g>
</g>
</g>
<g clip-path="url(#clip25)" clip-rule="nonzero">
<g clip-path="url(#clip26)" clip-rule="evenodd">
<g clip-path="url(#clip27)" clip-rule="evenodd">
<path style="fill:none;stroke-width:0.0239804;stroke-linecap:butt;stroke-linejoin:miter;stroke:rgb(17.96875%,20.3125%,21.09375%);stroke-opacity:0.8;stroke-miterlimit:10;" d="M 2.105764 2.507509 L 2.096588 2.278039 " transform="matrix(122.599009,0,0,122.599009,-93.727101,-41.19156)"/>
</g>
</g>
</g>
<g clip-path="url(#clip28)" clip-rule="nonzero">
<g clip-path="url(#clip29)" clip-rule="evenodd">
<g clip-path="url(#clip30)" clip-rule="evenodd">
<path style="fill:none;stroke-width:0.0239804;stroke-linecap:butt;stroke-linejoin:miter;stroke:rgb(17.96875%,20.3125%,21.09375%);stroke-opacity:0.8;stroke-miterlimit:10;" d="M 2.105764 2.507509 L 2.55384 2.628393 " transform="matrix(122.599009,0,0,122.599009,-93.727101,-41.19156)"/>
</g>
</g>
</g>
<g clip-path="url(#clip31)" clip-rule="nonzero">
<g clip-path="url(#clip32)" clip-rule="evenodd">
<g clip-path="url(#clip33)" clip-rule="evenodd">
<path style="fill:none;stroke-width:0.0239804;stroke-linecap:butt;stroke-linejoin:miter;stroke:rgb(17.96875%,20.3125%,21.09375%);stroke-opacity:0.8;stroke-miterlimit:10;" d="M 2.105764 2.507509 L 1.781186 2.304293 " transform="matrix(122.599009,0,0,122.599009,-93.727101,-41.19156)"/>
</g>
</g>
</g>
<g clip-path="url(#clip34)" clip-rule="nonzero">
<g clip-path="url(#clip35)" clip-rule="evenodd">
<g clip-path="url(#clip36)" clip-rule="evenodd">
<path style="fill:none;stroke-width:0.0239804;stroke-linecap:butt;stroke-linejoin:miter;stroke:rgb(17.96875%,20.3125%,21.09375%);stroke-opacity:0.8;stroke-miterlimit:10;" d="M 1.871706 1.066263 L 2.22034 1.337026 " transform="matrix(122.599009,0,0,122.599009,-93.727101,-41.19156)"/>
</g>
</g>
</g>
<g clip-path="url(#clip37)" clip-rule="nonzero">
<g clip-path="url(#clip38)" clip-rule="evenodd">
<g clip-path="url(#clip39)" clip-rule="evenodd">
<path style="fill:none;stroke-width:0.0239804;stroke-linecap:butt;stroke-linejoin:miter;stroke:rgb(17.96875%,20.3125%,21.09375%);stroke-opacity:0.8;stroke-miterlimit:10;" d="M 2.096588 2.278039 L 2.22034 1.337026 " transform="matrix(122.599009,0,0,122.599009,-93.727101,-41.19156)"/>
</g>
</g>
</g>
<g clip-path="url(#clip40)" clip-rule="nonzero">
<g clip-path="url(#clip41)" clip-rule="evenodd">
<g clip-path="url(#clip42)" clip-rule="evenodd">
<path style="fill:none;stroke-width:0.0239804;stroke-linecap:butt;stroke-linejoin:miter;stroke:rgb(17.96875%,20.3125%,21.09375%);stroke-opacity:0.8;stroke-miterlimit:10;" d="M 2.096588 2.278039 L 2.55384 2.628393 " transform="matrix(122.599009,0,0,122.599009,-93.727101,-41.19156)"/>
</g>
</g>
</g>
<g clip-path="url(#clip43)" clip-rule="nonzero">
<g clip-path="url(#clip44)" clip-rule="evenodd">
<g clip-path="url(#clip45)" clip-rule="evenodd">
<path style="fill:none;stroke-width:0.0239804;stroke-linecap:butt;stroke-linejoin:miter;stroke:rgb(17.96875%,20.3125%,21.09375%);stroke-opacity:0.8;stroke-miterlimit:10;" d="M 2.096588 2.278039 L 3.258946 2.974001 " transform="matrix(122.599009,0,0,122.599009,-93.727101,-41.19156)"/>
</g>
</g>
</g>
<g clip-path="url(#clip46)" clip-rule="nonzero">
<g clip-path="url(#clip47)" clip-rule="evenodd">
<g clip-path="url(#clip48)" clip-rule="evenodd">
<path style="fill:none;stroke-width:0.0239804;stroke-linecap:butt;stroke-linejoin:miter;stroke:rgb(17.96875%,20.3125%,21.09375%);stroke-opacity:0.8;stroke-miterlimit:10;" d="M 2.096588 2.278039 L 1.781186 2.304293 " transform="matrix(122.599009,0,0,122.599009,-93.727101,-41.19156)"/>
</g>
</g>
</g>
<g clip-path="url(#clip49)" clip-rule="nonzero">
<g clip-path="url(#clip50)" clip-rule="evenodd">
<g clip-path="url(#clip51)" clip-rule="evenodd">
<path style="fill:none;stroke-width:0.0239804;stroke-linecap:butt;stroke-linejoin:miter;stroke:rgb(17.96875%,20.3125%,21.09375%);stroke-opacity:0.8;stroke-miterlimit:10;" d="M 2.096588 2.278039 L 1.46075 1.87183 " transform="matrix(122.599009,0,0,122.599009,-93.727101,-41.19156)"/>
</g>
</g>
</g>
<g clip-path="url(#clip52)" clip-rule="nonzero">
<g clip-path="url(#clip53)" clip-rule="evenodd">
<g clip-path="url(#clip54)" clip-rule="evenodd">
<path style="fill:none;stroke-width:0.0239804;stroke-linecap:butt;stroke-linejoin:miter;stroke:rgb(17.96875%,20.3125%,21.09375%);stroke-opacity:0.8;stroke-miterlimit:10;" d="M 2.096588 2.278039 L 1.320653 2.719678 " transform="matrix(122.599009,0,0,122.599009,-93.727101,-41.19156)"/>
</g>
</g>
</g>
<g clip-path="url(#clip55)" clip-rule="nonzero">
<g clip-path="url(#clip56)" clip-rule="evenodd">
<g clip-path="url(#clip57)" clip-rule="evenodd">
<path style="fill:none;stroke-width:0.0239804;stroke-linecap:butt;stroke-linejoin:miter;stroke:rgb(17.96875%,20.3125%,21.09375%);stroke-opacity:0.8;stroke-miterlimit:10;" d="M 2.22034 1.337026 L 2.769896 0.902174 " transform="matrix(122.599009,0,0,122.599009,-93.727101,-41.19156)"/>
</g>
</g>
</g>
<g clip-path="url(#clip58)" clip-rule="nonzero">
<g clip-path="url(#clip59)" clip-rule="evenodd">
<g clip-path="url(#clip60)" clip-rule="evenodd">
<path style="fill:none;stroke-width:0.0239804;stroke-linecap:butt;stroke-linejoin:miter;stroke:rgb(17.96875%,20.3125%,21.09375%);stroke-opacity:0.8;stroke-miterlimit:10;" d="M 2.55384 2.628393 L 3.258946 2.974001 " transform="matrix(122.599009,0,0,122.599009,-93.727101,-41.19156)"/>
</g>
</g>
</g>
<g clip-path="url(#clip61)" clip-rule="nonzero">
<g clip-path="url(#clip62)" clip-rule="evenodd">
<g clip-path="url(#clip63)" clip-rule="evenodd">
<path style="fill:none;stroke-width:0.0239804;stroke-linecap:butt;stroke-linejoin:miter;stroke:rgb(17.96875%,20.3125%,21.09375%);stroke-opacity:0.8;stroke-miterlimit:10;" d="M 3.258946 2.974001 L 3.225076 3.309858 " transform="matrix(122.599009,0,0,122.599009,-93.727101,-41.19156)"/>
</g>
</g>
</g>
<g clip-path="url(#clip64)" clip-rule="nonzero">
<g clip-path="url(#clip65)" clip-rule="evenodd">
<g clip-path="url(#clip66)" clip-rule="evenodd">
<path style="fill:none;stroke-width:0.0239804;stroke-linecap:butt;stroke-linejoin:miter;stroke:rgb(17.96875%,20.3125%,21.09375%);stroke-opacity:0.8;stroke-miterlimit:10;" d="M 3.258946 2.974001 L 3.503933 4.197247 " transform="matrix(122.599009,0,0,122.599009,-93.727101,-41.19156)"/>
</g>
</g>
</g>
<g clip-path="url(#clip67)" clip-rule="nonzero">
<g clip-path="url(#clip68)" clip-rule="evenodd">
<g clip-path="url(#clip69)" clip-rule="evenodd">
<path style="fill:none;stroke-width:0.0239804;stroke-linecap:butt;stroke-linejoin:miter;stroke:rgb(17.96875%,20.3125%,21.09375%);stroke-opacity:0.8;stroke-miterlimit:10;" d="M 3.258946 2.974001 L 3.786931 2.17111 " transform="matrix(122.599009,0,0,122.599009,-93.727101,-41.19156)"/>
</g>
</g>
</g>
<g clip-path="url(#clip70)" clip-rule="nonzero">
<g clip-path="url(#clip71)" clip-rule="evenodd">
<g clip-path="url(#clip72)" clip-rule="evenodd">
<path style="fill:none;stroke-width:0.0239804;stroke-linecap:butt;stroke-linejoin:miter;stroke:rgb(17.96875%,20.3125%,21.09375%);stroke-opacity:0.8;stroke-miterlimit:10;" d="M 2.702125 0.617805 L 2.769896 0.902174 " transform="matrix(122.599009,0,0,122.599009,-93.727101,-41.19156)"/>
</g>
</g>
</g>
<g clip-path="url(#clip73)" clip-rule="nonzero">
<g clip-path="url(#clip74)" clip-rule="evenodd">
<g clip-path="url(#clip75)" clip-rule="evenodd">
<path style="fill:none;stroke-width:0.0239804;stroke-linecap:butt;stroke-linejoin:miter;stroke:rgb(17.96875%,20.3125%,21.09375%);stroke-opacity:0.8;stroke-miterlimit:10;" d="M 2.769896 0.902174 L 3.327258 0.757616 " transform="matrix(122.599009,0,0,122.599009,-93.727101,-41.19156)"/>
</g>
</g>
</g>
<g clip-path="url(#clip76)" clip-rule="nonzero">
<g clip-path="url(#clip77)" clip-rule="evenodd">
<g clip-path="url(#clip78)" clip-rule="evenodd">
<path style="fill:none;stroke-width:0.0239804;stroke-linecap:butt;stroke-linejoin:miter;stroke:rgb(17.96875%,20.3125%,21.09375%);stroke-opacity:0.8;stroke-miterlimit:10;" d="M 3.503933 4.197247 L 3.731778 4.636401 " transform="matrix(122.599009,0,0,122.599009,-93.727101,-41.19156)"/>
</g>
</g>
</g>
<g clip-path="url(#clip79)" clip-rule="nonzero">
<g clip-path="url(#clip80)" clip-rule="evenodd">
<g clip-path="url(#clip81)" clip-rule="evenodd">
<path style="fill:none;stroke-width:0.0239804;stroke-linecap:butt;stroke-linejoin:miter;stroke:rgb(17.96875%,20.3125%,21.09375%);stroke-opacity:0.8;stroke-miterlimit:10;" d="M 3.503933 4.197247 L 4.038099 4.461223 " transform="matrix(122.599009,0,0,122.599009,-93.727101,-41.19156)"/>
</g>
</g>
</g>
<g clip-path="url(#clip82)" clip-rule="nonzero">
<g clip-path="url(#clip83)" clip-rule="evenodd">
<g clip-path="url(#clip84)" clip-rule="evenodd">
<path style="fill:none;stroke-width:0.0239804;stroke-linecap:butt;stroke-linejoin:miter;stroke:rgb(17.96875%,20.3125%,21.09375%);stroke-opacity:0.8;stroke-miterlimit:10;" d="M 3.503933 4.197247 L 2.93338 4.610306 " transform="matrix(122.599009,0,0,122.599009,-93.727101,-41.19156)"/>
</g>
</g>
</g>
<g clip-path="url(#clip85)" clip-rule="nonzero">
<g clip-path="url(#clip86)" clip-rule="evenodd">
<g clip-path="url(#clip87)" clip-rule="evenodd">
<path style="fill:none;stroke-width:0.0239804;stroke-linecap:butt;stroke-linejoin:miter;stroke:rgb(17.96875%,20.3125%,21.09375%);stroke-opacity:0.8;stroke-miterlimit:10;" d="M 1.133208 3.591008 L 1.076335 3.154499 " transform="matrix(122.599009,0,0,122.599009,-93.727101,-41.19156)"/>
</g>
</g>
</g>
<g clip-path="url(#clip88)" clip-rule="nonzero">
<g clip-path="url(#clip89)" clip-rule="evenodd">
<g clip-path="url(#clip90)" clip-rule="evenodd">
<path style="fill:none;stroke-width:0.0239804;stroke-linecap:butt;stroke-linejoin:miter;stroke:rgb(17.96875%,20.3125%,21.09375%);stroke-opacity:0.8;stroke-miterlimit:10;" d="M 1.133208 3.591008 L 1.261708 3.90504 " transform="matrix(122.599009,0,0,122.599009,-93.727101,-41.19156)"/>
</g>
</g>
</g>
<g clip-path="url(#clip91)" clip-rule="nonzero">
<g clip-path="url(#clip92)" clip-rule="evenodd">
<g clip-path="url(#clip93)" clip-rule="evenodd">
<path style="fill:none;stroke-width:0.0239804;stroke-linecap:butt;stroke-linejoin:miter;stroke:rgb(17.96875%,20.3125%,21.09375%);stroke-opacity:0.8;stroke-miterlimit:10;" d="M 1.076335 3.154499 L 1.320653 2.719678 " transform="matrix(122.599009,0,0,122.599009,-93.727101,-41.19156)"/>
</g>
</g>
</g>
<g clip-path="url(#clip94)" clip-rule="nonzero">
<g clip-path="url(#clip95)" clip-rule="evenodd">
<g clip-path="url(#clip96)" clip-rule="evenodd">
<path style="fill:none;stroke-width:0.0239804;stroke-linecap:butt;stroke-linejoin:miter;stroke:rgb(17.96875%,20.3125%,21.09375%);stroke-opacity:0.8;stroke-miterlimit:10;" d="M 4.423056 1.26881 L 4.173863 1.604158 " transform="matrix(122.599009,0,0,122.599009,-93.727101,-41.19156)"/>
</g>
</g>
</g>
<g clip-path="url(#clip97)" clip-rule="nonzero">
<g clip-path="url(#clip98)" clip-rule="evenodd">
<g clip-path="url(#clip99)" clip-rule="evenodd">
<path style="fill:none;stroke-width:0.0239804;stroke-linecap:butt;stroke-linejoin:miter;stroke:rgb(17.96875%,20.3125%,21.09375%);stroke-opacity:0.8;stroke-miterlimit:10;" d="M 3.786931 2.17111 L 4.173863 1.604158 " transform="matrix(122.599009,0,0,122.599009,-93.727101,-41.19156)"/>
</g>
</g>
</g>
<g clip-path="url(#clip100)" clip-rule="nonzero">
<g clip-path="url(#clip101)" clip-rule="evenodd">
<g clip-path="url(#clip102)" clip-rule="evenodd">
<path style="fill:none;stroke-width:0.0239804;stroke-linecap:butt;stroke-linejoin:miter;stroke:rgb(17.96875%,20.3125%,21.09375%);stroke-opacity:0.8;stroke-miterlimit:10;" d="M 3.327258 0.757616 L 3.695232 0.691439 " transform="matrix(122.599009,0,0,122.599009,-93.727101,-41.19156)"/>
</g>
</g>
</g>
<g clip-path="url(#clip103)" clip-rule="nonzero">
<g clip-path="url(#clip104)" clip-rule="evenodd">
<g clip-path="url(#clip105)" clip-rule="evenodd">
<path style="fill:none;stroke-width:0.0239804;stroke-linecap:butt;stroke-linejoin:miter;stroke:rgb(17.96875%,20.3125%,21.09375%);stroke-opacity:0.8;stroke-miterlimit:10;" d="M 2.977477 4.94817 L 2.93338 4.610306 " transform="matrix(122.599009,0,0,122.599009,-93.727101,-41.19156)"/>
</g>
</g>
</g>
<g clip-path="url(#clip106)" clip-rule="nonzero">
<g clip-path="url(#clip107)" clip-rule="evenodd">
<g clip-path="url(#clip108)" clip-rule="evenodd">
<path style="fill:none;stroke-width:0.0239804;stroke-linecap:butt;stroke-linejoin:miter;stroke:rgb(17.96875%,20.3125%,21.09375%);stroke-opacity:0.8;stroke-miterlimit:10;" d="M 2.046979 4.595745 L 2.393669 4.628435 " transform="matrix(122.599009,0,0,122.599009,-93.727101,-41.19156)"/>
</g>
</g>
</g>
<g clip-path="url(#clip109)" clip-rule="nonzero">
<g clip-path="url(#clip110)" clip-rule="evenodd">
<g clip-path="url(#clip111)" clip-rule="evenodd">
<path style="fill:none;stroke-width:0.0239804;stroke-linecap:butt;stroke-linejoin:miter;stroke:rgb(17.96875%,20.3125%,21.09375%);stroke-opacity:0.8;stroke-miterlimit:10;" d="M 2.393669 4.628435 L 2.93338 4.610306 " transform="matrix(122.599009,0,0,122.599009,-93.727101,-41.19156)"/>
</g>
</g>
</g>
<path style="fill-rule:nonzero;fill:rgb(100%,92.941176%,43.529412%);fill-opacity:1;stroke-width:0.0239804;stroke-linecap:butt;stroke-linejoin:miter;stroke:rgb(60%,60%,60%);stroke-opacity:0.8;stroke-miterlimit:10;" d="M 0.119897 -0.0000144294 C 0.119897 0.0662267 0.0662096 0.119914 0.000000397691 0.119914 C -0.0662088 0.119914 -0.119896 0.0662267 -0.119896 -0.0000144294 C -0.119896 -0.0662237 -0.0662088 -0.119911 0.000000397691 -0.119911 C 0.0662096 -0.119911 0.119897 -0.0662237 0.119897 -0.0000144294 Z M 0.119897 -0.0000144294 " transform="matrix(122.599009,0,0,122.599009,539.128857,271.533019)"/>
<path style="fill-rule:nonzero;fill:rgb(100%,92.941176%,43.529412%);fill-opacity:1;stroke-width:0.0239804;stroke-linecap:butt;stroke-linejoin:miter;stroke:rgb(60%,60%,60%);stroke-opacity:0.8;stroke-miterlimit:10;" d="M 0.119889 -0.0000142031 C 0.119889 0.0662269 0.0662333 0.119914 -0.00000781906 0.119914 C -0.0662171 0.119914 -0.119905 0.0662269 -0.119905 -0.0000142031 C -0.119905 -0.0662234 -0.0662171 -0.119911 -0.00000781906 -0.119911 C 0.0662333 -0.119911 0.119889 -0.0662234 0.119889 -0.0000142031 Z M 0.119889 -0.0000142031 " transform="matrix(122.599009,0,0,122.599009,429.075177,371.177523)"/>
<path style="fill-rule:nonzero;fill:rgb(100%,92.941176%,43.529412%);fill-opacity:1;stroke-width:0.0239804;stroke-linecap:butt;stroke-linejoin:miter;stroke:rgb(60%,60%,60%);stroke-opacity:0.8;stroke-miterlimit:10;" d="M 0.119915 -0.00000450696 C 0.119915 0.0662047 0.0662271 0.119892 -0.00001397 0.119892 C -0.0662232 0.119892 -0.119911 0.0662047 -0.119911 -0.00000450696 C -0.119911 -0.0662137 -0.0662232 -0.119901 -0.00001397 -0.119901 C 0.0662271 -0.119901 0.119915 -0.0662137 0.119915 -0.00000450696 Z M 0.119915 -0.00000450696 " transform="matrix(122.599009,0,0,122.599009,497.361088,402.770084)"/>
<path style="fill-rule:nonzero;fill:rgb(100%,92.941176%,43.529412%);fill-opacity:1;stroke-width:0.0239804;stroke-linecap:butt;stroke-linejoin:miter;stroke:rgb(60%,60%,60%);stroke-opacity:0.8;stroke-miterlimit:10;" d="M 0.119913 -0.00000343049 C 0.119913 0.0662058 0.0662257 0.119893 -0.0000153705 0.119893 C -0.0662246 0.119893 -0.119912 0.0662058 -0.119912 -0.00000343049 C -0.119912 -0.0662127 -0.0662246 -0.1199 -0.0000153705 -0.1199 C 0.0662257 -0.1199 0.119913 -0.0662127 0.119913 -0.00000343049 Z M 0.119913 -0.00000343049 " transform="matrix(122.599009,0,0,122.599009,525.665947,351.629327)"/>
<path style="fill-rule:nonzero;fill:rgb(100%,92.941176%,43.529412%);fill-opacity:1;stroke-width:0.0239804;stroke-linecap:butt;stroke-linejoin:miter;stroke:rgb(60%,60%,60%);stroke-opacity:0.8;stroke-miterlimit:10;" d="M 0.119917 -0.0000132049 C 0.119917 0.0662279 0.0662291 0.119915 -0.0000119892 0.119915 C -0.0662212 0.119915 -0.119909 0.0662279 -0.119909 -0.0000132049 C -0.119909 -0.0662224 -0.0662212 -0.11991 -0.0000119892 -0.11991 C 0.0662291 -0.11991 0.119917 -0.0662224 0.119917 -0.0000132049 Z M 0.119917 -0.0000132049 " transform="matrix(122.599009,0,0,122.599009,486.12647,370.005525)"/>
<path style="fill-rule:nonzero;fill:rgb(100%,92.941176%,43.529412%);fill-opacity:1;stroke-width:0.0239804;stroke-linecap:butt;stroke-linejoin:miter;stroke:rgb(60%,60%,60%);stroke-opacity:0.8;stroke-miterlimit:10;" d="M 0.119893 -0.0000040754 C 0.119893 0.0662052 0.0662054 0.119893 -0.00000384966 0.119893 C -0.0662131 0.119893 -0.119901 0.0662052 -0.119901 -0.0000040754 C -0.119901 -0.0662133 -0.0662131 -0.119901 -0.00000384966 -0.119901 C 0.0662054 -0.119901 0.119893 -0.0662133 0.119893 -0.0000040754 Z M 0.119893 -0.0000040754 " transform="matrix(122.599009,0,0,122.599009,164.437972,266.227062)"/>
<path style="fill-rule:nonzero;fill:rgb(100%,92.941176%,43.529412%);fill-opacity:1;stroke-width:0.0239804;stroke-linecap:butt;stroke-linejoin:miter;stroke:rgb(60%,60%,60%);stroke-opacity:0.8;stroke-miterlimit:10;" d="M 0.119901 -0.000011193 C 0.119901 0.0662299 0.0662139 0.119917 0.00000469046 0.119917 C -0.0662046 0.119917 -0.119892 0.0662299 -0.119892 -0.000011193 C -0.119892 -0.0662204 -0.0662046 -0.119908 0.00000469046 -0.119908 C 0.0662139 -0.119908 0.119901 -0.0662204 0.119901 -0.000011193 Z M 0.119901 -0.000011193 " transform="matrix(122.599009,0,0,122.599009,135.741612,89.532622)"/>
<path style="fill-rule:nonzero;fill:rgb(100%,92.941176%,43.529412%);fill-opacity:1;stroke-width:0.0239804;stroke-linecap:butt;stroke-linejoin:miter;stroke:rgb(60%,60%,60%);stroke-opacity:0.8;stroke-miterlimit:10;" d="M 0.11991 -0.00000108257 C 0.11991 0.0662082 0.066223 0.119896 0.0000137568 0.119896 C -0.0662273 0.119896 -0.119915 0.0662082 -0.119915 -0.00000108257 C -0.119915 -0.0662103 -0.0662273 -0.119898 0.0000137568 -0.119898 C 0.066223 -0.119898 0.11991 -0.0662103 0.11991 -0.00000108257 Z M 0.11991 -0.00000108257 " transform="matrix(122.599009,0,0,122.599009,163.310813,238.093883)"/>
<path style="fill-rule:nonzero;fill:rgb(100%,92.941176%,43.529412%);fill-opacity:1;stroke-width:0.0239804;stroke-linecap:butt;stroke-linejoin:miter;stroke:rgb(60%,60%,60%);stroke-opacity:0.8;stroke-miterlimit:10;" d="M 0.119896 0.00000193286 C 0.119896 0.0662112 0.0662084 0.119899 -0.00000082657 0.119899 C -0.0662101 0.119899 -0.119898 0.0662112 -0.119898 0.00000193286 C -0.119898 -0.0662073 -0.0662101 -0.119895 -0.00000082657 -0.119895 C 0.0662084 -0.119895 0.119896 -0.0662073 0.119896 0.00000193286 Z M 0.119896 0.00000193286 " transform="matrix(122.599009,0,0,122.599009,178.484476,122.726326)"/>
<path style="fill-rule:nonzero;fill:rgb(100%,92.941176%,43.529412%);fill-opacity:1;stroke-width:0.0239804;stroke-linecap:butt;stroke-linejoin:miter;stroke:rgb(60%,60%,60%);stroke-opacity:0.8;stroke-miterlimit:10;" d="M 0.119891 0.00000358684 C 0.119891 0.0662128 0.0662358 0.1199 -0.00000526749 0.1199 C -0.0662145 0.1199 -0.119902 0.0662128 -0.119902 0.00000358684 C -0.119902 -0.0662057 -0.0662145 -0.119893 -0.00000526749 -0.119893 C 0.0662358 -0.119893 0.119891 -0.0662057 0.119891 0.00000358684 Z M 0.119891 0.00000358684 " transform="matrix(122.599009,0,0,122.599009,219.37174,281.046435)"/>
<path style="fill-rule:nonzero;fill:rgb(100%,92.941176%,43.529412%);fill-opacity:1;stroke-width:0.0239804;stroke-linecap:butt;stroke-linejoin:miter;stroke:rgb(60%,60%,60%);stroke-opacity:0.8;stroke-miterlimit:10;" d="M 0.119891 -0.000000897022 C 0.119891 0.0662083 0.0662354 0.119896 -0.0000056808 0.119896 C -0.0662149 0.119896 -0.119902 0.0662083 -0.119902 -0.000000897022 C -0.119902 -0.0662101 -0.0662149 -0.119898 -0.0000056808 -0.119898 C 0.0662354 -0.119898 0.119891 -0.0662101 0.119891 -0.000000897022 Z M 0.119891 -0.000000897022 " transform="matrix(122.599009,0,0,122.599009,305.817103,323.418079)"/>
<path style="fill-rule:nonzero;fill:rgb(100%,92.941176%,43.529412%);fill-opacity:1;stroke-width:0.0239804;stroke-linecap:butt;stroke-linejoin:miter;stroke:rgb(60%,60%,60%);stroke-opacity:0.8;stroke-miterlimit:10;" d="M 0.11989 -0.00000610298 C 0.11989 0.066235 0.0662343 0.119891 -0.00000684478 0.119891 C -0.0662161 0.119891 -0.119904 0.066235 -0.119904 -0.00000610298 C -0.119904 -0.0662153 -0.0662161 -0.119903 -0.00000684478 -0.119903 C 0.0662343 -0.119903 0.11989 -0.0662153 0.11989 -0.00000610298 Z M 0.11989 -0.00000610298 " transform="matrix(122.599009,0,0,122.599009,124.64537,241.313248)"/>
<path style="fill-rule:nonzero;fill:rgb(100%,92.941176%,43.529412%);fill-opacity:1;stroke-width:0.0239804;stroke-linecap:butt;stroke-linejoin:miter;stroke:rgb(60%,60%,60%);stroke-opacity:0.8;stroke-miterlimit:10;" d="M 0.119908 -0.000000468652 C 0.119908 0.0662088 0.0662205 0.119896 0.000011306 0.119896 C -0.0662298 0.119896 -0.119917 0.0662088 -0.119917 -0.000000468652 C -0.119917 -0.0662097 -0.0662298 -0.119897 0.000011306 -0.119897 C 0.0662205 -0.119897 0.119908 -0.0662097 0.119908 -0.000000468652 Z M 0.119908 -0.000000468652 " transform="matrix(122.599009,0,0,122.599009,237.549395,34.550839)"/>
<path style="fill-rule:nonzero;fill:rgb(100%,92.941176%,43.529412%);fill-opacity:1;stroke-width:0.0239804;stroke-linecap:butt;stroke-linejoin:miter;stroke:rgb(60%,60%,60%);stroke-opacity:0.8;stroke-miterlimit:10;" d="M 0.119917 -0.00000195943 C 0.119917 0.0662073 0.06623 0.119895 -0.0000111405 0.119895 C -0.0662204 0.119895 -0.119908 0.0662073 -0.119908 -0.00000195943 C -0.119908 -0.0662112 -0.0662204 -0.119899 -0.0000111405 -0.119899 C 0.06623 -0.119899 0.119917 -0.0662112 0.119917 -0.00000195943 Z M 0.119917 -0.00000195943 " transform="matrix(122.599009,0,0,122.599009,245.860741,69.414303)"/>
<path style="fill-rule:nonzero;fill:rgb(100%,92.941176%,43.529412%);fill-opacity:1;stroke-width:0.0239804;stroke-linecap:butt;stroke-linejoin:miter;stroke:rgb(60%,60%,60%);stroke-opacity:0.8;stroke-miterlimit:10;" d="M 0.119917 0.00000603573 C 0.119917 0.0662153 0.0662299 0.119903 -0.0000111697 0.119903 C -0.0662204 0.119903 -0.119908 0.0662153 -0.119908 0.00000603573 C -0.119908 -0.0662351 -0.0662204 -0.119891 -0.0000111697 -0.119891 C 0.0662299 -0.119891 0.119917 -0.0662351 0.119917 0.00000603573 Z M 0.119917 0.00000603573 " transform="matrix(122.599009,0,0,122.599009,301.665432,364.59301)"/>
<path style="fill-rule:nonzero;fill:rgb(100%,92.941176%,43.529412%);fill-opacity:1;stroke-width:0.0239804;stroke-linecap:butt;stroke-linejoin:miter;stroke:rgb(60%,60%,60%);stroke-opacity:0.8;stroke-miterlimit:10;" d="M 0.119917 -0.000014401 C 0.119917 0.0662267 0.0662299 0.119914 -0.0000111594 0.119914 C -0.0662204 0.119914 -0.119908 0.0662267 -0.119908 -0.000014401 C -0.119908 -0.0662236 -0.0662204 -0.119911 -0.0000111594 -0.119911 C 0.0662299 -0.119911 0.119917 -0.0662236 0.119917 -0.000014401 Z M 0.119917 -0.000014401 " transform="matrix(122.599009,0,0,122.599009,335.852931,473.388484)"/>
<path style="fill-rule:nonzero;fill:rgb(100%,92.941176%,43.529412%);fill-opacity:1;stroke-width:0.0239804;stroke-linecap:butt;stroke-linejoin:miter;stroke:rgb(60%,60%,60%);stroke-opacity:0.8;stroke-miterlimit:10;" d="M 0.119893 0.00000727708 C 0.119893 0.0662165 0.0662053 0.119904 -0.00000389877 0.119904 C -0.0662131 0.119904 -0.119901 0.0662165 -0.119901 0.00000727708 C -0.119901 -0.0662338 -0.0662131 -0.119889 -0.00000389877 -0.119889 C 0.0662053 -0.119889 0.119893 -0.0662338 0.119893 0.00000727708 Z M 0.119893 0.00000727708 " transform="matrix(122.599009,0,0,122.599009,45.203603,399.061608)"/>
<path style="fill-rule:nonzero;fill:rgb(100%,92.941176%,43.529412%);fill-opacity:1;stroke-width:0.0239804;stroke-linecap:butt;stroke-linejoin:miter;stroke:rgb(60%,60%,60%);stroke-opacity:0.8;stroke-miterlimit:10;" d="M 0.119892 -0.00000564404 C 0.119892 0.0662355 0.0662049 0.119891 -0.00000434692 0.119891 C -0.0662136 0.119891 -0.119901 0.0662355 -0.119901 -0.00000564404 C -0.119901 -0.0662149 -0.0662136 -0.119902 -0.00000434692 -0.119902 C 0.0662049 -0.119902 0.119892 -0.0662149 0.119892 -0.00000564404 Z M 0.119892 -0.00000564404 " transform="matrix(122.599009,0,0,122.599009,85.359908,188.293661)"/>
<path style="fill-rule:nonzero;fill:rgb(100%,92.941176%,43.529412%);fill-opacity:1;stroke-width:0.0239804;stroke-linecap:butt;stroke-linejoin:miter;stroke:rgb(60%,60%,60%);stroke-opacity:0.8;stroke-miterlimit:10;" d="M 0.119894 0.00000988101 C 0.119894 0.0662191 0.0662061 0.119907 -0.00000309964 0.119907 C -0.0662123 0.119907 -0.1199 0.0662191 -0.1199 0.00000988101 C -0.1199 -0.0662312 -0.0662123 -0.119887 -0.00000309964 -0.119887 C 0.0662061 -0.119887 0.119894 -0.0662312 0.119894 0.00000988101 Z M 0.119894 0.00000988101 " transform="matrix(122.599009,0,0,122.599009,38.230849,345.545664)"/>
<path style="fill-rule:nonzero;fill:rgb(100%,92.941176%,43.529412%);fill-opacity:1;stroke-width:0.0239804;stroke-linecap:butt;stroke-linejoin:miter;stroke:rgb(60%,60%,60%);stroke-opacity:0.8;stroke-miterlimit:10;" d="M 0.119908 0.0000120597 C 0.119908 0.0662213 0.0662208 0.119909 0.000011601 0.119909 C -0.0662295 0.119909 -0.119917 0.0662213 -0.119917 0.0000120597 C -0.119917 -0.066229 -0.0662295 -0.119917 0.000011601 -0.119917 C 0.0662208 -0.119917 0.119908 -0.066229 0.119908 0.0000120597 Z M 0.119908 0.0000120597 " transform="matrix(122.599009,0,0,122.599009,60.955609,437.561021)"/>
<path style="fill-rule:nonzero;fill:rgb(100%,92.941176%,43.529412%);fill-opacity:1;stroke-width:0.0239804;stroke-linecap:butt;stroke-linejoin:miter;stroke:rgb(60%,60%,60%);stroke-opacity:0.8;stroke-miterlimit:10;" d="M 0.119895 -0.00000199662 C 0.119895 0.0662072 0.0662078 0.119895 -0.00000141507 0.119895 C -0.0662107 0.119895 -0.119898 0.0662072 -0.119898 -0.00000199662 C -0.119898 -0.0662112 -0.0662107 -0.119899 -0.00000141507 -0.119899 C 0.0662078 -0.119899 0.119895 -0.0662112 0.119895 -0.00000199662 Z M 0.119895 -0.00000199662 " transform="matrix(122.599009,0,0,122.599009,68.183767,292.238526)"/>
<path style="fill-rule:nonzero;fill:rgb(100%,92.941176%,43.529412%);fill-opacity:1;stroke-width:0.0239804;stroke-linecap:butt;stroke-linejoin:miter;stroke:rgb(60%,60%,60%);stroke-opacity:0.8;stroke-miterlimit:10;" d="M 0.119913 -0.00000724986 C 0.119913 0.0662339 0.0662256 0.119889 -0.000015541 0.119889 C -0.0662248 0.119889 -0.119912 0.0662339 -0.119912 -0.00000724986 C -0.119912 -0.0662165 -0.0662248 -0.119904 -0.000015541 -0.119904 C 0.0662256 -0.119904 0.119913 -0.0662165 0.119913 -0.00000724986 Z M 0.119913 -0.00000724986 " transform="matrix(122.599009,0,0,122.599009,448.537062,114.36417)"/>
<path style="fill-rule:nonzero;fill:rgb(100%,92.941176%,43.529412%);fill-opacity:1;stroke-width:0.0239804;stroke-linecap:butt;stroke-linejoin:miter;stroke:rgb(60%,60%,60%);stroke-opacity:0.8;stroke-miterlimit:10;" d="M 0.119918 -0.000000208866 C 0.119918 0.066209 0.0662301 0.119897 -0.0000110192 0.119897 C -0.0662203 0.119897 -0.119908 0.066209 -0.119908 -0.000000208866 C -0.119908 -0.0662095 -0.0662203 -0.119897 -0.0000110192 -0.119897 C 0.0662301 -0.119897 0.119918 -0.0662095 0.119918 -0.000000208866 Z M 0.119918 -0.000000208866 " transform="matrix(122.599009,0,0,122.599009,370.548226,224.984401)"/>
<path style="fill-rule:nonzero;fill:rgb(100%,92.941176%,43.529412%);fill-opacity:1;stroke-width:0.0239804;stroke-linecap:butt;stroke-linejoin:miter;stroke:rgb(60%,60%,60%);stroke-opacity:0.8;stroke-miterlimit:10;" d="M 0.119888 -0.00000446023 C 0.119888 0.0662048 0.0662322 0.119892 -0.00000895364 0.119892 C -0.0662182 0.119892 -0.119906 0.0662048 -0.119906 -0.00000446023 C -0.119906 -0.0662137 -0.0662182 -0.119901 -0.00000895364 -0.119901 C 0.0662322 -0.119901 0.119888 -0.0662137 0.119888 -0.00000446023 Z M 0.119888 -0.00000446023 " transform="matrix(122.599009,0,0,122.599009,417.985473,155.477109)"/>
<path style="fill-rule:nonzero;fill:rgb(100%,92.941176%,43.529412%);fill-opacity:1;stroke-width:0.0239804;stroke-linecap:butt;stroke-linejoin:miter;stroke:rgb(60%,60%,60%);stroke-opacity:0.8;stroke-miterlimit:10;" d="M 0.119908 -0.00000962291 C 0.119908 0.0662315 0.0662201 0.119887 0.0000109012 0.119887 C -0.0662302 0.119887 -0.119918 0.0662315 -0.119918 -0.00000962291 C -0.119918 -0.0662189 -0.0662302 -0.119906 0.0000109012 -0.119906 C 0.0662201 -0.119906 0.119908 -0.0662189 0.119908 -0.00000962291 Z M 0.119908 -0.00000962291 " transform="matrix(122.599009,0,0,122.599009,314.19007,51.692586)"/>
<path style="fill-rule:nonzero;fill:rgb(100%,92.941176%,43.529412%);fill-opacity:1;stroke-width:0.0239804;stroke-linecap:butt;stroke-linejoin:miter;stroke:rgb(60%,60%,60%);stroke-opacity:0.8;stroke-miterlimit:10;" d="M 0.1199 -0.00000585731 C 0.1199 0.0662352 0.0662121 0.119891 0.00000287123 0.119891 C -0.0662064 0.119891 -0.119894 0.0662352 -0.119894 -0.00000585731 C -0.119894 -0.0662151 -0.0662064 -0.119903 0.00000287123 -0.119903 C 0.0662121 -0.119903 0.1199 -0.0662151 0.1199 -0.00000585731 Z M 0.1199 -0.00000585731 " transform="matrix(122.599009,0,0,122.599009,359.304335,43.578843)"/>
<path style="fill-rule:nonzero;fill:rgb(100%,92.941176%,43.529412%);fill-opacity:1;stroke-width:0.0239804;stroke-linecap:butt;stroke-linejoin:miter;stroke:rgb(60%,60%,60%);stroke-opacity:0.8;stroke-miterlimit:10;" d="M 0.119897 0.000000371528 C 0.119897 0.0662096 0.0662093 0.119897 0.0000000753554 0.119897 C -0.0662092 0.119897 -0.119897 0.0662096 -0.119897 0.000000371528 C -0.119897 -0.0662089 -0.0662092 -0.119896 0.0000000753554 -0.119896 C 0.0662093 -0.119896 0.119897 -0.0662089 0.119897 0.000000371528 Z M 0.119897 0.000000371528 " transform="matrix(122.599009,0,0,122.599009,363.785147,527.226517)"/>
<path style="fill-rule:nonzero;fill:rgb(100%,92.941176%,43.529412%);fill-opacity:1;stroke-width:0.0239804;stroke-linecap:butt;stroke-linejoin:miter;stroke:rgb(60%,60%,60%);stroke-opacity:0.8;stroke-miterlimit:10;" d="M 0.119913 -0.00000933888 C 0.119913 0.0662318 0.0662251 0.119887 0.0000158868 0.119887 C -0.0662252 0.119887 -0.119913 0.0662318 -0.119913 -0.00000933888 C -0.119913 -0.0662186 -0.0662252 -0.119906 0.0000158868 -0.119906 C 0.0662251 -0.119906 0.119913 -0.0662186 0.119913 -0.00000933888 Z M 0.119913 -0.00000933888 " transform="matrix(122.599009,0,0,122.599009,401.337896,505.751145)"/>
<path style="fill-rule:nonzero;fill:rgb(55.294118%,82.745098%,78.039216%);fill-opacity:1;stroke-width:0.0239804;stroke-linecap:butt;stroke-linejoin:miter;stroke:rgb(60%,60%,60%);stroke-opacity:0.8;stroke-miterlimit:10;" d="M 0.119903 0.000000468652 C 0.119903 0.0662097 0.0662151 0.119897 0.00000583558 0.119897 C -0.0662353 0.119897 -0.119891 0.0662097 -0.119891 0.000000468652 C -0.119891 -0.0662088 -0.0662353 -0.119896 0.00000583558 -0.119896 C 0.0662151 -0.119896 0.119903 -0.0662088 0.119903 0.000000468652 Z M 0.119903 0.000000468652 " transform="matrix(122.599009,0,0,122.599009,271.307878,565.449161)"/>
<path style="fill-rule:nonzero;fill:rgb(55.294118%,82.745098%,78.039216%);fill-opacity:1;stroke-width:0.0239804;stroke-linecap:butt;stroke-linejoin:miter;stroke:rgb(60%,60%,60%);stroke-opacity:0.8;stroke-miterlimit:10;" d="M 0.119903 -0.0000156295 C 0.119903 0.0662255 0.0662154 0.119913 0.00000617964 0.119913 C -0.0662349 0.119913 -0.119891 0.0662255 -0.119891 -0.0000156295 C -0.119891 -0.0662249 -0.0662349 -0.119912 0.00000617964 -0.119912 C 0.0662154 -0.119912 0.119903 -0.0662249 0.119903 -0.0000156295 Z M 0.119903 -0.0000156295 " transform="matrix(122.599009,0,0,122.599009,157.229711,522.244104)"/>
<path style="fill-rule:nonzero;fill:rgb(55.294118%,82.745098%,78.039216%);fill-opacity:1;stroke-width:0.0239804;stroke-linecap:butt;stroke-linejoin:miter;stroke:rgb(60%,60%,60%);stroke-opacity:0.8;stroke-miterlimit:10;" d="M 0.119912 -0.00001257 C 0.119912 0.0662285 0.066225 0.119916 0.0000157398 0.119916 C -0.0662254 0.119916 -0.119913 0.0662285 -0.119913 -0.00001257 C -0.119913 -0.0662218 -0.0662254 -0.119909 0.0000157398 -0.119909 C 0.066225 -0.119909 0.119912 -0.0662218 0.119912 -0.00001257 Z M 0.119912 -0.00001257 " transform="matrix(122.599009,0,0,122.599009,199.732445,526.251541)"/>
<path style="fill-rule:nonzero;fill:rgb(55.294118%,82.745098%,78.039216%);fill-opacity:1;stroke-width:0.0239804;stroke-linecap:butt;stroke-linejoin:miter;stroke:rgb(60%,60%,60%);stroke-opacity:0.8;stroke-miterlimit:10;" d="M 0.119917 -0.00000133028 C 0.119917 0.0662079 0.0662295 0.119895 -0.0000116499 0.119895 C -0.0662209 0.119895 -0.119908 0.0662079 -0.119908 -0.00000133028 C -0.119908 -0.0662106 -0.0662209 -0.119898 -0.0000116499 -0.119898 C 0.0662295 -0.119898 0.119917 -0.0662106 0.119917 -0.00000133028 Z M 0.119917 -0.00000133028 " transform="matrix(122.599009,0,0,122.599009,265.903772,524.027507)"/>
<path style="fill-rule:nonzero;fill:rgb(100%,92.941176%,43.529412%);fill-opacity:1;stroke-width:0.0239804;stroke-linecap:butt;stroke-linejoin:miter;stroke:rgb(60%,60%,60%);stroke-opacity:0.8;stroke-miterlimit:10;" d="M 0.1199 0.00000489137 C 0.1199 0.0662141 0.0662123 0.119902 0.00000309964 0.119902 C -0.0662061 0.119902 -0.119894 0.0662141 -0.119894 0.00000489137 C -0.119894 -0.0662044 -0.0662061 -0.119892 0.00000309964 -0.119892 C 0.0662123 -0.119892 0.1199 -0.0662044 0.1199 0.00000489137 Z M 0.1199 0.00000489137 " transform="matrix(122.599009,0,0,122.599009,561.769151,246.116588)"/>
<path style="fill-rule:nonzero;fill:rgb(100%,92.941176%,43.529412%);fill-opacity:1;stroke-width:0.0239804;stroke-linecap:butt;stroke-linejoin:miter;stroke:rgb(60%,60%,60%);stroke-opacity:0.8;stroke-miterlimit:10;" d="M 0.119917 0.00000741831 C 0.119917 0.0662167 0.0662296 0.119904 -0.0000115065 0.119904 C -0.0662207 0.119904 -0.119908 0.0662167 -0.119908 0.00000741831 C -0.119908 -0.0662337 -0.0662207 -0.119889 -0.0000115065 -0.119889 C 0.0662296 -0.119889 0.119917 -0.0662337 0.119917 0.00000741831 Z M 0.119917 0.00000741831 " transform="matrix(122.599009,0,0,122.599009,528.169379,212.045966)"/>
</g>
</svg>
