<?xml version="1.0" encoding="UTF-8"?>
<svg xmlns="http://www.w3.org/2000/svg" xmlns:xlink="http://www.w3.org/1999/xlink" width="600pt" height="600pt" viewBox="0 0 600 600" version="1.1">
<defs>
<clipPath id="clip1">
  <path d="M 289.632812 110 L 483.996094 110 L 483.996094 217 L 289.632812 217 Z M 289.632812 110 "/>
</clipPath>
<clipPath id="clip2">
  <path d="M 289.632812 28.46875 L 483.996094 28.46875 L 483.996094 298.175781 L 289.632812 298.175781 Z M 289.632812 28.46875 L 475.972656 175.554688 C 475.972656 183.558594 469.488281 190.042969 461.484375 190.042969 C 453.484375 190.042969 446.996094 183.558594 446.996094 175.554688 C 446.996094 167.554688 453.484375 161.066406 461.484375 161.066406 C 469.488281 161.066406 475.972656 167.554688 475.972656 175.554688 Z M 289.632812 28.46875 "/>
</clipPath>
<clipPath id="clip3">
  <path d="M 289.632812 28.46875 L 483.996094 28.46875 L 483.996094 298.175781 L 289.632812 298.175781 Z M 289.632812 28.46875 L 326.632812 151.089844 C 326.632812 159.09375 320.148438 165.578125 312.144531 165.578125 C 304.144531 165.578125 297.65625 159.09375 297.65625 151.089844 C 297.65625 143.089844 304.144531 136.601562 312.144531 136.601562 C 320.148438 136.601562 326.632812 143.089844 326.632812 151.089844 Z M 289.632812 28.46875 "/>
</clipPath>
<clipPath id="clip4">
  <path d="M 420 134 L 566 134 L 566 322 L 420 322 Z M 420 134 "/>
</clipPath>
<clipPath id="clip5">
  <path d="M 354.441406 110.433594 L 631.367188 110.433594 L 631.367188 345.851562 L 354.441406 345.851562 Z M 354.441406 110.433594 L 475.972656 175.554688 C 475.972656 183.558594 469.488281 190.042969 461.484375 190.042969 C 453.484375 190.042969 446.996094 183.558594 446.996094 175.554688 C 446.996094 167.554688 453.484375 161.066406 461.484375 161.066406 C 469.488281 161.066406 475.972656 167.554688 475.972656 175.554688 Z M 354.441406 110.433594 "/>
</clipPath>
<clipPath id="clip6">
  <path d="M 354.441406 110.433594 L 631.367188 110.433594 L 631.367188 345.851562 L 354.441406 345.851562 Z M 354.441406 110.433594 L 538.8125 280.730469 C 538.8125 288.730469 532.328125 295.21875 524.324219 295.21875 C 516.324219 295.21875 509.835938 288.730469 509.835938 280.730469 C 509.835938 272.726562 516.324219 266.242188 524.324219 266.242188 C 532.328125 266.242188 538.8125 272.726562 538.8125 280.730469 Z M 354.441406 110.433594 "/>
</clipPath>
<clipPath id="clip7">
  <path d="M 420 89 L 545 89 L 545 217 L 420 217 Z M 420 89 "/>
</clipPath>
<clipPath id="clip8">
  <path d="M 370.433594 44.351562 L 595.042969 44.351562 L 595.042969 261.800781 L 370.433594 261.800781 Z M 370.433594 44.351562 L 475.972656 175.554688 C 475.972656 183.558594 469.488281 190.042969 461.484375 190.042969 C 453.484375 190.042969 446.996094 183.558594 446.996094 175.554688 C 446.996094 167.554688 453.484375 161.066406 461.484375 161.066406 C 469.488281 161.066406 475.972656 167.554688 475.972656 175.554688 Z M 370.433594 44.351562 "/>
</clipPath>
<clipPath id="clip9">
  <path d="M 370.433594 44.351562 L 595.042969 44.351562 L 595.042969 261.800781 L 370.433594 261.800781 Z M 370.433594 44.351562 L 518.480469 130.597656 C 518.480469 138.601562 511.992188 145.089844 503.992188 145.089844 C 495.988281 145.089844 489.503906 138.601562 489.503906 130.597656 C 489.503906 122.597656 495.988281 116.109375 503.992188 116.109375 C 511.992188 116.109375 518.480469 122.597656 518.480469 130.597656 Z M 370.433594 44.351562 "/>
</clipPath>
<clipPath id="clip10">
  <path d="M 302 58 L 435 58 L 435 248 L 302 248 Z M 302 58 "/>
</clipPath>
<clipPath id="clip11">
  <path d="M 230.652344 44.359375 L 506.460938 44.359375 L 506.460938 261.359375 L 230.652344 261.359375 Z M 230.652344 44.359375 L 357.605469 206.375 C 357.605469 214.375 351.117188 220.863281 343.117188 220.863281 C 335.113281 220.863281 328.628906 214.375 328.628906 206.375 C 328.628906 198.375 335.113281 191.886719 343.117188 191.886719 C 351.117188 191.886719 357.605469 198.375 357.605469 206.375 Z M 230.652344 44.359375 "/>
</clipPath>
<clipPath id="clip12">
  <path d="M 230.652344 44.359375 L 506.460938 44.359375 L 506.460938 261.359375 L 230.652344 261.359375 Z M 230.652344 44.359375 L 408.484375 99.34375 C 408.484375 107.347656 401.996094 113.832031 393.996094 113.832031 C 385.992188 113.832031 379.507812 107.347656 379.507812 99.34375 C 379.507812 91.34375 385.992188 84.855469 393.996094 84.855469 C 401.996094 84.855469 408.484375 91.34375 408.484375 99.34375 Z M 230.652344 44.359375 "/>
</clipPath>
<clipPath id="clip13">
  <path d="M 271 110 L 385 110 L 385 248 L 271 248 Z M 271 110 "/>
</clipPath>
<clipPath id="clip14">
  <path d="M 203.40625 88.898438 L 451.855469 88.898438 L 451.855469 268.566406 L 203.40625 268.566406 Z M 203.40625 88.898438 L 357.605469 206.375 C 357.605469 214.375 351.117188 220.863281 343.117188 220.863281 C 335.113281 220.863281 328.628906 214.375 328.628906 206.375 C 328.628906 198.375 335.113281 191.886719 343.117188 191.886719 C 351.117188 191.886719 357.605469 198.375 357.605469 206.375 Z M 203.40625 88.898438 "/>
</clipPath>
<clipPath id="clip15">
  <path d="M 203.40625 88.898438 L 451.855469 88.898438 L 451.855469 268.566406 L 203.40625 268.566406 Z M 203.40625 88.898438 L 326.632812 151.089844 C 326.632812 159.09375 320.148438 165.578125 312.144531 165.578125 C 304.144531 165.578125 297.65625 159.09375 297.65625 151.089844 C 297.65625 143.089844 304.144531 136.601562 312.144531 136.601562 C 320.148438 136.601562 326.632812 143.089844 326.632812 151.089844 Z M 203.40625 88.898438 "/>
</clipPath>
<clipPath id="clip16">
  <path d="M 302 165 L 429 165 L 429 293 L 302 293 Z M 302 165 "/>
</clipPath>
<clipPath id="clip17">
  <path d="M 254.320312 117.808594 L 476.480469 117.808594 L 476.480469 339.628906 L 254.320312 339.628906 Z M 254.320312 117.808594 L 357.605469 206.375 C 357.605469 214.375 351.117188 220.863281 343.117188 220.863281 C 335.113281 220.863281 328.628906 214.375 328.628906 206.375 C 328.628906 198.375 335.113281 191.886719 343.117188 191.886719 C 351.117188 191.886719 357.605469 198.375 357.605469 206.375 Z M 254.320312 117.808594 "/>
</clipPath>
<clipPath id="clip18">
  <path d="M 254.320312 117.808594 L 476.480469 117.808594 L 476.480469 339.628906 L 254.320312 339.628906 Z M 254.320312 117.808594 L 402.171875 251.0625 C 402.171875 259.0625 395.683594 265.550781 387.683594 265.550781 C 379.679688 265.550781 373.195312 259.0625 373.195312 251.0625 C 373.195312 243.0625 379.679688 236.574219 387.683594 236.574219 C 395.683594 236.574219 402.171875 243.0625 402.171875 251.0625 Z M 254.320312 117.808594 "/>
</clipPath>
<clipPath id="clip19">
  <path d="M 240 165 L 385 165 L 385 377 L 240 377 Z M 240 165 "/>
</clipPath>
<clipPath id="clip20">
  <path d="M 169.261719 151.273438 L 455.527344 151.273438 L 455.527344 390.378906 L 169.261719 390.378906 Z M 169.261719 151.273438 L 357.605469 206.375 C 357.605469 214.375 351.117188 220.863281 343.117188 220.863281 C 335.113281 220.863281 328.628906 214.375 328.628906 206.375 C 328.628906 198.375 335.113281 191.886719 343.117188 191.886719 C 351.117188 191.886719 357.605469 198.375 357.605469 206.375 Z M 169.261719 151.273438 "/>
</clipPath>
<clipPath id="clip21">
  <path d="M 169.261719 151.273438 L 455.527344 151.273438 L 455.527344 390.378906 L 169.261719 390.378906 Z M 169.261719 151.273438 L 296.160156 335.277344 C 296.160156 343.28125 289.675781 349.765625 281.671875 349.765625 C 273.671875 349.765625 267.183594 343.28125 267.183594 335.277344 C 267.183594 327.277344 273.671875 320.789062 281.671875 320.789062 C 289.675781 320.789062 296.160156 327.277344 296.160156 335.277344 Z M 169.261719 151.273438 "/>
</clipPath>
<clipPath id="clip22">
  <path d="M 353 7 L 458 7 L 458 141 L 353 141 Z M 353 7 "/>
</clipPath>
<clipPath id="clip23">
  <path d="M 279.945312 -3.460938 L 530.480469 -3.460938 L 530.480469 150.855469 L 279.945312 150.855469 Z M 279.945312 -3.460938 L 430.917969 48.050781 C 430.917969 56.054688 424.429688 62.539062 416.429688 62.539062 C 408.425781 62.539062 401.941406 56.054688 401.941406 48.050781 C 401.941406 40.050781 408.425781 33.5625 416.429688 33.5625 C 424.429688 33.5625 430.917969 40.050781 430.917969 48.050781 Z M 279.945312 -3.460938 "/>
</clipPath>
<clipPath id="clip24">
  <path d="M 279.945312 -3.460938 L 530.480469 -3.460938 L 530.480469 150.855469 L 279.945312 150.855469 Z M 279.945312 -3.460938 L 408.484375 99.34375 C 408.484375 107.347656 401.996094 113.832031 393.996094 113.832031 C 385.992188 113.832031 379.507812 107.347656 379.507812 99.34375 C 379.507812 91.34375 385.992188 84.855469 393.996094 84.855469 C 401.996094 84.855469 408.484375 91.34375 408.484375 99.34375 Z M 279.945312 -3.460938 "/>
</clipPath>
<clipPath id="clip25">
  <path d="M 124.792969 110 L 343.078125 110 L 343.078125 230 L 124.792969 230 Z M 124.792969 110 "/>
</clipPath>
<clipPath id="clip26">
  <path d="M 124.792969 30.160156 L 343.078125 30.160156 L 343.078125 309.171875 L 124.792969 309.171875 Z M 124.792969 30.160156 L 326.632812 151.089844 C 326.632812 159.09375 320.148438 165.578125 312.144531 165.578125 C 304.144531 165.578125 297.65625 159.09375 297.65625 151.089844 C 297.65625 143.089844 304.144531 136.601562 312.144531 136.601562 C 320.148438 136.601562 326.632812 143.089844 326.632812 151.089844 Z M 124.792969 30.160156 "/>
</clipPath>
<clipPath id="clip27">
  <path d="M 124.792969 30.160156 L 343.078125 30.160156 L 343.078125 309.171875 L 124.792969 309.171875 Z M 124.792969 30.160156 L 170.214844 188.242188 C 170.214844 196.246094 163.726562 202.730469 155.726562 202.730469 C 147.722656 202.730469 141.238281 196.246094 141.238281 188.242188 C 141.238281 180.242188 147.722656 173.753906 155.726562 173.753906 C 163.726562 173.753906 170.214844 180.242188 170.214844 188.242188 Z M 124.792969 30.160156 "/>
</clipPath>
<clipPath id="clip28">
  <path d="M 249 36.808594 L 354 36.808594 L 354 185.265625 L 249 185.265625 Z M 249 36.808594 "/>
</clipPath>
<clipPath id="clip29">
  <path d="M 170.65625 36.808594 L 432.257812 36.808594 L 432.257812 185.265625 L 170.65625 185.265625 Z M 170.65625 36.808594 L 326.632812 151.089844 C 326.632812 159.09375 320.148438 165.578125 312.144531 165.578125 C 304.144531 165.578125 297.65625 159.09375 297.65625 151.089844 C 297.65625 143.089844 304.144531 136.601562 312.144531 136.601562 C 320.148438 136.601562 326.632812 143.089844 326.632812 151.089844 Z M 170.65625 36.808594 "/>
</clipPath>
<clipPath id="clip30">
  <path d="M 170.65625 36.808594 L 432.257812 36.808594 L 432.257812 185.265625 L 170.65625 185.265625 Z M 170.65625 36.808594 L 305.257812 70.984375 C 305.257812 78.988281 298.769531 85.472656 290.769531 85.472656 C 282.765625 85.472656 276.28125 78.988281 276.28125 70.984375 C 276.28125 62.984375 282.765625 56.496094 290.769531 56.496094 C 298.769531 56.496094 305.257812 62.984375 305.257812 70.984375 Z M 170.65625 36.808594 "/>
</clipPath>
<clipPath id="clip31">
  <path d="M 454 251.027344 L 566 251.027344 L 566 439.125 L 454 439.125 Z M 454 251.027344 "/>
</clipPath>
<clipPath id="clip32">
  <path d="M 373.953125 251.027344 L 645.539062 251.027344 L 645.539062 439.125 L 373.953125 439.125 Z M 373.953125 251.027344 L 509.65625 409.421875 C 509.65625 417.421875 503.167969 423.910156 495.167969 423.910156 C 487.164062 423.910156 480.679688 417.421875 480.679688 409.421875 C 480.679688 401.421875 487.164062 394.933594 495.167969 394.933594 C 503.167969 394.933594 509.65625 401.421875 509.65625 409.421875 Z M 373.953125 251.027344 "/>
</clipPath>
<clipPath id="clip33">
  <path d="M 373.953125 251.027344 L 645.539062 251.027344 L 645.539062 439.125 L 373.953125 439.125 Z M 373.953125 251.027344 L 538.8125 280.730469 C 538.8125 288.730469 532.328125 295.21875 524.324219 295.21875 C 516.324219 295.21875 509.835938 288.730469 509.835938 280.730469 C 509.835938 272.726562 516.324219 266.242188 524.324219 266.242188 C 532.328125 266.242188 538.8125 272.726562 538.8125 280.730469 Z M 373.953125 251.027344 "/>
</clipPath>
<clipPath id="clip34">
  <path d="M 453 404.078125 L 537 404.078125 L 537 461.441406 L 453 461.441406 Z M 453 404.078125 "/>
</clipPath>
<clipPath id="clip35">
  <path d="M 370.035156 404.078125 L 619.359375 404.078125 L 619.359375 461.441406 L 370.035156 461.441406 Z M 370.035156 404.078125 L 509.65625 409.421875 C 509.65625 417.421875 503.167969 423.910156 495.167969 423.910156 C 487.164062 423.910156 480.679688 417.421875 480.679688 409.421875 C 480.679688 401.421875 487.164062 394.933594 495.167969 394.933594 C 503.167969 394.933594 509.65625 401.421875 509.65625 409.421875 Z M 370.035156 404.078125 "/>
</clipPath>
<clipPath id="clip36">
  <path d="M 370.035156 404.078125 L 619.359375 404.078125 L 619.359375 461.441406 L 370.035156 461.441406 Z M 370.035156 404.078125 L 508.714844 456.097656 C 508.714844 464.097656 502.230469 470.585938 494.226562 470.585938 C 486.226562 470.585938 479.738281 464.097656 479.738281 456.097656 C 479.738281 448.09375 486.226562 441.609375 494.226562 441.609375 C 502.230469 441.609375 508.714844 448.09375 508.714844 456.097656 Z M 370.035156 404.078125 "/>
</clipPath>
<clipPath id="clip37">
  <path d="M 473.144531 368 L 556.539062 368 L 556.539062 457 L 473.144531 457 Z M 473.144531 368 "/>
</clipPath>
<clipPath id="clip38">
  <path d="M 473.144531 286.722656 L 556.539062 286.722656 L 556.539062 538.402344 L 473.144531 538.402344 Z M 473.144531 286.722656 L 509.65625 409.421875 C 509.65625 417.421875 503.167969 423.910156 495.167969 423.910156 C 487.164062 423.910156 480.679688 417.421875 480.679688 409.421875 C 480.679688 401.421875 487.164062 394.933594 495.167969 394.933594 C 503.167969 394.933594 509.65625 401.421875 509.65625 409.421875 Z M 473.144531 286.722656 "/>
</clipPath>
<clipPath id="clip39">
  <path d="M 473.144531 286.722656 L 556.539062 286.722656 L 556.539062 538.402344 L 473.144531 538.402344 Z M 473.144531 286.722656 L 549.003906 415.703125 C 549.003906 423.707031 542.515625 430.191406 534.515625 430.191406 C 526.515625 430.191406 520.027344 423.707031 520.027344 415.703125 C 520.027344 407.703125 526.515625 401.214844 534.515625 401.214844 C 542.515625 401.214844 549.003906 407.703125 549.003906 415.703125 Z M 473.144531 286.722656 "/>
</clipPath>
<clipPath id="clip40">
  <path d="M 394 368 L 537 368 L 537 527 L 394 527 Z M 394 368 "/>
</clipPath>
<clipPath id="clip41">
  <path d="M 337.183594 331.066406 L 593.0625 331.066406 L 593.0625 563.425781 L 337.183594 563.425781 Z M 337.183594 331.066406 L 509.65625 409.421875 C 509.65625 417.421875 503.167969 423.910156 495.167969 423.910156 C 487.164062 423.910156 480.679688 417.421875 480.679688 409.421875 C 480.679688 401.421875 487.164062 394.933594 495.167969 394.933594 C 503.167969 394.933594 509.65625 401.421875 509.65625 409.421875 Z M 337.183594 331.066406 "/>
</clipPath>
<clipPath id="clip42">
  <path d="M 337.183594 331.066406 L 593.0625 331.066406 L 593.0625 563.425781 L 337.183594 563.425781 Z M 337.183594 331.066406 L 449.566406 485.070312 C 449.566406 493.074219 443.082031 499.558594 435.078125 499.558594 C 427.078125 499.558594 420.589844 493.074219 420.589844 485.070312 C 420.589844 477.070312 427.078125 470.582031 435.078125 470.582031 C 443.082031 470.582031 449.566406 477.070312 449.566406 485.070312 Z M 337.183594 331.066406 "/>
</clipPath>
<clipPath id="clip43">
  <path d="M 483 239 L 600 239 L 600 340 L 483 340 Z M 483 239 "/>
</clipPath>
<clipPath id="clip44">
  <path d="M 474.511719 165.953125 L 615.542969 165.953125 L 615.542969 412.871094 L 474.511719 412.871094 Z M 474.511719 165.953125 L 538.8125 280.730469 C 538.8125 288.730469 532.328125 295.21875 524.324219 295.21875 C 516.324219 295.21875 509.835938 288.730469 509.835938 280.730469 C 509.835938 272.726562 516.324219 266.242188 524.324219 266.242188 C 532.328125 266.242188 538.8125 272.726562 538.8125 280.730469 Z M 474.511719 165.953125 "/>
</clipPath>
<clipPath id="clip45">
  <path d="M 474.511719 165.953125 L 615.542969 165.953125 L 615.542969 412.871094 L 474.511719 412.871094 Z M 474.511719 165.953125 L 580.21875 298.09375 C 580.21875 306.097656 573.730469 312.582031 565.730469 312.582031 C 557.730469 312.582031 551.242188 306.097656 551.242188 298.09375 C 551.242188 290.09375 557.730469 283.605469 565.730469 283.605469 C 573.730469 283.605469 580.21875 290.09375 580.21875 298.09375 Z M 474.511719 165.953125 "/>
</clipPath>
<clipPath id="clip46">
  <path d="M 483 197 L 600 197 L 600 322 L 483 322 Z M 483 197 "/>
</clipPath>
<clipPath id="clip47">
  <path d="M 429.074219 157.222656 L 655.300781 157.222656 L 655.300781 362.296875 L 429.074219 362.296875 Z M 429.074219 157.222656 L 538.8125 280.730469 C 538.8125 288.730469 532.328125 295.21875 524.324219 295.21875 C 516.324219 295.21875 509.835938 288.730469 509.835938 280.730469 C 509.835938 272.726562 516.324219 266.242188 524.324219 266.242188 C 532.328125 266.242188 538.8125 272.726562 538.8125 280.730469 Z M 429.074219 157.222656 "/>
</clipPath>
<clipPath id="clip48">
  <path d="M 429.074219 157.222656 L 655.300781 157.222656 L 655.300781 362.296875 L 429.074219 362.296875 Z M 429.074219 157.222656 L 574.539062 238.789062 C 574.539062 246.792969 568.054688 253.277344 560.050781 253.277344 C 552.050781 253.277344 545.5625 246.792969 545.5625 238.789062 C 545.5625 230.789062 552.050781 224.300781 560.050781 224.300781 C 568.054688 224.300781 574.539062 230.789062 574.539062 238.789062 Z M 429.074219 157.222656 "/>
</clipPath>
<clipPath id="clip49">
  <path d="M 129 15 L 280 15 L 280 144 L 129 144 Z M 129 15 "/>
</clipPath>
<clipPath id="clip50">
  <path d="M 99.367188 -46.894531 L 310.183594 -46.894531 L 310.183594 205.675781 L 99.367188 205.675781 Z M 99.367188 -46.894531 L 253.265625 56.125 C 253.265625 64.125 246.78125 70.613281 238.777344 70.613281 C 230.777344 70.613281 224.289062 64.125 224.289062 56.125 C 224.289062 48.125 230.777344 41.636719 238.777344 41.636719 C 246.78125 41.636719 253.265625 48.125 253.265625 56.125 Z M 99.367188 -46.894531 "/>
</clipPath>
<clipPath id="clip51">
  <path d="M 99.367188 -46.894531 L 310.183594 -46.894531 L 310.183594 205.675781 L 99.367188 205.675781 Z M 99.367188 -46.894531 L 185.261719 102.65625 C 185.261719 110.65625 178.773438 117.144531 170.773438 117.144531 C 162.769531 117.144531 156.285156 110.65625 156.285156 102.65625 C 156.285156 94.652344 162.769531 88.167969 170.773438 88.167969 C 178.773438 88.167969 185.261719 94.652344 185.261719 102.65625 Z M 99.367188 -46.894531 "/>
</clipPath>
<clipPath id="clip52">
  <path d="M 202.542969 15 L 327.003906 15 L 327.003906 112 L 202.542969 112 Z M 202.542969 15 "/>
</clipPath>
<clipPath id="clip53">
  <path d="M 202.542969 -63.417969 L 327.003906 -63.417969 L 327.003906 190.527344 L 202.542969 190.527344 Z M 202.542969 -63.417969 L 253.265625 56.125 C 253.265625 64.125 246.78125 70.613281 238.777344 70.613281 C 230.777344 70.613281 224.289062 64.125 224.289062 56.125 C 224.289062 48.125 230.777344 41.636719 238.777344 41.636719 C 246.78125 41.636719 253.265625 48.125 253.265625 56.125 Z M 202.542969 -63.417969 "/>
</clipPath>
<clipPath id="clip54">
  <path d="M 202.542969 -63.417969 L 327.003906 -63.417969 L 327.003906 190.527344 L 202.542969 190.527344 Z M 202.542969 -63.417969 L 305.257812 70.984375 C 305.257812 78.988281 298.769531 85.472656 290.769531 85.472656 C 282.765625 85.472656 276.28125 78.988281 276.28125 70.984375 C 276.28125 62.984375 282.765625 56.496094 290.769531 56.496094 C 298.769531 56.496094 305.257812 62.984375 305.257812 70.984375 Z M 202.542969 -63.417969 "/>
</clipPath>
<clipPath id="clip55">
  <path d="M 120 29.230469 L 212 29.230469 L 212 127.539062 L 120 127.539062 Z M 120 29.230469 "/>
</clipPath>
<clipPath id="clip56">
  <path d="M 39.621094 29.230469 L 292.980469 29.230469 L 292.980469 127.539062 L 39.621094 127.539062 Z M 39.621094 29.230469 L 185.261719 102.65625 C 185.261719 110.65625 178.773438 117.144531 170.773438 117.144531 C 162.769531 117.144531 156.285156 110.65625 156.285156 102.65625 C 156.285156 94.652344 162.769531 88.167969 170.773438 88.167969 C 178.773438 88.167969 185.261719 94.652344 185.261719 102.65625 Z M 39.621094 29.230469 "/>
</clipPath>
<clipPath id="clip57">
  <path d="M 39.621094 29.230469 L 292.980469 29.230469 L 292.980469 127.539062 L 39.621094 127.539062 Z M 39.621094 29.230469 L 176.316406 54.113281 C 176.316406 62.113281 169.828125 68.601562 161.828125 68.601562 C 153.824219 68.601562 147.339844 62.113281 147.339844 54.113281 C 147.339844 46.109375 153.824219 39.625 161.828125 39.625 C 169.828125 39.625 176.316406 46.109375 176.316406 54.113281 Z M 39.621094 29.230469 "/>
</clipPath>
<clipPath id="clip58">
  <path d="M 88 61 L 212 61 L 212 185 L 88 185 Z M 88 61 "/>
</clipPath>
<clipPath id="clip59">
  <path d="M 41.511719 13.25 L 258.726562 13.25 L 258.726562 232.675781 L 41.511719 232.675781 Z M 41.511719 13.25 L 185.261719 102.65625 C 185.261719 110.65625 178.773438 117.144531 170.773438 117.144531 C 162.769531 117.144531 156.285156 110.65625 156.285156 102.65625 C 156.285156 94.652344 162.769531 88.167969 170.773438 88.167969 C 178.773438 88.167969 185.261719 94.652344 185.261719 102.65625 Z M 41.511719 13.25 "/>
</clipPath>
<clipPath id="clip60">
  <path d="M 41.511719 13.25 L 258.726562 13.25 L 258.726562 232.675781 L 41.511719 232.675781 Z M 41.511719 13.25 L 143.953125 143.269531 C 143.953125 151.273438 137.464844 157.757812 129.464844 157.757812 C 121.460938 157.757812 114.976562 151.273438 114.976562 143.269531 C 114.976562 135.269531 121.460938 128.78125 129.464844 128.78125 C 137.464844 128.78125 143.953125 135.269531 143.953125 143.269531 Z M 41.511719 13.25 "/>
</clipPath>
<clipPath id="clip61">
  <path d="M 114 78.75 L 212 78.75 L 212 212.148438 L 114 212.148438 Z M 114 78.75 "/>
</clipPath>
<clipPath id="clip62">
  <path d="M 33.34375 78.75 L 293.15625 78.75 L 293.15625 212.148438 L 33.34375 212.148438 Z M 33.34375 78.75 L 185.261719 102.65625 C 185.261719 110.65625 178.773438 117.144531 170.773438 117.144531 C 162.769531 117.144531 156.285156 110.65625 156.285156 102.65625 C 156.285156 94.652344 162.769531 88.167969 170.773438 88.167969 C 178.773438 88.167969 185.261719 94.652344 185.261719 102.65625 Z M 33.34375 78.75 "/>
</clipPath>
<clipPath id="clip63">
  <path d="M 33.34375 78.75 L 293.15625 78.75 L 293.15625 212.148438 L 33.34375 212.148438 Z M 33.34375 78.75 L 170.214844 188.242188 C 170.214844 196.246094 163.726562 202.730469 155.726562 202.730469 C 147.722656 202.730469 141.238281 196.246094 141.238281 188.242188 C 141.238281 180.242188 147.722656 173.753906 155.726562 173.753906 C 163.726562 173.753906 170.214844 180.242188 170.214844 188.242188 Z M 33.34375 78.75 "/>
</clipPath>
<clipPath id="clip64">
  <path d="M 88 102 L 197 102 L 197 230 L 88 230 Z M 88 102 "/>
</clipPath>
<clipPath id="clip65">
  <path d="M 21.804688 79.195312 L 263.386719 79.195312 L 263.386719 252.316406 L 21.804688 252.316406 Z M 21.804688 79.195312 L 143.953125 143.269531 C 143.953125 151.273438 137.464844 157.757812 129.464844 157.757812 C 121.460938 157.757812 114.976562 151.273438 114.976562 143.269531 C 114.976562 135.269531 121.460938 128.78125 129.464844 128.78125 C 137.464844 128.78125 143.953125 135.269531 143.953125 143.269531 Z M 21.804688 79.195312 "/>
</clipPath>
<clipPath id="clip66">
  <path d="M 21.804688 79.195312 L 263.386719 79.195312 L 263.386719 252.316406 L 21.804688 252.316406 Z M 21.804688 79.195312 L 170.214844 188.242188 C 170.214844 196.246094 163.726562 202.730469 155.726562 202.730469 C 147.722656 202.730469 141.238281 196.246094 141.238281 188.242188 C 141.238281 180.242188 147.722656 173.753906 155.726562 173.753906 C 163.726562 173.753906 170.214844 180.242188 170.214844 188.242188 Z M 21.804688 79.195312 "/>
</clipPath>
<clipPath id="clip67">
  <path d="M 61 102 L 171 102 L 171 209 L 61 209 Z M 61 102 "/>
</clipPath>
<clipPath id="clip68">
  <path d="M 18.167969 50.03125 L 213.335938 50.03125 L 213.335938 261.089844 L 18.167969 261.089844 Z M 18.167969 50.03125 L 143.953125 143.269531 C 143.953125 151.273438 137.464844 157.757812 129.464844 157.757812 C 121.460938 157.757812 114.976562 151.273438 114.976562 143.269531 C 114.976562 135.269531 121.460938 128.78125 129.464844 128.78125 C 137.464844 128.78125 143.953125 135.269531 143.953125 143.269531 Z M 18.167969 50.03125 "/>
</clipPath>
<clipPath id="clip69">
  <path d="M 18.167969 50.03125 L 213.335938 50.03125 L 213.335938 261.089844 L 18.167969 261.089844 Z M 18.167969 50.03125 L 116.527344 167.851562 C 116.527344 175.855469 110.039062 182.339844 102.039062 182.339844 C 94.035156 182.339844 87.550781 175.855469 87.550781 167.851562 C 87.550781 159.851562 94.035156 153.363281 102.039062 153.363281 C 110.039062 153.363281 116.527344 159.851562 116.527344 167.851562 Z M 18.167969 50.03125 "/>
</clipPath>
<clipPath id="clip70">
  <path d="M 61 126 L 197 126 L 197 230 L 61 230 Z M 61 126 "/>
</clipPath>
<clipPath id="clip71">
  <path d="M 56.066406 51.539062 L 201.699219 51.539062 L 201.699219 304.554688 L 56.066406 304.554688 Z M 56.066406 51.539062 L 170.214844 188.242188 C 170.214844 196.246094 163.726562 202.730469 155.726562 202.730469 C 147.722656 202.730469 141.238281 196.246094 141.238281 188.242188 C 141.238281 180.242188 147.722656 173.753906 155.726562 173.753906 C 163.726562 173.753906 170.214844 180.242188 170.214844 188.242188 Z M 56.066406 51.539062 "/>
</clipPath>
<clipPath id="clip72">
  <path d="M 56.066406 51.539062 L 201.699219 51.539062 L 201.699219 304.554688 L 56.066406 304.554688 Z M 56.066406 51.539062 L 116.527344 167.851562 C 116.527344 175.855469 110.039062 182.339844 102.039062 182.339844 C 94.035156 182.339844 87.550781 175.855469 87.550781 167.851562 C 87.550781 159.851562 94.035156 153.363281 102.039062 153.363281 C 110.039062 153.363281 116.527344 159.851562 116.527344 167.851562 Z M 56.066406 51.539062 "/>
</clipPath>
<clipPath id="clip73">
  <path d="M 40 147 L 197 147 L 197 264 L 40 264 Z M 40 147 "/>
</clipPath>
<clipPath id="clip74">
  <path d="M 28.484375 75.046875 L 209.148438 75.046875 L 209.148438 335.253906 L 28.484375 335.253906 Z M 28.484375 75.046875 L 170.214844 188.242188 C 170.214844 196.246094 163.726562 202.730469 155.726562 202.730469 C 147.722656 202.730469 141.238281 196.246094 141.238281 188.242188 C 141.238281 180.242188 147.722656 173.753906 155.726562 173.753906 C 163.726562 173.753906 170.214844 180.242188 170.214844 188.242188 Z M 28.484375 75.046875 "/>
</clipPath>
<clipPath id="clip75">
  <path d="M 28.484375 75.046875 L 209.148438 75.046875 L 209.148438 335.253906 L 28.484375 335.253906 Z M 28.484375 75.046875 L 96.394531 222.058594 C 96.394531 230.058594 89.90625 236.546875 81.90625 236.546875 C 73.90625 236.546875 67.417969 230.058594 67.417969 222.058594 C 67.417969 214.054688 73.90625 207.570312 81.90625 207.570312 C 89.90625 207.570312 96.394531 214.054688 96.394531 222.058594 Z M 28.484375 75.046875 "/>
</clipPath>
<clipPath id="clip76">
  <path d="M 98 169.882812 L 197 169.882812 L 197 332.242188 L 98 332.242188 Z M 98 169.882812 "/>
</clipPath>
<clipPath id="clip77">
  <path d="M 16.355469 169.882812 L 278.953125 169.882812 L 278.953125 332.242188 L 16.355469 332.242188 Z M 16.355469 169.882812 L 170.214844 188.242188 C 170.214844 196.246094 163.726562 202.730469 155.726562 202.730469 C 147.722656 202.730469 141.238281 196.246094 141.238281 188.242188 C 141.238281 180.242188 147.722656 173.753906 155.726562 173.753906 C 163.726562 173.753906 170.214844 180.242188 170.214844 188.242188 Z M 16.355469 169.882812 "/>
</clipPath>
<clipPath id="clip78">
  <path d="M 16.355469 169.882812 L 278.953125 169.882812 L 278.953125 332.242188 L 16.355469 332.242188 Z M 16.355469 169.882812 L 154.070312 313.882812 C 154.070312 321.882812 147.582031 328.371094 139.582031 328.371094 C 131.582031 328.371094 125.09375 321.882812 125.09375 313.882812 C 125.09375 305.882812 131.582031 299.394531 139.582031 299.394531 C 147.582031 299.394531 154.070312 305.882812 154.070312 313.882812 Z M 16.355469 169.882812 "/>
</clipPath>
<clipPath id="clip79">
  <path d="M 346 210 L 459 210 L 459 332 L 346 332 Z M 346 210 "/>
</clipPath>
<clipPath id="clip80">
  <path d="M 287.476562 175.714844 L 517.640625 175.714844 L 517.640625 366.367188 L 287.476562 366.367188 Z M 287.476562 175.714844 L 402.171875 251.0625 C 402.171875 259.0625 395.683594 265.550781 387.683594 265.550781 C 379.679688 265.550781 373.195312 259.0625 373.195312 251.0625 C 373.195312 243.0625 379.679688 236.574219 387.683594 236.574219 C 395.683594 236.574219 402.171875 243.0625 402.171875 251.0625 Z M 287.476562 175.714844 "/>
</clipPath>
<clipPath id="clip81">
  <path d="M 287.476562 175.714844 L 517.640625 175.714844 L 517.640625 366.367188 L 287.476562 366.367188 Z M 287.476562 175.714844 L 431.921875 291.019531 C 431.921875 299.019531 425.4375 305.507812 417.433594 305.507812 C 409.433594 305.507812 402.945312 299.019531 402.945312 291.019531 C 402.945312 283.015625 409.433594 276.53125 417.433594 276.53125 C 425.4375 276.53125 431.921875 283.015625 431.921875 291.019531 Z M 287.476562 175.714844 "/>
</clipPath>
<clipPath id="clip82">
  <path d="M 0 334 L 105 334 L 105 443 L 0 443 Z M 0 334 "/>
</clipPath>
<clipPath id="clip83">
  <path d="M -49.132812 281.90625 L 147.40625 281.90625 L 147.40625 495.59375 L -49.132812 495.59375 Z M -49.132812 281.90625 L 48.757812 375.5625 C 48.757812 383.5625 42.269531 390.050781 34.269531 390.050781 C 26.269531 390.050781 19.78125 383.5625 19.78125 375.5625 C 19.78125 367.558594 26.269531 361.074219 34.269531 361.074219 C 42.269531 361.074219 48.757812 367.558594 48.757812 375.5625 Z M -49.132812 281.90625 "/>
</clipPath>
<clipPath id="clip84">
  <path d="M -49.132812 281.90625 L 147.40625 281.90625 L 147.40625 495.59375 L -49.132812 495.59375 Z M -49.132812 281.90625 L 78.492188 401.9375 C 78.492188 409.941406 72.003906 416.425781 64.003906 416.425781 C 56 416.425781 49.515625 409.941406 49.515625 401.9375 C 49.515625 393.9375 56 387.449219 64.003906 387.449219 C 72.003906 387.449219 78.492188 393.9375 78.492188 401.9375 Z M -49.132812 281.90625 "/>
</clipPath>
<clipPath id="clip85">
  <path d="M 83.996094 344 L 235.855469 344 L 235.855469 449 L 83.996094 449 Z M 83.996094 344 "/>
</clipPath>
<clipPath id="clip86">
  <path d="M 83.996094 265.089844 L 235.855469 265.089844 L 235.855469 527.457031 L 83.996094 527.457031 Z M 83.996094 265.089844 L 133.109375 407.464844 C 133.109375 415.464844 126.625 421.953125 118.621094 421.953125 C 110.621094 421.953125 104.132812 415.464844 104.132812 407.464844 C 104.132812 399.460938 110.621094 392.976562 118.621094 392.976562 C 126.625 392.976562 133.109375 399.460938 133.109375 407.464844 Z M 83.996094 265.089844 "/>
</clipPath>
<clipPath id="clip87">
  <path d="M 83.996094 265.089844 L 235.855469 265.089844 L 235.855469 527.457031 L 83.996094 527.457031 Z M 83.996094 265.089844 L 215.71875 385.082031 C 215.71875 393.082031 209.230469 399.570312 201.230469 399.570312 C 193.226562 399.570312 186.742188 393.082031 186.742188 385.082031 C 186.742188 377.078125 193.226562 370.59375 201.230469 370.59375 C 209.230469 370.59375 215.71875 377.078125 215.71875 385.082031 Z M 83.996094 265.089844 "/>
</clipPath>
<clipPath id="clip88">
  <path d="M 48.890625 360 L 133.734375 360 L 133.734375 449 L 48.890625 449 Z M 48.890625 360 "/>
</clipPath>
<clipPath id="clip89">
  <path d="M 48.890625 278.339844 L 133.734375 278.339844 L 133.734375 531.0625 L 48.890625 531.0625 Z M 48.890625 278.339844 L 133.109375 407.464844 C 133.109375 415.464844 126.625 421.953125 118.621094 421.953125 C 110.621094 421.953125 104.132812 415.464844 104.132812 407.464844 C 104.132812 399.460938 110.621094 392.976562 118.621094 392.976562 C 126.625 392.976562 133.109375 399.460938 133.109375 407.464844 Z M 48.890625 278.339844 "/>
</clipPath>
<clipPath id="clip90">
  <path d="M 48.890625 278.339844 L 133.734375 278.339844 L 133.734375 531.0625 L 48.890625 531.0625 Z M 48.890625 278.339844 L 78.492188 401.9375 C 78.492188 409.941406 72.003906 416.425781 64.003906 416.425781 C 56 416.425781 49.515625 409.941406 49.515625 401.9375 C 49.515625 393.9375 56 387.449219 64.003906 387.449219 C 72.003906 387.449219 78.492188 393.9375 78.492188 401.9375 Z M 48.890625 278.339844 "/>
</clipPath>
<clipPath id="clip91">
  <path d="M 240 298 L 342 298 L 342 436.023438 L 240 436.023438 Z M 240 298 "/>
</clipPath>
<clipPath id="clip92">
  <path d="M 162.429688 298 L 419.667969 298 L 419.667969 436.023438 L 162.429688 436.023438 Z M 162.429688 298 L 314.914062 398.746094 C 314.914062 406.75 308.429688 413.234375 300.425781 413.234375 C 292.425781 413.234375 285.9375 406.75 285.9375 398.746094 C 285.9375 390.746094 292.425781 384.257812 300.425781 384.257812 C 308.429688 384.257812 314.914062 390.746094 314.914062 398.746094 Z M 162.429688 298 "/>
</clipPath>
<clipPath id="clip93">
  <path d="M 162.429688 298 L 419.667969 298 L 419.667969 436.023438 L 162.429688 436.023438 Z M 162.429688 298 L 296.160156 335.277344 C 296.160156 343.28125 289.675781 349.765625 281.671875 349.765625 C 273.671875 349.765625 267.183594 343.28125 267.183594 335.277344 C 267.183594 327.277344 273.671875 320.789062 281.671875 320.789062 C 289.675781 320.789062 296.160156 327.277344 296.160156 335.277344 Z M 162.429688 298 "/>
</clipPath>
<clipPath id="clip94">
  <path d="M 160 294 L 323 294 L 323 427 L 160 427 Z M 160 294 "/>
</clipPath>
<clipPath id="clip95">
  <path d="M 134.46875 229.230469 L 348.433594 229.230469 L 348.433594 491.128906 L 134.46875 491.128906 Z M 134.46875 229.230469 L 215.71875 385.082031 C 215.71875 393.082031 209.230469 399.570312 201.230469 399.570312 C 193.226562 399.570312 186.742188 393.082031 186.742188 385.082031 C 186.742188 377.078125 193.226562 370.59375 201.230469 370.59375 C 209.230469 370.59375 215.71875 377.078125 215.71875 385.082031 Z M 134.46875 229.230469 "/>
</clipPath>
<clipPath id="clip96">
  <path d="M 134.46875 229.230469 L 348.433594 229.230469 L 348.433594 491.128906 L 134.46875 491.128906 Z M 134.46875 229.230469 L 296.160156 335.277344 C 296.160156 343.28125 289.675781 349.765625 281.671875 349.765625 C 273.671875 349.765625 267.183594 343.28125 267.183594 335.277344 C 267.183594 327.277344 273.671875 320.789062 281.671875 320.789062 C 289.675781 320.789062 296.160156 327.277344 296.160156 335.277344 Z M 134.46875 229.230469 "/>
</clipPath>
<clipPath id="clip97">
  <path d="M 312 487 L 430 487 L 430 593 L 312 593 Z M 312 487 "/>
</clipPath>
<clipPath id="clip98">
  <path d="M 284.507812 424.039062 L 457.433594 424.039062 L 457.433594 656.839844 L 284.507812 656.839844 Z M 284.507812 424.039062 L 403.328125 528.929688 C 403.328125 536.929688 396.84375 543.417969 388.839844 543.417969 C 380.839844 543.417969 374.351562 536.929688 374.351562 528.929688 C 374.351562 520.929688 380.839844 514.441406 388.839844 514.441406 C 396.84375 514.441406 403.328125 520.929688 403.328125 528.929688 Z M 284.507812 424.039062 "/>
</clipPath>
<clipPath id="clip99">
  <path d="M 284.507812 424.039062 L 457.433594 424.039062 L 457.433594 656.839844 L 284.507812 656.839844 Z M 284.507812 424.039062 L 367.589844 551.949219 C 367.589844 559.949219 361.101562 566.4375 353.101562 566.4375 C 345.097656 566.4375 338.613281 559.949219 338.613281 551.949219 C 338.613281 543.945312 345.097656 537.460938 353.101562 537.460938 C 361.101562 537.460938 367.589844 543.945312 367.589844 551.949219 Z M 284.507812 424.039062 "/>
</clipPath>
<clipPath id="clip100">
  <path d="M 347 444 L 477 444 L 477 570 L 347 570 Z M 347 444 "/>
</clipPath>
<clipPath id="clip101">
  <path d="M 302.453125 394.152344 L 521.464844 394.152344 L 521.464844 619.847656 L 302.453125 619.847656 Z M 302.453125 394.152344 L 403.328125 528.929688 C 403.328125 536.929688 396.84375 543.417969 388.839844 543.417969 C 380.839844 543.417969 374.351562 536.929688 374.351562 528.929688 C 374.351562 520.929688 380.839844 514.441406 388.839844 514.441406 C 396.84375 514.441406 403.328125 520.929688 403.328125 528.929688 Z M 302.453125 394.152344 "/>
</clipPath>
<clipPath id="clip102">
  <path d="M 302.453125 394.152344 L 521.464844 394.152344 L 521.464844 619.847656 L 302.453125 619.847656 Z M 302.453125 394.152344 L 449.566406 485.070312 C 449.566406 493.074219 443.082031 499.558594 435.078125 499.558594 C 427.078125 499.558594 420.589844 493.074219 420.589844 485.070312 C 420.589844 477.070312 427.078125 470.582031 435.078125 470.582031 C 443.082031 470.582031 449.566406 477.070312 449.566406 485.070312 Z M 302.453125 394.152344 "/>
</clipPath>
<clipPath id="clip103">
  <path d="M 147 472 L 258 472 L 258 588 L 147 588 Z M 147 472 "/>
</clipPath>
<clipPath id="clip104">
  <path d="M 93.148438 431.28125 L 311.855469 431.28125 L 311.855469 628.023438 L 93.148438 628.023438 Z M 93.148438 431.28125 L 231.222656 546.304688 C 231.222656 554.304688 224.738281 560.792969 216.734375 560.792969 C 208.734375 560.792969 202.246094 554.304688 202.246094 546.304688 C 202.246094 538.304688 208.734375 531.816406 216.734375 531.816406 C 224.738281 531.816406 231.222656 538.304688 231.222656 546.304688 Z M 93.148438 431.28125 "/>
</clipPath>
<clipPath id="clip105">
  <path d="M 93.148438 431.28125 L 311.855469 431.28125 L 311.855469 628.023438 L 93.148438 628.023438 Z M 93.148438 431.28125 L 202.757812 513 C 202.757812 521.003906 196.269531 527.488281 188.269531 527.488281 C 180.265625 527.488281 173.78125 521.003906 173.78125 513 C 173.78125 505 180.265625 498.511719 188.269531 498.511719 C 196.269531 498.511719 202.757812 505 202.757812 513 Z M 93.148438 431.28125 "/>
</clipPath>
<clipPath id="clip106">
  <path d="M 119 402 L 230 402 L 230 554 L 119 554 Z M 119 402 "/>
</clipPath>
<clipPath id="clip107">
  <path d="M 45.046875 395.796875 L 303.738281 395.796875 L 303.738281 561.128906 L 45.046875 561.128906 Z M 45.046875 395.796875 L 202.757812 513 C 202.757812 521.003906 196.269531 527.488281 188.269531 527.488281 C 180.265625 527.488281 173.78125 521.003906 173.78125 513 C 173.78125 505 180.265625 498.511719 188.269531 498.511719 C 196.269531 498.511719 202.757812 505 202.757812 513 Z M 45.046875 395.796875 "/>
</clipPath>
<clipPath id="clip108">
  <path d="M 45.046875 395.796875 L 303.738281 395.796875 L 303.738281 561.128906 L 45.046875 561.128906 Z M 45.046875 395.796875 L 175.007812 443.925781 C 175.007812 451.929688 168.519531 458.414062 160.515625 458.414062 C 152.515625 458.414062 146.027344 451.929688 146.027344 443.925781 C 146.027344 435.925781 152.515625 429.4375 160.515625 429.4375 C 168.519531 429.4375 175.007812 435.925781 175.007812 443.925781 Z M 45.046875 395.796875 "/>
</clipPath>
<clipPath id="clip109">
  <path d="M 98 291.703125 L 202 291.703125 L 202 466.105469 L 98 466.105469 Z M 98 291.703125 "/>
</clipPath>
<clipPath id="clip110">
  <path d="M 16.910156 291.703125 L 283.1875 291.703125 L 283.1875 466.105469 L 16.910156 466.105469 Z M 16.910156 291.703125 L 154.070312 313.882812 C 154.070312 321.882812 147.582031 328.371094 139.582031 328.371094 C 131.582031 328.371094 125.09375 321.882812 125.09375 313.882812 C 125.09375 305.882812 131.582031 299.394531 139.582031 299.394531 C 147.582031 299.394531 154.070312 305.882812 154.070312 313.882812 Z M 16.910156 291.703125 "/>
</clipPath>
<clipPath id="clip111">
  <path d="M 16.910156 291.703125 L 283.1875 291.703125 L 283.1875 466.105469 L 16.910156 466.105469 Z M 16.910156 291.703125 L 175.007812 443.925781 C 175.007812 451.929688 168.519531 458.414062 160.515625 458.414062 C 152.515625 458.414062 146.027344 451.929688 146.027344 443.925781 C 146.027344 435.925781 152.515625 429.4375 160.515625 429.4375 C 168.519531 429.4375 175.007812 435.925781 175.007812 443.925781 Z M 16.910156 291.703125 "/>
</clipPath>
</defs>
<g id="surface751">
<g clip-path="url(#clip1)" clip-rule="nonzero">
<g clip-path="url(#clip2)" clip-rule="evenodd">
<g clip-path="url(#clip3)" clip-rule="evenodd">
<path style="fill:none;stroke-width:0.0238852;stroke-linecap:butt;stroke-linejoin:miter;stroke:rgb(17.96875%,20.3125%,21.09375%);stroke-opacity:0.8;stroke-miterlimit:10;" d="M 4.33207 2.156863 L 3.10108 1.955202 " transform="matrix(121.31683,0,0,121.31683,-64.068611,-86.109121)"/>
</g>
</g>
</g>
<g clip-path="url(#clip4)" clip-rule="nonzero">
<g clip-path="url(#clip5)" clip-rule="evenodd">
<g clip-path="url(#clip6)" clip-rule="evenodd">
<path style="fill:none;stroke-width:0.0238852;stroke-linecap:butt;stroke-linejoin:miter;stroke:rgb(17.96875%,20.3125%,21.09375%);stroke-opacity:0.8;stroke-miterlimit:10;" d="M 4.33207 2.156863 L 4.850051 3.023814 " transform="matrix(121.31683,0,0,121.31683,-64.068611,-86.109121)"/>
</g>
</g>
</g>
<g clip-path="url(#clip7)" clip-rule="nonzero">
<g clip-path="url(#clip8)" clip-rule="evenodd">
<g clip-path="url(#clip9)" clip-rule="evenodd">
<path style="fill:none;stroke-width:0.0238852;stroke-linecap:butt;stroke-linejoin:miter;stroke:rgb(17.96875%,20.3125%,21.09375%);stroke-opacity:0.8;stroke-miterlimit:10;" d="M 4.33207 2.156863 L 4.682457 1.786288 " transform="matrix(121.31683,0,0,121.31683,-64.068611,-86.109121)"/>
</g>
</g>
</g>
<g clip-path="url(#clip10)" clip-rule="nonzero">
<g clip-path="url(#clip11)" clip-rule="evenodd">
<g clip-path="url(#clip12)" clip-rule="evenodd">
<path style="fill:none;stroke-width:0.0238852;stroke-linecap:butt;stroke-linejoin:miter;stroke:rgb(17.96875%,20.3125%,21.09375%);stroke-opacity:0.8;stroke-miterlimit:10;" d="M 3.356383 2.410911 L 3.775772 1.528666 " transform="matrix(121.31683,0,0,121.31683,-64.068611,-86.109121)"/>
</g>
</g>
</g>
<g clip-path="url(#clip13)" clip-rule="nonzero">
<g clip-path="url(#clip14)" clip-rule="evenodd">
<g clip-path="url(#clip15)" clip-rule="evenodd">
<path style="fill:none;stroke-width:0.0238852;stroke-linecap:butt;stroke-linejoin:miter;stroke:rgb(17.96875%,20.3125%,21.09375%);stroke-opacity:0.8;stroke-miterlimit:10;" d="M 3.356383 2.410911 L 3.10108 1.955202 " transform="matrix(121.31683,0,0,121.31683,-64.068611,-86.109121)"/>
</g>
</g>
</g>
<g clip-path="url(#clip16)" clip-rule="nonzero">
<g clip-path="url(#clip17)" clip-rule="evenodd">
<g clip-path="url(#clip18)" clip-rule="evenodd">
<path style="fill:none;stroke-width:0.0238852;stroke-linecap:butt;stroke-linejoin:miter;stroke:rgb(17.96875%,20.3125%,21.09375%);stroke-opacity:0.8;stroke-miterlimit:10;" d="M 3.356383 2.410911 L 3.723739 2.779265 " transform="matrix(121.31683,0,0,121.31683,-64.068611,-86.109121)"/>
</g>
</g>
</g>
<g clip-path="url(#clip19)" clip-rule="nonzero">
<g clip-path="url(#clip20)" clip-rule="evenodd">
<g clip-path="url(#clip21)" clip-rule="evenodd">
<path style="fill:none;stroke-width:0.0238852;stroke-linecap:butt;stroke-linejoin:miter;stroke:rgb(17.96875%,20.3125%,21.09375%);stroke-opacity:0.8;stroke-miterlimit:10;" d="M 3.356383 2.410911 L 2.849897 3.473438 " transform="matrix(121.31683,0,0,121.31683,-64.068611,-86.109121)"/>
</g>
</g>
</g>
<g clip-path="url(#clip22)" clip-rule="nonzero">
<g clip-path="url(#clip23)" clip-rule="evenodd">
<g clip-path="url(#clip24)" clip-rule="evenodd">
<path style="fill:none;stroke-width:0.0238852;stroke-linecap:butt;stroke-linejoin:miter;stroke:rgb(17.96875%,20.3125%,21.09375%);stroke-opacity:0.8;stroke-miterlimit:10;" d="M 3.96069 1.105864 L 3.775772 1.528666 " transform="matrix(121.31683,0,0,121.31683,-64.068611,-86.109121)"/>
</g>
</g>
</g>
<g clip-path="url(#clip25)" clip-rule="nonzero">
<g clip-path="url(#clip26)" clip-rule="evenodd">
<g clip-path="url(#clip27)" clip-rule="evenodd">
<path style="fill:none;stroke-width:0.0238852;stroke-linecap:butt;stroke-linejoin:miter;stroke:rgb(17.96875%,20.3125%,21.09375%);stroke-opacity:0.8;stroke-miterlimit:10;" d="M 3.10108 1.955202 L 1.811745 2.261445 " transform="matrix(121.31683,0,0,121.31683,-64.068611,-86.109121)"/>
</g>
</g>
</g>
<g clip-path="url(#clip28)" clip-rule="nonzero">
<g clip-path="url(#clip29)" clip-rule="evenodd">
<g clip-path="url(#clip30)" clip-rule="evenodd">
<path style="fill:none;stroke-width:0.0238852;stroke-linecap:butt;stroke-linejoin:miter;stroke:rgb(17.96875%,20.3125%,21.09375%);stroke-opacity:0.8;stroke-miterlimit:10;" d="M 3.10108 1.955202 L 2.924888 1.294903 " transform="matrix(121.31683,0,0,121.31683,-64.068611,-86.109121)"/>
</g>
</g>
</g>
<g clip-path="url(#clip31)" clip-rule="nonzero">
<g clip-path="url(#clip32)" clip-rule="evenodd">
<g clip-path="url(#clip33)" clip-rule="evenodd">
<path style="fill:none;stroke-width:0.0238852;stroke-linecap:butt;stroke-linejoin:miter;stroke:rgb(17.96875%,20.3125%,21.09375%);stroke-opacity:0.8;stroke-miterlimit:10;" d="M 4.60972 4.084602 L 4.850051 3.023814 " transform="matrix(121.31683,0,0,121.31683,-64.068611,-86.109121)"/>
</g>
</g>
</g>
<g clip-path="url(#clip34)" clip-rule="nonzero">
<g clip-path="url(#clip35)" clip-rule="evenodd">
<g clip-path="url(#clip36)" clip-rule="evenodd">
<path style="fill:none;stroke-width:0.0238852;stroke-linecap:butt;stroke-linejoin:miter;stroke:rgb(17.96875%,20.3125%,21.09375%);stroke-opacity:0.8;stroke-miterlimit:10;" d="M 4.60972 4.084602 L 4.60196 4.469345 " transform="matrix(121.31683,0,0,121.31683,-64.068611,-86.109121)"/>
</g>
</g>
</g>
<g clip-path="url(#clip37)" clip-rule="nonzero">
<g clip-path="url(#clip38)" clip-rule="evenodd">
<g clip-path="url(#clip39)" clip-rule="evenodd">
<path style="fill:none;stroke-width:0.0238852;stroke-linecap:butt;stroke-linejoin:miter;stroke:rgb(17.96875%,20.3125%,21.09375%);stroke-opacity:0.8;stroke-miterlimit:10;" d="M 4.60972 4.084602 L 4.934058 4.136378 " transform="matrix(121.31683,0,0,121.31683,-64.068611,-86.109121)"/>
</g>
</g>
</g>
<g clip-path="url(#clip40)" clip-rule="nonzero">
<g clip-path="url(#clip41)" clip-rule="evenodd">
<g clip-path="url(#clip42)" clip-rule="evenodd">
<path style="fill:none;stroke-width:0.0238852;stroke-linecap:butt;stroke-linejoin:miter;stroke:rgb(17.96875%,20.3125%,21.09375%);stroke-opacity:0.8;stroke-miterlimit:10;" d="M 4.60972 4.084602 L 4.114406 4.708163 " transform="matrix(121.31683,0,0,121.31683,-64.068611,-86.109121)"/>
</g>
</g>
</g>
<g clip-path="url(#clip43)" clip-rule="nonzero">
<g clip-path="url(#clip44)" clip-rule="evenodd">
<g clip-path="url(#clip45)" clip-rule="evenodd">
<path style="fill:none;stroke-width:0.0238852;stroke-linecap:butt;stroke-linejoin:miter;stroke:rgb(17.96875%,20.3125%,21.09375%);stroke-opacity:0.8;stroke-miterlimit:10;" d="M 4.850051 3.023814 L 5.191358 3.166938 " transform="matrix(121.31683,0,0,121.31683,-64.068611,-86.109121)"/>
</g>
</g>
</g>
<g clip-path="url(#clip46)" clip-rule="nonzero">
<g clip-path="url(#clip47)" clip-rule="evenodd">
<g clip-path="url(#clip48)" clip-rule="evenodd">
<path style="fill:none;stroke-width:0.0238852;stroke-linecap:butt;stroke-linejoin:miter;stroke:rgb(17.96875%,20.3125%,21.09375%);stroke-opacity:0.8;stroke-miterlimit:10;" d="M 4.850051 3.023814 L 5.144541 2.678097 " transform="matrix(121.31683,0,0,121.31683,-64.068611,-86.109121)"/>
</g>
</g>
</g>
<g clip-path="url(#clip49)" clip-rule="nonzero">
<g clip-path="url(#clip50)" clip-rule="evenodd">
<g clip-path="url(#clip51)" clip-rule="evenodd">
<path style="fill:none;stroke-width:0.0238852;stroke-linecap:butt;stroke-linejoin:miter;stroke:rgb(17.96875%,20.3125%,21.09375%);stroke-opacity:0.8;stroke-miterlimit:10;" d="M 2.496323 1.172419 L 1.935775 1.55597 " transform="matrix(121.31683,0,0,121.31683,-64.068611,-86.109121)"/>
</g>
</g>
</g>
<g clip-path="url(#clip52)" clip-rule="nonzero">
<g clip-path="url(#clip53)" clip-rule="evenodd">
<g clip-path="url(#clip54)" clip-rule="evenodd">
<path style="fill:none;stroke-width:0.0238852;stroke-linecap:butt;stroke-linejoin:miter;stroke:rgb(17.96875%,20.3125%,21.09375%);stroke-opacity:0.8;stroke-miterlimit:10;" d="M 2.496323 1.172419 L 2.924888 1.294903 " transform="matrix(121.31683,0,0,121.31683,-64.068611,-86.109121)"/>
</g>
</g>
</g>
<g clip-path="url(#clip55)" clip-rule="nonzero">
<g clip-path="url(#clip56)" clip-rule="evenodd">
<g clip-path="url(#clip57)" clip-rule="evenodd">
<path style="fill:none;stroke-width:0.0238852;stroke-linecap:butt;stroke-linejoin:miter;stroke:rgb(17.96875%,20.3125%,21.09375%);stroke-opacity:0.8;stroke-miterlimit:10;" d="M 1.935775 1.55597 L 1.86204 1.155836 " transform="matrix(121.31683,0,0,121.31683,-64.068611,-86.109121)"/>
</g>
</g>
</g>
<g clip-path="url(#clip58)" clip-rule="nonzero">
<g clip-path="url(#clip59)" clip-rule="evenodd">
<g clip-path="url(#clip60)" clip-rule="evenodd">
<path style="fill:none;stroke-width:0.0238852;stroke-linecap:butt;stroke-linejoin:miter;stroke:rgb(17.96875%,20.3125%,21.09375%);stroke-opacity:0.8;stroke-miterlimit:10;" d="M 1.935775 1.55597 L 1.595273 1.890741 " transform="matrix(121.31683,0,0,121.31683,-64.068611,-86.109121)"/>
</g>
</g>
</g>
<g clip-path="url(#clip61)" clip-rule="nonzero">
<g clip-path="url(#clip62)" clip-rule="evenodd">
<g clip-path="url(#clip63)" clip-rule="evenodd">
<path style="fill:none;stroke-width:0.0238852;stroke-linecap:butt;stroke-linejoin:miter;stroke:rgb(17.96875%,20.3125%,21.09375%);stroke-opacity:0.8;stroke-miterlimit:10;" d="M 1.935775 1.55597 L 1.811745 2.261445 " transform="matrix(121.31683,0,0,121.31683,-64.068611,-86.109121)"/>
</g>
</g>
</g>
<g clip-path="url(#clip64)" clip-rule="nonzero">
<g clip-path="url(#clip65)" clip-rule="evenodd">
<g clip-path="url(#clip66)" clip-rule="evenodd">
<path style="fill:none;stroke-width:0.0238852;stroke-linecap:butt;stroke-linejoin:miter;stroke:rgb(17.96875%,20.3125%,21.09375%);stroke-opacity:0.8;stroke-miterlimit:10;" d="M 1.595273 1.890741 L 1.811745 2.261445 " transform="matrix(121.31683,0,0,121.31683,-64.068611,-86.109121)"/>
</g>
</g>
</g>
<g clip-path="url(#clip67)" clip-rule="nonzero">
<g clip-path="url(#clip68)" clip-rule="evenodd">
<g clip-path="url(#clip69)" clip-rule="evenodd">
<path style="fill:none;stroke-width:0.0238852;stroke-linecap:butt;stroke-linejoin:miter;stroke:rgb(17.96875%,20.3125%,21.09375%);stroke-opacity:0.8;stroke-miterlimit:10;" d="M 1.595273 1.890741 L 1.369206 2.093367 " transform="matrix(121.31683,0,0,121.31683,-64.068611,-86.109121)"/>
</g>
</g>
</g>
<g clip-path="url(#clip70)" clip-rule="nonzero">
<g clip-path="url(#clip71)" clip-rule="evenodd">
<g clip-path="url(#clip72)" clip-rule="evenodd">
<path style="fill:none;stroke-width:0.0238852;stroke-linecap:butt;stroke-linejoin:miter;stroke:rgb(17.96875%,20.3125%,21.09375%);stroke-opacity:0.8;stroke-miterlimit:10;" d="M 1.811745 2.261445 L 1.369206 2.093367 " transform="matrix(121.31683,0,0,121.31683,-64.068611,-86.109121)"/>
</g>
</g>
</g>
<g clip-path="url(#clip73)" clip-rule="nonzero">
<g clip-path="url(#clip74)" clip-rule="evenodd">
<g clip-path="url(#clip75)" clip-rule="evenodd">
<path style="fill:none;stroke-width:0.0238852;stroke-linecap:butt;stroke-linejoin:miter;stroke:rgb(17.96875%,20.3125%,21.09375%);stroke-opacity:0.8;stroke-miterlimit:10;" d="M 1.811745 2.261445 L 1.203253 2.540189 " transform="matrix(121.31683,0,0,121.31683,-64.068611,-86.109121)"/>
</g>
</g>
</g>
<g clip-path="url(#clip76)" clip-rule="nonzero">
<g clip-path="url(#clip77)" clip-rule="evenodd">
<g clip-path="url(#clip78)" clip-rule="evenodd">
<path style="fill:none;stroke-width:0.0238852;stroke-linecap:butt;stroke-linejoin:miter;stroke:rgb(17.96875%,20.3125%,21.09375%);stroke-opacity:0.8;stroke-miterlimit:10;" d="M 1.811745 2.261445 L 1.678668 3.297085 " transform="matrix(121.31683,0,0,121.31683,-64.068611,-86.109121)"/>
</g>
</g>
</g>
<g clip-path="url(#clip79)" clip-rule="nonzero">
<g clip-path="url(#clip80)" clip-rule="evenodd">
<g clip-path="url(#clip81)" clip-rule="evenodd">
<path style="fill:none;stroke-width:0.0238852;stroke-linecap:butt;stroke-linejoin:miter;stroke:rgb(17.96875%,20.3125%,21.09375%);stroke-opacity:0.8;stroke-miterlimit:10;" d="M 3.723739 2.779265 L 3.968965 3.108626 " transform="matrix(121.31683,0,0,121.31683,-64.068611,-86.109121)"/>
</g>
</g>
</g>
<g clip-path="url(#clip82)" clip-rule="nonzero">
<g clip-path="url(#clip83)" clip-rule="evenodd">
<g clip-path="url(#clip84)" clip-rule="evenodd">
<path style="fill:none;stroke-width:0.0238852;stroke-linecap:butt;stroke-linejoin:miter;stroke:rgb(17.96875%,20.3125%,21.09375%);stroke-opacity:0.8;stroke-miterlimit:10;" d="M 0.810589 3.805503 L 1.055686 4.022909 " transform="matrix(121.31683,0,0,121.31683,-64.068611,-86.109121)"/>
</g>
</g>
</g>
<g clip-path="url(#clip85)" clip-rule="nonzero">
<g clip-path="url(#clip86)" clip-rule="evenodd">
<g clip-path="url(#clip87)" clip-rule="evenodd">
<path style="fill:none;stroke-width:0.0238852;stroke-linecap:butt;stroke-linejoin:miter;stroke:rgb(17.96875%,20.3125%,21.09375%);stroke-opacity:0.8;stroke-miterlimit:10;" d="M 1.505889 4.068471 L 2.186828 3.883972 " transform="matrix(121.31683,0,0,121.31683,-64.068611,-86.109121)"/>
</g>
</g>
</g>
<g clip-path="url(#clip88)" clip-rule="nonzero">
<g clip-path="url(#clip89)" clip-rule="evenodd">
<g clip-path="url(#clip90)" clip-rule="evenodd">
<path style="fill:none;stroke-width:0.0238852;stroke-linecap:butt;stroke-linejoin:miter;stroke:rgb(17.96875%,20.3125%,21.09375%);stroke-opacity:0.8;stroke-miterlimit:10;" d="M 1.505889 4.068471 L 1.055686 4.022909 " transform="matrix(121.31683,0,0,121.31683,-64.068611,-86.109121)"/>
</g>
</g>
</g>
<g clip-path="url(#clip91)" clip-rule="nonzero">
<g clip-path="url(#clip92)" clip-rule="evenodd">
<g clip-path="url(#clip93)" clip-rule="evenodd">
<path style="fill:none;stroke-width:0.0238852;stroke-linecap:butt;stroke-linejoin:miter;stroke:rgb(17.96875%,20.3125%,21.09375%);stroke-opacity:0.8;stroke-miterlimit:10;" d="M 3.004483 3.996603 L 2.849897 3.473438 " transform="matrix(121.31683,0,0,121.31683,-64.068611,-86.109121)"/>
</g>
</g>
</g>
<g clip-path="url(#clip94)" clip-rule="nonzero">
<g clip-path="url(#clip95)" clip-rule="evenodd">
<g clip-path="url(#clip96)" clip-rule="evenodd">
<path style="fill:none;stroke-width:0.0238852;stroke-linecap:butt;stroke-linejoin:miter;stroke:rgb(17.96875%,20.3125%,21.09375%);stroke-opacity:0.8;stroke-miterlimit:10;" d="M 2.186828 3.883972 L 2.849897 3.473438 " transform="matrix(121.31683,0,0,121.31683,-64.068611,-86.109121)"/>
</g>
</g>
</g>
<g clip-path="url(#clip97)" clip-rule="nonzero">
<g clip-path="url(#clip98)" clip-rule="evenodd">
<g clip-path="url(#clip99)" clip-rule="evenodd">
<path style="fill:none;stroke-width:0.0238852;stroke-linecap:butt;stroke-linejoin:miter;stroke:rgb(17.96875%,20.3125%,21.09375%);stroke-opacity:0.8;stroke-miterlimit:10;" d="M 3.73327 5.069691 L 3.438683 5.259438 " transform="matrix(121.31683,0,0,121.31683,-64.068611,-86.109121)"/>
</g>
</g>
</g>
<g clip-path="url(#clip100)" clip-rule="nonzero">
<g clip-path="url(#clip101)" clip-rule="evenodd">
<g clip-path="url(#clip102)" clip-rule="evenodd">
<path style="fill:none;stroke-width:0.0238852;stroke-linecap:butt;stroke-linejoin:miter;stroke:rgb(17.96875%,20.3125%,21.09375%);stroke-opacity:0.8;stroke-miterlimit:10;" d="M 3.73327 5.069691 L 4.114406 4.708163 " transform="matrix(121.31683,0,0,121.31683,-64.068611,-86.109121)"/>
</g>
</g>
</g>
<g clip-path="url(#clip103)" clip-rule="nonzero">
<g clip-path="url(#clip104)" clip-rule="evenodd">
<g clip-path="url(#clip105)" clip-rule="evenodd">
<path style="fill:none;stroke-width:0.0238852;stroke-linecap:butt;stroke-linejoin:miter;stroke:rgb(17.96875%,20.3125%,21.09375%);stroke-opacity:0.8;stroke-miterlimit:10;" d="M 2.314625 5.212911 L 2.079993 4.938384 " transform="matrix(121.31683,0,0,121.31683,-64.068611,-86.109121)"/>
</g>
</g>
</g>
<g clip-path="url(#clip106)" clip-rule="nonzero">
<g clip-path="url(#clip107)" clip-rule="evenodd">
<g clip-path="url(#clip108)" clip-rule="evenodd">
<path style="fill:none;stroke-width:0.0238852;stroke-linecap:butt;stroke-linejoin:miter;stroke:rgb(17.96875%,20.3125%,21.09375%);stroke-opacity:0.8;stroke-miterlimit:10;" d="M 2.079993 4.938384 L 1.851221 4.369014 " transform="matrix(121.31683,0,0,121.31683,-64.068611,-86.109121)"/>
</g>
</g>
</g>
<g clip-path="url(#clip109)" clip-rule="nonzero">
<g clip-path="url(#clip110)" clip-rule="evenodd">
<g clip-path="url(#clip111)" clip-rule="evenodd">
<path style="fill:none;stroke-width:0.0238852;stroke-linecap:butt;stroke-linejoin:miter;stroke:rgb(17.96875%,20.3125%,21.09375%);stroke-opacity:0.8;stroke-miterlimit:10;" d="M 1.678668 3.297085 L 1.851221 4.369014 " transform="matrix(121.31683,0,0,121.31683,-64.068611,-86.109121)"/>
</g>
</g>
</g>
<path style="fill-rule:nonzero;fill:rgb(55.294118%,82.745098%,78.039216%);fill-opacity:1;stroke-width:0.0238852;stroke-linecap:butt;stroke-linejoin:miter;stroke:rgb(60%,60%,60%);stroke-opacity:0.8;stroke-miterlimit:10;" d="M 0.11942 -0.0000147729 C 0.11942 0.0659605 0.0659699 0.11941 -0.00000536218 0.11941 C -0.0659484 0.11941 -0.119431 0.0659605 -0.119431 -0.0000147729 C -0.119431 -0.0659578 -0.0659484 -0.11944 -0.00000536218 -0.11944 C 0.0659699 -0.11944 0.11942 -0.0659578 0.11942 -0.0000147729 Z M 0.11942 -0.0000147729 " transform="matrix(121.31683,0,0,121.31683,461.485026,175.55648)"/>
<path style="fill-rule:nonzero;fill:rgb(55.294118%,82.745098%,78.039216%);fill-opacity:1;stroke-width:0.0238852;stroke-linecap:butt;stroke-linejoin:miter;stroke:rgb(60%,60%,60%);stroke-opacity:0.8;stroke-miterlimit:10;" d="M 0.119437 -0.000000676856 C 0.119437 0.0659424 0.0659552 0.119424 0.0000121467 0.119424 C -0.0659631 0.119424 -0.119413 0.0659424 -0.119413 -0.000000676856 C -0.119413 -0.0659437 -0.0659631 -0.119426 0.0000121467 -0.119426 C 0.0659552 -0.119426 0.119437 -0.0659437 0.119437 -0.000000676856 Z M 0.119437 -0.000000676856 " transform="matrix(121.31683,0,0,121.31683,343.115714,206.375082)"/>
<path style="fill-rule:nonzero;fill:rgb(55.294118%,82.745098%,78.039216%);fill-opacity:1;stroke-width:0.0238852;stroke-linecap:butt;stroke-linejoin:miter;stroke:rgb(60%,60%,60%);stroke-opacity:0.8;stroke-miterlimit:10;" d="M 0.119437 -0.00000287398 C 0.119437 0.0659724 0.0659552 0.119422 0.000012141 0.119422 C -0.0659631 0.119422 -0.119413 0.0659724 -0.119413 -0.00000287398 C -0.119413 -0.0659459 -0.0659631 -0.119428 0.000012141 -0.119428 C 0.0659552 -0.119428 0.119437 -0.0659459 0.119437 -0.00000287398 Z M 0.119437 -0.00000287398 " transform="matrix(121.31683,0,0,121.31683,416.428215,48.05113)"/>
<path style="fill-rule:nonzero;fill:rgb(55.294118%,82.745098%,78.039216%);fill-opacity:1;stroke-width:0.0238852;stroke-linecap:butt;stroke-linejoin:miter;stroke:rgb(60%,60%,60%);stroke-opacity:0.8;stroke-miterlimit:10;" d="M 0.119437 -0.0000145815 C 0.119437 0.0659607 0.0659553 0.119411 0.000012251 0.119411 C -0.065963 0.119411 -0.119413 0.0659607 -0.119413 -0.0000145815 C -0.119413 -0.0659576 -0.065963 -0.11944 0.000012251 -0.11944 C 0.0659553 -0.11944 0.119437 -0.0659576 0.119437 -0.0000145815 Z M 0.119437 -0.0000145815 " transform="matrix(121.31683,0,0,121.31683,393.994607,99.345519)"/>
<path style="fill-rule:nonzero;fill:rgb(55.294118%,82.745098%,78.039216%);fill-opacity:1;stroke-width:0.0238852;stroke-linecap:butt;stroke-linejoin:miter;stroke:rgb(60%,60%,60%);stroke-opacity:0.8;stroke-miterlimit:10;" d="M 0.119411 -0.0000139966 C 0.119411 0.0659612 0.0659608 0.119411 -0.0000144166 0.119411 C -0.0659575 0.119411 -0.11944 0.0659612 -0.11944 -0.0000139966 C -0.11944 -0.065957 -0.0659575 -0.119439 -0.0000144166 -0.119439 C 0.0659608 -0.119439 0.119411 -0.065957 0.119411 -0.0000139966 Z M 0.119411 -0.0000139966 " transform="matrix(121.31683,0,0,121.31683,312.14628,151.091542)"/>
<path style="fill-rule:nonzero;fill:rgb(55.294118%,82.745098%,78.039216%);fill-opacity:1;stroke-width:0.0238852;stroke-linecap:butt;stroke-linejoin:miter;stroke:rgb(60%,60%,60%);stroke-opacity:0.8;stroke-miterlimit:10;" d="M 0.119435 -0.00000139164 C 0.119435 0.0659416 0.0659525 0.119424 0.00000946506 0.119424 C -0.0659658 0.119424 -0.119416 0.0659416 -0.119416 -0.00000139164 C -0.119416 -0.0659444 -0.0659658 -0.119427 0.00000946506 -0.119427 C 0.0659525 -0.119427 0.119435 -0.0659444 0.119435 -0.00000139164 Z M 0.119435 -0.00000139164 " transform="matrix(121.31683,0,0,121.31683,495.16682,409.422044)"/>
<path style="fill-rule:nonzero;fill:rgb(55.294118%,82.745098%,78.039216%);fill-opacity:1;stroke-width:0.0238852;stroke-linecap:butt;stroke-linejoin:miter;stroke:rgb(60%,60%,60%);stroke-opacity:0.8;stroke-miterlimit:10;" d="M 0.119422 0.0000138491 C 0.119422 0.0659569 0.0659725 0.119439 -0.00000270911 0.119439 C -0.0659457 0.119439 -0.119428 0.0659569 -0.119428 0.0000138491 C -0.119428 -0.0659614 -0.0659457 -0.119411 -0.00000270911 -0.119411 C 0.0659725 -0.119411 0.119422 -0.0659614 0.119422 0.0000138491 Z M 0.119422 0.0000138491 " transform="matrix(121.31683,0,0,121.31683,524.324547,280.728789)"/>
<path style="fill-rule:nonzero;fill:rgb(55.294118%,82.745098%,78.039216%);fill-opacity:1;stroke-width:0.0238852;stroke-linecap:butt;stroke-linejoin:miter;stroke:rgb(60%,60%,60%);stroke-opacity:0.8;stroke-miterlimit:10;" d="M 0.119417 0.00000751362 C 0.119417 0.0659505 0.0659672 0.119433 -0.0000080496 0.119433 C -0.0659511 0.119433 -0.119433 0.0659505 -0.119433 0.00000751362 C -0.119433 -0.0659677 -0.0659511 -0.119418 -0.0000080496 -0.119418 C 0.0659672 -0.119418 0.119417 -0.0659677 0.119417 0.00000751362 Z M 0.119417 0.00000751362 " transform="matrix(121.31683,0,0,121.31683,494.227539,456.096745)"/>
<path style="fill-rule:nonzero;fill:rgb(55.294118%,82.745098%,78.039216%);fill-opacity:1;stroke-width:0.0238852;stroke-linecap:butt;stroke-linejoin:miter;stroke:rgb(60%,60%,60%);stroke-opacity:0.8;stroke-miterlimit:10;" d="M 0.119426 -0.0000127833 C 0.119426 0.0659625 0.0659436 0.119412 0.000000554139 0.119412 C -0.0659425 0.119412 -0.119425 0.0659625 -0.119425 -0.0000127833 C -0.119425 -0.0659558 -0.0659425 -0.119438 0.000000554139 -0.119438 C 0.0659436 -0.119438 0.119426 -0.0659558 0.119426 -0.0000127833 Z M 0.119426 -0.0000127833 " transform="matrix(121.31683,0,0,121.31683,534.515558,415.704676)"/>
<path style="fill-rule:nonzero;fill:rgb(55.294118%,82.745098%,78.039216%);fill-opacity:1;stroke-width:0.0238852;stroke-linecap:butt;stroke-linejoin:miter;stroke:rgb(60%,60%,60%);stroke-opacity:0.8;stroke-miterlimit:10;" d="M 0.119425 -0.0000047337 C 0.119425 0.0659705 0.0659429 0.11942 -0.000000117397 0.11942 C -0.0659432 0.11942 -0.119425 0.0659705 -0.119425 -0.0000047337 C -0.119425 -0.0659478 -0.0659432 -0.11943 -0.000000117397 -0.11943 C 0.0659429 -0.11943 0.119425 -0.0659478 0.119425 -0.0000047337 Z M 0.119425 -0.0000047337 " transform="matrix(121.31683,0,0,121.31683,565.730483,298.094324)"/>
<path style="fill-rule:nonzero;fill:rgb(55.294118%,82.745098%,78.039216%);fill-opacity:1;stroke-width:0.0238852;stroke-linecap:butt;stroke-linejoin:miter;stroke:rgb(60%,60%,60%);stroke-opacity:0.8;stroke-miterlimit:10;" d="M 0.119416 -0.00000374846 C 0.119416 0.0659715 0.0659662 0.119421 -0.00000899648 0.119421 C -0.065952 0.119421 -0.119434 0.0659715 -0.119434 -0.00000374846 C -0.119434 -0.0659468 -0.065952 -0.119429 -0.00000899648 -0.119429 C 0.0659662 -0.119429 0.119416 -0.0659468 0.119416 -0.00000374846 Z M 0.119416 -0.00000374846 " transform="matrix(121.31683,0,0,121.31683,560.051873,238.789517)"/>
<path style="fill-rule:nonzero;fill:rgb(55.294118%,82.745098%,78.039216%);fill-opacity:1;stroke-width:0.0238852;stroke-linecap:butt;stroke-linejoin:miter;stroke:rgb(60%,60%,60%);stroke-opacity:0.8;stroke-miterlimit:10;" d="M 0.11942 0.00000159079 C 0.11942 0.0659446 0.0659703 0.119427 -0.00000491306 0.119427 C -0.0659479 0.119427 -0.11943 0.0659446 -0.11943 0.00000159079 C -0.11943 -0.0659414 -0.0659479 -0.119424 -0.00000491306 -0.119424 C 0.0659703 -0.119424 0.11942 -0.0659414 0.11942 0.00000159079 Z M 0.11942 0.00000159079 " transform="matrix(121.31683,0,0,121.31683,238.77794,56.124807)"/>
<path style="fill-rule:nonzero;fill:rgb(55.294118%,82.745098%,78.039216%);fill-opacity:1;stroke-width:0.0238852;stroke-linecap:butt;stroke-linejoin:miter;stroke:rgb(60%,60%,60%);stroke-opacity:0.8;stroke-miterlimit:10;" d="M 0.119432 0.00000260331 C 0.119432 0.0659456 0.0659501 0.119428 0.00000711125 0.119428 C -0.0659681 0.119428 -0.119418 0.0659456 -0.119418 0.00000260331 C -0.119418 -0.0659726 -0.0659681 -0.119423 0.00000711125 -0.119423 C 0.0659501 -0.119423 0.119432 -0.0659726 0.119432 0.00000260331 Z M 0.119432 0.00000260331 " transform="matrix(121.31683,0,0,121.31683,170.772575,102.655934)"/>
<path style="fill-rule:nonzero;fill:rgb(55.294118%,82.745098%,78.039216%);fill-opacity:1;stroke-width:0.0238852;stroke-linecap:butt;stroke-linejoin:miter;stroke:rgb(60%,60%,60%);stroke-opacity:0.8;stroke-miterlimit:10;" d="M 0.11944 0.0000125095 C 0.11944 0.0659555 0.0659574 0.119438 0.0000143989 0.119438 C -0.0659608 0.119438 -0.119411 0.0659555 -0.119411 0.0000125095 C -0.119411 -0.0659627 -0.0659608 -0.119413 0.0000143989 -0.119413 C 0.0659574 -0.119413 0.11944 -0.0659627 0.11944 0.0000125095 Z M 0.11944 0.0000125095 " transform="matrix(121.31683,0,0,121.31683,161.826378,54.111764)"/>
<path style="fill-rule:nonzero;fill:rgb(100%,92.941176%,43.529412%);fill-opacity:1;stroke-width:0.0238852;stroke-linecap:butt;stroke-linejoin:miter;stroke:rgb(60%,60%,60%);stroke-opacity:0.8;stroke-miterlimit:10;" d="M 0.119437 -0.0000151959 C 0.119437 0.06596 0.0659553 0.11941 0.0000122149 0.11941 C -0.065963 0.11941 -0.119413 0.06596 -0.119413 -0.0000151959 C -0.119413 -0.0659582 -0.065963 -0.11944 0.0000122149 -0.11944 C 0.0659553 -0.11944 0.119437 -0.0659582 0.119437 -0.0000151959 Z M 0.119437 -0.0000151959 " transform="matrix(121.31683,0,0,121.31683,129.463362,143.271375)"/>
<path style="fill-rule:nonzero;fill:rgb(55.294118%,82.745098%,78.039216%);fill-opacity:1;stroke-width:0.0238852;stroke-linecap:butt;stroke-linejoin:miter;stroke:rgb(60%,60%,60%);stroke-opacity:0.8;stroke-miterlimit:10;" d="M 0.119437 -0.0000142193 C 0.119437 0.065961 0.0659546 0.119411 0.0000115683 0.119411 C -0.0659637 0.119411 -0.119414 0.065961 -0.119414 -0.0000142193 C -0.119414 -0.0659573 -0.0659637 -0.119439 0.0000115683 -0.119439 C 0.0659546 -0.119439 0.119437 -0.0659573 0.119437 -0.0000142193 Z M 0.119437 -0.0000142193 " transform="matrix(121.31683,0,0,121.31683,155.725159,188.243913)"/>
<path style="fill-rule:nonzero;fill:rgb(55.294118%,82.745098%,78.039216%);fill-opacity:1;stroke-width:0.0238852;stroke-linecap:butt;stroke-linejoin:miter;stroke:rgb(60%,60%,60%);stroke-opacity:0.8;stroke-miterlimit:10;" d="M 0.119434 -0.00000461933 C 0.119434 0.0659706 0.0659515 0.119421 0.00000842359 0.119421 C -0.0659668 0.119421 -0.119417 0.0659706 -0.119417 -0.00000461933 C -0.119417 -0.0659477 -0.0659668 -0.11943 0.00000842359 -0.11943 C 0.0659515 -0.11943 0.119434 -0.0659477 0.119434 -0.00000461933 Z M 0.119434 -0.00000461933 " transform="matrix(121.31683,0,0,121.31683,290.768509,70.984935)"/>
<path style="fill-rule:nonzero;fill:rgb(100%,92.941176%,43.529412%);fill-opacity:1;stroke-width:0.0238852;stroke-linecap:butt;stroke-linejoin:miter;stroke:rgb(60%,60%,60%);stroke-opacity:0.8;stroke-miterlimit:10;" d="M 0.11943 -0.00000436329 C 0.11943 0.0659709 0.0659483 0.119421 0.00000525848 0.119421 C -0.06597 0.119421 -0.11942 0.0659709 -0.11942 -0.00000436329 C -0.11942 -0.0659474 -0.06597 -0.11943 0.00000525848 -0.11943 C 0.0659483 -0.11943 0.11943 -0.0659474 0.11943 -0.00000436329 Z M 0.11943 -0.00000436329 " transform="matrix(121.31683,0,0,121.31683,102.038425,167.852092)"/>
<path style="fill-rule:nonzero;fill:rgb(55.294118%,82.745098%,78.039216%);fill-opacity:1;stroke-width:0.0238852;stroke-linecap:butt;stroke-linejoin:miter;stroke:rgb(60%,60%,60%);stroke-opacity:0.8;stroke-miterlimit:10;" d="M 0.119433 0.00000194629 C 0.119433 0.065945 0.0659513 0.119427 0.00000827133 0.119427 C -0.065967 0.119427 -0.119417 0.065945 -0.119417 0.00000194629 C -0.119417 -0.0659411 -0.065967 -0.119423 0.00000827133 -0.119423 C 0.0659513 -0.119423 0.119433 -0.0659411 0.119433 0.00000194629 Z M 0.119433 0.00000194629 " transform="matrix(121.31683,0,0,121.31683,387.68259,251.062264)"/>
<path style="fill-rule:nonzero;fill:rgb(55.294118%,82.745098%,78.039216%);fill-opacity:1;stroke-width:0.0238852;stroke-linecap:butt;stroke-linejoin:miter;stroke:rgb(60%,60%,60%);stroke-opacity:0.8;stroke-miterlimit:10;" d="M 0.119422 0.00000742874 C 0.119422 0.0659505 0.0659722 0.119433 -0.00000299465 0.119433 C -0.065946 0.119433 -0.119428 0.0659505 -0.119428 0.00000742874 C -0.119428 -0.0659678 -0.065946 -0.119418 -0.00000299465 -0.119418 C 0.0659722 -0.119418 0.119422 -0.0659678 0.119422 0.00000742874 Z M 0.119422 0.00000742874 " transform="matrix(121.31683,0,0,121.31683,417.433957,291.01863)"/>
<path style="fill-rule:nonzero;fill:rgb(55.294118%,82.745098%,78.039216%);fill-opacity:1;stroke-width:0.0238852;stroke-linecap:butt;stroke-linejoin:miter;stroke:rgb(60%,60%,60%);stroke-opacity:0.8;stroke-miterlimit:10;" d="M 0.119435 -0.0000157173 C 0.119435 0.0659595 0.065953 0.119442 0.0000099389 0.119442 C -0.0659653 0.119442 -0.119415 0.0659595 -0.119415 -0.0000157173 C -0.119415 -0.0659588 -0.0659653 -0.119441 0.0000099389 -0.119441 C 0.065953 -0.119441 0.119435 -0.0659588 0.119435 -0.0000157173 Z M 0.119435 -0.0000157173 " transform="matrix(121.31683,0,0,121.31683,503.990982,130.599563)"/>
<path style="fill-rule:nonzero;fill:rgb(55.294118%,82.745098%,78.039216%);fill-opacity:1;stroke-width:0.0238852;stroke-linecap:butt;stroke-linejoin:miter;stroke:rgb(60%,60%,60%);stroke-opacity:0.8;stroke-miterlimit:10;" d="M 0.119425 0.00000653365 C 0.119425 0.0659496 0.0659432 0.119432 0.000000117397 0.119432 C -0.0659429 0.119432 -0.119425 0.0659496 -0.119425 0.00000653365 C -0.119425 -0.0659687 -0.0659429 -0.119419 0.000000117397 -0.119419 C 0.0659432 -0.119419 0.119425 -0.0659687 0.119425 0.00000653365 Z M 0.119425 0.00000653365 " transform="matrix(121.31683,0,0,121.31683,34.269517,375.561707)"/>
<path style="fill-rule:nonzero;fill:rgb(55.294118%,82.745098%,78.039216%);fill-opacity:1;stroke-width:0.0238852;stroke-linecap:butt;stroke-linejoin:miter;stroke:rgb(60%,60%,60%);stroke-opacity:0.8;stroke-miterlimit:10;" d="M 0.119422 0.000009036 C 0.119422 0.0659521 0.0659724 0.119434 -0.0000028123 0.119434 C -0.0659458 0.119434 -0.119428 0.0659521 -0.119428 0.000009036 C -0.119428 -0.0659662 -0.0659458 -0.119416 -0.0000028123 -0.119416 C 0.0659724 -0.119416 0.119422 -0.0659662 0.119422 0.000009036 Z M 0.119422 0.000009036 " transform="matrix(121.31683,0,0,121.31683,118.621435,407.463748)"/>
<path style="fill-rule:nonzero;fill:rgb(55.294118%,82.745098%,78.039216%);fill-opacity:1;stroke-width:0.0238852;stroke-linecap:butt;stroke-linejoin:miter;stroke:rgb(60%,60%,60%);stroke-opacity:0.8;stroke-miterlimit:10;" d="M 0.119414 -0.0000100378 C 0.119414 0.0659652 0.0659641 0.119415 -0.0000111173 0.119415 C -0.0659542 0.119415 -0.119436 0.0659652 -0.119436 -0.0000100378 C -0.119436 -0.0659531 -0.0659542 -0.119435 -0.0000111173 -0.119435 C 0.0659641 -0.119435 0.119414 -0.0659531 0.119414 -0.0000100378 Z M 0.119414 -0.0000100378 " transform="matrix(121.31683,0,0,121.31683,300.42713,398.747312)"/>
<path style="fill-rule:nonzero;fill:rgb(55.294118%,82.745098%,78.039216%);fill-opacity:1;stroke-width:0.0238852;stroke-linecap:butt;stroke-linejoin:miter;stroke:rgb(60%,60%,60%);stroke-opacity:0.8;stroke-miterlimit:10;" d="M 0.119432 0.00000490277 C 0.119432 0.0659479 0.0659498 0.11943 0.00000680679 0.11943 C -0.0659684 0.11943 -0.119418 0.0659479 -0.119418 0.00000490277 C -0.119418 -0.0659703 -0.0659684 -0.11942 0.00000680679 -0.11942 C 0.0659498 -0.11942 0.119432 -0.0659703 0.119432 0.00000490277 Z M 0.119432 0.00000490277 " transform="matrix(121.31683,0,0,121.31683,201.229643,385.081436)"/>
<path style="fill-rule:nonzero;fill:rgb(55.294118%,82.745098%,78.039216%);fill-opacity:1;stroke-width:0.0238852;stroke-linecap:butt;stroke-linejoin:miter;stroke:rgb(60%,60%,60%);stroke-opacity:0.8;stroke-miterlimit:10;" d="M 0.11942 -0.0000151696 C 0.11942 0.0659601 0.0659697 0.11941 -0.00000553701 0.11941 C -0.0659486 0.11941 -0.119431 0.0659601 -0.119431 -0.0000151696 C -0.119431 -0.0659582 -0.0659486 -0.11944 -0.00000553701 -0.11944 C 0.0659697 -0.11944 0.11942 -0.0659582 0.11942 -0.0000151696 Z M 0.11942 -0.0000151696 " transform="matrix(121.31683,0,0,121.31683,281.672547,335.279184)"/>
<path style="fill-rule:nonzero;fill:rgb(55.294118%,82.745098%,78.039216%);fill-opacity:1;stroke-width:0.0238852;stroke-linecap:butt;stroke-linejoin:miter;stroke:rgb(60%,60%,60%);stroke-opacity:0.8;stroke-miterlimit:10;" d="M 0.119431 -0.00000546971 C 0.119431 0.0659698 0.065949 0.11942 0.00000596811 0.11942 C -0.0659693 0.11942 -0.119419 0.0659698 -0.119419 -0.00000546971 C -0.119419 -0.0659485 -0.0659693 -0.119431 0.00000596811 -0.119431 C 0.065949 -0.119431 0.119431 -0.0659485 0.119431 -0.00000546971 Z M 0.119431 -0.00000546971 " transform="matrix(121.31683,0,0,121.31683,64.003182,401.938164)"/>
<path style="fill-rule:nonzero;fill:rgb(55.294118%,82.745098%,78.039216%);fill-opacity:1;stroke-width:0.0238852;stroke-linecap:butt;stroke-linejoin:miter;stroke:rgb(60%,60%,60%);stroke-opacity:0.8;stroke-miterlimit:10;" d="M 0.11942 -0.00000189879 C 0.11942 0.0659411 0.06597 0.119423 -0.00000527717 0.119423 C -0.0659483 0.119423 -0.11943 0.0659411 -0.11943 -0.00000189879 C -0.11943 -0.0659449 -0.0659483 -0.119427 -0.00000527717 -0.119427 C 0.06597 -0.119427 0.11942 -0.0659449 0.11942 -0.00000189879 Z M 0.11942 -0.00000189879 " transform="matrix(121.31683,0,0,121.31683,388.840484,528.929918)"/>
<path style="fill-rule:nonzero;fill:rgb(55.294118%,82.745098%,78.039216%);fill-opacity:1;stroke-width:0.0238852;stroke-linecap:butt;stroke-linejoin:miter;stroke:rgb(60%,60%,60%);stroke-opacity:0.8;stroke-miterlimit:10;" d="M 0.119434 0.00000287398 C 0.119434 0.0659459 0.0659517 0.119428 0.00000864155 0.119428 C -0.0659666 0.119428 -0.119417 0.0659459 -0.119417 0.00000287398 C -0.119417 -0.0659724 -0.0659666 -0.119422 0.00000864155 -0.119422 C 0.0659517 -0.119422 0.119434 -0.0659724 0.119434 0.00000287398 Z M 0.119434 0.00000287398 " transform="matrix(121.31683,0,0,121.31683,353.100514,551.94887)"/>
<path style="fill-rule:nonzero;fill:rgb(55.294118%,82.745098%,78.039216%);fill-opacity:1;stroke-width:0.0238852;stroke-linecap:butt;stroke-linejoin:miter;stroke:rgb(60%,60%,60%);stroke-opacity:0.8;stroke-miterlimit:10;" d="M 0.119411 -0.000011576 C 0.119411 0.0659637 0.0659615 0.119414 -0.0000137126 0.119414 C -0.0659567 0.119414 -0.119439 0.0659637 -0.119439 -0.000011576 C -0.119439 -0.0659546 -0.0659567 -0.119437 -0.0000137126 -0.119437 C 0.0659615 -0.119437 0.119411 -0.0659546 0.119411 -0.000011576 Z M 0.119411 -0.000011576 " transform="matrix(121.31683,0,0,121.31683,435.079789,485.071717)"/>
<path style="fill-rule:nonzero;fill:rgb(55.294118%,82.745098%,78.039216%);fill-opacity:1;stroke-width:0.0238852;stroke-linecap:butt;stroke-linejoin:miter;stroke:rgb(60%,60%,60%);stroke-opacity:0.8;stroke-miterlimit:10;" d="M 0.119423 0.0000142641 C 0.119423 0.0659573 0.0659412 0.119439 -0.00000182079 0.119439 C -0.0659449 0.119439 -0.119427 0.0659573 -0.119427 0.0000142641 C -0.119427 -0.065961 -0.0659449 -0.119411 -0.00000182079 -0.119411 C 0.0659412 -0.119411 0.119423 -0.065961 0.119423 0.0000142641 Z M 0.119423 0.0000142641 " transform="matrix(121.31683,0,0,121.31683,81.906471,222.056863)"/>
<path style="fill-rule:nonzero;fill:rgb(55.294118%,82.745098%,78.039216%);fill-opacity:1;stroke-width:0.0238852;stroke-linecap:butt;stroke-linejoin:miter;stroke:rgb(60%,60%,60%);stroke-opacity:0.8;stroke-miterlimit:10;" d="M 0.119416 0.000000578175 C 0.119416 0.0659436 0.0659665 0.119426 -0.00000874537 0.119426 C -0.0659518 0.119426 -0.119434 0.0659436 -0.119434 0.000000578175 C -0.119434 -0.0659425 -0.0659518 -0.119425 -0.00000874537 -0.119425 C 0.0659665 -0.119425 0.119416 -0.0659425 0.119416 0.000000578175 Z M 0.119416 0.000000578175 " transform="matrix(121.31683,0,0,121.31683,216.735436,546.304617)"/>
<path style="fill-rule:nonzero;fill:rgb(55.294118%,82.745098%,78.039216%);fill-opacity:1;stroke-width:0.0238852;stroke-linecap:butt;stroke-linejoin:miter;stroke:rgb(60%,60%,60%);stroke-opacity:0.8;stroke-miterlimit:10;" d="M 0.119435 -0.00000487514 C 0.119435 0.0659704 0.0659524 0.11942 0.00000938065 0.11942 C -0.0659659 0.11942 -0.119416 0.0659704 -0.119416 -0.00000487514 C -0.119416 -0.0659479 -0.0659659 -0.11943 0.00000938065 -0.11943 C 0.0659524 -0.11943 0.119435 -0.0659479 0.119435 -0.00000487514 Z M 0.119435 -0.00000487514 " transform="matrix(121.31683,0,0,121.31683,188.268393,513.000591)"/>
<path style="fill-rule:nonzero;fill:rgb(55.294118%,82.745098%,78.039216%);fill-opacity:1;stroke-width:0.0238852;stroke-linecap:butt;stroke-linejoin:miter;stroke:rgb(60%,60%,60%);stroke-opacity:0.8;stroke-miterlimit:10;" d="M 0.119423 0.000000346681 C 0.119423 0.0659434 0.0659413 0.119426 -0.00000169859 0.119426 C -0.0659447 0.119426 -0.119427 0.0659434 -0.119427 0.000000346681 C -0.119427 -0.0659427 -0.0659447 -0.119425 -0.00000169859 -0.119425 C 0.0659413 -0.119425 0.119423 -0.0659427 0.119423 0.000000346681 Z M 0.119423 0.000000346681 " transform="matrix(121.31683,0,0,121.31683,139.582237,313.88277)"/>
<path style="fill-rule:nonzero;fill:rgb(55.294118%,82.745098%,78.039216%);fill-opacity:1;stroke-width:0.0238852;stroke-linecap:butt;stroke-linejoin:miter;stroke:rgb(60%,60%,60%);stroke-opacity:0.8;stroke-miterlimit:10;" d="M 0.119442 -0.00000511879 C 0.119442 0.0659701 0.0659595 0.11942 -0.0000157201 0.11942 C -0.0659588 0.11942 -0.119441 0.0659701 -0.119441 -0.00000511879 C -0.119441 -0.0659482 -0.0659588 -0.11943 -0.0000157201 -0.11943 C 0.0659595 -0.11943 0.119442 -0.0659482 0.119442 -0.00000511879 Z M 0.119442 -0.00000511879 " transform="matrix(121.31683,0,0,121.31683,160.517532,443.926402)"/>
</g>
</svg>
