<?xml version="1.0" encoding="UTF-8"?>
<svg xmlns="http://www.w3.org/2000/svg" xmlns:xlink="http://www.w3.org/1999/xlink" width="600pt" height="600pt" viewBox="0 0 600 600" version="1.1">
<defs>
<clipPath id="clip1">
  <path d="M 214 172 L 349 172 L 349 382 L 214 382 Z M 214 172 "/>
</clipPath>
<clipPath id="clip2">
  <path d="M 139.339844 163.597656 L 423.566406 163.597656 L 423.566406 389.773438 L 139.339844 389.773438 Z M 139.339844 163.597656 L 322.214844 213.347656 C 322.214844 221.347656 315.726562 227.835938 307.726562 227.835938 C 299.722656 227.835938 293.238281 221.347656 293.238281 213.347656 C 293.238281 205.347656 299.722656 198.859375 307.726562 198.859375 C 315.726562 198.859375 322.214844 205.347656 322.214844 213.347656 Z M 139.339844 163.597656 "/>
</clipPath>
<clipPath id="clip3">
  <path d="M 139.339844 163.597656 L 423.566406 163.597656 L 423.566406 389.773438 L 139.339844 389.773438 Z M 139.339844 163.597656 L 269.667969 340.023438 C 269.667969 348.023438 263.179688 354.511719 255.179688 354.511719 C 247.179688 354.511719 240.691406 348.023438 240.691406 340.023438 C 240.691406 332.019531 247.179688 325.535156 255.179688 325.535156 C 263.179688 325.535156 269.667969 332.019531 269.667969 340.023438 Z M 139.339844 163.597656 "/>
</clipPath>
<clipPath id="clip4">
  <path d="M 266 80.742188 L 366 80.742188 L 366 233.953125 L 266 233.953125 Z M 266 80.742188 "/>
</clipPath>
<clipPath id="clip5">
  <path d="M 183.84375 80.742188 L 448 80.742188 L 448 233.953125 L 183.84375 233.953125 Z M 183.84375 80.742188 L 322.214844 213.347656 C 322.214844 221.347656 315.726562 227.835938 307.726562 227.835938 C 299.722656 227.835938 293.238281 221.347656 293.238281 213.347656 C 293.238281 205.347656 299.722656 198.859375 307.726562 198.859375 C 315.726562 198.859375 322.214844 205.347656 322.214844 213.347656 Z M 183.84375 80.742188 "/>
</clipPath>
<clipPath id="clip6">
  <path d="M 183.84375 80.742188 L 448 80.742188 L 448 233.953125 L 183.84375 233.953125 Z M 183.84375 80.742188 L 338.605469 101.347656 C 338.605469 109.351562 332.117188 115.835938 324.117188 115.835938 C 316.113281 115.835938 309.628906 109.351562 309.628906 101.347656 C 309.628906 93.347656 316.113281 86.859375 324.117188 86.859375 C 332.117188 86.859375 338.605469 93.347656 338.605469 101.347656 Z M 183.84375 80.742188 "/>
</clipPath>
<clipPath id="clip7">
  <path d="M 298.769531 172 L 361.5 172 L 361.5 257 L 298.769531 257 Z M 298.769531 172 "/>
</clipPath>
<clipPath id="clip8">
  <path d="M 298.769531 88.324219 L 361.5 88.324219 L 361.5 340.59375 L 298.769531 340.59375 Z M 298.769531 88.324219 L 322.214844 213.347656 C 322.214844 221.347656 315.726562 227.835938 307.726562 227.835938 C 299.722656 227.835938 293.238281 221.347656 293.238281 213.347656 C 293.238281 205.347656 299.722656 198.859375 307.726562 198.859375 C 315.726562 198.859375 322.214844 205.347656 322.214844 213.347656 Z M 298.769531 88.324219 "/>
</clipPath>
<clipPath id="clip9">
  <path d="M 298.769531 88.324219 L 361.5 88.324219 L 361.5 340.59375 L 298.769531 340.59375 Z M 298.769531 88.324219 L 367.03125 215.570312 C 367.03125 223.574219 360.546875 230.058594 352.542969 230.058594 C 344.542969 230.058594 338.054688 223.574219 338.054688 215.570312 C 338.054688 207.570312 344.542969 201.082031 352.542969 201.082031 C 360.546875 201.082031 367.03125 207.570312 367.03125 215.570312 Z M 298.769531 88.324219 "/>
</clipPath>
<clipPath id="clip10">
  <path d="M 244 412 L 369 412 L 369 565 L 244 565 Z M 244 412 "/>
</clipPath>
<clipPath id="clip11">
  <path d="M 177.625 388.304688 L 435.550781 388.304688 L 435.550781 588.945312 L 177.625 588.945312 Z M 177.625 388.304688 L 341.882812 453.429688 C 341.882812 461.433594 335.394531 467.917969 327.394531 467.917969 C 319.390625 467.917969 312.90625 461.433594 312.90625 453.429688 C 312.90625 445.429688 319.390625 438.941406 327.394531 438.941406 C 335.394531 438.941406 341.882812 445.429688 341.882812 453.429688 Z M 177.625 388.304688 "/>
</clipPath>
<clipPath id="clip12">
  <path d="M 177.625 388.304688 L 435.550781 388.304688 L 435.550781 588.945312 L 177.625 588.945312 Z M 177.625 388.304688 L 300.269531 523.820312 C 300.269531 531.820312 293.78125 538.308594 285.78125 538.308594 C 277.777344 538.308594 271.292969 531.820312 271.292969 523.820312 C 271.292969 515.820312 277.777344 509.332031 285.78125 509.332031 C 293.78125 509.332031 300.269531 515.820312 300.269531 523.820312 Z M 177.625 388.304688 "/>
</clipPath>
<clipPath id="clip13">
  <path d="M 214 299 L 369 299 L 369 495 L 214 495 Z M 214 299 "/>
</clipPath>
<clipPath id="clip14">
  <path d="M 149.144531 271.449219 L 433.429688 271.449219 L 433.429688 522.003906 L 149.144531 522.003906 Z M 149.144531 271.449219 L 341.882812 453.429688 C 341.882812 461.433594 335.394531 467.917969 327.394531 467.917969 C 319.390625 467.917969 312.90625 461.433594 312.90625 453.429688 C 312.90625 445.429688 319.390625 438.941406 327.394531 438.941406 C 335.394531 438.941406 341.882812 445.429688 341.882812 453.429688 Z M 149.144531 271.449219 "/>
</clipPath>
<clipPath id="clip15">
  <path d="M 149.144531 271.449219 L 433.429688 271.449219 L 433.429688 522.003906 L 149.144531 522.003906 Z M 149.144531 271.449219 L 269.667969 340.023438 C 269.667969 348.023438 263.179688 354.511719 255.179688 354.511719 C 247.179688 354.511719 240.691406 348.023438 240.691406 340.023438 C 240.691406 332.019531 247.179688 325.535156 255.179688 325.535156 C 263.179688 325.535156 269.667969 332.019531 269.667969 340.023438 Z M 149.144531 271.449219 "/>
</clipPath>
<clipPath id="clip16">
  <path d="M 286 377 L 419 377 L 419 495 L 286 495 Z M 286 377 "/>
</clipPath>
<clipPath id="clip17">
  <path d="M 254.867188 315.457031 L 449.8125 315.457031 L 449.8125 556.839844 L 254.867188 556.839844 Z M 254.867188 315.457031 L 341.882812 453.429688 C 341.882812 461.433594 335.394531 467.917969 327.394531 467.917969 C 319.390625 467.917969 312.90625 461.433594 312.90625 453.429688 C 312.90625 445.429688 319.390625 438.941406 327.394531 438.941406 C 335.394531 438.941406 341.882812 445.429688 341.882812 453.429688 Z M 254.867188 315.457031 "/>
</clipPath>
<clipPath id="clip18">
  <path d="M 254.867188 315.457031 L 449.8125 315.457031 L 449.8125 556.839844 L 254.867188 556.839844 Z M 254.867188 315.457031 L 391.773438 418.867188 C 391.773438 426.867188 385.289062 433.355469 377.285156 433.355469 C 369.285156 433.355469 362.796875 426.867188 362.796875 418.867188 C 362.796875 410.863281 369.285156 404.378906 377.285156 404.378906 C 385.289062 404.378906 391.773438 410.863281 391.773438 418.867188 Z M 254.867188 315.457031 "/>
</clipPath>
<clipPath id="clip19">
  <path d="M 286 412 L 453 412 L 453 539 L 286 539 Z M 286 412 "/>
</clipPath>
<clipPath id="clip20">
  <path d="M 267.4375 342.386719 L 471.8125 342.386719 L 471.8125 609.035156 L 267.4375 609.035156 Z M 267.4375 342.386719 L 341.882812 453.429688 C 341.882812 461.433594 335.394531 467.917969 327.394531 467.917969 C 319.390625 467.917969 312.90625 461.433594 312.90625 453.429688 C 312.90625 445.429688 319.390625 438.941406 327.394531 438.941406 C 335.394531 438.941406 341.882812 445.429688 341.882812 453.429688 Z M 267.4375 342.386719 "/>
</clipPath>
<clipPath id="clip21">
  <path d="M 267.4375 342.386719 L 471.8125 342.386719 L 471.8125 609.035156 L 267.4375 609.035156 Z M 267.4375 342.386719 L 426.34375 497.992188 C 426.34375 505.992188 419.859375 512.480469 411.855469 512.480469 C 403.855469 512.480469 397.367188 505.992188 397.367188 497.992188 C 397.367188 489.988281 403.855469 483.503906 411.855469 483.503906 C 419.859375 483.503906 426.34375 489.988281 426.34375 497.992188 Z M 267.4375 342.386719 "/>
</clipPath>
<clipPath id="clip22">
  <path d="M 216 482 L 327 482 L 327 599 L 216 599 Z M 216 482 "/>
</clipPath>
<clipPath id="clip23">
  <path d="M 160.585938 442.996094 L 382.90625 442.996094 L 382.90625 638.585938 L 160.585938 638.585938 Z M 160.585938 442.996094 L 272.199219 557.761719 C 272.199219 565.761719 265.710938 572.25 257.710938 572.25 C 249.707031 572.25 243.222656 565.761719 243.222656 557.761719 C 243.222656 549.761719 249.707031 543.273438 257.710938 543.273438 C 265.710938 543.273438 272.199219 549.761719 272.199219 557.761719 Z M 160.585938 442.996094 "/>
</clipPath>
<clipPath id="clip24">
  <path d="M 160.585938 442.996094 L 382.90625 442.996094 L 382.90625 638.585938 L 160.585938 638.585938 Z M 160.585938 442.996094 L 300.269531 523.820312 C 300.269531 531.820312 293.78125 538.308594 285.78125 538.308594 C 277.777344 538.308594 271.292969 531.820312 271.292969 523.820312 C 271.292969 515.820312 277.777344 509.332031 285.78125 509.332031 C 293.78125 509.332031 300.269531 515.820312 300.269531 523.820312 Z M 160.585938 442.996094 "/>
</clipPath>
<clipPath id="clip25">
  <path d="M 100.277344 299 L 286.65625 299 L 286.65625 411 L 100.277344 411 Z M 100.277344 299 "/>
</clipPath>
<clipPath id="clip26">
  <path d="M 100.277344 218.238281 L 286.65625 218.238281 L 286.65625 491.476562 L 100.277344 491.476562 Z M 100.277344 218.238281 L 269.667969 340.023438 C 269.667969 348.023438 263.179688 354.511719 255.179688 354.511719 C 247.179688 354.511719 240.691406 348.023438 240.691406 340.023438 C 240.691406 332.019531 247.179688 325.535156 255.179688 325.535156 C 263.179688 325.535156 269.667969 332.019531 269.667969 340.023438 Z M 100.277344 218.238281 "/>
</clipPath>
<clipPath id="clip27">
  <path d="M 100.277344 218.238281 L 286.65625 218.238281 L 286.65625 491.476562 L 100.277344 491.476562 Z M 100.277344 218.238281 L 146.242188 369.691406 C 146.242188 377.695312 139.757812 384.179688 131.753906 384.179688 C 123.753906 384.179688 117.265625 377.695312 117.265625 369.691406 C 117.265625 361.691406 123.753906 355.203125 131.753906 355.203125 C 139.757812 355.203125 146.242188 361.691406 146.242188 369.691406 Z M 100.277344 218.238281 "/>
</clipPath>
<clipPath id="clip28">
  <path d="M 171 263 L 297 263 L 297 382 L 171 382 Z M 171 263 "/>
</clipPath>
<clipPath id="clip29">
  <path d="M 130.78125 208.070312 L 337.347656 208.070312 L 337.347656 436.019531 L 130.78125 436.019531 Z M 130.78125 208.070312 L 269.667969 340.023438 C 269.667969 348.023438 263.179688 354.511719 255.179688 354.511719 C 247.179688 354.511719 240.691406 348.023438 240.691406 340.023438 C 240.691406 332.019531 247.179688 325.535156 255.179688 325.535156 C 263.179688 325.535156 269.667969 332.019531 269.667969 340.023438 Z M 130.78125 208.070312 "/>
</clipPath>
<clipPath id="clip30">
  <path d="M 130.78125 208.070312 L 337.347656 208.070312 L 337.347656 436.019531 L 130.78125 436.019531 Z M 130.78125 208.070312 L 227.4375 304.066406 C 227.4375 312.066406 220.953125 318.554688 212.949219 318.554688 C 204.949219 318.554688 198.460938 312.066406 198.460938 304.066406 C 198.460938 296.0625 204.949219 289.578125 212.949219 289.578125 C 220.953125 289.578125 227.4375 296.0625 227.4375 304.066406 Z M 130.78125 208.070312 "/>
</clipPath>
<clipPath id="clip31">
  <path d="M 313.796875 54 L 432.023438 54 L 432.023438 143 L 313.796875 143 Z M 313.796875 54 "/>
</clipPath>
<clipPath id="clip32">
  <path d="M 313.796875 -29.53125 L 432.023438 -29.53125 L 432.023438 226.292969 L 313.796875 226.292969 Z M 313.796875 -29.53125 L 436.191406 95.414062 C 436.191406 103.417969 429.703125 109.902344 421.703125 109.902344 C 413.699219 109.902344 407.214844 103.417969 407.214844 95.414062 C 407.214844 87.414062 413.699219 80.925781 421.703125 80.925781 C 429.703125 80.925781 436.191406 87.414062 436.191406 95.414062 Z M 313.796875 -29.53125 "/>
</clipPath>
<clipPath id="clip33">
  <path d="M 313.796875 -29.53125 L 432.023438 -29.53125 L 432.023438 226.292969 L 313.796875 226.292969 Z M 313.796875 -29.53125 L 338.605469 101.347656 C 338.605469 109.351562 332.117188 115.835938 324.117188 115.835938 C 316.113281 115.835938 309.628906 109.351562 309.628906 101.347656 C 309.628906 93.347656 316.113281 86.859375 324.117188 86.859375 C 332.117188 86.859375 338.605469 93.347656 338.605469 101.347656 Z M 313.796875 -29.53125 "/>
</clipPath>
<clipPath id="clip34">
  <path d="M 369 18.085938 L 463 18.085938 L 463 125.539062 L 369 125.539062 Z M 369 18.085938 "/>
</clipPath>
<clipPath id="clip35">
  <path d="M 288.820312 18.085938 L 543.804688 18.085938 L 543.804688 125.539062 L 288.820312 125.539062 Z M 288.820312 18.085938 L 436.191406 95.414062 C 436.191406 103.417969 429.703125 109.902344 421.703125 109.902344 C 413.699219 109.902344 407.214844 103.417969 407.214844 95.414062 C 407.214844 87.414062 413.699219 80.925781 421.703125 80.925781 C 429.703125 80.925781 436.191406 87.414062 436.191406 95.414062 Z M 288.820312 18.085938 "/>
</clipPath>
<clipPath id="clip36">
  <path d="M 288.820312 18.085938 L 543.804688 18.085938 L 543.804688 125.539062 L 288.820312 125.539062 Z M 288.820312 18.085938 L 425.410156 48.210938 C 425.410156 56.214844 418.925781 62.699219 410.921875 62.699219 C 402.921875 62.699219 396.433594 56.214844 396.433594 48.210938 C 396.433594 40.210938 402.921875 33.722656 410.921875 33.722656 C 418.925781 33.722656 425.410156 40.210938 425.410156 48.210938 Z M 288.820312 18.085938 "/>
</clipPath>
<clipPath id="clip37">
  <path d="M 380 39 L 505 39 L 505 137 L 380 137 Z M 380 39 "/>
</clipPath>
<clipPath id="clip38">
  <path d="M 377.175781 -37.429688 L 507.59375 -37.429688 L 507.59375 213.28125 L 377.175781 213.28125 Z M 377.175781 -37.429688 L 436.191406 95.414062 C 436.191406 103.417969 429.703125 109.902344 421.703125 109.902344 C 413.699219 109.902344 407.214844 103.417969 407.214844 95.414062 C 407.214844 87.414062 413.699219 80.925781 421.703125 80.925781 C 429.703125 80.925781 436.191406 87.414062 436.191406 95.414062 Z M 377.175781 -37.429688 "/>
</clipPath>
<clipPath id="clip39">
  <path d="M 377.175781 -37.429688 L 507.59375 -37.429688 L 507.59375 213.28125 L 377.175781 213.28125 Z M 377.175781 -37.429688 L 477.554688 80.4375 C 477.554688 88.441406 471.066406 94.925781 463.066406 94.925781 C 455.0625 94.925781 448.578125 88.441406 448.578125 80.4375 C 448.578125 72.4375 455.0625 65.949219 463.066406 65.949219 C 471.066406 65.949219 477.554688 72.4375 477.554688 80.4375 Z M 377.175781 -37.429688 "/>
</clipPath>
<clipPath id="clip40">
  <path d="M 380 54 L 530 54 L 530 188 L 380 188 Z M 380 54 "/>
</clipPath>
<clipPath id="clip41">
  <path d="M 344.617188 -4.679688 L 565.738281 -4.679688 L 565.738281 246.609375 L 344.617188 246.609375 Z M 344.617188 -4.679688 L 436.191406 95.414062 C 436.191406 103.417969 429.703125 109.902344 421.703125 109.902344 C 413.699219 109.902344 407.214844 103.417969 407.214844 95.414062 C 407.214844 87.414062 413.699219 80.925781 421.703125 80.925781 C 429.703125 80.925781 436.191406 87.414062 436.191406 95.414062 Z M 344.617188 -4.679688 "/>
</clipPath>
<clipPath id="clip42">
  <path d="M 344.617188 -4.679688 L 565.738281 -4.679688 L 565.738281 246.609375 L 344.617188 246.609375 Z M 344.617188 -4.679688 L 503.140625 146.515625 C 503.140625 154.519531 496.65625 161.003906 488.652344 161.003906 C 480.652344 161.003906 474.164062 154.519531 474.164062 146.515625 C 474.164062 138.515625 480.652344 132.027344 488.652344 132.027344 C 496.65625 132.027344 503.140625 138.515625 503.140625 146.515625 Z M 344.617188 -4.679688 "/>
</clipPath>
<clipPath id="clip43">
  <path d="M 229 26 L 366 26 L 366 143 L 229 143 Z M 229 26 "/>
</clipPath>
<clipPath id="clip44">
  <path d="M 202.785156 -38.542969 L 392.21875 -38.542969 L 392.21875 207.683594 L 202.785156 207.683594 Z M 202.785156 -38.542969 L 338.605469 101.347656 C 338.605469 109.351562 332.117188 115.835938 324.117188 115.835938 C 316.113281 115.835938 309.628906 109.351562 309.628906 101.347656 C 309.628906 93.347656 316.113281 86.859375 324.117188 86.859375 C 332.117188 86.859375 338.605469 93.347656 338.605469 101.347656 Z M 202.785156 -38.542969 "/>
</clipPath>
<clipPath id="clip45">
  <path d="M 202.785156 -38.542969 L 392.21875 -38.542969 L 392.21875 207.683594 L 202.785156 207.683594 Z M 202.785156 -38.542969 L 285.375 67.792969 C 285.375 75.792969 278.886719 82.28125 270.886719 82.28125 C 262.886719 82.28125 256.398438 75.792969 256.398438 67.792969 C 256.398438 59.792969 262.886719 53.304688 270.886719 53.304688 C 278.886719 53.304688 285.375 59.792969 285.375 67.792969 Z M 202.785156 -38.542969 "/>
</clipPath>
<clipPath id="clip46">
  <path d="M 266 6.253906 L 366 6.253906 L 366 137.332031 L 266 137.332031 Z M 266 6.253906 "/>
</clipPath>
<clipPath id="clip47">
  <path d="M 186.894531 6.253906 L 444.726562 6.253906 L 444.726562 137.332031 L 186.894531 137.332031 Z M 186.894531 6.253906 L 338.605469 101.347656 C 338.605469 109.351562 332.117188 115.835938 324.117188 115.835938 C 316.113281 115.835938 309.628906 109.351562 309.628906 101.347656 C 309.628906 93.347656 316.113281 86.859375 324.117188 86.859375 C 332.117188 86.859375 338.605469 93.347656 338.605469 101.347656 Z M 186.894531 6.253906 "/>
</clipPath>
<clipPath id="clip48">
  <path d="M 186.894531 6.253906 L 444.726562 6.253906 L 444.726562 137.332031 L 186.894531 137.332031 Z M 186.894531 6.253906 L 321.992188 42.238281 C 321.992188 50.238281 315.507812 56.726562 307.503906 56.726562 C 299.503906 56.726562 293.015625 50.238281 293.015625 42.238281 C 293.015625 34.238281 299.503906 27.75 307.503906 27.75 C 315.507812 27.75 321.992188 34.238281 321.992188 42.238281 Z M 186.894531 6.253906 "/>
</clipPath>
<clipPath id="clip49">
  <path d="M 45 254 L 189 254 L 189 376 L 45 376 Z M 45 254 "/>
</clipPath>
<clipPath id="clip50">
  <path d="M 18.039062 189.449219 L 215.175781 189.449219 L 215.175781 440.605469 L 18.039062 440.605469 Z M 18.039062 189.449219 L 161.605469 295.8125 C 161.605469 303.8125 155.117188 310.300781 147.117188 310.300781 C 139.113281 310.300781 132.628906 303.8125 132.628906 295.8125 C 132.628906 287.808594 139.113281 281.324219 147.117188 281.324219 C 155.117188 281.324219 161.605469 287.808594 161.605469 295.8125 Z M 18.039062 189.449219 "/>
</clipPath>
<clipPath id="clip51">
  <path d="M 18.039062 189.449219 L 215.175781 189.449219 L 215.175781 440.605469 L 18.039062 440.605469 Z M 18.039062 189.449219 L 100.585938 334.242188 C 100.585938 342.246094 94.101562 348.730469 86.097656 348.730469 C 78.097656 348.730469 71.609375 342.246094 71.609375 334.242188 C 71.609375 326.242188 78.097656 319.753906 86.097656 319.753906 C 94.101562 319.753906 100.585938 326.242188 100.585938 334.242188 Z M 18.039062 189.449219 "/>
</clipPath>
<clipPath id="clip52">
  <path d="M 129.007812 254 L 231.058594 254 L 231.058594 346 L 129.007812 346 Z M 129.007812 254 "/>
</clipPath>
<clipPath id="clip53">
  <path d="M 129.007812 171.589844 L 231.058594 171.589844 L 231.058594 428.289062 L 129.007812 428.289062 Z M 129.007812 171.589844 L 161.605469 295.8125 C 161.605469 303.8125 155.117188 310.300781 147.117188 310.300781 C 139.113281 310.300781 132.628906 303.8125 132.628906 295.8125 C 132.628906 287.808594 139.113281 281.324219 147.117188 281.324219 C 155.117188 281.324219 161.605469 287.808594 161.605469 295.8125 Z M 129.007812 171.589844 "/>
</clipPath>
<clipPath id="clip54">
  <path d="M 129.007812 171.589844 L 231.058594 171.589844 L 231.058594 428.289062 L 129.007812 428.289062 Z M 129.007812 171.589844 L 227.4375 304.066406 C 227.4375 312.066406 220.953125 318.554688 212.949219 318.554688 C 204.949219 318.554688 198.460938 312.066406 198.460938 304.066406 C 198.460938 296.0625 204.949219 289.578125 212.949219 289.578125 C 220.953125 289.578125 227.4375 296.0625 227.4375 304.066406 Z M 129.007812 171.589844 "/>
</clipPath>
<clipPath id="clip55">
  <path d="M 0 257 L 128 257 L 128 376 L 0 376 Z M 0 257 "/>
</clipPath>
<clipPath id="clip56">
  <path d="M -38.132812 194.9375 L 158.5 194.9375 L 158.5 437.738281 L -38.132812 437.738281 Z M -38.132812 194.9375 L 100.585938 334.242188 C 100.585938 342.246094 94.101562 348.730469 86.097656 348.730469 C 78.097656 348.730469 71.609375 342.246094 71.609375 334.242188 C 71.609375 326.242188 78.097656 319.753906 86.097656 319.753906 C 94.101562 319.753906 100.585938 326.242188 100.585938 334.242188 Z M -38.132812 194.9375 "/>
</clipPath>
<clipPath id="clip57">
  <path d="M -38.132812 194.9375 L 158.5 194.9375 L 158.5 437.738281 L -38.132812 437.738281 Z M -38.132812 194.9375 L 48.757812 298.433594 C 48.757812 306.433594 42.269531 312.921875 34.269531 312.921875 C 26.269531 312.921875 19.78125 306.433594 19.78125 298.433594 C 19.78125 290.433594 26.269531 283.945312 34.269531 283.945312 C 42.269531 283.945312 48.757812 290.433594 48.757812 298.433594 Z M -38.132812 194.9375 "/>
</clipPath>
<clipPath id="clip58">
  <path d="M 45 330.121094 L 128 330.121094 L 128 395.414062 L 45 395.414062 Z M 45 330.121094 "/>
</clipPath>
<clipPath id="clip59">
  <path d="M -39.066406 330.121094 L 211.832031 330.121094 L 211.832031 395.414062 L -39.066406 395.414062 Z M -39.066406 330.121094 L 100.585938 334.242188 C 100.585938 342.246094 94.101562 348.730469 86.097656 348.730469 C 78.097656 348.730469 71.609375 342.246094 71.609375 334.242188 C 71.609375 326.242188 78.097656 319.753906 86.097656 319.753906 C 94.101562 319.753906 100.585938 326.242188 100.585938 334.242188 Z M -39.066406 330.121094 "/>
</clipPath>
<clipPath id="clip60">
  <path d="M -39.066406 330.121094 L 211.832031 330.121094 L 211.832031 395.414062 L -39.066406 395.414062 Z M -39.066406 330.121094 L 101.15625 391.292969 C 101.15625 399.292969 94.671875 405.78125 86.667969 405.78125 C 78.667969 405.78125 72.179688 399.292969 72.179688 391.292969 C 72.179688 383.289062 78.667969 376.804688 86.667969 376.804688 C 94.671875 376.804688 101.15625 383.289062 101.15625 391.292969 Z M -39.066406 330.121094 "/>
</clipPath>
<clipPath id="clip61">
  <path d="M 45 293 L 173 293 L 173 411 L 45 411 Z M 45 293 "/>
</clipPath>
<clipPath id="clip62">
  <path d="M 8.210938 234.765625 L 209.640625 234.765625 L 209.640625 469.167969 L 8.210938 469.167969 Z M 8.210938 234.765625 L 100.585938 334.242188 C 100.585938 342.246094 94.101562 348.730469 86.097656 348.730469 C 78.097656 348.730469 71.609375 342.246094 71.609375 334.242188 C 71.609375 326.242188 78.097656 319.753906 86.097656 319.753906 C 94.101562 319.753906 100.585938 326.242188 100.585938 334.242188 Z M 8.210938 234.765625 "/>
</clipPath>
<clipPath id="clip63">
  <path d="M 8.210938 234.765625 L 209.640625 234.765625 L 209.640625 469.167969 L 8.210938 469.167969 Z M 8.210938 234.765625 L 146.242188 369.691406 C 146.242188 377.695312 139.757812 384.179688 131.753906 384.179688 C 123.753906 384.179688 117.265625 377.695312 117.265625 369.691406 C 117.265625 361.691406 123.753906 355.203125 131.753906 355.203125 C 139.757812 355.203125 146.242188 361.691406 146.242188 369.691406 Z M 8.210938 234.765625 "/>
</clipPath>
<clipPath id="clip64">
  <path d="M 45 328 L 173 328 L 173 433 L 45 433 Z M 45 328 "/>
</clipPath>
<clipPath id="clip65">
  <path d="M 30.9375 256.523438 L 187.484375 256.523438 L 187.484375 504.460938 L 30.9375 504.460938 Z M 30.9375 256.523438 L 101.15625 391.292969 C 101.15625 399.292969 94.671875 405.78125 86.667969 405.78125 C 78.667969 405.78125 72.179688 399.292969 72.179688 391.292969 C 72.179688 383.289062 78.667969 376.804688 86.667969 376.804688 C 94.671875 376.804688 101.15625 383.289062 101.15625 391.292969 Z M 30.9375 256.523438 "/>
</clipPath>
<clipPath id="clip66">
  <path d="M 30.9375 256.523438 L 187.484375 256.523438 L 187.484375 504.460938 L 30.9375 504.460938 Z M 30.9375 256.523438 L 146.242188 369.691406 C 146.242188 377.695312 139.757812 384.179688 131.753906 384.179688 C 123.753906 384.179688 117.265625 377.695312 117.265625 369.691406 C 117.265625 361.691406 123.753906 355.203125 131.753906 355.203125 C 139.757812 355.203125 146.242188 361.691406 146.242188 369.691406 Z M 30.9375 256.523438 "/>
</clipPath>
<clipPath id="clip67">
  <path d="M 45 351.472656 L 139 351.472656 L 139 466.410156 L 45 466.410156 Z M 45 351.472656 "/>
</clipPath>
<clipPath id="clip68">
  <path d="M -32.796875 351.472656 L 217.3125 351.472656 L 217.3125 466.410156 L -32.796875 466.410156 Z M -32.796875 351.472656 L 101.15625 391.292969 C 101.15625 399.292969 94.671875 405.78125 86.667969 405.78125 C 78.667969 405.78125 72.179688 399.292969 72.179688 391.292969 C 72.179688 383.289062 78.667969 376.804688 86.667969 376.804688 C 94.671875 376.804688 101.15625 383.289062 101.15625 391.292969 Z M -32.796875 351.472656 "/>
</clipPath>
<clipPath id="clip69">
  <path d="M -32.796875 351.472656 L 217.3125 351.472656 L 217.3125 466.410156 L -32.796875 466.410156 Z M -32.796875 351.472656 L 112.335938 426.589844 C 112.335938 434.589844 105.851562 441.078125 97.847656 441.078125 C 89.847656 441.078125 83.359375 434.589844 83.359375 426.589844 C 83.359375 418.585938 89.847656 412.101562 97.847656 412.101562 C 105.851562 412.101562 112.335938 418.585938 112.335938 426.589844 Z M -32.796875 351.472656 "/>
</clipPath>
<clipPath id="clip70">
  <path d="M 56 328 L 173 328 L 173 468 L 56 468 Z M 56 328 "/>
</clipPath>
<clipPath id="clip71">
  <path d="M -10.089844 304.199219 L 239.691406 304.199219 L 239.691406 492.082031 L -10.089844 492.082031 Z M -10.089844 304.199219 L 146.242188 369.691406 C 146.242188 377.695312 139.757812 384.179688 131.753906 384.179688 C 123.753906 384.179688 117.265625 377.695312 117.265625 369.691406 C 117.265625 361.691406 123.753906 355.203125 131.753906 355.203125 C 139.757812 355.203125 146.242188 361.691406 146.242188 369.691406 Z M -10.089844 304.199219 "/>
</clipPath>
<clipPath id="clip72">
  <path d="M -10.089844 304.199219 L 239.691406 304.199219 L 239.691406 492.082031 L -10.089844 492.082031 Z M -10.089844 304.199219 L 112.335938 426.589844 C 112.335938 434.589844 105.851562 441.078125 97.847656 441.078125 C 89.847656 441.078125 83.359375 434.589844 83.359375 426.589844 C 83.359375 418.585938 89.847656 412.101562 97.847656 412.101562 C 105.851562 412.101562 112.335938 418.585938 112.335938 426.589844 Z M -10.089844 304.199219 "/>
</clipPath>
<clipPath id="clip73">
  <path d="M 90 343.390625 L 191 343.390625 L 191 487.464844 L 90 487.464844 Z M 90 343.390625 "/>
</clipPath>
<clipPath id="clip74">
  <path d="M 8.84375 343.390625 L 272.5 343.390625 L 272.5 487.464844 L 8.84375 487.464844 Z M 8.84375 343.390625 L 146.242188 369.691406 C 146.242188 377.695312 139.757812 384.179688 131.753906 384.179688 C 123.753906 384.179688 117.265625 377.695312 117.265625 369.691406 C 117.265625 361.691406 123.753906 355.203125 131.753906 355.203125 C 139.757812 355.203125 146.242188 361.691406 146.242188 369.691406 Z M 8.84375 343.390625 "/>
</clipPath>
<clipPath id="clip75">
  <path d="M 8.84375 343.390625 L 272.5 343.390625 L 272.5 487.464844 L 8.84375 487.464844 Z M 8.84375 343.390625 L 164.078125 461.164062 C 164.078125 469.164062 157.589844 475.652344 149.589844 475.652344 C 141.585938 475.652344 135.101562 469.164062 135.101562 461.164062 C 135.101562 453.160156 141.585938 446.675781 149.589844 446.675781 C 157.589844 446.675781 164.078125 453.160156 164.078125 461.164062 Z M 8.84375 343.390625 "/>
</clipPath>
<clipPath id="clip76">
  <path d="M 58 200.996094 L 173 200.996094 L 173 399.949219 L 58 399.949219 Z M 58 200.996094 "/>
</clipPath>
<clipPath id="clip77">
  <path d="M -22.097656 200.996094 L 253.824219 200.996094 L 253.824219 399.949219 L -22.097656 399.949219 Z M -22.097656 200.996094 L 146.242188 369.691406 C 146.242188 377.695312 139.757812 384.179688 131.753906 384.179688 C 123.753906 384.179688 117.265625 377.695312 117.265625 369.691406 C 117.265625 361.691406 123.753906 355.203125 131.753906 355.203125 C 139.757812 355.203125 146.242188 361.691406 146.242188 369.691406 Z M -22.097656 200.996094 "/>
</clipPath>
<clipPath id="clip78">
  <path d="M -22.097656 200.996094 L 253.824219 200.996094 L 253.824219 399.949219 L -22.097656 399.949219 Z M -22.097656 200.996094 L 114.460938 231.253906 C 114.460938 239.257812 107.976562 245.742188 99.972656 245.742188 C 91.972656 245.742188 85.484375 239.257812 85.484375 231.253906 C 85.484375 223.253906 91.972656 216.765625 99.972656 216.765625 C 107.976562 216.765625 114.460938 223.253906 114.460938 231.253906 Z M -22.097656 200.996094 "/>
</clipPath>
<clipPath id="clip79">
  <path d="M 336 343 L 458 343 L 458 460 L 336 460 Z M 336 343 "/>
</clipPath>
<clipPath id="clip80">
  <path d="M 293.96875 289.167969 L 500.335938 289.167969 L 500.335938 513.875 L 293.96875 513.875 Z M 293.96875 289.167969 L 391.773438 418.867188 C 391.773438 426.867188 385.289062 433.355469 377.285156 433.355469 C 369.285156 433.355469 362.796875 426.867188 362.796875 418.867188 C 362.796875 410.863281 369.285156 404.378906 377.285156 404.378906 C 385.289062 404.378906 391.773438 410.863281 391.773438 418.867188 Z M 293.96875 289.167969 "/>
</clipPath>
<clipPath id="clip81">
  <path d="M 293.96875 289.167969 L 500.335938 289.167969 L 500.335938 513.875 L 293.96875 513.875 Z M 293.96875 289.167969 L 431.507812 384.175781 C 431.507812 392.179688 425.023438 398.664062 417.019531 398.664062 C 409.019531 398.664062 402.53125 392.179688 402.53125 384.175781 C 402.53125 376.175781 409.019531 369.6875 417.019531 369.6875 C 425.023438 369.6875 431.507812 376.175781 431.507812 384.175781 Z M 293.96875 289.167969 "/>
</clipPath>
<clipPath id="clip82">
  <path d="M 512 288.9375 L 600 288.9375 L 600 406.472656 L 512 406.472656 Z M 512 288.9375 "/>
</clipPath>
<clipPath id="clip83">
  <path d="M 433.980469 288.9375 L 685.347656 288.9375 L 685.347656 406.472656 L 433.980469 406.472656 Z M 433.980469 288.9375 L 580.21875 328.269531 C 580.21875 336.269531 573.730469 342.757812 565.730469 342.757812 C 557.730469 342.757812 551.242188 336.269531 551.242188 328.269531 C 551.242188 320.269531 557.730469 313.78125 565.730469 313.78125 C 573.730469 313.78125 580.21875 320.269531 580.21875 328.269531 Z M 433.980469 288.9375 "/>
</clipPath>
<clipPath id="clip84">
  <path d="M 433.980469 288.9375 L 685.347656 288.9375 L 685.347656 406.472656 L 433.980469 406.472656 Z M 433.980469 288.9375 L 568.085938 367.140625 C 568.085938 375.140625 561.601562 381.628906 553.597656 381.628906 C 545.597656 381.628906 539.109375 375.140625 539.109375 367.140625 C 539.109375 359.136719 545.597656 352.652344 553.597656 352.652344 C 561.601562 352.652344 568.085938 359.136719 568.085938 367.140625 Z M 433.980469 288.9375 "/>
</clipPath>
<clipPath id="clip85">
  <path d="M 444 377 L 571 377 L 571 509 L 444 509 Z M 444 377 "/>
</clipPath>
<clipPath id="clip86">
  <path d="M 391.585938 333.554688 L 623.199219 333.554688 L 623.199219 552.523438 L 391.585938 552.523438 Z M 391.585938 333.554688 L 544.101562 418.46875 C 544.101562 426.472656 537.613281 432.957031 529.613281 432.957031 C 521.609375 432.957031 515.125 426.472656 515.125 418.46875 C 515.125 410.46875 521.609375 403.980469 529.613281 403.980469 C 537.613281 403.980469 544.101562 410.46875 544.101562 418.46875 Z M 391.585938 333.554688 "/>
</clipPath>
<clipPath id="clip87">
  <path d="M 391.585938 333.554688 L 623.199219 333.554688 L 623.199219 552.523438 L 391.585938 552.523438 Z M 391.585938 333.554688 L 499.660156 467.609375 C 499.660156 475.609375 493.171875 482.097656 485.171875 482.097656 C 477.167969 482.097656 470.683594 475.609375 470.683594 467.609375 C 470.683594 459.605469 477.167969 453.121094 485.171875 453.121094 C 493.171875 453.121094 499.660156 459.605469 499.660156 467.609375 Z M 391.585938 333.554688 "/>
</clipPath>
<clipPath id="clip88">
  <path d="M 488 326 L 595 326 L 595 460 L 488 460 Z M 488 326 "/>
</clipPath>
<clipPath id="clip89">
  <path d="M 415.9375 312.480469 L 667.273438 312.480469 L 667.273438 473.128906 L 415.9375 473.128906 Z M 415.9375 312.480469 L 544.101562 418.46875 C 544.101562 426.472656 537.613281 432.957031 529.613281 432.957031 C 521.609375 432.957031 515.125 426.472656 515.125 418.46875 C 515.125 410.46875 521.609375 403.980469 529.613281 403.980469 C 537.613281 403.980469 544.101562 410.46875 544.101562 418.46875 Z M 415.9375 312.480469 "/>
</clipPath>
<clipPath id="clip90">
  <path d="M 415.9375 312.480469 L 667.273438 312.480469 L 667.273438 473.128906 L 415.9375 473.128906 Z M 415.9375 312.480469 L 568.085938 367.140625 C 568.085938 375.140625 561.601562 381.628906 553.597656 381.628906 C 545.597656 381.628906 539.109375 375.140625 539.109375 367.140625 C 539.109375 359.136719 545.597656 352.652344 553.597656 352.652344 C 561.601562 352.652344 568.085938 359.136719 568.085938 367.140625 Z M 415.9375 312.480469 "/>
</clipPath>
<clipPath id="clip91">
  <path d="M 367 486.984375 L 453 486.984375 L 453 554.253906 L 367 554.253906 Z M 367 486.984375 "/>
</clipPath>
<clipPath id="clip92">
  <path d="M 283.945312 486.984375 L 536.757812 486.984375 L 536.757812 554.253906 L 283.945312 554.253906 Z M 283.945312 486.984375 L 423.335938 543.246094 C 423.335938 551.246094 416.847656 557.734375 408.847656 557.734375 C 400.84375 557.734375 394.359375 551.246094 394.359375 543.246094 C 394.359375 535.242188 400.84375 528.757812 408.847656 528.757812 C 416.847656 528.757812 423.335938 535.242188 423.335938 543.246094 Z M 283.945312 486.984375 "/>
</clipPath>
<clipPath id="clip93">
  <path d="M 283.945312 486.984375 L 536.757812 486.984375 L 536.757812 554.253906 L 283.945312 554.253906 Z M 283.945312 486.984375 L 426.34375 497.992188 C 426.34375 505.992188 419.859375 512.480469 411.855469 512.480469 C 403.855469 512.480469 397.367188 505.992188 397.367188 497.992188 C 397.367188 489.988281 403.855469 483.503906 411.855469 483.503906 C 419.859375 483.503906 426.34375 489.988281 426.34375 497.992188 Z M 283.945312 486.984375 "/>
</clipPath>
<clipPath id="clip94">
  <path d="M 370 426 L 527 426 L 527 539 L 370 539 Z M 370 426 "/>
</clipPath>
<clipPath id="clip95">
  <path d="M 362.144531 351.753906 L 534.882812 351.753906 L 534.882812 613.847656 L 362.144531 613.847656 Z M 362.144531 351.753906 L 499.660156 467.609375 C 499.660156 475.609375 493.171875 482.097656 485.171875 482.097656 C 477.167969 482.097656 470.683594 475.609375 470.683594 467.609375 C 470.683594 459.605469 477.167969 453.121094 485.171875 453.121094 C 493.171875 453.121094 499.660156 459.605469 499.660156 467.609375 Z M 362.144531 351.753906 "/>
</clipPath>
<clipPath id="clip96">
  <path d="M 362.144531 351.753906 L 534.882812 351.753906 L 534.882812 613.847656 L 362.144531 613.847656 Z M 362.144531 351.753906 L 426.34375 497.992188 C 426.34375 505.992188 419.859375 512.480469 411.855469 512.480469 C 403.855469 512.480469 397.367188 505.992188 397.367188 497.992188 C 397.367188 489.988281 403.855469 483.503906 411.855469 483.503906 C 419.859375 483.503906 426.34375 489.988281 426.34375 497.992188 Z M 362.144531 351.753906 "/>
</clipPath>
<clipPath id="clip97">
  <path d="M 490 144 L 598 144 L 598 257 L 490 257 Z M 490 144 "/>
</clipPath>
<clipPath id="clip98">
  <path d="M 434.65625 104.074219 L 652.644531 104.074219 L 652.644531 297.335938 L 434.65625 297.335938 Z M 434.65625 104.074219 L 545.546875 185.761719 C 545.546875 193.765625 539.0625 200.25 531.058594 200.25 C 523.058594 200.25 516.570312 193.765625 516.570312 185.761719 C 516.570312 177.761719 523.058594 171.273438 531.058594 171.273438 C 539.0625 171.273438 545.546875 177.761719 545.546875 185.761719 Z M 434.65625 104.074219 "/>
</clipPath>
<clipPath id="clip99">
  <path d="M 434.65625 104.074219 L 652.644531 104.074219 L 652.644531 297.335938 L 434.65625 297.335938 Z M 434.65625 104.074219 L 570.730469 215.648438 C 570.730469 223.648438 564.242188 230.136719 556.242188 230.136719 C 548.238281 230.136719 541.753906 223.648438 541.753906 215.648438 C 541.753906 207.644531 548.238281 201.160156 556.242188 201.160156 C 564.242188 201.160156 570.730469 207.644531 570.730469 215.648438 Z M 434.65625 104.074219 "/>
</clipPath>
<clipPath id="clip100">
  <path d="M 447 105 L 573 105 L 573 227 L 447 227 Z M 447 105 "/>
</clipPath>
<clipPath id="clip101">
  <path d="M 402.703125 53.878906 L 617.007812 53.878906 L 617.007812 278.398438 L 402.703125 278.398438 Z M 402.703125 53.878906 L 545.546875 185.761719 C 545.546875 193.765625 539.0625 200.25 531.058594 200.25 C 523.058594 200.25 516.570312 193.765625 516.570312 185.761719 C 516.570312 177.761719 523.058594 171.273438 531.058594 171.273438 C 539.0625 171.273438 545.546875 177.761719 545.546875 185.761719 Z M 402.703125 53.878906 "/>
</clipPath>
<clipPath id="clip102">
  <path d="M 402.703125 53.878906 L 617.007812 53.878906 L 617.007812 278.398438 L 402.703125 278.398438 Z M 402.703125 53.878906 L 503.140625 146.515625 C 503.140625 154.519531 496.65625 161.003906 488.652344 161.003906 C 480.652344 161.003906 474.164062 154.519531 474.164062 146.515625 C 474.164062 138.515625 480.652344 132.027344 488.652344 132.027344 C 496.65625 132.027344 503.140625 138.515625 503.140625 146.515625 Z M 402.703125 53.878906 "/>
</clipPath>
<clipPath id="clip103">
  <path d="M 81 27 L 188 27 L 188 143 L 81 143 Z M 81 27 "/>
</clipPath>
<clipPath id="clip104">
  <path d="M 20.136719 -5.78125 L 248.984375 -5.78125 L 248.984375 175.535156 L 20.136719 175.535156 Z M 20.136719 -5.78125 L 161.011719 68.097656 C 161.011719 76.101562 154.527344 82.585938 146.523438 82.585938 C 138.523438 82.585938 132.035156 76.101562 132.035156 68.097656 C 132.035156 60.097656 138.523438 53.609375 146.523438 53.609375 C 154.527344 53.609375 161.011719 60.097656 161.011719 68.097656 Z M 20.136719 -5.78125 "/>
</clipPath>
<clipPath id="clip105">
  <path d="M 20.136719 -5.78125 L 248.984375 -5.78125 L 248.984375 175.535156 L 20.136719 175.535156 Z M 20.136719 -5.78125 L 137.085938 101.65625 C 137.085938 109.660156 130.597656 116.144531 122.597656 116.144531 C 114.59375 116.144531 108.109375 109.660156 108.109375 101.65625 C 108.109375 93.65625 114.59375 87.167969 122.597656 87.167969 C 130.597656 87.167969 137.085938 93.65625 137.085938 101.65625 Z M 20.136719 -5.78125 "/>
</clipPath>
<clipPath id="clip106">
  <path d="M 60 60 L 164 60 L 164 195 L 60 195 Z M 60 60 "/>
</clipPath>
<clipPath id="clip107">
  <path d="M -14.78125 52.367188 L 238.628906 52.367188 L 238.628906 203.003906 L -14.78125 203.003906 Z M -14.78125 52.367188 L 137.085938 101.65625 C 137.085938 109.660156 130.597656 116.144531 122.597656 116.144531 C 114.59375 116.144531 108.109375 109.660156 108.109375 101.65625 C 108.109375 93.65625 114.59375 87.167969 122.597656 87.167969 C 130.597656 87.167969 137.085938 93.65625 137.085938 101.65625 Z M -14.78125 52.367188 "/>
</clipPath>
<clipPath id="clip108">
  <path d="M -14.78125 52.367188 L 238.628906 52.367188 L 238.628906 203.003906 L -14.78125 203.003906 Z M -14.78125 52.367188 L 115.738281 153.714844 C 115.738281 161.71875 109.25 168.203125 101.25 168.203125 C 93.246094 168.203125 86.761719 161.71875 86.761719 153.714844 C 86.761719 145.714844 93.246094 139.226562 101.25 139.226562 C 109.25 139.226562 115.738281 145.714844 115.738281 153.714844 Z M -14.78125 52.367188 "/>
</clipPath>
<clipPath id="clip109">
  <path d="M 58 148.800781 L 143 148.800781 L 143 236.167969 L 58 236.167969 Z M 58 148.800781 "/>
</clipPath>
<clipPath id="clip110">
  <path d="M -25.183594 148.800781 L 226.40625 148.800781 L 226.40625 236.167969 L -25.183594 236.167969 Z M -25.183594 148.800781 L 114.460938 231.253906 C 114.460938 239.257812 107.976562 245.742188 99.972656 245.742188 C 91.972656 245.742188 85.484375 239.257812 85.484375 231.253906 C 85.484375 223.253906 91.972656 216.765625 99.972656 216.765625 C 107.976562 216.765625 114.460938 223.253906 114.460938 231.253906 Z M -25.183594 148.800781 "/>
</clipPath>
<clipPath id="clip111">
  <path d="M -25.183594 148.800781 L 226.40625 148.800781 L 226.40625 236.167969 L -25.183594 236.167969 Z M -25.183594 148.800781 L 115.738281 153.714844 C 115.738281 161.71875 109.25 168.203125 101.25 168.203125 C 93.246094 168.203125 86.761719 161.71875 86.761719 153.714844 C 86.761719 145.714844 93.246094 139.226562 101.25 139.226562 C 109.25 139.226562 115.738281 145.714844 115.738281 153.714844 Z M -25.183594 148.800781 "/>
</clipPath>
</defs>
<g id="surface786">
<g clip-path="url(#clip1)" clip-rule="nonzero">
<g clip-path="url(#clip2)" clip-rule="evenodd">
<g clip-path="url(#clip3)" clip-rule="evenodd">
<path style="fill:none;stroke-width:0.0236983;stroke-linecap:butt;stroke-linejoin:miter;stroke:rgb(17.96875%,20.3125%,21.09375%);stroke-opacity:0.8;stroke-miterlimit:10;" d="M 3.102617 2.138211 L 2.672869 3.174215 " transform="matrix(122.273469,0,0,122.273469,-71.641223,-48.098864)"/>
</g>
</g>
</g>
<g clip-path="url(#clip4)" clip-rule="nonzero">
<g clip-path="url(#clip5)" clip-rule="evenodd">
<g clip-path="url(#clip6)" clip-rule="evenodd">
<path style="fill:none;stroke-width:0.0236983;stroke-linecap:butt;stroke-linejoin:miter;stroke:rgb(17.96875%,20.3125%,21.09375%);stroke-opacity:0.8;stroke-miterlimit:10;" d="M 3.102617 2.138211 L 3.236666 1.222232 " transform="matrix(122.273469,0,0,122.273469,-71.641223,-48.098864)"/>
</g>
</g>
</g>
<g clip-path="url(#clip7)" clip-rule="nonzero">
<g clip-path="url(#clip8)" clip-rule="evenodd">
<g clip-path="url(#clip9)" clip-rule="evenodd">
<path style="fill:none;stroke-width:0.0236983;stroke-linecap:butt;stroke-linejoin:miter;stroke:rgb(17.96875%,20.3125%,21.09375%);stroke-opacity:0.8;stroke-miterlimit:10;" d="M 3.102617 2.138211 L 3.469143 2.156389 " transform="matrix(122.273469,0,0,122.273469,-71.641223,-48.098864)"/>
</g>
</g>
</g>
<g clip-path="url(#clip10)" clip-rule="nonzero">
<g clip-path="url(#clip11)" clip-rule="evenodd">
<g clip-path="url(#clip12)" clip-rule="evenodd">
<path style="fill:none;stroke-width:0.0236983;stroke-linecap:butt;stroke-linejoin:miter;stroke:rgb(17.96875%,20.3125%,21.09375%);stroke-opacity:0.8;stroke-miterlimit:10;" d="M 3.26347 4.101696 L 2.92314 4.677378 " transform="matrix(122.273469,0,0,122.273469,-71.641223,-48.098864)"/>
</g>
</g>
</g>
<g clip-path="url(#clip13)" clip-rule="nonzero">
<g clip-path="url(#clip14)" clip-rule="evenodd">
<g clip-path="url(#clip15)" clip-rule="evenodd">
<path style="fill:none;stroke-width:0.0236983;stroke-linecap:butt;stroke-linejoin:miter;stroke:rgb(17.96875%,20.3125%,21.09375%);stroke-opacity:0.8;stroke-miterlimit:10;" d="M 3.26347 4.101696 L 2.672869 3.174215 " transform="matrix(122.273469,0,0,122.273469,-71.641223,-48.098864)"/>
</g>
</g>
</g>
<g clip-path="url(#clip16)" clip-rule="nonzero">
<g clip-path="url(#clip17)" clip-rule="evenodd">
<g clip-path="url(#clip18)" clip-rule="evenodd">
<path style="fill:none;stroke-width:0.0236983;stroke-linecap:butt;stroke-linejoin:miter;stroke:rgb(17.96875%,20.3125%,21.09375%);stroke-opacity:0.8;stroke-miterlimit:10;" d="M 3.26347 4.101696 L 3.671495 3.81903 " transform="matrix(122.273469,0,0,122.273469,-71.641223,-48.098864)"/>
</g>
</g>
</g>
<g clip-path="url(#clip19)" clip-rule="nonzero">
<g clip-path="url(#clip20)" clip-rule="evenodd">
<g clip-path="url(#clip21)" clip-rule="evenodd">
<path style="fill:none;stroke-width:0.0236983;stroke-linecap:butt;stroke-linejoin:miter;stroke:rgb(17.96875%,20.3125%,21.09375%);stroke-opacity:0.8;stroke-miterlimit:10;" d="M 3.26347 4.101696 L 3.954224 4.466145 " transform="matrix(122.273469,0,0,122.273469,-71.641223,-48.098864)"/>
</g>
</g>
</g>
<g clip-path="url(#clip22)" clip-rule="nonzero">
<g clip-path="url(#clip23)" clip-rule="evenodd">
<g clip-path="url(#clip24)" clip-rule="evenodd">
<path style="fill:none;stroke-width:0.0236983;stroke-linecap:butt;stroke-linejoin:miter;stroke:rgb(17.96875%,20.3125%,21.09375%);stroke-opacity:0.8;stroke-miterlimit:10;" d="M 2.69357 4.954964 L 2.92314 4.677378 " transform="matrix(122.273469,0,0,122.273469,-71.641223,-48.098864)"/>
</g>
</g>
</g>
<g clip-path="url(#clip25)" clip-rule="nonzero">
<g clip-path="url(#clip26)" clip-rule="evenodd">
<g clip-path="url(#clip27)" clip-rule="evenodd">
<path style="fill:none;stroke-width:0.0236983;stroke-linecap:butt;stroke-linejoin:miter;stroke:rgb(17.96875%,20.3125%,21.09375%);stroke-opacity:0.8;stroke-miterlimit:10;" d="M 2.672869 3.174215 L 1.663444 3.416851 " transform="matrix(122.273469,0,0,122.273469,-71.641223,-48.098864)"/>
</g>
</g>
</g>
<g clip-path="url(#clip28)" clip-rule="nonzero">
<g clip-path="url(#clip29)" clip-rule="evenodd">
<g clip-path="url(#clip30)" clip-rule="evenodd">
<path style="fill:none;stroke-width:0.0236983;stroke-linecap:butt;stroke-linejoin:miter;stroke:rgb(17.96875%,20.3125%,21.09375%);stroke-opacity:0.8;stroke-miterlimit:10;" d="M 2.672869 3.174215 L 2.327491 2.880145 " transform="matrix(122.273469,0,0,122.273469,-71.641223,-48.098864)"/>
</g>
</g>
</g>
<g clip-path="url(#clip31)" clip-rule="nonzero">
<g clip-path="url(#clip32)" clip-rule="evenodd">
<g clip-path="url(#clip33)" clip-rule="evenodd">
<path style="fill:none;stroke-width:0.0236983;stroke-linecap:butt;stroke-linejoin:miter;stroke:rgb(17.96875%,20.3125%,21.09375%);stroke-opacity:0.8;stroke-miterlimit:10;" d="M 4.034762 1.173705 L 3.236666 1.222232 " transform="matrix(122.273469,0,0,122.273469,-71.641223,-48.098864)"/>
</g>
</g>
</g>
<g clip-path="url(#clip34)" clip-rule="nonzero">
<g clip-path="url(#clip35)" clip-rule="evenodd">
<g clip-path="url(#clip36)" clip-rule="evenodd">
<path style="fill:none;stroke-width:0.0236983;stroke-linecap:butt;stroke-linejoin:miter;stroke:rgb(17.96875%,20.3125%,21.09375%);stroke-opacity:0.8;stroke-miterlimit:10;" d="M 4.034762 1.173705 L 3.946589 0.787659 " transform="matrix(122.273469,0,0,122.273469,-71.641223,-48.098864)"/>
</g>
</g>
</g>
<g clip-path="url(#clip37)" clip-rule="nonzero">
<g clip-path="url(#clip38)" clip-rule="evenodd">
<g clip-path="url(#clip39)" clip-rule="evenodd">
<path style="fill:none;stroke-width:0.0236983;stroke-linecap:butt;stroke-linejoin:miter;stroke:rgb(17.96875%,20.3125%,21.09375%);stroke-opacity:0.8;stroke-miterlimit:10;" d="M 4.034762 1.173705 L 4.373047 1.05122 " transform="matrix(122.273469,0,0,122.273469,-71.641223,-48.098864)"/>
</g>
</g>
</g>
<g clip-path="url(#clip40)" clip-rule="nonzero">
<g clip-path="url(#clip41)" clip-rule="evenodd">
<g clip-path="url(#clip42)" clip-rule="evenodd">
<path style="fill:none;stroke-width:0.0236983;stroke-linecap:butt;stroke-linejoin:miter;stroke:rgb(17.96875%,20.3125%,21.09375%);stroke-opacity:0.8;stroke-miterlimit:10;" d="M 4.034762 1.173705 L 4.582299 1.591633 " transform="matrix(122.273469,0,0,122.273469,-71.641223,-48.098864)"/>
</g>
</g>
</g>
<g clip-path="url(#clip43)" clip-rule="nonzero">
<g clip-path="url(#clip44)" clip-rule="evenodd">
<g clip-path="url(#clip45)" clip-rule="evenodd">
<path style="fill:none;stroke-width:0.0236983;stroke-linecap:butt;stroke-linejoin:miter;stroke:rgb(17.96875%,20.3125%,21.09375%);stroke-opacity:0.8;stroke-miterlimit:10;" d="M 3.236666 1.222232 L 2.801327 0.947808 " transform="matrix(122.273469,0,0,122.273469,-71.641223,-48.098864)"/>
</g>
</g>
</g>
<g clip-path="url(#clip46)" clip-rule="nonzero">
<g clip-path="url(#clip47)" clip-rule="evenodd">
<g clip-path="url(#clip48)" clip-rule="evenodd">
<path style="fill:none;stroke-width:0.0236983;stroke-linecap:butt;stroke-linejoin:miter;stroke:rgb(17.96875%,20.3125%,21.09375%);stroke-opacity:0.8;stroke-miterlimit:10;" d="M 3.236666 1.222232 L 3.100796 0.738812 " transform="matrix(122.273469,0,0,122.273469,-71.641223,-48.098864)"/>
</g>
</g>
</g>
<g clip-path="url(#clip49)" clip-rule="nonzero">
<g clip-path="url(#clip50)" clip-rule="evenodd">
<g clip-path="url(#clip51)" clip-rule="evenodd">
<path style="fill:none;stroke-width:0.0236983;stroke-linecap:butt;stroke-linejoin:miter;stroke:rgb(17.96875%,20.3125%,21.09375%);stroke-opacity:0.8;stroke-miterlimit:10;" d="M 1.789091 2.812641 L 1.29005 3.126934 " transform="matrix(122.273469,0,0,122.273469,-71.641223,-48.098864)"/>
</g>
</g>
</g>
<g clip-path="url(#clip52)" clip-rule="nonzero">
<g clip-path="url(#clip53)" clip-rule="evenodd">
<g clip-path="url(#clip54)" clip-rule="evenodd">
<path style="fill:none;stroke-width:0.0236983;stroke-linecap:butt;stroke-linejoin:miter;stroke:rgb(17.96875%,20.3125%,21.09375%);stroke-opacity:0.8;stroke-miterlimit:10;" d="M 1.789091 2.812641 L 2.327491 2.880145 " transform="matrix(122.273469,0,0,122.273469,-71.641223,-48.098864)"/>
</g>
</g>
</g>
<g clip-path="url(#clip55)" clip-rule="nonzero">
<g clip-path="url(#clip56)" clip-rule="evenodd">
<g clip-path="url(#clip57)" clip-rule="evenodd">
<path style="fill:none;stroke-width:0.0236983;stroke-linecap:butt;stroke-linejoin:miter;stroke:rgb(17.96875%,20.3125%,21.09375%);stroke-opacity:0.8;stroke-miterlimit:10;" d="M 1.29005 3.126934 L 0.866179 2.834077 " transform="matrix(122.273469,0,0,122.273469,-71.641223,-48.098864)"/>
</g>
</g>
</g>
<g clip-path="url(#clip58)" clip-rule="nonzero">
<g clip-path="url(#clip59)" clip-rule="evenodd">
<g clip-path="url(#clip60)" clip-rule="evenodd">
<path style="fill:none;stroke-width:0.0236983;stroke-linecap:butt;stroke-linejoin:miter;stroke:rgb(17.96875%,20.3125%,21.09375%);stroke-opacity:0.8;stroke-miterlimit:10;" d="M 1.29005 3.126934 L 1.294714 3.593517 " transform="matrix(122.273469,0,0,122.273469,-71.641223,-48.098864)"/>
</g>
</g>
</g>
<g clip-path="url(#clip61)" clip-rule="nonzero">
<g clip-path="url(#clip62)" clip-rule="evenodd">
<g clip-path="url(#clip63)" clip-rule="evenodd">
<path style="fill:none;stroke-width:0.0236983;stroke-linecap:butt;stroke-linejoin:miter;stroke:rgb(17.96875%,20.3125%,21.09375%);stroke-opacity:0.8;stroke-miterlimit:10;" d="M 1.29005 3.126934 L 1.663444 3.416851 " transform="matrix(122.273469,0,0,122.273469,-71.641223,-48.098864)"/>
</g>
</g>
</g>
<g clip-path="url(#clip64)" clip-rule="nonzero">
<g clip-path="url(#clip65)" clip-rule="evenodd">
<g clip-path="url(#clip66)" clip-rule="evenodd">
<path style="fill:none;stroke-width:0.0236983;stroke-linecap:butt;stroke-linejoin:miter;stroke:rgb(17.96875%,20.3125%,21.09375%);stroke-opacity:0.8;stroke-miterlimit:10;" d="M 1.294714 3.593517 L 1.663444 3.416851 " transform="matrix(122.273469,0,0,122.273469,-71.641223,-48.098864)"/>
</g>
</g>
</g>
<g clip-path="url(#clip67)" clip-rule="nonzero">
<g clip-path="url(#clip68)" clip-rule="evenodd">
<g clip-path="url(#clip69)" clip-rule="evenodd">
<path style="fill:none;stroke-width:0.0236983;stroke-linecap:butt;stroke-linejoin:miter;stroke:rgb(17.96875%,20.3125%,21.09375%);stroke-opacity:0.8;stroke-miterlimit:10;" d="M 1.294714 3.593517 L 1.386146 3.882189 " transform="matrix(122.273469,0,0,122.273469,-71.641223,-48.098864)"/>
</g>
</g>
</g>
<g clip-path="url(#clip70)" clip-rule="nonzero">
<g clip-path="url(#clip71)" clip-rule="evenodd">
<g clip-path="url(#clip72)" clip-rule="evenodd">
<path style="fill:none;stroke-width:0.0236983;stroke-linecap:butt;stroke-linejoin:miter;stroke:rgb(17.96875%,20.3125%,21.09375%);stroke-opacity:0.8;stroke-miterlimit:10;" d="M 1.663444 3.416851 L 1.386146 3.882189 " transform="matrix(122.273469,0,0,122.273469,-71.641223,-48.098864)"/>
</g>
</g>
</g>
<g clip-path="url(#clip73)" clip-rule="nonzero">
<g clip-path="url(#clip74)" clip-rule="evenodd">
<g clip-path="url(#clip75)" clip-rule="evenodd">
<path style="fill:none;stroke-width:0.0236983;stroke-linecap:butt;stroke-linejoin:miter;stroke:rgb(17.96875%,20.3125%,21.09375%);stroke-opacity:0.8;stroke-miterlimit:10;" d="M 1.663444 3.416851 L 1.809314 4.16495 " transform="matrix(122.273469,0,0,122.273469,-71.641223,-48.098864)"/>
</g>
</g>
</g>
<g clip-path="url(#clip76)" clip-rule="nonzero">
<g clip-path="url(#clip77)" clip-rule="evenodd">
<g clip-path="url(#clip78)" clip-rule="evenodd">
<path style="fill:none;stroke-width:0.0236983;stroke-linecap:butt;stroke-linejoin:miter;stroke:rgb(17.96875%,20.3125%,21.09375%);stroke-opacity:0.8;stroke-miterlimit:10;" d="M 1.663444 3.416851 L 1.403525 2.284656 " transform="matrix(122.273469,0,0,122.273469,-71.641223,-48.098864)"/>
</g>
</g>
</g>
<g clip-path="url(#clip79)" clip-rule="nonzero">
<g clip-path="url(#clip80)" clip-rule="evenodd">
<g clip-path="url(#clip81)" clip-rule="evenodd">
<path style="fill:none;stroke-width:0.0236983;stroke-linecap:butt;stroke-linejoin:miter;stroke:rgb(17.96875%,20.3125%,21.09375%);stroke-opacity:0.8;stroke-miterlimit:10;" d="M 3.671495 3.81903 L 3.996458 3.53531 " transform="matrix(122.273469,0,0,122.273469,-71.641223,-48.098864)"/>
</g>
</g>
</g>
<g clip-path="url(#clip82)" clip-rule="nonzero">
<g clip-path="url(#clip83)" clip-rule="evenodd">
<g clip-path="url(#clip84)" clip-rule="evenodd">
<path style="fill:none;stroke-width:0.0236983;stroke-linecap:butt;stroke-linejoin:miter;stroke:rgb(17.96875%,20.3125%,21.09375%);stroke-opacity:0.8;stroke-miterlimit:10;" d="M 5.212674 3.078087 L 5.113447 3.39599 " transform="matrix(122.273469,0,0,122.273469,-71.641223,-48.098864)"/>
</g>
</g>
</g>
<g clip-path="url(#clip85)" clip-rule="nonzero">
<g clip-path="url(#clip86)" clip-rule="evenodd">
<g clip-path="url(#clip87)" clip-rule="evenodd">
<path style="fill:none;stroke-width:0.0236983;stroke-linecap:butt;stroke-linejoin:miter;stroke:rgb(17.96875%,20.3125%,21.09375%);stroke-opacity:0.8;stroke-miterlimit:10;" d="M 4.917293 3.815771 L 4.553834 4.217663 " transform="matrix(122.273469,0,0,122.273469,-71.641223,-48.098864)"/>
</g>
</g>
</g>
<g clip-path="url(#clip88)" clip-rule="nonzero">
<g clip-path="url(#clip89)" clip-rule="evenodd">
<g clip-path="url(#clip90)" clip-rule="evenodd">
<path style="fill:none;stroke-width:0.0236983;stroke-linecap:butt;stroke-linejoin:miter;stroke:rgb(17.96875%,20.3125%,21.09375%);stroke-opacity:0.8;stroke-miterlimit:10;" d="M 4.917293 3.815771 L 5.113447 3.39599 " transform="matrix(122.273469,0,0,122.273469,-71.641223,-48.098864)"/>
</g>
</g>
</g>
<g clip-path="url(#clip91)" clip-rule="nonzero">
<g clip-path="url(#clip92)" clip-rule="evenodd">
<g clip-path="url(#clip93)" clip-rule="evenodd">
<path style="fill:none;stroke-width:0.0236983;stroke-linecap:butt;stroke-linejoin:miter;stroke:rgb(17.96875%,20.3125%,21.09375%);stroke-opacity:0.8;stroke-miterlimit:10;" d="M 3.929625 4.836249 L 3.954224 4.466145 " transform="matrix(122.273469,0,0,122.273469,-71.641223,-48.098864)"/>
</g>
</g>
</g>
<g clip-path="url(#clip94)" clip-rule="nonzero">
<g clip-path="url(#clip95)" clip-rule="evenodd">
<g clip-path="url(#clip96)" clip-rule="evenodd">
<path style="fill:none;stroke-width:0.0236983;stroke-linecap:butt;stroke-linejoin:miter;stroke:rgb(17.96875%,20.3125%,21.09375%);stroke-opacity:0.8;stroke-miterlimit:10;" d="M 4.553834 4.217663 L 3.954224 4.466145 " transform="matrix(122.273469,0,0,122.273469,-71.641223,-48.098864)"/>
</g>
</g>
</g>
<g clip-path="url(#clip97)" clip-rule="nonzero">
<g clip-path="url(#clip98)" clip-rule="evenodd">
<g clip-path="url(#clip99)" clip-rule="evenodd">
<path style="fill:none;stroke-width:0.0236983;stroke-linecap:butt;stroke-linejoin:miter;stroke:rgb(17.96875%,20.3125%,21.09375%);stroke-opacity:0.8;stroke-miterlimit:10;" d="M 4.929114 1.912603 L 5.135075 2.157028 " transform="matrix(122.273469,0,0,122.273469,-71.641223,-48.098864)"/>
</g>
</g>
</g>
<g clip-path="url(#clip100)" clip-rule="nonzero">
<g clip-path="url(#clip101)" clip-rule="evenodd">
<g clip-path="url(#clip102)" clip-rule="evenodd">
<path style="fill:none;stroke-width:0.0236983;stroke-linecap:butt;stroke-linejoin:miter;stroke:rgb(17.96875%,20.3125%,21.09375%);stroke-opacity:0.8;stroke-miterlimit:10;" d="M 4.929114 1.912603 L 4.582299 1.591633 " transform="matrix(122.273469,0,0,122.273469,-71.641223,-48.098864)"/>
</g>
</g>
</g>
<g clip-path="url(#clip103)" clip-rule="nonzero">
<g clip-path="url(#clip104)" clip-rule="evenodd">
<g clip-path="url(#clip105)" clip-rule="evenodd">
<path style="fill:none;stroke-width:0.0236983;stroke-linecap:butt;stroke-linejoin:miter;stroke:rgb(17.96875%,20.3125%,21.09375%);stroke-opacity:0.8;stroke-miterlimit:10;" d="M 1.784235 0.9503 L 1.588561 1.224756 " transform="matrix(122.273469,0,0,122.273469,-71.641223,-48.098864)"/>
</g>
</g>
</g>
<g clip-path="url(#clip106)" clip-rule="nonzero">
<g clip-path="url(#clip107)" clip-rule="evenodd">
<g clip-path="url(#clip108)" clip-rule="evenodd">
<path style="fill:none;stroke-width:0.0236983;stroke-linecap:butt;stroke-linejoin:miter;stroke:rgb(17.96875%,20.3125%,21.09375%);stroke-opacity:0.8;stroke-miterlimit:10;" d="M 1.588561 1.224756 L 1.413972 1.650511 " transform="matrix(122.273469,0,0,122.273469,-71.641223,-48.098864)"/>
</g>
</g>
</g>
<g clip-path="url(#clip109)" clip-rule="nonzero">
<g clip-path="url(#clip110)" clip-rule="evenodd">
<g clip-path="url(#clip111)" clip-rule="evenodd">
<path style="fill:none;stroke-width:0.0236983;stroke-linecap:butt;stroke-linejoin:miter;stroke:rgb(17.96875%,20.3125%,21.09375%);stroke-opacity:0.8;stroke-miterlimit:10;" d="M 1.403525 2.284656 L 1.413972 1.650511 " transform="matrix(122.273469,0,0,122.273469,-71.641223,-48.098864)"/>
</g>
</g>
</g>
<path style="fill-rule:nonzero;fill:rgb(55.294118%,82.745098%,78.039216%);fill-opacity:1;stroke-width:0.0236983;stroke-linecap:butt;stroke-linejoin:miter;stroke:rgb(60%,60%,60%);stroke-opacity:0.8;stroke-miterlimit:10;" d="M 0.118506 -0.00000190784 C 0.118506 0.0654252 0.0654418 0.118489 0.0000147149 0.118489 C -0.0654443 0.118489 -0.118476 0.0654252 -0.118476 -0.00000190784 C -0.118476 -0.065429 -0.0654443 -0.118493 0.0000147149 -0.118493 C 0.0654418 -0.118493 0.118506 -0.065429 0.118506 -0.00000190784 Z M 0.118506 -0.00000190784 " transform="matrix(122.273469,0,0,122.273469,307.724763,213.34789)"/>
<path style="fill-rule:nonzero;fill:rgb(55.294118%,82.745098%,78.039216%);fill-opacity:1;stroke-width:0.0236983;stroke-linecap:butt;stroke-linejoin:miter;stroke:rgb(60%,60%,60%);stroke-opacity:0.8;stroke-miterlimit:10;" d="M 0.118494 -0.00000214748 C 0.118494 0.0654569 0.0654301 0.118489 0.00000302424 0.118489 C -0.065456 0.118489 -0.118488 0.0654569 -0.118488 -0.00000214748 C -0.118488 -0.0654293 -0.065456 -0.118493 0.00000302424 -0.118493 C 0.0654301 -0.118493 0.118494 -0.0654293 0.118494 -0.00000214748 Z M 0.118494 -0.00000214748 " transform="matrix(122.273469,0,0,122.273469,327.394161,453.42995)"/>
<path style="fill-rule:nonzero;fill:rgb(55.294118%,82.745098%,78.039216%);fill-opacity:1;stroke-width:0.0236983;stroke-linecap:butt;stroke-linejoin:miter;stroke:rgb(60%,60%,60%);stroke-opacity:0.8;stroke-miterlimit:10;" d="M 0.1185 0.000000347128 C 0.1185 0.0654275 0.0654364 0.118491 0.00000930124 0.118491 C -0.0654498 0.118491 -0.118481 0.0654275 -0.118481 0.000000347128 C -0.118481 -0.0654268 -0.0654498 -0.11849 0.00000930124 -0.11849 C 0.0654364 -0.11849 0.1185 -0.0654268 0.1185 0.000000347128 Z M 0.1185 0.000000347128 " transform="matrix(122.273469,0,0,122.273469,257.7098,557.761676)"/>
<path style="fill-rule:nonzero;fill:rgb(55.294118%,82.745098%,78.039216%);fill-opacity:1;stroke-width:0.0236983;stroke-linecap:butt;stroke-linejoin:miter;stroke:rgb(60%,60%,60%);stroke-opacity:0.8;stroke-miterlimit:10;" d="M 0.118503 -0.00000196275 C 0.118503 0.0654251 0.0654397 0.118489 0.000012543 0.118489 C -0.0654465 0.118489 -0.118478 0.0654251 -0.118478 -0.00000196275 C -0.118478 -0.0654291 -0.0654465 -0.118493 0.000012543 -0.118493 C 0.0654397 -0.118493 0.118503 -0.0654291 0.118503 -0.00000196275 Z M 0.118503 -0.00000196275 " transform="matrix(122.273469,0,0,122.273469,285.779716,523.820552)"/>
<path style="fill-rule:nonzero;fill:rgb(55.294118%,82.745098%,78.039216%);fill-opacity:1;stroke-width:0.0236983;stroke-linecap:butt;stroke-linejoin:miter;stroke:rgb(60%,60%,60%);stroke-opacity:0.8;stroke-miterlimit:10;" d="M 0.11849 0.00000617711 C 0.11849 0.0654333 0.0654266 0.118497 -0.000000509278 0.118497 C -0.0654276 0.118497 -0.118491 0.0654333 -0.118491 0.00000617711 C -0.118491 -0.0654529 -0.0654276 -0.118485 -0.000000509278 -0.118485 C 0.0654266 -0.118485 0.11849 -0.0654529 0.11849 0.00000617711 Z M 0.11849 0.00000617711 " transform="matrix(122.273469,0,0,122.273469,255.17975,340.022682)"/>
<path style="fill-rule:nonzero;fill:rgb(100%,92.941176%,43.529412%);fill-opacity:1;stroke-width:0.0236983;stroke-linecap:butt;stroke-linejoin:miter;stroke:rgb(60%,60%,60%);stroke-opacity:0.8;stroke-miterlimit:10;" d="M 0.118502 -0.00000747747 C 0.118502 0.0654516 0.0654387 0.118483 0.0000116367 0.118483 C -0.0654474 0.118483 -0.118479 0.0654516 -0.118479 -0.00000747747 C -0.118479 -0.0654346 -0.0654474 -0.118498 0.0000116367 -0.118498 C 0.0654387 -0.118498 0.118502 -0.0654346 0.118502 -0.00000747747 Z M 0.118502 -0.00000747747 " transform="matrix(122.273469,0,0,122.273469,421.701702,95.414977)"/>
<path style="fill-rule:nonzero;fill:rgb(100%,92.941176%,43.529412%);fill-opacity:1;stroke-width:0.0236983;stroke-linecap:butt;stroke-linejoin:miter;stroke:rgb(60%,60%,60%);stroke-opacity:0.8;stroke-miterlimit:10;" d="M 0.118499 -0.0000114751 C 0.118499 0.0654476 0.0654358 0.118479 0.00000867927 0.118479 C -0.0654504 0.118479 -0.118482 0.0654476 -0.118482 -0.0000114751 C -0.118482 -0.0654386 -0.0654504 -0.118502 0.00000867927 -0.118502 C 0.0654358 -0.118502 0.118499 -0.0654386 0.118499 -0.0000114751 Z M 0.118499 -0.0000114751 " transform="matrix(122.273469,0,0,122.273469,324.116126,101.349059)"/>
<path style="fill-rule:nonzero;fill:rgb(100%,92.941176%,43.529412%);fill-opacity:1;stroke-width:0.0236983;stroke-linecap:butt;stroke-linejoin:miter;stroke:rgb(60%,60%,60%);stroke-opacity:0.8;stroke-miterlimit:10;" d="M 0.118485 -0.0000119682 C 0.118485 0.0654471 0.0654534 0.118479 -0.00000569329 0.118479 C -0.0654328 0.118479 -0.118496 0.0654471 -0.118496 -0.0000119682 C -0.118496 -0.0654391 -0.0654328 -0.118503 -0.00000569329 -0.118503 C 0.0654534 -0.118503 0.118485 -0.0654391 0.118485 -0.0000119682 Z M 0.118485 -0.0000119682 " transform="matrix(122.273469,0,0,122.273469,410.922571,48.212401)"/>
<path style="fill-rule:nonzero;fill:rgb(100%,92.941176%,43.529412%);fill-opacity:1;stroke-width:0.0236983;stroke-linecap:butt;stroke-linejoin:miter;stroke:rgb(60%,60%,60%);stroke-opacity:0.8;stroke-miterlimit:10;" d="M 0.118504 -0.00000436139 C 0.118504 0.0654547 0.0654406 0.118486 0.0000135274 0.118486 C -0.0654455 0.118486 -0.118477 0.0654547 -0.118477 -0.00000436139 C -0.118477 -0.0654315 -0.0654455 -0.118495 0.0000135274 -0.118495 C 0.0654406 -0.118495 0.118504 -0.0654315 0.118504 -0.00000436139 Z M 0.118504 -0.00000436139 " transform="matrix(122.273469,0,0,122.273469,463.064752,80.438033)"/>
<path style="fill-rule:nonzero;fill:rgb(100%,92.941176%,43.529412%);fill-opacity:1;stroke-width:0.0236983;stroke-linecap:butt;stroke-linejoin:miter;stroke:rgb(60%,60%,60%);stroke-opacity:0.8;stroke-miterlimit:10;" d="M 0.118492 0.000000258919 C 0.118492 0.0654274 0.0654288 0.118491 0.00000164759 0.118491 C -0.0654255 0.118491 -0.118489 0.0654274 -0.118489 0.000000258919 C -0.118489 -0.0654269 -0.0654255 -0.118491 0.00000164759 -0.118491 C 0.0654288 -0.118491 0.118492 -0.0654269 0.118492 0.000000258919 Z M 0.118492 0.000000258919 " transform="matrix(122.273469,0,0,122.273469,270.886517,67.792937)"/>
<path style="fill-rule:nonzero;fill:rgb(100%,92.941176%,43.529412%);fill-opacity:1;stroke-width:0.0236983;stroke-linecap:butt;stroke-linejoin:miter;stroke:rgb(60%,60%,60%);stroke-opacity:0.8;stroke-miterlimit:10;" d="M 0.118484 -0.000000347128 C 0.118484 0.0654268 0.0654524 0.11849 -0.0000066862 0.11849 C -0.0654338 0.11849 -0.118497 0.0654268 -0.118497 -0.000000347128 C -0.118497 -0.0654275 -0.0654338 -0.118491 -0.0000066862 -0.118491 C 0.0654524 -0.118491 0.118484 -0.0654275 0.118484 -0.000000347128 Z M 0.118484 -0.000000347128 " transform="matrix(122.273469,0,0,122.273469,307.504724,42.238324)"/>
<path style="fill-rule:nonzero;fill:rgb(55.294118%,82.745098%,78.039216%);fill-opacity:1;stroke-width:0.0236983;stroke-linecap:butt;stroke-linejoin:miter;stroke:rgb(60%,60%,60%);stroke-opacity:0.8;stroke-miterlimit:10;" d="M 0.118502 0.0000147247 C 0.118502 0.0654418 0.065438 0.118506 0.0000108877 0.118506 C -0.0654482 0.118506 -0.11848 0.0654418 -0.11848 0.0000147247 C -0.11848 -0.0654443 -0.0654482 -0.118476 0.0000108877 -0.118476 C 0.065438 -0.118476 0.118502 -0.0654443 0.118502 0.0000147247 Z M 0.118502 0.0000147247 " transform="matrix(122.273469,0,0,122.273469,147.115856,295.8107)"/>
<path style="fill-rule:nonzero;fill:rgb(55.294118%,82.745098%,78.039216%);fill-opacity:1;stroke-width:0.0236983;stroke-linecap:butt;stroke-linejoin:miter;stroke:rgb(60%,60%,60%);stroke-opacity:0.8;stroke-miterlimit:10;" d="M 0.118484 -0.0000116576 C 0.118484 0.0654474 0.0654524 0.118479 -0.00000666234 0.118479 C -0.0654338 0.118479 -0.118497 0.0654474 -0.118497 -0.0000116576 C -0.118497 -0.0654388 -0.0654338 -0.118502 -0.00000666234 -0.118502 C 0.0654524 -0.118502 0.118484 -0.0654388 0.118484 -0.0000116576 Z M 0.118484 -0.0000116576 " transform="matrix(122.273469,0,0,122.273469,86.098471,334.243613)"/>
<path style="fill-rule:nonzero;fill:rgb(55.294118%,82.745098%,78.039216%);fill-opacity:1;stroke-width:0.0236983;stroke-linecap:butt;stroke-linejoin:miter;stroke:rgb(60%,60%,60%);stroke-opacity:0.8;stroke-miterlimit:10;" d="M 0.118491 -0.000000537795 C 0.118491 0.0654266 0.0654272 0.11849 0.000000116478 0.11849 C -0.065427 0.11849 -0.118491 0.0654266 -0.118491 -0.000000537795 C -0.118491 -0.0654277 -0.065427 -0.118491 0.000000116478 -0.118491 C 0.0654272 -0.118491 0.118491 -0.0654277 0.118491 -0.000000537795 Z M 0.118491 -0.000000537795 " transform="matrix(122.273469,0,0,122.273469,34.269517,298.43366)"/>
<path style="fill-rule:nonzero;fill:rgb(55.294118%,82.745098%,78.039216%);fill-opacity:1;stroke-width:0.0236983;stroke-linecap:butt;stroke-linejoin:miter;stroke:rgb(60%,60%,60%);stroke-opacity:0.8;stroke-miterlimit:10;" d="M 0.118482 0.00000633651 C 0.118482 0.0654334 0.0654504 0.118497 -0.00000870479 0.118497 C -0.0654358 0.118497 -0.1185 0.0654334 -0.1185 0.00000633651 C -0.1185 -0.0654527 -0.0654358 -0.118484 -0.00000870479 -0.118484 C 0.0654504 -0.118484 0.118482 -0.0654527 0.118482 0.00000633651 Z M 0.118482 0.00000633651 " transform="matrix(122.273469,0,0,122.273469,86.669033,391.292194)"/>
<path style="fill-rule:nonzero;fill:rgb(55.294118%,82.745098%,78.039216%);fill-opacity:1;stroke-width:0.0236983;stroke-linecap:butt;stroke-linejoin:miter;stroke:rgb(60%,60%,60%);stroke-opacity:0.8;stroke-miterlimit:10;" d="M 0.118476 -0.00000271425 C 0.118476 0.0654563 0.0654446 0.118488 -0.0000144354 0.118488 C -0.0654415 0.118488 -0.118505 0.0654563 -0.118505 -0.00000271425 C -0.118505 -0.0654298 -0.0654415 -0.118494 -0.0000144354 -0.118494 C 0.0654446 -0.118494 0.118476 -0.0654298 0.118476 -0.00000271425 Z M 0.118476 -0.00000271425 " transform="matrix(122.273469,0,0,122.273469,131.755671,369.691738)"/>
<path style="fill-rule:nonzero;fill:rgb(55.294118%,82.745098%,78.039216%);fill-opacity:1;stroke-width:0.0236983;stroke-linecap:butt;stroke-linejoin:miter;stroke:rgb(60%,60%,60%);stroke-opacity:0.8;stroke-miterlimit:10;" d="M 0.118476 0.0000064268 C 0.118476 0.0654335 0.0654447 0.118497 -0.0000143805 0.118497 C -0.0654415 0.118497 -0.118505 0.0654335 -0.118505 0.0000064268 C -0.118505 -0.0654526 -0.0654415 -0.118484 -0.0000143805 -0.118484 C 0.0654447 -0.118484 0.118476 -0.0654526 0.118476 0.0000064268 Z M 0.118476 0.0000064268 " transform="matrix(122.273469,0,0,122.273469,212.950977,304.06562)"/>
<path style="fill-rule:nonzero;fill:rgb(55.294118%,82.745098%,78.039216%);fill-opacity:1;stroke-width:0.0236983;stroke-linecap:butt;stroke-linejoin:miter;stroke:rgb(60%,60%,60%);stroke-opacity:0.8;stroke-miterlimit:10;" d="M 0.118478 0.00000406647 C 0.118478 0.0654312 0.0654463 0.118495 -0.000012731 0.118495 C -0.0654398 0.118495 -0.118504 0.0654312 -0.118504 0.00000406647 C -0.118504 -0.065455 -0.0654398 -0.118487 -0.000012731 -0.118487 C 0.0654463 -0.118487 0.118478 -0.065455 0.118478 0.00000406647 Z M 0.118478 0.00000406647 " transform="matrix(122.273469,0,0,122.273469,97.849213,426.589347)"/>
<path style="fill-rule:nonzero;fill:rgb(55.294118%,82.745098%,78.039216%);fill-opacity:1;stroke-width:0.0236983;stroke-linecap:butt;stroke-linejoin:miter;stroke:rgb(60%,60%,60%);stroke-opacity:0.8;stroke-miterlimit:10;" d="M 0.118483 0.0000143089 C 0.118483 0.0654414 0.0654516 0.118505 -0.00000749664 0.118505 C -0.0654346 0.118505 -0.118498 0.0654414 -0.118498 0.0000143089 C -0.118498 -0.0654448 -0.0654346 -0.118476 -0.00000749664 -0.118476 C 0.0654516 -0.118476 0.118483 -0.0654448 0.118483 0.0000143089 Z M 0.118483 0.0000143089 " transform="matrix(122.273469,0,0,122.273469,377.286073,418.865438)"/>
<path style="fill-rule:nonzero;fill:rgb(55.294118%,82.745098%,78.039216%);fill-opacity:1;stroke-width:0.0236983;stroke-linecap:butt;stroke-linejoin:miter;stroke:rgb(60%,60%,60%);stroke-opacity:0.8;stroke-miterlimit:10;" d="M 0.118488 -0.0000120969 C 0.118488 0.065447 0.0654562 0.118479 -0.00000290636 0.118479 C -0.06543 0.118479 -0.118494 0.065447 -0.118494 -0.0000120969 C -0.118494 -0.0654392 -0.06543 -0.118503 -0.00000290636 -0.118503 C 0.0654562 -0.118503 0.118488 -0.0654392 0.118488 -0.0000120969 Z M 0.118488 -0.0000120969 " transform="matrix(122.273469,0,0,122.273469,417.019887,384.17726)"/>
<path style="fill-rule:nonzero;fill:rgb(55.294118%,82.745098%,78.039216%);fill-opacity:1;stroke-width:0.0236983;stroke-linecap:butt;stroke-linejoin:miter;stroke:rgb(60%,60%,60%);stroke-opacity:0.8;stroke-miterlimit:10;" d="M 0.118477 -0.0000056906 C 0.118477 0.0654534 0.0654457 0.118485 -0.0000133414 0.118485 C -0.0654405 0.118485 -0.118504 0.0654534 -0.118504 -0.0000056906 C -0.118504 -0.0654328 -0.0654405 -0.118496 -0.0000133414 -0.118496 C 0.0654457 -0.118496 0.118477 -0.0654328 0.118477 -0.0000056906 Z M 0.118477 -0.0000056906 " transform="matrix(122.273469,0,0,122.273469,352.5446,215.571008)"/>
<path style="fill-rule:nonzero;fill:rgb(55.294118%,82.745098%,78.039216%);fill-opacity:1;stroke-width:0.0236983;stroke-linecap:butt;stroke-linejoin:miter;stroke:rgb(60%,60%,60%);stroke-opacity:0.8;stroke-miterlimit:10;" d="M 0.118491 0.0000011091 C 0.118491 0.0654282 0.065427 0.118492 -0.000000116478 0.118492 C -0.0654272 0.118492 -0.118491 0.0654282 -0.118491 0.0000011091 C -0.118491 -0.065426 -0.0654272 -0.11849 -0.000000116478 -0.11849 C 0.065427 -0.11849 0.118491 -0.065426 0.118491 0.0000011091 Z M 0.118491 0.0000011091 " transform="matrix(122.273469,0,0,122.273469,565.730483,328.269396)"/>
<path style="fill-rule:nonzero;fill:rgb(55.294118%,82.745098%,78.039216%);fill-opacity:1;stroke-width:0.0236983;stroke-linecap:butt;stroke-linejoin:miter;stroke:rgb(60%,60%,60%);stroke-opacity:0.8;stroke-miterlimit:10;" d="M 0.118499 -0.0000021748 C 0.118499 0.0654569 0.0654354 0.118489 0.00000824044 0.118489 C -0.0654508 0.118489 -0.118483 0.0654569 -0.118483 -0.0000021748 C -0.118483 -0.0654293 -0.0654508 -0.118493 0.00000824044 -0.118493 C 0.0654354 -0.118493 0.118499 -0.0654293 0.118499 -0.0000021748 Z M 0.118499 -0.0000021748 " transform="matrix(122.273469,0,0,122.273469,529.612274,418.469016)"/>
<path style="fill-rule:nonzero;fill:rgb(55.294118%,82.745098%,78.039216%);fill-opacity:1;stroke-width:0.0236983;stroke-linecap:butt;stroke-linejoin:miter;stroke:rgb(60%,60%,60%);stroke-opacity:0.8;stroke-miterlimit:10;" d="M 0.118501 0.00000771136 C 0.118501 0.0654348 0.0654378 0.118499 0.0000106641 0.118499 C -0.0654484 0.118499 -0.11848 0.0654348 -0.11848 0.00000771136 C -0.11848 -0.0654513 -0.0654484 -0.118483 0.0000106641 -0.118483 C 0.0654378 -0.118483 0.118501 -0.0654513 0.118501 0.00000771136 Z M 0.118501 0.00000771136 " transform="matrix(122.273469,0,0,122.273469,408.846352,543.245151)"/>
<path style="fill-rule:nonzero;fill:rgb(55.294118%,82.745098%,78.039216%);fill-opacity:1;stroke-width:0.0236983;stroke-linecap:butt;stroke-linejoin:miter;stroke:rgb(60%,60%,60%);stroke-opacity:0.8;stroke-miterlimit:10;" d="M 0.118497 0.0000141058 C 0.118497 0.0654412 0.0654334 0.118505 0.00000625015 0.118505 C -0.0654528 0.118505 -0.118485 0.0654412 -0.118485 0.0000141058 C -0.118485 -0.065445 -0.0654528 -0.118477 0.00000625015 -0.118477 C 0.0654334 -0.118477 0.118497 -0.065445 0.118497 0.0000141058 Z M 0.118497 0.0000141058 " transform="matrix(122.273469,0,0,122.273469,485.171111,467.60765)"/>
<path style="fill-rule:nonzero;fill:rgb(55.294118%,82.745098%,78.039216%);fill-opacity:1;stroke-width:0.0236983;stroke-linecap:butt;stroke-linejoin:miter;stroke:rgb(60%,60%,60%);stroke-opacity:0.8;stroke-miterlimit:10;" d="M 0.118484 0.00000693378 C 0.118484 0.065434 0.0654523 0.118498 -0.0000067207 0.118498 C -0.0654338 0.118498 -0.118498 0.065434 -0.118498 0.00000693378 C -0.118498 -0.0654521 -0.0654338 -0.118484 -0.0000067207 -0.118484 C 0.0654523 -0.118484 0.118484 -0.0654521 0.118484 0.00000693378 Z M 0.118484 0.00000693378 " transform="matrix(122.273469,0,0,122.273469,411.856291,497.99134)"/>
<path style="fill-rule:nonzero;fill:rgb(55.294118%,82.745098%,78.039216%);fill-opacity:1;stroke-width:0.0236983;stroke-linecap:butt;stroke-linejoin:miter;stroke:rgb(60%,60%,60%);stroke-opacity:0.8;stroke-miterlimit:10;" d="M 0.11848 0.00000898293 C 0.11848 0.0654361 0.0654487 0.1185 -0.0000103831 0.1185 C -0.0654375 0.1185 -0.118501 0.0654361 -0.118501 0.00000898293 C -0.118501 -0.0654501 -0.0654375 -0.118482 -0.0000103831 -0.118482 C 0.0654487 -0.118482 0.11848 -0.0654501 0.11848 0.00000898293 Z M 0.11848 0.00000898293 " transform="matrix(122.273469,0,0,122.273469,553.598926,367.139527)"/>
<path style="fill-rule:nonzero;fill:rgb(100%,92.941176%,43.529412%);fill-opacity:1;stroke-width:0.0236983;stroke-linecap:butt;stroke-linejoin:miter;stroke:rgb(60%,60%,60%);stroke-opacity:0.8;stroke-miterlimit:10;" d="M 0.118482 -0.00000830793 C 0.118482 0.0654508 0.0654499 0.118482 -0.00000917201 0.118482 C -0.0654363 0.118482 -0.1185 0.0654508 -0.1185 -0.00000830793 C -0.1185 -0.0654354 -0.0654363 -0.118499 -0.00000917201 -0.118499 C 0.0654499 -0.118499 0.118482 -0.0654354 0.118482 -0.00000830793 Z M 0.118482 -0.00000830793 " transform="matrix(122.273469,0,0,122.273469,531.059715,185.762735)"/>
<path style="fill-rule:nonzero;fill:rgb(100%,92.941176%,43.529412%);fill-opacity:1;stroke-width:0.0236983;stroke-linecap:butt;stroke-linejoin:miter;stroke:rgb(60%,60%,60%);stroke-opacity:0.8;stroke-miterlimit:10;" d="M 0.118495 0.0000143679 C 0.118495 0.0654415 0.0654316 0.118505 0.00000449112 0.118505 C -0.0654546 0.118505 -0.118486 0.0654415 -0.118486 0.0000143679 C -0.118486 -0.0654447 -0.0654546 -0.118476 0.00000449112 -0.118476 C 0.0654316 -0.118476 0.118495 -0.0654447 0.118495 0.0000143679 Z M 0.118495 0.0000143679 " transform="matrix(122.273469,0,0,122.273469,556.241638,215.646681)"/>
<path style="fill-rule:nonzero;fill:rgb(100%,92.941176%,43.529412%);fill-opacity:1;stroke-width:0.0236983;stroke-linecap:butt;stroke-linejoin:miter;stroke:rgb(60%,60%,60%);stroke-opacity:0.8;stroke-miterlimit:10;" d="M 0.118481 -0.0000152831 C 0.118481 0.0654438 0.0654497 0.118476 -0.0000093178 0.118476 C -0.0654364 0.118476 -0.1185 0.0654438 -0.1185 -0.0000152831 C -0.1185 -0.0654424 -0.0654364 -0.118506 -0.0000093178 -0.118506 C 0.0654497 -0.118506 0.118481 -0.0654424 0.118481 -0.0000152831 Z M 0.118481 -0.0000152831 " transform="matrix(122.273469,0,0,122.273469,488.653483,146.517494)"/>
<path style="fill-rule:nonzero;fill:rgb(55.294118%,82.745098%,78.039216%);fill-opacity:1;stroke-width:0.0236983;stroke-linecap:butt;stroke-linejoin:miter;stroke:rgb(60%,60%,60%);stroke-opacity:0.8;stroke-miterlimit:10;" d="M 0.118502 0.00000602692 C 0.118502 0.0654331 0.0654387 0.118497 0.0000115574 0.118497 C -0.0654475 0.118497 -0.118479 0.0654331 -0.118479 0.00000602692 C -0.118479 -0.065453 -0.0654475 -0.118485 0.0000115574 -0.118485 C 0.0654387 -0.118485 0.118502 -0.065453 0.118502 0.00000602692 Z M 0.118502 0.00000602692 " transform="matrix(122.273469,0,0,122.273469,149.588431,461.163326)"/>
<path style="fill-rule:nonzero;fill:rgb(55.294118%,82.745098%,78.039216%);fill-opacity:1;stroke-width:0.0236983;stroke-linecap:butt;stroke-linejoin:miter;stroke:rgb(60%,60%,60%);stroke-opacity:0.8;stroke-miterlimit:10;" d="M 0.118481 -0.00000777129 C 0.118481 0.0654513 0.0654496 0.118483 -0.00000950113 0.118483 C -0.0654366 0.118483 -0.1185 0.0654513 -0.1185 -0.00000777129 C -0.1185 -0.0654349 -0.0654366 -0.118499 -0.00000950113 -0.118499 C 0.0654496 -0.118499 0.118481 -0.0654349 0.118481 -0.00000777129 Z M 0.118481 -0.00000777129 " transform="matrix(122.273469,0,0,122.273469,146.524599,68.098606)"/>
<path style="fill-rule:nonzero;fill:rgb(55.294118%,82.745098%,78.039216%);fill-opacity:1;stroke-width:0.0236983;stroke-linecap:butt;stroke-linejoin:miter;stroke:rgb(60%,60%,60%);stroke-opacity:0.8;stroke-miterlimit:10;" d="M 0.118495 -0.0000135512 C 0.118495 0.0654455 0.0654314 0.118477 0.00000427 0.118477 C -0.0654548 0.118477 -0.118487 0.0654455 -0.118487 -0.0000135512 C -0.118487 -0.0654407 -0.0654548 -0.118504 0.00000427 -0.118504 C 0.0654314 -0.118504 0.118495 -0.0654407 0.118495 -0.0000135512 Z M 0.118495 -0.0000135512 " transform="matrix(122.273469,0,0,122.273469,122.597134,101.657907)"/>
<path style="fill-rule:nonzero;fill:rgb(55.294118%,82.745098%,78.039216%);fill-opacity:1;stroke-width:0.0236983;stroke-linecap:butt;stroke-linejoin:miter;stroke:rgb(60%,60%,60%);stroke-opacity:0.8;stroke-miterlimit:10;" d="M 0.118477 -0.0000099792 C 0.118477 0.0654491 0.0654449 0.118481 -0.000014165 0.118481 C -0.0654413 0.118481 -0.118505 0.0654491 -0.118505 -0.0000099792 C -0.118505 -0.0654371 -0.0654413 -0.118501 -0.000014165 -0.118501 C 0.0654449 -0.118501 0.118477 -0.0654371 0.118477 -0.0000099792 Z M 0.118477 -0.0000099792 " transform="matrix(122.273469,0,0,122.273469,99.974388,231.255126)"/>
<path style="fill-rule:nonzero;fill:rgb(55.294118%,82.745098%,78.039216%);fill-opacity:1;stroke-width:0.0236983;stroke-linecap:butt;stroke-linejoin:miter;stroke:rgb(60%,60%,60%);stroke-opacity:0.8;stroke-miterlimit:10;" d="M 0.118496 -0.00000866013 C 0.118496 0.0654504 0.0654327 0.118482 0.00000557223 0.118482 C -0.0654535 0.118482 -0.118485 0.0654504 -0.118485 -0.00000866013 C -0.118485 -0.0654358 -0.0654535 -0.118499 0.00000557223 -0.118499 C 0.0654327 -0.118499 0.118496 -0.0654358 0.118496 -0.00000866013 Z M 0.118496 -0.00000866013 " transform="matrix(122.273469,0,0,122.273469,101.249319,153.715903)"/>
</g>
</svg>
