<?xml version="1.0" encoding="UTF-8"?>
<svg xmlns="http://www.w3.org/2000/svg" xmlns:xlink="http://www.w3.org/1999/xlink" width="600pt" height="600pt" viewBox="0 0 600 600" version="1.1">
<defs>
<clipPath id="clip1">
  <path d="M 340 439 L 489 439 L 489 569 L 340 569 Z M 340 439 "/>
</clipPath>
<clipPath id="clip2">
  <path d="M 308.160156 377.589844 L 520.667969 377.589844 L 520.667969 629.847656 L 308.160156 629.847656 Z M 308.160156 377.589844 L 396.613281 526.683594 C 396.613281 534.800781 390.03125 541.382812 381.914062 541.382812 C 373.792969 541.382812 367.214844 534.800781 367.214844 526.683594 C 367.214844 518.566406 373.792969 511.984375 381.914062 511.984375 C 390.03125 511.984375 396.613281 518.566406 396.613281 526.683594 Z M 308.160156 377.589844 "/>
</clipPath>
<clipPath id="clip3">
  <path d="M 308.160156 377.589844 L 520.667969 377.589844 L 520.667969 629.847656 L 308.160156 629.847656 Z M 308.160156 377.589844 L 461.617188 480.757812 C 461.617188 488.875 455.035156 495.457031 446.917969 495.457031 C 438.796875 495.457031 432.21875 488.875 432.21875 480.757812 C 432.21875 472.640625 438.796875 466.058594 446.917969 466.058594 C 455.035156 466.058594 461.617188 472.640625 461.617188 480.757812 Z M 308.160156 377.589844 "/>
</clipPath>
<clipPath id="clip4">
  <path d="M 327 485 L 424 485 L 424 600 L 327 600 Z M 327 485 "/>
</clipPath>
<clipPath id="clip5">
  <path d="M 251.707031 478.214844 L 498.8125 478.214844 L 498.8125 608.453125 L 251.707031 608.453125 Z M 251.707031 478.214844 L 396.613281 526.683594 C 396.613281 534.800781 390.03125 541.382812 381.914062 541.382812 C 373.792969 541.382812 367.214844 534.800781 367.214844 526.683594 C 367.214844 518.566406 373.792969 511.984375 381.914062 511.984375 C 390.03125 511.984375 396.613281 518.566406 396.613281 526.683594 Z M 251.707031 478.214844 "/>
</clipPath>
<clipPath id="clip6">
  <path d="M 251.707031 478.214844 L 498.8125 478.214844 L 498.8125 608.453125 L 251.707031 608.453125 Z M 251.707031 478.214844 L 383.3125 559.988281 C 383.3125 568.105469 376.730469 574.6875 368.609375 574.6875 C 360.492188 574.6875 353.910156 568.105469 353.910156 559.988281 C 353.910156 551.871094 360.492188 545.289062 368.609375 545.289062 C 376.730469 545.289062 383.3125 551.871094 383.3125 559.988281 Z M 251.707031 478.214844 "/>
</clipPath>
<clipPath id="clip7">
  <path d="M 299.109375 485 L 409.3125 485 L 409.3125 580 L 299.109375 580 Z M 299.109375 485 "/>
</clipPath>
<clipPath id="clip8">
  <path d="M 299.109375 403.488281 L 409.3125 403.488281 L 409.3125 661.144531 L 299.109375 661.144531 Z M 299.109375 403.488281 L 396.613281 526.683594 C 396.613281 534.800781 390.03125 541.382812 381.914062 541.382812 C 373.792969 541.382812 367.214844 534.800781 367.214844 526.683594 C 367.214844 518.566406 373.792969 511.984375 381.914062 511.984375 C 390.03125 511.984375 396.613281 518.566406 396.613281 526.683594 Z M 299.109375 403.488281 "/>
</clipPath>
<clipPath id="clip9">
  <path d="M 299.109375 403.488281 L 409.3125 403.488281 L 409.3125 661.144531 L 299.109375 661.144531 Z M 299.109375 403.488281 L 341.210938 537.953125 C 341.210938 546.074219 334.628906 552.652344 326.511719 552.652344 C 318.390625 552.652344 311.8125 546.074219 311.8125 537.953125 C 311.8125 529.835938 318.390625 523.253906 326.511719 523.253906 C 334.628906 523.253906 341.210938 529.835938 341.210938 537.953125 Z M 299.109375 403.488281 "/>
</clipPath>
<clipPath id="clip10">
  <path d="M 385 343 L 490 343 L 490 480 L 385 480 Z M 385 343 "/>
</clipPath>
<clipPath id="clip11">
  <path d="M 310.023438 337.789062 L 565.203125 337.789062 L 565.203125 485.601562 L 310.023438 485.601562 Z M 310.023438 337.789062 L 442.019531 385.257812 C 442.019531 393.375 435.4375 399.957031 427.320312 399.957031 C 419.203125 399.957031 412.621094 393.375 412.621094 385.257812 C 412.621094 377.140625 419.203125 370.558594 427.320312 370.558594 C 435.4375 370.558594 442.019531 377.140625 442.019531 385.257812 Z M 310.023438 337.789062 "/>
</clipPath>
<clipPath id="clip12">
  <path d="M 310.023438 337.789062 L 565.203125 337.789062 L 565.203125 485.601562 L 310.023438 485.601562 Z M 310.023438 337.789062 L 462.609375 438.136719 C 462.609375 446.253906 456.027344 452.835938 447.910156 452.835938 C 439.792969 452.835938 433.210938 446.253906 433.210938 438.136719 C 433.210938 430.015625 439.792969 423.4375 447.910156 423.4375 C 456.027344 423.4375 462.609375 430.015625 462.609375 438.136719 Z M 310.023438 337.789062 "/>
</clipPath>
<clipPath id="clip13">
  <path d="M 385 343 L 524 343 L 524 474 L 385 474 Z M 385 343 "/>
</clipPath>
<clipPath id="clip14">
  <path d="M 344.355469 289.277344 L 564.976562 289.277344 L 564.976562 528.277344 L 344.355469 528.277344 Z M 344.355469 289.277344 L 442.019531 385.257812 C 442.019531 393.375 435.4375 399.957031 427.320312 399.957031 C 419.203125 399.957031 412.621094 393.375 412.621094 385.257812 C 412.621094 377.140625 419.203125 370.558594 427.320312 370.558594 C 435.4375 370.558594 442.019531 377.140625 442.019531 385.257812 Z M 344.355469 289.277344 "/>
</clipPath>
<clipPath id="clip15">
  <path d="M 344.355469 289.277344 L 564.976562 289.277344 L 564.976562 528.277344 L 344.355469 528.277344 Z M 344.355469 289.277344 L 496.714844 432.300781 C 496.714844 440.417969 490.132812 447 482.015625 447 C 473.898438 447 467.316406 440.417969 467.316406 432.300781 C 467.316406 424.179688 473.898438 417.601562 482.015625 417.601562 C 490.132812 417.601562 496.714844 424.179688 496.714844 432.300781 Z M 344.355469 289.277344 "/>
</clipPath>
<clipPath id="clip16">
  <path d="M 290 250 L 469 250 L 469 427 L 290 427 Z M 290 250 "/>
</clipPath>
<clipPath id="clip17">
  <path d="M 243.359375 201.398438 L 516.441406 201.398438 L 516.441406 475.554688 L 243.359375 475.554688 Z M 243.359375 201.398438 L 442.019531 385.257812 C 442.019531 393.375 435.4375 399.957031 427.320312 399.957031 C 419.203125 399.957031 412.621094 393.375 412.621094 385.257812 C 412.621094 377.140625 419.203125 370.558594 427.320312 370.558594 C 435.4375 370.558594 442.019531 377.140625 442.019531 385.257812 Z M 243.359375 201.398438 "/>
</clipPath>
<clipPath id="clip18">
  <path d="M 243.359375 201.398438 L 516.441406 201.398438 L 516.441406 475.554688 L 243.359375 475.554688 Z M 243.359375 201.398438 L 347.183594 291.699219 C 347.183594 299.816406 340.605469 306.398438 332.484375 306.398438 C 324.367188 306.398438 317.785156 299.816406 317.785156 291.699219 C 317.785156 283.578125 324.367188 277 332.484375 277 C 340.605469 277 347.183594 283.578125 347.183594 291.699219 Z M 243.359375 201.398438 "/>
</clipPath>
<clipPath id="clip19">
  <path d="M 405 432.339844 L 490 432.339844 L 490 486.550781 L 405 486.550781 Z M 405 432.339844 "/>
</clipPath>
<clipPath id="clip20">
  <path d="M 321.292969 432.339844 L 573.53125 432.339844 L 573.53125 486.550781 L 321.292969 486.550781 Z M 321.292969 432.339844 L 462.609375 438.136719 C 462.609375 446.253906 456.027344 452.835938 447.910156 452.835938 C 439.792969 452.835938 433.210938 446.253906 433.210938 438.136719 C 433.210938 430.015625 439.792969 423.4375 447.910156 423.4375 C 456.027344 423.4375 462.609375 430.015625 462.609375 438.136719 Z M 321.292969 432.339844 "/>
</clipPath>
<clipPath id="clip21">
  <path d="M 321.292969 432.339844 L 573.53125 432.339844 L 573.53125 486.550781 L 321.292969 486.550781 Z M 321.292969 432.339844 L 461.617188 480.757812 C 461.617188 488.875 455.035156 495.457031 446.917969 495.457031 C 438.796875 495.457031 432.21875 488.875 432.21875 480.757812 C 432.21875 472.640625 438.796875 466.058594 446.917969 466.058594 C 455.035156 466.058594 461.617188 472.640625 461.617188 480.757812 Z M 321.292969 432.339844 "/>
</clipPath>
<clipPath id="clip22">
  <path d="M 405 390 L 524 390 L 524 523 L 405 523 Z M 405 390 "/>
</clipPath>
<clipPath id="clip23">
  <path d="M 344.589844 357.375 L 584.339844 357.375 L 584.339844 555.679688 L 344.589844 555.679688 Z M 344.589844 357.375 L 461.617188 480.757812 C 461.617188 488.875 455.035156 495.457031 446.917969 495.457031 C 438.796875 495.457031 432.21875 488.875 432.21875 480.757812 C 432.21875 472.640625 438.796875 466.058594 446.917969 466.058594 C 455.035156 466.058594 461.617188 472.640625 461.617188 480.757812 Z M 344.589844 357.375 "/>
</clipPath>
<clipPath id="clip24">
  <path d="M 344.589844 357.375 L 584.339844 357.375 L 584.339844 555.679688 L 344.589844 555.679688 Z M 344.589844 357.375 L 496.714844 432.300781 C 496.714844 440.417969 490.132812 447 482.015625 447 C 473.898438 447 467.316406 440.417969 467.316406 432.300781 C 467.316406 424.179688 473.898438 417.601562 482.015625 417.601562 C 490.132812 417.601562 496.714844 424.179688 496.714844 432.300781 Z M 344.589844 357.375 "/>
</clipPath>
<clipPath id="clip25">
  <path d="M 123 285 L 236 285 L 236 390 L 123 390 Z M 123 285 "/>
</clipPath>
<clipPath id="clip26">
  <path d="M 89.949219 224.625 L 269.222656 224.625 L 269.222656 450.152344 L 89.949219 450.152344 Z M 89.949219 224.625 L 208.820312 347.957031 C 208.820312 356.078125 202.242188 362.660156 194.121094 362.660156 C 186.003906 362.660156 179.421875 356.078125 179.421875 347.957031 C 179.421875 339.839844 186.003906 333.257812 194.121094 333.257812 C 202.242188 333.257812 208.820312 339.839844 208.820312 347.957031 Z M 89.949219 224.625 "/>
</clipPath>
<clipPath id="clip27">
  <path d="M 89.949219 224.625 L 269.222656 224.625 L 269.222656 450.152344 L 89.949219 450.152344 Z M 89.949219 224.625 L 179.753906 326.824219 C 179.753906 334.941406 173.171875 341.523438 165.054688 341.523438 C 156.9375 341.523438 150.355469 334.941406 150.355469 326.824219 C 150.355469 318.707031 156.9375 312.125 165.054688 312.125 C 173.171875 312.125 179.753906 318.707031 179.753906 326.824219 Z M 89.949219 224.625 "/>
</clipPath>
<clipPath id="clip28">
  <path d="M 152 278 L 282 278 L 282 390 L 152 390 Z M 152 278 "/>
</clipPath>
<clipPath id="clip29">
  <path d="M 127.792969 212.089844 L 306.605469 212.089844 L 306.605469 455.976562 L 127.792969 455.976562 Z M 127.792969 212.089844 L 208.820312 347.957031 C 208.820312 356.078125 202.242188 362.660156 194.121094 362.660156 C 186.003906 362.660156 179.421875 356.078125 179.421875 347.957031 C 179.421875 339.839844 186.003906 333.257812 194.121094 333.257812 C 202.242188 333.257812 208.820312 339.839844 208.820312 347.957031 Z M 127.792969 212.089844 "/>
</clipPath>
<clipPath id="clip30">
  <path d="M 127.792969 212.089844 L 306.605469 212.089844 L 306.605469 455.976562 L 127.792969 455.976562 Z M 127.792969 212.089844 L 254.980469 320.113281 C 254.980469 328.230469 248.398438 334.8125 240.28125 334.8125 C 232.160156 334.8125 225.578125 328.230469 225.578125 320.113281 C 225.578125 311.996094 232.160156 305.414062 240.28125 305.414062 C 248.398438 305.414062 254.980469 311.996094 254.980469 320.113281 Z M 127.792969 212.089844 "/>
</clipPath>
<clipPath id="clip31">
  <path d="M 113 306 L 236 306 L 236 406 L 113 406 Z M 113 306 "/>
</clipPath>
<clipPath id="clip32">
  <path d="M 105.53125 231.679688 L 244.113281 231.679688 L 244.113281 480.253906 L 105.53125 480.253906 Z M 105.53125 231.679688 L 208.820312 347.957031 C 208.820312 356.078125 202.242188 362.660156 194.121094 362.660156 C 186.003906 362.660156 179.421875 356.078125 179.421875 347.957031 C 179.421875 339.839844 186.003906 333.257812 194.121094 333.257812 C 202.242188 333.257812 208.820312 339.839844 208.820312 347.957031 Z M 105.53125 231.679688 "/>
</clipPath>
<clipPath id="clip33">
  <path d="M 105.53125 231.679688 L 244.113281 231.679688 L 244.113281 480.253906 L 105.53125 480.253906 Z M 105.53125 231.679688 L 170.226562 363.980469 C 170.226562 372.097656 163.644531 378.679688 155.527344 378.679688 C 147.40625 378.679688 140.824219 372.097656 140.824219 363.980469 C 140.824219 355.859375 147.40625 349.277344 155.527344 349.277344 C 163.644531 349.277344 170.226562 355.859375 170.226562 363.980469 Z M 105.53125 231.679688 "/>
</clipPath>
<clipPath id="clip34">
  <path d="M 13.808594 196 L 111.375 196 L 111.375 288 L 13.808594 288 Z M 13.808594 196 "/>
</clipPath>
<clipPath id="clip35">
  <path d="M 13.808594 113.371094 L 111.375 113.371094 L 111.375 370.316406 L 13.808594 370.316406 Z M 13.808594 113.371094 L 49.25 245.957031 C 49.25 254.074219 42.667969 260.65625 34.550781 260.65625 C 26.433594 260.65625 19.851562 254.074219 19.851562 245.957031 C 19.851562 237.835938 26.433594 231.257812 34.550781 231.257812 C 42.667969 231.257812 49.25 237.835938 49.25 245.957031 Z M 13.808594 113.371094 "/>
</clipPath>
<clipPath id="clip36">
  <path d="M 13.808594 113.371094 L 111.375 113.371094 L 111.375 370.316406 L 13.808594 370.316406 Z M 13.808594 113.371094 L 105.335938 237.734375 C 105.335938 245.851562 98.753906 252.433594 90.636719 252.433594 C 82.519531 252.433594 75.9375 245.851562 75.9375 237.734375 C 75.9375 229.617188 82.519531 223.035156 90.636719 223.035156 C 98.753906 223.035156 105.335938 229.617188 105.335938 237.734375 Z M 13.808594 113.371094 "/>
</clipPath>
<clipPath id="clip37">
  <path d="M 49 196 L 207 196 L 207 369 L 49 369 Z M 49 196 "/>
</clipPath>
<clipPath id="clip38">
  <path d="M -6.488281 156.121094 L 262.175781 156.121094 L 262.175781 408.433594 L -6.488281 408.433594 Z M -6.488281 156.121094 L 179.753906 326.824219 C 179.753906 334.941406 173.171875 341.523438 165.054688 341.523438 C 156.9375 341.523438 150.355469 334.941406 150.355469 326.824219 C 150.355469 318.707031 156.9375 312.125 165.054688 312.125 C 173.171875 312.125 179.753906 318.707031 179.753906 326.824219 Z M -6.488281 156.121094 "/>
</clipPath>
<clipPath id="clip39">
  <path d="M -6.488281 156.121094 L 262.175781 156.121094 L 262.175781 408.433594 L -6.488281 408.433594 Z M -6.488281 156.121094 L 105.335938 237.734375 C 105.335938 245.851562 98.753906 252.433594 90.636719 252.433594 C 82.519531 252.433594 75.9375 245.851562 75.9375 237.734375 C 75.9375 229.617188 82.519531 223.035156 90.636719 223.035156 C 98.753906 223.035156 105.335938 229.617188 105.335938 237.734375 Z M -6.488281 156.121094 "/>
</clipPath>
<clipPath id="clip40">
  <path d="M 151.207031 278 L 254.125 278 L 254.125 369 L 151.207031 369 Z M 151.207031 278 "/>
</clipPath>
<clipPath id="clip41">
  <path d="M 151.207031 194.9375 L 254.125 194.9375 L 254.125 451.996094 L 151.207031 451.996094 Z M 151.207031 194.9375 L 179.753906 326.824219 C 179.753906 334.941406 173.171875 341.523438 165.054688 341.523438 C 156.9375 341.523438 150.355469 334.941406 150.355469 326.824219 C 150.355469 318.707031 156.9375 312.125 165.054688 312.125 C 173.171875 312.125 179.753906 318.707031 179.753906 326.824219 Z M 151.207031 194.9375 "/>
</clipPath>
<clipPath id="clip42">
  <path d="M 151.207031 194.9375 L 254.125 194.9375 L 254.125 451.996094 L 151.207031 451.996094 Z M 151.207031 194.9375 L 254.980469 320.113281 C 254.980469 328.230469 248.398438 334.8125 240.28125 334.8125 C 232.160156 334.8125 225.578125 328.230469 225.578125 320.113281 C 225.578125 311.996094 232.160156 305.414062 240.28125 305.414062 C 248.398438 305.414062 254.980469 311.996094 254.980469 320.113281 Z M 151.207031 194.9375 "/>
</clipPath>
<clipPath id="clip43">
  <path d="M 136.917969 250 L 360.617188 250 L 360.617188 369 L 136.917969 369 Z M 136.917969 250 "/>
</clipPath>
<clipPath id="clip44">
  <path d="M 136.917969 168.652344 L 360.617188 168.652344 L 360.617188 449.867188 L 136.917969 449.867188 Z M 136.917969 168.652344 L 179.753906 326.824219 C 179.753906 334.941406 173.171875 341.523438 165.054688 341.523438 C 156.9375 341.523438 150.355469 334.941406 150.355469 326.824219 C 150.355469 318.707031 156.9375 312.125 165.054688 312.125 C 173.171875 312.125 179.753906 318.707031 179.753906 326.824219 Z M 136.917969 168.652344 "/>
</clipPath>
<clipPath id="clip45">
  <path d="M 136.917969 168.652344 L 360.617188 168.652344 L 360.617188 449.867188 L 136.917969 449.867188 Z M 136.917969 168.652344 L 347.183594 291.699219 C 347.183594 299.816406 340.605469 306.398438 332.484375 306.398438 C 324.367188 306.398438 317.785156 299.816406 317.785156 291.699219 C 317.785156 283.578125 324.367188 277 332.484375 277 C 340.605469 277 347.183594 283.578125 347.183594 291.699219 Z M 136.917969 168.652344 "/>
</clipPath>
<clipPath id="clip46">
  <path d="M 113 293.402344 L 207 293.402344 L 207 397.398438 L 113 397.398438 Z M 113 293.402344 "/>
</clipPath>
<clipPath id="clip47">
  <path d="M 33.714844 293.402344 L 286.863281 293.402344 L 286.863281 397.398438 L 33.714844 397.398438 Z M 33.714844 293.402344 L 179.753906 326.824219 C 179.753906 334.941406 173.171875 341.523438 165.054688 341.523438 C 156.9375 341.523438 150.355469 334.941406 150.355469 326.824219 C 150.355469 318.707031 156.9375 312.125 165.054688 312.125 C 173.171875 312.125 179.753906 318.707031 179.753906 326.824219 Z M 33.714844 293.402344 "/>
</clipPath>
<clipPath id="clip48">
  <path d="M 33.714844 293.402344 L 286.863281 293.402344 L 286.863281 397.398438 L 33.714844 397.398438 Z M 33.714844 293.402344 L 170.226562 363.980469 C 170.226562 372.097656 163.644531 378.679688 155.527344 378.679688 C 147.40625 378.679688 140.824219 372.097656 140.824219 363.980469 C 140.824219 355.859375 147.40625 349.277344 155.527344 349.277344 C 163.644531 349.277344 170.226562 355.859375 170.226562 363.980469 Z M 33.714844 293.402344 "/>
</clipPath>
<clipPath id="clip49">
  <path d="M 55.59375 285 L 184.5625 285 L 184.5625 381 L 55.59375 381 Z M 55.59375 285 "/>
</clipPath>
<clipPath id="clip50">
  <path d="M 55.59375 202.289062 L 184.5625 202.289062 L 184.5625 463.613281 L 55.59375 463.613281 Z M 55.59375 202.289062 L 179.753906 326.824219 C 179.753906 334.941406 173.171875 341.523438 165.054688 341.523438 C 156.9375 341.523438 150.355469 334.941406 150.355469 326.824219 C 150.355469 318.707031 156.9375 312.125 165.054688 312.125 C 173.171875 312.125 179.753906 318.707031 179.753906 326.824219 Z M 55.59375 202.289062 "/>
</clipPath>
<clipPath id="clip51">
  <path d="M 55.59375 202.289062 L 184.5625 202.289062 L 184.5625 463.613281 L 55.59375 463.613281 Z M 55.59375 202.289062 L 89.804688 339.082031 C 89.804688 347.199219 83.222656 353.78125 75.105469 353.78125 C 66.988281 353.78125 60.40625 347.199219 60.40625 339.082031 C 60.40625 330.960938 66.988281 324.378906 75.105469 324.378906 C 83.222656 324.378906 89.804688 330.960938 89.804688 339.082031 Z M 55.59375 202.289062 "/>
</clipPath>
<clipPath id="clip52">
  <path d="M 67 285 L 207 285 L 207 465 L 67 465 Z M 67 285 "/>
</clipPath>
<clipPath id="clip53">
  <path d="M -0.0390625 261.667969 L 273.769531 261.667969 L 273.769531 487.824219 L -0.0390625 487.824219 Z M -0.0390625 261.667969 L 179.753906 326.824219 C 179.753906 334.941406 173.171875 341.523438 165.054688 341.523438 C 156.9375 341.523438 150.355469 334.941406 150.355469 326.824219 C 150.355469 318.707031 156.9375 312.125 165.054688 312.125 C 173.171875 312.125 179.753906 318.707031 179.753906 326.824219 Z M -0.0390625 261.667969 "/>
</clipPath>
<clipPath id="clip54">
  <path d="M -0.0390625 261.667969 L 273.769531 261.667969 L 273.769531 487.824219 L -0.0390625 487.824219 Z M -0.0390625 261.667969 L 123.378906 422.671875 C 123.378906 430.792969 116.796875 437.371094 108.679688 437.371094 C 100.558594 437.371094 93.980469 430.792969 93.980469 422.671875 C 93.980469 414.554688 100.558594 407.972656 108.679688 407.972656 C 116.796875 407.972656 123.378906 414.554688 123.378906 422.671875 Z M -0.0390625 261.667969 "/>
</clipPath>
<clipPath id="clip55">
  <path d="M 49 134.09375 L 144 134.09375 L 144 257.683594 L 49 257.683594 Z M 49 134.09375 "/>
</clipPath>
<clipPath id="clip56">
  <path d="M -33.835938 134.09375 L 226.820312 134.09375 L 226.820312 257.683594 L -33.835938 257.683594 Z M -33.835938 134.09375 L 105.335938 237.734375 C 105.335938 245.851562 98.753906 252.433594 90.636719 252.433594 C 82.519531 252.433594 75.9375 245.851562 75.9375 237.734375 C 75.9375 229.617188 82.519531 223.035156 90.636719 223.035156 C 98.753906 223.035156 105.335938 229.617188 105.335938 237.734375 Z M -33.835938 134.09375 "/>
</clipPath>
<clipPath id="clip57">
  <path d="M -33.835938 134.09375 L 226.820312 134.09375 L 226.820312 257.683594 L -33.835938 257.683594 Z M -33.835938 134.09375 L 117.050781 154.046875 C 117.050781 162.164062 110.46875 168.746094 102.351562 168.746094 C 94.234375 168.746094 87.652344 162.164062 87.652344 154.046875 C 87.652344 145.929688 94.234375 139.347656 102.351562 139.347656 C 110.46875 139.347656 117.050781 145.929688 117.050781 154.046875 Z M -33.835938 134.09375 "/>
</clipPath>
<clipPath id="clip58">
  <path d="M 201.199219 250 L 371.5625 250 L 371.5625 362 L 201.199219 362 Z M 201.199219 250 "/>
</clipPath>
<clipPath id="clip59">
  <path d="M 201.199219 171.480469 L 371.5625 171.480469 L 371.5625 440.328125 L 201.199219 440.328125 Z M 201.199219 171.480469 L 254.980469 320.113281 C 254.980469 328.230469 248.398438 334.8125 240.28125 334.8125 C 232.160156 334.8125 225.578125 328.230469 225.578125 320.113281 C 225.578125 311.996094 232.160156 305.414062 240.28125 305.414062 C 248.398438 305.414062 254.980469 311.996094 254.980469 320.113281 Z M 201.199219 171.480469 "/>
</clipPath>
<clipPath id="clip60">
  <path d="M 201.199219 171.480469 L 371.5625 171.480469 L 371.5625 440.328125 L 201.199219 440.328125 Z M 201.199219 171.480469 L 347.183594 291.699219 C 347.183594 299.816406 340.605469 306.398438 332.484375 306.398438 C 324.367188 306.398438 317.785156 299.816406 317.785156 291.699219 C 317.785156 283.578125 324.367188 277 332.484375 277 C 340.605469 277 347.183594 283.578125 347.183594 291.699219 Z M 201.199219 171.480469 "/>
</clipPath>
<clipPath id="clip61">
  <path d="M 292.714844 238 L 409.3125 238 L 409.3125 334 L 292.714844 334 Z M 292.714844 238 "/>
</clipPath>
<clipPath id="clip62">
  <path d="M 292.714844 160.035156 L 409.3125 160.035156 L 409.3125 411.699219 L 292.714844 411.699219 Z M 292.714844 160.035156 L 347.183594 291.699219 C 347.183594 299.816406 340.605469 306.398438 332.484375 306.398438 C 324.367188 306.398438 317.785156 299.816406 317.785156 291.699219 C 317.785156 283.578125 324.367188 277 332.484375 277 C 340.605469 277 347.183594 283.578125 347.183594 291.699219 Z M 292.714844 160.035156 "/>
</clipPath>
<clipPath id="clip63">
  <path d="M 292.714844 160.035156 L 409.3125 160.035156 L 409.3125 411.699219 L 292.714844 411.699219 Z M 292.714844 160.035156 L 384.246094 280.039062 C 384.246094 288.15625 377.664062 294.738281 369.546875 294.738281 C 361.425781 294.738281 354.847656 288.15625 354.847656 280.039062 C 354.847656 271.921875 361.425781 265.339844 369.546875 265.339844 C 377.664062 265.339844 384.246094 271.921875 384.246094 280.039062 Z M 292.714844 160.035156 "/>
</clipPath>
<clipPath id="clip64">
  <path d="M 290 140.105469 L 386 140.105469 L 386 304.308594 L 290 304.308594 Z M 290 140.105469 "/>
</clipPath>
<clipPath id="clip65">
  <path d="M 207.207031 140.105469 L 468.746094 140.105469 L 468.746094 304.308594 L 207.207031 304.308594 Z M 207.207031 140.105469 L 347.183594 291.699219 C 347.183594 299.816406 340.605469 306.398438 332.484375 306.398438 C 324.367188 306.398438 317.785156 299.816406 317.785156 291.699219 C 317.785156 283.578125 324.367188 277 332.484375 277 C 340.605469 277 347.183594 283.578125 347.183594 291.699219 Z M 207.207031 140.105469 "/>
</clipPath>
<clipPath id="clip66">
  <path d="M 207.207031 140.105469 L 468.746094 140.105469 L 468.746094 304.308594 L 207.207031 304.308594 Z M 207.207031 140.105469 L 358.171875 152.71875 C 358.171875 160.835938 351.589844 167.417969 343.472656 167.417969 C 335.355469 167.417969 328.773438 160.835938 328.773438 152.71875 C 328.773438 144.601562 335.355469 138.019531 343.472656 138.019531 C 351.589844 138.019531 358.171875 144.601562 358.171875 152.71875 Z M 207.207031 140.105469 "/>
</clipPath>
<clipPath id="clip67">
  <path d="M 318.335938 238 L 470.140625 238 L 470.140625 334 L 318.335938 334 Z M 318.335938 238 "/>
</clipPath>
<clipPath id="clip68">
  <path d="M 318.335938 155.222656 L 470.140625 155.222656 L 470.140625 416.84375 L 318.335938 416.84375 Z M 318.335938 155.222656 L 347.183594 291.699219 C 347.183594 299.816406 340.605469 306.398438 332.484375 306.398438 C 324.367188 306.398438 317.785156 299.816406 317.785156 291.699219 C 317.785156 283.578125 324.367188 277 332.484375 277 C 340.605469 277 347.183594 283.578125 347.183594 291.699219 Z M 318.335938 155.222656 "/>
</clipPath>
<clipPath id="clip69">
  <path d="M 318.335938 155.222656 L 470.140625 155.222656 L 470.140625 416.84375 L 318.335938 416.84375 Z M 318.335938 155.222656 L 470.695312 280.371094 C 470.695312 288.488281 464.113281 295.070312 455.996094 295.070312 C 447.875 295.070312 441.296875 288.488281 441.296875 280.371094 C 441.296875 272.253906 447.875 265.671875 455.996094 265.671875 C 464.113281 265.671875 470.695312 272.253906 470.695312 280.371094 Z M 318.335938 155.222656 "/>
</clipPath>
<clipPath id="clip70">
  <path d="M 29 94 L 144 94 L 144 196 L 29 196 Z M 29 94 "/>
</clipPath>
<clipPath id="clip71">
  <path d="M 7.703125 26.71875 L 165.875 26.71875 L 165.875 263.703125 L 7.703125 263.703125 Z M 7.703125 26.71875 L 85.929688 136.378906 C 85.929688 144.5 79.347656 151.082031 71.230469 151.082031 C 63.113281 151.082031 56.53125 144.5 56.53125 136.378906 C 56.53125 128.261719 63.113281 121.679688 71.230469 121.679688 C 79.347656 121.679688 85.929688 128.261719 85.929688 136.378906 Z M 7.703125 26.71875 "/>
</clipPath>
<clipPath id="clip72">
  <path d="M 7.703125 26.71875 L 165.875 26.71875 L 165.875 263.703125 L 7.703125 263.703125 Z M 7.703125 26.71875 L 117.050781 154.046875 C 117.050781 162.164062 110.46875 168.746094 102.351562 168.746094 C 94.234375 168.746094 87.652344 162.164062 87.652344 154.046875 C 87.652344 145.929688 94.234375 139.347656 102.351562 139.347656 C 110.46875 139.347656 117.050781 145.929688 117.050781 154.046875 Z M 7.703125 26.71875 "/>
</clipPath>
<clipPath id="clip73">
  <path d="M 60 53 L 183 53 L 183 196 L 60 196 Z M 60 53 "/>
</clipPath>
<clipPath id="clip74">
  <path d="M -3.128906 24.773438 L 246.5625 24.773438 L 246.5625 224.402344 L -3.128906 224.402344 Z M -3.128906 24.773438 L 117.050781 154.046875 C 117.050781 162.164062 110.46875 168.746094 102.351562 168.746094 C 94.234375 168.746094 87.652344 162.164062 87.652344 154.046875 C 87.652344 145.929688 94.234375 139.347656 102.351562 139.347656 C 110.46875 139.347656 117.050781 145.929688 117.050781 154.046875 Z M -3.128906 24.773438 "/>
</clipPath>
<clipPath id="clip75">
  <path d="M -3.128906 24.773438 L 246.5625 24.773438 L 246.5625 224.402344 L -3.128906 224.402344 Z M -3.128906 24.773438 L 155.785156 95.132812 C 155.785156 103.253906 149.203125 109.835938 141.085938 109.835938 C 132.964844 109.835938 126.382812 103.253906 126.382812 95.132812 C 126.382812 87.015625 132.964844 80.433594 141.085938 80.433594 C 149.203125 80.433594 155.785156 87.015625 155.785156 95.132812 Z M -3.128906 24.773438 "/>
</clipPath>
<clipPath id="clip76">
  <path d="M 253 79 L 386 79 L 386 195 L 253 195 Z M 253 79 "/>
</clipPath>
<clipPath id="clip77">
  <path d="M 225.519531 15.457031 L 413.0625 15.457031 L 413.0625 258.695312 L 225.519531 258.695312 Z M 225.519531 15.457031 L 358.171875 152.71875 C 358.171875 160.835938 351.589844 167.417969 343.472656 167.417969 C 335.355469 167.417969 328.773438 160.835938 328.773438 152.71875 C 328.773438 144.601562 335.355469 138.019531 343.472656 138.019531 C 351.589844 138.019531 358.171875 144.601562 358.171875 152.71875 Z M 225.519531 15.457031 "/>
</clipPath>
<clipPath id="clip78">
  <path d="M 225.519531 15.457031 L 413.0625 15.457031 L 413.0625 258.695312 L 225.519531 258.695312 Z M 225.519531 15.457031 L 309.8125 121.4375 C 309.8125 129.554688 303.230469 136.136719 295.113281 136.136719 C 286.996094 136.136719 280.414062 129.554688 280.414062 121.4375 C 280.414062 113.320312 286.996094 106.738281 295.113281 106.738281 C 303.230469 106.738281 309.8125 113.320312 309.8125 121.4375 Z M 225.519531 15.457031 "/>
</clipPath>
<clipPath id="clip79">
  <path d="M 272 39 L 386 39 L 386 195 L 272 195 Z M 272 39 "/>
</clipPath>
<clipPath id="clip80">
  <path d="M 197.695312 31.789062 L 459.96875 31.789062 L 459.96875 202.175781 L 197.695312 202.175781 Z M 197.695312 31.789062 L 358.171875 152.71875 C 358.171875 160.835938 351.589844 167.417969 343.472656 167.417969 C 335.355469 167.417969 328.773438 160.835938 328.773438 152.71875 C 328.773438 144.601562 335.355469 138.019531 343.472656 138.019531 C 351.589844 138.019531 358.171875 144.601562 358.171875 152.71875 Z M 197.695312 31.789062 "/>
</clipPath>
<clipPath id="clip81">
  <path d="M 197.695312 31.789062 L 459.96875 31.789062 L 459.96875 202.175781 L 197.695312 202.175781 Z M 197.695312 31.789062 L 328.894531 81.25 C 328.894531 89.371094 322.3125 95.949219 314.195312 95.949219 C 306.074219 95.949219 299.492188 89.371094 299.492188 81.25 C 299.492188 73.132812 306.074219 66.550781 314.195312 66.550781 C 322.3125 66.550781 328.894531 73.132812 328.894531 81.25 Z M 197.695312 31.789062 "/>
</clipPath>
<clipPath id="clip82">
  <path d="M 302.914062 83 L 471.253906 83 L 471.253906 195 L 302.914062 195 Z M 302.914062 83 "/>
</clipPath>
<clipPath id="clip83">
  <path d="M 302.914062 4.878906 L 471.253906 4.878906 L 471.253906 272.464844 L 302.914062 272.464844 Z M 302.914062 4.878906 L 358.171875 152.71875 C 358.171875 160.835938 351.589844 167.417969 343.472656 167.417969 C 335.355469 167.417969 328.773438 160.835938 328.773438 152.71875 C 328.773438 144.601562 335.355469 138.019531 343.472656 138.019531 C 351.589844 138.019531 358.171875 144.601562 358.171875 152.71875 Z M 302.914062 4.878906 "/>
</clipPath>
<clipPath id="clip84">
  <path d="M 302.914062 4.878906 L 471.253906 4.878906 L 471.253906 272.464844 L 302.914062 272.464844 Z M 302.914062 4.878906 L 445.398438 124.628906 C 445.398438 132.746094 438.820312 139.328125 430.699219 139.328125 C 422.582031 139.328125 416 132.746094 416 124.628906 C 416 116.511719 422.582031 109.929688 430.699219 109.929688 C 438.820312 109.929688 445.398438 116.511719 445.398438 124.628906 Z M 302.914062 4.878906 "/>
</clipPath>
<clipPath id="clip85">
  <path d="M 69 441 L 191 441 L 191 565 L 69 565 Z M 69 441 "/>
</clipPath>
<clipPath id="clip86">
  <path d="M 18.863281 396.765625 L 241.421875 396.765625 L 241.421875 610.105469 L 18.863281 610.105469 Z M 18.863281 396.765625 L 163.496094 523.410156 C 163.496094 531.527344 156.914062 538.109375 148.796875 538.109375 C 140.675781 538.109375 134.097656 531.527344 134.097656 523.410156 C 134.097656 515.289062 140.675781 508.710938 148.796875 508.710938 C 156.914062 508.710938 163.496094 515.289062 163.496094 523.410156 Z M 18.863281 396.765625 "/>
</clipPath>
<clipPath id="clip87">
  <path d="M 18.863281 396.765625 L 241.421875 396.765625 L 241.421875 610.105469 L 18.863281 610.105469 Z M 18.863281 396.765625 L 126.191406 483.464844 C 126.191406 491.585938 119.609375 498.164062 111.492188 498.164062 C 103.371094 498.164062 96.789062 491.585938 96.789062 483.464844 C 96.789062 475.347656 103.371094 468.765625 111.492188 468.765625 C 119.609375 468.765625 126.191406 475.347656 126.191406 483.464844 Z M 18.863281 396.765625 "/>
</clipPath>
<clipPath id="clip88">
  <path d="M 107 481 L 227 481 L 227 587 L 107 587 Z M 107 481 "/>
</clipPath>
<clipPath id="clip89">
  <path d="M 82.4375 415.40625 L 251.488281 415.40625 L 251.488281 653.34375 L 82.4375 653.34375 Z M 82.4375 415.40625 L 163.496094 523.410156 C 163.496094 531.527344 156.914062 538.109375 148.796875 538.109375 C 140.675781 538.109375 134.097656 531.527344 134.097656 523.410156 C 134.097656 515.289062 140.675781 508.710938 148.796875 508.710938 C 156.914062 508.710938 163.496094 515.289062 163.496094 523.410156 Z M 82.4375 415.40625 "/>
</clipPath>
<clipPath id="clip90">
  <path d="M 82.4375 415.40625 L 251.488281 415.40625 L 251.488281 653.34375 L 82.4375 653.34375 Z M 82.4375 415.40625 L 199.832031 545.34375 C 199.832031 553.464844 193.25 560.042969 185.132812 560.042969 C 177.015625 560.042969 170.433594 553.464844 170.433594 545.34375 C 170.433594 537.226562 177.015625 530.644531 185.132812 530.644531 C 193.25 530.644531 199.832031 537.226562 199.832031 545.34375 Z M 82.4375 415.40625 "/>
</clipPath>
<clipPath id="clip91">
  <path d="M 67 414.058594 L 154 414.058594 L 154 492.074219 L 67 492.074219 Z M 67 414.058594 "/>
</clipPath>
<clipPath id="clip92">
  <path d="M -16.847656 414.058594 L 237.015625 414.058594 L 237.015625 492.074219 L -16.847656 492.074219 Z M -16.847656 414.058594 L 126.191406 483.464844 C 126.191406 491.585938 119.609375 498.164062 111.492188 498.164062 C 103.371094 498.164062 96.789062 491.585938 96.789062 483.464844 C 96.789062 475.347656 103.371094 468.765625 111.492188 468.765625 C 119.609375 468.765625 126.191406 475.347656 126.191406 483.464844 Z M -16.847656 414.058594 "/>
</clipPath>
<clipPath id="clip93">
  <path d="M -16.847656 414.058594 L 237.015625 414.058594 L 237.015625 492.074219 L -16.847656 492.074219 Z M -16.847656 414.058594 L 123.378906 422.671875 C 123.378906 430.792969 116.796875 437.371094 108.679688 437.371094 C 100.558594 437.371094 93.980469 430.792969 93.980469 422.671875 C 93.980469 414.554688 100.558594 407.972656 108.679688 407.972656 C 116.796875 407.972656 123.378906 414.554688 123.378906 422.671875 Z M -16.847656 414.058594 "/>
</clipPath>
<clipPath id="clip94">
  <path d="M 509.84375 237 L 583.644531 237 L 583.644531 326 L 509.84375 326 Z M 509.84375 237 "/>
</clipPath>
<clipPath id="clip95">
  <path d="M 509.84375 154.449219 L 583.644531 154.449219 L 583.644531 408.546875 L 509.84375 408.546875 Z M 509.84375 154.449219 L 580.148438 283.84375 C 580.148438 291.960938 573.566406 298.542969 565.449219 298.542969 C 557.332031 298.542969 550.75 291.960938 550.75 283.84375 C 550.75 275.726562 557.332031 269.144531 565.449219 269.144531 C 573.566406 269.144531 580.148438 275.726562 580.148438 283.84375 Z M 509.84375 154.449219 "/>
</clipPath>
<clipPath id="clip96">
  <path d="M 509.84375 154.449219 L 583.644531 154.449219 L 583.644531 408.546875 L 509.84375 408.546875 Z M 509.84375 154.449219 L 542.742188 279.15625 C 542.742188 287.273438 536.164062 293.855469 528.042969 293.855469 C 519.925781 293.855469 513.34375 287.273438 513.34375 279.15625 C 513.34375 271.035156 519.925781 264.457031 528.042969 264.457031 C 536.164062 264.457031 542.742188 271.035156 542.742188 279.15625 Z M 509.84375 154.449219 "/>
</clipPath>
<clipPath id="clip97">
  <path d="M 450.984375 237 L 533.050781 237 L 533.050781 322 L 450.984375 322 Z M 450.984375 237 "/>
</clipPath>
<clipPath id="clip98">
  <path d="M 450.984375 153.515625 L 533.050781 153.515625 L 533.050781 406.007812 L 450.984375 406.007812 Z M 450.984375 153.515625 L 470.695312 280.371094 C 470.695312 288.488281 464.113281 295.070312 455.996094 295.070312 C 447.875 295.070312 441.296875 288.488281 441.296875 280.371094 C 441.296875 272.253906 447.875 265.671875 455.996094 265.671875 C 464.113281 265.671875 470.695312 272.253906 470.695312 280.371094 Z M 450.984375 153.515625 "/>
</clipPath>
<clipPath id="clip99">
  <path d="M 450.984375 153.515625 L 533.050781 153.515625 L 533.050781 406.007812 L 450.984375 406.007812 Z M 450.984375 153.515625 L 542.742188 279.15625 C 542.742188 287.273438 536.164062 293.855469 528.042969 293.855469 C 519.925781 293.855469 513.34375 287.273438 513.34375 279.15625 C 513.34375 271.035156 519.925781 264.457031 528.042969 264.457031 C 536.164062 264.457031 542.742188 271.035156 542.742188 279.15625 Z M 450.984375 153.515625 "/>
</clipPath>
<clipPath id="clip100">
  <path d="M 99 17 L 212 17 L 212 137 L 99 137 Z M 99 17 "/>
</clipPath>
<clipPath id="clip101">
  <path d="M 42.875 -20.851562 L 268.269531 -20.851562 L 268.269531 175.425781 L 42.875 175.425781 Z M 42.875 -20.851562 L 155.785156 95.132812 C 155.785156 103.253906 149.203125 109.835938 141.085938 109.835938 C 132.964844 109.835938 126.382812 103.253906 126.382812 95.132812 C 126.382812 87.015625 132.964844 80.433594 141.085938 80.433594 C 149.203125 80.433594 155.785156 87.015625 155.785156 95.132812 Z M 42.875 -20.851562 "/>
</clipPath>
<clipPath id="clip102">
  <path d="M 42.875 -20.851562 L 268.269531 -20.851562 L 268.269531 175.425781 L 42.875 175.425781 Z M 42.875 -20.851562 L 184.761719 59.445312 C 184.761719 67.5625 178.179688 74.144531 170.0625 74.144531 C 161.941406 74.144531 155.359375 67.5625 155.359375 59.445312 C 155.359375 51.324219 161.941406 44.742188 170.0625 44.742188 C 178.179688 44.742188 184.761719 51.324219 184.761719 59.445312 Z M 42.875 -20.851562 "/>
</clipPath>
<clipPath id="clip103">
  <path d="M 397.257812 83 L 522.644531 83 L 522.644531 182 L 397.257812 182 Z M 397.257812 83 "/>
</clipPath>
<clipPath id="clip104">
  <path d="M 397.257812 2.820312 L 522.644531 2.820312 L 522.644531 261.445312 L 397.257812 261.445312 Z M 397.257812 2.820312 L 503.90625 139.640625 C 503.90625 147.757812 497.328125 154.339844 489.207031 154.339844 C 481.089844 154.339844 474.507812 147.757812 474.507812 139.640625 C 474.507812 131.523438 481.089844 124.941406 489.207031 124.941406 C 497.328125 124.941406 503.90625 131.523438 503.90625 139.640625 Z M 397.257812 2.820312 "/>
</clipPath>
<clipPath id="clip105">
  <path d="M 397.257812 2.820312 L 522.644531 2.820312 L 522.644531 261.445312 L 397.257812 261.445312 Z M 397.257812 2.820312 L 445.398438 124.628906 C 445.398438 132.746094 438.820312 139.328125 430.699219 139.328125 C 422.582031 139.328125 416 132.746094 416 124.628906 C 416 116.511719 422.582031 109.929688 430.699219 109.929688 C 438.820312 109.929688 445.398438 116.511719 445.398438 124.628906 Z M 397.257812 2.820312 "/>
</clipPath>
<clipPath id="clip106">
  <path d="M 363 0 L 471 0 L 471 116 L 363 116 Z M 363 0 "/>
</clipPath>
<clipPath id="clip107">
  <path d="M 301.660156 -34.085938 L 531.65625 -34.085938 L 531.65625 148.046875 L 301.660156 148.046875 Z M 301.660156 -34.085938 L 419.28125 40.011719 C 419.28125 48.128906 412.699219 54.710938 404.582031 54.710938 C 396.460938 54.710938 389.878906 48.128906 389.878906 40.011719 C 389.878906 31.894531 396.460938 25.3125 404.582031 25.3125 C 412.699219 25.3125 419.28125 31.894531 419.28125 40.011719 Z M 301.660156 -34.085938 "/>
</clipPath>
<clipPath id="clip108">
  <path d="M 301.660156 -34.085938 L 531.65625 -34.085938 L 531.65625 148.046875 L 301.660156 148.046875 Z M 301.660156 -34.085938 L 443.4375 73.953125 C 443.4375 82.070312 436.855469 88.652344 428.738281 88.652344 C 420.621094 88.652344 414.039062 82.070312 414.039062 73.953125 C 414.039062 65.832031 420.621094 59.253906 428.738281 59.253906 C 436.855469 59.253906 443.4375 65.832031 443.4375 73.953125 Z M 301.660156 -34.085938 "/>
</clipPath>
<clipPath id="clip109">
  <path d="M 387 66.265625 L 473 66.265625 L 473 132.3125 L 387 132.3125 Z M 387 66.265625 "/>
</clipPath>
<clipPath id="clip110">
  <path d="M 303.171875 66.265625 L 556.261719 66.265625 L 556.261719 132.3125 L 303.171875 132.3125 Z M 303.171875 66.265625 L 443.4375 73.953125 C 443.4375 82.070312 436.855469 88.652344 428.738281 88.652344 C 420.621094 88.652344 414.039062 82.070312 414.039062 73.953125 C 414.039062 65.832031 420.621094 59.253906 428.738281 59.253906 C 436.855469 59.253906 443.4375 65.832031 443.4375 73.953125 Z M 303.171875 66.265625 "/>
</clipPath>
<clipPath id="clip111">
  <path d="M 303.171875 66.265625 L 556.261719 66.265625 L 556.261719 132.3125 L 303.171875 132.3125 Z M 303.171875 66.265625 L 445.398438 124.628906 C 445.398438 132.746094 438.820312 139.328125 430.699219 139.328125 C 422.582031 139.328125 416 132.746094 416 124.628906 C 416 116.511719 422.582031 109.929688 430.699219 109.929688 C 438.820312 109.929688 445.398438 116.511719 445.398438 124.628906 Z M 303.171875 66.265625 "/>
</clipPath>
</defs>
<g id="surface816">
<g clip-path="url(#clip1)" clip-rule="nonzero">
<g clip-path="url(#clip2)" clip-rule="evenodd">
<g clip-path="url(#clip3)" clip-rule="evenodd">
<path style="fill:none;stroke-width:0.0239572;stroke-linecap:butt;stroke-linejoin:miter;stroke:rgb(17.96875%,20.3125%,21.09375%);stroke-opacity:0.8;stroke-miterlimit:10;" d="M 4.229852 4.806853 L 4.759554 4.432615 " transform="matrix(122.718056,0,0,122.718056,-137.165183,-63.204039)"/>
</g>
</g>
</g>
<g clip-path="url(#clip4)" clip-rule="nonzero">
<g clip-path="url(#clip5)" clip-rule="evenodd">
<g clip-path="url(#clip6)" clip-rule="evenodd">
<path style="fill:none;stroke-width:0.0239572;stroke-linecap:butt;stroke-linejoin:miter;stroke:rgb(17.96875%,20.3125%,21.09375%);stroke-opacity:0.8;stroke-miterlimit:10;" d="M 4.229852 4.806853 L 4.121436 5.078245 " transform="matrix(122.718056,0,0,122.718056,-137.165183,-63.204039)"/>
</g>
</g>
</g>
<g clip-path="url(#clip7)" clip-rule="nonzero">
<g clip-path="url(#clip8)" clip-rule="evenodd">
<g clip-path="url(#clip9)" clip-rule="evenodd">
<path style="fill:none;stroke-width:0.0239572;stroke-linecap:butt;stroke-linejoin:miter;stroke:rgb(17.96875%,20.3125%,21.09375%);stroke-opacity:0.8;stroke-miterlimit:10;" d="M 4.229852 4.806853 L 3.778392 4.898686 " transform="matrix(122.718056,0,0,122.718056,-137.165183,-63.204039)"/>
</g>
</g>
</g>
<g clip-path="url(#clip10)" clip-rule="nonzero">
<g clip-path="url(#clip11)" clip-rule="evenodd">
<g clip-path="url(#clip12)" clip-rule="evenodd">
<path style="fill:none;stroke-width:0.0239572;stroke-linecap:butt;stroke-linejoin:miter;stroke:rgb(17.96875%,20.3125%,21.09375%);stroke-opacity:0.8;stroke-miterlimit:10;" d="M 4.599857 3.654408 L 4.767639 4.085306 " transform="matrix(122.718056,0,0,122.718056,-137.165183,-63.204039)"/>
</g>
</g>
</g>
<g clip-path="url(#clip13)" clip-rule="nonzero">
<g clip-path="url(#clip14)" clip-rule="evenodd">
<g clip-path="url(#clip15)" clip-rule="evenodd">
<path style="fill:none;stroke-width:0.0239572;stroke-linecap:butt;stroke-linejoin:miter;stroke:rgb(17.96875%,20.3125%,21.09375%);stroke-opacity:0.8;stroke-miterlimit:10;" d="M 4.599857 3.654408 L 5.045556 4.03775 " transform="matrix(122.718056,0,0,122.718056,-137.165183,-63.204039)"/>
</g>
</g>
</g>
<g clip-path="url(#clip16)" clip-rule="nonzero">
<g clip-path="url(#clip17)" clip-rule="evenodd">
<g clip-path="url(#clip18)" clip-rule="evenodd">
<path style="fill:none;stroke-width:0.0239572;stroke-linecap:butt;stroke-linejoin:miter;stroke:rgb(17.96875%,20.3125%,21.09375%);stroke-opacity:0.8;stroke-miterlimit:10;" d="M 4.599857 3.654408 L 3.827062 2.892022 " transform="matrix(122.718056,0,0,122.718056,-137.165183,-63.204039)"/>
</g>
</g>
</g>
<g clip-path="url(#clip19)" clip-rule="nonzero">
<g clip-path="url(#clip20)" clip-rule="evenodd">
<g clip-path="url(#clip21)" clip-rule="evenodd">
<path style="fill:none;stroke-width:0.0239572;stroke-linecap:butt;stroke-linejoin:miter;stroke:rgb(17.96875%,20.3125%,21.09375%);stroke-opacity:0.8;stroke-miterlimit:10;" d="M 4.767639 4.085306 L 4.759554 4.432615 " transform="matrix(122.718056,0,0,122.718056,-137.165183,-63.204039)"/>
</g>
</g>
</g>
<g clip-path="url(#clip22)" clip-rule="nonzero">
<g clip-path="url(#clip23)" clip-rule="evenodd">
<g clip-path="url(#clip24)" clip-rule="evenodd">
<path style="fill:none;stroke-width:0.0239572;stroke-linecap:butt;stroke-linejoin:miter;stroke:rgb(17.96875%,20.3125%,21.09375%);stroke-opacity:0.8;stroke-miterlimit:10;" d="M 4.759554 4.432615 L 5.045556 4.03775 " transform="matrix(122.718056,0,0,122.718056,-137.165183,-63.204039)"/>
</g>
</g>
</g>
<g clip-path="url(#clip25)" clip-rule="nonzero">
<g clip-path="url(#clip26)" clip-rule="evenodd">
<g clip-path="url(#clip27)" clip-rule="evenodd">
<path style="fill:none;stroke-width:0.0239572;stroke-linecap:butt;stroke-linejoin:miter;stroke:rgb(17.96875%,20.3125%,21.09375%);stroke-opacity:0.8;stroke-miterlimit:10;" d="M 2.699572 3.350453 L 2.462717 3.178247 " transform="matrix(122.718056,0,0,122.718056,-137.165183,-63.204039)"/>
</g>
</g>
</g>
<g clip-path="url(#clip28)" clip-rule="nonzero">
<g clip-path="url(#clip29)" clip-rule="evenodd">
<g clip-path="url(#clip30)" clip-rule="evenodd">
<path style="fill:none;stroke-width:0.0239572;stroke-linecap:butt;stroke-linejoin:miter;stroke:rgb(17.96875%,20.3125%,21.09375%);stroke-opacity:0.8;stroke-miterlimit:10;" d="M 2.699572 3.350453 L 3.07572 3.123561 " transform="matrix(122.718056,0,0,122.718056,-137.165183,-63.204039)"/>
</g>
</g>
</g>
<g clip-path="url(#clip31)" clip-rule="nonzero">
<g clip-path="url(#clip32)" clip-rule="evenodd">
<g clip-path="url(#clip33)" clip-rule="evenodd">
<path style="fill:none;stroke-width:0.0239572;stroke-linecap:butt;stroke-linejoin:miter;stroke:rgb(17.96875%,20.3125%,21.09375%);stroke-opacity:0.8;stroke-miterlimit:10;" d="M 2.699572 3.350453 L 2.385081 3.481024 " transform="matrix(122.718056,0,0,122.718056,-137.165183,-63.204039)"/>
</g>
</g>
</g>
<g clip-path="url(#clip34)" clip-rule="nonzero">
<g clip-path="url(#clip35)" clip-rule="evenodd">
<g clip-path="url(#clip36)" clip-rule="evenodd">
<path style="fill:none;stroke-width:0.0239572;stroke-linecap:butt;stroke-linejoin:miter;stroke:rgb(17.96875%,20.3125%,21.09375%);stroke-opacity:0.8;stroke-miterlimit:10;" d="M 1.399272 2.519279 L 1.856303 2.452275 " transform="matrix(122.718056,0,0,122.718056,-137.165183,-63.204039)"/>
</g>
</g>
</g>
<g clip-path="url(#clip37)" clip-rule="nonzero">
<g clip-path="url(#clip38)" clip-rule="evenodd">
<g clip-path="url(#clip39)" clip-rule="evenodd">
<path style="fill:none;stroke-width:0.0239572;stroke-linecap:butt;stroke-linejoin:miter;stroke:rgb(17.96875%,20.3125%,21.09375%);stroke-opacity:0.8;stroke-miterlimit:10;" d="M 2.462717 3.178247 L 1.856303 2.452275 " transform="matrix(122.718056,0,0,122.718056,-137.165183,-63.204039)"/>
</g>
</g>
</g>
<g clip-path="url(#clip40)" clip-rule="nonzero">
<g clip-path="url(#clip41)" clip-rule="evenodd">
<g clip-path="url(#clip42)" clip-rule="evenodd">
<path style="fill:none;stroke-width:0.0239572;stroke-linecap:butt;stroke-linejoin:miter;stroke:rgb(17.96875%,20.3125%,21.09375%);stroke-opacity:0.8;stroke-miterlimit:10;" d="M 2.462717 3.178247 L 3.07572 3.123561 " transform="matrix(122.718056,0,0,122.718056,-137.165183,-63.204039)"/>
</g>
</g>
</g>
<g clip-path="url(#clip43)" clip-rule="nonzero">
<g clip-path="url(#clip44)" clip-rule="evenodd">
<g clip-path="url(#clip45)" clip-rule="evenodd">
<path style="fill:none;stroke-width:0.0239572;stroke-linecap:butt;stroke-linejoin:miter;stroke:rgb(17.96875%,20.3125%,21.09375%);stroke-opacity:0.8;stroke-miterlimit:10;" d="M 2.462717 3.178247 L 3.827062 2.892022 " transform="matrix(122.718056,0,0,122.718056,-137.165183,-63.204039)"/>
</g>
</g>
</g>
<g clip-path="url(#clip46)" clip-rule="nonzero">
<g clip-path="url(#clip47)" clip-rule="evenodd">
<g clip-path="url(#clip48)" clip-rule="evenodd">
<path style="fill:none;stroke-width:0.0239572;stroke-linecap:butt;stroke-linejoin:miter;stroke:rgb(17.96875%,20.3125%,21.09375%);stroke-opacity:0.8;stroke-miterlimit:10;" d="M 2.462717 3.178247 L 2.385081 3.481024 " transform="matrix(122.718056,0,0,122.718056,-137.165183,-63.204039)"/>
</g>
</g>
</g>
<g clip-path="url(#clip49)" clip-rule="nonzero">
<g clip-path="url(#clip50)" clip-rule="evenodd">
<g clip-path="url(#clip51)" clip-rule="evenodd">
<path style="fill:none;stroke-width:0.0239572;stroke-linecap:butt;stroke-linejoin:miter;stroke:rgb(17.96875%,20.3125%,21.09375%);stroke-opacity:0.8;stroke-miterlimit:10;" d="M 2.462717 3.178247 L 1.729743 3.278133 " transform="matrix(122.718056,0,0,122.718056,-137.165183,-63.204039)"/>
</g>
</g>
</g>
<g clip-path="url(#clip52)" clip-rule="nonzero">
<g clip-path="url(#clip53)" clip-rule="evenodd">
<g clip-path="url(#clip54)" clip-rule="evenodd">
<path style="fill:none;stroke-width:0.0239572;stroke-linecap:butt;stroke-linejoin:miter;stroke:rgb(17.96875%,20.3125%,21.09375%);stroke-opacity:0.8;stroke-miterlimit:10;" d="M 2.462717 3.178247 L 2.003331 3.959286 " transform="matrix(122.718056,0,0,122.718056,-137.165183,-63.204039)"/>
</g>
</g>
</g>
<g clip-path="url(#clip55)" clip-rule="nonzero">
<g clip-path="url(#clip56)" clip-rule="evenodd">
<g clip-path="url(#clip57)" clip-rule="evenodd">
<path style="fill:none;stroke-width:0.0239572;stroke-linecap:butt;stroke-linejoin:miter;stroke:rgb(17.96875%,20.3125%,21.09375%);stroke-opacity:0.8;stroke-miterlimit:10;" d="M 1.856303 2.452275 L 1.951765 1.770326 " transform="matrix(122.718056,0,0,122.718056,-137.165183,-63.204039)"/>
</g>
</g>
</g>
<g clip-path="url(#clip58)" clip-rule="nonzero">
<g clip-path="url(#clip59)" clip-rule="evenodd">
<g clip-path="url(#clip60)" clip-rule="evenodd">
<path style="fill:none;stroke-width:0.0239572;stroke-linecap:butt;stroke-linejoin:miter;stroke:rgb(17.96875%,20.3125%,21.09375%);stroke-opacity:0.8;stroke-miterlimit:10;" d="M 3.07572 3.123561 L 3.827062 2.892022 " transform="matrix(122.718056,0,0,122.718056,-137.165183,-63.204039)"/>
</g>
</g>
</g>
<g clip-path="url(#clip61)" clip-rule="nonzero">
<g clip-path="url(#clip62)" clip-rule="evenodd">
<g clip-path="url(#clip63)" clip-rule="evenodd">
<path style="fill:none;stroke-width:0.0239572;stroke-linecap:butt;stroke-linejoin:miter;stroke:rgb(17.96875%,20.3125%,21.09375%);stroke-opacity:0.8;stroke-miterlimit:10;" d="M 3.827062 2.892022 L 4.129075 2.797006 " transform="matrix(122.718056,0,0,122.718056,-137.165183,-63.204039)"/>
</g>
</g>
</g>
<g clip-path="url(#clip64)" clip-rule="nonzero">
<g clip-path="url(#clip65)" clip-rule="evenodd">
<g clip-path="url(#clip66)" clip-rule="evenodd">
<path style="fill:none;stroke-width:0.0239572;stroke-linecap:butt;stroke-linejoin:miter;stroke:rgb(17.96875%,20.3125%,21.09375%);stroke-opacity:0.8;stroke-miterlimit:10;" d="M 3.827062 2.892022 L 3.916602 1.759503 " transform="matrix(122.718056,0,0,122.718056,-137.165183,-63.204039)"/>
</g>
</g>
</g>
<g clip-path="url(#clip67)" clip-rule="nonzero">
<g clip-path="url(#clip68)" clip-rule="evenodd">
<g clip-path="url(#clip69)" clip-rule="evenodd">
<path style="fill:none;stroke-width:0.0239572;stroke-linecap:butt;stroke-linejoin:miter;stroke:rgb(17.96875%,20.3125%,21.09375%);stroke-opacity:0.8;stroke-miterlimit:10;" d="M 3.827062 2.892022 L 4.833529 2.799711 " transform="matrix(122.718056,0,0,122.718056,-137.165183,-63.204039)"/>
</g>
</g>
</g>
<g clip-path="url(#clip70)" clip-rule="nonzero">
<g clip-path="url(#clip71)" clip-rule="evenodd">
<g clip-path="url(#clip72)" clip-rule="evenodd">
<path style="fill:none;stroke-width:0.0239572;stroke-linecap:butt;stroke-linejoin:miter;stroke:rgb(17.96875%,20.3125%,21.09375%);stroke-opacity:0.8;stroke-miterlimit:10;" d="M 1.698166 1.626354 L 1.951765 1.770326 " transform="matrix(122.718056,0,0,122.718056,-137.165183,-63.204039)"/>
</g>
</g>
</g>
<g clip-path="url(#clip73)" clip-rule="nonzero">
<g clip-path="url(#clip74)" clip-rule="evenodd">
<g clip-path="url(#clip75)" clip-rule="evenodd">
<path style="fill:none;stroke-width:0.0239572;stroke-linecap:butt;stroke-linejoin:miter;stroke:rgb(17.96875%,20.3125%,21.09375%);stroke-opacity:0.8;stroke-miterlimit:10;" d="M 1.951765 1.770326 L 2.267402 1.290249 " transform="matrix(122.718056,0,0,122.718056,-137.165183,-63.204039)"/>
</g>
</g>
</g>
<g clip-path="url(#clip76)" clip-rule="nonzero">
<g clip-path="url(#clip77)" clip-rule="evenodd">
<g clip-path="url(#clip78)" clip-rule="evenodd">
<path style="fill:none;stroke-width:0.0239572;stroke-linecap:butt;stroke-linejoin:miter;stroke:rgb(17.96875%,20.3125%,21.09375%);stroke-opacity:0.8;stroke-miterlimit:10;" d="M 3.916602 1.759503 L 3.522534 1.5046 " transform="matrix(122.718056,0,0,122.718056,-137.165183,-63.204039)"/>
</g>
</g>
</g>
<g clip-path="url(#clip79)" clip-rule="nonzero">
<g clip-path="url(#clip80)" clip-rule="evenodd">
<g clip-path="url(#clip81)" clip-rule="evenodd">
<path style="fill:none;stroke-width:0.0239572;stroke-linecap:butt;stroke-linejoin:miter;stroke:rgb(17.96875%,20.3125%,21.09375%);stroke-opacity:0.8;stroke-miterlimit:10;" d="M 3.916602 1.759503 L 3.678028 1.177121 " transform="matrix(122.718056,0,0,122.718056,-137.165183,-63.204039)"/>
</g>
</g>
</g>
<g clip-path="url(#clip82)" clip-rule="nonzero">
<g clip-path="url(#clip83)" clip-rule="evenodd">
<g clip-path="url(#clip84)" clip-rule="evenodd">
<path style="fill:none;stroke-width:0.0239572;stroke-linecap:butt;stroke-linejoin:miter;stroke:rgb(17.96875%,20.3125%,21.09375%);stroke-opacity:0.8;stroke-miterlimit:10;" d="M 3.916602 1.759503 L 4.627391 1.530606 " transform="matrix(122.718056,0,0,122.718056,-137.165183,-63.204039)"/>
</g>
</g>
</g>
<g clip-path="url(#clip85)" clip-rule="nonzero">
<g clip-path="url(#clip86)" clip-rule="evenodd">
<g clip-path="url(#clip87)" clip-rule="evenodd">
<path style="fill:none;stroke-width:0.0239572;stroke-linecap:butt;stroke-linejoin:miter;stroke:rgb(17.96875%,20.3125%,21.09375%);stroke-opacity:0.8;stroke-miterlimit:10;" d="M 2.330236 4.780178 L 2.026249 4.454674 " transform="matrix(122.718056,0,0,122.718056,-137.165183,-63.204039)"/>
</g>
</g>
</g>
<g clip-path="url(#clip88)" clip-rule="nonzero">
<g clip-path="url(#clip89)" clip-rule="evenodd">
<g clip-path="url(#clip90)" clip-rule="evenodd">
<path style="fill:none;stroke-width:0.0239572;stroke-linecap:butt;stroke-linejoin:miter;stroke:rgb(17.96875%,20.3125%,21.09375%);stroke-opacity:0.8;stroke-miterlimit:10;" d="M 2.330236 4.780178 L 2.626329 4.95891 " transform="matrix(122.718056,0,0,122.718056,-137.165183,-63.204039)"/>
</g>
</g>
</g>
<g clip-path="url(#clip91)" clip-rule="nonzero">
<g clip-path="url(#clip92)" clip-rule="evenodd">
<g clip-path="url(#clip93)" clip-rule="evenodd">
<path style="fill:none;stroke-width:0.0239572;stroke-linecap:butt;stroke-linejoin:miter;stroke:rgb(17.96875%,20.3125%,21.09375%);stroke-opacity:0.8;stroke-miterlimit:10;" d="M 2.026249 4.454674 L 2.003331 3.959286 " transform="matrix(122.718056,0,0,122.718056,-137.165183,-63.204039)"/>
</g>
</g>
</g>
<g clip-path="url(#clip94)" clip-rule="nonzero">
<g clip-path="url(#clip95)" clip-rule="evenodd">
<g clip-path="url(#clip96)" clip-rule="evenodd">
<path style="fill:none;stroke-width:0.0239572;stroke-linecap:butt;stroke-linejoin:miter;stroke:rgb(17.96875%,20.3125%,21.09375%);stroke-opacity:0.8;stroke-miterlimit:10;" d="M 5.725436 2.828009 L 5.420622 2.789812 " transform="matrix(122.718056,0,0,122.718056,-137.165183,-63.204039)"/>
</g>
</g>
</g>
<g clip-path="url(#clip97)" clip-rule="nonzero">
<g clip-path="url(#clip98)" clip-rule="evenodd">
<g clip-path="url(#clip99)" clip-rule="evenodd">
<path style="fill:none;stroke-width:0.0239572;stroke-linecap:butt;stroke-linejoin:miter;stroke:rgb(17.96875%,20.3125%,21.09375%);stroke-opacity:0.8;stroke-miterlimit:10;" d="M 4.833529 2.799711 L 5.420622 2.789812 " transform="matrix(122.718056,0,0,122.718056,-137.165183,-63.204039)"/>
</g>
</g>
</g>
<g clip-path="url(#clip100)" clip-rule="nonzero">
<g clip-path="url(#clip101)" clip-rule="evenodd">
<g clip-path="url(#clip102)" clip-rule="evenodd">
<path style="fill:none;stroke-width:0.0239572;stroke-linecap:butt;stroke-linejoin:miter;stroke:rgb(17.96875%,20.3125%,21.09375%);stroke-opacity:0.8;stroke-miterlimit:10;" d="M 2.267402 1.290249 L 2.503525 0.99944 " transform="matrix(122.718056,0,0,122.718056,-137.165183,-63.204039)"/>
</g>
</g>
</g>
<g clip-path="url(#clip103)" clip-rule="nonzero">
<g clip-path="url(#clip104)" clip-rule="evenodd">
<g clip-path="url(#clip105)" clip-rule="evenodd">
<path style="fill:none;stroke-width:0.0239572;stroke-linecap:butt;stroke-linejoin:miter;stroke:rgb(17.96875%,20.3125%,21.09375%);stroke-opacity:0.8;stroke-miterlimit:10;" d="M 5.104157 1.652933 L 4.627391 1.530606 " transform="matrix(122.718056,0,0,122.718056,-137.165183,-63.204039)"/>
</g>
</g>
</g>
<g clip-path="url(#clip106)" clip-rule="nonzero">
<g clip-path="url(#clip107)" clip-rule="evenodd">
<g clip-path="url(#clip108)" clip-rule="evenodd">
<path style="fill:none;stroke-width:0.0239572;stroke-linecap:butt;stroke-linejoin:miter;stroke:rgb(17.96875%,20.3125%,21.09375%);stroke-opacity:0.8;stroke-miterlimit:10;" d="M 4.414568 0.84108 L 4.611412 1.117661 " transform="matrix(122.718056,0,0,122.718056,-137.165183,-63.204039)"/>
</g>
</g>
</g>
<g clip-path="url(#clip109)" clip-rule="nonzero">
<g clip-path="url(#clip110)" clip-rule="evenodd">
<g clip-path="url(#clip111)" clip-rule="evenodd">
<path style="fill:none;stroke-width:0.0239572;stroke-linecap:butt;stroke-linejoin:miter;stroke:rgb(17.96875%,20.3125%,21.09375%);stroke-opacity:0.8;stroke-miterlimit:10;" d="M 4.611412 1.117661 L 4.627391 1.530606 " transform="matrix(122.718056,0,0,122.718056,-137.165183,-63.204039)"/>
</g>
</g>
</g>
<path style="fill-rule:nonzero;fill:rgb(100%,92.941176%,43.529412%);fill-opacity:1;stroke-width:0.0239572;stroke-linecap:butt;stroke-linejoin:miter;stroke:rgb(60%,60%,60%);stroke-opacity:0.8;stroke-miterlimit:10;" d="M 0.11979 -0.00000268694 C 0.11979 0.0661423 0.0661546 0.119778 0.00000954736 0.119778 C -0.0661673 0.119778 -0.119771 0.0661423 -0.119771 -0.00000268694 C -0.119771 -0.0661477 -0.0661673 -0.119783 0.00000954736 -0.119783 C 0.0661546 -0.119783 0.11979 -0.0661477 0.11979 -0.00000268694 Z M 0.11979 -0.00000268694 " transform="matrix(122.718056,0,0,122.718056,381.912891,526.683923)"/>
<path style="fill-rule:nonzero;fill:rgb(100%,92.941176%,43.529412%);fill-opacity:1;stroke-width:0.0239572;stroke-linecap:butt;stroke-linejoin:miter;stroke:rgb(60%,60%,60%);stroke-opacity:0.8;stroke-miterlimit:10;" d="M 0.119781 0.00000304218 C 0.119781 0.0661481 0.0661453 0.119783 0.000000256248 0.119783 C -0.0661448 0.119783 -0.11978 0.0661481 -0.11978 0.00000304218 C -0.11978 -0.066142 -0.0661448 -0.119777 0.000000256248 -0.119777 C 0.0661453 -0.119777 0.119781 -0.066142 0.119781 0.00000304218 Z M 0.119781 0.00000304218 " transform="matrix(122.718056,0,0,122.718056,427.320281,385.257439)"/>
<path style="fill-rule:nonzero;fill:rgb(100%,92.941176%,43.529412%);fill-opacity:1;stroke-width:0.0239572;stroke-linecap:butt;stroke-linejoin:miter;stroke:rgb(60%,60%,60%);stroke-opacity:0.8;stroke-miterlimit:10;" d="M 0.119784 0.0000100434 C 0.119784 0.0661551 0.0661488 0.11979 0.00000377938 0.11979 C -0.0661412 0.11979 -0.119777 0.0661551 -0.119777 0.0000100434 C -0.119777 -0.0661668 -0.0661412 -0.11977 0.00000377938 -0.11977 C 0.0661488 -0.11977 0.119784 -0.0661668 0.119784 0.0000100434 Z M 0.119784 0.0000100434 " transform="matrix(122.718056,0,0,122.718056,447.909692,438.135486)"/>
<path style="fill-rule:nonzero;fill:rgb(100%,92.941176%,43.529412%);fill-opacity:1;stroke-width:0.0239572;stroke-linecap:butt;stroke-linejoin:miter;stroke:rgb(60%,60%,60%);stroke-opacity:0.8;stroke-miterlimit:10;" d="M 0.119788 -0.0000036915 C 0.119788 0.0661413 0.066153 0.119777 0.00000794735 0.119777 C -0.0661689 0.119777 -0.119772 0.0661413 -0.119772 -0.0000036915 C -0.119772 -0.0661487 -0.0661689 -0.119784 0.00000794735 -0.119784 C 0.066153 -0.119784 0.119788 -0.0661487 0.119788 -0.0000036915 Z M 0.119788 -0.0000036915 " transform="matrix(122.718056,0,0,122.718056,446.916993,480.758266)"/>
<path style="fill-rule:nonzero;fill:rgb(100%,92.941176%,43.529412%);fill-opacity:1;stroke-width:0.0239572;stroke-linecap:butt;stroke-linejoin:miter;stroke:rgb(60%,60%,60%);stroke-opacity:0.8;stroke-miterlimit:10;" d="M 0.119779 0.00000558029 C 0.119779 0.0661506 0.0661432 0.119786 -0.00000179901 0.119786 C -0.0661468 0.119786 -0.119782 0.0661506 -0.119782 0.00000558029 C -0.119782 -0.0661713 -0.0661468 -0.119775 -0.00000179901 -0.119775 C 0.0661432 -0.119775 0.119779 -0.0661713 0.119779 0.00000558029 Z M 0.119779 0.00000558029 " transform="matrix(122.718056,0,0,122.718056,482.015846,432.300096)"/>
<path style="fill-rule:nonzero;fill:rgb(100%,92.941176%,43.529412%);fill-opacity:1;stroke-width:0.0239572;stroke-linecap:butt;stroke-linejoin:miter;stroke:rgb(60%,60%,60%);stroke-opacity:0.8;stroke-miterlimit:10;" d="M 0.119771 -0.000014374 C 0.119771 0.0661625 0.0661677 0.119798 -0.00000919006 0.119798 C -0.0661542 0.119798 -0.11979 0.0661625 -0.11979 -0.000014374 C -0.11979 -0.0661594 -0.0661542 -0.119795 -0.00000919006 -0.119795 C 0.0661677 -0.119795 0.119771 -0.0661594 0.119771 -0.000014374 Z M 0.119771 -0.000014374 " transform="matrix(122.718056,0,0,122.718056,194.122222,347.958795)"/>
<path style="fill-rule:nonzero;fill:rgb(100%,92.941176%,43.529412%);fill-opacity:1;stroke-width:0.0239572;stroke-linecap:butt;stroke-linejoin:miter;stroke:rgb(60%,60%,60%);stroke-opacity:0.8;stroke-miterlimit:10;" d="M 0.11978 0.00000787754 C 0.11978 0.0661529 0.0661445 0.119788 -0.000000468197 0.119788 C -0.0661455 0.119788 -0.119781 0.0661529 -0.119781 0.00000787754 C -0.119781 -0.066169 -0.0661455 -0.119773 -0.000000468197 -0.119773 C 0.0661445 -0.119773 0.11978 -0.066169 0.11978 0.00000787754 Z M 0.11978 0.00000787754 " transform="matrix(122.718056,0,0,122.718056,34.550839,245.956065)"/>
<path style="fill-rule:nonzero;fill:rgb(100%,92.941176%,43.529412%);fill-opacity:1;stroke-width:0.0239572;stroke-linecap:butt;stroke-linejoin:miter;stroke:rgb(60%,60%,60%);stroke-opacity:0.8;stroke-miterlimit:10;" d="M 0.11978 0.00000206894 C 0.11978 0.0661471 0.0661447 0.119782 -0.000000296741 0.119782 C -0.0661453 0.119782 -0.119781 0.0661471 -0.119781 0.00000206894 C -0.119781 -0.0661429 -0.0661453 -0.119778 -0.000000296741 -0.119778 C 0.0661447 -0.119778 0.11978 -0.0661429 0.11978 0.00000206894 Z M 0.11978 0.00000206894 " transform="matrix(122.718056,0,0,122.718056,165.054724,326.823965)"/>
<path style="fill-rule:nonzero;fill:rgb(100%,92.941176%,43.529412%);fill-opacity:1;stroke-width:0.0239572;stroke-linecap:butt;stroke-linejoin:miter;stroke:rgb(60%,60%,60%);stroke-opacity:0.8;stroke-miterlimit:10;" d="M 0.119783 -0.00000441535 C 0.119783 0.0661406 0.0661476 0.119776 0.00000254035 0.119776 C -0.0661425 0.119776 -0.119778 0.0661406 -0.119778 -0.00000441535 C -0.119778 -0.0661494 -0.0661425 -0.119785 0.00000254035 -0.119785 C 0.0661476 -0.119785 0.119783 -0.0661494 0.119783 -0.00000441535 Z M 0.119783 -0.00000441535 " transform="matrix(122.718056,0,0,122.718056,90.636407,237.734917)"/>
<path style="fill-rule:nonzero;fill:rgb(100%,92.941176%,43.529412%);fill-opacity:1;stroke-width:0.0239572;stroke-linecap:butt;stroke-linejoin:miter;stroke:rgb(60%,60%,60%);stroke-opacity:0.8;stroke-miterlimit:10;" d="M 0.119795 0.00000287486 C 0.119795 0.0661479 0.0661598 0.119783 0.0000147786 0.119783 C -0.0661621 0.119783 -0.119797 0.0661479 -0.119797 0.00000287486 C -0.119797 -0.0661421 -0.0661621 -0.119778 0.0000147786 -0.119778 C 0.0661598 -0.119778 0.119795 -0.0661421 0.119795 0.00000287486 Z M 0.119795 0.00000287486 " transform="matrix(122.718056,0,0,122.718056,240.279436,320.112928)"/>
<path style="fill-rule:nonzero;fill:rgb(100%,92.941176%,43.529412%);fill-opacity:1;stroke-width:0.0239572;stroke-linecap:butt;stroke-linejoin:miter;stroke:rgb(60%,60%,60%);stroke-opacity:0.8;stroke-miterlimit:10;" d="M 0.119774 0.00000878095 C 0.119774 0.0661538 0.0661704 0.119789 -0.00000643377 0.119789 C -0.0661514 0.119789 -0.119787 0.0661538 -0.119787 0.00000878095 C -0.119787 -0.0661681 -0.0661514 -0.119772 -0.00000643377 -0.119772 C 0.0661704 -0.119772 0.119774 -0.0661681 0.119774 0.00000878095 Z M 0.119774 0.00000878095 " transform="matrix(122.718056,0,0,122.718056,332.485165,291.698141)"/>
<path style="fill-rule:nonzero;fill:rgb(100%,92.941176%,43.529412%);fill-opacity:1;stroke-width:0.0239572;stroke-linecap:butt;stroke-linejoin:miter;stroke:rgb(60%,60%,60%);stroke-opacity:0.8;stroke-miterlimit:10;" d="M 0.119793 0.0000157153 C 0.119793 0.0661607 0.0661573 0.119796 0.000012247 0.119796 C -0.0661646 0.119796 -0.1198 0.0661607 -0.1198 0.0000157153 C -0.1198 -0.0661611 -0.0661646 -0.119797 0.000012247 -0.119797 C 0.0661573 -0.119797 0.119793 -0.0661611 0.119793 0.0000157153 Z M 0.119793 0.0000157153 " transform="matrix(122.718056,0,0,122.718056,155.525841,363.97854)"/>
<path style="fill-rule:nonzero;fill:rgb(100%,92.941176%,43.529412%);fill-opacity:1;stroke-width:0.0239572;stroke-linecap:butt;stroke-linejoin:miter;stroke:rgb(60%,60%,60%);stroke-opacity:0.8;stroke-miterlimit:10;" d="M 0.11978 -0.000011682 C 0.11978 0.0661652 0.0661447 0.119801 -0.00000035629 0.119801 C -0.0661454 0.119801 -0.119781 0.0661652 -0.119781 -0.000011682 C -0.119781 -0.0661567 -0.0661454 -0.119792 -0.00000035629 -0.119792 C 0.0661447 -0.119792 0.11978 -0.0661567 0.11978 -0.000011682 Z M 0.11978 -0.000011682 " transform="matrix(122.718056,0,0,122.718056,71.230512,136.38034)"/>
<path style="fill-rule:nonzero;fill:rgb(100%,92.941176%,43.529412%);fill-opacity:1;stroke-width:0.0239572;stroke-linecap:butt;stroke-linejoin:miter;stroke:rgb(60%,60%,60%);stroke-opacity:0.8;stroke-miterlimit:10;" d="M 0.119777 -0.00000312801 C 0.119777 0.0661419 0.0661412 0.119777 -0.00000379874 0.119777 C -0.0661488 0.119777 -0.119784 0.0661419 -0.119784 -0.00000312801 C -0.119784 -0.0661481 -0.0661488 -0.119784 -0.00000379874 -0.119784 C 0.0661412 -0.119784 0.119777 -0.0661481 0.119777 -0.00000312801 Z M 0.119777 -0.00000312801 " transform="matrix(122.718056,0,0,122.718056,102.352029,154.047259)"/>
<path style="fill-rule:nonzero;fill:rgb(100%,92.941176%,43.529412%);fill-opacity:1;stroke-width:0.0239572;stroke-linecap:butt;stroke-linejoin:miter;stroke:rgb(60%,60%,60%);stroke-opacity:0.8;stroke-miterlimit:10;" d="M 0.11979 -0.00000137154 C 0.11979 0.0661436 0.0661548 0.119779 0.00000981393 0.119779 C -0.066167 0.119779 -0.119771 0.0661436 -0.119771 -0.00000137154 C -0.119771 -0.0661464 -0.066167 -0.119782 0.00000981393 -0.119782 C 0.0661548 -0.119782 0.11979 -0.0661464 0.11979 -0.00000137154 Z M 0.11979 -0.00000137154 " transform="matrix(122.718056,0,0,122.718056,369.545671,280.039231)"/>
<path style="fill-rule:nonzero;fill:rgb(100%,92.941176%,43.529412%);fill-opacity:1;stroke-width:0.0239572;stroke-linecap:butt;stroke-linejoin:miter;stroke:rgb(60%,60%,60%);stroke-opacity:0.8;stroke-miterlimit:10;" d="M 0.11978 -0.00000175387 C 0.11978 0.0661433 0.0661445 0.119779 -0.000000560586 0.119779 C -0.0661456 0.119779 -0.119781 0.0661433 -0.119781 -0.00000175387 C -0.119781 -0.0661468 -0.0661456 -0.119782 -0.000000560586 -0.119782 C 0.0661445 -0.119782 0.11978 -0.0661468 0.11978 -0.00000175387 Z M 0.11978 -0.00000175387 " transform="matrix(122.718056,0,0,122.718056,343.472725,152.718965)"/>
<path style="fill-rule:nonzero;fill:rgb(100%,92.941176%,43.529412%);fill-opacity:1;stroke-width:0.0239572;stroke-linecap:butt;stroke-linejoin:miter;stroke:rgb(60%,60%,60%);stroke-opacity:0.8;stroke-miterlimit:10;" d="M 0.119788 0.0000054389 C 0.119788 0.0661505 0.0661525 0.119786 0.00000745226 0.119786 C -0.0661694 0.119786 -0.119773 0.0661505 -0.119773 0.0000054389 C -0.119773 -0.0661714 -0.0661694 -0.119775 0.00000745226 -0.119775 C 0.0661525 -0.119775 0.119788 -0.0661714 0.119788 0.0000054389 Z M 0.119788 0.0000054389 " transform="matrix(122.718056,0,0,122.718056,148.79596,523.409489)"/>
<path style="fill-rule:nonzero;fill:rgb(100%,92.941176%,43.529412%);fill-opacity:1;stroke-width:0.0239572;stroke-linecap:butt;stroke-linejoin:miter;stroke:rgb(60%,60%,60%);stroke-opacity:0.8;stroke-miterlimit:10;" d="M 0.119782 0.0000126161 C 0.119782 0.0661576 0.0661471 0.119793 0.00000208887 0.119793 C -0.0661429 0.119793 -0.119778 0.0661576 -0.119778 0.0000126161 C -0.119778 -0.0661642 -0.0661429 -0.1198 0.00000208887 -0.1198 C 0.0661471 -0.1198 0.119782 -0.0661642 0.119782 0.0000126161 Z M 0.119782 0.0000126161 " transform="matrix(122.718056,0,0,122.718056,75.105212,339.080483)"/>
<path style="fill-rule:nonzero;fill:rgb(100%,92.941176%,43.529412%);fill-opacity:1;stroke-width:0.0239572;stroke-linecap:butt;stroke-linejoin:miter;stroke:rgb(60%,60%,60%);stroke-opacity:0.8;stroke-miterlimit:10;" d="M 0.119794 -0.00000705301 C 0.119794 0.0661698 0.0661584 0.119773 0.0000134132 0.119773 C -0.0661634 0.119773 -0.119799 0.0661698 -0.119799 -0.00000705301 C -0.119799 -0.0661521 -0.0661634 -0.119787 0.0000134132 -0.119787 C 0.0661584 -0.119787 0.119794 -0.0661521 0.119794 -0.00000705301 Z M 0.119794 -0.00000705301 " transform="matrix(122.718056,0,0,122.718056,111.490541,483.465709)"/>
<path style="fill-rule:nonzero;fill:rgb(100%,92.941176%,43.529412%);fill-opacity:1;stroke-width:0.0239572;stroke-linecap:butt;stroke-linejoin:miter;stroke:rgb(60%,60%,60%);stroke-opacity:0.8;stroke-miterlimit:10;" d="M 0.119782 -0.00000512674 C 0.119782 0.0661717 0.0661462 0.119775 0.00000115212 0.119775 C -0.0661439 0.119775 -0.119779 0.0661717 -0.119779 -0.00000512674 C -0.119779 -0.0661501 -0.0661439 -0.119786 0.00000115212 -0.119786 C 0.0661462 -0.119786 0.119782 -0.0661501 0.119782 -0.00000512674 Z M 0.119782 -0.00000512674 " transform="matrix(122.718056,0,0,122.718056,185.132671,545.344379)"/>
<path style="fill-rule:nonzero;fill:rgb(100%,92.941176%,43.529412%);fill-opacity:1;stroke-width:0.0239572;stroke-linecap:butt;stroke-linejoin:miter;stroke:rgb(60%,60%,60%);stroke-opacity:0.8;stroke-miterlimit:10;" d="M 0.119786 -0.00000546311 C 0.119786 0.0661714 0.0661504 0.119775 0.00000541002 0.119775 C -0.0661714 0.119775 -0.119775 0.0661714 -0.119775 -0.00000546311 C -0.119775 -0.0661505 -0.0661714 -0.119786 0.00000541002 -0.119786 C 0.0661504 -0.119786 0.119786 -0.0661505 0.119786 -0.00000546311 Z M 0.119786 -0.00000546311 " transform="matrix(122.718056,0,0,122.718056,108.679024,422.672545)"/>
<path style="fill-rule:nonzero;fill:rgb(100%,92.941176%,43.529412%);fill-opacity:1;stroke-width:0.0239572;stroke-linecap:butt;stroke-linejoin:miter;stroke:rgb(60%,60%,60%);stroke-opacity:0.8;stroke-miterlimit:10;" d="M 0.119781 0.00000428489 C 0.119781 0.0661493 0.0661455 0.119785 0.000000468197 0.119785 C -0.0661445 0.119785 -0.11978 0.0661493 -0.11978 0.00000428489 C -0.11978 -0.0661407 -0.0661445 -0.119776 0.000000468197 -0.119776 C 0.0661455 -0.119776 0.119781 -0.0661407 0.119781 0.00000428489 Z M 0.119781 0.00000428489 " transform="matrix(122.718056,0,0,122.718056,565.449161,283.843224)"/>
<path style="fill-rule:nonzero;fill:rgb(100%,92.941176%,43.529412%);fill-opacity:1;stroke-width:0.0239572;stroke-linecap:butt;stroke-linejoin:miter;stroke:rgb(60%,60%,60%);stroke-opacity:0.8;stroke-miterlimit:10;" d="M 0.119789 0.00000195953 C 0.119789 0.066147 0.0661532 0.119782 0.00000820802 0.119782 C -0.0661686 0.119782 -0.119772 0.066147 -0.119772 0.00000195953 C -0.119772 -0.0661431 -0.0661686 -0.119778 0.00000820802 -0.119778 C 0.0661532 -0.119778 0.119789 -0.0661431 0.119789 0.00000195953 Z M 0.119789 0.00000195953 " transform="matrix(122.718056,0,0,122.718056,455.995086,280.370853)"/>
<path style="fill-rule:nonzero;fill:rgb(100%,92.941176%,43.529412%);fill-opacity:1;stroke-width:0.0239572;stroke-linecap:butt;stroke-linejoin:miter;stroke:rgb(60%,60%,60%);stroke-opacity:0.8;stroke-miterlimit:10;" d="M 0.11977 0.00000658803 C 0.11977 0.0661516 0.0661665 0.119787 -0.000010335 0.119787 C -0.0661553 0.119787 -0.119791 0.0661516 -0.119791 0.00000658803 C -0.119791 -0.0661703 -0.0661553 -0.119774 -0.000010335 -0.119774 C 0.0661665 -0.119774 0.11977 -0.0661703 0.11977 0.00000658803 Z M 0.11977 0.00000658803 " transform="matrix(122.718056,0,0,122.718056,528.044237,279.155442)"/>
<path style="fill-rule:nonzero;fill:rgb(100%,92.941176%,43.529412%);fill-opacity:1;stroke-width:0.0239572;stroke-linecap:butt;stroke-linejoin:miter;stroke:rgb(60%,60%,60%);stroke-opacity:0.8;stroke-miterlimit:10;" d="M 0.119795 -0.0000131756 C 0.119795 0.0661637 0.0661595 0.119799 0.0000144842 0.119799 C -0.0661624 0.119799 -0.119798 0.0661637 -0.119798 -0.0000131756 C -0.119798 -0.0661582 -0.0661624 -0.119794 0.0000144842 -0.119794 C 0.0661595 -0.119794 0.119795 -0.0661582 0.119795 -0.0000131756 Z M 0.119795 -0.0000131756 " transform="matrix(122.718056,0,0,122.718056,141.08416,95.134429)"/>
<path style="fill-rule:nonzero;fill:rgb(100%,92.941176%,43.529412%);fill-opacity:1;stroke-width:0.0239572;stroke-linecap:butt;stroke-linejoin:miter;stroke:rgb(60%,60%,60%);stroke-opacity:0.8;stroke-miterlimit:10;" d="M 0.119794 0.0000105703 C 0.119794 0.0661556 0.066159 0.119791 0.000014027 0.119791 C -0.0661628 0.119791 -0.119798 0.0661556 -0.119798 0.0000105703 C -0.119798 -0.0661663 -0.0661628 -0.119802 0.000014027 -0.119802 C 0.066159 -0.119802 0.119794 -0.0661663 0.119794 0.0000105703 Z M 0.119794 0.0000105703 " transform="matrix(122.718056,0,0,122.718056,170.060779,59.444015)"/>
<path style="fill-rule:nonzero;fill:rgb(100%,92.941176%,43.529412%);fill-opacity:1;stroke-width:0.0239572;stroke-linecap:butt;stroke-linejoin:miter;stroke:rgb(60%,60%,60%);stroke-opacity:0.8;stroke-miterlimit:10;" d="M 0.119784 0.00000194511 C 0.119784 0.066147 0.0661485 0.119782 0.00000343931 0.119782 C -0.0661416 0.119782 -0.119777 0.066147 -0.119777 0.00000194511 C -0.119777 -0.0661431 -0.0661416 -0.119778 0.00000343931 -0.119778 C 0.0661485 -0.119778 0.119784 -0.0661431 0.119784 0.00000194511 Z M 0.119784 0.00000194511 " transform="matrix(122.718056,0,0,122.718056,295.112859,121.437261)"/>
<path style="fill-rule:nonzero;fill:rgb(100%,92.941176%,43.529412%);fill-opacity:1;stroke-width:0.0239572;stroke-linecap:butt;stroke-linejoin:miter;stroke:rgb(60%,60%,60%);stroke-opacity:0.8;stroke-miterlimit:10;" d="M 0.119792 -0.00000910838 C 0.119792 0.0661677 0.0661565 0.119771 0.0000114544 0.119771 C -0.0661654 0.119771 -0.119801 0.0661677 -0.119801 -0.00000910838 C -0.119801 -0.0661541 -0.0661654 -0.11979 0.0000114544 -0.11979 C 0.0661565 -0.11979 0.119792 -0.0661541 0.119792 -0.00000910838 Z M 0.119792 -0.00000910838 " transform="matrix(122.718056,0,0,122.718056,314.193907,81.251118)"/>
<path style="fill-rule:nonzero;fill:rgb(55.294118%,82.745098%,78.039216%);fill-opacity:1;stroke-width:0.0239572;stroke-linecap:butt;stroke-linejoin:miter;stroke:rgb(60%,60%,60%);stroke-opacity:0.8;stroke-miterlimit:10;" d="M 0.119774 0.00000314709 C 0.119774 0.0661482 0.0661707 0.119784 -0.00000618712 0.119784 C -0.0661512 0.119784 -0.119787 0.0661482 -0.119787 0.00000314709 C -0.119787 -0.0661419 -0.0661512 -0.119777 -0.00000618712 -0.119777 C 0.0661707 -0.119777 0.119774 -0.0661419 0.119774 0.00000314709 Z M 0.119774 0.00000314709 " transform="matrix(122.718056,0,0,122.718056,489.207791,139.640239)"/>
<path style="fill-rule:nonzero;fill:rgb(55.294118%,82.745098%,78.039216%);fill-opacity:1;stroke-width:0.0239572;stroke-linecap:butt;stroke-linejoin:miter;stroke:rgb(60%,60%,60%);stroke-opacity:0.8;stroke-miterlimit:10;" d="M 0.119793 -0.00000414237 C 0.119793 0.0661409 0.066158 0.119776 0.0000129638 0.119776 C -0.0661639 0.119776 -0.119799 0.0661409 -0.119799 -0.00000414237 C -0.119799 -0.0661492 -0.0661639 -0.119785 0.0000129638 -0.119785 C 0.066158 -0.119785 0.119793 -0.0661492 0.119793 -0.00000414237 Z M 0.119793 -0.00000414237 " transform="matrix(122.718056,0,0,122.718056,404.58044,40.012227)"/>
<path style="fill-rule:nonzero;fill:rgb(55.294118%,82.745098%,78.039216%);fill-opacity:1;stroke-width:0.0239572;stroke-linecap:butt;stroke-linejoin:miter;stroke:rgb(60%,60%,60%);stroke-opacity:0.8;stroke-miterlimit:10;" d="M 0.119778 0.0000076133 C 0.119778 0.0661526 0.0661427 0.119788 -0.00000234267 0.119788 C -0.0661474 0.119788 -0.119783 0.0661526 -0.119783 0.0000076133 C -0.119783 -0.0661692 -0.0661474 -0.119773 -0.00000234267 -0.119773 C 0.0661427 -0.119773 0.119778 -0.0661692 0.119778 0.0000076133 Z M 0.119778 0.0000076133 " transform="matrix(122.718056,0,0,122.718056,428.738569,73.952191)"/>
<path style="fill-rule:nonzero;fill:rgb(55.294118%,82.745098%,78.039216%);fill-opacity:1;stroke-width:0.0239572;stroke-linecap:butt;stroke-linejoin:miter;stroke:rgb(60%,60%,60%);stroke-opacity:0.8;stroke-miterlimit:10;" d="M 0.119773 0.00000167867 C 0.119773 0.0661467 0.0661697 0.119782 -0.00000718208 0.119782 C -0.0661522 0.119782 -0.119788 0.0661467 -0.119788 0.00000167867 C -0.119788 -0.0661433 -0.0661522 -0.119779 -0.00000718208 -0.119779 C 0.0661697 -0.119779 0.119773 -0.0661433 0.119773 0.00000167867 Z M 0.119773 0.00000167867 " transform="matrix(122.718056,0,0,122.718056,430.7001,124.6287)"/>
<path style="fill-rule:nonzero;fill:rgb(100%,92.941176%,43.529412%);fill-opacity:1;stroke-width:0.0239572;stroke-linecap:butt;stroke-linejoin:miter;stroke:rgb(60%,60%,60%);stroke-opacity:0.8;stroke-miterlimit:10;" d="M 0.119798 0.00000414237 C 0.119798 0.0661492 0.0661624 0.119785 -0.0000144126 0.119785 C -0.0661594 0.119785 -0.119795 0.0661492 -0.119795 0.00000414237 C -0.119795 -0.0661409 -0.0661594 -0.119776 -0.0000144126 -0.119776 C 0.0661624 -0.119776 0.119798 -0.0661409 0.119798 0.00000414237 Z M 0.119798 0.00000414237 " transform="matrix(122.718056,0,0,122.718056,368.611144,559.987773)"/>
<path style="fill-rule:nonzero;fill:rgb(100%,92.941176%,43.529412%);fill-opacity:1;stroke-width:0.0239572;stroke-linecap:butt;stroke-linejoin:miter;stroke:rgb(60%,60%,60%);stroke-opacity:0.8;stroke-miterlimit:10;" d="M 0.119786 -0.00000895164 C 0.119786 0.0661679 0.0661504 0.119771 0.00000539978 0.119771 C -0.0661714 0.119771 -0.119775 0.0661679 -0.119775 -0.00000895164 C -0.119775 -0.066154 -0.0661714 -0.119789 0.00000539978 -0.119789 C 0.0661504 -0.119789 0.119786 -0.066154 0.119786 -0.00000895164 Z M 0.119786 -0.00000895164 " transform="matrix(122.718056,0,0,122.718056,326.511056,537.954224)"/>
</g>
</svg>
