<?xml version="1.0" encoding="UTF-8"?>
<svg xmlns="http://www.w3.org/2000/svg" xmlns:xlink="http://www.w3.org/1999/xlink" width="600pt" height="600pt" viewBox="0 0 600 600" version="1.1">
<defs>
<clipPath id="clip1">
  <path d="M 269.503906 265 L 422.691406 265 L 422.691406 359 L 269.503906 359 Z M 269.503906 265 "/>
</clipPath>
<clipPath id="clip2">
  <path d="M 269.503906 179.914062 L 422.691406 179.914062 L 422.691406 444.136719 L 269.503906 444.136719 Z M 269.503906 179.914062 L 424.027344 317.273438 C 424.027344 325.277344 417.539062 331.761719 409.539062 331.761719 C 401.535156 331.761719 395.050781 325.277344 395.050781 317.273438 C 395.050781 309.273438 401.535156 302.785156 409.539062 302.785156 C 417.539062 302.785156 424.027344 309.273438 424.027344 317.273438 Z M 269.503906 179.914062 "/>
</clipPath>
<clipPath id="clip3">
  <path d="M 269.503906 179.914062 L 422.691406 179.914062 L 422.691406 444.136719 L 269.503906 444.136719 Z M 269.503906 179.914062 L 297.144531 306.777344 C 297.144531 314.78125 290.65625 321.265625 282.65625 321.265625 C 274.652344 321.265625 268.167969 314.78125 268.167969 306.777344 C 268.167969 298.777344 274.652344 292.289062 282.65625 292.289062 C 290.65625 292.289062 297.144531 298.777344 297.144531 306.777344 Z M 269.503906 179.914062 "/>
</clipPath>
<clipPath id="clip4">
  <path d="M 399.648438 270 L 523.460938 270 L 523.460938 359 L 399.648438 359 Z M 399.648438 270 "/>
</clipPath>
<clipPath id="clip5">
  <path d="M 399.648438 184.324219 L 523.460938 184.324219 L 523.460938 444.367188 L 399.648438 444.367188 Z M 399.648438 184.324219 L 424.027344 317.273438 C 424.027344 325.277344 417.539062 331.761719 409.539062 331.761719 C 401.535156 331.761719 395.050781 325.277344 395.050781 317.273438 C 395.050781 309.273438 401.535156 302.785156 409.539062 302.785156 C 417.539062 302.785156 424.027344 309.273438 424.027344 317.273438 Z M 399.648438 184.324219 "/>
</clipPath>
<clipPath id="clip6">
  <path d="M 399.648438 184.324219 L 523.460938 184.324219 L 523.460938 444.367188 L 399.648438 444.367188 Z M 399.648438 184.324219 L 528.058594 311.417969 C 528.058594 319.417969 521.570312 325.90625 513.570312 325.90625 C 505.566406 325.90625 499.082031 319.417969 499.082031 311.417969 C 499.082031 303.414062 505.566406 296.929688 513.570312 296.929688 C 521.570312 296.929688 528.058594 303.414062 528.058594 311.417969 Z M 399.648438 184.324219 "/>
</clipPath>
<clipPath id="clip7">
  <path d="M 368 276 L 475 276 L 475 398 L 368 398 Z M 368 276 "/>
</clipPath>
<clipPath id="clip8">
  <path d="M 300.441406 249.609375 L 542.835938 249.609375 L 542.835938 424.617188 L 300.441406 424.617188 Z M 300.441406 249.609375 L 424.027344 317.273438 C 424.027344 325.277344 417.539062 331.761719 409.539062 331.761719 C 401.535156 331.761719 395.050781 325.277344 395.050781 317.273438 C 395.050781 309.273438 401.535156 302.785156 409.539062 302.785156 C 417.539062 302.785156 424.027344 309.273438 424.027344 317.273438 Z M 300.441406 249.609375 "/>
</clipPath>
<clipPath id="clip9">
  <path d="M 300.441406 249.609375 L 542.835938 249.609375 L 542.835938 424.617188 L 300.441406 424.617188 Z M 300.441406 249.609375 L 448.226562 356.953125 C 448.226562 364.953125 441.738281 371.441406 433.738281 371.441406 C 425.734375 371.441406 419.246094 364.953125 419.246094 356.953125 C 419.246094 348.949219 425.734375 342.464844 433.738281 342.464844 C 441.738281 342.464844 448.226562 348.949219 448.226562 356.953125 Z M 300.441406 249.609375 "/>
</clipPath>
<clipPath id="clip10">
  <path d="M 198 65 L 335 65 L 335 209 L 198 209 Z M 198 65 "/>
</clipPath>
<clipPath id="clip11">
  <path d="M 143.933594 20.4375 L 388.828125 20.4375 L 388.828125 253.511719 L 143.933594 253.511719 Z M 143.933594 20.4375 L 253.558594 167.160156 C 253.558594 175.160156 247.074219 181.648438 239.070312 181.648438 C 231.070312 181.648438 224.582031 175.160156 224.582031 167.160156 C 224.582031 159.15625 231.070312 152.671875 239.070312 152.671875 C 247.074219 152.671875 253.558594 159.15625 253.558594 167.160156 Z M 143.933594 20.4375 "/>
</clipPath>
<clipPath id="clip12">
  <path d="M 143.933594 20.4375 L 388.828125 20.4375 L 388.828125 253.511719 L 143.933594 253.511719 Z M 143.933594 20.4375 L 308.179688 106.789062 C 308.179688 114.789062 301.691406 121.277344 293.691406 121.277344 C 285.6875 121.277344 279.203125 114.789062 279.203125 106.789062 C 279.203125 98.785156 285.6875 92.300781 293.691406 92.300781 C 301.691406 92.300781 308.179688 98.785156 308.179688 106.789062 Z M 143.933594 20.4375 "/>
</clipPath>
<clipPath id="clip13">
  <path d="M 198 127.195312 L 324 127.195312 L 324 346.742188 L 198 346.742188 Z M 198 127.195312 "/>
</clipPath>
<clipPath id="clip14">
  <path d="M 117.433594 127.195312 L 404.292969 127.195312 L 404.292969 346.742188 L 117.433594 346.742188 Z M 117.433594 127.195312 L 253.558594 167.160156 C 253.558594 175.160156 247.074219 181.648438 239.070312 181.648438 C 231.070312 181.648438 224.582031 175.160156 224.582031 167.160156 C 224.582031 159.15625 231.070312 152.671875 239.070312 152.671875 C 247.074219 152.671875 253.558594 159.15625 253.558594 167.160156 Z M 117.433594 127.195312 "/>
</clipPath>
<clipPath id="clip15">
  <path d="M 117.433594 127.195312 L 404.292969 127.195312 L 404.292969 346.742188 L 117.433594 346.742188 Z M 117.433594 127.195312 L 297.144531 306.777344 C 297.144531 314.78125 290.65625 321.265625 282.65625 321.265625 C 274.652344 321.265625 268.167969 314.78125 268.167969 306.777344 C 268.167969 298.777344 274.652344 292.289062 282.65625 292.289062 C 290.65625 292.289062 297.144531 298.777344 297.144531 306.777344 Z M 117.433594 127.195312 "/>
</clipPath>
<clipPath id="clip16">
  <path d="M 183 62.246094 L 281 62.246094 L 281 193.089844 L 183 193.089844 Z M 183 62.246094 "/>
</clipPath>
<clipPath id="clip17">
  <path d="M 99.050781 62.246094 L 364.207031 62.246094 L 364.207031 193.089844 L 99.050781 193.089844 Z M 99.050781 62.246094 L 253.558594 167.160156 C 253.558594 175.160156 247.074219 181.648438 239.070312 181.648438 C 231.070312 181.648438 224.582031 175.160156 224.582031 167.160156 C 224.582031 159.15625 231.070312 152.671875 239.070312 152.671875 C 247.074219 152.671875 253.558594 159.15625 253.558594 167.160156 Z M 99.050781 62.246094 "/>
</clipPath>
<clipPath id="clip18">
  <path d="M 99.050781 62.246094 L 364.207031 62.246094 L 364.207031 193.089844 L 99.050781 193.089844 Z M 99.050781 62.246094 L 238.675781 88.175781 C 238.675781 96.179688 232.191406 102.664062 224.1875 102.664062 C 216.1875 102.664062 209.699219 96.179688 209.699219 88.175781 C 209.699219 80.175781 216.1875 73.6875 224.1875 73.6875 C 232.191406 73.6875 238.675781 80.175781 238.675781 88.175781 Z M 99.050781 62.246094 "/>
</clipPath>
<clipPath id="clip19">
  <path d="M 131.550781 116 L 255.539062 116 L 255.539062 209 L 131.550781 209 Z M 131.550781 116 "/>
</clipPath>
<clipPath id="clip20">
  <path d="M 131.550781 30.621094 L 255.539062 30.621094 L 255.539062 293.707031 L 131.550781 293.707031 Z M 131.550781 30.621094 L 253.558594 167.160156 C 253.558594 175.160156 247.074219 181.648438 239.070312 181.648438 C 231.070312 181.648438 224.582031 175.160156 224.582031 167.160156 C 224.582031 159.15625 231.070312 152.671875 239.070312 152.671875 C 247.074219 152.671875 253.558594 159.15625 253.558594 167.160156 Z M 131.550781 30.621094 "/>
</clipPath>
<clipPath id="clip21">
  <path d="M 131.550781 30.621094 L 255.539062 30.621094 L 255.539062 293.707031 L 131.550781 293.707031 Z M 131.550781 30.621094 L 162.507812 157.167969 C 162.507812 165.171875 156.019531 171.65625 148.019531 171.65625 C 140.019531 171.65625 133.53125 165.171875 133.53125 157.167969 C 133.53125 149.167969 140.019531 142.679688 148.019531 142.679688 C 156.019531 142.679688 162.507812 149.167969 162.507812 157.167969 Z M 131.550781 30.621094 "/>
</clipPath>
<clipPath id="clip22">
  <path d="M 252 17 L 361 17 L 361 148 L 252 148 Z M 252 17 "/>
</clipPath>
<clipPath id="clip23">
  <path d="M 180.84375 -2.789062 L 432.203125 -2.789062 L 432.203125 167.863281 L 180.84375 167.863281 Z M 180.84375 -2.789062 L 333.84375 58.285156 C 333.84375 66.285156 327.355469 72.773438 319.355469 72.773438 C 311.351562 72.773438 304.867188 66.285156 304.867188 58.285156 C 304.867188 50.28125 311.351562 43.796875 319.355469 43.796875 C 327.355469 43.796875 333.84375 50.28125 333.84375 58.285156 Z M 180.84375 -2.789062 "/>
</clipPath>
<clipPath id="clip24">
  <path d="M 180.84375 -2.789062 L 432.203125 -2.789062 L 432.203125 167.863281 L 180.84375 167.863281 Z M 180.84375 -2.789062 L 308.179688 106.789062 C 308.179688 114.789062 301.691406 121.277344 293.691406 121.277344 C 285.6875 121.277344 279.203125 114.789062 279.203125 106.789062 C 279.203125 98.785156 285.6875 92.300781 293.691406 92.300781 C 301.691406 92.300781 308.179688 98.785156 308.179688 106.789062 Z M 180.84375 -2.789062 "/>
</clipPath>
<clipPath id="clip25">
  <path d="M 166 265 L 324 265 L 324 489 L 166 489 Z M 166 265 "/>
</clipPath>
<clipPath id="clip26">
  <path d="M 95.03125 245.417969 L 395.351562 245.417969 L 395.351562 508.859375 L 95.03125 508.859375 Z M 95.03125 245.417969 L 297.144531 306.777344 C 297.144531 314.78125 290.65625 321.265625 282.65625 321.265625 C 274.652344 321.265625 268.167969 314.78125 268.167969 306.777344 C 268.167969 298.777344 274.652344 292.289062 282.65625 292.289062 C 290.65625 292.289062 297.144531 298.777344 297.144531 306.777344 Z M 95.03125 245.417969 "/>
</clipPath>
<clipPath id="clip27">
  <path d="M 95.03125 245.417969 L 395.351562 245.417969 L 395.351562 508.859375 L 95.03125 508.859375 Z M 95.03125 245.417969 L 222.214844 447.5 C 222.214844 455.5 215.726562 461.988281 207.726562 461.988281 C 199.722656 461.988281 193.238281 455.5 193.238281 447.5 C 193.238281 439.496094 199.722656 433.011719 207.726562 433.011719 C 215.726562 433.011719 222.214844 439.496094 222.214844 447.5 Z M 95.03125 245.417969 "/>
</clipPath>
<clipPath id="clip28">
  <path d="M 232 278.0625 L 324 278.0625 L 324 380.894531 L 232 380.894531 Z M 232 278.0625 "/>
</clipPath>
<clipPath id="clip29">
  <path d="M 148.445312 278.0625 L 407.234375 278.0625 L 407.234375 380.894531 L 148.445312 380.894531 Z M 148.445312 278.0625 L 297.144531 306.777344 C 297.144531 314.78125 290.65625 321.265625 282.65625 321.265625 C 274.652344 321.265625 268.167969 314.78125 268.167969 306.777344 C 268.167969 298.777344 274.652344 292.289062 282.65625 292.289062 C 290.65625 292.289062 297.144531 298.777344 297.144531 306.777344 Z M 148.445312 278.0625 "/>
</clipPath>
<clipPath id="clip30">
  <path d="M 148.445312 278.0625 L 407.234375 278.0625 L 407.234375 380.894531 L 148.445312 380.894531 Z M 148.445312 278.0625 L 287.511719 352.179688 C 287.511719 360.179688 281.023438 366.667969 273.023438 366.667969 C 265.019531 366.667969 258.535156 360.179688 258.535156 352.179688 C 258.535156 344.175781 265.019531 337.691406 273.023438 337.691406 C 281.023438 337.691406 287.511719 344.175781 287.511719 352.179688 Z M 148.445312 278.0625 "/>
</clipPath>
<clipPath id="clip31">
  <path d="M 472 198.847656 L 562 198.847656 L 562 323.4375 L 472 323.4375 Z M 472 198.847656 "/>
</clipPath>
<clipPath id="clip32">
  <path d="M 386.617188 198.847656 L 647.917969 198.847656 L 647.917969 323.4375 L 386.617188 323.4375 Z M 386.617188 198.847656 L 535.453125 210.867188 C 535.453125 218.871094 528.96875 225.355469 520.964844 225.355469 C 512.964844 225.355469 506.476562 218.871094 506.476562 210.867188 C 506.476562 202.867188 512.964844 196.378906 520.964844 196.378906 C 528.96875 196.378906 535.453125 202.867188 535.453125 210.867188 Z M 386.617188 198.847656 "/>
</clipPath>
<clipPath id="clip33">
  <path d="M 386.617188 198.847656 L 647.917969 198.847656 L 647.917969 323.4375 L 386.617188 323.4375 Z M 386.617188 198.847656 L 528.058594 311.417969 C 528.058594 319.417969 521.570312 325.90625 513.570312 325.90625 C 505.566406 325.90625 499.082031 319.417969 499.082031 311.417969 C 499.082031 303.414062 505.566406 296.929688 513.570312 296.929688 C 521.570312 296.929688 528.058594 303.414062 528.058594 311.417969 Z M 386.617188 198.847656 "/>
</clipPath>
<clipPath id="clip34">
  <path d="M 479 129 L 580 129 L 580 252 L 479 252 Z M 479 129 "/>
</clipPath>
<clipPath id="clip35">
  <path d="M 403.601562 118.570312 L 655.644531 118.570312 L 655.644531 262.457031 L 403.601562 262.457031 Z M 403.601562 118.570312 L 535.453125 210.867188 C 535.453125 218.871094 528.96875 225.355469 520.964844 225.355469 C 512.964844 225.355469 506.476562 218.871094 506.476562 210.867188 C 506.476562 202.867188 512.964844 196.378906 520.964844 196.378906 C 528.96875 196.378906 535.453125 202.867188 535.453125 210.867188 Z M 403.601562 118.570312 "/>
</clipPath>
<clipPath id="clip36">
  <path d="M 403.601562 118.570312 L 655.644531 118.570312 L 655.644531 262.457031 L 403.601562 262.457031 Z M 403.601562 118.570312 L 552.769531 170.160156 C 552.769531 178.164062 546.28125 184.648438 538.28125 184.648438 C 530.277344 184.648438 523.792969 178.164062 523.792969 170.160156 C 523.792969 162.160156 530.277344 155.671875 538.28125 155.671875 C 546.28125 155.671875 552.769531 162.160156 552.769531 170.160156 Z M 403.601562 118.570312 "/>
</clipPath>
<clipPath id="clip37">
  <path d="M 483.984375 169 L 600 169 L 600 265 L 483.984375 265 Z M 483.984375 169 "/>
</clipPath>
<clipPath id="clip38">
  <path d="M 483.984375 88.339844 L 602.492188 88.339844 L 602.492188 346.085938 L 483.984375 346.085938 Z M 483.984375 88.339844 L 535.453125 210.867188 C 535.453125 218.871094 528.96875 225.355469 520.964844 225.355469 C 512.964844 225.355469 506.476562 218.871094 506.476562 210.867188 C 506.476562 202.867188 512.964844 196.378906 520.964844 196.378906 C 528.96875 196.378906 535.453125 202.867188 535.453125 210.867188 Z M 483.984375 88.339844 "/>
</clipPath>
<clipPath id="clip39">
  <path d="M 483.984375 88.339844 L 602.492188 88.339844 L 602.492188 346.085938 L 483.984375 346.085938 Z M 483.984375 88.339844 L 580 223.558594 C 580 231.558594 573.511719 238.046875 565.511719 238.046875 C 557.507812 238.046875 551.023438 231.558594 551.023438 223.558594 C 551.023438 215.554688 557.507812 209.070312 565.511719 209.070312 C 573.511719 209.070312 580 215.554688 580 223.558594 Z M 483.984375 88.339844 "/>
</clipPath>
<clipPath id="clip40">
  <path d="M 438 95 L 562 95 L 562 252 L 438 252 Z M 438 95 "/>
</clipPath>
<clipPath id="clip41">
  <path d="M 367.921875 72.625 L 632.035156 72.625 L 632.035156 275.179688 L 367.921875 275.179688 Z M 367.921875 72.625 L 535.453125 210.867188 C 535.453125 218.871094 528.96875 225.355469 520.964844 225.355469 C 512.964844 225.355469 506.476562 218.871094 506.476562 210.867188 C 506.476562 202.867188 512.964844 196.378906 520.964844 196.378906 C 528.96875 196.378906 535.453125 202.867188 535.453125 210.867188 Z M 367.921875 72.625 "/>
</clipPath>
<clipPath id="clip42">
  <path d="M 367.921875 72.625 L 632.035156 72.625 L 632.035156 275.179688 L 367.921875 275.179688 Z M 367.921875 72.625 L 493.480469 136.9375 C 493.480469 144.9375 486.996094 151.425781 478.992188 151.425781 C 470.992188 151.425781 464.503906 144.9375 464.503906 136.9375 C 464.503906 128.933594 470.992188 122.449219 478.992188 122.449219 C 486.996094 122.449219 493.480469 128.933594 493.480469 136.9375 Z M 367.921875 72.625 "/>
</clipPath>
<clipPath id="clip43">
  <path d="M 472 270 L 600 270 L 600 375 L 472 375 Z M 472 270 "/>
</clipPath>
<clipPath id="clip44">
  <path d="M 461.859375 194.109375 L 617.441406 194.109375 L 617.441406 450.980469 L 461.859375 450.980469 Z M 461.859375 194.109375 L 528.058594 311.417969 C 528.058594 319.417969 521.570312 325.90625 513.570312 325.90625 C 505.566406 325.90625 499.082031 319.417969 499.082031 311.417969 C 499.082031 303.414062 505.566406 296.929688 513.570312 296.929688 C 521.570312 296.929688 528.058594 303.414062 528.058594 311.417969 Z M 461.859375 194.109375 "/>
</clipPath>
<clipPath id="clip45">
  <path d="M 461.859375 194.109375 L 617.441406 194.109375 L 617.441406 450.980469 L 461.859375 450.980469 Z M 461.859375 194.109375 L 580.21875 333.671875 C 580.21875 341.671875 573.730469 348.160156 565.730469 348.160156 C 557.730469 348.160156 551.242188 341.671875 551.242188 333.671875 C 551.242188 325.671875 557.730469 319.183594 565.730469 319.183594 C 573.730469 319.183594 580.21875 325.671875 580.21875 333.671875 Z M 461.859375 194.109375 "/>
</clipPath>
<clipPath id="clip46">
  <path d="M 472 270 L 584 270 L 584 418 L 472 418 Z M 472 270 "/>
</clipPath>
<clipPath id="clip47">
  <path d="M 397.085938 257.808594 L 658.957031 257.808594 L 658.957031 429.765625 L 397.085938 429.765625 Z M 397.085938 257.808594 L 528.058594 311.417969 C 528.058594 319.417969 521.570312 325.90625 513.570312 325.90625 C 505.566406 325.90625 499.082031 319.417969 499.082031 311.417969 C 499.082031 303.414062 505.566406 296.929688 513.570312 296.929688 C 521.570312 296.929688 528.058594 303.414062 528.058594 311.417969 Z M 397.085938 257.808594 "/>
</clipPath>
<clipPath id="clip48">
  <path d="M 397.085938 257.808594 L 658.957031 257.808594 L 658.957031 429.765625 L 397.085938 429.765625 Z M 397.085938 257.808594 L 556.960938 376.15625 C 556.960938 384.15625 550.476562 390.644531 542.472656 390.644531 C 534.472656 390.644531 527.984375 384.15625 527.984375 376.15625 C 527.984375 368.15625 534.472656 361.667969 542.472656 361.667969 C 550.476562 361.667969 556.960938 368.15625 556.960938 376.15625 Z M 397.085938 257.808594 "/>
</clipPath>
<clipPath id="clip49">
  <path d="M 184 380 L 306 380 L 306 537 L 184 537 Z M 184 380 "/>
</clipPath>
<clipPath id="clip50">
  <path d="M 113.0625 360.449219 L 377.777344 360.449219 L 377.777344 556.378906 L 113.0625 556.378906 Z M 113.0625 360.449219 L 279.425781 421.539062 C 279.425781 429.539062 272.941406 436.027344 264.9375 436.027344 C 256.9375 436.027344 250.449219 429.539062 250.449219 421.539062 C 250.449219 413.539062 256.9375 407.050781 264.9375 407.050781 C 272.941406 407.050781 279.425781 413.539062 279.425781 421.539062 Z M 113.0625 360.449219 "/>
</clipPath>
<clipPath id="clip51">
  <path d="M 113.0625 360.449219 L 377.777344 360.449219 L 377.777344 556.378906 L 113.0625 556.378906 Z M 113.0625 360.449219 L 240.390625 495.289062 C 240.390625 503.289062 233.90625 509.777344 225.902344 509.777344 C 217.902344 509.777344 211.414062 503.289062 211.414062 495.289062 C 211.414062 487.285156 217.902344 480.800781 225.902344 480.800781 C 233.90625 480.800781 240.390625 487.285156 240.390625 495.289062 Z M 113.0625 360.449219 "/>
</clipPath>
<clipPath id="clip52">
  <path d="M 223 334.878906 L 315 334.878906 L 315 438.839844 L 223 438.839844 Z M 223 334.878906 "/>
</clipPath>
<clipPath id="clip53">
  <path d="M 138.484375 334.878906 L 399.476562 334.878906 L 399.476562 438.839844 L 138.484375 438.839844 Z M 138.484375 334.878906 L 279.425781 421.539062 C 279.425781 429.539062 272.941406 436.027344 264.9375 436.027344 C 256.9375 436.027344 250.449219 429.539062 250.449219 421.539062 C 250.449219 413.539062 256.9375 407.050781 264.9375 407.050781 C 272.941406 407.050781 279.425781 413.539062 279.425781 421.539062 Z M 138.484375 334.878906 "/>
</clipPath>
<clipPath id="clip54">
  <path d="M 138.484375 334.878906 L 399.476562 334.878906 L 399.476562 438.839844 L 138.484375 438.839844 Z M 138.484375 334.878906 L 287.511719 352.179688 C 287.511719 360.179688 281.023438 366.667969 273.023438 366.667969 C 265.019531 366.667969 258.535156 360.179688 258.535156 352.179688 C 258.535156 344.175781 265.019531 337.691406 273.023438 337.691406 C 281.023438 337.691406 287.511719 344.175781 287.511719 352.179688 Z M 138.484375 334.878906 "/>
</clipPath>
<clipPath id="clip55">
  <path d="M 184 463.488281 L 283 463.488281 L 283 592.710938 L 184 592.710938 Z M 184 463.488281 "/>
</clipPath>
<clipPath id="clip56">
  <path d="M 102.019531 463.488281 L 365.460938 463.488281 L 365.460938 592.710938 L 102.019531 592.710938 Z M 102.019531 463.488281 L 240.390625 495.289062 C 240.390625 503.289062 233.90625 509.777344 225.902344 509.777344 C 217.902344 509.777344 211.414062 503.289062 211.414062 495.289062 C 211.414062 487.285156 217.902344 480.800781 225.902344 480.800781 C 233.90625 480.800781 240.390625 487.285156 240.390625 495.289062 Z M 102.019531 463.488281 "/>
</clipPath>
<clipPath id="clip57">
  <path d="M 102.019531 463.488281 L 365.460938 463.488281 L 365.460938 592.710938 L 102.019531 592.710938 Z M 102.019531 463.488281 L 256.066406 560.910156 C 256.066406 568.914062 249.578125 575.398438 241.578125 575.398438 C 233.574219 575.398438 227.089844 568.914062 227.089844 560.910156 C 227.089844 552.910156 233.574219 546.421875 241.578125 546.421875 C 249.578125 546.421875 256.066406 552.910156 256.066406 560.910156 Z M 102.019531 463.488281 "/>
</clipPath>
<clipPath id="clip58">
  <path d="M 164.023438 451 L 236.257812 451 L 236.257812 537 L 164.023438 537 Z M 164.023438 451 "/>
</clipPath>
<clipPath id="clip59">
  <path d="M 164.023438 365.128906 L 236.257812 365.128906 L 236.257812 622.355469 L 164.023438 622.355469 Z M 164.023438 365.128906 L 240.390625 495.289062 C 240.390625 503.289062 233.90625 509.777344 225.902344 509.777344 C 217.902344 509.777344 211.414062 503.289062 211.414062 495.289062 C 211.414062 487.285156 217.902344 480.800781 225.902344 480.800781 C 233.90625 480.800781 240.390625 487.285156 240.390625 495.289062 Z M 164.023438 365.128906 "/>
</clipPath>
<clipPath id="clip60">
  <path d="M 164.023438 365.128906 L 236.257812 365.128906 L 236.257812 622.355469 L 164.023438 622.355469 Z M 164.023438 365.128906 L 188.867188 492.195312 C 188.867188 500.199219 182.378906 506.683594 174.378906 506.683594 C 166.378906 506.683594 159.890625 500.199219 159.890625 492.195312 C 159.890625 484.195312 166.378906 477.707031 174.378906 477.707031 C 182.378906 477.707031 188.867188 484.195312 188.867188 492.195312 Z M 164.023438 365.128906 "/>
</clipPath>
<clipPath id="clip61">
  <path d="M 166 406 L 267 406 L 267 537 L 166 537 Z M 166 406 "/>
</clipPath>
<clipPath id="clip62">
  <path d="M 88.5625 400.382812 L 345.066406 400.382812 L 345.066406 542.40625 L 88.5625 542.40625 Z M 88.5625 400.382812 L 240.390625 495.289062 C 240.390625 503.289062 233.90625 509.777344 225.902344 509.777344 C 217.902344 509.777344 211.414062 503.289062 211.414062 495.289062 C 211.414062 487.285156 217.902344 480.800781 225.902344 480.800781 C 233.90625 480.800781 240.390625 487.285156 240.390625 495.289062 Z M 88.5625 400.382812 "/>
</clipPath>
<clipPath id="clip63">
  <path d="M 88.5625 400.382812 L 345.066406 400.382812 L 345.066406 542.40625 L 88.5625 542.40625 Z M 88.5625 400.382812 L 222.214844 447.5 C 222.214844 455.5 215.726562 461.988281 207.726562 461.988281 C 199.722656 461.988281 193.238281 455.5 193.238281 447.5 C 193.238281 439.496094 199.722656 433.011719 207.726562 433.011719 C 215.726562 433.011719 222.214844 439.496094 222.214844 447.5 Z M 88.5625 400.382812 "/>
</clipPath>
<clipPath id="clip64">
  <path d="M 133 406 L 249 406 L 249 534 L 133 534 Z M 133 406 "/>
</clipPath>
<clipPath id="clip65">
  <path d="M 71.78125 370.214844 L 310.324219 370.214844 L 310.324219 569.480469 L 71.78125 569.480469 Z M 71.78125 370.214844 L 188.867188 492.195312 C 188.867188 500.199219 182.378906 506.683594 174.378906 506.683594 C 166.378906 506.683594 159.890625 500.199219 159.890625 492.195312 C 159.890625 484.195312 166.378906 477.707031 174.378906 477.707031 C 182.378906 477.707031 188.867188 484.195312 188.867188 492.195312 Z M 71.78125 370.214844 "/>
</clipPath>
<clipPath id="clip66">
  <path d="M 71.78125 370.214844 L 310.324219 370.214844 L 310.324219 569.480469 L 71.78125 569.480469 Z M 71.78125 370.214844 L 222.214844 447.5 C 222.214844 455.5 215.726562 461.988281 207.726562 461.988281 C 199.722656 461.988281 193.238281 455.5 193.238281 447.5 C 193.238281 439.496094 199.722656 433.011719 207.726562 433.011719 C 215.726562 433.011719 222.214844 439.496094 222.214844 447.5 Z M 71.78125 370.214844 "/>
</clipPath>
<clipPath id="clip67">
  <path d="M 100 438 L 216 438 L 216 534 L 100 534 Z M 100 438 "/>
</clipPath>
<clipPath id="clip68">
  <path d="M 94.886719 360.542969 L 221.09375 360.542969 L 221.09375 611.511719 L 94.886719 611.511719 Z M 94.886719 360.542969 L 188.867188 492.195312 C 188.867188 500.199219 182.378906 506.683594 174.378906 506.683594 C 166.378906 506.683594 159.890625 500.199219 159.890625 492.195312 C 159.890625 484.195312 166.378906 477.707031 174.378906 477.707031 C 182.378906 477.707031 188.867188 484.195312 188.867188 492.195312 Z M 94.886719 360.542969 "/>
</clipPath>
<clipPath id="clip69">
  <path d="M 94.886719 360.542969 L 221.09375 360.542969 L 221.09375 611.511719 L 94.886719 611.511719 Z M 94.886719 360.542969 L 156.089844 479.859375 C 156.089844 487.859375 149.605469 494.347656 141.601562 494.347656 C 133.601562 494.347656 127.113281 487.859375 127.113281 479.859375 C 127.113281 471.855469 133.601562 465.371094 141.601562 465.371094 C 149.605469 465.371094 156.089844 471.855469 156.089844 479.859375 Z M 94.886719 360.542969 "/>
</clipPath>
<clipPath id="clip70">
  <path d="M 100 406 L 249 406 L 249 521 L 100 521 Z M 100 406 "/>
</clipPath>
<clipPath id="clip71">
  <path d="M 84.027344 332.871094 L 265.300781 332.871094 L 265.300781 594.488281 L 84.027344 594.488281 Z M 84.027344 332.871094 L 222.214844 447.5 C 222.214844 455.5 215.726562 461.988281 207.726562 461.988281 C 199.722656 461.988281 193.238281 455.5 193.238281 447.5 C 193.238281 439.496094 199.722656 433.011719 207.726562 433.011719 C 215.726562 433.011719 222.214844 439.496094 222.214844 447.5 Z M 84.027344 332.871094 "/>
</clipPath>
<clipPath id="clip72">
  <path d="M 84.027344 332.871094 L 265.300781 332.871094 L 265.300781 594.488281 L 84.027344 594.488281 Z M 84.027344 332.871094 L 156.089844 479.859375 C 156.089844 487.859375 149.605469 494.347656 141.601562 494.347656 C 133.601562 494.347656 127.113281 487.859375 127.113281 479.859375 C 127.113281 471.855469 133.601562 465.371094 141.601562 465.371094 C 149.605469 465.371094 156.089844 471.855469 156.089844 479.859375 Z M 84.027344 332.871094 "/>
</clipPath>
<clipPath id="clip73">
  <path d="M 85 374 L 249 374 L 249 489 L 85 489 Z M 85 374 "/>
</clipPath>
<clipPath id="clip74">
  <path d="M 78.421875 297.050781 L 255.550781 297.050781 L 255.550781 566.390625 L 78.421875 566.390625 Z M 78.421875 297.050781 L 222.214844 447.5 C 222.214844 455.5 215.726562 461.988281 207.726562 461.988281 C 199.722656 461.988281 193.238281 455.5 193.238281 447.5 C 193.238281 439.496094 199.722656 433.011719 207.726562 433.011719 C 215.726562 433.011719 222.214844 439.496094 222.214844 447.5 Z M 78.421875 297.050781 "/>
</clipPath>
<clipPath id="clip75">
  <path d="M 78.421875 297.050781 L 255.550781 297.050781 L 255.550781 566.390625 L 78.421875 566.390625 Z M 78.421875 297.050781 L 140.734375 415.941406 C 140.734375 423.945312 134.246094 430.429688 126.246094 430.429688 C 118.246094 430.429688 111.757812 423.945312 111.757812 415.941406 C 111.757812 407.941406 118.246094 401.453125 126.246094 401.453125 C 134.246094 401.453125 140.734375 407.941406 140.734375 415.941406 Z M 78.421875 297.050781 "/>
</clipPath>
<clipPath id="clip76">
  <path d="M 166 406 L 363 406 L 363 555 L 166 555 Z M 166 406 "/>
</clipPath>
<clipPath id="clip77">
  <path d="M 142.058594 337.210938 L 386.980469 337.210938 L 386.980469 624.179688 L 142.058594 624.179688 Z M 142.058594 337.210938 L 222.214844 447.5 C 222.214844 455.5 215.726562 461.988281 207.726562 461.988281 C 199.722656 461.988281 193.238281 455.5 193.238281 447.5 C 193.238281 439.496094 199.722656 433.011719 207.726562 433.011719 C 215.726562 433.011719 222.214844 439.496094 222.214844 447.5 Z M 142.058594 337.210938 "/>
</clipPath>
<clipPath id="clip78">
  <path d="M 142.058594 337.210938 L 386.980469 337.210938 L 386.980469 624.179688 L 142.058594 624.179688 Z M 142.058594 337.210938 L 335.800781 513.890625 C 335.800781 521.890625 329.316406 528.378906 321.3125 528.378906 C 313.3125 528.378906 306.824219 521.890625 306.824219 513.890625 C 306.824219 505.886719 313.3125 499.402344 321.3125 499.402344 C 329.316406 499.402344 335.800781 505.886719 335.800781 513.890625 Z M 142.058594 337.210938 "/>
</clipPath>
<clipPath id="clip79">
  <path d="M 178 25.03125 L 266 25.03125 L 266 102.234375 L 178 102.234375 Z M 178 25.03125 "/>
</clipPath>
<clipPath id="clip80">
  <path d="M 92.980469 25.03125 L 350.972656 25.03125 L 350.972656 102.234375 L 92.980469 102.234375 Z M 92.980469 25.03125 L 238.675781 88.175781 C 238.675781 96.179688 232.191406 102.664062 224.1875 102.664062 C 216.1875 102.664062 209.699219 96.179688 209.699219 88.175781 C 209.699219 80.175781 216.1875 73.6875 224.1875 73.6875 C 232.191406 73.6875 238.675781 80.175781 238.675781 88.175781 Z M 92.980469 25.03125 "/>
</clipPath>
<clipPath id="clip81">
  <path d="M 92.980469 25.03125 L 350.972656 25.03125 L 350.972656 102.234375 L 92.980469 102.234375 Z M 92.980469 25.03125 L 234.253906 39.089844 C 234.253906 47.089844 227.765625 53.578125 219.765625 53.578125 C 211.761719 53.578125 205.277344 47.089844 205.277344 39.089844 C 205.277344 31.085938 211.761719 24.601562 219.765625 24.601562 C 227.765625 24.601562 234.253906 31.085938 234.253906 39.089844 Z M 92.980469 25.03125 "/>
</clipPath>
<clipPath id="clip82">
  <path d="M 0 257.6875 L 84 257.6875 L 84 352.859375 L 0 352.859375 Z M 0 257.6875 "/>
</clipPath>
<clipPath id="clip83">
  <path d="M -90.515625 257.6875 L 167.144531 257.6875 L 167.144531 352.859375 L -90.515625 352.859375 Z M -90.515625 257.6875 L 48.757812 325.128906 C 48.757812 333.132812 42.269531 339.617188 34.269531 339.617188 C 26.269531 339.617188 19.78125 333.132812 19.78125 325.128906 C 19.78125 317.128906 26.269531 310.640625 34.269531 310.640625 C 42.269531 310.640625 48.757812 317.128906 48.757812 325.128906 Z M -90.515625 257.6875 "/>
</clipPath>
<clipPath id="clip84">
  <path d="M -90.515625 257.6875 L 167.144531 257.6875 L 167.144531 352.859375 L -90.515625 352.859375 Z M -90.515625 257.6875 L 56.847656 285.417969 C 56.847656 293.421875 50.359375 299.90625 42.359375 299.90625 C 34.359375 299.90625 27.871094 293.421875 27.871094 285.417969 C 27.871094 277.417969 34.359375 270.929688 42.359375 270.929688 C 50.359375 270.929688 56.847656 277.417969 56.847656 285.417969 Z M -90.515625 257.6875 "/>
</clipPath>
<clipPath id="clip85">
  <path d="M 18 151 L 134 151 L 134 278 L 18 278 Z M 18 151 "/>
</clipPath>
<clipPath id="clip86">
  <path d="M -42.28125 114.476562 L 194.742188 114.476562 L 194.742188 315.144531 L -42.28125 315.144531 Z M -42.28125 114.476562 L 73.964844 236.75 C 73.964844 244.75 67.476562 251.238281 59.476562 251.238281 C 51.472656 251.238281 44.988281 244.75 44.988281 236.75 C 44.988281 228.75 51.472656 222.261719 59.476562 222.261719 C 67.476562 222.261719 73.964844 228.75 73.964844 236.75 Z M -42.28125 114.476562 "/>
</clipPath>
<clipPath id="clip87">
  <path d="M -42.28125 114.476562 L 194.742188 114.476562 L 194.742188 315.144531 L -42.28125 315.144531 Z M -42.28125 114.476562 L 107.472656 192.871094 C 107.472656 200.875 100.988281 207.363281 92.984375 207.363281 C 84.984375 207.363281 78.496094 200.875 78.496094 192.871094 C 78.496094 184.871094 84.984375 178.382812 92.984375 178.382812 C 100.988281 178.382812 107.472656 184.871094 107.472656 192.871094 Z M -42.28125 114.476562 "/>
</clipPath>
<clipPath id="clip88">
  <path d="M 1 195 L 101 195 L 101 327 L 1 327 Z M 1 195 "/>
</clipPath>
<clipPath id="clip89">
  <path d="M -77.882812 192.582031 L 179.71875 192.582031 L 179.71875 329.585938 L -77.882812 329.585938 Z M -77.882812 192.582031 L 73.964844 236.75 C 73.964844 244.75 67.476562 251.238281 59.476562 251.238281 C 51.472656 251.238281 44.988281 244.75 44.988281 236.75 C 44.988281 228.75 51.472656 222.261719 59.476562 222.261719 C 67.476562 222.261719 73.964844 228.75 73.964844 236.75 Z M -77.882812 192.582031 "/>
</clipPath>
<clipPath id="clip90">
  <path d="M -77.882812 192.582031 L 179.71875 192.582031 L 179.71875 329.585938 L -77.882812 329.585938 Z M -77.882812 192.582031 L 56.847656 285.417969 C 56.847656 293.421875 50.359375 299.90625 42.359375 299.90625 C 34.359375 299.90625 27.871094 293.421875 27.871094 285.417969 C 27.871094 277.417969 34.359375 270.929688 42.359375 270.929688 C 50.359375 270.929688 56.847656 277.417969 56.847656 285.417969 Z M -77.882812 192.582031 "/>
</clipPath>
<clipPath id="clip91">
  <path d="M 78 75 L 189 75 L 189 199 L 78 199 Z M 78 75 "/>
</clipPath>
<clipPath id="clip92">
  <path d="M 14.449219 41.972656 L 252.902344 41.972656 L 252.902344 231.28125 L 14.449219 231.28125 Z M 14.449219 41.972656 L 133.820312 116.085938 C 133.820312 124.085938 127.335938 130.574219 119.332031 130.574219 C 111.332031 130.574219 104.84375 124.085938 104.84375 116.085938 C 104.84375 108.082031 111.332031 101.597656 119.332031 101.597656 C 127.335938 101.597656 133.820312 108.082031 133.820312 116.085938 Z M 14.449219 41.972656 "/>
</clipPath>
<clipPath id="clip93">
  <path d="M 14.449219 41.972656 L 252.902344 41.972656 L 252.902344 231.28125 L 14.449219 231.28125 Z M 14.449219 41.972656 L 162.507812 157.167969 C 162.507812 165.171875 156.019531 171.65625 148.019531 171.65625 C 140.019531 171.65625 133.53125 165.171875 133.53125 157.167969 C 133.53125 149.167969 140.019531 142.679688 148.019531 142.679688 C 156.019531 142.679688 162.507812 149.167969 162.507812 157.167969 Z M 14.449219 41.972656 "/>
</clipPath>
<clipPath id="clip94">
  <path d="M 52 116 L 189 116 L 189 234 L 52 234 Z M 52 116 "/>
</clipPath>
<clipPath id="clip95">
  <path d="M 22.386719 49.914062 L 218.617188 49.914062 L 218.617188 300.125 L 22.386719 300.125 Z M 22.386719 49.914062 L 107.472656 192.871094 C 107.472656 200.875 100.988281 207.363281 92.984375 207.363281 C 84.984375 207.363281 78.496094 200.875 78.496094 192.871094 C 78.496094 184.871094 84.984375 178.382812 92.984375 178.382812 C 100.988281 178.382812 107.472656 184.871094 107.472656 192.871094 Z M 22.386719 49.914062 "/>
</clipPath>
<clipPath id="clip96">
  <path d="M 22.386719 49.914062 L 218.617188 49.914062 L 218.617188 300.125 L 22.386719 300.125 Z M 22.386719 49.914062 L 162.507812 157.167969 C 162.507812 165.171875 156.019531 171.65625 148.019531 171.65625 C 140.019531 171.65625 133.53125 165.171875 133.53125 157.167969 C 133.53125 149.167969 140.019531 142.679688 148.019531 142.679688 C 156.019531 142.679688 162.507812 149.167969 162.507812 157.167969 Z M 22.386719 49.914062 "/>
</clipPath>
<clipPath id="clip97">
  <path d="M 385 9 L 491 9 L 491 126 L 385 126 Z M 385 9 "/>
</clipPath>
<clipPath id="clip98">
  <path d="M 321.089844 -22.917969 L 555.140625 -22.917969 L 555.140625 158.558594 L 321.089844 158.558594 Z M 321.089844 -22.917969 L 464.421875 84.910156 C 464.421875 92.910156 457.9375 99.398438 449.933594 99.398438 C 441.933594 99.398438 435.445312 92.910156 435.445312 84.910156 C 435.445312 76.90625 441.933594 70.421875 449.933594 70.421875 C 457.9375 70.421875 464.421875 76.90625 464.421875 84.910156 Z M 321.089844 -22.917969 "/>
</clipPath>
<clipPath id="clip99">
  <path d="M 321.089844 -22.917969 L 555.140625 -22.917969 L 555.140625 158.558594 L 321.089844 158.558594 Z M 321.089844 -22.917969 L 440.785156 50.730469 C 440.785156 58.734375 434.300781 65.21875 426.296875 65.21875 C 418.296875 65.21875 411.808594 58.734375 411.808594 50.730469 C 411.808594 42.730469 418.296875 36.242188 426.296875 36.242188 C 434.300781 36.242188 440.785156 42.730469 440.785156 50.730469 Z M 321.089844 -22.917969 "/>
</clipPath>
<clipPath id="clip100">
  <path d="M 408 43 L 520 43 L 520 178 L 408 178 Z M 408 43 "/>
</clipPath>
<clipPath id="clip101">
  <path d="M 338.4375 21.355469 L 590.488281 21.355469 L 590.488281 200.492188 L 338.4375 200.492188 Z M 338.4375 21.355469 L 464.421875 84.910156 C 464.421875 92.910156 457.9375 99.398438 449.933594 99.398438 C 441.933594 99.398438 435.445312 92.910156 435.445312 84.910156 C 435.445312 76.90625 441.933594 70.421875 449.933594 70.421875 C 457.9375 70.421875 464.421875 76.90625 464.421875 84.910156 Z M 338.4375 21.355469 "/>
</clipPath>
<clipPath id="clip102">
  <path d="M 338.4375 21.355469 L 590.488281 21.355469 L 590.488281 200.492188 L 338.4375 200.492188 Z M 338.4375 21.355469 L 493.480469 136.9375 C 493.480469 144.9375 486.996094 151.425781 478.992188 151.425781 C 470.992188 151.425781 464.503906 144.9375 464.503906 136.9375 C 464.503906 128.933594 470.992188 122.449219 478.992188 122.449219 C 486.996094 122.449219 493.480469 128.933594 493.480469 136.9375 Z M 338.4375 21.355469 "/>
</clipPath>
<clipPath id="clip103">
  <path d="M 408 470 L 530 470 L 530 569 L 408 569 Z M 408 470 "/>
</clipPath>
<clipPath id="clip104">
  <path d="M 399.03125 393.902344 L 539.300781 393.902344 L 539.300781 645.820312 L 399.03125 645.820312 Z M 399.03125 393.902344 L 503.296875 511.726562 C 503.296875 519.726562 496.8125 526.214844 488.808594 526.214844 C 480.808594 526.214844 474.320312 519.726562 474.320312 511.726562 C 474.320312 503.722656 480.808594 497.238281 488.808594 497.238281 C 496.8125 497.238281 503.296875 503.722656 503.296875 511.726562 Z M 399.03125 393.902344 "/>
</clipPath>
<clipPath id="clip105">
  <path d="M 399.03125 393.902344 L 539.300781 393.902344 L 539.300781 645.820312 L 399.03125 645.820312 Z M 399.03125 393.902344 L 464.011719 527.996094 C 464.011719 536 457.527344 542.484375 449.523438 542.484375 C 441.523438 542.484375 435.035156 536 435.035156 527.996094 C 435.035156 519.996094 441.523438 513.507812 449.523438 513.507812 C 457.527344 513.507812 464.011719 519.996094 464.011719 527.996094 Z M 399.03125 393.902344 "/>
</clipPath>
<clipPath id="clip106">
  <path d="M 373.730469 487 L 468.992188 487 L 468.992188 577 L 373.730469 577 Z M 373.730469 487 "/>
</clipPath>
<clipPath id="clip107">
  <path d="M 373.730469 401.816406 L 468.992188 401.816406 L 468.992188 661.746094 L 373.730469 661.746094 Z M 373.730469 401.816406 L 464.011719 527.996094 C 464.011719 536 457.527344 542.484375 449.523438 542.484375 C 441.523438 542.484375 435.035156 536 435.035156 527.996094 C 435.035156 519.996094 441.523438 513.507812 449.523438 513.507812 C 457.527344 513.507812 464.011719 519.996094 464.011719 527.996094 Z M 373.730469 401.816406 "/>
</clipPath>
<clipPath id="clip108">
  <path d="M 373.730469 401.816406 L 468.992188 401.816406 L 468.992188 661.746094 L 373.730469 661.746094 Z M 373.730469 401.816406 L 407.6875 535.566406 C 407.6875 543.566406 401.203125 550.054688 393.199219 550.054688 C 385.199219 550.054688 378.710938 543.566406 378.710938 535.566406 C 378.710938 527.5625 385.199219 521.078125 393.199219 521.078125 C 401.203125 521.078125 407.6875 527.5625 407.6875 535.566406 Z M 373.730469 401.816406 "/>
</clipPath>
<clipPath id="clip109">
  <path d="M 282.503906 472 L 432.007812 472 L 432.007812 577 L 282.503906 577 Z M 282.503906 472 "/>
</clipPath>
<clipPath id="clip110">
  <path d="M 282.503906 391.898438 L 432.007812 391.898438 L 432.007812 657.558594 L 282.503906 657.558594 Z M 282.503906 391.898438 L 335.800781 513.890625 C 335.800781 521.890625 329.316406 528.378906 321.3125 528.378906 C 313.3125 528.378906 306.824219 521.890625 306.824219 513.890625 C 306.824219 505.886719 313.3125 499.402344 321.3125 499.402344 C 329.316406 499.402344 335.800781 505.886719 335.800781 513.890625 Z M 282.503906 391.898438 "/>
</clipPath>
<clipPath id="clip111">
  <path d="M 282.503906 391.898438 L 432.007812 391.898438 L 432.007812 657.558594 L 282.503906 657.558594 Z M 282.503906 391.898438 L 407.6875 535.566406 C 407.6875 543.566406 401.203125 550.054688 393.199219 550.054688 C 385.199219 550.054688 378.710938 543.566406 378.710938 535.566406 C 378.710938 527.5625 385.199219 521.078125 393.199219 521.078125 C 401.203125 521.078125 407.6875 527.5625 407.6875 535.566406 Z M 282.503906 391.898438 "/>
</clipPath>
</defs>
<g id="surface796">
<g clip-path="url(#clip1)" clip-rule="nonzero">
<g clip-path="url(#clip2)" clip-rule="evenodd">
<g clip-path="url(#clip3)" clip-rule="evenodd">
<path style="fill:none;stroke-width:0.0232951;stroke-linecap:butt;stroke-linejoin:miter;stroke:rgb(17.96875%,20.3125%,21.09375%);stroke-opacity:0.8;stroke-miterlimit:10;" d="M 3.52774 3.251907 L 2.5077 3.167527 " transform="matrix(124.390006,0,0,124.390006,-29.276515,-87.231318)"/>
</g>
</g>
</g>
<g clip-path="url(#clip4)" clip-rule="nonzero">
<g clip-path="url(#clip5)" clip-rule="evenodd">
<g clip-path="url(#clip6)" clip-rule="evenodd">
<path style="fill:none;stroke-width:0.0232951;stroke-linecap:butt;stroke-linejoin:miter;stroke:rgb(17.96875%,20.3125%,21.09375%);stroke-opacity:0.8;stroke-miterlimit:10;" d="M 3.52774 3.251907 L 4.364071 3.204834 " transform="matrix(124.390006,0,0,124.390006,-29.276515,-87.231318)"/>
</g>
</g>
</g>
<g clip-path="url(#clip7)" clip-rule="nonzero">
<g clip-path="url(#clip8)" clip-rule="evenodd">
<g clip-path="url(#clip9)" clip-rule="evenodd">
<path style="fill:none;stroke-width:0.0232951;stroke-linecap:butt;stroke-linejoin:miter;stroke:rgb(17.96875%,20.3125%,21.09375%);stroke-opacity:0.8;stroke-miterlimit:10;" d="M 3.52774 3.251907 L 3.722283 3.570901 " transform="matrix(124.390006,0,0,124.390006,-29.276515,-87.231318)"/>
</g>
</g>
</g>
<g clip-path="url(#clip10)" clip-rule="nonzero">
<g clip-path="url(#clip11)" clip-rule="evenodd">
<g clip-path="url(#clip12)" clip-rule="evenodd">
<path style="fill:none;stroke-width:0.0232951;stroke-linecap:butt;stroke-linejoin:miter;stroke:rgb(17.96875%,20.3125%,21.09375%);stroke-opacity:0.8;stroke-miterlimit:10;" d="M 2.157302 2.045112 L 2.596414 1.559775 " transform="matrix(124.390006,0,0,124.390006,-29.276515,-87.231318)"/>
</g>
</g>
</g>
<g clip-path="url(#clip13)" clip-rule="nonzero">
<g clip-path="url(#clip14)" clip-rule="evenodd">
<g clip-path="url(#clip15)" clip-rule="evenodd">
<path style="fill:none;stroke-width:0.0232951;stroke-linecap:butt;stroke-linejoin:miter;stroke:rgb(17.96875%,20.3125%,21.09375%);stroke-opacity:0.8;stroke-miterlimit:10;" d="M 2.157302 2.045112 L 2.5077 3.167527 " transform="matrix(124.390006,0,0,124.390006,-29.276515,-87.231318)"/>
</g>
</g>
</g>
<g clip-path="url(#clip16)" clip-rule="nonzero">
<g clip-path="url(#clip17)" clip-rule="evenodd">
<g clip-path="url(#clip18)" clip-rule="evenodd">
<path style="fill:none;stroke-width:0.0232951;stroke-linecap:butt;stroke-linejoin:miter;stroke:rgb(17.96875%,20.3125%,21.09375%);stroke-opacity:0.8;stroke-miterlimit:10;" d="M 2.157302 2.045112 L 2.037656 1.410138 " transform="matrix(124.390006,0,0,124.390006,-29.276515,-87.231318)"/>
</g>
</g>
</g>
<g clip-path="url(#clip19)" clip-rule="nonzero">
<g clip-path="url(#clip20)" clip-rule="evenodd">
<g clip-path="url(#clip21)" clip-rule="evenodd">
<path style="fill:none;stroke-width:0.0232951;stroke-linecap:butt;stroke-linejoin:miter;stroke:rgb(17.96875%,20.3125%,21.09375%);stroke-opacity:0.8;stroke-miterlimit:10;" d="M 2.157302 2.045112 L 1.425324 1.964782 " transform="matrix(124.390006,0,0,124.390006,-29.276515,-87.231318)"/>
</g>
</g>
</g>
<g clip-path="url(#clip22)" clip-rule="nonzero">
<g clip-path="url(#clip23)" clip-rule="evenodd">
<g clip-path="url(#clip24)" clip-rule="evenodd">
<path style="fill:none;stroke-width:0.0232951;stroke-linecap:butt;stroke-linejoin:miter;stroke:rgb(17.96875%,20.3125%,21.09375%);stroke-opacity:0.8;stroke-miterlimit:10;" d="M 2.802733 1.169841 L 2.596414 1.559775 " transform="matrix(124.390006,0,0,124.390006,-29.276515,-87.231318)"/>
</g>
</g>
</g>
<g clip-path="url(#clip25)" clip-rule="nonzero">
<g clip-path="url(#clip26)" clip-rule="evenodd">
<g clip-path="url(#clip27)" clip-rule="evenodd">
<path style="fill:none;stroke-width:0.0232951;stroke-linecap:butt;stroke-linejoin:miter;stroke:rgb(17.96875%,20.3125%,21.09375%);stroke-opacity:0.8;stroke-miterlimit:10;" d="M 2.5077 3.167527 L 1.905323 4.298829 " transform="matrix(124.390006,0,0,124.390006,-29.276515,-87.231318)"/>
</g>
</g>
</g>
<g clip-path="url(#clip28)" clip-rule="nonzero">
<g clip-path="url(#clip29)" clip-rule="evenodd">
<g clip-path="url(#clip30)" clip-rule="evenodd">
<path style="fill:none;stroke-width:0.0232951;stroke-linecap:butt;stroke-linejoin:miter;stroke:rgb(17.96875%,20.3125%,21.09375%);stroke-opacity:0.8;stroke-miterlimit:10;" d="M 2.5077 3.167527 L 2.430259 3.532527 " transform="matrix(124.390006,0,0,124.390006,-29.276515,-87.231318)"/>
</g>
</g>
</g>
<g clip-path="url(#clip31)" clip-rule="nonzero">
<g clip-path="url(#clip32)" clip-rule="evenodd">
<g clip-path="url(#clip33)" clip-rule="evenodd">
<path style="fill:none;stroke-width:0.0232951;stroke-linecap:butt;stroke-linejoin:miter;stroke:rgb(17.96875%,20.3125%,21.09375%);stroke-opacity:0.8;stroke-miterlimit:10;" d="M 4.423517 2.396483 L 4.364071 3.204834 " transform="matrix(124.390006,0,0,124.390006,-29.276515,-87.231318)"/>
</g>
</g>
</g>
<g clip-path="url(#clip34)" clip-rule="nonzero">
<g clip-path="url(#clip35)" clip-rule="evenodd">
<g clip-path="url(#clip36)" clip-rule="evenodd">
<path style="fill:none;stroke-width:0.0232951;stroke-linecap:butt;stroke-linejoin:miter;stroke:rgb(17.96875%,20.3125%,21.09375%);stroke-opacity:0.8;stroke-miterlimit:10;" d="M 4.423517 2.396483 L 4.562728 2.06923 " transform="matrix(124.390006,0,0,124.390006,-29.276515,-87.231318)"/>
</g>
</g>
</g>
<g clip-path="url(#clip37)" clip-rule="nonzero">
<g clip-path="url(#clip38)" clip-rule="evenodd">
<g clip-path="url(#clip39)" clip-rule="evenodd">
<path style="fill:none;stroke-width:0.0232951;stroke-linecap:butt;stroke-linejoin:miter;stroke:rgb(17.96875%,20.3125%,21.09375%);stroke-opacity:0.8;stroke-miterlimit:10;" d="M 4.423517 2.396483 L 4.78164 2.498512 " transform="matrix(124.390006,0,0,124.390006,-29.276515,-87.231318)"/>
</g>
</g>
</g>
<g clip-path="url(#clip40)" clip-rule="nonzero">
<g clip-path="url(#clip41)" clip-rule="evenodd">
<g clip-path="url(#clip42)" clip-rule="evenodd">
<path style="fill:none;stroke-width:0.0232951;stroke-linecap:butt;stroke-linejoin:miter;stroke:rgb(17.96875%,20.3125%,21.09375%);stroke-opacity:0.8;stroke-miterlimit:10;" d="M 4.423517 2.396483 L 4.08609 1.802145 " transform="matrix(124.390006,0,0,124.390006,-29.276515,-87.231318)"/>
</g>
</g>
</g>
<g clip-path="url(#clip43)" clip-rule="nonzero">
<g clip-path="url(#clip44)" clip-rule="evenodd">
<g clip-path="url(#clip45)" clip-rule="evenodd">
<path style="fill:none;stroke-width:0.0232951;stroke-linecap:butt;stroke-linejoin:miter;stroke:rgb(17.96875%,20.3125%,21.09375%);stroke-opacity:0.8;stroke-miterlimit:10;" d="M 4.364071 3.204834 L 4.783399 3.383738 " transform="matrix(124.390006,0,0,124.390006,-29.276515,-87.231318)"/>
</g>
</g>
</g>
<g clip-path="url(#clip46)" clip-rule="nonzero">
<g clip-path="url(#clip47)" clip-rule="evenodd">
<g clip-path="url(#clip48)" clip-rule="evenodd">
<path style="fill:none;stroke-width:0.0232951;stroke-linecap:butt;stroke-linejoin:miter;stroke:rgb(17.96875%,20.3125%,21.09375%);stroke-opacity:0.8;stroke-miterlimit:10;" d="M 4.364071 3.204834 L 4.596424 3.72528 " transform="matrix(124.390006,0,0,124.390006,-29.276515,-87.231318)"/>
</g>
</g>
</g>
<g clip-path="url(#clip49)" clip-rule="nonzero">
<g clip-path="url(#clip50)" clip-rule="evenodd">
<g clip-path="url(#clip51)" clip-rule="evenodd">
<path style="fill:none;stroke-width:0.0232951;stroke-linecap:butt;stroke-linejoin:miter;stroke:rgb(17.96875%,20.3125%,21.09375%);stroke-opacity:0.8;stroke-miterlimit:10;" d="M 2.365254 4.090123 L 2.051442 4.683016 " transform="matrix(124.390006,0,0,124.390006,-29.276515,-87.231318)"/>
</g>
</g>
</g>
<g clip-path="url(#clip52)" clip-rule="nonzero">
<g clip-path="url(#clip53)" clip-rule="evenodd">
<g clip-path="url(#clip54)" clip-rule="evenodd">
<path style="fill:none;stroke-width:0.0232951;stroke-linecap:butt;stroke-linejoin:miter;stroke:rgb(17.96875%,20.3125%,21.09375%);stroke-opacity:0.8;stroke-miterlimit:10;" d="M 2.365254 4.090123 L 2.430259 3.532527 " transform="matrix(124.390006,0,0,124.390006,-29.276515,-87.231318)"/>
</g>
</g>
</g>
<g clip-path="url(#clip55)" clip-rule="nonzero">
<g clip-path="url(#clip56)" clip-rule="evenodd">
<g clip-path="url(#clip57)" clip-rule="evenodd">
<path style="fill:none;stroke-width:0.0232951;stroke-linecap:butt;stroke-linejoin:miter;stroke:rgb(17.96875%,20.3125%,21.09375%);stroke-opacity:0.8;stroke-miterlimit:10;" d="M 2.051442 4.683016 L 2.177463 5.210559 " transform="matrix(124.390006,0,0,124.390006,-29.276515,-87.231318)"/>
</g>
</g>
</g>
<g clip-path="url(#clip58)" clip-rule="nonzero">
<g clip-path="url(#clip59)" clip-rule="evenodd">
<g clip-path="url(#clip60)" clip-rule="evenodd">
<path style="fill:none;stroke-width:0.0232951;stroke-linecap:butt;stroke-linejoin:miter;stroke:rgb(17.96875%,20.3125%,21.09375%);stroke-opacity:0.8;stroke-miterlimit:10;" d="M 2.051442 4.683016 L 1.637233 4.658145 " transform="matrix(124.390006,0,0,124.390006,-29.276515,-87.231318)"/>
</g>
</g>
</g>
<g clip-path="url(#clip61)" clip-rule="nonzero">
<g clip-path="url(#clip62)" clip-rule="evenodd">
<g clip-path="url(#clip63)" clip-rule="evenodd">
<path style="fill:none;stroke-width:0.0232951;stroke-linecap:butt;stroke-linejoin:miter;stroke:rgb(17.96875%,20.3125%,21.09375%);stroke-opacity:0.8;stroke-miterlimit:10;" d="M 2.051442 4.683016 L 1.905323 4.298829 " transform="matrix(124.390006,0,0,124.390006,-29.276515,-87.231318)"/>
</g>
</g>
</g>
<g clip-path="url(#clip64)" clip-rule="nonzero">
<g clip-path="url(#clip65)" clip-rule="evenodd">
<g clip-path="url(#clip66)" clip-rule="evenodd">
<path style="fill:none;stroke-width:0.0232951;stroke-linecap:butt;stroke-linejoin:miter;stroke:rgb(17.96875%,20.3125%,21.09375%);stroke-opacity:0.8;stroke-miterlimit:10;" d="M 1.637233 4.658145 L 1.905323 4.298829 " transform="matrix(124.390006,0,0,124.390006,-29.276515,-87.231318)"/>
</g>
</g>
</g>
<g clip-path="url(#clip67)" clip-rule="nonzero">
<g clip-path="url(#clip68)" clip-rule="evenodd">
<g clip-path="url(#clip69)" clip-rule="evenodd">
<path style="fill:none;stroke-width:0.0232951;stroke-linecap:butt;stroke-linejoin:miter;stroke:rgb(17.96875%,20.3125%,21.09375%);stroke-opacity:0.8;stroke-miterlimit:10;" d="M 1.637233 4.658145 L 1.373728 4.558973 " transform="matrix(124.390006,0,0,124.390006,-29.276515,-87.231318)"/>
</g>
</g>
</g>
<g clip-path="url(#clip70)" clip-rule="nonzero">
<g clip-path="url(#clip71)" clip-rule="evenodd">
<g clip-path="url(#clip72)" clip-rule="evenodd">
<path style="fill:none;stroke-width:0.0232951;stroke-linecap:butt;stroke-linejoin:miter;stroke:rgb(17.96875%,20.3125%,21.09375%);stroke-opacity:0.8;stroke-miterlimit:10;" d="M 1.905323 4.298829 L 1.373728 4.558973 " transform="matrix(124.390006,0,0,124.390006,-29.276515,-87.231318)"/>
</g>
</g>
</g>
<g clip-path="url(#clip73)" clip-rule="nonzero">
<g clip-path="url(#clip74)" clip-rule="evenodd">
<g clip-path="url(#clip75)" clip-rule="evenodd">
<path style="fill:none;stroke-width:0.0232951;stroke-linecap:butt;stroke-linejoin:miter;stroke:rgb(17.96875%,20.3125%,21.09375%);stroke-opacity:0.8;stroke-miterlimit:10;" d="M 1.905323 4.298829 L 1.250282 4.045122 " transform="matrix(124.390006,0,0,124.390006,-29.276515,-87.231318)"/>
</g>
</g>
</g>
<g clip-path="url(#clip76)" clip-rule="nonzero">
<g clip-path="url(#clip77)" clip-rule="evenodd">
<g clip-path="url(#clip78)" clip-rule="evenodd">
<path style="fill:none;stroke-width:0.0232951;stroke-linecap:butt;stroke-linejoin:miter;stroke:rgb(17.96875%,20.3125%,21.09375%);stroke-opacity:0.8;stroke-miterlimit:10;" d="M 1.905323 4.298829 L 2.818466 4.832558 " transform="matrix(124.390006,0,0,124.390006,-29.276515,-87.231318)"/>
</g>
</g>
</g>
<g clip-path="url(#clip79)" clip-rule="nonzero">
<g clip-path="url(#clip80)" clip-rule="evenodd">
<g clip-path="url(#clip81)" clip-rule="evenodd">
<path style="fill:none;stroke-width:0.0232951;stroke-linecap:butt;stroke-linejoin:miter;stroke:rgb(17.96875%,20.3125%,21.09375%);stroke-opacity:0.8;stroke-miterlimit:10;" d="M 2.037656 1.410138 L 2.002107 1.015525 " transform="matrix(124.390006,0,0,124.390006,-29.276515,-87.231318)"/>
</g>
</g>
</g>
<g clip-path="url(#clip82)" clip-rule="nonzero">
<g clip-path="url(#clip83)" clip-rule="evenodd">
<g clip-path="url(#clip84)" clip-rule="evenodd">
<path style="fill:none;stroke-width:0.0232951;stroke-linecap:butt;stroke-linejoin:miter;stroke:rgb(17.96875%,20.3125%,21.09375%);stroke-opacity:0.8;stroke-miterlimit:10;" d="M 0.510861 3.315059 L 0.575897 2.995814 " transform="matrix(124.390006,0,0,124.390006,-29.276515,-87.231318)"/>
</g>
</g>
</g>
<g clip-path="url(#clip85)" clip-rule="nonzero">
<g clip-path="url(#clip86)" clip-rule="evenodd">
<g clip-path="url(#clip87)" clip-rule="evenodd">
<path style="fill:none;stroke-width:0.0232951;stroke-linecap:butt;stroke-linejoin:miter;stroke:rgb(17.96875%,20.3125%,21.09375%);stroke-opacity:0.8;stroke-miterlimit:10;" d="M 0.713506 2.604561 L 0.982884 2.251808 " transform="matrix(124.390006,0,0,124.390006,-29.276515,-87.231318)"/>
</g>
</g>
</g>
<g clip-path="url(#clip88)" clip-rule="nonzero">
<g clip-path="url(#clip89)" clip-rule="evenodd">
<g clip-path="url(#clip90)" clip-rule="evenodd">
<path style="fill:none;stroke-width:0.0232951;stroke-linecap:butt;stroke-linejoin:miter;stroke:rgb(17.96875%,20.3125%,21.09375%);stroke-opacity:0.8;stroke-miterlimit:10;" d="M 0.713506 2.604561 L 0.575897 2.995814 " transform="matrix(124.390006,0,0,124.390006,-29.276515,-87.231318)"/>
</g>
</g>
</g>
<g clip-path="url(#clip91)" clip-rule="nonzero">
<g clip-path="url(#clip92)" clip-rule="evenodd">
<g clip-path="url(#clip93)" clip-rule="evenodd">
<path style="fill:none;stroke-width:0.0232951;stroke-linecap:butt;stroke-linejoin:miter;stroke:rgb(17.96875%,20.3125%,21.09375%);stroke-opacity:0.8;stroke-miterlimit:10;" d="M 1.194698 1.634514 L 1.425324 1.964782 " transform="matrix(124.390006,0,0,124.390006,-29.276515,-87.231318)"/>
</g>
</g>
</g>
<g clip-path="url(#clip94)" clip-rule="nonzero">
<g clip-path="url(#clip95)" clip-rule="evenodd">
<g clip-path="url(#clip96)" clip-rule="evenodd">
<path style="fill:none;stroke-width:0.0232951;stroke-linecap:butt;stroke-linejoin:miter;stroke:rgb(17.96875%,20.3125%,21.09375%);stroke-opacity:0.8;stroke-miterlimit:10;" d="M 0.982884 2.251808 L 1.425324 1.964782 " transform="matrix(124.390006,0,0,124.390006,-29.276515,-87.231318)"/>
</g>
</g>
</g>
<g clip-path="url(#clip97)" clip-rule="nonzero">
<g clip-path="url(#clip98)" clip-rule="evenodd">
<g clip-path="url(#clip99)" clip-rule="evenodd">
<path style="fill:none;stroke-width:0.0232951;stroke-linecap:butt;stroke-linejoin:miter;stroke:rgb(17.96875%,20.3125%,21.09375%);stroke-opacity:0.8;stroke-miterlimit:10;" d="M 3.852481 1.383885 L 3.66246 1.109107 " transform="matrix(124.390006,0,0,124.390006,-29.276515,-87.231318)"/>
</g>
</g>
</g>
<g clip-path="url(#clip100)" clip-rule="nonzero">
<g clip-path="url(#clip101)" clip-rule="evenodd">
<g clip-path="url(#clip102)" clip-rule="evenodd">
<path style="fill:none;stroke-width:0.0232951;stroke-linecap:butt;stroke-linejoin:miter;stroke:rgb(17.96875%,20.3125%,21.09375%);stroke-opacity:0.8;stroke-miterlimit:10;" d="M 3.852481 1.383885 L 4.08609 1.802145 " transform="matrix(124.390006,0,0,124.390006,-29.276515,-87.231318)"/>
</g>
</g>
</g>
<g clip-path="url(#clip103)" clip-rule="nonzero">
<g clip-path="url(#clip104)" clip-rule="evenodd">
<g clip-path="url(#clip105)" clip-rule="evenodd">
<path style="fill:none;stroke-width:0.0232951;stroke-linecap:butt;stroke-linejoin:miter;stroke:rgb(17.96875%,20.3125%,21.09375%);stroke-opacity:0.8;stroke-miterlimit:10;" d="M 4.165006 4.815161 L 3.849183 4.945955 " transform="matrix(124.390006,0,0,124.390006,-29.276515,-87.231318)"/>
</g>
</g>
</g>
<g clip-path="url(#clip106)" clip-rule="nonzero">
<g clip-path="url(#clip107)" clip-rule="evenodd">
<g clip-path="url(#clip108)" clip-rule="evenodd">
<path style="fill:none;stroke-width:0.0232951;stroke-linecap:butt;stroke-linejoin:miter;stroke:rgb(17.96875%,20.3125%,21.09375%);stroke-opacity:0.8;stroke-miterlimit:10;" d="M 3.849183 4.945955 L 3.39638 5.006815 " transform="matrix(124.390006,0,0,124.390006,-29.276515,-87.231318)"/>
</g>
</g>
</g>
<g clip-path="url(#clip109)" clip-rule="nonzero">
<g clip-path="url(#clip110)" clip-rule="evenodd">
<g clip-path="url(#clip111)" clip-rule="evenodd">
<path style="fill:none;stroke-width:0.0232951;stroke-linecap:butt;stroke-linejoin:miter;stroke:rgb(17.96875%,20.3125%,21.09375%);stroke-opacity:0.8;stroke-miterlimit:10;" d="M 2.818466 4.832558 L 3.39638 5.006815 " transform="matrix(124.390006,0,0,124.390006,-29.276515,-87.231318)"/>
</g>
</g>
</g>
<path style="fill-rule:nonzero;fill:rgb(100%,92.941176%,43.529412%);fill-opacity:1;stroke-width:0.0232951;stroke-linecap:butt;stroke-linejoin:miter;stroke:rgb(60%,60%,60%);stroke-opacity:0.8;stroke-miterlimit:10;" d="M 0.116487 -0.00000899723 C 0.116487 0.0643363 0.0643267 0.116466 0.0000128206 0.116466 C -0.0643324 0.116466 -0.116462 0.0643363 -0.116462 -0.00000899723 C -0.116462 -0.0643228 -0.0643324 -0.116484 0.0000128206 -0.116484 C 0.0643267 -0.116484 0.116487 -0.0643228 0.116487 -0.00000899723 Z M 0.116487 -0.00000899723 " transform="matrix(124.390006,0,0,124.390006,409.537468,317.274557)"/>
<path style="fill-rule:nonzero;fill:rgb(100%,92.941176%,43.529412%);fill-opacity:1;stroke-width:0.0232951;stroke-linecap:butt;stroke-linejoin:miter;stroke:rgb(60%,60%,60%);stroke-opacity:0.8;stroke-miterlimit:10;" d="M 0.11647 0.00000870068 C 0.11647 0.0643225 0.0643403 0.116483 -0.00000491703 0.116483 C -0.0643188 0.116483 -0.11648 0.0643225 -0.11648 0.00000870068 C -0.11648 -0.0643366 -0.0643188 -0.116466 -0.00000491703 -0.116466 C 0.0643403 -0.116466 0.11647 -0.0643366 0.11647 0.00000870068 Z M 0.11647 0.00000870068 " transform="matrix(124.390006,0,0,124.390006,239.070924,167.159074)"/>
<path style="fill-rule:nonzero;fill:rgb(100%,92.941176%,43.529412%);fill-opacity:1;stroke-width:0.0232951;stroke-linecap:butt;stroke-linejoin:miter;stroke:rgb(60%,60%,60%);stroke-opacity:0.8;stroke-miterlimit:10;" d="M 0.116487 0.0000040993 C 0.116487 0.0643179 0.0643265 0.116479 0.0000126679 0.116479 C -0.0643326 0.116479 -0.116462 0.0643179 -0.116462 0.0000040993 C -0.116462 -0.0643412 -0.0643326 -0.116471 0.0000126679 -0.116471 C 0.0643265 -0.116471 0.116487 -0.0643412 0.116487 0.0000040993 Z M 0.116487 0.0000040993 " transform="matrix(124.390006,0,0,124.390006,319.353893,58.284646)"/>
<path style="fill-rule:nonzero;fill:rgb(100%,92.941176%,43.529412%);fill-opacity:1;stroke-width:0.0232951;stroke-linecap:butt;stroke-linejoin:miter;stroke:rgb(60%,60%,60%);stroke-opacity:0.8;stroke-miterlimit:10;" d="M 0.11648 0.0000142952 C 0.11648 0.0643281 0.0643193 0.116489 0.00000541156 0.116489 C -0.0643398 0.116489 -0.116469 0.0643281 -0.116469 0.0000142952 C -0.116469 -0.064331 -0.0643398 -0.11646 0.00000541156 -0.11646 C 0.0643193 -0.11646 0.11648 -0.064331 0.11648 0.0000142952 Z M 0.11648 0.0000142952 " transform="matrix(124.390006,0,0,124.390006,293.690733,106.787284)"/>
<path style="fill-rule:nonzero;fill:rgb(100%,92.941176%,43.529412%);fill-opacity:1;stroke-width:0.0232951;stroke-linecap:butt;stroke-linejoin:miter;stroke:rgb(60%,60%,60%);stroke-opacity:0.8;stroke-miterlimit:10;" d="M 0.11648 -0.00000808073 C 0.11648 0.0643372 0.0643188 0.116467 0.00000493502 0.116467 C -0.0643403 0.116467 -0.11647 0.0643372 -0.11647 -0.00000808073 C -0.11647 -0.0643219 -0.0643403 -0.116483 0.00000493502 -0.116483 C 0.0643188 -0.116483 0.11648 -0.0643219 0.11648 -0.00000808073 Z M 0.11648 -0.00000808073 " transform="matrix(124.390006,0,0,124.390006,282.655636,306.778349)"/>
<path style="fill-rule:nonzero;fill:rgb(100%,92.941176%,43.529412%);fill-opacity:1;stroke-width:0.0232951;stroke-linecap:butt;stroke-linejoin:miter;stroke:rgb(60%,60%,60%);stroke-opacity:0.8;stroke-miterlimit:10;" d="M 0.116464 -0.000014984 C 0.116464 0.0643303 0.0643342 0.11646 -0.0000110109 0.11646 C -0.0643249 0.11646 -0.116486 0.0643303 -0.116486 -0.000014984 C -0.116486 -0.0643288 -0.0643249 -0.11649 -0.0000110109 -0.11649 C 0.0643342 -0.11649 0.116464 -0.0643288 0.116464 -0.000014984 Z M 0.116464 -0.000014984 " transform="matrix(124.390006,0,0,124.390006,520.966213,210.869051)"/>
<path style="fill-rule:nonzero;fill:rgb(100%,92.941176%,43.529412%);fill-opacity:1;stroke-width:0.0232951;stroke-linecap:butt;stroke-linejoin:miter;stroke:rgb(60%,60%,60%);stroke-opacity:0.8;stroke-miterlimit:10;" d="M 0.116485 0.0000146467 C 0.116485 0.0643285 0.0643237 0.116489 0.000009888 0.116489 C -0.0643354 0.116489 -0.116465 0.0643285 -0.116465 0.0000146467 C -0.116465 -0.0643306 -0.0643354 -0.11646 0.000009888 -0.11646 C 0.0643237 -0.11646 0.116485 -0.0643306 0.116485 0.0000146467 Z M 0.116485 0.0000146467 " transform="matrix(124.390006,0,0,124.390006,513.569083,311.416147)"/>
<path style="fill-rule:nonzero;fill:rgb(100%,92.941176%,43.529412%);fill-opacity:1;stroke-width:0.0232951;stroke-linecap:butt;stroke-linejoin:miter;stroke:rgb(60%,60%,60%);stroke-opacity:0.8;stroke-miterlimit:10;" d="M 0.11649 -0.00000876464 C 0.11649 0.0643365 0.0643288 0.116466 0.000014934 0.116466 C -0.0643303 0.116466 -0.11646 0.0643365 -0.11646 -0.00000876464 C -0.11646 -0.0643226 -0.0643303 -0.116483 0.000014934 -0.116483 C 0.0643288 -0.116483 0.11649 -0.0643226 0.11649 -0.00000876464 Z M 0.11649 -0.00000876464 " transform="matrix(124.390006,0,0,124.390006,538.279392,170.161246)"/>
<path style="fill-rule:nonzero;fill:rgb(100%,92.941176%,43.529412%);fill-opacity:1;stroke-width:0.0232951;stroke-linecap:butt;stroke-linejoin:miter;stroke:rgb(60%,60%,60%);stroke-opacity:0.8;stroke-miterlimit:10;" d="M 0.116478 0.0000142689 C 0.116478 0.0643281 0.0643176 0.116489 0.00000379227 0.116489 C -0.0643415 0.116489 -0.116471 0.0643281 -0.116471 0.0000142689 C -0.116471 -0.064331 -0.0643415 -0.11646 0.00000379227 -0.11646 C 0.0643176 -0.11646 0.116478 -0.064331 0.116478 0.0000142689 Z M 0.116478 0.0000142689 " transform="matrix(124.390006,0,0,124.390006,565.511247,223.556819)"/>
<path style="fill-rule:nonzero;fill:rgb(100%,92.941176%,43.529412%);fill-opacity:1;stroke-width:0.0232951;stroke-linecap:butt;stroke-linejoin:miter;stroke:rgb(60%,60%,60%);stroke-opacity:0.8;stroke-miterlimit:10;" d="M 0.116475 0.000000235831 C 0.116475 0.0643141 0.0643137 0.116475 -0.000000114496 0.116475 C -0.064314 0.116475 -0.116475 0.0643141 -0.116475 0.000000235831 C -0.116475 -0.0643136 -0.064314 -0.116474 -0.000000114496 -0.116474 C 0.0643137 -0.116474 0.116475 -0.0643136 0.116475 0.000000235831 Z M 0.116475 0.000000235831 " transform="matrix(124.390006,0,0,124.390006,565.730483,333.671846)"/>
<path style="fill-rule:nonzero;fill:rgb(100%,92.941176%,43.529412%);fill-opacity:1;stroke-width:0.0232951;stroke-linecap:butt;stroke-linejoin:miter;stroke:rgb(60%,60%,60%);stroke-opacity:0.8;stroke-miterlimit:10;" d="M 0.116464 -0.00000082909 C 0.116464 0.064313 0.0643343 0.116474 -0.000010942 0.116474 C -0.0643248 0.116474 -0.116486 0.064313 -0.116486 -0.00000082909 C -0.116486 -0.0643147 -0.0643248 -0.116475 -0.000010942 -0.116475 C 0.0643343 -0.116475 0.116464 -0.0643147 0.116464 -0.00000082909 Z M 0.116464 -0.00000082909 " transform="matrix(124.390006,0,0,124.390006,542.474017,376.156353)"/>
<path style="fill-rule:nonzero;fill:rgb(55.294118%,82.745098%,78.039216%);fill-opacity:1;stroke-width:0.0232951;stroke-linecap:butt;stroke-linejoin:miter;stroke:rgb(60%,60%,60%);stroke-opacity:0.8;stroke-miterlimit:10;" d="M 0.11647 -0.00000132897 C 0.11647 0.0643125 0.064341 0.116473 -0.00000428925 0.116473 C -0.0643181 0.116473 -0.116479 0.0643125 -0.116479 -0.00000132897 C -0.116479 -0.0643152 -0.0643181 -0.116476 -0.00000428925 -0.116476 C 0.064341 -0.116476 0.11647 -0.0643152 0.11647 -0.00000132897 Z M 0.11647 -0.00000132897 " transform="matrix(124.390006,0,0,124.390006,264.938034,421.539228)"/>
<path style="fill-rule:nonzero;fill:rgb(55.294118%,82.745098%,78.039216%);fill-opacity:1;stroke-width:0.0232951;stroke-linecap:butt;stroke-linejoin:miter;stroke:rgb(60%,60%,60%);stroke-opacity:0.8;stroke-miterlimit:10;" d="M 0.116464 0.0000128521 C 0.116464 0.0643267 0.0643342 0.116487 -0.0000110889 0.116487 C -0.0643249 0.116487 -0.116486 0.0643267 -0.116486 0.0000128521 C -0.116486 -0.0643324 -0.0643249 -0.116462 -0.0000110889 -0.116462 C 0.0643342 -0.116462 0.116464 -0.0643324 0.116464 0.0000128521 Z M 0.116464 0.0000128521 " transform="matrix(124.390006,0,0,124.390006,225.903723,495.287464)"/>
<path style="fill-rule:nonzero;fill:rgb(55.294118%,82.745098%,78.039216%);fill-opacity:1;stroke-width:0.0232951;stroke-linecap:butt;stroke-linejoin:miter;stroke:rgb(60%,60%,60%);stroke-opacity:0.8;stroke-miterlimit:10;" d="M 0.11648 -0.00000672423 C 0.11648 0.0643385 0.0643191 0.116468 0.00000524552 0.116468 C -0.06434 0.116468 -0.116469 0.0643385 -0.116469 -0.00000672423 C -0.116469 -0.0643206 -0.06434 -0.116481 0.00000524552 -0.116481 C 0.0643191 -0.116481 0.11648 -0.0643206 0.11648 -0.00000672423 Z M 0.11648 -0.00000672423 " transform="matrix(124.390006,0,0,124.390006,241.577473,560.910993)"/>
<path style="fill-rule:nonzero;fill:rgb(55.294118%,82.745098%,78.039216%);fill-opacity:1;stroke-width:0.0232951;stroke-linecap:butt;stroke-linejoin:miter;stroke:rgb(60%,60%,60%);stroke-opacity:0.8;stroke-miterlimit:10;" d="M 0.116474 -0.00000324231 C 0.116474 0.064342 0.0643129 0.116471 -0.000000939851 0.116471 C -0.0643148 0.116471 -0.116476 0.064342 -0.116476 -0.00000324231 C -0.116476 -0.0643171 -0.0643148 -0.116478 -0.000000939851 -0.116478 C 0.0643129 -0.116478 0.116474 -0.0643171 0.116474 -0.00000324231 Z M 0.116474 -0.00000324231 " transform="matrix(124.390006,0,0,124.390006,174.379023,492.195716)"/>
<path style="fill-rule:nonzero;fill:rgb(55.294118%,82.745098%,78.039216%);fill-opacity:1;stroke-width:0.0232951;stroke-linecap:butt;stroke-linejoin:miter;stroke:rgb(60%,60%,60%);stroke-opacity:0.8;stroke-miterlimit:10;" d="M 0.116486 0.00000774291 C 0.116486 0.0643216 0.0643251 0.116482 0.0000112584 0.116482 C -0.064334 0.116482 -0.116463 0.0643216 -0.116463 0.00000774291 C -0.116463 -0.0643375 -0.064334 -0.116467 0.0000112584 -0.116467 C 0.0643251 -0.116467 0.116486 -0.0643375 0.116486 0.00000774291 Z M 0.116486 0.00000774291 " transform="matrix(124.390006,0,0,124.390006,207.725162,447.499037)"/>
<path style="fill-rule:nonzero;fill:rgb(100%,92.941176%,43.529412%);fill-opacity:1;stroke-width:0.0232951;stroke-linecap:butt;stroke-linejoin:miter;stroke:rgb(60%,60%,60%);stroke-opacity:0.8;stroke-miterlimit:10;" d="M 0.116485 0.00000797241 C 0.116485 0.0643218 0.0643244 0.116483 0.0000105335 0.116483 C -0.0643347 0.116483 -0.116464 0.0643218 -0.116464 0.00000797241 C -0.116464 -0.0643373 -0.0643347 -0.116467 0.0000105335 -0.116467 C 0.0643244 -0.116467 0.116485 -0.0643373 0.116485 0.00000797241 Z M 0.116485 0.00000797241 " transform="matrix(124.390006,0,0,124.390006,273.022127,352.178696)"/>
<path style="fill-rule:nonzero;fill:rgb(55.294118%,82.745098%,78.039216%);fill-opacity:1;stroke-width:0.0232951;stroke-linecap:butt;stroke-linejoin:miter;stroke:rgb(60%,60%,60%);stroke-opacity:0.8;stroke-miterlimit:10;" d="M 0.116469 0.00000900787 C 0.116469 0.0643229 0.0643398 0.116484 -0.00000549045 0.116484 C -0.0643193 0.116484 -0.11648 0.0643229 -0.11648 0.00000900787 C -0.11648 -0.0643362 -0.0643193 -0.116466 -0.00000549045 -0.116466 C 0.0643398 -0.116466 0.116469 -0.0643362 0.116469 0.00000900787 Z M 0.116469 0.00000900787 " transform="matrix(124.390006,0,0,124.390006,141.602245,479.858255)"/>
<path style="fill-rule:nonzero;fill:rgb(100%,92.941176%,43.529412%);fill-opacity:1;stroke-width:0.0232951;stroke-linecap:butt;stroke-linejoin:miter;stroke:rgb(60%,60%,60%);stroke-opacity:0.8;stroke-miterlimit:10;" d="M 0.11647 -0.00000261198 C 0.11647 0.0643426 0.0643401 0.116472 -0.00000510971 0.116472 C -0.064319 0.116472 -0.11648 0.0643426 -0.11648 -0.00000261198 C -0.11648 -0.0643165 -0.064319 -0.116477 -0.00000510971 -0.116477 C 0.0643401 -0.116477 0.11647 -0.0643165 0.11647 -0.00000261198 Z M 0.11647 -0.00000261198 " transform="matrix(124.390006,0,0,124.390006,224.188136,88.176106)"/>
<path style="fill-rule:nonzero;fill:rgb(100%,92.941176%,43.529412%);fill-opacity:1;stroke-width:0.0232951;stroke-linecap:butt;stroke-linejoin:miter;stroke:rgb(60%,60%,60%);stroke-opacity:0.8;stroke-miterlimit:10;" d="M 0.116488 0.00000672423 C 0.116488 0.0643206 0.0643269 0.116481 0.0000130272 0.116481 C -0.0643322 0.116481 -0.116462 0.0643206 -0.116462 0.00000672423 C -0.116462 -0.0643385 -0.0643322 -0.116468 0.0000130272 -0.116468 C 0.0643269 -0.116468 0.116488 -0.0643385 0.116488 0.00000672423 Z M 0.116488 0.00000672423 " transform="matrix(124.390006,0,0,124.390006,219.764005,39.089007)"/>
<path style="fill-rule:nonzero;fill:rgb(100%,92.941176%,43.529412%);fill-opacity:1;stroke-width:0.0232951;stroke-linecap:butt;stroke-linejoin:miter;stroke:rgb(60%,60%,60%);stroke-opacity:0.8;stroke-miterlimit:10;" d="M 0.11649 0.00000551249 C 0.11649 0.0643194 0.0643293 0.11648 0.0000154515 0.11648 C -0.0643298 0.11648 -0.116491 0.0643194 -0.116491 0.00000551249 C -0.116491 -0.0643397 -0.0643298 -0.116469 0.0000154515 -0.116469 C 0.0643293 -0.116469 0.11649 -0.0643397 0.11649 0.00000551249 Z M 0.11649 0.00000551249 " transform="matrix(124.390006,0,0,124.390006,433.736359,356.952439)"/>
<path style="fill-rule:nonzero;fill:rgb(100%,92.941176%,43.529412%);fill-opacity:1;stroke-width:0.0232951;stroke-linecap:butt;stroke-linejoin:miter;stroke:rgb(60%,60%,60%);stroke-opacity:0.8;stroke-miterlimit:10;" d="M 0.116475 -0.0000128816 C 0.116475 0.0643324 0.064314 0.116462 0.000000114496 0.116462 C -0.0643137 0.116462 -0.116475 0.0643324 -0.116475 -0.0000128816 C -0.116475 -0.0643267 -0.0643137 -0.116488 0.000000114496 -0.116488 C 0.064314 -0.116488 0.116475 -0.0643267 0.116475 -0.0000128816 Z M 0.116475 -0.0000128816 " transform="matrix(124.390006,0,0,124.390006,34.269517,325.130509)"/>
<path style="fill-rule:nonzero;fill:rgb(100%,92.941176%,43.529412%);fill-opacity:1;stroke-width:0.0232951;stroke-linecap:butt;stroke-linejoin:miter;stroke:rgb(60%,60%,60%);stroke-opacity:0.8;stroke-miterlimit:10;" d="M 0.11648 -0.00000112648 C 0.11648 0.0643127 0.0643195 0.116474 0.00000561297 0.116474 C -0.0643396 0.116474 -0.116469 0.0643127 -0.116469 -0.00000112648 C -0.116469 -0.064315 -0.0643396 -0.116476 0.00000561297 -0.116476 C 0.0643195 -0.116476 0.11648 -0.064315 0.11648 -0.00000112648 Z M 0.11648 -0.00000112648 " transform="matrix(124.390006,0,0,124.390006,59.475864,236.75014)"/>
<path style="fill-rule:nonzero;fill:rgb(100%,92.941176%,43.529412%);fill-opacity:1;stroke-width:0.0232951;stroke-linecap:butt;stroke-linejoin:miter;stroke:rgb(60%,60%,60%);stroke-opacity:0.8;stroke-miterlimit:10;" d="M 0.116468 0.00000506367 C 0.116468 0.0643189 0.0643389 0.11648 -0.00000635937 0.11648 C -0.0643202 0.11648 -0.116481 0.0643189 -0.116481 0.00000506367 C -0.116481 -0.0643402 -0.0643202 -0.11647 -0.00000635937 -0.11647 C 0.0643389 -0.11647 0.116468 -0.0643402 0.116468 0.00000506367 Z M 0.116468 0.00000506367 " transform="matrix(124.390006,0,0,124.390006,119.332822,116.085308)"/>
<path style="fill-rule:nonzero;fill:rgb(100%,92.941176%,43.529412%);fill-opacity:1;stroke-width:0.0232951;stroke-linecap:butt;stroke-linejoin:miter;stroke:rgb(60%,60%,60%);stroke-opacity:0.8;stroke-miterlimit:10;" d="M 0.11647 -0.0000154641 C 0.11647 0.0643298 0.0643404 0.116491 -0.00000489335 0.116491 C -0.0643187 0.116491 -0.11648 0.0643298 -0.11648 -0.0000154641 C -0.11648 -0.0643293 -0.0643187 -0.11649 -0.00000489335 -0.11649 C 0.0643404 -0.11649 0.11647 -0.0643293 0.11647 -0.0000154641 Z M 0.11647 -0.0000154641 " transform="matrix(124.390006,0,0,124.390006,92.984984,192.873017)"/>
<path style="fill-rule:nonzero;fill:rgb(100%,92.941176%,43.529412%);fill-opacity:1;stroke-width:0.0232951;stroke-linecap:butt;stroke-linejoin:miter;stroke:rgb(60%,60%,60%);stroke-opacity:0.8;stroke-miterlimit:10;" d="M 0.116474 -0.0000134593 C 0.116474 0.0643318 0.0643134 0.116461 -0.00000044062 0.116461 C -0.0643143 0.116461 -0.116475 0.0643318 -0.116475 -0.0000134593 C -0.116475 -0.0643273 -0.0643143 -0.116488 -0.00000044062 -0.116488 C 0.0643134 -0.116488 0.116474 -0.0643273 0.116474 -0.0000134593 Z M 0.116474 -0.0000134593 " transform="matrix(124.390006,0,0,124.390006,148.019586,157.169643)"/>
<path style="fill-rule:nonzero;fill:rgb(100%,92.941176%,43.529412%);fill-opacity:1;stroke-width:0.0232951;stroke-linecap:butt;stroke-linejoin:miter;stroke:rgb(60%,60%,60%);stroke-opacity:0.8;stroke-miterlimit:10;" d="M 0.116473 -0.0000100402 C 0.116473 0.0643352 0.0643124 0.116465 -0.0000014926 0.116465 C -0.0643153 0.116465 -0.116476 0.0643352 -0.116476 -0.0000100402 C -0.116476 -0.0643239 -0.0643153 -0.116485 -0.0000014926 -0.116485 C 0.0643124 -0.116485 0.116473 -0.0643239 0.116473 -0.0000100402 Z M 0.116473 -0.0000100402 " transform="matrix(124.390006,0,0,124.390006,42.359561,285.419218)"/>
<path style="fill-rule:nonzero;fill:rgb(100%,92.941176%,43.529412%);fill-opacity:1;stroke-width:0.0232951;stroke-linecap:butt;stroke-linejoin:miter;stroke:rgb(60%,60%,60%);stroke-opacity:0.8;stroke-miterlimit:10;" d="M 0.116465 0.00000208307 C 0.116465 0.0643159 0.0643359 0.116477 -0.00000933901 0.116477 C -0.0643232 0.116477 -0.116484 0.0643159 -0.116484 0.00000208307 C -0.116484 -0.0643432 -0.0643232 -0.116473 -0.00000933901 -0.116473 C 0.0643359 -0.116473 0.116465 -0.0643432 0.116465 0.00000208307 Z M 0.116465 0.00000208307 " transform="matrix(124.390006,0,0,124.390006,449.934755,84.909897)"/>
<path style="fill-rule:nonzero;fill:rgb(100%,92.941176%,43.529412%);fill-opacity:1;stroke-width:0.0232951;stroke-linecap:butt;stroke-linejoin:miter;stroke:rgb(60%,60%,60%);stroke-opacity:0.8;stroke-miterlimit:10;" d="M 0.116469 -0.000011612 C 0.116469 0.0643336 0.0643391 0.116463 -0.00000612078 0.116463 C -0.06432 0.116463 -0.116481 0.0643336 -0.116481 -0.000011612 C -0.116481 -0.0643255 -0.06432 -0.116486 -0.00000612078 -0.116486 C 0.0643391 -0.116486 0.116469 -0.0643255 0.116469 -0.000011612 Z M 0.116469 -0.000011612 " transform="matrix(124.390006,0,0,124.390006,426.297636,50.731913)"/>
<path style="fill-rule:nonzero;fill:rgb(100%,92.941176%,43.529412%);fill-opacity:1;stroke-width:0.0232951;stroke-linecap:butt;stroke-linejoin:miter;stroke:rgb(60%,60%,60%);stroke-opacity:0.8;stroke-miterlimit:10;" d="M 0.11647 0.00000269489 C 0.11647 0.0643165 0.064341 0.116477 -0.00000422063 0.116477 C -0.0643181 0.116477 -0.116479 0.0643165 -0.116479 0.00000269489 C -0.116479 -0.0643426 -0.0643181 -0.116472 -0.00000422063 -0.116472 C 0.064341 -0.116472 0.11647 -0.0643426 0.11647 0.00000269489 Z M 0.11647 0.00000269489 " transform="matrix(124.390006,0,0,124.390006,478.992713,136.937165)"/>
<path style="fill-rule:nonzero;fill:rgb(55.294118%,82.745098%,78.039216%);fill-opacity:1;stroke-width:0.0232951;stroke-linecap:butt;stroke-linejoin:miter;stroke:rgb(60%,60%,60%);stroke-opacity:0.8;stroke-miterlimit:10;" d="M 0.116474 -0.0000141156 C 0.116474 0.0643311 0.0643132 0.116461 -0.000000641009 0.116461 C -0.0643145 0.116461 -0.116475 0.0643311 -0.116475 -0.0000141156 C -0.116475 -0.064328 -0.0643145 -0.116489 -0.000000641009 -0.116489 C 0.0643132 -0.116489 0.116474 -0.064328 0.116474 -0.0000141156 Z M 0.116474 -0.0000141156 " transform="matrix(124.390006,0,0,124.390006,126.246173,415.943162)"/>
<path style="fill-rule:nonzero;fill:rgb(55.294118%,82.745098%,78.039216%);fill-opacity:1;stroke-width:0.0232951;stroke-linecap:butt;stroke-linejoin:miter;stroke:rgb(60%,60%,60%);stroke-opacity:0.8;stroke-miterlimit:10;" d="M 0.116464 0.0000135632 C 0.116464 0.0643274 0.0643345 0.116488 -0.0000107151 0.116488 C -0.0643246 0.116488 -0.116485 0.0643274 -0.116485 0.0000135632 C -0.116485 -0.0643317 -0.0643246 -0.116461 -0.0000107151 -0.116461 C 0.0643345 -0.116461 0.116464 -0.0643317 0.116464 0.0000135632 Z M 0.116464 0.0000135632 " transform="matrix(124.390006,0,0,124.390006,488.809927,511.724875)"/>
<path style="fill-rule:nonzero;fill:rgb(55.294118%,82.745098%,78.039216%);fill-opacity:1;stroke-width:0.0232951;stroke-linecap:butt;stroke-linejoin:miter;stroke:rgb(60%,60%,60%);stroke-opacity:0.8;stroke-miterlimit:10;" d="M 0.116472 -0.00000983231 C 0.116472 0.0643354 0.0643427 0.116465 -0.00000255241 0.116465 C -0.0643164 0.116465 -0.116477 0.0643354 -0.116477 -0.00000983231 C -0.116477 -0.0643237 -0.0643164 -0.116484 -0.00000255241 -0.116484 C 0.0643427 -0.116484 0.116472 -0.0643237 0.116472 -0.00000983231 Z M 0.116472 -0.00000983231 " transform="matrix(124.390006,0,0,124.390006,449.523755,527.997317)"/>
<path style="fill-rule:nonzero;fill:rgb(55.294118%,82.745098%,78.039216%);fill-opacity:1;stroke-width:0.0232951;stroke-linecap:butt;stroke-linejoin:miter;stroke:rgb(60%,60%,60%);stroke-opacity:0.8;stroke-miterlimit:10;" d="M 0.116461 0.00000523203 C 0.116461 0.0643191 0.0643315 0.11648 -0.0000137618 0.11648 C -0.0643276 0.11648 -0.116488 0.0643191 -0.116488 0.00000523203 C -0.116488 -0.06434 -0.0643276 -0.116469 -0.0000137618 -0.116469 C 0.0643315 -0.116469 0.116461 -0.06434 0.116461 0.00000523203 Z M 0.116461 0.00000523203 " transform="matrix(124.390006,0,0,124.390006,321.314212,513.889974)"/>
<path style="fill-rule:nonzero;fill:rgb(55.294118%,82.745098%,78.039216%);fill-opacity:1;stroke-width:0.0232951;stroke-linecap:butt;stroke-linejoin:miter;stroke:rgb(60%,60%,60%);stroke-opacity:0.8;stroke-miterlimit:10;" d="M 0.116461 0.00000676924 C 0.116461 0.0643206 0.064332 0.116481 -0.0000132018 0.116481 C -0.0643271 0.116481 -0.116488 0.0643206 -0.116488 0.00000676924 C -0.116488 -0.0643385 -0.0643271 -0.116468 -0.0000132018 -0.116468 C 0.064332 -0.116468 0.116461 -0.0643385 0.116461 0.00000676924 Z M 0.116461 0.00000676924 " transform="matrix(124.390006,0,0,124.390006,393.200861,535.565564)"/>
</g>
</svg>
