<?xml version="1.0" encoding="UTF-8"?>
<svg xmlns="http://www.w3.org/2000/svg" xmlns:xlink="http://www.w3.org/1999/xlink" width="600pt" height="600pt" viewBox="0 0 600 600" version="1.1">
<defs>
<clipPath id="clip1">
  <path d="M 132 290 L 363 290 L 363 451 L 132 451 Z M 132 290 "/>
</clipPath>
<clipPath id="clip2">
  <path d="M 119.464844 177.789062 L 376.105469 177.789062 L 376.105469 563.207031 L 119.464844 563.207031 Z M 119.464844 177.789062 L 210.167969 347.269531 C 210.167969 358.425781 201.121094 367.472656 189.964844 367.472656 C 178.804688 367.472656 169.761719 358.425781 169.761719 347.269531 C 169.761719 336.109375 178.804688 327.066406 189.964844 327.066406 C 201.121094 327.066406 210.167969 336.109375 210.167969 347.269531 Z M 119.464844 177.789062 "/>
</clipPath>
<clipPath id="clip3">
  <path d="M 119.464844 177.789062 L 376.105469 177.789062 L 376.105469 563.207031 L 119.464844 563.207031 Z M 119.464844 177.789062 L 325.804688 393.722656 C 325.804688 404.878906 316.761719 413.925781 305.601562 413.925781 C 294.445312 413.925781 285.398438 404.878906 285.398438 393.722656 C 285.398438 382.566406 294.445312 373.519531 305.601562 373.519531 C 316.761719 373.519531 325.804688 382.566406 325.804688 393.722656 Z M 119.464844 177.789062 "/>
</clipPath>
<clipPath id="clip4">
  <path d="M 55 290 L 248 290 L 248 463 L 55 463 Z M 55 290 "/>
</clipPath>
<clipPath id="clip5">
  <path d="M 2.015625 200.167969 L 300.402344 200.167969 L 300.402344 552.023438 L 2.015625 552.023438 Z M 2.015625 200.167969 L 210.167969 347.269531 C 210.167969 358.425781 201.121094 367.472656 189.964844 367.472656 C 178.804688 367.472656 169.761719 358.425781 169.761719 347.269531 C 169.761719 336.109375 178.804688 327.066406 189.964844 327.066406 C 201.121094 327.066406 210.167969 336.109375 210.167969 347.269531 Z M 2.015625 200.167969 "/>
</clipPath>
<clipPath id="clip6">
  <path d="M 2.015625 200.167969 L 300.402344 200.167969 L 300.402344 552.023438 L 2.015625 552.023438 Z M 2.015625 200.167969 L 132.652344 404.917969 C 132.652344 416.074219 123.609375 425.121094 112.449219 425.121094 C 101.292969 425.121094 92.246094 416.074219 92.246094 404.917969 C 92.246094 393.757812 101.292969 384.714844 112.449219 384.714844 C 123.609375 384.714844 132.652344 393.757812 132.652344 404.917969 Z M 2.015625 200.167969 "/>
</clipPath>
<clipPath id="clip7">
  <path d="M 132 214.988281 L 249 214.988281 L 249 352.847656 L 132 352.847656 Z M 132 214.988281 "/>
</clipPath>
<clipPath id="clip8">
  <path d="M 7.640625 214.988281 L 373.382812 214.988281 L 373.382812 352.847656 L 7.640625 352.847656 Z M 7.640625 214.988281 L 210.167969 347.269531 C 210.167969 358.425781 201.121094 367.472656 189.964844 367.472656 C 178.804688 367.472656 169.761719 358.425781 169.761719 347.269531 C 169.761719 336.109375 178.804688 327.066406 189.964844 327.066406 C 201.121094 327.066406 210.167969 336.109375 210.167969 347.269531 Z M 7.640625 214.988281 "/>
</clipPath>
<clipPath id="clip9">
  <path d="M 7.640625 214.988281 L 373.382812 214.988281 L 373.382812 352.847656 L 7.640625 352.847656 Z M 7.640625 214.988281 L 211.257812 220.5625 C 211.257812 231.71875 202.214844 240.765625 191.054688 240.765625 C 179.898438 240.765625 170.851562 231.71875 170.851562 220.5625 C 170.851562 209.402344 179.898438 200.359375 191.054688 200.359375 C 202.214844 200.359375 211.257812 209.402344 211.257812 220.5625 Z M 7.640625 214.988281 "/>
</clipPath>
<clipPath id="clip10">
  <path d="M 217 336 L 363 336 L 363 530 L 217 530 Z M 217 336 "/>
</clipPath>
<clipPath id="clip11">
  <path d="M 104.699219 325.140625 L 475.839844 325.140625 L 475.839844 541.277344 L 104.699219 541.277344 Z M 104.699219 325.140625 L 295.136719 472.691406 C 295.136719 483.847656 286.09375 492.894531 274.933594 492.894531 C 263.777344 492.894531 254.730469 483.847656 254.730469 472.691406 C 254.730469 461.53125 263.777344 452.488281 274.933594 452.488281 C 286.09375 452.488281 295.136719 461.53125 295.136719 472.691406 Z M 104.699219 325.140625 "/>
</clipPath>
<clipPath id="clip12">
  <path d="M 104.699219 325.140625 L 475.839844 325.140625 L 475.839844 541.277344 L 104.699219 541.277344 Z M 104.699219 325.140625 L 325.804688 393.722656 C 325.804688 404.878906 316.761719 413.925781 305.601562 413.925781 C 294.445312 413.925781 285.398438 404.878906 285.398438 393.722656 C 285.398438 382.566406 294.445312 373.519531 305.601562 373.519531 C 316.761719 373.519531 325.804688 382.566406 325.804688 393.722656 Z M 104.699219 325.140625 "/>
</clipPath>
<clipPath id="clip13">
  <path d="M 248 279 L 513 279 L 513 451 L 248 451 Z M 248 279 "/>
</clipPath>
<clipPath id="clip14">
  <path d="M 237.59375 165.753906 L 523.230469 165.753906 L 523.230469 564.183594 L 237.59375 564.183594 Z M 237.59375 165.753906 L 325.804688 393.722656 C 325.804688 404.878906 316.761719 413.925781 305.601562 413.925781 C 294.445312 413.925781 285.398438 404.878906 285.398438 393.722656 C 285.398438 382.566406 294.445312 373.519531 305.601562 373.519531 C 316.761719 373.519531 325.804688 382.566406 325.804688 393.722656 Z M 237.59375 165.753906 "/>
</clipPath>
<clipPath id="clip15">
  <path d="M 237.59375 165.753906 L 523.230469 165.753906 L 523.230469 564.183594 L 237.59375 564.183594 Z M 237.59375 165.753906 L 475.421875 336.210938 C 475.421875 347.371094 466.375 356.414062 455.21875 356.414062 C 444.058594 356.414062 435.015625 347.371094 435.015625 336.210938 C 435.015625 325.054688 444.058594 316.007812 455.21875 316.007812 C 466.375 316.007812 475.421875 325.054688 475.421875 336.210938 Z M 237.59375 165.753906 "/>
</clipPath>
<clipPath id="clip16">
  <path d="M 427 390 L 584 390 L 584 573 L 427 573 Z M 427 390 "/>
</clipPath>
<clipPath id="clip17">
  <path d="M 329.078125 349.828125 L 681.460938 349.828125 L 681.460938 613.210938 L 329.078125 613.210938 Z M 329.078125 349.828125 L 504.667969 514.925781 C 504.667969 526.085938 495.625 535.128906 484.464844 535.128906 C 473.308594 535.128906 464.261719 526.085938 464.261719 514.925781 C 464.261719 503.769531 473.308594 494.722656 484.464844 494.722656 C 495.625 494.722656 504.667969 503.769531 504.667969 514.925781 Z M 329.078125 349.828125 "/>
</clipPath>
<clipPath id="clip18">
  <path d="M 329.078125 349.828125 L 681.460938 349.828125 L 681.460938 613.210938 L 329.078125 613.210938 Z M 329.078125 349.828125 L 546.273438 448.109375 C 546.273438 459.269531 537.226562 468.3125 526.070312 468.3125 C 514.914062 468.3125 505.867188 459.269531 505.867188 448.109375 C 505.867188 436.953125 514.914062 427.90625 526.070312 427.90625 C 537.226562 427.90625 546.273438 436.953125 546.273438 448.109375 Z M 329.078125 349.828125 "/>
</clipPath>
<clipPath id="clip19">
  <path d="M 382 457 L 542 457 L 542 600 L 382 600 Z M 382 457 "/>
</clipPath>
<clipPath id="clip20">
  <path d="M 311.785156 382.796875 L 612.527344 382.796875 L 612.527344 690.261719 L 311.785156 690.261719 Z M 311.785156 382.796875 L 504.667969 514.925781 C 504.667969 526.085938 495.625 535.128906 484.464844 535.128906 C 473.308594 535.128906 464.261719 526.085938 464.261719 514.925781 C 464.261719 503.769531 473.308594 494.722656 484.464844 494.722656 C 495.625 494.722656 504.667969 503.769531 504.667969 514.925781 Z M 311.785156 382.796875 "/>
</clipPath>
<clipPath id="clip21">
  <path d="M 311.785156 382.796875 L 612.527344 382.796875 L 612.527344 690.261719 L 311.785156 690.261719 Z M 311.785156 382.796875 L 460.042969 558.128906 C 460.042969 569.289062 451 578.332031 439.84375 578.332031 C 428.683594 578.332031 419.640625 569.289062 419.640625 558.128906 C 419.640625 546.972656 428.683594 537.925781 439.84375 537.925781 C 451 537.925781 460.042969 546.972656 460.042969 558.128906 Z M 311.785156 382.796875 "/>
</clipPath>
<clipPath id="clip22">
  <path d="M 464 362.324219 L 584 362.324219 L 584 463.367188 L 464 463.367188 Z M 464 362.324219 "/>
</clipPath>
<clipPath id="clip23">
  <path d="M 339.648438 362.324219 L 708.050781 362.324219 L 708.050781 463.367188 L 339.648438 463.367188 Z M 339.648438 362.324219 L 546.273438 448.109375 C 546.273438 459.269531 537.226562 468.3125 526.070312 468.3125 C 514.914062 468.3125 505.867188 459.269531 505.867188 448.109375 C 505.867188 436.953125 514.914062 427.90625 526.070312 427.90625 C 537.226562 427.90625 546.273438 436.953125 546.273438 448.109375 Z M 339.648438 362.324219 "/>
</clipPath>
<clipPath id="clip24">
  <path d="M 339.648438 362.324219 L 708.050781 362.324219 L 708.050781 463.367188 L 339.648438 463.367188 Z M 339.648438 362.324219 L 541.828125 377.578125 C 541.828125 388.734375 532.78125 397.78125 521.625 397.78125 C 510.464844 397.78125 501.421875 388.734375 501.421875 377.578125 C 501.421875 366.417969 510.464844 357.375 521.625 357.375 C 532.78125 357.375 541.828125 366.417969 541.828125 377.578125 Z M 339.648438 362.324219 "/>
</clipPath>
<clipPath id="clip25">
  <path d="M 398 279 L 579 279 L 579 435 L 398 435 Z M 398 279 "/>
</clipPath>
<clipPath id="clip26">
  <path d="M 356.910156 180.84375 L 619.9375 180.84375 L 619.9375 532.949219 L 356.910156 532.949219 Z M 356.910156 180.84375 L 475.421875 336.210938 C 475.421875 347.371094 466.375 356.414062 455.21875 356.414062 C 444.058594 356.414062 435.015625 347.371094 435.015625 336.210938 C 435.015625 325.054688 444.058594 316.007812 455.21875 316.007812 C 466.375 316.007812 475.421875 325.054688 475.421875 336.210938 Z M 356.910156 180.84375 "/>
</clipPath>
<clipPath id="clip27">
  <path d="M 356.910156 180.84375 L 619.9375 180.84375 L 619.9375 532.949219 L 356.910156 532.949219 Z M 356.910156 180.84375 L 541.828125 377.578125 C 541.828125 388.734375 532.78125 397.78125 521.625 397.78125 C 510.464844 397.78125 501.421875 388.734375 501.421875 377.578125 C 501.421875 366.417969 510.464844 357.375 521.625 357.375 C 532.78125 357.375 541.828125 366.417969 541.828125 377.578125 Z M 356.910156 180.84375 "/>
</clipPath>
<clipPath id="clip28">
  <path d="M 398 212 L 582 212 L 582 394 L 398 394 Z M 398 212 "/>
</clipPath>
<clipPath id="clip29">
  <path d="M 327.574219 137.125 L 652.054688 137.125 L 652.054688 468.742188 L 327.574219 468.742188 Z M 327.574219 137.125 L 475.421875 336.210938 C 475.421875 347.371094 466.375 356.414062 455.21875 356.414062 C 444.058594 356.414062 435.015625 347.371094 435.015625 336.210938 C 435.015625 325.054688 444.058594 316.007812 455.21875 316.007812 C 466.375 316.007812 475.421875 325.054688 475.421875 336.210938 Z M 327.574219 137.125 "/>
</clipPath>
<clipPath id="clip30">
  <path d="M 327.574219 137.125 L 652.054688 137.125 L 652.054688 468.742188 L 327.574219 468.742188 Z M 327.574219 137.125 L 544.609375 269.652344 C 544.609375 280.8125 535.566406 289.855469 524.40625 289.855469 C 513.25 289.855469 504.203125 280.8125 504.203125 269.652344 C 504.203125 258.496094 513.25 249.449219 524.40625 249.449219 C 535.566406 249.449219 544.609375 258.496094 544.609375 269.652344 Z M 327.574219 137.125 "/>
</clipPath>
<clipPath id="clip31">
  <path d="M 16 347 L 170 347 L 170 500 L 16 500 Z M 16 347 "/>
</clipPath>
<clipPath id="clip32">
  <path d="M -54.417969 273.070312 L 240.800781 273.070312 L 240.800781 574.234375 L -54.417969 574.234375 Z M -54.417969 273.070312 L 94.132812 442.382812 C 94.132812 453.539062 85.085938 462.585938 73.929688 462.585938 C 62.773438 462.585938 53.726562 453.539062 53.726562 442.382812 C 53.726562 431.222656 62.773438 422.179688 73.929688 422.179688 C 85.085938 422.179688 94.132812 431.222656 94.132812 442.382812 Z M -54.417969 273.070312 "/>
</clipPath>
<clipPath id="clip33">
  <path d="M -54.417969 273.070312 L 240.800781 273.070312 L 240.800781 574.234375 L -54.417969 574.234375 Z M -54.417969 273.070312 L 132.652344 404.917969 C 132.652344 416.074219 123.609375 425.121094 112.449219 425.121094 C 101.292969 425.121094 92.246094 416.074219 92.246094 404.917969 C 92.246094 393.757812 101.292969 384.714844 112.449219 384.714844 C 123.609375 384.714844 132.652344 393.757812 132.652344 404.917969 Z M -54.417969 273.070312 "/>
</clipPath>
<clipPath id="clip34">
  <path d="M 96 105 L 249 105 L 249 278 L 96 278 Z M 96 105 "/>
</clipPath>
<clipPath id="clip35">
  <path d="M -0.277344 62.308594 L 345.210938 62.308594 L 345.210938 320.800781 L -0.277344 320.800781 Z M -0.277344 62.308594 L 211.257812 220.5625 C 211.257812 231.71875 202.214844 240.765625 191.054688 240.765625 C 179.898438 240.765625 170.851562 231.71875 170.851562 220.5625 C 170.851562 209.402344 179.898438 200.359375 191.054688 200.359375 C 202.214844 200.359375 211.257812 209.402344 211.257812 220.5625 Z M -0.277344 62.308594 "/>
</clipPath>
<clipPath id="clip36">
  <path d="M -0.277344 62.308594 L 345.210938 62.308594 L 345.210938 320.800781 L -0.277344 320.800781 Z M -0.277344 62.308594 L 174.078125 162.542969 C 174.078125 173.703125 165.03125 182.746094 153.875 182.746094 C 142.71875 182.746094 133.671875 173.703125 133.671875 162.542969 C 133.671875 151.386719 142.71875 142.339844 153.875 142.339844 C 165.03125 142.339844 174.078125 151.386719 174.078125 162.542969 Z M -0.277344 62.308594 "/>
</clipPath>
<clipPath id="clip37">
  <path d="M 133 62 L 334 62 L 334 278 L 133 278 Z M 133 62 "/>
</clipPath>
<clipPath id="clip38">
  <path d="M 50.414062 0.71875 L 416.605469 0.71875 L 416.605469 339.179688 L 50.414062 339.179688 Z M 50.414062 0.71875 L 211.257812 220.5625 C 211.257812 231.71875 202.214844 240.765625 191.054688 240.765625 C 179.898438 240.765625 170.851562 231.71875 170.851562 220.5625 C 170.851562 209.402344 179.898438 200.359375 191.054688 200.359375 C 202.214844 200.359375 211.257812 209.402344 211.257812 220.5625 Z M 50.414062 0.71875 "/>
</clipPath>
<clipPath id="clip39">
  <path d="M 50.414062 0.71875 L 416.605469 0.71875 L 416.605469 339.179688 L 50.414062 339.179688 Z M 50.414062 0.71875 L 296.164062 119.332031 C 296.164062 130.492188 287.121094 139.535156 275.960938 139.535156 C 264.804688 139.535156 255.757812 130.492188 255.757812 119.332031 C 255.757812 108.175781 264.804688 99.128906 275.960938 99.128906 C 287.121094 99.128906 296.164062 108.175781 296.164062 119.332031 Z M 50.414062 0.71875 "/>
</clipPath>
<clipPath id="clip40">
  <path d="M 290.710938 19 L 463.660156 19 L 463.660156 153 L 290.710938 153 Z M 290.710938 19 "/>
</clipPath>
<clipPath id="clip41">
  <path d="M 290.710938 -102.492188 L 463.660156 -102.492188 L 463.660156 274.109375 L 290.710938 274.109375 Z M 290.710938 -102.492188 L 444.351562 76.273438 C 444.351562 87.429688 435.304688 96.476562 424.148438 96.476562 C 412.992188 96.476562 403.945312 87.429688 403.945312 76.273438 C 403.945312 65.113281 412.992188 56.070312 424.148438 56.070312 C 435.304688 56.070312 444.351562 65.113281 444.351562 76.273438 Z M 290.710938 -102.492188 "/>
</clipPath>
<clipPath id="clip42">
  <path d="M 290.710938 -102.492188 L 463.660156 -102.492188 L 463.660156 274.109375 L 290.710938 274.109375 Z M 290.710938 -102.492188 L 350.421875 95.339844 C 350.421875 106.5 341.375 115.542969 330.21875 115.542969 C 319.058594 115.542969 310.015625 106.5 310.015625 95.339844 C 310.015625 84.183594 319.058594 75.136719 330.21875 75.136719 C 341.375 75.136719 350.421875 84.183594 350.421875 95.339844 Z M 290.710938 -102.492188 "/>
</clipPath>
<clipPath id="clip43">
  <path d="M 186.765625 38 L 357.066406 38 L 357.066406 168 L 186.765625 168 Z M 186.765625 38 "/>
</clipPath>
<clipPath id="clip44">
  <path d="M 186.765625 -85.523438 L 357.066406 -85.523438 L 357.066406 291.246094 L 186.765625 291.246094 Z M 186.765625 -85.523438 L 233.8125 110.378906 C 233.8125 121.535156 224.765625 130.582031 213.609375 130.582031 C 202.449219 130.582031 193.40625 121.535156 193.40625 110.378906 C 193.40625 99.21875 202.449219 90.175781 213.609375 90.175781 C 224.765625 90.175781 233.8125 99.21875 233.8125 110.378906 Z M 186.765625 -85.523438 "/>
</clipPath>
<clipPath id="clip45">
  <path d="M 186.765625 -85.523438 L 357.066406 -85.523438 L 357.066406 291.246094 L 186.765625 291.246094 Z M 186.765625 -85.523438 L 350.421875 95.339844 C 350.421875 106.5 341.375 115.542969 330.21875 115.542969 C 319.058594 115.542969 310.015625 106.5 310.015625 95.339844 C 310.015625 84.183594 319.058594 75.136719 330.21875 75.136719 C 341.375 75.136719 350.421875 84.183594 350.421875 95.339844 Z M 186.765625 -85.523438 "/>
</clipPath>
<clipPath id="clip46">
  <path d="M 96 53 L 271 53 L 271 220 L 96 220 Z M 96 53 "/>
</clipPath>
<clipPath id="clip47">
  <path d="M 32.5625 -27.953125 L 334.925781 -27.953125 L 334.925781 300.878906 L 32.5625 300.878906 Z M 32.5625 -27.953125 L 233.8125 110.378906 C 233.8125 121.535156 224.765625 130.582031 213.609375 130.582031 C 202.449219 130.582031 193.40625 121.535156 193.40625 110.378906 C 193.40625 99.21875 202.449219 90.175781 213.609375 90.175781 C 224.765625 90.175781 233.8125 99.21875 233.8125 110.378906 Z M 32.5625 -27.953125 "/>
</clipPath>
<clipPath id="clip48">
  <path d="M 32.5625 -27.953125 L 334.925781 -27.953125 L 334.925781 300.878906 L 32.5625 300.878906 Z M 32.5625 -27.953125 L 174.078125 162.542969 C 174.078125 173.703125 165.03125 182.746094 153.875 182.746094 C 142.71875 182.746094 133.671875 173.703125 133.671875 162.542969 C 133.671875 151.386719 142.71875 142.339844 153.875 142.339844 C 165.03125 142.339844 174.078125 151.386719 174.078125 162.542969 Z M 32.5625 -27.953125 "/>
</clipPath>
<clipPath id="clip49">
  <path d="M 218 38 L 388 38 L 388 177 L 218 177 Z M 218 38 "/>
</clipPath>
<clipPath id="clip50">
  <path d="M 199.820312 -71.757812 L 406.363281 -71.757812 L 406.363281 286.433594 L 199.820312 286.433594 Z M 199.820312 -71.757812 L 350.421875 95.339844 C 350.421875 106.5 341.375 115.542969 330.21875 115.542969 C 319.058594 115.542969 310.015625 106.5 310.015625 95.339844 C 310.015625 84.183594 319.058594 75.136719 330.21875 75.136719 C 341.375 75.136719 350.421875 84.183594 350.421875 95.339844 Z M 199.820312 -71.757812 "/>
</clipPath>
<clipPath id="clip51">
  <path d="M 199.820312 -71.757812 L 406.363281 -71.757812 L 406.363281 286.433594 L 199.820312 286.433594 Z M 199.820312 -71.757812 L 296.164062 119.332031 C 296.164062 130.492188 287.121094 139.535156 275.960938 139.535156 C 264.804688 139.535156 255.757812 130.492188 255.757812 119.332031 C 255.757812 108.175781 264.804688 99.128906 275.960938 99.128906 C 287.121094 99.128906 296.164062 108.175781 296.164062 119.332031 Z M 199.820312 -71.757812 "/>
</clipPath>
<clipPath id="clip52">
  <path d="M 218 1.007812 L 350 1.007812 L 350 160.199219 L 218 160.199219 Z M 218 1.007812 "/>
</clipPath>
<clipPath id="clip53">
  <path d="M 97.476562 1.007812 L 470.800781 1.007812 L 470.800781 160.199219 L 97.476562 160.199219 Z M 97.476562 1.007812 L 312.515625 41.871094 C 312.515625 53.027344 303.46875 62.074219 292.3125 62.074219 C 281.152344 62.074219 272.109375 53.027344 272.109375 41.871094 C 272.109375 30.710938 281.152344 21.667969 292.3125 21.667969 C 303.46875 21.667969 312.515625 30.710938 312.515625 41.871094 Z M 97.476562 1.007812 "/>
</clipPath>
<clipPath id="clip54">
  <path d="M 97.476562 1.007812 L 470.800781 1.007812 L 470.800781 160.199219 L 97.476562 160.199219 Z M 97.476562 1.007812 L 296.164062 119.332031 C 296.164062 130.492188 287.121094 139.535156 275.960938 139.535156 C 264.804688 139.535156 255.757812 130.492188 255.757812 119.332031 C 255.757812 108.175781 264.804688 99.128906 275.960938 99.128906 C 287.121094 99.128906 296.164062 108.175781 296.164062 119.332031 Z M 97.476562 1.007812 "/>
</clipPath>
</defs>
<g id="surface101">
<g clip-path="url(#clip1)" clip-rule="nonzero">
<g clip-path="url(#clip2)" clip-rule="evenodd">
<g clip-path="url(#clip3)" clip-rule="evenodd">
<path style="fill:none;stroke-width:0.0226632;stroke-linecap:butt;stroke-linejoin:miter;stroke:rgb(17.96875%,20.3125%,21.09375%);stroke-opacity:0.8;stroke-miterlimit:10;" d="M 1.189038 2.580554 L 1.837627 2.841103 " transform="matrix(178.289849,0,0,178.289849,-22.028621,-112.817133)"/>
</g>
</g>
</g>
<g clip-path="url(#clip4)" clip-rule="nonzero">
<g clip-path="url(#clip5)" clip-rule="evenodd">
<g clip-path="url(#clip6)" clip-rule="evenodd">
<path style="fill:none;stroke-width:0.0226632;stroke-linecap:butt;stroke-linejoin:miter;stroke:rgb(17.96875%,20.3125%,21.09375%);stroke-opacity:0.8;stroke-miterlimit:10;" d="M 1.189038 2.580554 L 0.754265 2.903896 " transform="matrix(178.289849,0,0,178.289849,-22.028621,-112.817133)"/>
</g>
</g>
</g>
<g clip-path="url(#clip7)" clip-rule="nonzero">
<g clip-path="url(#clip8)" clip-rule="evenodd">
<g clip-path="url(#clip9)" clip-rule="evenodd">
<path style="fill:none;stroke-width:0.0226632;stroke-linecap:butt;stroke-linejoin:miter;stroke:rgb(17.96875%,20.3125%,21.09375%);stroke-opacity:0.8;stroke-miterlimit:10;" d="M 1.189038 2.580554 L 1.195151 1.869874 " transform="matrix(178.289849,0,0,178.289849,-22.028621,-112.817133)"/>
</g>
</g>
</g>
<g clip-path="url(#clip10)" clip-rule="nonzero">
<g clip-path="url(#clip11)" clip-rule="evenodd">
<g clip-path="url(#clip12)" clip-rule="evenodd">
<path style="fill:none;stroke-width:0.0226632;stroke-linecap:butt;stroke-linejoin:miter;stroke:rgb(17.96875%,20.3125%,21.09375%);stroke-opacity:0.8;stroke-miterlimit:10;" d="M 1.665615 3.284026 L 1.837627 2.841103 " transform="matrix(178.289849,0,0,178.289849,-22.028621,-112.817133)"/>
</g>
</g>
</g>
<g clip-path="url(#clip13)" clip-rule="nonzero">
<g clip-path="url(#clip14)" clip-rule="evenodd">
<g clip-path="url(#clip15)" clip-rule="evenodd">
<path style="fill:none;stroke-width:0.0226632;stroke-linecap:butt;stroke-linejoin:miter;stroke:rgb(17.96875%,20.3125%,21.09375%);stroke-opacity:0.8;stroke-miterlimit:10;" d="M 1.837627 2.841103 L 2.676806 2.518529 " transform="matrix(178.289849,0,0,178.289849,-22.028621,-112.817133)"/>
</g>
</g>
</g>
<g clip-path="url(#clip16)" clip-rule="nonzero">
<g clip-path="url(#clip17)" clip-rule="evenodd">
<g clip-path="url(#clip18)" clip-rule="evenodd">
<path style="fill:none;stroke-width:0.0226632;stroke-linecap:butt;stroke-linejoin:miter;stroke:rgb(17.96875%,20.3125%,21.09375%);stroke-opacity:0.8;stroke-miterlimit:10;" d="M 2.840843 3.520912 L 3.074202 3.146149 " transform="matrix(178.289849,0,0,178.289849,-22.028621,-112.817133)"/>
</g>
</g>
</g>
<g clip-path="url(#clip19)" clip-rule="nonzero">
<g clip-path="url(#clip20)" clip-rule="evenodd">
<g clip-path="url(#clip21)" clip-rule="evenodd">
<path style="fill:none;stroke-width:0.0226632;stroke-linecap:butt;stroke-linejoin:miter;stroke:rgb(17.96875%,20.3125%,21.09375%);stroke-opacity:0.8;stroke-miterlimit:10;" d="M 2.840843 3.520912 L 2.59057 3.763232 " transform="matrix(178.289849,0,0,178.289849,-22.028621,-112.817133)"/>
</g>
</g>
</g>
<g clip-path="url(#clip22)" clip-rule="nonzero">
<g clip-path="url(#clip23)" clip-rule="evenodd">
<g clip-path="url(#clip24)" clip-rule="evenodd">
<path style="fill:none;stroke-width:0.0226632;stroke-linecap:butt;stroke-linejoin:miter;stroke:rgb(17.96875%,20.3125%,21.09375%);stroke-opacity:0.8;stroke-miterlimit:10;" d="M 3.074202 3.146149 L 3.049268 2.750551 " transform="matrix(178.289849,0,0,178.289849,-22.028621,-112.817133)"/>
</g>
</g>
</g>
<g clip-path="url(#clip25)" clip-rule="nonzero">
<g clip-path="url(#clip26)" clip-rule="evenodd">
<g clip-path="url(#clip27)" clip-rule="evenodd">
<path style="fill:none;stroke-width:0.0226632;stroke-linecap:butt;stroke-linejoin:miter;stroke:rgb(17.96875%,20.3125%,21.09375%);stroke-opacity:0.8;stroke-miterlimit:10;" d="M 2.676806 2.518529 L 3.049268 2.750551 " transform="matrix(178.289849,0,0,178.289849,-22.028621,-112.817133)"/>
</g>
</g>
</g>
<g clip-path="url(#clip28)" clip-rule="nonzero">
<g clip-path="url(#clip29)" clip-rule="evenodd">
<g clip-path="url(#clip30)" clip-rule="evenodd">
<path style="fill:none;stroke-width:0.0226632;stroke-linecap:butt;stroke-linejoin:miter;stroke:rgb(17.96875%,20.3125%,21.09375%);stroke-opacity:0.8;stroke-miterlimit:10;" d="M 2.676806 2.518529 L 3.064868 2.145212 " transform="matrix(178.289849,0,0,178.289849,-22.028621,-112.817133)"/>
</g>
</g>
</g>
<g clip-path="url(#clip31)" clip-rule="nonzero">
<g clip-path="url(#clip32)" clip-rule="evenodd">
<g clip-path="url(#clip33)" clip-rule="evenodd">
<path style="fill:none;stroke-width:0.0226632;stroke-linecap:butt;stroke-linejoin:miter;stroke:rgb(17.96875%,20.3125%,21.09375%);stroke-opacity:0.8;stroke-miterlimit:10;" d="M 0.538215 3.11403 L 0.754265 2.903896 " transform="matrix(178.289849,0,0,178.289849,-22.028621,-112.817133)"/>
</g>
</g>
</g>
<g clip-path="url(#clip34)" clip-rule="nonzero">
<g clip-path="url(#clip35)" clip-rule="evenodd">
<g clip-path="url(#clip36)" clip-rule="evenodd">
<path style="fill:none;stroke-width:0.0226632;stroke-linecap:butt;stroke-linejoin:miter;stroke:rgb(17.96875%,20.3125%,21.09375%);stroke-opacity:0.8;stroke-miterlimit:10;" d="M 1.195151 1.869874 L 0.986616 1.544452 " transform="matrix(178.289849,0,0,178.289849,-22.028621,-112.817133)"/>
</g>
</g>
</g>
<g clip-path="url(#clip37)" clip-rule="nonzero">
<g clip-path="url(#clip38)" clip-rule="evenodd">
<g clip-path="url(#clip39)" clip-rule="evenodd">
<path style="fill:none;stroke-width:0.0226632;stroke-linecap:butt;stroke-linejoin:miter;stroke:rgb(17.96875%,20.3125%,21.09375%);stroke-opacity:0.8;stroke-miterlimit:10;" d="M 1.195151 1.869874 L 1.671377 1.302089 " transform="matrix(178.289849,0,0,178.289849,-22.028621,-112.817133)"/>
</g>
</g>
</g>
<g clip-path="url(#clip40)" clip-rule="nonzero">
<g clip-path="url(#clip41)" clip-rule="evenodd">
<g clip-path="url(#clip42)" clip-rule="evenodd">
<path style="fill:none;stroke-width:0.0226632;stroke-linecap:butt;stroke-linejoin:miter;stroke:rgb(17.96875%,20.3125%,21.09375%);stroke-opacity:0.8;stroke-miterlimit:10;" d="M 2.502538 1.06058 L 1.975701 1.16752 " transform="matrix(178.289849,0,0,178.289849,-22.028621,-112.817133)"/>
</g>
</g>
</g>
<g clip-path="url(#clip43)" clip-rule="nonzero">
<g clip-path="url(#clip44)" clip-rule="evenodd">
<g clip-path="url(#clip45)" clip-rule="evenodd">
<path style="fill:none;stroke-width:0.0226632;stroke-linecap:butt;stroke-linejoin:miter;stroke:rgb(17.96875%,20.3125%,21.09375%);stroke-opacity:0.8;stroke-miterlimit:10;" d="M 1.321657 1.251872 L 1.975701 1.16752 " transform="matrix(178.289849,0,0,178.289849,-22.028621,-112.817133)"/>
</g>
</g>
</g>
<g clip-path="url(#clip46)" clip-rule="nonzero">
<g clip-path="url(#clip47)" clip-rule="evenodd">
<g clip-path="url(#clip48)" clip-rule="evenodd">
<path style="fill:none;stroke-width:0.0226632;stroke-linecap:butt;stroke-linejoin:miter;stroke:rgb(17.96875%,20.3125%,21.09375%);stroke-opacity:0.8;stroke-miterlimit:10;" d="M 1.321657 1.251872 L 0.986616 1.544452 " transform="matrix(178.289849,0,0,178.289849,-22.028621,-112.817133)"/>
</g>
</g>
</g>
<g clip-path="url(#clip49)" clip-rule="nonzero">
<g clip-path="url(#clip50)" clip-rule="evenodd">
<g clip-path="url(#clip51)" clip-rule="evenodd">
<path style="fill:none;stroke-width:0.0226632;stroke-linecap:butt;stroke-linejoin:miter;stroke:rgb(17.96875%,20.3125%,21.09375%);stroke-opacity:0.8;stroke-miterlimit:10;" d="M 1.975701 1.16752 L 1.671377 1.302089 " transform="matrix(178.289849,0,0,178.289849,-22.028621,-112.817133)"/>
</g>
</g>
</g>
<g clip-path="url(#clip52)" clip-rule="nonzero">
<g clip-path="url(#clip53)" clip-rule="evenodd">
<g clip-path="url(#clip54)" clip-rule="evenodd">
<path style="fill:none;stroke-width:0.0226632;stroke-linecap:butt;stroke-linejoin:miter;stroke:rgb(17.96875%,20.3125%,21.09375%);stroke-opacity:0.8;stroke-miterlimit:10;" d="M 1.76309 0.867622 L 1.671377 1.302089 " transform="matrix(178.289849,0,0,178.289849,-22.028621,-112.817133)"/>
</g>
</g>
</g>
<path style="fill-rule:nonzero;fill:rgb(100%,92.941176%,43.529412%);fill-opacity:1;stroke-width:0.0226632;stroke-linecap:butt;stroke-linejoin:miter;stroke:rgb(60%,60%,60%);stroke-opacity:0.8;stroke-miterlimit:10;" d="M 0.113321 0.00000990779 C 0.113321 0.0625836 0.0625786 0.113326 0.00000493936 0.113326 C -0.0625906 0.113326 -0.113311 0.0625836 -0.113311 0.00000990779 C -0.113311 -0.0625857 -0.0625906 -0.113306 0.00000493936 -0.113306 C 0.0625786 -0.113306 0.113321 -0.0625857 0.113321 0.00000990779 Z M 0.113321 0.00000990779 " transform="matrix(178.289849,0,0,178.289849,189.963963,347.267765)"/>
<path style="fill-rule:nonzero;fill:rgb(100%,92.941176%,43.529412%);fill-opacity:1;stroke-width:0.0226632;stroke-linecap:butt;stroke-linejoin:miter;stroke:rgb(60%,60%,60%);stroke-opacity:0.8;stroke-miterlimit:10;" d="M 0.113309 0.00000421323 C 0.113309 0.0625779 0.0625879 0.11332 -0.00000763595 0.11332 C -0.0625813 0.11332 -0.113324 0.0625779 -0.113324 0.00000421323 C -0.113324 -0.0625914 -0.0625813 -0.113312 -0.00000763595 -0.113312 C 0.0625879 -0.113312 0.113309 -0.0625914 0.113309 0.00000421323 Z M 0.113309 0.00000421323 " transform="matrix(178.289849,0,0,178.289849,274.934955,472.690655)"/>
<path style="fill-rule:nonzero;fill:rgb(100%,92.941176%,43.529412%);fill-opacity:1;stroke-width:0.0226632;stroke-linecap:butt;stroke-linejoin:miter;stroke:rgb(60%,60%,60%);stroke-opacity:0.8;stroke-miterlimit:10;" d="M 0.113313 -0.0000014697 C 0.113313 0.0625722 0.0625925 0.113315 -0.00000309884 0.113315 C -0.0625768 0.113315 -0.113319 0.0625722 -0.113319 -0.0000014697 C -0.113319 -0.0625751 -0.0625768 -0.113318 -0.00000309884 -0.113318 C 0.0625925 -0.113318 0.113313 -0.0625751 0.113313 -0.0000014697 Z M 0.113313 -0.0000014697 " transform="matrix(178.289849,0,0,178.289849,305.602115,393.722918)"/>
<path style="fill-rule:nonzero;fill:rgb(100%,92.941176%,43.529412%);fill-opacity:1;stroke-width:0.0226632;stroke-linecap:butt;stroke-linejoin:miter;stroke:rgb(60%,60%,60%);stroke-opacity:0.8;stroke-miterlimit:10;" d="M 0.113311 -0.00000690903 C 0.113311 0.0625887 0.06259 0.113309 -0.00000555879 0.113309 C -0.0625792 0.113309 -0.113322 0.0625887 -0.113322 -0.00000690903 C -0.113322 -0.0625806 -0.0625792 -0.113323 -0.00000555879 -0.113323 C 0.06259 -0.113323 0.113311 -0.0625806 0.113311 -0.00000690903 Z M 0.113311 -0.00000690903 " transform="matrix(178.289849,0,0,178.289849,484.465835,514.927013)"/>
<path style="fill-rule:nonzero;fill:rgb(100%,92.941176%,43.529412%);fill-opacity:1;stroke-width:0.0226632;stroke-linecap:butt;stroke-linejoin:miter;stroke:rgb(60%,60%,60%);stroke-opacity:0.8;stroke-miterlimit:10;" d="M 0.113318 -0.00000972386 C 0.113318 0.0625859 0.0625757 0.113306 0.00000205061 0.113306 C -0.0625716 0.113306 -0.113314 0.0625859 -0.113314 -0.00000972386 C -0.113314 -0.0625834 -0.0625716 -0.113326 0.00000205061 -0.113326 C 0.0625757 -0.113326 0.113318 -0.0625834 0.113318 -0.00000972386 Z M 0.113318 -0.00000972386 " transform="matrix(178.289849,0,0,178.289849,526.069947,448.111109)"/>
<path style="fill-rule:nonzero;fill:rgb(100%,92.941176%,43.529412%);fill-opacity:1;stroke-width:0.0226632;stroke-linecap:butt;stroke-linejoin:miter;stroke:rgb(60%,60%,60%);stroke-opacity:0.8;stroke-miterlimit:10;" d="M 0.11332 -0.0000105259 C 0.11332 0.0625851 0.0625779 0.113306 0.00000418989 0.113306 C -0.0625914 0.113306 -0.113312 0.0625851 -0.113312 -0.0000105259 C -0.113312 -0.0625842 -0.0625914 -0.113327 0.00000418989 -0.113327 C 0.0625779 -0.113327 0.11332 -0.0625842 0.11332 -0.0000105259 Z M 0.11332 -0.0000105259 " transform="matrix(178.289849,0,0,178.289849,455.218003,336.212814)"/>
<path style="fill-rule:nonzero;fill:rgb(100%,92.941176%,43.529412%);fill-opacity:1;stroke-width:0.0226632;stroke-linecap:butt;stroke-linejoin:miter;stroke:rgb(60%,60%,60%);stroke-opacity:0.8;stroke-miterlimit:10;" d="M 0.113325 0.00000465641 C 0.113325 0.0625783 0.0625825 0.113321 0.00000886687 0.113321 C -0.0625867 0.113321 -0.113307 0.0625783 -0.113307 0.00000465641 C -0.113307 -0.0625909 -0.0625867 -0.113312 0.00000886687 -0.113312 C 0.0625825 -0.113312 0.113325 -0.0625909 0.113325 0.00000465641 Z M 0.113325 0.00000465641 " transform="matrix(178.289849,0,0,178.289849,521.623419,377.577295)"/>
<path style="fill-rule:nonzero;fill:rgb(100%,92.941176%,43.529412%);fill-opacity:1;stroke-width:0.0226632;stroke-linecap:butt;stroke-linejoin:miter;stroke:rgb(60%,60%,60%);stroke-opacity:0.8;stroke-miterlimit:10;" d="M 0.113309 -0.00000760428 C 0.113309 0.062588 0.0625879 0.113309 -0.00000766654 0.113309 C -0.0625813 0.113309 -0.113324 0.062588 -0.113324 -0.00000760428 C -0.113324 -0.0625813 -0.0625813 -0.113324 -0.00000766654 -0.113324 C 0.0625879 -0.113324 0.113309 -0.0625813 0.113309 -0.00000760428 Z M 0.113309 -0.00000760428 " transform="matrix(178.289849,0,0,178.289849,524.407617,269.6537)"/>
<path style="fill-rule:nonzero;fill:rgb(100%,92.941176%,43.529412%);fill-opacity:1;stroke-width:0.0226632;stroke-linecap:butt;stroke-linejoin:miter;stroke:rgb(60%,60%,60%);stroke-opacity:0.8;stroke-miterlimit:10;" d="M 0.113305 -0.00000581113 C 0.113305 0.0625898 0.0625845 0.11331 0.0000108775 0.11331 C -0.0625847 0.11331 -0.113305 0.0625898 -0.113305 -0.00000581113 C -0.113305 -0.0625795 -0.0625847 -0.113322 0.0000108775 -0.113322 C 0.0625845 -0.113322 0.113305 -0.0625795 0.113305 -0.00000581113 Z M 0.113305 -0.00000581113 " transform="matrix(178.289849,0,0,178.289849,439.841811,558.129942)"/>
<path style="fill-rule:nonzero;fill:rgb(55.294118%,82.745098%,78.039216%);fill-opacity:1;stroke-width:0.0226632;stroke-linecap:butt;stroke-linejoin:miter;stroke:rgb(60%,60%,60%);stroke-opacity:0.8;stroke-miterlimit:10;" d="M 0.113314 0.00000707791 C 0.113314 0.0625807 0.0625716 0.113323 -0.00000205061 0.113323 C -0.0625757 0.113323 -0.113318 0.0625807 -0.113318 0.00000707791 C -0.113318 -0.0625885 -0.0625757 -0.113309 -0.00000205061 -0.113309 C 0.0625716 -0.113309 0.113314 -0.0625885 0.113314 0.00000707791 Z M 0.113314 0.00000707791 " transform="matrix(178.289849,0,0,178.289849,73.930053,442.381551)"/>
<path style="fill-rule:nonzero;fill:rgb(55.294118%,82.745098%,78.039216%);fill-opacity:1;stroke-width:0.0226632;stroke-linecap:butt;stroke-linejoin:miter;stroke:rgb(60%,60%,60%);stroke-opacity:0.8;stroke-miterlimit:10;" d="M 0.113313 0.00000773864 C 0.113313 0.0625814 0.0625928 0.113324 -0.00000280356 0.113324 C -0.0625765 0.113324 -0.113319 0.0625814 -0.113319 0.00000773864 C -0.113319 -0.0625878 -0.0625765 -0.113308 -0.00000280356 -0.113308 C 0.0625928 -0.113308 0.113313 -0.0625878 0.113313 0.00000773864 Z M 0.113313 0.00000773864 " transform="matrix(178.289849,0,0,178.289849,112.449719,404.916589)"/>
<path style="fill-rule:nonzero;fill:rgb(100%,92.941176%,43.529412%);fill-opacity:1;stroke-width:0.0226632;stroke-linecap:butt;stroke-linejoin:miter;stroke:rgb(60%,60%,60%);stroke-opacity:0.8;stroke-miterlimit:10;" d="M 0.113309 0.00000350429 C 0.113309 0.0625772 0.0625883 0.11332 -0.00000724825 0.11332 C -0.0625809 0.11332 -0.113323 0.0625772 -0.113323 0.00000350429 C -0.113323 -0.0625921 -0.0625809 -0.113313 -0.00000724825 -0.113313 C 0.0625883 -0.113313 0.113309 -0.0625921 0.113309 0.00000350429 Z M 0.113309 0.00000350429 " transform="matrix(178.289849,0,0,178.289849,191.05598,220.561875)"/>
<path style="fill-rule:nonzero;fill:rgb(100%,92.941176%,43.529412%);fill-opacity:1;stroke-width:0.0226632;stroke-linecap:butt;stroke-linejoin:miter;stroke:rgb(60%,60%,60%);stroke-opacity:0.8;stroke-miterlimit:10;" d="M 0.113317 0.00000252115 C 0.113317 0.0625762 0.0625743 0.113319 0.000000669576 0.113319 C -0.062573 0.113319 -0.113316 0.0625762 -0.113316 0.00000252115 C -0.113316 -0.0625931 -0.062573 -0.113314 0.000000669576 -0.113314 C 0.0625743 -0.113314 0.113317 -0.0625931 0.113317 0.00000252115 Z M 0.113317 0.00000252115 " transform="matrix(178.289849,0,0,178.289849,424.148318,76.272988)"/>
<path style="fill-rule:nonzero;fill:rgb(100%,92.941176%,43.529412%);fill-opacity:1;stroke-width:0.0226632;stroke-linecap:butt;stroke-linejoin:miter;stroke:rgb(60%,60%,60%);stroke-opacity:0.8;stroke-miterlimit:10;" d="M 0.113322 0.00000415516 C 0.113322 0.0625778 0.0625796 0.11332 0.00000591135 0.11332 C -0.0625897 0.11332 -0.11331 0.0625778 -0.11331 0.00000415516 C -0.11331 -0.0625914 -0.0625897 -0.113312 0.00000591135 -0.113312 C 0.0625796 -0.113312 0.113322 -0.0625914 0.113322 0.00000415516 Z M 0.113322 0.00000415516 " transform="matrix(178.289849,0,0,178.289849,213.608321,110.378165)"/>
<path style="fill-rule:nonzero;fill:rgb(100%,92.941176%,43.529412%);fill-opacity:1;stroke-width:0.0226632;stroke-linecap:butt;stroke-linejoin:miter;stroke:rgb(60%,60%,60%);stroke-opacity:0.8;stroke-miterlimit:10;" d="M 0.113327 -0.00000305217 C 0.113327 0.0625925 0.0625841 0.113313 0.0000104046 0.113313 C -0.0625852 0.113313 -0.113306 0.0625925 -0.113306 -0.00000305217 C -0.113306 -0.0625767 -0.0625852 -0.113319 0.0000104046 -0.113319 C 0.0625841 -0.113319 0.113327 -0.0625767 0.113327 -0.00000305217 Z M 0.113327 -0.00000305217 " transform="matrix(178.289849,0,0,178.289849,330.216895,95.340388)"/>
<path style="fill-rule:nonzero;fill:rgb(100%,92.941176%,43.529412%);fill-opacity:1;stroke-width:0.0226632;stroke-linecap:butt;stroke-linejoin:miter;stroke:rgb(60%,60%,60%);stroke-opacity:0.8;stroke-miterlimit:10;" d="M 0.113316 -0.00000567668 C 0.113316 0.0625899 0.0625732 0.113311 -0.000000462688 0.113311 C -0.0625741 0.113311 -0.113317 0.0625899 -0.113317 -0.00000567668 C -0.113317 -0.0625793 -0.0625741 -0.113322 -0.000000462688 -0.113322 C 0.0625732 -0.113322 0.113316 -0.0625793 0.113316 -0.00000567668 Z M 0.113316 -0.00000567668 " transform="matrix(178.289849,0,0,178.289849,153.875082,162.543981)"/>
<path style="fill-rule:nonzero;fill:rgb(100%,92.941176%,43.529412%);fill-opacity:1;stroke-width:0.0226632;stroke-linecap:butt;stroke-linejoin:miter;stroke:rgb(60%,60%,60%);stroke-opacity:0.8;stroke-miterlimit:10;" d="M 0.113324 0.00000581113 C 0.113324 0.0625795 0.0625812 0.113322 0.00000755031 0.113322 C -0.062588 0.113322 -0.113309 0.0625795 -0.113309 0.00000581113 C -0.113309 -0.0625898 -0.062588 -0.11331 0.00000755031 -0.11331 C 0.0625812 -0.11331 0.113324 -0.0625898 0.113324 0.00000581113 Z M 0.113324 0.00000581113 " transform="matrix(178.289849,0,0,178.289849,292.311154,41.870058)"/>
<path style="fill-rule:nonzero;fill:rgb(100%,92.941176%,43.529412%);fill-opacity:1;stroke-width:0.0226632;stroke-linecap:butt;stroke-linejoin:miter;stroke:rgb(60%,60%,60%);stroke-opacity:0.8;stroke-miterlimit:10;" d="M 0.11331 -0.00000519707 C 0.11331 0.0625904 0.0625895 0.113311 -0.00000603739 0.113311 C -0.0625797 0.113311 -0.113322 0.0625904 -0.113322 -0.00000519707 C -0.113322 -0.0625789 -0.0625797 -0.113321 -0.00000603739 -0.113321 C 0.0625895 -0.113321 0.11331 -0.0625789 0.11331 -0.00000519707 Z M 0.11331 -0.00000519707 " transform="matrix(178.289849,0,0,178.289849,275.962014,119.332958)"/>
</g>
</svg>
