<?xml version="1.0" encoding="UTF-8"?>
<svg xmlns="http://www.w3.org/2000/svg" xmlns:xlink="http://www.w3.org/1999/xlink" width="600pt" height="600pt" viewBox="0 0 600 600" version="1.1">
<defs>
<clipPath id="clip1">
  <path d="M 399 349 L 554 349 L 554 514 L 399 514 Z M 399 349 "/>
</clipPath>
<clipPath id="clip2">
  <path d="M 317.898438 290.917969 L 635.855469 290.917969 L 635.855469 572.898438 L 317.898438 572.898438 Z M 317.898438 290.917969 L 519.609375 461.074219 C 519.609375 471.40625 511.234375 479.777344 500.902344 479.777344 C 490.574219 479.777344 482.199219 471.40625 482.199219 461.074219 C 482.199219 450.746094 490.574219 442.371094 500.902344 442.371094 C 511.234375 442.371094 519.609375 450.746094 519.609375 461.074219 Z M 317.898438 290.917969 "/>
</clipPath>
<clipPath id="clip3">
  <path d="M 317.898438 290.917969 L 635.855469 290.917969 L 635.855469 572.898438 L 317.898438 572.898438 Z M 317.898438 290.917969 L 471.558594 402.746094 C 471.558594 413.078125 463.183594 421.453125 452.855469 421.453125 C 442.523438 421.453125 434.152344 413.078125 434.152344 402.746094 C 434.152344 392.417969 442.523438 384.042969 452.855469 384.042969 C 463.183594 384.042969 471.558594 392.417969 471.558594 402.746094 Z M 317.898438 290.917969 "/>
</clipPath>
<clipPath id="clip4">
  <path d="M 184 404 L 328 404 L 328 599 L 184 599 Z M 184 404 "/>
</clipPath>
<clipPath id="clip5">
  <path d="M 77.363281 386.566406 L 434.730469 386.566406 L 434.730469 616.335938 L 77.363281 616.335938 Z M 77.363281 386.566406 L 293.640625 545.167969 C 293.640625 555.496094 285.269531 563.871094 274.9375 563.871094 C 264.605469 563.871094 256.234375 555.496094 256.234375 545.167969 C 256.234375 534.835938 264.605469 526.460938 274.9375 526.460938 C 285.269531 526.460938 293.640625 534.835938 293.640625 545.167969 Z M 77.363281 386.566406 "/>
</clipPath>
<clipPath id="clip6">
  <path d="M 77.363281 386.566406 L 434.730469 386.566406 L 434.730469 616.335938 L 77.363281 616.335938 Z M 77.363281 386.566406 L 255.863281 457.738281 C 255.863281 468.066406 247.488281 476.441406 237.160156 476.441406 C 226.828125 476.441406 218.457031 468.066406 218.457031 457.738281 C 218.457031 447.40625 226.828125 439.03125 237.160156 439.03125 C 247.488281 439.03125 255.863281 447.40625 255.863281 457.738281 Z M 77.363281 386.566406 "/>
</clipPath>
<clipPath id="clip7">
  <path d="M 312 349 L 506 349 L 506 512 L 312 512 Z M 312 349 "/>
</clipPath>
<clipPath id="clip8">
  <path d="M 269.875 256.160156 L 548.761719 256.160156 L 548.761719 605.507812 L 269.875 605.507812 Z M 269.875 256.160156 L 471.558594 402.746094 C 471.558594 413.078125 463.183594 421.453125 452.855469 421.453125 C 442.523438 421.453125 434.152344 413.078125 434.152344 402.746094 C 434.152344 392.417969 442.523438 384.042969 452.855469 384.042969 C 463.183594 384.042969 471.558594 392.417969 471.558594 402.746094 Z M 269.875 256.160156 "/>
</clipPath>
<clipPath id="clip9">
  <path d="M 269.875 256.160156 L 548.761719 256.160156 L 548.761719 605.507812 L 269.875 605.507812 Z M 269.875 256.160156 L 384.488281 458.925781 C 384.488281 469.257812 376.113281 477.628906 365.785156 477.628906 C 355.453125 477.628906 347.082031 469.257812 347.082031 458.925781 C 347.082031 448.597656 355.453125 440.222656 365.785156 440.222656 C 376.113281 440.222656 384.488281 448.597656 384.488281 458.925781 Z M 269.875 256.160156 "/>
</clipPath>
<clipPath id="clip10">
  <path d="M 399 245.671875 L 506 245.671875 L 506 406.996094 L 399 406.996094 Z M 399 245.671875 "/>
</clipPath>
<clipPath id="clip11">
  <path d="M 278.65625 245.671875 L 626.589844 245.671875 L 626.589844 406.996094 L 278.65625 406.996094 Z M 278.65625 245.671875 L 471.558594 402.746094 C 471.558594 413.078125 463.183594 421.453125 452.855469 421.453125 C 442.523438 421.453125 434.152344 413.078125 434.152344 402.746094 C 434.152344 392.417969 442.523438 384.042969 452.855469 384.042969 C 463.183594 384.042969 471.558594 392.417969 471.558594 402.746094 Z M 278.65625 245.671875 "/>
</clipPath>
<clipPath id="clip12">
  <path d="M 278.65625 245.671875 L 626.589844 245.671875 L 626.589844 406.996094 L 278.65625 406.996094 Z M 278.65625 245.671875 L 471.097656 249.925781 C 471.097656 260.253906 462.726562 268.628906 452.394531 268.628906 C 442.066406 268.628906 433.691406 260.253906 433.691406 249.925781 C 433.691406 239.59375 442.066406 231.21875 452.394531 231.21875 C 462.726562 231.21875 471.097656 239.59375 471.097656 249.925781 Z M 278.65625 245.671875 "/>
</clipPath>
<clipPath id="clip13">
  <path d="M 231.847656 404 L 371.09375 404 L 371.09375 512 L 231.847656 512 Z M 231.847656 404 "/>
</clipPath>
<clipPath id="clip14">
  <path d="M 231.847656 284.003906 L 371.09375 284.003906 L 371.09375 632.65625 L 231.847656 632.65625 Z M 231.847656 284.003906 L 384.488281 458.925781 C 384.488281 469.257812 376.113281 477.628906 365.785156 477.628906 C 355.453125 477.628906 347.082031 469.257812 347.082031 458.925781 C 347.082031 448.597656 355.453125 440.222656 365.785156 440.222656 C 376.113281 440.222656 384.488281 448.597656 384.488281 458.925781 Z M 231.847656 284.003906 "/>
</clipPath>
<clipPath id="clip15">
  <path d="M 231.847656 284.003906 L 371.09375 284.003906 L 371.09375 632.65625 L 231.847656 632.65625 Z M 231.847656 284.003906 L 255.863281 457.738281 C 255.863281 468.066406 247.488281 476.441406 237.160156 476.441406 C 226.828125 476.441406 218.457031 468.066406 218.457031 457.738281 C 218.457031 447.40625 226.828125 439.03125 237.160156 439.03125 C 247.488281 439.03125 255.863281 447.40625 255.863281 457.738281 Z M 231.847656 284.003906 "/>
</clipPath>
<clipPath id="clip16">
  <path d="M 131.492188 404 L 288.824219 404 L 288.824219 527 L 131.492188 527 Z M 131.492188 404 "/>
</clipPath>
<clipPath id="clip17">
  <path d="M 131.492188 290.894531 L 288.824219 290.894531 L 288.824219 640.445312 L 131.492188 640.445312 Z M 131.492188 290.894531 L 255.863281 457.738281 C 255.863281 468.066406 247.488281 476.441406 237.160156 476.441406 C 226.828125 476.441406 218.457031 468.066406 218.457031 457.738281 C 218.457031 447.40625 226.828125 439.03125 237.160156 439.03125 C 247.488281 439.03125 255.863281 447.40625 255.863281 457.738281 Z M 131.492188 290.894531 "/>
</clipPath>
<clipPath id="clip18">
  <path d="M 131.492188 290.894531 L 288.824219 290.894531 L 288.824219 640.445312 L 131.492188 640.445312 Z M 131.492188 290.894531 L 201.867188 473.605469 C 201.867188 483.933594 193.492188 492.308594 183.160156 492.308594 C 172.832031 492.308594 164.457031 483.933594 164.457031 473.605469 C 164.457031 463.273438 172.832031 454.902344 183.160156 454.902344 C 193.492188 454.902344 201.867188 463.273438 201.867188 473.605469 Z M 131.492188 290.894531 "/>
</clipPath>
<clipPath id="clip19">
  <path d="M 114 308 L 291 308 L 291 511 L 114 511 Z M 114 308 "/>
</clipPath>
<clipPath id="clip20">
  <path d="M 26.175781 258.375 L 378.769531 258.375 L 378.769531 560.925781 L 26.175781 560.925781 Z M 26.175781 258.375 L 255.863281 457.738281 C 255.863281 468.066406 247.488281 476.441406 237.160156 476.441406 C 226.828125 476.441406 218.457031 468.066406 218.457031 457.738281 C 218.457031 447.40625 226.828125 439.03125 237.160156 439.03125 C 247.488281 439.03125 255.863281 447.40625 255.863281 457.738281 Z M 26.175781 258.375 "/>
</clipPath>
<clipPath id="clip21">
  <path d="M 26.175781 258.375 L 378.769531 258.375 L 378.769531 560.925781 L 26.175781 560.925781 Z M 26.175781 258.375 L 186.492188 361.566406 C 186.492188 371.898438 178.117188 380.269531 167.789062 380.269531 C 157.457031 380.269531 149.082031 371.898438 149.082031 361.566406 C 149.082031 351.238281 157.457031 342.863281 167.789062 342.863281 C 178.117188 342.863281 186.492188 351.238281 186.492188 361.566406 Z M 26.175781 258.375 "/>
</clipPath>
<clipPath id="clip22">
  <path d="M 94 350 L 291 350 L 291 511 L 94 511 Z M 94 350 "/>
</clipPath>
<clipPath id="clip23">
  <path d="M 55.941406 254.296875 L 328.585938 254.296875 L 328.585938 607.113281 L 55.941406 607.113281 Z M 55.941406 254.296875 L 255.863281 457.738281 C 255.863281 468.066406 247.488281 476.441406 237.160156 476.441406 C 226.828125 476.441406 218.457031 468.066406 218.457031 457.738281 C 218.457031 447.40625 226.828125 439.03125 237.160156 439.03125 C 247.488281 439.03125 255.863281 447.40625 255.863281 457.738281 Z M 55.941406 254.296875 "/>
</clipPath>
<clipPath id="clip24">
  <path d="M 55.941406 254.296875 L 328.585938 254.296875 L 328.585938 607.113281 L 55.941406 607.113281 Z M 55.941406 254.296875 L 166.074219 403.675781 C 166.074219 414.003906 157.699219 422.378906 147.371094 422.378906 C 137.039062 422.378906 128.664062 414.003906 128.664062 403.675781 C 128.664062 393.34375 137.039062 384.96875 147.371094 384.96875 C 157.699219 384.96875 166.074219 393.34375 166.074219 403.675781 Z M 55.941406 254.296875 "/>
</clipPath>
<clipPath id="clip25">
  <path d="M 94 350 L 237 350 L 237 527 L 94 527 Z M 94 350 "/>
</clipPath>
<clipPath id="clip26">
  <path d="M -7.703125 322.484375 L 338.230469 322.484375 L 338.230469 554.792969 L -7.703125 554.792969 Z M -7.703125 322.484375 L 201.867188 473.605469 C 201.867188 483.933594 193.492188 492.308594 183.160156 492.308594 C 172.832031 492.308594 164.457031 483.933594 164.457031 473.605469 C 164.457031 463.273438 172.832031 454.902344 183.160156 454.902344 C 193.492188 454.902344 201.867188 463.273438 201.867188 473.605469 Z M -7.703125 322.484375 "/>
</clipPath>
<clipPath id="clip27">
  <path d="M -7.703125 322.484375 L 338.230469 322.484375 L 338.230469 554.792969 L -7.703125 554.792969 Z M -7.703125 322.484375 L 166.074219 403.675781 C 166.074219 414.003906 157.699219 422.378906 147.371094 422.378906 C 137.039062 422.378906 128.664062 414.003906 128.664062 403.675781 C 128.664062 393.34375 137.039062 384.96875 147.371094 384.96875 C 157.699219 384.96875 166.074219 393.34375 166.074219 403.675781 Z M -7.703125 322.484375 "/>
</clipPath>
<clipPath id="clip28">
  <path d="M 60 207 L 221 207 L 221 415 L 60 415 Z M 60 207 "/>
</clipPath>
<clipPath id="clip29">
  <path d="M -39.773438 176.789062 L 321.359375 176.789062 L 321.359375 445.617188 L -39.773438 445.617188 Z M -39.773438 176.789062 L 132.507812 260.84375 C 132.507812 271.175781 124.132812 279.550781 113.800781 279.550781 C 103.472656 279.550781 95.097656 271.175781 95.097656 260.84375 C 95.097656 250.515625 103.472656 242.140625 113.800781 242.140625 C 124.132812 242.140625 132.507812 250.515625 132.507812 260.84375 Z M -39.773438 176.789062 "/>
</clipPath>
<clipPath id="clip30">
  <path d="M -39.773438 176.789062 L 321.359375 176.789062 L 321.359375 445.617188 L -39.773438 445.617188 Z M -39.773438 176.789062 L 186.492188 361.566406 C 186.492188 371.898438 178.117188 380.269531 167.789062 380.269531 C 157.457031 380.269531 149.082031 371.898438 149.082031 361.566406 C 149.082031 351.238281 157.457031 342.863281 167.789062 342.863281 C 178.117188 342.863281 186.492188 351.238281 186.492188 361.566406 Z M -39.773438 176.789062 "/>
</clipPath>
<clipPath id="clip31">
  <path d="M 60 218.207031 L 201 218.207031 L 201 446.308594 L 60 446.308594 Z M 60 218.207031 "/>
</clipPath>
<clipPath id="clip32">
  <path d="M -55.429688 218.207031 L 316.597656 218.207031 L 316.597656 446.308594 L -55.429688 446.308594 Z M -55.429688 218.207031 L 132.507812 260.84375 C 132.507812 271.175781 124.132812 279.550781 113.800781 279.550781 C 103.472656 279.550781 95.097656 271.175781 95.097656 260.84375 C 95.097656 250.515625 103.472656 242.140625 113.800781 242.140625 C 124.132812 242.140625 132.507812 250.515625 132.507812 260.84375 Z M -55.429688 218.207031 "/>
</clipPath>
<clipPath id="clip33">
  <path d="M -55.429688 218.207031 L 316.597656 218.207031 L 316.597656 446.308594 L -55.429688 446.308594 Z M -55.429688 218.207031 L 166.074219 403.675781 C 166.074219 414.003906 157.699219 422.378906 147.371094 422.378906 C 137.039062 422.378906 128.664062 414.003906 128.664062 403.675781 C 128.664062 393.34375 137.039062 384.96875 147.371094 384.96875 C 157.699219 384.96875 166.074219 393.34375 166.074219 403.675781 Z M -55.429688 218.207031 "/>
</clipPath>
<clipPath id="clip34">
  <path d="M 60 90.859375 L 192 90.859375 L 192 295.074219 L 60 295.074219 Z M 60 90.859375 "/>
</clipPath>
<clipPath id="clip35">
  <path d="M -57.183594 90.859375 L 309.53125 90.859375 L 309.53125 295.074219 L -57.183594 295.074219 Z M -57.183594 90.859375 L 132.507812 260.84375 C 132.507812 271.175781 124.132812 279.550781 113.800781 279.550781 C 103.472656 279.550781 95.097656 271.175781 95.097656 260.84375 C 95.097656 250.515625 103.472656 242.140625 113.800781 242.140625 C 124.132812 242.140625 132.507812 250.515625 132.507812 260.84375 Z M -57.183594 90.859375 "/>
</clipPath>
<clipPath id="clip36">
  <path d="M -57.183594 90.859375 L 309.53125 90.859375 L 309.53125 295.074219 L -57.183594 295.074219 Z M -57.183594 90.859375 L 157.257812 125.09375 C 157.257812 135.425781 148.882812 143.800781 138.550781 143.800781 C 128.222656 143.800781 119.847656 135.425781 119.847656 125.09375 C 119.847656 114.765625 128.222656 106.390625 138.550781 106.390625 C 148.882812 106.390625 157.257812 114.765625 157.257812 125.09375 Z M -57.183594 90.859375 "/>
</clipPath>
<clipPath id="clip37">
  <path d="M 30 140 L 167 140 L 167 314 L 30 314 Z M 30 140 "/>
</clipPath>
<clipPath id="clip38">
  <path d="M -75.46875 119.769531 L 272.679688 119.769531 L 272.679688 334.082031 L -75.46875 334.082031 Z M -75.46875 119.769531 L 132.507812 260.84375 C 132.507812 271.175781 124.132812 279.550781 113.800781 279.550781 C 103.472656 279.550781 95.097656 271.175781 95.097656 260.84375 C 95.097656 250.515625 103.472656 242.140625 113.800781 242.140625 C 124.132812 242.140625 132.507812 250.515625 132.507812 260.84375 Z M -75.46875 119.769531 "/>
</clipPath>
<clipPath id="clip39">
  <path d="M -75.46875 119.769531 L 272.679688 119.769531 L 272.679688 334.082031 L -75.46875 334.082031 Z M -75.46875 119.769531 L 102.117188 193.011719 C 102.117188 203.339844 93.742188 211.714844 83.414062 211.714844 C 73.082031 211.714844 64.710938 203.339844 64.710938 193.011719 C 64.710938 182.679688 73.082031 174.304688 83.414062 174.304688 C 93.742188 174.304688 102.117188 182.679688 102.117188 193.011719 Z M -75.46875 119.769531 "/>
</clipPath>
<clipPath id="clip40">
  <path d="M 1.738281 192 L 151.933594 192 L 151.933594 314 L 1.738281 314 Z M 1.738281 192 "/>
</clipPath>
<clipPath id="clip41">
  <path d="M 1.738281 75.347656 L 151.933594 75.347656 L 151.933594 431.0625 L 1.738281 431.0625 Z M 1.738281 75.347656 L 132.507812 260.84375 C 132.507812 271.175781 124.132812 279.550781 113.800781 279.550781 C 103.472656 279.550781 95.097656 271.175781 95.097656 260.84375 C 95.097656 250.515625 103.472656 242.140625 113.800781 242.140625 C 124.132812 242.140625 132.507812 250.515625 132.507812 260.84375 Z M 1.738281 75.347656 "/>
</clipPath>
<clipPath id="clip42">
  <path d="M 1.738281 75.347656 L 151.933594 75.347656 L 151.933594 431.0625 L 1.738281 431.0625 Z M 1.738281 75.347656 L 58.582031 245.570312 C 58.582031 255.902344 50.207031 264.277344 39.875 264.277344 C 29.546875 264.277344 21.171875 255.902344 21.171875 245.570312 C 21.171875 235.242188 29.546875 226.867188 39.875 226.867188 C 50.207031 226.867188 58.582031 235.242188 58.582031 245.570312 Z M 1.738281 75.347656 "/>
</clipPath>
<clipPath id="clip43">
  <path d="M 94 308 L 221 308 L 221 457 L 94 457 Z M 94 308 "/>
</clipPath>
<clipPath id="clip44">
  <path d="M -9.335938 283.65625 L 324.492188 283.65625 L 324.492188 481.582031 L -9.335938 481.582031 Z M -9.335938 283.65625 L 186.492188 361.566406 C 186.492188 371.898438 178.117188 380.269531 167.789062 380.269531 C 157.457031 380.269531 149.082031 371.898438 149.082031 361.566406 C 149.082031 351.238281 157.457031 342.863281 167.789062 342.863281 C 178.117188 342.863281 186.492188 351.238281 186.492188 361.566406 Z M -9.335938 283.65625 "/>
</clipPath>
<clipPath id="clip45">
  <path d="M -9.335938 283.65625 L 324.492188 283.65625 L 324.492188 481.582031 L -9.335938 481.582031 Z M -9.335938 283.65625 L 166.074219 403.675781 C 166.074219 414.003906 157.699219 422.378906 147.371094 422.378906 C 137.039062 422.378906 128.664062 414.003906 128.664062 403.675781 C 128.664062 393.34375 137.039062 384.96875 147.371094 384.96875 C 157.699219 384.96875 166.074219 393.34375 166.074219 403.675781 Z M -9.335938 283.65625 "/>
</clipPath>
<clipPath id="clip46">
  <path d="M 22 350 L 201 350 L 201 496 L 22 496 Z M 22 350 "/>
</clipPath>
<clipPath id="clip47">
  <path d="M -9.585938 250.347656 L 231.878906 250.347656 L 231.878906 596.117188 L -9.585938 596.117188 Z M -9.585938 250.347656 L 93.628906 442.792969 C 93.628906 453.125 85.253906 461.496094 74.925781 461.496094 C 64.59375 461.496094 56.222656 453.125 56.222656 442.792969 C 56.222656 432.464844 64.59375 424.089844 74.925781 424.089844 C 85.253906 424.089844 93.628906 432.464844 93.628906 442.792969 Z M -9.585938 250.347656 "/>
</clipPath>
<clipPath id="clip48">
  <path d="M -9.585938 250.347656 L 231.878906 250.347656 L 231.878906 596.117188 L -9.585938 596.117188 Z M -9.585938 250.347656 L 166.074219 403.675781 C 166.074219 414.003906 157.699219 422.378906 147.371094 422.378906 C 137.039062 422.378906 128.664062 414.003906 128.664062 403.675781 C 128.664062 393.34375 137.039062 384.96875 147.371094 384.96875 C 157.699219 384.96875 166.074219 393.34375 166.074219 403.675781 Z M -9.585938 250.347656 "/>
</clipPath>
<clipPath id="clip49">
  <path d="M 85 10.273438 L 209 10.273438 L 209 169.648438 L 85 169.648438 Z M 85 10.273438 "/>
</clipPath>
<clipPath id="clip50">
  <path d="M -30.214844 10.273438 L 324.691406 10.273438 L 324.691406 169.648438 L -30.214844 169.648438 Z M -30.214844 10.273438 L 174.636719 54.832031 C 174.636719 65.164062 166.261719 73.539062 155.929688 73.539062 C 145.601562 73.539062 137.226562 65.164062 137.226562 54.832031 C 137.226562 44.503906 145.601562 36.128906 155.929688 36.128906 C 166.261719 36.128906 174.636719 44.503906 174.636719 54.832031 Z M -30.214844 10.273438 "/>
</clipPath>
<clipPath id="clip51">
  <path d="M -30.214844 10.273438 L 324.691406 10.273438 L 324.691406 169.648438 L -30.214844 169.648438 Z M -30.214844 10.273438 L 157.257812 125.09375 C 157.257812 135.425781 148.882812 143.800781 138.550781 143.800781 C 128.222656 143.800781 119.847656 135.425781 119.847656 125.09375 C 119.847656 114.765625 128.222656 106.390625 138.550781 106.390625 C 148.882812 106.390625 157.257812 114.765625 157.257812 125.09375 Z M -30.214844 10.273438 "/>
</clipPath>
<clipPath id="clip52">
  <path d="M 414 94 L 583 94 L 583 232 L 414 232 Z M 414 94 "/>
</clipPath>
<clipPath id="clip53">
  <path d="M 387.050781 -8.03125 L 610.636719 -8.03125 L 610.636719 334.328125 L 387.050781 334.328125 Z M 387.050781 -8.03125 L 548.742188 147.339844 C 548.742188 157.667969 540.367188 166.042969 530.035156 166.042969 C 519.707031 166.042969 511.332031 157.667969 511.332031 147.339844 C 511.332031 137.007812 519.707031 128.632812 530.035156 128.632812 C 540.367188 128.632812 548.742188 137.007812 548.742188 147.339844 Z M 387.050781 -8.03125 "/>
</clipPath>
<clipPath id="clip54">
  <path d="M 387.050781 -8.03125 L 610.636719 -8.03125 L 610.636719 334.328125 L 387.050781 334.328125 Z M 387.050781 -8.03125 L 486.363281 178.960938 C 486.363281 189.289062 477.988281 197.664062 467.65625 197.664062 C 457.328125 197.664062 448.953125 189.289062 448.953125 178.960938 C 448.953125 168.628906 457.328125 160.253906 467.65625 160.253906 C 477.988281 160.253906 486.363281 168.628906 486.363281 178.960938 Z M 387.050781 -8.03125 "/>
</clipPath>
<clipPath id="clip55">
  <path d="M 477 94 L 600 94 L 600 247 L 477 247 Z M 477 94 "/>
</clipPath>
<clipPath id="clip56">
  <path d="M 383.753906 50.957031 L 706.402344 50.957031 L 706.402344 290.015625 L 383.753906 290.015625 Z M 383.753906 50.957031 L 548.742188 147.339844 C 548.742188 157.667969 540.367188 166.042969 530.035156 166.042969 C 519.707031 166.042969 511.332031 157.667969 511.332031 147.339844 C 511.332031 137.007812 519.707031 128.632812 530.035156 128.632812 C 540.367188 128.632812 548.742188 137.007812 548.742188 147.339844 Z M 383.753906 50.957031 "/>
</clipPath>
<clipPath id="clip57">
  <path d="M 383.753906 50.957031 L 706.402344 50.957031 L 706.402344 290.015625 L 383.753906 290.015625 Z M 383.753906 50.957031 L 578.828125 193.636719 C 578.828125 203.96875 570.453125 212.339844 560.125 212.339844 C 549.792969 212.339844 541.417969 203.96875 541.417969 193.636719 C 541.417969 183.304688 549.792969 174.933594 560.125 174.933594 C 570.453125 174.933594 578.828125 183.304688 578.828125 193.636719 Z M 383.753906 50.957031 "/>
</clipPath>
<clipPath id="clip58">
  <path d="M 414 126 L 561 126 L 561 278 L 414 278 Z M 414 126 "/>
</clipPath>
<clipPath id="clip59">
  <path d="M 336.132812 63.097656 L 639.277344 63.097656 L 639.277344 340.523438 L 336.132812 340.523438 Z M 336.132812 63.097656 L 486.363281 178.960938 C 486.363281 189.289062 477.988281 197.664062 467.65625 197.664062 C 457.328125 197.664062 448.953125 189.289062 448.953125 178.960938 C 448.953125 168.628906 457.328125 160.253906 467.65625 160.253906 C 477.988281 160.253906 486.363281 168.628906 486.363281 178.960938 Z M 336.132812 63.097656 "/>
</clipPath>
<clipPath id="clip60">
  <path d="M 336.132812 63.097656 L 639.277344 63.097656 L 639.277344 340.523438 L 336.132812 340.523438 Z M 336.132812 63.097656 L 526.460938 224.664062 C 526.460938 234.992188 518.085938 243.367188 507.757812 243.367188 C 497.425781 243.367188 489.054688 234.992188 489.054688 224.664062 C 489.054688 214.332031 497.425781 205.957031 507.757812 205.957031 C 518.085938 205.957031 526.460938 214.332031 526.460938 224.664062 Z M 336.132812 63.097656 "/>
</clipPath>
<clipPath id="clip61">
  <path d="M 354 84 L 521 84 L 521 232 L 354 232 Z M 354 84 "/>
</clipPath>
<clipPath id="clip62">
  <path d="M 306.652344 -6.164062 L 568.519531 -6.164062 L 568.519531 322.21875 L 306.652344 322.21875 Z M 306.652344 -6.164062 L 486.363281 178.960938 C 486.363281 189.289062 477.988281 197.664062 467.65625 197.664062 C 457.328125 197.664062 448.953125 189.289062 448.953125 178.960938 C 448.953125 168.628906 457.328125 160.253906 467.65625 160.253906 C 477.988281 160.253906 486.363281 168.628906 486.363281 178.960938 Z M 306.652344 -6.164062 "/>
</clipPath>
<clipPath id="clip63">
  <path d="M 306.652344 -6.164062 L 568.519531 -6.164062 L 568.519531 322.21875 L 306.652344 322.21875 Z M 306.652344 -6.164062 L 426.222656 137.097656 C 426.222656 147.425781 417.851562 155.800781 407.519531 155.800781 C 397.191406 155.800781 388.816406 147.425781 388.816406 137.097656 C 388.816406 126.765625 397.191406 118.390625 407.519531 118.390625 C 417.851562 118.390625 426.222656 126.765625 426.222656 137.097656 Z M 306.652344 -6.164062 "/>
</clipPath>
<clipPath id="clip64">
  <path d="M 399 139.476562 L 521 139.476562 L 521 289.40625 L 399 289.40625 Z M 399 139.476562 "/>
</clipPath>
<clipPath id="clip65">
  <path d="M 282.453125 139.476562 L 637.59375 139.476562 L 637.59375 289.40625 L 282.453125 289.40625 Z M 282.453125 139.476562 L 486.363281 178.960938 C 486.363281 189.289062 477.988281 197.664062 467.65625 197.664062 C 457.328125 197.664062 448.953125 189.289062 448.953125 178.960938 C 448.953125 168.628906 457.328125 160.253906 467.65625 160.253906 C 477.988281 160.253906 486.363281 168.628906 486.363281 178.960938 Z M 282.453125 139.476562 "/>
</clipPath>
<clipPath id="clip66">
  <path d="M 282.453125 139.476562 L 637.59375 139.476562 L 637.59375 289.40625 L 282.453125 289.40625 Z M 282.453125 139.476562 L 471.097656 249.925781 C 471.097656 260.253906 462.726562 268.628906 452.394531 268.628906 C 442.066406 268.628906 433.691406 260.253906 433.691406 249.925781 C 433.691406 239.59375 442.066406 231.21875 452.394531 231.21875 C 462.726562 231.21875 471.097656 239.59375 471.097656 249.925781 Z M 282.453125 139.476562 "/>
</clipPath>
<clipPath id="clip67">
  <path d="M 454 140 L 600 140 L 600 278 L 454 278 Z M 454 140 "/>
</clipPath>
<clipPath id="clip68">
  <path d="M 417.359375 43.640625 L 650.519531 43.640625 L 650.519531 374.65625 L 417.359375 374.65625 Z M 417.359375 43.640625 L 578.828125 193.636719 C 578.828125 203.96875 570.453125 212.339844 560.125 212.339844 C 549.792969 212.339844 541.417969 203.96875 541.417969 193.636719 C 541.417969 183.304688 549.792969 174.933594 560.125 174.933594 C 570.453125 174.933594 578.828125 183.304688 578.828125 193.636719 Z M 417.359375 43.640625 "/>
</clipPath>
<clipPath id="clip69">
  <path d="M 417.359375 43.640625 L 650.519531 43.640625 L 650.519531 374.65625 L 417.359375 374.65625 Z M 417.359375 43.640625 L 526.460938 224.664062 C 526.460938 234.992188 518.085938 243.367188 507.757812 243.367188 C 497.425781 243.367188 489.054688 234.992188 489.054688 224.664062 C 489.054688 214.332031 497.425781 205.957031 507.757812 205.957031 C 518.085938 205.957031 526.460938 214.332031 526.460938 224.664062 Z M 417.359375 43.640625 "/>
</clipPath>
<clipPath id="clip70">
  <path d="M 399 171 L 561 171 L 561 303 L 399 303 Z M 399 171 "/>
</clipPath>
<clipPath id="clip71">
  <path d="M 378.082031 66.261719 L 582.066406 66.261719 L 582.066406 408.324219 L 378.082031 408.324219 Z M 378.082031 66.261719 L 526.460938 224.664062 C 526.460938 234.992188 518.085938 243.367188 507.757812 243.367188 C 497.425781 243.367188 489.054688 234.992188 489.054688 224.664062 C 489.054688 214.332031 497.425781 205.957031 507.757812 205.957031 C 518.085938 205.957031 526.460938 214.332031 526.460938 224.664062 Z M 378.082031 66.261719 "/>
</clipPath>
<clipPath id="clip72">
  <path d="M 378.082031 66.261719 L 582.066406 66.261719 L 582.066406 408.324219 L 378.082031 408.324219 Z M 378.082031 66.261719 L 471.097656 249.925781 C 471.097656 260.253906 462.726562 268.628906 452.394531 268.628906 C 442.066406 268.628906 433.691406 260.253906 433.691406 249.925781 C 433.691406 239.59375 442.066406 231.21875 452.394531 231.21875 C 462.726562 231.21875 471.097656 239.59375 471.097656 249.925781 Z M 378.082031 66.261719 "/>
</clipPath>
<clipPath id="clip73">
  <path d="M 309 2 L 461 2 L 461 190 L 309 190 Z M 309 2 "/>
</clipPath>
<clipPath id="clip74">
  <path d="M 209.757812 -30.09375 L 560.539062 -30.09375 L 560.539062 222.164062 L 209.757812 222.164062 Z M 209.757812 -30.09375 L 381.484375 54.976562 C 381.484375 65.304688 373.109375 73.679688 362.78125 73.679688 C 352.449219 73.679688 344.074219 65.304688 344.074219 54.976562 C 344.074219 44.644531 352.449219 36.269531 362.78125 36.269531 C 373.109375 36.269531 381.484375 44.644531 381.484375 54.976562 Z M 209.757812 -30.09375 "/>
</clipPath>
<clipPath id="clip75">
  <path d="M 209.757812 -30.09375 L 560.539062 -30.09375 L 560.539062 222.164062 L 209.757812 222.164062 Z M 209.757812 -30.09375 L 426.222656 137.097656 C 426.222656 147.425781 417.851562 155.800781 407.519531 155.800781 C 397.191406 155.800781 388.816406 147.425781 388.816406 137.097656 C 388.816406 126.765625 397.191406 118.390625 407.519531 118.390625 C 417.851562 118.390625 426.222656 126.765625 426.222656 137.097656 Z M 209.757812 -30.09375 "/>
</clipPath>
<clipPath id="clip76">
  <path d="M 354 84 L 506 84 L 506 303 L 354 303 Z M 354 84 "/>
</clipPath>
<clipPath id="clip77">
  <path d="M 245.816406 70.527344 L 614.09375 70.527344 L 614.09375 316.492188 L 245.816406 316.492188 Z M 245.816406 70.527344 L 426.222656 137.097656 C 426.222656 147.425781 417.851562 155.800781 407.519531 155.800781 C 397.191406 155.800781 388.816406 147.425781 388.816406 137.097656 C 388.816406 126.765625 397.191406 118.390625 407.519531 118.390625 C 417.851562 118.390625 426.222656 126.765625 426.222656 137.097656 Z M 245.816406 70.527344 "/>
</clipPath>
<clipPath id="clip78">
  <path d="M 245.816406 70.527344 L 614.09375 70.527344 L 614.09375 316.492188 L 245.816406 316.492188 Z M 245.816406 70.527344 L 471.097656 249.925781 C 471.097656 260.253906 462.726562 268.628906 452.394531 268.628906 C 442.066406 268.628906 433.691406 260.253906 433.691406 249.925781 C 433.691406 239.59375 442.066406 231.21875 452.394531 231.21875 C 462.726562 231.21875 471.097656 239.59375 471.097656 249.925781 Z M 245.816406 70.527344 "/>
</clipPath>
</defs>
<g id="surface21">
<g clip-path="url(#clip1)" clip-rule="nonzero">
<g clip-path="url(#clip2)" clip-rule="evenodd">
<g clip-path="url(#clip3)" clip-rule="evenodd">
<path style="fill:none;stroke-width:0.0220055;stroke-linecap:butt;stroke-linejoin:miter;stroke:rgb(17.96875%,20.3125%,21.09375%);stroke-opacity:0.8;stroke-miterlimit:10;" d="M 3.754279 3.238264 L 3.471647 2.895153 " transform="matrix(169.997721,0,0,169.997721,-137.316532,-89.423359)"/>
</g>
</g>
</g>
<g clip-path="url(#clip4)" clip-rule="nonzero">
<g clip-path="url(#clip5)" clip-rule="evenodd">
<g clip-path="url(#clip6)" clip-rule="evenodd">
<path style="fill:none;stroke-width:0.0220055;stroke-linecap:butt;stroke-linejoin:miter;stroke:rgb(17.96875%,20.3125%,21.09375%);stroke-opacity:0.8;stroke-miterlimit:10;" d="M 2.425056 3.73294 L 2.202834 3.218641 " transform="matrix(169.997721,0,0,169.997721,-137.316532,-89.423359)"/>
</g>
</g>
</g>
<g clip-path="url(#clip7)" clip-rule="nonzero">
<g clip-path="url(#clip8)" clip-rule="evenodd">
<g clip-path="url(#clip9)" clip-rule="evenodd">
<path style="fill:none;stroke-width:0.0220055;stroke-linecap:butt;stroke-linejoin:miter;stroke:rgb(17.96875%,20.3125%,21.09375%);stroke-opacity:0.8;stroke-miterlimit:10;" d="M 3.471647 2.895153 L 2.959461 3.225626 " transform="matrix(169.997721,0,0,169.997721,-137.316532,-89.423359)"/>
</g>
</g>
</g>
<g clip-path="url(#clip10)" clip-rule="nonzero">
<g clip-path="url(#clip11)" clip-rule="evenodd">
<g clip-path="url(#clip12)" clip-rule="evenodd">
<path style="fill:none;stroke-width:0.0220055;stroke-linecap:butt;stroke-linejoin:miter;stroke:rgb(17.96875%,20.3125%,21.09375%);stroke-opacity:0.8;stroke-miterlimit:10;" d="M 3.471647 2.895153 L 3.468935 1.996198 " transform="matrix(169.997721,0,0,169.997721,-137.316532,-89.423359)"/>
</g>
</g>
</g>
<g clip-path="url(#clip13)" clip-rule="nonzero">
<g clip-path="url(#clip14)" clip-rule="evenodd">
<g clip-path="url(#clip15)" clip-rule="evenodd">
<path style="fill:none;stroke-width:0.0220055;stroke-linecap:butt;stroke-linejoin:miter;stroke:rgb(17.96875%,20.3125%,21.09375%);stroke-opacity:0.8;stroke-miterlimit:10;" d="M 2.959461 3.225626 L 2.202834 3.218641 " transform="matrix(169.997721,0,0,169.997721,-137.316532,-89.423359)"/>
</g>
</g>
</g>
<g clip-path="url(#clip16)" clip-rule="nonzero">
<g clip-path="url(#clip17)" clip-rule="evenodd">
<g clip-path="url(#clip18)" clip-rule="evenodd">
<path style="fill:none;stroke-width:0.0220055;stroke-linecap:butt;stroke-linejoin:miter;stroke:rgb(17.96875%,20.3125%,21.09375%);stroke-opacity:0.8;stroke-miterlimit:10;" d="M 2.202834 3.218641 L 1.885182 3.311979 " transform="matrix(169.997721,0,0,169.997721,-137.316532,-89.423359)"/>
</g>
</g>
</g>
<g clip-path="url(#clip19)" clip-rule="nonzero">
<g clip-path="url(#clip20)" clip-rule="evenodd">
<g clip-path="url(#clip21)" clip-rule="evenodd">
<path style="fill:none;stroke-width:0.0220055;stroke-linecap:butt;stroke-linejoin:miter;stroke:rgb(17.96875%,20.3125%,21.09375%);stroke-opacity:0.8;stroke-miterlimit:10;" d="M 2.202834 3.218641 L 1.794763 2.652917 " transform="matrix(169.997721,0,0,169.997721,-137.316532,-89.423359)"/>
</g>
</g>
</g>
<g clip-path="url(#clip22)" clip-rule="nonzero">
<g clip-path="url(#clip23)" clip-rule="evenodd">
<g clip-path="url(#clip24)" clip-rule="evenodd">
<path style="fill:none;stroke-width:0.0220055;stroke-linecap:butt;stroke-linejoin:miter;stroke:rgb(17.96875%,20.3125%,21.09375%);stroke-opacity:0.8;stroke-miterlimit:10;" d="M 2.202834 3.218641 L 1.674656 2.900622 " transform="matrix(169.997721,0,0,169.997721,-137.316532,-89.423359)"/>
</g>
</g>
</g>
<g clip-path="url(#clip25)" clip-rule="nonzero">
<g clip-path="url(#clip26)" clip-rule="evenodd">
<g clip-path="url(#clip27)" clip-rule="evenodd">
<path style="fill:none;stroke-width:0.0220055;stroke-linecap:butt;stroke-linejoin:miter;stroke:rgb(17.96875%,20.3125%,21.09375%);stroke-opacity:0.8;stroke-miterlimit:10;" d="M 1.885182 3.311979 L 1.674656 2.900622 " transform="matrix(169.997721,0,0,169.997721,-137.316532,-89.423359)"/>
</g>
</g>
</g>
<g clip-path="url(#clip28)" clip-rule="nonzero">
<g clip-path="url(#clip29)" clip-rule="evenodd">
<g clip-path="url(#clip30)" clip-rule="evenodd">
<path style="fill:none;stroke-width:0.0220055;stroke-linecap:butt;stroke-linejoin:miter;stroke:rgb(17.96875%,20.3125%,21.09375%);stroke-opacity:0.8;stroke-miterlimit:10;" d="M 1.47718 2.060422 L 1.794763 2.652917 " transform="matrix(169.997721,0,0,169.997721,-137.316532,-89.423359)"/>
</g>
</g>
</g>
<g clip-path="url(#clip31)" clip-rule="nonzero">
<g clip-path="url(#clip32)" clip-rule="evenodd">
<g clip-path="url(#clip33)" clip-rule="evenodd">
<path style="fill:none;stroke-width:0.0220055;stroke-linecap:butt;stroke-linejoin:miter;stroke:rgb(17.96875%,20.3125%,21.09375%);stroke-opacity:0.8;stroke-miterlimit:10;" d="M 1.47718 2.060422 L 1.674656 2.900622 " transform="matrix(169.997721,0,0,169.997721,-137.316532,-89.423359)"/>
</g>
</g>
</g>
<g clip-path="url(#clip34)" clip-rule="nonzero">
<g clip-path="url(#clip35)" clip-rule="evenodd">
<g clip-path="url(#clip36)" clip-rule="evenodd">
<path style="fill:none;stroke-width:0.0220055;stroke-linecap:butt;stroke-linejoin:miter;stroke:rgb(17.96875%,20.3125%,21.09375%);stroke-opacity:0.8;stroke-miterlimit:10;" d="M 1.47718 2.060422 L 1.622771 1.261882 " transform="matrix(169.997721,0,0,169.997721,-137.316532,-89.423359)"/>
</g>
</g>
</g>
<g clip-path="url(#clip37)" clip-rule="nonzero">
<g clip-path="url(#clip38)" clip-rule="evenodd">
<g clip-path="url(#clip39)" clip-rule="evenodd">
<path style="fill:none;stroke-width:0.0220055;stroke-linecap:butt;stroke-linejoin:miter;stroke:rgb(17.96875%,20.3125%,21.09375%);stroke-opacity:0.8;stroke-miterlimit:10;" d="M 1.47718 2.060422 L 1.298433 1.661405 " transform="matrix(169.997721,0,0,169.997721,-137.316532,-89.423359)"/>
</g>
</g>
</g>
<g clip-path="url(#clip40)" clip-rule="nonzero">
<g clip-path="url(#clip41)" clip-rule="evenodd">
<g clip-path="url(#clip42)" clip-rule="evenodd">
<path style="fill:none;stroke-width:0.0220055;stroke-linecap:butt;stroke-linejoin:miter;stroke:rgb(17.96875%,20.3125%,21.09375%);stroke-opacity:0.8;stroke-miterlimit:10;" d="M 1.47718 2.060422 L 1.042317 1.970577 " transform="matrix(169.997721,0,0,169.997721,-137.316532,-89.423359)"/>
</g>
</g>
</g>
<g clip-path="url(#clip43)" clip-rule="nonzero">
<g clip-path="url(#clip44)" clip-rule="evenodd">
<g clip-path="url(#clip45)" clip-rule="evenodd">
<path style="fill:none;stroke-width:0.0220055;stroke-linecap:butt;stroke-linejoin:miter;stroke:rgb(17.96875%,20.3125%,21.09375%);stroke-opacity:0.8;stroke-miterlimit:10;" d="M 1.794763 2.652917 L 1.674656 2.900622 " transform="matrix(169.997721,0,0,169.997721,-137.316532,-89.423359)"/>
</g>
</g>
</g>
<g clip-path="url(#clip46)" clip-rule="nonzero">
<g clip-path="url(#clip47)" clip-rule="evenodd">
<g clip-path="url(#clip48)" clip-rule="evenodd">
<path style="fill:none;stroke-width:0.0220055;stroke-linecap:butt;stroke-linejoin:miter;stroke:rgb(17.96875%,20.3125%,21.09375%);stroke-opacity:0.8;stroke-miterlimit:10;" d="M 1.248501 3.130726 L 1.674656 2.900622 " transform="matrix(169.997721,0,0,169.997721,-137.316532,-89.423359)"/>
</g>
</g>
</g>
<g clip-path="url(#clip49)" clip-rule="nonzero">
<g clip-path="url(#clip50)" clip-rule="evenodd">
<g clip-path="url(#clip51)" clip-rule="evenodd">
<path style="fill:none;stroke-width:0.0220055;stroke-linecap:butt;stroke-linejoin:miter;stroke:rgb(17.96875%,20.3125%,21.09375%);stroke-opacity:0.8;stroke-miterlimit:10;" d="M 1.725001 0.848572 L 1.622771 1.261882 " transform="matrix(169.997721,0,0,169.997721,-137.316532,-89.423359)"/>
</g>
</g>
</g>
<g clip-path="url(#clip52)" clip-rule="nonzero">
<g clip-path="url(#clip53)" clip-rule="evenodd">
<g clip-path="url(#clip54)" clip-rule="evenodd">
<path style="fill:none;stroke-width:0.0220055;stroke-linecap:butt;stroke-linejoin:miter;stroke:rgb(17.96875%,20.3125%,21.09375%);stroke-opacity:0.8;stroke-miterlimit:10;" d="M 3.925651 1.392743 L 3.558711 1.578752 " transform="matrix(169.997721,0,0,169.997721,-137.316532,-89.423359)"/>
</g>
</g>
</g>
<g clip-path="url(#clip55)" clip-rule="nonzero">
<g clip-path="url(#clip56)" clip-rule="evenodd">
<g clip-path="url(#clip57)" clip-rule="evenodd">
<path style="fill:none;stroke-width:0.0220055;stroke-linecap:butt;stroke-linejoin:miter;stroke:rgb(17.96875%,20.3125%,21.09375%);stroke-opacity:0.8;stroke-miterlimit:10;" d="M 3.925651 1.392743 L 4.102652 1.665082 " transform="matrix(169.997721,0,0,169.997721,-137.316532,-89.423359)"/>
</g>
</g>
</g>
<g clip-path="url(#clip58)" clip-rule="nonzero">
<g clip-path="url(#clip59)" clip-rule="evenodd">
<g clip-path="url(#clip60)" clip-rule="evenodd">
<path style="fill:none;stroke-width:0.0220055;stroke-linecap:butt;stroke-linejoin:miter;stroke:rgb(17.96875%,20.3125%,21.09375%);stroke-opacity:0.8;stroke-miterlimit:10;" d="M 3.558711 1.578752 L 3.794606 1.847598 " transform="matrix(169.997721,0,0,169.997721,-137.316532,-89.423359)"/>
</g>
</g>
</g>
<g clip-path="url(#clip61)" clip-rule="nonzero">
<g clip-path="url(#clip62)" clip-rule="evenodd">
<g clip-path="url(#clip63)" clip-rule="evenodd">
<path style="fill:none;stroke-width:0.0220055;stroke-linecap:butt;stroke-linejoin:miter;stroke:rgb(17.96875%,20.3125%,21.09375%);stroke-opacity:0.8;stroke-miterlimit:10;" d="M 3.558711 1.578752 L 3.204961 1.332494 " transform="matrix(169.997721,0,0,169.997721,-137.316532,-89.423359)"/>
</g>
</g>
</g>
<g clip-path="url(#clip64)" clip-rule="nonzero">
<g clip-path="url(#clip65)" clip-rule="evenodd">
<g clip-path="url(#clip66)" clip-rule="evenodd">
<path style="fill:none;stroke-width:0.0220055;stroke-linecap:butt;stroke-linejoin:miter;stroke:rgb(17.96875%,20.3125%,21.09375%);stroke-opacity:0.8;stroke-miterlimit:10;" d="M 3.558711 1.578752 L 3.468935 1.996198 " transform="matrix(169.997721,0,0,169.997721,-137.316532,-89.423359)"/>
</g>
</g>
</g>
<g clip-path="url(#clip67)" clip-rule="nonzero">
<g clip-path="url(#clip68)" clip-rule="evenodd">
<g clip-path="url(#clip69)" clip-rule="evenodd">
<path style="fill:none;stroke-width:0.0220055;stroke-linecap:butt;stroke-linejoin:miter;stroke:rgb(17.96875%,20.3125%,21.09375%);stroke-opacity:0.8;stroke-miterlimit:10;" d="M 4.102652 1.665082 L 3.794606 1.847598 " transform="matrix(169.997721,0,0,169.997721,-137.316532,-89.423359)"/>
</g>
</g>
</g>
<g clip-path="url(#clip70)" clip-rule="nonzero">
<g clip-path="url(#clip71)" clip-rule="evenodd">
<g clip-path="url(#clip72)" clip-rule="evenodd">
<path style="fill:none;stroke-width:0.0220055;stroke-linecap:butt;stroke-linejoin:miter;stroke:rgb(17.96875%,20.3125%,21.09375%);stroke-opacity:0.8;stroke-miterlimit:10;" d="M 3.794606 1.847598 L 3.468935 1.996198 " transform="matrix(169.997721,0,0,169.997721,-137.316532,-89.423359)"/>
</g>
</g>
</g>
<g clip-path="url(#clip73)" clip-rule="nonzero">
<g clip-path="url(#clip74)" clip-rule="evenodd">
<g clip-path="url(#clip75)" clip-rule="evenodd">
<path style="fill:none;stroke-width:0.0220055;stroke-linecap:butt;stroke-linejoin:miter;stroke:rgb(17.96875%,20.3125%,21.09375%);stroke-opacity:0.8;stroke-miterlimit:10;" d="M 2.941791 0.849423 L 3.204961 1.332494 " transform="matrix(169.997721,0,0,169.997721,-137.316532,-89.423359)"/>
</g>
</g>
</g>
<g clip-path="url(#clip76)" clip-rule="nonzero">
<g clip-path="url(#clip77)" clip-rule="evenodd">
<g clip-path="url(#clip78)" clip-rule="evenodd">
<path style="fill:none;stroke-width:0.0220055;stroke-linecap:butt;stroke-linejoin:miter;stroke:rgb(17.96875%,20.3125%,21.09375%);stroke-opacity:0.8;stroke-miterlimit:10;" d="M 3.204961 1.332494 L 3.468935 1.996198 " transform="matrix(169.997721,0,0,169.997721,-137.316532,-89.423359)"/>
</g>
</g>
</g>
<path style="fill-rule:nonzero;fill:rgb(100%,92.941176%,43.529412%);fill-opacity:1;stroke-width:0.0220055;stroke-linecap:butt;stroke-linejoin:miter;stroke:rgb(60%,60%,60%);stroke-opacity:0.8;stroke-miterlimit:10;" d="M 0.110037 -0.00000078878 C 0.110037 0.0607767 0.0607719 0.110019 -0.00000554079 0.110019 C -0.06076 0.110019 -0.110025 0.0607767 -0.110025 -0.00000078878 C -0.110025 -0.0607553 -0.06076 -0.110021 -0.00000554079 -0.110021 C 0.0607719 -0.110021 0.110037 -0.0607553 0.110037 -0.00000078878 Z M 0.110037 -0.00000078878 " transform="matrix(169.997721,0,0,169.997721,500.903286,461.074353)"/>
<path style="fill-rule:nonzero;fill:rgb(100%,92.941176%,43.529412%);fill-opacity:1;stroke-width:0.0220055;stroke-linecap:butt;stroke-linejoin:miter;stroke:rgb(60%,60%,60%);stroke-opacity:0.8;stroke-miterlimit:10;" d="M 0.110019 0.00000570538 C 0.110019 0.0607602 0.0607771 0.110026 -0.000000367972 0.110026 C -0.0607778 0.110026 -0.11002 0.0607602 -0.11002 0.00000570538 C -0.11002 -0.0607718 -0.0607778 -0.110037 -0.000000367972 -0.110037 C 0.0607771 -0.110037 0.110019 -0.0607718 0.110019 0.00000570538 Z M 0.110019 0.00000570538 " transform="matrix(169.997721,0,0,169.997721,274.937563,545.166999)"/>
<path style="fill-rule:nonzero;fill:rgb(100%,92.941176%,43.529412%);fill-opacity:1;stroke-width:0.0220055;stroke-linecap:butt;stroke-linejoin:miter;stroke:rgb(60%,60%,60%);stroke-opacity:0.8;stroke-miterlimit:10;" d="M 0.110021 -0.00000453204 C 0.110021 0.0607729 0.0607553 0.110038 0.000000776906 0.110038 C -0.0607767 0.110038 -0.110019 0.0607729 -0.110019 -0.00000453204 C -0.110019 -0.060759 -0.0607767 -0.110024 0.000000776906 -0.110024 C 0.0607553 -0.110024 0.110021 -0.060759 0.110021 -0.00000453204 Z M 0.110021 -0.00000453204 " transform="matrix(169.997721,0,0,169.997721,452.855337,402.746864)"/>
<path style="fill-rule:nonzero;fill:rgb(100%,92.941176%,43.529412%);fill-opacity:1;stroke-width:0.0220055;stroke-linecap:butt;stroke-linejoin:miter;stroke:rgb(60%,60%,60%);stroke-opacity:0.8;stroke-miterlimit:10;" d="M 0.110021 -0.00000390394 C 0.110021 0.0607736 0.0607561 0.110016 0.00000163009 0.110016 C -0.0607758 0.110016 -0.110018 0.0607736 -0.110018 -0.00000390394 C -0.110018 -0.0607584 -0.0607758 -0.110024 0.00000163009 -0.110024 C 0.0607561 -0.110024 0.110021 -0.0607584 0.110021 -0.00000390394 Z M 0.110021 -0.00000390394 " transform="matrix(169.997721,0,0,169.997721,365.784879,458.926445)"/>
<path style="fill-rule:nonzero;fill:rgb(100%,92.941176%,43.529412%);fill-opacity:1;stroke-width:0.0220055;stroke-linecap:butt;stroke-linejoin:miter;stroke:rgb(60%,60%,60%);stroke-opacity:0.8;stroke-miterlimit:10;" d="M 0.110021 0.00000591128 C 0.110021 0.0607604 0.0607558 0.110026 0.00000128319 0.110026 C -0.0607762 0.110026 -0.110019 0.0607604 -0.110019 0.00000591128 C -0.110019 -0.0607716 -0.0607762 -0.110037 0.00000128319 -0.110037 C 0.0607558 -0.110037 0.110021 -0.0607716 0.110021 0.00000591128 Z M 0.110021 0.00000591128 " transform="matrix(169.997721,0,0,169.997721,237.159938,457.737276)"/>
<path style="fill-rule:nonzero;fill:rgb(100%,92.941176%,43.529412%);fill-opacity:1;stroke-width:0.0220055;stroke-linecap:butt;stroke-linejoin:miter;stroke:rgb(60%,60%,60%);stroke-opacity:0.8;stroke-miterlimit:10;" d="M 0.110039 0.00000243842 C 0.110039 0.0607569 0.0607733 0.110022 -0.00000414083 0.110022 C -0.0607586 0.110022 -0.110024 0.0607569 -0.110024 0.00000243842 C -0.110024 -0.060775 -0.0607586 -0.110017 -0.00000414083 -0.110017 C 0.0607733 -0.110017 0.110039 -0.060775 0.110039 0.00000243842 Z M 0.110039 0.00000243842 " transform="matrix(169.997721,0,0,169.997721,183.16086,473.605054)"/>
<path style="fill-rule:nonzero;fill:rgb(100%,92.941176%,43.529412%);fill-opacity:1;stroke-width:0.0220055;stroke-linecap:butt;stroke-linejoin:miter;stroke:rgb(60%,60%,60%);stroke-opacity:0.8;stroke-miterlimit:10;" d="M 0.110036 -0.00000650283 C 0.110036 0.060771 0.0607709 0.110036 -0.00000654768 0.110036 C -0.060761 0.110036 -0.110026 0.060771 -0.110026 -0.00000650283 C -0.110026 -0.060761 -0.060761 -0.110026 -0.00000654768 -0.110026 C 0.0607709 -0.110026 0.110036 -0.060761 0.110036 -0.00000650283 Z M 0.110036 -0.00000650283 " transform="matrix(169.997721,0,0,169.997721,113.801894,260.844855)"/>
<path style="fill-rule:nonzero;fill:rgb(100%,92.941176%,43.529412%);fill-opacity:1;stroke-width:0.0220055;stroke-linecap:butt;stroke-linejoin:miter;stroke:rgb(60%,60%,60%);stroke-opacity:0.8;stroke-miterlimit:10;" d="M 0.110025 -0.00000117155 C 0.110025 0.0607763 0.06076 0.110019 0.00000550843 0.110019 C -0.060772 0.110019 -0.110037 0.0607763 -0.110037 -0.00000117155 C -0.110037 -0.0607557 -0.060772 -0.110021 0.00000550843 -0.110021 C 0.06076 -0.110021 0.110025 -0.0607557 0.110025 -0.00000117155 Z M 0.110025 -0.00000117155 " transform="matrix(169.997721,0,0,169.997721,167.788126,361.566605)"/>
<path style="fill-rule:nonzero;fill:rgb(100%,92.941176%,43.529412%);fill-opacity:1;stroke-width:0.0220055;stroke-linecap:butt;stroke-linejoin:miter;stroke:rgb(60%,60%,60%);stroke-opacity:0.8;stroke-miterlimit:10;" d="M 0.110023 -0.0000013776 C 0.110023 0.0607761 0.0607576 0.110018 0.00000307629 0.110018 C -0.0607744 0.110018 -0.110017 0.0607761 -0.110017 -0.0000013776 C -0.110017 -0.0607559 -0.0607744 -0.110021 0.00000307629 -0.110021 C 0.0607576 -0.110021 0.110023 -0.0607559 0.110023 -0.0000013776 Z M 0.110023 -0.0000013776 " transform="matrix(169.997721,0,0,169.997721,74.925258,442.793203)"/>
<path style="fill-rule:nonzero;fill:rgb(100%,92.941176%,43.529412%);fill-opacity:1;stroke-width:0.0220055;stroke-linecap:butt;stroke-linejoin:miter;stroke:rgb(60%,60%,60%);stroke-opacity:0.8;stroke-miterlimit:10;" d="M 0.110025 0.0000114736 C 0.110025 0.060766 0.0607593 0.110031 0.00000478967 0.110031 C -0.0607727 0.110031 -0.110038 0.060766 -0.110038 0.0000114736 C -0.110038 -0.060766 -0.0607727 -0.110031 0.00000478967 -0.110031 C 0.0607593 -0.110031 0.110025 -0.060766 0.110025 0.0000114736 Z M 0.110025 0.0000114736 " transform="matrix(169.997721,0,0,169.997721,147.37028,403.673831)"/>
<path style="fill-rule:nonzero;fill:rgb(100%,92.941176%,43.529412%);fill-opacity:1;stroke-width:0.0220055;stroke-linecap:butt;stroke-linejoin:miter;stroke:rgb(60%,60%,60%);stroke-opacity:0.8;stroke-miterlimit:10;" d="M 0.110035 -0.00000570538 C 0.110035 0.0607718 0.0607695 0.110037 -0.00000796406 0.110037 C -0.0607625 0.110037 -0.110028 0.0607718 -0.110028 -0.00000570538 C -0.110028 -0.0607602 -0.0607625 -0.110026 -0.00000796406 -0.110026 C 0.0607695 -0.110026 0.110035 -0.0607602 0.110035 -0.00000570538 Z M 0.110035 -0.00000570538 " transform="matrix(169.997721,0,0,169.997721,155.931041,54.833001)"/>
<path style="fill-rule:nonzero;fill:rgb(100%,92.941176%,43.529412%);fill-opacity:1;stroke-width:0.0220055;stroke-linecap:butt;stroke-linejoin:miter;stroke:rgb(60%,60%,60%);stroke-opacity:0.8;stroke-miterlimit:10;" d="M 0.110032 -0.00000455077 C 0.110032 0.0607729 0.0607671 0.110038 -0.0000104098 0.110038 C -0.0607649 0.110038 -0.11003 0.0607729 -0.11003 -0.00000455077 C -0.11003 -0.060759 -0.0607649 -0.110024 -0.0000104098 -0.110024 C 0.0607671 -0.110024 0.110032 -0.060759 0.110032 -0.00000455077 Z M 0.110032 -0.00000455077 " transform="matrix(169.997721,0,0,169.997721,138.552551,125.094524)"/>
<path style="fill-rule:nonzero;fill:rgb(100%,92.941176%,43.529412%);fill-opacity:1;stroke-width:0.0220055;stroke-linecap:butt;stroke-linejoin:miter;stroke:rgb(60%,60%,60%);stroke-opacity:0.8;stroke-miterlimit:10;" d="M 0.110021 0.00000482507 C 0.110021 0.0607593 0.0607557 0.110025 0.00000119694 0.110025 C -0.0607763 0.110025 -0.110019 0.0607593 -0.110019 0.00000482507 C -0.110019 -0.0607726 -0.0607763 -0.110038 0.00000119694 -0.110038 C 0.0607557 -0.110038 0.110021 -0.0607726 0.110021 0.00000482507 Z M 0.110021 0.00000482507 " transform="matrix(169.997721,0,0,169.997721,83.413859,193.010898)"/>
<path style="fill-rule:nonzero;fill:rgb(100%,92.941176%,43.529412%);fill-opacity:1;stroke-width:0.0220055;stroke-linecap:butt;stroke-linejoin:miter;stroke:rgb(60%,60%,60%);stroke-opacity:0.8;stroke-miterlimit:10;" d="M 0.110032 -0.00000540654 C 0.110032 0.0607721 0.0607666 0.110037 -0.0000108207 0.110037 C -0.0607653 0.110037 -0.110031 0.0607721 -0.110031 -0.00000540654 C -0.110031 -0.0607599 -0.0607653 -0.110025 -0.0000108207 -0.110025 C 0.0607666 -0.110025 0.110032 -0.0607599 0.110032 -0.00000540654 Z M 0.110032 -0.00000540654 " transform="matrix(169.997721,0,0,169.997721,39.876839,245.571232)"/>
<path style="fill-rule:nonzero;fill:rgb(55.294118%,82.745098%,78.039216%);fill-opacity:1;stroke-width:0.0220055;stroke-linecap:butt;stroke-linejoin:miter;stroke:rgb(60%,60%,60%);stroke-opacity:0.8;stroke-miterlimit:10;" d="M 0.110036 0.00000597648 C 0.110036 0.0607605 0.0607706 0.110026 -0.00000682275 0.110026 C -0.0607613 0.110026 -0.110027 0.0607605 -0.110027 0.00000597648 C -0.110027 -0.0607715 -0.0607613 -0.110037 -0.00000682275 -0.110037 C 0.0607706 -0.110037 0.110036 -0.0607715 0.110036 0.00000597648 Z M 0.110036 0.00000597648 " transform="matrix(169.997721,0,0,169.997721,530.036316,147.338828)"/>
<path style="fill-rule:nonzero;fill:rgb(55.294118%,82.745098%,78.039216%);fill-opacity:1;stroke-width:0.0220055;stroke-linecap:butt;stroke-linejoin:miter;stroke:rgb(60%,60%,60%);stroke-opacity:0.8;stroke-miterlimit:10;" d="M 0.110036 0.00000765105 C 0.110036 0.0607621 0.0607706 0.110028 -0.00000691887 0.110028 C -0.0607614 0.110028 -0.110027 0.0607621 -0.110027 0.00000765105 C -0.110027 -0.0607698 -0.0607614 -0.110035 -0.00000691887 -0.110035 C 0.0607706 -0.110035 0.110036 -0.0607698 0.110036 0.00000765105 Z M 0.110036 0.00000765105 " transform="matrix(169.997721,0,0,169.997721,467.657426,178.959637)"/>
<path style="fill-rule:nonzero;fill:rgb(55.294118%,82.745098%,78.039216%);fill-opacity:1;stroke-width:0.0220055;stroke-linecap:butt;stroke-linejoin:miter;stroke:rgb(60%,60%,60%);stroke-opacity:0.8;stroke-miterlimit:10;" d="M 0.110031 -0.000000258475 C 0.110031 0.0607772 0.0607653 0.11002 0.0000108207 0.11002 C -0.0607666 0.11002 -0.110032 0.0607772 -0.110032 -0.000000258475 C -0.110032 -0.0607777 -0.0607666 -0.11002 0.0000108207 -0.11002 C 0.0607653 -0.11002 0.110031 -0.0607777 0.110031 -0.000000258475 Z M 0.110031 -0.000000258475 " transform="matrix(169.997721,0,0,169.997721,560.123161,193.636763)"/>
<path style="fill-rule:nonzero;fill:rgb(55.294118%,82.745098%,78.039216%);fill-opacity:1;stroke-width:0.0220055;stroke-linecap:butt;stroke-linejoin:miter;stroke:rgb(60%,60%,60%);stroke-opacity:0.8;stroke-miterlimit:10;" d="M 0.110024 0.00000764184 C 0.110024 0.0607621 0.0607583 0.110027 0.00000380862 0.110027 C -0.0607737 0.110027 -0.110016 0.0607621 -0.110016 0.00000764184 C -0.110016 -0.0607698 -0.0607737 -0.110035 0.00000380862 -0.110035 C 0.0607583 -0.110035 0.110024 -0.0607698 0.110024 0.00000764184 Z M 0.110024 0.00000764184 " transform="matrix(169.997721,0,0,169.997721,507.757165,224.662763)"/>
<path style="fill-rule:nonzero;fill:rgb(100%,92.941176%,43.529412%);fill-opacity:1;stroke-width:0.0220055;stroke-linecap:butt;stroke-linejoin:miter;stroke:rgb(60%,60%,60%);stroke-opacity:0.8;stroke-miterlimit:10;" d="M 0.110024 0.00000596854 C 0.110024 0.0607605 0.0607588 0.110026 0.00000435127 0.110026 C -0.0607731 0.110026 -0.110038 0.0607605 -0.110038 0.00000596854 C -0.110038 -0.0607715 -0.0607731 -0.110037 0.00000435127 -0.110037 C 0.0607588 -0.110037 0.110024 -0.0607715 0.110024 0.00000596854 Z M 0.110024 0.00000596854 " transform="matrix(169.997721,0,0,169.997721,362.78051,54.975548)"/>
<path style="fill-rule:nonzero;fill:rgb(100%,92.941176%,43.529412%);fill-opacity:1;stroke-width:0.0220055;stroke-linecap:butt;stroke-linejoin:miter;stroke:rgb(60%,60%,60%);stroke-opacity:0.8;stroke-miterlimit:10;" d="M 0.110016 0.00000965755 C 0.110016 0.0607641 0.0607737 0.11003 -0.00000377528 0.11003 C -0.0607583 0.11003 -0.110024 0.0607641 -0.110024 0.00000965755 C -0.110024 -0.0607678 -0.0607583 -0.110033 -0.00000377528 -0.110033 C 0.0607737 -0.110033 0.110016 -0.0607678 0.110016 0.00000965755 Z M 0.110016 0.00000965755 " transform="matrix(169.997721,0,0,169.997721,407.520173,137.096014)"/>
<path style="fill-rule:nonzero;fill:rgb(100%,92.941176%,43.529412%);fill-opacity:1;stroke-width:0.0220055;stroke-linecap:butt;stroke-linejoin:miter;stroke:rgb(60%,60%,60%);stroke-opacity:0.8;stroke-miterlimit:10;" d="M 0.110018 0.0000111238 C 0.110018 0.0607656 0.0607755 0.110031 -0.0000019537 0.110031 C -0.0607564 0.110031 -0.110022 0.0607656 -0.110022 0.0000111238 C -0.110022 -0.0607663 -0.0607564 -0.110032 -0.0000019537 -0.110032 C 0.0607755 -0.110032 0.110018 -0.0607663 0.110018 0.0000111238 Z M 0.110018 0.0000111238 " transform="matrix(169.997721,0,0,169.997721,452.394863,249.92389)"/>
</g>
</svg>
