<?xml version="1.0" encoding="UTF-8"?>
<svg xmlns="http://www.w3.org/2000/svg" xmlns:xlink="http://www.w3.org/1999/xlink" width="600pt" height="600pt" viewBox="0 0 600 600" version="1.1">
<defs>
<clipPath id="clip1">
  <path d="M 323.90625 34 L 459.097656 34 L 459.097656 162 L 323.90625 162 Z M 323.90625 34 "/>
</clipPath>
<clipPath id="clip2">
  <path d="M 323.90625 -110.867188 L 459.097656 -110.867188 L 459.097656 306.546875 L 323.90625 306.546875 Z M 323.90625 -110.867188 L 455.375 93.457031 C 455.375 104.9375 446.070312 114.242188 434.585938 114.242188 C 423.105469 114.242188 413.800781 104.9375 413.800781 93.457031 C 413.800781 81.972656 423.105469 72.667969 434.585938 72.667969 C 446.070312 72.667969 455.375 81.972656 455.375 93.457031 Z M 323.90625 -110.867188 "/>
</clipPath>
<clipPath id="clip3">
  <path d="M 323.90625 -110.867188 L 459.097656 -110.867188 L 459.097656 306.546875 L 323.90625 306.546875 Z M 323.90625 -110.867188 L 369.203125 102.21875 C 369.203125 113.703125 359.894531 123.007812 348.414062 123.007812 C 336.933594 123.007812 327.625 113.703125 327.625 102.21875 C 327.625 90.738281 336.933594 81.429688 348.414062 81.429688 C 359.894531 81.429688 369.203125 90.738281 369.203125 102.21875 Z M 323.90625 -110.867188 "/>
</clipPath>
<clipPath id="clip4">
  <path d="M 343 7 L 494 7 L 494 153 L 343 153 Z M 343 7 "/>
</clipPath>
<clipPath id="clip5">
  <path d="M 267.96875 -91.027344 L 569.28125 -91.027344 L 569.28125 250.726562 L 267.96875 250.726562 Z M 267.96875 -91.027344 L 455.375 93.457031 C 455.375 104.9375 446.070312 114.242188 434.585938 114.242188 C 423.105469 114.242188 413.800781 104.9375 413.800781 93.457031 C 413.800781 81.972656 423.105469 72.667969 434.585938 72.667969 C 446.070312 72.667969 455.375 81.972656 455.375 93.457031 Z M 267.96875 -91.027344 "/>
</clipPath>
<clipPath id="clip6">
  <path d="M 267.96875 -91.027344 L 569.28125 -91.027344 L 569.28125 250.726562 L 267.96875 250.726562 Z M 267.96875 -91.027344 L 423.449219 66.238281 C 423.449219 77.71875 414.140625 87.027344 402.660156 87.027344 C 391.179688 87.027344 381.871094 77.71875 381.871094 66.238281 C 381.871094 54.757812 391.179688 45.449219 402.660156 45.449219 C 414.140625 45.449219 423.449219 54.757812 423.449219 66.238281 Z M 267.96875 -91.027344 "/>
</clipPath>
<clipPath id="clip7">
  <path d="M 289 0 L 423 0 L 423 157.308594 L 289 157.308594 Z M 289 0 "/>
</clipPath>
<clipPath id="clip8">
  <path d="M 149.609375 -12.375 L 562.792969 -12.375 L 562.792969 157.308594 L 149.609375 157.308594 Z M 149.609375 -12.375 L 369.203125 102.21875 C 369.203125 113.703125 359.894531 123.007812 348.414062 123.007812 C 336.933594 123.007812 327.625 113.703125 327.625 102.21875 C 327.625 90.738281 336.933594 81.429688 348.414062 81.429688 C 359.894531 81.429688 369.203125 90.738281 369.203125 102.21875 Z M 149.609375 -12.375 "/>
</clipPath>
<clipPath id="clip9">
  <path d="M 149.609375 -12.375 L 562.792969 -12.375 L 562.792969 157.308594 L 149.609375 157.308594 Z M 149.609375 -12.375 L 384.773438 42.710938 C 384.773438 54.195312 375.464844 63.5 363.984375 63.5 C 352.503906 63.5 343.195312 54.195312 343.195312 42.710938 C 343.195312 31.230469 352.503906 21.925781 363.984375 21.925781 C 375.464844 21.925781 384.773438 31.230469 384.773438 42.710938 Z M 149.609375 -12.375 "/>
</clipPath>
<clipPath id="clip10">
  <path d="M 289 7 L 462 7 L 462 162 L 289 162 Z M 289 7 "/>
</clipPath>
<clipPath id="clip11">
  <path d="M 233.046875 -105.589844 L 518.03125 -105.589844 L 518.03125 274.050781 L 233.046875 274.050781 Z M 233.046875 -105.589844 L 369.203125 102.21875 C 369.203125 113.703125 359.894531 123.007812 348.414062 123.007812 C 336.933594 123.007812 327.625 113.703125 327.625 102.21875 C 327.625 90.738281 336.933594 81.429688 348.414062 81.429688 C 359.894531 81.429688 369.203125 90.738281 369.203125 102.21875 Z M 233.046875 -105.589844 "/>
</clipPath>
<clipPath id="clip12">
  <path d="M 233.046875 -105.589844 L 518.03125 -105.589844 L 518.03125 274.050781 L 233.046875 274.050781 Z M 233.046875 -105.589844 L 423.449219 66.238281 C 423.449219 77.71875 414.140625 87.027344 402.660156 87.027344 C 391.179688 87.027344 381.871094 77.71875 381.871094 66.238281 C 381.871094 54.757812 391.179688 45.449219 402.660156 45.449219 C 414.140625 45.449219 423.449219 54.757812 423.449219 66.238281 Z M 233.046875 -105.589844 "/>
</clipPath>
<clipPath id="clip13">
  <path d="M 157 43 L 408 43 L 408 263 L 157 263 Z M 157 43 "/>
</clipPath>
<clipPath id="clip14">
  <path d="M 89.058594 -61.417969 L 475.242188 -61.417969 L 475.242188 367.800781 L 89.058594 367.800781 Z M 89.058594 -61.417969 L 369.203125 102.21875 C 369.203125 113.703125 359.894531 123.007812 348.414062 123.007812 C 336.933594 123.007812 327.625 113.703125 327.625 102.21875 C 327.625 90.738281 336.933594 81.429688 348.414062 81.429688 C 359.894531 81.429688 369.203125 90.738281 369.203125 102.21875 Z M 89.058594 -61.417969 "/>
</clipPath>
<clipPath id="clip15">
  <path d="M 89.058594 -61.417969 L 475.242188 -61.417969 L 475.242188 367.800781 L 89.058594 367.800781 Z M 89.058594 -61.417969 L 236.671875 204.160156 C 236.671875 215.640625 227.367188 224.949219 215.882812 224.949219 C 204.402344 224.949219 195.09375 215.640625 195.09375 204.160156 C 195.09375 192.679688 204.402344 183.371094 215.882812 183.371094 C 227.367188 183.371094 236.671875 192.679688 236.671875 204.160156 Z M 89.058594 -61.417969 "/>
</clipPath>
<clipPath id="clip16">
  <path d="M 305 0 L 462 0 L 462 126 L 305 126 Z M 305 0 "/>
</clipPath>
<clipPath id="clip17">
  <path d="M 255.261719 -133.339844 L 511.386719 -133.339844 L 511.386719 242.292969 L 255.261719 242.292969 Z M 255.261719 -133.339844 L 384.773438 42.710938 C 384.773438 54.195312 375.464844 63.5 363.984375 63.5 C 352.503906 63.5 343.195312 54.195312 343.195312 42.710938 C 343.195312 31.230469 352.503906 21.925781 363.984375 21.925781 C 375.464844 21.925781 384.773438 31.230469 384.773438 42.710938 Z M 255.261719 -133.339844 "/>
</clipPath>
<clipPath id="clip18">
  <path d="M 255.261719 -133.339844 L 511.386719 -133.339844 L 511.386719 242.292969 L 255.261719 242.292969 Z M 255.261719 -133.339844 L 423.449219 66.238281 C 423.449219 77.71875 414.140625 87.027344 402.660156 87.027344 C 391.179688 87.027344 381.871094 77.71875 381.871094 66.238281 C 381.871094 54.757812 391.179688 45.449219 402.660156 45.449219 C 414.140625 45.449219 423.449219 54.757812 423.449219 66.238281 Z M 255.261719 -133.339844 "/>
</clipPath>
<clipPath id="clip19">
  <path d="M 235 397 L 463 397 L 463 584 L 235 584 Z M 235 397 "/>
</clipPath>
<clipPath id="clip20">
  <path d="M 183.179688 282.101562 L 514.359375 282.101562 L 514.359375 699.574219 L 183.179688 699.574219 Z M 183.179688 282.101562 L 423.996094 525.019531 C 423.996094 536.5 414.6875 545.808594 403.207031 545.808594 C 391.726562 545.808594 382.417969 536.5 382.417969 525.019531 C 382.417969 513.539062 391.726562 504.230469 403.207031 504.230469 C 414.6875 504.230469 423.996094 513.539062 423.996094 525.019531 Z M 183.179688 282.101562 "/>
</clipPath>
<clipPath id="clip21">
  <path d="M 183.179688 282.101562 L 514.359375 282.101562 L 514.359375 699.574219 L 183.179688 699.574219 Z M 183.179688 282.101562 L 315.113281 456.652344 C 315.113281 468.132812 305.808594 477.441406 294.328125 477.441406 C 282.84375 477.441406 273.539062 468.132812 273.539062 456.652344 C 273.539062 445.171875 282.84375 435.863281 294.328125 435.863281 C 305.808594 435.863281 315.113281 445.171875 315.113281 456.652344 Z M 183.179688 282.101562 "/>
</clipPath>
<clipPath id="clip22">
  <path d="M 344 466 L 522 466 L 522 600 L 344 600 Z M 344 466 "/>
</clipPath>
<clipPath id="clip23">
  <path d="M 303.332031 343.890625 L 562.75 343.890625 L 562.75 738.421875 L 303.332031 738.421875 Z M 303.332031 343.890625 L 423.996094 525.019531 C 423.996094 536.5 414.6875 545.808594 403.207031 545.808594 C 391.726562 545.808594 382.417969 536.5 382.417969 525.019531 C 382.417969 513.539062 391.726562 504.230469 403.207031 504.230469 C 414.6875 504.230469 423.996094 513.539062 423.996094 525.019531 Z M 303.332031 343.890625 "/>
</clipPath>
<clipPath id="clip24">
  <path d="M 303.332031 343.890625 L 562.75 343.890625 L 562.75 738.421875 L 303.332031 738.421875 Z M 303.332031 343.890625 L 483.660156 557.289062 C 483.660156 568.769531 474.351562 578.074219 462.871094 578.074219 C 451.386719 578.074219 442.082031 568.769531 442.082031 557.289062 C 442.082031 545.804688 451.386719 536.5 462.871094 536.5 C 474.351562 536.5 483.660156 545.804688 483.660156 557.289062 Z M 303.332031 343.890625 "/>
</clipPath>
<clipPath id="clip25">
  <path d="M 344 445 L 530 445 L 530 584 L 344 584 Z M 344 445 "/>
</clipPath>
<clipPath id="clip26">
  <path d="M 339.613281 307.703125 L 534.527344 307.703125 L 534.527344 721.398438 L 339.613281 721.398438 Z M 339.613281 307.703125 L 423.996094 525.019531 C 423.996094 536.5 414.6875 545.808594 403.207031 545.808594 C 391.726562 545.808594 382.417969 536.5 382.417969 525.019531 C 382.417969 513.539062 391.726562 504.230469 403.207031 504.230469 C 414.6875 504.230469 423.996094 513.539062 423.996094 525.019531 Z M 339.613281 307.703125 "/>
</clipPath>
<clipPath id="clip27">
  <path d="M 339.613281 307.703125 L 534.527344 307.703125 L 534.527344 721.398438 L 339.613281 721.398438 Z M 339.613281 307.703125 L 491.71875 504.078125 C 491.71875 515.558594 482.410156 524.867188 470.929688 524.867188 C 459.449219 524.867188 450.140625 515.558594 450.140625 504.078125 C 450.140625 492.59375 459.449219 483.289062 470.929688 483.289062 C 482.410156 483.289062 491.71875 492.59375 491.71875 504.078125 Z M 339.613281 307.703125 "/>
</clipPath>
<clipPath id="clip28">
  <path d="M 251.378906 364 L 506.351562 364 L 506.351562 516 L 251.378906 516 Z M 251.378906 364 "/>
</clipPath>
<clipPath id="clip29">
  <path d="M 251.378906 221.847656 L 506.351562 221.847656 L 506.351562 658.238281 L 251.378906 658.238281 Z M 251.378906 221.847656 L 484.1875 423.429688 C 484.1875 434.914062 474.878906 444.21875 463.398438 444.21875 C 451.914062 444.21875 442.609375 434.914062 442.609375 423.429688 C 442.609375 411.949219 451.914062 402.644531 463.398438 402.644531 C 474.878906 402.644531 484.1875 411.949219 484.1875 423.429688 Z M 251.378906 221.847656 "/>
</clipPath>
<clipPath id="clip30">
  <path d="M 251.378906 221.847656 L 506.351562 221.847656 L 506.351562 658.238281 L 251.378906 658.238281 Z M 251.378906 221.847656 L 315.113281 456.652344 C 315.113281 468.132812 305.808594 477.441406 294.328125 477.441406 C 282.84375 477.441406 273.539062 468.132812 273.539062 456.652344 C 273.539062 445.171875 282.84375 435.863281 294.328125 435.863281 C 305.808594 435.863281 315.113281 445.171875 315.113281 456.652344 Z M 251.378906 221.847656 "/>
</clipPath>
<clipPath id="clip31">
  <path d="M 404 306 L 600 306 L 600 483 L 404 483 Z M 404 306 "/>
</clipPath>
<clipPath id="clip32">
  <path d="M 353.910156 190.117188 L 666.84375 190.117188 L 666.84375 599.015625 L 353.910156 599.015625 Z M 353.910156 190.117188 L 484.1875 423.429688 C 484.1875 434.914062 474.878906 444.21875 463.398438 444.21875 C 451.914062 444.21875 442.609375 434.914062 442.609375 423.429688 C 442.609375 411.949219 451.914062 402.644531 463.398438 402.644531 C 474.878906 402.644531 484.1875 411.949219 484.1875 423.429688 Z M 353.910156 190.117188 "/>
</clipPath>
<clipPath id="clip33">
  <path d="M 353.910156 190.117188 L 666.84375 190.117188 L 666.84375 599.015625 L 353.910156 599.015625 Z M 353.910156 190.117188 L 578.140625 365.699219 C 578.140625 377.183594 568.832031 386.488281 557.351562 386.488281 C 545.871094 386.488281 536.5625 377.183594 536.5625 365.699219 C 536.5625 354.21875 545.871094 344.910156 557.351562 344.910156 C 568.832031 344.910156 578.140625 354.21875 578.140625 365.699219 Z M 353.910156 190.117188 "/>
</clipPath>
<clipPath id="clip34">
  <path d="M 404 400.566406 L 530 400.566406 L 530 526.945312 L 404 526.945312 Z M 404 400.566406 "/>
</clipPath>
<clipPath id="clip35">
  <path d="M 258.914062 400.566406 L 675.417969 400.566406 L 675.417969 526.945312 L 258.914062 526.945312 Z M 258.914062 400.566406 L 484.1875 423.429688 C 484.1875 434.914062 474.878906 444.21875 463.398438 444.21875 C 451.914062 444.21875 442.609375 434.914062 442.609375 423.429688 C 442.609375 411.949219 451.914062 402.644531 463.398438 402.644531 C 474.878906 402.644531 484.1875 411.949219 484.1875 423.429688 Z M 258.914062 400.566406 "/>
</clipPath>
<clipPath id="clip36">
  <path d="M 258.914062 400.566406 L 675.417969 400.566406 L 675.417969 526.945312 L 258.914062 526.945312 Z M 258.914062 400.566406 L 491.71875 504.078125 C 491.71875 515.558594 482.410156 524.867188 470.929688 524.867188 C 459.449219 524.867188 450.140625 515.558594 450.140625 504.078125 C 450.140625 492.59375 459.449219 483.289062 470.929688 483.289062 C 482.410156 483.289062 491.71875 492.59375 491.71875 504.078125 Z M 258.914062 400.566406 "/>
</clipPath>
<clipPath id="clip37">
  <path d="M 120 270 L 354 270 L 354 516 L 120 516 Z M 120 270 "/>
</clipPath>
<clipPath id="clip38">
  <path d="M 25.550781 189.945312 L 447.726562 189.945312 L 447.726562 595.753906 L 25.550781 595.753906 Z M 25.550781 189.945312 L 315.113281 456.652344 C 315.113281 468.132812 305.808594 477.441406 294.328125 477.441406 C 282.84375 477.441406 273.539062 468.132812 273.539062 456.652344 C 273.539062 445.171875 282.84375 435.863281 294.328125 435.863281 C 305.808594 435.863281 315.113281 445.171875 315.113281 456.652344 Z M 25.550781 189.945312 "/>
</clipPath>
<clipPath id="clip39">
  <path d="M 25.550781 189.945312 L 447.726562 189.945312 L 447.726562 595.753906 L 25.550781 595.753906 Z M 25.550781 189.945312 L 199.734375 329.042969 C 199.734375 340.523438 190.429688 349.832031 178.945312 349.832031 C 167.464844 349.832031 158.160156 340.523438 158.160156 329.042969 C 158.160156 317.5625 167.464844 308.253906 178.945312 308.253906 C 190.429688 308.253906 199.734375 317.5625 199.734375 329.042969 Z M 25.550781 189.945312 "/>
</clipPath>
<clipPath id="clip40">
  <path d="M 147 362 L 354 362 L 354 516 L 147 516 Z M 147 362 "/>
</clipPath>
<clipPath id="clip41">
  <path d="M 126.671875 230.453125 L 374.292969 230.453125 L 374.292969 647.1875 L 126.671875 647.1875 Z M 126.671875 230.453125 L 315.113281 456.652344 C 315.113281 468.132812 305.808594 477.441406 294.328125 477.441406 C 282.84375 477.441406 273.539062 468.132812 273.539062 456.652344 C 273.539062 445.171875 282.84375 435.863281 294.328125 435.863281 C 305.808594 435.863281 315.113281 445.171875 315.113281 456.652344 Z M 126.671875 230.453125 "/>
</clipPath>
<clipPath id="clip42">
  <path d="M 126.671875 230.453125 L 374.292969 230.453125 L 374.292969 647.1875 L 126.671875 647.1875 Z M 126.671875 230.453125 L 227.421875 420.984375 C 227.421875 432.464844 218.113281 441.773438 206.632812 441.773438 C 195.152344 441.773438 185.84375 432.464844 185.84375 420.984375 C 185.84375 409.503906 195.152344 400.195312 206.632812 400.195312 C 218.113281 400.195312 227.421875 409.503906 227.421875 420.984375 Z M 126.671875 230.453125 "/>
</clipPath>
<clipPath id="clip43">
  <path d="M 169 397 L 354 397 L 354 600 L 169 600 Z M 169 397 "/>
</clipPath>
<clipPath id="clip44">
  <path d="M 59.574219 337.4375 L 463.542969 337.4375 L 463.542969 669.894531 L 59.574219 669.894531 Z M 59.574219 337.4375 L 315.113281 456.652344 C 315.113281 468.132812 305.808594 477.441406 294.328125 477.441406 C 282.84375 477.441406 273.539062 468.132812 273.539062 456.652344 C 273.539062 445.171875 282.84375 435.863281 294.328125 435.863281 C 305.808594 435.863281 315.113281 445.171875 315.113281 456.652344 Z M 59.574219 337.4375 "/>
</clipPath>
<clipPath id="clip45">
  <path d="M 59.574219 337.4375 L 463.542969 337.4375 L 463.542969 669.894531 L 59.574219 669.894531 Z M 59.574219 337.4375 L 249.574219 550.675781 C 249.574219 562.15625 240.265625 571.464844 228.785156 571.464844 C 217.304688 571.464844 207.996094 562.15625 207.996094 550.675781 C 207.996094 539.195312 217.304688 529.886719 228.785156 529.886719 C 240.265625 529.886719 249.574219 539.195312 249.574219 550.675781 Z M 59.574219 337.4375 "/>
</clipPath>
<clipPath id="clip46">
  <path d="M 404 469.792969 L 530 469.792969 L 530 591.578125 L 404 591.578125 Z M 404 469.792969 "/>
</clipPath>
<clipPath id="clip47">
  <path d="M 259.78125 469.792969 L 674.023438 469.792969 L 674.023438 591.578125 L 259.78125 591.578125 Z M 259.78125 469.792969 L 483.660156 557.289062 C 483.660156 568.769531 474.351562 578.074219 462.871094 578.074219 C 451.386719 578.074219 442.082031 568.769531 442.082031 557.289062 C 442.082031 545.804688 451.386719 536.5 462.871094 536.5 C 474.351562 536.5 483.660156 545.804688 483.660156 557.289062 Z M 259.78125 469.792969 "/>
</clipPath>
<clipPath id="clip48">
  <path d="M 259.78125 469.792969 L 674.023438 469.792969 L 674.023438 591.578125 L 259.78125 591.578125 Z M 259.78125 469.792969 L 491.71875 504.078125 C 491.71875 515.558594 482.410156 524.867188 470.929688 524.867188 C 459.449219 524.867188 450.140625 515.558594 450.140625 504.078125 C 450.140625 492.59375 459.449219 483.289062 470.929688 483.289062 C 482.410156 483.289062 491.71875 492.59375 491.71875 504.078125 Z M 259.78125 469.792969 "/>
</clipPath>
<clipPath id="clip49">
  <path d="M 120 145 L 275 145 L 275 388 L 120 388 Z M 120 145 "/>
</clipPath>
<clipPath id="clip50">
  <path d="M -18.148438 142.9375 L 412.980469 142.9375 L 412.980469 390.269531 L -18.148438 390.269531 Z M -18.148438 142.9375 L 236.671875 204.160156 C 236.671875 215.640625 227.367188 224.949219 215.882812 224.949219 C 204.402344 224.949219 195.09375 215.640625 195.09375 204.160156 C 195.09375 192.679688 204.402344 183.371094 215.882812 183.371094 C 227.367188 183.371094 236.671875 192.679688 236.671875 204.160156 Z M -18.148438 142.9375 "/>
</clipPath>
<clipPath id="clip51">
  <path d="M -18.148438 142.9375 L 412.980469 142.9375 L 412.980469 390.269531 L -18.148438 390.269531 Z M -18.148438 142.9375 L 199.734375 329.042969 C 199.734375 340.523438 190.429688 349.832031 178.945312 349.832031 C 167.464844 349.832031 158.160156 340.523438 158.160156 329.042969 C 158.160156 317.5625 167.464844 308.253906 178.945312 308.253906 C 190.429688 308.253906 199.734375 317.5625 199.734375 329.042969 Z M -18.148438 142.9375 "/>
</clipPath>
<clipPath id="clip52">
  <path d="M 60 145 L 275 145 L 275 313 L 60 313 Z M 60 145 "/>
</clipPath>
<clipPath id="clip53">
  <path d="M 22.78125 21.414062 L 312.710938 21.414062 L 312.710938 436.867188 L 22.78125 436.867188 Z M 22.78125 21.414062 L 236.671875 204.160156 C 236.671875 215.640625 227.367188 224.949219 215.882812 224.949219 C 204.402344 224.949219 195.09375 215.640625 195.09375 204.160156 C 195.09375 192.679688 204.402344 183.371094 215.882812 183.371094 C 227.367188 183.371094 236.671875 192.679688 236.671875 204.160156 Z M 22.78125 21.414062 "/>
</clipPath>
<clipPath id="clip54">
  <path d="M 22.78125 21.414062 L 312.710938 21.414062 L 312.710938 436.867188 L 22.78125 436.867188 Z M 22.78125 21.414062 L 140.394531 254.117188 C 140.394531 265.597656 131.085938 274.90625 119.605469 274.90625 C 108.125 274.90625 98.816406 265.597656 98.816406 254.117188 C 98.816406 242.632812 108.125 233.328125 119.605469 233.328125 C 131.085938 233.328125 140.394531 242.632812 140.394531 254.117188 Z M 22.78125 21.414062 "/>
</clipPath>
<clipPath id="clip55">
  <path d="M 35.59375 194 L 126.664062 194 L 126.664062 313 L 35.59375 313 Z M 35.59375 194 "/>
</clipPath>
<clipPath id="clip56">
  <path d="M 35.59375 47.671875 L 126.664062 47.671875 L 126.664062 459.457031 L 35.59375 459.457031 Z M 35.59375 47.671875 L 63.4375 253.007812 C 63.4375 264.488281 54.128906 273.796875 42.648438 273.796875 C 31.167969 273.796875 21.859375 264.488281 21.859375 253.007812 C 21.859375 241.527344 31.167969 232.21875 42.648438 232.21875 C 54.128906 232.21875 63.4375 241.527344 63.4375 253.007812 Z M 35.59375 47.671875 "/>
</clipPath>
<clipPath id="clip57">
  <path d="M 35.59375 47.671875 L 126.664062 47.671875 L 126.664062 459.457031 L 35.59375 459.457031 Z M 35.59375 47.671875 L 140.394531 254.117188 C 140.394531 265.597656 131.085938 274.90625 119.605469 274.90625 C 108.125 274.90625 98.816406 265.597656 98.816406 254.117188 C 98.816406 242.632812 108.125 233.328125 119.605469 233.328125 C 131.085938 233.328125 140.394531 242.632812 140.394531 254.117188 Z M 35.59375 47.671875 "/>
</clipPath>
<clipPath id="clip58">
  <path d="M 0 194 L 141 194 L 141 349 L 0 349 Z M 0 194 "/>
</clipPath>
<clipPath id="clip59">
  <path d="M -98.515625 101.507812 L 223.175781 101.507812 L 223.175781 441.109375 L -98.515625 441.109375 Z M -98.515625 101.507812 L 63.4375 253.007812 C 63.4375 264.488281 54.128906 273.796875 42.648438 273.796875 C 31.167969 273.796875 21.859375 264.488281 21.859375 253.007812 C 21.859375 241.527344 31.167969 232.21875 42.648438 232.21875 C 54.128906 232.21875 63.4375 241.527344 63.4375 253.007812 Z M -98.515625 101.507812 "/>
</clipPath>
<clipPath id="clip60">
  <path d="M -98.515625 101.507812 L 223.175781 101.507812 L 223.175781 441.109375 L -98.515625 441.109375 Z M -98.515625 101.507812 L 102.796875 289.605469 C 102.796875 301.085938 93.492188 310.394531 82.007812 310.394531 C 70.527344 310.394531 61.21875 301.085938 61.21875 289.605469 C 61.21875 278.125 70.527344 268.816406 82.007812 268.816406 C 93.492188 268.816406 102.796875 278.125 102.796875 289.605469 Z M -98.515625 101.507812 "/>
</clipPath>
<clipPath id="clip61">
  <path d="M 60 195 L 238 195 L 238 388 L 60 388 Z M 60 195 "/>
</clipPath>
<clipPath id="clip62">
  <path d="M -42.277344 125.042969 L 340.832031 125.042969 L 340.832031 458.121094 L -42.277344 458.121094 Z M -42.277344 125.042969 L 199.734375 329.042969 C 199.734375 340.523438 190.429688 349.832031 178.945312 349.832031 C 167.464844 349.832031 158.160156 340.523438 158.160156 329.042969 C 158.160156 317.5625 167.464844 308.253906 178.945312 308.253906 C 190.429688 308.253906 199.734375 317.5625 199.734375 329.042969 Z M -42.277344 125.042969 "/>
</clipPath>
<clipPath id="clip63">
  <path d="M -42.277344 125.042969 L 340.832031 125.042969 L 340.832031 458.121094 L -42.277344 458.121094 Z M -42.277344 125.042969 L 140.394531 254.117188 C 140.394531 265.597656 131.085938 274.90625 119.605469 274.90625 C 108.125 274.90625 98.816406 265.597656 98.816406 254.117188 C 98.816406 242.632812 108.125 233.328125 119.605469 233.328125 C 131.085938 233.328125 140.394531 242.632812 140.394531 254.117188 Z M -42.277344 125.042969 "/>
</clipPath>
<clipPath id="clip64">
  <path d="M 120 270 L 266 270 L 266 480 L 120 480 Z M 120 270 "/>
</clipPath>
<clipPath id="clip65">
  <path d="M -17.867188 266.871094 L 403.449219 266.871094 L 403.449219 483.160156 L -17.867188 483.160156 Z M -17.867188 266.871094 L 199.734375 329.042969 C 199.734375 340.523438 190.429688 349.832031 178.945312 349.832031 C 167.464844 349.832031 158.160156 340.523438 158.160156 329.042969 C 158.160156 317.5625 167.464844 308.253906 178.945312 308.253906 C 190.429688 308.253906 199.734375 317.5625 199.734375 329.042969 Z M -17.867188 266.871094 "/>
</clipPath>
<clipPath id="clip66">
  <path d="M -17.867188 266.871094 L 403.449219 266.871094 L 403.449219 483.160156 L -17.867188 483.160156 Z M -17.867188 266.871094 L 227.421875 420.984375 C 227.421875 432.464844 218.113281 441.773438 206.632812 441.773438 C 195.152344 441.773438 185.84375 432.464844 185.84375 420.984375 C 185.84375 409.503906 195.152344 400.195312 206.632812 400.195312 C 218.113281 400.195312 227.421875 409.503906 227.421875 420.984375 Z M -17.867188 266.871094 "/>
</clipPath>
<clipPath id="clip67">
  <path d="M 23 230 L 238 230 L 238 388 L 23 388 Z M 23 230 "/>
</clipPath>
<clipPath id="clip68">
  <path d="M 2.03125 99.082031 L 258.925781 99.082031 L 258.925781 519.570312 L 2.03125 519.570312 Z M 2.03125 99.082031 L 199.734375 329.042969 C 199.734375 340.523438 190.429688 349.832031 178.945312 349.832031 C 167.464844 349.832031 158.160156 340.523438 158.160156 329.042969 C 158.160156 317.5625 167.464844 308.253906 178.945312 308.253906 C 190.429688 308.253906 199.734375 317.5625 199.734375 329.042969 Z M 2.03125 99.082031 "/>
</clipPath>
<clipPath id="clip69">
  <path d="M 2.03125 99.082031 L 258.925781 99.082031 L 258.925781 519.570312 L 2.03125 519.570312 Z M 2.03125 99.082031 L 102.796875 289.605469 C 102.796875 301.085938 93.492188 310.394531 82.007812 310.394531 C 70.527344 310.394531 61.21875 301.085938 61.21875 289.605469 C 61.21875 278.125 70.527344 268.816406 82.007812 268.816406 C 93.492188 268.816406 102.796875 278.125 102.796875 289.605469 Z M 2.03125 99.082031 "/>
</clipPath>
<clipPath id="clip70">
  <path d="M 23 195 L 179 195 L 179 349 L 23 349 Z M 23 195 "/>
</clipPath>
<clipPath id="clip71">
  <path d="M -60.253906 103.644531 L 261.871094 103.644531 L 261.871094 440.082031 L -60.253906 440.082031 Z M -60.253906 103.644531 L 140.394531 254.117188 C 140.394531 265.597656 131.085938 274.90625 119.605469 274.90625 C 108.125 274.90625 98.816406 265.597656 98.816406 254.117188 C 98.816406 242.632812 108.125 233.328125 119.605469 233.328125 C 131.085938 233.328125 140.394531 242.632812 140.394531 254.117188 Z M -60.253906 103.644531 "/>
</clipPath>
<clipPath id="clip72">
  <path d="M -60.253906 103.644531 L 261.871094 103.644531 L 261.871094 440.082031 L -60.253906 440.082031 Z M -60.253906 103.644531 L 102.796875 289.605469 C 102.796875 301.085938 93.492188 310.394531 82.007812 310.394531 C 70.527344 310.394531 61.21875 301.085938 61.21875 289.605469 C 61.21875 278.125 70.527344 268.816406 82.007812 268.816406 C 93.492188 268.816406 102.796875 278.125 102.796875 289.605469 Z M -60.253906 103.644531 "/>
</clipPath>
</defs>
<g id="surface171">
<g clip-path="url(#clip1)" clip-rule="nonzero">
<g clip-path="url(#clip2)" clip-rule="evenodd">
<g clip-path="url(#clip3)" clip-rule="evenodd">
<path style="fill:none;stroke-width:0.0206647;stroke-linecap:butt;stroke-linejoin:miter;stroke:rgb(17.96875%,20.3125%,21.09375%);stroke-opacity:0.8;stroke-miterlimit:10;" d="M 2.814934 1.12979 L 2.386646 1.173338 " transform="matrix(201.20052,0,0,201.20052,-131.780268,-133.857395)"/>
</g>
</g>
</g>
<g clip-path="url(#clip4)" clip-rule="nonzero">
<g clip-path="url(#clip5)" clip-rule="evenodd">
<g clip-path="url(#clip6)" clip-rule="evenodd">
<path style="fill:none;stroke-width:0.0206647;stroke-linecap:butt;stroke-linejoin:miter;stroke:rgb(17.96875%,20.3125%,21.09375%);stroke-opacity:0.8;stroke-miterlimit:10;" d="M 2.814934 1.12979 L 2.656258 0.994509 " transform="matrix(201.20052,0,0,201.20052,-131.780268,-133.857395)"/>
</g>
</g>
</g>
<g clip-path="url(#clip7)" clip-rule="nonzero">
<g clip-path="url(#clip8)" clip-rule="evenodd">
<g clip-path="url(#clip9)" clip-rule="evenodd">
<path style="fill:none;stroke-width:0.0206647;stroke-linecap:butt;stroke-linejoin:miter;stroke:rgb(17.96875%,20.3125%,21.09375%);stroke-opacity:0.8;stroke-miterlimit:10;" d="M 2.386646 1.173338 L 2.464033 0.877574 " transform="matrix(201.20052,0,0,201.20052,-131.780268,-133.857395)"/>
</g>
</g>
</g>
<g clip-path="url(#clip10)" clip-rule="nonzero">
<g clip-path="url(#clip11)" clip-rule="evenodd">
<g clip-path="url(#clip12)" clip-rule="evenodd">
<path style="fill:none;stroke-width:0.0206647;stroke-linecap:butt;stroke-linejoin:miter;stroke:rgb(17.96875%,20.3125%,21.09375%);stroke-opacity:0.8;stroke-miterlimit:10;" d="M 2.386646 1.173338 L 2.656258 0.994509 " transform="matrix(201.20052,0,0,201.20052,-131.780268,-133.857395)"/>
</g>
</g>
</g>
<g clip-path="url(#clip13)" clip-rule="nonzero">
<g clip-path="url(#clip14)" clip-rule="evenodd">
<g clip-path="url(#clip15)" clip-rule="evenodd">
<path style="fill:none;stroke-width:0.0206647;stroke-linecap:butt;stroke-linejoin:miter;stroke:rgb(17.96875%,20.3125%,21.09375%);stroke-opacity:0.8;stroke-miterlimit:10;" d="M 2.386646 1.173338 L 1.727943 1.680003 " transform="matrix(201.20052,0,0,201.20052,-131.780268,-133.857395)"/>
</g>
</g>
</g>
<g clip-path="url(#clip16)" clip-rule="nonzero">
<g clip-path="url(#clip17)" clip-rule="evenodd">
<g clip-path="url(#clip18)" clip-rule="evenodd">
<path style="fill:none;stroke-width:0.0206647;stroke-linecap:butt;stroke-linejoin:miter;stroke:rgb(17.96875%,20.3125%,21.09375%);stroke-opacity:0.8;stroke-miterlimit:10;" d="M 2.464033 0.877574 L 2.656258 0.994509 " transform="matrix(201.20052,0,0,201.20052,-131.780268,-133.857395)"/>
</g>
</g>
</g>
<g clip-path="url(#clip19)" clip-rule="nonzero">
<g clip-path="url(#clip20)" clip-rule="evenodd">
<g clip-path="url(#clip21)" clip-rule="evenodd">
<path style="fill:none;stroke-width:0.0206647;stroke-linecap:butt;stroke-linejoin:miter;stroke:rgb(17.96875%,20.3125%,21.09375%);stroke-opacity:0.8;stroke-miterlimit:10;" d="M 2.658976 3.274728 L 2.117829 2.934931 " transform="matrix(201.20052,0,0,201.20052,-131.780268,-133.857395)"/>
</g>
</g>
</g>
<g clip-path="url(#clip22)" clip-rule="nonzero">
<g clip-path="url(#clip23)" clip-rule="evenodd">
<g clip-path="url(#clip24)" clip-rule="evenodd">
<path style="fill:none;stroke-width:0.0206647;stroke-linecap:butt;stroke-linejoin:miter;stroke:rgb(17.96875%,20.3125%,21.09375%);stroke-opacity:0.8;stroke-miterlimit:10;" d="M 2.658976 3.274728 L 2.955516 3.435113 " transform="matrix(201.20052,0,0,201.20052,-131.780268,-133.857395)"/>
</g>
</g>
</g>
<g clip-path="url(#clip25)" clip-rule="nonzero">
<g clip-path="url(#clip26)" clip-rule="evenodd">
<g clip-path="url(#clip27)" clip-rule="evenodd">
<path style="fill:none;stroke-width:0.0206647;stroke-linecap:butt;stroke-linejoin:miter;stroke:rgb(17.96875%,20.3125%,21.09375%);stroke-opacity:0.8;stroke-miterlimit:10;" d="M 2.658976 3.274728 L 2.995569 3.170645 " transform="matrix(201.20052,0,0,201.20052,-131.780268,-133.857395)"/>
</g>
</g>
</g>
<g clip-path="url(#clip28)" clip-rule="nonzero">
<g clip-path="url(#clip29)" clip-rule="evenodd">
<g clip-path="url(#clip30)" clip-rule="evenodd">
<path style="fill:none;stroke-width:0.0206647;stroke-linecap:butt;stroke-linejoin:miter;stroke:rgb(17.96875%,20.3125%,21.09375%);stroke-opacity:0.8;stroke-miterlimit:10;" d="M 2.958137 2.769809 L 2.117829 2.934931 " transform="matrix(201.20052,0,0,201.20052,-131.780268,-133.857395)"/>
</g>
</g>
</g>
<g clip-path="url(#clip31)" clip-rule="nonzero">
<g clip-path="url(#clip32)" clip-rule="evenodd">
<g clip-path="url(#clip33)" clip-rule="evenodd">
<path style="fill:none;stroke-width:0.0206647;stroke-linecap:butt;stroke-linejoin:miter;stroke:rgb(17.96875%,20.3125%,21.09375%);stroke-opacity:0.8;stroke-miterlimit:10;" d="M 2.958137 2.769809 L 3.4251 2.482879 " transform="matrix(201.20052,0,0,201.20052,-131.780268,-133.857395)"/>
</g>
</g>
</g>
<g clip-path="url(#clip34)" clip-rule="nonzero">
<g clip-path="url(#clip35)" clip-rule="evenodd">
<g clip-path="url(#clip36)" clip-rule="evenodd">
<path style="fill:none;stroke-width:0.0206647;stroke-linecap:butt;stroke-linejoin:miter;stroke:rgb(17.96875%,20.3125%,21.09375%);stroke-opacity:0.8;stroke-miterlimit:10;" d="M 2.958137 2.769809 L 2.995569 3.170645 " transform="matrix(201.20052,0,0,201.20052,-131.780268,-133.857395)"/>
</g>
</g>
</g>
<g clip-path="url(#clip37)" clip-rule="nonzero">
<g clip-path="url(#clip38)" clip-rule="evenodd">
<g clip-path="url(#clip39)" clip-rule="evenodd">
<path style="fill:none;stroke-width:0.0206647;stroke-linecap:butt;stroke-linejoin:miter;stroke:rgb(17.96875%,20.3125%,21.09375%);stroke-opacity:0.8;stroke-miterlimit:10;" d="M 2.117829 2.934931 L 1.544358 2.300692 " transform="matrix(201.20052,0,0,201.20052,-131.780268,-133.857395)"/>
</g>
</g>
</g>
<g clip-path="url(#clip40)" clip-rule="nonzero">
<g clip-path="url(#clip41)" clip-rule="evenodd">
<g clip-path="url(#clip42)" clip-rule="evenodd">
<path style="fill:none;stroke-width:0.0206647;stroke-linecap:butt;stroke-linejoin:miter;stroke:rgb(17.96875%,20.3125%,21.09375%);stroke-opacity:0.8;stroke-miterlimit:10;" d="M 2.117829 2.934931 L 1.681969 2.757656 " transform="matrix(201.20052,0,0,201.20052,-131.780268,-133.857395)"/>
</g>
</g>
</g>
<g clip-path="url(#clip43)" clip-rule="nonzero">
<g clip-path="url(#clip44)" clip-rule="evenodd">
<g clip-path="url(#clip45)" clip-rule="evenodd">
<path style="fill:none;stroke-width:0.0206647;stroke-linecap:butt;stroke-linejoin:miter;stroke:rgb(17.96875%,20.3125%,21.09375%);stroke-opacity:0.8;stroke-miterlimit:10;" d="M 2.117829 2.934931 L 1.79207 3.402244 " transform="matrix(201.20052,0,0,201.20052,-131.780268,-133.857395)"/>
</g>
</g>
</g>
<g clip-path="url(#clip46)" clip-rule="nonzero">
<g clip-path="url(#clip47)" clip-rule="evenodd">
<g clip-path="url(#clip48)" clip-rule="evenodd">
<path style="fill:none;stroke-width:0.0206647;stroke-linecap:butt;stroke-linejoin:miter;stroke:rgb(17.96875%,20.3125%,21.09375%);stroke-opacity:0.8;stroke-miterlimit:10;" d="M 2.955516 3.435113 L 2.995569 3.170645 " transform="matrix(201.20052,0,0,201.20052,-131.780268,-133.857395)"/>
</g>
</g>
</g>
<g clip-path="url(#clip49)" clip-rule="nonzero">
<g clip-path="url(#clip50)" clip-rule="evenodd">
<g clip-path="url(#clip51)" clip-rule="evenodd">
<path style="fill:none;stroke-width:0.0206647;stroke-linecap:butt;stroke-linejoin:miter;stroke:rgb(17.96875%,20.3125%,21.09375%);stroke-opacity:0.8;stroke-miterlimit:10;" d="M 1.727943 1.680003 L 1.544358 2.300692 " transform="matrix(201.20052,0,0,201.20052,-131.780268,-133.857395)"/>
</g>
</g>
</g>
<g clip-path="url(#clip52)" clip-rule="nonzero">
<g clip-path="url(#clip53)" clip-rule="evenodd">
<g clip-path="url(#clip54)" clip-rule="evenodd">
<path style="fill:none;stroke-width:0.0206647;stroke-linecap:butt;stroke-linejoin:miter;stroke:rgb(17.96875%,20.3125%,21.09375%);stroke-opacity:0.8;stroke-miterlimit:10;" d="M 1.727943 1.680003 L 1.249429 1.928298 " transform="matrix(201.20052,0,0,201.20052,-131.780268,-133.857395)"/>
</g>
</g>
</g>
<g clip-path="url(#clip55)" clip-rule="nonzero">
<g clip-path="url(#clip56)" clip-rule="evenodd">
<g clip-path="url(#clip57)" clip-rule="evenodd">
<path style="fill:none;stroke-width:0.0206647;stroke-linecap:butt;stroke-linejoin:miter;stroke:rgb(17.96875%,20.3125%,21.09375%);stroke-opacity:0.8;stroke-miterlimit:10;" d="M 0.86694 1.922784 L 1.249429 1.928298 " transform="matrix(201.20052,0,0,201.20052,-131.780268,-133.857395)"/>
</g>
</g>
</g>
<g clip-path="url(#clip58)" clip-rule="nonzero">
<g clip-path="url(#clip59)" clip-rule="evenodd">
<g clip-path="url(#clip60)" clip-rule="evenodd">
<path style="fill:none;stroke-width:0.0206647;stroke-linecap:butt;stroke-linejoin:miter;stroke:rgb(17.96875%,20.3125%,21.09375%);stroke-opacity:0.8;stroke-miterlimit:10;" d="M 0.86694 1.922784 L 1.062562 2.104681 " transform="matrix(201.20052,0,0,201.20052,-131.780268,-133.857395)"/>
</g>
</g>
</g>
<g clip-path="url(#clip61)" clip-rule="nonzero">
<g clip-path="url(#clip62)" clip-rule="evenodd">
<g clip-path="url(#clip63)" clip-rule="evenodd">
<path style="fill:none;stroke-width:0.0206647;stroke-linecap:butt;stroke-linejoin:miter;stroke:rgb(17.96875%,20.3125%,21.09375%);stroke-opacity:0.8;stroke-miterlimit:10;" d="M 1.544358 2.300692 L 1.249429 1.928298 " transform="matrix(201.20052,0,0,201.20052,-131.780268,-133.857395)"/>
</g>
</g>
</g>
<g clip-path="url(#clip64)" clip-rule="nonzero">
<g clip-path="url(#clip65)" clip-rule="evenodd">
<g clip-path="url(#clip66)" clip-rule="evenodd">
<path style="fill:none;stroke-width:0.0206647;stroke-linecap:butt;stroke-linejoin:miter;stroke:rgb(17.96875%,20.3125%,21.09375%);stroke-opacity:0.8;stroke-miterlimit:10;" d="M 1.544358 2.300692 L 1.681969 2.757656 " transform="matrix(201.20052,0,0,201.20052,-131.780268,-133.857395)"/>
</g>
</g>
</g>
<g clip-path="url(#clip67)" clip-rule="nonzero">
<g clip-path="url(#clip68)" clip-rule="evenodd">
<g clip-path="url(#clip69)" clip-rule="evenodd">
<path style="fill:none;stroke-width:0.0206647;stroke-linecap:butt;stroke-linejoin:miter;stroke:rgb(17.96875%,20.3125%,21.09375%);stroke-opacity:0.8;stroke-miterlimit:10;" d="M 1.544358 2.300692 L 1.062562 2.104681 " transform="matrix(201.20052,0,0,201.20052,-131.780268,-133.857395)"/>
</g>
</g>
</g>
<g clip-path="url(#clip70)" clip-rule="nonzero">
<g clip-path="url(#clip71)" clip-rule="evenodd">
<g clip-path="url(#clip72)" clip-rule="evenodd">
<path style="fill:none;stroke-width:0.0206647;stroke-linecap:butt;stroke-linejoin:miter;stroke:rgb(17.96875%,20.3125%,21.09375%);stroke-opacity:0.8;stroke-miterlimit:10;" d="M 1.249429 1.928298 L 1.062562 2.104681 " transform="matrix(201.20052,0,0,201.20052,-131.780268,-133.857395)"/>
</g>
</g>
</g>
<path style="fill-rule:nonzero;fill:rgb(100%,92.941176%,43.529412%);fill-opacity:1;stroke-width:0.0206647;stroke-linecap:butt;stroke-linejoin:miter;stroke:rgb(60%,60%,60%);stroke-opacity:0.8;stroke-miterlimit:10;" d="M 0.103315 0.00000879939 C 0.103315 0.0570686 0.0570696 0.103314 -0.00000965751 0.103314 C -0.0570695 0.103314 -0.103315 0.0570686 -0.103315 0.00000879939 C -0.103315 -0.0570705 -0.0570695 -0.103316 -0.00000965751 -0.103316 C 0.0570696 -0.103316 0.103315 -0.0570705 0.103315 0.00000879939 Z M 0.103315 0.00000879939 " transform="matrix(201.20052,0,0,201.20052,434.587881,93.455261)"/>
<path style="fill-rule:nonzero;fill:rgb(100%,92.941176%,43.529412%);fill-opacity:1;stroke-width:0.0206647;stroke-linecap:butt;stroke-linejoin:miter;stroke:rgb(60%,60%,60%);stroke-opacity:0.8;stroke-miterlimit:10;" d="M 0.103325 -0.00000557984 C 0.103325 0.0570737 0.0570595 0.10332 -0.000000364696 0.10332 C -0.0570602 0.10332 -0.103325 0.0570737 -0.103325 -0.00000557984 C -0.103325 -0.0570654 -0.0570602 -0.103331 -0.000000364696 -0.103331 C 0.0570595 -0.103331 0.103325 -0.0570654 0.103325 -0.00000557984 Z M 0.103325 -0.00000557984 " transform="matrix(201.20052,0,0,201.20052,348.414136,102.219873)"/>
<path style="fill-rule:nonzero;fill:rgb(100%,92.941176%,43.529412%);fill-opacity:1;stroke-width:0.0206647;stroke-linecap:butt;stroke-linejoin:miter;stroke:rgb(60%,60%,60%);stroke-opacity:0.8;stroke-miterlimit:10;" d="M 0.103322 -0.00000902694 C 0.103322 0.0570702 0.057057 0.103316 -0.00000280479 0.103316 C -0.0570626 0.103316 -0.103328 0.0570702 -0.103328 -0.00000902694 C -0.103328 -0.0570689 -0.0570626 -0.103315 -0.00000280479 -0.103315 C 0.057057 -0.103315 0.103322 -0.0570689 0.103322 -0.00000902694 Z M 0.103322 -0.00000902694 " transform="matrix(201.20052,0,0,201.20052,363.984939,42.712754)"/>
<path style="fill-rule:nonzero;fill:rgb(100%,92.941176%,43.529412%);fill-opacity:1;stroke-width:0.0206647;stroke-linecap:butt;stroke-linejoin:miter;stroke:rgb(60%,60%,60%);stroke-opacity:0.8;stroke-miterlimit:10;" d="M 0.10333 0.00000321193 C 0.10333 0.057063 0.0570646 0.103328 0.00000471816 0.103328 C -0.0570551 0.103328 -0.10332 0.057063 -0.10332 0.00000321193 C -0.10332 -0.0570566 -0.0570551 -0.103322 0.00000471816 -0.103322 C 0.0570646 -0.103322 0.10333 -0.0570566 0.10333 0.00000321193 Z M 0.10333 0.00000321193 " transform="matrix(201.20052,0,0,201.20052,402.659207,66.237635)"/>
<path style="fill-rule:nonzero;fill:rgb(55.294118%,82.745098%,78.039216%);fill-opacity:1;stroke-width:0.0206647;stroke-linecap:butt;stroke-linejoin:miter;stroke:rgb(60%,60%,60%);stroke-opacity:0.8;stroke-miterlimit:10;" d="M 0.103329 0.0000029779 C 0.103329 0.0570628 0.0570636 0.103328 0.00000378018 0.103328 C -0.0570561 0.103328 -0.103321 0.0570628 -0.103321 0.0000029779 C -0.103321 -0.0570569 -0.0570561 -0.103322 0.00000378018 -0.103322 C 0.0570636 -0.103322 0.103329 -0.0570569 0.103329 0.0000029779 Z M 0.103329 0.0000029779 " transform="matrix(201.20052,0,0,201.20052,403.206271,525.018932)"/>
<path style="fill-rule:nonzero;fill:rgb(55.294118%,82.745098%,78.039216%);fill-opacity:1;stroke-width:0.0206647;stroke-linecap:butt;stroke-linejoin:miter;stroke:rgb(60%,60%,60%);stroke-opacity:0.8;stroke-miterlimit:10;" d="M 0.103333 -0.00000910942 C 0.103333 0.0570701 0.0570673 0.103316 0.00000742817 0.103316 C -0.0570718 0.103316 -0.103318 0.0570701 -0.103318 -0.00000910942 C -0.103318 -0.0570689 -0.0570718 -0.103315 0.00000742817 -0.103315 C 0.0570673 -0.103315 0.103333 -0.0570689 0.103333 -0.00000910942 Z M 0.103333 -0.00000910942 " transform="matrix(201.20052,0,0,201.20052,463.396943,423.43152)"/>
<path style="fill-rule:nonzero;fill:rgb(55.294118%,82.745098%,78.039216%);fill-opacity:1;stroke-width:0.0206647;stroke-linecap:butt;stroke-linejoin:miter;stroke:rgb(60%,60%,60%);stroke-opacity:0.8;stroke-miterlimit:10;" d="M 0.103315 -0.00000192134 C 0.103315 0.0570579 0.0570693 0.103323 0.00000948092 0.103323 C -0.0570698 0.103323 -0.103316 0.0570579 -0.103316 -0.00000192134 C -0.103316 -0.0570618 -0.0570698 -0.103327 0.00000948092 -0.103327 C 0.0570693 -0.103327 0.103315 -0.0570618 0.103315 -0.00000192134 Z M 0.103315 -0.00000192134 " transform="matrix(201.20052,0,0,201.20052,294.326217,456.65273)"/>
<path style="fill-rule:nonzero;fill:rgb(55.294118%,82.745098%,78.039216%);fill-opacity:1;stroke-width:0.0206647;stroke-linecap:butt;stroke-linejoin:miter;stroke:rgb(60%,60%,60%);stroke-opacity:0.8;stroke-miterlimit:10;" d="M 0.103332 0.00000902694 C 0.103332 0.0570689 0.0570667 0.103315 0.00000689668 0.103315 C -0.0570724 0.103315 -0.103318 0.0570689 -0.103318 0.00000902694 C -0.103318 -0.0570702 -0.0570724 -0.103316 0.00000689668 -0.103316 C 0.0570667 -0.103316 0.103332 -0.0570702 0.103332 0.00000902694 Z M 0.103332 0.00000902694 " transform="matrix(201.20052,0,0,201.20052,462.869706,557.287246)"/>
<path style="fill-rule:nonzero;fill:rgb(55.294118%,82.745098%,78.039216%);fill-opacity:1;stroke-width:0.0206647;stroke-linecap:butt;stroke-linejoin:miter;stroke:rgb(60%,60%,60%);stroke-opacity:0.8;stroke-miterlimit:10;" d="M 0.103328 -0.00000561734 C 0.103328 0.0570736 0.0570629 0.103319 0.00000310016 0.103319 C -0.0570567 0.103319 -0.103322 0.0570736 -0.103322 -0.00000561734 C -0.103322 -0.0570655 -0.0570567 -0.103331 0.00000310016 -0.103331 C 0.0570629 -0.103331 0.103328 -0.0570655 0.103328 -0.00000561734 Z M 0.103328 -0.00000561734 " transform="matrix(201.20052,0,0,201.20052,557.350939,365.700349)"/>
<path style="fill-rule:nonzero;fill:rgb(55.294118%,82.745098%,78.039216%);fill-opacity:1;stroke-width:0.0206647;stroke-linecap:butt;stroke-linejoin:miter;stroke:rgb(60%,60%,60%);stroke-opacity:0.8;stroke-miterlimit:10;" d="M 0.103321 0.00000764276 C 0.103321 0.0570675 0.0570557 0.103333 -0.00000415366 0.103333 C -0.057064 0.103333 -0.103329 0.0570675 -0.103329 0.00000764276 C -0.103329 -0.0570716 -0.057064 -0.103317 -0.00000415366 -0.103317 C 0.0570557 -0.103317 0.103321 -0.0570716 0.103321 0.00000764276 Z M 0.103321 0.00000764276 " transform="matrix(201.20052,0,0,201.20052,470.930523,504.076587)"/>
<path style="fill-rule:nonzero;fill:rgb(100%,92.941176%,43.529412%);fill-opacity:1;stroke-width:0.0206647;stroke-linecap:butt;stroke-linejoin:miter;stroke:rgb(60%,60%,60%);stroke-opacity:0.8;stroke-miterlimit:10;" d="M 0.103318 0.00000173612 C 0.103318 0.0570616 0.0570723 0.103327 -0.00000698133 0.103327 C -0.0570668 0.103327 -0.103332 0.0570616 -0.103332 0.00000173612 C -0.103332 -0.0570581 -0.0570668 -0.103323 -0.00000698133 -0.103323 C 0.0570723 -0.103323 0.103318 -0.0570581 0.103318 0.00000173612 Z M 0.103318 0.00000173612 " transform="matrix(201.20052,0,0,201.20052,215.884217,204.159807)"/>
<path style="fill-rule:nonzero;fill:rgb(55.294118%,82.745098%,78.039216%);fill-opacity:1;stroke-width:0.0206647;stroke-linecap:butt;stroke-linejoin:miter;stroke:rgb(60%,60%,60%);stroke-opacity:0.8;stroke-miterlimit:10;" d="M 0.103322 0.000000255256 C 0.103322 0.0570601 0.0570567 0.103325 -0.00000310016 0.103325 C -0.0570629 0.103325 -0.103328 0.0570601 -0.103328 0.000000255256 C -0.103328 -0.0570596 -0.0570629 -0.103325 -0.00000310016 -0.103325 C 0.0570567 -0.103325 0.103322 -0.0570596 0.103322 0.000000255256 Z M 0.103322 0.000000255256 " transform="matrix(201.20052,0,0,201.20052,42.649061,253.007761)"/>
<path style="fill-rule:nonzero;fill:rgb(55.294118%,82.745098%,78.039216%);fill-opacity:1;stroke-width:0.0206647;stroke-linecap:butt;stroke-linejoin:miter;stroke:rgb(60%,60%,60%);stroke-opacity:0.8;stroke-miterlimit:10;" d="M 0.103316 -0.00000525795 C 0.103316 0.0570546 0.0570706 0.10332 -0.00000869369 0.10332 C -0.0570685 0.10332 -0.103314 0.0570546 -0.103314 -0.00000525795 C -0.103314 -0.0570651 -0.0570685 -0.10333 -0.00000869369 -0.10333 C 0.0570706 -0.10333 0.103316 -0.0570651 0.103316 -0.00000525795 Z M 0.103316 -0.00000525795 " transform="matrix(201.20052,0,0,201.20052,178.947062,329.044027)"/>
<path style="fill-rule:nonzero;fill:rgb(55.294118%,82.745098%,78.039216%);fill-opacity:1;stroke-width:0.0206647;stroke-linecap:butt;stroke-linejoin:miter;stroke:rgb(60%,60%,60%);stroke-opacity:0.8;stroke-miterlimit:10;" d="M 0.103326 0.00000695451 C 0.103326 0.0570668 0.0570605 0.103332 0.000000655698 0.103332 C -0.0570592 0.103332 -0.103324 0.0570668 -0.103324 0.00000695451 C -0.103324 -0.0570723 -0.0570592 -0.103318 0.000000655698 -0.103318 C 0.0570605 -0.103318 0.103326 -0.0570723 0.103326 0.00000695451 Z M 0.103326 0.00000695451 " transform="matrix(201.20052,0,0,201.20052,119.605337,254.115788)"/>
<path style="fill-rule:nonzero;fill:rgb(55.294118%,82.745098%,78.039216%);fill-opacity:1;stroke-width:0.0206647;stroke-linecap:butt;stroke-linejoin:miter;stroke:rgb(60%,60%,60%);stroke-opacity:0.8;stroke-miterlimit:10;" d="M 0.103327 -0.00000431101 C 0.103327 0.0570555 0.0570615 0.103321 0.00000166878 0.103321 C -0.0570582 0.103321 -0.103323 0.0570555 -0.103323 -0.00000431101 C -0.103323 -0.0570641 -0.0570582 -0.103329 0.00000166878 -0.103329 C 0.0570615 -0.103329 0.103327 -0.0570641 0.103327 -0.00000431101 Z M 0.103327 -0.00000431101 " transform="matrix(201.20052,0,0,201.20052,206.632477,420.985242)"/>
<path style="fill-rule:nonzero;fill:rgb(55.294118%,82.745098%,78.039216%);fill-opacity:1;stroke-width:0.0206647;stroke-linecap:butt;stroke-linejoin:miter;stroke:rgb(60%,60%,60%);stroke-opacity:0.8;stroke-miterlimit:10;" d="M 0.103322 -0.00000441266 C 0.103322 0.0570554 0.0570564 0.103321 -0.00000338939 0.103321 C -0.0570632 0.103321 -0.103328 0.0570554 -0.103328 -0.00000441266 C -0.103328 -0.0570642 -0.0570632 -0.10333 -0.00000338939 -0.10333 C 0.0570564 -0.10333 0.103322 -0.0570642 0.103322 -0.00000441266 Z M 0.103322 -0.00000441266 " transform="matrix(201.20052,0,0,201.20052,228.785838,550.676669)"/>
<path style="fill-rule:nonzero;fill:rgb(55.294118%,82.745098%,78.039216%);fill-opacity:1;stroke-width:0.0206647;stroke-linecap:butt;stroke-linejoin:miter;stroke:rgb(60%,60%,60%);stroke-opacity:0.8;stroke-miterlimit:10;" d="M 0.103319 -0.00000136358 C 0.103319 0.0570585 0.0570732 0.103324 -0.00000601353 0.103324 C -0.0570658 0.103324 -0.103331 0.0570585 -0.103331 -0.00000136358 C -0.103331 -0.0570612 -0.0570658 -0.103326 -0.00000601353 -0.103326 C 0.0570732 -0.103326 0.103319 -0.0570612 0.103319 -0.00000136358 Z M 0.103319 -0.00000136358 " transform="matrix(201.20052,0,0,201.20052,82.009022,289.605743)"/>
</g>
</svg>
