<?xml version="1.0" encoding="UTF-8"?>
<svg xmlns="http://www.w3.org/2000/svg" xmlns:xlink="http://www.w3.org/1999/xlink" width="600pt" height="600pt" viewBox="0 0 600 600" version="1.1">
<defs>
<clipPath id="clip1">
  <path d="M 321.617188 0 L 395.199219 0 L 395.199219 98 L 321.617188 98 Z M 321.617188 0 "/>
</clipPath>
<clipPath id="clip2">
  <path d="M 321.617188 -147.007812 L 395.199219 -147.007812 L 395.199219 230.246094 L 321.617188 230.246094 Z M 321.617188 -147.007812 L 348.082031 41.152344 C 348.082031 52.011719 339.277344 60.816406 328.417969 60.816406 C 317.558594 60.816406 308.753906 52.011719 308.753906 41.152344 C 308.753906 30.292969 317.558594 21.488281 328.417969 21.488281 C 339.277344 21.488281 348.082031 30.292969 348.082031 41.152344 Z M 321.617188 -147.007812 "/>
</clipPath>
<clipPath id="clip3">
  <path d="M 321.617188 -147.007812 L 395.199219 -147.007812 L 395.199219 230.246094 L 321.617188 230.246094 Z M 321.617188 -147.007812 L 408.0625 42.085938 C 408.0625 52.945312 399.257812 61.75 388.398438 61.75 C 377.535156 61.75 368.730469 52.945312 368.730469 42.085938 C 368.730469 31.226562 377.535156 22.421875 388.398438 22.421875 C 399.257812 22.421875 408.0625 31.226562 408.0625 42.085938 Z M 321.617188 -147.007812 "/>
</clipPath>
<clipPath id="clip4">
  <path d="M 237.941406 0 L 334.957031 0 L 334.957031 98 L 237.941406 98 Z M 237.941406 0 "/>
</clipPath>
<clipPath id="clip5">
  <path d="M 237.941406 -147.011719 L 334.957031 -147.011719 L 334.957031 230.503906 L 237.941406 230.503906 Z M 237.941406 -147.011719 L 348.082031 41.152344 C 348.082031 52.011719 339.277344 60.816406 328.417969 60.816406 C 317.558594 60.816406 308.753906 52.011719 308.753906 41.152344 C 308.753906 30.292969 317.558594 21.488281 328.417969 21.488281 C 339.277344 21.488281 348.082031 30.292969 348.082031 41.152344 Z M 237.941406 -147.011719 "/>
</clipPath>
<clipPath id="clip6">
  <path d="M 237.941406 -147.011719 L 334.957031 -147.011719 L 334.957031 230.503906 L 237.941406 230.503906 Z M 237.941406 -147.011719 L 264.144531 42.339844 C 264.144531 53.199219 255.339844 62.003906 244.480469 62.003906 C 233.621094 62.003906 224.816406 53.199219 224.816406 42.339844 C 224.816406 31.480469 233.621094 22.675781 244.480469 22.675781 C 255.339844 22.675781 264.144531 31.480469 264.144531 42.339844 Z M 237.941406 -147.011719 "/>
</clipPath>
<clipPath id="clip7">
  <path d="M 272 0 L 419 0 L 419 148 L 272 148 Z M 272 0 "/>
</clipPath>
<clipPath id="clip8">
  <path d="M 171.792969 -65.898438 L 519.109375 -65.898438 L 519.109375 198.648438 L 171.792969 198.648438 Z M 171.792969 -65.898438 L 348.082031 41.152344 C 348.082031 52.011719 339.277344 60.816406 328.417969 60.816406 C 317.558594 60.816406 308.753906 52.011719 308.753906 41.152344 C 308.753906 30.292969 317.558594 21.488281 328.417969 21.488281 C 339.277344 21.488281 348.082031 30.292969 348.082031 41.152344 Z M 171.792969 -65.898438 "/>
</clipPath>
<clipPath id="clip9">
  <path d="M 171.792969 -65.898438 L 519.109375 -65.898438 L 519.109375 198.648438 L 171.792969 198.648438 Z M 171.792969 -65.898438 L 382.148438 91.597656 C 382.148438 102.457031 373.34375 111.261719 362.484375 111.261719 C 351.625 111.261719 342.820312 102.457031 342.820312 91.597656 C 342.820312 80.738281 351.625 71.933594 362.484375 71.933594 C 373.34375 71.933594 382.148438 80.738281 382.148438 91.597656 Z M 171.792969 -65.898438 "/>
</clipPath>
<clipPath id="clip10">
  <path d="M 306 0 L 445 0 L 445 148 L 306 148 Z M 306 0 "/>
</clipPath>
<clipPath id="clip11">
  <path d="M 195.308594 -47.289062 L 555.574219 -47.289062 L 555.574219 180.972656 L 195.308594 180.972656 Z M 195.308594 -47.289062 L 408.0625 42.085938 C 408.0625 52.945312 399.257812 61.75 388.398438 61.75 C 377.535156 61.75 368.730469 52.945312 368.730469 42.085938 C 368.730469 31.226562 377.535156 22.421875 388.398438 22.421875 C 399.257812 22.421875 408.0625 31.226562 408.0625 42.085938 Z M 195.308594 -47.289062 "/>
</clipPath>
<clipPath id="clip12">
  <path d="M 195.308594 -47.289062 L 555.574219 -47.289062 L 555.574219 180.972656 L 195.308594 180.972656 Z M 195.308594 -47.289062 L 382.148438 91.597656 C 382.148438 102.457031 373.34375 111.261719 362.484375 111.261719 C 351.625 111.261719 342.820312 102.457031 342.820312 91.597656 C 342.820312 80.738281 351.625 71.933594 362.484375 71.933594 C 373.34375 71.933594 382.148438 80.738281 382.148438 91.597656 Z M 195.308594 -47.289062 "/>
</clipPath>
<clipPath id="clip13">
  <path d="M 188 0 L 319 0 L 319 137 L 188 137 Z M 188 0 "/>
</clipPath>
<clipPath id="clip14">
  <path d="M 74.152344 -40.714844 L 433.089844 -40.714844 L 433.089844 163.839844 L 74.152344 163.839844 Z M 74.152344 -40.714844 L 264.144531 42.339844 C 264.144531 53.199219 255.339844 62.003906 244.480469 62.003906 C 233.621094 62.003906 224.816406 53.199219 224.816406 42.339844 C 224.816406 31.480469 233.621094 22.675781 244.480469 22.675781 C 255.339844 22.675781 264.144531 31.480469 264.144531 42.339844 Z M 74.152344 -40.714844 "/>
</clipPath>
<clipPath id="clip15">
  <path d="M 74.152344 -40.714844 L 433.089844 -40.714844 L 433.089844 163.839844 L 74.152344 163.839844 Z M 74.152344 -40.714844 L 282.425781 80.785156 C 282.425781 91.644531 273.621094 100.449219 262.761719 100.449219 C 251.902344 100.449219 243.097656 91.644531 243.097656 80.785156 C 243.097656 69.925781 251.902344 61.121094 262.761719 61.121094 C 273.621094 61.121094 282.425781 69.925781 282.425781 80.785156 Z M 74.152344 -40.714844 "/>
</clipPath>
<clipPath id="clip16">
  <path d="M 378 170.265625 L 494 170.265625 L 494 288.820312 L 378 288.820312 Z M 378 170.265625 "/>
</clipPath>
<clipPath id="clip17">
  <path d="M 246.476562 170.265625 L 625.730469 170.265625 L 625.730469 288.820312 L 246.476562 288.820312 Z M 246.476562 170.265625 L 454.234375 179.886719 C 454.234375 190.746094 445.429688 199.550781 434.570312 199.550781 C 423.710938 199.550781 414.90625 190.746094 414.90625 179.886719 C 414.90625 169.027344 423.710938 160.222656 434.570312 160.222656 C 445.429688 160.222656 454.234375 169.027344 454.234375 179.886719 Z M 246.476562 170.265625 "/>
</clipPath>
<clipPath id="clip18">
  <path d="M 246.476562 170.265625 L 625.730469 170.265625 L 625.730469 288.820312 L 246.476562 288.820312 Z M 246.476562 170.265625 L 457.300781 279.199219 C 457.300781 290.0625 448.496094 298.863281 437.636719 298.863281 C 426.777344 298.863281 417.972656 290.0625 417.972656 279.199219 C 417.972656 268.339844 426.777344 259.535156 437.636719 259.535156 C 448.496094 259.535156 457.300781 268.339844 457.300781 279.199219 Z M 246.476562 170.265625 "/>
</clipPath>
<clipPath id="clip19">
  <path d="M 306 35 L 491 35 L 491 236 L 306 236 Z M 306 35 "/>
</clipPath>
<clipPath id="clip20">
  <path d="M 215.832031 -28.863281 L 581.222656 -28.863281 L 581.222656 300.347656 L 215.832031 300.347656 Z M 215.832031 -28.863281 L 454.234375 179.886719 C 454.234375 190.746094 445.429688 199.550781 434.570312 199.550781 C 423.710938 199.550781 414.90625 190.746094 414.90625 179.886719 C 414.90625 169.027344 423.710938 160.222656 434.570312 160.222656 C 445.429688 160.222656 454.234375 169.027344 454.234375 179.886719 Z M 215.832031 -28.863281 "/>
</clipPath>
<clipPath id="clip21">
  <path d="M 215.832031 -28.863281 L 581.222656 -28.863281 L 581.222656 300.347656 L 215.832031 300.347656 Z M 215.832031 -28.863281 L 382.148438 91.597656 C 382.148438 102.457031 373.34375 111.261719 362.484375 111.261719 C 351.625 111.261719 342.820312 102.457031 342.820312 91.597656 C 342.820312 80.738281 351.625 71.933594 362.484375 71.933594 C 373.34375 71.933594 382.148438 80.738281 382.148438 91.597656 Z M 215.832031 -28.863281 "/>
</clipPath>
<clipPath id="clip22">
  <path d="M 382 223 L 536 223 L 536 431 L 382 431 Z M 382 223 "/>
</clipPath>
<clipPath id="clip23">
  <path d="M 265.476562 200.117188 L 652.367188 200.117188 L 652.367188 453.582031 L 265.476562 453.582031 Z M 265.476562 200.117188 L 457.300781 279.199219 C 457.300781 290.0625 448.496094 298.863281 437.636719 298.863281 C 426.777344 298.863281 417.972656 290.0625 417.972656 279.199219 C 417.972656 268.339844 426.777344 259.535156 437.636719 259.535156 C 448.496094 259.535156 457.300781 268.339844 457.300781 279.199219 Z M 265.476562 200.117188 "/>
</clipPath>
<clipPath id="clip24">
  <path d="M 265.476562 200.117188 L 652.367188 200.117188 L 652.367188 453.582031 L 265.476562 453.582031 Z M 265.476562 200.117188 L 499.871094 374.5 C 499.871094 385.359375 491.066406 394.164062 480.207031 394.164062 C 469.347656 394.164062 460.542969 385.359375 460.542969 374.5 C 460.542969 363.636719 469.347656 354.835938 480.207031 354.835938 C 491.066406 354.835938 499.871094 363.636719 499.871094 374.5 Z M 265.476562 200.117188 "/>
</clipPath>
<clipPath id="clip25">
  <path d="M 232.207031 223 L 460.515625 223 L 460.515625 354 L 232.207031 354 Z M 232.207031 223 "/>
</clipPath>
<clipPath id="clip26">
  <path d="M 232.207031 91.992188 L 460.515625 91.992188 L 460.515625 485.277344 L 232.207031 485.277344 Z M 232.207031 91.992188 L 457.300781 279.199219 C 457.300781 290.0625 448.496094 298.863281 437.636719 298.863281 C 426.777344 298.863281 417.972656 290.0625 417.972656 279.199219 C 417.972656 268.339844 426.777344 259.535156 437.636719 259.535156 C 448.496094 259.535156 457.300781 268.339844 457.300781 279.199219 Z M 232.207031 91.992188 "/>
</clipPath>
<clipPath id="clip27">
  <path d="M 232.207031 91.992188 L 460.515625 91.992188 L 460.515625 485.277344 L 232.207031 485.277344 Z M 232.207031 91.992188 L 274.75 298.070312 C 274.75 308.929688 265.949219 317.734375 255.085938 317.734375 C 244.226562 317.734375 235.421875 308.929688 235.421875 298.070312 C 235.421875 287.210938 244.226562 278.40625 255.085938 278.40625 C 265.949219 278.40625 274.75 287.210938 274.75 298.070312 Z M 232.207031 91.992188 "/>
</clipPath>
<clipPath id="clip28">
  <path d="M 406.519531 207 L 576.671875 207 L 576.671875 335 L 406.519531 335 Z M 406.519531 207 "/>
</clipPath>
<clipPath id="clip29">
  <path d="M 406.519531 76.933594 L 576.671875 76.933594 L 576.671875 465.367188 L 406.519531 465.367188 Z M 406.519531 76.933594 L 457.300781 279.199219 C 457.300781 290.0625 448.496094 298.863281 437.636719 298.863281 C 426.777344 298.863281 417.972656 290.0625 417.972656 279.199219 C 417.972656 268.339844 426.777344 259.535156 437.636719 259.535156 C 448.496094 259.535156 457.300781 268.339844 457.300781 279.199219 Z M 406.519531 76.933594 "/>
</clipPath>
<clipPath id="clip30">
  <path d="M 406.519531 76.933594 L 576.671875 76.933594 L 576.671875 465.367188 L 406.519531 465.367188 Z M 406.519531 76.933594 L 565.21875 263.101562 C 565.21875 273.960938 556.414062 282.765625 545.554688 282.765625 C 534.695312 282.765625 525.890625 273.960938 525.890625 263.101562 C 525.890625 252.242188 534.695312 243.4375 545.554688 243.4375 C 556.414062 243.4375 565.21875 252.242188 565.21875 263.101562 Z M 406.519531 76.933594 "/>
</clipPath>
<clipPath id="clip31">
  <path d="M 238.96875 25 L 386.277344 25 L 386.277344 148 L 238.96875 148 Z M 238.96875 25 "/>
</clipPath>
<clipPath id="clip32">
  <path d="M 238.96875 -106.324219 L 386.277344 -106.324219 L 386.277344 278.707031 L 238.96875 278.707031 Z M 238.96875 -106.324219 L 282.425781 80.785156 C 282.425781 91.644531 273.621094 100.449219 262.761719 100.449219 C 251.902344 100.449219 243.097656 91.644531 243.097656 80.785156 C 243.097656 69.925781 251.902344 61.121094 262.761719 61.121094 C 273.621094 61.121094 282.425781 69.925781 282.425781 80.785156 Z M 238.96875 -106.324219 "/>
</clipPath>
<clipPath id="clip33">
  <path d="M 238.96875 -106.324219 L 386.277344 -106.324219 L 386.277344 278.707031 L 238.96875 278.707031 Z M 238.96875 -106.324219 L 382.148438 91.597656 C 382.148438 102.457031 373.34375 111.261719 362.484375 111.261719 C 351.625 111.261719 342.820312 102.457031 342.820312 91.597656 C 342.820312 80.738281 351.625 71.933594 362.484375 71.933594 C 373.34375 71.933594 382.148438 80.738281 382.148438 91.597656 Z M 238.96875 -106.324219 "/>
</clipPath>
<clipPath id="clip34">
  <path d="M 394 318 L 536 318 L 536 528 L 394 528 Z M 394 318 "/>
</clipPath>
<clipPath id="clip35">
  <path d="M 269.867188 315.632812 L 660.011719 315.632812 L 660.011719 531.128906 L 269.867188 531.128906 Z M 269.867188 315.632812 L 469.335938 472.261719 C 469.335938 483.121094 460.53125 491.925781 449.671875 491.925781 C 438.8125 491.925781 430.007812 483.121094 430.007812 472.261719 C 430.007812 461.402344 438.8125 452.597656 449.671875 452.597656 C 460.53125 452.597656 469.335938 461.402344 469.335938 472.261719 Z M 269.867188 315.632812 "/>
</clipPath>
<clipPath id="clip36">
  <path d="M 269.867188 315.632812 L 660.011719 315.632812 L 660.011719 531.128906 L 269.867188 531.128906 Z M 269.867188 315.632812 L 499.871094 374.5 C 499.871094 385.359375 491.066406 394.164062 480.207031 394.164062 C 469.347656 394.164062 460.542969 385.359375 460.542969 374.5 C 460.542969 363.636719 469.347656 354.835938 480.207031 354.835938 C 491.066406 354.835938 499.871094 363.636719 499.871094 374.5 Z M 269.867188 315.632812 "/>
</clipPath>
<clipPath id="clip37">
  <path d="M 394 416 L 529 416 L 529 584 L 394 584 Z M 394 416 "/>
</clipPath>
<clipPath id="clip38">
  <path d="M 276.210938 396.15625 L 646.800781 396.15625 L 646.800781 603.960938 L 276.210938 603.960938 Z M 276.210938 396.15625 L 469.335938 472.261719 C 469.335938 483.121094 460.53125 491.925781 449.671875 491.925781 C 438.8125 491.925781 430.007812 483.121094 430.007812 472.261719 C 430.007812 461.402344 438.8125 452.597656 449.671875 452.597656 C 460.53125 452.597656 469.335938 461.402344 469.335938 472.261719 Z M 276.210938 396.15625 "/>
</clipPath>
<clipPath id="clip39">
  <path d="M 276.210938 396.15625 L 646.800781 396.15625 L 646.800781 603.960938 L 276.210938 603.960938 Z M 276.210938 396.15625 L 493.003906 527.855469 C 493.003906 538.71875 484.199219 547.519531 473.339844 547.519531 C 462.476562 547.519531 453.671875 538.71875 453.671875 527.855469 C 453.671875 516.996094 462.476562 508.191406 473.339844 508.191406 C 484.199219 508.191406 493.003906 516.996094 493.003906 527.855469 Z M 276.210938 396.15625 "/>
</clipPath>
<clipPath id="clip40">
  <path d="M 298 416 L 506 416 L 506 590 L 298 590 Z M 298 416 "/>
</clipPath>
<clipPath id="clip41">
  <path d="M 250.394531 313.296875 L 553.171875 313.296875 L 553.171875 692.738281 L 250.394531 692.738281 Z M 250.394531 313.296875 L 469.335938 472.261719 C 469.335938 483.121094 460.53125 491.925781 449.671875 491.925781 C 438.8125 491.925781 430.007812 483.121094 430.007812 472.261719 C 430.007812 461.402344 438.8125 452.597656 449.671875 452.597656 C 460.53125 452.597656 469.335938 461.402344 469.335938 472.261719 Z M 250.394531 313.296875 "/>
</clipPath>
<clipPath id="clip42">
  <path d="M 250.394531 313.296875 L 553.171875 313.296875 L 553.171875 692.738281 L 250.394531 692.738281 Z M 250.394531 313.296875 L 373.558594 533.773438 C 373.558594 544.636719 364.753906 553.4375 353.894531 553.4375 C 343.035156 553.4375 334.230469 544.636719 334.230469 533.773438 C 334.230469 522.914062 343.035156 514.109375 353.894531 514.109375 C 364.753906 514.109375 373.558594 522.914062 373.558594 533.773438 Z M 250.394531 313.296875 "/>
</clipPath>
<clipPath id="clip43">
  <path d="M 361 472 L 529 472 L 529 600 L 361 600 Z M 361 472 "/>
</clipPath>
<clipPath id="clip44">
  <path d="M 324.285156 362.417969 L 565.949219 362.417969 L 565.949219 724.285156 L 324.285156 724.285156 Z M 324.285156 362.417969 L 493.003906 527.855469 C 493.003906 538.71875 484.199219 547.519531 473.339844 547.519531 C 462.476562 547.519531 453.671875 538.71875 453.671875 527.855469 C 453.671875 516.996094 462.476562 508.191406 473.339844 508.191406 C 484.199219 508.191406 493.003906 516.996094 493.003906 527.855469 Z M 324.285156 362.417969 "/>
</clipPath>
<clipPath id="clip45">
  <path d="M 324.285156 362.417969 L 565.949219 362.417969 L 565.949219 724.285156 L 324.285156 724.285156 Z M 324.285156 362.417969 L 436.558594 558.847656 C 436.558594 569.707031 427.757812 578.511719 416.894531 578.511719 C 406.035156 578.511719 397.230469 569.707031 397.230469 558.847656 C 397.230469 547.988281 406.035156 539.183594 416.894531 539.183594 C 427.757812 539.183594 436.558594 547.988281 436.558594 558.847656 Z M 324.285156 362.417969 "/>
</clipPath>
<clipPath id="clip46">
  <path d="M 298 478 L 473 478 L 473 600 L 298 600 Z M 298 478 "/>
</clipPath>
<clipPath id="clip47">
  <path d="M 281.828125 358.652344 L 488.960938 358.652344 L 488.960938 733.96875 L 281.828125 733.96875 Z M 281.828125 358.652344 L 373.558594 533.773438 C 373.558594 544.636719 364.753906 553.4375 353.894531 553.4375 C 343.035156 553.4375 334.230469 544.636719 334.230469 533.773438 C 334.230469 522.914062 343.035156 514.109375 353.894531 514.109375 C 364.753906 514.109375 373.558594 522.914062 373.558594 533.773438 Z M 281.828125 358.652344 "/>
</clipPath>
<clipPath id="clip48">
  <path d="M 281.828125 358.652344 L 488.960938 358.652344 L 488.960938 733.96875 L 281.828125 733.96875 Z M 281.828125 358.652344 L 436.558594 558.847656 C 436.558594 569.707031 427.757812 578.511719 416.894531 578.511719 C 406.035156 578.511719 397.230469 569.707031 397.230469 558.847656 C 397.230469 547.988281 406.035156 539.183594 416.894531 539.183594 C 427.757812 539.183594 436.558594 547.988281 436.558594 558.847656 Z M 281.828125 358.652344 "/>
</clipPath>
<clipPath id="clip49">
  <path d="M 214.378906 478 L 381.734375 478 L 381.734375 600 L 214.378906 600 Z M 214.378906 478 "/>
</clipPath>
<clipPath id="clip50">
  <path d="M 214.378906 347.148438 L 381.734375 347.148438 L 381.734375 735.011719 L 214.378906 735.011719 Z M 214.378906 347.148438 L 373.558594 533.773438 C 373.558594 544.636719 364.753906 553.4375 353.894531 553.4375 C 343.035156 553.4375 334.230469 544.636719 334.230469 533.773438 C 334.230469 522.914062 343.035156 514.109375 353.894531 514.109375 C 364.753906 514.109375 373.558594 522.914062 373.558594 533.773438 Z M 214.378906 347.148438 "/>
</clipPath>
<clipPath id="clip51">
  <path d="M 214.378906 347.148438 L 381.734375 347.148438 L 381.734375 735.011719 L 214.378906 735.011719 Z M 214.378906 347.148438 L 261.882812 548.386719 C 261.882812 559.246094 253.078125 568.050781 242.21875 568.050781 C 231.355469 568.050781 222.550781 559.246094 222.550781 548.386719 C 222.550781 537.523438 231.355469 528.722656 242.21875 528.722656 C 253.078125 528.722656 261.882812 537.523438 261.882812 548.386719 Z M 214.378906 347.148438 "/>
</clipPath>
<clipPath id="clip52">
  <path d="M 166.988281 492 L 248.167969 492 L 248.167969 600 L 166.988281 600 Z M 166.988281 492 "/>
</clipPath>
<clipPath id="clip53">
  <path d="M 166.988281 359.457031 L 248.167969 359.457031 L 248.167969 736.558594 L 166.988281 736.558594 Z M 166.988281 359.457031 L 192.601562 547.628906 C 192.601562 558.488281 183.796875 567.292969 172.9375 567.292969 C 162.078125 567.292969 153.273438 558.488281 153.273438 547.628906 C 153.273438 536.769531 162.078125 527.964844 172.9375 527.964844 C 183.796875 527.964844 192.601562 536.769531 192.601562 547.628906 Z M 166.988281 359.457031 "/>
</clipPath>
<clipPath id="clip54">
  <path d="M 166.988281 359.457031 L 248.167969 359.457031 L 248.167969 736.558594 L 166.988281 736.558594 Z M 166.988281 359.457031 L 261.882812 548.386719 C 261.882812 559.246094 253.078125 568.050781 242.21875 568.050781 C 231.355469 568.050781 222.550781 559.246094 222.550781 548.386719 C 222.550781 537.523438 231.355469 528.722656 242.21875 528.722656 C 253.078125 528.722656 261.882812 537.523438 261.882812 548.386719 Z M 166.988281 359.457031 "/>
</clipPath>
<clipPath id="clip55">
  <path d="M 101.953125 242 L 267.074219 242 L 267.074219 360 L 101.953125 360 Z M 101.953125 242 "/>
</clipPath>
<clipPath id="clip56">
  <path d="M 101.953125 110.0625 L 267.074219 110.0625 L 267.074219 492.253906 L 101.953125 492.253906 Z M 101.953125 110.0625 L 274.75 298.070312 C 274.75 308.929688 265.949219 317.734375 255.085938 317.734375 C 244.226562 317.734375 235.421875 308.929688 235.421875 298.070312 C 235.421875 287.210938 244.226562 278.40625 255.085938 278.40625 C 265.949219 278.40625 274.75 287.210938 274.75 298.070312 Z M 101.953125 110.0625 "/>
</clipPath>
<clipPath id="clip57">
  <path d="M 101.953125 110.0625 L 267.074219 110.0625 L 267.074219 492.253906 L 101.953125 492.253906 Z M 101.953125 110.0625 L 133.605469 304.246094 C 133.605469 315.109375 124.800781 323.910156 113.941406 323.910156 C 103.082031 323.910156 94.277344 315.109375 94.277344 304.246094 C 94.277344 293.386719 103.082031 284.582031 113.941406 284.582031 C 124.800781 284.582031 133.605469 293.386719 133.605469 304.246094 Z M 101.953125 110.0625 "/>
</clipPath>
<clipPath id="clip58">
  <path d="M 0 211 L 170 211 L 170 360 L 0 360 Z M 0 211 "/>
</clipPath>
<clipPath id="clip59">
  <path d="M -47.453125 106.914062 L 215.839844 106.914062 L 215.839844 464.226562 L -47.453125 464.226562 Z M -47.453125 106.914062 L 133.605469 304.246094 C 133.605469 315.109375 124.800781 323.910156 113.941406 323.910156 C 103.082031 323.910156 94.277344 315.109375 94.277344 304.246094 C 94.277344 293.386719 103.082031 284.582031 113.941406 284.582031 C 124.800781 284.582031 133.605469 293.386719 133.605469 304.246094 Z M -47.453125 106.914062 "/>
</clipPath>
<clipPath id="clip60">
  <path d="M -47.453125 106.914062 L 215.839844 106.914062 L 215.839844 464.226562 L -47.453125 464.226562 Z M -47.453125 106.914062 L 74.109375 266.894531 C 74.109375 277.757812 65.304688 286.5625 54.445312 286.5625 C 43.585938 286.5625 34.78125 277.757812 34.78125 266.894531 C 34.78125 256.035156 43.585938 247.230469 54.445312 247.230469 C 65.304688 247.230469 74.109375 256.035156 74.109375 266.894531 Z M -47.453125 106.914062 "/>
</clipPath>
<clipPath id="clip61">
  <path d="M 1 248 L 170 248 L 170 402 L 1 402 Z M 1 248 "/>
</clipPath>
<clipPath id="clip62">
  <path d="M -55.234375 151.574219 L 226.613281 151.574219 L 226.613281 498.226562 L -55.234375 498.226562 Z M -55.234375 151.574219 L 133.605469 304.246094 C 133.605469 315.109375 124.800781 323.910156 113.941406 323.910156 C 103.082031 323.910156 94.277344 315.109375 94.277344 304.246094 C 94.277344 293.386719 103.082031 284.582031 113.941406 284.582031 C 124.800781 284.582031 133.605469 293.386719 133.605469 304.246094 Z M -55.234375 151.574219 "/>
</clipPath>
<clipPath id="clip63">
  <path d="M -55.234375 151.574219 L 226.613281 151.574219 L 226.613281 498.226562 L -55.234375 498.226562 Z M -55.234375 151.574219 L 77.101562 345.554688 C 77.101562 356.414062 68.296875 365.21875 57.4375 365.21875 C 46.574219 365.21875 37.773438 356.414062 37.773438 345.554688 C 37.773438 334.691406 46.574219 325.890625 57.4375 325.890625 C 68.296875 325.890625 77.101562 334.691406 77.101562 345.554688 Z M -55.234375 151.574219 "/>
</clipPath>
</defs>
<g id="surface211">
<g clip-path="url(#clip1)" clip-rule="nonzero">
<g clip-path="url(#clip2)" clip-rule="evenodd">
<g clip-path="url(#clip3)" clip-rule="evenodd">
<path style="fill:none;stroke-width:0.0213452;stroke-linecap:butt;stroke-linejoin:miter;stroke:rgb(17.96875%,20.3125%,21.09375%);stroke-opacity:0.8;stroke-miterlimit:10;" d="M 2.492981 0.757787 L 2.818521 0.762854 " transform="matrix(184.249204,0,0,184.249204,-130.911868,-98.469275)"/>
</g>
</g>
</g>
<g clip-path="url(#clip4)" clip-rule="nonzero">
<g clip-path="url(#clip5)" clip-rule="evenodd">
<g clip-path="url(#clip6)" clip-rule="evenodd">
<path style="fill:none;stroke-width:0.0213452;stroke-linecap:butt;stroke-linejoin:miter;stroke:rgb(17.96875%,20.3125%,21.09375%);stroke-opacity:0.8;stroke-miterlimit:10;" d="M 2.492981 0.757787 L 2.037416 0.764232 " transform="matrix(184.249204,0,0,184.249204,-130.911868,-98.469275)"/>
</g>
</g>
</g>
<g clip-path="url(#clip7)" clip-rule="nonzero">
<g clip-path="url(#clip8)" clip-rule="evenodd">
<g clip-path="url(#clip9)" clip-rule="evenodd">
<path style="fill:none;stroke-width:0.0213452;stroke-linecap:butt;stroke-linejoin:miter;stroke:rgb(17.96875%,20.3125%,21.09375%);stroke-opacity:0.8;stroke-miterlimit:10;" d="M 2.492981 0.757787 L 2.677874 1.031575 " transform="matrix(184.249204,0,0,184.249204,-130.911868,-98.469275)"/>
</g>
</g>
</g>
<g clip-path="url(#clip10)" clip-rule="nonzero">
<g clip-path="url(#clip11)" clip-rule="evenodd">
<g clip-path="url(#clip12)" clip-rule="evenodd">
<path style="fill:none;stroke-width:0.0213452;stroke-linecap:butt;stroke-linejoin:miter;stroke:rgb(17.96875%,20.3125%,21.09375%);stroke-opacity:0.8;stroke-miterlimit:10;" d="M 2.818521 0.762854 L 2.677874 1.031575 " transform="matrix(184.249204,0,0,184.249204,-130.911868,-98.469275)"/>
</g>
</g>
</g>
<g clip-path="url(#clip13)" clip-rule="nonzero">
<g clip-path="url(#clip14)" clip-rule="evenodd">
<g clip-path="url(#clip15)" clip-rule="evenodd">
<path style="fill:none;stroke-width:0.0213452;stroke-linecap:butt;stroke-linejoin:miter;stroke:rgb(17.96875%,20.3125%,21.09375%);stroke-opacity:0.8;stroke-miterlimit:10;" d="M 2.037416 0.764232 L 2.136637 0.972891 " transform="matrix(184.249204,0,0,184.249204,-130.911868,-98.469275)"/>
</g>
</g>
</g>
<g clip-path="url(#clip16)" clip-rule="nonzero">
<g clip-path="url(#clip17)" clip-rule="evenodd">
<g clip-path="url(#clip18)" clip-rule="evenodd">
<path style="fill:none;stroke-width:0.0213452;stroke-linecap:butt;stroke-linejoin:miter;stroke:rgb(17.96875%,20.3125%,21.09375%);stroke-opacity:0.8;stroke-miterlimit:10;" d="M 3.069116 1.510758 L 3.085759 2.04977 " transform="matrix(184.249204,0,0,184.249204,-130.911868,-98.469275)"/>
</g>
</g>
</g>
<g clip-path="url(#clip19)" clip-rule="nonzero">
<g clip-path="url(#clip20)" clip-rule="evenodd">
<g clip-path="url(#clip21)" clip-rule="evenodd">
<path style="fill:none;stroke-width:0.0213452;stroke-linecap:butt;stroke-linejoin:miter;stroke:rgb(17.96875%,20.3125%,21.09375%);stroke-opacity:0.8;stroke-miterlimit:10;" d="M 3.069116 1.510758 L 2.677874 1.031575 " transform="matrix(184.249204,0,0,184.249204,-130.911868,-98.469275)"/>
</g>
</g>
</g>
<g clip-path="url(#clip22)" clip-rule="nonzero">
<g clip-path="url(#clip23)" clip-rule="evenodd">
<g clip-path="url(#clip24)" clip-rule="evenodd">
<path style="fill:none;stroke-width:0.0213452;stroke-linecap:butt;stroke-linejoin:miter;stroke:rgb(17.96875%,20.3125%,21.09375%);stroke-opacity:0.8;stroke-miterlimit:10;" d="M 3.085759 2.04977 L 3.316806 2.567009 " transform="matrix(184.249204,0,0,184.249204,-130.911868,-98.469275)"/>
</g>
</g>
</g>
<g clip-path="url(#clip25)" clip-rule="nonzero">
<g clip-path="url(#clip26)" clip-rule="evenodd">
<g clip-path="url(#clip27)" clip-rule="evenodd">
<path style="fill:none;stroke-width:0.0213452;stroke-linecap:butt;stroke-linejoin:miter;stroke:rgb(17.96875%,20.3125%,21.09375%);stroke-opacity:0.8;stroke-miterlimit:10;" d="M 3.085759 2.04977 L 2.094977 2.152192 " transform="matrix(184.249204,0,0,184.249204,-130.911868,-98.469275)"/>
</g>
</g>
</g>
<g clip-path="url(#clip28)" clip-rule="nonzero">
<g clip-path="url(#clip29)" clip-rule="evenodd">
<g clip-path="url(#clip30)" clip-rule="evenodd">
<path style="fill:none;stroke-width:0.0213452;stroke-linecap:butt;stroke-linejoin:miter;stroke:rgb(17.96875%,20.3125%,21.09375%);stroke-opacity:0.8;stroke-miterlimit:10;" d="M 3.085759 2.04977 L 3.671476 1.962401 " transform="matrix(184.249204,0,0,184.249204,-130.911868,-98.469275)"/>
</g>
</g>
</g>
<g clip-path="url(#clip31)" clip-rule="nonzero">
<g clip-path="url(#clip32)" clip-rule="evenodd">
<g clip-path="url(#clip33)" clip-rule="evenodd">
<path style="fill:none;stroke-width:0.0213452;stroke-linecap:butt;stroke-linejoin:miter;stroke:rgb(17.96875%,20.3125%,21.09375%);stroke-opacity:0.8;stroke-miterlimit:10;" d="M 2.136637 0.972891 L 2.677874 1.031575 " transform="matrix(184.249204,0,0,184.249204,-130.911868,-98.469275)"/>
</g>
</g>
</g>
<g clip-path="url(#clip34)" clip-rule="nonzero">
<g clip-path="url(#clip35)" clip-rule="evenodd">
<g clip-path="url(#clip36)" clip-rule="evenodd">
<path style="fill:none;stroke-width:0.0213452;stroke-linecap:butt;stroke-linejoin:miter;stroke:rgb(17.96875%,20.3125%,21.09375%);stroke-opacity:0.8;stroke-miterlimit:10;" d="M 3.151079 3.097604 L 3.316806 2.567009 " transform="matrix(184.249204,0,0,184.249204,-130.911868,-98.469275)"/>
</g>
</g>
</g>
<g clip-path="url(#clip37)" clip-rule="nonzero">
<g clip-path="url(#clip38)" clip-rule="evenodd">
<g clip-path="url(#clip39)" clip-rule="evenodd">
<path style="fill:none;stroke-width:0.0213452;stroke-linecap:butt;stroke-linejoin:miter;stroke:rgb(17.96875%,20.3125%,21.09375%);stroke-opacity:0.8;stroke-miterlimit:10;" d="M 3.151079 3.097604 L 3.279535 3.399335 " transform="matrix(184.249204,0,0,184.249204,-130.911868,-98.469275)"/>
</g>
</g>
</g>
<g clip-path="url(#clip40)" clip-rule="nonzero">
<g clip-path="url(#clip41)" clip-rule="evenodd">
<g clip-path="url(#clip42)" clip-rule="evenodd">
<path style="fill:none;stroke-width:0.0213452;stroke-linecap:butt;stroke-linejoin:miter;stroke:rgb(17.96875%,20.3125%,21.09375%);stroke-opacity:0.8;stroke-miterlimit:10;" d="M 3.151079 3.097604 L 2.631254 3.431454 " transform="matrix(184.249204,0,0,184.249204,-130.911868,-98.469275)"/>
</g>
</g>
</g>
<g clip-path="url(#clip43)" clip-rule="nonzero">
<g clip-path="url(#clip44)" clip-rule="evenodd">
<g clip-path="url(#clip45)" clip-rule="evenodd">
<path style="fill:none;stroke-width:0.0213452;stroke-linecap:butt;stroke-linejoin:miter;stroke:rgb(17.96875%,20.3125%,21.09375%);stroke-opacity:0.8;stroke-miterlimit:10;" d="M 3.279535 3.399335 L 2.973182 3.567543 " transform="matrix(184.249204,0,0,184.249204,-130.911868,-98.469275)"/>
</g>
</g>
</g>
<g clip-path="url(#clip46)" clip-rule="nonzero">
<g clip-path="url(#clip47)" clip-rule="evenodd">
<g clip-path="url(#clip48)" clip-rule="evenodd">
<path style="fill:none;stroke-width:0.0213452;stroke-linecap:butt;stroke-linejoin:miter;stroke:rgb(17.96875%,20.3125%,21.09375%);stroke-opacity:0.8;stroke-miterlimit:10;" d="M 2.631254 3.431454 L 2.973182 3.567543 " transform="matrix(184.249204,0,0,184.249204,-130.911868,-98.469275)"/>
</g>
</g>
</g>
<g clip-path="url(#clip49)" clip-rule="nonzero">
<g clip-path="url(#clip50)" clip-rule="evenodd">
<g clip-path="url(#clip51)" clip-rule="evenodd">
<path style="fill:none;stroke-width:0.0213452;stroke-linecap:butt;stroke-linejoin:miter;stroke:rgb(17.96875%,20.3125%,21.09375%);stroke-opacity:0.8;stroke-miterlimit:10;" d="M 2.631254 3.431454 L 2.025141 3.510767 " transform="matrix(184.249204,0,0,184.249204,-130.911868,-98.469275)"/>
</g>
</g>
</g>
<g clip-path="url(#clip52)" clip-rule="nonzero">
<g clip-path="url(#clip53)" clip-rule="evenodd">
<g clip-path="url(#clip54)" clip-rule="evenodd">
<path style="fill:none;stroke-width:0.0213452;stroke-linecap:butt;stroke-linejoin:miter;stroke:rgb(17.96875%,20.3125%,21.09375%);stroke-opacity:0.8;stroke-miterlimit:10;" d="M 1.649122 3.506654 L 2.025141 3.510767 " transform="matrix(184.249204,0,0,184.249204,-130.911868,-98.469275)"/>
</g>
</g>
</g>
<g clip-path="url(#clip55)" clip-rule="nonzero">
<g clip-path="url(#clip56)" clip-rule="evenodd">
<g clip-path="url(#clip57)" clip-rule="evenodd">
<path style="fill:none;stroke-width:0.0213452;stroke-linecap:butt;stroke-linejoin:miter;stroke:rgb(17.96875%,20.3125%,21.09375%);stroke-opacity:0.8;stroke-miterlimit:10;" d="M 2.094977 2.152192 L 1.328924 2.18571 " transform="matrix(184.249204,0,0,184.249204,-130.911868,-98.469275)"/>
</g>
</g>
</g>
<g clip-path="url(#clip58)" clip-rule="nonzero">
<g clip-path="url(#clip59)" clip-rule="evenodd">
<g clip-path="url(#clip60)" clip-rule="evenodd">
<path style="fill:none;stroke-width:0.0213452;stroke-linecap:butt;stroke-linejoin:miter;stroke:rgb(17.96875%,20.3125%,21.09375%);stroke-opacity:0.8;stroke-miterlimit:10;" d="M 1.328924 2.18571 L 1.006013 1.982987 " transform="matrix(184.249204,0,0,184.249204,-130.911868,-98.469275)"/>
</g>
</g>
</g>
<g clip-path="url(#clip61)" clip-rule="nonzero">
<g clip-path="url(#clip62)" clip-rule="evenodd">
<g clip-path="url(#clip63)" clip-rule="evenodd">
<path style="fill:none;stroke-width:0.0213452;stroke-linecap:butt;stroke-linejoin:miter;stroke:rgb(17.96875%,20.3125%,21.09375%);stroke-opacity:0.8;stroke-miterlimit:10;" d="M 1.328924 2.18571 L 1.022253 2.40991 " transform="matrix(184.249204,0,0,184.249204,-130.911868,-98.469275)"/>
</g>
</g>
</g>
<path style="fill-rule:nonzero;fill:rgb(100%,92.941176%,43.529412%);fill-opacity:1;stroke-width:0.0213452;stroke-linecap:butt;stroke-linejoin:miter;stroke:rgb(60%,60%,60%);stroke-opacity:0.8;stroke-miterlimit:10;" d="M 0.106723 -0.00000569832 C 0.106723 0.0589328 0.0589362 0.10672 -0.00000235281 0.10672 C -0.0589409 0.10672 -0.106728 0.0589328 -0.106728 -0.00000569832 C -0.106728 -0.0589442 -0.0589409 -0.106731 -0.00000235281 -0.106731 C 0.0589362 -0.106731 0.106723 -0.0589442 0.106723 -0.00000569832 Z M 0.106723 -0.00000569832 " transform="matrix(184.249204,0,0,184.249204,328.418402,41.153394)"/>
<path style="fill-rule:nonzero;fill:rgb(100%,92.941176%,43.529412%);fill-opacity:1;stroke-width:0.0213452;stroke-linecap:butt;stroke-linejoin:miter;stroke:rgb(60%,60%,60%);stroke-opacity:0.8;stroke-miterlimit:10;" d="M 0.106736 -0.00000528967 C 0.106736 0.0589332 0.0589487 0.10672 0.0000101718 0.10672 C -0.0589495 0.10672 -0.106736 0.0589332 -0.106736 -0.00000528967 C -0.106736 -0.0589438 -0.0589495 -0.106731 0.0000101718 -0.106731 C 0.0589487 -0.106731 0.106736 -0.0589438 0.106736 -0.00000528967 Z M 0.106736 -0.00000528967 " transform="matrix(184.249204,0,0,184.249204,388.396563,42.086912)"/>
<path style="fill-rule:nonzero;fill:rgb(100%,92.941176%,43.529412%);fill-opacity:1;stroke-width:0.0213452;stroke-linecap:butt;stroke-linejoin:miter;stroke:rgb(60%,60%,60%);stroke-opacity:0.8;stroke-miterlimit:10;" d="M 0.106731 0.000000505483 C 0.106731 0.058939 0.0589441 0.106726 0.00000554813 0.106726 C -0.058933 0.106726 -0.10672 0.058939 -0.10672 0.000000505483 C -0.10672 -0.058938 -0.058933 -0.106725 0.00000554813 -0.106725 C 0.0589441 -0.106725 0.106731 -0.058938 0.106731 0.000000505483 Z M 0.106731 0.000000505483 " transform="matrix(184.249204,0,0,184.249204,244.479447,42.339751)"/>
<path style="fill-rule:nonzero;fill:rgb(100%,92.941176%,43.529412%);fill-opacity:1;stroke-width:0.0213452;stroke-linecap:butt;stroke-linejoin:miter;stroke:rgb(60%,60%,60%);stroke-opacity:0.8;stroke-miterlimit:10;" d="M 0.106725 0.00000137196 C 0.106725 0.0589399 0.0589381 0.106727 -0.000000461094 0.106727 C -0.058939 0.106727 -0.106726 0.0589399 -0.106726 0.00000137196 C -0.106726 -0.0589371 -0.058939 -0.106724 -0.000000461094 -0.106724 C 0.0589381 -0.106724 0.106725 -0.0589371 0.106725 0.00000137196 Z M 0.106725 0.00000137196 " transform="matrix(184.249204,0,0,184.249204,434.570397,179.886466)"/>
<path style="fill-rule:nonzero;fill:rgb(55.294118%,82.745098%,78.039216%);fill-opacity:1;stroke-width:0.0213452;stroke-linecap:butt;stroke-linejoin:miter;stroke:rgb(60%,60%,60%);stroke-opacity:0.8;stroke-miterlimit:10;" d="M 0.106723 -0.00000884061 C 0.106723 0.0589509 0.0589359 0.106717 -0.00000263984 0.106717 C -0.0589412 0.106717 -0.106728 0.0589509 -0.106728 -0.00000884061 C -0.106728 -0.0589474 -0.0589412 -0.106734 -0.00000263984 -0.106734 C 0.0589359 -0.106734 0.106723 -0.0589474 0.106723 -0.00000884061 Z M 0.106723 -0.00000884061 " transform="matrix(184.249204,0,0,184.249204,437.637205,279.200848)"/>
<path style="fill-rule:nonzero;fill:rgb(100%,92.941176%,43.529412%);fill-opacity:1;stroke-width:0.0213452;stroke-linecap:butt;stroke-linejoin:miter;stroke:rgb(60%,60%,60%);stroke-opacity:0.8;stroke-miterlimit:10;" d="M 0.10673 0.00000157977 C 0.10673 0.0589401 0.0589431 0.106727 0.0000045656 0.106727 C -0.058934 0.106727 -0.106721 0.0589401 -0.106721 0.00000157977 C -0.106721 -0.0589369 -0.058934 -0.106724 0.0000045656 -0.106724 C 0.0589431 -0.106724 0.10673 -0.0589369 0.10673 0.00000157977 Z M 0.10673 0.00000157977 " transform="matrix(184.249204,0,0,184.249204,262.760878,80.784865)"/>
<path style="fill-rule:nonzero;fill:rgb(100%,92.941176%,43.529412%);fill-opacity:1;stroke-width:0.0213452;stroke-linecap:butt;stroke-linejoin:miter;stroke:rgb(60%,60%,60%);stroke-opacity:0.8;stroke-miterlimit:10;" d="M 0.106731 0.00000047447 C 0.106731 0.058939 0.0589437 0.106726 0.00000521687 0.106726 C -0.0589333 0.106726 -0.10672 0.058939 -0.10672 0.00000047447 C -0.10672 -0.058938 -0.0589333 -0.106725 0.00000521687 -0.106725 C 0.0589437 -0.106725 0.106731 -0.058938 0.106731 0.00000047447 Z M 0.106731 0.00000047447 " transform="matrix(184.249204,0,0,184.249204,362.483414,91.597569)"/>
<path style="fill-rule:nonzero;fill:rgb(55.294118%,82.745098%,78.039216%);fill-opacity:1;stroke-width:0.0213452;stroke-linecap:butt;stroke-linejoin:miter;stroke:rgb(60%,60%,60%);stroke-opacity:0.8;stroke-miterlimit:10;" d="M 0.106731 -0.00000399511 C 0.106731 0.0589345 0.0589438 0.106721 0.00000533056 0.106721 C -0.0589332 0.106721 -0.10672 0.0589345 -0.10672 -0.00000399511 C -0.10672 -0.0589425 -0.0589332 -0.106729 0.00000533056 -0.106729 C 0.0589438 -0.106729 0.106731 -0.0589425 0.106731 -0.00000399511 Z M 0.106731 -0.00000399511 " transform="matrix(184.249204,0,0,184.249204,449.670893,472.262455)"/>
<path style="fill-rule:nonzero;fill:rgb(55.294118%,82.745098%,78.039216%);fill-opacity:1;stroke-width:0.0213452;stroke-linecap:butt;stroke-linejoin:miter;stroke:rgb(60%,60%,60%);stroke-opacity:0.8;stroke-miterlimit:10;" d="M 0.106731 0.00000791932 C 0.106731 0.0589464 0.0589444 0.106733 0.00000583726 0.106733 C -0.0589327 0.106733 -0.10672 0.0589464 -0.10672 0.00000791932 C -0.10672 -0.0589518 -0.0589327 -0.106717 0.00000583726 -0.106717 C 0.0589444 -0.106717 0.106731 -0.0589518 0.106731 0.00000791932 Z M 0.106731 0.00000791932 " transform="matrix(184.249204,0,0,184.249204,480.205956,374.498541)"/>
<path style="fill-rule:nonzero;fill:rgb(55.294118%,82.745098%,78.039216%);fill-opacity:1;stroke-width:0.0213452;stroke-linecap:butt;stroke-linejoin:miter;stroke:rgb(60%,60%,60%);stroke-opacity:0.8;stroke-miterlimit:10;" d="M 0.106735 -0.00000826019 C 0.106735 0.0589515 0.0589486 0.106717 0.0000100891 0.106717 C -0.0589496 0.106717 -0.106736 0.0589515 -0.106736 -0.00000826019 C -0.106736 -0.0589468 -0.0589496 -0.106734 0.0000100891 -0.106734 C 0.0589486 -0.106734 0.106735 -0.0589468 0.106735 -0.00000826019 Z M 0.106735 -0.00000826019 " transform="matrix(184.249204,0,0,184.249204,473.337985,527.856991)"/>
<path style="fill-rule:nonzero;fill:rgb(55.294118%,82.745098%,78.039216%);fill-opacity:1;stroke-width:0.0213452;stroke-linecap:butt;stroke-linejoin:miter;stroke:rgb(60%,60%,60%);stroke-opacity:0.8;stroke-miterlimit:10;" d="M 0.106726 -0.00000901174 C 0.106726 0.0589507 0.0589389 0.106716 0.000000393757 0.106716 C -0.0589381 0.106716 -0.106725 0.0589507 -0.106725 -0.00000901174 C -0.106725 -0.0589475 -0.0589381 -0.106734 0.000000393757 -0.106734 C 0.0589389 -0.106734 0.106726 -0.0589475 0.106726 -0.00000901174 Z M 0.106726 -0.00000901174 " transform="matrix(184.249204,0,0,184.249204,353.894459,533.775098)"/>
<path style="fill-rule:nonzero;fill:rgb(55.294118%,82.745098%,78.039216%);fill-opacity:1;stroke-width:0.0213452;stroke-linecap:butt;stroke-linejoin:miter;stroke:rgb(60%,60%,60%);stroke-opacity:0.8;stroke-miterlimit:10;" d="M 0.106725 -0.00000148662 C 0.106725 0.058937 0.0589385 0.106724 0.0000000296685 0.106724 C -0.0589385 0.106724 -0.106725 0.058937 -0.106725 -0.00000148662 C -0.106725 -0.05894 -0.0589385 -0.106727 0.0000000296685 -0.106727 C 0.0589385 -0.106727 0.106725 -0.05894 0.106725 -0.00000148662 Z M 0.106725 -0.00000148662 " transform="matrix(184.249204,0,0,184.249204,172.937495,547.62918)"/>
<path style="fill-rule:nonzero;fill:rgb(55.294118%,82.745098%,78.039216%);fill-opacity:1;stroke-width:0.0213452;stroke-linecap:butt;stroke-linejoin:miter;stroke:rgb(60%,60%,60%);stroke-opacity:0.8;stroke-miterlimit:10;" d="M 0.106716 0.00000569832 C 0.106716 0.0589442 0.0589507 0.106731 -0.00000905621 0.106731 C -0.0589476 0.106731 -0.106734 0.0589442 -0.106734 0.00000569832 C -0.106734 -0.0589328 -0.0589476 -0.10672 -0.00000905621 -0.10672 C 0.0589507 -0.10672 0.106716 -0.0589328 0.106716 0.00000569832 Z M 0.106716 0.00000569832 " transform="matrix(184.249204,0,0,184.249204,416.8962,558.846606)"/>
<path style="fill-rule:nonzero;fill:rgb(55.294118%,82.745098%,78.039216%);fill-opacity:1;stroke-width:0.0213452;stroke-linecap:butt;stroke-linejoin:miter;stroke:rgb(60%,60%,60%);stroke-opacity:0.8;stroke-miterlimit:10;" d="M 0.106736 0.00000752109 C 0.106736 0.058946 0.058949 0.106733 0.0000104756 0.106733 C -0.0589492 0.106733 -0.106736 0.058946 -0.106736 0.00000752109 C -0.106736 -0.0589522 -0.0589492 -0.106718 0.0000104756 -0.106718 C 0.058949 -0.106718 0.106736 -0.0589522 0.106736 0.00000752109 Z M 0.106736 0.00000752109 " transform="matrix(184.249204,0,0,184.249204,242.21682,548.385333)"/>
<path style="fill-rule:nonzero;fill:rgb(55.294118%,82.745098%,78.039216%);fill-opacity:1;stroke-width:0.0213452;stroke-linecap:butt;stroke-linejoin:miter;stroke:rgb(60%,60%,60%);stroke-opacity:0.8;stroke-miterlimit:10;" d="M 0.106719 0.000000738574 C 0.106719 0.0589393 0.0589532 0.106726 -0.00000655231 0.106726 C -0.0589451 0.106726 -0.106732 0.0589393 -0.106732 0.000000738574 C -0.106732 -0.0589378 -0.0589451 -0.106725 -0.00000655231 -0.106725 C 0.0589532 -0.106725 0.106719 -0.0589378 0.106719 0.000000738574 Z M 0.106719 0.000000738574 " transform="matrix(184.249204,0,0,184.249204,255.087145,298.070176)"/>
<path style="fill-rule:nonzero;fill:rgb(55.294118%,82.745098%,78.039216%);fill-opacity:1;stroke-width:0.0213452;stroke-linecap:butt;stroke-linejoin:miter;stroke:rgb(60%,60%,60%);stroke-opacity:0.8;stroke-miterlimit:10;" d="M 0.10672 -0.00000729142 C 0.10672 0.0589524 0.0589328 0.106718 -0.0000057131 0.106718 C -0.0589442 0.106718 -0.106731 0.0589524 -0.106731 -0.00000729142 C -0.106731 -0.0589458 -0.0589442 -0.106733 -0.0000057131 -0.106733 C 0.0589328 -0.106733 0.10672 -0.0589458 0.10672 -0.00000729142 Z M 0.10672 -0.00000729142 " transform="matrix(184.249204,0,0,184.249204,113.942459,304.247437)"/>
<path style="fill-rule:nonzero;fill:rgb(55.294118%,82.745098%,78.039216%);fill-opacity:1;stroke-width:0.0213452;stroke-linecap:butt;stroke-linejoin:miter;stroke:rgb(60%,60%,60%);stroke-opacity:0.8;stroke-miterlimit:10;" d="M 0.106727 -0.000000267427 C 0.106727 0.0589383 0.0589404 0.106725 0.00000191708 0.106725 C -0.0589366 0.106725 -0.106723 0.0589383 -0.106723 -0.000000267427 C -0.106723 -0.0589388 -0.0589366 -0.106726 0.00000191708 -0.106726 C 0.0589404 -0.106726 0.106727 -0.0589388 0.106727 -0.000000267427 Z M 0.106727 -0.000000267427 " transform="matrix(184.249204,0,0,184.249204,545.554334,263.101612)"/>
<path style="fill-rule:nonzero;fill:rgb(55.294118%,82.745098%,78.039216%);fill-opacity:1;stroke-width:0.0213452;stroke-linecap:butt;stroke-linejoin:miter;stroke:rgb(60%,60%,60%);stroke-opacity:0.8;stroke-miterlimit:10;" d="M 0.106723 -0.0000103655 C 0.106723 0.0589494 0.0589366 0.106736 -0.00000191708 0.106736 C -0.0589404 0.106736 -0.106727 0.0589494 -0.106727 -0.0000103655 C -0.106727 -0.0589489 -0.0589404 -0.106736 -0.00000191708 -0.106736 C 0.0589366 -0.106736 0.106723 -0.0589489 0.106723 -0.0000103655 Z M 0.106723 -0.0000103655 " transform="matrix(184.249204,0,0,184.249204,54.445666,266.896441)"/>
<path style="fill-rule:nonzero;fill:rgb(55.294118%,82.745098%,78.039216%);fill-opacity:1;stroke-width:0.0213452;stroke-linecap:butt;stroke-linejoin:miter;stroke:rgb(60%,60%,60%);stroke-opacity:0.8;stroke-miterlimit:10;" d="M 0.106732 0.00000621251 C 0.106732 0.0589447 0.0589448 0.106732 0.00000631754 0.106732 C -0.0589534 0.106732 -0.106719 0.0589447 -0.106719 0.00000621251 C -0.106719 -0.0589535 -0.0589534 -0.106719 0.00000631754 -0.106719 C 0.0589448 -0.106719 0.106732 -0.0589535 0.106732 0.00000621251 Z M 0.106732 0.00000621251 " transform="matrix(184.249204,0,0,184.249204,57.436336,345.553543)"/>
</g>
</svg>
