<?xml version="1.0" encoding="UTF-8"?>
<svg xmlns="http://www.w3.org/2000/svg" xmlns:xlink="http://www.w3.org/1999/xlink" width="600pt" height="600pt" viewBox="0 0 600 600" version="1.1">
<defs>
<clipPath id="clip1">
  <path d="M 336 277 L 545 277 L 545 479 L 336 479 Z M 336 277 "/>
</clipPath>
<clipPath id="clip2">
  <path d="M 269.707031 200.554688 L 611.390625 200.554688 L 611.390625 554.882812 L 269.707031 554.882812 Z M 269.707031 200.554688 L 414.058594 420.863281 C 414.058594 432.023438 405.011719 441.066406 393.855469 441.066406 C 382.695312 441.066406 373.652344 432.023438 373.652344 420.863281 C 373.652344 409.707031 382.695312 400.660156 393.855469 400.660156 C 405.011719 400.660156 414.058594 409.707031 414.058594 420.863281 Z M 269.707031 200.554688 "/>
</clipPath>
<clipPath id="clip3">
  <path d="M 269.707031 200.554688 L 611.390625 200.554688 L 611.390625 554.882812 L 269.707031 554.882812 Z M 269.707031 200.554688 L 507.441406 334.570312 C 507.441406 345.730469 498.394531 354.773438 487.238281 354.773438 C 476.078125 354.773438 467.035156 345.730469 467.035156 334.570312 C 467.035156 323.414062 476.078125 314.367188 487.238281 314.367188 C 498.394531 314.367188 507.441406 323.414062 507.441406 334.570312 Z M 269.707031 200.554688 "/>
</clipPath>
<clipPath id="clip4">
  <path d="M 336 370.203125 L 475 370.203125 L 475 556.75 L 336 556.75 Z M 336 370.203125 "/>
</clipPath>
<clipPath id="clip5">
  <path d="M 219.09375 370.203125 L 591.894531 370.203125 L 591.894531 556.75 L 219.09375 556.75 Z M 219.09375 370.203125 L 414.058594 420.863281 C 414.058594 432.023438 405.011719 441.066406 393.855469 441.066406 C 382.695312 441.066406 373.652344 432.023438 373.652344 420.863281 C 373.652344 409.707031 382.695312 400.660156 393.855469 400.660156 C 405.011719 400.660156 414.058594 409.707031 414.058594 420.863281 Z M 219.09375 370.203125 "/>
</clipPath>
<clipPath id="clip6">
  <path d="M 219.09375 370.203125 L 591.894531 370.203125 L 591.894531 556.75 L 219.09375 556.75 Z M 219.09375 370.203125 L 437.328125 506.085938 C 437.328125 517.242188 428.285156 526.289062 417.128906 526.289062 C 405.96875 526.289062 396.925781 517.242188 396.925781 506.085938 C 396.925781 494.925781 405.96875 485.882812 417.128906 485.882812 C 428.285156 485.882812 437.328125 494.925781 437.328125 506.085938 Z M 219.09375 370.203125 "/>
</clipPath>
<clipPath id="clip7">
  <path d="M 236.148438 347 L 419.554688 347 L 419.554688 479 L 236.148438 479 Z M 236.148438 347 "/>
</clipPath>
<clipPath id="clip8">
  <path d="M 236.148438 224.902344 L 419.554688 224.902344 L 419.554688 600.550781 L 236.148438 600.550781 Z M 236.148438 224.902344 L 414.058594 420.863281 C 414.058594 432.023438 405.011719 441.066406 393.855469 441.066406 C 382.695312 441.066406 373.652344 432.023438 373.652344 420.863281 C 373.652344 409.707031 382.695312 400.660156 393.855469 400.660156 C 405.011719 400.660156 414.058594 409.707031 414.058594 420.863281 Z M 236.148438 224.902344 "/>
</clipPath>
<clipPath id="clip9">
  <path d="M 236.148438 224.902344 L 419.554688 224.902344 L 419.554688 600.550781 L 236.148438 600.550781 Z M 236.148438 224.902344 L 282.046875 404.585938 C 282.046875 415.742188 273.003906 424.789062 261.84375 424.789062 C 250.6875 424.789062 241.640625 415.742188 241.640625 404.585938 C 241.640625 393.429688 250.6875 384.382812 261.84375 384.382812 C 273.003906 384.382812 282.046875 393.429688 282.046875 404.585938 Z M 236.148438 224.902344 "/>
</clipPath>
<clipPath id="clip10">
  <path d="M 430 277 L 600 277 L 600 419 L 430 419 Z M 430 277 "/>
</clipPath>
<clipPath id="clip11">
  <path d="M 413.003906 168.074219 L 623.765625 168.074219 L 623.765625 527.984375 L 413.003906 527.984375 Z M 413.003906 168.074219 L 569.730469 361.484375 C 569.730469 372.640625 560.683594 381.6875 549.527344 381.6875 C 538.367188 381.6875 529.324219 372.640625 529.324219 361.484375 C 529.324219 350.324219 538.367188 341.28125 549.527344 341.28125 C 560.683594 341.28125 569.730469 350.324219 569.730469 361.484375 Z M 413.003906 168.074219 "/>
</clipPath>
<clipPath id="clip12">
  <path d="M 413.003906 168.074219 L 623.765625 168.074219 L 623.765625 527.984375 L 413.003906 527.984375 Z M 413.003906 168.074219 L 507.441406 334.570312 C 507.441406 345.730469 498.394531 354.773438 487.238281 354.773438 C 476.078125 354.773438 467.035156 345.730469 467.035156 334.570312 C 467.035156 323.414062 476.078125 314.367188 487.238281 314.367188 C 498.394531 314.367188 507.441406 323.414062 507.441406 334.570312 Z M 413.003906 168.074219 "/>
</clipPath>
<clipPath id="clip13">
  <path d="M 430 199.046875 L 553 199.046875 L 553 350.46875 L 430 350.46875 Z M 430 199.046875 "/>
</clipPath>
<clipPath id="clip14">
  <path d="M 306.621094 199.046875 L 675.890625 199.046875 L 675.890625 350.46875 L 306.621094 350.46875 Z M 306.621094 199.046875 L 507.441406 334.570312 C 507.441406 345.730469 498.394531 354.773438 487.238281 354.773438 C 476.078125 354.773438 467.035156 345.730469 467.035156 334.570312 C 467.035156 323.414062 476.078125 314.367188 487.238281 314.367188 C 498.394531 314.367188 507.441406 323.414062 507.441406 334.570312 Z M 306.621094 199.046875 "/>
</clipPath>
<clipPath id="clip15">
  <path d="M 306.621094 199.046875 L 675.890625 199.046875 L 675.890625 350.46875 L 306.621094 350.46875 Z M 306.621094 199.046875 L 515.472656 214.941406 C 515.472656 226.101562 506.429688 235.144531 495.269531 235.144531 C 484.113281 235.144531 475.066406 226.101562 475.066406 214.941406 C 475.066406 203.785156 484.113281 194.738281 495.269531 194.738281 C 506.429688 194.738281 515.472656 203.785156 515.472656 214.941406 Z M 306.621094 199.046875 "/>
</clipPath>
<clipPath id="clip16">
  <path d="M 236 0 L 425 0 L 425 134 L 236 134 Z M 236 0 "/>
</clipPath>
<clipPath id="clip17">
  <path d="M 230.703125 -120.84375 L 430.253906 -120.84375 L 430.253906 246.6875 L 230.703125 246.6875 Z M 230.703125 -120.84375 L 314.191406 49.957031 C 314.191406 61.113281 305.148438 70.160156 293.988281 70.160156 C 282.832031 70.160156 273.785156 61.113281 273.785156 49.957031 C 273.785156 38.796875 282.832031 29.753906 293.988281 29.753906 C 305.148438 29.753906 314.191406 38.796875 314.191406 49.957031 Z M 230.703125 -120.84375 "/>
</clipPath>
<clipPath id="clip18">
  <path d="M 230.703125 -120.84375 L 430.253906 -120.84375 L 430.253906 246.6875 L 230.703125 246.6875 Z M 230.703125 -120.84375 L 387.167969 75.882812 C 387.167969 87.039062 378.125 96.082031 366.964844 96.082031 C 355.808594 96.082031 346.761719 87.039062 346.761719 75.882812 C 346.761719 64.722656 355.808594 55.679688 366.964844 55.679688 C 378.125 55.679688 387.167969 64.722656 387.167969 75.882812 Z M 230.703125 -120.84375 "/>
</clipPath>
<clipPath id="clip19">
  <path d="M 208.773438 0 L 323.414062 0 L 323.414062 108 L 208.773438 108 Z M 208.773438 0 "/>
</clipPath>
<clipPath id="clip20">
  <path d="M 208.773438 -137.3125 L 323.414062 -137.3125 L 323.414062 229.144531 L 208.773438 229.144531 Z M 208.773438 -137.3125 L 314.191406 49.957031 C 314.191406 61.113281 305.148438 70.160156 293.988281 70.160156 C 282.832031 70.160156 273.785156 61.113281 273.785156 49.957031 C 273.785156 38.796875 282.832031 29.753906 293.988281 29.753906 C 305.148438 29.753906 314.191406 38.796875 314.191406 49.957031 Z M 208.773438 -137.3125 "/>
</clipPath>
<clipPath id="clip21">
  <path d="M 208.773438 -137.3125 L 323.414062 -137.3125 L 323.414062 229.144531 L 208.773438 229.144531 Z M 208.773438 -137.3125 L 258.398438 41.871094 C 258.398438 53.027344 249.351562 62.074219 238.195312 62.074219 C 227.035156 62.074219 217.992188 53.027344 217.992188 41.871094 C 217.992188 30.710938 227.035156 21.667969 238.195312 21.667969 C 249.351562 21.667969 258.398438 30.710938 258.398438 41.871094 Z M 208.773438 -137.3125 "/>
</clipPath>
<clipPath id="clip22">
  <path d="M 309 18 L 494 18 L 494 187 L 309 187 Z M 309 18 "/>
</clipPath>
<clipPath id="clip23">
  <path d="M 255.125 -68.507812 L 548.464844 -68.507812 L 548.464844 273.777344 L 255.125 273.777344 Z M 255.125 -68.507812 L 387.167969 75.882812 C 387.167969 87.039062 378.125 96.082031 366.964844 96.082031 C 355.808594 96.082031 346.761719 87.039062 346.761719 75.882812 C 346.761719 64.722656 355.808594 55.679688 366.964844 55.679688 C 378.125 55.679688 387.167969 64.722656 387.167969 75.882812 Z M 255.125 -68.507812 "/>
</clipPath>
<clipPath id="clip24">
  <path d="M 255.125 -68.507812 L 548.464844 -68.507812 L 548.464844 273.777344 L 255.125 273.777344 Z M 255.125 -68.507812 L 456.824219 129.382812 C 456.824219 140.539062 447.78125 149.585938 436.621094 149.585938 C 425.464844 149.585938 416.417969 140.539062 416.417969 129.382812 C 416.417969 118.222656 425.464844 109.179688 436.621094 109.179688 C 447.78125 109.179688 456.824219 118.222656 456.824219 129.382812 Z M 255.125 -68.507812 "/>
</clipPath>
<clipPath id="clip25">
  <path d="M 379 72 L 553 72 L 553 273 L 379 273 Z M 379 72 "/>
</clipPath>
<clipPath id="clip26">
  <path d="M 286.609375 25.285156 L 645.285156 25.285156 L 645.285156 319.042969 L 286.609375 319.042969 Z M 286.609375 25.285156 L 515.472656 214.941406 C 515.472656 226.101562 506.429688 235.144531 495.269531 235.144531 C 484.113281 235.144531 475.066406 226.101562 475.066406 214.941406 C 475.066406 203.785156 484.113281 194.738281 495.269531 194.738281 C 506.429688 194.738281 515.472656 203.785156 515.472656 214.941406 Z M 286.609375 25.285156 "/>
</clipPath>
<clipPath id="clip27">
  <path d="M 286.609375 25.285156 L 645.285156 25.285156 L 645.285156 319.042969 L 286.609375 319.042969 Z M 286.609375 25.285156 L 456.824219 129.382812 C 456.824219 140.539062 447.78125 149.585938 436.621094 149.585938 C 425.464844 149.585938 416.417969 140.539062 416.417969 129.382812 C 416.417969 118.222656 425.464844 109.179688 436.621094 109.179688 C 447.78125 109.179688 456.824219 118.222656 456.824219 129.382812 Z M 286.609375 25.285156 "/>
</clipPath>
<clipPath id="clip28">
  <path d="M 438 133 L 600 133 L 600 273 L 438 273 Z M 438 133 "/>
</clipPath>
<clipPath id="clip29">
  <path d="M 418.339844 25.414062 L 625.792969 25.414062 L 625.792969 380.25 L 418.339844 380.25 Z M 418.339844 25.414062 L 515.472656 214.941406 C 515.472656 226.101562 506.429688 235.144531 495.269531 235.144531 C 484.113281 235.144531 475.066406 226.101562 475.066406 214.941406 C 475.066406 203.785156 484.113281 194.738281 495.269531 194.738281 C 506.429688 194.738281 515.472656 203.785156 515.472656 214.941406 Z M 418.339844 25.414062 "/>
</clipPath>
<clipPath id="clip30">
  <path d="M 418.339844 25.414062 L 625.792969 25.414062 L 625.792969 380.25 L 418.339844 380.25 Z M 418.339844 25.414062 L 569.0625 190.71875 C 569.0625 201.875 560.019531 210.921875 548.859375 210.921875 C 537.703125 210.921875 528.65625 201.875 528.65625 190.71875 C 528.65625 179.5625 537.703125 170.515625 548.859375 170.515625 C 560.019531 170.515625 569.0625 179.5625 569.0625 190.71875 Z M 418.339844 25.414062 "/>
</clipPath>
<clipPath id="clip31">
  <path d="M 359 475.863281 L 483 475.863281 L 483 588.355469 L 359 588.355469 Z M 359 475.863281 "/>
</clipPath>
<clipPath id="clip32">
  <path d="M 238.0625 475.863281 L 603.984375 475.863281 L 603.984375 588.355469 L 238.0625 588.355469 Z M 238.0625 475.863281 L 445.117188 558.128906 C 445.117188 569.289062 436.074219 578.332031 424.914062 578.332031 C 413.757812 578.332031 404.714844 569.289062 404.714844 558.128906 C 404.714844 546.972656 413.757812 537.925781 424.914062 537.925781 C 436.074219 537.925781 445.117188 546.972656 445.117188 558.128906 Z M 238.0625 475.863281 "/>
</clipPath>
<clipPath id="clip33">
  <path d="M 238.0625 475.863281 L 603.984375 475.863281 L 603.984375 588.355469 L 238.0625 588.355469 Z M 238.0625 475.863281 L 437.328125 506.085938 C 437.328125 517.242188 428.285156 526.289062 417.128906 526.289062 C 405.96875 526.289062 396.925781 517.242188 396.925781 506.085938 C 396.925781 494.925781 405.96875 485.882812 417.128906 485.882812 C 428.285156 485.882812 437.328125 494.925781 437.328125 506.085938 Z M 238.0625 475.863281 "/>
</clipPath>
<clipPath id="clip34">
  <path d="M 155 276 L 319 276 L 319 462 L 155 462 Z M 155 276 "/>
</clipPath>
<clipPath id="clip35">
  <path d="M 62.871094 228.34375 L 411.339844 228.34375 L 411.339844 509.441406 L 62.871094 509.441406 Z M 62.871094 228.34375 L 282.046875 404.585938 C 282.046875 415.742188 273.003906 424.789062 261.84375 424.789062 C 250.6875 424.789062 241.640625 415.742188 241.640625 404.585938 C 241.640625 393.429688 250.6875 384.382812 261.84375 384.382812 C 273.003906 384.382812 282.046875 393.429688 282.046875 404.585938 Z M 62.871094 228.34375 "/>
</clipPath>
<clipPath id="clip36">
  <path d="M 62.871094 228.34375 L 411.339844 228.34375 L 411.339844 509.441406 L 62.871094 509.441406 Z M 62.871094 228.34375 L 232.566406 333.195312 C 232.566406 344.355469 223.519531 353.398438 212.363281 353.398438 C 201.207031 353.398438 192.160156 344.355469 192.160156 333.195312 C 192.160156 322.039062 201.207031 312.992188 212.363281 312.992188 C 223.519531 312.992188 232.566406 322.039062 232.566406 333.195312 Z M 62.871094 228.34375 "/>
</clipPath>
<clipPath id="clip37">
  <path d="M 123.640625 347 L 294.714844 347 L 294.714844 480 L 123.640625 480 Z M 123.640625 347 "/>
</clipPath>
<clipPath id="clip38">
  <path d="M 123.640625 225.9375 L 294.714844 225.9375 L 294.714844 600.628906 L 123.640625 600.628906 Z M 123.640625 225.9375 L 282.046875 404.585938 C 282.046875 415.742188 273.003906 424.789062 261.84375 424.789062 C 250.6875 424.789062 241.640625 415.742188 241.640625 404.585938 C 241.640625 393.429688 250.6875 384.382812 261.84375 384.382812 C 273.003906 384.382812 282.046875 393.429688 282.046875 404.585938 Z M 123.640625 225.9375 "/>
</clipPath>
<clipPath id="clip39">
  <path d="M 123.640625 225.9375 L 294.714844 225.9375 L 294.714844 600.628906 L 123.640625 600.628906 Z M 123.640625 225.9375 L 176.710938 421.976562 C 176.710938 433.136719 167.664062 442.179688 156.507812 442.179688 C 145.347656 442.179688 136.304688 433.136719 136.304688 421.976562 C 136.304688 410.820312 145.347656 401.773438 156.507812 401.773438 C 167.664062 401.773438 176.710938 410.820312 176.710938 421.976562 Z M 123.640625 225.9375 "/>
</clipPath>
<clipPath id="clip40">
  <path d="M 0 206 L 155 206 L 155 381 L 0 381 Z M 0 206 "/>
</clipPath>
<clipPath id="clip41">
  <path d="M -93.410156 151.175781 L 240.804688 151.175781 L 240.804688 436.058594 L -93.410156 436.058594 Z M -93.410156 151.175781 L 70.675781 263.671875 C 70.675781 274.828125 61.632812 283.875 50.472656 283.875 C 39.316406 283.875 30.269531 274.828125 30.269531 263.671875 C 30.269531 252.515625 39.316406 243.46875 50.472656 243.46875 C 61.632812 243.46875 70.675781 252.515625 70.675781 263.671875 Z M -93.410156 151.175781 "/>
</clipPath>
<clipPath id="clip42">
  <path d="M -93.410156 151.175781 L 240.804688 151.175781 L 240.804688 436.058594 L -93.410156 436.058594 Z M -93.410156 151.175781 L 117.121094 323.558594 C 117.121094 334.714844 108.074219 343.761719 96.917969 343.761719 C 85.757812 343.761719 76.714844 334.714844 76.714844 323.558594 C 76.714844 312.402344 85.757812 303.355469 96.917969 303.355469 C 108.074219 303.355469 117.121094 312.402344 117.121094 323.558594 Z M -93.410156 151.175781 "/>
</clipPath>
<clipPath id="clip43">
  <path d="M 39 236 L 204 236 L 204 381 L 39 381 Z M 39 236 "/>
</clipPath>
<clipPath id="clip44">
  <path d="M 1.90625 137.820312 L 241.824219 137.820312 L 241.824219 479.402344 L 1.90625 479.402344 Z M 1.90625 137.820312 L 167.011719 293.660156 C 167.011719 304.820312 157.96875 313.863281 146.808594 313.863281 C 135.652344 313.863281 126.605469 304.820312 126.605469 293.660156 C 126.605469 282.503906 135.652344 273.457031 146.808594 273.457031 C 157.96875 273.457031 167.011719 282.503906 167.011719 293.660156 Z M 1.90625 137.820312 "/>
</clipPath>
<clipPath id="clip45">
  <path d="M 1.90625 137.820312 L 241.824219 137.820312 L 241.824219 479.402344 L 1.90625 479.402344 Z M 1.90625 137.820312 L 117.121094 323.558594 C 117.121094 334.714844 108.074219 343.761719 96.917969 343.761719 C 85.757812 343.761719 76.714844 334.714844 76.714844 323.558594 C 76.714844 312.402344 85.757812 303.355469 96.917969 303.355469 C 108.074219 303.355469 117.121094 312.402344 117.121094 323.558594 Z M 1.90625 137.820312 "/>
</clipPath>
<clipPath id="clip46">
  <path d="M 89 236 L 270 236 L 270 391 L 89 391 Z M 89 236 "/>
</clipPath>
<clipPath id="clip47">
  <path d="M 51.375 138.074219 L 307.800781 138.074219 L 307.800781 488.785156 L 51.375 488.785156 Z M 51.375 138.074219 L 167.011719 293.660156 C 167.011719 304.820312 157.96875 313.863281 146.808594 313.863281 C 135.652344 313.863281 126.605469 304.820312 126.605469 293.660156 C 126.605469 282.503906 135.652344 273.457031 146.808594 273.457031 C 157.96875 273.457031 167.011719 282.503906 167.011719 293.660156 Z M 51.375 138.074219 "/>
</clipPath>
<clipPath id="clip48">
  <path d="M 51.375 138.074219 L 307.800781 138.074219 L 307.800781 488.785156 L 51.375 488.785156 Z M 51.375 138.074219 L 232.566406 333.195312 C 232.566406 344.355469 223.519531 353.398438 212.363281 353.398438 C 201.207031 353.398438 192.160156 344.355469 192.160156 333.195312 C 192.160156 322.039062 201.207031 312.992188 212.363281 312.992188 C 223.519531 312.992188 232.566406 322.039062 232.566406 333.195312 Z M 51.375 138.074219 "/>
</clipPath>
<clipPath id="clip49">
  <path d="M 39 266 L 214 266 L 214 480 L 39 480 Z M 39 266 "/>
</clipPath>
<clipPath id="clip50">
  <path d="M -58.507812 227.859375 L 311.9375 227.859375 L 311.9375 517.679688 L -58.507812 517.679688 Z M -58.507812 227.859375 L 117.121094 323.558594 C 117.121094 334.714844 108.074219 343.761719 96.917969 343.761719 C 85.757812 343.761719 76.714844 334.714844 76.714844 323.558594 C 76.714844 312.402344 85.757812 303.355469 96.917969 303.355469 C 108.074219 303.355469 117.121094 312.402344 117.121094 323.558594 Z M -58.507812 227.859375 "/>
</clipPath>
<clipPath id="clip51">
  <path d="M -58.507812 227.859375 L 311.9375 227.859375 L 311.9375 517.679688 L -58.507812 517.679688 Z M -58.507812 227.859375 L 176.710938 421.976562 C 176.710938 433.136719 167.664062 442.179688 156.507812 442.179688 C 145.347656 442.179688 136.304688 433.136719 136.304688 421.976562 C 136.304688 410.820312 145.347656 401.773438 156.507812 401.773438 C 167.664062 401.773438 176.710938 410.820312 176.710938 421.976562 Z M -58.507812 227.859375 "/>
</clipPath>
<clipPath id="clip52">
  <path d="M 82 376.683594 L 214 376.683594 L 214 537.570312 L 82 537.570312 Z M 82 376.683594 "/>
</clipPath>
<clipPath id="clip53">
  <path d="M -36.480469 376.683594 L 332.648438 376.683594 L 332.648438 537.570312 L -36.480469 537.570312 Z M -36.480469 376.683594 L 159.859375 492.273438 C 159.859375 503.429688 150.8125 512.476562 139.65625 512.476562 C 128.5 512.476562 119.453125 503.429688 119.453125 492.273438 C 119.453125 481.113281 128.5 472.070312 139.65625 472.070312 C 150.8125 472.070312 159.859375 481.113281 159.859375 492.273438 Z M -36.480469 376.683594 "/>
</clipPath>
<clipPath id="clip54">
  <path d="M -36.480469 376.683594 L 332.648438 376.683594 L 332.648438 537.570312 L -36.480469 537.570312 Z M -36.480469 376.683594 L 176.710938 421.976562 C 176.710938 433.136719 167.664062 442.179688 156.507812 442.179688 C 145.347656 442.179688 136.304688 433.136719 136.304688 421.976562 C 136.304688 410.820312 145.347656 401.773438 156.507812 401.773438 C 167.664062 401.773438 176.710938 410.820312 176.710938 421.976562 Z M -36.480469 376.683594 "/>
</clipPath>
</defs>
<g id="surface141">
<g clip-path="url(#clip1)" clip-rule="nonzero">
<g clip-path="url(#clip2)" clip-rule="evenodd">
<g clip-path="url(#clip3)" clip-rule="evenodd">
<path style="fill:none;stroke-width:0.0228317;stroke-linecap:butt;stroke-linejoin:miter;stroke:rgb(17.96875%,20.3125%,21.09375%);stroke-opacity:0.8;stroke-miterlimit:10;" d="M 2.444952 2.389142 L 2.972616 1.901539 " transform="matrix(176.973907,0,0,176.973907,-38.837265,-1.952486)"/>
</g>
</g>
</g>
<g clip-path="url(#clip4)" clip-rule="nonzero">
<g clip-path="url(#clip5)" clip-rule="evenodd">
<g clip-path="url(#clip6)" clip-rule="evenodd">
<path style="fill:none;stroke-width:0.0228317;stroke-linecap:butt;stroke-linejoin:miter;stroke:rgb(17.96875%,20.3125%,21.09375%);stroke-opacity:0.8;stroke-miterlimit:10;" d="M 2.444952 2.389142 L 2.57646 2.870697 " transform="matrix(176.973907,0,0,176.973907,-38.837265,-1.952486)"/>
</g>
</g>
</g>
<g clip-path="url(#clip7)" clip-rule="nonzero">
<g clip-path="url(#clip8)" clip-rule="evenodd">
<g clip-path="url(#clip9)" clip-rule="evenodd">
<path style="fill:none;stroke-width:0.0228317;stroke-linecap:butt;stroke-linejoin:miter;stroke:rgb(17.96875%,20.3125%,21.09375%);stroke-opacity:0.8;stroke-miterlimit:10;" d="M 2.444952 2.389142 L 1.699013 2.297166 " transform="matrix(176.973907,0,0,176.973907,-38.837265,-1.952486)"/>
</g>
</g>
</g>
<g clip-path="url(#clip10)" clip-rule="nonzero">
<g clip-path="url(#clip11)" clip-rule="evenodd">
<g clip-path="url(#clip12)" clip-rule="evenodd">
<path style="fill:none;stroke-width:0.0228317;stroke-linecap:butt;stroke-linejoin:miter;stroke:rgb(17.96875%,20.3125%,21.09375%);stroke-opacity:0.8;stroke-miterlimit:10;" d="M 3.324584 2.053618 L 2.972616 1.901539 " transform="matrix(176.973907,0,0,176.973907,-38.837265,-1.952486)"/>
</g>
</g>
</g>
<g clip-path="url(#clip13)" clip-rule="nonzero">
<g clip-path="url(#clip14)" clip-rule="evenodd">
<g clip-path="url(#clip15)" clip-rule="evenodd">
<path style="fill:none;stroke-width:0.0228317;stroke-linecap:butt;stroke-linejoin:miter;stroke:rgb(17.96875%,20.3125%,21.09375%);stroke-opacity:0.8;stroke-miterlimit:10;" d="M 2.972616 1.901539 L 3.017997 1.22557 " transform="matrix(176.973907,0,0,176.973907,-38.837265,-1.952486)"/>
</g>
</g>
</g>
<g clip-path="url(#clip16)" clip-rule="nonzero">
<g clip-path="url(#clip17)" clip-rule="evenodd">
<g clip-path="url(#clip18)" clip-rule="evenodd">
<path style="fill:none;stroke-width:0.0228317;stroke-linecap:butt;stroke-linejoin:miter;stroke:rgb(17.96875%,20.3125%,21.09375%);stroke-opacity:0.8;stroke-miterlimit:10;" d="M 1.880648 0.293317 L 2.293005 0.439812 " transform="matrix(176.973907,0,0,176.973907,-38.837265,-1.952486)"/>
</g>
</g>
</g>
<g clip-path="url(#clip19)" clip-rule="nonzero">
<g clip-path="url(#clip20)" clip-rule="evenodd">
<g clip-path="url(#clip21)" clip-rule="evenodd">
<path style="fill:none;stroke-width:0.0228317;stroke-linecap:butt;stroke-linejoin:miter;stroke:rgb(17.96875%,20.3125%,21.09375%);stroke-opacity:0.8;stroke-miterlimit:10;" d="M 1.880648 0.293317 L 1.565387 0.247627 " transform="matrix(176.973907,0,0,176.973907,-38.837265,-1.952486)"/>
</g>
</g>
</g>
<g clip-path="url(#clip22)" clip-rule="nonzero">
<g clip-path="url(#clip23)" clip-rule="evenodd">
<g clip-path="url(#clip24)" clip-rule="evenodd">
<path style="fill:none;stroke-width:0.0228317;stroke-linecap:butt;stroke-linejoin:miter;stroke:rgb(17.96875%,20.3125%,21.09375%);stroke-opacity:0.8;stroke-miterlimit:10;" d="M 2.293005 0.439812 L 2.686601 0.742117 " transform="matrix(176.973907,0,0,176.973907,-38.837265,-1.952486)"/>
</g>
</g>
</g>
<g clip-path="url(#clip25)" clip-rule="nonzero">
<g clip-path="url(#clip26)" clip-rule="evenodd">
<g clip-path="url(#clip27)" clip-rule="evenodd">
<path style="fill:none;stroke-width:0.0228317;stroke-linecap:butt;stroke-linejoin:miter;stroke:rgb(17.96875%,20.3125%,21.09375%);stroke-opacity:0.8;stroke-miterlimit:10;" d="M 3.017997 1.22557 L 2.686601 0.742117 " transform="matrix(176.973907,0,0,176.973907,-38.837265,-1.952486)"/>
</g>
</g>
</g>
<g clip-path="url(#clip28)" clip-rule="nonzero">
<g clip-path="url(#clip29)" clip-rule="evenodd">
<g clip-path="url(#clip30)" clip-rule="evenodd">
<path style="fill:none;stroke-width:0.0228317;stroke-linecap:butt;stroke-linejoin:miter;stroke:rgb(17.96875%,20.3125%,21.09375%);stroke-opacity:0.8;stroke-miterlimit:10;" d="M 3.017997 1.22557 L 3.32081 1.088699 " transform="matrix(176.973907,0,0,176.973907,-38.837265,-1.952486)"/>
</g>
</g>
</g>
<g clip-path="url(#clip31)" clip-rule="nonzero">
<g clip-path="url(#clip32)" clip-rule="evenodd">
<g clip-path="url(#clip33)" clip-rule="evenodd">
<path style="fill:none;stroke-width:0.0228317;stroke-linecap:butt;stroke-linejoin:miter;stroke:rgb(17.96875%,20.3125%,21.09375%);stroke-opacity:0.8;stroke-miterlimit:10;" d="M 2.62045 3.164768 L 2.57646 2.870697 " transform="matrix(176.973907,0,0,176.973907,-38.837265,-1.952486)"/>
</g>
</g>
</g>
<g clip-path="url(#clip34)" clip-rule="nonzero">
<g clip-path="url(#clip35)" clip-rule="evenodd">
<g clip-path="url(#clip36)" clip-rule="evenodd">
<path style="fill:none;stroke-width:0.0228317;stroke-linecap:butt;stroke-linejoin:miter;stroke:rgb(17.96875%,20.3125%,21.09375%);stroke-opacity:0.8;stroke-miterlimit:10;" d="M 1.699013 2.297166 L 1.419421 1.89377 " transform="matrix(176.973907,0,0,176.973907,-38.837265,-1.952486)"/>
</g>
</g>
</g>
<g clip-path="url(#clip37)" clip-rule="nonzero">
<g clip-path="url(#clip38)" clip-rule="evenodd">
<g clip-path="url(#clip39)" clip-rule="evenodd">
<path style="fill:none;stroke-width:0.0228317;stroke-linecap:butt;stroke-linejoin:miter;stroke:rgb(17.96875%,20.3125%,21.09375%);stroke-opacity:0.8;stroke-miterlimit:10;" d="M 1.699013 2.297166 L 1.103807 2.395432 " transform="matrix(176.973907,0,0,176.973907,-38.837265,-1.952486)"/>
</g>
</g>
</g>
<g clip-path="url(#clip40)" clip-rule="nonzero">
<g clip-path="url(#clip41)" clip-rule="evenodd">
<g clip-path="url(#clip42)" clip-rule="evenodd">
<path style="fill:none;stroke-width:0.0228317;stroke-linecap:butt;stroke-linejoin:miter;stroke:rgb(17.96875%,20.3125%,21.09375%);stroke-opacity:0.8;stroke-miterlimit:10;" d="M 0.50465 1.500924 L 0.767092 1.839317 " transform="matrix(176.973907,0,0,176.973907,-38.837265,-1.952486)"/>
</g>
</g>
</g>
<g clip-path="url(#clip43)" clip-rule="nonzero">
<g clip-path="url(#clip44)" clip-rule="evenodd">
<g clip-path="url(#clip45)" clip-rule="evenodd">
<path style="fill:none;stroke-width:0.0228317;stroke-linecap:butt;stroke-linejoin:miter;stroke:rgb(17.96875%,20.3125%,21.09375%);stroke-opacity:0.8;stroke-miterlimit:10;" d="M 1.049001 1.670374 L 0.767092 1.839317 " transform="matrix(176.973907,0,0,176.973907,-38.837265,-1.952486)"/>
</g>
</g>
</g>
<g clip-path="url(#clip46)" clip-rule="nonzero">
<g clip-path="url(#clip47)" clip-rule="evenodd">
<g clip-path="url(#clip48)" clip-rule="evenodd">
<path style="fill:none;stroke-width:0.0228317;stroke-linecap:butt;stroke-linejoin:miter;stroke:rgb(17.96875%,20.3125%,21.09375%);stroke-opacity:0.8;stroke-miterlimit:10;" d="M 1.049001 1.670374 L 1.419421 1.89377 " transform="matrix(176.973907,0,0,176.973907,-38.837265,-1.952486)"/>
</g>
</g>
</g>
<g clip-path="url(#clip49)" clip-rule="nonzero">
<g clip-path="url(#clip50)" clip-rule="evenodd">
<g clip-path="url(#clip51)" clip-rule="evenodd">
<path style="fill:none;stroke-width:0.0228317;stroke-linecap:butt;stroke-linejoin:miter;stroke:rgb(17.96875%,20.3125%,21.09375%);stroke-opacity:0.8;stroke-miterlimit:10;" d="M 0.767092 1.839317 L 1.103807 2.395432 " transform="matrix(176.973907,0,0,176.973907,-38.837265,-1.952486)"/>
</g>
</g>
</g>
<g clip-path="url(#clip52)" clip-rule="nonzero">
<g clip-path="url(#clip53)" clip-rule="evenodd">
<g clip-path="url(#clip54)" clip-rule="evenodd">
<path style="fill:none;stroke-width:0.0228317;stroke-linecap:butt;stroke-linejoin:miter;stroke:rgb(17.96875%,20.3125%,21.09375%);stroke-opacity:0.8;stroke-miterlimit:10;" d="M 1.008587 2.792649 L 1.103807 2.395432 " transform="matrix(176.973907,0,0,176.973907,-38.837265,-1.952486)"/>
</g>
</g>
</g>
<path style="fill-rule:nonzero;fill:rgb(100%,92.941176%,43.529412%);fill-opacity:1;stroke-width:0.0228317;stroke-linecap:butt;stroke-linejoin:miter;stroke:rgb(60%,60%,60%);stroke-opacity:0.8;stroke-miterlimit:10;" d="M 0.114164 -0.00000648649 C 0.114164 0.0630545 0.0630442 0.114152 0.00000529597 0.114152 C -0.0630557 0.114152 -0.114153 0.0630545 -0.114153 -0.00000648649 C -0.114153 -0.0630454 -0.0630557 -0.114165 0.00000529597 -0.114165 C 0.0630442 -0.114165 0.114164 -0.0630454 0.114164 -0.00000648649 Z M 0.114164 -0.00000648649 " transform="matrix(176.973907,0,0,176.973907,393.854532,420.864429)"/>
<path style="fill-rule:nonzero;fill:rgb(100%,92.941176%,43.529412%);fill-opacity:1;stroke-width:0.0228317;stroke-linecap:butt;stroke-linejoin:miter;stroke:rgb(60%,60%,60%);stroke-opacity:0.8;stroke-miterlimit:10;" d="M 0.114169 0.0000104608 C 0.114169 0.0630494 0.063049 0.114169 0.0000100722 0.114169 C -0.063051 0.114169 -0.114149 0.0630494 -0.114149 0.0000104608 C -0.114149 -0.0630506 -0.063051 -0.114148 0.0000100722 -0.114148 C 0.063049 -0.114148 0.114169 -0.0630506 0.114169 0.0000104608 Z M 0.114169 0.0000104608 " transform="matrix(176.973907,0,0,176.973907,549.525561,361.482524)"/>
<path style="fill-rule:nonzero;fill:rgb(100%,92.941176%,43.529412%);fill-opacity:1;stroke-width:0.0228317;stroke-linecap:butt;stroke-linejoin:miter;stroke:rgb(60%,60%,60%);stroke-opacity:0.8;stroke-miterlimit:10;" d="M 0.114169 -0.00000386109 C 0.114169 0.0630572 0.063049 0.114155 0.0000100168 0.114155 C -0.063051 0.114155 -0.114149 0.0630572 -0.114149 -0.00000386109 C -0.114149 -0.0630428 -0.063051 -0.114163 0.0000100168 -0.114163 C 0.063049 -0.114163 0.114169 -0.0630428 0.114169 -0.00000386109 Z M 0.114169 -0.00000386109 " transform="matrix(176.973907,0,0,176.973907,487.236509,334.570996)"/>
<path style="fill-rule:nonzero;fill:rgb(100%,92.941176%,43.529412%);fill-opacity:1;stroke-width:0.0228317;stroke-linecap:butt;stroke-linejoin:miter;stroke:rgb(60%,60%,60%);stroke-opacity:0.8;stroke-miterlimit:10;" d="M 0.114151 0.00000836577 C 0.114151 0.0630473 0.0630532 0.114167 -0.00000781425 0.114167 C -0.0630468 0.114167 -0.114167 0.0630473 -0.114167 0.00000836577 C -0.114167 -0.0630527 -0.0630468 -0.11415 -0.00000781425 -0.11415 C 0.0630532 -0.11415 0.114151 -0.0630527 0.114151 0.00000836577 Z M 0.114151 0.00000836577 " transform="matrix(176.973907,0,0,176.973907,293.989664,49.955551)"/>
<path style="fill-rule:nonzero;fill:rgb(100%,92.941176%,43.529412%);fill-opacity:1;stroke-width:0.0228317;stroke-linecap:butt;stroke-linejoin:miter;stroke:rgb(60%,60%,60%);stroke-opacity:0.8;stroke-miterlimit:10;" d="M 0.114149 0.0000110278 C 0.114149 0.06305 0.0630513 0.114148 -0.00000975654 0.114148 C -0.0630487 0.114148 -0.114169 0.06305 -0.114169 0.0000110278 C -0.114169 -0.06305 -0.0630487 -0.114148 -0.00000975654 -0.114148 C 0.0630513 -0.114148 0.114149 -0.06305 0.114149 0.0000110278 Z M 0.114149 0.0000110278 " transform="matrix(176.973907,0,0,176.973907,366.96657,75.880861)"/>
<path style="fill-rule:nonzero;fill:rgb(100%,92.941176%,43.529412%);fill-opacity:1;stroke-width:0.0228317;stroke-linecap:butt;stroke-linejoin:miter;stroke:rgb(60%,60%,60%);stroke-opacity:0.8;stroke-miterlimit:10;" d="M 0.114148 -0.00000643493 C 0.114148 0.0630546 0.0630505 0.114152 -0.000010522 0.114152 C -0.0630495 0.114152 -0.114169 0.0630546 -0.114169 -0.00000643493 C -0.114169 -0.0630454 -0.0630495 -0.114165 -0.000010522 -0.114165 C 0.0630505 -0.114165 0.114148 -0.0630454 0.114148 -0.00000643493 Z M 0.114148 -0.00000643493 " transform="matrix(176.973907,0,0,176.973907,495.271393,214.942545)"/>
<path style="fill-rule:nonzero;fill:rgb(100%,92.941176%,43.529412%);fill-opacity:1;stroke-width:0.0228317;stroke-linecap:butt;stroke-linejoin:miter;stroke:rgb(60%,60%,60%);stroke-opacity:0.8;stroke-miterlimit:10;" d="M 0.114154 0.00000348266 C 0.114154 0.0630424 0.063056 0.114162 -0.00000501443 0.114162 C -0.063044 0.114162 -0.114164 0.0630424 -0.114164 0.00000348266 C -0.114164 -0.0630575 -0.063044 -0.114155 -0.00000501443 -0.114155 C 0.063056 -0.114155 0.114154 -0.0630575 0.114154 0.00000348266 Z M 0.114154 0.00000348266 " transform="matrix(176.973907,0,0,176.973907,436.621981,129.382196)"/>
<path style="fill-rule:nonzero;fill:rgb(100%,92.941176%,43.529412%);fill-opacity:1;stroke-width:0.0228317;stroke-linecap:butt;stroke-linejoin:miter;stroke:rgb(60%,60%,60%);stroke-opacity:0.8;stroke-miterlimit:10;" d="M 0.114149 -0.00000135342 C 0.114149 0.0630376 0.063051 0.114157 -0.0000100661 0.114157 C -0.063049 0.114157 -0.114169 0.0630376 -0.114169 -0.00000135342 C -0.114169 -0.0630403 -0.063049 -0.11416 -0.0000100661 -0.11416 C 0.063051 -0.11416 0.114149 -0.0630403 0.114149 -0.00000135342 Z M 0.114149 -0.00000135342 " transform="matrix(176.973907,0,0,176.973907,548.861156,190.71899)"/>
<path style="fill-rule:nonzero;fill:rgb(100%,92.941176%,43.529412%);fill-opacity:1;stroke-width:0.0228317;stroke-linecap:butt;stroke-linejoin:miter;stroke:rgb(60%,60%,60%);stroke-opacity:0.8;stroke-miterlimit:10;" d="M 0.114167 0.00000585434 C 0.114167 0.0630448 0.0630467 0.114165 0.00000774375 0.114165 C -0.0630533 0.114165 -0.114151 0.0630448 -0.114151 0.00000585434 C -0.114151 -0.0630552 -0.0630533 -0.114153 0.00000774375 -0.114153 C 0.0630467 -0.114153 0.114167 -0.0630552 0.114167 0.00000585434 Z M 0.114167 0.00000585434 " transform="matrix(176.973907,0,0,176.973907,238.193942,41.870058)"/>
<path style="fill-rule:nonzero;fill:rgb(100%,92.941176%,43.529412%);fill-opacity:1;stroke-width:0.0228317;stroke-linecap:butt;stroke-linejoin:miter;stroke:rgb(60%,60%,60%);stroke-opacity:0.8;stroke-miterlimit:10;" d="M 0.114148 -0.00000585434 C 0.114148 0.0630552 0.0630502 0.114153 -0.0000108681 0.114153 C -0.0630498 0.114153 -0.114148 0.0630552 -0.114148 -0.00000585434 C -0.114148 -0.0630448 -0.0630498 -0.114165 -0.0000108681 -0.114165 C 0.0630502 -0.114165 0.114148 -0.0630448 0.114148 -0.00000585434 Z M 0.114148 -0.00000585434 " transform="matrix(176.973907,0,0,176.973907,424.915986,558.129942)"/>
<path style="fill-rule:nonzero;fill:rgb(100%,92.941176%,43.529412%);fill-opacity:1;stroke-width:0.0228317;stroke-linecap:butt;stroke-linejoin:miter;stroke:rgb(60%,60%,60%);stroke-opacity:0.8;stroke-miterlimit:10;" d="M 0.114148 0.00000631668 C 0.114148 0.0630453 0.0630499 0.114165 0.0000109456 0.114165 C -0.0630501 0.114165 -0.114148 0.0630453 -0.114148 0.00000631668 C -0.114148 -0.0630547 -0.0630501 -0.114152 0.0000109456 -0.114152 C 0.0630499 -0.114152 0.114148 -0.0630547 0.114148 0.00000631668 Z M 0.114148 0.00000631668 " transform="matrix(176.973907,0,0,176.973907,417.126969,506.08482)"/>
<path style="fill-rule:nonzero;fill:rgb(55.294118%,82.745098%,78.039216%);fill-opacity:1;stroke-width:0.0228317;stroke-linecap:butt;stroke-linejoin:miter;stroke:rgb(60%,60%,60%);stroke-opacity:0.8;stroke-miterlimit:10;" d="M 0.114149 0.00000202645 C 0.114149 0.063041 0.0630508 0.114161 -0.0000102047 0.114161 C -0.0630492 0.114161 -0.114169 0.063041 -0.114169 0.00000202645 C -0.114169 -0.0630369 -0.0630492 -0.114157 -0.0000102047 -0.114157 C 0.0630508 -0.114157 0.114149 -0.0630369 0.114149 0.00000202645 Z M 0.114149 0.00000202645 " transform="matrix(176.973907,0,0,176.973907,261.845556,404.585579)"/>
<path style="fill-rule:nonzero;fill:rgb(55.294118%,82.745098%,78.039216%);fill-opacity:1;stroke-width:0.0228317;stroke-linecap:butt;stroke-linejoin:miter;stroke:rgb(60%,60%,60%);stroke-opacity:0.8;stroke-miterlimit:10;" d="M 0.114149 0.000000062051 C 0.114149 0.063039 0.063051 0.114159 -0.0000100722 0.114159 C -0.063049 0.114159 -0.114169 0.063039 -0.114169 0.000000062051 C -0.114169 -0.0630389 -0.063049 -0.114159 -0.0000100722 -0.114159 C 0.063051 -0.114159 0.114149 -0.0630389 0.114149 0.000000062051 Z M 0.114149 0.000000062051 " transform="matrix(176.973907,0,0,176.973907,50.474439,263.671864)"/>
<path style="fill-rule:nonzero;fill:rgb(55.294118%,82.745098%,78.039216%);fill-opacity:1;stroke-width:0.0228317;stroke-linecap:butt;stroke-linejoin:miter;stroke:rgb(60%,60%,60%);stroke-opacity:0.8;stroke-miterlimit:10;" d="M 0.114149 -0.00000393979 C 0.114149 0.0630571 0.0630517 0.114155 -0.00000928662 0.114155 C -0.0630482 0.114155 -0.114168 0.0630571 -0.114168 -0.00000393979 C -0.114168 -0.0630429 -0.0630482 -0.114163 -0.00000928662 -0.114163 C 0.0630517 -0.114163 0.114149 -0.0630429 0.114149 -0.00000393979 Z M 0.114149 -0.00000393979 " transform="matrix(176.973907,0,0,176.973907,146.810237,293.660853)"/>
<path style="fill-rule:nonzero;fill:rgb(55.294118%,82.745098%,78.039216%);fill-opacity:1;stroke-width:0.0228317;stroke-linecap:butt;stroke-linejoin:miter;stroke:rgb(60%,60%,60%);stroke-opacity:0.8;stroke-miterlimit:10;" d="M 0.114167 -0.00000102784 C 0.114167 0.0630379 0.0630468 0.114158 0.00000782069 0.114158 C -0.0630532 0.114158 -0.114151 0.0630379 -0.114151 -0.00000102784 C -0.114151 -0.06304 -0.0630532 -0.11416 0.00000782069 -0.11416 C 0.0630468 -0.11416 0.114167 -0.06304 0.114167 -0.00000102784 Z M 0.114167 -0.00000102784 " transform="matrix(176.973907,0,0,176.973907,96.916585,323.558776)"/>
<path style="fill-rule:nonzero;fill:rgb(55.294118%,82.745098%,78.039216%);fill-opacity:1;stroke-width:0.0228317;stroke-linecap:butt;stroke-linejoin:miter;stroke:rgb(60%,60%,60%);stroke-opacity:0.8;stroke-miterlimit:10;" d="M 0.114159 -0.00000400234 C 0.114159 0.063057 0.0630394 0.114155 0.000000399168 0.114155 C -0.0630386 0.114155 -0.114158 0.063057 -0.114158 -0.00000400234 C -0.114158 -0.063043 -0.0630386 -0.114163 0.000000399168 -0.114163 C 0.0630394 -0.114163 0.114159 -0.063043 0.114159 -0.00000400234 Z M 0.114159 -0.00000400234 " transform="matrix(176.973907,0,0,176.973907,212.363211,333.196021)"/>
<path style="fill-rule:nonzero;fill:rgb(55.294118%,82.745098%,78.039216%);fill-opacity:1;stroke-width:0.0228317;stroke-linecap:butt;stroke-linejoin:miter;stroke:rgb(60%,60%,60%);stroke-opacity:0.8;stroke-miterlimit:10;" d="M 0.114159 0.00000993029 C 0.114159 0.0630489 0.0630393 0.114169 0.000000352449 0.114169 C -0.0630386 0.114169 -0.114158 0.0630489 -0.114158 0.00000993029 C -0.114158 -0.0630511 -0.0630386 -0.114149 0.000000352449 -0.114149 C 0.0630393 -0.114149 0.114159 -0.0630511 0.114159 0.00000993029 Z M 0.114159 0.00000993029 " transform="matrix(176.973907,0,0,176.973907,139.656188,492.27168)"/>
<path style="fill-rule:nonzero;fill:rgb(55.294118%,82.745098%,78.039216%);fill-opacity:1;stroke-width:0.0228317;stroke-linecap:butt;stroke-linejoin:miter;stroke:rgb(60%,60%,60%);stroke-opacity:0.8;stroke-miterlimit:10;" d="M 0.114164 -0.00000535522 C 0.114164 0.0630557 0.0630443 0.114153 0.00000533351 0.114153 C -0.0630557 0.114153 -0.114153 0.0630557 -0.114153 -0.00000535522 C -0.114153 -0.0630443 -0.0630557 -0.114164 0.00000533351 -0.114164 C 0.0630443 -0.114164 0.114164 -0.0630443 0.114164 -0.00000535522 Z M 0.114164 -0.00000535522 " transform="matrix(176.973907,0,0,176.973907,156.506869,421.97751)"/>
</g>
</svg>
