<?xml version="1.0" encoding="UTF-8"?>
<svg xmlns="http://www.w3.org/2000/svg" xmlns:xlink="http://www.w3.org/1999/xlink" width="600pt" height="600pt" viewBox="0 0 600 600" version="1.1">
<defs>
<clipPath id="clip1">
  <path d="M 430 215.367188 L 554 215.367188 L 554 347.046875 L 430 347.046875 Z M 430 215.367188 "/>
</clipPath>
<clipPath id="clip2">
  <path d="M 321.992188 215.367188 L 661.785156 215.367188 L 661.785156 347.046875 L 321.992188 347.046875 Z M 321.992188 215.367188 L 517.054688 303.484375 C 517.054688 314.347656 508.25 323.148438 497.390625 323.148438 C 486.527344 323.148438 477.722656 314.347656 477.722656 303.484375 C 477.722656 292.625 486.527344 283.820312 497.390625 283.820312 C 508.25 283.820312 517.054688 292.625 517.054688 303.484375 Z M 321.992188 215.367188 "/>
</clipPath>
<clipPath id="clip3">
  <path d="M 321.992188 215.367188 L 661.785156 215.367188 L 661.785156 347.046875 L 321.992188 347.046875 Z M 321.992188 215.367188 L 506.050781 258.929688 C 506.050781 269.789062 497.25 278.59375 486.386719 278.59375 C 475.527344 278.59375 466.722656 269.789062 466.722656 258.929688 C 466.722656 248.070312 475.527344 239.265625 486.386719 239.265625 C 497.25 239.265625 506.050781 248.070312 506.050781 258.929688 Z M 321.992188 215.367188 "/>
</clipPath>
<clipPath id="clip4">
  <path d="M 441 258.992188 L 570 258.992188 L 570 412.015625 L 441 412.015625 Z M 441 258.992188 "/>
</clipPath>
<clipPath id="clip5">
  <path d="M 333.230469 258.992188 L 677.761719 258.992188 L 677.761719 412.015625 L 333.230469 412.015625 Z M 333.230469 258.992188 L 517.054688 303.484375 C 517.054688 314.347656 508.25 323.148438 497.390625 323.148438 C 486.527344 323.148438 477.722656 314.347656 477.722656 303.484375 C 477.722656 292.625 486.527344 283.820312 497.390625 283.820312 C 508.25 283.820312 517.054688 292.625 517.054688 303.484375 Z M 333.230469 258.992188 "/>
</clipPath>
<clipPath id="clip6">
  <path d="M 333.230469 258.992188 L 677.761719 258.992188 L 677.761719 412.015625 L 333.230469 412.015625 Z M 333.230469 258.992188 L 533.265625 367.523438 C 533.265625 378.382812 524.460938 387.1875 513.601562 387.1875 C 502.738281 387.1875 493.9375 378.382812 493.9375 367.523438 C 493.9375 356.660156 502.738281 347.859375 513.601562 347.859375 C 524.460938 347.859375 533.265625 356.660156 533.265625 367.523438 Z M 333.230469 258.992188 "/>
</clipPath>
<clipPath id="clip7">
  <path d="M 411.003906 239 L 523.121094 239 L 523.121094 360 L 411.003906 360 Z M 411.003906 239 "/>
</clipPath>
<clipPath id="clip8">
  <path d="M 411.003906 127.640625 L 523.121094 127.640625 L 523.121094 471.257812 L 411.003906 471.257812 Z M 411.003906 127.640625 L 517.054688 303.484375 C 517.054688 314.347656 508.25 323.148438 497.390625 323.148438 C 486.527344 323.148438 477.722656 314.347656 477.722656 303.484375 C 477.722656 292.625 486.527344 283.820312 497.390625 283.820312 C 508.25 283.820312 517.054688 292.625 517.054688 303.484375 Z M 411.003906 127.640625 "/>
</clipPath>
<clipPath id="clip9">
  <path d="M 411.003906 127.640625 L 523.121094 127.640625 L 523.121094 471.257812 L 411.003906 471.257812 Z M 411.003906 127.640625 L 456.398438 295.414062 C 456.398438 306.273438 447.59375 315.078125 436.734375 315.078125 C 425.871094 315.078125 417.066406 306.273438 417.066406 295.414062 C 417.066406 284.554688 425.871094 275.75 436.734375 275.75 C 447.59375 275.75 456.398438 284.554688 456.398438 295.414062 Z M 411.003906 127.640625 "/>
</clipPath>
<clipPath id="clip10">
  <path d="M 381 203 L 543 203 L 543 352 L 381 352 Z M 381 203 "/>
</clipPath>
<clipPath id="clip11">
  <path d="M 334.933594 121.804688 L 588.1875 121.804688 L 588.1875 432.539062 L 334.933594 432.539062 Z M 334.933594 121.804688 L 506.050781 258.929688 C 506.050781 269.789062 497.25 278.59375 486.386719 278.59375 C 475.527344 278.59375 466.722656 269.789062 466.722656 258.929688 C 466.722656 248.070312 475.527344 239.265625 486.386719 239.265625 C 497.25 239.265625 506.050781 248.070312 506.050781 258.929688 Z M 334.933594 121.804688 "/>
</clipPath>
<clipPath id="clip12">
  <path d="M 334.933594 121.804688 L 588.1875 121.804688 L 588.1875 432.539062 L 334.933594 432.539062 Z M 334.933594 121.804688 L 456.398438 295.414062 C 456.398438 306.273438 447.59375 315.078125 436.734375 315.078125 C 425.871094 315.078125 417.066406 306.273438 417.066406 295.414062 C 417.066406 284.554688 425.871094 275.75 436.734375 275.75 C 447.59375 275.75 456.398438 284.554688 456.398438 295.414062 Z M 334.933594 121.804688 "/>
</clipPath>
<clipPath id="clip13">
  <path d="M 457.683594 311 L 527.746094 311 L 527.746094 426 L 457.683594 426 Z M 457.683594 311 "/>
</clipPath>
<clipPath id="clip14">
  <path d="M 457.683594 198.625 L 527.746094 198.625 L 527.746094 539.007812 L 457.683594 539.007812 Z M 457.683594 198.625 L 533.265625 367.523438 C 533.265625 378.382812 524.460938 387.1875 513.601562 387.1875 C 502.738281 387.1875 493.9375 378.382812 493.9375 367.523438 C 493.9375 356.660156 502.738281 347.859375 513.601562 347.859375 C 524.460938 347.859375 533.265625 356.660156 533.265625 367.523438 Z M 457.683594 198.625 "/>
</clipPath>
<clipPath id="clip15">
  <path d="M 457.683594 198.625 L 527.746094 198.625 L 527.746094 539.007812 L 457.683594 539.007812 Z M 457.683594 198.625 L 491.492188 370.109375 C 491.492188 380.96875 482.6875 389.773438 471.828125 389.773438 C 460.964844 389.773438 452.164062 380.96875 452.164062 370.109375 C 452.164062 359.25 460.964844 350.445312 471.828125 350.445312 C 482.6875 350.445312 491.492188 359.25 491.492188 370.109375 Z M 457.683594 198.625 "/>
</clipPath>
<clipPath id="clip16">
  <path d="M 136.8125 176 L 354.320312 176 L 354.320312 319 L 136.8125 319 Z M 136.8125 176 "/>
</clipPath>
<clipPath id="clip17">
  <path d="M 136.8125 66.660156 L 354.320312 66.660156 L 354.320312 427.867188 L 136.8125 427.867188 Z M 136.8125 66.660156 L 333.328125 262.78125 C 333.328125 273.640625 324.523438 282.445312 313.664062 282.445312 C 302.804688 282.445312 294 273.640625 294 262.78125 C 294 251.917969 302.804688 243.117188 313.664062 243.117188 C 324.523438 243.117188 333.328125 251.917969 333.328125 262.78125 Z M 136.8125 66.660156 "/>
</clipPath>
<clipPath id="clip18">
  <path d="M 136.8125 66.660156 L 354.320312 66.660156 L 354.320312 427.867188 L 136.8125 427.867188 Z M 136.8125 66.660156 L 197.132812 231.746094 C 197.132812 242.605469 188.328125 251.410156 177.46875 251.410156 C 166.609375 251.410156 157.804688 242.605469 157.804688 231.746094 C 157.804688 220.882812 166.609375 212.082031 177.46875 212.082031 C 188.328125 212.082031 197.132812 220.882812 197.132812 231.746094 Z M 136.8125 66.660156 "/>
</clipPath>
<clipPath id="clip19">
  <path d="M 267.367188 207 L 483.03125 207 L 483.03125 352 L 267.367188 352 Z M 267.367188 207 "/>
</clipPath>
<clipPath id="clip20">
  <path d="M 267.367188 99.085938 L 483.03125 99.085938 L 483.03125 459.109375 L 267.367188 459.109375 Z M 267.367188 99.085938 L 333.328125 262.78125 C 333.328125 273.640625 324.523438 282.445312 313.664062 282.445312 C 302.804688 282.445312 294 273.640625 294 262.78125 C 294 251.917969 302.804688 243.117188 313.664062 243.117188 C 324.523438 243.117188 333.328125 251.917969 333.328125 262.78125 Z M 267.367188 99.085938 "/>
</clipPath>
<clipPath id="clip21">
  <path d="M 267.367188 99.085938 L 483.03125 99.085938 L 483.03125 459.109375 L 267.367188 459.109375 Z M 267.367188 99.085938 L 456.398438 295.414062 C 456.398438 306.273438 447.59375 315.078125 436.734375 315.078125 C 425.871094 315.078125 417.066406 306.273438 417.066406 295.414062 C 417.066406 284.554688 425.871094 275.75 436.734375 275.75 C 447.59375 275.75 456.398438 284.554688 456.398438 295.414062 Z M 267.367188 99.085938 "/>
</clipPath>
<clipPath id="clip22">
  <path d="M 68 176 L 234 176 L 234 373 L 68 373 Z M 68 176 "/>
</clipPath>
<clipPath id="clip23">
  <path d="M -20.007812 139.511719 L 321.121094 139.511719 L 321.121094 409.148438 L -20.007812 409.148438 Z M -20.007812 139.511719 L 197.132812 231.746094 C 197.132812 242.605469 188.328125 251.410156 177.46875 251.410156 C 166.609375 251.410156 157.804688 242.605469 157.804688 231.746094 C 157.804688 220.882812 166.609375 212.082031 177.46875 212.082031 C 188.328125 212.082031 197.132812 220.882812 197.132812 231.746094 Z M -20.007812 139.511719 "/>
</clipPath>
<clipPath id="clip24">
  <path d="M -20.007812 139.511719 L 321.121094 139.511719 L 321.121094 409.148438 L -20.007812 409.148438 Z M -20.007812 139.511719 L 143.308594 316.914062 C 143.308594 327.773438 134.503906 336.578125 123.644531 336.578125 C 112.785156 336.578125 103.980469 327.773438 103.980469 316.914062 C 103.980469 306.054688 112.785156 297.25 123.644531 297.25 C 134.503906 297.25 143.308594 306.054688 143.308594 316.914062 Z M -20.007812 139.511719 "/>
</clipPath>
<clipPath id="clip25">
  <path d="M 121 97.464844 L 258 97.464844 L 258 280.113281 L 121 280.113281 Z M 121 97.464844 "/>
</clipPath>
<clipPath id="clip26">
  <path d="M 14.339844 97.464844 L 364.578125 97.464844 L 364.578125 280.113281 L 14.339844 280.113281 Z M 14.339844 97.464844 L 197.132812 231.746094 C 197.132812 242.605469 188.328125 251.410156 177.46875 251.410156 C 166.609375 251.410156 157.804688 242.605469 157.804688 231.746094 C 157.804688 220.882812 166.609375 212.082031 177.46875 212.082031 C 188.328125 212.082031 197.132812 220.882812 197.132812 231.746094 Z M 14.339844 97.464844 "/>
</clipPath>
<clipPath id="clip27">
  <path d="M 14.339844 97.464844 L 364.578125 97.464844 L 364.578125 280.113281 L 14.339844 280.113281 Z M 14.339844 97.464844 L 221.113281 145.832031 C 221.113281 156.695312 212.3125 165.496094 201.449219 165.496094 C 190.589844 165.496094 181.785156 156.695312 181.785156 145.832031 C 181.785156 134.972656 190.589844 126.167969 201.449219 126.167969 C 212.3125 126.167969 221.113281 134.972656 221.113281 145.832031 Z M 14.339844 97.464844 "/>
</clipPath>
<clipPath id="clip28">
  <path d="M 42.007812 150 L 230.308594 150 L 230.308594 288 L 42.007812 288 Z M 42.007812 150 "/>
</clipPath>
<clipPath id="clip29">
  <path d="M 42.007812 44.339844 L 230.308594 44.339844 L 230.308594 393.558594 L 42.007812 393.558594 Z M 42.007812 44.339844 L 197.132812 231.746094 C 197.132812 242.605469 188.328125 251.410156 177.46875 251.410156 C 166.609375 251.410156 157.804688 242.605469 157.804688 231.746094 C 157.804688 220.882812 166.609375 212.082031 177.46875 212.082031 C 188.328125 212.082031 197.132812 220.882812 197.132812 231.746094 Z M 42.007812 44.339844 "/>
</clipPath>
<clipPath id="clip30">
  <path d="M 42.007812 44.339844 L 230.308594 44.339844 L 230.308594 393.558594 L 42.007812 393.558594 Z M 42.007812 44.339844 L 114.511719 206.152344 C 114.511719 217.011719 105.707031 225.816406 94.847656 225.816406 C 83.988281 225.816406 75.183594 217.011719 75.183594 206.152344 C 75.183594 195.289062 83.988281 186.488281 94.847656 186.488281 C 105.707031 186.488281 114.511719 195.289062 114.511719 206.152344 Z M 42.007812 44.339844 "/>
</clipPath>
<clipPath id="clip31">
  <path d="M 381 239 L 528 239 L 528 426 L 381 426 Z M 381 239 "/>
</clipPath>
<clipPath id="clip32">
  <path d="M 283.207031 221.199219 L 625.355469 221.199219 L 625.355469 444.324219 L 283.207031 444.324219 Z M 283.207031 221.199219 L 491.492188 370.109375 C 491.492188 380.96875 482.6875 389.773438 471.828125 389.773438 C 460.964844 389.773438 452.164062 380.96875 452.164062 370.109375 C 452.164062 359.25 460.964844 350.445312 471.828125 350.445312 C 482.6875 350.445312 491.492188 359.25 491.492188 370.109375 Z M 283.207031 221.199219 "/>
</clipPath>
<clipPath id="clip33">
  <path d="M 283.207031 221.199219 L 625.355469 221.199219 L 625.355469 444.324219 L 283.207031 444.324219 Z M 283.207031 221.199219 L 456.398438 295.414062 C 456.398438 306.273438 447.59375 315.078125 436.734375 315.078125 C 425.871094 315.078125 417.066406 306.273438 417.066406 295.414062 C 417.066406 284.554688 425.871094 275.75 436.734375 275.75 C 447.59375 275.75 456.398438 284.554688 456.398438 295.414062 Z M 283.207031 221.199219 "/>
</clipPath>
<clipPath id="clip34">
  <path d="M 66 310.585938 L 180 310.585938 L 180 419.496094 L 66 419.496094 Z M 66 310.585938 "/>
</clipPath>
<clipPath id="clip35">
  <path d="M -46.949219 310.585938 L 292.84375 310.585938 L 292.84375 419.496094 L -46.949219 419.496094 Z M -46.949219 310.585938 L 141.914062 413.167969 C 141.914062 424.027344 133.109375 432.832031 122.25 432.832031 C 111.386719 432.832031 102.582031 424.027344 102.582031 413.167969 C 102.582031 402.304688 111.386719 393.503906 122.25 393.503906 C 133.109375 393.503906 141.914062 402.304688 141.914062 413.167969 Z M -46.949219 310.585938 "/>
</clipPath>
<clipPath id="clip36">
  <path d="M -46.949219 310.585938 L 292.84375 310.585938 L 292.84375 419.496094 L -46.949219 419.496094 Z M -46.949219 310.585938 L 143.308594 316.914062 C 143.308594 327.773438 134.503906 336.578125 123.644531 336.578125 C 112.785156 336.578125 103.980469 327.773438 103.980469 316.914062 C 103.980469 306.054688 112.785156 297.25 123.644531 297.25 C 134.503906 297.25 143.308594 306.054688 143.308594 316.914062 Z M -46.949219 310.585938 "/>
</clipPath>
<clipPath id="clip37">
  <path d="M 30 357 L 178 357 L 178 512 L 30 512 Z M 30 357 "/>
</clipPath>
<clipPath id="clip38">
  <path d="M -43.796875 302.578125 L 252.445312 302.578125 L 252.445312 566.199219 L -43.796875 566.199219 Z M -43.796875 302.578125 L 141.914062 413.167969 C 141.914062 424.027344 133.109375 432.832031 122.25 432.832031 C 111.386719 432.832031 102.582031 424.027344 102.582031 413.167969 C 102.582031 402.304688 111.386719 393.503906 122.25 393.503906 C 133.109375 393.503906 141.914062 402.304688 141.914062 413.167969 Z M -43.796875 302.578125 "/>
</clipPath>
<clipPath id="clip39">
  <path d="M -43.796875 302.578125 L 252.445312 302.578125 L 252.445312 566.199219 L -43.796875 566.199219 Z M -43.796875 302.578125 L 106.0625 455.609375 C 106.0625 466.46875 97.261719 475.273438 86.398438 475.273438 C 75.539062 475.273438 66.734375 466.46875 66.734375 455.609375 C 66.734375 444.75 75.539062 435.945312 86.398438 435.945312 C 97.261719 435.945312 106.0625 444.75 106.0625 455.609375 Z M -43.796875 302.578125 "/>
</clipPath>
<clipPath id="clip40">
  <path d="M 66 357 L 239 357 L 239 550 L 66 550 Z M 66 357 "/>
</clipPath>
<clipPath id="clip41">
  <path d="M -13.558594 309.597656 L 318.679688 309.597656 L 318.679688 596.972656 L -13.558594 596.972656 Z M -13.558594 309.597656 L 141.914062 413.167969 C 141.914062 424.027344 133.109375 432.832031 122.25 432.832031 C 111.386719 432.832031 102.582031 424.027344 102.582031 413.167969 C 102.582031 402.304688 111.386719 393.503906 122.25 393.503906 C 133.109375 393.503906 141.914062 402.304688 141.914062 413.167969 Z M -13.558594 309.597656 "/>
</clipPath>
<clipPath id="clip42">
  <path d="M -13.558594 309.597656 L 318.679688 309.597656 L 318.679688 596.972656 L -13.558594 596.972656 Z M -13.558594 309.597656 L 202.535156 493.402344 C 202.535156 504.261719 193.730469 513.066406 182.871094 513.066406 C 172.011719 513.066406 163.207031 504.261719 163.207031 493.402344 C 163.207031 482.542969 172.011719 473.738281 182.871094 473.738281 C 193.730469 473.738281 202.535156 482.542969 202.535156 493.402344 Z M -13.558594 309.597656 "/>
</clipPath>
<clipPath id="clip43">
  <path d="M 30 399 L 179 399 L 179 554 L 30 554 Z M 30 399 "/>
</clipPath>
<clipPath id="clip44">
  <path d="M -42.085938 343.023438 L 251.859375 343.023438 L 251.859375 610.582031 L -42.085938 610.582031 Z M -42.085938 343.023438 L 106.0625 455.609375 C 106.0625 466.46875 97.261719 475.273438 86.398438 475.273438 C 75.539062 475.273438 66.734375 466.46875 66.734375 455.609375 C 66.734375 444.75 75.539062 435.945312 86.398438 435.945312 C 97.261719 435.945312 106.0625 444.75 106.0625 455.609375 Z M -42.085938 343.023438 "/>
</clipPath>
<clipPath id="clip45">
  <path d="M -42.085938 343.023438 L 251.859375 343.023438 L 251.859375 610.582031 L -42.085938 610.582031 Z M -42.085938 343.023438 L 143.039062 497.996094 C 143.039062 508.855469 134.234375 517.660156 123.375 517.660156 C 112.515625 517.660156 103.710938 508.855469 103.710938 497.996094 C 103.710938 487.136719 112.515625 478.332031 123.375 478.332031 C 134.234375 478.332031 143.039062 487.136719 143.039062 497.996094 Z M -42.085938 343.023438 "/>
</clipPath>
<clipPath id="clip46">
  <path d="M 106.71875 437 L 199.527344 437 L 199.527344 554 L 106.71875 554 Z M 106.71875 437 "/>
</clipPath>
<clipPath id="clip47">
  <path d="M 106.71875 324.675781 L 199.527344 324.675781 L 199.527344 666.722656 L 106.71875 666.722656 Z M 106.71875 324.675781 L 202.535156 493.402344 C 202.535156 504.261719 193.730469 513.066406 182.871094 513.066406 C 172.011719 513.066406 163.207031 504.261719 163.207031 493.402344 C 163.207031 482.542969 172.011719 473.738281 182.871094 473.738281 C 193.730469 473.738281 202.535156 482.542969 202.535156 493.402344 Z M 106.71875 324.675781 "/>
</clipPath>
<clipPath id="clip48">
  <path d="M 106.71875 324.675781 L 199.527344 324.675781 L 199.527344 666.722656 L 106.71875 666.722656 Z M 106.71875 324.675781 L 143.039062 497.996094 C 143.039062 508.855469 134.234375 517.660156 123.375 517.660156 C 112.515625 517.660156 103.710938 508.855469 103.710938 497.996094 C 103.710938 487.136719 112.515625 478.332031 123.375 478.332031 C 134.234375 478.332031 143.039062 487.136719 143.039062 497.996094 Z M 106.71875 324.675781 "/>
</clipPath>
<clipPath id="clip49">
  <path d="M 127 437 L 326 437 L 326 595 L 127 595 Z M 127 437 "/>
</clipPath>
<clipPath id="clip50">
  <path d="M 102.699219 342.820312 L 349.808594 342.820312 L 349.808594 689.089844 L 102.699219 689.089844 Z M 102.699219 342.820312 L 202.535156 493.402344 C 202.535156 504.261719 193.730469 513.066406 182.871094 513.066406 C 172.011719 513.066406 163.207031 504.261719 163.207031 493.402344 C 163.207031 482.542969 172.011719 473.738281 182.871094 473.738281 C 193.730469 473.738281 202.535156 482.542969 202.535156 493.402344 Z M 102.699219 342.820312 "/>
</clipPath>
<clipPath id="clip51">
  <path d="M 102.699219 342.820312 L 349.808594 342.820312 L 349.808594 689.089844 L 102.699219 689.089844 Z M 102.699219 342.820312 L 289.300781 538.507812 C 289.300781 549.367188 280.496094 558.171875 269.636719 558.171875 C 258.777344 558.171875 249.972656 549.367188 249.972656 538.507812 C 249.972656 527.648438 258.777344 518.84375 269.636719 518.84375 C 280.496094 518.84375 289.300781 527.648438 289.300781 538.507812 Z M 102.699219 342.820312 "/>
</clipPath>
<clipPath id="clip52">
  <path d="M 214 482 L 382 482 L 382 600 L 214 600 Z M 214 482 "/>
</clipPath>
<clipPath id="clip53">
  <path d="M 209.894531 379 L 386.078125 379 L 386.078125 718.355469 L 209.894531 718.355469 Z M 209.894531 379 L 346 558.847656 C 346 569.707031 337.195312 578.511719 326.335938 578.511719 C 315.472656 578.511719 306.671875 569.707031 306.671875 558.847656 C 306.671875 547.988281 315.472656 539.183594 326.335938 539.183594 C 337.195312 539.183594 346 547.988281 346 558.847656 Z M 209.894531 379 "/>
</clipPath>
<clipPath id="clip54">
  <path d="M 209.894531 379 L 386.078125 379 L 386.078125 718.355469 L 209.894531 718.355469 Z M 209.894531 379 L 289.300781 538.507812 C 289.300781 549.367188 280.496094 558.171875 269.636719 558.171875 C 258.777344 558.171875 249.972656 549.367188 249.972656 538.507812 C 249.972656 527.648438 258.777344 518.84375 269.636719 518.84375 C 280.496094 518.84375 289.300781 527.648438 289.300781 538.507812 Z M 209.894531 379 "/>
</clipPath>
<clipPath id="clip55">
  <path d="M 145 24 L 312 24 L 312 202 L 145 202 Z M 145 24 "/>
</clipPath>
<clipPath id="clip56">
  <path d="M 70.839844 -29.605469 L 386.816406 -29.605469 L 386.816406 255.933594 L 70.839844 255.933594 Z M 70.839844 -29.605469 L 221.113281 145.832031 C 221.113281 156.695312 212.3125 165.496094 201.449219 165.496094 C 190.589844 165.496094 181.785156 156.695312 181.785156 145.832031 C 181.785156 134.972656 190.589844 126.167969 201.449219 126.167969 C 212.3125 126.167969 221.113281 134.972656 221.113281 145.832031 Z M 70.839844 -29.605469 "/>
</clipPath>
<clipPath id="clip57">
  <path d="M 70.839844 -29.605469 L 386.816406 -29.605469 L 386.816406 255.933594 L 70.839844 255.933594 Z M 70.839844 -29.605469 L 275.871094 80.496094 C 275.871094 91.355469 267.066406 100.160156 256.207031 100.160156 C 245.347656 100.160156 236.542969 91.355469 236.542969 80.496094 C 236.542969 69.636719 245.347656 60.832031 256.207031 60.832031 C 267.066406 60.832031 275.871094 69.636719 275.871094 80.496094 Z M 70.839844 -29.605469 "/>
</clipPath>
<clipPath id="clip58">
  <path d="M 212.402344 8 L 366.40625 8 L 366.40625 137 L 212.402344 137 Z M 212.402344 8 "/>
</clipPath>
<clipPath id="clip59">
  <path d="M 212.402344 -100.34375 L 366.40625 -100.34375 L 366.40625 244.832031 L 212.402344 244.832031 Z M 212.402344 -100.34375 L 275.871094 80.496094 C 275.871094 91.355469 267.066406 100.160156 256.207031 100.160156 C 245.347656 100.160156 236.542969 91.355469 236.542969 80.496094 C 236.542969 69.636719 245.347656 60.832031 256.207031 60.832031 C 267.066406 60.832031 275.871094 69.636719 275.871094 80.496094 Z M 212.402344 -100.34375 "/>
</clipPath>
<clipPath id="clip60">
  <path d="M 212.402344 -100.34375 L 366.40625 -100.34375 L 366.40625 244.832031 L 212.402344 244.832031 Z M 212.402344 -100.34375 L 342.265625 63.992188 C 342.265625 74.851562 333.460938 83.65625 322.601562 83.65625 C 311.738281 83.65625 302.9375 74.851562 302.9375 63.992188 C 302.9375 53.132812 311.738281 44.328125 322.601562 44.328125 C 333.460938 44.328125 342.265625 53.132812 342.265625 63.992188 Z M 212.402344 -100.34375 "/>
</clipPath>
<clipPath id="clip61">
  <path d="M 175 0 L 312 0 L 312 137 L 175 137 Z M 175 0 "/>
</clipPath>
<clipPath id="clip62">
  <path d="M 87.652344 -50.929688 L 399.957031 -50.929688 L 399.957031 172.578125 L 87.652344 172.578125 Z M 87.652344 -50.929688 L 275.871094 80.496094 C 275.871094 91.355469 267.066406 100.160156 256.207031 100.160156 C 245.347656 100.160156 236.542969 91.355469 236.542969 80.496094 C 236.542969 69.636719 245.347656 60.832031 256.207031 60.832031 C 267.066406 60.832031 275.871094 69.636719 275.871094 80.496094 Z M 87.652344 -50.929688 "/>
</clipPath>
<clipPath id="clip63">
  <path d="M 87.652344 -50.929688 L 399.957031 -50.929688 L 399.957031 172.578125 L 87.652344 172.578125 Z M 87.652344 -50.929688 L 251.066406 41.152344 C 251.066406 52.011719 242.261719 60.816406 231.402344 60.816406 C 220.542969 60.816406 211.738281 52.011719 211.738281 41.152344 C 211.738281 30.292969 220.542969 21.488281 231.402344 21.488281 C 242.261719 21.488281 251.066406 30.292969 251.066406 41.152344 Z M 87.652344 -50.929688 "/>
</clipPath>
</defs>
<g id="surface246">
<g clip-path="url(#clip1)" clip-rule="nonzero">
<g clip-path="url(#clip2)" clip-rule="evenodd">
<g clip-path="url(#clip3)" clip-rule="evenodd">
<path style="fill:none;stroke-width:0.0237947;stroke-linecap:butt;stroke-linejoin:miter;stroke:rgb(17.96875%,20.3125%,21.09375%);stroke-opacity:0.8;stroke-miterlimit:10;" d="M 3.598833 2.549477 L 3.532256 2.27991 " transform="matrix(165.282015,0,0,165.282015,-97.431668,-117.898385)"/>
</g>
</g>
</g>
<g clip-path="url(#clip4)" clip-rule="nonzero">
<g clip-path="url(#clip5)" clip-rule="evenodd">
<g clip-path="url(#clip6)" clip-rule="evenodd">
<path style="fill:none;stroke-width:0.0237947;stroke-linecap:butt;stroke-linejoin:miter;stroke:rgb(17.96875%,20.3125%,21.09375%);stroke-opacity:0.8;stroke-miterlimit:10;" d="M 3.598833 2.549477 L 3.696913 2.936931 " transform="matrix(165.282015,0,0,165.282015,-97.431668,-117.898385)"/>
</g>
</g>
</g>
<g clip-path="url(#clip7)" clip-rule="nonzero">
<g clip-path="url(#clip8)" clip-rule="evenodd">
<g clip-path="url(#clip9)" clip-rule="evenodd">
<path style="fill:none;stroke-width:0.0237947;stroke-linecap:butt;stroke-linejoin:miter;stroke:rgb(17.96875%,20.3125%,21.09375%);stroke-opacity:0.8;stroke-miterlimit:10;" d="M 3.598833 2.549477 L 3.231846 2.50065 " transform="matrix(165.282015,0,0,165.282015,-97.431668,-117.898385)"/>
</g>
</g>
</g>
<g clip-path="url(#clip10)" clip-rule="nonzero">
<g clip-path="url(#clip11)" clip-rule="evenodd">
<g clip-path="url(#clip12)" clip-rule="evenodd">
<path style="fill:none;stroke-width:0.0237947;stroke-linecap:butt;stroke-linejoin:miter;stroke:rgb(17.96875%,20.3125%,21.09375%);stroke-opacity:0.8;stroke-miterlimit:10;" d="M 3.532256 2.27991 L 3.231846 2.50065 " transform="matrix(165.282015,0,0,165.282015,-97.431668,-117.898385)"/>
</g>
</g>
</g>
<g clip-path="url(#clip13)" clip-rule="nonzero">
<g clip-path="url(#clip14)" clip-rule="evenodd">
<g clip-path="url(#clip15)" clip-rule="evenodd">
<path style="fill:none;stroke-width:0.0237947;stroke-linecap:butt;stroke-linejoin:miter;stroke:rgb(17.96875%,20.3125%,21.09375%);stroke-opacity:0.8;stroke-miterlimit:10;" d="M 3.696913 2.936931 L 3.444173 2.952576 " transform="matrix(165.282015,0,0,165.282015,-97.431668,-117.898385)"/>
</g>
</g>
</g>
<g clip-path="url(#clip16)" clip-rule="nonzero">
<g clip-path="url(#clip17)" clip-rule="evenodd">
<g clip-path="url(#clip18)" clip-rule="evenodd">
<path style="fill:none;stroke-width:0.0237947;stroke-linecap:butt;stroke-linejoin:miter;stroke:rgb(17.96875%,20.3125%,21.09375%);stroke-opacity:0.8;stroke-miterlimit:10;" d="M 2.487238 2.303213 L 1.66322 2.115442 " transform="matrix(165.282015,0,0,165.282015,-97.431668,-117.898385)"/>
</g>
</g>
</g>
<g clip-path="url(#clip19)" clip-rule="nonzero">
<g clip-path="url(#clip20)" clip-rule="evenodd">
<g clip-path="url(#clip21)" clip-rule="evenodd">
<path style="fill:none;stroke-width:0.0237947;stroke-linecap:butt;stroke-linejoin:miter;stroke:rgb(17.96875%,20.3125%,21.09375%);stroke-opacity:0.8;stroke-miterlimit:10;" d="M 2.487238 2.303213 L 3.231846 2.50065 " transform="matrix(165.282015,0,0,165.282015,-97.431668,-117.898385)"/>
</g>
</g>
</g>
<g clip-path="url(#clip22)" clip-rule="nonzero">
<g clip-path="url(#clip23)" clip-rule="evenodd">
<g clip-path="url(#clip24)" clip-rule="evenodd">
<path style="fill:none;stroke-width:0.0237947;stroke-linecap:butt;stroke-linejoin:miter;stroke:rgb(17.96875%,20.3125%,21.09375%);stroke-opacity:0.8;stroke-miterlimit:10;" d="M 1.66322 2.115442 L 1.33757 2.630731 " transform="matrix(165.282015,0,0,165.282015,-97.431668,-117.898385)"/>
</g>
</g>
</g>
<g clip-path="url(#clip25)" clip-rule="nonzero">
<g clip-path="url(#clip26)" clip-rule="evenodd">
<g clip-path="url(#clip27)" clip-rule="evenodd">
<path style="fill:none;stroke-width:0.0237947;stroke-linecap:butt;stroke-linejoin:miter;stroke:rgb(17.96875%,20.3125%,21.09375%);stroke-opacity:0.8;stroke-miterlimit:10;" d="M 1.66322 2.115442 L 1.808309 1.595639 " transform="matrix(165.282015,0,0,165.282015,-97.431668,-117.898385)"/>
</g>
</g>
</g>
<g clip-path="url(#clip28)" clip-rule="nonzero">
<g clip-path="url(#clip29)" clip-rule="evenodd">
<g clip-path="url(#clip30)" clip-rule="evenodd">
<path style="fill:none;stroke-width:0.0237947;stroke-linecap:butt;stroke-linejoin:miter;stroke:rgb(17.96875%,20.3125%,21.09375%);stroke-opacity:0.8;stroke-miterlimit:10;" d="M 1.66322 2.115442 L 1.163341 1.960593 " transform="matrix(165.282015,0,0,165.282015,-97.431668,-117.898385)"/>
</g>
</g>
</g>
<g clip-path="url(#clip31)" clip-rule="nonzero">
<g clip-path="url(#clip32)" clip-rule="evenodd">
<g clip-path="url(#clip33)" clip-rule="evenodd">
<path style="fill:none;stroke-width:0.0237947;stroke-linecap:butt;stroke-linejoin:miter;stroke:rgb(17.96875%,20.3125%,21.09375%);stroke-opacity:0.8;stroke-miterlimit:10;" d="M 3.444173 2.952576 L 3.231846 2.50065 " transform="matrix(165.282015,0,0,165.282015,-97.431668,-117.898385)"/>
</g>
</g>
</g>
<g clip-path="url(#clip34)" clip-rule="nonzero">
<g clip-path="url(#clip35)" clip-rule="evenodd">
<g clip-path="url(#clip36)" clip-rule="evenodd">
<path style="fill:none;stroke-width:0.0237947;stroke-linecap:butt;stroke-linejoin:miter;stroke:rgb(17.96875%,20.3125%,21.09375%);stroke-opacity:0.8;stroke-miterlimit:10;" d="M 1.329132 3.213092 L 1.33757 2.630731 " transform="matrix(165.282015,0,0,165.282015,-97.431668,-117.898385)"/>
</g>
</g>
</g>
<g clip-path="url(#clip37)" clip-rule="nonzero">
<g clip-path="url(#clip38)" clip-rule="evenodd">
<g clip-path="url(#clip39)" clip-rule="evenodd">
<path style="fill:none;stroke-width:0.0237947;stroke-linecap:butt;stroke-linejoin:miter;stroke:rgb(17.96875%,20.3125%,21.09375%);stroke-opacity:0.8;stroke-miterlimit:10;" d="M 1.329132 3.213092 L 1.112221 3.469874 " transform="matrix(165.282015,0,0,165.282015,-97.431668,-117.898385)"/>
</g>
</g>
</g>
<g clip-path="url(#clip40)" clip-rule="nonzero">
<g clip-path="url(#clip41)" clip-rule="evenodd">
<g clip-path="url(#clip42)" clip-rule="evenodd">
<path style="fill:none;stroke-width:0.0237947;stroke-linecap:butt;stroke-linejoin:miter;stroke:rgb(17.96875%,20.3125%,21.09375%);stroke-opacity:0.8;stroke-miterlimit:10;" d="M 1.329132 3.213092 L 1.695906 3.698531 " transform="matrix(165.282015,0,0,165.282015,-97.431668,-117.898385)"/>
</g>
</g>
</g>
<g clip-path="url(#clip43)" clip-rule="nonzero">
<g clip-path="url(#clip44)" clip-rule="evenodd">
<g clip-path="url(#clip45)" clip-rule="evenodd">
<path style="fill:none;stroke-width:0.0237947;stroke-linecap:butt;stroke-linejoin:miter;stroke:rgb(17.96875%,20.3125%,21.09375%);stroke-opacity:0.8;stroke-miterlimit:10;" d="M 1.112221 3.469874 L 1.335939 3.726325 " transform="matrix(165.282015,0,0,165.282015,-97.431668,-117.898385)"/>
</g>
</g>
</g>
<g clip-path="url(#clip46)" clip-rule="nonzero">
<g clip-path="url(#clip47)" clip-rule="evenodd">
<g clip-path="url(#clip48)" clip-rule="evenodd">
<path style="fill:none;stroke-width:0.0237947;stroke-linecap:butt;stroke-linejoin:miter;stroke:rgb(17.96875%,20.3125%,21.09375%);stroke-opacity:0.8;stroke-miterlimit:10;" d="M 1.695906 3.698531 L 1.335939 3.726325 " transform="matrix(165.282015,0,0,165.282015,-97.431668,-117.898385)"/>
</g>
</g>
</g>
<g clip-path="url(#clip49)" clip-rule="nonzero">
<g clip-path="url(#clip50)" clip-rule="evenodd">
<g clip-path="url(#clip51)" clip-rule="evenodd">
<path style="fill:none;stroke-width:0.0237947;stroke-linecap:butt;stroke-linejoin:miter;stroke:rgb(17.96875%,20.3125%,21.09375%);stroke-opacity:0.8;stroke-miterlimit:10;" d="M 1.695906 3.698531 L 2.220861 3.971431 " transform="matrix(165.282015,0,0,165.282015,-97.431668,-117.898385)"/>
</g>
</g>
</g>
<g clip-path="url(#clip52)" clip-rule="nonzero">
<g clip-path="url(#clip53)" clip-rule="evenodd">
<g clip-path="url(#clip54)" clip-rule="evenodd">
<path style="fill:none;stroke-width:0.0237947;stroke-linecap:butt;stroke-linejoin:miter;stroke:rgb(17.96875%,20.3125%,21.09375%);stroke-opacity:0.8;stroke-miterlimit:10;" d="M 2.563906 4.094493 L 2.220861 3.971431 " transform="matrix(165.282015,0,0,165.282015,-97.431668,-117.898385)"/>
</g>
</g>
</g>
<g clip-path="url(#clip55)" clip-rule="nonzero">
<g clip-path="url(#clip56)" clip-rule="evenodd">
<g clip-path="url(#clip57)" clip-rule="evenodd">
<path style="fill:none;stroke-width:0.0237947;stroke-linecap:butt;stroke-linejoin:miter;stroke:rgb(17.96875%,20.3125%,21.09375%);stroke-opacity:0.8;stroke-miterlimit:10;" d="M 1.808309 1.595639 L 2.139608 1.200339 " transform="matrix(165.282015,0,0,165.282015,-97.431668,-117.898385)"/>
</g>
</g>
</g>
<g clip-path="url(#clip58)" clip-rule="nonzero">
<g clip-path="url(#clip59)" clip-rule="evenodd">
<g clip-path="url(#clip60)" clip-rule="evenodd">
<path style="fill:none;stroke-width:0.0237947;stroke-linecap:butt;stroke-linejoin:miter;stroke:rgb(17.96875%,20.3125%,21.09375%);stroke-opacity:0.8;stroke-miterlimit:10;" d="M 2.139608 1.200339 L 2.541312 1.100486 " transform="matrix(165.282015,0,0,165.282015,-97.431668,-117.898385)"/>
</g>
</g>
</g>
<g clip-path="url(#clip61)" clip-rule="nonzero">
<g clip-path="url(#clip62)" clip-rule="evenodd">
<g clip-path="url(#clip63)" clip-rule="evenodd">
<path style="fill:none;stroke-width:0.0237947;stroke-linecap:butt;stroke-linejoin:miter;stroke:rgb(17.96875%,20.3125%,21.09375%);stroke-opacity:0.8;stroke-miterlimit:10;" d="M 2.139608 1.200339 L 1.989533 0.962299 " transform="matrix(165.282015,0,0,165.282015,-97.431668,-117.898385)"/>
</g>
</g>
</g>
<path style="fill-rule:nonzero;fill:rgb(100%,92.941176%,43.529412%);fill-opacity:1;stroke-width:0.0237947;stroke-linecap:butt;stroke-linejoin:miter;stroke:rgb(60%,60%,60%);stroke-opacity:0.8;stroke-miterlimit:10;" d="M 0.118984 -0.0000108502 C 0.118984 0.0657149 0.0657136 0.118962 0.0000114698 0.118962 C -0.0657143 0.118962 -0.118985 0.0657149 -0.118985 -0.0000108502 C -0.118985 -0.0657129 -0.0657143 -0.118984 0.0000114698 -0.118984 C 0.0657136 -0.118984 0.118984 -0.0657129 0.118984 -0.0000108502 Z M 0.118984 -0.0000108502 " transform="matrix(165.282015,0,0,165.282015,497.388729,303.486168)"/>
<path style="fill-rule:nonzero;fill:rgb(100%,92.941176%,43.529412%);fill-opacity:1;stroke-width:0.0237947;stroke-linecap:butt;stroke-linejoin:miter;stroke:rgb(60%,60%,60%);stroke-opacity:0.8;stroke-miterlimit:10;" d="M 0.118965 -0.00000328048 C 0.118965 0.0656988 0.0657184 0.11897 -0.00000730764 0.11897 C -0.0657094 0.11897 -0.11898 0.0656988 -0.11898 -0.00000328048 C -0.11898 -0.0657054 -0.0657094 -0.118976 -0.00000730764 -0.118976 C 0.0657184 -0.118976 0.118965 -0.0657054 0.118965 -0.00000328048 Z M 0.118965 -0.00000328048 " transform="matrix(165.282015,0,0,165.282015,486.387927,258.93023)"/>
<path style="fill-rule:nonzero;fill:rgb(100%,92.941176%,43.529412%);fill-opacity:1;stroke-width:0.0237947;stroke-linecap:butt;stroke-linejoin:miter;stroke:rgb(60%,60%,60%);stroke-opacity:0.8;stroke-miterlimit:10;" d="M 0.118983 0.00000935694 C 0.118983 0.0657115 0.0657118 0.118982 0.00000973745 0.118982 C -0.065716 0.118982 -0.118963 0.0657115 -0.118963 0.00000935694 C -0.118963 -0.0657164 -0.065716 -0.118963 0.00000973745 -0.118963 C 0.0657118 -0.118963 0.118983 -0.0657164 0.118983 0.00000935694 Z M 0.118983 0.00000935694 " transform="matrix(165.282015,0,0,165.282015,513.599953,367.521891)"/>
<path style="fill-rule:nonzero;fill:rgb(100%,92.941176%,43.529412%);fill-opacity:1;stroke-width:0.0237947;stroke-linecap:butt;stroke-linejoin:miter;stroke:rgb(60%,60%,60%);stroke-opacity:0.8;stroke-miterlimit:10;" d="M 0.118971 0.00000937777 C 0.118971 0.0657115 0.0657 0.118982 -0.00000205085 0.118982 C -0.0657041 0.118982 -0.118975 0.0657115 -0.118975 0.00000937777 C -0.118975 -0.0657164 -0.0657041 -0.118963 -0.00000205085 -0.118963 C 0.0657 -0.118963 0.118971 -0.0657164 0.118971 0.00000937777 Z M 0.118971 0.00000937777 " transform="matrix(165.282015,0,0,165.282015,313.664401,262.7797)"/>
<path style="fill-rule:nonzero;fill:rgb(55.294118%,82.745098%,78.039216%);fill-opacity:1;stroke-width:0.0237947;stroke-linecap:butt;stroke-linejoin:miter;stroke:rgb(60%,60%,60%);stroke-opacity:0.8;stroke-miterlimit:10;" d="M 0.118973 0.0000102399 C 0.118973 0.0657123 0.0657027 0.118983 0.000000566032 0.118983 C -0.0657015 0.118983 -0.118972 0.0657123 -0.118972 0.0000102399 C -0.118972 -0.0657155 -0.0657015 -0.118963 0.000000566032 -0.118963 C 0.0657027 -0.118963 0.118973 -0.0657155 0.118973 0.0000102399 Z M 0.118973 0.0000102399 " transform="matrix(165.282015,0,0,165.282015,177.468656,231.744401)"/>
<path style="fill-rule:nonzero;fill:rgb(100%,92.941176%,43.529412%);fill-opacity:1;stroke-width:0.0237947;stroke-linecap:butt;stroke-linejoin:miter;stroke:rgb(60%,60%,60%);stroke-opacity:0.8;stroke-miterlimit:10;" d="M 0.118981 0.00000290206 C 0.118981 0.065705 0.0657104 0.118976 0.00000833018 0.118976 C -0.0657174 0.118976 -0.118964 0.065705 -0.118964 0.00000290206 C -0.118964 -0.0656992 -0.0657174 -0.11897 0.00000833018 -0.11897 C 0.0657104 -0.11897 0.118981 -0.0656992 0.118981 0.00000290206 Z M 0.118981 0.00000290206 " transform="matrix(165.282015,0,0,165.282015,471.826748,370.108895)"/>
<path style="fill-rule:nonzero;fill:rgb(100%,92.941176%,43.529412%);fill-opacity:1;stroke-width:0.0237947;stroke-linecap:butt;stroke-linejoin:miter;stroke:rgb(60%,60%,60%);stroke-opacity:0.8;stroke-miterlimit:10;" d="M 0.118984 0.00000364683 C 0.118984 0.0657057 0.0657133 0.118976 0.0000111585 0.118976 C -0.0657146 0.118976 -0.118985 0.0657057 -0.118985 0.00000364683 C -0.118985 -0.0656985 -0.0657146 -0.118969 0.0000111585 -0.118969 C 0.0657133 -0.118969 0.118984 -0.0656985 0.118984 0.00000364683 Z M 0.118984 0.00000364683 " transform="matrix(165.282015,0,0,165.282015,436.732531,295.41346)"/>
<path style="fill-rule:nonzero;fill:rgb(55.294118%,82.745098%,78.039216%);fill-opacity:1;stroke-width:0.0237947;stroke-linecap:butt;stroke-linejoin:miter;stroke:rgb(60%,60%,60%);stroke-opacity:0.8;stroke-miterlimit:10;" d="M 0.118984 0.00000754964 C 0.118984 0.0657096 0.0657132 0.11898 0.000011099 0.11898 C -0.0657146 0.11898 -0.118985 0.0657096 -0.118985 0.00000754964 C -0.118985 -0.0657182 -0.0657146 -0.118965 0.000011099 -0.118965 C 0.0657132 -0.118965 0.118984 -0.0657182 0.118984 0.00000754964 Z M 0.118984 0.00000754964 " transform="matrix(165.282015,0,0,165.282015,122.248166,413.166721)"/>
<path style="fill-rule:nonzero;fill:rgb(55.294118%,82.745098%,78.039216%);fill-opacity:1;stroke-width:0.0237947;stroke-linecap:butt;stroke-linejoin:miter;stroke:rgb(60%,60%,60%);stroke-opacity:0.8;stroke-miterlimit:10;" d="M 0.118978 0.00000371446 C 0.118978 0.0657058 0.0657076 0.118977 0.00000553613 0.118977 C -0.0656966 0.118977 -0.118967 0.0657058 -0.118967 0.00000371446 C -0.118967 -0.0656984 -0.0656966 -0.118969 0.00000553613 -0.118969 C 0.0657076 -0.118969 0.118978 -0.0656984 0.118978 0.00000371446 Z M 0.118978 0.00000371446 " transform="matrix(165.282015,0,0,165.282015,123.643616,316.913449)"/>
<path style="fill-rule:nonzero;fill:rgb(55.294118%,82.745098%,78.039216%);fill-opacity:1;stroke-width:0.0237947;stroke-linecap:butt;stroke-linejoin:miter;stroke:rgb(60%,60%,60%);stroke-opacity:0.8;stroke-miterlimit:10;" d="M 0.118963 0.00000353535 C 0.118963 0.0657056 0.065716 0.118976 -0.00000973745 0.118976 C -0.0657118 0.118976 -0.118983 0.0657056 -0.118983 0.00000353535 C -0.118983 -0.0656986 -0.0657118 -0.118969 -0.00000973745 -0.118969 C 0.065716 -0.118969 0.118963 -0.0656986 0.118963 0.00000353535 Z M 0.118963 0.00000353535 " transform="matrix(165.282015,0,0,165.282015,86.400047,455.608791)"/>
<path style="fill-rule:nonzero;fill:rgb(55.294118%,82.745098%,78.039216%);fill-opacity:1;stroke-width:0.0237947;stroke-linecap:butt;stroke-linejoin:miter;stroke:rgb(60%,60%,60%);stroke-opacity:0.8;stroke-miterlimit:10;" d="M 0.118971 0.00000521162 C 0.118971 0.0657073 0.0657007 0.118978 -0.00000143324 0.118978 C -0.0657035 0.118978 -0.118974 0.0657073 -0.118974 0.00000521162 C -0.118974 -0.0656969 -0.0657035 -0.118968 -0.00000143324 -0.118968 C 0.0657007 -0.118968 0.118971 -0.0656969 0.118971 0.00000521162 Z M 0.118971 0.00000521162 " transform="matrix(165.282015,0,0,165.282015,182.871331,493.401482)"/>
<path style="fill-rule:nonzero;fill:rgb(55.294118%,82.745098%,78.039216%);fill-opacity:1;stroke-width:0.0237947;stroke-linecap:butt;stroke-linejoin:miter;stroke:rgb(60%,60%,60%);stroke-opacity:0.8;stroke-miterlimit:10;" d="M 0.118982 0.00000635224 C 0.118982 0.0657084 0.0657112 0.118979 0.0000090998 0.118979 C -0.0657166 0.118979 -0.118964 0.0657084 -0.118964 0.00000635224 C -0.118964 -0.0656957 -0.0657166 -0.118966 0.0000090998 -0.118966 C 0.0657112 -0.118966 0.118982 -0.0656957 0.118982 0.00000635224 Z M 0.118982 0.00000635224 " transform="matrix(165.282015,0,0,165.282015,326.334433,558.846606)"/>
<path style="fill-rule:nonzero;fill:rgb(55.294118%,82.745098%,78.039216%);fill-opacity:1;stroke-width:0.0237947;stroke-linecap:butt;stroke-linejoin:miter;stroke:rgb(60%,60%,60%);stroke-opacity:0.8;stroke-miterlimit:10;" d="M 0.118973 -0.000000404953 C 0.118973 0.0657017 0.0657027 0.118972 0.000000554682 0.118972 C -0.0657015 0.118972 -0.118972 0.0657017 -0.118972 -0.000000404953 C -0.118972 -0.0657025 -0.0657015 -0.118973 0.000000554682 -0.118973 C 0.0657027 -0.118973 0.118973 -0.0657025 0.118973 -0.000000404953 Z M 0.118973 -0.000000404953 " transform="matrix(165.282015,0,0,165.282015,123.374908,497.996161)"/>
<path style="fill-rule:nonzero;fill:rgb(55.294118%,82.745098%,78.039216%);fill-opacity:1;stroke-width:0.0237947;stroke-linecap:butt;stroke-linejoin:miter;stroke:rgb(60%,60%,60%);stroke-opacity:0.8;stroke-miterlimit:10;" d="M 0.118972 -0.0000050991 C 0.118972 0.065697 0.0657015 0.118968 -0.000000565872 0.118968 C -0.0657027 0.118968 -0.118973 0.065697 -0.118973 -0.0000050991 C -0.118973 -0.0657072 -0.0657027 -0.118978 -0.000000565872 -0.118978 C 0.0657015 -0.118978 0.118972 -0.0657072 0.118972 -0.0000050991 Z M 0.118972 -0.0000050991 " transform="matrix(165.282015,0,0,165.282015,269.636812,538.508655)"/>
<path style="fill-rule:nonzero;fill:rgb(55.294118%,82.745098%,78.039216%);fill-opacity:1;stroke-width:0.0237947;stroke-linecap:butt;stroke-linejoin:miter;stroke:rgb(60%,60%,60%);stroke-opacity:0.8;stroke-miterlimit:10;" d="M 0.118965 -0.00000982377 C 0.118965 0.0657159 0.0657177 0.118963 -0.0000080772 0.118963 C -0.0657102 0.118963 -0.118981 0.0657159 -0.118981 -0.00000982377 C -0.118981 -0.0657119 -0.0657102 -0.118983 -0.0000080772 -0.118983 C 0.0657177 -0.118983 0.118965 -0.0657119 0.118965 -0.00000982377 Z M 0.118965 -0.00000982377 " transform="matrix(165.282015,0,0,165.282015,201.450554,145.833655)"/>
<path style="fill-rule:nonzero;fill:rgb(55.294118%,82.745098%,78.039216%);fill-opacity:1;stroke-width:0.0237947;stroke-linecap:butt;stroke-linejoin:miter;stroke:rgb(60%,60%,60%);stroke-opacity:0.8;stroke-miterlimit:10;" d="M 0.118974 -0.00000516875 C 0.118974 0.0656969 0.0657038 0.118968 0.00000170181 0.118968 C -0.0657004 0.118968 -0.118971 0.0656969 -0.118971 -0.00000516875 C -0.118971 -0.0657073 -0.0657004 -0.118978 0.00000170181 -0.118978 C 0.0657038 -0.118978 0.118974 -0.0657073 0.118974 -0.00000516875 Z M 0.118974 -0.00000516875 " transform="matrix(165.282015,0,0,165.282015,256.20675,80.496948)"/>
<path style="fill-rule:nonzero;fill:rgb(55.294118%,82.745098%,78.039216%);fill-opacity:1;stroke-width:0.0237947;stroke-linecap:butt;stroke-linejoin:miter;stroke:rgb(60%,60%,60%);stroke-opacity:0.8;stroke-miterlimit:10;" d="M 0.118972 0.0000100921 C 0.118972 0.0657122 0.0657016 0.118983 -0.000000505761 0.118983 C -0.0657026 0.118983 -0.118973 0.0657122 -0.118973 0.0000100921 C -0.118973 -0.0657156 -0.0657026 -0.118963 -0.000000505761 -0.118963 C 0.0657016 -0.118963 0.118972 -0.0657156 0.118972 0.0000100921 Z M 0.118972 0.0000100921 " transform="matrix(165.282015,0,0,165.282015,94.84774,206.150676)"/>
<path style="fill-rule:nonzero;fill:rgb(55.294118%,82.745098%,78.039216%);fill-opacity:1;stroke-width:0.0237947;stroke-linecap:butt;stroke-linejoin:miter;stroke:rgb(60%,60%,60%);stroke-opacity:0.8;stroke-miterlimit:10;" d="M 0.11898 0.0000028276 C 0.11898 0.0657049 0.0657091 0.118976 0.00000701743 0.118976 C -0.0657187 0.118976 -0.118966 0.0657049 -0.118966 0.0000028276 C -0.118966 -0.0656993 -0.0657187 -0.11897 0.00000701743 -0.11897 C 0.0657091 -0.11897 0.11898 -0.0656993 0.11898 0.0000028276 Z M 0.11898 0.0000028276 " transform="matrix(165.282015,0,0,165.282015,322.600403,63.99172)"/>
<path style="fill-rule:nonzero;fill:rgb(55.294118%,82.745098%,78.039216%);fill-opacity:1;stroke-width:0.0237947;stroke-linecap:butt;stroke-linejoin:miter;stroke:rgb(60%,60%,60%);stroke-opacity:0.8;stroke-miterlimit:10;" d="M 0.118979 -0.00000635224 C 0.118979 0.0656957 0.0657082 0.118966 0.00000613147 0.118966 C -0.065696 0.118966 -0.118967 0.0656957 -0.118967 -0.00000635224 C -0.118967 -0.0657084 -0.065696 -0.118979 0.00000613147 -0.118979 C 0.0657082 -0.118979 0.118979 -0.0657084 0.118979 -0.00000635224 Z M 0.118979 -0.00000635224 " transform="matrix(165.282015,0,0,165.282015,231.40133,41.153394)"/>
</g>
</svg>
