<?xml version="1.0" encoding="UTF-8"?>
<svg xmlns="http://www.w3.org/2000/svg" xmlns:xlink="http://www.w3.org/1999/xlink" width="600pt" height="600pt" viewBox="0 0 600 600" version="1.1">
<defs>
<clipPath id="clip1">
  <path d="M 152 2 L 303 2 L 303 171 L 152 171 Z M 152 2 "/>
</clipPath>
<clipPath id="clip2">
  <path d="M 62.246094 -47.625 L 392.175781 -47.625 L 392.175781 220.277344 L 62.246094 220.277344 Z M 62.246094 -47.625 L 223.78125 55.28125 C 223.78125 65.613281 215.40625 73.984375 205.078125 73.984375 C 194.746094 73.984375 186.371094 65.613281 186.371094 55.28125 C 186.371094 44.953125 194.746094 36.578125 205.078125 36.578125 C 215.40625 36.578125 223.78125 44.953125 223.78125 55.28125 Z M 62.246094 -47.625 "/>
</clipPath>
<clipPath id="clip3">
  <path d="M 62.246094 -47.625 L 392.175781 -47.625 L 392.175781 220.277344 L 62.246094 220.277344 Z M 62.246094 -47.625 L 268.054688 117.375 C 268.054688 127.707031 259.679688 136.082031 249.347656 136.082031 C 239.019531 136.082031 230.644531 127.707031 230.644531 117.375 C 230.644531 107.046875 239.019531 98.671875 249.347656 98.671875 C 259.679688 98.671875 268.054688 107.046875 268.054688 117.375 Z M 62.246094 -47.625 "/>
</clipPath>
<clipPath id="clip4">
  <path d="M 0 184 L 175 184 L 175 356 L 0 356 Z M 0 184 "/>
</clipPath>
<clipPath id="clip5">
  <path d="M -69.175781 108.121094 L 240.96875 108.121094 L 240.96875 431.453125 L -69.175781 431.453125 Z M -69.175781 108.121094 L 69.386719 237.148438 C 69.386719 247.476562 61.011719 255.851562 50.679688 255.851562 C 40.351562 255.851562 31.976562 247.476562 31.976562 237.148438 C 31.976562 226.816406 40.351562 218.445312 50.679688 218.445312 C 61.011719 218.445312 69.386719 226.816406 69.386719 237.148438 Z M -69.175781 108.121094 "/>
</clipPath>
<clipPath id="clip6">
  <path d="M -69.175781 108.121094 L 240.96875 108.121094 L 240.96875 431.453125 L -69.175781 431.453125 Z M -69.175781 108.121094 L 139.824219 302.429688 C 139.824219 312.761719 131.449219 321.136719 121.117188 321.136719 C 110.789062 321.136719 102.414062 312.761719 102.414062 302.429688 C 102.414062 292.101562 110.789062 283.726562 121.117188 283.726562 C 131.449219 283.726562 139.824219 292.101562 139.824219 302.429688 Z M -69.175781 108.121094 "/>
</clipPath>
<clipPath id="clip7">
  <path d="M 113 64 L 303 64 L 303 236 L 113 236 Z M 113 64 "/>
</clipPath>
<clipPath id="clip8">
  <path d="M 57.355469 -21.167969 L 358.003906 -21.167969 L 358.003906 320.773438 L 57.355469 320.773438 Z M 57.355469 -21.167969 L 268.054688 117.375 C 268.054688 127.707031 259.679688 136.082031 249.347656 136.082031 C 239.019531 136.082031 230.644531 127.707031 230.644531 117.375 C 230.644531 107.046875 239.019531 98.671875 249.347656 98.671875 C 259.679688 98.671875 268.054688 107.046875 268.054688 117.375 Z M 57.355469 -21.167969 "/>
</clipPath>
<clipPath id="clip9">
  <path d="M 57.355469 -21.167969 L 358.003906 -21.167969 L 358.003906 320.773438 L 57.355469 320.773438 Z M 57.355469 -21.167969 L 184.71875 182.234375 C 184.71875 192.566406 176.34375 200.9375 166.015625 200.9375 C 155.683594 200.9375 147.308594 192.566406 147.308594 182.234375 C 147.308594 171.90625 155.683594 163.53125 166.015625 163.53125 C 176.34375 163.53125 184.71875 171.90625 184.71875 182.234375 Z M 57.355469 -21.167969 "/>
</clipPath>
<clipPath id="clip10">
  <path d="M 201.132812 64 L 447.121094 64 L 447.121094 211 L 201.132812 211 Z M 201.132812 64 "/>
</clipPath>
<clipPath id="clip11">
  <path d="M 201.132812 -51.296875 L 447.121094 -51.296875 L 447.121094 326.371094 L 201.132812 326.371094 Z M 201.132812 -51.296875 L 268.054688 117.375 C 268.054688 127.707031 259.679688 136.082031 249.347656 136.082031 C 239.019531 136.082031 230.644531 127.707031 230.644531 117.375 C 230.644531 107.046875 239.019531 98.671875 249.347656 98.671875 C 259.679688 98.671875 268.054688 107.046875 268.054688 117.375 Z M 201.132812 -51.296875 "/>
</clipPath>
<clipPath id="clip12">
  <path d="M 201.132812 -51.296875 L 447.121094 -51.296875 L 447.121094 326.371094 L 201.132812 326.371094 Z M 201.132812 -51.296875 L 417.613281 157.703125 C 417.613281 168.03125 409.238281 176.40625 398.910156 176.40625 C 388.578125 176.40625 380.203125 168.03125 380.203125 157.703125 C 380.203125 147.371094 388.578125 139 398.910156 139 C 409.238281 139 417.613281 147.371094 417.613281 157.703125 Z M 201.132812 -51.296875 "/>
</clipPath>
<clipPath id="clip13">
  <path d="M 68 129 L 219 129 L 219 356 L 68 356 Z M 68 129 "/>
</clipPath>
<clipPath id="clip14">
  <path d="M -42.644531 118.71875 L 329.773438 118.71875 L 329.773438 365.941406 L -42.644531 365.941406 Z M -42.644531 118.71875 L 184.71875 182.234375 C 184.71875 192.566406 176.34375 200.9375 166.015625 200.9375 C 155.683594 200.9375 147.308594 192.566406 147.308594 182.234375 C 147.308594 171.90625 155.683594 163.53125 166.015625 163.53125 C 176.34375 163.53125 184.71875 171.90625 184.71875 182.234375 Z M -42.644531 118.71875 "/>
</clipPath>
<clipPath id="clip15">
  <path d="M -42.644531 118.71875 L 329.773438 118.71875 L 329.773438 365.941406 L -42.644531 365.941406 Z M -42.644531 118.71875 L 139.824219 302.429688 C 139.824219 312.761719 131.449219 321.136719 121.117188 321.136719 C 110.789062 321.136719 102.414062 312.761719 102.414062 302.429688 C 102.414062 292.101562 110.789062 283.726562 121.117188 283.726562 C 131.449219 283.726562 139.824219 292.101562 139.824219 302.429688 Z M -42.644531 118.71875 "/>
</clipPath>
<clipPath id="clip16">
  <path d="M 34 249 L 175 249 L 175 401 L 34 401 Z M 34 249 "/>
</clipPath>
<clipPath id="clip17">
  <path d="M -53.015625 195.746094 L 261.171875 195.746094 L 261.171875 454.230469 L -53.015625 454.230469 Z M -53.015625 195.746094 L 139.824219 302.429688 C 139.824219 312.761719 131.449219 321.136719 121.117188 321.136719 C 110.789062 321.136719 102.414062 312.761719 102.414062 302.429688 C 102.414062 292.101562 110.789062 283.726562 121.117188 283.726562 C 131.449219 283.726562 139.824219 292.101562 139.824219 302.429688 Z M -53.015625 195.746094 "/>
</clipPath>
<clipPath id="clip18">
  <path d="M -53.015625 195.746094 L 261.171875 195.746094 L 261.171875 454.230469 L -53.015625 454.230469 Z M -53.015625 195.746094 L 105.75 347.550781 C 105.75 357.878906 97.375 366.253906 87.042969 366.253906 C 76.714844 366.253906 68.339844 357.878906 68.339844 347.550781 C 68.339844 337.21875 76.714844 328.84375 87.042969 328.84375 C 97.375 328.84375 105.75 337.21875 105.75 347.550781 Z M -53.015625 195.746094 "/>
</clipPath>
<clipPath id="clip19">
  <path d="M 68 249 L 241 249 L 241 453 L 68 453 Z M 68 249 "/>
</clipPath>
<clipPath id="clip20">
  <path d="M -23.679688 202.34375 L 332.492188 202.34375 L 332.492188 499.992188 L -23.679688 499.992188 Z M -23.679688 202.34375 L 139.824219 302.429688 C 139.824219 312.761719 131.449219 321.136719 121.117188 321.136719 C 110.789062 321.136719 102.414062 312.761719 102.414062 302.429688 C 102.414062 292.101562 110.789062 283.726562 121.117188 283.726562 C 131.449219 283.726562 139.824219 292.101562 139.824219 302.429688 Z M -23.679688 202.34375 "/>
</clipPath>
<clipPath id="clip21">
  <path d="M -23.679688 202.34375 L 332.492188 202.34375 L 332.492188 499.992188 L -23.679688 499.992188 Z M -23.679688 202.34375 L 206.402344 399.910156 C 206.402344 410.242188 198.027344 418.617188 187.699219 418.617188 C 177.367188 418.617188 168.996094 410.242188 168.996094 399.910156 C 168.996094 389.582031 177.367188 381.207031 187.699219 381.207031 C 198.027344 381.207031 206.402344 389.582031 206.402344 399.910156 Z M -23.679688 202.34375 "/>
</clipPath>
<clipPath id="clip22">
  <path d="M 68 266.644531 L 194 266.644531 L 194 440.789062 L 68 440.789062 Z M 68 266.644531 "/>
</clipPath>
<clipPath id="clip23">
  <path d="M -50.410156 266.644531 L 312.230469 266.644531 L 312.230469 440.789062 L -50.410156 440.789062 Z M -50.410156 266.644531 L 139.824219 302.429688 C 139.824219 312.761719 131.449219 321.136719 121.117188 321.136719 C 110.789062 321.136719 102.414062 312.761719 102.414062 302.429688 C 102.414062 292.101562 110.789062 283.726562 121.117188 283.726562 C 131.449219 283.726562 139.824219 292.101562 139.824219 302.429688 Z M -50.410156 266.644531 "/>
</clipPath>
<clipPath id="clip24">
  <path d="M -50.410156 266.644531 L 312.230469 266.644531 L 312.230469 440.789062 L -50.410156 440.789062 Z M -50.410156 266.644531 L 159.410156 405.007812 C 159.410156 415.339844 151.035156 423.714844 140.707031 423.714844 C 130.375 423.714844 122 415.339844 122 405.007812 C 122 394.679688 130.375 386.304688 140.707031 386.304688 C 151.035156 386.304688 159.410156 394.679688 159.410156 405.007812 Z M -50.410156 266.644531 "/>
</clipPath>
<clipPath id="clip25">
  <path d="M 34 294 L 194 294 L 194 458 L 34 458 Z M 34 294 "/>
</clipPath>
<clipPath id="clip26">
  <path d="M -41.535156 227.210938 L 269.28125 227.210938 L 269.28125 525.34375 L -41.535156 525.34375 Z M -41.535156 227.210938 L 105.75 347.550781 C 105.75 357.878906 97.375 366.253906 87.042969 366.253906 C 76.714844 366.253906 68.339844 357.878906 68.339844 347.550781 C 68.339844 337.21875 76.714844 328.84375 87.042969 328.84375 C 97.375 328.84375 105.75 337.21875 105.75 347.550781 Z M -41.535156 227.210938 "/>
</clipPath>
<clipPath id="clip27">
  <path d="M -41.535156 227.210938 L 269.28125 227.210938 L 269.28125 525.34375 L -41.535156 525.34375 Z M -41.535156 227.210938 L 159.410156 405.007812 C 159.410156 415.339844 151.035156 423.714844 140.707031 423.714844 C 130.375 423.714844 122 415.339844 122 405.007812 C 122 394.679688 130.375 386.304688 140.707031 386.304688 C 151.035156 386.304688 159.410156 394.679688 159.410156 405.007812 Z M -41.535156 227.210938 "/>
</clipPath>
<clipPath id="clip28">
  <path d="M 134 347 L 317 347 L 317 538 L 134 538 Z M 134 347 "/>
</clipPath>
<clipPath id="clip29">
  <path d="M 56.367188 282.589844 L 394.785156 282.589844 L 394.785156 602.328125 L 56.367188 602.328125 Z M 56.367188 282.589844 L 282.160156 485.011719 C 282.160156 495.34375 273.785156 503.71875 263.457031 503.71875 C 253.125 503.71875 244.753906 495.34375 244.753906 485.011719 C 244.753906 474.683594 253.125 466.308594 263.457031 466.308594 C 273.785156 466.308594 282.160156 474.683594 282.160156 485.011719 Z M 56.367188 282.589844 "/>
</clipPath>
<clipPath id="clip30">
  <path d="M 56.367188 282.589844 L 394.785156 282.589844 L 394.785156 602.328125 L 56.367188 602.328125 Z M 56.367188 282.589844 L 206.402344 399.910156 C 206.402344 410.242188 198.027344 418.617188 187.699219 418.617188 C 177.367188 418.617188 168.996094 410.242188 168.996094 399.910156 C 168.996094 389.582031 177.367188 381.207031 187.699219 381.207031 C 198.027344 381.207031 206.402344 389.582031 206.402344 399.910156 Z M 56.367188 282.589844 "/>
</clipPath>
<clipPath id="clip31">
  <path d="M 87 352 L 317 352 L 317 538 L 87 538 Z M 87 352 "/>
</clipPath>
<clipPath id="clip32">
  <path d="M 43.691406 258.160156 L 360.46875 258.160156 L 360.46875 631.855469 L 43.691406 631.855469 Z M 43.691406 258.160156 L 282.160156 485.011719 C 282.160156 495.34375 273.785156 503.71875 263.457031 503.71875 C 253.125 503.71875 244.753906 495.34375 244.753906 485.011719 C 244.753906 474.683594 253.125 466.308594 263.457031 466.308594 C 273.785156 466.308594 282.160156 474.683594 282.160156 485.011719 Z M 43.691406 258.160156 "/>
</clipPath>
<clipPath id="clip33">
  <path d="M 43.691406 258.160156 L 360.46875 258.160156 L 360.46875 631.855469 L 43.691406 631.855469 Z M 43.691406 258.160156 L 159.410156 405.007812 C 159.410156 415.339844 151.035156 423.714844 140.707031 423.714844 C 130.375 423.714844 122 415.339844 122 405.007812 C 122 394.679688 130.375 386.304688 140.707031 386.304688 C 151.035156 386.304688 159.410156 394.679688 159.410156 405.007812 Z M 43.691406 258.160156 "/>
</clipPath>
<clipPath id="clip34">
  <path d="M 231.46875 432 L 431.105469 432 L 431.105469 561 L 231.46875 561 Z M 231.46875 432 "/>
</clipPath>
<clipPath id="clip35">
  <path d="M 231.46875 312.800781 L 431.105469 312.800781 L 431.105469 679.964844 L 231.46875 679.964844 Z M 231.46875 312.800781 L 282.160156 485.011719 C 282.160156 495.34375 273.785156 503.71875 263.457031 503.71875 C 253.125 503.71875 244.753906 495.34375 244.753906 485.011719 C 244.753906 474.683594 253.125 466.308594 263.457031 466.308594 C 273.785156 466.308594 282.160156 474.683594 282.160156 485.011719 Z M 231.46875 312.800781 "/>
</clipPath>
<clipPath id="clip36">
  <path d="M 231.46875 312.800781 L 431.105469 312.800781 L 431.105469 679.964844 L 231.46875 679.964844 Z M 231.46875 312.800781 L 417.828125 507.757812 C 417.828125 518.089844 409.453125 526.464844 399.121094 526.464844 C 388.792969 526.464844 380.417969 518.089844 380.417969 507.757812 C 380.417969 497.429688 388.792969 489.054688 399.121094 489.054688 C 409.453125 489.054688 417.828125 497.429688 417.828125 507.757812 Z M 231.46875 312.800781 "/>
</clipPath>
<clipPath id="clip37">
  <path d="M 199 456.011719 L 317 456.011719 L 317 589.121094 L 199 589.121094 Z M 199 456.011719 "/>
</clipPath>
<clipPath id="clip38">
  <path d="M 79.542969 456.011719 L 436.136719 456.011719 L 436.136719 589.121094 L 79.542969 589.121094 Z M 79.542969 456.011719 L 282.160156 485.011719 C 282.160156 495.34375 273.785156 503.71875 263.457031 503.71875 C 253.125 503.71875 244.753906 495.34375 244.753906 485.011719 C 244.753906 474.683594 253.125 466.308594 263.457031 466.308594 C 273.785156 466.308594 282.160156 474.683594 282.160156 485.011719 Z M 79.542969 456.011719 "/>
</clipPath>
<clipPath id="clip39">
  <path d="M 79.542969 456.011719 L 436.136719 456.011719 L 436.136719 589.121094 L 79.542969 589.121094 Z M 79.542969 456.011719 L 270.929688 560.125 C 270.929688 570.453125 262.558594 578.828125 252.226562 578.828125 C 241.898438 578.828125 233.523438 570.453125 233.523438 560.125 C 233.523438 549.792969 241.898438 541.417969 252.226562 541.417969 C 262.558594 541.417969 270.929688 549.792969 270.929688 560.125 Z M 79.542969 456.011719 "/>
</clipPath>
<clipPath id="clip40">
  <path d="M 210 432 L 370 432 L 370 590 L 210 590 Z M 210 432 "/>
</clipPath>
<clipPath id="clip41">
  <path d="M 140.636719 358.796875 L 439.585938 358.796875 L 439.585938 663.058594 L 140.636719 663.058594 Z M 140.636719 358.796875 L 282.160156 485.011719 C 282.160156 495.34375 273.785156 503.71875 263.457031 503.71875 C 253.125 503.71875 244.753906 495.34375 244.753906 485.011719 C 244.753906 474.683594 253.125 466.308594 263.457031 466.308594 C 273.785156 466.308594 282.160156 474.683594 282.160156 485.011719 Z M 140.636719 358.796875 "/>
</clipPath>
<clipPath id="clip42">
  <path d="M 140.636719 358.796875 L 439.585938 358.796875 L 439.585938 663.058594 L 140.636719 663.058594 Z M 140.636719 358.796875 L 335.476562 536.847656 C 335.476562 547.175781 327.101562 555.550781 316.769531 555.550781 C 306.441406 555.550781 298.066406 547.175781 298.066406 536.847656 C 298.066406 526.515625 306.441406 518.144531 316.769531 518.144531 C 327.101562 518.144531 335.476562 526.515625 335.476562 536.847656 Z M 140.636719 358.796875 "/>
</clipPath>
<clipPath id="clip43">
  <path d="M 118.542969 347 L 209.859375 347 L 209.859375 458 L 118.542969 458 Z M 118.542969 347 "/>
</clipPath>
<clipPath id="clip44">
  <path d="M 118.542969 226.34375 L 209.859375 226.34375 L 209.859375 578.570312 L 118.542969 578.570312 Z M 118.542969 226.34375 L 206.402344 399.910156 C 206.402344 410.242188 198.027344 418.617188 187.699219 418.617188 C 177.367188 418.617188 168.996094 410.242188 168.996094 399.910156 C 168.996094 389.582031 177.367188 381.207031 187.699219 381.207031 C 198.027344 381.207031 206.402344 389.582031 206.402344 399.910156 Z M 118.542969 226.34375 "/>
</clipPath>
<clipPath id="clip45">
  <path d="M 118.542969 226.34375 L 209.859375 226.34375 L 209.859375 578.570312 L 118.542969 578.570312 Z M 118.542969 226.34375 L 159.410156 405.007812 C 159.410156 415.339844 151.035156 423.714844 140.707031 423.714844 C 130.375 423.714844 122 415.339844 122 405.007812 C 122 394.679688 130.375 386.304688 140.707031 386.304688 C 151.035156 386.304688 159.410156 394.679688 159.410156 405.007812 Z M 118.542969 226.34375 "/>
</clipPath>
<clipPath id="clip46">
  <path d="M 25 352 L 194 352 L 194 513 L 25 513 Z M 25 352 "/>
</clipPath>
<clipPath id="clip47">
  <path d="M -38.03125 272.816406 L 257.050781 272.816406 L 257.050781 591.890625 L -38.03125 591.890625 Z M -38.03125 272.816406 L 97.019531 459.703125 C 97.019531 470.035156 88.648438 478.410156 78.316406 478.410156 C 67.988281 478.410156 59.613281 470.035156 59.613281 459.703125 C 59.613281 449.375 67.988281 441 78.316406 441 C 88.648438 441 97.019531 449.375 97.019531 459.703125 Z M -38.03125 272.816406 "/>
</clipPath>
<clipPath id="clip48">
  <path d="M -38.03125 272.816406 L 257.050781 272.816406 L 257.050781 591.890625 L -38.03125 591.890625 Z M -38.03125 272.816406 L 159.410156 405.007812 C 159.410156 415.339844 151.035156 423.714844 140.707031 423.714844 C 130.375 423.714844 122 415.339844 122 405.007812 C 122 394.679688 130.375 386.304688 140.707031 386.304688 C 151.035156 386.304688 159.410156 394.679688 159.410156 405.007812 Z M -38.03125 272.816406 "/>
</clipPath>
<clipPath id="clip49">
  <path d="M 376.398438 454 L 493.5625 454 L 493.5625 569 L 376.398438 569 Z M 376.398438 454 "/>
</clipPath>
<clipPath id="clip50">
  <path d="M 376.398438 334.253906 L 493.5625 334.253906 L 493.5625 689.277344 L 376.398438 689.277344 Z M 376.398438 334.253906 L 489.546875 515.777344 C 489.546875 526.109375 481.171875 534.484375 470.84375 534.484375 C 460.511719 534.484375 452.136719 526.109375 452.136719 515.777344 C 452.136719 505.449219 460.511719 497.074219 470.84375 497.074219 C 481.171875 497.074219 489.546875 505.449219 489.546875 515.777344 Z M 376.398438 334.253906 "/>
</clipPath>
<clipPath id="clip51">
  <path d="M 376.398438 334.253906 L 493.5625 334.253906 L 493.5625 689.277344 L 376.398438 689.277344 Z M 376.398438 334.253906 L 417.828125 507.757812 C 417.828125 518.089844 409.453125 526.464844 399.121094 526.464844 C 388.792969 526.464844 380.417969 518.089844 380.417969 507.757812 C 380.417969 497.429688 388.792969 489.054688 399.121094 489.054688 C 409.453125 489.054688 417.828125 497.429688 417.828125 507.757812 Z M 376.398438 334.253906 "/>
</clipPath>
<clipPath id="clip52">
  <path d="M 422 128 L 600 128 L 600 303 L 422 303 Z M 422 128 "/>
</clipPath>
<clipPath id="clip53">
  <path d="M 356.289062 51.859375 L 668.472656 51.859375 L 668.472656 378.910156 L 356.289062 378.910156 Z M 356.289062 51.859375 L 568.023438 249.238281 C 568.023438 259.566406 559.648438 267.941406 549.320312 267.941406 C 538.988281 267.941406 530.613281 259.566406 530.613281 249.238281 C 530.613281 238.90625 538.988281 230.535156 549.320312 230.535156 C 559.648438 230.535156 568.023438 238.90625 568.023438 249.238281 Z M 356.289062 51.859375 "/>
</clipPath>
<clipPath id="clip54">
  <path d="M 356.289062 51.859375 L 668.472656 51.859375 L 668.472656 378.910156 L 356.289062 378.910156 Z M 356.289062 51.859375 L 494.148438 181.535156 C 494.148438 191.867188 485.773438 200.238281 475.445312 200.238281 C 465.113281 200.238281 456.742188 191.867188 456.742188 181.535156 C 456.742188 171.207031 465.113281 162.832031 475.445312 162.832031 C 485.773438 162.832031 494.148438 171.207031 494.148438 181.535156 Z M 356.289062 51.859375 "/>
</clipPath>
<clipPath id="clip55">
  <path d="M 488 213.683594 L 600 213.683594 L 600 324.003906 L 488 324.003906 Z M 488 213.683594 "/>
</clipPath>
<clipPath id="clip56">
  <path d="M 370.3125 213.683594 L 720.890625 213.683594 L 720.890625 324.003906 L 370.3125 324.003906 Z M 370.3125 213.683594 L 568.023438 249.238281 C 568.023438 259.566406 559.648438 267.941406 549.320312 267.941406 C 538.988281 267.941406 530.613281 259.566406 530.613281 249.238281 C 530.613281 238.90625 538.988281 230.535156 549.320312 230.535156 C 559.648438 230.535156 568.023438 238.90625 568.023438 249.238281 Z M 370.3125 213.683594 "/>
</clipPath>
<clipPath id="clip57">
  <path d="M 370.3125 213.683594 L 720.890625 213.683594 L 720.890625 324.003906 L 370.3125 324.003906 Z M 370.3125 213.683594 L 560.589844 288.453125 C 560.589844 298.785156 552.214844 307.15625 541.886719 307.15625 C 531.554688 307.15625 523.183594 298.785156 523.183594 288.453125 C 523.183594 278.125 531.554688 269.75 541.886719 269.75 C 552.214844 269.75 560.589844 278.125 560.589844 288.453125 Z M 370.3125 213.683594 "/>
</clipPath>
<clipPath id="clip58">
  <path d="M 422 167.277344 L 532 167.277344 L 532 242.027344 L 422 242.027344 Z M 422 167.277344 "/>
</clipPath>
<clipPath id="clip59">
  <path d="M 301.207031 167.277344 L 652.53125 167.277344 L 652.53125 242.027344 L 301.207031 242.027344 Z M 301.207031 167.277344 L 494.148438 181.535156 C 494.148438 191.867188 485.773438 200.238281 475.445312 200.238281 C 465.113281 200.238281 456.742188 191.867188 456.742188 181.535156 C 456.742188 171.207031 465.113281 162.832031 475.445312 162.832031 C 485.773438 162.832031 494.148438 171.207031 494.148438 181.535156 Z M 301.207031 167.277344 "/>
</clipPath>
<clipPath id="clip60">
  <path d="M 301.207031 167.277344 L 652.53125 167.277344 L 652.53125 242.027344 L 301.207031 242.027344 Z M 301.207031 167.277344 L 497 227.773438 C 497 238.101562 488.628906 246.476562 478.296875 246.476562 C 467.96875 246.476562 459.59375 238.101562 459.59375 227.773438 C 459.59375 217.441406 467.96875 209.066406 478.296875 209.066406 C 488.628906 209.066406 497 217.441406 497 227.773438 Z M 301.207031 167.277344 "/>
</clipPath>
<clipPath id="clip61">
  <path d="M 380 54 L 529 54 L 529 235 L 380 235 Z M 380 54 "/>
</clipPath>
<clipPath id="clip62">
  <path d="M 281.152344 20.027344 L 628.105469 20.027344 L 628.105469 268.953125 L 281.152344 268.953125 Z M 281.152344 20.027344 L 494.148438 181.535156 C 494.148438 191.867188 485.773438 200.238281 475.445312 200.238281 C 465.113281 200.238281 456.742188 191.867188 456.742188 181.535156 C 456.742188 171.207031 465.113281 162.832031 475.445312 162.832031 C 485.773438 162.832031 494.148438 171.207031 494.148438 181.535156 Z M 281.152344 20.027344 "/>
</clipPath>
<clipPath id="clip63">
  <path d="M 281.152344 20.027344 L 628.105469 20.027344 L 628.105469 268.953125 L 281.152344 268.953125 Z M 281.152344 20.027344 L 452.523438 107.449219 C 452.523438 117.78125 444.148438 126.152344 433.816406 126.152344 C 423.488281 126.152344 415.113281 117.78125 415.113281 107.449219 C 415.113281 97.121094 423.488281 88.746094 433.816406 88.746094 C 444.148438 88.746094 452.523438 97.121094 452.523438 107.449219 Z M 281.152344 20.027344 "/>
</clipPath>
<clipPath id="clip64">
  <path d="M 346 104 L 529 104 L 529 235 L 346 235 Z M 346 104 "/>
</clipPath>
<clipPath id="clip65">
  <path d="M 344.382812 -9.132812 L 529.96875 -9.132812 L 529.96875 348.367188 L 344.382812 348.367188 Z M 344.382812 -9.132812 L 494.148438 181.535156 C 494.148438 191.867188 485.773438 200.238281 475.445312 200.238281 C 465.113281 200.238281 456.742188 191.867188 456.742188 181.535156 C 456.742188 171.207031 465.113281 162.832031 475.445312 162.832031 C 485.773438 162.832031 494.148438 171.207031 494.148438 181.535156 Z M 344.382812 -9.132812 "/>
</clipPath>
<clipPath id="clip66">
  <path d="M 344.382812 -9.132812 L 529.96875 -9.132812 L 529.96875 348.367188 L 344.382812 348.367188 Z M 344.382812 -9.132812 L 417.613281 157.703125 C 417.613281 168.03125 409.238281 176.40625 398.910156 176.40625 C 388.578125 176.40625 380.203125 168.03125 380.203125 157.703125 C 380.203125 147.371094 388.578125 139 398.910156 139 C 409.238281 139 417.613281 147.371094 417.613281 157.703125 Z M 344.382812 -9.132812 "/>
</clipPath>
<clipPath id="clip67">
  <path d="M 425 174 L 595 174 L 595 342 L 425 342 Z M 425 174 "/>
</clipPath>
<clipPath id="clip68">
  <path d="M 356.628906 100.449219 L 663.550781 100.449219 L 663.550781 415.773438 L 356.628906 415.773438 Z M 356.628906 100.449219 L 560.589844 288.453125 C 560.589844 298.785156 552.214844 307.15625 541.886719 307.15625 C 531.554688 307.15625 523.183594 298.785156 523.183594 288.453125 C 523.183594 278.125 531.554688 269.75 541.886719 269.75 C 552.214844 269.75 560.589844 278.125 560.589844 288.453125 Z M 356.628906 100.449219 "/>
</clipPath>
<clipPath id="clip69">
  <path d="M 356.628906 100.449219 L 663.550781 100.449219 L 663.550781 415.773438 L 356.628906 415.773438 Z M 356.628906 100.449219 L 497 227.773438 C 497 238.101562 488.628906 246.476562 478.296875 246.476562 C 467.96875 246.476562 459.59375 238.101562 459.59375 227.773438 C 459.59375 217.441406 467.96875 209.066406 478.296875 209.066406 C 488.628906 209.066406 497 217.441406 497 227.773438 Z M 356.628906 100.449219 "/>
</clipPath>
<clipPath id="clip70">
  <path d="M 346 104 L 532 104 L 532 281 L 346 281 Z M 346 104 "/>
</clipPath>
<clipPath id="clip71">
  <path d="M 282.128906 25.894531 L 595.074219 25.894531 L 595.074219 359.578125 L 282.128906 359.578125 Z M 282.128906 25.894531 L 497 227.773438 C 497 238.101562 488.628906 246.476562 478.296875 246.476562 C 467.96875 246.476562 459.59375 238.101562 459.59375 227.773438 C 459.59375 217.441406 467.96875 209.066406 478.296875 209.066406 C 488.628906 209.066406 497 217.441406 497 227.773438 Z M 282.128906 25.894531 "/>
</clipPath>
<clipPath id="clip72">
  <path d="M 282.128906 25.894531 L 595.074219 25.894531 L 595.074219 359.578125 L 282.128906 359.578125 Z M 282.128906 25.894531 L 417.613281 157.703125 C 417.613281 168.03125 409.238281 176.40625 398.910156 176.40625 C 388.578125 176.40625 380.203125 168.03125 380.203125 157.703125 C 380.203125 147.371094 388.578125 139 398.910156 139 C 409.238281 139 417.613281 147.371094 417.613281 157.703125 Z M 282.128906 25.894531 "/>
</clipPath>
<clipPath id="clip73">
  <path d="M 361 0 L 487 0 L 487 157.898438 L 361 157.898438 Z M 361 0 "/>
</clipPath>
<clipPath id="clip74">
  <path d="M 246.554688 -10.578125 L 601.863281 -10.578125 L 601.863281 157.898438 L 246.554688 157.898438 Z M 246.554688 -10.578125 L 433.3125 39.875 C 433.3125 50.207031 424.9375 58.582031 414.605469 58.582031 C 404.277344 58.582031 395.902344 50.207031 395.902344 39.875 C 395.902344 29.546875 404.277344 21.171875 414.605469 21.171875 C 424.9375 21.171875 433.3125 29.546875 433.3125 39.875 Z M 246.554688 -10.578125 "/>
</clipPath>
<clipPath id="clip75">
  <path d="M 246.554688 -10.578125 L 601.863281 -10.578125 L 601.863281 157.898438 L 246.554688 157.898438 Z M 246.554688 -10.578125 L 452.523438 107.449219 C 452.523438 117.78125 444.148438 126.152344 433.816406 126.152344 C 423.488281 126.152344 415.113281 117.78125 415.113281 107.449219 C 415.113281 97.121094 423.488281 88.746094 433.816406 88.746094 C 444.148438 88.746094 452.523438 97.121094 452.523438 107.449219 Z M 246.554688 -10.578125 "/>
</clipPath>
<clipPath id="clip76">
  <path d="M 346 54 L 487 54 L 487 211 L 346 211 Z M 346 54 "/>
</clipPath>
<clipPath id="clip77">
  <path d="M 254.871094 6.257812 L 577.851562 6.257812 L 577.851562 258.890625 L 254.871094 258.890625 Z M 254.871094 6.257812 L 452.523438 107.449219 C 452.523438 117.78125 444.148438 126.152344 433.816406 126.152344 C 423.488281 126.152344 415.113281 117.78125 415.113281 107.449219 C 415.113281 97.121094 423.488281 88.746094 433.816406 88.746094 C 444.148438 88.746094 452.523438 97.121094 452.523438 107.449219 Z M 254.871094 6.257812 "/>
</clipPath>
<clipPath id="clip78">
  <path d="M 254.871094 6.257812 L 577.851562 6.257812 L 577.851562 258.890625 L 254.871094 258.890625 Z M 254.871094 6.257812 L 417.613281 157.703125 C 417.613281 168.03125 409.238281 176.40625 398.910156 176.40625 C 388.578125 176.40625 380.203125 168.03125 380.203125 157.703125 C 380.203125 147.371094 388.578125 139 398.910156 139 C 409.238281 139 417.613281 147.371094 417.613281 157.703125 Z M 254.871094 6.257812 "/>
</clipPath>
</defs>
<g id="surface26">
<g clip-path="url(#clip1)" clip-rule="nonzero">
<g clip-path="url(#clip2)" clip-rule="evenodd">
<g clip-path="url(#clip3)" clip-rule="evenodd">
<path style="fill:none;stroke-width:0.0218996;stroke-linecap:butt;stroke-linejoin:miter;stroke:rgb(17.96875%,20.3125%,21.09375%);stroke-opacity:0.8;stroke-miterlimit:10;" d="M 2.049004 0.784622 L 2.308164 1.148128 " transform="matrix(170.819357,0,0,170.819357,-144.931494,-78.74742)"/>
</g>
</g>
</g>
<g clip-path="url(#clip4)" clip-rule="nonzero">
<g clip-path="url(#clip5)" clip-rule="evenodd">
<g clip-path="url(#clip6)" clip-rule="evenodd">
<path style="fill:none;stroke-width:0.0218996;stroke-linecap:butt;stroke-linejoin:miter;stroke:rgb(17.96875%,20.3125%,21.09375%);stroke-opacity:0.8;stroke-miterlimit:10;" d="M 1.145135 1.849298 L 1.557486 2.231463 " transform="matrix(170.819357,0,0,170.819357,-144.931494,-78.74742)"/>
</g>
</g>
</g>
<g clip-path="url(#clip7)" clip-rule="nonzero">
<g clip-path="url(#clip8)" clip-rule="evenodd">
<g clip-path="url(#clip9)" clip-rule="evenodd">
<path style="fill:none;stroke-width:0.0218996;stroke-linecap:butt;stroke-linejoin:miter;stroke:rgb(17.96875%,20.3125%,21.09375%);stroke-opacity:0.8;stroke-miterlimit:10;" d="M 2.308164 1.148128 L 1.820327 1.527823 " transform="matrix(170.819357,0,0,170.819357,-144.931494,-78.74742)"/>
</g>
</g>
</g>
<g clip-path="url(#clip10)" clip-rule="nonzero">
<g clip-path="url(#clip11)" clip-rule="evenodd">
<g clip-path="url(#clip12)" clip-rule="evenodd">
<path style="fill:none;stroke-width:0.0218996;stroke-linecap:butt;stroke-linejoin:miter;stroke:rgb(17.96875%,20.3125%,21.09375%);stroke-opacity:0.8;stroke-miterlimit:10;" d="M 2.308164 1.148128 L 3.183724 1.384214 " transform="matrix(170.819357,0,0,170.819357,-144.931494,-78.74742)"/>
</g>
</g>
</g>
<g clip-path="url(#clip13)" clip-rule="nonzero">
<g clip-path="url(#clip14)" clip-rule="evenodd">
<g clip-path="url(#clip15)" clip-rule="evenodd">
<path style="fill:none;stroke-width:0.0218996;stroke-linecap:butt;stroke-linejoin:miter;stroke:rgb(17.96875%,20.3125%,21.09375%);stroke-opacity:0.8;stroke-miterlimit:10;" d="M 1.820327 1.527823 L 1.557486 2.231463 " transform="matrix(170.819357,0,0,170.819357,-144.931494,-78.74742)"/>
</g>
</g>
</g>
<g clip-path="url(#clip16)" clip-rule="nonzero">
<g clip-path="url(#clip17)" clip-rule="evenodd">
<g clip-path="url(#clip18)" clip-rule="evenodd">
<path style="fill:none;stroke-width:0.0218996;stroke-linecap:butt;stroke-linejoin:miter;stroke:rgb(17.96875%,20.3125%,21.09375%);stroke-opacity:0.8;stroke-miterlimit:10;" d="M 1.557486 2.231463 L 1.35801 2.495608 " transform="matrix(170.819357,0,0,170.819357,-144.931494,-78.74742)"/>
</g>
</g>
</g>
<g clip-path="url(#clip19)" clip-rule="nonzero">
<g clip-path="url(#clip20)" clip-rule="evenodd">
<g clip-path="url(#clip21)" clip-rule="evenodd">
<path style="fill:none;stroke-width:0.0218996;stroke-linecap:butt;stroke-linejoin:miter;stroke:rgb(17.96875%,20.3125%,21.09375%);stroke-opacity:0.8;stroke-miterlimit:10;" d="M 1.557486 2.231463 L 1.947266 2.802127 " transform="matrix(170.819357,0,0,170.819357,-144.931494,-78.74742)"/>
</g>
</g>
</g>
<g clip-path="url(#clip22)" clip-rule="nonzero">
<g clip-path="url(#clip23)" clip-rule="evenodd">
<g clip-path="url(#clip24)" clip-rule="evenodd">
<path style="fill:none;stroke-width:0.0218996;stroke-linecap:butt;stroke-linejoin:miter;stroke:rgb(17.96875%,20.3125%,21.09375%);stroke-opacity:0.8;stroke-miterlimit:10;" d="M 1.557486 2.231463 L 1.672167 2.83197 " transform="matrix(170.819357,0,0,170.819357,-144.931494,-78.74742)"/>
</g>
</g>
</g>
<g clip-path="url(#clip25)" clip-rule="nonzero">
<g clip-path="url(#clip26)" clip-rule="evenodd">
<g clip-path="url(#clip27)" clip-rule="evenodd">
<path style="fill:none;stroke-width:0.0218996;stroke-linecap:butt;stroke-linejoin:miter;stroke:rgb(17.96875%,20.3125%,21.09375%);stroke-opacity:0.8;stroke-miterlimit:10;" d="M 1.35801 2.495608 L 1.672167 2.83197 " transform="matrix(170.819357,0,0,170.819357,-144.931494,-78.74742)"/>
</g>
</g>
</g>
<g clip-path="url(#clip28)" clip-rule="nonzero">
<g clip-path="url(#clip29)" clip-rule="evenodd">
<g clip-path="url(#clip30)" clip-rule="evenodd">
<path style="fill:none;stroke-width:0.0218996;stroke-linecap:butt;stroke-linejoin:miter;stroke:rgb(17.96875%,20.3125%,21.09375%);stroke-opacity:0.8;stroke-miterlimit:10;" d="M 2.390763 3.300324 L 1.947266 2.802127 " transform="matrix(170.819357,0,0,170.819357,-144.931494,-78.74742)"/>
</g>
</g>
</g>
<g clip-path="url(#clip31)" clip-rule="nonzero">
<g clip-path="url(#clip32)" clip-rule="evenodd">
<g clip-path="url(#clip33)" clip-rule="evenodd">
<path style="fill:none;stroke-width:0.0218996;stroke-linecap:butt;stroke-linejoin:miter;stroke:rgb(17.96875%,20.3125%,21.09375%);stroke-opacity:0.8;stroke-miterlimit:10;" d="M 2.390763 3.300324 L 1.672167 2.83197 " transform="matrix(170.819357,0,0,170.819357,-144.931494,-78.74742)"/>
</g>
</g>
</g>
<g clip-path="url(#clip34)" clip-rule="nonzero">
<g clip-path="url(#clip35)" clip-rule="evenodd">
<g clip-path="url(#clip36)" clip-rule="evenodd">
<path style="fill:none;stroke-width:0.0218996;stroke-linecap:butt;stroke-linejoin:miter;stroke:rgb(17.96875%,20.3125%,21.09375%);stroke-opacity:0.8;stroke-miterlimit:10;" d="M 2.390763 3.300324 L 3.184959 3.433482 " transform="matrix(170.819357,0,0,170.819357,-144.931494,-78.74742)"/>
</g>
</g>
</g>
<g clip-path="url(#clip37)" clip-rule="nonzero">
<g clip-path="url(#clip38)" clip-rule="evenodd">
<g clip-path="url(#clip39)" clip-rule="evenodd">
<path style="fill:none;stroke-width:0.0218996;stroke-linecap:butt;stroke-linejoin:miter;stroke:rgb(17.96875%,20.3125%,21.09375%);stroke-opacity:0.8;stroke-miterlimit:10;" d="M 2.390763 3.300324 L 2.325018 3.740047 " transform="matrix(170.819357,0,0,170.819357,-144.931494,-78.74742)"/>
</g>
</g>
</g>
<g clip-path="url(#clip40)" clip-rule="nonzero">
<g clip-path="url(#clip41)" clip-rule="evenodd">
<g clip-path="url(#clip42)" clip-rule="evenodd">
<path style="fill:none;stroke-width:0.0218996;stroke-linecap:butt;stroke-linejoin:miter;stroke:rgb(17.96875%,20.3125%,21.09375%);stroke-opacity:0.8;stroke-miterlimit:10;" d="M 2.390763 3.300324 L 2.702861 3.603778 " transform="matrix(170.819357,0,0,170.819357,-144.931494,-78.74742)"/>
</g>
</g>
</g>
<g clip-path="url(#clip43)" clip-rule="nonzero">
<g clip-path="url(#clip44)" clip-rule="evenodd">
<g clip-path="url(#clip45)" clip-rule="evenodd">
<path style="fill:none;stroke-width:0.0218996;stroke-linecap:butt;stroke-linejoin:miter;stroke:rgb(17.96875%,20.3125%,21.09375%);stroke-opacity:0.8;stroke-miterlimit:10;" d="M 1.947266 2.802127 L 1.672167 2.83197 " transform="matrix(170.819357,0,0,170.819357,-144.931494,-78.74742)"/>
</g>
</g>
</g>
<g clip-path="url(#clip46)" clip-rule="nonzero">
<g clip-path="url(#clip47)" clip-rule="evenodd">
<g clip-path="url(#clip48)" clip-rule="evenodd">
<path style="fill:none;stroke-width:0.0218996;stroke-linecap:butt;stroke-linejoin:miter;stroke:rgb(17.96875%,20.3125%,21.09375%);stroke-opacity:0.8;stroke-miterlimit:10;" d="M 1.306924 3.152164 L 1.672167 2.83197 " transform="matrix(170.819357,0,0,170.819357,-144.931494,-78.74742)"/>
</g>
</g>
</g>
<g clip-path="url(#clip49)" clip-rule="nonzero">
<g clip-path="url(#clip50)" clip-rule="evenodd">
<g clip-path="url(#clip51)" clip-rule="evenodd">
<path style="fill:none;stroke-width:0.0218996;stroke-linecap:butt;stroke-linejoin:miter;stroke:rgb(17.96875%,20.3125%,21.09375%);stroke-opacity:0.8;stroke-miterlimit:10;" d="M 3.604833 3.48043 L 3.184959 3.433482 " transform="matrix(170.819357,0,0,170.819357,-144.931494,-78.74742)"/>
</g>
</g>
</g>
<g clip-path="url(#clip52)" clip-rule="nonzero">
<g clip-path="url(#clip53)" clip-rule="evenodd">
<g clip-path="url(#clip54)" clip-rule="evenodd">
<path style="fill:none;stroke-width:0.0218996;stroke-linecap:butt;stroke-linejoin:miter;stroke:rgb(17.96875%,20.3125%,21.09375%);stroke-opacity:0.8;stroke-miterlimit:10;" d="M 4.064246 1.920073 L 3.631771 1.52373 " transform="matrix(170.819357,0,0,170.819357,-144.931494,-78.74742)"/>
</g>
</g>
</g>
<g clip-path="url(#clip55)" clip-rule="nonzero">
<g clip-path="url(#clip56)" clip-rule="evenodd">
<g clip-path="url(#clip57)" clip-rule="evenodd">
<path style="fill:none;stroke-width:0.0218996;stroke-linecap:butt;stroke-linejoin:miter;stroke:rgb(17.96875%,20.3125%,21.09375%);stroke-opacity:0.8;stroke-miterlimit:10;" d="M 4.064246 1.920073 L 4.020728 2.149642 " transform="matrix(170.819357,0,0,170.819357,-144.931494,-78.74742)"/>
</g>
</g>
</g>
<g clip-path="url(#clip58)" clip-rule="nonzero">
<g clip-path="url(#clip59)" clip-rule="evenodd">
<g clip-path="url(#clip60)" clip-rule="evenodd">
<path style="fill:none;stroke-width:0.0218996;stroke-linecap:butt;stroke-linejoin:miter;stroke:rgb(17.96875%,20.3125%,21.09375%);stroke-opacity:0.8;stroke-miterlimit:10;" d="M 3.631771 1.52373 L 3.648465 1.794415 " transform="matrix(170.819357,0,0,170.819357,-144.931494,-78.74742)"/>
</g>
</g>
</g>
<g clip-path="url(#clip61)" clip-rule="nonzero">
<g clip-path="url(#clip62)" clip-rule="evenodd">
<g clip-path="url(#clip63)" clip-rule="evenodd">
<path style="fill:none;stroke-width:0.0218996;stroke-linecap:butt;stroke-linejoin:miter;stroke:rgb(17.96875%,20.3125%,21.09375%);stroke-opacity:0.8;stroke-miterlimit:10;" d="M 3.631771 1.52373 L 3.38807 1.090021 " transform="matrix(170.819357,0,0,170.819357,-144.931494,-78.74742)"/>
</g>
</g>
</g>
<g clip-path="url(#clip64)" clip-rule="nonzero">
<g clip-path="url(#clip65)" clip-rule="evenodd">
<g clip-path="url(#clip66)" clip-rule="evenodd">
<path style="fill:none;stroke-width:0.0218996;stroke-linecap:butt;stroke-linejoin:miter;stroke:rgb(17.96875%,20.3125%,21.09375%);stroke-opacity:0.8;stroke-miterlimit:10;" d="M 3.631771 1.52373 L 3.183724 1.384214 " transform="matrix(170.819357,0,0,170.819357,-144.931494,-78.74742)"/>
</g>
</g>
</g>
<g clip-path="url(#clip67)" clip-rule="nonzero">
<g clip-path="url(#clip68)" clip-rule="evenodd">
<g clip-path="url(#clip69)" clip-rule="evenodd">
<path style="fill:none;stroke-width:0.0218996;stroke-linecap:butt;stroke-linejoin:miter;stroke:rgb(17.96875%,20.3125%,21.09375%);stroke-opacity:0.8;stroke-miterlimit:10;" d="M 4.020728 2.149642 L 3.648465 1.794415 " transform="matrix(170.819357,0,0,170.819357,-144.931494,-78.74742)"/>
</g>
</g>
</g>
<g clip-path="url(#clip70)" clip-rule="nonzero">
<g clip-path="url(#clip71)" clip-rule="evenodd">
<g clip-path="url(#clip72)" clip-rule="evenodd">
<path style="fill:none;stroke-width:0.0218996;stroke-linecap:butt;stroke-linejoin:miter;stroke:rgb(17.96875%,20.3125%,21.09375%);stroke-opacity:0.8;stroke-miterlimit:10;" d="M 3.648465 1.794415 L 3.183724 1.384214 " transform="matrix(170.819357,0,0,170.819357,-144.931494,-78.74742)"/>
</g>
</g>
</g>
<g clip-path="url(#clip73)" clip-rule="nonzero">
<g clip-path="url(#clip74)" clip-rule="evenodd">
<g clip-path="url(#clip75)" clip-rule="evenodd">
<path style="fill:none;stroke-width:0.0218996;stroke-linecap:butt;stroke-linejoin:miter;stroke:rgb(17.96875%,20.3125%,21.09375%);stroke-opacity:0.8;stroke-miterlimit:10;" d="M 3.275606 0.694432 L 3.38807 1.090021 " transform="matrix(170.819357,0,0,170.819357,-144.931494,-78.74742)"/>
</g>
</g>
</g>
<g clip-path="url(#clip76)" clip-rule="nonzero">
<g clip-path="url(#clip77)" clip-rule="evenodd">
<g clip-path="url(#clip78)" clip-rule="evenodd">
<path style="fill:none;stroke-width:0.0218996;stroke-linecap:butt;stroke-linejoin:miter;stroke:rgb(17.96875%,20.3125%,21.09375%);stroke-opacity:0.8;stroke-miterlimit:10;" d="M 3.38807 1.090021 L 3.183724 1.384214 " transform="matrix(170.819357,0,0,170.819357,-144.931494,-78.74742)"/>
</g>
</g>
</g>
<path style="fill-rule:nonzero;fill:rgb(100%,92.941176%,43.529412%);fill-opacity:1;stroke-width:0.0218996;stroke-linecap:butt;stroke-linejoin:miter;stroke:rgb(60%,60%,60%);stroke-opacity:0.8;stroke-miterlimit:10;" d="M 0.109497 -0.00000177933 C 0.109497 0.0604834 0.0604686 0.109489 0.00000631385 0.109489 C -0.0604788 0.109489 -0.109507 0.0604834 -0.109507 -0.00000177933 C -0.109507 -0.060464 -0.0604788 -0.109492 0.00000631385 -0.109492 C 0.0604686 -0.109492 0.109497 -0.060464 0.109497 -0.00000177933 Z M 0.109497 -0.00000177933 " transform="matrix(170.819357,0,0,170.819357,205.077046,55.281554)"/>
<path style="fill-rule:nonzero;fill:rgb(100%,92.941176%,43.529412%);fill-opacity:1;stroke-width:0.0218996;stroke-linecap:butt;stroke-linejoin:miter;stroke:rgb(60%,60%,60%);stroke-opacity:0.8;stroke-miterlimit:10;" d="M 0.109509 0.00000100482 C 0.109509 0.0604633 0.0604804 0.109492 -0.00000471796 0.109492 C -0.060467 0.109492 -0.109495 0.0604633 -0.109495 0.00000100482 C -0.109495 -0.0604841 -0.060467 -0.10949 -0.00000471796 -0.10949 C 0.0604804 -0.10949 0.109509 -0.0604841 0.109509 0.00000100482 Z M 0.109509 0.00000100482 " transform="matrix(170.819357,0,0,170.819357,50.680493,237.148266)"/>
<path style="fill-rule:nonzero;fill:rgb(100%,92.941176%,43.529412%);fill-opacity:1;stroke-width:0.0218996;stroke-linecap:butt;stroke-linejoin:miter;stroke:rgb(60%,60%,60%);stroke-opacity:0.8;stroke-miterlimit:10;" d="M 0.109507 -0.00000988356 C 0.109507 0.0604752 0.0604783 0.109504 -0.00000685021 0.109504 C -0.0604691 0.109504 -0.109498 0.0604752 -0.109498 -0.00000988356 C -0.109498 -0.0604721 -0.0604691 -0.109501 -0.00000685021 -0.109501 C 0.0604783 -0.109501 0.109507 -0.0604721 0.109507 -0.00000988356 Z M 0.109507 -0.00000988356 " transform="matrix(170.819357,0,0,170.819357,249.348826,117.376688)"/>
<path style="fill-rule:nonzero;fill:rgb(100%,92.941176%,43.529412%);fill-opacity:1;stroke-width:0.0218996;stroke-linecap:butt;stroke-linejoin:miter;stroke:rgb(60%,60%,60%);stroke-opacity:0.8;stroke-miterlimit:10;" d="M 0.109502 -0.00000136406 C 0.109502 0.0604838 0.0604733 0.109489 0.0000110534 0.109489 C -0.0604741 0.109489 -0.109502 0.0604838 -0.109502 -0.00000136406 C -0.109502 -0.0604636 -0.0604741 -0.109492 0.0000110534 -0.109492 C 0.0604733 -0.109492 0.109502 -0.0604636 0.109502 -0.00000136406 Z M 0.109502 -0.00000136406 " transform="matrix(170.819357,0,0,170.819357,166.013737,182.234608)"/>
<path style="fill-rule:nonzero;fill:rgb(100%,92.941176%,43.529412%);fill-opacity:1;stroke-width:0.0218996;stroke-linecap:butt;stroke-linejoin:miter;stroke:rgb(60%,60%,60%);stroke-opacity:0.8;stroke-miterlimit:10;" d="M 0.109506 -0.0000109509 C 0.109506 0.0604742 0.0604773 0.109503 -0.00000784896 0.109503 C -0.0604701 0.109503 -0.109499 0.0604742 -0.109499 -0.0000109509 C -0.109499 -0.0604732 -0.0604701 -0.109502 -0.00000784896 -0.109502 C 0.0604773 -0.109502 0.109506 -0.0604732 0.109506 -0.0000109509 Z M 0.109506 -0.0000109509 " transform="matrix(170.819357,0,0,170.819357,121.118528,302.431558)"/>
<path style="fill-rule:nonzero;fill:rgb(100%,92.941176%,43.529412%);fill-opacity:1;stroke-width:0.0218996;stroke-linecap:butt;stroke-linejoin:miter;stroke:rgb(60%,60%,60%);stroke-opacity:0.8;stroke-miterlimit:10;" d="M 0.109507 0.00000867529 C 0.109507 0.0604709 0.0604782 0.109499 -0.00000696284 0.109499 C -0.0604692 0.109499 -0.109498 0.0604709 -0.109498 0.00000867529 C -0.109498 -0.0604765 -0.0604692 -0.109505 -0.00000696284 -0.109505 C 0.0604782 -0.109505 0.109507 -0.0604765 0.109507 0.00000867529 Z M 0.109507 0.00000867529 " transform="matrix(170.819357,0,0,170.819357,87.044158,347.549299)"/>
<path style="fill-rule:nonzero;fill:rgb(100%,92.941176%,43.529412%);fill-opacity:1;stroke-width:0.0218996;stroke-linecap:butt;stroke-linejoin:miter;stroke:rgb(60%,60%,60%);stroke-opacity:0.8;stroke-miterlimit:10;" d="M 0.109491 -0.00000525963 C 0.109491 0.0604799 0.060463 0.109508 0.000000721877 0.109508 C -0.0604844 0.109508 -0.10949 0.0604799 -0.10949 -0.00000525963 C -0.10949 -0.0604675 -0.0604844 -0.109496 0.000000721877 -0.109496 C 0.060463 -0.109496 0.109491 -0.0604675 0.109491 -0.00000525963 Z M 0.109491 -0.00000525963 " transform="matrix(170.819357,0,0,170.819357,263.456908,485.012617)"/>
<path style="fill-rule:nonzero;fill:rgb(100%,92.941176%,43.529412%);fill-opacity:1;stroke-width:0.0218996;stroke-linecap:butt;stroke-linejoin:miter;stroke:rgb(60%,60%,60%);stroke-opacity:0.8;stroke-miterlimit:10;" d="M 0.109494 -0.00000804874 C 0.109494 0.0604771 0.060466 0.109505 0.00000375194 0.109505 C -0.0604814 0.109505 -0.109487 0.0604771 -0.109487 -0.00000804874 C -0.109487 -0.0604703 -0.0604814 -0.109499 0.00000375194 -0.109499 C 0.060466 -0.109499 0.109494 -0.0604703 0.109494 -0.00000804874 Z M 0.109494 -0.00000804874 " transform="matrix(170.819357,0,0,170.819357,187.698578,399.911531)"/>
<path style="fill-rule:nonzero;fill:rgb(100%,92.941176%,43.529412%);fill-opacity:1;stroke-width:0.0218996;stroke-linecap:butt;stroke-linejoin:miter;stroke:rgb(60%,60%,60%);stroke-opacity:0.8;stroke-miterlimit:10;" d="M 0.109487 -0.0000061504 C 0.109487 0.060479 0.0604815 0.109507 -0.00000367316 0.109507 C -0.0604659 0.109507 -0.109494 0.060479 -0.109494 -0.0000061504 C -0.109494 -0.0604684 -0.0604659 -0.109497 -0.00000367316 -0.109497 C 0.0604815 -0.109497 0.109487 -0.0604684 0.109487 -0.0000061504 Z M 0.109487 -0.0000061504 " transform="matrix(170.819357,0,0,170.819357,78.317034,459.704176)"/>
<path style="fill-rule:nonzero;fill:rgb(100%,92.941176%,43.529412%);fill-opacity:1;stroke-width:0.0218996;stroke-linecap:butt;stroke-linejoin:miter;stroke:rgb(60%,60%,60%);stroke-opacity:0.8;stroke-miterlimit:10;" d="M 0.109501 -0.00000622394 C 0.109501 0.0604789 0.060473 0.109507 0.0000107444 0.109507 C -0.0604744 0.109507 -0.109503 0.0604789 -0.109503 -0.00000622394 C -0.109503 -0.0604685 -0.0604744 -0.109497 0.0000107444 -0.109497 C 0.060473 -0.109497 0.109501 -0.0604685 0.109501 -0.00000622394 Z M 0.109501 -0.00000622394 " transform="matrix(170.819357,0,0,170.819357,140.705196,405.008876)"/>
<path style="fill-rule:nonzero;fill:rgb(100%,92.941176%,43.529412%);fill-opacity:1;stroke-width:0.0218996;stroke-linecap:butt;stroke-linejoin:miter;stroke:rgb(60%,60%,60%);stroke-opacity:0.8;stroke-miterlimit:10;" d="M 0.109495 -0.00000669111 C 0.109495 0.0604784 0.0604668 0.109507 0.00000456918 0.109507 C -0.0604806 0.109507 -0.109509 0.0604784 -0.109509 -0.00000669111 C -0.109509 -0.060469 -0.0604806 -0.109497 0.00000456918 -0.109497 C 0.0604668 -0.109497 0.109495 -0.060469 0.109495 -0.00000669111 Z M 0.109495 -0.00000669111 " transform="matrix(170.819357,0,0,170.819357,470.842969,515.778487)"/>
<path style="fill-rule:nonzero;fill:rgb(100%,92.941176%,43.529412%);fill-opacity:1;stroke-width:0.0218996;stroke-linecap:butt;stroke-linejoin:miter;stroke:rgb(60%,60%,60%);stroke-opacity:0.8;stroke-miterlimit:10;" d="M 0.109508 -0.00000878476 C 0.109508 0.0604763 0.0604795 0.109505 -0.00000563303 0.109505 C -0.0604679 0.109505 -0.109496 0.0604763 -0.109496 -0.00000878476 C -0.109496 -0.060471 -0.0604679 -0.109499 -0.00000563303 -0.109499 C 0.0604795 -0.109499 0.109508 -0.060471 0.109508 -0.00000878476 Z M 0.109508 -0.00000878476 " transform="matrix(170.819357,0,0,170.819357,399.122056,507.759313)"/>
<path style="fill-rule:nonzero;fill:rgb(100%,92.941176%,43.529412%);fill-opacity:1;stroke-width:0.0218996;stroke-linecap:butt;stroke-linejoin:miter;stroke:rgb(60%,60%,60%);stroke-opacity:0.8;stroke-miterlimit:10;" d="M 0.109488 0.0000107686 C 0.109488 0.060473 0.0604826 0.109501 -0.00000248362 0.109501 C -0.0604647 0.109501 -0.109493 0.060473 -0.109493 0.0000107686 C -0.109493 -0.0604744 -0.0604647 -0.109503 -0.00000248362 -0.109503 C 0.0604826 -0.109503 0.109488 -0.0604744 0.109488 0.0000107686 Z M 0.109488 0.0000107686 " transform="matrix(170.819357,0,0,170.819357,252.226987,560.123161)"/>
<path style="fill-rule:nonzero;fill:rgb(100%,92.941176%,43.529412%);fill-opacity:1;stroke-width:0.0218996;stroke-linecap:butt;stroke-linejoin:miter;stroke:rgb(60%,60%,60%);stroke-opacity:0.8;stroke-miterlimit:10;" d="M 0.109506 0.00000169457 C 0.109506 0.060464 0.0604775 0.109492 -0.00000759384 0.109492 C -0.0604699 0.109492 -0.109498 0.060464 -0.109498 0.00000169457 C -0.109498 -0.0604834 -0.0604699 -0.109489 -0.00000759384 -0.109489 C 0.0604775 -0.109489 0.109506 -0.0604834 0.109506 0.00000169457 Z M 0.109506 0.00000169457 " transform="matrix(170.819357,0,0,170.819357,316.770828,536.847367)"/>
<path style="fill-rule:nonzero;fill:rgb(55.294118%,82.745098%,78.039216%);fill-opacity:1;stroke-width:0.0218996;stroke-linecap:butt;stroke-linejoin:miter;stroke:rgb(60%,60%,60%);stroke-opacity:0.8;stroke-miterlimit:10;" d="M 0.109495 0.00000369735 C 0.109495 0.060466 0.060467 0.109494 0.00000471796 0.109494 C -0.0604804 0.109494 -0.109509 0.060466 -0.109509 0.00000369735 C -0.109509 -0.0604814 -0.0604804 -0.109487 0.00000471796 -0.109487 C 0.060467 -0.109487 0.109495 -0.0604814 0.109495 0.00000369735 Z M 0.109495 0.00000369735 " transform="matrix(170.819357,0,0,170.819357,549.319507,249.23765)"/>
<path style="fill-rule:nonzero;fill:rgb(100%,92.941176%,43.529412%);fill-opacity:1;stroke-width:0.0218996;stroke-linecap:butt;stroke-linejoin:miter;stroke:rgb(60%,60%,60%);stroke-opacity:0.8;stroke-miterlimit:10;" d="M 0.109495 -0.00000400125 C 0.109495 0.0604811 0.0604661 0.109487 0.00000385905 0.109487 C -0.0604813 0.109487 -0.109487 0.0604811 -0.109487 -0.00000400125 C -0.109487 -0.0604663 -0.0604813 -0.109495 0.00000385905 -0.109495 C 0.0604661 -0.109495 0.109495 -0.0604663 0.109495 -0.00000400125 Z M 0.109495 -0.00000400125 " transform="matrix(170.819357,0,0,170.819357,475.444653,181.53584)"/>
<path style="fill-rule:nonzero;fill:rgb(55.294118%,82.745098%,78.039216%);fill-opacity:1;stroke-width:0.0218996;stroke-linecap:butt;stroke-linejoin:miter;stroke:rgb(60%,60%,60%);stroke-opacity:0.8;stroke-miterlimit:10;" d="M 0.109493 -0.0000024312 C 0.109493 0.0604827 0.0604642 0.109488 0.00000189788 0.109488 C -0.0604832 0.109488 -0.109489 0.0604827 -0.109489 -0.0000024312 C -0.109489 -0.0604647 -0.0604832 -0.109493 0.00000189788 -0.109493 C 0.0604642 -0.109493 0.109493 -0.0604647 0.109493 -0.0000024312 Z M 0.109493 -0.0000024312 " transform="matrix(170.819357,0,0,170.819357,541.886395,288.45354)"/>
<path style="fill-rule:nonzero;fill:rgb(100%,92.941176%,43.529412%);fill-opacity:1;stroke-width:0.0218996;stroke-linecap:butt;stroke-linejoin:miter;stroke:rgb(60%,60%,60%);stroke-opacity:0.8;stroke-miterlimit:10;" d="M 0.10949 0.00000855894 C 0.10949 0.0604708 0.0604841 0.109499 -0.00000104216 0.109499 C -0.0604633 0.109499 -0.109492 0.0604708 -0.109492 0.00000855894 C -0.109492 -0.0604766 -0.0604633 -0.109505 -0.00000104216 -0.109505 C 0.0604841 -0.109505 0.10949 -0.0604766 0.10949 0.00000855894 Z M 0.10949 0.00000855894 " transform="matrix(170.819357,0,0,170.819357,478.297053,227.771975)"/>
<path style="fill-rule:nonzero;fill:rgb(100%,92.941176%,43.529412%);fill-opacity:1;stroke-width:0.0218996;stroke-linecap:butt;stroke-linejoin:miter;stroke:rgb(60%,60%,60%);stroke-opacity:0.8;stroke-miterlimit:10;" d="M 0.109503 -0.0000107686 C 0.109503 0.0604744 0.0604742 0.109503 -0.0000109096 0.109503 C -0.0604732 0.109503 -0.109502 0.0604744 -0.109502 -0.0000107686 C -0.109502 -0.060473 -0.0604732 -0.109501 -0.0000109096 -0.109501 C 0.0604742 -0.109501 0.109503 -0.060473 0.109503 -0.0000107686 Z M 0.109503 -0.0000107686 " transform="matrix(170.819357,0,0,170.819357,414.607332,39.876839)"/>
<path style="fill-rule:nonzero;fill:rgb(100%,92.941176%,43.529412%);fill-opacity:1;stroke-width:0.0218996;stroke-linecap:butt;stroke-linejoin:miter;stroke:rgb(60%,60%,60%);stroke-opacity:0.8;stroke-miterlimit:10;" d="M 0.109508 -0.00000344755 C 0.109508 0.0604817 0.0604797 0.109487 -0.00000539601 0.109487 C -0.0604677 0.109487 -0.109496 0.0604817 -0.109496 -0.00000344755 C -0.109496 -0.0604657 -0.0604677 -0.109494 -0.00000539601 -0.109494 C 0.0604797 -0.109494 0.109508 -0.0604657 0.109508 -0.00000344755 Z M 0.109508 -0.00000344755 " transform="matrix(170.819357,0,0,170.819357,433.817328,107.449808)"/>
<path style="fill-rule:nonzero;fill:rgb(100%,92.941176%,43.529412%);fill-opacity:1;stroke-width:0.0218996;stroke-linecap:butt;stroke-linejoin:miter;stroke:rgb(60%,60%,60%);stroke-opacity:0.8;stroke-miterlimit:10;" d="M 0.109495 0.00000328773 C 0.109495 0.0604656 0.0604667 0.109494 0.00000446146 0.109494 C -0.0604807 0.109494 -0.109509 0.0604656 -0.109509 0.00000328773 C -0.109509 -0.0604818 -0.0604807 -0.109487 0.00000446146 -0.109487 C 0.0604667 -0.109487 0.109495 -0.0604818 0.109495 0.00000328773 Z M 0.109495 0.00000328773 " transform="matrix(170.819357,0,0,170.819357,398.909394,157.702563)"/>
</g>
</svg>
