<?xml version="1.0" encoding="UTF-8"?>
<svg xmlns="http://www.w3.org/2000/svg" xmlns:xlink="http://www.w3.org/1999/xlink" width="600pt" height="600pt" viewBox="0 0 600 600" version="1.1">
<defs>
<clipPath id="clip1">
  <path d="M 251 71 L 431 71 L 431 241 L 251 241 Z M 251 71 "/>
</clipPath>
<clipPath id="clip2">
  <path d="M 196.121094 0.511719 L 485.492188 0.511719 L 485.492188 311.433594 L 196.121094 311.433594 Z M 196.121094 0.511719 L 396.332031 123.941406 C 396.332031 134.269531 387.957031 142.644531 377.628906 142.644531 C 367.296875 142.644531 358.921875 134.269531 358.921875 123.941406 C 358.921875 113.609375 367.296875 105.238281 377.628906 105.238281 C 387.957031 105.238281 396.332031 113.609375 396.332031 123.941406 Z M 196.121094 0.511719 "/>
</clipPath>
<clipPath id="clip3">
  <path d="M 196.121094 0.511719 L 485.492188 0.511719 L 485.492188 311.433594 L 196.121094 311.433594 Z M 196.121094 0.511719 L 322.691406 188.007812 C 322.691406 198.335938 314.320312 206.710938 303.988281 206.710938 C 293.660156 206.710938 285.285156 198.335938 285.285156 188.007812 C 285.285156 177.675781 293.660156 169.300781 303.988281 169.300781 C 314.320312 169.300781 322.691406 177.675781 322.691406 188.007812 Z M 196.121094 0.511719 "/>
</clipPath>
<clipPath id="clip4">
  <path d="M 118 389 L 326 389 L 326 533 L 118 533 Z M 118 389 "/>
</clipPath>
<clipPath id="clip5">
  <path d="M 112.34375 289.472656 L 331.628906 289.472656 L 331.628906 632.140625 L 112.34375 632.140625 Z M 112.34375 289.472656 L 189.847656 479.625 C 189.847656 489.953125 181.472656 498.328125 171.144531 498.328125 C 160.8125 498.328125 152.441406 489.953125 152.441406 479.625 C 152.441406 469.292969 160.8125 460.921875 171.144531 460.921875 C 181.472656 460.921875 189.847656 469.292969 189.847656 479.625 Z M 112.34375 289.472656 "/>
</clipPath>
<clipPath id="clip6">
  <path d="M 112.34375 289.472656 L 331.628906 289.472656 L 331.628906 632.140625 L 112.34375 632.140625 Z M 112.34375 289.472656 L 291.539062 441.992188 C 291.539062 452.320312 283.164062 460.695312 272.832031 460.695312 C 262.503906 460.695312 254.128906 452.320312 254.128906 441.992188 C 254.128906 431.660156 262.503906 423.285156 272.832031 423.285156 C 283.164062 423.285156 291.539062 431.660156 291.539062 441.992188 Z M 112.34375 289.472656 "/>
</clipPath>
<clipPath id="clip7">
  <path d="M 230 158.695312 L 357 158.695312 L 357 340.316406 L 230 340.316406 Z M 230 158.695312 "/>
</clipPath>
<clipPath id="clip8">
  <path d="M 123.589844 158.695312 L 464.292969 158.695312 L 464.292969 340.316406 L 123.589844 340.316406 Z M 123.589844 158.695312 L 322.691406 188.007812 C 322.691406 198.335938 314.320312 206.710938 303.988281 206.710938 C 293.660156 206.710938 285.285156 198.335938 285.285156 188.007812 C 285.285156 177.675781 293.660156 169.300781 303.988281 169.300781 C 314.320312 169.300781 322.691406 177.675781 322.691406 188.007812 Z M 123.589844 158.695312 "/>
</clipPath>
<clipPath id="clip9">
  <path d="M 123.589844 158.695312 L 464.292969 158.695312 L 464.292969 340.316406 L 123.589844 340.316406 Z M 123.589844 158.695312 L 302.601562 311.007812 C 302.601562 321.339844 294.226562 329.710938 283.898438 329.710938 C 273.566406 329.710938 265.195312 321.339844 265.195312 311.007812 C 265.195312 300.679688 273.566406 292.304688 283.898438 292.304688 C 294.226562 292.304688 302.601562 300.679688 302.601562 311.007812 Z M 123.589844 158.695312 "/>
</clipPath>
<clipPath id="clip10">
  <path d="M 153.75 108 L 345.488281 108 L 345.488281 241 L 153.75 241 Z M 153.75 108 "/>
</clipPath>
<clipPath id="clip11">
  <path d="M 153.75 3.535156 L 345.488281 3.535156 L 345.488281 345.828125 L 153.75 345.828125 Z M 153.75 3.535156 L 322.691406 188.007812 C 322.691406 198.335938 314.320312 206.710938 303.988281 206.710938 C 293.660156 206.710938 285.285156 198.335938 285.285156 188.007812 C 285.285156 177.675781 293.660156 169.300781 303.988281 169.300781 C 314.320312 169.300781 322.691406 177.675781 322.691406 188.007812 Z M 153.75 3.535156 "/>
</clipPath>
<clipPath id="clip12">
  <path d="M 153.75 3.535156 L 345.488281 3.535156 L 345.488281 345.828125 L 153.75 345.828125 Z M 153.75 3.535156 L 213.960938 161.359375 C 213.960938 171.691406 205.585938 180.066406 195.253906 180.066406 C 184.925781 180.066406 176.550781 171.691406 176.550781 161.359375 C 176.550781 151.03125 184.925781 142.65625 195.253906 142.65625 C 205.585938 142.65625 213.960938 151.03125 213.960938 161.359375 Z M 153.75 3.535156 "/>
</clipPath>
<clipPath id="clip13">
  <path d="M 219 293.910156 L 337 293.910156 L 337 459.085938 L 219 459.085938 Z M 219 293.910156 "/>
</clipPath>
<clipPath id="clip14">
  <path d="M 111.011719 293.910156 L 445.714844 293.910156 L 445.714844 459.085938 L 111.011719 459.085938 Z M 111.011719 293.910156 L 302.601562 311.007812 C 302.601562 321.339844 294.226562 329.710938 283.898438 329.710938 C 273.566406 329.710938 265.195312 321.339844 265.195312 311.007812 C 265.195312 300.679688 273.566406 292.304688 283.898438 292.304688 C 294.226562 292.304688 302.601562 300.679688 302.601562 311.007812 Z M 111.011719 293.910156 "/>
</clipPath>
<clipPath id="clip15">
  <path d="M 111.011719 293.910156 L 445.714844 293.910156 L 445.714844 459.085938 L 111.011719 459.085938 Z M 111.011719 293.910156 L 291.539062 441.992188 C 291.539062 452.320312 283.164062 460.695312 272.832031 460.695312 C 262.503906 460.695312 254.128906 452.320312 254.128906 441.992188 C 254.128906 431.660156 262.503906 423.285156 272.832031 423.285156 C 283.164062 423.285156 291.539062 431.660156 291.539062 441.992188 Z M 111.011719 293.910156 "/>
</clipPath>
<clipPath id="clip16">
  <path d="M 216 428.15625 L 326 428.15625 L 326 511.953125 L 216 511.953125 Z M 216 428.15625 "/>
</clipPath>
<clipPath id="clip17">
  <path d="M 107.191406 428.15625 L 434.890625 428.15625 L 434.890625 511.953125 L 107.191406 511.953125 Z M 107.191406 428.15625 L 291.539062 441.992188 C 291.539062 452.320312 283.164062 460.695312 272.832031 460.695312 C 262.503906 460.695312 254.128906 452.320312 254.128906 441.992188 C 254.128906 431.660156 262.503906 423.285156 272.832031 423.285156 C 283.164062 423.285156 291.539062 431.660156 291.539062 441.992188 Z M 107.191406 428.15625 "/>
</clipPath>
<clipPath id="clip18">
  <path d="M 107.191406 428.15625 L 434.890625 428.15625 L 434.890625 511.953125 L 107.191406 511.953125 Z M 107.191406 428.15625 L 287.957031 498.121094 C 287.957031 508.453125 279.582031 516.828125 269.253906 516.828125 C 258.921875 516.828125 250.550781 508.453125 250.550781 498.121094 C 250.550781 487.792969 258.921875 479.417969 269.253906 479.417969 C 279.582031 479.417969 287.957031 487.792969 287.957031 498.121094 Z M 107.191406 428.15625 "/>
</clipPath>
<clipPath id="clip19">
  <path d="M 264.773438 386 L 376.59375 386 L 376.59375 495 L 264.773438 495 Z M 264.773438 386 "/>
</clipPath>
<clipPath id="clip20">
  <path d="M 264.773438 277.0625 L 376.59375 277.0625 L 376.59375 604.3125 L 264.773438 604.3125 Z M 264.773438 277.0625 L 291.539062 441.992188 C 291.539062 452.320312 283.164062 460.695312 272.832031 460.695312 C 262.503906 460.695312 254.128906 452.320312 254.128906 441.992188 C 254.128906 431.660156 262.503906 423.285156 272.832031 423.285156 C 283.164062 423.285156 291.539062 431.660156 291.539062 441.992188 Z M 264.773438 277.0625 "/>
</clipPath>
<clipPath id="clip21">
  <path d="M 264.773438 277.0625 L 376.59375 277.0625 L 376.59375 604.3125 L 264.773438 604.3125 Z M 264.773438 277.0625 L 387.242188 439.386719 C 387.242188 449.71875 378.871094 458.09375 368.539062 458.09375 C 358.210938 458.09375 349.835938 449.71875 349.835938 439.386719 C 349.835938 429.058594 358.210938 420.683594 368.539062 420.683594 C 378.871094 420.683594 387.242188 429.058594 387.242188 439.386719 Z M 264.773438 277.0625 "/>
</clipPath>
<clipPath id="clip22">
  <path d="M 219 389 L 396 389 L 396 532 L 219 532 Z M 219 389 "/>
</clipPath>
<clipPath id="clip23">
  <path d="M 195.289062 297.820312 L 420.246094 297.820312 L 420.246094 622.882812 L 195.289062 622.882812 Z M 195.289062 297.820312 L 291.539062 441.992188 C 291.539062 452.320312 283.164062 460.695312 272.832031 460.695312 C 262.503906 460.695312 254.128906 452.320312 254.128906 441.992188 C 254.128906 431.660156 262.503906 423.285156 272.832031 423.285156 C 283.164062 423.285156 291.539062 431.660156 291.539062 441.992188 Z M 195.289062 297.820312 "/>
</clipPath>
<clipPath id="clip24">
  <path d="M 195.289062 297.820312 L 420.246094 297.820312 L 420.246094 622.882812 L 195.289062 622.882812 Z M 195.289062 297.820312 L 361.414062 478.714844 C 361.414062 489.042969 353.039062 497.417969 342.707031 497.417969 C 332.378906 497.417969 324.003906 489.042969 324.003906 478.714844 C 324.003906 468.382812 332.378906 460.007812 342.707031 460.007812 C 353.039062 460.007812 361.414062 468.382812 361.414062 478.714844 Z M 195.289062 297.820312 "/>
</clipPath>
<clipPath id="clip25">
  <path d="M 224.988281 425 L 386.96875 425 L 386.96875 552 L 224.988281 552 Z M 224.988281 425 "/>
</clipPath>
<clipPath id="clip26">
  <path d="M 224.988281 321.59375 L 386.96875 321.59375 L 386.96875 655.238281 L 224.988281 655.238281 Z M 224.988281 321.59375 L 287.957031 498.121094 C 287.957031 508.453125 279.582031 516.828125 269.253906 516.828125 C 258.921875 516.828125 250.550781 508.453125 250.550781 498.121094 C 250.550781 487.792969 258.921875 479.417969 269.253906 479.417969 C 279.582031 479.417969 287.957031 487.792969 287.957031 498.121094 Z M 224.988281 321.59375 "/>
</clipPath>
<clipPath id="clip27">
  <path d="M 224.988281 321.59375 L 386.96875 321.59375 L 386.96875 655.238281 L 224.988281 655.238281 Z M 224.988281 321.59375 L 361.414062 478.714844 C 361.414062 489.042969 353.039062 497.417969 342.707031 497.417969 C 332.378906 497.417969 324.003906 489.042969 324.003906 478.714844 C 324.003906 468.382812 332.378906 460.007812 342.707031 460.007812 C 353.039062 460.007812 361.414062 468.382812 361.414062 478.714844 Z M 224.988281 321.59375 "/>
</clipPath>
<clipPath id="clip28">
  <path d="M 315 341 L 512 341 L 512 493 L 315 493 Z M 315 341 "/>
</clipPath>
<clipPath id="clip29">
  <path d="M 294.636719 248.769531 L 532.867188 248.769531 L 532.867188 585.410156 L 294.636719 585.410156 Z M 294.636719 248.769531 L 477.675781 394.796875 C 477.675781 405.128906 469.300781 413.503906 458.96875 413.503906 C 448.640625 413.503906 440.265625 405.128906 440.265625 394.796875 C 440.265625 384.46875 448.640625 376.09375 458.96875 376.09375 C 469.300781 376.09375 477.675781 384.46875 477.675781 394.796875 Z M 294.636719 248.769531 "/>
</clipPath>
<clipPath id="clip30">
  <path d="M 294.636719 248.769531 L 532.867188 248.769531 L 532.867188 585.410156 L 294.636719 585.410156 Z M 294.636719 248.769531 L 387.242188 439.386719 C 387.242188 449.71875 378.871094 458.09375 368.539062 458.09375 C 358.210938 458.09375 349.835938 449.71875 349.835938 439.386719 C 349.835938 429.058594 358.210938 420.683594 368.539062 420.683594 C 378.871094 420.683594 387.242188 429.058594 387.242188 439.386719 Z M 294.636719 248.769531 "/>
</clipPath>
<clipPath id="clip31">
  <path d="M 289 341 L 512 341 L 512 532 L 289 532 Z M 289 341 "/>
</clipPath>
<clipPath id="clip32">
  <path d="M 246.117188 262.421875 L 555.554688 262.421875 L 555.554688 611.085938 L 246.117188 611.085938 Z M 246.117188 262.421875 L 477.675781 394.796875 C 477.675781 405.128906 469.300781 413.503906 458.96875 413.503906 C 448.640625 413.503906 440.265625 405.128906 440.265625 394.796875 C 440.265625 384.46875 448.640625 376.09375 458.96875 376.09375 C 469.300781 376.09375 477.675781 384.46875 477.675781 394.796875 Z M 246.117188 262.421875 "/>
</clipPath>
<clipPath id="clip33">
  <path d="M 246.117188 262.421875 L 555.554688 262.421875 L 555.554688 611.085938 L 246.117188 611.085938 Z M 246.117188 262.421875 L 361.414062 478.714844 C 361.414062 489.042969 353.039062 497.417969 342.707031 497.417969 C 332.378906 497.417969 324.003906 489.042969 324.003906 478.714844 C 324.003906 468.382812 332.378906 460.007812 342.707031 460.007812 C 353.039062 460.007812 361.414062 468.382812 361.414062 478.714844 Z M 246.117188 262.421875 "/>
</clipPath>
<clipPath id="clip34">
  <path d="M 406 218 L 571 218 L 571 448 L 406 448 Z M 406 218 "/>
</clipPath>
<clipPath id="clip35">
  <path d="M 311.957031 199.570312 L 664.632812 199.570312 L 664.632812 466.65625 L 311.957031 466.65625 Z M 311.957031 199.570312 L 477.675781 394.796875 C 477.675781 405.128906 469.300781 413.503906 458.96875 413.503906 C 448.640625 413.503906 440.265625 405.128906 440.265625 394.796875 C 440.265625 384.46875 448.640625 376.09375 458.96875 376.09375 C 469.300781 376.09375 477.675781 384.46875 477.675781 394.796875 Z M 311.957031 199.570312 "/>
</clipPath>
<clipPath id="clip36">
  <path d="M 311.957031 199.570312 L 664.632812 199.570312 L 664.632812 466.65625 L 311.957031 466.65625 Z M 311.957031 199.570312 L 536.328125 271.433594 C 536.328125 281.761719 527.957031 290.136719 517.625 290.136719 C 507.296875 290.136719 498.921875 281.761719 498.921875 271.433594 C 498.921875 261.101562 507.296875 252.726562 517.625 252.726562 C 527.957031 252.726562 536.328125 261.101562 536.328125 271.433594 Z M 311.957031 199.570312 "/>
</clipPath>
<clipPath id="clip37">
  <path d="M 406 309 L 577 309 L 577 448 L 406 448 Z M 406 309 "/>
</clipPath>
<clipPath id="clip38">
  <path d="M 383.3125 216.871094 L 599.078125 216.871094 L 599.078125 539.9375 L 383.3125 539.9375 Z M 383.3125 216.871094 L 477.675781 394.796875 C 477.675781 405.128906 469.300781 413.503906 458.96875 413.503906 C 448.640625 413.503906 440.265625 405.128906 440.265625 394.796875 C 440.265625 384.46875 448.640625 376.09375 458.96875 376.09375 C 469.300781 376.09375 477.675781 384.46875 477.675781 394.796875 Z M 383.3125 216.871094 "/>
</clipPath>
<clipPath id="clip39">
  <path d="M 383.3125 216.871094 L 599.078125 216.871094 L 599.078125 539.9375 L 383.3125 539.9375 Z M 383.3125 216.871094 L 542.132812 362.015625 C 542.132812 372.34375 533.757812 380.71875 523.425781 380.71875 C 513.097656 380.71875 504.722656 372.34375 504.722656 362.015625 C 504.722656 351.683594 513.097656 343.3125 523.425781 343.3125 C 533.757812 343.3125 542.132812 351.683594 542.132812 362.015625 Z M 383.3125 216.871094 "/>
</clipPath>
<clipPath id="clip40">
  <path d="M 406 341 L 569 341 L 569 484 L 406 484 Z M 406 341 "/>
</clipPath>
<clipPath id="clip41">
  <path d="M 371.035156 256.597656 L 603.992188 256.597656 L 603.992188 568.742188 L 371.035156 568.742188 Z M 371.035156 256.597656 L 477.675781 394.796875 C 477.675781 405.128906 469.300781 413.503906 458.96875 413.503906 C 448.640625 413.503906 440.265625 405.128906 440.265625 394.796875 C 440.265625 384.46875 448.640625 376.09375 458.96875 376.09375 C 469.300781 376.09375 477.675781 384.46875 477.675781 394.796875 Z M 371.035156 256.597656 "/>
</clipPath>
<clipPath id="clip42">
  <path d="M 371.035156 256.597656 L 603.992188 256.597656 L 603.992188 568.742188 L 371.035156 568.742188 Z M 371.035156 256.597656 L 534.765625 430.546875 C 534.765625 440.878906 526.390625 449.25 516.0625 449.25 C 505.730469 449.25 497.355469 440.878906 497.355469 430.546875 C 497.355469 420.21875 505.730469 411.84375 516.0625 411.84375 C 526.390625 411.84375 534.765625 420.21875 534.765625 430.546875 Z M 371.035156 256.597656 "/>
</clipPath>
<clipPath id="clip43">
  <path d="M 289 386 L 422 386 L 422 532 L 289 532 Z M 289 386 "/>
</clipPath>
<clipPath id="clip44">
  <path d="M 206.371094 348.550781 L 504.871094 348.550781 L 504.871094 569.546875 L 206.371094 569.546875 Z M 206.371094 348.550781 L 387.242188 439.386719 C 387.242188 449.71875 378.871094 458.09375 368.539062 458.09375 C 358.210938 458.09375 349.835938 449.71875 349.835938 439.386719 C 349.835938 429.058594 358.210938 420.683594 368.539062 420.683594 C 378.871094 420.683594 387.242188 429.058594 387.242188 439.386719 Z M 206.371094 348.550781 "/>
</clipPath>
<clipPath id="clip45">
  <path d="M 206.371094 348.550781 L 504.871094 348.550781 L 504.871094 569.546875 L 206.371094 569.546875 Z M 206.371094 348.550781 L 361.414062 478.714844 C 361.414062 489.042969 353.039062 497.417969 342.707031 497.417969 C 332.378906 497.417969 324.003906 489.042969 324.003906 478.714844 C 324.003906 468.382812 332.378906 460.007812 342.707031 460.007812 C 353.039062 460.007812 361.414062 468.382812 361.414062 478.714844 Z M 206.371094 348.550781 "/>
</clipPath>
<clipPath id="clip46">
  <path d="M 284 464.105469 L 396 464.105469 L 396 574.730469 L 284 574.730469 Z M 284 464.105469 "/>
</clipPath>
<clipPath id="clip47">
  <path d="M 175.109375 464.105469 L 504.710938 464.105469 L 504.710938 574.730469 L 175.109375 574.730469 Z M 175.109375 464.105469 L 355.820312 560.125 C 355.820312 570.453125 347.445312 578.828125 337.117188 578.828125 C 326.785156 578.828125 318.410156 570.453125 318.410156 560.125 C 318.410156 549.792969 326.785156 541.417969 337.117188 541.417969 C 347.445312 541.417969 355.820312 549.792969 355.820312 560.125 Z M 175.109375 464.105469 "/>
</clipPath>
<clipPath id="clip48">
  <path d="M 175.109375 464.105469 L 504.710938 464.105469 L 504.710938 574.730469 L 175.109375 574.730469 Z M 175.109375 464.105469 L 361.414062 478.714844 C 361.414062 489.042969 353.039062 497.417969 342.707031 497.417969 C 332.378906 497.417969 324.003906 489.042969 324.003906 478.714844 C 324.003906 468.382812 332.378906 460.007812 342.707031 460.007812 C 353.039062 460.007812 361.414062 468.382812 361.414062 478.714844 Z M 175.109375 464.105469 "/>
</clipPath>
<clipPath id="clip49">
  <path d="M 464 150 L 594 150 L 594 325 L 464 325 Z M 464 150 "/>
</clipPath>
<clipPath id="clip50">
  <path d="M 363.34375 149.425781 L 694.582031 149.425781 L 694.582031 325.222656 L 363.34375 325.222656 Z M 363.34375 149.425781 L 559.007812 203.21875 C 559.007812 213.546875 550.632812 221.921875 540.304688 221.921875 C 529.972656 221.921875 521.601562 213.546875 521.601562 203.21875 C 521.601562 192.886719 529.972656 184.511719 540.304688 184.511719 C 550.632812 184.511719 559.007812 192.886719 559.007812 203.21875 Z M 363.34375 149.425781 "/>
</clipPath>
<clipPath id="clip51">
  <path d="M 363.34375 149.425781 L 694.582031 149.425781 L 694.582031 325.222656 L 363.34375 325.222656 Z M 363.34375 149.425781 L 536.328125 271.433594 C 536.328125 281.761719 527.957031 290.136719 517.625 290.136719 C 507.296875 290.136719 498.921875 281.761719 498.921875 271.433594 C 498.921875 261.101562 507.296875 252.726562 517.625 252.726562 C 527.957031 252.726562 536.328125 261.101562 536.328125 271.433594 Z M 363.34375 149.425781 "/>
</clipPath>
<clipPath id="clip52">
  <path d="M 8 113 L 188 113 L 188 286 L 8 286 Z M 8 113 "/>
</clipPath>
<clipPath id="clip53">
  <path d="M -48.339844 44.738281 L 244.09375 44.738281 L 244.09375 353.945312 L -48.339844 353.945312 Z M -48.339844 44.738281 L 80.042969 232.125 C 80.042969 242.457031 71.671875 250.828125 61.339844 250.828125 C 51.011719 250.828125 42.636719 242.457031 42.636719 232.125 C 42.636719 221.796875 51.011719 213.421875 61.339844 213.421875 C 71.671875 213.421875 80.042969 221.796875 80.042969 232.125 Z M -48.339844 44.738281 "/>
</clipPath>
<clipPath id="clip54">
  <path d="M -48.339844 44.738281 L 244.09375 44.738281 L 244.09375 353.945312 L -48.339844 353.945312 Z M -48.339844 44.738281 L 153.121094 166.5625 C 153.121094 176.894531 144.746094 185.265625 134.417969 185.265625 C 124.085938 185.265625 115.714844 176.894531 115.714844 166.5625 C 115.714844 156.234375 124.085938 147.859375 134.417969 147.859375 C 144.746094 147.859375 153.121094 156.234375 153.121094 166.5625 Z M -48.339844 44.738281 "/>
</clipPath>
<clipPath id="clip55">
  <path d="M 6 221.496094 L 115 221.496094 L 115 280.589844 L 6 280.589844 Z M 6 221.496094 "/>
</clipPath>
<clipPath id="clip56">
  <path d="M -102.539062 221.496094 L 223.570312 221.496094 L 223.570312 280.589844 L -102.539062 280.589844 Z M -102.539062 221.496094 L 80.042969 232.125 C 80.042969 242.457031 71.671875 250.828125 61.339844 250.828125 C 51.011719 250.828125 42.636719 242.457031 42.636719 232.125 C 42.636719 221.796875 51.011719 213.421875 61.339844 213.421875 C 71.671875 213.421875 80.042969 221.796875 80.042969 232.125 Z M -102.539062 221.496094 "/>
</clipPath>
<clipPath id="clip57">
  <path d="M -102.539062 221.496094 L 223.570312 221.496094 L 223.570312 280.589844 L -102.539062 280.589844 Z M -102.539062 221.496094 L 78.398438 269.964844 C 78.398438 280.292969 70.027344 288.667969 59.695312 288.667969 C 49.367188 288.667969 40.992188 280.292969 40.992188 269.964844 C 40.992188 259.632812 49.367188 251.257812 59.695312 251.257812 C 70.027344 251.257812 78.398438 259.632812 78.398438 269.964844 Z M -102.539062 221.496094 "/>
</clipPath>
<clipPath id="clip58">
  <path d="M 65 113 L 188 113 L 188 264 L 65 264 Z M 65 113 "/>
</clipPath>
<clipPath id="clip59">
  <path d="M -34.378906 108.507812 L 287.210938 108.507812 L 287.210938 268.523438 L -34.378906 268.523438 Z M -34.378906 108.507812 L 153.121094 166.5625 C 153.121094 176.894531 144.746094 185.265625 134.417969 185.265625 C 124.085938 185.265625 115.714844 176.894531 115.714844 166.5625 C 115.714844 156.234375 124.085938 147.859375 134.417969 147.859375 C 144.746094 147.859375 153.121094 156.234375 153.121094 166.5625 Z M -34.378906 108.507812 "/>
</clipPath>
<clipPath id="clip60">
  <path d="M -34.378906 108.507812 L 287.210938 108.507812 L 287.210938 268.523438 L -34.378906 268.523438 Z M -34.378906 108.507812 L 137.125 210.472656 C 137.125 220.800781 128.75 229.175781 118.417969 229.175781 C 108.089844 229.175781 99.714844 220.800781 99.714844 210.472656 C 99.714844 200.140625 108.089844 191.769531 118.417969 191.769531 C 128.75 191.769531 137.125 200.140625 137.125 210.472656 Z M -34.378906 108.507812 "/>
</clipPath>
<clipPath id="clip61">
  <path d="M 81 45 L 253 45 L 253 220 L 81 220 Z M 81 45 "/>
</clipPath>
<clipPath id="clip62">
  <path d="M 15.953125 -15.003906 L 318.066406 -15.003906 L 318.066406 279.871094 L 15.953125 279.871094 Z M 15.953125 -15.003906 L 153.121094 166.5625 C 153.121094 176.894531 144.746094 185.265625 134.417969 185.265625 C 124.085938 185.265625 115.714844 176.894531 115.714844 166.5625 C 115.714844 156.234375 124.085938 147.859375 134.417969 147.859375 C 144.746094 147.859375 153.121094 156.234375 153.121094 166.5625 Z M 15.953125 -15.003906 "/>
</clipPath>
<clipPath id="clip63">
  <path d="M 15.953125 -15.003906 L 318.066406 -15.003906 L 318.066406 279.871094 L 15.953125 279.871094 Z M 15.953125 -15.003906 L 218.308594 98.308594 C 218.308594 108.640625 209.933594 117.015625 199.605469 117.015625 C 189.273438 117.015625 180.902344 108.640625 180.902344 98.308594 C 180.902344 87.980469 189.273438 79.605469 199.605469 79.605469 C 209.933594 79.605469 218.308594 87.980469 218.308594 98.308594 Z M 15.953125 -15.003906 "/>
</clipPath>
<clipPath id="clip64">
  <path d="M 117.15625 108 L 212.511719 108 L 212.511719 220 L 117.15625 220 Z M 117.15625 108 "/>
</clipPath>
<clipPath id="clip65">
  <path d="M 117.15625 -0.445312 L 212.511719 -0.445312 L 212.511719 328.363281 L 117.15625 328.363281 Z M 117.15625 -0.445312 L 153.121094 166.5625 C 153.121094 176.894531 144.746094 185.265625 134.417969 185.265625 C 124.085938 185.265625 115.714844 176.894531 115.714844 166.5625 C 115.714844 156.234375 124.085938 147.859375 134.417969 147.859375 C 144.746094 147.859375 153.121094 156.234375 153.121094 166.5625 Z M 117.15625 -0.445312 "/>
</clipPath>
<clipPath id="clip66">
  <path d="M 117.15625 -0.445312 L 212.511719 -0.445312 L 212.511719 328.363281 L 117.15625 328.363281 Z M 117.15625 -0.445312 L 213.960938 161.359375 C 213.960938 171.691406 205.585938 180.066406 195.253906 180.066406 C 184.925781 180.066406 176.550781 171.691406 176.550781 161.359375 C 176.550781 151.03125 184.925781 142.65625 195.253906 142.65625 C 205.585938 142.65625 213.960938 151.03125 213.960938 161.359375 Z M 117.15625 -0.445312 "/>
</clipPath>
<clipPath id="clip67">
  <path d="M 6 157 L 172 157 L 172 323 L 6 323 Z M 6 157 "/>
</clipPath>
<clipPath id="clip68">
  <path d="M -56.949219 95.289062 L 235.058594 95.289062 L 235.058594 385.144531 L -56.949219 385.144531 Z M -56.949219 95.289062 L 78.398438 269.964844 C 78.398438 280.292969 70.027344 288.667969 59.695312 288.667969 C 49.367188 288.667969 40.992188 280.292969 40.992188 269.964844 C 40.992188 259.632812 49.367188 251.257812 59.695312 251.257812 C 70.027344 251.257812 78.398438 259.632812 78.398438 269.964844 Z M -56.949219 95.289062 "/>
</clipPath>
<clipPath id="clip69">
  <path d="M -56.949219 95.289062 L 235.058594 95.289062 L 235.058594 385.144531 L -56.949219 385.144531 Z M -56.949219 95.289062 L 137.125 210.472656 C 137.125 220.800781 128.75 229.175781 118.417969 229.175781 C 108.089844 229.175781 99.714844 220.800781 99.714844 210.472656 C 99.714844 200.140625 108.089844 191.769531 118.417969 191.769531 C 128.75 191.769531 137.125 200.140625 137.125 210.472656 Z M -56.949219 95.289062 "/>
</clipPath>
<clipPath id="clip70">
  <path d="M 65 108 L 249 108 L 249 264 L 65 264 Z M 65 108 "/>
</clipPath>
<clipPath id="clip71">
  <path d="M 29.238281 23.949219 L 284.429688 23.949219 L 284.429688 347.878906 L 29.238281 347.878906 Z M 29.238281 23.949219 L 137.125 210.472656 C 137.125 220.800781 128.75 229.175781 118.417969 229.175781 C 108.089844 229.175781 99.714844 220.800781 99.714844 210.472656 C 99.714844 200.140625 108.089844 191.769531 118.417969 191.769531 C 128.75 191.769531 137.125 200.140625 137.125 210.472656 Z M 29.238281 23.949219 "/>
</clipPath>
<clipPath id="clip72">
  <path d="M 29.238281 23.949219 L 284.429688 23.949219 L 284.429688 347.878906 L 29.238281 347.878906 Z M 29.238281 23.949219 L 213.960938 161.359375 C 213.960938 171.691406 205.585938 180.066406 195.253906 180.066406 C 184.925781 180.066406 176.550781 171.691406 176.550781 161.359375 C 176.550781 151.03125 184.925781 142.65625 195.253906 142.65625 C 205.585938 142.65625 213.960938 151.03125 213.960938 161.359375 Z M 29.238281 23.949219 "/>
</clipPath>
<clipPath id="clip73">
  <path d="M 146 0 L 308 0 L 308 152 L 146 152 Z M 146 0 "/>
</clipPath>
<clipPath id="clip74">
  <path d="M 79.933594 -72.15625 L 373.855469 -72.15625 L 373.855469 210.335938 L 79.933594 210.335938 Z M 79.933594 -72.15625 L 272.890625 39.875 C 272.890625 50.207031 264.519531 58.582031 254.1875 58.582031 C 243.859375 58.582031 235.484375 50.207031 235.484375 39.875 C 235.484375 29.546875 243.859375 21.171875 254.1875 21.171875 C 264.519531 21.171875 272.890625 29.546875 272.890625 39.875 Z M 79.933594 -72.15625 "/>
</clipPath>
<clipPath id="clip75">
  <path d="M 79.933594 -72.15625 L 373.855469 -72.15625 L 373.855469 210.335938 L 79.933594 210.335938 Z M 79.933594 -72.15625 L 218.308594 98.308594 C 218.308594 108.640625 209.933594 117.015625 199.605469 117.015625 C 189.273438 117.015625 180.902344 108.640625 180.902344 98.308594 C 180.902344 87.980469 189.273438 79.605469 199.605469 79.605469 C 209.933594 79.605469 218.308594 87.980469 218.308594 98.308594 Z M 79.933594 -72.15625 "/>
</clipPath>
<clipPath id="clip76">
  <path d="M 142 83.644531 L 253 83.644531 L 253 176.019531 L 142 176.019531 Z M 142 83.644531 "/>
</clipPath>
<clipPath id="clip77">
  <path d="M 33.246094 83.644531 L 361.609375 83.644531 L 361.609375 176.019531 L 33.246094 176.019531 Z M 33.246094 83.644531 L 218.308594 98.308594 C 218.308594 108.640625 209.933594 117.015625 199.605469 117.015625 C 189.273438 117.015625 180.902344 108.640625 180.902344 98.308594 C 180.902344 87.980469 189.273438 79.605469 199.605469 79.605469 C 209.933594 79.605469 218.308594 87.980469 218.308594 98.308594 Z M 33.246094 83.644531 "/>
</clipPath>
<clipPath id="clip78">
  <path d="M 33.246094 83.644531 L 361.609375 83.644531 L 361.609375 176.019531 L 33.246094 176.019531 Z M 33.246094 83.644531 L 213.960938 161.359375 C 213.960938 171.691406 205.585938 180.066406 195.253906 180.066406 C 184.925781 180.066406 176.550781 171.691406 176.550781 161.359375 C 176.550781 151.03125 184.925781 142.65625 195.253906 142.65625 C 205.585938 142.65625 213.960938 151.03125 213.960938 161.359375 Z M 33.246094 83.644531 "/>
</clipPath>
</defs>
<g id="surface31">
<g clip-path="url(#clip1)" clip-rule="nonzero">
<g clip-path="url(#clip2)" clip-rule="evenodd">
<g clip-path="url(#clip3)" clip-rule="evenodd">
<path style="fill:none;stroke-width:0.0235809;stroke-linecap:butt;stroke-linejoin:miter;stroke:rgb(17.96875%,20.3125%,21.09375%);stroke-opacity:0.8;stroke-miterlimit:10;" d="M 2.472821 0.856257 L 2.008622 1.260105 " transform="matrix(158.640164,0,0,158.640164,-14.659849,-11.895411)"/>
</g>
</g>
</g>
<g clip-path="url(#clip4)" clip-rule="nonzero">
<g clip-path="url(#clip5)" clip-rule="evenodd">
<g clip-path="url(#clip6)" clip-rule="evenodd">
<path style="fill:none;stroke-width:0.0235809;stroke-linecap:butt;stroke-linejoin:miter;stroke:rgb(17.96875%,20.3125%,21.09375%);stroke-opacity:0.8;stroke-miterlimit:10;" d="M 1.171232 3.098335 L 1.812226 2.861114 " transform="matrix(158.640164,0,0,158.640164,-14.659849,-11.895411)"/>
</g>
</g>
</g>
<g clip-path="url(#clip7)" clip-rule="nonzero">
<g clip-path="url(#clip8)" clip-rule="evenodd">
<g clip-path="url(#clip9)" clip-rule="evenodd">
<path style="fill:none;stroke-width:0.0235809;stroke-linecap:butt;stroke-linejoin:miter;stroke:rgb(17.96875%,20.3125%,21.09375%);stroke-opacity:0.8;stroke-miterlimit:10;" d="M 2.008622 1.260105 L 1.881984 2.035444 " transform="matrix(158.640164,0,0,158.640164,-14.659849,-11.895411)"/>
</g>
</g>
</g>
<g clip-path="url(#clip10)" clip-rule="nonzero">
<g clip-path="url(#clip11)" clip-rule="evenodd">
<g clip-path="url(#clip12)" clip-rule="evenodd">
<path style="fill:none;stroke-width:0.0235809;stroke-linecap:butt;stroke-linejoin:miter;stroke:rgb(17.96875%,20.3125%,21.09375%);stroke-opacity:0.8;stroke-miterlimit:10;" d="M 2.008622 1.260105 L 1.323207 1.092124 " transform="matrix(158.640164,0,0,158.640164,-14.659849,-11.895411)"/>
</g>
</g>
</g>
<g clip-path="url(#clip13)" clip-rule="nonzero">
<g clip-path="url(#clip14)" clip-rule="evenodd">
<g clip-path="url(#clip15)" clip-rule="evenodd">
<path style="fill:none;stroke-width:0.0235809;stroke-linecap:butt;stroke-linejoin:miter;stroke:rgb(17.96875%,20.3125%,21.09375%);stroke-opacity:0.8;stroke-miterlimit:10;" d="M 1.881984 2.035444 L 1.812226 2.861114 " transform="matrix(158.640164,0,0,158.640164,-14.659849,-11.895411)"/>
</g>
</g>
</g>
<g clip-path="url(#clip16)" clip-rule="nonzero">
<g clip-path="url(#clip17)" clip-rule="evenodd">
<g clip-path="url(#clip18)" clip-rule="evenodd">
<path style="fill:none;stroke-width:0.0235809;stroke-linecap:butt;stroke-linejoin:miter;stroke:rgb(17.96875%,20.3125%,21.09375%);stroke-opacity:0.8;stroke-miterlimit:10;" d="M 1.812226 2.861114 L 1.789671 3.214927 " transform="matrix(158.640164,0,0,158.640164,-14.659849,-11.895411)"/>
</g>
</g>
</g>
<g clip-path="url(#clip19)" clip-rule="nonzero">
<g clip-path="url(#clip20)" clip-rule="evenodd">
<g clip-path="url(#clip21)" clip-rule="evenodd">
<path style="fill:none;stroke-width:0.0235809;stroke-linecap:butt;stroke-linejoin:miter;stroke:rgb(17.96875%,20.3125%,21.09375%);stroke-opacity:0.8;stroke-miterlimit:10;" d="M 1.812226 2.861114 L 2.415523 2.84469 " transform="matrix(158.640164,0,0,158.640164,-14.659849,-11.895411)"/>
</g>
</g>
</g>
<g clip-path="url(#clip22)" clip-rule="nonzero">
<g clip-path="url(#clip23)" clip-rule="evenodd">
<g clip-path="url(#clip24)" clip-rule="evenodd">
<path style="fill:none;stroke-width:0.0235809;stroke-linecap:butt;stroke-linejoin:miter;stroke:rgb(17.96875%,20.3125%,21.09375%);stroke-opacity:0.8;stroke-miterlimit:10;" d="M 1.812226 2.861114 L 2.252689 3.092598 " transform="matrix(158.640164,0,0,158.640164,-14.659849,-11.895411)"/>
</g>
</g>
</g>
<g clip-path="url(#clip25)" clip-rule="nonzero">
<g clip-path="url(#clip26)" clip-rule="evenodd">
<g clip-path="url(#clip27)" clip-rule="evenodd">
<path style="fill:none;stroke-width:0.0235809;stroke-linecap:butt;stroke-linejoin:miter;stroke:rgb(17.96875%,20.3125%,21.09375%);stroke-opacity:0.8;stroke-miterlimit:10;" d="M 1.789671 3.214927 L 2.252689 3.092598 " transform="matrix(158.640164,0,0,158.640164,-14.659849,-11.895411)"/>
</g>
</g>
</g>
<g clip-path="url(#clip28)" clip-rule="nonzero">
<g clip-path="url(#clip29)" clip-rule="evenodd">
<g clip-path="url(#clip30)" clip-rule="evenodd">
<path style="fill:none;stroke-width:0.0235809;stroke-linecap:butt;stroke-linejoin:miter;stroke:rgb(17.96875%,20.3125%,21.09375%);stroke-opacity:0.8;stroke-miterlimit:10;" d="M 2.985553 2.563615 L 2.415523 2.84469 " transform="matrix(158.640164,0,0,158.640164,-14.659849,-11.895411)"/>
</g>
</g>
</g>
<g clip-path="url(#clip31)" clip-rule="nonzero">
<g clip-path="url(#clip32)" clip-rule="evenodd">
<g clip-path="url(#clip33)" clip-rule="evenodd">
<path style="fill:none;stroke-width:0.0235809;stroke-linecap:butt;stroke-linejoin:miter;stroke:rgb(17.96875%,20.3125%,21.09375%);stroke-opacity:0.8;stroke-miterlimit:10;" d="M 2.985553 2.563615 L 2.252689 3.092598 " transform="matrix(158.640164,0,0,158.640164,-14.659849,-11.895411)"/>
</g>
</g>
</g>
<g clip-path="url(#clip34)" clip-rule="nonzero">
<g clip-path="url(#clip35)" clip-rule="evenodd">
<g clip-path="url(#clip36)" clip-rule="evenodd">
<path style="fill:none;stroke-width:0.0235809;stroke-linecap:butt;stroke-linejoin:miter;stroke:rgb(17.96875%,20.3125%,21.09375%);stroke-opacity:0.8;stroke-miterlimit:10;" d="M 2.985553 2.563615 L 3.355297 1.785985 " transform="matrix(158.640164,0,0,158.640164,-14.659849,-11.895411)"/>
</g>
</g>
</g>
<g clip-path="url(#clip37)" clip-rule="nonzero">
<g clip-path="url(#clip38)" clip-rule="evenodd">
<g clip-path="url(#clip39)" clip-rule="evenodd">
<path style="fill:none;stroke-width:0.0235809;stroke-linecap:butt;stroke-linejoin:miter;stroke:rgb(17.96875%,20.3125%,21.09375%);stroke-opacity:0.8;stroke-miterlimit:10;" d="M 2.985553 2.563615 L 3.391863 2.356976 " transform="matrix(158.640164,0,0,158.640164,-14.659849,-11.895411)"/>
</g>
</g>
</g>
<g clip-path="url(#clip40)" clip-rule="nonzero">
<g clip-path="url(#clip41)" clip-rule="evenodd">
<g clip-path="url(#clip42)" clip-rule="evenodd">
<path style="fill:none;stroke-width:0.0235809;stroke-linecap:butt;stroke-linejoin:miter;stroke:rgb(17.96875%,20.3125%,21.09375%);stroke-opacity:0.8;stroke-miterlimit:10;" d="M 2.985553 2.563615 L 3.345448 2.788968 " transform="matrix(158.640164,0,0,158.640164,-14.659849,-11.895411)"/>
</g>
</g>
</g>
<g clip-path="url(#clip43)" clip-rule="nonzero">
<g clip-path="url(#clip44)" clip-rule="evenodd">
<g clip-path="url(#clip45)" clip-rule="evenodd">
<path style="fill:none;stroke-width:0.0235809;stroke-linecap:butt;stroke-linejoin:miter;stroke:rgb(17.96875%,20.3125%,21.09375%);stroke-opacity:0.8;stroke-miterlimit:10;" d="M 2.415523 2.84469 L 2.252689 3.092598 " transform="matrix(158.640164,0,0,158.640164,-14.659849,-11.895411)"/>
</g>
</g>
</g>
<g clip-path="url(#clip46)" clip-rule="nonzero">
<g clip-path="url(#clip47)" clip-rule="evenodd">
<g clip-path="url(#clip48)" clip-rule="evenodd">
<path style="fill:none;stroke-width:0.0235809;stroke-linecap:butt;stroke-linejoin:miter;stroke:rgb(17.96875%,20.3125%,21.09375%);stroke-opacity:0.8;stroke-miterlimit:10;" d="M 2.217453 3.605773 L 2.252689 3.092598 " transform="matrix(158.640164,0,0,158.640164,-14.659849,-11.895411)"/>
</g>
</g>
</g>
<g clip-path="url(#clip49)" clip-rule="nonzero">
<g clip-path="url(#clip50)" clip-rule="evenodd">
<g clip-path="url(#clip51)" clip-rule="evenodd">
<path style="fill:none;stroke-width:0.0235809;stroke-linecap:butt;stroke-linejoin:miter;stroke:rgb(17.96875%,20.3125%,21.09375%);stroke-opacity:0.8;stroke-miterlimit:10;" d="M 3.49826 1.355988 L 3.355297 1.785985 " transform="matrix(158.640164,0,0,158.640164,-14.659849,-11.895411)"/>
</g>
</g>
</g>
<g clip-path="url(#clip52)" clip-rule="nonzero">
<g clip-path="url(#clip53)" clip-rule="evenodd">
<g clip-path="url(#clip54)" clip-rule="evenodd">
<path style="fill:none;stroke-width:0.0235809;stroke-linecap:butt;stroke-linejoin:miter;stroke:rgb(17.96875%,20.3125%,21.09375%);stroke-opacity:0.8;stroke-miterlimit:10;" d="M 0.47907 1.538201 L 0.939723 1.124923 " transform="matrix(158.640164,0,0,158.640164,-14.659849,-11.895411)"/>
</g>
</g>
</g>
<g clip-path="url(#clip55)" clip-rule="nonzero">
<g clip-path="url(#clip56)" clip-rule="evenodd">
<g clip-path="url(#clip57)" clip-rule="evenodd">
<path style="fill:none;stroke-width:0.0235809;stroke-linecap:butt;stroke-linejoin:miter;stroke:rgb(17.96875%,20.3125%,21.09375%);stroke-opacity:0.8;stroke-miterlimit:10;" d="M 0.47907 1.538201 L 0.468703 1.776727 " transform="matrix(158.640164,0,0,158.640164,-14.659849,-11.895411)"/>
</g>
</g>
</g>
<g clip-path="url(#clip58)" clip-rule="nonzero">
<g clip-path="url(#clip59)" clip-rule="evenodd">
<g clip-path="url(#clip60)" clip-rule="evenodd">
<path style="fill:none;stroke-width:0.0235809;stroke-linecap:butt;stroke-linejoin:miter;stroke:rgb(17.96875%,20.3125%,21.09375%);stroke-opacity:0.8;stroke-miterlimit:10;" d="M 0.939723 1.124923 L 0.838866 1.401714 " transform="matrix(158.640164,0,0,158.640164,-14.659849,-11.895411)"/>
</g>
</g>
</g>
<g clip-path="url(#clip61)" clip-rule="nonzero">
<g clip-path="url(#clip62)" clip-rule="evenodd">
<g clip-path="url(#clip63)" clip-rule="evenodd">
<path style="fill:none;stroke-width:0.0235809;stroke-linecap:butt;stroke-linejoin:miter;stroke:rgb(17.96875%,20.3125%,21.09375%);stroke-opacity:0.8;stroke-miterlimit:10;" d="M 0.939723 1.124923 L 1.350637 0.694679 " transform="matrix(158.640164,0,0,158.640164,-14.659849,-11.895411)"/>
</g>
</g>
</g>
<g clip-path="url(#clip64)" clip-rule="nonzero">
<g clip-path="url(#clip65)" clip-rule="evenodd">
<g clip-path="url(#clip66)" clip-rule="evenodd">
<path style="fill:none;stroke-width:0.0235809;stroke-linecap:butt;stroke-linejoin:miter;stroke:rgb(17.96875%,20.3125%,21.09375%);stroke-opacity:0.8;stroke-miterlimit:10;" d="M 0.939723 1.124923 L 1.323207 1.092124 " transform="matrix(158.640164,0,0,158.640164,-14.659849,-11.895411)"/>
</g>
</g>
</g>
<g clip-path="url(#clip67)" clip-rule="nonzero">
<g clip-path="url(#clip68)" clip-rule="evenodd">
<g clip-path="url(#clip69)" clip-rule="evenodd">
<path style="fill:none;stroke-width:0.0235809;stroke-linecap:butt;stroke-linejoin:miter;stroke:rgb(17.96875%,20.3125%,21.09375%);stroke-opacity:0.8;stroke-miterlimit:10;" d="M 0.468703 1.776727 L 0.838866 1.401714 " transform="matrix(158.640164,0,0,158.640164,-14.659849,-11.895411)"/>
</g>
</g>
</g>
<g clip-path="url(#clip70)" clip-rule="nonzero">
<g clip-path="url(#clip71)" clip-rule="evenodd">
<g clip-path="url(#clip72)" clip-rule="evenodd">
<path style="fill:none;stroke-width:0.0235809;stroke-linecap:butt;stroke-linejoin:miter;stroke:rgb(17.96875%,20.3125%,21.09375%);stroke-opacity:0.8;stroke-miterlimit:10;" d="M 0.838866 1.401714 L 1.323207 1.092124 " transform="matrix(158.640164,0,0,158.640164,-14.659849,-11.895411)"/>
</g>
</g>
</g>
<g clip-path="url(#clip73)" clip-rule="nonzero">
<g clip-path="url(#clip74)" clip-rule="evenodd">
<g clip-path="url(#clip75)" clip-rule="evenodd">
<path style="fill:none;stroke-width:0.0235809;stroke-linecap:butt;stroke-linejoin:miter;stroke:rgb(17.96875%,20.3125%,21.09375%);stroke-opacity:0.8;stroke-miterlimit:10;" d="M 1.694699 0.326339 L 1.350637 0.694679 " transform="matrix(158.640164,0,0,158.640164,-14.659849,-11.895411)"/>
</g>
</g>
</g>
<g clip-path="url(#clip76)" clip-rule="nonzero">
<g clip-path="url(#clip77)" clip-rule="evenodd">
<g clip-path="url(#clip78)" clip-rule="evenodd">
<path style="fill:none;stroke-width:0.0235809;stroke-linecap:butt;stroke-linejoin:miter;stroke:rgb(17.96875%,20.3125%,21.09375%);stroke-opacity:0.8;stroke-miterlimit:10;" d="M 1.350637 0.694679 L 1.323207 1.092124 " transform="matrix(158.640164,0,0,158.640164,-14.659849,-11.895411)"/>
</g>
</g>
</g>
<path style="fill-rule:nonzero;fill:rgb(55.294118%,82.745098%,78.039216%);fill-opacity:1;stroke-width:0.0235809;stroke-linecap:butt;stroke-linejoin:miter;stroke:rgb(60%,60%,60%);stroke-opacity:0.8;stroke-miterlimit:10;" d="M 0.117904 0.00000370716 C 0.117904 0.0651078 0.0651113 0.1179 0.00000721983 0.1179 C -0.0651215 0.1179 -0.117914 0.0651078 -0.117914 0.00000370716 C -0.117914 -0.065125 -0.0651215 -0.117893 0.00000721983 -0.117893 C 0.0651113 -0.117893 0.117904 -0.065125 0.117904 0.00000370716 Z M 0.117904 0.00000370716 " transform="matrix(158.640164,0,0,158.640164,377.627761,123.940818)"/>
<path style="fill-rule:nonzero;fill:rgb(100%,92.941176%,43.529412%);fill-opacity:1;stroke-width:0.0235809;stroke-linecap:butt;stroke-linejoin:miter;stroke:rgb(60%,60%,60%);stroke-opacity:0.8;stroke-miterlimit:10;" d="M 0.1179 0.00000356666 C 0.1179 0.0651077 0.0651074 0.1179 0.00000329376 0.1179 C -0.0651254 0.1179 -0.117893 0.0651077 -0.117893 0.00000356666 C -0.117893 -0.0651252 -0.0651254 -0.117893 0.00000329376 -0.117893 C 0.0651074 -0.117893 0.1179 -0.0651252 0.1179 0.00000356666 Z M 0.1179 0.00000356666 " transform="matrix(158.640164,0,0,158.640164,171.144009,479.624434)"/>
<path style="fill-rule:nonzero;fill:rgb(100%,92.941176%,43.529412%);fill-opacity:1;stroke-width:0.0235809;stroke-linecap:butt;stroke-linejoin:miter;stroke:rgb(60%,60%,60%);stroke-opacity:0.8;stroke-miterlimit:10;" d="M 0.117892 0.00000855508 C 0.117892 0.0651127 0.0651246 0.117905 -0.00000408519 0.117905 C -0.0651082 0.117905 -0.117901 0.0651127 -0.117901 0.00000855508 C -0.117901 -0.0651202 -0.0651082 -0.117913 -0.00000408519 -0.117913 C 0.0651246 -0.117913 0.117892 -0.0651202 0.117892 0.00000855508 Z M 0.117892 0.00000855508 " transform="matrix(158.640164,0,0,158.640164,303.988929,188.006455)"/>
<path style="fill-rule:nonzero;fill:rgb(100%,92.941176%,43.529412%);fill-opacity:1;stroke-width:0.0235809;stroke-linecap:butt;stroke-linejoin:miter;stroke:rgb(60%,60%,60%);stroke-opacity:0.8;stroke-miterlimit:10;" d="M 0.117897 -0.00000401013 C 0.117897 0.0651247 0.0651048 0.117893 0.000000678339 0.117893 C -0.065128 0.117893 -0.117896 0.0651247 -0.117896 -0.00000401013 C -0.117896 -0.0651081 -0.065128 -0.117901 0.000000678339 -0.117901 C 0.0651048 -0.117901 0.117897 -0.0651081 0.117897 -0.00000401013 Z M 0.117897 -0.00000401013 " transform="matrix(158.640164,0,0,158.640164,283.89833,311.008449)"/>
<path style="fill-rule:nonzero;fill:rgb(100%,92.941176%,43.529412%);fill-opacity:1;stroke-width:0.0235809;stroke-linecap:butt;stroke-linejoin:miter;stroke:rgb(60%,60%,60%);stroke-opacity:0.8;stroke-miterlimit:10;" d="M 0.117915 0.00000949298 C 0.117915 0.0651136 0.0651224 0.117906 -0.00000637049 0.117906 C -0.0651105 0.117906 -0.117903 0.0651136 -0.117903 0.00000949298 C -0.117903 -0.0651192 -0.0651105 -0.117912 -0.00000637049 -0.117912 C 0.0651224 -0.117912 0.117915 -0.0651192 0.117915 0.00000949298 Z M 0.117915 0.00000949298 " transform="matrix(158.640164,0,0,158.640164,272.833042,441.990682)"/>
<path style="fill-rule:nonzero;fill:rgb(100%,92.941176%,43.529412%);fill-opacity:1;stroke-width:0.0235809;stroke-linecap:butt;stroke-linejoin:miter;stroke:rgb(60%,60%,60%);stroke-opacity:0.8;stroke-miterlimit:10;" d="M 0.117899 -0.00000882474 C 0.117899 0.0651199 0.0651065 0.117912 0.00000235137 0.117912 C -0.0651264 0.117912 -0.117894 0.0651199 -0.117894 -0.00000882474 C -0.117894 -0.0651129 -0.0651264 -0.117905 0.00000235137 -0.117905 C 0.0651065 -0.117905 0.117899 -0.0651129 0.117899 -0.00000882474 Z M 0.117899 -0.00000882474 " transform="matrix(158.640164,0,0,158.640164,269.253533,498.122494)"/>
<path style="fill-rule:nonzero;fill:rgb(100%,92.941176%,43.529412%);fill-opacity:1;stroke-width:0.0235809;stroke-linecap:butt;stroke-linejoin:miter;stroke:rgb(60%,60%,60%);stroke-opacity:0.8;stroke-miterlimit:10;" d="M 0.11791 -0.00000517853 C 0.11791 0.0651235 0.065118 0.117916 -0.0000106871 0.117916 C -0.0651148 0.117916 -0.117907 0.0651235 -0.117907 -0.00000517853 C -0.117907 -0.0651093 -0.0651148 -0.117902 -0.0000106871 -0.117902 C 0.065118 -0.117902 0.11791 -0.0651093 0.11791 -0.00000517853 Z M 0.11791 -0.00000517853 " transform="matrix(158.640164,0,0,158.640164,458.970445,394.797697)"/>
<path style="fill-rule:nonzero;fill:rgb(100%,92.941176%,43.529412%);fill-opacity:1;stroke-width:0.0235809;stroke-linecap:butt;stroke-linejoin:miter;stroke:rgb(60%,60%,60%);stroke-opacity:0.8;stroke-miterlimit:10;" d="M 0.117895 -0.0000116469 C 0.117895 0.0651171 0.0651269 0.11791 -0.00000185901 0.11791 C -0.065106 0.11791 -0.117898 0.0651171 -0.117898 -0.0000116469 C -0.117898 -0.0651157 -0.065106 -0.117908 -0.00000185901 -0.117908 C 0.0651269 -0.117908 0.117895 -0.0651157 0.117895 -0.0000116469 Z M 0.117895 -0.0000116469 " transform="matrix(158.640164,0,0,158.640164,368.539357,439.388566)"/>
<path style="fill-rule:nonzero;fill:rgb(100%,92.941176%,43.529412%);fill-opacity:1;stroke-width:0.0235809;stroke-linecap:butt;stroke-linejoin:miter;stroke:rgb(60%,60%,60%);stroke-opacity:0.8;stroke-miterlimit:10;" d="M 0.117903 0.0000115953 C 0.117903 0.0651157 0.0651109 0.117908 0.00000680143 0.117908 C -0.0651219 0.117908 -0.117914 0.0651157 -0.117914 0.0000115953 C -0.117914 -0.0651171 -0.0651219 -0.11791 0.00000680143 -0.11791 C 0.0651109 -0.11791 0.117903 -0.0651171 0.117903 0.0000115953 Z M 0.117903 0.0000115953 " transform="matrix(158.640164,0,0,158.640164,337.116109,560.123161)"/>
<path style="fill-rule:nonzero;fill:rgb(100%,92.941176%,43.529412%);fill-opacity:1;stroke-width:0.0235809;stroke-linecap:butt;stroke-linejoin:miter;stroke:rgb(60%,60%,60%);stroke-opacity:0.8;stroke-miterlimit:10;" d="M 0.11791 0.0000108687 C 0.11791 0.065115 0.065118 0.117907 -0.0000106974 0.117907 C -0.0651148 0.117907 -0.117907 0.065115 -0.117907 0.0000108687 C -0.117907 -0.0651179 -0.0651148 -0.11791 -0.0000106974 -0.11791 C 0.065118 -0.11791 0.11791 -0.0651179 0.11791 0.0000108687 Z M 0.11791 0.0000108687 " transform="matrix(158.640164,0,0,158.640164,342.708728,478.71312)"/>
<path style="fill-rule:nonzero;fill:rgb(100%,92.941176%,43.529412%);fill-opacity:1;stroke-width:0.0235809;stroke-linecap:butt;stroke-linejoin:miter;stroke:rgb(60%,60%,60%);stroke-opacity:0.8;stroke-miterlimit:10;" d="M 0.117899 0.0000102764 C 0.117899 0.0651144 0.065107 0.117907 0.00000289289 0.117907 C -0.0651258 0.117907 -0.117894 0.0651144 -0.117894 0.0000102764 C -0.117894 -0.0651184 -0.0651258 -0.117911 0.00000289289 -0.117911 C 0.065107 -0.117911 0.117899 -0.0651184 0.117899 0.0000102764 Z M 0.117899 0.0000102764 " transform="matrix(158.640164,0,0,158.640164,540.304229,203.21712)"/>
<path style="fill-rule:nonzero;fill:rgb(100%,92.941176%,43.529412%);fill-opacity:1;stroke-width:0.0235809;stroke-linecap:butt;stroke-linejoin:miter;stroke:rgb(60%,60%,60%);stroke-opacity:0.8;stroke-miterlimit:10;" d="M 0.117893 0.0000122191 C 0.117893 0.0651163 0.0651253 0.117909 -0.00000345555 0.117909 C -0.0651076 0.117909 -0.1179 0.0651163 -0.1179 0.0000122191 C -0.1179 -0.0651165 -0.0651076 -0.117909 -0.00000345555 -0.117909 C 0.0651253 -0.117909 0.117893 -0.0651165 0.117893 0.0000122191 Z M 0.117893 0.0000122191 " transform="matrix(158.640164,0,0,158.640164,517.625548,271.431655)"/>
<path style="fill-rule:nonzero;fill:rgb(100%,92.941176%,43.529412%);fill-opacity:1;stroke-width:0.0235809;stroke-linecap:butt;stroke-linejoin:miter;stroke:rgb(60%,60%,60%);stroke-opacity:0.8;stroke-miterlimit:10;" d="M 0.117915 0.0000033914 C 0.117915 0.0651075 0.0651227 0.1179 -0.00000597984 0.1179 C -0.0651101 0.1179 -0.117903 0.0651075 -0.117903 0.0000033914 C -0.117903 -0.0651253 -0.0651101 -0.117893 -0.00000597984 -0.117893 C 0.0651227 -0.117893 0.117915 -0.0651253 0.117915 0.0000033914 Z M 0.117915 0.0000033914 " transform="matrix(158.640164,0,0,158.640164,523.42673,362.015087)"/>
<path style="fill-rule:nonzero;fill:rgb(100%,92.941176%,43.529412%);fill-opacity:1;stroke-width:0.0235809;stroke-linecap:butt;stroke-linejoin:miter;stroke:rgb(60%,60%,60%);stroke-opacity:0.8;stroke-miterlimit:10;" d="M 0.117903 -0.000004085 C 0.117903 0.0651246 0.0651108 0.117892 0.0000067206 0.117892 C -0.065122 0.117892 -0.117914 0.0651246 -0.117914 -0.000004085 C -0.117914 -0.0651082 -0.065122 -0.117901 0.0000067206 -0.117901 C 0.0651108 -0.117901 0.117903 -0.0651082 0.117903 -0.000004085 Z M 0.117903 -0.000004085 " transform="matrix(158.640164,0,0,158.640164,516.061434,430.547523)"/>
<path style="fill-rule:nonzero;fill:rgb(100%,92.941176%,43.529412%);fill-opacity:1;stroke-width:0.0235809;stroke-linecap:butt;stroke-linejoin:miter;stroke:rgb(60%,60%,60%);stroke-opacity:0.8;stroke-miterlimit:10;" d="M 0.117893 -0.00000289156 C 0.117893 0.0651258 0.0651254 0.117894 -0.00000336675 0.117894 C -0.0651075 0.117894 -0.1179 0.0651258 -0.1179 -0.00000289156 C -0.1179 -0.065107 -0.0651075 -0.117899 -0.00000336675 -0.117899 C 0.0651254 -0.117899 0.117893 -0.065107 0.117893 -0.00000289156 Z M 0.117893 -0.00000289156 " transform="matrix(158.640164,0,0,158.640164,61.340378,232.125459)"/>
<path style="fill-rule:nonzero;fill:rgb(100%,92.941176%,43.529412%);fill-opacity:1;stroke-width:0.0235809;stroke-linecap:butt;stroke-linejoin:miter;stroke:rgb(60%,60%,60%);stroke-opacity:0.8;stroke-miterlimit:10;" d="M 0.117897 -0.00000361802 C 0.117897 0.0651251 0.0651046 0.117893 0.000000535929 0.117893 C -0.0651282 0.117893 -0.117896 0.0651251 -0.117896 -0.00000361802 C -0.117896 -0.0651077 -0.0651282 -0.1179 0.000000535929 -0.1179 C 0.0651046 -0.1179 0.117897 -0.0651077 0.117897 -0.00000361802 Z M 0.117897 -0.00000361802 " transform="matrix(158.640164,0,0,158.640164,134.417884,166.563074)"/>
<path style="fill-rule:nonzero;fill:rgb(100%,92.941176%,43.529412%);fill-opacity:1;stroke-width:0.0235809;stroke-linecap:butt;stroke-linejoin:miter;stroke:rgb(60%,60%,60%);stroke-opacity:0.8;stroke-miterlimit:10;" d="M 0.117894 0.00000718676 C 0.117894 0.0651113 0.0651258 0.117904 -0.00000289289 0.117904 C -0.065107 0.117904 -0.117899 0.0651113 -0.117899 0.00000718676 C -0.117899 -0.0651215 -0.065107 -0.117914 -0.00000289289 -0.117914 C 0.0651258 -0.117914 0.117894 -0.0651215 0.117894 0.00000718676 Z M 0.117894 0.00000718676 " transform="matrix(158.640164,0,0,158.640164,59.695771,269.963704)"/>
<path style="fill-rule:nonzero;fill:rgb(100%,92.941176%,43.529412%);fill-opacity:1;stroke-width:0.0235809;stroke-linecap:butt;stroke-linejoin:miter;stroke:rgb(60%,60%,60%);stroke-opacity:0.8;stroke-miterlimit:10;" d="M 0.117912 0.00000169713 C 0.117912 0.0651058 0.0651191 0.117898 -0.00000964521 0.117898 C -0.0651137 0.117898 -0.117906 0.0651058 -0.117906 0.00000169713 C -0.117906 -0.065127 -0.0651137 -0.117895 -0.00000964521 -0.117895 C 0.0651191 -0.117895 0.117912 -0.065127 0.117912 0.00000169713 Z M 0.117912 0.00000169713 " transform="matrix(158.640164,0,0,158.640164,118.419499,210.472387)"/>
<path style="fill-rule:nonzero;fill:rgb(100%,92.941176%,43.529412%);fill-opacity:1;stroke-width:0.0235809;stroke-linecap:butt;stroke-linejoin:miter;stroke:rgb(60%,60%,60%);stroke-opacity:0.8;stroke-miterlimit:10;" d="M 0.117895 -0.0000115953 C 0.117895 0.0651171 0.0651268 0.11791 -0.00000192716 0.11791 C -0.065106 0.11791 -0.117898 0.0651171 -0.117898 -0.0000115953 C -0.117898 -0.0651157 -0.065106 -0.117908 -0.00000192716 -0.117908 C 0.0651268 -0.117908 0.117895 -0.0651157 0.117895 -0.0000115953 Z M 0.117895 -0.0000115953 " transform="matrix(158.640164,0,0,158.640164,254.187806,39.876839)"/>
<path style="fill-rule:nonzero;fill:rgb(100%,92.941176%,43.529412%);fill-opacity:1;stroke-width:0.0235809;stroke-linecap:butt;stroke-linejoin:miter;stroke:rgb(60%,60%,60%);stroke-opacity:0.8;stroke-miterlimit:10;" d="M 0.117899 -0.00000497472 C 0.117899 0.0651237 0.0651062 0.117916 0.00000211745 0.117916 C -0.0651266 0.117916 -0.117894 0.0651237 -0.117894 -0.00000497472 C -0.117894 -0.0651091 -0.0651266 -0.117902 0.00000211745 -0.117902 C 0.0651062 -0.117902 0.117899 -0.0651091 0.117899 -0.00000497472 Z M 0.117899 -0.00000497472 " transform="matrix(158.640164,0,0,158.640164,199.605133,98.309383)"/>
<path style="fill-rule:nonzero;fill:rgb(100%,92.941176%,43.529412%);fill-opacity:1;stroke-width:0.0235809;stroke-linecap:butt;stroke-linejoin:miter;stroke:rgb(60%,60%,60%);stroke-opacity:0.8;stroke-miterlimit:10;" d="M 0.117917 -0.0000122713 C 0.117917 0.0651165 0.0651243 0.117909 -0.000004429 0.117909 C -0.0651085 0.117909 -0.117901 0.0651165 -0.117901 -0.0000122713 C -0.117901 -0.0651164 -0.0651085 -0.117909 -0.000004429 -0.117909 C 0.0651243 -0.117909 0.117917 -0.0651164 0.117917 -0.0000122713 Z M 0.117917 -0.0000122713 " transform="matrix(158.640164,0,0,158.640164,195.254609,161.361322)"/>
</g>
</svg>
