<?xml version="1.0" encoding="UTF-8"?>
<svg xmlns="http://www.w3.org/2000/svg" xmlns:xlink="http://www.w3.org/1999/xlink" width="600pt" height="600pt" viewBox="0 0 600 600" version="1.1">
<defs>
<clipPath id="clip1">
  <path d="M 498 313.496094 L 600 313.496094 L 600 407.132812 L 498 407.132812 Z M 498 313.496094 "/>
</clipPath>
<clipPath id="clip2">
  <path d="M 379.03125 313.496094 L 733.53125 313.496094 L 733.53125 407.132812 L 379.03125 407.132812 Z M 379.03125 313.496094 L 573.378906 386.394531 C 573.378906 397.253906 564.574219 406.058594 553.714844 406.058594 C 542.855469 406.058594 534.050781 397.253906 534.050781 386.394531 C 534.050781 375.535156 542.855469 366.730469 553.714844 366.730469 C 564.574219 366.730469 573.378906 375.535156 573.378906 386.394531 Z M 379.03125 313.496094 "/>
</clipPath>
<clipPath id="clip3">
  <path d="M 379.03125 313.496094 L 733.53125 313.496094 L 733.53125 407.132812 L 379.03125 407.132812 Z M 379.03125 313.496094 L 578.511719 334.234375 C 578.511719 345.09375 569.707031 353.898438 558.847656 353.898438 C 547.988281 353.898438 539.183594 345.09375 539.183594 334.234375 C 539.183594 323.375 547.988281 314.570312 558.847656 314.570312 C 569.707031 314.570312 578.511719 323.375 578.511719 334.234375 Z M 379.03125 313.496094 "/>
</clipPath>
<clipPath id="clip4">
  <path d="M 487 358.929688 L 600 358.929688 L 600 487.210938 L 487 487.210938 Z M 487 358.929688 "/>
</clipPath>
<clipPath id="clip5">
  <path d="M 369.671875 358.929688 L 727.601562 358.929688 L 727.601562 487.210938 L 369.671875 487.210938 Z M 369.671875 358.929688 L 573.378906 386.394531 C 573.378906 397.253906 564.574219 406.058594 553.714844 406.058594 C 542.855469 406.058594 534.050781 397.253906 534.050781 386.394531 C 534.050781 375.535156 542.855469 366.730469 553.714844 366.730469 C 564.574219 366.730469 573.378906 375.535156 573.378906 386.394531 Z M 369.671875 358.929688 "/>
</clipPath>
<clipPath id="clip6">
  <path d="M 369.671875 358.929688 L 727.601562 358.929688 L 727.601562 487.210938 L 369.671875 487.210938 Z M 369.671875 358.929688 L 563.222656 459.746094 C 563.222656 470.605469 554.421875 479.410156 543.558594 479.410156 C 532.699219 479.410156 523.894531 470.605469 523.894531 459.746094 C 523.894531 448.886719 532.699219 440.082031 543.558594 440.082031 C 554.421875 440.082031 563.222656 448.886719 563.222656 459.746094 Z M 369.671875 358.929688 "/>
</clipPath>
<clipPath id="clip7">
  <path d="M 448 302 L 600 302 L 600 443 L 448 443 Z M 448 302 "/>
</clipPath>
<clipPath id="clip8">
  <path d="M 415.746094 204.847656 L 641.777344 204.847656 L 641.777344 539.863281 L 415.746094 539.863281 Z M 415.746094 204.847656 L 573.378906 386.394531 C 573.378906 397.253906 564.574219 406.058594 553.714844 406.058594 C 542.855469 406.058594 534.050781 397.253906 534.050781 386.394531 C 534.050781 375.535156 542.855469 366.730469 553.714844 366.730469 C 564.574219 366.730469 573.378906 375.535156 573.378906 386.394531 Z M 415.746094 204.847656 "/>
</clipPath>
<clipPath id="clip9">
  <path d="M 415.746094 204.847656 L 641.777344 204.847656 L 641.777344 539.863281 L 415.746094 539.863281 Z M 415.746094 204.847656 L 523.472656 358.316406 C 523.472656 369.175781 514.667969 377.980469 503.808594 377.980469 C 492.949219 377.980469 484.144531 369.175781 484.144531 358.316406 C 484.144531 347.453125 492.949219 338.648438 503.808594 338.648438 C 514.667969 338.648438 523.472656 347.453125 523.472656 358.316406 Z M 415.746094 204.847656 "/>
</clipPath>
<clipPath id="clip10">
  <path d="M 448 278 L 600 278 L 600 414 L 448 414 Z M 448 278 "/>
</clipPath>
<clipPath id="clip11">
  <path d="M 431.097656 173.113281 L 631.558594 173.113281 L 631.558594 519.4375 L 431.097656 519.4375 Z M 431.097656 173.113281 L 578.511719 334.234375 C 578.511719 345.09375 569.707031 353.898438 558.847656 353.898438 C 547.988281 353.898438 539.183594 345.09375 539.183594 334.234375 C 539.183594 323.375 547.988281 314.570312 558.847656 314.570312 C 569.707031 314.570312 578.511719 323.375 578.511719 334.234375 Z M 431.097656 173.113281 "/>
</clipPath>
<clipPath id="clip12">
  <path d="M 431.097656 173.113281 L 631.558594 173.113281 L 631.558594 519.4375 L 431.097656 519.4375 Z M 431.097656 173.113281 L 523.472656 358.316406 C 523.472656 369.175781 514.667969 377.980469 503.808594 377.980469 C 492.949219 377.980469 484.144531 369.175781 484.144531 358.316406 C 484.144531 347.453125 492.949219 338.648438 503.808594 338.648438 C 514.667969 338.648438 523.472656 347.453125 523.472656 358.316406 Z M 431.097656 173.113281 "/>
</clipPath>
<clipPath id="clip13">
  <path d="M 450 391 L 600 391 L 600 516 L 450 516 Z M 450 391 "/>
</clipPath>
<clipPath id="clip14">
  <path d="M 448.644531 280.378906 L 600.710938 280.378906 L 600.710938 626.792969 L 448.644531 626.792969 Z M 448.644531 280.378906 L 563.222656 459.746094 C 563.222656 470.605469 554.421875 479.410156 543.558594 479.410156 C 532.699219 479.410156 523.894531 470.605469 523.894531 459.746094 C 523.894531 448.886719 532.699219 440.082031 543.558594 440.082031 C 554.421875 440.082031 563.222656 448.886719 563.222656 459.746094 Z M 448.644531 280.378906 "/>
</clipPath>
<clipPath id="clip15">
  <path d="M 448.644531 280.378906 L 600.710938 280.378906 L 600.710938 626.792969 L 448.644531 626.792969 Z M 448.644531 280.378906 L 525.460938 447.425781 C 525.460938 458.289062 516.65625 467.089844 505.796875 467.089844 C 494.933594 467.089844 486.132812 458.289062 486.132812 447.425781 C 486.132812 436.566406 494.933594 427.761719 505.796875 427.761719 C 516.65625 427.761719 525.460938 436.566406 525.460938 447.425781 Z M 448.644531 280.378906 "/>
</clipPath>
<clipPath id="clip16">
  <path d="M 232 197 L 465 197 L 465 349 L 232 349 Z M 232 197 "/>
</clipPath>
<clipPath id="clip17">
  <path d="M 230.371094 86.070312 L 466.542969 86.070312 L 466.542969 459.480469 L 230.371094 459.480469 Z M 230.371094 86.070312 L 428.15625 292.730469 C 428.15625 303.589844 419.351562 312.394531 408.492188 312.394531 C 397.632812 312.394531 388.828125 303.589844 388.828125 292.730469 C 388.828125 281.867188 397.632812 273.0625 408.492188 273.0625 C 419.351562 273.0625 428.15625 281.867188 428.15625 292.730469 Z M 230.371094 86.070312 "/>
</clipPath>
<clipPath id="clip18">
  <path d="M 230.371094 86.070312 L 466.542969 86.070312 L 466.542969 459.480469 L 230.371094 459.480469 Z M 230.371094 86.070312 L 308.085938 252.820312 C 308.085938 263.679688 299.285156 272.484375 288.421875 272.484375 C 277.5625 272.484375 268.757812 263.679688 268.757812 252.820312 C 268.757812 241.957031 277.5625 233.15625 288.421875 233.15625 C 299.285156 233.15625 308.085938 241.957031 308.085938 252.820312 Z M 230.371094 86.070312 "/>
</clipPath>
<clipPath id="clip19">
  <path d="M 352 237 L 560 237 L 560 414 L 352 414 Z M 352 237 "/>
</clipPath>
<clipPath id="clip20">
  <path d="M 307.300781 147.449219 L 605 147.449219 L 605 503.597656 L 307.300781 503.597656 Z M 307.300781 147.449219 L 428.15625 292.730469 C 428.15625 303.589844 419.351562 312.394531 408.492188 312.394531 C 397.632812 312.394531 388.828125 303.589844 388.828125 292.730469 C 388.828125 281.867188 397.632812 273.0625 408.492188 273.0625 C 419.351562 273.0625 428.15625 281.867188 428.15625 292.730469 Z M 307.300781 147.449219 "/>
</clipPath>
<clipPath id="clip21">
  <path d="M 307.300781 147.449219 L 605 147.449219 L 605 503.597656 L 307.300781 503.597656 Z M 307.300781 147.449219 L 523.472656 358.316406 C 523.472656 369.175781 514.667969 377.980469 503.808594 377.980469 C 492.949219 377.980469 484.144531 369.175781 484.144531 358.316406 C 484.144531 347.453125 492.949219 338.648438 503.808594 338.648438 C 514.667969 338.648438 523.472656 347.453125 523.472656 358.316406 Z M 307.300781 147.449219 "/>
</clipPath>
<clipPath id="clip22">
  <path d="M 194 197 L 345 197 L 345 416 L 194 416 Z M 194 197 "/>
</clipPath>
<clipPath id="clip23">
  <path d="M 84.753906 191.382812 L 454.007812 191.382812 L 454.007812 421.316406 L 84.753906 421.316406 Z M 84.753906 191.382812 L 308.085938 252.820312 C 308.085938 263.679688 299.285156 272.484375 288.421875 272.484375 C 277.5625 272.484375 268.757812 263.679688 268.757812 252.820312 C 268.757812 241.957031 277.5625 233.15625 288.421875 233.15625 C 299.285156 233.15625 308.085938 241.957031 308.085938 252.820312 Z M 84.753906 191.382812 "/>
</clipPath>
<clipPath id="clip24">
  <path d="M 84.753906 191.382812 L 454.007812 191.382812 L 454.007812 421.316406 L 84.753906 421.316406 Z M 84.753906 191.382812 L 270.003906 359.878906 C 270.003906 370.738281 261.199219 379.542969 250.339844 379.542969 C 239.480469 379.542969 230.675781 370.738281 230.675781 359.878906 C 230.675781 349.019531 239.480469 340.214844 250.339844 340.214844 C 261.199219 340.214844 270.003906 349.019531 270.003906 359.878906 Z M 84.753906 191.382812 "/>
</clipPath>
<clipPath id="clip25">
  <path d="M 232 127.941406 L 358 127.941406 L 358 281.074219 L 232 281.074219 Z M 232 127.941406 "/>
</clipPath>
<clipPath id="clip26">
  <path d="M 114.644531 127.941406 L 476.035156 127.941406 L 476.035156 281.074219 L 114.644531 281.074219 Z M 114.644531 127.941406 L 308.085938 252.820312 C 308.085938 263.679688 299.285156 272.484375 288.421875 272.484375 C 277.5625 272.484375 268.757812 263.679688 268.757812 252.820312 C 268.757812 241.957031 277.5625 233.15625 288.421875 233.15625 C 299.285156 233.15625 308.085938 241.957031 308.085938 252.820312 Z M 114.644531 127.941406 "/>
</clipPath>
<clipPath id="clip27">
  <path d="M 114.644531 127.941406 L 476.035156 127.941406 L 476.035156 281.074219 L 114.644531 281.074219 Z M 114.644531 127.941406 L 321.921875 156.195312 C 321.921875 167.054688 313.117188 175.859375 302.257812 175.859375 C 291.398438 175.859375 282.59375 167.054688 282.59375 156.195312 C 282.59375 145.332031 291.398438 136.53125 302.257812 136.53125 C 313.117188 136.53125 321.921875 145.332031 321.921875 156.195312 Z M 114.644531 127.941406 "/>
</clipPath>
<clipPath id="clip28">
  <path d="M 147 159 L 345 159 L 345 309 L 147 309 Z M 147 159 "/>
</clipPath>
<clipPath id="clip29">
  <path d="M 128.957031 53.957031 L 362.097656 53.957031 L 362.097656 413.515625 L 128.957031 413.515625 Z M 128.957031 53.957031 L 308.085938 252.820312 C 308.085938 263.679688 299.285156 272.484375 288.421875 272.484375 C 277.5625 272.484375 268.757812 263.679688 268.757812 252.820312 C 268.757812 241.957031 277.5625 233.15625 288.421875 233.15625 C 299.285156 233.15625 308.085938 241.957031 308.085938 252.820312 Z M 128.957031 53.957031 "/>
</clipPath>
<clipPath id="clip30">
  <path d="M 128.957031 53.957031 L 362.097656 53.957031 L 362.097656 413.515625 L 128.957031 413.515625 Z M 128.957031 53.957031 L 222.300781 214.652344 C 222.300781 225.515625 213.496094 234.316406 202.632812 234.316406 C 191.773438 234.316406 182.96875 225.515625 182.96875 214.652344 C 182.96875 203.792969 191.773438 194.988281 202.632812 194.988281 C 213.496094 194.988281 222.300781 203.792969 222.300781 214.652344 Z M 128.957031 53.957031 "/>
</clipPath>
<clipPath id="clip31">
  <path d="M 448 350.554688 L 562 350.554688 L 562 455.1875 L 448 455.1875 Z M 448 350.554688 "/>
</clipPath>
<clipPath id="clip32">
  <path d="M 328.339844 350.554688 L 681.265625 350.554688 L 681.265625 455.1875 L 328.339844 455.1875 Z M 328.339844 350.554688 L 525.460938 447.425781 C 525.460938 458.289062 516.65625 467.089844 505.796875 467.089844 C 494.933594 467.089844 486.132812 458.289062 486.132812 447.425781 C 486.132812 436.566406 494.933594 427.761719 505.796875 427.761719 C 516.65625 427.761719 525.460938 436.566406 525.460938 447.425781 Z M 328.339844 350.554688 "/>
</clipPath>
<clipPath id="clip33">
  <path d="M 328.339844 350.554688 L 681.265625 350.554688 L 681.265625 455.1875 L 328.339844 455.1875 Z M 328.339844 350.554688 L 523.472656 358.316406 C 523.472656 369.175781 514.667969 377.980469 503.808594 377.980469 C 492.949219 377.980469 484.144531 369.175781 484.144531 358.316406 C 484.144531 347.453125 492.949219 338.648438 503.808594 338.648438 C 514.667969 338.648438 523.472656 347.453125 523.472656 358.316406 Z M 328.339844 350.554688 "/>
</clipPath>
<clipPath id="clip34">
  <path d="M 166 312.480469 L 306 312.480469 L 306 514.007812 L 166 514.007812 Z M 166 312.480469 "/>
</clipPath>
<clipPath id="clip35">
  <path d="M 52.476562 312.480469 L 420.253906 312.480469 L 420.253906 514.007812 L 52.476562 514.007812 Z M 52.476562 312.480469 L 242.054688 466.609375 C 242.054688 477.46875 233.25 486.273438 222.390625 486.273438 C 211.53125 486.273438 202.726562 477.46875 202.726562 466.609375 C 202.726562 455.75 211.53125 446.945312 222.390625 446.945312 C 233.25 446.945312 242.054688 455.75 242.054688 466.609375 Z M 52.476562 312.480469 "/>
</clipPath>
<clipPath id="clip36">
  <path d="M 52.476562 312.480469 L 420.253906 312.480469 L 420.253906 514.007812 L 52.476562 514.007812 Z M 52.476562 312.480469 L 270.003906 359.878906 C 270.003906 370.738281 261.199219 379.542969 250.339844 379.542969 C 239.480469 379.542969 230.675781 370.738281 230.675781 359.878906 C 230.675781 349.019531 239.480469 340.214844 250.339844 340.214844 C 261.199219 340.214844 270.003906 349.019531 270.003906 359.878906 Z M 52.476562 312.480469 "/>
</clipPath>
<clipPath id="clip37">
  <path d="M 166 421.511719 L 298 421.511719 L 298 590.042969 L 166 590.042969 Z M 166 421.511719 "/>
</clipPath>
<clipPath id="clip38">
  <path d="M 51.890625 421.511719 L 412.25 421.511719 L 412.25 590.042969 L 51.890625 590.042969 Z M 51.890625 421.511719 L 242.054688 466.609375 C 242.054688 477.46875 233.25 486.273438 222.390625 486.273438 C 211.53125 486.273438 202.726562 477.46875 202.726562 466.609375 C 202.726562 455.75 211.53125 446.945312 222.390625 446.945312 C 233.25 446.945312 242.054688 455.75 242.054688 466.609375 Z M 51.890625 421.511719 "/>
</clipPath>
<clipPath id="clip39">
  <path d="M 51.890625 421.511719 L 412.25 421.511719 L 412.25 590.042969 L 51.890625 590.042969 Z M 51.890625 421.511719 L 261.414062 544.945312 C 261.414062 555.804688 252.609375 564.609375 241.75 564.609375 C 230.890625 564.609375 222.085938 555.804688 222.085938 544.945312 C 222.085938 534.085938 230.890625 525.28125 241.75 525.28125 C 252.609375 525.28125 261.414062 534.085938 261.414062 544.945312 Z M 51.890625 421.511719 "/>
</clipPath>
<clipPath id="clip40">
  <path d="M 111.074219 410 L 260.433594 410 L 260.433594 538 L 111.074219 538 Z M 111.074219 410 "/>
</clipPath>
<clipPath id="clip41">
  <path d="M 111.074219 294.523438 L 260.433594 294.523438 L 260.433594 653.558594 L 111.074219 653.558594 Z M 111.074219 294.523438 L 242.054688 466.609375 C 242.054688 477.46875 233.25 486.273438 222.390625 486.273438 C 211.53125 486.273438 202.726562 477.46875 202.726562 466.609375 C 202.726562 455.75 211.53125 446.945312 222.390625 446.945312 C 233.25 446.945312 242.054688 455.75 242.054688 466.609375 Z M 111.074219 294.523438 "/>
</clipPath>
<clipPath id="clip42">
  <path d="M 111.074219 294.523438 L 260.433594 294.523438 L 260.433594 653.558594 L 111.074219 653.558594 Z M 111.074219 294.523438 L 168.78125 481.472656 C 168.78125 492.332031 159.976562 501.136719 149.117188 501.136719 C 138.257812 501.136719 129.453125 492.332031 129.453125 481.472656 C 129.453125 470.609375 138.257812 461.804688 149.117188 461.804688 C 159.976562 461.804688 168.78125 470.609375 168.78125 481.472656 Z M 111.074219 294.523438 "/>
</clipPath>
<clipPath id="clip43">
  <path d="M 171.070312 489 L 264.039062 489 L 264.039062 600 L 171.070312 600 Z M 171.070312 489 "/>
</clipPath>
<clipPath id="clip44">
  <path d="M 171.070312 370.421875 L 264.039062 370.421875 L 264.039062 724.675781 L 171.070312 724.675781 Z M 171.070312 370.421875 L 261.414062 544.945312 C 261.414062 555.804688 252.609375 564.609375 241.75 564.609375 C 230.890625 564.609375 222.085938 555.804688 222.085938 544.945312 C 222.085938 534.085938 230.890625 525.28125 241.75 525.28125 C 252.609375 525.28125 261.414062 534.085938 261.414062 544.945312 Z M 171.070312 370.421875 "/>
</clipPath>
<clipPath id="clip45">
  <path d="M 171.070312 370.421875 L 264.039062 370.421875 L 264.039062 724.675781 L 171.070312 724.675781 Z M 171.070312 370.421875 L 213.023438 550.152344 C 213.023438 561.011719 204.21875 569.816406 193.359375 569.816406 C 182.5 569.816406 173.695312 561.011719 173.695312 550.152344 C 173.695312 539.292969 182.5 530.488281 193.359375 530.488281 C 204.21875 530.488281 213.023438 539.292969 213.023438 550.152344 Z M 171.070312 370.421875 "/>
</clipPath>
<clipPath id="clip46">
  <path d="M 93 425 L 249 425 L 249 600 L 93 600 Z M 93 425 "/>
</clipPath>
<clipPath id="clip47">
  <path d="M 0.945312 384.621094 L 341.53125 384.621094 L 341.53125 647.003906 L 0.945312 647.003906 Z M 0.945312 384.621094 L 168.78125 481.472656 C 168.78125 492.332031 159.976562 501.136719 149.117188 501.136719 C 138.257812 501.136719 129.453125 492.332031 129.453125 481.472656 C 129.453125 470.609375 138.257812 461.804688 149.117188 461.804688 C 159.976562 461.804688 168.78125 470.609375 168.78125 481.472656 Z M 0.945312 384.621094 "/>
</clipPath>
<clipPath id="clip48">
  <path d="M 0.945312 384.621094 L 341.53125 384.621094 L 341.53125 647.003906 L 0.945312 647.003906 Z M 0.945312 384.621094 L 213.023438 550.152344 C 213.023438 561.011719 204.21875 569.816406 193.359375 569.816406 C 182.5 569.816406 173.695312 561.011719 173.695312 550.152344 C 173.695312 539.292969 182.5 530.488281 193.359375 530.488281 C 204.21875 530.488281 213.023438 539.292969 213.023438 550.152344 Z M 0.945312 384.621094 "/>
</clipPath>
<clipPath id="clip49">
  <path d="M 20 354 L 205 354 L 205 538 L 20 538 Z M 20 354 "/>
</clipPath>
<clipPath id="clip50">
  <path d="M -48.089844 283.253906 L 273.113281 283.253906 L 273.113281 607.976562 L -48.089844 607.976562 Z M -48.089844 283.253906 L 168.78125 481.472656 C 168.78125 492.332031 159.976562 501.136719 149.117188 501.136719 C 138.257812 501.136719 129.453125 492.332031 129.453125 481.472656 C 129.453125 470.609375 138.257812 461.804688 149.117188 461.804688 C 159.976562 461.804688 168.78125 470.609375 168.78125 481.472656 Z M -48.089844 283.253906 "/>
</clipPath>
<clipPath id="clip51">
  <path d="M -48.089844 283.253906 L 273.113281 283.253906 L 273.113281 607.976562 L -48.089844 607.976562 Z M -48.089844 283.253906 L 95.570312 409.757812 C 95.570312 420.621094 86.765625 429.421875 75.90625 429.421875 C 65.046875 429.421875 56.242188 420.621094 56.242188 409.757812 C 56.242188 398.898438 65.046875 390.09375 75.90625 390.09375 C 86.765625 390.09375 95.570312 398.898438 95.570312 409.757812 Z M -48.089844 283.253906 "/>
</clipPath>
<clipPath id="clip52">
  <path d="M 0 296 L 132 296 L 132 466 L 0 466 Z M 0 296 "/>
</clipPath>
<clipPath id="clip53">
  <path d="M -109.503906 259.550781 L 226.5625 259.550781 L 226.5625 502.632812 L -109.503906 502.632812 Z M -109.503906 259.550781 L 60.816406 352.425781 C 60.816406 363.289062 52.011719 372.089844 41.152344 372.089844 C 30.292969 372.089844 21.488281 363.289062 21.488281 352.425781 C 21.488281 341.566406 30.292969 332.761719 41.152344 332.761719 C 52.011719 332.761719 60.816406 341.566406 60.816406 352.425781 Z M -109.503906 259.550781 "/>
</clipPath>
<clipPath id="clip54">
  <path d="M -109.503906 259.550781 L 226.5625 259.550781 L 226.5625 502.632812 L -109.503906 502.632812 Z M -109.503906 259.550781 L 95.570312 409.757812 C 95.570312 420.621094 86.765625 429.421875 75.90625 429.421875 C 65.046875 429.421875 56.242188 420.621094 56.242188 409.757812 C 56.242188 398.898438 65.046875 390.09375 75.90625 390.09375 C 86.765625 390.09375 95.570312 398.898438 95.570312 409.757812 Z M -109.503906 259.550781 "/>
</clipPath>
<clipPath id="clip55">
  <path d="M 246 27.589844 L 381 27.589844 L 381 210.039062 L 246 210.039062 Z M 246 27.589844 "/>
</clipPath>
<clipPath id="clip56">
  <path d="M 134.167969 27.589844 L 493.078125 27.589844 L 493.078125 210.039062 L 134.167969 210.039062 Z M 134.167969 27.589844 L 321.921875 156.195312 C 321.921875 167.054688 313.117188 175.859375 302.257812 175.859375 C 291.398438 175.859375 282.59375 167.054688 282.59375 156.195312 C 282.59375 145.332031 291.398438 136.53125 302.257812 136.53125 C 313.117188 136.53125 321.921875 145.332031 321.921875 156.195312 Z M 134.167969 27.589844 "/>
</clipPath>
<clipPath id="clip57">
  <path d="M 134.167969 27.589844 L 493.078125 27.589844 L 493.078125 210.039062 L 134.167969 210.039062 Z M 134.167969 27.589844 L 344.652344 81.433594 C 344.652344 92.292969 335.847656 101.097656 324.988281 101.097656 C 314.125 101.097656 305.324219 92.292969 305.324219 81.433594 C 305.324219 70.570312 314.125 61.769531 324.988281 61.769531 C 335.847656 61.769531 344.652344 70.570312 344.652344 81.433594 Z M 134.167969 27.589844 "/>
</clipPath>
<clipPath id="clip58">
  <path d="M 217 0 L 381 0 L 381 138 L 217 138 Z M 217 0 "/>
</clipPath>
<clipPath id="clip59">
  <path d="M 180.015625 -100.839844 L 417.8125 -100.839844 L 417.8125 232.121094 L 180.015625 232.121094 Z M 180.015625 -100.839844 L 344.652344 81.433594 C 344.652344 92.292969 335.847656 101.097656 324.988281 101.097656 C 314.125 101.097656 305.324219 92.292969 305.324219 81.433594 C 305.324219 70.570312 314.125 61.769531 324.988281 61.769531 C 335.847656 61.769531 344.652344 70.570312 344.652344 81.433594 Z M 180.015625 -100.839844 "/>
</clipPath>
<clipPath id="clip60">
  <path d="M 180.015625 -100.839844 L 417.8125 -100.839844 L 417.8125 232.121094 L 180.015625 232.121094 Z M 180.015625 -100.839844 L 292.503906 49.847656 C 292.503906 60.707031 283.699219 69.511719 272.839844 69.511719 C 261.976562 69.511719 253.175781 60.707031 253.175781 49.847656 C 253.175781 38.988281 261.976562 30.183594 272.839844 30.183594 C 283.699219 30.183594 292.503906 38.988281 292.503906 49.847656 Z M 180.015625 -100.839844 "/>
</clipPath>
<clipPath id="clip61">
  <path d="M 278.984375 9 L 436.121094 9 L 436.121094 138 L 278.984375 138 Z M 278.984375 9 "/>
</clipPath>
<clipPath id="clip62">
  <path d="M 278.984375 -105.3125 L 436.121094 -105.3125 L 436.121094 251.707031 L 278.984375 251.707031 Z M 278.984375 -105.3125 L 344.652344 81.433594 C 344.652344 92.292969 335.847656 101.097656 324.988281 101.097656 C 314.125 101.097656 305.324219 92.292969 305.324219 81.433594 C 305.324219 70.570312 314.125 61.769531 324.988281 61.769531 C 335.847656 61.769531 344.652344 70.570312 344.652344 81.433594 Z M 278.984375 -105.3125 "/>
</clipPath>
<clipPath id="clip63">
  <path d="M 278.984375 -105.3125 L 436.121094 -105.3125 L 436.121094 251.707031 L 278.984375 251.707031 Z M 278.984375 -105.3125 L 409.78125 64.960938 C 409.78125 75.820312 400.976562 84.625 390.117188 84.625 C 379.257812 84.625 370.453125 75.820312 370.453125 64.960938 C 370.453125 54.101562 379.257812 45.296875 390.117188 45.296875 C 400.976562 45.296875 409.78125 54.101562 409.78125 64.960938 Z M 278.984375 -105.3125 "/>
</clipPath>
</defs>
<g id="surface231">
<g clip-path="url(#clip1)" clip-rule="nonzero">
<g clip-path="url(#clip2)" clip-rule="evenodd">
<g clip-path="url(#clip3)" clip-rule="evenodd">
<path style="fill:none;stroke-width:0.0229219;stroke-linecap:butt;stroke-linejoin:miter;stroke:rgb(17.96875%,20.3125%,21.09375%);stroke-opacity:0.8;stroke-miterlimit:10;" d="M 3.037408 2.650405 L 3.067324 2.346399 " transform="matrix(171.576041,0,0,171.576041,32.568369,-68.351422)"/>
</g>
</g>
</g>
<g clip-path="url(#clip4)" clip-rule="nonzero">
<g clip-path="url(#clip5)" clip-rule="evenodd">
<g clip-path="url(#clip6)" clip-rule="evenodd">
<path style="fill:none;stroke-width:0.0229219;stroke-linecap:butt;stroke-linejoin:miter;stroke:rgb(17.96875%,20.3125%,21.09375%);stroke-opacity:0.8;stroke-miterlimit:10;" d="M 3.037408 2.650405 L 2.978214 3.077921 " transform="matrix(171.576041,0,0,171.576041,32.568369,-68.351422)"/>
</g>
</g>
</g>
<g clip-path="url(#clip7)" clip-rule="nonzero">
<g clip-path="url(#clip8)" clip-rule="evenodd">
<g clip-path="url(#clip9)" clip-rule="evenodd">
<path style="fill:none;stroke-width:0.0229219;stroke-linecap:butt;stroke-linejoin:miter;stroke:rgb(17.96875%,20.3125%,21.09375%);stroke-opacity:0.8;stroke-miterlimit:10;" d="M 3.037408 2.650405 L 2.746539 2.486756 " transform="matrix(171.576041,0,0,171.576041,32.568369,-68.351422)"/>
</g>
</g>
</g>
<g clip-path="url(#clip10)" clip-rule="nonzero">
<g clip-path="url(#clip11)" clip-rule="evenodd">
<g clip-path="url(#clip12)" clip-rule="evenodd">
<path style="fill:none;stroke-width:0.0229219;stroke-linecap:butt;stroke-linejoin:miter;stroke:rgb(17.96875%,20.3125%,21.09375%);stroke-opacity:0.8;stroke-miterlimit:10;" d="M 3.067324 2.346399 L 2.746539 2.486756 " transform="matrix(171.576041,0,0,171.576041,32.568369,-68.351422)"/>
</g>
</g>
</g>
<g clip-path="url(#clip13)" clip-rule="nonzero">
<g clip-path="url(#clip14)" clip-rule="evenodd">
<g clip-path="url(#clip15)" clip-rule="evenodd">
<path style="fill:none;stroke-width:0.0229219;stroke-linecap:butt;stroke-linejoin:miter;stroke:rgb(17.96875%,20.3125%,21.09375%);stroke-opacity:0.8;stroke-miterlimit:10;" d="M 2.978214 3.077921 L 2.758127 3.006114 " transform="matrix(171.576041,0,0,171.576041,32.568369,-68.351422)"/>
</g>
</g>
</g>
<g clip-path="url(#clip16)" clip-rule="nonzero">
<g clip-path="url(#clip17)" clip-rule="evenodd">
<g clip-path="url(#clip18)" clip-rule="evenodd">
<path style="fill:none;stroke-width:0.0229219;stroke-linecap:butt;stroke-linejoin:miter;stroke:rgb(17.96875%,20.3125%,21.09375%);stroke-opacity:0.8;stroke-miterlimit:10;" d="M 2.191004 2.104501 L 1.491196 1.871892 " transform="matrix(171.576041,0,0,171.576041,32.568369,-68.351422)"/>
</g>
</g>
</g>
<g clip-path="url(#clip19)" clip-rule="nonzero">
<g clip-path="url(#clip20)" clip-rule="evenodd">
<g clip-path="url(#clip21)" clip-rule="evenodd">
<path style="fill:none;stroke-width:0.0229219;stroke-linecap:butt;stroke-linejoin:miter;stroke:rgb(17.96875%,20.3125%,21.09375%);stroke-opacity:0.8;stroke-miterlimit:10;" d="M 2.191004 2.104501 L 2.746539 2.486756 " transform="matrix(171.576041,0,0,171.576041,32.568369,-68.351422)"/>
</g>
</g>
</g>
<g clip-path="url(#clip22)" clip-rule="nonzero">
<g clip-path="url(#clip23)" clip-rule="evenodd">
<g clip-path="url(#clip24)" clip-rule="evenodd">
<path style="fill:none;stroke-width:0.0229219;stroke-linecap:butt;stroke-linejoin:miter;stroke:rgb(17.96875%,20.3125%,21.09375%);stroke-opacity:0.8;stroke-miterlimit:10;" d="M 1.491196 1.871892 L 1.269242 2.495863 " transform="matrix(171.576041,0,0,171.576041,32.568369,-68.351422)"/>
</g>
</g>
</g>
<g clip-path="url(#clip25)" clip-rule="nonzero">
<g clip-path="url(#clip26)" clip-rule="evenodd">
<g clip-path="url(#clip27)" clip-rule="evenodd">
<path style="fill:none;stroke-width:0.0229219;stroke-linecap:butt;stroke-linejoin:miter;stroke:rgb(17.96875%,20.3125%,21.09375%);stroke-opacity:0.8;stroke-miterlimit:10;" d="M 1.491196 1.871892 L 1.571836 1.30873 " transform="matrix(171.576041,0,0,171.576041,32.568369,-68.351422)"/>
</g>
</g>
</g>
<g clip-path="url(#clip28)" clip-rule="nonzero">
<g clip-path="url(#clip29)" clip-rule="evenodd">
<g clip-path="url(#clip30)" clip-rule="evenodd">
<path style="fill:none;stroke-width:0.0229219;stroke-linecap:butt;stroke-linejoin:miter;stroke:rgb(17.96875%,20.3125%,21.09375%);stroke-opacity:0.8;stroke-miterlimit:10;" d="M 1.491196 1.871892 L 0.99119 1.649436 " transform="matrix(171.576041,0,0,171.576041,32.568369,-68.351422)"/>
</g>
</g>
</g>
<g clip-path="url(#clip31)" clip-rule="nonzero">
<g clip-path="url(#clip32)" clip-rule="evenodd">
<g clip-path="url(#clip33)" clip-rule="evenodd">
<path style="fill:none;stroke-width:0.0229219;stroke-linecap:butt;stroke-linejoin:miter;stroke:rgb(17.96875%,20.3125%,21.09375%);stroke-opacity:0.8;stroke-miterlimit:10;" d="M 2.758127 3.006114 L 2.746539 2.486756 " transform="matrix(171.576041,0,0,171.576041,32.568369,-68.351422)"/>
</g>
</g>
</g>
<g clip-path="url(#clip34)" clip-rule="nonzero">
<g clip-path="url(#clip35)" clip-rule="evenodd">
<g clip-path="url(#clip36)" clip-rule="evenodd">
<path style="fill:none;stroke-width:0.0229219;stroke-linecap:butt;stroke-linejoin:miter;stroke:rgb(17.96875%,20.3125%,21.09375%);stroke-opacity:0.8;stroke-miterlimit:10;" d="M 1.106345 3.117922 L 1.269242 2.495863 " transform="matrix(171.576041,0,0,171.576041,32.568369,-68.351422)"/>
</g>
</g>
</g>
<g clip-path="url(#clip37)" clip-rule="nonzero">
<g clip-path="url(#clip38)" clip-rule="evenodd">
<g clip-path="url(#clip39)" clip-rule="evenodd">
<path style="fill:none;stroke-width:0.0229219;stroke-linecap:butt;stroke-linejoin:miter;stroke:rgb(17.96875%,20.3125%,21.09375%);stroke-opacity:0.8;stroke-miterlimit:10;" d="M 1.106345 3.117922 L 1.219177 3.574489 " transform="matrix(171.576041,0,0,171.576041,32.568369,-68.351422)"/>
</g>
</g>
</g>
<g clip-path="url(#clip40)" clip-rule="nonzero">
<g clip-path="url(#clip41)" clip-rule="evenodd">
<g clip-path="url(#clip42)" clip-rule="evenodd">
<path style="fill:none;stroke-width:0.0229219;stroke-linecap:butt;stroke-linejoin:miter;stroke:rgb(17.96875%,20.3125%,21.09375%);stroke-opacity:0.8;stroke-miterlimit:10;" d="M 1.106345 3.117922 L 0.679284 3.20455 " transform="matrix(171.576041,0,0,171.576041,32.568369,-68.351422)"/>
</g>
</g>
</g>
<g clip-path="url(#clip43)" clip-rule="nonzero">
<g clip-path="url(#clip44)" clip-rule="evenodd">
<g clip-path="url(#clip45)" clip-rule="evenodd">
<path style="fill:none;stroke-width:0.0229219;stroke-linecap:butt;stroke-linejoin:miter;stroke:rgb(17.96875%,20.3125%,21.09375%);stroke-opacity:0.8;stroke-miterlimit:10;" d="M 1.219177 3.574489 L 0.937141 3.604838 " transform="matrix(171.576041,0,0,171.576041,32.568369,-68.351422)"/>
</g>
</g>
</g>
<g clip-path="url(#clip46)" clip-rule="nonzero">
<g clip-path="url(#clip47)" clip-rule="evenodd">
<g clip-path="url(#clip48)" clip-rule="evenodd">
<path style="fill:none;stroke-width:0.0229219;stroke-linecap:butt;stroke-linejoin:miter;stroke:rgb(17.96875%,20.3125%,21.09375%);stroke-opacity:0.8;stroke-miterlimit:10;" d="M 0.679284 3.20455 L 0.937141 3.604838 " transform="matrix(171.576041,0,0,171.576041,32.568369,-68.351422)"/>
</g>
</g>
</g>
<g clip-path="url(#clip49)" clip-rule="nonzero">
<g clip-path="url(#clip50)" clip-rule="evenodd">
<g clip-path="url(#clip51)" clip-rule="evenodd">
<path style="fill:none;stroke-width:0.0229219;stroke-linecap:butt;stroke-linejoin:miter;stroke:rgb(17.96875%,20.3125%,21.09375%);stroke-opacity:0.8;stroke-miterlimit:10;" d="M 0.679284 3.20455 L 0.252587 2.786573 " transform="matrix(171.576041,0,0,171.576041,32.568369,-68.351422)"/>
</g>
</g>
</g>
<g clip-path="url(#clip52)" clip-rule="nonzero">
<g clip-path="url(#clip53)" clip-rule="evenodd">
<g clip-path="url(#clip54)" clip-rule="evenodd">
<path style="fill:none;stroke-width:0.0229219;stroke-linecap:butt;stroke-linejoin:miter;stroke:rgb(17.96875%,20.3125%,21.09375%);stroke-opacity:0.8;stroke-miterlimit:10;" d="M 0.0500301 2.452424 L 0.252587 2.786573 " transform="matrix(171.576041,0,0,171.576041,32.568369,-68.351422)"/>
</g>
</g>
</g>
<g clip-path="url(#clip55)" clip-rule="nonzero">
<g clip-path="url(#clip56)" clip-rule="evenodd">
<g clip-path="url(#clip57)" clip-rule="evenodd">
<path style="fill:none;stroke-width:0.0229219;stroke-linecap:butt;stroke-linejoin:miter;stroke:rgb(17.96875%,20.3125%,21.09375%);stroke-opacity:0.8;stroke-miterlimit:10;" d="M 1.571836 1.30873 L 1.704317 0.872995 " transform="matrix(171.576041,0,0,171.576041,32.568369,-68.351422)"/>
</g>
</g>
</g>
<g clip-path="url(#clip58)" clip-rule="nonzero">
<g clip-path="url(#clip59)" clip-rule="evenodd">
<g clip-path="url(#clip60)" clip-rule="evenodd">
<path style="fill:none;stroke-width:0.0229219;stroke-linecap:butt;stroke-linejoin:miter;stroke:rgb(17.96875%,20.3125%,21.09375%);stroke-opacity:0.8;stroke-miterlimit:10;" d="M 1.704317 0.872995 L 1.400379 0.688902 " transform="matrix(171.576041,0,0,171.576041,32.568369,-68.351422)"/>
</g>
</g>
</g>
<g clip-path="url(#clip61)" clip-rule="nonzero">
<g clip-path="url(#clip62)" clip-rule="evenodd">
<g clip-path="url(#clip63)" clip-rule="evenodd">
<path style="fill:none;stroke-width:0.0229219;stroke-linecap:butt;stroke-linejoin:miter;stroke:rgb(17.96875%,20.3125%,21.09375%);stroke-opacity:0.8;stroke-miterlimit:10;" d="M 1.704317 0.872995 L 2.083909 0.776987 " transform="matrix(171.576041,0,0,171.576041,32.568369,-68.351422)"/>
</g>
</g>
</g>
<path style="fill-rule:nonzero;fill:rgb(100%,92.941176%,43.529412%);fill-opacity:1;stroke-width:0.0229219;stroke-linecap:butt;stroke-linejoin:miter;stroke:rgb(60%,60%,60%);stroke-opacity:0.8;stroke-miterlimit:10;" d="M 0.11461 -0.00000230247 C 0.11461 0.0632896 0.0632934 0.114606 0.00000151852 0.114606 C -0.0632904 0.114606 -0.114607 0.0632896 -0.114607 -0.00000230247 C -0.114607 -0.0632942 -0.0632904 -0.114611 0.00000151852 -0.114611 C 0.0632934 -0.114611 0.11461 -0.0632942 0.11461 -0.00000230247 Z M 0.11461 -0.00000230247 " transform="matrix(171.576041,0,0,171.576041,553.714583,386.394926)"/>
<path style="fill-rule:nonzero;fill:rgb(100%,92.941176%,43.529412%);fill-opacity:1;stroke-width:0.0229219;stroke-linecap:butt;stroke-linejoin:miter;stroke:rgb(60%,60%,60%);stroke-opacity:0.8;stroke-miterlimit:10;" d="M 0.114615 0.00000249766 C 0.114615 0.0632944 0.063298 0.114611 0.00000611922 0.114611 C -0.0632858 0.114611 -0.114602 0.0632944 -0.114602 0.00000249766 C -0.114602 -0.0632894 -0.0632858 -0.114606 0.00000611922 -0.114606 C 0.063298 -0.114606 0.114615 -0.0632894 0.114615 0.00000249766 Z M 0.114615 0.00000249766 " transform="matrix(171.576041,0,0,171.576041,558.846606,334.233946)"/>
<path style="fill-rule:nonzero;fill:rgb(100%,92.941176%,43.529412%);fill-opacity:1;stroke-width:0.0229219;stroke-linecap:butt;stroke-linejoin:miter;stroke:rgb(60%,60%,60%);stroke-opacity:0.8;stroke-miterlimit:10;" d="M 0.1146 0.00000375837 C 0.1146 0.0632957 0.0633067 0.114612 -0.00000798005 0.114612 C -0.0632999 0.114612 -0.114616 0.0632957 -0.114616 0.00000375837 C -0.114616 -0.0632881 -0.0632999 -0.114605 -0.00000798005 -0.114605 C 0.0633067 -0.114605 0.1146 -0.0632881 0.1146 0.00000375837 Z M 0.1146 0.00000375837 " transform="matrix(171.576041,0,0,171.576041,543.559963,459.745449)"/>
<path style="fill-rule:nonzero;fill:rgb(100%,92.941176%,43.529412%);fill-opacity:1;stroke-width:0.0229219;stroke-linecap:butt;stroke-linejoin:miter;stroke:rgb(60%,60%,60%);stroke-opacity:0.8;stroke-miterlimit:10;" d="M 0.114608 0.0000113546 C 0.114608 0.0633033 0.0632918 0.11462 -0.000000100266 0.11462 C -0.063292 0.11462 -0.114609 0.0633033 -0.114609 0.0000113546 C -0.114609 -0.0633033 -0.063292 -0.11462 -0.000000100266 -0.11462 C 0.0632918 -0.11462 0.114608 -0.0633033 0.114608 0.0000113546 Z M 0.114608 0.0000113546 " transform="matrix(171.576041,0,0,171.576041,408.492205,292.728521)"/>
<path style="fill-rule:nonzero;fill:rgb(55.294118%,82.745098%,78.039216%);fill-opacity:1;stroke-width:0.0229219;stroke-linecap:butt;stroke-linejoin:miter;stroke:rgb(60%,60%,60%);stroke-opacity:0.8;stroke-miterlimit:10;" d="M 0.114601 0.00000939393 C 0.114601 0.0633013 0.0633074 0.114618 -0.0000072793 0.114618 C -0.0632992 0.114618 -0.114616 0.0633013 -0.114616 0.00000939393 C -0.114616 -0.0633053 -0.0632992 -0.114599 -0.0000072793 -0.114599 C 0.0633074 -0.114599 0.114601 -0.0633053 0.114601 0.00000939393 Z M 0.114601 0.00000939393 " transform="matrix(171.576041,0,0,171.576041,288.423124,252.818701)"/>
<path style="fill-rule:nonzero;fill:rgb(100%,92.941176%,43.529412%);fill-opacity:1;stroke-width:0.0229219;stroke-linecap:butt;stroke-linejoin:miter;stroke:rgb(60%,60%,60%);stroke-opacity:0.8;stroke-miterlimit:10;" d="M 0.114618 -0.0000101995 C 0.114618 0.0633045 0.0633015 0.114598 0.00000955562 0.114598 C -0.0633051 0.114598 -0.114599 0.0633045 -0.114599 -0.0000101995 C -0.114599 -0.0633021 -0.0633051 -0.114619 0.00000955562 -0.114619 C 0.0633015 -0.114619 0.114618 -0.0633021 0.114618 -0.0000101995 Z M 0.114618 -0.0000101995 " transform="matrix(171.576041,0,0,171.576041,505.795235,447.427531)"/>
<path style="fill-rule:nonzero;fill:rgb(100%,92.941176%,43.529412%);fill-opacity:1;stroke-width:0.0229219;stroke-linecap:butt;stroke-linejoin:miter;stroke:rgb(60%,60%,60%);stroke-opacity:0.8;stroke-miterlimit:10;" d="M 0.114605 0.0000106262 C 0.114605 0.0633025 0.0632885 0.114619 -0.00000342057 0.114619 C -0.0632953 0.114619 -0.114612 0.0633025 -0.114612 0.0000106262 C -0.114612 -0.063304 -0.0632953 -0.114621 -0.00000342057 -0.114621 C 0.0632885 -0.114621 0.114605 -0.063304 0.114605 0.0000106262 Z M 0.114605 0.0000106262 " transform="matrix(171.576041,0,0,171.576041,503.809181,358.314583)"/>
<path style="fill-rule:nonzero;fill:rgb(55.294118%,82.745098%,78.039216%);fill-opacity:1;stroke-width:0.0229219;stroke-linecap:butt;stroke-linejoin:miter;stroke:rgb(60%,60%,60%);stroke-opacity:0.8;stroke-miterlimit:10;" d="M 0.114606 -0.00000318024 C 0.114606 0.0632887 0.0632899 0.114605 -0.00000196062 0.114605 C -0.0632939 0.114605 -0.11461 0.0632887 -0.11461 -0.00000318024 C -0.11461 -0.0632951 -0.0632939 -0.114612 -0.00000196062 -0.114612 C 0.0632899 -0.114612 0.114606 -0.0632951 0.114606 -0.00000318024 Z M 0.114606 -0.00000318024 " transform="matrix(171.576041,0,0,171.576041,222.390961,466.609921)"/>
<path style="fill-rule:nonzero;fill:rgb(55.294118%,82.745098%,78.039216%);fill-opacity:1;stroke-width:0.0229219;stroke-linecap:butt;stroke-linejoin:miter;stroke:rgb(60%,60%,60%);stroke-opacity:0.8;stroke-miterlimit:10;" d="M 0.114605 -0.00000286161 C 0.114605 0.063289 0.0632888 0.114606 -0.00000309754 0.114606 C -0.063295 0.114606 -0.114612 0.063289 -0.114612 -0.00000286161 C -0.114612 -0.0632948 -0.063295 -0.114611 -0.00000309754 -0.114611 C 0.0632888 -0.114611 0.114605 -0.0632948 0.114605 -0.00000286161 Z M 0.114605 -0.00000286161 " transform="matrix(171.576041,0,0,171.576041,250.340375,359.879397)"/>
<path style="fill-rule:nonzero;fill:rgb(55.294118%,82.745098%,78.039216%);fill-opacity:1;stroke-width:0.0229219;stroke-linecap:butt;stroke-linejoin:miter;stroke:rgb(60%,60%,60%);stroke-opacity:0.8;stroke-miterlimit:10;" d="M 0.114609 -0.000000049791 C 0.114609 0.0632919 0.0632922 0.114608 0.000000293957 0.114608 C -0.0632916 0.114608 -0.114608 0.0632919 -0.114608 -0.000000049791 C -0.114608 -0.063292 -0.0632916 -0.114608 0.000000293957 -0.114608 C 0.0632922 -0.114608 0.114609 -0.063292 0.114609 -0.000000049791 Z M 0.114609 -0.000000049791 " transform="matrix(171.576041,0,0,171.576041,241.74995,544.945321)"/>
<path style="fill-rule:nonzero;fill:rgb(55.294118%,82.745098%,78.039216%);fill-opacity:1;stroke-width:0.0229219;stroke-linecap:butt;stroke-linejoin:miter;stroke:rgb(60%,60%,60%);stroke-opacity:0.8;stroke-miterlimit:10;" d="M 0.114603 0.0000112605 C 0.114603 0.0633032 0.0632864 0.11462 -0.00000546195 0.11462 C -0.0632974 0.11462 -0.114614 0.0633032 -0.114614 0.0000112605 C -0.114614 -0.0633034 -0.0632974 -0.11462 -0.00000546195 -0.11462 C 0.0632864 -0.11462 0.114603 -0.0633034 0.114603 0.0000112605 Z M 0.114603 0.0000112605 " transform="matrix(171.576041,0,0,171.576041,149.118125,481.470724)"/>
<path style="fill-rule:nonzero;fill:rgb(55.294118%,82.745098%,78.039216%);fill-opacity:1;stroke-width:0.0229219;stroke-linecap:butt;stroke-linejoin:miter;stroke:rgb(60%,60%,60%);stroke-opacity:0.8;stroke-miterlimit:10;" d="M 0.114602 -0.0000065467 C 0.114602 0.0633081 0.0632858 0.114602 -0.00000611922 0.114602 C -0.063298 0.114602 -0.114615 0.0633081 -0.114615 -0.0000065467 C -0.114615 -0.0632985 -0.063298 -0.114615 -0.00000611922 -0.114615 C 0.0632858 -0.114615 0.114602 -0.0632985 0.114602 -0.0000065467 Z M 0.114602 -0.0000065467 " transform="matrix(171.576041,0,0,171.576041,41.153394,352.426905)"/>
<path style="fill-rule:nonzero;fill:rgb(55.294118%,82.745098%,78.039216%);fill-opacity:1;stroke-width:0.0229219;stroke-linecap:butt;stroke-linejoin:miter;stroke:rgb(60%,60%,60%);stroke-opacity:0.8;stroke-miterlimit:10;" d="M 0.11461 0.000005572 C 0.11461 0.0632975 0.0632939 0.114614 0.00000203569 0.114614 C -0.0632899 0.114614 -0.114606 0.0632975 -0.114606 0.000005572 C -0.114606 -0.0632863 -0.0632899 -0.114603 0.00000203569 -0.114603 C 0.0632939 -0.114603 0.11461 -0.0632863 0.11461 0.000005572 Z M 0.11461 0.000005572 " transform="matrix(171.576041,0,0,171.576041,193.359026,550.151388)"/>
<path style="fill-rule:nonzero;fill:rgb(55.294118%,82.745098%,78.039216%);fill-opacity:1;stroke-width:0.0229219;stroke-linecap:butt;stroke-linejoin:miter;stroke:rgb(60%,60%,60%);stroke-opacity:0.8;stroke-miterlimit:10;" d="M 0.114612 -0.00000878285 C 0.114612 0.0633059 0.0632951 0.1146 0.00000317206 0.1146 C -0.0632887 0.1146 -0.114605 0.0633059 -0.114605 -0.00000878285 C -0.114605 -0.0633007 -0.0632887 -0.114617 0.00000317206 -0.114617 C 0.0632951 -0.114617 0.114612 -0.0633007 0.114612 -0.00000878285 Z M 0.114612 -0.00000878285 " transform="matrix(171.576041,0,0,171.576041,75.905706,409.759319)"/>
<path style="fill-rule:nonzero;fill:rgb(55.294118%,82.745098%,78.039216%);fill-opacity:1;stroke-width:0.0229219;stroke-linecap:butt;stroke-linejoin:miter;stroke:rgb(60%,60%,60%);stroke-opacity:0.8;stroke-miterlimit:10;" d="M 0.114612 0.0000100643 C 0.114612 0.063302 0.0632959 0.114619 0.00000401289 0.114619 C -0.0632879 0.114619 -0.114604 0.063302 -0.114604 0.0000100643 C -0.114604 -0.0633046 -0.0632879 -0.114598 0.00000401289 -0.114598 C 0.0632959 -0.114598 0.114612 -0.0633046 0.114612 0.0000100643 Z M 0.114612 0.0000100643 " transform="matrix(171.576041,0,0,171.576041,302.257124,156.193586)"/>
<path style="fill-rule:nonzero;fill:rgb(55.294118%,82.745098%,78.039216%);fill-opacity:1;stroke-width:0.0229219;stroke-linecap:butt;stroke-linejoin:miter;stroke:rgb(60%,60%,60%);stroke-opacity:0.8;stroke-miterlimit:10;" d="M 0.114615 0.0000101543 C 0.114615 0.0633021 0.0632983 0.114619 0.00000641215 0.114619 C -0.0633083 0.114619 -0.114602 0.0633021 -0.114602 0.0000101543 C -0.114602 -0.0633045 -0.0633083 -0.114598 0.00000641215 -0.114598 C 0.0632983 -0.114598 0.114615 -0.0633045 0.114615 0.0000101543 Z M 0.114615 0.0000101543 " transform="matrix(171.576041,0,0,171.576041,324.987181,81.431852)"/>
<path style="fill-rule:nonzero;fill:rgb(55.294118%,82.745098%,78.039216%);fill-opacity:1;stroke-width:0.0229219;stroke-linecap:butt;stroke-linejoin:miter;stroke:rgb(60%,60%,60%);stroke-opacity:0.8;stroke-miterlimit:10;" d="M 0.11462 -0.00000901944 C 0.11462 0.0633057 0.0633033 0.114599 -0.0000113433 0.114599 C -0.0633033 0.114599 -0.11462 0.0633057 -0.11462 -0.00000901944 C -0.11462 -0.0633009 -0.0633033 -0.114617 -0.0000113433 -0.114617 C 0.0633033 -0.114617 0.11462 -0.0633009 0.11462 -0.00000901944 Z M 0.11462 -0.00000901944 " transform="matrix(171.576041,0,0,171.576041,202.634759,214.653891)"/>
<path style="fill-rule:nonzero;fill:rgb(55.294118%,82.745098%,78.039216%);fill-opacity:1;stroke-width:0.0229219;stroke-linecap:butt;stroke-linejoin:miter;stroke:rgb(60%,60%,60%);stroke-opacity:0.8;stroke-miterlimit:10;" d="M 0.114617 -0.000005572 C 0.114617 0.0632863 0.0633002 0.114603 0.00000827334 0.114603 C -0.0633064 0.114603 -0.1146 0.0632863 -0.1146 -0.000005572 C -0.1146 -0.0632975 -0.0633064 -0.114614 0.00000827334 -0.114614 C 0.0633002 -0.114614 0.114617 -0.0632975 0.114617 -0.000005572 Z M 0.114617 -0.000005572 " transform="matrix(171.576041,0,0,171.576041,272.838424,49.848612)"/>
<path style="fill-rule:nonzero;fill:rgb(55.294118%,82.745098%,78.039216%);fill-opacity:1;stroke-width:0.0229219;stroke-linecap:butt;stroke-linejoin:miter;stroke:rgb(60%,60%,60%);stroke-opacity:0.8;stroke-miterlimit:10;" d="M 0.114603 0.0000059052 C 0.114603 0.0632978 0.0632869 0.114614 -0.0000050268 0.114614 C -0.0632969 0.114614 -0.114613 0.0632978 -0.114613 0.0000059052 C -0.114613 -0.063286 -0.0632969 -0.114603 -0.0000050268 -0.114603 C 0.0632869 -0.114603 0.114603 -0.063286 0.114603 0.0000059052 Z M 0.114603 0.0000059052 " transform="matrix(171.576041,0,0,171.576041,390.11805,64.959924)"/>
</g>
</svg>
