<?xml version="1.0" encoding="UTF-8"?>
<svg xmlns="http://www.w3.org/2000/svg" xmlns:xlink="http://www.w3.org/1999/xlink" width="600pt" height="600pt" viewBox="0 0 600 600" version="1.1">
<defs>
<clipPath id="clip1">
  <path d="M 260 435 L 405 435 L 405 576 L 260 576 Z M 260 435 "/>
</clipPath>
<clipPath id="clip2">
  <path d="M 197.679688 354.554688 L 467.140625 354.554688 L 467.140625 656.226562 L 197.679688 656.226562 Z M 197.679688 354.554688 L 335.292969 519.835938 C 335.292969 530.695312 326.488281 539.5 315.628906 539.5 C 304.765625 539.5 295.960938 530.695312 295.960938 519.835938 C 295.960938 508.972656 304.765625 500.171875 315.628906 500.171875 C 326.488281 500.171875 335.292969 508.972656 335.292969 519.835938 Z M 197.679688 354.554688 "/>
</clipPath>
<clipPath id="clip3">
  <path d="M 197.679688 354.554688 L 467.140625 354.554688 L 467.140625 656.226562 L 197.679688 656.226562 Z M 197.679688 354.554688 L 368.855469 490.945312 C 368.855469 501.808594 360.050781 510.613281 349.191406 510.613281 C 338.328125 510.613281 329.527344 501.808594 329.527344 490.945312 C 329.527344 480.085938 338.328125 471.28125 349.191406 471.28125 C 360.050781 471.28125 368.855469 480.085938 368.855469 490.945312 Z M 197.679688 354.554688 "/>
</clipPath>
<clipPath id="clip4">
  <path d="M 208 464 L 372 464 L 372 600 L 208 600 Z M 208 464 "/>
</clipPath>
<clipPath id="clip5">
  <path d="M 154.535156 377.019531 L 425.652344 377.019531 L 425.652344 701.664062 L 154.535156 701.664062 Z M 154.535156 377.019531 L 335.292969 519.835938 C 335.292969 530.695312 326.488281 539.5 315.628906 539.5 C 304.765625 539.5 295.960938 530.695312 295.960938 519.835938 C 295.960938 508.972656 304.765625 500.171875 315.628906 500.171875 C 326.488281 500.171875 335.292969 508.972656 335.292969 519.835938 Z M 154.535156 377.019531 "/>
</clipPath>
<clipPath id="clip6">
  <path d="M 154.535156 377.019531 L 425.652344 377.019531 L 425.652344 701.664062 L 154.535156 701.664062 Z M 154.535156 377.019531 L 284.222656 558.847656 C 284.222656 569.707031 275.417969 578.511719 264.558594 578.511719 C 253.699219 578.511719 244.894531 569.707031 244.894531 558.847656 C 244.894531 547.988281 253.699219 539.183594 264.558594 539.183594 C 275.417969 539.183594 284.222656 547.988281 284.222656 558.847656 Z M 154.535156 377.019531 "/>
</clipPath>
<clipPath id="clip7">
  <path d="M 211 422 L 372 422 L 372 576 L 211 576 Z M 211 422 "/>
</clipPath>
<clipPath id="clip8">
  <path d="M 149.640625 342.035156 L 433.523438 342.035156 L 433.523438 656.273438 L 149.640625 656.273438 Z M 149.640625 342.035156 L 335.292969 519.835938 C 335.292969 530.695312 326.488281 539.5 315.628906 539.5 C 304.765625 539.5 295.960938 530.695312 295.960938 519.835938 C 295.960938 508.972656 304.765625 500.171875 315.628906 500.171875 C 326.488281 500.171875 335.292969 508.972656 335.292969 519.835938 Z M 149.640625 342.035156 "/>
</clipPath>
<clipPath id="clip9">
  <path d="M 149.640625 342.035156 L 433.523438 342.035156 L 433.523438 656.273438 L 149.640625 656.273438 Z M 149.640625 342.035156 L 287.199219 478.472656 C 287.199219 489.332031 278.394531 498.136719 267.535156 498.136719 C 256.671875 498.136719 247.871094 489.332031 247.871094 478.472656 C 247.871094 467.609375 256.671875 458.804688 267.535156 458.804688 C 278.394531 458.804688 287.199219 467.609375 287.199219 478.472656 Z M 149.640625 342.035156 "/>
</clipPath>
<clipPath id="clip10">
  <path d="M 237.210938 422 L 379.515625 422 L 379.515625 547 L 237.210938 547 Z M 237.210938 422 "/>
</clipPath>
<clipPath id="clip11">
  <path d="M 237.210938 301.773438 L 379.515625 301.773438 L 379.515625 667.644531 L 237.210938 667.644531 Z M 237.210938 301.773438 L 368.855469 490.945312 C 368.855469 501.808594 360.050781 510.613281 349.191406 510.613281 C 338.328125 510.613281 329.527344 501.808594 329.527344 490.945312 C 329.527344 480.085938 338.328125 471.28125 349.191406 471.28125 C 360.050781 471.28125 368.855469 480.085938 368.855469 490.945312 Z M 237.210938 301.773438 "/>
</clipPath>
<clipPath id="clip12">
  <path d="M 237.210938 301.773438 L 379.515625 301.773438 L 379.515625 667.644531 L 237.210938 667.644531 Z M 237.210938 301.773438 L 287.199219 478.472656 C 287.199219 489.332031 278.394531 498.136719 267.535156 498.136719 C 256.671875 498.136719 247.871094 489.332031 247.871094 478.472656 C 247.871094 467.609375 256.671875 458.804688 267.535156 458.804688 C 278.394531 458.804688 287.199219 467.609375 287.199219 478.472656 Z M 237.210938 301.773438 "/>
</clipPath>
<clipPath id="clip13">
  <path d="M 165 476 L 321 476 L 321 600 L 165 600 Z M 165 476 "/>
</clipPath>
<clipPath id="clip14">
  <path d="M 126.230469 379.332031 L 359.605469 379.332031 L 359.605469 711.921875 L 126.230469 711.921875 Z M 126.230469 379.332031 L 284.222656 558.847656 C 284.222656 569.707031 275.417969 578.511719 264.558594 578.511719 C 253.699219 578.511719 244.894531 569.707031 244.894531 558.847656 C 244.894531 547.988281 253.699219 539.183594 264.558594 539.183594 C 275.417969 539.183594 284.222656 547.988281 284.222656 558.847656 Z M 126.230469 379.332031 "/>
</clipPath>
<clipPath id="clip15">
  <path d="M 126.230469 379.332031 L 359.605469 379.332031 L 359.605469 711.921875 L 126.230469 711.921875 Z M 126.230469 379.332031 L 240.941406 532.40625 C 240.941406 543.265625 232.136719 552.070312 221.277344 552.070312 C 210.417969 552.070312 201.613281 543.265625 201.613281 532.40625 C 201.613281 521.546875 210.417969 512.742188 221.277344 512.742188 C 232.136719 512.742188 240.941406 521.546875 240.941406 532.40625 Z M 126.230469 379.332031 "/>
</clipPath>
<clipPath id="clip16">
  <path d="M 118 267.648438 L 250 267.648438 L 250 440.71875 L 118 440.71875 Z M 118 267.648438 "/>
</clipPath>
<clipPath id="clip17">
  <path d="M -0.59375 267.648438 L 368.089844 267.648438 L 368.089844 440.71875 L -0.59375 440.71875 Z M -0.59375 267.648438 L 213.378906 398.132812 C 213.378906 408.992188 204.578125 417.796875 193.714844 417.796875 C 182.855469 417.796875 174.050781 408.992188 174.050781 398.132812 C 174.050781 387.273438 182.855469 378.46875 193.714844 378.46875 C 204.578125 378.46875 213.378906 387.273438 213.378906 398.132812 Z M -0.59375 267.648438 "/>
</clipPath>
<clipPath id="clip18">
  <path d="M -0.59375 267.648438 L 368.089844 267.648438 L 368.089844 440.71875 L -0.59375 440.71875 Z M -0.59375 267.648438 L 193.445312 310.234375 C 193.445312 321.09375 184.640625 329.898438 173.78125 329.898438 C 162.921875 329.898438 154.117188 321.09375 154.117188 310.234375 C 154.117188 299.375 162.921875 290.570312 173.78125 290.570312 C 184.640625 290.570312 193.445312 299.375 193.445312 310.234375 Z M -0.59375 267.648438 "/>
</clipPath>
<clipPath id="clip19">
  <path d="M 138 342 L 324 342 L 324 535 L 138 535 Z M 138 342 "/>
</clipPath>
<clipPath id="clip20">
  <path d="M 61.089844 275.949219 L 400.160156 275.949219 L 400.160156 600.65625 L 61.089844 600.65625 Z M 61.089844 275.949219 L 213.378906 398.132812 C 213.378906 408.992188 204.578125 417.796875 193.714844 417.796875 C 182.855469 417.796875 174.050781 408.992188 174.050781 398.132812 C 174.050781 387.273438 182.855469 378.46875 193.714844 378.46875 C 204.578125 378.46875 213.378906 387.273438 213.378906 398.132812 Z M 61.089844 275.949219 "/>
</clipPath>
<clipPath id="clip21">
  <path d="M 61.089844 275.949219 L 400.160156 275.949219 L 400.160156 600.65625 L 61.089844 600.65625 Z M 61.089844 275.949219 L 287.199219 478.472656 C 287.199219 489.332031 278.394531 498.136719 267.535156 498.136719 C 256.671875 498.136719 247.871094 489.332031 247.871094 478.472656 C 247.871094 467.609375 256.671875 458.804688 267.535156 458.804688 C 278.394531 458.804688 287.199219 467.609375 287.199219 478.472656 Z M 61.089844 275.949219 "/>
</clipPath>
<clipPath id="clip22">
  <path d="M 64 170 L 230 170 L 230 366 L 64 366 Z M 64 170 "/>
</clipPath>
<clipPath id="clip23">
  <path d="M -31.027344 128.652344 L 325.28125 128.652344 L 325.28125 407.804688 L -31.027344 407.804688 Z M -31.027344 128.652344 L 193.445312 310.234375 C 193.445312 321.09375 184.640625 329.898438 173.78125 329.898438 C 162.921875 329.898438 154.117188 321.09375 154.117188 310.234375 C 154.117188 299.375 162.921875 290.570312 173.78125 290.570312 C 184.640625 290.570312 193.445312 299.375 193.445312 310.234375 Z M -31.027344 128.652344 "/>
</clipPath>
<clipPath id="clip24">
  <path d="M -31.027344 128.652344 L 325.28125 128.652344 L 325.28125 407.804688 L -31.027344 407.804688 Z M -31.027344 128.652344 L 140.136719 226.222656 C 140.136719 237.082031 131.335938 245.886719 120.472656 245.886719 C 109.613281 245.886719 100.808594 237.082031 100.808594 226.222656 C 100.808594 215.359375 109.613281 206.558594 120.472656 206.558594 C 131.335938 206.558594 140.136719 215.359375 140.136719 226.222656 Z M -31.027344 128.652344 "/>
</clipPath>
<clipPath id="clip25">
  <path d="M 141.199219 226 L 377.457031 226 L 377.457031 366 L 141.199219 366 Z M 141.199219 226 "/>
</clipPath>
<clipPath id="clip26">
  <path d="M 141.199219 105.464844 L 377.457031 105.464844 L 377.457031 486.574219 L 141.199219 486.574219 Z M 141.199219 105.464844 L 193.445312 310.234375 C 193.445312 321.09375 184.640625 329.898438 173.78125 329.898438 C 162.921875 329.898438 154.117188 321.09375 154.117188 310.234375 C 154.117188 299.375 162.921875 290.570312 173.78125 290.570312 C 184.640625 290.570312 193.445312 299.375 193.445312 310.234375 Z M 141.199219 105.464844 "/>
</clipPath>
<clipPath id="clip27">
  <path d="M 141.199219 105.464844 L 377.457031 105.464844 L 377.457031 486.574219 L 141.199219 486.574219 Z M 141.199219 105.464844 L 364.539062 281.804688 C 364.539062 292.664062 355.734375 301.46875 344.875 301.46875 C 334.015625 301.46875 325.210938 292.664062 325.210938 281.804688 C 325.210938 270.941406 334.015625 262.140625 344.875 262.140625 C 355.734375 262.140625 364.539062 270.941406 364.539062 281.804688 Z M 141.199219 105.464844 "/>
</clipPath>
<clipPath id="clip28">
  <path d="M 23.566406 254 L 219.605469 254 L 219.605469 392 L 23.566406 392 Z M 23.566406 254 "/>
</clipPath>
<clipPath id="clip29">
  <path d="M 23.566406 136.625 L 219.605469 136.625 L 219.605469 509.617188 L 23.566406 509.617188 Z M 23.566406 136.625 L 193.445312 310.234375 C 193.445312 321.09375 184.640625 329.898438 173.78125 329.898438 C 162.921875 329.898438 154.117188 321.09375 154.117188 310.234375 C 154.117188 299.375 162.921875 290.570312 173.78125 290.570312 C 184.640625 290.570312 193.445312 299.375 193.445312 310.234375 Z M 23.566406 136.625 "/>
</clipPath>
<clipPath id="clip30">
  <path d="M 23.566406 136.625 L 219.605469 136.625 L 219.605469 509.617188 L 23.566406 509.617188 Z M 23.566406 136.625 L 89.054688 336.007812 C 89.054688 346.867188 80.25 355.671875 69.390625 355.671875 C 58.527344 355.671875 49.726562 346.867188 49.726562 336.007812 C 49.726562 325.148438 58.527344 316.34375 69.390625 316.34375 C 80.25 316.34375 89.054688 325.148438 89.054688 336.007812 Z M 23.566406 136.625 "/>
</clipPath>
<clipPath id="clip31">
  <path d="M 165 422 L 324 422 L 324 589 L 165 589 Z M 165 422 "/>
</clipPath>
<clipPath id="clip32">
  <path d="M 84.683594 360.757812 L 404.128906 360.757812 L 404.128906 650.121094 L 84.683594 650.121094 Z M 84.683594 360.757812 L 240.941406 532.40625 C 240.941406 543.265625 232.136719 552.070312 221.277344 552.070312 C 210.417969 552.070312 201.613281 543.265625 201.613281 532.40625 C 201.613281 521.546875 210.417969 512.742188 221.277344 512.742188 C 232.136719 512.742188 240.941406 521.546875 240.941406 532.40625 Z M 84.683594 360.757812 "/>
</clipPath>
<clipPath id="clip33">
  <path d="M 84.683594 360.757812 L 404.128906 360.757812 L 404.128906 650.121094 L 84.683594 650.121094 Z M 84.683594 360.757812 L 287.199219 478.472656 C 287.199219 489.332031 278.394531 498.136719 267.535156 498.136719 C 256.671875 498.136719 247.871094 489.332031 247.871094 478.472656 C 247.871094 467.609375 256.671875 458.804688 267.535156 458.804688 C 278.394531 458.804688 287.199219 467.609375 287.199219 478.472656 Z M 84.683594 360.757812 "/>
</clipPath>
<clipPath id="clip34">
  <path d="M 64 96.125 L 194 96.125 L 194 262.449219 L 64 262.449219 Z M 64 96.125 "/>
</clipPath>
<clipPath id="clip35">
  <path d="M -55.222656 96.125 L 313.816406 96.125 L 313.816406 262.449219 L -55.222656 262.449219 Z M -55.222656 96.125 L 157.785156 132.351562 C 157.785156 143.214844 148.980469 152.015625 138.121094 152.015625 C 127.257812 152.015625 118.457031 143.214844 118.457031 132.351562 C 118.457031 121.492188 127.257812 112.6875 138.121094 112.6875 C 148.980469 112.6875 157.785156 121.492188 157.785156 132.351562 Z M -55.222656 96.125 "/>
</clipPath>
<clipPath id="clip36">
  <path d="M -55.222656 96.125 L 313.816406 96.125 L 313.816406 262.449219 L -55.222656 262.449219 Z M -55.222656 96.125 L 140.136719 226.222656 C 140.136719 237.082031 131.335938 245.886719 120.472656 245.886719 C 109.613281 245.886719 100.808594 237.082031 100.808594 226.222656 C 100.808594 215.359375 109.613281 206.558594 120.472656 206.558594 C 131.335938 206.558594 140.136719 215.359375 140.136719 226.222656 Z M -55.222656 96.125 "/>
</clipPath>
<clipPath id="clip37">
  <path d="M 53 27 L 194 27 L 194 188 L 53 188 Z M 53 27 "/>
</clipPath>
<clipPath id="clip38">
  <path d="M -45.730469 -8.847656 L 293.21875 -8.847656 L 293.21875 223.996094 L -45.730469 223.996094 Z M -45.730469 -8.847656 L 157.785156 132.351562 C 157.785156 143.214844 148.980469 152.015625 138.121094 152.015625 C 127.257812 152.015625 118.457031 143.214844 118.457031 132.351562 C 118.457031 121.492188 127.257812 112.6875 138.121094 112.6875 C 148.980469 112.6875 157.785156 121.492188 157.785156 132.351562 Z M -45.730469 -8.847656 "/>
</clipPath>
<clipPath id="clip39">
  <path d="M -45.730469 -8.847656 L 293.21875 -8.847656 L 293.21875 223.996094 L -45.730469 223.996094 Z M -45.730469 -8.847656 L 129.03125 82.796875 C 129.03125 93.65625 120.226562 102.460938 109.367188 102.460938 C 98.507812 102.460938 89.703125 93.65625 89.703125 82.796875 C 89.703125 71.9375 98.507812 63.132812 109.367188 63.132812 C 120.226562 63.132812 129.03125 71.9375 129.03125 82.796875 Z M -45.730469 -8.847656 "/>
</clipPath>
<clipPath id="clip40">
  <path d="M 82 11 L 279 11 L 279 188 L 82 188 Z M 82 11 "/>
</clipPath>
<clipPath id="clip41">
  <path d="M 27.6875 -75.582031 L 333.6875 -75.582031 L 333.6875 274.855469 L 27.6875 274.855469 Z M 27.6875 -75.582031 L 157.785156 132.351562 C 157.785156 143.214844 148.980469 152.015625 138.121094 152.015625 C 127.257812 152.015625 118.457031 143.214844 118.457031 132.351562 C 118.457031 121.492188 127.257812 112.6875 138.121094 112.6875 C 148.980469 112.6875 157.785156 121.492188 157.785156 132.351562 Z M 27.6875 -75.582031 "/>
</clipPath>
<clipPath id="clip42">
  <path d="M 27.6875 -75.582031 L 333.6875 -75.582031 L 333.6875 274.855469 L 27.6875 274.855469 Z M 27.6875 -75.582031 L 242.917969 66.921875 C 242.917969 77.78125 234.117188 86.585938 223.253906 86.585938 C 212.394531 86.585938 203.589844 77.78125 203.589844 66.921875 C 203.589844 56.058594 212.394531 47.257812 223.253906 47.257812 C 234.117188 47.257812 242.917969 56.058594 242.917969 66.921875 Z M 27.6875 -75.582031 "/>
</clipPath>
<clipPath id="clip43">
  <path d="M 53 0 L 217 0 L 217 139 L 53 139 Z M 53 0 "/>
</clipPath>
<clipPath id="clip44">
  <path d="M 8.71875 -100.734375 L 261.230469 -100.734375 L 261.230469 232.300781 L 8.71875 232.300781 Z M 8.71875 -100.734375 L 129.03125 82.796875 C 129.03125 93.65625 120.226562 102.460938 109.367188 102.460938 C 98.507812 102.460938 89.703125 93.65625 89.703125 82.796875 C 89.703125 71.9375 98.507812 63.132812 109.367188 63.132812 C 120.226562 63.132812 129.03125 71.9375 129.03125 82.796875 Z M 8.71875 -100.734375 "/>
</clipPath>
<clipPath id="clip45">
  <path d="M 8.71875 -100.734375 L 261.230469 -100.734375 L 261.230469 232.300781 L 8.71875 232.300781 Z M 8.71875 -100.734375 L 180.246094 48.769531 C 180.246094 59.632812 171.441406 68.433594 160.582031 68.433594 C 149.722656 68.433594 140.917969 59.632812 140.917969 48.769531 C 140.917969 37.910156 149.722656 29.105469 160.582031 29.105469 C 171.441406 29.105469 180.246094 37.910156 180.246094 48.769531 Z M 8.71875 -100.734375 "/>
</clipPath>
<clipPath id="clip46">
  <path d="M 108.027344 0 L 275.808594 0 L 275.808594 123 L 108.027344 123 Z M 108.027344 0 "/>
</clipPath>
<clipPath id="clip47">
  <path d="M 108.027344 -123.035156 L 275.808594 -123.035156 L 275.808594 238.726562 L 108.027344 238.726562 Z M 108.027344 -123.035156 L 242.917969 66.921875 C 242.917969 77.78125 234.117188 86.585938 223.253906 86.585938 C 212.394531 86.585938 203.589844 77.78125 203.589844 66.921875 C 203.589844 56.058594 212.394531 47.257812 223.253906 47.257812 C 234.117188 47.257812 242.917969 56.058594 242.917969 66.921875 Z M 108.027344 -123.035156 "/>
</clipPath>
<clipPath id="clip48">
  <path d="M 108.027344 -123.035156 L 275.808594 -123.035156 L 275.808594 238.726562 L 108.027344 238.726562 Z M 108.027344 -123.035156 L 180.246094 48.769531 C 180.246094 59.632812 171.441406 68.433594 160.582031 68.433594 C 149.722656 68.433594 140.917969 59.632812 140.917969 48.769531 C 140.917969 37.910156 149.722656 29.105469 160.582031 29.105469 C 171.441406 29.105469 180.246094 37.910156 180.246094 48.769531 Z M 108.027344 -123.035156 "/>
</clipPath>
<clipPath id="clip49">
  <path d="M 183.835938 0 L 367.8125 0 L 367.8125 123 L 183.835938 123 Z M 183.835938 0 "/>
</clipPath>
<clipPath id="clip50">
  <path d="M 183.835938 -129.941406 L 367.8125 -129.941406 L 367.8125 241.984375 L 183.835938 241.984375 Z M 183.835938 -129.941406 L 242.917969 66.921875 C 242.917969 77.78125 234.117188 86.585938 223.253906 86.585938 C 212.394531 86.585938 203.589844 77.78125 203.589844 66.921875 C 203.589844 56.058594 212.394531 47.257812 223.253906 47.257812 C 234.117188 47.257812 242.917969 56.058594 242.917969 66.921875 Z M 183.835938 -129.941406 "/>
</clipPath>
<clipPath id="clip51">
  <path d="M 183.835938 -129.941406 L 367.8125 -129.941406 L 367.8125 241.984375 L 183.835938 241.984375 Z M 183.835938 -129.941406 L 348.058594 45.121094 C 348.058594 55.984375 339.253906 64.785156 328.394531 64.785156 C 317.53125 64.785156 308.730469 55.984375 308.730469 45.121094 C 308.730469 34.261719 317.53125 25.457031 328.394531 25.457031 C 339.253906 25.457031 348.058594 34.261719 348.058594 45.121094 Z M 183.835938 -129.941406 "/>
</clipPath>
<clipPath id="clip52">
  <path d="M 313.949219 0 L 408.714844 0 L 408.714844 101 L 313.949219 101 Z M 313.949219 0 "/>
</clipPath>
<clipPath id="clip53">
  <path d="M 313.949219 -137.234375 L 408.714844 -137.234375 L 408.714844 223.507812 L 313.949219 223.507812 Z M 313.949219 -137.234375 L 413.933594 41.152344 C 413.933594 52.011719 405.128906 60.816406 394.269531 60.816406 C 383.410156 60.816406 374.605469 52.011719 374.605469 41.152344 C 374.605469 30.292969 383.410156 21.488281 394.269531 21.488281 C 405.128906 21.488281 413.933594 30.292969 413.933594 41.152344 Z M 313.949219 -137.234375 "/>
</clipPath>
<clipPath id="clip54">
  <path d="M 313.949219 -137.234375 L 408.714844 -137.234375 L 408.714844 223.507812 L 313.949219 223.507812 Z M 313.949219 -137.234375 L 348.058594 45.121094 C 348.058594 55.984375 339.253906 64.785156 328.394531 64.785156 C 317.53125 64.785156 308.730469 55.984375 308.730469 45.121094 C 308.730469 34.261719 317.53125 25.457031 328.394531 25.457031 C 339.253906 25.457031 348.058594 34.261719 348.058594 45.121094 Z M 313.949219 -137.234375 "/>
</clipPath>
<clipPath id="clip55">
  <path d="M 324.484375 213 L 494.640625 213 L 494.640625 338 L 324.484375 338 Z M 324.484375 213 "/>
</clipPath>
<clipPath id="clip56">
  <path d="M 324.484375 91.640625 L 494.640625 91.640625 L 494.640625 459.730469 L 324.484375 459.730469 Z M 324.484375 91.640625 L 364.539062 281.804688 C 364.539062 292.664062 355.734375 301.46875 344.875 301.46875 C 334.015625 301.46875 325.210938 292.664062 325.210938 281.804688 C 325.210938 270.941406 334.015625 262.140625 344.875 262.140625 C 355.734375 262.140625 364.539062 270.941406 364.539062 281.804688 Z M 324.484375 91.640625 "/>
</clipPath>
<clipPath id="clip57">
  <path d="M 324.484375 91.640625 L 494.640625 91.640625 L 494.640625 459.730469 L 324.484375 459.730469 Z M 324.484375 91.640625 L 493.914062 269.566406 C 493.914062 280.425781 485.109375 289.230469 474.25 289.230469 C 463.390625 289.230469 454.585938 280.425781 454.585938 269.566406 C 454.585938 258.703125 463.390625 249.902344 474.25 249.902344 C 485.109375 249.902344 493.914062 258.703125 493.914062 269.566406 Z M 324.484375 91.640625 "/>
</clipPath>
<clipPath id="clip58">
  <path d="M 418 213 L 587 213 L 587 360 L 418 360 Z M 418 213 "/>
</clipPath>
<clipPath id="clip59">
  <path d="M 379.894531 116.074219 L 624.964844 116.074219 L 624.964844 457.132812 L 379.894531 457.132812 Z M 379.894531 116.074219 L 493.914062 269.566406 C 493.914062 280.425781 485.109375 289.230469 474.25 289.230469 C 463.390625 289.230469 454.585938 280.425781 454.585938 269.566406 C 454.585938 258.703125 463.390625 249.902344 474.25 249.902344 C 485.109375 249.902344 493.914062 258.703125 493.914062 269.566406 Z M 379.894531 116.074219 "/>
</clipPath>
<clipPath id="clip60">
  <path d="M 379.894531 116.074219 L 624.964844 116.074219 L 624.964844 457.132812 L 379.894531 457.132812 Z M 379.894531 116.074219 L 550.273438 303.640625 C 550.273438 314.5 541.472656 323.304688 530.609375 323.304688 C 519.75 323.304688 510.945312 314.5 510.945312 303.640625 C 510.945312 292.78125 519.75 283.976562 530.609375 283.976562 C 541.472656 283.976562 550.273438 292.78125 550.273438 303.640625 Z M 379.894531 116.074219 "/>
</clipPath>
<clipPath id="clip61">
  <path d="M 418 171 L 579 171 L 579 326 L 418 326 Z M 418 171 "/>
</clipPath>
<clipPath id="clip62">
  <path d="M 355.363281 91.160156 L 642.183594 91.160156 L 642.183594 405.144531 L 355.363281 405.144531 Z M 355.363281 91.160156 L 493.914062 269.566406 C 493.914062 280.425781 485.109375 289.230469 474.25 289.230469 C 463.390625 289.230469 454.585938 280.425781 454.585938 269.566406 C 454.585938 258.703125 463.390625 249.902344 474.25 249.902344 C 485.109375 249.902344 493.914062 258.703125 493.914062 269.566406 Z M 355.363281 91.160156 "/>
</clipPath>
<clipPath id="clip63">
  <path d="M 355.363281 91.160156 L 642.183594 91.160156 L 642.183594 405.144531 L 355.363281 405.144531 Z M 355.363281 91.160156 L 542.960938 226.738281 C 542.960938 237.597656 534.15625 246.402344 523.296875 246.402344 C 512.4375 246.402344 503.632812 237.597656 503.632812 226.738281 C 503.632812 215.878906 512.4375 207.074219 523.296875 207.074219 C 534.15625 207.074219 542.960938 215.878906 542.960938 226.738281 Z M 355.363281 91.160156 "/>
</clipPath>
</defs>
<g id="surface216">
<g clip-path="url(#clip1)" clip-rule="nonzero">
<g clip-path="url(#clip2)" clip-rule="evenodd">
<g clip-path="url(#clip3)" clip-rule="evenodd">
<path style="fill:none;stroke-width:0.022503;stroke-linecap:butt;stroke-linejoin:miter;stroke:rgb(17.96875%,20.3125%,21.09375%);stroke-opacity:0.8;stroke-miterlimit:10;" d="M 2.818571 3.676945 L 3.010609 3.511638 " transform="matrix(174.769509,0,0,174.769509,-176.97133,-122.781944)"/>
</g>
</g>
</g>
<g clip-path="url(#clip4)" clip-rule="nonzero">
<g clip-path="url(#clip5)" clip-rule="evenodd">
<g clip-path="url(#clip6)" clip-rule="evenodd">
<path style="fill:none;stroke-width:0.022503;stroke-linecap:butt;stroke-linejoin:miter;stroke:rgb(17.96875%,20.3125%,21.09375%);stroke-opacity:0.8;stroke-miterlimit:10;" d="M 2.818571 3.676945 L 2.526356 3.900163 " transform="matrix(174.769509,0,0,174.769509,-176.97133,-122.781944)"/>
</g>
</g>
</g>
<g clip-path="url(#clip7)" clip-rule="nonzero">
<g clip-path="url(#clip8)" clip-rule="evenodd">
<g clip-path="url(#clip9)" clip-rule="evenodd">
<path style="fill:none;stroke-width:0.022503;stroke-linecap:butt;stroke-linejoin:miter;stroke:rgb(17.96875%,20.3125%,21.09375%);stroke-opacity:0.8;stroke-miterlimit:10;" d="M 2.818571 3.676945 L 2.543387 3.440272 " transform="matrix(174.769509,0,0,174.769509,-176.97133,-122.781944)"/>
</g>
</g>
</g>
<g clip-path="url(#clip10)" clip-rule="nonzero">
<g clip-path="url(#clip11)" clip-rule="evenodd">
<g clip-path="url(#clip12)" clip-rule="evenodd">
<path style="fill:none;stroke-width:0.022503;stroke-linecap:butt;stroke-linejoin:miter;stroke:rgb(17.96875%,20.3125%,21.09375%);stroke-opacity:0.8;stroke-miterlimit:10;" d="M 3.010609 3.511638 L 2.543387 3.440272 " transform="matrix(174.769509,0,0,174.769509,-176.97133,-122.781944)"/>
</g>
</g>
</g>
<g clip-path="url(#clip13)" clip-rule="nonzero">
<g clip-path="url(#clip14)" clip-rule="evenodd">
<g clip-path="url(#clip15)" clip-rule="evenodd">
<path style="fill:none;stroke-width:0.022503;stroke-linecap:butt;stroke-linejoin:miter;stroke:rgb(17.96875%,20.3125%,21.09375%);stroke-opacity:0.8;stroke-miterlimit:10;" d="M 2.526356 3.900163 L 2.278708 3.74887 " transform="matrix(174.769509,0,0,174.769509,-176.97133,-122.781944)"/>
</g>
</g>
</g>
<g clip-path="url(#clip16)" clip-rule="nonzero">
<g clip-path="url(#clip17)" clip-rule="evenodd">
<g clip-path="url(#clip18)" clip-rule="evenodd">
<path style="fill:none;stroke-width:0.022503;stroke-linecap:butt;stroke-linejoin:miter;stroke:rgb(17.96875%,20.3125%,21.09375%);stroke-opacity:0.8;stroke-miterlimit:10;" d="M 2.121 2.980581 L 2.006944 2.477642 " transform="matrix(174.769509,0,0,174.769509,-176.97133,-122.781944)"/>
</g>
</g>
</g>
<g clip-path="url(#clip19)" clip-rule="nonzero">
<g clip-path="url(#clip20)" clip-rule="evenodd">
<g clip-path="url(#clip21)" clip-rule="evenodd">
<path style="fill:none;stroke-width:0.022503;stroke-linecap:butt;stroke-linejoin:miter;stroke:rgb(17.96875%,20.3125%,21.09375%);stroke-opacity:0.8;stroke-miterlimit:10;" d="M 2.121 2.980581 L 2.543387 3.440272 " transform="matrix(174.769509,0,0,174.769509,-176.97133,-122.781944)"/>
</g>
</g>
</g>
<g clip-path="url(#clip22)" clip-rule="nonzero">
<g clip-path="url(#clip23)" clip-rule="evenodd">
<g clip-path="url(#clip24)" clip-rule="evenodd">
<path style="fill:none;stroke-width:0.022503;stroke-linecap:butt;stroke-linejoin:miter;stroke:rgb(17.96875%,20.3125%,21.09375%);stroke-opacity:0.8;stroke-miterlimit:10;" d="M 2.006944 2.477642 L 1.701922 1.996942 " transform="matrix(174.769509,0,0,174.769509,-176.97133,-122.781944)"/>
</g>
</g>
</g>
<g clip-path="url(#clip25)" clip-rule="nonzero">
<g clip-path="url(#clip26)" clip-rule="evenodd">
<g clip-path="url(#clip27)" clip-rule="evenodd">
<path style="fill:none;stroke-width:0.022503;stroke-linecap:butt;stroke-linejoin:miter;stroke:rgb(17.96875%,20.3125%,21.09375%);stroke-opacity:0.8;stroke-miterlimit:10;" d="M 2.006944 2.477642 L 2.985912 2.314973 " transform="matrix(174.769509,0,0,174.769509,-176.97133,-122.781944)"/>
</g>
</g>
</g>
<g clip-path="url(#clip28)" clip-rule="nonzero">
<g clip-path="url(#clip29)" clip-rule="evenodd">
<g clip-path="url(#clip30)" clip-rule="evenodd">
<path style="fill:none;stroke-width:0.022503;stroke-linecap:butt;stroke-linejoin:miter;stroke:rgb(17.96875%,20.3125%,21.09375%);stroke-opacity:0.8;stroke-miterlimit:10;" d="M 2.006944 2.477642 L 1.409639 2.625113 " transform="matrix(174.769509,0,0,174.769509,-176.97133,-122.781944)"/>
</g>
</g>
</g>
<g clip-path="url(#clip31)" clip-rule="nonzero">
<g clip-path="url(#clip32)" clip-rule="evenodd">
<g clip-path="url(#clip33)" clip-rule="evenodd">
<path style="fill:none;stroke-width:0.022503;stroke-linecap:butt;stroke-linejoin:miter;stroke:rgb(17.96875%,20.3125%,21.09375%);stroke-opacity:0.8;stroke-miterlimit:10;" d="M 2.278708 3.74887 L 2.543387 3.440272 " transform="matrix(174.769509,0,0,174.769509,-176.97133,-122.781944)"/>
</g>
</g>
</g>
<g clip-path="url(#clip34)" clip-rule="nonzero">
<g clip-path="url(#clip35)" clip-rule="evenodd">
<g clip-path="url(#clip36)" clip-rule="evenodd">
<path style="fill:none;stroke-width:0.022503;stroke-linecap:butt;stroke-linejoin:miter;stroke:rgb(17.96875%,20.3125%,21.09375%);stroke-opacity:0.8;stroke-miterlimit:10;" d="M 1.802903 1.459828 L 1.701922 1.996942 " transform="matrix(174.769509,0,0,174.769509,-176.97133,-122.781944)"/>
</g>
</g>
</g>
<g clip-path="url(#clip37)" clip-rule="nonzero">
<g clip-path="url(#clip38)" clip-rule="evenodd">
<g clip-path="url(#clip39)" clip-rule="evenodd">
<path style="fill:none;stroke-width:0.022503;stroke-linecap:butt;stroke-linejoin:miter;stroke:rgb(17.96875%,20.3125%,21.09375%);stroke-opacity:0.8;stroke-miterlimit:10;" d="M 1.802903 1.459828 L 1.638378 1.176285 " transform="matrix(174.769509,0,0,174.769509,-176.97133,-122.781944)"/>
</g>
</g>
</g>
<g clip-path="url(#clip40)" clip-rule="nonzero">
<g clip-path="url(#clip41)" clip-rule="evenodd">
<g clip-path="url(#clip42)" clip-rule="evenodd">
<path style="fill:none;stroke-width:0.022503;stroke-linecap:butt;stroke-linejoin:miter;stroke:rgb(17.96875%,20.3125%,21.09375%);stroke-opacity:0.8;stroke-miterlimit:10;" d="M 1.802903 1.459828 L 2.290018 1.085451 " transform="matrix(174.769509,0,0,174.769509,-176.97133,-122.781944)"/>
</g>
</g>
</g>
<g clip-path="url(#clip43)" clip-rule="nonzero">
<g clip-path="url(#clip44)" clip-rule="evenodd">
<g clip-path="url(#clip45)" clip-rule="evenodd">
<path style="fill:none;stroke-width:0.022503;stroke-linecap:butt;stroke-linejoin:miter;stroke:rgb(17.96875%,20.3125%,21.09375%);stroke-opacity:0.8;stroke-miterlimit:10;" d="M 1.638378 1.176285 L 1.93142 0.981587 " transform="matrix(174.769509,0,0,174.769509,-176.97133,-122.781944)"/>
</g>
</g>
</g>
<g clip-path="url(#clip46)" clip-rule="nonzero">
<g clip-path="url(#clip47)" clip-rule="evenodd">
<g clip-path="url(#clip48)" clip-rule="evenodd">
<path style="fill:none;stroke-width:0.022503;stroke-linecap:butt;stroke-linejoin:miter;stroke:rgb(17.96875%,20.3125%,21.09375%);stroke-opacity:0.8;stroke-miterlimit:10;" d="M 2.290018 1.085451 L 1.93142 0.981587 " transform="matrix(174.769509,0,0,174.769509,-176.97133,-122.781944)"/>
</g>
</g>
</g>
<g clip-path="url(#clip49)" clip-rule="nonzero">
<g clip-path="url(#clip50)" clip-rule="evenodd">
<g clip-path="url(#clip51)" clip-rule="evenodd">
<path style="fill:none;stroke-width:0.022503;stroke-linecap:butt;stroke-linejoin:miter;stroke:rgb(17.96875%,20.3125%,21.09375%);stroke-opacity:0.8;stroke-miterlimit:10;" d="M 2.290018 1.085451 L 2.891613 0.960711 " transform="matrix(174.769509,0,0,174.769509,-176.97133,-122.781944)"/>
</g>
</g>
</g>
<g clip-path="url(#clip52)" clip-rule="nonzero">
<g clip-path="url(#clip53)" clip-rule="evenodd">
<g clip-path="url(#clip54)" clip-rule="evenodd">
<path style="fill:none;stroke-width:0.022503;stroke-linecap:butt;stroke-linejoin:miter;stroke:rgb(17.96875%,20.3125%,21.09375%);stroke-opacity:0.8;stroke-miterlimit:10;" d="M 3.268538 0.938003 L 2.891613 0.960711 " transform="matrix(174.769509,0,0,174.769509,-176.97133,-122.781944)"/>
</g>
</g>
</g>
<g clip-path="url(#clip55)" clip-rule="nonzero">
<g clip-path="url(#clip56)" clip-rule="evenodd">
<g clip-path="url(#clip57)" clip-rule="evenodd">
<path style="fill:none;stroke-width:0.022503;stroke-linecap:butt;stroke-linejoin:miter;stroke:rgb(17.96875%,20.3125%,21.09375%);stroke-opacity:0.8;stroke-miterlimit:10;" d="M 2.985912 2.314973 L 3.726172 2.244947 " transform="matrix(174.769509,0,0,174.769509,-176.97133,-122.781944)"/>
</g>
</g>
</g>
<g clip-path="url(#clip58)" clip-rule="nonzero">
<g clip-path="url(#clip59)" clip-rule="evenodd">
<g clip-path="url(#clip60)" clip-rule="evenodd">
<path style="fill:none;stroke-width:0.022503;stroke-linecap:butt;stroke-linejoin:miter;stroke:rgb(17.96875%,20.3125%,21.09375%);stroke-opacity:0.8;stroke-miterlimit:10;" d="M 3.726172 2.244947 L 4.048651 2.439914 " transform="matrix(174.769509,0,0,174.769509,-176.97133,-122.781944)"/>
</g>
</g>
</g>
<g clip-path="url(#clip61)" clip-rule="nonzero">
<g clip-path="url(#clip62)" clip-rule="evenodd">
<g clip-path="url(#clip63)" clip-rule="evenodd">
<path style="fill:none;stroke-width:0.022503;stroke-linecap:butt;stroke-linejoin:miter;stroke:rgb(17.96875%,20.3125%,21.09375%);stroke-opacity:0.8;stroke-miterlimit:10;" d="M 3.726172 2.244947 L 4.00681 1.999892 " transform="matrix(174.769509,0,0,174.769509,-176.97133,-122.781944)"/>
</g>
</g>
</g>
<path style="fill-rule:nonzero;fill:rgb(100%,92.941176%,43.529412%);fill-opacity:1;stroke-width:0.022503;stroke-linecap:butt;stroke-linejoin:miter;stroke:rgb(60%,60%,60%);stroke-opacity:0.8;stroke-miterlimit:10;" d="M 0.112525 0.00000748635 C 0.112525 0.0621429 0.0621465 0.112522 0.0000111351 0.112522 C -0.0621466 0.112522 -0.112525 0.0621429 -0.112525 0.00000748635 C -0.112525 -0.0621503 -0.0621466 -0.112507 0.0000111351 -0.112507 C 0.0621465 -0.112507 0.112525 -0.0621503 0.112525 0.00000748635 Z M 0.112525 0.00000748635 " transform="matrix(174.769509,0,0,174.769509,315.62696,519.834629)"/>
<path style="fill-rule:nonzero;fill:rgb(55.294118%,82.745098%,78.039216%);fill-opacity:1;stroke-width:0.022503;stroke-linecap:butt;stroke-linejoin:miter;stroke:rgb(60%,60%,60%);stroke-opacity:0.8;stroke-miterlimit:10;" d="M 0.112522 -0.0000108912 C 0.112522 0.0621469 0.0621427 0.112526 0.00000727789 0.112526 C -0.0621505 0.112526 -0.112507 0.0621469 -0.112507 -0.0000108912 C -0.112507 -0.0621463 -0.0621505 -0.112525 0.00000727789 -0.112525 C 0.0621427 -0.112525 0.112522 -0.0621463 0.112522 -0.0000108912 Z M 0.112522 -0.0000108912 " transform="matrix(174.769509,0,0,174.769509,349.190134,490.947216)"/>
<path style="fill-rule:nonzero;fill:rgb(100%,92.941176%,43.529412%);fill-opacity:1;stroke-width:0.022503;stroke-linecap:butt;stroke-linejoin:miter;stroke:rgb(60%,60%,60%);stroke-opacity:0.8;stroke-miterlimit:10;" d="M 0.112514 0.00000600741 C 0.112514 0.0621414 0.0621348 0.11252 -0.000000588604 0.11252 C -0.062136 0.11252 -0.112515 0.0621414 -0.112515 0.00000600741 C -0.112515 -0.0621294 -0.062136 -0.112508 -0.000000588604 -0.112508 C 0.0621348 -0.112508 0.112514 -0.0621294 0.112514 0.00000600741 Z M 0.112514 0.00000600741 " transform="matrix(174.769509,0,0,174.769509,264.558697,558.846606)"/>
<path style="fill-rule:nonzero;fill:rgb(55.294118%,82.745098%,78.039216%);fill-opacity:1;stroke-width:0.022503;stroke-linecap:butt;stroke-linejoin:miter;stroke:rgb(60%,60%,60%);stroke-opacity:0.8;stroke-miterlimit:10;" d="M 0.112508 -0.00000439168 C 0.112508 0.062131 0.0621512 0.11251 -0.00000658393 0.11251 C -0.062142 0.11251 -0.112521 0.062131 -0.112521 -0.00000439168 C -0.112521 -0.0621398 -0.062142 -0.112519 -0.00000658393 -0.112519 C 0.0621512 -0.112519 0.112508 -0.0621398 0.112508 -0.00000439168 Z M 0.112508 -0.00000439168 " transform="matrix(174.769509,0,0,174.769509,193.715994,398.13358)"/>
<path style="fill-rule:nonzero;fill:rgb(55.294118%,82.745098%,78.039216%);fill-opacity:1;stroke-width:0.022503;stroke-linecap:butt;stroke-linejoin:miter;stroke:rgb(60%,60%,60%);stroke-opacity:0.8;stroke-miterlimit:10;" d="M 0.112516 -0.000000920912 C 0.112516 0.0621345 0.0621374 0.112513 0.00000196007 0.112513 C -0.0621334 0.112513 -0.112512 0.0621345 -0.112512 -0.000000920912 C -0.112512 -0.0621363 -0.0621334 -0.112515 0.00000196007 -0.112515 C 0.0621374 -0.112515 0.112516 -0.0621363 0.112516 -0.000000920912 Z M 0.112516 -0.000000920912 " transform="matrix(174.769509,0,0,174.769509,173.780907,310.234536)"/>
<path style="fill-rule:nonzero;fill:rgb(55.294118%,82.745098%,78.039216%);fill-opacity:1;stroke-width:0.022503;stroke-linecap:butt;stroke-linejoin:miter;stroke:rgb(60%,60%,60%);stroke-opacity:0.8;stroke-miterlimit:10;" d="M 0.112508 0.00000242595 C 0.112508 0.0621378 0.0621295 0.112517 -0.00000594491 0.112517 C -0.0621414 0.112517 -0.11252 0.0621378 -0.11252 0.00000242595 C -0.11252 -0.062133 -0.0621414 -0.112512 -0.00000594491 -0.112512 C 0.0621295 -0.112512 0.112508 -0.062133 0.112508 0.00000242595 Z M 0.112508 0.00000242595 " transform="matrix(174.769509,0,0,174.769509,221.278383,532.405826)"/>
<path style="fill-rule:nonzero;fill:rgb(55.294118%,82.745098%,78.039216%);fill-opacity:1;stroke-width:0.022503;stroke-linecap:butt;stroke-linejoin:miter;stroke:rgb(60%,60%,60%);stroke-opacity:0.8;stroke-miterlimit:10;" d="M 0.112522 0.0000104487 C 0.112522 0.0621459 0.062143 0.112525 0.00000756538 0.112525 C -0.0621502 0.112525 -0.112507 0.0621459 -0.112507 0.0000104487 C -0.112507 -0.0621473 -0.0621502 -0.112526 0.00000756538 -0.112526 C 0.062143 -0.112526 0.112522 -0.0621473 0.112522 0.0000104487 Z M 0.112522 0.0000104487 " transform="matrix(174.769509,0,0,174.769509,267.533834,478.47083)"/>
<path style="fill-rule:nonzero;fill:rgb(55.294118%,82.745098%,78.039216%);fill-opacity:1;stroke-width:0.022503;stroke-linecap:butt;stroke-linejoin:miter;stroke:rgb(60%,60%,60%);stroke-opacity:0.8;stroke-miterlimit:10;" d="M 0.112522 -0.00000750043 C 0.112522 0.0621503 0.0621434 0.112507 0.00000800444 0.112507 C -0.0621498 0.112507 -0.112506 0.0621503 -0.112506 -0.00000750043 C -0.112506 -0.0621429 -0.0621498 -0.112522 0.00000800444 -0.112522 C 0.0621434 -0.112522 0.112522 -0.0621429 0.112522 -0.00000750043 Z M 0.112522 -0.00000750043 " transform="matrix(174.769509,0,0,174.769509,138.119695,132.352873)"/>
<path style="fill-rule:nonzero;fill:rgb(55.294118%,82.745098%,78.039216%);fill-opacity:1;stroke-width:0.022503;stroke-linecap:butt;stroke-linejoin:miter;stroke:rgb(60%,60%,60%);stroke-opacity:0.8;stroke-miterlimit:10;" d="M 0.112505 0.0000103173 C 0.112505 0.0621457 0.0621489 0.112525 -0.00000890351 0.112525 C -0.0621443 0.112525 -0.112523 0.0621457 -0.112523 0.0000103173 C -0.112523 -0.0621474 -0.0621443 -0.112504 -0.00000890351 -0.112504 C 0.0621489 -0.112504 0.112505 -0.0621474 0.112505 0.0000103173 Z M 0.112505 0.0000103173 " transform="matrix(174.769509,0,0,174.769509,120.474212,226.220853)"/>
<path style="fill-rule:nonzero;fill:rgb(55.294118%,82.745098%,78.039216%);fill-opacity:1;stroke-width:0.022503;stroke-linecap:butt;stroke-linejoin:miter;stroke:rgb(60%,60%,60%);stroke-opacity:0.8;stroke-miterlimit:10;" d="M 0.11251 -0.00000286504 C 0.11251 0.0621325 0.062131 0.112511 -0.00000441144 0.112511 C -0.0621398 0.112511 -0.112519 0.0621325 -0.112519 -0.00000286504 C -0.112519 -0.0621383 -0.0621398 -0.112517 -0.00000441144 -0.112517 C 0.062131 -0.112517 0.11251 -0.0621383 0.11251 -0.00000286504 Z M 0.11251 -0.00000286504 " transform="matrix(174.769509,0,0,174.769509,109.367958,82.797376)"/>
<path style="fill-rule:nonzero;fill:rgb(55.294118%,82.745098%,78.039216%);fill-opacity:1;stroke-width:0.022503;stroke-linecap:butt;stroke-linejoin:miter;stroke:rgb(60%,60%,60%);stroke-opacity:0.8;stroke-miterlimit:10;" d="M 0.112505 0.00000925505 C 0.112505 0.0621447 0.0621484 0.112524 -0.00000934804 0.112524 C -0.0621448 0.112524 -0.112524 0.0621447 -0.112524 0.00000925505 C -0.112524 -0.0621485 -0.0621448 -0.112505 -0.00000934804 -0.112505 C 0.0621484 -0.112505 0.112505 -0.0621485 0.112505 0.00000925505 Z M 0.112505 0.00000925505 " transform="matrix(174.769509,0,0,174.769509,223.25554,66.920257)"/>
<path style="fill-rule:nonzero;fill:rgb(55.294118%,82.745098%,78.039216%);fill-opacity:1;stroke-width:0.022503;stroke-linecap:butt;stroke-linejoin:miter;stroke:rgb(60%,60%,60%);stroke-opacity:0.8;stroke-miterlimit:10;" d="M 0.112512 -0.00000600741 C 0.112512 0.0621294 0.0621327 0.112508 -0.00000271989 0.112508 C -0.0621381 0.112508 -0.112517 0.0621294 -0.112517 -0.00000600741 C -0.112517 -0.0621414 -0.0621381 -0.11252 -0.00000271989 -0.11252 C 0.0621327 -0.11252 0.112512 -0.0621414 0.112512 -0.00000600741 Z M 0.112512 -0.00000600741 " transform="matrix(174.769509,0,0,174.769509,394.270007,41.153394)"/>
<path style="fill-rule:nonzero;fill:rgb(55.294118%,82.745098%,78.039216%);fill-opacity:1;stroke-width:0.022503;stroke-linecap:butt;stroke-linejoin:miter;stroke:rgb(60%,60%,60%);stroke-opacity:0.8;stroke-miterlimit:10;" d="M 0.11251 -0.00000788741 C 0.11251 0.0621499 0.0621307 0.112506 -0.00000471114 0.112506 C -0.0621401 0.112506 -0.112519 0.0621499 -0.112519 -0.00000788741 C -0.112519 -0.0621433 -0.0621401 -0.112522 -0.00000471114 -0.112522 C 0.0621307 -0.112522 0.11251 -0.0621433 0.11251 -0.00000788741 Z M 0.11251 -0.00000788741 " transform="matrix(174.769509,0,0,174.769509,160.582855,48.77091)"/>
<path style="fill-rule:nonzero;fill:rgb(55.294118%,82.745098%,78.039216%);fill-opacity:1;stroke-width:0.022503;stroke-linecap:butt;stroke-linejoin:miter;stroke:rgb(60%,60%,60%);stroke-opacity:0.8;stroke-miterlimit:10;" d="M 0.112524 -0.00000954142 C 0.112524 0.0621482 0.0621456 0.112505 0.0000101977 0.112505 C -0.0621476 0.112505 -0.112504 0.0621482 -0.112504 -0.00000954142 C -0.112504 -0.062145 -0.0621476 -0.112524 0.0000101977 -0.112524 C 0.0621456 -0.112524 0.112524 -0.062145 0.112524 -0.00000954142 Z M 0.112524 -0.00000954142 " transform="matrix(174.769509,0,0,174.769509,328.392749,45.122761)"/>
<path style="fill-rule:nonzero;fill:rgb(55.294118%,82.745098%,78.039216%);fill-opacity:1;stroke-width:0.022503;stroke-linecap:butt;stroke-linejoin:miter;stroke:rgb(60%,60%,60%);stroke-opacity:0.8;stroke-miterlimit:10;" d="M 0.112509 0.0000083631 C 0.112509 0.0621438 0.0621303 0.112523 -0.00000506198 0.112523 C -0.0621405 0.112523 -0.112519 0.0621438 -0.112519 0.0000083631 C -0.112519 -0.0621494 -0.0621405 -0.112506 -0.00000506198 -0.112506 C 0.0621303 -0.112506 0.112509 -0.0621494 0.112509 0.0000083631 Z M 0.112509 0.0000083631 " transform="matrix(174.769509,0,0,174.769509,344.875885,281.803226)"/>
<path style="fill-rule:nonzero;fill:rgb(55.294118%,82.745098%,78.039216%);fill-opacity:1;stroke-width:0.022503;stroke-linecap:butt;stroke-linejoin:miter;stroke:rgb(60%,60%,60%);stroke-opacity:0.8;stroke-miterlimit:10;" d="M 0.112516 0.00000674051 C 0.112516 0.0621421 0.0621373 0.112521 0.0000018749 0.112521 C -0.0621335 0.112521 -0.112512 0.0621421 -0.112512 0.00000674051 C -0.112512 -0.062151 -0.0621335 -0.112508 0.0000018749 -0.112508 C 0.0621373 -0.112508 0.112516 -0.062151 0.112516 0.00000674051 Z M 0.112516 0.00000674051 " transform="matrix(174.769509,0,0,174.769509,474.249672,269.565228)"/>
<path style="fill-rule:nonzero;fill:rgb(55.294118%,82.745098%,78.039216%);fill-opacity:1;stroke-width:0.022503;stroke-linecap:butt;stroke-linejoin:miter;stroke:rgb(60%,60%,60%);stroke-opacity:0.8;stroke-miterlimit:10;" d="M 0.112525 0.000000318116 C 0.112525 0.0621357 0.0621457 0.112515 0.0000102767 0.112515 C -0.0621475 0.112515 -0.112504 0.0621357 -0.112504 0.000000318116 C -0.112504 -0.0621351 -0.0621475 -0.112514 0.0000102767 -0.112514 C 0.0621457 -0.112514 0.112525 -0.0621351 0.112525 0.000000318116 Z M 0.112525 0.000000318116 " transform="matrix(174.769509,0,0,174.769509,69.388829,336.007757)"/>
<path style="fill-rule:nonzero;fill:rgb(55.294118%,82.745098%,78.039216%);fill-opacity:1;stroke-width:0.022503;stroke-linecap:butt;stroke-linejoin:miter;stroke:rgb(60%,60%,60%);stroke-opacity:0.8;stroke-miterlimit:10;" d="M 0.112504 0.000000668248 C 0.112504 0.0621361 0.0621475 0.112515 -0.0000102767 0.112515 C -0.0621457 0.112515 -0.112525 0.0621361 -0.112525 0.000000668248 C -0.112525 -0.0621347 -0.0621457 -0.112514 -0.0000102767 -0.112514 C 0.0621475 -0.112514 0.112504 -0.0621347 0.112504 0.000000668248 Z M 0.112504 0.000000668248 " transform="matrix(174.769509,0,0,174.769509,530.611171,303.640508)"/>
<path style="fill-rule:nonzero;fill:rgb(55.294118%,82.745098%,78.039216%);fill-opacity:1;stroke-width:0.022503;stroke-linecap:butt;stroke-linejoin:miter;stroke:rgb(60%,60%,60%);stroke-opacity:0.8;stroke-miterlimit:10;" d="M 0.112514 0.00000143172 C 0.112514 0.0621368 0.0621351 0.112516 -0.000000308024 0.112516 C -0.0621357 0.112516 -0.112515 0.0621368 -0.112515 0.00000143172 C -0.112515 -0.062134 -0.0621357 -0.112513 -0.000000308024 -0.112513 C 0.0621351 -0.112513 0.112514 -0.062134 0.112514 0.00000143172 Z M 0.112514 0.00000143172 " transform="matrix(174.769509,0,0,174.769509,523.296929,226.738031)"/>
</g>
</svg>
