<?xml version="1.0" encoding="UTF-8"?>
<svg xmlns="http://www.w3.org/2000/svg" xmlns:xlink="http://www.w3.org/1999/xlink" width="600pt" height="600pt" viewBox="0 0 600 600" version="1.1">
<defs>
<clipPath id="clip1">
  <path d="M 268 309.636719 L 384 309.636719 L 384 409.742188 L 268 409.742188 Z M 268 309.636719 "/>
</clipPath>
<clipPath id="clip2">
  <path d="M 147.429688 309.636719 L 504.917969 309.636719 L 504.917969 409.742188 L 147.429688 409.742188 Z M 147.429688 309.636719 L 343.652344 395.175781 C 343.652344 406.035156 334.847656 414.839844 323.988281 414.839844 C 313.128906 414.839844 304.324219 406.035156 304.324219 395.175781 C 304.324219 384.316406 313.128906 375.511719 323.988281 375.511719 C 334.847656 375.511719 343.652344 384.316406 343.652344 395.175781 Z M 147.429688 309.636719 "/>
</clipPath>
<clipPath id="clip3">
  <path d="M 147.429688 309.636719 L 504.917969 309.636719 L 504.917969 409.742188 L 147.429688 409.742188 Z M 147.429688 309.636719 L 348.023438 324.203125 C 348.023438 335.0625 339.21875 343.867188 328.359375 343.867188 C 317.5 343.867188 308.695312 335.0625 308.695312 324.203125 C 308.695312 313.34375 317.5 304.539062 328.359375 304.539062 C 339.21875 304.539062 348.023438 313.34375 348.023438 324.203125 Z M 147.429688 309.636719 "/>
</clipPath>
<clipPath id="clip4">
  <path d="M 200.179688 324 L 355.375 324 L 355.375 451 L 200.179688 451 Z M 200.179688 324 "/>
</clipPath>
<clipPath id="clip5">
  <path d="M 200.179688 205.625 L 355.375 205.625 L 355.375 569.867188 L 200.179688 569.867188 Z M 200.179688 205.625 L 343.652344 395.175781 C 343.652344 406.035156 334.847656 414.839844 323.988281 414.839844 C 313.128906 414.839844 304.324219 406.035156 304.324219 395.175781 C 304.324219 384.316406 313.128906 375.511719 323.988281 375.511719 C 334.847656 375.511719 343.652344 384.316406 343.652344 395.175781 Z M 200.179688 205.625 "/>
</clipPath>
<clipPath id="clip6">
  <path d="M 200.179688 205.625 L 355.375 205.625 L 355.375 569.867188 L 200.179688 569.867188 Z M 200.179688 205.625 L 251.230469 380.316406 C 251.230469 391.175781 242.425781 399.980469 231.566406 399.980469 C 220.703125 399.980469 211.898438 391.175781 211.898438 380.316406 C 211.898438 369.457031 220.703125 360.652344 231.566406 360.652344 C 242.425781 360.652344 251.230469 369.457031 251.230469 380.316406 Z M 200.179688 205.625 "/>
</clipPath>
<clipPath id="clip7">
  <path d="M 268 339 L 443 339 L 443 489 L 268 489 Z M 268 339 "/>
</clipPath>
<clipPath id="clip8">
  <path d="M 230.945312 243.011719 L 479.546875 243.011719 L 479.546875 584.921875 L 230.945312 584.921875 Z M 230.945312 243.011719 L 343.652344 395.175781 C 343.652344 406.035156 334.847656 414.839844 323.988281 414.839844 C 313.128906 414.839844 304.324219 406.035156 304.324219 395.175781 C 304.324219 384.316406 313.128906 375.511719 323.988281 375.511719 C 334.847656 375.511719 343.652344 384.316406 343.652344 395.175781 Z M 230.945312 243.011719 "/>
</clipPath>
<clipPath id="clip9">
  <path d="M 230.945312 243.011719 L 479.546875 243.011719 L 479.546875 584.921875 L 230.945312 584.921875 Z M 230.945312 243.011719 L 406.167969 432.757812 C 406.167969 443.617188 397.363281 452.421875 386.503906 452.421875 C 375.644531 452.421875 366.839844 443.617188 366.839844 432.757812 C 366.839844 421.898438 375.644531 413.09375 386.503906 413.09375 C 397.363281 413.09375 406.167969 421.898438 406.167969 432.757812 Z M 230.945312 243.011719 "/>
</clipPath>
<clipPath id="clip10">
  <path d="M 389 459 L 530 459 L 530 600 L 389 600 Z M 389 459 "/>
</clipPath>
<clipPath id="clip11">
  <path d="M 297.113281 416.472656 L 622.445312 416.472656 L 622.445312 657.871094 L 297.113281 657.871094 Z M 297.113281 416.472656 L 465.175781 515.496094 C 465.175781 526.359375 456.371094 535.160156 445.511719 535.160156 C 434.652344 535.160156 425.847656 526.359375 425.847656 515.496094 C 425.847656 504.636719 434.652344 495.832031 445.511719 495.832031 C 456.371094 495.832031 465.175781 504.636719 465.175781 515.496094 Z M 297.113281 416.472656 "/>
</clipPath>
<clipPath id="clip12">
  <path d="M 297.113281 416.472656 L 622.445312 416.472656 L 622.445312 657.871094 L 297.113281 657.871094 Z M 297.113281 416.472656 L 493.710938 558.847656 C 493.710938 569.707031 484.90625 578.511719 474.046875 578.511719 C 463.1875 578.511719 454.382812 569.707031 454.382812 558.847656 C 454.382812 547.988281 463.1875 539.183594 474.046875 539.183594 C 484.90625 539.183594 493.710938 547.988281 493.710938 558.847656 Z M 297.113281 416.472656 "/>
</clipPath>
<clipPath id="clip13">
  <path d="M 330 377 L 502 377 L 502 572 L 330 572 Z M 330 377 "/>
</clipPath>
<clipPath id="clip14">
  <path d="M 241.761719 328.398438 L 590.253906 328.398438 L 590.253906 619.855469 L 241.761719 619.855469 Z M 241.761719 328.398438 L 465.175781 515.496094 C 465.175781 526.359375 456.371094 535.160156 445.511719 535.160156 C 434.652344 535.160156 425.847656 526.359375 425.847656 515.496094 C 425.847656 504.636719 434.652344 495.832031 445.511719 495.832031 C 456.371094 495.832031 465.175781 504.636719 465.175781 515.496094 Z M 241.761719 328.398438 "/>
</clipPath>
<clipPath id="clip15">
  <path d="M 241.761719 328.398438 L 590.253906 328.398438 L 590.253906 619.855469 L 241.761719 619.855469 Z M 241.761719 328.398438 L 406.167969 432.757812 C 406.167969 443.617188 397.363281 452.421875 386.503906 452.421875 C 375.644531 452.421875 366.839844 443.617188 366.839844 432.757812 C 366.839844 421.898438 375.644531 413.09375 386.503906 413.09375 C 397.363281 413.09375 406.167969 421.898438 406.167969 432.757812 Z M 241.761719 328.398438 "/>
</clipPath>
<clipPath id="clip16">
  <path d="M 175 268 L 384 268 L 384 436 L 175 436 Z M 175 268 "/>
</clipPath>
<clipPath id="clip17">
  <path d="M 140.890625 170.640625 L 419.035156 170.640625 L 419.035156 533.878906 L 140.890625 533.878906 Z M 140.890625 170.640625 L 348.023438 324.203125 C 348.023438 335.0625 339.21875 343.867188 328.359375 343.867188 C 317.5 343.867188 308.695312 335.0625 308.695312 324.203125 C 308.695312 313.34375 317.5 304.539062 328.359375 304.539062 C 339.21875 304.539062 348.023438 313.34375 348.023438 324.203125 Z M 140.890625 170.640625 "/>
</clipPath>
<clipPath id="clip18">
  <path d="M 140.890625 170.640625 L 419.035156 170.640625 L 419.035156 533.878906 L 140.890625 533.878906 Z M 140.890625 170.640625 L 251.230469 380.316406 C 251.230469 391.175781 242.425781 399.980469 231.566406 399.980469 C 220.703125 399.980469 211.898438 391.175781 211.898438 380.316406 C 211.898438 369.457031 220.703125 360.652344 231.566406 360.652344 C 242.425781 360.652344 251.230469 369.457031 251.230469 380.316406 Z M 140.890625 170.640625 "/>
</clipPath>
<clipPath id="clip19">
  <path d="M 272 268 L 443 268 L 443 489 L 272 489 Z M 272 268 "/>
</clipPath>
<clipPath id="clip20">
  <path d="M 171.964844 238.609375 L 542.898438 238.609375 L 542.898438 518.351562 L 171.964844 518.351562 Z M 171.964844 238.609375 L 348.023438 324.203125 C 348.023438 335.0625 339.21875 343.867188 328.359375 343.867188 C 317.5 343.867188 308.695312 335.0625 308.695312 324.203125 C 308.695312 313.34375 317.5 304.539062 328.359375 304.539062 C 339.21875 304.539062 348.023438 313.34375 348.023438 324.203125 Z M 171.964844 238.609375 "/>
</clipPath>
<clipPath id="clip21">
  <path d="M 171.964844 238.609375 L 542.898438 238.609375 L 542.898438 518.351562 L 171.964844 518.351562 Z M 171.964844 238.609375 L 406.167969 432.757812 C 406.167969 443.617188 397.363281 452.421875 386.503906 452.421875 C 375.644531 452.421875 366.839844 443.617188 366.839844 432.757812 C 366.839844 421.898438 375.644531 413.09375 386.503906 413.09375 C 397.363281 413.09375 406.167969 421.898438 406.167969 432.757812 Z M 171.964844 238.609375 "/>
</clipPath>
<clipPath id="clip22">
  <path d="M 160 150 L 384 150 L 384 380 L 160 380 Z M 160 150 "/>
</clipPath>
<clipPath id="clip23">
  <path d="M 86.792969 83.019531 L 457.855469 83.019531 L 457.855469 447.078125 L 86.792969 447.078125 Z M 86.792969 83.019531 L 348.023438 324.203125 C 348.023438 335.0625 339.21875 343.867188 328.359375 343.867188 C 317.5 343.867188 308.695312 335.0625 308.695312 324.203125 C 308.695312 313.34375 317.5 304.539062 328.359375 304.539062 C 339.21875 304.539062 348.023438 313.34375 348.023438 324.203125 Z M 86.792969 83.019531 "/>
</clipPath>
<clipPath id="clip24">
  <path d="M 86.792969 83.019531 L 457.855469 83.019531 L 457.855469 447.078125 L 86.792969 447.078125 Z M 86.792969 83.019531 L 235.953125 205.894531 C 235.953125 216.757812 227.152344 225.558594 216.289062 225.558594 C 205.429688 225.558594 196.625 216.757812 196.625 205.894531 C 196.625 195.035156 205.429688 186.230469 216.289062 186.230469 C 227.152344 186.230469 235.953125 195.035156 235.953125 205.894531 Z M 86.792969 83.019531 "/>
</clipPath>
<clipPath id="clip25">
  <path d="M 272 186 L 517 186 L 517 380 L 272 380 Z M 272 186 "/>
</clipPath>
<clipPath id="clip26">
  <path d="M 233.332031 91.105469 L 555.960938 91.105469 L 555.960938 475.15625 L 233.332031 475.15625 Z M 233.332031 91.105469 L 348.023438 324.203125 C 348.023438 335.0625 339.21875 343.867188 328.359375 343.867188 C 317.5 343.867188 308.695312 335.0625 308.695312 324.203125 C 308.695312 313.34375 317.5 304.539062 328.359375 304.539062 C 339.21875 304.539062 348.023438 313.34375 348.023438 324.203125 Z M 233.332031 91.105469 "/>
</clipPath>
<clipPath id="clip27">
  <path d="M 233.332031 91.105469 L 555.960938 91.105469 L 555.960938 475.15625 L 233.332031 475.15625 Z M 233.332031 91.105469 L 480.597656 242.058594 C 480.597656 252.917969 471.792969 261.722656 460.933594 261.722656 C 450.074219 261.722656 441.269531 252.917969 441.269531 242.058594 C 441.269531 231.199219 450.074219 222.394531 460.933594 222.394531 C 471.792969 222.394531 480.597656 231.199219 480.597656 242.058594 Z M 233.332031 91.105469 "/>
</clipPath>
<clipPath id="clip28">
  <path d="M 122.988281 323 L 238.128906 323 L 238.128906 436 L 122.988281 436 Z M 122.988281 323 "/>
</clipPath>
<clipPath id="clip29">
  <path d="M 122.988281 201.898438 L 238.128906 201.898438 L 238.128906 557.183594 L 122.988281 557.183594 Z M 122.988281 201.898438 L 251.230469 380.316406 C 251.230469 391.175781 242.425781 399.980469 231.566406 399.980469 C 220.703125 399.980469 211.898438 391.175781 211.898438 380.316406 C 211.898438 369.457031 220.703125 360.652344 231.566406 360.652344 C 242.425781 360.652344 251.230469 369.457031 251.230469 380.316406 Z M 122.988281 201.898438 "/>
</clipPath>
<clipPath id="clip30">
  <path d="M 122.988281 201.898438 L 238.128906 201.898438 L 238.128906 557.183594 L 122.988281 557.183594 Z M 122.988281 201.898438 L 149.214844 378.765625 C 149.214844 389.625 140.410156 398.429688 129.550781 398.429688 C 118.6875 398.429688 109.886719 389.625 109.886719 378.765625 C 109.886719 367.90625 118.6875 359.101562 129.550781 359.101562 C 140.410156 359.101562 149.214844 367.90625 149.214844 378.765625 Z M 122.988281 201.898438 "/>
</clipPath>
<clipPath id="clip31">
  <path d="M 94 324 L 288 324 L 288 476 L 94 476 Z M 94 324 "/>
</clipPath>
<clipPath id="clip32">
  <path d="M 70.746094 220.671875 L 310.773438 220.671875 L 310.773438 579.414062 L 70.746094 579.414062 Z M 70.746094 220.671875 L 251.230469 380.316406 C 251.230469 391.175781 242.425781 399.980469 231.566406 399.980469 C 220.703125 399.980469 211.898438 391.175781 211.898438 380.316406 C 211.898438 369.457031 220.703125 360.652344 231.566406 360.652344 C 242.425781 360.652344 251.230469 369.457031 251.230469 380.316406 Z M 70.746094 220.671875 "/>
</clipPath>
<clipPath id="clip33">
  <path d="M 70.746094 220.671875 L 310.773438 220.671875 L 310.773438 579.414062 L 70.746094 579.414062 Z M 70.746094 220.671875 L 169.617188 419.769531 C 169.617188 430.632812 160.816406 439.433594 149.953125 439.433594 C 139.09375 439.433594 130.289062 430.632812 130.289062 419.769531 C 130.289062 408.910156 139.09375 400.105469 149.953125 400.105469 C 160.816406 400.105469 169.617188 408.910156 169.617188 419.769531 Z M 70.746094 220.671875 "/>
</clipPath>
<clipPath id="clip34">
  <path d="M 94 93 L 272 93 L 272 262 L 94 262 Z M 94 93 "/>
</clipPath>
<clipPath id="clip35">
  <path d="M 32.984375 13.683594 L 333.148438 13.683594 L 333.148438 340.828125 L 32.984375 340.828125 Z M 32.984375 13.683594 L 169.507812 148.617188 C 169.507812 159.476562 160.703125 168.28125 149.84375 168.28125 C 138.984375 168.28125 130.179688 159.476562 130.179688 148.617188 C 130.179688 137.753906 138.984375 128.953125 149.84375 128.953125 C 160.703125 128.953125 169.507812 137.753906 169.507812 148.617188 Z M 32.984375 13.683594 "/>
</clipPath>
<clipPath id="clip36">
  <path d="M 32.984375 13.683594 L 333.148438 13.683594 L 333.148438 340.828125 L 32.984375 340.828125 Z M 32.984375 13.683594 L 235.953125 205.894531 C 235.953125 216.757812 227.152344 225.558594 216.289062 225.558594 C 205.429688 225.558594 196.625 216.757812 196.625 205.894531 C 196.625 195.035156 205.429688 186.230469 216.289062 186.230469 C 227.152344 186.230469 235.953125 195.035156 235.953125 205.894531 Z M 32.984375 13.683594 "/>
</clipPath>
<clipPath id="clip37">
  <path d="M 261 0 L 424 0 L 424 130 L 261 130 Z M 261 0 "/>
</clipPath>
<clipPath id="clip38">
  <path d="M 219.414062 -108.054688 L 465.792969 -108.054688 L 465.792969 223.179688 L 219.414062 223.179688 Z M 219.414062 -108.054688 L 336.867188 41.152344 C 336.867188 52.011719 328.0625 60.816406 317.203125 60.816406 C 306.339844 60.816406 297.539062 52.011719 297.539062 41.152344 C 297.539062 30.292969 306.339844 21.488281 317.203125 21.488281 C 328.0625 21.488281 336.867188 30.292969 336.867188 41.152344 Z M 219.414062 -108.054688 "/>
</clipPath>
<clipPath id="clip39">
  <path d="M 219.414062 -108.054688 L 465.792969 -108.054688 L 465.792969 223.179688 L 219.414062 223.179688 Z M 219.414062 -108.054688 L 387.667969 73.972656 C 387.667969 84.832031 378.867188 93.636719 368.003906 93.636719 C 357.144531 93.636719 348.339844 84.832031 348.339844 73.972656 C 348.339844 63.113281 357.144531 54.308594 368.003906 54.308594 C 378.867188 54.308594 387.667969 63.113281 387.667969 73.972656 Z M 219.414062 -108.054688 "/>
</clipPath>
<clipPath id="clip40">
  <path d="M 405 186 L 592 186 L 592 345 L 405 345 Z M 405 186 "/>
</clipPath>
<clipPath id="clip41">
  <path d="M 364.742188 91.835938 L 631.972656 91.835938 L 631.972656 439.484375 L 364.742188 439.484375 Z M 364.742188 91.835938 L 555.445312 289.261719 C 555.445312 300.121094 546.644531 308.925781 535.78125 308.925781 C 524.921875 308.925781 516.117188 300.121094 516.117188 289.261719 C 516.117188 278.398438 524.921875 269.597656 535.78125 269.597656 C 546.644531 269.597656 555.445312 278.398438 555.445312 289.261719 Z M 364.742188 91.835938 "/>
</clipPath>
<clipPath id="clip42">
  <path d="M 364.742188 91.835938 L 631.972656 91.835938 L 631.972656 439.484375 L 364.742188 439.484375 Z M 364.742188 91.835938 L 480.597656 242.058594 C 480.597656 252.917969 471.792969 261.722656 460.933594 261.722656 C 450.074219 261.722656 441.269531 252.917969 441.269531 242.058594 C 441.269531 231.199219 450.074219 222.394531 460.933594 222.394531 C 471.792969 222.394531 480.597656 231.199219 480.597656 242.058594 Z M 364.742188 91.835938 "/>
</clipPath>
<clipPath id="clip43">
  <path d="M 312 18 L 480 18 L 480 195 L 312 195 Z M 312 18 "/>
</clipPath>
<clipPath id="clip44">
  <path d="M 233.125 -42.949219 L 559.1875 -42.949219 L 559.1875 256.148438 L 233.125 256.148438 Z M 233.125 -42.949219 L 387.667969 73.972656 C 387.667969 84.832031 378.867188 93.636719 368.003906 93.636719 C 357.144531 93.636719 348.339844 84.832031 348.339844 73.972656 C 348.339844 63.113281 357.144531 54.308594 368.003906 54.308594 C 378.867188 54.308594 387.667969 63.113281 387.667969 73.972656 Z M 233.125 -42.949219 "/>
</clipPath>
<clipPath id="clip45">
  <path d="M 233.125 -42.949219 L 559.1875 -42.949219 L 559.1875 256.148438 L 233.125 256.148438 Z M 233.125 -42.949219 L 443.972656 139.226562 C 443.972656 150.085938 435.167969 158.890625 424.308594 158.890625 C 413.449219 158.890625 404.644531 150.085938 404.644531 139.226562 C 404.644531 128.367188 413.449219 119.5625 424.308594 119.5625 C 435.167969 119.5625 443.972656 128.367188 443.972656 139.226562 Z M 233.125 -42.949219 "/>
</clipPath>
<clipPath id="clip46">
  <path d="M 368 83 L 517 83 L 517 298 L 368 298 Z M 368 83 "/>
</clipPath>
<clipPath id="clip47">
  <path d="M 257.449219 77.265625 L 627.792969 77.265625 L 627.792969 304.019531 L 257.449219 304.019531 Z M 257.449219 77.265625 L 443.972656 139.226562 C 443.972656 150.085938 435.167969 158.890625 424.308594 158.890625 C 413.449219 158.890625 404.644531 150.085938 404.644531 139.226562 C 404.644531 128.367188 413.449219 119.5625 424.308594 119.5625 C 435.167969 119.5625 443.972656 128.367188 443.972656 139.226562 Z M 257.449219 77.265625 "/>
</clipPath>
<clipPath id="clip48">
  <path d="M 257.449219 77.265625 L 627.792969 77.265625 L 627.792969 304.019531 L 257.449219 304.019531 Z M 257.449219 77.265625 L 480.597656 242.058594 C 480.597656 252.917969 471.792969 261.722656 460.933594 261.722656 C 450.074219 261.722656 441.269531 252.917969 441.269531 242.058594 C 441.269531 231.199219 450.074219 222.394531 460.933594 222.394531 C 471.792969 222.394531 480.597656 231.199219 480.597656 242.058594 Z M 257.449219 77.265625 "/>
</clipPath>
<clipPath id="clip49">
  <path d="M 405 164 L 584.996094 164 L 584.996094 298 L 405 298 Z M 405 164 "/>
</clipPath>
<clipPath id="clip50">
  <path d="M 404.953125 51.707031 L 584.996094 51.707031 L 584.996094 410.925781 L 404.953125 410.925781 Z M 404.953125 51.707031 L 480.597656 242.058594 C 480.597656 252.917969 471.792969 261.722656 460.933594 261.722656 C 450.074219 261.722656 441.269531 252.917969 441.269531 242.058594 C 441.269531 231.199219 450.074219 222.394531 460.933594 222.394531 C 471.792969 222.394531 480.597656 231.199219 480.597656 242.058594 Z M 404.953125 51.707031 "/>
</clipPath>
<clipPath id="clip51">
  <path d="M 404.953125 51.707031 L 584.996094 51.707031 L 584.996094 410.925781 L 404.953125 410.925781 Z M 404.953125 51.707031 L 548.679688 220.574219 C 548.679688 231.433594 539.878906 240.238281 529.015625 240.238281 C 518.15625 240.238281 509.351562 231.433594 509.351562 220.574219 C 509.351562 209.710938 518.15625 200.910156 529.015625 200.910156 C 539.878906 200.910156 548.679688 209.710938 548.679688 220.574219 Z M 404.953125 51.707031 "/>
</clipPath>
<clipPath id="clip52">
  <path d="M 8 323 L 186 323 L 186 461 L 8 461 Z M 8 323 "/>
</clipPath>
<clipPath id="clip53">
  <path d="M -3.027344 213.882812 L 196.796875 213.882812 L 196.796875 569.347656 L -3.027344 569.347656 Z M -3.027344 213.882812 L 83.882812 404.464844 C 83.882812 415.324219 75.078125 424.128906 64.21875 424.128906 C 53.355469 424.128906 44.554688 415.324219 44.554688 404.464844 C 44.554688 393.605469 53.355469 384.800781 64.21875 384.800781 C 75.078125 384.800781 83.882812 393.605469 83.882812 404.464844 Z M -3.027344 213.882812 "/>
</clipPath>
<clipPath id="clip54">
  <path d="M -3.027344 213.882812 L 196.796875 213.882812 L 196.796875 569.347656 L -3.027344 569.347656 Z M -3.027344 213.882812 L 149.214844 378.765625 C 149.214844 389.625 140.410156 398.429688 129.550781 398.429688 C 118.6875 398.429688 109.886719 389.625 109.886719 378.765625 C 109.886719 367.90625 118.6875 359.101562 129.550781 359.101562 C 140.410156 359.101562 149.214844 367.90625 149.214844 378.765625 Z M -3.027344 213.882812 "/>
</clipPath>
<clipPath id="clip55">
  <path d="M 8 348 L 152 348 L 152 528 L 8 528 Z M 8 348 "/>
</clipPath>
<clipPath id="clip56">
  <path d="M -96.363281 327.222656 L 256.480469 327.222656 L 256.480469 549.402344 L -96.363281 549.402344 Z M -96.363281 327.222656 L 83.882812 404.464844 C 83.882812 415.324219 75.078125 424.128906 64.21875 424.128906 C 53.355469 424.128906 44.554688 415.324219 44.554688 404.464844 C 44.554688 393.605469 53.355469 384.800781 64.21875 384.800781 C 75.078125 384.800781 83.882812 393.605469 83.882812 404.464844 Z M -96.363281 327.222656 "/>
</clipPath>
<clipPath id="clip57">
  <path d="M -96.363281 327.222656 L 256.480469 327.222656 L 256.480469 549.402344 L -96.363281 549.402344 Z M -96.363281 327.222656 L 115.5625 472.160156 C 115.5625 483.019531 106.757812 491.824219 95.898438 491.824219 C 85.039062 491.824219 76.234375 483.019531 76.234375 472.160156 C 76.234375 461.296875 85.039062 452.492188 95.898438 452.492188 C 106.757812 452.492188 115.5625 461.296875 115.5625 472.160156 Z M -96.363281 327.222656 "/>
</clipPath>
<clipPath id="clip58">
  <path d="M 73 323 L 206 323 L 206 476 L 73 476 Z M 73 323 "/>
</clipPath>
<clipPath id="clip59">
  <path d="M -29.226562 297.785156 L 308.730469 297.785156 L 308.730469 500.75 L -29.226562 500.75 Z M -29.226562 297.785156 L 149.214844 378.765625 C 149.214844 389.625 140.410156 398.429688 129.550781 398.429688 C 118.6875 398.429688 109.886719 389.625 109.886719 378.765625 C 109.886719 367.90625 118.6875 359.101562 129.550781 359.101562 C 140.410156 359.101562 149.214844 367.90625 149.214844 378.765625 Z M -29.226562 297.785156 "/>
</clipPath>
<clipPath id="clip60">
  <path d="M -29.226562 297.785156 L 308.730469 297.785156 L 308.730469 500.75 L -29.226562 500.75 Z M -29.226562 297.785156 L 169.617188 419.769531 C 169.617188 430.632812 160.816406 439.433594 149.953125 439.433594 C 139.09375 439.433594 130.289062 430.632812 130.289062 419.769531 C 130.289062 408.910156 139.09375 400.105469 149.953125 400.105469 C 160.816406 400.105469 169.617188 408.910156 169.617188 419.769531 Z M -29.226562 297.785156 "/>
</clipPath>
<clipPath id="clip61">
  <path d="M 40 424.1875 L 171 424.1875 L 171 592.484375 L 40 592.484375 Z M 40 424.1875 "/>
</clipPath>
<clipPath id="clip62">
  <path d="M -75.285156 424.1875 L 286.132812 424.1875 L 286.132812 592.484375 L -75.285156 592.484375 Z M -75.285156 424.1875 L 134.613281 544.511719 C 134.613281 555.371094 125.808594 564.175781 114.949219 564.175781 C 104.089844 564.175781 95.285156 555.371094 95.285156 544.511719 C 95.285156 533.652344 104.089844 524.847656 114.949219 524.847656 C 125.808594 524.847656 134.613281 533.652344 134.613281 544.511719 Z M -75.285156 424.1875 "/>
</clipPath>
<clipPath id="clip63">
  <path d="M -75.285156 424.1875 L 286.132812 424.1875 L 286.132812 592.484375 L -75.285156 592.484375 Z M -75.285156 424.1875 L 115.5625 472.160156 C 115.5625 483.019531 106.757812 491.824219 95.898438 491.824219 C 85.039062 491.824219 76.234375 483.019531 76.234375 472.160156 C 76.234375 461.296875 85.039062 452.492188 95.898438 452.492188 C 106.757812 452.492188 115.5625 461.296875 115.5625 472.160156 Z M -75.285156 424.1875 "/>
</clipPath>
<clipPath id="clip64">
  <path d="M 40 364 L 206 364 L 206 528 L 40 528 Z M 40 364 "/>
</clipPath>
<clipPath id="clip65">
  <path d="M -28.40625 291.644531 L 274.257812 291.644531 L 274.257812 600.285156 L -28.40625 600.285156 Z M -28.40625 291.644531 L 169.617188 419.769531 C 169.617188 430.632812 160.816406 439.433594 149.953125 439.433594 C 139.09375 439.433594 130.289062 430.632812 130.289062 419.769531 C 130.289062 408.910156 139.09375 400.105469 149.953125 400.105469 C 160.816406 400.105469 169.617188 408.910156 169.617188 419.769531 Z M -28.40625 291.644531 "/>
</clipPath>
<clipPath id="clip66">
  <path d="M -28.40625 291.644531 L 274.257812 291.644531 L 274.257812 600.285156 L -28.40625 600.285156 Z M -28.40625 291.644531 L 115.5625 472.160156 C 115.5625 483.019531 106.757812 491.824219 95.898438 491.824219 C 85.039062 491.824219 76.234375 483.019531 76.234375 472.160156 C 76.234375 461.296875 85.039062 452.492188 95.898438 452.492188 C 106.757812 452.492188 115.5625 461.296875 115.5625 472.160156 Z M -28.40625 291.644531 "/>
</clipPath>
</defs>
<g id="surface56">
<g clip-path="url(#clip1)" clip-rule="nonzero">
<g clip-path="url(#clip2)" clip-rule="evenodd">
<g clip-path="url(#clip3)" clip-rule="evenodd">
<path style="fill:none;stroke-width:0.0227394;stroke-linecap:butt;stroke-linejoin:miter;stroke:rgb(17.96875%,20.3125%,21.09375%);stroke-opacity:0.8;stroke-miterlimit:10;" d="M 2.544115 2.779242 L 2.569388 2.368883 " transform="matrix(172.952373,0,0,172.952373,-116.022426,-85.500749)"/>
</g>
</g>
</g>
<g clip-path="url(#clip4)" clip-rule="nonzero">
<g clip-path="url(#clip5)" clip-rule="evenodd">
<g clip-path="url(#clip6)" clip-rule="evenodd">
<path style="fill:none;stroke-width:0.0227394;stroke-linecap:butt;stroke-linejoin:miter;stroke:rgb(17.96875%,20.3125%,21.09375%);stroke-opacity:0.8;stroke-miterlimit:10;" d="M 2.544115 2.779242 L 2.009737 2.693326 " transform="matrix(172.952373,0,0,172.952373,-116.022426,-85.500749)"/>
</g>
</g>
</g>
<g clip-path="url(#clip7)" clip-rule="nonzero">
<g clip-path="url(#clip8)" clip-rule="evenodd">
<g clip-path="url(#clip9)" clip-rule="evenodd">
<path style="fill:none;stroke-width:0.0227394;stroke-linecap:butt;stroke-linejoin:miter;stroke:rgb(17.96875%,20.3125%,21.09375%);stroke-opacity:0.8;stroke-miterlimit:10;" d="M 2.544115 2.779242 L 2.905576 2.996539 " transform="matrix(172.952373,0,0,172.952373,-116.022426,-85.500749)"/>
</g>
</g>
</g>
<g clip-path="url(#clip10)" clip-rule="nonzero">
<g clip-path="url(#clip11)" clip-rule="evenodd">
<g clip-path="url(#clip12)" clip-rule="evenodd">
<path style="fill:none;stroke-width:0.0227394;stroke-linecap:butt;stroke-linejoin:miter;stroke:rgb(17.96875%,20.3125%,21.09375%);stroke-opacity:0.8;stroke-miterlimit:10;" d="M 3.246756 3.474927 L 3.411744 3.725583 " transform="matrix(172.952373,0,0,172.952373,-116.022426,-85.500749)"/>
</g>
</g>
</g>
<g clip-path="url(#clip13)" clip-rule="nonzero">
<g clip-path="url(#clip14)" clip-rule="evenodd">
<g clip-path="url(#clip15)" clip-rule="evenodd">
<path style="fill:none;stroke-width:0.0227394;stroke-linecap:butt;stroke-linejoin:miter;stroke:rgb(17.96875%,20.3125%,21.09375%);stroke-opacity:0.8;stroke-miterlimit:10;" d="M 3.246756 3.474927 L 2.905576 2.996539 " transform="matrix(172.952373,0,0,172.952373,-116.022426,-85.500749)"/>
</g>
</g>
</g>
<g clip-path="url(#clip16)" clip-rule="nonzero">
<g clip-path="url(#clip17)" clip-rule="evenodd">
<g clip-path="url(#clip18)" clip-rule="evenodd">
<path style="fill:none;stroke-width:0.0227394;stroke-linecap:butt;stroke-linejoin:miter;stroke:rgb(17.96875%,20.3125%,21.09375%);stroke-opacity:0.8;stroke-miterlimit:10;" d="M 2.569388 2.368883 L 2.009737 2.693326 " transform="matrix(172.952373,0,0,172.952373,-116.022426,-85.500749)"/>
</g>
</g>
</g>
<g clip-path="url(#clip19)" clip-rule="nonzero">
<g clip-path="url(#clip20)" clip-rule="evenodd">
<g clip-path="url(#clip21)" clip-rule="evenodd">
<path style="fill:none;stroke-width:0.0227394;stroke-linecap:butt;stroke-linejoin:miter;stroke:rgb(17.96875%,20.3125%,21.09375%);stroke-opacity:0.8;stroke-miterlimit:10;" d="M 2.569388 2.368883 L 2.905576 2.996539 " transform="matrix(172.952373,0,0,172.952373,-116.022426,-85.500749)"/>
</g>
</g>
</g>
<g clip-path="url(#clip22)" clip-rule="nonzero">
<g clip-path="url(#clip23)" clip-rule="evenodd">
<g clip-path="url(#clip24)" clip-rule="evenodd">
<path style="fill:none;stroke-width:0.0227394;stroke-linecap:butt;stroke-linejoin:miter;stroke:rgb(17.96875%,20.3125%,21.09375%);stroke-opacity:0.8;stroke-miterlimit:10;" d="M 2.569388 2.368883 L 1.921405 1.68483 " transform="matrix(172.952373,0,0,172.952373,-116.022426,-85.500749)"/>
</g>
</g>
</g>
<g clip-path="url(#clip25)" clip-rule="nonzero">
<g clip-path="url(#clip26)" clip-rule="evenodd">
<g clip-path="url(#clip27)" clip-rule="evenodd">
<path style="fill:none;stroke-width:0.0227394;stroke-linecap:butt;stroke-linejoin:miter;stroke:rgb(17.96875%,20.3125%,21.09375%);stroke-opacity:0.8;stroke-miterlimit:10;" d="M 2.569388 2.368883 L 3.335924 1.893928 " transform="matrix(172.952373,0,0,172.952373,-116.022426,-85.500749)"/>
</g>
</g>
</g>
<g clip-path="url(#clip28)" clip-rule="nonzero">
<g clip-path="url(#clip29)" clip-rule="evenodd">
<g clip-path="url(#clip30)" clip-rule="evenodd">
<path style="fill:none;stroke-width:0.0227394;stroke-linecap:butt;stroke-linejoin:miter;stroke:rgb(17.96875%,20.3125%,21.09375%);stroke-opacity:0.8;stroke-miterlimit:10;" d="M 2.009737 2.693326 L 1.419889 2.68436 " transform="matrix(172.952373,0,0,172.952373,-116.022426,-85.500749)"/>
</g>
</g>
</g>
<g clip-path="url(#clip31)" clip-rule="nonzero">
<g clip-path="url(#clip32)" clip-rule="evenodd">
<g clip-path="url(#clip33)" clip-rule="evenodd">
<path style="fill:none;stroke-width:0.0227394;stroke-linecap:butt;stroke-linejoin:miter;stroke:rgb(17.96875%,20.3125%,21.09375%);stroke-opacity:0.8;stroke-miterlimit:10;" d="M 2.009737 2.693326 L 1.537854 2.921442 " transform="matrix(172.952373,0,0,172.952373,-116.022426,-85.500749)"/>
</g>
</g>
</g>
<g clip-path="url(#clip34)" clip-rule="nonzero">
<g clip-path="url(#clip35)" clip-rule="evenodd">
<g clip-path="url(#clip36)" clip-rule="evenodd">
<path style="fill:none;stroke-width:0.0227394;stroke-linecap:butt;stroke-linejoin:miter;stroke:rgb(17.96875%,20.3125%,21.09375%);stroke-opacity:0.8;stroke-miterlimit:10;" d="M 1.537222 1.353656 L 1.921405 1.68483 " transform="matrix(172.952373,0,0,172.952373,-116.022426,-85.500749)"/>
</g>
</g>
</g>
<g clip-path="url(#clip37)" clip-rule="nonzero">
<g clip-path="url(#clip38)" clip-rule="evenodd">
<g clip-path="url(#clip39)" clip-rule="evenodd">
<path style="fill:none;stroke-width:0.0227394;stroke-linecap:butt;stroke-linejoin:miter;stroke:rgb(17.96875%,20.3125%,21.09375%);stroke-opacity:0.8;stroke-miterlimit:10;" d="M 2.504884 0.7323 L 2.798611 0.922065 " transform="matrix(172.952373,0,0,172.952373,-116.022426,-85.500749)"/>
</g>
</g>
</g>
<g clip-path="url(#clip40)" clip-rule="nonzero">
<g clip-path="url(#clip41)" clip-rule="evenodd">
<g clip-path="url(#clip42)" clip-rule="evenodd">
<path style="fill:none;stroke-width:0.0227394;stroke-linecap:butt;stroke-linejoin:miter;stroke:rgb(17.96875%,20.3125%,21.09375%);stroke-opacity:0.8;stroke-miterlimit:10;" d="M 3.768689 2.166854 L 3.335924 1.893928 " transform="matrix(172.952373,0,0,172.952373,-116.022426,-85.500749)"/>
</g>
</g>
</g>
<g clip-path="url(#clip43)" clip-rule="nonzero">
<g clip-path="url(#clip44)" clip-rule="evenodd">
<g clip-path="url(#clip45)" clip-rule="evenodd">
<path style="fill:none;stroke-width:0.0227394;stroke-linecap:butt;stroke-linejoin:miter;stroke:rgb(17.96875%,20.3125%,21.09375%);stroke-opacity:0.8;stroke-miterlimit:10;" d="M 2.798611 0.922065 L 3.124161 1.29936 " transform="matrix(172.952373,0,0,172.952373,-116.022426,-85.500749)"/>
</g>
</g>
</g>
<g clip-path="url(#clip46)" clip-rule="nonzero">
<g clip-path="url(#clip47)" clip-rule="evenodd">
<g clip-path="url(#clip48)" clip-rule="evenodd">
<path style="fill:none;stroke-width:0.0227394;stroke-linecap:butt;stroke-linejoin:miter;stroke:rgb(17.96875%,20.3125%,21.09375%);stroke-opacity:0.8;stroke-miterlimit:10;" d="M 3.124161 1.29936 L 3.335924 1.893928 " transform="matrix(172.952373,0,0,172.952373,-116.022426,-85.500749)"/>
</g>
</g>
</g>
<g clip-path="url(#clip49)" clip-rule="nonzero">
<g clip-path="url(#clip50)" clip-rule="evenodd">
<g clip-path="url(#clip51)" clip-rule="evenodd">
<path style="fill:none;stroke-width:0.0227394;stroke-linecap:butt;stroke-linejoin:miter;stroke:rgb(17.96875%,20.3125%,21.09375%);stroke-opacity:0.8;stroke-miterlimit:10;" d="M 3.335924 1.893928 L 3.72957 1.769707 " transform="matrix(172.952373,0,0,172.952373,-116.022426,-85.500749)"/>
</g>
</g>
</g>
<g clip-path="url(#clip52)" clip-rule="nonzero">
<g clip-path="url(#clip53)" clip-rule="evenodd">
<g clip-path="url(#clip54)" clip-rule="evenodd">
<path style="fill:none;stroke-width:0.0227394;stroke-linecap:butt;stroke-linejoin:miter;stroke:rgb(17.96875%,20.3125%,21.09375%);stroke-opacity:0.8;stroke-miterlimit:10;" d="M 1.042143 2.832951 L 1.419889 2.68436 " transform="matrix(172.952373,0,0,172.952373,-116.022426,-85.500749)"/>
</g>
</g>
</g>
<g clip-path="url(#clip55)" clip-rule="nonzero">
<g clip-path="url(#clip56)" clip-rule="evenodd">
<g clip-path="url(#clip57)" clip-rule="evenodd">
<path style="fill:none;stroke-width:0.0227394;stroke-linecap:butt;stroke-linejoin:miter;stroke:rgb(17.96875%,20.3125%,21.09375%);stroke-opacity:0.8;stroke-miterlimit:10;" d="M 1.042143 2.832951 L 1.225313 3.224361 " transform="matrix(172.952373,0,0,172.952373,-116.022426,-85.500749)"/>
</g>
</g>
</g>
<g clip-path="url(#clip58)" clip-rule="nonzero">
<g clip-path="url(#clip59)" clip-rule="evenodd">
<g clip-path="url(#clip60)" clip-rule="evenodd">
<path style="fill:none;stroke-width:0.0227394;stroke-linecap:butt;stroke-linejoin:miter;stroke:rgb(17.96875%,20.3125%,21.09375%);stroke-opacity:0.8;stroke-miterlimit:10;" d="M 1.419889 2.68436 L 1.537854 2.921442 " transform="matrix(172.952373,0,0,172.952373,-116.022426,-85.500749)"/>
</g>
</g>
</g>
<g clip-path="url(#clip61)" clip-rule="nonzero">
<g clip-path="url(#clip62)" clip-rule="evenodd">
<g clip-path="url(#clip63)" clip-rule="evenodd">
<path style="fill:none;stroke-width:0.0227394;stroke-linecap:butt;stroke-linejoin:miter;stroke:rgb(17.96875%,20.3125%,21.09375%);stroke-opacity:0.8;stroke-miterlimit:10;" d="M 1.335464 3.642693 L 1.225313 3.224361 " transform="matrix(172.952373,0,0,172.952373,-116.022426,-85.500749)"/>
</g>
</g>
</g>
<g clip-path="url(#clip64)" clip-rule="nonzero">
<g clip-path="url(#clip65)" clip-rule="evenodd">
<g clip-path="url(#clip66)" clip-rule="evenodd">
<path style="fill:none;stroke-width:0.0227394;stroke-linecap:butt;stroke-linejoin:miter;stroke:rgb(17.96875%,20.3125%,21.09375%);stroke-opacity:0.8;stroke-miterlimit:10;" d="M 1.537854 2.921442 L 1.225313 3.224361 " transform="matrix(172.952373,0,0,172.952373,-116.022426,-85.500749)"/>
</g>
</g>
</g>
<path style="fill-rule:nonzero;fill:rgb(100%,92.941176%,43.529412%);fill-opacity:1;stroke-width:0.0227394;stroke-linecap:butt;stroke-linejoin:miter;stroke:rgb(60%,60%,60%);stroke-opacity:0.8;stroke-miterlimit:10;" d="M 0.113691 0.000000860218 C 0.113691 0.0627891 0.0627825 0.113697 -0.0000057703 0.113697 C -0.062794 0.113697 -0.113702 0.0627891 -0.113702 0.000000860218 C -0.113702 -0.0627874 -0.062794 -0.113696 -0.0000057703 -0.113696 C 0.0627825 -0.113696 0.113691 -0.0627874 0.113691 0.000000860218 Z M 0.113691 0.000000860218 " transform="matrix(172.952373,0,0,172.952373,323.989279,395.175632)"/>
<path style="fill-rule:nonzero;fill:rgb(100%,92.941176%,43.529412%);fill-opacity:1;stroke-width:0.0227394;stroke-linecap:butt;stroke-linejoin:miter;stroke:rgb(60%,60%,60%);stroke-opacity:0.8;stroke-miterlimit:10;" d="M 0.113699 -0.00000819726 C 0.113699 0.0628026 0.062791 0.113688 0.0000027682 0.113688 C -0.0627855 0.113688 -0.113694 0.0628026 -0.113694 -0.00000819726 C -0.113694 -0.0627964 -0.0627855 -0.113705 0.0000027682 -0.113705 C 0.062791 -0.113705 0.113699 -0.0627964 0.113699 -0.00000819726 Z M 0.113699 -0.00000819726 " transform="matrix(172.952373,0,0,172.952373,445.51124,515.497511)"/>
<path style="fill-rule:nonzero;fill:rgb(100%,92.941176%,43.529412%);fill-opacity:1;stroke-width:0.0227394;stroke-linecap:butt;stroke-linejoin:miter;stroke:rgb(60%,60%,60%);stroke-opacity:0.8;stroke-miterlimit:10;" d="M 0.113698 0.000000404849 C 0.113698 0.0627886 0.0627901 0.113697 0.00000184594 0.113697 C -0.0627864 0.113697 -0.113695 0.0627886 -0.113695 0.000000404849 C -0.113695 -0.0627878 -0.0627864 -0.113696 0.00000184594 -0.113696 C 0.0627901 -0.113696 0.113698 -0.0627878 0.113698 0.000000404849 Z M 0.113698 0.000000404849 " transform="matrix(172.952373,0,0,172.952373,328.359056,324.203055)"/>
<path style="fill-rule:nonzero;fill:rgb(100%,92.941176%,43.529412%);fill-opacity:1;stroke-width:0.0227394;stroke-linecap:butt;stroke-linejoin:miter;stroke:rgb(60%,60%,60%);stroke-opacity:0.8;stroke-miterlimit:10;" d="M 0.113707 -0.00000547443 C 0.113707 0.0627828 0.0627989 0.113691 0.0000107043 0.113691 C -0.0628001 0.113691 -0.113708 0.0627828 -0.113708 -0.00000547443 C -0.113708 -0.0627937 -0.0628001 -0.113702 0.0000107043 -0.113702 C 0.0627989 -0.113702 0.113707 -0.0627937 0.113707 -0.00000547443 Z M 0.113707 -0.00000547443 " transform="matrix(172.952373,0,0,172.952373,231.564555,380.317353)"/>
<path style="fill-rule:nonzero;fill:rgb(100%,92.941176%,43.529412%);fill-opacity:1;stroke-width:0.0227394;stroke-linecap:butt;stroke-linejoin:miter;stroke:rgb(60%,60%,60%);stroke-opacity:0.8;stroke-miterlimit:10;" d="M 0.113693 0.00000607052 C 0.113693 0.0627943 0.0627853 0.113702 -0.00000291037 0.113702 C -0.0627911 0.113702 -0.113699 0.0627943 -0.113699 0.00000607052 C -0.113699 -0.0627822 -0.0627911 -0.11369 -0.00000291037 -0.11369 C 0.0627853 -0.11369 0.113693 -0.0627822 0.113693 0.00000607052 Z M 0.113693 0.00000607052 " transform="matrix(172.952373,0,0,172.952373,474.047378,558.846606)"/>
<path style="fill-rule:nonzero;fill:rgb(100%,92.941176%,43.529412%);fill-opacity:1;stroke-width:0.0227394;stroke-linecap:butt;stroke-linejoin:miter;stroke:rgb(60%,60%,60%);stroke-opacity:0.8;stroke-miterlimit:10;" d="M 0.113698 0.00000676459 C 0.113698 0.062795 0.0627894 0.113703 0.00000117899 0.113703 C -0.0627871 0.113703 -0.113695 0.062795 -0.113695 0.00000676459 C -0.113695 -0.0628041 -0.0627871 -0.11369 0.00000117899 -0.11369 C 0.0627894 -0.11369 0.113698 -0.0628041 0.113698 0.00000676459 Z M 0.113698 0.00000676459 " transform="matrix(172.952373,0,0,172.952373,149.843546,148.616018)"/>
<path style="fill-rule:nonzero;fill:rgb(100%,92.941176%,43.529412%);fill-opacity:1;stroke-width:0.0227394;stroke-linecap:butt;stroke-linejoin:miter;stroke:rgb(60%,60%,60%);stroke-opacity:0.8;stroke-miterlimit:10;" d="M 0.113693 -0.000000317441 C 0.113693 0.0627879 0.0627844 0.113696 -0.00000384091 0.113696 C -0.0627921 0.113696 -0.1137 0.0627879 -0.1137 -0.000000317441 C -0.1137 -0.0627886 -0.0627921 -0.113697 -0.00000384091 -0.113697 C 0.0627844 -0.113697 0.113693 -0.0627886 0.113693 -0.000000317441 Z M 0.113693 -0.000000317441 " transform="matrix(172.952373,0,0,172.952373,386.504571,432.757867)"/>
<path style="fill-rule:nonzero;fill:rgb(100%,92.941176%,43.529412%);fill-opacity:1;stroke-width:0.0227394;stroke-linecap:butt;stroke-linejoin:miter;stroke:rgb(60%,60%,60%);stroke-opacity:0.8;stroke-miterlimit:10;" d="M 0.113687 -0.0000102205 C 0.113687 0.0628006 0.0628011 0.113686 -0.00000968553 0.113686 C -0.0627979 0.113686 -0.113706 0.0628006 -0.113706 -0.0000102205 C -0.113706 -0.0627985 -0.0627979 -0.113707 -0.00000968553 -0.113707 C 0.0628011 -0.113707 0.113687 -0.0627985 0.113687 -0.0000102205 Z M 0.113687 -0.0000102205 " transform="matrix(172.952373,0,0,172.952373,216.290738,205.896299)"/>
<path style="fill-rule:nonzero;fill:rgb(100%,92.941176%,43.529412%);fill-opacity:1;stroke-width:0.0227394;stroke-linecap:butt;stroke-linejoin:miter;stroke:rgb(60%,60%,60%);stroke-opacity:0.8;stroke-miterlimit:10;" d="M 0.113706 -0.00000607052 C 0.113706 0.0627822 0.0627981 0.11369 0.00000983104 0.11369 C -0.062801 0.11369 -0.113687 0.0627822 -0.113687 -0.00000607052 C -0.113687 -0.0627943 -0.062801 -0.113702 0.00000983104 -0.113702 C 0.0627981 -0.113702 0.113706 -0.0627943 0.113706 -0.00000607052 Z M 0.113706 -0.00000607052 " transform="matrix(172.952373,0,0,172.952373,317.201425,41.153394)"/>
<path style="fill-rule:nonzero;fill:rgb(100%,92.941176%,43.529412%);fill-opacity:1;stroke-width:0.0227394;stroke-linecap:butt;stroke-linejoin:miter;stroke:rgb(60%,60%,60%);stroke-opacity:0.8;stroke-miterlimit:10;" d="M 0.113687 0.00000700701 C 0.113687 0.0627952 0.0628017 0.113703 -0.00000911175 0.113703 C -0.0627974 0.113703 -0.113706 0.0627952 -0.113706 0.00000700701 C -0.113706 -0.0628038 -0.0627974 -0.113689 -0.00000911175 -0.113689 C 0.0628017 -0.113689 0.113687 -0.0628038 0.113687 0.00000700701 Z M 0.113687 0.00000700701 " transform="matrix(172.952373,0,0,172.952373,535.782826,289.260507)"/>
<path style="fill-rule:nonzero;fill:rgb(100%,92.941176%,43.529412%);fill-opacity:1;stroke-width:0.0227394;stroke-linecap:butt;stroke-linejoin:miter;stroke:rgb(60%,60%,60%);stroke-opacity:0.8;stroke-miterlimit:10;" d="M 0.113687 -0.00000248381 C 0.113687 0.0627858 0.0628012 0.113694 -0.00000960435 0.113694 C -0.0627978 0.113694 -0.113706 0.0627858 -0.113706 -0.00000248381 C -0.113706 -0.0627907 -0.0627978 -0.113699 -0.00000960435 -0.113699 C 0.0628012 -0.113699 0.113687 -0.0627907 0.113687 -0.00000248381 Z M 0.113687 -0.00000248381 " transform="matrix(172.952373,0,0,172.952373,368.005567,73.973086)"/>
<path style="fill-rule:nonzero;fill:rgb(100%,92.941176%,43.529412%);fill-opacity:1;stroke-width:0.0227394;stroke-linecap:butt;stroke-linejoin:miter;stroke:rgb(60%,60%,60%);stroke-opacity:0.8;stroke-miterlimit:10;" d="M 0.113697 0.00000401763 C 0.113697 0.0627923 0.0627884 0.1137 0.000000166459 0.1137 C -0.0627881 0.1137 -0.113696 0.0627923 -0.113696 0.00000401763 C -0.113696 -0.0627842 -0.0627881 -0.113692 0.000000166459 -0.113692 C 0.0627884 -0.113692 0.113697 -0.0627842 0.113697 0.00000401763 Z M 0.113697 0.00000401763 " transform="matrix(172.952373,0,0,172.952373,424.308565,139.225868)"/>
<path style="fill-rule:nonzero;fill:rgb(100%,92.941176%,43.529412%);fill-opacity:1;stroke-width:0.0227394;stroke-linecap:butt;stroke-linejoin:miter;stroke:rgb(60%,60%,60%);stroke-opacity:0.8;stroke-miterlimit:10;" d="M 0.113696 0.00000583721 C 0.113696 0.0627941 0.0627875 0.113702 -0.000000766447 0.113702 C -0.062789 0.113702 -0.113697 0.0627941 -0.113697 0.00000583721 C -0.113697 -0.0627824 -0.062789 -0.113691 -0.000000766447 -0.113691 C 0.0627875 -0.113691 0.113696 -0.0627824 0.113696 0.00000583721 Z M 0.113696 0.00000583721 " transform="matrix(172.952373,0,0,172.952373,460.933726,242.057584)"/>
<path style="fill-rule:nonzero;fill:rgb(100%,92.941176%,43.529412%);fill-opacity:1;stroke-width:0.0227394;stroke-linecap:butt;stroke-linejoin:miter;stroke:rgb(60%,60%,60%);stroke-opacity:0.8;stroke-miterlimit:10;" d="M 0.11369 0.000010163 C 0.11369 0.0627984 0.0628043 0.113707 -0.00000656126 0.113707 C -0.0627948 0.113707 -0.113703 0.0627984 -0.113703 0.000010163 C -0.113703 -0.0628007 -0.0627948 -0.113686 -0.00000656126 -0.113686 C 0.0628043 -0.113686 0.11369 -0.0628007 0.11369 0.000010163 Z M 0.11369 0.000010163 " transform="matrix(172.952373,0,0,172.952373,529.01676,220.572461)"/>
<path style="fill-rule:nonzero;fill:rgb(55.294118%,82.745098%,78.039216%);fill-opacity:1;stroke-width:0.0227394;stroke-linecap:butt;stroke-linejoin:miter;stroke:rgb(60%,60%,60%);stroke-opacity:0.8;stroke-miterlimit:10;" d="M 0.113706 0.00000378731 C 0.113706 0.062792 0.0627974 0.1137 0.00000911175 0.1137 C -0.0628017 0.1137 -0.113687 0.062792 -0.113687 0.00000378731 C -0.113687 -0.0627845 -0.0628017 -0.113693 0.00000911175 -0.113693 C 0.0627974 -0.113693 0.113706 -0.0627845 0.113706 0.00000378731 Z M 0.113706 0.00000378731 " transform="matrix(172.952373,0,0,172.952373,64.217174,404.464189)"/>
<path style="fill-rule:nonzero;fill:rgb(55.294118%,82.745098%,78.039216%);fill-opacity:1;stroke-width:0.0227394;stroke-linecap:butt;stroke-linejoin:miter;stroke:rgb(60%,60%,60%);stroke-opacity:0.8;stroke-miterlimit:10;" d="M 0.113704 -0.00000440131 C 0.113704 0.0627838 0.0627962 0.113692 0.00000792452 0.113692 C -0.0628029 0.113692 -0.113688 0.0627838 -0.113688 -0.00000440131 C -0.113688 -0.0627926 -0.0628029 -0.113701 0.00000792452 -0.113701 C 0.0627962 -0.113701 0.113704 -0.0627926 0.113704 -0.00000440131 Z M 0.113704 -0.00000440131 " transform="matrix(172.952373,0,0,172.952373,129.549411,378.766386)"/>
<path style="fill-rule:nonzero;fill:rgb(100%,92.941176%,43.529412%);fill-opacity:1;stroke-width:0.0227394;stroke-linecap:butt;stroke-linejoin:miter;stroke:rgb(60%,60%,60%);stroke-opacity:0.8;stroke-miterlimit:10;" d="M 0.113699 0.00000161011 C 0.113699 0.0627898 0.062791 0.113698 0.00000276282 0.113698 C -0.0627855 0.113698 -0.113694 0.0627898 -0.113694 0.00000161011 C -0.113694 -0.0627866 -0.0627855 -0.113695 0.00000276282 -0.113695 C 0.062791 -0.113695 0.113699 -0.0627866 0.113699 0.00000161011 Z M 0.113699 0.00000161011 " transform="matrix(172.952373,0,0,172.952373,114.948741,544.51144)"/>
<path style="fill-rule:nonzero;fill:rgb(100%,92.941176%,43.529412%);fill-opacity:1;stroke-width:0.0227394;stroke-linecap:butt;stroke-linejoin:miter;stroke:rgb(60%,60%,60%);stroke-opacity:0.8;stroke-miterlimit:10;" d="M 0.113688 -0.00000838466 C 0.113688 0.0628024 0.0628027 0.113688 -0.00000811455 0.113688 C -0.0627964 0.113688 -0.113705 0.0628024 -0.113705 -0.00000838466 C -0.113705 -0.0627966 -0.0627964 -0.113705 -0.00000811455 -0.113705 C 0.0628027 -0.113705 0.113688 -0.0627966 0.113688 -0.00000838466 Z M 0.113688 -0.00000838466 " transform="matrix(172.952373,0,0,172.952373,149.954528,419.770981)"/>
<path style="fill-rule:nonzero;fill:rgb(100%,92.941176%,43.529412%);fill-opacity:1;stroke-width:0.0227394;stroke-linecap:butt;stroke-linejoin:miter;stroke:rgb(60%,60%,60%);stroke-opacity:0.8;stroke-miterlimit:10;" d="M 0.113695 0.0000110997 C 0.113695 0.0627993 0.0627865 0.113708 -0.00000175372 0.113708 C -0.06279 0.113708 -0.113698 0.0627993 -0.113698 0.0000110997 C -0.113698 -0.0627997 -0.06279 -0.113708 -0.00000175372 -0.113708 C 0.0627865 -0.113708 0.113695 -0.0627997 0.113695 0.0000110997 Z M 0.113695 0.0000110997 " transform="matrix(172.952373,0,0,172.952373,95.898741,472.158237)"/>
</g>
</svg>
