<?xml version="1.0" encoding="UTF-8"?>
<svg xmlns="http://www.w3.org/2000/svg" xmlns:xlink="http://www.w3.org/1999/xlink" width="600pt" height="600pt" viewBox="0 0 600 600" version="1.1">
<defs>
<clipPath id="clip1">
  <path d="M 112 169.246094 L 243 169.246094 L 243 342.007812 L 112 342.007812 Z M 112 169.246094 "/>
</clipPath>
<clipPath id="clip2">
  <path d="M -5.4375 169.246094 L 360.84375 169.246094 L 360.84375 342.007812 L -5.4375 342.007812 Z M -5.4375 169.246094 L 190.339844 316.730469 C 190.339844 327.886719 181.292969 336.933594 170.136719 336.933594 C 158.980469 336.933594 149.933594 327.886719 149.933594 316.730469 C 149.933594 305.574219 158.980469 296.527344 170.136719 296.527344 C 181.292969 296.527344 190.339844 305.574219 190.339844 316.730469 Z M -5.4375 169.246094 "/>
</clipPath>
<clipPath id="clip3">
  <path d="M -5.4375 169.246094 L 360.84375 169.246094 L 360.84375 342.007812 L -5.4375 342.007812 Z M -5.4375 169.246094 L 205.464844 194.519531 C 205.464844 205.675781 196.421875 214.722656 185.265625 214.722656 C 174.105469 214.722656 165.0625 205.675781 165.0625 194.519531 C 165.0625 183.359375 174.105469 174.316406 185.265625 174.316406 C 196.421875 174.316406 205.464844 183.359375 205.464844 194.519531 Z M -5.4375 169.246094 "/>
</clipPath>
<clipPath id="clip4">
  <path d="M 31 259 L 228 259 L 228 403 L 31 403 Z M 31 259 "/>
</clipPath>
<clipPath id="clip5">
  <path d="M 28.105469 149.304688 L 230.566406 149.304688 L 230.566406 512.324219 L 28.105469 512.324219 Z M 28.105469 149.304688 L 190.339844 316.730469 C 190.339844 327.886719 181.292969 336.933594 170.136719 336.933594 C 158.980469 336.933594 149.933594 327.886719 149.933594 316.730469 C 149.933594 305.574219 158.980469 296.527344 170.136719 296.527344 C 181.292969 296.527344 190.339844 305.574219 190.339844 316.730469 Z M 28.105469 149.304688 "/>
</clipPath>
<clipPath id="clip6">
  <path d="M 28.105469 149.304688 L 230.566406 149.304688 L 230.566406 512.324219 L 28.105469 512.324219 Z M 28.105469 149.304688 L 108.734375 344.894531 C 108.734375 356.054688 99.6875 365.097656 88.53125 365.097656 C 77.371094 365.097656 68.328125 356.054688 68.328125 344.894531 C 68.328125 333.738281 77.371094 324.691406 88.53125 324.691406 C 99.6875 324.691406 108.734375 333.738281 108.734375 344.894531 Z M 28.105469 149.304688 "/>
</clipPath>
<clipPath id="clip7">
  <path d="M 112 259 L 313 259 L 313 471 L 112 471 Z M 112 259 "/>
</clipPath>
<clipPath id="clip8">
  <path d="M 36.488281 198.34375 L 388.988281 198.34375 L 388.988281 531.691406 L 36.488281 531.691406 Z M 36.488281 198.34375 L 190.339844 316.730469 C 190.339844 327.886719 181.292969 336.933594 170.136719 336.933594 C 158.980469 336.933594 149.933594 327.886719 149.933594 316.730469 C 149.933594 305.574219 158.980469 296.527344 170.136719 296.527344 C 181.292969 296.527344 190.339844 305.574219 190.339844 316.730469 Z M 36.488281 198.34375 "/>
</clipPath>
<clipPath id="clip9">
  <path d="M 36.488281 198.34375 L 388.988281 198.34375 L 388.988281 531.691406 L 36.488281 531.691406 Z M 36.488281 198.34375 L 275.539062 413.300781 C 275.539062 424.457031 266.492188 433.503906 255.335938 433.503906 C 244.175781 433.503906 235.132812 424.457031 235.132812 413.300781 C 235.132812 402.140625 244.175781 393.097656 255.335938 393.097656 C 266.492188 393.097656 275.539062 402.140625 275.539062 413.300781 Z M 36.488281 198.34375 "/>
</clipPath>
<clipPath id="clip10">
  <path d="M 71 103 L 243 103 L 243 252 L 71 252 Z M 71 103 "/>
</clipPath>
<clipPath id="clip11">
  <path d="M 35.089844 8.261719 L 278.703125 8.261719 L 278.703125 346.492188 L 35.089844 346.492188 Z M 35.089844 8.261719 L 148.726562 160.230469 C 148.726562 171.386719 139.679688 180.433594 128.523438 180.433594 C 117.363281 180.433594 108.320312 171.386719 108.320312 160.230469 C 108.320312 149.074219 117.363281 140.027344 128.523438 140.027344 C 139.679688 140.027344 148.726562 149.074219 148.726562 160.230469 Z M 35.089844 8.261719 "/>
</clipPath>
<clipPath id="clip12">
  <path d="M 35.089844 8.261719 L 278.703125 8.261719 L 278.703125 346.492188 L 35.089844 346.492188 Z M 35.089844 8.261719 L 205.464844 194.519531 C 205.464844 205.675781 196.421875 214.722656 185.265625 214.722656 C 174.105469 214.722656 165.0625 205.675781 165.0625 194.519531 C 165.0625 183.359375 174.105469 174.316406 185.265625 174.316406 C 196.421875 174.316406 205.464844 183.359375 205.464844 194.519531 Z M 35.089844 8.261719 "/>
</clipPath>
<clipPath id="clip13">
  <path d="M 128 62 L 332 62 L 332 252 L 128 252 Z M 128 62 "/>
</clipPath>
<clipPath id="clip14">
  <path d="M 69.992188 -16.394531 L 389.246094 -16.394531 L 389.246094 330.855469 L 69.992188 330.855469 Z M 69.992188 -16.394531 L 205.464844 194.519531 C 205.464844 205.675781 196.421875 214.722656 185.265625 214.722656 C 174.105469 214.722656 165.0625 205.675781 165.0625 194.519531 C 165.0625 183.359375 174.105469 174.316406 185.265625 174.316406 C 196.421875 174.316406 205.464844 183.359375 205.464844 194.519531 Z M 69.992188 -16.394531 "/>
</clipPath>
<clipPath id="clip15">
  <path d="M 69.992188 -16.394531 L 389.246094 -16.394531 L 389.246094 330.855469 L 69.992188 330.855469 Z M 69.992188 -16.394531 L 294.171875 119.9375 C 294.171875 131.097656 285.128906 140.140625 273.96875 140.140625 C 262.8125 140.140625 253.765625 131.097656 253.765625 119.9375 C 253.765625 108.78125 262.8125 99.734375 273.96875 99.734375 C 285.128906 99.734375 294.171875 108.78125 294.171875 119.9375 Z M 69.992188 -16.394531 "/>
</clipPath>
<clipPath id="clip16">
  <path d="M 398 83 L 577 83 L 577 240 L 398 240 Z M 398 83 "/>
</clipPath>
<clipPath id="clip17">
  <path d="M 356.523438 -7.628906 L 618.578125 -7.628906 L 618.578125 330.179688 L 356.523438 330.179688 Z M 356.523438 -7.628906 L 539.167969 182.121094 C 539.167969 193.28125 530.121094 202.324219 518.964844 202.324219 C 507.804688 202.324219 498.761719 193.28125 498.761719 182.121094 C 498.761719 170.964844 507.804688 161.917969 518.964844 161.917969 C 530.121094 161.917969 539.167969 170.964844 539.167969 182.121094 Z M 356.523438 -7.628906 "/>
</clipPath>
<clipPath id="clip18">
  <path d="M 356.523438 -7.628906 L 618.578125 -7.628906 L 618.578125 330.179688 L 356.523438 330.179688 Z M 356.523438 -7.628906 L 476.335938 140.425781 C 476.335938 151.582031 467.292969 160.628906 456.132812 160.628906 C 444.976562 160.628906 435.929688 151.582031 435.929688 140.425781 C 435.929688 129.265625 444.976562 120.222656 456.132812 120.222656 C 467.292969 120.222656 476.335938 129.265625 476.335938 140.425781 Z M 356.523438 -7.628906 "/>
</clipPath>
<clipPath id="clip19">
  <path d="M 461 124 L 600 124 L 600 279 L 461 279 Z M 461 124 "/>
</clipPath>
<clipPath id="clip20">
  <path d="M 393.289062 55.285156 L 683.808594 55.285156 L 683.808594 347.753906 L 393.289062 347.753906 Z M 393.289062 55.285156 L 539.167969 182.121094 C 539.167969 193.28125 530.121094 202.324219 518.964844 202.324219 C 507.804688 202.324219 498.761719 193.28125 498.761719 182.121094 C 498.761719 170.964844 507.804688 161.917969 518.964844 161.917969 C 530.121094 161.917969 539.167969 170.964844 539.167969 182.121094 Z M 393.289062 55.285156 "/>
</clipPath>
<clipPath id="clip21">
  <path d="M 393.289062 55.285156 L 683.808594 55.285156 L 683.808594 347.753906 L 393.289062 347.753906 Z M 393.289062 55.285156 L 578.332031 220.914062 C 578.332031 232.074219 569.289062 241.117188 558.128906 241.117188 C 546.972656 241.117188 537.925781 232.074219 537.925781 220.914062 C 537.925781 209.757812 546.972656 200.710938 558.128906 200.710938 C 569.289062 200.710938 578.332031 209.757812 578.332031 220.914062 Z M 393.289062 55.285156 "/>
</clipPath>
<clipPath id="clip22">
  <path d="M 322.738281 59 L 507.625 59 L 507.625 198 L 322.738281 198 Z M 322.738281 59 "/>
</clipPath>
<clipPath id="clip23">
  <path d="M 322.738281 -53.199219 L 507.625 -53.199219 L 507.625 310.671875 L 322.738281 310.671875 Z M 322.738281 -53.199219 L 476.335938 140.425781 C 476.335938 151.582031 467.292969 160.628906 456.132812 160.628906 C 444.976562 160.628906 435.929688 151.582031 435.929688 140.425781 C 435.929688 129.265625 444.976562 120.222656 456.132812 120.222656 C 467.292969 120.222656 476.335938 129.265625 476.335938 140.425781 Z M 322.738281 -53.199219 "/>
</clipPath>
<clipPath id="clip24">
  <path d="M 322.738281 -53.199219 L 507.625 -53.199219 L 507.625 310.671875 L 322.738281 310.671875 Z M 322.738281 -53.199219 L 394.429688 117.042969 C 394.429688 128.203125 385.382812 137.246094 374.226562 137.246094 C 363.066406 137.246094 354.023438 128.203125 354.023438 117.042969 C 354.023438 105.886719 363.066406 96.839844 374.226562 96.839844 C 385.382812 96.839844 394.429688 105.886719 394.429688 117.042969 Z M 322.738281 -53.199219 "/>
</clipPath>
<clipPath id="clip25">
  <path d="M 264.941406 59 L 383.257812 59 L 383.257812 178 L 264.941406 178 Z M 264.941406 59 "/>
</clipPath>
<clipPath id="clip26">
  <path d="M 264.941406 -59.765625 L 383.257812 -59.765625 L 383.257812 296.75 L 264.941406 296.75 Z M 264.941406 -59.765625 L 294.171875 119.9375 C 294.171875 131.097656 285.128906 140.140625 273.96875 140.140625 C 262.8125 140.140625 253.765625 131.097656 253.765625 119.9375 C 253.765625 108.78125 262.8125 99.734375 273.96875 99.734375 C 285.128906 99.734375 294.171875 108.78125 294.171875 119.9375 Z M 264.941406 -59.765625 "/>
</clipPath>
<clipPath id="clip27">
  <path d="M 264.941406 -59.765625 L 383.257812 -59.765625 L 383.257812 296.75 L 264.941406 296.75 Z M 264.941406 -59.765625 L 394.429688 117.042969 C 394.429688 128.203125 385.382812 137.246094 374.226562 137.246094 C 363.066406 137.246094 354.023438 128.203125 354.023438 117.042969 C 354.023438 105.886719 363.066406 96.839844 374.226562 96.839844 C 385.382812 96.839844 394.429688 105.886719 394.429688 117.042969 Z M 264.941406 -59.765625 "/>
</clipPath>
<clipPath id="clip28">
  <path d="M 204 23.710938 L 332 23.710938 L 332 159.75 L 204 159.75 Z M 204 23.710938 "/>
</clipPath>
<clipPath id="clip29">
  <path d="M 88.894531 23.710938 L 447.113281 23.710938 L 447.113281 159.75 L 88.894531 159.75 Z M 88.894531 23.710938 L 294.171875 119.9375 C 294.171875 131.097656 285.128906 140.140625 273.96875 140.140625 C 262.8125 140.140625 253.765625 131.097656 253.765625 119.9375 C 253.765625 108.78125 262.8125 99.734375 273.96875 99.734375 C 285.128906 99.734375 294.171875 108.78125 294.171875 119.9375 Z M 88.894531 23.710938 "/>
</clipPath>
<clipPath id="clip30">
  <path d="M 88.894531 23.710938 L 447.113281 23.710938 L 447.113281 159.75 L 88.894531 159.75 Z M 88.894531 23.710938 L 282.238281 63.519531 C 282.238281 74.679688 273.195312 83.722656 262.035156 83.722656 C 250.878906 83.722656 241.832031 74.679688 241.832031 63.519531 C 241.832031 52.363281 250.878906 43.316406 262.035156 43.316406 C 273.195312 43.316406 282.238281 52.363281 282.238281 63.519531 Z M 88.894531 23.710938 "/>
</clipPath>
<clipPath id="clip31">
  <path d="M 0 287 L 146 287 L 146 425 L 0 425 Z M 0 287 "/>
</clipPath>
<clipPath id="clip32">
  <path d="M -36.265625 184.699219 L 166.671875 184.699219 L 166.671875 527.234375 L -36.265625 527.234375 Z M -36.265625 184.699219 L 62.074219 367.035156 C 62.074219 378.191406 53.027344 387.238281 41.871094 387.238281 C 30.710938 387.238281 21.667969 378.191406 21.667969 367.035156 C 21.667969 355.875 30.710938 346.832031 41.871094 346.832031 C 53.027344 346.832031 62.074219 355.875 62.074219 367.035156 Z M -36.265625 184.699219 "/>
</clipPath>
<clipPath id="clip33">
  <path d="M -36.265625 184.699219 L 166.671875 184.699219 L 166.671875 527.234375 L -36.265625 527.234375 Z M -36.265625 184.699219 L 108.734375 344.894531 C 108.734375 356.054688 99.6875 365.097656 88.53125 365.097656 C 77.371094 365.097656 68.328125 356.054688 68.328125 344.894531 C 68.328125 333.738281 77.371094 324.691406 88.53125 324.691406 C 99.6875 324.691406 108.734375 333.738281 108.734375 344.894531 Z M -36.265625 184.699219 "/>
</clipPath>
<clipPath id="clip34">
  <path d="M 190 394.25 L 313 394.25 L 313 515.34375 L 190 515.34375 Z M 190 394.25 "/>
</clipPath>
<clipPath id="clip35">
  <path d="M 71.871094 394.25 L 431.570312 394.25 L 431.570312 515.34375 L 71.871094 515.34375 Z M 71.871094 394.25 L 275.539062 413.300781 C 275.539062 424.457031 266.492188 433.503906 255.335938 433.503906 C 244.175781 433.503906 235.132812 424.457031 235.132812 413.300781 C 235.132812 402.140625 244.175781 393.097656 255.335938 393.097656 C 266.492188 393.097656 275.539062 402.140625 275.539062 413.300781 Z M 71.871094 394.25 "/>
</clipPath>
<clipPath id="clip36">
  <path d="M 71.871094 394.25 L 431.570312 394.25 L 431.570312 515.34375 L 71.871094 515.34375 Z M 71.871094 394.25 L 268.304688 496.289062 C 268.304688 507.449219 259.257812 516.492188 248.101562 516.492188 C 236.945312 516.492188 227.898438 507.449219 227.898438 496.289062 C 227.898438 485.132812 236.945312 476.085938 248.101562 476.085938 C 259.257812 476.085938 268.304688 485.132812 268.304688 496.289062 Z M 71.871094 394.25 "/>
</clipPath>
<clipPath id="clip37">
  <path d="M 221.101562 356 L 409.890625 356 L 409.890625 492 L 221.101562 492 Z M 221.101562 356 "/>
</clipPath>
<clipPath id="clip38">
  <path d="M 221.101562 239.078125 L 409.890625 239.078125 L 409.890625 608.875 L 221.101562 608.875 Z M 221.101562 239.078125 L 275.539062 413.300781 C 275.539062 424.457031 266.492188 433.503906 255.335938 433.503906 C 244.175781 433.503906 235.132812 424.457031 235.132812 413.300781 C 235.132812 402.140625 244.175781 393.097656 255.335938 393.097656 C 266.492188 393.097656 275.539062 402.140625 275.539062 413.300781 Z M 221.101562 239.078125 "/>
</clipPath>
<clipPath id="clip39">
  <path d="M 221.101562 239.078125 L 409.890625 239.078125 L 409.890625 608.875 L 221.101562 608.875 Z M 221.101562 239.078125 L 395.855469 434.648438 C 395.855469 445.804688 386.8125 454.851562 375.652344 454.851562 C 364.496094 454.851562 355.449219 445.804688 355.449219 434.648438 C 355.449219 423.492188 364.496094 414.445312 375.652344 414.445312 C 386.8125 414.445312 395.855469 423.492188 395.855469 434.648438 Z M 221.101562 239.078125 "/>
</clipPath>
<clipPath id="clip40">
  <path d="M 333.125 455 L 506.558594 455 L 506.558594 590 L 333.125 590 Z M 333.125 455 "/>
</clipPath>
<clipPath id="clip41">
  <path d="M 333.125 343.605469 L 506.558594 343.605469 L 506.558594 702.34375 L 333.125 702.34375 Z M 333.125 343.605469 L 472.722656 532.847656 C 472.722656 544.007812 463.675781 553.050781 452.519531 553.050781 C 441.359375 553.050781 432.316406 544.007812 432.316406 532.847656 C 432.316406 521.691406 441.359375 512.644531 452.519531 512.644531 C 463.675781 512.644531 472.722656 521.691406 472.722656 532.847656 Z M 333.125 343.605469 "/>
</clipPath>
<clipPath id="clip42">
  <path d="M 333.125 343.605469 L 506.558594 343.605469 L 506.558594 702.34375 L 333.125 702.34375 Z M 333.125 343.605469 L 407.363281 513.097656 C 407.363281 524.257812 398.320312 533.300781 387.160156 533.300781 C 376.003906 533.300781 366.957031 524.257812 366.957031 513.097656 C 366.957031 501.941406 376.003906 492.894531 387.160156 492.894531 C 398.320312 492.894531 407.363281 501.941406 407.363281 513.097656 Z M 333.125 343.605469 "/>
</clipPath>
<clipPath id="clip43">
  <path d="M 253.875 455 L 438.777344 455 L 438.777344 594 L 253.875 594 Z M 253.875 455 "/>
</clipPath>
<clipPath id="clip44">
  <path d="M 253.875 342.890625 L 438.777344 342.890625 L 438.777344 706.691406 L 253.875 706.691406 Z M 253.875 342.890625 L 325.691406 536.480469 C 325.691406 547.636719 316.644531 556.683594 305.488281 556.683594 C 294.332031 556.683594 285.285156 547.636719 285.285156 536.480469 C 285.285156 525.320312 294.332031 516.277344 305.488281 516.277344 C 316.644531 516.277344 325.691406 525.320312 325.691406 536.480469 Z M 253.875 342.890625 "/>
</clipPath>
<clipPath id="clip45">
  <path d="M 253.875 342.890625 L 438.777344 342.890625 L 438.777344 706.691406 L 253.875 706.691406 Z M 253.875 342.890625 L 407.363281 513.097656 C 407.363281 524.257812 398.320312 533.300781 387.160156 533.300781 C 376.003906 533.300781 366.957031 524.257812 366.957031 513.097656 C 366.957031 501.941406 376.003906 492.894531 387.160156 492.894531 C 398.320312 492.894531 407.363281 501.941406 407.363281 513.097656 Z M 253.875 342.890625 "/>
</clipPath>
<clipPath id="clip46">
  <path d="M 190 439 L 363 439 L 363 594 L 190 594 Z M 190 439 "/>
</clipPath>
<clipPath id="clip47">
  <path d="M 144.910156 350.675781 L 408.683594 350.675781 L 408.683594 682.097656 L 144.910156 682.097656 Z M 144.910156 350.675781 L 325.691406 536.480469 C 325.691406 547.636719 316.644531 556.683594 305.488281 556.683594 C 294.332031 556.683594 285.285156 547.636719 285.285156 536.480469 C 285.285156 525.320312 294.332031 516.277344 305.488281 516.277344 C 316.644531 516.277344 325.691406 525.320312 325.691406 536.480469 Z M 144.910156 350.675781 "/>
</clipPath>
<clipPath id="clip48">
  <path d="M 144.910156 350.675781 L 408.683594 350.675781 L 408.683594 682.097656 L 144.910156 682.097656 Z M 144.910156 350.675781 L 268.304688 496.289062 C 268.304688 507.449219 259.257812 516.492188 248.101562 516.492188 C 236.945312 516.492188 227.898438 507.449219 227.898438 496.289062 C 227.898438 485.132812 236.945312 476.085938 248.101562 476.085938 C 259.257812 476.085938 268.304688 485.132812 268.304688 496.289062 Z M 144.910156 350.675781 "/>
</clipPath>
<clipPath id="clip49">
  <path d="M 318 405.523438 L 445 405.523438 L 445 542.226562 L 318 542.226562 Z M 318 405.523438 "/>
</clipPath>
<clipPath id="clip50">
  <path d="M 200.601562 405.523438 L 562.214844 405.523438 L 562.214844 542.226562 L 200.601562 542.226562 Z M 200.601562 405.523438 L 407.363281 513.097656 C 407.363281 524.257812 398.320312 533.300781 387.160156 533.300781 C 376.003906 533.300781 366.957031 524.257812 366.957031 513.097656 C 366.957031 501.941406 376.003906 492.894531 387.160156 492.894531 C 398.320312 492.894531 407.363281 501.941406 407.363281 513.097656 Z M 200.601562 405.523438 "/>
</clipPath>
<clipPath id="clip51">
  <path d="M 200.601562 405.523438 L 562.214844 405.523438 L 562.214844 542.226562 L 200.601562 542.226562 Z M 200.601562 405.523438 L 395.855469 434.648438 C 395.855469 445.804688 386.8125 454.851562 375.652344 454.851562 C 364.496094 454.851562 355.449219 445.804688 355.449219 434.648438 C 355.449219 423.492188 364.496094 414.445312 375.652344 414.445312 C 386.8125 414.445312 395.855469 423.492188 395.855469 434.648438 Z M 200.601562 405.523438 "/>
</clipPath>
<clipPath id="clip52">
  <path d="M 318 347 L 513 347 L 513 492 L 318 492 Z M 318 347 "/>
</clipPath>
<clipPath id="clip53">
  <path d="M 310.730469 238.730469 L 520.589844 238.730469 L 520.589844 600.457031 L 310.730469 600.457031 Z M 310.730469 238.730469 L 475.867188 404.535156 C 475.867188 415.691406 466.824219 424.738281 455.664062 424.738281 C 444.507812 424.738281 435.460938 415.691406 435.460938 404.535156 C 435.460938 393.378906 444.507812 384.332031 455.664062 384.332031 C 466.824219 384.332031 475.867188 393.378906 475.867188 404.535156 Z M 310.730469 238.730469 "/>
</clipPath>
<clipPath id="clip54">
  <path d="M 310.730469 238.730469 L 520.589844 238.730469 L 520.589844 600.457031 L 310.730469 600.457031 Z M 310.730469 238.730469 L 395.855469 434.648438 C 395.855469 445.804688 386.8125 454.851562 375.652344 454.851562 C 364.496094 454.851562 355.449219 445.804688 355.449219 434.648438 C 355.449219 423.492188 364.496094 414.445312 375.652344 414.445312 C 386.8125 414.445312 395.855469 423.492188 395.855469 434.648438 Z M 310.730469 238.730469 "/>
</clipPath>
</defs>
<g id="surface121">
<g clip-path="url(#clip1)" clip-rule="nonzero">
<g clip-path="url(#clip2)" clip-rule="evenodd">
<g clip-path="url(#clip3)" clip-rule="evenodd">
<path style="fill:none;stroke-width:0.0233774;stroke-linecap:butt;stroke-linejoin:miter;stroke:rgb(17.96875%,20.3125%,21.09375%);stroke-opacity:0.8;stroke-miterlimit:10;" d="M 1.500577 2.296257 L 1.588107 1.589193 " transform="matrix(172.842837,0,0,172.842837,-89.227304,-80.161095)"/>
</g>
</g>
</g>
<g clip-path="url(#clip4)" clip-rule="nonzero">
<g clip-path="url(#clip5)" clip-rule="evenodd">
<g clip-path="url(#clip6)" clip-rule="evenodd">
<path style="fill:none;stroke-width:0.0233774;stroke-linecap:butt;stroke-linejoin:miter;stroke:rgb(17.96875%,20.3125%,21.09375%);stroke-opacity:0.8;stroke-miterlimit:10;" d="M 1.500577 2.296257 L 1.02844 2.459203 " transform="matrix(172.842837,0,0,172.842837,-89.227304,-80.161095)"/>
</g>
</g>
</g>
<g clip-path="url(#clip7)" clip-rule="nonzero">
<g clip-path="url(#clip8)" clip-rule="evenodd">
<g clip-path="url(#clip9)" clip-rule="evenodd">
<path style="fill:none;stroke-width:0.0233774;stroke-linecap:butt;stroke-linejoin:miter;stroke:rgb(17.96875%,20.3125%,21.09375%);stroke-opacity:0.8;stroke-miterlimit:10;" d="M 1.500577 2.296257 L 1.993506 2.854974 " transform="matrix(172.842837,0,0,172.842837,-89.227304,-80.161095)"/>
</g>
</g>
</g>
<g clip-path="url(#clip10)" clip-rule="nonzero">
<g clip-path="url(#clip11)" clip-rule="evenodd">
<g clip-path="url(#clip12)" clip-rule="evenodd">
<path style="fill:none;stroke-width:0.0233774;stroke-linecap:butt;stroke-linejoin:miter;stroke:rgb(17.96875%,20.3125%,21.09375%);stroke-opacity:0.8;stroke-miterlimit:10;" d="M 1.259819 1.39081 L 1.588107 1.589193 " transform="matrix(172.842837,0,0,172.842837,-89.227304,-80.161095)"/>
</g>
</g>
</g>
<g clip-path="url(#clip13)" clip-rule="nonzero">
<g clip-path="url(#clip14)" clip-rule="evenodd">
<g clip-path="url(#clip15)" clip-rule="evenodd">
<path style="fill:none;stroke-width:0.0233774;stroke-linecap:butt;stroke-linejoin:miter;stroke:rgb(17.96875%,20.3125%,21.09375%);stroke-opacity:0.8;stroke-miterlimit:10;" d="M 1.588107 1.589193 L 2.101308 1.157691 " transform="matrix(172.842837,0,0,172.842837,-89.227304,-80.161095)"/>
</g>
</g>
</g>
<g clip-path="url(#clip16)" clip-rule="nonzero">
<g clip-path="url(#clip17)" clip-rule="evenodd">
<g clip-path="url(#clip18)" clip-rule="evenodd">
<path style="fill:none;stroke-width:0.0233774;stroke-linecap:butt;stroke-linejoin:miter;stroke:rgb(17.96875%,20.3125%,21.09375%);stroke-opacity:0.8;stroke-miterlimit:10;" d="M 3.518758 1.517461 L 3.155237 1.276228 " transform="matrix(172.842837,0,0,172.842837,-89.227304,-80.161095)"/>
</g>
</g>
</g>
<g clip-path="url(#clip19)" clip-rule="nonzero">
<g clip-path="url(#clip20)" clip-rule="evenodd">
<g clip-path="url(#clip21)" clip-rule="evenodd">
<path style="fill:none;stroke-width:0.0233774;stroke-linecap:butt;stroke-linejoin:miter;stroke:rgb(17.96875%,20.3125%,21.09375%);stroke-opacity:0.8;stroke-miterlimit:10;" d="M 3.518758 1.517461 L 3.745346 1.741901 " transform="matrix(172.842837,0,0,172.842837,-89.227304,-80.161095)"/>
</g>
</g>
</g>
<g clip-path="url(#clip22)" clip-rule="nonzero">
<g clip-path="url(#clip23)" clip-rule="evenodd">
<g clip-path="url(#clip24)" clip-rule="evenodd">
<path style="fill:none;stroke-width:0.0233774;stroke-linecap:butt;stroke-linejoin:miter;stroke:rgb(17.96875%,20.3125%,21.09375%);stroke-opacity:0.8;stroke-miterlimit:10;" d="M 3.155237 1.276228 L 2.68136 1.140944 " transform="matrix(172.842837,0,0,172.842837,-89.227304,-80.161095)"/>
</g>
</g>
</g>
<g clip-path="url(#clip25)" clip-rule="nonzero">
<g clip-path="url(#clip26)" clip-rule="evenodd">
<g clip-path="url(#clip27)" clip-rule="evenodd">
<path style="fill:none;stroke-width:0.0233774;stroke-linecap:butt;stroke-linejoin:miter;stroke:rgb(17.96875%,20.3125%,21.09375%);stroke-opacity:0.8;stroke-miterlimit:10;" d="M 2.101308 1.157691 L 2.68136 1.140944 " transform="matrix(172.842837,0,0,172.842837,-89.227304,-80.161095)"/>
</g>
</g>
</g>
<g clip-path="url(#clip28)" clip-rule="nonzero">
<g clip-path="url(#clip29)" clip-rule="evenodd">
<g clip-path="url(#clip30)" clip-rule="evenodd">
<path style="fill:none;stroke-width:0.0233774;stroke-linecap:butt;stroke-linejoin:miter;stroke:rgb(17.96875%,20.3125%,21.09375%);stroke-opacity:0.8;stroke-miterlimit:10;" d="M 2.101308 1.157691 L 2.032265 0.831279 " transform="matrix(172.842837,0,0,172.842837,-89.227304,-80.161095)"/>
</g>
</g>
</g>
<g clip-path="url(#clip31)" clip-rule="nonzero">
<g clip-path="url(#clip32)" clip-rule="evenodd">
<g clip-path="url(#clip33)" clip-rule="evenodd">
<path style="fill:none;stroke-width:0.0233774;stroke-linecap:butt;stroke-linejoin:miter;stroke:rgb(17.96875%,20.3125%,21.09375%);stroke-opacity:0.8;stroke-miterlimit:10;" d="M 0.758483 2.5873 L 1.02844 2.459203 " transform="matrix(172.842837,0,0,172.842837,-89.227304,-80.161095)"/>
</g>
</g>
</g>
<g clip-path="url(#clip34)" clip-rule="nonzero">
<g clip-path="url(#clip35)" clip-rule="evenodd">
<g clip-path="url(#clip36)" clip-rule="evenodd">
<path style="fill:none;stroke-width:0.0233774;stroke-linecap:butt;stroke-linejoin:miter;stroke:rgb(17.96875%,20.3125%,21.09375%);stroke-opacity:0.8;stroke-miterlimit:10;" d="M 1.993506 2.854974 L 1.951651 3.335112 " transform="matrix(172.842837,0,0,172.842837,-89.227304,-80.161095)"/>
</g>
</g>
</g>
<g clip-path="url(#clip37)" clip-rule="nonzero">
<g clip-path="url(#clip38)" clip-rule="evenodd">
<g clip-path="url(#clip39)" clip-rule="evenodd">
<path style="fill:none;stroke-width:0.0233774;stroke-linecap:butt;stroke-linejoin:miter;stroke:rgb(17.96875%,20.3125%,21.09375%);stroke-opacity:0.8;stroke-miterlimit:10;" d="M 1.993506 2.854974 L 2.689609 2.978483 " transform="matrix(172.842837,0,0,172.842837,-89.227304,-80.161095)"/>
</g>
</g>
</g>
<g clip-path="url(#clip40)" clip-rule="nonzero">
<g clip-path="url(#clip41)" clip-rule="evenodd">
<g clip-path="url(#clip42)" clip-rule="evenodd">
<path style="fill:none;stroke-width:0.0233774;stroke-linecap:butt;stroke-linejoin:miter;stroke:rgb(17.96875%,20.3125%,21.09375%);stroke-opacity:0.8;stroke-miterlimit:10;" d="M 3.134332 3.546625 L 2.756189 3.432359 " transform="matrix(172.842837,0,0,172.842837,-89.227304,-80.161095)"/>
</g>
</g>
</g>
<g clip-path="url(#clip43)" clip-rule="nonzero">
<g clip-path="url(#clip44)" clip-rule="evenodd">
<g clip-path="url(#clip45)" clip-rule="evenodd">
<path style="fill:none;stroke-width:0.0233774;stroke-linecap:butt;stroke-linejoin:miter;stroke:rgb(17.96875%,20.3125%,21.09375%);stroke-opacity:0.8;stroke-miterlimit:10;" d="M 2.283668 3.567643 L 2.756189 3.432359 " transform="matrix(172.842837,0,0,172.842837,-89.227304,-80.161095)"/>
</g>
</g>
</g>
<g clip-path="url(#clip46)" clip-rule="nonzero">
<g clip-path="url(#clip47)" clip-rule="evenodd">
<g clip-path="url(#clip48)" clip-rule="evenodd">
<path style="fill:none;stroke-width:0.0233774;stroke-linecap:butt;stroke-linejoin:miter;stroke:rgb(17.96875%,20.3125%,21.09375%);stroke-opacity:0.8;stroke-miterlimit:10;" d="M 2.283668 3.567643 L 1.951651 3.335112 " transform="matrix(172.842837,0,0,172.842837,-89.227304,-80.161095)"/>
</g>
</g>
</g>
<g clip-path="url(#clip49)" clip-rule="nonzero">
<g clip-path="url(#clip50)" clip-rule="evenodd">
<g clip-path="url(#clip51)" clip-rule="evenodd">
<path style="fill:none;stroke-width:0.0233774;stroke-linecap:butt;stroke-linejoin:miter;stroke:rgb(17.96875%,20.3125%,21.09375%);stroke-opacity:0.8;stroke-miterlimit:10;" d="M 2.756189 3.432359 L 2.689609 2.978483 " transform="matrix(172.842837,0,0,172.842837,-89.227304,-80.161095)"/>
</g>
</g>
</g>
<g clip-path="url(#clip52)" clip-rule="nonzero">
<g clip-path="url(#clip53)" clip-rule="evenodd">
<g clip-path="url(#clip54)" clip-rule="evenodd">
<path style="fill:none;stroke-width:0.0233774;stroke-linecap:butt;stroke-linejoin:miter;stroke:rgb(17.96875%,20.3125%,21.09375%);stroke-opacity:0.8;stroke-miterlimit:10;" d="M 3.152525 2.80426 L 2.689609 2.978483 " transform="matrix(172.842837,0,0,172.842837,-89.227304,-80.161095)"/>
</g>
</g>
</g>
<path style="fill-rule:nonzero;fill:rgb(100%,92.941176%,43.529412%);fill-opacity:1;stroke-width:0.0233774;stroke-linecap:butt;stroke-linejoin:miter;stroke:rgb(60%,60%,60%);stroke-opacity:0.8;stroke-miterlimit:10;" d="M 0.116888 0.00000101017 C 0.116888 0.0645466 0.0645466 0.116888 0.00000100487 0.116888 C -0.0645446 0.116888 -0.116886 0.0645466 -0.116886 0.00000101017 C -0.116886 -0.0645446 -0.0645446 -0.116886 0.00000100487 -0.116886 C 0.0645466 -0.116886 0.116888 -0.0645446 0.116888 0.00000101017 Z M 0.116888 0.00000101017 " transform="matrix(172.842837,0,0,172.842837,170.136545,316.730294)"/>
<path style="fill-rule:nonzero;fill:rgb(100%,92.941176%,43.529412%);fill-opacity:1;stroke-width:0.0233774;stroke-linecap:butt;stroke-linejoin:miter;stroke:rgb(60%,60%,60%);stroke-opacity:0.8;stroke-miterlimit:10;" d="M 0.11689 -0.00000121491 C 0.11689 0.0645444 0.0645479 0.116886 0.00000224695 0.116886 C -0.064566 0.116886 -0.116885 0.0645444 -0.116885 -0.00000121491 C -0.116885 -0.0645468 -0.064566 -0.116888 0.00000224695 -0.116888 C 0.0645479 -0.116888 0.11689 -0.0645468 0.11689 -0.00000121491 Z M 0.11689 -0.00000121491 " transform="matrix(172.842837,0,0,172.842837,128.523049,160.230679)"/>
<path style="fill-rule:nonzero;fill:rgb(100%,92.941176%,43.529412%);fill-opacity:1;stroke-width:0.0233774;stroke-linecap:butt;stroke-linejoin:miter;stroke:rgb(60%,60%,60%);stroke-opacity:0.8;stroke-miterlimit:10;" d="M 0.116876 0.00000715361 C 0.116876 0.0645528 0.0645566 0.116894 0.0000109543 0.116894 C -0.0645573 0.116894 -0.116876 0.0645528 -0.116876 0.00000715361 C -0.116876 -0.0645611 -0.0645573 -0.11688 0.0000109543 -0.11688 C 0.0645566 -0.11688 0.116876 -0.0645611 0.116876 0.00000715361 Z M 0.116876 0.00000715361 " transform="matrix(172.842837,0,0,172.842837,185.263732,194.518295)"/>
<path style="fill-rule:nonzero;fill:rgb(100%,92.941176%,43.529412%);fill-opacity:1;stroke-width:0.0233774;stroke-linecap:butt;stroke-linejoin:miter;stroke:rgb(60%,60%,60%);stroke-opacity:0.8;stroke-miterlimit:10;" d="M 0.116896 -0.00000346563 C 0.116896 0.0645648 0.0645545 0.116884 0.00000886712 0.116884 C -0.0645594 0.116884 -0.116878 0.0645648 -0.116878 -0.00000346563 C -0.116878 -0.0645491 -0.0645594 -0.116891 0.00000886712 -0.116891 C 0.0645545 -0.116891 0.116896 -0.0645491 0.116896 -0.00000346563 Z M 0.116896 -0.00000346563 " transform="matrix(172.842837,0,0,172.842837,518.963311,182.121693)"/>
<path style="fill-rule:nonzero;fill:rgb(100%,92.941176%,43.529412%);fill-opacity:1;stroke-width:0.0233774;stroke-linecap:butt;stroke-linejoin:miter;stroke:rgb(60%,60%,60%);stroke-opacity:0.8;stroke-miterlimit:10;" d="M 0.116877 0.00000738559 C 0.116877 0.064553 0.0645581 0.116895 -0.0000100824 0.116895 C -0.0645557 0.116895 -0.116897 0.064553 -0.116897 0.00000738559 C -0.116897 -0.0645608 -0.0645557 -0.11688 -0.0000100824 -0.11688 C 0.0645581 -0.11688 0.116877 -0.0645608 0.116877 0.00000738559 Z M 0.116877 0.00000738559 " transform="matrix(172.842837,0,0,172.842837,456.134555,140.424505)"/>
<path style="fill-rule:nonzero;fill:rgb(100%,92.941176%,43.529412%);fill-opacity:1;stroke-width:0.0233774;stroke-linecap:butt;stroke-linejoin:miter;stroke:rgb(60%,60%,60%);stroke-opacity:0.8;stroke-miterlimit:10;" d="M 0.116881 -0.00000868541 C 0.116881 0.0645595 0.0645619 0.116879 -0.00000636426 0.116879 C -0.064552 0.116879 -0.116894 0.0645595 -0.116894 -0.00000868541 C -0.116894 -0.0645543 -0.064552 -0.116896 -0.00000636426 -0.116896 C 0.0645619 -0.116896 0.116881 -0.0645543 0.116881 -0.00000868541 Z M 0.116881 -0.00000868541 " transform="matrix(172.842837,0,0,172.842837,273.96985,119.939001)"/>
<path style="fill-rule:nonzero;fill:rgb(100%,92.941176%,43.529412%);fill-opacity:1;stroke-width:0.0233774;stroke-linecap:butt;stroke-linejoin:miter;stroke:rgb(60%,60%,60%);stroke-opacity:0.8;stroke-miterlimit:10;" d="M 0.116894 -0.00000688843 C 0.116894 0.0645613 0.0645519 0.11688 0.00000628673 0.11688 C -0.0645619 0.11688 -0.116881 0.0645613 -0.116881 -0.00000688843 C -0.116881 -0.0645525 -0.0645619 -0.116894 0.00000628673 -0.116894 C 0.0645519 -0.116894 0.116894 -0.0645525 0.116894 -0.00000688843 Z M 0.116894 -0.00000688843 " transform="matrix(172.842837,0,0,172.842837,374.225476,117.044159)"/>
<path style="fill-rule:nonzero;fill:rgb(100%,92.941176%,43.529412%);fill-opacity:1;stroke-width:0.0233774;stroke-linecap:butt;stroke-linejoin:miter;stroke:rgb(60%,60%,60%);stroke-opacity:0.8;stroke-miterlimit:10;" d="M 0.116884 -0.00000975251 C 0.116884 0.0645585 0.0645653 0.116878 -0.00000290634 0.116878 C -0.0645485 0.116878 -0.11689 0.0645585 -0.11689 -0.00000975251 C -0.11689 -0.0645554 -0.0645485 -0.116897 -0.00000290634 -0.116897 C 0.0645653 -0.116897 0.116884 -0.0645554 0.116884 -0.00000975251 Z M 0.116884 -0.00000975251 " transform="matrix(172.842837,0,0,172.842837,262.035659,63.521217)"/>
<path style="fill-rule:nonzero;fill:rgb(100%,92.941176%,43.529412%);fill-opacity:1;stroke-width:0.0233774;stroke-linecap:butt;stroke-linejoin:miter;stroke:rgb(60%,60%,60%);stroke-opacity:0.8;stroke-miterlimit:10;" d="M 0.116881 -0.00000920184 C 0.116881 0.064559 0.0645622 0.116878 -0.00000599426 0.116878 C -0.0645516 0.116878 -0.116893 0.064559 -0.116893 -0.00000920184 C -0.116893 -0.0645548 -0.0645516 -0.116896 -0.00000599426 -0.116896 C 0.0645622 -0.116896 0.116881 -0.0645548 0.116881 -0.00000920184 Z M 0.116881 -0.00000920184 " transform="matrix(172.842837,0,0,172.842837,558.129942,220.915653)"/>
<path style="fill-rule:nonzero;fill:rgb(100%,92.941176%,43.529412%);fill-opacity:1;stroke-width:0.0233774;stroke-linecap:butt;stroke-linejoin:miter;stroke:rgb(60%,60%,60%);stroke-opacity:0.8;stroke-miterlimit:10;" d="M 0.116893 0.00000675591 C 0.116893 0.0645524 0.0645516 0.116894 0.00000599426 0.116894 C -0.0645622 0.116894 -0.116881 0.0645524 -0.116881 0.00000675591 C -0.116881 -0.0645615 -0.0645622 -0.116881 0.00000599426 -0.116881 C 0.0645516 -0.116881 0.116893 -0.0645615 0.116893 0.00000675591 Z M 0.116893 0.00000675591 " transform="matrix(172.842837,0,0,172.842837,41.870058,367.033989)"/>
<path style="fill-rule:nonzero;fill:rgb(100%,92.941176%,43.529412%);fill-opacity:1;stroke-width:0.0233774;stroke-linecap:butt;stroke-linejoin:miter;stroke:rgb(60%,60%,60%);stroke-opacity:0.8;stroke-miterlimit:10;" d="M 0.116896 -0.00000435173 C 0.116896 0.0645639 0.0645542 0.116883 0.00000853166 0.116883 C -0.0645597 0.116883 -0.116879 0.0645639 -0.116879 -0.00000435173 C -0.116879 -0.06455 -0.0645597 -0.116892 0.00000853166 -0.116892 C 0.0645542 -0.116892 0.116896 -0.06455 0.116896 -0.00000435173 Z M 0.116896 -0.00000435173 " transform="matrix(172.842837,0,0,172.842837,88.529775,344.895283)"/>
<path style="fill-rule:nonzero;fill:rgb(100%,92.941176%,43.529412%);fill-opacity:1;stroke-width:0.0233774;stroke-linecap:butt;stroke-linejoin:miter;stroke:rgb(60%,60%,60%);stroke-opacity:0.8;stroke-miterlimit:10;" d="M 0.116894 0.00000465572 C 0.116894 0.0645503 0.064552 0.116892 0.00000636099 0.116892 C -0.0645619 0.116892 -0.116881 0.0645503 -0.116881 0.00000465572 C -0.116881 -0.0645636 -0.0645619 -0.116883 0.00000636099 -0.116883 C 0.064552 -0.116883 0.116894 -0.0645636 0.116894 0.00000465572 Z M 0.116894 0.00000465572 " transform="matrix(172.842837,0,0,172.842837,255.334838,413.299977)"/>
<path style="fill-rule:nonzero;fill:rgb(55.294118%,82.745098%,78.039216%);fill-opacity:1;stroke-width:0.0233774;stroke-linecap:butt;stroke-linejoin:miter;stroke:rgb(60%,60%,60%);stroke-opacity:0.8;stroke-miterlimit:10;" d="M 0.116894 -0.00000509873 C 0.116894 0.0645631 0.0645524 0.116882 0.00000677827 0.116882 C -0.0645615 0.116882 -0.11688 0.0645631 -0.11688 -0.00000509873 C -0.11688 -0.0645507 -0.0645615 -0.116892 0.00000677827 -0.116892 C 0.0645524 -0.116892 0.116894 -0.0645507 0.116894 -0.00000509873 Z M 0.116894 -0.00000509873 " transform="matrix(172.842837,0,0,172.842837,452.51836,532.848538)"/>
<path style="fill-rule:nonzero;fill:rgb(55.294118%,82.745098%,78.039216%);fill-opacity:1;stroke-width:0.0233774;stroke-linecap:butt;stroke-linejoin:miter;stroke:rgb(60%,60%,60%);stroke-opacity:0.8;stroke-miterlimit:10;" d="M 0.116885 0.00000975251 C 0.116885 0.0645554 0.0645438 0.116897 -0.00000186675 0.116897 C -0.0645475 0.116897 -0.116889 0.0645554 -0.116889 0.00000975251 C -0.116889 -0.0645585 -0.0645475 -0.116878 -0.00000186675 -0.116878 C 0.0645438 -0.116878 0.116885 -0.0645585 0.116885 0.00000975251 Z M 0.116885 0.00000975251 " transform="matrix(172.842837,0,0,172.842837,305.488604,536.478783)"/>
<path style="fill-rule:nonzero;fill:rgb(55.294118%,82.745098%,78.039216%);fill-opacity:1;stroke-width:0.0233774;stroke-linecap:butt;stroke-linejoin:miter;stroke:rgb(60%,60%,60%);stroke-opacity:0.8;stroke-miterlimit:10;" d="M 0.116876 -0.00000250547 C 0.116876 0.0645657 0.0645574 0.116885 -0.0000108053 0.116885 C -0.0645564 0.116885 -0.116898 0.0645657 -0.116898 -0.00000250547 C -0.116898 -0.0645481 -0.0645564 -0.11689 -0.0000108053 -0.11689 C 0.0645574 -0.11689 0.116876 -0.0645481 0.116876 -0.00000250547 Z M 0.116876 -0.00000250547 " transform="matrix(172.842837,0,0,172.842837,387.162024,513.098089)"/>
<path style="fill-rule:nonzero;fill:rgb(100%,92.941176%,43.529412%);fill-opacity:1;stroke-width:0.0233774;stroke-linecap:butt;stroke-linejoin:miter;stroke:rgb(60%,60%,60%);stroke-opacity:0.8;stroke-miterlimit:10;" d="M 0.116887 -0.00000947876 C 0.116887 0.0645588 0.0645453 0.116878 -0.000000337271 0.116878 C -0.064546 0.116878 -0.116888 0.0645588 -0.116888 -0.00000947876 C -0.116888 -0.0645551 -0.064546 -0.116897 -0.000000337271 -0.116897 C 0.0645453 -0.116897 0.116887 -0.0645551 0.116887 -0.00000947876 Z M 0.116887 -0.00000947876 " transform="matrix(172.842837,0,0,172.842837,248.101621,496.290701)"/>
<path style="fill-rule:nonzero;fill:rgb(55.294118%,82.745098%,78.039216%);fill-opacity:1;stroke-width:0.0233774;stroke-linecap:butt;stroke-linejoin:miter;stroke:rgb(60%,60%,60%);stroke-opacity:0.8;stroke-miterlimit:10;" d="M 0.116878 -0.00000155275 C 0.116878 0.0645441 0.0645593 0.116886 -0.00000889119 0.116886 C -0.0645545 0.116886 -0.116896 0.0645441 -0.116896 -0.00000155275 C -0.116896 -0.0645472 -0.0645545 -0.116889 -0.00000889119 -0.116889 C 0.0645593 -0.116889 0.116878 -0.0645472 0.116878 -0.00000155275 Z M 0.116878 -0.00000155275 " transform="matrix(172.842837,0,0,172.842837,455.665599,404.535425)"/>
<path style="fill-rule:nonzero;fill:rgb(55.294118%,82.745098%,78.039216%);fill-opacity:1;stroke-width:0.0233774;stroke-linecap:butt;stroke-linejoin:miter;stroke:rgb(60%,60%,60%);stroke-opacity:0.8;stroke-miterlimit:10;" d="M 0.116882 -0.000000613865 C 0.116882 0.064545 0.0645628 0.116887 -0.00000540592 0.116887 C -0.064551 0.116887 -0.116893 0.064545 -0.116893 -0.000000613865 C -0.116893 -0.0645462 -0.064551 -0.116888 -0.00000540592 -0.116888 C 0.0645628 -0.116888 0.116882 -0.0645462 0.116882 -0.000000613865 Z M 0.116882 -0.000000613865 " transform="matrix(172.842837,0,0,172.842837,375.653278,434.648544)"/>
</g>
</svg>
