<?xml version="1.0" encoding="UTF-8"?>
<svg xmlns="http://www.w3.org/2000/svg" xmlns:xlink="http://www.w3.org/1999/xlink" width="600pt" height="600pt" viewBox="0 0 600 600" version="1.1">
<defs>
<clipPath id="clip1">
  <path d="M 14 27 L 217 27 L 217 184 L 14 184 Z M 14 27 "/>
</clipPath>
<clipPath id="clip2">
  <path d="M -17.78125 -107.519531 L 249.109375 -107.519531 L 249.109375 317.957031 L -17.78125 317.957031 Z M -17.78125 -107.519531 L 94.375 124.613281 C 94.375 136.09375 85.066406 145.402344 73.585938 145.402344 C 62.105469 145.402344 52.796875 136.09375 52.796875 124.613281 C 52.796875 113.132812 62.105469 103.824219 73.585938 103.824219 C 85.066406 103.824219 94.375 113.132812 94.375 124.613281 Z M -17.78125 -107.519531 "/>
</clipPath>
<clipPath id="clip3">
  <path d="M -17.78125 -107.519531 L 249.109375 -107.519531 L 249.109375 317.957031 L -17.78125 317.957031 Z M -17.78125 -107.519531 L 178.527344 85.820312 C 178.527344 97.300781 169.21875 106.609375 157.738281 106.609375 C 146.257812 106.609375 136.949219 97.300781 136.949219 85.820312 C 136.949219 74.339844 146.257812 65.03125 157.738281 65.03125 C 169.21875 65.03125 178.527344 74.339844 178.527344 85.820312 Z M -17.78125 -107.519531 "/>
</clipPath>
<clipPath id="clip4">
  <path d="M 14 25 L 148 25 L 148 184 L 14 184 Z M 14 25 "/>
</clipPath>
<clipPath id="clip5">
  <path d="M -125.527344 6.320312 L 288.039062 6.320312 L 288.039062 202.179688 L -125.527344 202.179688 Z M -125.527344 6.320312 L 94.375 124.613281 C 94.375 136.09375 85.066406 145.402344 73.585938 145.402344 C 62.105469 145.402344 52.796875 136.09375 52.796875 124.613281 C 52.796875 113.132812 62.105469 103.824219 73.585938 103.824219 C 85.066406 103.824219 94.375 113.132812 94.375 124.613281 Z M -125.527344 6.320312 "/>
</clipPath>
<clipPath id="clip6">
  <path d="M -125.527344 6.320312 L 288.039062 6.320312 L 288.039062 202.179688 L -125.527344 202.179688 Z M -125.527344 6.320312 L 109.710938 83.882812 C 109.710938 95.363281 100.402344 104.671875 88.921875 104.671875 C 77.441406 104.671875 68.132812 95.363281 68.132812 83.882812 C 68.132812 72.398438 77.441406 63.09375 88.921875 63.09375 C 100.402344 63.09375 109.710938 72.398438 109.710938 83.882812 Z M -125.527344 6.320312 "/>
</clipPath>
<clipPath id="clip7">
  <path d="M 52 0 L 217 0 L 217 145 L 52 145 Z M 52 0 "/>
</clipPath>
<clipPath id="clip8">
  <path d="M -34.914062 -113.5625 L 304.292969 -113.5625 L 304.292969 242.035156 L -34.914062 242.035156 Z M -34.914062 -113.5625 L 178.527344 85.820312 C 178.527344 97.300781 169.21875 106.609375 157.738281 106.609375 C 146.257812 106.609375 136.949219 97.300781 136.949219 85.820312 C 136.949219 74.339844 146.257812 65.03125 157.738281 65.03125 C 169.21875 65.03125 178.527344 74.339844 178.527344 85.820312 Z M -34.914062 -113.5625 "/>
</clipPath>
<clipPath id="clip9">
  <path d="M -34.914062 -113.5625 L 304.292969 -113.5625 L 304.292969 242.035156 L -34.914062 242.035156 Z M -34.914062 -113.5625 L 132.425781 42.648438 C 132.425781 54.128906 123.117188 63.4375 111.636719 63.4375 C 100.15625 63.4375 90.847656 54.128906 90.847656 42.648438 C 90.847656 31.167969 100.15625 21.859375 111.636719 21.859375 C 123.117188 21.859375 132.425781 31.167969 132.425781 42.648438 Z M -34.914062 -113.5625 "/>
</clipPath>
<clipPath id="clip10">
  <path d="M 78.902344 25 L 167.761719 25 L 167.761719 145 L 78.902344 145 Z M 78.902344 25 "/>
</clipPath>
<clipPath id="clip11">
  <path d="M 78.902344 -128.511719 L 167.761719 -128.511719 L 167.761719 298.21875 L 78.902344 298.21875 Z M 78.902344 -128.511719 L 178.527344 85.820312 C 178.527344 97.300781 169.21875 106.609375 157.738281 106.609375 C 146.257812 106.609375 136.949219 97.300781 136.949219 85.820312 C 136.949219 74.339844 146.257812 65.03125 157.738281 65.03125 C 169.21875 65.03125 178.527344 74.339844 178.527344 85.820312 Z M 78.902344 -128.511719 "/>
</clipPath>
<clipPath id="clip12">
  <path d="M 78.902344 -128.511719 L 167.761719 -128.511719 L 167.761719 298.21875 L 78.902344 298.21875 Z M 78.902344 -128.511719 L 109.710938 83.882812 C 109.710938 95.363281 100.402344 104.671875 88.921875 104.671875 C 77.441406 104.671875 68.132812 95.363281 68.132812 83.882812 C 68.132812 72.398438 77.441406 63.09375 88.921875 63.09375 C 100.402344 63.09375 109.710938 72.398438 109.710938 83.882812 Z M 78.902344 -128.511719 "/>
</clipPath>
<clipPath id="clip13">
  <path d="M 129.5 27 L 363.433594 27 L 363.433594 166 L 129.5 166 Z M 129.5 27 "/>
</clipPath>
<clipPath id="clip14">
  <path d="M 129.5 -125.257812 L 363.433594 -125.257812 L 363.433594 317.554688 L 129.5 317.554688 Z M 129.5 -125.257812 L 178.527344 85.820312 C 178.527344 97.300781 169.21875 106.609375 157.738281 106.609375 C 146.257812 106.609375 136.949219 97.300781 136.949219 85.820312 C 136.949219 74.339844 146.257812 65.03125 157.738281 65.03125 C 169.21875 65.03125 178.527344 74.339844 178.527344 85.820312 Z M 129.5 -125.257812 "/>
</clipPath>
<clipPath id="clip15">
  <path d="M 129.5 -125.257812 L 363.433594 -125.257812 L 363.433594 317.554688 L 129.5 317.554688 Z M 129.5 -125.257812 L 355.980469 106.472656 C 355.980469 117.953125 346.671875 127.261719 335.191406 127.261719 C 323.707031 127.261719 314.402344 117.953125 314.402344 106.472656 C 314.402344 94.992188 323.707031 85.683594 335.191406 85.683594 C 346.671875 85.683594 355.980469 94.992188 355.980469 106.472656 Z M 129.5 -125.257812 "/>
</clipPath>
<clipPath id="clip16">
  <path d="M 30 0 L 171 0 L 171 143 L 30 143 Z M 30 0 "/>
</clipPath>
<clipPath id="clip17">
  <path d="M -97.699219 -62.023438 L 298.261719 -62.023438 L 298.261719 188.558594 L -97.699219 188.558594 Z M -97.699219 -62.023438 L 132.425781 42.648438 C 132.425781 54.128906 123.117188 63.4375 111.636719 63.4375 C 100.15625 63.4375 90.847656 54.128906 90.847656 42.648438 C 90.847656 31.167969 100.15625 21.859375 111.636719 21.859375 C 123.117188 21.859375 132.425781 31.167969 132.425781 42.648438 Z M -97.699219 -62.023438 "/>
</clipPath>
<clipPath id="clip18">
  <path d="M -97.699219 -62.023438 L 298.261719 -62.023438 L 298.261719 188.558594 L -97.699219 188.558594 Z M -97.699219 -62.023438 L 109.710938 83.882812 C 109.710938 95.363281 100.402344 104.671875 88.921875 104.671875 C 77.441406 104.671875 68.132812 95.363281 68.132812 83.882812 C 68.132812 72.398438 77.441406 63.09375 88.921875 63.09375 C 100.402344 63.09375 109.710938 72.398438 109.710938 83.882812 Z M -97.699219 -62.023438 "/>
</clipPath>
<clipPath id="clip19">
  <path d="M 299 334.46875 L 436 334.46875 L 436 528.371094 L 299 528.371094 Z M 299 334.46875 "/>
</clipPath>
<clipPath id="clip20">
  <path d="M 148.042969 334.46875 L 586.898438 334.46875 L 586.898438 528.371094 L 148.042969 528.371094 Z M 148.042969 334.46875 L 397.28125 494.890625 C 397.28125 506.371094 387.972656 515.679688 376.492188 515.679688 C 365.011719 515.679688 355.703125 506.371094 355.703125 494.890625 C 355.703125 483.40625 365.011719 474.101562 376.492188 474.101562 C 387.972656 474.101562 397.28125 483.40625 397.28125 494.890625 Z M 148.042969 334.46875 "/>
</clipPath>
<clipPath id="clip21">
  <path d="M 148.042969 334.46875 L 586.898438 334.46875 L 586.898438 528.371094 L 148.042969 528.371094 Z M 148.042969 334.46875 L 379.230469 367.945312 C 379.230469 379.425781 369.925781 388.734375 358.445312 388.734375 C 346.960938 388.734375 337.65625 379.425781 337.65625 367.945312 C 337.65625 356.464844 346.960938 347.15625 358.445312 347.15625 C 369.925781 347.15625 379.230469 356.464844 379.230469 367.945312 Z M 148.042969 334.46875 "/>
</clipPath>
<clipPath id="clip22">
  <path d="M 317 481.636719 L 439 481.636719 L 439 570.609375 L 317 570.609375 Z M 317 481.636719 "/>
</clipPath>
<clipPath id="clip23">
  <path d="M 164.214844 481.636719 L 591.503906 481.636719 L 591.503906 570.609375 L 164.214844 570.609375 Z M 164.214844 481.636719 L 397.28125 494.890625 C 397.28125 506.371094 387.972656 515.679688 376.492188 515.679688 C 365.011719 515.679688 355.703125 506.371094 355.703125 494.890625 C 355.703125 483.40625 365.011719 474.101562 376.492188 474.101562 C 387.972656 474.101562 397.28125 483.40625 397.28125 494.890625 Z M 164.214844 481.636719 "/>
</clipPath>
<clipPath id="clip24">
  <path d="M 164.214844 481.636719 L 591.503906 481.636719 L 591.503906 570.609375 L 164.214844 570.609375 Z M 164.214844 481.636719 L 400.011719 557.351562 C 400.011719 568.832031 390.707031 578.140625 379.222656 578.140625 C 367.742188 578.140625 358.4375 568.832031 358.4375 557.351562 C 358.4375 545.871094 367.742188 536.5625 379.222656 536.5625 C 390.707031 536.5625 400.011719 545.871094 400.011719 557.351562 Z M 164.214844 481.636719 "/>
</clipPath>
<clipPath id="clip25">
  <path d="M 257 436 L 436 436 L 436 593 L 257 593 Z M 257 436 "/>
</clipPath>
<clipPath id="clip26">
  <path d="M 199.824219 315.300781 L 492.992188 315.300781 L 492.992188 713.015625 L 199.824219 713.015625 Z M 199.824219 315.300781 L 397.28125 494.890625 C 397.28125 506.371094 387.972656 515.679688 376.492188 515.679688 C 365.011719 515.679688 355.703125 506.371094 355.703125 494.890625 C 355.703125 483.40625 365.011719 474.101562 376.492188 474.101562 C 387.972656 474.101562 397.28125 483.40625 397.28125 494.890625 Z M 199.824219 315.300781 "/>
</clipPath>
<clipPath id="clip27">
  <path d="M 199.824219 315.300781 L 492.992188 315.300781 L 492.992188 713.015625 L 199.824219 713.015625 Z M 199.824219 315.300781 L 337.109375 533.421875 C 337.109375 544.902344 327.800781 554.210938 316.320312 554.210938 C 304.839844 554.210938 295.53125 544.902344 295.53125 533.421875 C 295.53125 521.9375 304.839844 512.632812 316.320312 512.632812 C 327.800781 512.632812 337.109375 521.9375 337.109375 533.421875 Z M 199.824219 315.300781 "/>
</clipPath>
<clipPath id="clip28">
  <path d="M 172 309 L 418 309 L 418 531 L 172 531 Z M 172 309 "/>
</clipPath>
<clipPath id="clip29">
  <path d="M 95.417969 202.695312 L 494.6875 202.695312 L 494.6875 637.15625 L 95.417969 637.15625 Z M 95.417969 202.695312 L 252.445312 471.902344 C 252.445312 483.382812 243.136719 492.691406 231.65625 492.691406 C 220.171875 492.691406 210.867188 483.382812 210.867188 471.902344 C 210.867188 460.421875 220.171875 451.113281 231.65625 451.113281 C 243.136719 451.113281 252.445312 460.421875 252.445312 471.902344 Z M 95.417969 202.695312 "/>
</clipPath>
<clipPath id="clip30">
  <path d="M 95.417969 202.695312 L 494.6875 202.695312 L 494.6875 637.15625 L 95.417969 637.15625 Z M 95.417969 202.695312 L 379.230469 367.945312 C 379.230469 379.425781 369.925781 388.734375 358.445312 388.734375 C 346.960938 388.734375 337.65625 379.425781 337.65625 367.945312 C 337.65625 356.464844 346.960938 347.15625 358.445312 347.15625 C 369.925781 347.15625 379.230469 356.464844 379.230469 367.945312 Z M 95.417969 202.695312 "/>
</clipPath>
<clipPath id="clip31">
  <path d="M 100.34375 413 L 249.984375 413 L 249.984375 539 L 100.34375 539 Z M 100.34375 413 "/>
</clipPath>
<clipPath id="clip32">
  <path d="M 100.34375 259.910156 L 249.984375 259.910156 L 249.984375 691.601562 L 100.34375 691.601562 Z M 100.34375 259.910156 L 252.445312 471.902344 C 252.445312 483.382812 243.136719 492.691406 231.65625 492.691406 C 220.171875 492.691406 210.867188 483.382812 210.867188 471.902344 C 210.867188 460.421875 220.171875 451.113281 231.65625 451.113281 C 243.136719 451.113281 252.445312 460.421875 252.445312 471.902344 Z M 100.34375 259.910156 "/>
</clipPath>
<clipPath id="clip33">
  <path d="M 100.34375 259.910156 L 249.984375 259.910156 L 249.984375 691.601562 L 100.34375 691.601562 Z M 100.34375 259.910156 L 139.453125 479.605469 C 139.453125 491.089844 130.148438 500.394531 118.667969 500.394531 C 107.183594 500.394531 97.878906 491.089844 97.878906 479.605469 C 97.878906 468.125 107.183594 458.816406 118.667969 458.816406 C 130.148438 458.816406 139.453125 468.125 139.453125 479.605469 Z M 100.34375 259.910156 "/>
</clipPath>
<clipPath id="clip34">
  <path d="M 172 413 L 376 413 L 376 593 L 172 593 Z M 172 413 "/>
</clipPath>
<clipPath id="clip35">
  <path d="M 105.042969 299.21875 L 442.9375 299.21875 L 442.9375 706.109375 L 105.042969 706.109375 Z M 105.042969 299.21875 L 252.445312 471.902344 C 252.445312 483.382812 243.136719 492.691406 231.65625 492.691406 C 220.171875 492.691406 210.867188 483.382812 210.867188 471.902344 C 210.867188 460.421875 220.171875 451.113281 231.65625 451.113281 C 243.136719 451.113281 252.445312 460.421875 252.445312 471.902344 Z M 105.042969 299.21875 "/>
</clipPath>
<clipPath id="clip36">
  <path d="M 105.042969 299.21875 L 442.9375 299.21875 L 442.9375 706.109375 L 105.042969 706.109375 Z M 105.042969 299.21875 L 337.109375 533.421875 C 337.109375 544.902344 327.800781 554.210938 316.320312 554.210938 C 304.839844 554.210938 295.53125 544.902344 295.53125 533.421875 C 295.53125 521.9375 304.839844 512.632812 316.320312 512.632812 C 327.800781 512.632812 337.109375 521.9375 337.109375 533.421875 Z M 105.042969 299.21875 "/>
</clipPath>
<clipPath id="clip37">
  <path d="M 299 144 L 487 144 L 487 427 L 299 427 Z M 299 144 "/>
</clipPath>
<clipPath id="clip38">
  <path d="M 162.082031 118.582031 L 623.722656 118.582031 L 623.722656 452.441406 L 162.082031 452.441406 Z M 162.082031 118.582031 L 379.230469 367.945312 C 379.230469 379.425781 369.925781 388.734375 358.445312 388.734375 C 346.960938 388.734375 337.65625 379.425781 337.65625 367.945312 C 337.65625 356.464844 346.960938 347.15625 358.445312 347.15625 C 369.925781 347.15625 379.230469 356.464844 379.230469 367.945312 Z M 162.082031 118.582031 "/>
</clipPath>
<clipPath id="clip39">
  <path d="M 162.082031 118.582031 L 623.722656 118.582031 L 623.722656 452.441406 L 162.082031 452.441406 Z M 162.082031 118.582031 L 448.144531 203.074219 C 448.144531 214.554688 438.839844 223.863281 427.355469 223.863281 C 415.875 223.863281 406.570312 214.554688 406.570312 203.074219 C 406.570312 191.59375 415.875 182.285156 427.355469 182.285156 C 438.839844 182.285156 448.144531 191.59375 448.144531 203.074219 Z M 162.082031 118.582031 "/>
</clipPath>
<clipPath id="clip40">
  <path d="M 299 243 L 506 243 L 506 427 L 299 427 Z M 299 243 "/>
</clipPath>
<clipPath id="clip41">
  <path d="M 230.109375 130.984375 L 575.066406 130.984375 L 575.066406 539.367188 L 230.109375 539.367188 Z M 230.109375 130.984375 L 379.230469 367.945312 C 379.230469 379.425781 369.925781 388.734375 358.445312 388.734375 C 346.960938 388.734375 337.65625 379.425781 337.65625 367.945312 C 337.65625 356.464844 346.960938 347.15625 358.445312 347.15625 C 369.925781 347.15625 379.230469 356.464844 379.230469 367.945312 Z M 230.109375 130.984375 "/>
</clipPath>
<clipPath id="clip42">
  <path d="M 230.109375 130.984375 L 575.066406 130.984375 L 575.066406 539.367188 L 230.109375 539.367188 Z M 230.109375 130.984375 L 467.515625 302.402344 C 467.515625 313.882812 458.207031 323.191406 446.726562 323.191406 C 435.246094 323.191406 425.9375 313.882812 425.9375 302.402344 C 425.9375 290.921875 435.246094 281.613281 446.726562 281.613281 C 458.207031 281.613281 467.515625 290.921875 467.515625 302.402344 Z M 230.109375 130.984375 "/>
</clipPath>
<clipPath id="clip43">
  <path d="M 236.820312 295 L 397.652344 295 L 397.652344 427 L 236.820312 427 Z M 236.820312 295 "/>
</clipPath>
<clipPath id="clip44">
  <path d="M 236.820312 144.371094 L 397.652344 144.371094 L 397.652344 577.457031 L 236.820312 577.457031 Z M 236.820312 144.371094 L 379.230469 367.945312 C 379.230469 379.425781 369.925781 388.734375 358.445312 388.734375 C 346.960938 388.734375 337.65625 379.425781 337.65625 367.945312 C 337.65625 356.464844 346.960938 347.15625 358.445312 347.15625 C 369.925781 347.15625 379.230469 356.464844 379.230469 367.945312 Z M 236.820312 144.371094 "/>
</clipPath>
<clipPath id="clip45">
  <path d="M 236.820312 144.371094 L 397.652344 144.371094 L 397.652344 577.457031 L 236.820312 577.457031 Z M 236.820312 144.371094 L 296.8125 353.878906 C 296.8125 365.359375 287.503906 374.667969 276.023438 374.667969 C 264.542969 374.667969 255.234375 365.359375 255.234375 353.878906 C 255.234375 342.398438 264.542969 333.089844 276.023438 333.089844 C 287.503906 333.089844 296.8125 342.398438 296.8125 353.878906 Z M 236.820312 144.371094 "/>
</clipPath>
<clipPath id="clip46">
  <path d="M 257 474 L 439 474 L 439 600 L 257 600 Z M 257 474 "/>
</clipPath>
<clipPath id="clip47">
  <path d="M 238.09375 334.558594 L 457.453125 334.558594 L 457.453125 756.21875 L 238.09375 756.21875 Z M 238.09375 334.558594 L 400.011719 557.351562 C 400.011719 568.832031 390.707031 578.140625 379.222656 578.140625 C 367.742188 578.140625 358.4375 568.832031 358.4375 557.351562 C 358.4375 545.871094 367.742188 536.5625 379.222656 536.5625 C 390.707031 536.5625 400.011719 545.871094 400.011719 557.351562 Z M 238.09375 334.558594 "/>
</clipPath>
<clipPath id="clip48">
  <path d="M 238.09375 334.558594 L 457.453125 334.558594 L 457.453125 756.21875 L 238.09375 756.21875 Z M 238.09375 334.558594 L 337.109375 533.421875 C 337.109375 544.902344 327.800781 554.210938 316.320312 554.210938 C 304.839844 554.210938 295.53125 544.902344 295.53125 533.421875 C 295.53125 521.9375 304.839844 512.632812 316.320312 512.632812 C 327.800781 512.632812 337.109375 521.9375 337.109375 533.421875 Z M 238.09375 334.558594 "/>
</clipPath>
<clipPath id="clip49">
  <path d="M 276 47 L 487 47 L 487 262 L 276 262 Z M 276 47 "/>
</clipPath>
<clipPath id="clip50">
  <path d="M 180.308594 -41.484375 L 582.242188 -41.484375 L 582.242188 351.035156 L 180.308594 351.035156 Z M 180.308594 -41.484375 L 355.980469 106.472656 C 355.980469 117.953125 346.671875 127.261719 335.191406 127.261719 C 323.707031 127.261719 314.402344 117.953125 314.402344 106.472656 C 314.402344 94.992188 323.707031 85.683594 335.191406 85.683594 C 346.671875 85.683594 355.980469 94.992188 355.980469 106.472656 Z M 180.308594 -41.484375 "/>
</clipPath>
<clipPath id="clip51">
  <path d="M 180.308594 -41.484375 L 582.242188 -41.484375 L 582.242188 351.035156 L 180.308594 351.035156 Z M 180.308594 -41.484375 L 448.144531 203.074219 C 448.144531 214.554688 438.839844 223.863281 427.355469 223.863281 C 415.875 223.863281 406.570312 214.554688 406.570312 203.074219 C 406.570312 191.59375 415.875 182.285156 427.355469 182.285156 C 438.839844 182.285156 448.144531 191.59375 448.144531 203.074219 Z M 180.308594 -41.484375 "/>
</clipPath>
<clipPath id="clip52">
  <path d="M 326.734375 47 L 460.601562 47 L 460.601562 168 L 326.734375 168 Z M 326.734375 47 "/>
</clipPath>
<clipPath id="clip53">
  <path d="M 326.734375 -105.957031 L 460.601562 -105.957031 L 460.601562 321.320312 L 326.734375 321.320312 Z M 326.734375 -105.957031 L 355.980469 106.472656 C 355.980469 117.953125 346.671875 127.261719 335.191406 127.261719 C 323.707031 127.261719 314.402344 117.953125 314.402344 106.472656 C 314.402344 94.992188 323.707031 85.683594 335.191406 85.683594 C 346.671875 85.683594 355.980469 94.992188 355.980469 106.472656 Z M 326.734375 -105.957031 "/>
</clipPath>
<clipPath id="clip54">
  <path d="M 326.734375 -105.957031 L 460.601562 -105.957031 L 460.601562 321.320312 L 326.734375 321.320312 Z M 326.734375 -105.957031 L 472.929688 108.886719 C 472.929688 120.367188 463.621094 129.675781 452.140625 129.675781 C 440.660156 129.675781 431.351562 120.367188 431.351562 108.886719 C 431.351562 97.40625 440.660156 88.097656 452.140625 88.097656 C 463.621094 88.097656 472.929688 97.40625 472.929688 108.886719 Z M 326.734375 -105.957031 "/>
</clipPath>
<clipPath id="clip55">
  <path d="M 393 18 L 586 18 L 586 168 L 393 168 Z M 393 18 "/>
</clipPath>
<clipPath id="clip56">
  <path d="M 366.914062 -118.546875 L 611.644531 -118.546875 L 611.644531 304.945312 L 366.914062 304.945312 Z M 366.914062 -118.546875 L 547.203125 77.507812 C 547.203125 88.988281 537.894531 98.296875 526.414062 98.296875 C 514.933594 98.296875 505.625 88.988281 505.625 77.507812 C 505.625 66.023438 514.933594 56.71875 526.414062 56.71875 C 537.894531 56.71875 547.203125 66.023438 547.203125 77.507812 Z M 366.914062 -118.546875 "/>
</clipPath>
<clipPath id="clip57">
  <path d="M 366.914062 -118.546875 L 611.644531 -118.546875 L 611.644531 304.945312 L 366.914062 304.945312 Z M 366.914062 -118.546875 L 472.929688 108.886719 C 472.929688 120.367188 463.621094 129.675781 452.140625 129.675781 C 440.660156 129.675781 431.351562 120.367188 431.351562 108.886719 C 431.351562 97.40625 440.660156 88.097656 452.140625 88.097656 C 463.621094 88.097656 472.929688 97.40625 472.929688 108.886719 Z M 366.914062 -118.546875 "/>
</clipPath>
<clipPath id="clip58">
  <path d="M 445 18 L 586 18 L 586 186 L 445 186 Z M 445 18 "/>
</clipPath>
<clipPath id="clip59">
  <path d="M 310.1875 -12.667969 L 720.304688 -12.667969 L 720.304688 216.960938 L 310.1875 216.960938 Z M 310.1875 -12.667969 L 547.203125 77.507812 C 547.203125 88.988281 537.894531 98.296875 526.414062 98.296875 C 514.933594 98.296875 505.625 88.988281 505.625 77.507812 C 505.625 66.023438 514.933594 56.71875 526.414062 56.71875 C 537.894531 56.71875 547.203125 66.023438 547.203125 77.507812 Z M 310.1875 -12.667969 "/>
</clipPath>
<clipPath id="clip60">
  <path d="M 310.1875 -12.667969 L 720.304688 -12.667969 L 720.304688 216.960938 L 310.1875 216.960938 Z M 310.1875 -12.667969 L 524.863281 126.78125 C 524.863281 138.261719 515.554688 147.570312 504.074219 147.570312 C 492.589844 147.570312 483.285156 138.261719 483.285156 126.78125 C 483.285156 115.300781 492.589844 105.992188 504.074219 105.992188 C 515.554688 105.992188 524.863281 115.300781 524.863281 126.78125 Z M 310.1875 -12.667969 "/>
</clipPath>
<clipPath id="clip61">
  <path d="M 368 51.714844 L 511 51.714844 L 511 260.25 L 368 260.25 Z M 368 51.714844 "/>
</clipPath>
<clipPath id="clip62">
  <path d="M 221.738281 51.714844 L 657.761719 51.714844 L 657.761719 260.25 L 221.738281 260.25 Z M 221.738281 51.714844 L 448.144531 203.074219 C 448.144531 214.554688 438.839844 223.863281 427.355469 223.863281 C 415.875 223.863281 406.570312 214.554688 406.570312 203.074219 C 406.570312 191.59375 415.875 182.285156 427.355469 182.285156 C 438.839844 182.285156 448.144531 191.59375 448.144531 203.074219 Z M 221.738281 51.714844 "/>
</clipPath>
<clipPath id="clip63">
  <path d="M 221.738281 51.714844 L 657.761719 51.714844 L 657.761719 260.25 L 221.738281 260.25 Z M 221.738281 51.714844 L 472.929688 108.886719 C 472.929688 120.367188 463.621094 129.675781 452.140625 129.675781 C 440.660156 129.675781 431.351562 120.367188 431.351562 108.886719 C 431.351562 97.40625 440.660156 88.097656 452.140625 88.097656 C 463.621094 88.097656 472.929688 97.40625 472.929688 108.886719 Z M 221.738281 51.714844 "/>
</clipPath>
<clipPath id="clip64">
  <path d="M 368 159.042969 L 506 159.042969 L 506 346.4375 L 368 346.4375 Z M 368 159.042969 "/>
</clipPath>
<clipPath id="clip65">
  <path d="M 218.730469 159.042969 L 655.355469 159.042969 L 655.355469 346.4375 L 218.730469 346.4375 Z M 218.730469 159.042969 L 448.144531 203.074219 C 448.144531 214.554688 438.839844 223.863281 427.355469 223.863281 C 415.875 223.863281 406.570312 214.554688 406.570312 203.074219 C 406.570312 191.59375 415.875 182.285156 427.355469 182.285156 C 438.839844 182.285156 448.144531 191.59375 448.144531 203.074219 Z M 218.730469 159.042969 "/>
</clipPath>
<clipPath id="clip66">
  <path d="M 218.730469 159.042969 L 655.355469 159.042969 L 655.355469 346.4375 L 218.730469 346.4375 Z M 218.730469 159.042969 L 467.515625 302.402344 C 467.515625 313.882812 458.207031 323.191406 446.726562 323.191406 C 435.246094 323.191406 425.9375 313.882812 425.9375 302.402344 C 425.9375 290.921875 435.246094 281.613281 446.726562 281.613281 C 458.207031 281.613281 467.515625 290.921875 467.515625 302.402344 Z M 218.730469 159.042969 "/>
</clipPath>
<clipPath id="clip67">
  <path d="M 368 67 L 563 67 L 563 262 L 368 262 Z M 368 67 "/>
</clipPath>
<clipPath id="clip68">
  <path d="M 276.304688 -25.089844 L 655.128906 -25.089844 L 655.128906 354.949219 L 276.304688 354.949219 Z M 276.304688 -25.089844 L 448.144531 203.074219 C 448.144531 214.554688 438.839844 223.863281 427.355469 223.863281 C 415.875 223.863281 406.570312 214.554688 406.570312 203.074219 C 406.570312 191.59375 415.875 182.285156 427.355469 182.285156 C 438.839844 182.285156 448.144531 191.59375 448.144531 203.074219 Z M 276.304688 -25.089844 "/>
</clipPath>
<clipPath id="clip69">
  <path d="M 276.304688 -25.089844 L 655.128906 -25.089844 L 655.128906 354.949219 L 276.304688 354.949219 Z M 276.304688 -25.089844 L 524.863281 126.78125 C 524.863281 138.261719 515.554688 147.570312 504.074219 147.570312 C 492.589844 147.570312 483.285156 138.261719 483.285156 126.78125 C 483.285156 115.300781 492.589844 105.992188 504.074219 105.992188 C 515.554688 105.992188 524.863281 115.300781 524.863281 126.78125 Z M 276.304688 -25.089844 "/>
</clipPath>
<clipPath id="clip70">
  <path d="M 393 50 L 563 50 L 563 186 L 393 186 Z M 393 50 "/>
</clipPath>
<clipPath id="clip71">
  <path d="M 380.121094 -92.226562 L 576.097656 -92.226562 L 576.097656 327.898438 L 380.121094 327.898438 Z M 380.121094 -92.226562 L 472.929688 108.886719 C 472.929688 120.367188 463.621094 129.675781 452.140625 129.675781 C 440.660156 129.675781 431.351562 120.367188 431.351562 108.886719 C 431.351562 97.40625 440.660156 88.097656 452.140625 88.097656 C 463.621094 88.097656 472.929688 97.40625 472.929688 108.886719 Z M 380.121094 -92.226562 "/>
</clipPath>
<clipPath id="clip72">
  <path d="M 380.121094 -92.226562 L 576.097656 -92.226562 L 576.097656 327.898438 L 380.121094 327.898438 Z M 380.121094 -92.226562 L 524.863281 126.78125 C 524.863281 138.261719 515.554688 147.570312 504.074219 147.570312 C 492.589844 147.570312 483.285156 138.261719 483.285156 126.78125 C 483.285156 115.300781 492.589844 105.992188 504.074219 105.992188 C 515.554688 105.992188 524.863281 115.300781 524.863281 126.78125 Z M 380.121094 -92.226562 "/>
</clipPath>
</defs>
<g id="surface196">
<g clip-path="url(#clip1)" clip-rule="nonzero">
<g clip-path="url(#clip2)" clip-rule="evenodd">
<g clip-path="url(#clip3)" clip-rule="evenodd">
<path style="fill:none;stroke-width:0.0199586;stroke-linecap:butt;stroke-linejoin:miter;stroke:rgb(17.96875%,20.3125%,21.09375%);stroke-opacity:0.8;stroke-miterlimit:10;" d="M 0.847256 1.157947 L 1.251214 0.971728 " transform="matrix(208.319413,0,0,208.319413,-102.913923,-116.609496)"/>
</g>
</g>
</g>
<g clip-path="url(#clip4)" clip-rule="nonzero">
<g clip-path="url(#clip5)" clip-rule="evenodd">
<g clip-path="url(#clip6)" clip-rule="evenodd">
<path style="fill:none;stroke-width:0.0199586;stroke-linecap:butt;stroke-linejoin:miter;stroke:rgb(17.96875%,20.3125%,21.09375%);stroke-opacity:0.8;stroke-miterlimit:10;" d="M 0.847256 1.157947 L 0.920873 0.962427 " transform="matrix(208.319413,0,0,208.319413,-102.913923,-116.609496)"/>
</g>
</g>
</g>
<g clip-path="url(#clip7)" clip-rule="nonzero">
<g clip-path="url(#clip8)" clip-rule="evenodd">
<g clip-path="url(#clip9)" clip-rule="evenodd">
<path style="fill:none;stroke-width:0.0199586;stroke-linecap:butt;stroke-linejoin:miter;stroke:rgb(17.96875%,20.3125%,21.09375%);stroke-opacity:0.8;stroke-miterlimit:10;" d="M 1.251214 0.971728 L 1.029912 0.764489 " transform="matrix(208.319413,0,0,208.319413,-102.913923,-116.609496)"/>
</g>
</g>
</g>
<g clip-path="url(#clip10)" clip-rule="nonzero">
<g clip-path="url(#clip11)" clip-rule="evenodd">
<g clip-path="url(#clip12)" clip-rule="evenodd">
<path style="fill:none;stroke-width:0.0199586;stroke-linecap:butt;stroke-linejoin:miter;stroke:rgb(17.96875%,20.3125%,21.09375%);stroke-opacity:0.8;stroke-miterlimit:10;" d="M 1.251214 0.971728 L 0.920873 0.962427 " transform="matrix(208.319413,0,0,208.319413,-102.913923,-116.609496)"/>
</g>
</g>
</g>
<g clip-path="url(#clip13)" clip-rule="nonzero">
<g clip-path="url(#clip14)" clip-rule="evenodd">
<g clip-path="url(#clip15)" clip-rule="evenodd">
<path style="fill:none;stroke-width:0.0199586;stroke-linecap:butt;stroke-linejoin:miter;stroke:rgb(17.96875%,20.3125%,21.09375%);stroke-opacity:0.8;stroke-miterlimit:10;" d="M 1.251214 0.971728 L 2.103046 1.070866 " transform="matrix(208.319413,0,0,208.319413,-102.913923,-116.609496)"/>
</g>
</g>
</g>
<g clip-path="url(#clip16)" clip-rule="nonzero">
<g clip-path="url(#clip17)" clip-rule="evenodd">
<g clip-path="url(#clip18)" clip-rule="evenodd">
<path style="fill:none;stroke-width:0.0199586;stroke-linecap:butt;stroke-linejoin:miter;stroke:rgb(17.96875%,20.3125%,21.09375%);stroke-opacity:0.8;stroke-miterlimit:10;" d="M 1.029912 0.764489 L 0.920873 0.962427 " transform="matrix(208.319413,0,0,208.319413,-102.913923,-116.609496)"/>
</g>
</g>
</g>
<g clip-path="url(#clip19)" clip-rule="nonzero">
<g clip-path="url(#clip20)" clip-rule="evenodd">
<g clip-path="url(#clip21)" clip-rule="evenodd">
<path style="fill:none;stroke-width:0.0199586;stroke-linecap:butt;stroke-linejoin:miter;stroke:rgb(17.96875%,20.3125%,21.09375%);stroke-opacity:0.8;stroke-miterlimit:10;" d="M 2.301303 2.935397 L 2.214672 2.326018 " transform="matrix(208.319413,0,0,208.319413,-102.913923,-116.609496)"/>
</g>
</g>
</g>
<g clip-path="url(#clip22)" clip-rule="nonzero">
<g clip-path="url(#clip23)" clip-rule="evenodd">
<g clip-path="url(#clip24)" clip-rule="evenodd">
<path style="fill:none;stroke-width:0.0199586;stroke-linecap:butt;stroke-linejoin:miter;stroke:rgb(17.96875%,20.3125%,21.09375%);stroke-opacity:0.8;stroke-miterlimit:10;" d="M 2.301303 2.935397 L 2.31441 3.235229 " transform="matrix(208.319413,0,0,208.319413,-102.913923,-116.609496)"/>
</g>
</g>
</g>
<g clip-path="url(#clip25)" clip-rule="nonzero">
<g clip-path="url(#clip26)" clip-rule="evenodd">
<g clip-path="url(#clip27)" clip-rule="evenodd">
<path style="fill:none;stroke-width:0.0199586;stroke-linecap:butt;stroke-linejoin:miter;stroke:rgb(17.96875%,20.3125%,21.09375%);stroke-opacity:0.8;stroke-miterlimit:10;" d="M 2.301303 2.935397 L 2.012459 3.120359 " transform="matrix(208.319413,0,0,208.319413,-102.913923,-116.609496)"/>
</g>
</g>
</g>
<g clip-path="url(#clip28)" clip-rule="nonzero">
<g clip-path="url(#clip29)" clip-rule="evenodd">
<g clip-path="url(#clip30)" clip-rule="evenodd">
<path style="fill:none;stroke-width:0.0199586;stroke-linecap:butt;stroke-linejoin:miter;stroke:rgb(17.96875%,20.3125%,21.09375%);stroke-opacity:0.8;stroke-miterlimit:10;" d="M 1.606044 2.825046 L 2.214672 2.326018 " transform="matrix(208.319413,0,0,208.319413,-102.913923,-116.609496)"/>
</g>
</g>
</g>
<g clip-path="url(#clip31)" clip-rule="nonzero">
<g clip-path="url(#clip32)" clip-rule="evenodd">
<g clip-path="url(#clip33)" clip-rule="evenodd">
<path style="fill:none;stroke-width:0.0199586;stroke-linecap:butt;stroke-linejoin:miter;stroke:rgb(17.96875%,20.3125%,21.09375%);stroke-opacity:0.8;stroke-miterlimit:10;" d="M 1.606044 2.825046 L 1.063664 2.862023 " transform="matrix(208.319413,0,0,208.319413,-102.913923,-116.609496)"/>
</g>
</g>
</g>
<g clip-path="url(#clip34)" clip-rule="nonzero">
<g clip-path="url(#clip35)" clip-rule="evenodd">
<g clip-path="url(#clip36)" clip-rule="evenodd">
<path style="fill:none;stroke-width:0.0199586;stroke-linecap:butt;stroke-linejoin:miter;stroke:rgb(17.96875%,20.3125%,21.09375%);stroke-opacity:0.8;stroke-miterlimit:10;" d="M 1.606044 2.825046 L 2.012459 3.120359 " transform="matrix(208.319413,0,0,208.319413,-102.913923,-116.609496)"/>
</g>
</g>
</g>
<g clip-path="url(#clip37)" clip-rule="nonzero">
<g clip-path="url(#clip38)" clip-rule="evenodd">
<g clip-path="url(#clip39)" clip-rule="evenodd">
<path style="fill:none;stroke-width:0.0199586;stroke-linecap:butt;stroke-linejoin:miter;stroke:rgb(17.96875%,20.3125%,21.09375%);stroke-opacity:0.8;stroke-miterlimit:10;" d="M 2.214672 2.326018 L 2.545463 1.534584 " transform="matrix(208.319413,0,0,208.319413,-102.913923,-116.609496)"/>
</g>
</g>
</g>
<g clip-path="url(#clip40)" clip-rule="nonzero">
<g clip-path="url(#clip41)" clip-rule="evenodd">
<g clip-path="url(#clip42)" clip-rule="evenodd">
<path style="fill:none;stroke-width:0.0199586;stroke-linecap:butt;stroke-linejoin:miter;stroke:rgb(17.96875%,20.3125%,21.09375%);stroke-opacity:0.8;stroke-miterlimit:10;" d="M 2.214672 2.326018 L 2.638451 2.011391 " transform="matrix(208.319413,0,0,208.319413,-102.913923,-116.609496)"/>
</g>
</g>
</g>
<g clip-path="url(#clip43)" clip-rule="nonzero">
<g clip-path="url(#clip44)" clip-rule="evenodd">
<g clip-path="url(#clip45)" clip-rule="evenodd">
<path style="fill:none;stroke-width:0.0199586;stroke-linecap:butt;stroke-linejoin:miter;stroke:rgb(17.96875%,20.3125%,21.09375%);stroke-opacity:0.8;stroke-miterlimit:10;" d="M 2.214672 2.326018 L 1.819021 2.258495 " transform="matrix(208.319413,0,0,208.319413,-102.913923,-116.609496)"/>
</g>
</g>
</g>
<g clip-path="url(#clip46)" clip-rule="nonzero">
<g clip-path="url(#clip47)" clip-rule="evenodd">
<g clip-path="url(#clip48)" clip-rule="evenodd">
<path style="fill:none;stroke-width:0.0199586;stroke-linecap:butt;stroke-linejoin:miter;stroke:rgb(17.96875%,20.3125%,21.09375%);stroke-opacity:0.8;stroke-miterlimit:10;" d="M 2.31441 3.235229 L 2.012459 3.120359 " transform="matrix(208.319413,0,0,208.319413,-102.913923,-116.609496)"/>
</g>
</g>
</g>
<g clip-path="url(#clip49)" clip-rule="nonzero">
<g clip-path="url(#clip50)" clip-rule="evenodd">
<g clip-path="url(#clip51)" clip-rule="evenodd">
<path style="fill:none;stroke-width:0.0199586;stroke-linecap:butt;stroke-linejoin:miter;stroke:rgb(17.96875%,20.3125%,21.09375%);stroke-opacity:0.8;stroke-miterlimit:10;" d="M 2.103046 1.070866 L 2.545463 1.534584 " transform="matrix(208.319413,0,0,208.319413,-102.913923,-116.609496)"/>
</g>
</g>
</g>
<g clip-path="url(#clip52)" clip-rule="nonzero">
<g clip-path="url(#clip53)" clip-rule="evenodd">
<g clip-path="url(#clip54)" clip-rule="evenodd">
<path style="fill:none;stroke-width:0.0199586;stroke-linecap:butt;stroke-linejoin:miter;stroke:rgb(17.96875%,20.3125%,21.09375%);stroke-opacity:0.8;stroke-miterlimit:10;" d="M 2.103046 1.070866 L 2.66444 1.082454 " transform="matrix(208.319413,0,0,208.319413,-102.913923,-116.609496)"/>
</g>
</g>
</g>
<g clip-path="url(#clip55)" clip-rule="nonzero">
<g clip-path="url(#clip56)" clip-rule="evenodd">
<g clip-path="url(#clip57)" clip-rule="evenodd">
<path style="fill:none;stroke-width:0.0199586;stroke-linecap:butt;stroke-linejoin:miter;stroke:rgb(17.96875%,20.3125%,21.09375%);stroke-opacity:0.8;stroke-miterlimit:10;" d="M 3.020976 0.931825 L 2.66444 1.082454 " transform="matrix(208.319413,0,0,208.319413,-102.913923,-116.609496)"/>
</g>
</g>
</g>
<g clip-path="url(#clip58)" clip-rule="nonzero">
<g clip-path="url(#clip59)" clip-rule="evenodd">
<g clip-path="url(#clip60)" clip-rule="evenodd">
<path style="fill:none;stroke-width:0.0199586;stroke-linecap:butt;stroke-linejoin:miter;stroke:rgb(17.96875%,20.3125%,21.09375%);stroke-opacity:0.8;stroke-miterlimit:10;" d="M 3.020976 0.931825 L 2.913738 1.168354 " transform="matrix(208.319413,0,0,208.319413,-102.913923,-116.609496)"/>
</g>
</g>
</g>
<g clip-path="url(#clip61)" clip-rule="nonzero">
<g clip-path="url(#clip62)" clip-rule="evenodd">
<g clip-path="url(#clip63)" clip-rule="evenodd">
<path style="fill:none;stroke-width:0.0199586;stroke-linecap:butt;stroke-linejoin:miter;stroke:rgb(17.96875%,20.3125%,21.09375%);stroke-opacity:0.8;stroke-miterlimit:10;" d="M 2.545463 1.534584 L 2.66444 1.082454 " transform="matrix(208.319413,0,0,208.319413,-102.913923,-116.609496)"/>
</g>
</g>
</g>
<g clip-path="url(#clip64)" clip-rule="nonzero">
<g clip-path="url(#clip65)" clip-rule="evenodd">
<g clip-path="url(#clip66)" clip-rule="evenodd">
<path style="fill:none;stroke-width:0.0199586;stroke-linecap:butt;stroke-linejoin:miter;stroke:rgb(17.96875%,20.3125%,21.09375%);stroke-opacity:0.8;stroke-miterlimit:10;" d="M 2.545463 1.534584 L 2.638451 2.011391 " transform="matrix(208.319413,0,0,208.319413,-102.913923,-116.609496)"/>
</g>
</g>
</g>
<g clip-path="url(#clip67)" clip-rule="nonzero">
<g clip-path="url(#clip68)" clip-rule="evenodd">
<g clip-path="url(#clip69)" clip-rule="evenodd">
<path style="fill:none;stroke-width:0.0199586;stroke-linecap:butt;stroke-linejoin:miter;stroke:rgb(17.96875%,20.3125%,21.09375%);stroke-opacity:0.8;stroke-miterlimit:10;" d="M 2.545463 1.534584 L 2.913738 1.168354 " transform="matrix(208.319413,0,0,208.319413,-102.913923,-116.609496)"/>
</g>
</g>
</g>
<g clip-path="url(#clip70)" clip-rule="nonzero">
<g clip-path="url(#clip71)" clip-rule="evenodd">
<g clip-path="url(#clip72)" clip-rule="evenodd">
<path style="fill:none;stroke-width:0.0199586;stroke-linecap:butt;stroke-linejoin:miter;stroke:rgb(17.96875%,20.3125%,21.09375%);stroke-opacity:0.8;stroke-miterlimit:10;" d="M 2.66444 1.082454 L 2.913738 1.168354 " transform="matrix(208.319413,0,0,208.319413,-102.913923,-116.609496)"/>
</g>
</g>
</g>
<path style="fill-rule:nonzero;fill:rgb(100%,92.941176%,43.529412%);fill-opacity:1;stroke-width:0.0199586;stroke-linecap:butt;stroke-linejoin:miter;stroke:rgb(60%,60%,60%);stroke-opacity:0.8;stroke-miterlimit:10;" d="M 0.099793 -0.00000232249 C 0.099793 0.0551076 0.0551087 0.0997918 -0.00000120771 0.0997918 C -0.0551111 0.0997918 -0.0997954 0.0551076 -0.0997954 -0.00000232249 C -0.0997954 -0.0551123 -0.0551111 -0.0997965 -0.00000120771 -0.0997965 C 0.0551087 -0.0997965 0.099793 -0.0551123 0.099793 -0.00000232249 Z M 0.099793 -0.00000232249 " transform="matrix(208.319413,0,0,208.319413,73.586189,124.613765)"/>
<path style="fill-rule:nonzero;fill:rgb(100%,92.941176%,43.529412%);fill-opacity:1;stroke-width:0.0199586;stroke-linecap:butt;stroke-linejoin:miter;stroke:rgb(60%,60%,60%);stroke-opacity:0.8;stroke-miterlimit:10;" d="M 0.0997929 0.00000400587 C 0.0997929 0.0551139 0.0551087 0.0997982 -0.00000127378 0.0997982 C -0.0551112 0.0997982 -0.0997954 0.0551139 -0.0997954 0.00000400587 C -0.0997954 -0.0551059 -0.0551112 -0.0997902 -0.00000127378 -0.0997902 C 0.0551087 -0.0997902 0.0997929 -0.0551059 0.0997929 0.00000400587 Z M 0.0997929 0.00000400587 " transform="matrix(208.319413,0,0,208.319413,157.738547,85.819478)"/>
<path style="fill-rule:nonzero;fill:rgb(100%,92.941176%,43.529412%);fill-opacity:1;stroke-width:0.0199586;stroke-linecap:butt;stroke-linejoin:miter;stroke:rgb(60%,60%,60%);stroke-opacity:0.8;stroke-miterlimit:10;" d="M 0.0997909 -0.00000299422 C 0.0997909 0.0551069 0.0551067 0.0997912 -0.00000326432 0.0997912 C -0.0551132 0.0997912 -0.0997974 0.0551069 -0.0997974 -0.00000299422 C -0.0997974 -0.0551129 -0.0551132 -0.0997972 -0.00000326432 -0.0997972 C 0.0551067 -0.0997972 0.0997909 -0.0551129 0.0997909 -0.00000299422 Z M 0.0997909 -0.00000299422 " transform="matrix(208.319413,0,0,208.319413,111.637399,42.649061)"/>
<path style="fill-rule:nonzero;fill:rgb(100%,92.941176%,43.529412%);fill-opacity:1;stroke-width:0.0199586;stroke-linecap:butt;stroke-linejoin:miter;stroke:rgb(60%,60%,60%);stroke-opacity:0.8;stroke-miterlimit:10;" d="M 0.0997932 0.00000666853 C 0.0997932 0.0551166 0.055109 0.0998008 -0.000000923643 0.0998008 C -0.0551109 0.0998008 -0.0997951 0.0551166 -0.0997951 0.00000666853 C -0.0997951 -0.055122 -0.0551109 -0.0997875 -0.000000923643 -0.0997875 C 0.055109 -0.0997875 0.0997932 -0.055122 0.0997932 0.00000666853 Z M 0.0997932 0.00000666853 " transform="matrix(208.319413,0,0,208.319413,88.922067,83.881423)"/>
<path style="fill-rule:nonzero;fill:rgb(55.294118%,82.745098%,78.039216%);fill-opacity:1;stroke-width:0.0199586;stroke-linecap:butt;stroke-linejoin:miter;stroke:rgb(60%,60%,60%);stroke-opacity:0.8;stroke-miterlimit:10;" d="M 0.0997944 0.00000556527 C 0.0997944 0.0551155 0.0551102 0.0997997 0.000000250964 0.0997997 C -0.0551097 0.0997997 -0.0997939 0.0551155 -0.0997939 0.00000556527 C -0.0997939 -0.0551231 -0.0551097 -0.0997886 0.000000250964 -0.0997886 C 0.0551102 -0.0997886 0.0997944 -0.0551231 0.0997944 0.00000556527 Z M 0.0997944 0.00000556527 " transform="matrix(208.319413,0,0,208.319413,376.492135,494.889466)"/>
<path style="fill-rule:nonzero;fill:rgb(55.294118%,82.745098%,78.039216%);fill-opacity:1;stroke-width:0.0199586;stroke-linecap:butt;stroke-linejoin:miter;stroke:rgb(60%,60%,60%);stroke-opacity:0.8;stroke-miterlimit:10;" d="M 0.0998016 0.00000413878 C 0.0998016 0.0551141 0.0551174 0.0997983 0.00000742421 0.0997983 C -0.0551213 0.0997983 -0.0997867 0.0551141 -0.0997867 0.00000413878 C -0.0997867 -0.0551058 -0.0551213 -0.09979 0.00000742421 -0.09979 C 0.0551174 -0.09979 0.0998016 -0.0551058 0.0998016 0.00000413878 Z M 0.0998016 0.00000413878 " transform="matrix(208.319413,0,0,208.319413,231.654703,471.901482)"/>
<path style="fill-rule:nonzero;fill:rgb(55.294118%,82.745098%,78.039216%);fill-opacity:1;stroke-width:0.0199586;stroke-linecap:butt;stroke-linejoin:miter;stroke:rgb(60%,60%,60%);stroke-opacity:0.8;stroke-miterlimit:10;" d="M 0.0997846 -0.0000000691776 C 0.0997846 0.0551099 0.0551191 0.0997941 0.00000921079 0.0997941 C -0.0551195 0.0997941 -0.099785 0.0551099 -0.099785 -0.0000000691776 C -0.099785 -0.05511 -0.0551195 -0.0997942 0.00000921079 -0.0997942 C 0.0551191 -0.0997942 0.0997846 -0.05511 0.0997846 -0.0000000691776 Z M 0.0997846 -0.0000000691776 " transform="matrix(208.319413,0,0,208.319413,358.443394,367.945327)"/>
<path style="fill-rule:nonzero;fill:rgb(55.294118%,82.745098%,78.039216%);fill-opacity:1;stroke-width:0.0199586;stroke-linecap:butt;stroke-linejoin:miter;stroke:rgb(60%,60%,60%);stroke-opacity:0.8;stroke-miterlimit:10;" d="M 0.0997862 0.00000299422 C 0.0997862 0.0551129 0.0551207 0.0997972 -0.00000798275 0.0997972 C -0.0551179 0.0997972 -0.0997834 0.0551129 -0.0997834 0.00000299422 C -0.0997834 -0.0551069 -0.0551179 -0.0997912 -0.00000798275 -0.0997912 C 0.0551207 -0.0997912 0.0997862 -0.0551069 0.0997862 0.00000299422 Z M 0.0997862 0.00000299422 " transform="matrix(208.319413,0,0,208.319413,379.224319,557.350939)"/>
<path style="fill-rule:nonzero;fill:rgb(55.294118%,82.745098%,78.039216%);fill-opacity:1;stroke-width:0.0199586;stroke-linecap:butt;stroke-linejoin:miter;stroke:rgb(60%,60%,60%);stroke-opacity:0.8;stroke-miterlimit:10;" d="M 0.0997836 -0.00000555109 C 0.0997836 0.0551231 0.0551181 0.0997886 0.00000820465 0.0997886 C -0.0551205 0.0997886 -0.099786 0.0551231 -0.099786 -0.00000555109 C -0.099786 -0.0551155 -0.0551205 -0.0997997 0.00000820465 -0.0997997 C 0.0551181 -0.0997997 0.0997836 -0.0551155 0.0997836 -0.00000555109 Z M 0.0997836 -0.00000555109 " transform="matrix(208.319413,0,0,208.319413,118.66626,479.606625)"/>
<path style="fill-rule:nonzero;fill:rgb(55.294118%,82.745098%,78.039216%);fill-opacity:1;stroke-width:0.0199586;stroke-linecap:butt;stroke-linejoin:miter;stroke:rgb(60%,60%,60%);stroke-opacity:0.8;stroke-miterlimit:10;" d="M 0.09979 0.00000551627 C 0.09979 0.0551154 0.0551058 0.0997997 -0.00000415889 0.0997997 C -0.0551141 0.0997997 -0.0997983 0.0551154 -0.0997983 0.00000551627 C -0.0997983 -0.0551232 -0.0551141 -0.0997887 -0.00000415889 -0.0997887 C 0.0551058 -0.0997887 0.09979 -0.0551232 0.09979 0.00000551627 Z M 0.09979 0.00000551627 " transform="matrix(208.319413,0,0,208.319413,316.321179,533.420726)"/>
<path style="fill-rule:nonzero;fill:rgb(100%,92.941176%,43.529412%);fill-opacity:1;stroke-width:0.0199586;stroke-linecap:butt;stroke-linejoin:miter;stroke:rgb(60%,60%,60%);stroke-opacity:0.8;stroke-miterlimit:10;" d="M 0.0998021 0.00000295553 C 0.0998021 0.0551129 0.0551179 0.0997971 0.00000792969 0.0997971 C -0.0551208 0.0997971 -0.0997862 0.0551129 -0.0997862 0.00000295553 C -0.0997862 -0.055107 -0.0551208 -0.0997912 0.00000792969 -0.0997912 C 0.0551179 -0.0997912 0.0998021 -0.055107 0.0998021 0.00000295553 Z M 0.0998021 0.00000295553 " transform="matrix(208.319413,0,0,208.319413,335.189754,106.472041)"/>
<path style="fill-rule:nonzero;fill:rgb(100%,92.941176%,43.529412%);fill-opacity:1;stroke-width:0.0199586;stroke-linecap:butt;stroke-linejoin:miter;stroke:rgb(60%,60%,60%);stroke-opacity:0.8;stroke-miterlimit:10;" d="M 0.0997954 0.00000707506 C 0.0997954 0.055117 0.0551111 0.0998012 0.00000120771 0.0998012 C -0.0551087 0.0998012 -0.099793 0.055117 -0.099793 0.00000707506 C -0.099793 -0.0551216 -0.0551087 -0.0997871 0.00000120771 -0.0997871 C 0.0551111 -0.0997871 0.0997954 -0.0551216 0.0997954 0.00000707506 Z M 0.0997954 0.00000707506 " transform="matrix(208.319413,0,0,208.319413,526.413811,77.506339)"/>
<path style="fill-rule:nonzero;fill:rgb(100%,92.941176%,43.529412%);fill-opacity:1;stroke-width:0.0199586;stroke-linecap:butt;stroke-linejoin:miter;stroke:rgb(60%,60%,60%);stroke-opacity:0.8;stroke-miterlimit:10;" d="M 0.0997858 -0.000000826776 C 0.0997858 0.0551091 0.0551203 0.0997933 -0.00000835424 0.0997933 C -0.0551183 0.0997933 -0.0997838 0.0551091 -0.0997838 -0.000000826776 C -0.0997838 -0.0551108 -0.0551183 -0.099795 -0.00000835424 -0.099795 C 0.0551203 -0.099795 0.0997858 -0.0551108 0.0997858 -0.000000826776 Z M 0.0997858 -0.000000826776 " transform="matrix(208.319413,0,0,208.319413,427.357209,203.074391)"/>
<path style="fill-rule:nonzero;fill:rgb(100%,92.941176%,43.529412%);fill-opacity:1;stroke-width:0.0199586;stroke-linecap:butt;stroke-linejoin:miter;stroke:rgb(60%,60%,60%);stroke-opacity:0.8;stroke-miterlimit:10;" d="M 0.0997924 0.000000451336 C 0.0997924 0.0551104 0.0551082 0.0997946 -0.00000176415 0.0997946 C -0.0551117 0.0997946 -0.0997959 0.0551104 -0.0997959 0.000000451336 C -0.0997959 -0.0551095 -0.0551117 -0.0997937 -0.00000176415 -0.0997937 C 0.0551082 -0.0997937 0.0997924 -0.0551095 0.0997924 0.000000451336 Z M 0.0997924 0.000000451336 " transform="matrix(208.319413,0,0,208.319413,452.140993,108.886625)"/>
<path style="fill-rule:nonzero;fill:rgb(55.294118%,82.745098%,78.039216%);fill-opacity:1;stroke-width:0.0199586;stroke-linecap:butt;stroke-linejoin:miter;stroke:rgb(60%,60%,60%);stroke-opacity:0.8;stroke-miterlimit:10;" d="M 0.0997982 0.00000393352 C 0.0997982 0.0551139 0.055114 0.0997981 0.00000407853 0.0997981 C -0.0551059 0.0997981 -0.0997901 0.0551139 -0.0997901 0.00000393352 C -0.0997901 -0.055106 -0.0551059 -0.0997902 0.00000407853 -0.0997902 C 0.055114 -0.0997902 0.0997982 -0.055106 0.0997982 0.00000393352 Z M 0.0997982 0.00000393352 " transform="matrix(208.319413,0,0,208.319413,446.725713,302.401524)"/>
<path style="fill-rule:nonzero;fill:rgb(55.294118%,82.745098%,78.039216%);fill-opacity:1;stroke-width:0.0199586;stroke-linecap:butt;stroke-linejoin:miter;stroke:rgb(60%,60%,60%);stroke-opacity:0.8;stroke-miterlimit:10;" d="M 0.0997987 -0.00000372984 C 0.0997987 0.0551062 0.0551144 0.0997904 0.00000448898 0.0997904 C -0.0551054 0.0997904 -0.0997897 0.0551062 -0.0997897 -0.00000372984 C -0.0997897 -0.0551137 -0.0551054 -0.0997979 0.00000448898 -0.0997979 C 0.0551144 -0.0997979 0.0997987 -0.0551137 0.0997987 -0.00000372984 Z M 0.0997987 -0.00000372984 " transform="matrix(208.319413,0,0,208.319413,276.022502,353.879683)"/>
<path style="fill-rule:nonzero;fill:rgb(100%,92.941176%,43.529412%);fill-opacity:1;stroke-width:0.0199586;stroke-linecap:butt;stroke-linejoin:miter;stroke:rgb(60%,60%,60%);stroke-opacity:0.8;stroke-miterlimit:10;" d="M 0.0998014 -0.000000478185 C 0.0998014 0.0551095 0.0551172 0.0997937 0.00000722109 0.0997937 C -0.0551215 0.0997937 -0.0997869 0.0551095 -0.0997869 -0.000000478185 C -0.0997869 -0.0551104 -0.0551215 -0.0997946 0.00000722109 -0.0997946 C 0.0551172 -0.0997946 0.0998014 -0.0551104 0.0998014 -0.000000478185 Z M 0.0998014 -0.000000478185 " transform="matrix(208.319413,0,0,208.319413,504.072714,126.78135)"/>
</g>
</svg>
