<?xml version="1.0" encoding="UTF-8"?>
<svg xmlns="http://www.w3.org/2000/svg" xmlns:xlink="http://www.w3.org/1999/xlink" width="600pt" height="600pt" viewBox="0 0 600 600" version="1.1">
<defs>
<clipPath id="clip1">
  <path d="M 286.117188 296 L 405.125 296 L 405.125 417 L 286.117188 417 Z M 286.117188 296 "/>
</clipPath>
<clipPath id="clip2">
  <path d="M 286.117188 191.550781 L 405.125 191.550781 L 405.125 521.539062 L 286.117188 521.539062 Z M 286.117188 191.550781 L 381.167969 352.53125 C 381.167969 363.394531 372.363281 372.195312 361.503906 372.195312 C 350.644531 372.195312 341.839844 363.394531 341.839844 352.53125 C 341.839844 341.671875 350.644531 332.867188 361.503906 332.867188 C 372.363281 332.867188 381.167969 341.671875 381.167969 352.53125 Z M 286.117188 191.550781 "/>
</clipPath>
<clipPath id="clip3">
  <path d="M 286.117188 191.550781 L 405.125 191.550781 L 405.125 521.539062 L 286.117188 521.539062 Z M 286.117188 191.550781 L 349.402344 360.558594 C 349.402344 371.417969 340.601562 380.222656 329.738281 380.222656 C 318.878906 380.222656 310.074219 371.417969 310.074219 360.558594 C 310.074219 349.695312 318.878906 340.894531 329.738281 340.894531 C 340.601562 340.894531 349.402344 349.695312 349.402344 360.558594 Z M 286.117188 191.550781 "/>
</clipPath>
<clipPath id="clip4">
  <path d="M 305 213.546875 L 444 213.546875 L 444 402.242188 L 305 402.242188 Z M 305 213.546875 "/>
</clipPath>
<clipPath id="clip5">
  <path d="M 202.1875 213.546875 L 547.121094 213.546875 L 547.121094 402.242188 L 202.1875 402.242188 Z M 202.1875 213.546875 L 381.167969 352.53125 C 381.167969 363.394531 372.363281 372.195312 361.503906 372.195312 C 350.644531 372.195312 341.839844 363.394531 341.839844 352.53125 C 341.839844 341.671875 350.644531 332.867188 361.503906 332.867188 C 372.363281 332.867188 381.167969 341.671875 381.167969 352.53125 Z M 202.1875 213.546875 "/>
</clipPath>
<clipPath id="clip6">
  <path d="M 202.1875 213.546875 L 547.121094 213.546875 L 547.121094 402.242188 L 202.1875 402.242188 Z M 202.1875 213.546875 L 407.46875 263.257812 C 407.46875 274.117188 398.667969 282.921875 387.804688 282.921875 C 376.945312 282.921875 368.140625 274.117188 368.140625 263.257812 C 368.140625 252.398438 376.945312 243.59375 387.804688 243.59375 C 398.667969 243.59375 407.46875 252.398438 407.46875 263.257812 Z M 202.1875 213.546875 "/>
</clipPath>
<clipPath id="clip7">
  <path d="M 272 296 L 418 296 L 418 487 L 272 487 Z M 272 296 "/>
</clipPath>
<clipPath id="clip8">
  <path d="M 174.9375 284.863281 L 514.355469 284.863281 L 514.355469 498.976562 L 174.9375 498.976562 Z M 174.9375 284.863281 L 381.167969 352.53125 C 381.167969 363.394531 372.363281 372.195312 361.503906 372.195312 C 350.644531 372.195312 341.839844 363.394531 341.839844 352.53125 C 341.839844 341.671875 350.644531 332.867188 361.503906 332.867188 C 372.363281 332.867188 381.167969 341.671875 381.167969 352.53125 Z M 174.9375 284.863281 "/>
</clipPath>
<clipPath id="clip9">
  <path d="M 174.9375 284.863281 L 514.355469 284.863281 L 514.355469 498.976562 L 174.9375 498.976562 Z M 174.9375 284.863281 L 347.453125 431.308594 C 347.453125 442.171875 338.652344 450.972656 327.789062 450.972656 C 316.929688 450.972656 308.125 442.171875 308.125 431.308594 C 308.125 420.449219 316.929688 411.644531 327.789062 411.644531 C 338.652344 411.644531 347.453125 420.449219 347.453125 431.308594 Z M 174.9375 284.863281 "/>
</clipPath>
<clipPath id="clip10">
  <path d="M 212 460 L 353 460 L 353 600 L 212 600 Z M 212 460 "/>
</clipPath>
<clipPath id="clip11">
  <path d="M 129.746094 422.265625 L 434.945312 422.265625 L 434.945312 653.125 L 129.746094 653.125 Z M 129.746094 422.265625 L 316.222656 516.542969 C 316.222656 527.40625 307.417969 536.207031 296.558594 536.207031 C 285.699219 536.207031 276.894531 527.40625 276.894531 516.542969 C 276.894531 505.683594 285.699219 496.878906 296.558594 496.878906 C 307.417969 496.878906 316.222656 505.683594 316.222656 516.542969 Z M 129.746094 422.265625 "/>
</clipPath>
<clipPath id="clip12">
  <path d="M 129.746094 422.265625 L 434.945312 422.265625 L 434.945312 653.125 L 129.746094 653.125 Z M 129.746094 422.265625 L 287.796875 558.847656 C 287.796875 569.707031 278.992188 578.511719 268.132812 578.511719 C 257.273438 578.511719 248.46875 569.707031 248.46875 558.847656 C 248.46875 547.988281 257.273438 539.183594 268.132812 539.183594 C 278.992188 539.183594 287.796875 547.988281 287.796875 558.847656 Z M 129.746094 422.265625 "/>
</clipPath>
<clipPath id="clip13">
  <path d="M 240 375 L 384 375 L 384 573 L 240 573 Z M 240 375 "/>
</clipPath>
<clipPath id="clip14">
  <path d="M 140.527344 371.644531 L 483.820312 371.644531 L 483.820312 576.207031 L 140.527344 576.207031 Z M 140.527344 371.644531 L 316.222656 516.542969 C 316.222656 527.40625 307.417969 536.207031 296.558594 536.207031 C 285.699219 536.207031 276.894531 527.40625 276.894531 516.542969 C 276.894531 505.683594 285.699219 496.878906 296.558594 496.878906 C 307.417969 496.878906 316.222656 505.683594 316.222656 516.542969 Z M 140.527344 371.644531 "/>
</clipPath>
<clipPath id="clip15">
  <path d="M 140.527344 371.644531 L 483.820312 371.644531 L 483.820312 576.207031 L 140.527344 576.207031 Z M 140.527344 371.644531 L 347.453125 431.308594 C 347.453125 442.171875 338.652344 450.972656 327.789062 450.972656 C 316.929688 450.972656 308.125 442.171875 308.125 431.308594 C 308.125 420.449219 316.929688 411.644531 327.789062 411.644531 C 338.652344 411.644531 347.453125 420.449219 347.453125 431.308594 Z M 140.527344 371.644531 "/>
</clipPath>
<clipPath id="clip16">
  <path d="M 274 207 L 444 207 L 444 417 L 274 417 Z M 274 207 "/>
</clipPath>
<clipPath id="clip17">
  <path d="M 186.707031 176.3125 L 530.835938 176.3125 L 530.835938 447.503906 L 186.707031 447.503906 Z M 186.707031 176.3125 L 349.402344 360.558594 C 349.402344 371.417969 340.601562 380.222656 329.738281 380.222656 C 318.878906 380.222656 310.074219 371.417969 310.074219 360.558594 C 310.074219 349.695312 318.878906 340.894531 329.738281 340.894531 C 340.601562 340.894531 349.402344 349.695312 349.402344 360.558594 Z M 186.707031 176.3125 "/>
</clipPath>
<clipPath id="clip18">
  <path d="M 186.707031 176.3125 L 530.835938 176.3125 L 530.835938 447.503906 L 186.707031 447.503906 Z M 186.707031 176.3125 L 407.46875 263.257812 C 407.46875 274.117188 398.667969 282.921875 387.804688 282.921875 C 376.945312 282.921875 368.140625 274.117188 368.140625 263.257812 C 368.140625 252.398438 376.945312 243.59375 387.804688 243.59375 C 398.667969 243.59375 407.46875 252.398438 407.46875 263.257812 Z M 186.707031 176.3125 "/>
</clipPath>
<clipPath id="clip19">
  <path d="M 272 352.164062 L 386 352.164062 L 386 439.703125 L 272 439.703125 Z M 272 352.164062 "/>
</clipPath>
<clipPath id="clip20">
  <path d="M 161.933594 352.164062 L 495.59375 352.164062 L 495.59375 439.703125 L 161.933594 439.703125 Z M 161.933594 352.164062 L 349.402344 360.558594 C 349.402344 371.417969 340.601562 380.222656 329.738281 380.222656 C 318.878906 380.222656 310.074219 371.417969 310.074219 360.558594 C 310.074219 349.695312 318.878906 340.894531 329.738281 340.894531 C 340.601562 340.894531 349.402344 349.695312 349.402344 360.558594 Z M 161.933594 352.164062 "/>
</clipPath>
<clipPath id="clip21">
  <path d="M 161.933594 352.164062 L 495.59375 352.164062 L 495.59375 439.703125 L 161.933594 439.703125 Z M 161.933594 352.164062 L 347.453125 431.308594 C 347.453125 442.171875 338.652344 450.972656 327.789062 450.972656 C 316.929688 450.972656 308.125 442.171875 308.125 431.308594 C 308.125 420.449219 316.929688 411.644531 327.789062 411.644531 C 338.652344 411.644531 347.453125 420.449219 347.453125 431.308594 Z M 161.933594 352.164062 "/>
</clipPath>
<clipPath id="clip22">
  <path d="M 274 304 L 510 304 L 510 461 L 274 461 Z M 274 304 "/>
</clipPath>
<clipPath id="clip23">
  <path d="M 271.492188 204.015625 L 512.261719 204.015625 L 512.261719 561.332031 L 271.492188 561.332031 Z M 271.492188 204.015625 L 349.402344 360.558594 C 349.402344 371.417969 340.601562 380.222656 329.738281 380.222656 C 318.878906 380.222656 310.074219 371.417969 310.074219 360.558594 C 310.074219 349.695312 318.878906 340.894531 329.738281 340.894531 C 340.601562 340.894531 349.402344 349.695312 349.402344 360.558594 Z M 271.492188 204.015625 "/>
</clipPath>
<clipPath id="clip24">
  <path d="M 271.492188 204.015625 L 512.261719 204.015625 L 512.261719 561.332031 L 271.492188 561.332031 Z M 271.492188 204.015625 L 473.679688 404.789062 C 473.679688 415.648438 464.878906 424.453125 454.015625 424.453125 C 443.15625 424.453125 434.351562 415.648438 434.351562 404.789062 C 434.351562 393.925781 443.15625 385.125 454.015625 385.125 C 464.878906 385.125 473.679688 393.925781 473.679688 404.789062 Z M 271.492188 204.015625 "/>
</clipPath>
<clipPath id="clip25">
  <path d="M 131.554688 285 L 351.394531 285 L 351.394531 417 L 131.554688 417 Z M 131.554688 285 "/>
</clipPath>
<clipPath id="clip26">
  <path d="M 131.554688 176.183594 L 351.394531 176.183594 L 351.394531 525.503906 L 131.554688 525.503906 Z M 131.554688 176.183594 L 349.402344 360.558594 C 349.402344 371.417969 340.601562 380.222656 329.738281 380.222656 C 318.878906 380.222656 310.074219 371.417969 310.074219 360.558594 C 310.074219 349.695312 318.878906 340.894531 329.738281 340.894531 C 340.601562 340.894531 349.402344 349.695312 349.402344 360.558594 Z M 131.554688 176.183594 "/>
</clipPath>
<clipPath id="clip27">
  <path d="M 131.554688 176.183594 L 351.394531 176.183594 L 351.394531 525.503906 L 131.554688 525.503906 Z M 131.554688 176.183594 L 172.875 341.128906 C 172.875 351.988281 164.070312 360.792969 153.210938 360.792969 C 142.351562 360.792969 133.546875 351.988281 133.546875 341.128906 C 133.546875 330.269531 142.351562 321.464844 153.210938 321.464844 C 164.070312 321.464844 172.875 330.269531 172.875 341.128906 Z M 131.554688 176.183594 "/>
</clipPath>
<clipPath id="clip28">
  <path d="M 332 125 L 491 125 L 491 319 L 332 319 Z M 332 125 "/>
</clipPath>
<clipPath id="clip29">
  <path d="M 243.148438 96.847656 L 579.351562 96.847656 L 579.351562 347.414062 L 243.148438 347.414062 Z M 243.148438 96.847656 L 407.46875 263.257812 C 407.46875 274.117188 398.667969 282.921875 387.804688 282.921875 C 376.945312 282.921875 368.140625 274.117188 368.140625 263.257812 C 368.140625 252.398438 376.945312 243.59375 387.804688 243.59375 C 398.667969 243.59375 407.46875 252.398438 407.46875 263.257812 Z M 243.148438 96.847656 "/>
</clipPath>
<clipPath id="clip30">
  <path d="M 243.148438 96.847656 L 579.351562 96.847656 L 579.351562 347.414062 L 243.148438 347.414062 Z M 243.148438 96.847656 L 454.359375 181.003906 C 454.359375 191.863281 445.554688 200.667969 434.695312 200.667969 C 423.835938 200.667969 415.03125 191.863281 415.03125 181.003906 C 415.03125 170.140625 423.835938 161.339844 434.695312 161.339844 C 445.554688 161.339844 454.359375 170.140625 454.359375 181.003906 Z M 243.148438 96.847656 "/>
</clipPath>
<clipPath id="clip31">
  <path d="M 332 149.4375 L 454 149.4375 L 454 283.910156 L 332 283.910156 Z M 332 149.4375 "/>
</clipPath>
<clipPath id="clip32">
  <path d="M 222.75 149.4375 L 562.527344 149.4375 L 562.527344 283.910156 L 222.75 283.910156 Z M 222.75 149.4375 L 407.46875 263.257812 C 407.46875 274.117188 398.667969 282.921875 387.804688 282.921875 C 376.945312 282.921875 368.140625 274.117188 368.140625 263.257812 C 368.140625 252.398438 376.945312 243.59375 387.804688 243.59375 C 398.667969 243.59375 407.46875 252.398438 407.46875 263.257812 Z M 222.75 149.4375 "/>
</clipPath>
<clipPath id="clip33">
  <path d="M 222.75 149.4375 L 562.527344 149.4375 L 562.527344 283.910156 L 222.75 283.910156 Z M 222.75 149.4375 L 417.136719 170.089844 C 417.136719 180.949219 408.332031 189.753906 397.472656 189.753906 C 386.613281 189.753906 377.808594 180.949219 377.808594 170.089844 C 377.808594 159.226562 386.613281 150.425781 397.472656 150.425781 C 408.332031 150.425781 417.136719 159.226562 417.136719 170.089844 Z M 222.75 149.4375 "/>
</clipPath>
<clipPath id="clip34">
  <path d="M 417.246094 349 L 553.8125 349 L 553.8125 474 L 417.246094 474 Z M 417.246094 349 "/>
</clipPath>
<clipPath id="clip35">
  <path d="M 417.246094 242.234375 L 553.8125 242.234375 L 553.8125 580.390625 L 417.246094 580.390625 Z M 417.246094 242.234375 L 536.707031 417.835938 C 536.707031 428.695312 527.902344 437.5 517.042969 437.5 C 506.183594 437.5 497.378906 428.695312 497.378906 417.835938 C 497.378906 406.976562 506.183594 398.171875 517.042969 398.171875 C 527.902344 398.171875 536.707031 406.976562 536.707031 417.835938 Z M 417.246094 242.234375 "/>
</clipPath>
<clipPath id="clip36">
  <path d="M 417.246094 242.234375 L 553.8125 242.234375 L 553.8125 580.390625 L 417.246094 580.390625 Z M 417.246094 242.234375 L 473.679688 404.789062 C 473.679688 415.648438 464.878906 424.453125 454.015625 424.453125 C 443.15625 424.453125 434.351562 415.648438 434.351562 404.789062 C 434.351562 393.925781 443.15625 385.125 454.015625 385.125 C 464.878906 385.125 473.679688 393.925781 473.679688 404.789062 Z M 417.246094 242.234375 "/>
</clipPath>
<clipPath id="clip37">
  <path d="M 33 106.214844 L 149 106.214844 L 149 188.976562 L 33 188.976562 Z M 33 106.214844 "/>
</clipPath>
<clipPath id="clip38">
  <path d="M -76.511719 106.214844 L 258.21875 106.214844 L 258.21875 188.976562 L -76.511719 188.976562 Z M -76.511719 106.214844 L 112.417969 122.269531 C 112.417969 133.128906 103.613281 141.933594 92.753906 141.933594 C 81.890625 141.933594 73.089844 133.128906 73.089844 122.269531 C 73.089844 111.410156 81.890625 102.605469 92.753906 102.605469 C 103.613281 102.605469 112.417969 111.410156 112.417969 122.269531 Z M -76.511719 106.214844 "/>
</clipPath>
<clipPath id="clip39">
  <path d="M -76.511719 106.214844 L 258.21875 106.214844 L 258.21875 188.976562 L -76.511719 188.976562 Z M -76.511719 106.214844 L 108.617188 172.921875 C 108.617188 183.78125 99.8125 192.585938 88.953125 192.585938 C 78.089844 192.585938 69.289062 183.78125 69.289062 172.921875 C 69.289062 162.058594 78.089844 153.257812 88.953125 153.257812 C 99.8125 153.257812 108.617188 162.058594 108.617188 172.921875 Z M -76.511719 106.214844 "/>
</clipPath>
<clipPath id="clip40">
  <path d="M 57.730469 285 L 178.4375 285 L 178.4375 407 L 57.730469 407 Z M 57.730469 285 "/>
</clipPath>
<clipPath id="clip41">
  <path d="M 57.730469 176.617188 L 178.4375 176.617188 L 178.4375 514.957031 L 57.730469 514.957031 Z M 57.730469 176.617188 L 102.621094 350.445312 C 102.621094 361.304688 93.816406 370.109375 82.957031 370.109375 C 72.097656 370.109375 63.292969 361.304688 63.292969 350.445312 C 63.292969 339.582031 72.097656 330.78125 82.957031 330.78125 C 93.816406 330.78125 102.621094 339.582031 102.621094 350.445312 Z M 57.730469 176.617188 "/>
</clipPath>
<clipPath id="clip42">
  <path d="M 57.730469 176.617188 L 178.4375 176.617188 L 178.4375 514.957031 L 57.730469 514.957031 Z M 57.730469 176.617188 L 172.875 341.128906 C 172.875 351.988281 164.070312 360.792969 153.210938 360.792969 C 142.351562 360.792969 133.546875 351.988281 133.546875 341.128906 C 133.546875 330.269531 142.351562 321.464844 153.210938 321.464844 C 164.070312 321.464844 172.875 330.269531 172.875 341.128906 Z M 57.730469 176.617188 "/>
</clipPath>
<clipPath id="clip43">
  <path d="M 33 135.507812 L 161 135.507812 L 161 284.339844 L 33 284.339844 Z M 33 135.507812 "/>
</clipPath>
<clipPath id="clip44">
  <path d="M -73.46875 135.507812 L 267.007812 135.507812 L 267.007812 284.339844 L -73.46875 284.339844 Z M -73.46875 135.507812 L 108.617188 172.921875 C 108.617188 183.78125 99.8125 192.585938 88.953125 192.585938 C 78.089844 192.585938 69.289062 183.78125 69.289062 172.921875 C 69.289062 162.058594 78.089844 153.257812 88.953125 153.257812 C 99.8125 153.257812 108.617188 162.058594 108.617188 172.921875 Z M -73.46875 135.507812 "/>
</clipPath>
<clipPath id="clip45">
  <path d="M -73.46875 135.507812 L 267.007812 135.507812 L 267.007812 284.339844 L -73.46875 284.339844 Z M -73.46875 135.507812 L 124.25 246.925781 C 124.25 257.785156 115.445312 266.589844 104.585938 266.589844 C 93.726562 266.589844 84.921875 257.785156 84.921875 246.925781 C 84.921875 236.066406 93.726562 227.261719 104.585938 227.261719 C 115.445312 227.261719 124.25 236.066406 124.25 246.925781 Z M -73.46875 135.507812 "/>
</clipPath>
<clipPath id="clip46">
  <path d="M 48 191 L 209 191 L 209 397 L 48 397 Z M 48 191 "/>
</clipPath>
<clipPath id="clip47">
  <path d="M -43.289062 168.695312 L 301.085938 168.695312 L 301.085938 419.359375 L -43.289062 419.359375 Z M -43.289062 168.695312 L 124.25 246.925781 C 124.25 257.785156 115.445312 266.589844 104.585938 266.589844 C 93.726562 266.589844 84.921875 257.785156 84.921875 246.925781 C 84.921875 236.066406 93.726562 227.261719 104.585938 227.261719 C 115.445312 227.261719 124.25 236.066406 124.25 246.925781 Z M -43.289062 168.695312 "/>
</clipPath>
<clipPath id="clip48">
  <path d="M -43.289062 168.695312 L 301.085938 168.695312 L 301.085938 419.359375 L -43.289062 419.359375 Z M -43.289062 168.695312 L 172.875 341.128906 C 172.875 351.988281 164.070312 360.792969 153.210938 360.792969 C 142.351562 360.792969 133.546875 351.988281 133.546875 341.128906 C 133.546875 330.269531 142.351562 321.464844 153.210938 321.464844 C 164.070312 321.464844 172.875 330.269531 172.875 341.128906 Z M -43.289062 168.695312 "/>
</clipPath>
<clipPath id="clip49">
  <path d="M 56 285 L 209 285 L 209 460 L 56 460 Z M 56 285 "/>
</clipPath>
<clipPath id="clip50">
  <path d="M -27.375 247.96875 L 292.339844 247.96875 L 292.339844 497.105469 L -27.375 497.105469 Z M -27.375 247.96875 L 172.875 341.128906 C 172.875 351.988281 164.070312 360.792969 153.210938 360.792969 C 142.351562 360.792969 133.546875 351.988281 133.546875 341.128906 C 133.546875 330.269531 142.351562 321.464844 153.210938 321.464844 C 164.070312 321.464844 172.875 330.269531 172.875 341.128906 Z M -27.375 247.96875 "/>
</clipPath>
<clipPath id="clip51">
  <path d="M -27.375 247.96875 L 292.339844 247.96875 L 292.339844 497.105469 L -27.375 497.105469 Z M -27.375 247.96875 L 131.421875 403.945312 C 131.421875 414.804688 122.617188 423.609375 111.753906 423.609375 C 100.894531 423.609375 92.089844 414.804688 92.089844 403.945312 C 92.089844 393.085938 100.894531 384.28125 111.753906 384.28125 C 122.617188 384.28125 131.421875 393.085938 131.421875 403.945312 Z M -27.375 247.96875 "/>
</clipPath>
<clipPath id="clip52">
  <path d="M 379 101.753906 L 492 101.753906 L 492 188.609375 L 379 188.609375 Z M 379 101.753906 "/>
</clipPath>
<clipPath id="clip53">
  <path d="M 268.820312 101.753906 L 602.195312 101.753906 L 602.195312 188.609375 L 268.820312 188.609375 Z M 268.820312 101.753906 L 455.984375 109.359375 C 455.984375 120.222656 447.179688 129.023438 436.320312 129.023438 C 425.457031 129.023438 416.65625 120.222656 416.65625 109.359375 C 416.65625 98.5 425.457031 89.695312 436.320312 89.695312 C 447.179688 89.695312 455.984375 98.5 455.984375 109.359375 Z M 268.820312 101.753906 "/>
</clipPath>
<clipPath id="clip54">
  <path d="M 268.820312 101.753906 L 602.195312 101.753906 L 602.195312 188.609375 L 268.820312 188.609375 Z M 268.820312 101.753906 L 454.359375 181.003906 C 454.359375 191.863281 445.554688 200.667969 434.695312 200.667969 C 423.835938 200.667969 415.03125 191.863281 415.03125 181.003906 C 415.03125 170.140625 423.835938 161.339844 434.695312 161.339844 C 445.554688 161.339844 454.359375 170.140625 454.359375 181.003906 Z M 268.820312 101.753906 "/>
</clipPath>
<clipPath id="clip55">
  <path d="M 323 31 L 492 31 L 492 165 L 323 165 Z M 323 31 "/>
</clipPath>
<clipPath id="clip56">
  <path d="M 317.523438 -67.742188 L 497.898438 -67.742188 L 497.898438 264.671875 L 317.523438 264.671875 Z M 317.523438 -67.742188 L 455.984375 109.359375 C 455.984375 120.222656 447.179688 129.023438 436.320312 129.023438 C 425.457031 129.023438 416.65625 120.222656 416.65625 109.359375 C 416.65625 98.5 425.457031 89.695312 436.320312 89.695312 C 447.179688 89.695312 455.984375 98.5 455.984375 109.359375 Z M 317.523438 -67.742188 "/>
</clipPath>
<clipPath id="clip57">
  <path d="M 317.523438 -67.742188 L 497.898438 -67.742188 L 497.898438 264.671875 L 317.523438 264.671875 Z M 317.523438 -67.742188 L 398.765625 87.570312 C 398.765625 98.429688 389.960938 107.234375 379.101562 107.234375 C 368.238281 107.234375 359.433594 98.429688 359.433594 87.570312 C 359.433594 76.710938 368.238281 67.90625 379.101562 67.90625 C 389.960938 67.90625 398.765625 76.710938 398.765625 87.570312 Z M 317.523438 -67.742188 "/>
</clipPath>
<clipPath id="clip58">
  <path d="M 347.960938 114 L 484.207031 114 L 484.207031 237 L 347.960938 237 Z M 347.960938 114 "/>
</clipPath>
<clipPath id="clip59">
  <path d="M 347.960938 10.714844 L 484.207031 10.714844 L 484.207031 340.378906 L 347.960938 340.378906 Z M 347.960938 10.714844 L 454.359375 181.003906 C 454.359375 191.863281 445.554688 200.667969 434.695312 200.667969 C 423.835938 200.667969 415.03125 191.863281 415.03125 181.003906 C 415.03125 170.140625 423.835938 161.339844 434.695312 161.339844 C 445.554688 161.339844 454.359375 170.140625 454.359375 181.003906 Z M 347.960938 10.714844 "/>
</clipPath>
<clipPath id="clip60">
  <path d="M 347.960938 10.714844 L 484.207031 10.714844 L 484.207031 340.378906 L 347.960938 340.378906 Z M 347.960938 10.714844 L 417.136719 170.089844 C 417.136719 180.949219 408.332031 189.753906 397.472656 189.753906 C 386.613281 189.753906 377.808594 180.949219 377.808594 170.089844 C 377.808594 159.226562 386.613281 150.425781 397.472656 150.425781 C 408.332031 150.425781 417.136719 159.226562 417.136719 170.089844 Z M 347.960938 10.714844 "/>
</clipPath>
<clipPath id="clip61">
  <path d="M 270 0 L 435 0 L 435 144 L 270 144 Z M 270 0 "/>
</clipPath>
<clipPath id="clip62">
  <path d="M 215.476562 -84.871094 L 489.492188 -84.871094 L 489.492188 213.59375 L 215.476562 213.59375 Z M 215.476562 -84.871094 L 345.53125 41.152344 C 345.53125 52.011719 336.730469 60.816406 325.867188 60.816406 C 315.007812 60.816406 306.203125 52.011719 306.203125 41.152344 C 306.203125 30.292969 315.007812 21.488281 325.867188 21.488281 C 336.730469 21.488281 345.53125 30.292969 345.53125 41.152344 Z M 215.476562 -84.871094 "/>
</clipPath>
<clipPath id="clip63">
  <path d="M 215.476562 -84.871094 L 489.492188 -84.871094 L 489.492188 213.59375 L 215.476562 213.59375 Z M 215.476562 -84.871094 L 398.765625 87.570312 C 398.765625 98.429688 389.960938 107.234375 379.101562 107.234375 C 368.238281 107.234375 359.433594 98.429688 359.433594 87.570312 C 359.433594 76.710938 368.238281 67.90625 379.101562 67.90625 C 389.960938 67.90625 398.765625 76.710938 398.765625 87.570312 Z M 215.476562 -84.871094 "/>
</clipPath>
<clipPath id="clip64">
  <path d="M 323 48.4375 L 454 48.4375 L 454 209.222656 L 323 209.222656 Z M 323 48.4375 "/>
</clipPath>
<clipPath id="clip65">
  <path d="M 217.054688 48.4375 L 559.519531 48.4375 L 559.519531 209.222656 L 217.054688 209.222656 Z M 217.054688 48.4375 L 417.136719 170.089844 C 417.136719 180.949219 408.332031 189.753906 397.472656 189.753906 C 386.613281 189.753906 377.808594 180.949219 377.808594 170.089844 C 377.808594 159.226562 386.613281 150.425781 397.472656 150.425781 C 408.332031 150.425781 417.136719 159.226562 417.136719 170.089844 Z M 217.054688 48.4375 "/>
</clipPath>
<clipPath id="clip66">
  <path d="M 217.054688 48.4375 L 559.519531 48.4375 L 559.519531 209.222656 L 217.054688 209.222656 Z M 217.054688 48.4375 L 398.765625 87.570312 C 398.765625 98.429688 389.960938 107.234375 379.101562 107.234375 C 368.238281 107.234375 359.433594 98.429688 359.433594 87.570312 C 359.433594 76.710938 368.238281 67.90625 379.101562 67.90625 C 389.960938 67.90625 398.765625 76.710938 398.765625 87.570312 Z M 217.054688 48.4375 "/>
</clipPath>
</defs>
<g id="surface76">
<g clip-path="url(#clip1)" clip-rule="nonzero">
<g clip-path="url(#clip2)" clip-rule="evenodd">
<g clip-path="url(#clip3)" clip-rule="evenodd">
<path style="fill:none;stroke-width:0.0242791;stroke-linecap:butt;stroke-linejoin:miter;stroke:rgb(17.96875%,20.3125%,21.09375%);stroke-opacity:0.8;stroke-miterlimit:10;" d="M 2.44617 3.301689 L 2.250067 3.351245 " transform="matrix(161.98463,0,0,161.98463,-34.738041,-182.291597)"/>
</g>
</g>
</g>
<g clip-path="url(#clip4)" clip-rule="nonzero">
<g clip-path="url(#clip5)" clip-rule="evenodd">
<g clip-path="url(#clip6)" clip-rule="evenodd">
<path style="fill:none;stroke-width:0.0242791;stroke-linecap:butt;stroke-linejoin:miter;stroke:rgb(17.96875%,20.3125%,21.09375%);stroke-opacity:0.8;stroke-miterlimit:10;" d="M 2.44617 3.301689 L 2.608536 2.750566 " transform="matrix(161.98463,0,0,161.98463,-34.738041,-182.291597)"/>
</g>
</g>
</g>
<g clip-path="url(#clip7)" clip-rule="nonzero">
<g clip-path="url(#clip8)" clip-rule="evenodd">
<g clip-path="url(#clip9)" clip-rule="evenodd">
<path style="fill:none;stroke-width:0.0242791;stroke-linecap:butt;stroke-linejoin:miter;stroke:rgb(17.96875%,20.3125%,21.09375%);stroke-opacity:0.8;stroke-miterlimit:10;" d="M 2.44617 3.301689 L 2.238034 3.788015 " transform="matrix(161.98463,0,0,161.98463,-34.738041,-182.291597)"/>
</g>
</g>
</g>
<g clip-path="url(#clip10)" clip-rule="nonzero">
<g clip-path="url(#clip11)" clip-rule="evenodd">
<g clip-path="url(#clip12)" clip-rule="evenodd">
<path style="fill:none;stroke-width:0.0242791;stroke-linecap:butt;stroke-linejoin:miter;stroke:rgb(17.96875%,20.3125%,21.09375%);stroke-opacity:0.8;stroke-miterlimit:10;" d="M 2.045235 4.314203 L 1.869751 4.575368 " transform="matrix(161.98463,0,0,161.98463,-34.738041,-182.291597)"/>
</g>
</g>
</g>
<g clip-path="url(#clip13)" clip-rule="nonzero">
<g clip-path="url(#clip14)" clip-rule="evenodd">
<g clip-path="url(#clip15)" clip-rule="evenodd">
<path style="fill:none;stroke-width:0.0242791;stroke-linecap:butt;stroke-linejoin:miter;stroke:rgb(17.96875%,20.3125%,21.09375%);stroke-opacity:0.8;stroke-miterlimit:10;" d="M 2.045235 4.314203 L 2.238034 3.788015 " transform="matrix(161.98463,0,0,161.98463,-34.738041,-182.291597)"/>
</g>
</g>
</g>
<g clip-path="url(#clip16)" clip-rule="nonzero">
<g clip-path="url(#clip17)" clip-rule="evenodd">
<g clip-path="url(#clip18)" clip-rule="evenodd">
<path style="fill:none;stroke-width:0.0242791;stroke-linecap:butt;stroke-linejoin:miter;stroke:rgb(17.96875%,20.3125%,21.09375%);stroke-opacity:0.8;stroke-miterlimit:10;" d="M 2.250067 3.351245 L 2.608536 2.750566 " transform="matrix(161.98463,0,0,161.98463,-34.738041,-182.291597)"/>
</g>
</g>
</g>
<g clip-path="url(#clip19)" clip-rule="nonzero">
<g clip-path="url(#clip20)" clip-rule="evenodd">
<g clip-path="url(#clip21)" clip-rule="evenodd">
<path style="fill:none;stroke-width:0.0242791;stroke-linecap:butt;stroke-linejoin:miter;stroke:rgb(17.96875%,20.3125%,21.09375%);stroke-opacity:0.8;stroke-miterlimit:10;" d="M 2.250067 3.351245 L 2.238034 3.788015 " transform="matrix(161.98463,0,0,161.98463,-34.738041,-182.291597)"/>
</g>
</g>
</g>
<g clip-path="url(#clip22)" clip-rule="nonzero">
<g clip-path="url(#clip23)" clip-rule="evenodd">
<g clip-path="url(#clip24)" clip-rule="evenodd">
<path style="fill:none;stroke-width:0.0242791;stroke-linecap:butt;stroke-linejoin:miter;stroke:rgb(17.96875%,20.3125%,21.09375%);stroke-opacity:0.8;stroke-miterlimit:10;" d="M 2.250067 3.351245 L 3.017284 3.624299 " transform="matrix(161.98463,0,0,161.98463,-34.738041,-182.291597)"/>
</g>
</g>
</g>
<g clip-path="url(#clip25)" clip-rule="nonzero">
<g clip-path="url(#clip26)" clip-rule="evenodd">
<g clip-path="url(#clip27)" clip-rule="evenodd">
<path style="fill:none;stroke-width:0.0242791;stroke-linecap:butt;stroke-linejoin:miter;stroke:rgb(17.96875%,20.3125%,21.09375%);stroke-opacity:0.8;stroke-miterlimit:10;" d="M 2.250067 3.351245 L 1.160289 3.231297 " transform="matrix(161.98463,0,0,161.98463,-34.738041,-182.291597)"/>
</g>
</g>
</g>
<g clip-path="url(#clip28)" clip-rule="nonzero">
<g clip-path="url(#clip29)" clip-rule="evenodd">
<g clip-path="url(#clip30)" clip-rule="evenodd">
<path style="fill:none;stroke-width:0.0242791;stroke-linecap:butt;stroke-linejoin:miter;stroke:rgb(17.96875%,20.3125%,21.09375%);stroke-opacity:0.8;stroke-miterlimit:10;" d="M 2.608536 2.750566 L 2.898012 2.242778 " transform="matrix(161.98463,0,0,161.98463,-34.738041,-182.291597)"/>
</g>
</g>
</g>
<g clip-path="url(#clip31)" clip-rule="nonzero">
<g clip-path="url(#clip32)" clip-rule="evenodd">
<g clip-path="url(#clip33)" clip-rule="evenodd">
<path style="fill:none;stroke-width:0.0242791;stroke-linecap:butt;stroke-linejoin:miter;stroke:rgb(17.96875%,20.3125%,21.09375%);stroke-opacity:0.8;stroke-miterlimit:10;" d="M 2.608536 2.750566 L 2.66822 2.1754 " transform="matrix(161.98463,0,0,161.98463,-34.738041,-182.291597)"/>
</g>
</g>
</g>
<g clip-path="url(#clip34)" clip-rule="nonzero">
<g clip-path="url(#clip35)" clip-rule="evenodd">
<g clip-path="url(#clip36)" clip-rule="evenodd">
<path style="fill:none;stroke-width:0.0242791;stroke-linecap:butt;stroke-linejoin:miter;stroke:rgb(17.96875%,20.3125%,21.09375%);stroke-opacity:0.8;stroke-miterlimit:10;" d="M 3.406379 3.704842 L 3.017284 3.624299 " transform="matrix(161.98463,0,0,161.98463,-34.738041,-182.291597)"/>
</g>
</g>
</g>
<g clip-path="url(#clip37)" clip-rule="nonzero">
<g clip-path="url(#clip38)" clip-rule="evenodd">
<g clip-path="url(#clip39)" clip-rule="evenodd">
<path style="fill:none;stroke-width:0.0242791;stroke-linecap:butt;stroke-linejoin:miter;stroke:rgb(17.96875%,20.3125%,21.09375%);stroke-opacity:0.8;stroke-miterlimit:10;" d="M 0.787062 1.880185 L 0.763598 2.192884 " transform="matrix(161.98463,0,0,161.98463,-34.738041,-182.291597)"/>
</g>
</g>
</g>
<g clip-path="url(#clip40)" clip-rule="nonzero">
<g clip-path="url(#clip41)" clip-rule="evenodd">
<g clip-path="url(#clip42)" clip-rule="evenodd">
<path style="fill:none;stroke-width:0.0242791;stroke-linecap:butt;stroke-linejoin:miter;stroke:rgb(17.96875%,20.3125%,21.09375%);stroke-opacity:0.8;stroke-miterlimit:10;" d="M 0.726582 3.288811 L 1.160289 3.231297 " transform="matrix(161.98463,0,0,161.98463,-34.738041,-182.291597)"/>
</g>
</g>
</g>
<g clip-path="url(#clip43)" clip-rule="nonzero">
<g clip-path="url(#clip44)" clip-rule="evenodd">
<g clip-path="url(#clip45)" clip-rule="evenodd">
<path style="fill:none;stroke-width:0.0242791;stroke-linecap:butt;stroke-linejoin:miter;stroke:rgb(17.96875%,20.3125%,21.09375%);stroke-opacity:0.8;stroke-miterlimit:10;" d="M 0.763598 2.192884 L 0.860106 2.649741 " transform="matrix(161.98463,0,0,161.98463,-34.738041,-182.291597)"/>
</g>
</g>
</g>
<g clip-path="url(#clip46)" clip-rule="nonzero">
<g clip-path="url(#clip47)" clip-rule="evenodd">
<g clip-path="url(#clip48)" clip-rule="evenodd">
<path style="fill:none;stroke-width:0.0242791;stroke-linecap:butt;stroke-linejoin:miter;stroke:rgb(17.96875%,20.3125%,21.09375%);stroke-opacity:0.8;stroke-miterlimit:10;" d="M 0.860106 2.649741 L 1.160289 3.231297 " transform="matrix(161.98463,0,0,161.98463,-34.738041,-182.291597)"/>
</g>
</g>
</g>
<g clip-path="url(#clip49)" clip-rule="nonzero">
<g clip-path="url(#clip50)" clip-rule="evenodd">
<g clip-path="url(#clip51)" clip-rule="evenodd">
<path style="fill:none;stroke-width:0.0242791;stroke-linecap:butt;stroke-linejoin:miter;stroke:rgb(17.96875%,20.3125%,21.09375%);stroke-opacity:0.8;stroke-miterlimit:10;" d="M 1.160289 3.231297 L 0.904357 3.61909 " transform="matrix(161.98463,0,0,161.98463,-34.738041,-182.291597)"/>
</g>
</g>
</g>
<g clip-path="url(#clip52)" clip-rule="nonzero">
<g clip-path="url(#clip53)" clip-rule="evenodd">
<g clip-path="url(#clip54)" clip-rule="evenodd">
<path style="fill:none;stroke-width:0.0242791;stroke-linecap:butt;stroke-linejoin:miter;stroke:rgb(17.96875%,20.3125%,21.09375%);stroke-opacity:0.8;stroke-miterlimit:10;" d="M 2.908044 1.800485 L 2.898012 2.242778 " transform="matrix(161.98463,0,0,161.98463,-34.738041,-182.291597)"/>
</g>
</g>
</g>
<g clip-path="url(#clip55)" clip-rule="nonzero">
<g clip-path="url(#clip56)" clip-rule="evenodd">
<g clip-path="url(#clip57)" clip-rule="evenodd">
<path style="fill:none;stroke-width:0.0242791;stroke-linecap:butt;stroke-linejoin:miter;stroke:rgb(17.96875%,20.3125%,21.09375%);stroke-opacity:0.8;stroke-miterlimit:10;" d="M 2.908044 1.800485 L 2.554808 1.665972 " transform="matrix(161.98463,0,0,161.98463,-34.738041,-182.291597)"/>
</g>
</g>
</g>
<g clip-path="url(#clip58)" clip-rule="nonzero">
<g clip-path="url(#clip59)" clip-rule="evenodd">
<g clip-path="url(#clip60)" clip-rule="evenodd">
<path style="fill:none;stroke-width:0.0242791;stroke-linecap:butt;stroke-linejoin:miter;stroke:rgb(17.96875%,20.3125%,21.09375%);stroke-opacity:0.8;stroke-miterlimit:10;" d="M 2.898012 2.242778 L 2.66822 2.1754 " transform="matrix(161.98463,0,0,161.98463,-34.738041,-182.291597)"/>
</g>
</g>
</g>
<g clip-path="url(#clip61)" clip-rule="nonzero">
<g clip-path="url(#clip62)" clip-rule="evenodd">
<g clip-path="url(#clip63)" clip-rule="evenodd">
<path style="fill:none;stroke-width:0.0242791;stroke-linecap:butt;stroke-linejoin:miter;stroke:rgb(17.96875%,20.3125%,21.09375%);stroke-opacity:0.8;stroke-miterlimit:10;" d="M 2.226169 1.379414 L 2.554808 1.665972 " transform="matrix(161.98463,0,0,161.98463,-34.738041,-182.291597)"/>
</g>
</g>
</g>
<g clip-path="url(#clip64)" clip-rule="nonzero">
<g clip-path="url(#clip65)" clip-rule="evenodd">
<g clip-path="url(#clip66)" clip-rule="evenodd">
<path style="fill:none;stroke-width:0.0242791;stroke-linecap:butt;stroke-linejoin:miter;stroke:rgb(17.96875%,20.3125%,21.09375%);stroke-opacity:0.8;stroke-miterlimit:10;" d="M 2.66822 2.1754 L 2.554808 1.665972 " transform="matrix(161.98463,0,0,161.98463,-34.738041,-182.291597)"/>
</g>
</g>
</g>
<path style="fill-rule:nonzero;fill:rgb(100%,92.941176%,43.529412%);fill-opacity:1;stroke-width:0.0242791;stroke-linecap:butt;stroke-linejoin:miter;stroke:rgb(60%,60%,60%);stroke-opacity:0.8;stroke-miterlimit:10;" d="M 0.121399 -0.0000107016 C 0.121399 0.067053 0.0670442 0.121384 0.00000467419 0.121384 C -0.0670349 0.121384 -0.12139 0.067053 -0.12139 -0.0000107016 C -0.12139 -0.0670502 -0.0670349 -0.121405 0.00000467419 -0.121405 C 0.0670442 -0.121405 0.121399 -0.0670502 0.121399 -0.0000107016 Z M 0.121399 -0.0000107016 " transform="matrix(161.98463,0,0,161.98463,361.503149,352.532983)"/>
<path style="fill-rule:nonzero;fill:rgb(100%,92.941176%,43.529412%);fill-opacity:1;stroke-width:0.0242791;stroke-linecap:butt;stroke-linejoin:miter;stroke:rgb(60%,60%,60%);stroke-opacity:0.8;stroke-miterlimit:10;" d="M 0.1214 -0.00000995525 C 0.1214 0.0670537 0.0670453 0.121385 0.00000577384 0.121385 C -0.0670338 0.121385 -0.121389 0.0670537 -0.121389 -0.00000995525 C -0.121389 -0.0670495 -0.0670338 -0.121405 0.00000577384 -0.121405 C 0.0670453 -0.121405 0.1214 -0.0670495 0.1214 -0.00000995525 Z M 0.1214 -0.00000995525 " transform="matrix(161.98463,0,0,161.98463,296.557658,516.544581)"/>
<path style="fill-rule:nonzero;fill:rgb(100%,92.941176%,43.529412%);fill-opacity:1;stroke-width:0.0242791;stroke-linecap:butt;stroke-linejoin:miter;stroke:rgb(60%,60%,60%);stroke-opacity:0.8;stroke-miterlimit:10;" d="M 0.121384 0.00000772412 C 0.121384 0.0670473 0.0670529 0.121402 -0.0000107269 0.121402 C -0.0670503 0.121402 -0.121405 0.0670473 -0.121405 0.00000772412 C -0.121405 -0.0670559 -0.0670503 -0.121387 -0.0000107269 -0.121387 C 0.0670529 -0.121387 0.121384 -0.0670559 0.121384 0.00000772412 Z M 0.121384 0.00000772412 " transform="matrix(161.98463,0,0,161.98463,329.740019,360.557343)"/>
<path style="fill-rule:nonzero;fill:rgb(100%,92.941176%,43.529412%);fill-opacity:1;stroke-width:0.0242791;stroke-linecap:butt;stroke-linejoin:miter;stroke:rgb(60%,60%,60%);stroke-opacity:0.8;stroke-miterlimit:10;" d="M 0.121386 0.00000369236 C 0.121386 0.0670432 0.0670552 0.121398 -0.00000843471 0.121398 C -0.067048 0.121398 -0.121403 0.0670432 -0.121403 0.00000369236 C -0.121403 -0.0670358 -0.067048 -0.121391 -0.00000843471 -0.121391 C 0.0670552 -0.121391 0.121386 -0.0670358 0.121386 0.00000369236 Z M 0.121386 0.00000369236 " transform="matrix(161.98463,0,0,161.98463,387.806054,263.257214)"/>
<path style="fill-rule:nonzero;fill:rgb(100%,92.941176%,43.529412%);fill-opacity:1;stroke-width:0.0242791;stroke-linecap:butt;stroke-linejoin:miter;stroke:rgb(60%,60%,60%);stroke-opacity:0.8;stroke-miterlimit:10;" d="M 0.121399 0.00000648155 C 0.121399 0.067046 0.0670438 0.121401 0.00000430415 0.121401 C -0.0670352 0.121401 -0.12139 0.067046 -0.12139 0.00000648155 C -0.12139 -0.0670331 -0.0670352 -0.121388 0.00000430415 -0.121388 C 0.0670438 -0.121388 0.121399 -0.0670331 0.121399 0.00000648155 Z M 0.121399 0.00000648155 " transform="matrix(161.98463,0,0,161.98463,268.132115,558.846606)"/>
<path style="fill-rule:nonzero;fill:rgb(100%,92.941176%,43.529412%);fill-opacity:1;stroke-width:0.0242791;stroke-linecap:butt;stroke-linejoin:miter;stroke:rgb(60%,60%,60%);stroke-opacity:0.8;stroke-miterlimit:10;" d="M 0.121392 0.0000023435 C 0.121392 0.0670419 0.0670372 0.121397 -0.00000236262 0.121397 C -0.0670419 0.121397 -0.121397 0.0670419 -0.121397 0.0000023435 C -0.121397 -0.0670372 -0.0670419 -0.121392 -0.00000236262 -0.121392 C 0.0670372 -0.121392 0.121392 -0.0670372 0.121392 0.0000023435 Z M 0.121392 0.0000023435 " transform="matrix(161.98463,0,0,161.98463,517.043351,417.835558)"/>
<path style="fill-rule:nonzero;fill:rgb(100%,92.941176%,43.529412%);fill-opacity:1;stroke-width:0.0242791;stroke-linecap:butt;stroke-linejoin:miter;stroke:rgb(60%,60%,60%);stroke-opacity:0.8;stroke-miterlimit:10;" d="M 0.121384 -0.00000903759 C 0.121384 0.0670546 0.0670534 0.121386 -0.0000102969 0.121386 C -0.0670498 0.121386 -0.121405 0.0670546 -0.121405 -0.00000903759 C -0.121405 -0.0670486 -0.0670498 -0.121404 -0.0000102969 -0.121404 C 0.0670534 -0.121404 0.121384 -0.0670486 0.121384 -0.00000903759 Z M 0.121384 -0.00000903759 " transform="matrix(161.98463,0,0,161.98463,327.79073,431.310058)"/>
<path style="fill-rule:nonzero;fill:rgb(100%,92.941176%,43.529412%);fill-opacity:1;stroke-width:0.0242791;stroke-linecap:butt;stroke-linejoin:miter;stroke:rgb(60%,60%,60%);stroke-opacity:0.8;stroke-miterlimit:10;" d="M 0.121388 0.00000904855 C 0.121388 0.0670486 0.0670567 0.121404 -0.00000696712 0.121404 C -0.0670465 0.121404 -0.121402 0.0670486 -0.121402 0.00000904855 C -0.121402 -0.0670546 -0.0670465 -0.121386 -0.00000696712 -0.121386 C 0.0670567 -0.121386 0.121388 -0.0670546 0.121388 0.00000904855 Z M 0.121388 0.00000904855 " transform="matrix(161.98463,0,0,161.98463,454.016754,404.787597)"/>
<path style="fill-rule:nonzero;fill:rgb(55.294118%,82.745098%,78.039216%);fill-opacity:1;stroke-width:0.0242791;stroke-linecap:butt;stroke-linejoin:miter;stroke:rgb(60%,60%,60%);stroke-opacity:0.8;stroke-miterlimit:10;" d="M 0.121405 -0.00000409605 C 0.121405 0.0670354 0.0670502 0.121391 0.0000107102 0.121391 C -0.0670529 0.121391 -0.121384 0.0670354 -0.121384 -0.00000409605 C -0.121384 -0.0670436 -0.0670529 -0.121399 0.0000107102 -0.121399 C 0.0670502 -0.121399 0.121405 -0.0670436 0.121405 -0.00000409605 Z M 0.121405 -0.00000409605 " transform="matrix(161.98463,0,0,161.98463,92.752171,122.270195)"/>
<path style="fill-rule:nonzero;fill:rgb(55.294118%,82.745098%,78.039216%);fill-opacity:1;stroke-width:0.0242791;stroke-linecap:butt;stroke-linejoin:miter;stroke:rgb(60%,60%,60%);stroke-opacity:0.8;stroke-miterlimit:10;" d="M 0.121397 0.0000102185 C 0.121397 0.0670498 0.0670419 0.121405 0.00000236262 0.121405 C -0.0670372 0.121405 -0.121392 0.0670498 -0.121392 0.0000102185 C -0.121392 -0.0670534 -0.0670372 -0.121384 0.00000236262 -0.121384 C 0.0670419 -0.121384 0.121397 -0.0670534 0.121397 0.0000102185 Z M 0.121397 0.0000102185 " transform="matrix(161.98463,0,0,161.98463,82.956649,350.443657)"/>
<path style="fill-rule:nonzero;fill:rgb(55.294118%,82.745098%,78.039216%);fill-opacity:1;stroke-width:0.0242791;stroke-linecap:butt;stroke-linejoin:miter;stroke:rgb(60%,60%,60%);stroke-opacity:0.8;stroke-miterlimit:10;" d="M 0.121402 0.0000108614 C 0.121402 0.0670504 0.0670467 0.121405 0.0000071127 0.121405 C -0.0670565 0.121405 -0.121388 0.0670504 -0.121388 0.0000108614 C -0.121388 -0.0670528 -0.0670565 -0.121384 0.0000071127 -0.121384 C 0.0670467 -0.121384 0.121402 -0.0670528 0.121402 0.0000108614 Z M 0.121402 0.0000108614 " transform="matrix(161.98463,0,0,161.98463,88.951973,172.920116)"/>
<path style="fill-rule:nonzero;fill:rgb(55.294118%,82.745098%,78.039216%);fill-opacity:1;stroke-width:0.0242791;stroke-linecap:butt;stroke-linejoin:miter;stroke:rgb(60%,60%,60%);stroke-opacity:0.8;stroke-miterlimit:10;" d="M 0.121395 -0.00000119048 C 0.121395 0.0670383 0.06704 0.121393 0.000000439919 0.121393 C -0.0670391 0.121393 -0.121394 0.0670383 -0.121394 -0.00000119048 C -0.121394 -0.0670407 -0.0670391 -0.121396 0.000000439919 -0.121396 C 0.06704 -0.121396 0.121395 -0.0670407 0.121395 -0.00000119048 Z M 0.121395 -0.00000119048 " transform="matrix(161.98463,0,0,161.98463,104.585866,246.925974)"/>
<path style="fill-rule:nonzero;fill:rgb(55.294118%,82.745098%,78.039216%);fill-opacity:1;stroke-width:0.0242791;stroke-linecap:butt;stroke-linejoin:miter;stroke:rgb(60%,60%,60%);stroke-opacity:0.8;stroke-miterlimit:10;" d="M 0.121393 -0.00000479252 C 0.121393 0.0670347 0.0670381 0.12139 -0.00000143111 0.12139 C -0.067041 0.12139 -0.121396 0.0670347 -0.121396 -0.00000479252 C -0.121396 -0.0670443 -0.067041 -0.121399 -0.00000143111 -0.121399 C 0.0670381 -0.121399 0.121393 -0.0670443 0.121393 -0.00000479252 Z M 0.121393 -0.00000479252 " transform="matrix(161.98463,0,0,161.98463,153.211169,341.129683)"/>
<path style="fill-rule:nonzero;fill:rgb(55.294118%,82.745098%,78.039216%);fill-opacity:1;stroke-width:0.0242791;stroke-linecap:butt;stroke-linejoin:miter;stroke:rgb(60%,60%,60%);stroke-opacity:0.8;stroke-miterlimit:10;" d="M 0.121407 -0.00000403316 C 0.121407 0.0670355 0.0670524 0.121391 -0.0000112478 0.121391 C -0.0670508 0.121391 -0.121406 0.0670355 -0.121406 -0.00000403316 C -0.121406 -0.0670436 -0.0670508 -0.121399 -0.0000112478 -0.121399 C 0.0670524 -0.121399 0.121407 -0.0670436 0.121407 -0.00000403316 Z M 0.121407 -0.00000403316 " transform="matrix(161.98463,0,0,161.98463,111.755728,403.945966)"/>
<path style="fill-rule:nonzero;fill:rgb(100%,92.941176%,43.529412%);fill-opacity:1;stroke-width:0.0242791;stroke-linecap:butt;stroke-linejoin:miter;stroke:rgb(60%,60%,60%);stroke-opacity:0.8;stroke-miterlimit:10;" d="M 0.121402 -0.0000107624 C 0.121402 0.0670529 0.0670466 0.121384 0.0000070198 0.121384 C -0.0670566 0.121384 -0.121388 0.0670529 -0.121388 -0.0000107624 C -0.121388 -0.0670503 -0.0670566 -0.121405 0.0000070198 -0.121405 C 0.0670466 -0.121405 0.121402 -0.0670503 0.121402 -0.0000107624 Z M 0.121402 -0.0000107624 " transform="matrix(161.98463,0,0,161.98463,436.319175,109.361118)"/>
<path style="fill-rule:nonzero;fill:rgb(100%,92.941176%,43.529412%);fill-opacity:1;stroke-width:0.0242791;stroke-linecap:butt;stroke-linejoin:miter;stroke:rgb(60%,60%,60%);stroke-opacity:0.8;stroke-miterlimit:10;" d="M 0.121395 0.0000104819 C 0.121395 0.06705 0.0670399 0.121405 0.000000401472 0.121405 C -0.0670391 0.121405 -0.121394 0.06705 -0.121394 0.0000104819 C -0.121394 -0.0670532 -0.0670391 -0.121384 0.000000401472 -0.121384 C 0.0670399 -0.121384 0.121395 -0.0670532 0.121395 0.0000104819 Z M 0.121395 0.0000104819 " transform="matrix(161.98463,0,0,161.98463,434.695247,181.002208)"/>
<path style="fill-rule:nonzero;fill:rgb(100%,92.941176%,43.529412%);fill-opacity:1;stroke-width:0.0242791;stroke-linecap:butt;stroke-linejoin:miter;stroke:rgb(60%,60%,60%);stroke-opacity:0.8;stroke-miterlimit:10;" d="M 0.121385 -0.00000648155 C 0.121385 0.0670331 0.0670538 0.121388 -0.00000980475 0.121388 C -0.0670493 0.121388 -0.121404 0.0670331 -0.121404 -0.00000648155 C -0.121404 -0.067046 -0.0670493 -0.121401 -0.00000980475 -0.121401 C 0.0670538 -0.121401 0.121385 -0.067046 0.121385 -0.00000648155 Z M 0.121385 -0.00000648155 " transform="matrix(161.98463,0,0,161.98463,325.868776,41.153394)"/>
<path style="fill-rule:nonzero;fill:rgb(100%,92.941176%,43.529412%);fill-opacity:1;stroke-width:0.0242791;stroke-linecap:butt;stroke-linejoin:miter;stroke:rgb(60%,60%,60%);stroke-opacity:0.8;stroke-miterlimit:10;" d="M 0.121398 0.00000823168 C 0.121398 0.0670478 0.0670426 0.121403 0.00000309651 0.121403 C -0.0670364 0.121403 -0.121392 0.0670478 -0.121392 0.00000823168 C -0.121392 -0.0670554 -0.0670364 -0.121386 0.00000309651 -0.121386 C 0.0670426 -0.121386 0.121398 -0.0670554 0.121398 0.00000823168 Z M 0.121398 0.00000823168 " transform="matrix(161.98463,0,0,161.98463,397.472155,170.08851)"/>
<path style="fill-rule:nonzero;fill:rgb(100%,92.941176%,43.529412%);fill-opacity:1;stroke-width:0.0242791;stroke-linecap:butt;stroke-linejoin:miter;stroke:rgb(60%,60%,60%);stroke-opacity:0.8;stroke-miterlimit:10;" d="M 0.121406 -0.000000057512 C 0.121406 0.0670395 0.0670513 0.121395 0.0000118014 0.121395 C -0.0670519 0.121395 -0.121407 0.0670395 -0.121407 -0.000000057512 C -0.121407 -0.0670396 -0.0670519 -0.121395 0.0000118014 -0.121395 C 0.0670513 -0.121395 0.121406 -0.0670396 0.121406 -0.000000057512 Z M 0.121406 -0.000000057512 " transform="matrix(161.98463,0,0,161.98463,379.099651,87.570322)"/>
</g>
</svg>
