<?xml version="1.0" encoding="UTF-8"?>
<svg xmlns="http://www.w3.org/2000/svg" xmlns:xlink="http://www.w3.org/1999/xlink" width="600pt" height="600pt" viewBox="0 0 600 600" version="1.1">
<defs>
<clipPath id="clip1">
  <path d="M 307 416 L 463 416 L 463 579 L 307 579 Z M 307 416 "/>
</clipPath>
<clipPath id="clip2">
  <path d="M 231.019531 356.824219 L 539.191406 356.824219 L 539.191406 638.75 L 231.019531 638.75 Z M 231.019531 356.824219 L 428.164062 525.914062 C 428.164062 536.246094 419.792969 544.617188 409.460938 544.617188 C 399.132812 544.617188 390.757812 536.246094 390.757812 525.914062 C 390.757812 515.585938 399.132812 507.210938 409.460938 507.210938 C 419.792969 507.210938 428.164062 515.585938 428.164062 525.914062 Z M 231.019531 356.824219 "/>
</clipPath>
<clipPath id="clip3">
  <path d="M 231.019531 356.824219 L 539.191406 356.824219 L 539.191406 638.75 L 231.019531 638.75 Z M 231.019531 356.824219 L 379.460938 469.664062 C 379.460938 479.996094 371.085938 488.371094 360.753906 488.371094 C 350.425781 488.371094 342.050781 479.996094 342.050781 469.664062 C 342.050781 459.335938 350.425781 450.960938 360.753906 450.960938 C 371.085938 450.960938 379.460938 459.335938 379.460938 469.664062 Z M 231.019531 356.824219 "/>
</clipPath>
<clipPath id="clip4">
  <path d="M 415 225 L 596 225 L 596 388 L 415 388 Z M 415 225 "/>
</clipPath>
<clipPath id="clip5">
  <path d="M 363.285156 142.039062 L 647.75 142.039062 L 647.75 471.175781 L 363.285156 471.175781 Z M 363.285156 142.039062 L 561.429688 335.082031 C 561.429688 345.410156 553.058594 353.785156 542.726562 353.785156 C 532.398438 353.785156 524.023438 345.410156 524.023438 335.082031 C 524.023438 324.75 532.398438 316.375 542.726562 316.375 C 553.058594 316.375 561.429688 324.75 561.429688 335.082031 Z M 363.285156 142.039062 "/>
</clipPath>
<clipPath id="clip6">
  <path d="M 363.285156 142.039062 L 647.75 142.039062 L 647.75 471.175781 L 363.285156 471.175781 Z M 363.285156 142.039062 L 487.015625 278.136719 C 487.015625 288.46875 478.640625 296.84375 468.3125 296.84375 C 457.980469 296.84375 449.609375 288.46875 449.609375 278.136719 C 449.609375 267.808594 457.980469 259.433594 468.3125 259.433594 C 478.640625 259.433594 487.015625 267.808594 487.015625 278.136719 Z M 363.285156 142.039062 "/>
</clipPath>
<clipPath id="clip7">
  <path d="M 307 346 L 489 346 L 489 523 L 307 523 Z M 307 346 "/>
</clipPath>
<clipPath id="clip8">
  <path d="M 242.722656 273.964844 L 553.769531 273.964844 L 553.769531 594.707031 L 242.722656 594.707031 Z M 242.722656 273.964844 L 379.460938 469.664062 C 379.460938 479.996094 371.085938 488.371094 360.753906 488.371094 C 350.425781 488.371094 342.050781 479.996094 342.050781 469.664062 C 342.050781 459.335938 350.425781 450.960938 360.753906 450.960938 C 371.085938 450.960938 379.460938 459.335938 379.460938 469.664062 Z M 242.722656 273.964844 "/>
</clipPath>
<clipPath id="clip9">
  <path d="M 242.722656 273.964844 L 553.769531 273.964844 L 553.769531 594.707031 L 242.722656 594.707031 Z M 242.722656 273.964844 L 454.449219 399.011719 C 454.449219 409.34375 446.074219 417.71875 435.742188 417.71875 C 425.414062 417.71875 417.039062 409.34375 417.039062 399.011719 C 417.039062 388.683594 425.414062 380.308594 435.742188 380.308594 C 446.074219 380.308594 454.449219 388.683594 454.449219 399.011719 Z M 242.722656 273.964844 "/>
</clipPath>
<clipPath id="clip10">
  <path d="M 179.992188 391 L 392.535156 391 L 392.535156 523 L 179.992188 523 Z M 179.992188 391 "/>
</clipPath>
<clipPath id="clip11">
  <path d="M 179.992188 276.207031 L 392.535156 276.207031 L 392.535156 637.6875 L 179.992188 637.6875 Z M 179.992188 276.207031 L 379.460938 469.664062 C 379.460938 479.996094 371.085938 488.371094 360.753906 488.371094 C 350.425781 488.371094 342.050781 479.996094 342.050781 469.664062 C 342.050781 459.335938 350.425781 450.960938 360.753906 450.960938 C 371.085938 450.960938 379.460938 459.335938 379.460938 469.664062 Z M 179.992188 276.207031 "/>
</clipPath>
<clipPath id="clip12">
  <path d="M 179.992188 276.207031 L 392.535156 276.207031 L 392.535156 637.6875 L 179.992188 637.6875 Z M 179.992188 276.207031 L 230.484375 444.234375 C 230.484375 454.5625 222.109375 462.9375 211.777344 462.9375 C 201.449219 462.9375 193.074219 454.5625 193.074219 444.234375 C 193.074219 433.902344 201.449219 425.527344 211.777344 425.527344 C 222.109375 425.527344 230.484375 433.902344 230.484375 444.234375 Z M 179.992188 276.207031 "/>
</clipPath>
<clipPath id="clip13">
  <path d="M 382 231.03125 L 522 231.03125 L 522 446.113281 L 382 446.113281 Z M 382 231.03125 "/>
</clipPath>
<clipPath id="clip14">
  <path d="M 271.078125 231.03125 L 632.972656 231.03125 L 632.972656 446.113281 L 271.078125 446.113281 Z M 271.078125 231.03125 L 454.449219 399.011719 C 454.449219 409.34375 446.074219 417.71875 435.742188 417.71875 C 425.414062 417.71875 417.039062 409.34375 417.039062 399.011719 C 417.039062 388.683594 425.414062 380.308594 435.742188 380.308594 C 446.074219 380.308594 454.449219 388.683594 454.449219 399.011719 Z M 271.078125 231.03125 "/>
</clipPath>
<clipPath id="clip15">
  <path d="M 271.078125 231.03125 L 632.972656 231.03125 L 632.972656 446.113281 L 271.078125 446.113281 Z M 271.078125 231.03125 L 487.015625 278.136719 C 487.015625 288.46875 478.640625 296.84375 468.3125 296.84375 C 457.980469 296.84375 449.609375 288.46875 449.609375 278.136719 C 449.609375 267.808594 457.980469 259.433594 468.3125 259.433594 C 478.640625 259.433594 487.015625 267.808594 487.015625 278.136719 Z M 271.078125 231.03125 "/>
</clipPath>
<clipPath id="clip16">
  <path d="M 415 178 L 551 178 L 551 332 L 415 332 Z M 415 178 "/>
</clipPath>
<clipPath id="clip17">
  <path d="M 322.710938 139.964844 L 642.863281 139.964844 L 642.863281 369.351562 L 322.710938 369.351562 Z M 322.710938 139.964844 L 487.015625 278.136719 C 487.015625 288.46875 478.640625 296.84375 468.3125 296.84375 C 457.980469 296.84375 449.609375 288.46875 449.609375 278.136719 C 449.609375 267.808594 457.980469 259.433594 468.3125 259.433594 C 478.640625 259.433594 487.015625 267.808594 487.015625 278.136719 Z M 322.710938 139.964844 "/>
</clipPath>
<clipPath id="clip18">
  <path d="M 322.710938 139.964844 L 642.863281 139.964844 L 642.863281 369.351562 L 322.710938 369.351562 Z M 322.710938 139.964844 L 515.96875 231.183594 C 515.96875 241.515625 507.59375 249.886719 497.265625 249.886719 C 486.933594 249.886719 478.5625 241.515625 478.5625 231.183594 C 478.5625 220.855469 486.933594 212.480469 497.265625 212.480469 C 507.59375 212.480469 515.96875 220.855469 515.96875 231.183594 Z M 322.710938 139.964844 "/>
</clipPath>
<clipPath id="clip19">
  <path d="M 341 136 L 522 136 L 522 332 L 341 332 Z M 341 136 "/>
</clipPath>
<clipPath id="clip20">
  <path d="M 262.785156 79.289062 L 600.210938 79.289062 L 600.210938 388.414062 L 262.785156 388.414062 Z M 262.785156 79.289062 L 487.015625 278.136719 C 487.015625 288.46875 478.640625 296.84375 468.3125 296.84375 C 457.980469 296.84375 449.609375 288.46875 449.609375 278.136719 C 449.609375 267.808594 457.980469 259.433594 468.3125 259.433594 C 478.640625 259.433594 487.015625 267.808594 487.015625 278.136719 Z M 262.785156 79.289062 "/>
</clipPath>
<clipPath id="clip21">
  <path d="M 262.785156 79.289062 L 600.210938 79.289062 L 600.210938 388.414062 L 262.785156 388.414062 Z M 262.785156 79.289062 L 413.390625 189.570312 C 413.390625 199.898438 405.015625 208.273438 394.6875 208.273438 C 384.355469 208.273438 375.984375 199.898438 375.984375 189.570312 C 375.984375 179.238281 384.355469 170.863281 394.6875 170.863281 C 405.015625 170.863281 413.390625 179.238281 413.390625 189.570312 Z M 262.785156 79.289062 "/>
</clipPath>
<clipPath id="clip22">
  <path d="M 386 130.023438 L 522 130.023438 L 522 328.410156 L 386 328.410156 Z M 386 130.023438 "/>
</clipPath>
<clipPath id="clip23">
  <path d="M 276.085938 130.023438 L 632.085938 130.023438 L 632.085938 328.410156 L 276.085938 328.410156 Z M 276.085938 130.023438 L 487.015625 278.136719 C 487.015625 288.46875 478.640625 296.84375 468.3125 296.84375 C 457.980469 296.84375 449.609375 288.46875 449.609375 278.136719 C 449.609375 267.808594 457.980469 259.433594 468.3125 259.433594 C 478.640625 259.433594 487.015625 267.808594 487.015625 278.136719 Z M 276.085938 130.023438 "/>
</clipPath>
<clipPath id="clip24">
  <path d="M 276.085938 130.023438 L 632.085938 130.023438 L 632.085938 328.410156 L 276.085938 328.410156 Z M 276.085938 130.023438 L 458.570312 180.300781 C 458.570312 190.632812 450.195312 199.003906 439.863281 199.003906 C 429.535156 199.003906 421.160156 190.632812 421.160156 180.300781 C 421.160156 169.96875 429.535156 161.597656 439.863281 161.597656 C 450.195312 161.597656 458.570312 169.96875 458.570312 180.300781 Z M 276.085938 130.023438 "/>
</clipPath>
<clipPath id="clip25">
  <path d="M 386 127 L 551 127 L 551 285 L 386 285 Z M 386 127 "/>
</clipPath>
<clipPath id="clip26">
  <path d="M 325.570312 51.839844 L 611.554688 51.839844 L 611.554688 359.640625 L 325.570312 359.640625 Z M 325.570312 51.839844 L 515.96875 231.183594 C 515.96875 241.515625 507.59375 249.886719 497.265625 249.886719 C 486.933594 249.886719 478.5625 241.515625 478.5625 231.183594 C 478.5625 220.855469 486.933594 212.480469 497.265625 212.480469 C 507.59375 212.480469 515.96875 220.855469 515.96875 231.183594 Z M 325.570312 51.839844 "/>
</clipPath>
<clipPath id="clip27">
  <path d="M 325.570312 51.839844 L 611.554688 51.839844 L 611.554688 359.640625 L 325.570312 359.640625 Z M 325.570312 51.839844 L 458.570312 180.300781 C 458.570312 190.632812 450.195312 199.003906 439.863281 199.003906 C 429.535156 199.003906 421.160156 190.632812 421.160156 180.300781 C 421.160156 169.96875 429.535156 161.597656 439.863281 161.597656 C 450.195312 161.597656 458.570312 169.96875 458.570312 180.300781 Z M 325.570312 51.839844 "/>
</clipPath>
<clipPath id="clip28">
  <path d="M 260 60 L 448 60 L 448 243 L 260 243 Z M 260 60 "/>
</clipPath>
<clipPath id="clip29">
  <path d="M 196.042969 -11.917969 L 511.925781 -11.917969 L 511.925781 315.351562 L 196.042969 315.351562 Z M 196.042969 -11.917969 L 331.988281 113.867188 C 331.988281 124.195312 323.613281 132.570312 313.285156 132.570312 C 302.953125 132.570312 294.578125 124.195312 294.578125 113.867188 C 294.578125 103.535156 302.953125 95.160156 313.285156 95.160156 C 323.613281 95.160156 331.988281 103.535156 331.988281 113.867188 Z M 196.042969 -11.917969 "/>
</clipPath>
<clipPath id="clip30">
  <path d="M 196.042969 -11.917969 L 511.925781 -11.917969 L 511.925781 315.351562 L 196.042969 315.351562 Z M 196.042969 -11.917969 L 413.390625 189.570312 C 413.390625 199.898438 405.015625 208.273438 394.6875 208.273438 C 384.355469 208.273438 375.984375 199.898438 375.984375 189.570312 C 375.984375 179.238281 384.355469 170.863281 394.6875 170.863281 C 405.015625 170.863281 413.390625 179.238281 413.390625 189.570312 Z M 196.042969 -11.917969 "/>
</clipPath>
<clipPath id="clip31">
  <path d="M 260 60 L 493 60 L 493 234 L 260 234 Z M 260 60 "/>
</clipPath>
<clipPath id="clip32">
  <path d="M 232.089844 -37.445312 L 521.054688 -37.445312 L 521.054688 331.609375 L 232.089844 331.609375 Z M 232.089844 -37.445312 L 331.988281 113.867188 C 331.988281 124.195312 323.613281 132.570312 313.285156 132.570312 C 302.953125 132.570312 294.578125 124.195312 294.578125 113.867188 C 294.578125 103.535156 302.953125 95.160156 313.285156 95.160156 C 323.613281 95.160156 331.988281 103.535156 331.988281 113.867188 Z M 232.089844 -37.445312 "/>
</clipPath>
<clipPath id="clip33">
  <path d="M 232.089844 -37.445312 L 521.054688 -37.445312 L 521.054688 331.609375 L 232.089844 331.609375 Z M 232.089844 -37.445312 L 458.570312 180.300781 C 458.570312 190.632812 450.195312 199.003906 439.863281 199.003906 C 429.535156 199.003906 421.160156 190.632812 421.160156 180.300781 C 421.160156 169.96875 429.535156 161.597656 439.863281 161.597656 C 450.195312 161.597656 458.570312 169.96875 458.570312 180.300781 Z M 232.089844 -37.445312 "/>
</clipPath>
<clipPath id="clip34">
  <path d="M 163.710938 51 L 328.988281 51 L 328.988281 167 L 163.710938 167 Z M 163.710938 51 "/>
</clipPath>
<clipPath id="clip35">
  <path d="M 163.710938 -65.742188 L 328.988281 -65.742188 L 328.988281 283.835938 L 163.710938 283.835938 Z M 163.710938 -65.742188 L 331.988281 113.867188 C 331.988281 124.195312 323.613281 132.570312 313.285156 132.570312 C 302.953125 132.570312 294.578125 124.195312 294.578125 113.867188 C 294.578125 103.535156 302.953125 95.160156 313.285156 95.160156 C 323.613281 95.160156 331.988281 103.535156 331.988281 113.867188 Z M 163.710938 -65.742188 "/>
</clipPath>
<clipPath id="clip36">
  <path d="M 163.710938 -65.742188 L 328.988281 -65.742188 L 328.988281 283.835938 L 163.710938 283.835938 Z M 163.710938 -65.742188 L 198.125 104.230469 C 198.125 114.5625 189.75 122.9375 179.417969 122.9375 C 169.089844 122.9375 160.714844 114.5625 160.714844 104.230469 C 160.714844 93.902344 169.089844 85.527344 179.417969 85.527344 C 189.75 85.527344 198.125 93.902344 198.125 104.230469 Z M 163.710938 -65.742188 "/>
</clipPath>
<clipPath id="clip37">
  <path d="M 203 15 L 367 15 L 367 167 L 203 167 Z M 203 15 "/>
</clipPath>
<clipPath id="clip38">
  <path d="M 148.582031 -65.226562 L 421.4375 -65.226562 L 421.4375 247.503906 L 148.582031 247.503906 Z M 148.582031 -65.226562 L 331.988281 113.867188 C 331.988281 124.195312 323.613281 132.570312 313.285156 132.570312 C 302.953125 132.570312 294.578125 124.195312 294.578125 113.867188 C 294.578125 103.535156 302.953125 95.160156 313.285156 95.160156 C 323.613281 95.160156 331.988281 103.535156 331.988281 113.867188 Z M 148.582031 -65.226562 "/>
</clipPath>
<clipPath id="clip39">
  <path d="M 148.582031 -65.226562 L 421.4375 -65.226562 L 421.4375 247.503906 L 148.582031 247.503906 Z M 148.582031 -65.226562 L 275.441406 68.414062 C 275.441406 78.742188 267.066406 87.117188 256.738281 87.117188 C 246.40625 87.117188 238.03125 78.742188 238.03125 68.414062 C 238.03125 58.082031 246.40625 49.710938 256.738281 49.710938 C 267.066406 49.710938 275.441406 58.082031 275.441406 68.414062 Z M 148.582031 -65.226562 "/>
</clipPath>
<clipPath id="clip40">
  <path d="M 260 27.117188 L 371 27.117188 L 371 126.621094 L 260 126.621094 Z M 260 27.117188 "/>
</clipPath>
<clipPath id="clip41">
  <path d="M 143.125 27.117188 L 487.449219 27.117188 L 487.449219 126.621094 L 143.125 126.621094 Z M 143.125 27.117188 L 331.988281 113.867188 C 331.988281 124.195312 323.613281 132.570312 313.285156 132.570312 C 302.953125 132.570312 294.578125 124.195312 294.578125 113.867188 C 294.578125 103.535156 302.953125 95.160156 313.285156 95.160156 C 323.613281 95.160156 331.988281 103.535156 331.988281 113.867188 Z M 143.125 27.117188 "/>
</clipPath>
<clipPath id="clip42">
  <path d="M 143.125 27.117188 L 487.449219 27.117188 L 487.449219 126.621094 L 143.125 126.621094 Z M 143.125 27.117188 L 335.996094 39.875 C 335.996094 50.207031 327.625 58.582031 317.292969 58.582031 C 306.960938 58.582031 298.589844 50.207031 298.589844 39.875 C 298.589844 29.546875 306.960938 21.171875 317.292969 21.171875 C 327.625 21.171875 335.996094 29.546875 335.996094 39.875 Z M 143.125 27.117188 "/>
</clipPath>
<clipPath id="clip43">
  <path d="M 357.445312 127 L 477.101562 127 L 477.101562 243 L 357.445312 243 Z M 357.445312 127 "/>
</clipPath>
<clipPath id="clip44">
  <path d="M 357.445312 13.296875 L 477.101562 13.296875 L 477.101562 356.570312 L 357.445312 356.570312 Z M 357.445312 13.296875 L 413.390625 189.570312 C 413.390625 199.898438 405.015625 208.273438 394.6875 208.273438 C 384.355469 208.273438 375.984375 199.898438 375.984375 189.570312 C 375.984375 179.238281 384.355469 170.863281 394.6875 170.863281 C 405.015625 170.863281 413.390625 179.238281 413.390625 189.570312 Z M 357.445312 13.296875 "/>
</clipPath>
<clipPath id="clip45">
  <path d="M 357.445312 13.296875 L 477.101562 13.296875 L 477.101562 356.570312 L 357.445312 356.570312 Z M 357.445312 13.296875 L 458.570312 180.300781 C 458.570312 190.632812 450.195312 199.003906 439.863281 199.003906 C 429.535156 199.003906 421.160156 190.632812 421.160156 180.300781 C 421.160156 169.96875 429.535156 161.597656 439.863281 161.597656 C 450.195312 161.597656 458.570312 169.96875 458.570312 180.300781 Z M 357.445312 13.296875 "/>
</clipPath>
<clipPath id="clip46">
  <path d="M 386 68 L 549 68 L 549 234 L 386 234 Z M 386 68 "/>
</clipPath>
<clipPath id="clip47">
  <path d="M 314.945312 3.277344 L 620.355469 3.277344 L 620.355469 298.460938 L 314.945312 298.460938 Z M 314.945312 3.277344 L 514.144531 121.441406 C 514.144531 131.773438 505.769531 140.148438 495.441406 140.148438 C 485.109375 140.148438 476.738281 131.773438 476.738281 121.441406 C 476.738281 111.113281 485.109375 102.738281 495.441406 102.738281 C 505.769531 102.738281 514.144531 111.113281 514.144531 121.441406 Z M 314.945312 3.277344 "/>
</clipPath>
<clipPath id="clip48">
  <path d="M 314.945312 3.277344 L 620.355469 3.277344 L 620.355469 298.460938 L 314.945312 298.460938 Z M 314.945312 3.277344 L 458.570312 180.300781 C 458.570312 190.632812 450.195312 199.003906 439.863281 199.003906 C 429.535156 199.003906 421.160156 190.632812 421.160156 180.300781 C 421.160156 169.96875 429.535156 161.597656 439.863281 161.597656 C 450.195312 161.597656 458.570312 169.96875 458.570312 180.300781 Z M 314.945312 3.277344 "/>
</clipPath>
<clipPath id="clip49">
  <path d="M 102.4375 50 L 185.996094 50 L 185.996094 158 L 102.4375 158 Z M 102.4375 50 "/>
</clipPath>
<clipPath id="clip50">
  <path d="M 102.4375 -67.347656 L 185.996094 -67.347656 L 185.996094 274.605469 L 102.4375 274.605469 Z M 102.4375 -67.347656 L 127.722656 103.03125 C 127.722656 113.359375 119.347656 121.734375 109.019531 121.734375 C 98.6875 121.734375 90.3125 113.359375 90.3125 103.03125 C 90.3125 92.699219 98.6875 84.324219 109.019531 84.324219 C 119.347656 84.324219 127.722656 92.699219 127.722656 103.03125 Z M 102.4375 -67.347656 "/>
</clipPath>
<clipPath id="clip51">
  <path d="M 102.4375 -67.347656 L 185.996094 -67.347656 L 185.996094 274.605469 L 102.4375 274.605469 Z M 102.4375 -67.347656 L 198.125 104.230469 C 198.125 114.5625 189.75 122.9375 179.417969 122.9375 C 169.089844 122.9375 160.714844 114.5625 160.714844 104.230469 C 160.714844 93.902344 169.089844 85.527344 179.417969 85.527344 C 189.75 85.527344 198.125 93.902344 198.125 104.230469 Z M 102.4375 -67.347656 "/>
</clipPath>
<clipPath id="clip52">
  <path d="M 4 316 L 189 316 L 189 482 L 4 482 Z M 4 316 "/>
</clipPath>
<clipPath id="clip53">
  <path d="M -47.003906 232.46875 L 239.523438 232.46875 L 239.523438 564.777344 L -47.003906 564.777344 Z M -47.003906 232.46875 L 75.976562 369.136719 C 75.976562 379.46875 67.601562 387.84375 57.273438 387.84375 C 46.941406 387.84375 38.570312 379.46875 38.570312 369.136719 C 38.570312 358.808594 46.941406 350.433594 57.273438 350.433594 C 67.601562 350.433594 75.976562 358.808594 75.976562 369.136719 Z M -47.003906 232.46875 "/>
</clipPath>
<clipPath id="clip54">
  <path d="M -47.003906 232.46875 L 239.523438 232.46875 L 239.523438 564.777344 L -47.003906 564.777344 Z M -47.003906 232.46875 L 153.953125 428.113281 C 153.953125 438.445312 145.578125 446.816406 135.25 446.816406 C 124.917969 446.816406 116.542969 438.445312 116.542969 428.113281 C 116.542969 417.78125 124.917969 409.410156 135.25 409.410156 C 145.578125 409.410156 153.953125 417.78125 153.953125 428.113281 Z M -47.003906 232.46875 "/>
</clipPath>
<clipPath id="clip55">
  <path d="M 4 311.140625 L 114 311.140625 L 114 388.355469 L 4 388.355469 Z M 4 311.140625 "/>
</clipPath>
<clipPath id="clip56">
  <path d="M -112.410156 311.140625 L 230.570312 311.140625 L 230.570312 388.355469 L -112.410156 388.355469 Z M -112.410156 311.140625 L 75.976562 369.136719 C 75.976562 379.46875 67.601562 387.84375 57.273438 387.84375 C 46.941406 387.84375 38.570312 379.46875 38.570312 369.136719 C 38.570312 358.808594 46.941406 350.433594 57.273438 350.433594 C 67.601562 350.433594 75.976562 358.808594 75.976562 369.136719 Z M -112.410156 311.140625 "/>
</clipPath>
<clipPath id="clip57">
  <path d="M -112.410156 311.140625 L 230.570312 311.140625 L 230.570312 388.355469 L -112.410156 388.355469 Z M -112.410156 311.140625 L 79.59375 330.363281 C 79.59375 340.695312 71.222656 349.066406 60.890625 349.066406 C 50.5625 349.066406 42.1875 340.695312 42.1875 330.363281 C 42.1875 320.035156 50.5625 311.660156 60.890625 311.660156 C 71.222656 311.660156 79.59375 320.035156 79.59375 330.363281 Z M -112.410156 311.140625 "/>
</clipPath>
<clipPath id="clip58">
  <path d="M 75 353.839844 L 189 353.839844 L 189 457.734375 L 75 457.734375 Z M 75 353.839844 "/>
</clipPath>
<clipPath id="clip59">
  <path d="M -40.152344 353.839844 L 303.628906 353.839844 L 303.628906 457.734375 L -40.152344 457.734375 Z M -40.152344 353.839844 L 153.953125 428.113281 C 153.953125 438.445312 145.578125 446.816406 135.25 446.816406 C 124.917969 446.816406 116.542969 438.445312 116.542969 428.113281 C 116.542969 417.78125 124.917969 409.410156 135.25 409.410156 C 145.578125 409.410156 153.953125 417.78125 153.953125 428.113281 Z M -40.152344 353.839844 "/>
</clipPath>
<clipPath id="clip60">
  <path d="M -40.152344 353.839844 L 303.628906 353.839844 L 303.628906 457.734375 L -40.152344 457.734375 Z M -40.152344 353.839844 L 146.933594 383.464844 C 146.933594 393.792969 138.5625 402.167969 128.230469 402.167969 C 117.902344 402.167969 109.527344 393.792969 109.527344 383.464844 C 109.527344 373.132812 117.902344 364.761719 128.230469 364.761719 C 138.5625 364.761719 146.933594 373.132812 146.933594 383.464844 Z M -40.152344 353.839844 "/>
</clipPath>
<clipPath id="clip61">
  <path d="M 82 375 L 236 375 L 236 550 L 82 550 Z M 82 375 "/>
</clipPath>
<clipPath id="clip62">
  <path d="M -5.457031 329.414062 L 323.191406 329.414062 L 323.191406 594.945312 L -5.457031 594.945312 Z M -5.457031 329.414062 L 153.953125 428.113281 C 153.953125 438.445312 145.578125 446.816406 135.25 446.816406 C 124.917969 446.816406 116.542969 438.445312 116.542969 428.113281 C 116.542969 417.78125 124.917969 409.410156 135.25 409.410156 C 145.578125 409.410156 153.953125 417.78125 153.953125 428.113281 Z M -5.457031 329.414062 "/>
</clipPath>
<clipPath id="clip63">
  <path d="M -5.457031 329.414062 L 323.191406 329.414062 L 323.191406 594.945312 L -5.457031 594.945312 Z M -5.457031 329.414062 L 201.191406 496.25 C 201.191406 506.582031 192.816406 514.957031 182.488281 514.957031 C 172.15625 514.957031 163.78125 506.582031 163.78125 496.25 C 163.78125 485.921875 172.15625 477.546875 182.488281 477.546875 C 192.816406 477.546875 201.191406 485.921875 201.191406 496.25 Z M -5.457031 329.414062 "/>
</clipPath>
<clipPath id="clip64">
  <path d="M 97.152344 375 L 249.871094 375 L 249.871094 498 L 97.152344 498 Z M 97.152344 375 "/>
</clipPath>
<clipPath id="clip65">
  <path d="M 97.152344 261.289062 L 249.871094 261.289062 L 249.871094 611.054688 L 97.152344 611.054688 Z M 97.152344 261.289062 L 153.953125 428.113281 C 153.953125 438.445312 145.578125 446.816406 135.25 446.816406 C 124.917969 446.816406 116.542969 438.445312 116.542969 428.113281 C 116.542969 417.78125 124.917969 409.410156 135.25 409.410156 C 145.578125 409.410156 153.953125 417.78125 153.953125 428.113281 Z M 97.152344 261.289062 "/>
</clipPath>
<clipPath id="clip66">
  <path d="M 97.152344 261.289062 L 249.871094 261.289062 L 249.871094 611.054688 L 97.152344 611.054688 Z M 97.152344 261.289062 L 230.484375 444.234375 C 230.484375 454.5625 222.109375 462.9375 211.777344 462.9375 C 201.449219 462.9375 193.074219 454.5625 193.074219 444.234375 C 193.074219 433.902344 201.449219 425.527344 211.777344 425.527344 C 222.109375 425.527344 230.484375 433.902344 230.484375 444.234375 Z M 97.152344 261.289062 "/>
</clipPath>
<clipPath id="clip67">
  <path d="M 7 277 L 182 277 L 182 437 L 7 437 Z M 7 277 "/>
</clipPath>
<clipPath id="clip68">
  <path d="M -46.050781 195.753906 L 235.167969 195.753906 L 235.167969 518.070312 L -46.050781 518.070312 Z M -46.050781 195.753906 L 79.59375 330.363281 C 79.59375 340.695312 71.222656 349.066406 60.890625 349.066406 C 50.5625 349.066406 42.1875 340.695312 42.1875 330.363281 C 42.1875 320.035156 50.5625 311.660156 60.890625 311.660156 C 71.222656 311.660156 79.59375 320.035156 79.59375 330.363281 Z M -46.050781 195.753906 "/>
</clipPath>
<clipPath id="clip69">
  <path d="M -46.050781 195.753906 L 235.167969 195.753906 L 235.167969 518.070312 L -46.050781 518.070312 Z M -46.050781 195.753906 L 146.933594 383.464844 C 146.933594 393.792969 138.5625 402.167969 128.230469 402.167969 C 117.902344 402.167969 109.527344 393.792969 109.527344 383.464844 C 109.527344 373.132812 117.902344 364.761719 128.230469 364.761719 C 138.5625 364.761719 146.933594 373.132812 146.933594 383.464844 Z M -46.050781 195.753906 "/>
</clipPath>
<clipPath id="clip70">
  <path d="M 75 330 L 265 330 L 265 498 L 75 498 Z M 75 330 "/>
</clipPath>
<clipPath id="clip71">
  <path d="M 26.453125 244.941406 L 313.550781 244.941406 L 313.550781 582.753906 L 26.453125 582.753906 Z M 26.453125 244.941406 L 146.933594 383.464844 C 146.933594 393.792969 138.5625 402.167969 128.230469 402.167969 C 117.902344 402.167969 109.527344 393.792969 109.527344 383.464844 C 109.527344 373.132812 117.902344 364.761719 128.230469 364.761719 C 138.5625 364.761719 146.933594 373.132812 146.933594 383.464844 Z M 26.453125 244.941406 "/>
</clipPath>
<clipPath id="clip72">
  <path d="M 26.453125 244.941406 L 313.550781 244.941406 L 313.550781 582.753906 L 26.453125 582.753906 Z M 26.453125 244.941406 L 230.484375 444.234375 C 230.484375 454.5625 222.109375 462.9375 211.777344 462.9375 C 201.449219 462.9375 193.074219 454.5625 193.074219 444.234375 C 193.074219 433.902344 201.449219 425.527344 211.777344 425.527344 C 222.109375 425.527344 230.484375 433.902344 230.484375 444.234375 Z M 26.453125 244.941406 "/>
</clipPath>
<clipPath id="clip73">
  <path d="M 129 443 L 261 443 L 261 600 L 129 600 Z M 129 443 "/>
</clipPath>
<clipPath id="clip74">
  <path d="M 23.433594 432.054688 L 366.402344 432.054688 L 366.402344 624.316406 L 23.433594 624.316406 Z M 23.433594 432.054688 L 226.058594 560.125 C 226.058594 570.453125 217.683594 578.828125 207.351562 578.828125 C 197.023438 578.828125 188.648438 570.453125 188.648438 560.125 C 188.648438 549.792969 197.023438 541.417969 207.351562 541.417969 C 217.683594 541.417969 226.058594 549.792969 226.058594 560.125 Z M 23.433594 432.054688 "/>
</clipPath>
<clipPath id="clip75">
  <path d="M 23.433594 432.054688 L 366.402344 432.054688 L 366.402344 624.316406 L 23.433594 624.316406 Z M 23.433594 432.054688 L 201.191406 496.25 C 201.191406 506.582031 192.816406 514.957031 182.488281 514.957031 C 172.15625 514.957031 163.78125 506.582031 163.78125 496.25 C 163.78125 485.921875 172.15625 477.546875 182.488281 477.546875 C 192.816406 477.546875 201.191406 485.921875 201.191406 496.25 Z M 23.433594 432.054688 "/>
</clipPath>
<clipPath id="clip76">
  <path d="M 129 391 L 265 391 L 265 550 L 129 550 Z M 129 391 "/>
</clipPath>
<clipPath id="clip77">
  <path d="M 33.523438 358.71875 L 360.738281 358.71875 L 360.738281 581.761719 L 33.523438 581.761719 Z M 33.523438 358.71875 L 201.191406 496.25 C 201.191406 506.582031 192.816406 514.957031 182.488281 514.957031 C 172.15625 514.957031 163.78125 506.582031 163.78125 496.25 C 163.78125 485.921875 172.15625 477.546875 182.488281 477.546875 C 192.816406 477.546875 201.191406 485.921875 201.191406 496.25 Z M 33.523438 358.71875 "/>
</clipPath>
<clipPath id="clip78">
  <path d="M 33.523438 358.71875 L 360.738281 358.71875 L 360.738281 581.761719 L 33.523438 581.761719 Z M 33.523438 358.71875 L 230.484375 444.234375 C 230.484375 454.5625 222.109375 462.9375 211.777344 462.9375 C 201.449219 462.9375 193.074219 454.5625 193.074219 444.234375 C 193.074219 433.902344 201.449219 425.527344 211.777344 425.527344 C 222.109375 425.527344 230.484375 433.902344 230.484375 444.234375 Z M 33.523438 358.71875 "/>
</clipPath>
</defs>
<g id="surface41">
<g clip-path="url(#clip1)" clip-rule="nonzero">
<g clip-path="url(#clip2)" clip-rule="evenodd">
<g clip-path="url(#clip3)" clip-rule="evenodd">
<path style="fill:none;stroke-width:0.0224458;stroke-linecap:butt;stroke-linejoin:miter;stroke:rgb(17.96875%,20.3125%,21.09375%);stroke-opacity:0.8;stroke-miterlimit:10;" d="M 2.466275 3.621899 L 2.174025 3.28439 " transform="matrix(166.662364,0,0,166.662364,-1.574261,-77.720165)"/>
</g>
</g>
</g>
<g clip-path="url(#clip4)" clip-rule="nonzero">
<g clip-path="url(#clip5)" clip-rule="evenodd">
<g clip-path="url(#clip6)" clip-rule="evenodd">
<path style="fill:none;stroke-width:0.0224458;stroke-linecap:butt;stroke-linejoin:miter;stroke:rgb(17.96875%,20.3125%,21.09375%);stroke-opacity:0.8;stroke-miterlimit:10;" d="M 3.265889 2.476877 L 2.819393 2.135196 " transform="matrix(166.662364,0,0,166.662364,-1.574261,-77.720165)"/>
</g>
</g>
</g>
<g clip-path="url(#clip7)" clip-rule="nonzero">
<g clip-path="url(#clip8)" clip-rule="evenodd">
<g clip-path="url(#clip9)" clip-rule="evenodd">
<path style="fill:none;stroke-width:0.0224458;stroke-linecap:butt;stroke-linejoin:miter;stroke:rgb(17.96875%,20.3125%,21.09375%);stroke-opacity:0.8;stroke-miterlimit:10;" d="M 2.174025 3.28439 L 2.623966 2.860465 " transform="matrix(166.662364,0,0,166.662364,-1.574261,-77.720165)"/>
</g>
</g>
</g>
<g clip-path="url(#clip10)" clip-rule="nonzero">
<g clip-path="url(#clip11)" clip-rule="evenodd">
<g clip-path="url(#clip12)" clip-rule="evenodd">
<path style="fill:none;stroke-width:0.0224458;stroke-linecap:butt;stroke-linejoin:miter;stroke:rgb(17.96875%,20.3125%,21.09375%);stroke-opacity:0.8;stroke-miterlimit:10;" d="M 2.174025 3.28439 L 1.280143 3.131808 " transform="matrix(166.662364,0,0,166.662364,-1.574261,-77.720165)"/>
</g>
</g>
</g>
<g clip-path="url(#clip13)" clip-rule="nonzero">
<g clip-path="url(#clip14)" clip-rule="evenodd">
<g clip-path="url(#clip15)" clip-rule="evenodd">
<path style="fill:none;stroke-width:0.0224458;stroke-linecap:butt;stroke-linejoin:miter;stroke:rgb(17.96875%,20.3125%,21.09375%);stroke-opacity:0.8;stroke-miterlimit:10;" d="M 2.623966 2.860465 L 2.819393 2.135196 " transform="matrix(166.662364,0,0,166.662364,-1.574261,-77.720165)"/>
</g>
</g>
</g>
<g clip-path="url(#clip16)" clip-rule="nonzero">
<g clip-path="url(#clip17)" clip-rule="evenodd">
<g clip-path="url(#clip18)" clip-rule="evenodd">
<path style="fill:none;stroke-width:0.0224458;stroke-linecap:butt;stroke-linejoin:miter;stroke:rgb(17.96875%,20.3125%,21.09375%);stroke-opacity:0.8;stroke-miterlimit:10;" d="M 2.819393 2.135196 L 2.993117 1.85347 " transform="matrix(166.662364,0,0,166.662364,-1.574261,-77.720165)"/>
</g>
</g>
</g>
<g clip-path="url(#clip19)" clip-rule="nonzero">
<g clip-path="url(#clip20)" clip-rule="evenodd">
<g clip-path="url(#clip21)" clip-rule="evenodd">
<path style="fill:none;stroke-width:0.0224458;stroke-linecap:butt;stroke-linejoin:miter;stroke:rgb(17.96875%,20.3125%,21.09375%);stroke-opacity:0.8;stroke-miterlimit:10;" d="M 2.819393 2.135196 L 2.377632 1.603784 " transform="matrix(166.662364,0,0,166.662364,-1.574261,-77.720165)"/>
</g>
</g>
</g>
<g clip-path="url(#clip22)" clip-rule="nonzero">
<g clip-path="url(#clip23)" clip-rule="evenodd">
<g clip-path="url(#clip24)" clip-rule="evenodd">
<path style="fill:none;stroke-width:0.0224458;stroke-linecap:butt;stroke-linejoin:miter;stroke:rgb(17.96875%,20.3125%,21.09375%);stroke-opacity:0.8;stroke-miterlimit:10;" d="M 2.819393 2.135196 L 2.648694 1.548166 " transform="matrix(166.662364,0,0,166.662364,-1.574261,-77.720165)"/>
</g>
</g>
</g>
<g clip-path="url(#clip25)" clip-rule="nonzero">
<g clip-path="url(#clip26)" clip-rule="evenodd">
<g clip-path="url(#clip27)" clip-rule="evenodd">
<path style="fill:none;stroke-width:0.0224458;stroke-linecap:butt;stroke-linejoin:miter;stroke:rgb(17.96875%,20.3125%,21.09375%);stroke-opacity:0.8;stroke-miterlimit:10;" d="M 2.993117 1.85347 L 2.648694 1.548166 " transform="matrix(166.662364,0,0,166.662364,-1.574261,-77.720165)"/>
</g>
</g>
</g>
<g clip-path="url(#clip28)" clip-rule="nonzero">
<g clip-path="url(#clip29)" clip-rule="evenodd">
<g clip-path="url(#clip30)" clip-rule="evenodd">
<path style="fill:none;stroke-width:0.0224458;stroke-linecap:butt;stroke-linejoin:miter;stroke:rgb(17.96875%,20.3125%,21.09375%);stroke-opacity:0.8;stroke-miterlimit:10;" d="M 1.889205 1.149554 L 2.377632 1.603784 " transform="matrix(166.662364,0,0,166.662364,-1.574261,-77.720165)"/>
</g>
</g>
</g>
<g clip-path="url(#clip31)" clip-rule="nonzero">
<g clip-path="url(#clip32)" clip-rule="evenodd">
<g clip-path="url(#clip33)" clip-rule="evenodd">
<path style="fill:none;stroke-width:0.0224458;stroke-linecap:butt;stroke-linejoin:miter;stroke:rgb(17.96875%,20.3125%,21.09375%);stroke-opacity:0.8;stroke-miterlimit:10;" d="M 1.889205 1.149554 L 2.648694 1.548166 " transform="matrix(166.662364,0,0,166.662364,-1.574261,-77.720165)"/>
</g>
</g>
</g>
<g clip-path="url(#clip34)" clip-rule="nonzero">
<g clip-path="url(#clip35)" clip-rule="evenodd">
<g clip-path="url(#clip36)" clip-rule="evenodd">
<path style="fill:none;stroke-width:0.0224458;stroke-linecap:butt;stroke-linejoin:miter;stroke:rgb(17.96875%,20.3125%,21.09375%);stroke-opacity:0.8;stroke-miterlimit:10;" d="M 1.889205 1.149554 L 1.085981 1.091732 " transform="matrix(166.662364,0,0,166.662364,-1.574261,-77.720165)"/>
</g>
</g>
</g>
<g clip-path="url(#clip37)" clip-rule="nonzero">
<g clip-path="url(#clip38)" clip-rule="evenodd">
<g clip-path="url(#clip39)" clip-rule="evenodd">
<path style="fill:none;stroke-width:0.0224458;stroke-linecap:butt;stroke-linejoin:miter;stroke:rgb(17.96875%,20.3125%,21.09375%);stroke-opacity:0.8;stroke-miterlimit:10;" d="M 1.889205 1.149554 L 1.549915 0.876828 " transform="matrix(166.662364,0,0,166.662364,-1.574261,-77.720165)"/>
</g>
</g>
</g>
<g clip-path="url(#clip40)" clip-rule="nonzero">
<g clip-path="url(#clip41)" clip-rule="evenodd">
<g clip-path="url(#clip42)" clip-rule="evenodd">
<path style="fill:none;stroke-width:0.0224458;stroke-linecap:butt;stroke-linejoin:miter;stroke:rgb(17.96875%,20.3125%,21.09375%);stroke-opacity:0.8;stroke-miterlimit:10;" d="M 1.889205 1.149554 L 1.913253 0.705589 " transform="matrix(166.662364,0,0,166.662364,-1.574261,-77.720165)"/>
</g>
</g>
</g>
<g clip-path="url(#clip43)" clip-rule="nonzero">
<g clip-path="url(#clip44)" clip-rule="evenodd">
<g clip-path="url(#clip45)" clip-rule="evenodd">
<path style="fill:none;stroke-width:0.0224458;stroke-linecap:butt;stroke-linejoin:miter;stroke:rgb(17.96875%,20.3125%,21.09375%);stroke-opacity:0.8;stroke-miterlimit:10;" d="M 2.377632 1.603784 L 2.648694 1.548166 " transform="matrix(166.662364,0,0,166.662364,-1.574261,-77.720165)"/>
</g>
</g>
</g>
<g clip-path="url(#clip46)" clip-rule="nonzero">
<g clip-path="url(#clip47)" clip-rule="evenodd">
<g clip-path="url(#clip48)" clip-rule="evenodd">
<path style="fill:none;stroke-width:0.0224458;stroke-linecap:butt;stroke-linejoin:miter;stroke:rgb(17.96875%,20.3125%,21.09375%);stroke-opacity:0.8;stroke-miterlimit:10;" d="M 2.982171 1.195 L 2.648694 1.548166 " transform="matrix(166.662364,0,0,166.662364,-1.574261,-77.720165)"/>
</g>
</g>
</g>
<g clip-path="url(#clip49)" clip-rule="nonzero">
<g clip-path="url(#clip50)" clip-rule="evenodd">
<g clip-path="url(#clip51)" clip-rule="evenodd">
<path style="fill:none;stroke-width:0.0224458;stroke-linecap:butt;stroke-linejoin:miter;stroke:rgb(17.96875%,20.3125%,21.09375%);stroke-opacity:0.8;stroke-miterlimit:10;" d="M 0.66358 1.084536 L 1.085981 1.091732 " transform="matrix(166.662364,0,0,166.662364,-1.574261,-77.720165)"/>
</g>
</g>
</g>
<g clip-path="url(#clip52)" clip-rule="nonzero">
<g clip-path="url(#clip53)" clip-rule="evenodd">
<g clip-path="url(#clip54)" clip-rule="evenodd">
<path style="fill:none;stroke-width:0.0224458;stroke-linecap:butt;stroke-linejoin:miter;stroke:rgb(17.96875%,20.3125%,21.09375%);stroke-opacity:0.8;stroke-miterlimit:10;" d="M 0.353095 2.681211 L 0.820967 3.035079 " transform="matrix(166.662364,0,0,166.662364,-1.574261,-77.720165)"/>
</g>
</g>
</g>
<g clip-path="url(#clip55)" clip-rule="nonzero">
<g clip-path="url(#clip56)" clip-rule="evenodd">
<g clip-path="url(#clip57)" clip-rule="evenodd">
<path style="fill:none;stroke-width:0.0224458;stroke-linecap:butt;stroke-linejoin:miter;stroke:rgb(17.96875%,20.3125%,21.09375%);stroke-opacity:0.8;stroke-miterlimit:10;" d="M 0.353095 2.681211 L 0.374799 2.448564 " transform="matrix(166.662364,0,0,166.662364,-1.574261,-77.720165)"/>
</g>
</g>
</g>
<g clip-path="url(#clip58)" clip-rule="nonzero">
<g clip-path="url(#clip59)" clip-rule="evenodd">
<g clip-path="url(#clip60)" clip-rule="evenodd">
<path style="fill:none;stroke-width:0.0224458;stroke-linecap:butt;stroke-linejoin:miter;stroke:rgb(17.96875%,20.3125%,21.09375%);stroke-opacity:0.8;stroke-miterlimit:10;" d="M 0.820967 3.035079 L 0.778848 2.767181 " transform="matrix(166.662364,0,0,166.662364,-1.574261,-77.720165)"/>
</g>
</g>
</g>
<g clip-path="url(#clip61)" clip-rule="nonzero">
<g clip-path="url(#clip62)" clip-rule="evenodd">
<g clip-path="url(#clip63)" clip-rule="evenodd">
<path style="fill:none;stroke-width:0.0224458;stroke-linecap:butt;stroke-linejoin:miter;stroke:rgb(17.96875%,20.3125%,21.09375%);stroke-opacity:0.8;stroke-miterlimit:10;" d="M 0.820967 3.035079 L 1.104404 3.44391 " transform="matrix(166.662364,0,0,166.662364,-1.574261,-77.720165)"/>
</g>
</g>
</g>
<g clip-path="url(#clip64)" clip-rule="nonzero">
<g clip-path="url(#clip65)" clip-rule="evenodd">
<g clip-path="url(#clip66)" clip-rule="evenodd">
<path style="fill:none;stroke-width:0.0224458;stroke-linecap:butt;stroke-linejoin:miter;stroke:rgb(17.96875%,20.3125%,21.09375%);stroke-opacity:0.8;stroke-miterlimit:10;" d="M 0.820967 3.035079 L 1.280143 3.131808 " transform="matrix(166.662364,0,0,166.662364,-1.574261,-77.720165)"/>
</g>
</g>
</g>
<g clip-path="url(#clip67)" clip-rule="nonzero">
<g clip-path="url(#clip68)" clip-rule="evenodd">
<g clip-path="url(#clip69)" clip-rule="evenodd">
<path style="fill:none;stroke-width:0.0224458;stroke-linecap:butt;stroke-linejoin:miter;stroke:rgb(17.96875%,20.3125%,21.09375%);stroke-opacity:0.8;stroke-miterlimit:10;" d="M 0.374799 2.448564 L 0.778848 2.767181 " transform="matrix(166.662364,0,0,166.662364,-1.574261,-77.720165)"/>
</g>
</g>
</g>
<g clip-path="url(#clip70)" clip-rule="nonzero">
<g clip-path="url(#clip71)" clip-rule="evenodd">
<g clip-path="url(#clip72)" clip-rule="evenodd">
<path style="fill:none;stroke-width:0.0224458;stroke-linecap:butt;stroke-linejoin:miter;stroke:rgb(17.96875%,20.3125%,21.09375%);stroke-opacity:0.8;stroke-miterlimit:10;" d="M 0.778848 2.767181 L 1.280143 3.131808 " transform="matrix(166.662364,0,0,166.662364,-1.574261,-77.720165)"/>
</g>
</g>
</g>
<g clip-path="url(#clip73)" clip-rule="nonzero">
<g clip-path="url(#clip74)" clip-rule="evenodd">
<g clip-path="url(#clip75)" clip-rule="evenodd">
<path style="fill:none;stroke-width:0.0224458;stroke-linecap:butt;stroke-linejoin:miter;stroke:rgb(17.96875%,20.3125%,21.09375%);stroke-opacity:0.8;stroke-miterlimit:10;" d="M 1.253587 3.82717 L 1.104404 3.44391 " transform="matrix(166.662364,0,0,166.662364,-1.574261,-77.720165)"/>
</g>
</g>
</g>
<g clip-path="url(#clip76)" clip-rule="nonzero">
<g clip-path="url(#clip77)" clip-rule="evenodd">
<g clip-path="url(#clip78)" clip-rule="evenodd">
<path style="fill:none;stroke-width:0.0224458;stroke-linecap:butt;stroke-linejoin:miter;stroke:rgb(17.96875%,20.3125%,21.09375%);stroke-opacity:0.8;stroke-miterlimit:10;" d="M 1.104404 3.44391 L 1.280143 3.131808 " transform="matrix(166.662364,0,0,166.662364,-1.574261,-77.720165)"/>
</g>
</g>
</g>
<path style="fill-rule:nonzero;fill:rgb(100%,92.941176%,43.529412%);fill-opacity:1;stroke-width:0.0224458;stroke-linecap:butt;stroke-linejoin:miter;stroke:rgb(60%,60%,60%);stroke-opacity:0.8;stroke-miterlimit:10;" d="M 0.112218 -0.00000261126 C 0.112218 0.0619912 0.0619904 0.112219 -0.00000334031 0.112219 C -0.0619737 0.112219 -0.112225 0.0619912 -0.112225 -0.00000261126 C -0.112225 -0.061973 -0.0619737 -0.112224 -0.00000334031 -0.112224 C 0.0619904 -0.112224 0.112218 -0.061973 0.112218 -0.00000261126 Z M 0.112218 -0.00000261126 " transform="matrix(166.662364,0,0,166.662364,409.461494,525.914498)"/>
<path style="fill-rule:nonzero;fill:rgb(55.294118%,82.745098%,78.039216%);fill-opacity:1;stroke-width:0.0224458;stroke-linecap:butt;stroke-linejoin:miter;stroke:rgb(60%,60%,60%);stroke-opacity:0.8;stroke-miterlimit:10;" d="M 0.112219 0.0000110617 C 0.112219 0.0619814 0.0619909 0.112233 -0.00000285681 0.112233 C -0.0619732 0.112233 -0.112225 0.0619814 -0.112225 0.0000110617 C -0.112225 -0.0619827 -0.0619732 -0.112234 -0.00000285681 -0.112234 C 0.0619909 -0.112234 0.112219 -0.0619827 0.112219 0.0000110617 Z M 0.112219 0.0000110617 " transform="matrix(166.662364,0,0,166.662364,542.727039,335.080188)"/>
<path style="fill-rule:nonzero;fill:rgb(100%,92.941176%,43.529412%);fill-opacity:1;stroke-width:0.0224458;stroke-linecap:butt;stroke-linejoin:miter;stroke:rgb(60%,60%,60%);stroke-opacity:0.8;stroke-miterlimit:10;" d="M 0.112236 -0.0000114095 C 0.112236 0.0619824 0.0619847 0.112234 -0.00000912588 0.112234 C -0.0619795 0.112234 -0.112231 0.0619824 -0.112231 -0.0000114095 C -0.112231 -0.0619818 -0.0619795 -0.112233 -0.00000912588 -0.112233 C 0.0619847 -0.112233 0.112236 -0.0619818 0.112236 -0.0000114095 Z M 0.112236 -0.0000114095 " transform="matrix(166.662364,0,0,166.662364,360.755427,469.665964)"/>
<path style="fill-rule:nonzero;fill:rgb(100%,92.941176%,43.529412%);fill-opacity:1;stroke-width:0.0224458;stroke-linecap:butt;stroke-linejoin:miter;stroke:rgb(60%,60%,60%);stroke-opacity:0.8;stroke-miterlimit:10;" d="M 0.112233 -0.00000782203 C 0.112233 0.061986 0.0619821 0.112237 -0.0000116835 0.112237 C -0.061982 0.112237 -0.112233 0.061986 -0.112233 -0.00000782203 C -0.112233 -0.0619782 -0.061982 -0.112229 -0.0000116835 -0.112229 C 0.0619821 -0.112229 0.112233 -0.0619782 0.112233 -0.00000782203 Z M 0.112233 -0.00000782203 " transform="matrix(166.662364,0,0,166.662364,435.744135,399.013022)"/>
<path style="fill-rule:nonzero;fill:rgb(55.294118%,82.745098%,78.039216%);fill-opacity:1;stroke-width:0.0224458;stroke-linecap:butt;stroke-linejoin:miter;stroke:rgb(60%,60%,60%);stroke-opacity:0.8;stroke-miterlimit:10;" d="M 0.112224 -0.00000946065 C 0.112224 0.0619843 0.0619731 0.112236 0.00000279071 0.112236 C -0.061991 0.112236 -0.112219 0.0619843 -0.112219 -0.00000946065 C -0.112219 -0.0619798 -0.061991 -0.112231 0.00000279071 -0.112231 C 0.0619731 -0.112231 0.112224 -0.0619798 0.112224 -0.00000946065 Z M 0.112224 -0.00000946065 " transform="matrix(166.662364,0,0,166.662364,468.312035,278.138295)"/>
<path style="fill-rule:nonzero;fill:rgb(55.294118%,82.745098%,78.039216%);fill-opacity:1;stroke-width:0.0224458;stroke-linecap:butt;stroke-linejoin:miter;stroke:rgb(60%,60%,60%);stroke-opacity:0.8;stroke-miterlimit:10;" d="M 0.112223 -0.00000396729 C 0.112223 0.0619898 0.0619716 0.112218 0.0000012142 0.112218 C -0.0619926 0.112218 -0.11222 0.0619898 -0.11222 -0.00000396729 C -0.11222 -0.0619743 -0.0619926 -0.112226 0.0000012142 -0.112226 C 0.0619716 -0.112226 0.112223 -0.0619743 0.112223 -0.00000396729 Z M 0.112223 -0.00000396729 " transform="matrix(166.662364,0,0,166.662364,497.265423,231.184255)"/>
<path style="fill-rule:nonzero;fill:rgb(55.294118%,82.745098%,78.039216%);fill-opacity:1;stroke-width:0.0224458;stroke-linecap:butt;stroke-linejoin:miter;stroke:rgb(60%,60%,60%);stroke-opacity:0.8;stroke-miterlimit:10;" d="M 0.112228 0.00000985747 C 0.112228 0.0619802 0.061977 0.112232 0.00000663474 0.112232 C -0.0619872 0.112232 -0.112238 0.0619802 -0.112238 0.00000985747 C -0.112238 -0.0619839 -0.0619872 -0.112235 0.00000663474 -0.112235 C 0.061977 -0.112235 0.112228 -0.0619839 0.112228 0.00000985747 Z M 0.112228 0.00000985747 " transform="matrix(166.662364,0,0,166.662364,313.28405,113.865545)"/>
<path style="fill-rule:nonzero;fill:rgb(55.294118%,82.745098%,78.039216%);fill-opacity:1;stroke-width:0.0224458;stroke-linecap:butt;stroke-linejoin:miter;stroke:rgb(60%,60%,60%);stroke-opacity:0.8;stroke-miterlimit:10;" d="M 0.112224 0.0000114575 C 0.112224 0.0619818 0.0619727 0.112233 0.00000232785 0.112233 C -0.0619915 0.112233 -0.112219 0.0619818 -0.112219 0.0000114575 C -0.112219 -0.0619823 -0.0619915 -0.112234 0.00000232785 -0.112234 C 0.0619727 -0.112234 0.112224 -0.0619823 0.112224 0.0000114575 Z M 0.112224 0.0000114575 " transform="matrix(166.662364,0,0,166.662364,394.687112,189.568403)"/>
<path style="fill-rule:nonzero;fill:rgb(55.294118%,82.745098%,78.039216%);fill-opacity:1;stroke-width:0.0224458;stroke-linecap:butt;stroke-linejoin:miter;stroke:rgb(60%,60%,60%);stroke-opacity:0.8;stroke-miterlimit:10;" d="M 0.112225 -0.0000102791 C 0.112225 0.0619835 0.061974 0.112235 0.00000365214 0.112235 C -0.0619901 0.112235 -0.112218 0.0619835 -0.112218 -0.0000102791 C -0.112218 -0.0619806 -0.0619901 -0.112232 0.00000365214 -0.112232 C 0.061974 -0.112232 0.112225 -0.0619806 0.112225 -0.0000102791 Z M 0.112225 -0.0000102791 " transform="matrix(166.662364,0,0,166.662364,495.440798,121.443119)"/>
<path style="fill-rule:nonzero;fill:rgb(55.294118%,82.745098%,78.039216%);fill-opacity:1;stroke-width:0.0224458;stroke-linecap:butt;stroke-linejoin:miter;stroke:rgb(60%,60%,60%);stroke-opacity:0.8;stroke-miterlimit:10;" d="M 0.112234 -0.000000100356 C 0.112234 0.0619937 0.0619831 0.112222 -0.000010639 0.112222 C -0.061981 0.112222 -0.112232 0.0619937 -0.112232 -0.000000100356 C -0.112232 -0.0619939 -0.061981 -0.112222 -0.000010639 -0.112222 C 0.0619831 -0.112222 0.112234 -0.0619939 0.112234 -0.000000100356 Z M 0.112234 -0.000000100356 " transform="matrix(166.662364,0,0,166.662364,439.865054,180.300798)"/>
<path style="fill-rule:nonzero;fill:rgb(55.294118%,82.745098%,78.039216%);fill-opacity:1;stroke-width:0.0224458;stroke-linecap:butt;stroke-linejoin:miter;stroke:rgb(60%,60%,60%);stroke-opacity:0.8;stroke-miterlimit:10;" d="M 0.112233 0.00000558411 C 0.112233 0.0619759 0.0619819 0.112227 0.0000115305 0.112227 C -0.0619823 0.112227 -0.112234 0.0619759 -0.112234 0.00000558411 C -0.112234 -0.0619882 -0.0619823 -0.11224 0.0000115305 -0.11224 C 0.0619819 -0.11224 0.112233 -0.0619882 0.112233 0.00000558411 Z M 0.112233 0.00000558411 " transform="matrix(166.662364,0,0,166.662364,109.01761,103.030319)"/>
<path style="fill-rule:nonzero;fill:rgb(55.294118%,82.745098%,78.039216%);fill-opacity:1;stroke-width:0.0224458;stroke-linecap:butt;stroke-linejoin:miter;stroke:rgb(60%,60%,60%);stroke-opacity:0.8;stroke-miterlimit:10;" d="M 0.112239 -0.00000889741 C 0.112239 0.0619849 0.0619879 0.112236 -0.0000058438 0.112236 C -0.0619762 0.112236 -0.112227 0.0619849 -0.112227 -0.00000889741 C -0.112227 -0.0619792 -0.0619762 -0.112231 -0.0000058438 -0.112231 C 0.0619879 -0.112231 0.112239 -0.0619792 0.112239 -0.00000889741 Z M 0.112239 -0.00000889741 " transform="matrix(166.662364,0,0,166.662364,179.418943,104.231952)"/>
<path style="fill-rule:nonzero;fill:rgb(55.294118%,82.745098%,78.039216%);fill-opacity:1;stroke-width:0.0224458;stroke-linecap:butt;stroke-linejoin:miter;stroke:rgb(60%,60%,60%);stroke-opacity:0.8;stroke-miterlimit:10;" d="M 0.112226 0.00000161123 C 0.112226 0.061972 0.0619751 0.112223 0.00000470573 0.112223 C -0.0619891 0.112223 -0.11224 0.061972 -0.11224 0.00000161123 C -0.11224 -0.0619922 -0.0619891 -0.11222 0.00000470573 -0.11222 C 0.0619751 -0.11222 0.112226 -0.0619922 0.112226 0.00000161123 Z M 0.112226 0.00000161123 " transform="matrix(166.662364,0,0,166.662364,256.737497,68.413794)"/>
<path style="fill-rule:nonzero;fill:rgb(55.294118%,82.745098%,78.039216%);fill-opacity:1;stroke-width:0.0224458;stroke-linecap:butt;stroke-linejoin:miter;stroke:rgb(60%,60%,60%);stroke-opacity:0.8;stroke-miterlimit:10;" d="M 0.112221 -0.0000110372 C 0.112221 0.0619828 0.0619934 0.112234 -0.000000361656 0.112234 C -0.0619941 0.112234 -0.112222 0.0619828 -0.112222 -0.0000110372 C -0.112222 -0.0619814 -0.0619941 -0.112233 -0.000000361656 -0.112233 C 0.0619934 -0.112233 0.112221 -0.0619814 0.112221 -0.0000110372 Z M 0.112221 -0.0000110372 " transform="matrix(166.662364,0,0,166.662364,317.293029,39.876839)"/>
<path style="fill-rule:nonzero;fill:rgb(100%,92.941176%,43.529412%);fill-opacity:1;stroke-width:0.0224458;stroke-linecap:butt;stroke-linejoin:miter;stroke:rgb(60%,60%,60%);stroke-opacity:0.8;stroke-miterlimit:10;" d="M 0.112225 -0.00000722438 C 0.112225 0.0619866 0.0619732 0.112238 0.00000285681 0.112238 C -0.0619909 0.112238 -0.112219 0.0619866 -0.112219 -0.00000722438 C -0.112219 -0.0619776 -0.0619909 -0.112229 0.00000285681 -0.112229 C 0.0619732 -0.112229 0.112225 -0.0619776 0.112225 -0.00000722438 Z M 0.112225 -0.00000722438 " transform="matrix(166.662364,0,0,166.662364,57.272961,369.137923)"/>
<path style="fill-rule:nonzero;fill:rgb(100%,92.941176%,43.529412%);fill-opacity:1;stroke-width:0.0224458;stroke-linecap:butt;stroke-linejoin:miter;stroke:rgb(60%,60%,60%);stroke-opacity:0.8;stroke-miterlimit:10;" d="M 0.112231 -0.000000239345 C 0.112231 0.0619935 0.06198 0.112221 0.00000960738 0.112221 C -0.0619842 0.112221 -0.112235 0.0619935 -0.112235 -0.000000239345 C -0.112235 -0.061994 -0.0619842 -0.112222 0.00000960738 -0.112222 C 0.06198 -0.112222 0.112231 -0.061994 0.112231 -0.000000239345 Z M 0.112231 -0.000000239345 " transform="matrix(166.662364,0,0,166.662364,135.248399,428.113321)"/>
<path style="fill-rule:nonzero;fill:rgb(100%,92.941176%,43.529412%);fill-opacity:1;stroke-width:0.0224458;stroke-linecap:butt;stroke-linejoin:miter;stroke:rgb(60%,60%,60%);stroke-opacity:0.8;stroke-miterlimit:10;" d="M 0.11222 -0.0000016944 C 0.11222 0.0619921 0.0619918 0.11222 -0.00000197167 0.11222 C -0.0619723 0.11222 -0.112224 0.0619921 -0.112224 -0.0000016944 C -0.112224 -0.061972 -0.0619723 -0.112223 -0.00000197167 -0.112223 C 0.0619918 -0.112223 0.11222 -0.061972 0.11222 -0.0000016944 Z M 0.11222 -0.0000016944 " transform="matrix(166.662364,0,0,166.662364,60.890954,330.363564)"/>
<path style="fill-rule:nonzero;fill:rgb(100%,92.941176%,43.529412%);fill-opacity:1;stroke-width:0.0224458;stroke-linecap:butt;stroke-linejoin:miter;stroke:rgb(60%,60%,60%);stroke-opacity:0.8;stroke-miterlimit:10;" d="M 0.112219 0.000000778793 C 0.112219 0.0619711 0.061991 0.112222 -0.0000027981 0.112222 C -0.0619731 0.112222 -0.112224 0.0619711 -0.112224 0.000000778793 C -0.112224 -0.061993 -0.0619731 -0.112221 -0.0000027981 -0.112221 C 0.061991 -0.112221 0.112219 -0.061993 0.112219 0.000000778793 Z M 0.112219 0.000000778793 " transform="matrix(166.662364,0,0,166.662364,128.230935,383.464714)"/>
<path style="fill-rule:nonzero;fill:rgb(100%,92.941176%,43.529412%);fill-opacity:1;stroke-width:0.0224458;stroke-linecap:butt;stroke-linejoin:miter;stroke:rgb(60%,60%,60%);stroke-opacity:0.8;stroke-miterlimit:10;" d="M 0.112236 0.0000110372 C 0.112236 0.0619814 0.0619844 0.112233 -0.00000934439 0.112233 C -0.0619797 0.112233 -0.112231 0.0619814 -0.112231 0.0000110372 C -0.112231 -0.0619828 -0.0619797 -0.112234 -0.00000934439 -0.112234 C 0.0619844 -0.112234 0.112236 -0.0619828 0.112236 0.0000110372 Z M 0.112236 0.0000110372 " transform="matrix(166.662364,0,0,166.662364,207.35312,560.123161)"/>
<path style="fill-rule:nonzero;fill:rgb(100%,92.941176%,43.529412%);fill-opacity:1;stroke-width:0.0224458;stroke-linecap:butt;stroke-linejoin:miter;stroke:rgb(60%,60%,60%);stroke-opacity:0.8;stroke-miterlimit:10;" d="M 0.112228 -0.0000113047 C 0.112228 0.0619825 0.0619768 0.112234 0.00000647581 0.112234 C -0.0619873 0.112234 -0.112239 0.0619825 -0.112239 -0.0000113047 C -0.112239 -0.0619817 -0.0619873 -0.112233 0.00000647581 -0.112233 C 0.0619768 -0.112233 0.112228 -0.0619817 0.112228 -0.0000113047 Z M 0.112228 -0.0000113047 " transform="matrix(166.662364,0,0,166.662364,182.487202,496.251884)"/>
<path style="fill-rule:nonzero;fill:rgb(100%,92.941176%,43.529412%);fill-opacity:1;stroke-width:0.0224458;stroke-linecap:butt;stroke-linejoin:miter;stroke:rgb(60%,60%,60%);stroke-opacity:0.8;stroke-miterlimit:10;" d="M 0.112238 0.00000536332 C 0.112238 0.0619757 0.0619863 0.112227 -0.00000753559 0.112227 C -0.0619779 0.112227 -0.112229 0.0619757 -0.112229 0.00000536332 C -0.112229 -0.0619884 -0.0619779 -0.11224 -0.00000753559 -0.11224 C 0.0619863 -0.11224 0.112238 -0.0619884 0.112238 0.00000536332 Z M 0.112238 0.00000536332 " transform="matrix(166.662364,0,0,166.662364,211.7786,444.233481)"/>
</g>
</svg>
