<?xml version="1.0" encoding="UTF-8"?>
<svg xmlns="http://www.w3.org/2000/svg" xmlns:xlink="http://www.w3.org/1999/xlink" width="600pt" height="600pt" viewBox="0 0 600 600" version="1.1">
<defs>
<clipPath id="clip1">
  <path d="M 16 27 L 218 27 L 218 183 L 16 183 Z M 16 27 "/>
</clipPath>
<clipPath id="clip2">
  <path d="M -13.058594 -107.023438 L 247.019531 -107.023438 L 247.019531 316.640625 L -13.058594 316.640625 Z M -13.058594 -107.023438 L 95.726562 123.453125 C 95.726562 134.9375 86.421875 144.242188 74.9375 144.242188 C 63.457031 144.242188 54.148438 134.9375 54.148438 123.453125 C 54.148438 111.972656 63.457031 102.664062 74.9375 102.664062 C 86.421875 102.664062 95.726562 111.972656 95.726562 123.453125 Z M -13.058594 -107.023438 "/>
</clipPath>
<clipPath id="clip3">
  <path d="M -13.058594 -107.023438 L 247.019531 -107.023438 L 247.019531 316.640625 L -13.058594 316.640625 Z M -13.058594 -107.023438 L 179.808594 86.160156 C 179.808594 97.640625 170.5 106.949219 159.019531 106.949219 C 147.539062 106.949219 138.230469 97.640625 138.230469 86.160156 C 138.230469 74.679688 147.539062 65.371094 159.019531 65.371094 C 170.5 65.371094 179.808594 74.679688 179.808594 86.160156 Z M -13.058594 -107.023438 "/>
</clipPath>
<clipPath id="clip4">
  <path d="M 16 24 L 150 24 L 150 183 L 16 183 Z M 16 24 "/>
</clipPath>
<clipPath id="clip5">
  <path d="M -121.664062 3.425781 L 287.351562 3.425781 L 287.351562 203.277344 L -121.664062 203.277344 Z M -121.664062 3.425781 L 95.726562 123.453125 C 95.726562 134.9375 86.421875 144.242188 74.9375 144.242188 C 63.457031 144.242188 54.148438 134.9375 54.148438 123.453125 C 54.148438 111.972656 63.457031 102.664062 74.9375 102.664062 C 86.421875 102.664062 95.726562 111.972656 95.726562 123.453125 Z M -121.664062 3.425781 "/>
</clipPath>
<clipPath id="clip6">
  <path d="M -121.664062 3.425781 L 287.351562 3.425781 L 287.351562 203.277344 L -121.664062 203.277344 Z M -121.664062 3.425781 L 111.535156 83.246094 C 111.535156 94.726562 102.226562 104.035156 90.746094 104.035156 C 79.265625 104.035156 69.957031 94.726562 69.957031 83.246094 C 69.957031 71.765625 79.265625 62.457031 90.746094 62.457031 C 102.226562 62.457031 111.535156 71.765625 111.535156 83.246094 Z M -121.664062 3.425781 "/>
</clipPath>
<clipPath id="clip7">
  <path d="M 55 0 L 218 0 L 218 145 L 55 145 Z M 55 0 "/>
</clipPath>
<clipPath id="clip8">
  <path d="M -33.789062 -110.382812 L 306.695312 -110.382812 L 306.695312 239.195312 L -33.789062 239.195312 Z M -33.789062 -110.382812 L 179.808594 86.160156 C 179.808594 97.640625 170.5 106.949219 159.019531 106.949219 C 147.539062 106.949219 138.230469 97.640625 138.230469 86.160156 C 138.230469 74.679688 147.539062 65.371094 159.019531 65.371094 C 170.5 65.371094 179.808594 74.679688 179.808594 86.160156 Z M -33.789062 -110.382812 "/>
</clipPath>
<clipPath id="clip9">
  <path d="M -33.789062 -110.382812 L 306.695312 -110.382812 L 306.695312 239.195312 L -33.789062 239.195312 Z M -33.789062 -110.382812 L 134.671875 42.648438 C 134.671875 54.128906 125.363281 63.4375 113.882812 63.4375 C 102.402344 63.4375 93.09375 54.128906 93.09375 42.648438 C 93.09375 31.167969 102.402344 21.859375 113.882812 21.859375 C 125.363281 21.859375 134.671875 31.167969 134.671875 42.648438 Z M -33.789062 -110.382812 "/>
</clipPath>
<clipPath id="clip10">
  <path d="M 77.773438 24 L 171.996094 24 L 171.996094 145 L 77.773438 145 Z M 77.773438 24 "/>
</clipPath>
<clipPath id="clip11">
  <path d="M 77.773438 -127.507812 L 171.996094 -127.507812 L 171.996094 296.917969 L 77.773438 296.917969 Z M 77.773438 -127.507812 L 179.808594 86.160156 C 179.808594 97.640625 170.5 106.949219 159.019531 106.949219 C 147.539062 106.949219 138.230469 97.640625 138.230469 86.160156 C 138.230469 74.679688 147.539062 65.371094 159.019531 65.371094 C 170.5 65.371094 179.808594 74.679688 179.808594 86.160156 Z M 77.773438 -127.507812 "/>
</clipPath>
<clipPath id="clip12">
  <path d="M 77.773438 -127.507812 L 171.996094 -127.507812 L 171.996094 296.917969 L 77.773438 296.917969 Z M 77.773438 -127.507812 L 111.535156 83.246094 C 111.535156 94.726562 102.226562 104.035156 90.746094 104.035156 C 79.265625 104.035156 69.957031 94.726562 69.957031 83.246094 C 69.957031 71.765625 79.265625 62.457031 90.746094 62.457031 C 102.226562 62.457031 111.535156 71.765625 111.535156 83.246094 Z M 77.773438 -127.507812 "/>
</clipPath>
<clipPath id="clip13">
  <path d="M 127.988281 27 L 365.882812 27 L 365.882812 169 L 127.988281 169 Z M 127.988281 27 "/>
</clipPath>
<clipPath id="clip14">
  <path d="M 127.988281 -123.027344 L 365.882812 -123.027344 L 365.882812 318.398438 L 127.988281 318.398438 Z M 127.988281 -123.027344 L 179.808594 86.160156 C 179.808594 97.640625 170.5 106.949219 159.019531 106.949219 C 147.539062 106.949219 138.230469 97.640625 138.230469 86.160156 C 138.230469 74.679688 147.539062 65.371094 159.019531 65.371094 C 170.5 65.371094 179.808594 74.679688 179.808594 86.160156 Z M 127.988281 -123.027344 "/>
</clipPath>
<clipPath id="clip15">
  <path d="M 127.988281 -123.027344 L 365.882812 -123.027344 L 365.882812 318.398438 L 127.988281 318.398438 Z M 127.988281 -123.027344 L 355.636719 109.207031 C 355.636719 120.6875 346.332031 129.996094 334.847656 129.996094 C 323.367188 129.996094 314.058594 120.6875 314.058594 109.207031 C 314.058594 97.726562 323.367188 88.417969 334.847656 88.417969 C 346.332031 88.417969 355.636719 97.726562 355.636719 109.207031 Z M 127.988281 -123.027344 "/>
</clipPath>
<clipPath id="clip16">
  <path d="M 31 0 L 173 0 L 173 143 L 31 143 Z M 31 0 "/>
</clipPath>
<clipPath id="clip17">
  <path d="M -93.066406 -63.894531 L 297.699219 -63.894531 L 297.699219 189.792969 L -93.066406 189.792969 Z M -93.066406 -63.894531 L 134.671875 42.648438 C 134.671875 54.128906 125.363281 63.4375 113.882812 63.4375 C 102.402344 63.4375 93.09375 54.128906 93.09375 42.648438 C 93.09375 31.167969 102.402344 21.859375 113.882812 21.859375 C 125.363281 21.859375 134.671875 31.167969 134.671875 42.648438 Z M -93.066406 -63.894531 "/>
</clipPath>
<clipPath id="clip18">
  <path d="M -93.066406 -63.894531 L 297.699219 -63.894531 L 297.699219 189.792969 L -93.066406 189.792969 Z M -93.066406 -63.894531 L 111.535156 83.246094 C 111.535156 94.726562 102.226562 104.035156 90.746094 104.035156 C 79.265625 104.035156 69.957031 94.726562 69.957031 83.246094 C 69.957031 71.765625 79.265625 62.457031 90.746094 62.457031 C 102.226562 62.457031 111.535156 71.765625 111.535156 83.246094 Z M -93.066406 -63.894531 "/>
</clipPath>
<clipPath id="clip19">
  <path d="M 295 338.765625 L 430 338.765625 L 430 525.617188 L 295 525.617188 Z M 295 338.765625 "/>
</clipPath>
<clipPath id="clip20">
  <path d="M 144.890625 338.765625 L 579.546875 338.765625 L 579.546875 525.617188 L 144.890625 525.617188 Z M 144.890625 338.765625 L 391.050781 495.316406 C 391.050781 506.796875 381.742188 516.105469 370.261719 516.105469 C 358.78125 516.105469 349.472656 506.796875 349.472656 495.316406 C 349.472656 483.835938 358.78125 474.527344 370.261719 474.527344 C 381.742188 474.527344 391.050781 483.835938 391.050781 495.316406 Z M 144.890625 338.765625 "/>
</clipPath>
<clipPath id="clip21">
  <path d="M 144.890625 338.765625 L 579.546875 338.765625 L 579.546875 525.617188 L 144.890625 525.617188 Z M 144.890625 338.765625 L 374.960938 369.0625 C 374.960938 380.542969 365.652344 389.851562 354.171875 389.851562 C 342.691406 389.851562 333.382812 380.542969 333.382812 369.0625 C 333.382812 357.582031 342.691406 348.273438 354.171875 348.273438 C 365.652344 348.273438 374.960938 357.582031 374.960938 369.0625 Z M 144.890625 338.765625 "/>
</clipPath>
<clipPath id="clip22">
  <path d="M 311 485.121094 L 431 485.121094 L 431 567.550781 L 311 567.550781 Z M 311 485.121094 "/>
</clipPath>
<clipPath id="clip23">
  <path d="M 159.410156 485.121094 L 582.929688 485.121094 L 582.929688 567.550781 L 159.410156 567.550781 Z M 159.410156 485.121094 L 391.050781 495.316406 C 391.050781 506.796875 381.742188 516.105469 370.261719 516.105469 C 358.78125 516.105469 349.472656 506.796875 349.472656 495.316406 C 349.472656 483.835938 358.78125 474.527344 370.261719 474.527344 C 381.742188 474.527344 391.050781 483.835938 391.050781 495.316406 Z M 159.410156 485.121094 "/>
</clipPath>
<clipPath id="clip24">
  <path d="M 159.410156 485.121094 L 582.929688 485.121094 L 582.929688 567.550781 L 159.410156 567.550781 Z M 159.410156 485.121094 L 392.863281 557.351562 C 392.863281 568.832031 383.558594 578.140625 372.074219 578.140625 C 360.59375 578.140625 351.289062 568.832031 351.289062 557.351562 C 351.289062 545.871094 360.59375 536.5625 372.074219 536.5625 C 383.558594 536.5625 392.863281 545.871094 392.863281 557.351562 Z M 159.410156 485.121094 "/>
</clipPath>
<clipPath id="clip25">
  <path d="M 251 436 L 430 436 L 430 592 L 251 592 Z M 251 436 "/>
</clipPath>
<clipPath id="clip26">
  <path d="M 196.847656 315.425781 L 483.40625 315.425781 L 483.40625 712.589844 L 196.847656 712.589844 Z M 196.847656 315.425781 L 391.050781 495.316406 C 391.050781 506.796875 381.742188 516.105469 370.261719 516.105469 C 358.78125 516.105469 349.472656 506.796875 349.472656 495.316406 C 349.472656 483.835938 358.78125 474.527344 370.261719 474.527344 C 381.742188 474.527344 391.050781 483.835938 391.050781 495.316406 Z M 196.847656 315.425781 "/>
</clipPath>
<clipPath id="clip27">
  <path d="M 196.847656 315.425781 L 483.40625 315.425781 L 483.40625 712.589844 L 196.847656 712.589844 Z M 196.847656 315.425781 L 330.773438 532.695312 C 330.773438 544.175781 321.46875 553.484375 309.988281 553.484375 C 298.503906 553.484375 289.199219 544.175781 289.199219 532.695312 C 289.199219 521.214844 298.503906 511.90625 309.988281 511.90625 C 321.46875 511.90625 330.773438 521.214844 330.773438 532.695312 Z M 196.847656 315.425781 "/>
</clipPath>
<clipPath id="clip28">
  <path d="M 168 310 L 413 310 L 413 530 L 168 530 Z M 168 310 "/>
</clipPath>
<clipPath id="clip29">
  <path d="M 93.898438 203.117188 L 487.113281 203.117188 L 487.113281 636.367188 L 93.898438 636.367188 Z M 93.898438 203.117188 L 247.625 470.417969 C 247.625 481.902344 238.316406 491.207031 226.835938 491.207031 C 215.355469 491.207031 206.046875 481.902344 206.046875 470.417969 C 206.046875 458.9375 215.355469 449.628906 226.835938 449.628906 C 238.316406 449.628906 247.625 458.9375 247.625 470.417969 Z M 93.898438 203.117188 "/>
</clipPath>
<clipPath id="clip30">
  <path d="M 93.898438 203.117188 L 487.113281 203.117188 L 487.113281 636.367188 L 93.898438 636.367188 Z M 93.898438 203.117188 L 374.960938 369.0625 C 374.960938 380.542969 365.652344 389.851562 354.171875 389.851562 C 342.691406 389.851562 333.382812 380.542969 333.382812 369.0625 C 333.382812 357.582031 342.691406 348.273438 354.171875 348.273438 C 365.652344 348.273438 374.960938 357.582031 374.960938 369.0625 Z M 93.898438 203.117188 "/>
</clipPath>
<clipPath id="clip31">
  <path d="M 99.347656 411 L 242.074219 411 L 242.074219 536 L 99.347656 536 Z M 99.347656 411 "/>
</clipPath>
<clipPath id="clip32">
  <path d="M 99.347656 259.773438 L 242.074219 259.773438 L 242.074219 687.089844 L 99.347656 687.089844 Z M 99.347656 259.773438 L 247.625 470.417969 C 247.625 481.902344 238.316406 491.207031 226.835938 491.207031 C 215.355469 491.207031 206.046875 481.902344 206.046875 470.417969 C 206.046875 458.9375 215.355469 449.628906 226.835938 449.628906 C 238.316406 449.628906 247.625 458.9375 247.625 470.417969 Z M 99.347656 259.773438 "/>
</clipPath>
<clipPath id="clip33">
  <path d="M 99.347656 259.773438 L 242.074219 259.773438 L 242.074219 687.089844 L 99.347656 687.089844 Z M 99.347656 259.773438 L 135.371094 476.441406 C 135.371094 487.925781 126.0625 497.230469 114.582031 497.230469 C 103.101562 497.230469 93.792969 487.925781 93.792969 476.441406 C 93.792969 464.960938 103.101562 455.65625 114.582031 455.65625 C 126.0625 455.65625 135.371094 464.960938 135.371094 476.441406 Z M 99.347656 259.773438 "/>
</clipPath>
<clipPath id="clip34">
  <path d="M 168 411 L 369 411 L 369 592 L 168 592 Z M 168 411 "/>
</clipPath>
<clipPath id="clip35">
  <path d="M 98.71875 300.75 L 438.109375 300.75 L 438.109375 702.367188 L 98.71875 702.367188 Z M 98.71875 300.75 L 247.625 470.417969 C 247.625 481.902344 238.316406 491.207031 226.835938 491.207031 C 215.355469 491.207031 206.046875 481.902344 206.046875 470.417969 C 206.046875 458.9375 215.355469 449.628906 226.835938 449.628906 C 238.316406 449.628906 247.625 458.9375 247.625 470.417969 Z M 98.71875 300.75 "/>
</clipPath>
<clipPath id="clip36">
  <path d="M 98.71875 300.75 L 438.109375 300.75 L 438.109375 702.367188 L 98.71875 702.367188 Z M 98.71875 300.75 L 330.773438 532.695312 C 330.773438 544.175781 321.46875 553.484375 309.988281 553.484375 C 298.503906 553.484375 289.199219 544.175781 289.199219 532.695312 C 289.199219 521.214844 298.503906 511.90625 309.988281 511.90625 C 321.46875 511.90625 330.773438 521.214844 330.773438 532.695312 Z M 98.71875 300.75 "/>
</clipPath>
<clipPath id="clip37">
  <path d="M 295 147 L 484 147 L 484 428 L 295 428 Z M 295 147 "/>
</clipPath>
<clipPath id="clip38">
  <path d="M 160.402344 119.753906 L 618.714844 119.753906 L 618.714844 455.726562 L 160.402344 455.726562 Z M 160.402344 119.753906 L 374.960938 369.0625 C 374.960938 380.542969 365.652344 389.851562 354.171875 389.851562 C 342.691406 389.851562 333.382812 380.542969 333.382812 369.0625 C 333.382812 357.582031 342.691406 348.273438 354.171875 348.273438 C 365.652344 348.273438 374.960938 357.582031 374.960938 369.0625 Z M 160.402344 119.753906 "/>
</clipPath>
<clipPath id="clip39">
  <path d="M 160.402344 119.753906 L 618.714844 119.753906 L 618.714844 455.726562 L 160.402344 455.726562 Z M 160.402344 119.753906 L 445.730469 206.414062 C 445.730469 217.894531 436.421875 227.203125 424.941406 227.203125 C 413.457031 227.203125 404.152344 217.894531 404.152344 206.414062 C 404.152344 194.929688 413.457031 185.625 424.941406 185.625 C 436.421875 185.625 445.730469 194.929688 445.730469 206.414062 Z M 160.402344 119.753906 "/>
</clipPath>
<clipPath id="clip40">
  <path d="M 295 246 L 502 246 L 502 428 L 295 428 Z M 295 246 "/>
</clipPath>
<clipPath id="clip41">
  <path d="M 229.167969 133.324219 L 567.746094 133.324219 L 567.746094 541.019531 L 229.167969 541.019531 Z M 229.167969 133.324219 L 374.960938 369.0625 C 374.960938 380.542969 365.652344 389.851562 354.171875 389.851562 C 342.691406 389.851562 333.382812 380.542969 333.382812 369.0625 C 333.382812 357.582031 342.691406 348.273438 354.171875 348.273438 C 365.652344 348.273438 374.960938 357.582031 374.960938 369.0625 Z M 229.167969 133.324219 "/>
</clipPath>
<clipPath id="clip42">
  <path d="M 229.167969 133.324219 L 567.746094 133.324219 L 567.746094 541.019531 L 229.167969 541.019531 Z M 229.167969 133.324219 L 463.527344 305.277344 C 463.527344 316.757812 454.21875 326.066406 442.738281 326.066406 C 431.253906 326.066406 421.949219 316.757812 421.949219 305.277344 C 421.949219 293.792969 431.253906 284.488281 442.738281 284.488281 C 454.21875 284.488281 463.527344 293.792969 463.527344 305.277344 Z M 229.167969 133.324219 "/>
</clipPath>
<clipPath id="clip43">
  <path d="M 230.679688 295 L 396.066406 295 L 396.066406 428 L 230.679688 428 Z M 230.679688 295 "/>
</clipPath>
<clipPath id="clip44">
  <path d="M 230.679688 146.449219 L 396.066406 146.449219 L 396.066406 576.535156 L 230.679688 576.535156 Z M 230.679688 146.449219 L 374.960938 369.0625 C 374.960938 380.542969 365.652344 389.851562 354.171875 389.851562 C 342.691406 389.851562 333.382812 380.542969 333.382812 369.0625 C 333.382812 357.582031 342.691406 348.273438 354.171875 348.273438 C 365.652344 348.273438 374.960938 357.582031 374.960938 369.0625 Z M 230.679688 146.449219 "/>
</clipPath>
<clipPath id="clip45">
  <path d="M 230.679688 146.449219 L 396.066406 146.449219 L 396.066406 576.535156 L 230.679688 576.535156 Z M 230.679688 146.449219 L 293.359375 353.917969 C 293.359375 365.398438 284.050781 374.707031 272.570312 374.707031 C 261.085938 374.707031 251.78125 365.398438 251.78125 353.917969 C 251.78125 342.433594 261.085938 333.128906 272.570312 333.128906 C 284.050781 333.128906 293.359375 342.433594 293.359375 353.917969 Z M 230.679688 146.449219 "/>
</clipPath>
<clipPath id="clip46">
  <path d="M 251 473 L 431 473 L 431 600 L 251 600 Z M 251 473 "/>
</clipPath>
<clipPath id="clip47">
  <path d="M 229.507812 336.355469 L 452.558594 336.355469 L 452.558594 753.695312 L 229.507812 753.695312 Z M 229.507812 336.355469 L 392.863281 557.351562 C 392.863281 568.832031 383.558594 578.140625 372.074219 578.140625 C 360.59375 578.140625 351.289062 568.832031 351.289062 557.351562 C 351.289062 545.871094 360.59375 536.5625 372.074219 536.5625 C 383.558594 536.5625 392.863281 545.871094 392.863281 557.351562 Z M 229.507812 336.355469 "/>
</clipPath>
<clipPath id="clip48">
  <path d="M 229.507812 336.355469 L 452.558594 336.355469 L 452.558594 753.695312 L 229.507812 753.695312 Z M 229.507812 336.355469 L 330.773438 532.695312 C 330.773438 544.175781 321.46875 553.484375 309.988281 553.484375 C 298.503906 553.484375 289.199219 544.175781 289.199219 532.695312 C 289.199219 521.214844 298.503906 511.90625 309.988281 511.90625 C 321.46875 511.90625 330.773438 521.214844 330.773438 532.695312 Z M 229.507812 336.355469 "/>
</clipPath>
<clipPath id="clip49">
  <path d="M 276 50 L 484 50 L 484 266 L 276 266 Z M 276 50 "/>
</clipPath>
<clipPath id="clip50">
  <path d="M 179.027344 -35.515625 L 580.765625 -35.515625 L 580.765625 351.140625 L 179.027344 351.140625 Z M 179.027344 -35.515625 L 355.636719 109.207031 C 355.636719 120.6875 346.332031 129.996094 334.847656 129.996094 C 323.367188 129.996094 314.058594 120.6875 314.058594 109.207031 C 314.058594 97.726562 323.367188 88.417969 334.847656 88.417969 C 346.332031 88.417969 355.636719 97.726562 355.636719 109.207031 Z M 179.027344 -35.515625 "/>
</clipPath>
<clipPath id="clip51">
  <path d="M 179.027344 -35.515625 L 580.765625 -35.515625 L 580.765625 351.140625 L 179.027344 351.140625 Z M 179.027344 -35.515625 L 445.730469 206.414062 C 445.730469 217.894531 436.421875 227.203125 424.941406 227.203125 C 413.457031 227.203125 404.152344 217.894531 404.152344 206.414062 C 404.152344 194.929688 413.457031 185.625 424.941406 185.625 C 436.421875 185.625 445.730469 194.929688 445.730469 206.414062 Z M 179.027344 -35.515625 "/>
</clipPath>
<clipPath id="clip52">
  <path d="M 323.429688 50 L 462.3125 50 L 462.3125 173 L 323.429688 173 Z M 323.429688 50 "/>
</clipPath>
<clipPath id="clip53">
  <path d="M 323.429688 -101.605469 L 462.3125 -101.605469 L 462.3125 324.101562 L 323.429688 324.101562 Z M 323.429688 -101.605469 L 355.636719 109.207031 C 355.636719 120.6875 346.332031 129.996094 334.847656 129.996094 C 323.367188 129.996094 314.058594 120.6875 314.058594 109.207031 C 314.058594 97.726562 323.367188 88.417969 334.847656 88.417969 C 346.332031 88.417969 355.636719 97.726562 355.636719 109.207031 Z M 323.429688 -101.605469 "/>
</clipPath>
<clipPath id="clip54">
  <path d="M 323.429688 -101.605469 L 462.3125 -101.605469 L 462.3125 324.101562 L 323.429688 324.101562 Z M 323.429688 -101.605469 L 471.679688 113.285156 C 471.679688 124.765625 462.375 134.074219 450.890625 134.074219 C 439.410156 134.074219 430.101562 124.765625 430.101562 113.285156 C 430.101562 101.804688 439.410156 92.496094 450.890625 92.496094 C 462.375 92.496094 471.679688 101.804688 471.679688 113.285156 Z M 323.429688 -101.605469 "/>
</clipPath>
<clipPath id="clip55">
  <path d="M 392 24 L 584 24 L 584 173 L 392 173 Z M 392 24 "/>
</clipPath>
<clipPath id="clip56">
  <path d="M 369.027344 -112.578125 L 606.929688 -112.578125 L 606.929688 309.074219 L 369.027344 309.074219 Z M 369.027344 -112.578125 L 545.851562 83.207031 C 545.851562 94.6875 536.542969 103.996094 525.0625 103.996094 C 513.578125 103.996094 504.273438 94.6875 504.273438 83.207031 C 504.273438 71.722656 513.578125 62.417969 525.0625 62.417969 C 536.542969 62.417969 545.851562 71.722656 545.851562 83.207031 Z M 369.027344 -112.578125 "/>
</clipPath>
<clipPath id="clip57">
  <path d="M 369.027344 -112.578125 L 606.929688 -112.578125 L 606.929688 309.074219 L 369.027344 309.074219 Z M 369.027344 -112.578125 L 471.679688 113.285156 C 471.679688 124.765625 462.375 134.074219 450.890625 134.074219 C 439.410156 134.074219 430.101562 124.765625 430.101562 113.285156 C 430.101562 101.804688 439.410156 92.496094 450.890625 92.496094 C 462.375 92.496094 471.679688 101.804688 471.679688 113.285156 Z M 369.027344 -112.578125 "/>
</clipPath>
<clipPath id="clip58">
  <path d="M 443 24 L 584 24 L 584 191 L 443 191 Z M 443 24 "/>
</clipPath>
<clipPath id="clip59">
  <path d="M 310.949219 -9.058594 L 716.296875 -9.058594 L 716.296875 224.0625 L 310.949219 224.0625 Z M 310.949219 -9.058594 L 545.851562 83.207031 C 545.851562 94.6875 536.542969 103.996094 525.0625 103.996094 C 513.578125 103.996094 504.273438 94.6875 504.273438 83.207031 C 504.273438 71.722656 513.578125 62.417969 525.0625 62.417969 C 536.542969 62.417969 545.851562 71.722656 545.851562 83.207031 Z M 310.949219 -9.058594 "/>
</clipPath>
<clipPath id="clip60">
  <path d="M 310.949219 -9.058594 L 716.296875 -9.058594 L 716.296875 224.0625 L 310.949219 224.0625 Z M 310.949219 -9.058594 L 522.96875 131.792969 C 522.96875 143.273438 513.660156 152.582031 502.179688 152.582031 C 490.699219 152.582031 481.390625 143.273438 481.390625 131.792969 C 481.390625 120.308594 490.699219 111.003906 502.179688 111.003906 C 513.660156 111.003906 522.96875 120.308594 522.96875 131.792969 Z M 310.949219 -9.058594 "/>
</clipPath>
<clipPath id="clip61">
  <path d="M 366 54 L 510 54 L 510 266 L 366 266 Z M 366 54 "/>
</clipPath>
<clipPath id="clip62">
  <path d="M 221.589844 53.625 L 654.246094 53.625 L 654.246094 266.078125 L 221.589844 266.078125 Z M 221.589844 53.625 L 445.730469 206.414062 C 445.730469 217.894531 436.421875 227.203125 424.941406 227.203125 C 413.457031 227.203125 404.152344 217.894531 404.152344 206.414062 C 404.152344 194.929688 413.457031 185.625 424.941406 185.625 C 436.421875 185.625 445.730469 194.929688 445.730469 206.414062 Z M 221.589844 53.625 "/>
</clipPath>
<clipPath id="clip63">
  <path d="M 221.589844 53.625 L 654.246094 53.625 L 654.246094 266.078125 L 221.589844 266.078125 Z M 221.589844 53.625 L 471.679688 113.285156 C 471.679688 124.765625 462.375 134.074219 450.890625 134.074219 C 439.410156 134.074219 430.101562 124.765625 430.101562 113.285156 C 430.101562 101.804688 439.410156 92.496094 450.890625 92.496094 C 462.375 92.496094 471.679688 101.804688 471.679688 113.285156 Z M 221.589844 53.625 "/>
</clipPath>
<clipPath id="clip64">
  <path d="M 366 165.621094 L 502 165.621094 L 502 346.074219 L 366 346.074219 Z M 366 165.621094 "/>
</clipPath>
<clipPath id="clip65">
  <path d="M 217.269531 165.621094 L 650.414062 165.621094 L 650.414062 346.074219 L 217.269531 346.074219 Z M 217.269531 165.621094 L 445.730469 206.414062 C 445.730469 217.894531 436.421875 227.203125 424.941406 227.203125 C 413.457031 227.203125 404.152344 217.894531 404.152344 206.414062 C 404.152344 194.929688 413.457031 185.625 424.941406 185.625 C 436.421875 185.625 445.730469 194.929688 445.730469 206.414062 Z M 217.269531 165.621094 "/>
</clipPath>
<clipPath id="clip66">
  <path d="M 217.269531 165.621094 L 650.414062 165.621094 L 650.414062 346.074219 L 217.269531 346.074219 Z M 217.269531 165.621094 L 463.527344 305.277344 C 463.527344 316.757812 454.21875 326.066406 442.738281 326.066406 C 431.253906 326.066406 421.949219 316.757812 421.949219 305.277344 C 421.949219 293.792969 431.253906 284.488281 442.738281 284.488281 C 454.21875 284.488281 463.527344 293.792969 463.527344 305.277344 Z M 217.269531 165.621094 "/>
</clipPath>
<clipPath id="clip67">
  <path d="M 366 72 L 561 72 L 561 266 L 366 266 Z M 366 72 "/>
</clipPath>
<clipPath id="clip68">
  <path d="M 277.109375 -21.082031 L 650.015625 -21.082031 L 650.015625 359.292969 L 277.109375 359.292969 Z M 277.109375 -21.082031 L 445.730469 206.414062 C 445.730469 217.894531 436.421875 227.203125 424.941406 227.203125 C 413.457031 227.203125 404.152344 217.894531 404.152344 206.414062 C 404.152344 194.929688 413.457031 185.625 424.941406 185.625 C 436.421875 185.625 445.730469 194.929688 445.730469 206.414062 Z M 277.109375 -21.082031 "/>
</clipPath>
<clipPath id="clip69">
  <path d="M 277.109375 -21.082031 L 650.015625 -21.082031 L 650.015625 359.292969 L 277.109375 359.292969 Z M 277.109375 -21.082031 L 522.96875 131.792969 C 522.96875 143.273438 513.660156 152.582031 502.179688 152.582031 C 490.699219 152.582031 481.390625 143.273438 481.390625 131.792969 C 481.390625 120.308594 490.699219 111.003906 502.179688 111.003906 C 513.660156 111.003906 522.96875 120.308594 522.96875 131.792969 Z M 277.109375 -21.082031 "/>
</clipPath>
<clipPath id="clip70">
  <path d="M 392 54 L 561 54 L 561 191 L 392 191 Z M 392 54 "/>
</clipPath>
<clipPath id="clip71">
  <path d="M 376.546875 -85.378906 L 576.527344 -85.378906 L 576.527344 330.460938 L 376.546875 330.460938 Z M 376.546875 -85.378906 L 471.679688 113.285156 C 471.679688 124.765625 462.375 134.074219 450.890625 134.074219 C 439.410156 134.074219 430.101562 124.765625 430.101562 113.285156 C 430.101562 101.804688 439.410156 92.496094 450.890625 92.496094 C 462.375 92.496094 471.679688 101.804688 471.679688 113.285156 Z M 376.546875 -85.378906 "/>
</clipPath>
<clipPath id="clip72">
  <path d="M 376.546875 -85.378906 L 576.527344 -85.378906 L 576.527344 330.460938 L 376.546875 330.460938 Z M 376.546875 -85.378906 L 522.96875 131.792969 C 522.96875 143.273438 513.660156 152.582031 502.179688 152.582031 C 490.699219 152.582031 481.390625 143.273438 481.390625 131.792969 C 481.390625 120.308594 490.699219 111.003906 502.179688 111.003906 C 513.660156 111.003906 522.96875 120.308594 522.96875 131.792969 Z M 376.546875 -85.378906 "/>
</clipPath>
</defs>
<g id="surface176">
<g clip-path="url(#clip1)" clip-rule="nonzero">
<g clip-path="url(#clip2)" clip-rule="evenodd">
<g clip-path="url(#clip3)" clip-rule="evenodd">
<path style="fill:none;stroke-width:0.0201067;stroke-linecap:butt;stroke-linejoin:miter;stroke:rgb(17.96875%,20.3125%,21.09375%);stroke-opacity:0.8;stroke-miterlimit:10;" d="M 1.117128 1.551848 L 1.523744 1.371502 " transform="matrix(206.784875,0,0,206.784875,-156.067697,-197.445651)"/>
</g>
</g>
</g>
<g clip-path="url(#clip4)" clip-rule="nonzero">
<g clip-path="url(#clip5)" clip-rule="evenodd">
<g clip-path="url(#clip6)" clip-rule="evenodd">
<path style="fill:none;stroke-width:0.0201067;stroke-linecap:butt;stroke-linejoin:miter;stroke:rgb(17.96875%,20.3125%,21.09375%);stroke-opacity:0.8;stroke-miterlimit:10;" d="M 1.117128 1.551848 L 1.193578 1.357409 " transform="matrix(206.784875,0,0,206.784875,-156.067697,-197.445651)"/>
</g>
</g>
</g>
<g clip-path="url(#clip7)" clip-rule="nonzero">
<g clip-path="url(#clip8)" clip-rule="evenodd">
<g clip-path="url(#clip9)" clip-rule="evenodd">
<path style="fill:none;stroke-width:0.0201067;stroke-linecap:butt;stroke-linejoin:miter;stroke:rgb(17.96875%,20.3125%,21.09375%);stroke-opacity:0.8;stroke-miterlimit:10;" d="M 1.523744 1.371502 L 1.305465 1.161081 " transform="matrix(206.784875,0,0,206.784875,-156.067697,-197.445651)"/>
</g>
</g>
</g>
<g clip-path="url(#clip10)" clip-rule="nonzero">
<g clip-path="url(#clip11)" clip-rule="evenodd">
<g clip-path="url(#clip12)" clip-rule="evenodd">
<path style="fill:none;stroke-width:0.0201067;stroke-linecap:butt;stroke-linejoin:miter;stroke:rgb(17.96875%,20.3125%,21.09375%);stroke-opacity:0.8;stroke-miterlimit:10;" d="M 1.523744 1.371502 L 1.193578 1.357409 " transform="matrix(206.784875,0,0,206.784875,-156.067697,-197.445651)"/>
</g>
</g>
</g>
<g clip-path="url(#clip13)" clip-rule="nonzero">
<g clip-path="url(#clip14)" clip-rule="evenodd">
<g clip-path="url(#clip15)" clip-rule="evenodd">
<path style="fill:none;stroke-width:0.0201067;stroke-linecap:butt;stroke-linejoin:miter;stroke:rgb(17.96875%,20.3125%,21.09375%);stroke-opacity:0.8;stroke-miterlimit:10;" d="M 1.523744 1.371502 L 2.374039 1.482955 " transform="matrix(206.784875,0,0,206.784875,-156.067697,-197.445651)"/>
</g>
</g>
</g>
<g clip-path="url(#clip16)" clip-rule="nonzero">
<g clip-path="url(#clip17)" clip-rule="evenodd">
<g clip-path="url(#clip18)" clip-rule="evenodd">
<path style="fill:none;stroke-width:0.0201067;stroke-linecap:butt;stroke-linejoin:miter;stroke:rgb(17.96875%,20.3125%,21.09375%);stroke-opacity:0.8;stroke-miterlimit:10;" d="M 1.305465 1.161081 L 1.193578 1.357409 " transform="matrix(206.784875,0,0,206.784875,-156.067697,-197.445651)"/>
</g>
</g>
</g>
<g clip-path="url(#clip19)" clip-rule="nonzero">
<g clip-path="url(#clip20)" clip-rule="evenodd">
<g clip-path="url(#clip21)" clip-rule="evenodd">
<path style="fill:none;stroke-width:0.0201067;stroke-linecap:butt;stroke-linejoin:miter;stroke:rgb(17.96875%,20.3125%,21.09375%);stroke-opacity:0.8;stroke-miterlimit:10;" d="M 2.545299 3.350158 L 2.46749 2.739601 " transform="matrix(206.784875,0,0,206.784875,-156.067697,-197.445651)"/>
</g>
</g>
</g>
<g clip-path="url(#clip22)" clip-rule="nonzero">
<g clip-path="url(#clip23)" clip-rule="evenodd">
<g clip-path="url(#clip24)" clip-rule="evenodd">
<path style="fill:none;stroke-width:0.0201067;stroke-linecap:butt;stroke-linejoin:miter;stroke:rgb(17.96875%,20.3125%,21.09375%);stroke-opacity:0.8;stroke-miterlimit:10;" d="M 2.545299 3.350158 L 2.554065 3.650157 " transform="matrix(206.784875,0,0,206.784875,-156.067697,-197.445651)"/>
</g>
</g>
</g>
<g clip-path="url(#clip25)" clip-rule="nonzero">
<g clip-path="url(#clip26)" clip-rule="evenodd">
<g clip-path="url(#clip27)" clip-rule="evenodd">
<path style="fill:none;stroke-width:0.0201067;stroke-linecap:butt;stroke-linejoin:miter;stroke:rgb(17.96875%,20.3125%,21.09375%);stroke-opacity:0.8;stroke-miterlimit:10;" d="M 2.545299 3.350158 L 2.25382 3.530921 " transform="matrix(206.784875,0,0,206.784875,-156.067697,-197.445651)"/>
</g>
</g>
</g>
<g clip-path="url(#clip28)" clip-rule="nonzero">
<g clip-path="url(#clip29)" clip-rule="evenodd">
<g clip-path="url(#clip30)" clip-rule="evenodd">
<path style="fill:none;stroke-width:0.0201067;stroke-linecap:butt;stroke-linejoin:miter;stroke:rgb(17.96875%,20.3125%,21.09375%);stroke-opacity:0.8;stroke-miterlimit:10;" d="M 1.8517 3.229751 L 2.46749 2.739601 " transform="matrix(206.784875,0,0,206.784875,-156.067697,-197.445651)"/>
</g>
</g>
</g>
<g clip-path="url(#clip31)" clip-rule="nonzero">
<g clip-path="url(#clip32)" clip-rule="evenodd">
<g clip-path="url(#clip33)" clip-rule="evenodd">
<path style="fill:none;stroke-width:0.0201067;stroke-linecap:butt;stroke-linejoin:miter;stroke:rgb(17.96875%,20.3125%,21.09375%);stroke-opacity:0.8;stroke-miterlimit:10;" d="M 1.8517 3.229751 L 1.308847 3.25888 " transform="matrix(206.784875,0,0,206.784875,-156.067697,-197.445651)"/>
</g>
</g>
</g>
<g clip-path="url(#clip34)" clip-rule="nonzero">
<g clip-path="url(#clip35)" clip-rule="evenodd">
<g clip-path="url(#clip36)" clip-rule="evenodd">
<path style="fill:none;stroke-width:0.0201067;stroke-linecap:butt;stroke-linejoin:miter;stroke:rgb(17.96875%,20.3125%,21.09375%);stroke-opacity:0.8;stroke-miterlimit:10;" d="M 1.8517 3.229751 L 2.25382 3.530921 " transform="matrix(206.784875,0,0,206.784875,-156.067697,-197.445651)"/>
</g>
</g>
</g>
<g clip-path="url(#clip37)" clip-rule="nonzero">
<g clip-path="url(#clip38)" clip-rule="evenodd">
<g clip-path="url(#clip39)" clip-rule="evenodd">
<path style="fill:none;stroke-width:0.0201067;stroke-linecap:butt;stroke-linejoin:miter;stroke:rgb(17.96875%,20.3125%,21.09375%);stroke-opacity:0.8;stroke-miterlimit:10;" d="M 2.46749 2.739601 L 2.809727 1.953043 " transform="matrix(206.784875,0,0,206.784875,-156.067697,-197.445651)"/>
</g>
</g>
</g>
<g clip-path="url(#clip40)" clip-rule="nonzero">
<g clip-path="url(#clip41)" clip-rule="evenodd">
<g clip-path="url(#clip42)" clip-rule="evenodd">
<path style="fill:none;stroke-width:0.0201067;stroke-linecap:butt;stroke-linejoin:miter;stroke:rgb(17.96875%,20.3125%,21.09375%);stroke-opacity:0.8;stroke-miterlimit:10;" d="M 2.46749 2.739601 L 2.895792 2.43114 " transform="matrix(206.784875,0,0,206.784875,-156.067697,-197.445651)"/>
</g>
</g>
</g>
<g clip-path="url(#clip43)" clip-rule="nonzero">
<g clip-path="url(#clip44)" clip-rule="evenodd">
<g clip-path="url(#clip45)" clip-rule="evenodd">
<path style="fill:none;stroke-width:0.0201067;stroke-linecap:butt;stroke-linejoin:miter;stroke:rgb(17.96875%,20.3125%,21.09375%);stroke-opacity:0.8;stroke-miterlimit:10;" d="M 2.46749 2.739601 L 2.072869 2.666363 " transform="matrix(206.784875,0,0,206.784875,-156.067697,-197.445651)"/>
</g>
</g>
</g>
<g clip-path="url(#clip46)" clip-rule="nonzero">
<g clip-path="url(#clip47)" clip-rule="evenodd">
<g clip-path="url(#clip48)" clip-rule="evenodd">
<path style="fill:none;stroke-width:0.0201067;stroke-linecap:butt;stroke-linejoin:miter;stroke:rgb(17.96875%,20.3125%,21.09375%);stroke-opacity:0.8;stroke-miterlimit:10;" d="M 2.554065 3.650157 L 2.25382 3.530921 " transform="matrix(206.784875,0,0,206.784875,-156.067697,-197.445651)"/>
</g>
</g>
</g>
<g clip-path="url(#clip49)" clip-rule="nonzero">
<g clip-path="url(#clip50)" clip-rule="evenodd">
<g clip-path="url(#clip51)" clip-rule="evenodd">
<path style="fill:none;stroke-width:0.0201067;stroke-linecap:butt;stroke-linejoin:miter;stroke:rgb(17.96875%,20.3125%,21.09375%);stroke-opacity:0.8;stroke-miterlimit:10;" d="M 2.374039 1.482955 L 2.809727 1.953043 " transform="matrix(206.784875,0,0,206.784875,-156.067697,-197.445651)"/>
</g>
</g>
</g>
<g clip-path="url(#clip52)" clip-rule="nonzero">
<g clip-path="url(#clip53)" clip-rule="evenodd">
<g clip-path="url(#clip54)" clip-rule="evenodd">
<path style="fill:none;stroke-width:0.0201067;stroke-linecap:butt;stroke-linejoin:miter;stroke:rgb(17.96875%,20.3125%,21.09375%);stroke-opacity:0.8;stroke-miterlimit:10;" d="M 2.374039 1.482955 L 2.935216 1.502677 " transform="matrix(206.784875,0,0,206.784875,-156.067697,-197.445651)"/>
</g>
</g>
</g>
<g clip-path="url(#clip55)" clip-rule="nonzero">
<g clip-path="url(#clip56)" clip-rule="evenodd">
<g clip-path="url(#clip57)" clip-rule="evenodd">
<path style="fill:none;stroke-width:0.0201067;stroke-linecap:butt;stroke-linejoin:miter;stroke:rgb(17.96875%,20.3125%,21.09375%);stroke-opacity:0.8;stroke-miterlimit:10;" d="M 3.293907 1.357221 L 2.935216 1.502677 " transform="matrix(206.784875,0,0,206.784875,-156.067697,-197.445651)"/>
</g>
</g>
</g>
<g clip-path="url(#clip58)" clip-rule="nonzero">
<g clip-path="url(#clip59)" clip-rule="evenodd">
<g clip-path="url(#clip60)" clip-rule="evenodd">
<path style="fill:none;stroke-width:0.0201067;stroke-linecap:butt;stroke-linejoin:miter;stroke:rgb(17.96875%,20.3125%,21.09375%);stroke-opacity:0.8;stroke-miterlimit:10;" d="M 3.293907 1.357221 L 3.183247 1.592179 " transform="matrix(206.784875,0,0,206.784875,-156.067697,-197.445651)"/>
</g>
</g>
</g>
<g clip-path="url(#clip61)" clip-rule="nonzero">
<g clip-path="url(#clip62)" clip-rule="evenodd">
<g clip-path="url(#clip63)" clip-rule="evenodd">
<path style="fill:none;stroke-width:0.0201067;stroke-linecap:butt;stroke-linejoin:miter;stroke:rgb(17.96875%,20.3125%,21.09375%);stroke-opacity:0.8;stroke-miterlimit:10;" d="M 2.809727 1.953043 L 2.935216 1.502677 " transform="matrix(206.784875,0,0,206.784875,-156.067697,-197.445651)"/>
</g>
</g>
</g>
<g clip-path="url(#clip64)" clip-rule="nonzero">
<g clip-path="url(#clip65)" clip-rule="evenodd">
<g clip-path="url(#clip66)" clip-rule="evenodd">
<path style="fill:none;stroke-width:0.0201067;stroke-linecap:butt;stroke-linejoin:miter;stroke:rgb(17.96875%,20.3125%,21.09375%);stroke-opacity:0.8;stroke-miterlimit:10;" d="M 2.809727 1.953043 L 2.895792 2.43114 " transform="matrix(206.784875,0,0,206.784875,-156.067697,-197.445651)"/>
</g>
</g>
</g>
<g clip-path="url(#clip67)" clip-rule="nonzero">
<g clip-path="url(#clip68)" clip-rule="evenodd">
<g clip-path="url(#clip69)" clip-rule="evenodd">
<path style="fill:none;stroke-width:0.0201067;stroke-linecap:butt;stroke-linejoin:miter;stroke:rgb(17.96875%,20.3125%,21.09375%);stroke-opacity:0.8;stroke-miterlimit:10;" d="M 2.809727 1.953043 L 3.183247 1.592179 " transform="matrix(206.784875,0,0,206.784875,-156.067697,-197.445651)"/>
</g>
</g>
</g>
<g clip-path="url(#clip70)" clip-rule="nonzero">
<g clip-path="url(#clip71)" clip-rule="evenodd">
<g clip-path="url(#clip72)" clip-rule="evenodd">
<path style="fill:none;stroke-width:0.0201067;stroke-linecap:butt;stroke-linejoin:miter;stroke:rgb(17.96875%,20.3125%,21.09375%);stroke-opacity:0.8;stroke-miterlimit:10;" d="M 2.935216 1.502677 L 3.183247 1.592179 " transform="matrix(206.784875,0,0,206.784875,-156.067697,-197.445651)"/>
</g>
</g>
</g>
<path style="fill-rule:nonzero;fill:rgb(55.294118%,82.745098%,78.039216%);fill-opacity:1;stroke-width:0.0201067;stroke-linecap:butt;stroke-linejoin:miter;stroke:rgb(60%,60%,60%);stroke-opacity:0.8;stroke-miterlimit:10;" d="M 0.100527 -0.00000766716 C 0.100527 0.0555301 0.0555299 0.100527 -0.00000787572 0.100527 C -0.0555268 0.100527 -0.100543 0.0555301 -0.100543 -0.00000766716 C -0.100543 -0.0555266 -0.0555268 -0.100542 -0.00000787572 -0.100542 C 0.0555299 -0.100542 0.100527 -0.0555266 0.100527 -0.00000766716 Z M 0.100527 -0.00000766716 " transform="matrix(206.784875,0,0,206.784875,74.939129,123.45471)"/>
<path style="fill-rule:nonzero;fill:rgb(55.294118%,82.745098%,78.039216%);fill-opacity:1;stroke-width:0.0201067;stroke-linecap:butt;stroke-linejoin:miter;stroke:rgb(60%,60%,60%);stroke-opacity:0.8;stroke-miterlimit:10;" d="M 0.100531 0.00000361888 C 0.100531 0.0555225 0.0555153 0.100538 -0.00000359877 0.100538 C -0.0555225 0.100538 -0.100538 0.0555225 -0.100538 0.00000361888 C -0.100538 -0.0555153 -0.0555225 -0.100531 -0.00000359877 -0.100531 C 0.0555153 -0.100531 0.100531 -0.0555153 0.100531 0.00000361888 Z M 0.100531 0.00000361888 " transform="matrix(206.784875,0,0,206.784875,159.020275,86.159408)"/>
<path style="fill-rule:nonzero;fill:rgb(55.294118%,82.745098%,78.039216%);fill-opacity:1;stroke-width:0.0201067;stroke-linecap:butt;stroke-linejoin:miter;stroke:rgb(60%,60%,60%);stroke-opacity:0.8;stroke-miterlimit:10;" d="M 0.10053 -0.00000301644 C 0.10053 0.0555159 0.055514 0.100532 -0.00000490454 0.100532 C -0.0555238 0.100532 -0.10054 0.0555159 -0.10054 -0.00000301644 C -0.10054 -0.0555219 -0.0555238 -0.100538 -0.00000490454 -0.100538 C 0.055514 -0.100538 0.10053 -0.0555219 0.10053 -0.00000301644 Z M 0.10053 -0.00000301644 " transform="matrix(206.784875,0,0,206.784875,113.883827,42.649061)"/>
<path style="fill-rule:nonzero;fill:rgb(55.294118%,82.745098%,78.039216%);fill-opacity:1;stroke-width:0.0201067;stroke-linecap:butt;stroke-linejoin:miter;stroke:rgb(60%,60%,60%);stroke-opacity:0.8;stroke-miterlimit:10;" d="M 0.100537 -0.00000443475 C 0.100537 0.0555145 0.0555207 0.10053 0.00000179815 0.10053 C -0.0555171 0.10053 -0.100533 0.0555145 -0.100533 -0.00000443475 C -0.100533 -0.0555233 -0.0555171 -0.100539 0.00000179815 -0.100539 C 0.0555207 -0.100539 0.100537 -0.0555233 0.100537 -0.00000443475 Z M 0.100537 -0.00000443475 " transform="matrix(206.784875,0,0,206.784875,90.745722,83.247011)"/>
<path style="fill-rule:nonzero;fill:rgb(100%,92.941176%,43.529412%);fill-opacity:1;stroke-width:0.0201067;stroke-linecap:butt;stroke-linejoin:miter;stroke:rgb(60%,60%,60%);stroke-opacity:0.8;stroke-miterlimit:10;" d="M 0.100535 -0.0000019374 C 0.100535 0.055517 0.0555187 0.100533 -0.000000230992 0.100533 C -0.0555191 0.100533 -0.100535 0.055517 -0.100535 -0.0000019374 C -0.100535 -0.0555208 -0.0555191 -0.100537 -0.000000230992 -0.100537 C 0.0555187 -0.100537 0.100535 -0.0555208 0.100535 -0.0000019374 Z M 0.100535 -0.0000019374 " transform="matrix(206.784875,0,0,206.784875,370.261767,495.316807)"/>
<path style="fill-rule:nonzero;fill:rgb(55.294118%,82.745098%,78.039216%);fill-opacity:1;stroke-width:0.0201067;stroke-linecap:butt;stroke-linejoin:miter;stroke:rgb(60%,60%,60%);stroke-opacity:0.8;stroke-miterlimit:10;" d="M 0.100531 -0.00000654427 C 0.100531 0.0555312 0.0555155 0.100528 -0.00000337432 0.100528 C -0.0555223 0.100528 -0.100538 0.0555312 -0.100538 -0.00000654427 C -0.100538 -0.0555254 -0.0555223 -0.100541 -0.00000337432 -0.100541 C 0.0555155 -0.100541 0.100531 -0.0555254 0.100531 -0.00000654427 Z M 0.100531 -0.00000654427 " transform="matrix(206.784875,0,0,206.784875,226.836635,470.419322)"/>
<path style="fill-rule:nonzero;fill:rgb(55.294118%,82.745098%,78.039216%);fill-opacity:1;stroke-width:0.0201067;stroke-linecap:butt;stroke-linejoin:miter;stroke:rgb(60%,60%,60%);stroke-opacity:0.8;stroke-miterlimit:10;" d="M 0.100534 0.00000427028 C 0.100534 0.0555232 0.0555183 0.100539 -0.00000062063 0.100539 C -0.0555195 0.100539 -0.100535 0.0555232 -0.100535 0.00000427028 C -0.100535 -0.0555146 -0.0555195 -0.10053 -0.00000062063 -0.10053 C 0.0555183 -0.10053 0.100534 -0.0555146 0.100534 0.00000427028 Z M 0.100534 0.00000427028 " transform="matrix(206.784875,0,0,206.784875,354.172003,369.061617)"/>
<path style="fill-rule:nonzero;fill:rgb(100%,92.941176%,43.529412%);fill-opacity:1;stroke-width:0.0201067;stroke-linecap:butt;stroke-linejoin:miter;stroke:rgb(60%,60%,60%);stroke-opacity:0.8;stroke-miterlimit:10;" d="M 0.100526 0.00000301644 C 0.100526 0.0555219 0.0555293 0.100538 -0.00000850247 0.100538 C -0.0555274 0.100538 -0.100524 0.0555219 -0.100524 0.00000301644 C -0.100524 -0.0555159 -0.0555274 -0.100532 -0.00000850247 -0.100532 C 0.0555293 -0.100532 0.100526 -0.0555159 0.100526 0.00000301644 Z M 0.100526 0.00000301644 " transform="matrix(206.784875,0,0,206.784875,372.075977,557.350939)"/>
<path style="fill-rule:nonzero;fill:rgb(55.294118%,82.745098%,78.039216%);fill-opacity:1;stroke-width:0.0201067;stroke-linecap:butt;stroke-linejoin:miter;stroke:rgb(60%,60%,60%);stroke-opacity:0.8;stroke-miterlimit:10;" d="M 0.100537 -0.00000940502 C 0.100537 0.0555284 0.0555213 0.100525 0.00000243873 0.100525 C -0.0555165 0.100525 -0.100532 0.0555284 -0.100532 -0.00000940502 C -0.100532 -0.0555283 -0.0555165 -0.100525 0.00000243873 -0.100525 C 0.0555213 -0.100525 0.100537 -0.0555283 0.100537 -0.00000940502 Z M 0.100537 -0.00000940502 " transform="matrix(206.784875,0,0,206.784875,114.581527,476.443351)"/>
<path style="fill-rule:nonzero;fill:rgb(100%,92.941176%,43.529412%);fill-opacity:1;stroke-width:0.0201067;stroke-linecap:butt;stroke-linejoin:miter;stroke:rgb(60%,60%,60%);stroke-opacity:0.8;stroke-miterlimit:10;" d="M 0.100524 -0.00000142378 C 0.100524 0.0555175 0.055527 0.100533 0.00000805556 0.100533 C -0.0555297 0.100533 -0.100527 0.0555175 -0.100527 -0.00000142378 C -0.100527 -0.0555203 -0.0555297 -0.100536 0.00000805556 -0.100536 C 0.055527 -0.100536 0.100524 -0.0555203 0.100524 -0.00000142378 Z M 0.100524 -0.00000142378 " transform="matrix(206.784875,0,0,206.784875,309.986615,532.695607)"/>
<path style="fill-rule:nonzero;fill:rgb(55.294118%,82.745098%,78.039216%);fill-opacity:1;stroke-width:0.0201067;stroke-linecap:butt;stroke-linejoin:miter;stroke:rgb(60%,60%,60%);stroke-opacity:0.8;stroke-miterlimit:10;" d="M 0.100528 -0.00000214618 C 0.100528 0.0555168 0.0555307 0.100533 -0.0000070841 0.100533 C -0.055526 0.100533 -0.100542 0.0555168 -0.100542 -0.00000214618 C -0.100542 -0.055521 -0.055526 -0.100537 -0.0000070841 -0.100537 C 0.0555307 -0.100537 0.100528 -0.055521 0.100528 -0.00000214618 Z M 0.100528 -0.00000214618 " transform="matrix(206.784875,0,0,206.784875,334.849121,109.207475)"/>
<path style="fill-rule:nonzero;fill:rgb(55.294118%,82.745098%,78.039216%);fill-opacity:1;stroke-width:0.0201067;stroke-linecap:butt;stroke-linejoin:miter;stroke:rgb(60%,60%,60%);stroke-opacity:0.8;stroke-miterlimit:10;" d="M 0.100543 0.0000058718 C 0.100543 0.0555248 0.0555268 0.100541 0.00000787572 0.100541 C -0.0555299 0.100541 -0.100527 0.0555248 -0.100527 0.0000058718 C -0.100527 -0.0555319 -0.0555299 -0.100529 0.00000787572 -0.100529 C 0.0555268 -0.100529 0.100543 -0.0555319 0.100543 0.0000058718 Z M 0.100543 0.0000058718 " transform="matrix(206.784875,0,0,206.784875,525.060871,83.205817)"/>
<path style="fill-rule:nonzero;fill:rgb(55.294118%,82.745098%,78.039216%);fill-opacity:1;stroke-width:0.0201067;stroke-linecap:butt;stroke-linejoin:miter;stroke:rgb(60%,60%,60%);stroke-opacity:0.8;stroke-miterlimit:10;" d="M 0.100541 0.00000742285 C 0.100541 0.0555263 0.0555257 0.100542 0.00000675648 0.100542 C -0.055531 0.100542 -0.100528 0.0555263 -0.100528 0.00000742285 C -0.100528 -0.0555304 -0.055531 -0.100527 0.00000675648 -0.100527 C 0.0555257 -0.100527 0.100541 -0.0555304 0.100541 0.00000742285 Z M 0.100541 0.00000742285 " transform="matrix(206.784875,0,0,206.784875,424.940009,206.412528)"/>
<path style="fill-rule:nonzero;fill:rgb(55.294118%,82.745098%,78.039216%);fill-opacity:1;stroke-width:0.0201067;stroke-linecap:butt;stroke-linejoin:miter;stroke:rgb(60%,60%,60%);stroke-opacity:0.8;stroke-miterlimit:10;" d="M 0.100528 0.00000328109 C 0.100528 0.0555222 0.0555311 0.100538 -0.00000666189 0.100538 C -0.0555256 0.100538 -0.100541 0.0555222 -0.100541 0.00000328109 C -0.100541 -0.0555156 -0.0555256 -0.100531 -0.00000666189 -0.100531 C 0.0555311 -0.100531 0.100528 -0.0555156 0.100528 0.00000328109 Z M 0.100528 0.00000328109 " transform="matrix(206.784875,0,0,206.784875,450.892003,113.284478)"/>
<path style="fill-rule:nonzero;fill:rgb(55.294118%,82.745098%,78.039216%);fill-opacity:1;stroke-width:0.0201067;stroke-linecap:butt;stroke-linejoin:miter;stroke:rgb(60%,60%,60%);stroke-opacity:0.8;stroke-miterlimit:10;" d="M 0.100543 0.00000661537 C 0.100543 0.0555255 0.0555268 0.100541 0.00000794619 0.100541 C -0.0555298 0.100541 -0.100527 0.0555255 -0.100527 0.00000661537 C -0.100527 -0.0555312 -0.0555298 -0.100528 0.00000794619 -0.100528 C 0.0555268 -0.100528 0.100543 -0.0555312 0.100543 0.00000661537 Z M 0.100543 0.00000661537 " transform="matrix(206.784875,0,0,206.784875,442.736638,305.275976)"/>
<path style="fill-rule:nonzero;fill:rgb(55.294118%,82.745098%,78.039216%);fill-opacity:1;stroke-width:0.0201067;stroke-linecap:butt;stroke-linejoin:miter;stroke:rgb(60%,60%,60%);stroke-opacity:0.8;stroke-miterlimit:10;" d="M 0.100541 0.00000593393 C 0.100541 0.0555248 0.0555251 0.100541 0.00000619031 0.100541 C -0.0555316 0.100541 -0.100529 0.0555248 -0.100529 0.00000593393 C -0.100529 -0.0555319 -0.0555316 -0.100529 0.00000619031 -0.100529 C 0.0555251 -0.100529 0.100541 -0.0555319 0.100541 0.00000593393 Z M 0.100541 0.00000593393 " transform="matrix(206.784875,0,0,206.784875,272.569032,353.916742)"/>
<path style="fill-rule:nonzero;fill:rgb(55.294118%,82.745098%,78.039216%);fill-opacity:1;stroke-width:0.0201067;stroke-linecap:butt;stroke-linejoin:miter;stroke:rgb(60%,60%,60%);stroke-opacity:0.8;stroke-miterlimit:10;" d="M 0.10054 0.00000602988 C 0.10054 0.0555249 0.0555239 0.100541 0.00000499215 0.100541 C -0.0555139 0.100541 -0.10053 0.0555249 -0.10053 0.00000602988 C -0.10053 -0.0555318 -0.0555139 -0.100529 0.00000499215 -0.100529 C 0.0555239 -0.100529 0.10054 -0.0555318 0.10054 0.00000602988 Z M 0.10054 0.00000602988 " transform="matrix(206.784875,0,0,206.784875,502.178655,131.791722)"/>
</g>
</svg>
