<?xml version="1.0" encoding="UTF-8"?>
<svg xmlns="http://www.w3.org/2000/svg" xmlns:xlink="http://www.w3.org/1999/xlink" width="600pt" height="600pt" viewBox="0 0 600 600" version="1.1">
<defs>
<clipPath id="clip1">
  <path d="M 118 83 L 300 83 L 300 300 L 118 300 Z M 118 83 "/>
</clipPath>
<clipPath id="clip2">
  <path d="M 30.238281 44.875 L 388.070312 44.875 L 388.070312 338.785156 L 30.238281 338.785156 Z M 30.238281 44.875 L 196.320312 242.78125 C 196.320312 253.9375 187.277344 262.984375 176.117188 262.984375 C 164.960938 262.984375 155.914062 253.9375 155.914062 242.78125 C 155.914062 231.625 164.960938 222.578125 176.117188 222.578125 C 187.277344 222.578125 196.320312 231.625 196.320312 242.78125 Z M 30.238281 44.875 "/>
</clipPath>
<clipPath id="clip3">
  <path d="M 30.238281 44.875 L 388.070312 44.875 L 388.070312 338.785156 L 30.238281 338.785156 Z M 30.238281 44.875 L 262.390625 140.875 C 262.390625 152.03125 253.34375 161.078125 242.1875 161.078125 C 231.027344 161.078125 221.984375 152.03125 221.984375 140.875 C 221.984375 129.714844 231.027344 120.671875 242.1875 120.671875 C 253.34375 120.671875 262.390625 129.714844 262.390625 140.875 Z M 30.238281 44.875 "/>
</clipPath>
<clipPath id="clip4">
  <path d="M 71.917969 177 L 196.328125 177 L 196.328125 300 L 71.917969 300 Z M 71.917969 177 "/>
</clipPath>
<clipPath id="clip5">
  <path d="M 71.917969 62.40625 L 196.328125 62.40625 L 196.328125 415.089844 L 71.917969 415.089844 Z M 71.917969 62.40625 L 196.320312 242.78125 C 196.320312 253.9375 187.277344 262.984375 176.117188 262.984375 C 164.960938 262.984375 155.914062 253.9375 155.914062 242.78125 C 155.914062 231.625 164.960938 222.578125 176.117188 222.578125 C 187.277344 222.578125 196.320312 231.625 196.320312 242.78125 Z M 71.917969 62.40625 "/>
</clipPath>
<clipPath id="clip6">
  <path d="M 71.917969 62.40625 L 196.328125 62.40625 L 196.328125 415.089844 L 71.917969 415.089844 Z M 71.917969 62.40625 L 112.328125 234.710938 C 112.328125 245.867188 103.28125 254.914062 92.125 254.914062 C 80.964844 254.914062 71.921875 245.867188 71.921875 234.710938 C 71.921875 223.550781 80.964844 214.507812 92.125 214.507812 C 103.28125 214.507812 112.328125 223.550781 112.328125 234.710938 Z M 71.917969 62.40625 "/>
</clipPath>
<clipPath id="clip7">
  <path d="M 118 189.839844 L 271 189.839844 L 271 417.34375 L 118 417.34375 Z M 118 189.839844 "/>
</clipPath>
<clipPath id="clip8">
  <path d="M 10.261719 189.839844 L 378.730469 189.839844 L 378.730469 417.34375 L 10.261719 417.34375 Z M 10.261719 189.839844 L 196.320312 242.78125 C 196.320312 253.9375 187.277344 262.984375 176.117188 262.984375 C 164.960938 262.984375 155.914062 253.9375 155.914062 242.78125 C 155.914062 231.625 164.960938 222.578125 176.117188 222.578125 C 187.277344 222.578125 196.320312 231.625 196.320312 242.78125 Z M 10.261719 189.839844 "/>
</clipPath>
<clipPath id="clip9">
  <path d="M 10.261719 189.839844 L 378.730469 189.839844 L 378.730469 417.34375 L 10.261719 417.34375 Z M 10.261719 189.839844 L 233.074219 364.398438 C 233.074219 375.554688 224.027344 384.601562 212.871094 384.601562 C 201.714844 384.601562 192.667969 375.554688 192.667969 364.398438 C 192.667969 353.238281 201.714844 344.195312 212.871094 344.195312 C 224.027344 344.195312 233.074219 353.238281 233.074219 364.398438 Z M 10.261719 189.839844 "/>
</clipPath>
<clipPath id="clip10">
  <path d="M 149 29 L 300 29 L 300 199 L 149 199 Z M 149 29 "/>
</clipPath>
<clipPath id="clip11">
  <path d="M 61.175781 -9.871094 L 387.757812 -9.871094 L 387.757812 237.359375 L 61.175781 237.359375 Z M 61.175781 -9.871094 L 226.945312 86.609375 C 226.945312 97.769531 217.902344 106.8125 206.742188 106.8125 C 195.585938 106.8125 186.539062 97.769531 186.539062 86.609375 C 186.539062 75.453125 195.585938 66.40625 206.742188 66.40625 C 217.902344 66.40625 226.945312 75.453125 226.945312 86.609375 Z M 61.175781 -9.871094 "/>
</clipPath>
<clipPath id="clip12">
  <path d="M 61.175781 -9.871094 L 387.757812 -9.871094 L 387.757812 237.359375 L 61.175781 237.359375 Z M 61.175781 -9.871094 L 262.390625 140.875 C 262.390625 152.03125 253.34375 161.078125 242.1875 161.078125 C 231.027344 161.078125 221.984375 152.03125 221.984375 140.875 C 221.984375 129.714844 231.027344 120.671875 242.1875 120.671875 C 253.34375 120.671875 262.390625 129.714844 262.390625 140.875 Z M 61.175781 -9.871094 "/>
</clipPath>
<clipPath id="clip13">
  <path d="M 198.320312 56 L 397.359375 56 L 397.359375 199 L 198.320312 199 Z M 198.320312 56 "/>
</clipPath>
<clipPath id="clip14">
  <path d="M 198.320312 -54.429688 L 397.359375 -54.429688 L 397.359375 309.199219 L 198.320312 309.199219 Z M 198.320312 -54.429688 L 262.390625 140.875 C 262.390625 152.03125 253.34375 161.078125 242.1875 161.078125 C 231.027344 161.078125 221.984375 152.03125 221.984375 140.875 C 221.984375 129.714844 231.027344 120.671875 242.1875 120.671875 C 253.34375 120.671875 262.390625 129.714844 262.390625 140.875 Z M 198.320312 -54.429688 "/>
</clipPath>
<clipPath id="clip15">
  <path d="M 198.320312 -54.429688 L 397.359375 -54.429688 L 397.359375 309.199219 L 198.320312 309.199219 Z M 198.320312 -54.429688 L 373.691406 113.890625 C 373.691406 125.050781 364.644531 134.09375 353.488281 134.09375 C 342.328125 134.09375 333.285156 125.050781 333.285156 113.890625 C 333.285156 102.734375 342.328125 93.6875 353.488281 93.6875 C 364.644531 93.6875 373.691406 102.734375 373.691406 113.890625 Z M 198.320312 -54.429688 "/>
</clipPath>
<clipPath id="clip16">
  <path d="M 448 154 L 599 154 L 599 334 L 448 334 Z M 448 154 "/>
</clipPath>
<clipPath id="clip17">
  <path d="M 353.816406 125.214844 L 692.859375 125.214844 L 692.859375 363.453125 L 353.816406 363.453125 Z M 353.816406 125.214844 L 561.664062 276.574219 C 561.664062 287.730469 552.621094 296.777344 541.460938 296.777344 C 530.304688 296.777344 521.257812 287.730469 521.257812 276.574219 C 521.257812 265.414062 530.304688 256.371094 541.460938 256.371094 C 552.621094 256.371094 561.664062 265.414062 561.664062 276.574219 Z M 353.816406 125.214844 "/>
</clipPath>
<clipPath id="clip18">
  <path d="M 353.816406 125.214844 L 692.859375 125.214844 L 692.859375 363.453125 L 353.816406 363.453125 Z M 353.816406 125.214844 L 525.414062 212.089844 C 525.414062 223.246094 516.371094 232.292969 505.210938 232.292969 C 494.054688 232.292969 485.007812 223.246094 485.007812 212.089844 C 485.007812 200.933594 494.054688 191.886719 505.210938 191.886719 C 516.371094 191.886719 525.414062 200.933594 525.414062 212.089844 Z M 353.816406 125.214844 "/>
</clipPath>
<clipPath id="clip19">
  <path d="M 484 220.214844 L 600 220.214844 L 600 384.144531 L 484 384.144531 Z M 484 220.214844 "/>
</clipPath>
<clipPath id="clip20">
  <path d="M 376.679688 220.214844 L 722.914062 220.214844 L 722.914062 384.144531 L 376.679688 384.144531 Z M 376.679688 220.214844 L 561.664062 276.574219 C 561.664062 287.730469 552.621094 296.777344 541.460938 296.777344 C 530.304688 296.777344 521.257812 287.730469 521.257812 276.574219 C 521.257812 265.414062 530.304688 256.371094 541.460938 256.371094 C 552.621094 256.371094 561.664062 265.414062 561.664062 276.574219 Z M 376.679688 220.214844 "/>
</clipPath>
<clipPath id="clip21">
  <path d="M 376.679688 220.214844 L 722.914062 220.214844 L 722.914062 384.144531 L 376.679688 384.144531 Z M 376.679688 220.214844 L 578.332031 327.78125 C 578.332031 338.9375 569.289062 347.984375 558.128906 347.984375 C 546.972656 347.984375 537.925781 338.9375 537.925781 327.78125 C 537.925781 316.621094 546.972656 307.578125 558.128906 307.578125 C 569.289062 307.578125 578.332031 316.621094 578.332031 327.78125 Z M 376.679688 220.214844 "/>
</clipPath>
<clipPath id="clip22">
  <path d="M 386 98 L 563 98 L 563 270 L 386 270 Z M 386 98 "/>
</clipPath>
<clipPath id="clip23">
  <path d="M 324.890625 26.917969 L 623.871094 26.917969 L 623.871094 340.382812 L 324.890625 340.382812 Z M 324.890625 26.917969 L 525.414062 212.089844 C 525.414062 223.246094 516.371094 232.292969 505.210938 232.292969 C 494.054688 232.292969 485.007812 223.246094 485.007812 212.089844 C 485.007812 200.933594 494.054688 191.886719 505.210938 191.886719 C 516.371094 191.886719 525.414062 200.933594 525.414062 212.089844 Z M 324.890625 26.917969 "/>
</clipPath>
<clipPath id="clip24">
  <path d="M 324.890625 26.917969 L 623.871094 26.917969 L 623.871094 340.382812 L 324.890625 340.382812 Z M 324.890625 26.917969 L 463.746094 155.207031 C 463.746094 166.367188 454.703125 175.410156 443.546875 175.410156 C 432.386719 175.410156 423.34375 166.367188 423.34375 155.207031 C 423.34375 144.050781 432.386719 135.003906 443.546875 135.003906 C 454.703125 135.003906 463.746094 144.050781 463.746094 155.207031 Z M 324.890625 26.917969 "/>
</clipPath>
<clipPath id="clip25">
  <path d="M 296 56 L 501 56 L 501 213 L 296 213 Z M 296 56 "/>
</clipPath>
<clipPath id="clip26">
  <path d="M 278.960938 -43.792969 L 518.078125 -43.792969 L 518.078125 312.894531 L 278.960938 312.894531 Z M 278.960938 -43.792969 L 373.691406 113.890625 C 373.691406 125.050781 364.644531 134.09375 353.488281 134.09375 C 342.328125 134.09375 333.285156 125.050781 333.285156 113.890625 C 333.285156 102.734375 342.328125 93.6875 353.488281 93.6875 C 364.644531 93.6875 373.691406 102.734375 373.691406 113.890625 Z M 278.960938 -43.792969 "/>
</clipPath>
<clipPath id="clip27">
  <path d="M 278.960938 -43.792969 L 518.078125 -43.792969 L 518.078125 312.894531 L 278.960938 312.894531 Z M 278.960938 -43.792969 L 463.746094 155.207031 C 463.746094 166.367188 454.703125 175.410156 443.546875 175.410156 C 432.386719 175.410156 423.34375 166.367188 423.34375 155.207031 C 423.34375 144.050781 432.386719 135.003906 443.546875 135.003906 C 454.703125 135.003906 463.746094 144.050781 463.746094 155.207031 Z M 278.960938 -43.792969 "/>
</clipPath>
<clipPath id="clip28">
  <path d="M 296 13.042969 L 425 13.042969 L 425 160.367188 L 296 160.367188 Z M 296 13.042969 "/>
</clipPath>
<clipPath id="clip29">
  <path d="M 185.820312 13.042969 L 535.261719 13.042969 L 535.261719 160.367188 L 185.820312 160.367188 Z M 185.820312 13.042969 L 373.691406 113.890625 C 373.691406 125.050781 364.644531 134.09375 353.488281 134.09375 C 342.328125 134.09375 333.285156 125.050781 333.285156 113.890625 C 333.285156 102.734375 342.328125 93.6875 353.488281 93.6875 C 364.644531 93.6875 373.691406 102.734375 373.691406 113.890625 Z M 185.820312 13.042969 "/>
</clipPath>
<clipPath id="clip30">
  <path d="M 185.820312 13.042969 L 535.261719 13.042969 L 535.261719 160.367188 L 185.820312 160.367188 Z M 185.820312 13.042969 L 387.792969 59.515625 C 387.792969 70.675781 378.746094 79.71875 367.589844 79.71875 C 356.433594 79.71875 347.386719 70.675781 347.386719 59.515625 C 347.386719 48.359375 356.433594 39.3125 367.589844 39.3125 C 378.746094 39.3125 387.792969 48.359375 387.792969 59.515625 Z M 185.820312 13.042969 "/>
</clipPath>
<clipPath id="clip31">
  <path d="M 34.089844 177 L 99.910156 177 L 99.910156 293 L 34.089844 293 Z M 34.089844 177 "/>
</clipPath>
<clipPath id="clip32">
  <path d="M 34.089844 61.671875 L 99.910156 61.671875 L 99.910156 408.867188 L 34.089844 408.867188 Z M 34.089844 61.671875 L 62.074219 235.824219 C 62.074219 246.984375 53.027344 256.027344 41.871094 256.027344 C 30.710938 256.027344 21.667969 246.984375 21.667969 235.824219 C 21.667969 224.667969 30.710938 215.621094 41.871094 215.621094 C 53.027344 215.621094 62.074219 224.667969 62.074219 235.824219 Z M 34.089844 61.671875 "/>
</clipPath>
<clipPath id="clip33">
  <path d="M 34.089844 61.671875 L 99.910156 61.671875 L 99.910156 408.867188 L 34.089844 408.867188 Z M 34.089844 61.671875 L 112.328125 234.710938 C 112.328125 245.867188 103.28125 254.914062 92.125 254.914062 C 80.964844 254.914062 71.921875 245.867188 71.921875 234.710938 C 71.921875 223.550781 80.964844 214.507812 92.125 214.507812 C 103.28125 214.507812 112.328125 223.550781 112.328125 234.710938 Z M 34.089844 61.671875 "/>
</clipPath>
<clipPath id="clip34">
  <path d="M 155 307 L 346 307 L 346 457 L 155 457 Z M 155 307 "/>
</clipPath>
<clipPath id="clip35">
  <path d="M 137.546875 207.082031 L 363.429688 207.082031 L 363.429688 556.707031 L 137.546875 556.707031 Z M 137.546875 207.082031 L 233.074219 364.398438 C 233.074219 375.554688 224.027344 384.601562 212.871094 384.601562 C 201.714844 384.601562 192.667969 375.554688 192.667969 364.398438 C 192.667969 353.238281 201.714844 344.195312 212.871094 344.195312 C 224.027344 344.195312 233.074219 353.238281 233.074219 364.398438 Z M 137.546875 207.082031 "/>
</clipPath>
<clipPath id="clip36">
  <path d="M 137.546875 207.082031 L 363.429688 207.082031 L 363.429688 556.707031 L 137.546875 556.707031 Z M 137.546875 207.082031 L 308.304688 399.386719 C 308.304688 410.542969 299.257812 419.589844 288.101562 419.589844 C 276.945312 419.589844 267.898438 410.542969 267.898438 399.386719 C 267.898438 388.226562 276.945312 379.183594 288.101562 379.183594 C 299.257812 379.183594 308.304688 388.226562 308.304688 399.386719 Z M 137.546875 207.082031 "/>
</clipPath>
<clipPath id="clip37">
  <path d="M 155 359.148438 L 271 359.148438 L 271 471.628906 L 155 471.628906 Z M 155 359.148438 "/>
</clipPath>
<clipPath id="clip38">
  <path d="M 39.792969 359.148438 L 386.683594 359.148438 L 386.683594 471.628906 L 39.792969 471.628906 Z M 39.792969 359.148438 L 233.074219 364.398438 C 233.074219 375.554688 224.027344 384.601562 212.871094 384.601562 C 201.714844 384.601562 192.667969 375.554688 192.667969 364.398438 C 192.667969 353.238281 201.714844 344.195312 212.871094 344.195312 C 224.027344 344.195312 233.074219 353.238281 233.074219 364.398438 Z M 39.792969 359.148438 "/>
</clipPath>
<clipPath id="clip39">
  <path d="M 39.792969 359.148438 L 386.683594 359.148438 L 386.683594 471.628906 L 39.792969 471.628906 Z M 39.792969 359.148438 L 233.800781 466.375 C 233.800781 477.53125 224.757812 486.578125 213.601562 486.578125 C 202.441406 486.578125 193.398438 477.53125 193.398438 466.375 C 193.398438 455.21875 202.441406 446.171875 213.601562 446.171875 C 224.757812 446.171875 233.800781 455.21875 233.800781 466.375 Z M 39.792969 359.148438 "/>
</clipPath>
<clipPath id="clip40">
  <path d="M 258 449 L 437 449 L 437 598 L 258 598 Z M 258 449 "/>
</clipPath>
<clipPath id="clip41">
  <path d="M 232.488281 353.207031 L 463.253906 353.207031 L 463.253906 693.769531 L 232.488281 693.769531 Z M 232.488281 353.207031 L 400.027344 540.484375 C 400.027344 551.640625 390.980469 560.6875 379.824219 560.6875 C 368.664062 560.6875 359.621094 551.640625 359.621094 540.484375 C 359.621094 529.324219 368.664062 520.28125 379.824219 520.28125 C 390.980469 520.28125 400.027344 529.324219 400.027344 540.484375 Z M 232.488281 353.207031 "/>
</clipPath>
<clipPath id="clip42">
  <path d="M 232.488281 353.207031 L 463.253906 353.207031 L 463.253906 693.769531 L 232.488281 693.769531 Z M 232.488281 353.207031 L 336.117188 506.488281 C 336.117188 517.648438 327.070312 526.691406 315.914062 526.691406 C 304.753906 526.691406 295.710938 517.648438 295.710938 506.488281 C 295.710938 495.332031 304.753906 486.285156 315.914062 486.285156 C 327.070312 486.285156 336.117188 495.332031 336.117188 506.488281 Z M 232.488281 353.207031 "/>
</clipPath>
<clipPath id="clip43">
  <path d="M 258 397 L 394 397 L 394 564 L 258 564 Z M 258 397 "/>
</clipPath>
<clipPath id="clip44">
  <path d="M 154.214844 389.648438 L 497.660156 389.648438 L 497.660156 571.515625 L 154.214844 571.515625 Z M 154.214844 389.648438 L 356.160156 454.671875 C 356.160156 465.832031 347.113281 474.875 335.957031 474.875 C 324.796875 474.875 315.753906 465.832031 315.753906 454.671875 C 315.753906 443.515625 324.796875 434.46875 335.957031 434.46875 C 347.113281 434.46875 356.160156 443.515625 356.160156 454.671875 Z M 154.214844 389.648438 "/>
</clipPath>
<clipPath id="clip45">
  <path d="M 154.214844 389.648438 L 497.660156 389.648438 L 497.660156 571.515625 L 154.214844 571.515625 Z M 154.214844 389.648438 L 336.117188 506.488281 C 336.117188 517.648438 327.070312 526.691406 315.914062 526.691406 C 304.753906 526.691406 295.710938 517.648438 295.710938 506.488281 C 295.710938 495.332031 304.753906 486.285156 315.914062 486.285156 C 327.070312 486.285156 336.117188 495.332031 336.117188 506.488281 Z M 154.214844 389.648438 "/>
</clipPath>
<clipPath id="clip46">
  <path d="M 230 342 L 394 342 L 394 512 L 230 512 Z M 230 342 "/>
</clipPath>
<clipPath id="clip47">
  <path d="M 156.253906 284.714844 L 467.808594 284.714844 L 467.808594 569.347656 L 156.253906 569.347656 Z M 156.253906 284.714844 L 356.160156 454.671875 C 356.160156 465.832031 347.113281 474.875 335.957031 474.875 C 324.796875 474.875 315.753906 465.832031 315.753906 454.671875 C 315.753906 443.515625 324.796875 434.46875 335.957031 434.46875 C 347.113281 434.46875 356.160156 443.515625 356.160156 454.671875 Z M 156.253906 284.714844 "/>
</clipPath>
<clipPath id="clip48">
  <path d="M 156.253906 284.714844 L 467.808594 284.714844 L 467.808594 569.347656 L 156.253906 569.347656 Z M 156.253906 284.714844 L 308.304688 399.386719 C 308.304688 410.542969 299.257812 419.589844 288.101562 419.589844 C 276.945312 419.589844 267.898438 410.542969 267.898438 399.386719 C 267.898438 388.226562 276.945312 379.183594 288.101562 379.183594 C 299.257812 379.183594 308.304688 388.226562 308.304688 399.386719 Z M 156.253906 284.714844 "/>
</clipPath>
<clipPath id="clip49">
  <path d="M 156 409 L 374 409 L 374 564 L 156 564 Z M 156 409 "/>
</clipPath>
<clipPath id="clip50">
  <path d="M 147.859375 304.957031 L 381.660156 304.957031 L 381.660156 667.910156 L 147.859375 667.910156 Z M 147.859375 304.957031 L 336.117188 506.488281 C 336.117188 517.648438 327.070312 526.691406 315.914062 526.691406 C 304.753906 526.691406 295.710938 517.648438 295.710938 506.488281 C 295.710938 495.332031 304.753906 486.285156 315.914062 486.285156 C 327.070312 486.285156 336.117188 495.332031 336.117188 506.488281 Z M 147.859375 304.957031 "/>
</clipPath>
<clipPath id="clip51">
  <path d="M 147.859375 304.957031 L 381.660156 304.957031 L 381.660156 667.910156 L 147.859375 667.910156 Z M 147.859375 304.957031 L 233.800781 466.375 C 233.800781 477.53125 224.757812 486.578125 213.601562 486.578125 C 202.441406 486.578125 193.398438 477.53125 193.398438 466.375 C 193.398438 455.21875 202.441406 446.171875 213.601562 446.171875 C 224.757812 446.171875 233.800781 455.21875 233.800781 466.375 Z M 147.859375 304.957031 "/>
</clipPath>
<clipPath id="clip52">
  <path d="M 93 409 L 271 409 L 271 551 L 93 551 Z M 93 409 "/>
</clipPath>
<clipPath id="clip53">
  <path d="M 79.359375 307.039062 L 284.414062 307.039062 L 284.414062 652.988281 L 79.359375 652.988281 Z M 79.359375 307.039062 L 170.371094 493.648438 C 170.371094 504.804688 161.324219 513.851562 150.167969 513.851562 C 139.011719 513.851562 129.964844 504.804688 129.964844 493.648438 C 129.964844 482.488281 139.011719 473.445312 150.167969 473.445312 C 161.324219 473.445312 170.371094 482.488281 170.371094 493.648438 Z M 79.359375 307.039062 "/>
</clipPath>
<clipPath id="clip54">
  <path d="M 79.359375 307.039062 L 284.414062 307.039062 L 284.414062 652.988281 L 79.359375 652.988281 Z M 79.359375 307.039062 L 233.800781 466.375 C 233.800781 477.53125 224.757812 486.578125 213.601562 486.578125 C 202.441406 486.578125 193.398438 477.53125 193.398438 466.375 C 193.398438 455.21875 202.441406 446.171875 213.601562 446.171875 C 224.757812 446.171875 233.800781 455.21875 233.800781 466.375 Z M 79.359375 307.039062 "/>
</clipPath>
</defs>
<g id="surface136">
<g clip-path="url(#clip1)" clip-rule="nonzero">
<g clip-path="url(#clip2)" clip-rule="evenodd">
<g clip-path="url(#clip3)" clip-rule="evenodd">
<path style="fill:none;stroke-width:0.0239029;stroke-linecap:butt;stroke-linejoin:miter;stroke:rgb(17.96875%,20.3125%,21.09375%);stroke-opacity:0.8;stroke-miterlimit:10;" d="M 1.652543 1.801919 L 2.043393 1.199075 " transform="matrix(169.042439,0,0,169.042439,-103.2327,-61.819499)"/>
</g>
</g>
</g>
<g clip-path="url(#clip4)" clip-rule="nonzero">
<g clip-path="url(#clip5)" clip-rule="evenodd">
<g clip-path="url(#clip6)" clip-rule="evenodd">
<path style="fill:none;stroke-width:0.0239029;stroke-linecap:butt;stroke-linejoin:miter;stroke:rgb(17.96875%,20.3125%,21.09375%);stroke-opacity:0.8;stroke-miterlimit:10;" d="M 1.652543 1.801919 L 1.155673 1.754177 " transform="matrix(169.042439,0,0,169.042439,-103.2327,-61.819499)"/>
</g>
</g>
</g>
<g clip-path="url(#clip7)" clip-rule="nonzero">
<g clip-path="url(#clip8)" clip-rule="evenodd">
<g clip-path="url(#clip9)" clip-rule="evenodd">
<path style="fill:none;stroke-width:0.0239029;stroke-linecap:butt;stroke-linejoin:miter;stroke:rgb(17.96875%,20.3125%,21.09375%);stroke-opacity:0.8;stroke-miterlimit:10;" d="M 1.652543 1.801919 L 1.869967 2.521366 " transform="matrix(169.042439,0,0,169.042439,-103.2327,-61.819499)"/>
</g>
</g>
</g>
<g clip-path="url(#clip10)" clip-rule="nonzero">
<g clip-path="url(#clip11)" clip-rule="evenodd">
<g clip-path="url(#clip12)" clip-rule="evenodd">
<path style="fill:none;stroke-width:0.0239029;stroke-linecap:butt;stroke-linejoin:miter;stroke:rgb(17.96875%,20.3125%,21.09375%);stroke-opacity:0.8;stroke-miterlimit:10;" d="M 1.83371 0.878057 L 2.043393 1.199075 " transform="matrix(169.042439,0,0,169.042439,-103.2327,-61.819499)"/>
</g>
</g>
</g>
<g clip-path="url(#clip13)" clip-rule="nonzero">
<g clip-path="url(#clip14)" clip-rule="evenodd">
<g clip-path="url(#clip15)" clip-rule="evenodd">
<path style="fill:none;stroke-width:0.0239029;stroke-linecap:butt;stroke-linejoin:miter;stroke:rgb(17.96875%,20.3125%,21.09375%);stroke-opacity:0.8;stroke-miterlimit:10;" d="M 2.043393 1.199075 L 2.701813 1.039444 " transform="matrix(169.042439,0,0,169.042439,-103.2327,-61.819499)"/>
</g>
</g>
</g>
<g clip-path="url(#clip16)" clip-rule="nonzero">
<g clip-path="url(#clip17)" clip-rule="evenodd">
<g clip-path="url(#clip18)" clip-rule="evenodd">
<path style="fill:none;stroke-width:0.0239029;stroke-linecap:butt;stroke-linejoin:miter;stroke:rgb(17.96875%,20.3125%,21.09375%);stroke-opacity:0.8;stroke-miterlimit:10;" d="M 3.813798 2.001827 L 3.599354 1.620358 " transform="matrix(169.042439,0,0,169.042439,-103.2327,-61.819499)"/>
</g>
</g>
</g>
<g clip-path="url(#clip19)" clip-rule="nonzero">
<g clip-path="url(#clip20)" clip-rule="evenodd">
<g clip-path="url(#clip21)" clip-rule="evenodd">
<path style="fill:none;stroke-width:0.0239029;stroke-linecap:butt;stroke-linejoin:miter;stroke:rgb(17.96875%,20.3125%,21.09375%);stroke-opacity:0.8;stroke-miterlimit:10;" d="M 3.813798 2.001827 L 3.9124 2.304751 " transform="matrix(169.042439,0,0,169.042439,-103.2327,-61.819499)"/>
</g>
</g>
</g>
<g clip-path="url(#clip22)" clip-rule="nonzero">
<g clip-path="url(#clip23)" clip-rule="evenodd">
<g clip-path="url(#clip24)" clip-rule="evenodd">
<path style="fill:none;stroke-width:0.0239029;stroke-linecap:butt;stroke-linejoin:miter;stroke:rgb(17.96875%,20.3125%,21.09375%);stroke-opacity:0.8;stroke-miterlimit:10;" d="M 3.599354 1.620358 L 3.23457 1.283858 " transform="matrix(169.042439,0,0,169.042439,-103.2327,-61.819499)"/>
</g>
</g>
</g>
<g clip-path="url(#clip25)" clip-rule="nonzero">
<g clip-path="url(#clip26)" clip-rule="evenodd">
<g clip-path="url(#clip27)" clip-rule="evenodd">
<path style="fill:none;stroke-width:0.0239029;stroke-linecap:butt;stroke-linejoin:miter;stroke:rgb(17.96875%,20.3125%,21.09375%);stroke-opacity:0.8;stroke-miterlimit:10;" d="M 2.701813 1.039444 L 3.23457 1.283858 " transform="matrix(169.042439,0,0,169.042439,-103.2327,-61.819499)"/>
</g>
</g>
</g>
<g clip-path="url(#clip28)" clip-rule="nonzero">
<g clip-path="url(#clip29)" clip-rule="evenodd">
<g clip-path="url(#clip30)" clip-rule="evenodd">
<path style="fill:none;stroke-width:0.0239029;stroke-linecap:butt;stroke-linejoin:miter;stroke:rgb(17.96875%,20.3125%,21.09375%);stroke-opacity:0.8;stroke-miterlimit:10;" d="M 2.701813 1.039444 L 2.785233 0.717779 " transform="matrix(169.042439,0,0,169.042439,-103.2327,-61.819499)"/>
</g>
</g>
</g>
<g clip-path="url(#clip31)" clip-rule="nonzero">
<g clip-path="url(#clip32)" clip-rule="evenodd">
<g clip-path="url(#clip33)" clip-rule="evenodd">
<path style="fill:none;stroke-width:0.0239029;stroke-linecap:butt;stroke-linejoin:miter;stroke:rgb(17.96875%,20.3125%,21.09375%);stroke-opacity:0.8;stroke-miterlimit:10;" d="M 0.858387 1.760763 L 1.155673 1.754177 " transform="matrix(169.042439,0,0,169.042439,-103.2327,-61.819499)"/>
</g>
</g>
</g>
<g clip-path="url(#clip34)" clip-rule="nonzero">
<g clip-path="url(#clip35)" clip-rule="evenodd">
<g clip-path="url(#clip36)" clip-rule="evenodd">
<path style="fill:none;stroke-width:0.0239029;stroke-linecap:butt;stroke-linejoin:miter;stroke:rgb(17.96875%,20.3125%,21.09375%);stroke-opacity:0.8;stroke-miterlimit:10;" d="M 1.869967 2.521366 L 2.315006 2.728346 " transform="matrix(169.042439,0,0,169.042439,-103.2327,-61.819499)"/>
</g>
</g>
</g>
<g clip-path="url(#clip37)" clip-rule="nonzero">
<g clip-path="url(#clip38)" clip-rule="evenodd">
<g clip-path="url(#clip39)" clip-rule="evenodd">
<path style="fill:none;stroke-width:0.0239029;stroke-linecap:butt;stroke-linejoin:miter;stroke:rgb(17.96875%,20.3125%,21.09375%);stroke-opacity:0.8;stroke-miterlimit:10;" d="M 1.869967 2.521366 L 1.874288 3.124627 " transform="matrix(169.042439,0,0,169.042439,-103.2327,-61.819499)"/>
</g>
</g>
</g>
<g clip-path="url(#clip40)" clip-rule="nonzero">
<g clip-path="url(#clip41)" clip-rule="evenodd">
<g clip-path="url(#clip42)" clip-rule="evenodd">
<path style="fill:none;stroke-width:0.0239029;stroke-linecap:butt;stroke-linejoin:miter;stroke:rgb(17.96875%,20.3125%,21.09375%);stroke-opacity:0.8;stroke-miterlimit:10;" d="M 2.857607 3.563034 L 2.479536 3.361924 " transform="matrix(169.042439,0,0,169.042439,-103.2327,-61.819499)"/>
</g>
</g>
</g>
<g clip-path="url(#clip43)" clip-rule="nonzero">
<g clip-path="url(#clip44)" clip-rule="evenodd">
<g clip-path="url(#clip45)" clip-rule="evenodd">
<path style="fill:none;stroke-width:0.0239029;stroke-linecap:butt;stroke-linejoin:miter;stroke:rgb(17.96875%,20.3125%,21.09375%);stroke-opacity:0.8;stroke-miterlimit:10;" d="M 2.598103 3.055395 L 2.479536 3.361924 " transform="matrix(169.042439,0,0,169.042439,-103.2327,-61.819499)"/>
</g>
</g>
</g>
<g clip-path="url(#clip46)" clip-rule="nonzero">
<g clip-path="url(#clip47)" clip-rule="evenodd">
<g clip-path="url(#clip48)" clip-rule="evenodd">
<path style="fill:none;stroke-width:0.0239029;stroke-linecap:butt;stroke-linejoin:miter;stroke:rgb(17.96875%,20.3125%,21.09375%);stroke-opacity:0.8;stroke-miterlimit:10;" d="M 2.598103 3.055395 L 2.315006 2.728346 " transform="matrix(169.042439,0,0,169.042439,-103.2327,-61.819499)"/>
</g>
</g>
</g>
<g clip-path="url(#clip49)" clip-rule="nonzero">
<g clip-path="url(#clip50)" clip-rule="evenodd">
<g clip-path="url(#clip51)" clip-rule="evenodd">
<path style="fill:none;stroke-width:0.0239029;stroke-linecap:butt;stroke-linejoin:miter;stroke:rgb(17.96875%,20.3125%,21.09375%);stroke-opacity:0.8;stroke-miterlimit:10;" d="M 2.479536 3.361924 L 1.874288 3.124627 " transform="matrix(169.042439,0,0,169.042439,-103.2327,-61.819499)"/>
</g>
</g>
</g>
<g clip-path="url(#clip52)" clip-rule="nonzero">
<g clip-path="url(#clip53)" clip-rule="evenodd">
<g clip-path="url(#clip54)" clip-rule="evenodd">
<path style="fill:none;stroke-width:0.0239029;stroke-linecap:butt;stroke-linejoin:miter;stroke:rgb(17.96875%,20.3125%,21.09375%);stroke-opacity:0.8;stroke-miterlimit:10;" d="M 1.499036 3.285967 L 1.874288 3.124627 " transform="matrix(169.042439,0,0,169.042439,-103.2327,-61.819499)"/>
</g>
</g>
</g>
<path style="fill-rule:nonzero;fill:rgb(100%,92.941176%,43.529412%);fill-opacity:1;stroke-width:0.0239029;stroke-linecap:butt;stroke-linejoin:miter;stroke:rgb(60%,60%,60%);stroke-opacity:0.8;stroke-miterlimit:10;" d="M 0.119506 -0.00000149721 C 0.119506 0.0659952 0.0660112 0.119514 -0.00000866263 0.119514 C -0.0660054 0.119514 -0.119524 0.0659952 -0.119524 -0.00000149721 C -0.119524 -0.0659982 -0.0660054 -0.119517 -0.00000866263 -0.119517 C 0.0660112 -0.119517 0.119506 -0.0659982 0.119506 -0.00000149721 Z M 0.119506 -0.00000149721 " transform="matrix(169.042439,0,0,169.042439,176.118652,242.781503)"/>
<path style="fill-rule:nonzero;fill:rgb(55.294118%,82.745098%,78.039216%);fill-opacity:1;stroke-width:0.0239029;stroke-linecap:butt;stroke-linejoin:miter;stroke:rgb(60%,60%,60%);stroke-opacity:0.8;stroke-miterlimit:10;" d="M 0.119504 -0.000008111 C 0.119504 0.0660117 0.066009 0.119507 -0.0000108188 0.119507 C -0.0660076 0.119507 -0.119526 0.0660117 -0.119526 -0.000008111 C -0.119526 -0.0660049 -0.0660076 -0.119523 -0.0000108188 -0.119523 C 0.066009 -0.119523 0.119504 -0.0660049 0.119504 -0.000008111 Z M 0.119504 -0.000008111 " transform="matrix(169.042439,0,0,169.042439,206.744016,86.610746)"/>
<path style="fill-rule:nonzero;fill:rgb(55.294118%,82.745098%,78.039216%);fill-opacity:1;stroke-width:0.0239029;stroke-linecap:butt;stroke-linejoin:miter;stroke:rgb(60%,60%,60%);stroke-opacity:0.8;stroke-miterlimit:10;" d="M 0.119519 0.0000051395 C 0.119519 0.0660019 0.0660002 0.11952 0.00000348693 0.11952 C -0.0660164 0.11952 -0.119512 0.0660019 -0.119512 0.0000051395 C -0.119512 -0.0660147 -0.0660164 -0.11951 0.00000348693 -0.11951 C 0.0660002 -0.11951 0.119519 -0.0660147 0.119519 0.0000051395 Z M 0.119519 0.0000051395 " transform="matrix(169.042439,0,0,169.042439,242.186911,140.874131)"/>
<path style="fill-rule:nonzero;fill:rgb(55.294118%,82.745098%,78.039216%);fill-opacity:1;stroke-width:0.0239029;stroke-linecap:butt;stroke-linejoin:miter;stroke:rgb(60%,60%,60%);stroke-opacity:0.8;stroke-miterlimit:10;" d="M 0.11951 0.00000501632 C 0.11951 0.0660018 0.0660146 0.11952 -0.00000528139 0.11952 C -0.066002 0.11952 -0.11952 0.0660018 -0.11952 0.00000501632 C -0.11952 -0.0660148 -0.066002 -0.11951 -0.00000528139 -0.11951 C 0.0660146 -0.11951 0.11951 -0.0660148 0.11951 0.00000501632 Z M 0.11951 0.00000501632 " transform="matrix(169.042439,0,0,169.042439,541.46183,276.573371)"/>
<path style="fill-rule:nonzero;fill:rgb(55.294118%,82.745098%,78.039216%);fill-opacity:1;stroke-width:0.0239029;stroke-linecap:butt;stroke-linejoin:miter;stroke:rgb(60%,60%,60%);stroke-opacity:0.8;stroke-miterlimit:10;" d="M 0.119507 0.00000176079 C 0.119507 0.0659985 0.0660119 0.119517 -0.0000079785 0.119517 C -0.0660047 0.119517 -0.119523 0.0659985 -0.119523 0.00000176079 C -0.119523 -0.065995 -0.0660047 -0.119513 -0.0000079785 -0.119513 C 0.0660119 -0.119513 0.119507 -0.065995 0.119507 0.00000176079 Z M 0.119507 0.00000176079 " transform="matrix(169.042439,0,0,169.042439,505.212286,212.089546)"/>
<path style="fill-rule:nonzero;fill:rgb(55.294118%,82.745098%,78.039216%);fill-opacity:1;stroke-width:0.0239029;stroke-linecap:butt;stroke-linejoin:miter;stroke:rgb(60%,60%,60%);stroke-opacity:0.8;stroke-miterlimit:10;" d="M 0.11952 -0.00000620014 C 0.11952 0.0660136 0.0660018 0.119509 0.00000501157 0.119509 C -0.0660148 0.119509 -0.11951 0.0660136 -0.11951 -0.00000620014 C -0.11951 -0.0660029 -0.0660148 -0.119521 0.00000501157 -0.119521 C 0.0660018 -0.119521 0.11952 -0.0660029 0.11952 -0.00000620014 Z M 0.11952 -0.00000620014 " transform="matrix(169.042439,0,0,169.042439,353.487434,113.891673)"/>
<path style="fill-rule:nonzero;fill:rgb(55.294118%,82.745098%,78.039216%);fill-opacity:1;stroke-width:0.0239029;stroke-linecap:butt;stroke-linejoin:miter;stroke:rgb(60%,60%,60%);stroke-opacity:0.8;stroke-miterlimit:10;" d="M 0.119503 -0.00000944911 C 0.119503 0.0660104 0.0660082 0.119506 0.00001145 0.119506 C -0.0660084 0.119506 -0.119504 0.0660104 -0.119504 -0.00000944911 C -0.119504 -0.0660062 -0.0660084 -0.119525 0.00001145 -0.119525 C 0.0660082 -0.119525 0.119503 -0.0660062 0.119503 -0.00000944911 Z M 0.119503 -0.00000944911 " transform="matrix(169.042439,0,0,169.042439,443.544939,155.208629)"/>
<path style="fill-rule:nonzero;fill:rgb(55.294118%,82.745098%,78.039216%);fill-opacity:1;stroke-width:0.0239029;stroke-linecap:butt;stroke-linejoin:miter;stroke:rgb(60%,60%,60%);stroke-opacity:0.8;stroke-miterlimit:10;" d="M 0.119517 -0.00000254378 C 0.119517 0.0660173 0.0659985 0.119513 0.00000180766 0.119513 C -0.0659949 0.119513 -0.119513 0.0660173 -0.119513 -0.00000254378 C -0.119513 -0.0659993 -0.0659949 -0.119518 0.00000180766 -0.119518 C 0.0659985 -0.119518 0.119517 -0.0659993 0.119517 -0.00000254378 Z M 0.119517 -0.00000254378 " transform="matrix(169.042439,0,0,169.042439,367.589538,59.516055)"/>
<path style="fill-rule:nonzero;fill:rgb(55.294118%,82.745098%,78.039216%);fill-opacity:1;stroke-width:0.0239029;stroke-linecap:butt;stroke-linejoin:miter;stroke:rgb(60%,60%,60%);stroke-opacity:0.8;stroke-miterlimit:10;" d="M 0.119509 0.00000328319 C 0.119509 0.066 0.0660137 0.119518 -0.00000612902 0.119518 C -0.0660029 0.119518 -0.119521 0.066 -0.119521 0.00000328319 C -0.119521 -0.0660166 -0.0660029 -0.119512 -0.00000612902 -0.119512 C 0.0660137 -0.119512 0.119509 -0.0660166 0.119509 0.00000328319 Z M 0.119509 0.00000328319 " transform="matrix(169.042439,0,0,169.042439,558.129942,327.780695)"/>
<path style="fill-rule:nonzero;fill:rgb(100%,92.941176%,43.529412%);fill-opacity:1;stroke-width:0.0239029;stroke-linecap:butt;stroke-linejoin:miter;stroke:rgb(60%,60%,60%);stroke-opacity:0.8;stroke-miterlimit:10;" d="M 0.119521 -0.0000109511 C 0.119521 0.0660089 0.0660029 0.119504 0.00000612902 0.119504 C -0.0660137 0.119504 -0.119509 0.0660089 -0.119509 -0.0000109511 C -0.119509 -0.0660077 -0.0660137 -0.119526 0.00000612902 -0.119526 C 0.0660029 -0.119526 0.119521 -0.0660077 0.119521 -0.0000109511 Z M 0.119521 -0.0000109511 " transform="matrix(169.042439,0,0,169.042439,41.870058,235.82607)"/>
<path style="fill-rule:nonzero;fill:rgb(100%,92.941176%,43.529412%);fill-opacity:1;stroke-width:0.0239029;stroke-linecap:butt;stroke-linejoin:miter;stroke:rgb(60%,60%,60%);stroke-opacity:0.8;stroke-miterlimit:10;" d="M 0.119522 0.00000979299 C 0.119522 0.0660065 0.0660032 0.119525 0.00000650473 0.119525 C -0.0660133 0.119525 -0.119509 0.0660065 -0.119509 0.00000979299 C -0.119509 -0.0660101 -0.0660133 -0.119505 0.00000650473 -0.119505 C 0.0660032 -0.119505 0.119522 -0.0660101 0.119522 0.00000979299 Z M 0.119522 0.00000979299 " transform="matrix(169.042439,0,0,169.042439,92.1239,234.709282)"/>
<path style="fill-rule:nonzero;fill:rgb(100%,92.941176%,43.529412%);fill-opacity:1;stroke-width:0.0239029;stroke-linecap:butt;stroke-linejoin:miter;stroke:rgb(60%,60%,60%);stroke-opacity:0.8;stroke-miterlimit:10;" d="M 0.119517 0.00000600196 C 0.119517 0.0660027 0.0659986 0.119521 0.00000183466 0.119521 C -0.0659949 0.119521 -0.119513 0.0660027 -0.119513 0.00000600196 C -0.119513 -0.0660138 -0.0659949 -0.119509 0.00000183466 -0.119509 C 0.0659986 -0.119509 0.119517 -0.0660138 0.119517 0.00000600196 Z M 0.119517 0.00000600196 " transform="matrix(169.042439,0,0,169.042439,212.870784,364.397423)"/>
<path style="fill-rule:nonzero;fill:rgb(100%,92.941176%,43.529412%);fill-opacity:1;stroke-width:0.0239029;stroke-linecap:butt;stroke-linejoin:miter;stroke:rgb(60%,60%,60%);stroke-opacity:0.8;stroke-miterlimit:10;" d="M 0.119521 0.00000254378 C 0.119521 0.0659993 0.0660031 0.119518 0.00000638427 0.119518 C -0.0660135 0.119518 -0.119509 0.0659993 -0.119509 0.00000254378 C -0.119509 -0.0660173 -0.0660135 -0.119513 0.00000638427 -0.119513 C 0.0660031 -0.119513 0.119521 -0.0660173 0.119521 0.00000254378 Z M 0.119521 0.00000254378 " transform="matrix(169.042439,0,0,169.042439,379.82314,540.483945)"/>
<path style="fill-rule:nonzero;fill:rgb(100%,92.941176%,43.529412%);fill-opacity:1;stroke-width:0.0239029;stroke-linecap:butt;stroke-linejoin:miter;stroke:rgb(60%,60%,60%);stroke-opacity:0.8;stroke-miterlimit:10;" d="M 0.119518 -0.00000277363 C 0.119518 0.0660171 0.0659992 0.119512 0.0000024849 0.119512 C -0.0660174 0.119512 -0.119513 0.0660171 -0.119513 -0.00000277363 C -0.119513 -0.0659995 -0.0660174 -0.119518 0.0000024849 -0.119518 C 0.0659992 -0.119518 0.119518 -0.0659995 0.119518 -0.00000277363 Z M 0.119518 -0.00000277363 " transform="matrix(169.042439,0,0,169.042439,335.956611,454.672344)"/>
<path style="fill-rule:nonzero;fill:rgb(100%,92.941176%,43.529412%);fill-opacity:1;stroke-width:0.0239029;stroke-linecap:butt;stroke-linejoin:miter;stroke:rgb(60%,60%,60%);stroke-opacity:0.8;stroke-miterlimit:10;" d="M 0.119519 -0.0000100524 C 0.119519 0.0660098 0.0660011 0.119505 0.00000434756 0.119505 C -0.0660155 0.119505 -0.119511 0.0660098 -0.119511 -0.0000100524 C -0.119511 -0.0660068 -0.0660155 -0.119525 0.00000434756 -0.119525 C 0.0660011 -0.119525 0.119519 -0.0660068 0.119519 -0.0000100524 Z M 0.119519 -0.0000100524 " transform="matrix(169.042439,0,0,169.042439,315.913328,506.489981)"/>
<path style="fill-rule:nonzero;fill:rgb(100%,92.941176%,43.529412%);fill-opacity:1;stroke-width:0.0239029;stroke-linecap:butt;stroke-linejoin:miter;stroke:rgb(60%,60%,60%);stroke-opacity:0.8;stroke-miterlimit:10;" d="M 0.119516 0.00000500287 C 0.119516 0.0660017 0.0659977 0.11952 0.00000100226 0.11952 C -0.0659957 0.11952 -0.119514 0.0660017 -0.119514 0.00000500287 C -0.119514 -0.0660148 -0.0659957 -0.11951 0.00000100226 -0.11951 C 0.0659977 -0.11951 0.119516 -0.0660148 0.119516 0.00000500287 Z M 0.119516 0.00000500287 " transform="matrix(169.042439,0,0,169.042439,288.101393,399.385873)"/>
<path style="fill-rule:nonzero;fill:rgb(100%,92.941176%,43.529412%);fill-opacity:1;stroke-width:0.0239029;stroke-linecap:butt;stroke-linejoin:miter;stroke:rgb(60%,60%,60%);stroke-opacity:0.8;stroke-miterlimit:10;" d="M 0.119515 0.00000891012 C 0.119515 0.0660057 0.0659968 0.119524 0.0000000560972 0.119524 C -0.0659967 0.119524 -0.119515 0.0660057 -0.119515 0.00000891012 C -0.119515 -0.0660109 -0.0659967 -0.119506 0.0000000560972 -0.119506 C 0.0659968 -0.119506 0.119515 -0.0660109 0.119515 0.00000891012 Z M 0.119515 0.00000891012 " transform="matrix(169.042439,0,0,169.042439,150.167959,493.646931)"/>
<path style="fill-rule:nonzero;fill:rgb(100%,92.941176%,43.529412%);fill-opacity:1;stroke-width:0.0239029;stroke-linecap:butt;stroke-linejoin:miter;stroke:rgb(60%,60%,60%);stroke-opacity:0.8;stroke-miterlimit:10;" d="M 0.119503 0.00000172553 C 0.119503 0.0659985 0.0660081 0.119517 0.0000113821 0.119517 C -0.0660085 0.119517 -0.119504 0.0659985 -0.119504 0.00000172553 C -0.119504 -0.065995 -0.0660085 -0.119513 0.0000113821 -0.119513 C 0.0660081 -0.119513 0.119503 -0.065995 0.119503 0.00000172553 Z M 0.119503 0.00000172553 " transform="matrix(169.042439,0,0,169.042439,213.599638,466.374708)"/>
</g>
</svg>
