<?xml version="1.0" encoding="UTF-8"?>
<svg xmlns="http://www.w3.org/2000/svg" xmlns:xlink="http://www.w3.org/1999/xlink" width="600pt" height="600pt" viewBox="0 0 600 600" version="1.1">
<defs>
<clipPath id="clip1">
  <path d="M 188 169 L 322 169 L 322 309 L 188 309 Z M 188 169 "/>
</clipPath>
<clipPath id="clip2">
  <path d="M 103.277344 117.976562 L 406.574219 117.976562 L 406.574219 360.464844 L 103.277344 360.464844 Z M 103.277344 117.976562 L 264 225.15625 C 264 236.015625 255.195312 244.820312 244.335938 244.820312 C 233.476562 244.820312 224.671875 236.015625 224.671875 225.15625 C 224.671875 214.296875 233.476562 205.492188 244.335938 205.492188 C 255.195312 205.492188 264 214.296875 264 225.15625 Z M 103.277344 117.976562 "/>
</clipPath>
<clipPath id="clip3">
  <path d="M 103.277344 117.976562 L 406.574219 117.976562 L 406.574219 360.464844 L 103.277344 360.464844 Z M 103.277344 117.976562 L 285.179688 253.285156 C 285.179688 264.148438 276.378906 272.949219 265.515625 272.949219 C 254.65625 272.949219 245.851562 264.148438 245.851562 253.285156 C 245.851562 242.425781 254.65625 233.621094 265.515625 233.621094 C 276.378906 233.621094 285.179688 242.425781 285.179688 253.285156 Z M 103.277344 117.976562 "/>
</clipPath>
<clipPath id="clip4">
  <path d="M 109 169 L 300 169 L 300 346 L 109 346 Z M 109 169 "/>
</clipPath>
<clipPath id="clip5">
  <path d="M 52.242188 88.796875 L 357.480469 88.796875 L 357.480469 426.625 L 52.242188 426.625 Z M 52.242188 88.796875 L 264 225.15625 C 264 236.015625 255.195312 244.820312 244.335938 244.820312 C 233.476562 244.820312 224.671875 236.015625 224.671875 225.15625 C 224.671875 214.296875 233.476562 205.492188 244.335938 205.492188 C 255.195312 205.492188 264 214.296875 264 225.15625 Z M 52.242188 88.796875 "/>
</clipPath>
<clipPath id="clip6">
  <path d="M 52.242188 88.796875 L 357.480469 88.796875 L 357.480469 426.625 L 52.242188 426.625 Z M 52.242188 88.796875 L 185.050781 290.265625 C 185.050781 301.125 176.246094 309.929688 165.386719 309.929688 C 154.523438 309.929688 145.722656 301.125 145.722656 290.265625 C 145.722656 279.402344 154.523438 270.601562 165.386719 270.601562 C 176.246094 270.601562 185.050781 279.402344 185.050781 290.265625 Z M 52.242188 88.796875 "/>
</clipPath>
<clipPath id="clip7">
  <path d="M 188 124 L 374 124 L 374 281 L 188 281 Z M 188 124 "/>
</clipPath>
<clipPath id="clip8">
  <path d="M 151.304688 29.671875 L 411.203125 29.671875 L 411.203125 375.800781 L 151.304688 375.800781 Z M 151.304688 29.671875 L 264 225.15625 C 264 236.015625 255.195312 244.820312 244.335938 244.820312 C 233.476562 244.820312 224.671875 236.015625 224.671875 225.15625 C 224.671875 214.296875 233.476562 205.492188 244.335938 205.492188 C 255.195312 205.492188 264 214.296875 264 225.15625 Z M 151.304688 29.671875 "/>
</clipPath>
<clipPath id="clip9">
  <path d="M 151.304688 29.671875 L 411.203125 29.671875 L 411.203125 375.800781 L 151.304688 375.800781 Z M 151.304688 29.671875 L 337.835938 180.316406 C 337.835938 191.175781 329.035156 199.980469 318.171875 199.980469 C 307.3125 199.980469 298.507812 191.175781 298.507812 180.316406 C 298.507812 169.457031 307.3125 160.652344 318.171875 160.652344 C 329.035156 160.652344 337.835938 169.457031 337.835938 180.316406 Z M 151.304688 29.671875 "/>
</clipPath>
<clipPath id="clip10">
  <path d="M 337 32 L 495 32 L 495 172 L 337 172 Z M 337 32 "/>
</clipPath>
<clipPath id="clip11">
  <path d="M 298.949219 -61.621094 L 533.769531 -61.621094 L 533.769531 266.027344 L 298.949219 266.027344 Z M 298.949219 -61.621094 L 413.257812 116.375 C 413.257812 127.234375 404.453125 136.039062 393.59375 136.039062 C 382.734375 136.039062 373.929688 127.234375 373.929688 116.375 C 373.929688 105.515625 382.734375 96.710938 393.59375 96.710938 C 404.453125 96.710938 413.257812 105.515625 413.257812 116.375 Z M 298.949219 -61.621094 "/>
</clipPath>
<clipPath id="clip12">
  <path d="M 298.949219 -61.621094 L 533.769531 -61.621094 L 533.769531 266.027344 L 298.949219 266.027344 Z M 298.949219 -61.621094 L 458.789062 88.03125 C 458.789062 98.890625 449.984375 107.695312 439.125 107.695312 C 428.261719 107.695312 419.460938 98.890625 419.460938 88.03125 C 419.460938 77.171875 428.261719 68.367188 439.125 68.367188 C 449.984375 68.367188 458.789062 77.171875 458.789062 88.03125 Z M 298.949219 -61.621094 "/>
</clipPath>
<clipPath id="clip13">
  <path d="M 262 60 L 450 60 L 450 236 L 262 236 Z M 262 60 "/>
</clipPath>
<clipPath id="clip14">
  <path d="M 203.238281 -18.488281 L 508.527344 -18.488281 L 508.527344 315.179688 L 203.238281 315.179688 Z M 203.238281 -18.488281 L 413.257812 116.375 C 413.257812 127.234375 404.453125 136.039062 393.59375 136.039062 C 382.734375 136.039062 373.929688 127.234375 373.929688 116.375 C 373.929688 105.515625 382.734375 96.710938 393.59375 96.710938 C 404.453125 96.710938 413.257812 105.515625 413.257812 116.375 Z M 203.238281 -18.488281 "/>
</clipPath>
<clipPath id="clip15">
  <path d="M 203.238281 -18.488281 L 508.527344 -18.488281 L 508.527344 315.179688 L 203.238281 315.179688 Z M 203.238281 -18.488281 L 337.835938 180.316406 C 337.835938 191.175781 329.035156 199.980469 318.171875 199.980469 C 307.3125 199.980469 298.507812 191.175781 298.507812 180.316406 C 298.507812 169.457031 307.3125 160.652344 318.171875 160.652344 C 329.035156 160.652344 337.835938 169.457031 337.835938 180.316406 Z M 203.238281 -18.488281 "/>
</clipPath>
<clipPath id="clip16">
  <path d="M 109 197 L 322 197 L 322 346 L 109 346 Z M 109 197 "/>
</clipPath>
<clipPath id="clip17">
  <path d="M 101.984375 88.335938 L 328.917969 88.335938 L 328.917969 455.214844 L 101.984375 455.214844 Z M 101.984375 88.335938 L 285.179688 253.285156 C 285.179688 264.148438 276.378906 272.949219 265.515625 272.949219 C 254.65625 272.949219 245.851562 264.148438 245.851562 253.285156 C 245.851562 242.425781 254.65625 233.621094 265.515625 233.621094 C 276.378906 233.621094 285.179688 242.425781 285.179688 253.285156 Z M 101.984375 88.335938 "/>
</clipPath>
<clipPath id="clip18">
  <path d="M 101.984375 88.335938 L 328.917969 88.335938 L 328.917969 455.214844 L 101.984375 455.214844 Z M 101.984375 88.335938 L 185.050781 290.265625 C 185.050781 301.125 176.246094 309.929688 165.386719 309.929688 C 154.523438 309.929688 145.722656 301.125 145.722656 290.265625 C 145.722656 279.402344 154.523438 270.601562 165.386719 270.601562 C 176.246094 270.601562 185.050781 279.402344 185.050781 290.265625 Z M 101.984375 88.335938 "/>
</clipPath>
<clipPath id="clip19">
  <path d="M 209 124 L 374 124 L 374 309 L 209 309 Z M 209 124 "/>
</clipPath>
<clipPath id="clip20">
  <path d="M 122.390625 75.9375 L 461.296875 75.9375 L 461.296875 357.664062 L 122.390625 357.664062 Z M 122.390625 75.9375 L 285.179688 253.285156 C 285.179688 264.148438 276.378906 272.949219 265.515625 272.949219 C 254.65625 272.949219 245.851562 264.148438 245.851562 253.285156 C 245.851562 242.425781 254.65625 233.621094 265.515625 233.621094 C 276.378906 233.621094 285.179688 242.425781 285.179688 253.285156 Z M 122.390625 75.9375 "/>
</clipPath>
<clipPath id="clip21">
  <path d="M 122.390625 75.9375 L 461.296875 75.9375 L 461.296875 357.664062 L 122.390625 357.664062 Z M 122.390625 75.9375 L 337.835938 180.316406 C 337.835938 191.175781 329.035156 199.980469 318.171875 199.980469 C 307.3125 199.980469 298.507812 191.175781 298.507812 180.316406 C 298.507812 169.457031 307.3125 160.652344 318.171875 160.652344 C 329.035156 160.652344 337.835938 169.457031 337.835938 180.316406 Z M 122.390625 75.9375 "/>
</clipPath>
<clipPath id="clip22">
  <path d="M 137 72 L 322 72 L 322 309 L 137 309 Z M 137 72 "/>
</clipPath>
<clipPath id="clip23">
  <path d="M 40.828125 38.660156 L 418.296875 38.660156 L 418.296875 342.703125 L 40.828125 342.703125 Z M 40.828125 38.660156 L 285.179688 253.285156 C 285.179688 264.148438 276.378906 272.949219 265.515625 272.949219 C 254.65625 272.949219 245.851562 264.148438 245.851562 253.285156 C 245.851562 242.425781 254.65625 233.621094 265.515625 233.621094 C 276.378906 233.621094 285.179688 242.425781 285.179688 253.285156 Z M 40.828125 38.660156 "/>
</clipPath>
<clipPath id="clip24">
  <path d="M 40.828125 38.660156 L 418.296875 38.660156 L 418.296875 342.703125 L 40.828125 342.703125 Z M 40.828125 38.660156 L 213.273438 128.078125 C 213.273438 138.9375 204.472656 147.742188 193.609375 147.742188 C 182.75 147.742188 173.945312 138.9375 173.945312 128.078125 C 173.945312 117.21875 182.75 108.414062 193.609375 108.414062 C 204.472656 108.414062 213.273438 117.21875 213.273438 128.078125 Z M 40.828125 38.660156 "/>
</clipPath>
<clipPath id="clip25">
  <path d="M 209 197 L 424 197 L 424 481 L 209 481 Z M 209 197 "/>
</clipPath>
<clipPath id="clip26">
  <path d="M 114.269531 161.25 L 519.328125 161.25 L 519.328125 516.816406 L 114.269531 516.816406 Z M 114.269531 161.25 L 285.179688 253.285156 C 285.179688 264.148438 276.378906 272.949219 265.515625 272.949219 C 254.65625 272.949219 245.851562 264.148438 245.851562 253.285156 C 245.851562 242.425781 254.65625 233.621094 265.515625 233.621094 C 276.378906 233.621094 285.179688 242.425781 285.179688 253.285156 Z M 114.269531 161.25 "/>
</clipPath>
<clipPath id="clip27">
  <path d="M 114.269531 161.25 L 519.328125 161.25 L 519.328125 516.816406 L 114.269531 516.816406 Z M 114.269531 161.25 L 387.746094 424.78125 C 387.746094 435.640625 378.941406 444.445312 368.082031 444.445312 C 357.222656 444.445312 348.417969 435.640625 348.417969 424.78125 C 348.417969 413.921875 357.222656 405.117188 368.082031 405.117188 C 378.941406 405.117188 387.746094 413.921875 387.746094 424.78125 Z M 114.269531 161.25 "/>
</clipPath>
<clipPath id="clip28">
  <path d="M 22 234 L 222 234 L 222 391 L 22 391 Z M 22 234 "/>
</clipPath>
<clipPath id="clip29">
  <path d="M -4.488281 133.933594 L 248.296875 133.933594 L 248.296875 491.664062 L -4.488281 491.664062 Z M -4.488281 133.933594 L 185.050781 290.265625 C 185.050781 301.125 176.246094 309.929688 165.386719 309.929688 C 154.523438 309.929688 145.722656 301.125 145.722656 290.265625 C 145.722656 279.402344 154.523438 270.601562 165.386719 270.601562 C 176.246094 270.601562 185.050781 279.402344 185.050781 290.265625 Z M -4.488281 133.933594 "/>
</clipPath>
<clipPath id="clip30">
  <path d="M -4.488281 133.933594 L 248.296875 133.933594 L 248.296875 491.664062 L -4.488281 491.664062 Z M -4.488281 133.933594 L 98.085938 335.332031 C 98.085938 346.191406 89.285156 354.996094 78.421875 354.996094 C 67.5625 354.996094 58.757812 346.191406 58.757812 335.332031 C 58.757812 324.472656 67.5625 315.667969 78.421875 315.667969 C 89.285156 315.667969 98.085938 324.472656 98.085938 335.332031 Z M -4.488281 133.933594 "/>
</clipPath>
<clipPath id="clip31">
  <path d="M 50 234 L 222 234 L 222 422 L 50 422 Z M 50 234 "/>
</clipPath>
<clipPath id="clip32">
  <path d="M -33.296875 180.328125 L 304.324219 180.328125 L 304.324219 476.292969 L -33.296875 476.292969 Z M -33.296875 180.328125 L 185.050781 290.265625 C 185.050781 301.125 176.246094 309.929688 165.386719 309.929688 C 154.523438 309.929688 145.722656 301.125 145.722656 290.265625 C 145.722656 279.402344 154.523438 270.601562 165.386719 270.601562 C 176.246094 270.601562 185.050781 279.402344 185.050781 290.265625 Z M -33.296875 180.328125 "/>
</clipPath>
<clipPath id="clip33">
  <path d="M -33.296875 180.328125 L 304.324219 180.328125 L 304.324219 476.292969 L -33.296875 476.292969 Z M -33.296875 180.328125 L 125.308594 366.355469 C 125.308594 377.214844 116.503906 386.019531 105.640625 386.019531 C 94.78125 386.019531 85.976562 377.214844 85.976562 366.355469 C 85.976562 355.496094 94.78125 346.691406 105.640625 346.691406 C 116.503906 346.691406 125.308594 355.496094 125.308594 366.355469 Z M -33.296875 180.328125 "/>
</clipPath>
<clipPath id="clip34">
  <path d="M 99 15 L 250 15 L 250 184 L 99 184 Z M 99 15 "/>
</clipPath>
<clipPath id="clip35">
  <path d="M 8.8125 -28.152344 L 340.351562 -28.152344 L 340.351562 227.242188 L 8.8125 227.242188 Z M 8.8125 -28.152344 L 175.21875 71.011719 C 175.21875 81.871094 166.414062 90.675781 155.554688 90.675781 C 144.695312 90.675781 135.890625 81.871094 135.890625 71.011719 C 135.890625 60.152344 144.695312 51.347656 155.554688 51.347656 C 166.414062 51.347656 175.21875 60.152344 175.21875 71.011719 Z M 8.8125 -28.152344 "/>
</clipPath>
<clipPath id="clip36">
  <path d="M 8.8125 -28.152344 L 340.351562 -28.152344 L 340.351562 227.242188 L 8.8125 227.242188 Z M 8.8125 -28.152344 L 213.273438 128.078125 C 213.273438 138.9375 204.472656 147.742188 193.609375 147.742188 C 182.75 147.742188 173.945312 138.9375 173.945312 128.078125 C 173.945312 117.21875 182.75 108.414062 193.609375 108.414062 C 204.472656 108.414062 213.273438 117.21875 213.273438 128.078125 Z M 8.8125 -28.152344 "/>
</clipPath>
<clipPath id="clip37">
  <path d="M 470 276 L 600 276 L 600 429 L 470 429 Z M 470 276 "/>
</clipPath>
<clipPath id="clip38">
  <path d="M 387.941406 221.65625 L 697.320312 221.65625 L 697.320312 483.648438 L 387.941406 483.648438 Z M 387.941406 221.65625 L 578.511719 332.183594 C 578.511719 343.046875 569.707031 351.847656 558.847656 351.847656 C 547.988281 351.847656 539.183594 343.046875 539.183594 332.183594 C 539.183594 321.324219 547.988281 312.519531 558.847656 312.519531 C 569.707031 312.519531 578.511719 321.324219 578.511719 332.183594 Z M 387.941406 221.65625 "/>
</clipPath>
<clipPath id="clip39">
  <path d="M 387.941406 221.65625 L 697.320312 221.65625 L 697.320312 483.648438 L 387.941406 483.648438 Z M 387.941406 221.65625 L 546.078125 373.121094 C 546.078125 383.980469 537.273438 392.785156 526.414062 392.785156 C 515.554688 392.785156 506.75 383.980469 506.75 373.121094 C 506.75 362.261719 515.554688 353.457031 526.414062 353.457031 C 537.273438 353.457031 546.078125 362.261719 546.078125 373.121094 Z M 387.941406 221.65625 "/>
</clipPath>
<clipPath id="clip40">
  <path d="M 312 369 L 455 369 L 455 559 L 312 559 Z M 312 369 "/>
</clipPath>
<clipPath id="clip41">
  <path d="M 204.253906 358.429688 L 562.554688 358.429688 L 562.554688 569.632812 L 204.253906 569.632812 Z M 204.253906 358.429688 L 418.390625 503.28125 C 418.390625 514.140625 409.585938 522.945312 398.726562 522.945312 C 387.867188 522.945312 379.0625 514.140625 379.0625 503.28125 C 379.0625 492.421875 387.867188 483.617188 398.726562 483.617188 C 409.585938 483.617188 418.390625 492.421875 418.390625 503.28125 Z M 204.253906 358.429688 "/>
</clipPath>
<clipPath id="clip42">
  <path d="M 204.253906 358.429688 L 562.554688 358.429688 L 562.554688 569.632812 L 204.253906 569.632812 Z M 204.253906 358.429688 L 387.746094 424.78125 C 387.746094 435.640625 378.941406 444.445312 368.082031 444.445312 C 357.222656 444.445312 348.417969 435.640625 348.417969 424.78125 C 348.417969 413.921875 357.222656 405.117188 368.082031 405.117188 C 378.941406 405.117188 387.746094 413.921875 387.746094 424.78125 Z M 204.253906 358.429688 "/>
</clipPath>
<clipPath id="clip43">
  <path d="M 407 317 L 583 317 L 583 466 L 407 466 Z M 407 317 "/>
</clipPath>
<clipPath id="clip44">
  <path d="M 372.519531 221.203125 L 617.316406 221.203125 L 617.316406 562.058594 L 372.519531 562.058594 Z M 372.519531 221.203125 L 546.078125 373.121094 C 546.078125 383.980469 537.273438 392.785156 526.414062 392.785156 C 515.554688 392.785156 506.75 383.980469 506.75 373.121094 C 506.75 362.261719 515.554688 353.457031 526.414062 353.457031 C 537.273438 353.457031 546.078125 362.261719 546.078125 373.121094 Z M 372.519531 221.203125 "/>
</clipPath>
<clipPath id="clip45">
  <path d="M 372.519531 221.203125 L 617.316406 221.203125 L 617.316406 562.058594 L 372.519531 562.058594 Z M 372.519531 221.203125 L 483.085938 410.140625 C 483.085938 421 474.28125 429.804688 463.421875 429.804688 C 452.558594 429.804688 443.757812 421 443.757812 410.140625 C 443.757812 399.28125 452.558594 390.476562 463.421875 390.476562 C 474.28125 390.476562 483.085938 399.28125 483.085938 410.140625 Z M 372.519531 221.203125 "/>
</clipPath>
<clipPath id="clip46">
  <path d="M 338.09375 354 L 493.410156 354 L 493.410156 481 L 338.09375 481 Z M 338.09375 354 "/>
</clipPath>
<clipPath id="clip47">
  <path d="M 338.09375 236.546875 L 493.410156 236.546875 L 493.410156 598.375 L 338.09375 598.375 Z M 338.09375 236.546875 L 483.085938 410.140625 C 483.085938 421 474.28125 429.804688 463.421875 429.804688 C 452.558594 429.804688 443.757812 421 443.757812 410.140625 C 443.757812 399.28125 452.558594 390.476562 463.421875 390.476562 C 474.28125 390.476562 483.085938 399.28125 483.085938 410.140625 Z M 338.09375 236.546875 "/>
</clipPath>
<clipPath id="clip48">
  <path d="M 338.09375 236.546875 L 493.410156 236.546875 L 493.410156 598.375 L 338.09375 598.375 Z M 338.09375 236.546875 L 387.746094 424.78125 C 387.746094 435.640625 378.941406 444.445312 368.082031 444.445312 C 357.222656 444.445312 348.417969 435.640625 348.417969 424.78125 C 348.417969 413.921875 357.222656 405.117188 368.082031 405.117188 C 378.941406 405.117188 387.746094 413.921875 387.746094 424.78125 Z M 338.09375 236.546875 "/>
</clipPath>
<clipPath id="clip49">
  <path d="M 285 369.839844 L 424 369.839844 L 424 566.4375 L 285 566.4375 Z M 285 369.839844 "/>
</clipPath>
<clipPath id="clip50">
  <path d="M 173.265625 369.839844 L 535.910156 369.839844 L 535.910156 566.4375 L 173.265625 566.4375 Z M 173.265625 369.839844 L 387.746094 424.78125 C 387.746094 435.640625 378.941406 444.445312 368.082031 444.445312 C 357.222656 444.445312 348.417969 435.640625 348.417969 424.78125 C 348.417969 413.921875 357.222656 405.117188 368.082031 405.117188 C 378.941406 405.117188 387.746094 413.921875 387.746094 424.78125 Z M 173.265625 369.839844 "/>
</clipPath>
<clipPath id="clip51">
  <path d="M 173.265625 369.839844 L 535.910156 369.839844 L 535.910156 566.4375 L 173.265625 566.4375 Z M 173.265625 369.839844 L 360.761719 511.496094 C 360.761719 522.359375 351.957031 531.160156 341.09375 531.160156 C 330.234375 531.160156 321.429688 522.359375 321.429688 511.496094 C 321.429688 500.636719 330.234375 491.832031 341.09375 491.832031 C 351.957031 491.832031 360.761719 500.636719 360.761719 511.496094 Z M 173.265625 369.839844 "/>
</clipPath>
<clipPath id="clip52">
  <path d="M 0 279 L 135 279 L 135 458 L 0 458 Z M 0 279 "/>
</clipPath>
<clipPath id="clip53">
  <path d="M -112.800781 247.988281 L 232.375 247.988281 L 232.375 489.707031 L -112.800781 489.707031 Z M -112.800781 247.988281 L 60.816406 402.363281 C 60.816406 413.222656 52.011719 422.027344 41.152344 422.027344 C 30.292969 422.027344 21.488281 413.222656 21.488281 402.363281 C 21.488281 391.503906 30.292969 382.699219 41.152344 382.699219 C 52.011719 382.699219 60.816406 391.503906 60.816406 402.363281 Z M -112.800781 247.988281 "/>
</clipPath>
<clipPath id="clip54">
  <path d="M -112.800781 247.988281 L 232.375 247.988281 L 232.375 489.707031 L -112.800781 489.707031 Z M -112.800781 247.988281 L 98.085938 335.332031 C 98.085938 346.191406 89.285156 354.996094 78.421875 354.996094 C 67.5625 354.996094 58.757812 346.191406 58.757812 335.332031 C 58.757812 324.472656 67.5625 315.667969 78.421875 315.667969 C 89.285156 315.667969 98.085938 324.472656 98.085938 335.332031 Z M -112.800781 247.988281 "/>
</clipPath>
<clipPath id="clip55">
  <path d="M 0 346 L 138 346 L 138 511 L 0 511 Z M 0 346 "/>
</clipPath>
<clipPath id="clip56">
  <path d="M -98.441406 293.265625 L 221.464844 293.265625 L 221.464844 563.988281 L -98.441406 563.988281 Z M -98.441406 293.265625 L 60.816406 402.363281 C 60.816406 413.222656 52.011719 422.027344 41.152344 422.027344 C 30.292969 422.027344 21.488281 413.222656 21.488281 402.363281 C 21.488281 391.503906 30.292969 382.699219 41.152344 382.699219 C 52.011719 382.699219 60.816406 391.503906 60.816406 402.363281 Z M -98.441406 293.265625 "/>
</clipPath>
<clipPath id="clip57">
  <path d="M -98.441406 293.265625 L 221.464844 293.265625 L 221.464844 563.988281 L -98.441406 563.988281 Z M -98.441406 293.265625 L 101.535156 454.890625 C 101.535156 465.75 92.730469 474.554688 81.871094 474.554688 C 71.011719 474.554688 62.207031 465.75 62.207031 454.890625 C 62.207031 444.027344 71.011719 435.226562 81.871094 435.226562 C 92.730469 435.226562 101.535156 444.027344 101.535156 454.890625 Z M -98.441406 293.265625 "/>
</clipPath>
<clipPath id="clip58">
  <path d="M 22 279 L 162 279 L 162 422 L 22 422 Z M 22 279 "/>
</clipPath>
<clipPath id="clip59">
  <path d="M -54.539062 218.195312 L 238.601562 218.195312 L 238.601562 483.492188 L -54.539062 483.492188 Z M -54.539062 218.195312 L 98.085938 335.332031 C 98.085938 346.191406 89.285156 354.996094 78.421875 354.996094 C 67.5625 354.996094 58.757812 346.191406 58.757812 335.332031 C 58.757812 324.472656 67.5625 315.667969 78.421875 315.667969 C 89.285156 315.667969 98.085938 324.472656 98.085938 335.332031 Z M -54.539062 218.195312 "/>
</clipPath>
<clipPath id="clip60">
  <path d="M -54.539062 218.195312 L 238.601562 218.195312 L 238.601562 483.492188 L -54.539062 483.492188 Z M -54.539062 218.195312 L 125.308594 366.355469 C 125.308594 377.214844 116.503906 386.019531 105.640625 386.019531 C 94.78125 386.019531 85.976562 377.214844 85.976562 366.355469 C 85.976562 355.496094 94.78125 346.691406 105.640625 346.691406 C 116.503906 346.691406 125.308594 355.496094 125.308594 366.355469 Z M -54.539062 218.195312 "/>
</clipPath>
<clipPath id="clip61">
  <path d="M 26 399 L 165 399 L 165 585 L 26 585 Z M 26 399 "/>
</clipPath>
<clipPath id="clip62">
  <path d="M -83.503906 392.648438 L 274.007812 392.648438 L 274.007812 591.230469 L -83.503906 591.230469 Z M -83.503906 392.648438 L 128.296875 528.988281 C 128.296875 539.847656 119.492188 548.652344 108.632812 548.652344 C 97.773438 548.652344 88.96875 539.847656 88.96875 528.988281 C 88.96875 518.128906 97.773438 509.324219 108.632812 509.324219 C 119.492188 509.324219 128.296875 518.128906 128.296875 528.988281 Z M -83.503906 392.648438 "/>
</clipPath>
<clipPath id="clip63">
  <path d="M -83.503906 392.648438 L 274.007812 392.648438 L 274.007812 591.230469 L -83.503906 591.230469 Z M -83.503906 392.648438 L 101.535156 454.890625 C 101.535156 465.75 92.730469 474.554688 81.871094 474.554688 C 71.011719 474.554688 62.207031 465.75 62.207031 454.890625 C 62.207031 444.027344 71.011719 435.226562 81.871094 435.226562 C 92.730469 435.226562 101.535156 444.027344 101.535156 454.890625 Z M -83.503906 392.648438 "/>
</clipPath>
<clipPath id="clip64">
  <path d="M 26 317.914062 L 162 317.914062 L 162 503.332031 L 26 503.332031 Z M 26 317.914062 "/>
</clipPath>
<clipPath id="clip65">
  <path d="M -87.839844 317.914062 L 275.351562 317.914062 L 275.351562 503.332031 L -87.839844 503.332031 Z M -87.839844 317.914062 L 125.308594 366.355469 C 125.308594 377.214844 116.503906 386.019531 105.640625 386.019531 C 94.78125 386.019531 85.976562 377.214844 85.976562 366.355469 C 85.976562 355.496094 94.78125 346.691406 105.640625 346.691406 C 116.503906 346.691406 125.308594 355.496094 125.308594 366.355469 Z M -87.839844 317.914062 "/>
</clipPath>
<clipPath id="clip66">
  <path d="M -87.839844 317.914062 L 275.351562 317.914062 L 275.351562 503.332031 L -87.839844 503.332031 Z M -87.839844 317.914062 L 101.535156 454.890625 C 101.535156 465.75 92.730469 474.554688 81.871094 474.554688 C 71.011719 474.554688 62.207031 465.75 62.207031 454.890625 C 62.207031 444.027344 71.011719 435.226562 81.871094 435.226562 C 92.730469 435.226562 101.535156 444.027344 101.535156 454.890625 Z M -87.839844 317.914062 "/>
</clipPath>
</defs>
<g id="surface71">
<g clip-path="url(#clip1)" clip-rule="nonzero">
<g clip-path="url(#clip2)" clip-rule="evenodd">
<g clip-path="url(#clip3)" clip-rule="evenodd">
<path style="fill:none;stroke-width:0.0229123;stroke-linecap:butt;stroke-linejoin:miter;stroke:rgb(17.96875%,20.3125%,21.09375%);stroke-opacity:0.8;stroke-miterlimit:10;" d="M 1.738118 1.118917 L 1.861508 1.282793 " transform="matrix(171.647619,0,0,171.647619,-54.007819,33.09678)"/>
</g>
</g>
</g>
<g clip-path="url(#clip4)" clip-rule="nonzero">
<g clip-path="url(#clip5)" clip-rule="evenodd">
<g clip-path="url(#clip6)" clip-rule="evenodd">
<path style="fill:none;stroke-width:0.0229123;stroke-linecap:butt;stroke-linejoin:miter;stroke:rgb(17.96875%,20.3125%,21.09375%);stroke-opacity:0.8;stroke-miterlimit:10;" d="M 1.738118 1.118917 L 1.278168 1.498237 " transform="matrix(171.647619,0,0,171.647619,-54.007819,33.09678)"/>
</g>
</g>
</g>
<g clip-path="url(#clip7)" clip-rule="nonzero">
<g clip-path="url(#clip8)" clip-rule="evenodd">
<g clip-path="url(#clip9)" clip-rule="evenodd">
<path style="fill:none;stroke-width:0.0229123;stroke-linecap:butt;stroke-linejoin:miter;stroke:rgb(17.96875%,20.3125%,21.09375%);stroke-opacity:0.8;stroke-miterlimit:10;" d="M 1.738118 1.118917 L 2.168278 0.857685 " transform="matrix(171.647619,0,0,171.647619,-54.007819,33.09678)"/>
</g>
</g>
</g>
<g clip-path="url(#clip10)" clip-rule="nonzero">
<g clip-path="url(#clip11)" clip-rule="evenodd">
<g clip-path="url(#clip12)" clip-rule="evenodd">
<path style="fill:none;stroke-width:0.0229123;stroke-linecap:butt;stroke-linejoin:miter;stroke:rgb(17.96875%,20.3125%,21.09375%);stroke-opacity:0.8;stroke-miterlimit:10;" d="M 2.607677 0.48517 L 2.872937 0.320042 " transform="matrix(171.647619,0,0,171.647619,-54.007819,33.09678)"/>
</g>
</g>
</g>
<g clip-path="url(#clip13)" clip-rule="nonzero">
<g clip-path="url(#clip14)" clip-rule="evenodd">
<g clip-path="url(#clip15)" clip-rule="evenodd">
<path style="fill:none;stroke-width:0.0229123;stroke-linecap:butt;stroke-linejoin:miter;stroke:rgb(17.96875%,20.3125%,21.09375%);stroke-opacity:0.8;stroke-miterlimit:10;" d="M 2.607677 0.48517 L 2.168278 0.857685 " transform="matrix(171.647619,0,0,171.647619,-54.007819,33.09678)"/>
</g>
</g>
</g>
<g clip-path="url(#clip16)" clip-rule="nonzero">
<g clip-path="url(#clip17)" clip-rule="evenodd">
<g clip-path="url(#clip18)" clip-rule="evenodd">
<path style="fill:none;stroke-width:0.0229123;stroke-linecap:butt;stroke-linejoin:miter;stroke:rgb(17.96875%,20.3125%,21.09375%);stroke-opacity:0.8;stroke-miterlimit:10;" d="M 1.861508 1.282793 L 1.278168 1.498237 " transform="matrix(171.647619,0,0,171.647619,-54.007819,33.09678)"/>
</g>
</g>
</g>
<g clip-path="url(#clip19)" clip-rule="nonzero">
<g clip-path="url(#clip20)" clip-rule="evenodd">
<g clip-path="url(#clip21)" clip-rule="evenodd">
<path style="fill:none;stroke-width:0.0229123;stroke-linecap:butt;stroke-linejoin:miter;stroke:rgb(17.96875%,20.3125%,21.09375%);stroke-opacity:0.8;stroke-miterlimit:10;" d="M 1.861508 1.282793 L 2.168278 0.857685 " transform="matrix(171.647619,0,0,171.647619,-54.007819,33.09678)"/>
</g>
</g>
</g>
<g clip-path="url(#clip22)" clip-rule="nonzero">
<g clip-path="url(#clip23)" clip-rule="evenodd">
<g clip-path="url(#clip24)" clip-rule="evenodd">
<path style="fill:none;stroke-width:0.0229123;stroke-linecap:butt;stroke-linejoin:miter;stroke:rgb(17.96875%,20.3125%,21.09375%);stroke-opacity:0.8;stroke-miterlimit:10;" d="M 1.861508 1.282793 L 1.44259 0.553351 " transform="matrix(171.647619,0,0,171.647619,-54.007819,33.09678)"/>
</g>
</g>
</g>
<g clip-path="url(#clip25)" clip-rule="nonzero">
<g clip-path="url(#clip26)" clip-rule="evenodd">
<g clip-path="url(#clip27)" clip-rule="evenodd">
<path style="fill:none;stroke-width:0.0229123;stroke-linecap:butt;stroke-linejoin:miter;stroke:rgb(17.96875%,20.3125%,21.09375%);stroke-opacity:0.8;stroke-miterlimit:10;" d="M 1.861508 1.282793 L 2.459049 2.28191 " transform="matrix(171.647619,0,0,171.647619,-54.007819,33.09678)"/>
</g>
</g>
</g>
<g clip-path="url(#clip28)" clip-rule="nonzero">
<g clip-path="url(#clip29)" clip-rule="evenodd">
<g clip-path="url(#clip30)" clip-rule="evenodd">
<path style="fill:none;stroke-width:0.0229123;stroke-linecap:butt;stroke-linejoin:miter;stroke:rgb(17.96875%,20.3125%,21.09375%);stroke-opacity:0.8;stroke-miterlimit:10;" d="M 1.278168 1.498237 L 0.771521 1.760789 " transform="matrix(171.647619,0,0,171.647619,-54.007819,33.09678)"/>
</g>
</g>
</g>
<g clip-path="url(#clip31)" clip-rule="nonzero">
<g clip-path="url(#clip32)" clip-rule="evenodd">
<g clip-path="url(#clip33)" clip-rule="evenodd">
<path style="fill:none;stroke-width:0.0229123;stroke-linecap:butt;stroke-linejoin:miter;stroke:rgb(17.96875%,20.3125%,21.09375%);stroke-opacity:0.8;stroke-miterlimit:10;" d="M 1.278168 1.498237 L 0.930094 1.941528 " transform="matrix(171.647619,0,0,171.647619,-54.007819,33.09678)"/>
</g>
</g>
</g>
<g clip-path="url(#clip34)" clip-rule="nonzero">
<g clip-path="url(#clip35)" clip-rule="evenodd">
<g clip-path="url(#clip36)" clip-rule="evenodd">
<path style="fill:none;stroke-width:0.0229123;stroke-linecap:butt;stroke-linejoin:miter;stroke:rgb(17.96875%,20.3125%,21.09375%);stroke-opacity:0.8;stroke-miterlimit:10;" d="M 1.220888 0.220888 L 1.44259 0.553351 " transform="matrix(171.647619,0,0,171.647619,-54.007819,33.09678)"/>
</g>
</g>
</g>
<g clip-path="url(#clip37)" clip-rule="nonzero">
<g clip-path="url(#clip38)" clip-rule="evenodd">
<g clip-path="url(#clip39)" clip-rule="evenodd">
<path style="fill:none;stroke-width:0.0229123;stroke-linecap:butt;stroke-linejoin:miter;stroke:rgb(17.96875%,20.3125%,21.09375%);stroke-opacity:0.8;stroke-miterlimit:10;" d="M 3.570428 1.742447 L 3.381474 1.980944 " transform="matrix(171.647619,0,0,171.647619,-54.007819,33.09678)"/>
</g>
</g>
</g>
<g clip-path="url(#clip40)" clip-rule="nonzero">
<g clip-path="url(#clip41)" clip-rule="evenodd">
<g clip-path="url(#clip42)" clip-rule="evenodd">
<path style="fill:none;stroke-width:0.0229123;stroke-linecap:butt;stroke-linejoin:miter;stroke:rgb(17.96875%,20.3125%,21.09375%);stroke-opacity:0.8;stroke-miterlimit:10;" d="M 2.63758 2.739243 L 2.459049 2.28191 " transform="matrix(171.647619,0,0,171.647619,-54.007819,33.09678)"/>
</g>
</g>
</g>
<g clip-path="url(#clip43)" clip-rule="nonzero">
<g clip-path="url(#clip44)" clip-rule="evenodd">
<g clip-path="url(#clip45)" clip-rule="evenodd">
<path style="fill:none;stroke-width:0.0229123;stroke-linecap:butt;stroke-linejoin:miter;stroke:rgb(17.96875%,20.3125%,21.09375%);stroke-opacity:0.8;stroke-miterlimit:10;" d="M 3.381474 1.980944 L 3.014488 2.196616 " transform="matrix(171.647619,0,0,171.647619,-54.007819,33.09678)"/>
</g>
</g>
</g>
<g clip-path="url(#clip46)" clip-rule="nonzero">
<g clip-path="url(#clip47)" clip-rule="evenodd">
<g clip-path="url(#clip48)" clip-rule="evenodd">
<path style="fill:none;stroke-width:0.0229123;stroke-linecap:butt;stroke-linejoin:miter;stroke:rgb(17.96875%,20.3125%,21.09375%);stroke-opacity:0.8;stroke-miterlimit:10;" d="M 3.014488 2.196616 L 2.459049 2.28191 " transform="matrix(171.647619,0,0,171.647619,-54.007819,33.09678)"/>
</g>
</g>
</g>
<g clip-path="url(#clip49)" clip-rule="nonzero">
<g clip-path="url(#clip50)" clip-rule="evenodd">
<g clip-path="url(#clip51)" clip-rule="evenodd">
<path style="fill:none;stroke-width:0.0229123;stroke-linecap:butt;stroke-linejoin:miter;stroke:rgb(17.96875%,20.3125%,21.09375%);stroke-opacity:0.8;stroke-miterlimit:10;" d="M 2.459049 2.28191 L 2.301818 2.787101 " transform="matrix(171.647619,0,0,171.647619,-54.007819,33.09678)"/>
</g>
</g>
</g>
<g clip-path="url(#clip52)" clip-rule="nonzero">
<g clip-path="url(#clip53)" clip-rule="evenodd">
<g clip-path="url(#clip54)" clip-rule="evenodd">
<path style="fill:none;stroke-width:0.0229123;stroke-linecap:butt;stroke-linejoin:miter;stroke:rgb(17.96875%,20.3125%,21.09375%);stroke-opacity:0.8;stroke-miterlimit:10;" d="M 0.554393 2.151306 L 0.771521 1.760789 " transform="matrix(171.647619,0,0,171.647619,-54.007819,33.09678)"/>
</g>
</g>
</g>
<g clip-path="url(#clip55)" clip-rule="nonzero">
<g clip-path="url(#clip56)" clip-rule="evenodd">
<g clip-path="url(#clip57)" clip-rule="evenodd">
<path style="fill:none;stroke-width:0.0229123;stroke-linecap:butt;stroke-linejoin:miter;stroke:rgb(17.96875%,20.3125%,21.09375%);stroke-opacity:0.8;stroke-miterlimit:10;" d="M 0.554393 2.151306 L 0.791615 2.457324 " transform="matrix(171.647619,0,0,171.647619,-54.007819,33.09678)"/>
</g>
</g>
</g>
<g clip-path="url(#clip58)" clip-rule="nonzero">
<g clip-path="url(#clip59)" clip-rule="evenodd">
<g clip-path="url(#clip60)" clip-rule="evenodd">
<path style="fill:none;stroke-width:0.0229123;stroke-linecap:butt;stroke-linejoin:miter;stroke:rgb(17.96875%,20.3125%,21.09375%);stroke-opacity:0.8;stroke-miterlimit:10;" d="M 0.771521 1.760789 L 0.930094 1.941528 " transform="matrix(171.647619,0,0,171.647619,-54.007819,33.09678)"/>
</g>
</g>
</g>
<g clip-path="url(#clip61)" clip-rule="nonzero">
<g clip-path="url(#clip62)" clip-rule="evenodd">
<g clip-path="url(#clip63)" clip-rule="evenodd">
<path style="fill:none;stroke-width:0.0229123;stroke-linecap:butt;stroke-linejoin:miter;stroke:rgb(17.96875%,20.3125%,21.09375%);stroke-opacity:0.8;stroke-miterlimit:10;" d="M 0.947526 2.889009 L 0.791615 2.457324 " transform="matrix(171.647619,0,0,171.647619,-54.007819,33.09678)"/>
</g>
</g>
</g>
<g clip-path="url(#clip64)" clip-rule="nonzero">
<g clip-path="url(#clip65)" clip-rule="evenodd">
<g clip-path="url(#clip66)" clip-rule="evenodd">
<path style="fill:none;stroke-width:0.0229123;stroke-linecap:butt;stroke-linejoin:miter;stroke:rgb(17.96875%,20.3125%,21.09375%);stroke-opacity:0.8;stroke-miterlimit:10;" d="M 0.930094 1.941528 L 0.791615 2.457324 " transform="matrix(171.647619,0,0,171.647619,-54.007819,33.09678)"/>
</g>
</g>
</g>
<path style="fill-rule:nonzero;fill:rgb(55.294118%,82.745098%,78.039216%);fill-opacity:1;stroke-width:0.0229123;stroke-linecap:butt;stroke-linejoin:miter;stroke:rgb(60%,60%,60%);stroke-opacity:0.8;stroke-miterlimit:10;" d="M 0.114565 0.00000549272 C 0.114565 0.063271 0.0632696 0.114566 0.00000407332 0.114566 C -0.0632614 0.114566 -0.114557 0.063271 -0.114557 0.00000549272 C -0.114557 -0.06326 -0.0632614 -0.114555 0.00000407332 -0.114555 C 0.0632696 -0.114555 0.114565 -0.06326 0.114565 0.00000549272 Z M 0.114565 0.00000549272 " transform="matrix(171.647619,0,0,171.647619,244.335238,225.155307)"/>
<path style="fill-rule:nonzero;fill:rgb(100%,92.941176%,43.529412%);fill-opacity:1;stroke-width:0.0229123;stroke-linecap:butt;stroke-linejoin:miter;stroke:rgb(60%,60%,60%);stroke-opacity:0.8;stroke-miterlimit:10;" d="M 0.114561 -0.00000325663 C 0.114561 0.0632623 0.0632661 0.114557 0.00000059914 0.114557 C -0.0632649 0.114557 -0.11456 0.0632623 -0.11456 -0.00000325663 C -0.11456 -0.0632688 -0.0632649 -0.114564 0.00000059914 -0.114564 C 0.0632661 -0.114564 0.114561 -0.0632688 0.114561 -0.00000325663 Z M 0.114561 -0.00000325663 " transform="matrix(171.647619,0,0,171.647619,393.593647,116.375559)"/>
<path style="fill-rule:nonzero;fill:rgb(100%,92.941176%,43.529412%);fill-opacity:1;stroke-width:0.0229123;stroke-linecap:butt;stroke-linejoin:miter;stroke:rgb(60%,60%,60%);stroke-opacity:0.8;stroke-miterlimit:10;" d="M 0.114553 -0.0000102736 C 0.114553 0.063278 0.0632809 0.11455 -0.00000739045 0.11455 C -0.0632729 0.11455 -0.114568 0.063278 -0.114568 -0.0000102736 C -0.114568 -0.0632758 -0.0632729 -0.114571 -0.00000739045 -0.114571 C 0.0632809 -0.114571 0.114553 -0.0632758 0.114553 -0.0000102736 Z M 0.114553 -0.0000102736 " transform="matrix(171.647619,0,0,171.647619,265.516894,253.28692)"/>
<path style="fill-rule:nonzero;fill:rgb(55.294118%,82.745098%,78.039216%);fill-opacity:1;stroke-width:0.0229123;stroke-linecap:butt;stroke-linejoin:miter;stroke:rgb(60%,60%,60%);stroke-opacity:0.8;stroke-miterlimit:10;" d="M 0.114571 0.00000769765 C 0.114571 0.0632732 0.0632758 0.114568 0.0000102816 0.114568 C -0.063278 0.114568 -0.11455 0.0632732 -0.11455 0.00000769765 C -0.11455 -0.0632806 -0.063278 -0.114553 0.0000102816 -0.114553 C 0.0632758 -0.114553 0.114571 -0.0632806 0.114571 0.00000769765 Z M 0.114571 0.00000769765 " transform="matrix(171.647619,0,0,171.647619,165.384954,290.264304)"/>
<path style="fill-rule:nonzero;fill:rgb(100%,92.941176%,43.529412%);fill-opacity:1;stroke-width:0.0229123;stroke-linecap:butt;stroke-linejoin:miter;stroke:rgb(60%,60%,60%);stroke-opacity:0.8;stroke-miterlimit:10;" d="M 0.11457 0.00000375919 C 0.11457 0.0632693 0.0632747 0.114564 0.00000919273 0.114564 C -0.0632791 0.114564 -0.114551 0.0632693 -0.114551 0.00000375919 C -0.114551 -0.0632618 -0.0632791 -0.114557 0.00000919273 -0.114557 C 0.0632747 -0.114557 0.11457 -0.0632618 0.11457 0.00000375919 Z M 0.11457 0.00000375919 " transform="matrix(171.647619,0,0,171.647619,439.123422,88.030605)"/>
<path style="fill-rule:nonzero;fill:rgb(100%,92.941176%,43.529412%);fill-opacity:1;stroke-width:0.0229123;stroke-linecap:butt;stroke-linejoin:miter;stroke:rgb(60%,60%,60%);stroke-opacity:0.8;stroke-miterlimit:10;" d="M 0.114561 0.00000109202 C 0.114561 0.0632666 0.0632656 0.114562 0.00000010335 0.114562 C -0.0632654 0.114562 -0.114561 0.0632666 -0.114561 0.00000109202 C -0.114561 -0.0632644 -0.0632654 -0.11456 0.00000010335 -0.11456 C 0.0632656 -0.11456 0.114561 -0.0632644 0.114561 0.00000109202 Z M 0.114561 0.00000109202 " transform="matrix(171.647619,0,0,171.647619,155.55467,71.011531)"/>
<path style="fill-rule:nonzero;fill:rgb(100%,92.941176%,43.529412%);fill-opacity:1;stroke-width:0.0229123;stroke-linecap:butt;stroke-linejoin:miter;stroke:rgb(60%,60%,60%);stroke-opacity:0.8;stroke-miterlimit:10;" d="M 0.114554 0.0000034529 C 0.114554 0.063269 0.0632816 0.114564 -0.00000662451 0.114564 C -0.0632721 0.114564 -0.114567 0.063269 -0.114567 0.0000034529 C -0.114567 -0.0632621 -0.0632721 -0.114557 -0.00000662451 -0.114557 C 0.0632816 -0.114557 0.114554 -0.0632621 0.114554 0.0000034529 Z M 0.114554 0.0000034529 " transform="matrix(171.647619,0,0,171.647619,318.173012,180.315814)"/>
<path style="fill-rule:nonzero;fill:rgb(100%,92.941176%,43.529412%);fill-opacity:1;stroke-width:0.0229123;stroke-linecap:butt;stroke-linejoin:miter;stroke:rgb(60%,60%,60%);stroke-opacity:0.8;stroke-miterlimit:10;" d="M 0.114553 0.0000042563 C 0.114553 0.0632698 0.0632807 0.114565 -0.00000752998 0.114565 C -0.063273 0.114565 -0.114568 0.0632698 -0.114568 0.0000042563 C -0.114568 -0.0632613 -0.063273 -0.114556 -0.00000752998 -0.114556 C 0.0632807 -0.114556 0.114553 -0.0632613 0.114553 0.0000042563 Z M 0.114553 0.0000042563 " transform="matrix(171.647619,0,0,171.647619,193.610668,128.077394)"/>
<path style="fill-rule:nonzero;fill:rgb(100%,92.941176%,43.529412%);fill-opacity:1;stroke-width:0.0229123;stroke-linecap:butt;stroke-linejoin:miter;stroke:rgb(60%,60%,60%);stroke-opacity:0.8;stroke-miterlimit:10;" d="M 0.114567 -0.00000959787 C 0.114567 0.0632787 0.0632716 0.114551 0.00000611667 0.114551 C -0.0632594 0.114551 -0.114555 0.0632787 -0.114555 -0.00000959787 C -0.114555 -0.0632751 -0.0632594 -0.11457 0.00000611667 -0.11457 C 0.0632716 -0.11457 0.114567 -0.0632751 0.114567 -0.00000959787 Z M 0.114567 -0.00000959787 " transform="matrix(171.647619,0,0,171.647619,558.846606,332.185241)"/>
<path style="fill-rule:nonzero;fill:rgb(100%,92.941176%,43.529412%);fill-opacity:1;stroke-width:0.0229123;stroke-linecap:butt;stroke-linejoin:miter;stroke:rgb(60%,60%,60%);stroke-opacity:0.8;stroke-miterlimit:10;" d="M 0.114557 -0.00000144453 C 0.114557 0.0632641 0.0632616 0.114559 -0.0000038737 0.114559 C -0.0632694 0.114559 -0.114565 0.0632641 -0.114565 -0.00000144453 C -0.114565 -0.063267 -0.0632694 -0.114562 -0.0000038737 -0.114562 C 0.0632616 -0.114562 0.114557 -0.063267 0.114557 -0.00000144453 Z M 0.114557 -0.00000144453 " transform="matrix(171.647619,0,0,171.647619,398.727227,503.281498)"/>
<path style="fill-rule:nonzero;fill:rgb(100%,92.941176%,43.529412%);fill-opacity:1;stroke-width:0.0229123;stroke-linecap:butt;stroke-linejoin:miter;stroke:rgb(60%,60%,60%);stroke-opacity:0.8;stroke-miterlimit:10;" d="M 0.114559 -0.00000446411 C 0.114559 0.0632611 0.0632643 0.114556 -0.00000120191 0.114556 C -0.0632667 0.114556 -0.114562 0.0632611 -0.114562 -0.00000446411 C -0.114562 -0.06327 -0.0632667 -0.114565 -0.00000120191 -0.114565 C 0.0632643 -0.114565 0.114559 -0.06327 0.114559 -0.00000446411 Z M 0.114559 -0.00000446411 " transform="matrix(171.647619,0,0,171.647619,526.414269,373.12186)"/>
<path style="fill-rule:nonzero;fill:rgb(100%,92.941176%,43.529412%);fill-opacity:1;stroke-width:0.0229123;stroke-linecap:butt;stroke-linejoin:miter;stroke:rgb(60%,60%,60%);stroke-opacity:0.8;stroke-miterlimit:10;" d="M 0.114569 -0.00000542561 C 0.114569 0.0632601 0.0632738 0.114555 0.00000823761 0.114555 C -0.06328 0.114555 -0.114552 0.0632601 -0.114552 -0.00000542561 C -0.114552 -0.0632709 -0.06328 -0.114566 0.00000823761 -0.114566 C 0.0632738 -0.114566 0.114569 -0.0632709 0.114569 -0.00000542561 Z M 0.114569 -0.00000542561 " transform="matrix(171.647619,0,0,171.647619,463.420461,410.141556)"/>
<path style="fill-rule:nonzero;fill:rgb(100%,92.941176%,43.529412%);fill-opacity:1;stroke-width:0.0229123;stroke-linecap:butt;stroke-linejoin:miter;stroke:rgb(60%,60%,60%);stroke-opacity:0.8;stroke-miterlimit:10;" d="M 0.114565 0.00000279712 C 0.114565 0.0632683 0.0632701 0.114563 0.000004625 0.114563 C -0.0632609 0.114563 -0.114556 0.0632683 -0.114556 0.00000279712 C -0.114556 -0.0632627 -0.0632609 -0.114558 0.000004625 -0.114558 C 0.0632701 -0.114558 0.114565 -0.0632627 0.114565 0.00000279712 Z M 0.114565 0.00000279712 " transform="matrix(171.647619,0,0,171.647619,368.081237,424.78077)"/>
<path style="fill-rule:nonzero;fill:rgb(100%,92.941176%,43.529412%);fill-opacity:1;stroke-width:0.0229123;stroke-linecap:butt;stroke-linejoin:miter;stroke:rgb(60%,60%,60%);stroke-opacity:0.8;stroke-miterlimit:10;" d="M 0.114572 -0.000009728 C 0.114572 0.0632785 0.063277 0.114551 -0.0000112296 0.114551 C -0.0632767 0.114551 -0.114572 0.0632785 -0.114572 -0.000009728 C -0.114572 -0.0632752 -0.0632767 -0.11457 -0.0000112296 -0.11457 C 0.063277 -0.11457 0.114572 -0.0632752 0.114572 -0.000009728 Z M 0.114572 -0.000009728 " transform="matrix(171.647619,0,0,171.647619,341.095678,511.497764)"/>
<path style="fill-rule:nonzero;fill:rgb(55.294118%,82.745098%,78.039216%);fill-opacity:1;stroke-width:0.0229123;stroke-linecap:butt;stroke-linejoin:miter;stroke:rgb(60%,60%,60%);stroke-opacity:0.8;stroke-miterlimit:10;" d="M 0.114555 0.00000595515 C 0.114555 0.0632715 0.0632594 0.114567 -0.00000611667 0.114567 C -0.0632716 0.114567 -0.114567 0.0632715 -0.114567 0.00000595515 C -0.114567 -0.0632596 -0.0632716 -0.114555 -0.00000611667 -0.114555 C 0.0632594 -0.114555 0.114555 -0.0632596 0.114555 0.00000595515 Z M 0.114555 0.00000595515 " transform="matrix(171.647619,0,0,171.647619,41.153394,402.362259)"/>
<path style="fill-rule:nonzero;fill:rgb(55.294118%,82.745098%,78.039216%);fill-opacity:1;stroke-width:0.0229123;stroke-linecap:butt;stroke-linejoin:miter;stroke:rgb(60%,60%,60%);stroke-opacity:0.8;stroke-miterlimit:10;" d="M 0.114553 0.000000818701 C 0.114553 0.0632663 0.0632804 0.114561 -0.00000790439 0.114561 C -0.0632734 0.114561 -0.114569 0.0632663 -0.114569 0.000000818701 C -0.114569 -0.0632647 -0.0632734 -0.11456 -0.00000790439 -0.11456 C 0.0632804 -0.11456 0.114553 -0.0632647 0.114553 0.000000818701 Z M 0.114553 0.000000818701 " transform="matrix(171.647619,0,0,171.647619,78.423232,335.331891)"/>
<path style="fill-rule:nonzero;fill:rgb(55.294118%,82.745098%,78.039216%);fill-opacity:1;stroke-width:0.0229123;stroke-linecap:butt;stroke-linejoin:miter;stroke:rgb(60%,60%,60%);stroke-opacity:0.8;stroke-miterlimit:10;" d="M 0.114559 -0.00000109202 C 0.114559 0.0632644 0.0632638 0.11456 -0.00000167768 0.11456 C -0.0632672 0.11456 -0.114562 0.0632644 -0.114562 -0.00000109202 C -0.114562 -0.0632666 -0.0632672 -0.114562 -0.00000167768 -0.114562 C 0.0632638 -0.114562 0.114559 -0.0632666 0.114559 -0.00000109202 Z M 0.114559 -0.00000109202 " transform="matrix(171.647619,0,0,171.647619,108.6331,528.988469)"/>
<path style="fill-rule:nonzero;fill:rgb(55.294118%,82.745098%,78.039216%);fill-opacity:1;stroke-width:0.0229123;stroke-linecap:butt;stroke-linejoin:miter;stroke:rgb(60%,60%,60%);stroke-opacity:0.8;stroke-miterlimit:10;" d="M 0.114572 0.00000186092 C 0.114572 0.0632674 0.0632772 0.114563 -0.0000110574 0.114563 C -0.0632766 0.114563 -0.114572 0.0632674 -0.114572 0.00000186092 C -0.114572 -0.0632637 -0.0632766 -0.114559 -0.0000110574 -0.114559 C 0.0632772 -0.114559 0.114572 -0.0632637 0.114572 0.00000186092 Z M 0.114572 0.00000186092 " transform="matrix(171.647619,0,0,171.647619,105.642523,366.355149)"/>
<path style="fill-rule:nonzero;fill:rgb(55.294118%,82.745098%,78.039216%);fill-opacity:1;stroke-width:0.0229123;stroke-linecap:butt;stroke-linejoin:miter;stroke:rgb(60%,60%,60%);stroke-opacity:0.8;stroke-miterlimit:10;" d="M 0.114556 0.00000861173 C 0.114556 0.0632741 0.063261 0.114569 -0.0000044854 0.114569 C -0.06327 0.114569 -0.114565 0.0632741 -0.114565 0.00000861173 C -0.114565 -0.0632797 -0.06327 -0.114552 -0.0000044854 -0.114552 C 0.063261 -0.114552 0.114556 -0.0632797 0.114556 0.00000861173 Z M 0.114556 0.00000861173 " transform="matrix(171.647619,0,0,171.647619,81.871864,454.889147)"/>
</g>
</svg>
