<?xml version="1.0" encoding="UTF-8"?>
<svg xmlns="http://www.w3.org/2000/svg" xmlns:xlink="http://www.w3.org/1999/xlink" width="600pt" height="600pt" viewBox="0 0 600 600" version="1.1">
<defs>
<clipPath id="clip1">
  <path d="M 388 333 L 538 333 L 538 498 L 388 498 Z M 388 333 "/>
</clipPath>
<clipPath id="clip2">
  <path d="M 306.371094 285.753906 L 619.195312 285.753906 L 619.195312 545.957031 L 306.371094 545.957031 Z M 306.371094 285.753906 L 503.167969 445.097656 C 503.167969 455.429688 494.796875 463.804688 484.464844 463.804688 C 474.136719 463.804688 465.761719 455.429688 465.761719 445.097656 C 465.761719 434.769531 474.136719 426.394531 484.464844 426.394531 C 494.796875 426.394531 503.167969 434.769531 503.167969 445.097656 Z M 306.371094 285.753906 "/>
</clipPath>
<clipPath id="clip3">
  <path d="M 306.371094 285.753906 L 619.195312 285.753906 L 619.195312 545.957031 L 306.371094 545.957031 Z M 306.371094 285.753906 L 459.808594 386.617188 C 459.808594 396.949219 451.433594 405.324219 441.105469 405.324219 C 430.773438 405.324219 422.398438 396.949219 422.398438 386.617188 C 422.398438 376.289062 430.773438 367.914062 441.105469 367.914062 C 451.433594 367.914062 459.808594 376.289062 459.808594 386.617188 Z M 306.371094 285.753906 "/>
</clipPath>
<clipPath id="clip4">
  <path d="M 182 395 L 327 395 L 327 585 L 182 585 Z M 182 395 "/>
</clipPath>
<clipPath id="clip5">
  <path d="M 83.617188 376.285156 L 425.550781 376.285156 L 425.550781 604.101562 L 83.617188 604.101562 Z M 83.617188 376.285156 L 292.566406 531.785156 C 292.566406 542.117188 284.195312 550.488281 273.863281 550.488281 C 263.535156 550.488281 255.160156 542.117188 255.160156 531.785156 C 255.160156 521.457031 263.535156 513.082031 273.863281 513.082031 C 284.195312 513.082031 292.566406 521.457031 292.566406 531.785156 Z M 83.617188 376.285156 "/>
</clipPath>
<clipPath id="clip6">
  <path d="M 83.617188 376.285156 L 425.550781 376.285156 L 425.550781 604.101562 L 83.617188 604.101562 Z M 83.617188 376.285156 L 254.011719 448.605469 C 254.011719 458.933594 245.640625 467.308594 235.308594 467.308594 C 224.976562 467.308594 216.605469 458.933594 216.605469 448.605469 C 216.605469 438.273438 224.976562 429.898438 235.308594 429.898438 C 245.640625 429.898438 254.011719 438.273438 254.011719 448.605469 Z M 83.617188 376.285156 "/>
</clipPath>
<clipPath id="clip7">
  <path d="M 304 333 L 495 333 L 495 497 L 304 497 Z M 304 333 "/>
</clipPath>
<clipPath id="clip8">
  <path d="M 262.390625 247.921875 L 536.386719 247.921875 L 536.386719 581.902344 L 262.390625 581.902344 Z M 262.390625 247.921875 L 459.808594 386.617188 C 459.808594 396.949219 451.433594 405.324219 441.105469 405.324219 C 430.773438 405.324219 422.398438 396.949219 422.398438 386.617188 C 422.398438 376.289062 430.773438 367.914062 441.105469 367.914062 C 451.433594 367.914062 459.808594 376.289062 459.808594 386.617188 Z M 262.390625 247.921875 "/>
</clipPath>
<clipPath id="clip9">
  <path d="M 262.390625 247.921875 L 536.386719 247.921875 L 536.386719 581.902344 L 262.390625 581.902344 Z M 262.390625 247.921875 L 376.382812 443.210938 C 376.382812 453.539062 368.007812 461.914062 357.675781 461.914062 C 347.347656 461.914062 338.972656 453.539062 338.972656 443.210938 C 338.972656 432.878906 347.347656 424.503906 357.675781 424.503906 C 368.007812 424.503906 376.382812 432.878906 376.382812 443.210938 Z M 262.390625 247.921875 "/>
</clipPath>
<clipPath id="clip10">
  <path d="M 388 227.03125 L 502 227.03125 L 502 398.511719 L 388 398.511719 Z M 388 227.03125 "/>
</clipPath>
<clipPath id="clip11">
  <path d="M 274.496094 227.03125 L 615.105469 227.03125 L 615.105469 398.511719 L 274.496094 398.511719 Z M 274.496094 227.03125 L 459.808594 386.617188 C 459.808594 396.949219 451.433594 405.324219 441.105469 405.324219 C 430.773438 405.324219 422.398438 396.949219 422.398438 386.617188 C 422.398438 376.289062 430.773438 367.914062 441.105469 367.914062 C 451.433594 367.914062 459.808594 376.289062 459.808594 386.617188 Z M 274.496094 227.03125 "/>
</clipPath>
<clipPath id="clip12">
  <path d="M 274.496094 227.03125 L 615.105469 227.03125 L 615.105469 398.511719 L 274.496094 398.511719 Z M 274.496094 227.03125 L 467.207031 238.929688 C 467.207031 249.257812 458.832031 257.632812 448.5 257.632812 C 438.171875 257.632812 429.796875 249.257812 429.796875 238.929688 C 429.796875 228.597656 438.171875 220.222656 448.5 220.222656 C 458.832031 220.222656 467.207031 228.597656 467.207031 238.929688 Z M 274.496094 227.03125 "/>
</clipPath>
<clipPath id="clip13">
  <path d="M 224.382812 390 L 368.597656 390 L 368.597656 502 L 224.382812 502 Z M 224.382812 390 "/>
</clipPath>
<clipPath id="clip14">
  <path d="M 224.382812 276.554688 L 368.597656 276.554688 L 368.597656 615.257812 L 224.382812 615.257812 Z M 224.382812 276.554688 L 376.382812 443.210938 C 376.382812 453.539062 368.007812 461.914062 357.675781 461.914062 C 347.347656 461.914062 338.972656 453.539062 338.972656 443.210938 C 338.972656 432.878906 347.347656 424.503906 357.675781 424.503906 C 368.007812 424.503906 376.382812 432.878906 376.382812 443.210938 Z M 224.382812 276.554688 "/>
</clipPath>
<clipPath id="clip15">
  <path d="M 224.382812 276.554688 L 368.597656 276.554688 L 368.597656 615.257812 L 224.382812 615.257812 Z M 224.382812 276.554688 L 254.011719 448.605469 C 254.011719 458.933594 245.640625 467.308594 235.308594 467.308594 C 224.976562 467.308594 216.605469 458.933594 216.605469 448.605469 C 216.605469 438.273438 224.976562 429.898438 235.308594 429.898438 C 245.640625 429.898438 254.011719 438.273438 254.011719 448.605469 Z M 224.382812 276.554688 "/>
</clipPath>
<clipPath id="clip16">
  <path d="M 131 395 L 289 395 L 289 520 L 131 520 Z M 131 395 "/>
</clipPath>
<clipPath id="clip17">
  <path d="M 127.195312 290.773438 L 292.417969 290.773438 L 292.417969 624.097656 L 127.195312 624.097656 Z M 127.195312 290.773438 L 254.011719 448.605469 C 254.011719 458.933594 245.640625 467.308594 235.308594 467.308594 C 224.976562 467.308594 216.605469 458.933594 216.605469 448.605469 C 216.605469 438.273438 224.976562 429.898438 235.308594 429.898438 C 245.640625 429.898438 254.011719 438.273438 254.011719 448.605469 Z M 127.195312 290.773438 "/>
</clipPath>
<clipPath id="clip18">
  <path d="M 127.195312 290.773438 L 292.417969 290.773438 L 292.417969 624.097656 L 127.195312 624.097656 Z M 127.195312 290.773438 L 203.011719 466.269531 C 203.011719 476.597656 194.636719 484.972656 184.308594 484.972656 C 173.976562 484.972656 165.601562 476.597656 165.601562 466.269531 C 165.601562 455.9375 173.976562 447.566406 184.308594 447.566406 C 194.636719 447.566406 203.011719 455.9375 203.011719 466.269531 Z M 127.195312 290.773438 "/>
</clipPath>
<clipPath id="clip19">
  <path d="M 113 306 L 289 306 L 289 502 L 113 502 Z M 113 306 "/>
</clipPath>
<clipPath id="clip20">
  <path d="M 33.625 255.964844 L 368.058594 255.964844 L 368.058594 552.085938 L 33.625 552.085938 Z M 33.625 255.964844 L 254.011719 448.605469 C 254.011719 458.933594 245.640625 467.308594 235.308594 467.308594 C 224.976562 467.308594 216.605469 458.933594 216.605469 448.605469 C 216.605469 438.273438 224.976562 429.898438 235.308594 429.898438 C 245.640625 429.898438 254.011719 438.273438 254.011719 448.605469 Z M 33.625 255.964844 "/>
</clipPath>
<clipPath id="clip21">
  <path d="M 33.625 255.964844 L 368.058594 255.964844 L 368.058594 552.085938 L 33.625 552.085938 Z M 33.625 255.964844 L 185.082031 359.449219 C 185.082031 369.78125 176.710938 378.15625 166.378906 378.15625 C 156.050781 378.15625 147.675781 369.78125 147.675781 359.449219 C 147.675781 349.121094 156.050781 340.746094 166.378906 340.746094 C 176.710938 340.746094 185.082031 349.121094 185.082031 359.449219 Z M 33.625 255.964844 "/>
</clipPath>
<clipPath id="clip22">
  <path d="M 95 347 L 289 347 L 289 502 L 95 502 Z M 95 347 "/>
</clipPath>
<clipPath id="clip23">
  <path d="M 65.695312 253.9375 L 317.527344 253.9375 L 317.527344 595.289062 L 65.695312 595.289062 Z M 65.695312 253.9375 L 254.011719 448.605469 C 254.011719 458.933594 245.640625 467.308594 235.308594 467.308594 C 224.976562 467.308594 216.605469 458.933594 216.605469 448.605469 C 216.605469 438.273438 224.976562 429.898438 235.308594 429.898438 C 245.640625 429.898438 254.011719 438.273438 254.011719 448.605469 Z M 65.695312 253.9375 "/>
</clipPath>
<clipPath id="clip24">
  <path d="M 65.695312 253.9375 L 317.527344 253.9375 L 317.527344 595.289062 L 65.695312 595.289062 Z M 65.695312 253.9375 L 166.625 400.625 C 166.625 410.957031 158.25 419.332031 147.917969 419.332031 C 137.589844 419.332031 129.214844 410.957031 129.214844 400.625 C 129.214844 390.296875 137.589844 381.921875 147.917969 381.921875 C 158.25 381.921875 166.625 390.296875 166.625 400.625 Z M 65.695312 253.9375 "/>
</clipPath>
<clipPath id="clip25">
  <path d="M 95 347 L 238 347 L 238 520 L 95 520 Z M 95 347 "/>
</clipPath>
<clipPath id="clip26">
  <path d="M 1.554688 317.820312 L 330.667969 317.820312 L 330.667969 549.070312 L 1.554688 549.070312 Z M 1.554688 317.820312 L 203.011719 466.269531 C 203.011719 476.597656 194.636719 484.972656 184.308594 484.972656 C 173.976562 484.972656 165.601562 476.597656 165.601562 466.269531 C 165.601562 455.9375 173.976562 447.566406 184.308594 447.566406 C 194.636719 447.566406 203.011719 455.9375 203.011719 466.269531 Z M 1.554688 317.820312 "/>
</clipPath>
<clipPath id="clip27">
  <path d="M 1.554688 317.820312 L 330.667969 317.820312 L 330.667969 549.070312 L 1.554688 549.070312 Z M 1.554688 317.820312 L 166.625 400.625 C 166.625 410.957031 158.25 419.332031 147.917969 419.332031 C 137.589844 419.332031 129.214844 410.957031 129.214844 400.625 C 129.214844 390.296875 137.589844 381.921875 147.917969 381.921875 C 158.25 381.921875 166.625 390.296875 166.625 400.625 Z M 1.554688 317.820312 "/>
</clipPath>
<clipPath id="clip28">
  <path d="M 58 212 L 220 212 L 220 413 L 58 413 Z M 58 212 "/>
</clipPath>
<clipPath id="clip29">
  <path d="M -33.046875 179.425781 L 310.816406 179.425781 L 310.816406 445.625 L -33.046875 445.625 Z M -33.046875 179.425781 L 130.097656 265.605469 C 130.097656 275.933594 121.722656 284.308594 111.394531 284.308594 C 101.0625 284.308594 92.6875 275.933594 92.6875 265.605469 C 92.6875 255.273438 101.0625 246.898438 111.394531 246.898438 C 121.722656 246.898438 130.097656 255.273438 130.097656 265.605469 Z M -33.046875 179.425781 "/>
</clipPath>
<clipPath id="clip30">
  <path d="M -33.046875 179.425781 L 310.816406 179.425781 L 310.816406 445.625 L -33.046875 445.625 Z M -33.046875 179.425781 L 185.082031 359.449219 C 185.082031 369.78125 176.710938 378.15625 166.378906 378.15625 C 156.050781 378.15625 147.675781 369.78125 147.675781 359.449219 C 147.675781 349.121094 156.050781 340.746094 166.378906 340.746094 C 176.710938 340.746094 185.082031 349.121094 185.082031 359.449219 Z M -33.046875 179.425781 "/>
</clipPath>
<clipPath id="clip31">
  <path d="M 58 219.28125 L 201 219.28125 L 201 446.945312 L 58 446.945312 Z M 58 219.28125 "/>
</clipPath>
<clipPath id="clip32">
  <path d="M -49.761719 219.28125 L 309.070312 219.28125 L 309.070312 446.945312 L -49.761719 446.945312 Z M -49.761719 219.28125 L 130.097656 265.605469 C 130.097656 275.933594 121.722656 284.308594 111.394531 284.308594 C 101.0625 284.308594 92.6875 275.933594 92.6875 265.605469 C 92.6875 255.273438 101.0625 246.898438 111.394531 246.898438 C 121.722656 246.898438 130.097656 255.273438 130.097656 265.605469 Z M -49.761719 219.28125 "/>
</clipPath>
<clipPath id="clip33">
  <path d="M -49.761719 219.28125 L 309.070312 219.28125 L 309.070312 446.945312 L -49.761719 446.945312 Z M -49.761719 219.28125 L 166.625 400.625 C 166.625 410.957031 158.25 419.332031 147.917969 419.332031 C 137.589844 419.332031 129.214844 410.957031 129.214844 400.625 C 129.214844 390.296875 137.589844 381.921875 147.917969 381.921875 C 158.25 381.921875 166.625 390.296875 166.625 400.625 Z M -49.761719 219.28125 "/>
</clipPath>
<clipPath id="clip34">
  <path d="M 58 108.035156 L 184 108.035156 L 184 293.273438 L 58 293.273438 Z M 58 108.035156 "/>
</clipPath>
<clipPath id="clip35">
  <path d="M -53.652344 108.035156 L 295.707031 108.035156 L 295.707031 293.273438 L -53.652344 293.273438 Z M -53.652344 108.035156 L 130.097656 265.605469 C 130.097656 275.933594 121.722656 284.308594 111.394531 284.308594 C 101.0625 284.308594 92.6875 275.933594 92.6875 265.605469 C 92.6875 255.273438 101.0625 246.898438 111.394531 246.898438 C 121.722656 246.898438 130.097656 255.273438 130.097656 265.605469 Z M -53.652344 108.035156 "/>
</clipPath>
<clipPath id="clip36">
  <path d="M -53.652344 108.035156 L 295.707031 108.035156 L 295.707031 293.273438 L -53.652344 293.273438 Z M -53.652344 108.035156 L 149.367188 135.707031 C 149.367188 146.039062 140.996094 154.410156 130.664062 154.410156 C 120.335938 154.410156 111.960938 146.039062 111.960938 135.707031 C 111.960938 125.378906 120.335938 117.003906 130.664062 117.003906 C 140.996094 117.003906 149.367188 125.378906 149.367188 135.707031 Z M -53.652344 108.035156 "/>
</clipPath>
<clipPath id="clip37">
  <path d="M 9.34375 200 L 141.921875 200 L 141.921875 319 L 9.34375 319 Z M 9.34375 200 "/>
</clipPath>
<clipPath id="clip38">
  <path d="M 9.34375 89.097656 L 141.921875 89.097656 L 141.921875 430.199219 L 9.34375 430.199219 Z M 9.34375 89.097656 L 130.097656 265.605469 C 130.097656 275.933594 121.722656 284.308594 111.394531 284.308594 C 101.0625 284.308594 92.6875 275.933594 92.6875 265.605469 C 92.6875 255.273438 101.0625 246.898438 111.394531 246.898438 C 121.722656 246.898438 130.097656 255.273438 130.097656 265.605469 Z M 9.34375 89.097656 "/>
</clipPath>
<clipPath id="clip39">
  <path d="M 9.34375 89.097656 L 141.921875 89.097656 L 141.921875 430.199219 L 9.34375 430.199219 Z M 9.34375 89.097656 L 58.582031 253.695312 C 58.582031 264.027344 50.207031 272.402344 39.875 272.402344 C 29.546875 272.402344 21.171875 264.027344 21.171875 253.695312 C 21.171875 243.367188 29.546875 234.992188 39.875 234.992188 C 50.207031 234.992188 58.582031 243.367188 58.582031 253.695312 Z M 9.34375 89.097656 "/>
</clipPath>
<clipPath id="clip40">
  <path d="M 27 149 L 165 149 L 165 319 L 27 319 Z M 27 149 "/>
</clipPath>
<clipPath id="clip41">
  <path d="M -70 126.097656 L 261.402344 126.097656 L 261.402344 341.4375 L -70 341.4375 Z M -70 126.097656 L 130.097656 265.605469 C 130.097656 275.933594 121.722656 284.308594 111.394531 284.308594 C 101.0625 284.308594 92.6875 275.933594 92.6875 265.605469 C 92.6875 255.273438 101.0625 246.898438 111.394531 246.898438 C 121.722656 246.898438 130.097656 255.273438 130.097656 265.605469 Z M -70 126.097656 "/>
</clipPath>
<clipPath id="clip42">
  <path d="M -70 126.097656 L 261.402344 126.097656 L 261.402344 341.4375 L -70 341.4375 Z M -70 126.097656 L 98.714844 201.933594 C 98.714844 212.261719 90.339844 220.636719 80.011719 220.636719 C 69.679688 220.636719 61.304688 212.261719 61.304688 201.933594 C 61.304688 191.601562 69.679688 183.226562 80.011719 183.226562 C 90.339844 183.226562 98.714844 191.601562 98.714844 201.933594 Z M -70 126.097656 "/>
</clipPath>
<clipPath id="clip43">
  <path d="M 95 306 L 220 306 L 220 454 L 95 454 Z M 95 306 "/>
</clipPath>
<clipPath id="clip44">
  <path d="M -4.625 288.992188 L 318.917969 288.992188 L 318.917969 471.078125 L -4.625 471.078125 Z M -4.625 288.992188 L 185.082031 359.449219 C 185.082031 369.78125 176.710938 378.15625 166.378906 378.15625 C 156.050781 378.15625 147.675781 369.78125 147.675781 359.449219 C 147.675781 349.121094 156.050781 340.746094 166.378906 340.746094 C 176.710938 340.746094 185.082031 349.121094 185.082031 359.449219 Z M -4.625 288.992188 "/>
</clipPath>
<clipPath id="clip45">
  <path d="M -4.625 288.992188 L 318.917969 288.992188 L 318.917969 471.078125 L -4.625 471.078125 Z M -4.625 288.992188 L 166.625 400.625 C 166.625 410.957031 158.25 419.332031 147.917969 419.332031 C 137.589844 419.332031 129.214844 410.957031 129.214844 400.625 C 129.214844 390.296875 137.589844 381.921875 147.917969 381.921875 C 158.25 381.921875 166.625 390.296875 166.625 400.625 Z M -4.625 288.992188 "/>
</clipPath>
<clipPath id="clip46">
  <path d="M 26 347 L 201 347 L 201 495 L 26 495 Z M 26 347 "/>
</clipPath>
<clipPath id="clip47">
  <path d="M -7.367188 256.820312 L 235.167969 256.820312 L 235.167969 584.988281 L -7.367188 584.988281 Z M -7.367188 256.820312 L 98.589844 441.1875 C 98.589844 451.515625 90.214844 459.890625 79.886719 459.890625 C 69.554688 459.890625 61.183594 451.515625 61.183594 441.1875 C 61.183594 430.855469 69.554688 422.480469 79.886719 422.480469 C 90.214844 422.480469 98.589844 430.855469 98.589844 441.1875 Z M -7.367188 256.820312 "/>
</clipPath>
<clipPath id="clip48">
  <path d="M -7.367188 256.820312 L 235.167969 256.820312 L 235.167969 584.988281 L -7.367188 584.988281 Z M -7.367188 256.820312 L 166.625 400.625 C 166.625 410.957031 158.25 419.332031 147.917969 419.332031 C 137.589844 419.332031 129.214844 410.957031 129.214844 400.625 C 129.214844 390.296875 137.589844 381.921875 147.917969 381.921875 C 158.25 381.921875 166.625 390.296875 166.625 400.625 Z M -7.367188 256.820312 "/>
</clipPath>
<clipPath id="clip49">
  <path d="M 77 31.742188 L 198 31.742188 L 198 172.175781 L 77 172.175781 Z M 77 31.742188 "/>
</clipPath>
<clipPath id="clip50">
  <path d="M -32.832031 31.742188 L 307.984375 31.742188 L 307.984375 172.175781 L -32.832031 172.175781 Z M -32.832031 31.742188 L 163.195312 68.214844 C 163.195312 78.542969 154.820312 86.917969 144.492188 86.917969 C 134.160156 86.917969 125.785156 78.542969 125.785156 68.214844 C 125.785156 57.882812 134.160156 49.511719 144.492188 49.511719 C 154.820312 49.511719 163.195312 57.882812 163.195312 68.214844 Z M -32.832031 31.742188 "/>
</clipPath>
<clipPath id="clip51">
  <path d="M -32.832031 31.742188 L 307.984375 31.742188 L 307.984375 172.175781 L -32.832031 172.175781 Z M -32.832031 31.742188 L 149.367188 135.707031 C 149.367188 146.039062 140.996094 154.410156 130.664062 154.410156 C 120.335938 154.410156 111.960938 146.039062 111.960938 135.707031 C 111.960938 125.378906 120.335938 117.003906 130.664062 117.003906 C 140.996094 117.003906 149.367188 125.378906 149.367188 135.707031 Z M -32.832031 31.742188 "/>
</clipPath>
<clipPath id="clip52">
  <path d="M 356 22 L 503 22 L 503 216 L 356 216 Z M 356 22 "/>
</clipPath>
<clipPath id="clip53">
  <path d="M 257.566406 3.910156 L 601.457031 3.910156 L 601.457031 233.890625 L 257.566406 233.890625 Z M 257.566406 3.910156 L 428.347656 75.394531 C 428.347656 85.726562 419.972656 94.097656 409.644531 94.097656 C 399.3125 94.097656 390.9375 85.726562 390.9375 75.394531 C 390.9375 65.066406 399.3125 56.691406 409.644531 56.691406 C 419.972656 56.691406 428.347656 65.066406 428.347656 75.394531 Z M 257.566406 3.910156 "/>
</clipPath>
<clipPath id="clip54">
  <path d="M 257.566406 3.910156 L 601.457031 3.910156 L 601.457031 233.890625 L 257.566406 233.890625 Z M 257.566406 3.910156 L 468.085938 162.410156 C 468.085938 172.738281 459.714844 181.113281 449.382812 181.113281 C 439.050781 181.113281 430.679688 172.738281 430.679688 162.410156 C 430.679688 152.078125 439.050781 143.703125 449.382812 143.703125 C 459.714844 143.703125 468.085938 152.078125 468.085938 162.410156 Z M 257.566406 3.910156 "/>
</clipPath>
<clipPath id="clip55">
  <path d="M 347.589844 17 L 433.894531 17 L 433.894531 129 L 347.589844 129 Z M 347.589844 17 "/>
</clipPath>
<clipPath id="clip56">
  <path d="M 347.589844 -94.917969 L 433.894531 -94.917969 L 433.894531 240.910156 L 347.589844 240.910156 Z M 347.589844 -94.917969 L 428.347656 75.394531 C 428.347656 85.726562 419.972656 94.097656 409.644531 94.097656 C 399.3125 94.097656 390.9375 85.726562 390.9375 75.394531 C 390.9375 65.066406 399.3125 56.691406 409.644531 56.691406 C 419.972656 56.691406 428.347656 65.066406 428.347656 75.394531 Z M 347.589844 -94.917969 "/>
</clipPath>
<clipPath id="clip57">
  <path d="M 347.589844 -94.917969 L 433.894531 -94.917969 L 433.894531 240.910156 L 347.589844 240.910156 Z M 347.589844 -94.917969 L 390.546875 70.601562 C 390.546875 80.933594 382.171875 89.308594 371.84375 89.308594 C 361.511719 89.308594 353.136719 80.933594 353.136719 70.601562 C 353.136719 60.273438 361.511719 51.898438 371.84375 51.898438 C 382.171875 51.898438 390.546875 60.273438 390.546875 70.601562 Z M 347.589844 -94.917969 "/>
</clipPath>
<clipPath id="clip58">
  <path d="M 355 93 L 503 93 L 503 216 L 355 216 Z M 355 93 "/>
</clipPath>
<clipPath id="clip59">
  <path d="M 344.757812 -9.265625 L 512.855469 -9.265625 L 512.855469 317.882812 L 344.757812 317.882812 Z M 344.757812 -9.265625 L 468.085938 162.410156 C 468.085938 172.738281 459.714844 181.113281 449.382812 181.113281 C 439.050781 181.113281 430.679688 172.738281 430.679688 162.410156 C 430.679688 152.078125 439.050781 143.703125 449.382812 143.703125 C 459.714844 143.703125 468.085938 152.078125 468.085938 162.410156 Z M 344.757812 -9.265625 "/>
</clipPath>
<clipPath id="clip60">
  <path d="M 344.757812 -9.265625 L 512.855469 -9.265625 L 512.855469 317.882812 L 344.757812 317.882812 Z M 344.757812 -9.265625 L 426.9375 146.210938 C 426.9375 156.539062 418.5625 164.914062 408.234375 164.914062 C 397.902344 164.914062 389.527344 156.539062 389.527344 146.210938 C 389.527344 135.878906 397.902344 127.507812 408.234375 127.507812 C 418.5625 127.507812 426.9375 135.878906 426.9375 146.210938 Z M 344.757812 -9.265625 "/>
</clipPath>
<clipPath id="clip61">
  <path d="M 396 109 L 558 109 L 558 275 L 396 275 Z M 396 109 "/>
</clipPath>
<clipPath id="clip62">
  <path d="M 325.824219 48.054688 L 627.964844 48.054688 L 627.964844 336.367188 L 325.824219 336.367188 Z M 325.824219 48.054688 L 468.085938 162.410156 C 468.085938 172.738281 459.714844 181.113281 449.382812 181.113281 C 439.050781 181.113281 430.679688 172.738281 430.679688 162.410156 C 430.679688 152.078125 439.050781 143.703125 449.382812 143.703125 C 459.714844 143.703125 468.085938 152.078125 468.085938 162.410156 Z M 325.824219 48.054688 "/>
</clipPath>
<clipPath id="clip63">
  <path d="M 325.824219 48.054688 L 627.964844 48.054688 L 627.964844 336.367188 L 325.824219 336.367188 Z M 325.824219 48.054688 L 523.117188 222.015625 C 523.117188 232.347656 514.742188 240.722656 504.410156 240.722656 C 494.082031 240.722656 485.707031 232.347656 485.707031 222.015625 C 485.707031 211.6875 494.082031 203.3125 504.410156 203.3125 C 514.742188 203.3125 523.117188 211.6875 523.117188 222.015625 Z M 325.824219 48.054688 "/>
</clipPath>
<clipPath id="clip64">
  <path d="M 395 156.785156 L 503 156.785156 L 503 244.550781 L 395 244.550781 Z M 395 156.785156 "/>
</clipPath>
<clipPath id="clip65">
  <path d="M 281.699219 156.785156 L 616.179688 156.785156 L 616.179688 244.550781 L 281.699219 244.550781 Z M 281.699219 156.785156 L 468.085938 162.410156 C 468.085938 172.738281 459.714844 181.113281 449.382812 181.113281 C 439.050781 181.113281 430.679688 172.738281 430.679688 162.410156 C 430.679688 152.078125 439.050781 143.703125 449.382812 143.703125 C 459.714844 143.703125 468.085938 152.078125 468.085938 162.410156 Z M 281.699219 156.785156 "/>
</clipPath>
<clipPath id="clip66">
  <path d="M 281.699219 156.785156 L 616.179688 156.785156 L 616.179688 244.550781 L 281.699219 244.550781 Z M 281.699219 156.785156 L 467.207031 238.929688 C 467.207031 249.257812 458.832031 257.632812 448.5 257.632812 C 438.171875 257.632812 429.796875 249.257812 429.796875 238.929688 C 429.796875 228.597656 438.171875 220.222656 448.5 220.222656 C 458.832031 220.222656 467.207031 228.597656 467.207031 238.929688 Z M 281.699219 156.785156 "/>
</clipPath>
<clipPath id="clip67">
  <path d="M 318 17 L 462 17 L 462 200 L 318 200 Z M 318 17 "/>
</clipPath>
<clipPath id="clip68">
  <path d="M 221.164062 -3.863281 L 558.910156 -3.863281 L 558.910156 220.671875 L 221.164062 220.671875 Z M 221.164062 -3.863281 L 390.546875 70.601562 C 390.546875 80.933594 382.171875 89.308594 371.84375 89.308594 C 361.511719 89.308594 353.136719 80.933594 353.136719 70.601562 C 353.136719 60.273438 361.511719 51.898438 371.84375 51.898438 C 382.171875 51.898438 390.546875 60.273438 390.546875 70.601562 Z M 221.164062 -3.863281 "/>
</clipPath>
<clipPath id="clip69">
  <path d="M 221.164062 -3.863281 L 558.910156 -3.863281 L 558.910156 220.671875 L 221.164062 220.671875 Z M 221.164062 -3.863281 L 426.9375 146.210938 C 426.9375 156.539062 418.5625 164.914062 408.234375 164.914062 C 397.902344 164.914062 389.527344 156.539062 389.527344 146.210938 C 389.527344 135.878906 397.902344 127.507812 408.234375 127.507812 C 418.5625 127.507812 426.9375 135.878906 426.9375 146.210938 Z M 221.164062 -3.863281 "/>
</clipPath>
<clipPath id="clip70">
  <path d="M 355 93 L 502 93 L 502 292 L 355 292 Z M 355 93 "/>
</clipPath>
<clipPath id="clip71">
  <path d="M 254.917969 77.511719 L 601.8125 77.511719 L 601.8125 307.625 L 254.917969 307.625 Z M 254.917969 77.511719 L 426.9375 146.210938 C 426.9375 156.539062 418.5625 164.914062 408.234375 164.914062 C 397.902344 164.914062 389.527344 156.539062 389.527344 146.210938 C 389.527344 135.878906 397.902344 127.507812 408.234375 127.507812 C 418.5625 127.507812 426.9375 135.878906 426.9375 146.210938 Z M 254.917969 77.511719 "/>
</clipPath>
<clipPath id="clip72">
  <path d="M 254.917969 77.511719 L 601.8125 77.511719 L 601.8125 307.625 L 254.917969 307.625 Z M 254.917969 77.511719 L 467.207031 238.929688 C 467.207031 249.257812 458.832031 257.632812 448.5 257.632812 C 438.171875 257.632812 429.796875 249.257812 429.796875 238.929688 C 429.796875 228.597656 438.171875 220.222656 448.5 220.222656 C 458.832031 220.222656 467.207031 228.597656 467.207031 238.929688 Z M 254.917969 77.511719 "/>
</clipPath>
<clipPath id="clip73">
  <path d="M 451 169 L 600 169 L 600 313 L 451 313 Z M 451 169 "/>
</clipPath>
<clipPath id="clip74">
  <path d="M 409.886719 82.808594 L 654.644531 82.808594 L 654.644531 398.554688 L 409.886719 398.554688 Z M 409.886719 82.808594 L 578.828125 259.351562 C 578.828125 269.679688 570.453125 278.054688 560.125 278.054688 C 549.792969 278.054688 541.417969 269.679688 541.417969 259.351562 C 541.417969 249.019531 549.792969 240.644531 560.125 240.644531 C 570.453125 240.644531 578.828125 249.019531 578.828125 259.351562 Z M 409.886719 82.808594 "/>
</clipPath>
<clipPath id="clip75">
  <path d="M 409.886719 82.808594 L 654.644531 82.808594 L 654.644531 398.554688 L 409.886719 398.554688 Z M 409.886719 82.808594 L 523.117188 222.015625 C 523.117188 232.347656 514.742188 240.722656 504.410156 240.722656 C 494.082031 240.722656 485.707031 232.347656 485.707031 222.015625 C 485.707031 211.6875 494.082031 203.3125 504.410156 203.3125 C 514.742188 203.3125 523.117188 211.6875 523.117188 222.015625 Z M 409.886719 82.808594 "/>
</clipPath>
<clipPath id="clip76">
  <path d="M 397.539062 169 L 555.367188 169 L 555.367188 292 L 397.539062 292 Z M 397.539062 169 "/>
</clipPath>
<clipPath id="clip77">
  <path d="M 397.539062 62.1875 L 555.367188 62.1875 L 555.367188 398.753906 L 397.539062 398.753906 Z M 397.539062 62.1875 L 523.117188 222.015625 C 523.117188 232.347656 514.742188 240.722656 504.410156 240.722656 C 494.082031 240.722656 485.707031 232.347656 485.707031 222.015625 C 485.707031 211.6875 494.082031 203.3125 504.410156 203.3125 C 514.742188 203.3125 523.117188 211.6875 523.117188 222.015625 Z M 397.539062 62.1875 "/>
</clipPath>
<clipPath id="clip78">
  <path d="M 397.539062 62.1875 L 555.367188 62.1875 L 555.367188 398.753906 L 397.539062 398.753906 Z M 397.539062 62.1875 L 467.207031 238.929688 C 467.207031 249.257812 458.832031 257.632812 448.5 257.632812 C 438.171875 257.632812 429.796875 249.257812 429.796875 238.929688 C 429.796875 228.597656 438.171875 220.222656 448.5 220.222656 C 458.832031 220.222656 467.207031 228.597656 467.207031 238.929688 Z M 397.539062 62.1875 "/>
</clipPath>
</defs>
<g id="surface6">
<g clip-path="url(#clip1)" clip-rule="nonzero">
<g clip-path="url(#clip2)" clip-rule="evenodd">
<g clip-path="url(#clip3)" clip-rule="evenodd">
<path style="fill:none;stroke-width:0.0229402;stroke-linecap:butt;stroke-linejoin:miter;stroke:rgb(17.96875%,20.3125%,21.09375%);stroke-opacity:0.8;stroke-miterlimit:10;" d="M 3.912015 3.939911 L 3.646122 3.581291 " transform="matrix(163.070821,0,0,163.070821,-153.47065,-197.386858)"/>
</g>
</g>
</g>
<g clip-path="url(#clip4)" clip-rule="nonzero">
<g clip-path="url(#clip5)" clip-rule="evenodd">
<g clip-path="url(#clip6)" clip-rule="evenodd">
<path style="fill:none;stroke-width:0.0229402;stroke-linecap:butt;stroke-linejoin:miter;stroke:rgb(17.96875%,20.3125%,21.09375%);stroke-opacity:0.8;stroke-miterlimit:10;" d="M 2.620542 4.471505 L 2.384113 3.961422 " transform="matrix(163.070821,0,0,163.070821,-153.47065,-197.386858)"/>
</g>
</g>
</g>
<g clip-path="url(#clip7)" clip-rule="nonzero">
<g clip-path="url(#clip8)" clip-rule="evenodd">
<g clip-path="url(#clip9)" clip-rule="evenodd">
<path style="fill:none;stroke-width:0.0229402;stroke-linecap:butt;stroke-linejoin:miter;stroke:rgb(17.96875%,20.3125%,21.09375%);stroke-opacity:0.8;stroke-miterlimit:10;" d="M 3.646122 3.581291 L 3.134506 3.928341 " transform="matrix(163.070821,0,0,163.070821,-153.47065,-197.386858)"/>
</g>
</g>
</g>
<g clip-path="url(#clip10)" clip-rule="nonzero">
<g clip-path="url(#clip11)" clip-rule="evenodd">
<g clip-path="url(#clip12)" clip-rule="evenodd">
<path style="fill:none;stroke-width:0.0229402;stroke-linecap:butt;stroke-linejoin:miter;stroke:rgb(17.96875%,20.3125%,21.09375%);stroke-opacity:0.8;stroke-miterlimit:10;" d="M 3.646122 3.581291 L 3.691468 2.675626 " transform="matrix(163.070821,0,0,163.070821,-153.47065,-197.386858)"/>
</g>
</g>
</g>
<g clip-path="url(#clip13)" clip-rule="nonzero">
<g clip-path="url(#clip14)" clip-rule="evenodd">
<g clip-path="url(#clip15)" clip-rule="evenodd">
<path style="fill:none;stroke-width:0.0229402;stroke-linecap:butt;stroke-linejoin:miter;stroke:rgb(17.96875%,20.3125%,21.09375%);stroke-opacity:0.8;stroke-miterlimit:10;" d="M 3.134506 3.928341 L 2.384113 3.961422 " transform="matrix(163.070821,0,0,163.070821,-153.47065,-197.386858)"/>
</g>
</g>
</g>
<g clip-path="url(#clip16)" clip-rule="nonzero">
<g clip-path="url(#clip17)" clip-rule="evenodd">
<g clip-path="url(#clip18)" clip-rule="evenodd">
<path style="fill:none;stroke-width:0.0229402;stroke-linecap:butt;stroke-linejoin:miter;stroke:rgb(17.96875%,20.3125%,21.09375%);stroke-opacity:0.8;stroke-miterlimit:10;" d="M 2.384113 3.961422 L 2.071365 4.069743 " transform="matrix(163.070821,0,0,163.070821,-153.47065,-197.386858)"/>
</g>
</g>
</g>
<g clip-path="url(#clip19)" clip-rule="nonzero">
<g clip-path="url(#clip20)" clip-rule="evenodd">
<g clip-path="url(#clip21)" clip-rule="evenodd">
<path style="fill:none;stroke-width:0.0229402;stroke-linecap:butt;stroke-linejoin:miter;stroke:rgb(17.96875%,20.3125%,21.09375%);stroke-opacity:0.8;stroke-miterlimit:10;" d="M 2.384113 3.961422 L 1.961415 3.414689 " transform="matrix(163.070821,0,0,163.070821,-153.47065,-197.386858)"/>
</g>
</g>
</g>
<g clip-path="url(#clip22)" clip-rule="nonzero">
<g clip-path="url(#clip23)" clip-rule="evenodd">
<g clip-path="url(#clip24)" clip-rule="evenodd">
<path style="fill:none;stroke-width:0.0229402;stroke-linecap:butt;stroke-linejoin:miter;stroke:rgb(17.96875%,20.3125%,21.09375%);stroke-opacity:0.8;stroke-miterlimit:10;" d="M 2.384113 3.961422 L 1.848207 3.667191 " transform="matrix(163.070821,0,0,163.070821,-153.47065,-197.386858)"/>
</g>
</g>
</g>
<g clip-path="url(#clip25)" clip-rule="nonzero">
<g clip-path="url(#clip26)" clip-rule="evenodd">
<g clip-path="url(#clip27)" clip-rule="evenodd">
<path style="fill:none;stroke-width:0.0229402;stroke-linecap:butt;stroke-linejoin:miter;stroke:rgb(17.96875%,20.3125%,21.09375%);stroke-opacity:0.8;stroke-miterlimit:10;" d="M 2.071365 4.069743 L 1.848207 3.667191 " transform="matrix(163.070821,0,0,163.070821,-153.47065,-197.386858)"/>
</g>
</g>
</g>
<g clip-path="url(#clip28)" clip-rule="nonzero">
<g clip-path="url(#clip29)" clip-rule="evenodd">
<g clip-path="url(#clip30)" clip-rule="evenodd">
<path style="fill:none;stroke-width:0.0229402;stroke-linecap:butt;stroke-linejoin:miter;stroke:rgb(17.96875%,20.3125%,21.09375%);stroke-opacity:0.8;stroke-miterlimit:10;" d="M 1.624234 2.83921 L 1.961415 3.414689 " transform="matrix(163.070821,0,0,163.070821,-153.47065,-197.386858)"/>
</g>
</g>
</g>
<g clip-path="url(#clip31)" clip-rule="nonzero">
<g clip-path="url(#clip32)" clip-rule="evenodd">
<g clip-path="url(#clip33)" clip-rule="evenodd">
<path style="fill:none;stroke-width:0.0229402;stroke-linecap:butt;stroke-linejoin:miter;stroke:rgb(17.96875%,20.3125%,21.09375%);stroke-opacity:0.8;stroke-miterlimit:10;" d="M 1.624234 2.83921 L 1.848207 3.667191 " transform="matrix(163.070821,0,0,163.070821,-153.47065,-197.386858)"/>
</g>
</g>
</g>
<g clip-path="url(#clip34)" clip-rule="nonzero">
<g clip-path="url(#clip35)" clip-rule="evenodd">
<g clip-path="url(#clip36)" clip-rule="evenodd">
<path style="fill:none;stroke-width:0.0229402;stroke-linecap:butt;stroke-linejoin:miter;stroke:rgb(17.96875%,20.3125%,21.09375%);stroke-opacity:0.8;stroke-miterlimit:10;" d="M 1.624234 2.83921 L 1.742401 2.042633 " transform="matrix(163.070821,0,0,163.070821,-153.47065,-197.386858)"/>
</g>
</g>
</g>
<g clip-path="url(#clip37)" clip-rule="nonzero">
<g clip-path="url(#clip38)" clip-rule="evenodd">
<g clip-path="url(#clip39)" clip-rule="evenodd">
<path style="fill:none;stroke-width:0.0229402;stroke-linecap:butt;stroke-linejoin:miter;stroke:rgb(17.96875%,20.3125%,21.09375%);stroke-opacity:0.8;stroke-miterlimit:10;" d="M 1.624234 2.83921 L 1.185654 2.766173 " transform="matrix(163.070821,0,0,163.070821,-153.47065,-197.386858)"/>
</g>
</g>
</g>
<g clip-path="url(#clip40)" clip-rule="nonzero">
<g clip-path="url(#clip41)" clip-rule="evenodd">
<g clip-path="url(#clip42)" clip-rule="evenodd">
<path style="fill:none;stroke-width:0.0229402;stroke-linecap:butt;stroke-linejoin:miter;stroke:rgb(17.96875%,20.3125%,21.09375%);stroke-opacity:0.8;stroke-miterlimit:10;" d="M 1.624234 2.83921 L 1.431785 2.448755 " transform="matrix(163.070821,0,0,163.070821,-153.47065,-197.386858)"/>
</g>
</g>
</g>
<g clip-path="url(#clip43)" clip-rule="nonzero">
<g clip-path="url(#clip44)" clip-rule="evenodd">
<g clip-path="url(#clip45)" clip-rule="evenodd">
<path style="fill:none;stroke-width:0.0229402;stroke-linecap:butt;stroke-linejoin:miter;stroke:rgb(17.96875%,20.3125%,21.09375%);stroke-opacity:0.8;stroke-miterlimit:10;" d="M 1.961415 3.414689 L 1.848207 3.667191 " transform="matrix(163.070821,0,0,163.070821,-153.47065,-197.386858)"/>
</g>
</g>
</g>
<g clip-path="url(#clip46)" clip-rule="nonzero">
<g clip-path="url(#clip47)" clip-rule="evenodd">
<g clip-path="url(#clip48)" clip-rule="evenodd">
<path style="fill:none;stroke-width:0.0229402;stroke-linecap:butt;stroke-linejoin:miter;stroke:rgb(17.96875%,20.3125%,21.09375%);stroke-opacity:0.8;stroke-miterlimit:10;" d="M 1.431019 3.915933 L 1.848207 3.667191 " transform="matrix(163.070821,0,0,163.070821,-153.47065,-197.386858)"/>
</g>
</g>
</g>
<g clip-path="url(#clip49)" clip-rule="nonzero">
<g clip-path="url(#clip50)" clip-rule="evenodd">
<g clip-path="url(#clip51)" clip-rule="evenodd">
<path style="fill:none;stroke-width:0.0229402;stroke-linecap:butt;stroke-linejoin:miter;stroke:rgb(17.96875%,20.3125%,21.09375%);stroke-opacity:0.8;stroke-miterlimit:10;" d="M 1.827199 1.628751 L 1.742401 2.042633 " transform="matrix(163.070821,0,0,163.070821,-153.47065,-197.386858)"/>
</g>
</g>
</g>
<g clip-path="url(#clip52)" clip-rule="nonzero">
<g clip-path="url(#clip53)" clip-rule="evenodd">
<g clip-path="url(#clip54)" clip-rule="evenodd">
<path style="fill:none;stroke-width:0.0229402;stroke-linecap:butt;stroke-linejoin:miter;stroke:rgb(17.96875%,20.3125%,21.09375%);stroke-opacity:0.8;stroke-miterlimit:10;" d="M 3.453194 1.672779 L 3.696881 2.206385 " transform="matrix(163.070821,0,0,163.070821,-153.47065,-197.386858)"/>
</g>
</g>
</g>
<g clip-path="url(#clip55)" clip-rule="nonzero">
<g clip-path="url(#clip56)" clip-rule="evenodd">
<g clip-path="url(#clip57)" clip-rule="evenodd">
<path style="fill:none;stroke-width:0.0229402;stroke-linecap:butt;stroke-linejoin:miter;stroke:rgb(17.96875%,20.3125%,21.09375%);stroke-opacity:0.8;stroke-miterlimit:10;" d="M 3.453194 1.672779 L 3.221388 1.643387 " transform="matrix(163.070821,0,0,163.070821,-153.47065,-197.386858)"/>
</g>
</g>
</g>
<g clip-path="url(#clip58)" clip-rule="nonzero">
<g clip-path="url(#clip59)" clip-rule="evenodd">
<g clip-path="url(#clip60)" clip-rule="evenodd">
<path style="fill:none;stroke-width:0.0229402;stroke-linecap:butt;stroke-linejoin:miter;stroke:rgb(17.96875%,20.3125%,21.09375%);stroke-opacity:0.8;stroke-miterlimit:10;" d="M 3.696881 2.206385 L 3.444546 2.107046 " transform="matrix(163.070821,0,0,163.070821,-153.47065,-197.386858)"/>
</g>
</g>
</g>
<g clip-path="url(#clip61)" clip-rule="nonzero">
<g clip-path="url(#clip62)" clip-rule="evenodd">
<g clip-path="url(#clip63)" clip-rule="evenodd">
<path style="fill:none;stroke-width:0.0229402;stroke-linecap:butt;stroke-linejoin:miter;stroke:rgb(17.96875%,20.3125%,21.09375%);stroke-opacity:0.8;stroke-miterlimit:10;" d="M 3.696881 2.206385 L 4.034326 2.571904 " transform="matrix(163.070821,0,0,163.070821,-153.47065,-197.386858)"/>
</g>
</g>
</g>
<g clip-path="url(#clip64)" clip-rule="nonzero">
<g clip-path="url(#clip65)" clip-rule="evenodd">
<g clip-path="url(#clip66)" clip-rule="evenodd">
<path style="fill:none;stroke-width:0.0229402;stroke-linecap:butt;stroke-linejoin:miter;stroke:rgb(17.96875%,20.3125%,21.09375%);stroke-opacity:0.8;stroke-miterlimit:10;" d="M 3.696881 2.206385 L 3.691468 2.675626 " transform="matrix(163.070821,0,0,163.070821,-153.47065,-197.386858)"/>
</g>
</g>
</g>
<g clip-path="url(#clip67)" clip-rule="nonzero">
<g clip-path="url(#clip68)" clip-rule="evenodd">
<g clip-path="url(#clip69)" clip-rule="evenodd">
<path style="fill:none;stroke-width:0.0229402;stroke-linecap:butt;stroke-linejoin:miter;stroke:rgb(17.96875%,20.3125%,21.09375%);stroke-opacity:0.8;stroke-miterlimit:10;" d="M 3.221388 1.643387 L 3.444546 2.107046 " transform="matrix(163.070821,0,0,163.070821,-153.47065,-197.386858)"/>
</g>
</g>
</g>
<g clip-path="url(#clip70)" clip-rule="nonzero">
<g clip-path="url(#clip71)" clip-rule="evenodd">
<g clip-path="url(#clip72)" clip-rule="evenodd">
<path style="fill:none;stroke-width:0.0229402;stroke-linecap:butt;stroke-linejoin:miter;stroke:rgb(17.96875%,20.3125%,21.09375%);stroke-opacity:0.8;stroke-miterlimit:10;" d="M 3.444546 2.107046 L 3.691468 2.675626 " transform="matrix(163.070821,0,0,163.070821,-153.47065,-197.386858)"/>
</g>
</g>
</g>
<g clip-path="url(#clip73)" clip-rule="nonzero">
<g clip-path="url(#clip74)" clip-rule="evenodd">
<g clip-path="url(#clip75)" clip-rule="evenodd">
<path style="fill:none;stroke-width:0.0229402;stroke-linecap:butt;stroke-linejoin:miter;stroke:rgb(17.96875%,20.3125%,21.09375%);stroke-opacity:0.8;stroke-miterlimit:10;" d="M 4.375986 2.800859 L 4.034326 2.571904 " transform="matrix(163.070821,0,0,163.070821,-153.47065,-197.386858)"/>
</g>
</g>
</g>
<g clip-path="url(#clip76)" clip-rule="nonzero">
<g clip-path="url(#clip77)" clip-rule="evenodd">
<g clip-path="url(#clip78)" clip-rule="evenodd">
<path style="fill:none;stroke-width:0.0229402;stroke-linecap:butt;stroke-linejoin:miter;stroke:rgb(17.96875%,20.3125%,21.09375%);stroke-opacity:0.8;stroke-miterlimit:10;" d="M 4.034326 2.571904 L 3.691468 2.675626 " transform="matrix(163.070821,0,0,163.070821,-153.47065,-197.386858)"/>
</g>
</g>
</g>
<path style="fill-rule:nonzero;fill:rgb(100%,92.941176%,43.529412%);fill-opacity:1;stroke-width:0.0229402;stroke-linecap:butt;stroke-linejoin:miter;stroke:rgb(60%,60%,60%);stroke-opacity:0.8;stroke-miterlimit:10;" d="M 0.114692 -0.00000680955 C 0.114692 0.0633524 0.0633574 0.11471 -0.0000017621 0.11471 C -0.063337 0.11471 -0.114695 0.0633524 -0.114695 -0.00000680955 C -0.114695 -0.063342 -0.063337 -0.1147 -0.0000017621 -0.1147 C 0.0633574 -0.1147 0.114692 -0.063342 0.114692 -0.00000680955 Z M 0.114692 -0.00000680955 " transform="matrix(163.070821,0,0,163.070821,484.465131,445.098767)"/>
<path style="fill-rule:nonzero;fill:rgb(55.294118%,82.745098%,78.039216%);fill-opacity:1;stroke-width:0.0229402;stroke-linecap:butt;stroke-linejoin:miter;stroke:rgb(60%,60%,60%);stroke-opacity:0.8;stroke-miterlimit:10;" d="M 0.114691 -0.00000166607 C 0.114691 0.0633575 0.0633571 0.114692 -0.00000211345 0.114692 C -0.0633373 0.114692 -0.114695 0.0633575 -0.114695 -0.00000166607 C -0.114695 -0.0633369 -0.0633373 -0.114695 -0.00000211345 -0.114695 C 0.0633571 -0.114695 0.114691 -0.0633369 0.114691 -0.00000166607 Z M 0.114691 -0.00000166607 " transform="matrix(163.070821,0,0,163.070821,273.863626,531.785428)"/>
<path style="fill-rule:nonzero;fill:rgb(100%,92.941176%,43.529412%);fill-opacity:1;stroke-width:0.0229402;stroke-linecap:butt;stroke-linejoin:miter;stroke:rgb(60%,60%,60%);stroke-opacity:0.8;stroke-miterlimit:10;" d="M 0.114701 -0.00000644788 C 0.114701 0.0633527 0.063343 0.114711 0.00000776296 0.114711 C -0.0633514 0.114711 -0.114709 0.0633527 -0.114709 -0.00000644788 C -0.114709 -0.0633417 -0.0633514 -0.1147 0.00000776296 -0.1147 C 0.063343 -0.1147 0.114701 -0.0633417 0.114701 -0.00000644788 Z M 0.114701 -0.00000644788 " transform="matrix(163.070821,0,0,163.070821,441.104203,386.618239)"/>
<path style="fill-rule:nonzero;fill:rgb(100%,92.941176%,43.529412%);fill-opacity:1;stroke-width:0.0229402;stroke-linecap:butt;stroke-linejoin:miter;stroke:rgb(60%,60%,60%);stroke-opacity:0.8;stroke-miterlimit:10;" d="M 0.114708 0.0000112987 C 0.114708 0.0633465 0.0633496 0.114705 -0.0000096034 0.114705 C -0.0633448 0.114705 -0.114703 0.0633465 -0.114703 0.0000112987 C -0.114703 -0.0633479 -0.0633448 -0.114706 -0.0000096034 -0.114706 C 0.0633496 -0.114706 0.114708 -0.0633479 0.114708 0.0000112987 Z M 0.114708 0.0000112987 " transform="matrix(163.070821,0,0,163.070821,357.677347,443.209095)"/>
<path style="fill-rule:nonzero;fill:rgb(55.294118%,82.745098%,78.039216%);fill-opacity:1;stroke-width:0.0229402;stroke-linecap:butt;stroke-linejoin:miter;stroke:rgb(60%,60%,60%);stroke-opacity:0.8;stroke-miterlimit:10;" d="M 0.114693 0.00000885279 C 0.114693 0.0633441 0.0633591 0.114702 -0.000000046724 0.114702 C -0.0633592 0.114702 -0.114693 0.0633441 -0.114693 0.00000885279 C -0.114693 -0.0633503 -0.0633592 -0.114708 -0.000000046724 -0.114708 C 0.0633591 -0.114708 0.114693 -0.0633503 0.114693 0.00000885279 Z M 0.114693 0.00000885279 " transform="matrix(163.070821,0,0,163.070821,235.308601,448.604025)"/>
<path style="fill-rule:nonzero;fill:rgb(55.294118%,82.745098%,78.039216%);fill-opacity:1;stroke-width:0.0229402;stroke-linecap:butt;stroke-linejoin:miter;stroke:rgb(60%,60%,60%);stroke-opacity:0.8;stroke-miterlimit:10;" d="M 0.114704 0.00000154605 C 0.114704 0.0633368 0.0633461 0.114695 0.000010846 0.114695 C -0.0633483 0.114695 -0.114706 0.0633368 -0.114706 0.00000154605 C -0.114706 -0.0633576 -0.0633483 -0.114692 0.000010846 -0.114692 C 0.0633461 -0.114692 0.114704 -0.0633576 0.114704 0.00000154605 Z M 0.114704 0.00000154605 " transform="matrix(163.070821,0,0,163.070821,184.306825,466.269279)"/>
<path style="fill-rule:nonzero;fill:rgb(55.294118%,82.745098%,78.039216%);fill-opacity:1;stroke-width:0.0229402;stroke-linecap:butt;stroke-linejoin:miter;stroke:rgb(60%,60%,60%);stroke-opacity:0.8;stroke-miterlimit:10;" d="M 0.114705 0.00000614686 C 0.114705 0.0633414 0.0633466 0.114699 0.0000114104 0.114699 C -0.0633478 0.114699 -0.114706 0.0633414 -0.114706 0.00000614686 C -0.114706 -0.063353 -0.0633478 -0.114711 0.0000114104 -0.114711 C 0.0633466 -0.114711 0.114705 -0.063353 0.114705 0.00000614686 Z M 0.114705 0.00000614686 " transform="matrix(163.070821,0,0,163.070821,111.392671,265.604466)"/>
<path style="fill-rule:nonzero;fill:rgb(55.294118%,82.745098%,78.039216%);fill-opacity:1;stroke-width:0.0229402;stroke-linecap:butt;stroke-linejoin:miter;stroke:rgb(60%,60%,60%);stroke-opacity:0.8;stroke-miterlimit:10;" d="M 0.114692 -0.00000572973 C 0.114692 0.0633534 0.0633579 0.114711 -0.00000124221 0.114711 C -0.0633365 0.114711 -0.114695 0.0633534 -0.114695 -0.00000572973 C -0.114695 -0.0633409 -0.0633365 -0.114699 -0.00000124221 -0.114699 C 0.0633579 -0.114699 0.114692 -0.0633409 0.114692 -0.00000572973 Z M 0.114692 -0.00000572973 " transform="matrix(163.070821,0,0,163.070821,166.379109,359.450153)"/>
<path style="fill-rule:nonzero;fill:rgb(55.294118%,82.745098%,78.039216%);fill-opacity:1;stroke-width:0.0229402;stroke-linecap:butt;stroke-linejoin:miter;stroke:rgb(60%,60%,60%);stroke-opacity:0.8;stroke-miterlimit:10;" d="M 0.114696 0.0000119662 C 0.114696 0.0633472 0.0633379 0.114705 0.00000266751 0.114705 C -0.0633565 0.114705 -0.114691 0.0633472 -0.114691 0.0000119662 C -0.114691 -0.0633472 -0.0633565 -0.114705 0.00000266751 -0.114705 C 0.0633379 -0.114705 0.114696 -0.0633472 0.114696 0.0000119662 Z M 0.114696 0.0000119662 " transform="matrix(163.070821,0,0,163.070821,79.886284,441.185549)"/>
<path style="fill-rule:nonzero;fill:rgb(55.294118%,82.745098%,78.039216%);fill-opacity:1;stroke-width:0.0229402;stroke-linecap:butt;stroke-linejoin:miter;stroke:rgb(60%,60%,60%);stroke-opacity:0.8;stroke-miterlimit:10;" d="M 0.114711 -0.00000823316 C 0.114711 0.0633509 0.0633526 0.114709 -0.0000065893 0.114709 C -0.0633418 0.114709 -0.1147 0.0633509 -0.1147 -0.00000823316 C -0.1147 -0.0633434 -0.0633418 -0.114701 -0.0000065893 -0.114701 C 0.0633526 -0.114701 0.114711 -0.0633434 0.114711 -0.00000823316 Z M 0.114711 -0.00000823316 " transform="matrix(163.070821,0,0,163.070821,147.919043,400.626343)"/>
<path style="fill-rule:nonzero;fill:rgb(55.294118%,82.745098%,78.039216%);fill-opacity:1;stroke-width:0.0229402;stroke-linecap:butt;stroke-linejoin:miter;stroke:rgb(60%,60%,60%);stroke-opacity:0.8;stroke-miterlimit:10;" d="M 0.114704 0.00000166607 C 0.114704 0.0633369 0.0633462 0.114695 0.0000109977 0.114695 C -0.0633482 0.114695 -0.114706 0.0633369 -0.114706 0.00000166607 C -0.114706 -0.0633575 -0.0633482 -0.114692 0.0000109977 -0.114692 C 0.0633462 -0.114692 0.114704 -0.0633575 0.114704 0.00000166607 Z M 0.114704 0.00000166607 " transform="matrix(163.070821,0,0,163.070821,144.490394,68.214572)"/>
<path style="fill-rule:nonzero;fill:rgb(55.294118%,82.745098%,78.039216%);fill-opacity:1;stroke-width:0.0229402;stroke-linecap:butt;stroke-linejoin:miter;stroke:rgb(60%,60%,60%);stroke-opacity:0.8;stroke-miterlimit:10;" d="M 0.114693 -0.000000854023 C 0.114693 0.0633583 0.0633584 0.114692 -0.00000072794 0.114692 C -0.0633359 0.114692 -0.114694 0.0633583 -0.114694 -0.000000854023 C -0.114694 -0.0633361 -0.0633359 -0.114694 -0.00000072794 -0.114694 C 0.0633584 -0.114694 0.114693 -0.0633361 0.114693 -0.000000854023 Z M 0.114693 -0.000000854023 " transform="matrix(163.070821,0,0,163.070821,130.664181,135.707171)"/>
<path style="fill-rule:nonzero;fill:rgb(55.294118%,82.745098%,78.039216%);fill-opacity:1;stroke-width:0.0229402;stroke-linecap:butt;stroke-linejoin:miter;stroke:rgb(60%,60%,60%);stroke-opacity:0.8;stroke-miterlimit:10;" d="M 0.114706 -0.00000674083 C 0.114706 0.0633524 0.0633479 0.11471 -0.0000112803 0.11471 C -0.0633465 0.11471 -0.114705 0.0633524 -0.114705 -0.00000674083 C -0.114705 -0.063342 -0.0633465 -0.1147 -0.0000112803 -0.1147 C 0.0633479 -0.1147 0.114706 -0.063342 0.114706 -0.00000674083 Z M 0.114706 -0.00000674083 " transform="matrix(163.070821,0,0,163.070821,39.876839,253.696412)"/>
<path style="fill-rule:nonzero;fill:rgb(55.294118%,82.745098%,78.039216%);fill-opacity:1;stroke-width:0.0229402;stroke-linecap:butt;stroke-linejoin:miter;stroke:rgb(60%,60%,60%);stroke-opacity:0.8;stroke-miterlimit:10;" d="M 0.114699 0.00000823152 C 0.114699 0.0633434 0.0633405 0.114701 0.00000528474 0.114701 C -0.0633539 0.114701 -0.114712 0.0633434 -0.114712 0.00000823152 C -0.114712 -0.0633509 -0.0633539 -0.114709 0.00000528474 -0.114709 C 0.0633405 -0.114709 0.114699 -0.0633509 0.114699 0.00000823152 Z M 0.114699 0.00000823152 " transform="matrix(163.070821,0,0,163.070821,80.010857,201.932251)"/>
<path style="fill-rule:nonzero;fill:rgb(100%,92.941176%,43.529412%);fill-opacity:1;stroke-width:0.0229402;stroke-linecap:butt;stroke-linejoin:miter;stroke:rgb(60%,60%,60%);stroke-opacity:0.8;stroke-miterlimit:10;" d="M 0.114703 -0.0000014681 C 0.114703 0.0633577 0.0633445 0.114692 0.00000928248 0.114692 C -0.0633499 0.114692 -0.114708 0.0633577 -0.114708 -0.0000014681 C -0.114708 -0.0633367 -0.0633499 -0.114695 0.00000928248 -0.114695 C 0.0633445 -0.114695 0.114703 -0.0633367 0.114703 -0.0000014681 Z M 0.114703 -0.0000014681 " transform="matrix(163.070821,0,0,163.070821,409.643018,75.394771)"/>
<path style="fill-rule:nonzero;fill:rgb(100%,92.941176%,43.529412%);fill-opacity:1;stroke-width:0.0229402;stroke-linecap:butt;stroke-linejoin:miter;stroke:rgb(60%,60%,60%);stroke-opacity:0.8;stroke-miterlimit:10;" d="M 0.114693 0.00000654684 C 0.114693 0.0633418 0.0633588 0.1147 -0.000000359568 0.1147 C -0.0633595 0.1147 -0.114694 0.0633418 -0.114694 0.00000654684 C -0.114694 -0.0633526 -0.0633595 -0.114711 -0.000000359568 -0.114711 C 0.0633588 -0.114711 0.114693 -0.0633526 0.114693 0.00000654684 Z M 0.114693 0.00000654684 " transform="matrix(163.070821,0,0,163.070821,449.382871,162.409089)"/>
<path style="fill-rule:nonzero;fill:rgb(100%,92.941176%,43.529412%);fill-opacity:1;stroke-width:0.0229402;stroke-linecap:butt;stroke-linejoin:miter;stroke:rgb(60%,60%,60%);stroke-opacity:0.8;stroke-miterlimit:10;" d="M 0.114704 -0.00000961464 C 0.114704 0.0633496 0.0633464 0.114708 0.0000112161 0.114708 C -0.063348 0.114708 -0.114706 0.0633496 -0.114706 -0.00000961464 C -0.114706 -0.0633448 -0.063348 -0.114703 0.0000112161 -0.114703 C 0.0633464 -0.114703 0.114704 -0.0633448 0.114704 -0.00000961464 Z M 0.114704 -0.00000961464 " transform="matrix(163.070821,0,0,163.070821,371.841921,70.60313)"/>
<path style="fill-rule:nonzero;fill:rgb(100%,92.941176%,43.529412%);fill-opacity:1;stroke-width:0.0229402;stroke-linecap:butt;stroke-linejoin:miter;stroke:rgb(60%,60%,60%);stroke-opacity:0.8;stroke-miterlimit:10;" d="M 0.114698 0.0000019878 C 0.114698 0.0633372 0.0633397 0.114695 0.00000452716 0.114695 C -0.0633546 0.114695 -0.114713 0.0633372 -0.114713 0.0000019878 C -0.114713 -0.0633572 -0.0633546 -0.114691 0.00000452716 -0.114691 C 0.0633397 -0.114691 0.114698 -0.0633572 0.114698 0.0000019878 Z M 0.114698 0.0000019878 " transform="matrix(163.070821,0,0,163.070821,408.233637,146.210613)"/>
<path style="fill-rule:nonzero;fill:rgb(100%,92.941176%,43.529412%);fill-opacity:1;stroke-width:0.0229402;stroke-linecap:butt;stroke-linejoin:miter;stroke:rgb(60%,60%,60%);stroke-opacity:0.8;stroke-miterlimit:10;" d="M 0.114705 0.00000689577 C 0.114705 0.0633421 0.0633465 0.1147 0.0000112803 0.1147 C -0.0633479 0.1147 -0.114706 0.0633421 -0.114706 0.00000689577 C -0.114706 -0.0633523 -0.0633479 -0.11471 0.0000112803 -0.11471 C 0.0633465 -0.11471 0.114705 -0.0633523 0.114705 0.00000689577 Z M 0.114705 0.00000689577 " transform="matrix(163.070821,0,0,163.070821,560.123161,259.350438)"/>
<path style="fill-rule:nonzero;fill:rgb(100%,92.941176%,43.529412%);fill-opacity:1;stroke-width:0.0229402;stroke-linecap:butt;stroke-linejoin:miter;stroke:rgb(60%,60%,60%);stroke-opacity:0.8;stroke-miterlimit:10;" d="M 0.114709 -0.00000978938 C 0.114709 0.0633494 0.063351 0.114707 -0.00000815579 0.114707 C -0.0633434 0.114707 -0.114701 0.0633494 -0.114701 -0.00000978938 C -0.114701 -0.063345 -0.0633434 -0.114703 -0.00000815579 -0.114703 C 0.063351 -0.114703 0.114709 -0.063345 0.114709 -0.00000978938 Z M 0.114709 -0.00000978938 " transform="matrix(163.070821,0,0,163.070821,504.411486,222.017221)"/>
<path style="fill-rule:nonzero;fill:rgb(100%,92.941176%,43.529412%);fill-opacity:1;stroke-width:0.0229402;stroke-linecap:butt;stroke-linejoin:miter;stroke:rgb(60%,60%,60%);stroke-opacity:0.8;stroke-miterlimit:10;" d="M 0.114711 0.00000948401 C 0.114711 0.0633447 0.0633525 0.114703 -0.00000663572 0.114703 C -0.0633418 0.114703 -0.1147 0.0633447 -0.1147 0.00000948401 C -0.1147 -0.0633497 -0.0633418 -0.114708 -0.00000663572 -0.114708 C 0.0633525 -0.114708 0.114711 -0.0633497 0.114711 0.00000948401 Z M 0.114711 0.00000948401 " transform="matrix(163.070821,0,0,163.070821,448.501082,238.928141)"/>
</g>
</svg>
