<?xml version="1.0" encoding="UTF-8"?>
<svg xmlns="http://www.w3.org/2000/svg" xmlns:xlink="http://www.w3.org/1999/xlink" width="600pt" height="600pt" viewBox="0 0 600 600" version="1.1">
<defs>
<clipPath id="clip1">
  <path d="M 87.246094 0 L 218.941406 0 L 218.941406 107 L 87.246094 107 Z M 87.246094 0 "/>
</clipPath>
<clipPath id="clip2">
  <path d="M 87.246094 -151.925781 L 218.941406 -151.925781 L 218.941406 243.960938 L 87.246094 243.960938 Z M 87.246094 -151.925781 L 147.972656 50.882812 C 147.972656 61.746094 139.167969 70.546875 128.308594 70.546875 C 117.449219 70.546875 108.644531 61.746094 108.644531 50.882812 C 108.644531 40.023438 117.449219 31.21875 128.308594 31.21875 C 139.167969 31.21875 147.972656 40.023438 147.972656 50.882812 Z M 87.246094 -151.925781 "/>
</clipPath>
<clipPath id="clip3">
  <path d="M 87.246094 -151.925781 L 218.941406 -151.925781 L 218.941406 243.960938 L 87.246094 243.960938 Z M 87.246094 -151.925781 L 197.542969 41.152344 C 197.542969 52.011719 188.742188 60.816406 177.878906 60.816406 C 167.019531 60.816406 158.214844 52.011719 158.214844 41.152344 C 158.214844 30.292969 167.019531 21.488281 177.878906 21.488281 C 188.742188 21.488281 197.542969 30.292969 197.542969 41.152344 Z M 87.246094 -151.925781 "/>
</clipPath>
<clipPath id="clip4">
  <path d="M 9.898438 0 L 175.976562 0 L 175.976562 123 L 9.898438 123 Z M 9.898438 0 "/>
</clipPath>
<clipPath id="clip5">
  <path d="M 9.898438 -140.777344 L 175.976562 -140.777344 L 175.976562 259.023438 L 9.898438 259.023438 Z M 9.898438 -140.777344 L 147.972656 50.882812 C 147.972656 61.746094 139.167969 70.546875 128.308594 70.546875 C 117.449219 70.546875 108.644531 61.746094 108.644531 50.882812 C 108.644531 40.023438 117.449219 31.21875 128.308594 31.21875 C 139.167969 31.21875 147.972656 40.023438 147.972656 50.882812 Z M 9.898438 -140.777344 "/>
</clipPath>
<clipPath id="clip6">
  <path d="M 9.898438 -140.777344 L 175.976562 -140.777344 L 175.976562 259.023438 L 9.898438 259.023438 Z M 9.898438 -140.777344 L 77.230469 67.363281 C 77.230469 78.222656 68.425781 87.027344 57.566406 87.027344 C 46.707031 87.027344 37.902344 78.222656 37.902344 67.363281 C 37.902344 56.503906 46.707031 47.699219 57.566406 47.699219 C 68.425781 47.699219 77.230469 56.503906 77.230469 67.363281 Z M 9.898438 -140.777344 "/>
</clipPath>
<clipPath id="clip7">
  <path d="M 72 10.984375 L 197 10.984375 L 197 158.902344 L 72 158.902344 Z M 72 10.984375 "/>
</clipPath>
<clipPath id="clip8">
  <path d="M -64.996094 10.984375 L 334.550781 10.984375 L 334.550781 158.902344 L -64.996094 158.902344 Z M -64.996094 10.984375 L 147.972656 50.882812 C 147.972656 61.746094 139.167969 70.546875 128.308594 70.546875 C 117.449219 70.546875 108.644531 61.746094 108.644531 50.882812 C 108.644531 40.023438 117.449219 31.21875 128.308594 31.21875 C 139.167969 31.21875 147.972656 40.023438 147.972656 50.882812 Z M -64.996094 10.984375 "/>
</clipPath>
<clipPath id="clip9">
  <path d="M -64.996094 10.984375 L 334.550781 10.984375 L 334.550781 158.902344 L -64.996094 158.902344 Z M -64.996094 10.984375 L 160.910156 119.003906 C 160.910156 129.863281 152.105469 138.667969 141.246094 138.667969 C 130.386719 138.667969 121.582031 129.863281 121.582031 119.003906 C 121.582031 108.144531 130.386719 99.339844 141.246094 99.339844 C 152.105469 99.339844 160.910156 108.144531 160.910156 119.003906 Z M -64.996094 10.984375 "/>
</clipPath>
<clipPath id="clip10">
  <path d="M 85 0 L 234 0 L 234 175 L 85 175 Z M 85 0 "/>
</clipPath>
<clipPath id="clip11">
  <path d="M -37.097656 -44.851562 L 356.222656 -44.851562 L 356.222656 205.007812 L -37.097656 205.007812 Z M -37.097656 -44.851562 L 197.542969 41.152344 C 197.542969 52.011719 188.742188 60.816406 177.878906 60.816406 C 167.019531 60.816406 158.214844 52.011719 158.214844 41.152344 C 158.214844 30.292969 167.019531 21.488281 177.878906 21.488281 C 188.742188 21.488281 197.542969 30.292969 197.542969 41.152344 Z M -37.097656 -44.851562 "/>
</clipPath>
<clipPath id="clip12">
  <path d="M -37.097656 -44.851562 L 356.222656 -44.851562 L 356.222656 205.007812 L -37.097656 205.007812 Z M -37.097656 -44.851562 L 160.910156 119.003906 C 160.910156 129.863281 152.105469 138.667969 141.246094 138.667969 C 130.386719 138.667969 121.582031 129.863281 121.582031 119.003906 C 121.582031 108.144531 130.386719 99.339844 141.246094 99.339844 C 152.105469 99.339844 160.910156 108.144531 160.910156 119.003906 Z M -37.097656 -44.851562 "/>
</clipPath>
<clipPath id="clip13">
  <path d="M 1 60.917969 L 114 60.917969 L 114 125.988281 L 1 125.988281 Z M 1 60.917969 "/>
</clipPath>
<clipPath id="clip14">
  <path d="M -139.785156 60.917969 L 254.238281 60.917969 L 254.238281 125.988281 L -139.785156 125.988281 Z M -139.785156 60.917969 L 77.230469 67.363281 C 77.230469 78.222656 68.425781 87.027344 57.566406 87.027344 C 46.707031 87.027344 37.902344 78.222656 37.902344 67.363281 C 37.902344 56.503906 46.707031 47.699219 57.566406 47.699219 C 68.425781 47.699219 77.230469 56.503906 77.230469 67.363281 Z M -139.785156 60.917969 "/>
</clipPath>
<clipPath id="clip15">
  <path d="M -139.785156 60.917969 L 254.238281 60.917969 L 254.238281 125.988281 L -139.785156 125.988281 Z M -139.785156 60.917969 L 76.550781 119.542969 C 76.550781 130.402344 67.75 139.207031 56.886719 139.207031 C 46.027344 139.207031 37.222656 130.402344 37.222656 119.542969 C 37.222656 108.683594 46.027344 99.878906 56.886719 99.878906 C 67.75 99.878906 76.550781 108.683594 76.550781 119.542969 Z M -139.785156 60.917969 "/>
</clipPath>
<clipPath id="clip16">
  <path d="M 130 189 L 320 189 L 320 420 L 130 420 Z M 130 189 "/>
</clipPath>
<clipPath id="clip17">
  <path d="M 20.96875 135.5 L 429.679688 135.5 L 429.679688 473.664062 L 20.96875 473.664062 Z M 20.96875 135.5 L 205.964844 244.8125 C 205.964844 255.671875 197.160156 264.476562 186.300781 264.476562 C 175.441406 264.476562 166.636719 255.671875 166.636719 244.8125 C 166.636719 233.949219 175.441406 225.148438 186.300781 225.148438 C 197.160156 225.148438 205.964844 233.949219 205.964844 244.8125 Z M 20.96875 135.5 "/>
</clipPath>
<clipPath id="clip18">
  <path d="M 20.96875 135.5 L 429.679688 135.5 L 429.679688 473.664062 L 20.96875 473.664062 Z M 20.96875 135.5 L 284.011719 364.351562 C 284.011719 375.210938 275.207031 384.015625 264.347656 384.015625 C 253.488281 384.015625 244.683594 375.210938 244.683594 364.351562 C 244.683594 353.488281 253.488281 344.683594 264.347656 344.683594 C 275.207031 344.683594 284.011719 353.488281 284.011719 364.351562 Z M 20.96875 135.5 "/>
</clipPath>
<clipPath id="clip19">
  <path d="M 85 63 L 242 63 L 242 301 L 85 301 Z M 85 63 "/>
</clipPath>
<clipPath id="clip20">
  <path d="M -44.15625 50.082031 L 371.703125 50.082031 L 371.703125 313.734375 L -44.15625 313.734375 Z M -44.15625 50.082031 L 205.964844 244.8125 C 205.964844 255.671875 197.160156 264.476562 186.300781 264.476562 C 175.441406 264.476562 166.636719 255.671875 166.636719 244.8125 C 166.636719 233.949219 175.441406 225.148438 186.300781 225.148438 C 197.160156 225.148438 205.964844 233.949219 205.964844 244.8125 Z M -44.15625 50.082031 "/>
</clipPath>
<clipPath id="clip21">
  <path d="M -44.15625 50.082031 L 371.703125 50.082031 L 371.703125 313.734375 L -44.15625 313.734375 Z M -44.15625 50.082031 L 160.910156 119.003906 C 160.910156 129.863281 152.105469 138.667969 141.246094 138.667969 C 130.386719 138.667969 121.582031 129.863281 121.582031 119.003906 C 121.582031 108.144531 130.386719 99.339844 141.246094 99.339844 C 152.105469 99.339844 160.910156 108.144531 160.910156 119.003906 Z M -44.15625 50.082031 "/>
</clipPath>
<clipPath id="clip22">
  <path d="M 208 232 L 420 232 L 420 420 L 208 420 Z M 208 232 "/>
</clipPath>
<clipPath id="clip23">
  <path d="M 142.800781 131.183594 L 485.25 131.183594 L 485.25 521 L 142.800781 521 Z M 142.800781 131.183594 L 284.011719 364.351562 C 284.011719 375.210938 275.207031 384.015625 264.347656 384.015625 C 253.488281 384.015625 244.683594 375.210938 244.683594 364.351562 C 244.683594 353.488281 253.488281 344.683594 264.347656 344.683594 C 275.207031 344.683594 284.011719 353.488281 284.011719 364.351562 Z M 142.800781 131.183594 "/>
</clipPath>
<clipPath id="clip24">
  <path d="M 142.800781 131.183594 L 485.25 131.183594 L 485.25 521 L 142.800781 521 Z M 142.800781 131.183594 L 383.367188 287.832031 C 383.367188 298.691406 374.5625 307.496094 363.703125 307.496094 C 352.84375 307.496094 344.039062 298.691406 344.039062 287.832031 C 344.039062 276.96875 352.84375 268.167969 363.703125 268.167969 C 374.5625 268.167969 383.367188 276.96875 383.367188 287.832031 Z M 142.800781 131.183594 "/>
</clipPath>
<clipPath id="clip25">
  <path d="M 132 308 L 320 308 L 320 501 L 132 501 Z M 132 308 "/>
</clipPath>
<clipPath id="clip26">
  <path d="M 44.117188 227.59375 L 407.964844 227.59375 L 407.964844 581.679688 L 44.117188 581.679688 Z M 44.117188 227.59375 L 284.011719 364.351562 C 284.011719 375.210938 275.207031 384.015625 264.347656 384.015625 C 253.488281 384.015625 244.683594 375.210938 244.683594 364.351562 C 244.683594 353.488281 253.488281 344.683594 264.347656 344.683594 C 275.207031 344.683594 284.011719 353.488281 284.011719 364.351562 Z M 44.117188 227.59375 "/>
</clipPath>
<clipPath id="clip27">
  <path d="M 44.117188 227.59375 L 407.964844 227.59375 L 407.964844 581.679688 L 44.117188 581.679688 Z M 44.117188 227.59375 L 207.398438 444.921875 C 207.398438 455.78125 198.59375 464.585938 187.734375 464.585938 C 176.875 464.585938 168.070312 455.78125 168.070312 444.921875 C 168.070312 434.0625 176.875 425.257812 187.734375 425.257812 C 198.59375 425.257812 207.398438 434.0625 207.398438 444.921875 Z M 44.117188 227.59375 "/>
</clipPath>
<clipPath id="clip28">
  <path d="M 208 308 L 374 308 L 374 513 L 208 513 Z M 208 308 "/>
</clipPath>
<clipPath id="clip29">
  <path d="M 94.085938 263.003906 L 488.609375 263.003906 L 488.609375 557.898438 L 94.085938 557.898438 Z M 94.085938 263.003906 L 284.011719 364.351562 C 284.011719 375.210938 275.207031 384.015625 264.347656 384.015625 C 253.488281 384.015625 244.683594 375.210938 244.683594 364.351562 C 244.683594 353.488281 253.488281 344.683594 264.347656 344.683594 C 275.207031 344.683594 284.011719 353.488281 284.011719 364.351562 Z M 94.085938 263.003906 "/>
</clipPath>
<clipPath id="clip30">
  <path d="M 94.085938 263.003906 L 488.609375 263.003906 L 488.609375 557.898438 L 94.085938 557.898438 Z M 94.085938 263.003906 L 338.011719 456.550781 C 338.011719 467.410156 329.207031 476.214844 318.347656 476.214844 C 307.488281 476.214844 298.683594 467.410156 298.683594 456.550781 C 298.683594 445.691406 307.488281 436.886719 318.347656 436.886719 C 329.207031 436.886719 338.011719 445.691406 338.011719 456.550781 Z M 94.085938 263.003906 "/>
</clipPath>
<clipPath id="clip31">
  <path d="M 51.722656 63 L 146.410156 63 L 146.410156 176 L 51.722656 176 Z M 51.722656 63 "/>
</clipPath>
<clipPath id="clip32">
  <path d="M 51.722656 -77.679688 L 146.410156 -77.679688 L 146.410156 316.226562 L 51.722656 316.226562 Z M 51.722656 -77.679688 L 76.550781 119.542969 C 76.550781 130.402344 67.75 139.207031 56.886719 139.207031 C 46.027344 139.207031 37.222656 130.402344 37.222656 119.542969 C 37.222656 108.683594 46.027344 99.878906 56.886719 99.878906 C 67.75 99.878906 76.550781 108.683594 76.550781 119.542969 Z M 51.722656 -77.679688 "/>
</clipPath>
<clipPath id="clip33">
  <path d="M 51.722656 -77.679688 L 146.410156 -77.679688 L 146.410156 316.226562 L 51.722656 316.226562 Z M 51.722656 -77.679688 L 160.910156 119.003906 C 160.910156 129.863281 152.105469 138.667969 141.246094 138.667969 C 130.386719 138.667969 121.582031 129.863281 121.582031 119.003906 C 121.582031 108.144531 130.386719 99.339844 141.246094 99.339844 C 152.105469 99.339844 160.910156 108.144531 160.910156 119.003906 Z M 51.722656 -77.679688 "/>
</clipPath>
<clipPath id="clip34">
  <path d="M 308 145 L 509 145 L 509 344 L 308 344 Z M 308 145 "/>
</clipPath>
<clipPath id="clip35">
  <path d="M 225.316406 58.960938 L 591.277344 58.960938 L 591.277344 429.882812 L 225.316406 429.882812 Z M 225.316406 58.960938 L 472.554688 201.011719 C 472.554688 211.871094 463.75 220.675781 452.890625 220.675781 C 442.03125 220.675781 433.226562 211.871094 433.226562 201.011719 C 433.226562 190.148438 442.03125 181.347656 452.890625 181.347656 C 463.75 181.347656 472.554688 190.148438 472.554688 201.011719 Z M 225.316406 58.960938 "/>
</clipPath>
<clipPath id="clip36">
  <path d="M 225.316406 58.960938 L 591.277344 58.960938 L 591.277344 429.882812 L 225.316406 429.882812 Z M 225.316406 58.960938 L 383.367188 287.832031 C 383.367188 298.691406 374.5625 307.496094 363.703125 307.496094 C 352.84375 307.496094 344.039062 298.691406 344.039062 287.832031 C 344.039062 276.96875 352.84375 268.167969 363.703125 268.167969 C 374.5625 268.167969 383.367188 276.96875 383.367188 287.832031 Z M 225.316406 58.960938 "/>
</clipPath>
<clipPath id="clip37">
  <path d="M 397 57 L 537 57 L 537 257 L 397 257 Z M 397 57 "/>
</clipPath>
<clipPath id="clip38">
  <path d="M 265.171875 51.460938 L 668.277344 51.460938 L 668.277344 263.058594 L 265.171875 263.058594 Z M 265.171875 51.460938 L 472.554688 201.011719 C 472.554688 211.871094 463.75 220.675781 452.890625 220.675781 C 442.03125 220.675781 433.226562 211.871094 433.226562 201.011719 C 433.226562 190.148438 442.03125 181.347656 452.890625 181.347656 C 463.75 181.347656 472.554688 190.148438 472.554688 201.011719 Z M 265.171875 51.460938 "/>
</clipPath>
<clipPath id="clip39">
  <path d="M 265.171875 51.460938 L 668.277344 51.460938 L 668.277344 263.058594 L 265.171875 263.058594 Z M 265.171875 51.460938 L 500.222656 113.507812 C 500.222656 124.371094 491.417969 133.171875 480.558594 133.171875 C 469.699219 133.171875 460.894531 124.371094 460.894531 113.507812 C 460.894531 102.648438 469.699219 93.84375 480.558594 93.84375 C 491.417969 93.84375 500.222656 102.648438 500.222656 113.507812 Z M 265.171875 51.460938 "/>
</clipPath>
<clipPath id="clip40">
  <path d="M 397 145 L 586 145 L 586 286 L 397 286 Z M 397 145 "/>
</clipPath>
<clipPath id="clip41">
  <path d="M 380.792969 16.777344 L 602.378906 16.777344 L 602.378906 414.503906 L 380.792969 414.503906 Z M 380.792969 16.777344 L 472.554688 201.011719 C 472.554688 211.871094 463.75 220.675781 452.890625 220.675781 C 442.03125 220.675781 433.226562 211.871094 433.226562 201.011719 C 433.226562 190.148438 442.03125 181.347656 452.890625 181.347656 C 463.75 181.347656 472.554688 190.148438 472.554688 201.011719 Z M 380.792969 16.777344 "/>
</clipPath>
<clipPath id="clip42">
  <path d="M 380.792969 16.777344 L 602.378906 16.777344 L 602.378906 414.503906 L 380.792969 414.503906 Z M 380.792969 16.777344 L 549.945312 230.269531 C 549.945312 241.128906 541.144531 249.933594 530.28125 249.933594 C 519.421875 249.933594 510.617188 241.128906 510.617188 230.269531 C 510.617188 219.410156 519.421875 210.605469 530.28125 210.605469 C 541.144531 210.605469 549.945312 219.410156 549.945312 230.269531 Z M 380.792969 16.777344 "/>
</clipPath>
<clipPath id="clip43">
  <path d="M 424 57 L 585 57 L 585 194 L 424 194 Z M 424 57 "/>
</clipPath>
<clipPath id="clip44">
  <path d="M 391.644531 -63.4375 L 618.167969 -63.4375 L 618.167969 314.371094 L 391.644531 314.371094 Z M 391.644531 -63.4375 L 500.222656 113.507812 C 500.222656 124.371094 491.417969 133.171875 480.558594 133.171875 C 469.699219 133.171875 460.894531 124.371094 460.894531 113.507812 C 460.894531 102.648438 469.699219 93.84375 480.558594 93.84375 C 491.417969 93.84375 500.222656 102.648438 500.222656 113.507812 Z M 391.644531 -63.4375 "/>
</clipPath>
<clipPath id="clip45">
  <path d="M 391.644531 -63.4375 L 618.167969 -63.4375 L 618.167969 314.371094 L 391.644531 314.371094 Z M 391.644531 -63.4375 L 548.917969 137.425781 C 548.917969 148.285156 540.113281 157.089844 529.253906 157.089844 C 518.394531 157.089844 509.589844 148.285156 509.589844 137.425781 C 509.589844 126.5625 518.394531 117.761719 529.253906 117.761719 C 540.113281 117.761719 548.917969 126.5625 548.917969 137.425781 Z M 391.644531 -63.4375 "/>
</clipPath>
<clipPath id="clip46">
  <path d="M 473 131.359375 L 586 131.359375 L 586 236.335938 L 473 236.335938 Z M 473 131.359375 "/>
</clipPath>
<clipPath id="clip47">
  <path d="M 332.578125 131.359375 L 726.957031 131.359375 L 726.957031 236.335938 L 332.578125 236.335938 Z M 332.578125 131.359375 L 549.945312 230.269531 C 549.945312 241.128906 541.144531 249.933594 530.28125 249.933594 C 519.421875 249.933594 510.617188 241.128906 510.617188 230.269531 C 510.617188 219.410156 519.421875 210.605469 530.28125 210.605469 C 541.144531 210.605469 549.945312 219.410156 549.945312 230.269531 Z M 332.578125 131.359375 "/>
</clipPath>
<clipPath id="clip48">
  <path d="M 332.578125 131.359375 L 726.957031 131.359375 L 726.957031 236.335938 L 332.578125 236.335938 Z M 332.578125 131.359375 L 548.917969 137.425781 C 548.917969 148.285156 540.113281 157.089844 529.253906 157.089844 C 518.394531 157.089844 509.589844 148.285156 509.589844 137.425781 C 509.589844 126.5625 518.394531 117.761719 529.253906 117.761719 C 540.113281 117.761719 548.917969 126.5625 548.917969 137.425781 Z M 332.578125 131.359375 "/>
</clipPath>
<clipPath id="clip49">
  <path d="M 474 184.617188 L 600 184.617188 L 600 389.082031 L 474 389.082031 Z M 474 184.617188 "/>
</clipPath>
<clipPath id="clip50">
  <path d="M 338.160156 184.617188 L 747.488281 184.617188 L 747.488281 389.082031 L 338.160156 389.082031 Z M 338.160156 184.617188 L 549.945312 230.269531 C 549.945312 241.128906 541.144531 249.933594 530.28125 249.933594 C 519.421875 249.933594 510.617188 241.128906 510.617188 230.269531 C 510.617188 219.410156 519.421875 210.605469 530.28125 210.605469 C 541.144531 210.605469 549.945312 219.410156 549.945312 230.269531 Z M 338.160156 184.617188 "/>
</clipPath>
<clipPath id="clip51">
  <path d="M 338.160156 184.617188 L 747.488281 184.617188 L 747.488281 389.082031 L 338.160156 389.082031 Z M 338.160156 184.617188 L 575.03125 343.429688 C 575.03125 354.289062 566.226562 363.09375 555.367188 363.09375 C 544.503906 363.09375 535.703125 354.289062 535.703125 343.429688 C 535.703125 332.566406 544.503906 323.761719 555.367188 323.761719 C 566.226562 323.761719 575.03125 332.566406 575.03125 343.429688 Z M 338.160156 184.617188 "/>
</clipPath>
<clipPath id="clip52">
  <path d="M 497 332.960938 L 600 332.960938 L 600 429.78125 L 497 429.78125 Z M 497 332.960938 "/>
</clipPath>
<clipPath id="clip53">
  <path d="M 356.214844 332.960938 L 751.945312 332.960938 L 751.945312 429.78125 L 356.214844 429.78125 Z M 356.214844 332.960938 L 572.457031 419.3125 C 572.457031 430.171875 563.652344 438.976562 552.792969 438.976562 C 541.933594 438.976562 533.128906 430.171875 533.128906 419.3125 C 533.128906 408.453125 541.933594 399.648438 552.792969 399.648438 C 563.652344 399.648438 572.457031 408.453125 572.457031 419.3125 Z M 356.214844 332.960938 "/>
</clipPath>
<clipPath id="clip54">
  <path d="M 356.214844 332.960938 L 751.945312 332.960938 L 751.945312 429.78125 L 356.214844 429.78125 Z M 356.214844 332.960938 L 575.03125 343.429688 C 575.03125 354.289062 566.226562 363.09375 555.367188 363.09375 C 544.503906 363.09375 535.703125 354.289062 535.703125 343.429688 C 535.703125 332.566406 544.503906 323.761719 555.367188 323.761719 C 566.226562 323.761719 575.03125 332.566406 575.03125 343.429688 Z M 356.214844 332.960938 "/>
</clipPath>
<clipPath id="clip55">
  <path d="M 59 389 L 244 389 L 244 553 L 59 553 Z M 59 389 "/>
</clipPath>
<clipPath id="clip56">
  <path d="M -0.875 284.300781 L 303.929688 284.300781 L 303.929688 657.425781 L -0.875 657.425781 Z M -0.875 284.300781 L 207.398438 444.921875 C 207.398438 455.78125 198.59375 464.585938 187.734375 464.585938 C 176.875 464.585938 168.070312 455.78125 168.070312 444.921875 C 168.070312 434.0625 176.875 425.257812 187.734375 425.257812 C 198.59375 425.257812 207.398438 434.0625 207.398438 444.921875 Z M -0.875 284.300781 "/>
</clipPath>
<clipPath id="clip57">
  <path d="M -0.875 284.300781 L 303.929688 284.300781 L 303.929688 657.425781 L -0.875 657.425781 Z M -0.875 284.300781 L 134.984375 496.804688 C 134.984375 507.664062 126.179688 516.46875 115.320312 516.46875 C 104.460938 516.46875 95.65625 507.664062 95.65625 496.804688 C 95.65625 485.945312 104.460938 477.140625 115.320312 477.140625 C 126.179688 477.140625 134.984375 485.945312 134.984375 496.804688 Z M -0.875 284.300781 "/>
</clipPath>
<clipPath id="clip58">
  <path d="M 0 414 L 171 414 L 171 553 L 0 553 Z M 0 414 "/>
</clipPath>
<clipPath id="clip59">
  <path d="M -26.886719 285.886719 L 186.839844 285.886719 L 186.839844 681.257812 L -26.886719 681.257812 Z M -26.886719 285.886719 L 134.984375 496.804688 C 134.984375 507.664062 126.179688 516.46875 115.320312 516.46875 C 104.460938 516.46875 95.65625 507.664062 95.65625 496.804688 C 95.65625 485.945312 104.460938 477.140625 115.320312 477.140625 C 126.179688 477.140625 134.984375 485.945312 134.984375 496.804688 Z M -26.886719 285.886719 "/>
</clipPath>
<clipPath id="clip60">
  <path d="M -26.886719 285.886719 L 186.839844 285.886719 L 186.839844 681.257812 L -26.886719 681.257812 Z M -26.886719 285.886719 L 64.296875 470.339844 C 64.296875 481.199219 55.496094 490.003906 44.632812 490.003906 C 33.773438 490.003906 24.96875 481.199219 24.96875 470.339844 C 24.96875 459.480469 33.773438 450.675781 44.632812 450.675781 C 55.496094 450.675781 64.296875 459.480469 64.296875 470.339844 Z M -26.886719 285.886719 "/>
</clipPath>
<clipPath id="clip61">
  <path d="M 59 441 L 196 441 L 196 600 L 59 600 Z M 59 441 "/>
</clipPath>
<clipPath id="clip62">
  <path d="M -67.84375 421.9375 L 323.039062 421.9375 L 323.039062 633.714844 L -67.84375 633.714844 Z M -67.84375 421.9375 L 134.984375 496.804688 C 134.984375 507.664062 126.179688 516.46875 115.320312 516.46875 C 104.460938 516.46875 95.65625 507.664062 95.65625 496.804688 C 95.65625 485.945312 104.460938 477.140625 115.320312 477.140625 C 126.179688 477.140625 134.984375 485.945312 134.984375 496.804688 Z M -67.84375 421.9375 "/>
</clipPath>
<clipPath id="clip63">
  <path d="M -67.84375 421.9375 L 323.039062 421.9375 L 323.039062 633.714844 L -67.84375 633.714844 Z M -67.84375 421.9375 L 159.539062 558.847656 C 159.539062 569.707031 150.734375 578.511719 139.875 578.511719 C 129.015625 578.511719 120.210938 569.707031 120.210938 558.847656 C 120.210938 547.988281 129.015625 539.183594 139.875 539.183594 C 150.734375 539.183594 159.539062 547.988281 159.539062 558.847656 Z M -67.84375 421.9375 "/>
</clipPath>
</defs>
<g id="surface201">
<g clip-path="url(#clip1)" clip-rule="nonzero">
<g clip-path="url(#clip2)" clip-rule="evenodd">
<g clip-path="url(#clip3)" clip-rule="evenodd">
<path style="fill:none;stroke-width:0.0204033;stroke-linecap:butt;stroke-linejoin:miter;stroke:rgb(17.96875%,20.3125%,21.09375%);stroke-opacity:0.8;stroke-miterlimit:10;" d="M 1.694208 1.441971 L 1.951376 1.39149 " transform="matrix(192.754734,0,0,192.754734,-198.258056,-227.063948)"/>
</g>
</g>
</g>
<g clip-path="url(#clip4)" clip-rule="nonzero">
<g clip-path="url(#clip5)" clip-rule="evenodd">
<g clip-path="url(#clip6)" clip-rule="evenodd">
<path style="fill:none;stroke-width:0.0204033;stroke-linecap:butt;stroke-linejoin:miter;stroke:rgb(17.96875%,20.3125%,21.09375%);stroke-opacity:0.8;stroke-miterlimit:10;" d="M 1.694208 1.441971 L 1.327202 1.527471 " transform="matrix(192.754734,0,0,192.754734,-198.258056,-227.063948)"/>
</g>
</g>
</g>
<g clip-path="url(#clip7)" clip-rule="nonzero">
<g clip-path="url(#clip8)" clip-rule="evenodd">
<g clip-path="url(#clip9)" clip-rule="evenodd">
<path style="fill:none;stroke-width:0.0204033;stroke-linecap:butt;stroke-linejoin:miter;stroke:rgb(17.96875%,20.3125%,21.09375%);stroke-opacity:0.8;stroke-miterlimit:10;" d="M 1.694208 1.441971 L 1.761327 1.795379 " transform="matrix(192.754734,0,0,192.754734,-198.258056,-227.063948)"/>
</g>
</g>
</g>
<g clip-path="url(#clip10)" clip-rule="nonzero">
<g clip-path="url(#clip11)" clip-rule="evenodd">
<g clip-path="url(#clip12)" clip-rule="evenodd">
<path style="fill:none;stroke-width:0.0204033;stroke-linecap:butt;stroke-linejoin:miter;stroke:rgb(17.96875%,20.3125%,21.09375%);stroke-opacity:0.8;stroke-miterlimit:10;" d="M 1.951376 1.39149 L 1.761327 1.795379 " transform="matrix(192.754734,0,0,192.754734,-198.258056,-227.063948)"/>
</g>
</g>
</g>
<g clip-path="url(#clip13)" clip-rule="nonzero">
<g clip-path="url(#clip14)" clip-rule="evenodd">
<g clip-path="url(#clip15)" clip-rule="evenodd">
<path style="fill:none;stroke-width:0.0204033;stroke-linecap:butt;stroke-linejoin:miter;stroke:rgb(17.96875%,20.3125%,21.09375%);stroke-opacity:0.8;stroke-miterlimit:10;" d="M 1.327202 1.527471 L 1.323676 1.798176 " transform="matrix(192.754734,0,0,192.754734,-198.258056,-227.063948)"/>
</g>
</g>
</g>
<g clip-path="url(#clip16)" clip-rule="nonzero">
<g clip-path="url(#clip17)" clip-rule="evenodd">
<g clip-path="url(#clip18)" clip-rule="evenodd">
<path style="fill:none;stroke-width:0.0204033;stroke-linecap:butt;stroke-linejoin:miter;stroke:rgb(17.96875%,20.3125%,21.09375%);stroke-opacity:0.8;stroke-miterlimit:10;" d="M 1.995068 2.448067 L 2.399971 3.068228 " transform="matrix(192.754734,0,0,192.754734,-198.258056,-227.063948)"/>
</g>
</g>
</g>
<g clip-path="url(#clip19)" clip-rule="nonzero">
<g clip-path="url(#clip20)" clip-rule="evenodd">
<g clip-path="url(#clip21)" clip-rule="evenodd">
<path style="fill:none;stroke-width:0.0204033;stroke-linecap:butt;stroke-linejoin:miter;stroke:rgb(17.96875%,20.3125%,21.09375%);stroke-opacity:0.8;stroke-miterlimit:10;" d="M 1.995068 2.448067 L 1.761327 1.795379 " transform="matrix(192.754734,0,0,192.754734,-198.258056,-227.063948)"/>
</g>
</g>
</g>
<g clip-path="url(#clip22)" clip-rule="nonzero">
<g clip-path="url(#clip23)" clip-rule="evenodd">
<g clip-path="url(#clip24)" clip-rule="evenodd">
<path style="fill:none;stroke-width:0.0204033;stroke-linecap:butt;stroke-linejoin:miter;stroke:rgb(17.96875%,20.3125%,21.09375%);stroke-opacity:0.8;stroke-miterlimit:10;" d="M 2.399971 3.068228 L 2.915421 2.671249 " transform="matrix(192.754734,0,0,192.754734,-198.258056,-227.063948)"/>
</g>
</g>
</g>
<g clip-path="url(#clip25)" clip-rule="nonzero">
<g clip-path="url(#clip26)" clip-rule="evenodd">
<g clip-path="url(#clip27)" clip-rule="evenodd">
<path style="fill:none;stroke-width:0.0204033;stroke-linecap:butt;stroke-linejoin:miter;stroke:rgb(17.96875%,20.3125%,21.09375%);stroke-opacity:0.8;stroke-miterlimit:10;" d="M 2.399971 3.068228 L 2.002506 3.486222 " transform="matrix(192.754734,0,0,192.754734,-198.258056,-227.063948)"/>
</g>
</g>
</g>
<g clip-path="url(#clip28)" clip-rule="nonzero">
<g clip-path="url(#clip29)" clip-rule="evenodd">
<g clip-path="url(#clip30)" clip-rule="evenodd">
<path style="fill:none;stroke-width:0.0204033;stroke-linecap:butt;stroke-linejoin:miter;stroke:rgb(17.96875%,20.3125%,21.09375%);stroke-opacity:0.8;stroke-miterlimit:10;" d="M 2.399971 3.068228 L 2.680119 3.546552 " transform="matrix(192.754734,0,0,192.754734,-198.258056,-227.063948)"/>
</g>
</g>
</g>
<g clip-path="url(#clip31)" clip-rule="nonzero">
<g clip-path="url(#clip32)" clip-rule="evenodd">
<g clip-path="url(#clip33)" clip-rule="evenodd">
<path style="fill:none;stroke-width:0.0204033;stroke-linecap:butt;stroke-linejoin:miter;stroke:rgb(17.96875%,20.3125%,21.09375%);stroke-opacity:0.8;stroke-miterlimit:10;" d="M 1.323676 1.798176 L 1.761327 1.795379 " transform="matrix(192.754734,0,0,192.754734,-198.258056,-227.063948)"/>
</g>
</g>
</g>
<g clip-path="url(#clip34)" clip-rule="nonzero">
<g clip-path="url(#clip35)" clip-rule="evenodd">
<g clip-path="url(#clip36)" clip-rule="evenodd">
<path style="fill:none;stroke-width:0.0204033;stroke-linecap:butt;stroke-linejoin:miter;stroke:rgb(17.96875%,20.3125%,21.09375%);stroke-opacity:0.8;stroke-miterlimit:10;" d="M 3.37812 2.220831 L 2.915421 2.671249 " transform="matrix(192.754734,0,0,192.754734,-198.258056,-227.063948)"/>
</g>
</g>
</g>
<g clip-path="url(#clip37)" clip-rule="nonzero">
<g clip-path="url(#clip38)" clip-rule="evenodd">
<g clip-path="url(#clip39)" clip-rule="evenodd">
<path style="fill:none;stroke-width:0.0204033;stroke-linecap:butt;stroke-linejoin:miter;stroke:rgb(17.96875%,20.3125%,21.09375%);stroke-opacity:0.8;stroke-miterlimit:10;" d="M 3.37812 2.220831 L 3.52166 1.766866 " transform="matrix(192.754734,0,0,192.754734,-198.258056,-227.063948)"/>
</g>
</g>
</g>
<g clip-path="url(#clip40)" clip-rule="nonzero">
<g clip-path="url(#clip41)" clip-rule="evenodd">
<g clip-path="url(#clip42)" clip-rule="evenodd">
<path style="fill:none;stroke-width:0.0204033;stroke-linecap:butt;stroke-linejoin:miter;stroke:rgb(17.96875%,20.3125%,21.09375%);stroke-opacity:0.8;stroke-miterlimit:10;" d="M 3.37812 2.220831 L 3.779618 2.372619 " transform="matrix(192.754734,0,0,192.754734,-198.258056,-227.063948)"/>
</g>
</g>
</g>
<g clip-path="url(#clip43)" clip-rule="nonzero">
<g clip-path="url(#clip44)" clip-rule="evenodd">
<g clip-path="url(#clip45)" clip-rule="evenodd">
<path style="fill:none;stroke-width:0.0204033;stroke-linecap:butt;stroke-linejoin:miter;stroke:rgb(17.96875%,20.3125%,21.09375%);stroke-opacity:0.8;stroke-miterlimit:10;" d="M 3.52166 1.766866 L 3.774288 1.890951 " transform="matrix(192.754734,0,0,192.754734,-198.258056,-227.063948)"/>
</g>
</g>
</g>
<g clip-path="url(#clip46)" clip-rule="nonzero">
<g clip-path="url(#clip47)" clip-rule="evenodd">
<g clip-path="url(#clip48)" clip-rule="evenodd">
<path style="fill:none;stroke-width:0.0204033;stroke-linecap:butt;stroke-linejoin:miter;stroke:rgb(17.96875%,20.3125%,21.09375%);stroke-opacity:0.8;stroke-miterlimit:10;" d="M 3.779618 2.372619 L 3.774288 1.890951 " transform="matrix(192.754734,0,0,192.754734,-198.258056,-227.063948)"/>
</g>
</g>
</g>
<g clip-path="url(#clip49)" clip-rule="nonzero">
<g clip-path="url(#clip50)" clip-rule="evenodd">
<g clip-path="url(#clip51)" clip-rule="evenodd">
<path style="fill:none;stroke-width:0.0204033;stroke-linecap:butt;stroke-linejoin:miter;stroke:rgb(17.96875%,20.3125%,21.09375%);stroke-opacity:0.8;stroke-miterlimit:10;" d="M 3.779618 2.372619 L 3.909763 2.959687 " transform="matrix(192.754734,0,0,192.754734,-198.258056,-227.063948)"/>
</g>
</g>
</g>
<g clip-path="url(#clip52)" clip-rule="nonzero">
<g clip-path="url(#clip53)" clip-rule="evenodd">
<g clip-path="url(#clip54)" clip-rule="evenodd">
<path style="fill:none;stroke-width:0.0204033;stroke-linecap:butt;stroke-linejoin:miter;stroke:rgb(17.96875%,20.3125%,21.09375%);stroke-opacity:0.8;stroke-miterlimit:10;" d="M 3.896408 3.353362 L 3.909763 2.959687 " transform="matrix(192.754734,0,0,192.754734,-198.258056,-227.063948)"/>
</g>
</g>
</g>
<g clip-path="url(#clip55)" clip-rule="nonzero">
<g clip-path="url(#clip56)" clip-rule="evenodd">
<g clip-path="url(#clip57)" clip-rule="evenodd">
<path style="fill:none;stroke-width:0.0204033;stroke-linecap:butt;stroke-linejoin:miter;stroke:rgb(17.96875%,20.3125%,21.09375%);stroke-opacity:0.8;stroke-miterlimit:10;" d="M 2.002506 3.486222 L 1.626826 3.755387 " transform="matrix(192.754734,0,0,192.754734,-198.258056,-227.063948)"/>
</g>
</g>
</g>
<g clip-path="url(#clip58)" clip-rule="nonzero">
<g clip-path="url(#clip59)" clip-rule="evenodd">
<g clip-path="url(#clip60)" clip-rule="evenodd">
<path style="fill:none;stroke-width:0.0204033;stroke-linecap:butt;stroke-linejoin:miter;stroke:rgb(17.96875%,20.3125%,21.09375%);stroke-opacity:0.8;stroke-miterlimit:10;" d="M 1.626826 3.755387 L 1.260103 3.618089 " transform="matrix(192.754734,0,0,192.754734,-198.258056,-227.063948)"/>
</g>
</g>
</g>
<g clip-path="url(#clip61)" clip-rule="nonzero">
<g clip-path="url(#clip62)" clip-rule="evenodd">
<g clip-path="url(#clip63)" clip-rule="evenodd">
<path style="fill:none;stroke-width:0.0204033;stroke-linecap:butt;stroke-linejoin:miter;stroke:rgb(17.96875%,20.3125%,21.09375%);stroke-opacity:0.8;stroke-miterlimit:10;" d="M 1.626826 3.755387 L 1.754214 4.077262 " transform="matrix(192.754734,0,0,192.754734,-198.258056,-227.063948)"/>
</g>
</g>
</g>
<path style="fill-rule:nonzero;fill:rgb(100%,92.941176%,43.529412%);fill-opacity:1;stroke-width:0.0204033;stroke-linecap:butt;stroke-linejoin:miter;stroke:rgb(60%,60%,60%);stroke-opacity:0.8;stroke-miterlimit:10;" d="M 0.102014 -0.00000591677 C 0.102014 0.0563521 0.0563359 0.10201 -0.00000191821 0.10201 C -0.0563397 0.10201 -0.102018 0.0563521 -0.102018 -0.00000591677 C -0.102018 -0.0563437 -0.0563397 -0.102022 -0.00000191821 -0.102022 C 0.0563359 -0.102022 0.102014 -0.0563437 0.102014 -0.00000591677 Z M 0.102014 -0.00000591677 " transform="matrix(192.754734,0,0,192.754734,128.308963,50.883953)"/>
<path style="fill-rule:nonzero;fill:rgb(100%,92.941176%,43.529412%);fill-opacity:1;stroke-width:0.0204033;stroke-linecap:butt;stroke-linejoin:miter;stroke:rgb(60%,60%,60%);stroke-opacity:0.8;stroke-miterlimit:10;" d="M 0.102008 -0.00000544688 C 0.102008 0.0563323 0.0563504 0.102011 -0.00000770157 0.102011 C -0.0563455 0.102011 -0.102024 0.0563323 -0.102024 -0.00000544688 C -0.102024 -0.0563432 -0.0563455 -0.102021 -0.00000770157 -0.102021 C 0.0563504 -0.102021 0.102008 -0.0563432 0.102008 -0.00000544688 Z M 0.102008 -0.00000544688 " transform="matrix(192.754734,0,0,192.754734,177.880391,41.153394)"/>
<path style="fill-rule:nonzero;fill:rgb(100%,92.941176%,43.529412%);fill-opacity:1;stroke-width:0.0204033;stroke-linecap:butt;stroke-linejoin:miter;stroke:rgb(60%,60%,60%);stroke-opacity:0.8;stroke-miterlimit:10;" d="M 0.102012 0.00000511341 C 0.102012 0.0563429 0.0563337 0.102021 -0.00000412338 0.102021 C -0.0563419 0.102021 -0.10202 0.0563429 -0.10202 0.00000511341 C -0.10202 -0.0563327 -0.0563419 -0.102011 -0.00000412338 -0.102011 C 0.0563337 -0.102011 0.102012 -0.0563327 0.102012 0.00000511341 Z M 0.102012 0.00000511341 " transform="matrix(192.754734,0,0,192.754734,57.567201,67.362296)"/>
<path style="fill-rule:nonzero;fill:rgb(100%,92.941176%,43.529412%);fill-opacity:1;stroke-width:0.0204033;stroke-linecap:butt;stroke-linejoin:miter;stroke:rgb(60%,60%,60%);stroke-opacity:0.8;stroke-miterlimit:10;" d="M 0.102019 0.00000664157 C 0.102019 0.0563444 0.0563406 0.102023 0.00000276834 0.102023 C -0.056335 0.102023 -0.102013 0.0563444 -0.102013 0.00000664157 C -0.102013 -0.0563514 -0.056335 -0.102009 0.00000276834 -0.102009 C 0.0563406 -0.102009 0.102019 -0.0563514 0.102019 0.00000664157 Z M 0.102019 0.00000664157 " transform="matrix(192.754734,0,0,192.754734,186.300248,244.81122)"/>
<path style="fill-rule:nonzero;fill:rgb(55.294118%,82.745098%,78.039216%);fill-opacity:1;stroke-width:0.0204033;stroke-linecap:butt;stroke-linejoin:miter;stroke:rgb(60%,60%,60%);stroke-opacity:0.8;stroke-miterlimit:10;" d="M 0.102015 0.00000977475 C 0.102015 0.0563476 0.0563371 0.102026 -0.000000660429 0.102026 C -0.0563384 0.102026 -0.102017 0.0563476 -0.102017 0.00000977475 C -0.102017 -0.0563483 -0.0563384 -0.102026 -0.000000660429 -0.102026 C 0.0563371 -0.102026 0.102015 -0.0563483 0.102015 0.00000977475 Z M 0.102015 0.00000977475 " transform="matrix(192.754734,0,0,192.754734,264.347784,364.349678)"/>
<path style="fill-rule:nonzero;fill:rgb(100%,92.941176%,43.529412%);fill-opacity:1;stroke-width:0.0204033;stroke-linecap:butt;stroke-linejoin:miter;stroke:rgb(60%,60%,60%);stroke-opacity:0.8;stroke-miterlimit:10;" d="M 0.102009 -0.00000334866 C 0.102009 0.0563344 0.0563515 0.102013 -0.0000065767 0.102013 C -0.0563444 0.102013 -0.102023 0.0563344 -0.102023 -0.00000334866 C -0.102023 -0.0563411 -0.0563444 -0.102019 -0.0000065767 -0.102019 C 0.0563515 -0.102019 0.102009 -0.0563411 0.102009 -0.00000334866 Z M 0.102009 -0.00000334866 " transform="matrix(192.754734,0,0,192.754734,56.887986,119.543614)"/>
<path style="fill-rule:nonzero;fill:rgb(100%,92.941176%,43.529412%);fill-opacity:1;stroke-width:0.0204033;stroke-linecap:butt;stroke-linejoin:miter;stroke:rgb(60%,60%,60%);stroke-opacity:0.8;stroke-miterlimit:10;" d="M 0.102017 0.000000901072 C 0.102017 0.0563387 0.056339 0.102017 0.00000119766 0.102017 C -0.0563366 0.102017 -0.102015 0.0563387 -0.102015 0.000000901072 C -0.102015 -0.0563369 -0.0563366 -0.102015 0.00000119766 -0.102015 C 0.056339 -0.102015 0.102017 -0.0563369 0.102017 0.000000901072 Z M 0.102017 0.000000901072 " transform="matrix(192.754734,0,0,192.754734,141.245863,119.003733)"/>
<path style="fill-rule:nonzero;fill:rgb(55.294118%,82.745098%,78.039216%);fill-opacity:1;stroke-width:0.0204033;stroke-linecap:butt;stroke-linejoin:miter;stroke:rgb(60%,60%,60%);stroke-opacity:0.8;stroke-miterlimit:10;" d="M 0.102012 0.00000651346 C 0.102012 0.0563443 0.0563342 0.102022 -0.00000353686 0.102022 C -0.0563413 0.102022 -0.10202 0.0563443 -0.10202 0.00000651346 C -0.10202 -0.0563515 -0.0563413 -0.102009 -0.00000353686 -0.102009 C 0.0563342 -0.102009 0.102012 -0.0563515 0.102012 0.00000651346 Z M 0.102012 0.00000651346 " transform="matrix(192.754734,0,0,192.754734,452.891307,201.010463)"/>
<path style="fill-rule:nonzero;fill:rgb(55.294118%,82.745098%,78.039216%);fill-opacity:1;stroke-width:0.0204033;stroke-linecap:butt;stroke-linejoin:miter;stroke:rgb(60%,60%,60%);stroke-opacity:0.8;stroke-miterlimit:10;" d="M 0.102014 0.00000789831 C 0.102014 0.0563457 0.0563355 0.102024 -0.00000230206 0.102024 C -0.0563401 0.102024 -0.102018 0.0563457 -0.102018 0.00000789831 C -0.102018 -0.0563502 -0.0563401 -0.102008 -0.00000230206 -0.102008 C 0.0563355 -0.102008 0.102014 -0.0563502 0.102014 0.00000789831 Z M 0.102014 0.00000789831 " transform="matrix(192.754734,0,0,192.754734,363.703569,287.830509)"/>
<path style="fill-rule:nonzero;fill:rgb(55.294118%,82.745098%,78.039216%);fill-opacity:1;stroke-width:0.0204033;stroke-linecap:butt;stroke-linejoin:miter;stroke:rgb(60%,60%,60%);stroke-opacity:0.8;stroke-miterlimit:10;" d="M 0.102017 -0.00000627336 C 0.102017 0.0563518 0.0563391 0.10201 0.00000127829 0.10201 C -0.0563365 0.10201 -0.102015 0.0563518 -0.102015 -0.00000627336 C -0.102015 -0.0563441 -0.0563365 -0.102022 0.00000127829 -0.102022 C 0.0563391 -0.102022 0.102017 -0.0563441 0.102017 -0.00000627336 Z M 0.102017 -0.00000627336 " transform="matrix(192.754734,0,0,192.754734,480.558347,113.509022)"/>
<path style="fill-rule:nonzero;fill:rgb(55.294118%,82.745098%,78.039216%);fill-opacity:1;stroke-width:0.0204033;stroke-linecap:butt;stroke-linejoin:miter;stroke:rgb(60%,60%,60%);stroke-opacity:0.8;stroke-miterlimit:10;" d="M 0.10201 -0.00000308316 C 0.10201 0.0563347 0.0563516 0.102013 -0.00000643428 0.102013 C -0.0563442 0.102013 -0.102022 0.0563347 -0.102022 -0.00000308316 C -0.102022 -0.0563409 -0.0563442 -0.102019 -0.00000643428 -0.102019 C 0.0563516 -0.102019 0.10201 -0.0563409 0.10201 -0.00000308316 Z M 0.10201 -0.00000308316 " transform="matrix(192.754734,0,0,192.754734,530.28249,230.270126)"/>
<path style="fill-rule:nonzero;fill:rgb(55.294118%,82.745098%,78.039216%);fill-opacity:1;stroke-width:0.0204033;stroke-linecap:butt;stroke-linejoin:miter;stroke:rgb(60%,60%,60%);stroke-opacity:0.8;stroke-miterlimit:10;" d="M 0.102011 0.00000111997 C 0.102011 0.0563389 0.0563325 0.102017 -0.00000531218 0.102017 C -0.0563431 0.102017 -0.102021 0.0563389 -0.102021 0.00000111997 C -0.102021 -0.0563367 -0.0563431 -0.102015 -0.00000531218 -0.102015 C 0.0563325 -0.102015 0.102011 -0.0563367 0.102011 0.00000111997 Z M 0.102011 0.00000111997 " transform="matrix(192.754734,0,0,192.754734,552.793993,419.312284)"/>
<path style="fill-rule:nonzero;fill:rgb(55.294118%,82.745098%,78.039216%);fill-opacity:1;stroke-width:0.0204033;stroke-linecap:butt;stroke-linejoin:miter;stroke:rgb(60%,60%,60%);stroke-opacity:0.8;stroke-miterlimit:10;" d="M 0.102014 0.00000821952 C 0.102014 0.056346 0.056336 0.102024 -0.00000176828 0.102024 C -0.0563396 0.102024 -0.102018 0.056346 -0.102018 0.00000821952 C -0.102018 -0.0563498 -0.0563396 -0.102008 -0.00000176828 -0.102008 C 0.056336 -0.102008 0.102014 -0.0563498 0.102014 0.00000821952 Z M 0.102014 0.00000821952 " transform="matrix(192.754734,0,0,192.754734,529.254247,137.424197)"/>
<path style="fill-rule:nonzero;fill:rgb(55.294118%,82.745098%,78.039216%);fill-opacity:1;stroke-width:0.0204033;stroke-linecap:butt;stroke-linejoin:miter;stroke:rgb(60%,60%,60%);stroke-opacity:0.8;stroke-miterlimit:10;" d="M 0.102024 0.00000949317 C 0.102024 0.0563473 0.0563462 0.102025 0.00000839847 0.102025 C -0.0563497 0.102025 -0.102008 0.0563473 -0.102008 0.00000949317 C -0.102008 -0.0563486 -0.0563497 -0.102027 0.00000839847 -0.102027 C 0.0563462 -0.102027 0.102024 -0.0563486 0.102024 0.00000949317 Z M 0.102024 0.00000949317 " transform="matrix(192.754734,0,0,192.754734,555.365569,343.427858)"/>
<path style="fill-rule:nonzero;fill:rgb(55.294118%,82.745098%,78.039216%);fill-opacity:1;stroke-width:0.0204033;stroke-linecap:butt;stroke-linejoin:miter;stroke:rgb(60%,60%,60%);stroke-opacity:0.8;stroke-miterlimit:10;" d="M 0.102014 -0.000000693301 C 0.102014 0.0563371 0.0563356 0.102015 -0.00000219323 0.102015 C -0.05634 0.102015 -0.102018 0.0563371 -0.102018 -0.000000693301 C -0.102018 -0.0563385 -0.05634 -0.102017 -0.00000219323 -0.102017 C 0.0563356 -0.102017 0.102014 -0.0563385 0.102014 -0.000000693301 Z M 0.102014 -0.000000693301 " transform="matrix(192.754734,0,0,192.754734,187.734798,444.922009)"/>
<path style="fill-rule:nonzero;fill:rgb(55.294118%,82.745098%,78.039216%);fill-opacity:1;stroke-width:0.0204033;stroke-linecap:butt;stroke-linejoin:miter;stroke:rgb(60%,60%,60%);stroke-opacity:0.8;stroke-miterlimit:10;" d="M 0.102014 0.00000303602 C 0.102014 0.0563408 0.0563361 0.102019 -0.00000169648 0.102019 C -0.0563395 0.102019 -0.102018 0.0563408 -0.102018 0.00000303602 C -0.102018 -0.0563348 -0.0563395 -0.102013 -0.00000169648 -0.102013 C 0.0563361 -0.102013 0.102014 -0.0563348 0.102014 0.00000303602 Z M 0.102014 0.00000303602 " transform="matrix(192.754734,0,0,192.754734,115.32064,496.804102)"/>
<path style="fill-rule:nonzero;fill:rgb(55.294118%,82.745098%,78.039216%);fill-opacity:1;stroke-width:0.0204033;stroke-linecap:butt;stroke-linejoin:miter;stroke:rgb(60%,60%,60%);stroke-opacity:0.8;stroke-miterlimit:10;" d="M 0.102013 -0.00000333978 C 0.102013 0.0563344 0.0563345 0.102013 -0.00000332624 0.102013 C -0.0563411 0.102013 -0.102019 0.0563344 -0.102019 -0.00000333978 C -0.102019 -0.0563411 -0.0563411 -0.102019 -0.00000332624 -0.102019 C 0.0563345 -0.102019 0.102013 -0.0563411 0.102013 -0.00000333978 Z M 0.102013 -0.00000333978 " transform="matrix(192.754734,0,0,192.754734,318.348297,456.551425)"/>
<path style="fill-rule:nonzero;fill:rgb(55.294118%,82.745098%,78.039216%);fill-opacity:1;stroke-width:0.0204033;stroke-linecap:butt;stroke-linejoin:miter;stroke:rgb(60%,60%,60%);stroke-opacity:0.8;stroke-miterlimit:10;" d="M 0.102008 0.00000287891 C 0.102008 0.0563407 0.0563497 0.102019 -0.00000839847 0.102019 C -0.0563462 0.102019 -0.102024 0.0563407 -0.102024 0.00000287891 C -0.102024 -0.0563349 -0.0563462 -0.102013 -0.00000839847 -0.102013 C 0.0563497 -0.102013 0.102008 -0.0563349 0.102008 0.00000287891 Z M 0.102008 0.00000287891 " transform="matrix(192.754734,0,0,192.754734,44.634431,470.339289)"/>
<path style="fill-rule:nonzero;fill:rgb(55.294118%,82.745098%,78.039216%);fill-opacity:1;stroke-width:0.0204033;stroke-linecap:butt;stroke-linejoin:miter;stroke:rgb(60%,60%,60%);stroke-opacity:0.8;stroke-miterlimit:10;" d="M 0.102017 0.00000544688 C 0.102017 0.0563432 0.0563386 0.102021 0.000000827861 0.102021 C -0.056337 0.102021 -0.102015 0.0563432 -0.102015 0.00000544688 C -0.102015 -0.0563323 -0.056337 -0.102011 0.000000827861 -0.102011 C 0.0563386 -0.102011 0.102017 -0.0563323 0.102017 0.00000544688 Z M 0.102017 0.00000544688 " transform="matrix(192.754734,0,0,192.754734,139.87484,558.846606)"/>
</g>
</svg>
