<?xml version="1.0" encoding="UTF-8"?>
<svg xmlns="http://www.w3.org/2000/svg" xmlns:xlink="http://www.w3.org/1999/xlink" width="600pt" height="600pt" viewBox="0 0 600 600" version="1.1">
<defs>
<clipPath id="clip1">
  <path d="M 172.664062 227 L 416.277344 227 L 416.277344 377 L 172.664062 377 Z M 172.664062 227 "/>
</clipPath>
<clipPath id="clip2">
  <path d="M 172.664062 108.574219 L 416.277344 108.574219 L 416.277344 495.382812 L 172.664062 495.382812 Z M 172.664062 108.574219 L 233.101562 319.121094 C 233.101562 330.277344 224.054688 339.324219 212.898438 339.324219 C 201.738281 339.324219 192.695312 330.277344 192.695312 319.121094 C 192.695312 307.964844 201.738281 298.917969 212.898438 298.917969 C 224.054688 298.917969 233.101562 307.964844 233.101562 319.121094 Z M 172.664062 108.574219 "/>
</clipPath>
<clipPath id="clip3">
  <path d="M 172.664062 108.574219 L 416.277344 108.574219 L 416.277344 495.382812 L 172.664062 495.382812 Z M 172.664062 108.574219 L 396.242188 284.832031 C 396.242188 295.992188 387.199219 305.035156 376.039062 305.035156 C 364.882812 305.035156 355.835938 295.992188 355.835938 284.832031 C 355.835938 273.675781 364.882812 264.628906 376.039062 264.628906 C 387.199219 264.628906 396.242188 273.675781 396.242188 284.832031 Z M 172.664062 108.574219 "/>
</clipPath>
<clipPath id="clip4">
  <path d="M 62 261 L 271 261 L 271 457 L 62 457 Z M 62 261 "/>
</clipPath>
<clipPath id="clip5">
  <path d="M 0.9375 181.734375 L 331.777344 181.734375 L 331.777344 536.675781 L 0.9375 536.675781 Z M 0.9375 181.734375 L 233.101562 319.121094 C 233.101562 330.277344 224.054688 339.324219 212.898438 339.324219 C 201.738281 339.324219 192.695312 330.277344 192.695312 319.121094 C 192.695312 307.964844 201.738281 298.917969 212.898438 298.917969 C 224.054688 298.917969 233.101562 307.964844 233.101562 319.121094 Z M 0.9375 181.734375 "/>
</clipPath>
<clipPath id="clip6">
  <path d="M 0.9375 181.734375 L 331.777344 181.734375 L 331.777344 536.675781 L 0.9375 536.675781 Z M 0.9375 181.734375 L 140.015625 399.285156 C 140.015625 410.445312 130.972656 419.488281 119.8125 419.488281 C 108.65625 419.488281 99.613281 410.445312 99.613281 399.285156 C 99.613281 388.128906 108.65625 379.082031 119.8125 379.082031 C 130.972656 379.082031 140.015625 388.128906 140.015625 399.285156 Z M 0.9375 181.734375 "/>
</clipPath>
<clipPath id="clip7">
  <path d="M 94 170 L 271 170 L 271 377 L 94 377 Z M 94 170 "/>
</clipPath>
<clipPath id="clip8">
  <path d="M 1.09375 125.164062 L 363.0625 125.164062 L 363.0625 421.234375 L 1.09375 421.234375 Z M 1.09375 125.164062 L 233.101562 319.121094 C 233.101562 330.277344 224.054688 339.324219 212.898438 339.324219 C 201.738281 339.324219 192.695312 330.277344 192.695312 319.121094 C 192.695312 307.964844 201.738281 298.917969 212.898438 298.917969 C 224.054688 298.917969 233.101562 307.964844 233.101562 319.121094 Z M 1.09375 125.164062 "/>
</clipPath>
<clipPath id="clip9">
  <path d="M 1.09375 125.164062 L 363.0625 125.164062 L 363.0625 421.234375 L 1.09375 421.234375 Z M 1.09375 125.164062 L 171.457031 227.273438 C 171.457031 238.433594 162.410156 247.476562 151.253906 247.476562 C 140.09375 247.476562 131.050781 238.433594 131.050781 227.273438 C 131.050781 216.117188 140.09375 207.070312 151.253906 207.070312 C 162.410156 207.070312 171.457031 216.117188 171.457031 227.273438 Z M 1.09375 125.164062 "/>
</clipPath>
<clipPath id="clip10">
  <path d="M 318 157 L 492 157 L 492 342 L 318 342 Z M 318 157 "/>
</clipPath>
<clipPath id="clip11">
  <path d="M 236.8125 98.21875 L 573.53125 98.21875 L 573.53125 401.539062 L 236.8125 401.539062 Z M 236.8125 98.21875 L 454.503906 214.921875 C 454.503906 226.082031 445.457031 235.125 434.300781 235.125 C 423.140625 235.125 414.097656 226.082031 414.097656 214.921875 C 414.097656 203.765625 423.140625 194.71875 434.300781 194.71875 C 445.457031 194.71875 454.503906 203.765625 454.503906 214.921875 Z M 236.8125 98.21875 "/>
</clipPath>
<clipPath id="clip12">
  <path d="M 236.8125 98.21875 L 573.53125 98.21875 L 573.53125 401.539062 L 236.8125 401.539062 Z M 236.8125 98.21875 L 396.242188 284.832031 C 396.242188 295.992188 387.199219 305.035156 376.039062 305.035156 C 364.882812 305.035156 355.835938 295.992188 355.835938 284.832031 C 355.835938 273.675781 364.882812 264.628906 376.039062 264.628906 C 387.199219 264.628906 396.242188 273.675781 396.242188 284.832031 Z M 236.8125 98.21875 "/>
</clipPath>
<clipPath id="clip13">
  <path d="M 318 227 L 526 227 L 526 391 L 318 391 Z M 318 227 "/>
</clipPath>
<clipPath id="clip14">
  <path d="M 289.433594 125.386719 L 554.691406 125.386719 L 554.691406 493.183594 L 289.433594 493.183594 Z M 289.433594 125.386719 L 396.242188 284.832031 C 396.242188 295.992188 387.199219 305.035156 376.039062 305.035156 C 364.882812 305.035156 355.835938 295.992188 355.835938 284.832031 C 355.835938 273.675781 364.882812 264.628906 376.039062 264.628906 C 387.199219 264.628906 396.242188 273.675781 396.242188 284.832031 Z M 289.433594 125.386719 "/>
</clipPath>
<clipPath id="clip15">
  <path d="M 289.433594 125.386719 L 554.691406 125.386719 L 554.691406 493.183594 L 289.433594 493.183594 Z M 289.433594 125.386719 L 488.285156 333.734375 C 488.285156 344.890625 479.242188 353.9375 468.082031 353.9375 C 456.925781 353.9375 447.878906 344.890625 447.878906 333.734375 C 447.878906 322.574219 456.925781 313.53125 468.082031 313.53125 C 479.242188 313.53125 488.285156 322.574219 488.285156 333.734375 Z M 289.433594 125.386719 "/>
</clipPath>
<clipPath id="clip16">
  <path d="M 266 435 L 451 435 L 451 594 L 266 594 Z M 266 435 "/>
</clipPath>
<clipPath id="clip17">
  <path d="M 226.664062 339.472656 L 490.371094 339.472656 L 490.371094 689.828125 L 226.664062 689.828125 Z M 226.664062 339.472656 L 343.835938 536.339844 C 343.835938 547.496094 334.789062 556.542969 323.632812 556.542969 C 312.472656 556.542969 303.429688 547.496094 303.429688 536.339844 C 303.429688 525.179688 312.472656 516.136719 323.632812 516.136719 C 334.789062 516.136719 343.835938 525.179688 343.835938 536.339844 Z M 226.664062 339.472656 "/>
</clipPath>
<clipPath id="clip18">
  <path d="M 226.664062 339.472656 L 490.371094 339.472656 L 490.371094 689.828125 L 226.664062 689.828125 Z M 226.664062 339.472656 L 413.601562 492.957031 C 413.601562 504.117188 404.558594 513.160156 393.398438 513.160156 C 382.242188 513.160156 373.195312 504.117188 373.195312 492.957031 C 373.195312 481.800781 382.242188 472.753906 393.398438 472.753906 C 404.558594 472.753906 413.601562 481.800781 413.601562 492.957031 Z M 226.664062 339.472656 "/>
</clipPath>
<clipPath id="clip19">
  <path d="M 210 479 L 381 479 L 381 600 L 210 600 Z M 210 479 "/>
</clipPath>
<clipPath id="clip20">
  <path d="M 199.78125 368.371094 L 391.675781 368.371094 L 391.675781 726.101562 L 199.78125 726.101562 Z M 199.78125 368.371094 L 343.835938 536.339844 C 343.835938 547.496094 334.789062 556.542969 323.632812 556.542969 C 312.472656 556.542969 303.429688 547.496094 303.429688 536.339844 C 303.429688 525.179688 312.472656 516.136719 323.632812 516.136719 C 334.789062 516.136719 343.835938 525.179688 343.835938 536.339844 Z M 199.78125 368.371094 "/>
</clipPath>
<clipPath id="clip21">
  <path d="M 199.78125 368.371094 L 391.675781 368.371094 L 391.675781 726.101562 L 199.78125 726.101562 Z M 199.78125 368.371094 L 288.023438 558.128906 C 288.023438 569.289062 278.980469 578.332031 267.820312 578.332031 C 256.664062 578.332031 247.617188 569.289062 247.617188 558.128906 C 247.617188 546.972656 256.664062 537.925781 267.820312 537.925781 C 278.980469 537.925781 288.023438 546.972656 288.023438 558.128906 Z M 199.78125 368.371094 "/>
</clipPath>
<clipPath id="clip22">
  <path d="M 336 367 L 507 367 L 507 551 L 336 551 Z M 336 367 "/>
</clipPath>
<clipPath id="clip23">
  <path d="M 253.070312 309.023438 L 589.738281 309.023438 L 589.738281 608.332031 L 253.070312 608.332031 Z M 253.070312 309.023438 L 413.601562 492.957031 C 413.601562 504.117188 404.558594 513.160156 393.398438 513.160156 C 382.242188 513.160156 373.195312 504.117188 373.195312 492.957031 C 373.195312 481.800781 382.242188 472.753906 393.398438 472.753906 C 404.558594 472.753906 413.601562 481.800781 413.601562 492.957031 Z M 253.070312 309.023438 "/>
</clipPath>
<clipPath id="clip24">
  <path d="M 253.070312 309.023438 L 589.738281 309.023438 L 589.738281 608.332031 L 253.070312 608.332031 Z M 253.070312 309.023438 L 469.609375 424.394531 C 469.609375 435.554688 460.566406 444.597656 449.40625 444.597656 C 438.25 444.597656 429.203125 435.554688 429.203125 424.394531 C 429.203125 413.238281 438.25 404.191406 449.40625 404.191406 C 460.566406 404.191406 469.609375 413.238281 469.609375 424.394531 Z M 253.070312 309.023438 "/>
</clipPath>
<clipPath id="clip25">
  <path d="M 392 294.1875 L 526 294.1875 L 526 463.945312 L 392 463.945312 Z M 392 294.1875 "/>
</clipPath>
<clipPath id="clip26">
  <path d="M 273.003906 294.1875 L 644.488281 294.1875 L 644.488281 463.945312 L 273.003906 463.945312 Z M 273.003906 294.1875 L 488.285156 333.734375 C 488.285156 344.890625 479.242188 353.9375 468.082031 353.9375 C 456.925781 353.9375 447.878906 344.890625 447.878906 333.734375 C 447.878906 322.574219 456.925781 313.53125 468.082031 313.53125 C 479.242188 313.53125 488.285156 322.574219 488.285156 333.734375 Z M 273.003906 294.1875 "/>
</clipPath>
<clipPath id="clip27">
  <path d="M 273.003906 294.1875 L 644.488281 294.1875 L 644.488281 463.945312 L 273.003906 463.945312 Z M 273.003906 294.1875 L 469.609375 424.394531 C 469.609375 435.554688 460.566406 444.597656 449.40625 444.597656 C 438.25 444.597656 429.203125 435.554688 429.203125 424.394531 C 429.203125 413.238281 438.25 404.191406 449.40625 404.191406 C 460.566406 404.191406 469.609375 413.238281 469.609375 424.394531 Z M 273.003906 294.1875 "/>
</clipPath>
<clipPath id="clip28">
  <path d="M 410 240 L 591 240 L 591 391 L 410 391 Z M 410 240 "/>
</clipPath>
<clipPath id="clip29">
  <path d="M 378.707031 139.652344 L 622.632812 139.652344 L 622.632812 491.683594 L 378.707031 491.683594 Z M 378.707031 139.652344 L 488.285156 333.734375 C 488.285156 344.890625 479.242188 353.9375 468.082031 353.9375 C 456.925781 353.9375 447.878906 344.890625 447.878906 333.734375 C 447.878906 322.574219 456.925781 313.53125 468.082031 313.53125 C 479.242188 313.53125 488.285156 322.574219 488.285156 333.734375 Z M 378.707031 139.652344 "/>
</clipPath>
<clipPath id="clip30">
  <path d="M 378.707031 139.652344 L 622.632812 139.652344 L 622.632812 491.683594 L 378.707031 491.683594 Z M 378.707031 139.652344 L 553.457031 297.597656 C 553.457031 308.753906 544.410156 317.800781 533.253906 317.800781 C 522.09375 317.800781 513.050781 308.753906 513.050781 297.597656 C 513.050781 286.441406 522.09375 277.394531 533.253906 277.394531 C 544.410156 277.394531 553.457031 286.441406 553.457031 297.597656 Z M 378.707031 139.652344 "/>
</clipPath>
<clipPath id="clip31">
  <path d="M 9 342 L 177 342 L 177 496 L 9 496 Z M 9 342 "/>
</clipPath>
<clipPath id="clip32">
  <path d="M -41.949219 253.765625 L 228.511719 253.765625 L 228.511719 584.0625 L -41.949219 584.0625 Z M -41.949219 253.765625 L 86.949219 438.539062 C 86.949219 449.695312 77.90625 458.742188 66.746094 458.742188 C 55.589844 458.742188 46.542969 449.695312 46.542969 438.539062 C 46.542969 427.378906 55.589844 418.335938 66.746094 418.335938 C 77.90625 418.335938 86.949219 427.378906 86.949219 438.539062 Z M -41.949219 253.765625 "/>
</clipPath>
<clipPath id="clip33">
  <path d="M -41.949219 253.765625 L 228.511719 253.765625 L 228.511719 584.0625 L -41.949219 584.0625 Z M -41.949219 253.765625 L 140.015625 399.285156 C 140.015625 410.445312 130.972656 419.488281 119.8125 419.488281 C 108.65625 419.488281 99.613281 410.445312 99.613281 399.285156 C 99.613281 388.128906 108.65625 379.082031 119.8125 379.082031 C 130.972656 379.082031 140.015625 388.128906 140.015625 399.285156 Z M -41.949219 253.765625 "/>
</clipPath>
<clipPath id="clip34">
  <path d="M 25 142 L 209 142 L 209 285 L 25 285 Z M 25 142 "/>
</clipPath>
<clipPath id="clip35">
  <path d="M 12.0625 32.453125 L 222.3125 32.453125 L 222.3125 394.035156 L 12.0625 394.035156 Z M 12.0625 32.453125 L 171.457031 227.273438 C 171.457031 238.433594 162.410156 247.476562 151.253906 247.476562 C 140.09375 247.476562 131.050781 238.433594 131.050781 227.273438 C 131.050781 216.117188 140.09375 207.070312 151.253906 207.070312 C 162.410156 207.070312 171.457031 216.117188 171.457031 227.273438 Z M 12.0625 32.453125 "/>
</clipPath>
<clipPath id="clip36">
  <path d="M 12.0625 32.453125 L 222.3125 32.453125 L 222.3125 394.035156 L 12.0625 394.035156 Z M 12.0625 32.453125 L 103.320312 199.210938 C 103.320312 210.367188 94.277344 219.414062 83.117188 219.414062 C 71.960938 219.414062 62.914062 210.367188 62.914062 199.210938 C 62.914062 188.050781 71.960938 179.007812 83.117188 179.007812 C 94.277344 179.007812 103.320312 188.050781 103.320312 199.210938 Z M 12.0625 32.453125 "/>
</clipPath>
<clipPath id="clip37">
  <path d="M 94 58 L 245 58 L 245 285 L 94 285 Z M 94 58 "/>
</clipPath>
<clipPath id="clip38">
  <path d="M -20.089844 56.828125 L 359.078125 56.828125 L 359.078125 285.886719 L -20.089844 285.886719 Z M -20.089844 56.828125 L 171.457031 227.273438 C 171.457031 238.433594 162.410156 247.476562 151.253906 247.476562 C 140.09375 247.476562 131.050781 238.433594 131.050781 227.273438 C 131.050781 216.117188 140.09375 207.070312 151.253906 207.070312 C 162.410156 207.070312 171.457031 216.117188 171.457031 227.273438 Z M -20.089844 56.828125 "/>
</clipPath>
<clipPath id="clip39">
  <path d="M -20.089844 56.828125 L 359.078125 56.828125 L 359.078125 285.886719 L -20.089844 285.886719 Z M -20.089844 56.828125 L 207.933594 115.4375 C 207.933594 126.59375 198.890625 135.640625 187.730469 135.640625 C 176.574219 135.640625 167.527344 126.59375 167.527344 115.4375 C 167.527344 104.28125 176.574219 95.234375 187.730469 95.234375 C 198.890625 95.234375 207.933594 104.28125 207.933594 115.4375 Z M -20.089844 56.828125 "/>
</clipPath>
<clipPath id="clip40">
  <path d="M 173 0 L 376 0 L 376 142 L 173 142 Z M 173 0 "/>
</clipPath>
<clipPath id="clip41">
  <path d="M 153.332031 -119.324219 L 395.347656 -119.324219 L 395.347656 248.636719 L 153.332031 248.636719 Z M 153.332031 -119.324219 L 338.113281 44.660156 C 338.113281 55.820312 329.066406 64.863281 317.910156 64.863281 C 306.75 64.863281 297.707031 55.820312 297.707031 44.660156 C 297.707031 33.503906 306.75 24.457031 317.910156 24.457031 C 329.066406 24.457031 338.113281 33.503906 338.113281 44.660156 Z M 153.332031 -119.324219 "/>
</clipPath>
<clipPath id="clip42">
  <path d="M 153.332031 -119.324219 L 395.347656 -119.324219 L 395.347656 248.636719 L 153.332031 248.636719 Z M 153.332031 -119.324219 L 250.96875 84.648438 C 250.96875 95.804688 241.921875 104.851562 230.765625 104.851562 C 219.609375 104.851562 210.5625 95.804688 210.5625 84.648438 C 210.5625 73.492188 219.609375 64.445312 230.765625 64.445312 C 241.921875 64.445312 250.96875 73.492188 250.96875 84.648438 Z M 153.332031 -119.324219 "/>
</clipPath>
<clipPath id="clip43">
  <path d="M 62 27 L 288 27 L 288 192 L 62 192 Z M 62 27 "/>
</clipPath>
<clipPath id="clip44">
  <path d="M 43.417969 -79.867188 L 307.035156 -79.867188 L 307.035156 299.164062 L 43.417969 299.164062 Z M 43.417969 -79.867188 L 139.886719 134.644531 C 139.886719 145.800781 130.839844 154.847656 119.683594 154.847656 C 108.527344 154.847656 99.480469 145.800781 99.480469 134.644531 C 99.480469 123.484375 108.527344 114.441406 119.683594 114.441406 C 130.839844 114.441406 139.886719 123.484375 139.886719 134.644531 Z M 43.417969 -79.867188 "/>
</clipPath>
<clipPath id="clip45">
  <path d="M 43.417969 -79.867188 L 307.035156 -79.867188 L 307.035156 299.164062 L 43.417969 299.164062 Z M 43.417969 -79.867188 L 250.96875 84.648438 C 250.96875 95.804688 241.921875 104.851562 230.765625 104.851562 C 219.609375 104.851562 210.5625 95.804688 210.5625 84.648438 C 210.5625 73.492188 219.609375 64.445312 230.765625 64.445312 C 241.921875 64.445312 250.96875 73.492188 250.96875 84.648438 Z M 43.417969 -79.867188 "/>
</clipPath>
<clipPath id="clip46">
  <path d="M 25 77 L 177 77 L 177 257 L 25 257 Z M 25 77 "/>
</clipPath>
<clipPath id="clip47">
  <path d="M -74.050781 43.882812 L 276.855469 43.882812 L 276.855469 289.976562 L -74.050781 289.976562 Z M -74.050781 43.882812 L 139.886719 134.644531 C 139.886719 145.800781 130.839844 154.847656 119.683594 154.847656 C 108.527344 154.847656 99.480469 145.800781 99.480469 134.644531 C 99.480469 123.484375 108.527344 114.441406 119.683594 114.441406 C 130.839844 114.441406 139.886719 123.484375 139.886719 134.644531 Z M -74.050781 43.882812 "/>
</clipPath>
<clipPath id="clip48">
  <path d="M -74.050781 43.882812 L 276.855469 43.882812 L 276.855469 289.976562 L -74.050781 289.976562 Z M -74.050781 43.882812 L 103.320312 199.210938 C 103.320312 210.367188 94.277344 219.414062 83.117188 219.414062 C 71.960938 219.414062 62.914062 210.367188 62.914062 199.210938 C 62.914062 188.050781 71.960938 179.007812 83.117188 179.007812 C 94.277344 179.007812 103.320312 188.050781 103.320312 199.210938 Z M -74.050781 43.882812 "/>
</clipPath>
<clipPath id="clip49">
  <path d="M 130 27 L 288 27 L 288 173 L 130 173 Z M 130 27 "/>
</clipPath>
<clipPath id="clip50">
  <path d="M 81.296875 -62.515625 L 337.203125 -62.515625 L 337.203125 262.605469 L 81.296875 262.605469 Z M 81.296875 -62.515625 L 250.96875 84.648438 C 250.96875 95.804688 241.921875 104.851562 230.765625 104.851562 C 219.609375 104.851562 210.5625 95.804688 210.5625 84.648438 C 210.5625 73.492188 219.609375 64.445312 230.765625 64.445312 C 241.921875 64.445312 250.96875 73.492188 250.96875 84.648438 Z M 81.296875 -62.515625 "/>
</clipPath>
<clipPath id="clip51">
  <path d="M 81.296875 -62.515625 L 337.203125 -62.515625 L 337.203125 262.605469 L 81.296875 262.605469 Z M 81.296875 -62.515625 L 207.933594 115.4375 C 207.933594 126.59375 198.890625 135.640625 187.730469 135.640625 C 176.574219 135.640625 167.527344 126.59375 167.527344 115.4375 C 167.527344 104.28125 176.574219 95.234375 187.730469 95.234375 C 198.890625 95.234375 207.933594 104.28125 207.933594 115.4375 Z M 81.296875 -62.515625 "/>
</clipPath>
<clipPath id="clip52">
  <path d="M 118 9.132812 L 245 9.132812 L 245 148.179688 L 118 148.179688 Z M 118 9.132812 "/>
</clipPath>
<clipPath id="clip53">
  <path d="M -2.09375 9.132812 L 365.398438 9.132812 L 365.398438 148.179688 L -2.09375 148.179688 Z M -2.09375 9.132812 L 195.773438 41.871094 C 195.773438 53.027344 186.730469 62.074219 175.570312 62.074219 C 164.414062 62.074219 155.367188 53.027344 155.367188 41.871094 C 155.367188 30.710938 164.414062 21.667969 175.570312 21.667969 C 186.730469 21.667969 195.773438 30.710938 195.773438 41.871094 Z M -2.09375 9.132812 "/>
</clipPath>
<clipPath id="clip54">
  <path d="M -2.09375 9.132812 L 365.398438 9.132812 L 365.398438 148.179688 L -2.09375 148.179688 Z M -2.09375 9.132812 L 207.933594 115.4375 C 207.933594 126.59375 198.890625 135.640625 187.730469 135.640625 C 176.574219 135.640625 167.527344 126.59375 167.527344 115.4375 C 167.527344 104.28125 176.574219 95.234375 187.730469 95.234375 C 198.890625 95.234375 207.933594 104.28125 207.933594 115.4375 Z M -2.09375 9.132812 "/>
</clipPath>
</defs>
<g id="surface111">
<g clip-path="url(#clip1)" clip-rule="nonzero">
<g clip-path="url(#clip2)" clip-rule="evenodd">
<g clip-path="url(#clip3)" clip-rule="evenodd">
<path style="fill:none;stroke-width:0.0229605;stroke-linecap:butt;stroke-linejoin:miter;stroke:rgb(17.96875%,20.3125%,21.09375%);stroke-opacity:0.8;stroke-miterlimit:10;" d="M 2.245825 2.180244 L 3.172862 1.985399 " transform="matrix(175.980654,0,0,175.980654,-182.323351,-64.559736)"/>
</g>
</g>
</g>
<g clip-path="url(#clip4)" clip-rule="nonzero">
<g clip-path="url(#clip5)" clip-rule="evenodd">
<g clip-path="url(#clip6)" clip-rule="evenodd">
<path style="fill:none;stroke-width:0.0229605;stroke-linecap:butt;stroke-linejoin:miter;stroke:rgb(17.96875%,20.3125%,21.09375%);stroke-opacity:0.8;stroke-miterlimit:10;" d="M 2.245825 2.180244 L 1.71687 2.635772 " transform="matrix(175.980654,0,0,175.980654,-182.323351,-64.559736)"/>
</g>
</g>
</g>
<g clip-path="url(#clip7)" clip-rule="nonzero">
<g clip-path="url(#clip8)" clip-rule="evenodd">
<g clip-path="url(#clip9)" clip-rule="evenodd">
<path style="fill:none;stroke-width:0.0229605;stroke-linecap:butt;stroke-linejoin:miter;stroke:rgb(17.96875%,20.3125%,21.09375%);stroke-opacity:0.8;stroke-miterlimit:10;" d="M 2.245825 2.180244 L 1.895534 1.658325 " transform="matrix(175.980654,0,0,175.980654,-182.323351,-64.559736)"/>
</g>
</g>
</g>
<g clip-path="url(#clip10)" clip-rule="nonzero">
<g clip-path="url(#clip11)" clip-rule="evenodd">
<g clip-path="url(#clip12)" clip-rule="evenodd">
<path style="fill:none;stroke-width:0.0229605;stroke-linecap:butt;stroke-linejoin:miter;stroke:rgb(17.96875%,20.3125%,21.09375%);stroke-opacity:0.8;stroke-miterlimit:10;" d="M 3.503931 1.588138 L 3.172862 1.985399 " transform="matrix(175.980654,0,0,175.980654,-182.323351,-64.559736)"/>
</g>
</g>
</g>
<g clip-path="url(#clip13)" clip-rule="nonzero">
<g clip-path="url(#clip14)" clip-rule="evenodd">
<g clip-path="url(#clip15)" clip-rule="evenodd">
<path style="fill:none;stroke-width:0.0229605;stroke-linecap:butt;stroke-linejoin:miter;stroke:rgb(17.96875%,20.3125%,21.09375%);stroke-opacity:0.8;stroke-miterlimit:10;" d="M 3.172862 1.985399 L 3.695891 2.263283 " transform="matrix(175.980654,0,0,175.980654,-182.323351,-64.559736)"/>
</g>
</g>
</g>
<g clip-path="url(#clip16)" clip-rule="nonzero">
<g clip-path="url(#clip17)" clip-rule="evenodd">
<g clip-path="url(#clip18)" clip-rule="evenodd">
<path style="fill:none;stroke-width:0.0229605;stroke-linecap:butt;stroke-linejoin:miter;stroke:rgb(17.96875%,20.3125%,21.09375%);stroke-opacity:0.8;stroke-miterlimit:10;" d="M 2.875067 3.414577 L 3.271506 3.168057 " transform="matrix(175.980654,0,0,175.980654,-182.323351,-64.559736)"/>
</g>
</g>
</g>
<g clip-path="url(#clip19)" clip-rule="nonzero">
<g clip-path="url(#clip20)" clip-rule="evenodd">
<g clip-path="url(#clip21)" clip-rule="evenodd">
<path style="fill:none;stroke-width:0.0229605;stroke-linecap:butt;stroke-linejoin:miter;stroke:rgb(17.96875%,20.3125%,21.09375%);stroke-opacity:0.8;stroke-miterlimit:10;" d="M 2.875067 3.414577 L 2.557916 3.538393 " transform="matrix(175.980654,0,0,175.980654,-182.323351,-64.559736)"/>
</g>
</g>
</g>
<g clip-path="url(#clip22)" clip-rule="nonzero">
<g clip-path="url(#clip23)" clip-rule="evenodd">
<g clip-path="url(#clip24)" clip-rule="evenodd">
<path style="fill:none;stroke-width:0.0229605;stroke-linecap:butt;stroke-linejoin:miter;stroke:rgb(17.96875%,20.3125%,21.09375%);stroke-opacity:0.8;stroke-miterlimit:10;" d="M 3.271506 3.168057 L 3.589767 2.778455 " transform="matrix(175.980654,0,0,175.980654,-182.323351,-64.559736)"/>
</g>
</g>
</g>
<g clip-path="url(#clip25)" clip-rule="nonzero">
<g clip-path="url(#clip26)" clip-rule="evenodd">
<g clip-path="url(#clip27)" clip-rule="evenodd">
<path style="fill:none;stroke-width:0.0229605;stroke-linecap:butt;stroke-linejoin:miter;stroke:rgb(17.96875%,20.3125%,21.09375%);stroke-opacity:0.8;stroke-miterlimit:10;" d="M 3.695891 2.263283 L 3.589767 2.778455 " transform="matrix(175.980654,0,0,175.980654,-182.323351,-64.559736)"/>
</g>
</g>
</g>
<g clip-path="url(#clip28)" clip-rule="nonzero">
<g clip-path="url(#clip29)" clip-rule="evenodd">
<g clip-path="url(#clip30)" clip-rule="evenodd">
<path style="fill:none;stroke-width:0.0229605;stroke-linecap:butt;stroke-linejoin:miter;stroke:rgb(17.96875%,20.3125%,21.09375%);stroke-opacity:0.8;stroke-miterlimit:10;" d="M 3.695891 2.263283 L 4.066227 2.057939 " transform="matrix(175.980654,0,0,175.980654,-182.323351,-64.559736)"/>
</g>
</g>
</g>
<g clip-path="url(#clip31)" clip-rule="nonzero">
<g clip-path="url(#clip32)" clip-rule="evenodd">
<g clip-path="url(#clip33)" clip-rule="evenodd">
<path style="fill:none;stroke-width:0.0229605;stroke-linecap:butt;stroke-linejoin:miter;stroke:rgb(17.96875%,20.3125%,21.09375%);stroke-opacity:0.8;stroke-miterlimit:10;" d="M 1.415323 2.85883 L 1.71687 2.635772 " transform="matrix(175.980654,0,0,175.980654,-182.323351,-64.559736)"/>
</g>
</g>
</g>
<g clip-path="url(#clip34)" clip-rule="nonzero">
<g clip-path="url(#clip35)" clip-rule="evenodd">
<g clip-path="url(#clip36)" clip-rule="evenodd">
<path style="fill:none;stroke-width:0.0229605;stroke-linecap:butt;stroke-linejoin:miter;stroke:rgb(17.96875%,20.3125%,21.09375%);stroke-opacity:0.8;stroke-miterlimit:10;" d="M 1.895534 1.658325 L 1.508351 1.498862 " transform="matrix(175.980654,0,0,175.980654,-182.323351,-64.559736)"/>
</g>
</g>
</g>
<g clip-path="url(#clip37)" clip-rule="nonzero">
<g clip-path="url(#clip38)" clip-rule="evenodd">
<g clip-path="url(#clip39)" clip-rule="evenodd">
<path style="fill:none;stroke-width:0.0229605;stroke-linecap:butt;stroke-linejoin:miter;stroke:rgb(17.96875%,20.3125%,21.09375%);stroke-opacity:0.8;stroke-miterlimit:10;" d="M 1.895534 1.658325 L 2.10281 1.022824 " transform="matrix(175.980654,0,0,175.980654,-182.323351,-64.559736)"/>
</g>
</g>
</g>
<g clip-path="url(#clip40)" clip-rule="nonzero">
<g clip-path="url(#clip41)" clip-rule="evenodd">
<g clip-path="url(#clip42)" clip-rule="evenodd">
<path style="fill:none;stroke-width:0.0229605;stroke-linecap:butt;stroke-linejoin:miter;stroke:rgb(17.96875%,20.3125%,21.09375%);stroke-opacity:0.8;stroke-miterlimit:10;" d="M 2.842548 0.620636 L 2.347354 0.847867 " transform="matrix(175.980654,0,0,175.980654,-182.323351,-64.559736)"/>
</g>
</g>
</g>
<g clip-path="url(#clip43)" clip-rule="nonzero">
<g clip-path="url(#clip44)" clip-rule="evenodd">
<g clip-path="url(#clip45)" clip-rule="evenodd">
<path style="fill:none;stroke-width:0.0229605;stroke-linecap:butt;stroke-linejoin:miter;stroke:rgb(17.96875%,20.3125%,21.09375%);stroke-opacity:0.8;stroke-miterlimit:10;" d="M 1.716137 1.131967 L 2.347354 0.847867 " transform="matrix(175.980654,0,0,175.980654,-182.323351,-64.559736)"/>
</g>
</g>
</g>
<g clip-path="url(#clip46)" clip-rule="nonzero">
<g clip-path="url(#clip47)" clip-rule="evenodd">
<g clip-path="url(#clip48)" clip-rule="evenodd">
<path style="fill:none;stroke-width:0.0229605;stroke-linecap:butt;stroke-linejoin:miter;stroke:rgb(17.96875%,20.3125%,21.09375%);stroke-opacity:0.8;stroke-miterlimit:10;" d="M 1.716137 1.131967 L 1.508351 1.498862 " transform="matrix(175.980654,0,0,175.980654,-182.323351,-64.559736)"/>
</g>
</g>
</g>
<g clip-path="url(#clip49)" clip-rule="nonzero">
<g clip-path="url(#clip50)" clip-rule="evenodd">
<g clip-path="url(#clip51)" clip-rule="evenodd">
<path style="fill:none;stroke-width:0.0229605;stroke-linecap:butt;stroke-linejoin:miter;stroke:rgb(17.96875%,20.3125%,21.09375%);stroke-opacity:0.8;stroke-miterlimit:10;" d="M 2.347354 0.847867 L 2.10281 1.022824 " transform="matrix(175.980654,0,0,175.980654,-182.323351,-64.559736)"/>
</g>
</g>
</g>
<g clip-path="url(#clip52)" clip-rule="nonzero">
<g clip-path="url(#clip53)" clip-rule="evenodd">
<g clip-path="url(#clip54)" clip-rule="evenodd">
<path style="fill:none;stroke-width:0.0229605;stroke-linecap:butt;stroke-linejoin:miter;stroke:rgb(17.96875%,20.3125%,21.09375%);stroke-opacity:0.8;stroke-miterlimit:10;" d="M 2.03371 0.604787 L 2.10281 1.022824 " transform="matrix(175.980654,0,0,175.980654,-182.323351,-64.559736)"/>
</g>
</g>
</g>
<path style="fill-rule:nonzero;fill:rgb(100%,92.941176%,43.529412%);fill-opacity:1;stroke-width:0.0229605;stroke-linecap:butt;stroke-linejoin:miter;stroke:rgb(60%,60%,60%);stroke-opacity:0.8;stroke-miterlimit:10;" d="M 0.114811 0.0000019982 C 0.114811 0.0633968 0.0634022 0.114805 0.00000749456 0.114805 C -0.0634095 0.114805 -0.114796 0.0633968 -0.114796 0.0000019982 C -0.114796 -0.0633928 -0.0634095 -0.114801 0.00000749456 -0.114801 C 0.0634022 -0.114801 0.114811 -0.0633928 0.114811 0.0000019982 Z M 0.114811 0.0000019982 " transform="matrix(175.980654,0,0,175.980654,212.897119,319.120742)"/>
<path style="fill-rule:nonzero;fill:rgb(100%,92.941176%,43.529412%);fill-opacity:1;stroke-width:0.0229605;stroke-linecap:butt;stroke-linejoin:miter;stroke:rgb(60%,60%,60%);stroke-opacity:0.8;stroke-miterlimit:10;" d="M 0.114813 -0.00000828626 C 0.114813 0.0634087 0.0634051 0.114795 0.0000103609 0.114795 C -0.0634066 0.114795 -0.114793 0.0634087 -0.114793 -0.00000828626 C -0.114793 -0.063403 -0.0634066 -0.114811 0.0000103609 -0.114811 C 0.0634051 -0.114811 0.114813 -0.063403 0.114813 -0.00000828626 Z M 0.114813 -0.00000828626 " transform="matrix(175.980654,0,0,175.980654,434.298958,214.923333)"/>
<path style="fill-rule:nonzero;fill:rgb(100%,92.941176%,43.529412%);fill-opacity:1;stroke-width:0.0229605;stroke-linecap:butt;stroke-linejoin:miter;stroke:rgb(60%,60%,60%);stroke-opacity:0.8;stroke-miterlimit:10;" d="M 0.114796 -0.00000410035 C 0.114796 0.0634128 0.0634103 0.114799 -0.00000669107 0.114799 C -0.0634014 0.114799 -0.11481 0.0634128 -0.11481 -0.00000410035 C -0.11481 -0.0633989 -0.0634014 -0.114807 -0.00000669107 -0.114807 C 0.0634103 -0.114807 0.114796 -0.0633989 0.114796 -0.00000410035 Z M 0.114796 -0.00000410035 " transform="matrix(175.980654,0,0,175.980654,376.04024,284.832753)"/>
<path style="fill-rule:nonzero;fill:rgb(100%,92.941176%,43.529412%);fill-opacity:1;stroke-width:0.0229605;stroke-linecap:butt;stroke-linejoin:miter;stroke:rgb(60%,60%,60%);stroke-opacity:0.8;stroke-miterlimit:10;" d="M 0.11481 0.00000520911 C 0.11481 0.0634 0.0634016 0.114808 0.00000687236 0.114808 C -0.0634101 0.114808 -0.114796 0.0634 -0.114796 0.00000520911 C -0.114796 -0.0634117 -0.0634101 -0.114798 0.00000687236 -0.114798 C 0.0634016 -0.114798 0.11481 -0.0634117 0.11481 0.00000520911 Z M 0.11481 0.00000520911 " transform="matrix(175.980654,0,0,175.980654,323.631603,536.338927)"/>
<path style="fill-rule:nonzero;fill:rgb(100%,92.941176%,43.529412%);fill-opacity:1;stroke-width:0.0229605;stroke-linecap:butt;stroke-linejoin:miter;stroke:rgb(60%,60%,60%);stroke-opacity:0.8;stroke-miterlimit:10;" d="M 0.114795 -0.00000917606 C 0.114795 0.0634078 0.0634085 0.114794 -0.0000084439 0.114794 C -0.0634032 0.114794 -0.114812 0.0634078 -0.114812 -0.00000917606 C -0.114812 -0.0634039 -0.0634032 -0.114812 -0.0000084439 -0.114812 C 0.0634085 -0.114812 0.114795 -0.0634039 0.114795 -0.00000917606 Z M 0.114795 -0.00000917606 " transform="matrix(175.980654,0,0,175.980654,393.399923,492.958646)"/>
<path style="fill-rule:nonzero;fill:rgb(100%,92.941176%,43.529412%);fill-opacity:1;stroke-width:0.0229605;stroke-linecap:butt;stroke-linejoin:miter;stroke:rgb(60%,60%,60%);stroke-opacity:0.8;stroke-miterlimit:10;" d="M 0.114794 0.00000558344 C 0.114794 0.0634003 0.0634078 0.114809 -0.00000915662 0.114809 C -0.0634039 0.114809 -0.114812 0.0634003 -0.114812 0.00000558344 C -0.114812 -0.0634114 -0.0634039 -0.114798 -0.00000915662 -0.114798 C 0.0634078 -0.114798 0.114794 -0.0634114 0.114794 0.00000558344 Z M 0.114794 0.00000558344 " transform="matrix(175.980654,0,0,175.980654,468.083643,333.733392)"/>
<path style="fill-rule:nonzero;fill:rgb(100%,92.941176%,43.529412%);fill-opacity:1;stroke-width:0.0229605;stroke-linecap:butt;stroke-linejoin:miter;stroke:rgb(60%,60%,60%);stroke-opacity:0.8;stroke-miterlimit:10;" d="M 0.114795 -0.00000732912 C 0.114795 0.0634096 0.0634093 0.114796 -0.00000767743 0.114796 C -0.0634024 0.114796 -0.114811 0.0634096 -0.114811 -0.00000732912 C -0.114811 -0.0634021 -0.0634024 -0.11481 -0.00000767743 -0.11481 C 0.0634093 -0.11481 0.114795 -0.0634021 0.114795 -0.00000732912 Z M 0.114795 -0.00000732912 " transform="matrix(175.980654,0,0,175.980654,449.407601,424.395821)"/>
<path style="fill-rule:nonzero;fill:rgb(100%,92.941176%,43.529412%);fill-opacity:1;stroke-width:0.0229605;stroke-linecap:butt;stroke-linejoin:miter;stroke:rgb(60%,60%,60%);stroke-opacity:0.8;stroke-miterlimit:10;" d="M 0.114808 0.00000174907 C 0.114808 0.0633965 0.0634001 0.114805 0.00000532206 0.114805 C -0.0634116 0.114805 -0.114798 0.0633965 -0.114798 0.00000174907 C -0.114798 -0.063393 -0.0634116 -0.114801 0.00000532206 -0.114801 C 0.0634001 -0.114801 0.114808 -0.063393 0.114808 0.00000174907 Z M 0.114808 0.00000174907 " transform="matrix(175.980654,0,0,175.980654,533.25297,297.597348)"/>
<path style="fill-rule:nonzero;fill:rgb(100%,92.941176%,43.529412%);fill-opacity:1;stroke-width:0.0229605;stroke-linecap:butt;stroke-linejoin:miter;stroke:rgb(60%,60%,60%);stroke-opacity:0.8;stroke-miterlimit:10;" d="M 0.1148 -0.00000588738 C 0.1148 0.0634111 0.0634141 0.114797 -0.00000280434 0.114797 C -0.0633976 0.114797 -0.114806 0.0634111 -0.114806 -0.00000588738 C -0.114806 -0.0634006 -0.0633976 -0.114809 -0.00000280434 -0.114809 C 0.0634141 -0.114809 0.1148 -0.0634006 0.1148 -0.00000588738 Z M 0.1148 -0.00000588738 " transform="matrix(175.980654,0,0,175.980654,267.820806,558.129942)"/>
<path style="fill-rule:nonzero;fill:rgb(100%,92.941176%,43.529412%);fill-opacity:1;stroke-width:0.0229605;stroke-linecap:butt;stroke-linejoin:miter;stroke:rgb(60%,60%,60%);stroke-opacity:0.8;stroke-miterlimit:10;" d="M 0.114798 0.0000102622 C 0.114798 0.063405 0.0634116 0.114813 -0.00000532206 0.114813 C -0.0634001 0.114813 -0.114808 0.063405 -0.114808 0.0000102622 C -0.114808 -0.0634067 -0.0634001 -0.114793 -0.00000532206 -0.114793 C 0.0634116 -0.114793 0.114798 -0.0634067 0.114798 0.0000102622 Z M 0.114798 0.0000102622 " transform="matrix(175.980654,0,0,175.980654,66.74703,438.537257)"/>
<path style="fill-rule:nonzero;fill:rgb(100%,92.941176%,43.529412%);fill-opacity:1;stroke-width:0.0229605;stroke-linecap:butt;stroke-linejoin:miter;stroke:rgb(60%,60%,60%);stroke-opacity:0.8;stroke-miterlimit:10;" d="M 0.114792 -0.00000643569 C 0.114792 0.0634105 0.0634061 0.114797 -0.0000108206 0.114797 C -0.0634056 0.114797 -0.114792 0.0634105 -0.114792 -0.00000643569 C -0.114792 -0.0634012 -0.0634056 -0.11481 -0.0000108206 -0.11481 C 0.0634061 -0.11481 0.114792 -0.0634012 0.114792 -0.00000643569 Z M 0.114792 -0.00000643569 " transform="matrix(175.980654,0,0,175.980654,119.814404,399.286289)"/>
<path style="fill-rule:nonzero;fill:rgb(100%,92.941176%,43.529412%);fill-opacity:1;stroke-width:0.0229605;stroke-linecap:butt;stroke-linejoin:miter;stroke:rgb(60%,60%,60%);stroke-opacity:0.8;stroke-miterlimit:10;" d="M 0.114813 -0.00000786776 C 0.114813 0.0634091 0.0634046 0.114795 0.00000983037 0.114795 C -0.0634071 0.114795 -0.114793 0.0634091 -0.114793 -0.00000786776 C -0.114793 -0.0634026 -0.0634071 -0.114811 0.00000983037 -0.114811 C 0.0634046 -0.114811 0.114813 -0.0634026 0.114813 -0.00000786776 Z M 0.114813 -0.00000786776 " transform="matrix(175.980654,0,0,175.980654,151.252176,227.274822)"/>
<path style="fill-rule:nonzero;fill:rgb(55.294118%,82.745098%,78.039216%);fill-opacity:1;stroke-width:0.0229605;stroke-linecap:butt;stroke-linejoin:miter;stroke:rgb(60%,60%,60%);stroke-opacity:0.8;stroke-miterlimit:10;" d="M 0.114809 -0.00000305735 C 0.114809 0.0634139 0.0634004 0.1148 0.00000560644 0.1148 C -0.0634113 0.1148 -0.114797 0.0634139 -0.114797 -0.00000305735 C -0.114797 -0.0633978 -0.0634113 -0.114806 0.00000560644 -0.114806 C 0.0634004 -0.114806 0.114809 -0.0633978 0.114809 -0.00000305735 Z M 0.114809 -0.00000305735 " transform="matrix(175.980654,0,0,175.980654,317.90917,44.660694)"/>
<path style="fill-rule:nonzero;fill:rgb(55.294118%,82.745098%,78.039216%);fill-opacity:1;stroke-width:0.0229605;stroke-linecap:butt;stroke-linejoin:miter;stroke:rgb(60%,60%,60%);stroke-opacity:0.8;stroke-miterlimit:10;" d="M 0.114803 0.0000104342 C 0.114803 0.0634052 0.0633942 0.114814 -0.000000552386 0.114814 C -0.0633953 0.114814 -0.114804 0.0634052 -0.114804 0.0000104342 C -0.114804 -0.0634065 -0.0633953 -0.114793 -0.000000552386 -0.114793 C 0.0633942 -0.114793 0.114803 -0.0634065 0.114803 0.0000104342 Z M 0.114803 0.0000104342 " transform="matrix(175.980654,0,0,175.980654,119.683691,134.642695)"/>
<path style="fill-rule:nonzero;fill:rgb(55.294118%,82.745098%,78.039216%);fill-opacity:1;stroke-width:0.0229605;stroke-linecap:butt;stroke-linejoin:miter;stroke:rgb(60%,60%,60%);stroke-opacity:0.8;stroke-miterlimit:10;" d="M 0.114804 0.00000154559 C 0.114804 0.0633963 0.0633958 0.114805 0.00000108189 0.114805 C -0.0633937 0.114805 -0.114802 0.0633963 -0.114802 0.00000154559 C -0.114802 -0.0633932 -0.0633937 -0.114802 0.00000108189 -0.114802 C 0.0633958 -0.114802 0.114804 -0.0633932 0.114804 0.00000154559 Z M 0.114804 0.00000154559 " transform="matrix(175.980654,0,0,175.980654,230.765435,84.648166)"/>
<path style="fill-rule:nonzero;fill:rgb(100%,92.941176%,43.529412%);fill-opacity:1;stroke-width:0.0229605;stroke-linecap:butt;stroke-linejoin:miter;stroke:rgb(60%,60%,60%);stroke-opacity:0.8;stroke-miterlimit:10;" d="M 0.114796 0.00000382339 C 0.114796 0.0633986 0.0634096 0.114807 -0.00000731862 0.114807 C -0.0634021 0.114807 -0.11481 0.0633986 -0.11481 0.00000382339 C -0.11481 -0.0634131 -0.0634021 -0.114799 -0.00000731862 -0.114799 C 0.0634096 -0.114799 0.114796 -0.0634131 0.114796 0.00000382339 Z M 0.114796 0.00000382339 " transform="matrix(175.980654,0,0,175.980654,83.118475,199.210265)"/>
<path style="fill-rule:nonzero;fill:rgb(100%,92.941176%,43.529412%);fill-opacity:1;stroke-width:0.0229605;stroke-linecap:butt;stroke-linejoin:miter;stroke:rgb(60%,60%,60%);stroke-opacity:0.8;stroke-miterlimit:10;" d="M 0.114799 0.00000588738 C 0.114799 0.0634006 0.0634127 0.114809 -0.00000424415 0.114809 C -0.063399 0.114809 -0.114807 0.0634006 -0.114807 0.00000588738 C -0.114807 -0.0634111 -0.063399 -0.114797 -0.00000424415 -0.114797 C 0.0634127 -0.114797 0.114799 -0.0634111 0.114799 0.00000588738 Z M 0.114799 0.00000588738 " transform="matrix(175.980654,0,0,175.980654,175.571059,41.870058)"/>
<path style="fill-rule:nonzero;fill:rgb(100%,92.941176%,43.529412%);fill-opacity:1;stroke-width:0.0229605;stroke-linecap:butt;stroke-linejoin:miter;stroke:rgb(60%,60%,60%);stroke-opacity:0.8;stroke-miterlimit:10;" d="M 0.114794 0.0000000948853 C 0.114794 0.0633948 0.0634081 0.114803 -0.00000884423 0.114803 C -0.0634036 0.114803 -0.114812 0.0633948 -0.114812 0.0000000948853 C -0.114812 -0.0633947 -0.0634036 -0.114803 -0.00000884423 -0.114803 C 0.0634081 -0.114803 0.114794 -0.0633947 0.114794 0.0000000948853 Z M 0.114794 0.0000000948853 " transform="matrix(175.980654,0,0,175.980654,187.732025,115.437483)"/>
</g>
</svg>
