<?xml version="1.0" encoding="UTF-8"?>
<svg xmlns="http://www.w3.org/2000/svg" xmlns:xlink="http://www.w3.org/1999/xlink" width="600pt" height="600pt" viewBox="0 0 600 600" version="1.1">
<defs>
<clipPath id="clip1">
  <path d="M 232 336 L 376 336 L 376 461 L 232 461 Z M 232 336 "/>
</clipPath>
<clipPath id="clip2">
  <path d="M 217.09375 230.839844 L 389.960938 230.839844 L 389.960938 565.996094 L 217.09375 565.996094 Z M 217.09375 230.839844 L 307.324219 405.15625 C 307.324219 416.015625 298.519531 424.820312 287.660156 424.820312 C 276.800781 424.820312 267.996094 416.015625 267.996094 405.15625 C 267.996094 394.296875 276.800781 385.492188 287.660156 385.492188 C 298.519531 385.492188 307.324219 394.296875 307.324219 405.15625 Z M 217.09375 230.839844 "/>
</clipPath>
<clipPath id="clip3">
  <path d="M 217.09375 230.839844 L 389.960938 230.839844 L 389.960938 565.996094 L 217.09375 565.996094 Z M 217.09375 230.839844 L 339.058594 391.679688 C 339.058594 402.539062 330.253906 411.34375 319.394531 411.34375 C 308.535156 411.34375 299.730469 402.539062 299.730469 391.679688 C 299.730469 380.820312 308.535156 372.015625 319.394531 372.015625 C 330.253906 372.015625 339.058594 380.820312 339.058594 391.679688 Z M 217.09375 230.839844 "/>
</clipPath>
<clipPath id="clip4">
  <path d="M 153 291 L 344 291 L 344 461 L 153 461 Z M 153 291 "/>
</clipPath>
<clipPath id="clip5">
  <path d="M 103.742188 205.886719 L 392.738281 205.886719 L 392.738281 546.3125 L 103.742188 546.3125 Z M 103.742188 205.886719 L 307.324219 405.15625 C 307.324219 416.015625 298.519531 424.820312 287.660156 424.820312 C 276.800781 424.820312 267.996094 416.015625 267.996094 405.15625 C 267.996094 394.296875 276.800781 385.492188 287.660156 385.492188 C 298.519531 385.492188 307.324219 394.296875 307.324219 405.15625 Z M 103.742188 205.886719 "/>
</clipPath>
<clipPath id="clip6">
  <path d="M 103.742188 205.886719 L 392.738281 205.886719 L 392.738281 546.3125 L 103.742188 546.3125 Z M 103.742188 205.886719 L 228.484375 347.042969 C 228.484375 357.902344 219.679688 366.707031 208.820312 366.707031 C 197.960938 366.707031 189.15625 357.902344 189.15625 347.042969 C 189.15625 336.179688 197.960938 327.378906 208.820312 327.378906 C 219.679688 327.378906 228.484375 336.179688 228.484375 347.042969 Z M 103.742188 205.886719 "/>
</clipPath>
<clipPath id="clip7">
  <path d="M 232 349 L 422 349 L 422 506 L 232 506 Z M 232 349 "/>
</clipPath>
<clipPath id="clip8">
  <path d="M 199.410156 253.0625 L 454.285156 253.0625 L 454.285156 601.851562 L 199.410156 601.851562 Z M 199.410156 253.0625 L 307.324219 405.15625 C 307.324219 416.015625 298.519531 424.820312 287.660156 424.820312 C 276.800781 424.820312 267.996094 416.015625 267.996094 405.15625 C 267.996094 394.296875 276.800781 385.492188 287.660156 385.492188 C 298.519531 385.492188 307.324219 394.296875 307.324219 405.15625 Z M 199.410156 253.0625 "/>
</clipPath>
<clipPath id="clip9">
  <path d="M 199.410156 253.0625 L 454.285156 253.0625 L 454.285156 601.851562 L 199.410156 601.851562 Z M 199.410156 253.0625 L 385.699219 449.757812 C 385.699219 460.617188 376.894531 469.421875 366.035156 469.421875 C 355.175781 469.421875 346.371094 460.617188 346.371094 449.757812 C 346.371094 438.898438 355.175781 430.09375 366.035156 430.09375 C 376.894531 430.09375 385.699219 438.898438 385.699219 449.757812 Z M 199.410156 253.0625 "/>
</clipPath>
<clipPath id="clip10">
  <path d="M 390 445 L 553 445 L 553 575 L 390 575 Z M 390 445 "/>
</clipPath>
<clipPath id="clip11">
  <path d="M 387.257812 336.144531 L 556.363281 336.144531 L 556.363281 683.933594 L 387.257812 683.933594 Z M 387.257812 336.144531 L 466.105469 501.347656 C 466.105469 512.207031 457.300781 521.011719 446.441406 521.011719 C 435.578125 521.011719 426.777344 512.207031 426.777344 501.347656 C 426.777344 490.488281 435.578125 481.683594 446.441406 481.683594 C 457.300781 481.683594 466.105469 490.488281 466.105469 501.347656 Z M 387.257812 336.144531 "/>
</clipPath>
<clipPath id="clip12">
  <path d="M 387.257812 336.144531 L 556.363281 336.144531 L 556.363281 683.933594 L 387.257812 683.933594 Z M 387.257812 336.144531 L 516.84375 518.730469 C 516.84375 529.589844 508.039062 538.394531 497.179688 538.394531 C 486.320312 538.394531 477.515625 529.589844 477.515625 518.730469 C 477.515625 507.871094 486.320312 499.066406 497.179688 499.066406 C 508.039062 499.066406 516.84375 507.871094 516.84375 518.730469 Z M 387.257812 336.144531 "/>
</clipPath>
<clipPath id="clip13">
  <path d="M 310 394 L 503 394 L 503 557 L 310 557 Z M 310 394 "/>
</clipPath>
<clipPath id="clip14">
  <path d="M 270.042969 302.347656 L 542.433594 302.347656 L 542.433594 648.757812 L 270.042969 648.757812 Z M 270.042969 302.347656 L 466.105469 501.347656 C 466.105469 512.207031 457.300781 521.011719 446.441406 521.011719 C 435.578125 521.011719 426.777344 512.207031 426.777344 501.347656 C 426.777344 490.488281 435.578125 481.683594 446.441406 481.683594 C 457.300781 481.683594 466.105469 490.488281 466.105469 501.347656 Z M 270.042969 302.347656 "/>
</clipPath>
<clipPath id="clip15">
  <path d="M 270.042969 302.347656 L 542.433594 302.347656 L 542.433594 648.757812 L 270.042969 648.757812 Z M 270.042969 302.347656 L 385.699219 449.757812 C 385.699219 460.617188 376.894531 469.421875 366.035156 469.421875 C 355.175781 469.421875 346.371094 460.617188 346.371094 449.757812 C 346.371094 438.898438 355.175781 430.09375 366.035156 430.09375 C 376.894531 430.09375 385.699219 438.898438 385.699219 449.757812 Z M 270.042969 302.347656 "/>
</clipPath>
<clipPath id="clip16">
  <path d="M 153 291 L 376 291 L 376 448 L 153 448 Z M 153 291 "/>
</clipPath>
<clipPath id="clip17">
  <path d="M 141.074219 185.03125 L 387.140625 185.03125 L 387.140625 553.691406 L 141.074219 553.691406 Z M 141.074219 185.03125 L 339.058594 391.679688 C 339.058594 402.539062 330.253906 411.34375 319.394531 411.34375 C 308.535156 411.34375 299.730469 402.539062 299.730469 391.679688 C 299.730469 380.820312 308.535156 372.015625 319.394531 372.015625 C 330.253906 372.015625 339.058594 380.820312 339.058594 391.679688 Z M 141.074219 185.03125 "/>
</clipPath>
<clipPath id="clip18">
  <path d="M 141.074219 185.03125 L 387.140625 185.03125 L 387.140625 553.691406 L 141.074219 553.691406 Z M 141.074219 185.03125 L 228.484375 347.042969 C 228.484375 357.902344 219.679688 366.707031 208.820312 366.707031 C 197.960938 366.707031 189.15625 357.902344 189.15625 347.042969 C 189.15625 336.179688 197.960938 327.378906 208.820312 327.378906 C 219.679688 327.378906 228.484375 336.179688 228.484375 347.042969 Z M 141.074219 185.03125 "/>
</clipPath>
<clipPath id="clip19">
  <path d="M 263 336 L 422 336 L 422 506 L 263 506 Z M 263 336 "/>
</clipPath>
<clipPath id="clip20">
  <path d="M 182.542969 281.003906 L 502.886719 281.003906 L 502.886719 560.433594 L 182.542969 560.433594 Z M 182.542969 281.003906 L 339.058594 391.679688 C 339.058594 402.539062 330.253906 411.34375 319.394531 411.34375 C 308.535156 411.34375 299.730469 402.539062 299.730469 391.679688 C 299.730469 380.820312 308.535156 372.015625 319.394531 372.015625 C 330.253906 372.015625 339.058594 380.820312 339.058594 391.679688 Z M 182.542969 281.003906 "/>
</clipPath>
<clipPath id="clip21">
  <path d="M 182.542969 281.003906 L 502.886719 281.003906 L 502.886719 560.433594 L 182.542969 560.433594 Z M 182.542969 281.003906 L 385.699219 449.757812 C 385.699219 460.617188 376.894531 469.421875 366.035156 469.421875 C 355.175781 469.421875 346.371094 460.617188 346.371094 449.757812 C 346.371094 438.898438 355.175781 430.09375 366.035156 430.09375 C 376.894531 430.09375 385.699219 438.898438 385.699219 449.757812 Z M 182.542969 281.003906 "/>
</clipPath>
<clipPath id="clip22">
  <path d="M 187 336 L 376 336 L 376 564 L 187 564 Z M 187 336 "/>
</clipPath>
<clipPath id="clip23">
  <path d="M 96.792969 294.355469 L 465.941406 294.355469 L 465.941406 605.140625 L 96.792969 605.140625 Z M 96.792969 294.355469 L 339.058594 391.679688 C 339.058594 402.539062 330.253906 411.34375 319.394531 411.34375 C 308.535156 411.34375 299.730469 402.539062 299.730469 391.679688 C 299.730469 380.820312 308.535156 372.015625 319.394531 372.015625 C 330.253906 372.015625 339.058594 380.820312 339.058594 391.679688 Z M 96.792969 294.355469 "/>
</clipPath>
<clipPath id="clip24">
  <path d="M 96.792969 294.355469 L 465.941406 294.355469 L 465.941406 605.140625 L 96.792969 605.140625 Z M 96.792969 294.355469 L 263.003906 507.816406 C 263.003906 518.675781 254.199219 527.480469 243.339844 527.480469 C 232.480469 527.480469 223.675781 518.675781 223.675781 507.816406 C 223.675781 496.957031 232.480469 488.152344 243.339844 488.152344 C 254.199219 488.152344 263.003906 496.957031 263.003906 507.816406 Z M 96.792969 294.355469 "/>
</clipPath>
<clipPath id="clip25">
  <path d="M 263 207 L 511 207 L 511 448 L 263 448 Z M 263 207 "/>
</clipPath>
<clipPath id="clip26">
  <path d="M 198.183594 135.445312 L 576.246094 135.445312 L 576.246094 519.332031 L 198.183594 519.332031 Z M 198.183594 135.445312 L 339.058594 391.679688 C 339.058594 402.539062 330.253906 411.34375 319.394531 411.34375 C 308.535156 411.34375 299.730469 402.539062 299.730469 391.679688 C 299.730469 380.820312 308.535156 372.015625 319.394531 372.015625 C 330.253906 372.015625 339.058594 380.820312 339.058594 391.679688 Z M 198.183594 135.445312 "/>
</clipPath>
<clipPath id="clip27">
  <path d="M 198.183594 135.445312 L 576.246094 135.445312 L 576.246094 519.332031 L 198.183594 519.332031 Z M 198.183594 135.445312 L 474.699219 263.097656 C 474.699219 273.960938 465.894531 282.761719 455.035156 282.761719 C 444.175781 282.761719 435.371094 273.960938 435.371094 263.097656 C 435.371094 252.238281 444.175781 243.433594 455.035156 243.433594 C 465.894531 243.433594 474.699219 252.238281 474.699219 263.097656 Z M 198.183594 135.445312 "/>
</clipPath>
<clipPath id="clip28">
  <path d="M 61 252 L 265 252 L 265 403 L 61 403 Z M 61 252 "/>
</clipPath>
<clipPath id="clip29">
  <path d="M 46.296875 147.203125 L 279.707031 147.203125 L 279.707031 507.746094 L 46.296875 507.746094 Z M 46.296875 147.203125 L 228.484375 347.042969 C 228.484375 357.902344 219.679688 366.707031 208.820312 366.707031 C 197.960938 366.707031 189.15625 357.902344 189.15625 347.042969 C 189.15625 336.179688 197.960938 327.378906 208.820312 327.378906 C 219.679688 327.378906 228.484375 336.179688 228.484375 347.042969 Z M 46.296875 147.203125 "/>
</clipPath>
<clipPath id="clip30">
  <path d="M 46.296875 147.203125 L 279.707031 147.203125 L 279.707031 507.746094 L 46.296875 507.746094 Z M 46.296875 147.203125 L 136.847656 307.90625 C 136.847656 318.769531 128.046875 327.570312 117.183594 327.570312 C 106.324219 327.570312 97.519531 318.769531 97.519531 307.90625 C 97.519531 297.046875 106.324219 288.242188 117.183594 288.242188 C 128.046875 288.242188 136.847656 297.046875 136.847656 307.90625 Z M 46.296875 147.203125 "/>
</clipPath>
<clipPath id="clip31">
  <path d="M 85 219 L 265 219 L 265 403 L 85 403 Z M 85 219 "/>
</clipPath>
<clipPath id="clip32">
  <path d="M 13.066406 154.640625 L 337.203125 154.640625 L 337.203125 467.480469 L 13.066406 467.480469 Z M 13.066406 154.640625 L 228.484375 347.042969 C 228.484375 357.902344 219.679688 366.707031 208.820312 366.707031 C 197.960938 366.707031 189.15625 357.902344 189.15625 347.042969 C 189.15625 336.179688 197.960938 327.378906 208.820312 327.378906 C 219.679688 327.378906 228.484375 336.179688 228.484375 347.042969 Z M 13.066406 154.640625 "/>
</clipPath>
<clipPath id="clip33">
  <path d="M 13.066406 154.640625 L 337.203125 154.640625 L 337.203125 467.480469 L 13.066406 467.480469 Z M 13.066406 154.640625 L 161.113281 275.078125 C 161.113281 285.941406 152.308594 294.742188 141.449219 294.742188 C 130.589844 294.742188 121.785156 285.941406 121.785156 275.078125 C 121.785156 264.21875 130.589844 255.414062 141.449219 255.414062 C 152.308594 255.414062 161.113281 264.21875 161.113281 275.078125 Z M 13.066406 154.640625 "/>
</clipPath>
<clipPath id="clip34">
  <path d="M 143 452 L 299 452 L 299 600 L 143 600 Z M 143 452 "/>
</clipPath>
<clipPath id="clip35">
  <path d="M 66.433594 391.789062 L 375.707031 391.789062 L 375.707031 674.875 L 66.433594 674.875 Z M 66.433594 391.789062 L 218.464844 558.847656 C 218.464844 569.707031 209.660156 578.511719 198.800781 578.511719 C 187.9375 578.511719 179.136719 569.707031 179.136719 558.847656 C 179.136719 547.988281 187.9375 539.183594 198.800781 539.183594 C 209.660156 539.183594 218.464844 547.988281 218.464844 558.847656 Z M 66.433594 391.789062 "/>
</clipPath>
<clipPath id="clip36">
  <path d="M 66.433594 391.789062 L 375.707031 391.789062 L 375.707031 674.875 L 66.433594 674.875 Z M 66.433594 391.789062 L 263.003906 507.816406 C 263.003906 518.675781 254.199219 527.480469 243.339844 527.480469 C 232.480469 527.480469 223.675781 518.675781 223.675781 507.816406 C 223.675781 496.957031 232.480469 488.152344 243.339844 488.152344 C 254.199219 488.152344 263.003906 496.957031 263.003906 507.816406 Z M 66.433594 391.789062 "/>
</clipPath>
<clipPath id="clip37">
  <path d="M 310 0 L 458 0 L 458 137 L 310 137 Z M 310 0 "/>
</clipPath>
<clipPath id="clip38">
  <path d="M 234.851562 -75.6875 L 533.558594 -75.6875 L 533.558594 198.039062 L 234.851562 198.039062 Z M 234.851562 -75.6875 L 386.167969 41.152344 C 386.167969 52.011719 377.363281 60.816406 366.503906 60.816406 C 355.640625 60.816406 346.839844 52.011719 346.839844 41.152344 C 346.839844 30.292969 355.640625 21.488281 366.503906 21.488281 C 377.363281 21.488281 386.167969 30.292969 386.167969 41.152344 Z M 234.851562 -75.6875 "/>
</clipPath>
<clipPath id="clip39">
  <path d="M 234.851562 -75.6875 L 533.558594 -75.6875 L 533.558594 198.039062 L 234.851562 198.039062 Z M 234.851562 -75.6875 L 421.570312 81.199219 C 421.570312 92.058594 412.769531 100.863281 401.90625 100.863281 C 391.046875 100.863281 382.242188 92.058594 382.242188 81.199219 C 382.242188 70.339844 391.046875 61.535156 401.90625 61.535156 C 412.769531 61.535156 421.570312 70.339844 421.570312 81.199219 Z M 234.851562 -75.6875 "/>
</clipPath>
<clipPath id="clip40">
  <path d="M 399 170 L 576 170 L 576 319 L 399 319 Z M 399 170 "/>
</clipPath>
<clipPath id="clip41">
  <path d="M 366.804688 74.113281 L 608.089844 74.113281 L 608.089844 415.203125 L 366.804688 415.203125 Z M 366.804688 74.113281 L 539.523438 226.21875 C 539.523438 237.078125 530.71875 245.882812 519.859375 245.882812 C 509 245.882812 500.195312 237.078125 500.195312 226.21875 C 500.195312 215.359375 509 206.554688 519.859375 206.554688 C 530.71875 206.554688 539.523438 215.359375 539.523438 226.21875 Z M 366.804688 74.113281 "/>
</clipPath>
<clipPath id="clip42">
  <path d="M 366.804688 74.113281 L 608.089844 74.113281 L 608.089844 415.203125 L 366.804688 415.203125 Z M 366.804688 74.113281 L 474.699219 263.097656 C 474.699219 273.960938 465.894531 282.761719 455.035156 282.761719 C 444.175781 282.761719 435.371094 273.960938 435.371094 263.097656 C 435.371094 252.238281 444.175781 243.433594 455.035156 243.433594 C 465.894531 243.433594 474.699219 252.238281 474.699219 263.097656 Z M 366.804688 74.113281 "/>
</clipPath>
<clipPath id="clip43">
  <path d="M 346 25 L 492 25 L 492 209 L 346 209 Z M 346 25 "/>
</clipPath>
<clipPath id="clip44">
  <path d="M 243.800781 4.523438 L 593.980469 4.523438 L 593.980469 229.867188 L 243.800781 229.867188 Z M 243.800781 4.523438 L 421.570312 81.199219 C 421.570312 92.058594 412.769531 100.863281 401.90625 100.863281 C 391.046875 100.863281 382.242188 92.058594 382.242188 81.199219 C 382.242188 70.339844 391.046875 61.535156 401.90625 61.535156 C 412.769531 61.535156 421.570312 70.339844 421.570312 81.199219 Z M 243.800781 4.523438 "/>
</clipPath>
<clipPath id="clip45">
  <path d="M 243.800781 4.523438 L 593.980469 4.523438 L 593.980469 229.867188 L 243.800781 229.867188 Z M 243.800781 4.523438 L 455.542969 153.191406 C 455.542969 164.050781 446.738281 172.855469 435.875 172.855469 C 425.015625 172.855469 416.210938 164.050781 416.210938 153.191406 C 416.210938 142.328125 425.015625 133.527344 435.875 133.527344 C 446.738281 133.527344 455.542969 142.328125 455.542969 153.191406 Z M 243.800781 4.523438 "/>
</clipPath>
<clipPath id="clip46">
  <path d="M 380 119.980469 L 511 119.980469 L 511 296.308594 L 380 296.308594 Z M 380 119.980469 "/>
</clipPath>
<clipPath id="clip47">
  <path d="M 264.003906 119.980469 L 626.90625 119.980469 L 626.90625 296.308594 L 264.003906 296.308594 Z M 264.003906 119.980469 L 455.542969 153.191406 C 455.542969 164.050781 446.738281 172.855469 435.875 172.855469 C 425.015625 172.855469 416.210938 164.050781 416.210938 153.191406 C 416.210938 142.328125 425.015625 133.527344 435.875 133.527344 C 446.738281 133.527344 455.542969 142.328125 455.542969 153.191406 Z M 264.003906 119.980469 "/>
</clipPath>
<clipPath id="clip48">
  <path d="M 264.003906 119.980469 L 626.90625 119.980469 L 626.90625 296.308594 L 264.003906 296.308594 Z M 264.003906 119.980469 L 474.699219 263.097656 C 474.699219 273.960938 465.894531 282.761719 455.035156 282.761719 C 444.175781 282.761719 435.371094 273.960938 435.371094 263.097656 C 435.371094 252.238281 444.175781 243.433594 455.035156 243.433594 C 465.894531 243.433594 474.699219 252.238281 474.699219 263.097656 Z M 264.003906 119.980469 "/>
</clipPath>
<clipPath id="clip49">
  <path d="M 399 207 L 586 207 L 586 346 L 399 346 Z M 399 207 "/>
</clipPath>
<clipPath id="clip50">
  <path d="M 394.503906 98.363281 L 590.28125 98.363281 L 590.28125 454.128906 L 394.503906 454.128906 Z M 394.503906 98.363281 L 474.699219 263.097656 C 474.699219 273.960938 465.894531 282.761719 455.035156 282.761719 C 444.175781 282.761719 435.371094 273.960938 435.371094 263.097656 C 435.371094 252.238281 444.175781 243.433594 455.035156 243.433594 C 465.894531 243.433594 474.699219 252.238281 474.699219 263.097656 Z M 394.503906 98.363281 "/>
</clipPath>
<clipPath id="clip51">
  <path d="M 394.503906 98.363281 L 590.28125 98.363281 L 590.28125 454.128906 L 394.503906 454.128906 Z M 394.503906 98.363281 L 549.414062 289.394531 C 549.414062 300.253906 540.609375 309.058594 529.75 309.058594 C 518.886719 309.058594 510.085938 300.253906 510.085938 289.394531 C 510.085938 278.53125 518.886719 269.730469 529.75 269.730469 C 540.609375 269.730469 549.414062 278.53125 549.414062 289.394531 Z M 394.503906 98.363281 "/>
</clipPath>
<clipPath id="clip52">
  <path d="M 14 193 L 173 193 L 173 364 L 14 364 Z M 14 193 "/>
</clipPath>
<clipPath id="clip53">
  <path d="M -67.117188 138.851562 L 254.550781 138.851562 L 254.550781 417.933594 L -67.117188 417.933594 Z M -67.117188 138.851562 L 89.914062 248.878906 C 89.914062 259.738281 81.113281 268.542969 70.25 268.542969 C 59.390625 268.542969 50.585938 259.738281 50.585938 248.878906 C 50.585938 238.019531 59.390625 229.214844 70.25 229.214844 C 81.113281 229.214844 89.914062 238.019531 89.914062 248.878906 Z M -67.117188 138.851562 "/>
</clipPath>
<clipPath id="clip54">
  <path d="M -67.117188 138.851562 L 254.550781 138.851562 L 254.550781 417.933594 L -67.117188 417.933594 Z M -67.117188 138.851562 L 136.847656 307.90625 C 136.847656 318.769531 128.046875 327.570312 117.183594 327.570312 C 106.324219 327.570312 97.519531 318.769531 97.519531 307.90625 C 97.519531 297.046875 106.324219 288.242188 117.183594 288.242188 C 128.046875 288.242188 136.847656 297.046875 136.847656 307.90625 Z M -67.117188 138.851562 "/>
</clipPath>
<clipPath id="clip55">
  <path d="M 14 138 L 160 138 L 160 305 L 14 305 Z M 14 138 "/>
</clipPath>
<clipPath id="clip56">
  <path d="M -78.308594 100.03125 L 252.921875 100.03125 L 252.921875 343.058594 L -78.308594 343.058594 Z M -78.308594 100.03125 L 89.914062 248.878906 C 89.914062 259.738281 81.113281 268.542969 70.25 268.542969 C 59.390625 268.542969 50.585938 259.738281 50.585938 248.878906 C 50.585938 238.019531 59.390625 229.214844 70.25 229.214844 C 81.113281 229.214844 89.914062 238.019531 89.914062 248.878906 Z M -78.308594 100.03125 "/>
</clipPath>
<clipPath id="clip57">
  <path d="M -78.308594 100.03125 L 252.921875 100.03125 L 252.921875 343.058594 L -78.308594 343.058594 Z M -78.308594 100.03125 L 124.027344 194.210938 C 124.027344 205.070312 115.222656 213.875 104.363281 213.875 C 93.5 213.875 84.699219 205.070312 84.699219 194.210938 C 84.699219 183.351562 93.5 174.546875 104.363281 174.546875 C 115.222656 174.546875 124.027344 183.351562 124.027344 194.210938 Z M -78.308594 100.03125 "/>
</clipPath>
<clipPath id="clip58">
  <path d="M 61 219 L 198 219 L 198 364 L 61 364 Z M 61 219 "/>
</clipPath>
<clipPath id="clip59">
  <path d="M -23.835938 169.816406 L 282.46875 169.816406 L 282.46875 413.167969 L -23.835938 413.167969 Z M -23.835938 169.816406 L 136.847656 307.90625 C 136.847656 318.769531 128.046875 327.570312 117.183594 327.570312 C 106.324219 327.570312 97.519531 318.769531 97.519531 307.90625 C 97.519531 297.046875 106.324219 288.242188 117.183594 288.242188 C 128.046875 288.242188 136.847656 297.046875 136.847656 307.90625 Z M -23.835938 169.816406 "/>
</clipPath>
<clipPath id="clip60">
  <path d="M -23.835938 169.816406 L 282.46875 169.816406 L 282.46875 413.167969 L -23.835938 413.167969 Z M -23.835938 169.816406 L 161.113281 275.078125 C 161.113281 285.941406 152.308594 294.742188 141.449219 294.742188 C 130.589844 294.742188 121.785156 285.941406 121.785156 275.078125 C 121.785156 264.21875 130.589844 255.414062 141.449219 255.414062 C 152.308594 255.414062 161.113281 264.21875 161.113281 275.078125 Z M -23.835938 169.816406 "/>
</clipPath>
<clipPath id="clip61">
  <path d="M 48 82.863281 L 176 82.863281 L 176 232.78125 L 48 232.78125 Z M 48 82.863281 "/>
</clipPath>
<clipPath id="clip62">
  <path d="M -66.484375 82.863281 L 290.3125 82.863281 L 290.3125 232.78125 L -66.484375 232.78125 Z M -66.484375 82.863281 L 139.128906 121.433594 C 139.128906 132.296875 130.324219 141.097656 119.464844 141.097656 C 108.601562 141.097656 99.800781 132.296875 99.800781 121.433594 C 99.800781 110.574219 108.601562 101.769531 119.464844 101.769531 C 130.324219 101.769531 139.128906 110.574219 139.128906 121.433594 Z M -66.484375 82.863281 "/>
</clipPath>
<clipPath id="clip63">
  <path d="M -66.484375 82.863281 L 290.3125 82.863281 L 290.3125 232.78125 L -66.484375 232.78125 Z M -66.484375 82.863281 L 124.027344 194.210938 C 124.027344 205.070312 115.222656 213.875 104.363281 213.875 C 93.5 213.875 84.699219 205.070312 84.699219 194.210938 C 84.699219 183.351562 93.5 174.546875 104.363281 174.546875 C 115.222656 174.546875 124.027344 183.351562 124.027344 194.210938 Z M -66.484375 82.863281 "/>
</clipPath>
<clipPath id="clip64">
  <path d="M 48 138 L 198 138 L 198 331 L 48 331 Z M 48 138 "/>
</clipPath>
<clipPath id="clip65">
  <path d="M -54.523438 119.214844 L 300.335938 119.214844 L 300.335938 350.074219 L -54.523438 350.074219 Z M -54.523438 119.214844 L 161.113281 275.078125 C 161.113281 285.941406 152.308594 294.742188 141.449219 294.742188 C 130.589844 294.742188 121.785156 285.941406 121.785156 275.078125 C 121.785156 264.21875 130.589844 255.414062 141.449219 255.414062 C 152.308594 255.414062 161.113281 264.21875 161.113281 275.078125 Z M -54.523438 119.214844 "/>
</clipPath>
<clipPath id="clip66">
  <path d="M -54.523438 119.214844 L 300.335938 119.214844 L 300.335938 350.074219 L -54.523438 350.074219 Z M -54.523438 119.214844 L 124.027344 194.210938 C 124.027344 205.070312 115.222656 213.875 104.363281 213.875 C 93.5 213.875 84.699219 205.070312 84.699219 194.210938 C 84.699219 183.351562 93.5 174.546875 104.363281 174.546875 C 115.222656 174.546875 124.027344 183.351562 124.027344 194.210938 Z M -54.523438 119.214844 "/>
</clipPath>
</defs>
<g id="surface91">
<g clip-path="url(#clip1)" clip-rule="nonzero">
<g clip-path="url(#clip2)" clip-rule="evenodd">
<g clip-path="url(#clip3)" clip-rule="evenodd">
<path style="fill:none;stroke-width:0.0230705;stroke-linecap:butt;stroke-linejoin:miter;stroke:rgb(17.96875%,20.3125%,21.09375%);stroke-opacity:0.8;stroke-miterlimit:10;" d="M 2.101942 2.472602 L 2.288099 2.393547 " transform="matrix(170.470646,0,0,170.470646,-70.659204,-16.34987)"/>
</g>
</g>
</g>
<g clip-path="url(#clip4)" clip-rule="nonzero">
<g clip-path="url(#clip5)" clip-rule="evenodd">
<g clip-path="url(#clip6)" clip-rule="evenodd">
<path style="fill:none;stroke-width:0.0230705;stroke-linecap:butt;stroke-linejoin:miter;stroke:rgb(17.96875%,20.3125%,21.09375%);stroke-opacity:0.8;stroke-miterlimit:10;" d="M 2.101942 2.472602 L 1.639458 2.131703 " transform="matrix(170.470646,0,0,170.470646,-70.659204,-16.34987)"/>
</g>
</g>
</g>
<g clip-path="url(#clip7)" clip-rule="nonzero">
<g clip-path="url(#clip8)" clip-rule="evenodd">
<g clip-path="url(#clip9)" clip-rule="evenodd">
<path style="fill:none;stroke-width:0.0230705;stroke-linecap:butt;stroke-linejoin:miter;stroke:rgb(17.96875%,20.3125%,21.09375%);stroke-opacity:0.8;stroke-miterlimit:10;" d="M 2.101942 2.472602 L 2.561698 2.73424 " transform="matrix(170.470646,0,0,170.470646,-70.659204,-16.34987)"/>
</g>
</g>
</g>
<g clip-path="url(#clip10)" clip-rule="nonzero">
<g clip-path="url(#clip11)" clip-rule="evenodd">
<g clip-path="url(#clip12)" clip-rule="evenodd">
<path style="fill:none;stroke-width:0.0230705;stroke-linecap:butt;stroke-linejoin:miter;stroke:rgb(17.96875%,20.3125%,21.09375%);stroke-opacity:0.8;stroke-miterlimit:10;" d="M 3.03337 3.036872 L 3.331007 3.138842 " transform="matrix(170.470646,0,0,170.470646,-70.659204,-16.34987)"/>
</g>
</g>
</g>
<g clip-path="url(#clip13)" clip-rule="nonzero">
<g clip-path="url(#clip14)" clip-rule="evenodd">
<g clip-path="url(#clip15)" clip-rule="evenodd">
<path style="fill:none;stroke-width:0.0230705;stroke-linecap:butt;stroke-linejoin:miter;stroke:rgb(17.96875%,20.3125%,21.09375%);stroke-opacity:0.8;stroke-miterlimit:10;" d="M 3.03337 3.036872 L 2.561698 2.73424 " transform="matrix(170.470646,0,0,170.470646,-70.659204,-16.34987)"/>
</g>
</g>
</g>
<g clip-path="url(#clip16)" clip-rule="nonzero">
<g clip-path="url(#clip17)" clip-rule="evenodd">
<g clip-path="url(#clip18)" clip-rule="evenodd">
<path style="fill:none;stroke-width:0.0230705;stroke-linecap:butt;stroke-linejoin:miter;stroke:rgb(17.96875%,20.3125%,21.09375%);stroke-opacity:0.8;stroke-miterlimit:10;" d="M 2.288099 2.393547 L 1.639458 2.131703 " transform="matrix(170.470646,0,0,170.470646,-70.659204,-16.34987)"/>
</g>
</g>
</g>
<g clip-path="url(#clip19)" clip-rule="nonzero">
<g clip-path="url(#clip20)" clip-rule="evenodd">
<g clip-path="url(#clip21)" clip-rule="evenodd">
<path style="fill:none;stroke-width:0.0230705;stroke-linecap:butt;stroke-linejoin:miter;stroke:rgb(17.96875%,20.3125%,21.09375%);stroke-opacity:0.8;stroke-miterlimit:10;" d="M 2.288099 2.393547 L 2.561698 2.73424 " transform="matrix(170.470646,0,0,170.470646,-70.659204,-16.34987)"/>
</g>
</g>
</g>
<g clip-path="url(#clip22)" clip-rule="nonzero">
<g clip-path="url(#clip23)" clip-rule="evenodd">
<g clip-path="url(#clip24)" clip-rule="evenodd">
<path style="fill:none;stroke-width:0.0230705;stroke-linecap:butt;stroke-linejoin:miter;stroke:rgb(17.96875%,20.3125%,21.09375%);stroke-opacity:0.8;stroke-miterlimit:10;" d="M 2.288099 2.393547 L 1.841954 3.074818 " transform="matrix(170.470646,0,0,170.470646,-70.659204,-16.34987)"/>
</g>
</g>
</g>
<g clip-path="url(#clip25)" clip-rule="nonzero">
<g clip-path="url(#clip26)" clip-rule="evenodd">
<g clip-path="url(#clip27)" clip-rule="evenodd">
<path style="fill:none;stroke-width:0.0230705;stroke-linecap:butt;stroke-linejoin:miter;stroke:rgb(17.96875%,20.3125%,21.09375%);stroke-opacity:0.8;stroke-miterlimit:10;" d="M 2.288099 2.393547 L 3.083782 1.639271 " transform="matrix(170.470646,0,0,170.470646,-70.659204,-16.34987)"/>
</g>
</g>
</g>
<g clip-path="url(#clip28)" clip-rule="nonzero">
<g clip-path="url(#clip29)" clip-rule="evenodd">
<g clip-path="url(#clip30)" clip-rule="evenodd">
<path style="fill:none;stroke-width:0.0230705;stroke-linecap:butt;stroke-linejoin:miter;stroke:rgb(17.96875%,20.3125%,21.09375%);stroke-opacity:0.8;stroke-miterlimit:10;" d="M 1.639458 2.131703 L 1.101907 1.902123 " transform="matrix(170.470646,0,0,170.470646,-70.659204,-16.34987)"/>
</g>
</g>
</g>
<g clip-path="url(#clip31)" clip-rule="nonzero">
<g clip-path="url(#clip32)" clip-rule="evenodd">
<g clip-path="url(#clip33)" clip-rule="evenodd">
<path style="fill:none;stroke-width:0.0230705;stroke-linecap:butt;stroke-linejoin:miter;stroke:rgb(17.96875%,20.3125%,21.09375%);stroke-opacity:0.8;stroke-miterlimit:10;" d="M 1.639458 2.131703 L 1.244252 1.709549 " transform="matrix(170.470646,0,0,170.470646,-70.659204,-16.34987)"/>
</g>
</g>
</g>
<g clip-path="url(#clip34)" clip-rule="nonzero">
<g clip-path="url(#clip35)" clip-rule="evenodd">
<g clip-path="url(#clip36)" clip-rule="evenodd">
<path style="fill:none;stroke-width:0.0230705;stroke-linecap:butt;stroke-linejoin:miter;stroke:rgb(17.96875%,20.3125%,21.09375%);stroke-opacity:0.8;stroke-miterlimit:10;" d="M 1.580683 3.374173 L 1.841954 3.074818 " transform="matrix(170.470646,0,0,170.470646,-70.659204,-16.34987)"/>
</g>
</g>
</g>
<g clip-path="url(#clip37)" clip-rule="nonzero">
<g clip-path="url(#clip38)" clip-rule="evenodd">
<g clip-path="url(#clip39)" clip-rule="evenodd">
<path style="fill:none;stroke-width:0.0230705;stroke-linecap:butt;stroke-linejoin:miter;stroke:rgb(17.96875%,20.3125%,21.09375%);stroke-opacity:0.8;stroke-miterlimit:10;" d="M 2.564448 0.337314 L 2.772122 0.572234 " transform="matrix(170.470646,0,0,170.470646,-70.659204,-16.34987)"/>
</g>
</g>
</g>
<g clip-path="url(#clip40)" clip-rule="nonzero">
<g clip-path="url(#clip41)" clip-rule="evenodd">
<g clip-path="url(#clip42)" clip-rule="evenodd">
<path style="fill:none;stroke-width:0.0230705;stroke-linecap:butt;stroke-linejoin:miter;stroke:rgb(17.96875%,20.3125%,21.09375%);stroke-opacity:0.8;stroke-miterlimit:10;" d="M 3.464048 1.422935 L 3.083782 1.639271 " transform="matrix(170.470646,0,0,170.470646,-70.659204,-16.34987)"/>
</g>
</g>
</g>
<g clip-path="url(#clip43)" clip-rule="nonzero">
<g clip-path="url(#clip44)" clip-rule="evenodd">
<g clip-path="url(#clip45)" clip-rule="evenodd">
<path style="fill:none;stroke-width:0.0230705;stroke-linecap:butt;stroke-linejoin:miter;stroke:rgb(17.96875%,20.3125%,21.09375%);stroke-opacity:0.8;stroke-miterlimit:10;" d="M 2.772122 0.572234 L 2.971387 0.994548 " transform="matrix(170.470646,0,0,170.470646,-70.659204,-16.34987)"/>
</g>
</g>
</g>
<g clip-path="url(#clip46)" clip-rule="nonzero">
<g clip-path="url(#clip47)" clip-rule="evenodd">
<g clip-path="url(#clip48)" clip-rule="evenodd">
<path style="fill:none;stroke-width:0.0230705;stroke-linecap:butt;stroke-linejoin:miter;stroke:rgb(17.96875%,20.3125%,21.09375%);stroke-opacity:0.8;stroke-miterlimit:10;" d="M 2.971387 0.994548 L 3.083782 1.639271 " transform="matrix(170.470646,0,0,170.470646,-70.659204,-16.34987)"/>
</g>
</g>
</g>
<g clip-path="url(#clip49)" clip-rule="nonzero">
<g clip-path="url(#clip50)" clip-rule="evenodd">
<g clip-path="url(#clip51)" clip-rule="evenodd">
<path style="fill:none;stroke-width:0.0230705;stroke-linecap:butt;stroke-linejoin:miter;stroke:rgb(17.96875%,20.3125%,21.09375%);stroke-opacity:0.8;stroke-miterlimit:10;" d="M 3.083782 1.639271 L 3.522068 1.793531 " transform="matrix(170.470646,0,0,170.470646,-70.659204,-16.34987)"/>
</g>
</g>
</g>
<g clip-path="url(#clip52)" clip-rule="nonzero">
<g clip-path="url(#clip53)" clip-rule="evenodd">
<g clip-path="url(#clip54)" clip-rule="evenodd">
<path style="fill:none;stroke-width:0.0230705;stroke-linecap:butt;stroke-linejoin:miter;stroke:rgb(17.96875%,20.3125%,21.09375%);stroke-opacity:0.8;stroke-miterlimit:10;" d="M 0.826589 1.555862 L 1.101907 1.902123 " transform="matrix(170.470646,0,0,170.470646,-70.659204,-16.34987)"/>
</g>
</g>
</g>
<g clip-path="url(#clip55)" clip-rule="nonzero">
<g clip-path="url(#clip56)" clip-rule="evenodd">
<g clip-path="url(#clip57)" clip-rule="evenodd">
<path style="fill:none;stroke-width:0.0230705;stroke-linecap:butt;stroke-linejoin:miter;stroke:rgb(17.96875%,20.3125%,21.09375%);stroke-opacity:0.8;stroke-miterlimit:10;" d="M 0.826589 1.555862 L 1.026702 1.235173 " transform="matrix(170.470646,0,0,170.470646,-70.659204,-16.34987)"/>
</g>
</g>
</g>
<g clip-path="url(#clip58)" clip-rule="nonzero">
<g clip-path="url(#clip59)" clip-rule="evenodd">
<g clip-path="url(#clip60)" clip-rule="evenodd">
<path style="fill:none;stroke-width:0.0230705;stroke-linecap:butt;stroke-linejoin:miter;stroke:rgb(17.96875%,20.3125%,21.09375%);stroke-opacity:0.8;stroke-miterlimit:10;" d="M 1.101907 1.902123 L 1.244252 1.709549 " transform="matrix(170.470646,0,0,170.470646,-70.659204,-16.34987)"/>
</g>
</g>
</g>
<g clip-path="url(#clip61)" clip-rule="nonzero">
<g clip-path="url(#clip62)" clip-rule="evenodd">
<g clip-path="url(#clip63)" clip-rule="evenodd">
<path style="fill:none;stroke-width:0.0230705;stroke-linecap:butt;stroke-linejoin:miter;stroke:rgb(17.96875%,20.3125%,21.09375%);stroke-opacity:0.8;stroke-miterlimit:10;" d="M 1.115289 0.808253 L 1.026702 1.235173 " transform="matrix(170.470646,0,0,170.470646,-70.659204,-16.34987)"/>
</g>
</g>
</g>
<g clip-path="url(#clip64)" clip-rule="nonzero">
<g clip-path="url(#clip65)" clip-rule="evenodd">
<g clip-path="url(#clip66)" clip-rule="evenodd">
<path style="fill:none;stroke-width:0.0230705;stroke-linecap:butt;stroke-linejoin:miter;stroke:rgb(17.96875%,20.3125%,21.09375%);stroke-opacity:0.8;stroke-miterlimit:10;" d="M 1.244252 1.709549 L 1.026702 1.235173 " transform="matrix(170.470646,0,0,170.470646,-70.659204,-16.34987)"/>
</g>
</g>
</g>
<path style="fill-rule:nonzero;fill:rgb(100%,92.941176%,43.529412%);fill-opacity:1;stroke-width:0.0230705;stroke-linecap:butt;stroke-linejoin:miter;stroke:rgb(60%,60%,60%);stroke-opacity:0.8;stroke-miterlimit:10;" d="M 0.115348 -0.00000471635 C 0.115348 0.0636976 0.0636986 0.115347 -0.0000037158 0.115347 C -0.063706 0.115347 -0.115355 0.0636976 -0.115355 -0.00000471635 C -0.115355 -0.063707 -0.063706 -0.115356 -0.0000037158 -0.115356 C 0.0636986 -0.115356 0.115348 -0.063707 0.115348 -0.00000471635 Z M 0.115348 -0.00000471635 " transform="matrix(170.470646,0,0,170.470646,287.66079,405.157054)"/>
<path style="fill-rule:nonzero;fill:rgb(100%,92.941176%,43.529412%);fill-opacity:1;stroke-width:0.0230705;stroke-linecap:butt;stroke-linejoin:miter;stroke:rgb(60%,60%,60%);stroke-opacity:0.8;stroke-miterlimit:10;" d="M 0.115361 -0.00000346024 C 0.115361 0.0636989 0.0637121 0.115348 0.00000975532 0.115348 C -0.0637155 0.115348 -0.115342 0.0636989 -0.115342 -0.00000346024 C -0.115342 -0.0637058 -0.0637155 -0.115355 0.00000975532 -0.115355 C 0.0637121 -0.115355 0.115361 -0.0637058 0.115361 -0.00000346024 Z M 0.115361 -0.00000346024 " transform="matrix(170.470646,0,0,170.470646,446.439743,501.348246)"/>
<path style="fill-rule:nonzero;fill:rgb(55.294118%,82.745098%,78.039216%);fill-opacity:1;stroke-width:0.0230705;stroke-linecap:butt;stroke-linejoin:miter;stroke:rgb(60%,60%,60%);stroke-opacity:0.8;stroke-miterlimit:10;" d="M 0.11535 0.000000787751 C 0.11535 0.0637031 0.0637011 0.115352 -0.00000123514 0.115352 C -0.0637036 0.115352 -0.115353 0.0637031 -0.115353 0.000000787751 C -0.115353 -0.0637015 -0.0637036 -0.115351 -0.00000123514 -0.115351 C 0.0637011 -0.115351 0.11535 -0.0637015 0.11535 0.000000787751 Z M 0.11535 0.000000787751 " transform="matrix(170.470646,0,0,170.470646,319.394742,391.679553)"/>
<path style="fill-rule:nonzero;fill:rgb(55.294118%,82.745098%,78.039216%);fill-opacity:1;stroke-width:0.0230705;stroke-linecap:butt;stroke-linejoin:miter;stroke:rgb(60%,60%,60%);stroke-opacity:0.8;stroke-miterlimit:10;" d="M 0.115357 0.00000717469 C 0.115357 0.0637095 0.0637073 0.115359 0.0000050191 0.115359 C -0.0636973 0.115359 -0.115347 0.0637095 -0.115347 0.00000717469 C -0.115347 -0.0637181 -0.0636973 -0.115344 0.0000050191 -0.115344 C 0.0637073 -0.115344 0.115357 -0.0637181 0.115357 0.00000717469 Z M 0.115357 0.00000717469 " transform="matrix(170.470646,0,0,170.470646,208.819457,347.041746)"/>
<path style="fill-rule:nonzero;fill:rgb(100%,92.941176%,43.529412%);fill-opacity:1;stroke-width:0.0230705;stroke-linecap:butt;stroke-linejoin:miter;stroke:rgb(60%,60%,60%);stroke-opacity:0.8;stroke-miterlimit:10;" d="M 0.11535 -0.00000607292 C 0.11535 0.0636962 0.0637004 0.115346 -0.00000195674 0.115346 C -0.0637043 0.115346 -0.115354 0.0636962 -0.115354 -0.00000607292 C -0.115354 -0.0637084 -0.0637043 -0.115358 -0.00000195674 -0.115358 C 0.0637004 -0.115358 0.11535 -0.0637084 0.11535 -0.00000607292 Z M 0.11535 -0.00000607292 " transform="matrix(170.470646,0,0,170.470646,497.180021,518.731504)"/>
<path style="fill-rule:nonzero;fill:rgb(55.294118%,82.745098%,78.039216%);fill-opacity:1;stroke-width:0.0230705;stroke-linecap:butt;stroke-linejoin:miter;stroke:rgb(60%,60%,60%);stroke-opacity:0.8;stroke-miterlimit:10;" d="M 0.115362 0.0000061589 C 0.115362 0.0637085 0.0637128 0.115358 0.0000104849 0.115358 C -0.0637147 0.115358 -0.115341 0.0637085 -0.115341 0.0000061589 C -0.115341 -0.0636962 -0.0637147 -0.115345 0.0000104849 -0.115345 C 0.0637128 -0.115345 0.115362 -0.0636962 0.115362 0.0000061589 Z M 0.115362 0.0000061589 " transform="matrix(170.470646,0,0,170.470646,198.798994,558.846606)"/>
<path style="fill-rule:nonzero;fill:rgb(100%,92.941176%,43.529412%);fill-opacity:1;stroke-width:0.0230705;stroke-linecap:butt;stroke-linejoin:miter;stroke:rgb(60%,60%,60%);stroke-opacity:0.8;stroke-miterlimit:10;" d="M 0.115348 0.00000369272 C 0.115348 0.063706 0.0636989 0.115355 -0.00000346014 0.115355 C -0.0637058 0.115355 -0.115355 0.063706 -0.115355 0.00000369272 C -0.115355 -0.0636986 -0.0637058 -0.115348 -0.00000346014 -0.115348 C 0.0636989 -0.115348 0.115348 -0.0636986 0.115348 0.00000369272 Z M 0.115348 0.00000369272 " transform="matrix(170.470646,0,0,170.470646,366.035746,449.757183)"/>
<path style="fill-rule:nonzero;fill:rgb(55.294118%,82.745098%,78.039216%);fill-opacity:1;stroke-width:0.0230705;stroke-linecap:butt;stroke-linejoin:miter;stroke:rgb(60%,60%,60%);stroke-opacity:0.8;stroke-miterlimit:10;" d="M 0.115355 0.00000594485 C 0.115355 0.0637083 0.0637062 0.115358 0.00000383705 0.115358 C -0.0636985 0.115358 -0.115348 0.0637083 -0.115348 0.00000594485 C -0.115348 -0.0636964 -0.0636985 -0.115346 0.00000383705 -0.115346 C 0.0637062 -0.115346 0.115355 -0.0636964 0.115355 0.00000594485 Z M 0.115355 0.00000594485 " transform="matrix(170.470646,0,0,170.470646,243.33919,507.815393)"/>
<path style="fill-rule:nonzero;fill:rgb(55.294118%,82.745098%,78.039216%);fill-opacity:1;stroke-width:0.0230705;stroke-linecap:butt;stroke-linejoin:miter;stroke:rgb(60%,60%,60%);stroke-opacity:0.8;stroke-miterlimit:10;" d="M 0.115358 -0.0000061589 C 0.115358 0.0636962 0.0637092 0.115345 0.00000685205 0.115345 C -0.0637184 0.115345 -0.115345 0.0636962 -0.115345 -0.0000061589 C -0.115345 -0.0637085 -0.0637184 -0.115358 0.00000685205 -0.115358 C 0.0637092 -0.115358 0.115358 -0.0637085 0.115358 -0.0000061589 Z M 0.115358 -0.0000061589 " transform="matrix(170.470646,0,0,170.470646,366.502738,41.153394)"/>
<path style="fill-rule:nonzero;fill:rgb(55.294118%,82.745098%,78.039216%);fill-opacity:1;stroke-width:0.0230705;stroke-linecap:butt;stroke-linejoin:miter;stroke:rgb(60%,60%,60%);stroke-opacity:0.8;stroke-miterlimit:10;" d="M 0.115352 0.00000320128 C 0.115352 0.0637055 0.0637026 0.115355 0.000000301045 0.115355 C -0.063702 0.115355 -0.115351 0.0637055 -0.115351 0.00000320128 C -0.115351 -0.0636991 -0.063702 -0.115348 0.000000301045 -0.115348 C 0.0637026 -0.115348 0.115352 -0.0636991 0.115352 0.00000320128 Z M 0.115352 0.00000320128 " transform="matrix(170.470646,0,0,170.470646,519.859324,226.218204)"/>
<path style="fill-rule:nonzero;fill:rgb(55.294118%,82.745098%,78.039216%);fill-opacity:1;stroke-width:0.0230705;stroke-linecap:butt;stroke-linejoin:miter;stroke:rgb(60%,60%,60%);stroke-opacity:0.8;stroke-miterlimit:10;" d="M 0.115342 -0.00000384708 C 0.115342 0.0636985 0.0637159 0.115348 -0.00000935048 0.115348 C -0.0637117 0.115348 -0.115361 0.0636985 -0.115361 -0.00000384708 C -0.115361 -0.0637062 -0.0637117 -0.115355 -0.00000935048 -0.115355 C 0.0637159 -0.115355 0.115342 -0.0637062 0.115342 -0.00000384708 Z M 0.115342 -0.00000384708 " transform="matrix(170.470646,0,0,170.470646,401.907844,81.199875)"/>
<path style="fill-rule:nonzero;fill:rgb(55.294118%,82.745098%,78.039216%);fill-opacity:1;stroke-width:0.0230705;stroke-linecap:butt;stroke-linejoin:miter;stroke:rgb(60%,60%,60%);stroke-opacity:0.8;stroke-miterlimit:10;" d="M 0.115364 0.00000956683 C 0.115364 0.0637119 0.0637144 0.115361 -0.0000107917 0.115361 C -0.0637131 0.115361 -0.115362 0.0637119 -0.115362 0.00000956683 C -0.115362 -0.0637157 -0.0637131 -0.115342 -0.0000107917 -0.115342 C 0.0637144 -0.115342 0.115364 -0.0637157 0.115364 0.00000956683 Z M 0.115364 0.00000956683 " transform="matrix(170.470646,0,0,170.470646,435.87684,153.189775)"/>
<path style="fill-rule:nonzero;fill:rgb(55.294118%,82.745098%,78.039216%);fill-opacity:1;stroke-width:0.0230705;stroke-linecap:butt;stroke-linejoin:miter;stroke:rgb(60%,60%,60%);stroke-opacity:0.8;stroke-miterlimit:10;" d="M 0.115355 -0.0000103146 C 0.115355 0.0637149 0.0637053 0.115341 0.00000295695 0.115341 C -0.0636994 0.115341 -0.115349 0.0637149 -0.115349 -0.0000103146 C -0.115349 -0.0637126 -0.0636994 -0.115362 0.00000295695 -0.115362 C 0.0637053 -0.115362 0.115355 -0.0637126 0.115355 -0.0000103146 Z M 0.115355 -0.0000103146 " transform="matrix(170.470646,0,0,170.470646,455.034652,263.099415)"/>
<path style="fill-rule:nonzero;fill:rgb(55.294118%,82.745098%,78.039216%);fill-opacity:1;stroke-width:0.0230705;stroke-linecap:butt;stroke-linejoin:miter;stroke:rgb(60%,60%,60%);stroke-opacity:0.8;stroke-miterlimit:10;" d="M 0.115361 0.00000952115 C 0.115361 0.0637118 0.0637122 0.115361 0.00000986207 0.115361 C -0.0637154 0.115361 -0.115342 0.0637118 -0.115342 0.00000952115 C -0.115342 -0.0637157 -0.0637154 -0.115342 0.00000986207 -0.115342 C 0.0637122 -0.115342 0.115361 -0.0637157 0.115361 0.00000952115 Z M 0.115361 0.00000952115 " transform="matrix(170.470646,0,0,170.470646,529.748319,289.392908)"/>
<path style="fill-rule:nonzero;fill:rgb(55.294118%,82.745098%,78.039216%);fill-opacity:1;stroke-width:0.0230705;stroke-linecap:butt;stroke-linejoin:miter;stroke:rgb(60%,60%,60%);stroke-opacity:0.8;stroke-miterlimit:10;" d="M 0.115342 0.00000347329 C 0.115342 0.0637058 0.0637154 0.115355 -0.00000986207 0.115355 C -0.0637122 0.115355 -0.115361 0.0637058 -0.115361 0.00000347329 C -0.115361 -0.0636988 -0.0637122 -0.115348 -0.00000986207 -0.115348 C 0.0637154 -0.115348 0.115342 -0.0636988 0.115342 0.00000347329 Z M 0.115342 0.00000347329 " transform="matrix(170.470646,0,0,170.470646,70.251681,248.878314)"/>
<path style="fill-rule:nonzero;fill:rgb(55.294118%,82.745098%,78.039216%);fill-opacity:1;stroke-width:0.0230705;stroke-linecap:butt;stroke-linejoin:miter;stroke:rgb(60%,60%,60%);stroke-opacity:0.8;stroke-miterlimit:10;" d="M 0.115343 -0.00000857878 C 0.115343 0.0637167 0.0637169 0.115343 -0.00000831903 0.115343 C -0.0637106 0.115343 -0.11536 0.0637167 -0.11536 -0.00000857878 C -0.11536 -0.0637109 -0.0637106 -0.11536 -0.00000831903 -0.11536 C 0.0637169 -0.11536 0.115343 -0.0637109 0.115343 -0.00000857878 Z M 0.115343 -0.00000857878 " transform="matrix(170.470646,0,0,170.470646,117.185012,307.907712)"/>
<path style="fill-rule:nonzero;fill:rgb(55.294118%,82.745098%,78.039216%);fill-opacity:1;stroke-width:0.0230705;stroke-linecap:butt;stroke-linejoin:miter;stroke:rgb(60%,60%,60%);stroke-opacity:0.8;stroke-miterlimit:10;" d="M 0.115362 -0.0000105108 C 0.115362 0.0637147 0.0637123 0.115341 0.00000997979 0.115341 C -0.0637153 0.115341 -0.115342 0.0637147 -0.115342 -0.0000105108 C -0.115342 -0.0637128 -0.0637153 -0.115362 0.00000997979 -0.115362 C 0.0637123 -0.115362 0.115362 -0.0637128 0.115362 -0.0000105108 Z M 0.115362 -0.0000105108 " transform="matrix(170.470646,0,0,170.470646,119.463142,121.435386)"/>
<path style="fill-rule:nonzero;fill:rgb(55.294118%,82.745098%,78.039216%);fill-opacity:1;stroke-width:0.0230705;stroke-linecap:butt;stroke-linejoin:miter;stroke:rgb(60%,60%,60%);stroke-opacity:0.8;stroke-miterlimit:10;" d="M 0.115349 -0.00000972754 C 0.115349 0.0637155 0.0636993 0.115342 -0.00000297997 0.115342 C -0.0637053 0.115342 -0.115355 0.0637155 -0.115355 -0.00000972754 C -0.115355 -0.063712 -0.0637053 -0.115361 -0.00000297997 -0.115361 C 0.0636993 -0.115361 0.115349 -0.063712 0.115349 -0.00000972754 Z M 0.115349 -0.00000972754 " transform="matrix(170.470646,0,0,170.470646,141.449727,275.079783)"/>
<path style="fill-rule:nonzero;fill:rgb(55.294118%,82.745098%,78.039216%);fill-opacity:1;stroke-width:0.0230705;stroke-linecap:butt;stroke-linejoin:miter;stroke:rgb(60%,60%,60%);stroke-opacity:0.8;stroke-miterlimit:10;" d="M 0.11536 -0.00000184305 C 0.11536 0.0637005 0.0637103 0.11535 0.00000799041 0.11535 C -0.0637172 0.11535 -0.115344 0.0637005 -0.115344 -0.00000184305 C -0.115344 -0.0637042 -0.0637172 -0.115353 0.00000799041 -0.115353 C 0.0637103 -0.115353 0.11536 -0.0637042 0.11536 -0.00000184305 Z M 0.11536 -0.00000184305 " transform="matrix(170.470646,0,0,170.470646,104.361919,194.211252)"/>
</g>
</svg>
