<?xml version="1.0" encoding="UTF-8"?>
<svg xmlns="http://www.w3.org/2000/svg" xmlns:xlink="http://www.w3.org/1999/xlink" width="600pt" height="600pt" viewBox="0 0 600 600" version="1.1">
<defs>
<clipPath id="clip1">
  <path d="M 177.886719 234 L 314.585938 234 L 314.585938 356 L 177.886719 356 Z M 177.886719 234 "/>
</clipPath>
<clipPath id="clip2">
  <path d="M 177.886719 117.921875 L 314.585938 117.921875 L 314.585938 472.582031 L 177.886719 472.582031 Z M 177.886719 117.921875 L 248.609375 300.085938 C 248.609375 310.945312 239.808594 319.75 228.945312 319.75 C 218.085938 319.75 209.28125 310.945312 209.28125 300.085938 C 209.28125 289.226562 218.085938 280.421875 228.945312 280.421875 C 239.808594 280.421875 248.609375 289.226562 248.609375 300.085938 Z M 177.886719 117.921875 "/>
</clipPath>
<clipPath id="clip3">
  <path d="M 177.886719 117.921875 L 314.585938 117.921875 L 314.585938 472.582031 L 177.886719 472.582031 Z M 177.886719 117.921875 L 283.191406 290.417969 C 283.191406 301.277344 274.386719 310.082031 263.527344 310.082031 C 252.667969 310.082031 243.863281 301.277344 243.863281 290.417969 C 243.863281 279.558594 252.667969 270.753906 263.527344 270.753906 C 274.386719 270.753906 283.191406 279.558594 283.191406 290.417969 Z M 177.886719 117.921875 "/>
</clipPath>
<clipPath id="clip4">
  <path d="M 173 244 L 318 244 L 318 455 L 173 455 Z M 173 244 "/>
</clipPath>
<clipPath id="clip5">
  <path d="M 58.699219 241.613281 L 431.707031 241.613281 L 431.707031 457.714844 L 58.699219 457.714844 Z M 58.699219 241.613281 L 248.609375 300.085938 C 248.609375 310.945312 239.808594 319.75 228.945312 319.75 C 218.085938 319.75 209.28125 310.945312 209.28125 300.085938 C 209.28125 289.226562 218.085938 280.421875 228.945312 280.421875 C 239.808594 280.421875 248.609375 289.226562 248.609375 300.085938 Z M 58.699219 241.613281 "/>
</clipPath>
<clipPath id="clip6">
  <path d="M 58.699219 241.613281 L 431.707031 241.613281 L 431.707031 457.714844 L 58.699219 457.714844 Z M 58.699219 241.613281 L 281.125 399.242188 C 281.125 410.101562 272.320312 418.90625 261.460938 418.90625 C 250.597656 418.90625 241.796875 410.101562 241.796875 399.242188 C 241.796875 388.378906 250.597656 379.578125 261.460938 379.578125 C 272.320312 379.578125 281.125 388.378906 281.125 399.242188 Z M 58.699219 241.613281 "/>
</clipPath>
<clipPath id="clip7">
  <path d="M 158 179.257812 L 285 179.257812 L 285 334.140625 L 158 334.140625 Z M 158 179.257812 "/>
</clipPath>
<clipPath id="clip8">
  <path d="M 37.4375 179.257812 L 405.292969 179.257812 L 405.292969 334.140625 L 37.4375 334.140625 Z M 37.4375 179.257812 L 248.609375 300.085938 C 248.609375 310.945312 239.808594 319.75 228.945312 319.75 C 218.085938 319.75 209.28125 310.945312 209.28125 300.085938 C 209.28125 289.226562 218.085938 280.421875 228.945312 280.421875 C 239.808594 280.421875 248.609375 289.226562 248.609375 300.085938 Z M 37.4375 179.257812 "/>
</clipPath>
<clipPath id="clip9">
  <path d="M 37.4375 179.257812 L 405.292969 179.257812 L 405.292969 334.140625 L 37.4375 334.140625 Z M 37.4375 179.257812 L 233.449219 213.3125 C 233.449219 224.175781 224.644531 232.976562 213.785156 232.976562 C 202.925781 232.976562 194.121094 224.175781 194.121094 213.3125 C 194.121094 202.453125 202.925781 193.648438 213.785156 193.648438 C 224.644531 193.648438 233.449219 202.453125 233.449219 213.3125 Z M 37.4375 179.257812 "/>
</clipPath>
<clipPath id="clip10">
  <path d="M 115 28.21875 L 237 28.21875 L 237 153.90625 L 115 153.90625 Z M 115 28.21875 "/>
</clipPath>
<clipPath id="clip11">
  <path d="M -4.941406 28.21875 L 357.074219 28.21875 L 357.074219 153.90625 L -4.941406 153.90625 Z M -4.941406 28.21875 L 200.734375 117.945312 C 200.734375 128.804688 191.929688 137.609375 181.070312 137.609375 C 170.210938 137.609375 161.40625 128.804688 161.40625 117.945312 C 161.40625 107.085938 170.210938 98.28125 181.070312 98.28125 C 191.929688 98.28125 200.734375 107.085938 200.734375 117.945312 Z M -4.941406 28.21875 "/>
</clipPath>
<clipPath id="clip12">
  <path d="M -4.941406 28.21875 L 357.074219 28.21875 L 357.074219 153.90625 L -4.941406 153.90625 Z M -4.941406 28.21875 L 190.726562 64.179688 C 190.726562 75.042969 181.921875 83.84375 171.0625 83.84375 C 160.199219 83.84375 151.398438 75.042969 151.398438 64.179688 C 151.398438 53.320312 160.199219 44.515625 171.0625 44.515625 C 181.921875 44.515625 190.726562 53.320312 190.726562 64.179688 Z M -4.941406 28.21875 "/>
</clipPath>
<clipPath id="clip13">
  <path d="M 125 62 L 270 62 L 270 269 L 125 269 Z M 125 62 "/>
</clipPath>
<clipPath id="clip14">
  <path d="M 11.582031 57.21875 L 383.273438 57.21875 L 383.273438 274.039062 L 11.582031 274.039062 Z M 11.582031 57.21875 L 200.734375 117.945312 C 200.734375 128.804688 191.929688 137.609375 181.070312 137.609375 C 170.210938 137.609375 161.40625 128.804688 161.40625 117.945312 C 161.40625 107.085938 170.210938 98.28125 181.070312 98.28125 C 191.929688 98.28125 200.734375 107.085938 200.734375 117.945312 Z M 11.582031 57.21875 "/>
</clipPath>
<clipPath id="clip15">
  <path d="M 11.582031 57.21875 L 383.273438 57.21875 L 383.273438 274.039062 L 11.582031 274.039062 Z M 11.582031 57.21875 L 233.449219 213.3125 C 233.449219 224.175781 224.644531 232.976562 213.785156 232.976562 C 202.925781 232.976562 194.121094 224.175781 194.121094 213.3125 C 194.121094 202.453125 202.925781 193.648438 213.785156 193.648438 C 224.644531 193.648438 233.449219 202.453125 233.449219 213.3125 Z M 11.582031 57.21875 "/>
</clipPath>
<clipPath id="clip16">
  <path d="M 205 283.160156 L 320 283.160156 L 320 406.5 L 205 406.5 Z M 205 283.160156 "/>
</clipPath>
<clipPath id="clip17">
  <path d="M 82.53125 283.160156 L 442.457031 283.160156 L 442.457031 406.5 L 82.53125 406.5 Z M 82.53125 283.160156 L 283.191406 290.417969 C 283.191406 301.277344 274.386719 310.082031 263.527344 310.082031 C 252.667969 310.082031 243.863281 301.277344 243.863281 290.417969 C 243.863281 279.558594 252.667969 270.753906 263.527344 270.753906 C 274.386719 270.753906 283.191406 279.558594 283.191406 290.417969 Z M 82.53125 283.160156 "/>
</clipPath>
<clipPath id="clip18">
  <path d="M 82.53125 283.160156 L 442.457031 283.160156 L 442.457031 406.5 L 82.53125 406.5 Z M 82.53125 283.160156 L 281.125 399.242188 C 281.125 410.101562 272.320312 418.90625 261.460938 418.90625 C 250.597656 418.90625 241.796875 410.101562 241.796875 399.242188 C 241.796875 388.378906 250.597656 379.578125 261.460938 379.578125 C 272.320312 379.578125 281.125 388.378906 281.125 399.242188 Z M 82.53125 283.160156 "/>
</clipPath>
<clipPath id="clip19">
  <path d="M 158 157 L 320 157 L 320 347 L 158 347 Z M 158 157 "/>
</clipPath>
<clipPath id="clip20">
  <path d="M 62.773438 114.496094 L 414.539062 114.496094 L 414.539062 389.234375 L 62.773438 389.234375 Z M 62.773438 114.496094 L 283.191406 290.417969 C 283.191406 301.277344 274.386719 310.082031 263.527344 310.082031 C 252.667969 310.082031 243.863281 301.277344 243.863281 290.417969 C 243.863281 279.558594 252.667969 270.753906 263.527344 270.753906 C 274.386719 270.753906 283.191406 279.558594 283.191406 290.417969 Z M 62.773438 114.496094 "/>
</clipPath>
<clipPath id="clip21">
  <path d="M 62.773438 114.496094 L 414.539062 114.496094 L 414.539062 389.234375 L 62.773438 389.234375 Z M 62.773438 114.496094 L 233.449219 213.3125 C 233.449219 224.175781 224.644531 232.976562 213.785156 232.976562 C 202.925781 232.976562 194.121094 224.175781 194.121094 213.3125 C 194.121094 202.453125 202.925781 193.648438 213.785156 193.648438 C 224.644531 193.648438 233.449219 202.453125 233.449219 213.3125 Z M 62.773438 114.496094 "/>
</clipPath>
<clipPath id="clip22">
  <path d="M 88.082031 234 L 293.363281 234 L 293.363281 368 L 88.082031 368 Z M 88.082031 234 "/>
</clipPath>
<clipPath id="clip23">
  <path d="M 88.082031 113.386719 L 293.363281 113.386719 L 293.363281 489.238281 L 88.082031 489.238281 Z M 88.082031 113.386719 L 283.191406 290.417969 C 283.191406 301.277344 274.386719 310.082031 263.527344 310.082031 C 252.667969 310.082031 243.863281 301.277344 243.863281 290.417969 C 243.863281 279.558594 252.667969 270.753906 263.527344 270.753906 C 274.386719 270.753906 283.191406 279.558594 283.191406 290.417969 Z M 88.082031 113.386719 "/>
</clipPath>
<clipPath id="clip24">
  <path d="M 88.082031 113.386719 L 293.363281 113.386719 L 293.363281 489.238281 L 88.082031 489.238281 Z M 88.082031 113.386719 L 137.582031 312.207031 C 137.582031 323.066406 128.777344 331.871094 117.917969 331.871094 C 107.058594 331.871094 98.253906 323.066406 98.253906 312.207031 C 98.253906 301.347656 107.058594 292.542969 117.917969 292.542969 C 128.777344 292.542969 137.582031 301.347656 137.582031 312.207031 Z M 88.082031 113.386719 "/>
</clipPath>
<clipPath id="clip25">
  <path d="M 230.632812 201 L 497.371094 201 L 497.371094 347 L 230.632812 347 Z M 230.632812 201 "/>
</clipPath>
<clipPath id="clip26">
  <path d="M 230.632812 80.15625 L 497.371094 80.15625 L 497.371094 466.964844 L 230.632812 466.964844 Z M 230.632812 80.15625 L 283.191406 290.417969 C 283.191406 301.277344 274.386719 310.082031 263.527344 310.082031 C 252.667969 310.082031 243.863281 301.277344 243.863281 290.417969 C 243.863281 279.558594 252.667969 270.753906 263.527344 270.753906 C 274.386719 270.753906 283.191406 279.558594 283.191406 290.417969 Z M 230.632812 80.15625 "/>
</clipPath>
<clipPath id="clip27">
  <path d="M 230.632812 80.15625 L 497.371094 80.15625 L 497.371094 466.964844 L 230.632812 466.964844 Z M 230.632812 80.15625 L 484.140625 256.703125 C 484.140625 267.5625 475.335938 276.367188 464.476562 276.367188 C 453.617188 276.367188 444.8125 267.5625 444.8125 256.703125 C 444.8125 245.839844 453.617188 237.039062 464.476562 237.039062 C 475.335938 237.039062 484.140625 245.839844 484.140625 256.703125 Z M 230.632812 80.15625 "/>
</clipPath>
<clipPath id="clip28">
  <path d="M 205 376.902344 L 328 376.902344 L 328 520.902344 L 205 520.902344 Z M 205 376.902344 "/>
</clipPath>
<clipPath id="clip29">
  <path d="M 83.472656 376.902344 L 449.953125 376.902344 L 449.953125 520.902344 L 83.472656 520.902344 Z M 83.472656 376.902344 L 281.125 399.242188 C 281.125 410.101562 272.320312 418.90625 261.460938 418.90625 C 250.597656 418.90625 241.796875 410.101562 241.796875 399.242188 C 241.796875 388.378906 250.597656 379.578125 261.460938 379.578125 C 272.320312 379.578125 281.125 388.378906 281.125 399.242188 Z M 83.472656 376.902344 "/>
</clipPath>
<clipPath id="clip30">
  <path d="M 83.472656 376.902344 L 449.953125 376.902344 L 449.953125 520.902344 L 83.472656 520.902344 Z M 83.472656 376.902344 L 291.628906 498.5625 C 291.628906 509.421875 282.824219 518.226562 271.964844 518.226562 C 261.105469 518.226562 252.300781 509.421875 252.300781 498.5625 C 252.300781 487.699219 261.105469 478.898438 271.964844 478.898438 C 282.824219 478.898438 291.628906 487.699219 291.628906 498.5625 Z M 83.472656 376.902344 "/>
</clipPath>
<clipPath id="clip31">
  <path d="M 205 343 L 368 343 L 368 540 L 205 540 Z M 205 343 "/>
</clipPath>
<clipPath id="clip32">
  <path d="M 106.730469 306.460938 L 466.265625 306.460938 L 466.265625 577.011719 L 106.730469 577.011719 Z M 106.730469 306.460938 L 281.125 399.242188 C 281.125 410.101562 272.320312 418.90625 261.460938 418.90625 C 250.597656 418.90625 241.796875 410.101562 241.796875 399.242188 C 241.796875 388.378906 250.597656 379.578125 261.460938 379.578125 C 272.320312 379.578125 281.125 388.378906 281.125 399.242188 Z M 106.730469 306.460938 "/>
</clipPath>
<clipPath id="clip33">
  <path d="M 106.730469 306.460938 L 466.265625 306.460938 L 466.265625 577.011719 L 106.730469 577.011719 Z M 106.730469 306.460938 L 331.199219 484.230469 C 331.199219 495.09375 322.394531 503.898438 311.535156 503.898438 C 300.675781 503.898438 291.871094 495.09375 291.871094 484.230469 C 291.871094 473.371094 300.675781 464.566406 311.535156 464.566406 C 322.394531 464.566406 331.199219 473.371094 331.199219 484.230469 Z M 106.730469 306.460938 "/>
</clipPath>
<clipPath id="clip34">
  <path d="M 8.25 256 L 159.261719 256 L 159.261719 383 L 8.25 383 Z M 8.25 256 "/>
</clipPath>
<clipPath id="clip35">
  <path d="M 8.25 137.292969 L 159.261719 137.292969 L 159.261719 502.070312 L 8.25 502.070312 Z M 8.25 137.292969 L 69.257812 327.15625 C 69.257812 338.015625 60.453125 346.820312 49.59375 346.820312 C 38.734375 346.820312 29.929688 338.015625 29.929688 327.15625 C 29.929688 316.292969 38.734375 307.492188 49.59375 307.492188 C 60.453125 307.492188 69.257812 316.292969 69.257812 327.15625 Z M 8.25 137.292969 "/>
</clipPath>
<clipPath id="clip36">
  <path d="M 8.25 137.292969 L 159.261719 137.292969 L 159.261719 502.070312 L 8.25 502.070312 Z M 8.25 137.292969 L 137.582031 312.207031 C 137.582031 323.066406 128.777344 331.871094 117.917969 331.871094 C 107.058594 331.871094 98.253906 323.066406 98.253906 312.207031 C 98.253906 301.347656 107.058594 292.542969 117.917969 292.542969 C 128.777344 292.542969 137.582031 301.347656 137.582031 312.207031 Z M 8.25 137.292969 "/>
</clipPath>
<clipPath id="clip37">
  <path d="M 391 0 L 530 0 L 530 143 L 391 143 Z M 391 0 "/>
</clipPath>
<clipPath id="clip38">
  <path d="M 292.257812 -50.953125 L 629.34375 -50.953125 L 629.34375 179.261719 L 292.257812 179.261719 Z M 292.257812 -50.953125 L 467.050781 41.152344 C 467.050781 52.011719 458.246094 60.816406 447.386719 60.816406 C 436.523438 60.816406 427.71875 52.011719 427.71875 41.152344 C 427.71875 30.292969 436.523438 21.488281 447.386719 21.488281 C 458.246094 21.488281 467.050781 30.292969 467.050781 41.152344 Z M 292.257812 -50.953125 "/>
</clipPath>
<clipPath id="clip39">
  <path d="M 292.257812 -50.953125 L 629.34375 -50.953125 L 629.34375 179.261719 L 292.257812 179.261719 Z M 292.257812 -50.953125 L 493.882812 87.15625 C 493.882812 98.015625 485.078125 106.820312 474.214844 106.820312 C 463.355469 106.820312 454.550781 98.015625 454.550781 87.15625 C 454.550781 76.296875 463.355469 67.492188 474.214844 67.492188 C 485.078125 67.492188 493.882812 76.296875 493.882812 87.15625 Z M 292.257812 -50.953125 "/>
</clipPath>
<clipPath id="clip40">
  <path d="M 408 201 L 593 201 L 593 371 L 408 371 Z M 408 201 "/>
</clipPath>
<clipPath id="clip41">
  <path d="M 351.246094 116.0625 L 650.039062 116.0625 L 650.039062 455.171875 L 351.246094 455.171875 Z M 351.246094 116.0625 L 556.472656 314.53125 C 556.472656 325.390625 547.667969 334.195312 536.808594 334.195312 C 525.945312 334.195312 517.144531 325.390625 517.144531 314.53125 C 517.144531 303.671875 525.945312 294.867188 536.808594 294.867188 C 547.667969 294.867188 556.472656 303.671875 556.472656 314.53125 Z M 351.246094 116.0625 "/>
</clipPath>
<clipPath id="clip42">
  <path d="M 351.246094 116.0625 L 650.039062 116.0625 L 650.039062 455.171875 L 351.246094 455.171875 Z M 351.246094 116.0625 L 484.140625 256.703125 C 484.140625 267.5625 475.335938 276.367188 464.476562 276.367188 C 453.617188 276.367188 444.8125 267.5625 444.8125 256.703125 C 444.8125 245.839844 453.617188 237.039062 464.476562 237.039062 C 475.335938 237.039062 484.140625 245.839844 484.140625 256.703125 Z M 351.246094 116.0625 "/>
</clipPath>
<clipPath id="clip43">
  <path d="M 418 55.582031 L 542 55.582031 L 542 192.300781 L 418 192.300781 Z M 418 55.582031 "/>
</clipPath>
<clipPath id="clip44">
  <path d="M 297.449219 55.582031 L 662.746094 55.582031 L 662.746094 192.300781 L 297.449219 192.300781 Z M 297.449219 55.582031 L 493.882812 87.15625 C 493.882812 98.015625 485.078125 106.820312 474.214844 106.820312 C 463.355469 106.820312 454.550781 98.015625 454.550781 87.15625 C 454.550781 76.296875 463.355469 67.492188 474.214844 67.492188 C 485.078125 67.492188 493.882812 76.296875 493.882812 87.15625 Z M 297.449219 55.582031 "/>
</clipPath>
<clipPath id="clip45">
  <path d="M 297.449219 55.582031 L 662.746094 55.582031 L 662.746094 192.300781 L 297.449219 192.300781 Z M 297.449219 55.582031 L 505.644531 160.726562 C 505.644531 171.585938 496.839844 180.390625 485.980469 180.390625 C 475.121094 180.390625 466.316406 171.585938 466.316406 160.726562 C 466.316406 149.863281 475.121094 141.0625 485.980469 141.0625 C 496.839844 141.0625 505.644531 149.863281 505.644531 160.726562 Z M 297.449219 55.582031 "/>
</clipPath>
<clipPath id="clip46">
  <path d="M 408 118.527344 L 542 118.527344 L 542 298.902344 L 408 298.902344 Z M 408 118.527344 "/>
</clipPath>
<clipPath id="clip47">
  <path d="M 289.75 118.527344 L 660.707031 118.527344 L 660.707031 298.902344 L 289.75 298.902344 Z M 289.75 118.527344 L 505.644531 160.726562 C 505.644531 171.585938 496.839844 180.390625 485.980469 180.390625 C 475.121094 180.390625 466.316406 171.585938 466.316406 160.726562 C 466.316406 149.863281 475.121094 141.0625 485.980469 141.0625 C 496.839844 141.0625 505.644531 149.863281 505.644531 160.726562 Z M 289.75 118.527344 "/>
</clipPath>
<clipPath id="clip48">
  <path d="M 289.75 118.527344 L 660.707031 118.527344 L 660.707031 298.902344 L 289.75 298.902344 Z M 289.75 118.527344 L 484.140625 256.703125 C 484.140625 267.5625 475.335938 276.367188 464.476562 276.367188 C 453.617188 276.367188 444.8125 267.5625 444.8125 256.703125 C 444.8125 245.839844 453.617188 237.039062 464.476562 237.039062 C 475.335938 237.039062 484.140625 245.839844 484.140625 256.703125 Z M 289.75 118.527344 "/>
</clipPath>
<clipPath id="clip49">
  <path d="M 460.449219 201 L 554.433594 201 L 554.433594 313 L 460.449219 313 Z M 460.449219 201 "/>
</clipPath>
<clipPath id="clip50">
  <path d="M 460.449219 77.742188 L 554.433594 77.742188 L 554.433594 435.710938 L 460.449219 435.710938 Z M 460.449219 77.742188 L 484.140625 256.703125 C 484.140625 267.5625 475.335938 276.367188 464.476562 276.367188 C 453.617188 276.367188 444.8125 267.5625 444.8125 256.703125 C 444.8125 245.839844 453.617188 237.039062 464.476562 237.039062 C 475.335938 237.039062 484.140625 245.839844 484.140625 256.703125 Z M 460.449219 77.742188 "/>
</clipPath>
<clipPath id="clip51">
  <path d="M 460.449219 77.742188 L 554.433594 77.742188 L 554.433594 435.710938 L 460.449219 435.710938 Z M 460.449219 77.742188 L 570.070312 256.75 C 570.070312 267.609375 561.265625 276.414062 550.40625 276.414062 C 539.546875 276.414062 530.742188 267.609375 530.742188 256.75 C 530.742188 245.890625 539.546875 237.085938 550.40625 237.085938 C 561.265625 237.085938 570.070312 245.890625 570.070312 256.75 Z M 460.449219 77.742188 "/>
</clipPath>
<clipPath id="clip52">
  <path d="M 216 442 L 378 442 L 378 600 L 216 600 Z M 216 442 "/>
</clipPath>
<clipPath id="clip53">
  <path d="M 133.109375 383.136719 L 460.636719 383.136719 L 460.636719 674.273438 L 133.109375 674.273438 Z M 133.109375 383.136719 L 341.445312 558.847656 C 341.445312 569.707031 332.640625 578.511719 321.78125 578.511719 C 310.921875 578.511719 302.117188 569.707031 302.117188 558.847656 C 302.117188 547.988281 310.921875 539.183594 321.78125 539.183594 C 332.640625 539.183594 341.445312 547.988281 341.445312 558.847656 Z M 133.109375 383.136719 "/>
</clipPath>
<clipPath id="clip54">
  <path d="M 133.109375 383.136719 L 460.636719 383.136719 L 460.636719 674.273438 L 133.109375 674.273438 Z M 133.109375 383.136719 L 291.628906 498.5625 C 291.628906 509.421875 282.824219 518.226562 271.964844 518.226562 C 261.105469 518.226562 252.300781 509.421875 252.300781 498.5625 C 252.300781 487.699219 261.105469 478.898438 271.964844 478.898438 C 282.824219 478.898438 291.628906 487.699219 291.628906 498.5625 Z M 133.109375 383.136719 "/>
</clipPath>
<clipPath id="clip55">
  <path d="M 268.351562 484 L 440.214844 484 L 440.214844 600 L 268.351562 600 Z M 268.351562 484 "/>
</clipPath>
<clipPath id="clip56">
  <path d="M 268.351562 367.867188 L 440.214844 367.867188 L 440.214844 730.664062 L 268.351562 730.664062 Z M 268.351562 367.867188 L 341.445312 558.847656 C 341.445312 569.707031 332.640625 578.511719 321.78125 578.511719 C 310.921875 578.511719 302.117188 569.707031 302.117188 558.847656 C 302.117188 547.988281 310.921875 539.183594 321.78125 539.183594 C 332.640625 539.183594 341.445312 547.988281 341.445312 558.847656 Z M 268.351562 367.867188 "/>
</clipPath>
<clipPath id="clip57">
  <path d="M 268.351562 367.867188 L 440.214844 367.867188 L 440.214844 730.664062 L 268.351562 730.664062 Z M 268.351562 367.867188 L 406.449219 539.683594 C 406.449219 550.542969 397.644531 559.347656 386.785156 559.347656 C 375.921875 559.347656 367.121094 550.542969 367.121094 539.683594 C 367.121094 528.824219 375.921875 520.019531 386.785156 520.019531 C 397.644531 520.019531 406.449219 528.824219 406.449219 539.683594 Z M 268.351562 367.867188 "/>
</clipPath>
<clipPath id="clip58">
  <path d="M 216 428 L 368 428 L 368 555 L 216 555 Z M 216 428 "/>
</clipPath>
<clipPath id="clip59">
  <path d="M 208.425781 315.730469 L 375.074219 315.730469 L 375.074219 667.0625 L 208.425781 667.0625 Z M 208.425781 315.730469 L 291.628906 498.5625 C 291.628906 509.421875 282.824219 518.226562 271.964844 518.226562 C 261.105469 518.226562 252.300781 509.421875 252.300781 498.5625 C 252.300781 487.699219 261.105469 478.898438 271.964844 478.898438 C 282.824219 478.898438 291.628906 487.699219 291.628906 498.5625 Z M 208.425781 315.730469 "/>
</clipPath>
<clipPath id="clip60">
  <path d="M 208.425781 315.730469 L 375.074219 315.730469 L 375.074219 667.0625 L 208.425781 667.0625 Z M 208.425781 315.730469 L 331.199219 484.230469 C 331.199219 495.09375 322.394531 503.898438 311.535156 503.898438 C 300.675781 503.898438 291.871094 495.09375 291.871094 484.230469 C 291.871094 473.371094 300.675781 464.566406 311.535156 464.566406 C 322.394531 464.566406 331.199219 473.371094 331.199219 484.230469 Z M 208.425781 315.730469 "/>
</clipPath>
<clipPath id="clip61">
  <path d="M 378.265625 484 L 475.609375 484 L 475.609375 598 L 378.265625 598 Z M 378.265625 484 "/>
</clipPath>
<clipPath id="clip62">
  <path d="M 378.265625 360.785156 L 475.609375 360.785156 L 475.609375 720.6875 L 378.265625 720.6875 Z M 378.265625 360.785156 L 486.753906 541.789062 C 486.753906 552.648438 477.953125 561.453125 467.089844 561.453125 C 456.230469 561.453125 447.425781 552.648438 447.425781 541.789062 C 447.425781 530.925781 456.230469 522.125 467.089844 522.125 C 477.953125 522.125 486.753906 530.925781 486.753906 541.789062 Z M 378.265625 360.785156 "/>
</clipPath>
<clipPath id="clip63">
  <path d="M 378.265625 360.785156 L 475.609375 360.785156 L 475.609375 720.6875 L 378.265625 720.6875 Z M 378.265625 360.785156 L 406.449219 539.683594 C 406.449219 550.542969 397.644531 559.347656 386.785156 559.347656 C 375.921875 559.347656 367.121094 550.542969 367.121094 539.683594 C 367.121094 528.824219 375.921875 520.019531 386.785156 520.019531 C 397.644531 520.019531 406.449219 528.824219 406.449219 539.683594 Z M 378.265625 360.785156 "/>
</clipPath>
<clipPath id="clip64">
  <path d="M 255 428 L 443 428 L 443 596 L 255 596 Z M 255 428 "/>
</clipPath>
<clipPath id="clip65">
  <path d="M 203.769531 339.394531 L 494.550781 339.394531 L 494.550781 684.519531 L 203.769531 684.519531 Z M 203.769531 339.394531 L 331.199219 484.230469 C 331.199219 495.09375 322.394531 503.898438 311.535156 503.898438 C 300.675781 503.898438 291.871094 495.09375 291.871094 484.230469 C 291.871094 473.371094 300.675781 464.566406 311.535156 464.566406 C 322.394531 464.566406 331.199219 473.371094 331.199219 484.230469 Z M 203.769531 339.394531 "/>
</clipPath>
<clipPath id="clip66">
  <path d="M 203.769531 339.394531 L 494.550781 339.394531 L 494.550781 684.519531 L 203.769531 684.519531 Z M 203.769531 339.394531 L 406.449219 539.683594 C 406.449219 550.542969 397.644531 559.347656 386.785156 559.347656 C 375.921875 559.347656 367.121094 550.542969 367.121094 539.683594 C 367.121094 528.824219 375.921875 520.019531 386.785156 520.019531 C 397.644531 520.019531 406.449219 528.824219 406.449219 539.683594 Z M 203.769531 339.394531 "/>
</clipPath>
</defs>
<g id="surface61">
<g clip-path="url(#clip1)" clip-rule="nonzero">
<g clip-path="url(#clip2)" clip-rule="evenodd">
<g clip-path="url(#clip3)" clip-rule="evenodd">
<path style="fill:none;stroke-width:0.0224699;stroke-linecap:butt;stroke-linejoin:miter;stroke:rgb(17.96875%,20.3125%,21.09375%);stroke-opacity:0.8;stroke-miterlimit:10;" d="M 1.650434 1.32636 L 1.848015 1.271123 " transform="matrix(175.026704,0,0,175.026704,-59.924642,67.93752)"/>
</g>
</g>
</g>
<g clip-path="url(#clip4)" clip-rule="nonzero">
<g clip-path="url(#clip5)" clip-rule="evenodd">
<g clip-path="url(#clip6)" clip-rule="evenodd">
<path style="fill:none;stroke-width:0.0224699;stroke-linecap:butt;stroke-linejoin:miter;stroke:rgb(17.96875%,20.3125%,21.09375%);stroke-opacity:0.8;stroke-miterlimit:10;" d="M 1.650434 1.32636 L 1.836209 1.892881 " transform="matrix(175.026704,0,0,175.026704,-59.924642,67.93752)"/>
</g>
</g>
</g>
<g clip-path="url(#clip7)" clip-rule="nonzero">
<g clip-path="url(#clip8)" clip-rule="evenodd">
<g clip-path="url(#clip9)" clip-rule="evenodd">
<path style="fill:none;stroke-width:0.0224699;stroke-linecap:butt;stroke-linejoin:miter;stroke:rgb(17.96875%,20.3125%,21.09375%);stroke-opacity:0.8;stroke-miterlimit:10;" d="M 1.650434 1.32636 L 1.563817 0.830587 " transform="matrix(175.026704,0,0,175.026704,-59.924642,67.93752)"/>
</g>
</g>
</g>
<g clip-path="url(#clip10)" clip-rule="nonzero">
<g clip-path="url(#clip11)" clip-rule="evenodd">
<g clip-path="url(#clip12)" clip-rule="evenodd">
<path style="fill:none;stroke-width:0.0224699;stroke-linecap:butt;stroke-linejoin:miter;stroke:rgb(17.96875%,20.3125%,21.09375%);stroke-opacity:0.8;stroke-miterlimit:10;" d="M 1.376904 0.285715 L 1.319725 -0.0214701 " transform="matrix(175.026704,0,0,175.026704,-59.924642,67.93752)"/>
</g>
</g>
</g>
<g clip-path="url(#clip13)" clip-rule="nonzero">
<g clip-path="url(#clip14)" clip-rule="evenodd">
<g clip-path="url(#clip15)" clip-rule="evenodd">
<path style="fill:none;stroke-width:0.0224699;stroke-linecap:butt;stroke-linejoin:miter;stroke:rgb(17.96875%,20.3125%,21.09375%);stroke-opacity:0.8;stroke-miterlimit:10;" d="M 1.376904 0.285715 L 1.563817 0.830587 " transform="matrix(175.026704,0,0,175.026704,-59.924642,67.93752)"/>
</g>
</g>
</g>
<g clip-path="url(#clip16)" clip-rule="nonzero">
<g clip-path="url(#clip17)" clip-rule="evenodd">
<g clip-path="url(#clip18)" clip-rule="evenodd">
<path style="fill:none;stroke-width:0.0224699;stroke-linecap:butt;stroke-linejoin:miter;stroke:rgb(17.96875%,20.3125%,21.09375%);stroke-opacity:0.8;stroke-miterlimit:10;" d="M 1.848015 1.271123 L 1.836209 1.892881 " transform="matrix(175.026704,0,0,175.026704,-59.924642,67.93752)"/>
</g>
</g>
</g>
<g clip-path="url(#clip19)" clip-rule="nonzero">
<g clip-path="url(#clip20)" clip-rule="evenodd">
<g clip-path="url(#clip21)" clip-rule="evenodd">
<path style="fill:none;stroke-width:0.0224699;stroke-linecap:butt;stroke-linejoin:miter;stroke:rgb(17.96875%,20.3125%,21.09375%);stroke-opacity:0.8;stroke-miterlimit:10;" d="M 1.848015 1.271123 L 1.563817 0.830587 " transform="matrix(175.026704,0,0,175.026704,-59.924642,67.93752)"/>
</g>
</g>
</g>
<g clip-path="url(#clip22)" clip-rule="nonzero">
<g clip-path="url(#clip23)" clip-rule="evenodd">
<g clip-path="url(#clip24)" clip-rule="evenodd">
<path style="fill:none;stroke-width:0.0224699;stroke-linecap:butt;stroke-linejoin:miter;stroke:rgb(17.96875%,20.3125%,21.09375%);stroke-opacity:0.8;stroke-miterlimit:10;" d="M 1.848015 1.271123 L 1.016088 1.395613 " transform="matrix(175.026704,0,0,175.026704,-59.924642,67.93752)"/>
</g>
</g>
</g>
<g clip-path="url(#clip25)" clip-rule="nonzero">
<g clip-path="url(#clip26)" clip-rule="evenodd">
<g clip-path="url(#clip27)" clip-rule="evenodd">
<path style="fill:none;stroke-width:0.0224699;stroke-linecap:butt;stroke-linejoin:miter;stroke:rgb(17.96875%,20.3125%,21.09375%);stroke-opacity:0.8;stroke-miterlimit:10;" d="M 1.848015 1.271123 L 2.996121 1.078496 " transform="matrix(175.026704,0,0,175.026704,-59.924642,67.93752)"/>
</g>
</g>
</g>
<g clip-path="url(#clip28)" clip-rule="nonzero">
<g clip-path="url(#clip29)" clip-rule="evenodd">
<g clip-path="url(#clip30)" clip-rule="evenodd">
<path style="fill:none;stroke-width:0.0224699;stroke-linecap:butt;stroke-linejoin:miter;stroke:rgb(17.96875%,20.3125%,21.09375%);stroke-opacity:0.8;stroke-miterlimit:10;" d="M 1.836209 1.892881 L 1.896222 2.460339 " transform="matrix(175.026704,0,0,175.026704,-59.924642,67.93752)"/>
</g>
</g>
</g>
<g clip-path="url(#clip31)" clip-rule="nonzero">
<g clip-path="url(#clip32)" clip-rule="evenodd">
<g clip-path="url(#clip33)" clip-rule="evenodd">
<path style="fill:none;stroke-width:0.0224699;stroke-linecap:butt;stroke-linejoin:miter;stroke:rgb(17.96875%,20.3125%,21.09375%);stroke-opacity:0.8;stroke-miterlimit:10;" d="M 1.836209 1.892881 L 2.122304 2.378454 " transform="matrix(175.026704,0,0,175.026704,-59.924642,67.93752)"/>
</g>
</g>
</g>
<g clip-path="url(#clip34)" clip-rule="nonzero">
<g clip-path="url(#clip35)" clip-rule="evenodd">
<g clip-path="url(#clip36)" clip-rule="evenodd">
<path style="fill:none;stroke-width:0.0224699;stroke-linecap:butt;stroke-linejoin:miter;stroke:rgb(17.96875%,20.3125%,21.09375%);stroke-opacity:0.8;stroke-miterlimit:10;" d="M 0.625724 1.481024 L 1.016088 1.395613 " transform="matrix(175.026704,0,0,175.026704,-59.924642,67.93752)"/>
</g>
</g>
</g>
<g clip-path="url(#clip37)" clip-rule="nonzero">
<g clip-path="url(#clip38)" clip-rule="evenodd">
<g clip-path="url(#clip39)" clip-rule="evenodd">
<path style="fill:none;stroke-width:0.0224699;stroke-linecap:butt;stroke-linejoin:miter;stroke:rgb(17.96875%,20.3125%,21.09375%);stroke-opacity:0.8;stroke-miterlimit:10;" d="M 2.89848 -0.153035 L 3.05176 0.109805 " transform="matrix(175.026704,0,0,175.026704,-59.924642,67.93752)"/>
</g>
</g>
</g>
<g clip-path="url(#clip40)" clip-rule="nonzero">
<g clip-path="url(#clip41)" clip-rule="evenodd">
<g clip-path="url(#clip42)" clip-rule="evenodd">
<path style="fill:none;stroke-width:0.0224699;stroke-linecap:butt;stroke-linejoin:miter;stroke:rgb(17.96875%,20.3125%,21.09375%);stroke-opacity:0.8;stroke-miterlimit:10;" d="M 3.409384 1.408892 L 2.996121 1.078496 " transform="matrix(175.026704,0,0,175.026704,-59.924642,67.93752)"/>
</g>
</g>
</g>
<g clip-path="url(#clip43)" clip-rule="nonzero">
<g clip-path="url(#clip44)" clip-rule="evenodd">
<g clip-path="url(#clip45)" clip-rule="evenodd">
<path style="fill:none;stroke-width:0.0224699;stroke-linecap:butt;stroke-linejoin:miter;stroke:rgb(17.96875%,20.3125%,21.09375%);stroke-opacity:0.8;stroke-miterlimit:10;" d="M 3.05176 0.109805 L 3.118982 0.530142 " transform="matrix(175.026704,0,0,175.026704,-59.924642,67.93752)"/>
</g>
</g>
</g>
<g clip-path="url(#clip46)" clip-rule="nonzero">
<g clip-path="url(#clip47)" clip-rule="evenodd">
<g clip-path="url(#clip48)" clip-rule="evenodd">
<path style="fill:none;stroke-width:0.0224699;stroke-linecap:butt;stroke-linejoin:miter;stroke:rgb(17.96875%,20.3125%,21.09375%);stroke-opacity:0.8;stroke-miterlimit:10;" d="M 3.118982 0.530142 L 2.996121 1.078496 " transform="matrix(175.026704,0,0,175.026704,-59.924642,67.93752)"/>
</g>
</g>
</g>
<g clip-path="url(#clip49)" clip-rule="nonzero">
<g clip-path="url(#clip50)" clip-rule="evenodd">
<g clip-path="url(#clip51)" clip-rule="evenodd">
<path style="fill:none;stroke-width:0.0224699;stroke-linecap:butt;stroke-linejoin:miter;stroke:rgb(17.96875%,20.3125%,21.09375%);stroke-opacity:0.8;stroke-miterlimit:10;" d="M 2.996121 1.078496 L 3.487073 1.078764 " transform="matrix(175.026704,0,0,175.026704,-59.924642,67.93752)"/>
</g>
</g>
</g>
<g clip-path="url(#clip52)" clip-rule="nonzero">
<g clip-path="url(#clip53)" clip-rule="evenodd">
<g clip-path="url(#clip54)" clip-rule="evenodd">
<path style="fill:none;stroke-width:0.0224699;stroke-linecap:butt;stroke-linejoin:miter;stroke:rgb(17.96875%,20.3125%,21.09375%);stroke-opacity:0.8;stroke-miterlimit:10;" d="M 2.180844 2.804773 L 1.896222 2.460339 " transform="matrix(175.026704,0,0,175.026704,-59.924642,67.93752)"/>
</g>
</g>
</g>
<g clip-path="url(#clip55)" clip-rule="nonzero">
<g clip-path="url(#clip56)" clip-rule="evenodd">
<g clip-path="url(#clip57)" clip-rule="evenodd">
<path style="fill:none;stroke-width:0.0224699;stroke-linecap:butt;stroke-linejoin:miter;stroke:rgb(17.96875%,20.3125%,21.09375%);stroke-opacity:0.8;stroke-miterlimit:10;" d="M 2.180844 2.804773 L 2.552238 2.695281 " transform="matrix(175.026704,0,0,175.026704,-59.924642,67.93752)"/>
</g>
</g>
</g>
<g clip-path="url(#clip58)" clip-rule="nonzero">
<g clip-path="url(#clip59)" clip-rule="evenodd">
<g clip-path="url(#clip60)" clip-rule="evenodd">
<path style="fill:none;stroke-width:0.0224699;stroke-linecap:butt;stroke-linejoin:miter;stroke:rgb(17.96875%,20.3125%,21.09375%);stroke-opacity:0.8;stroke-miterlimit:10;" d="M 1.896222 2.460339 L 2.122304 2.378454 " transform="matrix(175.026704,0,0,175.026704,-59.924642,67.93752)"/>
</g>
</g>
</g>
<g clip-path="url(#clip61)" clip-rule="nonzero">
<g clip-path="url(#clip62)" clip-rule="evenodd">
<g clip-path="url(#clip63)" clip-rule="evenodd">
<path style="fill:none;stroke-width:0.0224699;stroke-linecap:butt;stroke-linejoin:miter;stroke:rgb(17.96875%,20.3125%,21.09375%);stroke-opacity:0.8;stroke-miterlimit:10;" d="M 3.011052 2.70731 L 2.552238 2.695281 " transform="matrix(175.026704,0,0,175.026704,-59.924642,67.93752)"/>
</g>
</g>
</g>
<g clip-path="url(#clip64)" clip-rule="nonzero">
<g clip-path="url(#clip65)" clip-rule="evenodd">
<g clip-path="url(#clip66)" clip-rule="evenodd">
<path style="fill:none;stroke-width:0.0224699;stroke-linecap:butt;stroke-linejoin:miter;stroke:rgb(17.96875%,20.3125%,21.09375%);stroke-opacity:0.8;stroke-miterlimit:10;" d="M 2.122304 2.378454 L 2.552238 2.695281 " transform="matrix(175.026704,0,0,175.026704,-59.924642,67.93752)"/>
</g>
</g>
</g>
<path style="fill-rule:nonzero;fill:rgb(100%,92.941176%,43.529412%);fill-opacity:1;stroke-width:0.0224699;stroke-linecap:butt;stroke-linejoin:miter;stroke:rgb(60%,60%,60%);stroke-opacity:0.8;stroke-miterlimit:10;" d="M 0.11234 0.0000000317165 C 0.11234 0.0620441 0.0620579 0.112349 -0.00000854986 0.112349 C -0.0620527 0.112349 -0.112357 0.0620441 -0.112357 0.0000000317165 C -0.112357 -0.0620441 -0.0620527 -0.112349 -0.00000854986 -0.112349 C 0.0620579 -0.112349 0.11234 -0.0620441 0.11234 0.0000000317165 Z M 0.11234 0.0000000317165 " transform="matrix(175.026704,0,0,175.026704,228.946809,300.085932)"/>
<path style="fill-rule:nonzero;fill:rgb(100%,92.941176%,43.529412%);fill-opacity:1;stroke-width:0.0224699;stroke-linecap:butt;stroke-linejoin:miter;stroke:rgb(60%,60%,60%);stroke-opacity:0.8;stroke-miterlimit:10;" d="M 0.112344 0.00000123983 C 0.112344 0.0620453 0.0620392 0.11235 -0.00000495134 0.11235 C -0.0620491 0.11235 -0.112354 0.0620453 -0.112354 0.00000123983 C -0.112354 -0.0620429 -0.0620491 -0.112348 -0.00000495134 -0.112348 C 0.0620392 -0.112348 0.112344 -0.0620429 0.112344 0.00000123983 Z M 0.112344 0.00000123983 " transform="matrix(175.026704,0,0,175.026704,181.071179,117.945095)"/>
<path style="fill-rule:nonzero;fill:rgb(55.294118%,82.745098%,78.039216%);fill-opacity:1;stroke-width:0.0224699;stroke-linecap:butt;stroke-linejoin:miter;stroke:rgb(60%,60%,60%);stroke-opacity:0.8;stroke-miterlimit:10;" d="M 0.112344 0.00000307544 C 0.112344 0.0620472 0.0620391 0.112352 -0.0000050471 0.112352 C -0.0620492 0.112352 -0.112354 0.0620472 -0.112354 0.00000307544 C -0.112354 -0.062041 -0.0620492 -0.112346 -0.0000050471 -0.112346 C 0.0620391 -0.112346 0.112344 -0.062041 0.112344 0.00000307544 Z M 0.112344 0.00000307544 " transform="matrix(175.026704,0,0,175.026704,263.528227,290.41743)"/>
<path style="fill-rule:nonzero;fill:rgb(55.294118%,82.745098%,78.039216%);fill-opacity:1;stroke-width:0.0224699;stroke-linecap:butt;stroke-linejoin:miter;stroke:rgb(60%,60%,60%);stroke-opacity:0.8;stroke-miterlimit:10;" d="M 0.112357 0.00000949173 C 0.112357 0.0620536 0.0620524 0.112358 0.00000831667 0.112358 C -0.0620581 0.112358 -0.112341 0.0620536 -0.112341 0.00000949173 C -0.112341 -0.0620569 -0.0620581 -0.112339 0.00000831667 -0.112339 C 0.0620524 -0.112339 0.112357 -0.0620569 0.112357 0.00000949173 Z M 0.112357 0.00000949173 " transform="matrix(175.026704,0,0,175.026704,261.459482,399.240526)"/>
<path style="fill-rule:nonzero;fill:rgb(100%,92.941176%,43.529412%);fill-opacity:1;stroke-width:0.0224699;stroke-linecap:butt;stroke-linejoin:miter;stroke:rgb(60%,60%,60%);stroke-opacity:0.8;stroke-miterlimit:10;" d="M 0.112358 -0.00000863794 C 0.112358 0.0620578 0.0620532 0.11234 0.00000910049 0.11234 C -0.0620573 0.11234 -0.11234 0.0620578 -0.11234 -0.00000863794 C -0.11234 -0.0620527 -0.0620573 -0.112358 0.00000910049 -0.112358 C 0.0620532 -0.112358 0.112358 -0.0620527 0.112358 -0.00000863794 Z M 0.112358 -0.00000863794 " transform="matrix(175.026704,0,0,175.026704,171.060907,64.181199)"/>
<path style="fill-rule:nonzero;fill:rgb(55.294118%,82.745098%,78.039216%);fill-opacity:1;stroke-width:0.0224699;stroke-linecap:butt;stroke-linejoin:miter;stroke:rgb(60%,60%,60%);stroke-opacity:0.8;stroke-miterlimit:10;" d="M 0.112351 0.0000075615 C 0.112351 0.0620517 0.0620463 0.112356 0.00000218129 0.112356 C -0.0620419 0.112356 -0.112347 0.0620517 -0.112347 0.0000075615 C -0.112347 -0.0620589 -0.0620419 -0.112341 0.00000218129 -0.112341 C 0.0620463 -0.112341 0.112351 -0.0620589 0.112351 0.0000075615 Z M 0.112351 0.0000075615 " transform="matrix(175.026704,0,0,175.026704,49.593368,327.154927)"/>
<path style="fill-rule:nonzero;fill:rgb(100%,92.941176%,43.529412%);fill-opacity:1;stroke-width:0.0224699;stroke-linecap:butt;stroke-linejoin:miter;stroke:rgb(60%,60%,60%);stroke-opacity:0.8;stroke-miterlimit:10;" d="M 0.112352 -0.00000687414 C 0.112352 0.0620595 0.0620467 0.112342 0.00000258151 0.112342 C -0.0620415 0.112342 -0.112346 0.0620595 -0.112346 -0.00000687414 C -0.112346 -0.062051 -0.0620415 -0.112356 0.00000258151 -0.112356 C 0.0620467 -0.112356 0.112352 -0.062051 0.112352 -0.00000687414 Z M 0.112352 -0.00000687414 " transform="matrix(175.026704,0,0,175.026704,213.784704,213.313703)"/>
<path style="fill-rule:nonzero;fill:rgb(55.294118%,82.745098%,78.039216%);fill-opacity:1;stroke-width:0.0224699;stroke-linecap:butt;stroke-linejoin:miter;stroke:rgb(60%,60%,60%);stroke-opacity:0.8;stroke-miterlimit:10;" d="M 0.112344 0.00000319465 C 0.112344 0.0620473 0.0620389 0.112352 -0.00000525076 0.112352 C -0.0620494 0.112352 -0.112354 0.0620473 -0.112354 0.00000319465 C -0.112354 -0.0620409 -0.0620494 -0.112346 -0.00000525076 -0.112346 C 0.0620389 -0.112346 0.112344 -0.0620409 0.112344 0.00000319465 Z M 0.112344 0.00000319465 " transform="matrix(175.026704,0,0,175.026704,117.918888,312.206472)"/>
<path style="fill-rule:nonzero;fill:rgb(55.294118%,82.745098%,78.039216%);fill-opacity:1;stroke-width:0.0224699;stroke-linecap:butt;stroke-linejoin:miter;stroke:rgb(60%,60%,60%);stroke-opacity:0.8;stroke-miterlimit:10;" d="M 0.11236 -0.00000599858 C 0.11236 0.0620381 0.062055 0.112343 0.0000109222 0.112343 C -0.0620555 0.112343 -0.11236 0.0620381 -0.11236 -0.00000599858 C -0.11236 -0.0620501 -0.0620555 -0.112355 0.0000109222 -0.112355 C 0.062055 -0.112355 0.11236 -0.0620501 0.11236 -0.00000599858 Z M 0.11236 -0.00000599858 " transform="matrix(175.026704,0,0,175.026704,447.384807,41.153394)"/>
<path style="fill-rule:nonzero;fill:rgb(55.294118%,82.745098%,78.039216%);fill-opacity:1;stroke-width:0.0224699;stroke-linecap:butt;stroke-linejoin:miter;stroke:rgb(60%,60%,60%);stroke-opacity:0.8;stroke-miterlimit:10;" d="M 0.112356 -0.00000235232 C 0.112356 0.0620418 0.0620508 0.112347 0.00000672077 0.112347 C -0.0620597 0.112347 -0.112342 0.0620418 -0.112342 -0.00000235232 C -0.112342 -0.0620465 -0.0620597 -0.112351 0.00000672077 -0.112351 C 0.0620508 -0.112351 0.112356 -0.0620465 0.112356 -0.00000235232 Z M 0.112356 -0.00000235232 " transform="matrix(175.026704,0,0,175.026704,536.807417,314.531662)"/>
<path style="fill-rule:nonzero;fill:rgb(55.294118%,82.745098%,78.039216%);fill-opacity:1;stroke-width:0.0224699;stroke-linecap:butt;stroke-linejoin:miter;stroke:rgb(60%,60%,60%);stroke-opacity:0.8;stroke-miterlimit:10;" d="M 0.112361 0.00000611522 C 0.112361 0.0620502 0.0620558 0.112355 -0.0000106147 0.112355 C -0.0620547 0.112355 -0.11236 0.0620502 -0.11236 0.00000611522 C -0.11236 -0.062038 -0.0620547 -0.112343 -0.0000106147 -0.112343 C 0.0620558 -0.112343 0.112361 -0.062038 0.112361 0.00000611522 Z M 0.112361 0.00000611522 " transform="matrix(175.026704,0,0,175.026704,474.216702,87.15518)"/>
<path style="fill-rule:nonzero;fill:rgb(55.294118%,82.745098%,78.039216%);fill-opacity:1;stroke-width:0.0224699;stroke-linecap:butt;stroke-linejoin:miter;stroke:rgb(60%,60%,60%);stroke-opacity:0.8;stroke-miterlimit:10;" d="M 0.112354 0.00000668216 C 0.112354 0.0620508 0.0620488 0.112356 0.00000473692 0.112356 C -0.0620394 0.112356 -0.112344 0.0620508 -0.112344 0.00000668216 C -0.112344 -0.0620597 -0.0620394 -0.112342 0.00000473692 -0.112342 C 0.0620488 -0.112342 0.112354 -0.0620597 0.112354 0.00000668216 Z M 0.112354 0.00000668216 " transform="matrix(175.026704,0,0,175.026704,485.97964,160.725393)"/>
<path style="fill-rule:nonzero;fill:rgb(55.294118%,82.745098%,78.039216%);fill-opacity:1;stroke-width:0.0224699;stroke-linecap:butt;stroke-linejoin:miter;stroke:rgb(60%,60%,60%);stroke-opacity:0.8;stroke-miterlimit:10;" d="M 0.112346 0.0000086842 C 0.112346 0.0620528 0.0620414 0.112358 -0.00000271428 0.112358 C -0.0620468 0.112358 -0.112352 0.0620528 -0.112352 0.0000086842 C -0.112352 -0.0620577 -0.0620468 -0.11234 -0.00000271428 -0.11234 C 0.0620414 -0.11234 0.112346 -0.0620577 0.112346 0.0000086842 Z M 0.112346 0.0000086842 " transform="matrix(175.026704,0,0,175.026704,464.477038,256.701605)"/>
<path style="fill-rule:nonzero;fill:rgb(55.294118%,82.745098%,78.039216%);fill-opacity:1;stroke-width:0.0224699;stroke-linecap:butt;stroke-linejoin:miter;stroke:rgb(60%,60%,60%);stroke-opacity:0.8;stroke-miterlimit:10;" d="M 0.112347 -0.000000696914 C 0.112347 0.0620434 0.0620419 0.112348 -0.00000218129 0.112348 C -0.0620463 0.112348 -0.112351 0.0620434 -0.112351 -0.000000696914 C -0.112351 -0.0620448 -0.0620463 -0.11235 -0.00000218129 -0.11235 C 0.0620419 -0.11235 0.112347 -0.0620448 0.112347 -0.000000696914 Z M 0.112347 -0.000000696914 " transform="matrix(175.026704,0,0,175.026704,550.406632,256.750122)"/>
<path style="fill-rule:nonzero;fill:rgb(55.294118%,82.745098%,78.039216%);fill-opacity:1;stroke-width:0.0224699;stroke-linecap:butt;stroke-linejoin:miter;stroke:rgb(60%,60%,60%);stroke-opacity:0.8;stroke-miterlimit:10;" d="M 0.112355 0.00000599858 C 0.112355 0.0620501 0.0620503 0.112355 0.00000615671 0.112355 C -0.0620379 0.112355 -0.112343 0.0620501 -0.112343 0.00000599858 C -0.112343 -0.0620381 -0.0620379 -0.112343 0.00000615671 -0.112343 C 0.0620503 -0.112343 0.112355 -0.0620381 0.112355 0.00000599858 Z M 0.112355 0.00000599858 " transform="matrix(175.026704,0,0,175.026704,321.780172,558.846606)"/>
<path style="fill-rule:nonzero;fill:rgb(55.294118%,82.745098%,78.039216%);fill-opacity:1;stroke-width:0.0224699;stroke-linecap:butt;stroke-linejoin:miter;stroke:rgb(60%,60%,60%);stroke-opacity:0.8;stroke-miterlimit:10;" d="M 0.112351 0.000010018 C 0.112351 0.0620541 0.0620459 0.112359 0.00000179833 0.112359 C -0.0620423 0.112359 -0.112347 0.0620541 -0.112347 0.000010018 C -0.112347 -0.0620564 -0.0620423 -0.112339 0.00000179833 -0.112339 C 0.0620459 -0.112339 0.112351 -0.0620564 0.112351 0.000010018 Z M 0.112351 0.000010018 " transform="matrix(175.026704,0,0,175.026704,271.964529,498.560747)"/>
<path style="fill-rule:nonzero;fill:rgb(55.294118%,82.745098%,78.039216%);fill-opacity:1;stroke-width:0.0224699;stroke-linecap:butt;stroke-linejoin:miter;stroke:rgb(60%,60%,60%);stroke-opacity:0.8;stroke-miterlimit:10;" d="M 0.112342 0.00000979918 C 0.112342 0.0620539 0.0620595 0.112359 -0.00000695879 0.112359 C -0.0620511 0.112359 -0.112356 0.0620539 -0.112356 0.00000979918 C -0.112356 -0.0620566 -0.0620511 -0.112339 -0.00000695879 -0.112339 C 0.0620595 -0.112339 0.112342 -0.0620566 0.112342 0.00000979918 Z M 0.112342 0.00000979918 " transform="matrix(175.026704,0,0,175.026704,467.091062,541.787347)"/>
<path style="fill-rule:nonzero;fill:rgb(55.294118%,82.745098%,78.039216%);fill-opacity:1;stroke-width:0.0224699;stroke-linecap:butt;stroke-linejoin:miter;stroke:rgb(60%,60%,60%);stroke-opacity:0.8;stroke-miterlimit:10;" d="M 0.112355 -0.0000109039 C 0.112355 0.0620555 0.0620499 0.11236 0.00000577608 0.11236 C -0.0620383 0.11236 -0.112343 0.0620555 -0.112343 -0.0000109039 C -0.112343 -0.062055 -0.0620383 -0.11236 0.00000577608 -0.11236 C 0.0620499 -0.11236 0.112355 -0.062055 0.112355 -0.0000109039 Z M 0.112355 -0.0000109039 " transform="matrix(175.026704,0,0,175.026704,311.534145,484.232377)"/>
<path style="fill-rule:nonzero;fill:rgb(55.294118%,82.745098%,78.039216%);fill-opacity:1;stroke-width:0.0224699;stroke-linecap:butt;stroke-linejoin:miter;stroke:rgb(60%,60%,60%);stroke-opacity:0.8;stroke-miterlimit:10;" d="M 0.112356 -0.00000305534 C 0.112356 0.062041 0.0620511 0.112346 0.00000696996 0.112346 C -0.0620595 0.112346 -0.112342 0.062041 -0.112342 -0.00000305534 C -0.112342 -0.0620472 -0.0620595 -0.112352 0.00000696996 -0.112352 C 0.0620511 -0.112352 0.112356 -0.0620472 0.112356 -0.00000305534 Z M 0.112356 -0.00000305534 " transform="matrix(175.026704,0,0,175.026704,386.783936,539.684129)"/>
</g>
</svg>
