<?xml version="1.0" encoding="UTF-8"?>
<svg xmlns="http://www.w3.org/2000/svg" xmlns:xlink="http://www.w3.org/1999/xlink" width="600pt" height="600pt" viewBox="0 0 600 600" version="1.1">
<defs>
<clipPath id="clip1">
  <path d="M 0 263 L 165 263 L 165 402 L 0 402 Z M 0 263 "/>
</clipPath>
<clipPath id="clip2">
  <path d="M -35.691406 151.957031 L 187.304688 151.957031 L 187.304688 513.449219 L -35.691406 513.449219 Z M -35.691406 151.957031 L 58.582031 348.738281 C 58.582031 359.070312 50.207031 367.445312 39.875 367.445312 C 29.546875 367.445312 21.171875 359.070312 21.171875 348.738281 C 21.171875 338.410156 29.546875 330.035156 39.875 330.035156 C 50.207031 330.035156 58.582031 338.410156 58.582031 348.738281 Z M -35.691406 151.957031 "/>
</clipPath>
<clipPath id="clip3">
  <path d="M -35.691406 151.957031 L 187.304688 151.957031 L 187.304688 513.449219 L -35.691406 513.449219 Z M -35.691406 151.957031 L 130.445312 316.671875 C 130.445312 327.003906 122.070312 335.378906 111.742188 335.378906 C 101.410156 335.378906 93.039062 327.003906 93.039062 316.671875 C 93.039062 306.34375 101.410156 297.96875 111.742188 297.96875 C 122.070312 297.96875 130.445312 306.34375 130.445312 316.671875 Z M -35.691406 151.957031 "/>
</clipPath>
<clipPath id="clip4">
  <path d="M 139 431 L 326 431 L 326 596 L 139 596 Z M 139 431 "/>
</clipPath>
<clipPath id="clip5">
  <path d="M 85.523438 337.417969 L 379.339844 337.417969 L 379.339844 688.941406 L 85.523438 688.941406 Z M 85.523438 337.417969 L 210.917969 542.121094 C 210.917969 552.453125 202.542969 560.828125 192.210938 560.828125 C 181.882812 560.828125 173.507812 552.453125 173.507812 542.121094 C 173.507812 531.792969 181.882812 523.417969 192.210938 523.417969 C 202.542969 523.417969 210.917969 531.792969 210.917969 542.121094 Z M 85.523438 337.417969 "/>
</clipPath>
<clipPath id="clip6">
  <path d="M 85.523438 337.417969 L 379.339844 337.417969 L 379.339844 688.941406 L 85.523438 688.941406 Z M 85.523438 337.417969 L 291.363281 484.242188 C 291.363281 494.574219 282.988281 502.949219 272.65625 502.949219 C 262.328125 502.949219 253.953125 494.574219 253.953125 484.242188 C 253.953125 473.914062 262.328125 465.539062 272.65625 465.539062 C 282.988281 465.539062 291.363281 473.914062 291.363281 484.242188 Z M 85.523438 337.417969 "/>
</clipPath>
<clipPath id="clip7">
  <path d="M 58 263 L 214 263 L 214 468 L 58 468 Z M 58 263 "/>
</clipPath>
<clipPath id="clip8">
  <path d="M -49.816406 234.414062 L 321.835938 234.414062 L 321.835938 496.488281 L -49.816406 496.488281 Z M -49.816406 234.414062 L 130.445312 316.671875 C 130.445312 327.003906 122.070312 335.378906 111.742188 335.378906 C 101.410156 335.378906 93.039062 327.003906 93.039062 316.671875 C 93.039062 306.34375 101.410156 297.96875 111.742188 297.96875 C 122.070312 297.96875 130.445312 306.34375 130.445312 316.671875 Z M -49.816406 234.414062 "/>
</clipPath>
<clipPath id="clip9">
  <path d="M -49.816406 234.414062 L 321.835938 234.414062 L 321.835938 496.488281 L -49.816406 496.488281 Z M -49.816406 234.414062 L 178.984375 414.234375 C 178.984375 424.5625 170.609375 432.9375 160.28125 432.9375 C 149.949219 432.9375 141.578125 424.5625 141.578125 414.234375 C 141.578125 403.902344 149.949219 395.53125 160.28125 395.53125 C 170.609375 395.53125 178.984375 403.902344 178.984375 414.234375 Z M -49.816406 234.414062 "/>
</clipPath>
<clipPath id="clip10">
  <path d="M 58 120 L 237 120 L 237 370 L 58 370 Z M 58 120 "/>
</clipPath>
<clipPath id="clip11">
  <path d="M -49.707031 91.183594 L 344.585938 91.183594 L 344.585938 399.148438 L -49.707031 399.148438 Z M -49.707031 91.183594 L 130.445312 316.671875 C 130.445312 327.003906 122.070312 335.378906 111.742188 335.378906 C 101.410156 335.378906 93.039062 327.003906 93.039062 316.671875 C 93.039062 306.34375 101.410156 297.96875 111.742188 297.96875 C 122.070312 297.96875 130.445312 306.34375 130.445312 316.671875 Z M -49.707031 91.183594 "/>
</clipPath>
<clipPath id="clip12">
  <path d="M -49.707031 91.183594 L 344.585938 91.183594 L 344.585938 399.148438 L -49.707031 399.148438 Z M -49.707031 91.183594 L 201.84375 173.664062 C 201.84375 183.992188 193.472656 192.367188 183.140625 192.367188 C 172.808594 192.367188 164.4375 183.992188 164.4375 173.664062 C 164.4375 163.332031 172.808594 154.957031 183.140625 154.957031 C 193.472656 154.957031 201.84375 163.332031 201.84375 173.664062 Z M -49.707031 91.183594 "/>
</clipPath>
<clipPath id="clip13">
  <path d="M 107 361 L 326 361 L 326 538 L 107 538 Z M 107 361 "/>
</clipPath>
<clipPath id="clip14">
  <path d="M 63.332031 260.882812 L 369.601562 260.882812 L 369.601562 637.589844 L 63.332031 637.589844 Z M 63.332031 260.882812 L 178.984375 414.234375 C 178.984375 424.5625 170.609375 432.9375 160.28125 432.9375 C 149.949219 432.9375 141.578125 424.5625 141.578125 414.234375 C 141.578125 403.902344 149.949219 395.53125 160.28125 395.53125 C 170.609375 395.53125 178.984375 403.902344 178.984375 414.234375 Z M 63.332031 260.882812 "/>
</clipPath>
<clipPath id="clip15">
  <path d="M 63.332031 260.882812 L 369.601562 260.882812 L 369.601562 637.589844 L 63.332031 637.589844 Z M 63.332031 260.882812 L 291.363281 484.242188 C 291.363281 494.574219 282.988281 502.949219 272.65625 502.949219 C 262.328125 502.949219 253.953125 494.574219 253.953125 484.242188 C 253.953125 473.914062 262.328125 465.539062 272.65625 465.539062 C 282.988281 465.539062 291.363281 473.914062 291.363281 484.242188 Z M 63.332031 260.882812 "/>
</clipPath>
<clipPath id="clip16">
  <path d="M 219 431 L 365 431 L 365 581 L 219 581 Z M 219 431 "/>
</clipPath>
<clipPath id="clip17">
  <path d="M 136.894531 363.703125 L 447.074219 363.703125 L 447.074219 648.476562 L 136.894531 648.476562 Z M 136.894531 363.703125 L 291.363281 484.242188 C 291.363281 494.574219 282.988281 502.949219 272.65625 502.949219 C 262.328125 502.949219 253.953125 494.574219 253.953125 484.242188 C 253.953125 473.914062 262.328125 465.539062 272.65625 465.539062 C 282.988281 465.539062 291.363281 473.914062 291.363281 484.242188 Z M 136.894531 363.703125 "/>
</clipPath>
<clipPath id="clip18">
  <path d="M 136.894531 363.703125 L 447.074219 363.703125 L 447.074219 648.476562 L 136.894531 648.476562 Z M 136.894531 363.703125 L 330.019531 527.941406 C 330.019531 538.273438 321.644531 546.644531 311.316406 546.644531 C 300.984375 546.644531 292.609375 538.273438 292.609375 527.941406 C 292.609375 517.613281 300.984375 509.238281 311.316406 509.238281 C 321.644531 509.238281 330.019531 517.613281 330.019531 527.941406 Z M 136.894531 363.703125 "/>
</clipPath>
<clipPath id="clip19">
  <path d="M 219 383 L 438 383 L 438 538 L 219 538 Z M 219 383 "/>
</clipPath>
<clipPath id="clip20">
  <path d="M 200.351562 270.730469 L 457.179688 270.730469 L 457.179688 650.367188 L 200.351562 650.367188 Z M 200.351562 270.730469 L 291.363281 484.242188 C 291.363281 494.574219 282.988281 502.949219 272.65625 502.949219 C 262.328125 502.949219 253.953125 494.574219 253.953125 484.242188 C 253.953125 473.914062 262.328125 465.539062 272.65625 465.539062 C 282.988281 465.539062 291.363281 473.914062 291.363281 484.242188 Z M 200.351562 270.730469 "/>
</clipPath>
<clipPath id="clip21">
  <path d="M 200.351562 270.730469 L 457.179688 270.730469 L 457.179688 650.367188 L 200.351562 650.367188 Z M 200.351562 270.730469 L 403.582031 436.859375 C 403.582031 447.1875 395.207031 455.5625 384.878906 455.5625 C 374.546875 455.5625 366.171875 447.1875 366.171875 436.859375 C 366.171875 426.527344 374.546875 418.152344 384.878906 418.152344 C 395.207031 418.152344 403.582031 426.527344 403.582031 436.859375 Z M 200.351562 270.730469 "/>
</clipPath>
<clipPath id="clip22">
  <path d="M 266.972656 431 L 386.09375 431 L 386.09375 539 L 266.972656 539 Z M 266.972656 431 "/>
</clipPath>
<clipPath id="clip23">
  <path d="M 266.972656 304.242188 L 386.09375 304.242188 L 386.09375 665.425781 L 266.972656 665.425781 Z M 266.972656 304.242188 L 291.363281 484.242188 C 291.363281 494.574219 282.988281 502.949219 272.65625 502.949219 C 262.328125 502.949219 253.953125 494.574219 253.953125 484.242188 C 253.953125 473.914062 262.328125 465.539062 272.65625 465.539062 C 282.988281 465.539062 291.363281 473.914062 291.363281 484.242188 Z M 266.972656 304.242188 "/>
</clipPath>
<clipPath id="clip24">
  <path d="M 266.972656 304.242188 L 386.09375 304.242188 L 386.09375 665.425781 L 266.972656 665.425781 Z M 266.972656 304.242188 L 399.117188 485.429688 C 399.117188 495.761719 390.742188 504.136719 380.414062 504.136719 C 370.082031 504.136719 361.710938 495.761719 361.710938 485.429688 C 361.710938 475.101562 370.082031 466.726562 380.414062 466.726562 C 390.742188 466.726562 399.117188 475.101562 399.117188 485.429688 Z M 266.972656 304.242188 "/>
</clipPath>
<clipPath id="clip25">
  <path d="M 258 432 L 434 432 L 434 581 L 258 581 Z M 258 432 "/>
</clipPath>
<clipPath id="clip26">
  <path d="M 215.207031 331.558594 L 476.519531 331.558594 L 476.519531 681.808594 L 215.207031 681.808594 Z M 215.207031 331.558594 L 330.019531 527.941406 C 330.019531 538.273438 321.644531 546.644531 311.316406 546.644531 C 300.984375 546.644531 292.609375 538.273438 292.609375 527.941406 C 292.609375 517.613281 300.984375 509.238281 311.316406 509.238281 C 321.644531 509.238281 330.019531 517.613281 330.019531 527.941406 Z M 215.207031 331.558594 "/>
</clipPath>
<clipPath id="clip27">
  <path d="M 215.207031 331.558594 L 476.519531 331.558594 L 476.519531 681.808594 L 215.207031 681.808594 Z M 215.207031 331.558594 L 399.117188 485.429688 C 399.117188 495.761719 390.742188 504.136719 380.414062 504.136719 C 370.082031 504.136719 361.710938 495.761719 361.710938 485.429688 C 361.710938 475.101562 370.082031 466.726562 380.414062 466.726562 C 390.742188 466.726562 399.117188 475.101562 399.117188 485.429688 Z M 215.207031 331.558594 "/>
</clipPath>
<clipPath id="clip28">
  <path d="M 331 324 L 540 324 L 540 490 L 331 490 Z M 331 324 "/>
</clipPath>
<clipPath id="clip29">
  <path d="M 292.375 221.625 L 578.957031 221.625 L 578.957031 592.886719 L 292.375 592.886719 Z M 292.375 221.625 L 505.160156 377.65625 C 505.160156 387.984375 496.785156 396.359375 486.457031 396.359375 C 476.125 396.359375 467.75 387.984375 467.75 377.65625 C 467.75 367.324219 476.125 358.953125 486.457031 358.953125 C 496.785156 358.953125 505.160156 367.324219 505.160156 377.65625 Z M 292.375 221.625 "/>
</clipPath>
<clipPath id="clip30">
  <path d="M 292.375 221.625 L 578.957031 221.625 L 578.957031 592.886719 L 292.375 592.886719 Z M 292.375 221.625 L 403.582031 436.859375 C 403.582031 447.1875 395.207031 455.5625 384.878906 455.5625 C 374.546875 455.5625 366.171875 447.1875 366.171875 436.859375 C 366.171875 426.527344 374.546875 418.152344 384.878906 418.152344 C 395.207031 418.152344 403.582031 426.527344 403.582031 436.859375 Z M 292.375 221.625 "/>
</clipPath>
<clipPath id="clip31">
  <path d="M 327 324 L 540 324 L 540 539 L 327 539 Z M 327 324 "/>
</clipPath>
<clipPath id="clip32">
  <path d="M 251.027344 250.285156 L 615.839844 250.285156 L 615.839844 612.796875 L 251.027344 612.796875 Z M 251.027344 250.285156 L 505.160156 377.65625 C 505.160156 387.984375 496.785156 396.359375 486.457031 396.359375 C 476.125 396.359375 467.75 387.984375 467.75 377.65625 C 467.75 367.324219 476.125 358.953125 486.457031 358.953125 C 496.785156 358.953125 505.160156 367.324219 505.160156 377.65625 Z M 251.027344 250.285156 "/>
</clipPath>
<clipPath id="clip33">
  <path d="M 251.027344 250.285156 L 615.839844 250.285156 L 615.839844 612.796875 L 251.027344 612.796875 Z M 251.027344 250.285156 L 399.117188 485.429688 C 399.117188 495.761719 390.742188 504.136719 380.414062 504.136719 C 370.082031 504.136719 361.710938 495.761719 361.710938 485.429688 C 361.710938 475.101562 370.082031 466.726562 380.414062 466.726562 C 390.742188 466.726562 399.117188 475.101562 399.117188 485.429688 Z M 251.027344 250.285156 "/>
</clipPath>
<clipPath id="clip34">
  <path d="M 433 192 L 591 192 L 591 431 L 433 431 Z M 433 192 "/>
</clipPath>
<clipPath id="clip35">
  <path d="M 318.109375 178.308594 L 705.574219 178.308594 L 705.574219 444.445312 L 318.109375 444.445312 Z M 318.109375 178.308594 L 505.160156 377.65625 C 505.160156 387.984375 496.785156 396.359375 486.457031 396.359375 C 476.125 396.359375 467.75 387.984375 467.75 377.65625 C 467.75 367.324219 476.125 358.953125 486.457031 358.953125 C 496.785156 358.953125 505.160156 367.324219 505.160156 377.65625 Z M 318.109375 178.308594 "/>
</clipPath>
<clipPath id="clip36">
  <path d="M 318.109375 178.308594 L 705.574219 178.308594 L 705.574219 444.445312 L 318.109375 444.445312 Z M 318.109375 178.308594 L 555.933594 245.101562 C 555.933594 255.429688 547.5625 263.804688 537.230469 263.804688 C 526.898438 263.804688 518.527344 255.429688 518.527344 245.101562 C 518.527344 234.769531 526.898438 226.394531 537.230469 226.394531 C 547.5625 226.394531 555.933594 234.769531 555.933594 245.101562 Z M 318.109375 178.308594 "/>
</clipPath>
<clipPath id="clip37">
  <path d="M 433 281 L 600 281 L 600 431 L 433 431 Z M 433 281 "/>
</clipPath>
<clipPath id="clip38">
  <path d="M 383.214844 185.101562 L 653.03125 185.101562 L 653.03125 526.894531 L 383.214844 526.894531 Z M 383.214844 185.101562 L 505.160156 377.65625 C 505.160156 387.984375 496.785156 396.359375 486.457031 396.359375 C 476.125 396.359375 467.75 387.984375 467.75 377.65625 C 467.75 367.324219 476.125 358.953125 486.457031 358.953125 C 496.785156 358.953125 505.160156 367.324219 505.160156 377.65625 Z M 383.214844 185.101562 "/>
</clipPath>
<clipPath id="clip39">
  <path d="M 383.214844 185.101562 L 653.03125 185.101562 L 653.03125 526.894531 L 383.214844 526.894531 Z M 383.214844 185.101562 L 568.496094 334.34375 C 568.496094 344.675781 560.125 353.046875 549.792969 353.046875 C 539.464844 353.046875 531.089844 344.675781 531.089844 334.34375 C 531.089844 324.015625 539.464844 315.640625 549.792969 315.640625 C 560.125 315.640625 568.496094 324.015625 568.496094 334.34375 Z M 383.214844 185.101562 "/>
</clipPath>
<clipPath id="clip40">
  <path d="M 433 324 L 600 324 L 600 458 L 433 458 Z M 433 324 "/>
</clipPath>
<clipPath id="clip41">
  <path d="M 422.589844 208.214844 L 623.988281 208.214844 L 623.988281 573.824219 L 422.589844 573.824219 Z M 422.589844 208.214844 L 505.160156 377.65625 C 505.160156 387.984375 496.785156 396.359375 486.457031 396.359375 C 476.125 396.359375 467.75 387.984375 467.75 377.65625 C 467.75 367.324219 476.125 358.953125 486.457031 358.953125 C 496.785156 358.953125 505.160156 367.324219 505.160156 377.65625 Z M 422.589844 208.214844 "/>
</clipPath>
<clipPath id="clip42">
  <path d="M 422.589844 208.214844 L 623.988281 208.214844 L 623.988281 573.824219 L 422.589844 573.824219 Z M 422.589844 208.214844 L 578.828125 404.386719 C 578.828125 414.71875 570.453125 423.09375 560.125 423.09375 C 549.792969 423.09375 541.417969 414.71875 541.417969 404.386719 C 541.417969 394.058594 549.792969 385.683594 560.125 385.683594 C 570.453125 385.683594 578.828125 394.058594 578.828125 404.386719 Z M 422.589844 208.214844 "/>
</clipPath>
<clipPath id="clip43">
  <path d="M 327 416.980469 L 438 416.980469 L 438 505.304688 L 327 505.304688 Z M 327 416.980469 "/>
</clipPath>
<clipPath id="clip44">
  <path d="M 201.144531 416.980469 L 564.144531 416.980469 L 564.144531 505.304688 L 201.144531 505.304688 Z M 201.144531 416.980469 L 403.582031 436.859375 C 403.582031 447.1875 395.207031 455.5625 384.878906 455.5625 C 374.546875 455.5625 366.171875 447.1875 366.171875 436.859375 C 366.171875 426.527344 374.546875 418.152344 384.878906 418.152344 C 395.207031 418.152344 403.582031 426.527344 403.582031 436.859375 Z M 201.144531 416.980469 "/>
</clipPath>
<clipPath id="clip45">
  <path d="M 201.144531 416.980469 L 564.144531 416.980469 L 564.144531 505.304688 L 201.144531 505.304688 Z M 201.144531 416.980469 L 399.117188 485.429688 C 399.117188 495.761719 390.742188 504.136719 380.414062 504.136719 C 370.082031 504.136719 361.710938 495.761719 361.710938 485.429688 C 361.710938 475.101562 370.082031 466.726562 380.414062 466.726562 C 390.742188 466.726562 399.117188 475.101562 399.117188 485.429688 Z M 201.144531 416.980469 "/>
</clipPath>
<clipPath id="clip46">
  <path d="M 327 432 L 476 432 L 476 600 L 327 600 Z M 327 432 "/>
</clipPath>
<clipPath id="clip47">
  <path d="M 223.707031 394.089844 L 579.664062 394.089844 L 579.664062 651.0625 L 223.707031 651.0625 Z M 223.707031 394.089844 L 441.667969 559.726562 C 441.667969 570.054688 433.292969 578.429688 422.960938 578.429688 C 412.632812 578.429688 404.257812 570.054688 404.257812 559.726562 C 404.257812 549.394531 412.632812 541.019531 422.960938 541.019531 C 433.292969 541.019531 441.667969 549.394531 441.667969 559.726562 Z M 223.707031 394.089844 "/>
</clipPath>
<clipPath id="clip48">
  <path d="M 223.707031 394.089844 L 579.664062 394.089844 L 579.664062 651.0625 L 223.707031 651.0625 Z M 223.707031 394.089844 L 399.117188 485.429688 C 399.117188 495.761719 390.742188 504.136719 380.414062 504.136719 C 370.082031 504.136719 361.710938 495.761719 361.710938 485.429688 C 361.710938 475.101562 370.082031 466.726562 380.414062 466.726562 C 390.742188 466.726562 399.117188 475.101562 399.117188 485.429688 Z M 223.707031 394.089844 "/>
</clipPath>
<clipPath id="clip49">
  <path d="M 484 121 L 600 121 L 600 299 L 484 299 Z M 484 121 "/>
</clipPath>
<clipPath id="clip50">
  <path d="M 365.679688 116.511719 L 731.570312 116.511719 L 731.570312 302.789062 L 365.679688 302.789062 Z M 365.679688 116.511719 L 578.726562 174.203125 C 578.726562 184.535156 570.351562 192.90625 560.023438 192.90625 C 549.691406 192.90625 541.316406 184.535156 541.316406 174.203125 C 541.316406 163.875 549.691406 155.5 560.023438 155.5 C 570.351562 155.5 578.726562 163.875 578.726562 174.203125 Z M 365.679688 116.511719 "/>
</clipPath>
<clipPath id="clip51">
  <path d="M 365.679688 116.511719 L 731.570312 116.511719 L 731.570312 302.789062 L 365.679688 302.789062 Z M 365.679688 116.511719 L 555.933594 245.101562 C 555.933594 255.429688 547.5625 263.804688 537.230469 263.804688 C 526.898438 263.804688 518.527344 255.429688 518.527344 245.101562 C 518.527344 234.769531 526.898438 226.394531 537.230469 226.394531 C 547.5625 226.394531 555.933594 234.769531 555.933594 245.101562 Z M 365.679688 116.511719 "/>
</clipPath>
<clipPath id="clip52">
  <path d="M 170 0 L 360 0 L 360 155 L 170 155 Z M 170 0 "/>
</clipPath>
<clipPath id="clip53">
  <path d="M 115.421875 -105.972656 L 413.992188 -105.972656 L 413.992188 247.375 L 115.421875 247.375 Z M 115.421875 -105.972656 L 325.210938 40.273438 C 325.210938 50.605469 316.835938 58.980469 306.507812 58.980469 C 296.175781 58.980469 287.800781 50.605469 287.800781 40.273438 C 287.800781 29.945312 296.175781 21.570312 306.507812 21.570312 C 316.835938 21.570312 325.210938 29.945312 325.210938 40.273438 Z M 115.421875 -105.972656 "/>
</clipPath>
<clipPath id="clip54">
  <path d="M 115.421875 -105.972656 L 413.992188 -105.972656 L 413.992188 247.375 L 115.421875 247.375 Z M 115.421875 -105.972656 L 241.617188 101.132812 C 241.617188 111.464844 233.242188 119.839844 222.910156 119.839844 C 212.582031 119.839844 204.207031 111.464844 204.207031 101.132812 C 204.207031 90.804688 212.582031 82.429688 222.910156 82.429688 C 233.242188 82.429688 241.617188 90.804688 241.617188 101.132812 Z M 115.421875 -105.972656 "/>
</clipPath>
<clipPath id="clip55">
  <path d="M 253 0 L 398 0 L 398 109 L 253 109 Z M 253 0 "/>
</clipPath>
<clipPath id="clip56">
  <path d="M 236.230469 -126.699219 L 414.921875 -126.699219 L 414.921875 222.789062 L 236.230469 222.789062 Z M 236.230469 -126.699219 L 325.210938 40.273438 C 325.210938 50.605469 316.835938 58.980469 306.507812 58.980469 C 296.175781 58.980469 287.800781 50.605469 287.800781 40.273438 C 287.800781 29.945312 296.175781 21.570312 306.507812 21.570312 C 316.835938 21.570312 325.210938 29.945312 325.210938 40.273438 Z M 236.230469 -126.699219 "/>
</clipPath>
<clipPath id="clip57">
  <path d="M 236.230469 -126.699219 L 414.921875 -126.699219 L 414.921875 222.789062 L 236.230469 222.789062 Z M 236.230469 -126.699219 L 363.351562 55.820312 C 363.351562 66.148438 354.976562 74.523438 344.648438 74.523438 C 334.316406 74.523438 325.941406 66.148438 325.941406 55.820312 C 325.941406 45.488281 334.316406 37.113281 344.648438 37.113281 C 354.976562 37.113281 363.351562 45.488281 363.351562 55.820312 Z M 236.230469 -126.699219 "/>
</clipPath>
<clipPath id="clip58">
  <path d="M 194.910156 48 L 298.253906 48 L 298.253906 161 L 194.910156 161 Z M 194.910156 48 "/>
</clipPath>
<clipPath id="clip59">
  <path d="M 194.910156 -77.203125 L 298.253906 -77.203125 L 298.253906 286.042969 L 194.910156 286.042969 Z M 194.910156 -77.203125 L 241.617188 101.132812 C 241.617188 111.464844 233.242188 119.839844 222.910156 119.839844 C 212.582031 119.839844 204.207031 111.464844 204.207031 101.132812 C 204.207031 90.804688 212.582031 82.429688 222.910156 82.429688 C 233.242188 82.429688 241.617188 90.804688 241.617188 101.132812 Z M 194.910156 -77.203125 "/>
</clipPath>
<clipPath id="clip60">
  <path d="M 194.910156 -77.203125 L 298.253906 -77.203125 L 298.253906 286.042969 L 194.910156 286.042969 Z M 194.910156 -77.203125 L 288.960938 107.710938 C 288.960938 118.042969 280.589844 126.417969 270.257812 126.417969 C 259.929688 126.417969 251.554688 118.042969 251.554688 107.710938 C 251.554688 97.382812 259.929688 89.007812 270.257812 89.007812 C 280.589844 89.007812 288.960938 97.382812 288.960938 107.710938 Z M 194.910156 -77.203125 "/>
</clipPath>
<clipPath id="clip61">
  <path d="M 86 48 L 276 48 L 276 181 L 86 181 Z M 86 48 "/>
</clipPath>
<clipPath id="clip62">
  <path d="M 81.570312 -70.355469 L 280.796875 -70.355469 L 280.796875 299.554688 L 81.570312 299.554688 Z M 81.570312 -70.355469 L 241.617188 101.132812 C 241.617188 111.464844 233.242188 119.839844 222.910156 119.839844 C 212.582031 119.839844 204.207031 111.464844 204.207031 101.132812 C 204.207031 90.804688 212.582031 82.429688 222.910156 82.429688 C 233.242188 82.429688 241.617188 90.804688 241.617188 101.132812 Z M 81.570312 -70.355469 "/>
</clipPath>
<clipPath id="clip63">
  <path d="M 81.570312 -70.355469 L 280.796875 -70.355469 L 280.796875 299.554688 L 81.570312 299.554688 Z M 81.570312 -70.355469 L 158.164062 128.070312 C 158.164062 138.402344 149.789062 146.773438 139.460938 146.773438 C 129.128906 146.773438 120.757812 138.402344 120.757812 128.070312 C 120.757812 117.742188 129.128906 109.367188 139.460938 109.367188 C 149.789062 109.367188 158.164062 117.742188 158.164062 128.070312 Z M 81.570312 -70.355469 "/>
</clipPath>
<clipPath id="clip64">
  <path d="M 130 48 L 276 48 L 276 227 L 130 227 Z M 130 48 "/>
</clipPath>
<clipPath id="clip65">
  <path d="M 24.839844 12.644531 L 381.207031 12.644531 L 381.207031 262.148438 L 24.839844 262.148438 Z M 24.839844 12.644531 L 241.617188 101.132812 C 241.617188 111.464844 233.242188 119.839844 222.910156 119.839844 C 212.582031 119.839844 204.207031 111.464844 204.207031 101.132812 C 204.207031 90.804688 212.582031 82.429688 222.910156 82.429688 C 233.242188 82.429688 241.617188 90.804688 241.617188 101.132812 Z M 24.839844 12.644531 "/>
</clipPath>
<clipPath id="clip66">
  <path d="M 24.839844 12.644531 L 381.207031 12.644531 L 381.207031 262.148438 L 24.839844 262.148438 Z M 24.839844 12.644531 L 201.84375 173.664062 C 201.84375 183.992188 193.472656 192.367188 183.140625 192.367188 C 172.808594 192.367188 164.4375 183.992188 164.4375 173.664062 C 164.4375 163.332031 172.808594 154.957031 183.140625 154.957031 C 193.472656 154.957031 201.84375 163.332031 201.84375 173.664062 Z M 24.839844 12.644531 "/>
</clipPath>
<clipPath id="clip67">
  <path d="M 217 2 L 398 2 L 398 161 L 217 161 Z M 217 2 "/>
</clipPath>
<clipPath id="clip68">
  <path d="M 165.671875 -92.492188 L 449.230469 -92.492188 L 449.230469 256.019531 L 165.671875 256.019531 Z M 165.671875 -92.492188 L 363.351562 55.820312 C 363.351562 66.148438 354.976562 74.523438 344.648438 74.523438 C 334.316406 74.523438 325.941406 66.148438 325.941406 55.820312 C 325.941406 45.488281 334.316406 37.113281 344.648438 37.113281 C 354.976562 37.113281 363.351562 45.488281 363.351562 55.820312 Z M 165.671875 -92.492188 "/>
</clipPath>
<clipPath id="clip69">
  <path d="M 165.671875 -92.492188 L 449.230469 -92.492188 L 449.230469 256.019531 L 165.671875 256.019531 Z M 165.671875 -92.492188 L 288.960938 107.710938 C 288.960938 118.042969 280.589844 126.417969 270.257812 126.417969 C 259.929688 126.417969 251.554688 118.042969 251.554688 107.710938 C 251.554688 97.382812 259.929688 89.007812 270.257812 89.007812 C 280.589844 89.007812 288.960938 97.382812 288.960938 107.710938 Z M 165.671875 -92.492188 "/>
</clipPath>
<clipPath id="clip70">
  <path d="M 130 54 L 324 54 L 324 227 L 130 227 Z M 130 54 "/>
</clipPath>
<clipPath id="clip71">
  <path d="M 73.003906 -36.570312 L 380.390625 -36.570312 L 380.390625 317.941406 L 73.003906 317.941406 Z M 73.003906 -36.570312 L 288.960938 107.710938 C 288.960938 118.042969 280.589844 126.417969 270.257812 126.417969 C 259.929688 126.417969 251.554688 118.042969 251.554688 107.710938 C 251.554688 97.382812 259.929688 89.007812 270.257812 89.007812 C 280.589844 89.007812 288.960938 97.382812 288.960938 107.710938 Z M 73.003906 -36.570312 "/>
</clipPath>
<clipPath id="clip72">
  <path d="M 73.003906 -36.570312 L 380.390625 -36.570312 L 380.390625 317.941406 L 73.003906 317.941406 Z M 73.003906 -36.570312 L 201.84375 173.664062 C 201.84375 183.992188 193.472656 192.367188 183.140625 192.367188 C 172.808594 192.367188 164.4375 183.992188 164.4375 173.664062 C 164.4375 163.332031 172.808594 154.957031 183.140625 154.957031 C 193.472656 154.957031 201.84375 163.332031 201.84375 173.664062 Z M 73.003906 -36.570312 "/>
</clipPath>
<clipPath id="clip73">
  <path d="M 49.832031 75 L 156.808594 75 L 156.808594 187 L 49.832031 187 Z M 49.832031 75 "/>
</clipPath>
<clipPath id="clip74">
  <path d="M 49.832031 -51.414062 L 156.808594 -51.414062 L 156.808594 313.148438 L 49.832031 313.148438 Z M 49.832031 -51.414062 L 85.890625 133.667969 C 85.890625 144 77.515625 152.371094 67.183594 152.371094 C 56.855469 152.371094 48.480469 144 48.480469 133.667969 C 48.480469 123.339844 56.855469 114.964844 67.183594 114.964844 C 77.515625 114.964844 85.890625 123.339844 85.890625 133.667969 Z M 49.832031 -51.414062 "/>
</clipPath>
<clipPath id="clip75">
  <path d="M 49.832031 -51.414062 L 156.808594 -51.414062 L 156.808594 313.148438 L 49.832031 313.148438 Z M 49.832031 -51.414062 L 158.164062 128.070312 C 158.164062 138.402344 149.789062 146.773438 139.460938 146.773438 C 129.128906 146.773438 120.757812 138.402344 120.757812 128.070312 C 120.757812 117.742188 129.128906 109.367188 139.460938 109.367188 C 149.789062 109.367188 158.164062 117.742188 158.164062 128.070312 Z M 49.832031 -51.414062 "/>
</clipPath>
<clipPath id="clip76">
  <path d="M 86 75 L 237 75 L 237 227 L 86 227 Z M 86 75 "/>
</clipPath>
<clipPath id="clip77">
  <path d="M 8.433594 2.386719 L 314.164062 2.386719 L 314.164062 299.34375 L 8.433594 299.34375 Z M 8.433594 2.386719 L 158.164062 128.070312 C 158.164062 138.402344 149.789062 146.773438 139.460938 146.773438 C 129.128906 146.773438 120.757812 138.402344 120.757812 128.070312 C 120.757812 117.742188 129.128906 109.367188 139.460938 109.367188 C 149.789062 109.367188 158.164062 117.742188 158.164062 128.070312 Z M 8.433594 2.386719 "/>
</clipPath>
<clipPath id="clip78">
  <path d="M 8.433594 2.386719 L 314.164062 2.386719 L 314.164062 299.34375 L 8.433594 299.34375 Z M 8.433594 2.386719 L 201.84375 173.664062 C 201.84375 183.992188 193.472656 192.367188 183.140625 192.367188 C 172.808594 192.367188 164.4375 183.992188 164.4375 173.664062 C 164.4375 163.332031 172.808594 154.957031 183.140625 154.957031 C 193.472656 154.957031 201.84375 163.332031 201.84375 173.664062 Z M 8.433594 2.386719 "/>
</clipPath>
</defs>
<g id="surface36">
<g clip-path="url(#clip1)" clip-rule="nonzero">
<g clip-path="url(#clip2)" clip-rule="evenodd">
<g clip-path="url(#clip3)" clip-rule="evenodd">
<path style="fill:none;stroke-width:0.0212226;stroke-linecap:butt;stroke-linejoin:miter;stroke:rgb(17.96875%,20.3125%,21.09375%);stroke-opacity:0.8;stroke-miterlimit:10;" d="M 1.123371 2.219414 L 1.531085 2.037496 " transform="matrix(176.268816,0,0,176.268816,-158.14028,-42.475191)"/>
</g>
</g>
</g>
<g clip-path="url(#clip4)" clip-rule="nonzero">
<g clip-path="url(#clip5)" clip-rule="evenodd">
<g clip-path="url(#clip6)" clip-rule="evenodd">
<path style="fill:none;stroke-width:0.0212226;stroke-linecap:butt;stroke-linejoin:miter;stroke:rgb(17.96875%,20.3125%,21.09375%);stroke-opacity:0.8;stroke-miterlimit:10;" d="M 1.987596 3.316504 L 2.443975 2.988148 " transform="matrix(176.268816,0,0,176.268816,-158.14028,-42.475191)"/>
</g>
</g>
</g>
<g clip-path="url(#clip7)" clip-rule="nonzero">
<g clip-path="url(#clip8)" clip-rule="evenodd">
<g clip-path="url(#clip9)" clip-rule="evenodd">
<path style="fill:none;stroke-width:0.0212226;stroke-linecap:butt;stroke-linejoin:miter;stroke:rgb(17.96875%,20.3125%,21.09375%);stroke-opacity:0.8;stroke-miterlimit:10;" d="M 1.531085 2.037496 L 1.806454 2.590983 " transform="matrix(176.268816,0,0,176.268816,-158.14028,-42.475191)"/>
</g>
</g>
</g>
<g clip-path="url(#clip10)" clip-rule="nonzero">
<g clip-path="url(#clip11)" clip-rule="evenodd">
<g clip-path="url(#clip12)" clip-rule="evenodd">
<path style="fill:none;stroke-width:0.0212226;stroke-linecap:butt;stroke-linejoin:miter;stroke:rgb(17.96875%,20.3125%,21.09375%);stroke-opacity:0.8;stroke-miterlimit:10;" d="M 1.531085 2.037496 L 1.936139 1.226191 " transform="matrix(176.268816,0,0,176.268816,-158.14028,-42.475191)"/>
</g>
</g>
</g>
<g clip-path="url(#clip13)" clip-rule="nonzero">
<g clip-path="url(#clip14)" clip-rule="evenodd">
<g clip-path="url(#clip15)" clip-rule="evenodd">
<path style="fill:none;stroke-width:0.0212226;stroke-linecap:butt;stroke-linejoin:miter;stroke:rgb(17.96875%,20.3125%,21.09375%);stroke-opacity:0.8;stroke-miterlimit:10;" d="M 1.806454 2.590983 L 2.443975 2.988148 " transform="matrix(176.268816,0,0,176.268816,-158.14028,-42.475191)"/>
</g>
</g>
</g>
<g clip-path="url(#clip16)" clip-rule="nonzero">
<g clip-path="url(#clip17)" clip-rule="evenodd">
<g clip-path="url(#clip18)" clip-rule="evenodd">
<path style="fill:none;stroke-width:0.0212226;stroke-linecap:butt;stroke-linejoin:miter;stroke:rgb(17.96875%,20.3125%,21.09375%);stroke-opacity:0.8;stroke-miterlimit:10;" d="M 2.443975 2.988148 L 2.6633 3.236061 " transform="matrix(176.268816,0,0,176.268816,-158.14028,-42.475191)"/>
</g>
</g>
</g>
<g clip-path="url(#clip19)" clip-rule="nonzero">
<g clip-path="url(#clip20)" clip-rule="evenodd">
<g clip-path="url(#clip21)" clip-rule="evenodd">
<path style="fill:none;stroke-width:0.0212226;stroke-linecap:butt;stroke-linejoin:miter;stroke:rgb(17.96875%,20.3125%,21.09375%);stroke-opacity:0.8;stroke-miterlimit:10;" d="M 2.443975 2.988148 L 3.080631 2.719338 " transform="matrix(176.268816,0,0,176.268816,-158.14028,-42.475191)"/>
</g>
</g>
</g>
<g clip-path="url(#clip22)" clip-rule="nonzero">
<g clip-path="url(#clip23)" clip-rule="evenodd">
<g clip-path="url(#clip24)" clip-rule="evenodd">
<path style="fill:none;stroke-width:0.0212226;stroke-linecap:butt;stroke-linejoin:miter;stroke:rgb(17.96875%,20.3125%,21.09375%);stroke-opacity:0.8;stroke-miterlimit:10;" d="M 2.443975 2.988148 L 3.055301 2.994885 " transform="matrix(176.268816,0,0,176.268816,-158.14028,-42.475191)"/>
</g>
</g>
</g>
<g clip-path="url(#clip25)" clip-rule="nonzero">
<g clip-path="url(#clip26)" clip-rule="evenodd">
<g clip-path="url(#clip27)" clip-rule="evenodd">
<path style="fill:none;stroke-width:0.0212226;stroke-linecap:butt;stroke-linejoin:miter;stroke:rgb(17.96875%,20.3125%,21.09375%);stroke-opacity:0.8;stroke-miterlimit:10;" d="M 2.6633 3.236061 L 3.055301 2.994885 " transform="matrix(176.268816,0,0,176.268816,-158.14028,-42.475191)"/>
</g>
</g>
</g>
<g clip-path="url(#clip28)" clip-rule="nonzero">
<g clip-path="url(#clip29)" clip-rule="evenodd">
<g clip-path="url(#clip30)" clip-rule="evenodd">
<path style="fill:none;stroke-width:0.0212226;stroke-linecap:butt;stroke-linejoin:miter;stroke:rgb(17.96875%,20.3125%,21.09375%);stroke-opacity:0.8;stroke-miterlimit:10;" d="M 3.656899 2.38347 L 3.080631 2.719338 " transform="matrix(176.268816,0,0,176.268816,-158.14028,-42.475191)"/>
</g>
</g>
</g>
<g clip-path="url(#clip31)" clip-rule="nonzero">
<g clip-path="url(#clip32)" clip-rule="evenodd">
<g clip-path="url(#clip33)" clip-rule="evenodd">
<path style="fill:none;stroke-width:0.0212226;stroke-linecap:butt;stroke-linejoin:miter;stroke:rgb(17.96875%,20.3125%,21.09375%);stroke-opacity:0.8;stroke-miterlimit:10;" d="M 3.656899 2.38347 L 3.055301 2.994885 " transform="matrix(176.268816,0,0,176.268816,-158.14028,-42.475191)"/>
</g>
</g>
</g>
<g clip-path="url(#clip34)" clip-rule="nonzero">
<g clip-path="url(#clip35)" clip-rule="evenodd">
<g clip-path="url(#clip36)" clip-rule="evenodd">
<path style="fill:none;stroke-width:0.0212226;stroke-linecap:butt;stroke-linejoin:miter;stroke:rgb(17.96875%,20.3125%,21.09375%);stroke-opacity:0.8;stroke-miterlimit:10;" d="M 3.656899 2.38347 L 3.944945 1.631467 " transform="matrix(176.268816,0,0,176.268816,-158.14028,-42.475191)"/>
</g>
</g>
</g>
<g clip-path="url(#clip37)" clip-rule="nonzero">
<g clip-path="url(#clip38)" clip-rule="evenodd">
<g clip-path="url(#clip39)" clip-rule="evenodd">
<path style="fill:none;stroke-width:0.0212226;stroke-linecap:butt;stroke-linejoin:miter;stroke:rgb(17.96875%,20.3125%,21.09375%);stroke-opacity:0.8;stroke-miterlimit:10;" d="M 3.656899 2.38347 L 4.016214 2.137752 " transform="matrix(176.268816,0,0,176.268816,-158.14028,-42.475191)"/>
</g>
</g>
</g>
<g clip-path="url(#clip40)" clip-rule="nonzero">
<g clip-path="url(#clip41)" clip-rule="evenodd">
<g clip-path="url(#clip42)" clip-rule="evenodd">
<path style="fill:none;stroke-width:0.0212226;stroke-linecap:butt;stroke-linejoin:miter;stroke:rgb(17.96875%,20.3125%,21.09375%);stroke-opacity:0.8;stroke-miterlimit:10;" d="M 3.656899 2.38347 L 4.074829 2.535116 " transform="matrix(176.268816,0,0,176.268816,-158.14028,-42.475191)"/>
</g>
</g>
</g>
<g clip-path="url(#clip43)" clip-rule="nonzero">
<g clip-path="url(#clip44)" clip-rule="evenodd">
<g clip-path="url(#clip45)" clip-rule="evenodd">
<path style="fill:none;stroke-width:0.0212226;stroke-linecap:butt;stroke-linejoin:miter;stroke:rgb(17.96875%,20.3125%,21.09375%);stroke-opacity:0.8;stroke-miterlimit:10;" d="M 3.080631 2.719338 L 3.055301 2.994885 " transform="matrix(176.268816,0,0,176.268816,-158.14028,-42.475191)"/>
</g>
</g>
</g>
<g clip-path="url(#clip46)" clip-rule="nonzero">
<g clip-path="url(#clip47)" clip-rule="evenodd">
<g clip-path="url(#clip48)" clip-rule="evenodd">
<path style="fill:none;stroke-width:0.0212226;stroke-linecap:butt;stroke-linejoin:miter;stroke:rgb(17.96875%,20.3125%,21.09375%);stroke-opacity:0.8;stroke-miterlimit:10;" d="M 3.296676 3.416383 L 3.055301 2.994885 " transform="matrix(176.268816,0,0,176.268816,-158.14028,-42.475191)"/>
</g>
</g>
</g>
<g clip-path="url(#clip49)" clip-rule="nonzero">
<g clip-path="url(#clip50)" clip-rule="evenodd">
<g clip-path="url(#clip51)" clip-rule="evenodd">
<path style="fill:none;stroke-width:0.0212226;stroke-linecap:butt;stroke-linejoin:miter;stroke:rgb(17.96875%,20.3125%,21.09375%);stroke-opacity:0.8;stroke-miterlimit:10;" d="M 4.074253 1.229249 L 3.944945 1.631467 " transform="matrix(176.268816,0,0,176.268816,-158.14028,-42.475191)"/>
</g>
</g>
</g>
<g clip-path="url(#clip52)" clip-rule="nonzero">
<g clip-path="url(#clip53)" clip-rule="evenodd">
<g clip-path="url(#clip54)" clip-rule="evenodd">
<path style="fill:none;stroke-width:0.0212226;stroke-linecap:butt;stroke-linejoin:miter;stroke:rgb(17.96875%,20.3125%,21.09375%);stroke-opacity:0.8;stroke-miterlimit:10;" d="M 2.63602 0.469446 L 2.161758 0.81471 " transform="matrix(176.268816,0,0,176.268816,-158.14028,-42.475191)"/>
</g>
</g>
</g>
<g clip-path="url(#clip55)" clip-rule="nonzero">
<g clip-path="url(#clip56)" clip-rule="evenodd">
<g clip-path="url(#clip57)" clip-rule="evenodd">
<path style="fill:none;stroke-width:0.0212226;stroke-linecap:butt;stroke-linejoin:miter;stroke:rgb(17.96875%,20.3125%,21.09375%);stroke-opacity:0.8;stroke-miterlimit:10;" d="M 2.63602 0.469446 L 2.852397 0.557645 " transform="matrix(176.268816,0,0,176.268816,-158.14028,-42.475191)"/>
</g>
</g>
</g>
<g clip-path="url(#clip58)" clip-rule="nonzero">
<g clip-path="url(#clip59)" clip-rule="evenodd">
<g clip-path="url(#clip60)" clip-rule="evenodd">
<path style="fill:none;stroke-width:0.0212226;stroke-linecap:butt;stroke-linejoin:miter;stroke:rgb(17.96875%,20.3125%,21.09375%);stroke-opacity:0.8;stroke-miterlimit:10;" d="M 2.161758 0.81471 L 2.430368 0.852029 " transform="matrix(176.268816,0,0,176.268816,-158.14028,-42.475191)"/>
</g>
</g>
</g>
<g clip-path="url(#clip61)" clip-rule="nonzero">
<g clip-path="url(#clip62)" clip-rule="evenodd">
<g clip-path="url(#clip63)" clip-rule="evenodd">
<path style="fill:none;stroke-width:0.0212226;stroke-linecap:butt;stroke-linejoin:miter;stroke:rgb(17.96875%,20.3125%,21.09375%);stroke-opacity:0.8;stroke-miterlimit:10;" d="M 2.161758 0.81471 L 1.688337 0.967531 " transform="matrix(176.268816,0,0,176.268816,-158.14028,-42.475191)"/>
</g>
</g>
</g>
<g clip-path="url(#clip64)" clip-rule="nonzero">
<g clip-path="url(#clip65)" clip-rule="evenodd">
<g clip-path="url(#clip66)" clip-rule="evenodd">
<path style="fill:none;stroke-width:0.0212226;stroke-linecap:butt;stroke-linejoin:miter;stroke:rgb(17.96875%,20.3125%,21.09375%);stroke-opacity:0.8;stroke-miterlimit:10;" d="M 2.161758 0.81471 L 1.936139 1.226191 " transform="matrix(176.268816,0,0,176.268816,-158.14028,-42.475191)"/>
</g>
</g>
</g>
<g clip-path="url(#clip67)" clip-rule="nonzero">
<g clip-path="url(#clip68)" clip-rule="evenodd">
<g clip-path="url(#clip69)" clip-rule="evenodd">
<path style="fill:none;stroke-width:0.0212226;stroke-linecap:butt;stroke-linejoin:miter;stroke:rgb(17.96875%,20.3125%,21.09375%);stroke-opacity:0.8;stroke-miterlimit:10;" d="M 2.852397 0.557645 L 2.430368 0.852029 " transform="matrix(176.268816,0,0,176.268816,-158.14028,-42.475191)"/>
</g>
</g>
</g>
<g clip-path="url(#clip70)" clip-rule="nonzero">
<g clip-path="url(#clip71)" clip-rule="evenodd">
<g clip-path="url(#clip72)" clip-rule="evenodd">
<path style="fill:none;stroke-width:0.0212226;stroke-linecap:butt;stroke-linejoin:miter;stroke:rgb(17.96875%,20.3125%,21.09375%);stroke-opacity:0.8;stroke-miterlimit:10;" d="M 2.430368 0.852029 L 1.936139 1.226191 " transform="matrix(176.268816,0,0,176.268816,-158.14028,-42.475191)"/>
</g>
</g>
</g>
<g clip-path="url(#clip73)" clip-rule="nonzero">
<g clip-path="url(#clip74)" clip-rule="evenodd">
<g clip-path="url(#clip75)" clip-rule="evenodd">
<path style="fill:none;stroke-width:0.0212226;stroke-linecap:butt;stroke-linejoin:miter;stroke:rgb(17.96875%,20.3125%,21.09375%);stroke-opacity:0.8;stroke-miterlimit:10;" d="M 1.278297 0.999287 L 1.688337 0.967531 " transform="matrix(176.268816,0,0,176.268816,-158.14028,-42.475191)"/>
</g>
</g>
</g>
<g clip-path="url(#clip76)" clip-rule="nonzero">
<g clip-path="url(#clip77)" clip-rule="evenodd">
<g clip-path="url(#clip78)" clip-rule="evenodd">
<path style="fill:none;stroke-width:0.0212226;stroke-linecap:butt;stroke-linejoin:miter;stroke:rgb(17.96875%,20.3125%,21.09375%);stroke-opacity:0.8;stroke-miterlimit:10;" d="M 1.688337 0.967531 L 1.936139 1.226191 " transform="matrix(176.268816,0,0,176.268816,-158.14028,-42.475191)"/>
</g>
</g>
</g>
<path style="fill-rule:nonzero;fill:rgb(100%,92.941176%,43.529412%);fill-opacity:1;stroke-width:0.0212226;stroke-linecap:butt;stroke-linejoin:miter;stroke:rgb(60%,60%,60%);stroke-opacity:0.8;stroke-miterlimit:10;" d="M 0.106117 -0.00000699544 C 0.106117 0.0586082 0.0586048 0.106121 -0.0000104357 0.106121 C -0.0586035 0.106121 -0.106116 0.0586082 -0.106116 -0.00000699544 C -0.106116 -0.0586 -0.0586035 -0.106113 -0.0000104357 -0.106113 C 0.0586048 -0.106113 0.106117 -0.0586 0.106117 -0.00000699544 Z M 0.106117 -0.00000699544 " transform="matrix(176.268816,0,0,176.268816,39.876839,348.739514)"/>
<path style="fill-rule:nonzero;fill:rgb(55.294118%,82.745098%,78.039216%);fill-opacity:1;stroke-width:0.0212226;stroke-linecap:butt;stroke-linejoin:miter;stroke:rgb(60%,60%,60%);stroke-opacity:0.8;stroke-miterlimit:10;" d="M 0.106117 -0.00000494591 C 0.106117 0.0586103 0.0586043 0.106123 -0.0000108792 0.106123 C -0.0586039 0.106123 -0.106117 0.0586103 -0.106117 -0.00000494591 C -0.106117 -0.058598 -0.0586039 -0.106111 -0.0000108792 -0.106111 C 0.0586043 -0.106111 0.106117 -0.058598 0.106117 -0.00000494591 Z M 0.106117 -0.00000494591 " transform="matrix(176.268816,0,0,176.268816,192.212855,542.121966)"/>
<path style="fill-rule:nonzero;fill:rgb(100%,92.941176%,43.529412%);fill-opacity:1;stroke-width:0.0212226;stroke-linecap:butt;stroke-linejoin:miter;stroke:rgb(60%,60%,60%);stroke-opacity:0.8;stroke-miterlimit:10;" d="M 0.106109 -0.00000875199 C 0.106109 0.0586064 0.0585961 0.106119 0.00000307687 0.106119 C -0.0586121 0.106119 -0.106103 0.0586064 -0.106103 -0.00000875199 C -0.106103 -0.0586018 -0.0586121 -0.106114 0.00000307687 -0.106114 C 0.0585961 -0.106114 0.106109 -0.0586018 0.106109 -0.00000875199 Z M 0.106109 -0.00000875199 " transform="matrix(176.268816,0,0,176.268816,111.741645,316.673418)"/>
<path style="fill-rule:nonzero;fill:rgb(100%,92.941176%,43.529412%);fill-opacity:1;stroke-width:0.0212226;stroke-linecap:butt;stroke-linejoin:miter;stroke:rgb(60%,60%,60%);stroke-opacity:0.8;stroke-miterlimit:10;" d="M 0.106108 0.00000201238 C 0.106108 0.058595 0.058595 0.106108 0.0000020087 0.106108 C -0.0586132 0.106108 -0.106104 0.058595 -0.106104 0.00000201238 C -0.106104 -0.0586132 -0.0586132 -0.106104 0.0000020087 -0.106104 C 0.058595 -0.106104 0.106108 -0.0586132 0.106108 0.00000201238 Z M 0.106108 0.00000201238 " transform="matrix(176.268816,0,0,176.268816,160.280896,414.23402)"/>
<path style="fill-rule:nonzero;fill:rgb(100%,92.941176%,43.529412%);fill-opacity:1;stroke-width:0.0212226;stroke-linecap:butt;stroke-linejoin:miter;stroke:rgb(60%,60%,60%);stroke-opacity:0.8;stroke-miterlimit:10;" d="M 0.106117 -0.0000101966 C 0.106117 0.058605 0.0586046 0.106118 -0.0000106073 0.106118 C -0.0586036 0.106118 -0.106116 0.058605 -0.106116 -0.0000101966 C -0.106116 -0.0586032 -0.0586036 -0.106116 -0.0000106073 -0.106116 C 0.0586046 -0.106116 0.106117 -0.0586032 0.106117 -0.0000101966 Z M 0.106117 -0.0000101966 " transform="matrix(176.268816,0,0,176.268816,272.65812,484.243985)"/>
<path style="fill-rule:nonzero;fill:rgb(100%,92.941176%,43.529412%);fill-opacity:1;stroke-width:0.0212226;stroke-linecap:butt;stroke-linejoin:miter;stroke:rgb(60%,60%,60%);stroke-opacity:0.8;stroke-miterlimit:10;" d="M 0.106111 -0.00000244751 C 0.106111 0.0586127 0.0585988 0.106103 0.00000579861 0.106103 C -0.0586094 0.106103 -0.106122 0.0586127 -0.106122 -0.00000244751 C -0.106122 -0.0585955 -0.0586094 -0.106108 0.00000579861 -0.106108 C 0.0585988 -0.106108 0.106111 -0.0585955 0.106111 -0.00000244751 Z M 0.106111 -0.00000244751 " transform="matrix(176.268816,0,0,176.268816,311.315384,527.941838)"/>
<path style="fill-rule:nonzero;fill:rgb(100%,92.941176%,43.529412%);fill-opacity:1;stroke-width:0.0212226;stroke-linecap:butt;stroke-linejoin:miter;stroke:rgb(60%,60%,60%);stroke-opacity:0.8;stroke-miterlimit:10;" d="M 0.106116 0.00000209356 C 0.106116 0.0585951 0.0586032 0.106108 0.0000101389 0.106108 C -0.0586051 0.106108 -0.106118 0.0585951 -0.106118 0.00000209356 C -0.106118 -0.0586131 -0.0586051 -0.106104 0.0000101389 -0.106104 C 0.0586032 -0.106104 0.106116 -0.0586131 0.106116 0.00000209356 Z M 0.106116 0.00000209356 " transform="matrix(176.268816,0,0,176.268816,486.455244,377.655881)"/>
<path style="fill-rule:nonzero;fill:rgb(100%,92.941176%,43.529412%);fill-opacity:1;stroke-width:0.0212226;stroke-linecap:butt;stroke-linejoin:miter;stroke:rgb(60%,60%,60%);stroke-opacity:0.8;stroke-miterlimit:10;" d="M 0.106115 0.00000614966 C 0.106115 0.0585992 0.0586021 0.106112 0.00000902615 0.106112 C -0.0586062 0.106112 -0.106119 0.0585992 -0.106119 0.00000614966 C -0.106119 -0.058609 -0.0586062 -0.106122 0.00000902615 -0.106122 C 0.0586021 -0.106122 0.106115 -0.058609 0.106115 0.00000614966 Z M 0.106115 0.00000614966 " transform="matrix(176.268816,0,0,176.268816,384.877315,436.858291)"/>
<path style="fill-rule:nonzero;fill:rgb(100%,92.941176%,43.529412%);fill-opacity:1;stroke-width:0.0212226;stroke-linecap:butt;stroke-linejoin:miter;stroke:rgb(60%,60%,60%);stroke-opacity:0.8;stroke-miterlimit:10;" d="M 0.106121 0.00000667906 C 0.106121 0.0585997 0.0586085 0.106112 -0.00000670099 0.106112 C -0.0585997 0.106112 -0.106112 0.0585997 -0.106112 0.00000667906 C -0.106112 -0.0586085 -0.0585997 -0.106121 -0.00000670099 -0.106121 C 0.0586085 -0.106121 0.106121 -0.0586085 0.106121 0.00000667906 Z M 0.106121 0.00000667906 " transform="matrix(176.268816,0,0,176.268816,422.962119,559.725385)"/>
<path style="fill-rule:nonzero;fill:rgb(100%,92.941176%,43.529412%);fill-opacity:1;stroke-width:0.0212226;stroke-linecap:butt;stroke-linejoin:miter;stroke:rgb(60%,60%,60%);stroke-opacity:0.8;stroke-miterlimit:10;" d="M 0.106108 -0.00000531149 C 0.106108 0.0586099 0.0585952 0.106123 0.000002133 0.106123 C -0.0586131 0.106123 -0.106104 0.0586099 -0.106104 -0.00000531149 C -0.106104 -0.0585983 -0.0586131 -0.106111 0.000002133 -0.106111 C 0.0585952 -0.106111 0.106108 -0.0585983 0.106108 -0.00000531149 Z M 0.106108 -0.00000531149 " transform="matrix(176.268816,0,0,176.268816,380.413687,485.430624)"/>
<path style="fill-rule:nonzero;fill:rgb(100%,92.941176%,43.529412%);fill-opacity:1;stroke-width:0.0212226;stroke-linecap:butt;stroke-linejoin:miter;stroke:rgb(60%,60%,60%);stroke-opacity:0.8;stroke-miterlimit:10;" d="M 0.106116 -0.00000344976 C 0.106116 0.0586117 0.0586037 0.106102 0.0000106311 0.106102 C -0.0586046 0.106102 -0.106117 0.0586117 -0.106117 -0.00000344976 C -0.106117 -0.0585965 -0.0586046 -0.106109 0.0000106311 -0.106109 C 0.0586037 -0.106109 0.106116 -0.0585965 0.106116 -0.00000344976 Z M 0.106116 -0.00000344976 " transform="matrix(176.268816,0,0,176.268816,560.021564,174.203733)"/>
<path style="fill-rule:nonzero;fill:rgb(100%,92.941176%,43.529412%);fill-opacity:1;stroke-width:0.0212226;stroke-linecap:butt;stroke-linejoin:miter;stroke:rgb(60%,60%,60%);stroke-opacity:0.8;stroke-miterlimit:10;" d="M 0.106106 0.00000548633 C 0.106106 0.0585985 0.0586153 0.106111 0.0000000740875 0.106111 C -0.0586151 0.106111 -0.106106 0.0585985 -0.106106 0.00000548633 C -0.106106 -0.0586097 -0.0586151 -0.106122 0.0000000740875 -0.106122 C 0.0586153 -0.106122 0.106106 -0.0586097 0.106106 0.00000548633 Z M 0.106106 0.00000548633 " transform="matrix(176.268816,0,0,176.268816,537.230456,245.100595)"/>
<path style="fill-rule:nonzero;fill:rgb(100%,92.941176%,43.529412%);fill-opacity:1;stroke-width:0.0212226;stroke-linecap:butt;stroke-linejoin:miter;stroke:rgb(60%,60%,60%);stroke-opacity:0.8;stroke-miterlimit:10;" d="M 0.106102 -0.00000366138 C 0.106102 0.0586115 0.0586118 0.106102 -0.00000336638 0.106102 C -0.0585964 0.106102 -0.106109 0.0586115 -0.106109 -0.00000366138 C -0.106109 -0.0585967 -0.0585964 -0.106109 -0.00000336638 -0.106109 C 0.0586118 -0.106109 0.106102 -0.0585967 0.106102 -0.00000366138 Z M 0.106102 -0.00000366138 " transform="matrix(176.268816,0,0,176.268816,549.793562,334.344395)"/>
<path style="fill-rule:nonzero;fill:rgb(100%,92.941176%,43.529412%);fill-opacity:1;stroke-width:0.0212226;stroke-linecap:butt;stroke-linejoin:miter;stroke:rgb(60%,60%,60%);stroke-opacity:0.8;stroke-miterlimit:10;" d="M 0.106116 -0.00000812602 C 0.106116 0.0586071 0.0586035 0.10612 0.0000104357 0.10612 C -0.0586048 0.10612 -0.106117 0.0586071 -0.106117 -0.00000812602 C -0.106117 -0.0586012 -0.0586048 -0.106114 0.0000104357 -0.106114 C 0.0586035 -0.106114 0.106116 -0.0586012 0.106116 -0.00000812602 Z M 0.106116 -0.00000812602 " transform="matrix(176.268816,0,0,176.268816,560.123161,404.388151)"/>
<path style="fill-rule:nonzero;fill:rgb(100%,92.941176%,43.529412%);fill-opacity:1;stroke-width:0.0212226;stroke-linecap:butt;stroke-linejoin:miter;stroke:rgb(60%,60%,60%);stroke-opacity:0.8;stroke-miterlimit:10;" d="M 0.106114 -0.00000667906 C 0.106114 0.0586085 0.0586013 0.106121 0.000008297 0.106121 C -0.0586069 0.106121 -0.10612 0.0586085 -0.10612 -0.00000667906 C -0.10612 -0.0585997 -0.0586069 -0.106112 0.000008297 -0.106112 C 0.0586013 -0.106112 0.106114 -0.0585997 0.106114 -0.00000667906 Z M 0.106114 -0.00000667906 " transform="matrix(176.268816,0,0,176.268816,306.50635,40.274615)"/>
<path style="fill-rule:nonzero;fill:rgb(100%,92.941176%,43.529412%);fill-opacity:1;stroke-width:0.0212226;stroke-linecap:butt;stroke-linejoin:miter;stroke:rgb(60%,60%,60%);stroke-opacity:0.8;stroke-miterlimit:10;" d="M 0.10612 -0.00000411011 C 0.10612 0.0586111 0.0586074 0.106124 -0.00000775151 0.106124 C -0.0586008 0.106124 -0.106113 0.0586111 -0.106113 -0.00000411011 C -0.106113 -0.0585971 -0.0586008 -0.10611 -0.00000775151 -0.10611 C 0.0586074 -0.10611 0.10612 -0.0585971 0.10612 -0.00000411011 Z M 0.10612 -0.00000411011 " transform="matrix(176.268816,0,0,176.268816,222.911523,101.133537)"/>
<path style="fill-rule:nonzero;fill:rgb(100%,92.941176%,43.529412%);fill-opacity:1;stroke-width:0.0212226;stroke-linecap:butt;stroke-linejoin:miter;stroke:rgb(60%,60%,60%);stroke-opacity:0.8;stroke-miterlimit:10;" d="M 0.10611 0.00000441407 C 0.10611 0.0585974 0.0585972 0.10611 0.00000420844 0.10611 C -0.058611 0.10611 -0.106124 0.0585974 -0.106124 0.00000441407 C -0.106124 -0.0586108 -0.058611 -0.106123 0.00000420844 -0.106123 C 0.0585972 -0.106123 0.10611 -0.0586108 0.10611 0.00000441407 Z M 0.10611 0.00000441407 " transform="matrix(176.268816,0,0,176.268816,344.647696,55.819534)"/>
<path style="fill-rule:nonzero;fill:rgb(100%,92.941176%,43.529412%);fill-opacity:1;stroke-width:0.0212226;stroke-linecap:butt;stroke-linejoin:miter;stroke:rgb(60%,60%,60%);stroke-opacity:0.8;stroke-miterlimit:10;" d="M 0.106102 -0.00000997156 C 0.106102 0.0586052 0.0586115 0.106118 -0.00000368236 0.106118 C -0.0585967 0.106118 -0.106109 0.0586052 -0.106109 -0.00000997156 C -0.106109 -0.058603 -0.0585967 -0.106116 -0.00000368236 -0.106116 C 0.0586115 -0.106116 0.106102 -0.058603 0.106102 -0.00000997156 Z M 0.106102 -0.00000997156 " transform="matrix(176.268816,0,0,176.268816,270.258462,107.712695)"/>
<path style="fill-rule:nonzero;fill:rgb(100%,92.941176%,43.529412%);fill-opacity:1;stroke-width:0.0212226;stroke-linecap:butt;stroke-linejoin:miter;stroke:rgb(60%,60%,60%);stroke-opacity:0.8;stroke-miterlimit:10;" d="M 0.106118 -0.000000497729 C 0.106118 0.0586147 0.0586057 0.106105 -0.00000954548 0.106105 C -0.0586026 0.106105 -0.106115 0.0586147 -0.106115 -0.000000497729 C -0.106115 -0.0585935 -0.0586026 -0.106106 -0.00000954548 -0.106106 C 0.0586057 -0.106106 0.106118 -0.0585935 0.106118 -0.000000497729 Z M 0.106118 -0.000000497729 " transform="matrix(176.268816,0,0,176.268816,67.185276,133.668056)"/>
<path style="fill-rule:nonzero;fill:rgb(100%,92.941176%,43.529412%);fill-opacity:1;stroke-width:0.0212226;stroke-linecap:butt;stroke-linejoin:miter;stroke:rgb(60%,60%,60%);stroke-opacity:0.8;stroke-miterlimit:10;" d="M 0.106108 -0.00000177823 C 0.106108 0.0586134 0.0585958 0.106104 0.00000274443 0.106104 C -0.0586125 0.106104 -0.106103 0.0586134 -0.106103 -0.00000177823 C -0.106103 -0.0585948 -0.0586125 -0.106107 0.00000274443 -0.106107 C 0.0585958 -0.106107 0.106108 -0.0585948 0.106108 -0.00000177823 Z M 0.106108 -0.00000177823 " transform="matrix(176.268816,0,0,176.268816,139.460454,128.070626)"/>
<path style="fill-rule:nonzero;fill:rgb(100%,92.941176%,43.529412%);fill-opacity:1;stroke-width:0.0212226;stroke-linecap:butt;stroke-linejoin:miter;stroke:rgb(60%,60%,60%);stroke-opacity:0.8;stroke-miterlimit:10;" d="M 0.106106 0.0000081409 C 0.106106 0.0586012 0.0586151 0.106114 -0.0000000493404 0.106114 C -0.0586152 0.106114 -0.106106 0.0586012 -0.106106 0.0000081409 C -0.106106 -0.0586071 -0.0586152 -0.10612 -0.0000000493404 -0.10612 C 0.0586151 -0.10612 0.106106 -0.0586071 0.106106 0.0000081409 Z M 0.106106 0.0000081409 " transform="matrix(176.268816,0,0,176.268816,183.140634,173.662628)"/>
</g>
</svg>
