<?xml version="1.0" encoding="UTF-8"?>
<svg xmlns="http://www.w3.org/2000/svg" xmlns:xlink="http://www.w3.org/1999/xlink" width="600pt" height="600pt" viewBox="0 0 600 600" version="1.1">
<defs>
<clipPath id="clip1">
  <path d="M 248 159 L 418 159 L 418 301 L 248 301 Z M 248 159 "/>
</clipPath>
<clipPath id="clip2">
  <path d="M 227.417969 70.40625 L 438.65625 70.40625 L 438.65625 389.257812 L 227.417969 389.257812 Z M 227.417969 70.40625 L 323.476562 214.75 C 323.476562 225.613281 314.671875 234.414062 303.8125 234.414062 C 292.953125 234.414062 284.148438 225.613281 284.148438 214.75 C 284.148438 203.890625 292.953125 195.085938 303.8125 195.085938 C 314.671875 195.085938 323.476562 203.890625 323.476562 214.75 Z M 227.417969 70.40625 "/>
</clipPath>
<clipPath id="clip3">
  <path d="M 227.417969 70.40625 L 438.65625 70.40625 L 438.65625 389.257812 L 227.417969 389.257812 Z M 227.417969 70.40625 L 381.925781 244.914062 C 381.925781 255.773438 373.125 264.578125 362.261719 264.578125 C 351.402344 264.578125 342.597656 255.773438 342.597656 244.914062 C 342.597656 234.050781 351.402344 225.246094 362.261719 225.246094 C 373.125 225.246094 381.925781 234.050781 381.925781 244.914062 Z M 227.417969 70.40625 "/>
</clipPath>
<clipPath id="clip4">
  <path d="M 179 159 L 360 159 L 360 315 L 179 315 Z M 179 159 "/>
</clipPath>
<clipPath id="clip5">
  <path d="M 145.257812 78.511719 L 394.125 78.511719 L 394.125 395.542969 L 145.257812 395.542969 Z M 145.257812 78.511719 L 323.476562 214.75 C 323.476562 225.613281 314.671875 234.414062 303.8125 234.414062 C 292.953125 234.414062 284.148438 225.613281 284.148438 214.75 C 284.148438 203.890625 292.953125 195.085938 303.8125 195.085938 C 314.671875 195.085938 323.476562 203.890625 323.476562 214.75 Z M 145.257812 78.511719 "/>
</clipPath>
<clipPath id="clip6">
  <path d="M 145.257812 78.511719 L 394.125 78.511719 L 394.125 395.542969 L 145.257812 395.542969 Z M 145.257812 78.511719 L 255.234375 259.304688 C 255.234375 270.164062 246.433594 278.96875 235.570312 278.96875 C 224.710938 278.96875 215.90625 270.164062 215.90625 259.304688 C 215.90625 248.445312 224.710938 239.640625 235.570312 239.640625 C 246.433594 239.640625 255.234375 248.445312 255.234375 259.304688 Z M 145.257812 78.511719 "/>
</clipPath>
<clipPath id="clip7">
  <path d="M 248 102 L 382 102 L 382 271 L 248 271 Z M 248 102 "/>
</clipPath>
<clipPath id="clip8">
  <path d="M 152.890625 96.203125 L 477.074219 96.203125 L 477.074219 276.652344 L 152.890625 276.652344 Z M 152.890625 96.203125 L 323.476562 214.75 C 323.476562 225.613281 314.671875 234.414062 303.8125 234.414062 C 292.953125 234.414062 284.148438 225.613281 284.148438 214.75 C 284.148438 203.890625 292.953125 195.085938 303.8125 195.085938 C 314.671875 195.085938 323.476562 203.890625 323.476562 214.75 Z M 152.890625 96.203125 "/>
</clipPath>
<clipPath id="clip9">
  <path d="M 152.890625 96.203125 L 477.074219 96.203125 L 477.074219 276.652344 L 152.890625 276.652344 Z M 152.890625 96.203125 L 345.816406 158.105469 C 345.816406 168.96875 337.011719 177.773438 326.152344 177.773438 C 315.292969 177.773438 306.488281 168.96875 306.488281 158.105469 C 306.488281 147.246094 315.292969 138.441406 326.152344 138.441406 C 337.011719 138.441406 345.816406 147.246094 345.816406 158.105469 Z M 152.890625 96.203125 "/>
</clipPath>
<clipPath id="clip10">
  <path d="M 209 0 L 353 0 L 353 134 L 209 134 Z M 209 0 "/>
</clipPath>
<clipPath id="clip11">
  <path d="M 140.414062 -64.542969 L 421.265625 -64.542969 L 421.265625 183.949219 L 140.414062 183.949219 Z M 140.414062 -64.542969 L 316.121094 78.253906 C 316.121094 89.113281 307.316406 97.917969 296.457031 97.917969 C 285.597656 97.917969 276.792969 89.113281 276.792969 78.253906 C 276.792969 67.394531 285.597656 58.589844 296.457031 58.589844 C 307.316406 58.589844 316.121094 67.394531 316.121094 78.253906 Z M 140.414062 -64.542969 "/>
</clipPath>
<clipPath id="clip12">
  <path d="M 140.414062 -64.542969 L 421.265625 -64.542969 L 421.265625 183.949219 L 140.414062 183.949219 Z M 140.414062 -64.542969 L 284.886719 41.152344 C 284.886719 52.011719 276.085938 60.816406 265.222656 60.816406 C 254.363281 60.816406 245.558594 52.011719 245.558594 41.152344 C 245.558594 30.292969 254.363281 21.488281 265.222656 21.488281 C 276.085938 21.488281 284.886719 30.292969 284.886719 41.152344 Z M 140.414062 -64.542969 "/>
</clipPath>
<clipPath id="clip13">
  <path d="M 240 22 L 382 22 L 382 214 L 240 214 Z M 240 22 "/>
</clipPath>
<clipPath id="clip14">
  <path d="M 144.425781 19.246094 L 478.183594 19.246094 L 478.183594 217.113281 L 144.425781 217.113281 Z M 144.425781 19.246094 L 316.121094 78.253906 C 316.121094 89.113281 307.316406 97.917969 296.457031 97.917969 C 285.597656 97.917969 276.792969 89.113281 276.792969 78.253906 C 276.792969 67.394531 285.597656 58.589844 296.457031 58.589844 C 307.316406 58.589844 316.121094 67.394531 316.121094 78.253906 Z M 144.425781 19.246094 "/>
</clipPath>
<clipPath id="clip15">
  <path d="M 144.425781 19.246094 L 478.183594 19.246094 L 478.183594 217.113281 L 144.425781 217.113281 Z M 144.425781 19.246094 L 345.816406 158.105469 C 345.816406 168.96875 337.011719 177.773438 326.152344 177.773438 C 315.292969 177.773438 306.488281 168.96875 306.488281 158.105469 C 306.488281 147.246094 315.292969 138.441406 326.152344 138.441406 C 337.011719 138.441406 345.816406 147.246094 345.816406 158.105469 Z M 144.425781 19.246094 "/>
</clipPath>
<clipPath id="clip16">
  <path d="M 213.804688 189 L 384.027344 189 L 384.027344 315 L 213.804688 315 Z M 213.804688 189 "/>
</clipPath>
<clipPath id="clip17">
  <path d="M 213.804688 83.984375 L 384.027344 83.984375 L 384.027344 420.234375 L 213.804688 420.234375 Z M 213.804688 83.984375 L 381.925781 244.914062 C 381.925781 255.773438 373.125 264.578125 362.261719 264.578125 C 351.402344 264.578125 342.597656 255.773438 342.597656 244.914062 C 342.597656 234.050781 351.402344 225.246094 362.261719 225.246094 C 373.125 225.246094 381.925781 234.050781 381.925781 244.914062 Z M 213.804688 83.984375 "/>
</clipPath>
<clipPath id="clip18">
  <path d="M 213.804688 83.984375 L 384.027344 83.984375 L 384.027344 420.234375 L 213.804688 420.234375 Z M 213.804688 83.984375 L 255.234375 259.304688 C 255.234375 270.164062 246.433594 278.96875 235.570312 278.96875 C 224.710938 278.96875 215.90625 270.164062 215.90625 259.304688 C 215.90625 248.445312 224.710938 239.640625 235.570312 239.640625 C 246.433594 239.640625 255.234375 248.445312 255.234375 259.304688 Z M 213.804688 83.984375 "/>
</clipPath>
<clipPath id="clip19">
  <path d="M 270 102 L 418 102 L 418 301 L 270 301 Z M 270 102 "/>
</clipPath>
<clipPath id="clip20">
  <path d="M 176.328125 93.488281 L 512.085938 93.488281 L 512.085938 309.53125 L 176.328125 309.53125 Z M 176.328125 93.488281 L 381.925781 244.914062 C 381.925781 255.773438 373.125 264.578125 362.261719 264.578125 C 351.402344 264.578125 342.597656 255.773438 342.597656 244.914062 C 342.597656 234.050781 351.402344 225.246094 362.261719 225.246094 C 373.125 225.246094 381.925781 234.050781 381.925781 244.914062 Z M 176.328125 93.488281 "/>
</clipPath>
<clipPath id="clip21">
  <path d="M 176.328125 93.488281 L 512.085938 93.488281 L 512.085938 309.53125 L 176.328125 309.53125 Z M 176.328125 93.488281 L 345.816406 158.105469 C 345.816406 168.96875 337.011719 177.773438 326.152344 177.773438 C 315.292969 177.773438 306.488281 168.96875 306.488281 158.105469 C 306.488281 147.246094 315.292969 138.441406 326.152344 138.441406 C 337.011719 138.441406 345.816406 147.246094 345.816406 158.105469 Z M 176.328125 93.488281 "/>
</clipPath>
<clipPath id="clip22">
  <path d="M 306 143 L 519 143 L 519 301 L 306 301 Z M 306 143 "/>
</clipPath>
<clipPath id="clip23">
  <path d="M 293.5 51.554688 L 531.777344 51.554688 L 531.777344 392.945312 L 293.5 392.945312 Z M 293.5 51.554688 L 381.925781 244.914062 C 381.925781 255.773438 373.125 264.578125 362.261719 264.578125 C 351.402344 264.578125 342.597656 255.773438 342.597656 244.914062 C 342.597656 234.050781 351.402344 225.246094 362.261719 225.246094 C 373.125 225.246094 381.925781 234.050781 381.925781 244.914062 Z M 293.5 51.554688 "/>
</clipPath>
<clipPath id="clip24">
  <path d="M 293.5 51.554688 L 531.777344 51.554688 L 531.777344 392.945312 L 293.5 392.945312 Z M 293.5 51.554688 L 482.679688 199.585938 C 482.679688 210.445312 473.875 219.25 463.015625 219.25 C 452.15625 219.25 443.351562 210.445312 443.351562 199.585938 C 443.351562 188.726562 452.15625 179.921875 463.015625 179.921875 C 473.875 179.921875 482.679688 188.726562 482.679688 199.585938 Z M 293.5 51.554688 "/>
</clipPath>
<clipPath id="clip25">
  <path d="M 306 189 L 497 189 L 497 437 L 306 437 Z M 306 189 "/>
</clipPath>
<clipPath id="clip26">
  <path d="M 221.71875 161.585938 L 581.75 161.585938 L 581.75 464.078125 L 221.71875 464.078125 Z M 221.71875 161.585938 L 381.925781 244.914062 C 381.925781 255.773438 373.125 264.578125 362.261719 264.578125 C 351.402344 264.578125 342.597656 255.773438 342.597656 244.914062 C 342.597656 234.050781 351.402344 225.246094 362.261719 225.246094 C 373.125 225.246094 381.925781 234.050781 381.925781 244.914062 Z M 221.71875 161.585938 "/>
</clipPath>
<clipPath id="clip27">
  <path d="M 221.71875 161.585938 L 581.75 161.585938 L 581.75 464.078125 L 221.71875 464.078125 Z M 221.71875 161.585938 L 460.871094 380.75 C 460.871094 391.609375 452.066406 400.414062 441.207031 400.414062 C 430.347656 400.414062 421.542969 391.609375 421.542969 380.75 C 421.542969 369.890625 430.347656 361.085938 441.207031 361.085938 C 452.066406 361.085938 460.871094 369.890625 460.871094 380.75 Z M 221.71875 161.585938 "/>
</clipPath>
<clipPath id="clip28">
  <path d="M 114.785156 203 L 262.746094 203 L 262.746094 329 L 114.785156 329 Z M 114.785156 203 "/>
</clipPath>
<clipPath id="clip29">
  <path d="M 114.785156 99.082031 L 262.746094 99.082031 L 262.746094 433.449219 L 114.785156 433.449219 Z M 114.785156 99.082031 L 255.234375 259.304688 C 255.234375 270.164062 246.433594 278.96875 235.570312 278.96875 C 224.710938 278.96875 215.90625 270.164062 215.90625 259.304688 C 215.90625 248.445312 224.710938 239.640625 235.570312 239.640625 C 246.433594 239.640625 255.234375 248.445312 255.234375 259.304688 Z M 114.785156 99.082031 "/>
</clipPath>
<clipPath id="clip30">
  <path d="M 114.785156 99.082031 L 262.746094 99.082031 L 262.746094 433.449219 L 114.785156 433.449219 Z M 114.785156 99.082031 L 161.625 273.226562 C 161.625 284.085938 152.820312 292.890625 141.960938 292.890625 C 131.097656 292.890625 122.296875 284.085938 122.296875 273.226562 C 122.296875 262.367188 131.097656 253.5625 141.960938 253.5625 C 152.820312 253.5625 161.625 262.367188 161.625 273.226562 Z M 114.785156 99.082031 "/>
</clipPath>
<clipPath id="clip31">
  <path d="M 100 203 L 292 203 L 292 364 L 100 364 Z M 100 203 "/>
</clipPath>
<clipPath id="clip32">
  <path d="M 69.257812 120.875 L 322.433594 120.875 L 322.433594 446.722656 L 69.257812 446.722656 Z M 69.257812 120.875 L 255.234375 259.304688 C 255.234375 270.164062 246.433594 278.96875 235.570312 278.96875 C 224.710938 278.96875 215.90625 270.164062 215.90625 259.304688 C 215.90625 248.445312 224.710938 239.640625 235.570312 239.640625 C 246.433594 239.640625 255.234375 248.445312 255.234375 259.304688 Z M 69.257812 120.875 "/>
</clipPath>
<clipPath id="clip33">
  <path d="M 69.257812 120.875 L 322.433594 120.875 L 322.433594 446.722656 L 69.257812 446.722656 Z M 69.257812 120.875 L 175.785156 308.292969 C 175.785156 319.152344 166.980469 327.957031 156.121094 327.957031 C 145.261719 327.957031 136.457031 319.152344 136.457031 308.292969 C 136.457031 297.433594 145.261719 288.628906 156.121094 288.628906 C 166.980469 288.628906 175.785156 297.433594 175.785156 308.292969 Z M 69.257812 120.875 "/>
</clipPath>
<clipPath id="clip34">
  <path d="M 407 120 L 573 120 L 573 256 L 407 256 Z M 407 120 "/>
</clipPath>
<clipPath id="clip35">
  <path d="M 395.839844 27.460938 L 583.753906 27.460938 L 583.753906 348.316406 L 395.839844 348.316406 Z M 395.839844 27.460938 L 536.242188 176.191406 C 536.242188 187.050781 527.4375 195.855469 516.578125 195.855469 C 505.71875 195.855469 496.914062 187.050781 496.914062 176.191406 C 496.914062 165.328125 505.71875 156.527344 516.578125 156.527344 C 527.4375 156.527344 536.242188 165.328125 536.242188 176.191406 Z M 395.839844 27.460938 "/>
</clipPath>
<clipPath id="clip36">
  <path d="M 395.839844 27.460938 L 583.753906 27.460938 L 583.753906 348.316406 L 395.839844 348.316406 Z M 395.839844 27.460938 L 482.679688 199.585938 C 482.679688 210.445312 473.875 219.25 463.015625 219.25 C 452.15625 219.25 443.351562 210.445312 443.351562 199.585938 C 443.351562 188.726562 452.15625 179.921875 463.015625 179.921875 C 473.875 179.921875 482.679688 188.726562 482.679688 199.585938 Z M 395.839844 27.460938 "/>
</clipPath>
<clipPath id="clip37">
  <path d="M 246 475 L 400 475 L 400 600 L 246 600 Z M 246 475 "/>
</clipPath>
<clipPath id="clip38">
  <path d="M 210.832031 395.351562 L 435.828125 395.351562 L 435.828125 694.339844 L 210.832031 694.339844 Z M 210.832031 395.351562 L 321.945312 558.847656 C 321.945312 569.707031 313.140625 578.511719 302.28125 578.511719 C 291.421875 578.511719 282.617188 569.707031 282.617188 558.847656 C 282.617188 547.988281 291.421875 539.183594 302.28125 539.183594 C 313.140625 539.183594 321.945312 547.988281 321.945312 558.847656 Z M 210.832031 395.351562 "/>
</clipPath>
<clipPath id="clip39">
  <path d="M 210.832031 395.351562 L 435.828125 395.351562 L 435.828125 694.339844 L 210.832031 694.339844 Z M 210.832031 395.351562 L 364.042969 530.84375 C 364.042969 541.703125 355.238281 550.507812 344.378906 550.507812 C 333.519531 550.507812 324.714844 541.703125 324.714844 530.84375 C 324.714844 519.984375 333.519531 511.179688 344.378906 511.179688 C 355.238281 511.179688 364.042969 519.984375 364.042969 530.84375 Z M 210.832031 395.351562 "/>
</clipPath>
<clipPath id="clip40">
  <path d="M 411.449219 313 L 540.550781 313 L 540.550781 437 L 411.449219 437 Z M 411.449219 313 "/>
</clipPath>
<clipPath id="clip41">
  <path d="M 411.449219 209.40625 L 540.550781 209.40625 L 540.550781 540.566406 L 411.449219 540.566406 Z M 411.449219 209.40625 L 530.457031 369.222656 C 530.457031 380.082031 521.652344 388.886719 510.792969 388.886719 C 499.933594 388.886719 491.128906 380.082031 491.128906 369.222656 C 491.128906 358.363281 499.933594 349.558594 510.792969 349.558594 C 521.652344 349.558594 530.457031 358.363281 530.457031 369.222656 Z M 411.449219 209.40625 "/>
</clipPath>
<clipPath id="clip42">
  <path d="M 411.449219 209.40625 L 540.550781 209.40625 L 540.550781 540.566406 L 411.449219 540.566406 Z M 411.449219 209.40625 L 460.871094 380.75 C 460.871094 391.609375 452.066406 400.414062 441.207031 400.414062 C 430.347656 400.414062 421.542969 391.609375 421.542969 380.75 C 421.542969 369.890625 430.347656 361.085938 441.207031 361.085938 C 452.066406 361.085938 460.871094 369.890625 460.871094 380.75 Z M 411.449219 209.40625 "/>
</clipPath>
<clipPath id="clip43">
  <path d="M 288 418 L 450 418 L 450 587 L 288 587 Z M 288 418 "/>
</clipPath>
<clipPath id="clip44">
  <path d="M 221.917969 365.792969 L 516.761719 365.792969 L 516.761719 639.265625 L 221.917969 639.265625 Z M 221.917969 365.792969 L 364.042969 530.84375 C 364.042969 541.703125 355.238281 550.507812 344.378906 550.507812 C 333.519531 550.507812 324.714844 541.703125 324.714844 530.84375 C 324.714844 519.984375 333.519531 511.179688 344.378906 511.179688 C 355.238281 511.179688 364.042969 519.984375 364.042969 530.84375 Z M 221.917969 365.792969 "/>
</clipPath>
<clipPath id="clip45">
  <path d="M 221.917969 365.792969 L 516.761719 365.792969 L 516.761719 639.265625 L 221.917969 639.265625 Z M 221.917969 365.792969 L 413.964844 474.214844 C 413.964844 485.078125 405.160156 493.878906 394.300781 493.878906 C 383.4375 493.878906 374.636719 485.078125 374.636719 474.214844 C 374.636719 463.355469 383.4375 454.550781 394.300781 454.550781 C 405.160156 454.550781 413.964844 463.355469 413.964844 474.214844 Z M 221.917969 365.792969 "/>
</clipPath>
<clipPath id="clip46">
  <path d="M 338 325 L 497 325 L 497 530 L 338 530 Z M 338 325 "/>
</clipPath>
<clipPath id="clip47">
  <path d="M 249.148438 305.945312 L 586.359375 305.945312 L 586.359375 549.019531 L 249.148438 549.019531 Z M 249.148438 305.945312 L 413.964844 474.214844 C 413.964844 485.078125 405.160156 493.878906 394.300781 493.878906 C 383.4375 493.878906 374.636719 485.078125 374.636719 474.214844 C 374.636719 463.355469 383.4375 454.550781 394.300781 454.550781 C 405.160156 454.550781 413.964844 463.355469 413.964844 474.214844 Z M 249.148438 305.945312 "/>
</clipPath>
<clipPath id="clip48">
  <path d="M 249.148438 305.945312 L 586.359375 305.945312 L 586.359375 549.019531 L 249.148438 549.019531 Z M 249.148438 305.945312 L 460.871094 380.75 C 460.871094 391.609375 452.066406 400.414062 441.207031 400.414062 C 430.347656 400.414062 421.542969 391.609375 421.542969 380.75 C 421.542969 369.890625 430.347656 361.085938 441.207031 361.085938 C 452.066406 361.085938 460.871094 369.890625 460.871094 380.75 Z M 249.148438 305.945312 "/>
</clipPath>
<clipPath id="clip49">
  <path d="M 385 325 L 544 325 L 544 483 L 385 483 Z M 385 325 "/>
</clipPath>
<clipPath id="clip50">
  <path d="M 326.488281 264.152344 L 602.566406 264.152344 L 602.566406 543.210938 L 326.488281 543.210938 Z M 326.488281 264.152344 L 460.871094 380.75 C 460.871094 391.609375 452.066406 400.414062 441.207031 400.414062 C 430.347656 400.414062 421.542969 391.609375 421.542969 380.75 C 421.542969 369.890625 430.347656 361.085938 441.207031 361.085938 C 452.066406 361.085938 460.871094 369.890625 460.871094 380.75 Z M 326.488281 264.152344 "/>
</clipPath>
<clipPath id="clip51">
  <path d="M 326.488281 264.152344 L 602.566406 264.152344 L 602.566406 543.210938 L 326.488281 543.210938 Z M 326.488281 264.152344 L 507.511719 426.613281 C 507.511719 437.472656 498.710938 446.277344 487.847656 446.277344 C 476.988281 446.277344 468.183594 437.472656 468.183594 426.613281 C 468.183594 415.75 476.988281 406.949219 487.847656 406.949219 C 498.710938 406.949219 507.511719 415.75 507.511719 426.613281 Z M 326.488281 264.152344 "/>
</clipPath>
<clipPath id="clip52">
  <path d="M 27 217 L 198 217 L 198 367 L 27 367 Z M 27 217 "/>
</clipPath>
<clipPath id="clip53">
  <path d="M -6.6875 136.855469 L 232.070312 136.855469 L 232.070312 447.6875 L -6.6875 447.6875 Z M -6.6875 136.855469 L 103.085938 311.316406 C 103.085938 322.175781 94.28125 330.980469 83.421875 330.980469 C 72.5625 330.980469 63.757812 322.175781 63.757812 311.316406 C 63.757812 300.457031 72.5625 291.652344 83.421875 291.652344 C 94.28125 291.652344 103.085938 300.457031 103.085938 311.316406 Z M -6.6875 136.855469 "/>
</clipPath>
<clipPath id="clip54">
  <path d="M -6.6875 136.855469 L 232.070312 136.855469 L 232.070312 447.6875 L -6.6875 447.6875 Z M -6.6875 136.855469 L 161.625 273.226562 C 161.625 284.085938 152.820312 292.890625 141.960938 292.890625 C 131.097656 292.890625 122.296875 284.085938 122.296875 273.226562 C 122.296875 262.367188 131.097656 253.5625 141.960938 253.5625 C 152.820312 253.5625 161.625 262.367188 161.625 273.226562 Z M -6.6875 136.855469 "/>
</clipPath>
<clipPath id="clip55">
  <path d="M 27 261.59375 L 157 261.59375 L 157 417.90625 L 27 417.90625 Z M 27 261.59375 "/>
</clipPath>
<clipPath id="clip56">
  <path d="M -71.738281 261.59375 L 255.800781 261.59375 L 255.800781 417.90625 L -71.738281 417.90625 Z M -71.738281 261.59375 L 103.085938 311.316406 C 103.085938 322.175781 94.28125 330.980469 83.421875 330.980469 C 72.5625 330.980469 63.757812 322.175781 63.757812 311.316406 C 63.757812 300.457031 72.5625 291.652344 83.421875 291.652344 C 94.28125 291.652344 103.085938 300.457031 103.085938 311.316406 Z M -71.738281 261.59375 "/>
</clipPath>
<clipPath id="clip57">
  <path d="M -71.738281 261.59375 L 255.800781 261.59375 L 255.800781 417.90625 L -71.738281 417.90625 Z M -71.738281 261.59375 L 120.304688 368.183594 C 120.304688 379.042969 111.5 387.847656 100.640625 387.847656 C 89.777344 387.847656 80.976562 379.042969 80.976562 368.183594 C 80.976562 357.324219 89.777344 348.519531 100.640625 348.519531 C 111.5 348.519531 120.304688 357.324219 120.304688 368.183594 Z M -71.738281 261.59375 "/>
</clipPath>
<clipPath id="clip58">
  <path d="M 86 217 L 212 217 L 212 364 L 86 364 Z M 86 217 "/>
</clipPath>
<clipPath id="clip59">
  <path d="M -8.484375 210.128906 L 306.566406 210.128906 L 306.566406 371.390625 L -8.484375 371.390625 Z M -8.484375 210.128906 L 161.625 273.226562 C 161.625 284.085938 152.820312 292.890625 141.960938 292.890625 C 131.097656 292.890625 122.296875 284.085938 122.296875 273.226562 C 122.296875 262.367188 131.097656 253.5625 141.960938 253.5625 C 152.820312 253.5625 161.625 262.367188 161.625 273.226562 Z M -8.484375 210.128906 "/>
</clipPath>
<clipPath id="clip60">
  <path d="M -8.484375 210.128906 L 306.566406 210.128906 L 306.566406 371.390625 L -8.484375 371.390625 Z M -8.484375 210.128906 L 175.785156 308.292969 C 175.785156 319.152344 166.980469 327.957031 156.121094 327.957031 C 145.261719 327.957031 136.457031 319.152344 136.457031 308.292969 C 136.457031 297.433594 145.261719 288.628906 156.121094 288.628906 C 166.980469 288.628906 175.785156 297.433594 175.785156 308.292969 Z M -8.484375 210.128906 "/>
</clipPath>
<clipPath id="clip61">
  <path d="M 39 352.289062 L 157 352.289062 L 157 451.234375 L 39 451.234375 Z M 39 352.289062 "/>
</clipPath>
<clipPath id="clip62">
  <path d="M -65.945312 352.289062 L 262.128906 352.289062 L 262.128906 451.234375 L -65.945312 451.234375 Z M -65.945312 352.289062 L 115.207031 435.339844 C 115.207031 446.199219 106.402344 455.003906 95.542969 455.003906 C 84.679688 455.003906 75.878906 446.199219 75.878906 435.339844 C 75.878906 424.480469 84.679688 415.675781 95.542969 415.675781 C 106.402344 415.675781 115.207031 424.480469 115.207031 435.339844 Z M -65.945312 352.289062 "/>
</clipPath>
<clipPath id="clip63">
  <path d="M -65.945312 352.289062 L 262.128906 352.289062 L 262.128906 451.234375 L -65.945312 451.234375 Z M -65.945312 352.289062 L 120.304688 368.183594 C 120.304688 379.042969 111.5 387.847656 100.640625 387.847656 C 89.777344 387.847656 80.976562 379.042969 80.976562 368.183594 C 80.976562 357.324219 89.777344 348.519531 100.640625 348.519531 C 111.5 348.519531 120.304688 357.324219 120.304688 368.183594 Z M -65.945312 352.289062 "/>
</clipPath>
<clipPath id="clip64">
  <path d="M 45 252 L 212 252 L 212 424 L 45 424 Z M 45 252 "/>
</clipPath>
<clipPath id="clip65">
  <path d="M -19.207031 196.980469 L 275.96875 196.980469 L 275.96875 479.496094 L -19.207031 479.496094 Z M -19.207031 196.980469 L 175.785156 308.292969 C 175.785156 319.152344 166.980469 327.957031 156.121094 327.957031 C 145.261719 327.957031 136.457031 319.152344 136.457031 308.292969 C 136.457031 297.433594 145.261719 288.628906 156.121094 288.628906 C 166.980469 288.628906 175.785156 297.433594 175.785156 308.292969 Z M -19.207031 196.980469 "/>
</clipPath>
<clipPath id="clip66">
  <path d="M -19.207031 196.980469 L 275.96875 196.980469 L 275.96875 479.496094 L -19.207031 479.496094 Z M -19.207031 196.980469 L 120.304688 368.183594 C 120.304688 379.042969 111.5 387.847656 100.640625 387.847656 C 89.777344 387.847656 80.976562 379.042969 80.976562 368.183594 C 80.976562 357.324219 89.777344 348.519531 100.640625 348.519531 C 111.5 348.519531 120.304688 357.324219 120.304688 368.183594 Z M -19.207031 196.980469 "/>
</clipPath>
</defs>
<g id="surface51">
<g clip-path="url(#clip1)" clip-rule="nonzero">
<g clip-path="url(#clip2)" clip-rule="evenodd">
<g clip-path="url(#clip3)" clip-rule="evenodd">
<path style="fill:none;stroke-width:0.0248903;stroke-linecap:butt;stroke-linejoin:miter;stroke:rgb(17.96875%,20.3125%,21.09375%);stroke-opacity:0.8;stroke-miterlimit:10;" d="M 2.85831 2.453527 L 3.228225 2.644431 " transform="matrix(158.007175,0,0,158.007175,-147.82092,-172.924936)"/>
</g>
</g>
</g>
<g clip-path="url(#clip4)" clip-rule="nonzero">
<g clip-path="url(#clip5)" clip-rule="evenodd">
<g clip-path="url(#clip6)" clip-rule="evenodd">
<path style="fill:none;stroke-width:0.0248903;stroke-linecap:butt;stroke-linejoin:miter;stroke:rgb(17.96875%,20.3125%,21.09375%);stroke-opacity:0.8;stroke-miterlimit:10;" d="M 2.85831 2.453527 L 2.426417 2.735506 " transform="matrix(158.007175,0,0,158.007175,-147.82092,-172.924936)"/>
</g>
</g>
</g>
<g clip-path="url(#clip7)" clip-rule="nonzero">
<g clip-path="url(#clip8)" clip-rule="evenodd">
<g clip-path="url(#clip9)" clip-rule="evenodd">
<path style="fill:none;stroke-width:0.0248903;stroke-linecap:butt;stroke-linejoin:miter;stroke:rgb(17.96875%,20.3125%,21.09375%);stroke-opacity:0.8;stroke-miterlimit:10;" d="M 2.85831 2.453527 L 2.999695 2.095034 " transform="matrix(158.007175,0,0,158.007175,-147.82092,-172.924936)"/>
</g>
</g>
</g>
<g clip-path="url(#clip10)" clip-rule="nonzero">
<g clip-path="url(#clip11)" clip-rule="evenodd">
<g clip-path="url(#clip12)" clip-rule="evenodd">
<path style="fill:none;stroke-width:0.0248903;stroke-linecap:butt;stroke-linejoin:miter;stroke:rgb(17.96875%,20.3125%,21.09375%);stroke-opacity:0.8;stroke-miterlimit:10;" d="M 2.811758 1.589667 L 2.614081 1.354858 " transform="matrix(158.007175,0,0,158.007175,-147.82092,-172.924936)"/>
</g>
</g>
</g>
<g clip-path="url(#clip13)" clip-rule="nonzero">
<g clip-path="url(#clip14)" clip-rule="evenodd">
<g clip-path="url(#clip15)" clip-rule="evenodd">
<path style="fill:none;stroke-width:0.0248903;stroke-linecap:butt;stroke-linejoin:miter;stroke:rgb(17.96875%,20.3125%,21.09375%);stroke-opacity:0.8;stroke-miterlimit:10;" d="M 2.811758 1.589667 L 2.999695 2.095034 " transform="matrix(158.007175,0,0,158.007175,-147.82092,-172.924936)"/>
</g>
</g>
</g>
<g clip-path="url(#clip16)" clip-rule="nonzero">
<g clip-path="url(#clip17)" clip-rule="evenodd">
<g clip-path="url(#clip18)" clip-rule="evenodd">
<path style="fill:none;stroke-width:0.0248903;stroke-linecap:butt;stroke-linejoin:miter;stroke:rgb(17.96875%,20.3125%,21.09375%);stroke-opacity:0.8;stroke-miterlimit:10;" d="M 3.228225 2.644431 L 2.426417 2.735506 " transform="matrix(158.007175,0,0,158.007175,-147.82092,-172.924936)"/>
</g>
</g>
</g>
<g clip-path="url(#clip19)" clip-rule="nonzero">
<g clip-path="url(#clip20)" clip-rule="evenodd">
<g clip-path="url(#clip21)" clip-rule="evenodd">
<path style="fill:none;stroke-width:0.0248903;stroke-linecap:butt;stroke-linejoin:miter;stroke:rgb(17.96875%,20.3125%,21.09375%);stroke-opacity:0.8;stroke-miterlimit:10;" d="M 3.228225 2.644431 L 2.999695 2.095034 " transform="matrix(158.007175,0,0,158.007175,-147.82092,-172.924936)"/>
</g>
</g>
</g>
<g clip-path="url(#clip22)" clip-rule="nonzero">
<g clip-path="url(#clip23)" clip-rule="evenodd">
<g clip-path="url(#clip24)" clip-rule="evenodd">
<path style="fill:none;stroke-width:0.0248903;stroke-linecap:butt;stroke-linejoin:miter;stroke:rgb(17.96875%,20.3125%,21.09375%);stroke-opacity:0.8;stroke-miterlimit:10;" d="M 3.228225 2.644431 L 3.865879 2.357557 " transform="matrix(158.007175,0,0,158.007175,-147.82092,-172.924936)"/>
</g>
</g>
</g>
<g clip-path="url(#clip25)" clip-rule="nonzero">
<g clip-path="url(#clip26)" clip-rule="evenodd">
<g clip-path="url(#clip27)" clip-rule="evenodd">
<path style="fill:none;stroke-width:0.0248903;stroke-linecap:butt;stroke-linejoin:miter;stroke:rgb(17.96875%,20.3125%,21.09375%);stroke-opacity:0.8;stroke-miterlimit:10;" d="M 3.228225 2.644431 L 3.727856 3.504113 " transform="matrix(158.007175,0,0,158.007175,-147.82092,-172.924936)"/>
</g>
</g>
</g>
<g clip-path="url(#clip28)" clip-rule="nonzero">
<g clip-path="url(#clip29)" clip-rule="evenodd">
<g clip-path="url(#clip30)" clip-rule="evenodd">
<path style="fill:none;stroke-width:0.0248903;stroke-linecap:butt;stroke-linejoin:miter;stroke:rgb(17.96875%,20.3125%,21.09375%);stroke-opacity:0.8;stroke-miterlimit:10;" d="M 2.426417 2.735506 L 1.833979 2.823615 " transform="matrix(158.007175,0,0,158.007175,-147.82092,-172.924936)"/>
</g>
</g>
</g>
<g clip-path="url(#clip31)" clip-rule="nonzero">
<g clip-path="url(#clip32)" clip-rule="evenodd">
<g clip-path="url(#clip33)" clip-rule="evenodd">
<path style="fill:none;stroke-width:0.0248903;stroke-linecap:butt;stroke-linejoin:miter;stroke:rgb(17.96875%,20.3125%,21.09375%);stroke-opacity:0.8;stroke-miterlimit:10;" d="M 2.426417 2.735506 L 1.923596 3.045545 " transform="matrix(158.007175,0,0,158.007175,-147.82092,-172.924936)"/>
</g>
</g>
</g>
<g clip-path="url(#clip34)" clip-rule="nonzero">
<g clip-path="url(#clip35)" clip-rule="evenodd">
<g clip-path="url(#clip36)" clip-rule="evenodd">
<path style="fill:none;stroke-width:0.0248903;stroke-linecap:butt;stroke-linejoin:miter;stroke:rgb(17.96875%,20.3125%,21.09375%);stroke-opacity:0.8;stroke-miterlimit:10;" d="M 4.204866 2.209497 L 3.865879 2.357557 " transform="matrix(158.007175,0,0,158.007175,-147.82092,-172.924936)"/>
</g>
</g>
</g>
<g clip-path="url(#clip37)" clip-rule="nonzero">
<g clip-path="url(#clip38)" clip-rule="evenodd">
<g clip-path="url(#clip39)" clip-rule="evenodd">
<path style="fill:none;stroke-width:0.0248903;stroke-linecap:butt;stroke-linejoin:miter;stroke:rgb(17.96875%,20.3125%,21.09375%);stroke-opacity:0.8;stroke-miterlimit:10;" d="M 2.848619 4.631262 L 3.115047 4.45403 " transform="matrix(158.007175,0,0,158.007175,-147.82092,-172.924936)"/>
</g>
</g>
</g>
<g clip-path="url(#clip40)" clip-rule="nonzero">
<g clip-path="url(#clip41)" clip-rule="evenodd">
<g clip-path="url(#clip42)" clip-rule="evenodd">
<path style="fill:none;stroke-width:0.0248903;stroke-linecap:butt;stroke-linejoin:miter;stroke:rgb(17.96875%,20.3125%,21.09375%);stroke-opacity:0.8;stroke-miterlimit:10;" d="M 4.168253 3.431158 L 3.727856 3.504113 " transform="matrix(158.007175,0,0,158.007175,-147.82092,-172.924936)"/>
</g>
</g>
</g>
<g clip-path="url(#clip43)" clip-rule="nonzero">
<g clip-path="url(#clip44)" clip-rule="evenodd">
<g clip-path="url(#clip45)" clip-rule="evenodd">
<path style="fill:none;stroke-width:0.0248903;stroke-linecap:butt;stroke-linejoin:miter;stroke:rgb(17.96875%,20.3125%,21.09375%);stroke-opacity:0.8;stroke-miterlimit:10;" d="M 3.115047 4.45403 L 3.430994 4.095635 " transform="matrix(158.007175,0,0,158.007175,-147.82092,-172.924936)"/>
</g>
</g>
</g>
<g clip-path="url(#clip46)" clip-rule="nonzero">
<g clip-path="url(#clip47)" clip-rule="evenodd">
<g clip-path="url(#clip48)" clip-rule="evenodd">
<path style="fill:none;stroke-width:0.0248903;stroke-linecap:butt;stroke-linejoin:miter;stroke:rgb(17.96875%,20.3125%,21.09375%);stroke-opacity:0.8;stroke-miterlimit:10;" d="M 3.430994 4.095635 L 3.727856 3.504113 " transform="matrix(158.007175,0,0,158.007175,-147.82092,-172.924936)"/>
</g>
</g>
</g>
<g clip-path="url(#clip49)" clip-rule="nonzero">
<g clip-path="url(#clip50)" clip-rule="evenodd">
<g clip-path="url(#clip51)" clip-rule="evenodd">
<path style="fill:none;stroke-width:0.0248903;stroke-linecap:butt;stroke-linejoin:miter;stroke:rgb(17.96875%,20.3125%,21.09375%);stroke-opacity:0.8;stroke-miterlimit:10;" d="M 3.727856 3.504113 L 4.023036 3.794373 " transform="matrix(158.007175,0,0,158.007175,-147.82092,-172.924936)"/>
</g>
</g>
</g>
<g clip-path="url(#clip52)" clip-rule="nonzero">
<g clip-path="url(#clip53)" clip-rule="evenodd">
<g clip-path="url(#clip54)" clip-rule="evenodd">
<path style="fill:none;stroke-width:0.0248903;stroke-linecap:butt;stroke-linejoin:miter;stroke:rgb(17.96875%,20.3125%,21.09375%);stroke-opacity:0.8;stroke-miterlimit:10;" d="M 1.463496 3.064679 L 1.833979 2.823615 " transform="matrix(158.007175,0,0,158.007175,-147.82092,-172.924936)"/>
</g>
</g>
</g>
<g clip-path="url(#clip55)" clip-rule="nonzero">
<g clip-path="url(#clip56)" clip-rule="evenodd">
<g clip-path="url(#clip57)" clip-rule="evenodd">
<path style="fill:none;stroke-width:0.0248903;stroke-linecap:butt;stroke-linejoin:miter;stroke:rgb(17.96875%,20.3125%,21.09375%);stroke-opacity:0.8;stroke-miterlimit:10;" d="M 1.463496 3.064679 L 1.57247 3.424582 " transform="matrix(158.007175,0,0,158.007175,-147.82092,-172.924936)"/>
</g>
</g>
</g>
<g clip-path="url(#clip58)" clip-rule="nonzero">
<g clip-path="url(#clip59)" clip-rule="evenodd">
<g clip-path="url(#clip60)" clip-rule="evenodd">
<path style="fill:none;stroke-width:0.0248903;stroke-linecap:butt;stroke-linejoin:miter;stroke:rgb(17.96875%,20.3125%,21.09375%);stroke-opacity:0.8;stroke-miterlimit:10;" d="M 1.833979 2.823615 L 1.923596 3.045545 " transform="matrix(158.007175,0,0,158.007175,-147.82092,-172.924936)"/>
</g>
</g>
</g>
<g clip-path="url(#clip61)" clip-rule="nonzero">
<g clip-path="url(#clip62)" clip-rule="evenodd">
<g clip-path="url(#clip63)" clip-rule="evenodd">
<path style="fill:none;stroke-width:0.0248903;stroke-linecap:butt;stroke-linejoin:miter;stroke:rgb(17.96875%,20.3125%,21.09375%);stroke-opacity:0.8;stroke-miterlimit:10;" d="M 1.540208 3.849602 L 1.57247 3.424582 " transform="matrix(158.007175,0,0,158.007175,-147.82092,-172.924936)"/>
</g>
</g>
</g>
<g clip-path="url(#clip64)" clip-rule="nonzero">
<g clip-path="url(#clip65)" clip-rule="evenodd">
<g clip-path="url(#clip66)" clip-rule="evenodd">
<path style="fill:none;stroke-width:0.0248903;stroke-linecap:butt;stroke-linejoin:miter;stroke:rgb(17.96875%,20.3125%,21.09375%);stroke-opacity:0.8;stroke-miterlimit:10;" d="M 1.923596 3.045545 L 1.57247 3.424582 " transform="matrix(158.007175,0,0,158.007175,-147.82092,-172.924936)"/>
</g>
</g>
</g>
<path style="fill-rule:nonzero;fill:rgb(100%,92.941176%,43.529412%);fill-opacity:1;stroke-width:0.0248903;stroke-linecap:butt;stroke-linejoin:miter;stroke:rgb(60%,60%,60%);stroke-opacity:0.8;stroke-miterlimit:10;" d="M 0.124449 -0.0000110191 C 0.124449 0.0687408 0.0687254 0.124439 -0.00000173386 0.124439 C -0.0687288 0.124439 -0.124452 0.0687408 -0.124452 -0.0000110191 C -0.124452 -0.0687381 -0.0687288 -0.124461 -0.00000173386 -0.124461 C 0.0687254 -0.124461 0.124449 -0.0687381 0.124449 -0.0000110191 Z M 0.124449 -0.0000110191 " transform="matrix(158.007175,0,0,158.007175,303.812774,214.751741)"/>
<path style="fill-rule:nonzero;fill:rgb(100%,92.941176%,43.529412%);fill-opacity:1;stroke-width:0.0248903;stroke-linecap:butt;stroke-linejoin:miter;stroke:rgb(60%,60%,60%);stroke-opacity:0.8;stroke-miterlimit:10;" d="M 0.124452 -0.00000187171 C 0.124452 0.0687252 0.0687283 0.124449 0.00000117924 0.124449 C -0.0687259 0.124449 -0.124449 0.0687252 -0.124449 -0.00000187171 C -0.124449 -0.068729 -0.0687259 -0.124452 0.00000117924 -0.124452 C 0.0687283 -0.124452 0.124452 -0.068729 0.124452 -0.00000187171 Z M 0.124452 -0.00000187171 " transform="matrix(158.007175,0,0,158.007175,296.456845,78.254202)"/>
<path style="fill-rule:nonzero;fill:rgb(100%,92.941176%,43.529412%);fill-opacity:1;stroke-width:0.0248903;stroke-linecap:butt;stroke-linejoin:miter;stroke:rgb(60%,60%,60%);stroke-opacity:0.8;stroke-miterlimit:10;" d="M 0.124442 0.0000114679 C 0.124442 0.0687386 0.0687434 0.124462 -0.00000842716 0.124462 C -0.0687355 0.124462 -0.124459 0.0687386 -0.124459 0.0000114679 C -0.124459 -0.0687404 -0.0687355 -0.124464 -0.00000842716 -0.124464 C 0.0687434 -0.124464 0.124442 -0.0687404 0.124442 0.0000114679 Z M 0.124442 0.0000114679 " transform="matrix(158.007175,0,0,158.007175,362.26305,244.91225)"/>
<path style="fill-rule:nonzero;fill:rgb(100%,92.941176%,43.529412%);fill-opacity:1;stroke-width:0.0248903;stroke-linecap:butt;stroke-linejoin:miter;stroke:rgb(60%,60%,60%);stroke-opacity:0.8;stroke-miterlimit:10;" d="M 0.124441 0.00000590805 C 0.124441 0.068733 0.0687427 0.124456 -0.00000916987 0.124456 C -0.0687363 0.124456 -0.12446 0.068733 -0.12446 0.00000590805 C -0.12446 -0.0687212 -0.0687363 -0.124445 -0.00000916987 -0.124445 C 0.0687427 -0.124445 0.124441 -0.0687212 0.124441 0.00000590805 Z M 0.124441 0.00000590805 " transform="matrix(158.007175,0,0,158.007175,235.571761,259.303754)"/>
<path style="fill-rule:nonzero;fill:rgb(100%,92.941176%,43.529412%);fill-opacity:1;stroke-width:0.0248903;stroke-linecap:butt;stroke-linejoin:miter;stroke:rgb(60%,60%,60%);stroke-opacity:0.8;stroke-miterlimit:10;" d="M 0.12444 -0.00000664471 C 0.12444 0.0687205 0.0687417 0.124444 -0.0000101116 0.124444 C -0.0687372 0.124444 -0.124461 0.0687205 -0.124461 -0.00000664471 C -0.124461 -0.0687337 -0.0687372 -0.124457 -0.0000101116 -0.124457 C 0.0687417 -0.124457 0.12444 -0.0687337 0.12444 -0.00000664471 Z M 0.12444 -0.00000664471 " transform="matrix(158.007175,0,0,158.007175,265.224254,41.153394)"/>
<path style="fill-rule:nonzero;fill:rgb(100%,92.941176%,43.529412%);fill-opacity:1;stroke-width:0.0248903;stroke-linecap:butt;stroke-linejoin:miter;stroke:rgb(60%,60%,60%);stroke-opacity:0.8;stroke-miterlimit:10;" d="M 0.124457 0.0000072349 C 0.124457 0.0687343 0.0687335 0.124458 0.00000635874 0.124458 C -0.0687207 0.124458 -0.124444 0.0687343 -0.124444 0.0000072349 C -0.124444 -0.0687446 -0.0687207 -0.124443 0.00000635874 -0.124443 C 0.0687335 -0.124443 0.124457 -0.0687446 0.124457 0.0000072349 Z M 0.124457 0.0000072349 " transform="matrix(158.007175,0,0,158.007175,516.57712,176.190263)"/>
<path style="fill-rule:nonzero;fill:rgb(100%,92.941176%,43.529412%);fill-opacity:1;stroke-width:0.0248903;stroke-linecap:butt;stroke-linejoin:miter;stroke:rgb(60%,60%,60%);stroke-opacity:0.8;stroke-miterlimit:10;" d="M 0.124448 -0.0000117635 C 0.124448 0.0687401 0.0687243 0.124463 -0.00000284363 0.124463 C -0.0687299 0.124463 -0.124453 0.0687401 -0.124453 -0.0000117635 C -0.124453 -0.0687389 -0.0687299 -0.124462 -0.00000284363 -0.124462 C 0.0687243 -0.124462 0.124448 -0.0687389 0.124448 -0.0000117635 Z M 0.124448 -0.0000117635 " transform="matrix(158.007175,0,0,158.007175,326.152793,158.107327)"/>
<path style="fill-rule:nonzero;fill:rgb(100%,92.941176%,43.529412%);fill-opacity:1;stroke-width:0.0248903;stroke-linecap:butt;stroke-linejoin:miter;stroke:rgb(60%,60%,60%);stroke-opacity:0.8;stroke-miterlimit:10;" d="M 0.124453 0.00000237997 C 0.124453 0.0687295 0.0687299 0.124453 0.00000275736 0.124453 C -0.0687243 0.124453 -0.124448 0.0687295 -0.124448 0.00000237997 C -0.124448 -0.0687247 -0.0687243 -0.124448 0.00000275736 -0.124448 C 0.0687299 -0.124448 0.124453 -0.0687247 0.124453 0.00000237997 Z M 0.124453 0.00000237997 " transform="matrix(158.007175,0,0,158.007175,463.015189,199.585561)"/>
<path style="fill-rule:nonzero;fill:rgb(100%,92.941176%,43.529412%);fill-opacity:1;stroke-width:0.0248903;stroke-linecap:butt;stroke-linejoin:miter;stroke:rgb(60%,60%,60%);stroke-opacity:0.8;stroke-miterlimit:10;" d="M 0.124447 0.00000664471 C 0.124447 0.0687337 0.0687238 0.124457 -0.00000325267 0.124457 C -0.0687304 0.124457 -0.124454 0.0687337 -0.124454 0.00000664471 C -0.124454 -0.0687205 -0.0687304 -0.124444 -0.00000325267 -0.124444 C 0.0687238 -0.124444 0.124447 -0.0687205 0.124447 0.00000664471 Z M 0.124447 0.00000664471 " transform="matrix(158.007175,0,0,158.007175,302.281764,558.846606)"/>
<path style="fill-rule:nonzero;fill:rgb(100%,92.941176%,43.529412%);fill-opacity:1;stroke-width:0.0248903;stroke-linecap:butt;stroke-linejoin:miter;stroke:rgb(60%,60%,60%);stroke-opacity:0.8;stroke-miterlimit:10;" d="M 0.12445 0.000000210572 C 0.12445 0.0687273 0.0687268 0.124451 -0.000000308039 0.124451 C -0.0687274 0.124451 -0.124451 0.0687273 -0.124451 0.000000210572 C -0.124451 -0.0687269 -0.0687274 -0.12445 -0.000000308039 -0.12445 C 0.0687268 -0.12445 0.12445 -0.0687269 0.12445 0.000000210572 Z M 0.12445 0.000000210572 " transform="matrix(158.007175,0,0,158.007175,510.793017,369.222623)"/>
<path style="fill-rule:nonzero;fill:rgb(100%,92.941176%,43.529412%);fill-opacity:1;stroke-width:0.0248903;stroke-linecap:butt;stroke-linejoin:miter;stroke:rgb(60%,60%,60%);stroke-opacity:0.8;stroke-miterlimit:10;" d="M 0.124445 0.0000052943 C 0.124445 0.0687324 0.0687217 0.124456 -0.00000537163 0.124456 C -0.0687325 0.124456 -0.124456 0.0687324 -0.124456 0.0000052943 C -0.124456 -0.0687218 -0.0687325 -0.124445 -0.00000537163 -0.124445 C 0.0687217 -0.124445 0.124445 -0.0687218 0.124445 0.0000052943 Z M 0.124445 0.0000052943 " transform="matrix(158.007175,0,0,158.007175,344.379755,530.842913)"/>
<path style="fill-rule:nonzero;fill:rgb(100%,92.941176%,43.529412%);fill-opacity:1;stroke-width:0.0248903;stroke-linecap:butt;stroke-linejoin:miter;stroke:rgb(60%,60%,60%);stroke-opacity:0.8;stroke-miterlimit:10;" d="M 0.124461 -0.0000105676 C 0.124461 0.0687413 0.0687374 0.12444 0.0000102994 0.12444 C -0.0687415 0.12444 -0.12444 0.0687413 -0.12444 -0.0000105676 C -0.12444 -0.0687377 -0.0687415 -0.124461 0.0000102994 -0.124461 C 0.0687374 -0.124461 0.124461 -0.0687377 0.124461 -0.0000105676 Z M 0.124461 -0.0000105676 " transform="matrix(158.007175,0,0,158.007175,394.299154,474.216514)"/>
<path style="fill-rule:nonzero;fill:rgb(100%,92.941176%,43.529412%);fill-opacity:1;stroke-width:0.0248903;stroke-linecap:butt;stroke-linejoin:miter;stroke:rgb(60%,60%,60%);stroke-opacity:0.8;stroke-miterlimit:10;" d="M 0.124456 -0.00000658869 C 0.124456 0.0687205 0.0687327 0.124444 0.00000557562 0.124444 C -0.0687215 0.124444 -0.124445 0.0687205 -0.124445 -0.00000658869 C -0.124445 -0.0687337 -0.0687215 -0.124457 0.00000557562 -0.124457 C 0.0687327 -0.124457 0.124456 -0.0687337 0.124456 -0.00000658869 Z M 0.124456 -0.00000658869 " transform="matrix(158.007175,0,0,158.007175,441.20615,380.751041)"/>
<path style="fill-rule:nonzero;fill:rgb(100%,92.941176%,43.529412%);fill-opacity:1;stroke-width:0.0248903;stroke-linecap:butt;stroke-linejoin:miter;stroke:rgb(60%,60%,60%);stroke-opacity:0.8;stroke-miterlimit:10;" d="M 0.124443 0.00000941468 C 0.124443 0.0687365 0.0687448 0.12446 -0.0000070222 0.12446 C -0.0687341 0.12446 -0.124457 0.0687365 -0.124457 0.00000941468 C -0.124457 -0.0687424 -0.0687341 -0.124441 -0.0000070222 -0.124441 C 0.0687448 -0.124441 0.124443 -0.0687424 0.124443 0.00000941468 Z M 0.124443 0.00000941468 " transform="matrix(158.007175,0,0,158.007175,487.848766,426.611794)"/>
<path style="fill-rule:nonzero;fill:rgb(100%,92.941176%,43.529412%);fill-opacity:1;stroke-width:0.0248903;stroke-linecap:butt;stroke-linejoin:miter;stroke:rgb(60%,60%,60%);stroke-opacity:0.8;stroke-miterlimit:10;" d="M 0.124444 0.00000525833 C 0.124444 0.0687324 0.0687207 0.124456 -0.00000635874 0.124456 C -0.0687335 0.124456 -0.124457 0.0687324 -0.124457 0.00000525833 C -0.124457 -0.0687218 -0.0687335 -0.124445 -0.00000635874 -0.124445 C 0.0687207 -0.124445 0.124444 -0.0687218 0.124444 0.00000525833 Z M 0.124444 0.00000525833 " transform="matrix(158.007175,0,0,158.007175,83.42288,311.315575)"/>
<path style="fill-rule:nonzero;fill:rgb(100%,92.941176%,43.529412%);fill-opacity:1;stroke-width:0.0248903;stroke-linecap:butt;stroke-linejoin:miter;stroke:rgb(60%,60%,60%);stroke-opacity:0.8;stroke-miterlimit:10;" d="M 0.124459 0.00000473754 C 0.124459 0.0687318 0.068736 0.124455 0.00000894155 0.124455 C -0.0687429 0.124455 -0.124441 0.0687318 -0.124441 0.00000473754 C -0.124441 -0.0687224 -0.0687429 -0.124446 0.00000894155 -0.124446 C 0.068736 -0.124446 0.124459 -0.0687224 0.124459 0.00000473754 Z M 0.124459 0.00000473754 " transform="matrix(158.007175,0,0,158.007175,141.959525,273.225814)"/>
<path style="fill-rule:nonzero;fill:rgb(55.294118%,82.745098%,78.039216%);fill-opacity:1;stroke-width:0.0248903;stroke-linecap:butt;stroke-linejoin:miter;stroke:rgb(60%,60%,60%);stroke-opacity:0.8;stroke-miterlimit:10;" d="M 0.124461 0.00000201626 C 0.124461 0.0687291 0.068738 0.124452 0.0000108708 0.124452 C -0.068741 0.124452 -0.12444 0.0687291 -0.12444 0.00000201626 C -0.12444 -0.0687251 -0.068741 -0.124448 0.0000108708 -0.124448 C 0.068738 -0.124448 0.124461 -0.0687251 0.124461 0.00000201626 Z M 0.124461 0.00000201626 " transform="matrix(158.007175,0,0,158.007175,95.541251,435.339525)"/>
<path style="fill-rule:nonzero;fill:rgb(55.294118%,82.745098%,78.039216%);fill-opacity:1;stroke-width:0.0248903;stroke-linecap:butt;stroke-linejoin:miter;stroke:rgb(60%,60%,60%);stroke-opacity:0.8;stroke-miterlimit:10;" d="M 0.124452 -0.00000112516 C 0.124452 0.068726 0.0687282 0.124449 0.00000107342 0.124449 C -0.068726 0.124449 -0.124449 0.068726 -0.124449 -0.00000112516 C -0.124449 -0.0687282 -0.068726 -0.124452 0.00000107342 -0.124452 C 0.0687282 -0.124452 0.124452 -0.0687282 0.124452 -0.00000112516 Z M 0.124452 -0.00000112516 " transform="matrix(158.007175,0,0,158.007175,156.120924,308.293147)"/>
<path style="fill-rule:nonzero;fill:rgb(55.294118%,82.745098%,78.039216%);fill-opacity:1;stroke-width:0.0248903;stroke-linecap:butt;stroke-linejoin:miter;stroke:rgb(60%,60%,60%);stroke-opacity:0.8;stroke-miterlimit:10;" d="M 0.124458 -0.00000390148 C 0.124458 0.0687232 0.0687344 0.124447 0.00000725492 0.124447 C -0.0687446 0.124447 -0.124443 0.0687232 -0.124443 -0.00000390148 C -0.124443 -0.068731 -0.0687446 -0.124454 0.00000725492 -0.124454 C 0.0687344 -0.124454 0.124458 -0.068731 0.124458 -0.00000390148 Z M 0.124458 -0.00000390148 " transform="matrix(158.007175,0,0,158.007175,100.639479,368.18421)"/>
</g>
</svg>
