<?xml version="1.0" encoding="UTF-8"?>
<svg xmlns="http://www.w3.org/2000/svg" xmlns:xlink="http://www.w3.org/1999/xlink" width="600pt" height="600pt" viewBox="0 0 600 600" version="1.1">
<defs>
<clipPath id="clip1">
  <path d="M 223 215 L 383 215 L 383 392 L 223 392 Z M 223 215 "/>
</clipPath>
<clipPath id="clip2">
  <path d="M 137.269531 165.628906 L 468.742188 165.628906 L 468.742188 441.902344 L 137.269531 441.902344 Z M 137.269531 165.628906 L 298.65625 336.316406 C 298.65625 347.175781 289.851562 355.980469 278.992188 355.980469 C 268.132812 355.980469 259.328125 347.175781 259.328125 336.316406 C 259.328125 325.457031 268.132812 316.652344 278.992188 316.652344 C 289.851562 316.652344 298.65625 325.457031 298.65625 336.316406 Z M 137.269531 165.628906 "/>
</clipPath>
<clipPath id="clip3">
  <path d="M 137.269531 165.628906 L 468.742188 165.628906 L 468.742188 441.902344 L 137.269531 441.902344 Z M 137.269531 165.628906 L 346.683594 271.214844 C 346.683594 282.078125 337.878906 290.878906 327.019531 290.878906 C 316.160156 290.878906 307.355469 282.078125 307.355469 271.214844 C 307.355469 260.355469 316.160156 251.550781 327.019531 251.550781 C 337.878906 251.550781 346.683594 260.355469 346.683594 271.214844 Z M 137.269531 165.628906 "/>
</clipPath>
<clipPath id="clip4">
  <path d="M 153 237 L 335 237 L 335 392 L 153 392 Z M 153 237 "/>
</clipPath>
<clipPath id="clip5">
  <path d="M 114.503906 143.714844 L 373.949219 143.714844 L 373.949219 485.277344 L 114.503906 485.277344 Z M 114.503906 143.714844 L 298.65625 336.316406 C 298.65625 347.175781 289.851562 355.980469 278.992188 355.980469 C 268.132812 355.980469 259.328125 347.175781 259.328125 336.316406 C 259.328125 325.457031 268.132812 316.652344 278.992188 316.652344 C 289.851562 316.652344 298.65625 325.457031 298.65625 336.316406 Z M 114.503906 143.714844 "/>
</clipPath>
<clipPath id="clip6">
  <path d="M 114.503906 143.714844 L 373.949219 143.714844 L 373.949219 485.277344 L 114.503906 485.277344 Z M 114.503906 143.714844 L 229.125 292.675781 C 229.125 303.539062 220.320312 312.34375 209.460938 312.34375 C 198.601562 312.34375 189.796875 303.539062 189.796875 292.675781 C 189.796875 281.816406 198.601562 273.011719 209.460938 273.011719 C 220.320312 273.011719 229.125 281.816406 229.125 292.675781 Z M 114.503906 143.714844 "/>
</clipPath>
<clipPath id="clip7">
  <path d="M 223 287.125 L 353 287.125 L 353 450.347656 L 223 450.347656 Z M 223 287.125 "/>
</clipPath>
<clipPath id="clip8">
  <path d="M 109.921875 287.125 L 465.832031 287.125 L 465.832031 450.347656 L 109.921875 450.347656 Z M 109.921875 287.125 L 298.65625 336.316406 C 298.65625 347.175781 289.851562 355.980469 278.992188 355.980469 C 268.132812 355.980469 259.328125 347.175781 259.328125 336.316406 C 259.328125 325.457031 268.132812 316.652344 278.992188 316.652344 C 289.851562 316.652344 298.65625 325.457031 298.65625 336.316406 Z M 109.921875 287.125 "/>
</clipPath>
<clipPath id="clip9">
  <path d="M 109.921875 287.125 L 465.832031 287.125 L 465.832031 450.347656 L 109.921875 450.347656 Z M 109.921875 287.125 L 316.425781 401.15625 C 316.425781 412.015625 307.621094 420.820312 296.761719 420.820312 C 285.898438 420.820312 277.097656 412.015625 277.097656 401.15625 C 277.097656 390.296875 285.898438 381.492188 296.761719 381.492188 C 307.621094 381.492188 316.425781 390.296875 316.425781 401.15625 Z M 109.921875 287.125 "/>
</clipPath>
<clipPath id="clip10">
  <path d="M 200 451 L 329 451 L 329 600 L 200 600 Z M 200 451 "/>
</clipPath>
<clipPath id="clip11">
  <path d="M 89.523438 448.398438 L 439.496094 448.398438 L 439.496094 617.285156 L 89.523438 617.285156 Z M 89.523438 448.398438 L 292.90625 506.835938 C 292.90625 517.695312 284.105469 526.5 273.242188 526.5 C 262.382812 526.5 253.578125 517.695312 253.578125 506.835938 C 253.578125 495.976562 262.382812 487.171875 273.242188 487.171875 C 284.105469 487.171875 292.90625 495.976562 292.90625 506.835938 Z M 89.523438 448.398438 "/>
</clipPath>
<clipPath id="clip12">
  <path d="M 89.523438 448.398438 L 439.496094 448.398438 L 439.496094 617.285156 L 89.523438 617.285156 Z M 89.523438 448.398438 L 275.441406 558.847656 C 275.441406 569.707031 266.636719 578.511719 255.777344 578.511719 C 244.917969 578.511719 236.113281 569.707031 236.113281 558.847656 C 236.113281 547.988281 244.917969 539.183594 255.777344 539.183594 C 266.636719 539.183594 275.441406 547.988281 275.441406 558.847656 Z M 89.523438 448.398438 "/>
</clipPath>
<clipPath id="clip13">
  <path d="M 217 360.027344 L 353 360.027344 L 353 547.964844 L 217 547.964844 Z M 217 360.027344 "/>
</clipPath>
<clipPath id="clip14">
  <path d="M 102.171875 360.027344 L 467.832031 360.027344 L 467.832031 547.964844 L 102.171875 547.964844 Z M 102.171875 360.027344 L 292.90625 506.835938 C 292.90625 517.695312 284.105469 526.5 273.242188 526.5 C 262.382812 526.5 253.578125 517.695312 253.578125 506.835938 C 253.578125 495.976562 262.382812 487.171875 273.242188 487.171875 C 284.105469 487.171875 292.90625 495.976562 292.90625 506.835938 Z M 102.171875 360.027344 "/>
</clipPath>
<clipPath id="clip15">
  <path d="M 102.171875 360.027344 L 467.832031 360.027344 L 467.832031 547.964844 L 102.171875 547.964844 Z M 102.171875 360.027344 L 316.425781 401.15625 C 316.425781 412.015625 307.621094 420.820312 296.761719 420.820312 C 285.898438 420.820312 277.097656 412.015625 277.097656 401.15625 C 277.097656 390.296875 285.898438 381.492188 296.761719 381.492188 C 307.621094 381.492188 316.425781 390.296875 316.425781 401.15625 Z M 102.171875 360.027344 "/>
</clipPath>
<clipPath id="clip16">
  <path d="M 174.777344 215 L 361.703125 215 L 361.703125 349 L 174.777344 349 Z M 174.777344 215 "/>
</clipPath>
<clipPath id="clip17">
  <path d="M 174.777344 98.839844 L 361.703125 98.839844 L 361.703125 465.050781 L 174.777344 465.050781 Z M 174.777344 98.839844 L 346.683594 271.214844 C 346.683594 282.078125 337.878906 290.878906 327.019531 290.878906 C 316.160156 290.878906 307.355469 282.078125 307.355469 271.214844 C 307.355469 260.355469 316.160156 251.550781 327.019531 251.550781 C 337.878906 251.550781 346.683594 260.355469 346.683594 271.214844 Z M 174.777344 98.839844 "/>
</clipPath>
<clipPath id="clip18">
  <path d="M 174.777344 98.839844 L 361.703125 98.839844 L 361.703125 465.050781 L 174.777344 465.050781 Z M 174.777344 98.839844 L 229.125 292.675781 C 229.125 303.539062 220.320312 312.34375 209.460938 312.34375 C 198.601562 312.34375 189.796875 303.539062 189.796875 292.675781 C 189.796875 281.816406 198.601562 273.011719 209.460938 273.011719 C 220.320312 273.011719 229.125 281.816406 229.125 292.675781 Z M 174.777344 98.839844 "/>
</clipPath>
<clipPath id="clip19">
  <path d="M 241 228.449219 L 383 228.449219 L 383 443.921875 L 241 443.921875 Z M 241 228.449219 "/>
</clipPath>
<clipPath id="clip20">
  <path d="M 126.0625 228.449219 L 497.71875 228.449219 L 497.71875 443.921875 L 126.0625 443.921875 Z M 126.0625 228.449219 L 346.683594 271.214844 C 346.683594 282.078125 337.878906 290.878906 327.019531 290.878906 C 316.160156 290.878906 307.355469 282.078125 307.355469 271.214844 C 307.355469 260.355469 316.160156 251.550781 327.019531 251.550781 C 337.878906 251.550781 346.683594 260.355469 346.683594 271.214844 Z M 126.0625 228.449219 "/>
</clipPath>
<clipPath id="clip21">
  <path d="M 126.0625 228.449219 L 497.71875 228.449219 L 497.71875 443.921875 L 126.0625 443.921875 Z M 126.0625 228.449219 L 316.425781 401.15625 C 316.425781 412.015625 307.621094 420.820312 296.761719 420.820312 C 285.898438 420.820312 277.097656 412.015625 277.097656 401.15625 C 277.097656 390.296875 285.898438 381.492188 296.761719 381.492188 C 307.621094 381.492188 316.425781 390.296875 316.425781 401.15625 Z M 126.0625 228.449219 "/>
</clipPath>
<clipPath id="clip22">
  <path d="M 271 105.046875 L 393 105.046875 L 393 286.320312 L 271 286.320312 Z M 271 105.046875 "/>
</clipPath>
<clipPath id="clip23">
  <path d="M 152.226562 105.046875 L 511.691406 105.046875 L 511.691406 286.320312 L 152.226562 286.320312 Z M 152.226562 105.046875 L 346.683594 271.214844 C 346.683594 282.078125 337.878906 290.878906 327.019531 290.878906 C 316.160156 290.878906 307.355469 282.078125 307.355469 271.214844 C 307.355469 260.355469 316.160156 251.550781 327.019531 251.550781 C 337.878906 251.550781 346.683594 260.355469 346.683594 271.214844 Z M 152.226562 105.046875 "/>
</clipPath>
<clipPath id="clip24">
  <path d="M 152.226562 105.046875 L 511.691406 105.046875 L 511.691406 286.320312 L 152.226562 286.320312 Z M 152.226562 105.046875 L 356.566406 120.152344 C 356.566406 131.011719 347.761719 139.816406 336.898438 139.816406 C 326.039062 139.816406 317.234375 131.011719 317.234375 120.152344 C 317.234375 109.292969 326.039062 100.488281 336.898438 100.488281 C 347.761719 100.488281 356.566406 109.292969 356.566406 120.152344 Z M 152.226562 105.046875 "/>
</clipPath>
<clipPath id="clip25">
  <path d="M 279.359375 175 L 525.726562 175 L 525.726562 327 L 279.359375 327 Z M 279.359375 175 "/>
</clipPath>
<clipPath id="clip26">
  <path d="M 279.359375 61.835938 L 525.726562 61.835938 L 525.726562 440.699219 L 279.359375 440.699219 Z M 279.359375 61.835938 L 346.683594 271.214844 C 346.683594 282.078125 337.878906 290.878906 327.019531 290.878906 C 316.160156 290.878906 307.355469 282.078125 307.355469 271.214844 C 307.355469 260.355469 316.160156 251.550781 327.019531 251.550781 C 337.878906 251.550781 346.683594 260.355469 346.683594 271.214844 Z M 279.359375 61.835938 "/>
</clipPath>
<clipPath id="clip27">
  <path d="M 279.359375 61.835938 L 525.726562 61.835938 L 525.726562 440.699219 L 279.359375 440.699219 Z M 279.359375 61.835938 L 497.730469 231.320312 C 497.730469 242.179688 488.925781 250.984375 478.066406 250.984375 C 467.207031 250.984375 458.402344 242.179688 458.402344 231.320312 C 458.402344 220.460938 467.207031 211.65625 478.066406 211.65625 C 488.925781 211.65625 497.730469 220.460938 497.730469 231.320312 Z M 279.359375 61.835938 "/>
</clipPath>
<clipPath id="clip28">
  <path d="M 109.910156 237 L 213.605469 237 L 213.605469 349 L 109.910156 349 Z M 109.910156 237 "/>
</clipPath>
<clipPath id="clip29">
  <path d="M 109.910156 117.515625 L 213.605469 117.515625 L 213.605469 467.953125 L 109.910156 467.953125 Z M 109.910156 117.515625 L 229.125 292.675781 C 229.125 303.539062 220.320312 312.34375 209.460938 312.34375 C 198.601562 312.34375 189.796875 303.539062 189.796875 292.675781 C 189.796875 281.816406 198.601562 273.011719 209.460938 273.011719 C 220.320312 273.011719 229.125 281.816406 229.125 292.675781 Z M 109.910156 117.515625 "/>
</clipPath>
<clipPath id="clip30">
  <path d="M 109.910156 117.515625 L 213.605469 117.515625 L 213.605469 467.953125 L 109.910156 467.953125 Z M 109.910156 117.515625 L 133.71875 292.792969 C 133.71875 303.652344 124.917969 312.457031 114.054688 312.457031 C 103.195312 312.457031 94.390625 303.652344 94.390625 292.792969 C 94.390625 281.933594 103.195312 273.128906 114.054688 273.128906 C 124.917969 273.128906 133.71875 281.933594 133.71875 292.792969 Z M 109.910156 117.515625 "/>
</clipPath>
<clipPath id="clip31">
  <path d="M 76 196 L 266 196 L 266 349 L 76 349 Z M 76 196 "/>
</clipPath>
<clipPath id="clip32">
  <path d="M 48.050781 96.410156 L 293.390625 96.410156 L 293.390625 448 L 48.050781 448 Z M 48.050781 96.410156 L 229.125 292.675781 C 229.125 303.539062 220.320312 312.34375 209.460938 312.34375 C 198.601562 312.34375 189.796875 303.539062 189.796875 292.675781 C 189.796875 281.816406 198.601562 273.011719 209.460938 273.011719 C 220.320312 273.011719 229.125 281.816406 229.125 292.675781 Z M 48.050781 96.410156 "/>
</clipPath>
<clipPath id="clip33">
  <path d="M 48.050781 96.410156 L 293.390625 96.410156 L 293.390625 448 L 48.050781 448 Z M 48.050781 96.410156 L 151.644531 251.734375 C 151.644531 262.597656 142.839844 271.402344 131.980469 271.402344 C 121.121094 271.402344 112.316406 262.597656 112.316406 251.734375 C 112.316406 240.875 121.121094 232.070312 131.980469 232.070312 C 142.839844 232.070312 151.644531 240.875 151.644531 251.734375 Z M 48.050781 96.410156 "/>
</clipPath>
<clipPath id="clip34">
  <path d="M 281 27.429688 L 398 27.429688 L 398 133.875 L 281 133.875 Z M 281 27.429688 "/>
</clipPath>
<clipPath id="clip35">
  <path d="M 162.019531 27.429688 L 516.300781 27.429688 L 516.300781 133.875 L 162.019531 133.875 Z M 162.019531 27.429688 L 361.085938 41.152344 C 361.085938 52.011719 352.285156 60.816406 341.421875 60.816406 C 330.5625 60.816406 321.757812 52.011719 321.757812 41.152344 C 321.757812 30.292969 330.5625 21.488281 341.421875 21.488281 C 352.285156 21.488281 361.085938 30.292969 361.085938 41.152344 Z M 162.019531 27.429688 "/>
</clipPath>
<clipPath id="clip36">
  <path d="M 162.019531 27.429688 L 516.300781 27.429688 L 516.300781 133.875 L 162.019531 133.875 Z M 162.019531 27.429688 L 356.566406 120.152344 C 356.566406 131.011719 347.761719 139.816406 336.898438 139.816406 C 326.039062 139.816406 317.234375 131.011719 317.234375 120.152344 C 317.234375 109.292969 326.039062 100.488281 336.898438 100.488281 C 347.761719 100.488281 356.566406 109.292969 356.566406 120.152344 Z M 162.019531 27.429688 "/>
</clipPath>
<clipPath id="clip37">
  <path d="M 467 371.351562 L 591 371.351562 L 591 504.308594 L 467 504.308594 Z M 467 371.351562 "/>
</clipPath>
<clipPath id="clip38">
  <path d="M 351.160156 371.351562 L 706.304688 371.351562 L 706.304688 504.308594 L 351.160156 504.308594 Z M 351.160156 371.351562 L 542.609375 466.542969 C 542.609375 477.402344 533.804688 486.207031 522.945312 486.207031 C 512.085938 486.207031 503.28125 477.402344 503.28125 466.542969 C 503.28125 455.679688 512.085938 446.875 522.945312 446.875 C 533.804688 446.875 542.609375 455.679688 542.609375 466.542969 Z M 351.160156 371.351562 "/>
</clipPath>
<clipPath id="clip39">
  <path d="M 351.160156 371.351562 L 706.304688 371.351562 L 706.304688 504.308594 L 351.160156 504.308594 Z M 351.160156 371.351562 L 554.183594 409.117188 C 554.183594 419.976562 545.382812 428.78125 534.519531 428.78125 C 523.660156 428.78125 514.855469 419.976562 514.855469 409.117188 C 514.855469 398.257812 523.660156 389.453125 534.519531 389.453125 C 545.382812 389.453125 554.183594 398.257812 554.183594 409.117188 Z M 351.160156 371.351562 "/>
</clipPath>
<clipPath id="clip40">
  <path d="M 422 141 L 597 141 L 597 287 L 422 287 Z M 422 141 "/>
</clipPath>
<clipPath id="clip41">
  <path d="M 393.589844 42.542969 L 625.84375 42.542969 L 625.84375 386.355469 L 393.589844 386.355469 Z M 393.589844 42.542969 L 561.03125 197.578125 C 561.03125 208.4375 552.230469 217.242188 541.367188 217.242188 C 530.507812 217.242188 521.703125 208.4375 521.703125 197.578125 C 521.703125 186.71875 530.507812 177.914062 541.367188 177.914062 C 552.230469 177.914062 561.03125 186.71875 561.03125 197.578125 Z M 393.589844 42.542969 "/>
</clipPath>
<clipPath id="clip42">
  <path d="M 393.589844 42.542969 L 625.84375 42.542969 L 625.84375 386.355469 L 393.589844 386.355469 Z M 393.589844 42.542969 L 497.730469 231.320312 C 497.730469 242.179688 488.925781 250.984375 478.066406 250.984375 C 467.207031 250.984375 458.402344 242.179688 458.402344 231.320312 C 458.402344 220.460938 467.207031 211.65625 478.066406 211.65625 C 488.925781 211.65625 497.730469 220.460938 497.730469 231.320312 Z M 393.589844 42.542969 "/>
</clipPath>
<clipPath id="clip43">
  <path d="M 470 305.589844 L 591 305.589844 L 591 429.367188 L 470 429.367188 Z M 470 305.589844 "/>
</clipPath>
<clipPath id="clip44">
  <path d="M 352.167969 305.589844 L 708.898438 305.589844 L 708.898438 429.367188 L 352.167969 429.367188 Z M 352.167969 305.589844 L 554.183594 409.117188 C 554.183594 419.976562 545.382812 428.78125 534.519531 428.78125 C 523.660156 428.78125 514.855469 419.976562 514.855469 409.117188 C 514.855469 398.257812 523.660156 389.453125 534.519531 389.453125 C 545.382812 389.453125 554.183594 398.257812 554.183594 409.117188 Z M 352.167969 305.589844 "/>
</clipPath>
<clipPath id="clip45">
  <path d="M 352.167969 305.589844 L 708.898438 305.589844 L 708.898438 429.367188 L 352.167969 429.367188 Z M 352.167969 305.589844 L 546.210938 325.839844 C 546.210938 336.703125 537.40625 345.503906 526.546875 345.503906 C 515.6875 345.503906 506.882812 336.703125 506.882812 325.839844 C 506.882812 314.980469 515.6875 306.175781 526.546875 306.175781 C 537.40625 306.175781 546.210938 314.980469 546.210938 325.839844 Z M 352.167969 305.589844 "/>
</clipPath>
<clipPath id="clip46">
  <path d="M 422 175 L 583 175 L 583 382 L 422 382 Z M 422 175 "/>
</clipPath>
<clipPath id="clip47">
  <path d="M 321.777344 149.242188 L 682.835938 149.242188 L 682.835938 407.917969 L 321.777344 407.917969 Z M 321.777344 149.242188 L 546.210938 325.839844 C 546.210938 336.703125 537.40625 345.503906 526.546875 345.503906 C 515.6875 345.503906 506.882812 336.703125 506.882812 325.839844 C 506.882812 314.980469 515.6875 306.175781 526.546875 306.175781 C 537.40625 306.175781 546.210938 314.980469 546.210938 325.839844 Z M 321.777344 149.242188 "/>
</clipPath>
<clipPath id="clip48">
  <path d="M 321.777344 149.242188 L 682.835938 149.242188 L 682.835938 407.917969 L 321.777344 407.917969 Z M 321.777344 149.242188 L 497.730469 231.320312 C 497.730469 242.179688 488.925781 250.984375 478.066406 250.984375 C 467.207031 250.984375 458.402344 242.179688 458.402344 231.320312 C 458.402344 220.460938 467.207031 211.65625 478.066406 211.65625 C 488.925781 211.65625 497.730469 220.460938 497.730469 231.320312 Z M 321.777344 149.242188 "/>
</clipPath>
<clipPath id="clip49">
  <path d="M 422 102.578125 L 555 102.578125 L 555 275.105469 L 422 275.105469 Z M 422 102.578125 "/>
</clipPath>
<clipPath id="clip50">
  <path d="M 307.609375 102.578125 L 668.855469 102.578125 L 668.855469 275.105469 L 307.609375 275.105469 Z M 307.609375 102.578125 L 497.730469 231.320312 C 497.730469 242.179688 488.925781 250.984375 478.066406 250.984375 C 467.207031 250.984375 458.402344 242.179688 458.402344 231.320312 C 458.402344 220.460938 467.207031 211.65625 478.066406 211.65625 C 488.925781 211.65625 497.730469 220.460938 497.730469 231.320312 Z M 307.609375 102.578125 "/>
</clipPath>
<clipPath id="clip51">
  <path d="M 307.609375 102.578125 L 668.855469 102.578125 L 668.855469 275.105469 L 307.609375 275.105469 Z M 307.609375 102.578125 L 518.0625 146.363281 C 518.0625 157.226562 509.257812 166.03125 498.398438 166.03125 C 487.539062 166.03125 478.734375 157.226562 478.734375 146.363281 C 478.734375 135.503906 487.539062 126.699219 498.398438 126.699219 C 509.257812 126.699219 518.0625 135.503906 518.0625 146.363281 Z M 307.609375 102.578125 "/>
</clipPath>
<clipPath id="clip52">
  <path d="M 3 193 L 170 193 L 170 349 L 3 349 Z M 3 193 "/>
</clipPath>
<clipPath id="clip53">
  <path d="M -50.542969 110.609375 L 223.230469 110.609375 L 223.230469 431.792969 L -50.542969 431.792969 Z M -50.542969 110.609375 L 78.296875 249.609375 C 78.296875 260.46875 69.492188 269.273438 58.632812 269.273438 C 47.769531 269.273438 38.96875 260.46875 38.96875 249.609375 C 38.96875 238.75 47.769531 229.945312 58.632812 229.945312 C 69.492188 229.945312 78.296875 238.75 78.296875 249.609375 Z M -50.542969 110.609375 "/>
</clipPath>
<clipPath id="clip54">
  <path d="M -50.542969 110.609375 L 223.230469 110.609375 L 223.230469 431.792969 L -50.542969 431.792969 Z M -50.542969 110.609375 L 133.71875 292.792969 C 133.71875 303.652344 124.917969 312.457031 114.054688 312.457031 C 103.195312 312.457031 94.390625 303.652344 94.390625 292.792969 C 94.390625 281.933594 103.195312 273.128906 114.054688 273.128906 C 124.917969 273.128906 133.71875 281.933594 133.71875 292.792969 Z M -50.542969 110.609375 "/>
</clipPath>
<clipPath id="clip55">
  <path d="M 3 126 L 144 126 L 144 306 L 3 306 Z M 3 126 "/>
</clipPath>
<clipPath id="clip56">
  <path d="M -102.664062 110.941406 L 248.769531 110.941406 L 248.769531 321.035156 L -102.664062 321.035156 Z M -102.664062 110.941406 L 78.296875 249.609375 C 78.296875 260.46875 69.492188 269.273438 58.632812 269.273438 C 47.769531 269.273438 38.96875 260.46875 38.96875 249.609375 C 38.96875 238.75 47.769531 229.945312 58.632812 229.945312 C 69.492188 229.945312 78.296875 238.75 78.296875 249.609375 Z M -102.664062 110.941406 "/>
</clipPath>
<clipPath id="clip57">
  <path d="M -102.664062 110.941406 L 248.769531 110.941406 L 248.769531 321.035156 L -102.664062 321.035156 Z M -102.664062 110.941406 L 107.136719 182.367188 C 107.136719 193.230469 98.332031 202.03125 87.472656 202.03125 C 76.613281 202.03125 67.808594 193.230469 67.808594 182.367188 C 67.808594 171.507812 76.613281 162.703125 87.472656 162.703125 C 98.332031 162.703125 107.136719 171.507812 107.136719 182.367188 Z M -102.664062 110.941406 "/>
</clipPath>
<clipPath id="clip58">
  <path d="M 58 196 L 188 196 L 188 349 L 58 349 Z M 58 196 "/>
</clipPath>
<clipPath id="clip59">
  <path d="M -46.800781 179.289062 L 292.835938 179.289062 L 292.835938 365.238281 L -46.800781 365.238281 Z M -46.800781 179.289062 L 133.71875 292.792969 C 133.71875 303.652344 124.917969 312.457031 114.054688 312.457031 C 103.195312 312.457031 94.390625 303.652344 94.390625 292.792969 C 94.390625 281.933594 103.195312 273.128906 114.054688 273.128906 C 124.917969 273.128906 133.71875 281.933594 133.71875 292.792969 Z M -46.800781 179.289062 "/>
</clipPath>
<clipPath id="clip60">
  <path d="M -46.800781 179.289062 L 292.835938 179.289062 L 292.835938 365.238281 L -46.800781 365.238281 Z M -46.800781 179.289062 L 151.644531 251.734375 C 151.644531 262.597656 142.839844 271.402344 131.980469 271.402344 C 121.121094 271.402344 112.316406 262.597656 112.316406 251.734375 C 112.316406 240.875 121.121094 232.070312 131.980469 232.070312 C 142.839844 232.070312 151.644531 240.875 151.644531 251.734375 Z M -46.800781 179.289062 "/>
</clipPath>
<clipPath id="clip61">
  <path d="M 31 68.472656 L 158 68.472656 L 158 217.863281 L 31 217.863281 Z M 31 68.472656 "/>
</clipPath>
<clipPath id="clip62">
  <path d="M -84.753906 68.472656 L 274.402344 68.472656 L 274.402344 217.863281 L -84.753906 217.863281 Z M -84.753906 68.472656 L 121.839844 103.96875 C 121.839844 114.828125 113.035156 123.632812 102.175781 123.632812 C 91.316406 123.632812 82.511719 114.828125 82.511719 103.96875 C 82.511719 93.109375 91.316406 84.304688 102.175781 84.304688 C 113.035156 84.304688 121.839844 93.109375 121.839844 103.96875 Z M -84.753906 68.472656 "/>
</clipPath>
<clipPath id="clip63">
  <path d="M -84.753906 68.472656 L 274.402344 68.472656 L 274.402344 217.863281 L -84.753906 217.863281 Z M -84.753906 68.472656 L 107.136719 182.367188 C 107.136719 193.230469 98.332031 202.03125 87.472656 202.03125 C 76.613281 202.03125 67.808594 193.230469 67.808594 182.367188 C 67.808594 171.507812 76.613281 162.703125 87.472656 162.703125 C 98.332031 162.703125 107.136719 171.507812 107.136719 182.367188 Z M -84.753906 68.472656 "/>
</clipPath>
<clipPath id="clip64">
  <path d="M 31 126 L 188 126 L 188 308 L 31 308 Z M 31 126 "/>
</clipPath>
<clipPath id="clip65">
  <path d="M -60.574219 85.96875 L 280.027344 85.96875 L 280.027344 348.132812 L -60.574219 348.132812 Z M -60.574219 85.96875 L 151.644531 251.734375 C 151.644531 262.597656 142.839844 271.402344 131.980469 271.402344 C 121.121094 271.402344 112.316406 262.597656 112.316406 251.734375 C 112.316406 240.875 121.121094 232.070312 131.980469 232.070312 C 142.839844 232.070312 151.644531 240.875 151.644531 251.734375 Z M -60.574219 85.96875 "/>
</clipPath>
<clipPath id="clip66">
  <path d="M -60.574219 85.96875 L 280.027344 85.96875 L 280.027344 348.132812 L -60.574219 348.132812 Z M -60.574219 85.96875 L 107.136719 182.367188 C 107.136719 193.230469 98.332031 202.03125 87.472656 202.03125 C 76.613281 202.03125 67.808594 193.230469 67.808594 182.367188 C 67.808594 171.507812 76.613281 162.703125 87.472656 162.703125 C 98.332031 162.703125 107.136719 171.507812 107.136719 182.367188 Z M -60.574219 85.96875 "/>
</clipPath>
</defs>
<g id="surface96">
<g clip-path="url(#clip1)" clip-rule="nonzero">
<g clip-path="url(#clip2)" clip-rule="evenodd">
<g clip-path="url(#clip3)" clip-rule="evenodd">
<path style="fill:none;stroke-width:0.0229687;stroke-linecap:butt;stroke-linejoin:miter;stroke:rgb(17.96875%,20.3125%,21.09375%);stroke-opacity:0.8;stroke-miterlimit:10;" d="M 1.811467 2.252039 L 2.091958 1.871831 " transform="matrix(171.226105,0,0,171.226105,-31.178275,-49.291518)"/>
</g>
</g>
</g>
<g clip-path="url(#clip4)" clip-rule="nonzero">
<g clip-path="url(#clip5)" clip-rule="evenodd">
<g clip-path="url(#clip6)" clip-rule="evenodd">
<path style="fill:none;stroke-width:0.0229687;stroke-linecap:butt;stroke-linejoin:miter;stroke:rgb(17.96875%,20.3125%,21.09375%);stroke-opacity:0.8;stroke-miterlimit:10;" d="M 1.811467 2.252039 L 1.405389 1.997168 " transform="matrix(171.226105,0,0,171.226105,-31.178275,-49.291518)"/>
</g>
</g>
</g>
<g clip-path="url(#clip7)" clip-rule="nonzero">
<g clip-path="url(#clip8)" clip-rule="evenodd">
<g clip-path="url(#clip9)" clip-rule="evenodd">
<path style="fill:none;stroke-width:0.0229687;stroke-linecap:butt;stroke-linejoin:miter;stroke:rgb(17.96875%,20.3125%,21.09375%);stroke-opacity:0.8;stroke-miterlimit:10;" d="M 1.811467 2.252039 L 1.915245 2.630719 " transform="matrix(171.226105,0,0,171.226105,-31.178275,-49.291518)"/>
</g>
</g>
</g>
<g clip-path="url(#clip10)" clip-rule="nonzero">
<g clip-path="url(#clip11)" clip-rule="evenodd">
<g clip-path="url(#clip12)" clip-rule="evenodd">
<path style="fill:none;stroke-width:0.0229687;stroke-linecap:butt;stroke-linejoin:miter;stroke:rgb(17.96875%,20.3125%,21.09375%);stroke-opacity:0.8;stroke-miterlimit:10;" d="M 1.777886 3.247913 L 1.675887 3.551673 " transform="matrix(171.226105,0,0,171.226105,-31.178275,-49.291518)"/>
</g>
</g>
</g>
<g clip-path="url(#clip13)" clip-rule="nonzero">
<g clip-path="url(#clip14)" clip-rule="evenodd">
<g clip-path="url(#clip15)" clip-rule="evenodd">
<path style="fill:none;stroke-width:0.0229687;stroke-linecap:butt;stroke-linejoin:miter;stroke:rgb(17.96875%,20.3125%,21.09375%);stroke-opacity:0.8;stroke-miterlimit:10;" d="M 1.777886 3.247913 L 1.915245 2.630719 " transform="matrix(171.226105,0,0,171.226105,-31.178275,-49.291518)"/>
</g>
</g>
</g>
<g clip-path="url(#clip16)" clip-rule="nonzero">
<g clip-path="url(#clip17)" clip-rule="evenodd">
<g clip-path="url(#clip18)" clip-rule="evenodd">
<path style="fill:none;stroke-width:0.0229687;stroke-linecap:butt;stroke-linejoin:miter;stroke:rgb(17.96875%,20.3125%,21.09375%);stroke-opacity:0.8;stroke-miterlimit:10;" d="M 2.091958 1.871831 L 1.405389 1.997168 " transform="matrix(171.226105,0,0,171.226105,-31.178275,-49.291518)"/>
</g>
</g>
</g>
<g clip-path="url(#clip19)" clip-rule="nonzero">
<g clip-path="url(#clip20)" clip-rule="evenodd">
<g clip-path="url(#clip21)" clip-rule="evenodd">
<path style="fill:none;stroke-width:0.0229687;stroke-linecap:butt;stroke-linejoin:miter;stroke:rgb(17.96875%,20.3125%,21.09375%);stroke-opacity:0.8;stroke-miterlimit:10;" d="M 2.091958 1.871831 L 1.915245 2.630719 " transform="matrix(171.226105,0,0,171.226105,-31.178275,-49.291518)"/>
</g>
</g>
</g>
<g clip-path="url(#clip22)" clip-rule="nonzero">
<g clip-path="url(#clip23)" clip-rule="evenodd">
<g clip-path="url(#clip24)" clip-rule="evenodd">
<path style="fill:none;stroke-width:0.0229687;stroke-linecap:butt;stroke-linejoin:miter;stroke:rgb(17.96875%,20.3125%,21.09375%);stroke-opacity:0.8;stroke-miterlimit:10;" d="M 2.091958 1.871831 L 2.149653 0.989591 " transform="matrix(171.226105,0,0,171.226105,-31.178275,-49.291518)"/>
</g>
</g>
</g>
<g clip-path="url(#clip25)" clip-rule="nonzero">
<g clip-path="url(#clip26)" clip-rule="evenodd">
<g clip-path="url(#clip27)" clip-rule="evenodd">
<path style="fill:none;stroke-width:0.0229687;stroke-linecap:butt;stroke-linejoin:miter;stroke:rgb(17.96875%,20.3125%,21.09375%);stroke-opacity:0.8;stroke-miterlimit:10;" d="M 2.091958 1.871831 L 2.974107 1.638838 " transform="matrix(171.226105,0,0,171.226105,-31.178275,-49.291518)"/>
</g>
</g>
</g>
<g clip-path="url(#clip28)" clip-rule="nonzero">
<g clip-path="url(#clip29)" clip-rule="evenodd">
<g clip-path="url(#clip30)" clip-rule="evenodd">
<path style="fill:none;stroke-width:0.0229687;stroke-linecap:butt;stroke-linejoin:miter;stroke:rgb(17.96875%,20.3125%,21.09375%);stroke-opacity:0.8;stroke-miterlimit:10;" d="M 1.405389 1.997168 L 0.848194 1.997852 " transform="matrix(171.226105,0,0,171.226105,-31.178275,-49.291518)"/>
</g>
</g>
</g>
<g clip-path="url(#clip31)" clip-rule="nonzero">
<g clip-path="url(#clip32)" clip-rule="evenodd">
<g clip-path="url(#clip33)" clip-rule="evenodd">
<path style="fill:none;stroke-width:0.0229687;stroke-linecap:butt;stroke-linejoin:miter;stroke:rgb(17.96875%,20.3125%,21.09375%);stroke-opacity:0.8;stroke-miterlimit:10;" d="M 1.405389 1.997168 L 0.952885 1.758061 " transform="matrix(171.226105,0,0,171.226105,-31.178275,-49.291518)"/>
</g>
</g>
</g>
<g clip-path="url(#clip34)" clip-rule="nonzero">
<g clip-path="url(#clip35)" clip-rule="evenodd">
<g clip-path="url(#clip36)" clip-rule="evenodd">
<path style="fill:none;stroke-width:0.0229687;stroke-linecap:butt;stroke-linejoin:miter;stroke:rgb(17.96875%,20.3125%,21.09375%);stroke-opacity:0.8;stroke-miterlimit:10;" d="M 2.176071 0.528213 L 2.149653 0.989591 " transform="matrix(171.226105,0,0,171.226105,-31.178275,-49.291518)"/>
</g>
</g>
</g>
<g clip-path="url(#clip37)" clip-rule="nonzero">
<g clip-path="url(#clip38)" clip-rule="evenodd">
<g clip-path="url(#clip39)" clip-rule="evenodd">
<path style="fill:none;stroke-width:0.0229687;stroke-linecap:butt;stroke-linejoin:miter;stroke:rgb(17.96875%,20.3125%,21.09375%);stroke-opacity:0.8;stroke-miterlimit:10;" d="M 3.23621 3.012593 L 3.303806 2.677213 " transform="matrix(171.226105,0,0,171.226105,-31.178275,-49.291518)"/>
</g>
</g>
</g>
<g clip-path="url(#clip40)" clip-rule="nonzero">
<g clip-path="url(#clip41)" clip-rule="evenodd">
<g clip-path="url(#clip42)" clip-rule="evenodd">
<path style="fill:none;stroke-width:0.0229687;stroke-linecap:butt;stroke-linejoin:miter;stroke:rgb(17.96875%,20.3125%,21.09375%);stroke-opacity:0.8;stroke-miterlimit:10;" d="M 3.343798 1.441776 L 2.974107 1.638838 " transform="matrix(171.226105,0,0,171.226105,-31.178275,-49.291518)"/>
</g>
</g>
</g>
<g clip-path="url(#clip43)" clip-rule="nonzero">
<g clip-path="url(#clip44)" clip-rule="evenodd">
<g clip-path="url(#clip45)" clip-rule="evenodd">
<path style="fill:none;stroke-width:0.0229687;stroke-linecap:butt;stroke-linejoin:miter;stroke:rgb(17.96875%,20.3125%,21.09375%);stroke-opacity:0.8;stroke-miterlimit:10;" d="M 3.303806 2.677213 L 3.257244 2.190854 " transform="matrix(171.226105,0,0,171.226105,-31.178275,-49.291518)"/>
</g>
</g>
</g>
<g clip-path="url(#clip46)" clip-rule="nonzero">
<g clip-path="url(#clip47)" clip-rule="evenodd">
<g clip-path="url(#clip48)" clip-rule="evenodd">
<path style="fill:none;stroke-width:0.0229687;stroke-linecap:butt;stroke-linejoin:miter;stroke:rgb(17.96875%,20.3125%,21.09375%);stroke-opacity:0.8;stroke-miterlimit:10;" d="M 3.257244 2.190854 L 2.974107 1.638838 " transform="matrix(171.226105,0,0,171.226105,-31.178275,-49.291518)"/>
</g>
</g>
</g>
<g clip-path="url(#clip49)" clip-rule="nonzero">
<g clip-path="url(#clip50)" clip-rule="evenodd">
<g clip-path="url(#clip51)" clip-rule="evenodd">
<path style="fill:none;stroke-width:0.0229687;stroke-linecap:butt;stroke-linejoin:miter;stroke:rgb(17.96875%,20.3125%,21.09375%);stroke-opacity:0.8;stroke-miterlimit:10;" d="M 2.974107 1.638838 L 3.09285 1.142669 " transform="matrix(171.226105,0,0,171.226105,-31.178275,-49.291518)"/>
</g>
</g>
</g>
<g clip-path="url(#clip52)" clip-rule="nonzero">
<g clip-path="url(#clip53)" clip-rule="evenodd">
<g clip-path="url(#clip54)" clip-rule="evenodd">
<path style="fill:none;stroke-width:0.0229687;stroke-linecap:butt;stroke-linejoin:miter;stroke:rgb(17.96875%,20.3125%,21.09375%);stroke-opacity:0.8;stroke-miterlimit:10;" d="M 0.524517 1.74565 L 0.848194 1.997852 " transform="matrix(171.226105,0,0,171.226105,-31.178275,-49.291518)"/>
</g>
</g>
</g>
<g clip-path="url(#clip55)" clip-rule="nonzero">
<g clip-path="url(#clip56)" clip-rule="evenodd">
<g clip-path="url(#clip57)" clip-rule="evenodd">
<path style="fill:none;stroke-width:0.0229687;stroke-linecap:butt;stroke-linejoin:miter;stroke:rgb(17.96875%,20.3125%,21.09375%);stroke-opacity:0.8;stroke-miterlimit:10;" d="M 0.524517 1.74565 L 0.692949 1.35294 " transform="matrix(171.226105,0,0,171.226105,-31.178275,-49.291518)"/>
</g>
</g>
</g>
<g clip-path="url(#clip58)" clip-rule="nonzero">
<g clip-path="url(#clip59)" clip-rule="evenodd">
<g clip-path="url(#clip60)" clip-rule="evenodd">
<path style="fill:none;stroke-width:0.0229687;stroke-linecap:butt;stroke-linejoin:miter;stroke:rgb(17.96875%,20.3125%,21.09375%);stroke-opacity:0.8;stroke-miterlimit:10;" d="M 0.848194 1.997852 L 0.952885 1.758061 " transform="matrix(171.226105,0,0,171.226105,-31.178275,-49.291518)"/>
</g>
</g>
</g>
<g clip-path="url(#clip61)" clip-rule="nonzero">
<g clip-path="url(#clip62)" clip-rule="evenodd">
<g clip-path="url(#clip63)" clip-rule="evenodd">
<path style="fill:none;stroke-width:0.0229687;stroke-linecap:butt;stroke-linejoin:miter;stroke:rgb(17.96875%,20.3125%,21.09375%);stroke-opacity:0.8;stroke-miterlimit:10;" d="M 0.778818 0.895075 L 0.692949 1.35294 " transform="matrix(171.226105,0,0,171.226105,-31.178275,-49.291518)"/>
</g>
</g>
</g>
<g clip-path="url(#clip64)" clip-rule="nonzero">
<g clip-path="url(#clip65)" clip-rule="evenodd">
<g clip-path="url(#clip66)" clip-rule="evenodd">
<path style="fill:none;stroke-width:0.0229687;stroke-linecap:butt;stroke-linejoin:miter;stroke:rgb(17.96875%,20.3125%,21.09375%);stroke-opacity:0.8;stroke-miterlimit:10;" d="M 0.952885 1.758061 L 0.692949 1.35294 " transform="matrix(171.226105,0,0,171.226105,-31.178275,-49.291518)"/>
</g>
</g>
</g>
<path style="fill-rule:nonzero;fill:rgb(100%,92.941176%,43.529412%);fill-opacity:1;stroke-width:0.0229687;stroke-linecap:butt;stroke-linejoin:miter;stroke:rgb(60%,60%,60%);stroke-opacity:0.8;stroke-miterlimit:10;" d="M 0.114839 0.000000708143 C 0.114839 0.063422 0.0634175 0.114843 -0.00000374762 0.114843 C -0.063425 0.114843 -0.114846 0.063422 -0.114846 0.000000708143 C -0.114846 -0.0634206 -0.063425 -0.114842 -0.00000374762 -0.114842 C 0.0634175 -0.114842 0.114839 -0.0634206 0.114839 0.000000708143 Z M 0.114839 0.000000708143 " transform="matrix(171.226105,0,0,171.226105,278.992829,336.316285)"/>
<path style="fill-rule:nonzero;fill:rgb(55.294118%,82.745098%,78.039216%);fill-opacity:1;stroke-width:0.0229687;stroke-linecap:butt;stroke-linejoin:miter;stroke:rgb(60%,60%,60%);stroke-opacity:0.8;stroke-miterlimit:10;" d="M 0.114836 0.00000170543 C 0.114836 0.063423 0.0634371 0.114844 -0.00000695852 0.114844 C -0.0634282 0.114844 -0.11485 0.063423 -0.11485 0.00000170543 C -0.11485 -0.0634196 -0.0634282 -0.114841 -0.00000695852 -0.114841 C 0.0634371 -0.114841 0.114836 -0.0634196 0.114836 0.00000170543 Z M 0.114836 0.00000170543 " transform="matrix(171.226105,0,0,171.226105,273.243379,506.835645)"/>
<path style="fill-rule:nonzero;fill:rgb(55.294118%,82.745098%,78.039216%);fill-opacity:1;stroke-width:0.0229687;stroke-linecap:butt;stroke-linejoin:miter;stroke:rgb(60%,60%,60%);stroke-opacity:0.8;stroke-miterlimit:10;" d="M 0.114843 -0.00000744212 C 0.114843 0.0634366 0.0634219 0.114835 0.000000594018 0.114835 C -0.0634207 0.114835 -0.114842 0.0634366 -0.114842 -0.00000744212 C -0.114842 -0.0634287 -0.0634207 -0.11485 0.000000594018 -0.11485 C 0.0634219 -0.11485 0.114843 -0.0634287 0.114843 -0.00000744212 Z M 0.114843 -0.00000744212 " transform="matrix(171.226105,0,0,171.226105,327.01943,271.216118)"/>
<path style="fill-rule:nonzero;fill:rgb(100%,92.941176%,43.529412%);fill-opacity:1;stroke-width:0.0229687;stroke-linecap:butt;stroke-linejoin:miter;stroke:rgb(60%,60%,60%);stroke-opacity:0.8;stroke-miterlimit:10;" d="M 0.114847 -0.000010808 C 0.114847 0.0634333 0.0634259 0.114855 0.00000467034 0.114855 C -0.0634166 0.114855 -0.114838 0.0634333 -0.114838 -0.000010808 C -0.114838 -0.0634321 -0.0634166 -0.114853 0.00000467034 -0.114853 C 0.0634259 -0.114853 0.114847 -0.0634321 0.114847 -0.000010808 Z M 0.114847 -0.000010808 " transform="matrix(171.226105,0,0,171.226105,209.460138,292.677632)"/>
<path style="fill-rule:nonzero;fill:rgb(55.294118%,82.745098%,78.039216%);fill-opacity:1;stroke-width:0.0229687;stroke-linecap:butt;stroke-linejoin:miter;stroke:rgb(60%,60%,60%);stroke-opacity:0.8;stroke-miterlimit:10;" d="M 0.114839 0.00000613172 C 0.114839 0.0634274 0.0634176 0.114849 -0.00000365609 0.114849 C -0.0634249 0.114849 -0.114846 0.0634274 -0.114846 0.00000613172 C -0.114846 -0.0634151 -0.0634249 -0.114837 -0.00000365609 -0.114837 C 0.0634176 -0.114837 0.114839 -0.0634151 0.114839 0.00000613172 Z M 0.114839 0.00000613172 " transform="matrix(171.226105,0,0,171.226105,255.77797,558.846606)"/>
<path style="fill-rule:nonzero;fill:rgb(55.294118%,82.745098%,78.039216%);fill-opacity:1;stroke-width:0.0229687;stroke-linecap:butt;stroke-linejoin:miter;stroke:rgb(60%,60%,60%);stroke-opacity:0.8;stroke-miterlimit:10;" d="M 0.114834 -0.00000613172 C 0.114834 0.0634151 0.0634353 0.114837 -0.00000875089 0.114837 C -0.06343 0.114837 -0.114851 0.0634151 -0.114851 -0.00000613172 C -0.114851 -0.0634274 -0.06343 -0.114849 -0.00000875089 -0.114849 C 0.0634353 -0.114849 0.114834 -0.0634274 0.114834 -0.00000613172 Z M 0.114834 -0.00000613172 " transform="matrix(171.226105,0,0,171.226105,341.423373,41.153394)"/>
<path style="fill-rule:nonzero;fill:rgb(55.294118%,82.745098%,78.039216%);fill-opacity:1;stroke-width:0.0229687;stroke-linecap:butt;stroke-linejoin:miter;stroke:rgb(60%,60%,60%);stroke-opacity:0.8;stroke-miterlimit:10;" d="M 0.114851 0.00000126893 C 0.114851 0.0634225 0.0634294 0.114844 0.00000811037 0.114844 C -0.063436 0.114844 -0.114835 0.0634225 -0.114835 0.00000126893 C -0.114835 -0.06342 -0.063436 -0.114841 0.00000811037 -0.114841 C 0.0634294 -0.114841 0.114851 -0.06342 0.114851 0.00000126893 Z M 0.114851 0.00000126893 " transform="matrix(171.226105,0,0,171.226105,296.76033,401.156033)"/>
<path style="fill-rule:nonzero;fill:rgb(55.294118%,82.745098%,78.039216%);fill-opacity:1;stroke-width:0.0229687;stroke-linecap:butt;stroke-linejoin:miter;stroke:rgb(60%,60%,60%);stroke-opacity:0.8;stroke-miterlimit:10;" d="M 0.114855 -0.0000017559 C 0.114855 0.0634195 0.0634334 0.114841 -0.0000106552 0.114841 C -0.0634319 0.114841 -0.114853 0.0634195 -0.114853 -0.0000017559 C -0.114853 -0.063423 -0.0634319 -0.114844 -0.0000106552 -0.114844 C 0.0634334 -0.114844 0.114855 -0.063423 0.114855 -0.0000017559 Z M 0.114855 -0.0000017559 " transform="matrix(171.226105,0,0,171.226105,336.900262,120.152644)"/>
<path style="fill-rule:nonzero;fill:rgb(55.294118%,82.745098%,78.039216%);fill-opacity:1;stroke-width:0.0229687;stroke-linecap:butt;stroke-linejoin:miter;stroke:rgb(60%,60%,60%);stroke-opacity:0.8;stroke-miterlimit:10;" d="M 0.114848 0.0000107069 C 0.114848 0.063432 0.0634268 0.114853 0.000005548 0.114853 C -0.0634157 0.114853 -0.114837 0.063432 -0.114837 0.0000107069 C -0.114837 -0.0634334 -0.0634157 -0.114855 0.000005548 -0.114855 C 0.0634268 -0.114855 0.114848 -0.0634334 0.114848 0.0000107069 Z M 0.114848 0.0000107069 " transform="matrix(171.226105,0,0,171.226105,522.944363,466.541135)"/>
<path style="fill-rule:nonzero;fill:rgb(55.294118%,82.745098%,78.039216%);fill-opacity:1;stroke-width:0.0229687;stroke-linecap:butt;stroke-linejoin:miter;stroke:rgb(60%,60%,60%);stroke-opacity:0.8;stroke-miterlimit:10;" d="M 0.114834 -0.00000590505 C 0.114834 0.0634154 0.0634355 0.114837 -0.00000852326 0.114837 C -0.0634298 0.114837 -0.114851 0.0634154 -0.114851 -0.00000590505 C -0.114851 -0.0634272 -0.0634298 -0.114849 -0.00000852326 -0.114849 C 0.0634355 -0.114849 0.114834 -0.0634272 0.114834 -0.00000590505 Z M 0.114834 -0.00000590505 " transform="matrix(171.226105,0,0,171.226105,541.368647,197.579136)"/>
<path style="fill-rule:nonzero;fill:rgb(55.294118%,82.745098%,78.039216%);fill-opacity:1;stroke-width:0.0229687;stroke-linecap:butt;stroke-linejoin:miter;stroke:rgb(60%,60%,60%);stroke-opacity:0.8;stroke-miterlimit:10;" d="M 0.114834 -0.000000261415 C 0.114834 0.063421 0.0634359 0.114842 -0.00000821115 0.114842 C -0.0634295 0.114842 -0.114851 0.063421 -0.114851 -0.000000261415 C -0.114851 -0.0634215 -0.0634295 -0.114843 -0.00000821115 -0.114843 C 0.0634359 -0.114843 0.114834 -0.0634215 0.114834 -0.000000261415 Z M 0.114834 -0.000000261415 " transform="matrix(171.226105,0,0,171.226105,534.520937,409.117232)"/>
<path style="fill-rule:nonzero;fill:rgb(55.294118%,82.745098%,78.039216%);fill-opacity:1;stroke-width:0.0229687;stroke-linecap:butt;stroke-linejoin:miter;stroke:rgb(60%,60%,60%);stroke-opacity:0.8;stroke-miterlimit:10;" d="M 0.11484 -0.00000743188 C 0.11484 0.0634366 0.0634182 0.114835 -0.00000305559 0.114835 C -0.0634243 0.114835 -0.114846 0.0634366 -0.114846 -0.00000743188 C -0.114846 -0.0634287 -0.0634243 -0.11485 -0.00000305559 -0.11485 C 0.0634182 -0.11485 0.11484 -0.0634287 0.11484 -0.00000743188 Z M 0.11484 -0.00000743188 " transform="matrix(171.226105,0,0,171.226105,526.547398,325.841116)"/>
<path style="fill-rule:nonzero;fill:rgb(55.294118%,82.745098%,78.039216%);fill-opacity:1;stroke-width:0.0229687;stroke-linecap:butt;stroke-linejoin:miter;stroke:rgb(60%,60%,60%);stroke-opacity:0.8;stroke-miterlimit:10;" d="M 0.114846 0.00000137737 C 0.114846 0.0634226 0.0634242 0.114844 0.00000299005 0.114844 C -0.0634183 0.114844 -0.11484 0.0634226 -0.11484 0.00000137737 C -0.11484 -0.0634199 -0.0634183 -0.114841 0.00000299005 -0.114841 C 0.0634242 -0.114841 0.114846 -0.0634199 0.114846 0.00000137737 Z M 0.114846 0.00000137737 " transform="matrix(171.226105,0,0,171.226105,478.065894,231.320077)"/>
<path style="fill-rule:nonzero;fill:rgb(55.294118%,82.745098%,78.039216%);fill-opacity:1;stroke-width:0.0229687;stroke-linecap:butt;stroke-linejoin:miter;stroke:rgb(60%,60%,60%);stroke-opacity:0.8;stroke-miterlimit:10;" d="M 0.114841 -0.0000113889 C 0.114841 0.0634327 0.0634192 0.114854 -0.00000210718 0.114854 C -0.0634234 0.114854 -0.114845 0.0634327 -0.114845 -0.0000113889 C -0.114845 -0.0634326 -0.0634234 -0.114854 -0.00000210718 -0.114854 C 0.0634192 -0.114854 0.114841 -0.0634326 0.114841 -0.0000113889 Z M 0.114841 -0.0000113889 " transform="matrix(171.226105,0,0,171.226105,498.398798,146.365231)"/>
<path style="fill-rule:nonzero;fill:rgb(100%,92.941176%,43.529412%);fill-opacity:1;stroke-width:0.0229687;stroke-linecap:butt;stroke-linejoin:miter;stroke:rgb(60%,60%,60%);stroke-opacity:0.8;stroke-miterlimit:10;" d="M 0.114851 -0.00000266293 C 0.114851 0.0634186 0.0634298 0.11484 0.00000852326 0.11484 C -0.0634355 0.11484 -0.114834 0.0634186 -0.114834 -0.00000266293 C -0.114834 -0.0634239 -0.0634355 -0.114845 0.00000852326 -0.114845 C 0.0634298 -0.114845 0.114851 -0.0634239 0.114851 -0.00000266293 Z M 0.114851 -0.00000266293 " transform="matrix(171.226105,0,0,171.226105,58.631353,249.609831)"/>
<path style="fill-rule:nonzero;fill:rgb(100%,92.941176%,43.529412%);fill-opacity:1;stroke-width:0.0229687;stroke-linecap:butt;stroke-linejoin:miter;stroke:rgb(60%,60%,60%);stroke-opacity:0.8;stroke-miterlimit:10;" d="M 0.114834 0.00000595202 C 0.114834 0.0634272 0.0634355 0.114849 -0.00000855627 0.114849 C -0.0634298 0.114849 -0.114851 0.0634272 -0.114851 0.00000595202 C -0.114851 -0.0634153 -0.0634298 -0.114837 -0.00000855627 -0.114837 C 0.0634355 -0.114837 0.114834 -0.0634153 0.114834 0.00000595202 Z M 0.114834 0.00000595202 " transform="matrix(171.226105,0,0,171.226105,114.056153,292.79195)"/>
<path style="fill-rule:nonzero;fill:rgb(100%,92.941176%,43.529412%);fill-opacity:1;stroke-width:0.0229687;stroke-linecap:butt;stroke-linejoin:miter;stroke:rgb(60%,60%,60%);stroke-opacity:0.8;stroke-miterlimit:10;" d="M 0.114842 0.00000217748 C 0.114842 0.0634234 0.0634206 0.114845 -0.00000065172 0.114845 C -0.0634219 0.114845 -0.114843 0.0634234 -0.114843 0.00000217748 C -0.114843 -0.0634191 -0.0634219 -0.11484 -0.00000065172 -0.11484 C 0.0634206 -0.11484 0.114842 -0.0634191 0.114842 0.00000217748 Z M 0.114842 0.00000217748 " transform="matrix(171.226105,0,0,171.226105,102.175893,103.968377)"/>
<path style="fill-rule:nonzero;fill:rgb(100%,92.941176%,43.529412%);fill-opacity:1;stroke-width:0.0229687;stroke-linecap:butt;stroke-linejoin:miter;stroke:rgb(60%,60%,60%);stroke-opacity:0.8;stroke-miterlimit:10;" d="M 0.114843 -0.0000107381 C 0.114843 0.0634333 0.0634213 0.114855 0.0000000449889 0.114855 C -0.0634212 0.114855 -0.114843 0.0634333 -0.114843 -0.0000107381 C -0.114843 -0.063432 -0.0634212 -0.114853 0.0000000449889 -0.114853 C 0.0634213 -0.114853 0.114843 -0.063432 0.114843 -0.0000107381 Z M 0.114843 -0.0000107381 " transform="matrix(171.226105,0,0,171.226105,131.980461,251.736214)"/>
<path style="fill-rule:nonzero;fill:rgb(100%,92.941176%,43.529412%);fill-opacity:1;stroke-width:0.0229687;stroke-linecap:butt;stroke-linejoin:miter;stroke:rgb(60%,60%,60%);stroke-opacity:0.8;stroke-miterlimit:10;" d="M 0.114839 -0.00000846704 C 0.114839 0.0634356 0.0634174 0.114834 -0.00000390528 0.114834 C -0.0634252 0.114834 -0.114847 0.0634356 -0.114847 -0.00000846704 C -0.114847 -0.0634297 -0.0634252 -0.114851 -0.00000390528 -0.114851 C 0.0634174 -0.114851 0.114839 -0.0634297 0.114839 -0.00000846704 Z M 0.114839 -0.00000846704 " transform="matrix(171.226105,0,0,171.226105,87.473325,182.368637)"/>
</g>
</svg>
