<?xml version="1.0" encoding="UTF-8"?>
<svg xmlns="http://www.w3.org/2000/svg" xmlns:xlink="http://www.w3.org/1999/xlink" width="600pt" height="600pt" viewBox="0 0 600 600" version="1.1">
<defs>
<clipPath id="clip1">
  <path d="M 14.742188 211 L 134.167969 211 L 134.167969 338 L 14.742188 338 Z M 14.742188 211 "/>
</clipPath>
<clipPath id="clip2">
  <path d="M 14.742188 70.683594 L 134.167969 70.683594 L 134.167969 478.175781 L 14.742188 478.175781 Z M 14.742188 70.683594 L 65.332031 270.507812 C 65.332031 281.992188 56.027344 291.296875 44.542969 291.296875 C 33.0625 291.296875 23.753906 281.992188 23.753906 270.507812 C 23.753906 259.027344 33.0625 249.722656 44.542969 249.722656 C 56.027344 249.722656 65.332031 259.027344 65.332031 270.507812 Z M 14.742188 70.683594 "/>
</clipPath>
<clipPath id="clip3">
  <path d="M 14.742188 70.683594 L 134.167969 70.683594 L 134.167969 478.175781 L 14.742188 478.175781 Z M 14.742188 70.683594 L 125.152344 278.347656 C 125.152344 289.828125 115.84375 299.136719 104.363281 299.136719 C 92.882812 299.136719 83.574219 289.828125 83.574219 278.347656 C 83.574219 266.867188 92.882812 257.558594 104.363281 257.558594 C 115.84375 257.558594 125.152344 266.867188 125.152344 278.347656 Z M 14.742188 70.683594 "/>
</clipPath>
<clipPath id="clip4">
  <path d="M 0 171 L 122 171 L 122 330 L 0 330 Z M 0 171 "/>
</clipPath>
<clipPath id="clip5">
  <path d="M -139.730469 145.195312 L 246.960938 145.195312 L 246.960938 355.300781 L -139.730469 355.300781 Z M -139.730469 145.195312 L 65.332031 270.507812 C 65.332031 281.992188 56.027344 291.296875 44.542969 291.296875 C 33.0625 291.296875 23.753906 281.992188 23.753906 270.507812 C 23.753906 259.027344 33.0625 249.722656 44.542969 249.722656 C 56.027344 249.722656 65.332031 259.027344 65.332031 270.507812 Z M -139.730469 145.195312 "/>
</clipPath>
<clipPath id="clip6">
  <path d="M -139.730469 145.195312 L 246.960938 145.195312 L 246.960938 355.300781 L -139.730469 355.300781 Z M -139.730469 145.195312 L 83.472656 229.984375 C 83.472656 241.464844 74.164062 250.773438 62.683594 250.773438 C 51.203125 250.773438 41.894531 241.464844 41.894531 229.984375 C 41.894531 218.503906 51.203125 209.195312 62.683594 209.195312 C 74.164062 209.195312 83.472656 218.503906 83.472656 229.984375 Z M -139.730469 145.195312 "/>
</clipPath>
<clipPath id="clip7">
  <path d="M 26 147 L 164 147 L 164 326.921875 L 26 326.921875 Z M 26 147 "/>
</clipPath>
<clipPath id="clip8">
  <path d="M -111.191406 147 L 300.800781 147 L 300.800781 326.921875 L -111.191406 326.921875 Z M -111.191406 147 L 125.152344 278.347656 C 125.152344 289.828125 115.84375 299.136719 104.363281 299.136719 C 92.882812 299.136719 83.574219 289.828125 83.574219 278.347656 C 83.574219 266.867188 92.882812 257.558594 104.363281 257.558594 C 115.84375 257.558594 125.152344 266.867188 125.152344 278.347656 Z M -111.191406 147 "/>
</clipPath>
<clipPath id="clip9">
  <path d="M -111.191406 147 L 300.800781 147 L 300.800781 326.921875 L -111.191406 326.921875 Z M -111.191406 147 L 106.03125 195.570312 C 106.03125 207.050781 96.726562 216.359375 85.242188 216.359375 C 73.761719 216.359375 64.453125 207.050781 64.453125 195.570312 C 64.453125 184.089844 73.761719 174.78125 85.242188 174.78125 C 96.726562 174.78125 106.03125 184.089844 106.03125 195.570312 Z M -111.191406 147 "/>
</clipPath>
<clipPath id="clip10">
  <path d="M 3 171 L 164 171 L 164 338 L 3 338 Z M 3 171 "/>
</clipPath>
<clipPath id="clip11">
  <path d="M -90.960938 97 L 258.011719 97 L 258.011719 411.335938 L -90.960938 411.335938 Z M -90.960938 97 L 125.152344 278.347656 C 125.152344 289.828125 115.84375 299.136719 104.363281 299.136719 C 92.882812 299.136719 83.574219 289.828125 83.574219 278.347656 C 83.574219 266.867188 92.882812 257.558594 104.363281 257.558594 C 115.84375 257.558594 125.152344 266.867188 125.152344 278.347656 Z M -90.960938 97 "/>
</clipPath>
<clipPath id="clip12">
  <path d="M -90.960938 97 L 258.011719 97 L 258.011719 411.335938 L -90.960938 411.335938 Z M -90.960938 97 L 83.472656 229.984375 C 83.472656 241.464844 74.164062 250.773438 62.683594 250.773438 C 51.203125 250.773438 41.894531 241.464844 41.894531 229.984375 C 41.894531 218.503906 51.203125 209.195312 62.683594 209.195312 C 74.164062 209.195312 83.472656 218.503906 83.472656 229.984375 Z M -90.960938 97 "/>
</clipPath>
<clipPath id="clip13">
  <path d="M 45 219 L 279 219 L 279 454 L 45 454 Z M 45 219 "/>
</clipPath>
<clipPath id="clip14">
  <path d="M -39.90625 135.222656 L 364.121094 135.222656 L 364.121094 537.910156 L -39.90625 537.910156 Z M -39.90625 135.222656 L 125.152344 278.347656 C 125.152344 289.828125 115.84375 299.136719 104.363281 299.136719 C 92.882812 299.136719 83.574219 289.828125 83.574219 278.347656 C 83.574219 266.867188 92.882812 257.558594 104.363281 257.558594 C 115.84375 257.558594 125.152344 266.867188 125.152344 278.347656 Z M -39.90625 135.222656 "/>
</clipPath>
<clipPath id="clip15">
  <path d="M -39.90625 135.222656 L 364.121094 135.222656 L 364.121094 537.910156 L -39.90625 537.910156 Z M -39.90625 135.222656 L 240.636719 394.78125 C 240.636719 406.261719 231.332031 415.570312 219.847656 415.570312 C 208.367188 415.570312 199.0625 406.261719 199.0625 394.78125 C 199.0625 383.300781 208.367188 373.992188 219.847656 373.992188 C 231.332031 373.992188 240.636719 383.300781 240.636719 394.78125 Z M -39.90625 135.222656 "/>
</clipPath>
<clipPath id="clip16">
  <path d="M 3 136 L 145 136 L 145 289 L 3 289 Z M 3 136 "/>
</clipPath>
<clipPath id="clip17">
  <path d="M -106.515625 83.226562 L 254.445312 83.226562 L 254.445312 342.332031 L -106.515625 342.332031 Z M -106.515625 83.226562 L 106.03125 195.570312 C 106.03125 207.050781 96.726562 216.359375 85.242188 216.359375 C 73.761719 216.359375 64.453125 207.050781 64.453125 195.570312 C 64.453125 184.089844 73.761719 174.78125 85.242188 174.78125 C 96.726562 174.78125 106.03125 184.089844 106.03125 195.570312 Z M -106.515625 83.226562 "/>
</clipPath>
<clipPath id="clip18">
  <path d="M -106.515625 83.226562 L 254.445312 83.226562 L 254.445312 342.332031 L -106.515625 342.332031 Z M -106.515625 83.226562 L 83.472656 229.984375 C 83.472656 241.464844 74.164062 250.773438 62.683594 250.773438 C 51.203125 250.773438 41.894531 241.464844 41.894531 229.984375 C 41.894531 218.503906 51.203125 209.195312 62.683594 209.195312 C 74.164062 209.195312 83.472656 218.503906 83.472656 229.984375 Z M -106.515625 83.226562 "/>
</clipPath>
<clipPath id="clip19">
  <path d="M 397 114 L 568 114 L 568 347 L 397 347 Z M 397 114 "/>
</clipPath>
<clipPath id="clip20">
  <path d="M 272.789062 85.738281 L 692.171875 85.738281 L 692.171875 374.746094 L 272.789062 374.746094 Z M 272.789062 85.738281 L 529.839844 173.0625 C 529.839844 184.546875 520.53125 193.851562 509.050781 193.851562 C 497.570312 193.851562 488.261719 184.546875 488.261719 173.0625 C 488.261719 161.582031 497.570312 152.273438 509.050781 152.273438 C 520.53125 152.273438 529.839844 161.582031 529.839844 173.0625 Z M 272.789062 85.738281 "/>
</clipPath>
<clipPath id="clip21">
  <path d="M 272.789062 85.738281 L 692.171875 85.738281 L 692.171875 374.746094 L 272.789062 374.746094 Z M 272.789062 85.738281 L 476.695312 287.417969 C 476.695312 298.898438 467.386719 308.207031 455.90625 308.207031 C 444.425781 308.207031 435.117188 298.898438 435.117188 287.417969 C 435.117188 275.933594 444.425781 266.628906 455.90625 266.628906 C 467.386719 266.628906 476.695312 275.933594 476.695312 287.417969 Z M 272.789062 85.738281 "/>
</clipPath>
<clipPath id="clip22">
  <path d="M 450 52 L 592 52 L 592 232 L 450 232 Z M 450 52 "/>
</clipPath>
<clipPath id="clip23">
  <path d="M 320.917969 35.496094 L 721.253906 35.496094 L 721.253906 248.609375 L 320.917969 248.609375 Z M 320.917969 35.496094 L 529.839844 173.0625 C 529.839844 184.546875 520.53125 193.851562 509.050781 193.851562 C 497.570312 193.851562 488.261719 184.546875 488.261719 173.0625 C 488.261719 161.582031 497.570312 152.273438 509.050781 152.273438 C 520.53125 152.273438 529.839844 161.582031 529.839844 173.0625 Z M 320.917969 35.496094 "/>
</clipPath>
<clipPath id="clip24">
  <path d="M 320.917969 35.496094 L 721.253906 35.496094 L 721.253906 248.609375 L 320.917969 248.609375 Z M 320.917969 35.496094 L 553.90625 111.039062 C 553.90625 122.519531 544.597656 131.828125 533.117188 131.828125 C 521.636719 131.828125 512.328125 122.519531 512.328125 111.039062 C 512.328125 99.558594 521.636719 90.25 533.117188 90.25 C 544.597656 90.25 553.90625 99.558594 553.90625 111.039062 Z M 320.917969 35.496094 "/>
</clipPath>
<clipPath id="clip25">
  <path d="M 421 50 L 568 50 L 568 232 L 421 232 Z M 421 50 "/>
</clipPath>
<clipPath id="clip26">
  <path d="M 296.449219 24.113281 L 692.953125 24.113281 L 692.953125 258.6875 L 296.449219 258.6875 Z M 296.449219 24.113281 L 529.839844 173.0625 C 529.839844 184.546875 520.53125 193.851562 509.050781 193.851562 C 497.570312 193.851562 488.261719 184.546875 488.261719 173.0625 C 488.261719 161.582031 497.570312 152.273438 509.050781 152.273438 C 520.53125 152.273438 529.839844 161.582031 529.839844 173.0625 Z M 296.449219 24.113281 "/>
</clipPath>
<clipPath id="clip27">
  <path d="M 296.449219 24.113281 L 692.953125 24.113281 L 692.953125 258.6875 L 296.449219 258.6875 Z M 296.449219 24.113281 L 501.136719 109.734375 C 501.136719 121.21875 491.828125 130.523438 480.347656 130.523438 C 468.867188 130.523438 459.558594 121.21875 459.558594 109.734375 C 459.558594 98.253906 468.867188 88.949219 480.347656 88.949219 C 491.828125 88.949219 501.136719 98.253906 501.136719 109.734375 Z M 296.449219 24.113281 "/>
</clipPath>
<clipPath id="clip28">
  <path d="M 344 68 L 515 68 L 515 347 L 344 347 Z M 344 68 "/>
</clipPath>
<clipPath id="clip29">
  <path d="M 211.300781 60.8125 L 647.410156 60.8125 L 647.410156 353.589844 L 211.300781 353.589844 Z M 211.300781 60.8125 L 423.585938 126.980469 C 423.585938 138.460938 414.28125 147.769531 402.800781 147.769531 C 391.316406 147.769531 382.011719 138.460938 382.011719 126.980469 C 382.011719 115.496094 391.316406 106.191406 402.800781 106.191406 C 414.28125 106.191406 423.585938 115.496094 423.585938 126.980469 Z M 211.300781 60.8125 "/>
</clipPath>
<clipPath id="clip30">
  <path d="M 211.300781 60.8125 L 647.410156 60.8125 L 647.410156 353.589844 L 211.300781 353.589844 Z M 211.300781 60.8125 L 476.695312 287.417969 C 476.695312 298.898438 467.386719 308.207031 455.90625 308.207031 C 444.425781 308.207031 435.117188 298.898438 435.117188 287.417969 C 435.117188 275.933594 444.425781 266.628906 455.90625 266.628906 C 467.386719 266.628906 476.695312 275.933594 476.695312 287.417969 Z M 211.300781 60.8125 "/>
</clipPath>
<clipPath id="clip31">
  <path d="M 276 0 L 462 0 L 462 186 L 276 186 Z M 276 0 "/>
</clipPath>
<clipPath id="clip32">
  <path d="M 177.050781 -85.078125 L 560.828125 -85.078125 L 560.828125 254.710938 L 177.050781 254.710938 Z M 177.050781 -85.078125 L 423.585938 126.980469 C 423.585938 138.460938 414.28125 147.769531 402.800781 147.769531 C 391.316406 147.769531 382.011719 138.460938 382.011719 126.980469 C 382.011719 115.496094 391.316406 106.191406 402.800781 106.191406 C 414.28125 106.191406 423.585938 115.496094 423.585938 126.980469 Z M 177.050781 -85.078125 "/>
</clipPath>
<clipPath id="clip33">
  <path d="M 177.050781 -85.078125 L 560.828125 -85.078125 L 560.828125 254.710938 L 177.050781 254.710938 Z M 177.050781 -85.078125 L 355.863281 42.648438 C 355.863281 54.128906 346.554688 63.4375 335.074219 63.4375 C 323.59375 63.4375 314.285156 54.128906 314.285156 42.648438 C 314.285156 31.167969 323.59375 21.859375 335.074219 21.859375 C 346.554688 21.859375 355.863281 31.167969 355.863281 42.648438 Z M 177.050781 -85.078125 "/>
</clipPath>
<clipPath id="clip34">
  <path d="M 355.804688 50 L 527.347656 50 L 527.347656 186 L 355.804688 186 Z M 355.804688 50 "/>
</clipPath>
<clipPath id="clip35">
  <path d="M 355.804688 -87.058594 L 527.347656 -87.058594 L 527.347656 323.777344 L 355.804688 323.777344 Z M 355.804688 -87.058594 L 423.585938 126.980469 C 423.585938 138.460938 414.28125 147.769531 402.800781 147.769531 C 391.316406 147.769531 382.011719 138.460938 382.011719 126.980469 C 382.011719 115.496094 391.316406 106.191406 402.800781 106.191406 C 414.28125 106.191406 423.585938 115.496094 423.585938 126.980469 Z M 355.804688 -87.058594 "/>
</clipPath>
<clipPath id="clip36">
  <path d="M 355.804688 -87.058594 L 527.347656 -87.058594 L 527.347656 323.777344 L 355.804688 323.777344 Z M 355.804688 -87.058594 L 501.136719 109.734375 C 501.136719 121.21875 491.828125 130.523438 480.347656 130.523438 C 468.867188 130.523438 459.558594 121.21875 459.558594 109.734375 C 459.558594 98.253906 468.867188 88.949219 480.347656 88.949219 C 491.828125 88.949219 501.136719 98.253906 501.136719 109.734375 Z M 355.804688 -87.058594 "/>
</clipPath>
<clipPath id="clip37">
  <path d="M 287 228 L 515 228 L 515 475 L 287 475 Z M 287 228 "/>
</clipPath>
<clipPath id="clip38">
  <path d="M 192.105469 154.621094 L 609.71875 154.621094 L 609.71875 548.175781 L 192.105469 548.175781 Z M 192.105469 154.621094 L 476.695312 287.417969 C 476.695312 298.898438 467.386719 308.207031 455.90625 308.207031 C 444.425781 308.207031 435.117188 298.898438 435.117188 287.417969 C 435.117188 275.933594 444.425781 266.628906 455.90625 266.628906 C 467.386719 266.628906 476.695312 275.933594 476.695312 287.417969 Z M 192.105469 154.621094 "/>
</clipPath>
<clipPath id="clip39">
  <path d="M 192.105469 154.621094 L 609.71875 154.621094 L 609.71875 548.175781 L 192.105469 548.175781 Z M 192.105469 154.621094 L 366.703125 415.375 C 366.703125 426.855469 357.394531 436.164062 345.914062 436.164062 C 334.433594 436.164062 325.125 426.855469 325.125 415.375 C 325.125 403.894531 334.433594 394.585938 345.914062 394.585938 C 357.394531 394.585938 366.703125 403.894531 366.703125 415.375 Z M 192.105469 154.621094 "/>
</clipPath>
<clipPath id="clip40">
  <path d="M 373 232.402344 L 515 232.402344 L 515 432.152344 L 373 432.152344 Z M 373 232.402344 "/>
</clipPath>
<clipPath id="clip41">
  <path d="M 237.144531 232.402344 L 650.742188 232.402344 L 650.742188 432.152344 L 237.144531 432.152344 Z M 237.144531 232.402344 L 476.695312 287.417969 C 476.695312 298.898438 467.386719 308.207031 455.90625 308.207031 C 444.425781 308.207031 435.117188 298.898438 435.117188 287.417969 C 435.117188 275.933594 444.425781 266.628906 455.90625 266.628906 C 467.386719 266.628906 476.695312 275.933594 476.695312 287.417969 Z M 237.144531 232.402344 "/>
</clipPath>
<clipPath id="clip42">
  <path d="M 237.144531 232.402344 L 650.742188 232.402344 L 650.742188 432.152344 L 237.144531 432.152344 Z M 237.144531 232.402344 L 452.765625 377.132812 C 452.765625 388.617188 443.457031 397.921875 431.976562 397.921875 C 420.496094 397.921875 411.1875 388.617188 411.1875 377.132812 C 411.1875 365.652344 420.496094 356.34375 431.976562 356.34375 C 443.457031 356.34375 452.765625 365.652344 452.765625 377.132812 Z M 237.144531 232.402344 "/>
</clipPath>
<clipPath id="clip43">
  <path d="M 397 228 L 600 228 L 600 399 L 397 399 Z M 397 228 "/>
</clipPath>
<clipPath id="clip44">
  <path d="M 360.082031 108.503906 L 651.285156 108.503906 L 651.285156 518.554688 L 360.082031 518.554688 Z M 360.082031 108.503906 L 476.695312 287.417969 C 476.695312 298.898438 467.386719 308.207031 455.90625 308.207031 C 444.425781 308.207031 435.117188 298.898438 435.117188 287.417969 C 435.117188 275.933594 444.425781 266.628906 455.90625 266.628906 C 467.386719 266.628906 476.695312 275.933594 476.695312 287.417969 Z M 360.082031 108.503906 "/>
</clipPath>
<clipPath id="clip45">
  <path d="M 360.082031 108.503906 L 651.285156 108.503906 L 651.285156 518.554688 L 360.082031 518.554688 Z M 360.082031 108.503906 L 576.246094 339.636719 C 576.246094 351.117188 566.9375 360.425781 555.457031 360.425781 C 543.972656 360.425781 534.667969 351.117188 534.667969 339.636719 C 534.667969 328.15625 543.972656 318.847656 555.457031 318.847656 C 566.9375 318.847656 576.246094 328.15625 576.246094 339.636719 Z M 360.082031 108.503906 "/>
</clipPath>
<clipPath id="clip46">
  <path d="M 471.3125 50 L 542.15625 50 L 542.15625 170 L 471.3125 170 Z M 471.3125 50 "/>
</clipPath>
<clipPath id="clip47">
  <path d="M 471.3125 -91.703125 L 542.15625 -91.703125 L 542.15625 312.480469 L 471.3125 312.480469 Z M 471.3125 -91.703125 L 553.90625 111.039062 C 553.90625 122.519531 544.597656 131.828125 533.117188 131.828125 C 521.636719 131.828125 512.328125 122.519531 512.328125 111.039062 C 512.328125 99.558594 521.636719 90.25 533.117188 90.25 C 544.597656 90.25 553.90625 99.558594 553.90625 111.039062 Z M 471.3125 -91.703125 "/>
</clipPath>
<clipPath id="clip48">
  <path d="M 471.3125 -91.703125 L 542.15625 -91.703125 L 542.15625 312.480469 L 471.3125 312.480469 Z M 471.3125 -91.703125 L 501.136719 109.734375 C 501.136719 121.21875 491.828125 130.523438 480.347656 130.523438 C 468.867188 130.523438 459.558594 121.21875 459.558594 109.734375 C 459.558594 98.253906 468.867188 88.949219 480.347656 88.949219 C 491.828125 88.949219 501.136719 98.253906 501.136719 109.734375 Z M 471.3125 -91.703125 "/>
</clipPath>
<clipPath id="clip49">
  <path d="M 183.875 335 L 381.890625 335 L 381.890625 475 L 183.875 475 Z M 183.875 335 "/>
</clipPath>
<clipPath id="clip50">
  <path d="M 183.875 195.863281 L 381.890625 195.863281 L 381.890625 614.296875 L 183.875 614.296875 Z M 183.875 195.863281 L 240.636719 394.78125 C 240.636719 406.261719 231.332031 415.570312 219.847656 415.570312 C 208.367188 415.570312 199.0625 406.261719 199.0625 394.78125 C 199.0625 383.300781 208.367188 373.992188 219.847656 373.992188 C 231.332031 373.992188 240.636719 383.300781 240.636719 394.78125 Z M 183.875 195.863281 "/>
</clipPath>
<clipPath id="clip51">
  <path d="M 183.875 195.863281 L 381.890625 195.863281 L 381.890625 614.296875 L 183.875 614.296875 Z M 183.875 195.863281 L 366.703125 415.375 C 366.703125 426.855469 357.394531 436.164062 345.914062 436.164062 C 334.433594 436.164062 325.125 426.855469 325.125 415.375 C 325.125 403.894531 334.433594 394.585938 345.914062 394.585938 C 357.394531 394.585938 366.703125 403.894531 366.703125 415.375 Z M 183.875 195.863281 "/>
</clipPath>
<clipPath id="clip52">
  <path d="M 161 335 L 340 335 L 340 542 L 161 542 Z M 161 335 "/>
</clipPath>
<clipPath id="clip53">
  <path d="M 53.296875 278.503906 L 446.847656 278.503906 L 446.847656 598.609375 L 53.296875 598.609375 Z M 53.296875 278.503906 L 240.636719 394.78125 C 240.636719 406.261719 231.332031 415.570312 219.847656 415.570312 C 208.367188 415.570312 199.0625 406.261719 199.0625 394.78125 C 199.0625 383.300781 208.367188 373.992188 219.847656 373.992188 C 231.332031 373.992188 240.636719 383.300781 240.636719 394.78125 Z M 53.296875 278.503906 "/>
</clipPath>
<clipPath id="clip54">
  <path d="M 53.296875 278.503906 L 446.847656 278.503906 L 446.847656 598.609375 L 53.296875 598.609375 Z M 53.296875 278.503906 L 301.082031 482.328125 C 301.082031 493.8125 291.777344 503.117188 280.292969 503.117188 C 268.8125 503.117188 259.507812 493.8125 259.507812 482.328125 C 259.507812 470.847656 268.8125 461.539062 280.292969 461.539062 C 291.777344 461.539062 301.082031 470.847656 301.082031 482.328125 Z M 53.296875 278.503906 "/>
</clipPath>
<clipPath id="clip55">
  <path d="M 221 456.257812 L 348 456.257812 L 348 583.425781 L 221 583.425781 Z M 221 456.257812 "/>
</clipPath>
<clipPath id="clip56">
  <path d="M 80.015625 456.257812 L 488.957031 456.257812 L 488.957031 583.425781 L 80.015625 583.425781 Z M 80.015625 456.257812 L 309.464844 557.351562 C 309.464844 568.832031 300.15625 578.140625 288.675781 578.140625 C 277.195312 578.140625 267.886719 568.832031 267.886719 557.351562 C 267.886719 545.871094 277.195312 536.5625 288.675781 536.5625 C 300.15625 536.5625 309.464844 545.871094 309.464844 557.351562 Z M 80.015625 456.257812 "/>
</clipPath>
<clipPath id="clip57">
  <path d="M 80.015625 456.257812 L 488.957031 456.257812 L 488.957031 583.425781 L 80.015625 583.425781 Z M 80.015625 456.257812 L 301.082031 482.328125 C 301.082031 493.8125 291.777344 503.117188 280.292969 503.117188 C 268.8125 503.117188 259.507812 493.8125 259.507812 482.328125 C 259.507812 470.847656 268.8125 461.539062 280.292969 461.539062 C 291.777344 461.539062 301.082031 470.847656 301.082031 482.328125 Z M 80.015625 456.257812 "/>
</clipPath>
<clipPath id="clip58">
  <path d="M 229 455 L 379 455 L 379 600 L 229 600 Z M 229 455 "/>
</clipPath>
<clipPath id="clip59">
  <path d="M 124.292969 395.191406 L 483.835938 395.191406 L 483.835938 676.714844 L 124.292969 676.714844 Z M 124.292969 395.191406 L 309.464844 557.351562 C 309.464844 568.832031 300.15625 578.140625 288.675781 578.140625 C 277.195312 578.140625 267.886719 568.832031 267.886719 557.351562 C 267.886719 545.871094 277.195312 536.5625 288.675781 536.5625 C 300.15625 536.5625 309.464844 545.871094 309.464844 557.351562 Z M 124.292969 395.191406 "/>
</clipPath>
<clipPath id="clip60">
  <path d="M 124.292969 395.191406 L 483.835938 395.191406 L 483.835938 676.714844 L 124.292969 676.714844 Z M 124.292969 395.191406 L 340.238281 514.550781 C 340.238281 526.035156 330.933594 535.339844 319.449219 535.339844 C 307.96875 535.339844 298.660156 526.035156 298.660156 514.550781 C 298.660156 503.070312 307.96875 493.761719 319.449219 493.761719 C 330.933594 493.761719 340.238281 503.070312 340.238281 514.550781 Z M 124.292969 395.191406 "/>
</clipPath>
<clipPath id="clip61">
  <path d="M 221 356 L 405 356 L 405 542 L 221 542 Z M 221 356 "/>
</clipPath>
<clipPath id="clip62">
  <path d="M 135.199219 273.085938 L 491.011719 273.085938 L 491.011719 624.621094 L 135.199219 624.621094 Z M 135.199219 273.085938 L 366.703125 415.375 C 366.703125 426.855469 357.394531 436.164062 345.914062 436.164062 C 334.433594 436.164062 325.125 426.855469 325.125 415.375 C 325.125 403.894531 334.433594 394.585938 345.914062 394.585938 C 357.394531 394.585938 366.703125 403.894531 366.703125 415.375 Z M 135.199219 273.085938 "/>
</clipPath>
<clipPath id="clip63">
  <path d="M 135.199219 273.085938 L 491.011719 273.085938 L 491.011719 624.621094 L 135.199219 624.621094 Z M 135.199219 273.085938 L 301.082031 482.328125 C 301.082031 493.8125 291.777344 503.117188 280.292969 503.117188 C 268.8125 503.117188 259.507812 493.8125 259.507812 482.328125 C 259.507812 470.847656 268.8125 461.539062 280.292969 461.539062 C 291.777344 461.539062 301.082031 470.847656 301.082031 482.328125 Z M 135.199219 273.085938 "/>
</clipPath>
<clipPath id="clip64">
  <path d="M 287 318 L 491 318 L 491 475 L 287 475 Z M 287 318 "/>
</clipPath>
<clipPath id="clip65">
  <path d="M 261.625 192.636719 L 516.269531 192.636719 L 516.269531 599.875 L 261.625 599.875 Z M 261.625 192.636719 L 366.703125 415.375 C 366.703125 426.855469 357.394531 436.164062 345.914062 436.164062 C 334.433594 436.164062 325.125 426.855469 325.125 415.375 C 325.125 403.894531 334.433594 394.585938 345.914062 394.585938 C 357.394531 394.585938 366.703125 403.894531 366.703125 415.375 Z M 261.625 192.636719 "/>
</clipPath>
<clipPath id="clip66">
  <path d="M 261.625 192.636719 L 516.269531 192.636719 L 516.269531 599.875 L 261.625 599.875 Z M 261.625 192.636719 L 452.765625 377.132812 C 452.765625 388.617188 443.457031 397.921875 431.976562 397.921875 C 420.496094 397.921875 411.1875 388.617188 411.1875 377.132812 C 411.1875 365.652344 420.496094 356.34375 431.976562 356.34375 C 443.457031 356.34375 452.765625 365.652344 452.765625 377.132812 Z M 261.625 192.636719 "/>
</clipPath>
<clipPath id="clip67">
  <path d="M 260 360.339844 L 405 360.339844 L 405 569.589844 L 260 569.589844 Z M 260 360.339844 "/>
</clipPath>
<clipPath id="clip68">
  <path d="M 124.625 360.339844 L 540.742188 360.339844 L 540.742188 569.589844 L 124.625 569.589844 Z M 124.625 360.339844 L 366.703125 415.375 C 366.703125 426.855469 357.394531 436.164062 345.914062 436.164062 C 334.433594 436.164062 325.125 426.855469 325.125 415.375 C 325.125 403.894531 334.433594 394.585938 345.914062 394.585938 C 357.394531 394.585938 366.703125 403.894531 366.703125 415.375 Z M 124.625 360.339844 "/>
</clipPath>
<clipPath id="clip69">
  <path d="M 124.625 360.339844 L 540.742188 360.339844 L 540.742188 569.589844 L 124.625 569.589844 Z M 124.625 360.339844 L 340.238281 514.550781 C 340.238281 526.035156 330.933594 535.339844 319.449219 535.339844 C 307.96875 535.339844 298.660156 526.035156 298.660156 514.550781 C 298.660156 503.070312 307.96875 493.761719 319.449219 493.761719 C 330.933594 493.761719 340.238281 503.070312 340.238281 514.550781 Z M 124.625 360.339844 "/>
</clipPath>
<clipPath id="clip70">
  <path d="M 221 423 L 379 423 L 379 574 L 221 574 Z M 221 423 "/>
</clipPath>
<clipPath id="clip71">
  <path d="M 150.738281 325.792969 L 449.007812 325.792969 L 449.007812 671.089844 L 150.738281 671.089844 Z M 150.738281 325.792969 L 301.082031 482.328125 C 301.082031 493.8125 291.777344 503.117188 280.292969 503.117188 C 268.8125 503.117188 259.507812 493.8125 259.507812 482.328125 C 259.507812 470.847656 268.8125 461.539062 280.292969 461.539062 C 291.777344 461.539062 301.082031 470.847656 301.082031 482.328125 Z M 150.738281 325.792969 "/>
</clipPath>
<clipPath id="clip72">
  <path d="M 150.738281 325.792969 L 449.007812 325.792969 L 449.007812 671.089844 L 150.738281 671.089844 Z M 150.738281 325.792969 L 340.238281 514.550781 C 340.238281 526.035156 330.933594 535.339844 319.449219 535.339844 C 307.96875 535.339844 298.660156 526.035156 298.660156 514.550781 C 298.660156 503.070312 307.96875 493.761719 319.449219 493.761719 C 330.933594 493.761719 340.238281 503.070312 340.238281 514.550781 Z M 150.738281 325.792969 "/>
</clipPath>
</defs>
<g id="surface186">
<g clip-path="url(#clip1)" clip-rule="nonzero">
<g clip-path="url(#clip2)" clip-rule="evenodd">
<g clip-path="url(#clip3)" clip-rule="evenodd">
<path style="fill:none;stroke-width:0.0210688;stroke-linecap:butt;stroke-linejoin:miter;stroke:rgb(17.96875%,20.3125%,21.09375%);stroke-opacity:0.8;stroke-miterlimit:10;" d="M 0.456049 2.394608 L 0.75918 2.434335 " transform="matrix(197.34167,0,0,197.34167,-45.454562,-202.048117)"/>
</g>
</g>
</g>
<g clip-path="url(#clip4)" clip-rule="nonzero">
<g clip-path="url(#clip5)" clip-rule="evenodd">
<g clip-path="url(#clip6)" clip-rule="evenodd">
<path style="fill:none;stroke-width:0.0210688;stroke-linecap:butt;stroke-linejoin:miter;stroke:rgb(17.96875%,20.3125%,21.09375%);stroke-opacity:0.8;stroke-miterlimit:10;" d="M 0.456049 2.394608 L 0.547974 2.189261 " transform="matrix(197.34167,0,0,197.34167,-45.454562,-202.048117)"/>
</g>
</g>
</g>
<g clip-path="url(#clip7)" clip-rule="nonzero">
<g clip-path="url(#clip8)" clip-rule="evenodd">
<g clip-path="url(#clip9)" clip-rule="evenodd">
<path style="fill:none;stroke-width:0.0210688;stroke-linecap:butt;stroke-linejoin:miter;stroke:rgb(17.96875%,20.3125%,21.09375%);stroke-opacity:0.8;stroke-miterlimit:10;" d="M 0.75918 2.434335 L 0.662287 2.014873 " transform="matrix(197.34167,0,0,197.34167,-45.454562,-202.048117)"/>
</g>
</g>
</g>
<g clip-path="url(#clip10)" clip-rule="nonzero">
<g clip-path="url(#clip11)" clip-rule="evenodd">
<g clip-path="url(#clip12)" clip-rule="evenodd">
<path style="fill:none;stroke-width:0.0210688;stroke-linecap:butt;stroke-linejoin:miter;stroke:rgb(17.96875%,20.3125%,21.09375%);stroke-opacity:0.8;stroke-miterlimit:10;" d="M 0.75918 2.434335 L 0.547974 2.189261 " transform="matrix(197.34167,0,0,197.34167,-45.454562,-202.048117)"/>
</g>
</g>
</g>
<g clip-path="url(#clip13)" clip-rule="nonzero">
<g clip-path="url(#clip14)" clip-rule="evenodd">
<g clip-path="url(#clip15)" clip-rule="evenodd">
<path style="fill:none;stroke-width:0.0210688;stroke-linecap:butt;stroke-linejoin:miter;stroke:rgb(17.96875%,20.3125%,21.09375%);stroke-opacity:0.8;stroke-miterlimit:10;" d="M 0.75918 2.434335 L 1.34438 3.024345 " transform="matrix(197.34167,0,0,197.34167,-45.454562,-202.048117)"/>
</g>
</g>
</g>
<g clip-path="url(#clip16)" clip-rule="nonzero">
<g clip-path="url(#clip17)" clip-rule="evenodd">
<g clip-path="url(#clip18)" clip-rule="evenodd">
<path style="fill:none;stroke-width:0.0210688;stroke-linecap:butt;stroke-linejoin:miter;stroke:rgb(17.96875%,20.3125%,21.09375%);stroke-opacity:0.8;stroke-miterlimit:10;" d="M 0.662287 2.014873 L 0.547974 2.189261 " transform="matrix(197.34167,0,0,197.34167,-45.454562,-202.048117)"/>
</g>
</g>
</g>
<g clip-path="url(#clip19)" clip-rule="nonzero">
<g clip-path="url(#clip20)" clip-rule="evenodd">
<g clip-path="url(#clip21)" clip-rule="evenodd">
<path style="fill:none;stroke-width:0.0210688;stroke-linecap:butt;stroke-linejoin:miter;stroke:rgb(17.96875%,20.3125%,21.09375%);stroke-opacity:0.8;stroke-miterlimit:10;" d="M 2.809875 1.900818 L 2.540572 2.480298 " transform="matrix(197.34167,0,0,197.34167,-45.454562,-202.048117)"/>
</g>
</g>
</g>
<g clip-path="url(#clip22)" clip-rule="nonzero">
<g clip-path="url(#clip23)" clip-rule="evenodd">
<g clip-path="url(#clip24)" clip-rule="evenodd">
<path style="fill:none;stroke-width:0.0210688;stroke-linecap:butt;stroke-linejoin:miter;stroke:rgb(17.96875%,20.3125%,21.09375%);stroke-opacity:0.8;stroke-miterlimit:10;" d="M 2.809875 1.900818 L 2.931828 1.586523 " transform="matrix(197.34167,0,0,197.34167,-45.454562,-202.048117)"/>
</g>
</g>
</g>
<g clip-path="url(#clip25)" clip-rule="nonzero">
<g clip-path="url(#clip26)" clip-rule="evenodd">
<g clip-path="url(#clip27)" clip-rule="evenodd">
<path style="fill:none;stroke-width:0.0210688;stroke-linecap:butt;stroke-linejoin:miter;stroke:rgb(17.96875%,20.3125%,21.09375%);stroke-opacity:0.8;stroke-miterlimit:10;" d="M 2.809875 1.900818 L 2.664426 1.579912 " transform="matrix(197.34167,0,0,197.34167,-45.454562,-202.048117)"/>
</g>
</g>
</g>
<g clip-path="url(#clip28)" clip-rule="nonzero">
<g clip-path="url(#clip29)" clip-rule="evenodd">
<g clip-path="url(#clip30)" clip-rule="evenodd">
<path style="fill:none;stroke-width:0.0210688;stroke-linecap:butt;stroke-linejoin:miter;stroke:rgb(17.96875%,20.3125%,21.09375%);stroke-opacity:0.8;stroke-miterlimit:10;" d="M 2.271468 1.667304 L 2.540572 2.480298 " transform="matrix(197.34167,0,0,197.34167,-45.454562,-202.048117)"/>
</g>
</g>
</g>
<g clip-path="url(#clip31)" clip-rule="nonzero">
<g clip-path="url(#clip32)" clip-rule="evenodd">
<g clip-path="url(#clip33)" clip-rule="evenodd">
<path style="fill:none;stroke-width:0.0210688;stroke-linecap:butt;stroke-linejoin:miter;stroke:rgb(17.96875%,20.3125%,21.09375%);stroke-opacity:0.8;stroke-miterlimit:10;" d="M 2.271468 1.667304 L 1.928274 1.239964 " transform="matrix(197.34167,0,0,197.34167,-45.454562,-202.048117)"/>
</g>
</g>
</g>
<g clip-path="url(#clip34)" clip-rule="nonzero">
<g clip-path="url(#clip35)" clip-rule="evenodd">
<g clip-path="url(#clip36)" clip-rule="evenodd">
<path style="fill:none;stroke-width:0.0210688;stroke-linecap:butt;stroke-linejoin:miter;stroke:rgb(17.96875%,20.3125%,21.09375%);stroke-opacity:0.8;stroke-miterlimit:10;" d="M 2.271468 1.667304 L 2.664426 1.579912 " transform="matrix(197.34167,0,0,197.34167,-45.454562,-202.048117)"/>
</g>
</g>
</g>
<g clip-path="url(#clip37)" clip-rule="nonzero">
<g clip-path="url(#clip38)" clip-rule="evenodd">
<g clip-path="url(#clip39)" clip-rule="evenodd">
<path style="fill:none;stroke-width:0.0210688;stroke-linecap:butt;stroke-linejoin:miter;stroke:rgb(17.96875%,20.3125%,21.09375%);stroke-opacity:0.8;stroke-miterlimit:10;" d="M 2.540572 2.480298 L 1.983203 3.128701 " transform="matrix(197.34167,0,0,197.34167,-45.454562,-202.048117)"/>
</g>
</g>
</g>
<g clip-path="url(#clip40)" clip-rule="nonzero">
<g clip-path="url(#clip41)" clip-rule="evenodd">
<g clip-path="url(#clip42)" clip-rule="evenodd">
<path style="fill:none;stroke-width:0.0210688;stroke-linecap:butt;stroke-linejoin:miter;stroke:rgb(17.96875%,20.3125%,21.09375%);stroke-opacity:0.8;stroke-miterlimit:10;" d="M 2.540572 2.480298 L 2.419312 2.934915 " transform="matrix(197.34167,0,0,197.34167,-45.454562,-202.048117)"/>
</g>
</g>
</g>
<g clip-path="url(#clip43)" clip-rule="nonzero">
<g clip-path="url(#clip44)" clip-rule="evenodd">
<g clip-path="url(#clip45)" clip-rule="evenodd">
<path style="fill:none;stroke-width:0.0210688;stroke-linecap:butt;stroke-linejoin:miter;stroke:rgb(17.96875%,20.3125%,21.09375%);stroke-opacity:0.8;stroke-miterlimit:10;" d="M 2.540572 2.480298 L 3.045031 2.744909 " transform="matrix(197.34167,0,0,197.34167,-45.454562,-202.048117)"/>
</g>
</g>
</g>
<g clip-path="url(#clip46)" clip-rule="nonzero">
<g clip-path="url(#clip47)" clip-rule="evenodd">
<g clip-path="url(#clip48)" clip-rule="evenodd">
<path style="fill:none;stroke-width:0.0210688;stroke-linecap:butt;stroke-linejoin:miter;stroke:rgb(17.96875%,20.3125%,21.09375%);stroke-opacity:0.8;stroke-miterlimit:10;" d="M 2.931828 1.586523 L 2.664426 1.579912 " transform="matrix(197.34167,0,0,197.34167,-45.454562,-202.048117)"/>
</g>
</g>
</g>
<g clip-path="url(#clip49)" clip-rule="nonzero">
<g clip-path="url(#clip50)" clip-rule="evenodd">
<g clip-path="url(#clip51)" clip-rule="evenodd">
<path style="fill:none;stroke-width:0.0210688;stroke-linecap:butt;stroke-linejoin:miter;stroke:rgb(17.96875%,20.3125%,21.09375%);stroke-opacity:0.8;stroke-miterlimit:10;" d="M 1.34438 3.024345 L 1.983203 3.128701 " transform="matrix(197.34167,0,0,197.34167,-45.454562,-202.048117)"/>
</g>
</g>
</g>
<g clip-path="url(#clip52)" clip-rule="nonzero">
<g clip-path="url(#clip53)" clip-rule="evenodd">
<g clip-path="url(#clip54)" clip-rule="evenodd">
<path style="fill:none;stroke-width:0.0210688;stroke-linecap:butt;stroke-linejoin:miter;stroke:rgb(17.96875%,20.3125%,21.09375%);stroke-opacity:0.8;stroke-miterlimit:10;" d="M 1.34438 3.024345 L 1.650678 3.467976 " transform="matrix(197.34167,0,0,197.34167,-45.454562,-202.048117)"/>
</g>
</g>
</g>
<g clip-path="url(#clip55)" clip-rule="nonzero">
<g clip-path="url(#clip56)" clip-rule="evenodd">
<g clip-path="url(#clip57)" clip-rule="evenodd">
<path style="fill:none;stroke-width:0.0210688;stroke-linecap:butt;stroke-linejoin:miter;stroke:rgb(17.96875%,20.3125%,21.09375%);stroke-opacity:0.8;stroke-miterlimit:10;" d="M 1.693157 3.848147 L 1.650678 3.467976 " transform="matrix(197.34167,0,0,197.34167,-45.454562,-202.048117)"/>
</g>
</g>
</g>
<g clip-path="url(#clip58)" clip-rule="nonzero">
<g clip-path="url(#clip59)" clip-rule="evenodd">
<g clip-path="url(#clip60)" clip-rule="evenodd">
<path style="fill:none;stroke-width:0.0210688;stroke-linecap:butt;stroke-linejoin:miter;stroke:rgb(17.96875%,20.3125%,21.09375%);stroke-opacity:0.8;stroke-miterlimit:10;" d="M 1.693157 3.848147 L 1.849096 3.63126 " transform="matrix(197.34167,0,0,197.34167,-45.454562,-202.048117)"/>
</g>
</g>
</g>
<g clip-path="url(#clip61)" clip-rule="nonzero">
<g clip-path="url(#clip62)" clip-rule="evenodd">
<g clip-path="url(#clip63)" clip-rule="evenodd">
<path style="fill:none;stroke-width:0.0210688;stroke-linecap:butt;stroke-linejoin:miter;stroke:rgb(17.96875%,20.3125%,21.09375%);stroke-opacity:0.8;stroke-miterlimit:10;" d="M 1.983203 3.128701 L 1.650678 3.467976 " transform="matrix(197.34167,0,0,197.34167,-45.454562,-202.048117)"/>
</g>
</g>
</g>
<g clip-path="url(#clip64)" clip-rule="nonzero">
<g clip-path="url(#clip65)" clip-rule="evenodd">
<g clip-path="url(#clip66)" clip-rule="evenodd">
<path style="fill:none;stroke-width:0.0210688;stroke-linecap:butt;stroke-linejoin:miter;stroke:rgb(17.96875%,20.3125%,21.09375%);stroke-opacity:0.8;stroke-miterlimit:10;" d="M 1.983203 3.128701 L 2.419312 2.934915 " transform="matrix(197.34167,0,0,197.34167,-45.454562,-202.048117)"/>
</g>
</g>
</g>
<g clip-path="url(#clip67)" clip-rule="nonzero">
<g clip-path="url(#clip68)" clip-rule="evenodd">
<g clip-path="url(#clip69)" clip-rule="evenodd">
<path style="fill:none;stroke-width:0.0210688;stroke-linecap:butt;stroke-linejoin:miter;stroke:rgb(17.96875%,20.3125%,21.09375%);stroke-opacity:0.8;stroke-miterlimit:10;" d="M 1.983203 3.128701 L 1.849096 3.63126 " transform="matrix(197.34167,0,0,197.34167,-45.454562,-202.048117)"/>
</g>
</g>
</g>
<g clip-path="url(#clip70)" clip-rule="nonzero">
<g clip-path="url(#clip71)" clip-rule="evenodd">
<g clip-path="url(#clip72)" clip-rule="evenodd">
<path style="fill:none;stroke-width:0.0210688;stroke-linecap:butt;stroke-linejoin:miter;stroke:rgb(17.96875%,20.3125%,21.09375%);stroke-opacity:0.8;stroke-miterlimit:10;" d="M 1.650678 3.467976 L 1.849096 3.63126 " transform="matrix(197.34167,0,0,197.34167,-45.454562,-202.048117)"/>
</g>
</g>
</g>
<path style="fill-rule:nonzero;fill:rgb(100%,92.941176%,43.529412%);fill-opacity:1;stroke-width:0.0210688;stroke-linecap:butt;stroke-linejoin:miter;stroke:rgb(60%,60%,60%);stroke-opacity:0.8;stroke-miterlimit:10;" d="M 0.105339 -0.00000902525 C 0.105339 0.0581864 0.0581889 0.105337 -0.00000650573 0.105337 C -0.0581821 0.105337 -0.105352 0.0581864 -0.105352 -0.00000902525 C -0.105352 -0.0581846 -0.0581821 -0.105335 -0.00000650573 -0.105335 C 0.0581889 -0.105335 0.105339 -0.0581846 0.105339 -0.00000902525 Z M 0.105339 -0.00000902525 " transform="matrix(197.34167,0,0,197.34167,44.544253,270.509594)"/>
<path style="fill-rule:nonzero;fill:rgb(100%,92.941176%,43.529412%);fill-opacity:1;stroke-width:0.0210688;stroke-linecap:butt;stroke-linejoin:miter;stroke:rgb(60%,60%,60%);stroke-opacity:0.8;stroke-miterlimit:10;" d="M 0.105343 0.00000126311 C 0.105343 0.0581769 0.058173 0.105347 -0.00000258768 0.105347 C -0.0581782 0.105347 -0.105348 0.0581769 -0.105348 0.00000126311 C -0.105348 -0.0581743 -0.0581782 -0.105344 -0.00000258768 -0.105344 C 0.058173 -0.105344 0.105343 -0.0581743 0.105343 0.00000126311 Z M 0.105343 0.00000126311 " transform="matrix(197.34167,0,0,197.34167,104.363792,278.347407)"/>
<path style="fill-rule:nonzero;fill:rgb(100%,92.941176%,43.529412%);fill-opacity:1;stroke-width:0.0210688;stroke-linecap:butt;stroke-linejoin:miter;stroke:rgb(60%,60%,60%);stroke-opacity:0.8;stroke-miterlimit:10;" d="M 0.105339 0.00000207517 C 0.105339 0.0581777 0.0581887 0.105348 -0.00000664492 0.105348 C -0.0581822 0.105348 -0.105352 0.0581777 -0.105352 0.00000207517 C -0.105352 -0.0581735 -0.0581822 -0.105343 -0.00000664492 -0.105343 C 0.0581887 -0.105343 0.105339 -0.0581735 0.105339 0.00000207517 Z M 0.105339 0.00000207517 " transform="matrix(197.34167,0,0,197.34167,85.243499,195.569903)"/>
<path style="fill-rule:nonzero;fill:rgb(100%,92.941176%,43.529412%);fill-opacity:1;stroke-width:0.0210688;stroke-linecap:butt;stroke-linejoin:miter;stroke:rgb(60%,60%,60%);stroke-opacity:0.8;stroke-miterlimit:10;" d="M 0.10535 -0.00000140073 C 0.10535 0.0581742 0.0581804 0.105344 0.00000481855 0.105344 C -0.0581708 0.105344 -0.105341 0.0581742 -0.105341 -0.00000140073 C -0.105341 -0.058177 -0.0581708 -0.105347 0.00000481855 -0.105347 C 0.0581804 -0.105347 0.10535 -0.058177 0.10535 -0.00000140073 Z M 0.10535 -0.00000140073 " transform="matrix(197.34167,0,0,197.34167,62.682643,229.984651)"/>
<path style="fill-rule:nonzero;fill:rgb(100%,92.941176%,43.529412%);fill-opacity:1;stroke-width:0.0210688;stroke-linecap:butt;stroke-linejoin:miter;stroke:rgb(60%,60%,60%);stroke-opacity:0.8;stroke-miterlimit:10;" d="M 0.105346 -0.00000702536 C 0.105346 0.0581884 0.0581765 0.105339 0.000000879668 0.105339 C -0.0581747 0.105339 -0.105345 0.0581884 -0.105345 -0.00000702536 C -0.105345 -0.0581826 -0.0581747 -0.105353 0.000000879668 -0.105353 C 0.0581765 -0.105353 0.105346 -0.0581826 0.105346 -0.00000702536 Z M 0.105346 -0.00000702536 " transform="matrix(197.34167,0,0,197.34167,509.050608,173.063886)"/>
<path style="fill-rule:nonzero;fill:rgb(100%,92.941176%,43.529412%);fill-opacity:1;stroke-width:0.0210688;stroke-linecap:butt;stroke-linejoin:miter;stroke:rgb(60%,60%,60%);stroke-opacity:0.8;stroke-miterlimit:10;" d="M 0.105335 0.00000741091 C 0.105335 0.058183 0.0581847 0.105353 0.00000906615 0.105353 C -0.0581863 0.105353 -0.105336 0.058183 -0.105336 0.00000741091 C -0.105336 -0.058188 -0.0581863 -0.105338 0.00000906615 -0.105338 C 0.0581847 -0.105338 0.105335 -0.058188 0.105335 0.00000741091 Z M 0.105335 0.00000741091 " transform="matrix(197.34167,0,0,197.34167,402.798992,126.979006)"/>
<path style="fill-rule:nonzero;fill:rgb(100%,92.941176%,43.529412%);fill-opacity:1;stroke-width:0.0210688;stroke-linecap:butt;stroke-linejoin:miter;stroke:rgb(60%,60%,60%);stroke-opacity:0.8;stroke-miterlimit:10;" d="M 0.105344 0.00000621994 C 0.105344 0.0581818 0.0581741 0.105352 -0.0000014649 0.105352 C -0.0581771 0.105352 -0.105347 0.0581818 -0.105347 0.00000621994 C -0.105347 -0.0581892 -0.0581771 -0.105339 -0.0000014649 -0.105339 C 0.0581741 -0.105339 0.105344 -0.0581892 0.105344 0.00000621994 Z M 0.105344 0.00000621994 " transform="matrix(197.34167,0,0,197.34167,455.906539,287.416741)"/>
<path style="fill-rule:nonzero;fill:rgb(100%,92.941176%,43.529412%);fill-opacity:1;stroke-width:0.0210688;stroke-linecap:butt;stroke-linejoin:miter;stroke:rgb(60%,60%,60%);stroke-opacity:0.8;stroke-miterlimit:10;" d="M 0.105345 -0.00000454866 C 0.105345 0.058171 0.0581746 0.105341 -0.000000968147 0.105341 C -0.0581766 0.105341 -0.105346 0.058171 -0.105346 -0.00000454866 C -0.105346 -0.0581801 -0.0581766 -0.10535 -0.000000968147 -0.10535 C 0.0581746 -0.10535 0.105345 -0.0581801 0.105345 -0.00000454866 Z M 0.105345 -0.00000454866 " transform="matrix(197.34167,0,0,197.34167,533.117379,111.03996)"/>
<path style="fill-rule:nonzero;fill:rgb(55.294118%,82.745098%,78.039216%);fill-opacity:1;stroke-width:0.0210688;stroke-linecap:butt;stroke-linejoin:miter;stroke:rgb(60%,60%,60%);stroke-opacity:0.8;stroke-miterlimit:10;" d="M 0.105349 -0.00000316078 C 0.105349 0.0581724 0.0581787 0.105342 0.00000315409 0.105342 C -0.0581724 0.105342 -0.105342 0.0581724 -0.105342 -0.00000316078 C -0.105342 -0.0581788 -0.0581724 -0.105349 0.00000315409 -0.105349 C 0.0581787 -0.105349 0.105349 -0.0581788 0.105349 -0.00000316078 Z M 0.105349 -0.00000316078 " transform="matrix(197.34167,0,0,197.34167,335.073596,42.649061)"/>
<path style="fill-rule:nonzero;fill:rgb(100%,92.941176%,43.529412%);fill-opacity:1;stroke-width:0.0210688;stroke-linecap:butt;stroke-linejoin:miter;stroke:rgb(60%,60%,60%);stroke-opacity:0.8;stroke-miterlimit:10;" d="M 0.105344 -0.00000895425 C 0.105344 0.0581864 0.0581743 0.105337 -0.00000125342 0.105337 C -0.0581768 0.105337 -0.105347 0.0581864 -0.105347 -0.00000895425 C -0.105347 -0.0581845 -0.0581768 -0.105335 -0.00000125342 -0.105335 C 0.0581743 -0.105335 0.105344 -0.0581845 0.105344 -0.00000895425 Z M 0.105344 -0.00000895425 " transform="matrix(197.34167,0,0,197.34167,480.347904,109.736142)"/>
<path style="fill-rule:nonzero;fill:rgb(100%,92.941176%,43.529412%);fill-opacity:1;stroke-width:0.0210688;stroke-linecap:butt;stroke-linejoin:miter;stroke:rgb(60%,60%,60%);stroke-opacity:0.8;stroke-miterlimit:10;" d="M 0.105336 -0.00000132132 C 0.105336 0.0581743 0.0581855 0.105344 -0.00000984585 0.105344 C -0.0581854 0.105344 -0.105336 0.0581743 -0.105336 -0.00000132132 C -0.105336 -0.0581769 -0.0581854 -0.105347 -0.00000984585 -0.105347 C 0.0581855 -0.105347 0.105336 -0.0581769 0.105336 -0.00000132132 Z M 0.105336 -0.00000132132 " transform="matrix(197.34167,0,0,197.34167,219.849599,394.781511)"/>
<path style="fill-rule:nonzero;fill:rgb(100%,92.941176%,43.529412%);fill-opacity:1;stroke-width:0.0210688;stroke-linecap:butt;stroke-linejoin:miter;stroke:rgb(60%,60%,60%);stroke-opacity:0.8;stroke-miterlimit:10;" d="M 0.105348 0.00000316078 C 0.105348 0.0581788 0.0581785 0.105349 0.00000288725 0.105349 C -0.0581727 0.105349 -0.105343 0.0581788 -0.105343 0.00000316078 C -0.105343 -0.0581724 -0.0581727 -0.105342 0.00000288725 -0.105342 C 0.0581785 -0.105342 0.105348 -0.0581724 0.105348 0.00000316078 Z M 0.105348 0.00000316078 " transform="matrix(197.34167,0,0,197.34167,288.675211,557.350939)"/>
<path style="fill-rule:nonzero;fill:rgb(100%,92.941176%,43.529412%);fill-opacity:1;stroke-width:0.0210688;stroke-linecap:butt;stroke-linejoin:miter;stroke:rgb(60%,60%,60%);stroke-opacity:0.8;stroke-miterlimit:10;" d="M 0.105351 -0.0000012659 C 0.105351 0.0581743 0.0581809 0.105344 0.00000527872 0.105344 C -0.0581703 0.105344 -0.10534 0.0581743 -0.10534 -0.0000012659 C -0.10534 -0.0581769 -0.0581703 -0.105347 0.00000527872 -0.105347 C 0.0581809 -0.105347 0.105351 -0.0581769 0.105351 -0.0000012659 Z M 0.105351 -0.0000012659 " transform="matrix(197.34167,0,0,197.34167,345.913021,415.37525)"/>
<path style="fill-rule:nonzero;fill:rgb(100%,92.941176%,43.529412%);fill-opacity:1;stroke-width:0.0210688;stroke-linecap:butt;stroke-linejoin:miter;stroke:rgb(60%,60%,60%);stroke-opacity:0.8;stroke-miterlimit:10;" d="M 0.105336 -0.00000655339 C 0.105336 0.0581888 0.0581862 0.105339 -0.00000922808 0.105339 C -0.0581848 0.105339 -0.105335 0.0581888 -0.105335 -0.00000655339 C -0.105335 -0.0581821 -0.0581848 -0.105352 -0.00000922808 -0.105352 C 0.0581862 -0.105352 0.105336 -0.0581821 0.105336 -0.00000655339 Z M 0.105336 -0.00000655339 " transform="matrix(197.34167,0,0,197.34167,280.29479,482.329418)"/>
<path style="fill-rule:nonzero;fill:rgb(100%,92.941176%,43.529412%);fill-opacity:1;stroke-width:0.0210688;stroke-linecap:butt;stroke-linejoin:miter;stroke:rgb(60%,60%,60%);stroke-opacity:0.8;stroke-miterlimit:10;" d="M 0.105342 -0.00000829394 C 0.105342 0.0581871 0.0581721 0.105337 -0.00000348152 0.105337 C -0.0581791 0.105337 -0.105349 0.0581871 -0.105349 -0.00000829394 C -0.105349 -0.0581839 -0.0581791 -0.105354 -0.00000348152 -0.105354 C 0.0581721 -0.105354 0.105342 -0.0581839 0.105342 -0.00000829394 Z M 0.105342 -0.00000829394 " transform="matrix(197.34167,0,0,197.34167,431.97725,377.134449)"/>
<path style="fill-rule:nonzero;fill:rgb(100%,92.941176%,43.529412%);fill-opacity:1;stroke-width:0.0210688;stroke-linecap:butt;stroke-linejoin:miter;stroke:rgb(60%,60%,60%);stroke-opacity:0.8;stroke-miterlimit:10;" d="M 0.105352 -0.00000134676 C 0.105352 0.0581742 0.0581821 0.105344 0.00000650573 0.105344 C -0.0581889 0.105344 -0.105339 0.0581742 -0.105339 -0.00000134676 C -0.105339 -0.0581769 -0.0581889 -0.105347 0.00000650573 -0.105347 C 0.0581821 -0.105347 0.105352 -0.0581769 0.105352 -0.00000134676 Z M 0.105352 -0.00000134676 " transform="matrix(197.34167,0,0,197.34167,555.455747,339.636985)"/>
<path style="fill-rule:nonzero;fill:rgb(100%,92.941176%,43.529412%);fill-opacity:1;stroke-width:0.0210688;stroke-linecap:butt;stroke-linejoin:miter;stroke:rgb(60%,60%,60%);stroke-opacity:0.8;stroke-miterlimit:10;" d="M 0.105338 -0.00000593118 C 0.105338 0.0581895 0.0581883 0.10534 -0.00000709581 0.10534 C -0.0581827 0.10534 -0.105353 0.0581895 -0.105353 -0.00000593118 C -0.105353 -0.0581815 -0.0581827 -0.105351 -0.00000709581 -0.105351 C 0.0581883 -0.105351 0.105338 -0.0581815 0.105338 -0.00000593118 Z M 0.105338 -0.00000593118 " transform="matrix(197.34167,0,0,197.34167,319.450619,514.551952)"/>
</g>
</svg>
