<?xml version="1.0" encoding="UTF-8"?>
<svg xmlns="http://www.w3.org/2000/svg" xmlns:xlink="http://www.w3.org/1999/xlink" width="600pt" height="600pt" viewBox="0 0 600 600" version="1.1">
<defs>
<clipPath id="clip1">
  <path d="M 0 177.113281 L 111 177.113281 L 111 327.492188 L 0 327.492188 Z M 0 177.113281 "/>
</clipPath>
<clipPath id="clip2">
  <path d="M -129.792969 177.113281 L 226.304688 177.113281 L 226.304688 327.492188 L -129.792969 327.492188 Z M -129.792969 177.113281 L 75.023438 225.78125 C 75.023438 236.640625 66.222656 245.445312 55.359375 245.445312 C 44.5 245.445312 35.695312 236.640625 35.695312 225.78125 C 35.695312 214.921875 44.5 206.117188 55.359375 206.117188 C 66.222656 206.117188 75.023438 214.921875 75.023438 225.78125 Z M -129.792969 177.113281 "/>
</clipPath>
<clipPath id="clip3">
  <path d="M -129.792969 177.113281 L 226.304688 177.113281 L 226.304688 327.492188 L -129.792969 327.492188 Z M -129.792969 177.113281 L 60.816406 278.824219 C 60.816406 289.683594 52.011719 298.488281 41.152344 298.488281 C 30.292969 298.488281 21.488281 289.683594 21.488281 278.824219 C 21.488281 267.964844 30.292969 259.160156 41.152344 259.160156 C 52.011719 259.160156 60.816406 267.964844 60.816406 278.824219 Z M -129.792969 177.113281 "/>
</clipPath>
<clipPath id="clip4">
  <path d="M 0 100.1875 L 132 100.1875 L 132 276.179688 L 0 276.179688 Z M 0 100.1875 "/>
</clipPath>
<clipPath id="clip5">
  <path d="M -115.113281 100.1875 L 246.8125 100.1875 L 246.8125 276.179688 L -115.113281 276.179688 Z M -115.113281 100.1875 L 75.023438 225.78125 C 75.023438 236.640625 66.222656 245.445312 55.359375 245.445312 C 44.5 245.445312 35.695312 236.640625 35.695312 225.78125 C 35.695312 214.921875 44.5 206.117188 55.359375 206.117188 C 66.222656 206.117188 75.023438 214.921875 75.023438 225.78125 Z M -115.113281 100.1875 "/>
</clipPath>
<clipPath id="clip6">
  <path d="M -115.113281 100.1875 L 246.8125 100.1875 L 246.8125 276.179688 L -115.113281 276.179688 Z M -115.113281 100.1875 L 96.003906 150.585938 C 96.003906 161.445312 87.199219 170.25 76.339844 170.25 C 65.480469 170.25 56.675781 161.445312 56.675781 150.585938 C 56.675781 139.726562 65.480469 130.921875 76.339844 130.921875 C 87.199219 130.921875 96.003906 139.726562 96.003906 150.585938 Z M -115.113281 100.1875 "/>
</clipPath>
<clipPath id="clip7">
  <path d="M 0 170 L 149 170 L 149 328 L 0 328 Z M 0 170 "/>
</clipPath>
<clipPath id="clip8">
  <path d="M -83.324219 113.507812 L 231.121094 113.507812 L 231.121094 384.171875 L -83.324219 384.171875 Z M -83.324219 113.507812 L 75.023438 225.78125 C 75.023438 236.640625 66.222656 245.445312 55.359375 245.445312 C 44.5 245.445312 35.695312 236.640625 35.695312 225.78125 C 35.695312 214.921875 44.5 206.117188 55.359375 206.117188 C 66.222656 206.117188 75.023438 214.921875 75.023438 225.78125 Z M -83.324219 113.507812 "/>
</clipPath>
<clipPath id="clip9">
  <path d="M -83.324219 113.507812 L 231.121094 113.507812 L 231.121094 384.171875 L -83.324219 384.171875 Z M -83.324219 113.507812 L 112.101562 271.898438 C 112.101562 282.761719 103.296875 291.5625 92.4375 291.5625 C 81.578125 291.5625 72.773438 282.761719 72.773438 271.898438 C 72.773438 261.039062 81.578125 252.234375 92.4375 252.234375 C 103.296875 252.234375 112.101562 261.039062 112.101562 271.898438 Z M -83.324219 113.507812 "/>
</clipPath>
<clipPath id="clip10">
  <path d="M 14.078125 216 L 119.511719 216 L 119.511719 335 L 14.078125 335 Z M 14.078125 216 "/>
</clipPath>
<clipPath id="clip11">
  <path d="M 14.078125 96.621094 L 119.511719 96.621094 L 119.511719 454.101562 L 14.078125 454.101562 Z M 14.078125 96.621094 L 60.816406 278.824219 C 60.816406 289.683594 52.011719 298.488281 41.152344 298.488281 C 30.292969 298.488281 21.488281 289.683594 21.488281 278.824219 C 21.488281 267.964844 30.292969 259.160156 41.152344 259.160156 C 52.011719 259.160156 60.816406 267.964844 60.816406 278.824219 Z M 14.078125 96.621094 "/>
</clipPath>
<clipPath id="clip12">
  <path d="M 14.078125 96.621094 L 119.511719 96.621094 L 119.511719 454.101562 L 14.078125 454.101562 Z M 14.078125 96.621094 L 112.101562 271.898438 C 112.101562 282.761719 103.296875 291.5625 92.4375 291.5625 C 81.578125 291.5625 72.773438 282.761719 72.773438 271.898438 C 72.773438 261.039062 81.578125 252.234375 92.4375 252.234375 C 103.296875 252.234375 112.101562 261.039062 112.101562 271.898438 Z M 14.078125 96.621094 "/>
</clipPath>
<clipPath id="clip13">
  <path d="M 20 94 L 162 94 L 162 234 L 20 234 Z M 20 94 "/>
</clipPath>
<clipPath id="clip14">
  <path d="M -45.667969 20.34375 L 227.765625 20.34375 L 227.765625 308.328125 L -45.667969 308.328125 Z M -45.667969 20.34375 L 96.003906 150.585938 C 96.003906 161.445312 87.199219 170.25 76.339844 170.25 C 65.480469 170.25 56.675781 161.445312 56.675781 150.585938 C 56.675781 139.726562 65.480469 130.921875 76.339844 130.921875 C 87.199219 130.921875 96.003906 139.726562 96.003906 150.585938 Z M -45.667969 20.34375 "/>
</clipPath>
<clipPath id="clip15">
  <path d="M -45.667969 20.34375 L 227.765625 20.34375 L 227.765625 308.328125 L -45.667969 308.328125 Z M -45.667969 20.34375 L 125.421875 178.085938 C 125.421875 188.945312 116.617188 197.75 105.757812 197.75 C 94.894531 197.75 86.09375 188.945312 86.09375 178.085938 C 86.09375 167.222656 94.894531 158.421875 105.757812 158.421875 C 116.617188 158.421875 125.421875 167.222656 125.421875 178.085938 Z M -45.667969 20.34375 "/>
</clipPath>
<clipPath id="clip16">
  <path d="M 100 310 L 307 310 L 307 466 L 100 466 Z M 100 310 "/>
</clipPath>
<clipPath id="clip17">
  <path d="M 80.644531 205.238281 L 326.203125 205.238281 L 326.203125 570.964844 L 80.644531 570.964844 Z M 80.644531 205.238281 L 175.742188 366.597656 C 175.742188 377.457031 166.9375 386.261719 156.078125 386.261719 C 145.214844 386.261719 136.414062 377.457031 136.414062 366.597656 C 136.414062 355.738281 145.214844 346.933594 156.078125 346.933594 C 166.9375 346.933594 175.742188 355.738281 175.742188 366.597656 Z M 80.644531 205.238281 "/>
</clipPath>
<clipPath id="clip18">
  <path d="M 80.644531 205.238281 L 326.203125 205.238281 L 326.203125 570.964844 L 80.644531 570.964844 Z M 80.644531 205.238281 L 270.433594 409.605469 C 270.433594 420.464844 261.632812 429.269531 250.769531 429.269531 C 239.910156 429.269531 231.105469 420.464844 231.105469 409.605469 C 231.105469 398.746094 239.910156 389.941406 250.769531 389.941406 C 261.632812 389.941406 270.433594 398.746094 270.433594 409.605469 Z M 80.644531 205.238281 "/>
</clipPath>
<clipPath id="clip19">
  <path d="M 36 216 L 212 216 L 212 423 L 36 423 Z M 36 216 "/>
</clipPath>
<clipPath id="clip20">
  <path d="M -55 171.523438 L 303.515625 171.523438 L 303.515625 466.972656 L -55 466.972656 Z M -55 171.523438 L 175.742188 366.597656 C 175.742188 377.457031 166.9375 386.261719 156.078125 386.261719 C 145.214844 386.261719 136.414062 377.457031 136.414062 366.597656 C 136.414062 355.738281 145.214844 346.933594 156.078125 346.933594 C 166.9375 346.933594 175.742188 355.738281 175.742188 366.597656 Z M -55 171.523438 "/>
</clipPath>
<clipPath id="clip21">
  <path d="M -55 171.523438 L 303.515625 171.523438 L 303.515625 466.972656 L -55 466.972656 Z M -55 171.523438 L 112.101562 271.898438 C 112.101562 282.761719 103.296875 291.5625 92.4375 291.5625 C 81.578125 291.5625 72.773438 282.761719 72.773438 271.898438 C 72.773438 261.039062 81.578125 252.234375 92.4375 252.234375 C 103.296875 252.234375 112.101562 261.039062 112.101562 271.898438 Z M -55 171.523438 "/>
</clipPath>
<clipPath id="clip22">
  <path d="M 195 230 L 374 230 L 374 466 L 195 466 Z M 195 230 "/>
</clipPath>
<clipPath id="clip23">
  <path d="M 94.96875 199.132812 L 473.992188 199.132812 L 473.992188 496.1875 L 94.96875 496.1875 Z M 94.96875 199.132812 L 270.433594 409.605469 C 270.433594 420.464844 261.632812 429.269531 250.769531 429.269531 C 239.910156 429.269531 231.105469 420.464844 231.105469 409.605469 C 231.105469 398.746094 239.910156 389.941406 250.769531 389.941406 C 261.632812 389.941406 270.433594 398.746094 270.433594 409.605469 Z M 94.96875 199.132812 "/>
</clipPath>
<clipPath id="clip24">
  <path d="M 94.96875 199.132812 L 473.992188 199.132812 L 473.992188 496.1875 L 94.96875 496.1875 Z M 94.96875 199.132812 L 337.855469 285.714844 C 337.855469 296.574219 329.050781 305.378906 318.191406 305.378906 C 307.332031 305.378906 298.527344 296.574219 298.527344 285.714844 C 298.527344 274.855469 307.332031 266.050781 318.191406 266.050781 C 329.050781 266.050781 337.855469 274.855469 337.855469 285.714844 Z M 94.96875 199.132812 "/>
</clipPath>
<clipPath id="clip25">
  <path d="M 195 353 L 388 353 L 388 524 L 195 524 Z M 195 353 "/>
</clipPath>
<clipPath id="clip26">
  <path d="M 145.75 265.398438 L 436.863281 265.398438 L 436.863281 612.238281 L 145.75 612.238281 Z M 145.75 265.398438 L 270.433594 409.605469 C 270.433594 420.464844 261.632812 429.269531 250.769531 429.269531 C 239.910156 429.269531 231.105469 420.464844 231.105469 409.605469 C 231.105469 398.746094 239.910156 389.941406 250.769531 389.941406 C 261.632812 389.941406 270.433594 398.746094 270.433594 409.605469 Z M 145.75 265.398438 "/>
</clipPath>
<clipPath id="clip27">
  <path d="M 145.75 265.398438 L 436.863281 265.398438 L 436.863281 612.238281 L 145.75 612.238281 Z M 145.75 265.398438 L 351.507812 468.03125 C 351.507812 478.890625 342.707031 487.695312 331.84375 487.695312 C 320.984375 487.695312 312.179688 478.890625 312.179688 468.03125 C 312.179688 457.171875 320.984375 448.367188 331.84375 448.367188 C 342.707031 448.367188 351.507812 457.171875 351.507812 468.03125 Z M 145.75 265.398438 "/>
</clipPath>
<clipPath id="clip28">
  <path d="M 149 353 L 307 353 L 307 543 L 149 543 Z M 149 353 "/>
</clipPath>
<clipPath id="clip29">
  <path d="M 52.175781 318.550781 L 404.050781 318.550781 L 404.050781 578.335938 L 52.175781 578.335938 Z M 52.175781 318.550781 L 270.433594 409.605469 C 270.433594 420.464844 261.632812 429.269531 250.769531 429.269531 C 239.910156 429.269531 231.105469 420.464844 231.105469 409.605469 C 231.105469 398.746094 239.910156 389.941406 250.769531 389.941406 C 261.632812 389.941406 270.433594 398.746094 270.433594 409.605469 Z M 52.175781 318.550781 "/>
</clipPath>
<clipPath id="clip30">
  <path d="M 52.175781 318.550781 L 404.050781 318.550781 L 404.050781 578.335938 L 52.175781 578.335938 Z M 52.175781 318.550781 L 225.121094 487.28125 C 225.121094 498.140625 216.316406 506.945312 205.457031 506.945312 C 194.597656 506.945312 185.792969 498.140625 185.792969 487.28125 C 185.792969 476.417969 194.597656 467.617188 205.457031 467.617188 C 216.316406 467.617188 225.121094 476.417969 225.121094 487.28125 Z M 52.175781 318.550781 "/>
</clipPath>
<clipPath id="clip31">
  <path d="M 36 149.847656 L 162 149.847656 L 162 300.136719 L 36 300.136719 Z M 36 149.847656 "/>
</clipPath>
<clipPath id="clip32">
  <path d="M -82.679688 149.847656 L 280.875 149.847656 L 280.875 300.136719 L -82.679688 300.136719 Z M -82.679688 149.847656 L 125.421875 178.085938 C 125.421875 188.945312 116.617188 197.75 105.757812 197.75 C 94.894531 197.75 86.09375 188.945312 86.09375 178.085938 C 86.09375 167.222656 94.894531 158.421875 105.757812 158.421875 C 116.617188 158.421875 125.421875 167.222656 125.421875 178.085938 Z M -82.679688 149.847656 "/>
</clipPath>
<clipPath id="clip33">
  <path d="M -82.679688 149.847656 L 280.875 149.847656 L 280.875 300.136719 L -82.679688 300.136719 Z M -82.679688 149.847656 L 112.101562 271.898438 C 112.101562 282.761719 103.296875 291.5625 92.4375 291.5625 C 81.578125 291.5625 72.773438 282.761719 72.773438 271.898438 C 72.773438 261.039062 81.578125 252.234375 92.4375 252.234375 C 103.296875 252.234375 112.101562 261.039062 112.101562 271.898438 Z M -82.679688 149.847656 "/>
</clipPath>
<clipPath id="clip34">
  <path d="M 262 108 L 421 108 L 421 342 L 262 342 Z M 262 108 "/>
</clipPath>
<clipPath id="clip35">
  <path d="M 152.625 98.527344 L 530.046875 98.527344 L 530.046875 351.046875 L 152.625 351.046875 Z M 152.625 98.527344 L 384.148438 163.859375 C 384.148438 174.71875 375.34375 183.523438 364.480469 183.523438 C 353.621094 183.523438 344.816406 174.71875 344.816406 163.859375 C 344.816406 153 353.621094 144.195312 364.480469 144.195312 C 375.34375 144.195312 384.148438 153 384.148438 163.859375 Z M 152.625 98.527344 "/>
</clipPath>
<clipPath id="clip36">
  <path d="M 152.625 98.527344 L 530.046875 98.527344 L 530.046875 351.046875 L 152.625 351.046875 Z M 152.625 98.527344 L 337.855469 285.714844 C 337.855469 296.574219 329.050781 305.378906 318.191406 305.378906 C 307.332031 305.378906 298.527344 296.574219 298.527344 285.714844 C 298.527344 274.855469 307.332031 266.050781 318.191406 266.050781 C 329.050781 266.050781 337.855469 274.855469 337.855469 285.714844 Z M 152.625 98.527344 "/>
</clipPath>
<clipPath id="clip37">
  <path d="M 296 51.183594 L 421 51.183594 L 421 192.796875 L 296 192.796875 Z M 296 51.183594 "/>
</clipPath>
<clipPath id="clip38">
  <path d="M 177.226562 51.183594 L 539.496094 51.183594 L 539.496094 192.796875 L 177.226562 192.796875 Z M 177.226562 51.183594 L 384.148438 163.859375 C 384.148438 174.71875 375.34375 183.523438 364.480469 183.523438 C 353.621094 183.523438 344.816406 174.71875 344.816406 163.859375 C 344.816406 153 353.621094 144.195312 364.480469 144.195312 C 375.34375 144.195312 384.148438 153 384.148438 163.859375 Z M 177.226562 51.183594 "/>
</clipPath>
<clipPath id="clip39">
  <path d="M 177.226562 51.183594 L 539.496094 51.183594 L 539.496094 192.796875 L 177.226562 192.796875 Z M 177.226562 51.183594 L 371.90625 80.121094 C 371.90625 90.980469 363.101562 99.785156 352.242188 99.785156 C 341.378906 99.785156 332.578125 90.980469 332.578125 80.121094 C 332.578125 69.261719 341.378906 60.457031 352.242188 60.457031 C 363.101562 60.457031 371.90625 69.261719 371.90625 80.121094 Z M 177.226562 51.183594 "/>
</clipPath>
<clipPath id="clip40">
  <path d="M 308 70 L 495 70 L 495 220 L 308 220 Z M 308 70 "/>
</clipPath>
<clipPath id="clip41">
  <path d="M 282.988281 -31.925781 L 520.335938 -31.925781 L 520.335938 322.320312 L 282.988281 322.320312 Z M 282.988281 -31.925781 L 384.148438 163.859375 C 384.148438 174.71875 375.34375 183.523438 364.480469 183.523438 C 353.621094 183.523438 344.816406 174.71875 344.816406 163.859375 C 344.816406 153 353.621094 144.195312 364.480469 144.195312 C 375.34375 144.195312 384.148438 153 384.148438 163.859375 Z M 282.988281 -31.925781 "/>
</clipPath>
<clipPath id="clip42">
  <path d="M 282.988281 -31.925781 L 520.335938 -31.925781 L 520.335938 322.320312 L 282.988281 322.320312 Z M 282.988281 -31.925781 L 458.507812 126.535156 C 458.507812 137.398438 449.707031 146.199219 438.84375 146.199219 C 427.984375 146.199219 419.179688 137.398438 419.179688 126.535156 C 419.179688 115.675781 427.984375 106.871094 438.84375 106.871094 C 449.707031 106.871094 458.507812 115.675781 458.507812 126.535156 Z M 282.988281 -31.925781 "/>
</clipPath>
<clipPath id="clip43">
  <path d="M 296 7 L 454 7 L 454 136 L 296 136 Z M 296 7 "/>
</clipPath>
<clipPath id="clip44">
  <path d="M 287.457031 -102.792969 L 462.613281 -102.792969 L 462.613281 245.894531 L 287.457031 245.894531 Z M 287.457031 -102.792969 L 371.90625 80.121094 C 371.90625 90.980469 363.101562 99.785156 352.242188 99.785156 C 341.378906 99.785156 332.578125 90.980469 332.578125 80.121094 C 332.578125 69.261719 341.378906 60.457031 352.242188 60.457031 C 363.101562 60.457031 371.90625 69.261719 371.90625 80.121094 Z M 287.457031 -102.792969 "/>
</clipPath>
<clipPath id="clip45">
  <path d="M 287.457031 -102.792969 L 462.613281 -102.792969 L 462.613281 245.894531 L 287.457031 245.894531 Z M 287.457031 -102.792969 L 417.492188 62.980469 C 417.492188 73.839844 408.6875 82.644531 397.828125 82.644531 C 386.96875 82.644531 378.164062 73.839844 378.164062 62.980469 C 378.164062 52.121094 386.96875 43.316406 397.828125 43.316406 C 408.6875 43.316406 417.492188 52.121094 417.492188 62.980469 Z M 287.457031 -102.792969 "/>
</clipPath>
<clipPath id="clip46">
  <path d="M 342 7 L 495 7 L 495 183 L 342 183 Z M 342 7 "/>
</clipPath>
<clipPath id="clip47">
  <path d="M 248.621094 -34.707031 L 588.050781 -34.707031 L 588.050781 224.222656 L 248.621094 224.222656 Z M 248.621094 -34.707031 L 458.507812 126.535156 C 458.507812 137.398438 449.707031 146.199219 438.84375 146.199219 C 427.984375 146.199219 419.179688 137.398438 419.179688 126.535156 C 419.179688 115.675781 427.984375 106.871094 438.84375 106.871094 C 449.707031 106.871094 458.507812 115.675781 458.507812 126.535156 Z M 248.621094 -34.707031 "/>
</clipPath>
<clipPath id="clip48">
  <path d="M 248.621094 -34.707031 L 588.050781 -34.707031 L 588.050781 224.222656 L 248.621094 224.222656 Z M 248.621094 -34.707031 L 417.492188 62.980469 C 417.492188 73.839844 408.6875 82.644531 397.828125 82.644531 C 386.96875 82.644531 378.164062 73.839844 378.164062 62.980469 C 378.164062 52.121094 386.96875 43.316406 397.828125 43.316406 C 408.6875 43.316406 417.492188 52.121094 417.492188 62.980469 Z M 248.621094 -34.707031 "/>
</clipPath>
<clipPath id="clip49">
  <path d="M 383 70 L 573 70 L 573 229 L 383 229 Z M 383 70 "/>
</clipPath>
<clipPath id="clip50">
  <path d="M 346.507812 -25.988281 L 609.265625 -25.988281 L 609.265625 325.515625 L 346.507812 325.515625 Z M 346.507812 -25.988281 L 458.507812 126.535156 C 458.507812 137.398438 449.707031 146.199219 438.84375 146.199219 C 427.984375 146.199219 419.179688 137.398438 419.179688 126.535156 C 419.179688 115.675781 427.984375 106.871094 438.84375 106.871094 C 449.707031 106.871094 458.507812 115.675781 458.507812 126.535156 Z M 346.507812 -25.988281 "/>
</clipPath>
<clipPath id="clip51">
  <path d="M 346.507812 -25.988281 L 609.265625 -25.988281 L 609.265625 325.515625 L 346.507812 325.515625 Z M 346.507812 -25.988281 L 536.59375 172.992188 C 536.59375 183.851562 527.789062 192.65625 516.929688 192.65625 C 506.066406 192.65625 497.265625 183.851562 497.265625 172.992188 C 497.265625 162.128906 506.066406 153.328125 516.929688 153.328125 C 527.789062 153.328125 536.59375 162.128906 536.59375 172.992188 Z M 346.507812 -25.988281 "/>
</clipPath>
<clipPath id="clip52">
  <path d="M 461 117 L 600 117 L 600 272 L 461 272 Z M 461 117 "/>
</clipPath>
<clipPath id="clip53">
  <path d="M 389.9375 47.605469 L 685.839844 47.605469 L 685.839844 340.851562 L 389.9375 340.851562 Z M 389.9375 47.605469 L 578.511719 215.464844 C 578.511719 226.324219 569.707031 235.128906 558.847656 235.128906 C 547.988281 235.128906 539.183594 226.324219 539.183594 215.464844 C 539.183594 204.605469 547.988281 195.800781 558.847656 195.800781 C 569.707031 195.800781 578.511719 204.605469 578.511719 215.464844 Z M 389.9375 47.605469 "/>
</clipPath>
<clipPath id="clip54">
  <path d="M 389.9375 47.605469 L 685.839844 47.605469 L 685.839844 340.851562 L 389.9375 340.851562 Z M 389.9375 47.605469 L 536.59375 172.992188 C 536.59375 183.851562 527.789062 192.65625 516.929688 192.65625 C 506.066406 192.65625 497.265625 183.851562 497.265625 172.992188 C 497.265625 162.128906 506.066406 153.328125 516.929688 153.328125 C 527.789062 153.328125 536.59375 162.128906 536.59375 172.992188 Z M 389.9375 47.605469 "/>
</clipPath>
<clipPath id="clip55">
  <path d="M 287.773438 412 L 463.117188 412 L 463.117188 545 L 287.773438 545 Z M 287.773438 412 "/>
</clipPath>
<clipPath id="clip56">
  <path d="M 287.773438 295.921875 L 463.117188 295.921875 L 463.117188 660.953125 L 287.773438 660.953125 Z M 287.773438 295.921875 L 351.507812 468.03125 C 351.507812 478.890625 342.707031 487.695312 331.84375 487.695312 C 320.984375 487.695312 312.179688 478.890625 312.179688 468.03125 C 312.179688 457.171875 320.984375 448.367188 331.84375 448.367188 C 342.707031 448.367188 351.507812 457.171875 351.507812 468.03125 Z M 287.773438 295.921875 "/>
</clipPath>
<clipPath id="clip57">
  <path d="M 287.773438 295.921875 L 463.117188 295.921875 L 463.117188 660.953125 L 287.773438 660.953125 Z M 287.773438 295.921875 L 438.710938 488.84375 C 438.710938 499.703125 429.90625 508.507812 419.046875 508.507812 C 408.1875 508.507812 399.382812 499.703125 399.382812 488.84375 C 399.382812 477.984375 408.1875 469.179688 419.046875 469.179688 C 429.90625 469.179688 438.710938 477.984375 438.710938 488.84375 Z M 287.773438 295.921875 "/>
</clipPath>
<clipPath id="clip58">
  <path d="M 363 405 L 539 405 L 539 545 L 363 545 Z M 363 405 "/>
</clipPath>
<clipPath id="clip59">
  <path d="M 347.285156 298.515625 L 554.949219 298.515625 L 554.949219 651.816406 L 347.285156 651.816406 Z M 347.285156 298.515625 L 438.710938 488.84375 C 438.710938 499.703125 429.90625 508.507812 419.046875 508.507812 C 408.1875 508.507812 399.382812 499.703125 399.382812 488.84375 C 399.382812 477.984375 408.1875 469.179688 419.046875 469.179688 C 429.90625 469.179688 438.710938 477.984375 438.710938 488.84375 Z M 347.285156 298.515625 "/>
</clipPath>
<clipPath id="clip60">
  <path d="M 347.285156 298.515625 L 554.949219 298.515625 L 554.949219 651.816406 L 347.285156 651.816406 Z M 347.285156 298.515625 L 502.851562 461.488281 C 502.851562 472.351562 494.046875 481.152344 483.1875 481.152344 C 472.328125 481.152344 463.523438 472.351562 463.523438 461.488281 C 463.523438 450.628906 472.328125 441.824219 483.1875 441.824219 C 494.046875 441.824219 502.851562 450.628906 502.851562 461.488281 Z M 347.285156 298.515625 "/>
</clipPath>
<clipPath id="clip61">
  <path d="M 363 459.65625 L 482 459.65625 L 482 566.207031 L 363 566.207031 Z M 363 459.65625 "/>
</clipPath>
<clipPath id="clip62">
  <path d="M 244.066406 459.65625 L 601.140625 459.65625 L 601.140625 566.207031 L 244.066406 566.207031 Z M 244.066406 459.65625 L 438.710938 488.84375 C 438.710938 499.703125 429.90625 508.507812 419.046875 508.507812 C 408.1875 508.507812 399.382812 499.703125 399.382812 488.84375 C 399.382812 477.984375 408.1875 469.179688 419.046875 469.179688 C 429.90625 469.179688 438.710938 477.984375 438.710938 488.84375 Z M 244.066406 459.65625 "/>
</clipPath>
<clipPath id="clip63">
  <path d="M 244.066406 459.65625 L 601.140625 459.65625 L 601.140625 566.207031 L 244.066406 566.207031 Z M 244.066406 459.65625 L 445.824219 537.019531 C 445.824219 547.878906 437.019531 556.683594 426.160156 556.683594 C 415.300781 556.683594 406.496094 547.878906 406.496094 537.019531 C 406.496094 526.160156 415.300781 517.355469 426.160156 517.355469 C 437.019531 517.355469 445.824219 526.160156 445.824219 537.019531 Z M 244.066406 459.65625 "/>
</clipPath>
</defs>
<g id="surface221">
<g clip-path="url(#clip1)" clip-rule="nonzero">
<g clip-path="url(#clip2)" clip-rule="evenodd">
<g clip-path="url(#clip3)" clip-rule="evenodd">
<path style="fill:none;stroke-width:0.0227463;stroke-linecap:butt;stroke-linejoin:miter;stroke:rgb(17.96875%,20.3125%,21.09375%);stroke-opacity:0.8;stroke-miterlimit:10;" d="M 1.033317 1.27634 L 0.951148 1.583123 " transform="matrix(172.900514,0,0,172.900514,-123.301636,5.101428)"/>
</g>
</g>
</g>
<g clip-path="url(#clip4)" clip-rule="nonzero">
<g clip-path="url(#clip5)" clip-rule="evenodd">
<g clip-path="url(#clip6)" clip-rule="evenodd">
<path style="fill:none;stroke-width:0.0227463;stroke-linecap:butt;stroke-linejoin:miter;stroke:rgb(17.96875%,20.3125%,21.09375%);stroke-opacity:0.8;stroke-miterlimit:10;" d="M 1.033317 1.27634 L 1.154661 0.841435 " transform="matrix(172.900514,0,0,172.900514,-123.301636,5.101428)"/>
</g>
</g>
</g>
<g clip-path="url(#clip7)" clip-rule="nonzero">
<g clip-path="url(#clip8)" clip-rule="evenodd">
<g clip-path="url(#clip9)" clip-rule="evenodd">
<path style="fill:none;stroke-width:0.0227463;stroke-linecap:butt;stroke-linejoin:miter;stroke:rgb(17.96875%,20.3125%,21.09375%);stroke-opacity:0.8;stroke-miterlimit:10;" d="M 1.033317 1.27634 L 1.247765 1.543067 " transform="matrix(172.900514,0,0,172.900514,-123.301636,5.101428)"/>
</g>
</g>
</g>
<g clip-path="url(#clip10)" clip-rule="nonzero">
<g clip-path="url(#clip11)" clip-rule="evenodd">
<g clip-path="url(#clip12)" clip-rule="evenodd">
<path style="fill:none;stroke-width:0.0227463;stroke-linecap:butt;stroke-linejoin:miter;stroke:rgb(17.96875%,20.3125%,21.09375%);stroke-opacity:0.8;stroke-miterlimit:10;" d="M 0.951148 1.583123 L 1.247765 1.543067 " transform="matrix(172.900514,0,0,172.900514,-123.301636,5.101428)"/>
</g>
</g>
</g>
<g clip-path="url(#clip13)" clip-rule="nonzero">
<g clip-path="url(#clip14)" clip-rule="evenodd">
<g clip-path="url(#clip15)" clip-rule="evenodd">
<path style="fill:none;stroke-width:0.0227463;stroke-linecap:butt;stroke-linejoin:miter;stroke:rgb(17.96875%,20.3125%,21.09375%);stroke-opacity:0.8;stroke-miterlimit:10;" d="M 1.154661 0.841435 L 1.324805 1.000486 " transform="matrix(172.900514,0,0,172.900514,-123.301636,5.101428)"/>
</g>
</g>
</g>
<g clip-path="url(#clip16)" clip-rule="nonzero">
<g clip-path="url(#clip17)" clip-rule="evenodd">
<g clip-path="url(#clip18)" clip-rule="evenodd">
<path style="fill:none;stroke-width:0.0227463;stroke-linecap:butt;stroke-linejoin:miter;stroke:rgb(17.96875%,20.3125%,21.09375%);stroke-opacity:0.8;stroke-miterlimit:10;" d="M 1.615841 2.090776 L 2.163505 2.339519 " transform="matrix(172.900514,0,0,172.900514,-123.301636,5.101428)"/>
</g>
</g>
</g>
<g clip-path="url(#clip19)" clip-rule="nonzero">
<g clip-path="url(#clip20)" clip-rule="evenodd">
<g clip-path="url(#clip21)" clip-rule="evenodd">
<path style="fill:none;stroke-width:0.0227463;stroke-linecap:butt;stroke-linejoin:miter;stroke:rgb(17.96875%,20.3125%,21.09375%);stroke-opacity:0.8;stroke-miterlimit:10;" d="M 1.615841 2.090776 L 1.247765 1.543067 " transform="matrix(172.900514,0,0,172.900514,-123.301636,5.101428)"/>
</g>
</g>
</g>
<g clip-path="url(#clip22)" clip-rule="nonzero">
<g clip-path="url(#clip23)" clip-rule="evenodd">
<g clip-path="url(#clip24)" clip-rule="evenodd">
<path style="fill:none;stroke-width:0.0227463;stroke-linecap:butt;stroke-linejoin:miter;stroke:rgb(17.96875%,20.3125%,21.09375%);stroke-opacity:0.8;stroke-miterlimit:10;" d="M 2.163505 2.339519 L 2.553451 1.622976 " transform="matrix(172.900514,0,0,172.900514,-123.301636,5.101428)"/>
</g>
</g>
</g>
<g clip-path="url(#clip25)" clip-rule="nonzero">
<g clip-path="url(#clip26)" clip-rule="evenodd">
<g clip-path="url(#clip27)" clip-rule="evenodd">
<path style="fill:none;stroke-width:0.0227463;stroke-linecap:butt;stroke-linejoin:miter;stroke:rgb(17.96875%,20.3125%,21.09375%);stroke-opacity:0.8;stroke-miterlimit:10;" d="M 2.163505 2.339519 L 2.632412 2.677435 " transform="matrix(172.900514,0,0,172.900514,-123.301636,5.101428)"/>
</g>
</g>
</g>
<g clip-path="url(#clip28)" clip-rule="nonzero">
<g clip-path="url(#clip29)" clip-rule="evenodd">
<g clip-path="url(#clip30)" clip-rule="evenodd">
<path style="fill:none;stroke-width:0.0227463;stroke-linecap:butt;stroke-linejoin:miter;stroke:rgb(17.96875%,20.3125%,21.09375%);stroke-opacity:0.8;stroke-miterlimit:10;" d="M 2.163505 2.339519 L 1.901433 2.78877 " transform="matrix(172.900514,0,0,172.900514,-123.301636,5.101428)"/>
</g>
</g>
</g>
<g clip-path="url(#clip31)" clip-rule="nonzero">
<g clip-path="url(#clip32)" clip-rule="evenodd">
<g clip-path="url(#clip33)" clip-rule="evenodd">
<path style="fill:none;stroke-width:0.0227463;stroke-linecap:butt;stroke-linejoin:miter;stroke:rgb(17.96875%,20.3125%,21.09375%);stroke-opacity:0.8;stroke-miterlimit:10;" d="M 1.324805 1.000486 L 1.247765 1.543067 " transform="matrix(172.900514,0,0,172.900514,-123.301636,5.101428)"/>
</g>
</g>
</g>
<g clip-path="url(#clip34)" clip-rule="nonzero">
<g clip-path="url(#clip35)" clip-rule="evenodd">
<g clip-path="url(#clip36)" clip-rule="evenodd">
<path style="fill:none;stroke-width:0.0227463;stroke-linecap:butt;stroke-linejoin:miter;stroke:rgb(17.96875%,20.3125%,21.09375%);stroke-opacity:0.8;stroke-miterlimit:10;" d="M 2.821172 0.918204 L 2.553451 1.622976 " transform="matrix(172.900514,0,0,172.900514,-123.301636,5.101428)"/>
</g>
</g>
</g>
<g clip-path="url(#clip37)" clip-rule="nonzero">
<g clip-path="url(#clip38)" clip-rule="evenodd">
<g clip-path="url(#clip39)" clip-rule="evenodd">
<path style="fill:none;stroke-width:0.0227463;stroke-linecap:butt;stroke-linejoin:miter;stroke:rgb(17.96875%,20.3125%,21.09375%);stroke-opacity:0.8;stroke-miterlimit:10;" d="M 2.821172 0.918204 L 2.75039 0.433889 " transform="matrix(172.900514,0,0,172.900514,-123.301636,5.101428)"/>
</g>
</g>
</g>
<g clip-path="url(#clip40)" clip-rule="nonzero">
<g clip-path="url(#clip41)" clip-rule="evenodd">
<g clip-path="url(#clip42)" clip-rule="evenodd">
<path style="fill:none;stroke-width:0.0227463;stroke-linecap:butt;stroke-linejoin:miter;stroke:rgb(17.96875%,20.3125%,21.09375%);stroke-opacity:0.8;stroke-miterlimit:10;" d="M 2.821172 0.918204 L 3.251265 0.702333 " transform="matrix(172.900514,0,0,172.900514,-123.301636,5.101428)"/>
</g>
</g>
</g>
<g clip-path="url(#clip43)" clip-rule="nonzero">
<g clip-path="url(#clip44)" clip-rule="evenodd">
<g clip-path="url(#clip45)" clip-rule="evenodd">
<path style="fill:none;stroke-width:0.0227463;stroke-linecap:butt;stroke-linejoin:miter;stroke:rgb(17.96875%,20.3125%,21.09375%);stroke-opacity:0.8;stroke-miterlimit:10;" d="M 2.75039 0.433889 L 3.014044 0.334753 " transform="matrix(172.900514,0,0,172.900514,-123.301636,5.101428)"/>
</g>
</g>
</g>
<g clip-path="url(#clip46)" clip-rule="nonzero">
<g clip-path="url(#clip47)" clip-rule="evenodd">
<g clip-path="url(#clip48)" clip-rule="evenodd">
<path style="fill:none;stroke-width:0.0227463;stroke-linecap:butt;stroke-linejoin:miter;stroke:rgb(17.96875%,20.3125%,21.09375%);stroke-opacity:0.8;stroke-miterlimit:10;" d="M 3.251265 0.702333 L 3.014044 0.334753 " transform="matrix(172.900514,0,0,172.900514,-123.301636,5.101428)"/>
</g>
</g>
</g>
<g clip-path="url(#clip49)" clip-rule="nonzero">
<g clip-path="url(#clip50)" clip-rule="evenodd">
<g clip-path="url(#clip51)" clip-rule="evenodd">
<path style="fill:none;stroke-width:0.0227463;stroke-linecap:butt;stroke-linejoin:miter;stroke:rgb(17.96875%,20.3125%,21.09375%);stroke-opacity:0.8;stroke-miterlimit:10;" d="M 3.251265 0.702333 L 3.702888 0.971025 " transform="matrix(172.900514,0,0,172.900514,-123.301636,5.101428)"/>
</g>
</g>
</g>
<g clip-path="url(#clip52)" clip-rule="nonzero">
<g clip-path="url(#clip53)" clip-rule="evenodd">
<g clip-path="url(#clip54)" clip-rule="evenodd">
<path style="fill:none;stroke-width:0.0227463;stroke-linecap:butt;stroke-linejoin:miter;stroke:rgb(17.96875%,20.3125%,21.09375%);stroke-opacity:0.8;stroke-miterlimit:10;" d="M 3.945328 1.216673 L 3.702888 0.971025 " transform="matrix(172.900514,0,0,172.900514,-123.301636,5.101428)"/>
</g>
</g>
</g>
<g clip-path="url(#clip55)" clip-rule="nonzero">
<g clip-path="url(#clip56)" clip-rule="evenodd">
<g clip-path="url(#clip57)" clip-rule="evenodd">
<path style="fill:none;stroke-width:0.0227463;stroke-linecap:butt;stroke-linejoin:miter;stroke:rgb(17.96875%,20.3125%,21.09375%);stroke-opacity:0.8;stroke-miterlimit:10;" d="M 2.632412 2.677435 L 3.136766 2.797807 " transform="matrix(172.900514,0,0,172.900514,-123.301636,5.101428)"/>
</g>
</g>
</g>
<g clip-path="url(#clip58)" clip-rule="nonzero">
<g clip-path="url(#clip59)" clip-rule="evenodd">
<g clip-path="url(#clip60)" clip-rule="evenodd">
<path style="fill:none;stroke-width:0.0227463;stroke-linecap:butt;stroke-linejoin:miter;stroke:rgb(17.96875%,20.3125%,21.09375%);stroke-opacity:0.8;stroke-miterlimit:10;" d="M 3.136766 2.797807 L 3.507735 2.639592 " transform="matrix(172.900514,0,0,172.900514,-123.301636,5.101428)"/>
</g>
</g>
</g>
<g clip-path="url(#clip61)" clip-rule="nonzero">
<g clip-path="url(#clip62)" clip-rule="evenodd">
<g clip-path="url(#clip63)" clip-rule="evenodd">
<path style="fill:none;stroke-width:0.0227463;stroke-linecap:butt;stroke-linejoin:miter;stroke:rgb(17.96875%,20.3125%,21.09375%);stroke-opacity:0.8;stroke-miterlimit:10;" d="M 3.136766 2.797807 L 3.177907 3.07644 " transform="matrix(172.900514,0,0,172.900514,-123.301636,5.101428)"/>
</g>
</g>
</g>
<path style="fill-rule:nonzero;fill:rgb(100%,92.941176%,43.529412%);fill-opacity:1;stroke-width:0.0227463;stroke-linecap:butt;stroke-linejoin:miter;stroke:rgb(60%,60%,60%);stroke-opacity:0.8;stroke-miterlimit:10;" d="M 0.113723 -0.00000235106 C 0.113723 0.0628047 0.0628225 0.113728 -0.00000717788 0.113728 C -0.0628142 0.113728 -0.113738 0.0628047 -0.113738 -0.00000235106 C -0.113738 -0.0628094 -0.0628142 -0.113733 -0.00000717788 -0.113733 C 0.0628225 -0.113733 0.113723 -0.0628094 0.113723 -0.00000235106 Z M 0.113723 -0.00000235106 " transform="matrix(172.900514,0,0,172.900514,55.360616,225.781656)"/>
<path style="fill-rule:nonzero;fill:rgb(100%,92.941176%,43.529412%);fill-opacity:1;stroke-width:0.0227463;stroke-linecap:butt;stroke-linejoin:miter;stroke:rgb(60%,60%,60%);stroke-opacity:0.8;stroke-miterlimit:10;" d="M 0.113724 0.00000531922 C 0.113724 0.0628124 0.062801 0.113736 -0.00000607234 0.113736 C -0.0628131 0.113736 -0.113737 0.0628124 -0.113737 0.00000531922 C -0.113737 -0.0628018 -0.0628131 -0.113725 -0.00000607234 -0.113725 C 0.062801 -0.113725 0.113724 -0.0628018 0.113724 0.00000531922 Z M 0.113724 0.00000531922 " transform="matrix(172.900514,0,0,172.900514,41.153394,278.823299)"/>
<path style="fill-rule:nonzero;fill:rgb(100%,92.941176%,43.529412%);fill-opacity:1;stroke-width:0.0227463;stroke-linecap:butt;stroke-linejoin:miter;stroke:rgb(60%,60%,60%);stroke-opacity:0.8;stroke-miterlimit:10;" d="M 0.11373 0.000000877227 C 0.11373 0.0628079 0.0628068 0.113731 -0.000000240951 0.113731 C -0.0628073 0.113731 -0.113731 0.0628079 -0.113731 0.000000877227 C -0.113731 -0.0628062 -0.0628073 -0.11373 -0.000000240951 -0.11373 C 0.0628068 -0.11373 0.11373 -0.0628062 0.11373 0.000000877227 Z M 0.11373 0.000000877227 " transform="matrix(172.900514,0,0,172.900514,76.339885,150.585786)"/>
<path style="fill-rule:nonzero;fill:rgb(100%,92.941176%,43.529412%);fill-opacity:1;stroke-width:0.0227463;stroke-linecap:butt;stroke-linejoin:miter;stroke:rgb(60%,60%,60%);stroke-opacity:0.8;stroke-miterlimit:10;" d="M 0.113739 0.00000535595 C 0.113739 0.0628124 0.0628155 0.113736 0.00000842987 0.113736 C -0.0628212 0.113736 -0.113722 0.0628124 -0.113722 0.00000535595 C -0.113722 -0.0628017 -0.0628212 -0.113725 0.00000842987 -0.113725 C 0.0628155 -0.113725 0.113739 -0.0628017 0.113739 0.00000535595 Z M 0.113739 0.00000535595 " transform="matrix(172.900514,0,0,172.900514,156.076667,366.59673)"/>
<path style="fill-rule:nonzero;fill:rgb(100%,92.941176%,43.529412%);fill-opacity:1;stroke-width:0.0227463;stroke-linecap:butt;stroke-linejoin:miter;stroke:rgb(60%,60%,60%);stroke-opacity:0.8;stroke-miterlimit:10;" d="M 0.113723 0.00000487361 C 0.113723 0.0628119 0.0628226 0.113735 -0.00000710923 0.113735 C -0.0628142 0.113735 -0.113738 0.0628119 -0.113738 0.00000487361 C -0.113738 -0.0628022 -0.0628142 -0.113726 -0.00000710923 -0.113726 C 0.0628226 -0.113726 0.113723 -0.0628022 0.113723 0.00000487361 Z M 0.113723 0.00000487361 " transform="matrix(172.900514,0,0,172.900514,250.77076,409.604626)"/>
<path style="fill-rule:nonzero;fill:rgb(100%,92.941176%,43.529412%);fill-opacity:1;stroke-width:0.0227463;stroke-linecap:butt;stroke-linejoin:miter;stroke:rgb(60%,60%,60%);stroke-opacity:0.8;stroke-miterlimit:10;" d="M 0.113738 0.00000972757 C 0.113738 0.0628168 0.0628141 0.11374 0.00000705124 0.11374 C -0.0628226 0.11374 -0.113723 0.0628168 -0.113723 0.00000972757 C -0.113723 -0.0628199 -0.0628226 -0.113721 0.00000705124 -0.113721 C 0.0628141 -0.113721 0.113738 -0.0628199 0.113738 0.00000972757 Z M 0.113738 0.00000972757 " transform="matrix(172.900514,0,0,172.900514,105.756593,178.084256)"/>
<path style="fill-rule:nonzero;fill:rgb(100%,92.941176%,43.529412%);fill-opacity:1;stroke-width:0.0227463;stroke-linecap:butt;stroke-linejoin:miter;stroke:rgb(60%,60%,60%);stroke-opacity:0.8;stroke-miterlimit:10;" d="M 0.113735 -0.00000741623 C 0.113735 0.0628222 0.0628112 0.113723 0.00000407841 0.113723 C -0.062803 0.113723 -0.113726 0.0628222 -0.113726 -0.00000741623 C -0.113726 -0.0628145 -0.062803 -0.113738 0.00000407841 -0.113738 C 0.0628112 -0.113738 0.113735 -0.0628145 0.113735 -0.00000741623 Z M 0.113735 -0.00000741623 " transform="matrix(172.900514,0,0,172.900514,92.436795,271.89972)"/>
<path style="fill-rule:nonzero;fill:rgb(100%,92.941176%,43.529412%);fill-opacity:1;stroke-width:0.0227463;stroke-linecap:butt;stroke-linejoin:miter;stroke:rgb(60%,60%,60%);stroke-opacity:0.8;stroke-miterlimit:10;" d="M 0.113742 -0.00000466875 C 0.113742 0.0628024 0.0628186 0.113726 -0.0000110736 0.113726 C -0.0628181 0.113726 -0.113742 0.0628024 -0.113742 -0.00000466875 C -0.113742 -0.0628117 -0.0628181 -0.113735 -0.0000110736 -0.113735 C 0.0628186 -0.113735 0.113742 -0.0628117 0.113742 -0.00000466875 Z M 0.113742 -0.00000466875 " transform="matrix(172.900514,0,0,172.900514,364.482383,163.860182)"/>
<path style="fill-rule:nonzero;fill:rgb(100%,92.941176%,43.529412%);fill-opacity:1;stroke-width:0.0227463;stroke-linecap:butt;stroke-linejoin:miter;stroke:rgb(60%,60%,60%);stroke-opacity:0.8;stroke-miterlimit:10;" d="M 0.113733 -0.00000612623 C 0.113733 0.0628009 0.0628097 0.113724 0.00000259905 0.113724 C -0.0628045 0.113724 -0.113728 0.0628009 -0.113728 -0.00000612623 C -0.113728 -0.0628132 -0.0628045 -0.113737 0.00000259905 -0.113737 C 0.0628097 -0.113737 0.113733 -0.0628132 0.113733 -0.00000612623 Z M 0.113733 -0.00000612623 " transform="matrix(172.900514,0,0,172.900514,318.190957,285.715903)"/>
<path style="fill-rule:nonzero;fill:rgb(100%,92.941176%,43.529412%);fill-opacity:1;stroke-width:0.0227463;stroke-linecap:butt;stroke-linejoin:miter;stroke:rgb(60%,60%,60%);stroke-opacity:0.8;stroke-miterlimit:10;" d="M 0.113739 0.00000136368 C 0.113739 0.0628084 0.0628156 0.113732 0.00000856437 0.113732 C -0.0628211 0.113732 -0.113722 0.0628084 -0.113722 0.00000136368 C -0.113722 -0.0628057 -0.0628211 -0.113729 0.00000856437 -0.113729 C 0.0628156 -0.113729 0.113739 -0.0628057 0.113739 0.00000136368 Z M 0.113739 0.00000136368 " transform="matrix(172.900514,0,0,172.900514,352.240707,80.120858)"/>
<path style="fill-rule:nonzero;fill:rgb(55.294118%,82.745098%,78.039216%);fill-opacity:1;stroke-width:0.0227463;stroke-linecap:butt;stroke-linejoin:miter;stroke:rgb(60%,60%,60%);stroke-opacity:0.8;stroke-miterlimit:10;" d="M 0.113721 -0.00000990116 C 0.113721 0.0628198 0.0628202 0.113721 -0.00000950221 0.113721 C -0.0628166 0.113721 -0.11374 0.0628198 -0.11374 -0.00000990116 C -0.11374 -0.062817 -0.0628166 -0.11374 -0.00000950221 -0.11374 C 0.0628202 -0.11374 0.113721 -0.062817 0.113721 -0.00000990116 Z M 0.113721 -0.00000990116 " transform="matrix(172.900514,0,0,172.900514,438.845393,126.536868)"/>
<path style="fill-rule:nonzero;fill:rgb(55.294118%,82.745098%,78.039216%);fill-opacity:1;stroke-width:0.0227463;stroke-linecap:butt;stroke-linejoin:miter;stroke:rgb(60%,60%,60%);stroke-opacity:0.8;stroke-miterlimit:10;" d="M 0.113737 -0.00000212234 C 0.113737 0.0628049 0.0628131 0.113728 0.00000607234 0.113728 C -0.062801 0.113728 -0.113724 0.0628049 -0.113724 -0.00000212234 C -0.113724 -0.0628092 -0.062801 -0.113733 0.00000607234 -0.113733 C 0.0628131 -0.113733 0.113737 -0.0628092 0.113737 -0.00000212234 Z M 0.113737 -0.00000212234 " transform="matrix(172.900514,0,0,172.900514,558.846606,215.465211)"/>
<path style="fill-rule:nonzero;fill:rgb(55.294118%,82.745098%,78.039216%);fill-opacity:1;stroke-width:0.0227463;stroke-linecap:butt;stroke-linejoin:miter;stroke:rgb(60%,60%,60%);stroke-opacity:0.8;stroke-miterlimit:10;" d="M 0.113727 -0.00000449513 C 0.113727 0.0628026 0.0628036 0.113726 -0.00000348515 0.113726 C -0.0628106 0.113726 -0.113734 0.0628026 -0.113734 -0.00000449513 C -0.113734 -0.0628116 -0.0628106 -0.113735 -0.00000348515 -0.113735 C 0.0628036 -0.113735 0.113727 -0.0628116 0.113727 -0.00000449513 Z M 0.113727 -0.00000449513 " transform="matrix(172.900514,0,0,172.900514,397.828728,62.981246)"/>
<path style="fill-rule:nonzero;fill:rgb(55.294118%,82.745098%,78.039216%);fill-opacity:1;stroke-width:0.0227463;stroke-linecap:butt;stroke-linejoin:miter;stroke:rgb(60%,60%,60%);stroke-opacity:0.8;stroke-miterlimit:10;" d="M 0.113739 0.00000918287 C 0.113739 0.0628163 0.0628155 0.11374 0.00000846883 0.11374 C -0.0628212 0.11374 -0.113722 0.0628163 -0.113722 0.00000918287 C -0.113722 -0.0628205 -0.0628212 -0.113721 0.00000846883 -0.113721 C 0.0628155 -0.113721 0.113739 -0.0628205 0.113739 0.00000918287 Z M 0.113739 0.00000918287 " transform="matrix(172.900514,0,0,172.900514,516.928223,172.9906)"/>
<path style="fill-rule:nonzero;fill:rgb(100%,92.941176%,43.529412%);fill-opacity:1;stroke-width:0.0227463;stroke-linecap:butt;stroke-linejoin:miter;stroke:rgb(60%,60%,60%);stroke-opacity:0.8;stroke-miterlimit:10;" d="M 0.113722 -0.00000624494 C 0.113722 0.0628008 0.0628215 0.113724 -0.00000816413 0.113724 C -0.0628152 0.113724 -0.113739 0.0628008 -0.113739 -0.00000624494 C -0.113739 -0.0628133 -0.0628152 -0.113737 -0.00000816413 -0.113737 C 0.0628215 -0.113737 0.113722 -0.0628133 0.113722 -0.00000624494 Z M 0.113722 -0.00000624494 " transform="matrix(172.900514,0,0,172.900514,331.845162,468.03233)"/>
<path style="fill-rule:nonzero;fill:rgb(100%,92.941176%,43.529412%);fill-opacity:1;stroke-width:0.0227463;stroke-linecap:butt;stroke-linejoin:miter;stroke:rgb(60%,60%,60%);stroke-opacity:0.8;stroke-miterlimit:10;" d="M 0.113728 -0.00000360139 C 0.113728 0.0628035 0.0628044 0.113727 -0.00000272152 0.113727 C -0.0628098 0.113727 -0.113733 0.0628035 -0.113733 -0.00000360139 C -0.113733 -0.0628107 -0.0628098 -0.113734 -0.00000272152 -0.113734 C 0.0628044 -0.113734 0.113728 -0.0628107 0.113728 -0.00000360139 Z M 0.113728 -0.00000360139 " transform="matrix(172.900514,0,0,172.900514,419.047346,488.844373)"/>
<path style="fill-rule:nonzero;fill:rgb(100%,92.941176%,43.529412%);fill-opacity:1;stroke-width:0.0227463;stroke-linecap:butt;stroke-linejoin:miter;stroke:rgb(60%,60%,60%);stroke-opacity:0.8;stroke-miterlimit:10;" d="M 0.113726 0.00000900906 C 0.113726 0.0628161 0.0628025 0.11374 -0.0000045849 0.11374 C -0.0628117 0.11374 -0.113735 0.0628161 -0.113735 0.00000900906 C -0.113735 -0.0628207 -0.0628117 -0.113721 -0.0000045849 -0.113721 C 0.0628025 -0.113721 0.113726 -0.0628207 0.113726 0.00000900906 Z M 0.113726 0.00000900906 " transform="matrix(172.900514,0,0,172.900514,205.457824,487.279692)"/>
<path style="fill-rule:nonzero;fill:rgb(100%,92.941176%,43.529412%);fill-opacity:1;stroke-width:0.0227463;stroke-linecap:butt;stroke-linejoin:miter;stroke:rgb(60%,60%,60%);stroke-opacity:0.8;stroke-miterlimit:10;" d="M 0.113731 -0.00000686737 C 0.113731 0.0628228 0.0628075 0.113724 0.000000410706 0.113724 C -0.0628067 0.113724 -0.11373 0.0628228 -0.11373 -0.00000686737 C -0.11373 -0.0628139 -0.0628067 -0.113737 0.000000410706 -0.113737 C 0.0628075 -0.113737 0.113731 -0.0628139 0.113731 -0.00000686737 Z M 0.113731 -0.00000686737 " transform="matrix(172.900514,0,0,172.900514,483.187429,461.489469)"/>
<path style="fill-rule:nonzero;fill:rgb(100%,92.941176%,43.529412%);fill-opacity:1;stroke-width:0.0227463;stroke-linecap:butt;stroke-linejoin:miter;stroke:rgb(60%,60%,60%);stroke-opacity:0.8;stroke-miterlimit:10;" d="M 0.113735 0.00000449513 C 0.113735 0.0628116 0.0628116 0.113735 0.00000452195 0.113735 C -0.0628025 0.113735 -0.113726 0.0628116 -0.113726 0.00000449513 C -0.113726 -0.0628026 -0.0628025 -0.113726 0.00000452195 -0.113726 C 0.0628116 -0.113726 0.113735 -0.0628026 0.113735 0.00000449513 Z M 0.113735 0.00000449513 " transform="matrix(172.900514,0,0,172.900514,426.159374,537.018754)"/>
</g>
</svg>
