<?xml version="1.0" encoding="UTF-8"?>
<svg xmlns="http://www.w3.org/2000/svg" xmlns:xlink="http://www.w3.org/1999/xlink" width="600pt" height="600pt" viewBox="0 0 600 600" version="1.1">
<defs>
<clipPath id="clip1">
  <path d="M 116 101 L 278 101 L 278 325 L 116 325 Z M 116 101 "/>
</clipPath>
<clipPath id="clip2">
  <path d="M 16.75 89.445312 L 377.300781 89.445312 L 377.300781 336.707031 L 16.75 336.707031 Z M 16.75 89.445312 L 194.046875 267.597656 C 194.046875 278.753906 185 287.800781 173.84375 287.800781 C 162.6875 287.800781 153.640625 278.753906 153.640625 267.597656 C 153.640625 256.441406 162.6875 247.394531 173.84375 247.394531 C 185 247.394531 194.046875 256.441406 194.046875 267.597656 Z M 16.75 89.445312 "/>
</clipPath>
<clipPath id="clip3">
  <path d="M 16.75 89.445312 L 377.300781 89.445312 L 377.300781 336.707031 L 16.75 336.707031 Z M 16.75 89.445312 L 240.402344 158.550781 C 240.402344 169.710938 231.359375 178.753906 220.203125 178.753906 C 209.042969 178.753906 200 169.710938 200 158.550781 C 200 147.394531 209.042969 138.347656 220.203125 138.347656 C 231.359375 138.347656 240.402344 147.394531 240.402344 158.550781 Z M 16.75 89.445312 "/>
</clipPath>
<clipPath id="clip4">
  <path d="M 77.964844 210 L 186.777344 210 L 186.777344 330 L 77.964844 330 Z M 77.964844 210 "/>
</clipPath>
<clipPath id="clip5">
  <path d="M 77.964844 97.484375 L 186.777344 97.484375 L 186.777344 442.15625 L 77.964844 442.15625 Z M 77.964844 97.484375 L 194.046875 267.597656 C 194.046875 278.753906 185 287.800781 173.84375 287.800781 C 162.6875 287.800781 153.640625 278.753906 153.640625 267.597656 C 153.640625 256.441406 162.6875 247.394531 173.84375 247.394531 C 185 247.394531 194.046875 256.441406 194.046875 267.597656 Z M 77.964844 97.484375 "/>
</clipPath>
<clipPath id="clip6">
  <path d="M 77.964844 97.484375 L 186.777344 97.484375 L 186.777344 442.15625 L 77.964844 442.15625 Z M 77.964844 97.484375 L 111.097656 272.039062 C 111.097656 283.199219 102.054688 292.242188 90.894531 292.242188 C 79.738281 292.242188 70.691406 283.199219 70.691406 272.039062 C 70.691406 260.882812 79.738281 251.835938 90.894531 251.835938 C 102.054688 251.835938 111.097656 260.882812 111.097656 272.039062 Z M 77.964844 97.484375 "/>
</clipPath>
<clipPath id="clip7">
  <path d="M 116 210 L 285 210 L 285 437 L 116 437 Z M 116 210 "/>
</clipPath>
<clipPath id="clip8">
  <path d="M 19.625 192.105469 L 381.304688 192.105469 L 381.304688 454.988281 L 19.625 454.988281 Z M 19.625 192.105469 L 194.046875 267.597656 C 194.046875 278.753906 185 287.800781 173.84375 287.800781 C 162.6875 287.800781 153.640625 278.753906 153.640625 267.597656 C 153.640625 256.441406 162.6875 247.394531 173.84375 247.394531 C 185 247.394531 194.046875 256.441406 194.046875 267.597656 Z M 19.625 192.105469 "/>
</clipPath>
<clipPath id="clip9">
  <path d="M 19.625 192.105469 L 381.304688 192.105469 L 381.304688 454.988281 L 19.625 454.988281 Z M 19.625 192.105469 L 247.285156 379.492188 C 247.285156 390.648438 238.242188 399.695312 227.082031 399.695312 C 215.925781 399.695312 206.878906 390.648438 206.878906 379.492188 C 206.878906 368.332031 215.925781 359.289062 227.082031 359.289062 C 238.242188 359.289062 247.285156 368.332031 247.285156 379.492188 Z M 19.625 192.105469 "/>
</clipPath>
<clipPath id="clip10">
  <path d="M 119 54 L 278 54 L 278 216 L 119 216 Z M 119 54 "/>
</clipPath>
<clipPath id="clip11">
  <path d="M 50.890625 -5.40625 L 346.109375 -5.40625 L 346.109375 275.769531 L 50.890625 275.769531 Z M 50.890625 -5.40625 L 196.996094 111.808594 C 196.996094 122.964844 187.949219 132.011719 176.792969 132.011719 C 165.636719 132.011719 156.589844 122.964844 156.589844 111.808594 C 156.589844 100.648438 165.636719 91.605469 176.792969 91.605469 C 187.949219 91.605469 196.996094 100.648438 196.996094 111.808594 Z M 50.890625 -5.40625 "/>
</clipPath>
<clipPath id="clip12">
  <path d="M 50.890625 -5.40625 L 346.109375 -5.40625 L 346.109375 275.769531 L 50.890625 275.769531 Z M 50.890625 -5.40625 L 240.402344 158.550781 C 240.402344 169.710938 231.359375 178.753906 220.203125 178.753906 C 209.042969 178.753906 200 169.710938 200 158.550781 C 200 147.394531 209.042969 138.347656 220.203125 138.347656 C 231.359375 138.347656 240.402344 147.394531 240.402344 158.550781 Z M 50.890625 -5.40625 "/>
</clipPath>
<clipPath id="clip13">
  <path d="M 163 55 L 380 55 L 380 216 L 163 216 Z M 163 55 "/>
</clipPath>
<clipPath id="clip14">
  <path d="M 148.308594 -42.824219 L 393.90625 -42.824219 L 393.90625 314.433594 L 148.308594 314.433594 Z M 148.308594 -42.824219 L 240.402344 158.550781 C 240.402344 169.710938 231.359375 178.753906 220.203125 178.753906 C 209.042969 178.753906 200 169.710938 200 158.550781 C 200 147.394531 209.042969 138.347656 220.203125 138.347656 C 231.359375 138.347656 240.402344 147.394531 240.402344 158.550781 Z M 148.308594 -42.824219 "/>
</clipPath>
<clipPath id="clip15">
  <path d="M 148.308594 -42.824219 L 393.90625 -42.824219 L 393.90625 314.433594 L 148.308594 314.433594 Z M 148.308594 -42.824219 L 342.210938 113.054688 C 342.210938 124.210938 333.167969 133.257812 322.007812 133.257812 C 310.851562 133.257812 301.804688 124.210938 301.804688 113.054688 C 301.804688 101.894531 310.851562 92.851562 322.007812 92.851562 C 333.167969 92.851562 342.210938 101.894531 342.210938 113.054688 Z M 148.308594 -42.824219 "/>
</clipPath>
<clipPath id="clip16">
  <path d="M 427 123 L 590 123 L 590 293 L 427 293 Z M 427 123 "/>
</clipPath>
<clipPath id="clip17">
  <path d="M 354.503906 68.292969 L 662.765625 68.292969 L 662.765625 347.40625 L 354.503906 347.40625 Z M 354.503906 68.292969 L 552.375 235.453125 C 552.375 246.609375 543.328125 255.65625 532.171875 255.65625 C 521.015625 255.65625 511.96875 246.609375 511.96875 235.453125 C 511.96875 224.296875 521.015625 215.25 532.171875 215.25 C 543.328125 215.25 552.375 224.296875 552.375 235.453125 Z M 354.503906 68.292969 "/>
</clipPath>
<clipPath id="clip18">
  <path d="M 354.503906 68.292969 L 662.765625 68.292969 L 662.765625 347.40625 L 354.503906 347.40625 Z M 354.503906 68.292969 L 505.296875 180.242188 C 505.296875 191.402344 496.253906 200.445312 485.09375 200.445312 C 473.9375 200.445312 464.890625 191.402344 464.890625 180.242188 C 464.890625 169.085938 473.9375 160.039062 485.09375 160.039062 C 496.253906 160.039062 505.296875 169.085938 505.296875 180.242188 Z M 354.503906 68.292969 "/>
</clipPath>
<clipPath id="clip19">
  <path d="M 475 178 L 600 178 L 600 339 L 475 339 Z M 475 178 "/>
</clipPath>
<clipPath id="clip20">
  <path d="M 383.097656 150.027344 L 707.207031 150.027344 L 707.207031 367.140625 L 383.097656 367.140625 Z M 383.097656 150.027344 L 552.375 235.453125 C 552.375 246.609375 543.328125 255.65625 532.171875 255.65625 C 521.015625 255.65625 511.96875 246.609375 511.96875 235.453125 C 511.96875 224.296875 521.015625 215.25 532.171875 215.25 C 543.328125 215.25 552.375 224.296875 552.375 235.453125 Z M 383.097656 150.027344 "/>
</clipPath>
<clipPath id="clip21">
  <path d="M 383.097656 150.027344 L 707.207031 150.027344 L 707.207031 367.140625 L 383.097656 367.140625 Z M 383.097656 150.027344 L 578.332031 281.710938 C 578.332031 292.871094 569.289062 301.914062 558.128906 301.914062 C 546.972656 301.914062 537.925781 292.871094 537.925781 281.710938 C 537.925781 270.554688 546.972656 261.507812 558.128906 261.507812 C 569.289062 261.507812 578.332031 270.554688 578.332031 281.710938 Z M 383.097656 150.027344 "/>
</clipPath>
<clipPath id="clip22">
  <path d="M 358 79 L 543 79 L 543 238 L 358 238 Z M 358 79 "/>
</clipPath>
<clipPath id="clip23">
  <path d="M 323.582031 -8.300781 L 577.03125 -8.300781 L 577.03125 325.472656 L 323.582031 325.472656 Z M 323.582031 -8.300781 L 505.296875 180.242188 C 505.296875 191.402344 496.253906 200.445312 485.09375 200.445312 C 473.9375 200.445312 464.890625 191.402344 464.890625 180.242188 C 464.890625 169.085938 473.9375 160.039062 485.09375 160.039062 C 496.253906 160.039062 505.296875 169.085938 505.296875 180.242188 Z M 323.582031 -8.300781 "/>
</clipPath>
<clipPath id="clip24">
  <path d="M 323.582031 -8.300781 L 577.03125 -8.300781 L 577.03125 325.472656 L 323.582031 325.472656 Z M 323.582031 -8.300781 L 435.71875 136.925781 C 435.71875 148.082031 426.675781 157.128906 415.515625 157.128906 C 404.359375 157.128906 395.3125 148.082031 395.3125 136.925781 C 395.3125 125.765625 404.359375 116.722656 415.515625 116.722656 C 426.675781 116.722656 435.71875 125.765625 435.71875 136.925781 Z M 323.582031 -8.300781 "/>
</clipPath>
<clipPath id="clip25">
  <path d="M 276.832031 55 L 460.695312 55 L 460.695312 195 L 276.832031 195 Z M 276.832031 55 "/>
</clipPath>
<clipPath id="clip26">
  <path d="M 276.832031 -52.128906 L 460.695312 -52.128906 L 460.695312 302.113281 L 276.832031 302.113281 Z M 276.832031 -52.128906 L 342.210938 113.054688 C 342.210938 124.210938 333.167969 133.257812 322.007812 133.257812 C 310.851562 133.257812 301.804688 124.210938 301.804688 113.054688 C 301.804688 101.894531 310.851562 92.851562 322.007812 92.851562 C 333.167969 92.851562 342.210938 101.894531 342.210938 113.054688 Z M 276.832031 -52.128906 "/>
</clipPath>
<clipPath id="clip27">
  <path d="M 276.832031 -52.128906 L 460.695312 -52.128906 L 460.695312 302.113281 L 276.832031 302.113281 Z M 276.832031 -52.128906 L 435.71875 136.925781 C 435.71875 148.082031 426.675781 157.128906 415.515625 157.128906 C 404.359375 157.128906 395.3125 148.082031 395.3125 136.925781 C 395.3125 125.765625 404.359375 116.722656 415.515625 116.722656 C 426.675781 116.722656 435.71875 125.765625 435.71875 136.925781 Z M 276.832031 -52.128906 "/>
</clipPath>
<clipPath id="clip28">
  <path d="M 264 41.96875 L 384 41.96875 L 384 128.792969 L 264 128.792969 Z M 264 41.96875 "/>
</clipPath>
<clipPath id="clip29">
  <path d="M 152.070312 41.96875 L 495.851562 41.96875 L 495.851562 128.792969 L 152.070312 128.792969 Z M 152.070312 41.96875 L 342.210938 113.054688 C 342.210938 124.210938 333.167969 133.257812 322.007812 133.257812 C 310.851562 133.257812 301.804688 124.210938 301.804688 113.054688 C 301.804688 101.894531 310.851562 92.851562 322.007812 92.851562 C 333.167969 92.851562 342.210938 101.894531 342.210938 113.054688 Z M 152.070312 41.96875 "/>
</clipPath>
<clipPath id="clip30">
  <path d="M 152.070312 41.96875 L 495.851562 41.96875 L 495.851562 128.792969 L 152.070312 128.792969 Z M 152.070312 41.96875 L 346.113281 57.703125 C 346.113281 68.859375 337.066406 77.90625 325.910156 77.90625 C 314.75 77.90625 305.707031 68.859375 305.707031 57.703125 C 305.707031 46.546875 314.75 37.5 325.910156 37.5 C 337.066406 37.5 346.113281 46.546875 346.113281 57.703125 Z M 152.070312 41.96875 "/>
</clipPath>
<clipPath id="clip31">
  <path d="M 10.640625 214 L 122.128906 214 L 122.128906 338 L 10.640625 338 Z M 10.640625 214 "/>
</clipPath>
<clipPath id="clip32">
  <path d="M 10.640625 103.925781 L 122.128906 103.925781 L 122.128906 448.28125 L 10.640625 448.28125 Z M 10.640625 103.925781 L 62.074219 280.164062 C 62.074219 291.320312 53.027344 300.367188 41.871094 300.367188 C 30.710938 300.367188 21.667969 291.320312 21.667969 280.164062 C 21.667969 269.003906 30.710938 259.960938 41.871094 259.960938 C 53.027344 259.960938 62.074219 269.003906 62.074219 280.164062 Z M 10.640625 103.925781 "/>
</clipPath>
<clipPath id="clip33">
  <path d="M 10.640625 103.925781 L 122.128906 103.925781 L 122.128906 448.28125 L 10.640625 448.28125 Z M 10.640625 103.925781 L 111.097656 272.039062 C 111.097656 283.199219 102.054688 292.242188 90.894531 292.242188 C 79.738281 292.242188 70.691406 283.199219 70.691406 272.039062 C 70.691406 260.882812 79.738281 251.835938 90.894531 251.835938 C 102.054688 251.835938 111.097656 260.882812 111.097656 272.039062 Z M 10.640625 103.925781 "/>
</clipPath>
<clipPath id="clip34">
  <path d="M 141 322 L 285 322 L 285 512 L 141 512 Z M 141 322 "/>
</clipPath>
<clipPath id="clip35">
  <path d="M 39.066406 315.972656 L 386.433594 315.972656 L 386.433594 517.871094 L 39.066406 517.871094 Z M 39.066406 315.972656 L 247.285156 379.492188 C 247.285156 390.648438 238.242188 399.695312 227.082031 399.695312 C 215.925781 399.695312 206.878906 390.648438 206.878906 379.492188 C 206.878906 368.332031 215.925781 359.289062 227.082031 359.289062 C 238.242188 359.289062 247.285156 368.332031 247.285156 379.492188 Z M 39.066406 315.972656 "/>
</clipPath>
<clipPath id="clip36">
  <path d="M 39.066406 315.972656 L 386.433594 315.972656 L 386.433594 517.871094 L 39.066406 517.871094 Z M 39.066406 315.972656 L 218.617188 454.347656 C 218.617188 465.503906 209.574219 474.550781 198.414062 474.550781 C 187.257812 474.550781 178.210938 465.503906 178.210938 454.347656 C 178.210938 443.1875 187.257812 434.144531 198.414062 434.144531 C 209.574219 434.144531 218.617188 443.1875 218.617188 454.347656 Z M 39.066406 315.972656 "/>
</clipPath>
<clipPath id="clip37">
  <path d="M 169 322 L 390 322 L 390 489 L 169 489 Z M 169 322 "/>
</clipPath>
<clipPath id="clip38">
  <path d="M 150.042969 226.019531 L 409.773438 226.019531 L 409.773438 584.578125 L 150.042969 584.578125 Z M 150.042969 226.019531 L 247.285156 379.492188 C 247.285156 390.648438 238.242188 399.695312 227.082031 399.695312 C 215.925781 399.695312 206.878906 390.648438 206.878906 379.492188 C 206.878906 368.332031 215.925781 359.289062 227.082031 359.289062 C 238.242188 359.289062 247.285156 368.332031 247.285156 379.492188 Z M 150.042969 226.019531 "/>
</clipPath>
<clipPath id="clip39">
  <path d="M 150.042969 226.019531 L 409.773438 226.019531 L 409.773438 584.578125 L 150.042969 584.578125 Z M 150.042969 226.019531 L 352.933594 431.101562 C 352.933594 442.257812 343.886719 451.304688 332.730469 451.304688 C 321.570312 451.304688 312.527344 442.257812 312.527344 431.101562 C 312.527344 419.945312 321.570312 410.898438 332.730469 410.898438 C 343.886719 410.898438 352.933594 419.945312 352.933594 431.101562 Z M 150.042969 226.019531 "/>
</clipPath>
<clipPath id="clip40">
  <path d="M 265 449 L 435 449 L 435 600 L 265 600 Z M 265 449 "/>
</clipPath>
<clipPath id="clip41">
  <path d="M 228.492188 362.871094 L 471.941406 362.871094 L 471.941406 686.148438 L 228.492188 686.148438 Z M 228.492188 362.871094 L 398.03125 542.296875 C 398.03125 553.453125 388.988281 562.5 377.828125 562.5 C 366.671875 562.5 357.625 553.453125 357.625 542.296875 C 357.625 531.140625 366.671875 522.09375 377.828125 522.09375 C 388.988281 522.09375 398.03125 531.140625 398.03125 542.296875 Z M 228.492188 362.871094 "/>
</clipPath>
<clipPath id="clip42">
  <path d="M 228.492188 362.871094 L 471.941406 362.871094 L 471.941406 686.148438 L 228.492188 686.148438 Z M 228.492188 362.871094 L 342.804688 506.71875 C 342.804688 517.878906 333.757812 526.921875 322.601562 526.921875 C 311.445312 526.921875 302.398438 517.878906 302.398438 506.71875 C 302.398438 495.5625 311.445312 486.515625 322.601562 486.515625 C 333.757812 486.515625 342.804688 495.5625 342.804688 506.71875 Z M 228.492188 362.871094 "/>
</clipPath>
<clipPath id="clip43">
  <path d="M 238 504 L 325 504 L 325 509 L 238 509 Z M 238 504 "/>
</clipPath>
<clipPath id="clip44">
  <path d="M 236.820312 336.367188 L 326.644531 336.367188 L 326.644531 677.074219 L 236.820312 677.074219 Z M 236.820312 336.367188 L 261.0625 506.71875 C 261.0625 517.875 252.015625 526.921875 240.859375 526.921875 C 229.699219 526.921875 220.65625 517.875 220.65625 506.71875 C 220.65625 495.5625 229.699219 486.515625 240.859375 486.515625 C 252.015625 486.515625 261.0625 495.5625 261.0625 506.71875 Z M 236.820312 336.367188 "/>
</clipPath>
<clipPath id="clip45">
  <path d="M 236.820312 336.367188 L 326.644531 336.367188 L 326.644531 677.074219 L 236.820312 677.074219 Z M 236.820312 336.367188 L 342.804688 506.71875 C 342.804688 517.878906 333.757812 526.921875 322.601562 526.921875 C 311.445312 526.921875 302.398438 517.878906 302.398438 506.71875 C 302.398438 495.5625 311.445312 486.515625 322.601562 486.515625 C 333.757812 486.515625 342.804688 495.5625 342.804688 506.71875 Z M 236.820312 336.367188 "/>
</clipPath>
<clipPath id="clip46">
  <path d="M 141 397 L 299 397 L 299 564 L 141 564 Z M 141 397 "/>
</clipPath>
<clipPath id="clip47">
  <path d="M 65.171875 345.59375 L 374.105469 345.59375 L 374.105469 615.476562 L 65.171875 615.476562 Z M 65.171875 345.59375 L 261.0625 506.71875 C 261.0625 517.875 252.015625 526.921875 240.859375 526.921875 C 229.699219 526.921875 220.65625 517.875 220.65625 506.71875 C 220.65625 495.5625 229.699219 486.515625 240.859375 486.515625 C 252.015625 486.515625 261.0625 495.5625 261.0625 506.71875 Z M 65.171875 345.59375 "/>
</clipPath>
<clipPath id="clip48">
  <path d="M 65.171875 345.59375 L 374.105469 345.59375 L 374.105469 615.476562 L 65.171875 615.476562 Z M 65.171875 345.59375 L 218.617188 454.347656 C 218.617188 465.503906 209.574219 474.550781 198.414062 474.550781 C 187.257812 474.550781 178.210938 465.503906 178.210938 454.347656 C 178.210938 443.1875 187.257812 434.144531 198.414062 434.144531 C 209.574219 434.144531 218.617188 443.1875 218.617188 454.347656 Z M 65.171875 345.59375 "/>
</clipPath>
<clipPath id="clip49">
  <path d="M 265 404.984375 L 390 404.984375 L 390 532.839844 L 265 532.839844 Z M 265 404.984375 "/>
</clipPath>
<clipPath id="clip50">
  <path d="M 153.722656 404.984375 L 501.613281 404.984375 L 501.613281 532.839844 L 153.722656 532.839844 Z M 153.722656 404.984375 L 342.804688 506.71875 C 342.804688 517.878906 333.757812 526.921875 322.601562 526.921875 C 311.445312 526.921875 302.398438 517.878906 302.398438 506.71875 C 302.398438 495.5625 311.445312 486.515625 322.601562 486.515625 C 333.757812 486.515625 342.804688 495.5625 342.804688 506.71875 Z M 153.722656 404.984375 "/>
</clipPath>
<clipPath id="clip51">
  <path d="M 153.722656 404.984375 L 501.613281 404.984375 L 501.613281 532.839844 L 153.722656 532.839844 Z M 153.722656 404.984375 L 352.933594 431.101562 C 352.933594 442.257812 343.886719 451.304688 332.730469 451.304688 C 321.570312 451.304688 312.527344 442.257812 312.527344 431.101562 C 312.527344 419.945312 321.570312 410.898438 332.730469 410.898438 C 343.886719 410.898438 352.933594 419.945312 352.933594 431.101562 Z M 153.722656 404.984375 "/>
</clipPath>
<clipPath id="clip52">
  <path d="M 315.210938 367 L 432.242188 367 L 432.242188 489 L 315.210938 489 Z M 315.210938 367 "/>
</clipPath>
<clipPath id="clip53">
  <path d="M 315.210938 254.632812 L 432.242188 254.632812 L 432.242188 600.90625 L 315.210938 600.90625 Z M 315.210938 254.632812 L 434.921875 424.433594 C 434.921875 435.59375 425.878906 444.636719 414.71875 444.636719 C 403.5625 444.636719 394.515625 435.59375 394.515625 424.433594 C 394.515625 413.277344 403.5625 404.230469 414.71875 404.230469 C 425.878906 404.230469 434.921875 413.277344 434.921875 424.433594 Z M 315.210938 254.632812 "/>
</clipPath>
<clipPath id="clip54">
  <path d="M 315.210938 254.632812 L 432.242188 254.632812 L 432.242188 600.90625 L 315.210938 600.90625 Z M 315.210938 254.632812 L 352.933594 431.101562 C 352.933594 442.257812 343.886719 451.304688 332.730469 451.304688 C 321.570312 451.304688 312.527344 442.257812 312.527344 431.101562 C 312.527344 419.945312 321.570312 410.898438 332.730469 410.898438 C 343.886719 410.898438 352.933594 419.945312 352.933594 431.101562 Z M 315.210938 254.632812 "/>
</clipPath>
</defs>
<g id="surface126">
<g clip-path="url(#clip1)" clip-rule="nonzero">
<g clip-path="url(#clip2)" clip-rule="evenodd">
<g clip-path="url(#clip3)" clip-rule="evenodd">
<path style="fill:none;stroke-width:0.0242956;stroke-linecap:butt;stroke-linejoin:miter;stroke:rgb(17.96875%,20.3125%,21.09375%);stroke-opacity:0.8;stroke-miterlimit:10;" d="M 1.246806 1.93256 L 1.525558 1.276878 " transform="matrix(166.310576,0,0,166.310576,-33.513256,-53.807525)"/>
</g>
</g>
</g>
<g clip-path="url(#clip4)" clip-rule="nonzero">
<g clip-path="url(#clip5)" clip-rule="evenodd">
<g clip-path="url(#clip6)" clip-rule="evenodd">
<path style="fill:none;stroke-width:0.0242956;stroke-linecap:butt;stroke-linejoin:miter;stroke:rgb(17.96875%,20.3125%,21.09375%);stroke-opacity:0.8;stroke-miterlimit:10;" d="M 1.246806 1.93256 L 0.748045 1.959266 " transform="matrix(166.310576,0,0,166.310576,-33.513256,-53.807525)"/>
</g>
</g>
</g>
<g clip-path="url(#clip7)" clip-rule="nonzero">
<g clip-path="url(#clip8)" clip-rule="evenodd">
<g clip-path="url(#clip9)" clip-rule="evenodd">
<path style="fill:none;stroke-width:0.0242956;stroke-linecap:butt;stroke-linejoin:miter;stroke:rgb(17.96875%,20.3125%,21.09375%);stroke-opacity:0.8;stroke-miterlimit:10;" d="M 1.246806 1.93256 L 1.56692 2.605365 " transform="matrix(166.310576,0,0,166.310576,-33.513256,-53.807525)"/>
</g>
</g>
</g>
<g clip-path="url(#clip10)" clip-rule="nonzero">
<g clip-path="url(#clip11)" clip-rule="evenodd">
<g clip-path="url(#clip12)" clip-rule="evenodd">
<path style="fill:none;stroke-width:0.0242956;stroke-linecap:butt;stroke-linejoin:miter;stroke:rgb(17.96875%,20.3125%,21.09375%);stroke-opacity:0.8;stroke-miterlimit:10;" d="M 1.264539 0.995824 L 1.525558 1.276878 " transform="matrix(166.310576,0,0,166.310576,-33.513256,-53.807525)"/>
</g>
</g>
</g>
<g clip-path="url(#clip13)" clip-rule="nonzero">
<g clip-path="url(#clip14)" clip-rule="evenodd">
<g clip-path="url(#clip15)" clip-rule="evenodd">
<path style="fill:none;stroke-width:0.0242956;stroke-linecap:butt;stroke-linejoin:miter;stroke:rgb(17.96875%,20.3125%,21.09375%);stroke-opacity:0.8;stroke-miterlimit:10;" d="M 1.525558 1.276878 L 2.137694 1.003317 " transform="matrix(166.310576,0,0,166.310576,-33.513256,-53.807525)"/>
</g>
</g>
</g>
<g clip-path="url(#clip16)" clip-rule="nonzero">
<g clip-path="url(#clip17)" clip-rule="evenodd">
<g clip-path="url(#clip18)" clip-rule="evenodd">
<path style="fill:none;stroke-width:0.0242956;stroke-linecap:butt;stroke-linejoin:miter;stroke:rgb(17.96875%,20.3125%,21.09375%);stroke-opacity:0.8;stroke-miterlimit:10;" d="M 3.401378 1.73928 L 3.118304 1.407305 " transform="matrix(166.310576,0,0,166.310576,-33.513256,-53.807525)"/>
</g>
</g>
</g>
<g clip-path="url(#clip19)" clip-rule="nonzero">
<g clip-path="url(#clip20)" clip-rule="evenodd">
<g clip-path="url(#clip21)" clip-rule="evenodd">
<path style="fill:none;stroke-width:0.0242956;stroke-linecap:butt;stroke-linejoin:miter;stroke:rgb(17.96875%,20.3125%,21.09375%);stroke-opacity:0.8;stroke-miterlimit:10;" d="M 3.401378 1.73928 L 3.557454 2.017421 " transform="matrix(166.310576,0,0,166.310576,-33.513256,-53.807525)"/>
</g>
</g>
</g>
<g clip-path="url(#clip22)" clip-rule="nonzero">
<g clip-path="url(#clip23)" clip-rule="evenodd">
<g clip-path="url(#clip24)" clip-rule="evenodd">
<path style="fill:none;stroke-width:0.0242956;stroke-linecap:butt;stroke-linejoin:miter;stroke:rgb(17.96875%,20.3125%,21.09375%);stroke-opacity:0.8;stroke-miterlimit:10;" d="M 3.118304 1.407305 L 2.699942 1.14685 " transform="matrix(166.310576,0,0,166.310576,-33.513256,-53.807525)"/>
</g>
</g>
</g>
<g clip-path="url(#clip25)" clip-rule="nonzero">
<g clip-path="url(#clip26)" clip-rule="evenodd">
<g clip-path="url(#clip27)" clip-rule="evenodd">
<path style="fill:none;stroke-width:0.0242956;stroke-linecap:butt;stroke-linejoin:miter;stroke:rgb(17.96875%,20.3125%,21.09375%);stroke-opacity:0.8;stroke-miterlimit:10;" d="M 2.137694 1.003317 L 2.699942 1.14685 " transform="matrix(166.310576,0,0,166.310576,-33.513256,-53.807525)"/>
</g>
</g>
</g>
<g clip-path="url(#clip28)" clip-rule="nonzero">
<g clip-path="url(#clip29)" clip-rule="evenodd">
<g clip-path="url(#clip30)" clip-rule="evenodd">
<path style="fill:none;stroke-width:0.0242956;stroke-linecap:butt;stroke-linejoin:miter;stroke:rgb(17.96875%,20.3125%,21.09375%);stroke-opacity:0.8;stroke-miterlimit:10;" d="M 2.137694 1.003317 L 2.161158 0.670496 " transform="matrix(166.310576,0,0,166.310576,-33.513256,-53.807525)"/>
</g>
</g>
</g>
<g clip-path="url(#clip31)" clip-rule="nonzero">
<g clip-path="url(#clip32)" clip-rule="evenodd">
<g clip-path="url(#clip33)" clip-rule="evenodd">
<path style="fill:none;stroke-width:0.0242956;stroke-linecap:butt;stroke-linejoin:miter;stroke:rgb(17.96875%,20.3125%,21.09375%);stroke-opacity:0.8;stroke-miterlimit:10;" d="M 0.453275 2.00812 L 0.748045 1.959266 " transform="matrix(166.310576,0,0,166.310576,-33.513256,-53.807525)"/>
</g>
</g>
</g>
<g clip-path="url(#clip34)" clip-rule="nonzero">
<g clip-path="url(#clip35)" clip-rule="evenodd">
<g clip-path="url(#clip36)" clip-rule="evenodd">
<path style="fill:none;stroke-width:0.0242956;stroke-linecap:butt;stroke-linejoin:miter;stroke:rgb(17.96875%,20.3125%,21.09375%);stroke-opacity:0.8;stroke-miterlimit:10;" d="M 1.56692 2.605365 L 1.394543 3.055459 " transform="matrix(166.310576,0,0,166.310576,-33.513256,-53.807525)"/>
</g>
</g>
</g>
<g clip-path="url(#clip37)" clip-rule="nonzero">
<g clip-path="url(#clip38)" clip-rule="evenodd">
<g clip-path="url(#clip39)" clip-rule="evenodd">
<path style="fill:none;stroke-width:0.0242956;stroke-linecap:butt;stroke-linejoin:miter;stroke:rgb(17.96875%,20.3125%,21.09375%);stroke-opacity:0.8;stroke-miterlimit:10;" d="M 1.56692 2.605365 L 2.202167 2.915684 " transform="matrix(166.310576,0,0,166.310576,-33.513256,-53.807525)"/>
</g>
</g>
</g>
<g clip-path="url(#clip40)" clip-rule="nonzero">
<g clip-path="url(#clip41)" clip-rule="evenodd">
<g clip-path="url(#clip42)" clip-rule="evenodd">
<path style="fill:none;stroke-width:0.0242956;stroke-linecap:butt;stroke-linejoin:miter;stroke:rgb(17.96875%,20.3125%,21.09375%);stroke-opacity:0.8;stroke-miterlimit:10;" d="M 2.473333 3.584284 L 2.141264 3.370359 " transform="matrix(166.310576,0,0,166.310576,-33.513256,-53.807525)"/>
</g>
</g>
</g>
<g clip-path="url(#clip43)" clip-rule="nonzero">
<g clip-path="url(#clip44)" clip-rule="evenodd">
<g clip-path="url(#clip45)" clip-rule="evenodd">
<path style="fill:none;stroke-width:0.0242956;stroke-linecap:butt;stroke-linejoin:miter;stroke:rgb(17.96875%,20.3125%,21.09375%);stroke-opacity:0.8;stroke-miterlimit:10;" d="M 1.649761 3.370359 L 2.141264 3.370359 " transform="matrix(166.310576,0,0,166.310576,-33.513256,-53.807525)"/>
</g>
</g>
</g>
<g clip-path="url(#clip46)" clip-rule="nonzero">
<g clip-path="url(#clip47)" clip-rule="evenodd">
<g clip-path="url(#clip48)" clip-rule="evenodd">
<path style="fill:none;stroke-width:0.0242956;stroke-linecap:butt;stroke-linejoin:miter;stroke:rgb(17.96875%,20.3125%,21.09375%);stroke-opacity:0.8;stroke-miterlimit:10;" d="M 1.649761 3.370359 L 1.394543 3.055459 " transform="matrix(166.310576,0,0,166.310576,-33.513256,-53.807525)"/>
</g>
</g>
</g>
<g clip-path="url(#clip49)" clip-rule="nonzero">
<g clip-path="url(#clip50)" clip-rule="evenodd">
<g clip-path="url(#clip51)" clip-rule="evenodd">
<path style="fill:none;stroke-width:0.0242956;stroke-linecap:butt;stroke-linejoin:miter;stroke:rgb(17.96875%,20.3125%,21.09375%);stroke-opacity:0.8;stroke-miterlimit:10;" d="M 2.141264 3.370359 L 2.202167 2.915684 " transform="matrix(166.310576,0,0,166.310576,-33.513256,-53.807525)"/>
</g>
</g>
</g>
<g clip-path="url(#clip52)" clip-rule="nonzero">
<g clip-path="url(#clip53)" clip-rule="evenodd">
<g clip-path="url(#clip54)" clip-rule="evenodd">
<path style="fill:none;stroke-width:0.0242956;stroke-linecap:butt;stroke-linejoin:miter;stroke:rgb(17.96875%,20.3125%,21.09375%);stroke-opacity:0.8;stroke-miterlimit:10;" d="M 2.69515 2.875591 L 2.202167 2.915684 " transform="matrix(166.310576,0,0,166.310576,-33.513256,-53.807525)"/>
</g>
</g>
</g>
<path style="fill-rule:nonzero;fill:rgb(100%,92.941176%,43.529412%);fill-opacity:1;stroke-width:0.0242956;stroke-linecap:butt;stroke-linejoin:miter;stroke:rgb(60%,60%,60%);stroke-opacity:0.8;stroke-miterlimit:10;" d="M 0.121477 0.00000167421 C 0.121477 0.0670825 0.0670792 0.12148 -0.00000159426 0.12148 C -0.0670824 0.12148 -0.12148 0.0670825 -0.12148 0.00000167421 C -0.12148 -0.0670791 -0.0670824 -0.121477 -0.00000159426 -0.121477 C 0.0670792 -0.121477 0.121477 -0.0670791 0.121477 0.00000167421 Z M 0.121477 0.00000167421 " transform="matrix(166.310576,0,0,166.310576,173.844015,267.597378)"/>
<path style="fill-rule:nonzero;fill:rgb(55.294118%,82.745098%,78.039216%);fill-opacity:1;stroke-width:0.0242956;stroke-linecap:butt;stroke-linejoin:miter;stroke:rgb(60%,60%,60%);stroke-opacity:0.8;stroke-miterlimit:10;" d="M 0.121476 0.00000517345 C 0.121476 0.067086 0.0670787 0.121483 -0.00000216614 0.121483 C -0.067083 0.121483 -0.12148 0.067086 -0.12148 0.00000517345 C -0.12148 -0.0670991 -0.067083 -0.121473 -0.00000216614 -0.121473 C 0.0670787 -0.121473 0.121476 -0.0670991 0.121476 0.00000517345 Z M 0.121476 0.00000517345 " transform="matrix(166.310576,0,0,166.310576,176.793329,111.807733)"/>
<path style="fill-rule:nonzero;fill:rgb(55.294118%,82.745098%,78.039216%);fill-opacity:1;stroke-width:0.0242956;stroke-linecap:butt;stroke-linejoin:miter;stroke:rgb(60%,60%,60%);stroke-opacity:0.8;stroke-miterlimit:10;" d="M 0.121466 -0.00000335757 C 0.121466 0.067101 0.0670922 0.121475 0.000011351 0.121475 C -0.067093 0.121475 -0.121467 0.067101 -0.121467 -0.00000335757 C -0.121467 -0.0670842 -0.067093 -0.121482 0.000011351 -0.121482 C 0.0670922 -0.121482 0.121466 -0.0670842 0.121466 -0.00000335757 Z M 0.121466 -0.00000335757 " transform="matrix(166.310576,0,0,166.310576,220.201237,158.55134)"/>
<path style="fill-rule:nonzero;fill:rgb(55.294118%,82.745098%,78.039216%);fill-opacity:1;stroke-width:0.0242956;stroke-linecap:butt;stroke-linejoin:miter;stroke:rgb(60%,60%,60%);stroke-opacity:0.8;stroke-miterlimit:10;" d="M 0.121476 -0.00000102095 C 0.121476 0.0670798 0.0670787 0.121477 -0.00000216258 0.121477 C -0.067083 0.121477 -0.12148 0.0670798 -0.12148 -0.00000102095 C -0.12148 -0.0670818 -0.067083 -0.121479 -0.00000216258 -0.121479 C 0.0670787 -0.121479 0.121476 -0.0670818 0.121476 -0.00000102095 Z M 0.121476 -0.00000102095 " transform="matrix(166.310576,0,0,166.310576,532.172235,235.453295)"/>
<path style="fill-rule:nonzero;fill:rgb(55.294118%,82.745098%,78.039216%);fill-opacity:1;stroke-width:0.0242956;stroke-linecap:butt;stroke-linejoin:miter;stroke:rgb(60%,60%,60%);stroke-opacity:0.8;stroke-miterlimit:10;" d="M 0.121472 -0.0000063949 C 0.121472 0.0670979 0.0670983 0.121472 -0.00000600199 0.121472 C -0.0670868 0.121472 -0.121484 0.0670979 -0.121484 -0.0000063949 C -0.121484 -0.0670872 -0.0670868 -0.121485 -0.00000600199 -0.121485 C 0.0670983 -0.121485 0.121472 -0.0670872 0.121472 -0.0000063949 Z M 0.121472 -0.0000063949 " transform="matrix(166.310576,0,0,166.310576,485.094748,180.243251)"/>
<path style="fill-rule:nonzero;fill:rgb(55.294118%,82.745098%,78.039216%);fill-opacity:1;stroke-width:0.0242956;stroke-linecap:butt;stroke-linejoin:miter;stroke:rgb(60%,60%,60%);stroke-opacity:0.8;stroke-miterlimit:10;" d="M 0.121474 0.0000112485 C 0.121474 0.0670921 0.0670999 0.12149 -0.00000442254 0.12149 C -0.0670852 0.12149 -0.121483 0.0670921 -0.121483 0.0000112485 C -0.121483 -0.0670931 -0.0670852 -0.121467 -0.00000442254 -0.121467 C 0.0670999 -0.121467 0.121474 -0.0670931 0.121474 0.0000112485 Z M 0.121474 0.0000112485 " transform="matrix(166.310576,0,0,166.310576,322.008548,113.052817)"/>
<path style="fill-rule:nonzero;fill:rgb(55.294118%,82.745098%,78.039216%);fill-opacity:1;stroke-width:0.0242956;stroke-linecap:butt;stroke-linejoin:miter;stroke:rgb(60%,60%,60%);stroke-opacity:0.8;stroke-miterlimit:10;" d="M 0.121473 0.00000849189 C 0.121473 0.0670893 0.0670995 0.121487 -0.00000483256 0.121487 C -0.0670857 0.121487 -0.121483 0.0670893 -0.121483 0.00000849189 C -0.121483 -0.0670958 -0.0670857 -0.12147 -0.00000483256 -0.12147 C 0.0670995 -0.12147 0.121473 -0.0670958 0.121473 0.00000849189 Z M 0.121473 0.00000849189 " transform="matrix(166.310576,0,0,166.310576,415.516429,136.924369)"/>
<path style="fill-rule:nonzero;fill:rgb(55.294118%,82.745098%,78.039216%);fill-opacity:1;stroke-width:0.0242956;stroke-linecap:butt;stroke-linejoin:miter;stroke:rgb(60%,60%,60%);stroke-opacity:0.8;stroke-miterlimit:10;" d="M 0.121484 -0.000000886835 C 0.121484 0.0670799 0.0670863 0.121477 0.00000544956 0.121477 C -0.0670989 0.121477 -0.121473 0.0670799 -0.121473 -0.000000886835 C -0.121473 -0.0670817 -0.0670989 -0.121479 0.00000544956 -0.121479 C 0.0670863 -0.121479 0.121484 -0.0670817 0.121484 -0.000000886835 Z M 0.121484 -0.000000886835 " transform="matrix(166.310576,0,0,166.310576,325.90925,57.703272)"/>
<path style="fill-rule:nonzero;fill:rgb(55.294118%,82.745098%,78.039216%);fill-opacity:1;stroke-width:0.0242956;stroke-linecap:butt;stroke-linejoin:miter;stroke:rgb(60%,60%,60%);stroke-opacity:0.8;stroke-miterlimit:10;" d="M 0.121472 -0.00000382771 C 0.121472 0.0671005 0.0670981 0.121474 -0.0000062297 0.121474 C -0.0670871 0.121474 -0.121485 0.0671005 -0.121485 -0.00000382771 C -0.121485 -0.0670846 -0.0670871 -0.121482 -0.0000062297 -0.121482 C 0.0670981 -0.121482 0.121472 -0.0670846 0.121472 -0.00000382771 Z M 0.121472 -0.00000382771 " transform="matrix(166.310576,0,0,166.310576,558.129942,281.711574)"/>
<path style="fill-rule:nonzero;fill:rgb(100%,92.941176%,43.529412%);fill-opacity:1;stroke-width:0.0242956;stroke-linecap:butt;stroke-linejoin:miter;stroke:rgb(60%,60%,60%);stroke-opacity:0.8;stroke-miterlimit:10;" d="M 0.121485 0.00000317079 C 0.121485 0.067084 0.0670871 0.121481 0.0000062297 0.121481 C -0.0670981 0.121481 -0.121472 0.067084 -0.121472 0.00000317079 C -0.121472 -0.0671011 -0.0670981 -0.121475 0.0000062297 -0.121475 C 0.0670871 -0.121475 0.121485 -0.0671011 0.121485 0.00000317079 Z M 0.121485 0.00000317079 " transform="matrix(166.310576,0,0,166.310576,41.870058,280.163535)"/>
<path style="fill-rule:nonzero;fill:rgb(100%,92.941176%,43.529412%);fill-opacity:1;stroke-width:0.0242956;stroke-linecap:butt;stroke-linejoin:miter;stroke:rgb(60%,60%,60%);stroke-opacity:0.8;stroke-miterlimit:10;" d="M 0.121474 -0.00000844241 C 0.121474 0.0670959 0.0671 0.12147 -0.00000433546 0.12147 C -0.0670852 0.12147 -0.121483 0.0670959 -0.121483 -0.00000844241 C -0.121483 -0.0670893 -0.0670852 -0.121487 -0.00000433546 -0.121487 C 0.0671 -0.121487 0.121474 -0.0670893 0.121474 -0.00000844241 Z M 0.121474 -0.00000844241 " transform="matrix(166.310576,0,0,166.310576,90.895252,272.040467)"/>
<path style="fill-rule:nonzero;fill:rgb(100%,92.941176%,43.529412%);fill-opacity:1;stroke-width:0.0242956;stroke-linecap:butt;stroke-linejoin:miter;stroke:rgb(60%,60%,60%);stroke-opacity:0.8;stroke-miterlimit:10;" d="M 0.121471 0.00000739334 C 0.121471 0.0670882 0.0670972 0.121486 -0.00000712257 0.121486 C -0.0670879 0.121486 -0.121485 0.0670882 -0.121485 0.00000739334 C -0.121485 -0.0670969 -0.0670879 -0.121471 -0.00000712257 -0.121471 C 0.0670972 -0.121471 0.121471 -0.0670969 0.121471 0.00000739334 Z M 0.121471 0.00000739334 " transform="matrix(166.310576,0,0,166.310576,227.083216,379.490958)"/>
<path style="fill-rule:nonzero;fill:rgb(100%,92.941176%,43.529412%);fill-opacity:1;stroke-width:0.0242956;stroke-linecap:butt;stroke-linejoin:miter;stroke:rgb(60%,60%,60%);stroke-opacity:0.8;stroke-miterlimit:10;" d="M 0.121473 0.000000886835 C 0.121473 0.0670817 0.0670994 0.121479 -0.00000487769 0.121479 C -0.0670857 0.121479 -0.121483 0.0670817 -0.121483 0.000000886835 C -0.121483 -0.0670799 -0.0670857 -0.121477 -0.00000487769 -0.121477 C 0.0670994 -0.121477 0.121473 -0.0670799 0.121473 0.000000886835 Z M 0.121473 0.000000886835 " transform="matrix(166.310576,0,0,166.310576,377.828936,542.296728)"/>
<path style="fill-rule:nonzero;fill:rgb(100%,92.941176%,43.529412%);fill-opacity:1;stroke-width:0.0242956;stroke-linecap:butt;stroke-linejoin:miter;stroke:rgb(60%,60%,60%);stroke-opacity:0.8;stroke-miterlimit:10;" d="M 0.121487 -0.000000674662 C 0.121487 0.0670801 0.0670892 0.121478 0.00000834132 0.121478 C -0.067096 0.121478 -0.12147 0.0670801 -0.12147 -0.000000674662 C -0.12147 -0.0670815 -0.067096 -0.121479 0.00000834132 -0.121479 C 0.0670892 -0.121479 0.121487 -0.0670815 0.121487 -0.000000674662 Z M 0.121487 -0.000000674662 " transform="matrix(166.310576,0,0,166.310576,240.857988,506.718862)"/>
<path style="fill-rule:nonzero;fill:rgb(100%,92.941176%,43.529412%);fill-opacity:1;stroke-width:0.0242956;stroke-linecap:butt;stroke-linejoin:miter;stroke:rgb(60%,60%,60%);stroke-opacity:0.8;stroke-miterlimit:10;" d="M 0.121479 -0.00000226712 C 0.121479 0.067102 0.0670816 0.121476 0.000000728805 0.121476 C -0.0670801 0.121476 -0.121478 0.067102 -0.121478 -0.00000226712 C -0.121478 -0.0670831 -0.0670801 -0.121481 0.000000728805 -0.121481 C 0.0670816 -0.121481 0.121479 -0.0670831 0.121479 -0.00000226712 Z M 0.121479 -0.00000226712 " transform="matrix(166.310576,0,0,166.310576,322.601441,506.719127)"/>
<path style="fill-rule:nonzero;fill:rgb(100%,92.941176%,43.529412%);fill-opacity:1;stroke-width:0.0242956;stroke-linecap:butt;stroke-linejoin:miter;stroke:rgb(60%,60%,60%);stroke-opacity:0.8;stroke-miterlimit:10;" d="M 0.121474 0.0000106246 C 0.121474 0.0670914 0.0671001 0.121489 -0.0000042281 0.121489 C -0.067085 0.121489 -0.121483 0.0670914 -0.121483 0.0000106246 C -0.121483 -0.0670937 -0.067085 -0.121468 -0.0000042281 -0.121468 C 0.0671001 -0.121468 0.121474 -0.0670937 0.121474 0.0000106246 Z M 0.121474 0.0000106246 " transform="matrix(166.310576,0,0,166.310576,198.414766,454.345889)"/>
<path style="fill-rule:nonzero;fill:rgb(100%,92.941176%,43.529412%);fill-opacity:1;stroke-width:0.0242956;stroke-linecap:butt;stroke-linejoin:miter;stroke:rgb(60%,60%,60%);stroke-opacity:0.8;stroke-miterlimit:10;" d="M 0.121472 -0.00000466206 C 0.121472 0.0670996 0.0670979 0.121474 -0.00000638109 0.121474 C -0.0670872 0.121474 -0.121485 0.0670996 -0.121485 -0.00000466206 C -0.121485 -0.0670855 -0.0670872 -0.121483 -0.00000638109 -0.121483 C 0.0670979 -0.121483 0.121472 -0.0670855 0.121472 -0.00000466206 Z M 0.121472 -0.00000466206 " transform="matrix(166.310576,0,0,166.310576,414.719811,424.434369)"/>
<path style="fill-rule:nonzero;fill:rgb(100%,92.941176%,43.529412%);fill-opacity:1;stroke-width:0.0242956;stroke-linecap:butt;stroke-linejoin:miter;stroke:rgb(60%,60%,60%);stroke-opacity:0.8;stroke-miterlimit:10;" d="M 0.121481 -0.00000148238 C 0.121481 0.0670793 0.0670831 0.121477 0.00000226764 0.121477 C -0.067102 0.121477 -0.121476 0.0670793 -0.121476 -0.00000148238 C -0.121476 -0.0670823 -0.067102 -0.12148 0.00000226764 -0.12148 C 0.0670831 -0.12148 0.121481 -0.0670823 0.121481 -0.00000148238 Z M 0.121481 -0.00000148238 " transform="matrix(166.310576,0,0,166.310576,332.730092,431.101809)"/>
</g>
</svg>
