<?xml version="1.0" encoding="UTF-8"?>
<svg xmlns="http://www.w3.org/2000/svg" xmlns:xlink="http://www.w3.org/1999/xlink" width="600pt" height="600pt" viewBox="0 0 600 600" version="1.1">
<defs>
<clipPath id="clip1">
  <path d="M 450 183 L 600 183 L 600 315 L 450 315 Z M 450 183 "/>
</clipPath>
<clipPath id="clip2">
  <path d="M 422.625 102.207031 L 638.035156 102.207031 L 638.035156 395.789062 L 422.625 395.789062 Z M 422.625 102.207031 L 579.554688 267.816406 C 579.554688 276.925781 572.171875 284.308594 563.0625 284.308594 C 553.949219 284.308594 546.566406 276.925781 546.566406 267.816406 C 546.566406 258.703125 553.949219 251.320312 563.0625 251.320312 C 572.171875 251.320312 579.554688 258.703125 579.554688 267.816406 Z M 422.625 102.207031 "/>
</clipPath>
<clipPath id="clip3">
  <path d="M 422.625 102.207031 L 638.035156 102.207031 L 638.035156 395.789062 L 422.625 395.789062 Z M 422.625 102.207031 L 514.097656 230.183594 C 514.097656 239.292969 506.714844 246.679688 497.601562 246.679688 C 488.492188 246.679688 481.109375 239.292969 481.109375 230.183594 C 481.109375 221.074219 488.492188 213.6875 497.601562 213.6875 C 506.714844 213.6875 514.097656 221.074219 514.097656 230.183594 Z M 422.625 102.207031 "/>
</clipPath>
<clipPath id="clip4">
  <path d="M 493 92 L 600 92 L 600 227 L 493 227 Z M 493 92 "/>
</clipPath>
<clipPath id="clip5">
  <path d="M 404.03125 80.867188 L 693.085938 80.867188 L 693.085938 237.886719 L 404.03125 237.886719 Z M 404.03125 80.867188 L 573.417969 139.1875 C 573.417969 148.300781 566.03125 155.683594 556.921875 155.683594 C 547.8125 155.683594 540.425781 148.300781 540.425781 139.1875 C 540.425781 130.078125 547.8125 122.691406 556.921875 122.691406 C 566.03125 122.691406 573.417969 130.078125 573.417969 139.1875 Z M 404.03125 80.867188 "/>
</clipPath>
<clipPath id="clip6">
  <path d="M 404.03125 80.867188 L 693.085938 80.867188 L 693.085938 237.886719 L 404.03125 237.886719 Z M 404.03125 80.867188 L 556.695312 179.570312 C 556.695312 188.679688 549.3125 196.066406 540.199219 196.066406 C 531.089844 196.066406 523.707031 188.679688 523.707031 179.570312 C 523.707031 170.460938 531.089844 163.074219 540.199219 163.074219 C 549.3125 163.074219 556.695312 170.460938 556.695312 179.570312 Z M 404.03125 80.867188 "/>
</clipPath>
<clipPath id="clip7">
  <path d="M 450 132 L 587 132 L 587 277 L 450 277 Z M 450 132 "/>
</clipPath>
<clipPath id="clip8">
  <path d="M 384.273438 83.667969 L 653.523438 83.667969 L 653.523438 326.082031 L 384.273438 326.082031 Z M 384.273438 83.667969 L 556.695312 179.570312 C 556.695312 188.679688 549.3125 196.066406 540.199219 196.066406 C 531.089844 196.066406 523.707031 188.679688 523.707031 179.570312 C 523.707031 170.460938 531.089844 163.074219 540.199219 163.074219 C 549.3125 163.074219 556.695312 170.460938 556.695312 179.570312 Z M 384.273438 83.667969 "/>
</clipPath>
<clipPath id="clip9">
  <path d="M 384.273438 83.667969 L 653.523438 83.667969 L 653.523438 326.082031 L 384.273438 326.082031 Z M 384.273438 83.667969 L 514.097656 230.183594 C 514.097656 239.292969 506.714844 246.679688 497.601562 246.679688 C 488.492188 246.679688 481.109375 239.292969 481.109375 230.183594 C 481.109375 221.074219 488.492188 213.6875 497.601562 213.6875 C 506.714844 213.6875 514.097656 221.074219 514.097656 230.183594 Z M 384.273438 83.667969 "/>
</clipPath>
<clipPath id="clip10">
  <path d="M 450 183 L 579 183 L 579 351 L 450 351 Z M 450 183 "/>
</clipPath>
<clipPath id="clip11">
  <path d="M 363.847656 166.359375 L 665.703125 166.359375 L 665.703125 368.042969 L 363.847656 368.042969 Z M 363.847656 166.359375 L 514.097656 230.183594 C 514.097656 239.292969 506.714844 246.679688 497.601562 246.679688 C 488.492188 246.679688 481.109375 239.292969 481.109375 230.183594 C 481.109375 221.074219 488.492188 213.6875 497.601562 213.6875 C 506.714844 213.6875 514.097656 221.074219 514.097656 230.183594 Z M 363.847656 166.359375 "/>
</clipPath>
<clipPath id="clip12">
  <path d="M 363.847656 166.359375 L 665.703125 166.359375 L 665.703125 368.042969 L 363.847656 368.042969 Z M 363.847656 166.359375 L 548.449219 304.222656 C 548.449219 313.332031 541.066406 320.71875 531.953125 320.71875 C 522.84375 320.71875 515.460938 313.332031 515.460938 304.222656 C 515.460938 295.113281 522.84375 287.726562 531.953125 287.726562 C 541.066406 287.726562 548.449219 295.113281 548.449219 304.222656 Z M 363.847656 166.359375 "/>
</clipPath>
<clipPath id="clip13">
  <path d="M 301 110 L 545 110 L 545 277 L 301 277 Z M 301 110 "/>
</clipPath>
<clipPath id="clip14">
  <path d="M 281.640625 24.546875 L 564.175781 24.546875 L 564.175781 362.621094 L 281.640625 362.621094 Z M 281.640625 24.546875 L 514.097656 230.183594 C 514.097656 239.292969 506.714844 246.679688 497.601562 246.679688 C 488.492188 246.679688 481.109375 239.292969 481.109375 230.183594 C 481.109375 221.074219 488.492188 213.6875 497.601562 213.6875 C 506.714844 213.6875 514.097656 221.074219 514.097656 230.183594 Z M 281.640625 24.546875 "/>
</clipPath>
<clipPath id="clip15">
  <path d="M 281.640625 24.546875 L 564.175781 24.546875 L 564.175781 362.621094 L 281.640625 362.621094 Z M 281.640625 24.546875 L 364.714844 156.988281 C 364.714844 166.097656 357.332031 173.480469 348.21875 173.480469 C 339.109375 173.480469 331.726562 166.097656 331.726562 156.988281 C 331.726562 147.875 339.109375 140.492188 348.21875 140.492188 C 357.332031 140.492188 364.714844 147.875 364.714844 156.988281 Z M 281.640625 24.546875 "/>
</clipPath>
<clipPath id="clip16">
  <path d="M 228 401.058594 L 341 401.058594 L 341 550.503906 L 228 550.503906 Z M 228 401.058594 "/>
</clipPath>
<clipPath id="clip17">
  <path d="M 131.914062 401.058594 L 436.820312 401.058594 L 436.820312 550.503906 L 131.914062 550.503906 Z M 131.914062 401.058594 L 291.847656 436.660156 C 291.847656 445.769531 284.460938 453.15625 275.351562 453.15625 C 266.242188 453.15625 258.855469 445.769531 258.855469 436.660156 C 258.855469 427.550781 266.242188 420.164062 275.351562 420.164062 C 284.460938 420.164062 291.847656 427.550781 291.847656 436.660156 Z M 131.914062 401.058594 "/>
</clipPath>
<clipPath id="clip18">
  <path d="M 131.914062 401.058594 L 436.820312 401.058594 L 436.820312 550.503906 L 131.914062 550.503906 Z M 131.914062 401.058594 L 309.882812 514.90625 C 309.882812 524.015625 302.5 531.402344 293.386719 531.402344 C 284.277344 531.402344 276.890625 524.015625 276.890625 514.90625 C 276.890625 505.796875 284.277344 498.410156 293.386719 498.410156 C 302.5 498.410156 309.882812 505.796875 309.882812 514.90625 Z M 131.914062 401.058594 "/>
</clipPath>
<clipPath id="clip19">
  <path d="M 163 390 L 323 390 L 323 508 L 163 508 Z M 163 390 "/>
</clipPath>
<clipPath id="clip20">
  <path d="M 157.414062 298.195312 L 327.757812 298.195312 L 327.757812 598.929688 L 157.414062 598.929688 Z M 157.414062 298.195312 L 291.847656 436.660156 C 291.847656 445.769531 284.460938 453.15625 275.351562 453.15625 C 266.242188 453.15625 258.855469 445.769531 258.855469 436.660156 C 258.855469 427.550781 266.242188 420.164062 275.351562 420.164062 C 284.460938 420.164062 291.847656 427.550781 291.847656 436.660156 Z M 157.414062 298.195312 "/>
</clipPath>
<clipPath id="clip21">
  <path d="M 157.414062 298.195312 L 327.757812 298.195312 L 327.757812 598.929688 L 157.414062 598.929688 Z M 157.414062 298.195312 L 226.320312 460.46875 C 226.320312 469.578125 218.9375 476.964844 209.824219 476.964844 C 200.714844 476.964844 193.328125 469.578125 193.328125 460.46875 C 193.328125 451.359375 200.714844 443.972656 209.824219 443.972656 C 218.9375 443.972656 226.320312 451.359375 226.320312 460.46875 Z M 157.414062 298.195312 "/>
</clipPath>
<clipPath id="clip22">
  <path d="M 228 283.402344 L 346 283.402344 L 346 466.773438 L 228 466.773438 Z M 228 283.402344 "/>
</clipPath>
<clipPath id="clip23">
  <path d="M 130.761719 283.402344 L 443.308594 283.402344 L 443.308594 466.773438 L 130.761719 466.773438 Z M 130.761719 283.402344 L 291.847656 436.660156 C 291.847656 445.769531 284.460938 453.15625 275.351562 453.15625 C 266.242188 453.15625 258.855469 445.769531 258.855469 436.660156 C 258.855469 427.550781 266.242188 420.164062 275.351562 420.164062 C 284.460938 420.164062 291.847656 427.550781 291.847656 436.660156 Z M 130.761719 283.402344 "/>
</clipPath>
<clipPath id="clip24">
  <path d="M 130.761719 283.402344 L 443.308594 283.402344 L 443.308594 466.773438 L 130.761719 466.773438 Z M 130.761719 283.402344 L 315.21875 313.519531 C 315.21875 322.628906 307.832031 330.015625 298.722656 330.015625 C 289.613281 330.015625 282.226562 322.628906 282.226562 313.519531 C 282.226562 304.410156 289.613281 297.023438 298.722656 297.023438 C 307.832031 297.023438 315.21875 304.410156 315.21875 313.519531 Z M 130.761719 283.402344 "/>
</clipPath>
<clipPath id="clip25">
  <path d="M 13 324 L 163 324 L 163 484 L 13 484 Z M 13 324 "/>
</clipPath>
<clipPath id="clip26">
  <path d="M -52.625 274.21875 L 228.753906 274.21875 L 228.753906 532.964844 L -52.625 532.964844 Z M -52.625 274.21875 L 132.507812 436.378906 C 132.507812 445.488281 125.121094 452.875 116.011719 452.875 C 106.902344 452.875 99.515625 445.488281 99.515625 436.378906 C 99.515625 427.265625 106.902344 419.882812 116.011719 419.882812 C 125.121094 419.882812 132.507812 427.265625 132.507812 436.378906 Z M -52.625 274.21875 "/>
</clipPath>
<clipPath id="clip27">
  <path d="M -52.625 274.21875 L 228.753906 274.21875 L 228.753906 532.964844 L -52.625 532.964844 Z M -52.625 274.21875 L 76.617188 370.808594 C 76.617188 379.917969 69.230469 387.300781 60.121094 387.300781 C 51.011719 387.300781 43.625 379.917969 43.625 370.808594 C 43.625 361.695312 51.011719 354.3125 60.121094 354.3125 C 69.230469 354.3125 76.617188 361.695312 76.617188 370.808594 Z M -52.625 274.21875 "/>
</clipPath>
<clipPath id="clip28">
  <path d="M 76.941406 389 L 248.890625 389 L 248.890625 508 L 76.941406 508 Z M 76.941406 389 "/>
</clipPath>
<clipPath id="clip29">
  <path d="M 76.941406 293.789062 L 248.890625 293.789062 L 248.890625 603.054688 L 76.941406 603.054688 Z M 76.941406 293.789062 L 132.507812 436.378906 C 132.507812 445.488281 125.121094 452.875 116.011719 452.875 C 106.902344 452.875 99.515625 445.488281 99.515625 436.378906 C 99.515625 427.265625 106.902344 419.882812 116.011719 419.882812 C 125.121094 419.882812 132.507812 427.265625 132.507812 436.378906 Z M 76.941406 293.789062 "/>
</clipPath>
<clipPath id="clip30">
  <path d="M 76.941406 293.789062 L 248.890625 293.789062 L 248.890625 603.054688 L 76.941406 603.054688 Z M 76.941406 293.789062 L 226.320312 460.46875 C 226.320312 469.578125 218.9375 476.964844 209.824219 476.964844 C 200.714844 476.964844 193.328125 469.578125 193.328125 460.46875 C 193.328125 451.359375 200.714844 443.972656 209.824219 443.972656 C 218.9375 443.972656 226.320312 451.359375 226.320312 460.46875 Z M 76.941406 293.789062 "/>
</clipPath>
<clipPath id="clip31">
  <path d="M 69 389 L 187 389 L 187 526 L 69 526 Z M 69 389 "/>
</clipPath>
<clipPath id="clip32">
  <path d="M -11.921875 361.332031 L 268.167969 361.332031 L 268.167969 553.507812 L -11.921875 553.507812 Z M -11.921875 361.332031 L 132.507812 436.378906 C 132.507812 445.488281 125.121094 452.875 116.011719 452.875 C 106.902344 452.875 99.515625 445.488281 99.515625 436.378906 C 99.515625 427.265625 106.902344 419.882812 116.011719 419.882812 C 125.121094 419.882812 132.507812 427.265625 132.507812 436.378906 Z M -11.921875 361.332031 "/>
</clipPath>
<clipPath id="clip33">
  <path d="M -11.921875 361.332031 L 268.167969 361.332031 L 268.167969 553.507812 L -11.921875 553.507812 Z M -11.921875 361.332031 L 156.734375 478.464844 C 156.734375 487.574219 149.347656 494.960938 140.238281 494.960938 C 131.128906 494.960938 123.742188 487.574219 123.742188 478.464844 C 123.742188 469.351562 131.128906 461.96875 140.238281 461.96875 C 149.347656 461.96875 156.734375 469.351562 156.734375 478.464844 Z M -11.921875 361.332031 "/>
</clipPath>
<clipPath id="clip34">
  <path d="M 163 330.285156 L 281 330.285156 L 281 501.566406 L 163 501.566406 Z M 163 330.285156 "/>
</clipPath>
<clipPath id="clip35">
  <path d="M 67.769531 330.285156 L 376.144531 330.285156 L 376.144531 501.566406 L 67.769531 501.566406 Z M 67.769531 330.285156 L 250.589844 371.386719 C 250.589844 380.496094 243.203125 387.882812 234.09375 387.882812 C 224.984375 387.882812 217.597656 380.496094 217.597656 371.386719 C 217.597656 362.273438 224.984375 354.890625 234.09375 354.890625 C 243.203125 354.890625 250.589844 362.273438 250.589844 371.386719 Z M 67.769531 330.285156 "/>
</clipPath>
<clipPath id="clip36">
  <path d="M 67.769531 330.285156 L 376.144531 330.285156 L 376.144531 501.566406 L 67.769531 501.566406 Z M 67.769531 330.285156 L 226.320312 460.46875 C 226.320312 469.578125 218.9375 476.964844 209.824219 476.964844 C 200.714844 476.964844 193.328125 469.578125 193.328125 460.46875 C 193.328125 451.359375 200.714844 443.972656 209.824219 443.972656 C 218.9375 443.972656 226.320312 451.359375 226.320312 460.46875 Z M 67.769531 330.285156 "/>
</clipPath>
<clipPath id="clip37">
  <path d="M 187 266 L 346 266 L 346 419 L 187 419 Z M 187 266 "/>
</clipPath>
<clipPath id="clip38">
  <path d="M 134.863281 203.082031 L 397.949219 203.082031 L 397.949219 481.820312 L 134.863281 481.820312 Z M 134.863281 203.082031 L 250.589844 371.386719 C 250.589844 380.496094 243.203125 387.882812 234.09375 387.882812 C 224.984375 387.882812 217.597656 380.496094 217.597656 371.386719 C 217.597656 362.273438 224.984375 354.890625 234.09375 354.890625 C 243.203125 354.890625 250.589844 362.273438 250.589844 371.386719 Z M 134.863281 203.082031 "/>
</clipPath>
<clipPath id="clip39">
  <path d="M 134.863281 203.082031 L 397.949219 203.082031 L 397.949219 481.820312 L 134.863281 481.820312 Z M 134.863281 203.082031 L 315.21875 313.519531 C 315.21875 322.628906 307.832031 330.015625 298.722656 330.015625 C 289.613281 330.015625 282.226562 322.628906 282.226562 313.519531 C 282.226562 304.410156 289.613281 297.023438 298.722656 297.023438 C 307.832031 297.023438 315.21875 304.410156 315.21875 313.519531 Z M 134.863281 203.082031 "/>
</clipPath>
<clipPath id="clip40">
  <path d="M 304.097656 485 L 425.566406 485 L 425.566406 586 L 304.097656 586 Z M 304.097656 485 "/>
</clipPath>
<clipPath id="clip41">
  <path d="M 304.097656 384.984375 L 425.566406 384.984375 L 425.566406 685.21875 L 304.097656 685.21875 Z M 304.097656 384.984375 L 334.164062 531.726562 C 334.164062 540.839844 326.777344 548.222656 317.667969 548.222656 C 308.558594 548.222656 301.171875 540.839844 301.171875 531.726562 C 301.171875 522.617188 308.558594 515.234375 317.667969 515.234375 C 326.777344 515.234375 334.164062 522.617188 334.164062 531.726562 Z M 304.097656 384.984375 "/>
</clipPath>
<clipPath id="clip42">
  <path d="M 304.097656 384.984375 L 425.566406 384.984375 L 425.566406 685.21875 L 304.097656 685.21875 Z M 304.097656 384.984375 L 428.496094 538.480469 C 428.496094 547.59375 421.109375 554.976562 412 554.976562 C 402.890625 554.976562 395.503906 547.59375 395.503906 538.480469 C 395.503906 529.371094 402.890625 521.984375 412 521.984375 C 421.109375 521.984375 428.496094 529.371094 428.496094 538.480469 Z M 304.097656 384.984375 "/>
</clipPath>
<clipPath id="clip43">
  <path d="M 246 468 L 365 468 L 365 579 L 246 579 Z M 246 468 "/>
</clipPath>
<clipPath id="clip44">
  <path d="M 208.195312 393.390625 L 402.855469 393.390625 L 402.855469 653.238281 L 208.195312 653.238281 Z M 208.195312 393.390625 L 334.164062 531.726562 C 334.164062 540.839844 326.777344 548.222656 317.667969 548.222656 C 308.558594 548.222656 301.171875 540.839844 301.171875 531.726562 C 301.171875 522.617188 308.558594 515.234375 317.667969 515.234375 C 326.777344 515.234375 334.164062 522.617188 334.164062 531.726562 Z M 208.195312 393.390625 "/>
</clipPath>
<clipPath id="clip45">
  <path d="M 208.195312 393.390625 L 402.855469 393.390625 L 402.855469 653.238281 L 208.195312 653.238281 Z M 208.195312 393.390625 L 309.882812 514.90625 C 309.882812 524.015625 302.5 531.402344 293.386719 531.402344 C 284.277344 531.402344 276.890625 524.015625 276.890625 514.90625 C 276.890625 505.796875 284.277344 498.410156 293.386719 498.410156 C 302.5 498.410156 309.882812 505.796875 309.882812 514.90625 Z M 208.195312 393.390625 "/>
</clipPath>
<clipPath id="clip46">
  <path d="M 163 413 L 365 413 L 365 579 L 163 579 Z M 163 413 "/>
</clipPath>
<clipPath id="clip47">
  <path d="M 127.246094 337.183594 L 400.242188 337.183594 L 400.242188 655.007812 L 127.246094 655.007812 Z M 127.246094 337.183594 L 334.164062 531.726562 C 334.164062 540.839844 326.777344 548.222656 317.667969 548.222656 C 308.558594 548.222656 301.171875 540.839844 301.171875 531.726562 C 301.171875 522.617188 308.558594 515.234375 317.667969 515.234375 C 326.777344 515.234375 334.164062 522.617188 334.164062 531.726562 Z M 127.246094 337.183594 "/>
</clipPath>
<clipPath id="clip48">
  <path d="M 127.246094 337.183594 L 400.242188 337.183594 L 400.242188 655.007812 L 127.246094 655.007812 Z M 127.246094 337.183594 L 226.320312 460.46875 C 226.320312 469.578125 218.9375 476.964844 209.824219 476.964844 C 200.714844 476.964844 193.328125 469.578125 193.328125 460.46875 C 193.328125 451.359375 200.714844 443.972656 209.824219 443.972656 C 218.9375 443.972656 226.320312 451.359375 226.320312 460.46875 Z M 127.246094 337.183594 "/>
</clipPath>
<clipPath id="clip49">
  <path d="M 365 467 L 528 467 L 528 586 L 365 586 Z M 365 467 "/>
</clipPath>
<clipPath id="clip50">
  <path d="M 361.128906 375.453125 L 531.371094 375.453125 L 531.371094 677.492188 L 361.128906 677.492188 Z M 361.128906 375.453125 L 428.496094 538.480469 C 428.496094 547.59375 421.109375 554.976562 412 554.976562 C 402.890625 554.976562 395.503906 547.59375 395.503906 538.480469 C 395.503906 529.371094 402.890625 521.984375 412 521.984375 C 421.109375 521.984375 428.496094 529.371094 428.496094 538.480469 Z M 361.128906 375.453125 "/>
</clipPath>
<clipPath id="clip51">
  <path d="M 361.128906 375.453125 L 531.371094 375.453125 L 531.371094 677.492188 L 361.128906 677.492188 Z M 361.128906 375.453125 L 497 514.46875 C 497 523.578125 489.613281 530.964844 480.503906 530.964844 C 471.394531 530.964844 464.007812 523.578125 464.007812 514.46875 C 464.007812 505.359375 471.394531 497.972656 480.503906 497.972656 C 489.613281 497.972656 497 505.359375 497 514.46875 Z M 361.128906 375.453125 "/>
</clipPath>
<clipPath id="clip52">
  <path d="M 433 440 L 571 440 L 571 562 L 433 562 Z M 433 440 "/>
</clipPath>
<clipPath id="clip53">
  <path d="M 401.402344 362 L 603.0625 362 L 603.0625 639.976562 L 401.402344 639.976562 Z M 401.402344 362 L 540.460938 487.511719 C 540.460938 496.621094 533.074219 504.007812 523.964844 504.007812 C 514.855469 504.007812 507.46875 496.621094 507.46875 487.511719 C 507.46875 478.402344 514.855469 471.015625 523.964844 471.015625 C 533.074219 471.015625 540.460938 478.402344 540.460938 487.511719 Z M 401.402344 362 "/>
</clipPath>
<clipPath id="clip54">
  <path d="M 401.402344 362 L 603.0625 362 L 603.0625 639.976562 L 401.402344 639.976562 Z M 401.402344 362 L 497 514.46875 C 497 523.578125 489.613281 530.964844 480.503906 530.964844 C 471.394531 530.964844 464.007812 523.578125 464.007812 514.46875 C 464.007812 505.359375 471.394531 497.972656 480.503906 497.972656 C 489.613281 497.972656 497 505.359375 497 514.46875 Z M 401.402344 362 "/>
</clipPath>
<clipPath id="clip55">
  <path d="M 290.757812 266 L 359.027344 266 L 359.027344 362 L 290.757812 362 Z M 290.757812 266 "/>
</clipPath>
<clipPath id="clip56">
  <path d="M 290.757812 166.484375 L 359.027344 166.484375 L 359.027344 462.25 L 290.757812 462.25 Z M 290.757812 166.484375 L 367.5625 315.21875 C 367.5625 324.328125 360.179688 331.714844 351.066406 331.714844 C 341.957031 331.714844 334.574219 324.328125 334.574219 315.21875 C 334.574219 306.109375 341.957031 298.722656 351.066406 298.722656 C 360.179688 298.722656 367.5625 306.109375 367.5625 315.21875 Z M 290.757812 166.484375 "/>
</clipPath>
<clipPath id="clip57">
  <path d="M 290.757812 166.484375 L 359.027344 166.484375 L 359.027344 462.25 L 290.757812 462.25 Z M 290.757812 166.484375 L 315.21875 313.519531 C 315.21875 322.628906 307.832031 330.015625 298.722656 330.015625 C 289.613281 330.015625 282.226562 322.628906 282.226562 313.519531 C 282.226562 304.410156 289.613281 297.023438 298.722656 297.023438 C 307.832031 297.023438 315.21875 304.410156 315.21875 313.519531 Z M 290.757812 166.484375 "/>
</clipPath>
<clipPath id="clip58">
  <path d="M 0 275 L 107 275 L 107 418 L 0 418 Z M 0 275 "/>
</clipPath>
<clipPath id="clip59">
  <path d="M -96.351562 257.003906 L 193.40625 257.003906 L 193.40625 435.621094 L -96.351562 435.621094 Z M -96.351562 257.003906 L 76.617188 370.808594 C 76.617188 379.917969 69.230469 387.300781 60.121094 387.300781 C 51.011719 387.300781 43.625 379.917969 43.625 370.808594 C 43.625 361.695312 51.011719 354.3125 60.121094 354.3125 C 69.230469 354.3125 76.617188 361.695312 76.617188 370.808594 Z M -96.351562 257.003906 "/>
</clipPath>
<clipPath id="clip60">
  <path d="M -96.351562 257.003906 L 193.40625 257.003906 L 193.40625 435.621094 L -96.351562 435.621094 Z M -96.351562 257.003906 L 53.433594 321.820312 C 53.433594 330.929688 46.050781 338.316406 36.9375 338.316406 C 27.828125 338.316406 20.445312 330.929688 20.445312 321.820312 C 20.445312 312.710938 27.828125 305.324219 36.9375 305.324219 C 46.050781 305.324219 53.433594 312.710938 53.433594 321.820312 Z M -96.351562 257.003906 "/>
</clipPath>
<clipPath id="clip61">
  <path d="M 100.929688 413 L 249.128906 413 L 249.128906 526 L 100.929688 526 Z M 100.929688 413 "/>
</clipPath>
<clipPath id="clip62">
  <path d="M 100.929688 317.9375 L 249.128906 317.9375 L 249.128906 620.992188 L 100.929688 620.992188 Z M 100.929688 317.9375 L 226.320312 460.46875 C 226.320312 469.578125 218.9375 476.964844 209.824219 476.964844 C 200.714844 476.964844 193.328125 469.578125 193.328125 460.46875 C 193.328125 451.359375 200.714844 443.972656 209.824219 443.972656 C 218.9375 443.972656 226.320312 451.359375 226.320312 460.46875 Z M 100.929688 317.9375 "/>
</clipPath>
<clipPath id="clip63">
  <path d="M 100.929688 317.9375 L 249.128906 317.9375 L 249.128906 620.992188 L 100.929688 620.992188 Z M 100.929688 317.9375 L 156.734375 478.464844 C 156.734375 487.574219 149.347656 494.960938 140.238281 494.960938 C 131.128906 494.960938 123.742188 487.574219 123.742188 478.464844 C 123.742188 469.351562 131.128906 461.96875 140.238281 461.96875 C 149.347656 461.96875 156.734375 469.351562 156.734375 478.464844 Z M 100.929688 317.9375 "/>
</clipPath>
<clipPath id="clip64">
  <path d="M 252 110.332031 L 395 110.332031 L 395 360.171875 L 252 360.171875 Z M 252 110.332031 "/>
</clipPath>
<clipPath id="clip65">
  <path d="M 158.304688 110.332031 L 488.632812 110.332031 L 488.632812 360.171875 L 158.304688 360.171875 Z M 158.304688 110.332031 L 315.21875 313.519531 C 315.21875 322.628906 307.832031 330.015625 298.722656 330.015625 C 289.613281 330.015625 282.226562 322.628906 282.226562 313.519531 C 282.226562 304.410156 289.613281 297.023438 298.722656 297.023438 C 307.832031 297.023438 315.21875 304.410156 315.21875 313.519531 Z M 158.304688 110.332031 "/>
</clipPath>
<clipPath id="clip66">
  <path d="M 158.304688 110.332031 L 488.632812 110.332031 L 488.632812 360.171875 L 158.304688 360.171875 Z M 158.304688 110.332031 L 364.714844 156.988281 C 364.714844 166.097656 357.332031 173.480469 348.21875 173.480469 C 339.109375 173.480469 331.726562 166.097656 331.726562 156.988281 C 331.726562 147.875 339.109375 140.492188 348.21875 140.492188 C 357.332031 140.492188 364.714844 147.875 364.714844 156.988281 Z M 158.304688 110.332031 "/>
</clipPath>
<clipPath id="clip67">
  <path d="M 301 42.378906 L 408 42.378906 L 408 179.878906 L 301 179.878906 Z M 301 42.378906 "/>
</clipPath>
<clipPath id="clip68">
  <path d="M 202.449219 42.378906 L 506.597656 42.378906 L 506.597656 179.878906 L 202.449219 179.878906 Z M 202.449219 42.378906 L 364.714844 156.988281 C 364.714844 166.097656 357.332031 173.480469 348.21875 173.480469 C 339.109375 173.480469 331.726562 166.097656 331.726562 156.988281 C 331.726562 147.875 339.109375 140.492188 348.21875 140.492188 C 357.332031 140.492188 364.714844 147.875 364.714844 156.988281 Z M 202.449219 42.378906 "/>
</clipPath>
<clipPath id="clip69">
  <path d="M 202.449219 42.378906 L 506.597656 42.378906 L 506.597656 179.878906 L 202.449219 179.878906 Z M 202.449219 42.378906 L 377.328125 65.273438 C 377.328125 74.382812 369.941406 81.765625 360.832031 81.765625 C 351.71875 81.765625 344.335938 74.382812 344.335938 65.273438 C 344.335938 56.160156 351.71875 48.777344 360.832031 48.777344 C 369.941406 48.777344 377.328125 56.160156 377.328125 65.273438 Z M 202.449219 42.378906 "/>
</clipPath>
<clipPath id="clip70">
  <path d="M 169 65 L 395 65 L 395 204 L 169 204 Z M 169 65 "/>
</clipPath>
<clipPath id="clip71">
  <path d="M 166.789062 -27.222656 L 397.632812 -27.222656 L 397.632812 296.5 L 166.789062 296.5 Z M 166.789062 -27.222656 L 364.714844 156.988281 C 364.714844 166.097656 357.332031 173.480469 348.21875 173.480469 C 339.109375 173.480469 331.726562 166.097656 331.726562 156.988281 C 331.726562 147.875 339.109375 140.492188 348.21875 140.492188 C 357.332031 140.492188 364.714844 147.875 364.714844 156.988281 Z M 166.789062 -27.222656 "/>
</clipPath>
<clipPath id="clip72">
  <path d="M 166.789062 -27.222656 L 397.632812 -27.222656 L 397.632812 296.5 L 166.789062 296.5 Z M 166.789062 -27.222656 L 232.703125 112.292969 C 232.703125 121.402344 225.320312 128.785156 216.207031 128.785156 C 207.097656 128.785156 199.714844 121.402344 199.714844 112.292969 C 199.714844 103.179688 207.097656 95.796875 216.207031 95.796875 C 225.320312 95.796875 232.703125 103.179688 232.703125 112.292969 Z M 166.789062 -27.222656 "/>
</clipPath>
<clipPath id="clip73">
  <path d="M 301 63 L 447 63 L 447 204 L 301 204 Z M 301 63 "/>
</clipPath>
<clipPath id="clip74">
  <path d="M 248.292969 0.292969 L 499.820312 0.292969 L 499.820312 266.796875 L 248.292969 266.796875 Z M 248.292969 0.292969 L 364.714844 156.988281 C 364.714844 166.097656 357.332031 173.480469 348.21875 173.480469 C 339.109375 173.480469 331.726562 166.097656 331.726562 156.988281 C 331.726562 147.875 339.109375 140.492188 348.21875 140.492188 C 357.332031 140.492188 364.714844 147.875 364.714844 156.988281 Z M 248.292969 0.292969 "/>
</clipPath>
<clipPath id="clip75">
  <path d="M 248.292969 0.292969 L 499.820312 0.292969 L 499.820312 266.796875 L 248.292969 266.796875 Z M 248.292969 0.292969 L 416.394531 110.105469 C 416.394531 119.214844 409.011719 126.601562 399.898438 126.601562 C 390.789062 126.601562 383.402344 119.214844 383.402344 110.105469 C 383.402344 100.996094 390.789062 93.609375 399.898438 93.609375 C 409.011719 93.609375 416.394531 100.996094 416.394531 110.105469 Z M 248.292969 0.292969 "/>
</clipPath>
<clipPath id="clip76">
  <path d="M 269 59 L 395 59 L 395 204 L 269 204 Z M 269 59 "/>
</clipPath>
<clipPath id="clip77">
  <path d="M 190.957031 26.148438 L 473.40625 26.148438 L 473.40625 236.601562 L 190.957031 236.601562 Z M 190.957031 26.148438 L 364.714844 156.988281 C 364.714844 166.097656 357.332031 173.480469 348.21875 173.480469 C 339.109375 173.480469 331.726562 166.097656 331.726562 156.988281 C 331.726562 147.875 339.109375 140.492188 348.21875 140.492188 C 357.332031 140.492188 364.714844 147.875 364.714844 156.988281 Z M 190.957031 26.148438 "/>
</clipPath>
<clipPath id="clip78">
  <path d="M 190.957031 26.148438 L 473.40625 26.148438 L 473.40625 236.601562 L 190.957031 236.601562 Z M 190.957031 26.148438 L 332.644531 105.765625 C 332.644531 114.875 325.257812 122.261719 316.148438 122.261719 C 307.039062 122.261719 299.652344 114.875 299.652344 105.765625 C 299.652344 96.65625 307.039062 89.269531 316.148438 89.269531 C 325.257812 89.269531 332.644531 96.65625 332.644531 105.765625 Z M 190.957031 26.148438 "/>
</clipPath>
<clipPath id="clip79">
  <path d="M 39 84 L 181 84 L 181 198 L 39 198 Z M 39 84 "/>
</clipPath>
<clipPath id="clip80">
  <path d="M 28.140625 -5.074219 L 191.449219 -5.074219 L 191.449219 287.121094 L 28.140625 287.121094 Z M 28.140625 -5.074219 L 102.519531 150.777344 C 102.519531 159.890625 95.136719 167.273438 86.027344 167.273438 C 76.914062 167.273438 69.53125 159.890625 69.53125 150.777344 C 69.53125 141.667969 76.914062 134.28125 86.027344 134.28125 C 95.136719 134.28125 102.519531 141.667969 102.519531 150.777344 Z M 28.140625 -5.074219 "/>
</clipPath>
<clipPath id="clip81">
  <path d="M 28.140625 -5.074219 L 191.449219 -5.074219 L 191.449219 287.121094 L 28.140625 287.121094 Z M 28.140625 -5.074219 L 150.0625 131.273438 C 150.0625 140.382812 142.679688 147.769531 133.566406 147.769531 C 124.457031 147.769531 117.070312 140.382812 117.070312 131.273438 C 117.070312 122.164062 124.457031 114.777344 133.566406 114.777344 C 142.679688 114.777344 150.0625 122.164062 150.0625 131.273438 Z M 28.140625 -5.074219 "/>
</clipPath>
<clipPath id="clip82">
  <path d="M 98.074219 65 L 251.695312 65 L 251.695312 178 L 98.074219 178 Z M 98.074219 65 "/>
</clipPath>
<clipPath id="clip83">
  <path d="M 98.074219 -31.167969 L 251.695312 -31.167969 L 251.695312 274.730469 L 98.074219 274.730469 Z M 98.074219 -31.167969 L 150.0625 131.273438 C 150.0625 140.382812 142.679688 147.769531 133.566406 147.769531 C 124.457031 147.769531 117.070312 140.382812 117.070312 131.273438 C 117.070312 122.164062 124.457031 114.777344 133.566406 114.777344 C 142.679688 114.777344 150.0625 122.164062 150.0625 131.273438 Z M 98.074219 -31.167969 "/>
</clipPath>
<clipPath id="clip84">
  <path d="M 98.074219 -31.167969 L 251.695312 -31.167969 L 251.695312 274.730469 L 98.074219 274.730469 Z M 98.074219 -31.167969 L 232.703125 112.292969 C 232.703125 121.402344 225.320312 128.785156 216.207031 128.785156 C 207.097656 128.785156 199.714844 121.402344 199.714844 112.292969 C 199.714844 103.179688 207.097656 95.796875 216.207031 95.796875 C 225.320312 95.796875 232.703125 103.179688 232.703125 112.292969 Z M 98.074219 -31.167969 "/>
</clipPath>
<clipPath id="clip85">
  <path d="M 145 14 L 263 14 L 263 159 L 145 159 Z M 145 14 "/>
</clipPath>
<clipPath id="clip86">
  <path d="M 58.894531 -2.464844 L 349.882812 -2.464844 L 349.882812 176.273438 L 58.894531 176.273438 Z M 58.894531 -2.464844 L 209.070312 61.519531 C 209.070312 70.628906 201.683594 78.015625 192.574219 78.015625 C 183.460938 78.015625 176.078125 70.628906 176.078125 61.519531 C 176.078125 52.40625 183.460938 45.023438 192.574219 45.023438 C 201.683594 45.023438 209.070312 52.40625 209.070312 61.519531 Z M 58.894531 -2.464844 "/>
</clipPath>
<clipPath id="clip87">
  <path d="M 58.894531 -2.464844 L 349.882812 -2.464844 L 349.882812 176.273438 L 58.894531 176.273438 Z M 58.894531 -2.464844 L 232.703125 112.292969 C 232.703125 121.402344 225.320312 128.785156 216.207031 128.785156 C 207.097656 128.785156 199.714844 121.402344 199.714844 112.292969 C 199.714844 103.179688 207.097656 95.796875 216.207031 95.796875 C 225.320312 95.796875 232.703125 103.179688 232.703125 112.292969 Z M 58.894531 -2.464844 "/>
</clipPath>
</defs>
<g id="surface746">
<g clip-path="url(#clip1)" clip-rule="nonzero">
<g clip-path="url(#clip2)" clip-rule="evenodd">
<g clip-path="url(#clip3)" clip-rule="evenodd">
<path style="fill:none;stroke-width:0.0229411;stroke-linecap:butt;stroke-linejoin:miter;stroke:rgb(17.96875%,20.3125%,21.09375%);stroke-opacity:0.8;stroke-miterlimit:10;" d="M 4.358638 1.878103 L 3.903446 1.616418 " transform="matrix(143.809346,0,0,143.809346,-63.750383,-2.272381)"/>
</g>
</g>
</g>
<g clip-path="url(#clip4)" clip-rule="nonzero">
<g clip-path="url(#clip5)" clip-rule="evenodd">
<g clip-path="url(#clip6)" clip-rule="evenodd">
<path style="fill:none;stroke-width:0.0229411;stroke-linecap:butt;stroke-linejoin:miter;stroke:rgb(17.96875%,20.3125%,21.09375%);stroke-opacity:0.8;stroke-miterlimit:10;" d="M 4.315938 0.983663 L 4.199655 1.264471 " transform="matrix(143.809346,0,0,143.809346,-63.750383,-2.272381)"/>
</g>
</g>
</g>
<g clip-path="url(#clip7)" clip-rule="nonzero">
<g clip-path="url(#clip8)" clip-rule="evenodd">
<g clip-path="url(#clip9)" clip-rule="evenodd">
<path style="fill:none;stroke-width:0.0229411;stroke-linecap:butt;stroke-linejoin:miter;stroke:rgb(17.96875%,20.3125%,21.09375%);stroke-opacity:0.8;stroke-miterlimit:10;" d="M 4.199655 1.264471 L 3.903446 1.616418 " transform="matrix(143.809346,0,0,143.809346,-63.750383,-2.272381)"/>
</g>
</g>
</g>
<g clip-path="url(#clip10)" clip-rule="nonzero">
<g clip-path="url(#clip11)" clip-rule="evenodd">
<g clip-path="url(#clip12)" clip-rule="evenodd">
<path style="fill:none;stroke-width:0.0229411;stroke-linecap:butt;stroke-linejoin:miter;stroke:rgb(17.96875%,20.3125%,21.09375%);stroke-opacity:0.8;stroke-miterlimit:10;" d="M 3.903446 1.616418 L 4.142314 2.13126 " transform="matrix(143.809346,0,0,143.809346,-63.750383,-2.272381)"/>
</g>
</g>
</g>
<g clip-path="url(#clip13)" clip-rule="nonzero">
<g clip-path="url(#clip14)" clip-rule="evenodd">
<g clip-path="url(#clip15)" clip-rule="evenodd">
<path style="fill:none;stroke-width:0.0229411;stroke-linecap:butt;stroke-linejoin:miter;stroke:rgb(17.96875%,20.3125%,21.09375%);stroke-opacity:0.8;stroke-miterlimit:10;" d="M 3.903446 1.616418 L 2.86469 1.107443 " transform="matrix(143.809346,0,0,143.809346,-63.750383,-2.272381)"/>
</g>
</g>
</g>
<g clip-path="url(#clip16)" clip-rule="nonzero">
<g clip-path="url(#clip17)" clip-rule="evenodd">
<g clip-path="url(#clip18)" clip-rule="evenodd">
<path style="fill:none;stroke-width:0.0229411;stroke-linecap:butt;stroke-linejoin:miter;stroke:rgb(17.96875%,20.3125%,21.09375%);stroke-opacity:0.8;stroke-miterlimit:10;" d="M 2.357997 3.052184 L 2.483407 3.59628 " transform="matrix(143.809346,0,0,143.809346,-63.750383,-2.272381)"/>
</g>
</g>
</g>
<g clip-path="url(#clip19)" clip-rule="nonzero">
<g clip-path="url(#clip20)" clip-rule="evenodd">
<g clip-path="url(#clip21)" clip-rule="evenodd">
<path style="fill:none;stroke-width:0.0229411;stroke-linecap:butt;stroke-linejoin:miter;stroke:rgb(17.96875%,20.3125%,21.09375%);stroke-opacity:0.8;stroke-miterlimit:10;" d="M 2.357997 3.052184 L 1.902342 3.21774 " transform="matrix(143.809346,0,0,143.809346,-63.750383,-2.272381)"/>
</g>
</g>
</g>
<g clip-path="url(#clip22)" clip-rule="nonzero">
<g clip-path="url(#clip23)" clip-rule="evenodd">
<g clip-path="url(#clip24)" clip-rule="evenodd">
<path style="fill:none;stroke-width:0.0229411;stroke-linecap:butt;stroke-linejoin:miter;stroke:rgb(17.96875%,20.3125%,21.09375%);stroke-opacity:0.8;stroke-miterlimit:10;" d="M 2.357997 3.052184 L 2.520511 2.195907 " transform="matrix(143.809346,0,0,143.809346,-63.750383,-2.272381)"/>
</g>
</g>
</g>
<g clip-path="url(#clip25)" clip-rule="nonzero">
<g clip-path="url(#clip26)" clip-rule="evenodd">
<g clip-path="url(#clip27)" clip-rule="evenodd">
<path style="fill:none;stroke-width:0.0229411;stroke-linecap:butt;stroke-linejoin:miter;stroke:rgb(17.96875%,20.3125%,21.09375%);stroke-opacity:0.8;stroke-miterlimit:10;" d="M 1.250003 3.050228 L 0.861359 2.594275 " transform="matrix(143.809346,0,0,143.809346,-63.750383,-2.272381)"/>
</g>
</g>
</g>
<g clip-path="url(#clip28)" clip-rule="nonzero">
<g clip-path="url(#clip29)" clip-rule="evenodd">
<g clip-path="url(#clip30)" clip-rule="evenodd">
<path style="fill:none;stroke-width:0.0229411;stroke-linecap:butt;stroke-linejoin:miter;stroke:rgb(17.96875%,20.3125%,21.09375%);stroke-opacity:0.8;stroke-miterlimit:10;" d="M 1.250003 3.050228 L 1.902342 3.21774 " transform="matrix(143.809346,0,0,143.809346,-63.750383,-2.272381)"/>
</g>
</g>
</g>
<g clip-path="url(#clip31)" clip-rule="nonzero">
<g clip-path="url(#clip32)" clip-rule="evenodd">
<g clip-path="url(#clip33)" clip-rule="evenodd">
<path style="fill:none;stroke-width:0.0229411;stroke-linecap:butt;stroke-linejoin:miter;stroke:rgb(17.96875%,20.3125%,21.09375%);stroke-opacity:0.8;stroke-miterlimit:10;" d="M 1.250003 3.050228 L 1.418466 3.342879 " transform="matrix(143.809346,0,0,143.809346,-63.750383,-2.272381)"/>
</g>
</g>
</g>
<g clip-path="url(#clip34)" clip-rule="nonzero">
<g clip-path="url(#clip35)" clip-rule="evenodd">
<g clip-path="url(#clip36)" clip-rule="evenodd">
<path style="fill:none;stroke-width:0.0229411;stroke-linecap:butt;stroke-linejoin:miter;stroke:rgb(17.96875%,20.3125%,21.09375%);stroke-opacity:0.8;stroke-miterlimit:10;" d="M 2.071104 2.598295 L 1.902342 3.21774 " transform="matrix(143.809346,0,0,143.809346,-63.750383,-2.272381)"/>
</g>
</g>
</g>
<g clip-path="url(#clip37)" clip-rule="nonzero">
<g clip-path="url(#clip38)" clip-rule="evenodd">
<g clip-path="url(#clip39)" clip-rule="evenodd">
<path style="fill:none;stroke-width:0.0229411;stroke-linecap:butt;stroke-linejoin:miter;stroke:rgb(17.96875%,20.3125%,21.09375%);stroke-opacity:0.8;stroke-miterlimit:10;" d="M 2.071104 2.598295 L 2.520511 2.195907 " transform="matrix(143.809346,0,0,143.809346,-63.750383,-2.272381)"/>
</g>
</g>
</g>
<g clip-path="url(#clip40)" clip-rule="nonzero">
<g clip-path="url(#clip41)" clip-rule="evenodd">
<g clip-path="url(#clip42)" clip-rule="evenodd">
<path style="fill:none;stroke-width:0.0229411;stroke-linecap:butt;stroke-linejoin:miter;stroke:rgb(17.96875%,20.3125%,21.09375%);stroke-opacity:0.8;stroke-miterlimit:10;" d="M 2.65225 3.713242 L 3.308202 3.760207 " transform="matrix(143.809346,0,0,143.809346,-63.750383,-2.272381)"/>
</g>
</g>
</g>
<g clip-path="url(#clip43)" clip-rule="nonzero">
<g clip-path="url(#clip44)" clip-rule="evenodd">
<g clip-path="url(#clip45)" clip-rule="evenodd">
<path style="fill:none;stroke-width:0.0229411;stroke-linecap:butt;stroke-linejoin:miter;stroke:rgb(17.96875%,20.3125%,21.09375%);stroke-opacity:0.8;stroke-miterlimit:10;" d="M 2.65225 3.713242 L 2.483407 3.59628 " transform="matrix(143.809346,0,0,143.809346,-63.750383,-2.272381)"/>
</g>
</g>
</g>
<g clip-path="url(#clip46)" clip-rule="nonzero">
<g clip-path="url(#clip47)" clip-rule="evenodd">
<g clip-path="url(#clip48)" clip-rule="evenodd">
<path style="fill:none;stroke-width:0.0229411;stroke-linecap:butt;stroke-linejoin:miter;stroke:rgb(17.96875%,20.3125%,21.09375%);stroke-opacity:0.8;stroke-miterlimit:10;" d="M 2.65225 3.713242 L 1.902342 3.21774 " transform="matrix(143.809346,0,0,143.809346,-63.750383,-2.272381)"/>
</g>
</g>
</g>
<g clip-path="url(#clip49)" clip-rule="nonzero">
<g clip-path="url(#clip50)" clip-rule="evenodd">
<g clip-path="url(#clip51)" clip-rule="evenodd">
<path style="fill:none;stroke-width:0.0229411;stroke-linecap:butt;stroke-linejoin:miter;stroke:rgb(17.96875%,20.3125%,21.09375%);stroke-opacity:0.8;stroke-miterlimit:10;" d="M 3.308202 3.760207 L 3.784554 3.593237 " transform="matrix(143.809346,0,0,143.809346,-63.750383,-2.272381)"/>
</g>
</g>
</g>
<g clip-path="url(#clip52)" clip-rule="nonzero">
<g clip-path="url(#clip53)" clip-rule="evenodd">
<g clip-path="url(#clip54)" clip-rule="evenodd">
<path style="fill:none;stroke-width:0.0229411;stroke-linecap:butt;stroke-linejoin:miter;stroke:rgb(17.96875%,20.3125%,21.09375%);stroke-opacity:0.8;stroke-miterlimit:10;" d="M 4.086767 3.405788 L 3.784554 3.593237 " transform="matrix(143.809346,0,0,143.809346,-63.750383,-2.272381)"/>
</g>
</g>
</g>
<g clip-path="url(#clip55)" clip-rule="nonzero">
<g clip-path="url(#clip56)" clip-rule="evenodd">
<g clip-path="url(#clip57)" clip-rule="evenodd">
<path style="fill:none;stroke-width:0.0229411;stroke-linecap:butt;stroke-linejoin:miter;stroke:rgb(17.96875%,20.3125%,21.09375%);stroke-opacity:0.8;stroke-miterlimit:10;" d="M 2.884491 2.207723 L 2.520511 2.195907 " transform="matrix(143.809346,0,0,143.809346,-63.750383,-2.272381)"/>
</g>
</g>
</g>
<g clip-path="url(#clip58)" clip-rule="nonzero">
<g clip-path="url(#clip59)" clip-rule="evenodd">
<g clip-path="url(#clip60)" clip-rule="evenodd">
<path style="fill:none;stroke-width:0.0229411;stroke-linecap:butt;stroke-linejoin:miter;stroke:rgb(17.96875%,20.3125%,21.09375%);stroke-opacity:0.8;stroke-miterlimit:10;" d="M 0.861359 2.594275 L 0.700148 2.253627 " transform="matrix(143.809346,0,0,143.809346,-63.750383,-2.272381)"/>
</g>
</g>
</g>
<g clip-path="url(#clip61)" clip-rule="nonzero">
<g clip-path="url(#clip62)" clip-rule="evenodd">
<g clip-path="url(#clip63)" clip-rule="evenodd">
<path style="fill:none;stroke-width:0.0229411;stroke-linecap:butt;stroke-linejoin:miter;stroke:rgb(17.96875%,20.3125%,21.09375%);stroke-opacity:0.8;stroke-miterlimit:10;" d="M 1.902342 3.21774 L 1.418466 3.342879 " transform="matrix(143.809346,0,0,143.809346,-63.750383,-2.272381)"/>
</g>
</g>
</g>
<g clip-path="url(#clip64)" clip-rule="nonzero">
<g clip-path="url(#clip65)" clip-rule="evenodd">
<g clip-path="url(#clip66)" clip-rule="evenodd">
<path style="fill:none;stroke-width:0.0229411;stroke-linecap:butt;stroke-linejoin:miter;stroke:rgb(17.96875%,20.3125%,21.09375%);stroke-opacity:0.8;stroke-miterlimit:10;" d="M 2.520511 2.195907 L 2.86469 1.107443 " transform="matrix(143.809346,0,0,143.809346,-63.750383,-2.272381)"/>
</g>
</g>
</g>
<g clip-path="url(#clip67)" clip-rule="nonzero">
<g clip-path="url(#clip68)" clip-rule="evenodd">
<g clip-path="url(#clip69)" clip-rule="evenodd">
<path style="fill:none;stroke-width:0.0229411;stroke-linecap:butt;stroke-linejoin:miter;stroke:rgb(17.96875%,20.3125%,21.09375%);stroke-opacity:0.8;stroke-miterlimit:10;" d="M 2.86469 1.107443 L 2.952398 0.46969 " transform="matrix(143.809346,0,0,143.809346,-63.750383,-2.272381)"/>
</g>
</g>
</g>
<g clip-path="url(#clip70)" clip-rule="nonzero">
<g clip-path="url(#clip71)" clip-rule="evenodd">
<g clip-path="url(#clip72)" clip-rule="evenodd">
<path style="fill:none;stroke-width:0.0229411;stroke-linecap:butt;stroke-linejoin:miter;stroke:rgb(17.96875%,20.3125%,21.09375%);stroke-opacity:0.8;stroke-miterlimit:10;" d="M 2.86469 1.107443 L 1.946726 0.796647 " transform="matrix(143.809346,0,0,143.809346,-63.750383,-2.272381)"/>
</g>
</g>
</g>
<g clip-path="url(#clip73)" clip-rule="nonzero">
<g clip-path="url(#clip74)" clip-rule="evenodd">
<g clip-path="url(#clip75)" clip-rule="evenodd">
<path style="fill:none;stroke-width:0.0229411;stroke-linecap:butt;stroke-linejoin:miter;stroke:rgb(17.96875%,20.3125%,21.09375%);stroke-opacity:0.8;stroke-miterlimit:10;" d="M 2.86469 1.107443 L 3.224052 0.781436 " transform="matrix(143.809346,0,0,143.809346,-63.750383,-2.272381)"/>
</g>
</g>
</g>
<g clip-path="url(#clip76)" clip-rule="nonzero">
<g clip-path="url(#clip77)" clip-rule="evenodd">
<g clip-path="url(#clip78)" clip-rule="evenodd">
<path style="fill:none;stroke-width:0.0229411;stroke-linecap:butt;stroke-linejoin:miter;stroke:rgb(17.96875%,20.3125%,21.09375%);stroke-opacity:0.8;stroke-miterlimit:10;" d="M 2.86469 1.107443 L 2.641684 0.751259 " transform="matrix(143.809346,0,0,143.809346,-63.750383,-2.272381)"/>
</g>
</g>
</g>
<g clip-path="url(#clip79)" clip-rule="nonzero">
<g clip-path="url(#clip80)" clip-rule="evenodd">
<g clip-path="url(#clip81)" clip-rule="evenodd">
<path style="fill:none;stroke-width:0.0229411;stroke-linecap:butt;stroke-linejoin:miter;stroke:rgb(17.96875%,20.3125%,21.09375%);stroke-opacity:0.8;stroke-miterlimit:10;" d="M 1.041502 1.064254 L 1.372072 0.928631 " transform="matrix(143.809346,0,0,143.809346,-63.750383,-2.272381)"/>
</g>
</g>
</g>
<g clip-path="url(#clip82)" clip-rule="nonzero">
<g clip-path="url(#clip83)" clip-rule="evenodd">
<g clip-path="url(#clip84)" clip-rule="evenodd">
<path style="fill:none;stroke-width:0.0229411;stroke-linecap:butt;stroke-linejoin:miter;stroke:rgb(17.96875%,20.3125%,21.09375%);stroke-opacity:0.8;stroke-miterlimit:10;" d="M 1.372072 0.928631 L 1.946726 0.796647 " transform="matrix(143.809346,0,0,143.809346,-63.750383,-2.272381)"/>
</g>
</g>
</g>
<g clip-path="url(#clip85)" clip-rule="nonzero">
<g clip-path="url(#clip86)" clip-rule="evenodd">
<g clip-path="url(#clip87)" clip-rule="evenodd">
<path style="fill:none;stroke-width:0.0229411;stroke-linecap:butt;stroke-linejoin:miter;stroke:rgb(17.96875%,20.3125%,21.09375%);stroke-opacity:0.8;stroke-miterlimit:10;" d="M 1.782392 0.443587 L 1.946726 0.796647 " transform="matrix(143.809346,0,0,143.809346,-63.750383,-2.272381)"/>
</g>
</g>
</g>
<path style="fill-rule:nonzero;fill:rgb(100%,92.941176%,43.529412%);fill-opacity:1;stroke-width:0.0229411;stroke-linecap:butt;stroke-linejoin:miter;stroke:rgb(60%,60%,60%);stroke-opacity:0.8;stroke-miterlimit:10;" d="M 0.114694 0.0000127411 C 0.114694 0.0633562 0.063356 0.114694 0.0000125877 0.114694 C -0.063358 0.114694 -0.114695 0.0633562 -0.114695 0.0000127411 C -0.114695 -0.0633578 -0.063358 -0.114695 0.0000125877 -0.114695 C 0.063356 -0.114695 0.114694 -0.0633578 0.114694 0.0000127411 Z M 0.114694 0.0000127411 " transform="matrix(143.809346,0,0,143.809346,563.06069,267.814574)"/>
<path style="fill-rule:nonzero;fill:rgb(100%,92.941176%,43.529412%);fill-opacity:1;stroke-width:0.0229411;stroke-linecap:butt;stroke-linejoin:miter;stroke:rgb(60%,60%,60%);stroke-opacity:0.8;stroke-miterlimit:10;" d="M 0.114712 -0.00000925793 C 0.114712 0.0633613 0.0633472 0.114699 0.00000375364 0.114699 C -0.0633397 0.114699 -0.114704 0.0633613 -0.114704 -0.00000925793 C -0.114704 -0.0633527 -0.0633397 -0.114717 0.00000375364 -0.114717 C 0.0633472 -0.114717 0.114712 -0.0633527 0.114712 -0.00000925793 Z M 0.114712 -0.00000925793 " transform="matrix(143.809346,0,0,143.809346,556.921335,139.188831)"/>
<path style="fill-rule:nonzero;fill:rgb(100%,92.941176%,43.529412%);fill-opacity:1;stroke-width:0.0229411;stroke-linecap:butt;stroke-linejoin:miter;stroke:rgb(60%,60%,60%);stroke-opacity:0.8;stroke-miterlimit:10;" d="M 0.114696 -0.00000121771 C 0.114696 0.0633422 0.0633588 0.114707 -0.0000118256 0.114707 C -0.0633552 0.114707 -0.114693 0.0633422 -0.114693 -0.00000121771 C -0.114693 -0.0633446 -0.0633552 -0.114709 -0.0000118256 -0.114709 C 0.0633588 -0.114709 0.114696 -0.0633446 0.114696 -0.00000121771 Z M 0.114696 -0.00000121771 " transform="matrix(143.809346,0,0,143.809346,540.200919,179.570488)"/>
<path style="fill-rule:nonzero;fill:rgb(100%,92.941176%,43.529412%);fill-opacity:1;stroke-width:0.0229411;stroke-linecap:butt;stroke-linejoin:miter;stroke:rgb(60%,60%,60%);stroke-opacity:0.8;stroke-miterlimit:10;" d="M 0.114696 -0.00000337491 C 0.114696 0.06334 0.0633581 0.114705 -0.0000124435 0.114705 C -0.0633559 0.114705 -0.114693 0.06334 -0.114693 -0.00000337491 C -0.114693 -0.0633468 -0.0633559 -0.114711 -0.0000124435 -0.114711 C 0.0633581 -0.114711 0.114696 -0.0633468 0.114696 -0.00000337491 Z M 0.114696 -0.00000337491 " transform="matrix(143.809346,0,0,143.809346,497.603352,230.184079)"/>
<path style="fill-rule:nonzero;fill:rgb(100%,92.941176%,43.529412%);fill-opacity:1;stroke-width:0.0229411;stroke-linecap:butt;stroke-linejoin:miter;stroke:rgb(60%,60%,60%);stroke-opacity:0.8;stroke-miterlimit:10;" d="M 0.114695 0.00000319822 C 0.114695 0.0633466 0.0633575 0.114711 -0.0000131168 0.114711 C -0.0633565 0.114711 -0.114694 0.0633466 -0.114694 0.00000319822 C -0.114694 -0.0633402 -0.0633565 -0.114705 -0.0000131168 -0.114705 C 0.0633575 -0.114705 0.114695 -0.0633402 0.114695 0.00000319822 Z M 0.114695 0.00000319822 " transform="matrix(143.809346,0,0,143.809346,531.955011,304.222196)"/>
<path style="fill-rule:nonzero;fill:rgb(55.294118%,82.745098%,78.039216%);fill-opacity:1;stroke-width:0.0229411;stroke-linecap:butt;stroke-linejoin:miter;stroke:rgb(60%,60%,60%);stroke-opacity:0.8;stroke-miterlimit:10;" d="M 0.114714 0.00000679806 C 0.114714 0.0633502 0.063349 0.114715 0.00000554869 0.114715 C -0.0633379 0.114715 -0.114703 0.0633502 -0.114703 0.00000679806 C -0.114703 -0.0633366 -0.0633379 -0.114701 0.00000554869 -0.114701 C 0.063349 -0.114701 0.114714 -0.0633366 0.114714 0.00000679806 Z M 0.114714 0.00000679806 " transform="matrix(143.809346,0,0,143.809346,275.350765,436.659179)"/>
<path style="fill-rule:nonzero;fill:rgb(55.294118%,82.745098%,78.039216%);fill-opacity:1;stroke-width:0.0229411;stroke-linecap:butt;stroke-linejoin:miter;stroke:rgb(60%,60%,60%);stroke-opacity:0.8;stroke-miterlimit:10;" d="M 0.114715 0.00000768793 C 0.114715 0.0633511 0.0633501 0.114716 0.00000666158 0.114716 C -0.0633368 0.114716 -0.114701 0.0633511 -0.114701 0.00000768793 C -0.114701 -0.0633629 -0.0633368 -0.1147 0.00000666158 -0.1147 C 0.0633501 -0.1147 0.114715 -0.0633629 0.114715 0.00000768793 Z M 0.114715 0.00000768793 " transform="matrix(143.809346,0,0,143.809346,116.010761,436.377801)"/>
<path style="fill-rule:nonzero;fill:rgb(55.294118%,82.745098%,78.039216%);fill-opacity:1;stroke-width:0.0229411;stroke-linecap:butt;stroke-linejoin:miter;stroke:rgb(60%,60%,60%);stroke-opacity:0.8;stroke-miterlimit:10;" d="M 0.114715 0.00000761763 C 0.114715 0.063351 0.0633499 0.114716 0.00000648761 0.114716 C -0.0633369 0.114716 -0.114702 0.063351 -0.114702 0.00000761763 C -0.114702 -0.063363 -0.0633369 -0.1147 0.00000648761 -0.1147 C 0.0633499 -0.1147 0.114715 -0.063363 0.114715 0.00000761763 Z M 0.114715 0.00000761763 " transform="matrix(143.809346,0,0,143.809346,234.092817,371.385623)"/>
<path style="fill-rule:nonzero;fill:rgb(55.294118%,82.745098%,78.039216%);fill-opacity:1;stroke-width:0.0229411;stroke-linecap:butt;stroke-linejoin:miter;stroke:rgb(60%,60%,60%);stroke-opacity:0.8;stroke-miterlimit:10;" d="M 0.114714 -0.000012922 C 0.114714 0.0633577 0.0633494 0.114695 0.00000597061 0.114695 C -0.0633374 0.114695 -0.114702 0.0633577 -0.114702 -0.000012922 C -0.114702 -0.0633563 -0.0633374 -0.114694 0.00000597061 -0.114694 C 0.0633494 -0.114694 0.114714 -0.0633563 0.114714 -0.000012922 Z M 0.114714 -0.000012922 " transform="matrix(143.809346,0,0,143.809346,317.66711,531.728421)"/>
<path style="fill-rule:nonzero;fill:rgb(55.294118%,82.745098%,78.039216%);fill-opacity:1;stroke-width:0.0229411;stroke-linecap:butt;stroke-linejoin:miter;stroke:rgb(60%,60%,60%);stroke-opacity:0.8;stroke-miterlimit:10;" d="M 0.114704 -0.00000948137 C 0.114704 0.0633611 0.0633395 0.114699 -0.00000394153 0.114699 C -0.0633474 0.114699 -0.114712 0.0633611 -0.114712 -0.00000948137 C -0.114712 -0.0633529 -0.0633474 -0.114718 -0.00000394153 -0.114718 C 0.0633395 -0.114718 0.114704 -0.0633529 0.114704 -0.00000948137 Z M 0.114704 -0.00000948137 " transform="matrix(143.809346,0,0,143.809346,412.000567,538.481832)"/>
<path style="fill-rule:nonzero;fill:rgb(55.294118%,82.745098%,78.039216%);fill-opacity:1;stroke-width:0.0229411;stroke-linecap:butt;stroke-linejoin:miter;stroke:rgb(60%,60%,60%);stroke-opacity:0.8;stroke-miterlimit:10;" d="M 0.114699 -0.00000562888 C 0.114699 0.0633378 0.0633617 0.114702 -0.00000892173 0.114702 C -0.0633523 0.114702 -0.114717 0.0633378 -0.114717 -0.00000562888 C -0.114717 -0.063349 -0.0633523 -0.114714 -0.00000892173 -0.114714 C 0.0633617 -0.114714 0.114699 -0.063349 0.114699 -0.00000562888 Z M 0.114699 -0.00000562888 " transform="matrix(143.809346,0,0,143.809346,293.388002,514.907059)"/>
<path style="fill-rule:nonzero;fill:rgb(55.294118%,82.745098%,78.039216%);fill-opacity:1;stroke-width:0.0229411;stroke-linecap:butt;stroke-linejoin:miter;stroke:rgb(60%,60%,60%);stroke-opacity:0.8;stroke-miterlimit:10;" d="M 0.11471 -0.00000535721 C 0.11471 0.0633381 0.0633455 0.114703 0.00000208384 0.114703 C -0.0633413 0.114703 -0.114706 0.0633381 -0.114706 -0.00000535721 C -0.114706 -0.0633488 -0.0633413 -0.114713 0.00000208384 -0.114713 C 0.0633455 -0.114713 0.11471 -0.0633488 0.11471 -0.00000535721 Z M 0.11471 -0.00000535721 " transform="matrix(143.809346,0,0,143.809346,523.964544,487.512489)"/>
<path style="fill-rule:nonzero;fill:rgb(55.294118%,82.745098%,78.039216%);fill-opacity:1;stroke-width:0.0229411;stroke-linecap:butt;stroke-linejoin:miter;stroke:rgb(60%,60%,60%);stroke-opacity:0.8;stroke-miterlimit:10;" d="M 0.114695 -0.0000066873 C 0.114695 0.0633367 0.0633571 0.114701 -0.0000135134 0.114701 C -0.0633569 0.114701 -0.114694 0.0633367 -0.114694 -0.0000066873 C -0.114694 -0.0633501 -0.0633569 -0.114715 -0.0000135134 -0.114715 C 0.0633571 -0.114715 0.114695 -0.0633501 0.114695 -0.0000066873 Z M 0.114695 -0.0000066873 " transform="matrix(143.809346,0,0,143.809346,351.06835,315.219712)"/>
<path style="fill-rule:nonzero;fill:rgb(55.294118%,82.745098%,78.039216%);fill-opacity:1;stroke-width:0.0229411;stroke-linecap:butt;stroke-linejoin:miter;stroke:rgb(60%,60%,60%);stroke-opacity:0.8;stroke-miterlimit:10;" d="M 0.114712 0.0000120172 C 0.114712 0.0633554 0.0633472 0.114693 0.00000382343 0.114693 C -0.0633396 0.114693 -0.114704 0.0633554 -0.114704 0.0000120172 C -0.114704 -0.0633586 -0.0633396 -0.114696 0.00000382343 -0.114696 C 0.0633472 -0.114696 0.114712 -0.0633586 0.114712 0.0000120172 Z M 0.114712 0.0000120172 " transform="matrix(143.809346,0,0,143.809346,60.120544,370.806866)"/>
<path style="fill-rule:nonzero;fill:rgb(55.294118%,82.745098%,78.039216%);fill-opacity:1;stroke-width:0.0229411;stroke-linecap:butt;stroke-linejoin:miter;stroke:rgb(60%,60%,60%);stroke-opacity:0.8;stroke-miterlimit:10;" d="M 0.114695 0.00000576149 C 0.114695 0.0633492 0.063358 0.114714 -0.0000125877 0.114714 C -0.063356 0.114714 -0.114694 0.0633492 -0.114694 0.00000576149 C -0.114694 -0.0633377 -0.063356 -0.114702 -0.0000125877 -0.114702 C 0.063358 -0.114702 0.114695 -0.0633377 0.114695 0.00000576149 Z M 0.114695 0.00000576149 " transform="matrix(143.809346,0,0,143.809346,36.93931,321.819484)"/>
<path style="fill-rule:nonzero;fill:rgb(55.294118%,82.745098%,78.039216%);fill-opacity:1;stroke-width:0.0229411;stroke-linecap:butt;stroke-linejoin:miter;stroke:rgb(60%,60%,60%);stroke-opacity:0.8;stroke-miterlimit:10;" d="M 0.114698 -0.00000136689 C 0.114698 0.063342 0.0633601 0.114707 -0.0000104488 0.114707 C -0.0633539 0.114707 -0.114719 0.063342 -0.114719 -0.00000136689 C -0.114719 -0.0633448 -0.0633539 -0.114709 -0.0000104488 -0.114709 C 0.0633601 -0.114709 0.114698 -0.0633448 0.114698 -0.00000136689 Z M 0.114698 -0.00000136689 " transform="matrix(143.809346,0,0,143.809346,209.825721,460.468947)"/>
<path style="fill-rule:nonzero;fill:rgb(55.294118%,82.745098%,78.039216%);fill-opacity:1;stroke-width:0.0229411;stroke-linecap:butt;stroke-linejoin:miter;stroke:rgb(60%,60%,60%);stroke-opacity:0.8;stroke-miterlimit:10;" d="M 0.114707 0.0000108099 C 0.114707 0.0633542 0.0633421 0.114719 -0.00000133321 0.114719 C -0.0633447 0.114719 -0.114709 0.0633542 -0.114709 0.0000108099 C -0.114709 -0.0633598 -0.0633447 -0.114697 -0.00000133321 -0.114697 C 0.0633421 -0.114697 0.114707 -0.0633598 0.114707 0.0000108099 Z M 0.114707 0.0000108099 " transform="matrix(143.809346,0,0,143.809346,140.238473,478.463289)"/>
<path style="fill-rule:nonzero;fill:rgb(55.294118%,82.745098%,78.039216%);fill-opacity:1;stroke-width:0.0229411;stroke-linecap:butt;stroke-linejoin:miter;stroke:rgb(60%,60%,60%);stroke-opacity:0.8;stroke-miterlimit:10;" d="M 0.11471 -0.00000359914 C 0.11471 0.0633398 0.0633451 0.114704 0.00000172231 0.114704 C -0.0633417 0.114704 -0.114706 0.0633398 -0.114706 -0.00000359914 C -0.114706 -0.063347 -0.0633417 -0.114712 0.00000172231 -0.114712 C 0.0633451 -0.114712 0.11471 -0.063347 0.11471 -0.00000359914 Z M 0.11471 -0.00000359914 " transform="matrix(143.809346,0,0,143.809346,480.503659,514.469268)"/>
<path style="fill-rule:nonzero;fill:rgb(55.294118%,82.745098%,78.039216%);fill-opacity:1;stroke-width:0.0229411;stroke-linecap:butt;stroke-linejoin:miter;stroke:rgb(60%,60%,60%);stroke-opacity:0.8;stroke-miterlimit:10;" d="M 0.114702 -0.00000633489 C 0.114702 0.0633371 0.0633375 0.114702 -0.00000587588 0.114702 C -0.0633493 0.114702 -0.114714 0.0633371 -0.114714 -0.00000633489 C -0.114714 -0.0633497 -0.0633493 -0.114714 -0.00000587588 -0.114714 C 0.0633375 -0.114714 0.114702 -0.0633497 0.114702 -0.00000633489 Z M 0.114702 -0.00000633489 " transform="matrix(143.809346,0,0,143.809346,298.723501,313.520442)"/>
<path style="fill-rule:nonzero;fill:rgb(100%,92.941176%,43.529412%);fill-opacity:1;stroke-width:0.0229411;stroke-linecap:butt;stroke-linejoin:miter;stroke:rgb(60%,60%,60%);stroke-opacity:0.8;stroke-miterlimit:10;" d="M 0.114695 0.0000126464 C 0.114695 0.0633561 0.063357 0.114694 -0.0000135297 0.114694 C -0.0633569 0.114694 -0.114694 0.0633561 -0.114694 0.0000126464 C -0.114694 -0.0633579 -0.0633569 -0.114695 -0.0000135297 -0.114695 C 0.063357 -0.114695 0.114695 -0.0633579 0.114695 0.0000126464 Z M 0.114695 0.0000126464 " transform="matrix(143.809346,0,0,143.809346,348.220696,156.986463)"/>
<path style="fill-rule:nonzero;fill:rgb(100%,92.941176%,43.529412%);fill-opacity:1;stroke-width:0.0229411;stroke-linecap:butt;stroke-linejoin:miter;stroke:rgb(60%,60%,60%);stroke-opacity:0.8;stroke-miterlimit:10;" d="M 0.114692 -0.0000105513 C 0.114692 0.06336 0.063355 0.114698 0.0000115774 0.114698 C -0.063359 0.114698 -0.114697 0.06336 -0.114697 -0.0000105513 C -0.114697 -0.063354 -0.063359 -0.114719 0.0000115774 -0.114719 C 0.063355 -0.114719 0.114692 -0.063354 0.114692 -0.0000105513 Z M 0.114692 -0.0000105513 " transform="matrix(143.809346,0,0,143.809346,86.025679,150.778861)"/>
<path style="fill-rule:nonzero;fill:rgb(100%,92.941176%,43.529412%);fill-opacity:1;stroke-width:0.0229411;stroke-linecap:butt;stroke-linejoin:miter;stroke:rgb(60%,60%,60%);stroke-opacity:0.8;stroke-miterlimit:10;" d="M 0.1147 0.000000803051 C 0.1147 0.0633442 0.0633628 0.114709 -0.00000778197 0.114709 C -0.0633512 0.114709 -0.114716 0.0633442 -0.114716 0.000000803051 C -0.114716 -0.0633426 -0.0633512 -0.114707 -0.00000778197 -0.114707 C 0.0633628 -0.114707 0.1147 -0.0633426 0.1147 0.000000803051 Z M 0.1147 0.000000803051 " transform="matrix(143.809346,0,0,143.809346,133.567525,131.273322)"/>
<path style="fill-rule:nonzero;fill:rgb(100%,92.941176%,43.529412%);fill-opacity:1;stroke-width:0.0229411;stroke-linecap:butt;stroke-linejoin:miter;stroke:rgb(60%,60%,60%);stroke-opacity:0.8;stroke-miterlimit:10;" d="M 0.114718 0.0000120703 C 0.114718 0.0633555 0.0633529 0.114693 0.00000947018 0.114693 C -0.0633611 0.114693 -0.114699 0.0633555 -0.114699 0.0000120703 C -0.114699 -0.0633585 -0.0633611 -0.114696 0.00000947018 -0.114696 C 0.0633529 -0.114696 0.114718 -0.0633585 0.114718 0.0000120703 Z M 0.114718 0.0000120703 " transform="matrix(143.809346,0,0,143.809346,360.830669,65.271702)"/>
<path style="fill-rule:nonzero;fill:rgb(100%,92.941176%,43.529412%);fill-opacity:1;stroke-width:0.0229411;stroke-linecap:butt;stroke-linejoin:miter;stroke:rgb(60%,60%,60%);stroke-opacity:0.8;stroke-miterlimit:10;" d="M 0.114718 0.00000948137 C 0.114718 0.0633529 0.063353 0.114718 0.00000958321 0.114718 C -0.063361 0.114718 -0.114698 0.0633529 -0.114698 0.00000948137 C -0.114698 -0.0633611 -0.063361 -0.114699 0.00000958321 -0.114699 C 0.063353 -0.114699 0.114718 -0.0633611 0.114718 0.00000948137 Z M 0.114718 0.00000948137 " transform="matrix(143.809346,0,0,143.809346,192.572841,61.518168)"/>
<path style="fill-rule:nonzero;fill:rgb(100%,92.941176%,43.529412%);fill-opacity:1;stroke-width:0.0229411;stroke-linecap:butt;stroke-linejoin:miter;stroke:rgb(60%,60%,60%);stroke-opacity:0.8;stroke-miterlimit:10;" d="M 0.114695 0.0000119181 C 0.114695 0.0633553 0.0633577 0.114693 -0.0000128475 0.114693 C -0.0633563 0.114693 -0.114694 0.0633553 -0.114694 0.0000119181 C -0.114694 -0.0633587 -0.0633563 -0.114696 -0.0000128475 -0.114696 C 0.0633577 -0.114696 0.114695 -0.0633587 0.114695 0.0000119181 Z M 0.114695 0.0000119181 " transform="matrix(143.809346,0,0,143.809346,216.208879,112.291255)"/>
<path style="fill-rule:nonzero;fill:rgb(100%,92.941176%,43.529412%);fill-opacity:1;stroke-width:0.0229411;stroke-linecap:butt;stroke-linejoin:miter;stroke:rgb(60%,60%,60%);stroke-opacity:0.8;stroke-miterlimit:10;" d="M 0.114701 -0.00000496578 C 0.114701 0.0633384 0.0633631 0.114703 -0.00000744076 0.114703 C -0.0633509 0.114703 -0.114716 0.0633384 -0.114716 -0.00000496578 C -0.114716 -0.0633484 -0.0633509 -0.114713 -0.00000744076 -0.114713 C 0.0633631 -0.114713 0.114701 -0.0633484 0.114701 -0.00000496578 Z M 0.114701 -0.00000496578 " transform="matrix(143.809346,0,0,143.809346,399.899508,110.106183)"/>
<path style="fill-rule:nonzero;fill:rgb(100%,92.941176%,43.529412%);fill-opacity:1;stroke-width:0.0229411;stroke-linecap:butt;stroke-linejoin:miter;stroke:rgb(60%,60%,60%);stroke-opacity:0.8;stroke-miterlimit:10;" d="M 0.114711 -0.00000678715 C 0.114711 0.0633366 0.0633465 0.114701 0.00000309429 0.114701 C -0.0633403 0.114701 -0.114705 0.0633366 -0.114705 -0.00000678715 C -0.114705 -0.0633502 -0.0633403 -0.114715 0.00000309429 -0.114715 C 0.0633465 -0.114715 0.114711 -0.0633502 0.114711 -0.00000678715 Z M 0.114711 -0.00000678715 " transform="matrix(143.809346,0,0,143.809346,316.147993,105.766601)"/>
</g>
</svg>
