<?xml version="1.0" encoding="UTF-8"?>
<svg xmlns="http://www.w3.org/2000/svg" xmlns:xlink="http://www.w3.org/1999/xlink" width="600pt" height="600pt" viewBox="0 0 600 600" version="1.1">
<defs>
<clipPath id="clip1">
  <path d="M 64 72.5 L 176 72.5 L 176 220.132812 L 64 220.132812 Z M 64 72.5 "/>
</clipPath>
<clipPath id="clip2">
  <path d="M -31.074219 72.5 L 270.691406 72.5 L 270.691406 220.132812 L -31.074219 220.132812 Z M -31.074219 72.5 L 127.628906 117.207031 C 127.628906 126.316406 120.242188 133.703125 111.132812 133.703125 C 102.019531 133.703125 94.636719 126.316406 94.636719 117.207031 C 94.636719 108.097656 102.019531 100.710938 111.132812 100.710938 C 120.242188 100.710938 127.628906 108.097656 127.628906 117.207031 Z M -31.074219 72.5 "/>
</clipPath>
<clipPath id="clip3">
  <path d="M -31.074219 72.5 L 270.691406 72.5 L 270.691406 220.132812 L -31.074219 220.132812 Z M -31.074219 72.5 L 144.984375 175.429688 C 144.984375 184.539062 137.597656 191.925781 128.488281 191.925781 C 119.378906 191.925781 111.992188 184.539062 111.992188 175.429688 C 111.992188 166.320312 119.378906 158.933594 128.488281 158.933594 C 137.597656 158.933594 144.984375 166.320312 144.984375 175.429688 Z M -31.074219 72.5 "/>
</clipPath>
<clipPath id="clip4">
  <path d="M 0 214 L 114 214 L 114 364 L 0 364 Z M 0 214 "/>
</clipPath>
<clipPath id="clip5">
  <path d="M -94.199219 189.132812 L 197.871094 189.132812 L 197.871094 388.132812 L -94.199219 388.132812 Z M -94.199219 189.132812 L 53.433594 316.515625 C 53.433594 325.625 46.050781 333.011719 36.9375 333.011719 C 27.828125 333.011719 20.445312 325.625 20.445312 316.515625 C 20.445312 307.40625 27.828125 300.019531 36.9375 300.019531 C 46.050781 300.019531 53.433594 307.40625 53.433594 316.515625 Z M -94.199219 189.132812 "/>
</clipPath>
<clipPath id="clip6">
  <path d="M -94.199219 189.132812 L 197.871094 189.132812 L 197.871094 388.132812 L -94.199219 388.132812 Z M -94.199219 189.132812 L 83.234375 260.753906 C 83.234375 269.863281 75.851562 277.25 66.738281 277.25 C 57.628906 277.25 50.246094 269.863281 50.246094 260.753906 C 50.246094 251.644531 57.628906 244.257812 66.738281 244.257812 C 75.851562 244.257812 83.234375 251.644531 83.234375 260.753906 Z M -94.199219 189.132812 "/>
</clipPath>
<clipPath id="clip7">
  <path d="M 20 128 L 176 128 L 176 308 L 20 308 Z M 20 128 "/>
</clipPath>
<clipPath id="clip8">
  <path d="M -53.984375 87.148438 L 249.207031 87.148438 L 249.207031 349.03125 L -53.984375 349.03125 Z M -53.984375 87.148438 L 83.234375 260.753906 C 83.234375 269.863281 75.851562 277.25 66.738281 277.25 C 57.628906 277.25 50.246094 269.863281 50.246094 260.753906 C 50.246094 251.644531 57.628906 244.257812 66.738281 244.257812 C 75.851562 244.257812 83.234375 251.644531 83.234375 260.753906 Z M -53.984375 87.148438 "/>
</clipPath>
<clipPath id="clip9">
  <path d="M -53.984375 87.148438 L 249.207031 87.148438 L 249.207031 349.03125 L -53.984375 349.03125 Z M -53.984375 87.148438 L 144.984375 175.429688 C 144.984375 184.539062 137.597656 191.925781 128.488281 191.925781 C 119.378906 191.925781 111.992188 184.539062 111.992188 175.429688 C 111.992188 166.320312 119.378906 158.933594 128.488281 158.933594 C 137.597656 158.933594 144.984375 166.320312 144.984375 175.429688 Z M -53.984375 87.148438 "/>
</clipPath>
<clipPath id="clip10">
  <path d="M 70.035156 127 L 134.734375 127 L 134.734375 223 L 70.035156 223 Z M 70.035156 127 "/>
</clipPath>
<clipPath id="clip11">
  <path d="M 70.035156 26.148438 L 134.734375 26.148438 L 134.734375 323.644531 L 70.035156 323.644531 Z M 70.035156 26.148438 L 144.984375 175.429688 C 144.984375 184.539062 137.597656 191.925781 128.488281 191.925781 C 119.378906 191.925781 111.992188 184.539062 111.992188 175.429688 C 111.992188 166.320312 119.378906 158.933594 128.488281 158.933594 C 137.597656 158.933594 144.984375 166.320312 144.984375 175.429688 Z M 70.035156 26.148438 "/>
</clipPath>
<clipPath id="clip12">
  <path d="M 70.035156 26.148438 L 134.734375 26.148438 L 134.734375 323.644531 L 70.035156 323.644531 Z M 70.035156 26.148438 L 92.78125 174.367188 C 92.78125 183.476562 85.394531 190.863281 76.285156 190.863281 C 67.171875 190.863281 59.789062 183.476562 59.789062 174.367188 C 59.789062 165.257812 67.171875 157.871094 76.285156 157.871094 C 85.394531 157.871094 92.78125 165.257812 92.78125 174.367188 Z M 70.035156 26.148438 "/>
</clipPath>
<clipPath id="clip13">
  <path d="M 91.003906 97 L 295.335938 97 L 295.335938 223 L 91.003906 223 Z M 91.003906 97 "/>
</clipPath>
<clipPath id="clip14">
  <path d="M 91.003906 -0.125 L 295.335938 -0.125 L 295.335938 319.585938 L 91.003906 319.585938 Z M 91.003906 -0.125 L 144.984375 175.429688 C 144.984375 184.539062 137.597656 191.925781 128.488281 191.925781 C 119.378906 191.925781 111.992188 184.539062 111.992188 175.429688 C 111.992188 166.320312 119.378906 158.933594 128.488281 158.933594 C 137.597656 158.933594 144.984375 166.320312 144.984375 175.429688 Z M 91.003906 -0.125 "/>
</clipPath>
<clipPath id="clip15">
  <path d="M 91.003906 -0.125 L 295.335938 -0.125 L 295.335938 319.585938 L 91.003906 319.585938 Z M 91.003906 -0.125 L 274.351562 144.035156 C 274.351562 153.144531 266.964844 160.53125 257.855469 160.53125 C 248.746094 160.53125 241.359375 153.144531 241.359375 144.035156 C 241.359375 134.925781 248.746094 127.539062 257.855469 127.539062 C 266.964844 127.539062 274.351562 134.925781 274.351562 144.035156 Z M 91.003906 -0.125 "/>
</clipPath>
<clipPath id="clip16">
  <path d="M 454 159 L 600 159 L 600 288 L 454 288 Z M 454 159 "/>
</clipPath>
<clipPath id="clip17">
  <path d="M 426.734375 76.609375 L 637.375 76.609375 L 637.375 370.777344 L 426.734375 370.777344 Z M 426.734375 76.609375 L 517.546875 206.269531 C 517.546875 215.378906 510.160156 222.765625 501.050781 222.765625 C 491.941406 222.765625 484.554688 215.378906 484.554688 206.269531 C 484.554688 197.15625 491.941406 189.773438 501.050781 189.773438 C 510.160156 189.773438 517.546875 197.15625 517.546875 206.269531 Z M 426.734375 76.609375 "/>
</clipPath>
<clipPath id="clip18">
  <path d="M 426.734375 76.609375 L 637.375 76.609375 L 637.375 370.777344 L 426.734375 370.777344 Z M 426.734375 76.609375 L 579.554688 241.121094 C 579.554688 250.230469 572.171875 257.617188 563.0625 257.617188 C 553.949219 257.617188 546.566406 250.230469 546.566406 241.121094 C 546.566406 232.007812 553.949219 224.625 563.0625 224.625 C 572.171875 224.625 579.554688 232.007812 579.554688 241.121094 Z M 426.734375 76.609375 "/>
</clipPath>
<clipPath id="clip19">
  <path d="M 411 159 L 548 159 L 548 349 L 411 349 Z M 411 159 "/>
</clipPath>
<clipPath id="clip20">
  <path d="M 322.554688 143.640625 L 636.597656 143.640625 L 636.597656 364.625 L 322.554688 364.625 Z M 322.554688 143.640625 L 517.546875 206.269531 C 517.546875 215.378906 510.160156 222.765625 501.050781 222.765625 C 491.941406 222.765625 484.554688 215.378906 484.554688 206.269531 C 484.554688 197.15625 491.941406 189.773438 501.050781 189.773438 C 510.160156 189.773438 517.546875 197.15625 517.546875 206.269531 Z M 322.554688 143.640625 "/>
</clipPath>
<clipPath id="clip21">
  <path d="M 322.554688 143.640625 L 636.597656 143.640625 L 636.597656 364.625 L 322.554688 364.625 Z M 322.554688 143.640625 L 474.601562 302 C 474.601562 311.109375 467.214844 318.492188 458.105469 318.492188 C 448.996094 318.492188 441.609375 311.109375 441.609375 302 C 441.609375 292.886719 448.996094 285.503906 458.105469 285.503906 C 467.214844 285.503906 474.601562 292.886719 474.601562 302 Z M 322.554688 143.640625 "/>
</clipPath>
<clipPath id="clip22">
  <path d="M 372 89 L 548 89 L 548 253 L 372 253 Z M 372 89 "/>
</clipPath>
<clipPath id="clip23">
  <path d="M 321.816406 22.765625 L 598.191406 22.765625 L 598.191406 320.03125 L 321.816406 320.03125 Z M 321.816406 22.765625 L 517.546875 206.269531 C 517.546875 215.378906 510.160156 222.765625 501.050781 222.765625 C 491.941406 222.765625 484.554688 215.378906 484.554688 206.269531 C 484.554688 197.15625 491.941406 189.773438 501.050781 189.773438 C 510.160156 189.773438 517.546875 197.15625 517.546875 206.269531 Z M 321.816406 22.765625 "/>
</clipPath>
<clipPath id="clip24">
  <path d="M 321.816406 22.765625 L 598.191406 22.765625 L 598.191406 320.03125 L 321.816406 320.03125 Z M 321.816406 22.765625 L 435.457031 136.53125 C 435.457031 145.640625 428.070312 153.027344 418.960938 153.027344 C 409.851562 153.027344 402.464844 145.640625 402.464844 136.53125 C 402.464844 127.417969 409.851562 120.035156 418.960938 120.035156 C 428.070312 120.035156 435.457031 127.417969 435.457031 136.53125 Z M 321.816406 22.765625 "/>
</clipPath>
<clipPath id="clip25">
  <path d="M 280 367 L 433 367 L 433 555 L 280 555 Z M 280 367 "/>
</clipPath>
<clipPath id="clip26">
  <path d="M 200.429688 334.039062 L 511.96875 334.039062 L 511.96875 587.839844 L 200.429688 587.839844 Z M 200.429688 334.039062 L 401.976562 413.714844 C 401.976562 422.824219 394.589844 430.207031 385.480469 430.207031 C 376.371094 430.207031 368.984375 422.824219 368.984375 413.714844 C 368.984375 404.601562 376.371094 397.21875 385.480469 397.21875 C 394.589844 397.21875 401.976562 404.601562 401.976562 413.714844 Z M 200.429688 334.039062 "/>
</clipPath>
<clipPath id="clip27">
  <path d="M 200.429688 334.039062 L 511.96875 334.039062 L 511.96875 587.839844 L 200.429688 587.839844 Z M 200.429688 334.039062 L 343.417969 508.167969 C 343.417969 517.277344 336.03125 524.660156 326.921875 524.660156 C 317.8125 524.660156 310.425781 517.277344 310.425781 508.167969 C 310.425781 499.054688 317.8125 491.671875 326.921875 491.671875 C 336.03125 491.671875 343.417969 499.054688 343.417969 508.167969 Z M 200.429688 334.039062 "/>
</clipPath>
<clipPath id="clip28">
  <path d="M 338 255 L 505 255 L 505 461 L 338 461 Z M 338 255 "/>
</clipPath>
<clipPath id="clip29">
  <path d="M 260.65625 219.695312 L 582.925781 219.695312 L 582.925781 496.015625 L 260.65625 496.015625 Z M 260.65625 219.695312 L 401.976562 413.714844 C 401.976562 422.824219 394.589844 430.207031 385.480469 430.207031 C 376.371094 430.207031 368.984375 422.824219 368.984375 413.714844 C 368.984375 404.601562 376.371094 397.21875 385.480469 397.21875 C 394.589844 397.21875 401.976562 404.601562 401.976562 413.714844 Z M 260.65625 219.695312 "/>
</clipPath>
<clipPath id="clip30">
  <path d="M 260.65625 219.695312 L 582.925781 219.695312 L 582.925781 496.015625 L 260.65625 496.015625 Z M 260.65625 219.695312 L 474.601562 302 C 474.601562 311.109375 467.214844 318.492188 458.105469 318.492188 C 448.996094 318.492188 441.609375 311.109375 441.609375 302 C 441.609375 292.886719 448.996094 285.503906 458.105469 285.503906 C 467.214844 285.503906 474.601562 292.886719 474.601562 302 Z M 260.65625 219.695312 "/>
</clipPath>
<clipPath id="clip31">
  <path d="M 338 322 L 459 322 L 459 461 L 338 461 Z M 338 322 "/>
</clipPath>
<clipPath id="clip32">
  <path d="M 258.058594 291.339844 L 539.566406 291.339844 L 539.566406 491.867188 L 258.058594 491.867188 Z M 258.058594 291.339844 L 401.976562 413.714844 C 401.976562 422.824219 394.589844 430.207031 385.480469 430.207031 C 376.371094 430.207031 368.984375 422.824219 368.984375 413.714844 C 368.984375 404.601562 376.371094 397.21875 385.480469 397.21875 C 394.589844 397.21875 401.976562 404.601562 401.976562 413.714844 Z M 258.058594 291.339844 "/>
</clipPath>
<clipPath id="clip33">
  <path d="M 258.058594 291.339844 L 539.566406 291.339844 L 539.566406 491.867188 L 258.058594 491.867188 Z M 258.058594 291.339844 L 428.640625 369.496094 C 428.640625 378.605469 421.257812 385.992188 412.148438 385.992188 C 403.035156 385.992188 395.652344 378.605469 395.652344 369.496094 C 395.652344 360.386719 403.035156 353 412.148438 353 C 421.257812 353 428.640625 360.386719 428.640625 369.496094 Z M 258.058594 291.339844 "/>
</clipPath>
<clipPath id="clip34">
  <path d="M 394 173.6875 L 505 173.6875 L 505 329.40625 L 394 329.40625 Z M 394 173.6875 "/>
</clipPath>
<clipPath id="clip35">
  <path d="M 294.859375 173.6875 L 604.328125 173.6875 L 604.328125 329.40625 L 294.859375 329.40625 Z M 294.859375 173.6875 L 457.578125 201.097656 C 457.578125 210.207031 450.195312 217.59375 441.085938 217.59375 C 431.972656 217.59375 424.589844 210.207031 424.589844 201.097656 C 424.589844 191.988281 431.972656 184.601562 441.085938 184.601562 C 450.195312 184.601562 457.578125 191.988281 457.578125 201.097656 Z M 294.859375 173.6875 "/>
</clipPath>
<clipPath id="clip36">
  <path d="M 294.859375 173.6875 L 604.328125 173.6875 L 604.328125 329.40625 L 294.859375 329.40625 Z M 294.859375 173.6875 L 474.601562 302 C 474.601562 311.109375 467.214844 318.492188 458.105469 318.492188 C 448.996094 318.492188 441.609375 311.109375 441.609375 302 C 441.609375 292.886719 448.996094 285.503906 458.105469 285.503906 C 467.214844 285.503906 474.601562 292.886719 474.601562 302 Z M 294.859375 173.6875 "/>
</clipPath>
<clipPath id="clip37">
  <path d="M 372 89 L 488 89 L 488 248 L 372 248 Z M 372 89 "/>
</clipPath>
<clipPath id="clip38">
  <path d="M 278.539062 86.242188 L 581.503906 86.242188 L 581.503906 251.382812 L 278.539062 251.382812 Z M 278.539062 86.242188 L 457.578125 201.097656 C 457.578125 210.207031 450.195312 217.59375 441.085938 217.59375 C 431.972656 217.59375 424.589844 210.207031 424.589844 201.097656 C 424.589844 191.988281 431.972656 184.601562 441.085938 184.601562 C 450.195312 184.601562 457.578125 191.988281 457.578125 201.097656 Z M 278.539062 86.242188 "/>
</clipPath>
<clipPath id="clip39">
  <path d="M 278.539062 86.242188 L 581.503906 86.242188 L 581.503906 251.382812 L 278.539062 251.382812 Z M 278.539062 86.242188 L 435.457031 136.53125 C 435.457031 145.640625 428.070312 153.027344 418.960938 153.027344 C 409.851562 153.027344 402.464844 145.640625 402.464844 136.53125 C 402.464844 127.417969 409.851562 120.035156 418.960938 120.035156 C 428.070312 120.035156 435.457031 127.417969 435.457031 136.53125 Z M 278.539062 86.242188 "/>
</clipPath>
<clipPath id="clip40">
  <path d="M 499 305.710938 L 598 305.710938 L 598 418.734375 L 499 418.734375 Z M 499 305.710938 "/>
</clipPath>
<clipPath id="clip41">
  <path d="M 397.882812 305.710938 L 699.230469 305.710938 L 699.230469 418.734375 L 397.882812 418.734375 Z M 397.882812 305.710938 L 562.359375 317.789062 C 562.359375 326.898438 554.976562 334.285156 545.863281 334.285156 C 536.753906 334.285156 529.367188 326.898438 529.367188 317.789062 C 529.367188 308.679688 536.753906 301.292969 545.863281 301.292969 C 554.976562 301.292969 562.359375 308.679688 562.359375 317.789062 Z M 397.882812 305.710938 "/>
</clipPath>
<clipPath id="clip42">
  <path d="M 397.882812 305.710938 L 699.230469 305.710938 L 699.230469 418.734375 L 397.882812 418.734375 Z M 397.882812 305.710938 L 567.75 406.660156 C 567.75 415.769531 560.367188 423.15625 551.253906 423.15625 C 542.144531 423.15625 534.761719 415.769531 534.761719 406.660156 C 534.761719 397.546875 542.144531 390.164062 551.253906 390.164062 C 560.367188 390.164062 567.75 397.546875 567.75 406.660156 Z M 397.882812 305.710938 "/>
</clipPath>
<clipPath id="clip43">
  <path d="M 499 206.09375 L 600 206.09375 L 600 352.8125 L 499 352.8125 Z M 499 206.09375 "/>
</clipPath>
<clipPath id="clip44">
  <path d="M 401.132812 206.09375 L 707.789062 206.09375 L 707.789062 352.8125 L 401.132812 352.8125 Z M 401.132812 206.09375 L 562.359375 317.789062 C 562.359375 326.898438 554.976562 334.285156 545.863281 334.285156 C 536.753906 334.285156 529.367188 326.898438 529.367188 317.789062 C 529.367188 308.679688 536.753906 301.292969 545.863281 301.292969 C 554.976562 301.292969 562.359375 308.679688 562.359375 317.789062 Z M 401.132812 206.09375 "/>
</clipPath>
<clipPath id="clip45">
  <path d="M 401.132812 206.09375 L 707.789062 206.09375 L 707.789062 352.8125 L 401.132812 352.8125 Z M 401.132812 206.09375 L 579.554688 241.121094 C 579.554688 250.230469 572.171875 257.617188 563.0625 257.617188 C 553.949219 257.617188 546.566406 250.230469 546.566406 241.121094 C 546.566406 232.007812 553.949219 224.625 563.0625 224.625 C 572.171875 224.625 579.554688 232.007812 579.554688 241.121094 Z M 401.132812 206.09375 "/>
</clipPath>
<clipPath id="clip46">
  <path d="M 429.136719 255 L 574.828125 255 L 574.828125 365 L 429.136719 365 Z M 429.136719 255 "/>
</clipPath>
<clipPath id="clip47">
  <path d="M 429.136719 156.042969 L 574.828125 156.042969 L 574.828125 463.742188 L 429.136719 463.742188 Z M 429.136719 156.042969 L 562.359375 317.789062 C 562.359375 326.898438 554.976562 334.285156 545.863281 334.285156 C 536.753906 334.285156 529.367188 326.898438 529.367188 317.789062 C 529.367188 308.679688 536.753906 301.292969 545.863281 301.292969 C 554.976562 301.292969 562.359375 308.679688 562.359375 317.789062 Z M 429.136719 156.042969 "/>
</clipPath>
<clipPath id="clip48">
  <path d="M 429.136719 156.042969 L 574.828125 156.042969 L 574.828125 463.742188 L 429.136719 463.742188 Z M 429.136719 156.042969 L 474.601562 302 C 474.601562 311.109375 467.214844 318.492188 458.105469 318.492188 C 448.996094 318.492188 441.609375 311.109375 441.609375 302 C 441.609375 292.886719 448.996094 285.503906 458.105469 285.503906 C 467.214844 285.503906 474.601562 292.886719 474.601562 302 Z M 429.136719 156.042969 "/>
</clipPath>
<clipPath id="clip49">
  <path d="M 470 360 L 598 360 L 598 527 L 470 527 Z M 470 360 "/>
</clipPath>
<clipPath id="clip50">
  <path d="M 382.574219 342.566406 L 686.132812 342.566406 L 686.132812 543.898438 L 382.574219 543.898438 Z M 382.574219 342.566406 L 567.75 406.660156 C 567.75 415.769531 560.367188 423.15625 551.253906 423.15625 C 542.144531 423.15625 534.761719 415.769531 534.761719 406.660156 C 534.761719 397.546875 542.144531 390.164062 551.253906 390.164062 C 560.367188 390.164062 567.75 397.546875 567.75 406.660156 Z M 382.574219 342.566406 "/>
</clipPath>
<clipPath id="clip51">
  <path d="M 382.574219 342.566406 L 686.132812 342.566406 L 686.132812 543.898438 L 382.574219 543.898438 Z M 382.574219 342.566406 L 533.953125 479.808594 C 533.953125 488.921875 526.566406 496.304688 517.457031 496.304688 C 508.347656 496.304688 500.960938 488.921875 500.960938 479.808594 C 500.960938 470.699219 508.347656 463.3125 517.457031 463.3125 C 526.566406 463.3125 533.953125 470.699219 533.953125 479.808594 Z M 382.574219 342.566406 "/>
</clipPath>
<clipPath id="clip52">
  <path d="M 433 433 L 565 433 L 565 573 L 433 573 Z M 433 433 "/>
</clipPath>
<clipPath id="clip53">
  <path d="M 364.351562 384.644531 L 632.871094 384.644531 L 632.871094 620.964844 L 364.351562 620.964844 Z M 364.351562 384.644531 L 496.265625 525.804688 C 496.265625 534.914062 488.878906 542.300781 479.769531 542.300781 C 470.660156 542.300781 463.273438 534.914062 463.273438 525.804688 C 463.273438 516.695312 470.660156 509.308594 479.769531 509.308594 C 488.878906 509.308594 496.265625 516.695312 496.265625 525.804688 Z M 364.351562 384.644531 "/>
</clipPath>
<clipPath id="clip54">
  <path d="M 364.351562 384.644531 L 632.871094 384.644531 L 632.871094 620.964844 L 364.351562 620.964844 Z M 364.351562 384.644531 L 533.953125 479.808594 C 533.953125 488.921875 526.566406 496.304688 517.457031 496.304688 C 508.347656 496.304688 500.960938 488.921875 500.960938 479.808594 C 500.960938 470.699219 508.347656 463.3125 517.457031 463.3125 C 526.566406 463.3125 533.953125 470.699219 533.953125 479.808594 Z M 364.351562 384.644531 "/>
</clipPath>
<clipPath id="clip55">
  <path d="M 372 18 L 503 18 L 503 184 L 372 184 Z M 372 18 "/>
</clipPath>
<clipPath id="clip56">
  <path d="M 286.796875 -4.699219 L 587.976562 -4.699219 L 587.976562 206.191406 L 286.796875 206.191406 Z M 286.796875 -4.699219 L 472.3125 64.964844 C 472.3125 74.074219 464.925781 81.460938 455.816406 81.460938 C 446.707031 81.460938 439.320312 74.074219 439.320312 64.964844 C 439.320312 55.855469 446.707031 48.46875 455.816406 48.46875 C 464.925781 48.46875 472.3125 55.855469 472.3125 64.964844 Z M 286.796875 -4.699219 "/>
</clipPath>
<clipPath id="clip57">
  <path d="M 286.796875 -4.699219 L 587.976562 -4.699219 L 587.976562 206.191406 L 286.796875 206.191406 Z M 286.796875 -4.699219 L 435.457031 136.53125 C 435.457031 145.640625 428.070312 153.027344 418.960938 153.027344 C 409.851562 153.027344 402.464844 145.640625 402.464844 136.53125 C 402.464844 127.417969 409.851562 120.035156 418.960938 120.035156 C 428.070312 120.035156 435.457031 127.417969 435.457031 136.53125 Z M 286.796875 -4.699219 "/>
</clipPath>
<clipPath id="clip58">
  <path d="M 245 461 L 374 461 L 374 600 L 245 600 Z M 245 461 "/>
</clipPath>
<clipPath id="clip59">
  <path d="M 172.027344 418.757812 L 446.8125 418.757812 L 446.8125 644.964844 L 172.027344 644.964844 Z M 172.027344 418.757812 L 343.417969 508.167969 C 343.417969 517.277344 336.03125 524.660156 326.921875 524.660156 C 317.8125 524.660156 310.425781 517.277344 310.425781 508.167969 C 310.425781 499.054688 317.8125 491.671875 326.921875 491.671875 C 336.03125 491.671875 343.417969 499.054688 343.417969 508.167969 Z M 172.027344 418.757812 "/>
</clipPath>
<clipPath id="clip60">
  <path d="M 172.027344 418.757812 L 446.8125 418.757812 L 446.8125 644.964844 L 172.027344 644.964844 Z M 172.027344 418.757812 L 308.417969 555.558594 C 308.417969 564.667969 301.035156 572.050781 291.921875 572.050781 C 282.8125 572.050781 275.425781 564.667969 275.425781 555.558594 C 275.425781 546.445312 282.8125 539.0625 291.921875 539.0625 C 301.035156 539.0625 308.417969 546.445312 308.417969 555.558594 Z M 172.027344 418.757812 "/>
</clipPath>
<clipPath id="clip61">
  <path d="M 365 255 L 505 255 L 505 417 L 365 417 Z M 365 255 "/>
</clipPath>
<clipPath id="clip62">
  <path d="M 289.035156 217.121094 L 581.214844 217.121094 L 581.214844 454.371094 L 289.035156 454.371094 Z M 289.035156 217.121094 L 474.601562 302 C 474.601562 311.109375 467.214844 318.492188 458.105469 318.492188 C 448.996094 318.492188 441.609375 311.109375 441.609375 302 C 441.609375 292.886719 448.996094 285.503906 458.105469 285.503906 C 467.214844 285.503906 474.601562 292.886719 474.601562 302 Z M 289.035156 217.121094 "/>
</clipPath>
<clipPath id="clip63">
  <path d="M 289.035156 217.121094 L 581.214844 217.121094 L 581.214844 454.371094 L 289.035156 454.371094 Z M 289.035156 217.121094 L 428.640625 369.496094 C 428.640625 378.605469 421.257812 385.992188 412.148438 385.992188 C 403.035156 385.992188 395.652344 378.605469 395.652344 369.496094 C 395.652344 360.386719 403.035156 353 412.148438 353 C 421.257812 353 428.640625 360.386719 428.640625 369.496094 Z M 289.035156 217.121094 "/>
</clipPath>
<clipPath id="clip64">
  <path d="M 247.8125 89 L 429 89 L 429 191 L 247.8125 191 Z M 247.8125 89 "/>
</clipPath>
<clipPath id="clip65">
  <path d="M 247.8125 -11.558594 L 429 -11.558594 L 429 292.121094 L 247.8125 292.121094 Z M 247.8125 -11.558594 L 435.457031 136.53125 C 435.457031 145.640625 428.070312 153.027344 418.960938 153.027344 C 409.851562 153.027344 402.464844 145.640625 402.464844 136.53125 C 402.464844 127.417969 409.851562 120.035156 418.960938 120.035156 C 428.070312 120.035156 435.457031 127.417969 435.457031 136.53125 Z M 247.8125 -11.558594 "/>
</clipPath>
<clipPath id="clip66">
  <path d="M 247.8125 -11.558594 L 429 -11.558594 L 429 292.121094 L 247.8125 292.121094 Z M 247.8125 -11.558594 L 274.351562 144.035156 C 274.351562 153.144531 266.964844 160.53125 257.855469 160.53125 C 248.746094 160.53125 241.359375 153.144531 241.359375 144.035156 C 241.359375 134.925781 248.746094 127.539062 257.855469 127.539062 C 266.964844 127.539062 274.351562 134.925781 274.351562 144.035156 Z M 247.8125 -11.558594 "/>
</clipPath>
<clipPath id="clip67">
  <path d="M 211 2.328125 L 333 2.328125 L 333 186.144531 L 211 186.144531 Z M 211 2.328125 "/>
</clipPath>
<clipPath id="clip68">
  <path d="M 114.902344 2.328125 L 428.484375 2.328125 L 428.484375 186.144531 L 114.902344 186.144531 Z M 114.902344 2.328125 L 274.351562 144.035156 C 274.351562 153.144531 266.964844 160.53125 257.855469 160.53125 C 248.746094 160.53125 241.359375 153.144531 241.359375 144.035156 C 241.359375 134.925781 248.746094 127.539062 257.855469 127.539062 C 266.964844 127.539062 274.351562 134.925781 274.351562 144.035156 Z M 114.902344 2.328125 "/>
</clipPath>
<clipPath id="clip69">
  <path d="M 114.902344 2.328125 L 428.484375 2.328125 L 428.484375 186.144531 L 114.902344 186.144531 Z M 114.902344 2.328125 L 302.027344 44.441406 C 302.027344 53.554688 294.644531 60.9375 285.535156 60.9375 C 276.421875 60.9375 269.039062 53.554688 269.039062 44.441406 C 269.039062 35.332031 276.421875 27.949219 285.535156 27.949219 C 294.644531 27.949219 302.027344 35.332031 302.027344 44.441406 Z M 114.902344 2.328125 "/>
</clipPath>
<clipPath id="clip70">
  <path d="M 145 97 L 305 97 L 305 372 L 145 372 Z M 145 97 "/>
</clipPath>
<clipPath id="clip71">
  <path d="M 52.980469 91.609375 L 397.519531 91.609375 L 397.519531 377.472656 L 52.980469 377.472656 Z M 52.980469 91.609375 L 274.351562 144.035156 C 274.351562 153.144531 266.964844 160.53125 257.855469 160.53125 C 248.746094 160.53125 241.359375 153.144531 241.359375 144.035156 C 241.359375 134.925781 248.746094 127.539062 257.855469 127.539062 C 266.964844 127.539062 274.351562 134.925781 274.351562 144.035156 Z M 52.980469 91.609375 "/>
</clipPath>
<clipPath id="clip72">
  <path d="M 52.980469 91.609375 L 397.519531 91.609375 L 397.519531 377.472656 L 52.980469 377.472656 Z M 52.980469 91.609375 L 209.144531 325.050781 C 209.144531 334.164062 201.757812 341.546875 192.648438 341.546875 C 183.535156 341.546875 176.152344 334.164062 176.152344 325.050781 C 176.152344 315.941406 183.535156 308.554688 192.648438 308.554688 C 201.757812 308.554688 209.144531 315.941406 209.144531 325.050781 Z M 52.980469 91.609375 "/>
</clipPath>
<clipPath id="clip73">
  <path d="M 181 28 L 305 28 L 305 191 L 181 191 Z M 181 28 "/>
</clipPath>
<clipPath id="clip74">
  <path d="M 91.601562 13.898438 L 394.09375 13.898438 L 394.09375 205.089844 L 91.601562 205.089844 Z M 91.601562 13.898438 L 274.351562 144.035156 C 274.351562 153.144531 266.964844 160.53125 257.855469 160.53125 C 248.746094 160.53125 241.359375 153.144531 241.359375 144.035156 C 241.359375 134.925781 248.746094 127.539062 257.855469 127.539062 C 266.964844 127.539062 274.351562 134.925781 274.351562 144.035156 Z M 91.601562 13.898438 "/>
</clipPath>
<clipPath id="clip75">
  <path d="M 91.601562 13.898438 L 394.09375 13.898438 L 394.09375 205.089844 L 91.601562 205.089844 Z M 91.601562 13.898438 L 244.339844 74.957031 C 244.339844 84.070312 236.953125 91.453125 227.84375 91.453125 C 218.734375 91.453125 211.347656 84.070312 211.347656 74.957031 C 211.347656 65.847656 218.734375 58.464844 227.84375 58.464844 C 236.953125 58.464844 244.339844 65.847656 244.339844 74.957031 Z M 91.601562 13.898438 "/>
</clipPath>
<clipPath id="clip76">
  <path d="M 211 51 L 345 51 L 345 191 L 211 191 Z M 211 51 "/>
</clipPath>
<clipPath id="clip77">
  <path d="M 144.875 0.0234375 L 410.53125 0.0234375 L 410.53125 242.09375 L 144.875 242.09375 Z M 144.875 0.0234375 L 274.351562 144.035156 C 274.351562 153.144531 266.964844 160.53125 257.855469 160.53125 C 248.746094 160.53125 241.359375 153.144531 241.359375 144.035156 C 241.359375 134.925781 248.746094 127.539062 257.855469 127.539062 C 266.964844 127.539062 274.351562 134.925781 274.351562 144.035156 Z M 144.875 0.0234375 "/>
</clipPath>
<clipPath id="clip78">
  <path d="M 144.875 0.0234375 L 410.53125 0.0234375 L 410.53125 242.09375 L 144.875 242.09375 Z M 144.875 0.0234375 L 314.050781 98.085938 C 314.050781 107.195312 306.664062 114.582031 297.554688 114.582031 C 288.441406 114.582031 281.058594 107.195312 281.058594 98.085938 C 281.058594 88.976562 288.441406 81.589844 297.554688 81.589844 C 306.664062 81.589844 314.050781 88.976562 314.050781 98.085938 Z M 144.875 0.0234375 "/>
</clipPath>
<clipPath id="clip79">
  <path d="M 90 399.0625 L 199 399.0625 L 199 537.507812 L 90 537.507812 Z M 90 399.0625 "/>
</clipPath>
<clipPath id="clip80">
  <path d="M -6.308594 399.0625 L 295.585938 399.0625 L 295.585938 537.507812 L -6.308594 537.507812 Z M -6.308594 399.0625 L 153.519531 496.789062 C 153.519531 505.898438 146.132812 513.285156 137.023438 513.285156 C 127.914062 513.285156 120.527344 505.898438 120.527344 496.789062 C 120.527344 487.679688 127.914062 480.292969 137.023438 480.292969 C 146.132812 480.292969 153.519531 487.679688 153.519531 496.789062 Z M -6.308594 399.0625 "/>
</clipPath>
<clipPath id="clip81">
  <path d="M -6.308594 399.0625 L 295.585938 399.0625 L 295.585938 537.507812 L -6.308594 537.507812 Z M -6.308594 399.0625 L 168.753906 439.785156 C 168.753906 448.894531 161.367188 456.28125 152.257812 456.28125 C 143.144531 456.28125 135.761719 448.894531 135.761719 439.785156 C 135.761719 430.675781 143.144531 423.289062 152.257812 423.289062 C 161.367188 423.289062 168.753906 430.675781 168.753906 439.785156 Z M -6.308594 399.0625 "/>
</clipPath>
<clipPath id="clip82">
  <path d="M 105 278 L 240 278 L 240 487 L 105 487 Z M 105 278 "/>
</clipPath>
<clipPath id="clip83">
  <path d="M 12.234375 273.617188 L 332.667969 273.617188 L 332.667969 491.214844 L 12.234375 491.214844 Z M 12.234375 273.617188 L 168.753906 439.785156 C 168.753906 448.894531 161.367188 456.28125 152.257812 456.28125 C 143.144531 456.28125 135.761719 448.894531 135.761719 439.785156 C 135.761719 430.675781 143.144531 423.289062 152.257812 423.289062 C 161.367188 423.289062 168.753906 430.675781 168.753906 439.785156 Z M 12.234375 273.617188 "/>
</clipPath>
<clipPath id="clip84">
  <path d="M 12.234375 273.617188 L 332.667969 273.617188 L 332.667969 491.214844 L 12.234375 491.214844 Z M 12.234375 273.617188 L 209.144531 325.050781 C 209.144531 334.164062 201.757812 341.546875 192.648438 341.546875 C 183.535156 341.546875 176.152344 334.164062 176.152344 325.050781 C 176.152344 315.941406 183.535156 308.554688 192.648438 308.554688 C 201.757812 308.554688 209.144531 315.941406 209.144531 325.050781 Z M 12.234375 273.617188 "/>
</clipPath>
<clipPath id="clip85">
  <path d="M 120 278 L 240 278 L 240 422 L 120 422 Z M 120 278 "/>
</clipPath>
<clipPath id="clip86">
  <path d="M 34.855469 255.886719 L 325.0625 255.886719 L 325.0625 443.957031 L 34.855469 443.957031 Z M 34.855469 255.886719 L 183.769531 374.796875 C 183.769531 383.910156 176.382812 391.292969 167.273438 391.292969 C 158.164062 391.292969 150.777344 383.910156 150.777344 374.796875 C 150.777344 365.6875 158.164062 358.300781 167.273438 358.300781 C 176.382812 358.300781 183.769531 365.6875 183.769531 374.796875 Z M 34.855469 255.886719 "/>
</clipPath>
<clipPath id="clip87">
  <path d="M 34.855469 255.886719 L 325.0625 255.886719 L 325.0625 443.957031 L 34.855469 443.957031 Z M 34.855469 255.886719 L 209.144531 325.050781 C 209.144531 334.164062 201.757812 341.546875 192.648438 341.546875 C 183.535156 341.546875 176.152344 334.164062 176.152344 325.050781 C 176.152344 315.941406 183.535156 308.554688 192.648438 308.554688 C 201.757812 308.554688 209.144531 315.941406 209.144531 325.050781 Z M 34.855469 255.886719 "/>
</clipPath>
</defs>
<g id="surface711">
<g clip-path="url(#clip1)" clip-rule="nonzero">
<g clip-path="url(#clip2)" clip-rule="evenodd">
<g clip-path="url(#clip3)" clip-rule="evenodd">
<path style="fill:none;stroke-width:0.0227611;stroke-linecap:butt;stroke-linejoin:miter;stroke:rgb(17.96875%,20.3125%,21.09375%);stroke-opacity:0.8;stroke-miterlimit:10;" d="M 1.440138 0.946728 L 1.559875 1.348412 " transform="matrix(144.946407,0,0,144.946407,-97.609951,-20.017815)"/>
</g>
</g>
</g>
<g clip-path="url(#clip4)" clip-rule="nonzero">
<g clip-path="url(#clip5)" clip-rule="evenodd">
<g clip-path="url(#clip6)" clip-rule="evenodd">
<path style="fill:none;stroke-width:0.0227611;stroke-linecap:butt;stroke-linejoin:miter;stroke:rgb(17.96875%,20.3125%,21.09375%);stroke-opacity:0.8;stroke-miterlimit:10;" d="M 0.928257 2.321778 L 1.133855 1.937073 " transform="matrix(144.946407,0,0,144.946407,-97.609951,-20.017815)"/>
</g>
</g>
</g>
<g clip-path="url(#clip7)" clip-rule="nonzero">
<g clip-path="url(#clip8)" clip-rule="evenodd">
<g clip-path="url(#clip9)" clip-rule="evenodd">
<path style="fill:none;stroke-width:0.0227611;stroke-linecap:butt;stroke-linejoin:miter;stroke:rgb(17.96875%,20.3125%,21.09375%);stroke-opacity:0.8;stroke-miterlimit:10;" d="M 1.133855 1.937073 L 1.559875 1.348412 " transform="matrix(144.946407,0,0,144.946407,-97.609951,-20.017815)"/>
</g>
</g>
</g>
<g clip-path="url(#clip10)" clip-rule="nonzero">
<g clip-path="url(#clip11)" clip-rule="evenodd">
<g clip-path="url(#clip12)" clip-rule="evenodd">
<path style="fill:none;stroke-width:0.0227611;stroke-linecap:butt;stroke-linejoin:miter;stroke:rgb(17.96875%,20.3125%,21.09375%);stroke-opacity:0.8;stroke-miterlimit:10;" d="M 1.559875 1.348412 L 1.19972 1.341082 " transform="matrix(144.946407,0,0,144.946407,-97.609951,-20.017815)"/>
</g>
</g>
</g>
<g clip-path="url(#clip13)" clip-rule="nonzero">
<g clip-path="url(#clip14)" clip-rule="evenodd">
<g clip-path="url(#clip15)" clip-rule="evenodd">
<path style="fill:none;stroke-width:0.0227611;stroke-linecap:butt;stroke-linejoin:miter;stroke:rgb(17.96875%,20.3125%,21.09375%);stroke-opacity:0.8;stroke-miterlimit:10;" d="M 1.559875 1.348412 L 2.452392 1.131818 " transform="matrix(144.946407,0,0,144.946407,-97.609951,-20.017815)"/>
</g>
</g>
</g>
<g clip-path="url(#clip16)" clip-rule="nonzero">
<g clip-path="url(#clip17)" clip-rule="evenodd">
<g clip-path="url(#clip18)" clip-rule="evenodd">
<path style="fill:none;stroke-width:0.0227611;stroke-linecap:butt;stroke-linejoin:miter;stroke:rgb(17.96875%,20.3125%,21.09375%);stroke-opacity:0.8;stroke-miterlimit:10;" d="M 4.130221 1.561179 L 4.558046 1.801624 " transform="matrix(144.946407,0,0,144.946407,-97.609951,-20.017815)"/>
</g>
</g>
</g>
<g clip-path="url(#clip19)" clip-rule="nonzero">
<g clip-path="url(#clip20)" clip-rule="evenodd">
<g clip-path="url(#clip21)" clip-rule="evenodd">
<path style="fill:none;stroke-width:0.0227611;stroke-linecap:butt;stroke-linejoin:miter;stroke:rgb(17.96875%,20.3125%,21.09375%);stroke-opacity:0.8;stroke-miterlimit:10;" d="M 4.130221 1.561179 L 3.833937 2.221634 " transform="matrix(144.946407,0,0,144.946407,-97.609951,-20.017815)"/>
</g>
</g>
</g>
<g clip-path="url(#clip22)" clip-rule="nonzero">
<g clip-path="url(#clip23)" clip-rule="evenodd">
<g clip-path="url(#clip24)" clip-rule="evenodd">
<path style="fill:none;stroke-width:0.0227611;stroke-linecap:butt;stroke-linejoin:miter;stroke:rgb(17.96875%,20.3125%,21.09375%);stroke-opacity:0.8;stroke-miterlimit:10;" d="M 4.130221 1.561179 L 3.563875 1.080048 " transform="matrix(144.946407,0,0,144.946407,-97.609951,-20.017815)"/>
</g>
</g>
</g>
<g clip-path="url(#clip25)" clip-rule="nonzero">
<g clip-path="url(#clip26)" clip-rule="evenodd">
<g clip-path="url(#clip27)" clip-rule="evenodd">
<path style="fill:none;stroke-width:0.0227611;stroke-linecap:butt;stroke-linejoin:miter;stroke:rgb(17.96875%,20.3125%,21.09375%);stroke-opacity:0.8;stroke-miterlimit:10;" d="M 3.33289 2.992366 L 2.928888 3.644007 " transform="matrix(144.946407,0,0,144.946407,-97.609951,-20.017815)"/>
</g>
</g>
</g>
<g clip-path="url(#clip28)" clip-rule="nonzero">
<g clip-path="url(#clip29)" clip-rule="evenodd">
<g clip-path="url(#clip30)" clip-rule="evenodd">
<path style="fill:none;stroke-width:0.0227611;stroke-linecap:butt;stroke-linejoin:miter;stroke:rgb(17.96875%,20.3125%,21.09375%);stroke-opacity:0.8;stroke-miterlimit:10;" d="M 3.33289 2.992366 L 3.833937 2.221634 " transform="matrix(144.946407,0,0,144.946407,-97.609951,-20.017815)"/>
</g>
</g>
</g>
<g clip-path="url(#clip31)" clip-rule="nonzero">
<g clip-path="url(#clip32)" clip-rule="evenodd">
<g clip-path="url(#clip33)" clip-rule="evenodd">
<path style="fill:none;stroke-width:0.0227611;stroke-linecap:butt;stroke-linejoin:miter;stroke:rgb(17.96875%,20.3125%,21.09375%);stroke-opacity:0.8;stroke-miterlimit:10;" d="M 3.33289 2.992366 L 3.516875 2.687296 " transform="matrix(144.946407,0,0,144.946407,-97.609951,-20.017815)"/>
</g>
</g>
</g>
<g clip-path="url(#clip34)" clip-rule="nonzero">
<g clip-path="url(#clip35)" clip-rule="evenodd">
<g clip-path="url(#clip36)" clip-rule="evenodd">
<path style="fill:none;stroke-width:0.0227611;stroke-linecap:butt;stroke-linejoin:miter;stroke:rgb(17.96875%,20.3125%,21.09375%);stroke-opacity:0.8;stroke-miterlimit:10;" d="M 3.716518 1.525498 L 3.833937 2.221634 " transform="matrix(144.946407,0,0,144.946407,-97.609951,-20.017815)"/>
</g>
</g>
</g>
<g clip-path="url(#clip37)" clip-rule="nonzero">
<g clip-path="url(#clip38)" clip-rule="evenodd">
<g clip-path="url(#clip39)" clip-rule="evenodd">
<path style="fill:none;stroke-width:0.0227611;stroke-linecap:butt;stroke-linejoin:miter;stroke:rgb(17.96875%,20.3125%,21.09375%);stroke-opacity:0.8;stroke-miterlimit:10;" d="M 3.716518 1.525498 L 3.563875 1.080048 " transform="matrix(144.946407,0,0,144.946407,-97.609951,-20.017815)"/>
</g>
</g>
</g>
<g clip-path="url(#clip40)" clip-rule="nonzero">
<g clip-path="url(#clip41)" clip-rule="evenodd">
<g clip-path="url(#clip42)" clip-rule="evenodd">
<path style="fill:none;stroke-width:0.0227611;stroke-linecap:butt;stroke-linejoin:miter;stroke:rgb(17.96875%,20.3125%,21.09375%);stroke-opacity:0.8;stroke-miterlimit:10;" d="M 4.439387 2.330564 L 4.476578 2.943695 " transform="matrix(144.946407,0,0,144.946407,-97.609951,-20.017815)"/>
</g>
</g>
</g>
<g clip-path="url(#clip43)" clip-rule="nonzero">
<g clip-path="url(#clip44)" clip-rule="evenodd">
<g clip-path="url(#clip45)" clip-rule="evenodd">
<path style="fill:none;stroke-width:0.0227611;stroke-linecap:butt;stroke-linejoin:miter;stroke:rgb(17.96875%,20.3125%,21.09375%);stroke-opacity:0.8;stroke-miterlimit:10;" d="M 4.439387 2.330564 L 4.558046 1.801624 " transform="matrix(144.946407,0,0,144.946407,-97.609951,-20.017815)"/>
</g>
</g>
</g>
<g clip-path="url(#clip46)" clip-rule="nonzero">
<g clip-path="url(#clip47)" clip-rule="evenodd">
<g clip-path="url(#clip48)" clip-rule="evenodd">
<path style="fill:none;stroke-width:0.0227611;stroke-linecap:butt;stroke-linejoin:miter;stroke:rgb(17.96875%,20.3125%,21.09375%);stroke-opacity:0.8;stroke-miterlimit:10;" d="M 4.439387 2.330564 L 3.833937 2.221634 " transform="matrix(144.946407,0,0,144.946407,-97.609951,-20.017815)"/>
</g>
</g>
</g>
<g clip-path="url(#clip49)" clip-rule="nonzero">
<g clip-path="url(#clip50)" clip-rule="evenodd">
<g clip-path="url(#clip51)" clip-rule="evenodd">
<path style="fill:none;stroke-width:0.0227611;stroke-linecap:butt;stroke-linejoin:miter;stroke:rgb(17.96875%,20.3125%,21.09375%);stroke-opacity:0.8;stroke-miterlimit:10;" d="M 4.476578 2.943695 L 4.24341 3.448353 " transform="matrix(144.946407,0,0,144.946407,-97.609951,-20.017815)"/>
</g>
</g>
</g>
<g clip-path="url(#clip52)" clip-rule="nonzero">
<g clip-path="url(#clip53)" clip-rule="evenodd">
<g clip-path="url(#clip54)" clip-rule="evenodd">
<path style="fill:none;stroke-width:0.0227611;stroke-linecap:butt;stroke-linejoin:miter;stroke:rgb(17.96875%,20.3125%,21.09375%);stroke-opacity:0.8;stroke-miterlimit:10;" d="M 3.9834 3.765685 L 4.24341 3.448353 " transform="matrix(144.946407,0,0,144.946407,-97.609951,-20.017815)"/>
</g>
</g>
</g>
<g clip-path="url(#clip55)" clip-rule="nonzero">
<g clip-path="url(#clip56)" clip-rule="evenodd">
<g clip-path="url(#clip57)" clip-rule="evenodd">
<path style="fill:none;stroke-width:0.0227611;stroke-linecap:butt;stroke-linejoin:miter;stroke:rgb(17.96875%,20.3125%,21.09375%);stroke-opacity:0.8;stroke-miterlimit:10;" d="M 3.818145 0.586304 L 3.563875 1.080048 " transform="matrix(144.946407,0,0,144.946407,-97.609951,-20.017815)"/>
</g>
</g>
</g>
<g clip-path="url(#clip58)" clip-rule="nonzero">
<g clip-path="url(#clip59)" clip-rule="evenodd">
<g clip-path="url(#clip60)" clip-rule="evenodd">
<path style="fill:none;stroke-width:0.0227611;stroke-linecap:butt;stroke-linejoin:miter;stroke:rgb(17.96875%,20.3125%,21.09375%);stroke-opacity:0.8;stroke-miterlimit:10;" d="M 2.928888 3.644007 L 2.68742 3.97096 " transform="matrix(144.946407,0,0,144.946407,-97.609951,-20.017815)"/>
</g>
</g>
</g>
<g clip-path="url(#clip61)" clip-rule="nonzero">
<g clip-path="url(#clip62)" clip-rule="evenodd">
<g clip-path="url(#clip63)" clip-rule="evenodd">
<path style="fill:none;stroke-width:0.0227611;stroke-linecap:butt;stroke-linejoin:miter;stroke:rgb(17.96875%,20.3125%,21.09375%);stroke-opacity:0.8;stroke-miterlimit:10;" d="M 3.833937 2.221634 L 3.516875 2.687296 " transform="matrix(144.946407,0,0,144.946407,-97.609951,-20.017815)"/>
</g>
</g>
</g>
<g clip-path="url(#clip64)" clip-rule="nonzero">
<g clip-path="url(#clip65)" clip-rule="evenodd">
<g clip-path="url(#clip66)" clip-rule="evenodd">
<path style="fill:none;stroke-width:0.0227611;stroke-linecap:butt;stroke-linejoin:miter;stroke:rgb(17.96875%,20.3125%,21.09375%);stroke-opacity:0.8;stroke-miterlimit:10;" d="M 3.563875 1.080048 L 2.452392 1.131818 " transform="matrix(144.946407,0,0,144.946407,-97.609951,-20.017815)"/>
</g>
</g>
</g>
<g clip-path="url(#clip67)" clip-rule="nonzero">
<g clip-path="url(#clip68)" clip-rule="evenodd">
<g clip-path="url(#clip69)" clip-rule="evenodd">
<path style="fill:none;stroke-width:0.0227611;stroke-linecap:butt;stroke-linejoin:miter;stroke:rgb(17.96875%,20.3125%,21.09375%);stroke-opacity:0.8;stroke-miterlimit:10;" d="M 2.452392 1.131818 L 2.643357 0.444711 " transform="matrix(144.946407,0,0,144.946407,-97.609951,-20.017815)"/>
</g>
</g>
</g>
<g clip-path="url(#clip70)" clip-rule="nonzero">
<g clip-path="url(#clip71)" clip-rule="evenodd">
<g clip-path="url(#clip72)" clip-rule="evenodd">
<path style="fill:none;stroke-width:0.0227611;stroke-linecap:butt;stroke-linejoin:miter;stroke:rgb(17.96875%,20.3125%,21.09375%);stroke-opacity:0.8;stroke-miterlimit:10;" d="M 2.452392 1.131818 L 2.002522 2.380663 " transform="matrix(144.946407,0,0,144.946407,-97.609951,-20.017815)"/>
</g>
</g>
</g>
<g clip-path="url(#clip73)" clip-rule="nonzero">
<g clip-path="url(#clip74)" clip-rule="evenodd">
<g clip-path="url(#clip75)" clip-rule="evenodd">
<path style="fill:none;stroke-width:0.0227611;stroke-linecap:butt;stroke-linejoin:miter;stroke:rgb(17.96875%,20.3125%,21.09375%);stroke-opacity:0.8;stroke-miterlimit:10;" d="M 2.452392 1.131818 L 2.245338 0.655241 " transform="matrix(144.946407,0,0,144.946407,-97.609951,-20.017815)"/>
</g>
</g>
</g>
<g clip-path="url(#clip76)" clip-rule="nonzero">
<g clip-path="url(#clip77)" clip-rule="evenodd">
<g clip-path="url(#clip78)" clip-rule="evenodd">
<path style="fill:none;stroke-width:0.0227611;stroke-linecap:butt;stroke-linejoin:miter;stroke:rgb(17.96875%,20.3125%,21.09375%);stroke-opacity:0.8;stroke-miterlimit:10;" d="M 2.452392 1.131818 L 2.726281 0.81481 " transform="matrix(144.946407,0,0,144.946407,-97.609951,-20.017815)"/>
</g>
</g>
</g>
<g clip-path="url(#clip79)" clip-rule="nonzero">
<g clip-path="url(#clip80)" clip-rule="evenodd">
<g clip-path="url(#clip81)" clip-rule="evenodd">
<path style="fill:none;stroke-width:0.0227611;stroke-linecap:butt;stroke-linejoin:miter;stroke:rgb(17.96875%,20.3125%,21.09375%);stroke-opacity:0.8;stroke-miterlimit:10;" d="M 1.61876 3.565503 L 1.723863 3.172227 " transform="matrix(144.946407,0,0,144.946407,-97.609951,-20.017815)"/>
</g>
</g>
</g>
<g clip-path="url(#clip82)" clip-rule="nonzero">
<g clip-path="url(#clip83)" clip-rule="evenodd">
<g clip-path="url(#clip84)" clip-rule="evenodd">
<path style="fill:none;stroke-width:0.0227611;stroke-linecap:butt;stroke-linejoin:miter;stroke:rgb(17.96875%,20.3125%,21.09375%);stroke-opacity:0.8;stroke-miterlimit:10;" d="M 1.723863 3.172227 L 2.002522 2.380663 " transform="matrix(144.946407,0,0,144.946407,-97.609951,-20.017815)"/>
</g>
</g>
</g>
<g clip-path="url(#clip85)" clip-rule="nonzero">
<g clip-path="url(#clip86)" clip-rule="evenodd">
<g clip-path="url(#clip87)" clip-rule="evenodd">
<path style="fill:none;stroke-width:0.0227611;stroke-linecap:butt;stroke-linejoin:miter;stroke:rgb(17.96875%,20.3125%,21.09375%);stroke-opacity:0.8;stroke-miterlimit:10;" d="M 1.827457 2.723867 L 2.002522 2.380663 " transform="matrix(144.946407,0,0,144.946407,-97.609951,-20.017815)"/>
</g>
</g>
</g>
<path style="fill-rule:nonzero;fill:rgb(55.294118%,82.745098%,78.039216%);fill-opacity:1;stroke-width:0.0227611;stroke-linecap:butt;stroke-linejoin:miter;stroke:rgb(60%,60%,60%);stroke-opacity:0.8;stroke-miterlimit:10;" d="M 0.113817 0.000003754 C 0.113817 0.0628503 0.0628555 0.113812 0.00000904579 0.113812 C -0.0628644 0.113812 -0.113799 0.0628503 -0.113799 0.000003754 C -0.113799 -0.0628428 -0.0628644 -0.113804 0.00000904579 -0.113804 C 0.0628555 -0.113804 0.113817 -0.0628428 0.113817 0.000003754 Z M 0.113817 0.000003754 " transform="matrix(144.946407,0,0,144.946407,111.131501,117.206487)"/>
<path style="fill-rule:nonzero;fill:rgb(55.294118%,82.745098%,78.039216%);fill-opacity:1;stroke-width:0.0227611;stroke-linecap:butt;stroke-linejoin:miter;stroke:rgb(60%,60%,60%);stroke-opacity:0.8;stroke-miterlimit:10;" d="M 0.113796 -0.00000227273 C 0.113796 0.0628442 0.062861 0.113806 -0.000012489 0.113806 C -0.062859 0.113806 -0.113794 0.0628442 -0.113794 -0.00000227273 C -0.113794 -0.0628488 -0.062859 -0.113811 -0.000012489 -0.113811 C 0.062861 -0.113811 0.113796 -0.0628488 0.113796 -0.00000227273 Z M 0.113796 -0.00000227273 " transform="matrix(144.946407,0,0,144.946407,36.93931,316.515954)"/>
<path style="fill-rule:nonzero;fill:rgb(55.294118%,82.745098%,78.039216%);fill-opacity:1;stroke-width:0.0227611;stroke-linecap:butt;stroke-linejoin:miter;stroke:rgb(60%,60%,60%);stroke-opacity:0.8;stroke-miterlimit:10;" d="M 0.113796 -0.00000506268 C 0.113796 0.0628414 0.0628608 0.113803 -0.0000126093 0.113803 C -0.0628591 0.113803 -0.113794 0.0628414 -0.113794 -0.00000506268 C -0.113794 -0.0628516 -0.0628591 -0.113813 -0.0000126093 -0.113813 C 0.0628608 -0.113813 0.113796 -0.0628516 0.113796 -0.00000506268 Z M 0.113796 -0.00000506268 " transform="matrix(144.946407,0,0,144.946407,66.740109,260.75464)"/>
<path style="fill-rule:nonzero;fill:rgb(55.294118%,82.745098%,78.039216%);fill-opacity:1;stroke-width:0.0227611;stroke-linecap:butt;stroke-linejoin:miter;stroke:rgb(60%,60%,60%);stroke-opacity:0.8;stroke-miterlimit:10;" d="M 0.113802 -0.0000022587 C 0.113802 0.0628442 0.0628407 0.113806 -0.00000579733 0.113806 C -0.0628523 0.113806 -0.113814 0.0628442 -0.113814 -0.0000022587 C -0.113814 -0.0628488 -0.0628523 -0.11381 -0.00000579733 -0.11381 C 0.0628407 -0.11381 0.113802 -0.0628488 0.113802 -0.0000022587 Z M 0.113802 -0.0000022587 " transform="matrix(144.946407,0,0,144.946407,128.489122,175.430015)"/>
<path style="fill-rule:nonzero;fill:rgb(55.294118%,82.745098%,78.039216%);fill-opacity:1;stroke-width:0.0227611;stroke-linecap:butt;stroke-linejoin:miter;stroke:rgb(60%,60%,60%);stroke-opacity:0.8;stroke-miterlimit:10;" d="M 0.113818 0.00000567285 C 0.113818 0.0628522 0.0628562 0.113814 0.00000972177 0.113814 C -0.0628637 0.113814 -0.113799 0.0628522 -0.113799 0.00000567285 C -0.113799 -0.0628408 -0.0628637 -0.113803 0.00000972177 -0.113803 C 0.0628562 -0.113803 0.113818 -0.0628408 0.113818 0.00000567285 Z M 0.113818 0.00000567285 " transform="matrix(144.946407,0,0,144.946407,76.283747,174.366365)"/>
<path style="fill-rule:nonzero;fill:rgb(55.294118%,82.745098%,78.039216%);fill-opacity:1;stroke-width:0.0227611;stroke-linecap:butt;stroke-linejoin:miter;stroke:rgb(60%,60%,60%);stroke-opacity:0.8;stroke-miterlimit:10;" d="M 0.113811 0.00000892701 C 0.113811 0.0628554 0.0628488 0.113817 0.00000232234 0.113817 C -0.0628442 0.113817 -0.113806 0.0628554 -0.113806 0.00000892701 C -0.113806 -0.0628645 -0.0628442 -0.113799 0.00000232234 -0.113799 C 0.0628488 -0.113799 0.113811 -0.0628645 0.113811 0.00000892701 Z M 0.113811 0.00000892701 " transform="matrix(144.946407,0,0,144.946407,501.050445,206.268237)"/>
<path style="fill-rule:nonzero;fill:rgb(100%,92.941176%,43.529412%);fill-opacity:1;stroke-width:0.0227611;stroke-linecap:butt;stroke-linejoin:miter;stroke:rgb(60%,60%,60%);stroke-opacity:0.8;stroke-miterlimit:10;" d="M 0.113809 0.0000116813 C 0.113809 0.0628582 0.0628475 0.113793 0.00000102363 0.113793 C -0.0628455 0.113793 -0.113807 0.0628582 -0.113807 0.0000116813 C -0.113807 -0.0628618 -0.0628455 -0.113797 0.00000102363 -0.113797 C 0.0628475 -0.113797 0.113809 -0.0628618 0.113809 0.0000116813 Z M 0.113809 0.0000116813 " transform="matrix(144.946407,0,0,144.946407,385.48032,413.713151)"/>
<path style="fill-rule:nonzero;fill:rgb(55.294118%,82.745098%,78.039216%);fill-opacity:1;stroke-width:0.0227611;stroke-linecap:butt;stroke-linejoin:miter;stroke:rgb(60%,60%,60%);stroke-opacity:0.8;stroke-miterlimit:10;" d="M 0.113793 0.00000683409 C 0.113793 0.0628533 0.0628583 0.113815 0.0000117644 0.113815 C -0.0628617 0.113815 -0.113796 0.0628533 -0.113796 0.00000683409 C -0.113796 -0.0628397 -0.0628617 -0.113801 0.0000117644 -0.113801 C 0.0628583 -0.113801 0.113793 -0.0628397 0.113793 0.00000683409 Z M 0.113793 0.00000683409 " transform="matrix(144.946407,0,0,144.946407,441.084232,201.096666)"/>
<path style="fill-rule:nonzero;fill:rgb(55.294118%,82.745098%,78.039216%);fill-opacity:1;stroke-width:0.0227611;stroke-linecap:butt;stroke-linejoin:miter;stroke:rgb(60%,60%,60%);stroke-opacity:0.8;stroke-miterlimit:10;" d="M 0.113801 -0.00000664758 C 0.113801 0.0628399 0.0628661 0.113802 -0.00000733021 0.113802 C -0.0628538 0.113802 -0.113816 0.0628399 -0.113816 -0.00000664758 C -0.113816 -0.0628532 -0.0628538 -0.113815 -0.00000733021 -0.113815 C 0.0628661 -0.113815 0.113801 -0.0628532 0.113801 -0.00000664758 Z M 0.113801 -0.00000664758 " transform="matrix(144.946407,0,0,144.946407,545.864344,317.790026)"/>
<path style="fill-rule:nonzero;fill:rgb(55.294118%,82.745098%,78.039216%);fill-opacity:1;stroke-width:0.0227611;stroke-linecap:butt;stroke-linejoin:miter;stroke:rgb(60%,60%,60%);stroke-opacity:0.8;stroke-miterlimit:10;" d="M 0.113797 0.0000098208 C 0.113797 0.0628563 0.0628621 0.113818 -0.000011394 0.113818 C -0.0628579 0.113818 -0.113793 0.0628563 -0.113793 0.0000098208 C -0.113793 -0.0628636 -0.0628579 -0.113798 -0.000011394 -0.113798 C 0.0628621 -0.113798 0.113797 -0.0628636 0.113797 0.0000098208 Z M 0.113797 0.0000098208 " transform="matrix(144.946407,0,0,144.946407,551.255558,406.658733)"/>
<path style="fill-rule:nonzero;fill:rgb(55.294118%,82.745098%,78.039216%);fill-opacity:1;stroke-width:0.0227611;stroke-linecap:butt;stroke-linejoin:miter;stroke:rgb(60%,60%,60%);stroke-opacity:0.8;stroke-miterlimit:10;" d="M 0.113794 0.0000108312 C 0.113794 0.0628573 0.062859 0.113819 0.000012489 0.113819 C -0.062861 0.113819 -0.113796 0.0628573 -0.113796 0.0000108312 C -0.113796 -0.0628626 -0.062861 -0.113797 0.000012489 -0.113797 C 0.062859 -0.113797 0.113794 -0.0628626 0.113794 0.0000108312 Z M 0.113794 0.0000108312 " transform="matrix(144.946407,0,0,144.946407,563.06069,241.119524)"/>
<path style="fill-rule:nonzero;fill:rgb(55.294118%,82.745098%,78.039216%);fill-opacity:1;stroke-width:0.0227611;stroke-linecap:butt;stroke-linejoin:miter;stroke:rgb(60%,60%,60%);stroke-opacity:0.8;stroke-miterlimit:10;" d="M 0.113804 -0.00000296712 C 0.113804 0.0628435 0.0628422 0.113805 -0.00000435088 0.113805 C -0.0628509 0.113805 -0.113813 0.0628435 -0.113813 -0.00000296712 C -0.113813 -0.0628495 -0.0628509 -0.113811 -0.00000435088 -0.113811 C 0.0628422 -0.113811 0.113804 -0.0628495 0.113804 -0.00000296712 Z M 0.113804 -0.00000296712 " transform="matrix(144.946407,0,0,144.946407,479.770162,525.805118)"/>
<path style="fill-rule:nonzero;fill:rgb(55.294118%,82.745098%,78.039216%);fill-opacity:1;stroke-width:0.0227611;stroke-linecap:butt;stroke-linejoin:miter;stroke:rgb(60%,60%,60%);stroke-opacity:0.8;stroke-miterlimit:10;" d="M 0.113805 0.00000581583 C 0.113805 0.0628523 0.062843 0.113814 -0.00000346551 0.113814 C -0.06285 0.113814 -0.113812 0.0628523 -0.113812 0.00000581583 C -0.113812 -0.0628407 -0.06285 -0.113802 -0.00000346551 -0.113802 C 0.062843 -0.113802 0.113805 -0.0628407 0.113805 0.00000581583 Z M 0.113805 0.00000581583 " transform="matrix(144.946407,0,0,144.946407,455.816909,64.964001)"/>
<path style="fill-rule:nonzero;fill:rgb(100%,92.941176%,43.529412%);fill-opacity:1;stroke-width:0.0227611;stroke-linecap:butt;stroke-linejoin:miter;stroke:rgb(60%,60%,60%);stroke-opacity:0.8;stroke-miterlimit:10;" d="M 0.113808 0.000012878 C 0.113808 0.0628594 0.0628466 0.113794 0.000000115751 0.113794 C -0.0628464 0.113794 -0.113808 0.0628594 -0.113808 0.000012878 C -0.113808 -0.0628606 -0.0628464 -0.113795 0.000000115751 -0.113795 C 0.0628466 -0.113795 0.113808 -0.0628606 0.113808 0.000012878 Z M 0.113808 0.000012878 " transform="matrix(144.946407,0,0,144.946407,326.921858,508.166102)"/>
<path style="fill-rule:nonzero;fill:rgb(100%,92.941176%,43.529412%);fill-opacity:1;stroke-width:0.0227611;stroke-linecap:butt;stroke-linejoin:miter;stroke:rgb(60%,60%,60%);stroke-opacity:0.8;stroke-miterlimit:10;" d="M 0.1138 0.0000110189 C 0.1138 0.0628575 0.0628657 0.113792 -0.00000776882 0.113792 C -0.0628543 0.113792 -0.113816 0.0628575 -0.113816 0.0000110189 C -0.113816 -0.0628624 -0.0628543 -0.113797 -0.00000776882 -0.113797 C 0.0628657 -0.113797 0.1138 -0.0628624 0.1138 0.0000110189 Z M 0.1138 0.0000110189 " transform="matrix(144.946407,0,0,144.946407,291.923001,555.556997)"/>
<path style="fill-rule:nonzero;fill:rgb(55.294118%,82.745098%,78.039216%);fill-opacity:1;stroke-width:0.0227611;stroke-linecap:butt;stroke-linejoin:miter;stroke:rgb(60%,60%,60%);stroke-opacity:0.8;stroke-miterlimit:10;" d="M 0.113805 0.0000111423 C 0.113805 0.0628576 0.0628428 0.113792 -0.00000368589 0.113792 C -0.0628502 0.113792 -0.113812 0.0628576 -0.113812 0.0000111423 C -0.113812 -0.0628623 -0.0628502 -0.113797 -0.00000368589 -0.113797 C 0.0628428 -0.113797 0.113805 -0.0628623 0.113805 0.0000111423 Z M 0.113805 0.0000111423 " transform="matrix(144.946407,0,0,144.946407,458.106003,301.998385)"/>
<path style="fill-rule:nonzero;fill:rgb(100%,92.941176%,43.529412%);fill-opacity:1;stroke-width:0.0227611;stroke-linecap:butt;stroke-linejoin:miter;stroke:rgb(60%,60%,60%);stroke-opacity:0.8;stroke-miterlimit:10;" d="M 0.113792 -0.00000533744 C 0.113792 0.0628412 0.0628577 0.113803 0.0000112208 0.113803 C -0.0628622 0.113803 -0.113797 0.0628412 -0.113797 -0.00000533744 C -0.113797 -0.0628518 -0.0628622 -0.113814 0.0000112208 -0.113814 C 0.0628577 -0.113814 0.113792 -0.0628518 0.113792 -0.00000533744 Z M 0.113792 -0.00000533744 " transform="matrix(144.946407,0,0,144.946407,412.146811,369.496867)"/>
<path style="fill-rule:nonzero;fill:rgb(55.294118%,82.745098%,78.039216%);fill-opacity:1;stroke-width:0.0227611;stroke-linecap:butt;stroke-linejoin:miter;stroke:rgb(60%,60%,60%);stroke-opacity:0.8;stroke-miterlimit:10;" d="M 0.113814 -0.00000706065 C 0.113814 0.0628664 0.0628524 0.113801 0.00000589713 0.113801 C -0.0628406 0.113801 -0.113802 0.0628664 -0.113802 -0.00000706065 C -0.113802 -0.0628536 -0.0628406 -0.113815 0.00000589713 -0.113815 C 0.0628524 -0.113815 0.113814 -0.0628536 0.113814 -0.00000706065 Z M 0.113814 -0.00000706065 " transform="matrix(144.946407,0,0,144.946407,517.456176,479.809617)"/>
<path style="fill-rule:nonzero;fill:rgb(55.294118%,82.745098%,78.039216%);fill-opacity:1;stroke-width:0.0227611;stroke-linecap:butt;stroke-linejoin:miter;stroke:rgb(60%,60%,60%);stroke-opacity:0.8;stroke-miterlimit:10;" d="M 0.113813 0.00000944892 C 0.113813 0.062856 0.0628515 0.113818 0.00000503537 0.113818 C -0.0628415 0.113818 -0.113803 0.062856 -0.113803 0.00000944892 C -0.113803 -0.062864 -0.0628415 -0.113799 0.00000503537 -0.113799 C 0.0628515 -0.113799 0.113813 -0.062864 0.113813 0.00000944892 Z M 0.113813 0.00000944892 " transform="matrix(144.946407,0,0,144.946407,418.960208,136.52988)"/>
<path style="fill-rule:nonzero;fill:rgb(55.294118%,82.745098%,78.039216%);fill-opacity:1;stroke-width:0.0227611;stroke-linecap:butt;stroke-linejoin:miter;stroke:rgb(60%,60%,60%);stroke-opacity:0.8;stroke-miterlimit:10;" d="M 0.113813 0.00000217892 C 0.113813 0.0628487 0.0628513 0.11381 0.00000483805 0.11381 C -0.0628417 0.11381 -0.113803 0.0628487 -0.113803 0.00000217892 C -0.113803 -0.0628443 -0.0628417 -0.113806 0.00000483805 -0.113806 C 0.0628513 -0.113806 0.113813 -0.0628443 0.113813 0.00000217892 Z M 0.113813 0.00000217892 " transform="matrix(144.946407,0,0,144.946407,257.854767,144.03484)"/>
<path style="fill-rule:nonzero;fill:rgb(55.294118%,82.745098%,78.039216%);fill-opacity:1;stroke-width:0.0227611;stroke-linecap:butt;stroke-linejoin:miter;stroke:rgb(60%,60%,60%);stroke-opacity:0.8;stroke-miterlimit:10;" d="M 0.113811 0.0000000622553 C 0.113811 0.0628466 0.062849 0.113808 0.00000246477 0.113808 C -0.062844 0.113808 -0.113806 0.0628466 -0.113806 0.0000000622553 C -0.113806 -0.0628464 -0.062844 -0.113808 0.00000246477 -0.113808 C 0.062849 -0.113808 0.113811 -0.0628464 0.113811 0.0000000622553 Z M 0.113811 0.0000000622553 " transform="matrix(144.946407,0,0,144.946407,137.02308,496.789053)"/>
<path style="fill-rule:nonzero;fill:rgb(55.294118%,82.745098%,78.039216%);fill-opacity:1;stroke-width:0.0227611;stroke-linecap:butt;stroke-linejoin:miter;stroke:rgb(60%,60%,60%);stroke-opacity:0.8;stroke-miterlimit:10;" d="M 0.113816 0.00000430095 C 0.113816 0.0628508 0.0628539 0.113813 0.00000740455 0.113813 C -0.062866 0.113813 -0.113801 0.0628508 -0.113801 0.00000430095 C -0.113801 -0.0628422 -0.062866 -0.113804 0.00000740455 -0.113804 C 0.0628539 -0.113804 0.113816 -0.0628422 0.113816 0.00000430095 Z M 0.113816 0.00000430095 " transform="matrix(144.946407,0,0,144.946407,152.256739,439.784533)"/>
<path style="fill-rule:nonzero;fill:rgb(55.294118%,82.745098%,78.039216%);fill-opacity:1;stroke-width:0.0227611;stroke-linecap:butt;stroke-linejoin:miter;stroke:rgb(60%,60%,60%);stroke-opacity:0.8;stroke-miterlimit:10;" d="M 0.113793 -0.0000110189 C 0.113793 0.0628624 0.0628581 0.113797 0.0000115989 0.113797 C -0.0628619 0.113797 -0.113797 0.0628624 -0.113797 -0.0000110189 C -0.113797 -0.0628575 -0.0628619 -0.113792 0.0000115989 -0.113792 C 0.0628581 -0.113792 0.113793 -0.0628575 0.113793 -0.0000110189 Z M 0.113793 -0.0000110189 " transform="matrix(144.946407,0,0,144.946407,285.533475,44.443003)"/>
<path style="fill-rule:nonzero;fill:rgb(55.294118%,82.745098%,78.039216%);fill-opacity:1;stroke-width:0.0227611;stroke-linecap:butt;stroke-linejoin:miter;stroke:rgb(60%,60%,60%);stroke-opacity:0.8;stroke-miterlimit:10;" d="M 0.113813 -0.00000849365 C 0.113813 0.062865 0.0628511 0.1138 0.00000463015 0.1138 C -0.0628419 0.1138 -0.113804 0.062865 -0.113804 -0.00000849365 C -0.113804 -0.062855 -0.0628419 -0.113817 0.00000463015 -0.113817 C 0.0628511 -0.113817 0.113813 -0.062855 0.113813 -0.00000849365 Z M 0.113813 -0.00000849365 " transform="matrix(144.946407,0,0,144.946407,167.272766,374.798106)"/>
<path style="fill-rule:nonzero;fill:rgb(55.294118%,82.745098%,78.039216%);fill-opacity:1;stroke-width:0.0227611;stroke-linecap:butt;stroke-linejoin:miter;stroke:rgb(60%,60%,60%);stroke-opacity:0.8;stroke-miterlimit:10;" d="M 0.113815 -0.00000985534 C 0.113815 0.0628636 0.0628537 0.113798 0.00000723493 0.113798 C -0.0628662 0.113798 -0.113801 0.0628636 -0.113801 -0.00000985534 C -0.113801 -0.0628564 -0.0628662 -0.113818 0.00000723493 -0.113818 C 0.0628537 -0.113818 0.113815 -0.0628564 0.113815 -0.00000985534 Z M 0.113815 -0.00000985534 " transform="matrix(144.946407,0,0,144.946407,192.647389,325.05221)"/>
<path style="fill-rule:nonzero;fill:rgb(55.294118%,82.745098%,78.039216%);fill-opacity:1;stroke-width:0.0227611;stroke-linecap:butt;stroke-linejoin:miter;stroke:rgb(60%,60%,60%);stroke-opacity:0.8;stroke-miterlimit:10;" d="M 0.113809 -0.0000114616 C 0.113809 0.062862 0.0628477 0.113797 0.00000121635 0.113797 C -0.0628453 0.113797 -0.113807 0.062862 -0.113807 -0.0000114616 C -0.113807 -0.062858 -0.0628453 -0.113793 0.00000121635 -0.113793 C 0.0628477 -0.113793 0.113809 -0.062858 0.113809 -0.0000114616 Z M 0.113809 -0.0000114616 " transform="matrix(144.946407,0,0,144.946407,227.843574,74.958693)"/>
<path style="fill-rule:nonzero;fill:rgb(55.294118%,82.745098%,78.039216%);fill-opacity:1;stroke-width:0.0227611;stroke-linecap:butt;stroke-linejoin:miter;stroke:rgb(60%,60%,60%);stroke-opacity:0.8;stroke-miterlimit:10;" d="M 0.113817 0.000000595266 C 0.113817 0.0628471 0.0628554 0.113809 0.00000893323 0.113809 C -0.0628645 0.113809 -0.113799 0.0628471 -0.113799 0.000000595266 C -0.113799 -0.0628459 -0.0628645 -0.113808 0.00000893323 -0.113808 C 0.0628554 -0.113808 0.113817 -0.0628459 0.113817 0.000000595266 Z M 0.113817 0.000000595266 " transform="matrix(144.946407,0,0,144.946407,297.553393,98.085851)"/>
</g>
</svg>
