<?xml version="1.0" encoding="UTF-8"?>
<svg xmlns="http://www.w3.org/2000/svg" xmlns:xlink="http://www.w3.org/1999/xlink" width="600pt" height="600pt" viewBox="0 0 600 600" version="1.1">
<defs>
<clipPath id="clip1">
  <path d="M 63.324219 82 L 206.324219 82 L 206.324219 192 L 63.324219 192 Z M 63.324219 82 "/>
</clipPath>
<clipPath id="clip2">
  <path d="M 63.324219 -9.976562 L 206.324219 -9.976562 L 206.324219 283.957031 L 63.324219 283.957031 Z M 63.324219 -9.976562 L 123.554688 128.699219 C 123.554688 137.8125 116.171875 145.195312 107.0625 145.195312 C 97.949219 145.195312 90.566406 137.8125 90.566406 128.699219 C 90.566406 119.589844 97.949219 112.203125 107.0625 112.203125 C 116.171875 112.203125 123.554688 119.589844 123.554688 128.699219 Z M 63.324219 -9.976562 "/>
</clipPath>
<clipPath id="clip3">
  <path d="M 63.324219 -9.976562 L 206.324219 -9.976562 L 206.324219 283.957031 L 63.324219 283.957031 Z M 63.324219 -9.976562 L 179.085938 145.285156 C 179.085938 154.394531 171.699219 161.78125 162.589844 161.78125 C 153.480469 161.78125 146.09375 154.394531 146.09375 145.285156 C 146.09375 136.175781 153.480469 128.789062 162.589844 128.789062 C 171.699219 128.789062 179.085938 136.175781 179.085938 145.285156 Z M 63.324219 -9.976562 "/>
</clipPath>
<clipPath id="clip4">
  <path d="M 189 0 L 328 0 L 328 120 L 189 120 Z M 189 0 "/>
</clipPath>
<clipPath id="clip5">
  <path d="M 144.90625 -77.203125 L 372.046875 -77.203125 L 372.046875 186.894531 L 144.90625 186.894531 Z M 144.90625 -77.203125 L 297.632812 36.9375 C 297.632812 46.050781 290.246094 53.433594 281.136719 53.433594 C 272.027344 53.433594 264.640625 46.050781 264.640625 36.9375 C 264.640625 27.828125 272.027344 20.445312 281.136719 20.445312 C 290.246094 20.445312 297.632812 27.828125 297.632812 36.9375 Z M 144.90625 -77.203125 "/>
</clipPath>
<clipPath id="clip6">
  <path d="M 144.90625 -77.203125 L 372.046875 -77.203125 L 372.046875 186.894531 L 144.90625 186.894531 Z M 144.90625 -77.203125 L 252.316406 72.757812 C 252.316406 81.867188 244.929688 89.253906 235.820312 89.253906 C 226.710938 89.253906 219.324219 81.867188 219.324219 72.757812 C 219.324219 63.648438 226.710938 56.261719 235.820312 56.261719 C 244.929688 56.261719 252.316406 63.648438 252.316406 72.757812 Z M 144.90625 -77.203125 "/>
</clipPath>
<clipPath id="clip7">
  <path d="M 115 26 L 283 26 L 283 192 L 115 192 Z M 115 26 "/>
</clipPath>
<clipPath id="clip8">
  <path d="M 59.867188 -30.925781 L 338.539062 -30.925781 L 338.539062 248.964844 L 59.867188 248.964844 Z M 59.867188 -30.925781 L 252.316406 72.757812 C 252.316406 81.867188 244.929688 89.253906 235.820312 89.253906 C 226.710938 89.253906 219.324219 81.867188 219.324219 72.757812 C 219.324219 63.648438 226.710938 56.261719 235.820312 56.261719 C 244.929688 56.261719 252.316406 63.648438 252.316406 72.757812 Z M 59.867188 -30.925781 "/>
</clipPath>
<clipPath id="clip9">
  <path d="M 59.867188 -30.925781 L 338.539062 -30.925781 L 338.539062 248.964844 L 59.867188 248.964844 Z M 59.867188 -30.925781 L 179.085938 145.285156 C 179.085938 154.394531 171.699219 161.78125 162.589844 161.78125 C 153.480469 161.78125 146.09375 154.394531 146.09375 145.285156 C 146.09375 136.175781 153.480469 128.789062 162.589844 128.789062 C 171.699219 128.789062 179.085938 136.175781 179.085938 145.285156 Z M 59.867188 -30.925781 "/>
</clipPath>
<clipPath id="clip10">
  <path d="M 111 76.015625 L 210 76.015625 L 210 159.667969 L 111 159.667969 Z M 111 76.015625 "/>
</clipPath>
<clipPath id="clip11">
  <path d="M 14.121094 76.015625 L 306.734375 76.015625 L 306.734375 159.667969 L 14.121094 159.667969 Z M 14.121094 76.015625 L 179.085938 145.285156 C 179.085938 154.394531 171.699219 161.78125 162.589844 161.78125 C 153.480469 161.78125 146.09375 154.394531 146.09375 145.285156 C 146.09375 136.175781 153.480469 128.789062 162.589844 128.789062 C 171.699219 128.789062 179.085938 136.175781 179.085938 145.285156 Z M 14.121094 76.015625 "/>
</clipPath>
<clipPath id="clip12">
  <path d="M 14.121094 76.015625 L 306.734375 76.015625 L 306.734375 159.667969 L 14.121094 159.667969 Z M 14.121094 76.015625 L 174.765625 90.402344 C 174.765625 99.511719 167.378906 106.898438 158.269531 106.898438 C 149.15625 106.898438 141.773438 99.511719 141.773438 90.402344 C 141.773438 81.292969 149.15625 73.90625 158.269531 73.90625 C 167.378906 73.90625 174.765625 81.292969 174.765625 90.402344 Z M 14.121094 76.015625 "/>
</clipPath>
<clipPath id="clip13">
  <path d="M 100 128.054688 L 210 128.054688 L 210 313.871094 L 100 313.871094 Z M 100 128.054688 "/>
</clipPath>
<clipPath id="clip14">
  <path d="M 3.695312 128.054688 L 306.484375 128.054688 L 306.484375 313.871094 L 3.695312 313.871094 Z M 3.695312 128.054688 L 179.085938 145.285156 C 179.085938 154.394531 171.699219 161.78125 162.589844 161.78125 C 153.480469 161.78125 146.09375 154.394531 146.09375 145.285156 C 146.09375 136.175781 153.480469 128.789062 162.589844 128.789062 C 171.699219 128.789062 179.085938 136.175781 179.085938 145.285156 Z M 3.695312 128.054688 "/>
</clipPath>
<clipPath id="clip15">
  <path d="M 3.695312 128.054688 L 306.484375 128.054688 L 306.484375 313.871094 L 3.695312 313.871094 Z M 3.695312 128.054688 L 164.085938 296.644531 C 164.085938 305.753906 156.703125 313.140625 147.59375 313.140625 C 138.480469 313.140625 131.097656 305.753906 131.097656 296.644531 C 131.097656 287.535156 138.480469 280.148438 147.59375 280.148438 C 156.703125 280.148438 164.085938 287.535156 164.085938 296.644531 Z M 3.695312 128.054688 "/>
</clipPath>
<clipPath id="clip16">
  <path d="M 375 290 L 520 290 L 520 438 L 375 438 Z M 375 290 "/>
</clipPath>
<clipPath id="clip17">
  <path d="M 315.226562 237.101562 L 578.980469 237.101562 L 578.980469 491.171875 L 315.226562 491.171875 Z M 315.226562 237.101562 L 438.160156 336.964844 C 438.160156 346.078125 430.773438 353.460938 421.664062 353.460938 C 412.554688 353.460938 405.167969 346.078125 405.167969 336.964844 C 405.167969 327.855469 412.554688 320.46875 421.664062 320.46875 C 430.773438 320.46875 438.160156 327.855469 438.160156 336.964844 Z M 315.226562 237.101562 "/>
</clipPath>
<clipPath id="clip18">
  <path d="M 315.226562 237.101562 L 578.980469 237.101562 L 578.980469 491.171875 L 315.226562 491.171875 Z M 315.226562 237.101562 L 489.042969 391.3125 C 489.042969 400.425781 481.65625 407.808594 472.546875 407.808594 C 463.4375 407.808594 456.050781 400.425781 456.050781 391.3125 C 456.050781 382.203125 463.4375 374.816406 472.546875 374.816406 C 481.65625 374.816406 489.042969 382.203125 489.042969 391.3125 Z M 315.226562 237.101562 "/>
</clipPath>
<clipPath id="clip19">
  <path d="M 375 244 L 534 244 L 534 384 L 375 384 Z M 375 244 "/>
</clipPath>
<clipPath id="clip20">
  <path d="M 336.84375 172.519531 L 571.242188 172.519531 L 571.242188 455.65625 L 336.84375 455.65625 Z M 336.84375 172.519531 L 438.160156 336.964844 C 438.160156 346.078125 430.773438 353.460938 421.664062 353.460938 C 412.554688 353.460938 405.167969 346.078125 405.167969 336.964844 C 405.167969 327.855469 412.554688 320.46875 421.664062 320.46875 C 430.773438 320.46875 438.160156 327.855469 438.160156 336.964844 Z M 336.84375 172.519531 "/>
</clipPath>
<clipPath id="clip21">
  <path d="M 336.84375 172.519531 L 571.242188 172.519531 L 571.242188 455.65625 L 336.84375 455.65625 Z M 336.84375 172.519531 L 502.921875 291.214844 C 502.921875 300.324219 495.535156 307.710938 486.425781 307.710938 C 477.316406 307.710938 469.929688 300.324219 469.929688 291.214844 C 469.929688 282.101562 477.316406 274.71875 486.425781 274.71875 C 495.535156 274.71875 502.921875 282.101562 502.921875 291.214844 Z M 336.84375 172.519531 "/>
</clipPath>
<clipPath id="clip22">
  <path d="M 263 247 L 469 247 L 469 384 L 263 384 Z M 263 247 "/>
</clipPath>
<clipPath id="clip23">
  <path d="M 256.785156 159.261719 L 475.152344 159.261719 L 475.152344 472.332031 L 256.785156 472.332031 Z M 256.785156 159.261719 L 438.160156 336.964844 C 438.160156 346.078125 430.773438 353.460938 421.664062 353.460938 C 412.554688 353.460938 405.167969 346.078125 405.167969 336.964844 C 405.167969 327.855469 412.554688 320.46875 421.664062 320.46875 C 430.773438 320.46875 438.160156 327.855469 438.160156 336.964844 Z M 256.785156 159.261719 "/>
</clipPath>
<clipPath id="clip24">
  <path d="M 256.785156 159.261719 L 475.152344 159.261719 L 475.152344 472.332031 L 256.785156 472.332031 Z M 256.785156 159.261719 L 326.773438 294.632812 C 326.773438 303.742188 319.386719 311.128906 310.277344 311.128906 C 301.167969 311.128906 293.78125 303.742188 293.78125 294.632812 C 293.78125 285.519531 301.167969 278.136719 310.277344 278.136719 C 319.386719 278.136719 326.773438 285.519531 326.773438 294.632812 Z M 256.785156 159.261719 "/>
</clipPath>
<clipPath id="clip25">
  <path d="M 442 73.152344 L 563 73.152344 L 563 247.453125 L 442 247.453125 Z M 442 73.152344 "/>
</clipPath>
<clipPath id="clip26">
  <path d="M 351.859375 73.152344 L 653.402344 73.152344 L 653.402344 247.453125 L 351.859375 247.453125 Z M 351.859375 73.152344 L 532.1875 200.636719 C 532.1875 209.746094 524.800781 217.132812 515.691406 217.132812 C 506.582031 217.132812 499.195312 209.746094 499.195312 200.636719 C 499.195312 191.527344 506.582031 184.140625 515.691406 184.140625 C 524.800781 184.140625 532.1875 191.527344 532.1875 200.636719 Z M 351.859375 73.152344 "/>
</clipPath>
<clipPath id="clip27">
  <path d="M 351.859375 73.152344 L 653.402344 73.152344 L 653.402344 247.453125 L 351.859375 247.453125 Z M 351.859375 73.152344 L 506.070312 119.972656 C 506.070312 129.082031 498.6875 136.46875 489.574219 136.46875 C 480.464844 136.46875 473.082031 129.082031 473.082031 119.972656 C 473.082031 110.863281 480.464844 103.476562 489.574219 103.476562 C 498.6875 103.476562 506.070312 110.863281 506.070312 119.972656 Z M 351.859375 73.152344 "/>
</clipPath>
<clipPath id="clip28">
  <path d="M 439 153.898438 L 563 153.898438 L 563 337.949219 L 439 337.949219 Z M 439 153.898438 "/>
</clipPath>
<clipPath id="clip29">
  <path d="M 348.683594 153.898438 L 653.429688 153.898438 L 653.429688 337.949219 L 348.683594 337.949219 Z M 348.683594 153.898438 L 532.1875 200.636719 C 532.1875 209.746094 524.800781 217.132812 515.691406 217.132812 C 506.582031 217.132812 499.195312 209.746094 499.195312 200.636719 C 499.195312 191.527344 506.582031 184.140625 515.691406 184.140625 C 524.800781 184.140625 532.1875 191.527344 532.1875 200.636719 Z M 348.683594 153.898438 "/>
</clipPath>
<clipPath id="clip30">
  <path d="M 348.683594 153.898438 L 653.429688 153.898438 L 653.429688 337.949219 L 348.683594 337.949219 Z M 348.683594 153.898438 L 502.921875 291.214844 C 502.921875 300.324219 495.535156 307.710938 486.425781 307.710938 C 477.316406 307.710938 469.929688 300.324219 469.929688 291.214844 C 469.929688 282.101562 477.316406 274.71875 486.425781 274.71875 C 495.535156 274.71875 502.921875 282.101562 502.921875 291.214844 Z M 348.683594 153.898438 "/>
</clipPath>
<clipPath id="clip31">
  <path d="M 469 153 L 585 153 L 585 290 L 469 290 Z M 469 153 "/>
</clipPath>
<clipPath id="clip32">
  <path d="M 387.945312 130.445312 L 665.964844 130.445312 L 665.964844 312.742188 L 387.945312 312.742188 Z M 387.945312 130.445312 L 532.1875 200.636719 C 532.1875 209.746094 524.800781 217.132812 515.691406 217.132812 C 506.582031 217.132812 499.195312 209.746094 499.195312 200.636719 C 499.195312 191.527344 506.582031 184.140625 515.691406 184.140625 C 524.800781 184.140625 532.1875 191.527344 532.1875 200.636719 Z M 387.945312 130.445312 "/>
</clipPath>
<clipPath id="clip33">
  <path d="M 387.945312 130.445312 L 665.964844 130.445312 L 665.964844 312.742188 L 387.945312 312.742188 Z M 387.945312 130.445312 L 554.71875 242.554688 C 554.71875 251.667969 547.332031 259.050781 538.222656 259.050781 C 529.113281 259.050781 521.726562 251.667969 521.726562 242.554688 C 521.726562 233.445312 529.113281 226.058594 538.222656 226.058594 C 547.332031 226.058594 554.71875 233.445312 554.71875 242.554688 Z M 387.945312 130.445312 "/>
</clipPath>
<clipPath id="clip34">
  <path d="M 365.953125 226 L 518.214844 226 L 518.214844 338 L 365.953125 338 Z M 365.953125 226 "/>
</clipPath>
<clipPath id="clip35">
  <path d="M 365.953125 131.273438 L 518.214844 131.273438 L 518.214844 432.894531 L 365.953125 432.894531 Z M 365.953125 131.273438 L 414.242188 272.957031 C 414.242188 282.066406 406.855469 289.453125 397.746094 289.453125 C 388.636719 289.453125 381.25 282.066406 381.25 272.957031 C 381.25 263.847656 388.636719 256.460938 397.746094 256.460938 C 406.855469 256.460938 414.242188 263.847656 414.242188 272.957031 Z M 365.953125 131.273438 "/>
</clipPath>
<clipPath id="clip36">
  <path d="M 365.953125 131.273438 L 518.214844 131.273438 L 518.214844 432.894531 L 365.953125 432.894531 Z M 365.953125 131.273438 L 502.921875 291.214844 C 502.921875 300.324219 495.535156 307.710938 486.425781 307.710938 C 477.316406 307.710938 469.929688 300.324219 469.929688 291.214844 C 469.929688 282.101562 477.316406 274.71875 486.425781 274.71875 C 495.535156 274.71875 502.921875 282.101562 502.921875 291.214844 Z M 365.953125 131.273438 "/>
</clipPath>
<clipPath id="clip37">
  <path d="M 272.992188 226 L 435.027344 226 L 435.027344 342 L 272.992188 342 Z M 272.992188 226 "/>
</clipPath>
<clipPath id="clip38">
  <path d="M 272.992188 132.519531 L 435.027344 132.519531 L 435.027344 435.066406 L 272.992188 435.066406 Z M 272.992188 132.519531 L 414.242188 272.957031 C 414.242188 282.066406 406.855469 289.453125 397.746094 289.453125 C 388.636719 289.453125 381.25 282.066406 381.25 272.957031 C 381.25 263.847656 388.636719 256.460938 397.746094 256.460938 C 406.855469 256.460938 414.242188 263.847656 414.242188 272.957031 Z M 272.992188 132.519531 "/>
</clipPath>
<clipPath id="clip39">
  <path d="M 272.992188 132.519531 L 435.027344 132.519531 L 435.027344 435.066406 L 272.992188 435.066406 Z M 272.992188 132.519531 L 326.773438 294.632812 C 326.773438 303.742188 319.386719 311.128906 310.277344 311.128906 C 301.167969 311.128906 293.78125 303.742188 293.78125 294.632812 C 293.78125 285.519531 301.167969 278.136719 310.277344 278.136719 C 319.386719 278.136719 326.773438 285.519531 326.773438 294.632812 Z M 272.992188 132.519531 "/>
</clipPath>
<clipPath id="clip40">
  <path d="M 419 361 L 548 361 L 548 539 L 419 539 Z M 419 361 "/>
</clipPath>
<clipPath id="clip41">
  <path d="M 332.503906 351.300781 L 635.023438 351.300781 L 635.023438 548.730469 L 332.503906 548.730469 Z M 332.503906 351.300781 L 517.414062 407.996094 C 517.414062 417.109375 510.027344 424.492188 500.917969 424.492188 C 491.808594 424.492188 484.421875 417.109375 484.421875 407.996094 C 484.421875 398.886719 491.808594 391.503906 500.917969 391.503906 C 510.027344 391.503906 517.414062 398.886719 517.414062 407.996094 Z M 332.503906 351.300781 "/>
</clipPath>
<clipPath id="clip42">
  <path d="M 332.503906 351.300781 L 635.023438 351.300781 L 635.023438 548.730469 L 332.503906 548.730469 Z M 332.503906 351.300781 L 483.105469 492.039062 C 483.105469 501.148438 475.722656 508.535156 466.613281 508.535156 C 457.5 508.535156 450.117188 501.148438 450.117188 492.039062 C 450.117188 482.929688 457.5 475.542969 466.613281 475.542969 C 475.722656 475.542969 483.105469 482.929688 483.105469 492.039062 Z M 332.503906 351.300781 "/>
</clipPath>
<clipPath id="clip43">
  <path d="M 425 344 L 548 344 L 548 455 L 425 455 Z M 425 344 "/>
</clipPath>
<clipPath id="clip44">
  <path d="M 397.628906 266.222656 L 575.832031 266.222656 L 575.832031 533.082031 L 397.628906 533.082031 Z M 397.628906 266.222656 L 517.414062 407.996094 C 517.414062 417.109375 510.027344 424.492188 500.917969 424.492188 C 491.808594 424.492188 484.421875 417.109375 484.421875 407.996094 C 484.421875 398.886719 491.808594 391.503906 500.917969 391.503906 C 510.027344 391.503906 517.414062 398.886719 517.414062 407.996094 Z M 397.628906 266.222656 "/>
</clipPath>
<clipPath id="clip45">
  <path d="M 397.628906 266.222656 L 575.832031 266.222656 L 575.832031 533.082031 L 397.628906 533.082031 Z M 397.628906 266.222656 L 489.042969 391.3125 C 489.042969 400.425781 481.65625 407.808594 472.546875 407.808594 C 463.4375 407.808594 456.050781 400.425781 456.050781 391.3125 C 456.050781 382.203125 463.4375 374.816406 472.546875 374.816406 C 481.65625 374.816406 489.042969 382.203125 489.042969 391.3125 Z M 397.628906 266.222656 "/>
</clipPath>
<clipPath id="clip46">
  <path d="M 439 270.515625 L 548 270.515625 L 548 428.691406 L 439 428.691406 Z M 439 270.515625 "/>
</clipPath>
<clipPath id="clip47">
  <path d="M 342.914062 270.515625 L 644.425781 270.515625 L 644.425781 428.691406 L 342.914062 428.691406 Z M 342.914062 270.515625 L 517.414062 407.996094 C 517.414062 417.109375 510.027344 424.492188 500.917969 424.492188 C 491.808594 424.492188 484.421875 417.109375 484.421875 407.996094 C 484.421875 398.886719 491.808594 391.503906 500.917969 391.503906 C 510.027344 391.503906 517.414062 398.886719 517.414062 407.996094 Z M 342.914062 270.515625 "/>
</clipPath>
<clipPath id="clip48">
  <path d="M 342.914062 270.515625 L 644.425781 270.515625 L 644.425781 428.691406 L 342.914062 428.691406 Z M 342.914062 270.515625 L 502.921875 291.214844 C 502.921875 300.324219 495.535156 307.710938 486.425781 307.710938 C 477.316406 307.710938 469.929688 300.324219 469.929688 291.214844 C 469.929688 282.101562 477.316406 274.71875 486.425781 274.71875 C 495.535156 274.71875 502.921875 282.101562 502.921875 291.214844 Z M 342.914062 270.515625 "/>
</clipPath>
<clipPath id="clip49">
  <path d="M 367 445 L 514 445 L 514 586 L 367 586 Z M 367 445 "/>
</clipPath>
<clipPath id="clip50">
  <path d="M 316.613281 383.492188 L 564.167969 383.492188 L 564.167969 647.546875 L 316.613281 647.546875 Z M 316.613281 383.492188 L 483.105469 492.039062 C 483.105469 501.148438 475.722656 508.535156 466.613281 508.535156 C 457.5 508.535156 450.117188 501.148438 450.117188 492.039062 C 450.117188 482.929688 457.5 475.542969 466.613281 475.542969 C 475.722656 475.542969 483.105469 482.929688 483.105469 492.039062 Z M 316.613281 383.492188 "/>
</clipPath>
<clipPath id="clip51">
  <path d="M 316.613281 383.492188 L 564.167969 383.492188 L 564.167969 647.546875 L 316.613281 647.546875 Z M 316.613281 383.492188 L 430.667969 539.003906 C 430.667969 548.113281 423.285156 555.5 414.171875 555.5 C 405.0625 555.5 397.679688 548.113281 397.679688 539.003906 C 397.679688 529.890625 405.0625 522.507812 414.171875 522.507812 C 423.285156 522.507812 430.667969 529.890625 430.667969 539.003906 Z M 316.613281 383.492188 "/>
</clipPath>
<clipPath id="clip52">
  <path d="M 324 492 L 461 492 L 461 600 L 324 600 Z M 324 492 "/>
</clipPath>
<clipPath id="clip53">
  <path d="M 298.902344 412.355469 L 486.363281 412.355469 L 486.363281 689.707031 L 298.902344 689.707031 Z M 298.902344 412.355469 L 387.59375 563.0625 C 387.59375 572.171875 380.207031 579.554688 371.097656 579.554688 C 361.988281 579.554688 354.601562 572.171875 354.601562 563.0625 C 354.601562 553.949219 361.988281 546.566406 371.097656 546.566406 C 380.207031 546.566406 387.59375 553.949219 387.59375 563.0625 Z M 298.902344 412.355469 "/>
</clipPath>
<clipPath id="clip54">
  <path d="M 298.902344 412.355469 L 486.363281 412.355469 L 486.363281 689.707031 L 298.902344 689.707031 Z M 298.902344 412.355469 L 430.667969 539.003906 C 430.667969 548.113281 423.285156 555.5 414.171875 555.5 C 405.0625 555.5 397.679688 548.113281 397.679688 539.003906 C 397.679688 529.890625 405.0625 522.507812 414.171875 522.507812 C 423.285156 522.507812 430.667969 529.890625 430.667969 539.003906 Z M 298.902344 412.355469 "/>
</clipPath>
<clipPath id="clip55">
  <path d="M 247 199 L 357 199 L 357 342 L 247 342 Z M 247 199 "/>
</clipPath>
<clipPath id="clip56">
  <path d="M 156.796875 197.285156 L 447.21875 197.285156 L 447.21875 343.761719 L 156.796875 343.761719 Z M 156.796875 197.285156 L 310.234375 246.417969 C 310.234375 255.527344 302.851562 262.914062 293.742188 262.914062 C 284.628906 262.914062 277.246094 255.527344 277.246094 246.417969 C 277.246094 237.308594 284.628906 229.921875 293.742188 229.921875 C 302.851562 229.921875 310.234375 237.308594 310.234375 246.417969 Z M 156.796875 197.285156 "/>
</clipPath>
<clipPath id="clip57">
  <path d="M 156.796875 197.285156 L 447.21875 197.285156 L 447.21875 343.761719 L 156.796875 343.761719 Z M 156.796875 197.285156 L 326.773438 294.632812 C 326.773438 303.742188 319.386719 311.128906 310.277344 311.128906 C 301.167969 311.128906 293.78125 303.742188 293.78125 294.632812 C 293.78125 285.519531 301.167969 278.136719 310.277344 278.136719 C 319.386719 278.136719 326.773438 285.519531 326.773438 294.632812 Z M 156.796875 197.285156 "/>
</clipPath>
<clipPath id="clip58">
  <path d="M 413 28 L 537 28 L 537 167 L 413 167 Z M 413 28 "/>
</clipPath>
<clipPath id="clip59">
  <path d="M 338.953125 -6.457031 L 610.363281 -6.457031 L 610.363281 201.734375 L 338.953125 201.734375 Z M 338.953125 -6.457031 L 506.070312 119.972656 C 506.070312 129.082031 498.6875 136.46875 489.574219 136.46875 C 480.464844 136.46875 473.082031 129.082031 473.082031 119.972656 C 473.082031 110.863281 480.464844 103.476562 489.574219 103.476562 C 498.6875 103.476562 506.070312 110.863281 506.070312 119.972656 Z M 338.953125 -6.457031 "/>
</clipPath>
<clipPath id="clip60">
  <path d="M 338.953125 -6.457031 L 610.363281 -6.457031 L 610.363281 201.734375 L 338.953125 201.734375 Z M 338.953125 -6.457031 L 476.242188 75.308594 C 476.242188 84.421875 468.855469 91.804688 459.746094 91.804688 C 450.636719 91.804688 443.25 84.421875 443.25 75.308594 C 443.25 66.199219 450.636719 58.816406 459.746094 58.816406 C 468.855469 58.816406 476.242188 66.199219 476.242188 75.308594 Z M 338.953125 -6.457031 "/>
</clipPath>
<clipPath id="clip61">
  <path d="M 439 195 L 585 195 L 585 338 L 439 338 Z M 439 195 "/>
</clipPath>
<clipPath id="clip62">
  <path d="M 386.386719 136.28125 L 638.257812 136.28125 L 638.257812 397.484375 L 386.386719 397.484375 Z M 386.386719 136.28125 L 502.921875 291.214844 C 502.921875 300.324219 495.535156 307.710938 486.425781 307.710938 C 477.316406 307.710938 469.929688 300.324219 469.929688 291.214844 C 469.929688 282.101562 477.316406 274.71875 486.425781 274.71875 C 495.535156 274.71875 502.921875 282.101562 502.921875 291.214844 Z M 386.386719 136.28125 "/>
</clipPath>
<clipPath id="clip63">
  <path d="M 386.386719 136.28125 L 638.257812 136.28125 L 638.257812 397.484375 L 386.386719 397.484375 Z M 386.386719 136.28125 L 554.71875 242.554688 C 554.71875 251.667969 547.332031 259.050781 538.222656 259.050781 C 529.113281 259.050781 521.726562 251.667969 521.726562 242.554688 C 521.726562 233.445312 529.113281 226.058594 538.222656 226.058594 C 547.332031 226.058594 554.71875 233.445312 554.71875 242.554688 Z M 386.386719 136.28125 "/>
</clipPath>
<clipPath id="clip64">
  <path d="M 142.546875 247 L 315.320312 247 L 315.320312 344 L 142.546875 344 Z M 142.546875 247 "/>
</clipPath>
<clipPath id="clip65">
  <path d="M 142.546875 150.058594 L 315.320312 150.058594 L 315.320312 441.214844 L 142.546875 441.214844 Z M 142.546875 150.058594 L 326.773438 294.632812 C 326.773438 303.742188 319.386719 311.128906 310.277344 311.128906 C 301.167969 311.128906 293.78125 303.742188 293.78125 294.632812 C 293.78125 285.519531 301.167969 278.136719 310.277344 278.136719 C 319.386719 278.136719 326.773438 285.519531 326.773438 294.632812 Z M 142.546875 150.058594 "/>
</clipPath>
<clipPath id="clip66">
  <path d="M 142.546875 150.058594 L 315.320312 150.058594 L 315.320312 441.214844 L 142.546875 441.214844 Z M 142.546875 150.058594 L 164.085938 296.644531 C 164.085938 305.753906 156.703125 313.140625 147.59375 313.140625 C 138.480469 313.140625 131.097656 305.753906 131.097656 296.644531 C 131.097656 287.535156 138.480469 280.148438 147.59375 280.148438 C 156.703125 280.148438 164.085938 287.535156 164.085938 296.644531 Z M 142.546875 150.058594 "/>
</clipPath>
<clipPath id="clip67">
  <path d="M 42 212 L 195 212 L 195 344 L 42 344 Z M 42 212 "/>
</clipPath>
<clipPath id="clip68">
  <path d="M 8.910156 136.921875 L 227.867188 136.921875 L 227.867188 418.414062 L 8.910156 418.414062 Z M 8.910156 136.921875 L 164.085938 296.644531 C 164.085938 305.753906 156.703125 313.140625 147.59375 313.140625 C 138.480469 313.140625 131.097656 305.753906 131.097656 296.644531 C 131.097656 287.535156 138.480469 280.148438 147.59375 280.148438 C 156.703125 280.148438 164.085938 287.535156 164.085938 296.644531 Z M 8.910156 136.921875 "/>
</clipPath>
<clipPath id="clip69">
  <path d="M 8.910156 136.921875 L 227.867188 136.921875 L 227.867188 418.414062 L 8.910156 418.414062 Z M 8.910156 136.921875 L 105.683594 258.695312 C 105.683594 267.804688 98.300781 275.191406 89.1875 275.191406 C 80.078125 275.191406 72.695312 267.804688 72.695312 258.695312 C 72.695312 249.585938 80.078125 242.199219 89.1875 242.199219 C 98.300781 242.199219 105.683594 249.585938 105.683594 258.695312 Z M 8.910156 136.921875 "/>
</clipPath>
<clipPath id="clip70">
  <path d="M 95 287.835938 L 195 287.835938 L 195 442.183594 L 95 442.183594 Z M 95 287.835938 "/>
</clipPath>
<clipPath id="clip71">
  <path d="M -2.21875 287.835938 L 292.066406 287.835938 L 292.066406 442.183594 L -2.21875 442.183594 Z M -2.21875 287.835938 L 164.085938 296.644531 C 164.085938 305.753906 156.703125 313.140625 147.59375 313.140625 C 138.480469 313.140625 131.097656 305.753906 131.097656 296.644531 C 131.097656 287.535156 138.480469 280.148438 147.59375 280.148438 C 156.703125 280.148438 164.085938 287.535156 164.085938 296.644531 Z M -2.21875 287.835938 "/>
</clipPath>
<clipPath id="clip72">
  <path d="M -2.21875 287.835938 L 292.066406 287.835938 L 292.066406 442.183594 L -2.21875 442.183594 Z M -2.21875 287.835938 L 158.753906 433.378906 C 158.753906 442.488281 151.367188 449.875 142.257812 449.875 C 133.148438 449.875 125.761719 442.488281 125.761719 433.378906 C 125.761719 424.269531 133.148438 416.882812 142.257812 416.882812 C 151.367188 416.882812 158.753906 424.269531 158.753906 433.378906 Z M -2.21875 287.835938 "/>
</clipPath>
<clipPath id="clip73">
  <path d="M 66 249 L 195 249 L 195 388 L 66 388 Z M 66 249 "/>
</clipPath>
<clipPath id="clip74">
  <path d="M -1.484375 206.480469 L 262.320312 206.480469 L 262.320312 430.867188 L -1.484375 430.867188 Z M -1.484375 206.480469 L 164.085938 296.644531 C 164.085938 305.753906 156.703125 313.140625 147.59375 313.140625 C 138.480469 313.140625 131.097656 305.753906 131.097656 296.644531 C 131.097656 287.535156 138.480469 280.148438 147.59375 280.148438 C 156.703125 280.148438 164.085938 287.535156 164.085938 296.644531 Z M -1.484375 206.480469 "/>
</clipPath>
<clipPath id="clip75">
  <path d="M -1.484375 206.480469 L 262.320312 206.480469 L 262.320312 430.867188 L -1.484375 430.867188 Z M -1.484375 206.480469 L 129.742188 340.707031 C 129.742188 349.816406 122.355469 357.199219 113.246094 357.199219 C 104.136719 357.199219 96.75 349.816406 96.75 340.707031 C 96.75 331.59375 104.136719 324.210938 113.246094 324.210938 C 122.355469 324.210938 129.742188 331.59375 129.742188 340.707031 Z M -1.484375 206.480469 "/>
</clipPath>
<clipPath id="clip76">
  <path d="M 36.894531 249 L 172.472656 249 L 172.472656 357 L 36.894531 357 Z M 36.894531 249 "/>
</clipPath>
<clipPath id="clip77">
  <path d="M 36.894531 153.71875 L 172.472656 153.71875 L 172.472656 452.832031 L 36.894531 452.832031 Z M 36.894531 153.71875 L 164.085938 296.644531 C 164.085938 305.753906 156.703125 313.140625 147.59375 313.140625 C 138.480469 313.140625 131.097656 305.753906 131.097656 296.644531 C 131.097656 287.535156 138.480469 280.148438 147.59375 280.148438 C 156.703125 280.148438 164.085938 287.535156 164.085938 296.644531 Z M 36.894531 153.71875 "/>
</clipPath>
<clipPath id="clip78">
  <path d="M 36.894531 153.71875 L 172.472656 153.71875 L 172.472656 452.832031 L 36.894531 452.832031 Z M 36.894531 153.71875 L 78.273438 309.910156 C 78.273438 319.023438 70.886719 326.40625 61.777344 326.40625 C 52.667969 326.40625 45.28125 319.023438 45.28125 309.910156 C 45.28125 300.800781 52.667969 293.417969 61.777344 293.417969 C 70.886719 293.417969 78.273438 300.800781 78.273438 309.910156 Z M 36.894531 153.71875 "/>
</clipPath>
<clipPath id="clip79">
  <path d="M 133 460 L 256 460 L 256 596 L 133 596 Z M 133 460 "/>
</clipPath>
<clipPath id="clip80">
  <path d="M 60.320312 424.1875 L 328.484375 424.1875 L 328.484375 631.417969 L 60.320312 631.417969 Z M 60.320312 424.1875 L 225 548.457031 C 225 557.566406 217.613281 564.953125 208.503906 564.953125 C 199.394531 564.953125 192.007812 557.566406 192.007812 548.457031 C 192.007812 539.347656 199.394531 531.960938 208.503906 531.960938 C 217.613281 531.960938 225 539.347656 225 548.457031 Z M 60.320312 424.1875 "/>
</clipPath>
<clipPath id="clip81">
  <path d="M 60.320312 424.1875 L 328.484375 424.1875 L 328.484375 631.417969 L 60.320312 631.417969 Z M 60.320312 424.1875 L 196.796875 507.152344 C 196.796875 516.265625 189.414062 523.648438 180.304688 523.648438 C 171.191406 523.648438 163.808594 516.265625 163.808594 507.152344 C 163.808594 498.042969 171.191406 490.65625 180.304688 490.65625 C 189.414062 490.65625 196.796875 498.042969 196.796875 507.152344 Z M 60.320312 424.1875 "/>
</clipPath>
<clipPath id="clip82">
  <path d="M 95 386 L 227 386 L 227 554 L 95 554 Z M 95 386 "/>
</clipPath>
<clipPath id="clip83">
  <path d="M 13.386719 365.320312 L 309.171875 365.320312 L 309.171875 575.207031 L 13.386719 575.207031 Z M 13.386719 365.320312 L 196.796875 507.152344 C 196.796875 516.265625 189.414062 523.648438 180.304688 523.648438 C 171.191406 523.648438 163.808594 516.265625 163.808594 507.152344 C 163.808594 498.042969 171.191406 490.65625 180.304688 490.65625 C 189.414062 490.65625 196.796875 498.042969 196.796875 507.152344 Z M 13.386719 365.320312 "/>
</clipPath>
<clipPath id="clip84">
  <path d="M 13.386719 365.320312 L 309.171875 365.320312 L 309.171875 575.207031 L 13.386719 575.207031 Z M 13.386719 365.320312 L 158.753906 433.378906 C 158.753906 442.488281 151.367188 449.875 142.257812 449.875 C 133.148438 449.875 125.761719 442.488281 125.761719 433.378906 C 125.761719 424.269531 133.148438 416.882812 142.257812 416.882812 C 151.367188 416.882812 158.753906 424.269531 158.753906 433.378906 Z M 13.386719 365.320312 "/>
</clipPath>
<clipPath id="clip85">
  <path d="M 55 386 L 189 386 L 189 517 L 55 517 Z M 55 386 "/>
</clipPath>
<clipPath id="clip86">
  <path d="M 3.734375 325.304688 L 240.339844 325.304688 L 240.339844 578.03125 L 3.734375 578.03125 Z M 3.734375 325.304688 L 118.316406 469.960938 C 118.316406 479.070312 110.933594 486.457031 101.820312 486.457031 C 92.710938 486.457031 85.328125 479.070312 85.328125 469.960938 C 85.328125 460.847656 92.710938 453.464844 101.820312 453.464844 C 110.933594 453.464844 118.316406 460.847656 118.316406 469.960938 Z M 3.734375 325.304688 "/>
</clipPath>
<clipPath id="clip87">
  <path d="M 3.734375 325.304688 L 240.339844 325.304688 L 240.339844 578.03125 L 3.734375 578.03125 Z M 3.734375 325.304688 L 158.753906 433.378906 C 158.753906 442.488281 151.367188 449.875 142.257812 449.875 C 133.148438 449.875 125.761719 442.488281 125.761719 433.378906 C 125.761719 424.269531 133.148438 416.882812 142.257812 416.882812 C 151.367188 416.882812 158.753906 424.269531 158.753906 433.378906 Z M 3.734375 325.304688 "/>
</clipPath>
</defs>
<g id="surface701">
<g clip-path="url(#clip1)" clip-rule="nonzero">
<g clip-path="url(#clip2)" clip-rule="evenodd">
<g clip-path="url(#clip3)" clip-rule="evenodd">
<path style="fill:none;stroke-width:0.023351;stroke-linecap:butt;stroke-linejoin:miter;stroke:rgb(17.96875%,20.3125%,21.09375%);stroke-opacity:0.8;stroke-miterlimit:10;" d="M 0.783144 1.451909 L 1.17616 1.569302 " transform="matrix(141.284957,0,0,141.284957,-3.583903,-76.433632)"/>
</g>
</g>
</g>
<g clip-path="url(#clip4)" clip-rule="nonzero">
<g clip-path="url(#clip5)" clip-rule="evenodd">
<g clip-path="url(#clip6)" clip-rule="evenodd">
<path style="fill:none;stroke-width:0.023351;stroke-linecap:butt;stroke-linejoin:miter;stroke:rgb(17.96875%,20.3125%,21.09375%);stroke-opacity:0.8;stroke-miterlimit:10;" d="M 2.015222 0.802429 L 1.694478 1.055961 " transform="matrix(141.284957,0,0,141.284957,-3.583903,-76.433632)"/>
</g>
</g>
</g>
<g clip-path="url(#clip7)" clip-rule="nonzero">
<g clip-path="url(#clip8)" clip-rule="evenodd">
<g clip-path="url(#clip9)" clip-rule="evenodd">
<path style="fill:none;stroke-width:0.023351;stroke-linecap:butt;stroke-linejoin:miter;stroke:rgb(17.96875%,20.3125%,21.09375%);stroke-opacity:0.8;stroke-miterlimit:10;" d="M 1.694478 1.055961 L 1.17616 1.569302 " transform="matrix(141.284957,0,0,141.284957,-3.583903,-76.433632)"/>
</g>
</g>
</g>
<g clip-path="url(#clip10)" clip-rule="nonzero">
<g clip-path="url(#clip11)" clip-rule="evenodd">
<g clip-path="url(#clip12)" clip-rule="evenodd">
<path style="fill:none;stroke-width:0.023351;stroke-linecap:butt;stroke-linejoin:miter;stroke:rgb(17.96875%,20.3125%,21.09375%);stroke-opacity:0.8;stroke-miterlimit:10;" d="M 1.17616 1.569302 L 1.145582 1.180847 " transform="matrix(141.284957,0,0,141.284957,-3.583903,-76.433632)"/>
</g>
</g>
</g>
<g clip-path="url(#clip13)" clip-rule="nonzero">
<g clip-path="url(#clip14)" clip-rule="evenodd">
<g clip-path="url(#clip15)" clip-rule="evenodd">
<path style="fill:none;stroke-width:0.023351;stroke-linecap:butt;stroke-linejoin:miter;stroke:rgb(17.96875%,20.3125%,21.09375%);stroke-opacity:0.8;stroke-miterlimit:10;" d="M 1.17616 1.569302 L 1.070019 2.640608 " transform="matrix(141.284957,0,0,141.284957,-3.583903,-76.433632)"/>
</g>
</g>
</g>
<g clip-path="url(#clip16)" clip-rule="nonzero">
<g clip-path="url(#clip17)" clip-rule="evenodd">
<g clip-path="url(#clip18)" clip-rule="evenodd">
<path style="fill:none;stroke-width:0.023351;stroke-linecap:butt;stroke-linejoin:miter;stroke:rgb(17.96875%,20.3125%,21.09375%);stroke-opacity:0.8;stroke-miterlimit:10;" d="M 3.00986 2.925991 L 3.370003 3.310658 " transform="matrix(141.284957,0,0,141.284957,-3.583903,-76.433632)"/>
</g>
</g>
</g>
<g clip-path="url(#clip19)" clip-rule="nonzero">
<g clip-path="url(#clip20)" clip-rule="evenodd">
<g clip-path="url(#clip21)" clip-rule="evenodd">
<path style="fill:none;stroke-width:0.023351;stroke-linecap:butt;stroke-linejoin:miter;stroke:rgb(17.96875%,20.3125%,21.09375%);stroke-opacity:0.8;stroke-miterlimit:10;" d="M 3.00986 2.925991 L 3.468237 2.602177 " transform="matrix(141.284957,0,0,141.284957,-3.583903,-76.433632)"/>
</g>
</g>
</g>
<g clip-path="url(#clip22)" clip-rule="nonzero">
<g clip-path="url(#clip23)" clip-rule="evenodd">
<g clip-path="url(#clip24)" clip-rule="evenodd">
<path style="fill:none;stroke-width:0.023351;stroke-linecap:butt;stroke-linejoin:miter;stroke:rgb(17.96875%,20.3125%,21.09375%);stroke-opacity:0.8;stroke-miterlimit:10;" d="M 3.00986 2.925991 L 2.221477 2.626369 " transform="matrix(141.284957,0,0,141.284957,-3.583903,-76.433632)"/>
</g>
</g>
</g>
<g clip-path="url(#clip25)" clip-rule="nonzero">
<g clip-path="url(#clip26)" clip-rule="evenodd">
<g clip-path="url(#clip27)" clip-rule="evenodd">
<path style="fill:none;stroke-width:0.023351;stroke-linecap:butt;stroke-linejoin:miter;stroke:rgb(17.96875%,20.3125%,21.09375%);stroke-opacity:0.8;stroke-miterlimit:10;" d="M 3.675376 1.961075 L 3.490521 1.390143 " transform="matrix(141.284957,0,0,141.284957,-3.583903,-76.433632)"/>
</g>
</g>
</g>
<g clip-path="url(#clip28)" clip-rule="nonzero">
<g clip-path="url(#clip29)" clip-rule="evenodd">
<g clip-path="url(#clip30)" clip-rule="evenodd">
<path style="fill:none;stroke-width:0.023351;stroke-linecap:butt;stroke-linejoin:miter;stroke:rgb(17.96875%,20.3125%,21.09375%);stroke-opacity:0.8;stroke-miterlimit:10;" d="M 3.675376 1.961075 L 3.468237 2.602177 " transform="matrix(141.284957,0,0,141.284957,-3.583903,-76.433632)"/>
</g>
</g>
</g>
<g clip-path="url(#clip31)" clip-rule="nonzero">
<g clip-path="url(#clip32)" clip-rule="evenodd">
<g clip-path="url(#clip33)" clip-rule="evenodd">
<path style="fill:none;stroke-width:0.023351;stroke-linecap:butt;stroke-linejoin:miter;stroke:rgb(17.96875%,20.3125%,21.09375%);stroke-opacity:0.8;stroke-miterlimit:10;" d="M 3.675376 1.961075 L 3.83485 2.257766 " transform="matrix(141.284957,0,0,141.284957,-3.583903,-76.433632)"/>
</g>
</g>
</g>
<g clip-path="url(#clip34)" clip-rule="nonzero">
<g clip-path="url(#clip35)" clip-rule="evenodd">
<g clip-path="url(#clip36)" clip-rule="evenodd">
<path style="fill:none;stroke-width:0.023351;stroke-linecap:butt;stroke-linejoin:miter;stroke:rgb(17.96875%,20.3125%,21.09375%);stroke-opacity:0.8;stroke-miterlimit:10;" d="M 2.840571 2.47295 L 3.468237 2.602177 " transform="matrix(141.284957,0,0,141.284957,-3.583903,-76.433632)"/>
</g>
</g>
</g>
<g clip-path="url(#clip37)" clip-rule="nonzero">
<g clip-path="url(#clip38)" clip-rule="evenodd">
<g clip-path="url(#clip39)" clip-rule="evenodd">
<path style="fill:none;stroke-width:0.023351;stroke-linecap:butt;stroke-linejoin:miter;stroke:rgb(17.96875%,20.3125%,21.09375%);stroke-opacity:0.8;stroke-miterlimit:10;" d="M 2.840571 2.47295 L 2.221477 2.626369 " transform="matrix(141.284957,0,0,141.284957,-3.583903,-76.433632)"/>
</g>
</g>
</g>
<g clip-path="url(#clip40)" clip-rule="nonzero">
<g clip-path="url(#clip41)" clip-rule="evenodd">
<g clip-path="url(#clip42)" clip-rule="evenodd">
<path style="fill:none;stroke-width:0.023351;stroke-linecap:butt;stroke-linejoin:miter;stroke:rgb(17.96875%,20.3125%,21.09375%);stroke-opacity:0.8;stroke-miterlimit:10;" d="M 3.570811 3.428742 L 3.328006 4.02359 " transform="matrix(141.284957,0,0,141.284957,-3.583903,-76.433632)"/>
</g>
</g>
</g>
<g clip-path="url(#clip43)" clip-rule="nonzero">
<g clip-path="url(#clip44)" clip-rule="evenodd">
<g clip-path="url(#clip45)" clip-rule="evenodd">
<path style="fill:none;stroke-width:0.023351;stroke-linecap:butt;stroke-linejoin:miter;stroke:rgb(17.96875%,20.3125%,21.09375%);stroke-opacity:0.8;stroke-miterlimit:10;" d="M 3.570811 3.428742 L 3.370003 3.310658 " transform="matrix(141.284957,0,0,141.284957,-3.583903,-76.433632)"/>
</g>
</g>
</g>
<g clip-path="url(#clip46)" clip-rule="nonzero">
<g clip-path="url(#clip47)" clip-rule="evenodd">
<g clip-path="url(#clip48)" clip-rule="evenodd">
<path style="fill:none;stroke-width:0.023351;stroke-linecap:butt;stroke-linejoin:miter;stroke:rgb(17.96875%,20.3125%,21.09375%);stroke-opacity:0.8;stroke-miterlimit:10;" d="M 3.570811 3.428742 L 3.468237 2.602177 " transform="matrix(141.284957,0,0,141.284957,-3.583903,-76.433632)"/>
</g>
</g>
</g>
<g clip-path="url(#clip49)" clip-rule="nonzero">
<g clip-path="url(#clip50)" clip-rule="evenodd">
<g clip-path="url(#clip51)" clip-rule="evenodd">
<path style="fill:none;stroke-width:0.023351;stroke-linecap:butt;stroke-linejoin:miter;stroke:rgb(17.96875%,20.3125%,21.09375%);stroke-opacity:0.8;stroke-miterlimit:10;" d="M 3.328006 4.02359 L 2.956831 4.356002 " transform="matrix(141.284957,0,0,141.284957,-3.583903,-76.433632)"/>
</g>
</g>
</g>
<g clip-path="url(#clip52)" clip-rule="nonzero">
<g clip-path="url(#clip53)" clip-rule="evenodd">
<g clip-path="url(#clip54)" clip-rule="evenodd">
<path style="fill:none;stroke-width:0.023351;stroke-linecap:butt;stroke-linejoin:miter;stroke:rgb(17.96875%,20.3125%,21.09375%);stroke-opacity:0.8;stroke-miterlimit:10;" d="M 2.651956 4.526286 L 2.956831 4.356002 " transform="matrix(141.284957,0,0,141.284957,-3.583903,-76.433632)"/>
</g>
</g>
</g>
<g clip-path="url(#clip55)" clip-rule="nonzero">
<g clip-path="url(#clip56)" clip-rule="evenodd">
<g clip-path="url(#clip57)" clip-rule="evenodd">
<path style="fill:none;stroke-width:0.023351;stroke-linecap:butt;stroke-linejoin:miter;stroke:rgb(17.96875%,20.3125%,21.09375%);stroke-opacity:0.8;stroke-miterlimit:10;" d="M 2.104443 2.28511 L 2.221477 2.626369 " transform="matrix(141.284957,0,0,141.284957,-3.583903,-76.433632)"/>
</g>
</g>
</g>
<g clip-path="url(#clip58)" clip-rule="nonzero">
<g clip-path="url(#clip59)" clip-rule="evenodd">
<g clip-path="url(#clip60)" clip-rule="evenodd">
<path style="fill:none;stroke-width:0.023351;stroke-linecap:butt;stroke-linejoin:miter;stroke:rgb(17.96875%,20.3125%,21.09375%);stroke-opacity:0.8;stroke-miterlimit:10;" d="M 3.490521 1.390143 L 3.279401 1.074015 " transform="matrix(141.284957,0,0,141.284957,-3.583903,-76.433632)"/>
</g>
</g>
</g>
<g clip-path="url(#clip61)" clip-rule="nonzero">
<g clip-path="url(#clip62)" clip-rule="evenodd">
<g clip-path="url(#clip63)" clip-rule="evenodd">
<path style="fill:none;stroke-width:0.023351;stroke-linecap:butt;stroke-linejoin:miter;stroke:rgb(17.96875%,20.3125%,21.09375%);stroke-opacity:0.8;stroke-miterlimit:10;" d="M 3.468237 2.602177 L 3.83485 2.257766 " transform="matrix(141.284957,0,0,141.284957,-3.583903,-76.433632)"/>
</g>
</g>
</g>
<g clip-path="url(#clip64)" clip-rule="nonzero">
<g clip-path="url(#clip65)" clip-rule="evenodd">
<g clip-path="url(#clip66)" clip-rule="evenodd">
<path style="fill:none;stroke-width:0.023351;stroke-linecap:butt;stroke-linejoin:miter;stroke:rgb(17.96875%,20.3125%,21.09375%);stroke-opacity:0.8;stroke-miterlimit:10;" d="M 2.221477 2.626369 L 1.070019 2.640608 " transform="matrix(141.284957,0,0,141.284957,-3.583903,-76.433632)"/>
</g>
</g>
</g>
<g clip-path="url(#clip67)" clip-rule="nonzero">
<g clip-path="url(#clip68)" clip-rule="evenodd">
<g clip-path="url(#clip69)" clip-rule="evenodd">
<path style="fill:none;stroke-width:0.023351;stroke-linecap:butt;stroke-linejoin:miter;stroke:rgb(17.96875%,20.3125%,21.09375%);stroke-opacity:0.8;stroke-miterlimit:10;" d="M 1.070019 2.640608 L 0.656626 2.372007 " transform="matrix(141.284957,0,0,141.284957,-3.583903,-76.433632)"/>
</g>
</g>
</g>
<g clip-path="url(#clip70)" clip-rule="nonzero">
<g clip-path="url(#clip71)" clip-rule="evenodd">
<g clip-path="url(#clip72)" clip-rule="evenodd">
<path style="fill:none;stroke-width:0.023351;stroke-linecap:butt;stroke-linejoin:miter;stroke:rgb(17.96875%,20.3125%,21.09375%);stroke-opacity:0.8;stroke-miterlimit:10;" d="M 1.070019 2.640608 L 1.032252 3.608399 " transform="matrix(141.284957,0,0,141.284957,-3.583903,-76.433632)"/>
</g>
</g>
</g>
<g clip-path="url(#clip73)" clip-rule="nonzero">
<g clip-path="url(#clip74)" clip-rule="evenodd">
<g clip-path="url(#clip75)" clip-rule="evenodd">
<path style="fill:none;stroke-width:0.023351;stroke-linecap:butt;stroke-linejoin:miter;stroke:rgb(17.96875%,20.3125%,21.09375%);stroke-opacity:0.8;stroke-miterlimit:10;" d="M 1.070019 2.640608 L 0.82691 2.952478 " transform="matrix(141.284957,0,0,141.284957,-3.583903,-76.433632)"/>
</g>
</g>
</g>
<g clip-path="url(#clip76)" clip-rule="nonzero">
<g clip-path="url(#clip77)" clip-rule="evenodd">
<g clip-path="url(#clip78)" clip-rule="evenodd">
<path style="fill:none;stroke-width:0.023351;stroke-linecap:butt;stroke-linejoin:miter;stroke:rgb(17.96875%,20.3125%,21.09375%);stroke-opacity:0.8;stroke-miterlimit:10;" d="M 1.070019 2.640608 L 0.46262 2.734501 " transform="matrix(141.284957,0,0,141.284957,-3.583903,-76.433632)"/>
</g>
</g>
</g>
<g clip-path="url(#clip79)" clip-rule="nonzero">
<g clip-path="url(#clip80)" clip-rule="evenodd">
<g clip-path="url(#clip81)" clip-rule="evenodd">
<path style="fill:none;stroke-width:0.023351;stroke-linecap:butt;stroke-linejoin:miter;stroke:rgb(17.96875%,20.3125%,21.09375%);stroke-opacity:0.8;stroke-miterlimit:10;" d="M 1.501135 4.42291 L 1.301544 4.13056 " transform="matrix(141.284957,0,0,141.284957,-3.583903,-76.433632)"/>
</g>
</g>
</g>
<g clip-path="url(#clip82)" clip-rule="nonzero">
<g clip-path="url(#clip83)" clip-rule="evenodd">
<g clip-path="url(#clip84)" clip-rule="evenodd">
<path style="fill:none;stroke-width:0.023351;stroke-linecap:butt;stroke-linejoin:miter;stroke:rgb(17.96875%,20.3125%,21.09375%);stroke-opacity:0.8;stroke-miterlimit:10;" d="M 1.301544 4.13056 L 1.032252 3.608399 " transform="matrix(141.284957,0,0,141.284957,-3.583903,-76.433632)"/>
</g>
</g>
</g>
<g clip-path="url(#clip85)" clip-rule="nonzero">
<g clip-path="url(#clip86)" clip-rule="evenodd">
<g clip-path="url(#clip87)" clip-rule="evenodd">
<path style="fill:none;stroke-width:0.023351;stroke-linecap:butt;stroke-linejoin:miter;stroke:rgb(17.96875%,20.3125%,21.09375%);stroke-opacity:0.8;stroke-miterlimit:10;" d="M 0.74604 3.867323 L 1.032252 3.608399 " transform="matrix(141.284957,0,0,141.284957,-3.583903,-76.433632)"/>
</g>
</g>
</g>
<path style="fill-rule:nonzero;fill:rgb(100%,92.941176%,43.529412%);fill-opacity:1;stroke-width:0.023351;stroke-linecap:butt;stroke-linejoin:miter;stroke:rgb(60%,60%,60%);stroke-opacity:0.8;stroke-miterlimit:10;" d="M 0.116742 -0.0000100581 C 0.116742 0.0644928 0.0644873 0.116748 0.0000121349 0.116748 C -0.0644907 0.116748 -0.116745 0.0644928 -0.116745 -0.0000100581 C -0.116745 -0.0644853 -0.0644907 -0.116768 0.0000121349 -0.116768 C 0.0644873 -0.116768 0.116742 -0.0644853 0.116742 -0.0000100581 Z M 0.116742 -0.0000100581 " transform="matrix(141.284957,0,0,141.284957,107.060786,128.70064)"/>
<path style="fill-rule:nonzero;fill:rgb(100%,92.941176%,43.529412%);fill-opacity:1;stroke-width:0.023351;stroke-linecap:butt;stroke-linejoin:miter;stroke:rgb(60%,60%,60%);stroke-opacity:0.8;stroke-miterlimit:10;" d="M 0.116762 -0.0000128126 C 0.116762 0.06449 0.0644795 0.116745 0.00000428635 0.116745 C -0.0644709 0.116745 -0.116753 0.06449 -0.116753 -0.0000128126 C -0.116753 -0.064488 -0.0644709 -0.116743 0.00000428635 -0.116743 C 0.0644795 -0.116743 0.116762 -0.064488 0.116762 -0.0000128126 Z M 0.116762 -0.0000128126 " transform="matrix(141.284957,0,0,141.284957,281.136113,36.93931)"/>
<path style="fill-rule:nonzero;fill:rgb(100%,92.941176%,43.529412%);fill-opacity:1;stroke-width:0.023351;stroke-linecap:butt;stroke-linejoin:miter;stroke:rgb(60%,60%,60%);stroke-opacity:0.8;stroke-miterlimit:10;" d="M 0.116759 0.00000469136 C 0.116759 0.0644799 0.0644766 0.116762 0.00000135968 0.116762 C -0.0644738 0.116762 -0.116756 0.0644799 -0.116756 0.00000469136 C -0.116756 -0.0644705 -0.0644738 -0.116753 0.00000135968 -0.116753 C 0.0644766 -0.116753 0.116759 -0.0644705 0.116759 0.00000469136 Z M 0.116759 0.00000469136 " transform="matrix(141.284957,0,0,141.284957,235.82012,72.75715)"/>
<path style="fill-rule:nonzero;fill:rgb(100%,92.941176%,43.529412%);fill-opacity:1;stroke-width:0.023351;stroke-linecap:butt;stroke-linejoin:miter;stroke:rgb(60%,60%,60%);stroke-opacity:0.8;stroke-miterlimit:10;" d="M 0.116755 0.00000548665 C 0.116755 0.0644807 0.0644731 0.116763 -0.00000211764 0.116763 C -0.0644773 0.116763 -0.11676 0.0644807 -0.11676 0.00000548665 C -0.11676 -0.0644697 -0.0644773 -0.116752 -0.00000211764 -0.116752 C 0.0644731 -0.116752 0.116755 -0.0644697 0.116755 0.00000548665 Z M 0.116755 0.00000548665 " transform="matrix(141.284957,0,0,141.284957,162.590143,145.284381)"/>
<path style="fill-rule:nonzero;fill:rgb(100%,92.941176%,43.529412%);fill-opacity:1;stroke-width:0.023351;stroke-linecap:butt;stroke-linejoin:miter;stroke:rgb(60%,60%,60%);stroke-opacity:0.8;stroke-miterlimit:10;" d="M 0.116765 0.00000186392 C 0.116765 0.0644771 0.0644827 0.116759 0.00000755253 0.116759 C -0.0644953 0.116759 -0.11675 0.0644771 -0.11675 0.00000186392 C -0.11675 -0.0644733 -0.0644953 -0.116756 0.00000755253 -0.116756 C 0.0644827 -0.116756 0.116765 -0.0644733 0.116765 0.00000186392 Z M 0.116765 0.00000186392 " transform="matrix(141.284957,0,0,141.284957,158.268464,90.40208)"/>
<path style="fill-rule:nonzero;fill:rgb(55.294118%,82.745098%,78.039216%);fill-opacity:1;stroke-width:0.023351;stroke-linecap:butt;stroke-linejoin:miter;stroke:rgb(60%,60%,60%);stroke-opacity:0.8;stroke-miterlimit:10;" d="M 0.116751 -0.00000889631 C 0.116751 0.0644939 0.0644682 0.116749 -0.0000070237 0.116749 C -0.0644822 0.116749 -0.116765 0.0644939 -0.116765 -0.00000889631 C -0.116765 -0.0644841 -0.0644822 -0.116767 -0.0000070237 -0.116767 C 0.0644682 -0.116767 0.116751 -0.0644841 0.116751 -0.00000889631 Z M 0.116751 -0.00000889631 " transform="matrix(141.284957,0,0,141.284957,421.665055,336.966101)"/>
<path style="fill-rule:nonzero;fill:rgb(55.294118%,82.745098%,78.039216%);fill-opacity:1;stroke-width:0.023351;stroke-linecap:butt;stroke-linejoin:miter;stroke:rgb(60%,60%,60%);stroke-opacity:0.8;stroke-miterlimit:10;" d="M 0.116755 -0.00000572817 C 0.116755 0.0644695 0.0644726 0.116752 -0.00000264186 0.116752 C -0.0644778 0.116752 -0.11676 0.0644695 -0.11676 -0.00000572817 C -0.11676 -0.0644809 -0.0644778 -0.116763 -0.00000264186 -0.116763 C 0.0644726 -0.116763 0.116755 -0.0644809 0.116755 -0.00000572817 Z M 0.116755 -0.00000572817 " transform="matrix(141.284957,0,0,141.284957,515.69178,200.637528)"/>
<path style="fill-rule:nonzero;fill:rgb(55.294118%,82.745098%,78.039216%);fill-opacity:1;stroke-width:0.023351;stroke-linecap:butt;stroke-linejoin:miter;stroke:rgb(60%,60%,60%);stroke-opacity:0.8;stroke-miterlimit:10;" d="M 0.116755 0.00000630177 C 0.116755 0.0644815 0.0644729 0.116764 -0.00000231943 0.116764 C -0.0644775 0.116764 -0.11676 0.0644815 -0.11676 0.00000630177 C -0.11676 -0.0644689 -0.0644775 -0.116751 -0.00000231943 -0.116751 C 0.0644729 -0.116751 0.116755 -0.0644689 0.116755 0.00000630177 Z M 0.116755 0.00000630177 " transform="matrix(141.284957,0,0,141.284957,397.746421,272.956141)"/>
<path style="fill-rule:nonzero;fill:rgb(55.294118%,82.745098%,78.039216%);fill-opacity:1;stroke-width:0.023351;stroke-linecap:butt;stroke-linejoin:miter;stroke:rgb(60%,60%,60%);stroke-opacity:0.8;stroke-miterlimit:10;" d="M 0.116759 -0.0000122555 C 0.116759 0.0644906 0.0644761 0.116745 0.000000895264 0.116745 C -0.0644743 0.116745 -0.116757 0.0644906 -0.116757 -0.0000122555 C -0.116757 -0.0644874 -0.0644743 -0.116742 0.000000895264 -0.116742 C 0.0644761 -0.116742 0.116759 -0.0644874 0.116759 -0.0000122555 Z M 0.116759 -0.0000122555 " transform="matrix(141.284957,0,0,141.284957,500.917842,407.997825)"/>
<path style="fill-rule:nonzero;fill:rgb(55.294118%,82.745098%,78.039216%);fill-opacity:1;stroke-width:0.023351;stroke-linecap:butt;stroke-linejoin:miter;stroke:rgb(60%,60%,60%);stroke-opacity:0.8;stroke-miterlimit:10;" d="M 0.116741 -0.00000621649 C 0.116741 0.064469 0.0644865 0.116751 0.0000113365 0.116751 C -0.0644915 0.116751 -0.116746 0.064469 -0.116746 -0.00000621649 C -0.116746 -0.0644814 -0.0644915 -0.116764 0.0000113365 -0.116764 C 0.0644865 -0.116764 0.116741 -0.0644814 0.116741 -0.00000621649 Z M 0.116741 -0.00000621649 " transform="matrix(141.284957,0,0,141.284957,466.61168,492.039941)"/>
<path style="fill-rule:nonzero;fill:rgb(55.294118%,82.745098%,78.039216%);fill-opacity:1;stroke-width:0.023351;stroke-linecap:butt;stroke-linejoin:miter;stroke:rgb(60%,60%,60%);stroke-opacity:0.8;stroke-miterlimit:10;" d="M 0.11676 -0.0000105439 C 0.11676 0.0644923 0.0644772 0.116747 0.00000205145 0.116747 C -0.0644731 0.116747 -0.116756 0.0644923 -0.116756 -0.0000105439 C -0.116756 -0.0644857 -0.0644731 -0.116768 0.00000205145 -0.116768 C 0.0644772 -0.116768 0.11676 -0.0644857 0.11676 -0.0000105439 Z M 0.11676 -0.0000105439 " transform="matrix(141.284957,0,0,141.284957,472.546585,391.31399)"/>
<path style="fill-rule:nonzero;fill:rgb(55.294118%,82.745098%,78.039216%);fill-opacity:1;stroke-width:0.023351;stroke-linecap:butt;stroke-linejoin:miter;stroke:rgb(60%,60%,60%);stroke-opacity:0.8;stroke-miterlimit:10;" d="M 0.11676 0.0000128126 C 0.11676 0.064488 0.064478 0.116743 0.00000281014 0.116743 C -0.0644724 0.116743 -0.116755 0.064488 -0.116755 0.0000128126 C -0.116755 -0.06449 -0.0644724 -0.116745 0.00000281014 -0.116745 C 0.064478 -0.116745 0.11676 -0.06449 0.11676 0.0000128126 Z M 0.11676 0.0000128126 " transform="matrix(141.284957,0,0,141.284957,371.097259,563.06069)"/>
<path style="fill-rule:nonzero;fill:rgb(55.294118%,82.745098%,78.039216%);fill-opacity:1;stroke-width:0.023351;stroke-linecap:butt;stroke-linejoin:miter;stroke:rgb(60%,60%,60%);stroke-opacity:0.8;stroke-miterlimit:10;" d="M 0.116742 -0.00000404199 C 0.116742 0.0644712 0.064487 0.116754 0.0000118118 0.116754 C -0.064491 0.116754 -0.116746 0.0644712 -0.116746 -0.00000404199 C -0.116746 -0.0644792 -0.064491 -0.116762 0.0000118118 -0.116762 C 0.064487 -0.116762 0.116742 -0.0644792 0.116742 -0.00000404199 Z M 0.116742 -0.00000404199 " transform="matrix(141.284957,0,0,141.284957,293.740519,246.41854)"/>
<path style="fill-rule:nonzero;fill:rgb(55.294118%,82.745098%,78.039216%);fill-opacity:1;stroke-width:0.023351;stroke-linecap:butt;stroke-linejoin:miter;stroke:rgb(60%,60%,60%);stroke-opacity:0.8;stroke-miterlimit:10;" d="M 0.116744 -0.00000330521 C 0.116744 0.0644719 0.0644897 0.116754 -0.0000131475 0.116754 C -0.0644883 0.116754 -0.116743 0.0644719 -0.116743 -0.00000330521 C -0.116743 -0.0644785 -0.0644883 -0.116761 -0.0000131475 -0.116761 C 0.0644897 -0.116761 0.116744 -0.0644785 0.116744 -0.00000330521 Z M 0.116744 -0.00000330521 " transform="matrix(141.284957,0,0,141.284957,489.576076,119.973123)"/>
<path style="fill-rule:nonzero;fill:rgb(55.294118%,82.745098%,78.039216%);fill-opacity:1;stroke-width:0.023351;stroke-linecap:butt;stroke-linejoin:miter;stroke:rgb(60%,60%,60%);stroke-opacity:0.8;stroke-miterlimit:10;" d="M 0.116756 -0.0000123222 C 0.116756 0.0644905 0.0644736 0.116745 -0.00000163421 0.116745 C -0.0644768 0.116745 -0.116759 0.0644905 -0.116759 -0.0000123222 C -0.116759 -0.0644875 -0.0644768 -0.116742 -0.00000163421 -0.116742 C 0.0644736 -0.116742 0.116756 -0.0644875 0.116756 -0.0000123222 Z M 0.116756 -0.0000123222 " transform="matrix(141.284957,0,0,141.284957,459.746325,75.310335)"/>
<path style="fill-rule:nonzero;fill:rgb(55.294118%,82.745098%,78.039216%);fill-opacity:1;stroke-width:0.023351;stroke-linecap:butt;stroke-linejoin:miter;stroke:rgb(60%,60%,60%);stroke-opacity:0.8;stroke-miterlimit:10;" d="M 0.116753 0.00000741802 C 0.116753 0.0644826 0.0644703 0.116765 -0.00000489715 0.116765 C -0.0644801 0.116765 -0.116763 0.0644826 -0.116763 0.00000741802 C -0.116763 -0.0644954 -0.0644801 -0.11675 -0.00000489715 -0.11675 C 0.0644703 -0.11675 0.116753 -0.0644954 0.116753 0.00000741802 Z M 0.116753 0.00000741802 " transform="matrix(141.284957,0,0,141.284957,486.426473,291.213796)"/>
<path style="fill-rule:nonzero;fill:rgb(55.294118%,82.745098%,78.039216%);fill-opacity:1;stroke-width:0.023351;stroke-linecap:butt;stroke-linejoin:miter;stroke:rgb(60%,60%,60%);stroke-opacity:0.8;stroke-miterlimit:10;" d="M 0.116758 -0.00000714412 C 0.116758 0.0644957 0.064476 0.11675 0.000000830883 0.11675 C -0.0644744 0.11675 -0.116757 0.0644957 -0.116757 -0.00000714412 C -0.116757 -0.0644823 -0.0644744 -0.116765 0.000000830883 -0.116765 C 0.064476 -0.116765 0.116758 -0.0644823 0.116758 -0.00000714412 Z M 0.116758 -0.00000714412 " transform="matrix(141.284957,0,0,141.284957,538.222539,242.555697)"/>
<path style="fill-rule:nonzero;fill:rgb(55.294118%,82.745098%,78.039216%);fill-opacity:1;stroke-width:0.023351;stroke-linecap:butt;stroke-linejoin:miter;stroke:rgb(60%,60%,60%);stroke-opacity:0.8;stroke-miterlimit:10;" d="M 0.116745 0.0000090661 C 0.116745 0.0644843 0.0644905 0.116767 -0.0000123569 0.116767 C -0.0644876 0.116767 -0.116742 0.0644843 -0.116742 0.0000090661 C -0.116742 -0.0644938 -0.0644876 -0.116749 -0.0000123569 -0.116749 C 0.0644905 -0.116749 0.116745 -0.0644938 0.116745 0.0000090661 Z M 0.116745 0.0000090661 " transform="matrix(141.284957,0,0,141.284957,414.173621,539.002625)"/>
<path style="fill-rule:nonzero;fill:rgb(55.294118%,82.745098%,78.039216%);fill-opacity:1;stroke-width:0.023351;stroke-linecap:butt;stroke-linejoin:miter;stroke:rgb(60%,60%,60%);stroke-opacity:0.8;stroke-miterlimit:10;" d="M 0.116754 0.00000988133 C 0.116754 0.0644851 0.064472 0.116767 -0.00000322613 0.116767 C -0.0644784 0.116767 -0.116761 0.0644851 -0.116761 0.00000988133 C -0.116761 -0.064493 -0.0644784 -0.116748 -0.00000322613 -0.116748 C 0.064472 -0.116748 0.116754 -0.064493 0.116754 0.00000988133 Z M 0.116754 0.00000988133 " transform="matrix(141.284957,0,0,141.284957,310.2778,294.631416)"/>
<path style="fill-rule:nonzero;fill:rgb(100%,92.941176%,43.529412%);fill-opacity:1;stroke-width:0.023351;stroke-linecap:butt;stroke-linejoin:miter;stroke:rgb(60%,60%,60%);stroke-opacity:0.8;stroke-miterlimit:10;" d="M 0.116742 0.00000165453 C 0.116742 0.0644768 0.0644873 0.116759 0.0000120855 0.116759 C -0.0644908 0.116759 -0.116746 0.0644768 -0.116746 0.00000165453 C -0.116746 -0.0644735 -0.0644908 -0.116756 0.0000120855 -0.116756 C 0.0644873 -0.116756 0.116742 -0.0644735 0.116742 0.00000165453 Z M 0.116742 0.00000165453 " transform="matrix(141.284957,0,0,141.284957,147.592042,296.644297)"/>
<path style="fill-rule:nonzero;fill:rgb(100%,92.941176%,43.529412%);fill-opacity:1;stroke-width:0.023351;stroke-linecap:butt;stroke-linejoin:miter;stroke:rgb(60%,60%,60%);stroke-opacity:0.8;stroke-miterlimit:10;" d="M 0.116754 -0.0000020169 C 0.116754 0.0644732 0.0644715 0.116756 -0.00000372677 0.116756 C -0.0644789 0.116756 -0.116761 0.0644732 -0.116761 -0.0000020169 C -0.116761 -0.0644772 -0.0644789 -0.11676 -0.00000372677 -0.11676 C 0.0644715 -0.11676 0.116754 -0.0644772 0.116754 -0.0000020169 Z M 0.116754 -0.0000020169 " transform="matrix(141.284957,0,0,141.284957,208.504433,548.457316)"/>
<path style="fill-rule:nonzero;fill:rgb(100%,92.941176%,43.529412%);fill-opacity:1;stroke-width:0.023351;stroke-linecap:butt;stroke-linejoin:miter;stroke:rgb(60%,60%,60%);stroke-opacity:0.8;stroke-miterlimit:10;" d="M 0.116742 -0.0000094671 C 0.116742 0.0644934 0.0644872 0.116748 0.0000120301 0.116748 C -0.0644908 0.116748 -0.116746 0.0644934 -0.116746 -0.0000094671 C -0.116746 -0.0644847 -0.0644908 -0.116767 0.0000120301 -0.116767 C 0.0644872 -0.116767 0.116742 -0.0644847 0.116742 -0.0000094671 Z M 0.116742 -0.0000094671 " transform="matrix(141.284957,0,0,141.284957,180.302988,507.153681)"/>
<path style="fill-rule:nonzero;fill:rgb(100%,92.941176%,43.529412%);fill-opacity:1;stroke-width:0.023351;stroke-linecap:butt;stroke-linejoin:miter;stroke:rgb(60%,60%,60%);stroke-opacity:0.8;stroke-miterlimit:10;" d="M 0.116746 0.00000350501 C 0.116746 0.0644787 0.0644909 0.116761 -0.0000119061 0.116761 C -0.0644871 0.116761 -0.116742 0.0644787 -0.116742 0.00000350501 C -0.116742 -0.0644717 -0.0644871 -0.116754 -0.0000119061 -0.116754 C 0.0644909 -0.116754 0.116746 -0.0644717 0.116746 0.00000350501 Z M 0.116746 0.00000350501 " transform="matrix(141.284957,0,0,141.284957,89.189182,258.694817)"/>
<path style="fill-rule:nonzero;fill:rgb(100%,92.941176%,43.529412%);fill-opacity:1;stroke-width:0.023351;stroke-linecap:butt;stroke-linejoin:miter;stroke:rgb(60%,60%,60%);stroke-opacity:0.8;stroke-miterlimit:10;" d="M 0.116746 0.00000963568 C 0.116746 0.0644848 0.064491 0.116767 -0.0000118309 0.116767 C -0.064487 0.116767 -0.116742 0.0644848 -0.116742 0.00000963568 C -0.116742 -0.0644932 -0.064487 -0.116748 -0.0000118309 -0.116748 C 0.064491 -0.116748 0.116746 -0.0644932 0.116746 0.00000963568 Z M 0.116746 0.00000963568 " transform="matrix(141.284957,0,0,141.284957,101.821984,469.959576)"/>
<path style="fill-rule:nonzero;fill:rgb(100%,92.941176%,43.529412%);fill-opacity:1;stroke-width:0.023351;stroke-linecap:butt;stroke-linejoin:miter;stroke:rgb(60%,60%,60%);stroke-opacity:0.8;stroke-miterlimit:10;" d="M 0.116756 0.00000455194 C 0.116756 0.0644797 0.064474 0.116762 -0.00000123888 0.116762 C -0.0644764 0.116762 -0.116759 0.0644797 -0.116759 0.00000455194 C -0.116759 -0.0644706 -0.0644764 -0.116753 -0.00000123888 -0.116753 C 0.064474 -0.116753 0.116756 -0.0644706 0.116756 0.00000455194 Z M 0.116756 0.00000455194 " transform="matrix(141.284957,0,0,141.284957,142.257988,433.378263)"/>
<path style="fill-rule:nonzero;fill:rgb(100%,92.941176%,43.529412%);fill-opacity:1;stroke-width:0.023351;stroke-linecap:butt;stroke-linejoin:miter;stroke:rgb(60%,60%,60%);stroke-opacity:0.8;stroke-miterlimit:10;" d="M 0.116756 0.0000116665 C 0.116756 0.0644869 0.0644734 0.116742 -0.00000176228 0.116742 C -0.064477 0.116742 -0.116759 0.0644869 -0.116759 0.0000116665 C -0.116759 -0.0644912 -0.064477 -0.116746 -0.00000176228 -0.116746 C 0.0644734 -0.116746 0.116756 -0.0644912 0.116756 0.0000116665 Z M 0.116756 0.0000116665 " transform="matrix(141.284957,0,0,141.284957,113.246343,340.705383)"/>
<path style="fill-rule:nonzero;fill:rgb(100%,92.941176%,43.529412%);fill-opacity:1;stroke-width:0.023351;stroke-linecap:butt;stroke-linejoin:miter;stroke:rgb(60%,60%,60%);stroke-opacity:0.8;stroke-miterlimit:10;" d="M 0.116757 -0.000011758 C 0.116757 0.0644911 0.0644744 0.116746 -0.000000830883 0.116746 C -0.064476 0.116746 -0.116758 0.0644911 -0.116758 -0.000011758 C -0.116758 -0.064487 -0.064476 -0.116742 -0.000000830883 -0.116742 C 0.0644744 -0.116742 0.116757 -0.064487 0.116757 -0.000011758 Z M 0.116757 -0.000011758 " transform="matrix(141.284957,0,0,141.284957,61.777461,309.911817)"/>
</g>
</svg>
