<?xml version="1.0" encoding="UTF-8"?>
<svg xmlns="http://www.w3.org/2000/svg" xmlns:xlink="http://www.w3.org/1999/xlink" width="600pt" height="600pt" viewBox="0 0 600 600" version="1.1">
<defs>
<clipPath id="clip1">
  <path d="M 212 460 L 338 460 L 338 600 L 212 600 Z M 212 460 "/>
</clipPath>
<clipPath id="clip2">
  <path d="M 138.324219 425.902344 L 411.75 425.902344 L 411.75 636.144531 L 138.324219 636.144531 Z M 138.324219 425.902344 L 275.59375 555.117188 C 275.59375 564.226562 268.210938 571.613281 259.097656 571.613281 C 249.988281 571.613281 242.601562 564.226562 242.601562 555.117188 C 242.601562 546.007812 249.988281 538.621094 259.097656 538.621094 C 268.210938 538.621094 275.59375 546.007812 275.59375 555.117188 Z M 138.324219 425.902344 "/>
</clipPath>
<clipPath id="clip3">
  <path d="M 138.324219 425.902344 L 411.75 425.902344 L 411.75 636.144531 L 138.324219 636.144531 Z M 138.324219 425.902344 L 307.476562 506.933594 C 307.476562 516.042969 300.09375 523.429688 290.980469 523.429688 C 281.871094 523.429688 274.488281 516.042969 274.488281 506.933594 C 274.488281 497.824219 281.871094 490.4375 290.980469 490.4375 C 300.09375 490.4375 307.476562 497.824219 307.476562 506.933594 Z M 138.324219 425.902344 "/>
</clipPath>
<clipPath id="clip4">
  <path d="M 386.238281 467 L 458.066406 467 L 458.066406 563 L 386.238281 563 Z M 386.238281 467 "/>
</clipPath>
<clipPath id="clip5">
  <path d="M 386.238281 369.933594 L 458.066406 369.933594 L 458.066406 659.714844 L 386.238281 659.714844 Z M 386.238281 369.933594 L 467.433594 514.042969 C 467.433594 523.152344 460.050781 530.539062 450.9375 530.539062 C 441.828125 530.539062 434.441406 523.152344 434.441406 514.042969 C 434.441406 504.933594 441.828125 497.546875 450.9375 497.546875 C 460.050781 497.546875 467.433594 504.933594 467.433594 514.042969 Z M 386.238281 369.933594 "/>
</clipPath>
<clipPath id="clip6">
  <path d="M 386.238281 369.933594 L 458.066406 369.933594 L 458.066406 659.714844 L 386.238281 659.714844 Z M 386.238281 369.933594 L 409.867188 515.609375 C 409.867188 524.71875 402.484375 532.105469 393.371094 532.105469 C 384.261719 532.105469 376.875 524.71875 376.875 515.609375 C 376.875 506.5 384.261719 499.113281 393.371094 499.113281 C 402.484375 499.113281 409.867188 506.5 409.867188 515.609375 Z M 386.238281 369.933594 "/>
</clipPath>
<clipPath id="clip7">
  <path d="M 275.785156 460 L 408.5625 460 L 408.5625 563 L 275.785156 563 Z M 275.785156 460 "/>
</clipPath>
<clipPath id="clip8">
  <path d="M 275.785156 363.277344 L 408.5625 363.277344 L 408.5625 659.261719 L 275.785156 659.261719 Z M 275.785156 363.277344 L 409.867188 515.609375 C 409.867188 524.71875 402.484375 532.105469 393.371094 532.105469 C 384.261719 532.105469 376.875 524.71875 376.875 515.609375 C 376.875 506.5 384.261719 499.113281 393.371094 499.113281 C 402.484375 499.113281 409.867188 506.5 409.867188 515.609375 Z M 275.785156 363.277344 "/>
</clipPath>
<clipPath id="clip9">
  <path d="M 275.785156 363.277344 L 408.5625 363.277344 L 408.5625 659.261719 L 275.785156 659.261719 Z M 275.785156 363.277344 L 307.476562 506.933594 C 307.476562 516.042969 300.09375 523.429688 290.980469 523.429688 C 281.871094 523.429688 274.488281 516.042969 274.488281 506.933594 C 274.488281 497.824219 281.871094 490.4375 290.980469 490.4375 C 300.09375 490.4375 307.476562 497.824219 307.476562 506.933594 Z M 275.785156 363.277344 "/>
</clipPath>
<clipPath id="clip10">
  <path d="M 244 460 L 370 460 L 370 599 L 244 599 Z M 244 460 "/>
</clipPath>
<clipPath id="clip11">
  <path d="M 172.832031 422.078125 L 440.902344 422.078125 L 440.902344 636.535156 L 172.832031 636.535156 Z M 172.832031 422.078125 L 307.476562 506.933594 C 307.476562 516.042969 300.09375 523.429688 290.980469 523.429688 C 281.871094 523.429688 274.488281 516.042969 274.488281 506.933594 C 274.488281 497.824219 281.871094 490.4375 290.980469 490.4375 C 300.09375 490.4375 307.476562 497.824219 307.476562 506.933594 Z M 172.832031 422.078125 "/>
</clipPath>
<clipPath id="clip12">
  <path d="M 172.832031 422.078125 L 440.902344 422.078125 L 440.902344 636.535156 L 172.832031 636.535156 Z M 172.832031 422.078125 L 339.253906 551.683594 C 339.253906 560.796875 331.871094 568.179688 322.757812 568.179688 C 313.648438 568.179688 306.265625 560.796875 306.265625 551.683594 C 306.265625 542.574219 313.648438 535.1875 322.757812 535.1875 C 331.871094 535.1875 339.253906 542.574219 339.253906 551.683594 Z M 172.832031 422.078125 "/>
</clipPath>
<clipPath id="clip13">
  <path d="M 136 354 L 338 354 L 338 554 L 136 554 Z M 136 354 "/>
</clipPath>
<clipPath id="clip14">
  <path d="M 80.785156 296.882812 L 392.941406 296.882812 L 392.941406 610.765625 L 80.785156 610.765625 Z M 80.785156 296.882812 L 307.476562 506.933594 C 307.476562 516.042969 300.09375 523.429688 290.980469 523.429688 C 281.871094 523.429688 274.488281 516.042969 274.488281 506.933594 C 274.488281 497.824219 281.871094 490.4375 290.980469 490.4375 C 300.09375 490.4375 307.476562 497.824219 307.476562 506.933594 Z M 80.785156 296.882812 "/>
</clipPath>
<clipPath id="clip15">
  <path d="M 80.785156 296.882812 L 392.941406 296.882812 L 392.941406 610.765625 L 80.785156 610.765625 Z M 80.785156 296.882812 L 199.246094 400.71875 C 199.246094 409.828125 191.859375 417.214844 182.75 417.214844 C 173.640625 417.214844 166.253906 409.828125 166.253906 400.71875 C 166.253906 391.609375 173.640625 384.222656 182.75 384.222656 C 191.859375 384.222656 199.246094 391.609375 199.246094 400.71875 Z M 80.785156 296.882812 "/>
</clipPath>
<clipPath id="clip16">
  <path d="M 320 109.3125 L 418 109.3125 L 418 205.910156 L 320 205.910156 Z M 320 109.3125 "/>
</clipPath>
<clipPath id="clip17">
  <path d="M 222.722656 109.3125 L 514.78125 109.3125 L 514.78125 205.910156 L 222.722656 205.910156 Z M 222.722656 109.3125 L 383.15625 194.667969 C 383.15625 203.777344 375.769531 211.164062 366.660156 211.164062 C 357.550781 211.164062 350.164062 203.777344 350.164062 194.667969 C 350.164062 185.554688 357.550781 178.171875 366.660156 178.171875 C 375.769531 178.171875 383.15625 185.554688 383.15625 194.667969 Z M 222.722656 109.3125 "/>
</clipPath>
<clipPath id="clip18">
  <path d="M 222.722656 109.3125 L 514.78125 109.3125 L 514.78125 205.910156 L 222.722656 205.910156 Z M 222.722656 109.3125 L 387.34375 120.558594 C 387.34375 129.671875 379.957031 137.054688 370.847656 137.054688 C 361.738281 137.054688 354.351562 129.671875 354.351562 120.558594 C 354.351562 111.449219 361.738281 104.0625 370.847656 104.0625 C 379.957031 104.0625 387.34375 111.449219 387.34375 120.558594 Z M 222.722656 109.3125 "/>
</clipPath>
<clipPath id="clip19">
  <path d="M 351.957031 141 L 460.15625 141 L 460.15625 242 L 351.957031 242 Z M 351.957031 141 "/>
</clipPath>
<clipPath id="clip20">
  <path d="M 351.957031 44.570312 L 460.15625 44.570312 L 460.15625 338.363281 L 351.957031 338.363281 Z M 351.957031 44.570312 L 383.15625 194.667969 C 383.15625 203.777344 375.769531 211.164062 366.660156 211.164062 C 357.550781 211.164062 350.164062 203.777344 350.164062 194.667969 C 350.164062 185.554688 357.550781 178.171875 366.660156 178.171875 C 375.769531 178.171875 383.15625 185.554688 383.15625 194.667969 Z M 351.957031 44.570312 "/>
</clipPath>
<clipPath id="clip21">
  <path d="M 351.957031 44.570312 L 460.15625 44.570312 L 460.15625 338.363281 L 351.957031 338.363281 Z M 351.957031 44.570312 L 461.953125 188.269531 C 461.953125 197.382812 454.566406 204.765625 445.457031 204.765625 C 436.34375 204.765625 428.960938 197.382812 428.960938 188.269531 C 428.960938 179.160156 436.34375 171.777344 445.457031 171.777344 C 454.566406 171.777344 461.953125 179.160156 461.953125 188.269531 Z M 351.957031 44.570312 "/>
</clipPath>
<clipPath id="clip22">
  <path d="M 261 148 L 414 148 L 414 345 L 261 345 Z M 261 148 "/>
</clipPath>
<clipPath id="clip23">
  <path d="M 182.375 122.414062 L 492.785156 122.414062 L 492.785156 370.511719 L 182.375 370.511719 Z M 182.375 122.414062 L 383.15625 194.667969 C 383.15625 203.777344 375.769531 211.164062 366.660156 211.164062 C 357.550781 211.164062 350.164062 203.777344 350.164062 194.667969 C 350.164062 185.554688 357.550781 178.171875 366.660156 178.171875 C 375.769531 178.171875 383.15625 185.554688 383.15625 194.667969 Z M 182.375 122.414062 "/>
</clipPath>
<clipPath id="clip24">
  <path d="M 182.375 122.414062 L 492.785156 122.414062 L 492.785156 370.511719 L 182.375 370.511719 Z M 182.375 122.414062 L 325 298.261719 C 325 307.371094 317.613281 314.757812 308.503906 314.757812 C 299.394531 314.757812 292.007812 307.371094 292.007812 298.261719 C 292.007812 289.148438 299.394531 281.765625 308.503906 281.765625 C 317.613281 281.765625 325 289.148438 325 298.261719 Z M 182.375 122.414062 "/>
</clipPath>
<clipPath id="clip25">
  <path d="M 479 192 L 600 192 L 600 364 L 479 364 Z M 479 192 "/>
</clipPath>
<clipPath id="clip26">
  <path d="M 391.789062 182.925781 L 691.285156 182.925781 L 691.285156 373.199219 L 391.789062 373.199219 Z M 391.789062 182.925781 L 542.242188 238.859375 C 542.242188 247.972656 534.859375 255.355469 525.746094 255.355469 C 516.636719 255.355469 509.25 247.972656 509.25 238.859375 C 509.25 229.75 516.636719 222.367188 525.746094 222.367188 C 534.859375 222.367188 542.242188 229.75 542.242188 238.859375 Z M 391.789062 182.925781 "/>
</clipPath>
<clipPath id="clip27">
  <path d="M 391.789062 182.925781 L 691.285156 182.925781 L 691.285156 373.199219 L 391.789062 373.199219 Z M 391.789062 182.925781 L 573.828125 317.269531 C 573.828125 326.378906 566.441406 333.765625 557.332031 333.765625 C 548.222656 333.765625 540.835938 326.378906 540.835938 317.269531 C 540.835938 308.160156 548.222656 300.773438 557.332031 300.773438 C 566.441406 300.773438 573.828125 308.160156 573.828125 317.269531 Z M 391.789062 182.925781 "/>
</clipPath>
<clipPath id="clip28">
  <path d="M 398 141 L 573 141 L 573 286 L 398 286 Z M 398 141 "/>
</clipPath>
<clipPath id="clip29">
  <path d="M 367.066406 65.792969 L 604.132812 65.792969 L 604.132812 361.332031 L 367.066406 361.332031 Z M 367.066406 65.792969 L 542.242188 238.859375 C 542.242188 247.972656 534.859375 255.355469 525.746094 255.355469 C 516.636719 255.355469 509.25 247.972656 509.25 238.859375 C 509.25 229.75 516.636719 222.367188 525.746094 222.367188 C 534.859375 222.367188 542.242188 229.75 542.242188 238.859375 Z M 367.066406 65.792969 "/>
</clipPath>
<clipPath id="clip30">
  <path d="M 367.066406 65.792969 L 604.132812 65.792969 L 604.132812 361.332031 L 367.066406 361.332031 Z M 367.066406 65.792969 L 461.953125 188.269531 C 461.953125 197.382812 454.566406 204.765625 445.457031 204.765625 C 436.34375 204.765625 428.960938 197.382812 428.960938 188.269531 C 428.960938 179.160156 436.34375 171.777344 445.457031 171.777344 C 454.566406 171.777344 461.953125 179.160156 461.953125 188.269531 Z M 367.066406 65.792969 "/>
</clipPath>
<clipPath id="clip31">
  <path d="M 469 160.707031 L 573 160.707031 L 573 270.535156 L 469 270.535156 Z M 469 160.707031 "/>
</clipPath>
<clipPath id="clip32">
  <path d="M 374.914062 160.707031 L 667.015625 160.707031 L 667.015625 270.535156 L 374.914062 270.535156 Z M 374.914062 160.707031 L 542.242188 238.859375 C 542.242188 247.972656 534.859375 255.355469 525.746094 255.355469 C 516.636719 255.355469 509.25 247.972656 509.25 238.859375 C 509.25 229.75 516.636719 222.367188 525.746094 222.367188 C 534.859375 222.367188 542.242188 229.75 542.242188 238.859375 Z M 374.914062 160.707031 "/>
</clipPath>
<clipPath id="clip33">
  <path d="M 374.914062 160.707031 L 667.015625 160.707031 L 667.015625 270.535156 L 374.914062 270.535156 Z M 374.914062 160.707031 L 532.683594 192.386719 C 532.683594 201.496094 525.296875 208.882812 516.1875 208.882812 C 507.078125 208.882812 499.691406 201.496094 499.691406 192.386719 C 499.691406 183.277344 507.078125 175.890625 516.1875 175.890625 C 525.296875 175.890625 532.683594 183.277344 532.683594 192.386719 Z M 374.914062 160.707031 "/>
</clipPath>
<clipPath id="clip34">
  <path d="M 342 141 L 493 141 L 493 306 L 342 306 Z M 342 141 "/>
</clipPath>
<clipPath id="clip35">
  <path d="M 275.71875 97.308594 L 559.015625 97.308594 L 559.015625 349.886719 L 275.71875 349.886719 Z M 275.71875 97.308594 L 405.777344 258.929688 C 405.777344 268.039062 398.390625 275.425781 389.28125 275.425781 C 380.167969 275.425781 372.785156 268.039062 372.785156 258.929688 C 372.785156 249.820312 380.167969 242.433594 389.28125 242.433594 C 398.390625 242.433594 405.777344 249.820312 405.777344 258.929688 Z M 275.71875 97.308594 "/>
</clipPath>
<clipPath id="clip36">
  <path d="M 275.71875 97.308594 L 559.015625 97.308594 L 559.015625 349.886719 L 275.71875 349.886719 Z M 275.71875 97.308594 L 461.953125 188.269531 C 461.953125 197.382812 454.566406 204.765625 445.457031 204.765625 C 436.34375 204.765625 428.960938 197.382812 428.960938 188.269531 C 428.960938 179.160156 436.34375 171.777344 445.457031 171.777344 C 454.566406 171.777344 461.953125 179.160156 461.953125 188.269531 Z M 275.71875 97.308594 "/>
</clipPath>
<clipPath id="clip37">
  <path d="M 261 212 L 436 212 L 436 345 L 261 345 Z M 261 212 "/>
</clipPath>
<clipPath id="clip38">
  <path d="M 243.539062 128.984375 L 454.242188 128.984375 L 454.242188 428.203125 L 243.539062 428.203125 Z M 243.539062 128.984375 L 405.777344 258.929688 C 405.777344 268.039062 398.390625 275.425781 389.28125 275.425781 C 380.167969 275.425781 372.785156 268.039062 372.785156 258.929688 C 372.785156 249.820312 380.167969 242.433594 389.28125 242.433594 C 398.390625 242.433594 405.777344 249.820312 405.777344 258.929688 Z M 243.539062 128.984375 "/>
</clipPath>
<clipPath id="clip39">
  <path d="M 243.539062 128.984375 L 454.242188 128.984375 L 454.242188 428.203125 L 243.539062 428.203125 Z M 243.539062 128.984375 L 325 298.261719 C 325 307.371094 317.613281 314.757812 308.503906 314.757812 C 299.394531 314.757812 292.007812 307.371094 292.007812 298.261719 C 292.007812 289.148438 299.394531 281.765625 308.503906 281.765625 C 317.613281 281.765625 325 289.148438 325 298.261719 Z M 243.539062 128.984375 "/>
</clipPath>
<clipPath id="clip40">
  <path d="M 255 0 L 429 0 L 429 137 L 255 137 Z M 255 0 "/>
</clipPath>
<clipPath id="clip41">
  <path d="M 232.667969 -80.480469 L 451.132812 -80.480469 L 451.132812 217.425781 L 232.667969 217.425781 Z M 232.667969 -80.480469 L 398.382812 89.660156 C 398.382812 98.769531 390.996094 106.15625 381.886719 106.15625 C 372.777344 106.15625 365.390625 98.769531 365.390625 89.660156 C 365.390625 80.546875 372.777344 73.164062 381.886719 73.164062 C 390.996094 73.164062 398.382812 80.546875 398.382812 89.660156 Z M 232.667969 -80.480469 "/>
</clipPath>
<clipPath id="clip42">
  <path d="M 232.667969 -80.480469 L 451.132812 -80.480469 L 451.132812 217.425781 L 232.667969 217.425781 Z M 232.667969 -80.480469 L 318.414062 47.289062 C 318.414062 56.402344 311.027344 63.785156 301.917969 63.785156 C 292.804688 63.785156 285.421875 56.402344 285.421875 47.289062 C 285.421875 38.179688 292.804688 30.796875 301.917969 30.796875 C 311.027344 30.796875 318.414062 38.179688 318.414062 47.289062 Z M 232.667969 -80.480469 "/>
</clipPath>
<clipPath id="clip43">
  <path d="M 324 43 L 429 43 L 429 168 L 324 168 Z M 324 43 "/>
</clipPath>
<clipPath id="clip44">
  <path d="M 234.898438 38.96875 L 517.832031 38.96875 L 517.832031 171.246094 L 234.898438 171.246094 Z M 234.898438 38.96875 L 398.382812 89.660156 C 398.382812 98.769531 390.996094 106.15625 381.886719 106.15625 C 372.777344 106.15625 365.390625 98.769531 365.390625 89.660156 C 365.390625 80.546875 372.777344 73.164062 381.886719 73.164062 C 390.996094 73.164062 398.382812 80.546875 398.382812 89.660156 Z M 234.898438 38.96875 "/>
</clipPath>
<clipPath id="clip45">
  <path d="M 234.898438 38.96875 L 517.832031 38.96875 L 517.832031 171.246094 L 234.898438 171.246094 Z M 234.898438 38.96875 L 387.34375 120.558594 C 387.34375 129.671875 379.957031 137.054688 370.847656 137.054688 C 361.738281 137.054688 354.351562 129.671875 354.351562 120.558594 C 354.351562 111.449219 361.738281 104.0625 370.847656 104.0625 C 379.957031 104.0625 387.34375 111.449219 387.34375 120.558594 Z M 234.898438 38.96875 "/>
</clipPath>
<clipPath id="clip46">
  <path d="M 335 43 L 493 43 L 493 235 L 335 235 Z M 335 43 "/>
</clipPath>
<clipPath id="clip47">
  <path d="M 260.195312 10.035156 L 567.144531 10.035156 L 567.144531 267.890625 L 260.195312 267.890625 Z M 260.195312 10.035156 L 398.382812 89.660156 C 398.382812 98.769531 390.996094 106.15625 381.886719 106.15625 C 372.777344 106.15625 365.390625 98.769531 365.390625 89.660156 C 365.390625 80.546875 372.777344 73.164062 381.886719 73.164062 C 390.996094 73.164062 398.382812 80.546875 398.382812 89.660156 Z M 260.195312 10.035156 "/>
</clipPath>
<clipPath id="clip48">
  <path d="M 260.195312 10.035156 L 567.144531 10.035156 L 567.144531 267.890625 L 260.195312 267.890625 Z M 260.195312 10.035156 L 461.953125 188.269531 C 461.953125 197.382812 454.566406 204.765625 445.457031 204.765625 C 436.34375 204.765625 428.960938 197.382812 428.960938 188.269531 C 428.960938 179.160156 436.34375 171.777344 445.457031 171.777344 C 454.566406 171.777344 461.953125 179.160156 461.953125 188.269531 Z M 260.195312 10.035156 "/>
</clipPath>
<clipPath id="clip49">
  <path d="M 223.648438 0 L 310.042969 0 L 310.042969 94 L 223.648438 94 Z M 223.648438 0 "/>
</clipPath>
<clipPath id="clip50">
  <path d="M 223.648438 -99.195312 L 310.042969 -99.195312 L 310.042969 191.363281 L 223.648438 191.363281 Z M 223.648438 -99.195312 L 318.414062 47.289062 C 318.414062 56.402344 311.027344 63.785156 301.917969 63.785156 C 292.804688 63.785156 285.421875 56.402344 285.421875 47.289062 C 285.421875 38.179688 292.804688 30.796875 301.917969 30.796875 C 311.027344 30.796875 318.414062 38.179688 318.414062 47.289062 Z M 223.648438 -99.195312 "/>
</clipPath>
<clipPath id="clip51">
  <path d="M 223.648438 -99.195312 L 310.042969 -99.195312 L 310.042969 191.363281 L 223.648438 191.363281 Z M 223.648438 -99.195312 L 248.273438 44.882812 C 248.273438 53.992188 240.886719 61.378906 231.777344 61.378906 C 222.664062 61.378906 215.28125 53.992188 215.28125 44.882812 C 215.28125 35.773438 222.664062 28.386719 231.777344 28.386719 C 240.886719 28.386719 248.273438 35.773438 248.273438 44.882812 Z M 223.648438 -99.195312 "/>
</clipPath>
<clipPath id="clip52">
  <path d="M 154 0 L 261.214844 0 L 261.214844 101 L 154 101 Z M 154 0 "/>
</clipPath>
<clipPath id="clip53">
  <path d="M 154 -96.832031 L 261.214844 -96.832031 L 261.214844 195.722656 L 154 195.722656 Z M 154 -96.832031 L 199.9375 54.011719 C 199.9375 63.121094 192.550781 70.507812 183.441406 70.507812 C 174.328125 70.507812 166.945312 63.121094 166.945312 54.011719 C 166.945312 44.902344 174.328125 37.515625 183.441406 37.515625 C 192.550781 37.515625 199.9375 44.902344 199.9375 54.011719 Z M 154 -96.832031 "/>
</clipPath>
<clipPath id="clip54">
  <path d="M 154 -96.832031 L 261.214844 -96.832031 L 261.214844 195.722656 L 154 195.722656 Z M 154 -96.832031 L 248.273438 44.882812 C 248.273438 53.992188 240.886719 61.378906 231.777344 61.378906 C 222.664062 61.378906 215.28125 53.992188 215.28125 44.882812 C 215.28125 35.773438 222.664062 28.386719 231.777344 28.386719 C 240.886719 28.386719 248.273438 35.773438 248.273438 44.882812 Z M 154 -96.832031 "/>
</clipPath>
<clipPath id="clip55">
  <path d="M 261 251 L 374 251 L 374 393 L 261 393 Z M 261 251 "/>
</clipPath>
<clipPath id="clip56">
  <path d="M 173.652344 244.601562 L 461.519531 244.601562 L 461.519531 399.375 L 173.652344 399.375 Z M 173.652344 244.601562 L 343.167969 345.71875 C 343.167969 354.828125 335.78125 362.214844 326.671875 362.214844 C 317.5625 362.214844 310.175781 354.828125 310.175781 345.71875 C 310.175781 336.609375 317.5625 329.222656 326.671875 329.222656 C 335.78125 329.222656 343.167969 336.609375 343.167969 345.71875 Z M 173.652344 244.601562 "/>
</clipPath>
<clipPath id="clip57">
  <path d="M 173.652344 244.601562 L 461.519531 244.601562 L 461.519531 399.375 L 173.652344 399.375 Z M 173.652344 244.601562 L 325 298.261719 C 325 307.371094 317.613281 314.757812 308.503906 314.757812 C 299.394531 314.757812 292.007812 307.371094 292.007812 298.261719 C 292.007812 289.148438 299.394531 281.765625 308.503906 281.765625 C 317.613281 281.765625 325 289.148438 325 298.261719 Z M 173.652344 244.601562 "/>
</clipPath>
<clipPath id="clip58">
  <path d="M 510 298.894531 L 600 298.894531 L 600 388.878906 L 510 388.878906 Z M 510 298.894531 "/>
</clipPath>
<clipPath id="clip59">
  <path d="M 413.980469 298.894531 L 706.410156 298.894531 L 706.410156 388.878906 L 413.980469 388.878906 Z M 413.980469 298.894531 L 573.828125 317.269531 C 573.828125 326.378906 566.441406 333.765625 557.332031 333.765625 C 548.222656 333.765625 540.835938 326.378906 540.835938 317.269531 C 540.835938 308.160156 548.222656 300.773438 557.332031 300.773438 C 566.441406 300.773438 573.828125 308.160156 573.828125 317.269531 Z M 413.980469 298.894531 "/>
</clipPath>
<clipPath id="clip60">
  <path d="M 413.980469 298.894531 L 706.410156 298.894531 L 706.410156 388.878906 L 413.980469 388.878906 Z M 413.980469 298.894531 L 579.554688 370.507812 C 579.554688 379.621094 572.171875 387.003906 563.0625 387.003906 C 553.949219 387.003906 546.566406 379.621094 546.566406 370.507812 C 546.566406 361.398438 553.949219 354.015625 563.0625 354.015625 C 572.171875 354.015625 579.554688 361.398438 579.554688 370.507812 Z M 413.980469 298.894531 "/>
</clipPath>
<clipPath id="clip61">
  <path d="M 433.972656 141 L 527.667969 141 L 527.667969 240 L 433.972656 240 Z M 433.972656 141 "/>
</clipPath>
<clipPath id="clip62">
  <path d="M 433.972656 44.347656 L 527.667969 44.347656 L 527.667969 336.304688 L 433.972656 336.304688 Z M 433.972656 44.347656 L 461.953125 188.269531 C 461.953125 197.382812 454.566406 204.765625 445.457031 204.765625 C 436.34375 204.765625 428.960938 197.382812 428.960938 188.269531 C 428.960938 179.160156 436.34375 171.777344 445.457031 171.777344 C 454.566406 171.777344 461.953125 179.160156 461.953125 188.269531 Z M 433.972656 44.347656 "/>
</clipPath>
<clipPath id="clip63">
  <path d="M 433.972656 44.347656 L 527.667969 44.347656 L 527.667969 336.304688 L 433.972656 336.304688 Z M 433.972656 44.347656 L 532.683594 192.386719 C 532.683594 201.496094 525.296875 208.882812 516.1875 208.882812 C 507.078125 208.882812 499.691406 201.496094 499.691406 192.386719 C 499.691406 183.277344 507.078125 175.890625 516.1875 175.890625 C 525.296875 175.890625 532.683594 183.277344 532.683594 192.386719 Z M 433.972656 44.347656 "/>
</clipPath>
<clipPath id="clip64">
  <path d="M 136 251 L 356 251 L 356 448 L 136 448 Z M 136 251 "/>
</clipPath>
<clipPath id="clip65">
  <path d="M 90.476562 185.757812 L 400.773438 185.757812 L 400.773438 513.21875 L 90.476562 513.21875 Z M 90.476562 185.757812 L 325 298.261719 C 325 307.371094 317.613281 314.757812 308.503906 314.757812 C 299.394531 314.757812 292.007812 307.371094 292.007812 298.261719 C 292.007812 289.148438 299.394531 281.765625 308.503906 281.765625 C 317.613281 281.765625 325 289.148438 325 298.261719 Z M 90.476562 185.757812 "/>
</clipPath>
<clipPath id="clip66">
  <path d="M 90.476562 185.757812 L 400.773438 185.757812 L 400.773438 513.21875 L 90.476562 513.21875 Z M 90.476562 185.757812 L 199.246094 400.71875 C 199.246094 409.828125 191.859375 417.214844 182.75 417.214844 C 173.640625 417.214844 166.253906 409.828125 166.253906 400.71875 C 166.253906 391.609375 173.640625 384.222656 182.75 384.222656 C 191.859375 384.222656 199.246094 391.609375 199.246094 400.71875 Z M 90.476562 185.757812 "/>
</clipPath>
<clipPath id="clip67">
  <path d="M 115 355.992188 L 230 355.992188 L 230 511.808594 L 115 511.808594 Z M 115 355.992188 "/>
</clipPath>
<clipPath id="clip68">
  <path d="M 24.398438 355.992188 L 320.675781 355.992188 L 320.675781 511.808594 L 24.398438 511.808594 Z M 24.398438 355.992188 L 199.246094 400.71875 C 199.246094 409.828125 191.859375 417.214844 182.75 417.214844 C 173.640625 417.214844 166.253906 409.828125 166.253906 400.71875 C 166.253906 391.609375 173.640625 384.222656 182.75 384.222656 C 191.859375 384.222656 199.246094 391.609375 199.246094 400.71875 Z M 24.398438 355.992188 "/>
</clipPath>
<clipPath id="clip69">
  <path d="M 24.398438 355.992188 L 320.675781 355.992188 L 320.675781 511.808594 L 24.398438 511.808594 Z M 24.398438 355.992188 L 178.820312 467.085938 C 178.820312 476.199219 171.4375 483.582031 162.328125 483.582031 C 153.214844 483.582031 145.832031 476.199219 145.832031 467.085938 C 145.832031 457.976562 153.214844 450.589844 162.328125 450.589844 C 171.4375 450.589844 178.820312 457.976562 178.820312 467.085938 Z M 24.398438 355.992188 "/>
</clipPath>
<clipPath id="clip70">
  <path d="M 44 252 L 230 252 L 230 448 L 44 448 Z M 44 252 "/>
</clipPath>
<clipPath id="clip71">
  <path d="M -16.53125 201.753906 L 290.539062 201.753906 L 290.539062 498.476562 L -16.53125 498.476562 Z M -16.53125 201.753906 L 199.246094 400.71875 C 199.246094 409.828125 191.859375 417.214844 182.75 417.214844 C 173.640625 417.214844 166.253906 409.828125 166.253906 400.71875 C 166.253906 391.609375 173.640625 384.222656 182.75 384.222656 C 191.859375 384.222656 199.246094 391.609375 199.246094 400.71875 Z M -16.53125 201.753906 "/>
</clipPath>
<clipPath id="clip72">
  <path d="M -16.53125 201.753906 L 290.539062 201.753906 L 290.539062 498.476562 L -16.53125 498.476562 Z M -16.53125 201.753906 L 107.757812 299.515625 C 107.757812 308.625 100.371094 316.011719 91.261719 316.011719 C 82.152344 316.011719 74.765625 308.625 74.765625 299.515625 C 74.765625 290.40625 82.152344 283.019531 91.261719 283.019531 C 100.371094 283.019531 107.757812 290.40625 107.757812 299.515625 Z M -16.53125 201.753906 "/>
</clipPath>
<clipPath id="clip73">
  <path d="M 61 354 L 230 354 L 230 493 L 61 493 Z M 61 354 "/>
</clipPath>
<clipPath id="clip74">
  <path d="M 32.570312 276.792969 L 258.789062 276.792969 L 258.789062 569.347656 L 32.570312 569.347656 Z M 32.570312 276.792969 L 199.246094 400.71875 C 199.246094 409.828125 191.859375 417.214844 182.75 417.214844 C 173.640625 417.214844 166.253906 409.828125 166.253906 400.71875 C 166.253906 391.609375 173.640625 384.222656 182.75 384.222656 C 191.859375 384.222656 199.246094 391.609375 199.246094 400.71875 Z M 32.570312 276.792969 "/>
</clipPath>
<clipPath id="clip75">
  <path d="M 32.570312 276.792969 L 258.789062 276.792969 L 258.789062 569.347656 L 32.570312 569.347656 Z M 32.570312 276.792969 L 125.109375 445.425781 C 125.109375 454.535156 117.722656 461.921875 108.613281 461.921875 C 99.503906 461.921875 92.117188 454.535156 92.117188 445.425781 C 92.117188 436.316406 99.503906 428.929688 108.613281 428.929688 C 117.722656 428.929688 125.109375 436.316406 125.109375 445.425781 Z M 32.570312 276.792969 "/>
</clipPath>
<clipPath id="clip76">
  <path d="M 95.277344 342 L 215.773438 342 L 215.773438 448 L 95.277344 448 Z M 95.277344 342 "/>
</clipPath>
<clipPath id="clip77">
  <path d="M 95.277344 247.976562 L 215.773438 247.976562 L 215.773438 541.703125 L 95.277344 541.703125 Z M 95.277344 247.976562 L 199.246094 400.71875 C 199.246094 409.828125 191.859375 417.214844 182.75 417.214844 C 173.640625 417.214844 166.253906 409.828125 166.253906 400.71875 C 166.253906 391.609375 173.640625 384.222656 182.75 384.222656 C 191.859375 384.222656 199.246094 391.609375 199.246094 400.71875 Z M 95.277344 247.976562 "/>
</clipPath>
<clipPath id="clip78">
  <path d="M 95.277344 247.976562 L 215.773438 247.976562 L 215.773438 541.703125 L 95.277344 541.703125 Z M 95.277344 247.976562 L 144.800781 388.964844 C 144.800781 398.074219 137.417969 405.460938 128.304688 405.460938 C 119.195312 405.460938 111.8125 398.074219 111.8125 388.964844 C 111.8125 379.855469 119.195312 372.46875 128.304688 372.46875 C 137.417969 372.46875 144.800781 379.855469 144.800781 388.964844 Z M 95.277344 247.976562 "/>
</clipPath>
<clipPath id="clip79">
  <path d="M 21 152.183594 L 120 152.183594 L 120 235.691406 L 21 235.691406 Z M 21 152.183594 "/>
</clipPath>
<clipPath id="clip80">
  <path d="M -75.121094 152.183594 L 216.703125 152.183594 L 216.703125 235.691406 L -75.121094 235.691406 Z M -75.121094 152.183594 L 84.875 169.125 C 84.875 178.234375 77.488281 185.621094 68.378906 185.621094 C 59.269531 185.621094 51.882812 178.234375 51.882812 169.125 C 51.882812 160.011719 59.269531 152.628906 68.378906 152.628906 C 77.488281 152.628906 84.875 160.011719 84.875 169.125 Z M -75.121094 152.183594 "/>
</clipPath>
<clipPath id="clip81">
  <path d="M -75.121094 152.183594 L 216.703125 152.183594 L 216.703125 235.691406 L -75.121094 235.691406 Z M -75.121094 152.183594 L 89.703125 218.753906 C 89.703125 227.863281 82.316406 235.246094 73.207031 235.246094 C 64.097656 235.246094 56.710938 227.863281 56.710938 218.753906 C 56.710938 209.640625 64.097656 202.257812 73.207031 202.257812 C 82.316406 202.257812 89.703125 209.640625 89.703125 218.753906 Z M -75.121094 152.183594 "/>
</clipPath>
<clipPath id="clip82">
  <path d="M 26 184.722656 L 138 184.722656 L 138 333.542969 L 26 333.542969 Z M 26 184.722656 "/>
</clipPath>
<clipPath id="clip83">
  <path d="M -67.558594 184.722656 L 232.023438 184.722656 L 232.023438 333.542969 L -67.558594 333.542969 Z M -67.558594 184.722656 L 89.703125 218.753906 C 89.703125 227.863281 82.316406 235.246094 73.207031 235.246094 C 64.097656 235.246094 56.710938 227.863281 56.710938 218.753906 C 56.710938 209.640625 64.097656 202.257812 73.207031 202.257812 C 82.316406 202.257812 89.703125 209.640625 89.703125 218.753906 Z M -67.558594 184.722656 "/>
</clipPath>
<clipPath id="clip84">
  <path d="M -67.558594 184.722656 L 232.023438 184.722656 L 232.023438 333.542969 L -67.558594 333.542969 Z M -67.558594 184.722656 L 107.757812 299.515625 C 107.757812 308.625 100.371094 316.011719 91.261719 316.011719 C 82.152344 316.011719 74.765625 308.625 74.765625 299.515625 C 74.765625 290.40625 82.152344 283.019531 91.261719 283.019531 C 100.371094 283.019531 107.757812 290.40625 107.757812 299.515625 Z M -67.558594 184.722656 "/>
</clipPath>
<clipPath id="clip85">
  <path d="M 28.101562 250 L 100.09375 250 L 100.09375 347 L 28.101562 347 Z M 28.101562 250 "/>
</clipPath>
<clipPath id="clip86">
  <path d="M 28.101562 153.328125 L 100.09375 153.328125 L 100.09375 443.5625 L 28.101562 443.5625 Z M 28.101562 153.328125 L 53.433594 297.378906 C 53.433594 306.488281 46.050781 313.875 36.9375 313.875 C 27.828125 313.875 20.445312 306.488281 20.445312 297.378906 C 20.445312 288.265625 27.828125 280.882812 36.9375 280.882812 C 46.050781 280.882812 53.433594 288.265625 53.433594 297.378906 Z M 28.101562 153.328125 "/>
</clipPath>
<clipPath id="clip87">
  <path d="M 28.101562 153.328125 L 100.09375 153.328125 L 100.09375 443.5625 L 28.101562 443.5625 Z M 28.101562 153.328125 L 107.757812 299.515625 C 107.757812 308.625 100.371094 316.011719 91.261719 316.011719 C 82.152344 316.011719 74.765625 308.625 74.765625 299.515625 C 74.765625 290.40625 82.152344 283.019531 91.261719 283.019531 C 100.371094 283.019531 107.757812 290.40625 107.757812 299.515625 Z M 28.101562 153.328125 "/>
</clipPath>
</defs>
<g id="surface731">
<g clip-path="url(#clip1)" clip-rule="nonzero">
<g clip-path="url(#clip2)" clip-rule="evenodd">
<g clip-path="url(#clip3)" clip-rule="evenodd">
<path style="fill:none;stroke-width:0.0234215;stroke-linecap:butt;stroke-linejoin:miter;stroke:rgb(17.96875%,20.3125%,21.09375%);stroke-opacity:0.8;stroke-miterlimit:10;" d="M 2.266088 4.493941 L 2.492433 4.151873 " transform="matrix(140.859778,0,0,140.859778,-60.103055,-77.898379)"/>
</g>
</g>
</g>
<g clip-path="url(#clip4)" clip-rule="nonzero">
<g clip-path="url(#clip5)" clip-rule="evenodd">
<g clip-path="url(#clip6)" clip-rule="evenodd">
<path style="fill:none;stroke-width:0.0234215;stroke-linecap:butt;stroke-linejoin:miter;stroke:rgb(17.96875%,20.3125%,21.09375%);stroke-opacity:0.8;stroke-miterlimit:10;" d="M 3.628009 4.202345 L 3.21933 4.213465 " transform="matrix(140.859778,0,0,140.859778,-60.103055,-77.898379)"/>
</g>
</g>
</g>
<g clip-path="url(#clip7)" clip-rule="nonzero">
<g clip-path="url(#clip8)" clip-rule="evenodd">
<g clip-path="url(#clip9)" clip-rule="evenodd">
<path style="fill:none;stroke-width:0.0234215;stroke-linecap:butt;stroke-linejoin:miter;stroke:rgb(17.96875%,20.3125%,21.09375%);stroke-opacity:0.8;stroke-miterlimit:10;" d="M 3.21933 4.213465 L 2.492433 4.151873 " transform="matrix(140.859778,0,0,140.859778,-60.103055,-77.898379)"/>
</g>
</g>
</g>
<g clip-path="url(#clip10)" clip-rule="nonzero">
<g clip-path="url(#clip11)" clip-rule="evenodd">
<g clip-path="url(#clip12)" clip-rule="evenodd">
<path style="fill:none;stroke-width:0.0234215;stroke-linecap:butt;stroke-linejoin:miter;stroke:rgb(17.96875%,20.3125%,21.09375%);stroke-opacity:0.8;stroke-miterlimit:10;" d="M 2.492433 4.151873 L 2.718028 4.469565 " transform="matrix(140.859778,0,0,140.859778,-60.103055,-77.898379)"/>
</g>
</g>
</g>
<g clip-path="url(#clip13)" clip-rule="nonzero">
<g clip-path="url(#clip14)" clip-rule="evenodd">
<g clip-path="url(#clip15)" clip-rule="evenodd">
<path style="fill:none;stroke-width:0.0234215;stroke-linecap:butt;stroke-linejoin:miter;stroke:rgb(17.96875%,20.3125%,21.09375%);stroke-opacity:0.8;stroke-miterlimit:10;" d="M 2.492433 4.151873 L 1.724077 3.397827 " transform="matrix(140.859778,0,0,140.859778,-60.103055,-77.898379)"/>
</g>
</g>
</g>
<g clip-path="url(#clip16)" clip-rule="nonzero">
<g clip-path="url(#clip17)" clip-rule="evenodd">
<g clip-path="url(#clip18)" clip-rule="evenodd">
<path style="fill:none;stroke-width:0.0234215;stroke-linecap:butt;stroke-linejoin:miter;stroke:rgb(17.96875%,20.3125%,21.09375%);stroke-opacity:0.8;stroke-miterlimit:10;" d="M 3.029702 1.935019 L 3.059431 1.408897 " transform="matrix(140.859778,0,0,140.859778,-60.103055,-77.898379)"/>
</g>
</g>
</g>
<g clip-path="url(#clip19)" clip-rule="nonzero">
<g clip-path="url(#clip20)" clip-rule="evenodd">
<g clip-path="url(#clip21)" clip-rule="evenodd">
<path style="fill:none;stroke-width:0.0234215;stroke-linecap:butt;stroke-linejoin:miter;stroke:rgb(17.96875%,20.3125%,21.09375%);stroke-opacity:0.8;stroke-miterlimit:10;" d="M 3.029702 1.935019 L 3.589102 1.889595 " transform="matrix(140.859778,0,0,140.859778,-60.103055,-77.898379)"/>
</g>
</g>
</g>
<g clip-path="url(#clip22)" clip-rule="nonzero">
<g clip-path="url(#clip23)" clip-rule="evenodd">
<g clip-path="url(#clip24)" clip-rule="evenodd">
<path style="fill:none;stroke-width:0.0234215;stroke-linecap:butt;stroke-linejoin:miter;stroke:rgb(17.96875%,20.3125%,21.09375%);stroke-opacity:0.8;stroke-miterlimit:10;" d="M 3.029702 1.935019 L 2.616836 2.670458 " transform="matrix(140.859778,0,0,140.859778,-60.103055,-77.898379)"/>
</g>
</g>
</g>
<g clip-path="url(#clip25)" clip-rule="nonzero">
<g clip-path="url(#clip26)" clip-rule="evenodd">
<g clip-path="url(#clip27)" clip-rule="evenodd">
<path style="fill:none;stroke-width:0.0234215;stroke-linecap:butt;stroke-linejoin:miter;stroke:rgb(17.96875%,20.3125%,21.09375%);stroke-opacity:0.8;stroke-miterlimit:10;" d="M 4.159095 2.248745 L 4.383331 2.805399 " transform="matrix(140.859778,0,0,140.859778,-60.103055,-77.898379)"/>
</g>
</g>
</g>
<g clip-path="url(#clip28)" clip-rule="nonzero">
<g clip-path="url(#clip29)" clip-rule="evenodd">
<g clip-path="url(#clip30)" clip-rule="evenodd">
<path style="fill:none;stroke-width:0.0234215;stroke-linecap:butt;stroke-linejoin:miter;stroke:rgb(17.96875%,20.3125%,21.09375%);stroke-opacity:0.8;stroke-miterlimit:10;" d="M 4.159095 2.248745 L 3.589102 1.889595 " transform="matrix(140.859778,0,0,140.859778,-60.103055,-77.898379)"/>
</g>
</g>
</g>
<g clip-path="url(#clip31)" clip-rule="nonzero">
<g clip-path="url(#clip32)" clip-rule="evenodd">
<g clip-path="url(#clip33)" clip-rule="evenodd">
<path style="fill:none;stroke-width:0.0234215;stroke-linecap:butt;stroke-linejoin:miter;stroke:rgb(17.96875%,20.3125%,21.09375%);stroke-opacity:0.8;stroke-miterlimit:10;" d="M 4.159095 2.248745 L 4.091236 1.918824 " transform="matrix(140.859778,0,0,140.859778,-60.103055,-77.898379)"/>
</g>
</g>
</g>
<g clip-path="url(#clip34)" clip-rule="nonzero">
<g clip-path="url(#clip35)" clip-rule="evenodd">
<g clip-path="url(#clip36)" clip-rule="evenodd">
<path style="fill:none;stroke-width:0.0234215;stroke-linecap:butt;stroke-linejoin:miter;stroke:rgb(17.96875%,20.3125%,21.09375%);stroke-opacity:0.8;stroke-miterlimit:10;" d="M 3.190295 2.39123 L 3.589102 1.889595 " transform="matrix(140.859778,0,0,140.859778,-60.103055,-77.898379)"/>
</g>
</g>
</g>
<g clip-path="url(#clip37)" clip-rule="nonzero">
<g clip-path="url(#clip38)" clip-rule="evenodd">
<g clip-path="url(#clip39)" clip-rule="evenodd">
<path style="fill:none;stroke-width:0.0234215;stroke-linecap:butt;stroke-linejoin:miter;stroke:rgb(17.96875%,20.3125%,21.09375%);stroke-opacity:0.8;stroke-miterlimit:10;" d="M 3.190295 2.39123 L 2.616836 2.670458 " transform="matrix(140.859778,0,0,140.859778,-60.103055,-77.898379)"/>
</g>
</g>
</g>
<g clip-path="url(#clip40)" clip-rule="nonzero">
<g clip-path="url(#clip41)" clip-rule="evenodd">
<g clip-path="url(#clip42)" clip-rule="evenodd">
<path style="fill:none;stroke-width:0.0234215;stroke-linecap:butt;stroke-linejoin:miter;stroke:rgb(17.96875%,20.3125%,21.09375%);stroke-opacity:0.8;stroke-miterlimit:10;" d="M 3.1378 1.189541 L 2.570081 0.888738 " transform="matrix(140.859778,0,0,140.859778,-60.103055,-77.898379)"/>
</g>
</g>
</g>
<g clip-path="url(#clip43)" clip-rule="nonzero">
<g clip-path="url(#clip44)" clip-rule="evenodd">
<g clip-path="url(#clip45)" clip-rule="evenodd">
<path style="fill:none;stroke-width:0.0234215;stroke-linecap:butt;stroke-linejoin:miter;stroke:rgb(17.96875%,20.3125%,21.09375%);stroke-opacity:0.8;stroke-miterlimit:10;" d="M 3.1378 1.189541 L 3.059431 1.408897 " transform="matrix(140.859778,0,0,140.859778,-60.103055,-77.898379)"/>
</g>
</g>
</g>
<g clip-path="url(#clip46)" clip-rule="nonzero">
<g clip-path="url(#clip47)" clip-rule="evenodd">
<g clip-path="url(#clip48)" clip-rule="evenodd">
<path style="fill:none;stroke-width:0.0234215;stroke-linecap:butt;stroke-linejoin:miter;stroke:rgb(17.96875%,20.3125%,21.09375%);stroke-opacity:0.8;stroke-miterlimit:10;" d="M 3.1378 1.189541 L 3.589102 1.889595 " transform="matrix(140.859778,0,0,140.859778,-60.103055,-77.898379)"/>
</g>
</g>
</g>
<g clip-path="url(#clip49)" clip-rule="nonzero">
<g clip-path="url(#clip50)" clip-rule="evenodd">
<g clip-path="url(#clip51)" clip-rule="evenodd">
<path style="fill:none;stroke-width:0.0234215;stroke-linecap:butt;stroke-linejoin:miter;stroke:rgb(17.96875%,20.3125%,21.09375%);stroke-opacity:0.8;stroke-miterlimit:10;" d="M 2.570081 0.888738 L 2.072134 0.871655 " transform="matrix(140.859778,0,0,140.859778,-60.103055,-77.898379)"/>
</g>
</g>
</g>
<g clip-path="url(#clip52)" clip-rule="nonzero">
<g clip-path="url(#clip53)" clip-rule="evenodd">
<g clip-path="url(#clip54)" clip-rule="evenodd">
<path style="fill:none;stroke-width:0.0234215;stroke-linecap:butt;stroke-linejoin:miter;stroke:rgb(17.96875%,20.3125%,21.09375%);stroke-opacity:0.8;stroke-miterlimit:10;" d="M 1.728985 0.936464 L 2.072134 0.871655 " transform="matrix(140.859778,0,0,140.859778,-60.103055,-77.898379)"/>
</g>
</g>
</g>
<g clip-path="url(#clip55)" clip-rule="nonzero">
<g clip-path="url(#clip56)" clip-rule="evenodd">
<g clip-path="url(#clip57)" clip-rule="evenodd">
<path style="fill:none;stroke-width:0.0234215;stroke-linecap:butt;stroke-linejoin:miter;stroke:rgb(17.96875%,20.3125%,21.09375%);stroke-opacity:0.8;stroke-miterlimit:10;" d="M 2.745815 3.007368 L 2.616836 2.670458 " transform="matrix(140.859778,0,0,140.859778,-60.103055,-77.898379)"/>
</g>
</g>
</g>
<g clip-path="url(#clip58)" clip-rule="nonzero">
<g clip-path="url(#clip59)" clip-rule="evenodd">
<g clip-path="url(#clip60)" clip-rule="evenodd">
<path style="fill:none;stroke-width:0.0234215;stroke-linecap:butt;stroke-linejoin:miter;stroke:rgb(17.96875%,20.3125%,21.09375%);stroke-opacity:0.8;stroke-miterlimit:10;" d="M 4.383331 2.805399 L 4.424013 3.183352 " transform="matrix(140.859778,0,0,140.859778,-60.103055,-77.898379)"/>
</g>
</g>
</g>
<g clip-path="url(#clip61)" clip-rule="nonzero">
<g clip-path="url(#clip62)" clip-rule="evenodd">
<g clip-path="url(#clip63)" clip-rule="evenodd">
<path style="fill:none;stroke-width:0.0234215;stroke-linecap:butt;stroke-linejoin:miter;stroke:rgb(17.96875%,20.3125%,21.09375%);stroke-opacity:0.8;stroke-miterlimit:10;" d="M 3.589102 1.889595 L 4.091236 1.918824 " transform="matrix(140.859778,0,0,140.859778,-60.103055,-77.898379)"/>
</g>
</g>
</g>
<g clip-path="url(#clip64)" clip-rule="nonzero">
<g clip-path="url(#clip65)" clip-rule="evenodd">
<g clip-path="url(#clip66)" clip-rule="evenodd">
<path style="fill:none;stroke-width:0.0234215;stroke-linecap:butt;stroke-linejoin:miter;stroke:rgb(17.96875%,20.3125%,21.09375%);stroke-opacity:0.8;stroke-miterlimit:10;" d="M 2.616836 2.670458 L 1.724077 3.397827 " transform="matrix(140.859778,0,0,140.859778,-60.103055,-77.898379)"/>
</g>
</g>
</g>
<g clip-path="url(#clip67)" clip-rule="nonzero">
<g clip-path="url(#clip68)" clip-rule="evenodd">
<g clip-path="url(#clip69)" clip-rule="evenodd">
<path style="fill:none;stroke-width:0.0234215;stroke-linecap:butt;stroke-linejoin:miter;stroke:rgb(17.96875%,20.3125%,21.09375%);stroke-opacity:0.8;stroke-miterlimit:10;" d="M 1.724077 3.397827 L 1.579096 3.868985 " transform="matrix(140.859778,0,0,140.859778,-60.103055,-77.898379)"/>
</g>
</g>
</g>
<g clip-path="url(#clip70)" clip-rule="nonzero">
<g clip-path="url(#clip71)" clip-rule="evenodd">
<g clip-path="url(#clip72)" clip-rule="evenodd">
<path style="fill:none;stroke-width:0.0234215;stroke-linecap:butt;stroke-linejoin:miter;stroke:rgb(17.96875%,20.3125%,21.09375%);stroke-opacity:0.8;stroke-miterlimit:10;" d="M 1.724077 3.397827 L 1.074578 2.67936 " transform="matrix(140.859778,0,0,140.859778,-60.103055,-77.898379)"/>
</g>
</g>
</g>
<g clip-path="url(#clip73)" clip-rule="nonzero">
<g clip-path="url(#clip74)" clip-rule="evenodd">
<g clip-path="url(#clip75)" clip-rule="evenodd">
<path style="fill:none;stroke-width:0.0234215;stroke-linecap:butt;stroke-linejoin:miter;stroke:rgb(17.96875%,20.3125%,21.09375%);stroke-opacity:0.8;stroke-miterlimit:10;" d="M 1.724077 3.397827 L 1.197761 3.715214 " transform="matrix(140.859778,0,0,140.859778,-60.103055,-77.898379)"/>
</g>
</g>
</g>
<g clip-path="url(#clip76)" clip-rule="nonzero">
<g clip-path="url(#clip77)" clip-rule="evenodd">
<g clip-path="url(#clip78)" clip-rule="evenodd">
<path style="fill:none;stroke-width:0.0234215;stroke-linecap:butt;stroke-linejoin:miter;stroke:rgb(17.96875%,20.3125%,21.09375%);stroke-opacity:0.8;stroke-miterlimit:10;" d="M 1.724077 3.397827 L 1.337555 3.314383 " transform="matrix(140.859778,0,0,140.859778,-60.103055,-77.898379)"/>
</g>
</g>
</g>
<g clip-path="url(#clip79)" clip-rule="nonzero">
<g clip-path="url(#clip80)" clip-rule="evenodd">
<g clip-path="url(#clip81)" clip-rule="evenodd">
<path style="fill:none;stroke-width:0.0234215;stroke-linecap:butt;stroke-linejoin:miter;stroke:rgb(17.96875%,20.3125%,21.09375%);stroke-opacity:0.8;stroke-miterlimit:10;" d="M 0.912127 1.753683 L 0.946403 2.106011 " transform="matrix(140.859778,0,0,140.859778,-60.103055,-77.898379)"/>
</g>
</g>
</g>
<g clip-path="url(#clip82)" clip-rule="nonzero">
<g clip-path="url(#clip83)" clip-rule="evenodd">
<g clip-path="url(#clip84)" clip-rule="evenodd">
<path style="fill:none;stroke-width:0.0234215;stroke-linecap:butt;stroke-linejoin:miter;stroke:rgb(17.96875%,20.3125%,21.09375%);stroke-opacity:0.8;stroke-miterlimit:10;" d="M 0.946403 2.106011 L 1.074578 2.67936 " transform="matrix(140.859778,0,0,140.859778,-60.103055,-77.898379)"/>
</g>
</g>
</g>
<g clip-path="url(#clip85)" clip-rule="nonzero">
<g clip-path="url(#clip86)" clip-rule="evenodd">
<g clip-path="url(#clip87)" clip-rule="evenodd">
<path style="fill:none;stroke-width:0.0234215;stroke-linecap:butt;stroke-linejoin:miter;stroke:rgb(17.96875%,20.3125%,21.09375%);stroke-opacity:0.8;stroke-miterlimit:10;" d="M 0.688916 2.664191 L 1.074578 2.67936 " transform="matrix(140.859778,0,0,140.859778,-60.103055,-77.898379)"/>
</g>
</g>
</g>
<path style="fill-rule:nonzero;fill:rgb(55.294118%,82.745098%,78.039216%);fill-opacity:1;stroke-width:0.0234215;stroke-linecap:butt;stroke-linejoin:miter;stroke:rgb(60%,60%,60%);stroke-opacity:0.8;stroke-miterlimit:10;" d="M 0.1171 -0.00000627675 C 0.1171 0.0646635 0.064687 0.117104 -0.0000105191 0.117104 C -0.0646803 0.117104 -0.117121 0.0646635 -0.117121 -0.00000627675 C -0.117121 -0.0646761 -0.0646803 -0.117116 -0.0000105191 -0.117116 C 0.064687 -0.117116 0.1171 -0.0646761 0.1171 -0.00000627675 Z M 0.1171 -0.00000627675 " transform="matrix(140.859778,0,0,140.859778,259.099138,555.118072)"/>
<path style="fill-rule:nonzero;fill:rgb(100%,92.941176%,43.529412%);fill-opacity:1;stroke-width:0.0234215;stroke-linecap:butt;stroke-linejoin:miter;stroke:rgb(60%,60%,60%);stroke-opacity:0.8;stroke-miterlimit:10;" d="M 0.117099 -0.00000640294 C 0.117099 0.0646634 0.0646864 0.117104 -0.0000111866 0.117104 C -0.064681 0.117104 -0.117121 0.0646634 -0.117121 -0.00000640294 C -0.117121 -0.0646762 -0.064681 -0.117116 -0.0000111866 -0.117116 C 0.0646864 -0.117116 0.117099 -0.0646762 0.117099 -0.00000640294 Z M 0.117099 -0.00000640294 " transform="matrix(140.859778,0,0,140.859778,450.939076,514.043871)"/>
<path style="fill-rule:nonzero;fill:rgb(100%,92.941176%,43.529412%);fill-opacity:1;stroke-width:0.0234215;stroke-linecap:butt;stroke-linejoin:miter;stroke:rgb(60%,60%,60%);stroke-opacity:0.8;stroke-miterlimit:10;" d="M 0.117103 0.00000276397 C 0.117103 0.0646726 0.0646904 0.117113 -0.00000717737 0.117113 C -0.064677 0.117113 -0.117117 0.0646726 -0.117117 0.00000276397 C -0.117117 -0.064667 -0.064677 -0.117107 -0.00000717737 -0.117107 C 0.0646904 -0.117107 0.117103 -0.064667 0.117103 0.00000276397 Z M 0.117103 0.00000276397 " transform="matrix(140.859778,0,0,140.859778,393.372105,515.608986)"/>
<path style="fill-rule:nonzero;fill:rgb(55.294118%,82.745098%,78.039216%);fill-opacity:1;stroke-width:0.0234215;stroke-linecap:butt;stroke-linejoin:miter;stroke:rgb(60%,60%,60%);stroke-opacity:0.8;stroke-miterlimit:10;" d="M 0.117098 0.00000580848 C 0.117098 0.0646756 0.0646859 0.117116 -0.0000116073 0.117116 C -0.0646814 0.117116 -0.117094 0.0646756 -0.117094 0.00000580848 C -0.117094 -0.064664 -0.0646814 -0.117104 -0.0000116073 -0.117104 C 0.0646859 -0.117104 0.117098 -0.064664 0.117098 0.00000580848 Z M 0.117098 0.00000580848 " transform="matrix(140.859778,0,0,140.859778,290.982104,506.932776)"/>
<path style="fill-rule:nonzero;fill:rgb(55.294118%,82.745098%,78.039216%);fill-opacity:1;stroke-width:0.0234215;stroke-linecap:butt;stroke-linejoin:miter;stroke:rgb(60%,60%,60%);stroke-opacity:0.8;stroke-miterlimit:10;" d="M 0.117098 -0.00000716891 C 0.117098 0.0646904 0.0646855 0.117103 -0.0000120875 0.117103 C -0.0646819 0.117103 -0.117094 0.0646904 -0.117094 -0.00000716891 C -0.117094 -0.064677 -0.0646819 -0.117117 -0.0000120875 -0.117117 C 0.0646855 -0.117117 0.117098 -0.064677 0.117098 -0.00000716891 Z M 0.117098 -0.00000716891 " transform="matrix(140.859778,0,0,140.859778,322.759515,551.684604)"/>
<path style="fill-rule:nonzero;fill:rgb(55.294118%,82.745098%,78.039216%);fill-opacity:1;stroke-width:0.0234215;stroke-linecap:butt;stroke-linejoin:miter;stroke:rgb(60%,60%,60%);stroke-opacity:0.8;stroke-miterlimit:10;" d="M 0.117107 0.0000109576 C 0.117107 0.0646808 0.0646664 0.117121 -0.00000343322 0.117121 C -0.0646732 0.117121 -0.117113 0.0646808 -0.117113 0.0000109576 C -0.117113 -0.0646866 -0.0646732 -0.117099 -0.00000343322 -0.117099 C 0.0646664 -0.117099 0.117107 -0.0646866 0.117107 0.0000109576 Z M 0.117107 0.0000109576 " transform="matrix(140.859778,0,0,140.859778,366.66064,194.666425)"/>
<path style="fill-rule:nonzero;fill:rgb(55.294118%,82.745098%,78.039216%);fill-opacity:1;stroke-width:0.0234215;stroke-linecap:butt;stroke-linejoin:miter;stroke:rgb(60%,60%,60%);stroke-opacity:0.8;stroke-miterlimit:10;" d="M 0.117103 -0.0000123498 C 0.117103 0.0646852 0.0646902 0.117098 -0.00000730738 0.117098 C -0.0646771 0.117098 -0.117117 0.0646852 -0.117117 -0.0000123498 C -0.117117 -0.0646822 -0.0646771 -0.117095 -0.00000730738 -0.117095 C 0.0646902 -0.117095 0.117103 -0.0646822 0.117103 -0.0000123498 Z M 0.117103 -0.0000123498 " transform="matrix(140.859778,0,0,140.859778,525.747123,238.861115)"/>
<path style="fill-rule:nonzero;fill:rgb(55.294118%,82.745098%,78.039216%);fill-opacity:1;stroke-width:0.0234215;stroke-linecap:butt;stroke-linejoin:miter;stroke:rgb(60%,60%,60%);stroke-opacity:0.8;stroke-miterlimit:10;" d="M 0.11712 0.00000432109 C 0.11712 0.0646741 0.0646802 0.117114 0.0000103892 0.117114 C -0.0646872 0.117114 -0.1171 0.0646741 -0.1171 0.00000432109 C -0.1171 -0.0646655 -0.0646872 -0.117106 0.0000103892 -0.117106 C 0.0646802 -0.117106 0.11712 -0.0646655 0.11712 0.00000432109 Z M 0.11712 0.00000432109 " transform="matrix(140.859778,0,0,140.859778,389.279787,258.929079)"/>
<path style="fill-rule:nonzero;fill:rgb(55.294118%,82.745098%,78.039216%);fill-opacity:1;stroke-width:0.0234215;stroke-linecap:butt;stroke-linejoin:miter;stroke:rgb(60%,60%,60%);stroke-opacity:0.8;stroke-miterlimit:10;" d="M 0.117103 0.0000088771 C 0.117103 0.0646787 0.0646631 0.117119 -0.00000669635 0.117119 C -0.0646765 0.117119 -0.117117 0.0646787 -0.117117 0.0000088771 C -0.117117 -0.0646887 -0.0646765 -0.117101 -0.00000669635 -0.117101 C 0.0646631 -0.117101 0.117103 -0.0646887 0.117103 0.0000088771 Z M 0.117103 0.0000088771 " transform="matrix(140.859778,0,0,140.859778,381.887662,89.658906)"/>
<path style="fill-rule:nonzero;fill:rgb(55.294118%,82.745098%,78.039216%);fill-opacity:1;stroke-width:0.0234215;stroke-linecap:butt;stroke-linejoin:miter;stroke:rgb(60%,60%,60%);stroke-opacity:0.8;stroke-miterlimit:10;" d="M 0.117121 -0.0000112916 C 0.117121 0.0646862 0.0646809 0.117099 0.0000110726 0.117099 C -0.0646865 0.117099 -0.117099 0.0646862 -0.117099 -0.0000112916 C -0.117099 -0.0646811 -0.0646865 -0.117094 0.0000110726 -0.117094 C 0.0646809 -0.117094 0.117121 -0.0646811 0.117121 -0.0000112916 Z M 0.117121 -0.0000112916 " transform="matrix(140.859778,0,0,140.859778,301.916409,47.290653)"/>
<path style="fill-rule:nonzero;fill:rgb(55.294118%,82.745098%,78.039216%);fill-opacity:1;stroke-width:0.0234215;stroke-linecap:butt;stroke-linejoin:miter;stroke:rgb(60%,60%,60%);stroke-opacity:0.8;stroke-miterlimit:10;" d="M 0.117117 -0.00000863145 C 0.117117 0.0646889 0.0646765 0.117101 0.00000670367 0.117101 C -0.0646631 0.117101 -0.117103 0.0646889 -0.117103 -0.00000863145 C -0.117103 -0.0646784 -0.0646631 -0.117119 0.00000670367 -0.117119 C 0.0646765 -0.117119 0.117117 -0.0646784 0.117117 -0.00000863145 Z M 0.117117 -0.00000863145 " transform="matrix(140.859778,0,0,140.859778,370.846712,120.55981)"/>
<path style="fill-rule:nonzero;fill:rgb(55.294118%,82.745098%,78.039216%);fill-opacity:1;stroke-width:0.0234215;stroke-linecap:butt;stroke-linejoin:miter;stroke:rgb(60%,60%,60%);stroke-opacity:0.8;stroke-miterlimit:10;" d="M 0.117119 -0.00000537735 C 0.117119 0.0646644 0.0646789 0.117105 0.00000907826 0.117105 C -0.0646885 0.117105 -0.117101 0.0646644 -0.117101 -0.00000537735 C -0.117101 -0.0646752 -0.0646885 -0.117115 0.00000907826 -0.117115 C 0.0646789 -0.117115 0.117119 -0.0646752 0.117119 -0.00000537735 Z M 0.117119 -0.00000537735 " transform="matrix(140.859778,0,0,140.859778,183.440127,54.012476)"/>
<path style="fill-rule:nonzero;fill:rgb(55.294118%,82.745098%,78.039216%);fill-opacity:1;stroke-width:0.0234215;stroke-linecap:butt;stroke-linejoin:miter;stroke:rgb(60%,60%,60%);stroke-opacity:0.8;stroke-miterlimit:10;" d="M 0.117112 -0.0000000189466 C 0.117112 0.0646698 0.0646717 0.11711 0.00000189604 0.11711 C -0.0646679 0.11711 -0.117108 0.0646698 -0.117108 -0.0000000189466 C -0.117108 -0.0646698 -0.0646679 -0.11711 0.00000189604 -0.11711 C 0.0646717 -0.11711 0.117112 -0.0646698 0.117112 -0.0000000189466 Z M 0.117112 -0.0000000189466 " transform="matrix(140.859778,0,0,140.859778,326.671608,345.718753)"/>
<path style="fill-rule:nonzero;fill:rgb(55.294118%,82.745098%,78.039216%);fill-opacity:1;stroke-width:0.0234215;stroke-linecap:butt;stroke-linejoin:miter;stroke:rgb(60%,60%,60%);stroke-opacity:0.8;stroke-miterlimit:10;" d="M 0.117112 -0.00000464643 C 0.117112 0.0646652 0.0646715 0.117105 0.00000169261 0.117105 C -0.0646681 0.117105 -0.117108 0.0646652 -0.117108 -0.00000464643 C -0.117108 -0.0646745 -0.0646681 -0.117115 0.00000169261 -0.117115 C 0.0646715 -0.117115 0.117112 -0.0646745 0.117112 -0.00000464643 Z M 0.117112 -0.00000464643 " transform="matrix(140.859778,0,0,140.859778,557.331793,317.270186)"/>
<path style="fill-rule:nonzero;fill:rgb(55.294118%,82.745098%,78.039216%);fill-opacity:1;stroke-width:0.0234215;stroke-linecap:butt;stroke-linejoin:miter;stroke:rgb(60%,60%,60%);stroke-opacity:0.8;stroke-miterlimit:10;" d="M 0.117095 -0.0000118787 C 0.117095 0.0646857 0.0646827 0.117098 0.0000128513 0.117098 C -0.0646847 0.117098 -0.117097 0.0646857 -0.117097 -0.0000118787 C -0.117097 -0.0646817 -0.0646847 -0.117094 0.0000128513 -0.117094 C 0.0646827 -0.117094 0.117095 -0.0646817 0.117095 -0.0000118787 Z M 0.117095 -0.0000118787 " transform="matrix(140.859778,0,0,140.859778,563.06069,370.509486)"/>
<path style="fill-rule:nonzero;fill:rgb(55.294118%,82.745098%,78.039216%);fill-opacity:1;stroke-width:0.0234215;stroke-linecap:butt;stroke-linejoin:miter;stroke:rgb(60%,60%,60%);stroke-opacity:0.8;stroke-miterlimit:10;" d="M 0.117121 -0.0000128259 C 0.117121 0.0646847 0.0646806 0.117097 0.0000107474 0.117097 C -0.0646868 0.117097 -0.117099 0.0646847 -0.117099 -0.0000128259 C -0.117099 -0.0646826 -0.0646868 -0.117095 0.0000107474 -0.117095 C 0.0646806 -0.117095 0.117121 -0.0646826 0.117121 -0.0000128259 Z M 0.117121 -0.0000128259 " transform="matrix(140.859778,0,0,140.859778,445.455517,188.271338)"/>
<path style="fill-rule:nonzero;fill:rgb(55.294118%,82.745098%,78.039216%);fill-opacity:1;stroke-width:0.0234215;stroke-linecap:butt;stroke-linejoin:miter;stroke:rgb(60%,60%,60%);stroke-opacity:0.8;stroke-miterlimit:10;" d="M 0.117103 -0.00000612959 C 0.117103 0.0646637 0.0646631 0.117104 -0.00000675198 0.117104 C -0.0646766 0.117104 -0.117117 0.0646637 -0.117117 -0.00000612959 C -0.117117 -0.0646759 -0.0646766 -0.117116 -0.00000675198 -0.117116 C 0.0646631 -0.117116 0.117103 -0.0646759 0.117103 -0.00000612959 Z M 0.117103 -0.00000612959 " transform="matrix(140.859778,0,0,140.859778,516.188451,192.387582)"/>
<path style="fill-rule:nonzero;fill:rgb(55.294118%,82.745098%,78.039216%);fill-opacity:1;stroke-width:0.0234215;stroke-linecap:butt;stroke-linejoin:miter;stroke:rgb(60%,60%,60%);stroke-opacity:0.8;stroke-miterlimit:10;" d="M 0.117119 0.00000627675 C 0.117119 0.0646761 0.0646786 0.117116 0.00000879534 0.117116 C -0.0646887 0.117116 -0.117101 0.0646761 -0.117101 0.00000627675 C -0.117101 -0.0646635 -0.0646887 -0.117104 0.00000879534 -0.117104 C 0.0646786 -0.117104 0.117119 -0.0646635 0.117119 0.00000627675 Z M 0.117119 0.00000627675 " transform="matrix(140.859778,0,0,140.859778,231.776105,44.881928)"/>
<path style="fill-rule:nonzero;fill:rgb(55.294118%,82.745098%,78.039216%);fill-opacity:1;stroke-width:0.0234215;stroke-linecap:butt;stroke-linejoin:miter;stroke:rgb(60%,60%,60%);stroke-opacity:0.8;stroke-miterlimit:10;" d="M 0.117113 0.00000757696 C 0.117113 0.0646774 0.0646724 0.117118 0.00000262491 0.117118 C -0.0646672 0.117118 -0.117107 0.0646774 -0.117107 0.00000757696 C -0.117107 -0.06469 -0.0646672 -0.117102 0.00000262491 -0.117102 C 0.0646724 -0.117102 0.117113 -0.06469 0.117113 0.00000757696 Z M 0.117113 0.00000757696 " transform="matrix(140.859778,0,0,140.859778,308.503537,298.260651)"/>
<path style="fill-rule:nonzero;fill:rgb(55.294118%,82.745098%,78.039216%);fill-opacity:1;stroke-width:0.0234215;stroke-linecap:butt;stroke-linejoin:miter;stroke:rgb(60%,60%,60%);stroke-opacity:0.8;stroke-miterlimit:10;" d="M 0.117112 0.0000021216 C 0.117112 0.0646719 0.0646719 0.117112 0.00000207921 0.117112 C -0.0646677 0.117112 -0.117108 0.0646719 -0.117108 0.0000021216 C -0.117108 -0.0646677 -0.0646677 -0.117108 0.00000207921 -0.117108 C 0.0646719 -0.117108 0.117112 -0.0646677 0.117112 0.0000021216 Z M 0.117112 0.0000021216 " transform="matrix(140.859778,0,0,140.859778,182.749707,400.718451)"/>
<path style="fill-rule:nonzero;fill:rgb(55.294118%,82.745098%,78.039216%);fill-opacity:1;stroke-width:0.0234215;stroke-linecap:butt;stroke-linejoin:miter;stroke:rgb(60%,60%,60%);stroke-opacity:0.8;stroke-miterlimit:10;" d="M 0.117106 0.0000100877 C 0.117106 0.0646799 0.0646661 0.11712 -0.00000374594 0.11712 C -0.0646736 0.11712 -0.117114 0.0646799 -0.117114 0.0000100877 C -0.117114 -0.0646875 -0.0646736 -0.1171 -0.00000374594 -0.1171 C 0.0646661 -0.1171 0.117106 -0.0646875 0.117106 0.0000100877 Z M 0.117106 0.0000100877 " transform="matrix(140.859778,0,0,140.859778,68.379434,169.123579)"/>
<path style="fill-rule:nonzero;fill:rgb(55.294118%,82.745098%,78.039216%);fill-opacity:1;stroke-width:0.0234215;stroke-linecap:butt;stroke-linejoin:miter;stroke:rgb(60%,60%,60%);stroke-opacity:0.8;stroke-miterlimit:10;" d="M 0.117112 0.000013786 C 0.117112 0.0646836 0.0646718 0.117096 0.00000198222 0.117096 C -0.0646678 0.117096 -0.117108 0.0646836 -0.117108 0.000013786 C -0.117108 -0.0646838 -0.0646678 -0.117096 0.00000198222 -0.117096 C 0.0646718 -0.117096 0.117112 -0.0646838 0.117112 0.000013786 Z M 0.117112 0.000013786 " transform="matrix(140.859778,0,0,140.859778,73.206752,218.751964)"/>
<path style="fill-rule:nonzero;fill:rgb(55.294118%,82.745098%,78.039216%);fill-opacity:1;stroke-width:0.0234215;stroke-linecap:butt;stroke-linejoin:miter;stroke:rgb(60%,60%,60%);stroke-opacity:0.8;stroke-miterlimit:10;" d="M 0.117094 -0.00000810829 C 0.117094 0.0646894 0.0646816 0.117102 0.0000117982 0.117102 C -0.0646857 0.117102 -0.117098 0.0646894 -0.117098 -0.00000810829 C -0.117098 -0.0646779 -0.0646857 -0.117118 0.0000117982 -0.117118 C 0.0646816 -0.117118 0.117094 -0.0646779 0.117094 -0.00000810829 Z M 0.117094 -0.00000810829 " transform="matrix(140.859778,0,0,140.859778,162.326463,467.08708)"/>
<path style="fill-rule:nonzero;fill:rgb(55.294118%,82.745098%,78.039216%);fill-opacity:1;stroke-width:0.0234215;stroke-linecap:butt;stroke-linejoin:miter;stroke:rgb(60%,60%,60%);stroke-opacity:0.8;stroke-miterlimit:10;" d="M 0.117097 0.00000826465 C 0.117097 0.0646781 0.0646847 0.117118 -0.0000128513 0.117118 C -0.0646827 0.117118 -0.117095 0.0646781 -0.117095 0.00000826465 C -0.117095 -0.0646893 -0.0646827 -0.117102 -0.0000128513 -0.117102 C 0.0646847 -0.117102 0.117097 -0.0646893 0.117097 0.00000826465 Z M 0.117097 0.00000826465 " transform="matrix(140.859778,0,0,140.859778,36.93931,297.377742)"/>
<path style="fill-rule:nonzero;fill:rgb(55.294118%,82.745098%,78.039216%);fill-opacity:1;stroke-width:0.0234215;stroke-linecap:butt;stroke-linejoin:miter;stroke:rgb(60%,60%,60%);stroke-opacity:0.8;stroke-miterlimit:10;" d="M 0.117117 -0.00000482203 C 0.117117 0.064665 0.0646765 0.117105 0.00000673576 0.117105 C -0.0646631 0.117105 -0.117103 0.064665 -0.117103 -0.00000482203 C -0.117103 -0.0646746 -0.0646631 -0.117115 0.00000673576 -0.117115 C 0.0646765 -0.117115 0.117117 -0.0646746 0.117117 -0.00000482203 Z M 0.117117 -0.00000482203 " transform="matrix(140.859778,0,0,140.859778,91.26077,299.516304)"/>
<path style="fill-rule:nonzero;fill:rgb(55.294118%,82.745098%,78.039216%);fill-opacity:1;stroke-width:0.0234215;stroke-linecap:butt;stroke-linejoin:miter;stroke:rgb(60%,60%,60%);stroke-opacity:0.8;stroke-miterlimit:10;" d="M 0.117108 0.00000379506 C 0.117108 0.0646736 0.0646673 0.117114 -0.00000248358 0.117114 C -0.0646723 0.117114 -0.117113 0.0646736 -0.117113 0.00000379506 C -0.117113 -0.064666 -0.0646723 -0.117106 -0.00000248358 -0.117106 C 0.0646673 -0.117106 0.117108 -0.064666 0.117108 0.00000379506 Z M 0.117108 0.00000379506 " transform="matrix(140.859778,0,0,140.859778,108.613631,445.425247)"/>
<path style="fill-rule:nonzero;fill:rgb(55.294118%,82.745098%,78.039216%);fill-opacity:1;stroke-width:0.0234215;stroke-linecap:butt;stroke-linejoin:miter;stroke:rgb(60%,60%,60%);stroke-opacity:0.8;stroke-miterlimit:10;" d="M 0.117099 0.00000579425 C 0.117099 0.0646756 0.064686 0.117116 -0.0000115124 0.117116 C -0.0646813 0.117116 -0.117094 0.0646756 -0.117094 0.00000579425 C -0.117094 -0.064664 -0.0646813 -0.117104 -0.0000115124 -0.117104 C 0.064686 -0.117104 0.117099 -0.064664 0.117099 0.00000579425 Z M 0.117099 0.00000579425 " transform="matrix(140.859778,0,0,140.859778,128.306309,388.964028)"/>
</g>
</svg>
