<?xml version="1.0" encoding="UTF-8"?>
<svg xmlns="http://www.w3.org/2000/svg" xmlns:xlink="http://www.w3.org/1999/xlink" width="600pt" height="600pt" viewBox="0 0 600 600" version="1.1">
<defs>
<clipPath id="clip1">
  <path d="M 430 260 L 569 260 L 569 412 L 430 412 Z M 430 260 "/>
</clipPath>
<clipPath id="clip2">
  <path d="M 365.632812 219.816406 L 633.734375 219.816406 L 633.734375 451.914062 L 365.632812 451.914062 Z M 365.632812 219.816406 L 538.292969 364.386719 C 538.292969 373.496094 530.90625 380.882812 521.796875 380.882812 C 512.6875 380.882812 505.300781 373.496094 505.300781 364.386719 C 505.300781 355.277344 512.6875 347.890625 521.796875 347.890625 C 530.90625 347.890625 538.292969 355.277344 538.292969 364.386719 Z M 365.632812 219.816406 "/>
</clipPath>
<clipPath id="clip3">
  <path d="M 365.632812 219.816406 L 633.734375 219.816406 L 633.734375 451.914062 L 365.632812 451.914062 Z M 365.632812 219.816406 L 494.070312 307.347656 C 494.070312 316.457031 486.683594 323.84375 477.574219 323.84375 C 468.460938 323.84375 461.078125 316.457031 461.078125 307.347656 C 461.078125 298.238281 468.460938 290.851562 477.574219 290.851562 C 486.683594 290.851562 494.070312 298.238281 494.070312 307.347656 Z M 365.632812 219.816406 "/>
</clipPath>
<clipPath id="clip4">
  <path d="M 486 201 L 600 201 L 600 325 L 486 325 Z M 486 201 "/>
</clipPath>
<clipPath id="clip5">
  <path d="M 432.789062 148.230469 L 663.886719 148.230469 L 663.886719 378.234375 L 432.789062 378.234375 Z M 432.789062 148.230469 L 579.554688 248.414062 C 579.554688 257.523438 572.171875 264.910156 563.0625 264.910156 C 553.949219 264.910156 546.566406 257.523438 546.566406 248.414062 C 546.566406 239.300781 553.949219 231.917969 563.0625 231.917969 C 572.171875 231.917969 579.554688 239.300781 579.554688 248.414062 Z M 432.789062 148.230469 "/>
</clipPath>
<clipPath id="clip6">
  <path d="M 432.789062 148.230469 L 663.886719 148.230469 L 663.886719 378.234375 L 432.789062 378.234375 Z M 432.789062 148.230469 L 550.113281 278.054688 C 550.113281 287.164062 542.726562 294.546875 533.617188 294.546875 C 524.503906 294.546875 517.121094 287.164062 517.121094 278.054688 C 517.121094 268.941406 524.503906 261.558594 533.617188 261.558594 C 542.726562 261.558594 550.113281 268.941406 550.113281 278.054688 Z M 432.789062 148.230469 "/>
</clipPath>
<clipPath id="clip7">
  <path d="M 430 231 L 581 231 L 581 355 L 430 355 Z M 430 231 "/>
</clipPath>
<clipPath id="clip8">
  <path d="M 410.59375 152.921875 L 600.59375 152.921875 L 600.59375 432.476562 L 410.59375 432.476562 Z M 410.59375 152.921875 L 550.113281 278.054688 C 550.113281 287.164062 542.726562 294.546875 533.617188 294.546875 C 524.503906 294.546875 517.121094 287.164062 517.121094 278.054688 C 517.121094 268.941406 524.503906 261.558594 533.617188 261.558594 C 542.726562 261.558594 550.113281 268.941406 550.113281 278.054688 Z M 410.59375 152.921875 "/>
</clipPath>
<clipPath id="clip9">
  <path d="M 410.59375 152.921875 L 600.59375 152.921875 L 600.59375 432.476562 L 410.59375 432.476562 Z M 410.59375 152.921875 L 494.070312 307.347656 C 494.070312 316.457031 486.683594 323.84375 477.574219 323.84375 C 468.460938 323.84375 461.078125 316.457031 461.078125 307.347656 C 461.078125 298.238281 468.460938 290.851562 477.574219 290.851562 C 486.683594 290.851562 494.070312 298.238281 494.070312 307.347656 Z M 410.59375 152.921875 "/>
</clipPath>
<clipPath id="clip10">
  <path d="M 430 297.878906 L 528 297.878906 L 528 394.753906 L 430 394.753906 Z M 430 297.878906 "/>
</clipPath>
<clipPath id="clip11">
  <path d="M 336.941406 297.878906 L 621.703125 297.878906 L 621.703125 394.753906 L 336.941406 394.753906 Z M 336.941406 297.878906 L 494.070312 307.347656 C 494.070312 316.457031 486.683594 323.84375 477.574219 323.84375 C 468.460938 323.84375 461.078125 316.457031 461.078125 307.347656 C 461.078125 298.238281 468.460938 290.851562 477.574219 290.851562 C 486.683594 290.851562 494.070312 298.238281 494.070312 307.347656 Z M 336.941406 297.878906 "/>
</clipPath>
<clipPath id="clip12">
  <path d="M 336.941406 297.878906 L 621.703125 297.878906 L 621.703125 394.753906 L 336.941406 394.753906 Z M 336.941406 297.878906 L 497.570312 385.289062 C 497.570312 394.398438 490.183594 401.785156 481.074219 401.785156 C 471.964844 401.785156 464.578125 394.398438 464.578125 385.289062 C 464.578125 376.179688 471.964844 368.792969 481.074219 368.792969 C 490.183594 368.792969 497.570312 376.179688 497.570312 385.289062 Z M 336.941406 297.878906 "/>
</clipPath>
<clipPath id="clip13">
  <path d="M 325 141 L 525 141 L 525 355 L 325 355 Z M 325 141 "/>
</clipPath>
<clipPath id="clip14">
  <path d="M 265.90625 93.859375 L 583.707031 93.859375 L 583.707031 401.875 L 265.90625 401.875 Z M 265.90625 93.859375 L 494.070312 307.347656 C 494.070312 316.457031 486.683594 323.84375 477.574219 323.84375 C 468.460938 323.84375 461.078125 316.457031 461.078125 307.347656 C 461.078125 298.238281 468.460938 290.851562 477.574219 290.851562 C 486.683594 290.851562 494.070312 298.238281 494.070312 307.347656 Z M 265.90625 93.859375 "/>
</clipPath>
<clipPath id="clip15">
  <path d="M 265.90625 93.859375 L 583.707031 93.859375 L 583.707031 401.875 L 265.90625 401.875 Z M 265.90625 93.859375 L 388.539062 188.390625 C 388.539062 197.5 381.15625 204.886719 372.042969 204.886719 C 362.933594 204.886719 355.546875 197.5 355.546875 188.390625 C 355.546875 179.28125 362.933594 171.894531 372.042969 171.894531 C 381.15625 171.894531 388.539062 179.28125 388.539062 188.390625 Z M 265.90625 93.859375 "/>
</clipPath>
<clipPath id="clip16">
  <path d="M 146 383.652344 L 253 383.652344 L 253 510.59375 L 146 510.59375 Z M 146 383.652344 "/>
</clipPath>
<clipPath id="clip17">
  <path d="M 54.675781 383.652344 L 345.023438 383.652344 L 345.023438 510.59375 L 54.675781 510.59375 Z M 54.675781 383.652344 L 222.574219 409.253906 C 222.574219 418.363281 215.191406 425.75 206.078125 425.75 C 196.96875 425.75 189.585938 418.363281 189.585938 409.253906 C 189.585938 400.144531 196.96875 392.757812 206.078125 392.757812 C 215.191406 392.757812 222.574219 400.144531 222.574219 409.253906 Z M 54.675781 383.652344 "/>
</clipPath>
<clipPath id="clip18">
  <path d="M 54.675781 383.652344 L 345.023438 383.652344 L 345.023438 510.59375 L 54.675781 510.59375 Z M 54.675781 383.652344 L 210.121094 484.996094 C 210.121094 494.105469 202.734375 501.492188 193.625 501.492188 C 184.515625 501.492188 177.128906 494.105469 177.128906 484.996094 C 177.128906 475.886719 184.515625 468.5 193.625 468.5 C 202.734375 468.5 210.121094 475.886719 210.121094 484.996094 Z M 54.675781 383.652344 "/>
</clipPath>
<clipPath id="clip19">
  <path d="M 130.558594 359 L 215.007812 359 L 215.007812 456 L 130.558594 456 Z M 130.558594 359 "/>
</clipPath>
<clipPath id="clip20">
  <path d="M 130.558594 265.867188 L 215.007812 265.867188 L 215.007812 549.90625 L 130.558594 549.90625 Z M 130.558594 265.867188 L 222.574219 409.253906 C 222.574219 418.363281 215.191406 425.75 206.078125 425.75 C 196.96875 425.75 189.585938 418.363281 189.585938 409.253906 C 189.585938 400.144531 196.96875 392.757812 206.078125 392.757812 C 215.191406 392.757812 222.574219 400.144531 222.574219 409.253906 Z M 130.558594 265.867188 "/>
</clipPath>
<clipPath id="clip21">
  <path d="M 130.558594 265.867188 L 215.007812 265.867188 L 215.007812 549.90625 L 130.558594 549.90625 Z M 130.558594 265.867188 L 155.988281 406.523438 C 155.988281 415.632812 148.601562 423.019531 139.492188 423.019531 C 130.382812 423.019531 122.996094 415.632812 122.996094 406.523438 C 122.996094 397.414062 130.382812 390.027344 139.492188 390.027344 C 148.601562 390.027344 155.988281 397.414062 155.988281 406.523438 Z M 130.558594 265.867188 "/>
</clipPath>
<clipPath id="clip22">
  <path d="M 159 262 L 319 262 L 319 456 L 159 456 Z M 159 262 "/>
</clipPath>
<clipPath id="clip23">
  <path d="M 87.574219 230.542969 L 389.949219 230.542969 L 389.949219 487.554688 L 87.574219 487.554688 Z M 87.574219 230.542969 L 222.574219 409.253906 C 222.574219 418.363281 215.191406 425.75 206.078125 425.75 C 196.96875 425.75 189.585938 418.363281 189.585938 409.253906 C 189.585938 400.144531 196.96875 392.757812 206.078125 392.757812 C 215.191406 392.757812 222.574219 400.144531 222.574219 409.253906 Z M 87.574219 230.542969 "/>
</clipPath>
<clipPath id="clip24">
  <path d="M 87.574219 230.542969 L 389.949219 230.542969 L 389.949219 487.554688 L 87.574219 487.554688 Z M 87.574219 230.542969 L 287.945312 308.847656 C 287.945312 317.957031 280.558594 325.34375 271.449219 325.34375 C 262.339844 325.34375 254.953125 317.957031 254.953125 308.847656 C 254.953125 299.734375 262.339844 292.351562 271.449219 292.351562 C 280.558594 292.351562 287.945312 299.734375 287.945312 308.847656 Z M 87.574219 230.542969 "/>
</clipPath>
<clipPath id="clip25">
  <path d="M 0 226.824219 L 112 226.824219 L 112 397.226562 L 0 397.226562 Z M 0 226.824219 "/>
</clipPath>
<clipPath id="clip26">
  <path d="M -94.292969 226.824219 L 199.222656 226.824219 L 199.222656 397.226562 L -94.292969 397.226562 Z M -94.292969 226.824219 L 81.773438 351.164062 C 81.773438 360.273438 74.386719 367.660156 65.277344 367.660156 C 56.167969 367.660156 48.78125 360.273438 48.78125 351.164062 C 48.78125 342.050781 56.167969 334.667969 65.277344 334.667969 C 74.386719 334.667969 81.773438 342.050781 81.773438 351.164062 Z M -94.292969 226.824219 "/>
</clipPath>
<clipPath id="clip27">
  <path d="M -94.292969 226.824219 L 199.222656 226.824219 L 199.222656 397.226562 L -94.292969 397.226562 Z M -94.292969 226.824219 L 56.152344 272.890625 C 56.152344 282 48.765625 289.382812 39.65625 289.382812 C 30.546875 289.382812 23.160156 282 23.160156 272.890625 C 23.160156 263.777344 30.546875 256.394531 39.65625 256.394531 C 48.765625 256.394531 56.152344 263.777344 56.152344 272.890625 Z M -94.292969 226.824219 "/>
</clipPath>
<clipPath id="clip28">
  <path d="M 18 304 L 187 304 L 187 454 L 18 454 Z M 18 304 "/>
</clipPath>
<clipPath id="clip29">
  <path d="M -20.21875 237.671875 L 224.984375 237.671875 L 224.984375 520.011719 L -20.21875 520.011719 Z M -20.21875 237.671875 L 81.773438 351.164062 C 81.773438 360.273438 74.386719 367.660156 65.277344 367.660156 C 56.167969 367.660156 48.78125 360.273438 48.78125 351.164062 C 48.78125 342.050781 56.167969 334.667969 65.277344 334.667969 C 74.386719 334.667969 81.773438 342.050781 81.773438 351.164062 Z M -20.21875 237.671875 "/>
</clipPath>
<clipPath id="clip30">
  <path d="M -20.21875 237.671875 L 224.984375 237.671875 L 224.984375 520.011719 L -20.21875 520.011719 Z M -20.21875 237.671875 L 155.988281 406.523438 C 155.988281 415.632812 148.601562 423.019531 139.492188 423.019531 C 130.382812 423.019531 122.996094 415.632812 122.996094 406.523438 C 122.996094 397.414062 130.382812 390.027344 139.492188 390.027344 C 148.601562 390.027344 155.988281 397.414062 155.988281 406.523438 Z M -20.21875 237.671875 "/>
</clipPath>
<clipPath id="clip31">
  <path d="M 18 329.667969 L 119 329.667969 L 119 418.667969 L 18 418.667969 Z M 18 329.667969 "/>
</clipPath>
<clipPath id="clip32">
  <path d="M -74.285156 329.667969 L 210.980469 329.667969 L 210.980469 418.667969 L -74.285156 418.667969 Z M -74.285156 329.667969 L 81.773438 351.164062 C 81.773438 360.273438 74.386719 367.660156 65.277344 367.660156 C 56.167969 367.660156 48.78125 360.273438 48.78125 351.164062 C 48.78125 342.050781 56.167969 334.667969 65.277344 334.667969 C 74.386719 334.667969 81.773438 342.050781 81.773438 351.164062 Z M -74.285156 329.667969 "/>
</clipPath>
<clipPath id="clip33">
  <path d="M -74.285156 329.667969 L 210.980469 329.667969 L 210.980469 418.667969 L -74.285156 418.667969 Z M -74.285156 329.667969 L 87.917969 397.175781 C 87.917969 406.285156 80.535156 413.667969 71.421875 413.667969 C 62.3125 413.667969 54.929688 406.285156 54.929688 397.175781 C 54.929688 388.0625 62.3125 380.679688 71.421875 380.679688 C 80.535156 380.679688 87.917969 388.0625 87.917969 397.175781 Z M -74.285156 329.667969 "/>
</clipPath>
<clipPath id="clip34">
  <path d="M 92 289 L 240 289 L 240 454 L 92 454 Z M 92 289 "/>
</clipPath>
<clipPath id="clip35">
  <path d="M 27.210938 249.460938 L 305.566406 249.460938 L 305.566406 493.613281 L 27.210938 493.613281 Z M 27.210938 249.460938 L 209.785156 336.554688 C 209.785156 345.664062 202.402344 353.050781 193.289062 353.050781 C 184.179688 353.050781 176.792969 345.664062 176.792969 336.554688 C 176.792969 327.445312 184.179688 320.058594 193.289062 320.058594 C 202.402344 320.058594 209.785156 327.445312 209.785156 336.554688 Z M 27.210938 249.460938 "/>
</clipPath>
<clipPath id="clip36">
  <path d="M 27.210938 249.460938 L 305.566406 249.460938 L 305.566406 493.613281 L 27.210938 493.613281 Z M 27.210938 249.460938 L 155.988281 406.523438 C 155.988281 415.632812 148.601562 423.019531 139.492188 423.019531 C 130.382812 423.019531 122.996094 415.632812 122.996094 406.523438 C 122.996094 397.414062 130.382812 390.027344 139.492188 390.027344 C 148.601562 390.027344 155.988281 397.414062 155.988281 406.523438 Z M 27.210938 249.460938 "/>
</clipPath>
<clipPath id="clip37">
  <path d="M 146 262 L 319 262 L 319 384 L 146 384 Z M 146 262 "/>
</clipPath>
<clipPath id="clip38">
  <path d="M 144.058594 175.976562 L 320.675781 175.976562 L 320.675781 469.421875 L 144.058594 469.421875 Z M 144.058594 175.976562 L 209.785156 336.554688 C 209.785156 345.664062 202.402344 353.050781 193.289062 353.050781 C 184.179688 353.050781 176.792969 345.664062 176.792969 336.554688 C 176.792969 327.445312 184.179688 320.058594 193.289062 320.058594 C 202.402344 320.058594 209.785156 327.445312 209.785156 336.554688 Z M 144.058594 175.976562 "/>
</clipPath>
<clipPath id="clip39">
  <path d="M 144.058594 175.976562 L 320.675781 175.976562 L 320.675781 469.421875 L 144.058594 469.421875 Z M 144.058594 175.976562 L 287.945312 308.847656 C 287.945312 317.957031 280.558594 325.34375 271.449219 325.34375 C 262.339844 325.34375 254.953125 317.957031 254.953125 308.847656 C 254.953125 299.734375 262.339844 292.351562 271.449219 292.351562 C 280.558594 292.351562 287.945312 299.734375 287.945312 308.847656 Z M 144.058594 175.976562 "/>
</clipPath>
<clipPath id="clip40">
  <path d="M 162 462 L 337 462 L 337 596 L 162 596 Z M 162 462 "/>
</clipPath>
<clipPath id="clip41">
  <path d="M 144.539062 382.265625 L 354.402344 382.265625 L 354.402344 675.320312 L 144.539062 675.320312 Z M 144.539062 382.265625 L 225.484375 508.6875 C 225.484375 517.796875 218.097656 525.179688 208.988281 525.179688 C 199.878906 525.179688 192.492188 517.796875 192.492188 508.6875 C 192.492188 499.574219 199.878906 492.191406 208.988281 492.191406 C 218.097656 492.191406 225.484375 499.574219 225.484375 508.6875 Z M 144.539062 382.265625 "/>
</clipPath>
<clipPath id="clip42">
  <path d="M 144.539062 382.265625 L 354.402344 382.265625 L 354.402344 675.320312 L 144.539062 675.320312 Z M 144.539062 382.265625 L 306.453125 548.902344 C 306.453125 558.011719 299.066406 565.398438 289.957031 565.398438 C 280.847656 565.398438 273.460938 558.011719 273.460938 548.902344 C 273.460938 539.792969 280.847656 532.40625 289.957031 532.40625 C 299.066406 532.40625 306.453125 539.792969 306.453125 548.902344 Z M 144.539062 382.265625 "/>
</clipPath>
<clipPath id="clip43">
  <path d="M 146 438 L 256 438 L 256 556 L 146 556 Z M 146 438 "/>
</clipPath>
<clipPath id="clip44">
  <path d="M 74.984375 406.898438 L 327.625 406.898438 L 327.625 586.78125 L 74.984375 586.78125 Z M 74.984375 406.898438 L 225.484375 508.6875 C 225.484375 517.796875 218.097656 525.179688 208.988281 525.179688 C 199.878906 525.179688 192.492188 517.796875 192.492188 508.6875 C 192.492188 499.574219 199.878906 492.191406 208.988281 492.191406 C 218.097656 492.191406 225.484375 499.574219 225.484375 508.6875 Z M 74.984375 406.898438 "/>
</clipPath>
<clipPath id="clip45">
  <path d="M 74.984375 406.898438 L 327.625 406.898438 L 327.625 586.78125 L 74.984375 586.78125 Z M 74.984375 406.898438 L 210.121094 484.996094 C 210.121094 494.105469 202.734375 501.492188 193.625 501.492188 C 184.515625 501.492188 177.128906 494.105469 177.128906 484.996094 C 177.128906 475.886719 184.515625 468.5 193.625 468.5 C 202.734375 468.5 210.121094 475.886719 210.121094 484.996094 Z M 74.984375 406.898438 "/>
</clipPath>
<clipPath id="clip46">
  <path d="M 92 359 L 256 359 L 256 556 L 92 556 Z M 92 359 "/>
</clipPath>
<clipPath id="clip47">
  <path d="M 22.527344 325.902344 L 325.949219 325.902344 L 325.949219 589.304688 L 22.527344 589.304688 Z M 22.527344 325.902344 L 225.484375 508.6875 C 225.484375 517.796875 218.097656 525.179688 208.988281 525.179688 C 199.878906 525.179688 192.492188 517.796875 192.492188 508.6875 C 192.492188 499.574219 199.878906 492.191406 208.988281 492.191406 C 218.097656 492.191406 225.484375 499.574219 225.484375 508.6875 Z M 22.527344 325.902344 "/>
</clipPath>
<clipPath id="clip48">
  <path d="M 22.527344 325.902344 L 325.949219 325.902344 L 325.949219 589.304688 L 22.527344 589.304688 Z M 22.527344 325.902344 L 155.988281 406.523438 C 155.988281 415.632812 148.601562 423.019531 139.492188 423.019531 C 130.382812 423.019531 122.996094 415.632812 122.996094 406.523438 C 122.996094 397.414062 130.382812 390.027344 139.492188 390.027344 C 148.601562 390.027344 155.988281 397.414062 155.988281 406.523438 Z M 22.527344 325.902344 "/>
</clipPath>
<clipPath id="clip49">
  <path d="M 279.460938 502 L 369.746094 502 L 369.746094 600 L 279.460938 600 Z M 279.460938 502 "/>
</clipPath>
<clipPath id="clip50">
  <path d="M 279.460938 408.320312 L 369.746094 408.320312 L 369.746094 693.113281 L 279.460938 693.113281 Z M 279.460938 408.320312 L 306.453125 548.902344 C 306.453125 558.011719 299.066406 565.398438 289.957031 565.398438 C 280.847656 565.398438 273.460938 558.011719 273.460938 548.902344 C 273.460938 539.792969 280.847656 532.40625 289.957031 532.40625 C 299.066406 532.40625 306.453125 539.792969 306.453125 548.902344 Z M 279.460938 408.320312 "/>
</clipPath>
<clipPath id="clip51">
  <path d="M 279.460938 408.320312 L 369.746094 408.320312 L 369.746094 693.113281 L 279.460938 693.113281 Z M 279.460938 408.320312 L 375.746094 552.535156 C 375.746094 561.644531 368.363281 569.03125 359.253906 569.03125 C 350.140625 569.03125 342.757812 561.644531 342.757812 552.535156 C 342.757812 543.425781 350.140625 536.039062 359.253906 536.039062 C 368.363281 536.039062 375.746094 543.425781 375.746094 552.535156 Z M 279.460938 408.320312 "/>
</clipPath>
<clipPath id="clip52">
  <path d="M 333.28125 497 L 433.4375 497 L 433.4375 600 L 333.28125 600 Z M 333.28125 497 "/>
</clipPath>
<clipPath id="clip53">
  <path d="M 333.28125 405.585938 L 433.4375 405.585938 L 433.4375 691.417969 L 333.28125 691.417969 Z M 333.28125 405.585938 L 423.964844 544.472656 C 423.964844 553.585938 416.582031 560.96875 407.46875 560.96875 C 398.359375 560.96875 390.976562 553.585938 390.976562 544.472656 C 390.976562 535.363281 398.359375 527.980469 407.46875 527.980469 C 416.582031 527.980469 423.964844 535.363281 423.964844 544.472656 Z M 333.28125 405.585938 "/>
</clipPath>
<clipPath id="clip54">
  <path d="M 333.28125 405.585938 L 433.4375 405.585938 L 433.4375 691.417969 L 333.28125 691.417969 Z M 333.28125 405.585938 L 375.746094 552.535156 C 375.746094 561.644531 368.363281 569.03125 359.253906 569.03125 C 350.140625 569.03125 342.757812 561.644531 342.757812 552.535156 C 342.757812 543.425781 350.140625 536.039062 359.253906 536.039062 C 368.363281 536.039062 375.746094 543.425781 375.746094 552.535156 Z M 333.28125 405.585938 "/>
</clipPath>
<clipPath id="clip55">
  <path d="M 224 262 L 364 262 L 364 377 L 224 377 Z M 224 262 "/>
</clipPath>
<clipPath id="clip56">
  <path d="M 211.847656 180.136719 L 376.71875 180.136719 L 376.71875 458.058594 L 211.847656 458.058594 Z M 211.847656 180.136719 L 333.617188 329.351562 C 333.617188 338.460938 326.230469 345.847656 317.121094 345.847656 C 308.011719 345.847656 300.625 338.460938 300.625 329.351562 C 300.625 320.242188 308.011719 312.855469 317.121094 312.855469 C 326.230469 312.855469 333.617188 320.242188 333.617188 329.351562 Z M 211.847656 180.136719 "/>
</clipPath>
<clipPath id="clip57">
  <path d="M 211.847656 180.136719 L 376.71875 180.136719 L 376.71875 458.058594 L 211.847656 458.058594 Z M 211.847656 180.136719 L 287.945312 308.847656 C 287.945312 317.957031 280.558594 325.34375 271.449219 325.34375 C 262.339844 325.34375 254.953125 317.957031 254.953125 308.847656 C 254.953125 299.734375 262.339844 292.351562 271.449219 292.351562 C 280.558594 292.351562 287.945312 299.734375 287.945312 308.847656 Z M 211.847656 180.136719 "/>
</clipPath>
<clipPath id="clip58">
  <path d="M 0 210.636719 L 87 210.636719 L 87 283.402344 L 0 283.402344 Z M 0 210.636719 "/>
</clipPath>
<clipPath id="clip59">
  <path d="M -103.644531 210.636719 L 180.234375 210.636719 L 180.234375 283.402344 L -103.644531 283.402344 Z M -103.644531 210.636719 L 56.152344 272.890625 C 56.152344 282 48.765625 289.382812 39.65625 289.382812 C 30.546875 289.382812 23.160156 282 23.160156 272.890625 C 23.160156 263.777344 30.546875 256.394531 39.65625 256.394531 C 48.765625 256.394531 56.152344 263.777344 56.152344 272.890625 Z M -103.644531 210.636719 "/>
</clipPath>
<clipPath id="clip60">
  <path d="M -103.644531 210.636719 L 180.234375 210.636719 L 180.234375 283.402344 L -103.644531 283.402344 Z M -103.644531 210.636719 L 53.433594 221.152344 C 53.433594 230.265625 46.050781 237.648438 36.9375 237.648438 C 27.828125 237.648438 20.445312 230.265625 20.445312 221.152344 C 20.445312 212.042969 27.828125 204.65625 36.9375 204.65625 C 46.050781 204.65625 53.433594 212.042969 53.433594 221.152344 Z M -103.644531 210.636719 "/>
</clipPath>
<clipPath id="clip61">
  <path d="M 49.417969 350 L 161.492188 350 L 161.492188 454 L 49.417969 454 Z M 49.417969 350 "/>
</clipPath>
<clipPath id="clip62">
  <path d="M 49.417969 257.683594 L 161.492188 257.683594 L 161.492188 546.011719 L 49.417969 546.011719 Z M 49.417969 257.683594 L 155.988281 406.523438 C 155.988281 415.632812 148.601562 423.019531 139.492188 423.019531 C 130.382812 423.019531 122.996094 415.632812 122.996094 406.523438 C 122.996094 397.414062 130.382812 390.027344 139.492188 390.027344 C 148.601562 390.027344 155.988281 397.414062 155.988281 406.523438 Z M 49.417969 257.683594 "/>
</clipPath>
<clipPath id="clip63">
  <path d="M 49.417969 257.683594 L 161.492188 257.683594 L 161.492188 546.011719 L 49.417969 546.011719 Z M 49.417969 257.683594 L 87.917969 397.175781 C 87.917969 406.285156 80.535156 413.667969 71.421875 413.667969 C 62.3125 413.667969 54.929688 406.285156 54.929688 397.175781 C 54.929688 388.0625 62.3125 380.679688 71.421875 380.679688 C 80.535156 380.679688 87.917969 388.0625 87.917969 397.175781 Z M 49.417969 257.683594 "/>
</clipPath>
<clipPath id="clip64">
  <path d="M 224 141 L 419 141 L 419 356 L 224 356 Z M 224 141 "/>
</clipPath>
<clipPath id="clip65">
  <path d="M 162.632812 96.972656 L 480.855469 96.972656 L 480.855469 400.261719 L 162.632812 400.261719 Z M 162.632812 96.972656 L 287.945312 308.847656 C 287.945312 317.957031 280.558594 325.34375 271.449219 325.34375 C 262.339844 325.34375 254.953125 317.957031 254.953125 308.847656 C 254.953125 299.734375 262.339844 292.351562 271.449219 292.351562 C 280.558594 292.351562 287.945312 299.734375 287.945312 308.847656 Z M 162.632812 96.972656 "/>
</clipPath>
<clipPath id="clip66">
  <path d="M 162.632812 96.972656 L 480.855469 96.972656 L 480.855469 400.261719 L 162.632812 400.261719 Z M 162.632812 96.972656 L 388.539062 188.390625 C 388.539062 197.5 381.15625 204.886719 372.042969 204.886719 C 362.933594 204.886719 355.546875 197.5 355.546875 188.390625 C 355.546875 179.28125 362.933594 171.894531 372.042969 171.894531 C 381.15625 171.894531 388.539062 179.28125 388.539062 188.390625 Z M 162.632812 96.972656 "/>
</clipPath>
<clipPath id="clip67">
  <path d="M 315 104.914062 L 419 104.914062 L 419 214.925781 L 315 214.925781 Z M 315 104.914062 "/>
</clipPath>
<clipPath id="clip68">
  <path d="M 223.484375 104.914062 L 510.832031 104.914062 L 510.832031 214.925781 L 223.484375 214.925781 Z M 223.484375 104.914062 L 388.539062 188.390625 C 388.539062 197.5 381.15625 204.886719 372.042969 204.886719 C 362.933594 204.886719 355.546875 197.5 355.546875 188.390625 C 355.546875 179.28125 362.933594 171.894531 372.042969 171.894531 C 381.15625 171.894531 388.539062 179.28125 388.539062 188.390625 Z M 223.484375 104.914062 "/>
</clipPath>
<clipPath id="clip69">
  <path d="M 223.484375 104.914062 L 510.832031 104.914062 L 510.832031 214.925781 L 223.484375 214.925781 Z M 223.484375 104.914062 L 378.773438 131.453125 C 378.773438 140.5625 371.386719 147.949219 362.277344 147.949219 C 353.164062 147.949219 345.78125 140.5625 345.78125 131.453125 C 345.78125 122.34375 353.164062 114.957031 362.277344 114.957031 C 371.386719 114.957031 378.773438 122.34375 378.773438 131.453125 Z M 223.484375 104.914062 "/>
</clipPath>
<clipPath id="clip70">
  <path d="M 224 54 L 419 54 L 419 236 L 224 236 Z M 224 54 "/>
</clipPath>
<clipPath id="clip71">
  <path d="M 178 -6.070312 L 465.570312 -6.070312 L 465.570312 295.402344 L 178 295.402344 Z M 178 -6.070312 L 388.539062 188.390625 C 388.539062 197.5 381.15625 204.886719 372.042969 204.886719 C 362.933594 204.886719 355.546875 197.5 355.546875 188.390625 C 355.546875 179.28125 362.933594 171.894531 372.042969 171.894531 C 381.15625 171.894531 388.539062 179.28125 388.539062 188.390625 Z M 178 -6.070312 "/>
</clipPath>
<clipPath id="clip72">
  <path d="M 178 -6.070312 L 465.570312 -6.070312 L 465.570312 295.402344 L 178 295.402344 Z M 178 -6.070312 L 288.027344 100.945312 C 288.027344 110.054688 280.640625 117.441406 271.53125 117.441406 C 262.421875 117.441406 255.035156 110.054688 255.035156 100.945312 C 255.035156 91.832031 262.421875 84.449219 271.53125 84.449219 C 280.640625 84.449219 288.027344 91.832031 288.027344 100.945312 Z M 178 -6.070312 "/>
</clipPath>
<clipPath id="clip73">
  <path d="M 325 119 L 482 119 L 482 236 L 325 236 Z M 325 119 "/>
</clipPath>
<clipPath id="clip74">
  <path d="M 321.964844 33.128906 L 484.835938 33.128906 L 484.835938 320.953125 L 321.964844 320.953125 Z M 321.964844 33.128906 L 388.539062 188.390625 C 388.539062 197.5 381.15625 204.886719 372.042969 204.886719 C 362.933594 204.886719 355.546875 197.5 355.546875 188.390625 C 355.546875 179.28125 362.933594 171.894531 372.042969 171.894531 C 381.15625 171.894531 388.539062 179.28125 388.539062 188.390625 Z M 321.964844 33.128906 "/>
</clipPath>
<clipPath id="clip75">
  <path d="M 321.964844 33.128906 L 484.835938 33.128906 L 484.835938 320.953125 L 321.964844 320.953125 Z M 321.964844 33.128906 L 451.257812 165.695312 C 451.257812 174.804688 443.871094 182.191406 434.761719 182.191406 C 425.652344 182.191406 418.265625 174.804688 418.265625 165.695312 C 418.265625 156.582031 425.652344 149.199219 434.761719 149.199219 C 443.871094 149.199219 451.257812 156.582031 451.257812 165.695312 Z M 321.964844 33.128906 "/>
</clipPath>
<clipPath id="clip76">
  <path d="M 325 65 L 464 65 L 464 236 L 325 236 Z M 325 65 "/>
</clipPath>
<clipPath id="clip77">
  <path d="M 249.867188 39.523438 L 538.660156 39.523438 L 538.660156 260.726562 L 249.867188 260.726562 Z M 249.867188 39.523438 L 388.539062 188.390625 C 388.539062 197.5 381.15625 204.886719 372.042969 204.886719 C 362.933594 204.886719 355.546875 197.5 355.546875 188.390625 C 355.546875 179.28125 362.933594 171.894531 372.042969 171.894531 C 381.15625 171.894531 388.539062 179.28125 388.539062 188.390625 Z M 249.867188 39.523438 "/>
</clipPath>
<clipPath id="clip78">
  <path d="M 249.867188 39.523438 L 538.660156 39.523438 L 538.660156 260.726562 L 249.867188 260.726562 Z M 249.867188 39.523438 L 432.984375 111.863281 C 432.984375 120.972656 425.597656 128.359375 416.488281 128.359375 C 407.378906 128.359375 399.992188 120.972656 399.992188 111.863281 C 399.992188 102.753906 407.378906 95.367188 416.488281 95.367188 C 425.597656 95.367188 432.984375 102.753906 432.984375 111.863281 Z M 249.867188 39.523438 "/>
</clipPath>
<clipPath id="clip79">
  <path d="M 139.105469 41 L 194.886719 41 L 194.886719 135 L 139.105469 135 Z M 139.105469 41 "/>
</clipPath>
<clipPath id="clip80">
  <path d="M 139.105469 -53.050781 L 194.886719 -53.050781 L 194.886719 228.496094 L 139.105469 228.496094 Z M 139.105469 -53.050781 L 158.933594 87.71875 C 158.933594 96.832031 151.546875 104.214844 142.4375 104.214844 C 133.328125 104.214844 125.941406 96.832031 125.941406 87.71875 C 125.941406 78.609375 133.328125 71.226562 142.4375 71.226562 C 151.546875 71.226562 158.933594 78.609375 158.933594 87.71875 Z M 139.105469 -53.050781 "/>
</clipPath>
<clipPath id="clip81">
  <path d="M 139.105469 -53.050781 L 194.886719 -53.050781 L 194.886719 228.496094 L 139.105469 228.496094 Z M 139.105469 -53.050781 L 208.054688 87.730469 C 208.054688 96.839844 200.667969 104.226562 191.558594 104.226562 C 182.449219 104.226562 175.0625 96.839844 175.0625 87.730469 C 175.0625 78.621094 182.449219 71.234375 191.558594 71.234375 C 200.667969 71.234375 208.054688 78.621094 208.054688 87.730469 Z M 139.105469 -53.050781 "/>
</clipPath>
<clipPath id="clip82">
  <path d="M 165.847656 41 L 297.238281 41 L 297.238281 148 L 165.847656 148 Z M 165.847656 41 "/>
</clipPath>
<clipPath id="clip83">
  <path d="M 165.847656 -51.199219 L 297.238281 -51.199219 L 297.238281 239.871094 L 165.847656 239.871094 Z M 165.847656 -51.199219 L 208.054688 87.730469 C 208.054688 96.839844 200.667969 104.226562 191.558594 104.226562 C 182.449219 104.226562 175.0625 96.839844 175.0625 87.730469 C 175.0625 78.621094 182.449219 71.234375 191.558594 71.234375 C 200.667969 71.234375 208.054688 78.621094 208.054688 87.730469 Z M 165.847656 -51.199219 "/>
</clipPath>
<clipPath id="clip84">
  <path d="M 165.847656 -51.199219 L 297.238281 -51.199219 L 297.238281 239.871094 L 165.847656 239.871094 Z M 165.847656 -51.199219 L 288.027344 100.945312 C 288.027344 110.054688 280.640625 117.441406 271.53125 117.441406 C 262.421875 117.441406 255.035156 110.054688 255.035156 100.945312 C 255.035156 91.832031 262.421875 84.449219 271.53125 84.449219 C 280.640625 84.449219 288.027344 91.832031 288.027344 100.945312 Z M 165.847656 -51.199219 "/>
</clipPath>
<clipPath id="clip85">
  <path d="M 222 37.816406 L 319 37.816406 L 319 110.589844 L 222 110.589844 Z M 222 37.816406 "/>
</clipPath>
<clipPath id="clip86">
  <path d="M 128.433594 37.816406 L 412.152344 37.816406 L 412.152344 110.589844 L 128.433594 110.589844 Z M 128.433594 37.816406 L 285.554688 47.464844 C 285.554688 56.574219 278.171875 63.960938 269.058594 63.960938 C 259.949219 63.960938 252.5625 56.574219 252.5625 47.464844 C 252.5625 38.355469 259.949219 30.96875 269.058594 30.96875 C 278.171875 30.96875 285.554688 38.355469 285.554688 47.464844 Z M 128.433594 37.816406 "/>
</clipPath>
<clipPath id="clip87">
  <path d="M 128.433594 37.816406 L 412.152344 37.816406 L 412.152344 110.589844 L 128.433594 110.589844 Z M 128.433594 37.816406 L 288.027344 100.945312 C 288.027344 110.054688 280.640625 117.441406 271.53125 117.441406 C 262.421875 117.441406 255.035156 110.054688 255.035156 100.945312 C 255.035156 91.832031 262.421875 84.449219 271.53125 84.449219 C 280.640625 84.449219 288.027344 91.832031 288.027344 100.945312 Z M 128.433594 37.816406 "/>
</clipPath>
</defs>
<g id="surface726">
<g clip-path="url(#clip1)" clip-rule="nonzero">
<g clip-path="url(#clip2)" clip-rule="evenodd">
<g clip-path="url(#clip3)" clip-rule="evenodd">
<path style="fill:none;stroke-width:0.023999;stroke-linecap:butt;stroke-linejoin:miter;stroke:rgb(17.96875%,20.3125%,21.09375%);stroke-opacity:0.8;stroke-miterlimit:10;" d="M 4.540543 3.020339 L 4.218853 2.605419 " transform="matrix(137.469889,0,0,137.469889,-102.391037,-50.818985)"/>
</g>
</g>
</g>
<g clip-path="url(#clip4)" clip-rule="nonzero">
<g clip-path="url(#clip5)" clip-rule="evenodd">
<g clip-path="url(#clip6)" clip-rule="evenodd">
<path style="fill:none;stroke-width:0.023999;stroke-linecap:butt;stroke-linejoin:miter;stroke:rgb(17.96875%,20.3125%,21.09375%);stroke-opacity:0.8;stroke-miterlimit:10;" d="M 4.840722 2.176717 L 4.626528 2.392332 " transform="matrix(137.469889,0,0,137.469889,-102.391037,-50.818985)"/>
</g>
</g>
</g>
<g clip-path="url(#clip7)" clip-rule="nonzero">
<g clip-path="url(#clip8)" clip-rule="evenodd">
<g clip-path="url(#clip9)" clip-rule="evenodd">
<path style="fill:none;stroke-width:0.023999;stroke-linecap:butt;stroke-linejoin:miter;stroke:rgb(17.96875%,20.3125%,21.09375%);stroke-opacity:0.8;stroke-miterlimit:10;" d="M 4.626528 2.392332 L 4.218853 2.605419 " transform="matrix(137.469889,0,0,137.469889,-102.391037,-50.818985)"/>
</g>
</g>
</g>
<g clip-path="url(#clip10)" clip-rule="nonzero">
<g clip-path="url(#clip11)" clip-rule="evenodd">
<g clip-path="url(#clip12)" clip-rule="evenodd">
<path style="fill:none;stroke-width:0.023999;stroke-linecap:butt;stroke-linejoin:miter;stroke:rgb(17.96875%,20.3125%,21.09375%);stroke-opacity:0.8;stroke-miterlimit:10;" d="M 4.218853 2.605419 L 4.244313 3.17239 " transform="matrix(137.469889,0,0,137.469889,-102.391037,-50.818985)"/>
</g>
</g>
</g>
<g clip-path="url(#clip13)" clip-rule="nonzero">
<g clip-path="url(#clip14)" clip-rule="evenodd">
<g clip-path="url(#clip15)" clip-rule="evenodd">
<path style="fill:none;stroke-width:0.023999;stroke-linecap:butt;stroke-linejoin:miter;stroke:rgb(17.96875%,20.3125%,21.09375%);stroke-opacity:0.8;stroke-miterlimit:10;" d="M 4.218853 2.605419 L 3.451185 1.740087 " transform="matrix(137.469889,0,0,137.469889,-102.391037,-50.818985)"/>
</g>
</g>
</g>
<g clip-path="url(#clip16)" clip-rule="nonzero">
<g clip-path="url(#clip17)" clip-rule="evenodd">
<g clip-path="url(#clip18)" clip-rule="evenodd">
<path style="fill:none;stroke-width:0.023999;stroke-linecap:butt;stroke-linejoin:miter;stroke:rgb(17.96875%,20.3125%,21.09375%);stroke-opacity:0.8;stroke-miterlimit:10;" d="M 2.243903 3.346718 L 2.153315 3.89769 " transform="matrix(137.469889,0,0,137.469889,-102.391037,-50.818985)"/>
</g>
</g>
</g>
<g clip-path="url(#clip19)" clip-rule="nonzero">
<g clip-path="url(#clip20)" clip-rule="evenodd">
<g clip-path="url(#clip21)" clip-rule="evenodd">
<path style="fill:none;stroke-width:0.023999;stroke-linecap:butt;stroke-linejoin:miter;stroke:rgb(17.96875%,20.3125%,21.09375%);stroke-opacity:0.8;stroke-miterlimit:10;" d="M 2.243903 3.346718 L 1.759536 3.326855 " transform="matrix(137.469889,0,0,137.469889,-102.391037,-50.818985)"/>
</g>
</g>
</g>
<g clip-path="url(#clip22)" clip-rule="nonzero">
<g clip-path="url(#clip23)" clip-rule="evenodd">
<g clip-path="url(#clip24)" clip-rule="evenodd">
<path style="fill:none;stroke-width:0.023999;stroke-linecap:butt;stroke-linejoin:miter;stroke:rgb(17.96875%,20.3125%,21.09375%);stroke-opacity:0.8;stroke-miterlimit:10;" d="M 2.243903 3.346718 L 2.719434 2.61633 " transform="matrix(137.469889,0,0,137.469889,-102.391037,-50.818985)"/>
</g>
</g>
</g>
<g clip-path="url(#clip25)" clip-rule="nonzero">
<g clip-path="url(#clip26)" clip-rule="evenodd">
<g clip-path="url(#clip27)" clip-rule="evenodd">
<path style="fill:none;stroke-width:0.023999;stroke-linecap:butt;stroke-linejoin:miter;stroke:rgb(17.96875%,20.3125%,21.09375%);stroke-opacity:0.8;stroke-miterlimit:10;" d="M 1.219673 2.924153 L 1.033297 2.354767 " transform="matrix(137.469889,0,0,137.469889,-102.391037,-50.818985)"/>
</g>
</g>
</g>
<g clip-path="url(#clip28)" clip-rule="nonzero">
<g clip-path="url(#clip29)" clip-rule="evenodd">
<g clip-path="url(#clip30)" clip-rule="evenodd">
<path style="fill:none;stroke-width:0.023999;stroke-linecap:butt;stroke-linejoin:miter;stroke:rgb(17.96875%,20.3125%,21.09375%);stroke-opacity:0.8;stroke-miterlimit:10;" d="M 1.219673 2.924153 L 1.759536 3.326855 " transform="matrix(137.469889,0,0,137.469889,-102.391037,-50.818985)"/>
</g>
</g>
</g>
<g clip-path="url(#clip31)" clip-rule="nonzero">
<g clip-path="url(#clip32)" clip-rule="evenodd">
<g clip-path="url(#clip33)" clip-rule="evenodd">
<path style="fill:none;stroke-width:0.023999;stroke-linecap:butt;stroke-linejoin:miter;stroke:rgb(17.96875%,20.3125%,21.09375%);stroke-opacity:0.8;stroke-miterlimit:10;" d="M 1.219673 2.924153 L 1.264371 3.258857 " transform="matrix(137.469889,0,0,137.469889,-102.391037,-50.818985)"/>
</g>
</g>
</g>
<g clip-path="url(#clip34)" clip-rule="nonzero">
<g clip-path="url(#clip35)" clip-rule="evenodd">
<g clip-path="url(#clip36)" clip-rule="evenodd">
<path style="fill:none;stroke-width:0.023999;stroke-linecap:butt;stroke-linejoin:miter;stroke:rgb(17.96875%,20.3125%,21.09375%);stroke-opacity:0.8;stroke-miterlimit:10;" d="M 2.150872 2.81788 L 1.759536 3.326855 " transform="matrix(137.469889,0,0,137.469889,-102.391037,-50.818985)"/>
</g>
</g>
</g>
<g clip-path="url(#clip37)" clip-rule="nonzero">
<g clip-path="url(#clip38)" clip-rule="evenodd">
<g clip-path="url(#clip39)" clip-rule="evenodd">
<path style="fill:none;stroke-width:0.023999;stroke-linecap:butt;stroke-linejoin:miter;stroke:rgb(17.96875%,20.3125%,21.09375%);stroke-opacity:0.8;stroke-miterlimit:10;" d="M 2.150872 2.81788 L 2.719434 2.61633 " transform="matrix(137.469889,0,0,137.469889,-102.391037,-50.818985)"/>
</g>
</g>
</g>
<g clip-path="url(#clip40)" clip-rule="nonzero">
<g clip-path="url(#clip41)" clip-rule="evenodd">
<g clip-path="url(#clip42)" clip-rule="evenodd">
<path style="fill:none;stroke-width:0.023999;stroke-linecap:butt;stroke-linejoin:miter;stroke:rgb(17.96875%,20.3125%,21.09375%);stroke-opacity:0.8;stroke-miterlimit:10;" d="M 2.265073 4.070029 L 2.854065 4.362565 " transform="matrix(137.469889,0,0,137.469889,-102.391037,-50.818985)"/>
</g>
</g>
</g>
<g clip-path="url(#clip43)" clip-rule="nonzero">
<g clip-path="url(#clip44)" clip-rule="evenodd">
<g clip-path="url(#clip45)" clip-rule="evenodd">
<path style="fill:none;stroke-width:0.023999;stroke-linecap:butt;stroke-linejoin:miter;stroke:rgb(17.96875%,20.3125%,21.09375%);stroke-opacity:0.8;stroke-miterlimit:10;" d="M 2.265073 4.070029 L 2.153315 3.89769 " transform="matrix(137.469889,0,0,137.469889,-102.391037,-50.818985)"/>
</g>
</g>
</g>
<g clip-path="url(#clip46)" clip-rule="nonzero">
<g clip-path="url(#clip47)" clip-rule="evenodd">
<g clip-path="url(#clip48)" clip-rule="evenodd">
<path style="fill:none;stroke-width:0.023999;stroke-linecap:butt;stroke-linejoin:miter;stroke:rgb(17.96875%,20.3125%,21.09375%);stroke-opacity:0.8;stroke-miterlimit:10;" d="M 2.265073 4.070029 L 1.759536 3.326855 " transform="matrix(137.469889,0,0,137.469889,-102.391037,-50.818985)"/>
</g>
</g>
</g>
<g clip-path="url(#clip49)" clip-rule="nonzero">
<g clip-path="url(#clip50)" clip-rule="evenodd">
<g clip-path="url(#clip51)" clip-rule="evenodd">
<path style="fill:none;stroke-width:0.023999;stroke-linecap:butt;stroke-linejoin:miter;stroke:rgb(17.96875%,20.3125%,21.09375%);stroke-opacity:0.8;stroke-miterlimit:10;" d="M 2.854065 4.362565 L 3.358153 4.388991 " transform="matrix(137.469889,0,0,137.469889,-102.391037,-50.818985)"/>
</g>
</g>
</g>
<g clip-path="url(#clip52)" clip-rule="nonzero">
<g clip-path="url(#clip53)" clip-rule="evenodd">
<g clip-path="url(#clip54)" clip-rule="evenodd">
<path style="fill:none;stroke-width:0.023999;stroke-linecap:butt;stroke-linejoin:miter;stroke:rgb(17.96875%,20.3125%,21.09375%);stroke-opacity:0.8;stroke-miterlimit:10;" d="M 3.708883 4.330342 L 3.358153 4.388991 " transform="matrix(137.469889,0,0,137.469889,-102.391037,-50.818985)"/>
</g>
</g>
</g>
<g clip-path="url(#clip55)" clip-rule="nonzero">
<g clip-path="url(#clip56)" clip-rule="evenodd">
<g clip-path="url(#clip57)" clip-rule="evenodd">
<path style="fill:none;stroke-width:0.023999;stroke-linecap:butt;stroke-linejoin:miter;stroke:rgb(17.96875%,20.3125%,21.09375%);stroke-opacity:0.8;stroke-miterlimit:10;" d="M 3.051666 2.765482 L 2.719434 2.61633 " transform="matrix(137.469889,0,0,137.469889,-102.391037,-50.818985)"/>
</g>
</g>
</g>
<g clip-path="url(#clip58)" clip-rule="nonzero">
<g clip-path="url(#clip59)" clip-rule="evenodd">
<g clip-path="url(#clip60)" clip-rule="evenodd">
<path style="fill:none;stroke-width:0.023999;stroke-linecap:butt;stroke-linejoin:miter;stroke:rgb(17.96875%,20.3125%,21.09375%);stroke-opacity:0.8;stroke-miterlimit:10;" d="M 1.033297 2.354767 L 1.01352 1.978407 " transform="matrix(137.469889,0,0,137.469889,-102.391037,-50.818985)"/>
</g>
</g>
</g>
<g clip-path="url(#clip61)" clip-rule="nonzero">
<g clip-path="url(#clip62)" clip-rule="evenodd">
<g clip-path="url(#clip63)" clip-rule="evenodd">
<path style="fill:none;stroke-width:0.023999;stroke-linecap:butt;stroke-linejoin:miter;stroke:rgb(17.96875%,20.3125%,21.09375%);stroke-opacity:0.8;stroke-miterlimit:10;" d="M 1.759536 3.326855 L 1.264371 3.258857 " transform="matrix(137.469889,0,0,137.469889,-102.391037,-50.818985)"/>
</g>
</g>
</g>
<g clip-path="url(#clip64)" clip-rule="nonzero">
<g clip-path="url(#clip65)" clip-rule="evenodd">
<g clip-path="url(#clip66)" clip-rule="evenodd">
<path style="fill:none;stroke-width:0.023999;stroke-linecap:butt;stroke-linejoin:miter;stroke:rgb(17.96875%,20.3125%,21.09375%);stroke-opacity:0.8;stroke-miterlimit:10;" d="M 2.719434 2.61633 L 3.451185 1.740087 " transform="matrix(137.469889,0,0,137.469889,-102.391037,-50.818985)"/>
</g>
</g>
</g>
<g clip-path="url(#clip67)" clip-rule="nonzero">
<g clip-path="url(#clip68)" clip-rule="evenodd">
<g clip-path="url(#clip69)" clip-rule="evenodd">
<path style="fill:none;stroke-width:0.023999;stroke-linecap:butt;stroke-linejoin:miter;stroke:rgb(17.96875%,20.3125%,21.09375%);stroke-opacity:0.8;stroke-miterlimit:10;" d="M 3.451185 1.740087 L 3.380147 1.325906 " transform="matrix(137.469889,0,0,137.469889,-102.391037,-50.818985)"/>
</g>
</g>
</g>
<g clip-path="url(#clip70)" clip-rule="nonzero">
<g clip-path="url(#clip71)" clip-rule="evenodd">
<g clip-path="url(#clip72)" clip-rule="evenodd">
<path style="fill:none;stroke-width:0.023999;stroke-linecap:butt;stroke-linejoin:miter;stroke:rgb(17.96875%,20.3125%,21.09375%);stroke-opacity:0.8;stroke-miterlimit:10;" d="M 3.451185 1.740087 L 2.72003 1.103982 " transform="matrix(137.469889,0,0,137.469889,-102.391037,-50.818985)"/>
</g>
</g>
</g>
<g clip-path="url(#clip73)" clip-rule="nonzero">
<g clip-path="url(#clip74)" clip-rule="evenodd">
<g clip-path="url(#clip75)" clip-rule="evenodd">
<path style="fill:none;stroke-width:0.023999;stroke-linecap:butt;stroke-linejoin:miter;stroke:rgb(17.96875%,20.3125%,21.09375%);stroke-opacity:0.8;stroke-miterlimit:10;" d="M 3.451185 1.740087 L 3.907421 1.574994 " transform="matrix(137.469889,0,0,137.469889,-102.391037,-50.818985)"/>
</g>
</g>
</g>
<g clip-path="url(#clip76)" clip-rule="nonzero">
<g clip-path="url(#clip77)" clip-rule="evenodd">
<g clip-path="url(#clip78)" clip-rule="evenodd">
<path style="fill:none;stroke-width:0.023999;stroke-linecap:butt;stroke-linejoin:miter;stroke:rgb(17.96875%,20.3125%,21.09375%);stroke-opacity:0.8;stroke-miterlimit:10;" d="M 3.451185 1.740087 L 3.774494 1.183403 " transform="matrix(137.469889,0,0,137.469889,-102.391037,-50.818985)"/>
</g>
</g>
</g>
<g clip-path="url(#clip79)" clip-rule="nonzero">
<g clip-path="url(#clip80)" clip-rule="evenodd">
<g clip-path="url(#clip81)" clip-rule="evenodd">
<path style="fill:none;stroke-width:0.023999;stroke-linecap:butt;stroke-linejoin:miter;stroke:rgb(17.96875%,20.3125%,21.09375%);stroke-opacity:0.8;stroke-miterlimit:10;" d="M 1.780961 1.007768 L 2.138284 1.007853 " transform="matrix(137.469889,0,0,137.469889,-102.391037,-50.818985)"/>
</g>
</g>
</g>
<g clip-path="url(#clip82)" clip-rule="nonzero">
<g clip-path="url(#clip83)" clip-rule="evenodd">
<g clip-path="url(#clip84)" clip-rule="evenodd">
<path style="fill:none;stroke-width:0.023999;stroke-linecap:butt;stroke-linejoin:miter;stroke:rgb(17.96875%,20.3125%,21.09375%);stroke-opacity:0.8;stroke-miterlimit:10;" d="M 2.138284 1.007853 L 2.72003 1.103982 " transform="matrix(137.469889,0,0,137.469889,-102.391037,-50.818985)"/>
</g>
</g>
</g>
<g clip-path="url(#clip85)" clip-rule="nonzero">
<g clip-path="url(#clip86)" clip-rule="evenodd">
<g clip-path="url(#clip87)" clip-rule="evenodd">
<path style="fill:none;stroke-width:0.023999;stroke-linecap:butt;stroke-linejoin:miter;stroke:rgb(17.96875%,20.3125%,21.09375%);stroke-opacity:0.8;stroke-miterlimit:10;" d="M 2.702044 0.714948 L 2.72003 1.103982 " transform="matrix(137.469889,0,0,137.469889,-102.391037,-50.818985)"/>
</g>
</g>
</g>
<path style="fill-rule:nonzero;fill:rgb(100%,92.941176%,43.529412%);fill-opacity:1;stroke-width:0.023999;stroke-linecap:butt;stroke-linejoin:miter;stroke:rgb(60%,60%,60%);stroke-opacity:0.8;stroke-miterlimit:10;" d="M 0.119998 0.00000387243 C 0.119998 0.0662684 0.0662646 0.120002 0.000000124358 0.120002 C -0.0662644 0.120002 -0.119998 0.0662684 -0.119998 0.00000387243 C -0.119998 -0.0662606 -0.0662644 -0.119994 0.000000124358 -0.119994 C 0.0662646 -0.119994 0.119998 -0.0662606 0.119998 0.00000387243 Z M 0.119998 0.00000387243 " transform="matrix(137.469889,0,0,137.469889,521.796858,364.386186)"/>
<path style="fill-rule:nonzero;fill:rgb(100%,92.941176%,43.529412%);fill-opacity:1;stroke-width:0.023999;stroke-linecap:butt;stroke-linejoin:miter;stroke:rgb(60%,60%,60%);stroke-opacity:0.8;stroke-miterlimit:10;" d="M 0.119983 0.00000902724 C 0.119983 0.0662735 0.0662777 0.120007 0.0000131682 0.120007 C -0.0662798 0.120007 -0.119985 0.0662735 -0.119985 0.00000902724 C -0.119985 -0.0662839 -0.0662798 -0.119989 0.0000131682 -0.119989 C 0.0662777 -0.119989 0.119983 -0.0662839 0.119983 0.00000902724 Z M 0.119983 0.00000902724 " transform="matrix(137.469889,0,0,137.469889,563.06069,248.412822)"/>
<path style="fill-rule:nonzero;fill:rgb(100%,92.941176%,43.529412%);fill-opacity:1;stroke-width:0.023999;stroke-linecap:butt;stroke-linejoin:miter;stroke:rgb(60%,60%,60%);stroke-opacity:0.8;stroke-miterlimit:10;" d="M 0.120009 0.0000131597 C 0.120009 0.0662777 0.066276 0.119983 0.0000114934 0.119983 C -0.0662814 0.119983 -0.119986 0.0662777 -0.119986 0.0000131597 C -0.119986 -0.0662798 -0.0662814 -0.119985 0.0000114934 -0.119985 C 0.066276 -0.119985 0.120009 -0.0662798 0.120009 0.0000131597 Z M 0.120009 0.0000131597 " transform="matrix(137.469889,0,0,137.469889,533.615607,278.052878)"/>
<path style="fill-rule:nonzero;fill:rgb(100%,92.941176%,43.529412%);fill-opacity:1;stroke-width:0.023999;stroke-linecap:butt;stroke-linejoin:miter;stroke:rgb(60%,60%,60%);stroke-opacity:0.8;stroke-miterlimit:10;" d="M 0.120008 0.00000222489 C 0.120008 0.0662667 0.0662746 0.12 0.0000100587 0.12 C -0.0662829 0.12 -0.119988 0.0662667 -0.119988 0.00000222489 C -0.119988 -0.0662623 -0.0662829 -0.119996 0.0000100587 -0.119996 C 0.0662746 -0.119996 0.120008 -0.0662623 0.120008 0.00000222489 Z M 0.120008 0.00000222489 " transform="matrix(137.469889,0,0,137.469889,477.572836,307.34735)"/>
<path style="fill-rule:nonzero;fill:rgb(100%,92.941176%,43.529412%);fill-opacity:1;stroke-width:0.023999;stroke-linecap:butt;stroke-linejoin:miter;stroke:rgb(60%,60%,60%);stroke-opacity:0.8;stroke-miterlimit:10;" d="M 0.120004 -0.00000629724 C 0.120004 0.0662582 0.0662704 0.119992 0.0000058805 0.119992 C -0.0662586 0.119992 -0.119992 0.0662582 -0.119992 -0.00000629724 C -0.119992 -0.0662708 -0.0662586 -0.120004 0.0000058805 -0.120004 C 0.0662704 -0.120004 0.120004 -0.0662708 0.120004 -0.00000629724 Z M 0.120004 -0.00000629724 " transform="matrix(137.469889,0,0,137.469889,481.07341,385.289928)"/>
<path style="fill-rule:nonzero;fill:rgb(55.294118%,82.745098%,78.039216%);fill-opacity:1;stroke-width:0.023999;stroke-linecap:butt;stroke-linejoin:miter;stroke:rgb(60%,60%,60%);stroke-opacity:0.8;stroke-miterlimit:10;" d="M 0.119985 -0.00000119016 C 0.119985 0.0662633 0.0662797 0.119997 -0.0000131825 0.119997 C -0.0662777 0.119997 -0.119983 0.0662633 -0.119983 -0.00000119016 C -0.119983 -0.0662657 -0.0662777 -0.119999 -0.0000131825 -0.119999 C 0.0662797 -0.119999 0.119985 -0.0662657 0.119985 -0.00000119016 Z M 0.119985 -0.00000119016 " transform="matrix(137.469889,0,0,137.469889,206.079937,409.25407)"/>
<path style="fill-rule:nonzero;fill:rgb(55.294118%,82.745098%,78.039216%);fill-opacity:1;stroke-width:0.023999;stroke-linecap:butt;stroke-linejoin:miter;stroke:rgb(60%,60%,60%);stroke-opacity:0.8;stroke-miterlimit:10;" d="M 0.120004 0.0000103595 C 0.120004 0.0662749 0.0662704 0.120008 0.00000585939 0.120008 C -0.0662587 0.120008 -0.119992 0.0662749 -0.119992 0.0000103595 C -0.119992 -0.0662826 -0.0662587 -0.119988 0.00000585939 -0.119988 C 0.0662704 -0.119988 0.120004 -0.0662826 0.120004 0.0000103595 Z M 0.120004 0.0000103595 " transform="matrix(137.469889,0,0,137.469889,65.276538,351.162638)"/>
<path style="fill-rule:nonzero;fill:rgb(55.294118%,82.745098%,78.039216%);fill-opacity:1;stroke-width:0.023999;stroke-linecap:butt;stroke-linejoin:miter;stroke:rgb(60%,60%,60%);stroke-opacity:0.8;stroke-miterlimit:10;" d="M 0.119988 -0.00000213915 C 0.119988 0.0662624 0.066283 0.119996 -0.0000099126 0.119996 C -0.0662744 0.119996 -0.120008 0.0662624 -0.120008 -0.00000213915 C -0.120008 -0.0662667 -0.0662744 -0.12 -0.0000099126 -0.12 C 0.066283 -0.12 0.119988 -0.0662667 0.119988 -0.00000213915 Z M 0.119988 -0.00000213915 " transform="matrix(137.469889,0,0,137.469889,193.290425,336.554982)"/>
<path style="fill-rule:nonzero;fill:rgb(55.294118%,82.745098%,78.039216%);fill-opacity:1;stroke-width:0.023999;stroke-linecap:butt;stroke-linejoin:miter;stroke:rgb(60%,60%,60%);stroke-opacity:0.8;stroke-miterlimit:10;" d="M 0.119992 0.0000115146 C 0.119992 0.066276 0.0662581 0.119981 -0.00000636138 0.119981 C -0.0662709 0.119981 -0.120004 0.066276 -0.120004 0.0000115146 C -0.120004 -0.0662814 -0.0662709 -0.119986 -0.00000636138 -0.119986 C 0.0662581 -0.119986 0.119992 -0.0662814 0.119992 0.0000115146 Z M 0.119992 0.0000115146 " transform="matrix(137.469889,0,0,137.469889,208.989156,508.685917)"/>
<path style="fill-rule:nonzero;fill:rgb(55.294118%,82.745098%,78.039216%);fill-opacity:1;stroke-width:0.023999;stroke-linecap:butt;stroke-linejoin:miter;stroke:rgb(60%,60%,60%);stroke-opacity:0.8;stroke-miterlimit:10;" d="M 0.119996 -0.0000000255702 C 0.119996 0.0662645 0.0662622 0.119998 -0.00000230274 0.119998 C -0.0662668 0.119998 -0.12 0.0662645 -0.12 -0.0000000255702 C -0.12 -0.0662645 -0.0662668 -0.119998 -0.00000230274 -0.119998 C 0.0662622 -0.119998 0.119996 -0.0662645 0.119996 -0.0000000255702 Z M 0.119996 -0.0000000255702 " transform="matrix(137.469889,0,0,137.469889,289.957348,548.902347)"/>
<path style="fill-rule:nonzero;fill:rgb(55.294118%,82.745098%,78.039216%);fill-opacity:1;stroke-width:0.023999;stroke-linecap:butt;stroke-linejoin:miter;stroke:rgb(60%,60%,60%);stroke-opacity:0.8;stroke-miterlimit:10;" d="M 0.119995 -0.00000669264 C 0.119995 0.0662578 0.066262 0.119991 -0.00000251232 0.119991 C -0.066267 0.119991 -0.12 0.0662578 -0.12 -0.00000669264 C -0.12 -0.0662712 -0.066267 -0.120005 -0.00000251232 -0.120005 C 0.066262 -0.120005 0.119995 -0.0662712 0.119995 -0.00000669264 Z M 0.119995 -0.00000669264 " transform="matrix(137.469889,0,0,137.469889,193.625345,484.997014)"/>
<path style="fill-rule:nonzero;fill:rgb(55.294118%,82.745098%,78.039216%);fill-opacity:1;stroke-width:0.023999;stroke-linecap:butt;stroke-linejoin:miter;stroke:rgb(60%,60%,60%);stroke-opacity:0.8;stroke-miterlimit:10;" d="M 0.119985 -0.0000115186 C 0.119985 0.0662814 0.0662803 0.119986 -0.0000126647 0.119986 C -0.0662772 0.119986 -0.119982 0.0662814 -0.119982 -0.0000115186 C -0.119982 -0.066276 -0.0662772 -0.119981 -0.0000126647 -0.119981 C 0.0662803 -0.119981 0.119985 -0.066276 0.119985 -0.0000115186 Z M 0.119985 -0.0000115186 " transform="matrix(137.469889,0,0,137.469889,407.470491,544.47424)"/>
<path style="fill-rule:nonzero;fill:rgb(55.294118%,82.745098%,78.039216%);fill-opacity:1;stroke-width:0.023999;stroke-linecap:butt;stroke-linejoin:miter;stroke:rgb(60%,60%,60%);stroke-opacity:0.8;stroke-miterlimit:10;" d="M 0.119993 0.00000573802 C 0.119993 0.0662702 0.0662597 0.120004 -0.00000476999 0.120004 C -0.0662693 0.120004 -0.120003 0.0662702 -0.120003 0.00000573802 C -0.120003 -0.0662588 -0.0662693 -0.119992 -0.00000476999 -0.119992 C 0.0662597 -0.119992 0.119993 -0.0662588 0.119993 0.00000573802 Z M 0.119993 0.00000573802 " transform="matrix(137.469889,0,0,137.469889,317.121749,329.350774)"/>
<path style="fill-rule:nonzero;fill:rgb(55.294118%,82.745098%,78.039216%);fill-opacity:1;stroke-width:0.023999;stroke-linecap:butt;stroke-linejoin:miter;stroke:rgb(60%,60%,60%);stroke-opacity:0.8;stroke-miterlimit:10;" d="M 0.120003 0.0000128348 C 0.120003 0.0662773 0.0662696 0.119982 0.00000505469 0.119982 C -0.0662595 0.119982 -0.119993 0.0662773 -0.119993 0.0000128348 C -0.119993 -0.0662801 -0.0662595 -0.119985 0.00000505469 -0.119985 C 0.0662696 -0.119985 0.120003 -0.0662801 0.120003 0.0000128348 Z M 0.120003 0.0000128348 " transform="matrix(137.469889,0,0,137.469889,39.655555,272.888861)"/>
<path style="fill-rule:nonzero;fill:rgb(55.294118%,82.745098%,78.039216%);fill-opacity:1;stroke-width:0.023999;stroke-linecap:butt;stroke-linejoin:miter;stroke:rgb(60%,60%,60%);stroke-opacity:0.8;stroke-miterlimit:10;" d="M 0.119985 -0.0000109658 C 0.119985 0.066282 0.0662798 0.119987 -0.0000131682 0.119987 C -0.0662777 0.119987 -0.119983 0.066282 -0.119983 -0.0000109658 C -0.119983 -0.0662755 -0.0662777 -0.120009 -0.0000131682 -0.120009 C 0.0662798 -0.120009 0.119985 -0.0662755 0.119985 -0.0000109658 Z M 0.119985 -0.0000109658 " transform="matrix(137.469889,0,0,137.469889,36.93931,221.153851)"/>
<path style="fill-rule:nonzero;fill:rgb(55.294118%,82.745098%,78.039216%);fill-opacity:1;stroke-width:0.023999;stroke-linecap:butt;stroke-linejoin:miter;stroke:rgb(60%,60%,60%);stroke-opacity:0.8;stroke-miterlimit:10;" d="M 0.119996 0.00000511606 C 0.119996 0.0662696 0.0662631 0.120003 -0.00000143654 0.120003 C -0.0662659 0.120003 -0.119999 0.0662696 -0.119999 0.00000511606 C -0.119999 -0.0662594 -0.0662659 -0.119993 -0.00000143654 -0.119993 C 0.0662631 -0.119993 0.119996 -0.0662594 0.119996 0.00000511606 Z M 0.119996 0.00000511606 " transform="matrix(137.469889,0,0,137.469889,139.492385,406.522734)"/>
<path style="fill-rule:nonzero;fill:rgb(55.294118%,82.745098%,78.039216%);fill-opacity:1;stroke-width:0.023999;stroke-linecap:butt;stroke-linejoin:miter;stroke:rgb(60%,60%,60%);stroke-opacity:0.8;stroke-miterlimit:10;" d="M 0.119985 0.000011948 C 0.119985 0.0662765 0.0662798 0.119981 -0.0000130844 0.119981 C -0.0662776 0.119981 -0.119983 0.0662765 -0.119983 0.000011948 C -0.119983 -0.066281 -0.0662776 -0.119986 -0.0000130844 -0.119986 C 0.0662798 -0.119986 0.119985 -0.066281 0.119985 0.000011948 Z M 0.119985 0.000011948 " transform="matrix(137.469889,0,0,137.469889,71.423674,397.174139)"/>
<path style="fill-rule:nonzero;fill:rgb(55.294118%,82.745098%,78.039216%);fill-opacity:1;stroke-width:0.023999;stroke-linecap:butt;stroke-linejoin:miter;stroke:rgb(60%,60%,60%);stroke-opacity:0.8;stroke-miterlimit:10;" d="M 0.119983 -0.00000192324 C 0.119983 0.0662626 0.0662782 0.119996 0.0000136597 0.119996 C -0.0662793 0.119996 -0.119984 0.0662626 -0.119984 -0.00000192324 C -0.119984 -0.0662664 -0.0662793 -0.12 0.0000136597 -0.12 C 0.0662782 -0.12 0.119983 -0.0662664 0.119983 -0.00000192324 Z M 0.119983 -0.00000192324 " transform="matrix(137.469889,0,0,137.469889,359.252028,552.535421)"/>
<path style="fill-rule:nonzero;fill:rgb(55.294118%,82.745098%,78.039216%);fill-opacity:1;stroke-width:0.023999;stroke-linecap:butt;stroke-linejoin:miter;stroke:rgb(60%,60%,60%);stroke-opacity:0.8;stroke-miterlimit:10;" d="M 0.119995 0.0000105994 C 0.119995 0.0662751 0.0662612 0.120008 -0.0000032916 0.120008 C -0.0662678 0.120008 -0.120001 0.0662751 -0.120001 0.0000105994 C -0.120001 -0.0662823 -0.0662678 -0.119987 -0.0000032916 -0.119987 C 0.0662612 -0.119987 0.119995 -0.0662823 0.119995 0.0000105994 Z M 0.119995 0.0000105994 " transform="matrix(137.469889,0,0,137.469889,271.449671,308.846199)"/>
<path style="fill-rule:nonzero;fill:rgb(100%,92.941176%,43.529412%);fill-opacity:1;stroke-width:0.023999;stroke-linecap:butt;stroke-linejoin:miter;stroke:rgb(60%,60%,60%);stroke-opacity:0.8;stroke-miterlimit:10;" d="M 0.119988 0.00000306078 C 0.119988 0.0662676 0.0662826 0.120001 -0.0000103204 0.120001 C -0.0662748 0.120001 -0.120008 0.0662676 -0.120008 0.00000306078 C -0.120008 -0.0662615 -0.0662748 -0.119995 -0.0000103204 -0.119995 C 0.0662826 -0.119995 0.119988 -0.0662615 0.119988 0.00000306078 Z M 0.119988 0.00000306078 " transform="matrix(137.469889,0,0,137.469889,372.044387,188.390204)"/>
<path style="fill-rule:nonzero;fill:rgb(100%,92.941176%,43.529412%);fill-opacity:1;stroke-width:0.023999;stroke-linecap:butt;stroke-linejoin:miter;stroke:rgb(60%,60%,60%);stroke-opacity:0.8;stroke-miterlimit:10;" d="M 0.120003 -0.0000119248 C 0.120003 0.066281 0.0662693 0.119986 0.00000479675 0.119986 C -0.0662597 0.119986 -0.119993 0.066281 -0.119993 -0.0000119248 C -0.119993 -0.0662764 -0.0662597 -0.119981 0.00000479675 -0.119981 C 0.0662693 -0.119981 0.120003 -0.0662764 0.120003 -0.0000119248 Z M 0.120003 -0.0000119248 " transform="matrix(137.469889,0,0,137.469889,142.436841,87.720389)"/>
<path style="fill-rule:nonzero;fill:rgb(100%,92.941176%,43.529412%);fill-opacity:1;stroke-width:0.023999;stroke-linecap:butt;stroke-linejoin:miter;stroke:rgb(60%,60%,60%);stroke-opacity:0.8;stroke-miterlimit:10;" d="M 0.119993 0.00000457945 C 0.119993 0.0662691 0.0662599 0.120002 -0.0000045927 0.120002 C -0.0662691 0.120002 -0.120002 0.0662691 -0.120002 0.00000457945 C -0.120002 -0.0662599 -0.0662691 -0.119993 -0.0000045927 -0.119993 C 0.0662599 -0.119993 0.119993 -0.0662599 0.119993 0.00000457945 Z M 0.119993 0.00000457945 " transform="matrix(137.469889,0,0,137.469889,191.559225,87.729839)"/>
<path style="fill-rule:nonzero;fill:rgb(100%,92.941176%,43.529412%);fill-opacity:1;stroke-width:0.023999;stroke-linecap:butt;stroke-linejoin:miter;stroke:rgb(60%,60%,60%);stroke-opacity:0.8;stroke-miterlimit:10;" d="M 0.120009 -0.00000106316 C 0.120009 0.0662634 0.066276 0.119997 0.00001144 0.119997 C -0.0662815 0.119997 -0.119986 0.0662634 -0.119986 -0.00000106316 C -0.119986 -0.0662656 -0.0662815 -0.119999 0.00001144 -0.119999 C 0.066276 -0.119999 0.120009 -0.0662656 0.120009 -0.00000106316 Z M 0.120009 -0.00000106316 " transform="matrix(137.469889,0,0,137.469889,362.275771,131.453271)"/>
<path style="fill-rule:nonzero;fill:rgb(100%,92.941176%,43.529412%);fill-opacity:1;stroke-width:0.023999;stroke-linecap:butt;stroke-linejoin:miter;stroke:rgb(60%,60%,60%);stroke-opacity:0.8;stroke-miterlimit:10;" d="M 0.119987 0.00000192324 C 0.119987 0.0662664 0.0662817 0.12 -0.0000112418 0.12 C -0.0662758 0.12 -0.120009 0.0662664 -0.120009 0.00000192324 C -0.120009 -0.0662626 -0.0662758 -0.119996 -0.0000112418 -0.119996 C 0.0662817 -0.119996 0.119987 -0.0662626 0.119987 0.00000192324 Z M 0.119987 0.00000192324 " transform="matrix(137.469889,0,0,137.469889,269.060139,47.464579)"/>
<path style="fill-rule:nonzero;fill:rgb(100%,92.941176%,43.529412%);fill-opacity:1;stroke-width:0.023999;stroke-linecap:butt;stroke-linejoin:miter;stroke:rgb(60%,60%,60%);stroke-opacity:0.8;stroke-miterlimit:10;" d="M 0.120005 0.0000109907 C 0.120005 0.0662755 0.0662712 0.120009 0.00000665222 0.120009 C -0.0662579 0.120009 -0.119991 0.0662755 -0.119991 0.0000109907 C -0.119991 -0.0662819 -0.0662579 -0.119987 0.00000665222 -0.119987 C 0.0662712 -0.119987 0.120005 -0.0662819 0.120005 0.0000109907 Z M 0.120005 0.0000109907 " transform="matrix(137.469889,0,0,137.469889,271.530336,100.943802)"/>
<path style="fill-rule:nonzero;fill:rgb(100%,92.941176%,43.529412%);fill-opacity:1;stroke-width:0.023999;stroke-linecap:butt;stroke-linejoin:miter;stroke:rgb(60%,60%,60%);stroke-opacity:0.8;stroke-miterlimit:10;" d="M 0.119992 0.0000114118 C 0.119992 0.0662759 0.0662586 0.120009 -0.00000588146 0.120009 C -0.0662704 0.120009 -0.120004 0.0662759 -0.120004 0.0000114118 C -0.120004 -0.0662815 -0.0662704 -0.119986 -0.00000588146 -0.119986 C 0.0662586 -0.119986 0.119992 -0.0662815 0.119992 0.0000114118 Z M 0.119992 0.0000114118 " transform="matrix(137.469889,0,0,137.469889,434.762527,165.693744)"/>
<path style="fill-rule:nonzero;fill:rgb(100%,92.941176%,43.529412%);fill-opacity:1;stroke-width:0.023999;stroke-linecap:butt;stroke-linejoin:miter;stroke:rgb(60%,60%,60%);stroke-opacity:0.8;stroke-miterlimit:10;" d="M 0.119991 -0.00000345752 C 0.119991 0.0662611 0.0662579 0.119994 -0.00000665644 0.119994 C -0.0662712 0.119994 -0.120005 0.0662611 -0.120005 -0.00000345752 C -0.120005 -0.066268 -0.0662712 -0.120001 -0.00000665644 -0.120001 C 0.0662579 -0.120001 0.119991 -0.066268 0.119991 -0.00000345752 Z M 0.119991 -0.00000345752 " transform="matrix(137.469889,0,0,137.469889,416.489196,111.863757)"/>
</g>
</svg>
