<?xml version="1.0" encoding="UTF-8"?>
<svg xmlns="http://www.w3.org/2000/svg" xmlns:xlink="http://www.w3.org/1999/xlink" width="600pt" height="600pt" viewBox="0 0 600 600" version="1.1">
<defs>
<clipPath id="clip1">
  <path d="M 212 451.617188 L 320 451.617188 L 320 576.824219 L 212 576.824219 Z M 212 451.617188 "/>
</clipPath>
<clipPath id="clip2">
  <path d="M 125.34375 451.617188 L 406.757812 451.617188 L 406.757812 576.824219 L 125.34375 576.824219 Z M 125.34375 451.617188 L 276.144531 537.488281 C 276.144531 546.597656 268.761719 553.984375 259.652344 553.984375 C 250.539062 553.984375 243.15625 546.597656 243.15625 537.488281 C 243.15625 528.378906 250.539062 520.992188 259.652344 520.992188 C 268.761719 520.992188 276.144531 528.378906 276.144531 537.488281 Z M 125.34375 451.617188 "/>
</clipPath>
<clipPath id="clip3">
  <path d="M 125.34375 451.617188 L 406.757812 451.617188 L 406.757812 576.824219 L 125.34375 576.824219 Z M 125.34375 451.617188 L 288.949219 490.957031 C 288.949219 500.066406 281.5625 507.453125 272.453125 507.453125 C 263.339844 507.453125 255.957031 500.066406 255.957031 490.957031 C 255.957031 481.847656 263.339844 474.460938 272.453125 474.460938 C 281.5625 474.460938 288.949219 481.847656 288.949219 490.957031 Z M 125.34375 451.617188 "/>
</clipPath>
<clipPath id="clip4">
  <path d="M 107.976562 439 L 201.320312 439 L 201.320312 540 L 107.976562 540 Z M 107.976562 439 "/>
</clipPath>
<clipPath id="clip5">
  <path d="M 107.976562 347.949219 L 201.320312 347.949219 L 201.320312 630.910156 L 107.976562 630.910156 Z M 107.976562 347.949219 L 143.53125 486.207031 C 143.53125 495.316406 136.144531 502.703125 127.035156 502.703125 C 117.925781 502.703125 110.539062 495.316406 110.539062 486.207031 C 110.539062 477.09375 117.925781 469.710938 127.035156 469.710938 C 136.144531 469.710938 143.53125 477.09375 143.53125 486.207031 Z M 107.976562 347.949219 "/>
</clipPath>
<clipPath id="clip6">
  <path d="M 107.976562 347.949219 L 201.320312 347.949219 L 201.320312 630.910156 L 107.976562 630.910156 Z M 107.976562 347.949219 L 198.761719 492.65625 C 198.761719 501.765625 191.378906 509.152344 182.265625 509.152344 C 173.15625 509.152344 165.769531 501.765625 165.769531 492.65625 C 165.769531 483.546875 173.15625 476.160156 182.265625 476.160156 C 191.378906 476.160156 198.761719 483.546875 198.761719 492.65625 Z M 107.976562 347.949219 "/>
</clipPath>
<clipPath id="clip7">
  <path d="M 176.40625 444 L 278.308594 444 L 278.308594 540 L 176.40625 540 Z M 176.40625 444 "/>
</clipPath>
<clipPath id="clip8">
  <path d="M 176.40625 351.808594 L 278.308594 351.808594 L 278.308594 631.800781 L 176.40625 631.800781 Z M 176.40625 351.808594 L 198.761719 492.65625 C 198.761719 501.765625 191.378906 509.152344 182.265625 509.152344 C 173.15625 509.152344 165.769531 501.765625 165.769531 492.65625 C 165.769531 483.546875 173.15625 476.160156 182.265625 476.160156 C 191.378906 476.160156 198.761719 483.546875 198.761719 492.65625 Z M 176.40625 351.808594 "/>
</clipPath>
<clipPath id="clip9">
  <path d="M 176.40625 351.808594 L 278.308594 351.808594 L 278.308594 631.800781 L 176.40625 631.800781 Z M 176.40625 351.808594 L 288.949219 490.957031 C 288.949219 500.066406 281.5625 507.453125 272.453125 507.453125 C 263.339844 507.453125 255.957031 500.066406 255.957031 490.957031 C 255.957031 481.847656 263.339844 474.460938 272.453125 474.460938 C 281.5625 474.460938 288.949219 481.847656 288.949219 490.957031 Z M 176.40625 351.808594 "/>
</clipPath>
<clipPath id="clip10">
  <path d="M 225 444 L 372 444 L 372 582 L 225 582 Z M 225 444 "/>
</clipPath>
<clipPath id="clip11">
  <path d="M 181.507812 383.828125 L 415.777344 383.828125 L 415.777344 642.300781 L 181.507812 642.300781 Z M 181.507812 383.828125 L 288.949219 490.957031 C 288.949219 500.066406 281.5625 507.453125 272.453125 507.453125 C 263.339844 507.453125 255.957031 500.066406 255.957031 490.957031 C 255.957031 481.847656 263.339844 474.460938 272.453125 474.460938 C 281.5625 474.460938 288.949219 481.847656 288.949219 490.957031 Z M 181.507812 383.828125 "/>
</clipPath>
<clipPath id="clip12">
  <path d="M 181.507812 383.828125 L 415.777344 383.828125 L 415.777344 642.300781 L 181.507812 642.300781 Z M 181.507812 383.828125 L 341.332031 535.175781 C 341.332031 544.285156 333.945312 551.671875 324.835938 551.671875 C 315.726562 551.671875 308.339844 544.285156 308.339844 535.175781 C 308.339844 526.0625 315.726562 518.679688 324.835938 518.679688 C 333.945312 518.679688 341.332031 526.0625 341.332031 535.175781 Z M 181.507812 383.828125 "/>
</clipPath>
<clipPath id="clip13">
  <path d="M 225 346 L 375 346 L 375 538 L 225 538 Z M 225 346 "/>
</clipPath>
<clipPath id="clip14">
  <path d="M 151.070312 322.851562 L 449.382812 322.851562 L 449.382812 561.472656 L 151.070312 561.472656 Z M 151.070312 322.851562 L 288.949219 490.957031 C 288.949219 500.066406 281.5625 507.453125 272.453125 507.453125 C 263.339844 507.453125 255.957031 500.066406 255.957031 490.957031 C 255.957031 481.847656 263.339844 474.460938 272.453125 474.460938 C 281.5625 474.460938 288.949219 481.847656 288.949219 490.957031 Z M 151.070312 322.851562 "/>
</clipPath>
<clipPath id="clip15">
  <path d="M 151.070312 322.851562 L 449.382812 322.851562 L 449.382812 561.472656 L 151.070312 561.472656 Z M 151.070312 322.851562 L 344.5 393.371094 C 344.5 402.480469 337.117188 409.867188 328.003906 409.867188 C 318.894531 409.867188 311.511719 402.480469 311.511719 393.371094 C 311.511719 384.257812 318.894531 376.875 328.003906 376.875 C 337.117188 376.875 344.5 384.257812 344.5 393.371094 Z M 151.070312 322.851562 "/>
</clipPath>
<clipPath id="clip16">
  <path d="M 276 17.863281 L 393 17.863281 L 393 179.101562 L 276 179.101562 Z M 276 17.863281 "/>
</clipPath>
<clipPath id="clip17">
  <path d="M 190.308594 17.863281 L 478.75 17.863281 L 478.75 179.101562 L 190.308594 179.101562 Z M 190.308594 17.863281 L 362.519531 134.457031 C 362.519531 143.566406 355.132812 150.953125 346.023438 150.953125 C 336.914062 150.953125 329.527344 143.566406 329.527344 134.457031 C 329.527344 125.347656 336.914062 117.960938 346.023438 117.960938 C 355.132812 117.960938 362.519531 125.347656 362.519531 134.457031 Z M 190.308594 17.863281 "/>
</clipPath>
<clipPath id="clip18">
  <path d="M 190.308594 17.863281 L 478.75 17.863281 L 478.75 179.101562 L 190.308594 179.101562 Z M 190.308594 17.863281 L 339.535156 62.511719 C 339.535156 71.621094 332.148438 79.007812 323.039062 79.007812 C 313.925781 79.007812 306.542969 71.621094 306.542969 62.511719 C 306.542969 53.402344 313.925781 46.015625 323.039062 46.015625 C 332.148438 46.015625 339.535156 53.402344 339.535156 62.511719 Z M 190.308594 17.863281 "/>
</clipPath>
<clipPath id="clip19">
  <path d="M 332.253906 83 L 420.695312 83 L 420.695312 182 L 332.253906 182 Z M 332.253906 83 "/>
</clipPath>
<clipPath id="clip20">
  <path d="M 332.253906 -9.019531 L 420.695312 -9.019531 L 420.695312 273.222656 L 332.253906 273.222656 Z M 332.253906 -9.019531 L 362.519531 134.457031 C 362.519531 143.566406 355.132812 150.953125 346.023438 150.953125 C 336.914062 150.953125 329.527344 143.566406 329.527344 134.457031 C 329.527344 125.347656 336.914062 117.960938 346.023438 117.960938 C 355.132812 117.960938 362.519531 125.347656 362.519531 134.457031 Z M 332.253906 -9.019531 "/>
</clipPath>
<clipPath id="clip21">
  <path d="M 332.253906 -9.019531 L 420.695312 -9.019531 L 420.695312 273.222656 L 332.253906 273.222656 Z M 332.253906 -9.019531 L 423.425781 129.75 C 423.425781 138.859375 416.039062 146.246094 406.929688 146.246094 C 397.820312 146.246094 390.433594 138.859375 390.433594 129.75 C 390.433594 120.640625 397.820312 113.253906 406.929688 113.253906 C 416.039062 113.253906 423.425781 120.640625 423.425781 129.75 Z M 332.253906 -9.019531 "/>
</clipPath>
<clipPath id="clip22">
  <path d="M 281 109.859375 L 393 109.859375 L 393 272.511719 L 281 272.511719 Z M 281 109.859375 "/>
</clipPath>
<clipPath id="clip23">
  <path d="M 190.519531 109.859375 L 483.515625 109.859375 L 483.515625 272.511719 L 190.519531 272.511719 Z M 190.519531 109.859375 L 362.519531 134.457031 C 362.519531 143.566406 355.132812 150.953125 346.023438 150.953125 C 336.914062 150.953125 329.527344 143.566406 329.527344 134.457031 C 329.527344 125.347656 336.914062 117.960938 346.023438 117.960938 C 355.132812 117.960938 362.519531 125.347656 362.519531 134.457031 Z M 190.519531 109.859375 "/>
</clipPath>
<clipPath id="clip24">
  <path d="M 190.519531 109.859375 L 483.515625 109.859375 L 483.515625 272.511719 L 190.519531 272.511719 Z M 190.519531 109.859375 L 344.511719 247.917969 C 344.511719 257.027344 337.125 264.414062 328.015625 264.414062 C 318.90625 264.414062 311.519531 257.027344 311.519531 247.917969 C 311.519531 238.808594 318.90625 231.421875 328.015625 231.421875 C 337.125 231.421875 344.511719 238.808594 344.511719 247.917969 Z M 190.519531 109.859375 "/>
</clipPath>
<clipPath id="clip25">
  <path d="M 450 126 L 593 126 L 593 296 L 450 296 Z M 450 126 "/>
</clipPath>
<clipPath id="clip26">
  <path d="M 379.398438 97.234375 L 663.582031 97.234375 L 663.582031 325.199219 L 379.398438 325.199219 Z M 379.398438 97.234375 L 513.941406 173.296875 C 513.941406 182.40625 506.558594 189.792969 497.445312 189.792969 C 488.335938 189.792969 480.949219 182.40625 480.949219 173.296875 C 480.949219 164.1875 488.335938 156.800781 497.445312 156.800781 C 506.558594 156.800781 513.941406 164.1875 513.941406 173.296875 Z M 379.398438 97.234375 "/>
</clipPath>
<clipPath id="clip27">
  <path d="M 379.398438 97.234375 L 663.582031 97.234375 L 663.582031 325.199219 L 379.398438 325.199219 Z M 379.398438 97.234375 L 562.035156 249.140625 C 562.035156 258.25 554.648438 265.636719 545.539062 265.636719 C 536.425781 265.636719 529.042969 258.25 529.042969 249.140625 C 529.042969 240.03125 536.425781 232.644531 545.539062 232.644531 C 554.648438 232.644531 562.035156 240.03125 562.035156 249.140625 Z M 379.398438 97.234375 "/>
</clipPath>
<clipPath id="clip28">
  <path d="M 360 83 L 545 83 L 545 220 L 360 220 Z M 360 83 "/>
</clipPath>
<clipPath id="clip29">
  <path d="M 344.722656 4.007812 L 559.648438 4.007812 L 559.648438 299.035156 L 344.722656 299.035156 Z M 344.722656 4.007812 L 513.941406 173.296875 C 513.941406 182.40625 506.558594 189.792969 497.445312 189.792969 C 488.335938 189.792969 480.949219 182.40625 480.949219 173.296875 C 480.949219 164.1875 488.335938 156.800781 497.445312 156.800781 C 506.558594 156.800781 513.941406 164.1875 513.941406 173.296875 Z M 344.722656 4.007812 "/>
</clipPath>
<clipPath id="clip30">
  <path d="M 344.722656 4.007812 L 559.648438 4.007812 L 559.648438 299.035156 L 344.722656 299.035156 Z M 344.722656 4.007812 L 423.425781 129.75 C 423.425781 138.859375 416.039062 146.246094 406.929688 146.246094 C 397.820312 146.246094 390.433594 138.859375 390.433594 129.75 C 390.433594 120.640625 397.820312 113.253906 406.929688 113.253906 C 416.039062 113.253906 423.425781 120.640625 423.425781 129.75 Z M 344.722656 4.007812 "/>
</clipPath>
<clipPath id="clip31">
  <path d="M 431 82 L 545 82 L 545 220 L 431 220 Z M 431 82 "/>
</clipPath>
<clipPath id="clip32">
  <path d="M 350.316406 70.285156 L 624.785156 70.285156 L 624.785156 232.046875 L 350.316406 232.046875 Z M 350.316406 70.285156 L 513.941406 173.296875 C 513.941406 182.40625 506.558594 189.792969 497.445312 189.792969 C 488.335938 189.792969 480.949219 182.40625 480.949219 173.296875 C 480.949219 164.1875 488.335938 156.800781 497.445312 156.800781 C 506.558594 156.800781 513.941406 164.1875 513.941406 173.296875 Z M 350.316406 70.285156 "/>
</clipPath>
<clipPath id="clip33">
  <path d="M 350.316406 70.285156 L 624.785156 70.285156 L 624.785156 232.046875 L 350.316406 232.046875 Z M 350.316406 70.285156 L 494.15625 129.039062 C 494.15625 138.152344 486.769531 145.535156 477.660156 145.535156 C 468.550781 145.535156 461.164062 138.152344 461.164062 129.039062 C 461.164062 119.929688 468.550781 112.542969 477.660156 112.542969 C 486.769531 112.542969 494.15625 119.929688 494.15625 129.039062 Z M 350.316406 70.285156 "/>
</clipPath>
<clipPath id="clip34">
  <path d="M 335 83 L 454 83 L 454 245 L 335 245 Z M 335 83 "/>
</clipPath>
<clipPath id="clip35">
  <path d="M 251.308594 80.832031 L 538.214844 80.832031 L 538.214844 246.933594 L 251.308594 246.933594 Z M 251.308594 80.832031 L 399.09375 198.019531 C 399.09375 207.128906 391.710938 214.515625 382.597656 214.515625 C 373.488281 214.515625 366.105469 207.128906 366.105469 198.019531 C 366.105469 188.910156 373.488281 181.523438 382.597656 181.523438 C 391.710938 181.523438 399.09375 188.910156 399.09375 198.019531 Z M 251.308594 80.832031 "/>
</clipPath>
<clipPath id="clip36">
  <path d="M 251.308594 80.832031 L 538.214844 80.832031 L 538.214844 246.933594 L 251.308594 246.933594 Z M 251.308594 80.832031 L 423.425781 129.75 C 423.425781 138.859375 416.039062 146.246094 406.929688 146.246094 C 397.820312 146.246094 390.433594 138.859375 390.433594 129.75 C 390.433594 120.640625 397.820312 113.253906 406.929688 113.253906 C 416.039062 113.253906 423.425781 120.640625 423.425781 129.75 Z M 251.308594 80.832031 "/>
</clipPath>
<clipPath id="clip37">
  <path d="M 281 151 L 430 151 L 430 295 L 281 295 Z M 281 151 "/>
</clipPath>
<clipPath id="clip38">
  <path d="M 233.035156 94.433594 L 477.574219 94.433594 L 477.574219 351.5 L 233.035156 351.5 Z M 233.035156 94.433594 L 399.09375 198.019531 C 399.09375 207.128906 391.710938 214.515625 382.597656 214.515625 C 373.488281 214.515625 366.105469 207.128906 366.105469 198.019531 C 366.105469 188.910156 373.488281 181.523438 382.597656 181.523438 C 391.710938 181.523438 399.09375 188.910156 399.09375 198.019531 Z M 233.035156 94.433594 "/>
</clipPath>
<clipPath id="clip39">
  <path d="M 233.035156 94.433594 L 477.574219 94.433594 L 477.574219 351.5 L 233.035156 351.5 Z M 233.035156 94.433594 L 344.511719 247.917969 C 344.511719 257.027344 337.125 264.414062 328.015625 264.414062 C 318.90625 264.414062 311.519531 257.027344 311.519531 247.917969 C 311.519531 238.808594 318.90625 231.421875 328.015625 231.421875 C 337.125 231.421875 344.511719 238.808594 344.511719 247.917969 Z M 233.035156 94.433594 "/>
</clipPath>
<clipPath id="clip40">
  <path d="M 191.574219 18 L 297.929688 18 L 297.929688 114 L 191.574219 114 Z M 191.574219 18 "/>
</clipPath>
<clipPath id="clip41">
  <path d="M 191.574219 -74.191406 L 297.929688 -74.191406 L 297.929688 205.953125 L 191.574219 205.953125 Z M 191.574219 -74.191406 L 308.464844 66.808594 C 308.464844 75.917969 301.078125 83.304688 291.96875 83.304688 C 282.855469 83.304688 275.472656 75.917969 275.472656 66.808594 C 275.472656 57.695312 282.855469 50.3125 291.96875 50.3125 C 301.078125 50.3125 308.464844 57.695312 308.464844 66.808594 Z M 191.574219 -74.191406 "/>
</clipPath>
<clipPath id="clip42">
  <path d="M 191.574219 -74.191406 L 297.929688 -74.191406 L 297.929688 205.953125 L 191.574219 205.953125 Z M 191.574219 -74.191406 L 214.035156 64.957031 C 214.035156 74.066406 206.648438 81.453125 197.539062 81.453125 C 188.429688 81.453125 181.042969 74.066406 181.042969 64.957031 C 181.042969 55.847656 188.429688 48.460938 197.539062 48.460938 C 206.648438 48.460938 214.035156 55.847656 214.035156 64.957031 Z M 191.574219 -74.191406 "/>
</clipPath>
<clipPath id="clip43">
  <path d="M 270.054688 15 L 344.949219 15 L 344.949219 114 L 270.054688 114 Z M 270.054688 15 "/>
</clipPath>
<clipPath id="clip44">
  <path d="M 270.054688 -75.382812 L 344.949219 -75.382812 L 344.949219 204.699219 L 270.054688 204.699219 Z M 270.054688 -75.382812 L 308.464844 66.808594 C 308.464844 75.917969 301.078125 83.304688 291.96875 83.304688 C 282.855469 83.304688 275.472656 75.917969 275.472656 66.808594 C 275.472656 57.695312 282.855469 50.3125 291.96875 50.3125 C 301.078125 50.3125 308.464844 57.695312 308.464844 66.808594 Z M 270.054688 -75.382812 "/>
</clipPath>
<clipPath id="clip45">
  <path d="M 270.054688 -75.382812 L 344.949219 -75.382812 L 344.949219 204.699219 L 270.054688 204.699219 Z M 270.054688 -75.382812 L 339.535156 62.511719 C 339.535156 71.621094 332.148438 79.007812 323.039062 79.007812 C 313.925781 79.007812 306.542969 71.621094 306.542969 62.511719 C 306.542969 53.402344 313.925781 46.015625 323.039062 46.015625 C 332.148438 46.015625 339.535156 53.402344 339.535156 62.511719 Z M 270.054688 -75.382812 "/>
</clipPath>
<clipPath id="clip46">
  <path d="M 245 20 L 454 20 L 454 177 L 245 177 Z M 245 20 "/>
</clipPath>
<clipPath id="clip47">
  <path d="M 223.417969 -55.671875 L 475.476562 -55.671875 L 475.476562 252.226562 L 223.417969 252.226562 Z M 223.417969 -55.671875 L 308.464844 66.808594 C 308.464844 75.917969 301.078125 83.304688 291.96875 83.304688 C 282.855469 83.304688 275.472656 75.917969 275.472656 66.808594 C 275.472656 57.695312 282.855469 50.3125 291.96875 50.3125 C 301.078125 50.3125 308.464844 57.695312 308.464844 66.808594 Z M 223.417969 -55.671875 "/>
</clipPath>
<clipPath id="clip48">
  <path d="M 223.417969 -55.671875 L 475.476562 -55.671875 L 475.476562 252.226562 L 223.417969 252.226562 Z M 223.417969 -55.671875 L 423.425781 129.75 C 423.425781 138.859375 416.039062 146.246094 406.929688 146.246094 C 397.820312 146.246094 390.433594 138.859375 390.433594 129.75 C 390.433594 120.640625 397.820312 113.253906 406.929688 113.253906 C 416.039062 113.253906 423.425781 120.640625 423.425781 129.75 Z M 223.417969 -55.671875 "/>
</clipPath>
<clipPath id="clip49">
  <path d="M 85 18 L 245 18 L 245 136 L 85 136 Z M 85 18 "/>
</clipPath>
<clipPath id="clip50">
  <path d="M 82.433594 -66.03125 L 247.28125 -66.03125 L 247.28125 219.714844 L 82.433594 219.714844 Z M 82.433594 -66.03125 L 214.035156 64.957031 C 214.035156 74.066406 206.648438 81.453125 197.539062 81.453125 C 188.429688 81.453125 181.042969 74.066406 181.042969 64.957031 C 181.042969 55.847656 188.429688 48.460938 197.539062 48.460938 C 206.648438 48.460938 214.035156 55.847656 214.035156 64.957031 Z M 82.433594 -66.03125 "/>
</clipPath>
<clipPath id="clip51">
  <path d="M 82.433594 -66.03125 L 247.28125 -66.03125 L 247.28125 219.714844 L 82.433594 219.714844 Z M 82.433594 -66.03125 L 148.675781 88.730469 C 148.675781 97.84375 141.292969 105.226562 132.179688 105.226562 C 123.070312 105.226562 115.683594 97.84375 115.683594 88.730469 C 115.683594 79.621094 123.070312 72.238281 132.179688 72.238281 C 141.292969 72.238281 148.675781 79.621094 148.675781 88.730469 Z M 82.433594 -66.03125 "/>
</clipPath>
<clipPath id="clip52">
  <path d="M 44 42 L 179 42 L 179 162 L 44 162 Z M 44 42 "/>
</clipPath>
<clipPath id="clip53">
  <path d="M 15.460938 -29.332031 L 208.222656 -29.332031 L 208.222656 232.570312 L 15.460938 232.570312 Z M 15.460938 -29.332031 L 108 114.511719 C 108 123.625 100.617188 131.007812 91.507812 131.007812 C 82.394531 131.007812 75.011719 123.625 75.011719 114.511719 C 75.011719 105.402344 82.394531 98.015625 91.507812 98.015625 C 100.617188 98.015625 108 105.402344 108 114.511719 Z M 15.460938 -29.332031 "/>
</clipPath>
<clipPath id="clip54">
  <path d="M 15.460938 -29.332031 L 208.222656 -29.332031 L 208.222656 232.570312 L 15.460938 232.570312 Z M 15.460938 -29.332031 L 148.675781 88.730469 C 148.675781 97.84375 141.292969 105.226562 132.179688 105.226562 C 123.070312 105.226562 115.683594 97.84375 115.683594 88.730469 C 115.683594 79.621094 123.070312 72.238281 132.179688 72.238281 C 141.292969 72.238281 148.675781 79.621094 148.675781 88.730469 Z M 15.460938 -29.332031 "/>
</clipPath>
<clipPath id="clip55">
  <path d="M 249.664062 197 L 339.960938 197 L 339.960938 295 L 249.664062 295 Z M 249.664062 197 "/>
</clipPath>
<clipPath id="clip56">
  <path d="M 249.664062 104.785156 L 339.960938 104.785156 L 339.960938 386.8125 L 249.664062 386.8125 Z M 249.664062 104.785156 L 278.109375 243.683594 C 278.109375 252.792969 270.722656 260.179688 261.613281 260.179688 C 252.503906 260.179688 245.117188 252.792969 245.117188 243.683594 C 245.117188 234.574219 252.503906 227.1875 261.613281 227.1875 C 270.722656 227.1875 278.109375 234.574219 278.109375 243.683594 Z M 249.664062 104.785156 "/>
</clipPath>
<clipPath id="clip57">
  <path d="M 249.664062 104.785156 L 339.960938 104.785156 L 339.960938 386.8125 L 249.664062 386.8125 Z M 249.664062 104.785156 L 344.511719 247.917969 C 344.511719 257.027344 337.125 264.414062 328.015625 264.414062 C 318.90625 264.414062 311.519531 257.027344 311.519531 247.917969 C 311.519531 238.808594 318.90625 231.421875 328.015625 231.421875 C 337.125 231.421875 344.511719 238.808594 344.511719 247.917969 Z M 249.664062 104.785156 "/>
</clipPath>
<clipPath id="clip58">
  <path d="M 498 203.25 L 600 203.25 L 600 348.117188 L 498 348.117188 Z M 498 203.25 "/>
</clipPath>
<clipPath id="clip59">
  <path d="M 413.210938 203.25 L 695.386719 203.25 L 695.386719 348.117188 L 413.210938 348.117188 Z M 413.210938 203.25 L 562.035156 249.140625 C 562.035156 258.25 554.648438 265.636719 545.539062 265.636719 C 536.425781 265.636719 529.042969 258.25 529.042969 249.140625 C 529.042969 240.03125 536.425781 232.644531 545.539062 232.644531 C 554.648438 232.644531 562.035156 240.03125 562.035156 249.140625 Z M 413.210938 203.25 "/>
</clipPath>
<clipPath id="clip60">
  <path d="M 413.210938 203.25 L 695.386719 203.25 L 695.386719 348.117188 L 413.210938 348.117188 Z M 413.210938 203.25 L 579.554688 302.230469 C 579.554688 311.339844 572.171875 318.726562 563.0625 318.726562 C 553.949219 318.726562 546.566406 311.339844 546.566406 302.230469 C 546.566406 293.117188 553.949219 285.734375 563.0625 285.734375 C 572.171875 285.734375 579.554688 293.117188 579.554688 302.230469 Z M 413.210938 203.25 "/>
</clipPath>
<clipPath id="clip61">
  <path d="M 402.261719 82 L 482.324219 82 L 482.324219 177 L 402.261719 177 Z M 402.261719 82 "/>
</clipPath>
<clipPath id="clip62">
  <path d="M 402.261719 -10.128906 L 482.324219 -10.128906 L 482.324219 268.914062 L 402.261719 268.914062 Z M 402.261719 -10.128906 L 423.425781 129.75 C 423.425781 138.859375 416.039062 146.246094 406.929688 146.246094 C 397.820312 146.246094 390.433594 138.859375 390.433594 129.75 C 390.433594 120.640625 397.820312 113.253906 406.929688 113.253906 C 416.039062 113.253906 423.425781 120.640625 423.425781 129.75 Z M 402.261719 -10.128906 "/>
</clipPath>
<clipPath id="clip63">
  <path d="M 402.261719 -10.128906 L 482.324219 -10.128906 L 482.324219 268.914062 L 402.261719 268.914062 Z M 402.261719 -10.128906 L 494.15625 129.039062 C 494.15625 138.152344 486.769531 145.535156 477.660156 145.535156 C 468.550781 145.535156 461.164062 138.152344 461.164062 129.039062 C 461.164062 119.929688 468.550781 112.542969 477.660156 112.542969 C 486.769531 112.542969 494.15625 119.929688 494.15625 129.039062 Z M 402.261719 -10.128906 "/>
</clipPath>
<clipPath id="clip64">
  <path d="M 281 244.605469 L 375 244.605469 L 375 396.679688 L 281 396.679688 Z M 281 244.605469 "/>
</clipPath>
<clipPath id="clip65">
  <path d="M 188.828125 244.605469 L 467.1875 244.605469 L 467.1875 396.679688 L 188.828125 396.679688 Z M 188.828125 244.605469 L 344.511719 247.917969 C 344.511719 257.027344 337.125 264.414062 328.015625 264.414062 C 318.90625 264.414062 311.519531 257.027344 311.519531 247.917969 C 311.519531 238.808594 318.90625 231.421875 328.015625 231.421875 C 337.125 231.421875 344.511719 238.808594 344.511719 247.917969 Z M 188.828125 244.605469 "/>
</clipPath>
<clipPath id="clip66">
  <path d="M 188.828125 244.605469 L 467.1875 244.605469 L 467.1875 396.679688 L 188.828125 396.679688 Z M 188.828125 244.605469 L 344.5 393.371094 C 344.5 402.480469 337.117188 409.867188 328.003906 409.867188 C 318.894531 409.867188 311.511719 402.480469 311.511719 393.371094 C 311.511719 384.257812 318.894531 376.875 328.003906 376.875 C 337.117188 376.875 344.5 384.257812 344.5 393.371094 Z M 188.828125 244.605469 "/>
</clipPath>
<clipPath id="clip67">
  <path d="M 284.246094 346 L 480.96875 346 L 480.96875 475 L 284.246094 475 Z M 284.246094 346 "/>
</clipPath>
<clipPath id="clip68">
  <path d="M 284.246094 260.359375 L 480.96875 260.359375 L 480.96875 560.441406 L 284.246094 560.441406 Z M 284.246094 260.359375 L 344.5 393.371094 C 344.5 402.480469 337.117188 409.867188 328.003906 409.867188 C 318.894531 409.867188 311.511719 402.480469 311.511719 393.371094 C 311.511719 384.257812 318.894531 376.875 328.003906 376.875 C 337.117188 376.875 344.5 384.257812 344.5 393.371094 Z M 284.246094 260.359375 "/>
</clipPath>
<clipPath id="clip69">
  <path d="M 284.246094 260.359375 L 480.96875 260.359375 L 480.96875 560.441406 L 284.246094 560.441406 Z M 284.246094 260.359375 L 453.707031 427.433594 C 453.707031 436.542969 446.324219 443.929688 437.214844 443.929688 C 428.101562 443.929688 420.71875 436.542969 420.71875 427.433594 C 420.71875 418.320312 428.101562 410.9375 437.214844 410.9375 C 446.324219 410.9375 453.707031 418.320312 453.707031 427.433594 Z M 284.246094 260.359375 "/>
</clipPath>
<clipPath id="clip70">
  <path d="M 120.628906 301 L 366.355469 301 L 366.355469 441 L 120.628906 441 Z M 120.628906 301 "/>
</clipPath>
<clipPath id="clip71">
  <path d="M 120.628906 213.660156 L 366.355469 213.660156 L 366.355469 527.941406 L 120.628906 527.941406 Z M 120.628906 213.660156 L 344.5 393.371094 C 344.5 402.480469 337.117188 409.867188 328.003906 409.867188 C 318.894531 409.867188 311.511719 402.480469 311.511719 393.371094 C 311.511719 384.257812 318.894531 376.875 328.003906 376.875 C 337.117188 376.875 344.5 384.257812 344.5 393.371094 Z M 120.628906 213.660156 "/>
</clipPath>
<clipPath id="clip72">
  <path d="M 120.628906 213.660156 L 366.355469 213.660156 L 366.355469 527.941406 L 120.628906 527.941406 Z M 120.628906 213.660156 L 175.480469 348.234375 C 175.480469 357.34375 168.097656 364.730469 158.984375 364.730469 C 149.875 364.730469 142.492188 357.34375 142.492188 348.234375 C 142.492188 339.125 149.875 331.738281 158.984375 331.738281 C 168.097656 331.738281 175.480469 339.125 175.480469 348.234375 Z M 120.628906 213.660156 "/>
</clipPath>
<clipPath id="clip73">
  <path d="M 317.050781 343 L 402.382812 343 L 402.382812 441 L 317.050781 441 Z M 317.050781 343 "/>
</clipPath>
<clipPath id="clip74">
  <path d="M 317.050781 250.835938 L 402.382812 250.835938 L 402.382812 532.324219 L 317.050781 532.324219 Z M 317.050781 250.835938 L 344.5 393.371094 C 344.5 402.480469 337.117188 409.867188 328.003906 409.867188 C 318.894531 409.867188 311.511719 402.480469 311.511719 393.371094 C 311.511719 384.257812 318.894531 376.875 328.003906 376.875 C 337.117188 376.875 344.5 384.257812 344.5 393.371094 Z M 317.050781 250.835938 "/>
</clipPath>
<clipPath id="clip75">
  <path d="M 317.050781 250.835938 L 402.382812 250.835938 L 402.382812 532.324219 L 317.050781 532.324219 Z M 317.050781 250.835938 L 407.929688 389.792969 C 407.929688 398.902344 400.542969 406.289062 391.433594 406.289062 C 382.320312 406.289062 374.9375 398.902344 374.9375 389.792969 C 374.9375 380.683594 382.320312 373.296875 391.433594 373.296875 C 400.542969 373.296875 407.929688 380.683594 407.929688 389.792969 Z M 317.050781 250.835938 "/>
</clipPath>
<clipPath id="clip76">
  <path d="M 281 346 L 435 346 L 435 500 L 281 500 Z M 281 346 "/>
</clipPath>
<clipPath id="clip77">
  <path d="M 228.953125 293.667969 L 487.152344 293.667969 L 487.152344 552.765625 L 228.953125 552.765625 Z M 228.953125 293.667969 L 344.5 393.371094 C 344.5 402.480469 337.117188 409.867188 328.003906 409.867188 C 318.894531 409.867188 311.511719 402.480469 311.511719 393.371094 C 311.511719 384.257812 318.894531 376.875 328.003906 376.875 C 337.117188 376.875 344.5 384.257812 344.5 393.371094 Z M 228.953125 293.667969 "/>
</clipPath>
<clipPath id="clip78">
  <path d="M 228.953125 293.667969 L 487.152344 293.667969 L 487.152344 552.765625 L 228.953125 552.765625 Z M 228.953125 293.667969 L 404.601562 453.066406 C 404.601562 462.175781 397.214844 469.5625 388.105469 469.5625 C 378.992188 469.5625 371.609375 462.175781 371.609375 453.066406 C 371.609375 443.953125 378.992188 436.570312 388.105469 436.570312 C 397.214844 436.570312 404.601562 443.953125 404.601562 453.066406 Z M 228.953125 293.667969 "/>
</clipPath>
<clipPath id="clip79">
  <path d="M 0 221 L 125 221 L 125 345 L 0 345 Z M 0 221 "/>
</clipPath>
<clipPath id="clip80">
  <path d="M -45.210938 154.285156 L 160.078125 154.285156 L 160.078125 411.40625 L -45.210938 411.40625 Z M -45.210938 154.285156 L 53.433594 268.242188 C 53.433594 277.355469 46.050781 284.738281 36.9375 284.738281 C 27.828125 284.738281 20.445312 277.355469 20.445312 268.242188 C 20.445312 259.132812 27.828125 251.746094 36.9375 251.746094 C 46.050781 251.746094 53.433594 259.132812 53.433594 268.242188 Z M -45.210938 154.285156 "/>
</clipPath>
<clipPath id="clip81">
  <path d="M -45.210938 154.285156 L 160.078125 154.285156 L 160.078125 411.40625 L -45.210938 411.40625 Z M -45.210938 154.285156 L 94.429688 297.453125 C 94.429688 306.5625 87.042969 313.949219 77.933594 313.949219 C 68.824219 313.949219 61.4375 306.5625 61.4375 297.453125 C 61.4375 288.34375 68.824219 280.957031 77.933594 280.957031 C 87.042969 280.957031 94.429688 288.34375 94.429688 297.453125 Z M -45.210938 154.285156 "/>
</clipPath>
<clipPath id="clip82">
  <path d="M 31 250 L 206 250 L 206 395 L 31 395 Z M 31 250 "/>
</clipPath>
<clipPath id="clip83">
  <path d="M 2.492188 179.011719 L 234.421875 179.011719 L 234.421875 466.671875 L 2.492188 466.671875 Z M 2.492188 179.011719 L 94.429688 297.453125 C 94.429688 306.5625 87.042969 313.949219 77.933594 313.949219 C 68.824219 313.949219 61.4375 306.5625 61.4375 297.453125 C 61.4375 288.34375 68.824219 280.957031 77.933594 280.957031 C 87.042969 280.957031 94.429688 288.34375 94.429688 297.453125 Z M 2.492188 179.011719 "/>
</clipPath>
<clipPath id="clip84">
  <path d="M 2.492188 179.011719 L 234.421875 179.011719 L 234.421875 466.671875 L 2.492188 466.671875 Z M 2.492188 179.011719 L 175.480469 348.234375 C 175.480469 357.34375 168.097656 364.730469 158.984375 364.730469 C 149.875 364.730469 142.492188 357.34375 142.492188 348.234375 C 142.492188 339.125 149.875 331.738281 158.984375 331.738281 C 168.097656 331.738281 175.480469 339.125 175.480469 348.234375 Z M 2.492188 179.011719 "/>
</clipPath>
<clipPath id="clip85">
  <path d="M 66.132812 301 L 191.484375 301 L 191.484375 409 L 66.132812 409 Z M 66.132812 301 "/>
</clipPath>
<clipPath id="clip86">
  <path d="M 66.132812 212.234375 L 191.484375 212.234375 L 191.484375 497.511719 L 66.132812 497.511719 Z M 66.132812 212.234375 L 115.132812 361.515625 C 115.132812 370.625 107.746094 378.011719 98.636719 378.011719 C 89.527344 378.011719 82.140625 370.625 82.140625 361.515625 C 82.140625 352.40625 89.527344 345.019531 98.636719 345.019531 C 107.746094 345.019531 115.132812 352.40625 115.132812 361.515625 Z M 66.132812 212.234375 "/>
</clipPath>
<clipPath id="clip87">
  <path d="M 66.132812 212.234375 L 191.484375 212.234375 L 191.484375 497.511719 L 66.132812 497.511719 Z M 66.132812 212.234375 L 175.480469 348.234375 C 175.480469 357.34375 168.097656 364.730469 158.984375 364.730469 C 149.875 364.730469 142.492188 357.34375 142.492188 348.234375 C 142.492188 339.125 149.875 331.738281 158.984375 331.738281 C 168.097656 331.738281 175.480469 339.125 175.480469 348.234375 Z M 66.132812 212.234375 "/>
</clipPath>
</defs>
<g id="surface741">
<g clip-path="url(#clip1)" clip-rule="nonzero">
<g clip-path="url(#clip2)" clip-rule="evenodd">
<g clip-path="url(#clip3)" clip-rule="evenodd">
<path style="fill:none;stroke-width:0.024281;stroke-linecap:butt;stroke-linejoin:miter;stroke:rgb(17.96875%,20.3125%,21.09375%);stroke-opacity:0.8;stroke-miterlimit:10;" d="M 2.250221 4.303398 L 2.344432 3.960938 " transform="matrix(135.873551,0,0,135.873551,-46.093134,-47.229711)"/>
</g>
</g>
</g>
<g clip-path="url(#clip4)" clip-rule="nonzero">
<g clip-path="url(#clip5)" clip-rule="evenodd">
<g clip-path="url(#clip6)" clip-rule="evenodd">
<path style="fill:none;stroke-width:0.024281;stroke-linecap:butt;stroke-linejoin:miter;stroke:rgb(17.96875%,20.3125%,21.09375%);stroke-opacity:0.8;stroke-miterlimit:10;" d="M 1.274187 3.925979 L 1.680671 3.973444 " transform="matrix(135.873551,0,0,135.873551,-46.093134,-47.229711)"/>
</g>
</g>
</g>
<g clip-path="url(#clip7)" clip-rule="nonzero">
<g clip-path="url(#clip8)" clip-rule="evenodd">
<g clip-path="url(#clip9)" clip-rule="evenodd">
<path style="fill:none;stroke-width:0.024281;stroke-linecap:butt;stroke-linejoin:miter;stroke:rgb(17.96875%,20.3125%,21.09375%);stroke-opacity:0.8;stroke-miterlimit:10;" d="M 1.680671 3.973444 L 2.344432 3.960938 " transform="matrix(135.873551,0,0,135.873551,-46.093134,-47.229711)"/>
</g>
</g>
</g>
<g clip-path="url(#clip10)" clip-rule="nonzero">
<g clip-path="url(#clip11)" clip-rule="evenodd">
<g clip-path="url(#clip12)" clip-rule="evenodd">
<path style="fill:none;stroke-width:0.024281;stroke-linecap:butt;stroke-linejoin:miter;stroke:rgb(17.96875%,20.3125%,21.09375%);stroke-opacity:0.8;stroke-miterlimit:10;" d="M 2.344432 3.960938 L 2.729958 4.286379 " transform="matrix(135.873551,0,0,135.873551,-46.093134,-47.229711)"/>
</g>
</g>
</g>
<g clip-path="url(#clip13)" clip-rule="nonzero">
<g clip-path="url(#clip14)" clip-rule="evenodd">
<g clip-path="url(#clip15)" clip-rule="evenodd">
<path style="fill:none;stroke-width:0.024281;stroke-linecap:butt;stroke-linejoin:miter;stroke:rgb(17.96875%,20.3125%,21.09375%);stroke-opacity:0.8;stroke-miterlimit:10;" d="M 2.344432 3.960938 L 2.753273 3.242727 " transform="matrix(135.873551,0,0,135.873551,-46.093134,-47.229711)"/>
</g>
</g>
</g>
<g clip-path="url(#clip16)" clip-rule="nonzero">
<g clip-path="url(#clip17)" clip-rule="evenodd">
<g clip-path="url(#clip18)" clip-rule="evenodd">
<path style="fill:none;stroke-width:0.024281;stroke-linecap:butt;stroke-linejoin:miter;stroke:rgb(17.96875%,20.3125%,21.09375%);stroke-opacity:0.8;stroke-miterlimit:10;" d="M 2.885893 1.337175 L 2.716733 0.807673 " transform="matrix(135.873551,0,0,135.873551,-46.093134,-47.229711)"/>
</g>
</g>
</g>
<g clip-path="url(#clip19)" clip-rule="nonzero">
<g clip-path="url(#clip20)" clip-rule="evenodd">
<g clip-path="url(#clip21)" clip-rule="evenodd">
<path style="fill:none;stroke-width:0.024281;stroke-linecap:butt;stroke-linejoin:miter;stroke:rgb(17.96875%,20.3125%,21.09375%);stroke-opacity:0.8;stroke-miterlimit:10;" d="M 2.885893 1.337175 L 3.33415 1.302532 " transform="matrix(135.873551,0,0,135.873551,-46.093134,-47.229711)"/>
</g>
</g>
</g>
<g clip-path="url(#clip22)" clip-rule="nonzero">
<g clip-path="url(#clip23)" clip-rule="evenodd">
<g clip-path="url(#clip24)" clip-rule="evenodd">
<path style="fill:none;stroke-width:0.024281;stroke-linecap:butt;stroke-linejoin:miter;stroke:rgb(17.96875%,20.3125%,21.09375%);stroke-opacity:0.8;stroke-miterlimit:10;" d="M 2.885893 1.337175 L 2.75336 2.172223 " transform="matrix(135.873551,0,0,135.873551,-46.093134,-47.229711)"/>
</g>
</g>
</g>
<g clip-path="url(#clip25)" clip-rule="nonzero">
<g clip-path="url(#clip26)" clip-rule="evenodd">
<g clip-path="url(#clip27)" clip-rule="evenodd">
<path style="fill:none;stroke-width:0.024281;stroke-linecap:butt;stroke-linejoin:miter;stroke:rgb(17.96875%,20.3125%,21.09375%);stroke-opacity:0.8;stroke-miterlimit:10;" d="M 4.000326 1.623028 L 4.354285 2.181222 " transform="matrix(135.873551,0,0,135.873551,-46.093134,-47.229711)"/>
</g>
</g>
</g>
<g clip-path="url(#clip28)" clip-rule="nonzero">
<g clip-path="url(#clip29)" clip-rule="evenodd">
<g clip-path="url(#clip30)" clip-rule="evenodd">
<path style="fill:none;stroke-width:0.024281;stroke-linecap:butt;stroke-linejoin:miter;stroke:rgb(17.96875%,20.3125%,21.09375%);stroke-opacity:0.8;stroke-miterlimit:10;" d="M 4.000326 1.623028 L 3.33415 1.302532 " transform="matrix(135.873551,0,0,135.873551,-46.093134,-47.229711)"/>
</g>
</g>
</g>
<g clip-path="url(#clip31)" clip-rule="nonzero">
<g clip-path="url(#clip32)" clip-rule="evenodd">
<g clip-path="url(#clip33)" clip-rule="evenodd">
<path style="fill:none;stroke-width:0.024281;stroke-linecap:butt;stroke-linejoin:miter;stroke:rgb(17.96875%,20.3125%,21.09375%);stroke-opacity:0.8;stroke-miterlimit:10;" d="M 4.000326 1.623028 L 3.854711 1.2973 " transform="matrix(135.873551,0,0,135.873551,-46.093134,-47.229711)"/>
</g>
</g>
</g>
<g clip-path="url(#clip34)" clip-rule="nonzero">
<g clip-path="url(#clip35)" clip-rule="evenodd">
<g clip-path="url(#clip36)" clip-rule="evenodd">
<path style="fill:none;stroke-width:0.024281;stroke-linecap:butt;stroke-linejoin:miter;stroke:rgb(17.96875%,20.3125%,21.09375%);stroke-opacity:0.8;stroke-miterlimit:10;" d="M 3.155072 1.804981 L 3.33415 1.302532 " transform="matrix(135.873551,0,0,135.873551,-46.093134,-47.229711)"/>
</g>
</g>
</g>
<g clip-path="url(#clip37)" clip-rule="nonzero">
<g clip-path="url(#clip38)" clip-rule="evenodd">
<g clip-path="url(#clip39)" clip-rule="evenodd">
<path style="fill:none;stroke-width:0.024281;stroke-linecap:butt;stroke-linejoin:miter;stroke:rgb(17.96875%,20.3125%,21.09375%);stroke-opacity:0.8;stroke-miterlimit:10;" d="M 3.155072 1.804981 L 2.75336 2.172223 " transform="matrix(135.873551,0,0,135.873551,-46.093134,-47.229711)"/>
</g>
</g>
</g>
<g clip-path="url(#clip40)" clip-rule="nonzero">
<g clip-path="url(#clip41)" clip-rule="evenodd">
<g clip-path="url(#clip42)" clip-rule="evenodd">
<path style="fill:none;stroke-width:0.024281;stroke-linecap:butt;stroke-linejoin:miter;stroke:rgb(17.96875%,20.3125%,21.09375%);stroke-opacity:0.8;stroke-miterlimit:10;" d="M 2.488062 0.839297 L 1.79308 0.82567 " transform="matrix(135.873551,0,0,135.873551,-46.093134,-47.229711)"/>
</g>
</g>
</g>
<g clip-path="url(#clip43)" clip-rule="nonzero">
<g clip-path="url(#clip44)" clip-rule="evenodd">
<g clip-path="url(#clip45)" clip-rule="evenodd">
<path style="fill:none;stroke-width:0.024281;stroke-linecap:butt;stroke-linejoin:miter;stroke:rgb(17.96875%,20.3125%,21.09375%);stroke-opacity:0.8;stroke-miterlimit:10;" d="M 2.488062 0.839297 L 2.716733 0.807673 " transform="matrix(135.873551,0,0,135.873551,-46.093134,-47.229711)"/>
</g>
</g>
</g>
<g clip-path="url(#clip46)" clip-rule="nonzero">
<g clip-path="url(#clip47)" clip-rule="evenodd">
<g clip-path="url(#clip48)" clip-rule="evenodd">
<path style="fill:none;stroke-width:0.024281;stroke-linecap:butt;stroke-linejoin:miter;stroke:rgb(17.96875%,20.3125%,21.09375%);stroke-opacity:0.8;stroke-miterlimit:10;" d="M 2.488062 0.839297 L 3.33415 1.302532 " transform="matrix(135.873551,0,0,135.873551,-46.093134,-47.229711)"/>
</g>
</g>
</g>
<g clip-path="url(#clip49)" clip-rule="nonzero">
<g clip-path="url(#clip50)" clip-rule="evenodd">
<g clip-path="url(#clip51)" clip-rule="evenodd">
<path style="fill:none;stroke-width:0.024281;stroke-linecap:butt;stroke-linejoin:miter;stroke:rgb(17.96875%,20.3125%,21.09375%);stroke-opacity:0.8;stroke-miterlimit:10;" d="M 1.79308 0.82567 L 1.312049 1.000638 " transform="matrix(135.873551,0,0,135.873551,-46.093134,-47.229711)"/>
</g>
</g>
</g>
<g clip-path="url(#clip52)" clip-rule="nonzero">
<g clip-path="url(#clip53)" clip-rule="evenodd">
<g clip-path="url(#clip54)" clip-rule="evenodd">
<path style="fill:none;stroke-width:0.024281;stroke-linecap:butt;stroke-linejoin:miter;stroke:rgb(17.96875%,20.3125%,21.09375%);stroke-opacity:0.8;stroke-miterlimit:10;" d="M 1.012713 1.190382 L 1.312049 1.000638 " transform="matrix(135.873551,0,0,135.873551,-46.093134,-47.229711)"/>
</g>
</g>
</g>
<g clip-path="url(#clip55)" clip-rule="nonzero">
<g clip-path="url(#clip56)" clip-rule="evenodd">
<g clip-path="url(#clip57)" clip-rule="evenodd">
<path style="fill:none;stroke-width:0.024281;stroke-linecap:butt;stroke-linejoin:miter;stroke:rgb(17.96875%,20.3125%,21.09375%);stroke-opacity:0.8;stroke-miterlimit:10;" d="M 2.264653 2.141059 L 2.75336 2.172223 " transform="matrix(135.873551,0,0,135.873551,-46.093134,-47.229711)"/>
</g>
</g>
</g>
<g clip-path="url(#clip58)" clip-rule="nonzero">
<g clip-path="url(#clip59)" clip-rule="evenodd">
<g clip-path="url(#clip60)" clip-rule="evenodd">
<path style="fill:none;stroke-width:0.024281;stroke-linecap:butt;stroke-linejoin:miter;stroke:rgb(17.96875%,20.3125%,21.09375%);stroke-opacity:0.8;stroke-miterlimit:10;" d="M 4.354285 2.181222 L 4.483254 2.571951 " transform="matrix(135.873551,0,0,135.873551,-46.093134,-47.229711)"/>
</g>
</g>
</g>
<g clip-path="url(#clip61)" clip-rule="nonzero">
<g clip-path="url(#clip62)" clip-rule="evenodd">
<g clip-path="url(#clip63)" clip-rule="evenodd">
<path style="fill:none;stroke-width:0.024281;stroke-linecap:butt;stroke-linejoin:miter;stroke:rgb(17.96875%,20.3125%,21.09375%);stroke-opacity:0.8;stroke-miterlimit:10;" d="M 3.33415 1.302532 L 3.854711 1.2973 " transform="matrix(135.873551,0,0,135.873551,-46.093134,-47.229711)"/>
</g>
</g>
</g>
<g clip-path="url(#clip64)" clip-rule="nonzero">
<g clip-path="url(#clip65)" clip-rule="evenodd">
<g clip-path="url(#clip66)" clip-rule="evenodd">
<path style="fill:none;stroke-width:0.024281;stroke-linecap:butt;stroke-linejoin:miter;stroke:rgb(17.96875%,20.3125%,21.09375%);stroke-opacity:0.8;stroke-miterlimit:10;" d="M 2.75336 2.172223 L 2.753273 3.242727 " transform="matrix(135.873551,0,0,135.873551,-46.093134,-47.229711)"/>
</g>
</g>
</g>
<g clip-path="url(#clip67)" clip-rule="nonzero">
<g clip-path="url(#clip68)" clip-rule="evenodd">
<g clip-path="url(#clip69)" clip-rule="evenodd">
<path style="fill:none;stroke-width:0.024281;stroke-linecap:butt;stroke-linejoin:miter;stroke:rgb(17.96875%,20.3125%,21.09375%);stroke-opacity:0.8;stroke-miterlimit:10;" d="M 2.753273 3.242727 L 3.557042 3.493419 " transform="matrix(135.873551,0,0,135.873551,-46.093134,-47.229711)"/>
</g>
</g>
</g>
<g clip-path="url(#clip70)" clip-rule="nonzero">
<g clip-path="url(#clip71)" clip-rule="evenodd">
<g clip-path="url(#clip72)" clip-rule="evenodd">
<path style="fill:none;stroke-width:0.024281;stroke-linecap:butt;stroke-linejoin:miter;stroke:rgb(17.96875%,20.3125%,21.09375%);stroke-opacity:0.8;stroke-miterlimit:10;" d="M 2.753273 3.242727 L 1.509326 2.91053 " transform="matrix(135.873551,0,0,135.873551,-46.093134,-47.229711)"/>
</g>
</g>
</g>
<g clip-path="url(#clip73)" clip-rule="nonzero">
<g clip-path="url(#clip74)" clip-rule="evenodd">
<g clip-path="url(#clip75)" clip-rule="evenodd">
<path style="fill:none;stroke-width:0.024281;stroke-linecap:butt;stroke-linejoin:miter;stroke:rgb(17.96875%,20.3125%,21.09375%);stroke-opacity:0.8;stroke-miterlimit:10;" d="M 2.753273 3.242727 L 3.220102 3.216393 " transform="matrix(135.873551,0,0,135.873551,-46.093134,-47.229711)"/>
</g>
</g>
</g>
<g clip-path="url(#clip76)" clip-rule="nonzero">
<g clip-path="url(#clip77)" clip-rule="evenodd">
<g clip-path="url(#clip78)" clip-rule="evenodd">
<path style="fill:none;stroke-width:0.024281;stroke-linecap:butt;stroke-linejoin:miter;stroke:rgb(17.96875%,20.3125%,21.09375%);stroke-opacity:0.8;stroke-miterlimit:10;" d="M 2.753273 3.242727 L 3.195608 3.682071 " transform="matrix(135.873551,0,0,135.873551,-46.093134,-47.229711)"/>
</g>
</g>
</g>
<g clip-path="url(#clip79)" clip-rule="nonzero">
<g clip-path="url(#clip80)" clip-rule="evenodd">
<g clip-path="url(#clip81)" clip-rule="evenodd">
<path style="fill:none;stroke-width:0.024281;stroke-linecap:butt;stroke-linejoin:miter;stroke:rgb(17.96875%,20.3125%,21.09375%);stroke-opacity:0.8;stroke-miterlimit:10;" d="M 0.611088 2.321805 L 0.91281 2.536791 " transform="matrix(135.873551,0,0,135.873551,-46.093134,-47.229711)"/>
</g>
</g>
</g>
<g clip-path="url(#clip82)" clip-rule="nonzero">
<g clip-path="url(#clip83)" clip-rule="evenodd">
<g clip-path="url(#clip84)" clip-rule="evenodd">
<path style="fill:none;stroke-width:0.024281;stroke-linecap:butt;stroke-linejoin:miter;stroke:rgb(17.96875%,20.3125%,21.09375%);stroke-opacity:0.8;stroke-miterlimit:10;" d="M 0.91281 2.536791 L 1.509326 2.91053 " transform="matrix(135.873551,0,0,135.873551,-46.093134,-47.229711)"/>
</g>
</g>
</g>
<g clip-path="url(#clip85)" clip-rule="nonzero">
<g clip-path="url(#clip86)" clip-rule="evenodd">
<g clip-path="url(#clip87)" clip-rule="evenodd">
<path style="fill:none;stroke-width:0.024281;stroke-linecap:butt;stroke-linejoin:miter;stroke:rgb(17.96875%,20.3125%,21.09375%);stroke-opacity:0.8;stroke-miterlimit:10;" d="M 1.06518 3.008277 L 1.509326 2.91053 " transform="matrix(135.873551,0,0,135.873551,-46.093134,-47.229711)"/>
</g>
</g>
</g>
<path style="fill-rule:nonzero;fill:rgb(100%,92.941176%,43.529412%);fill-opacity:1;stroke-width:0.024281;stroke-linecap:butt;stroke-linejoin:miter;stroke:rgb(60%,60%,60%);stroke-opacity:0.8;stroke-miterlimit:10;" d="M 0.121392 0.00000036378 C 0.121392 0.0670434 0.0670562 0.121408 0.0000131949 0.121408 C -0.0670586 0.121408 -0.121394 0.0670434 -0.121394 0.00000036378 C -0.121394 -0.0670427 -0.0670586 -0.121407 0.0000131949 -0.121407 C 0.0670562 -0.121407 0.121392 -0.0670427 0.121392 0.00000036378 Z M 0.121392 0.00000036378 " transform="matrix(135.873551,0,0,135.873551,259.650551,537.488232)"/>
<path style="fill-rule:nonzero;fill:rgb(100%,92.941176%,43.529412%);fill-opacity:1;stroke-width:0.024281;stroke-linecap:butt;stroke-linejoin:miter;stroke:rgb(60%,60%,60%);stroke-opacity:0.8;stroke-miterlimit:10;" d="M 0.121407 0.00000735264 C 0.121407 0.0670504 0.0670425 0.121415 -0.000000485045 0.121415 C -0.0670435 0.121415 -0.121408 0.0670504 -0.121408 0.00000735264 C -0.121408 -0.0670644 -0.0670435 -0.1214 -0.000000485045 -0.1214 C 0.0670425 -0.1214 0.121407 -0.0670644 0.121407 0.00000735264 Z M 0.121407 0.00000735264 " transform="matrix(135.873551,0,0,135.873551,127.035222,486.206032)"/>
<path style="fill-rule:nonzero;fill:rgb(100%,92.941176%,43.529412%);fill-opacity:1;stroke-width:0.024281;stroke-linecap:butt;stroke-linejoin:miter;stroke:rgb(60%,60%,60%);stroke-opacity:0.8;stroke-miterlimit:10;" d="M 0.121397 -0.00000260799 C 0.121397 0.0670404 0.0670607 0.121405 -0.000011049 0.121405 C -0.0670541 0.121405 -0.121419 0.0670404 -0.121419 -0.00000260799 C -0.121419 -0.0670456 -0.0670541 -0.12141 -0.000011049 -0.12141 C 0.0670607 -0.12141 0.121397 -0.0670456 0.121397 -0.00000260799 Z M 0.121397 -0.00000260799 " transform="matrix(135.873551,0,0,135.873551,182.267126,492.656604)"/>
<path style="fill-rule:nonzero;fill:rgb(100%,92.941176%,43.529412%);fill-opacity:1;stroke-width:0.024281;stroke-linecap:butt;stroke-linejoin:miter;stroke:rgb(60%,60%,60%);stroke-opacity:0.8;stroke-miterlimit:10;" d="M 0.121419 0.00000162057 C 0.121419 0.0670447 0.0670544 0.121409 0.0000113323 0.121409 C -0.0670605 0.121409 -0.121396 0.0670447 -0.121396 0.00000162057 C -0.121396 -0.0670414 -0.0670605 -0.121406 0.0000113323 -0.121406 C 0.0670544 -0.121406 0.121419 -0.0670414 0.121419 0.00000162057 Z M 0.121419 0.00000162057 " transform="matrix(135.873551,0,0,135.873551,272.451585,490.956811)"/>
<path style="fill-rule:nonzero;fill:rgb(100%,92.941176%,43.529412%);fill-opacity:1;stroke-width:0.024281;stroke-linecap:butt;stroke-linejoin:miter;stroke:rgb(60%,60%,60%);stroke-opacity:0.8;stroke-miterlimit:10;" d="M 0.121409 0.0000114639 C 0.121409 0.0670545 0.067044 0.121419 0.000000973988 0.121419 C -0.0670421 0.121419 -0.121407 0.0670545 -0.121407 0.0000114639 C -0.121407 -0.0670603 -0.0670421 -0.121396 0.000000973988 -0.121396 C 0.067044 -0.121396 0.121409 -0.0670603 0.121409 0.0000114639 Z M 0.121409 0.0000114639 " transform="matrix(135.873551,0,0,135.873551,324.835805,535.174224)"/>
<path style="fill-rule:nonzero;fill:rgb(55.294118%,82.745098%,78.039216%);fill-opacity:1;stroke-width:0.024281;stroke-linecap:butt;stroke-linejoin:miter;stroke:rgb(60%,60%,60%);stroke-opacity:0.8;stroke-miterlimit:10;" d="M 0.121405 -0.00000685729 C 0.121405 0.0670362 0.0670403 0.121401 -0.00000274134 0.121401 C -0.0670458 0.121401 -0.12141 0.0670362 -0.12141 -0.00000685729 C -0.12141 -0.0670499 -0.0670458 -0.121415 -0.00000274134 -0.121415 C 0.0670403 -0.121415 0.121405 -0.0670499 0.121405 -0.00000685729 Z M 0.121405 -0.00000685729 " transform="matrix(135.873551,0,0,135.873551,346.02381,134.457963)"/>
<path style="fill-rule:nonzero;fill:rgb(55.294118%,82.745098%,78.039216%);fill-opacity:1;stroke-width:0.024281;stroke-linecap:butt;stroke-linejoin:miter;stroke:rgb(60%,60%,60%);stroke-opacity:0.8;stroke-miterlimit:10;" d="M 0.1214 -0.00000143992 C 0.1214 0.0670416 0.0670642 0.121406 -0.00000760722 0.121406 C -0.0670506 0.121406 -0.121415 0.0670416 -0.121415 -0.00000143992 C -0.121415 -0.0670445 -0.0670506 -0.121409 -0.00000760722 -0.121409 C 0.0670642 -0.121409 0.1214 -0.0670445 0.1214 -0.00000143992 Z M 0.1214 -0.00000143992 " transform="matrix(135.873551,0,0,135.873551,497.446346,173.297071)"/>
<path style="fill-rule:nonzero;fill:rgb(55.294118%,82.745098%,78.039216%);fill-opacity:1;stroke-width:0.024281;stroke-linecap:butt;stroke-linejoin:miter;stroke:rgb(60%,60%,60%);stroke-opacity:0.8;stroke-miterlimit:10;" d="M 0.121395 -0.00000482795 C 0.121395 0.0670382 0.0670596 0.121403 -0.0000122199 0.121403 C -0.0670553 0.121403 -0.121391 0.0670382 -0.121391 -0.00000482795 C -0.121391 -0.0670479 -0.0670553 -0.121413 -0.0000122199 -0.121413 C 0.0670596 -0.121413 0.121395 -0.0670479 0.121395 -0.00000482795 Z M 0.121395 -0.00000482795 " transform="matrix(135.873551,0,0,135.873551,382.599317,198.020187)"/>
<path style="fill-rule:nonzero;fill:rgb(55.294118%,82.745098%,78.039216%);fill-opacity:1;stroke-width:0.024281;stroke-linecap:butt;stroke-linejoin:miter;stroke:rgb(60%,60%,60%);stroke-opacity:0.8;stroke-miterlimit:10;" d="M 0.121415 0.00000942315 C 0.121415 0.0670525 0.0670505 0.121417 0.00000743782 0.121417 C -0.0670643 0.121417 -0.1214 0.0670525 -0.1214 0.00000942315 C -0.1214 -0.0670624 -0.0670643 -0.121398 0.00000743782 -0.121398 C 0.0670505 -0.121398 0.121415 -0.0670624 0.121415 0.00000942315 Z M 0.121415 0.00000942315 " transform="matrix(135.873551,0,0,135.873551,291.967739,66.807313)"/>
<path style="fill-rule:nonzero;fill:rgb(55.294118%,82.745098%,78.039216%);fill-opacity:1;stroke-width:0.024281;stroke-linecap:butt;stroke-linejoin:miter;stroke:rgb(60%,60%,60%);stroke-opacity:0.8;stroke-miterlimit:10;" d="M 0.121409 0.000000565452 C 0.121409 0.0670436 0.067044 0.121408 0.000000938896 0.121408 C -0.0670421 0.121408 -0.121407 0.0670436 -0.121407 0.000000565452 C -0.121407 -0.0670425 -0.0670421 -0.121407 0.000000938896 -0.121407 C 0.067044 -0.121407 0.121409 -0.0670425 0.121409 0.000000565452 Z M 0.121409 0.000000565452 " transform="matrix(135.873551,0,0,135.873551,197.538935,64.956954)"/>
<path style="fill-rule:nonzero;fill:rgb(55.294118%,82.745098%,78.039216%);fill-opacity:1;stroke-width:0.024281;stroke-linecap:butt;stroke-linejoin:miter;stroke:rgb(60%,60%,60%);stroke-opacity:0.8;stroke-miterlimit:10;" d="M 0.121415 -0.00000036378 C 0.121415 0.0670427 0.0670505 0.121407 0.0000074988 0.121407 C -0.0670643 0.121407 -0.1214 0.0670427 -0.1214 -0.00000036378 C -0.1214 -0.0670434 -0.0670643 -0.121408 0.0000074988 -0.121408 C 0.0670505 -0.121408 0.121415 -0.0670434 0.121415 -0.00000036378 Z M 0.121415 -0.00000036378 " transform="matrix(135.873551,0,0,135.873551,323.038044,62.511768)"/>
<path style="fill-rule:nonzero;fill:rgb(55.294118%,82.745098%,78.039216%);fill-opacity:1;stroke-width:0.024281;stroke-linecap:butt;stroke-linejoin:miter;stroke:rgb(60%,60%,60%);stroke-opacity:0.8;stroke-miterlimit:10;" d="M 0.121393 -0.00000944805 C 0.121393 0.0670623 0.0670569 0.121398 0.0000138306 0.121398 C -0.067058 0.121398 -0.121394 0.0670623 -0.121394 -0.00000944805 C -0.121394 -0.0670525 -0.067058 -0.121417 0.0000138306 -0.121417 C 0.0670569 -0.121417 0.121393 -0.0670525 0.121393 -0.00000944805 Z M 0.121393 -0.00000944805 " transform="matrix(135.873551,0,0,135.873551,91.505933,114.513002)"/>
<path style="fill-rule:nonzero;fill:rgb(55.294118%,82.745098%,78.039216%);fill-opacity:1;stroke-width:0.024281;stroke-linecap:butt;stroke-linejoin:miter;stroke:rgb(60%,60%,60%);stroke-opacity:0.8;stroke-miterlimit:10;" d="M 0.121413 0.0000069444 C 0.121413 0.06705 0.0670485 0.121415 0.00000542625 0.121415 C -0.0670376 0.121415 -0.121402 0.06705 -0.121402 0.0000069444 C -0.121402 -0.0670361 -0.0670376 -0.121401 0.00000542625 -0.121401 C 0.0670485 -0.121401 0.121413 -0.0670361 0.121413 0.0000069444 Z M 0.121413 0.0000069444 " transform="matrix(135.873551,0,0,135.873551,261.612544,243.68265)"/>
<path style="fill-rule:nonzero;fill:rgb(55.294118%,82.745098%,78.039216%);fill-opacity:1;stroke-width:0.024281;stroke-linecap:butt;stroke-linejoin:miter;stroke:rgb(60%,60%,60%);stroke-opacity:0.8;stroke-miterlimit:10;" d="M 0.121416 0.00000144378 C 0.121416 0.0670445 0.0670517 0.121409 0.00000871342 0.121409 C -0.0670631 0.121409 -0.121399 0.0670445 -0.121399 0.00000144378 C -0.121399 -0.0670416 -0.0670631 -0.121406 0.00000871342 -0.121406 C 0.0670517 -0.121406 0.121416 -0.0670416 0.121416 0.00000144378 Z M 0.121416 0.00000144378 " transform="matrix(135.873551,0,0,135.873551,545.537879,249.140429)"/>
<path style="fill-rule:nonzero;fill:rgb(55.294118%,82.745098%,78.039216%);fill-opacity:1;stroke-width:0.024281;stroke-linecap:butt;stroke-linejoin:miter;stroke:rgb(60%,60%,60%);stroke-opacity:0.8;stroke-miterlimit:10;" d="M 0.121392 0.00000969008 C 0.121392 0.0670527 0.0670564 0.121417 0.0000133229 0.121417 C -0.0670585 0.121417 -0.121394 0.0670527 -0.121394 0.00000969008 C -0.121394 -0.0670621 -0.0670585 -0.121398 0.0000133229 -0.121398 C 0.0670564 -0.121398 0.121392 -0.0670621 0.121392 0.00000969008 Z M 0.121392 0.00000969008 " transform="matrix(135.873551,0,0,135.873551,563.06069,302.229152)"/>
<path style="fill-rule:nonzero;fill:rgb(55.294118%,82.745098%,78.039216%);fill-opacity:1;stroke-width:0.024281;stroke-linecap:butt;stroke-linejoin:miter;stroke:rgb(60%,60%,60%);stroke-opacity:0.8;stroke-miterlimit:10;" d="M 0.121407 0.00000201176 C 0.121407 0.067045 0.0670421 0.12141 -0.00000090733 0.12141 C -0.0670439 0.12141 -0.121409 0.067045 -0.121409 0.00000201176 C -0.121409 -0.067041 -0.0670439 -0.121406 -0.00000090733 -0.121406 C 0.0670421 -0.121406 0.121407 -0.067041 0.121407 0.00000201176 Z M 0.121407 0.00000201176 " transform="matrix(135.873551,0,0,135.873551,406.929811,129.749727)"/>
<path style="fill-rule:nonzero;fill:rgb(55.294118%,82.745098%,78.039216%);fill-opacity:1;stroke-width:0.024281;stroke-linecap:butt;stroke-linejoin:miter;stroke:rgb(60%,60%,60%);stroke-opacity:0.8;stroke-miterlimit:10;" d="M 0.121408 -0.00000887115 C 0.121408 0.0670629 0.0670431 0.121399 0.0000000580577 0.121399 C -0.067043 0.121399 -0.121408 0.0670629 -0.121408 -0.00000887115 C -0.121408 -0.0670519 -0.067043 -0.121417 0.0000000580577 -0.121417 C 0.0670431 -0.121417 0.121408 -0.0670519 0.121408 -0.00000887115 Z M 0.121408 -0.00000887115 " transform="matrix(135.873551,0,0,135.873551,477.660148,129.040268)"/>
<path style="fill-rule:nonzero;fill:rgb(55.294118%,82.745098%,78.039216%);fill-opacity:1;stroke-width:0.024281;stroke-linecap:butt;stroke-linejoin:miter;stroke:rgb(60%,60%,60%);stroke-opacity:0.8;stroke-miterlimit:10;" d="M 0.121398 -0.0000126119 C 0.121398 0.0670592 0.0670623 0.121395 -0.00000945092 0.121395 C -0.0670525 0.121395 -0.121417 0.0670592 -0.121417 -0.0000126119 C -0.121417 -0.0670556 -0.0670525 -0.121392 -0.00000945092 -0.121392 C 0.0670623 -0.121392 0.121398 -0.0670556 0.121398 -0.0000126119 Z M 0.121398 -0.0000126119 " transform="matrix(135.873551,0,0,135.873551,132.180972,88.732182)"/>
<path style="fill-rule:nonzero;fill:rgb(55.294118%,82.745098%,78.039216%);fill-opacity:1;stroke-width:0.024281;stroke-linecap:butt;stroke-linejoin:miter;stroke:rgb(60%,60%,60%);stroke-opacity:0.8;stroke-miterlimit:10;" d="M 0.121403 0.00000570007 C 0.121403 0.0670487 0.0670383 0.121413 -0.00000474542 0.121413 C -0.0670478 0.121413 -0.121412 0.0670487 -0.121412 0.00000570007 C -0.121412 -0.0670373 -0.0670478 -0.121402 -0.00000474542 -0.121402 C 0.0670383 -0.121402 0.121403 -0.0670373 0.121403 0.00000570007 Z M 0.121403 0.00000570007 " transform="matrix(135.873551,0,0,135.873551,328.01627,247.917194)"/>
<path style="fill-rule:nonzero;fill:rgb(100%,92.941176%,43.529412%);fill-opacity:1;stroke-width:0.024281;stroke-linecap:butt;stroke-linejoin:miter;stroke:rgb(60%,60%,60%);stroke-opacity:0.8;stroke-miterlimit:10;" d="M 0.121394 0.00000753878 C 0.121394 0.0670506 0.0670585 0.121415 -0.0000133316 0.121415 C -0.0670564 0.121415 -0.121392 0.0670506 -0.121392 0.00000753878 C -0.121392 -0.0670642 -0.0670564 -0.1214 -0.0000133316 -0.1214 C 0.0670585 -0.1214 0.121394 -0.0670642 0.121394 0.00000753878 Z M 0.121394 0.00000753878 " transform="matrix(135.873551,0,0,135.873551,328.005718,393.370069)"/>
<path style="fill-rule:nonzero;fill:rgb(100%,92.941176%,43.529412%);fill-opacity:1;stroke-width:0.024281;stroke-linecap:butt;stroke-linejoin:miter;stroke:rgb(60%,60%,60%);stroke-opacity:0.8;stroke-miterlimit:10;" d="M 0.121394 -0.00000918404 C 0.121394 0.0670626 0.0670585 0.121399 -0.0000133229 0.121399 C -0.0670564 0.121399 -0.121392 0.0670626 -0.121392 -0.00000918404 C -0.121392 -0.0670522 -0.0670564 -0.121417 -0.0000133229 -0.121417 C 0.0670585 -0.121417 0.121394 -0.0670522 0.121394 -0.00000918404 Z M 0.121394 -0.00000918404 " transform="matrix(135.873551,0,0,135.873551,36.93931,268.243435)"/>
<path style="fill-rule:nonzero;fill:rgb(100%,92.941176%,43.529412%);fill-opacity:1;stroke-width:0.024281;stroke-linecap:butt;stroke-linejoin:miter;stroke:rgb(60%,60%,60%);stroke-opacity:0.8;stroke-miterlimit:10;" d="M 0.121412 0.000000175698 C 0.121412 0.0670432 0.0670476 0.121408 0.00000460473 0.121408 C -0.0670384 0.121408 -0.121403 0.0670432 -0.121403 0.000000175698 C -0.121403 -0.0670429 -0.0670384 -0.121408 0.00000460473 -0.121408 C 0.0670476 -0.121408 0.121412 -0.0670429 0.121412 0.000000175698 Z M 0.121412 0.000000175698 " transform="matrix(135.873551,0,0,135.873551,77.932968,297.453101)"/>
<path style="fill-rule:nonzero;fill:rgb(100%,92.941176%,43.529412%);fill-opacity:1;stroke-width:0.024281;stroke-linecap:butt;stroke-linejoin:miter;stroke:rgb(60%,60%,60%);stroke-opacity:0.8;stroke-miterlimit:10;" d="M 0.121393 0.00000783008 C 0.121393 0.0670509 0.0670571 0.121416 0.0000140457 0.121416 C -0.0670577 0.121416 -0.121394 0.0670509 -0.121394 0.00000783008 C -0.121394 -0.067064 -0.0670577 -0.1214 0.0000140457 -0.1214 C 0.0670571 -0.1214 0.121393 -0.067064 0.121393 0.00000783008 Z M 0.121393 0.00000783008 " transform="matrix(135.873551,0,0,135.873551,437.212935,427.43253)"/>
<path style="fill-rule:nonzero;fill:rgb(100%,92.941176%,43.529412%);fill-opacity:1;stroke-width:0.024281;stroke-linecap:butt;stroke-linejoin:miter;stroke:rgb(60%,60%,60%);stroke-opacity:0.8;stroke-miterlimit:10;" d="M 0.121404 -0.00000488074 C 0.121404 0.0670382 0.0670392 0.121403 -0.00000379143 0.121403 C -0.0670468 0.121403 -0.121411 0.0670382 -0.121411 -0.00000488074 C -0.121411 -0.0670479 -0.0670468 -0.121413 -0.00000379143 -0.121413 C 0.0670392 -0.121413 0.121404 -0.0670479 0.121404 -0.00000488074 Z M 0.121404 -0.00000488074 " transform="matrix(135.873551,0,0,135.873551,98.637234,361.516288)"/>
<path style="fill-rule:nonzero;fill:rgb(100%,92.941176%,43.529412%);fill-opacity:1;stroke-width:0.024281;stroke-linecap:butt;stroke-linejoin:miter;stroke:rgb(60%,60%,60%);stroke-opacity:0.8;stroke-miterlimit:10;" d="M 0.121394 -0.00000643331 C 0.121394 0.0670366 0.0670579 0.121401 -0.0000138993 0.121401 C -0.0670569 0.121401 -0.121393 0.0670366 -0.121393 -0.00000643331 C -0.121393 -0.0670495 -0.0670569 -0.121414 -0.0000138993 -0.121414 C 0.0670579 -0.121414 0.121394 -0.0670495 0.121394 -0.00000643331 Z M 0.121394 -0.00000643331 " transform="matrix(135.873551,0,0,135.873551,158.986264,348.235249)"/>
<path style="fill-rule:nonzero;fill:rgb(100%,92.941176%,43.529412%);fill-opacity:1;stroke-width:0.024281;stroke-linecap:butt;stroke-linejoin:miter;stroke:rgb(60%,60%,60%);stroke-opacity:0.8;stroke-miterlimit:10;" d="M 0.121415 -0.00000160567 C 0.121415 0.0670414 0.0670506 0.121406 0.00000755649 0.121406 C -0.0670642 0.121406 -0.1214 0.0670414 -0.1214 -0.00000160567 C -0.1214 -0.0670446 -0.0670642 -0.121409 0.00000755649 -0.121409 C 0.0670506 -0.121409 0.121415 -0.0670446 0.121415 -0.00000160567 Z M 0.121415 -0.00000160567 " transform="matrix(135.873551,0,0,135.873551,391.432567,389.793187)"/>
<path style="fill-rule:nonzero;fill:rgb(100%,92.941176%,43.529412%);fill-opacity:1;stroke-width:0.024281;stroke-linecap:butt;stroke-linejoin:miter;stroke:rgb(60%,60%,60%);stroke-opacity:0.8;stroke-miterlimit:10;" d="M 0.121416 0.00000848357 C 0.121416 0.0670515 0.067051 0.121416 0.00000796927 0.121416 C -0.0670638 0.121416 -0.1214 0.0670515 -0.1214 0.00000848357 C -0.1214 -0.0670633 -0.0670638 -0.121399 0.00000796927 -0.121399 C 0.067051 -0.121399 0.121416 -0.0670633 0.121416 0.00000848357 Z M 0.121416 0.00000848357 " transform="matrix(135.873551,0,0,135.873551,388.104386,453.065254)"/>
</g>
</svg>
