<?xml version="1.0" encoding="UTF-8"?>
<svg xmlns="http://www.w3.org/2000/svg" xmlns:xlink="http://www.w3.org/1999/xlink" width="600pt" height="600pt" viewBox="0 0 600 600" version="1.1">
<defs>
<clipPath id="clip1">
  <path d="M 66.847656 32 L 246.832031 32 L 246.832031 172 L 66.847656 172 Z M 66.847656 32 "/>
</clipPath>
<clipPath id="clip2">
  <path d="M 66.847656 -107.105469 L 246.832031 -107.105469 L 246.832031 311.445312 L 66.847656 311.445312 Z M 66.847656 -107.105469 L 212.847656 111.191406 C 212.847656 123.023438 203.253906 132.617188 191.417969 132.617188 C 179.585938 132.617188 169.992188 123.023438 169.992188 111.191406 C 169.992188 99.355469 179.585938 89.761719 191.417969 89.761719 C 203.253906 89.761719 212.847656 99.355469 212.847656 111.191406 Z M 66.847656 -107.105469 "/>
</clipPath>
<clipPath id="clip3">
  <path d="M 66.847656 -107.105469 L 246.832031 -107.105469 L 246.832031 311.445312 L 66.847656 311.445312 Z M 66.847656 -107.105469 L 143.691406 93.148438 C 143.691406 104.984375 134.097656 114.578125 122.261719 114.578125 C 110.425781 114.578125 100.832031 104.984375 100.832031 93.148438 C 100.832031 81.3125 110.425781 71.71875 122.261719 71.71875 C 134.097656 71.71875 143.691406 81.3125 143.691406 93.148438 Z M 66.847656 -107.105469 "/>
</clipPath>
<clipPath id="clip4">
  <path d="M 130 50 L 360 50 L 360 218 L 130 218 Z M 130 50 "/>
</clipPath>
<clipPath id="clip5">
  <path d="M 107.65625 -79.378906 L 383 -79.378906 L 383 347.761719 L 107.65625 347.761719 Z M 107.65625 -79.378906 L 212.847656 111.191406 C 212.847656 123.023438 203.253906 132.617188 191.417969 132.617188 C 179.585938 132.617188 169.992188 123.023438 169.992188 111.191406 C 169.992188 99.355469 179.585938 89.761719 191.417969 89.761719 C 203.253906 89.761719 212.847656 99.355469 212.847656 111.191406 Z M 107.65625 -79.378906 "/>
</clipPath>
<clipPath id="clip6">
  <path d="M 107.65625 -79.378906 L 383 -79.378906 L 383 347.761719 L 107.65625 347.761719 Z M 107.65625 -79.378906 L 320.664062 157.191406 C 320.664062 169.023438 311.070312 178.617188 299.238281 178.617188 C 287.402344 178.617188 277.808594 169.023438 277.808594 157.191406 C 277.808594 145.355469 287.402344 135.761719 299.238281 135.761719 C 311.070312 135.761719 320.664062 145.355469 320.664062 157.191406 Z M 107.65625 -79.378906 "/>
</clipPath>
<clipPath id="clip7">
  <path d="M 238 96 L 419 96 L 419 339 L 238 339 Z M 238 96 "/>
</clipPath>
<clipPath id="clip8">
  <path d="M 112.867188 64.234375 L 544.277344 64.234375 L 544.277344 370.621094 L 112.867188 370.621094 Z M 112.867188 64.234375 L 320.664062 157.191406 C 320.664062 169.023438 311.070312 178.617188 299.238281 178.617188 C 287.402344 178.617188 277.808594 169.023438 277.808594 157.191406 C 277.808594 145.355469 287.402344 135.761719 299.238281 135.761719 C 311.070312 135.761719 320.664062 145.355469 320.664062 157.191406 Z M 112.867188 64.234375 "/>
</clipPath>
<clipPath id="clip9">
  <path d="M 112.867188 64.234375 L 544.277344 64.234375 L 544.277344 370.621094 L 112.867188 370.621094 Z M 112.867188 64.234375 L 379.332031 277.664062 C 379.332031 289.5 369.738281 299.09375 357.90625 299.09375 C 346.070312 299.09375 336.476562 289.5 336.476562 277.664062 C 336.476562 265.832031 346.070312 256.238281 357.90625 256.238281 C 369.738281 256.238281 379.332031 265.832031 379.332031 277.664062 Z M 112.867188 64.234375 "/>
</clipPath>
<clipPath id="clip10">
  <path d="M 238 39 L 426 39 L 426 218 L 238 218 Z M 238 39 "/>
</clipPath>
<clipPath id="clip11">
  <path d="M 162.574219 -56.976562 L 501.445312 -56.976562 L 501.445312 314.753906 L 162.574219 314.753906 Z M 162.574219 -56.976562 L 320.664062 157.191406 C 320.664062 169.023438 311.070312 178.617188 299.238281 178.617188 C 287.402344 178.617188 277.808594 169.023438 277.808594 157.191406 C 277.808594 145.355469 287.402344 135.761719 299.238281 135.761719 C 311.070312 135.761719 320.664062 145.355469 320.664062 157.191406 Z M 162.574219 -56.976562 "/>
</clipPath>
<clipPath id="clip12">
  <path d="M 162.574219 -56.976562 L 501.445312 -56.976562 L 501.445312 314.753906 L 162.574219 314.753906 Z M 162.574219 -56.976562 L 386.210938 100.585938 C 386.210938 112.421875 376.617188 122.015625 364.78125 122.015625 C 352.949219 122.015625 343.351562 112.421875 343.351562 100.585938 C 343.351562 88.75 352.949219 79.15625 364.78125 79.15625 C 376.617188 79.15625 386.210938 88.75 386.210938 100.585938 Z M 162.574219 -56.976562 "/>
</clipPath>
<clipPath id="clip13">
  <path d="M 457.058594 343 L 594.332031 343 L 594.332031 476 L 457.058594 476 Z M 457.058594 343 "/>
</clipPath>
<clipPath id="clip14">
  <path d="M 457.058594 200.503906 L 594.332031 200.503906 L 594.332031 618.882812 L 457.058594 618.882812 Z M 457.058594 200.503906 L 516.320312 414.867188 C 516.320312 426.699219 506.726562 436.292969 494.890625 436.292969 C 483.058594 436.292969 473.464844 426.699219 473.464844 414.867188 C 473.464844 403.03125 483.058594 393.4375 494.890625 393.4375 C 506.726562 393.4375 516.320312 403.03125 516.320312 414.867188 Z M 457.058594 200.503906 "/>
</clipPath>
<clipPath id="clip15">
  <path d="M 457.058594 200.503906 L 594.332031 200.503906 L 594.332031 618.882812 L 457.058594 618.882812 Z M 457.058594 200.503906 L 577.929688 404.519531 C 577.929688 416.355469 568.335938 425.949219 556.5 425.949219 C 544.664062 425.949219 535.070312 416.355469 535.070312 404.519531 C 535.070312 392.683594 544.664062 383.089844 556.5 383.089844 C 568.335938 383.089844 577.929688 392.683594 577.929688 404.519531 Z M 457.058594 200.503906 "/>
</clipPath>
<clipPath id="clip16">
  <path d="M 379.164062 354 L 505.199219 354 L 505.199219 479 L 379.164062 479 Z M 379.164062 354 "/>
</clipPath>
<clipPath id="clip17">
  <path d="M 379.164062 208.140625 L 505.199219 208.140625 L 505.199219 624.730469 L 379.164062 624.730469 Z M 379.164062 208.140625 L 516.320312 414.867188 C 516.320312 426.699219 506.726562 436.292969 494.890625 436.292969 C 483.058594 436.292969 473.464844 426.699219 473.464844 414.867188 C 473.464844 403.03125 483.058594 393.4375 494.890625 393.4375 C 506.726562 393.4375 516.320312 403.03125 516.320312 414.867188 Z M 379.164062 208.140625 "/>
</clipPath>
<clipPath id="clip18">
  <path d="M 379.164062 208.140625 L 505.199219 208.140625 L 505.199219 624.730469 L 379.164062 624.730469 Z M 379.164062 208.140625 L 410.898438 418.003906 C 410.898438 429.835938 401.304688 439.429688 389.472656 439.429688 C 377.636719 439.429688 368.042969 429.835938 368.042969 418.003906 C 368.042969 406.167969 377.636719 396.574219 389.472656 396.574219 C 401.304688 396.574219 410.898438 406.167969 410.898438 418.003906 Z M 379.164062 208.140625 "/>
</clipPath>
<clipPath id="clip19">
  <path d="M 297 228.933594 L 451 228.933594 L 451 466.734375 L 297 466.734375 Z M 297 228.933594 "/>
</clipPath>
<clipPath id="clip20">
  <path d="M 156.027344 228.933594 L 591.351562 228.933594 L 591.351562 466.734375 L 156.027344 466.734375 Z M 156.027344 228.933594 L 379.332031 277.664062 C 379.332031 289.5 369.738281 299.09375 357.90625 299.09375 C 346.070312 299.09375 336.476562 289.5 336.476562 277.664062 C 336.476562 265.832031 346.070312 256.238281 357.90625 256.238281 C 369.738281 256.238281 379.332031 265.832031 379.332031 277.664062 Z M 156.027344 228.933594 "/>
</clipPath>
<clipPath id="clip21">
  <path d="M 156.027344 228.933594 L 591.351562 228.933594 L 591.351562 466.734375 L 156.027344 466.734375 Z M 156.027344 228.933594 L 410.898438 418.003906 C 410.898438 429.835938 401.304688 439.429688 389.472656 439.429688 C 377.636719 439.429688 368.042969 429.835938 368.042969 418.003906 C 368.042969 406.167969 377.636719 396.574219 389.472656 396.574219 C 401.304688 396.574219 410.898438 406.167969 410.898438 418.003906 Z M 156.027344 228.933594 "/>
</clipPath>
<clipPath id="clip22">
  <path d="M 208 357 L 451 357 L 451 519 L 208 519 Z M 208 357 "/>
</clipPath>
<clipPath id="clip23">
  <path d="M 200.746094 221.507812 L 457.582031 221.507812 L 457.582031 654.550781 L 200.746094 654.550781 Z M 200.746094 221.507812 L 410.898438 418.003906 C 410.898438 429.835938 401.304688 439.429688 389.472656 439.429688 C 377.636719 439.429688 368.042969 429.835938 368.042969 418.003906 C 368.042969 406.167969 377.636719 396.574219 389.472656 396.574219 C 401.304688 396.574219 410.898438 406.167969 410.898438 418.003906 Z M 200.746094 221.507812 "/>
</clipPath>
<clipPath id="clip24">
  <path d="M 200.746094 221.507812 L 457.582031 221.507812 L 457.582031 654.550781 L 200.746094 654.550781 Z M 200.746094 221.507812 L 290.28125 458.054688 C 290.28125 469.890625 280.6875 479.484375 268.855469 479.484375 C 257.019531 479.484375 247.425781 469.890625 247.425781 458.054688 C 247.425781 446.21875 257.019531 436.625 268.855469 436.625 C 280.6875 436.625 290.28125 446.21875 290.28125 458.054688 Z M 200.746094 221.507812 "/>
</clipPath>
<clipPath id="clip25">
  <path d="M 328 357.550781 L 476 357.550781 L 476 567.976562 L 328 567.976562 Z M 328 357.550781 "/>
</clipPath>
<clipPath id="clip26">
  <path d="M 190.601562 357.550781 L 614.183594 357.550781 L 614.183594 567.976562 L 190.601562 567.976562 Z M 190.601562 357.550781 L 410.898438 418.003906 C 410.898438 429.835938 401.304688 439.429688 389.472656 439.429688 C 377.636719 439.429688 368.042969 429.835938 368.042969 418.003906 C 368.042969 406.167969 377.636719 396.574219 389.472656 396.574219 C 401.304688 396.574219 410.898438 406.167969 410.898438 418.003906 Z M 190.601562 357.550781 "/>
</clipPath>
<clipPath id="clip27">
  <path d="M 190.601562 357.550781 L 614.183594 357.550781 L 614.183594 567.976562 L 190.601562 567.976562 Z M 190.601562 357.550781 L 436.738281 507.523438 C 436.738281 519.359375 427.144531 528.953125 415.3125 528.953125 C 403.476562 528.953125 393.882812 519.359375 393.882812 507.523438 C 393.882812 495.691406 403.476562 486.097656 415.3125 486.097656 C 427.144531 486.097656 436.738281 495.691406 436.738281 507.523438 Z M 190.601562 357.550781 "/>
</clipPath>
<clipPath id="clip28">
  <path d="M 304 14 L 479 14 L 479 162 L 304 162 Z M 304 14 "/>
</clipPath>
<clipPath id="clip29">
  <path d="M 273.476562 -111.839844 L 509.167969 -111.839844 L 509.167969 287.753906 L 273.476562 287.753906 Z M 273.476562 -111.839844 L 386.210938 100.585938 C 386.210938 112.421875 376.617188 122.015625 364.78125 122.015625 C 352.949219 122.015625 343.351562 112.421875 343.351562 100.585938 C 343.351562 88.75 352.949219 79.15625 364.78125 79.15625 C 376.617188 79.15625 386.210938 88.75 386.210938 100.585938 Z M 273.476562 -111.839844 "/>
</clipPath>
<clipPath id="clip30">
  <path d="M 273.476562 -111.839844 L 509.167969 -111.839844 L 509.167969 287.753906 L 273.476562 287.753906 Z M 273.476562 -111.839844 L 439.289062 75.328125 C 439.289062 87.164062 429.695312 96.757812 417.863281 96.757812 C 406.027344 96.757812 396.433594 87.164062 396.433594 75.328125 C 396.433594 63.492188 406.027344 53.898438 417.863281 53.898438 C 429.695312 53.898438 439.289062 63.492188 439.289062 75.328125 Z M 273.476562 -111.839844 "/>
</clipPath>
<clipPath id="clip31">
  <path d="M 120.125 392 L 280.78125 392 L 280.78125 519 L 120.125 519 Z M 120.125 392 "/>
</clipPath>
<clipPath id="clip32">
  <path d="M 120.125 246.21875 L 280.78125 246.21875 L 280.78125 664.726562 L 120.125 664.726562 Z M 120.125 246.21875 L 290.28125 458.054688 C 290.28125 469.890625 280.6875 479.484375 268.855469 479.484375 C 257.019531 479.484375 247.425781 469.890625 247.425781 458.054688 C 247.425781 446.21875 257.019531 436.625 268.855469 436.625 C 280.6875 436.625 290.28125 446.21875 290.28125 458.054688 Z M 120.125 246.21875 "/>
</clipPath>
<clipPath id="clip33">
  <path d="M 120.125 246.21875 L 280.78125 246.21875 L 280.78125 664.726562 L 120.125 664.726562 Z M 120.125 246.21875 L 153.476562 452.890625 C 153.476562 464.722656 143.882812 474.316406 132.050781 474.316406 C 120.214844 474.316406 110.621094 464.722656 110.621094 452.890625 C 110.621094 441.054688 120.214844 431.460938 132.050781 431.460938 C 143.882812 431.460938 153.476562 441.054688 153.476562 452.890625 Z M 120.125 246.21875 "/>
</clipPath>
<clipPath id="clip34">
  <path d="M 37 392 L 193 392 L 193 586 L 37 586 Z M 37 392 "/>
</clipPath>
<clipPath id="clip35">
  <path d="M -89.273438 361.414062 L 319.136719 361.414062 L 319.136719 616.148438 L -89.273438 616.148438 Z M -89.273438 361.414062 L 119.242188 524.671875 C 119.242188 536.507812 109.648438 546.101562 97.8125 546.101562 C 85.976562 546.101562 76.382812 536.507812 76.382812 524.671875 C 76.382812 512.835938 85.976562 503.242188 97.8125 503.242188 C 109.648438 503.242188 119.242188 512.835938 119.242188 524.671875 Z M -89.273438 361.414062 "/>
</clipPath>
<clipPath id="clip36">
  <path d="M -89.273438 361.414062 L 319.136719 361.414062 L 319.136719 616.148438 L -89.273438 616.148438 Z M -89.273438 361.414062 L 153.476562 452.890625 C 153.476562 464.722656 143.882812 474.316406 132.050781 474.316406 C 120.214844 474.316406 110.621094 464.722656 110.621094 452.890625 C 110.621094 441.054688 120.214844 431.460938 132.050781 431.460938 C 143.882812 431.460938 153.476562 441.054688 153.476562 452.890625 Z M -89.273438 361.414062 "/>
</clipPath>
<clipPath id="clip37">
  <path d="M 0 443 L 159 443 L 159 586 L 0 586 Z M 0 443 "/>
</clipPath>
<clipPath id="clip38">
  <path d="M -32.636719 310.421875 L 173.949219 310.421875 L 173.949219 718.3125 L -32.636719 718.3125 Z M -32.636719 310.421875 L 119.242188 524.671875 C 119.242188 536.507812 109.648438 546.101562 97.8125 546.101562 C 85.976562 546.101562 76.382812 536.507812 76.382812 524.671875 C 76.382812 512.835938 85.976562 503.242188 97.8125 503.242188 C 109.648438 503.242188 119.242188 512.835938 119.242188 524.671875 Z M -32.636719 310.421875 "/>
</clipPath>
<clipPath id="clip39">
  <path d="M -32.636719 310.421875 L 173.949219 310.421875 L 173.949219 718.3125 L -32.636719 718.3125 Z M -32.636719 310.421875 L 64.929688 504.0625 C 64.929688 515.898438 55.335938 525.492188 43.5 525.492188 C 31.664062 525.492188 22.070312 515.898438 22.070312 504.0625 C 22.070312 492.226562 31.664062 482.632812 43.5 482.632812 C 55.335938 482.632812 64.929688 492.226562 64.929688 504.0625 Z M -32.636719 310.421875 "/>
</clipPath>
<clipPath id="clip40">
  <path d="M 0 343.742188 L 129 343.742188 L 129 486.300781 L 0 486.300781 Z M 0 343.742188 "/>
</clipPath>
<clipPath id="clip41">
  <path d="M -144.472656 343.742188 L 269.78125 343.742188 L 269.78125 486.300781 L -144.472656 486.300781 Z M -144.472656 343.742188 L 78.957031 438.109375 C 78.957031 449.941406 69.363281 459.535156 57.527344 459.535156 C 45.691406 459.535156 36.097656 449.941406 36.097656 438.109375 C 36.097656 426.273438 45.691406 416.679688 57.527344 416.679688 C 69.363281 416.679688 78.957031 426.273438 78.957031 438.109375 Z M -144.472656 343.742188 "/>
</clipPath>
<clipPath id="clip42">
  <path d="M -144.472656 343.742188 L 269.78125 343.742188 L 269.78125 486.300781 L -144.472656 486.300781 Z M -144.472656 343.742188 L 89.210938 391.933594 C 89.210938 403.769531 79.617188 413.363281 67.78125 413.363281 C 55.945312 413.363281 46.351562 403.769531 46.351562 391.933594 C 46.351562 380.097656 55.945312 370.503906 67.78125 370.503906 C 79.617188 370.503906 89.210938 380.097656 89.210938 391.933594 Z M -144.472656 343.742188 "/>
</clipPath>
<clipPath id="clip43">
  <path d="M 13.839844 377 L 175.738281 377 L 175.738281 514 L 13.839844 514 Z M 13.839844 377 "/>
</clipPath>
<clipPath id="clip44">
  <path d="M 13.839844 235.164062 L 175.738281 235.164062 L 175.738281 655.835938 L 13.839844 655.835938 Z M 13.839844 235.164062 L 78.957031 438.109375 C 78.957031 449.941406 69.363281 459.535156 57.527344 459.535156 C 45.691406 459.535156 36.097656 449.941406 36.097656 438.109375 C 36.097656 426.273438 45.691406 416.679688 57.527344 416.679688 C 69.363281 416.679688 78.957031 426.273438 78.957031 438.109375 Z M 13.839844 235.164062 "/>
</clipPath>
<clipPath id="clip45">
  <path d="M 13.839844 235.164062 L 175.738281 235.164062 L 175.738281 655.835938 L 13.839844 655.835938 Z M 13.839844 235.164062 L 153.476562 452.890625 C 153.476562 464.722656 143.882812 474.316406 132.050781 474.316406 C 120.214844 474.316406 110.621094 464.722656 110.621094 452.890625 C 110.621094 441.054688 120.214844 431.460938 132.050781 431.460938 C 143.882812 431.460938 153.476562 441.054688 153.476562 452.890625 Z M 13.839844 235.164062 "/>
</clipPath>
<clipPath id="clip46">
  <path d="M 0 391.691406 L 119 391.691406 L 119 550.480469 L 0 550.480469 Z M 0 391.691406 "/>
</clipPath>
<clipPath id="clip47">
  <path d="M -158.882812 391.691406 L 259.910156 391.691406 L 259.910156 550.480469 L -158.882812 550.480469 Z M -158.882812 391.691406 L 78.957031 438.109375 C 78.957031 449.941406 69.363281 459.535156 57.527344 459.535156 C 45.691406 459.535156 36.097656 449.941406 36.097656 438.109375 C 36.097656 426.273438 45.691406 416.679688 57.527344 416.679688 C 69.363281 416.679688 78.957031 426.273438 78.957031 438.109375 Z M -158.882812 391.691406 "/>
</clipPath>
<clipPath id="clip48">
  <path d="M -158.882812 391.691406 L 259.910156 391.691406 L 259.910156 550.480469 L -158.882812 550.480469 Z M -158.882812 391.691406 L 64.929688 504.0625 C 64.929688 515.898438 55.335938 525.492188 43.5 525.492188 C 31.664062 525.492188 22.070312 515.898438 22.070312 504.0625 C 22.070312 492.226562 31.664062 482.632812 43.5 482.632812 C 55.335938 482.632812 64.929688 492.226562 64.929688 504.0625 Z M -158.882812 391.691406 "/>
</clipPath>
<clipPath id="clip49">
  <path d="M 7 331 L 193 331 L 193 514 L 7 514 Z M 7 331 "/>
</clipPath>
<clipPath id="clip50">
  <path d="M -75.878906 240.703125 L 275.710938 240.703125 L 275.710938 604.121094 L -75.878906 604.121094 Z M -75.878906 240.703125 L 89.210938 391.933594 C 89.210938 403.769531 79.617188 413.363281 67.78125 413.363281 C 55.945312 413.363281 46.351562 403.769531 46.351562 391.933594 C 46.351562 380.097656 55.945312 370.503906 67.78125 370.503906 C 79.617188 370.503906 89.210938 380.097656 89.210938 391.933594 Z M -75.878906 240.703125 "/>
</clipPath>
<clipPath id="clip51">
  <path d="M -75.878906 240.703125 L 275.710938 240.703125 L 275.710938 604.121094 L -75.878906 604.121094 Z M -75.878906 240.703125 L 153.476562 452.890625 C 153.476562 464.722656 143.882812 474.316406 132.050781 474.316406 C 120.214844 474.316406 110.621094 464.722656 110.621094 452.890625 C 110.621094 441.054688 120.214844 431.460938 132.050781 431.460938 C 143.882812 431.460938 153.476562 441.054688 153.476562 452.890625 Z M -75.878906 240.703125 "/>
</clipPath>
</defs>
<g id="surface336">
<g clip-path="url(#clip1)" clip-rule="nonzero">
<g clip-path="url(#clip2)" clip-rule="evenodd">
<g clip-path="url(#clip3)" clip-rule="evenodd">
<path style="fill:none;stroke-width:0.0211609;stroke-linecap:butt;stroke-linejoin:miter;stroke:rgb(17.96875%,20.3125%,21.09375%);stroke-opacity:0.8;stroke-miterlimit:10;" d="M 1.264892 0.828162 L 0.92343 0.739075 " transform="matrix(202.529929,0,0,202.529929,-64.760463,-56.536271)"/>
</g>
</g>
</g>
<g clip-path="url(#clip4)" clip-rule="nonzero">
<g clip-path="url(#clip5)" clip-rule="evenodd">
<g clip-path="url(#clip6)" clip-rule="evenodd">
<path style="fill:none;stroke-width:0.0211609;stroke-linecap:butt;stroke-linejoin:miter;stroke:rgb(17.96875%,20.3125%,21.09375%);stroke-opacity:0.8;stroke-miterlimit:10;" d="M 1.264892 0.828162 L 1.797259 1.055289 " transform="matrix(202.529929,0,0,202.529929,-64.760463,-56.536271)"/>
</g>
</g>
</g>
<g clip-path="url(#clip7)" clip-rule="nonzero">
<g clip-path="url(#clip8)" clip-rule="evenodd">
<g clip-path="url(#clip9)" clip-rule="evenodd">
<path style="fill:none;stroke-width:0.0211609;stroke-linecap:butt;stroke-linejoin:miter;stroke:rgb(17.96875%,20.3125%,21.09375%);stroke-opacity:0.8;stroke-miterlimit:10;" d="M 1.797259 1.055289 L 2.086935 1.650128 " transform="matrix(202.529929,0,0,202.529929,-64.760463,-56.536271)"/>
</g>
</g>
</g>
<g clip-path="url(#clip10)" clip-rule="nonzero">
<g clip-path="url(#clip11)" clip-rule="evenodd">
<g clip-path="url(#clip12)" clip-rule="evenodd">
<path style="fill:none;stroke-width:0.0211609;stroke-linecap:butt;stroke-linejoin:miter;stroke:rgb(17.96875%,20.3125%,21.09375%);stroke-opacity:0.8;stroke-miterlimit:10;" d="M 1.797259 1.055289 L 2.12088 0.775797 " transform="matrix(202.529929,0,0,202.529929,-64.760463,-56.536271)"/>
</g>
</g>
</g>
<g clip-path="url(#clip13)" clip-rule="nonzero">
<g clip-path="url(#clip14)" clip-rule="evenodd">
<g clip-path="url(#clip15)" clip-rule="evenodd">
<path style="fill:none;stroke-width:0.0211609;stroke-linecap:butt;stroke-linejoin:miter;stroke:rgb(17.96875%,20.3125%,21.09375%);stroke-opacity:0.8;stroke-miterlimit:10;" d="M 2.763301 2.327574 L 3.0675 2.276482 " transform="matrix(202.529929,0,0,202.529929,-64.760463,-56.536271)"/>
</g>
</g>
</g>
<g clip-path="url(#clip16)" clip-rule="nonzero">
<g clip-path="url(#clip17)" clip-rule="evenodd">
<g clip-path="url(#clip18)" clip-rule="evenodd">
<path style="fill:none;stroke-width:0.0211609;stroke-linecap:butt;stroke-linejoin:miter;stroke:rgb(17.96875%,20.3125%,21.09375%);stroke-opacity:0.8;stroke-miterlimit:10;" d="M 2.763301 2.327574 L 2.242795 2.343062 " transform="matrix(202.529929,0,0,202.529929,-64.760463,-56.536271)"/>
</g>
</g>
</g>
<g clip-path="url(#clip19)" clip-rule="nonzero">
<g clip-path="url(#clip20)" clip-rule="evenodd">
<g clip-path="url(#clip21)" clip-rule="evenodd">
<path style="fill:none;stroke-width:0.0211609;stroke-linecap:butt;stroke-linejoin:miter;stroke:rgb(17.96875%,20.3125%,21.09375%);stroke-opacity:0.8;stroke-miterlimit:10;" d="M 2.086935 1.650128 L 2.242795 2.343062 " transform="matrix(202.529929,0,0,202.529929,-64.760463,-56.536271)"/>
</g>
</g>
</g>
<g clip-path="url(#clip22)" clip-rule="nonzero">
<g clip-path="url(#clip23)" clip-rule="evenodd">
<g clip-path="url(#clip24)" clip-rule="evenodd">
<path style="fill:none;stroke-width:0.0211609;stroke-linecap:butt;stroke-linejoin:miter;stroke:rgb(17.96875%,20.3125%,21.09375%);stroke-opacity:0.8;stroke-miterlimit:10;" d="M 2.242795 2.343062 L 1.647243 2.540814 " transform="matrix(202.529929,0,0,202.529929,-64.760463,-56.536271)"/>
</g>
</g>
</g>
<g clip-path="url(#clip25)" clip-rule="nonzero">
<g clip-path="url(#clip26)" clip-rule="evenodd">
<g clip-path="url(#clip27)" clip-rule="evenodd">
<path style="fill:none;stroke-width:0.0211609;stroke-linecap:butt;stroke-linejoin:miter;stroke:rgb(17.96875%,20.3125%,21.09375%);stroke-opacity:0.8;stroke-miterlimit:10;" d="M 2.242795 2.343062 L 2.37038 2.785068 " transform="matrix(202.529929,0,0,202.529929,-64.760463,-56.536271)"/>
</g>
</g>
</g>
<g clip-path="url(#clip28)" clip-rule="nonzero">
<g clip-path="url(#clip29)" clip-rule="evenodd">
<g clip-path="url(#clip30)" clip-rule="evenodd">
<path style="fill:none;stroke-width:0.0211609;stroke-linecap:butt;stroke-linejoin:miter;stroke:rgb(17.96875%,20.3125%,21.09375%);stroke-opacity:0.8;stroke-miterlimit:10;" d="M 2.12088 0.775797 L 2.382975 0.651086 " transform="matrix(202.529929,0,0,202.529929,-64.760463,-56.536271)"/>
</g>
</g>
</g>
<g clip-path="url(#clip31)" clip-rule="nonzero">
<g clip-path="url(#clip32)" clip-rule="evenodd">
<g clip-path="url(#clip33)" clip-rule="evenodd">
<path style="fill:none;stroke-width:0.0211609;stroke-linecap:butt;stroke-linejoin:miter;stroke:rgb(17.96875%,20.3125%,21.09375%);stroke-opacity:0.8;stroke-miterlimit:10;" d="M 1.647243 2.540814 L 0.971764 2.515317 " transform="matrix(202.529929,0,0,202.529929,-64.760463,-56.536271)"/>
</g>
</g>
</g>
<g clip-path="url(#clip34)" clip-rule="nonzero">
<g clip-path="url(#clip35)" clip-rule="evenodd">
<g clip-path="url(#clip36)" clip-rule="evenodd">
<path style="fill:none;stroke-width:0.0211609;stroke-linecap:butt;stroke-linejoin:miter;stroke:rgb(17.96875%,20.3125%,21.09375%);stroke-opacity:0.8;stroke-miterlimit:10;" d="M 0.802711 2.86974 L 0.971764 2.515317 " transform="matrix(202.529929,0,0,202.529929,-64.760463,-56.536271)"/>
</g>
</g>
</g>
<g clip-path="url(#clip37)" clip-rule="nonzero">
<g clip-path="url(#clip38)" clip-rule="evenodd">
<g clip-path="url(#clip39)" clip-rule="evenodd">
<path style="fill:none;stroke-width:0.0211609;stroke-linecap:butt;stroke-linejoin:miter;stroke:rgb(17.96875%,20.3125%,21.09375%);stroke-opacity:0.8;stroke-miterlimit:10;" d="M 0.802711 2.86974 L 0.534541 2.76798 " transform="matrix(202.529929,0,0,202.529929,-64.760463,-56.536271)"/>
</g>
</g>
</g>
<g clip-path="url(#clip40)" clip-rule="nonzero">
<g clip-path="url(#clip41)" clip-rule="evenodd">
<g clip-path="url(#clip42)" clip-rule="evenodd">
<path style="fill:none;stroke-width:0.0211609;stroke-linecap:butt;stroke-linejoin:miter;stroke:rgb(17.96875%,20.3125%,21.09375%);stroke-opacity:0.8;stroke-miterlimit:10;" d="M 0.603801 2.442334 L 0.65443 2.214339 " transform="matrix(202.529929,0,0,202.529929,-64.760463,-56.536271)"/>
</g>
</g>
</g>
<g clip-path="url(#clip43)" clip-rule="nonzero">
<g clip-path="url(#clip44)" clip-rule="evenodd">
<g clip-path="url(#clip45)" clip-rule="evenodd">
<path style="fill:none;stroke-width:0.0211609;stroke-linecap:butt;stroke-linejoin:miter;stroke:rgb(17.96875%,20.3125%,21.09375%);stroke-opacity:0.8;stroke-miterlimit:10;" d="M 0.603801 2.442334 L 0.971764 2.515317 " transform="matrix(202.529929,0,0,202.529929,-64.760463,-56.536271)"/>
</g>
</g>
</g>
<g clip-path="url(#clip46)" clip-rule="nonzero">
<g clip-path="url(#clip47)" clip-rule="evenodd">
<g clip-path="url(#clip48)" clip-rule="evenodd">
<path style="fill:none;stroke-width:0.0211609;stroke-linecap:butt;stroke-linejoin:miter;stroke:rgb(17.96875%,20.3125%,21.09375%);stroke-opacity:0.8;stroke-miterlimit:10;" d="M 0.603801 2.442334 L 0.534541 2.76798 " transform="matrix(202.529929,0,0,202.529929,-64.760463,-56.536271)"/>
</g>
</g>
</g>
<g clip-path="url(#clip49)" clip-rule="nonzero">
<g clip-path="url(#clip50)" clip-rule="evenodd">
<g clip-path="url(#clip51)" clip-rule="evenodd">
<path style="fill:none;stroke-width:0.0211609;stroke-linecap:butt;stroke-linejoin:miter;stroke:rgb(17.96875%,20.3125%,21.09375%);stroke-opacity:0.8;stroke-miterlimit:10;" d="M 0.65443 2.214339 L 0.971764 2.515317 " transform="matrix(202.529929,0,0,202.529929,-64.760463,-56.536271)"/>
</g>
</g>
</g>
<path style="fill-rule:nonzero;fill:rgb(100%,92.941176%,43.529412%);fill-opacity:1;stroke-width:0.0211609;stroke-linecap:butt;stroke-linejoin:miter;stroke:rgb(60%,60%,60%);stroke-opacity:0.8;stroke-miterlimit:10;" d="M 0.105805 0.00000939085 C 0.105805 0.0584305 0.0584351 0.1058 -0.00000532377 0.1058 C -0.0584265 0.1058 -0.105796 0.0584305 -0.105796 0.00000939085 C -0.105796 -0.058431 -0.0584265 -0.105801 -0.00000532377 -0.105801 C 0.0584351 -0.105801 0.105805 -0.058431 0.105805 0.00000939085 Z M 0.105805 0.00000939085 " transform="matrix(202.529929,0,0,202.529929,191.419047,111.189504)"/>
<path style="fill-rule:nonzero;fill:rgb(100%,92.941176%,43.529412%);fill-opacity:1;stroke-width:0.0211609;stroke-linecap:butt;stroke-linejoin:miter;stroke:rgb(60%,60%,60%);stroke-opacity:0.8;stroke-miterlimit:10;" d="M 0.105813 0.0000000414905 C 0.105813 0.0584405 0.0584432 0.10581 0.00000280793 0.10581 C -0.0584376 0.10581 -0.105807 0.0584405 -0.105807 0.0000000414905 C -0.105807 -0.0584404 -0.0584376 -0.10581 0.00000280793 -0.10581 C 0.0584432 -0.10581 0.105813 -0.0584404 0.105813 0.0000000414905 Z M 0.105813 0.0000000414905 " transform="matrix(202.529929,0,0,202.529929,122.26115,93.148429)"/>
<path style="fill-rule:nonzero;fill:rgb(100%,92.941176%,43.529412%);fill-opacity:1;stroke-width:0.0211609;stroke-linecap:butt;stroke-linejoin:miter;stroke:rgb(60%,60%,60%);stroke-opacity:0.8;stroke-miterlimit:10;" d="M 0.105795 0.00000490049 C 0.105795 0.058426 0.0584253 0.105796 0.00000415213 0.105796 C -0.0584363 0.105796 -0.105806 0.058426 -0.105806 0.00000490049 C -0.105806 -0.0584355 -0.0584363 -0.105805 0.00000415213 -0.105805 C 0.0584253 -0.105805 0.105795 -0.0584355 0.105795 0.00000490049 Z M 0.105795 0.00000490049 " transform="matrix(202.529929,0,0,202.529929,299.23744,157.190414)"/>
<path style="fill-rule:nonzero;fill:rgb(55.294118%,82.745098%,78.039216%);fill-opacity:1;stroke-width:0.0211609;stroke-linecap:butt;stroke-linejoin:miter;stroke:rgb(60%,60%,60%);stroke-opacity:0.8;stroke-miterlimit:10;" d="M 0.105802 0.00000472252 C 0.105802 0.0584259 0.0584322 0.105795 -0.00000828165 0.105795 C -0.0584294 0.105795 -0.105799 0.0584259 -0.105799 0.00000472252 C -0.105799 -0.0584357 -0.0584294 -0.105805 -0.00000828165 -0.105805 C 0.0584322 -0.105805 0.105802 -0.0584357 0.105802 0.00000472252 Z M 0.105802 0.00000472252 " transform="matrix(202.529929,0,0,202.529929,494.892302,414.866231)"/>
<path style="fill-rule:nonzero;fill:rgb(55.294118%,82.745098%,78.039216%);fill-opacity:1;stroke-width:0.0211609;stroke-linecap:butt;stroke-linejoin:miter;stroke:rgb(60%,60%,60%);stroke-opacity:0.8;stroke-miterlimit:10;" d="M 0.10581 -0.00000131312 C 0.10581 0.0584391 0.0584404 0.105809 0 0.105809 C -0.0584404 0.105809 -0.10581 0.0584391 -0.10581 -0.00000131312 C -0.10581 -0.0584417 -0.0584404 -0.105811 0 -0.105811 C 0.0584404 -0.105811 0.10581 -0.0584417 0.10581 -0.00000131312 Z M 0.10581 -0.00000131312 " transform="matrix(202.529929,0,0,202.529929,556.5,404.519797)"/>
<path style="fill-rule:nonzero;fill:rgb(100%,92.941176%,43.529412%);fill-opacity:1;stroke-width:0.0211609;stroke-linecap:butt;stroke-linejoin:miter;stroke:rgb(60%,60%,60%);stroke-opacity:0.8;stroke-miterlimit:10;" d="M 0.105797 -0.00000755122 C 0.105797 0.0584329 0.0584272 0.105802 0.00000600904 0.105802 C -0.0584344 0.105802 -0.105804 0.0584329 -0.105804 -0.00000755122 C -0.105804 -0.0584287 -0.0584344 -0.105798 0.00000600904 -0.105798 C 0.0584272 -0.105798 0.105797 -0.0584287 0.105797 -0.00000755122 Z M 0.105797 -0.00000755122 " transform="matrix(202.529929,0,0,202.529929,357.905033,277.665592)"/>
<path style="fill-rule:nonzero;fill:rgb(100%,92.941176%,43.529412%);fill-opacity:1;stroke-width:0.0211609;stroke-linecap:butt;stroke-linejoin:miter;stroke:rgb(60%,60%,60%);stroke-opacity:0.8;stroke-miterlimit:10;" d="M 0.105796 0.00000770778 C 0.105796 0.0584289 0.0584262 0.105798 0.000005015 0.105798 C -0.0584354 0.105798 -0.105805 0.0584289 -0.105805 0.00000770778 C -0.105805 -0.0584327 -0.0584354 -0.105802 0.000005015 -0.105802 C 0.0584262 -0.105802 0.105796 -0.0584327 0.105796 0.00000770778 Z M 0.105796 0.00000770778 " transform="matrix(202.529929,0,0,202.529929,389.471641,418.002345)"/>
<path style="fill-rule:nonzero;fill:rgb(100%,92.941176%,43.529412%);fill-opacity:1;stroke-width:0.0211609;stroke-linecap:butt;stroke-linejoin:miter;stroke:rgb(60%,60%,60%);stroke-opacity:0.8;stroke-miterlimit:10;" d="M 0.105806 -0.00000116996 C 0.105806 0.0584393 0.0584366 0.105809 -0.00000383056 0.105809 C -0.058425 0.105809 -0.105814 0.0584393 -0.105814 -0.00000116996 C -0.105814 -0.0584416 -0.058425 -0.105811 -0.00000383056 -0.105811 C 0.0584366 -0.105811 0.105806 -0.0584416 0.105806 -0.00000116996 Z M 0.105806 -0.00000116996 " transform="matrix(202.529929,0,0,202.529929,364.782026,100.586174)"/>
<path style="fill-rule:nonzero;fill:rgb(100%,92.941176%,43.529412%);fill-opacity:1;stroke-width:0.0211609;stroke-linecap:butt;stroke-linejoin:miter;stroke:rgb(60%,60%,60%);stroke-opacity:0.8;stroke-miterlimit:10;" d="M 0.105795 -0.000000429151 C 0.105795 0.05844 0.0584259 0.10581 0.00000477782 0.10581 C -0.0584357 0.10581 -0.105805 0.05844 -0.105805 -0.000000429151 C -0.105805 -0.0584409 -0.0584357 -0.10581 0.00000477782 -0.10581 C 0.0584259 -0.10581 0.105795 -0.0584409 0.105795 -0.000000429151 Z M 0.105795 -0.000000429151 " transform="matrix(202.529929,0,0,202.529929,417.862314,75.328212)"/>
<path style="fill-rule:nonzero;fill:rgb(100%,92.941176%,43.529412%);fill-opacity:1;stroke-width:0.0211609;stroke-linecap:butt;stroke-linejoin:miter;stroke:rgb(60%,60%,60%);stroke-opacity:0.8;stroke-miterlimit:10;" d="M 0.105797 -0.00000265572 C 0.105797 0.0584378 0.0584278 0.105807 0.00000665707 0.105807 C -0.0584338 0.105807 -0.105803 0.0584378 -0.105803 -0.00000265572 C -0.105803 -0.0584431 -0.0584338 -0.105813 0.00000665707 -0.105813 C 0.0584278 -0.105813 0.105797 -0.0584431 0.105797 -0.00000265572 Z M 0.105797 -0.00000265572 " transform="matrix(202.529929,0,0,202.529929,268.85412,458.055225)"/>
<path style="fill-rule:nonzero;fill:rgb(100%,92.941176%,43.529412%);fill-opacity:1;stroke-width:0.0211609;stroke-linecap:butt;stroke-linejoin:miter;stroke:rgb(60%,60%,60%);stroke-opacity:0.8;stroke-miterlimit:10;" d="M 0.105812 0.000000429151 C 0.105812 0.0584409 0.0584427 0.10581 0.00000228403 0.10581 C -0.0584382 0.10581 -0.105808 0.0584409 -0.105808 0.000000429151 C -0.105808 -0.05844 -0.0584382 -0.10581 0.00000228403 -0.10581 C 0.0584427 -0.10581 0.105812 -0.05844 0.105812 0.000000429151 Z M 0.105812 0.000000429151 " transform="matrix(202.529929,0,0,202.529929,97.812037,524.671788)"/>
<path style="fill-rule:nonzero;fill:rgb(100%,92.941176%,43.529412%);fill-opacity:1;stroke-width:0.0211609;stroke-linecap:butt;stroke-linejoin:miter;stroke:rgb(60%,60%,60%);stroke-opacity:0.8;stroke-miterlimit:10;" d="M 0.105811 0.00000863863 C 0.105811 0.0584298 0.0584417 0.105799 0.00000126384 0.105799 C -0.0584392 0.105799 -0.105809 0.0584298 -0.105809 0.00000863863 C -0.105809 -0.0584318 -0.0584392 -0.105801 0.00000126384 -0.105801 C 0.0584417 -0.105801 0.105811 -0.0584318 0.105811 0.00000863863 Z M 0.105811 0.00000863863 " transform="matrix(202.529929,0,0,202.529929,57.527088,438.107625)"/>
<path style="fill-rule:nonzero;fill:rgb(100%,92.941176%,43.529412%);fill-opacity:1;stroke-width:0.0211609;stroke-linecap:butt;stroke-linejoin:miter;stroke:rgb(60%,60%,60%);stroke-opacity:0.8;stroke-miterlimit:10;" d="M 0.105811 -0.00000328575 C 0.105811 0.0584372 0.0584412 0.105807 0.000000715532 0.105807 C -0.0584397 0.105807 -0.105809 0.0584372 -0.105809 -0.00000328575 C -0.105809 -0.0584437 -0.0584397 -0.105813 0.000000715532 -0.105813 C 0.0584412 -0.105813 0.105811 -0.0584437 0.105811 -0.00000328575 Z M 0.105811 -0.00000328575 " transform="matrix(202.529929,0,0,202.529929,67.781105,391.934259)"/>
<path style="fill-rule:nonzero;fill:rgb(100%,92.941176%,43.529412%);fill-opacity:1;stroke-width:0.0211609;stroke-linecap:butt;stroke-linejoin:miter;stroke:rgb(60%,60%,60%);stroke-opacity:0.8;stroke-miterlimit:10;" d="M 0.105798 0.00000835698 C 0.105798 0.0584295 0.0584283 0.105799 0.00000713275 0.105799 C -0.0584333 0.105799 -0.105803 0.0584295 -0.105803 0.00000835698 C -0.105803 -0.0584321 -0.0584333 -0.105802 0.00000713275 -0.105802 C 0.0584283 -0.105802 0.105798 -0.0584321 0.105798 0.00000835698 Z M 0.105798 0.00000835698 " transform="matrix(202.529929,0,0,202.529929,132.049337,452.888932)"/>
<path style="fill-rule:nonzero;fill:rgb(100%,92.941176%,43.529412%);fill-opacity:1;stroke-width:0.0211609;stroke-linecap:butt;stroke-linejoin:miter;stroke:rgb(60%,60%,60%);stroke-opacity:0.8;stroke-miterlimit:10;" d="M 0.10581 -0.00000246645 C 0.10581 0.058438 0.0584404 0.105808 -0.000000000000000333 0.105808 C -0.0584404 0.105808 -0.10581 0.058438 -0.10581 -0.00000246645 C -0.10581 -0.0584429 -0.0584404 -0.105812 -0.000000000000000333 -0.105812 C 0.0584404 -0.105812 0.10581 -0.0584429 0.10581 -0.00000246645 Z M 0.10581 -0.00000246645 " transform="matrix(202.529929,0,0,202.529929,43.5,504.063)"/>
<path style="fill-rule:nonzero;fill:rgb(100%,92.941176%,43.529412%);fill-opacity:1;stroke-width:0.0211609;stroke-linecap:butt;stroke-linejoin:miter;stroke:rgb(60%,60%,60%);stroke-opacity:0.8;stroke-miterlimit:10;" d="M 0.105799 -0.00000689008 C 0.105799 0.0584335 0.0584297 0.105803 0.00000858035 0.105803 C -0.0584319 0.105803 -0.105801 0.0584335 -0.105801 -0.00000689008 C -0.105801 -0.058428 -0.0584319 -0.105798 0.00000858035 -0.105798 C 0.0584297 -0.105798 0.105799 -0.058428 0.105799 -0.00000689008 Z M 0.105799 -0.00000689008 " transform="matrix(202.529929,0,0,202.529929,415.310762,507.524833)"/>
</g>
</svg>
