<?xml version="1.0" encoding="UTF-8"?>
<svg xmlns="http://www.w3.org/2000/svg" xmlns:xlink="http://www.w3.org/1999/xlink" width="600pt" height="600pt" viewBox="0 0 600 600" version="1.1">
<defs>
<clipPath id="clip1">
  <path d="M 186 27 L 353 27 L 353 267 L 186 267 Z M 186 27 "/>
</clipPath>
<clipPath id="clip2">
  <path d="M 68.246094 11.972656 L 470.671875 11.972656 L 470.671875 281.789062 L 68.246094 281.789062 Z M 68.246094 11.972656 L 314.890625 207.257812 C 314.890625 218.738281 305.582031 228.046875 294.101562 228.046875 C 282.621094 228.046875 273.3125 218.738281 273.3125 207.257812 C 273.3125 195.777344 282.621094 186.46875 294.101562 186.46875 C 305.582031 186.46875 314.890625 195.777344 314.890625 207.257812 Z M 68.246094 11.972656 "/>
</clipPath>
<clipPath id="clip3">
  <path d="M 68.246094 11.972656 L 470.671875 11.972656 L 470.671875 281.789062 L 68.246094 281.789062 Z M 68.246094 11.972656 L 265.601562 86.5 C 265.601562 97.980469 256.296875 107.289062 244.8125 107.289062 C 233.332031 107.289062 224.023438 97.980469 224.023438 86.5 C 224.023438 75.019531 233.332031 65.710938 244.8125 65.710938 C 256.296875 65.710938 265.601562 75.019531 265.601562 86.5 Z M 68.246094 11.972656 "/>
</clipPath>
<clipPath id="clip4">
  <path d="M 163 38 L 353 38 L 353 267 L 163 267 Z M 163 38 "/>
</clipPath>
<clipPath id="clip5">
  <path d="M 62.296875 -8.257812 L 454.605469 -8.257812 L 454.605469 312.582031 L 62.296875 312.582031 Z M 62.296875 -8.257812 L 314.890625 207.257812 C 314.890625 218.738281 305.582031 228.046875 294.101562 228.046875 C 282.621094 228.046875 273.3125 218.738281 273.3125 207.257812 C 273.3125 195.777344 282.621094 186.46875 294.101562 186.46875 C 305.582031 186.46875 314.890625 195.777344 314.890625 207.257812 Z M 62.296875 -8.257812 "/>
</clipPath>
<clipPath id="clip6">
  <path d="M 62.296875 -8.257812 L 454.605469 -8.257812 L 454.605469 312.582031 L 62.296875 312.582031 Z M 62.296875 -8.257812 L 243.585938 97.0625 C 243.585938 108.542969 234.28125 117.851562 222.796875 117.851562 C 211.316406 117.851562 202.011719 108.542969 202.011719 97.0625 C 202.011719 85.582031 211.316406 76.273438 222.796875 76.273438 C 234.28125 76.273438 243.585938 85.582031 243.585938 97.0625 Z M 62.296875 -8.257812 "/>
</clipPath>
<clipPath id="clip7">
  <path d="M 203 164.140625 L 353 164.140625 L 353 401.050781 L 203 401.050781 Z M 203 164.140625 "/>
</clipPath>
<clipPath id="clip8">
  <path d="M 75.609375 164.140625 L 480.359375 164.140625 L 480.359375 401.050781 L 75.609375 401.050781 Z M 75.609375 164.140625 L 314.890625 207.257812 C 314.890625 218.738281 305.582031 228.046875 294.101562 228.046875 C 282.621094 228.046875 273.3125 218.738281 273.3125 207.257812 C 273.3125 195.777344 282.621094 186.46875 294.101562 186.46875 C 305.582031 186.46875 314.890625 195.777344 314.890625 207.257812 Z M 75.609375 164.140625 "/>
</clipPath>
<clipPath id="clip9">
  <path d="M 75.609375 164.140625 L 480.359375 164.140625 L 480.359375 401.050781 L 75.609375 401.050781 Z M 75.609375 164.140625 L 282.652344 357.929688 C 282.652344 369.410156 273.347656 378.71875 261.863281 378.71875 C 250.382812 378.71875 241.074219 369.410156 241.074219 357.929688 C 241.074219 346.449219 250.382812 337.140625 261.863281 337.140625 C 273.347656 337.140625 282.652344 346.449219 282.652344 357.929688 Z M 75.609375 164.140625 "/>
</clipPath>
<clipPath id="clip10">
  <path d="M 235 148 L 412 148 L 412 347 L 235 347 Z M 235 148 "/>
</clipPath>
<clipPath id="clip11">
  <path d="M 139.5 93.359375 L 507.492188 93.359375 L 507.492188 401.75 L 139.5 401.75 Z M 139.5 93.359375 L 314.890625 207.257812 C 314.890625 218.738281 305.582031 228.046875 294.101562 228.046875 C 282.621094 228.046875 273.3125 218.738281 273.3125 207.257812 C 273.3125 195.777344 282.621094 186.46875 294.101562 186.46875 C 305.582031 186.46875 314.890625 195.777344 314.890625 207.257812 Z M 139.5 93.359375 "/>
</clipPath>
<clipPath id="clip12">
  <path d="M 139.5 93.359375 L 507.492188 93.359375 L 507.492188 401.75 L 139.5 401.75 Z M 139.5 93.359375 L 373.675781 287.847656 C 373.675781 299.328125 364.367188 308.636719 352.886719 308.636719 C 341.402344 308.636719 332.097656 299.328125 332.097656 287.847656 C 332.097656 276.367188 341.402344 267.058594 352.886719 267.058594 C 364.367188 267.058594 373.675781 276.367188 373.675781 287.847656 Z M 139.5 93.359375 "/>
</clipPath>
<clipPath id="clip13">
  <path d="M 173 148 L 353 148 L 353 327 L 173 327 Z M 173 148 "/>
</clipPath>
<clipPath id="clip14">
  <path d="M 97.808594 70.242188 L 428.746094 70.242188 L 428.746094 404.828125 L 97.808594 404.828125 Z M 97.808594 70.242188 L 314.890625 207.257812 C 314.890625 218.738281 305.582031 228.046875 294.101562 228.046875 C 282.621094 228.046875 273.3125 218.738281 273.3125 207.257812 C 273.3125 195.777344 282.621094 186.46875 294.101562 186.46875 C 305.582031 186.46875 314.890625 195.777344 314.890625 207.257812 Z M 97.808594 70.242188 "/>
</clipPath>
<clipPath id="clip15">
  <path d="M 97.808594 70.242188 L 428.746094 70.242188 L 428.746094 404.828125 L 97.808594 404.828125 Z M 97.808594 70.242188 L 253.238281 267.808594 C 253.238281 279.289062 243.929688 288.597656 232.449219 288.597656 C 220.964844 288.597656 211.660156 279.289062 211.660156 267.808594 C 211.660156 256.328125 220.964844 247.019531 232.449219 247.019531 C 243.929688 247.019531 253.238281 256.328125 253.238281 267.808594 Z M 97.808594 70.242188 "/>
</clipPath>
<clipPath id="clip16">
  <path d="M 279.046875 148 L 473.777344 148 L 473.777344 276 L 279.046875 276 Z M 279.046875 148 "/>
</clipPath>
<clipPath id="clip17">
  <path d="M 279.046875 17.203125 L 473.777344 17.203125 L 473.777344 406.96875 L 279.046875 406.96875 Z M 279.046875 17.203125 L 314.890625 207.257812 C 314.890625 218.738281 305.582031 228.046875 294.101562 228.046875 C 282.621094 228.046875 273.3125 218.738281 273.3125 207.257812 C 273.3125 195.777344 282.621094 186.46875 294.101562 186.46875 C 305.582031 186.46875 314.890625 195.777344 314.890625 207.257812 Z M 279.046875 17.203125 "/>
</clipPath>
<clipPath id="clip18">
  <path d="M 279.046875 17.203125 L 473.777344 17.203125 L 473.777344 406.96875 L 279.046875 406.96875 Z M 279.046875 17.203125 L 479.507812 216.910156 C 479.507812 228.394531 470.199219 237.699219 458.71875 237.699219 C 447.234375 237.699219 437.929688 228.394531 437.929688 216.910156 C 437.929688 205.429688 447.234375 196.125 458.71875 196.125 C 470.199219 196.125 479.507812 205.429688 479.507812 216.910156 Z M 279.046875 17.203125 "/>
</clipPath>
<clipPath id="clip19">
  <path d="M 145 0 L 304 0 L 304 146 L 145 146 Z M 145 0 "/>
</clipPath>
<clipPath id="clip20">
  <path d="M 63.449219 -88.132812 L 385.511719 -88.132812 L 385.511719 217.285156 L 63.449219 217.285156 Z M 63.449219 -88.132812 L 265.601562 86.5 C 265.601562 97.980469 256.296875 107.289062 244.8125 107.289062 C 233.332031 107.289062 224.023438 97.980469 224.023438 86.5 C 224.023438 75.019531 233.332031 65.710938 244.8125 65.710938 C 256.296875 65.710938 265.601562 75.019531 265.601562 86.5 Z M 63.449219 -88.132812 "/>
</clipPath>
<clipPath id="clip21">
  <path d="M 63.449219 -88.132812 L 385.511719 -88.132812 L 385.511719 217.285156 L 63.449219 217.285156 Z M 63.449219 -88.132812 L 224.929688 42.648438 C 224.929688 54.128906 215.625 63.4375 204.144531 63.4375 C 192.660156 63.4375 183.355469 54.128906 183.355469 42.648438 C 183.355469 31.167969 192.660156 21.859375 204.144531 21.859375 C 215.625 21.859375 224.929688 31.167969 224.929688 42.648438 Z M 63.449219 -88.132812 "/>
</clipPath>
<clipPath id="clip22">
  <path d="M 163 27 L 304 27 L 304 156 L 163 156 Z M 163 27 "/>
</clipPath>
<clipPath id="clip23">
  <path d="M 138.089844 -85.550781 L 329.523438 -85.550781 L 329.523438 269.117188 L 138.089844 269.117188 Z M 138.089844 -85.550781 L 265.601562 86.5 C 265.601562 97.980469 256.296875 107.289062 244.8125 107.289062 C 233.332031 107.289062 224.023438 97.980469 224.023438 86.5 C 224.023438 75.019531 233.332031 65.710938 244.8125 65.710938 C 256.296875 65.710938 265.601562 75.019531 265.601562 86.5 Z M 138.089844 -85.550781 "/>
</clipPath>
<clipPath id="clip24">
  <path d="M 138.089844 -85.550781 L 329.523438 -85.550781 L 329.523438 269.117188 L 138.089844 269.117188 Z M 138.089844 -85.550781 L 243.585938 97.0625 C 243.585938 108.542969 234.28125 117.851562 222.796875 117.851562 C 211.316406 117.851562 202.011719 108.542969 202.011719 97.0625 C 202.011719 85.582031 211.316406 76.273438 222.796875 76.273438 C 234.28125 76.273438 243.585938 85.582031 243.585938 97.0625 Z M 138.089844 -85.550781 "/>
</clipPath>
<clipPath id="clip25">
  <path d="M 145 0 L 282 0 L 282 156 L 145 156 Z M 145 0 "/>
</clipPath>
<clipPath id="clip26">
  <path d="M 23.832031 -21.890625 L 403.113281 -21.890625 L 403.113281 161.605469 L 23.832031 161.605469 Z M 23.832031 -21.890625 L 224.929688 42.648438 C 224.929688 54.128906 215.625 63.4375 204.144531 63.4375 C 192.660156 63.4375 183.355469 54.128906 183.355469 42.648438 C 183.355469 31.167969 192.660156 21.859375 204.144531 21.859375 C 215.625 21.859375 224.929688 31.167969 224.929688 42.648438 Z M 23.832031 -21.890625 "/>
</clipPath>
<clipPath id="clip27">
  <path d="M 23.832031 -21.890625 L 403.113281 -21.890625 L 403.113281 161.605469 L 23.832031 161.605469 Z M 23.832031 -21.890625 L 243.585938 97.0625 C 243.585938 108.542969 234.28125 117.851562 222.796875 117.851562 C 211.316406 117.851562 202.011719 108.542969 202.011719 97.0625 C 202.011719 85.582031 211.316406 76.273438 222.796875 76.273438 C 234.28125 76.273438 243.585938 85.582031 243.585938 97.0625 Z M 23.832031 -21.890625 "/>
</clipPath>
<clipPath id="clip28">
  <path d="M 203 299 L 396 299 L 396 558 L 203 558 Z M 203 299 "/>
</clipPath>
<clipPath id="clip29">
  <path d="M 93.429688 266.078125 L 505.605469 266.078125 L 505.605469 590.847656 L 93.429688 590.847656 Z M 93.429688 266.078125 L 357.957031 498.992188 C 357.957031 510.476562 348.648438 519.78125 337.167969 519.78125 C 325.6875 519.78125 316.378906 510.476562 316.378906 498.992188 C 316.378906 487.511719 325.6875 478.203125 337.167969 478.203125 C 348.648438 478.203125 357.957031 487.511719 357.957031 498.992188 Z M 93.429688 266.078125 "/>
</clipPath>
<clipPath id="clip30">
  <path d="M 93.429688 266.078125 L 505.605469 266.078125 L 505.605469 590.847656 L 93.429688 590.847656 Z M 93.429688 266.078125 L 282.652344 357.929688 C 282.652344 369.410156 273.347656 378.71875 261.863281 378.71875 C 250.382812 378.71875 241.074219 369.410156 241.074219 357.929688 C 241.074219 346.449219 250.382812 337.140625 261.863281 337.140625 C 273.347656 337.140625 282.652344 346.449219 282.652344 357.929688 Z M 93.429688 266.078125 "/>
</clipPath>
<clipPath id="clip31">
  <path d="M 278 440 L 445 440 L 445 600 L 278 600 Z M 278 440 "/>
</clipPath>
<clipPath id="clip32">
  <path d="M 189.679688 375.949219 L 533.066406 375.949219 L 533.066406 680.398438 L 189.679688 680.398438 Z M 189.679688 375.949219 L 357.957031 498.992188 C 357.957031 510.476562 348.648438 519.78125 337.167969 519.78125 C 325.6875 519.78125 316.378906 510.476562 316.378906 498.992188 C 316.378906 487.511719 325.6875 478.203125 337.167969 478.203125 C 348.648438 478.203125 357.957031 487.511719 357.957031 498.992188 Z M 189.679688 375.949219 "/>
</clipPath>
<clipPath id="clip33">
  <path d="M 189.679688 375.949219 L 533.066406 375.949219 L 533.066406 680.398438 L 189.679688 680.398438 Z M 189.679688 375.949219 L 406.363281 557.351562 C 406.363281 568.832031 397.058594 578.140625 385.574219 578.140625 C 374.09375 578.140625 364.785156 568.832031 364.785156 557.351562 C 364.785156 545.871094 374.09375 536.5625 385.574219 536.5625 C 397.058594 536.5625 406.363281 545.871094 406.363281 557.351562 Z M 189.679688 375.949219 "/>
</clipPath>
<clipPath id="clip34">
  <path d="M 242.746094 299 L 358.523438 299 L 358.523438 423 L 242.746094 423 Z M 242.746094 299 "/>
</clipPath>
<clipPath id="clip35">
  <path d="M 242.746094 168.15625 L 358.523438 168.15625 L 358.523438 553.957031 L 242.746094 553.957031 Z M 242.746094 168.15625 L 282.652344 357.929688 C 282.652344 369.410156 273.347656 378.71875 261.863281 378.71875 C 250.382812 378.71875 241.074219 369.410156 241.074219 357.929688 C 241.074219 346.449219 250.382812 337.140625 261.863281 337.140625 C 273.347656 337.140625 282.652344 346.449219 282.652344 357.929688 Z M 242.746094 168.15625 "/>
</clipPath>
<clipPath id="clip36">
  <path d="M 242.746094 168.15625 L 358.523438 168.15625 L 358.523438 553.957031 L 242.746094 553.957031 Z M 242.746094 168.15625 L 360.191406 364.179688 C 360.191406 375.660156 350.882812 384.96875 339.402344 384.96875 C 327.921875 384.96875 318.613281 375.660156 318.613281 364.179688 C 318.613281 352.699219 327.921875 343.390625 339.402344 343.390625 C 350.882812 343.390625 360.191406 352.699219 360.191406 364.179688 Z M 242.746094 168.15625 "/>
</clipPath>
<clipPath id="clip37">
  <path d="M 203 229 L 412 229 L 412 417 L 203 417 Z M 203 229 "/>
</clipPath>
<clipPath id="clip38">
  <path d="M 144.101562 136.140625 L 470.652344 136.140625 L 470.652344 509.640625 L 144.101562 509.640625 Z M 144.101562 136.140625 L 282.652344 357.929688 C 282.652344 369.410156 273.347656 378.71875 261.863281 378.71875 C 250.382812 378.71875 241.074219 369.410156 241.074219 357.929688 C 241.074219 346.449219 250.382812 337.140625 261.863281 337.140625 C 273.347656 337.140625 282.652344 346.449219 282.652344 357.929688 Z M 144.101562 136.140625 "/>
</clipPath>
<clipPath id="clip39">
  <path d="M 144.101562 136.140625 L 470.652344 136.140625 L 470.652344 509.640625 L 144.101562 509.640625 Z M 144.101562 136.140625 L 373.675781 287.847656 C 373.675781 299.328125 364.367188 308.636719 352.886719 308.636719 C 341.402344 308.636719 332.097656 299.328125 332.097656 287.847656 C 332.097656 276.367188 341.402344 267.058594 352.886719 267.058594 C 364.367188 267.058594 373.675781 276.367188 373.675781 287.847656 Z M 144.101562 136.140625 "/>
</clipPath>
<clipPath id="clip40">
  <path d="M 173 209 L 321 209 L 321 417 L 173 417 Z M 173 209 "/>
</clipPath>
<clipPath id="clip41">
  <path d="M 51.265625 205.875 L 443.050781 205.875 L 443.050781 419.867188 L 51.265625 419.867188 Z M 51.265625 205.875 L 282.652344 357.929688 C 282.652344 369.410156 273.347656 378.71875 261.863281 378.71875 C 250.382812 378.71875 241.074219 369.410156 241.074219 357.929688 C 241.074219 346.449219 250.382812 337.140625 261.863281 337.140625 C 273.347656 337.140625 282.652344 346.449219 282.652344 357.929688 Z M 51.265625 205.875 "/>
</clipPath>
<clipPath id="clip42">
  <path d="M 51.265625 205.875 L 443.050781 205.875 L 443.050781 419.867188 L 51.265625 419.867188 Z M 51.265625 205.875 L 253.238281 267.808594 C 253.238281 279.289062 243.929688 288.597656 232.449219 288.597656 C 220.964844 288.597656 211.660156 279.289062 211.660156 267.808594 C 211.660156 256.328125 220.964844 247.019531 232.449219 247.019531 C 243.929688 247.019531 253.238281 256.328125 253.238281 267.808594 Z M 51.265625 205.875 "/>
</clipPath>
<clipPath id="clip43">
  <path d="M 117 299 L 321 299 L 321 480 L 117 480 Z M 117 299 "/>
</clipPath>
<clipPath id="clip44">
  <path d="M 61.652344 203.941406 L 376.601562 203.941406 L 376.601562 575.003906 L 61.652344 575.003906 Z M 61.652344 203.941406 L 282.652344 357.929688 C 282.652344 369.410156 273.347656 378.71875 261.863281 378.71875 C 250.382812 378.71875 241.074219 369.410156 241.074219 357.929688 C 241.074219 346.449219 250.382812 337.140625 261.863281 337.140625 C 273.347656 337.140625 282.652344 346.449219 282.652344 357.929688 Z M 61.652344 203.941406 "/>
</clipPath>
<clipPath id="clip45">
  <path d="M 61.652344 203.941406 L 376.601562 203.941406 L 376.601562 575.003906 L 61.652344 575.003906 Z M 61.652344 203.941406 L 197.171875 421.011719 C 197.171875 432.492188 187.867188 441.800781 176.386719 441.800781 C 164.902344 441.800781 155.597656 432.492188 155.597656 421.011719 C 155.597656 409.527344 164.902344 400.222656 176.386719 400.222656 C 187.867188 400.222656 197.171875 409.527344 197.171875 421.011719 Z M 61.652344 203.941406 "/>
</clipPath>
<clipPath id="clip46">
  <path d="M 74 299 L 321 299 L 321 462 L 74 462 Z M 74 299 "/>
</clipPath>
<clipPath id="clip47">
  <path d="M 68.207031 177.636719 L 326.460938 177.636719 L 326.460938 582.511719 L 68.207031 582.511719 Z M 68.207031 177.636719 L 282.652344 357.929688 C 282.652344 369.410156 273.347656 378.71875 261.863281 378.71875 C 250.382812 378.71875 241.074219 369.410156 241.074219 357.929688 C 241.074219 346.449219 250.382812 337.140625 261.863281 337.140625 C 273.347656 337.140625 282.652344 346.449219 282.652344 357.929688 Z M 68.207031 177.636719 "/>
</clipPath>
<clipPath id="clip48">
  <path d="M 68.207031 177.636719 L 326.460938 177.636719 L 326.460938 582.511719 L 68.207031 582.511719 Z M 68.207031 177.636719 L 153.589844 402.214844 C 153.589844 413.699219 144.28125 423.003906 132.800781 423.003906 C 121.316406 423.003906 112.011719 413.699219 112.011719 402.214844 C 112.011719 390.734375 121.316406 381.425781 132.800781 381.425781 C 144.28125 381.425781 153.589844 390.734375 153.589844 402.214844 Z M 68.207031 177.636719 "/>
</clipPath>
<clipPath id="clip49">
  <path d="M 280 251.296875 L 412 251.296875 L 412 400.734375 L 280 400.734375 Z M 280 251.296875 "/>
</clipPath>
<clipPath id="clip50">
  <path d="M 151.867188 251.296875 L 540.425781 251.296875 L 540.425781 400.734375 L 151.867188 400.734375 Z M 151.867188 251.296875 L 360.191406 364.179688 C 360.191406 375.660156 350.882812 384.96875 339.402344 384.96875 C 327.921875 384.96875 318.613281 375.660156 318.613281 364.179688 C 318.613281 352.699219 327.921875 343.390625 339.402344 343.390625 C 350.882812 343.390625 360.191406 352.699219 360.191406 364.179688 Z M 151.867188 251.296875 "/>
</clipPath>
<clipPath id="clip51">
  <path d="M 151.867188 251.296875 L 540.425781 251.296875 L 540.425781 400.734375 L 151.867188 400.734375 Z M 151.867188 251.296875 L 373.675781 287.847656 C 373.675781 299.328125 364.367188 308.636719 352.886719 308.636719 C 341.402344 308.636719 332.097656 299.328125 332.097656 287.847656 C 332.097656 276.367188 341.402344 267.058594 352.886719 267.058594 C 364.367188 267.058594 373.675781 276.367188 373.675781 287.847656 Z M 151.867188 251.296875 "/>
</clipPath>
<clipPath id="clip52">
  <path d="M 294 158 L 518 158 L 518 347 L 294 347 Z M 294 158 "/>
</clipPath>
<clipPath id="clip53">
  <path d="M 245.046875 58.070312 L 566.5625 58.070312 L 566.5625 446.691406 L 245.046875 446.691406 Z M 245.046875 58.070312 L 373.675781 287.847656 C 373.675781 299.328125 364.367188 308.636719 352.886719 308.636719 C 341.402344 308.636719 332.097656 299.328125 332.097656 287.847656 C 332.097656 276.367188 341.402344 267.058594 352.886719 267.058594 C 364.367188 267.058594 373.675781 276.367188 373.675781 287.847656 Z M 245.046875 58.070312 "/>
</clipPath>
<clipPath id="clip54">
  <path d="M 245.046875 58.070312 L 566.5625 58.070312 L 566.5625 446.691406 L 245.046875 446.691406 Z M 245.046875 58.070312 L 479.507812 216.910156 C 479.507812 228.394531 470.199219 237.699219 458.71875 237.699219 C 447.234375 237.699219 437.929688 228.394531 437.929688 216.910156 C 437.929688 205.429688 447.234375 196.125 458.71875 196.125 C 470.199219 196.125 479.507812 205.429688 479.507812 216.910156 Z M 245.046875 58.070312 "/>
</clipPath>
<clipPath id="clip55">
  <path d="M 399 104 L 584 104 L 584 276 L 399 276 Z M 399 104 "/>
</clipPath>
<clipPath id="clip56">
  <path d="M 336.429688 14.769531 L 646.855469 14.769531 L 646.855469 365.019531 L 336.429688 365.019531 Z M 336.429688 14.769531 L 479.507812 216.910156 C 479.507812 228.394531 470.199219 237.699219 458.71875 237.699219 C 447.234375 237.699219 437.929688 228.394531 437.929688 216.910156 C 437.929688 205.429688 447.234375 196.125 458.71875 196.125 C 470.199219 196.125 479.507812 205.429688 479.507812 216.910156 Z M 336.429688 14.769531 "/>
</clipPath>
<clipPath id="clip57">
  <path d="M 336.429688 14.769531 L 646.855469 14.769531 L 646.855469 365.019531 L 336.429688 365.019531 Z M 336.429688 14.769531 L 545.351562 162.875 C 545.351562 174.355469 536.042969 183.660156 524.5625 183.660156 C 513.082031 183.660156 503.773438 174.355469 503.773438 162.875 C 503.773438 151.390625 513.082031 142.085938 524.5625 142.085938 C 536.042969 142.085938 545.351562 151.390625 545.351562 162.875 Z M 336.429688 14.769531 "/>
</clipPath>
<clipPath id="clip58">
  <path d="M 422.109375 143 L 575.875 143 L 575.875 276 L 422.109375 276 Z M 422.109375 143 "/>
</clipPath>
<clipPath id="clip59">
  <path d="M 422.109375 15.128906 L 575.875 15.128906 L 575.875 404.441406 L 422.109375 404.441406 Z M 422.109375 15.128906 L 479.507812 216.910156 C 479.507812 228.394531 470.199219 237.699219 458.71875 237.699219 C 447.234375 237.699219 437.929688 228.394531 437.929688 216.910156 C 437.929688 205.429688 447.234375 196.125 458.71875 196.125 C 470.199219 196.125 479.507812 205.429688 479.507812 216.910156 Z M 422.109375 15.128906 "/>
</clipPath>
<clipPath id="clip60">
  <path d="M 422.109375 15.128906 L 575.875 15.128906 L 575.875 404.441406 L 422.109375 404.441406 Z M 422.109375 15.128906 L 560.050781 202.65625 C 560.050781 214.136719 550.746094 223.445312 539.261719 223.445312 C 527.78125 223.445312 518.472656 214.136719 518.472656 202.65625 C 518.472656 191.175781 527.78125 181.867188 539.261719 181.867188 C 550.746094 181.867188 560.050781 191.175781 560.050781 202.65625 Z M 422.109375 15.128906 "/>
</clipPath>
<clipPath id="clip61">
  <path d="M 401.429688 158 L 600 158 L 600 303 L 401.429688 303 Z M 401.429688 158 "/>
</clipPath>
<clipPath id="clip62">
  <path d="M 401.429688 34.277344 L 605.527344 34.277344 L 605.527344 426.195312 L 401.429688 426.195312 Z M 401.429688 34.277344 L 479.507812 216.910156 C 479.507812 228.394531 470.199219 237.699219 458.71875 237.699219 C 447.234375 237.699219 437.929688 228.394531 437.929688 216.910156 C 437.929688 205.429688 447.234375 196.125 458.71875 196.125 C 470.199219 196.125 479.507812 205.429688 479.507812 216.910156 Z M 401.429688 34.277344 "/>
</clipPath>
<clipPath id="clip63">
  <path d="M 401.429688 34.277344 L 605.527344 34.277344 L 605.527344 426.195312 L 401.429688 426.195312 Z M 401.429688 34.277344 L 569.023438 243.558594 C 569.023438 255.039062 559.714844 264.347656 548.234375 264.347656 C 536.753906 264.347656 527.445312 255.039062 527.445312 243.558594 C 527.445312 232.074219 536.753906 222.769531 548.234375 222.769531 C 559.714844 222.769531 569.023438 232.074219 569.023438 243.558594 Z M 401.429688 34.277344 "/>
</clipPath>
<clipPath id="clip64">
  <path d="M 465 104 L 599 104 L 599 262 L 465 262 Z M 465 104 "/>
</clipPath>
<clipPath id="clip65">
  <path d="M 345.730469 94.175781 L 718.097656 94.175781 L 718.097656 271.359375 L 345.730469 271.359375 Z M 345.730469 94.175781 L 545.351562 162.875 C 545.351562 174.355469 536.042969 183.660156 524.5625 183.660156 C 513.082031 183.660156 503.773438 174.355469 503.773438 162.875 C 503.773438 151.390625 513.082031 142.085938 524.5625 142.085938 C 536.042969 142.085938 545.351562 151.390625 545.351562 162.875 Z M 345.730469 94.175781 "/>
</clipPath>
<clipPath id="clip66">
  <path d="M 345.730469 94.175781 L 718.097656 94.175781 L 718.097656 271.359375 L 345.730469 271.359375 Z M 345.730469 94.175781 L 560.050781 202.65625 C 560.050781 214.136719 550.746094 223.445312 539.261719 223.445312 C 527.78125 223.445312 518.472656 214.136719 518.472656 202.65625 C 518.472656 191.175781 527.78125 181.867188 539.261719 181.867188 C 550.746094 181.867188 560.050781 191.175781 560.050781 202.65625 Z M 345.730469 94.175781 "/>
</clipPath>
<clipPath id="clip67">
  <path d="M 480 158.597656 L 600 158.597656 L 600 287.621094 L 480 287.621094 Z M 480 158.597656 "/>
</clipPath>
<clipPath id="clip68">
  <path d="M 353.210938 158.597656 L 734.289062 158.597656 L 734.289062 287.621094 L 353.210938 287.621094 Z M 353.210938 158.597656 L 560.050781 202.65625 C 560.050781 214.136719 550.746094 223.445312 539.261719 223.445312 C 527.78125 223.445312 518.472656 214.136719 518.472656 202.65625 C 518.472656 191.175781 527.78125 181.867188 539.261719 181.867188 C 550.746094 181.867188 560.050781 191.175781 560.050781 202.65625 Z M 353.210938 158.597656 "/>
</clipPath>
<clipPath id="clip69">
  <path d="M 353.210938 158.597656 L 734.289062 158.597656 L 734.289062 287.621094 L 353.210938 287.621094 Z M 353.210938 158.597656 L 569.023438 243.558594 C 569.023438 255.039062 559.714844 264.347656 548.234375 264.347656 C 536.753906 264.347656 527.445312 255.039062 527.445312 243.558594 C 527.445312 232.074219 536.753906 222.769531 548.234375 222.769531 C 559.714844 222.769531 569.023438 232.074219 569.023438 243.558594 Z M 353.210938 158.597656 "/>
</clipPath>
<clipPath id="clip70">
  <path d="M 74 343 L 236 343 L 236 480 L 74 480 Z M 74 343 "/>
</clipPath>
<clipPath id="clip71">
  <path d="M 54.902344 227.0625 L 254.289062 227.0625 L 254.289062 596.167969 L 54.902344 596.167969 Z M 54.902344 227.0625 L 197.171875 421.011719 C 197.171875 432.492188 187.867188 441.800781 176.386719 441.800781 C 164.902344 441.800781 155.597656 432.492188 155.597656 421.011719 C 155.597656 409.527344 164.902344 400.222656 176.386719 400.222656 C 187.867188 400.222656 197.171875 409.527344 197.171875 421.011719 Z M 54.902344 227.0625 "/>
</clipPath>
<clipPath id="clip72">
  <path d="M 54.902344 227.0625 L 254.289062 227.0625 L 254.289062 596.167969 L 54.902344 596.167969 Z M 54.902344 227.0625 L 153.589844 402.214844 C 153.589844 413.699219 144.28125 423.003906 132.800781 423.003906 C 121.316406 423.003906 112.011719 413.699219 112.011719 402.214844 C 112.011719 390.734375 121.316406 381.425781 132.800781 381.425781 C 144.28125 381.425781 153.589844 390.734375 153.589844 402.214844 Z M 54.902344 227.0625 "/>
</clipPath>
<clipPath id="clip73">
  <path d="M 42.054688 340 L 142.515625 340 L 142.515625 462 L 42.054688 462 Z M 42.054688 340 "/>
</clipPath>
<clipPath id="clip74">
  <path d="M 42.054688 209.503906 L 142.515625 209.503906 L 142.515625 592.511719 L 42.054688 592.511719 Z M 42.054688 209.503906 L 153.589844 402.214844 C 153.589844 413.699219 144.28125 423.003906 132.800781 423.003906 C 121.316406 423.003906 112.011719 413.699219 112.011719 402.214844 C 112.011719 390.734375 121.316406 381.425781 132.800781 381.425781 C 144.28125 381.425781 153.589844 390.734375 153.589844 402.214844 Z M 42.054688 209.503906 "/>
</clipPath>
<clipPath id="clip75">
  <path d="M 42.054688 209.503906 L 142.515625 209.503906 L 142.515625 592.511719 L 42.054688 592.511719 Z M 42.054688 209.503906 L 72.554688 399.796875 C 72.554688 411.277344 63.246094 420.585938 51.765625 420.585938 C 40.285156 420.585938 30.976562 411.277344 30.976562 399.796875 C 30.976562 388.316406 40.285156 379.007812 51.765625 379.007812 C 63.246094 379.007812 72.554688 388.316406 72.554688 399.796875 Z M 42.054688 209.503906 "/>
</clipPath>
</defs>
<g id="surface446">
<g clip-path="url(#clip1)" clip-rule="nonzero">
<g clip-path="url(#clip2)" clip-rule="evenodd">
<g clip-path="url(#clip3)" clip-rule="evenodd">
<path style="fill:none;stroke-width:0.0223273;stroke-linecap:butt;stroke-linejoin:miter;stroke:rgb(17.96875%,20.3125%,21.09375%);stroke-opacity:0.8;stroke-miterlimit:10;" d="M 1.945546 1.888183 L 1.680862 1.23971 " transform="matrix(186.218657,0,0,186.218657,-68.195339,-144.35714)"/>
</g>
</g>
</g>
<g clip-path="url(#clip4)" clip-rule="nonzero">
<g clip-path="url(#clip5)" clip-rule="evenodd">
<g clip-path="url(#clip6)" clip-rule="evenodd">
<path style="fill:none;stroke-width:0.0223273;stroke-linecap:butt;stroke-linejoin:miter;stroke:rgb(17.96875%,20.3125%,21.09375%);stroke-opacity:0.8;stroke-miterlimit:10;" d="M 1.945546 1.888183 L 1.562637 1.296431 " transform="matrix(186.218657,0,0,186.218657,-68.195339,-144.35714)"/>
</g>
</g>
</g>
<g clip-path="url(#clip7)" clip-rule="nonzero">
<g clip-path="url(#clip8)" clip-rule="evenodd">
<g clip-path="url(#clip9)" clip-rule="evenodd">
<path style="fill:none;stroke-width:0.0223273;stroke-linecap:butt;stroke-linejoin:miter;stroke:rgb(17.96875%,20.3125%,21.09375%);stroke-opacity:0.8;stroke-miterlimit:10;" d="M 1.945546 1.888183 L 1.772425 2.697296 " transform="matrix(186.218657,0,0,186.218657,-68.195339,-144.35714)"/>
</g>
</g>
</g>
<g clip-path="url(#clip10)" clip-rule="nonzero">
<g clip-path="url(#clip11)" clip-rule="evenodd">
<g clip-path="url(#clip12)" clip-rule="evenodd">
<path style="fill:none;stroke-width:0.0223273;stroke-linecap:butt;stroke-linejoin:miter;stroke:rgb(17.96875%,20.3125%,21.09375%);stroke-opacity:0.8;stroke-miterlimit:10;" d="M 1.945546 1.888183 L 2.261224 2.320953 " transform="matrix(186.218657,0,0,186.218657,-68.195339,-144.35714)"/>
</g>
</g>
</g>
<g clip-path="url(#clip13)" clip-rule="nonzero">
<g clip-path="url(#clip14)" clip-rule="evenodd">
<g clip-path="url(#clip15)" clip-rule="evenodd">
<path style="fill:none;stroke-width:0.0223273;stroke-linecap:butt;stroke-linejoin:miter;stroke:rgb(17.96875%,20.3125%,21.09375%);stroke-opacity:0.8;stroke-miterlimit:10;" d="M 1.945546 1.888183 L 1.614471 2.213343 " transform="matrix(186.218657,0,0,186.218657,-68.195339,-144.35714)"/>
</g>
</g>
</g>
<g clip-path="url(#clip16)" clip-rule="nonzero">
<g clip-path="url(#clip17)" clip-rule="evenodd">
<g clip-path="url(#clip18)" clip-rule="evenodd">
<path style="fill:none;stroke-width:0.0223273;stroke-linecap:butt;stroke-linejoin:miter;stroke:rgb(17.96875%,20.3125%,21.09375%);stroke-opacity:0.8;stroke-miterlimit:10;" d="M 1.945546 1.888183 L 2.829545 1.940017 " transform="matrix(186.218657,0,0,186.218657,-68.195339,-144.35714)"/>
</g>
</g>
</g>
<g clip-path="url(#clip19)" clip-rule="nonzero">
<g clip-path="url(#clip20)" clip-rule="evenodd">
<g clip-path="url(#clip21)" clip-rule="evenodd">
<path style="fill:none;stroke-width:0.0223273;stroke-linecap:butt;stroke-linejoin:miter;stroke:rgb(17.96875%,20.3125%,21.09375%);stroke-opacity:0.8;stroke-miterlimit:10;" d="M 1.680862 1.23971 L 1.462474 1.004226 " transform="matrix(186.218657,0,0,186.218657,-68.195339,-144.35714)"/>
</g>
</g>
</g>
<g clip-path="url(#clip22)" clip-rule="nonzero">
<g clip-path="url(#clip23)" clip-rule="evenodd">
<g clip-path="url(#clip24)" clip-rule="evenodd">
<path style="fill:none;stroke-width:0.0223273;stroke-linecap:butt;stroke-linejoin:miter;stroke:rgb(17.96875%,20.3125%,21.09375%);stroke-opacity:0.8;stroke-miterlimit:10;" d="M 1.680862 1.23971 L 1.562637 1.296431 " transform="matrix(186.218657,0,0,186.218657,-68.195339,-144.35714)"/>
</g>
</g>
</g>
<g clip-path="url(#clip25)" clip-rule="nonzero">
<g clip-path="url(#clip26)" clip-rule="evenodd">
<g clip-path="url(#clip27)" clip-rule="evenodd">
<path style="fill:none;stroke-width:0.0223273;stroke-linecap:butt;stroke-linejoin:miter;stroke:rgb(17.96875%,20.3125%,21.09375%);stroke-opacity:0.8;stroke-miterlimit:10;" d="M 1.462474 1.004226 L 1.562637 1.296431 " transform="matrix(186.218657,0,0,186.218657,-68.195339,-144.35714)"/>
</g>
</g>
</g>
<g clip-path="url(#clip28)" clip-rule="nonzero">
<g clip-path="url(#clip29)" clip-rule="evenodd">
<g clip-path="url(#clip30)" clip-rule="evenodd">
<path style="fill:none;stroke-width:0.0223273;stroke-linecap:butt;stroke-linejoin:miter;stroke:rgb(17.96875%,20.3125%,21.09375%);stroke-opacity:0.8;stroke-miterlimit:10;" d="M 2.176814 3.454806 L 1.772425 2.697296 " transform="matrix(186.218657,0,0,186.218657,-68.195339,-144.35714)"/>
</g>
</g>
</g>
<g clip-path="url(#clip31)" clip-rule="nonzero">
<g clip-path="url(#clip32)" clip-rule="evenodd">
<g clip-path="url(#clip33)" clip-rule="evenodd">
<path style="fill:none;stroke-width:0.0223273;stroke-linecap:butt;stroke-linejoin:miter;stroke:rgb(17.96875%,20.3125%,21.09375%);stroke-opacity:0.8;stroke-miterlimit:10;" d="M 2.176814 3.454806 L 2.436757 3.768198 " transform="matrix(186.218657,0,0,186.218657,-68.195339,-144.35714)"/>
</g>
</g>
</g>
<g clip-path="url(#clip34)" clip-rule="nonzero">
<g clip-path="url(#clip35)" clip-rule="evenodd">
<g clip-path="url(#clip36)" clip-rule="evenodd">
<path style="fill:none;stroke-width:0.0223273;stroke-linecap:butt;stroke-linejoin:miter;stroke:rgb(17.96875%,20.3125%,21.09375%);stroke-opacity:0.8;stroke-miterlimit:10;" d="M 1.772425 2.697296 L 2.188812 2.730859 " transform="matrix(186.218657,0,0,186.218657,-68.195339,-144.35714)"/>
</g>
</g>
</g>
<g clip-path="url(#clip37)" clip-rule="nonzero">
<g clip-path="url(#clip38)" clip-rule="evenodd">
<g clip-path="url(#clip39)" clip-rule="evenodd">
<path style="fill:none;stroke-width:0.0223273;stroke-linecap:butt;stroke-linejoin:miter;stroke:rgb(17.96875%,20.3125%,21.09375%);stroke-opacity:0.8;stroke-miterlimit:10;" d="M 1.772425 2.697296 L 2.261224 2.320953 " transform="matrix(186.218657,0,0,186.218657,-68.195339,-144.35714)"/>
</g>
</g>
</g>
<g clip-path="url(#clip40)" clip-rule="nonzero">
<g clip-path="url(#clip41)" clip-rule="evenodd">
<g clip-path="url(#clip42)" clip-rule="evenodd">
<path style="fill:none;stroke-width:0.0223273;stroke-linecap:butt;stroke-linejoin:miter;stroke:rgb(17.96875%,20.3125%,21.09375%);stroke-opacity:0.8;stroke-miterlimit:10;" d="M 1.772425 2.697296 L 1.614471 2.213343 " transform="matrix(186.218657,0,0,186.218657,-68.195339,-144.35714)"/>
</g>
</g>
</g>
<g clip-path="url(#clip43)" clip-rule="nonzero">
<g clip-path="url(#clip44)" clip-rule="evenodd">
<g clip-path="url(#clip45)" clip-rule="evenodd">
<path style="fill:none;stroke-width:0.0223273;stroke-linecap:butt;stroke-linejoin:miter;stroke:rgb(17.96875%,20.3125%,21.09375%);stroke-opacity:0.8;stroke-miterlimit:10;" d="M 1.772425 2.697296 L 1.313413 3.036048 " transform="matrix(186.218657,0,0,186.218657,-68.195339,-144.35714)"/>
</g>
</g>
</g>
<g clip-path="url(#clip46)" clip-rule="nonzero">
<g clip-path="url(#clip47)" clip-rule="evenodd">
<g clip-path="url(#clip48)" clip-rule="evenodd">
<path style="fill:none;stroke-width:0.0223273;stroke-linecap:butt;stroke-linejoin:miter;stroke:rgb(17.96875%,20.3125%,21.09375%);stroke-opacity:0.8;stroke-miterlimit:10;" d="M 1.772425 2.697296 L 1.079355 2.935109 " transform="matrix(186.218657,0,0,186.218657,-68.195339,-144.35714)"/>
</g>
</g>
</g>
<g clip-path="url(#clip49)" clip-rule="nonzero">
<g clip-path="url(#clip50)" clip-rule="evenodd">
<g clip-path="url(#clip51)" clip-rule="evenodd">
<path style="fill:none;stroke-width:0.0223273;stroke-linecap:butt;stroke-linejoin:miter;stroke:rgb(17.96875%,20.3125%,21.09375%);stroke-opacity:0.8;stroke-miterlimit:10;" d="M 2.188812 2.730859 L 2.261224 2.320953 " transform="matrix(186.218657,0,0,186.218657,-68.195339,-144.35714)"/>
</g>
</g>
</g>
<g clip-path="url(#clip52)" clip-rule="nonzero">
<g clip-path="url(#clip53)" clip-rule="evenodd">
<g clip-path="url(#clip54)" clip-rule="evenodd">
<path style="fill:none;stroke-width:0.0223273;stroke-linecap:butt;stroke-linejoin:miter;stroke:rgb(17.96875%,20.3125%,21.09375%);stroke-opacity:0.8;stroke-miterlimit:10;" d="M 2.261224 2.320953 L 2.829545 1.940017 " transform="matrix(186.218657,0,0,186.218657,-68.195339,-144.35714)"/>
</g>
</g>
</g>
<g clip-path="url(#clip55)" clip-rule="nonzero">
<g clip-path="url(#clip56)" clip-rule="evenodd">
<g clip-path="url(#clip57)" clip-rule="evenodd">
<path style="fill:none;stroke-width:0.0223273;stroke-linecap:butt;stroke-linejoin:miter;stroke:rgb(17.96875%,20.3125%,21.09375%);stroke-opacity:0.8;stroke-miterlimit:10;" d="M 2.829545 1.940017 L 3.183128 1.649846 " transform="matrix(186.218657,0,0,186.218657,-68.195339,-144.35714)"/>
</g>
</g>
</g>
<g clip-path="url(#clip58)" clip-rule="nonzero">
<g clip-path="url(#clip59)" clip-rule="evenodd">
<g clip-path="url(#clip60)" clip-rule="evenodd">
<path style="fill:none;stroke-width:0.0223273;stroke-linecap:butt;stroke-linejoin:miter;stroke:rgb(17.96875%,20.3125%,21.09375%);stroke-opacity:0.8;stroke-miterlimit:10;" d="M 2.829545 1.940017 L 3.262063 1.863473 " transform="matrix(186.218657,0,0,186.218657,-68.195339,-144.35714)"/>
</g>
</g>
</g>
<g clip-path="url(#clip61)" clip-rule="nonzero">
<g clip-path="url(#clip62)" clip-rule="evenodd">
<g clip-path="url(#clip63)" clip-rule="evenodd">
<path style="fill:none;stroke-width:0.0223273;stroke-linecap:butt;stroke-linejoin:miter;stroke:rgb(17.96875%,20.3125%,21.09375%);stroke-opacity:0.8;stroke-miterlimit:10;" d="M 2.829545 1.940017 L 3.310247 2.08312 " transform="matrix(186.218657,0,0,186.218657,-68.195339,-144.35714)"/>
</g>
</g>
</g>
<g clip-path="url(#clip64)" clip-rule="nonzero">
<g clip-path="url(#clip65)" clip-rule="evenodd">
<g clip-path="url(#clip66)" clip-rule="evenodd">
<path style="fill:none;stroke-width:0.0223273;stroke-linecap:butt;stroke-linejoin:miter;stroke:rgb(17.96875%,20.3125%,21.09375%);stroke-opacity:0.8;stroke-miterlimit:10;" d="M 3.183128 1.649846 L 3.262063 1.863473 " transform="matrix(186.218657,0,0,186.218657,-68.195339,-144.35714)"/>
</g>
</g>
</g>
<g clip-path="url(#clip67)" clip-rule="nonzero">
<g clip-path="url(#clip68)" clip-rule="evenodd">
<g clip-path="url(#clip69)" clip-rule="evenodd">
<path style="fill:none;stroke-width:0.0223273;stroke-linecap:butt;stroke-linejoin:miter;stroke:rgb(17.96875%,20.3125%,21.09375%);stroke-opacity:0.8;stroke-miterlimit:10;" d="M 3.262063 1.863473 L 3.310247 2.08312 " transform="matrix(186.218657,0,0,186.218657,-68.195339,-144.35714)"/>
</g>
</g>
</g>
<g clip-path="url(#clip70)" clip-rule="nonzero">
<g clip-path="url(#clip71)" clip-rule="evenodd">
<g clip-path="url(#clip72)" clip-rule="evenodd">
<path style="fill:none;stroke-width:0.0223273;stroke-linecap:butt;stroke-linejoin:miter;stroke:rgb(17.96875%,20.3125%,21.09375%);stroke-opacity:0.8;stroke-miterlimit:10;" d="M 1.313413 3.036048 L 1.079355 2.935109 " transform="matrix(186.218657,0,0,186.218657,-68.195339,-144.35714)"/>
</g>
</g>
</g>
<g clip-path="url(#clip73)" clip-rule="nonzero">
<g clip-path="url(#clip74)" clip-rule="evenodd">
<g clip-path="url(#clip75)" clip-rule="evenodd">
<path style="fill:none;stroke-width:0.0223273;stroke-linecap:butt;stroke-linejoin:miter;stroke:rgb(17.96875%,20.3125%,21.09375%);stroke-opacity:0.8;stroke-miterlimit:10;" d="M 1.079355 2.935109 L 0.644194 2.922124 " transform="matrix(186.218657,0,0,186.218657,-68.195339,-144.35714)"/>
</g>
</g>
</g>
<path style="fill-rule:nonzero;fill:rgb(100%,92.941176%,43.529412%);fill-opacity:1;stroke-width:0.0223273;stroke-linecap:butt;stroke-linejoin:miter;stroke:rgb(60%,60%,60%);stroke-opacity:0.8;stroke-miterlimit:10;" d="M 0.111639 -0.00000445179 C 0.111639 0.061646 0.0616511 0.111633 0.000000589244 0.111633 C -0.0616499 0.111633 -0.111637 0.061646 -0.111637 -0.00000445179 C -0.111637 -0.0616549 -0.0616499 -0.111642 0.000000589244 -0.111642 C 0.0616511 -0.111642 0.111639 -0.0616549 0.111639 -0.00000445179 Z M 0.111639 -0.00000445179 " transform="matrix(186.218657,0,0,186.218657,294.101453,207.258642)"/>
<path style="fill-rule:nonzero;fill:rgb(100%,92.941176%,43.529412%);fill-opacity:1;stroke-width:0.0223273;stroke-linecap:butt;stroke-linejoin:miter;stroke:rgb(60%,60%,60%);stroke-opacity:0.8;stroke-miterlimit:10;" d="M 0.11163 -0.00000302337 C 0.11163 0.0616475 0.0616632 0.111635 -0.0000082454 0.111635 C -0.0616587 0.111635 -0.111646 0.0616475 -0.111646 -0.00000302337 C -0.111646 -0.0616535 -0.0616587 -0.111641 -0.0000082454 -0.111641 C 0.0616632 -0.111641 0.11163 -0.0616535 0.11163 -0.00000302337 Z M 0.11163 -0.00000302337 " transform="matrix(186.218657,0,0,186.218657,244.814035,86.500563)"/>
<path style="fill-rule:nonzero;fill:rgb(100%,92.941176%,43.529412%);fill-opacity:1;stroke-width:0.0223273;stroke-linecap:butt;stroke-linejoin:miter;stroke:rgb(60%,60%,60%);stroke-opacity:0.8;stroke-miterlimit:10;" d="M 0.111627 -0.00000334958 C 0.111627 0.0616471 0.0616609 0.111635 0.000010447 0.111635 C -0.061661 0.111635 -0.111627 0.0616471 -0.111627 -0.00000334958 C -0.111627 -0.0616538 -0.061661 -0.111641 0.000010447 -0.111641 C 0.0616609 -0.111641 0.111627 -0.0616538 0.111627 -0.00000334958 Z M 0.111627 -0.00000334958 " transform="matrix(186.218657,0,0,186.218657,204.142586,42.649061)"/>
<path style="fill-rule:nonzero;fill:rgb(100%,92.941176%,43.529412%);fill-opacity:1;stroke-width:0.0223273;stroke-linecap:butt;stroke-linejoin:miter;stroke:rgb(60%,60%,60%);stroke-opacity:0.8;stroke-miterlimit:10;" d="M 0.111628 -0.00000441225 C 0.111628 0.0616461 0.0616614 0.111634 -0.0000101 0.111634 C -0.0616606 0.111634 -0.111627 0.0616461 -0.111627 -0.00000441225 C -0.111627 -0.0616549 -0.0616606 -0.111642 -0.0000101 -0.111642 C 0.0616614 -0.111642 0.111628 -0.0616549 0.111628 -0.00000441225 Z M 0.111628 -0.00000441225 " transform="matrix(186.218657,0,0,186.218657,222.798756,97.063322)"/>
<path style="fill-rule:nonzero;fill:rgb(100%,92.941176%,43.529412%);fill-opacity:1;stroke-width:0.0223273;stroke-linecap:butt;stroke-linejoin:miter;stroke:rgb(60%,60%,60%);stroke-opacity:0.8;stroke-miterlimit:10;" d="M 0.111639 -0.00000645701 C 0.111639 0.061665 0.0616512 0.111631 0.000000696594 0.111631 C -0.0616498 0.111631 -0.111637 0.061665 -0.111637 -0.00000645701 C -0.111637 -0.0616569 -0.0616498 -0.111644 0.000000696594 -0.111644 C 0.0616512 -0.111644 0.111639 -0.0616569 0.111639 -0.00000645701 Z M 0.111639 -0.00000645701 " transform="matrix(186.218657,0,0,186.218657,337.167839,498.99339)"/>
<path style="fill-rule:nonzero;fill:rgb(100%,92.941176%,43.529412%);fill-opacity:1;stroke-width:0.0223273;stroke-linecap:butt;stroke-linejoin:miter;stroke:rgb(60%,60%,60%);stroke-opacity:0.8;stroke-miterlimit:10;" d="M 0.111629 -0.00000591572 C 0.111629 0.0616446 0.0616629 0.111632 -0.00000855615 0.111632 C -0.061659 0.111632 -0.111646 0.0616446 -0.111646 -0.00000591572 C -0.111646 -0.0616564 -0.061659 -0.111644 -0.00000855615 -0.111644 C 0.0616629 -0.111644 0.111629 -0.0616564 0.111629 -0.00000591572 Z M 0.111629 -0.00000591572 " transform="matrix(186.218657,0,0,186.218657,261.864875,357.930789)"/>
<path style="fill-rule:nonzero;fill:rgb(100%,92.941176%,43.529412%);fill-opacity:1;stroke-width:0.0223273;stroke-linecap:butt;stroke-linejoin:miter;stroke:rgb(60%,60%,60%);stroke-opacity:0.8;stroke-miterlimit:10;" d="M 0.11163 0.00000334958 C 0.11163 0.0616538 0.0616639 0.111641 -0.00000757035 0.111641 C -0.061658 0.111641 -0.111645 0.0616538 -0.111645 0.00000334958 C -0.111645 -0.0616471 -0.061658 -0.111635 -0.00000757035 -0.111635 C 0.0616639 -0.111635 0.11163 -0.0616471 0.11163 0.00000334958 Z M 0.11163 0.00000334958 " transform="matrix(186.218657,0,0,186.218657,385.575628,557.350939)"/>
<path style="fill-rule:nonzero;fill:rgb(100%,92.941176%,43.529412%);fill-opacity:1;stroke-width:0.0223273;stroke-linecap:butt;stroke-linejoin:miter;stroke:rgb(60%,60%,60%);stroke-opacity:0.8;stroke-miterlimit:10;" d="M 0.111643 0.00000498467 C 0.111643 0.0616555 0.0616553 0.111643 0.00000483194 0.111643 C -0.0616456 0.111643 -0.111633 0.0616555 -0.111633 0.00000498467 C -0.111633 -0.0616455 -0.0616456 -0.111633 0.00000483194 -0.111633 C 0.0616553 -0.111633 0.111643 -0.0616455 0.111643 0.00000498467 Z M 0.111643 0.00000498467 " transform="matrix(186.218657,0,0,186.218657,339.401444,364.178759)"/>
<path style="fill-rule:nonzero;fill:rgb(100%,92.941176%,43.529412%);fill-opacity:1;stroke-width:0.0223273;stroke-linecap:butt;stroke-linejoin:miter;stroke:rgb(60%,60%,60%);stroke-opacity:0.8;stroke-miterlimit:10;" d="M 0.111645 0.00000381678 C 0.111645 0.0616543 0.0616578 0.111642 0.00000736388 0.111642 C -0.0616641 0.111642 -0.111631 0.0616543 -0.111631 0.00000381678 C -0.111631 -0.0616467 -0.0616641 -0.111634 0.00000736388 -0.111634 C 0.0616578 -0.111634 0.111645 -0.0616467 0.111645 0.00000381678 Z M 0.111645 0.00000381678 " transform="matrix(186.218657,0,0,186.218657,352.885347,287.846945)"/>
<path style="fill-rule:nonzero;fill:rgb(100%,92.941176%,43.529412%);fill-opacity:1;stroke-width:0.0223273;stroke-linecap:butt;stroke-linejoin:miter;stroke:rgb(60%,60%,60%);stroke-opacity:0.8;stroke-miterlimit:10;" d="M 0.111644 -0.00000563222 C 0.111644 0.0616448 0.0616568 0.111632 0.00000632994 0.111632 C -0.0616651 0.111632 -0.111632 0.0616448 -0.111632 -0.00000563222 C -0.111632 -0.0616561 -0.0616651 -0.111644 0.00000632994 -0.111644 C 0.0616568 -0.111644 0.111644 -0.0616561 0.111644 -0.00000563222 Z M 0.111644 -0.00000563222 " transform="matrix(186.218657,0,0,186.218657,232.44804,267.809643)"/>
<path style="fill-rule:nonzero;fill:rgb(55.294118%,82.745098%,78.039216%);fill-opacity:1;stroke-width:0.0223273;stroke-linecap:butt;stroke-linejoin:miter;stroke:rgb(60%,60%,60%);stroke-opacity:0.8;stroke-miterlimit:10;" d="M 0.111646 -0.00000989412 C 0.111646 0.0616616 0.0616583 0.111628 0.00000778465 0.111628 C -0.0616637 0.111628 -0.11163 0.0616616 -0.11163 -0.00000989412 C -0.11163 -0.0616604 -0.0616637 -0.111627 0.00000778465 -0.111627 C 0.0616583 -0.111627 0.111646 -0.0616604 0.111646 -0.00000989412 Z M 0.111646 -0.00000989412 " transform="matrix(186.218657,0,0,186.218657,458.7173,216.911999)"/>
<path style="fill-rule:nonzero;fill:rgb(55.294118%,82.745098%,78.039216%);fill-opacity:1;stroke-width:0.0223273;stroke-linecap:butt;stroke-linejoin:miter;stroke:rgb(60%,60%,60%);stroke-opacity:0.8;stroke-miterlimit:10;" d="M 0.111634 0.00000968872 C 0.111634 0.0616602 0.0616469 0.111627 -0.0000035708 0.111627 C -0.061654 0.111627 -0.111641 0.0616602 -0.111641 0.00000968872 C -0.111641 -0.0616618 -0.061654 -0.111628 -0.0000035708 -0.111628 C 0.0616469 -0.111628 0.111634 -0.0616618 0.111634 0.00000968872 Z M 0.111634 0.00000968872 " transform="matrix(186.218657,0,0,186.218657,524.563165,162.873196)"/>
<path style="fill-rule:nonzero;fill:rgb(55.294118%,82.745098%,78.039216%);fill-opacity:1;stroke-width:0.0223273;stroke-linecap:butt;stroke-linejoin:miter;stroke:rgb(60%,60%,60%);stroke-opacity:0.8;stroke-miterlimit:10;" d="M 0.111632 0.00000151849 C 0.111632 0.061652 0.0616653 0.111639 -0.00000613589 0.111639 C -0.0616566 0.111639 -0.111644 0.061652 -0.111644 0.00000151849 C -0.111644 -0.061649 -0.0616566 -0.111636 -0.00000613589 -0.111636 C 0.0616653 -0.111636 0.111632 -0.061649 0.111632 0.00000151849 Z M 0.111632 0.00000151849 " transform="matrix(186.218657,0,0,186.218657,539.262861,202.655967)"/>
<path style="fill-rule:nonzero;fill:rgb(55.294118%,82.745098%,78.039216%);fill-opacity:1;stroke-width:0.0223273;stroke-linecap:butt;stroke-linejoin:miter;stroke:rgb(60%,60%,60%);stroke-opacity:0.8;stroke-miterlimit:10;" d="M 0.111635 0.00000833099 C 0.111635 0.0616588 0.0616471 0.111646 -0.00000340228 0.111646 C -0.0616539 0.111646 -0.111641 0.0616588 -0.111641 0.00000833099 C -0.111641 -0.0616631 -0.0616539 -0.11163 -0.00000340228 -0.11163 C 0.0616471 -0.11163 0.111635 -0.0616631 0.111635 0.00000833099 Z M 0.111635 0.00000833099 " transform="matrix(186.218657,0,0,186.218657,548.235009,243.557042)"/>
<path style="fill-rule:nonzero;fill:rgb(100%,92.941176%,43.529412%);fill-opacity:1;stroke-width:0.0223273;stroke-linecap:butt;stroke-linejoin:miter;stroke:rgb(60%,60%,60%);stroke-opacity:0.8;stroke-miterlimit:10;" d="M 0.111626 0.00000655034 C 0.111626 0.061657 0.06166 0.111644 0.00000951062 0.111644 C -0.0616619 0.111644 -0.111628 0.061657 -0.111628 0.00000655034 C -0.111628 -0.0616649 -0.0616619 -0.111631 0.00000951062 -0.111631 C 0.06166 -0.111631 0.111626 -0.0616649 0.111626 0.00000655034 Z M 0.111626 0.00000655034 " transform="matrix(186.218657,0,0,186.218657,176.384948,421.010499)"/>
<path style="fill-rule:nonzero;fill:rgb(100%,92.941176%,43.529412%);fill-opacity:1;stroke-width:0.0223273;stroke-linecap:butt;stroke-linejoin:miter;stroke:rgb(60%,60%,60%);stroke-opacity:0.8;stroke-miterlimit:10;" d="M 0.111645 -0.00000807311 C 0.111645 0.0616634 0.0616578 0.11163 0.000007308 0.11163 C -0.0616641 0.11163 -0.111631 0.0616634 -0.111631 -0.00000807311 C -0.111631 -0.0616585 -0.0616641 -0.111646 0.000007308 -0.111646 C 0.0616578 -0.111646 0.111645 -0.0616585 0.111645 -0.00000807311 Z M 0.111645 -0.00000807311 " transform="matrix(186.218657,0,0,186.218657,132.79942,402.216347)"/>
<path style="fill-rule:nonzero;fill:rgb(100%,92.941176%,43.529412%);fill-opacity:1;stroke-width:0.0223273;stroke-linecap:butt;stroke-linejoin:miter;stroke:rgb(60%,60%,60%);stroke-opacity:0.8;stroke-miterlimit:10;" d="M 0.111641 -0.00000319195 C 0.111641 0.0616473 0.0616539 0.111635 0.00000340228 0.111635 C -0.0616471 0.111635 -0.111635 0.0616473 -0.111635 -0.00000319195 C -0.111635 -0.0616537 -0.0616471 -0.111641 0.00000340228 -0.111641 C 0.0616539 -0.111641 0.111641 -0.0616537 0.111641 -0.00000319195 Z M 0.111641 -0.00000319195 " transform="matrix(186.218657,0,0,186.218657,51.764991,399.797469)"/>
</g>
</svg>
