<?xml version="1.0" encoding="UTF-8"?>
<svg xmlns="http://www.w3.org/2000/svg" xmlns:xlink="http://www.w3.org/1999/xlink" width="600pt" height="600pt" viewBox="0 0 600 600" version="1.1">
<defs>
<clipPath id="clip1">
  <path d="M 214 455 L 377 455 L 377 600 L 214 600 Z M 214 455 "/>
</clipPath>
<clipPath id="clip2">
  <path d="M 132.640625 373.402344 L 458.210938 373.402344 L 458.210938 699.433594 L 132.640625 699.433594 Z M 132.640625 373.402344 L 296.734375 516.335938 C 296.734375 528.171875 287.140625 537.765625 275.304688 537.765625 C 263.46875 537.765625 253.875 528.171875 253.875 516.335938 C 253.875 504.5 263.46875 494.90625 275.304688 494.90625 C 287.140625 494.90625 296.734375 504.5 296.734375 516.335938 Z M 132.640625 373.402344 "/>
</clipPath>
<clipPath id="clip3">
  <path d="M 132.640625 373.402344 L 458.210938 373.402344 L 458.210938 699.433594 L 132.640625 699.433594 Z M 132.640625 373.402344 L 336.976562 556.5 C 336.976562 568.335938 327.382812 577.929688 315.546875 577.929688 C 303.710938 577.929688 294.117188 568.335938 294.117188 556.5 C 294.117188 544.664062 303.710938 535.070312 315.546875 535.070312 C 327.382812 535.070312 336.976562 544.664062 336.976562 556.5 Z M 132.640625 373.402344 "/>
</clipPath>
<clipPath id="clip4">
  <path d="M 173 382 L 336 382 L 336 577 L 173 577 Z M 173 382 "/>
</clipPath>
<clipPath id="clip5">
  <path d="M 59.359375 342.261719 L 449.761719 342.261719 L 449.761719 617.644531 L 59.359375 617.644531 Z M 59.359375 342.261719 L 296.734375 516.335938 C 296.734375 528.171875 287.140625 537.765625 275.304688 537.765625 C 263.46875 537.765625 253.875 528.171875 253.875 516.335938 C 253.875 504.5 263.46875 494.90625 275.304688 494.90625 C 287.140625 494.90625 296.734375 504.5 296.734375 516.335938 Z M 59.359375 342.261719 "/>
</clipPath>
<clipPath id="clip6">
  <path d="M 59.359375 342.261719 L 449.761719 342.261719 L 449.761719 617.644531 L 59.359375 617.644531 Z M 59.359375 342.261719 L 255.246094 443.570312 C 255.246094 455.40625 245.652344 465 233.816406 465 C 221.980469 465 212.386719 455.40625 212.386719 443.570312 C 212.386719 431.734375 221.980469 422.140625 233.816406 422.140625 C 245.652344 422.140625 255.246094 431.734375 255.246094 443.570312 Z M 59.359375 342.261719 "/>
</clipPath>
<clipPath id="clip7">
  <path d="M 173 292 L 387 292 L 387 505 L 173 505 Z M 173 292 "/>
</clipPath>
<clipPath id="clip8">
  <path d="M 92.136719 208.757812 L 467.875 208.757812 L 467.875 587.476562 L 92.136719 587.476562 Z M 92.136719 208.757812 L 255.246094 443.570312 C 255.246094 455.40625 245.652344 465 233.816406 465 C 221.980469 465 212.386719 455.40625 212.386719 443.570312 C 212.386719 431.734375 221.980469 422.140625 233.816406 422.140625 C 245.652344 422.140625 255.246094 431.734375 255.246094 443.570312 Z M 92.136719 208.757812 "/>
</clipPath>
<clipPath id="clip9">
  <path d="M 92.136719 208.757812 L 467.875 208.757812 L 467.875 587.476562 L 92.136719 587.476562 Z M 92.136719 208.757812 L 347.625 352.664062 C 347.625 364.5 338.03125 374.09375 326.195312 374.09375 C 314.363281 374.09375 304.769531 364.5 304.769531 352.664062 C 304.769531 340.832031 314.363281 331.238281 326.195312 331.238281 C 338.03125 331.238281 347.625 340.832031 347.625 352.664062 Z M 92.136719 208.757812 "/>
</clipPath>
<clipPath id="clip10">
  <path d="M 104.046875 382 L 250.433594 382 L 250.433594 512 L 104.046875 512 Z M 104.046875 382 "/>
</clipPath>
<clipPath id="clip11">
  <path d="M 104.046875 243.785156 L 250.433594 243.785156 L 250.433594 650.492188 L 104.046875 650.492188 Z M 104.046875 243.785156 L 255.246094 443.570312 C 255.246094 455.40625 245.652344 465 233.816406 465 C 221.980469 465 212.386719 455.40625 212.386719 443.570312 C 212.386719 431.734375 221.980469 422.140625 233.816406 422.140625 C 245.652344 422.140625 255.246094 431.734375 255.246094 443.570312 Z M 104.046875 243.785156 "/>
</clipPath>
<clipPath id="clip12">
  <path d="M 104.046875 243.785156 L 250.433594 243.785156 L 250.433594 650.492188 L 104.046875 650.492188 Z M 104.046875 243.785156 L 142.09375 450.707031 C 142.09375 462.542969 132.5 472.136719 120.664062 472.136719 C 108.828125 472.136719 99.234375 462.542969 99.234375 450.707031 C 99.234375 438.871094 108.828125 429.277344 120.664062 429.277344 C 132.5 429.277344 142.09375 438.871094 142.09375 450.707031 Z M 104.046875 243.785156 "/>
</clipPath>
<clipPath id="clip13">
  <path d="M 434 211 L 600 211 L 600 362 L 434 362 Z M 434 211 "/>
</clipPath>
<clipPath id="clip14">
  <path d="M 396.042969 96.230469 L 647.554688 96.230469 L 647.554688 476.675781 L 396.042969 476.675781 Z M 396.042969 96.230469 L 516.8125 271.792969 C 516.8125 283.628906 507.21875 293.222656 495.382812 293.222656 C 483.546875 293.222656 473.953125 283.628906 473.953125 271.792969 C 473.953125 259.960938 483.546875 250.367188 495.382812 250.367188 C 507.21875 250.367188 516.8125 259.960938 516.8125 271.792969 Z M 396.042969 96.230469 "/>
</clipPath>
<clipPath id="clip15">
  <path d="M 396.042969 96.230469 L 647.554688 96.230469 L 647.554688 476.675781 L 396.042969 476.675781 Z M 396.042969 96.230469 L 569.640625 301.113281 C 569.640625 312.949219 560.046875 322.542969 548.214844 322.542969 C 536.378906 322.542969 526.785156 312.949219 526.785156 301.113281 C 526.785156 289.28125 536.378906 279.6875 548.214844 279.6875 C 560.046875 279.6875 569.640625 289.28125 569.640625 301.113281 Z M 396.042969 96.230469 "/>
</clipPath>
<clipPath id="clip16">
  <path d="M 339 174 L 556 174 L 556 333 L 339 333 Z M 339 174 "/>
</clipPath>
<clipPath id="clip17">
  <path d="M 325.160156 47.988281 L 570.5 47.988281 L 570.5 458.710938 L 325.160156 458.710938 Z M 325.160156 47.988281 L 516.8125 271.792969 C 516.8125 283.628906 507.21875 293.222656 495.382812 293.222656 C 483.546875 293.222656 473.953125 283.628906 473.953125 271.792969 C 473.953125 259.960938 483.546875 250.367188 495.382812 250.367188 C 507.21875 250.367188 516.8125 259.960938 516.8125 271.792969 Z M 325.160156 47.988281 "/>
</clipPath>
<clipPath id="clip18">
  <path d="M 325.160156 47.988281 L 570.5 47.988281 L 570.5 458.710938 L 325.160156 458.710938 Z M 325.160156 47.988281 L 421.707031 234.90625 C 421.707031 246.738281 412.113281 256.332031 400.277344 256.332031 C 388.445312 256.332031 378.851562 246.738281 378.851562 234.90625 C 378.851562 223.070312 388.445312 213.476562 400.277344 213.476562 C 412.113281 213.476562 421.707031 223.070312 421.707031 234.90625 Z M 325.160156 47.988281 "/>
</clipPath>
<clipPath id="clip19">
  <path d="M 265 174 L 461 174 L 461 414 L 265 414 Z M 265 174 "/>
</clipPath>
<clipPath id="clip20">
  <path d="M 156.105469 126.3125 L 570.367188 126.3125 L 570.367188 461.257812 L 156.105469 461.257812 Z M 156.105469 126.3125 L 347.625 352.664062 C 347.625 364.5 338.03125 374.09375 326.195312 374.09375 C 314.363281 374.09375 304.769531 364.5 304.769531 352.664062 C 304.769531 340.832031 314.363281 331.238281 326.195312 331.238281 C 338.03125 331.238281 347.625 340.832031 347.625 352.664062 Z M 156.105469 126.3125 "/>
</clipPath>
<clipPath id="clip21">
  <path d="M 156.105469 126.3125 L 570.367188 126.3125 L 570.367188 461.257812 L 156.105469 461.257812 Z M 156.105469 126.3125 L 421.707031 234.90625 C 421.707031 246.738281 412.113281 256.332031 400.277344 256.332031 C 388.445312 256.332031 378.851562 246.738281 378.851562 234.90625 C 378.851562 223.070312 388.445312 213.476562 400.277344 213.476562 C 412.113281 213.476562 421.707031 223.070312 421.707031 234.90625 Z M 156.105469 126.3125 "/>
</clipPath>
<clipPath id="clip22">
  <path d="M 242 98 L 461 98 L 461 296 L 242 296 Z M 242 98 "/>
</clipPath>
<clipPath id="clip23">
  <path d="M 178.707031 0.523438 L 524.804688 0.523438 L 524.804688 393.832031 L 178.707031 393.832031 Z M 178.707031 0.523438 L 421.707031 234.90625 C 421.707031 246.738281 412.113281 256.332031 400.277344 256.332031 C 388.445312 256.332031 378.851562 246.738281 378.851562 234.90625 C 378.851562 223.070312 388.445312 213.476562 400.277344 213.476562 C 412.113281 213.476562 421.707031 223.070312 421.707031 234.90625 Z M 178.707031 0.523438 "/>
</clipPath>
<clipPath id="clip24">
  <path d="M 178.707031 0.523438 L 524.804688 0.523438 L 524.804688 393.832031 L 178.707031 393.832031 Z M 178.707031 0.523438 L 324.664062 159.449219 C 324.664062 171.285156 315.070312 180.878906 303.234375 180.878906 C 291.402344 180.878906 281.808594 171.285156 281.808594 159.449219 C 281.808594 147.617188 291.402344 138.023438 303.234375 138.023438 C 315.070312 138.023438 324.664062 147.617188 324.664062 159.449219 Z M 178.707031 0.523438 "/>
</clipPath>
<clipPath id="clip25">
  <path d="M 339 101 L 514 101 L 514 296 L 339 296 Z M 339 101 "/>
</clipPath>
<clipPath id="clip26">
  <path d="M 236.707031 43.320312 L 616.304688 43.320312 L 616.304688 353.210938 L 236.707031 353.210938 Z M 236.707031 43.320312 L 421.707031 234.90625 C 421.707031 246.738281 412.113281 256.332031 400.277344 256.332031 C 388.445312 256.332031 378.851562 246.738281 378.851562 234.90625 C 378.851562 223.070312 388.445312 213.476562 400.277344 213.476562 C 412.113281 213.476562 421.707031 223.070312 421.707031 234.90625 Z M 236.707031 43.320312 "/>
</clipPath>
<clipPath id="clip27">
  <path d="M 236.707031 43.320312 L 616.304688 43.320312 L 616.304688 353.210938 L 236.707031 353.210938 Z M 236.707031 43.320312 L 474.164062 161.625 C 474.164062 173.457031 464.570312 183.050781 452.734375 183.050781 C 440.902344 183.050781 431.308594 173.457031 431.308594 161.625 C 431.308594 149.789062 440.902344 140.195312 452.734375 140.195312 C 464.570312 140.195312 474.164062 149.789062 474.164062 161.625 Z M 236.707031 43.320312 "/>
</clipPath>
<clipPath id="clip28">
  <path d="M 30.851562 384 L 141.597656 384 L 141.597656 512 L 30.851562 512 Z M 30.851562 384 "/>
</clipPath>
<clipPath id="clip29">
  <path d="M 30.851562 245.367188 L 141.597656 245.367188 L 141.597656 650.171875 L 30.851562 650.171875 Z M 30.851562 245.367188 L 142.09375 450.707031 C 142.09375 462.542969 132.5 472.136719 120.664062 472.136719 C 108.828125 472.136719 99.234375 462.542969 99.234375 450.707031 C 99.234375 438.871094 108.828125 429.277344 120.664062 429.277344 C 132.5 429.277344 142.09375 438.871094 142.09375 450.707031 Z M 30.851562 245.367188 "/>
</clipPath>
<clipPath id="clip30">
  <path d="M 30.851562 245.367188 L 141.597656 245.367188 L 141.597656 650.171875 L 30.851562 650.171875 Z M 30.851562 245.367188 L 73.214844 444.832031 C 73.214844 456.664062 63.621094 466.257812 51.785156 466.257812 C 39.953125 466.257812 30.359375 456.664062 30.359375 444.832031 C 30.359375 432.996094 39.953125 423.402344 51.785156 423.402344 C 63.621094 423.402344 73.214844 432.996094 73.214844 444.832031 Z M 30.851562 245.367188 "/>
</clipPath>
<clipPath id="clip31">
  <path d="M 116 59 L 364 59 L 364 221 L 116 221 Z M 116 59 "/>
</clipPath>
<clipPath id="clip32">
  <path d="M 114.191406 -71.277344 L 365.878906 -71.277344 L 365.878906 350.726562 L 114.191406 350.726562 Z M 114.191406 -71.277344 L 324.664062 159.449219 C 324.664062 171.285156 315.070312 180.878906 303.234375 180.878906 C 291.402344 180.878906 281.808594 171.285156 281.808594 159.449219 C 281.808594 147.617188 291.402344 138.023438 303.234375 138.023438 C 315.070312 138.023438 324.664062 147.617188 324.664062 159.449219 Z M 114.191406 -71.277344 "/>
</clipPath>
<clipPath id="clip33">
  <path d="M 114.191406 -71.277344 L 365.878906 -71.277344 L 365.878906 350.726562 L 114.191406 350.726562 Z M 114.191406 -71.277344 L 198.265625 120 C 198.265625 131.835938 188.671875 141.429688 176.835938 141.429688 C 165.003906 141.429688 155.410156 131.835938 155.410156 120 C 155.410156 108.164062 165.003906 98.570312 176.835938 98.570312 C 188.671875 98.570312 198.265625 108.164062 198.265625 120 Z M 114.191406 -71.277344 "/>
</clipPath>
<clipPath id="clip34">
  <path d="M 108 18.734375 L 238 18.734375 L 238 144.765625 L 108 144.765625 Z M 108 18.734375 "/>
</clipPath>
<clipPath id="clip35">
  <path d="M -30.304688 18.734375 L 375.933594 18.734375 L 375.933594 144.765625 L -30.304688 144.765625 Z M -30.304688 18.734375 L 190.222656 43.5 C 190.222656 55.335938 180.628906 64.929688 168.792969 64.929688 C 156.957031 64.929688 147.363281 55.335938 147.363281 43.5 C 147.363281 31.664062 156.957031 22.070312 168.792969 22.070312 C 180.628906 22.070312 190.222656 31.664062 190.222656 43.5 Z M -30.304688 18.734375 "/>
</clipPath>
<clipPath id="clip36">
  <path d="M -30.304688 18.734375 L 375.933594 18.734375 L 375.933594 144.765625 L -30.304688 144.765625 Z M -30.304688 18.734375 L 198.265625 120 C 198.265625 131.835938 188.671875 141.429688 176.835938 141.429688 C 165.003906 141.429688 155.410156 131.835938 155.410156 120 C 155.410156 108.164062 165.003906 98.570312 176.835938 98.570312 C 188.671875 98.570312 198.265625 108.164062 198.265625 120 Z M -30.304688 18.734375 "/>
</clipPath>
<clipPath id="clip37">
  <path d="M 103.949219 0 L 177.464844 0 L 177.464844 106 L 103.949219 106 Z M 103.949219 0 "/>
</clipPath>
<clipPath id="clip38">
  <path d="M 103.949219 -156.625 L 177.464844 -156.625 L 177.464844 244.882812 L 103.949219 244.882812 Z M 103.949219 -156.625 L 190.222656 43.5 C 190.222656 55.335938 180.628906 64.929688 168.792969 64.929688 C 156.957031 64.929688 147.363281 55.335938 147.363281 43.5 C 147.363281 31.664062 156.957031 22.070312 168.792969 22.070312 C 180.628906 22.070312 190.222656 31.664062 190.222656 43.5 Z M 103.949219 -156.625 "/>
</clipPath>
<clipPath id="clip39">
  <path d="M 103.949219 -156.625 L 177.464844 -156.625 L 177.464844 244.882812 L 103.949219 244.882812 Z M 103.949219 -156.625 L 134.050781 44.757812 C 134.050781 56.59375 124.457031 66.1875 112.621094 66.1875 C 100.789062 66.1875 91.195312 56.59375 91.195312 44.757812 C 91.195312 32.921875 100.789062 23.328125 112.621094 23.328125 C 124.457031 23.328125 134.050781 32.921875 134.050781 44.757812 Z M 103.949219 -156.625 "/>
</clipPath>
<clipPath id="clip40">
  <path d="M 37 81.351562 L 165 81.351562 L 165 182.898438 L 37 182.898438 Z M 37 81.351562 "/>
</clipPath>
<clipPath id="clip41">
  <path d="M -100.15625 81.351562 L 302.84375 81.351562 L 302.84375 182.898438 L -100.15625 182.898438 Z M -100.15625 81.351562 L 125.550781 109.421875 C 125.550781 121.253906 115.957031 130.847656 104.121094 130.847656 C 92.285156 130.847656 82.691406 121.253906 82.691406 109.421875 C 82.691406 97.585938 92.285156 87.992188 104.121094 87.992188 C 115.957031 87.992188 125.550781 97.585938 125.550781 109.421875 Z M -100.15625 81.351562 "/>
</clipPath>
<clipPath id="clip42">
  <path d="M -100.15625 81.351562 L 302.84375 81.351562 L 302.84375 182.898438 L -100.15625 182.898438 Z M -100.15625 81.351562 L 119.992188 154.828125 C 119.992188 166.664062 110.398438 176.257812 98.566406 176.257812 C 86.730469 176.257812 77.136719 166.664062 77.136719 154.828125 C 77.136719 142.992188 86.730469 133.398438 98.566406 133.398438 C 110.398438 133.398438 119.992188 142.992188 119.992188 154.828125 Z M -100.15625 81.351562 "/>
</clipPath>
<clipPath id="clip43">
  <path d="M 71.636719 48 L 209.320312 48 L 209.320312 181 L 71.636719 181 Z M 71.636719 48 "/>
</clipPath>
<clipPath id="clip44">
  <path d="M 71.636719 -88.710938 L 209.320312 -88.710938 L 209.320312 318.132812 L 71.636719 318.132812 Z M 71.636719 -88.710938 L 125.550781 109.421875 C 125.550781 121.253906 115.957031 130.847656 104.121094 130.847656 C 92.285156 130.847656 82.691406 121.253906 82.691406 109.421875 C 82.691406 97.585938 92.285156 87.992188 104.121094 87.992188 C 115.957031 87.992188 125.550781 97.585938 125.550781 109.421875 Z M 71.636719 -88.710938 "/>
</clipPath>
<clipPath id="clip45">
  <path d="M 71.636719 -88.710938 L 209.320312 -88.710938 L 209.320312 318.132812 L 71.636719 318.132812 Z M 71.636719 -88.710938 L 198.265625 120 C 198.265625 131.835938 188.671875 141.429688 176.835938 141.429688 C 165.003906 141.429688 155.410156 131.835938 155.410156 120 C 155.410156 108.164062 165.003906 98.570312 176.835938 98.570312 C 188.671875 98.570312 198.265625 108.164062 198.265625 120 Z M 71.636719 -88.710938 "/>
</clipPath>
<clipPath id="clip46">
  <path d="M 43 14.941406 L 174 14.941406 L 174 139.238281 L 43 139.238281 Z M 43 14.941406 "/>
</clipPath>
<clipPath id="clip47">
  <path d="M -94.378906 14.941406 L 311.121094 14.941406 L 311.121094 139.238281 L -94.378906 139.238281 Z M -94.378906 14.941406 L 125.550781 109.421875 C 125.550781 121.253906 115.957031 130.847656 104.121094 130.847656 C 92.285156 130.847656 82.691406 121.253906 82.691406 109.421875 C 82.691406 97.585938 92.285156 87.992188 104.121094 87.992188 C 115.957031 87.992188 125.550781 97.585938 125.550781 109.421875 Z M -94.378906 14.941406 "/>
</clipPath>
<clipPath id="clip48">
  <path d="M -94.378906 14.941406 L 311.121094 14.941406 L 311.121094 139.238281 L -94.378906 139.238281 Z M -94.378906 14.941406 L 134.050781 44.757812 C 134.050781 56.59375 124.457031 66.1875 112.621094 66.1875 C 100.789062 66.1875 91.195312 56.59375 91.195312 44.757812 C 91.195312 32.921875 100.789062 23.328125 112.621094 23.328125 C 124.457031 23.328125 134.050781 32.921875 134.050781 44.757812 Z M -94.378906 14.941406 "/>
</clipPath>
<clipPath id="clip49">
  <path d="M 37 59 L 238 59 L 238 216 L 37 216 Z M 37 59 "/>
</clipPath>
<clipPath id="clip50">
  <path d="M 14.644531 -63.253906 L 260.757812 -63.253906 L 260.757812 338.082031 L 14.644531 338.082031 Z M 14.644531 -63.253906 L 119.992188 154.828125 C 119.992188 166.664062 110.398438 176.257812 98.566406 176.257812 C 86.730469 176.257812 77.136719 166.664062 77.136719 154.828125 C 77.136719 142.992188 86.730469 133.398438 98.566406 133.398438 C 110.398438 133.398438 119.992188 142.992188 119.992188 154.828125 Z M 14.644531 -63.253906 "/>
</clipPath>
<clipPath id="clip51">
  <path d="M 14.644531 -63.253906 L 260.757812 -63.253906 L 260.757812 338.082031 L 14.644531 338.082031 Z M 14.644531 -63.253906 L 198.265625 120 C 198.265625 131.835938 188.671875 141.429688 176.835938 141.429688 C 165.003906 141.429688 155.410156 131.835938 155.410156 120 C 155.410156 108.164062 165.003906 98.570312 176.835938 98.570312 C 188.671875 98.570312 198.265625 108.164062 198.265625 120 Z M 14.644531 -63.253906 "/>
</clipPath>
</defs>
<g id="surface331">
<g clip-path="url(#clip1)" clip-rule="nonzero">
<g clip-path="url(#clip2)" clip-rule="evenodd">
<g clip-path="url(#clip3)" clip-rule="evenodd">
<path style="fill:none;stroke-width:0.0218785;stroke-linecap:butt;stroke-linejoin:miter;stroke:rgb(17.96875%,20.3125%,21.09375%);stroke-opacity:0.8;stroke-miterlimit:10;" d="M 2.416107 3.249332 L 2.621543 3.454368 " transform="matrix(195.887276,0,0,195.887276,-197.979966,-120.1668)"/>
</g>
</g>
</g>
<g clip-path="url(#clip4)" clip-rule="nonzero">
<g clip-path="url(#clip5)" clip-rule="evenodd">
<g clip-path="url(#clip6)" clip-rule="evenodd">
<path style="fill:none;stroke-width:0.0218785;stroke-linecap:butt;stroke-linejoin:miter;stroke:rgb(17.96875%,20.3125%,21.09375%);stroke-opacity:0.8;stroke-miterlimit:10;" d="M 2.416107 3.249332 L 2.20431 2.877865 " transform="matrix(195.887276,0,0,195.887276,-197.979966,-120.1668)"/>
</g>
</g>
</g>
<g clip-path="url(#clip7)" clip-rule="nonzero">
<g clip-path="url(#clip8)" clip-rule="evenodd">
<g clip-path="url(#clip9)" clip-rule="evenodd">
<path style="fill:none;stroke-width:0.0218785;stroke-linecap:butt;stroke-linejoin:miter;stroke:rgb(17.96875%,20.3125%,21.09375%);stroke-opacity:0.8;stroke-miterlimit:10;" d="M 2.20431 2.877865 L 2.675903 2.413791 " transform="matrix(195.887276,0,0,195.887276,-197.979966,-120.1668)"/>
</g>
</g>
</g>
<g clip-path="url(#clip10)" clip-rule="nonzero">
<g clip-path="url(#clip11)" clip-rule="evenodd">
<g clip-path="url(#clip12)" clip-rule="evenodd">
<path style="fill:none;stroke-width:0.0218785;stroke-linecap:butt;stroke-linejoin:miter;stroke:rgb(17.96875%,20.3125%,21.09375%);stroke-opacity:0.8;stroke-miterlimit:10;" d="M 2.20431 2.877865 L 1.62667 2.914298 " transform="matrix(195.887276,0,0,195.887276,-197.979966,-120.1668)"/>
</g>
</g>
</g>
<g clip-path="url(#clip13)" clip-rule="nonzero">
<g clip-path="url(#clip14)" clip-rule="evenodd">
<g clip-path="url(#clip15)" clip-rule="evenodd">
<path style="fill:none;stroke-width:0.0218785;stroke-linecap:butt;stroke-linejoin:miter;stroke:rgb(17.96875%,20.3125%,21.09375%);stroke-opacity:0.8;stroke-miterlimit:10;" d="M 3.539601 2.000946 L 3.809307 2.150625 " transform="matrix(195.887276,0,0,195.887276,-197.979966,-120.1668)"/>
</g>
</g>
</g>
<g clip-path="url(#clip16)" clip-rule="nonzero">
<g clip-path="url(#clip17)" clip-rule="evenodd">
<g clip-path="url(#clip18)" clip-rule="evenodd">
<path style="fill:none;stroke-width:0.0218785;stroke-linecap:butt;stroke-linejoin:miter;stroke:rgb(17.96875%,20.3125%,21.09375%);stroke-opacity:0.8;stroke-miterlimit:10;" d="M 3.539601 2.000946 L 3.05409 1.81264 " transform="matrix(195.887276,0,0,195.887276,-197.979966,-120.1668)"/>
</g>
</g>
</g>
<g clip-path="url(#clip19)" clip-rule="nonzero">
<g clip-path="url(#clip20)" clip-rule="evenodd">
<g clip-path="url(#clip21)" clip-rule="evenodd">
<path style="fill:none;stroke-width:0.0218785;stroke-linecap:butt;stroke-linejoin:miter;stroke:rgb(17.96875%,20.3125%,21.09375%);stroke-opacity:0.8;stroke-miterlimit:10;" d="M 2.675903 2.413791 L 3.05409 1.81264 " transform="matrix(195.887276,0,0,195.887276,-197.979966,-120.1668)"/>
</g>
</g>
</g>
<g clip-path="url(#clip22)" clip-rule="nonzero">
<g clip-path="url(#clip23)" clip-rule="evenodd">
<g clip-path="url(#clip24)" clip-rule="evenodd">
<path style="fill:none;stroke-width:0.0218785;stroke-linecap:butt;stroke-linejoin:miter;stroke:rgb(17.96875%,20.3125%,21.09375%);stroke-opacity:0.8;stroke-miterlimit:10;" d="M 3.05409 1.81264 L 2.558688 1.427433 " transform="matrix(195.887276,0,0,195.887276,-197.979966,-120.1668)"/>
</g>
</g>
</g>
<g clip-path="url(#clip25)" clip-rule="nonzero">
<g clip-path="url(#clip26)" clip-rule="evenodd">
<g clip-path="url(#clip27)" clip-rule="evenodd">
<path style="fill:none;stroke-width:0.0218785;stroke-linecap:butt;stroke-linejoin:miter;stroke:rgb(17.96875%,20.3125%,21.09375%);stroke-opacity:0.8;stroke-miterlimit:10;" d="M 3.05409 1.81264 L 3.321882 1.438541 " transform="matrix(195.887276,0,0,195.887276,-197.979966,-120.1668)"/>
</g>
</g>
</g>
<g clip-path="url(#clip28)" clip-rule="nonzero">
<g clip-path="url(#clip29)" clip-rule="evenodd">
<g clip-path="url(#clip30)" clip-rule="evenodd">
<path style="fill:none;stroke-width:0.0218785;stroke-linecap:butt;stroke-linejoin:miter;stroke:rgb(17.96875%,20.3125%,21.09375%);stroke-opacity:0.8;stroke-miterlimit:10;" d="M 1.62667 2.914298 L 1.275045 2.884306 " transform="matrix(195.887276,0,0,195.887276,-197.979966,-120.1668)"/>
</g>
</g>
</g>
<g clip-path="url(#clip31)" clip-rule="nonzero">
<g clip-path="url(#clip32)" clip-rule="evenodd">
<g clip-path="url(#clip33)" clip-rule="evenodd">
<path style="fill:none;stroke-width:0.0218785;stroke-linecap:butt;stroke-linejoin:miter;stroke:rgb(17.96875%,20.3125%,21.09375%);stroke-opacity:0.8;stroke-miterlimit:10;" d="M 2.558688 1.427433 L 1.913426 1.226046 " transform="matrix(195.887276,0,0,195.887276,-197.979966,-120.1668)"/>
</g>
</g>
</g>
<g clip-path="url(#clip34)" clip-rule="nonzero">
<g clip-path="url(#clip35)" clip-rule="evenodd">
<g clip-path="url(#clip36)" clip-rule="evenodd">
<path style="fill:none;stroke-width:0.0218785;stroke-linecap:butt;stroke-linejoin:miter;stroke:rgb(17.96875%,20.3125%,21.09375%);stroke-opacity:0.8;stroke-miterlimit:10;" d="M 1.872367 0.835515 L 1.913426 1.226046 " transform="matrix(195.887276,0,0,195.887276,-197.979966,-120.1668)"/>
</g>
</g>
</g>
<g clip-path="url(#clip37)" clip-rule="nonzero">
<g clip-path="url(#clip38)" clip-rule="evenodd">
<g clip-path="url(#clip39)" clip-rule="evenodd">
<path style="fill:none;stroke-width:0.0218785;stroke-linecap:butt;stroke-linejoin:miter;stroke:rgb(17.96875%,20.3125%,21.09375%);stroke-opacity:0.8;stroke-miterlimit:10;" d="M 1.872367 0.835515 L 1.585611 0.841936 " transform="matrix(195.887276,0,0,195.887276,-197.979966,-120.1668)"/>
</g>
</g>
</g>
<g clip-path="url(#clip40)" clip-rule="nonzero">
<g clip-path="url(#clip41)" clip-rule="evenodd">
<g clip-path="url(#clip42)" clip-rule="evenodd">
<path style="fill:none;stroke-width:0.0218785;stroke-linecap:butt;stroke-linejoin:miter;stroke:rgb(17.96875%,20.3125%,21.09375%);stroke-opacity:0.8;stroke-miterlimit:10;" d="M 1.542219 1.172045 L 1.513862 1.403843 " transform="matrix(195.887276,0,0,195.887276,-197.979966,-120.1668)"/>
</g>
</g>
</g>
<g clip-path="url(#clip43)" clip-rule="nonzero">
<g clip-path="url(#clip44)" clip-rule="evenodd">
<g clip-path="url(#clip45)" clip-rule="evenodd">
<path style="fill:none;stroke-width:0.0218785;stroke-linecap:butt;stroke-linejoin:miter;stroke:rgb(17.96875%,20.3125%,21.09375%);stroke-opacity:0.8;stroke-miterlimit:10;" d="M 1.542219 1.172045 L 1.913426 1.226046 " transform="matrix(195.887276,0,0,195.887276,-197.979966,-120.1668)"/>
</g>
</g>
</g>
<g clip-path="url(#clip46)" clip-rule="nonzero">
<g clip-path="url(#clip47)" clip-rule="evenodd">
<g clip-path="url(#clip48)" clip-rule="evenodd">
<path style="fill:none;stroke-width:0.0218785;stroke-linecap:butt;stroke-linejoin:miter;stroke:rgb(17.96875%,20.3125%,21.09375%);stroke-opacity:0.8;stroke-miterlimit:10;" d="M 1.542219 1.172045 L 1.585611 0.841936 " transform="matrix(195.887276,0,0,195.887276,-197.979966,-120.1668)"/>
</g>
</g>
</g>
<g clip-path="url(#clip49)" clip-rule="nonzero">
<g clip-path="url(#clip50)" clip-rule="evenodd">
<g clip-path="url(#clip51)" clip-rule="evenodd">
<path style="fill:none;stroke-width:0.0218785;stroke-linecap:butt;stroke-linejoin:miter;stroke:rgb(17.96875%,20.3125%,21.09375%);stroke-opacity:0.8;stroke-miterlimit:10;" d="M 1.513862 1.403843 L 1.913426 1.226046 " transform="matrix(195.887276,0,0,195.887276,-197.979966,-120.1668)"/>
</g>
</g>
</g>
<path style="fill-rule:nonzero;fill:rgb(55.294118%,82.745098%,78.039216%);fill-opacity:1;stroke-width:0.0218785;stroke-linecap:butt;stroke-linejoin:miter;stroke:rgb(60%,60%,60%);stroke-opacity:0.8;stroke-miterlimit:10;" d="M 0.1094 -0.000003339 C 0.1094 0.0604188 0.0604243 0.109395 0.00000211345 0.109395 C -0.0604201 0.109395 -0.109396 0.0604188 -0.109396 -0.000003339 C -0.109396 -0.0604255 -0.0604201 -0.109401 0.00000211345 -0.109401 C 0.0604243 -0.109401 0.1094 -0.0604255 0.1094 -0.000003339 Z M 0.1094 -0.000003339 " transform="matrix(195.887276,0,0,195.887276,275.304274,516.336592)"/>
<path style="fill-rule:nonzero;fill:rgb(55.294118%,82.745098%,78.039216%);fill-opacity:1;stroke-width:0.0218785;stroke-linecap:butt;stroke-linejoin:miter;stroke:rgb(60%,60%,60%);stroke-opacity:0.8;stroke-miterlimit:10;" d="M 0.1094 0 C 0.1094 0.0604222 0.0604245 0.109398 0.00000228867 0.109398 C -0.0604199 0.109398 -0.109396 0.0604222 -0.109396 0 C -0.109396 -0.0604222 -0.0604199 -0.109398 0.00000228867 -0.109398 C 0.0604245 -0.109398 0.1094 -0.0604222 0.1094 0 Z M 0.1094 0 " transform="matrix(195.887276,0,0,195.887276,315.546427,556.5)"/>
<path style="fill-rule:nonzero;fill:rgb(55.294118%,82.745098%,78.039216%);fill-opacity:1;stroke-width:0.0218785;stroke-linecap:butt;stroke-linejoin:miter;stroke:rgb(60%,60%,60%);stroke-opacity:0.8;stroke-miterlimit:10;" d="M 0.109397 0.0000021718 C 0.109397 0.0604244 0.0604209 0.1094 -0.00000123786 0.1094 C -0.0604234 0.1094 -0.109399 0.0604244 -0.109399 0.0000021718 C -0.109399 -0.06042 -0.0604234 -0.109396 -0.00000123786 -0.109396 C 0.0604209 -0.109396 0.109397 -0.06042 0.109397 0.0000021718 Z M 0.109397 0.0000021718 " transform="matrix(195.887276,0,0,195.887276,233.816649,443.569887)"/>
<path style="fill-rule:nonzero;fill:rgb(55.294118%,82.745098%,78.039216%);fill-opacity:1;stroke-width:0.0218785;stroke-linecap:butt;stroke-linejoin:miter;stroke:rgb(60%,60%,60%);stroke-opacity:0.8;stroke-miterlimit:10;" d="M 0.109398 -0.00000694909 C 0.109398 0.0604152 0.0604218 0.109391 -0.000000389991 0.109391 C -0.0604226 0.109391 -0.109398 0.0604152 -0.109398 -0.00000694909 C -0.109398 -0.0604092 -0.0604226 -0.109385 -0.000000389991 -0.109385 C 0.0604218 -0.109385 0.109398 -0.0604092 0.109398 -0.00000694909 Z M 0.109398 -0.00000694909 " transform="matrix(195.887276,0,0,195.887276,495.382889,271.79433)"/>
<path style="fill-rule:nonzero;fill:rgb(55.294118%,82.745098%,78.039216%);fill-opacity:1;stroke-width:0.0218785;stroke-linecap:butt;stroke-linejoin:miter;stroke:rgb(60%,60%,60%);stroke-opacity:0.8;stroke-miterlimit:10;" d="M 0.109386 -0.00000858589 C 0.109386 0.0604136 0.0604097 0.109389 0.00000747158 0.109389 C -0.0604147 0.109389 -0.109391 0.0604136 -0.109391 -0.00000858589 C -0.109391 -0.0604108 -0.0604147 -0.109387 0.00000747158 -0.109387 C 0.0604097 -0.109387 0.109386 -0.0604108 0.109386 -0.00000858589 Z M 0.109386 -0.00000858589 " transform="matrix(195.887276,0,0,195.887276,548.21338,301.114963)"/>
<path style="fill-rule:nonzero;fill:rgb(55.294118%,82.745098%,78.039216%);fill-opacity:1;stroke-width:0.0218785;stroke-linecap:butt;stroke-linejoin:miter;stroke:rgb(60%,60%,60%);stroke-opacity:0.8;stroke-miterlimit:10;" d="M 0.109392 -0.00000853644 C 0.109392 0.0604136 0.060416 0.10939 -0.00000618388 0.10939 C -0.0604084 0.10939 -0.109384 0.0604136 -0.109384 -0.00000853644 C -0.109384 -0.0604108 -0.0604084 -0.109387 -0.00000618388 -0.109387 C 0.060416 -0.109387 0.109392 -0.0604108 0.109392 -0.00000853644 Z M 0.109392 -0.00000853644 " transform="matrix(195.887276,0,0,195.887276,326.196524,352.665735)"/>
<path style="fill-rule:nonzero;fill:rgb(55.294118%,82.745098%,78.039216%);fill-opacity:1;stroke-width:0.0218785;stroke-linecap:butt;stroke-linejoin:miter;stroke:rgb(60%,60%,60%);stroke-opacity:0.8;stroke-miterlimit:10;" d="M 0.109391 0.00000857062 C 0.109391 0.0604108 0.0604153 0.109387 -0.00000692254 0.109387 C -0.0604092 0.109387 -0.109385 0.0604108 -0.109385 0.00000857062 C -0.109385 -0.0604136 -0.0604092 -0.109389 -0.00000692254 -0.109389 C 0.0604153 -0.109389 0.109391 -0.0604136 0.109391 0.00000857062 Z M 0.109391 0.00000857062 " transform="matrix(195.887276,0,0,195.887276,400.2787,234.904571)"/>
<path style="fill-rule:nonzero;fill:rgb(55.294118%,82.745098%,78.039216%);fill-opacity:1;stroke-width:0.0218785;stroke-linecap:butt;stroke-linejoin:miter;stroke:rgb(60%,60%,60%);stroke-opacity:0.8;stroke-miterlimit:10;" d="M 0.109395 0.00000283824 C 0.109395 0.060425 0.0604194 0.109401 -0.00000282152 0.109401 C -0.060425 0.109401 -0.109401 0.060425 -0.109401 0.00000283824 C -0.109401 -0.0604193 -0.060425 -0.109395 -0.00000282152 -0.109395 C 0.0604194 -0.109395 0.109395 -0.0604193 0.109395 0.00000283824 Z M 0.109395 0.00000283824 " transform="matrix(195.887276,0,0,195.887276,120.664615,450.706475)"/>
<path style="fill-rule:nonzero;fill:rgb(55.294118%,82.745098%,78.039216%);fill-opacity:1;stroke-width:0.0218785;stroke-linecap:butt;stroke-linejoin:miter;stroke:rgb(60%,60%,60%);stroke-opacity:0.8;stroke-miterlimit:10;" d="M 0.109391 0.00000669547 C 0.109391 0.0604089 0.0604147 0.109385 -0.00000747158 0.109385 C -0.0604097 0.109385 -0.109386 0.0604089 -0.109386 0.00000669547 C -0.109386 -0.0604155 -0.0604097 -0.109391 -0.00000747158 -0.109391 C 0.0604147 -0.109391 0.109391 -0.0604155 0.109391 0.00000669547 Z M 0.109391 0.00000669547 " transform="matrix(195.887276,0,0,195.887276,51.78662,444.83072)"/>
<path style="fill-rule:nonzero;fill:rgb(100%,92.941176%,43.529412%);fill-opacity:1;stroke-width:0.0218785;stroke-linecap:butt;stroke-linejoin:miter;stroke:rgb(60%,60%,60%);stroke-opacity:0.8;stroke-miterlimit:10;" d="M 0.109391 -0.00000694287 C 0.109391 0.0604152 0.0604147 0.109391 -0.00000743685 0.109391 C -0.0604097 0.109391 -0.109386 0.0604152 -0.109386 -0.00000694287 C -0.109386 -0.0604092 -0.0604097 -0.109385 -0.00000743685 -0.109385 C 0.0604147 -0.109385 0.109391 -0.0604092 0.109391 -0.00000694287 Z M 0.109391 -0.00000694287 " transform="matrix(195.887276,0,0,195.887276,303.235832,159.450579)"/>
<path style="fill-rule:nonzero;fill:rgb(100%,92.941176%,43.529412%);fill-opacity:1;stroke-width:0.0218785;stroke-linecap:butt;stroke-linejoin:miter;stroke:rgb(60%,60%,60%);stroke-opacity:0.8;stroke-miterlimit:10;" d="M 0.109395 0.000000000000000111 C 0.109395 0.0604222 0.0604189 0.109398 -0.00000328375 0.109398 C -0.0604255 0.109398 -0.109401 0.0604222 -0.109401 0.000000000000000111 C -0.109401 -0.0604222 -0.0604255 -0.109398 -0.00000328375 -0.109398 C 0.0604189 -0.109398 0.109395 -0.0604222 0.109395 0.000000000000000111 Z M 0.109395 0.000000000000000111 " transform="matrix(195.887276,0,0,195.887276,168.793612,43.5)"/>
<path style="fill-rule:nonzero;fill:rgb(100%,92.941176%,43.529412%);fill-opacity:1;stroke-width:0.0218785;stroke-linecap:butt;stroke-linejoin:miter;stroke:rgb(60%,60%,60%);stroke-opacity:0.8;stroke-miterlimit:10;" d="M 0.1094 0.0000092963 C 0.1094 0.0604115 0.0604243 0.109387 0.00000212618 0.109387 C -0.0604201 0.109387 -0.109396 0.0604115 -0.109396 0.0000092963 C -0.109396 -0.0604129 -0.0604201 -0.109389 0.00000212618 -0.109389 C 0.0604243 -0.109389 0.1094 -0.0604129 0.1094 0.0000092963 Z M 0.1094 0.0000092963 " transform="matrix(195.887276,0,0,195.887276,104.120677,109.420054)"/>
<path style="fill-rule:nonzero;fill:rgb(100%,92.941176%,43.529412%);fill-opacity:1;stroke-width:0.0218785;stroke-linecap:butt;stroke-linejoin:miter;stroke:rgb(60%,60%,60%);stroke-opacity:0.8;stroke-miterlimit:10;" d="M 0.109387 -0.00000116881 C 0.109387 0.060421 0.0604111 0.109397 0.00000881572 0.109397 C -0.0604134 0.109397 -0.109389 0.060421 -0.109389 -0.00000116881 C -0.109389 -0.0604234 -0.0604134 -0.109399 0.00000881572 -0.109399 C 0.0604111 -0.109399 0.109387 -0.0604234 0.109387 -0.00000116881 Z M 0.109387 -0.00000116881 " transform="matrix(195.887276,0,0,195.887276,98.564679,154.828354)"/>
<path style="fill-rule:nonzero;fill:rgb(100%,92.941176%,43.529412%);fill-opacity:1;stroke-width:0.0218785;stroke-linecap:butt;stroke-linejoin:miter;stroke:rgb(60%,60%,60%);stroke-opacity:0.8;stroke-miterlimit:10;" d="M 0.109391 0.00000246422 C 0.109391 0.0604247 0.0604152 0.109401 -0.00000703077 0.109401 C -0.0604093 0.109401 -0.109385 0.0604247 -0.109385 0.00000246422 C -0.109385 -0.0604197 -0.0604093 -0.109396 -0.00000703077 -0.109396 C 0.0604152 -0.109396 0.109391 -0.0604197 0.109391 0.00000246422 Z M 0.109391 0.00000246422 " transform="matrix(195.887276,0,0,195.887276,176.837315,119.999517)"/>
<path style="fill-rule:nonzero;fill:rgb(100%,92.941176%,43.529412%);fill-opacity:1;stroke-width:0.0218785;stroke-linecap:butt;stroke-linejoin:miter;stroke:rgb(60%,60%,60%);stroke-opacity:0.8;stroke-miterlimit:10;" d="M 0.109392 0.000000684713 C 0.109392 0.0604229 0.0604158 0.109399 -0.00000640698 0.109399 C -0.0604087 0.109399 -0.109385 0.0604229 -0.109385 0.000000684713 C -0.109385 -0.0604215 -0.0604087 -0.109397 -0.00000640698 -0.109397 C 0.0604158 -0.109397 0.109392 -0.0604215 0.109392 0.000000684713 Z M 0.109392 0.000000684713 " transform="matrix(195.887276,0,0,195.887276,112.622349,44.757678)"/>
<path style="fill-rule:nonzero;fill:rgb(55.294118%,82.745098%,78.039216%);fill-opacity:1;stroke-width:0.0218785;stroke-linecap:butt;stroke-linejoin:miter;stroke:rgb(60%,60%,60%);stroke-opacity:0.8;stroke-miterlimit:10;" d="M 0.109391 0.00000463146 C 0.109391 0.0604069 0.0604153 0.109383 -0.00000693304 0.109383 C -0.0604092 0.109383 -0.109385 0.0604069 -0.109385 0.00000463146 C -0.109385 -0.0604176 -0.0604092 -0.109393 -0.00000693304 -0.109393 C 0.0604153 -0.109393 0.109391 -0.0604176 0.109391 0.00000463146 Z M 0.109391 0.00000463146 " transform="matrix(195.887276,0,0,195.887276,452.735733,161.624093)"/>
</g>
</svg>
