<?xml version="1.0" encoding="UTF-8"?>
<svg xmlns="http://www.w3.org/2000/svg" xmlns:xlink="http://www.w3.org/1999/xlink" width="600pt" height="600pt" viewBox="0 0 600 600" version="1.1">
<defs>
<clipPath id="clip1">
  <path d="M 384 137 L 584 137 L 584 351 L 384 351 Z M 384 137 "/>
</clipPath>
<clipPath id="clip2">
  <path d="M 273.414062 54.46875 L 694.015625 54.46875 L 694.015625 433.492188 L 273.414062 433.492188 Z M 273.414062 54.46875 L 469.085938 199.886719 C 469.085938 212.109375 459.175781 222.019531 446.953125 222.019531 C 434.730469 222.019531 424.824219 212.109375 424.824219 199.886719 C 424.824219 187.664062 434.730469 177.753906 446.953125 177.753906 C 459.175781 177.753906 469.085938 187.664062 469.085938 199.886719 Z M 273.414062 54.46875 "/>
</clipPath>
<clipPath id="clip3">
  <path d="M 273.414062 54.46875 L 694.015625 54.46875 L 694.015625 433.492188 L 273.414062 433.492188 Z M 273.414062 54.46875 L 542.609375 288.074219 C 542.609375 300.296875 532.699219 310.207031 520.476562 310.207031 C 508.253906 310.207031 498.34375 300.296875 498.34375 288.074219 C 498.34375 275.851562 508.253906 265.941406 520.476562 265.941406 C 532.699219 265.941406 542.609375 275.851562 542.609375 288.074219 Z M 273.414062 54.46875 "/>
</clipPath>
<clipPath id="clip4">
  <path d="M 384 169.972656 L 529 169.972656 L 529 391.617188 L 384 391.617188 Z M 384 169.972656 "/>
</clipPath>
<clipPath id="clip5">
  <path d="M 223.832031 169.972656 L 688.933594 169.972656 L 688.933594 391.617188 L 223.832031 391.617188 Z M 223.832031 169.972656 L 469.085938 199.886719 C 469.085938 212.109375 459.175781 222.019531 446.953125 222.019531 C 434.730469 222.019531 424.824219 212.109375 424.824219 199.886719 C 424.824219 187.664062 434.730469 177.753906 446.953125 177.753906 C 459.175781 177.753906 469.085938 187.664062 469.085938 199.886719 Z M 223.832031 169.972656 "/>
</clipPath>
<clipPath id="clip6">
  <path d="M 223.832031 169.972656 L 688.933594 169.972656 L 688.933594 391.617188 L 223.832031 391.617188 Z M 223.832031 169.972656 L 487.945312 361.703125 C 487.945312 373.925781 478.035156 383.835938 465.8125 383.835938 C 453.589844 383.835938 443.679688 373.925781 443.679688 361.703125 C 443.679688 349.480469 453.589844 339.570312 465.8125 339.570312 C 478.035156 339.570312 487.945312 349.480469 487.945312 361.703125 Z M 223.832031 169.972656 "/>
</clipPath>
<clipPath id="clip7">
  <path d="M 257 81 L 510 81 L 510 263 L 257 263 Z M 257 81 "/>
</clipPath>
<clipPath id="clip8">
  <path d="M 227.445312 -61.695312 L 540.019531 -61.695312 L 540.019531 405.859375 L 227.445312 405.859375 Z M 227.445312 -61.695312 L 469.085938 199.886719 C 469.085938 212.109375 459.175781 222.019531 446.953125 222.019531 C 434.730469 222.019531 424.824219 212.109375 424.824219 199.886719 C 424.824219 187.664062 434.730469 177.753906 446.953125 177.753906 C 459.175781 177.753906 469.085938 187.664062 469.085938 199.886719 Z M 227.445312 -61.695312 "/>
</clipPath>
<clipPath id="clip9">
  <path d="M 227.445312 -61.695312 L 540.019531 -61.695312 L 540.019531 405.859375 L 227.445312 405.859375 Z M 227.445312 -61.695312 L 342.644531 144.277344 C 342.644531 156.5 332.734375 166.40625 320.511719 166.40625 C 308.289062 166.40625 298.382812 156.5 298.382812 144.277344 C 298.382812 132.054688 308.289062 122.144531 320.511719 122.144531 C 332.734375 122.144531 342.644531 132.054688 342.644531 144.277344 Z M 227.445312 -61.695312 "/>
</clipPath>
<clipPath id="clip10">
  <path d="M 384 53.636719 L 530 53.636719 L 530 248.890625 L 384 248.890625 Z M 384 53.636719 "/>
</clipPath>
<clipPath id="clip11">
  <path d="M 226.910156 53.636719 L 687.101562 53.636719 L 687.101562 248.890625 L 226.910156 248.890625 Z M 226.910156 53.636719 L 469.085938 199.886719 C 469.085938 212.109375 459.175781 222.019531 446.953125 222.019531 C 434.730469 222.019531 424.824219 212.109375 424.824219 199.886719 C 424.824219 187.664062 434.730469 177.753906 446.953125 177.753906 C 459.175781 177.753906 469.085938 187.664062 469.085938 199.886719 Z M 226.910156 53.636719 "/>
</clipPath>
<clipPath id="clip12">
  <path d="M 226.910156 53.636719 L 687.101562 53.636719 L 687.101562 248.890625 L 226.910156 248.890625 Z M 226.910156 53.636719 L 489.191406 102.640625 C 489.191406 114.863281 479.28125 124.769531 467.058594 124.769531 C 454.835938 124.769531 444.925781 114.863281 444.925781 102.640625 C 444.925781 90.417969 454.835938 80.507812 467.058594 80.507812 C 479.28125 80.507812 489.191406 90.417969 489.191406 102.640625 Z M 226.910156 53.636719 "/>
</clipPath>
<clipPath id="clip13">
  <path d="M 376 77.296875 L 510 77.296875 L 510 222.265625 L 376 222.265625 Z M 376 77.296875 "/>
</clipPath>
<clipPath id="clip14">
  <path d="M 214.886719 77.296875 L 670.820312 77.296875 L 670.820312 222.265625 L 214.886719 222.265625 Z M 214.886719 77.296875 L 469.085938 199.886719 C 469.085938 212.109375 459.175781 222.019531 446.953125 222.019531 C 434.730469 222.019531 424.824219 212.109375 424.824219 199.886719 C 424.824219 187.664062 434.730469 177.753906 446.953125 177.753906 C 459.175781 177.753906 469.085938 187.664062 469.085938 199.886719 Z M 214.886719 77.296875 "/>
</clipPath>
<clipPath id="clip15">
  <path d="M 214.886719 77.296875 L 670.820312 77.296875 L 670.820312 222.265625 L 214.886719 222.265625 Z M 214.886719 77.296875 L 460.886719 99.675781 C 460.886719 111.898438 450.976562 121.804688 438.753906 121.804688 C 426.53125 121.804688 416.625 111.898438 416.625 99.675781 C 416.625 87.453125 426.53125 77.542969 438.753906 77.542969 C 450.976562 77.542969 460.886719 87.453125 460.886719 99.675781 Z M 214.886719 77.296875 "/>
</clipPath>
<clipPath id="clip16">
  <path d="M 403 225 L 584 225 L 584 425 L 403 425 Z M 403 225 "/>
</clipPath>
<clipPath id="clip17">
  <path d="M 284.605469 152.402344 L 701.683594 152.402344 L 701.683594 497.375 L 284.605469 497.375 Z M 284.605469 152.402344 L 542.609375 288.074219 C 542.609375 300.296875 532.699219 310.207031 520.476562 310.207031 C 508.253906 310.207031 498.34375 300.296875 498.34375 288.074219 C 498.34375 275.851562 508.253906 265.941406 520.476562 265.941406 C 532.699219 265.941406 542.609375 275.851562 542.609375 288.074219 Z M 284.605469 152.402344 "/>
</clipPath>
<clipPath id="clip18">
  <path d="M 284.605469 152.402344 L 701.683594 152.402344 L 701.683594 497.375 L 284.605469 497.375 Z M 284.605469 152.402344 L 487.945312 361.703125 C 487.945312 373.925781 478.035156 383.835938 465.8125 383.835938 C 453.589844 383.835938 443.679688 373.925781 443.679688 361.703125 C 443.679688 349.480469 453.589844 339.570312 465.8125 339.570312 C 478.035156 339.570312 487.945312 349.480469 487.945312 361.703125 Z M 284.605469 152.402344 "/>
</clipPath>
<clipPath id="clip19">
  <path d="M 333 299 L 529 299 L 529 549 L 333 549 Z M 333 299 "/>
</clipPath>
<clipPath id="clip20">
  <path d="M 199.664062 249.019531 L 661.960938 249.019531 L 661.960938 598.355469 L 199.664062 598.355469 Z M 199.664062 249.019531 L 487.945312 361.703125 C 487.945312 373.925781 478.035156 383.835938 465.8125 383.835938 C 453.589844 383.835938 443.679688 373.925781 443.679688 361.703125 C 443.679688 349.480469 453.589844 339.570312 465.8125 339.570312 C 478.035156 339.570312 487.945312 349.480469 487.945312 361.703125 Z M 199.664062 249.019531 "/>
</clipPath>
<clipPath id="clip21">
  <path d="M 199.664062 249.019531 L 661.960938 249.019531 L 661.960938 598.355469 L 199.664062 598.355469 Z M 199.664062 249.019531 L 417.941406 485.671875 C 417.941406 497.894531 408.035156 507.800781 395.8125 507.800781 C 383.589844 507.800781 373.679688 497.894531 373.679688 485.671875 C 373.679688 473.449219 383.589844 463.539062 395.8125 463.539062 C 408.035156 463.539062 417.941406 473.449219 417.941406 485.671875 Z M 199.664062 249.019531 "/>
</clipPath>
<clipPath id="clip22">
  <path d="M 344 299 L 529 299 L 529 513 L 344 513 Z M 344 299 "/>
</clipPath>
<clipPath id="clip23">
  <path d="M 219.308594 234.8125 L 653.214844 234.8125 L 653.214844 576.898438 L 219.308594 576.898438 Z M 219.308594 234.8125 L 487.945312 361.703125 C 487.945312 373.925781 478.035156 383.835938 465.8125 383.835938 C 453.589844 383.835938 443.679688 373.925781 443.679688 361.703125 C 443.679688 349.480469 453.589844 339.570312 465.8125 339.570312 C 478.035156 339.570312 487.945312 349.480469 487.945312 361.703125 Z M 219.308594 234.8125 "/>
</clipPath>
<clipPath id="clip24">
  <path d="M 219.308594 234.8125 L 653.214844 234.8125 L 653.214844 576.898438 L 219.308594 576.898438 Z M 219.308594 234.8125 L 428.839844 450.007812 C 428.839844 462.230469 418.933594 472.136719 406.710938 472.136719 C 394.488281 472.136719 384.578125 462.230469 384.578125 450.007812 C 384.578125 437.785156 394.488281 427.875 406.710938 427.875 C 418.933594 427.875 428.839844 437.785156 428.839844 450.007812 Z M 219.308594 234.8125 "/>
</clipPath>
<clipPath id="clip25">
  <path d="M 208 425 L 423 425 L 423 600 L 208 600 Z M 208 425 "/>
</clipPath>
<clipPath id="clip26">
  <path d="M 132.46875 308.523438 L 497.886719 308.523438 L 497.886719 734.6875 L 132.46875 734.6875 Z M 132.46875 308.523438 L 381.582031 555.566406 C 381.582031 567.789062 371.671875 577.695312 359.449219 577.695312 C 347.226562 577.695312 337.316406 567.789062 337.316406 555.566406 C 337.316406 543.34375 347.226562 533.433594 359.449219 533.433594 C 371.671875 533.433594 381.582031 543.34375 381.582031 555.566406 Z M 132.46875 308.523438 "/>
</clipPath>
<clipPath id="clip27">
  <path d="M 132.46875 308.523438 L 497.886719 308.523438 L 497.886719 734.6875 L 132.46875 734.6875 Z M 132.46875 308.523438 L 293.039062 487.644531 C 293.039062 499.867188 283.128906 509.777344 270.90625 509.777344 C 258.683594 509.777344 248.777344 499.867188 248.777344 487.644531 C 248.777344 475.421875 258.683594 465.515625 270.90625 465.515625 C 283.128906 465.515625 293.039062 475.421875 293.039062 487.644531 Z M 132.46875 308.523438 "/>
</clipPath>
<clipPath id="clip28">
  <path d="M 296 423 L 459 423 L 459 600 L 296 600 Z M 296 423 "/>
</clipPath>
<clipPath id="clip29">
  <path d="M 159.699219 379.628906 L 595.5625 379.628906 L 595.5625 661.609375 L 159.699219 661.609375 Z M 159.699219 379.628906 L 381.582031 555.566406 C 381.582031 567.789062 371.671875 577.695312 359.449219 577.695312 C 347.226562 577.695312 337.316406 567.789062 337.316406 555.566406 C 337.316406 543.34375 347.226562 533.433594 359.449219 533.433594 C 371.671875 533.433594 381.582031 543.34375 381.582031 555.566406 Z M 159.699219 379.628906 "/>
</clipPath>
<clipPath id="clip30">
  <path d="M 159.699219 379.628906 L 595.5625 379.628906 L 595.5625 661.609375 L 159.699219 661.609375 Z M 159.699219 379.628906 L 417.941406 485.671875 C 417.941406 497.894531 408.035156 507.800781 395.8125 507.800781 C 383.589844 507.800781 373.679688 497.894531 373.679688 485.671875 C 373.679688 473.449219 383.589844 463.539062 395.8125 463.539062 C 408.035156 463.539062 417.941406 473.449219 417.941406 485.671875 Z M 159.699219 379.628906 "/>
</clipPath>
<clipPath id="clip31">
  <path d="M 263.003906 423 L 403.714844 423 L 403.714844 551 L 263.003906 551 Z M 263.003906 423 "/>
</clipPath>
<clipPath id="clip32">
  <path d="M 263.003906 261.097656 L 403.714844 261.097656 L 403.714844 712.21875 L 263.003906 712.21875 Z M 263.003906 261.097656 L 293.039062 487.644531 C 293.039062 499.867188 283.128906 509.777344 270.90625 509.777344 C 258.683594 509.777344 248.777344 499.867188 248.777344 487.644531 C 248.777344 475.421875 258.683594 465.515625 270.90625 465.515625 C 283.128906 465.515625 293.039062 475.421875 293.039062 487.644531 Z M 263.003906 261.097656 "/>
</clipPath>
<clipPath id="clip33">
  <path d="M 263.003906 261.097656 L 403.714844 261.097656 L 403.714844 712.21875 L 263.003906 712.21875 Z M 263.003906 261.097656 L 417.941406 485.671875 C 417.941406 497.894531 408.035156 507.800781 395.8125 507.800781 C 383.589844 507.800781 373.679688 497.894531 373.679688 485.671875 C 373.679688 473.449219 383.589844 463.539062 395.8125 463.539062 C 408.035156 463.539062 417.941406 473.449219 417.941406 485.671875 Z M 263.003906 261.097656 "/>
</clipPath>
<clipPath id="clip34">
  <path d="M 208 387 L 469.941406 387 L 469.941406 551 L 208 551 Z M 208 387 "/>
</clipPath>
<clipPath id="clip35">
  <path d="M 207.675781 233.402344 L 469.941406 233.402344 L 469.941406 704.25 L 207.675781 704.25 Z M 207.675781 233.402344 L 293.039062 487.644531 C 293.039062 499.867188 283.128906 509.777344 270.90625 509.777344 C 258.683594 509.777344 248.777344 499.867188 248.777344 487.644531 C 248.777344 475.421875 258.683594 465.515625 270.90625 465.515625 C 283.128906 465.515625 293.039062 475.421875 293.039062 487.644531 Z M 207.675781 233.402344 "/>
</clipPath>
<clipPath id="clip36">
  <path d="M 207.675781 233.402344 L 469.941406 233.402344 L 469.941406 704.25 L 207.675781 704.25 Z M 207.675781 233.402344 L 428.839844 450.007812 C 428.839844 462.230469 418.933594 472.136719 406.710938 472.136719 C 394.488281 472.136719 384.578125 462.230469 384.578125 450.007812 C 384.578125 437.785156 394.488281 427.875 406.710938 427.875 C 418.933594 427.875 428.839844 437.785156 428.839844 450.007812 Z M 207.675781 233.402344 "/>
</clipPath>
<clipPath id="clip37">
  <path d="M 76 356 L 334 356 L 334 551 L 76 551 Z M 76 356 "/>
</clipPath>
<clipPath id="clip38">
  <path d="M 32.996094 219.308594 L 377.039062 219.308594 L 377.039062 687.347656 L 32.996094 687.347656 Z M 32.996094 219.308594 L 293.039062 487.644531 C 293.039062 499.867188 283.128906 509.777344 270.90625 509.777344 C 258.683594 509.777344 248.777344 499.867188 248.777344 487.644531 C 248.777344 475.421875 258.683594 465.515625 270.90625 465.515625 C 283.128906 465.515625 293.039062 475.421875 293.039062 487.644531 Z M 32.996094 219.308594 "/>
</clipPath>
<clipPath id="clip39">
  <path d="M 32.996094 219.308594 L 377.039062 219.308594 L 377.039062 687.347656 L 32.996094 687.347656 Z M 32.996094 219.308594 L 161.261719 419.011719 C 161.261719 431.234375 151.351562 441.144531 139.128906 441.144531 C 126.90625 441.144531 116.996094 431.234375 116.996094 419.011719 C 116.996094 406.789062 126.90625 396.878906 139.128906 396.878906 C 151.351562 396.878906 161.261719 406.789062 161.261719 419.011719 Z M 32.996094 219.308594 "/>
</clipPath>
<clipPath id="clip40">
  <path d="M 121 425 L 334 425 L 334 582 L 121 582 Z M 121 425 "/>
</clipPath>
<clipPath id="clip41">
  <path d="M 105.128906 275.910156 L 349.5 275.910156 L 349.5 730.570312 L 105.128906 730.570312 Z M 105.128906 275.910156 L 293.039062 487.644531 C 293.039062 499.867188 283.128906 509.777344 270.90625 509.777344 C 258.683594 509.777344 248.777344 499.867188 248.777344 487.644531 C 248.777344 475.421875 258.683594 465.515625 270.90625 465.515625 C 283.128906 465.515625 293.039062 475.421875 293.039062 487.644531 Z M 105.128906 275.910156 "/>
</clipPath>
<clipPath id="clip42">
  <path d="M 105.128906 275.910156 L 349.5 275.910156 L 349.5 730.570312 L 105.128906 730.570312 Z M 105.128906 275.910156 L 205.855469 518.835938 C 205.855469 531.058594 195.945312 540.96875 183.722656 540.96875 C 171.5 540.96875 161.589844 531.058594 161.589844 518.835938 C 161.589844 506.613281 171.5 496.707031 183.722656 496.707031 C 195.945312 496.707031 205.855469 506.613281 205.855469 518.835938 Z M 105.128906 275.910156 "/>
</clipPath>
<clipPath id="clip43">
  <path d="M 91.875 395 L 327.328125 395 L 327.328125 551 L 91.875 551 Z M 91.875 395 "/>
</clipPath>
<clipPath id="clip44">
  <path d="M 91.875 239.472656 L 327.328125 239.472656 L 327.328125 706.019531 L 91.875 706.019531 Z M 91.875 239.472656 L 293.039062 487.644531 C 293.039062 499.867188 283.128906 509.777344 270.90625 509.777344 C 258.683594 509.777344 248.777344 499.867188 248.777344 487.644531 C 248.777344 475.421875 258.683594 465.515625 270.90625 465.515625 C 283.128906 465.515625 293.039062 475.421875 293.039062 487.644531 Z M 91.875 239.472656 "/>
</clipPath>
<clipPath id="clip45">
  <path d="M 91.875 239.472656 L 327.328125 239.472656 L 327.328125 706.019531 L 91.875 706.019531 Z M 91.875 239.472656 L 170.429688 457.847656 C 170.429688 470.070312 160.519531 479.976562 148.296875 479.976562 C 136.074219 479.976562 126.167969 470.070312 126.167969 457.847656 C 126.167969 445.625 136.074219 435.714844 148.296875 435.714844 C 160.519531 435.714844 170.429688 445.625 170.429688 457.847656 Z M 91.875 239.472656 "/>
</clipPath>
<clipPath id="clip46">
  <path d="M 333 387 L 470 387 L 470 549 L 333 549 Z M 333 387 "/>
</clipPath>
<clipPath id="clip47">
  <path d="M 180.824219 381.238281 L 621.699219 381.238281 L 621.699219 554.441406 L 180.824219 554.441406 Z M 180.824219 381.238281 L 417.941406 485.671875 C 417.941406 497.894531 408.035156 507.800781 395.8125 507.800781 C 383.589844 507.800781 373.679688 497.894531 373.679688 485.671875 C 373.679688 473.449219 383.589844 463.539062 395.8125 463.539062 C 408.035156 463.539062 417.941406 473.449219 417.941406 485.671875 Z M 180.824219 381.238281 "/>
</clipPath>
<clipPath id="clip48">
  <path d="M 180.824219 381.238281 L 621.699219 381.238281 L 621.699219 554.441406 L 180.824219 554.441406 Z M 180.824219 381.238281 L 428.839844 450.007812 C 428.839844 462.230469 418.933594 472.136719 406.710938 472.136719 C 394.488281 472.136719 384.578125 462.230469 384.578125 450.007812 C 384.578125 437.785156 394.488281 427.875 406.710938 427.875 C 418.933594 427.875 428.839844 437.785156 428.839844 450.007812 Z M 180.824219 381.238281 "/>
</clipPath>
<clipPath id="clip49">
  <path d="M 411.390625 37 L 494.421875 37 L 494.421875 166 L 411.390625 166 Z M 411.390625 37 "/>
</clipPath>
<clipPath id="clip50">
  <path d="M 411.390625 -123.726562 L 494.421875 -123.726562 L 494.421875 326.042969 L 411.390625 326.042969 Z M 411.390625 -123.726562 L 489.191406 102.640625 C 489.191406 114.863281 479.28125 124.769531 467.058594 124.769531 C 454.835938 124.769531 444.925781 114.863281 444.925781 102.640625 C 444.925781 90.417969 454.835938 80.507812 467.058594 80.507812 C 479.28125 80.507812 489.191406 90.417969 489.191406 102.640625 Z M 411.390625 -123.726562 "/>
</clipPath>
<clipPath id="clip51">
  <path d="M 411.390625 -123.726562 L 494.421875 -123.726562 L 494.421875 326.042969 L 411.390625 326.042969 Z M 411.390625 -123.726562 L 460.886719 99.675781 C 460.886719 111.898438 450.976562 121.804688 438.753906 121.804688 C 426.53125 121.804688 416.625 111.898438 416.625 99.675781 C 416.625 87.453125 426.53125 77.542969 438.753906 77.542969 C 450.976562 77.542969 460.886719 87.453125 460.886719 99.675781 Z M 411.390625 -123.726562 "/>
</clipPath>
<clipPath id="clip52">
  <path d="M 377 0 L 530 0 L 530 166 L 377 166 Z M 377 0 "/>
</clipPath>
<clipPath id="clip53">
  <path d="M 235.785156 -51.589844 L 671.703125 -51.589844 L 671.703125 198.664062 L 235.785156 198.664062 Z M 235.785156 -51.589844 L 489.191406 102.640625 C 489.191406 114.863281 479.28125 124.769531 467.058594 124.769531 C 454.835938 124.769531 444.925781 114.863281 444.925781 102.640625 C 444.925781 90.417969 454.835938 80.507812 467.058594 80.507812 C 479.28125 80.507812 489.191406 90.417969 489.191406 102.640625 Z M 235.785156 -51.589844 "/>
</clipPath>
<clipPath id="clip54">
  <path d="M 235.785156 -51.589844 L 671.703125 -51.589844 L 671.703125 198.664062 L 235.785156 198.664062 Z M 235.785156 -51.589844 L 462.5625 44.433594 C 462.5625 56.65625 452.652344 66.566406 440.429688 66.566406 C 428.207031 66.566406 418.296875 56.65625 418.296875 44.433594 C 418.296875 32.210938 428.207031 22.304688 440.429688 22.304688 C 452.652344 22.304688 462.5625 32.210938 462.5625 44.433594 Z M 235.785156 -51.589844 "/>
</clipPath>
<clipPath id="clip55">
  <path d="M 376 33.332031 L 504 33.332031 L 504 110.777344 L 376 110.777344 Z M 376 33.332031 "/>
</clipPath>
<clipPath id="clip56">
  <path d="M 214.253906 33.332031 L 664.929688 33.332031 L 664.929688 110.777344 L 214.253906 110.777344 Z M 214.253906 33.332031 L 460.886719 99.675781 C 460.886719 111.898438 450.976562 121.804688 438.753906 121.804688 C 426.53125 121.804688 416.625 111.898438 416.625 99.675781 C 416.625 87.453125 426.53125 77.542969 438.753906 77.542969 C 450.976562 77.542969 460.886719 87.453125 460.886719 99.675781 Z M 214.253906 33.332031 "/>
</clipPath>
<clipPath id="clip57">
  <path d="M 214.253906 33.332031 L 664.929688 33.332031 L 664.929688 110.777344 L 214.253906 110.777344 Z M 214.253906 33.332031 L 462.5625 44.433594 C 462.5625 56.65625 452.652344 66.566406 440.429688 66.566406 C 428.207031 66.566406 418.296875 56.65625 418.296875 44.433594 C 418.296875 32.210938 428.207031 22.304688 440.429688 22.304688 C 452.652344 22.304688 462.5625 32.210938 462.5625 44.433594 Z M 214.253906 33.332031 "/>
</clipPath>
<clipPath id="clip58">
  <path d="M 16 330 L 202 330 L 202 482 L 16 482 Z M 16 330 "/>
</clipPath>
<clipPath id="clip59">
  <path d="M -12.398438 186.730469 L 231.050781 186.730469 L 231.050781 625.480469 L -12.398438 625.480469 Z M -12.398438 186.730469 L 161.261719 419.011719 C 161.261719 431.234375 151.351562 441.144531 139.128906 441.144531 C 126.90625 441.144531 116.996094 431.234375 116.996094 419.011719 C 116.996094 406.789062 126.90625 396.878906 139.128906 396.878906 C 151.351562 396.878906 161.261719 406.789062 161.261719 419.011719 Z M -12.398438 186.730469 "/>
</clipPath>
<clipPath id="clip60">
  <path d="M -12.398438 186.730469 L 231.050781 186.730469 L 231.050781 625.480469 L -12.398438 625.480469 Z M -12.398438 186.730469 L 101.65625 393.199219 C 101.65625 405.421875 91.746094 415.328125 79.523438 415.328125 C 67.300781 415.328125 57.390625 405.421875 57.390625 393.199219 C 57.390625 380.976562 67.300781 371.066406 79.523438 371.066406 C 91.746094 371.066406 101.65625 380.976562 101.65625 393.199219 Z M -12.398438 186.730469 "/>
</clipPath>
<clipPath id="clip61">
  <path d="M 76 364 L 211 364 L 211 512.859375 L 76 512.859375 Z M 76 364 "/>
</clipPath>
<clipPath id="clip62">
  <path d="M -79.582031 364 L 367.007812 364 L 367.007812 512.859375 L -79.582031 512.859375 Z M -79.582031 364 L 161.261719 419.011719 C 161.261719 431.234375 151.351562 441.144531 139.128906 441.144531 C 126.90625 441.144531 116.996094 431.234375 116.996094 419.011719 C 116.996094 406.789062 126.90625 396.878906 139.128906 396.878906 C 151.351562 396.878906 161.261719 406.789062 161.261719 419.011719 Z M -79.582031 364 "/>
</clipPath>
<clipPath id="clip63">
  <path d="M -79.582031 364 L 367.007812 364 L 367.007812 512.859375 L -79.582031 512.859375 Z M -79.582031 364 L 170.429688 457.847656 C 170.429688 470.070312 160.519531 479.976562 148.296875 479.976562 C 136.074219 479.976562 126.167969 470.070312 126.167969 457.847656 C 126.167969 445.625 136.074219 435.714844 148.296875 435.714844 C 160.519531 435.714844 170.429688 445.625 170.429688 457.847656 Z M -79.582031 364 "/>
</clipPath>
<clipPath id="clip64">
  <path d="M 16 330 L 211 330 L 211 521 L 16 521 Z M 16 330 "/>
</clipPath>
<clipPath id="clip65">
  <path d="M -75.707031 228.347656 L 303.527344 228.347656 L 303.527344 622.699219 L -75.707031 622.699219 Z M -75.707031 228.347656 L 101.65625 393.199219 C 101.65625 405.421875 91.746094 415.328125 79.523438 415.328125 C 67.300781 415.328125 57.390625 405.421875 57.390625 393.199219 C 57.390625 380.976562 67.300781 371.066406 79.523438 371.066406 C 91.746094 371.066406 101.65625 380.976562 101.65625 393.199219 Z M -75.707031 228.347656 "/>
</clipPath>
<clipPath id="clip66">
  <path d="M -75.707031 228.347656 L 303.527344 228.347656 L 303.527344 622.699219 L -75.707031 622.699219 Z M -75.707031 228.347656 L 170.429688 457.847656 C 170.429688 470.070312 160.519531 479.976562 148.296875 479.976562 C 136.074219 479.976562 126.167969 470.070312 126.167969 457.847656 C 126.167969 445.625 136.074219 435.714844 148.296875 435.714844 C 160.519531 435.714844 170.429688 445.625 170.429688 457.847656 Z M -75.707031 228.347656 "/>
</clipPath>
<clipPath id="clip67">
  <path d="M 85 395 L 247 395 L 247 582 L 85 582 Z M 85 395 "/>
</clipPath>
<clipPath id="clip68">
  <path d="M -46.515625 342.832031 L 378.535156 342.832031 L 378.535156 633.851562 L -46.515625 633.851562 Z M -46.515625 342.832031 L 205.855469 518.835938 C 205.855469 531.058594 195.945312 540.96875 183.722656 540.96875 C 171.5 540.96875 161.589844 531.058594 161.589844 518.835938 C 161.589844 506.613281 171.5 496.707031 183.722656 496.707031 C 195.945312 496.707031 205.855469 506.613281 205.855469 518.835938 Z M -46.515625 342.832031 "/>
</clipPath>
<clipPath id="clip69">
  <path d="M -46.515625 342.832031 L 378.535156 342.832031 L 378.535156 633.851562 L -46.515625 633.851562 Z M -46.515625 342.832031 L 170.429688 457.847656 C 170.429688 470.070312 160.519531 479.976562 148.296875 479.976562 C 136.074219 479.976562 126.167969 470.070312 126.167969 457.847656 C 126.167969 445.625 136.074219 435.714844 148.296875 435.714844 C 160.519531 435.714844 170.429688 445.625 170.429688 457.847656 Z M -46.515625 342.832031 "/>
</clipPath>
</defs>
<g id="surface271">
<g clip-path="url(#clip1)" clip-rule="nonzero">
<g clip-path="url(#clip2)" clip-rule="evenodd">
<g clip-path="url(#clip3)" clip-rule="evenodd">
<path style="fill:none;stroke-width:0.0201033;stroke-linecap:butt;stroke-linejoin:miter;stroke:rgb(17.96875%,20.3125%,21.09375%);stroke-opacity:0.8;stroke-miterlimit:10;" d="M 2.573488 1.630017 L 2.907418 2.030548 " transform="matrix(220.176472,0,0,220.176472,-119.668457,-159.004708)"/>
</g>
</g>
</g>
<g clip-path="url(#clip4)" clip-rule="nonzero">
<g clip-path="url(#clip5)" clip-rule="evenodd">
<g clip-path="url(#clip6)" clip-rule="evenodd">
<path style="fill:none;stroke-width:0.0201033;stroke-linecap:butt;stroke-linejoin:miter;stroke:rgb(17.96875%,20.3125%,21.09375%);stroke-opacity:0.8;stroke-miterlimit:10;" d="M 2.573488 1.630017 L 2.659144 2.364957 " transform="matrix(220.176472,0,0,220.176472,-119.668457,-159.004708)"/>
</g>
</g>
</g>
<g clip-path="url(#clip7)" clip-rule="nonzero">
<g clip-path="url(#clip8)" clip-rule="evenodd">
<g clip-path="url(#clip9)" clip-rule="evenodd">
<path style="fill:none;stroke-width:0.0201033;stroke-linecap:butt;stroke-linejoin:miter;stroke:rgb(17.96875%,20.3125%,21.09375%);stroke-opacity:0.8;stroke-miterlimit:10;" d="M 2.573488 1.630017 L 1.999215 1.37745 " transform="matrix(220.176472,0,0,220.176472,-119.668457,-159.004708)"/>
</g>
</g>
</g>
<g clip-path="url(#clip10)" clip-rule="nonzero">
<g clip-path="url(#clip11)" clip-rule="evenodd">
<g clip-path="url(#clip12)" clip-rule="evenodd">
<path style="fill:none;stroke-width:0.0201033;stroke-linecap:butt;stroke-linejoin:miter;stroke:rgb(17.96875%,20.3125%,21.09375%);stroke-opacity:0.8;stroke-miterlimit:10;" d="M 2.573488 1.630017 L 2.664804 1.188344 " transform="matrix(220.176472,0,0,220.176472,-119.668457,-159.004708)"/>
</g>
</g>
</g>
<g clip-path="url(#clip13)" clip-rule="nonzero">
<g clip-path="url(#clip14)" clip-rule="evenodd">
<g clip-path="url(#clip15)" clip-rule="evenodd">
<path style="fill:none;stroke-width:0.0201033;stroke-linecap:butt;stroke-linejoin:miter;stroke:rgb(17.96875%,20.3125%,21.09375%);stroke-opacity:0.8;stroke-miterlimit:10;" d="M 2.573488 1.630017 L 2.536249 1.174878 " transform="matrix(220.176472,0,0,220.176472,-119.668457,-159.004708)"/>
</g>
</g>
</g>
<g clip-path="url(#clip16)" clip-rule="nonzero">
<g clip-path="url(#clip17)" clip-rule="evenodd">
<g clip-path="url(#clip18)" clip-rule="evenodd">
<path style="fill:none;stroke-width:0.0201033;stroke-linecap:butt;stroke-linejoin:miter;stroke:rgb(17.96875%,20.3125%,21.09375%);stroke-opacity:0.8;stroke-miterlimit:10;" d="M 2.907418 2.030548 L 2.659144 2.364957 " transform="matrix(220.176472,0,0,220.176472,-119.668457,-159.004708)"/>
</g>
</g>
</g>
<g clip-path="url(#clip19)" clip-rule="nonzero">
<g clip-path="url(#clip20)" clip-rule="evenodd">
<g clip-path="url(#clip21)" clip-rule="evenodd">
<path style="fill:none;stroke-width:0.0201033;stroke-linecap:butt;stroke-linejoin:miter;stroke:rgb(17.96875%,20.3125%,21.09375%);stroke-opacity:0.8;stroke-miterlimit:10;" d="M 2.659144 2.364957 L 2.341217 2.927999 " transform="matrix(220.176472,0,0,220.176472,-119.668457,-159.004708)"/>
</g>
</g>
</g>
<g clip-path="url(#clip22)" clip-rule="nonzero">
<g clip-path="url(#clip23)" clip-rule="evenodd">
<g clip-path="url(#clip24)" clip-rule="evenodd">
<path style="fill:none;stroke-width:0.0201033;stroke-linecap:butt;stroke-linejoin:miter;stroke:rgb(17.96875%,20.3125%,21.09375%);stroke-opacity:0.8;stroke-miterlimit:10;" d="M 2.659144 2.364957 L 2.390716 2.76602 " transform="matrix(220.176472,0,0,220.176472,-119.668457,-159.004708)"/>
</g>
</g>
</g>
<g clip-path="url(#clip25)" clip-rule="nonzero">
<g clip-path="url(#clip26)" clip-rule="evenodd">
<g clip-path="url(#clip27)" clip-rule="evenodd">
<path style="fill:none;stroke-width:0.0201033;stroke-linecap:butt;stroke-linejoin:miter;stroke:rgb(17.96875%,20.3125%,21.09375%);stroke-opacity:0.8;stroke-miterlimit:10;" d="M 2.176062 3.245447 L 1.773917 2.936959 " transform="matrix(220.176472,0,0,220.176472,-119.668457,-159.004708)"/>
</g>
</g>
</g>
<g clip-path="url(#clip28)" clip-rule="nonzero">
<g clip-path="url(#clip29)" clip-rule="evenodd">
<g clip-path="url(#clip30)" clip-rule="evenodd">
<path style="fill:none;stroke-width:0.0201033;stroke-linecap:butt;stroke-linejoin:miter;stroke:rgb(17.96875%,20.3125%,21.09375%);stroke-opacity:0.8;stroke-miterlimit:10;" d="M 2.176062 3.245447 L 2.341217 2.927999 " transform="matrix(220.176472,0,0,220.176472,-119.668457,-159.004708)"/>
</g>
</g>
</g>
<g clip-path="url(#clip31)" clip-rule="nonzero">
<g clip-path="url(#clip32)" clip-rule="evenodd">
<g clip-path="url(#clip33)" clip-rule="evenodd">
<path style="fill:none;stroke-width:0.0201033;stroke-linecap:butt;stroke-linejoin:miter;stroke:rgb(17.96875%,20.3125%,21.09375%);stroke-opacity:0.8;stroke-miterlimit:10;" d="M 1.773917 2.936959 L 2.341217 2.927999 " transform="matrix(220.176472,0,0,220.176472,-119.668457,-159.004708)"/>
</g>
</g>
</g>
<g clip-path="url(#clip34)" clip-rule="nonzero">
<g clip-path="url(#clip35)" clip-rule="evenodd">
<g clip-path="url(#clip36)" clip-rule="evenodd">
<path style="fill:none;stroke-width:0.0201033;stroke-linecap:butt;stroke-linejoin:miter;stroke:rgb(17.96875%,20.3125%,21.09375%);stroke-opacity:0.8;stroke-miterlimit:10;" d="M 1.773917 2.936959 L 2.390716 2.76602 " transform="matrix(220.176472,0,0,220.176472,-119.668457,-159.004708)"/>
</g>
</g>
</g>
<g clip-path="url(#clip37)" clip-rule="nonzero">
<g clip-path="url(#clip38)" clip-rule="evenodd">
<g clip-path="url(#clip39)" clip-rule="evenodd">
<path style="fill:none;stroke-width:0.0201033;stroke-linecap:butt;stroke-linejoin:miter;stroke:rgb(17.96875%,20.3125%,21.09375%);stroke-opacity:0.8;stroke-miterlimit:10;" d="M 1.773917 2.936959 L 1.175409 2.625242 " transform="matrix(220.176472,0,0,220.176472,-119.668457,-159.004708)"/>
</g>
</g>
</g>
<g clip-path="url(#clip40)" clip-rule="nonzero">
<g clip-path="url(#clip41)" clip-rule="evenodd">
<g clip-path="url(#clip42)" clip-rule="evenodd">
<path style="fill:none;stroke-width:0.0201033;stroke-linecap:butt;stroke-linejoin:miter;stroke:rgb(17.96875%,20.3125%,21.09375%);stroke-opacity:0.8;stroke-miterlimit:10;" d="M 1.773917 2.936959 L 1.377945 3.078624 " transform="matrix(220.176472,0,0,220.176472,-119.668457,-159.004708)"/>
</g>
</g>
</g>
<g clip-path="url(#clip43)" clip-rule="nonzero">
<g clip-path="url(#clip44)" clip-rule="evenodd">
<g clip-path="url(#clip45)" clip-rule="evenodd">
<path style="fill:none;stroke-width:0.0201033;stroke-linecap:butt;stroke-linejoin:miter;stroke:rgb(17.96875%,20.3125%,21.09375%);stroke-opacity:0.8;stroke-miterlimit:10;" d="M 1.773917 2.936959 L 1.217048 2.801627 " transform="matrix(220.176472,0,0,220.176472,-119.668457,-159.004708)"/>
</g>
</g>
</g>
<g clip-path="url(#clip46)" clip-rule="nonzero">
<g clip-path="url(#clip47)" clip-rule="evenodd">
<g clip-path="url(#clip48)" clip-rule="evenodd">
<path style="fill:none;stroke-width:0.0201033;stroke-linecap:butt;stroke-linejoin:miter;stroke:rgb(17.96875%,20.3125%,21.09375%);stroke-opacity:0.8;stroke-miterlimit:10;" d="M 2.341217 2.927999 L 2.390716 2.76602 " transform="matrix(220.176472,0,0,220.176472,-119.668457,-159.004708)"/>
</g>
</g>
</g>
<g clip-path="url(#clip49)" clip-rule="nonzero">
<g clip-path="url(#clip50)" clip-rule="evenodd">
<g clip-path="url(#clip51)" clip-rule="evenodd">
<path style="fill:none;stroke-width:0.0201033;stroke-linecap:butt;stroke-linejoin:miter;stroke:rgb(17.96875%,20.3125%,21.09375%);stroke-opacity:0.8;stroke-miterlimit:10;" d="M 2.664804 1.188344 L 2.536249 1.174878 " transform="matrix(220.176472,0,0,220.176472,-119.668457,-159.004708)"/>
</g>
</g>
</g>
<g clip-path="url(#clip52)" clip-rule="nonzero">
<g clip-path="url(#clip53)" clip-rule="evenodd">
<g clip-path="url(#clip54)" clip-rule="evenodd">
<path style="fill:none;stroke-width:0.0201033;stroke-linecap:butt;stroke-linejoin:miter;stroke:rgb(17.96875%,20.3125%,21.09375%);stroke-opacity:0.8;stroke-miterlimit:10;" d="M 2.664804 1.188344 L 2.54386 0.923978 " transform="matrix(220.176472,0,0,220.176472,-119.668457,-159.004708)"/>
</g>
</g>
</g>
<g clip-path="url(#clip55)" clip-rule="nonzero">
<g clip-path="url(#clip56)" clip-rule="evenodd">
<g clip-path="url(#clip57)" clip-rule="evenodd">
<path style="fill:none;stroke-width:0.0201033;stroke-linecap:butt;stroke-linejoin:miter;stroke:rgb(17.96875%,20.3125%,21.09375%);stroke-opacity:0.8;stroke-miterlimit:10;" d="M 2.536249 1.174878 L 2.54386 0.923978 " transform="matrix(220.176472,0,0,220.176472,-119.668457,-159.004708)"/>
</g>
</g>
</g>
<g clip-path="url(#clip58)" clip-rule="nonzero">
<g clip-path="url(#clip59)" clip-rule="evenodd">
<g clip-path="url(#clip60)" clip-rule="evenodd">
<path style="fill:none;stroke-width:0.0201033;stroke-linecap:butt;stroke-linejoin:miter;stroke:rgb(17.96875%,20.3125%,21.09375%);stroke-opacity:0.8;stroke-miterlimit:10;" d="M 1.175409 2.625242 L 0.904692 2.508006 " transform="matrix(220.176472,0,0,220.176472,-119.668457,-159.004708)"/>
</g>
</g>
</g>
<g clip-path="url(#clip61)" clip-rule="nonzero">
<g clip-path="url(#clip62)" clip-rule="evenodd">
<g clip-path="url(#clip63)" clip-rule="evenodd">
<path style="fill:none;stroke-width:0.0201033;stroke-linecap:butt;stroke-linejoin:miter;stroke:rgb(17.96875%,20.3125%,21.09375%);stroke-opacity:0.8;stroke-miterlimit:10;" d="M 1.175409 2.625242 L 1.217048 2.801627 " transform="matrix(220.176472,0,0,220.176472,-119.668457,-159.004708)"/>
</g>
</g>
</g>
<g clip-path="url(#clip64)" clip-rule="nonzero">
<g clip-path="url(#clip65)" clip-rule="evenodd">
<g clip-path="url(#clip66)" clip-rule="evenodd">
<path style="fill:none;stroke-width:0.0201033;stroke-linecap:butt;stroke-linejoin:miter;stroke:rgb(17.96875%,20.3125%,21.09375%);stroke-opacity:0.8;stroke-miterlimit:10;" d="M 0.904692 2.508006 L 1.217048 2.801627 " transform="matrix(220.176472,0,0,220.176472,-119.668457,-159.004708)"/>
</g>
</g>
</g>
<g clip-path="url(#clip67)" clip-rule="nonzero">
<g clip-path="url(#clip68)" clip-rule="evenodd">
<g clip-path="url(#clip69)" clip-rule="evenodd">
<path style="fill:none;stroke-width:0.0201033;stroke-linecap:butt;stroke-linejoin:miter;stroke:rgb(17.96875%,20.3125%,21.09375%);stroke-opacity:0.8;stroke-miterlimit:10;" d="M 1.377945 3.078624 L 1.217048 2.801627 " transform="matrix(220.176472,0,0,220.176472,-119.668457,-159.004708)"/>
</g>
</g>
</g>
<path style="fill-rule:nonzero;fill:rgb(100%,92.941176%,43.529412%);fill-opacity:1;stroke-width:0.0201033;stroke-linecap:butt;stroke-linejoin:miter;stroke:rgb(60%,60%,60%);stroke-opacity:0.8;stroke-miterlimit:10;" d="M 0.100515 -0.00000152286 C 0.100515 0.0555115 0.0555049 0.100522 -0.00000805288 0.100522 C -0.0555211 0.100522 -0.100513 0.0555115 -0.100513 -0.00000152286 C -0.100513 -0.0555145 -0.0555211 -0.100525 -0.00000805288 -0.100525 C 0.0555049 -0.100525 0.100515 -0.0555145 0.100515 -0.00000152286 Z M 0.100515 -0.00000152286 " transform="matrix(220.176472,0,0,220.176472,446.954898,199.887054)"/>
<path style="fill-rule:nonzero;fill:rgb(100%,92.941176%,43.529412%);fill-opacity:1;stroke-width:0.0201033;stroke-linecap:butt;stroke-linejoin:miter;stroke:rgb(60%,60%,60%);stroke-opacity:0.8;stroke-miterlimit:10;" d="M 0.100524 0.00000052461 C 0.100524 0.0555135 0.0555138 0.100524 0.000000800975 0.100524 C -0.0555122 0.100524 -0.100522 0.0555135 -0.100522 0.00000052461 C -0.100522 -0.0555125 -0.0555122 -0.100523 0.000000800975 -0.100523 C 0.0555138 -0.100523 0.100524 -0.0555125 0.100524 0.00000052461 Z M 0.100524 0.00000052461 " transform="matrix(220.176472,0,0,220.176472,520.476386,288.074103)"/>
<path style="fill-rule:nonzero;fill:rgb(100%,92.941176%,43.529412%);fill-opacity:1;stroke-width:0.0201033;stroke-linecap:butt;stroke-linejoin:miter;stroke:rgb(60%,60%,60%);stroke-opacity:0.8;stroke-miterlimit:10;" d="M 0.100522 -0.00000201045 C 0.100522 0.055511 0.0555122 0.100521 -0.000000821717 0.100521 C -0.0555138 0.100521 -0.100524 0.055511 -0.100524 -0.00000201045 C -0.100524 -0.055515 -0.0555138 -0.100525 -0.000000821717 -0.100525 C 0.0555122 -0.100525 0.100522 -0.055515 0.100522 -0.00000201045 Z M 0.100522 -0.00000201045 " transform="matrix(220.176472,0,0,220.176472,465.812681,361.703568)"/>
<path style="fill-rule:nonzero;fill:rgb(100%,92.941176%,43.529412%);fill-opacity:1;stroke-width:0.0201033;stroke-linecap:butt;stroke-linejoin:miter;stroke:rgb(60%,60%,60%);stroke-opacity:0.8;stroke-miterlimit:10;" d="M 0.100521 0.00000352852 C 0.100521 0.0555165 0.0555105 0.100509 -0.00000252657 0.100509 C -0.0555155 0.100509 -0.100508 0.0555165 -0.100508 0.00000352852 C -0.100508 -0.0555095 -0.0555155 -0.10052 -0.00000252657 -0.10052 C 0.0555105 -0.10052 0.100521 -0.0555095 0.100521 0.00000352852 Z M 0.100521 0.00000352852 " transform="matrix(220.176472,0,0,220.176472,320.512275,144.276567)"/>
<path style="fill-rule:nonzero;fill:rgb(55.294118%,82.745098%,78.039216%);fill-opacity:1;stroke-width:0.0201033;stroke-linecap:butt;stroke-linejoin:miter;stroke:rgb(60%,60%,60%);stroke-opacity:0.8;stroke-miterlimit:10;" d="M 0.100524 0.00000490371 C 0.100524 0.0555179 0.0555136 0.10051 0.000000577282 0.10051 C -0.0555124 0.10051 -0.100522 0.0555179 -0.100522 0.00000490371 C -0.100522 -0.0555081 -0.0555124 -0.100518 0.000000577282 -0.100518 C 0.0555136 -0.100518 0.100524 -0.0555081 0.100524 0.00000490371 Z M 0.100524 0.00000490371 " transform="matrix(220.176472,0,0,220.176472,359.449092,555.565327)"/>
<path style="fill-rule:nonzero;fill:rgb(55.294118%,82.745098%,78.039216%);fill-opacity:1;stroke-width:0.0201033;stroke-linecap:butt;stroke-linejoin:miter;stroke:rgb(60%,60%,60%);stroke-opacity:0.8;stroke-miterlimit:10;" d="M 0.100515 -0.00000687328 C 0.100515 0.0555061 0.0555051 0.100516 -0.0000079325 0.100516 C -0.0555209 0.100516 -0.100513 0.0555061 -0.100513 -0.00000687328 C -0.100513 -0.0555199 -0.0555209 -0.100512 -0.0000079325 -0.100512 C 0.0555051 -0.100512 0.100515 -0.0555199 0.100515 -0.00000687328 Z M 0.100515 -0.00000687328 " transform="matrix(220.176472,0,0,220.176472,270.907997,487.646045)"/>
<path style="fill-rule:nonzero;fill:rgb(55.294118%,82.745098%,78.039216%);fill-opacity:1;stroke-width:0.0201033;stroke-linecap:butt;stroke-linejoin:miter;stroke:rgb(60%,60%,60%);stroke-opacity:0.8;stroke-miterlimit:10;" d="M 0.100509 0.00000736105 C 0.100509 0.0555204 0.0555171 0.100513 0.0000040972 0.100513 C -0.0555089 0.100513 -0.100519 0.0555204 -0.100519 0.00000736105 C -0.100519 -0.0555056 -0.0555089 -0.100516 0.0000040972 -0.100516 C 0.0555171 -0.100516 0.100509 -0.0555056 0.100509 0.00000736105 Z M 0.100509 0.00000736105 " transform="matrix(220.176472,0,0,220.176472,395.811598,485.670254)"/>
<path style="fill-rule:nonzero;fill:rgb(55.294118%,82.745098%,78.039216%);fill-opacity:1;stroke-width:0.0201033;stroke-linecap:butt;stroke-linejoin:miter;stroke:rgb(60%,60%,60%);stroke-opacity:0.8;stroke-miterlimit:10;" d="M 0.10051 0.00000354736 C 0.10051 0.0555165 0.0555174 0.100509 0.00000440404 0.100509 C -0.0555086 0.100509 -0.100519 0.0555165 -0.100519 0.00000354736 C -0.100519 -0.0555095 -0.0555086 -0.10052 0.00000440404 -0.10052 C 0.0555174 -0.10052 0.10051 -0.0555095 0.10051 0.00000354736 Z M 0.10051 0.00000354736 " transform="matrix(220.176472,0,0,220.176472,406.709968,450.007031)"/>
<path style="fill-rule:nonzero;fill:rgb(100%,92.941176%,43.529412%);fill-opacity:1;stroke-width:0.0201033;stroke-linecap:butt;stroke-linejoin:miter;stroke:rgb(60%,60%,60%);stroke-opacity:0.8;stroke-miterlimit:10;" d="M 0.100522 0.00000278007 C 0.100522 0.0555158 0.0555116 0.100508 -0.00000140491 0.100508 C -0.0555144 0.100508 -0.100524 0.0555158 -0.100524 0.00000278007 C -0.100524 -0.0555102 -0.0555144 -0.10052 -0.00000140491 -0.10052 C 0.0555116 -0.10052 0.100522 -0.0555102 0.100522 0.00000278007 Z M 0.100522 0.00000278007 " transform="matrix(220.176472,0,0,220.176472,467.058903,102.640013)"/>
<path style="fill-rule:nonzero;fill:rgb(100%,92.941176%,43.529412%);fill-opacity:1;stroke-width:0.0201033;stroke-linecap:butt;stroke-linejoin:miter;stroke:rgb(60%,60%,60%);stroke-opacity:0.8;stroke-miterlimit:10;" d="M 0.10052 0.00000817885 C 0.10052 0.0555212 0.0555095 0.100513 -0.00000347759 0.100513 C -0.0555165 0.100513 -0.100509 0.0555212 -0.100509 0.00000817885 C -0.100509 -0.0555048 -0.0555165 -0.100515 -0.00000347759 -0.100515 C 0.0555095 -0.100515 0.10052 -0.0555048 0.10052 0.00000817885 Z M 0.10052 0.00000817885 " transform="matrix(220.176472,0,0,220.176472,438.754672,99.67398)"/>
<path style="fill-rule:nonzero;fill:rgb(100%,92.941176%,43.529412%);fill-opacity:1;stroke-width:0.0201033;stroke-linecap:butt;stroke-linejoin:miter;stroke:rgb(60%,60%,60%);stroke-opacity:0.8;stroke-miterlimit:10;" d="M 0.100522 -0.00000490371 C 0.100522 0.0555081 0.0555123 0.100518 -0.000000655236 0.100518 C -0.0555137 0.100518 -0.100524 0.0555081 -0.100524 -0.00000490371 C -0.100524 -0.0555179 -0.0555137 -0.10051 -0.000000655236 -0.10051 C 0.0555123 -0.10051 0.100522 -0.0555179 0.100522 -0.00000490371 Z M 0.100522 -0.00000490371 " transform="matrix(220.176472,0,0,220.176472,440.429832,44.434673)"/>
<path style="fill-rule:nonzero;fill:rgb(55.294118%,82.745098%,78.039216%);fill-opacity:1;stroke-width:0.0201033;stroke-linecap:butt;stroke-linejoin:miter;stroke:rgb(60%,60%,60%);stroke-opacity:0.8;stroke-miterlimit:10;" d="M 0.100524 0.00000168659 C 0.100524 0.0555147 0.0555143 0.100525 0.00000132195 0.100525 C -0.0555117 0.100525 -0.100522 0.0555147 -0.100522 0.00000168659 C -0.100522 -0.0555113 -0.0555117 -0.100521 0.00000132195 -0.100521 C 0.0555143 -0.100521 0.100524 -0.0555113 0.100524 0.00000168659 Z M 0.100524 0.00000168659 " transform="matrix(220.176472,0,0,220.176472,139.128615,419.011347)"/>
<path style="fill-rule:nonzero;fill:rgb(55.294118%,82.745098%,78.039216%);fill-opacity:1;stroke-width:0.0201033;stroke-linecap:butt;stroke-linejoin:miter;stroke:rgb(60%,60%,60%);stroke-opacity:0.8;stroke-miterlimit:10;" d="M 0.100522 0.00000292792 C 0.100522 0.0555159 0.0555122 0.100508 -0.000000800975 0.100508 C -0.0555138 0.100508 -0.100524 0.0555159 -0.100524 0.00000292792 C -0.100524 -0.0555101 -0.0555138 -0.10052 -0.000000800975 -0.10052 C 0.0555122 -0.10052 0.100522 -0.0555101 0.100522 0.00000292792 Z M 0.100522 0.00000292792 " transform="matrix(220.176472,0,0,220.176472,79.523614,393.198574)"/>
<path style="fill-rule:nonzero;fill:rgb(55.294118%,82.745098%,78.039216%);fill-opacity:1;stroke-width:0.0201033;stroke-linecap:butt;stroke-linejoin:miter;stroke:rgb(60%,60%,60%);stroke-opacity:0.8;stroke-miterlimit:10;" d="M 0.100521 -0.00000447762 C 0.100521 0.0555085 0.0555113 0.100519 -0.00000172136 0.100519 C -0.0555147 0.100519 -0.100525 0.0555085 -0.100525 -0.00000447762 C -0.100525 -0.0555175 -0.0555147 -0.10051 -0.00000172136 -0.10051 C 0.0555113 -0.10051 0.100521 -0.0555175 0.100521 -0.00000447762 Z M 0.100521 -0.00000447762 " transform="matrix(220.176472,0,0,220.176472,183.723035,518.836923)"/>
<path style="fill-rule:nonzero;fill:rgb(55.294118%,82.745098%,78.039216%);fill-opacity:1;stroke-width:0.0201033;stroke-linecap:butt;stroke-linejoin:miter;stroke:rgb(60%,60%,60%);stroke-opacity:0.8;stroke-miterlimit:10;" d="M 0.10052 0.0000053308 C 0.10052 0.0555183 0.0555103 0.100511 -0.00000265772 0.100511 C -0.0555157 0.100511 -0.100508 0.0555183 -0.100508 0.0000053308 C -0.100508 -0.0555077 -0.0555157 -0.100518 -0.00000265772 -0.100518 C 0.0555103 -0.100518 0.10052 -0.0555077 0.10052 0.0000053308 Z M 0.10052 0.0000053308 " transform="matrix(220.176472,0,0,220.176472,148.29746,457.846483)"/>
</g>
</svg>
