<?xml version="1.0" encoding="UTF-8"?>
<svg xmlns="http://www.w3.org/2000/svg" xmlns:xlink="http://www.w3.org/1999/xlink" width="600pt" height="600pt" viewBox="0 0 600 600" version="1.1">
<defs>
<clipPath id="clip1">
  <path d="M 249 16 L 463 16 L 463 216 L 249 216 Z M 249 16 "/>
</clipPath>
<clipPath id="clip2">
  <path d="M 166.570312 -94.585938 L 545.132812 -94.585938 L 545.132812 326.59375 L 166.570312 326.59375 Z M 166.570312 -94.585938 L 422.175781 152.679688 C 422.175781 164.902344 412.265625 174.808594 400.042969 174.808594 C 387.820312 174.808594 377.910156 164.902344 377.910156 152.679688 C 377.910156 140.457031 387.820312 130.546875 400.042969 130.546875 C 412.265625 130.546875 422.175781 140.457031 422.175781 152.679688 Z M 166.570312 -94.585938 "/>
</clipPath>
<clipPath id="clip3">
  <path d="M 166.570312 -94.585938 L 545.132812 -94.585938 L 545.132812 326.59375 L 166.570312 326.59375 Z M 166.570312 -94.585938 L 333.792969 79.328125 C 333.792969 91.550781 323.882812 101.460938 311.660156 101.460938 C 299.4375 101.460938 289.53125 91.550781 289.53125 79.328125 C 289.53125 67.105469 299.4375 57.195312 311.660156 57.195312 C 323.882812 57.195312 333.792969 67.105469 333.792969 79.328125 Z M 166.570312 -94.585938 "/>
</clipPath>
<clipPath id="clip4">
  <path d="M 208.695312 71 L 429.476562 71 L 429.476562 216 L 208.695312 216 Z M 208.695312 71 "/>
</clipPath>
<clipPath id="clip5">
  <path d="M 208.695312 -89.082031 L 429.476562 -89.082031 L 429.476562 375.9375 L 208.695312 375.9375 Z M 208.695312 -89.082031 L 422.175781 152.679688 C 422.175781 164.902344 412.265625 174.808594 400.042969 174.808594 C 387.820312 174.808594 377.910156 164.902344 377.910156 152.679688 C 377.910156 140.457031 387.820312 130.546875 400.042969 130.546875 C 412.265625 130.546875 422.175781 140.457031 422.175781 152.679688 Z M 208.695312 -89.082031 "/>
</clipPath>
<clipPath id="clip6">
  <path d="M 208.695312 -89.082031 L 429.476562 -89.082031 L 429.476562 375.9375 L 208.695312 375.9375 Z M 208.695312 -89.082031 L 260.257812 134.175781 C 260.257812 146.398438 250.351562 156.308594 238.128906 156.308594 C 225.90625 156.308594 215.996094 146.398438 215.996094 134.175781 C 215.996094 121.953125 225.90625 112.042969 238.128906 112.042969 C 250.351562 112.042969 260.257812 121.953125 260.257812 134.175781 Z M 208.695312 -89.082031 "/>
</clipPath>
<clipPath id="clip7">
  <path d="M 337 90 L 519 90 L 519 342 L 337 342 Z M 337 90 "/>
</clipPath>
<clipPath id="clip8">
  <path d="M 194.199219 59.128906 L 661.800781 59.128906 L 661.800781 372.59375 L 194.199219 372.59375 Z M 194.199219 59.128906 L 422.175781 152.679688 C 422.175781 164.902344 412.265625 174.808594 400.042969 174.808594 C 387.820312 174.808594 377.910156 164.902344 377.910156 152.679688 C 377.910156 140.457031 387.820312 130.546875 400.042969 130.546875 C 412.265625 130.546875 422.175781 140.457031 422.175781 152.679688 Z M 194.199219 59.128906 "/>
</clipPath>
<clipPath id="clip9">
  <path d="M 194.199219 59.128906 L 661.800781 59.128906 L 661.800781 372.59375 L 194.199219 372.59375 Z M 194.199219 59.128906 L 478.085938 279.042969 C 478.085938 291.265625 468.179688 301.171875 455.957031 301.171875 C 443.734375 301.171875 433.824219 291.265625 433.824219 279.042969 C 433.824219 266.820312 443.734375 256.910156 455.957031 256.910156 C 468.179688 256.910156 478.085938 266.820312 478.085938 279.042969 Z M 194.199219 59.128906 "/>
</clipPath>
<clipPath id="clip10">
  <path d="M 350.546875 69 L 546.777344 69 L 546.777344 216 L 350.546875 216 Z M 350.546875 69 "/>
</clipPath>
<clipPath id="clip11">
  <path d="M 350.546875 -87.667969 L 546.777344 -87.667969 L 546.777344 372.699219 L 350.546875 372.699219 Z M 350.546875 -87.667969 L 422.175781 152.679688 C 422.175781 164.902344 412.265625 174.808594 400.042969 174.808594 C 387.820312 174.808594 377.910156 164.902344 377.910156 152.679688 C 377.910156 140.457031 387.820312 130.546875 400.042969 130.546875 C 412.265625 130.546875 422.175781 140.457031 422.175781 152.679688 Z M 350.546875 -87.667969 "/>
</clipPath>
<clipPath id="clip12">
  <path d="M 350.546875 -87.667969 L 546.777344 -87.667969 L 546.777344 372.699219 L 350.546875 372.699219 Z M 350.546875 -87.667969 L 519.410156 132.351562 C 519.410156 144.574219 509.503906 154.480469 497.28125 154.480469 C 485.058594 154.480469 475.148438 144.574219 475.148438 132.351562 C 475.148438 120.128906 485.058594 110.21875 497.28125 110.21875 C 509.503906 110.21875 519.410156 120.128906 519.410156 132.351562 Z M 350.546875 -87.667969 "/>
</clipPath>
<clipPath id="clip13">
  <path d="M 378.148438 90 L 522.203125 90 L 522.203125 224 L 378.148438 224 Z M 378.148438 90 "/>
</clipPath>
<clipPath id="clip14">
  <path d="M 378.148438 -71.308594 L 522.203125 -71.308594 L 522.203125 384.644531 L 378.148438 384.644531 Z M 378.148438 -71.308594 L 422.175781 152.679688 C 422.175781 164.902344 412.265625 174.808594 400.042969 174.808594 C 387.820312 174.808594 377.910156 164.902344 377.910156 152.679688 C 377.910156 140.457031 387.820312 130.546875 400.042969 130.546875 C 412.265625 130.546875 422.175781 140.457031 422.175781 152.679688 Z M 378.148438 -71.308594 "/>
</clipPath>
<clipPath id="clip15">
  <path d="M 378.148438 -71.308594 L 522.203125 -71.308594 L 522.203125 384.644531 L 378.148438 384.644531 Z M 378.148438 -71.308594 L 522.441406 160.65625 C 522.441406 172.878906 512.53125 182.789062 500.308594 182.789062 C 488.085938 182.789062 478.179688 172.878906 478.179688 160.65625 C 478.179688 148.433594 488.085938 138.527344 500.308594 138.527344 C 512.53125 138.527344 522.441406 148.433594 522.441406 160.65625 Z M 378.148438 -71.308594 "/>
</clipPath>
<clipPath id="clip16">
  <path d="M 175 16 L 375 16 L 375 197 L 175 197 Z M 175 16 "/>
</clipPath>
<clipPath id="clip17">
  <path d="M 102.011719 -101.648438 L 447.777344 -101.648438 L 447.777344 315.152344 L 102.011719 315.152344 Z M 102.011719 -101.648438 L 333.792969 79.328125 C 333.792969 91.550781 323.882812 101.460938 311.660156 101.460938 C 299.4375 101.460938 289.53125 91.550781 289.53125 79.328125 C 289.53125 67.105469 299.4375 57.195312 311.660156 57.195312 C 323.882812 57.195312 333.792969 67.105469 333.792969 79.328125 Z M 102.011719 -101.648438 "/>
</clipPath>
<clipPath id="clip18">
  <path d="M 102.011719 -101.648438 L 447.777344 -101.648438 L 447.777344 315.152344 L 102.011719 315.152344 Z M 102.011719 -101.648438 L 260.257812 134.175781 C 260.257812 146.398438 250.351562 156.308594 238.128906 156.308594 C 225.90625 156.308594 215.996094 146.398438 215.996094 134.175781 C 215.996094 121.953125 225.90625 112.042969 238.128906 112.042969 C 250.351562 112.042969 260.257812 121.953125 260.257812 134.175781 Z M 102.011719 -101.648438 "/>
</clipPath>
<clipPath id="clip19">
  <path d="M 51 71 L 301 71 L 301 268 L 51 268 Z M 51 71 "/>
</clipPath>
<clipPath id="clip20">
  <path d="M 1.117188 -61.796875 L 351.285156 -61.796875 L 351.285156 400.453125 L 1.117188 400.453125 Z M 1.117188 -61.796875 L 260.257812 134.175781 C 260.257812 146.398438 250.351562 156.308594 238.128906 156.308594 C 225.90625 156.308594 215.996094 146.398438 215.996094 134.175781 C 215.996094 121.953125 225.90625 112.042969 238.128906 112.042969 C 250.351562 112.042969 260.257812 121.953125 260.257812 134.175781 Z M 1.117188 -61.796875 "/>
</clipPath>
<clipPath id="clip21">
  <path d="M 1.117188 -61.796875 L 351.285156 -61.796875 L 351.285156 400.453125 L 1.117188 400.453125 Z M 1.117188 -61.796875 L 136.40625 204.480469 C 136.40625 216.703125 126.496094 226.609375 114.273438 226.609375 C 102.050781 226.609375 92.140625 216.703125 92.140625 204.480469 C 92.140625 192.253906 102.050781 182.347656 114.273438 182.347656 C 126.496094 182.347656 136.40625 192.253906 136.40625 204.480469 Z M 1.117188 -61.796875 "/>
</clipPath>
<clipPath id="clip22">
  <path d="M 87 71 L 301 71 L 301 257 L 87 257 Z M 87 71 "/>
</clipPath>
<clipPath id="clip23">
  <path d="M 22.582031 -53.015625 L 365.472656 -53.015625 L 365.472656 380.6875 L 22.582031 380.6875 Z M 22.582031 -53.015625 L 260.257812 134.175781 C 260.257812 146.398438 250.351562 156.308594 238.128906 156.308594 C 225.90625 156.308594 215.996094 146.398438 215.996094 134.175781 C 215.996094 121.953125 225.90625 112.042969 238.128906 112.042969 C 250.351562 112.042969 260.257812 121.953125 260.257812 134.175781 Z M 22.582031 -53.015625 "/>
</clipPath>
<clipPath id="clip24">
  <path d="M 22.582031 -53.015625 L 365.472656 -53.015625 L 365.472656 380.6875 L 22.582031 380.6875 Z M 22.582031 -53.015625 L 172.054688 193.496094 C 172.054688 205.71875 162.148438 215.628906 149.925781 215.628906 C 137.703125 215.628906 127.792969 205.71875 127.792969 193.496094 C 127.792969 181.273438 137.703125 171.367188 149.925781 171.367188 C 162.148438 171.367188 172.054688 181.273438 172.054688 193.496094 Z M 22.582031 -53.015625 "/>
</clipPath>
<clipPath id="clip25">
  <path d="M 0 178 L 176 178 L 176 393 L 0 393 Z M 0 178 "/>
</clipPath>
<clipPath id="clip26">
  <path d="M -134.449219 102.136719 L 291.457031 102.136719 L 291.457031 468.304688 L -134.449219 468.304688 Z M -134.449219 102.136719 L 66.566406 241.011719 C 66.566406 253.234375 56.65625 263.140625 44.433594 263.140625 C 32.210938 263.140625 22.304688 253.234375 22.304688 241.011719 C 22.304688 228.789062 32.210938 218.878906 44.433594 218.878906 C 56.65625 218.878906 66.566406 228.789062 66.566406 241.011719 Z M -134.449219 102.136719 "/>
</clipPath>
<clipPath id="clip27">
  <path d="M -134.449219 102.136719 L 291.457031 102.136719 L 291.457031 468.304688 L -134.449219 468.304688 Z M -134.449219 102.136719 L 134.707031 329.429688 C 134.707031 341.652344 124.796875 351.5625 112.574219 351.5625 C 100.351562 351.5625 90.445312 341.652344 90.445312 329.429688 C 90.445312 317.207031 100.351562 307.300781 112.574219 307.300781 C 124.796875 307.300781 134.707031 317.207031 134.707031 329.429688 Z M -134.449219 102.136719 "/>
</clipPath>
<clipPath id="clip28">
  <path d="M 0 141 L 177 141 L 177 304 L 0 304 Z M 0 141 "/>
</clipPath>
<clipPath id="clip29">
  <path d="M -62.078125 4.886719 L 220.785156 4.886719 L 220.785156 440.605469 L -62.078125 440.605469 Z M -62.078125 4.886719 L 66.566406 241.011719 C 66.566406 253.234375 56.65625 263.140625 44.433594 263.140625 C 32.210938 263.140625 22.304688 253.234375 22.304688 241.011719 C 22.304688 228.789062 32.210938 218.878906 44.433594 218.878906 C 56.65625 218.878906 66.566406 228.789062 66.566406 241.011719 Z M -62.078125 4.886719 "/>
</clipPath>
<clipPath id="clip30">
  <path d="M -62.078125 4.886719 L 220.785156 4.886719 L 220.785156 440.605469 L -62.078125 440.605469 Z M -62.078125 4.886719 L 136.40625 204.480469 C 136.40625 216.703125 126.496094 226.609375 114.273438 226.609375 C 102.050781 226.609375 92.140625 216.703125 92.140625 204.480469 C 92.140625 192.253906 102.050781 182.347656 114.273438 182.347656 C 126.496094 182.347656 136.40625 192.253906 136.40625 204.480469 Z M -62.078125 4.886719 "/>
</clipPath>
<clipPath id="clip31">
  <path d="M 49 197.058594 L 177 197.058594 L 177 336.851562 L 49 336.851562 Z M 49 197.058594 "/>
</clipPath>
<clipPath id="clip32">
  <path d="M -112.085938 197.058594 L 338.933594 197.058594 L 338.933594 336.851562 L -112.085938 336.851562 Z M -112.085938 197.058594 L 134.707031 329.429688 C 134.707031 341.652344 124.796875 351.5625 112.574219 351.5625 C 100.351562 351.5625 90.445312 341.652344 90.445312 329.429688 C 90.445312 317.207031 100.351562 307.300781 112.574219 307.300781 C 124.796875 307.300781 134.707031 317.207031 134.707031 329.429688 Z M -112.085938 197.058594 "/>
</clipPath>
<clipPath id="clip33">
  <path d="M -112.085938 197.058594 L 338.933594 197.058594 L 338.933594 336.851562 L -112.085938 336.851562 Z M -112.085938 197.058594 L 136.40625 204.480469 C 136.40625 216.703125 126.496094 226.609375 114.273438 226.609375 C 102.050781 226.609375 92.140625 216.703125 92.140625 204.480469 C 92.140625 192.253906 102.050781 182.347656 114.273438 182.347656 C 126.496094 182.347656 136.40625 192.253906 136.40625 204.480469 Z M -112.085938 197.058594 "/>
</clipPath>
<clipPath id="clip34">
  <path d="M 49 130.710938 L 213 130.710938 L 213 392.214844 L 49 392.214844 Z M 49 130.710938 "/>
</clipPath>
<clipPath id="clip35">
  <path d="M -104.234375 130.710938 L 366.734375 130.710938 L 366.734375 392.214844 L -104.234375 392.214844 Z M -104.234375 130.710938 L 134.707031 329.429688 C 134.707031 341.652344 124.796875 351.5625 112.574219 351.5625 C 100.351562 351.5625 90.445312 341.652344 90.445312 329.429688 C 90.445312 317.207031 100.351562 307.300781 112.574219 307.300781 C 124.796875 307.300781 134.707031 317.207031 134.707031 329.429688 Z M -104.234375 130.710938 "/>
</clipPath>
<clipPath id="clip36">
  <path d="M -104.234375 130.710938 L 366.734375 130.710938 L 366.734375 392.214844 L -104.234375 392.214844 Z M -104.234375 130.710938 L 172.054688 193.496094 C 172.054688 205.71875 162.148438 215.628906 149.925781 215.628906 C 137.703125 215.628906 127.792969 205.71875 127.792969 193.496094 C 127.792969 181.273438 137.703125 171.367188 149.925781 171.367188 C 162.148438 171.367188 172.054688 181.273438 172.054688 193.496094 Z M -104.234375 130.710938 "/>
</clipPath>
<clipPath id="clip37">
  <path d="M 49 266 L 245 266 L 245 524 L 49 524 Z M 49 266 "/>
</clipPath>
<clipPath id="clip38">
  <path d="M -86.96875 222.820312 L 381.074219 222.820312 L 381.074219 567.710938 L -86.96875 567.710938 Z M -86.96875 222.820312 L 134.707031 329.429688 C 134.707031 341.652344 124.796875 351.5625 112.574219 351.5625 C 100.351562 351.5625 90.445312 341.652344 90.445312 329.429688 C 90.445312 317.207031 100.351562 307.300781 112.574219 307.300781 C 124.796875 307.300781 134.707031 317.207031 134.707031 329.429688 Z M -86.96875 222.820312 "/>
</clipPath>
<clipPath id="clip39">
  <path d="M -86.96875 222.820312 L 381.074219 222.820312 L 381.074219 567.710938 L -86.96875 567.710938 Z M -86.96875 222.820312 L 203.660156 461.101562 C 203.660156 473.328125 193.753906 483.234375 181.53125 483.234375 C 169.304688 483.234375 159.398438 473.328125 159.398438 461.101562 C 159.398438 448.878906 169.304688 438.972656 181.53125 438.972656 C 193.753906 438.972656 203.660156 448.878906 203.660156 461.101562 Z M -86.96875 222.820312 "/>
</clipPath>
<clipPath id="clip40">
  <path d="M 18 266 L 176 266 L 176 480 L 18 480 Z M 18 266 "/>
</clipPath>
<clipPath id="clip41">
  <path d="M -130.40625 251.28125 L 324.550781 251.28125 L 324.550781 494.863281 L -130.40625 494.863281 Z M -130.40625 251.28125 L 134.707031 329.429688 C 134.707031 341.652344 124.796875 351.5625 112.574219 351.5625 C 100.351562 351.5625 90.445312 341.652344 90.445312 329.429688 C 90.445312 317.207031 100.351562 307.300781 112.574219 307.300781 C 124.796875 307.300781 134.707031 317.207031 134.707031 329.429688 Z M -130.40625 251.28125 "/>
</clipPath>
<clipPath id="clip42">
  <path d="M -130.40625 251.28125 L 324.550781 251.28125 L 324.550781 494.863281 L -130.40625 494.863281 Z M -130.40625 251.28125 L 103.699219 416.714844 C 103.699219 428.9375 93.792969 438.847656 81.570312 438.847656 C 69.347656 438.847656 59.4375 428.9375 59.4375 416.714844 C 59.4375 404.492188 69.347656 394.585938 81.570312 394.585938 C 93.792969 394.585938 103.699219 404.492188 103.699219 416.714844 Z M -130.40625 251.28125 "/>
</clipPath>
<clipPath id="clip43">
  <path d="M 49 272.507812 L 206 272.507812 L 206 508.941406 L 49 508.941406 Z M 49 272.507812 "/>
</clipPath>
<clipPath id="clip44">
  <path d="M -105.757812 272.507812 L 360.992188 272.507812 L 360.992188 508.941406 L -105.757812 508.941406 Z M -105.757812 272.507812 L 134.707031 329.429688 C 134.707031 341.652344 124.796875 351.5625 112.574219 351.5625 C 100.351562 351.5625 90.445312 341.652344 90.445312 329.429688 C 90.445312 317.207031 100.351562 307.300781 112.574219 307.300781 C 124.796875 307.300781 134.707031 317.207031 134.707031 329.429688 Z M -105.757812 272.507812 "/>
</clipPath>
<clipPath id="clip45">
  <path d="M -105.757812 272.507812 L 360.992188 272.507812 L 360.992188 508.941406 L -105.757812 508.941406 Z M -105.757812 272.507812 L 164.792969 452.019531 C 164.792969 464.242188 154.882812 474.148438 142.660156 474.148438 C 130.4375 474.148438 120.527344 464.242188 120.527344 452.019531 C 120.527344 439.796875 130.4375 429.886719 142.660156 429.886719 C 154.882812 429.886719 164.792969 439.796875 164.792969 452.019531 Z M -105.757812 272.507812 "/>
</clipPath>
<clipPath id="clip46">
  <path d="M 51 130 L 213 130 L 213 268 L 51 268 Z M 51 130 "/>
</clipPath>
<clipPath id="clip47">
  <path d="M 44.996094 -21.421875 L 219.203125 -21.421875 L 219.203125 419.398438 L 44.996094 419.398438 Z M 44.996094 -21.421875 L 136.40625 204.480469 C 136.40625 216.703125 126.496094 226.609375 114.273438 226.609375 C 102.050781 226.609375 92.140625 216.703125 92.140625 204.480469 C 92.140625 192.253906 102.050781 182.347656 114.273438 182.347656 C 126.496094 182.347656 136.40625 192.253906 136.40625 204.480469 Z M 44.996094 -21.421875 "/>
</clipPath>
<clipPath id="clip48">
  <path d="M 44.996094 -21.421875 L 219.203125 -21.421875 L 219.203125 419.398438 L 44.996094 419.398438 Z M 44.996094 -21.421875 L 172.054688 193.496094 C 172.054688 205.71875 162.148438 215.628906 149.925781 215.628906 C 137.703125 215.628906 127.792969 205.71875 127.792969 193.496094 C 127.792969 181.273438 137.703125 171.367188 149.925781 171.367188 C 162.148438 171.367188 172.054688 181.273438 172.054688 193.496094 Z M 44.996094 -21.421875 "/>
</clipPath>
<clipPath id="clip49">
  <path d="M 434 104.5 L 563 104.5 L 563 188.507812 L 434 188.507812 Z M 434 104.5 "/>
</clipPath>
<clipPath id="clip50">
  <path d="M 273.847656 104.5 L 723.742188 104.5 L 723.742188 188.507812 L 273.847656 188.507812 Z M 273.847656 104.5 L 519.410156 132.351562 C 519.410156 144.574219 509.503906 154.480469 497.28125 154.480469 C 485.058594 154.480469 475.148438 144.574219 475.148438 132.351562 C 475.148438 120.128906 485.058594 110.21875 497.28125 110.21875 C 509.503906 110.21875 519.410156 120.128906 519.410156 132.351562 Z M 273.847656 104.5 "/>
</clipPath>
<clipPath id="clip51">
  <path d="M 273.847656 104.5 L 723.742188 104.5 L 723.742188 188.507812 L 273.847656 188.507812 Z M 273.847656 104.5 L 522.441406 160.65625 C 522.441406 172.878906 512.53125 182.789062 500.308594 182.789062 C 488.085938 182.789062 478.179688 172.878906 478.179688 160.65625 C 478.179688 148.433594 488.085938 138.527344 500.308594 138.527344 C 512.53125 138.527344 522.441406 148.433594 522.441406 160.65625 Z M 273.847656 104.5 "/>
</clipPath>
<clipPath id="clip52">
  <path d="M 434 69 L 600 69 L 600 222 L 434 222 Z M 434 69 "/>
</clipPath>
<clipPath id="clip53">
  <path d="M 401.671875 -72.566406 L 651.175781 -72.566406 L 651.175781 363.777344 L 401.671875 363.777344 Z M 401.671875 -72.566406 L 519.410156 132.351562 C 519.410156 144.574219 509.503906 154.480469 497.28125 154.480469 C 485.058594 154.480469 475.148438 144.574219 475.148438 132.351562 C 475.148438 120.128906 485.058594 110.21875 497.28125 110.21875 C 509.503906 110.21875 519.410156 120.128906 519.410156 132.351562 Z M 401.671875 -72.566406 "/>
</clipPath>
<clipPath id="clip54">
  <path d="M 401.671875 -72.566406 L 651.175781 -72.566406 L 651.175781 363.777344 L 401.671875 363.777344 Z M 401.671875 -72.566406 L 577.695312 158.859375 C 577.695312 171.082031 567.789062 180.988281 555.566406 180.988281 C 543.34375 180.988281 533.433594 171.082031 533.433594 158.859375 C 533.433594 146.636719 543.34375 136.726562 555.566406 136.726562 C 567.789062 136.726562 577.695312 146.636719 577.695312 158.859375 Z M 401.671875 -72.566406 "/>
</clipPath>
<clipPath id="clip55">
  <path d="M 488.722656 96 L 567.152344 96 L 567.152344 224 L 488.722656 224 Z M 488.722656 96 "/>
</clipPath>
<clipPath id="clip56">
  <path d="M 488.722656 -65.703125 L 567.152344 -65.703125 L 567.152344 385.21875 L 488.722656 385.21875 Z M 488.722656 -65.703125 L 522.441406 160.65625 C 522.441406 172.878906 512.53125 182.789062 500.308594 182.789062 C 488.085938 182.789062 478.179688 172.878906 478.179688 160.65625 C 478.179688 148.433594 488.085938 138.527344 500.308594 138.527344 C 512.53125 138.527344 522.441406 148.433594 522.441406 160.65625 Z M 488.722656 -65.703125 "/>
</clipPath>
<clipPath id="clip57">
  <path d="M 488.722656 -65.703125 L 567.152344 -65.703125 L 567.152344 385.21875 L 488.722656 385.21875 Z M 488.722656 -65.703125 L 577.695312 158.859375 C 577.695312 171.082031 567.789062 180.988281 555.566406 180.988281 C 543.34375 180.988281 533.433594 171.082031 533.433594 158.859375 C 533.433594 146.636719 543.34375 136.726562 555.566406 136.726562 C 567.789062 136.726562 577.695312 146.636719 577.695312 158.859375 Z M 488.722656 -65.703125 "/>
</clipPath>
<clipPath id="clip58">
  <path d="M 118 398 L 271 398 L 271 584 L 118 584 Z M 118 398 "/>
</clipPath>
<clipPath id="clip59">
  <path d="M -24.816406 368.703125 L 413.832031 368.703125 L 413.832031 613.070312 L -24.816406 613.070312 Z M -24.816406 368.703125 L 203.660156 461.101562 C 203.660156 473.328125 193.753906 483.234375 181.53125 483.234375 C 169.304688 483.234375 159.398438 473.328125 159.398438 461.101562 C 159.398438 448.878906 169.304688 438.972656 181.53125 438.972656 C 193.753906 438.972656 203.660156 448.878906 203.660156 461.101562 Z M -24.816406 368.703125 "/>
</clipPath>
<clipPath id="clip60">
  <path d="M -24.816406 368.703125 L 413.832031 368.703125 L 413.832031 613.070312 L -24.816406 613.070312 Z M -24.816406 368.703125 L 229.617188 520.671875 C 229.617188 532.894531 219.707031 542.804688 207.484375 542.804688 C 195.261719 542.804688 185.351562 532.894531 185.351562 520.671875 C 185.351562 508.449219 195.261719 498.539062 207.484375 498.539062 C 219.707031 498.539062 229.617188 508.449219 229.617188 520.671875 Z M -24.816406 368.703125 "/>
</clipPath>
<clipPath id="clip61">
  <path d="M 88.121094 389 L 236.070312 389 L 236.070312 524 L 88.121094 524 Z M 88.121094 389 "/>
</clipPath>
<clipPath id="clip62">
  <path d="M 88.121094 233.113281 L 236.070312 233.113281 L 236.070312 680.007812 L 88.121094 680.007812 Z M 88.121094 233.113281 L 203.660156 461.101562 C 203.660156 473.328125 193.753906 483.234375 181.53125 483.234375 C 169.304688 483.234375 159.398438 473.328125 159.398438 461.101562 C 159.398438 448.878906 169.304688 438.972656 181.53125 438.972656 C 193.753906 438.972656 203.660156 448.878906 203.660156 461.101562 Z M 88.121094 233.113281 "/>
</clipPath>
<clipPath id="clip63">
  <path d="M 88.121094 233.113281 L 236.070312 233.113281 L 236.070312 680.007812 L 88.121094 680.007812 Z M 88.121094 233.113281 L 164.792969 452.019531 C 164.792969 464.242188 154.882812 474.148438 142.660156 474.148438 C 130.4375 474.148438 120.527344 464.242188 120.527344 452.019531 C 120.527344 439.796875 130.4375 429.886719 142.660156 429.886719 C 154.882812 429.886719 164.792969 439.796875 164.792969 452.019531 Z M 88.121094 233.113281 "/>
</clipPath>
<clipPath id="clip64">
  <path d="M 80 389 L 271 389 L 271 584 L 80 584 Z M 80 389 "/>
</clipPath>
<clipPath id="clip65">
  <path d="M -21.910156 296.378906 L 372.054688 296.378906 L 372.054688 676.3125 L -21.910156 676.3125 Z M -21.910156 296.378906 L 229.617188 520.671875 C 229.617188 532.894531 219.707031 542.804688 207.484375 542.804688 C 195.261719 542.804688 185.351562 532.894531 185.351562 520.671875 C 185.351562 508.449219 195.261719 498.539062 207.484375 498.539062 C 219.707031 498.539062 229.617188 508.449219 229.617188 520.671875 Z M -21.910156 296.378906 "/>
</clipPath>
<clipPath id="clip66">
  <path d="M -21.910156 296.378906 L 372.054688 296.378906 L 372.054688 676.3125 L -21.910156 676.3125 Z M -21.910156 296.378906 L 164.792969 452.019531 C 164.792969 464.242188 154.882812 474.148438 142.660156 474.148438 C 130.4375 474.148438 120.527344 464.242188 120.527344 452.019531 C 120.527344 439.796875 130.4375 429.886719 142.660156 429.886719 C 154.882812 429.886719 164.792969 439.796875 164.792969 452.019531 Z M -21.910156 296.378906 "/>
</clipPath>
<clipPath id="clip67">
  <path d="M 18 354 L 206 354 L 206 515 L 18 515 Z M 18 354 "/>
</clipPath>
<clipPath id="clip68">
  <path d="M -33.0625 221.589844 L 257.292969 221.589844 L 257.292969 647.144531 L -33.0625 647.144531 Z M -33.0625 221.589844 L 103.699219 416.714844 C 103.699219 428.9375 93.792969 438.847656 81.570312 438.847656 C 69.347656 438.847656 59.4375 428.9375 59.4375 416.714844 C 59.4375 404.492188 69.347656 394.585938 81.570312 394.585938 C 93.792969 394.585938 103.699219 404.492188 103.699219 416.714844 Z M -33.0625 221.589844 "/>
</clipPath>
<clipPath id="clip69">
  <path d="M -33.0625 221.589844 L 257.292969 221.589844 L 257.292969 647.144531 L -33.0625 647.144531 Z M -33.0625 221.589844 L 164.792969 452.019531 C 164.792969 464.242188 154.882812 474.148438 142.660156 474.148438 C 130.4375 474.148438 120.527344 464.242188 120.527344 452.019531 C 120.527344 439.796875 130.4375 429.886719 142.660156 429.886719 C 154.882812 429.886719 164.792969 439.796875 164.792969 452.019531 Z M -33.0625 221.589844 "/>
</clipPath>
</defs>
<g id="surface256">
<g clip-path="url(#clip1)" clip-rule="nonzero">
<g clip-path="url(#clip2)" clip-rule="evenodd">
<g clip-path="url(#clip3)" clip-rule="evenodd">
<path style="fill:none;stroke-width:0.0200961;stroke-linecap:butt;stroke-linejoin:miter;stroke:rgb(17.96875%,20.3125%,21.09375%);stroke-opacity:0.8;stroke-miterlimit:10;" d="M 2.531096 1.748149 L 2.129821 1.415119 " transform="matrix(220.254977,0,0,220.254977,-157.44362,-232.358822)"/>
</g>
</g>
</g>
<g clip-path="url(#clip4)" clip-rule="nonzero">
<g clip-path="url(#clip5)" clip-rule="evenodd">
<g clip-path="url(#clip6)" clip-rule="evenodd">
<path style="fill:none;stroke-width:0.0200961;stroke-linecap:butt;stroke-linejoin:miter;stroke:rgb(17.96875%,20.3125%,21.09375%);stroke-opacity:0.8;stroke-miterlimit:10;" d="M 2.531096 1.748149 L 1.795975 1.664138 " transform="matrix(220.254977,0,0,220.254977,-157.44362,-232.358822)"/>
</g>
</g>
</g>
<g clip-path="url(#clip7)" clip-rule="nonzero">
<g clip-path="url(#clip8)" clip-rule="evenodd">
<g clip-path="url(#clip9)" clip-rule="evenodd">
<path style="fill:none;stroke-width:0.0200961;stroke-linecap:butt;stroke-linejoin:miter;stroke:rgb(17.96875%,20.3125%,21.09375%);stroke-opacity:0.8;stroke-miterlimit:10;" d="M 2.531096 1.748149 L 2.784957 2.321863 " transform="matrix(220.254977,0,0,220.254977,-157.44362,-232.358822)"/>
</g>
</g>
</g>
<g clip-path="url(#clip10)" clip-rule="nonzero">
<g clip-path="url(#clip11)" clip-rule="evenodd">
<g clip-path="url(#clip12)" clip-rule="evenodd">
<path style="fill:none;stroke-width:0.0200961;stroke-linecap:butt;stroke-linejoin:miter;stroke:rgb(17.96875%,20.3125%,21.09375%);stroke-opacity:0.8;stroke-miterlimit:10;" d="M 2.531096 1.748149 L 2.972577 1.655855 " transform="matrix(220.254977,0,0,220.254977,-157.44362,-232.358822)"/>
</g>
</g>
</g>
<g clip-path="url(#clip13)" clip-rule="nonzero">
<g clip-path="url(#clip14)" clip-rule="evenodd">
<g clip-path="url(#clip15)" clip-rule="evenodd">
<path style="fill:none;stroke-width:0.0200961;stroke-linecap:butt;stroke-linejoin:miter;stroke:rgb(17.96875%,20.3125%,21.09375%);stroke-opacity:0.8;stroke-miterlimit:10;" d="M 2.531096 1.748149 L 2.986322 1.784364 " transform="matrix(220.254977,0,0,220.254977,-157.44362,-232.358822)"/>
</g>
</g>
</g>
<g clip-path="url(#clip16)" clip-rule="nonzero">
<g clip-path="url(#clip17)" clip-rule="evenodd">
<g clip-path="url(#clip18)" clip-rule="evenodd">
<path style="fill:none;stroke-width:0.0200961;stroke-linecap:butt;stroke-linejoin:miter;stroke:rgb(17.96875%,20.3125%,21.09375%);stroke-opacity:0.8;stroke-miterlimit:10;" d="M 2.129821 1.415119 L 1.795975 1.664138 " transform="matrix(220.254977,0,0,220.254977,-157.44362,-232.358822)"/>
</g>
</g>
</g>
<g clip-path="url(#clip19)" clip-rule="nonzero">
<g clip-path="url(#clip20)" clip-rule="evenodd">
<g clip-path="url(#clip21)" clip-rule="evenodd">
<path style="fill:none;stroke-width:0.0200961;stroke-linecap:butt;stroke-linejoin:miter;stroke:rgb(17.96875%,20.3125%,21.09375%);stroke-opacity:0.8;stroke-miterlimit:10;" d="M 1.795975 1.664138 L 1.233648 1.983334 " transform="matrix(220.254977,0,0,220.254977,-157.44362,-232.358822)"/>
</g>
</g>
</g>
<g clip-path="url(#clip22)" clip-rule="nonzero">
<g clip-path="url(#clip23)" clip-rule="evenodd">
<g clip-path="url(#clip24)" clip-rule="evenodd">
<path style="fill:none;stroke-width:0.0200961;stroke-linecap:butt;stroke-linejoin:miter;stroke:rgb(17.96875%,20.3125%,21.09375%);stroke-opacity:0.8;stroke-miterlimit:10;" d="M 1.795975 1.664138 L 1.395516 1.933463 " transform="matrix(220.254977,0,0,220.254977,-157.44362,-232.358822)"/>
</g>
</g>
</g>
<g clip-path="url(#clip25)" clip-rule="nonzero">
<g clip-path="url(#clip26)" clip-rule="evenodd">
<g clip-path="url(#clip27)" clip-rule="evenodd">
<path style="fill:none;stroke-width:0.0200961;stroke-linecap:butt;stroke-linejoin:miter;stroke:rgb(17.96875%,20.3125%,21.09375%);stroke-opacity:0.8;stroke-miterlimit:10;" d="M 0.916561 2.149193 L 1.225933 2.550628 " transform="matrix(220.254977,0,0,220.254977,-157.44362,-232.358822)"/>
</g>
</g>
</g>
<g clip-path="url(#clip28)" clip-rule="nonzero">
<g clip-path="url(#clip29)" clip-rule="evenodd">
<g clip-path="url(#clip30)" clip-rule="evenodd">
<path style="fill:none;stroke-width:0.0200961;stroke-linecap:butt;stroke-linejoin:miter;stroke:rgb(17.96875%,20.3125%,21.09375%);stroke-opacity:0.8;stroke-miterlimit:10;" d="M 0.916561 2.149193 L 1.233648 1.983334 " transform="matrix(220.254977,0,0,220.254977,-157.44362,-232.358822)"/>
</g>
</g>
</g>
<g clip-path="url(#clip31)" clip-rule="nonzero">
<g clip-path="url(#clip32)" clip-rule="evenodd">
<g clip-path="url(#clip33)" clip-rule="evenodd">
<path style="fill:none;stroke-width:0.0200961;stroke-linecap:butt;stroke-linejoin:miter;stroke:rgb(17.96875%,20.3125%,21.09375%);stroke-opacity:0.8;stroke-miterlimit:10;" d="M 1.225933 2.550628 L 1.233648 1.983334 " transform="matrix(220.254977,0,0,220.254977,-157.44362,-232.358822)"/>
</g>
</g>
</g>
<g clip-path="url(#clip34)" clip-rule="nonzero">
<g clip-path="url(#clip35)" clip-rule="evenodd">
<g clip-path="url(#clip36)" clip-rule="evenodd">
<path style="fill:none;stroke-width:0.0200961;stroke-linecap:butt;stroke-linejoin:miter;stroke:rgb(17.96875%,20.3125%,21.09375%);stroke-opacity:0.8;stroke-miterlimit:10;" d="M 1.225933 2.550628 L 1.395516 1.933463 " transform="matrix(220.254977,0,0,220.254977,-157.44362,-232.358822)"/>
</g>
</g>
</g>
<g clip-path="url(#clip37)" clip-rule="nonzero">
<g clip-path="url(#clip38)" clip-rule="evenodd">
<g clip-path="url(#clip39)" clip-rule="evenodd">
<path style="fill:none;stroke-width:0.0200961;stroke-linecap:butt;stroke-linejoin:miter;stroke:rgb(17.96875%,20.3125%,21.09375%);stroke-opacity:0.8;stroke-miterlimit:10;" d="M 1.225933 2.550628 L 1.539011 3.148444 " transform="matrix(220.254977,0,0,220.254977,-157.44362,-232.358822)"/>
</g>
</g>
</g>
<g clip-path="url(#clip40)" clip-rule="nonzero">
<g clip-path="url(#clip41)" clip-rule="evenodd">
<g clip-path="url(#clip42)" clip-rule="evenodd">
<path style="fill:none;stroke-width:0.0200961;stroke-linecap:butt;stroke-linejoin:miter;stroke:rgb(17.96875%,20.3125%,21.09375%);stroke-opacity:0.8;stroke-miterlimit:10;" d="M 1.225933 2.550628 L 1.085169 2.946919 " transform="matrix(220.254977,0,0,220.254977,-157.44362,-232.358822)"/>
</g>
</g>
</g>
<g clip-path="url(#clip43)" clip-rule="nonzero">
<g clip-path="url(#clip44)" clip-rule="evenodd">
<g clip-path="url(#clip45)" clip-rule="evenodd">
<path style="fill:none;stroke-width:0.0200961;stroke-linecap:butt;stroke-linejoin:miter;stroke:rgb(17.96875%,20.3125%,21.09375%);stroke-opacity:0.8;stroke-miterlimit:10;" d="M 1.225933 2.550628 L 1.362529 3.107209 " transform="matrix(220.254977,0,0,220.254977,-157.44362,-232.358822)"/>
</g>
</g>
</g>
<g clip-path="url(#clip46)" clip-rule="nonzero">
<g clip-path="url(#clip47)" clip-rule="evenodd">
<g clip-path="url(#clip48)" clip-rule="evenodd">
<path style="fill:none;stroke-width:0.0200961;stroke-linecap:butt;stroke-linejoin:miter;stroke:rgb(17.96875%,20.3125%,21.09375%);stroke-opacity:0.8;stroke-miterlimit:10;" d="M 1.233648 1.983334 L 1.395516 1.933463 " transform="matrix(220.254977,0,0,220.254977,-157.44362,-232.358822)"/>
</g>
</g>
</g>
<g clip-path="url(#clip49)" clip-rule="nonzero">
<g clip-path="url(#clip50)" clip-rule="evenodd">
<g clip-path="url(#clip51)" clip-rule="evenodd">
<path style="fill:none;stroke-width:0.0200961;stroke-linecap:butt;stroke-linejoin:miter;stroke:rgb(17.96875%,20.3125%,21.09375%);stroke-opacity:0.8;stroke-miterlimit:10;" d="M 2.972577 1.655855 L 2.986322 1.784364 " transform="matrix(220.254977,0,0,220.254977,-157.44362,-232.358822)"/>
</g>
</g>
</g>
<g clip-path="url(#clip52)" clip-rule="nonzero">
<g clip-path="url(#clip53)" clip-rule="evenodd">
<g clip-path="url(#clip54)" clip-rule="evenodd">
<path style="fill:none;stroke-width:0.0200961;stroke-linecap:butt;stroke-linejoin:miter;stroke:rgb(17.96875%,20.3125%,21.09375%);stroke-opacity:0.8;stroke-miterlimit:10;" d="M 2.972577 1.655855 L 3.237203 1.776206 " transform="matrix(220.254977,0,0,220.254977,-157.44362,-232.358822)"/>
</g>
</g>
</g>
<g clip-path="url(#clip55)" clip-rule="nonzero">
<g clip-path="url(#clip56)" clip-rule="evenodd">
<g clip-path="url(#clip57)" clip-rule="evenodd">
<path style="fill:none;stroke-width:0.0200961;stroke-linecap:butt;stroke-linejoin:miter;stroke:rgb(17.96875%,20.3125%,21.09375%);stroke-opacity:0.8;stroke-miterlimit:10;" d="M 2.986322 1.784364 L 3.237203 1.776206 " transform="matrix(220.254977,0,0,220.254977,-157.44362,-232.358822)"/>
</g>
</g>
</g>
<g clip-path="url(#clip58)" clip-rule="nonzero">
<g clip-path="url(#clip59)" clip-rule="evenodd">
<g clip-path="url(#clip60)" clip-rule="evenodd">
<path style="fill:none;stroke-width:0.0200961;stroke-linecap:butt;stroke-linejoin:miter;stroke:rgb(17.96875%,20.3125%,21.09375%);stroke-opacity:0.8;stroke-miterlimit:10;" d="M 1.539011 3.148444 L 1.656843 3.418904 " transform="matrix(220.254977,0,0,220.254977,-157.44362,-232.358822)"/>
</g>
</g>
</g>
<g clip-path="url(#clip61)" clip-rule="nonzero">
<g clip-path="url(#clip62)" clip-rule="evenodd">
<g clip-path="url(#clip63)" clip-rule="evenodd">
<path style="fill:none;stroke-width:0.0200961;stroke-linecap:butt;stroke-linejoin:miter;stroke:rgb(17.96875%,20.3125%,21.09375%);stroke-opacity:0.8;stroke-miterlimit:10;" d="M 1.539011 3.148444 L 1.362529 3.107209 " transform="matrix(220.254977,0,0,220.254977,-157.44362,-232.358822)"/>
</g>
</g>
</g>
<g clip-path="url(#clip64)" clip-rule="nonzero">
<g clip-path="url(#clip65)" clip-rule="evenodd">
<g clip-path="url(#clip66)" clip-rule="evenodd">
<path style="fill:none;stroke-width:0.0200961;stroke-linecap:butt;stroke-linejoin:miter;stroke:rgb(17.96875%,20.3125%,21.09375%);stroke-opacity:0.8;stroke-miterlimit:10;" d="M 1.656843 3.418904 L 1.362529 3.107209 " transform="matrix(220.254977,0,0,220.254977,-157.44362,-232.358822)"/>
</g>
</g>
</g>
<g clip-path="url(#clip67)" clip-rule="nonzero">
<g clip-path="url(#clip68)" clip-rule="evenodd">
<g clip-path="url(#clip69)" clip-rule="evenodd">
<path style="fill:none;stroke-width:0.0200961;stroke-linecap:butt;stroke-linejoin:miter;stroke:rgb(17.96875%,20.3125%,21.09375%);stroke-opacity:0.8;stroke-miterlimit:10;" d="M 1.085169 2.946919 L 1.362529 3.107209 " transform="matrix(220.254977,0,0,220.254977,-157.44362,-232.358822)"/>
</g>
</g>
</g>
<path style="fill-rule:nonzero;fill:rgb(100%,92.941176%,43.529412%);fill-opacity:1;stroke-width:0.0200961;stroke-linecap:butt;stroke-linejoin:miter;stroke:rgb(60%,60%,60%);stroke-opacity:0.8;stroke-miterlimit:10;" d="M 0.100486 0.00000524034 C 0.100486 0.0554985 0.0554916 0.100475 -0.00000161611 0.100475 C -0.0554948 0.100475 -0.100489 0.0554985 -0.100489 0.00000524034 C -0.100489 -0.055488 -0.0554948 -0.100482 -0.00000161611 -0.100482 C 0.0554916 -0.100482 0.100486 -0.055488 0.100486 0.00000524034 Z M 0.100486 0.00000524034 " transform="matrix(220.254977,0,0,220.254977,400.043325,152.678533)"/>
<path style="fill-rule:nonzero;fill:rgb(100%,92.941176%,43.529412%);fill-opacity:1;stroke-width:0.0200961;stroke-linecap:butt;stroke-linejoin:miter;stroke:rgb(60%,60%,60%);stroke-opacity:0.8;stroke-miterlimit:10;" d="M 0.100485 0.00000016256 C 0.100485 0.0554934 0.0554905 0.100487 -0.00000269905 0.100487 C -0.0554959 0.100487 -0.100472 0.0554934 -0.100472 0.00000016256 C -0.100472 -0.055493 -0.0554959 -0.100487 -0.00000269905 -0.100487 C 0.0554905 -0.100487 0.100485 -0.055493 0.100485 0.00000016256 Z M 0.100485 0.00000016256 " transform="matrix(220.254977,0,0,220.254977,311.660751,79.328089)"/>
<path style="fill-rule:nonzero;fill:rgb(55.294118%,82.745098%,78.039216%);fill-opacity:1;stroke-width:0.0200961;stroke-linecap:butt;stroke-linejoin:miter;stroke:rgb(60%,60%,60%);stroke-opacity:0.8;stroke-miterlimit:10;" d="M 0.100476 0.000000408695 C 0.100476 0.0554936 0.0555002 0.100488 0.00000694683 0.100488 C -0.0554863 0.100488 -0.10048 0.0554936 -0.10048 0.000000408695 C -0.10048 -0.0554928 -0.0554863 -0.100487 0.00000694683 -0.100487 C 0.0555002 -0.100487 0.100476 -0.0554928 0.100476 0.000000408695 Z M 0.100476 0.000000408695 " transform="matrix(220.254977,0,0,220.254977,238.127376,134.175691)"/>
<path style="fill-rule:nonzero;fill:rgb(100%,92.941176%,43.529412%);fill-opacity:1;stroke-width:0.0200961;stroke-linecap:butt;stroke-linejoin:miter;stroke:rgb(60%,60%,60%);stroke-opacity:0.8;stroke-miterlimit:10;" d="M 0.100474 0.000005989 C 0.100474 0.0554992 0.0554976 0.100475 0.00000437548 0.100475 C -0.0554888 0.100475 -0.100483 0.0554992 -0.100483 0.000005989 C -0.100483 -0.0554872 -0.0554888 -0.100481 0.00000437548 -0.100481 C 0.0554976 -0.100481 0.100474 -0.0554872 0.100474 0.000005989 Z M 0.100474 0.000005989 " transform="matrix(220.254977,0,0,220.254977,455.956068,279.04165)"/>
<path style="fill-rule:nonzero;fill:rgb(55.294118%,82.745098%,78.039216%);fill-opacity:1;stroke-width:0.0200961;stroke-linecap:butt;stroke-linejoin:miter;stroke:rgb(60%,60%,60%);stroke-opacity:0.8;stroke-miterlimit:10;" d="M 0.100482 0.00000703202 C 0.100482 0.0555002 0.0554883 0.100477 -0.00000490196 0.100477 C -0.0554981 0.100477 -0.100474 0.0555002 -0.100474 0.00000703202 C -0.100474 -0.0554862 -0.0554981 -0.10048 -0.00000490196 -0.10048 C 0.0554883 -0.10048 0.100482 -0.0554862 0.100482 0.00000703202 Z M 0.100482 0.00000703202 " transform="matrix(220.254977,0,0,220.254977,44.434673,241.01017)"/>
<path style="fill-rule:nonzero;fill:rgb(55.294118%,82.745098%,78.039216%);fill-opacity:1;stroke-width:0.0200961;stroke-linecap:butt;stroke-linejoin:miter;stroke:rgb(60%,60%,60%);stroke-opacity:0.8;stroke-miterlimit:10;" d="M 0.10048 -0.00000519628 C 0.10048 0.055488 0.0554857 0.100482 -0.00000749287 0.100482 C -0.0555007 0.100482 -0.100477 0.055488 -0.100477 -0.00000519628 C -0.100477 -0.0554984 -0.0555007 -0.100475 -0.00000749287 -0.100475 C 0.0554857 -0.100475 0.10048 -0.0554984 0.10048 -0.00000519628 Z M 0.10048 -0.00000519628 " transform="matrix(220.254977,0,0,220.254977,112.575869,329.430832)"/>
<path style="fill-rule:nonzero;fill:rgb(55.294118%,82.745098%,78.039216%);fill-opacity:1;stroke-width:0.0200961;stroke-linecap:butt;stroke-linejoin:miter;stroke:rgb(60%,60%,60%);stroke-opacity:0.8;stroke-miterlimit:10;" d="M 0.100488 0.00000852101 C 0.100488 0.0555017 0.0554941 0.100478 0.000000932708 0.100478 C -0.0554923 0.100478 -0.100486 0.0555017 -0.100486 0.00000852101 C -0.100486 -0.0555024 -0.0554923 -0.100479 0.000000932708 -0.100479 C 0.0554941 -0.100479 0.100488 -0.0555024 0.100488 0.00000852101 Z M 0.100488 0.00000852101 " transform="matrix(220.254977,0,0,220.254977,114.273232,204.478592)"/>
<path style="fill-rule:nonzero;fill:rgb(55.294118%,82.745098%,78.039216%);fill-opacity:1;stroke-width:0.0200961;stroke-linecap:butt;stroke-linejoin:miter;stroke:rgb(60%,60%,60%);stroke-opacity:0.8;stroke-miterlimit:10;" d="M 0.100474 -0.00000259523 C 0.100474 0.0554906 0.055498 0.100485 0.00000478747 0.100485 C -0.0554884 0.100485 -0.100482 0.0554906 -0.100482 -0.00000259523 C -0.100482 -0.0554958 -0.0554884 -0.100472 0.00000478747 -0.100472 C 0.055498 -0.100472 0.100474 -0.0554958 0.100474 -0.00000259523 Z M 0.100474 -0.00000259523 " transform="matrix(220.254977,0,0,220.254977,149.924727,193.496665)"/>
<path style="fill-rule:nonzero;fill:rgb(100%,92.941176%,43.529412%);fill-opacity:1;stroke-width:0.0200961;stroke-linecap:butt;stroke-linejoin:miter;stroke:rgb(60%,60%,60%);stroke-opacity:0.8;stroke-miterlimit:10;" d="M 0.100476 0.00000669204 C 0.100476 0.0554999 0.0554995 0.100476 0.00000626579 0.100476 C -0.0554869 0.100476 -0.100481 0.0554999 -0.100481 0.00000669204 C -0.100481 -0.0554865 -0.0554869 -0.100481 0.00000626579 -0.100481 C 0.0554995 -0.100481 0.100476 -0.0554865 0.100476 0.00000669204 Z M 0.100476 0.00000669204 " transform="matrix(220.254977,0,0,220.254977,497.27987,132.350089)"/>
<path style="fill-rule:nonzero;fill:rgb(100%,92.941176%,43.529412%);fill-opacity:1;stroke-width:0.0200961;stroke-linecap:butt;stroke-linejoin:miter;stroke:rgb(60%,60%,60%);stroke-opacity:0.8;stroke-miterlimit:10;" d="M 0.10048 -0.00000664126 C 0.10048 0.0554866 0.0554859 0.100481 -0.0000073157 0.100481 C -0.0555005 0.100481 -0.100477 0.0554866 -0.100477 -0.00000664126 C -0.100477 -0.0554999 -0.0555005 -0.100476 -0.0000073157 -0.100476 C 0.0554859 -0.100476 0.10048 -0.0554999 0.10048 -0.00000664126 Z M 0.10048 -0.00000664126 " transform="matrix(220.254977,0,0,220.254977,500.310205,160.657713)"/>
<path style="fill-rule:nonzero;fill:rgb(100%,92.941176%,43.529412%);fill-opacity:1;stroke-width:0.0200961;stroke-linecap:butt;stroke-linejoin:miter;stroke:rgb(60%,60%,60%);stroke-opacity:0.8;stroke-miterlimit:10;" d="M 0.100474 0.00000390716 C 0.100474 0.0554971 0.0554981 0.100473 0.00000490196 0.100473 C -0.0554883 0.100473 -0.100482 0.0554971 -0.100482 0.00000390716 C -0.100482 -0.0554893 -0.0554883 -0.100483 0.00000490196 -0.100483 C 0.0554981 -0.100483 0.100474 -0.0554893 0.100474 0.00000390716 Z M 0.100474 0.00000390716 " transform="matrix(220.254977,0,0,220.254977,555.565327,158.858514)"/>
<path style="fill-rule:nonzero;fill:rgb(55.294118%,82.745098%,78.039216%);fill-opacity:1;stroke-width:0.0200961;stroke-linecap:butt;stroke-linejoin:miter;stroke:rgb(60%,60%,60%);stroke-opacity:0.8;stroke-miterlimit:10;" d="M 0.100478 -0.00000875368 C 0.100478 0.0555022 0.0555018 0.100478 0.00000858317 0.100478 C -0.0555024 0.100478 -0.100479 0.0555022 -0.100479 -0.00000875368 C -0.100479 -0.055502 -0.0555024 -0.100478 0.00000858317 -0.100478 C 0.0555018 -0.100478 0.100478 -0.055502 0.100478 -0.00000875368 Z M 0.100478 -0.00000875368 " transform="matrix(220.254977,0,0,220.254977,181.52936,461.103491)"/>
<path style="fill-rule:nonzero;fill:rgb(55.294118%,82.745098%,78.039216%);fill-opacity:1;stroke-width:0.0200961;stroke-linecap:butt;stroke-linejoin:miter;stroke:rgb(60%,60%,60%);stroke-opacity:0.8;stroke-miterlimit:10;" d="M 0.100487 -0.00000016256 C 0.100487 0.055493 0.0554928 0.100487 -0.000000448029 0.100487 C -0.0554937 0.100487 -0.100488 0.055493 -0.100488 -0.00000016256 C -0.100488 -0.0554934 -0.0554937 -0.100487 -0.000000448029 -0.100487 C 0.0554928 -0.100487 0.100487 -0.0554934 0.100487 -0.00000016256 Z M 0.100487 -0.00000016256 " transform="matrix(220.254977,0,0,220.254977,207.484474,520.671911)"/>
<path style="fill-rule:nonzero;fill:rgb(55.294118%,82.745098%,78.039216%);fill-opacity:1;stroke-width:0.0200961;stroke-linecap:butt;stroke-linejoin:miter;stroke:rgb(60%,60%,60%);stroke-opacity:0.8;stroke-miterlimit:10;" d="M 0.100476 -0.0000069088 C 0.100476 0.0554863 0.0555002 0.10048 0.00000694665 0.10048 C -0.0554863 0.10048 -0.10048 0.0554863 -0.10048 -0.0000069088 C -0.10048 -0.0555001 -0.0554863 -0.100476 0.00000694665 -0.100476 C 0.0555002 -0.100476 0.100476 -0.0555001 0.100476 -0.0000069088 Z M 0.100476 -0.0000069088 " transform="matrix(220.254977,0,0,220.254977,81.568782,416.716365)"/>
<path style="fill-rule:nonzero;fill:rgb(55.294118%,82.745098%,78.039216%);fill-opacity:1;stroke-width:0.0200961;stroke-linecap:butt;stroke-linejoin:miter;stroke:rgb(60%,60%,60%);stroke-opacity:0.8;stroke-miterlimit:10;" d="M 0.100488 0.00000610945 C 0.100488 0.0554993 0.055494 0.100476 0.000000779981 0.100476 C -0.0554924 0.100476 -0.100486 0.0554993 -0.100486 0.00000610945 C -0.100486 -0.0554871 -0.0554924 -0.100481 0.000000779981 -0.100481 C 0.055494 -0.100481 0.100488 -0.0554871 0.100488 0.00000610945 Z M 0.100488 0.00000610945 " transform="matrix(220.254977,0,0,220.254977,142.659984,452.018186)"/>
</g>
</svg>
