<?xml version="1.0" encoding="UTF-8"?>
<svg xmlns="http://www.w3.org/2000/svg" xmlns:xlink="http://www.w3.org/1999/xlink" width="600pt" height="600pt" viewBox="0 0 600 600" version="1.1">
<defs>
<clipPath id="clip1">
  <path d="M 422 46 L 600 46 L 600 207 L 422 207 Z M 422 46 "/>
</clipPath>
<clipPath id="clip2">
  <path d="M 410.738281 -114.46875 L 633.589844 -114.46875 L 633.589844 367.105469 L 410.738281 367.105469 Z M 410.738281 -114.46875 L 576.835938 116.167969 C 576.835938 129.832031 565.757812 140.910156 552.089844 140.910156 C 538.425781 140.910156 527.347656 129.832031 527.347656 116.167969 C 527.347656 102.503906 538.425781 91.425781 552.089844 91.425781 C 565.757812 91.425781 576.835938 102.503906 576.835938 116.167969 Z M 410.738281 -114.46875 "/>
</clipPath>
<clipPath id="clip3">
  <path d="M 410.738281 -114.46875 L 633.589844 -114.46875 L 633.589844 367.105469 L 410.738281 367.105469 Z M 410.738281 -114.46875 L 516.984375 136.46875 C 516.984375 150.136719 505.90625 161.210938 492.238281 161.210938 C 478.574219 161.210938 467.496094 150.136719 467.496094 136.46875 C 467.496094 122.804688 478.574219 111.726562 492.238281 111.726562 C 505.90625 111.726562 516.984375 122.804688 516.984375 136.46875 Z M 410.738281 -114.46875 "/>
</clipPath>
<clipPath id="clip4">
  <path d="M 317 66 L 563 66 L 563 243 L 317 243 Z M 317 66 "/>
</clipPath>
<clipPath id="clip5">
  <path d="M 305.320312 -93.863281 L 574.625 -93.863281 L 574.625 402.714844 L 305.320312 402.714844 Z M 305.320312 -93.863281 L 516.984375 136.46875 C 516.984375 150.136719 505.90625 161.210938 492.238281 161.210938 C 478.574219 161.210938 467.496094 150.136719 467.496094 136.46875 C 467.496094 122.804688 478.574219 111.726562 492.238281 111.726562 C 505.90625 111.726562 516.984375 122.804688 516.984375 136.46875 Z M 305.320312 -93.863281 "/>
</clipPath>
<clipPath id="clip6">
  <path d="M 305.320312 -93.863281 L 574.625 -93.863281 L 574.625 402.714844 L 305.320312 402.714844 Z M 305.320312 -93.863281 L 412.453125 172.382812 C 412.453125 186.046875 401.375 197.125 387.707031 197.125 C 374.042969 197.125 362.964844 186.046875 362.964844 172.382812 C 362.964844 158.71875 374.042969 147.640625 387.707031 147.640625 C 401.375 147.640625 412.453125 158.71875 412.453125 172.382812 Z M 305.320312 -93.863281 "/>
</clipPath>
<clipPath id="clip7">
  <path d="M 144 102 L 458 102 L 458 300 L 144 300 Z M 144 102 "/>
</clipPath>
<clipPath id="clip8">
  <path d="M 134.175781 -58.816406 L 467.523438 -58.816406 L 467.523438 461.066406 L 134.175781 461.066406 Z M 134.175781 -58.816406 L 238.738281 229.867188 C 238.738281 243.535156 227.660156 254.613281 213.992188 254.613281 C 200.328125 254.613281 189.25 243.535156 189.25 229.867188 C 189.25 216.203125 200.328125 205.125 213.992188 205.125 C 227.660156 205.125 238.738281 216.203125 238.738281 229.867188 Z M 134.175781 -58.816406 "/>
</clipPath>
<clipPath id="clip9">
  <path d="M 134.175781 -58.816406 L 467.523438 -58.816406 L 467.523438 461.066406 L 134.175781 461.066406 Z M 134.175781 -58.816406 L 412.453125 172.382812 C 412.453125 186.046875 401.375 197.125 387.707031 197.125 C 374.042969 197.125 362.964844 186.046875 362.964844 172.382812 C 362.964844 158.71875 374.042969 147.640625 387.707031 147.640625 C 401.375 147.640625 412.453125 158.71875 412.453125 172.382812 Z M 134.175781 -58.816406 "/>
</clipPath>
<clipPath id="clip10">
  <path d="M 144 165.433594 L 331 165.433594 L 331 475.1875 L 144 475.1875 Z M 144 165.433594 "/>
</clipPath>
<clipPath id="clip11">
  <path d="M -21.730469 165.433594 L 496.339844 165.433594 L 496.339844 475.1875 L -21.730469 475.1875 Z M -21.730469 165.433594 L 238.738281 229.867188 C 238.738281 243.535156 227.660156 254.613281 213.992188 254.613281 C 200.328125 254.613281 189.25 243.535156 189.25 229.867188 C 189.25 216.203125 200.328125 205.125 213.992188 205.125 C 227.660156 205.125 238.738281 216.203125 238.738281 229.867188 Z M -21.730469 165.433594 "/>
</clipPath>
<clipPath id="clip12">
  <path d="M -21.730469 165.433594 L 496.339844 165.433594 L 496.339844 475.1875 L -21.730469 475.1875 Z M -21.730469 165.433594 L 285.359375 410.753906 C 285.359375 424.417969 274.28125 435.496094 260.617188 435.496094 C 246.953125 435.496094 235.875 424.417969 235.875 410.753906 C 235.875 397.085938 246.953125 386.007812 260.617188 386.007812 C 274.28125 386.007812 285.359375 397.085938 285.359375 410.753906 Z M -21.730469 165.433594 "/>
</clipPath>
<clipPath id="clip13">
  <path d="M 144 159 L 345 159 L 345 361 L 144 361 Z M 144 159 "/>
</clipPath>
<clipPath id="clip14">
  <path d="M 40.652344 56.277344 L 448.03125 56.277344 L 448.03125 464.066406 L 40.652344 464.066406 Z M 40.652344 56.277344 L 238.738281 229.867188 C 238.738281 243.535156 227.660156 254.613281 213.992188 254.613281 C 200.328125 254.613281 189.25 243.535156 189.25 229.867188 C 189.25 216.203125 200.328125 205.125 213.992188 205.125 C 227.660156 205.125 238.738281 216.203125 238.738281 229.867188 Z M 40.652344 56.277344 "/>
</clipPath>
<clipPath id="clip15">
  <path d="M 40.652344 56.277344 L 448.03125 56.277344 L 448.03125 464.066406 L 40.652344 464.066406 Z M 40.652344 56.277344 L 299.4375 290.476562 C 299.4375 304.140625 288.359375 315.21875 274.691406 315.21875 C 261.027344 315.21875 249.949219 304.140625 249.949219 290.476562 C 249.949219 276.808594 261.027344 265.730469 274.691406 265.730469 C 288.359375 265.730469 299.4375 276.808594 299.4375 290.476562 Z M 40.652344 56.277344 "/>
</clipPath>
<clipPath id="clip16">
  <path d="M 57 159 L 284 159 L 284 389 L 57 389 Z M 57 159 "/>
</clipPath>
<clipPath id="clip17">
  <path d="M -48.296875 58.460938 L 389.488281 58.460938 L 389.488281 490.199219 L -48.296875 490.199219 Z M -48.296875 58.460938 L 238.738281 229.867188 C 238.738281 243.535156 227.660156 254.613281 213.992188 254.613281 C 200.328125 254.613281 189.25 243.535156 189.25 229.867188 C 189.25 216.203125 200.328125 205.125 213.992188 205.125 C 227.660156 205.125 238.738281 216.203125 238.738281 229.867188 Z M -48.296875 58.460938 "/>
</clipPath>
<clipPath id="clip18">
  <path d="M -48.296875 58.460938 L 389.488281 58.460938 L 389.488281 490.199219 L -48.296875 490.199219 Z M -48.296875 58.460938 L 151.941406 318.792969 C 151.941406 332.457031 140.863281 343.535156 127.199219 343.535156 C 113.535156 343.535156 102.457031 332.457031 102.457031 318.792969 C 102.457031 305.128906 113.535156 294.050781 127.199219 294.050781 C 140.863281 294.050781 151.941406 305.128906 151.941406 318.792969 Z M -48.296875 58.460938 "/>
</clipPath>
<clipPath id="clip19">
  <path d="M 47 47 L 284 47 L 284 300 L 47 300 Z M 47 47 "/>
</clipPath>
<clipPath id="clip20">
  <path d="M -68.460938 -42.640625 L 400.105469 -42.640625 L 400.105469 389.65625 L -68.460938 389.65625 Z M -68.460938 -42.640625 L 238.738281 229.867188 C 238.738281 243.535156 227.660156 254.613281 213.992188 254.613281 C 200.328125 254.613281 189.25 243.535156 189.25 229.867188 C 189.25 216.203125 200.328125 205.125 213.992188 205.125 C 227.660156 205.125 238.738281 216.203125 238.738281 229.867188 Z M -68.460938 -42.640625 "/>
</clipPath>
<clipPath id="clip21">
  <path d="M -68.460938 -42.640625 L 400.105469 -42.640625 L 400.105469 389.65625 L -68.460938 389.65625 Z M -68.460938 -42.640625 L 142.394531 117.148438 C 142.394531 130.8125 131.316406 141.890625 117.652344 141.890625 C 103.988281 141.890625 92.910156 130.8125 92.910156 117.148438 C 92.910156 103.484375 103.988281 92.40625 117.652344 92.40625 C 131.316406 92.40625 142.394531 103.484375 142.394531 117.148438 Z M -68.460938 -42.640625 "/>
</clipPath>
<clipPath id="clip22">
  <path d="M 12 100 L 284 100 L 284 300 L 12 300 Z M 12 100 "/>
</clipPath>
<clipPath id="clip23">
  <path d="M -21.285156 -51.925781 L 317.441406 -51.925781 L 317.441406 451.824219 L -21.285156 451.824219 Z M -21.285156 -51.925781 L 238.738281 229.867188 C 238.738281 243.535156 227.660156 254.613281 213.992188 254.613281 C 200.328125 254.613281 189.25 243.535156 189.25 229.867188 C 189.25 216.203125 200.328125 205.125 213.992188 205.125 C 227.660156 205.125 238.738281 216.203125 238.738281 229.867188 Z M -21.285156 -51.925781 "/>
</clipPath>
<clipPath id="clip24">
  <path d="M -21.285156 -51.925781 L 317.441406 -51.925781 L 317.441406 451.824219 L -21.285156 451.824219 Z M -21.285156 -51.925781 L 106.910156 170.03125 C 106.910156 183.695312 95.832031 194.773438 82.164062 194.773438 C 68.5 194.773438 57.421875 183.695312 57.421875 170.03125 C 57.421875 156.363281 68.5 145.285156 82.164062 145.285156 C 95.832031 145.285156 106.910156 156.363281 106.910156 170.03125 Z M -21.285156 -51.925781 "/>
</clipPath>
<clipPath id="clip25">
  <path d="M 144 52 L 322 52 L 322 300 L 144 300 Z M 144 52 "/>
</clipPath>
<clipPath id="clip26">
  <path d="M -16.1875 39.773438 L 481.261719 39.773438 L 481.261719 312.695312 L -16.1875 312.695312 Z M -16.1875 39.773438 L 238.738281 229.867188 C 238.738281 243.535156 227.660156 254.613281 213.992188 254.613281 C 200.328125 254.613281 189.25 243.535156 189.25 229.867188 C 189.25 216.203125 200.328125 205.125 213.992188 205.125 C 227.660156 205.125 238.738281 216.203125 238.738281 229.867188 Z M -16.1875 39.773438 "/>
</clipPath>
<clipPath id="clip27">
  <path d="M -16.1875 39.773438 L 481.261719 39.773438 L 481.261719 312.695312 L -16.1875 312.695312 Z M -16.1875 39.773438 L 275.824219 122.601562 C 275.824219 136.269531 264.746094 147.347656 251.082031 147.347656 C 237.417969 147.347656 226.339844 136.269531 226.339844 122.601562 C 226.339844 108.9375 237.417969 97.859375 251.082031 97.859375 C 264.746094 97.859375 275.824219 108.9375 275.824219 122.601562 Z M -16.1875 39.773438 "/>
</clipPath>
<clipPath id="clip28">
  <path d="M 190 340 L 360 340 L 360 569 L 190 569 Z M 190 340 "/>
</clipPath>
<clipPath id="clip29">
  <path d="M 29.355469 331.121094 L 520.914062 331.121094 L 520.914062 578.371094 L 29.355469 578.371094 Z M 29.355469 331.121094 L 314.394531 498.738281 C 314.394531 512.40625 303.320312 523.484375 289.652344 523.484375 C 275.988281 523.484375 264.910156 512.40625 264.910156 498.738281 C 264.910156 485.074219 275.988281 473.996094 289.652344 473.996094 C 303.320312 473.996094 314.394531 485.074219 314.394531 498.738281 Z M 29.355469 331.121094 "/>
</clipPath>
<clipPath id="clip30">
  <path d="M 29.355469 331.121094 L 520.914062 331.121094 L 520.914062 578.371094 L 29.355469 578.371094 Z M 29.355469 331.121094 L 285.359375 410.753906 C 285.359375 424.417969 274.28125 435.496094 260.617188 435.496094 C 246.953125 435.496094 235.875 424.417969 235.875 410.753906 C 235.875 397.085938 246.953125 386.007812 260.617188 386.007812 C 274.28125 386.007812 285.359375 397.085938 285.359375 410.753906 Z M 29.355469 331.121094 "/>
</clipPath>
<clipPath id="clip31">
  <path d="M 0 31 L 175.53125 31 L 175.53125 188 L 0 188 Z M 0 31 "/>
</clipPath>
<clipPath id="clip32">
  <path d="M -9.96875 -136.050781 L 175.53125 -136.050781 L 175.53125 354.460938 L -9.96875 354.460938 Z M -9.96875 -136.050781 L 142.394531 117.148438 C 142.394531 130.8125 131.316406 141.890625 117.652344 141.890625 C 103.988281 141.890625 92.910156 130.8125 92.910156 117.148438 C 92.910156 103.484375 103.988281 92.40625 117.652344 92.40625 C 131.316406 92.40625 142.394531 103.484375 142.394531 117.148438 Z M -9.96875 -136.050781 "/>
</clipPath>
<clipPath id="clip33">
  <path d="M -9.96875 -136.050781 L 175.53125 -136.050781 L 175.53125 354.460938 L -9.96875 354.460938 Z M -9.96875 -136.050781 L 72.652344 101.261719 C 72.652344 114.925781 61.574219 126.003906 47.910156 126.003906 C 34.242188 126.003906 23.164062 114.925781 23.164062 101.261719 C 23.164062 87.59375 34.242188 76.515625 47.910156 76.515625 C 61.574219 76.515625 72.652344 87.59375 72.652344 101.261719 Z M -9.96875 -136.050781 "/>
</clipPath>
<clipPath id="clip34">
  <path d="M 0 31 L 153 31 L 153 241 L 0 241 Z M 0 31 "/>
</clipPath>
<clipPath id="clip35">
  <path d="M -170.359375 -9.941406 L 300.433594 -9.941406 L 300.433594 281.234375 L -170.359375 281.234375 Z M -170.359375 -9.941406 L 72.652344 101.261719 C 72.652344 114.925781 61.574219 126.003906 47.910156 126.003906 C 34.242188 126.003906 23.164062 114.925781 23.164062 101.261719 C 23.164062 87.59375 34.242188 76.515625 47.910156 76.515625 C 61.574219 76.515625 72.652344 87.59375 72.652344 101.261719 Z M -170.359375 -9.941406 "/>
</clipPath>
<clipPath id="clip36">
  <path d="M -170.359375 -9.941406 L 300.433594 -9.941406 L 300.433594 281.234375 L -170.359375 281.234375 Z M -170.359375 -9.941406 L 106.910156 170.03125 C 106.910156 183.695312 95.832031 194.773438 82.164062 194.773438 C 68.5 194.773438 57.421875 183.695312 57.421875 170.03125 C 57.421875 156.363281 68.5 145.285156 82.164062 145.285156 C 95.832031 145.285156 106.910156 156.363281 106.910156 170.03125 Z M -170.359375 -9.941406 "/>
</clipPath>
</defs>
<g id="surface471">
<g clip-path="url(#clip1)" clip-rule="nonzero">
<g clip-path="url(#clip2)" clip-rule="evenodd">
<g clip-path="url(#clip3)" clip-rule="evenodd">
<path style="fill:none;stroke-width:0.0207653;stroke-linecap:butt;stroke-linejoin:miter;stroke:rgb(17.96875%,20.3125%,21.09375%);stroke-opacity:0.8;stroke-miterlimit:10;" d="M 2.901046 1.770438 L 2.649903 1.855622 " transform="matrix(238.316106,0,0,238.316106,-139.276207,-305.755931)"/>
</g>
</g>
</g>
<g clip-path="url(#clip4)" clip-rule="nonzero">
<g clip-path="url(#clip5)" clip-rule="evenodd">
<g clip-path="url(#clip6)" clip-rule="evenodd">
<path style="fill:none;stroke-width:0.0207653;stroke-linecap:butt;stroke-linejoin:miter;stroke:rgb(17.96875%,20.3125%,21.09375%);stroke-opacity:0.8;stroke-miterlimit:10;" d="M 2.649903 1.855622 L 2.211278 2.006322 " transform="matrix(238.316106,0,0,238.316106,-139.276207,-305.755931)"/>
</g>
</g>
</g>
<g clip-path="url(#clip7)" clip-rule="nonzero">
<g clip-path="url(#clip8)" clip-rule="evenodd">
<g clip-path="url(#clip9)" clip-rule="evenodd">
<path style="fill:none;stroke-width:0.0207653;stroke-linecap:butt;stroke-linejoin:miter;stroke:rgb(17.96875%,20.3125%,21.09375%);stroke-opacity:0.8;stroke-miterlimit:10;" d="M 1.482352 2.247532 L 2.211278 2.006322 " transform="matrix(238.316106,0,0,238.316106,-139.276207,-305.755931)"/>
</g>
</g>
</g>
<g clip-path="url(#clip10)" clip-rule="nonzero">
<g clip-path="url(#clip11)" clip-rule="evenodd">
<g clip-path="url(#clip12)" clip-rule="evenodd">
<path style="fill:none;stroke-width:0.0207653;stroke-linecap:butt;stroke-linejoin:miter;stroke:rgb(17.96875%,20.3125%,21.09375%);stroke-opacity:0.8;stroke-miterlimit:10;" d="M 1.482352 2.247532 L 1.677996 3.006552 " transform="matrix(238.316106,0,0,238.316106,-139.276207,-305.755931)"/>
</g>
</g>
</g>
<g clip-path="url(#clip13)" clip-rule="nonzero">
<g clip-path="url(#clip14)" clip-rule="evenodd">
<g clip-path="url(#clip15)" clip-rule="evenodd">
<path style="fill:none;stroke-width:0.0207653;stroke-linecap:butt;stroke-linejoin:miter;stroke:rgb(17.96875%,20.3125%,21.09375%);stroke-opacity:0.8;stroke-miterlimit:10;" d="M 1.482352 2.247532 L 1.737053 2.501856 " transform="matrix(238.316106,0,0,238.316106,-139.276207,-305.755931)"/>
</g>
</g>
</g>
<g clip-path="url(#clip16)" clip-rule="nonzero">
<g clip-path="url(#clip17)" clip-rule="evenodd">
<g clip-path="url(#clip18)" clip-rule="evenodd">
<path style="fill:none;stroke-width:0.0207653;stroke-linecap:butt;stroke-linejoin:miter;stroke:rgb(17.96875%,20.3125%,21.09375%);stroke-opacity:0.8;stroke-miterlimit:10;" d="M 1.482352 2.247532 L 1.11816 2.620674 " transform="matrix(238.316106,0,0,238.316106,-139.276207,-305.755931)"/>
</g>
</g>
</g>
<g clip-path="url(#clip19)" clip-rule="nonzero">
<g clip-path="url(#clip20)" clip-rule="evenodd">
<g clip-path="url(#clip21)" clip-rule="evenodd">
<path style="fill:none;stroke-width:0.0207653;stroke-linecap:butt;stroke-linejoin:miter;stroke:rgb(17.96875%,20.3125%,21.09375%);stroke-opacity:0.8;stroke-miterlimit:10;" d="M 1.482352 2.247532 L 1.0781 1.774552 " transform="matrix(238.316106,0,0,238.316106,-139.276207,-305.755931)"/>
</g>
</g>
</g>
<g clip-path="url(#clip22)" clip-rule="nonzero">
<g clip-path="url(#clip23)" clip-rule="evenodd">
<g clip-path="url(#clip24)" clip-rule="evenodd">
<path style="fill:none;stroke-width:0.0207653;stroke-linecap:butt;stroke-linejoin:miter;stroke:rgb(17.96875%,20.3125%,21.09375%);stroke-opacity:0.8;stroke-miterlimit:10;" d="M 1.482352 2.247532 L 0.929187 1.996454 " transform="matrix(238.316106,0,0,238.316106,-139.276207,-305.755931)"/>
</g>
</g>
</g>
<g clip-path="url(#clip25)" clip-rule="nonzero">
<g clip-path="url(#clip26)" clip-rule="evenodd">
<g clip-path="url(#clip27)" clip-rule="evenodd">
<path style="fill:none;stroke-width:0.0207653;stroke-linecap:butt;stroke-linejoin:miter;stroke:rgb(17.96875%,20.3125%,21.09375%);stroke-opacity:0.8;stroke-miterlimit:10;" d="M 1.482352 2.247532 L 1.637985 1.797434 " transform="matrix(238.316106,0,0,238.316106,-139.276207,-305.755931)"/>
</g>
</g>
</g>
<g clip-path="url(#clip28)" clip-rule="nonzero">
<g clip-path="url(#clip29)" clip-rule="evenodd">
<g clip-path="url(#clip30)" clip-rule="evenodd">
<path style="fill:none;stroke-width:0.0207653;stroke-linecap:butt;stroke-linejoin:miter;stroke:rgb(17.96875%,20.3125%,21.09375%);stroke-opacity:0.8;stroke-miterlimit:10;" d="M 1.79983 3.375744 L 1.677996 3.006552 " transform="matrix(238.316106,0,0,238.316106,-139.276207,-305.755931)"/>
</g>
</g>
</g>
<g clip-path="url(#clip31)" clip-rule="nonzero">
<g clip-path="url(#clip32)" clip-rule="evenodd">
<g clip-path="url(#clip33)" clip-rule="evenodd">
<path style="fill:none;stroke-width:0.0207653;stroke-linecap:butt;stroke-linejoin:miter;stroke:rgb(17.96875%,20.3125%,21.09375%);stroke-opacity:0.8;stroke-miterlimit:10;" d="M 1.0781 1.774552 L 0.785454 1.70789 " transform="matrix(238.316106,0,0,238.316106,-139.276207,-305.755931)"/>
</g>
</g>
</g>
<g clip-path="url(#clip34)" clip-rule="nonzero">
<g clip-path="url(#clip35)" clip-rule="evenodd">
<g clip-path="url(#clip36)" clip-rule="evenodd">
<path style="fill:none;stroke-width:0.0207653;stroke-linecap:butt;stroke-linejoin:miter;stroke:rgb(17.96875%,20.3125%,21.09375%);stroke-opacity:0.8;stroke-miterlimit:10;" d="M 0.785454 1.70789 L 0.929187 1.996454 " transform="matrix(238.316106,0,0,238.316106,-139.276207,-305.755931)"/>
</g>
</g>
</g>
<path style="fill-rule:nonzero;fill:rgb(100%,92.941176%,43.529412%);fill-opacity:1;stroke-width:0.0207653;stroke-linecap:butt;stroke-linejoin:miter;stroke:rgb(60%,60%,60%);stroke-opacity:0.8;stroke-miterlimit:10;" d="M 0.103832 -0.000000138541 C 0.103832 0.0573357 0.0573473 0.103821 -0.00000499717 0.103821 C -0.0573409 0.103821 -0.103826 0.0573357 -0.103826 -0.000000138541 C -0.103826 -0.057336 -0.0573409 -0.103821 -0.00000499717 -0.103821 C 0.0573473 -0.103821 0.103832 -0.057336 0.103832 -0.000000138541 Z M 0.103832 -0.000000138541 " transform="matrix(238.316106,0,0,238.316106,552.091035,116.168002)"/>
<path style="fill-rule:nonzero;fill:rgb(100%,92.941176%,43.529412%);fill-opacity:1;stroke-width:0.0207653;stroke-linecap:butt;stroke-linejoin:miter;stroke:rgb(60%,60%,60%);stroke-opacity:0.8;stroke-miterlimit:10;" d="M 0.103835 -0.00000231562 C 0.103835 0.05735 0.0573497 0.103819 -0.00000256271 0.103819 C -0.0573384 0.103819 -0.103823 0.05735 -0.103823 -0.00000231562 C -0.103823 -0.0573382 -0.0573384 -0.103823 -0.00000256271 -0.103823 C 0.0573497 -0.103823 0.103835 -0.0573382 0.103835 -0.00000231562 Z M 0.103835 -0.00000231562 " transform="matrix(238.316106,0,0,238.316106,492.238892,136.469302)"/>
<path style="fill-rule:nonzero;fill:rgb(100%,92.941176%,43.529412%);fill-opacity:1;stroke-width:0.0207653;stroke-linecap:butt;stroke-linejoin:miter;stroke:rgb(60%,60%,60%);stroke-opacity:0.8;stroke-miterlimit:10;" d="M 0.103831 -0.00000236402 C 0.103831 0.0573499 0.0573457 0.103835 -0.00000656818 0.103835 C -0.0573424 0.103835 -0.103827 0.0573499 -0.103827 -0.00000236402 C -0.103827 -0.0573382 -0.0573424 -0.103823 -0.00000656818 -0.103823 C 0.0573457 -0.103823 0.103831 -0.0573382 0.103831 -0.00000236402 Z M 0.103831 -0.00000236402 " transform="matrix(238.316106,0,0,238.316106,213.993753,229.867751)"/>
<path style="fill-rule:nonzero;fill:rgb(100%,92.941176%,43.529412%);fill-opacity:1;stroke-width:0.0207653;stroke-linecap:butt;stroke-linejoin:miter;stroke:rgb(60%,60%,60%);stroke-opacity:0.8;stroke-miterlimit:10;" d="M 0.10383 -0.00000165261 C 0.10383 0.0573342 0.0573448 0.103819 -0.00000744209 0.103819 C -0.0573433 0.103819 -0.103828 0.0573342 -0.103828 -0.00000165261 C -0.103828 -0.0573375 -0.0573433 -0.103823 -0.00000744209 -0.103823 C 0.0573448 -0.103823 0.10383 -0.0573375 0.10383 -0.00000165261 Z M 0.10383 -0.00000165261 " transform="matrix(238.316106,0,0,238.316106,387.708805,172.383206)"/>
<path style="fill-rule:nonzero;fill:rgb(100%,92.941176%,43.529412%);fill-opacity:1;stroke-width:0.0207653;stroke-linecap:butt;stroke-linejoin:miter;stroke:rgb(60%,60%,60%);stroke-opacity:0.8;stroke-miterlimit:10;" d="M 0.103819 -0.00000606284 C 0.103819 0.0573462 0.0573501 0.103831 -0.00000215872 0.103831 C -0.057338 0.103831 -0.103823 0.0573462 -0.103823 -0.00000606284 C -0.103823 -0.0573419 -0.057338 -0.103827 -0.00000215872 -0.103827 C 0.0573501 -0.103827 0.103819 -0.0573419 0.103819 -0.00000606284 Z M 0.103819 -0.00000606284 " transform="matrix(238.316106,0,0,238.316106,289.652858,498.739726)"/>
<path style="fill-rule:nonzero;fill:rgb(100%,92.941176%,43.529412%);fill-opacity:1;stroke-width:0.0207653;stroke-linecap:butt;stroke-linejoin:miter;stroke:rgb(60%,60%,60%);stroke-opacity:0.8;stroke-miterlimit:10;" d="M 0.103821 0.00000300511 C 0.103821 0.0573389 0.0573355 0.103824 -0.000000364768 0.103824 C -0.0573362 0.103824 -0.103821 0.0573389 -0.103821 0.00000300511 C -0.103821 -0.0573493 -0.0573362 -0.103834 -0.000000364768 -0.103834 C 0.0573355 -0.103834 0.103821 -0.0573493 0.103821 0.00000300511 Z M 0.103821 0.00000300511 " transform="matrix(238.316106,0,0,238.316106,260.617274,410.75319)"/>
<path style="fill-rule:nonzero;fill:rgb(100%,92.941176%,43.529412%);fill-opacity:1;stroke-width:0.0207653;stroke-linecap:butt;stroke-linejoin:miter;stroke:rgb(60%,60%,60%);stroke-opacity:0.8;stroke-miterlimit:10;" d="M 0.103834 0.00000736558 C 0.103834 0.0573432 0.0573491 0.103828 -0.00000311663 0.103828 C -0.057339 0.103828 -0.103824 0.0573432 -0.103824 0.00000736558 C -0.103824 -0.0573449 -0.057339 -0.10383 -0.00000311663 -0.10383 C 0.0573491 -0.10383 0.103834 -0.0573449 0.103834 0.00000736558 Z M 0.103834 0.00000736558 " transform="matrix(238.316106,0,0,238.316106,274.692149,290.474807)"/>
<path style="fill-rule:nonzero;fill:rgb(100%,92.941176%,43.529412%);fill-opacity:1;stroke-width:0.0207653;stroke-linecap:butt;stroke-linejoin:miter;stroke:rgb(60%,60%,60%);stroke-opacity:0.8;stroke-miterlimit:10;" d="M 0.10382 0.000000897845 C 0.10382 0.0573368 0.0573348 0.103822 -0.00000111978 0.103822 C -0.057337 0.103822 -0.103822 0.0573368 -0.103822 0.000000897845 C -0.103822 -0.057335 -0.057337 -0.10382 -0.00000111978 -0.10382 C 0.0573348 -0.10382 0.10382 -0.057335 0.10382 0.000000897845 Z M 0.10382 0.000000897845 " transform="matrix(238.316106,0,0,238.316106,127.199486,318.792755)"/>
<path style="fill-rule:nonzero;fill:rgb(100%,92.941176%,43.529412%);fill-opacity:1;stroke-width:0.0207653;stroke-linecap:butt;stroke-linejoin:miter;stroke:rgb(60%,60%,60%);stroke-opacity:0.8;stroke-miterlimit:10;" d="M 0.103819 0.000000184996 C 0.103819 0.0573361 0.0573344 0.103821 -0.00000145068 0.103821 C -0.0573373 0.103821 -0.103822 0.0573361 -0.103822 0.000000184996 C -0.103822 -0.0573357 -0.0573373 -0.103821 -0.00000145068 -0.103821 C 0.0573344 -0.103821 0.103819 -0.0573357 0.103819 0.000000184996 Z M 0.103819 0.000000184996 " transform="matrix(238.316106,0,0,238.316106,117.652689,117.148393)"/>
<path style="fill-rule:nonzero;fill:rgb(55.294118%,82.745098%,78.039216%);fill-opacity:1;stroke-width:0.0207653;stroke-linecap:butt;stroke-linejoin:miter;stroke:rgb(60%,60%,60%);stroke-opacity:0.8;stroke-miterlimit:10;" d="M 0.103826 0.00000606284 C 0.103826 0.0573419 0.0573409 0.103827 0.00000499717 0.103827 C -0.0573473 0.103827 -0.103832 0.0573419 -0.103832 0.00000606284 C -0.103832 -0.0573462 -0.0573473 -0.103831 0.00000499717 -0.103831 C 0.0573409 -0.103831 0.103826 -0.0573462 0.103826 0.00000606284 Z M 0.103826 0.00000606284 " transform="matrix(238.316106,0,0,238.316106,47.908965,101.260274)"/>
<path style="fill-rule:nonzero;fill:rgb(55.294118%,82.745098%,78.039216%);fill-opacity:1;stroke-width:0.0207653;stroke-linecap:butt;stroke-linejoin:miter;stroke:rgb(60%,60%,60%);stroke-opacity:0.8;stroke-miterlimit:10;" d="M 0.103835 0.00000724803 C 0.103835 0.0573431 0.0573498 0.103828 -0.00000247238 0.103828 C -0.0573383 0.103828 -0.103823 0.0573431 -0.103823 0.00000724803 C -0.103823 -0.057345 -0.0573383 -0.10383 -0.00000247238 -0.10383 C 0.0573498 -0.10383 0.103835 -0.057345 0.103835 0.00000724803 Z M 0.103835 0.00000724803 " transform="matrix(238.316106,0,0,238.316106,82.164652,170.029523)"/>
<path style="fill-rule:nonzero;fill:rgb(100%,92.941176%,43.529412%);fill-opacity:1;stroke-width:0.0207653;stroke-linecap:butt;stroke-linejoin:miter;stroke:rgb(60%,60%,60%);stroke-opacity:0.8;stroke-miterlimit:10;" d="M 0.103823 -0.00000734565 C 0.103823 0.0573449 0.057338 0.10383 0.00000210203 0.10383 C -0.0573338 0.10383 -0.103819 0.0573449 -0.103819 -0.00000734565 C -0.103819 -0.0573432 -0.0573338 -0.103828 0.00000210203 -0.103828 C 0.057338 -0.103828 0.103823 -0.0573432 0.103823 -0.00000734565 Z M 0.103823 -0.00000734565 " transform="matrix(238.316106,0,0,238.316106,251.08153,122.603313)"/>
</g>
</svg>
