<?xml version="1.0" encoding="UTF-8"?>
<svg xmlns="http://www.w3.org/2000/svg" xmlns:xlink="http://www.w3.org/1999/xlink" width="600pt" height="600pt" viewBox="0 0 600 600" version="1.1">
<defs>
<clipPath id="clip1">
  <path d="M 153 0 L 345 0 L 345 132 L 153 132 Z M 153 0 "/>
</clipPath>
<clipPath id="clip2">
  <path d="M 151.832031 -118.664062 L 346.316406 -118.664062 L 346.316406 241.347656 L 151.832031 241.347656 Z M 151.832031 -118.664062 L 307.648438 48.4375 C 307.648438 59.59375 298.605469 68.640625 287.445312 68.640625 C 276.289062 68.640625 267.242188 59.59375 267.242188 48.4375 C 267.242188 37.277344 276.289062 28.234375 287.445312 28.234375 C 298.605469 28.234375 307.648438 37.277344 307.648438 48.4375 Z M 151.832031 -118.664062 "/>
</clipPath>
<clipPath id="clip3">
  <path d="M 151.832031 -118.664062 L 346.316406 -118.664062 L 346.316406 241.347656 L 151.832031 241.347656 Z M 151.832031 -118.664062 L 230.902344 74.242188 C 230.902344 85.398438 221.855469 94.445312 210.699219 94.445312 C 199.542969 94.445312 190.496094 85.398438 190.496094 74.242188 C 190.496094 63.082031 199.542969 54.039062 210.699219 54.039062 C 221.855469 54.039062 230.902344 63.082031 230.902344 74.242188 Z M 151.832031 -118.664062 "/>
</clipPath>
<clipPath id="clip4">
  <path d="M 265.21875 0 L 371.441406 0 L 371.441406 106 L 265.21875 106 Z M 265.21875 0 "/>
</clipPath>
<clipPath id="clip5">
  <path d="M 265.21875 -133.238281 L 371.441406 -133.238281 L 371.441406 223.550781 L 265.21875 223.550781 Z M 265.21875 -133.238281 L 307.648438 48.4375 C 307.648438 59.59375 298.605469 68.640625 287.445312 68.640625 C 276.289062 68.640625 267.242188 59.59375 267.242188 48.4375 C 267.242188 37.277344 276.289062 28.234375 287.445312 28.234375 C 298.605469 28.234375 307.648438 37.277344 307.648438 48.4375 Z M 265.21875 -133.238281 "/>
</clipPath>
<clipPath id="clip6">
  <path d="M 265.21875 -133.238281 L 371.441406 -133.238281 L 371.441406 223.550781 L 265.21875 223.550781 Z M 265.21875 -133.238281 L 369.414062 41.871094 C 369.414062 53.027344 360.367188 62.074219 349.210938 62.074219 C 338.050781 62.074219 329.007812 53.027344 329.007812 41.871094 C 329.007812 30.710938 338.050781 21.667969 349.210938 21.667969 C 360.367188 21.667969 369.414062 30.710938 369.414062 41.871094 Z M 265.21875 -133.238281 "/>
</clipPath>
<clipPath id="clip7">
  <path d="M 107 17 L 268 17 L 268 186 L 107 186 Z M 107 17 "/>
</clipPath>
<clipPath id="clip8">
  <path d="M 29.945312 -41.453125 L 345.617188 -41.453125 L 345.617188 243.671875 L 29.945312 243.671875 Z M 29.945312 -41.453125 L 185.0625 127.972656 C 185.0625 139.132812 176.015625 148.175781 164.859375 148.175781 C 153.703125 148.175781 144.65625 139.132812 144.65625 127.972656 C 144.65625 116.816406 153.703125 107.769531 164.859375 107.769531 C 176.015625 107.769531 185.0625 116.816406 185.0625 127.972656 Z M 29.945312 -41.453125 "/>
</clipPath>
<clipPath id="clip9">
  <path d="M 29.945312 -41.453125 L 345.617188 -41.453125 L 345.617188 243.671875 L 29.945312 243.671875 Z M 29.945312 -41.453125 L 230.902344 74.242188 C 230.902344 85.398438 221.855469 94.445312 210.699219 94.445312 C 199.542969 94.445312 190.496094 85.398438 190.496094 74.242188 C 190.496094 63.082031 199.542969 54.039062 210.699219 54.039062 C 221.855469 54.039062 230.902344 63.082031 230.902344 74.242188 Z M 29.945312 -41.453125 "/>
</clipPath>
<clipPath id="clip10">
  <path d="M 107 70 L 256 70 L 256 249 L 107 249 Z M 107 70 "/>
</clipPath>
<clipPath id="clip11">
  <path d="M 8.9375 43.140625 L 354.277344 43.140625 L 354.277344 275.769531 L 8.9375 275.769531 Z M 8.9375 43.140625 L 185.0625 127.972656 C 185.0625 139.132812 176.015625 148.175781 164.859375 148.175781 C 153.703125 148.175781 144.65625 139.132812 144.65625 127.972656 C 144.65625 116.816406 153.703125 107.769531 164.859375 107.769531 C 176.015625 107.769531 185.0625 116.816406 185.0625 127.972656 Z M 8.9375 43.140625 "/>
</clipPath>
<clipPath id="clip12">
  <path d="M 8.9375 43.140625 L 354.277344 43.140625 L 354.277344 275.769531 L 8.9375 275.769531 Z M 8.9375 43.140625 L 218.554688 190.933594 C 218.554688 202.089844 209.507812 211.136719 198.351562 211.136719 C 187.191406 211.136719 178.148438 202.089844 178.148438 190.933594 C 178.148438 179.773438 187.191406 170.730469 198.351562 170.730469 C 209.507812 170.730469 218.554688 179.773438 218.554688 190.933594 Z M 8.9375 43.140625 "/>
</clipPath>
<clipPath id="clip13">
  <path d="M 333 341.167969 L 451 341.167969 L 451 495.417969 L 333 495.417969 Z M 333 341.167969 "/>
</clipPath>
<clipPath id="clip14">
  <path d="M 214.46875 341.167969 L 568.917969 341.167969 L 568.917969 495.417969 L 214.46875 495.417969 Z M 214.46875 341.167969 L 410.71875 488.492188 C 410.71875 499.652344 401.671875 508.695312 390.515625 508.695312 C 379.355469 508.695312 370.3125 499.652344 370.3125 488.492188 C 370.3125 477.335938 379.355469 468.289062 390.515625 468.289062 C 401.671875 468.289062 410.71875 477.335938 410.71875 488.492188 Z M 214.46875 341.167969 "/>
</clipPath>
<clipPath id="clip15">
  <path d="M 214.46875 341.167969 L 568.917969 341.167969 L 568.917969 495.417969 L 214.46875 495.417969 Z M 214.46875 341.167969 L 413.070312 348.089844 C 413.070312 359.246094 404.023438 368.292969 392.867188 368.292969 C 381.707031 368.292969 372.664062 359.246094 372.664062 348.089844 C 372.664062 336.929688 381.707031 327.886719 392.867188 327.886719 C 404.023438 327.886719 413.070312 336.929688 413.070312 348.089844 Z M 214.46875 341.167969 "/>
</clipPath>
<clipPath id="clip16">
  <path d="M 323 460.582031 L 448 460.582031 L 448 586.042969 L 323 586.042969 Z M 323 460.582031 "/>
</clipPath>
<clipPath id="clip17">
  <path d="M 206.347656 460.582031 L 564.929688 460.582031 L 564.929688 586.042969 L 206.347656 586.042969 Z M 206.347656 460.582031 L 410.71875 488.492188 C 410.71875 499.652344 401.671875 508.695312 390.515625 508.695312 C 379.355469 508.695312 370.3125 499.652344 370.3125 488.492188 C 370.3125 477.335938 379.355469 468.289062 390.515625 468.289062 C 401.671875 468.289062 410.71875 477.335938 410.71875 488.492188 Z M 206.347656 460.582031 "/>
</clipPath>
<clipPath id="clip18">
  <path d="M 206.347656 460.582031 L 564.929688 460.582031 L 564.929688 586.042969 L 206.347656 586.042969 Z M 206.347656 460.582031 L 400.960938 558.128906 C 400.960938 569.289062 391.914062 578.332031 380.757812 578.332031 C 369.597656 578.332031 360.554688 569.289062 360.554688 558.128906 C 360.554688 546.972656 369.597656 537.925781 380.757812 537.925781 C 391.914062 537.925781 400.960938 546.972656 400.960938 558.128906 Z M 206.347656 460.582031 "/>
</clipPath>
<clipPath id="clip19">
  <path d="M 141 133 L 345 133 L 345 310 L 141 310 Z M 141 133 "/>
</clipPath>
<clipPath id="clip20">
  <path d="M 96.507812 45.367188 L 389.289062 45.367188 L 389.289062 398.070312 L 96.507812 398.070312 Z M 96.507812 45.367188 L 307.644531 252.5 C 307.644531 263.660156 298.597656 272.703125 287.441406 272.703125 C 276.28125 272.703125 267.238281 263.660156 267.238281 252.5 C 267.238281 241.34375 276.28125 232.296875 287.441406 232.296875 C 298.597656 232.296875 307.644531 241.34375 307.644531 252.5 Z M 96.507812 45.367188 "/>
</clipPath>
<clipPath id="clip21">
  <path d="M 96.507812 45.367188 L 389.289062 45.367188 L 389.289062 398.070312 L 96.507812 398.070312 Z M 96.507812 45.367188 L 218.554688 190.933594 C 218.554688 202.089844 209.507812 211.136719 198.351562 211.136719 C 187.191406 211.136719 178.148438 202.089844 178.148438 190.933594 C 178.148438 179.773438 187.191406 170.730469 198.351562 170.730469 C 209.507812 170.730469 218.554688 179.773438 218.554688 190.933594 Z M 96.507812 45.367188 "/>
</clipPath>
<clipPath id="clip22">
  <path d="M 230 195 L 451 195 L 451 406 L 230 406 Z M 230 195 "/>
</clipPath>
<clipPath id="clip23">
  <path d="M 167.847656 121.015625 L 512.464844 121.015625 L 512.464844 479.578125 L 167.847656 479.578125 Z M 167.847656 121.015625 L 307.644531 252.5 C 307.644531 263.660156 298.597656 272.703125 287.441406 272.703125 C 276.28125 272.703125 267.238281 263.660156 267.238281 252.5 C 267.238281 241.34375 276.28125 232.296875 287.441406 232.296875 C 298.597656 232.296875 307.644531 241.34375 307.644531 252.5 Z M 167.847656 121.015625 "/>
</clipPath>
<clipPath id="clip24">
  <path d="M 167.847656 121.015625 L 512.464844 121.015625 L 512.464844 479.578125 L 167.847656 479.578125 Z M 167.847656 121.015625 L 413.070312 348.089844 C 413.070312 359.246094 404.023438 368.292969 392.867188 368.292969 C 381.707031 368.292969 372.664062 359.246094 372.664062 348.089844 C 372.664062 336.929688 381.707031 327.886719 392.867188 327.886719 C 404.023438 327.886719 413.070312 336.929688 413.070312 348.089844 Z M 167.847656 121.015625 "/>
</clipPath>
<clipPath id="clip25">
  <path d="M 335 195 L 517 195 L 517 406 L 335 406 Z M 335 195 "/>
</clipPath>
<clipPath id="clip26">
  <path d="M 247.894531 149.816406 L 604.75 149.816406 L 604.75 450.792969 L 247.894531 450.792969 Z M 247.894531 149.816406 L 413.070312 348.089844 C 413.070312 359.246094 404.023438 368.292969 392.867188 368.292969 C 381.707031 368.292969 372.664062 359.246094 372.664062 348.089844 C 372.664062 336.929688 381.707031 327.886719 392.867188 327.886719 C 404.023438 327.886719 413.070312 336.929688 413.070312 348.089844 Z M 247.894531 149.816406 "/>
</clipPath>
<clipPath id="clip27">
  <path d="M 247.894531 149.816406 L 604.75 149.816406 L 604.75 450.792969 L 247.894531 450.792969 Z M 247.894531 149.816406 L 479.976562 252.515625 C 479.976562 263.671875 470.929688 272.71875 459.773438 272.71875 C 448.613281 272.71875 439.570312 263.671875 439.570312 252.515625 C 439.570312 241.355469 448.613281 232.3125 459.773438 232.3125 C 470.929688 232.3125 479.976562 241.355469 479.976562 252.515625 Z M 247.894531 149.816406 "/>
</clipPath>
<clipPath id="clip28">
  <path d="M 335 290 L 493 290 L 493 430 L 335 430 Z M 335 290 "/>
</clipPath>
<clipPath id="clip29">
  <path d="M 303.542969 194.644531 L 524.765625 194.644531 L 524.765625 525.839844 L 303.542969 525.839844 Z M 303.542969 194.644531 L 413.070312 348.089844 C 413.070312 359.246094 404.023438 368.292969 392.867188 368.292969 C 381.707031 368.292969 372.664062 359.246094 372.664062 348.089844 C 372.664062 336.929688 381.707031 327.886719 392.867188 327.886719 C 404.023438 327.886719 413.070312 336.929688 413.070312 348.089844 Z M 303.542969 194.644531 "/>
</clipPath>
<clipPath id="clip30">
  <path d="M 303.542969 194.644531 L 524.765625 194.644531 L 524.765625 525.839844 L 303.542969 525.839844 Z M 303.542969 194.644531 L 455.640625 372.390625 C 455.640625 383.550781 446.597656 392.59375 435.4375 392.59375 C 424.28125 392.59375 415.234375 383.550781 415.234375 372.390625 C 415.234375 361.234375 424.28125 352.1875 435.4375 352.1875 C 446.597656 352.1875 455.640625 361.234375 455.640625 372.390625 Z M 303.542969 194.644531 "/>
</clipPath>
<clipPath id="clip31">
  <path d="M 369.636719 290 L 500.835938 290 L 500.835938 415 L 369.636719 415 Z M 369.636719 290 "/>
</clipPath>
<clipPath id="clip32">
  <path d="M 369.636719 173.089844 L 500.835938 173.089844 L 500.835938 532.605469 L 369.636719 532.605469 Z M 369.636719 173.089844 L 413.070312 348.089844 C 413.070312 359.246094 404.023438 368.292969 392.867188 368.292969 C 381.707031 368.292969 372.664062 359.246094 372.664062 348.089844 C 372.664062 336.929688 381.707031 327.886719 392.867188 327.886719 C 404.023438 327.886719 413.070312 336.929688 413.070312 348.089844 Z M 369.636719 173.089844 "/>
</clipPath>
<clipPath id="clip33">
  <path d="M 369.636719 173.089844 L 500.835938 173.089844 L 500.835938 532.605469 L 369.636719 532.605469 Z M 369.636719 173.089844 L 497.804688 357.601562 C 497.804688 368.761719 488.761719 377.804688 477.601562 377.804688 C 466.445312 377.804688 457.398438 368.761719 457.398438 357.601562 C 457.398438 346.445312 466.445312 337.398438 477.601562 337.398438 C 488.761719 337.398438 497.804688 346.445312 497.804688 357.601562 Z M 369.636719 173.089844 "/>
</clipPath>
<clipPath id="clip34">
  <path d="M 258 290 L 451 290 L 451 446 L 258 446 Z M 258 290 "/>
</clipPath>
<clipPath id="clip35">
  <path d="M 231.414062 191.648438 L 476.71875 191.648438 L 476.71875 545.175781 L 231.414062 545.175781 Z M 231.414062 191.648438 L 413.070312 348.089844 C 413.070312 359.246094 404.023438 368.292969 392.867188 368.292969 C 381.707031 368.292969 372.664062 359.246094 372.664062 348.089844 C 372.664062 336.929688 381.707031 327.886719 392.867188 327.886719 C 404.023438 327.886719 413.070312 336.929688 413.070312 348.089844 Z M 231.414062 191.648438 "/>
</clipPath>
<clipPath id="clip36">
  <path d="M 231.414062 191.648438 L 476.71875 191.648438 L 476.71875 545.175781 L 231.414062 545.175781 Z M 231.414062 191.648438 L 335.464844 388.730469 C 335.464844 399.886719 326.417969 408.933594 315.261719 408.933594 C 304.101562 408.933594 295.058594 399.886719 295.058594 388.730469 C 295.058594 377.574219 304.101562 368.527344 315.261719 368.527344 C 326.417969 368.527344 335.464844 377.574219 335.464844 388.730469 Z M 231.414062 191.648438 "/>
</clipPath>
<clipPath id="clip37">
  <path d="M 24 408 L 171 408 L 171 557 L 24 557 Z M 24 408 "/>
</clipPath>
<clipPath id="clip38">
  <path d="M -49.132812 345.753906 L 244.148438 345.753906 L 244.148438 619.890625 L -49.132812 619.890625 Z M -49.132812 345.753906 L 102.15625 499.855469 C 102.15625 511.015625 93.109375 520.058594 81.953125 520.058594 C 70.796875 520.058594 61.75 511.015625 61.75 499.855469 C 61.75 488.699219 70.796875 479.652344 81.953125 479.652344 C 93.109375 479.652344 102.15625 488.699219 102.15625 499.855469 Z M -49.132812 345.753906 "/>
</clipPath>
<clipPath id="clip39">
  <path d="M -49.132812 345.753906 L 244.148438 345.753906 L 244.148438 619.890625 L -49.132812 619.890625 Z M -49.132812 345.753906 L 133.261719 465.785156 C 133.261719 476.941406 124.21875 485.988281 113.058594 485.988281 C 101.902344 485.988281 92.855469 476.941406 92.855469 465.785156 C 92.855469 454.628906 101.902344 445.582031 113.058594 445.582031 C 124.21875 445.582031 133.261719 454.628906 133.261719 465.785156 Z M -49.132812 345.753906 "/>
</clipPath>
<clipPath id="clip40">
  <path d="M 55 353 L 223 353 L 223 523 L 55 523 Z M 55 353 "/>
</clipPath>
<clipPath id="clip41">
  <path d="M -15.480469 288.007812 L 294.0625 288.007812 L 294.0625 588.554688 L -15.480469 588.554688 Z M -15.480469 288.007812 L 133.261719 465.785156 C 133.261719 476.941406 124.21875 485.988281 113.058594 485.988281 C 101.902344 485.988281 92.855469 476.941406 92.855469 465.785156 C 92.855469 454.628906 101.902344 445.582031 113.058594 445.582031 C 124.21875 445.582031 133.261719 454.628906 133.261719 465.785156 Z M -15.480469 288.007812 "/>
</clipPath>
<clipPath id="clip42">
  <path d="M -15.480469 288.007812 L 294.0625 288.007812 L 294.0625 588.554688 L -15.480469 588.554688 Z M -15.480469 288.007812 L 185.722656 410.773438 C 185.722656 421.933594 176.679688 430.976562 165.519531 430.976562 C 154.363281 430.976562 145.316406 421.933594 145.316406 410.773438 C 145.316406 399.617188 154.363281 390.570312 165.519531 390.570312 C 176.679688 390.570312 185.722656 399.617188 185.722656 410.773438 Z M -15.480469 288.007812 "/>
</clipPath>
<clipPath id="clip43">
  <path d="M 33 312 L 223 312 L 223 468 L 33 468 Z M 33 312 "/>
</clipPath>
<clipPath id="clip44">
  <path d="M 4.234375 215.035156 L 252.304688 215.035156 L 252.304688 565.644531 L 4.234375 565.644531 Z M 4.234375 215.035156 L 185.722656 410.773438 C 185.722656 421.933594 176.679688 430.976562 165.519531 430.976562 C 154.363281 430.976562 145.316406 421.933594 145.316406 410.773438 C 145.316406 399.617188 154.363281 390.570312 165.519531 390.570312 C 176.679688 390.570312 185.722656 399.617188 185.722656 410.773438 Z M 4.234375 215.035156 "/>
</clipPath>
<clipPath id="clip45">
  <path d="M 4.234375 215.035156 L 252.304688 215.035156 L 252.304688 565.644531 L 4.234375 565.644531 Z M 4.234375 215.035156 L 111.21875 369.902344 C 111.21875 381.058594 102.171875 390.105469 91.015625 390.105469 C 79.855469 390.105469 70.8125 381.058594 70.8125 369.902344 C 70.8125 358.746094 79.855469 349.699219 91.015625 349.699219 C 102.171875 349.699219 111.21875 358.746094 111.21875 369.902344 Z M 4.234375 215.035156 "/>
</clipPath>
<clipPath id="clip46">
  <path d="M 136.425781 331 L 344.359375 331 L 344.359375 468 L 136.425781 468 Z M 136.425781 331 "/>
</clipPath>
<clipPath id="clip47">
  <path d="M 136.425781 214.492188 L 344.359375 214.492188 L 344.359375 585.015625 L 136.425781 585.015625 Z M 136.425781 214.492188 L 185.722656 410.773438 C 185.722656 421.933594 176.679688 430.976562 165.519531 430.976562 C 154.363281 430.976562 145.316406 421.933594 145.316406 410.773438 C 145.316406 399.617188 154.363281 390.570312 165.519531 390.570312 C 176.679688 390.570312 185.722656 399.617188 185.722656 410.773438 Z M 136.425781 214.492188 "/>
</clipPath>
<clipPath id="clip48">
  <path d="M 136.425781 214.492188 L 344.359375 214.492188 L 344.359375 585.015625 L 136.425781 585.015625 Z M 136.425781 214.492188 L 335.464844 388.730469 C 335.464844 399.886719 326.417969 408.933594 315.261719 408.933594 C 304.101562 408.933594 295.058594 399.886719 295.058594 388.730469 C 295.058594 377.574219 304.101562 368.527344 315.261719 368.527344 C 326.417969 368.527344 335.464844 377.574219 335.464844 388.730469 Z M 136.425781 214.492188 "/>
</clipPath>
<clipPath id="clip49">
  <path d="M 419.839844 309 L 533.648438 309 L 533.648438 430 L 419.839844 430 Z M 419.839844 309 "/>
</clipPath>
<clipPath id="clip50">
  <path d="M 419.839844 191.144531 L 533.648438 191.144531 L 533.648438 548.078125 L 419.839844 548.078125 Z M 419.839844 191.144531 L 538.25 366.828125 C 538.25 377.988281 529.203125 387.03125 518.046875 387.03125 C 506.890625 387.03125 497.84375 377.988281 497.84375 366.828125 C 497.84375 355.671875 506.890625 346.625 518.046875 346.625 C 529.203125 346.625 538.25 355.671875 538.25 366.828125 Z M 419.839844 191.144531 "/>
</clipPath>
<clipPath id="clip51">
  <path d="M 419.839844 191.144531 L 533.648438 191.144531 L 533.648438 548.078125 L 419.839844 548.078125 Z M 419.839844 191.144531 L 455.640625 372.390625 C 455.640625 383.550781 446.597656 392.59375 435.4375 392.59375 C 424.28125 392.59375 415.234375 383.550781 415.234375 372.390625 C 415.234375 361.234375 424.28125 352.1875 435.4375 352.1875 C 446.597656 352.1875 455.640625 361.234375 455.640625 372.390625 Z M 419.839844 191.144531 "/>
</clipPath>
<clipPath id="clip52">
  <path d="M 435.300781 300 L 560.351562 300 L 560.351562 424 L 435.300781 424 Z M 435.300781 300 "/>
</clipPath>
<clipPath id="clip53">
  <path d="M 435.300781 185.835938 L 560.351562 185.835938 L 560.351562 538.597656 L 435.300781 538.597656 Z M 435.300781 185.835938 L 538.25 366.828125 C 538.25 377.988281 529.203125 387.03125 518.046875 387.03125 C 506.890625 387.03125 497.84375 377.988281 497.84375 366.828125 C 497.84375 355.671875 506.890625 346.625 518.046875 346.625 C 529.203125 346.625 538.25 355.671875 538.25 366.828125 Z M 435.300781 185.835938 "/>
</clipPath>
<clipPath id="clip54">
  <path d="M 435.300781 185.835938 L 560.351562 185.835938 L 560.351562 538.597656 L 435.300781 538.597656 Z M 435.300781 185.835938 L 497.804688 357.601562 C 497.804688 368.761719 488.761719 377.804688 477.601562 377.804688 C 466.445312 377.804688 457.398438 368.761719 457.398438 357.601562 C 457.398438 346.445312 466.445312 337.398438 477.601562 337.398438 C 488.761719 337.398438 497.804688 346.445312 497.804688 357.601562 Z M 435.300781 185.835938 "/>
</clipPath>
<clipPath id="clip55">
  <path d="M 378 300 L 535 300 L 535 430 L 378 430 Z M 378 300 "/>
</clipPath>
<clipPath id="clip56">
  <path d="M 374.457031 191.226562 L 538.585938 191.226562 L 538.585938 538.769531 L 374.457031 538.769531 Z M 374.457031 191.226562 L 455.640625 372.390625 C 455.640625 383.550781 446.597656 392.59375 435.4375 392.59375 C 424.28125 392.59375 415.234375 383.550781 415.234375 372.390625 C 415.234375 361.234375 424.28125 352.1875 435.4375 352.1875 C 446.597656 352.1875 455.640625 361.234375 455.640625 372.390625 Z M 374.457031 191.226562 "/>
</clipPath>
<clipPath id="clip57">
  <path d="M 374.457031 191.226562 L 538.585938 191.226562 L 538.585938 538.769531 L 374.457031 538.769531 Z M 374.457031 191.226562 L 497.804688 357.601562 C 497.804688 368.761719 488.761719 377.804688 477.601562 377.804688 C 466.445312 377.804688 457.398438 368.761719 457.398438 357.601562 C 457.398438 346.445312 466.445312 337.398438 477.601562 337.398438 C 488.761719 337.398438 497.804688 346.445312 497.804688 357.601562 Z M 374.457031 191.226562 "/>
</clipPath>
<clipPath id="clip58">
  <path d="M 288.046875 315 L 462.65625 315 L 462.65625 446 L 288.046875 446 Z M 288.046875 315 "/>
</clipPath>
<clipPath id="clip59">
  <path d="M 288.046875 197.886719 L 462.65625 197.886719 L 462.65625 563.238281 L 288.046875 563.238281 Z M 288.046875 197.886719 L 455.640625 372.390625 C 455.640625 383.550781 446.597656 392.59375 435.4375 392.59375 C 424.28125 392.59375 415.234375 383.550781 415.234375 372.390625 C 415.234375 361.234375 424.28125 352.1875 435.4375 352.1875 C 446.597656 352.1875 455.640625 361.234375 455.640625 372.390625 Z M 288.046875 197.886719 "/>
</clipPath>
<clipPath id="clip60">
  <path d="M 288.046875 197.886719 L 462.65625 197.886719 L 462.65625 563.238281 L 288.046875 563.238281 Z M 288.046875 197.886719 L 335.464844 388.730469 C 335.464844 399.886719 326.417969 408.933594 315.261719 408.933594 C 304.101562 408.933594 295.058594 399.886719 295.058594 388.730469 C 295.058594 377.574219 304.101562 368.527344 315.261719 368.527344 C 326.417969 368.527344 335.464844 377.574219 335.464844 388.730469 Z M 288.046875 197.886719 "/>
</clipPath>
</defs>
<g id="surface386">
<g clip-path="url(#clip1)" clip-rule="nonzero">
<g clip-path="url(#clip2)" clip-rule="evenodd">
<g clip-path="url(#clip3)" clip-rule="evenodd">
<path style="fill:none;stroke-width:0.0234873;stroke-linecap:butt;stroke-linejoin:miter;stroke:rgb(17.96875%,20.3125%,21.09375%);stroke-opacity:0.8;stroke-miterlimit:10;" d="M 2.188294 0.454176 L 1.742183 0.604174 " transform="matrix(172.033637,0,0,172.033637,-89.014853,-29.696081)"/>
</g>
</g>
</g>
<g clip-path="url(#clip4)" clip-rule="nonzero">
<g clip-path="url(#clip5)" clip-rule="evenodd">
<g clip-path="url(#clip6)" clip-rule="evenodd">
<path style="fill:none;stroke-width:0.0234873;stroke-linecap:butt;stroke-linejoin:miter;stroke:rgb(17.96875%,20.3125%,21.09375%);stroke-opacity:0.8;stroke-miterlimit:10;" d="M 2.188294 0.454176 L 2.547326 0.416007 " transform="matrix(172.033637,0,0,172.033637,-89.014853,-29.696081)"/>
</g>
</g>
</g>
<g clip-path="url(#clip7)" clip-rule="nonzero">
<g clip-path="url(#clip8)" clip-rule="evenodd">
<g clip-path="url(#clip9)" clip-rule="evenodd">
<path style="fill:none;stroke-width:0.0234873;stroke-linecap:butt;stroke-linejoin:miter;stroke:rgb(17.96875%,20.3125%,21.09375%);stroke-opacity:0.8;stroke-miterlimit:10;" d="M 1.475724 0.916499 L 1.742183 0.604174 " transform="matrix(172.033637,0,0,172.033637,-89.014853,-29.696081)"/>
</g>
</g>
</g>
<g clip-path="url(#clip10)" clip-rule="nonzero">
<g clip-path="url(#clip11)" clip-rule="evenodd">
<g clip-path="url(#clip12)" clip-rule="evenodd">
<path style="fill:none;stroke-width:0.0234873;stroke-linecap:butt;stroke-linejoin:miter;stroke:rgb(17.96875%,20.3125%,21.09375%);stroke-opacity:0.8;stroke-miterlimit:10;" d="M 1.475724 0.916499 L 1.670408 1.28248 " transform="matrix(172.033637,0,0,172.033637,-89.014853,-29.696081)"/>
</g>
</g>
</g>
<g clip-path="url(#clip13)" clip-rule="nonzero">
<g clip-path="url(#clip14)" clip-rule="evenodd">
<g clip-path="url(#clip15)" clip-rule="evenodd">
<path style="fill:none;stroke-width:0.0234873;stroke-linecap:butt;stroke-linejoin:miter;stroke:rgb(17.96875%,20.3125%,21.09375%);stroke-opacity:0.8;stroke-miterlimit:10;" d="M 2.787423 3.012133 L 2.801092 2.196 " transform="matrix(172.033637,0,0,172.033637,-89.014853,-29.696081)"/>
</g>
</g>
</g>
<g clip-path="url(#clip16)" clip-rule="nonzero">
<g clip-path="url(#clip17)" clip-rule="evenodd">
<g clip-path="url(#clip18)" clip-rule="evenodd">
<path style="fill:none;stroke-width:0.0234873;stroke-linecap:butt;stroke-linejoin:miter;stroke:rgb(17.96875%,20.3125%,21.09375%);stroke-opacity:0.8;stroke-miterlimit:10;" d="M 2.787423 3.012133 L 2.730702 3.416919 " transform="matrix(172.033637,0,0,172.033637,-89.014853,-29.696081)"/>
</g>
</g>
</g>
<g clip-path="url(#clip19)" clip-rule="nonzero">
<g clip-path="url(#clip20)" clip-rule="evenodd">
<g clip-path="url(#clip21)" clip-rule="evenodd">
<path style="fill:none;stroke-width:0.0234873;stroke-linecap:butt;stroke-linejoin:miter;stroke:rgb(17.96875%,20.3125%,21.09375%);stroke-opacity:0.8;stroke-miterlimit:10;" d="M 2.188271 1.640354 L 1.670408 1.28248 " transform="matrix(172.033637,0,0,172.033637,-89.014853,-29.696081)"/>
</g>
</g>
</g>
<g clip-path="url(#clip22)" clip-rule="nonzero">
<g clip-path="url(#clip23)" clip-rule="evenodd">
<g clip-path="url(#clip24)" clip-rule="evenodd">
<path style="fill:none;stroke-width:0.0234873;stroke-linecap:butt;stroke-linejoin:miter;stroke:rgb(17.96875%,20.3125%,21.09375%);stroke-opacity:0.8;stroke-miterlimit:10;" d="M 2.188271 1.640354 L 2.801092 2.196 " transform="matrix(172.033637,0,0,172.033637,-89.014853,-29.696081)"/>
</g>
</g>
</g>
<g clip-path="url(#clip25)" clip-rule="nonzero">
<g clip-path="url(#clip26)" clip-rule="evenodd">
<g clip-path="url(#clip27)" clip-rule="evenodd">
<path style="fill:none;stroke-width:0.0234873;stroke-linecap:butt;stroke-linejoin:miter;stroke:rgb(17.96875%,20.3125%,21.09375%);stroke-opacity:0.8;stroke-miterlimit:10;" d="M 2.801092 2.196 L 3.190006 1.640445 " transform="matrix(172.033637,0,0,172.033637,-89.014853,-29.696081)"/>
</g>
</g>
</g>
<g clip-path="url(#clip28)" clip-rule="nonzero">
<g clip-path="url(#clip29)" clip-rule="evenodd">
<g clip-path="url(#clip30)" clip-rule="evenodd">
<path style="fill:none;stroke-width:0.0234873;stroke-linecap:butt;stroke-linejoin:miter;stroke:rgb(17.96875%,20.3125%,21.09375%);stroke-opacity:0.8;stroke-miterlimit:10;" d="M 2.801092 2.196 L 3.048545 2.337256 " transform="matrix(172.033637,0,0,172.033637,-89.014853,-29.696081)"/>
</g>
</g>
</g>
<g clip-path="url(#clip31)" clip-rule="nonzero">
<g clip-path="url(#clip32)" clip-rule="evenodd">
<g clip-path="url(#clip33)" clip-rule="evenodd">
<path style="fill:none;stroke-width:0.0234873;stroke-linecap:butt;stroke-linejoin:miter;stroke:rgb(17.96875%,20.3125%,21.09375%);stroke-opacity:0.8;stroke-miterlimit:10;" d="M 2.801092 2.196 L 3.293637 2.25129 " transform="matrix(172.033637,0,0,172.033637,-89.014853,-29.696081)"/>
</g>
</g>
</g>
<g clip-path="url(#clip34)" clip-rule="nonzero">
<g clip-path="url(#clip35)" clip-rule="evenodd">
<g clip-path="url(#clip36)" clip-rule="evenodd">
<path style="fill:none;stroke-width:0.0234873;stroke-linecap:butt;stroke-linejoin:miter;stroke:rgb(17.96875%,20.3125%,21.09375%);stroke-opacity:0.8;stroke-miterlimit:10;" d="M 2.801092 2.196 L 2.349986 2.432237 " transform="matrix(172.033637,0,0,172.033637,-89.014853,-29.696081)"/>
</g>
</g>
</g>
<g clip-path="url(#clip37)" clip-rule="nonzero">
<g clip-path="url(#clip38)" clip-rule="evenodd">
<g clip-path="url(#clip39)" clip-rule="evenodd">
<path style="fill:none;stroke-width:0.0234873;stroke-linecap:butt;stroke-linejoin:miter;stroke:rgb(17.96875%,20.3125%,21.09375%);stroke-opacity:0.8;stroke-miterlimit:10;" d="M 0.993806 3.078186 L 1.174616 2.880142 " transform="matrix(172.033637,0,0,172.033637,-89.014853,-29.696081)"/>
</g>
</g>
</g>
<g clip-path="url(#clip40)" clip-rule="nonzero">
<g clip-path="url(#clip41)" clip-rule="evenodd">
<g clip-path="url(#clip42)" clip-rule="evenodd">
<path style="fill:none;stroke-width:0.0234873;stroke-linecap:butt;stroke-linejoin:miter;stroke:rgb(17.96875%,20.3125%,21.09375%);stroke-opacity:0.8;stroke-miterlimit:10;" d="M 1.174616 2.880142 L 1.479562 2.560369 " transform="matrix(172.033637,0,0,172.033637,-89.014853,-29.696081)"/>
</g>
</g>
</g>
<g clip-path="url(#clip43)" clip-rule="nonzero">
<g clip-path="url(#clip44)" clip-rule="evenodd">
<g clip-path="url(#clip45)" clip-rule="evenodd">
<path style="fill:none;stroke-width:0.0234873;stroke-linecap:butt;stroke-linejoin:miter;stroke:rgb(17.96875%,20.3125%,21.09375%);stroke-opacity:0.8;stroke-miterlimit:10;" d="M 1.479562 2.560369 L 1.046484 2.322792 " transform="matrix(172.033637,0,0,172.033637,-89.014853,-29.696081)"/>
</g>
</g>
</g>
<g clip-path="url(#clip46)" clip-rule="nonzero">
<g clip-path="url(#clip47)" clip-rule="evenodd">
<g clip-path="url(#clip48)" clip-rule="evenodd">
<path style="fill:none;stroke-width:0.0234873;stroke-linecap:butt;stroke-linejoin:miter;stroke:rgb(17.96875%,20.3125%,21.09375%);stroke-opacity:0.8;stroke-miterlimit:10;" d="M 1.479562 2.560369 L 2.349986 2.432237 " transform="matrix(172.033637,0,0,172.033637,-89.014853,-29.696081)"/>
</g>
</g>
</g>
<g clip-path="url(#clip49)" clip-rule="nonzero">
<g clip-path="url(#clip50)" clip-rule="evenodd">
<g clip-path="url(#clip51)" clip-rule="evenodd">
<path style="fill:none;stroke-width:0.0234873;stroke-linecap:butt;stroke-linejoin:miter;stroke:rgb(17.96875%,20.3125%,21.09375%);stroke-opacity:0.8;stroke-miterlimit:10;" d="M 3.528739 2.304923 L 3.048545 2.337256 " transform="matrix(172.033637,0,0,172.033637,-89.014853,-29.696081)"/>
</g>
</g>
</g>
<g clip-path="url(#clip52)" clip-rule="nonzero">
<g clip-path="url(#clip53)" clip-rule="evenodd">
<g clip-path="url(#clip54)" clip-rule="evenodd">
<path style="fill:none;stroke-width:0.0234873;stroke-linecap:butt;stroke-linejoin:miter;stroke:rgb(17.96875%,20.3125%,21.09375%);stroke-opacity:0.8;stroke-miterlimit:10;" d="M 3.528739 2.304923 L 3.293637 2.25129 " transform="matrix(172.033637,0,0,172.033637,-89.014853,-29.696081)"/>
</g>
</g>
</g>
<g clip-path="url(#clip55)" clip-rule="nonzero">
<g clip-path="url(#clip56)" clip-rule="evenodd">
<g clip-path="url(#clip57)" clip-rule="evenodd">
<path style="fill:none;stroke-width:0.0234873;stroke-linecap:butt;stroke-linejoin:miter;stroke:rgb(17.96875%,20.3125%,21.09375%);stroke-opacity:0.8;stroke-miterlimit:10;" d="M 3.048545 2.337256 L 3.293637 2.25129 " transform="matrix(172.033637,0,0,172.033637,-89.014853,-29.696081)"/>
</g>
</g>
</g>
<g clip-path="url(#clip58)" clip-rule="nonzero">
<g clip-path="url(#clip59)" clip-rule="evenodd">
<g clip-path="url(#clip60)" clip-rule="evenodd">
<path style="fill:none;stroke-width:0.0234873;stroke-linecap:butt;stroke-linejoin:miter;stroke:rgb(17.96875%,20.3125%,21.09375%);stroke-opacity:0.8;stroke-miterlimit:10;" d="M 3.048545 2.337256 L 2.349986 2.432237 " transform="matrix(172.033637,0,0,172.033637,-89.014853,-29.696081)"/>
</g>
</g>
</g>
<path style="fill-rule:nonzero;fill:rgb(100%,92.941176%,43.529412%);fill-opacity:1;stroke-width:0.0234873;stroke-linecap:butt;stroke-linejoin:miter;stroke:rgb(60%,60%,60%);stroke-opacity:0.8;stroke-miterlimit:10;" d="M 0.117429 0.00000526496 C 0.117429 0.0648545 0.0648644 0.117442 -0.00000758153 0.117442 C -0.0648568 0.117442 -0.117445 0.0648545 -0.117445 0.00000526496 C -0.117445 -0.0648667 -0.0648568 -0.117432 -0.00000758153 -0.117432 C 0.0648644 -0.117432 0.117429 -0.0648667 0.117429 0.00000526496 Z M 0.117429 0.00000526496 " transform="matrix(172.033637,0,0,172.033637,287.446617,48.436594)"/>
<path style="fill-rule:nonzero;fill:rgb(55.294118%,82.745098%,78.039216%);fill-opacity:1;stroke-width:0.0234873;stroke-linecap:butt;stroke-linejoin:miter;stroke:rgb(60%,60%,60%);stroke-opacity:0.8;stroke-miterlimit:10;" d="M 0.117435 -0.00000484351 C 0.117435 0.0648671 0.0648474 0.117432 -0.00000186463 0.117432 C -0.0648511 0.117432 -0.117439 0.0648671 -0.117439 -0.00000484351 C -0.117439 -0.0648541 -0.0648511 -0.117442 -0.00000186463 -0.117442 C 0.0648474 -0.117442 0.117435 -0.0648541 0.117435 -0.00000484351 Z M 0.117435 -0.00000484351 " transform="matrix(172.033637,0,0,172.033637,164.859696,127.973489)"/>
<path style="fill-rule:nonzero;fill:rgb(100%,92.941176%,43.529412%);fill-opacity:1;stroke-width:0.0234873;stroke-linecap:butt;stroke-linejoin:miter;stroke:rgb(60%,60%,60%);stroke-opacity:0.8;stroke-miterlimit:10;" d="M 0.117438 0.00000675426 C 0.117438 0.064856 0.0648506 0.117444 0.00000131533 0.117444 C -0.0648479 0.117444 -0.117436 0.064856 -0.117436 0.00000675426 C -0.117436 -0.0648652 -0.0648479 -0.11743 0.00000131533 -0.11743 C 0.0648506 -0.11743 0.117438 -0.0648652 0.117438 0.00000675426 Z M 0.117438 0.00000675426 " transform="matrix(172.033637,0,0,172.033637,210.698992,74.241026)"/>
<path style="fill-rule:nonzero;fill:rgb(100%,92.941176%,43.529412%);fill-opacity:1;stroke-width:0.0234873;stroke-linecap:butt;stroke-linejoin:miter;stroke:rgb(60%,60%,60%);stroke-opacity:0.8;stroke-miterlimit:10;" d="M 0.117447 0.00000602246 C 0.117447 0.0648553 0.0648592 0.117443 0.00000991871 0.117443 C -0.064862 0.117443 -0.117427 0.0648553 -0.117427 0.00000602246 C -0.117427 -0.0648659 -0.064862 -0.117431 0.00000991871 -0.117431 C 0.0648592 -0.117431 0.117447 -0.0648659 0.117447 0.00000602246 Z M 0.117447 0.00000602246 " transform="matrix(172.033637,0,0,172.033637,349.209231,41.870058)"/>
<path style="fill-rule:nonzero;fill:rgb(55.294118%,82.745098%,78.039216%);fill-opacity:1;stroke-width:0.0234873;stroke-linecap:butt;stroke-linejoin:miter;stroke:rgb(60%,60%,60%);stroke-opacity:0.8;stroke-miterlimit:10;" d="M 0.117448 -0.00000304935 C 0.117448 0.0648689 0.06486 0.117434 0.00001079 0.117434 C -0.0648612 0.117434 -0.117426 0.0648689 -0.117426 -0.00000304935 C -0.117426 -0.0648523 -0.0648612 -0.11744 0.00001079 -0.11744 C 0.06486 -0.11744 0.117448 -0.0648523 0.117448 -0.00000304935 Z M 0.117448 -0.00000304935 " transform="matrix(172.033637,0,0,172.033637,390.513769,488.492712)"/>
<path style="fill-rule:nonzero;fill:rgb(55.294118%,82.745098%,78.039216%);fill-opacity:1;stroke-width:0.0234873;stroke-linecap:butt;stroke-linejoin:miter;stroke:rgb(60%,60%,60%);stroke-opacity:0.8;stroke-miterlimit:10;" d="M 0.117446 -0.00000366784 C 0.117446 0.0648683 0.0648586 0.117433 0.00000937944 0.117433 C -0.0648626 0.117433 -0.117428 0.0648683 -0.117428 -0.00000366784 C -0.117428 -0.0648529 -0.0648626 -0.117441 0.00000937944 -0.117441 C 0.0648586 -0.117441 0.117446 -0.0648529 0.117446 -0.00000366784 Z M 0.117446 -0.00000366784 " transform="matrix(172.033637,0,0,172.033637,287.439793,252.500631)"/>
<path style="fill-rule:nonzero;fill:rgb(55.294118%,82.745098%,78.039216%);fill-opacity:1;stroke-width:0.0234873;stroke-linecap:butt;stroke-linejoin:miter;stroke:rgb(60%,60%,60%);stroke-opacity:0.8;stroke-miterlimit:10;" d="M 0.117444 0.00000300413 C 0.117444 0.0648522 0.0648561 0.11744 0.00000686694 0.11744 C -0.0648651 0.11744 -0.11743 0.0648522 -0.11743 0.00000300413 C -0.11743 -0.0648689 -0.0648651 -0.117434 0.00000686694 -0.117434 C 0.0648561 -0.117434 0.117444 -0.0648689 0.117444 0.00000300413 Z M 0.117444 0.00000300413 " transform="matrix(172.033637,0,0,172.033637,198.350381,190.933077)"/>
<path style="fill-rule:nonzero;fill:rgb(55.294118%,82.745098%,78.039216%);fill-opacity:1;stroke-width:0.0234873;stroke-linecap:butt;stroke-linejoin:miter;stroke:rgb(60%,60%,60%);stroke-opacity:0.8;stroke-miterlimit:10;" d="M 0.117448 0.0000102673 C 0.117448 0.0648595 0.0648597 0.117447 0.0000104778 0.117447 C -0.0648615 0.117447 -0.117427 0.0648595 -0.117427 0.0000102673 C -0.117427 -0.0648617 -0.0648615 -0.117427 0.0000104778 -0.117427 C 0.0648597 -0.117427 0.117448 -0.0648617 0.117448 0.0000102673 Z M 0.117448 0.0000102673 " transform="matrix(172.033637,0,0,172.033637,392.865385,348.088077)"/>
<path style="fill-rule:nonzero;fill:rgb(55.294118%,82.745098%,78.039216%);fill-opacity:1;stroke-width:0.0234873;stroke-linecap:butt;stroke-linejoin:miter;stroke:rgb(60%,60%,60%);stroke-opacity:0.8;stroke-miterlimit:10;" d="M 0.11744 -0.00000602246 C 0.11744 0.0648659 0.0648525 0.117431 0.00000329409 0.117431 C -0.0648686 0.117431 -0.117434 0.0648659 -0.117434 -0.00000602246 C -0.117434 -0.0648553 -0.0648686 -0.117443 0.00000329409 -0.117443 C 0.0648525 -0.117443 0.11744 -0.0648553 0.11744 -0.00000602246 Z M 0.11744 -0.00000602246 " transform="matrix(172.033637,0,0,172.033637,380.757246,558.129942)"/>
<path style="fill-rule:nonzero;fill:rgb(55.294118%,82.745098%,78.039216%);fill-opacity:1;stroke-width:0.0234873;stroke-linecap:butt;stroke-linejoin:miter;stroke:rgb(60%,60%,60%);stroke-opacity:0.8;stroke-miterlimit:10;" d="M 0.117447 0.00000353415 C 0.117447 0.0648528 0.0648596 0.117441 0.0000103312 0.117441 C -0.0648616 0.117441 -0.117427 0.0648528 -0.117427 0.00000353415 C -0.117427 -0.0648684 -0.0648616 -0.117434 0.0000103312 -0.117434 C 0.0648596 -0.117434 0.117447 -0.0648684 0.117447 0.00000353415 Z M 0.117447 0.00000353415 " transform="matrix(172.033637,0,0,172.033637,459.77166,252.515017)"/>
<path style="fill-rule:nonzero;fill:rgb(55.294118%,82.745098%,78.039216%);fill-opacity:1;stroke-width:0.0234873;stroke-linecap:butt;stroke-linejoin:miter;stroke:rgb(60%,60%,60%);stroke-opacity:0.8;stroke-miterlimit:10;" d="M 0.117436 -0.00000616262 C 0.117436 0.0648658 0.0648478 0.117431 -0.00000138893 0.117431 C -0.0648506 0.117431 -0.117438 0.0648658 -0.117438 -0.00000616262 C -0.117438 -0.0648554 -0.0648506 -0.117443 -0.00000138893 -0.117443 C 0.0648478 -0.117443 0.117436 -0.0648554 0.117436 -0.00000616262 Z M 0.117436 -0.00000616262 " transform="matrix(172.033637,0,0,172.033637,81.953364,499.856529)"/>
<path style="fill-rule:nonzero;fill:rgb(55.294118%,82.745098%,78.039216%);fill-opacity:1;stroke-width:0.0234873;stroke-linecap:butt;stroke-linejoin:miter;stroke:rgb(60%,60%,60%);stroke-opacity:0.8;stroke-miterlimit:10;" d="M 0.117434 -0.00000164804 C 0.117434 0.0648476 0.0648684 0.117435 -0.00000350095 0.117435 C -0.0648527 0.117435 -0.117441 0.0648476 -0.117441 -0.00000164804 C -0.117441 -0.0648509 -0.0648527 -0.117439 -0.00000350095 -0.117439 C 0.0648684 -0.117439 0.117434 -0.0648509 0.117434 -0.00000164804 Z M 0.117434 -0.00000164804 " transform="matrix(172.033637,0,0,172.033637,113.059196,465.78544)"/>
<path style="fill-rule:nonzero;fill:rgb(55.294118%,82.745098%,78.039216%);fill-opacity:1;stroke-width:0.0234873;stroke-linecap:butt;stroke-linejoin:miter;stroke:rgb(60%,60%,60%);stroke-opacity:0.8;stroke-miterlimit:10;" d="M 0.117431 -0.00000544657 C 0.117431 0.0648665 0.0648655 0.117432 -0.00000641381 0.117432 C -0.0648557 0.117432 -0.117443 0.0648665 -0.117443 -0.00000544657 C -0.117443 -0.0648547 -0.0648557 -0.117443 -0.00000641381 -0.117443 C 0.0648655 -0.117443 0.117431 -0.0648547 0.117431 -0.00000544657 Z M 0.117431 -0.00000544657 " transform="matrix(172.033637,0,0,172.033637,165.520635,410.774374)"/>
<path style="fill-rule:nonzero;fill:rgb(55.294118%,82.745098%,78.039216%);fill-opacity:1;stroke-width:0.0234873;stroke-linecap:butt;stroke-linejoin:miter;stroke:rgb(60%,60%,60%);stroke-opacity:0.8;stroke-miterlimit:10;" d="M 0.117446 -0.00000185148 C 0.117446 0.0648474 0.0648582 0.117435 0.00000893199 0.117435 C -0.064863 0.117435 -0.117428 0.0648474 -0.117428 -0.00000185148 C -0.117428 -0.0648511 -0.064863 -0.117439 0.00000893199 -0.117439 C 0.0648582 -0.117439 0.117446 -0.0648511 0.117446 -0.00000185148 Z M 0.117446 -0.00000185148 " transform="matrix(172.033637,0,0,172.033637,91.014088,369.902662)"/>
<path style="fill-rule:nonzero;fill:rgb(55.294118%,82.745098%,78.039216%);fill-opacity:1;stroke-width:0.0234873;stroke-linecap:butt;stroke-linejoin:miter;stroke:rgb(60%,60%,60%);stroke-opacity:0.8;stroke-miterlimit:10;" d="M 0.117438 -0.00000404558 C 0.117438 0.0648679 0.0648506 0.117433 0.00000138893 0.117433 C -0.0648478 0.117433 -0.117436 0.0648679 -0.117436 -0.00000404558 C -0.117436 -0.0648533 -0.0648478 -0.117441 0.00000138893 -0.117441 C 0.0648506 -0.117441 0.117438 -0.0648533 0.117438 -0.00000404558 Z M 0.117438 -0.00000404558 " transform="matrix(172.033637,0,0,172.033637,518.046636,366.828821)"/>
<path style="fill-rule:nonzero;fill:rgb(55.294118%,82.745098%,78.039216%);fill-opacity:1;stroke-width:0.0234873;stroke-linecap:butt;stroke-linejoin:miter;stroke:rgb(60%,60%,60%);stroke-opacity:0.8;stroke-miterlimit:10;" d="M 0.117432 -0.00000253328 C 0.117432 0.0648694 0.0648671 0.117435 -0.00000488088 0.117435 C -0.0648541 0.117435 -0.117442 0.0648694 -0.117442 -0.00000253328 C -0.117442 -0.0648518 -0.0648541 -0.11744 -0.00000488088 -0.11744 C 0.0648671 -0.11744 0.117432 -0.0648518 0.117432 -0.00000253328 Z M 0.117432 -0.00000253328 " transform="matrix(172.033637,0,0,172.033637,435.43834,372.391061)"/>
<path style="fill-rule:nonzero;fill:rgb(55.294118%,82.745098%,78.039216%);fill-opacity:1;stroke-width:0.0234873;stroke-linecap:butt;stroke-linejoin:miter;stroke:rgb(60%,60%,60%);stroke-opacity:0.8;stroke-miterlimit:10;" d="M 0.117432 -0.00000786428 C 0.117432 0.0648641 0.0648672 0.117429 -0.00000477134 0.117429 C -0.064854 0.117429 -0.117442 0.0648641 -0.117442 -0.00000786428 C -0.117442 -0.0648571 -0.064854 -0.117445 -0.00000477134 -0.117445 C 0.0648672 -0.117445 0.117432 -0.0648571 0.117432 -0.00000786428 Z M 0.117432 -0.00000786428 " transform="matrix(172.033637,0,0,172.033637,477.602383,357.602915)"/>
<path style="fill-rule:nonzero;fill:rgb(55.294118%,82.745098%,78.039216%);fill-opacity:1;stroke-width:0.0234873;stroke-linecap:butt;stroke-linejoin:miter;stroke:rgb(60%,60%,60%);stroke-opacity:0.8;stroke-miterlimit:10;" d="M 0.117446 -0.00000101761 C 0.117446 0.0648482 0.0648577 0.117436 0.00000846288 0.117436 C -0.0648635 0.117436 -0.117429 0.0648482 -0.117429 -0.00000101761 C -0.117429 -0.0648503 -0.0648635 -0.117438 0.00000846288 -0.117438 C 0.0648577 -0.117438 0.117446 -0.0648503 0.117446 -0.00000101761 Z M 0.117446 -0.00000101761 " transform="matrix(172.033637,0,0,172.033637,315.260263,388.730644)"/>
</g>
</svg>
