<?xml version="1.0" encoding="UTF-8"?>
<svg xmlns="http://www.w3.org/2000/svg" xmlns:xlink="http://www.w3.org/1999/xlink" width="600pt" height="600pt" viewBox="0 0 600 600" version="1.1">
<defs>
<clipPath id="clip1">
  <path d="M 357 433 L 539 433 L 539 600 L 357 600 Z M 357 433 "/>
</clipPath>
<clipPath id="clip2">
  <path d="M 238.507812 342.621094 L 657.554688 342.621094 L 657.554688 712.804688 L 238.507812 712.804688 Z M 238.507812 342.621094 L 493.417969 552.089844 C 493.417969 565.757812 482.339844 576.835938 468.675781 576.835938 C 455.007812 576.835938 443.929688 565.757812 443.929688 552.089844 C 443.929688 538.425781 455.007812 527.347656 468.675781 527.347656 C 482.339844 527.347656 493.417969 538.425781 493.417969 552.089844 Z M 238.507812 342.621094 "/>
</clipPath>
<clipPath id="clip3">
  <path d="M 238.507812 342.621094 L 657.554688 342.621094 L 657.554688 712.804688 L 238.507812 712.804688 Z M 238.507812 342.621094 L 452.132812 503.335938 C 452.132812 517.003906 441.054688 528.082031 427.386719 528.082031 C 413.722656 528.082031 402.644531 517.003906 402.644531 503.335938 C 402.644531 489.671875 413.722656 478.59375 427.386719 478.59375 C 441.054688 478.59375 452.132812 489.671875 452.132812 503.335938 Z M 238.507812 342.621094 "/>
</clipPath>
<clipPath id="clip4">
  <path d="M 293 343 L 498 343 L 498 574 L 293 574 Z M 293 343 "/>
</clipPath>
<clipPath id="clip5">
  <path d="M 162.183594 268.929688 L 628.75 268.929688 L 628.75 647.980469 L 162.183594 647.980469 Z M 162.183594 268.929688 L 452.132812 503.335938 C 452.132812 517.003906 441.054688 528.082031 427.386719 528.082031 C 413.722656 528.082031 402.644531 517.003906 402.644531 503.335938 C 402.644531 489.671875 413.722656 478.59375 427.386719 478.59375 C 441.054688 478.59375 452.132812 489.671875 452.132812 503.335938 Z M 162.183594 268.929688 "/>
</clipPath>
<clipPath id="clip6">
  <path d="M 162.183594 268.929688 L 628.75 268.929688 L 628.75 647.980469 L 162.183594 647.980469 Z M 162.183594 268.929688 L 388.289062 413.574219 C 388.289062 427.242188 377.210938 438.320312 363.546875 438.320312 C 349.882812 438.320312 338.804688 427.242188 338.804688 413.574219 C 338.804688 399.910156 349.882812 388.832031 363.546875 388.832031 C 377.210938 388.832031 388.289062 399.910156 388.289062 413.574219 Z M 162.183594 268.929688 "/>
</clipPath>
<clipPath id="clip7">
  <path d="M 197 195 L 434 195 L 434 484 L 197 484 Z M 197 195 "/>
</clipPath>
<clipPath id="clip8">
  <path d="M 60.402344 129.40625 L 570.578125 129.40625 L 570.578125 549.890625 L 60.402344 549.890625 Z M 60.402344 129.40625 L 292.175781 265.722656 C 292.175781 279.386719 281.097656 290.464844 267.433594 290.464844 C 253.769531 290.464844 242.691406 279.386719 242.691406 265.722656 C 242.691406 252.054688 253.769531 240.976562 267.433594 240.976562 C 281.097656 240.976562 292.175781 252.054688 292.175781 265.722656 Z M 60.402344 129.40625 "/>
</clipPath>
<clipPath id="clip9">
  <path d="M 60.402344 129.40625 L 570.578125 129.40625 L 570.578125 549.890625 L 60.402344 549.890625 Z M 60.402344 129.40625 L 388.289062 413.574219 C 388.289062 427.242188 377.210938 438.320312 363.546875 438.320312 C 349.882812 438.320312 338.804688 427.242188 338.804688 413.574219 C 338.804688 399.910156 349.882812 388.832031 363.546875 388.832031 C 377.210938 388.832031 388.289062 399.910156 388.289062 413.574219 Z M 60.402344 129.40625 "/>
</clipPath>
<clipPath id="clip10">
  <path d="M 108 52 L 338 52 L 338 336 L 108 336 Z M 108 52 "/>
</clipPath>
<clipPath id="clip11">
  <path d="M -31.316406 -9.929688 L 476.910156 -9.929688 L 476.910156 398.195312 L -31.316406 398.195312 Z M -31.316406 -9.929688 L 292.175781 265.722656 C 292.175781 279.386719 281.097656 290.464844 267.433594 290.464844 C 253.769531 290.464844 242.691406 279.386719 242.691406 265.722656 C 242.691406 252.054688 253.769531 240.976562 267.433594 240.976562 C 281.097656 240.976562 292.175781 252.054688 292.175781 265.722656 Z M -31.316406 -9.929688 "/>
</clipPath>
<clipPath id="clip12">
  <path d="M -31.316406 -9.929688 L 476.910156 -9.929688 L 476.910156 398.195312 L -31.316406 398.195312 Z M -31.316406 -9.929688 L 202.902344 122.542969 C 202.902344 136.207031 191.824219 147.285156 178.160156 147.285156 C 164.496094 147.285156 153.417969 136.207031 153.417969 122.542969 C 153.417969 108.878906 164.496094 97.800781 178.160156 97.800781 C 191.824219 97.800781 202.902344 108.878906 202.902344 122.542969 Z M -31.316406 -9.929688 "/>
</clipPath>
<clipPath id="clip13">
  <path d="M 69 195 L 338 195 L 338 413 L 69 413 Z M 69 195 "/>
</clipPath>
<clipPath id="clip14">
  <path d="M 10.125 54.203125 L 396.566406 54.203125 L 396.566406 554.296875 L 10.125 554.296875 Z M 10.125 54.203125 L 292.175781 265.722656 C 292.175781 279.386719 281.097656 290.464844 267.433594 290.464844 C 253.769531 290.464844 242.691406 279.386719 242.691406 265.722656 C 242.691406 252.054688 253.769531 240.976562 267.433594 240.976562 C 281.097656 240.976562 292.175781 252.054688 292.175781 265.722656 Z M 10.125 54.203125 "/>
</clipPath>
<clipPath id="clip15">
  <path d="M 10.125 54.203125 L 396.566406 54.203125 L 396.566406 554.296875 L 10.125 554.296875 Z M 10.125 54.203125 L 164 342.777344 C 164 356.445312 152.921875 367.523438 139.257812 367.523438 C 125.59375 367.523438 114.515625 356.445312 114.515625 342.777344 C 114.515625 329.113281 125.59375 318.035156 139.257812 318.035156 C 152.921875 318.035156 164 329.113281 164 342.777344 Z M 10.125 54.203125 "/>
</clipPath>
<clipPath id="clip16">
  <path d="M 131.042969 183 L 300.464844 183 L 300.464844 336 L 131.042969 336 Z M 131.042969 183 "/>
</clipPath>
<clipPath id="clip17">
  <path d="M 131.042969 9.265625 L 300.464844 9.265625 L 300.464844 510.054688 L 131.042969 510.054688 Z M 131.042969 9.265625 L 292.175781 265.722656 C 292.175781 279.386719 281.097656 290.464844 267.433594 290.464844 C 253.769531 290.464844 242.691406 279.386719 242.691406 265.722656 C 242.691406 252.054688 253.769531 240.976562 267.433594 240.976562 C 281.097656 240.976562 292.175781 252.054688 292.175781 265.722656 Z M 131.042969 9.265625 "/>
</clipPath>
<clipPath id="clip18">
  <path d="M 131.042969 9.265625 L 300.464844 9.265625 L 300.464844 510.054688 L 131.042969 510.054688 Z M 131.042969 9.265625 L 188.820312 253.597656 C 188.820312 267.261719 177.742188 278.339844 164.074219 278.339844 C 150.410156 278.339844 139.332031 267.261719 139.332031 253.597656 C 139.332031 239.929688 150.410156 228.851562 164.074219 228.851562 C 177.742188 228.851562 188.820312 239.929688 188.820312 253.597656 Z M 131.042969 9.265625 "/>
</clipPath>
<clipPath id="clip19">
  <path d="M 197 88 L 454 88 L 454 336 L 197 336 Z M 197 88 "/>
</clipPath>
<clipPath id="clip20">
  <path d="M 98.78125 -23.675781 L 552.304688 -23.675781 L 552.304688 447.574219 L 98.78125 447.574219 Z M 98.78125 -23.675781 L 292.175781 265.722656 C 292.175781 279.386719 281.097656 290.464844 267.433594 290.464844 C 253.769531 290.464844 242.691406 279.386719 242.691406 265.722656 C 242.691406 252.054688 253.769531 240.976562 267.433594 240.976562 C 281.097656 240.976562 292.175781 252.054688 292.175781 265.722656 Z M 98.78125 -23.675781 "/>
</clipPath>
<clipPath id="clip21">
  <path d="M 98.78125 -23.675781 L 552.304688 -23.675781 L 552.304688 447.574219 L 98.78125 447.574219 Z M 98.78125 -23.675781 L 408.394531 158.175781 C 408.394531 171.839844 397.316406 182.917969 383.652344 182.917969 C 369.984375 182.917969 358.90625 171.839844 358.90625 158.175781 C 358.90625 144.511719 369.984375 133.433594 383.652344 133.433594 C 397.316406 133.433594 408.394531 144.511719 408.394531 158.175781 Z M 98.78125 -23.675781 "/>
</clipPath>
<clipPath id="clip22">
  <path d="M 197 133 L 485 133 L 485 336 L 197 336 Z M 197 133 "/>
</clipPath>
<clipPath id="clip23">
  <path d="M 168.824219 -23.140625 L 512.65625 -23.140625 L 512.65625 492.753906 L 168.824219 492.753906 Z M 168.824219 -23.140625 L 292.175781 265.722656 C 292.175781 279.386719 281.097656 290.464844 267.433594 290.464844 C 253.769531 290.464844 242.691406 279.386719 242.691406 265.722656 C 242.691406 252.054688 253.769531 240.976562 267.433594 240.976562 C 281.097656 240.976562 292.175781 252.054688 292.175781 265.722656 Z M 168.824219 -23.140625 "/>
</clipPath>
<clipPath id="clip24">
  <path d="M 168.824219 -23.140625 L 512.65625 -23.140625 L 512.65625 492.753906 L 168.824219 492.753906 Z M 168.824219 -23.140625 L 438.789062 203.890625 C 438.789062 217.558594 427.710938 228.636719 414.046875 228.636719 C 400.378906 228.636719 389.300781 217.558594 389.300781 203.890625 C 389.300781 190.226562 400.378906 179.148438 414.046875 179.148438 C 427.710938 179.148438 438.789062 190.226562 438.789062 203.890625 Z M 168.824219 -23.140625 "/>
</clipPath>
<clipPath id="clip25">
  <path d="M 154 195 L 338 195 L 338 439 L 154 439 Z M 154 195 "/>
</clipPath>
<clipPath id="clip26">
  <path d="M -2.902344 166.78125 L 494.324219 166.78125 L 494.324219 467.25 L -2.902344 467.25 Z M -2.902344 166.78125 L 292.175781 265.722656 C 292.175781 279.386719 281.097656 290.464844 267.433594 290.464844 C 253.769531 290.464844 242.691406 279.386719 242.691406 265.722656 C 242.691406 252.054688 253.769531 240.976562 267.433594 240.976562 C 281.097656 240.976562 292.175781 252.054688 292.175781 265.722656 Z M -2.902344 166.78125 "/>
</clipPath>
<clipPath id="clip27">
  <path d="M -2.902344 166.78125 L 494.324219 166.78125 L 494.324219 467.25 L -2.902344 467.25 Z M -2.902344 166.78125 L 248.730469 368.308594 C 248.730469 381.972656 237.652344 393.050781 223.988281 393.050781 C 210.320312 393.050781 199.242188 381.972656 199.242188 368.308594 C 199.242188 354.640625 210.320312 343.5625 223.988281 343.5625 C 237.652344 343.5625 248.730469 354.640625 248.730469 368.308594 Z M -2.902344 166.78125 "/>
</clipPath>
<clipPath id="clip28">
  <path d="M 61 0 L 249 0 L 249 193 L 61 193 Z M 61 0 "/>
</clipPath>
<clipPath id="clip29">
  <path d="M -77.78125 -85.15625 L 387.265625 -85.15625 L 387.265625 255.609375 L -77.78125 255.609375 Z M -77.78125 -85.15625 L 156.070312 47.910156 C 156.070312 61.574219 144.992188 72.652344 131.324219 72.652344 C 117.660156 72.652344 106.582031 61.574219 106.582031 47.910156 C 106.582031 34.242188 117.660156 23.164062 131.324219 23.164062 C 144.992188 23.164062 156.070312 34.242188 156.070312 47.910156 Z M -77.78125 -85.15625 "/>
</clipPath>
<clipPath id="clip30">
  <path d="M -77.78125 -85.15625 L 387.265625 -85.15625 L 387.265625 255.609375 L -77.78125 255.609375 Z M -77.78125 -85.15625 L 202.902344 122.542969 C 202.902344 136.207031 191.824219 147.285156 178.160156 147.285156 C 164.496094 147.285156 153.417969 136.207031 153.417969 122.542969 C 153.417969 108.878906 164.496094 97.800781 178.160156 97.800781 C 191.824219 97.800781 202.902344 108.878906 202.902344 122.542969 Z M -77.78125 -85.15625 "/>
</clipPath>
<clipPath id="clip31">
  <path d="M 329.335938 71 L 516.296875 71 L 516.296875 229 L 329.335938 229 Z M 329.335938 71 "/>
</clipPath>
<clipPath id="clip32">
  <path d="M 329.335938 -99.078125 L 516.296875 -99.078125 L 516.296875 399.039062 L 329.335938 399.039062 Z M 329.335938 -99.078125 L 408.394531 158.175781 C 408.394531 171.839844 397.316406 182.917969 383.652344 182.917969 C 369.984375 182.917969 358.90625 171.839844 358.90625 158.175781 C 358.90625 144.511719 369.984375 133.433594 383.652344 133.433594 C 397.316406 133.433594 408.394531 144.511719 408.394531 158.175781 Z M 329.335938 -99.078125 "/>
</clipPath>
<clipPath id="clip33">
  <path d="M 329.335938 -99.078125 L 516.296875 -99.078125 L 516.296875 399.039062 L 329.335938 399.039062 Z M 329.335938 -99.078125 L 486.722656 141.785156 C 486.722656 155.453125 475.644531 166.53125 461.980469 166.53125 C 448.316406 166.53125 437.238281 155.453125 437.238281 141.785156 C 437.238281 128.121094 448.316406 117.042969 461.980469 117.042969 C 475.644531 117.042969 486.722656 128.121094 486.722656 141.785156 Z M 329.335938 -99.078125 "/>
</clipPath>
<clipPath id="clip34">
  <path d="M 344 71 L 532 71 L 532 274 L 344 274 Z M 344 71 "/>
</clipPath>
<clipPath id="clip35">
  <path d="M 218.292969 -10.429688 L 657.734375 -10.429688 L 657.734375 356.105469 L 218.292969 356.105469 Z M 218.292969 -10.429688 L 486.722656 141.785156 C 486.722656 155.453125 475.644531 166.53125 461.980469 166.53125 C 448.316406 166.53125 437.238281 155.453125 437.238281 141.785156 C 437.238281 128.121094 448.316406 117.042969 461.980469 117.042969 C 475.644531 117.042969 486.722656 128.121094 486.722656 141.785156 Z M 218.292969 -10.429688 "/>
</clipPath>
<clipPath id="clip36">
  <path d="M 218.292969 -10.429688 L 657.734375 -10.429688 L 657.734375 356.105469 L 218.292969 356.105469 Z M 218.292969 -10.429688 L 438.789062 203.890625 C 438.789062 217.558594 427.710938 228.636719 414.046875 228.636719 C 400.378906 228.636719 389.300781 217.558594 389.300781 203.890625 C 389.300781 190.226562 400.378906 179.148438 414.046875 179.148438 C 427.710938 179.148438 438.789062 190.226562 438.789062 203.890625 Z M 218.292969 -10.429688 "/>
</clipPath>
</defs>
<g id="surface476">
<g clip-path="url(#clip1)" clip-rule="nonzero">
<g clip-path="url(#clip2)" clip-rule="evenodd">
<g clip-path="url(#clip3)" clip-rule="evenodd">
<path style="fill:none;stroke-width:0.0205319;stroke-linecap:butt;stroke-linejoin:miter;stroke:rgb(17.96875%,20.3125%,21.09375%);stroke-opacity:0.8;stroke-miterlimit:10;" d="M 2.677313 2.675778 L 2.506007 2.473501 " transform="matrix(241.025442,0,0,241.025442,-176.62471,-92.84074)"/>
</g>
</g>
</g>
<g clip-path="url(#clip4)" clip-rule="nonzero">
<g clip-path="url(#clip5)" clip-rule="evenodd">
<g clip-path="url(#clip6)" clip-rule="evenodd">
<path style="fill:none;stroke-width:0.0205319;stroke-linecap:butt;stroke-linejoin:miter;stroke:rgb(17.96875%,20.3125%,21.09375%);stroke-opacity:0.8;stroke-miterlimit:10;" d="M 2.506007 2.473501 L 2.241139 2.101085 " transform="matrix(241.025442,0,0,241.025442,-176.62471,-92.84074)"/>
</g>
</g>
</g>
<g clip-path="url(#clip7)" clip-rule="nonzero">
<g clip-path="url(#clip8)" clip-rule="evenodd">
<g clip-path="url(#clip9)" clip-rule="evenodd">
<path style="fill:none;stroke-width:0.0205319;stroke-linecap:butt;stroke-linejoin:miter;stroke:rgb(17.96875%,20.3125%,21.09375%);stroke-opacity:0.8;stroke-miterlimit:10;" d="M 1.842371 1.487658 L 2.241139 2.101085 " transform="matrix(241.025442,0,0,241.025442,-176.62471,-92.84074)"/>
</g>
</g>
</g>
<g clip-path="url(#clip10)" clip-rule="nonzero">
<g clip-path="url(#clip11)" clip-rule="evenodd">
<g clip-path="url(#clip12)" clip-rule="evenodd">
<path style="fill:none;stroke-width:0.0205319;stroke-linecap:butt;stroke-linejoin:miter;stroke:rgb(17.96875%,20.3125%,21.09375%);stroke-opacity:0.8;stroke-miterlimit:10;" d="M 1.842371 1.487658 L 1.471981 0.893614 " transform="matrix(241.025442,0,0,241.025442,-176.62471,-92.84074)"/>
</g>
</g>
</g>
<g clip-path="url(#clip13)" clip-rule="nonzero">
<g clip-path="url(#clip14)" clip-rule="evenodd">
<g clip-path="url(#clip15)" clip-rule="evenodd">
<path style="fill:none;stroke-width:0.0205319;stroke-linecap:butt;stroke-linejoin:miter;stroke:rgb(17.96875%,20.3125%,21.09375%);stroke-opacity:0.8;stroke-miterlimit:10;" d="M 1.842371 1.487658 L 1.310578 1.807353 " transform="matrix(241.025442,0,0,241.025442,-176.62471,-92.84074)"/>
</g>
</g>
</g>
<g clip-path="url(#clip16)" clip-rule="nonzero">
<g clip-path="url(#clip17)" clip-rule="evenodd">
<g clip-path="url(#clip18)" clip-rule="evenodd">
<path style="fill:none;stroke-width:0.0205319;stroke-linecap:butt;stroke-linejoin:miter;stroke:rgb(17.96875%,20.3125%,21.09375%);stroke-opacity:0.8;stroke-miterlimit:10;" d="M 1.842371 1.487658 L 1.413539 1.437352 " transform="matrix(241.025442,0,0,241.025442,-176.62471,-92.84074)"/>
</g>
</g>
</g>
<g clip-path="url(#clip19)" clip-rule="nonzero">
<g clip-path="url(#clip20)" clip-rule="evenodd">
<g clip-path="url(#clip21)" clip-rule="evenodd">
<path style="fill:none;stroke-width:0.0205319;stroke-linecap:butt;stroke-linejoin:miter;stroke:rgb(17.96875%,20.3125%,21.09375%);stroke-opacity:0.8;stroke-miterlimit:10;" d="M 1.842371 1.487658 L 2.324556 1.041452 " transform="matrix(241.025442,0,0,241.025442,-176.62471,-92.84074)"/>
</g>
</g>
</g>
<g clip-path="url(#clip22)" clip-rule="nonzero">
<g clip-path="url(#clip23)" clip-rule="evenodd">
<g clip-path="url(#clip24)" clip-rule="evenodd">
<path style="fill:none;stroke-width:0.0205319;stroke-linecap:butt;stroke-linejoin:miter;stroke:rgb(17.96875%,20.3125%,21.09375%);stroke-opacity:0.8;stroke-miterlimit:10;" d="M 1.842371 1.487658 L 2.450661 1.231121 " transform="matrix(241.025442,0,0,241.025442,-176.62471,-92.84074)"/>
</g>
</g>
</g>
<g clip-path="url(#clip25)" clip-rule="nonzero">
<g clip-path="url(#clip26)" clip-rule="evenodd">
<g clip-path="url(#clip27)" clip-rule="evenodd">
<path style="fill:none;stroke-width:0.0205319;stroke-linecap:butt;stroke-linejoin:miter;stroke:rgb(17.96875%,20.3125%,21.09375%);stroke-opacity:0.8;stroke-miterlimit:10;" d="M 1.842371 1.487658 L 1.662119 1.913281 " transform="matrix(241.025442,0,0,241.025442,-176.62471,-92.84074)"/>
</g>
</g>
</g>
<g clip-path="url(#clip28)" clip-rule="nonzero">
<g clip-path="url(#clip29)" clip-rule="evenodd">
<g clip-path="url(#clip30)" clip-rule="evenodd">
<path style="fill:none;stroke-width:0.0205319;stroke-linecap:butt;stroke-linejoin:miter;stroke:rgb(17.96875%,20.3125%,21.09375%);stroke-opacity:0.8;stroke-miterlimit:10;" d="M 1.277662 0.583967 L 1.471981 0.893614 " transform="matrix(241.025442,0,0,241.025442,-176.62471,-92.84074)"/>
</g>
</g>
</g>
<g clip-path="url(#clip31)" clip-rule="nonzero">
<g clip-path="url(#clip32)" clip-rule="evenodd">
<g clip-path="url(#clip33)" clip-rule="evenodd">
<path style="fill:none;stroke-width:0.0205319;stroke-linecap:butt;stroke-linejoin:miter;stroke:rgb(17.96875%,20.3125%,21.09375%);stroke-opacity:0.8;stroke-miterlimit:10;" d="M 2.324556 1.041452 L 2.649534 0.973449 " transform="matrix(241.025442,0,0,241.025442,-176.62471,-92.84074)"/>
</g>
</g>
</g>
<g clip-path="url(#clip34)" clip-rule="nonzero">
<g clip-path="url(#clip35)" clip-rule="evenodd">
<g clip-path="url(#clip36)" clip-rule="evenodd">
<path style="fill:none;stroke-width:0.0205319;stroke-linecap:butt;stroke-linejoin:miter;stroke:rgb(17.96875%,20.3125%,21.09375%);stroke-opacity:0.8;stroke-miterlimit:10;" d="M 2.649534 0.973449 L 2.450661 1.231121 " transform="matrix(241.025442,0,0,241.025442,-176.62471,-92.84074)"/>
</g>
</g>
</g>
<path style="fill-rule:nonzero;fill:rgb(100%,92.941176%,43.529412%);fill-opacity:1;stroke-width:0.0205319;stroke-linecap:butt;stroke-linejoin:miter;stroke:rgb(60%,60%,60%);stroke-opacity:0.8;stroke-miterlimit:10;" d="M 0.10266 -0.000004941 C 0.10266 0.0567026 0.0566977 0.102665 0.00000629809 0.102665 C -0.0567013 0.102665 -0.102664 0.0567026 -0.102664 -0.000004941 C -0.102664 -0.0566963 -0.0567013 -0.102659 0.00000629809 -0.102659 C 0.0566977 -0.102659 0.10266 -0.0566963 0.10266 -0.000004941 Z M 0.10266 -0.000004941 " transform="matrix(241.025442,0,0,241.025442,468.674263,552.091035)"/>
<path style="fill-rule:nonzero;fill:rgb(100%,92.941176%,43.529412%);fill-opacity:1;stroke-width:0.0205319;stroke-linecap:butt;stroke-linejoin:miter;stroke:rgb(60%,60%,60%);stroke-opacity:0.8;stroke-miterlimit:10;" d="M 0.102666 -0.00000727428 C 0.102666 0.0567003 0.0567031 0.102663 -0.00000449475 0.102663 C -0.0566959 0.102663 -0.102658 0.0567003 -0.102658 -0.00000727428 C -0.102658 -0.0566986 -0.0566959 -0.102661 -0.00000449475 -0.102661 C 0.0567031 -0.102661 0.102666 -0.0566986 0.102666 -0.00000727428 Z M 0.102666 -0.00000727428 " transform="matrix(241.025442,0,0,241.025442,427.387802,503.337691)"/>
<path style="fill-rule:nonzero;fill:rgb(100%,92.941176%,43.529412%);fill-opacity:1;stroke-width:0.0205319;stroke-linecap:butt;stroke-linejoin:miter;stroke:rgb(60%,60%,60%);stroke-opacity:0.8;stroke-miterlimit:10;" d="M 0.102652 0.00000580538 C 0.102652 0.0566972 0.0566898 0.10266 -0.00000157006 0.10266 C -0.0566929 0.10266 -0.102655 0.0566972 -0.102655 0.00000580538 C -0.102655 -0.0567018 -0.0566929 -0.102664 -0.00000157006 -0.102664 C 0.0566898 -0.102664 0.102652 -0.0567018 0.102652 0.00000580538 Z M 0.102652 0.00000580538 " transform="matrix(241.025442,0,0,241.025442,267.433972,265.721257)"/>
<path style="fill-rule:nonzero;fill:rgb(100%,92.941176%,43.529412%);fill-opacity:1;stroke-width:0.0205319;stroke-linecap:butt;stroke-linejoin:miter;stroke:rgb(60%,60%,60%);stroke-opacity:0.8;stroke-miterlimit:10;" d="M 0.102653 -0.00000265101 C 0.102653 0.0567049 0.0566902 0.102667 -0.00000121088 0.102667 C -0.0566926 0.102667 -0.102655 0.0567049 -0.102655 -0.00000265101 C -0.102655 -0.056694 -0.0566926 -0.102656 -0.00000121088 -0.102656 C 0.0566902 -0.102656 0.102653 -0.056694 0.102653 -0.00000265101 Z M 0.102653 -0.00000265101 " transform="matrix(241.025442,0,0,241.025442,363.547167,413.574858)"/>
<path style="fill-rule:nonzero;fill:rgb(100%,92.941176%,43.529412%);fill-opacity:1;stroke-width:0.0205319;stroke-linecap:butt;stroke-linejoin:miter;stroke:rgb(60%,60%,60%);stroke-opacity:0.8;stroke-miterlimit:10;" d="M 0.102664 0.000004941 C 0.102664 0.0566963 0.0567013 0.102659 -0.00000629809 0.102659 C -0.0566977 0.102659 -0.10266 0.0566963 -0.10266 0.000004941 C -0.10266 -0.0567026 -0.0566977 -0.102665 -0.00000629809 -0.102665 C 0.0567013 -0.102665 0.102664 -0.0567026 0.102664 0.000004941 Z M 0.102664 0.000004941 " transform="matrix(241.025442,0,0,241.025442,131.325737,47.908965)"/>
<path style="fill-rule:nonzero;fill:rgb(100%,92.941176%,43.529412%);fill-opacity:1;stroke-width:0.0205319;stroke-linecap:butt;stroke-linejoin:miter;stroke:rgb(60%,60%,60%);stroke-opacity:0.8;stroke-miterlimit:10;" d="M 0.102654 0.0000000996291 C 0.102654 0.0566915 0.0566919 0.102654 0.000000566066 0.102654 C -0.0566908 0.102654 -0.102653 0.0566915 -0.102653 0.0000000996291 C -0.102653 -0.0566913 -0.0566908 -0.102654 0.000000566066 -0.102654 C 0.0566919 -0.102654 0.102654 -0.0566913 0.102654 0.0000000996291 Z M 0.102654 0.0000000996291 " transform="matrix(241.025442,0,0,241.025442,178.16002,122.542945)"/>
<path style="fill-rule:nonzero;fill:rgb(100%,92.941176%,43.529412%);fill-opacity:1;stroke-width:0.0205319;stroke-linecap:butt;stroke-linejoin:miter;stroke:rgb(60%,60%,60%);stroke-opacity:0.8;stroke-miterlimit:10;" d="M 0.102653 -0.00000248048 C 0.102653 0.0567051 0.0566907 0.102668 -0.000000638989 0.102668 C -0.056692 0.102668 -0.102654 0.0567051 -0.102654 -0.00000248048 C -0.102654 -0.0566939 -0.056692 -0.102656 -0.000000638989 -0.102656 C 0.0566907 -0.102656 0.102653 -0.0566939 0.102653 -0.00000248048 Z M 0.102653 -0.00000248048 " transform="matrix(241.025442,0,0,241.025442,139.257967,342.777942)"/>
<path style="fill-rule:nonzero;fill:rgb(100%,92.941176%,43.529412%);fill-opacity:1;stroke-width:0.0205319;stroke-linecap:butt;stroke-linejoin:miter;stroke:rgb(60%,60%,60%);stroke-opacity:0.8;stroke-miterlimit:10;" d="M 0.102662 0.00000745553 C 0.102662 0.0566988 0.0566998 0.102661 -0.0000077908 0.102661 C -0.0566992 0.102661 -0.102662 0.0566988 -0.102662 0.00000745553 C -0.102662 -0.0567001 -0.0566992 -0.102663 -0.0000077908 -0.102663 C 0.0566998 -0.102663 0.102662 -0.0567001 0.102662 0.00000745553 Z M 0.102662 0.00000745553 " transform="matrix(241.025442,0,0,241.025442,164.076097,253.595859)"/>
<path style="fill-rule:nonzero;fill:rgb(100%,92.941176%,43.529412%);fill-opacity:1;stroke-width:0.0205319;stroke-linecap:butt;stroke-linejoin:miter;stroke:rgb(60%,60%,60%);stroke-opacity:0.8;stroke-miterlimit:10;" d="M 0.102658 -0.00000092684 C 0.102658 0.0566904 0.0566951 0.102653 0.00000375894 0.102653 C -0.0567038 0.102653 -0.102666 0.0566904 -0.102666 -0.00000092684 C -0.102666 -0.0566923 -0.0567038 -0.102655 0.00000375894 -0.102655 C 0.0566951 -0.102655 0.102658 -0.0566923 0.102658 -0.00000092684 Z M 0.102658 -0.00000092684 " transform="matrix(241.025442,0,0,241.025442,383.651438,158.176005)"/>
<path style="fill-rule:nonzero;fill:rgb(55.294118%,82.745098%,78.039216%);fill-opacity:1;stroke-width:0.0205319;stroke-linecap:butt;stroke-linejoin:miter;stroke:rgb(60%,60%,60%);stroke-opacity:0.8;stroke-miterlimit:10;" d="M 0.102654 -0.00000692654 C 0.102654 0.0567007 0.0566916 0.102663 0.000000210275 0.102663 C -0.0566912 0.102663 -0.102654 0.0567007 -0.102654 -0.00000692654 C -0.102654 -0.0566983 -0.0566912 -0.102661 0.000000210275 -0.102661 C 0.0566916 -0.102661 0.102654 -0.0566983 0.102654 -0.00000692654 Z M 0.102654 -0.00000692654 " transform="matrix(241.025442,0,0,241.025442,461.980418,141.786826)"/>
<path style="fill-rule:nonzero;fill:rgb(55.294118%,82.745098%,78.039216%);fill-opacity:1;stroke-width:0.0205319;stroke-linecap:butt;stroke-linejoin:miter;stroke:rgb(60%,60%,60%);stroke-opacity:0.8;stroke-miterlimit:10;" d="M 0.102656 -0.00000769974 C 0.102656 0.0566999 0.0566938 0.102662 0.0000024151 0.102662 C -0.0567052 0.102662 -0.102668 0.0566999 -0.102668 -0.00000769974 C -0.102668 -0.0566991 -0.0567052 -0.102662 0.0000024151 -0.102662 C 0.0566938 -0.102662 0.102656 -0.0566991 0.102656 -0.00000769974 Z M 0.102656 -0.00000769974 " transform="matrix(241.025442,0,0,241.025442,414.046293,203.892481)"/>
<path style="fill-rule:nonzero;fill:rgb(100%,92.941176%,43.529412%);fill-opacity:1;stroke-width:0.0205319;stroke-linecap:butt;stroke-linejoin:miter;stroke:rgb(60%,60%,60%);stroke-opacity:0.8;stroke-miterlimit:10;" d="M 0.10266 0.00000619211 C 0.10266 0.0566976 0.0566978 0.10266 0.0000064209 0.10266 C -0.0567012 0.10266 -0.102664 0.0566976 -0.102664 0.00000619211 C -0.102664 -0.0567014 -0.0567012 -0.102664 0.0000064209 -0.102664 C 0.0566978 -0.102664 0.10266 -0.0567014 0.10266 0.00000619211 Z M 0.10266 0.00000619211 " transform="matrix(241.025442,0,0,241.025442,223.986734,368.307101)"/>
</g>
</svg>
