<?xml version="1.0" encoding="UTF-8"?>
<svg xmlns="http://www.w3.org/2000/svg" xmlns:xlink="http://www.w3.org/1999/xlink" width="600pt" height="600pt" viewBox="0 0 600 600" version="1.1">
<defs>
<clipPath id="clip1">
  <path d="M 0 435 L 184 435 L 184 600 L 0 600 Z M 0 435 "/>
</clipPath>
<clipPath id="clip2">
  <path d="M -98.199219 257.984375 L 260.035156 257.984375 L 260.035156 790.835938 L -98.199219 790.835938 Z M -98.199219 257.984375 L 72.652344 543.644531 C 72.652344 557.308594 61.574219 568.386719 47.910156 568.386719 C 34.242188 568.386719 23.164062 557.308594 23.164062 543.644531 C 23.164062 529.980469 34.242188 518.902344 47.910156 518.902344 C 61.574219 518.902344 72.652344 529.980469 72.652344 543.644531 Z M -98.199219 257.984375 "/>
</clipPath>
<clipPath id="clip3">
  <path d="M -98.199219 257.984375 L 260.035156 257.984375 L 260.035156 790.835938 L -98.199219 790.835938 Z M -98.199219 257.984375 L 138.671875 505.175781 C 138.671875 518.839844 127.59375 529.917969 113.925781 529.917969 C 100.261719 529.917969 89.183594 518.839844 89.183594 505.175781 C 89.183594 491.511719 100.261719 480.433594 113.925781 480.433594 C 127.59375 480.433594 138.671875 491.511719 138.671875 505.175781 Z M -98.199219 257.984375 "/>
</clipPath>
<clipPath id="clip4">
  <path d="M 43 365 L 299 365 L 299 576 L 43 576 Z M 43 365 "/>
</clipPath>
<clipPath id="clip5">
  <path d="M -36.957031 191.039062 L 379.292969 191.039062 L 379.292969 749.523438 L -36.957031 749.523438 Z M -36.957031 191.039062 L 138.671875 505.175781 C 138.671875 518.839844 127.59375 529.917969 113.925781 529.917969 C 100.261719 529.917969 89.183594 518.839844 89.183594 505.175781 C 89.183594 491.511719 100.261719 480.433594 113.925781 480.433594 C 127.59375 480.433594 138.671875 491.511719 138.671875 505.175781 Z M -36.957031 191.039062 "/>
</clipPath>
<clipPath id="clip6">
  <path d="M -36.957031 191.039062 L 379.292969 191.039062 L 379.292969 749.523438 L -36.957031 749.523438 Z M -36.957031 191.039062 L 253.152344 435.386719 C 253.152344 449.050781 242.074219 460.128906 228.410156 460.128906 C 214.746094 460.128906 203.667969 449.050781 203.667969 435.386719 C 203.667969 421.71875 214.746094 410.640625 228.410156 410.640625 C 242.074219 410.640625 253.152344 421.71875 253.152344 435.386719 Z M -36.957031 191.039062 "/>
</clipPath>
<clipPath id="clip7">
  <path d="M 158 248 L 484 248 L 484 506 L 158 506 Z M 158 248 "/>
</clipPath>
<clipPath id="clip8">
  <path d="M 73.648438 76.324219 L 568.449219 76.324219 L 568.449219 677.328125 L 73.648438 677.328125 Z M 73.648438 76.324219 L 438.433594 318.265625 C 438.433594 331.933594 427.355469 343.011719 413.6875 343.011719 C 400.023438 343.011719 388.945312 331.933594 388.945312 318.265625 C 388.945312 304.601562 400.023438 293.523438 413.6875 293.523438 C 427.355469 293.523438 438.433594 304.601562 438.433594 318.265625 Z M 73.648438 76.324219 "/>
</clipPath>
<clipPath id="clip9">
  <path d="M 73.648438 76.324219 L 568.449219 76.324219 L 568.449219 677.328125 L 73.648438 677.328125 Z M 73.648438 76.324219 L 253.152344 435.386719 C 253.152344 449.050781 242.074219 460.128906 228.410156 460.128906 C 214.746094 460.128906 203.667969 449.050781 203.667969 435.386719 C 203.667969 421.71875 214.746094 410.640625 228.410156 410.640625 C 242.074219 410.640625 253.152344 421.71875 253.152344 435.386719 Z M 73.648438 76.324219 "/>
</clipPath>
<clipPath id="clip10">
  <path d="M 216 70 L 484 70 L 484 389 L 216 389 Z M 216 70 "/>
</clipPath>
<clipPath id="clip11">
  <path d="M 53.664062 -27.507812 L 646.449219 -27.507812 L 646.449219 486.644531 L 53.664062 486.644531 Z M 53.664062 -27.507812 L 438.433594 318.265625 C 438.433594 331.933594 427.355469 343.011719 413.6875 343.011719 C 400.023438 343.011719 388.945312 331.933594 388.945312 318.265625 C 388.945312 304.601562 400.023438 293.523438 413.6875 293.523438 C 427.355469 293.523438 438.433594 304.601562 438.433594 318.265625 Z M 53.664062 -27.507812 "/>
</clipPath>
<clipPath id="clip12">
  <path d="M 53.664062 -27.507812 L 646.449219 -27.507812 L 646.449219 486.644531 L 53.664062 486.644531 Z M 53.664062 -27.507812 L 311.171875 140.871094 C 311.171875 154.535156 300.09375 165.613281 286.425781 165.613281 C 272.761719 165.613281 261.683594 154.535156 261.683594 140.871094 C 261.683594 127.203125 272.761719 116.125 286.425781 116.125 C 300.09375 116.125 311.171875 127.203125 311.171875 140.871094 Z M 53.664062 -27.507812 "/>
</clipPath>
<clipPath id="clip13">
  <path d="M 343 116 L 544 116 L 544 389 L 343 389 Z M 343 116 "/>
</clipPath>
<clipPath id="clip14">
  <path d="M 153.789062 64.941406 L 733.855469 64.941406 L 733.855469 439.867188 L 153.789062 439.867188 Z M 153.789062 64.941406 L 438.433594 318.265625 C 438.433594 331.933594 427.355469 343.011719 413.6875 343.011719 C 400.023438 343.011719 388.945312 331.933594 388.945312 318.265625 C 388.945312 304.601562 400.023438 293.523438 413.6875 293.523438 C 427.355469 293.523438 438.433594 304.601562 438.433594 318.265625 Z M 153.789062 64.941406 "/>
</clipPath>
<clipPath id="clip15">
  <path d="M 153.789062 64.941406 L 733.855469 64.941406 L 733.855469 439.867188 L 153.789062 439.867188 Z M 153.789062 64.941406 L 498.703125 186.542969 C 498.703125 200.210938 487.625 211.289062 473.957031 211.289062 C 460.292969 211.289062 449.214844 200.210938 449.214844 186.542969 C 449.214844 172.878906 460.292969 161.800781 473.957031 161.800781 C 487.625 161.800781 498.703125 172.878906 498.703125 186.542969 Z M 153.789062 64.941406 "/>
</clipPath>
<clipPath id="clip16">
  <path d="M 343 188 L 600 188 L 600 389 L 343 389 Z M 343 188 "/>
</clipPath>
<clipPath id="clip17">
  <path d="M 295.710938 -2.753906 L 666.714844 -2.753906 L 666.714844 579.792969 L 295.710938 579.792969 Z M 295.710938 -2.753906 L 438.433594 318.265625 C 438.433594 331.933594 427.355469 343.011719 413.6875 343.011719 C 400.023438 343.011719 388.945312 331.933594 388.945312 318.265625 C 388.945312 304.601562 400.023438 293.523438 413.6875 293.523438 C 427.355469 293.523438 438.433594 304.601562 438.433594 318.265625 Z M 295.710938 -2.753906 "/>
</clipPath>
<clipPath id="clip18">
  <path d="M 295.710938 -2.753906 L 666.714844 -2.753906 L 666.714844 579.792969 L 295.710938 579.792969 Z M 295.710938 -2.753906 L 573.480469 258.773438 C 573.480469 272.441406 562.402344 283.519531 548.738281 283.519531 C 535.074219 283.519531 523.996094 272.441406 523.996094 258.773438 C 523.996094 245.109375 535.074219 234.03125 548.738281 234.03125 C 562.402344 234.03125 573.480469 245.109375 573.480469 258.773438 Z M 295.710938 -2.753906 "/>
</clipPath>
<clipPath id="clip19">
  <path d="M 343 248 L 600 248 L 600 512 L 343 512 Z M 343 248 "/>
</clipPath>
<clipPath id="clip20">
  <path d="M 211.132812 114.417969 L 740.136719 114.417969 L 740.136719 645.203125 L 211.132812 645.203125 Z M 211.132812 114.417969 L 438.433594 318.265625 C 438.433594 331.933594 427.355469 343.011719 413.6875 343.011719 C 400.023438 343.011719 388.945312 331.933594 388.945312 318.265625 C 388.945312 304.601562 400.023438 293.523438 413.6875 293.523438 C 427.355469 293.523438 438.433594 304.601562 438.433594 318.265625 Z M 211.132812 114.417969 "/>
</clipPath>
<clipPath id="clip21">
  <path d="M 211.132812 114.417969 L 740.136719 114.417969 L 740.136719 645.203125 L 211.132812 645.203125 Z M 211.132812 114.417969 L 562.324219 441.355469 C 562.324219 455.023438 551.246094 466.101562 537.582031 466.101562 C 523.917969 466.101562 512.839844 455.023438 512.839844 441.355469 C 512.839844 427.691406 523.917969 416.613281 537.582031 416.613281 C 551.246094 416.613281 562.324219 427.691406 562.324219 441.355469 Z M 211.132812 114.417969 "/>
</clipPath>
<clipPath id="clip22">
  <path d="M 343 248 L 551 248 L 551 551 L 343 551 Z M 343 248 "/>
</clipPath>
<clipPath id="clip23">
  <path d="M 149.316406 206.972656 L 744.664062 206.972656 L 744.664062 592.039062 L 149.316406 592.039062 Z M 149.316406 206.972656 L 438.433594 318.265625 C 438.433594 331.933594 427.355469 343.011719 413.6875 343.011719 C 400.023438 343.011719 388.945312 331.933594 388.945312 318.265625 C 388.945312 304.601562 400.023438 293.523438 413.6875 293.523438 C 427.355469 293.523438 438.433594 304.601562 438.433594 318.265625 Z M 149.316406 206.972656 "/>
</clipPath>
<clipPath id="clip24">
  <path d="M 149.316406 206.972656 L 744.664062 206.972656 L 744.664062 592.039062 L 149.316406 592.039062 Z M 149.316406 206.972656 L 505.039062 480.746094 C 505.039062 494.414062 493.960938 505.492188 480.292969 505.492188 C 466.628906 505.492188 455.550781 494.414062 455.550781 480.746094 C 455.550781 467.082031 466.628906 456.003906 480.292969 456.003906 C 493.960938 456.003906 505.039062 467.082031 505.039062 480.746094 Z M 149.316406 206.972656 "/>
</clipPath>
<clipPath id="clip25">
  <path d="M 260 214 L 484 214 L 484 389 L 260 389 Z M 260 214 "/>
</clipPath>
<clipPath id="clip26">
  <path d="M 220.550781 19.867188 L 523.902344 19.867188 L 523.902344 583.074219 L 220.550781 583.074219 Z M 220.550781 19.867188 L 438.433594 318.265625 C 438.433594 331.933594 427.355469 343.011719 413.6875 343.011719 C 400.023438 343.011719 388.945312 331.933594 388.945312 318.265625 C 388.945312 304.601562 400.023438 293.523438 413.6875 293.523438 C 427.355469 293.523438 438.433594 304.601562 438.433594 318.265625 Z M 220.550781 19.867188 "/>
</clipPath>
<clipPath id="clip27">
  <path d="M 220.550781 19.867188 L 523.902344 19.867188 L 523.902344 583.074219 L 220.550781 583.074219 Z M 220.550781 19.867188 L 355.507812 284.675781 C 355.507812 298.339844 344.429688 309.417969 330.765625 309.417969 C 317.101562 309.417969 306.023438 298.339844 306.023438 284.675781 C 306.023438 271.007812 317.101562 259.929688 330.765625 259.929688 C 344.429688 259.929688 355.507812 271.007812 355.507812 284.675781 Z M 220.550781 19.867188 "/>
</clipPath>
<clipPath id="clip28">
  <path d="M 146 0 L 357 0 L 357 211 L 146 211 Z M 146 0 "/>
</clipPath>
<clipPath id="clip29">
  <path d="M -4.421875 -127.59375 L 507.167969 -127.59375 L 507.167969 324.820312 L -4.421875 324.820312 Z M -4.421875 -127.59375 L 241.0625 56.355469 C 241.0625 70.019531 229.984375 81.097656 216.320312 81.097656 C 202.652344 81.097656 191.574219 70.019531 191.574219 56.355469 C 191.574219 42.691406 202.652344 31.613281 216.320312 31.613281 C 229.984375 31.613281 241.0625 42.691406 241.0625 56.355469 Z M -4.421875 -127.59375 "/>
</clipPath>
<clipPath id="clip30">
  <path d="M -4.421875 -127.59375 L 507.167969 -127.59375 L 507.167969 324.820312 L -4.421875 324.820312 Z M -4.421875 -127.59375 L 311.171875 140.871094 C 311.171875 154.535156 300.09375 165.613281 286.425781 165.613281 C 272.761719 165.613281 261.683594 154.535156 261.683594 140.871094 C 261.683594 127.203125 272.761719 116.125 286.425781 116.125 C 300.09375 116.125 311.171875 127.203125 311.171875 140.871094 Z M -4.421875 -127.59375 "/>
</clipPath>
<clipPath id="clip31">
  <path d="M 467 391.339844 L 600 391.339844 L 600 580.453125 L 467 580.453125 Z M 467 391.339844 "/>
</clipPath>
<clipPath id="clip32">
  <path d="M 255.90625 391.339844 L 833.765625 391.339844 L 833.765625 580.453125 L 255.90625 580.453125 Z M 255.90625 391.339844 L 562.324219 441.355469 C 562.324219 455.023438 551.246094 466.101562 537.582031 466.101562 C 523.917969 466.101562 512.839844 455.023438 512.839844 441.355469 C 512.839844 427.691406 523.917969 416.613281 537.582031 416.613281 C 551.246094 416.613281 562.324219 427.691406 562.324219 441.355469 Z M 255.90625 391.339844 "/>
</clipPath>
<clipPath id="clip33">
  <path d="M 255.90625 391.339844 L 833.765625 391.339844 L 833.765625 580.453125 L 255.90625 580.453125 Z M 255.90625 391.339844 L 576.835938 530.4375 C 576.835938 544.101562 565.757812 555.179688 552.089844 555.179688 C 538.425781 555.179688 527.347656 544.101562 527.347656 530.4375 C 527.347656 516.769531 538.425781 505.691406 552.089844 505.691406 C 565.757812 505.691406 576.835938 516.769531 576.835938 530.4375 Z M 255.90625 391.339844 "/>
</clipPath>
<clipPath id="clip34">
  <path d="M 410 410 L 600 410 L 600 600 L 410 600 Z M 410 410 "/>
</clipPath>
<clipPath id="clip35">
  <path d="M 315.785156 245.257812 L 716.597656 245.257812 L 716.597656 765.925781 L 315.785156 765.925781 Z M 315.785156 245.257812 L 576.835938 530.4375 C 576.835938 544.101562 565.757812 555.179688 552.089844 555.179688 C 538.425781 555.179688 527.347656 544.101562 527.347656 530.4375 C 527.347656 516.769531 538.425781 505.691406 552.089844 505.691406 C 565.757812 505.691406 576.835938 516.769531 576.835938 530.4375 Z M 315.785156 245.257812 "/>
</clipPath>
<clipPath id="clip36">
  <path d="M 315.785156 245.257812 L 716.597656 245.257812 L 716.597656 765.925781 L 315.785156 765.925781 Z M 315.785156 245.257812 L 505.039062 480.746094 C 505.039062 494.414062 493.960938 505.492188 480.292969 505.492188 C 466.628906 505.492188 455.550781 494.414062 455.550781 480.746094 C 455.550781 467.082031 466.628906 456.003906 480.292969 456.003906 C 493.960938 456.003906 505.039062 467.082031 505.039062 480.746094 Z M 315.785156 245.257812 "/>
</clipPath>
</defs>
<g id="surface496">
<g clip-path="url(#clip1)" clip-rule="nonzero">
<g clip-path="url(#clip2)" clip-rule="evenodd">
<g clip-path="url(#clip3)" clip-rule="evenodd">
<path style="fill:none;stroke-width:0.0176506;stroke-linecap:butt;stroke-linejoin:miter;stroke:rgb(17.96875%,20.3125%,21.09375%);stroke-opacity:0.8;stroke-miterlimit:10;" d="M 0.298319 2.571565 L 0.533778 2.434358 " transform="matrix(280.371005,0,0,280.371005,-35.729978,-177.347692)"/>
</g>
</g>
</g>
<g clip-path="url(#clip4)" clip-rule="nonzero">
<g clip-path="url(#clip5)" clip-rule="evenodd">
<g clip-path="url(#clip6)" clip-rule="evenodd">
<path style="fill:none;stroke-width:0.0176506;stroke-linecap:butt;stroke-linejoin:miter;stroke:rgb(17.96875%,20.3125%,21.09375%);stroke-opacity:0.8;stroke-miterlimit:10;" d="M 0.533778 2.434358 L 0.942109 2.185441 " transform="matrix(280.371005,0,0,280.371005,-35.729978,-177.347692)"/>
</g>
</g>
</g>
<g clip-path="url(#clip7)" clip-rule="nonzero">
<g clip-path="url(#clip8)" clip-rule="evenodd">
<g clip-path="url(#clip9)" clip-rule="evenodd">
<path style="fill:none;stroke-width:0.0176506;stroke-linecap:butt;stroke-linejoin:miter;stroke:rgb(17.96875%,20.3125%,21.09375%);stroke-opacity:0.8;stroke-miterlimit:10;" d="M 1.602938 1.767705 L 0.942109 2.185441 " transform="matrix(280.371005,0,0,280.371005,-35.729978,-177.347692)"/>
</g>
</g>
</g>
<g clip-path="url(#clip10)" clip-rule="nonzero">
<g clip-path="url(#clip11)" clip-rule="evenodd">
<g clip-path="url(#clip12)" clip-rule="evenodd">
<path style="fill:none;stroke-width:0.0176506;stroke-linecap:butt;stroke-linejoin:miter;stroke:rgb(17.96875%,20.3125%,21.09375%);stroke-opacity:0.8;stroke-miterlimit:10;" d="M 1.602938 1.767705 L 1.149034 1.134992 " transform="matrix(280.371005,0,0,280.371005,-35.729978,-177.347692)"/>
</g>
</g>
</g>
<g clip-path="url(#clip13)" clip-rule="nonzero">
<g clip-path="url(#clip14)" clip-rule="evenodd">
<g clip-path="url(#clip15)" clip-rule="evenodd">
<path style="fill:none;stroke-width:0.0176506;stroke-linecap:butt;stroke-linejoin:miter;stroke:rgb(17.96875%,20.3125%,21.09375%);stroke-opacity:0.8;stroke-miterlimit:10;" d="M 1.602938 1.767705 L 1.817902 1.29789 " transform="matrix(280.371005,0,0,280.371005,-35.729978,-177.347692)"/>
</g>
</g>
</g>
<g clip-path="url(#clip16)" clip-rule="nonzero">
<g clip-path="url(#clip17)" clip-rule="evenodd">
<g clip-path="url(#clip18)" clip-rule="evenodd">
<path style="fill:none;stroke-width:0.0176506;stroke-linecap:butt;stroke-linejoin:miter;stroke:rgb(17.96875%,20.3125%,21.09375%);stroke-opacity:0.8;stroke-miterlimit:10;" d="M 1.602938 1.767705 L 2.084624 1.555514 " transform="matrix(280.371005,0,0,280.371005,-35.729978,-177.347692)"/>
</g>
</g>
</g>
<g clip-path="url(#clip19)" clip-rule="nonzero">
<g clip-path="url(#clip20)" clip-rule="evenodd">
<g clip-path="url(#clip21)" clip-rule="evenodd">
<path style="fill:none;stroke-width:0.0176506;stroke-linecap:butt;stroke-linejoin:miter;stroke:rgb(17.96875%,20.3125%,21.09375%);stroke-opacity:0.8;stroke-miterlimit:10;" d="M 1.602938 1.767705 L 2.044833 2.20673 " transform="matrix(280.371005,0,0,280.371005,-35.729978,-177.347692)"/>
</g>
</g>
</g>
<g clip-path="url(#clip22)" clip-rule="nonzero">
<g clip-path="url(#clip23)" clip-rule="evenodd">
<g clip-path="url(#clip24)" clip-rule="evenodd">
<path style="fill:none;stroke-width:0.0176506;stroke-linecap:butt;stroke-linejoin:miter;stroke:rgb(17.96875%,20.3125%,21.09375%);stroke-opacity:0.8;stroke-miterlimit:10;" d="M 1.602938 1.767705 L 1.8405 2.347225 " transform="matrix(280.371005,0,0,280.371005,-35.729978,-177.347692)"/>
</g>
</g>
</g>
<g clip-path="url(#clip25)" clip-rule="nonzero">
<g clip-path="url(#clip26)" clip-rule="evenodd">
<g clip-path="url(#clip27)" clip-rule="evenodd">
<path style="fill:none;stroke-width:0.0176506;stroke-linecap:butt;stroke-linejoin:miter;stroke:rgb(17.96875%,20.3125%,21.09375%);stroke-opacity:0.8;stroke-miterlimit:10;" d="M 1.602938 1.767705 L 1.307181 1.6479 " transform="matrix(280.371005,0,0,280.371005,-35.729978,-177.347692)"/>
</g>
</g>
</g>
<g clip-path="url(#clip28)" clip-rule="nonzero">
<g clip-path="url(#clip29)" clip-rule="evenodd">
<g clip-path="url(#clip30)" clip-rule="evenodd">
<path style="fill:none;stroke-width:0.0176506;stroke-linecap:butt;stroke-linejoin:miter;stroke:rgb(17.96875%,20.3125%,21.09375%);stroke-opacity:0.8;stroke-miterlimit:10;" d="M 0.898988 0.83355 L 1.149034 1.134992 " transform="matrix(280.371005,0,0,280.371005,-35.729978,-177.347692)"/>
</g>
</g>
</g>
<g clip-path="url(#clip31)" clip-rule="nonzero">
<g clip-path="url(#clip32)" clip-rule="evenodd">
<g clip-path="url(#clip33)" clip-rule="evenodd">
<path style="fill:none;stroke-width:0.0176506;stroke-linecap:butt;stroke-linejoin:miter;stroke:rgb(17.96875%,20.3125%,21.09375%);stroke-opacity:0.8;stroke-miterlimit:10;" d="M 2.044833 2.20673 L 2.096578 2.524459 " transform="matrix(280.371005,0,0,280.371005,-35.729978,-177.347692)"/>
</g>
</g>
</g>
<g clip-path="url(#clip34)" clip-rule="nonzero">
<g clip-path="url(#clip35)" clip-rule="evenodd">
<g clip-path="url(#clip36)" clip-rule="evenodd">
<path style="fill:none;stroke-width:0.0176506;stroke-linecap:butt;stroke-linejoin:miter;stroke:rgb(17.96875%,20.3125%,21.09375%);stroke-opacity:0.8;stroke-miterlimit:10;" d="M 2.096578 2.524459 L 1.8405 2.347225 " transform="matrix(280.371005,0,0,280.371005,-35.729978,-177.347692)"/>
</g>
</g>
</g>
<path style="fill-rule:nonzero;fill:rgb(100%,92.941176%,43.529412%);fill-opacity:1;stroke-width:0.0176506;stroke-linecap:butt;stroke-linejoin:miter;stroke:rgb(60%,60%,60%);stroke-opacity:0.8;stroke-miterlimit:10;" d="M 0.0882523 -0.000000356063 C 0.0882523 0.0487353 0.0487399 0.0882477 0.00000424761 0.0882477 C -0.0487453 0.0882477 -0.0882577 0.0487353 -0.0882577 -0.000000356063 C -0.0882577 -0.048736 -0.0487453 -0.0882484 0.00000424761 -0.0882484 C 0.0487399 -0.0882484 0.0882523 -0.048736 0.0882523 -0.000000356063 Z M 0.0882523 -0.000000356063 " transform="matrix(280.371005,0,0,280.371005,47.908965,543.644631)"/>
<path style="fill-rule:nonzero;fill:rgb(100%,92.941176%,43.529412%);fill-opacity:1;stroke-width:0.0176506;stroke-linecap:butt;stroke-linejoin:miter;stroke:rgb(60%,60%,60%);stroke-opacity:0.8;stroke-miterlimit:10;" d="M 0.0882558 -0.00000172954 C 0.0882558 0.0487339 0.0487435 0.0882463 -0.00000612381 0.0882463 C -0.0487418 0.0882463 -0.0882541 0.0487339 -0.0882541 -0.00000172954 C -0.0882541 -0.0487374 -0.0487418 -0.0882498 -0.00000612381 -0.0882498 C 0.0487435 -0.0882498 0.0882558 -0.0487374 0.0882558 -0.00000172954 Z M 0.0882558 -0.00000172954 " transform="matrix(280.371005,0,0,280.371005,113.927498,505.176266)"/>
<path style="fill-rule:nonzero;fill:rgb(100%,92.941176%,43.529412%);fill-opacity:1;stroke-width:0.0176506;stroke-linecap:butt;stroke-linejoin:miter;stroke:rgb(60%,60%,60%);stroke-opacity:0.8;stroke-miterlimit:10;" d="M 0.088259 -0.0000054437 C 0.088259 0.0487441 0.0487467 0.0882565 -0.00000292886 0.0882565 C -0.0487386 0.0882565 -0.088251 0.0487441 -0.088251 -0.0000054437 C -0.088251 -0.0487411 -0.0487386 -0.0882535 -0.00000292886 -0.0882535 C 0.0487467 -0.0882535 0.088259 -0.0487411 0.088259 -0.0000054437 Z M 0.088259 -0.0000054437 " transform="matrix(280.371005,0,0,280.371005,413.688321,318.267151)"/>
<path style="fill-rule:nonzero;fill:rgb(100%,92.941176%,43.529412%);fill-opacity:1;stroke-width:0.0176506;stroke-linecap:butt;stroke-linejoin:miter;stroke:rgb(60%,60%,60%);stroke-opacity:0.8;stroke-miterlimit:10;" d="M 0.0882472 0.00000498224 C 0.0882472 0.0487406 0.0487348 0.088253 -0.000000806689 0.088253 C -0.0487365 0.088253 -0.0882488 0.0487406 -0.0882488 0.00000498224 C -0.0882488 -0.0487446 -0.0487365 -0.088257 -0.000000806689 -0.088257 C 0.0487348 -0.088257 0.0882472 -0.0487446 0.0882472 0.00000498224 Z M 0.0882472 0.00000498224 " transform="matrix(280.371005,0,0,280.371005,228.410382,435.385322)"/>
<path style="fill-rule:nonzero;fill:rgb(55.294118%,82.745098%,78.039216%);fill-opacity:1;stroke-width:0.0176506;stroke-linecap:butt;stroke-linejoin:miter;stroke:rgb(60%,60%,60%);stroke-opacity:0.8;stroke-miterlimit:10;" d="M 0.0882511 0.000000356063 C 0.0882511 0.048736 0.0487387 0.0882484 0.00000307994 0.0882484 C -0.0487465 0.0882484 -0.0882589 0.048736 -0.0882589 0.000000356063 C -0.0882589 -0.0487353 -0.0487465 -0.0882477 0.00000307994 -0.0882477 C 0.0487387 -0.0882477 0.0882511 -0.0487353 0.0882511 0.000000356063 Z M 0.0882511 0.000000356063 " transform="matrix(280.371005,0,0,280.371005,216.319449,56.355369)"/>
<path style="fill-rule:nonzero;fill:rgb(55.294118%,82.745098%,78.039216%);fill-opacity:1;stroke-width:0.0176506;stroke-linecap:butt;stroke-linejoin:miter;stroke:rgb(60%,60%,60%);stroke-opacity:0.8;stroke-miterlimit:10;" d="M 0.0882598 0.00000203841 C 0.0882598 0.0487377 0.0487474 0.0882501 -0.0000021891 0.0882501 C -0.0487378 0.0882501 -0.0882502 0.0487377 -0.0882502 0.00000203841 C -0.0882502 -0.0487475 -0.0487378 -0.0882599 -0.0000021891 -0.0882599 C 0.0487474 -0.0882599 0.0882598 -0.0487475 0.0882598 0.00000203841 Z M 0.0882598 0.00000203841 " transform="matrix(280.371005,0,0,280.371005,286.426395,140.870522)"/>
<path style="fill-rule:nonzero;fill:rgb(100%,92.941176%,43.529412%);fill-opacity:1;stroke-width:0.0176506;stroke-linecap:butt;stroke-linejoin:miter;stroke:rgb(60%,60%,60%);stroke-opacity:0.8;stroke-miterlimit:10;" d="M 0.0882576 -0.00000691256 C 0.0882576 0.0487427 0.0487452 0.088255 -0.00000437349 0.088255 C -0.04874 0.088255 -0.0882524 0.0487427 -0.0882524 -0.00000691256 C -0.0882524 -0.0487426 -0.04874 -0.0882549 -0.00000437349 -0.0882549 C 0.0487452 -0.0882549 0.0882576 -0.0487426 0.0882576 -0.00000691256 Z M 0.0882576 -0.00000691256 " transform="matrix(280.371005,0,0,280.371005,473.958257,186.544907)"/>
<path style="fill-rule:nonzero;fill:rgb(100%,92.941176%,43.529412%);fill-opacity:1;stroke-width:0.0176506;stroke-linecap:butt;stroke-linejoin:miter;stroke:rgb(60%,60%,60%);stroke-opacity:0.8;stroke-miterlimit:10;" d="M 0.0882463 -0.00000291265 C 0.0882463 0.0487467 0.0487339 0.088259 -0.00000170488 0.088259 C -0.0487374 0.088259 -0.0882497 0.0487467 -0.0882497 -0.00000291265 C -0.0882497 -0.0487386 -0.0487374 -0.0882509 -0.00000170488 -0.0882509 C 0.0487339 -0.0882509 0.0882463 -0.0487386 0.0882463 -0.00000291265 Z M 0.0882463 -0.00000291265 " transform="matrix(280.371005,0,0,280.371005,548.738759,258.774254)"/>
<path style="fill-rule:nonzero;fill:rgb(100%,92.941176%,43.529412%);fill-opacity:1;stroke-width:0.0176506;stroke-linecap:butt;stroke-linejoin:miter;stroke:rgb(60%,60%,60%);stroke-opacity:0.8;stroke-miterlimit:10;" d="M 0.0882495 -0.0000048652 C 0.0882495 0.0487447 0.0487371 0.0882571 0.00000146363 0.0882571 C -0.0487342 0.0882571 -0.0882466 0.0487447 -0.0882466 -0.0000048652 C -0.0882466 -0.0487405 -0.0487342 -0.0882529 0.00000146363 -0.0882529 C 0.0487371 -0.0882529 0.0882495 -0.0487405 0.0882495 -0.0000048652 Z M 0.0882495 -0.0000048652 " transform="matrix(280.371005,0,0,280.371005,537.581621,441.356833)"/>
<path style="fill-rule:nonzero;fill:rgb(100%,92.941176%,43.529412%);fill-opacity:1;stroke-width:0.0176506;stroke-linecap:butt;stroke-linejoin:miter;stroke:rgb(60%,60%,60%);stroke-opacity:0.8;stroke-miterlimit:10;" d="M 0.0882577 0.00000409574 C 0.0882577 0.0487397 0.0487453 0.0882521 -0.00000424761 0.0882521 C -0.0487399 0.0882521 -0.0882523 0.0487397 -0.0882523 0.00000409574 C -0.0882523 -0.0487455 -0.0487399 -0.0882579 -0.00000424761 -0.0882579 C 0.0487453 -0.0882579 0.0882577 -0.0487455 0.0882577 0.00000409574 Z M 0.0882577 0.00000409574 " transform="matrix(280.371005,0,0,280.371005,552.091035,530.436352)"/>
<path style="fill-rule:nonzero;fill:rgb(100%,92.941176%,43.529412%);fill-opacity:1;stroke-width:0.0176506;stroke-linecap:butt;stroke-linejoin:miter;stroke:rgb(60%,60%,60%);stroke-opacity:0.8;stroke-miterlimit:10;" d="M 0.0882579 -0.00000316945 C 0.0882579 0.0487464 0.0487455 0.0882588 -0.00000405644 0.0882588 C -0.0487397 0.0882588 -0.0882521 0.0487464 -0.0882521 -0.00000316945 C -0.0882521 -0.0487388 -0.0487397 -0.0882512 -0.00000405644 -0.0882512 C 0.0487455 -0.0882512 0.0882579 -0.0487388 0.0882579 -0.00000316945 Z M 0.0882579 -0.00000316945 " transform="matrix(280.371005,0,0,280.371005,480.294106,480.746982)"/>
<path style="fill-rule:nonzero;fill:rgb(100%,92.941176%,43.529412%);fill-opacity:1;stroke-width:0.0176506;stroke-linecap:butt;stroke-linejoin:miter;stroke:rgb(60%,60%,60%);stroke-opacity:0.8;stroke-miterlimit:10;" d="M 0.0882478 0.00000518407 C 0.0882478 0.0487408 0.0487355 0.0882532 -0.000000178218 0.0882532 C -0.0487358 0.0882532 -0.0882482 0.0487408 -0.0882482 0.00000518407 C -0.0882482 -0.0487444 -0.0487358 -0.0882568 -0.000000178218 -0.0882568 C 0.0487355 -0.0882568 0.0882478 -0.0487444 0.0882478 0.00000518407 Z M 0.0882478 0.00000518407 " transform="matrix(280.371005,0,0,280.371005,330.765675,284.674328)"/>
</g>
</svg>
