<?xml version="1.0" encoding="UTF-8"?>
<svg xmlns="http://www.w3.org/2000/svg" xmlns:xlink="http://www.w3.org/1999/xlink" width="600pt" height="600pt" viewBox="0 0 600 600" version="1.1">
<defs>
<clipPath id="clip1">
  <path d="M 59 448.042969 L 210 448.042969 L 210 595.664062 L 59 595.664062 Z M 59 448.042969 "/>
</clipPath>
<clipPath id="clip2">
  <path d="M -101.703125 448.042969 L 370.683594 448.042969 L 370.683594 595.664062 L -101.703125 595.664062 Z M -101.703125 448.042969 L 154.070312 552.089844 C 154.070312 565.757812 142.992188 576.835938 129.324219 576.835938 C 115.660156 576.835938 104.582031 565.757812 104.582031 552.089844 C 104.582031 538.425781 115.660156 527.347656 129.324219 527.347656 C 142.992188 527.347656 154.070312 538.425781 154.070312 552.089844 Z M -101.703125 448.042969 "/>
</clipPath>
<clipPath id="clip3">
  <path d="M -101.703125 448.042969 L 370.683594 448.042969 L 370.683594 595.664062 L -101.703125 595.664062 Z M -101.703125 448.042969 L 164.402344 491.617188 C 164.402344 505.28125 153.324219 516.359375 139.65625 516.359375 C 125.992188 516.359375 114.914062 505.28125 114.914062 491.617188 C 114.914062 477.949219 125.992188 466.871094 139.65625 466.871094 C 153.324219 466.871094 164.402344 477.949219 164.402344 491.617188 Z M -101.703125 448.042969 "/>
</clipPath>
<clipPath id="clip4">
  <path d="M 69 320 L 240 320 L 240 562 L 69 562 Z M 69 320 "/>
</clipPath>
<clipPath id="clip5">
  <path d="M -85.003906 319.683594 L 394.621094 319.683594 L 394.621094 562.378906 L -85.003906 562.378906 Z M -85.003906 319.683594 L 164.402344 491.617188 C 164.402344 505.28125 153.324219 516.359375 139.65625 516.359375 C 125.992188 516.359375 114.914062 505.28125 114.914062 491.617188 C 114.914062 477.949219 125.992188 466.871094 139.65625 466.871094 C 153.324219 466.871094 164.402344 477.949219 164.402344 491.617188 Z M -85.003906 319.683594 "/>
</clipPath>
<clipPath id="clip6">
  <path d="M -85.003906 319.683594 L 394.621094 319.683594 L 394.621094 562.378906 L -85.003906 562.378906 Z M -85.003906 319.683594 L 194.707031 390.445312 C 194.707031 404.113281 183.628906 415.191406 169.960938 415.191406 C 156.296875 415.191406 145.21875 404.113281 145.21875 390.445312 C 145.21875 376.78125 156.296875 365.703125 169.960938 365.703125 C 183.628906 365.703125 194.707031 376.78125 194.707031 390.445312 Z M -85.003906 319.683594 "/>
</clipPath>
<clipPath id="clip7">
  <path d="M 99 160 L 303 160 L 303 461 L 99 461 Z M 99 160 "/>
</clipPath>
<clipPath id="clip8">
  <path d="M -48.535156 142.265625 L 450.976562 142.265625 L 450.976562 479.070312 L -48.535156 479.070312 Z M -48.535156 142.265625 L 257.222656 230.890625 C 257.222656 244.558594 246.144531 255.636719 232.480469 255.636719 C 218.8125 255.636719 207.734375 244.558594 207.734375 230.890625 C 207.734375 217.226562 218.8125 206.148438 232.480469 206.148438 C 246.144531 206.148438 257.222656 217.226562 257.222656 230.890625 Z M -48.535156 142.265625 "/>
</clipPath>
<clipPath id="clip9">
  <path d="M -48.535156 142.265625 L 450.976562 142.265625 L 450.976562 479.070312 L -48.535156 479.070312 Z M -48.535156 142.265625 L 194.707031 390.445312 C 194.707031 404.113281 183.628906 415.191406 169.960938 415.191406 C 156.296875 415.191406 145.21875 404.113281 145.21875 390.445312 C 145.21875 376.78125 156.296875 365.703125 169.960938 365.703125 C 183.628906 365.703125 194.707031 376.78125 194.707031 390.445312 Z M -48.535156 142.265625 "/>
</clipPath>
<clipPath id="clip10">
  <path d="M 162 160 L 475 160 L 475 377 L 162 377 Z M 162 160 "/>
</clipPath>
<clipPath id="clip11">
  <path d="M 135.527344 15.851562 L 501.148438 15.851562 L 501.148438 521.128906 L 135.527344 521.128906 Z M 135.527344 15.851562 L 257.222656 230.890625 C 257.222656 244.558594 246.144531 255.636719 232.480469 255.636719 C 218.8125 255.636719 207.734375 244.558594 207.734375 230.890625 C 207.734375 217.226562 218.8125 206.148438 232.480469 206.148438 C 246.144531 206.148438 257.222656 217.226562 257.222656 230.890625 Z M 135.527344 15.851562 "/>
</clipPath>
<clipPath id="clip12">
  <path d="M 135.527344 15.851562 L 501.148438 15.851562 L 501.148438 521.128906 L 135.527344 521.128906 Z M 135.527344 15.851562 L 428.941406 306.089844 C 428.941406 319.757812 417.863281 330.835938 404.195312 330.835938 C 390.53125 330.835938 379.453125 319.757812 379.453125 306.089844 C 379.453125 292.425781 390.53125 281.347656 404.195312 281.347656 C 417.863281 281.347656 428.941406 292.425781 428.941406 306.089844 Z M 135.527344 15.851562 "/>
</clipPath>
<clipPath id="clip13">
  <path d="M 162 160 L 351 160 L 351 361 L 162 361 Z M 162 160 "/>
</clipPath>
<clipPath id="clip14">
  <path d="M 49.039062 81.914062 L 464.304688 81.914062 L 464.304688 439.828125 L 49.039062 439.828125 Z M 49.039062 81.914062 L 257.222656 230.890625 C 257.222656 244.558594 246.144531 255.636719 232.480469 255.636719 C 218.8125 255.636719 207.734375 244.558594 207.734375 230.890625 C 207.734375 217.226562 218.8125 206.148438 232.480469 206.148438 C 246.144531 206.148438 257.222656 217.226562 257.222656 230.890625 Z M 49.039062 81.914062 "/>
</clipPath>
<clipPath id="clip15">
  <path d="M 49.039062 81.914062 L 464.304688 81.914062 L 464.304688 439.828125 L 49.039062 439.828125 Z M 49.039062 81.914062 L 305.605469 290.851562 C 305.605469 304.515625 294.527344 315.59375 280.863281 315.59375 C 267.195312 315.59375 256.117188 304.515625 256.117188 290.851562 C 256.117188 277.183594 267.195312 266.105469 280.863281 266.105469 C 294.527344 266.105469 305.605469 277.183594 305.605469 290.851562 Z M 49.039062 81.914062 "/>
</clipPath>
<clipPath id="clip16">
  <path d="M 78.292969 160 L 266.261719 160 L 266.261719 317 L 78.292969 317 Z M 78.292969 160 "/>
</clipPath>
<clipPath id="clip17">
  <path d="M 78.292969 -1.59375 L 266.261719 -1.59375 L 266.261719 478.632812 L 78.292969 478.632812 Z M 78.292969 -1.59375 L 257.222656 230.890625 C 257.222656 244.558594 246.144531 255.636719 232.480469 255.636719 C 218.8125 255.636719 207.734375 244.558594 207.734375 230.890625 C 207.734375 217.226562 218.8125 206.148438 232.480469 206.148438 C 246.144531 206.148438 257.222656 217.226562 257.222656 230.890625 Z M 78.292969 -1.59375 "/>
</clipPath>
<clipPath id="clip18">
  <path d="M 78.292969 -1.59375 L 266.261719 -1.59375 L 266.261719 478.632812 L 78.292969 478.632812 Z M 78.292969 -1.59375 L 136.820312 246.148438 C 136.820312 259.8125 125.742188 270.890625 112.074219 270.890625 C 98.410156 270.890625 87.332031 259.8125 87.332031 246.148438 C 87.332031 232.484375 98.410156 221.40625 112.074219 221.40625 C 125.742188 221.40625 136.820312 232.484375 136.820312 246.148438 Z M 78.292969 -1.59375 "/>
</clipPath>
<clipPath id="clip19">
  <path d="M 162 47 L 375 47 L 375 301 L 162 301 Z M 162 47 "/>
</clipPath>
<clipPath id="clip20">
  <path d="M 34.203125 -11.0625 L 503.269531 -11.0625 L 503.269531 359.242188 L 34.203125 359.242188 Z M 34.203125 -11.0625 L 257.222656 230.890625 C 257.222656 244.558594 246.144531 255.636719 232.480469 255.636719 C 218.8125 255.636719 207.734375 244.558594 207.734375 230.890625 C 207.734375 217.226562 218.8125 206.148438 232.480469 206.148438 C 246.144531 206.148438 257.222656 217.226562 257.222656 230.890625 Z M 34.203125 -11.0625 "/>
</clipPath>
<clipPath id="clip21">
  <path d="M 34.203125 -11.0625 L 503.269531 -11.0625 L 503.269531 359.242188 L 34.203125 359.242188 Z M 34.203125 -11.0625 L 329.738281 117.289062 C 329.738281 130.953125 318.660156 142.03125 304.992188 142.03125 C 291.328125 142.03125 280.25 130.953125 280.25 117.289062 C 280.25 103.625 291.328125 92.546875 304.992188 92.546875 C 318.660156 92.546875 329.738281 103.625 329.738281 117.289062 Z M 34.203125 -11.0625 "/>
</clipPath>
<clipPath id="clip22">
  <path d="M 162 66.496094 L 318 66.496094 L 318 261.539062 L 162 261.539062 Z M 162 66.496094 "/>
</clipPath>
<clipPath id="clip23">
  <path d="M -0.378906 66.496094 L 480.421875 66.496094 L 480.421875 261.539062 L -0.378906 261.539062 Z M -0.378906 66.496094 L 257.222656 230.890625 C 257.222656 244.558594 246.144531 255.636719 232.480469 255.636719 C 218.8125 255.636719 207.734375 244.558594 207.734375 230.890625 C 207.734375 217.226562 218.8125 206.148438 232.480469 206.148438 C 246.144531 206.148438 257.222656 217.226562 257.222656 230.890625 Z M -0.378906 66.496094 "/>
</clipPath>
<clipPath id="clip24">
  <path d="M -0.378906 66.496094 L 480.421875 66.496094 L 480.421875 261.539062 L -0.378906 261.539062 Z M -0.378906 66.496094 L 272.308594 97.144531 C 272.308594 110.808594 261.230469 121.886719 247.5625 121.886719 C 233.898438 121.886719 222.820312 110.808594 222.820312 97.144531 C 222.820312 83.480469 233.898438 72.402344 247.5625 72.402344 C 261.230469 72.402344 272.308594 83.480469 272.308594 97.144531 Z M -0.378906 66.496094 "/>
</clipPath>
<clipPath id="clip25">
  <path d="M 47 97 L 303 97 L 303 301 L 47 301 Z M 47 97 "/>
</clipPath>
<clipPath id="clip26">
  <path d="M 2.277344 -38.125 L 347.941406 -38.125 L 347.941406 436.8125 L 2.277344 436.8125 Z M 2.277344 -38.125 L 257.222656 230.890625 C 257.222656 244.558594 246.144531 255.636719 232.480469 255.636719 C 218.8125 255.636719 207.734375 244.558594 207.734375 230.890625 C 207.734375 217.226562 218.8125 206.148438 232.480469 206.148438 C 246.144531 206.148438 257.222656 217.226562 257.222656 230.890625 Z M 2.277344 -38.125 "/>
</clipPath>
<clipPath id="clip27">
  <path d="M 2.277344 -38.125 L 347.941406 -38.125 L 347.941406 436.8125 L 2.277344 436.8125 Z M 2.277344 -38.125 L 142.484375 167.796875 C 142.484375 181.460938 131.40625 192.539062 117.738281 192.539062 C 104.074219 192.539062 92.996094 181.460938 92.996094 167.796875 C 92.996094 154.132812 104.074219 143.054688 117.738281 143.054688 C 131.40625 143.054688 142.484375 154.132812 142.484375 167.796875 Z M 2.277344 -38.125 "/>
</clipPath>
<clipPath id="clip28">
  <path d="M 334 236 L 558 236 L 558 418 L 334 418 Z M 334 236 "/>
</clipPath>
<clipPath id="clip29">
  <path d="M 298.304688 95.195312 L 593.816406 95.195312 L 593.816406 558.023438 L 298.304688 558.023438 Z M 298.304688 95.195312 L 512.667969 347.128906 C 512.667969 360.792969 501.589844 371.871094 487.925781 371.871094 C 474.257812 371.871094 463.179688 360.792969 463.179688 347.128906 C 463.179688 333.464844 474.257812 322.386719 487.925781 322.386719 C 501.589844 322.386719 512.667969 333.464844 512.667969 347.128906 Z M 298.304688 95.195312 "/>
</clipPath>
<clipPath id="clip30">
  <path d="M 298.304688 95.195312 L 593.816406 95.195312 L 593.816406 558.023438 L 298.304688 558.023438 Z M 298.304688 95.195312 L 428.941406 306.089844 C 428.941406 319.757812 417.863281 330.835938 404.195312 330.835938 C 390.53125 330.835938 379.453125 319.757812 379.453125 306.089844 C 379.453125 292.425781 390.53125 281.347656 404.195312 281.347656 C 417.863281 281.347656 428.941406 292.425781 428.941406 306.089844 Z M 298.304688 95.195312 "/>
</clipPath>
<clipPath id="clip31">
  <path d="M 228 20.320312 L 375 20.320312 L 375 144.878906 L 228 144.878906 Z M 228 20.320312 "/>
</clipPath>
<clipPath id="clip32">
  <path d="M 64.925781 20.320312 L 538.175781 20.320312 L 538.175781 144.878906 L 64.925781 144.878906 Z M 64.925781 20.320312 L 329.738281 117.289062 C 329.738281 130.953125 318.660156 142.03125 304.992188 142.03125 C 291.328125 142.03125 280.25 130.953125 280.25 117.289062 C 280.25 103.625 291.328125 92.546875 304.992188 92.546875 C 318.660156 92.546875 329.738281 103.625 329.738281 117.289062 Z M 64.925781 20.320312 "/>
</clipPath>
<clipPath id="clip33">
  <path d="M 64.925781 20.320312 L 538.175781 20.320312 L 538.175781 144.878906 L 64.925781 144.878906 Z M 64.925781 20.320312 L 322.855469 47.910156 C 322.855469 61.574219 311.777344 72.652344 298.109375 72.652344 C 284.445312 72.652344 273.367188 61.574219 273.367188 47.910156 C 273.367188 34.242188 284.445312 23.164062 298.109375 23.164062 C 311.777344 23.164062 322.855469 34.242188 322.855469 47.910156 Z M 64.925781 20.320312 "/>
</clipPath>
<clipPath id="clip34">
  <path d="M 177 0 L 369 0 L 369 168 L 177 168 Z M 177 0 "/>
</clipPath>
<clipPath id="clip35">
  <path d="M 82.582031 -121.335938 L 463.089844 -121.335938 L 463.089844 266.390625 L 82.582031 266.390625 Z M 82.582031 -121.335938 L 322.855469 47.910156 C 322.855469 61.574219 311.777344 72.652344 298.109375 72.652344 C 284.445312 72.652344 273.367188 61.574219 273.367188 47.910156 C 273.367188 34.242188 284.445312 23.164062 298.109375 23.164062 C 311.777344 23.164062 322.855469 34.242188 322.855469 47.910156 Z M 82.582031 -121.335938 "/>
</clipPath>
<clipPath id="clip36">
  <path d="M 82.582031 -121.335938 L 463.089844 -121.335938 L 463.089844 266.390625 L 82.582031 266.390625 Z M 82.582031 -121.335938 L 272.308594 97.144531 C 272.308594 110.808594 261.230469 121.886719 247.5625 121.886719 C 233.898438 121.886719 222.820312 110.808594 222.820312 97.144531 C 222.820312 83.480469 233.898438 72.402344 247.5625 72.402344 C 261.230469 72.402344 272.308594 83.480469 272.308594 97.144531 Z M 82.582031 -121.335938 "/>
</clipPath>
</defs>
<g id="surface461">
<g clip-path="url(#clip1)" clip-rule="nonzero">
<g clip-path="url(#clip2)" clip-rule="evenodd">
<g clip-path="url(#clip3)" clip-rule="evenodd">
<path style="fill:none;stroke-width:0.0215767;stroke-linecap:butt;stroke-linejoin:miter;stroke:rgb(17.96875%,20.3125%,21.09375%);stroke-opacity:0.8;stroke-miterlimit:10;" d="M 1.73701 2.720855 L 1.782059 2.45719 " transform="matrix(229.35417,0,0,229.35417,-269.066301,-71.949553)"/>
</g>
</g>
</g>
<g clip-path="url(#clip4)" clip-rule="nonzero">
<g clip-path="url(#clip5)" clip-rule="evenodd">
<g clip-path="url(#clip6)" clip-rule="evenodd">
<path style="fill:none;stroke-width:0.0215767;stroke-linecap:butt;stroke-linejoin:miter;stroke:rgb(17.96875%,20.3125%,21.09375%);stroke-opacity:0.8;stroke-miterlimit:10;" d="M 1.782059 2.45719 L 1.914189 2.016074 " transform="matrix(229.35417,0,0,229.35417,-269.066301,-71.949553)"/>
</g>
</g>
</g>
<g clip-path="url(#clip7)" clip-rule="nonzero">
<g clip-path="url(#clip8)" clip-rule="evenodd">
<g clip-path="url(#clip9)" clip-rule="evenodd">
<path style="fill:none;stroke-width:0.0215767;stroke-linecap:butt;stroke-linejoin:miter;stroke:rgb(17.96875%,20.3125%,21.09375%);stroke-opacity:0.8;stroke-miterlimit:10;" d="M 2.186779 1.320404 L 1.914189 2.016074 " transform="matrix(229.35417,0,0,229.35417,-269.066301,-71.949553)"/>
</g>
</g>
</g>
<g clip-path="url(#clip10)" clip-rule="nonzero">
<g clip-path="url(#clip11)" clip-rule="evenodd">
<g clip-path="url(#clip12)" clip-rule="evenodd">
<path style="fill:none;stroke-width:0.0215767;stroke-linecap:butt;stroke-linejoin:miter;stroke:rgb(17.96875%,20.3125%,21.09375%);stroke-opacity:0.8;stroke-miterlimit:10;" d="M 2.186779 1.320404 L 2.935467 1.648278 " transform="matrix(229.35417,0,0,229.35417,-269.066301,-71.949553)"/>
</g>
</g>
</g>
<g clip-path="url(#clip13)" clip-rule="nonzero">
<g clip-path="url(#clip14)" clip-rule="evenodd">
<g clip-path="url(#clip15)" clip-rule="evenodd">
<path style="fill:none;stroke-width:0.0215767;stroke-linecap:butt;stroke-linejoin:miter;stroke:rgb(17.96875%,20.3125%,21.09375%);stroke-opacity:0.8;stroke-miterlimit:10;" d="M 2.186779 1.320404 L 2.397731 1.581838 " transform="matrix(229.35417,0,0,229.35417,-269.066301,-71.949553)"/>
</g>
</g>
</g>
<g clip-path="url(#clip16)" clip-rule="nonzero">
<g clip-path="url(#clip17)" clip-rule="evenodd">
<g clip-path="url(#clip18)" clip-rule="evenodd">
<path style="fill:none;stroke-width:0.0215767;stroke-linecap:butt;stroke-linejoin:miter;stroke:rgb(17.96875%,20.3125%,21.09375%);stroke-opacity:0.8;stroke-miterlimit:10;" d="M 2.186779 1.320404 L 1.661799 1.386929 " transform="matrix(229.35417,0,0,229.35417,-269.066301,-71.949553)"/>
</g>
</g>
</g>
<g clip-path="url(#clip19)" clip-rule="nonzero">
<g clip-path="url(#clip20)" clip-rule="evenodd">
<g clip-path="url(#clip21)" clip-rule="evenodd">
<path style="fill:none;stroke-width:0.0215767;stroke-linecap:butt;stroke-linejoin:miter;stroke:rgb(17.96875%,20.3125%,21.09375%);stroke-opacity:0.8;stroke-miterlimit:10;" d="M 2.186779 1.320404 L 2.502935 0.825093 " transform="matrix(229.35417,0,0,229.35417,-269.066301,-71.949553)"/>
</g>
</g>
</g>
<g clip-path="url(#clip22)" clip-rule="nonzero">
<g clip-path="url(#clip23)" clip-rule="evenodd">
<g clip-path="url(#clip24)" clip-rule="evenodd">
<path style="fill:none;stroke-width:0.0215767;stroke-linecap:butt;stroke-linejoin:miter;stroke:rgb(17.96875%,20.3125%,21.09375%);stroke-opacity:0.8;stroke-miterlimit:10;" d="M 2.186779 1.320404 L 2.252537 0.737262 " transform="matrix(229.35417,0,0,229.35417,-269.066301,-71.949553)"/>
</g>
</g>
</g>
<g clip-path="url(#clip25)" clip-rule="nonzero">
<g clip-path="url(#clip26)" clip-rule="evenodd">
<g clip-path="url(#clip27)" clip-rule="evenodd">
<path style="fill:none;stroke-width:0.0215767;stroke-linecap:butt;stroke-linejoin:miter;stroke:rgb(17.96875%,20.3125%,21.09375%);stroke-opacity:0.8;stroke-miterlimit:10;" d="M 2.186779 1.320404 L 1.686495 1.045311 " transform="matrix(229.35417,0,0,229.35417,-269.066301,-71.949553)"/>
</g>
</g>
</g>
<g clip-path="url(#clip28)" clip-rule="nonzero">
<g clip-path="url(#clip29)" clip-rule="evenodd">
<g clip-path="url(#clip30)" clip-rule="evenodd">
<path style="fill:none;stroke-width:0.0215767;stroke-linecap:butt;stroke-linejoin:miter;stroke:rgb(17.96875%,20.3125%,21.09375%);stroke-opacity:0.8;stroke-miterlimit:10;" d="M 3.300538 1.827211 L 2.935467 1.648278 " transform="matrix(229.35417,0,0,229.35417,-269.066301,-71.949553)"/>
</g>
</g>
</g>
<g clip-path="url(#clip31)" clip-rule="nonzero">
<g clip-path="url(#clip32)" clip-rule="evenodd">
<g clip-path="url(#clip33)" clip-rule="evenodd">
<path style="fill:none;stroke-width:0.0215767;stroke-linecap:butt;stroke-linejoin:miter;stroke:rgb(17.96875%,20.3125%,21.09375%);stroke-opacity:0.8;stroke-miterlimit:10;" d="M 2.502935 0.825093 L 2.472925 0.522597 " transform="matrix(229.35417,0,0,229.35417,-269.066301,-71.949553)"/>
</g>
</g>
</g>
<g clip-path="url(#clip34)" clip-rule="nonzero">
<g clip-path="url(#clip35)" clip-rule="evenodd">
<g clip-path="url(#clip36)" clip-rule="evenodd">
<path style="fill:none;stroke-width:0.0215767;stroke-linecap:butt;stroke-linejoin:miter;stroke:rgb(17.96875%,20.3125%,21.09375%);stroke-opacity:0.8;stroke-miterlimit:10;" d="M 2.472925 0.522597 L 2.252537 0.737262 " transform="matrix(229.35417,0,0,229.35417,-269.066301,-71.949553)"/>
</g>
</g>
</g>
<path style="fill-rule:nonzero;fill:rgb(55.294118%,82.745098%,78.039216%);fill-opacity:1;stroke-width:0.0215767;stroke-linecap:butt;stroke-linejoin:miter;stroke:rgb(60%,60%,60%);stroke-opacity:0.8;stroke-miterlimit:10;" d="M 0.107888 -0.00000519243 C 0.107888 0.0595881 0.0595867 0.107889 -0.00000657786 0.107889 C -0.0595828 0.107889 -0.107884 0.0595881 -0.107884 -0.00000519243 C -0.107884 -0.0595814 -0.0595828 -0.107883 -0.00000657786 -0.107883 C 0.0595867 -0.107883 0.107888 -0.0595814 0.107888 -0.00000519243 Z M 0.107888 -0.00000519243 " transform="matrix(229.35417,0,0,229.35417,129.325727,552.091035)"/>
<path style="fill-rule:nonzero;fill:rgb(55.294118%,82.745098%,78.039216%);fill-opacity:1;stroke-width:0.0215767;stroke-linecap:butt;stroke-linejoin:miter;stroke:rgb(60%,60%,60%);stroke-opacity:0.8;stroke-miterlimit:10;" d="M 0.107891 0.0000030727 C 0.107891 0.0595793 0.0595901 0.107881 -0.0000032115 0.107881 C -0.0595795 0.107881 -0.107881 0.0595793 -0.107881 0.0000030727 C -0.107881 -0.0595902 -0.0595795 -0.107892 -0.0000032115 -0.107892 C 0.0595901 -0.107892 0.107891 -0.0595902 0.107891 0.0000030727 Z M 0.107891 0.0000030727 " transform="matrix(229.35417,0,0,229.35417,139.656987,491.616483)"/>
<path style="fill-rule:nonzero;fill:rgb(55.294118%,82.745098%,78.039216%);fill-opacity:1;stroke-width:0.0215767;stroke-linecap:butt;stroke-linejoin:miter;stroke:rgb(60%,60%,60%);stroke-opacity:0.8;stroke-miterlimit:10;" d="M 0.107884 -0.00000764169 C 0.107884 0.0595856 0.0595823 0.107887 0.00000608153 0.107887 C -0.0595872 0.107887 -0.107889 0.0595856 -0.107889 -0.00000764169 C -0.107889 -0.0595839 -0.0595872 -0.107885 0.00000608153 -0.107885 C 0.0595823 -0.107885 0.107884 -0.0595839 0.107884 -0.00000764169 Z M 0.107884 -0.00000764169 " transform="matrix(229.35417,0,0,229.35417,232.479074,230.892378)"/>
<path style="fill-rule:nonzero;fill:rgb(55.294118%,82.745098%,78.039216%);fill-opacity:1;stroke-width:0.0215767;stroke-linecap:butt;stroke-linejoin:miter;stroke:rgb(60%,60%,60%);stroke-opacity:0.8;stroke-miterlimit:10;" d="M 0.107887 -0.00000261745 C 0.107887 0.0595907 0.0595854 0.107892 -0.00000789605 0.107892 C -0.0595842 0.107892 -0.107886 0.0595907 -0.107886 -0.00000261745 C -0.107886 -0.0595789 -0.0595842 -0.10788 -0.00000789605 -0.10788 C 0.0595854 -0.10788 0.107887 -0.0595789 0.107887 -0.00000261745 Z M 0.107887 -0.00000261745 " transform="matrix(229.35417,0,0,229.35417,169.962748,390.445913)"/>
<path style="fill-rule:nonzero;fill:rgb(55.294118%,82.745098%,78.039216%);fill-opacity:1;stroke-width:0.0215767;stroke-linecap:butt;stroke-linejoin:miter;stroke:rgb(60%,60%,60%);stroke-opacity:0.8;stroke-miterlimit:10;" d="M 0.107885 0.00000195041 C 0.107885 0.0595782 0.0595839 0.10788 0.00000769213 0.10788 C -0.0595856 0.10788 -0.107887 0.0595782 -0.107887 0.00000195041 C -0.107887 -0.0595743 -0.0595856 -0.107876 0.00000769213 -0.107876 C 0.0595839 -0.107876 0.107885 -0.0595743 0.107885 0.00000195041 Z M 0.107885 0.00000195041 " transform="matrix(229.35417,0,0,229.35417,487.924017,347.128459)"/>
<path style="fill-rule:nonzero;fill:rgb(55.294118%,82.745098%,78.039216%);fill-opacity:1;stroke-width:0.0215767;stroke-linecap:butt;stroke-linejoin:miter;stroke:rgb(60%,60%,60%);stroke-opacity:0.8;stroke-miterlimit:10;" d="M 0.107891 -0.00000726783 C 0.107891 0.059586 0.05959 0.107887 -0.00000332108 0.107887 C -0.0595796 0.107887 -0.107881 0.059586 -0.107881 -0.00000726783 C -0.107881 -0.0595835 -0.0595796 -0.107885 -0.00000332108 -0.107885 C 0.05959 -0.107885 0.107891 -0.0595835 0.107891 -0.00000726783 Z M 0.107891 -0.00000726783 " transform="matrix(229.35417,0,0,229.35417,404.196074,306.091511)"/>
<path style="fill-rule:nonzero;fill:rgb(55.294118%,82.745098%,78.039216%);fill-opacity:1;stroke-width:0.0215767;stroke-linecap:butt;stroke-linejoin:miter;stroke:rgb(60%,60%,60%);stroke-opacity:0.8;stroke-miterlimit:10;" d="M 0.107883 0.00000541745 C 0.107883 0.0595817 0.0595814 0.107883 0.00000514564 0.107883 C -0.0595881 0.107883 -0.10789 0.0595817 -0.10789 0.00000541745 C -0.10789 -0.0595879 -0.0595881 -0.107889 0.00000514564 -0.107889 C 0.0595814 -0.107889 0.107883 -0.0595879 0.107883 0.00000541745 Z M 0.107883 0.00000541745 " transform="matrix(229.35417,0,0,229.35417,280.862101,290.85032)"/>
<path style="fill-rule:nonzero;fill:rgb(55.294118%,82.745098%,78.039216%);fill-opacity:1;stroke-width:0.0215767;stroke-linecap:butt;stroke-linejoin:miter;stroke:rgb(60%,60%,60%);stroke-opacity:0.8;stroke-miterlimit:10;" d="M 0.107887 0.000000723814 C 0.107887 0.059577 0.0595856 0.107878 -0.00000769213 0.107878 C -0.0595839 0.107878 -0.107885 0.059577 -0.107885 0.000000723814 C -0.107885 -0.0595755 -0.0595839 -0.107877 -0.00000769213 -0.107877 C 0.0595856 -0.107877 0.107887 -0.0595755 0.107887 0.000000723814 Z M 0.107887 0.000000723814 " transform="matrix(229.35417,0,0,229.35417,112.075983,246.148271)"/>
<path style="fill-rule:nonzero;fill:rgb(100%,92.941176%,43.529412%);fill-opacity:1;stroke-width:0.0215767;stroke-linecap:butt;stroke-linejoin:miter;stroke:rgb(60%,60%,60%);stroke-opacity:0.8;stroke-miterlimit:10;" d="M 0.107891 -0.00000180983 C 0.107891 0.0595744 0.05959 0.107876 -0.00000329648 0.107876 C -0.0595796 0.107876 -0.107881 0.0595744 -0.107881 -0.00000180983 C -0.107881 -0.0595781 -0.0595796 -0.107879 -0.00000329648 -0.107879 C 0.05959 -0.107879 0.107891 -0.0595781 0.107891 -0.00000180983 Z M 0.107891 -0.00000180983 " transform="matrix(229.35417,0,0,229.35417,304.992944,117.289478)"/>
<path style="fill-rule:nonzero;fill:rgb(100%,92.941176%,43.529412%);fill-opacity:1;stroke-width:0.0215767;stroke-linecap:butt;stroke-linejoin:miter;stroke:rgb(60%,60%,60%);stroke-opacity:0.8;stroke-miterlimit:10;" d="M 0.107891 0.00000519243 C 0.107891 0.0595814 0.0595901 0.107883 -0.00000323499 0.107883 C -0.0595795 0.107883 -0.107881 0.0595814 -0.107881 0.00000519243 C -0.107881 -0.0595881 -0.0595795 -0.107889 -0.00000323499 -0.107889 C 0.0595901 -0.107889 0.107891 -0.0595881 0.107891 0.00000519243 Z M 0.107891 0.00000519243 " transform="matrix(229.35417,0,0,229.35417,298.110117,47.908965)"/>
<path style="fill-rule:nonzero;fill:rgb(55.294118%,82.745098%,78.039216%);fill-opacity:1;stroke-width:0.0215767;stroke-linecap:butt;stroke-linejoin:miter;stroke:rgb(60%,60%,60%);stroke-opacity:0.8;stroke-miterlimit:10;" d="M 0.107891 0.00000160481 C 0.107891 0.0595779 0.0595895 0.107879 -0.00000378196 0.107879 C -0.05958 0.107879 -0.107881 0.0595779 -0.107881 0.00000160481 C -0.107881 -0.0595746 -0.05958 -0.107876 -0.00000378196 -0.107876 C 0.0595895 -0.107876 0.107891 -0.0595746 0.107891 0.00000160481 Z M 0.107891 0.00000160481 " transform="matrix(229.35417,0,0,229.35417,247.563367,97.144163)"/>
<path style="fill-rule:nonzero;fill:rgb(55.294118%,82.745098%,78.039216%);fill-opacity:1;stroke-width:0.0215767;stroke-linecap:butt;stroke-linejoin:miter;stroke:rgb(60%,60%,60%);stroke-opacity:0.8;stroke-miterlimit:10;" d="M 0.10789 0.00000203857 C 0.10789 0.0595783 0.0595884 0.10788 -0.00000483853 0.10788 C -0.0595811 0.10788 -0.107882 0.0595783 -0.107882 0.00000203857 C -0.107882 -0.0595742 -0.0595811 -0.107876 -0.00000483853 -0.107876 C 0.0595884 -0.107876 0.10789 -0.0595742 0.10789 0.00000203857 Z M 0.10789 0.00000203857 " transform="matrix(229.35417,0,0,229.35417,117.739391,167.796407)"/>
</g>
</svg>
