<?xml version="1.0" encoding="UTF-8"?>
<svg xmlns="http://www.w3.org/2000/svg" xmlns:xlink="http://www.w3.org/1999/xlink" width="600pt" height="600pt" viewBox="0 0 600 600" version="1.1">
<defs>
<clipPath id="clip1">
  <path d="M 446.007812 35 L 563.089844 35 L 563.089844 165 L 446.007812 165 Z M 446.007812 35 "/>
</clipPath>
<clipPath id="clip2">
  <path d="M 446.007812 -104.300781 L 563.089844 -104.300781 L 563.089844 304.796875 L 446.007812 304.796875 Z M 446.007812 -104.300781 L 497.089844 103.976562 C 497.089844 115.8125 487.496094 125.40625 475.660156 125.40625 C 463.828125 125.40625 454.234375 115.8125 454.234375 103.976562 C 454.234375 92.140625 463.828125 82.546875 475.660156 82.546875 C 487.496094 82.546875 497.089844 92.140625 497.089844 103.976562 Z M 446.007812 -104.300781 "/>
</clipPath>
<clipPath id="clip3">
  <path d="M 446.007812 -104.300781 L 563.089844 -104.300781 L 563.089844 304.796875 L 446.007812 304.796875 Z M 446.007812 -104.300781 L 554.867188 96.519531 C 554.867188 108.351562 545.273438 117.945312 533.4375 117.945312 C 521.605469 117.945312 512.007812 108.351562 512.007812 96.519531 C 512.007812 84.683594 521.605469 75.089844 533.4375 75.089844 C 545.273438 75.089844 554.867188 84.683594 554.867188 96.519531 Z M 446.007812 -104.300781 "/>
</clipPath>
<clipPath id="clip4">
  <path d="M 339 43 L 537 43 L 537 201 L 339 201 Z M 339 43 "/>
</clipPath>
<clipPath id="clip5">
  <path d="M 311.605469 -79.90625 L 563.695312 -79.90625 L 563.695312 323.308594 L 311.605469 323.308594 Z M 311.605469 -79.90625 L 497.089844 103.976562 C 497.089844 115.8125 487.496094 125.40625 475.660156 125.40625 C 463.828125 125.40625 454.234375 115.8125 454.234375 103.976562 C 454.234375 92.140625 463.828125 82.546875 475.660156 82.546875 C 487.496094 82.546875 497.089844 92.140625 497.089844 103.976562 Z M 311.605469 -79.90625 "/>
</clipPath>
<clipPath id="clip6">
  <path d="M 311.605469 -79.90625 L 563.695312 -79.90625 L 563.695312 323.308594 L 311.605469 323.308594 Z M 311.605469 -79.90625 L 421.070312 139.425781 C 421.070312 151.261719 411.476562 160.855469 399.640625 160.855469 C 387.804688 160.855469 378.210938 151.261719 378.210938 139.425781 C 378.210938 127.59375 387.804688 117.996094 399.640625 117.996094 C 411.476562 117.996094 421.070312 127.59375 421.070312 139.425781 Z M 311.605469 -79.90625 "/>
</clipPath>
<clipPath id="clip7">
  <path d="M 339 81.914062 L 495 81.914062 L 495 318.96875 L 339 318.96875 Z M 339 81.914062 "/>
</clipPath>
<clipPath id="clip8">
  <path d="M 204.472656 81.914062 L 628.835938 81.914062 L 628.835938 318.96875 L 204.472656 318.96875 Z M 204.472656 81.914062 L 421.070312 139.425781 C 421.070312 151.261719 411.476562 160.855469 399.640625 160.855469 C 387.804688 160.855469 378.210938 151.261719 378.210938 139.425781 C 378.210938 127.59375 387.804688 117.996094 399.640625 117.996094 C 411.476562 117.996094 421.070312 127.59375 421.070312 139.425781 Z M 204.472656 81.914062 "/>
</clipPath>
<clipPath id="clip9">
  <path d="M 204.472656 81.914062 L 628.835938 81.914062 L 628.835938 318.96875 L 204.472656 318.96875 Z M 204.472656 81.914062 L 455.097656 261.457031 C 455.097656 273.289062 445.503906 282.882812 433.667969 282.882812 C 421.835938 282.882812 412.242188 273.289062 412.242188 261.457031 C 412.242188 249.621094 421.835938 240.027344 433.667969 240.027344 C 445.503906 240.027344 455.097656 249.621094 455.097656 261.457031 Z M 204.472656 81.914062 "/>
</clipPath>
<clipPath id="clip10">
  <path d="M 244 13 L 461 13 L 461 201 L 244 201 Z M 244 13 "/>
</clipPath>
<clipPath id="clip11">
  <path d="M 188.664062 -93.207031 L 515.9375 -93.207031 L 515.9375 307.183594 L 188.664062 307.183594 Z M 188.664062 -93.207031 L 421.070312 139.425781 C 421.070312 151.261719 411.476562 160.855469 399.640625 160.855469 C 387.804688 160.855469 378.210938 151.261719 378.210938 139.425781 C 378.210938 127.59375 387.804688 117.996094 399.640625 117.996094 C 411.476562 117.996094 421.070312 127.59375 421.070312 139.425781 Z M 188.664062 -93.207031 "/>
</clipPath>
<clipPath id="clip12">
  <path d="M 188.664062 -93.207031 L 515.9375 -93.207031 L 515.9375 307.183594 L 188.664062 307.183594 Z M 188.664062 -93.207031 L 326.390625 74.550781 C 326.390625 86.382812 316.796875 95.976562 304.960938 95.976562 C 293.128906 95.976562 283.53125 86.382812 283.53125 74.550781 C 283.53125 62.714844 293.128906 53.121094 304.960938 53.121094 C 316.796875 53.121094 326.390625 62.714844 326.390625 74.550781 Z M 188.664062 -93.207031 "/>
</clipPath>
<clipPath id="clip13">
  <path d="M 404 471.078125 L 533 471.078125 L 533 580.046875 L 404 580.046875 Z M 404 471.078125 "/>
</clipPath>
<clipPath id="clip14">
  <path d="M 263.960938 471.078125 L 673.027344 471.078125 L 673.027344 580.046875 L 263.960938 580.046875 Z M 263.960938 471.078125 L 486.898438 494.625 C 486.898438 506.457031 477.304688 516.050781 465.472656 516.050781 C 453.636719 516.050781 444.042969 506.457031 444.042969 494.625 C 444.042969 482.789062 453.636719 473.195312 465.472656 473.195312 C 477.304688 473.195312 486.898438 482.789062 486.898438 494.625 Z M 263.960938 471.078125 "/>
</clipPath>
<clipPath id="clip15">
  <path d="M 263.960938 471.078125 L 673.027344 471.078125 L 673.027344 580.046875 L 263.960938 580.046875 Z M 263.960938 471.078125 L 492.945312 556.5 C 492.945312 568.335938 483.351562 577.929688 471.515625 577.929688 C 459.679688 577.929688 450.085938 568.335938 450.085938 556.5 C 450.085938 544.664062 459.679688 535.070312 471.515625 535.070312 C 483.351562 535.070312 492.945312 544.664062 492.945312 556.5 Z M 263.960938 471.078125 "/>
</clipPath>
<clipPath id="clip16">
  <path d="M 377 336.90625 L 527 336.90625 L 527 550.828125 L 377 550.828125 Z M 377 336.90625 "/>
</clipPath>
<clipPath id="clip17">
  <path d="M 242.386719 336.90625 L 661 336.90625 L 661 550.828125 L 242.386719 550.828125 Z M 242.386719 336.90625 L 486.898438 494.625 C 486.898438 506.457031 477.304688 516.050781 465.472656 516.050781 C 453.636719 516.050781 444.042969 506.457031 444.042969 494.625 C 444.042969 482.789062 453.636719 473.195312 465.472656 473.195312 C 477.304688 473.195312 486.898438 482.789062 486.898438 494.625 Z M 242.386719 336.90625 "/>
</clipPath>
<clipPath id="clip18">
  <path d="M 242.386719 336.90625 L 661 336.90625 L 661 550.828125 L 242.386719 550.828125 Z M 242.386719 336.90625 L 459.339844 393.109375 C 459.339844 404.941406 449.746094 414.535156 437.914062 414.535156 C 426.078125 414.535156 416.484375 404.941406 416.484375 393.109375 C 416.484375 381.273438 426.078125 371.679688 437.914062 371.679688 C 449.746094 371.679688 459.339844 381.273438 459.339844 393.109375 Z M 242.386719 336.90625 "/>
</clipPath>
<clipPath id="clip19">
  <path d="M 373 250.785156 L 499 250.785156 L 499 403.78125 L 373 403.78125 Z M 373 250.785156 "/>
</clipPath>
<clipPath id="clip20">
  <path d="M 231.320312 250.785156 L 640.261719 250.785156 L 640.261719 403.78125 L 231.320312 403.78125 Z M 231.320312 250.785156 L 455.097656 261.457031 C 455.097656 273.289062 445.503906 282.882812 433.667969 282.882812 C 421.835938 282.882812 412.242188 273.289062 412.242188 261.457031 C 412.242188 249.621094 421.835938 240.027344 433.667969 240.027344 C 445.503906 240.027344 455.097656 249.621094 455.097656 261.457031 Z M 231.320312 250.785156 "/>
</clipPath>
<clipPath id="clip21">
  <path d="M 231.320312 250.785156 L 640.261719 250.785156 L 640.261719 403.78125 L 231.320312 403.78125 Z M 231.320312 250.785156 L 459.339844 393.109375 C 459.339844 404.941406 449.746094 414.535156 437.914062 414.535156 C 426.078125 414.535156 416.484375 404.941406 416.484375 393.109375 C 416.484375 381.273438 426.078125 371.679688 437.914062 371.679688 C 449.746094 371.679688 459.339844 381.273438 459.339844 393.109375 Z M 231.320312 250.785156 "/>
</clipPath>
<clipPath id="clip22">
  <path d="M 267.605469 332 L 476.003906 332 L 476.003906 477 L 267.605469 477 Z M 267.605469 332 "/>
</clipPath>
<clipPath id="clip23">
  <path d="M 267.605469 193.5625 L 476.003906 193.5625 L 476.003906 615.546875 L 267.605469 615.546875 Z M 267.605469 193.5625 L 459.339844 393.109375 C 459.339844 404.941406 449.746094 414.535156 437.914062 414.535156 C 426.078125 414.535156 416.484375 404.941406 416.484375 393.109375 C 416.484375 381.273438 426.078125 371.679688 437.914062 371.679688 C 449.746094 371.679688 459.339844 381.273438 459.339844 393.109375 Z M 267.605469 193.5625 "/>
</clipPath>
<clipPath id="clip24">
  <path d="M 267.605469 193.5625 L 476.003906 193.5625 L 476.003906 615.546875 L 267.605469 615.546875 Z M 267.605469 193.5625 L 327.121094 416 C 327.121094 427.835938 317.527344 437.429688 305.695312 437.429688 C 293.859375 437.429688 284.265625 427.835938 284.265625 416 C 284.265625 404.164062 293.859375 394.570312 305.695312 394.570312 C 317.527344 394.570312 327.121094 404.164062 327.121094 416 Z M 267.605469 193.5625 "/>
</clipPath>
<clipPath id="clip25">
  <path d="M 428.3125 330 L 535.417969 330 L 535.417969 454 L 428.3125 454 Z M 428.3125 330 "/>
</clipPath>
<clipPath id="clip26">
  <path d="M 428.3125 188.371094 L 535.417969 188.371094 L 535.417969 595.488281 L 428.3125 595.488281 Z M 428.3125 188.371094 L 459.339844 393.109375 C 459.339844 404.941406 449.746094 414.535156 437.914062 414.535156 C 426.078125 414.535156 416.484375 404.941406 416.484375 393.109375 C 416.484375 381.273438 426.078125 371.679688 437.914062 371.679688 C 449.746094 371.679688 459.339844 381.273438 459.339844 393.109375 Z M 428.3125 188.371094 "/>
</clipPath>
<clipPath id="clip27">
  <path d="M 428.3125 188.371094 L 535.417969 188.371094 L 535.417969 595.488281 L 428.3125 595.488281 Z M 428.3125 188.371094 L 547.246094 390.75 C 547.246094 402.585938 537.652344 412.179688 525.816406 412.179688 C 513.980469 412.179688 504.386719 402.585938 504.386719 390.75 C 504.386719 378.914062 513.980469 369.320312 525.816406 369.320312 C 537.652344 369.320312 547.246094 378.914062 547.246094 390.75 Z M 428.3125 188.371094 "/>
</clipPath>
<clipPath id="clip28">
  <path d="M 181 0 L 366 0 L 366 136 L 181 136 Z M 181 0 "/>
</clipPath>
<clipPath id="clip29">
  <path d="M 150.058594 -138.476562 L 396.964844 -138.476562 L 396.964844 256.527344 L 150.058594 256.527344 Z M 150.058594 -138.476562 L 326.390625 74.550781 C 326.390625 86.382812 316.796875 95.976562 304.960938 95.976562 C 293.128906 95.976562 283.53125 86.382812 283.53125 74.550781 C 283.53125 62.714844 293.128906 53.121094 304.960938 53.121094 C 316.796875 53.121094 326.390625 62.714844 326.390625 74.550781 Z M 150.058594 -138.476562 "/>
</clipPath>
<clipPath id="clip30">
  <path d="M 150.058594 -138.476562 L 396.964844 -138.476562 L 396.964844 256.527344 L 150.058594 256.527344 Z M 150.058594 -138.476562 L 263.492188 43.5 C 263.492188 55.335938 253.898438 64.929688 242.0625 64.929688 C 230.226562 64.929688 220.632812 55.335938 220.632812 43.5 C 220.632812 31.664062 230.226562 22.070312 242.0625 22.070312 C 253.898438 22.070312 263.492188 31.664062 263.492188 43.5 Z M 150.058594 -138.476562 "/>
</clipPath>
<clipPath id="clip31">
  <path d="M 143.300781 339 L 333.925781 339 L 333.925781 477 L 143.300781 477 Z M 143.300781 339 "/>
</clipPath>
<clipPath id="clip32">
  <path d="M 143.300781 198.671875 L 333.925781 198.671875 L 333.925781 616.996094 L 143.300781 616.996094 Z M 143.300781 198.671875 L 327.121094 416 C 327.121094 427.835938 317.527344 437.429688 305.695312 437.429688 C 293.859375 437.429688 284.265625 427.835938 284.265625 416 C 284.265625 404.164062 293.859375 394.570312 305.695312 394.570312 C 317.527344 394.570312 327.121094 404.164062 327.121094 416 Z M 143.300781 198.671875 "/>
</clipPath>
<clipPath id="clip33">
  <path d="M 143.300781 198.671875 L 333.925781 198.671875 L 333.925781 616.996094 L 143.300781 616.996094 Z M 143.300781 198.671875 L 192.960938 399.667969 C 192.960938 411.503906 183.367188 421.097656 171.53125 421.097656 C 159.695312 421.097656 150.101562 411.503906 150.101562 399.667969 C 150.101562 387.835938 159.695312 378.242188 171.53125 378.242188 C 183.367188 378.242188 192.960938 387.835938 192.960938 399.667969 Z M 143.300781 198.671875 "/>
</clipPath>
<clipPath id="clip34">
  <path d="M 51 257 L 233 257 L 233 461 L 51 461 Z M 51 257 "/>
</clipPath>
<clipPath id="clip35">
  <path d="M -52.230469 197.386719 L 336.0625 197.386719 L 336.0625 520.53125 L -52.230469 520.53125 Z M -52.230469 197.386719 L 133.726562 318.25 C 133.726562 330.085938 124.132812 339.679688 112.300781 339.679688 C 100.464844 339.679688 90.871094 330.085938 90.871094 318.25 C 90.871094 306.414062 100.464844 296.820312 112.300781 296.820312 C 124.132812 296.820312 133.726562 306.414062 133.726562 318.25 Z M -52.230469 197.386719 "/>
</clipPath>
<clipPath id="clip36">
  <path d="M -52.230469 197.386719 L 336.0625 197.386719 L 336.0625 520.53125 L -52.230469 520.53125 Z M -52.230469 197.386719 L 192.960938 399.667969 C 192.960938 411.503906 183.367188 421.097656 171.53125 421.097656 C 159.695312 421.097656 150.101562 411.503906 150.101562 399.667969 C 150.101562 387.835938 159.695312 378.242188 171.53125 378.242188 C 183.367188 378.242188 192.960938 387.835938 192.960938 399.667969 Z M -52.230469 197.386719 "/>
</clipPath>
<clipPath id="clip37">
  <path d="M 29.855469 257 L 149.007812 257 L 149.007812 387 L 29.855469 387 Z M 29.855469 257 "/>
</clipPath>
<clipPath id="clip38">
  <path d="M 29.855469 118.472656 L 149.007812 118.472656 L 149.007812 525.613281 L 29.855469 525.613281 Z M 29.855469 118.472656 L 133.726562 318.25 C 133.726562 330.085938 124.132812 339.679688 112.300781 339.679688 C 100.464844 339.679688 90.871094 330.085938 90.871094 318.25 C 90.871094 306.414062 100.464844 296.820312 112.300781 296.820312 C 124.132812 296.820312 133.726562 306.414062 133.726562 318.25 Z M 29.855469 118.472656 "/>
</clipPath>
<clipPath id="clip39">
  <path d="M 29.855469 118.472656 L 149.007812 118.472656 L 149.007812 525.613281 L 29.855469 525.613281 Z M 29.855469 118.472656 L 87.992188 325.835938 C 87.992188 337.671875 78.394531 347.265625 66.5625 347.265625 C 54.726562 347.265625 45.132812 337.671875 45.132812 325.835938 C 45.132812 314.003906 54.726562 304.410156 66.5625 304.410156 C 78.394531 304.410156 87.992188 314.003906 87.992188 325.835938 Z M 29.855469 118.472656 "/>
</clipPath>
<clipPath id="clip40">
  <path d="M 43 337 L 192 337 L 192 510 L 43 510 Z M 43 337 "/>
</clipPath>
<clipPath id="clip41">
  <path d="M -75.625 301.917969 L 310.21875 301.917969 L 310.21875 545.503906 L -75.625 545.503906 Z M -75.625 301.917969 L 125.453125 398.488281 C 125.453125 410.324219 115.859375 419.917969 104.023438 419.917969 C 92.191406 419.917969 82.597656 410.324219 82.597656 398.488281 C 82.597656 386.652344 92.191406 377.058594 104.023438 377.058594 C 115.859375 377.058594 125.453125 386.652344 125.453125 398.488281 Z M -75.625 301.917969 "/>
</clipPath>
<clipPath id="clip42">
  <path d="M -75.625 301.917969 L 310.21875 301.917969 L 310.21875 545.503906 L -75.625 545.503906 Z M -75.625 301.917969 L 152 448.933594 C 152 460.769531 142.40625 470.363281 130.570312 470.363281 C 118.734375 470.363281 109.140625 460.769531 109.140625 448.933594 C 109.140625 437.097656 118.734375 427.503906 130.570312 427.503906 C 142.40625 427.503906 152 437.097656 152 448.933594 Z M -75.625 301.917969 "/>
</clipPath>
<clipPath id="clip43">
  <path d="M 96.277344 337 L 179.277344 337 L 179.277344 461 L 96.277344 461 Z M 96.277344 337 "/>
</clipPath>
<clipPath id="clip44">
  <path d="M 96.277344 196.070312 L 179.277344 196.070312 L 179.277344 602.085938 L 96.277344 602.085938 Z M 96.277344 196.070312 L 125.453125 398.488281 C 125.453125 410.324219 115.859375 419.917969 104.023438 419.917969 C 92.191406 419.917969 82.597656 410.324219 82.597656 398.488281 C 82.597656 386.652344 92.191406 377.058594 104.023438 377.058594 C 115.859375 377.058594 125.453125 386.652344 125.453125 398.488281 Z M 96.277344 196.070312 "/>
</clipPath>
<clipPath id="clip45">
  <path d="M 96.277344 196.070312 L 179.277344 196.070312 L 179.277344 602.085938 L 96.277344 602.085938 Z M 96.277344 196.070312 L 192.960938 399.667969 C 192.960938 411.503906 183.367188 421.097656 171.53125 421.097656 C 159.695312 421.097656 150.101562 411.503906 150.101562 399.667969 C 150.101562 387.835938 159.695312 378.242188 171.53125 378.242188 C 183.367188 378.242188 192.960938 387.835938 192.960938 399.667969 Z M 96.277344 196.070312 "/>
</clipPath>
<clipPath id="clip46">
  <path d="M 5 265 L 165 265 L 165 460 L 5 460 Z M 5 265 "/>
</clipPath>
<clipPath id="clip47">
  <path d="M -113.851562 230.734375 L 284.4375 230.734375 L 284.4375 493.589844 L -113.851562 493.589844 Z M -113.851562 230.734375 L 125.453125 398.488281 C 125.453125 410.324219 115.859375 419.917969 104.023438 419.917969 C 92.191406 419.917969 82.597656 410.324219 82.597656 398.488281 C 82.597656 386.652344 92.191406 377.058594 104.023438 377.058594 C 115.859375 377.058594 125.453125 386.652344 125.453125 398.488281 Z M -113.851562 230.734375 "/>
</clipPath>
<clipPath id="clip48">
  <path d="M -113.851562 230.734375 L 284.4375 230.734375 L 284.4375 493.589844 L -113.851562 493.589844 Z M -113.851562 230.734375 L 87.992188 325.835938 C 87.992188 337.671875 78.394531 347.265625 66.5625 347.265625 C 54.726562 347.265625 45.132812 337.671875 45.132812 325.835938 C 45.132812 314.003906 54.726562 304.410156 66.5625 304.410156 C 78.394531 304.410156 87.992188 314.003906 87.992188 325.835938 Z M -113.851562 230.734375 "/>
</clipPath>
<clipPath id="clip49">
  <path d="M 69 339 L 233 339 L 233 510 L 69 510 Z M 69 339 "/>
</clipPath>
<clipPath id="clip50">
  <path d="M -26.089844 268.691406 L 328.191406 268.691406 L 328.191406 579.910156 L -26.089844 579.910156 Z M -26.089844 268.691406 L 152 448.933594 C 152 460.769531 142.40625 470.363281 130.570312 470.363281 C 118.734375 470.363281 109.140625 460.769531 109.140625 448.933594 C 109.140625 437.097656 118.734375 427.503906 130.570312 427.503906 C 142.40625 427.503906 152 437.097656 152 448.933594 Z M -26.089844 268.691406 "/>
</clipPath>
<clipPath id="clip51">
  <path d="M -26.089844 268.691406 L 328.191406 268.691406 L 328.191406 579.910156 L -26.089844 579.910156 Z M -26.089844 268.691406 L 192.960938 399.667969 C 192.960938 411.503906 183.367188 421.097656 171.53125 421.097656 C 159.695312 421.097656 150.101562 411.503906 150.101562 399.667969 C 150.101562 387.835938 159.695312 378.242188 171.53125 378.242188 C 183.367188 378.242188 192.960938 387.835938 192.960938 399.667969 Z M -26.089844 268.691406 "/>
</clipPath>
</defs>
<g id="surface311">
<g clip-path="url(#clip1)" clip-rule="nonzero">
<g clip-path="url(#clip2)" clip-rule="evenodd">
<g clip-path="url(#clip3)" clip-rule="evenodd">
<path style="fill:none;stroke-width:0.021627;stroke-linecap:butt;stroke-linejoin:miter;stroke:rgb(17.96875%,20.3125%,21.09375%);stroke-opacity:0.8;stroke-miterlimit:10;" d="M 2.31975 0.411872 L 2.611312 0.374242 " transform="matrix(198.164724,0,0,198.164724,15.967507,22.358045)"/>
</g>
</g>
</g>
<g clip-path="url(#clip4)" clip-rule="nonzero">
<g clip-path="url(#clip5)" clip-rule="evenodd">
<g clip-path="url(#clip6)" clip-rule="evenodd">
<path style="fill:none;stroke-width:0.021627;stroke-linecap:butt;stroke-linejoin:miter;stroke:rgb(17.96875%,20.3125%,21.09375%);stroke-opacity:0.8;stroke-miterlimit:10;" d="M 2.31975 0.411872 L 1.936132 0.59076 " transform="matrix(198.164724,0,0,198.164724,15.967507,22.358045)"/>
</g>
</g>
</g>
<g clip-path="url(#clip7)" clip-rule="nonzero">
<g clip-path="url(#clip8)" clip-rule="evenodd">
<g clip-path="url(#clip9)" clip-rule="evenodd">
<path style="fill:none;stroke-width:0.021627;stroke-linecap:butt;stroke-linejoin:miter;stroke:rgb(17.96875%,20.3125%,21.09375%);stroke-opacity:0.8;stroke-miterlimit:10;" d="M 1.936132 0.59076 L 2.107845 1.206567 " transform="matrix(198.164724,0,0,198.164724,15.967507,22.358045)"/>
</g>
</g>
</g>
<g clip-path="url(#clip10)" clip-rule="nonzero">
<g clip-path="url(#clip11)" clip-rule="evenodd">
<g clip-path="url(#clip12)" clip-rule="evenodd">
<path style="fill:none;stroke-width:0.021627;stroke-linecap:butt;stroke-linejoin:miter;stroke:rgb(17.96875%,20.3125%,21.09375%);stroke-opacity:0.8;stroke-miterlimit:10;" d="M 1.936132 0.59076 L 1.45835 0.263381 " transform="matrix(198.164724,0,0,198.164724,15.967507,22.358045)"/>
</g>
</g>
</g>
<g clip-path="url(#clip13)" clip-rule="nonzero">
<g clip-path="url(#clip14)" clip-rule="evenodd">
<g clip-path="url(#clip15)" clip-rule="evenodd">
<path style="fill:none;stroke-width:0.021627;stroke-linecap:butt;stroke-linejoin:miter;stroke:rgb(17.96875%,20.3125%,21.09375%);stroke-opacity:0.8;stroke-miterlimit:10;" d="M 2.268341 2.383204 L 2.298836 2.695444 " transform="matrix(198.164724,0,0,198.164724,15.967507,22.358045)"/>
</g>
</g>
</g>
<g clip-path="url(#clip16)" clip-rule="nonzero">
<g clip-path="url(#clip17)" clip-rule="evenodd">
<g clip-path="url(#clip18)" clip-rule="evenodd">
<path style="fill:none;stroke-width:0.021627;stroke-linecap:butt;stroke-linejoin:miter;stroke:rgb(17.96875%,20.3125%,21.09375%);stroke-opacity:0.8;stroke-miterlimit:10;" d="M 2.268341 2.383204 L 2.129272 1.870925 " transform="matrix(198.164724,0,0,198.164724,15.967507,22.358045)"/>
</g>
</g>
</g>
<g clip-path="url(#clip19)" clip-rule="nonzero">
<g clip-path="url(#clip20)" clip-rule="evenodd">
<g clip-path="url(#clip21)" clip-rule="evenodd">
<path style="fill:none;stroke-width:0.021627;stroke-linecap:butt;stroke-linejoin:miter;stroke:rgb(17.96875%,20.3125%,21.09375%);stroke-opacity:0.8;stroke-miterlimit:10;" d="M 2.107845 1.206567 L 2.129272 1.870925 " transform="matrix(198.164724,0,0,198.164724,15.967507,22.358045)"/>
</g>
</g>
</g>
<g clip-path="url(#clip22)" clip-rule="nonzero">
<g clip-path="url(#clip23)" clip-rule="evenodd">
<g clip-path="url(#clip24)" clip-rule="evenodd">
<path style="fill:none;stroke-width:0.021627;stroke-linecap:butt;stroke-linejoin:miter;stroke:rgb(17.96875%,20.3125%,21.09375%);stroke-opacity:0.8;stroke-miterlimit:10;" d="M 2.129272 1.870925 L 1.462055 1.986438 " transform="matrix(198.164724,0,0,198.164724,15.967507,22.358045)"/>
</g>
</g>
</g>
<g clip-path="url(#clip25)" clip-rule="nonzero">
<g clip-path="url(#clip26)" clip-rule="evenodd">
<g clip-path="url(#clip27)" clip-rule="evenodd">
<path style="fill:none;stroke-width:0.021627;stroke-linecap:butt;stroke-linejoin:miter;stroke:rgb(17.96875%,20.3125%,21.09375%);stroke-opacity:0.8;stroke-miterlimit:10;" d="M 2.129272 1.870925 L 2.572854 1.859019 " transform="matrix(198.164724,0,0,198.164724,15.967507,22.358045)"/>
</g>
</g>
</g>
<g clip-path="url(#clip28)" clip-rule="nonzero">
<g clip-path="url(#clip29)" clip-rule="evenodd">
<g clip-path="url(#clip30)" clip-rule="evenodd">
<path style="fill:none;stroke-width:0.021627;stroke-linecap:butt;stroke-linejoin:miter;stroke:rgb(17.96875%,20.3125%,21.09375%);stroke-opacity:0.8;stroke-miterlimit:10;" d="M 1.45835 0.263381 L 1.140945 0.106689 " transform="matrix(198.164724,0,0,198.164724,15.967507,22.358045)"/>
</g>
</g>
</g>
<g clip-path="url(#clip31)" clip-rule="nonzero">
<g clip-path="url(#clip32)" clip-rule="evenodd">
<g clip-path="url(#clip33)" clip-rule="evenodd">
<path style="fill:none;stroke-width:0.021627;stroke-linecap:butt;stroke-linejoin:miter;stroke:rgb(17.96875%,20.3125%,21.09375%);stroke-opacity:0.8;stroke-miterlimit:10;" d="M 1.462055 1.986438 L 0.785022 1.904022 " transform="matrix(198.164724,0,0,198.164724,15.967507,22.358045)"/>
</g>
</g>
</g>
<g clip-path="url(#clip34)" clip-rule="nonzero">
<g clip-path="url(#clip35)" clip-rule="evenodd">
<g clip-path="url(#clip36)" clip-rule="evenodd">
<path style="fill:none;stroke-width:0.021627;stroke-linecap:butt;stroke-linejoin:miter;stroke:rgb(17.96875%,20.3125%,21.09375%);stroke-opacity:0.8;stroke-miterlimit:10;" d="M 0.486127 1.493162 L 0.785022 1.904022 " transform="matrix(198.164724,0,0,198.164724,15.967507,22.358045)"/>
</g>
</g>
</g>
<g clip-path="url(#clip37)" clip-rule="nonzero">
<g clip-path="url(#clip38)" clip-rule="evenodd">
<g clip-path="url(#clip39)" clip-rule="evenodd">
<path style="fill:none;stroke-width:0.021627;stroke-linecap:butt;stroke-linejoin:miter;stroke:rgb(17.96875%,20.3125%,21.09375%);stroke-opacity:0.8;stroke-miterlimit:10;" d="M 0.486127 1.493162 L 0.255318 1.531443 " transform="matrix(198.164724,0,0,198.164724,15.967507,22.358045)"/>
</g>
</g>
</g>
<g clip-path="url(#clip40)" clip-rule="nonzero">
<g clip-path="url(#clip41)" clip-rule="evenodd">
<g clip-path="url(#clip42)" clip-rule="evenodd">
<path style="fill:none;stroke-width:0.021627;stroke-linecap:butt;stroke-linejoin:miter;stroke:rgb(17.96875%,20.3125%,21.09375%);stroke-opacity:0.8;stroke-miterlimit:10;" d="M 0.444357 1.898069 L 0.578321 2.152631 " transform="matrix(198.164724,0,0,198.164724,15.967507,22.358045)"/>
</g>
</g>
</g>
<g clip-path="url(#clip43)" clip-rule="nonzero">
<g clip-path="url(#clip44)" clip-rule="evenodd">
<g clip-path="url(#clip45)" clip-rule="evenodd">
<path style="fill:none;stroke-width:0.021627;stroke-linecap:butt;stroke-linejoin:miter;stroke:rgb(17.96875%,20.3125%,21.09375%);stroke-opacity:0.8;stroke-miterlimit:10;" d="M 0.444357 1.898069 L 0.785022 1.904022 " transform="matrix(198.164724,0,0,198.164724,15.967507,22.358045)"/>
</g>
</g>
</g>
<g clip-path="url(#clip46)" clip-rule="nonzero">
<g clip-path="url(#clip47)" clip-rule="evenodd">
<g clip-path="url(#clip48)" clip-rule="evenodd">
<path style="fill:none;stroke-width:0.021627;stroke-linecap:butt;stroke-linejoin:miter;stroke:rgb(17.96875%,20.3125%,21.09375%);stroke-opacity:0.8;stroke-miterlimit:10;" d="M 0.444357 1.898069 L 0.255318 1.531443 " transform="matrix(198.164724,0,0,198.164724,15.967507,22.358045)"/>
</g>
</g>
</g>
<g clip-path="url(#clip49)" clip-rule="nonzero">
<g clip-path="url(#clip50)" clip-rule="evenodd">
<g clip-path="url(#clip51)" clip-rule="evenodd">
<path style="fill:none;stroke-width:0.021627;stroke-linecap:butt;stroke-linejoin:miter;stroke:rgb(17.96875%,20.3125%,21.09375%);stroke-opacity:0.8;stroke-miterlimit:10;" d="M 0.578321 2.152631 L 0.785022 1.904022 " transform="matrix(198.164724,0,0,198.164724,15.967507,22.358045)"/>
</g>
</g>
</g>
<path style="fill-rule:nonzero;fill:rgb(55.294118%,82.745098%,78.039216%);fill-opacity:1;stroke-width:0.021627;stroke-linecap:butt;stroke-linejoin:miter;stroke:rgb(60%,60%,60%);stroke-opacity:0.8;stroke-miterlimit:10;" d="M 0.108135 -0.00000226655 C 0.108135 0.0597255 0.0597218 0.108139 -0.00000594482 0.108139 C -0.059714 0.108139 -0.108127 0.0597255 -0.108127 -0.00000226655 C -0.108127 -0.05973 -0.059714 -0.108143 -0.00000594482 -0.108143 C 0.0597218 -0.108143 0.108135 -0.05973 0.108135 -0.00000226655 Z M 0.108135 -0.00000226655 " transform="matrix(198.164724,0,0,198.164724,475.661334,103.977012)"/>
<path style="fill-rule:nonzero;fill:rgb(55.294118%,82.745098%,78.039216%);fill-opacity:1;stroke-width:0.021627;stroke-linecap:butt;stroke-linejoin:miter;stroke:rgb(60%,60%,60%);stroke-opacity:0.8;stroke-miterlimit:10;" d="M 0.108137 0.00000745986 C 0.108137 0.0597155 0.0597238 0.108129 -0.00000401085 0.108129 C -0.0597121 0.108129 -0.108145 0.0597155 -0.108145 0.00000745986 C -0.108145 -0.0597203 -0.0597121 -0.108133 -0.00000401085 -0.108133 C 0.0597238 -0.108133 0.108137 -0.0597203 0.108137 0.00000745986 Z M 0.108137 0.00000745986 " transform="matrix(198.164724,0,0,198.164724,533.438295,96.518053)"/>
<path style="fill-rule:nonzero;fill:rgb(100%,92.941176%,43.529412%);fill-opacity:1;stroke-width:0.021627;stroke-linecap:butt;stroke-linejoin:miter;stroke:rgb(60%,60%,60%);stroke-opacity:0.8;stroke-miterlimit:10;" d="M 0.10814 -0.00000406304 C 0.10814 0.0597237 0.0597269 0.108137 -0.000000878149 0.108137 C -0.0597287 0.108137 -0.108142 0.0597237 -0.108142 -0.00000406304 C -0.108142 -0.0597121 -0.0597287 -0.108145 -0.000000878149 -0.108145 C 0.0597269 -0.108145 0.10814 -0.0597121 0.10814 -0.00000406304 Z M 0.10814 -0.00000406304 " transform="matrix(198.164724,0,0,198.164724,399.640799,139.426586)"/>
<path style="fill-rule:nonzero;fill:rgb(100%,92.941176%,43.529412%);fill-opacity:1;stroke-width:0.021627;stroke-linecap:butt;stroke-linejoin:miter;stroke:rgb(60%,60%,60%);stroke-opacity:0.8;stroke-miterlimit:10;" d="M 0.10813 0.00000513296 C 0.10813 0.0597132 0.059717 0.108126 0.00000898834 0.108126 C -0.0597188 0.108126 -0.108132 0.0597132 -0.108132 0.00000513296 C -0.108132 -0.0597226 -0.0597188 -0.108136 0.00000898834 -0.108136 C 0.059717 -0.108136 0.10813 -0.0597226 0.10813 0.00000513296 Z M 0.10813 0.00000513296 " transform="matrix(198.164724,0,0,198.164724,465.470875,494.623983)"/>
<path style="fill-rule:nonzero;fill:rgb(100%,92.941176%,43.529412%);fill-opacity:1;stroke-width:0.021627;stroke-linecap:butt;stroke-linejoin:miter;stroke:rgb(60%,60%,60%);stroke-opacity:0.8;stroke-miterlimit:10;" d="M 0.108141 0 C 0.108141 0.0597278 0.0597275 0.108141 -0.000000263436 0.108141 C -0.059728 0.108141 -0.108141 0.0597278 -0.108141 0 C -0.108141 -0.0597278 -0.059728 -0.108141 -0.000000263436 -0.108141 C 0.0597275 -0.108141 0.108141 -0.0597278 0.108141 0 Z M 0.108141 0 " transform="matrix(198.164724,0,0,198.164724,471.515677,556.5)"/>
<path style="fill-rule:nonzero;fill:rgb(100%,92.941176%,43.529412%);fill-opacity:1;stroke-width:0.021627;stroke-linecap:butt;stroke-linejoin:miter;stroke:rgb(60%,60%,60%);stroke-opacity:0.8;stroke-miterlimit:10;" d="M 0.108136 0.00000945413 C 0.108136 0.0597175 0.059723 0.108131 -0.00000475364 0.108131 C -0.0597128 0.108131 -0.108126 0.0597175 -0.108126 0.00000945413 C -0.108126 -0.0597183 -0.0597128 -0.108131 -0.00000475364 -0.108131 C 0.059723 -0.108131 0.108136 -0.0597183 0.108136 0.00000945413 Z M 0.108136 0.00000945413 " transform="matrix(198.164724,0,0,198.164724,433.668911,261.455158)"/>
<path style="fill-rule:nonzero;fill:rgb(100%,92.941176%,43.529412%);fill-opacity:1;stroke-width:0.021627;stroke-linecap:butt;stroke-linejoin:miter;stroke:rgb(60%,60%,60%);stroke-opacity:0.8;stroke-miterlimit:10;" d="M 0.108131 0.00000661445 C 0.108131 0.0597147 0.0597179 0.108128 0.00000979031 0.108128 C -0.059718 0.108128 -0.108131 0.0597147 -0.108131 0.00000661445 C -0.108131 -0.0597212 -0.059718 -0.108134 0.00000979031 -0.108134 C 0.0597179 -0.108134 0.108131 -0.0597212 0.108131 0.00000661445 Z M 0.108131 0.00000661445 " transform="matrix(198.164724,0,0,198.164724,437.912122,393.108064)"/>
<path style="fill-rule:nonzero;fill:rgb(100%,92.941176%,43.529412%);fill-opacity:1;stroke-width:0.021627;stroke-linecap:butt;stroke-linejoin:miter;stroke:rgb(60%,60%,60%);stroke-opacity:0.8;stroke-miterlimit:10;" d="M 0.108137 0.00000703912 C 0.108137 0.0597151 0.0597236 0.108128 -0.00000418974 0.108128 C -0.0597122 0.108128 -0.108145 0.0597151 -0.108145 0.00000703912 C -0.108145 -0.0597207 -0.0597122 -0.108134 -0.00000418974 -0.108134 C 0.0597236 -0.108134 0.108137 -0.0597207 0.108137 0.00000703912 Z M 0.108137 0.00000703912 " transform="matrix(198.164724,0,0,198.164724,304.961768,74.549386)"/>
<path style="fill-rule:nonzero;fill:rgb(100%,92.941176%,43.529412%);fill-opacity:1;stroke-width:0.021627;stroke-linecap:butt;stroke-linejoin:miter;stroke:rgb(60%,60%,60%);stroke-opacity:0.8;stroke-miterlimit:10;" d="M 0.108143 0 C 0.108143 0.0597278 0.0597297 0.108141 0.00000193423 0.108141 C -0.0597258 0.108141 -0.108139 0.0597278 -0.108139 0 C -0.108139 -0.0597278 -0.0597258 -0.108141 0.00000193423 -0.108141 C 0.0597297 -0.108141 0.108143 -0.0597278 0.108143 0 Z M 0.108143 0 " transform="matrix(198.164724,0,0,198.164724,242.062117,43.5)"/>
<path style="fill-rule:nonzero;fill:rgb(100%,92.941176%,43.529412%);fill-opacity:1;stroke-width:0.021627;stroke-linecap:butt;stroke-linejoin:miter;stroke:rgb(60%,60%,60%);stroke-opacity:0.8;stroke-miterlimit:10;" d="M 0.10813 0.00000269107 C 0.10813 0.0597305 0.0597167 0.108143 0.00000865819 0.108143 C -0.0597191 0.108143 -0.108132 0.0597305 -0.108132 0.00000269107 C -0.108132 -0.0597251 -0.0597191 -0.108138 0.00000865819 -0.108138 C 0.0597167 -0.108138 0.10813 -0.0597251 0.10813 0.00000269107 Z M 0.10813 0.00000269107 " transform="matrix(198.164724,0,0,198.164724,305.693597,415.999467)"/>
<path style="fill-rule:nonzero;fill:rgb(100%,92.941176%,43.529412%);fill-opacity:1;stroke-width:0.021627;stroke-linecap:butt;stroke-linejoin:miter;stroke:rgb(60%,60%,60%);stroke-opacity:0.8;stroke-miterlimit:10;" d="M 0.10813 0.000000128997 C 0.10813 0.0597279 0.0597172 0.108141 0.00000915595 0.108141 C -0.0597186 0.108141 -0.108132 0.0597279 -0.108132 0.000000128997 C -0.108132 -0.0597276 -0.0597186 -0.108141 0.00000915595 -0.108141 C 0.0597172 -0.108141 0.10813 -0.0597276 0.10813 0.000000128997 Z M 0.10813 0.000000128997 " transform="matrix(198.164724,0,0,198.164724,112.298967,318.249974)"/>
<path style="fill-rule:nonzero;fill:rgb(100%,92.941176%,43.529412%);fill-opacity:1;stroke-width:0.021627;stroke-linecap:butt;stroke-linejoin:miter;stroke:rgb(60%,60%,60%);stroke-opacity:0.8;stroke-miterlimit:10;" d="M 0.108136 0.00000311047 C 0.108136 0.0597309 0.0597231 0.108144 -0.00000469682 0.108144 C -0.0597128 0.108144 -0.108126 0.0597309 -0.108126 0.00000311047 C -0.108126 -0.0597247 -0.0597128 -0.108138 -0.00000469682 -0.108138 C 0.0597231 -0.108138 0.108136 -0.0597247 0.108136 0.00000311047 Z M 0.108136 0.00000311047 " transform="matrix(198.164724,0,0,198.164724,104.024368,398.487665)"/>
<path style="fill-rule:nonzero;fill:rgb(100%,92.941176%,43.529412%);fill-opacity:1;stroke-width:0.021627;stroke-linecap:butt;stroke-linejoin:miter;stroke:rgb(60%,60%,60%);stroke-opacity:0.8;stroke-miterlimit:10;" d="M 0.108141 -0.0000000774035 C 0.108141 0.0597277 0.0597283 0.108141 0.000000535944 0.108141 C -0.0597272 0.108141 -0.10814 0.0597277 -0.10814 -0.0000000774035 C -0.10814 -0.0597278 -0.0597272 -0.108141 0.000000535944 -0.108141 C 0.0597283 -0.108141 0.108141 -0.0597278 0.108141 -0.0000000774035 Z M 0.108141 -0.0000000774035 " transform="matrix(198.164724,0,0,198.164724,130.570206,448.933609)"/>
<path style="fill-rule:nonzero;fill:rgb(100%,92.941176%,43.529412%);fill-opacity:1;stroke-width:0.021627;stroke-linecap:butt;stroke-linejoin:miter;stroke:rgb(60%,60%,60%);stroke-opacity:0.8;stroke-miterlimit:10;" d="M 0.108142 -0.00000673039 C 0.108142 0.059721 0.0597289 0.108134 0.00000113019 0.108134 C -0.0597266 0.108134 -0.10814 0.059721 -0.10814 -0.00000673039 C -0.10814 -0.0597148 -0.0597266 -0.108128 0.00000113019 -0.108128 C 0.0597289 -0.108128 0.108142 -0.0597148 0.108142 -0.00000673039 Z M 0.108142 -0.00000673039 " transform="matrix(198.164724,0,0,198.164724,171.531026,399.669302)"/>
<path style="fill-rule:nonzero;fill:rgb(100%,92.941176%,43.529412%);fill-opacity:1;stroke-width:0.021627;stroke-linecap:butt;stroke-linejoin:miter;stroke:rgb(60%,60%,60%);stroke-opacity:0.8;stroke-miterlimit:10;" d="M 0.108145 -0.00000437293 C 0.108145 0.0597234 0.0597121 0.108136 0.00000401085 0.108136 C -0.0597238 0.108136 -0.108137 0.0597234 -0.108137 -0.00000437293 C -0.108137 -0.0597124 -0.0597238 -0.108125 0.00000401085 -0.108125 C 0.0597121 -0.108125 0.108145 -0.0597124 0.108145 -0.00000437293 Z M 0.108145 -0.00000437293 " transform="matrix(198.164724,0,0,198.164724,66.561705,325.836804)"/>
<path style="fill-rule:nonzero;fill:rgb(100%,92.941176%,43.529412%);fill-opacity:1;stroke-width:0.021627;stroke-linecap:butt;stroke-linejoin:miter;stroke:rgb(60%,60%,60%);stroke-opacity:0.8;stroke-miterlimit:10;" d="M 0.108141 0.00000219969 C 0.108141 0.05973 0.0597284 0.108143 0.000000611154 0.108143 C -0.0597272 0.108143 -0.10814 0.05973 -0.10814 0.00000219969 C -0.10814 -0.0597256 -0.0597272 -0.108139 0.000000611154 -0.108139 C 0.0597284 -0.108139 0.108141 -0.0597256 0.108141 0.00000219969 Z M 0.108141 0.00000219969 " transform="matrix(198.164724,0,0,198.164724,525.816285,390.749564)"/>
</g>
</svg>
