<?xml version="1.0" encoding="UTF-8"?>
<svg xmlns="http://www.w3.org/2000/svg" xmlns:xlink="http://www.w3.org/1999/xlink" width="600pt" height="600pt" viewBox="0 0 600 600" version="1.1">
<defs>
<clipPath id="clip1">
  <path d="M 91 431.109375 L 224 431.109375 L 224 568.710938 L 91 568.710938 Z M 91 431.109375 "/>
</clipPath>
<clipPath id="clip2">
  <path d="M -44.34375 431.109375 L 358.75 431.109375 L 358.75 568.710938 L -44.34375 568.710938 Z M -44.34375 431.109375 L 173.226562 465.617188 C 173.226562 477.453125 163.632812 487.046875 151.800781 487.046875 C 139.964844 487.046875 130.371094 477.453125 130.371094 465.617188 C 130.371094 453.78125 139.964844 444.1875 151.800781 444.1875 C 163.632812 444.1875 173.226562 453.78125 173.226562 465.617188 Z M -44.34375 431.109375 "/>
</clipPath>
<clipPath id="clip3">
  <path d="M -44.34375 431.109375 L 358.75 431.109375 L 358.75 568.710938 L -44.34375 568.710938 Z M -44.34375 431.109375 L 184.035156 534.203125 C 184.035156 546.039062 174.441406 555.632812 162.605469 555.632812 C 150.769531 555.632812 141.175781 546.039062 141.175781 534.203125 C 141.175781 522.367188 150.769531 512.773438 162.605469 512.773438 C 174.441406 512.773438 184.035156 522.367188 184.035156 534.203125 Z M -44.34375 431.109375 "/>
</clipPath>
<clipPath id="clip4">
  <path d="M 90 346.378906 L 213 346.378906 L 213 471.144531 L 90 471.144531 Z M 90 346.378906 "/>
</clipPath>
<clipPath id="clip5">
  <path d="M -47.429688 346.378906 L 350.304688 346.378906 L 350.304688 471.144531 L -47.429688 471.144531 Z M -47.429688 346.378906 L 173.226562 465.617188 C 173.226562 477.453125 163.632812 487.046875 151.800781 487.046875 C 139.964844 487.046875 130.371094 477.453125 130.371094 465.617188 C 130.371094 453.78125 139.964844 444.1875 151.800781 444.1875 C 163.632812 444.1875 173.226562 453.78125 173.226562 465.617188 Z M -47.429688 346.378906 "/>
</clipPath>
<clipPath id="clip6">
  <path d="M -47.429688 346.378906 L 350.304688 346.378906 L 350.304688 471.144531 L -47.429688 471.144531 Z M -47.429688 346.378906 L 172.5 351.90625 C 172.5 363.738281 162.90625 373.332031 151.074219 373.332031 C 139.238281 373.332031 129.644531 363.738281 129.644531 351.90625 C 129.644531 340.070312 139.238281 330.476562 151.074219 330.476562 C 162.90625 330.476562 172.5 340.070312 172.5 351.90625 Z M -47.429688 346.378906 "/>
</clipPath>
<clipPath id="clip7">
  <path d="M 90 194 L 291 194 L 291 413 L 90 413 Z M 90 194 "/>
</clipPath>
<clipPath id="clip8">
  <path d="M -3.230469 127.890625 L 384.625 127.890625 L 384.625 479.546875 L -3.230469 479.546875 Z M -3.230469 127.890625 L 172.5 351.90625 C 172.5 363.738281 162.90625 373.332031 151.074219 373.332031 C 139.238281 373.332031 129.644531 363.738281 129.644531 351.90625 C 129.644531 340.070312 139.238281 330.476562 151.074219 330.476562 C 162.90625 330.476562 172.5 340.070312 172.5 351.90625 Z M -3.230469 127.890625 "/>
</clipPath>
<clipPath id="clip9">
  <path d="M -3.230469 127.890625 L 384.625 127.890625 L 384.625 479.546875 L -3.230469 479.546875 Z M -3.230469 127.890625 L 251.75 255.53125 C 251.75 267.367188 242.15625 276.960938 230.320312 276.960938 C 218.484375 276.960938 208.890625 267.367188 208.890625 255.53125 C 208.890625 243.695312 218.484375 234.101562 230.320312 234.101562 C 242.15625 234.101562 251.75 243.695312 251.75 255.53125 Z M -3.230469 127.890625 "/>
</clipPath>
<clipPath id="clip10">
  <path d="M 20 248 L 212 248 L 212 413 L 20 413 Z M 20 248 "/>
</clipPath>
<clipPath id="clip11">
  <path d="M -23.855469 138.957031 L 255.785156 138.957031 L 255.785156 522.4375 L -23.855469 522.4375 Z M -23.855469 138.957031 L 172.5 351.90625 C 172.5 363.738281 162.90625 373.332031 151.074219 373.332031 C 139.238281 373.332031 129.644531 363.738281 129.644531 351.90625 C 129.644531 340.070312 139.238281 330.476562 151.074219 330.476562 C 162.90625 330.476562 172.5 340.070312 172.5 351.90625 Z M -23.855469 138.957031 "/>
</clipPath>
<clipPath id="clip12">
  <path d="M -23.855469 138.957031 L 255.785156 138.957031 L 255.785156 522.4375 L -23.855469 522.4375 Z M -23.855469 138.957031 L 102.28125 309.488281 C 102.28125 321.324219 92.6875 330.917969 80.855469 330.917969 C 69.019531 330.917969 59.425781 321.324219 59.425781 309.488281 C 59.425781 297.652344 69.019531 288.058594 80.855469 288.058594 C 92.6875 288.058594 102.28125 297.652344 102.28125 309.488281 Z M -23.855469 138.957031 "/>
</clipPath>
<clipPath id="clip13">
  <path d="M 344 5 L 515 5 L 515 165 L 344 165 Z M 344 5 "/>
</clipPath>
<clipPath id="clip14">
  <path d="M 282.292969 -92.128906 L 577.214844 -92.128906 L 577.214844 261.398438 L 282.292969 261.398438 Z M 282.292969 -92.128906 L 426.824219 103.472656 C 426.824219 115.304688 417.230469 124.898438 405.394531 124.898438 C 393.5625 124.898438 383.96875 115.304688 383.96875 103.472656 C 383.96875 91.636719 393.5625 82.042969 405.394531 82.042969 C 417.230469 82.042969 426.824219 91.636719 426.824219 103.472656 Z M 282.292969 -92.128906 "/>
</clipPath>
<clipPath id="clip15">
  <path d="M 282.292969 -92.128906 L 577.214844 -92.128906 L 577.214844 261.398438 L 282.292969 261.398438 Z M 282.292969 -92.128906 L 475.542969 65.796875 C 475.542969 77.632812 465.949219 87.226562 454.113281 87.226562 C 442.28125 87.226562 432.6875 77.632812 432.6875 65.796875 C 432.6875 53.960938 442.28125 44.367188 454.113281 44.367188 C 465.949219 44.367188 475.542969 53.960938 475.542969 65.796875 Z M 282.292969 -92.128906 "/>
</clipPath>
<clipPath id="clip16">
  <path d="M 273 42 L 467 42 L 467 242 L 273 242 Z M 273 42 "/>
</clipPath>
<clipPath id="clip17">
  <path d="M 187.046875 -32.074219 L 552.835938 -32.074219 L 552.835938 316.351562 L 187.046875 316.351562 Z M 187.046875 -32.074219 L 426.824219 103.472656 C 426.824219 115.304688 417.230469 124.898438 405.394531 124.898438 C 393.5625 124.898438 383.96875 115.304688 383.96875 103.472656 C 383.96875 91.636719 393.5625 82.042969 405.394531 82.042969 C 417.230469 82.042969 426.824219 91.636719 426.824219 103.472656 Z M 187.046875 -32.074219 "/>
</clipPath>
<clipPath id="clip18">
  <path d="M 187.046875 -32.074219 L 552.835938 -32.074219 L 552.835938 316.351562 L 187.046875 316.351562 Z M 187.046875 -32.074219 L 355.917969 180.804688 C 355.917969 192.636719 346.324219 202.230469 334.488281 202.230469 C 322.652344 202.230469 313.058594 192.636719 313.058594 180.804688 C 313.058594 168.96875 322.652344 159.375 334.488281 159.375 C 346.324219 159.375 355.917969 168.96875 355.917969 180.804688 Z M 187.046875 -32.074219 "/>
</clipPath>
<clipPath id="clip19">
  <path d="M 169 120 L 396 120 L 396 317 L 169 317 Z M 169 120 "/>
</clipPath>
<clipPath id="clip20">
  <path d="M 112.824219 18.703125 L 451.984375 18.703125 L 451.984375 417.632812 L 112.824219 417.632812 Z M 112.824219 18.703125 L 251.75 255.53125 C 251.75 267.367188 242.15625 276.960938 230.320312 276.960938 C 218.484375 276.960938 208.890625 267.367188 208.890625 255.53125 C 208.890625 243.695312 218.484375 234.101562 230.320312 234.101562 C 242.15625 234.101562 251.75 243.695312 251.75 255.53125 Z M 112.824219 18.703125 "/>
</clipPath>
<clipPath id="clip21">
  <path d="M 112.824219 18.703125 L 451.984375 18.703125 L 451.984375 417.632812 L 112.824219 417.632812 Z M 112.824219 18.703125 L 355.917969 180.804688 C 355.917969 192.636719 346.324219 202.230469 334.488281 202.230469 C 322.652344 202.230469 313.058594 192.636719 313.058594 180.804688 C 313.058594 168.96875 322.652344 159.375 334.488281 159.375 C 346.324219 159.375 355.917969 168.96875 355.917969 180.804688 Z M 112.824219 18.703125 "/>
</clipPath>
<clipPath id="clip22">
  <path d="M 273 120 L 479 120 L 479 342 L 273 342 Z M 273 120 "/>
</clipPath>
<clipPath id="clip23">
  <path d="M 180.875 52.324219 L 571.714844 52.324219 L 571.714844 409.820312 L 180.875 409.820312 Z M 180.875 52.324219 L 355.917969 180.804688 C 355.917969 192.636719 346.324219 202.230469 334.488281 202.230469 C 322.652344 202.230469 313.058594 192.636719 313.058594 180.804688 C 313.058594 168.96875 322.652344 159.375 334.488281 159.375 C 346.324219 159.375 355.917969 168.96875 355.917969 180.804688 Z M 180.875 52.324219 "/>
</clipPath>
<clipPath id="clip24">
  <path d="M 180.875 52.324219 L 571.714844 52.324219 L 571.714844 409.820312 L 180.875 409.820312 Z M 180.875 52.324219 L 439.53125 281.339844 C 439.53125 293.171875 429.9375 302.765625 418.101562 302.765625 C 406.265625 302.765625 396.671875 293.171875 396.671875 281.339844 C 396.671875 269.503906 406.265625 259.910156 418.101562 259.910156 C 429.9375 259.910156 439.53125 269.503906 439.53125 281.339844 Z M 180.875 52.324219 "/>
</clipPath>
<clipPath id="clip25">
  <path d="M 226 48 L 396 48 L 396 242 L 226 242 Z M 226 48 "/>
</clipPath>
<clipPath id="clip26">
  <path d="M 120.492188 -2.515625 L 500.929688 -2.515625 L 500.929688 291.992188 L 120.492188 291.992188 Z M 120.492188 -2.515625 L 355.917969 180.804688 C 355.917969 192.636719 346.324219 202.230469 334.488281 202.230469 C 322.652344 202.230469 313.058594 192.636719 313.058594 180.804688 C 313.058594 168.96875 322.652344 159.375 334.488281 159.375 C 346.324219 159.375 355.917969 168.96875 355.917969 180.804688 Z M 120.492188 -2.515625 "/>
</clipPath>
<clipPath id="clip27">
  <path d="M 120.492188 -2.515625 L 500.929688 -2.515625 L 500.929688 291.992188 L 120.492188 291.992188 Z M 120.492188 -2.515625 L 308.359375 108.671875 C 308.359375 120.503906 298.765625 130.097656 286.933594 130.097656 C 275.097656 130.097656 265.503906 120.503906 265.503906 108.671875 C 265.503906 96.835938 275.097656 87.242188 286.933594 87.242188 C 298.765625 87.242188 308.359375 96.835938 308.359375 108.671875 Z M 120.492188 -2.515625 "/>
</clipPath>
<clipPath id="clip28">
  <path d="M 0 205 L 142 205 L 142 371 L 0 371 Z M 0 205 "/>
</clipPath>
<clipPath id="clip29">
  <path d="M -107.921875 135.066406 L 232.277344 135.066406 L 232.277344 440.558594 L -107.921875 440.558594 Z M -107.921875 135.066406 L 102.28125 309.488281 C 102.28125 321.324219 92.6875 330.917969 80.855469 330.917969 C 69.019531 330.917969 59.425781 321.324219 59.425781 309.488281 C 59.425781 297.652344 69.019531 288.058594 80.855469 288.058594 C 92.6875 288.058594 102.28125 297.652344 102.28125 309.488281 Z M -107.921875 135.066406 "/>
</clipPath>
<clipPath id="clip30">
  <path d="M -107.921875 135.066406 L 232.277344 135.066406 L 232.277344 440.558594 L -107.921875 440.558594 Z M -107.921875 135.066406 L 64.929688 266.136719 C 64.929688 277.972656 55.335938 287.566406 43.5 287.566406 C 31.664062 287.566406 22.070312 277.972656 22.070312 266.136719 C 22.070312 254.304688 31.664062 244.710938 43.5 244.710938 C 55.335938 244.710938 64.929688 254.304688 64.929688 266.136719 Z M -107.921875 135.066406 "/>
</clipPath>
<clipPath id="clip31">
  <path d="M 357 220 L 535 220 L 535 465 L 357 465 Z M 357 220 "/>
</clipPath>
<clipPath id="clip32">
  <path d="M 236.691406 197.367188 L 654.832031 197.367188 L 654.832031 488.273438 L 236.691406 488.273438 Z M 236.691406 197.367188 L 439.53125 281.339844 C 439.53125 293.171875 429.9375 302.765625 418.101562 302.765625 C 406.265625 302.765625 396.671875 293.171875 396.671875 281.339844 C 396.671875 269.503906 406.265625 259.910156 418.101562 259.910156 C 429.9375 259.910156 439.53125 269.503906 439.53125 281.339844 Z M 236.691406 197.367188 "/>
</clipPath>
<clipPath id="clip33">
  <path d="M 236.691406 197.367188 L 654.832031 197.367188 L 654.832031 488.273438 L 236.691406 488.273438 Z M 236.691406 197.367188 L 494.847656 404.300781 C 494.847656 416.136719 485.253906 425.730469 473.421875 425.730469 C 461.585938 425.730469 451.992188 416.136719 451.992188 404.300781 C 451.992188 392.46875 461.585938 382.875 473.421875 382.875 C 485.253906 382.875 494.847656 392.46875 494.847656 404.300781 Z M 236.691406 197.367188 "/>
</clipPath>
<clipPath id="clip34">
  <path d="M 463.5625 343 L 561.90625 343 L 561.90625 468 L 463.5625 468 Z M 463.5625 343 "/>
</clipPath>
<clipPath id="clip35">
  <path d="M 463.5625 205.871094 L 561.90625 205.871094 L 561.90625 604.988281 L 463.5625 604.988281 Z M 463.5625 205.871094 L 573.472656 406.558594 C 573.472656 418.390625 563.878906 427.984375 552.046875 427.984375 C 540.210938 427.984375 530.617188 418.390625 530.617188 406.558594 C 530.617188 394.722656 540.210938 385.128906 552.046875 385.128906 C 563.878906 385.128906 573.472656 394.722656 573.472656 406.558594 Z M 463.5625 205.871094 "/>
</clipPath>
<clipPath id="clip36">
  <path d="M 463.5625 205.871094 L 561.90625 205.871094 L 561.90625 604.988281 L 463.5625 604.988281 Z M 463.5625 205.871094 L 494.847656 404.300781 C 494.847656 416.136719 485.253906 425.730469 473.421875 425.730469 C 461.585938 425.730469 451.992188 416.136719 451.992188 404.300781 C 451.992188 392.46875 461.585938 382.875 473.421875 382.875 C 485.253906 382.875 494.847656 392.46875 494.847656 404.300781 Z M 463.5625 205.871094 "/>
</clipPath>
<clipPath id="clip37">
  <path d="M 491 386.417969 L 600 386.417969 L 600 481.066406 L 491 481.066406 Z M 491 386.417969 "/>
</clipPath>
<clipPath id="clip38">
  <path d="M 354.1875 386.417969 L 754.359375 386.417969 L 754.359375 481.066406 L 354.1875 481.066406 Z M 354.1875 386.417969 L 573.472656 406.558594 C 573.472656 418.390625 563.878906 427.984375 552.046875 427.984375 C 540.210938 427.984375 530.617188 418.390625 530.617188 406.558594 C 530.617188 394.722656 540.210938 385.128906 552.046875 385.128906 C 563.878906 385.128906 573.472656 394.722656 573.472656 406.558594 Z M 354.1875 386.417969 "/>
</clipPath>
<clipPath id="clip39">
  <path d="M 354.1875 386.417969 L 754.359375 386.417969 L 754.359375 481.066406 L 354.1875 481.066406 Z M 354.1875 386.417969 L 577.929688 460.925781 C 577.929688 472.757812 568.335938 482.351562 556.5 482.351562 C 544.664062 482.351562 535.070312 472.757812 535.070312 460.925781 C 535.070312 449.089844 544.664062 439.496094 556.5 439.496094 C 568.335938 439.496094 577.929688 449.089844 577.929688 460.925781 Z M 354.1875 386.417969 "/>
</clipPath>
<clipPath id="clip40">
  <path d="M 403.785156 413 L 535.191406 413 L 535.191406 545 L 403.785156 545 Z M 403.785156 413 "/>
</clipPath>
<clipPath id="clip41">
  <path d="M 403.785156 279.789062 L 535.191406 279.789062 L 535.191406 678.175781 L 403.785156 678.175781 Z M 403.785156 279.789062 L 513.484375 474.375 C 513.484375 486.210938 503.890625 495.804688 492.058594 495.804688 C 480.222656 495.804688 470.628906 486.210938 470.628906 474.375 C 470.628906 462.539062 480.222656 452.945312 492.058594 452.945312 C 503.890625 452.945312 513.484375 462.539062 513.484375 474.375 Z M 403.785156 279.789062 "/>
</clipPath>
<clipPath id="clip42">
  <path d="M 403.785156 279.789062 L 535.191406 279.789062 L 535.191406 678.175781 L 403.785156 678.175781 Z M 403.785156 279.789062 L 468.34375 483.589844 C 468.34375 495.421875 458.75 505.015625 446.917969 505.015625 C 435.082031 505.015625 425.488281 495.421875 425.488281 483.589844 C 425.488281 471.753906 435.082031 462.160156 446.917969 462.160156 C 458.75 462.160156 468.34375 471.753906 468.34375 483.589844 Z M 403.785156 279.789062 "/>
</clipPath>
<clipPath id="clip43">
  <path d="M 412 350.097656 L 553 350.097656 L 553 528.578125 L 412 528.578125 Z M 412 350.097656 "/>
</clipPath>
<clipPath id="clip44">
  <path d="M 281.4375 350.097656 L 684.042969 350.097656 L 684.042969 528.578125 L 281.4375 528.578125 Z M 281.4375 350.097656 L 513.484375 474.375 C 513.484375 486.210938 503.890625 495.804688 492.058594 495.804688 C 480.222656 495.804688 470.628906 486.210938 470.628906 474.375 C 470.628906 462.539062 480.222656 452.945312 492.058594 452.945312 C 503.890625 452.945312 513.484375 462.539062 513.484375 474.375 Z M 281.4375 350.097656 "/>
</clipPath>
<clipPath id="clip45">
  <path d="M 281.4375 350.097656 L 684.042969 350.097656 L 684.042969 528.578125 L 281.4375 528.578125 Z M 281.4375 350.097656 L 494.847656 404.300781 C 494.847656 416.136719 485.253906 425.730469 473.421875 425.730469 C 461.585938 425.730469 451.992188 416.136719 451.992188 404.300781 C 451.992188 392.46875 461.585938 382.875 473.421875 382.875 C 485.253906 382.875 494.847656 392.46875 494.847656 404.300781 Z M 281.4375 350.097656 "/>
</clipPath>
<clipPath id="clip46">
  <path d="M 448.09375 400 L 600 400 L 600 535 L 448.09375 535 Z M 448.09375 400 "/>
</clipPath>
<clipPath id="clip47">
  <path d="M 448.09375 266.511719 L 600.464844 266.511719 L 600.464844 668.789062 L 448.09375 668.789062 Z M 448.09375 266.511719 L 513.484375 474.375 C 513.484375 486.210938 503.890625 495.804688 492.058594 495.804688 C 480.222656 495.804688 470.628906 486.210938 470.628906 474.375 C 470.628906 462.539062 480.222656 452.945312 492.058594 452.945312 C 503.890625 452.945312 513.484375 462.539062 513.484375 474.375 Z M 448.09375 266.511719 "/>
</clipPath>
<clipPath id="clip48">
  <path d="M 448.09375 266.511719 L 600.464844 266.511719 L 600.464844 668.789062 L 448.09375 668.789062 Z M 448.09375 266.511719 L 577.929688 460.925781 C 577.929688 472.757812 568.335938 482.351562 556.5 482.351562 C 544.664062 482.351562 535.070312 472.757812 535.070312 460.925781 C 535.070312 449.089844 544.664062 439.496094 556.5 439.496094 C 568.335938 439.496094 577.929688 449.089844 577.929688 460.925781 Z M 448.09375 266.511719 "/>
</clipPath>
<clipPath id="clip49">
  <path d="M 386 343 L 535 343 L 535 545 L 386 545 Z M 386 343 "/>
</clipPath>
<clipPath id="clip50">
  <path d="M 258.425781 338.441406 L 661.914062 338.441406 L 661.914062 549.449219 L 258.425781 549.449219 Z M 258.425781 338.441406 L 468.34375 483.589844 C 468.34375 495.421875 458.75 505.015625 446.917969 505.015625 C 435.082031 505.015625 425.488281 495.421875 425.488281 483.589844 C 425.488281 471.753906 435.082031 462.160156 446.917969 462.160156 C 458.75 462.160156 468.34375 471.753906 468.34375 483.589844 Z M 258.425781 338.441406 "/>
</clipPath>
<clipPath id="clip51">
  <path d="M 258.425781 338.441406 L 661.914062 338.441406 L 661.914062 549.449219 L 258.425781 549.449219 Z M 258.425781 338.441406 L 494.847656 404.300781 C 494.847656 416.136719 485.253906 425.730469 473.421875 425.730469 C 461.585938 425.730469 451.992188 416.136719 451.992188 404.300781 C 451.992188 392.46875 461.585938 382.875 473.421875 382.875 C 485.253906 382.875 494.847656 392.46875 494.847656 404.300781 Z M 258.425781 338.441406 "/>
</clipPath>
</defs>
<g id="surface346">
<g clip-path="url(#clip1)" clip-rule="nonzero">
<g clip-path="url(#clip2)" clip-rule="evenodd">
<g clip-path="url(#clip3)" clip-rule="evenodd">
<path style="fill:none;stroke-width:0.0220658;stroke-linecap:butt;stroke-linejoin:miter;stroke:rgb(17.96875%,20.3125%,21.09375%);stroke-opacity:0.8;stroke-miterlimit:10;" d="M 0.879362 2.427506 L 0.934992 2.780634 " transform="matrix(194.223927,0,0,194.223927,-18.992416,-5.862579)"/>
</g>
</g>
</g>
<g clip-path="url(#clip4)" clip-rule="nonzero">
<g clip-path="url(#clip5)" clip-rule="evenodd">
<g clip-path="url(#clip6)" clip-rule="evenodd">
<path style="fill:none;stroke-width:0.0220658;stroke-linecap:butt;stroke-linejoin:miter;stroke:rgb(17.96875%,20.3125%,21.09375%);stroke-opacity:0.8;stroke-miterlimit:10;" d="M 0.879362 2.427506 L 0.875621 1.842043 " transform="matrix(194.223927,0,0,194.223927,-18.992416,-5.862579)"/>
</g>
</g>
</g>
<g clip-path="url(#clip7)" clip-rule="nonzero">
<g clip-path="url(#clip8)" clip-rule="evenodd">
<g clip-path="url(#clip9)" clip-rule="evenodd">
<path style="fill:none;stroke-width:0.0220658;stroke-linecap:butt;stroke-linejoin:miter;stroke:rgb(17.96875%,20.3125%,21.09375%);stroke-opacity:0.8;stroke-miterlimit:10;" d="M 0.875621 1.842043 L 1.283636 1.345837 " transform="matrix(194.223927,0,0,194.223927,-18.992416,-5.862579)"/>
</g>
</g>
</g>
<g clip-path="url(#clip10)" clip-rule="nonzero">
<g clip-path="url(#clip11)" clip-rule="evenodd">
<g clip-path="url(#clip12)" clip-rule="evenodd">
<path style="fill:none;stroke-width:0.0220658;stroke-linecap:butt;stroke-linejoin:miter;stroke:rgb(17.96875%,20.3125%,21.09375%);stroke-opacity:0.8;stroke-miterlimit:10;" d="M 0.875621 1.842043 L 0.514086 1.623646 " transform="matrix(194.223927,0,0,194.223927,-18.992416,-5.862579)"/>
</g>
</g>
</g>
<g clip-path="url(#clip13)" clip-rule="nonzero">
<g clip-path="url(#clip14)" clip-rule="evenodd">
<g clip-path="url(#clip15)" clip-rule="evenodd">
<path style="fill:none;stroke-width:0.0220658;stroke-linecap:butt;stroke-linejoin:miter;stroke:rgb(17.96875%,20.3125%,21.09375%);stroke-opacity:0.8;stroke-miterlimit:10;" d="M 2.185039 0.562934 L 2.435878 0.368953 " transform="matrix(194.223927,0,0,194.223927,-18.992416,-5.862579)"/>
</g>
</g>
</g>
<g clip-path="url(#clip16)" clip-rule="nonzero">
<g clip-path="url(#clip17)" clip-rule="evenodd">
<g clip-path="url(#clip18)" clip-rule="evenodd">
<path style="fill:none;stroke-width:0.0220658;stroke-linecap:butt;stroke-linejoin:miter;stroke:rgb(17.96875%,20.3125%,21.09375%);stroke-opacity:0.8;stroke-miterlimit:10;" d="M 2.185039 0.562934 L 1.819965 0.961093 " transform="matrix(194.223927,0,0,194.223927,-18.992416,-5.862579)"/>
</g>
</g>
</g>
<g clip-path="url(#clip19)" clip-rule="nonzero">
<g clip-path="url(#clip20)" clip-rule="evenodd">
<g clip-path="url(#clip21)" clip-rule="evenodd">
<path style="fill:none;stroke-width:0.0220658;stroke-linecap:butt;stroke-linejoin:miter;stroke:rgb(17.96875%,20.3125%,21.09375%);stroke-opacity:0.8;stroke-miterlimit:10;" d="M 1.283636 1.345837 L 1.819965 0.961093 " transform="matrix(194.223927,0,0,194.223927,-18.992416,-5.862579)"/>
</g>
</g>
</g>
<g clip-path="url(#clip22)" clip-rule="nonzero">
<g clip-path="url(#clip23)" clip-rule="evenodd">
<g clip-path="url(#clip24)" clip-rule="evenodd">
<path style="fill:none;stroke-width:0.0220658;stroke-linecap:butt;stroke-linejoin:miter;stroke:rgb(17.96875%,20.3125%,21.09375%);stroke-opacity:0.8;stroke-miterlimit:10;" d="M 1.819965 0.961093 L 2.250464 1.478718 " transform="matrix(194.223927,0,0,194.223927,-18.992416,-5.862579)"/>
</g>
</g>
</g>
<g clip-path="url(#clip25)" clip-rule="nonzero">
<g clip-path="url(#clip26)" clip-rule="evenodd">
<g clip-path="url(#clip27)" clip-rule="evenodd">
<path style="fill:none;stroke-width:0.0220658;stroke-linecap:butt;stroke-linejoin:miter;stroke:rgb(17.96875%,20.3125%,21.09375%);stroke-opacity:0.8;stroke-miterlimit:10;" d="M 1.819965 0.961093 L 1.57512 0.589703 " transform="matrix(194.223927,0,0,194.223927,-18.992416,-5.862579)"/>
</g>
</g>
</g>
<g clip-path="url(#clip28)" clip-rule="nonzero">
<g clip-path="url(#clip29)" clip-rule="evenodd">
<g clip-path="url(#clip30)" clip-rule="evenodd">
<path style="fill:none;stroke-width:0.0220658;stroke-linecap:butt;stroke-linejoin:miter;stroke:rgb(17.96875%,20.3125%,21.09375%);stroke-opacity:0.8;stroke-miterlimit:10;" d="M 0.514086 1.623646 L 0.321754 1.400442 " transform="matrix(194.223927,0,0,194.223927,-18.992416,-5.862579)"/>
</g>
</g>
</g>
<g clip-path="url(#clip31)" clip-rule="nonzero">
<g clip-path="url(#clip32)" clip-rule="evenodd">
<g clip-path="url(#clip33)" clip-rule="evenodd">
<path style="fill:none;stroke-width:0.0220658;stroke-linecap:butt;stroke-linejoin:miter;stroke:rgb(17.96875%,20.3125%,21.09375%);stroke-opacity:0.8;stroke-miterlimit:10;" d="M 2.250464 1.478718 L 2.535292 2.111807 " transform="matrix(194.223927,0,0,194.223927,-18.992416,-5.862579)"/>
</g>
</g>
</g>
<g clip-path="url(#clip34)" clip-rule="nonzero">
<g clip-path="url(#clip35)" clip-rule="evenodd">
<g clip-path="url(#clip36)" clip-rule="evenodd">
<path style="fill:none;stroke-width:0.0220658;stroke-linecap:butt;stroke-linejoin:miter;stroke:rgb(17.96875%,20.3125%,21.09375%);stroke-opacity:0.8;stroke-miterlimit:10;" d="M 2.940108 2.123431 L 2.535292 2.111807 " transform="matrix(194.223927,0,0,194.223927,-18.992416,-5.862579)"/>
</g>
</g>
</g>
<g clip-path="url(#clip37)" clip-rule="nonzero">
<g clip-path="url(#clip38)" clip-rule="evenodd">
<g clip-path="url(#clip39)" clip-rule="evenodd">
<path style="fill:none;stroke-width:0.0220658;stroke-linecap:butt;stroke-linejoin:miter;stroke:rgb(17.96875%,20.3125%,21.09375%);stroke-opacity:0.8;stroke-miterlimit:10;" d="M 2.940108 2.123431 L 2.963036 2.403351 " transform="matrix(194.223927,0,0,194.223927,-18.992416,-5.862579)"/>
</g>
</g>
</g>
<g clip-path="url(#clip40)" clip-rule="nonzero">
<g clip-path="url(#clip41)" clip-rule="evenodd">
<g clip-path="url(#clip42)" clip-rule="evenodd">
<path style="fill:none;stroke-width:0.0220658;stroke-linecap:butt;stroke-linejoin:miter;stroke:rgb(17.96875%,20.3125%,21.09375%);stroke-opacity:0.8;stroke-miterlimit:10;" d="M 2.631246 2.472597 L 2.398831 2.520042 " transform="matrix(194.223927,0,0,194.223927,-18.992416,-5.862579)"/>
</g>
</g>
</g>
<g clip-path="url(#clip43)" clip-rule="nonzero">
<g clip-path="url(#clip44)" clip-rule="evenodd">
<g clip-path="url(#clip45)" clip-rule="evenodd">
<path style="fill:none;stroke-width:0.0220658;stroke-linecap:butt;stroke-linejoin:miter;stroke:rgb(17.96875%,20.3125%,21.09375%);stroke-opacity:0.8;stroke-miterlimit:10;" d="M 2.631246 2.472597 L 2.535292 2.111807 " transform="matrix(194.223927,0,0,194.223927,-18.992416,-5.862579)"/>
</g>
</g>
</g>
<g clip-path="url(#clip46)" clip-rule="nonzero">
<g clip-path="url(#clip47)" clip-rule="evenodd">
<g clip-path="url(#clip48)" clip-rule="evenodd">
<path style="fill:none;stroke-width:0.0220658;stroke-linecap:butt;stroke-linejoin:miter;stroke:rgb(17.96875%,20.3125%,21.09375%);stroke-opacity:0.8;stroke-miterlimit:10;" d="M 2.631246 2.472597 L 2.963036 2.403351 " transform="matrix(194.223927,0,0,194.223927,-18.992416,-5.862579)"/>
</g>
</g>
</g>
<g clip-path="url(#clip49)" clip-rule="nonzero">
<g clip-path="url(#clip50)" clip-rule="evenodd">
<g clip-path="url(#clip51)" clip-rule="evenodd">
<path style="fill:none;stroke-width:0.0220658;stroke-linecap:butt;stroke-linejoin:miter;stroke:rgb(17.96875%,20.3125%,21.09375%);stroke-opacity:0.8;stroke-miterlimit:10;" d="M 2.398831 2.520042 L 2.535292 2.111807 " transform="matrix(194.223927,0,0,194.223927,-18.992416,-5.862579)"/>
</g>
</g>
</g>
<path style="fill-rule:nonzero;fill:rgb(55.294118%,82.745098%,78.039216%);fill-opacity:1;stroke-width:0.0220658;stroke-linecap:butt;stroke-linejoin:miter;stroke:rgb(60%,60%,60%);stroke-opacity:0.8;stroke-miterlimit:10;" d="M 0.11032 0.000002126 C 0.11032 0.0609418 0.060925 0.110337 0.00000546211 0.110337 C -0.0609342 0.110337 -0.110329 0.0609418 -0.110329 0.000002126 C -0.110329 -0.0609375 -0.0609342 -0.110333 0.00000546211 -0.110333 C 0.060925 -0.110333 0.11032 -0.0609375 0.11032 0.000002126 Z M 0.11032 0.000002126 " transform="matrix(194.223927,0,0,194.223927,151.79972,465.616775)"/>
<path style="fill-rule:nonzero;fill:rgb(55.294118%,82.745098%,78.039216%);fill-opacity:1;stroke-width:0.0220658;stroke-linecap:butt;stroke-linejoin:miter;stroke:rgb(60%,60%,60%);stroke-opacity:0.8;stroke-miterlimit:10;" d="M 0.110337 0.00000132132 C 0.110337 0.060941 0.0609412 0.110336 0.0000016022 0.110336 C -0.060938 0.110336 -0.110333 0.060941 -0.110333 0.00000132132 C -0.110333 -0.0609383 -0.060938 -0.110334 0.0000016022 -0.110334 C 0.0609412 -0.110334 0.110337 -0.0609383 0.110337 0.00000132132 Z M 0.110337 0.00000132132 " transform="matrix(194.223927,0,0,194.223927,162.605158,534.202868)"/>
<path style="fill-rule:nonzero;fill:rgb(55.294118%,82.745098%,78.039216%);fill-opacity:1;stroke-width:0.0220658;stroke-linecap:butt;stroke-linejoin:miter;stroke:rgb(60%,60%,60%);stroke-opacity:0.8;stroke-miterlimit:10;" d="M 0.110319 0.00000687046 C 0.110319 0.0609264 0.060924 0.110322 0.00000447544 0.110322 C -0.0609352 0.110322 -0.11033 0.0609264 -0.11033 0.00000687046 C -0.11033 -0.0609328 -0.0609352 -0.110328 0.00000447544 -0.110328 C 0.060924 -0.110328 0.110319 -0.0609328 0.110319 0.00000687046 Z M 0.110319 0.00000687046 " transform="matrix(194.223927,0,0,194.223927,151.07335,351.904916)"/>
<path style="fill-rule:nonzero;fill:rgb(55.294118%,82.745098%,78.039216%);fill-opacity:1;stroke-width:0.0220658;stroke-linecap:butt;stroke-linejoin:miter;stroke:rgb(60%,60%,60%);stroke-opacity:0.8;stroke-miterlimit:10;" d="M 0.110325 0.00000910609 C 0.110325 0.0609286 0.0609297 0.110324 -0.00000993728 0.110324 C -0.0609295 0.110324 -0.110325 0.0609286 -0.110325 0.00000910609 C -0.110325 -0.0609305 -0.0609295 -0.110326 -0.00000993728 -0.110326 C 0.0609297 -0.110326 0.110325 -0.0609305 0.110325 0.00000910609 Z M 0.110325 0.00000910609 " transform="matrix(194.223927,0,0,194.223927,405.396461,103.470888)"/>
<path style="fill-rule:nonzero;fill:rgb(55.294118%,82.745098%,78.039216%);fill-opacity:1;stroke-width:0.0220658;stroke-linecap:butt;stroke-linejoin:miter;stroke:rgb(60%,60%,60%);stroke-opacity:0.8;stroke-miterlimit:10;" d="M 0.110326 -0.00000132132 C 0.110326 0.0609383 0.0609304 0.110334 -0.00000921228 0.110334 C -0.0609287 0.110334 -0.110324 0.0609383 -0.110324 -0.00000132132 C -0.110324 -0.060941 -0.0609287 -0.110336 -0.00000921228 -0.110336 C 0.0609304 -0.110336 0.110326 -0.060941 0.110326 -0.00000132132 Z M 0.110326 -0.00000132132 " transform="matrix(194.223927,0,0,194.223927,454.11507,65.797132)"/>
<path style="fill-rule:nonzero;fill:rgb(55.294118%,82.745098%,78.039216%);fill-opacity:1;stroke-width:0.0220658;stroke-linecap:butt;stroke-linejoin:miter;stroke:rgb(60%,60%,60%);stroke-opacity:0.8;stroke-miterlimit:10;" d="M 0.110337 -0.00000215664 C 0.110337 0.0609375 0.0609412 0.110333 0.00000155544 0.110333 C -0.0609381 0.110333 -0.110333 0.0609375 -0.110333 -0.00000215664 C -0.110333 -0.0609418 -0.0609381 -0.110337 0.00000155544 -0.110337 C 0.0609412 -0.110337 0.110337 -0.0609418 0.110337 -0.00000215664 Z M 0.110337 -0.00000215664 " transform="matrix(194.223927,0,0,194.223927,230.32001,255.531669)"/>
<path style="fill-rule:nonzero;fill:rgb(55.294118%,82.745098%,78.039216%);fill-opacity:1;stroke-width:0.0220658;stroke-linecap:butt;stroke-linejoin:miter;stroke:rgb(60%,60%,60%);stroke-opacity:0.8;stroke-miterlimit:10;" d="M 0.110335 0.00000559539 C 0.110335 0.0609251 0.0609395 0.11032 -0.000000156588 0.11032 C -0.0609398 0.11032 -0.110335 0.0609251 -0.110335 0.00000559539 C -0.110335 -0.0609341 -0.0609398 -0.110329 -0.000000156588 -0.110329 C 0.0609395 -0.110329 0.110335 -0.0609341 0.110335 0.00000559539 Z M 0.110335 0.00000559539 " transform="matrix(194.223927,0,0,194.223927,334.488312,180.803601)"/>
<path style="fill-rule:nonzero;fill:rgb(100%,92.941176%,43.529412%);fill-opacity:1;stroke-width:0.0220658;stroke-linecap:butt;stroke-linejoin:miter;stroke:rgb(60%,60%,60%);stroke-opacity:0.8;stroke-miterlimit:10;" d="M 0.110324 -0.00000253953 C 0.110324 0.0609371 0.0609287 0.110332 0.000009137 0.110332 C -0.0609305 0.110332 -0.110326 0.0609371 -0.110326 -0.00000253953 C -0.110326 -0.0609422 -0.0609305 -0.110337 0.000009137 -0.110337 C 0.0609287 -0.110337 0.110324 -0.0609422 0.110324 -0.00000253953 Z M 0.110324 -0.00000253953 " transform="matrix(194.223927,0,0,194.223927,80.853694,309.488774)"/>
<path style="fill-rule:nonzero;fill:rgb(100%,92.941176%,43.529412%);fill-opacity:1;stroke-width:0.0220658;stroke-linecap:butt;stroke-linejoin:miter;stroke:rgb(60%,60%,60%);stroke-opacity:0.8;stroke-miterlimit:10;" d="M 0.110335 -0.00000934861 C 0.110335 0.0609303 0.0609396 0.110326 0.000000000000000028 0.110326 C -0.0609396 0.110326 -0.110335 0.0609303 -0.110335 -0.00000934861 C -0.110335 -0.0609289 -0.0609396 -0.110324 0.000000000000000028 -0.110324 C 0.0609396 -0.110324 0.110335 -0.0609289 0.110335 -0.00000934861 Z M 0.110335 -0.00000934861 " transform="matrix(194.223927,0,0,194.223927,43.5,266.138534)"/>
<path style="fill-rule:nonzero;fill:rgb(55.294118%,82.745098%,78.039216%);fill-opacity:1;stroke-width:0.0220658;stroke-linecap:butt;stroke-linejoin:miter;stroke:rgb(60%,60%,60%);stroke-opacity:0.8;stroke-miterlimit:10;" d="M 0.110333 0.00000458162 C 0.110333 0.0609241 0.0609381 0.110319 -0.00000155404 0.110319 C -0.0609412 0.110319 -0.110337 0.0609241 -0.110337 0.00000458162 C -0.110337 -0.0609351 -0.0609412 -0.11033 -0.00000155404 -0.11033 C 0.0609381 -0.11033 0.110333 -0.0609351 0.110333 0.00000458162 Z M 0.110333 0.00000458162 " transform="matrix(194.223927,0,0,194.223927,418.101864,281.338954)"/>
<path style="fill-rule:nonzero;fill:rgb(55.294118%,82.745098%,78.039216%);fill-opacity:1;stroke-width:0.0220658;stroke-linecap:butt;stroke-linejoin:miter;stroke:rgb(60%,60%,60%);stroke-opacity:0.8;stroke-miterlimit:10;" d="M 0.110322 0.00000513586 C 0.110322 0.0609247 0.0609262 0.11032 0.00000669218 0.11032 C -0.060933 0.11032 -0.110328 0.0609247 -0.110328 0.00000513586 C -0.110328 -0.0609345 -0.060933 -0.11033 0.00000669218 -0.11033 C 0.0609262 -0.11033 0.110322 -0.0609345 0.110322 0.00000513586 Z M 0.110322 0.00000513586 " transform="matrix(194.223927,0,0,194.223927,552.045575,406.557596)"/>
<path style="fill-rule:nonzero;fill:rgb(55.294118%,82.745098%,78.039216%);fill-opacity:1;stroke-width:0.0220658;stroke-linecap:butt;stroke-linejoin:miter;stroke:rgb(60%,60%,60%);stroke-opacity:0.8;stroke-miterlimit:10;" d="M 0.11032 -0.000000895225 C 0.11032 0.0609388 0.0609247 0.110334 0.00000517735 0.110334 C -0.0609345 0.110334 -0.11033 0.0609388 -0.11033 -0.000000895225 C -0.11033 -0.0609405 -0.0609345 -0.110336 0.00000517735 -0.110336 C 0.0609247 -0.110336 0.11032 -0.0609405 0.11032 -0.000000895225 Z M 0.11032 -0.000000895225 " transform="matrix(194.223927,0,0,194.223927,492.057588,474.375174)"/>
<path style="fill-rule:nonzero;fill:rgb(55.294118%,82.745098%,78.039216%);fill-opacity:1;stroke-width:0.0220658;stroke-linecap:butt;stroke-linejoin:miter;stroke:rgb(60%,60%,60%);stroke-opacity:0.8;stroke-miterlimit:10;" d="M 0.110319 0.00000758176 C 0.110319 0.0609271 0.0609241 0.110322 0.00000461361 0.110322 C -0.060935 0.110322 -0.11033 0.0609271 -0.11033 0.00000758176 C -0.11033 -0.0609321 -0.060935 -0.110327 0.00000461361 -0.110327 C 0.0609241 -0.110327 0.110319 -0.0609321 0.110319 0.00000758176 Z M 0.110319 0.00000758176 " transform="matrix(194.223927,0,0,194.223927,446.917073,483.588371)"/>
<path style="fill-rule:nonzero;fill:rgb(55.294118%,82.745098%,78.039216%);fill-opacity:1;stroke-width:0.0220658;stroke-linecap:butt;stroke-linejoin:miter;stroke:rgb(60%,60%,60%);stroke-opacity:0.8;stroke-miterlimit:10;" d="M 0.11032 -0.00000986862 C 0.11032 0.0609298 0.060925 0.110325 0.00000550492 0.110325 C -0.0609341 0.110325 -0.110329 0.0609298 -0.110329 -0.00000986862 C -0.110329 -0.0609294 -0.0609341 -0.110325 0.00000550492 -0.110325 C 0.060925 -0.110325 0.11032 -0.0609294 0.11032 -0.00000986862 Z M 0.11032 -0.00000986862 " transform="matrix(194.223927,0,0,194.223927,473.420806,404.302698)"/>
<path style="fill-rule:nonzero;fill:rgb(55.294118%,82.745098%,78.039216%);fill-opacity:1;stroke-width:0.0220658;stroke-linecap:butt;stroke-linejoin:miter;stroke:rgb(60%,60%,60%);stroke-opacity:0.8;stroke-miterlimit:10;" d="M 0.110335 0.00000467621 C 0.110335 0.0609242 0.0609396 0.11032 0.000000000000000444 0.11032 C -0.0609396 0.11032 -0.110335 0.0609242 -0.110335 0.00000467621 C -0.110335 -0.060935 -0.0609396 -0.11033 0.000000000000000444 -0.11033 C 0.0609396 -0.11033 0.110335 -0.060935 0.110335 0.00000467621 Z M 0.110335 0.00000467621 " transform="matrix(194.223927,0,0,194.223927,556.5,460.924873)"/>
<path style="fill-rule:nonzero;fill:rgb(55.294118%,82.745098%,78.039216%);fill-opacity:1;stroke-width:0.0220658;stroke-linecap:butt;stroke-linejoin:miter;stroke:rgb(60%,60%,60%);stroke-opacity:0.8;stroke-miterlimit:10;" d="M 0.110324 0.00000519596 C 0.110324 0.0609247 0.0609285 0.11032 0.00000895004 0.11032 C -0.0609307 0.11032 -0.110326 0.0609247 -0.110326 0.00000519596 C -0.110326 -0.0609345 -0.0609307 -0.11033 0.00000895004 -0.11033 C 0.0609285 -0.11033 0.110324 -0.0609345 0.110324 0.00000519596 Z M 0.110324 0.00000519596 " transform="matrix(194.223927,0,0,194.223927,286.931855,108.670866)"/>
</g>
</svg>
