<?xml version="1.0" encoding="UTF-8"?>
<svg xmlns="http://www.w3.org/2000/svg" xmlns:xlink="http://www.w3.org/1999/xlink" width="600pt" height="600pt" viewBox="0 0 600 600" version="1.1">
<defs>
<clipPath id="clip1">
  <path d="M 299 293 L 506 293 L 506 550 L 299 550 Z M 299 293 "/>
</clipPath>
<clipPath id="clip2">
  <path d="M 174.761719 234.144531 L 630.378906 234.144531 L 630.378906 608.609375 L 174.761719 608.609375 Z M 174.761719 234.144531 L 379.53125 352.15625 C 379.53125 363.636719 370.222656 372.945312 358.742188 372.945312 C 347.261719 372.945312 337.953125 363.636719 337.953125 352.15625 C 337.953125 340.675781 347.261719 331.367188 358.742188 331.367188 C 370.222656 331.367188 379.53125 340.675781 379.53125 352.15625 Z M 174.761719 234.144531 "/>
</clipPath>
<clipPath id="clip3">
  <path d="M 174.761719 234.144531 L 630.378906 234.144531 L 630.378906 608.609375 L 174.761719 608.609375 Z M 174.761719 234.144531 L 467.179688 490.59375 C 467.179688 502.078125 457.875 511.382812 446.394531 511.382812 C 434.910156 511.382812 425.605469 502.078125 425.605469 490.59375 C 425.605469 479.113281 434.910156 469.804688 446.394531 469.804688 C 457.875 469.804688 467.179688 479.113281 467.179688 490.59375 Z M 174.761719 234.144531 "/>
</clipPath>
<clipPath id="clip4">
  <path d="M 299 293 L 480 293 L 480 562 L 299 562 Z M 299 293 "/>
</clipPath>
<clipPath id="clip5">
  <path d="M 157.902344 266.664062 L 621.871094 266.664062 L 621.871094 588.269531 L 157.902344 588.269531 Z M 157.902344 266.664062 L 379.53125 352.15625 C 379.53125 363.636719 370.222656 372.945312 358.742188 372.945312 C 347.261719 372.945312 337.953125 363.636719 337.953125 352.15625 C 337.953125 340.675781 347.261719 331.367188 358.742188 331.367188 C 370.222656 331.367188 379.53125 340.675781 379.53125 352.15625 Z M 157.902344 266.664062 "/>
</clipPath>
<clipPath id="clip6">
  <path d="M 157.902344 266.664062 L 621.871094 266.664062 L 621.871094 588.269531 L 157.902344 588.269531 Z M 157.902344 266.664062 L 441.816406 502.773438 C 441.816406 514.253906 432.511719 523.5625 421.027344 523.5625 C 409.546875 523.5625 400.242188 514.253906 400.242188 502.773438 C 400.242188 491.292969 409.546875 481.984375 421.027344 481.984375 C 432.511719 481.984375 441.816406 491.292969 441.816406 502.773438 Z M 157.902344 266.664062 "/>
</clipPath>
<clipPath id="clip7">
  <path d="M 299 196 L 449 196 L 449 411 L 299 411 Z M 299 196 "/>
</clipPath>
<clipPath id="clip8">
  <path d="M 151.953125 185.539062 L 596.816406 185.539062 L 596.816406 421.425781 L 151.953125 421.425781 Z M 151.953125 185.539062 L 379.53125 352.15625 C 379.53125 363.636719 370.222656 372.945312 358.742188 372.945312 C 347.261719 372.945312 337.953125 363.636719 337.953125 352.15625 C 337.953125 340.675781 347.261719 331.367188 358.742188 331.367188 C 370.222656 331.367188 379.53125 340.675781 379.53125 352.15625 Z M 151.953125 185.539062 "/>
</clipPath>
<clipPath id="clip9">
  <path d="M 151.953125 185.539062 L 596.816406 185.539062 L 596.816406 421.425781 L 151.953125 421.425781 Z M 151.953125 185.539062 L 410.8125 254.804688 C 410.8125 266.289062 401.507812 275.59375 390.023438 275.59375 C 378.542969 275.59375 369.238281 266.289062 369.238281 254.804688 C 369.238281 243.324219 378.542969 234.015625 390.023438 234.015625 C 401.507812 234.015625 410.8125 243.324219 410.8125 254.804688 Z M 151.953125 185.539062 "/>
</clipPath>
<clipPath id="clip10">
  <path d="M 238 181 L 418 181 L 418 411 L 238 411 Z M 238 181 "/>
</clipPath>
<clipPath id="clip11">
  <path d="M 106.519531 133.5 L 549.417969 133.5 L 549.417969 458.839844 L 106.519531 458.839844 Z M 106.519531 133.5 L 379.53125 352.15625 C 379.53125 363.636719 370.222656 372.945312 358.742188 372.945312 C 347.261719 372.945312 337.953125 363.636719 337.953125 352.15625 C 337.953125 340.675781 347.261719 331.367188 358.742188 331.367188 C 370.222656 331.367188 379.53125 340.675781 379.53125 352.15625 Z M 106.519531 133.5 "/>
</clipPath>
<clipPath id="clip12">
  <path d="M 106.519531 133.5 L 549.417969 133.5 L 549.417969 458.839844 L 106.519531 458.839844 Z M 106.519531 133.5 L 317.980469 240.179688 C 317.980469 251.660156 308.671875 260.96875 297.191406 260.96875 C 285.710938 260.96875 276.402344 251.660156 276.402344 240.179688 C 276.402344 228.699219 285.710938 219.390625 297.191406 219.390625 C 308.671875 219.390625 317.980469 228.699219 317.980469 240.179688 Z M 106.519531 133.5 "/>
</clipPath>
<clipPath id="clip13">
  <path d="M 299 263 L 500 263 L 500 411 L 299 411 Z M 299 263 "/>
</clipPath>
<clipPath id="clip14">
  <path d="M 281.375 118.160156 L 517.976562 118.160156 L 517.976562 556.167969 L 281.375 556.167969 Z M 281.375 118.160156 L 379.53125 352.15625 C 379.53125 363.636719 370.222656 372.945312 358.742188 372.945312 C 347.261719 372.945312 337.953125 363.636719 337.953125 352.15625 C 337.953125 340.675781 347.261719 331.367188 358.742188 331.367188 C 370.222656 331.367188 379.53125 340.675781 379.53125 352.15625 Z M 281.375 118.160156 "/>
</clipPath>
<clipPath id="clip15">
  <path d="M 281.375 118.160156 L 517.976562 118.160156 L 517.976562 556.167969 L 281.375 556.167969 Z M 281.375 118.160156 L 461.394531 322.167969 C 461.394531 333.652344 452.089844 342.957031 440.605469 342.957031 C 429.125 342.957031 419.816406 333.652344 419.816406 322.167969 C 419.816406 310.6875 429.125 301.378906 440.605469 301.378906 C 452.089844 301.378906 461.394531 310.6875 461.394531 322.167969 Z M 281.375 118.160156 "/>
</clipPath>
<clipPath id="clip16">
  <path d="M 104 169 L 418 169 L 418 411 L 104 411 Z M 104 169 "/>
</clipPath>
<clipPath id="clip17">
  <path d="M 45.039062 44.332031 L 476.523438 44.332031 L 476.523438 536.289062 L 45.039062 536.289062 Z M 45.039062 44.332031 L 379.53125 352.15625 C 379.53125 363.636719 370.222656 372.945312 358.742188 372.945312 C 347.261719 372.945312 337.953125 363.636719 337.953125 352.15625 C 337.953125 340.675781 347.261719 331.367188 358.742188 331.367188 C 370.222656 331.367188 379.53125 340.675781 379.53125 352.15625 Z M 45.039062 44.332031 "/>
</clipPath>
<clipPath id="clip18">
  <path d="M 45.039062 44.332031 L 476.523438 44.332031 L 476.523438 536.289062 L 45.039062 536.289062 Z M 45.039062 44.332031 L 183.601562 228.460938 C 183.601562 239.941406 174.296875 249.25 162.816406 249.25 C 151.332031 249.25 142.027344 239.941406 142.027344 228.460938 C 142.027344 216.980469 151.332031 207.671875 162.816406 207.671875 C 174.296875 207.671875 183.601562 216.980469 183.601562 228.460938 Z M 45.039062 44.332031 "/>
</clipPath>
<clipPath id="clip19">
  <path d="M 387 431 L 526 431 L 526 600 L 387 600 Z M 387 431 "/>
</clipPath>
<clipPath id="clip20">
  <path d="M 238.675781 424.285156 L 674.5 424.285156 L 674.5 623.664062 L 238.675781 623.664062 Z M 238.675781 424.285156 L 467.179688 490.59375 C 467.179688 502.078125 457.875 511.382812 446.394531 511.382812 C 434.910156 511.382812 425.605469 502.078125 425.605469 490.59375 C 425.605469 479.113281 434.910156 469.804688 446.394531 469.804688 C 457.875 469.804688 467.179688 479.113281 467.179688 490.59375 Z M 238.675781 424.285156 "/>
</clipPath>
<clipPath id="clip21">
  <path d="M 238.675781 424.285156 L 674.5 424.285156 L 674.5 623.664062 L 238.675781 623.664062 Z M 238.675781 424.285156 L 487.566406 557.351562 C 487.566406 568.832031 478.257812 578.140625 466.777344 578.140625 C 455.296875 578.140625 445.988281 568.832031 445.988281 557.351562 C 445.988281 545.871094 455.296875 536.5625 466.777344 536.5625 C 478.257812 536.5625 487.566406 545.871094 487.566406 557.351562 Z M 238.675781 424.285156 "/>
</clipPath>
<clipPath id="clip22">
  <path d="M 362 431 L 506 431 L 506 562 L 362 562 Z M 362 431 "/>
</clipPath>
<clipPath id="clip23">
  <path d="M 324.75 294.570312 L 542.675781 294.570312 L 542.675781 698.800781 L 324.75 698.800781 Z M 324.75 294.570312 L 467.179688 490.59375 C 467.179688 502.078125 457.875 511.382812 446.394531 511.382812 C 434.910156 511.382812 425.605469 502.078125 425.605469 490.59375 C 425.605469 479.113281 434.910156 469.804688 446.394531 469.804688 C 457.875 469.804688 467.179688 479.113281 467.179688 490.59375 Z M 324.75 294.570312 "/>
</clipPath>
<clipPath id="clip24">
  <path d="M 324.75 294.570312 L 542.675781 294.570312 L 542.675781 698.800781 L 324.75 698.800781 Z M 324.75 294.570312 L 441.816406 502.773438 C 441.816406 514.253906 432.511719 523.5625 421.027344 523.5625 C 409.546875 523.5625 400.242188 514.253906 400.242188 502.773438 C 400.242188 491.292969 409.546875 481.984375 421.027344 481.984375 C 432.511719 481.984375 441.816406 491.292969 441.816406 502.773438 Z M 324.75 294.570312 "/>
</clipPath>
<clipPath id="clip25">
  <path d="M 362 443 L 526 443 L 526 600 L 362 600 Z M 362 443 "/>
</clipPath>
<clipPath id="clip26">
  <path d="M 253.757812 361.890625 L 634.050781 361.890625 L 634.050781 698.238281 L 253.757812 698.238281 Z M 253.757812 361.890625 L 487.566406 557.351562 C 487.566406 568.832031 478.257812 578.140625 466.777344 578.140625 C 455.296875 578.140625 445.988281 568.832031 445.988281 557.351562 C 445.988281 545.871094 455.296875 536.5625 466.777344 536.5625 C 478.257812 536.5625 487.566406 545.871094 487.566406 557.351562 Z M 253.757812 361.890625 "/>
</clipPath>
<clipPath id="clip27">
  <path d="M 253.757812 361.890625 L 634.050781 361.890625 L 634.050781 698.238281 L 253.757812 698.238281 Z M 253.757812 361.890625 L 441.816406 502.773438 C 441.816406 514.253906 432.511719 523.5625 421.027344 523.5625 C 409.546875 523.5625 400.242188 514.253906 400.242188 502.773438 C 400.242188 491.292969 409.546875 481.984375 421.027344 481.984375 C 432.511719 481.984375 441.816406 491.292969 441.816406 502.773438 Z M 253.757812 361.890625 "/>
</clipPath>
<clipPath id="clip28">
  <path d="M 170 196 L 449 196 L 449 498 L 170 498 Z M 170 196 "/>
</clipPath>
<clipPath id="clip29">
  <path d="M 65.152344 110.441406 L 554.316406 110.441406 L 554.316406 582.574219 L 65.152344 582.574219 Z M 65.152344 110.441406 L 250.230469 438.207031 C 250.230469 449.6875 240.921875 458.996094 229.441406 458.996094 C 217.960938 458.996094 208.652344 449.6875 208.652344 438.207031 C 208.652344 426.722656 217.960938 417.417969 229.441406 417.417969 C 240.921875 417.417969 250.230469 426.722656 250.230469 438.207031 Z M 65.152344 110.441406 "/>
</clipPath>
<clipPath id="clip30">
  <path d="M 65.152344 110.441406 L 554.316406 110.441406 L 554.316406 582.574219 L 65.152344 582.574219 Z M 65.152344 110.441406 L 410.8125 254.804688 C 410.8125 266.289062 401.507812 275.59375 390.023438 275.59375 C 378.542969 275.59375 369.238281 266.289062 369.238281 254.804688 C 369.238281 243.324219 378.542969 234.015625 390.023438 234.015625 C 401.507812 234.015625 410.8125 243.324219 410.8125 254.804688 Z M 65.152344 110.441406 "/>
</clipPath>
<clipPath id="clip31">
  <path d="M 94 379 L 289 379 L 289 584 L 94 584 Z M 94 379 "/>
</clipPath>
<clipPath id="clip32">
  <path d="M -10.527344 292.777344 L 392.792969 292.777344 L 392.792969 669.980469 L -10.527344 669.980469 Z M -10.527344 292.777344 L 250.230469 438.207031 C 250.230469 449.6875 240.921875 458.996094 229.441406 458.996094 C 217.960938 458.996094 208.652344 449.6875 208.652344 438.207031 C 208.652344 426.722656 217.960938 417.417969 229.441406 417.417969 C 240.921875 417.417969 250.230469 426.722656 250.230469 438.207031 Z M -10.527344 292.777344 "/>
</clipPath>
<clipPath id="clip33">
  <path d="M -10.527344 292.777344 L 392.792969 292.777344 L 392.792969 669.980469 L -10.527344 669.980469 Z M -10.527344 292.777344 L 173.609375 524.546875 C 173.609375 536.027344 164.300781 545.335938 152.820312 545.335938 C 141.335938 545.335938 132.03125 536.027344 132.03125 524.546875 C 132.03125 513.066406 141.335938 503.757812 152.820312 503.757812 C 164.300781 503.757812 173.609375 513.066406 173.609375 524.546875 Z M -10.527344 292.777344 "/>
</clipPath>
<clipPath id="clip34">
  <path d="M 278 111 L 449 111 L 449 314 L 278 314 Z M 278 111 "/>
</clipPath>
<clipPath id="clip35">
  <path d="M 152.3125 53.921875 L 575.3125 53.921875 L 575.3125 370.730469 L 152.3125 370.730469 Z M 152.3125 53.921875 L 410.8125 254.804688 C 410.8125 266.289062 401.507812 275.59375 390.023438 275.59375 C 378.542969 275.59375 369.238281 266.289062 369.238281 254.804688 C 369.238281 243.324219 378.542969 234.015625 390.023438 234.015625 C 401.507812 234.015625 410.8125 243.324219 410.8125 254.804688 Z M 152.3125 53.921875 "/>
</clipPath>
<clipPath id="clip36">
  <path d="M 152.3125 53.921875 L 575.3125 53.921875 L 575.3125 370.730469 L 152.3125 370.730469 Z M 152.3125 53.921875 L 358.386719 169.84375 C 358.386719 181.328125 349.078125 190.632812 337.597656 190.632812 C 326.113281 190.632812 316.808594 181.328125 316.808594 169.84375 C 316.808594 158.363281 326.113281 149.054688 337.597656 149.054688 C 349.078125 149.054688 358.386719 158.363281 358.386719 169.84375 Z M 152.3125 53.921875 "/>
</clipPath>
<clipPath id="clip37">
  <path d="M 259.914062 181 L 427.304688 181 L 427.304688 314 L 259.914062 314 Z M 259.914062 181 "/>
</clipPath>
<clipPath id="clip38">
  <path d="M 259.914062 25.777344 L 427.304688 25.777344 L 427.304688 469.210938 L 259.914062 469.210938 Z M 259.914062 25.777344 L 410.8125 254.804688 C 410.8125 266.289062 401.507812 275.59375 390.023438 275.59375 C 378.542969 275.59375 369.238281 266.289062 369.238281 254.804688 C 369.238281 243.324219 378.542969 234.015625 390.023438 234.015625 C 401.507812 234.015625 410.8125 243.324219 410.8125 254.804688 Z M 259.914062 25.777344 "/>
</clipPath>
<clipPath id="clip39">
  <path d="M 259.914062 25.777344 L 427.304688 25.777344 L 427.304688 469.210938 L 259.914062 469.210938 Z M 259.914062 25.777344 L 317.980469 240.179688 C 317.980469 251.660156 308.671875 260.96875 297.191406 260.96875 C 285.710938 260.96875 276.402344 251.660156 276.402344 240.179688 C 276.402344 228.699219 285.710938 219.390625 297.191406 219.390625 C 308.671875 219.390625 317.980469 228.699219 317.980469 240.179688 Z M 259.914062 25.777344 "/>
</clipPath>
<clipPath id="clip40">
  <path d="M 331 196 L 500 196 L 500 381 L 331 381 Z M 331 196 "/>
</clipPath>
<clipPath id="clip41">
  <path d="M 215.667969 122.847656 L 614.964844 122.847656 L 614.964844 454.128906 L 215.667969 454.128906 Z M 215.667969 122.847656 L 410.8125 254.804688 C 410.8125 266.289062 401.507812 275.59375 390.023438 275.59375 C 378.542969 275.59375 369.238281 266.289062 369.238281 254.804688 C 369.238281 243.324219 378.542969 234.015625 390.023438 234.015625 C 401.507812 234.015625 410.8125 243.324219 410.8125 254.804688 Z M 215.667969 122.847656 "/>
</clipPath>
<clipPath id="clip42">
  <path d="M 215.667969 122.847656 L 614.964844 122.847656 L 614.964844 454.128906 L 215.667969 454.128906 Z M 215.667969 122.847656 L 461.394531 322.167969 C 461.394531 333.652344 452.089844 342.957031 440.605469 342.957031 C 429.125 342.957031 419.816406 333.652344 419.816406 322.167969 C 419.816406 310.6875 429.125 301.378906 440.605469 301.378906 C 452.089844 301.378906 461.394531 310.6875 461.394531 322.167969 Z M 215.667969 122.847656 "/>
</clipPath>
<clipPath id="clip43">
  <path d="M 331 117 L 566 117 L 566 314 L 331 314 Z M 331 117 "/>
</clipPath>
<clipPath id="clip44">
  <path d="M 267.296875 -4.230469 L 629.21875 -4.230469 L 629.21875 435.714844 L 267.296875 435.714844 Z M 267.296875 -4.230469 L 410.8125 254.804688 C 410.8125 266.289062 401.507812 275.59375 390.023438 275.59375 C 378.542969 275.59375 369.238281 266.289062 369.238281 254.804688 C 369.238281 243.324219 378.542969 234.015625 390.023438 234.015625 C 401.507812 234.015625 410.8125 243.324219 410.8125 254.804688 Z M 267.296875 -4.230469 "/>
</clipPath>
<clipPath id="clip45">
  <path d="M 267.296875 -4.230469 L 629.21875 -4.230469 L 629.21875 435.714844 L 267.296875 435.714844 Z M 267.296875 -4.230469 L 527.277344 176.675781 C 527.277344 188.15625 517.96875 197.464844 506.488281 197.464844 C 495.007812 197.464844 485.699219 188.15625 485.699219 176.675781 C 485.699219 165.195312 495.007812 155.886719 506.488281 155.886719 C 517.96875 155.886719 527.277344 165.195312 527.277344 176.675781 Z M 267.296875 -4.230469 "/>
</clipPath>
<clipPath id="clip46">
  <path d="M 331 66 L 564 66 L 564 314 L 331 314 Z M 331 66 "/>
</clipPath>
<clipPath id="clip47">
  <path d="M 226.605469 -20.230469 L 668.417969 -20.230469 L 668.417969 400.160156 L 226.605469 400.160156 Z M 226.605469 -20.230469 L 410.8125 254.804688 C 410.8125 266.289062 401.507812 275.59375 390.023438 275.59375 C 378.542969 275.59375 369.238281 266.289062 369.238281 254.804688 C 369.238281 243.324219 378.542969 234.015625 390.023438 234.015625 C 401.507812 234.015625 410.8125 243.324219 410.8125 254.804688 Z M 226.605469 -20.230469 "/>
</clipPath>
<clipPath id="clip48">
  <path d="M 226.605469 -20.230469 L 668.417969 -20.230469 L 668.417969 400.160156 L 226.605469 400.160156 Z M 226.605469 -20.230469 L 525.785156 125.121094 C 525.785156 136.601562 516.480469 145.910156 504.996094 145.910156 C 493.515625 145.910156 484.207031 136.601562 484.207031 125.121094 C 484.207031 113.640625 493.515625 104.332031 504.996094 104.332031 C 516.480469 104.332031 525.785156 113.640625 525.785156 125.121094 Z M 226.605469 -20.230469 "/>
</clipPath>
<clipPath id="clip49">
  <path d="M 238 111 L 397 111 L 397 299 L 238 299 Z M 238 111 "/>
</clipPath>
<clipPath id="clip50">
  <path d="M 108.484375 59.667969 L 526.308594 59.667969 L 526.308594 350.359375 L 108.484375 350.359375 Z M 108.484375 59.667969 L 358.386719 169.84375 C 358.386719 181.328125 349.078125 190.632812 337.597656 190.632812 C 326.113281 190.632812 316.808594 181.328125 316.808594 169.84375 C 316.808594 158.363281 326.113281 149.054688 337.597656 149.054688 C 349.078125 149.054688 358.386719 158.363281 358.386719 169.84375 Z M 108.484375 59.667969 "/>
</clipPath>
<clipPath id="clip51">
  <path d="M 108.484375 59.667969 L 526.308594 59.667969 L 526.308594 350.359375 L 108.484375 350.359375 Z M 108.484375 59.667969 L 317.980469 240.179688 C 317.980469 251.660156 308.671875 260.96875 297.191406 260.96875 C 285.710938 260.96875 276.402344 251.660156 276.402344 240.179688 C 276.402344 228.699219 285.710938 219.390625 297.191406 219.390625 C 308.671875 219.390625 317.980469 228.699219 317.980469 240.179688 Z M 108.484375 59.667969 "/>
</clipPath>
<clipPath id="clip52">
  <path d="M 140.167969 169 L 319.84375 169 L 319.84375 299 L 140.167969 299 Z M 140.167969 169 "/>
</clipPath>
<clipPath id="clip53">
  <path d="M 140.167969 12.273438 L 319.84375 12.273438 L 319.84375 456.371094 L 140.167969 456.371094 Z M 140.167969 12.273438 L 317.980469 240.179688 C 317.980469 251.660156 308.671875 260.96875 297.191406 260.96875 C 285.710938 260.96875 276.402344 251.660156 276.402344 240.179688 C 276.402344 228.699219 285.710938 219.390625 297.191406 219.390625 C 308.671875 219.390625 317.980469 228.699219 317.980469 240.179688 Z M 140.167969 12.273438 "/>
</clipPath>
<clipPath id="clip54">
  <path d="M 140.167969 12.273438 L 319.84375 12.273438 L 319.84375 456.371094 L 140.167969 456.371094 Z M 140.167969 12.273438 L 183.601562 228.460938 C 183.601562 239.941406 174.296875 249.25 162.816406 249.25 C 151.332031 249.25 142.027344 239.941406 142.027344 228.460938 C 142.027344 216.980469 151.332031 207.671875 162.816406 207.671875 C 174.296875 207.671875 183.601562 216.980469 183.601562 228.460938 Z M 140.167969 12.273438 "/>
</clipPath>
<clipPath id="clip55">
  <path d="M 32 85 L 222 85 L 222 288 L 32 288 Z M 32 85 "/>
</clipPath>
<clipPath id="clip56">
  <path d="M -75.230469 2.371094 L 329.40625 2.371094 L 329.40625 370.160156 L -75.230469 370.160156 Z M -75.230469 2.371094 L 183.601562 228.460938 C 183.601562 239.941406 174.296875 249.25 162.816406 249.25 C 151.332031 249.25 142.027344 239.941406 142.027344 228.460938 C 142.027344 216.980469 151.332031 207.671875 162.816406 207.671875 C 174.296875 207.671875 183.601562 216.980469 183.601562 228.460938 Z M -75.230469 2.371094 "/>
</clipPath>
<clipPath id="clip57">
  <path d="M -75.230469 2.371094 L 329.40625 2.371094 L 329.40625 370.160156 L -75.230469 370.160156 Z M -75.230469 2.371094 L 112.144531 144.066406 C 112.144531 155.550781 102.839844 164.855469 91.355469 164.855469 C 79.875 164.855469 70.566406 155.550781 70.566406 144.066406 C 70.566406 132.585938 79.875 123.28125 91.355469 123.28125 C 102.839844 123.28125 112.144531 132.585938 112.144531 144.066406 Z M -75.230469 2.371094 "/>
</clipPath>
<clipPath id="clip58">
  <path d="M 11 128 L 222 128 L 222 288 L 11 288 Z M 11 128 "/>
</clipPath>
<clipPath id="clip59">
  <path d="M -19.742188 -11.191406 L 253.007812 -11.191406 L 253.007812 427.296875 L -19.742188 427.296875 Z M -19.742188 -11.191406 L 183.601562 228.460938 C 183.601562 239.941406 174.296875 249.25 162.816406 249.25 C 151.332031 249.25 142.027344 239.941406 142.027344 228.460938 C 142.027344 216.980469 151.332031 207.671875 162.816406 207.671875 C 174.296875 207.671875 183.601562 216.980469 183.601562 228.460938 Z M -19.742188 -11.191406 "/>
</clipPath>
<clipPath id="clip60">
  <path d="M -19.742188 -11.191406 L 253.007812 -11.191406 L 253.007812 427.296875 L -19.742188 427.296875 Z M -19.742188 -11.191406 L 91.234375 187.640625 C 91.234375 199.121094 81.925781 208.429688 70.445312 208.429688 C 58.964844 208.429688 49.65625 199.121094 49.65625 187.640625 C 49.65625 176.160156 58.964844 166.851562 70.445312 166.851562 C 81.925781 166.851562 91.234375 176.160156 91.234375 187.640625 Z M -19.742188 -11.191406 "/>
</clipPath>
<clipPath id="clip61">
  <path d="M 41.214844 169 L 176.9375 169 L 176.9375 293 L 41.214844 293 Z M 41.214844 169 "/>
</clipPath>
<clipPath id="clip62">
  <path d="M 41.214844 11.699219 L 176.9375 11.699219 L 176.9375 450.261719 L 41.214844 450.261719 Z M 41.214844 11.699219 L 183.601562 228.460938 C 183.601562 239.941406 174.296875 249.25 162.816406 249.25 C 151.332031 249.25 142.027344 239.941406 142.027344 228.460938 C 142.027344 216.980469 151.332031 207.671875 162.816406 207.671875 C 174.296875 207.671875 183.601562 216.980469 183.601562 228.460938 Z M 41.214844 11.699219 "/>
</clipPath>
<clipPath id="clip63">
  <path d="M 41.214844 11.699219 L 176.9375 11.699219 L 176.9375 450.261719 L 41.214844 450.261719 Z M 41.214844 11.699219 L 76.121094 233.496094 C 76.121094 244.976562 66.816406 254.285156 55.332031 254.285156 C 43.851562 254.285156 34.542969 244.976562 34.542969 233.496094 C 34.542969 222.015625 43.851562 212.707031 55.332031 212.707031 C 66.816406 212.707031 76.121094 222.015625 76.121094 233.496094 Z M 41.214844 11.699219 "/>
</clipPath>
<clipPath id="clip64">
  <path d="M 11 85 L 151 85 L 151 247 L 11 247 Z M 11 85 "/>
</clipPath>
<clipPath id="clip65">
  <path d="M -125.597656 47.828125 L 287.402344 47.828125 L 287.402344 283.882812 L -125.597656 283.882812 Z M -125.597656 47.828125 L 112.144531 144.066406 C 112.144531 155.550781 102.839844 164.855469 91.355469 164.855469 C 79.875 164.855469 70.566406 155.550781 70.566406 144.066406 C 70.566406 132.585938 79.875 123.28125 91.355469 123.28125 C 102.839844 123.28125 112.144531 132.585938 112.144531 144.066406 Z M -125.597656 47.828125 "/>
</clipPath>
<clipPath id="clip66">
  <path d="M -125.597656 47.828125 L 287.402344 47.828125 L 287.402344 283.882812 L -125.597656 283.882812 Z M -125.597656 47.828125 L 91.234375 187.640625 C 91.234375 199.121094 81.925781 208.429688 70.445312 208.429688 C 58.964844 208.429688 49.65625 199.121094 49.65625 187.640625 C 49.65625 176.160156 58.964844 166.851562 70.445312 166.851562 C 81.925781 166.851562 91.234375 176.160156 91.234375 187.640625 Z M -125.597656 47.828125 "/>
</clipPath>
<clipPath id="clip67">
  <path d="M 0 128 L 130 128 L 130 293 L 0 293 Z M 0 128 "/>
</clipPath>
<clipPath id="clip68">
  <path d="M -150.964844 116.863281 L 276.746094 116.863281 L 276.746094 304.277344 L -150.964844 304.277344 Z M -150.964844 116.863281 L 91.234375 187.640625 C 91.234375 199.121094 81.925781 208.429688 70.445312 208.429688 C 58.964844 208.429688 49.65625 199.121094 49.65625 187.640625 C 49.65625 176.160156 58.964844 166.851562 70.445312 166.851562 C 81.925781 166.851562 91.234375 176.160156 91.234375 187.640625 Z M -150.964844 116.863281 "/>
</clipPath>
<clipPath id="clip69">
  <path d="M -150.964844 116.863281 L 276.746094 116.863281 L 276.746094 304.277344 L -150.964844 304.277344 Z M -150.964844 116.863281 L 76.121094 233.496094 C 76.121094 244.976562 66.816406 254.285156 55.332031 254.285156 C 43.851562 254.285156 34.542969 244.976562 34.542969 233.496094 C 34.542969 222.015625 43.851562 212.707031 55.332031 212.707031 C 66.816406 212.707031 76.121094 222.015625 76.121094 233.496094 Z M -150.964844 116.863281 "/>
</clipPath>
<clipPath id="clip70">
  <path d="M 446 114.808594 L 566 114.808594 L 566 186.992188 L 446 186.992188 Z M 446 114.808594 "/>
</clipPath>
<clipPath id="clip71">
  <path d="M 288.089844 114.808594 L 723.398438 114.808594 L 723.398438 186.992188 L 288.089844 186.992188 Z M 288.089844 114.808594 L 527.277344 176.675781 C 527.277344 188.15625 517.96875 197.464844 506.488281 197.464844 C 495.007812 197.464844 485.699219 188.15625 485.699219 176.675781 C 485.699219 165.195312 495.007812 155.886719 506.488281 155.886719 C 517.96875 155.886719 527.277344 165.195312 527.277344 176.675781 Z M 288.089844 114.808594 "/>
</clipPath>
<clipPath id="clip72">
  <path d="M 288.089844 114.808594 L 723.398438 114.808594 L 723.398438 186.992188 L 288.089844 186.992188 Z M 288.089844 114.808594 L 525.785156 125.121094 C 525.785156 136.601562 516.480469 145.910156 504.996094 145.910156 C 493.515625 145.910156 484.207031 136.601562 484.207031 125.121094 C 484.207031 113.640625 493.515625 104.332031 504.996094 104.332031 C 516.480469 104.332031 525.785156 113.640625 525.785156 125.121094 Z M 288.089844 114.808594 "/>
</clipPath>
<clipPath id="clip73">
  <path d="M 446 0 L 600 0 L 600 184 L 446 184 Z M 446 0 "/>
</clipPath>
<clipPath id="clip74">
  <path d="M 309.039062 -53.769531 L 740.628906 -53.769531 L 740.628906 221.542969 L 309.039062 221.542969 Z M 309.039062 -53.769531 L 525.785156 125.121094 C 525.785156 136.601562 516.480469 145.910156 504.996094 145.910156 C 493.515625 145.910156 484.207031 136.601562 484.207031 125.121094 C 484.207031 113.640625 493.515625 104.332031 504.996094 104.332031 C 516.480469 104.332031 525.785156 113.640625 525.785156 125.121094 Z M 309.039062 -53.769531 "/>
</clipPath>
<clipPath id="clip75">
  <path d="M 309.039062 -53.769531 L 740.628906 -53.769531 L 740.628906 221.542969 L 309.039062 221.542969 Z M 309.039062 -53.769531 L 565.457031 42.648438 C 565.457031 54.128906 556.148438 63.4375 544.667969 63.4375 C 533.183594 63.4375 523.878906 54.128906 523.878906 42.648438 C 523.878906 31.167969 533.183594 21.859375 544.667969 21.859375 C 556.148438 21.859375 565.457031 31.167969 565.457031 42.648438 Z M 309.039062 -53.769531 "/>
</clipPath>
</defs>
<g id="surface401">
<g clip-path="url(#clip1)" clip-rule="nonzero">
<g clip-path="url(#clip2)" clip-rule="evenodd">
<g clip-path="url(#clip3)" clip-rule="evenodd">
<path style="fill:none;stroke-width:0.0195348;stroke-linecap:butt;stroke-linejoin:miter;stroke:rgb(17.96875%,20.3125%,21.09375%);stroke-opacity:0.8;stroke-miterlimit:10;" d="M 2.017788 2.538363 L 2.429614 3.1888 " transform="matrix(212.837899,0,0,212.837899,-70.719499,-188.103699)"/>
</g>
</g>
</g>
<g clip-path="url(#clip4)" clip-rule="nonzero">
<g clip-path="url(#clip5)" clip-rule="evenodd">
<g clip-path="url(#clip6)" clip-rule="evenodd">
<path style="fill:none;stroke-width:0.0195348;stroke-linecap:butt;stroke-linejoin:miter;stroke:rgb(17.96875%,20.3125%,21.09375%);stroke-opacity:0.8;stroke-miterlimit:10;" d="M 2.017788 2.538363 L 2.310429 3.246025 " transform="matrix(212.837899,0,0,212.837899,-70.719499,-188.103699)"/>
</g>
</g>
</g>
<g clip-path="url(#clip7)" clip-rule="nonzero">
<g clip-path="url(#clip8)" clip-rule="evenodd">
<g clip-path="url(#clip9)" clip-rule="evenodd">
<path style="fill:none;stroke-width:0.0195348;stroke-linecap:butt;stroke-linejoin:miter;stroke:rgb(17.96875%,20.3125%,21.09375%);stroke-opacity:0.8;stroke-miterlimit:10;" d="M 2.017788 2.538363 L 2.16476 2.080966 " transform="matrix(212.837899,0,0,212.837899,-70.719499,-188.103699)"/>
</g>
</g>
</g>
<g clip-path="url(#clip10)" clip-rule="nonzero">
<g clip-path="url(#clip11)" clip-rule="evenodd">
<g clip-path="url(#clip12)" clip-rule="evenodd">
<path style="fill:none;stroke-width:0.0195348;stroke-linecap:butt;stroke-linejoin:miter;stroke:rgb(17.96875%,20.3125%,21.09375%);stroke-opacity:0.8;stroke-miterlimit:10;" d="M 2.017788 2.538363 L 1.728597 2.012252 " transform="matrix(212.837899,0,0,212.837899,-70.719499,-188.103699)"/>
</g>
</g>
</g>
<g clip-path="url(#clip13)" clip-rule="nonzero">
<g clip-path="url(#clip14)" clip-rule="evenodd">
<g clip-path="url(#clip15)" clip-rule="evenodd">
<path style="fill:none;stroke-width:0.0195348;stroke-linecap:butt;stroke-linejoin:miter;stroke:rgb(17.96875%,20.3125%,21.09375%);stroke-opacity:0.8;stroke-miterlimit:10;" d="M 2.017788 2.538363 L 2.402415 2.397466 " transform="matrix(212.837899,0,0,212.837899,-70.719499,-188.103699)"/>
</g>
</g>
</g>
<g clip-path="url(#clip16)" clip-rule="nonzero">
<g clip-path="url(#clip17)" clip-rule="evenodd">
<g clip-path="url(#clip18)" clip-rule="evenodd">
<path style="fill:none;stroke-width:0.0195348;stroke-linecap:butt;stroke-linejoin:miter;stroke:rgb(17.96875%,20.3125%,21.09375%);stroke-opacity:0.8;stroke-miterlimit:10;" d="M 2.017788 2.538363 L 1.097248 1.957192 " transform="matrix(212.837899,0,0,212.837899,-70.719499,-188.103699)"/>
</g>
</g>
</g>
<g clip-path="url(#clip19)" clip-rule="nonzero">
<g clip-path="url(#clip20)" clip-rule="evenodd">
<g clip-path="url(#clip21)" clip-rule="evenodd">
<path style="fill:none;stroke-width:0.0195348;stroke-linecap:butt;stroke-linejoin:miter;stroke:rgb(17.96875%,20.3125%,21.09375%);stroke-opacity:0.8;stroke-miterlimit:10;" d="M 2.429614 3.1888 L 2.525381 3.502455 " transform="matrix(212.837899,0,0,212.837899,-70.719499,-188.103699)"/>
</g>
</g>
</g>
<g clip-path="url(#clip22)" clip-rule="nonzero">
<g clip-path="url(#clip23)" clip-rule="evenodd">
<g clip-path="url(#clip24)" clip-rule="evenodd">
<path style="fill:none;stroke-width:0.0195348;stroke-linecap:butt;stroke-linejoin:miter;stroke:rgb(17.96875%,20.3125%,21.09375%);stroke-opacity:0.8;stroke-miterlimit:10;" d="M 2.429614 3.1888 L 2.310429 3.246025 " transform="matrix(212.837899,0,0,212.837899,-70.719499,-188.103699)"/>
</g>
</g>
</g>
<g clip-path="url(#clip25)" clip-rule="nonzero">
<g clip-path="url(#clip26)" clip-rule="evenodd">
<g clip-path="url(#clip27)" clip-rule="evenodd">
<path style="fill:none;stroke-width:0.0195348;stroke-linecap:butt;stroke-linejoin:miter;stroke:rgb(17.96875%,20.3125%,21.09375%);stroke-opacity:0.8;stroke-miterlimit:10;" d="M 2.525381 3.502455 L 2.310429 3.246025 " transform="matrix(212.837899,0,0,212.837899,-70.719499,-188.103699)"/>
</g>
</g>
</g>
<g clip-path="url(#clip28)" clip-rule="nonzero">
<g clip-path="url(#clip29)" clip-rule="evenodd">
<g clip-path="url(#clip30)" clip-rule="evenodd">
<path style="fill:none;stroke-width:0.0195348;stroke-linecap:butt;stroke-linejoin:miter;stroke:rgb(17.96875%,20.3125%,21.09375%);stroke-opacity:0.8;stroke-miterlimit:10;" d="M 1.410279 2.942665 L 2.16476 2.080966 " transform="matrix(212.837899,0,0,212.837899,-70.719499,-188.103699)"/>
</g>
</g>
</g>
<g clip-path="url(#clip31)" clip-rule="nonzero">
<g clip-path="url(#clip32)" clip-rule="evenodd">
<g clip-path="url(#clip33)" clip-rule="evenodd">
<path style="fill:none;stroke-width:0.0195348;stroke-linecap:butt;stroke-linejoin:miter;stroke:rgb(17.96875%,20.3125%,21.09375%);stroke-opacity:0.8;stroke-miterlimit:10;" d="M 1.410279 2.942665 L 1.050282 3.348326 " transform="matrix(212.837899,0,0,212.837899,-70.719499,-188.103699)"/>
</g>
</g>
</g>
<g clip-path="url(#clip34)" clip-rule="nonzero">
<g clip-path="url(#clip35)" clip-rule="evenodd">
<g clip-path="url(#clip36)" clip-rule="evenodd">
<path style="fill:none;stroke-width:0.0195348;stroke-linecap:butt;stroke-linejoin:miter;stroke:rgb(17.96875%,20.3125%,21.09375%);stroke-opacity:0.8;stroke-miterlimit:10;" d="M 2.16476 2.080966 L 1.918442 1.681784 " transform="matrix(212.837899,0,0,212.837899,-70.719499,-188.103699)"/>
</g>
</g>
</g>
<g clip-path="url(#clip37)" clip-rule="nonzero">
<g clip-path="url(#clip38)" clip-rule="evenodd">
<g clip-path="url(#clip39)" clip-rule="evenodd">
<path style="fill:none;stroke-width:0.0195348;stroke-linecap:butt;stroke-linejoin:miter;stroke:rgb(17.96875%,20.3125%,21.09375%);stroke-opacity:0.8;stroke-miterlimit:10;" d="M 2.16476 2.080966 L 1.728597 2.012252 " transform="matrix(212.837899,0,0,212.837899,-70.719499,-188.103699)"/>
</g>
</g>
</g>
<g clip-path="url(#clip40)" clip-rule="nonzero">
<g clip-path="url(#clip41)" clip-rule="evenodd">
<g clip-path="url(#clip42)" clip-rule="evenodd">
<path style="fill:none;stroke-width:0.0195348;stroke-linecap:butt;stroke-linejoin:miter;stroke:rgb(17.96875%,20.3125%,21.09375%);stroke-opacity:0.8;stroke-miterlimit:10;" d="M 2.16476 2.080966 L 2.402415 2.397466 " transform="matrix(212.837899,0,0,212.837899,-70.719499,-188.103699)"/>
</g>
</g>
</g>
<g clip-path="url(#clip43)" clip-rule="nonzero">
<g clip-path="url(#clip44)" clip-rule="evenodd">
<g clip-path="url(#clip45)" clip-rule="evenodd">
<path style="fill:none;stroke-width:0.0195348;stroke-linecap:butt;stroke-linejoin:miter;stroke:rgb(17.96875%,20.3125%,21.09375%);stroke-opacity:0.8;stroke-miterlimit:10;" d="M 2.16476 2.080966 L 2.71196 1.713884 " transform="matrix(212.837899,0,0,212.837899,-70.719499,-188.103699)"/>
</g>
</g>
</g>
<g clip-path="url(#clip46)" clip-rule="nonzero">
<g clip-path="url(#clip47)" clip-rule="evenodd">
<g clip-path="url(#clip48)" clip-rule="evenodd">
<path style="fill:none;stroke-width:0.0195348;stroke-linecap:butt;stroke-linejoin:miter;stroke:rgb(17.96875%,20.3125%,21.09375%);stroke-opacity:0.8;stroke-miterlimit:10;" d="M 2.16476 2.080966 L 2.704949 1.471659 " transform="matrix(212.837899,0,0,212.837899,-70.719499,-188.103699)"/>
</g>
</g>
</g>
<g clip-path="url(#clip49)" clip-rule="nonzero">
<g clip-path="url(#clip50)" clip-rule="evenodd">
<g clip-path="url(#clip51)" clip-rule="evenodd">
<path style="fill:none;stroke-width:0.0195348;stroke-linecap:butt;stroke-linejoin:miter;stroke:rgb(17.96875%,20.3125%,21.09375%);stroke-opacity:0.8;stroke-miterlimit:10;" d="M 1.918442 1.681784 L 1.728597 2.012252 " transform="matrix(212.837899,0,0,212.837899,-70.719499,-188.103699)"/>
</g>
</g>
</g>
<g clip-path="url(#clip52)" clip-rule="nonzero">
<g clip-path="url(#clip53)" clip-rule="evenodd">
<g clip-path="url(#clip54)" clip-rule="evenodd">
<path style="fill:none;stroke-width:0.0195348;stroke-linecap:butt;stroke-linejoin:miter;stroke:rgb(17.96875%,20.3125%,21.09375%);stroke-opacity:0.8;stroke-miterlimit:10;" d="M 1.728597 2.012252 L 1.097248 1.957192 " transform="matrix(212.837899,0,0,212.837899,-70.719499,-188.103699)"/>
</g>
</g>
</g>
<g clip-path="url(#clip55)" clip-rule="nonzero">
<g clip-path="url(#clip56)" clip-rule="evenodd">
<g clip-path="url(#clip57)" clip-rule="evenodd">
<path style="fill:none;stroke-width:0.0195348;stroke-linecap:butt;stroke-linejoin:miter;stroke:rgb(17.96875%,20.3125%,21.09375%);stroke-opacity:0.8;stroke-miterlimit:10;" d="M 1.097248 1.957192 L 0.761495 1.560672 " transform="matrix(212.837899,0,0,212.837899,-70.719499,-188.103699)"/>
</g>
</g>
</g>
<g clip-path="url(#clip58)" clip-rule="nonzero">
<g clip-path="url(#clip59)" clip-rule="evenodd">
<g clip-path="url(#clip60)" clip-rule="evenodd">
<path style="fill:none;stroke-width:0.0195348;stroke-linecap:butt;stroke-linejoin:miter;stroke:rgb(17.96875%,20.3125%,21.09375%);stroke-opacity:0.8;stroke-miterlimit:10;" d="M 1.097248 1.957192 L 0.66325 1.765401 " transform="matrix(212.837899,0,0,212.837899,-70.719499,-188.103699)"/>
</g>
</g>
</g>
<g clip-path="url(#clip61)" clip-rule="nonzero">
<g clip-path="url(#clip62)" clip-rule="evenodd">
<g clip-path="url(#clip63)" clip-rule="evenodd">
<path style="fill:none;stroke-width:0.0195348;stroke-linecap:butt;stroke-linejoin:miter;stroke:rgb(17.96875%,20.3125%,21.09375%);stroke-opacity:0.8;stroke-miterlimit:10;" d="M 1.097248 1.957192 L 0.592242 1.980849 " transform="matrix(212.837899,0,0,212.837899,-70.719499,-188.103699)"/>
</g>
</g>
</g>
<g clip-path="url(#clip64)" clip-rule="nonzero">
<g clip-path="url(#clip65)" clip-rule="evenodd">
<g clip-path="url(#clip66)" clip-rule="evenodd">
<path style="fill:none;stroke-width:0.0195348;stroke-linecap:butt;stroke-linejoin:miter;stroke:rgb(17.96875%,20.3125%,21.09375%);stroke-opacity:0.8;stroke-miterlimit:10;" d="M 0.761495 1.560672 L 0.66325 1.765401 " transform="matrix(212.837899,0,0,212.837899,-70.719499,-188.103699)"/>
</g>
</g>
</g>
<g clip-path="url(#clip67)" clip-rule="nonzero">
<g clip-path="url(#clip68)" clip-rule="evenodd">
<g clip-path="url(#clip69)" clip-rule="evenodd">
<path style="fill:none;stroke-width:0.0195348;stroke-linecap:butt;stroke-linejoin:miter;stroke:rgb(17.96875%,20.3125%,21.09375%);stroke-opacity:0.8;stroke-miterlimit:10;" d="M 0.66325 1.765401 L 0.592242 1.980849 " transform="matrix(212.837899,0,0,212.837899,-70.719499,-188.103699)"/>
</g>
</g>
</g>
<g clip-path="url(#clip70)" clip-rule="nonzero">
<g clip-path="url(#clip71)" clip-rule="evenodd">
<g clip-path="url(#clip72)" clip-rule="evenodd">
<path style="fill:none;stroke-width:0.0195348;stroke-linecap:butt;stroke-linejoin:miter;stroke:rgb(17.96875%,20.3125%,21.09375%);stroke-opacity:0.8;stroke-miterlimit:10;" d="M 2.71196 1.713884 L 2.704949 1.471659 " transform="matrix(212.837899,0,0,212.837899,-70.719499,-188.103699)"/>
</g>
</g>
</g>
<g clip-path="url(#clip73)" clip-rule="nonzero">
<g clip-path="url(#clip74)" clip-rule="evenodd">
<g clip-path="url(#clip75)" clip-rule="evenodd">
<path style="fill:none;stroke-width:0.0195348;stroke-linecap:butt;stroke-linejoin:miter;stroke:rgb(17.96875%,20.3125%,21.09375%);stroke-opacity:0.8;stroke-miterlimit:10;" d="M 2.704949 1.471659 L 2.891343 1.084168 " transform="matrix(212.837899,0,0,212.837899,-70.719499,-188.103699)"/>
</g>
</g>
</g>
<path style="fill-rule:nonzero;fill:rgb(100%,92.941176%,43.529412%);fill-opacity:1;stroke-width:0.0195348;stroke-linecap:butt;stroke-linejoin:miter;stroke:rgb(60%,60%,60%);stroke-opacity:0.8;stroke-miterlimit:10;" d="M 0.0976738 0.000000525101 C 0.0976738 0.0539405 0.0539382 0.0976761 -0.00000172289 0.0976761 C -0.0539417 0.0976761 -0.0976773 0.0539405 -0.0976773 0.000000525101 C -0.0976773 -0.0539394 -0.0539417 -0.097675 -0.00000172289 -0.097675 C 0.0539382 -0.097675 0.0976738 -0.0539394 0.0976738 0.000000525101 Z M 0.0976738 0.000000525101 " transform="matrix(212.837899,0,0,212.837899,358.742554,352.156138)"/>
<path style="fill-rule:nonzero;fill:rgb(100%,92.941176%,43.529412%);fill-opacity:1;stroke-width:0.0195348;stroke-linecap:butt;stroke-linejoin:miter;stroke:rgb(60%,60%,60%);stroke-opacity:0.8;stroke-miterlimit:10;" d="M 0.097666 -0.00000741595 C 0.097666 0.0539509 0.0539487 0.0976682 0.00000876052 0.0976682 C -0.0539496 0.0976682 -0.0976668 0.0539509 -0.0976668 -0.00000741595 C -0.0976668 -0.0539474 -0.0539496 -0.097683 0.00000876052 -0.097683 C 0.0539487 -0.097683 0.097666 -0.0539474 0.097666 -0.00000741595 Z M 0.097666 -0.00000741595 " transform="matrix(212.837899,0,0,212.837899,446.392667,490.595328)"/>
<path style="fill-rule:nonzero;fill:rgb(100%,92.941176%,43.529412%);fill-opacity:1;stroke-width:0.0195348;stroke-linecap:butt;stroke-linejoin:miter;stroke:rgb(60%,60%,60%);stroke-opacity:0.8;stroke-miterlimit:10;" d="M 0.0976742 0.00000293065 C 0.0976742 0.0539429 0.0539386 0.0976785 -0.00000137931 0.0976785 C -0.0539413 0.0976785 -0.0976769 0.0539429 -0.0976769 0.00000293065 C -0.0976769 -0.053937 -0.0539413 -0.0976726 -0.00000137931 -0.0976726 C 0.0539386 -0.0976726 0.0976742 -0.053937 0.0976742 0.00000293065 Z M 0.0976742 0.00000293065 " transform="matrix(212.837899,0,0,212.837899,466.777637,557.350939)"/>
<path style="fill-rule:nonzero;fill:rgb(100%,92.941176%,43.529412%);fill-opacity:1;stroke-width:0.0195348;stroke-linecap:butt;stroke-linejoin:miter;stroke:rgb(60%,60%,60%);stroke-opacity:0.8;stroke-miterlimit:10;" d="M 0.0976664 -0.00000364922 C 0.0976664 0.0539363 0.0539492 0.0976719 -0.00000914759 0.0976719 C -0.0539491 0.0976719 -0.0976664 0.0539363 -0.0976664 -0.00000364922 C -0.0976664 -0.0539436 -0.0539491 -0.0976792 -0.00000914759 -0.0976792 C 0.0539492 -0.0976792 0.0976664 -0.0539436 0.0976664 -0.00000364922 Z M 0.0976664 -0.00000364922 " transform="matrix(212.837899,0,0,212.837899,421.029291,502.774214)"/>
<path style="fill-rule:nonzero;fill:rgb(100%,92.941176%,43.529412%);fill-opacity:1;stroke-width:0.0195348;stroke-linecap:butt;stroke-linejoin:miter;stroke:rgb(60%,60%,60%);stroke-opacity:0.8;stroke-miterlimit:10;" d="M 0.0976794 0.00000767862 C 0.0976794 0.0539476 0.0539438 0.0976832 0.00000383309 0.0976832 C -0.0539361 0.0976832 -0.0976717 0.0539476 -0.0976717 0.00000767862 C -0.0976717 -0.0539506 -0.0539361 -0.0976679 0.00000383309 -0.0976679 C 0.0539438 -0.0976679 0.0976794 -0.0539506 0.0976794 0.00000767862 Z M 0.0976794 0.00000767862 " transform="matrix(212.837899,0,0,212.837899,229.44059,438.205397)"/>
<path style="fill-rule:nonzero;fill:rgb(100%,92.941176%,43.529412%);fill-opacity:1;stroke-width:0.0195348;stroke-linecap:butt;stroke-linejoin:miter;stroke:rgb(60%,60%,60%);stroke-opacity:0.8;stroke-miterlimit:10;" d="M 0.0976666 -0.00000635324 C 0.0976666 0.053952 0.0539493 0.0976692 -0.00000900241 0.0976692 C -0.053949 0.0976692 -0.0976662 0.053952 -0.0976662 -0.00000635324 C -0.0976662 -0.0539463 -0.053949 -0.0976819 -0.00000900241 -0.0976819 C 0.0539493 -0.0976819 0.0976666 -0.0539463 0.0976666 -0.00000635324 Z M 0.0976666 -0.00000635324 " transform="matrix(212.837899,0,0,212.837899,390.025354,254.80604)"/>
<path style="fill-rule:nonzero;fill:rgb(100%,92.941176%,43.529412%);fill-opacity:1;stroke-width:0.0195348;stroke-linecap:butt;stroke-linejoin:miter;stroke:rgb(60%,60%,60%);stroke-opacity:0.8;stroke-miterlimit:10;" d="M 0.0976818 -0.00000136096 C 0.0976818 0.0539386 0.0539462 0.0976742 0.00000626036 0.0976742 C -0.0539521 0.0976742 -0.0976693 0.0539386 -0.0976693 -0.00000136096 C -0.0976693 -0.0539413 -0.0539521 -0.0976769 0.00000626036 -0.0976769 C 0.0539462 -0.0976769 0.0976818 -0.0539413 0.0976818 -0.00000136096 Z M 0.0976818 -0.00000136096 " transform="matrix(212.837899,0,0,212.837899,152.81898,524.547165)"/>
<path style="fill-rule:nonzero;fill:rgb(55.294118%,82.745098%,78.039216%);fill-opacity:1;stroke-width:0.0195348;stroke-linecap:butt;stroke-linejoin:miter;stroke:rgb(60%,60%,60%);stroke-opacity:0.8;stroke-miterlimit:10;" d="M 0.0976828 -0.00000535036 C 0.0976828 0.053953 0.0539472 0.0976702 0.00000718912 0.0976702 C -0.0539511 0.0976702 -0.0976684 0.053953 -0.0976684 -0.00000535036 C -0.0976684 -0.0539453 -0.0539511 -0.0976809 0.00000718912 -0.0976809 C 0.0539472 -0.0976809 0.0976828 -0.0539453 0.0976828 -0.00000535036 Z M 0.0976828 -0.00000535036 " transform="matrix(212.837899,0,0,212.837899,337.596126,169.844889)"/>
<path style="fill-rule:nonzero;fill:rgb(55.294118%,82.745098%,78.039216%);fill-opacity:1;stroke-width:0.0195348;stroke-linecap:butt;stroke-linejoin:miter;stroke:rgb(60%,60%,60%);stroke-opacity:0.8;stroke-miterlimit:10;" d="M 0.0976717 0.00000390207 C 0.0976717 0.0539439 0.0539361 0.0976795 -0.00000381764 0.0976795 C -0.0539438 0.0976795 -0.0976794 0.0539439 -0.0976794 0.00000390207 C -0.0976794 -0.0539361 -0.0539438 -0.0976717 -0.00000381764 -0.0976717 C 0.0539361 -0.0976717 0.0976717 -0.0539361 0.0976717 0.00000390207 Z M 0.0976717 0.00000390207 " transform="matrix(212.837899,0,0,212.837899,297.192219,240.178857)"/>
<path style="fill-rule:nonzero;fill:rgb(100%,92.941176%,43.529412%);fill-opacity:1;stroke-width:0.0195348;stroke-linecap:butt;stroke-linejoin:miter;stroke:rgb(60%,60%,60%);stroke-opacity:0.8;stroke-miterlimit:10;" d="M 0.0976688 -0.0000061613 C 0.0976688 0.0539522 0.0539516 0.0976694 -0.00000672026 0.0976694 C -0.0539467 0.0976694 -0.0976823 0.0539522 -0.0976823 -0.0000061613 C -0.0976823 -0.0539461 -0.0539467 -0.0976817 -0.00000672026 -0.0976817 C 0.0539516 -0.0976817 0.0976688 -0.0539461 0.0976688 -0.0000061613 Z M 0.0976688 -0.0000061613 " transform="matrix(212.837899,0,0,212.837899,440.606899,322.16928)"/>
<path style="fill-rule:nonzero;fill:rgb(55.294118%,82.745098%,78.039216%);fill-opacity:1;stroke-width:0.0195348;stroke-linecap:butt;stroke-linejoin:miter;stroke:rgb(60%,60%,60%);stroke-opacity:0.8;stroke-miterlimit:10;" d="M 0.097665 -0.0000025985 C 0.097665 0.0539374 0.0539478 0.097673 0.00000780727 0.097673 C -0.0539505 0.097673 -0.0976678 0.0539374 -0.0976678 -0.0000025985 C -0.0976678 -0.0539426 -0.0539505 -0.0976782 0.00000780727 -0.0976782 C 0.0539478 -0.0976782 0.097665 -0.0539426 0.097665 -0.0000025985 Z M 0.097665 -0.0000025985 " transform="matrix(212.837899,0,0,212.837899,162.814745,228.461491)"/>
<path style="fill-rule:nonzero;fill:rgb(55.294118%,82.745098%,78.039216%);fill-opacity:1;stroke-width:0.0195348;stroke-linecap:butt;stroke-linejoin:miter;stroke:rgb(60%,60%,60%);stroke-opacity:0.8;stroke-miterlimit:10;" d="M 0.09767 -0.00000893118 C 0.09767 0.0539494 0.0539528 0.0976666 -0.00000556735 0.0976666 C -0.0539455 0.0976666 -0.0976811 0.0539494 -0.0976811 -0.00000893118 C -0.0976811 -0.0539489 -0.0539455 -0.0976661 -0.00000556735 -0.0976661 C 0.0539528 -0.0976661 0.09767 -0.0539489 0.09767 -0.00000893118 Z M 0.09767 -0.00000893118 " transform="matrix(212.837899,0,0,212.837899,91.356654,144.068307)"/>
<path style="fill-rule:nonzero;fill:rgb(55.294118%,82.745098%,78.039216%);fill-opacity:1;stroke-width:0.0195348;stroke-linecap:butt;stroke-linejoin:miter;stroke:rgb(60%,60%,60%);stroke-opacity:0.8;stroke-miterlimit:10;" d="M 0.0976705 0.00000454832 C 0.0976705 0.0539445 0.0539349 0.0976801 -0.00000506018 0.0976801 C -0.053945 0.0976801 -0.0976806 0.0539445 -0.0976806 0.00000454832 C -0.0976806 -0.0539354 -0.053945 -0.097671 -0.00000506018 -0.097671 C 0.0539349 -0.097671 0.0976705 -0.0539354 0.0976705 0.00000454832 Z M 0.0976705 0.00000454832 " transform="matrix(212.837899,0,0,212.837899,70.446389,187.639657)"/>
<path style="fill-rule:nonzero;fill:rgb(55.294118%,82.745098%,78.039216%);fill-opacity:1;stroke-width:0.0195348;stroke-linecap:butt;stroke-linejoin:miter;stroke:rgb(60%,60%,60%);stroke-opacity:0.8;stroke-miterlimit:10;" d="M 0.097668 -0.00000381098 C 0.097668 0.0539362 0.0539507 0.0976718 -0.00000757841 0.0976718 C -0.0539475 0.0976718 -0.0976831 0.0539362 -0.0976831 -0.00000381098 C -0.0976831 -0.0539438 -0.0539475 -0.0976794 -0.00000757841 -0.0976794 C 0.0539507 -0.0976794 0.097668 -0.0539438 0.097668 -0.00000381098 Z M 0.097668 -0.00000381098 " transform="matrix(212.837899,0,0,212.837899,55.333644,233.496905)"/>
<path style="fill-rule:nonzero;fill:rgb(100%,92.941176%,43.529412%);fill-opacity:1;stroke-width:0.0195348;stroke-linecap:butt;stroke-linejoin:miter;stroke:rgb(60%,60%,60%);stroke-opacity:0.8;stroke-miterlimit:10;" d="M 0.0976746 0.00000343595 C 0.0976746 0.0539434 0.053939 0.097679 -0.00000096243 0.097679 C -0.0539409 0.097679 -0.0976765 0.0539434 -0.0976765 0.00000343595 C -0.0976765 -0.0539365 -0.0539409 -0.0976721 -0.00000096243 -0.0976721 C 0.053939 -0.0976721 0.0976746 -0.0539365 0.0976746 0.00000343595 Z M 0.0976746 0.00000343595 " transform="matrix(212.837899,0,0,212.837899,506.488486,176.67505)"/>
<path style="fill-rule:nonzero;fill:rgb(100%,92.941176%,43.529412%);fill-opacity:1;stroke-width:0.0195348;stroke-linecap:butt;stroke-linejoin:miter;stroke:rgb(60%,60%,60%);stroke-opacity:0.8;stroke-miterlimit:10;" d="M 0.0976694 -0.000000607232 C 0.0976694 0.0539394 0.0539521 0.097675 -0.00000620877 0.097675 C -0.0539462 0.097675 -0.0976818 0.0539394 -0.0976818 -0.000000607232 C -0.0976818 -0.0539406 -0.0539462 -0.0976762 -0.00000620877 -0.0976762 C 0.0539521 -0.0976762 0.0976694 -0.0539406 0.0976694 -0.000000607232 Z M 0.0976694 -0.000000607232 " transform="matrix(212.837899,0,0,212.837899,504.997415,125.121223)"/>
<path style="fill-rule:nonzero;fill:rgb(100%,92.941176%,43.529412%);fill-opacity:1;stroke-width:0.0195348;stroke-linecap:butt;stroke-linejoin:miter;stroke:rgb(60%,60%,60%);stroke-opacity:0.8;stroke-miterlimit:10;" d="M 0.0976831 -0.00000293065 C 0.0976831 0.053937 0.0539475 0.0976726 0.00000757841 0.0976726 C -0.0539507 0.0976726 -0.097668 0.053937 -0.097668 -0.00000293065 C -0.097668 -0.0539429 -0.0539507 -0.0976785 0.00000757841 -0.0976785 C 0.0539475 -0.0976785 0.0976831 -0.0539429 0.0976831 -0.00000293065 Z M 0.0976831 -0.00000293065 " transform="matrix(212.837899,0,0,212.837899,544.666356,42.649061)"/>
</g>
</svg>
