<?xml version="1.0" encoding="UTF-8"?>
<svg xmlns="http://www.w3.org/2000/svg" xmlns:xlink="http://www.w3.org/1999/xlink" width="600pt" height="600pt" viewBox="0 0 600 600" version="1.1">
<defs>
<clipPath id="clip1">
  <path d="M 381 420 L 569 420 L 569 586 L 381 586 Z M 381 420 "/>
</clipPath>
<clipPath id="clip2">
  <path d="M 323.582031 314.488281 L 626.824219 314.488281 L 626.824219 691.425781 L 323.582031 691.425781 Z M 323.582031 314.488281 L 531.605469 477.609375 C 531.605469 488.765625 522.5625 497.8125 511.402344 497.8125 C 500.246094 497.8125 491.199219 488.765625 491.199219 477.609375 C 491.199219 466.449219 500.246094 457.40625 511.402344 457.40625 C 522.5625 457.40625 531.605469 466.449219 531.605469 477.609375 Z M 323.582031 314.488281 "/>
</clipPath>
<clipPath id="clip3">
  <path d="M 323.582031 314.488281 L 626.824219 314.488281 L 626.824219 691.425781 L 323.582031 691.425781 Z M 323.582031 314.488281 L 459.203125 528.300781 C 459.203125 539.457031 450.15625 548.503906 439 548.503906 C 427.839844 548.503906 418.796875 539.457031 418.796875 528.300781 C 418.796875 517.144531 427.839844 508.097656 439 508.097656 C 450.15625 508.097656 459.203125 517.144531 459.203125 528.300781 Z M 323.582031 314.488281 "/>
</clipPath>
<clipPath id="clip4">
  <path d="M 454 375 L 600 375 L 600 535 L 454 535 Z M 454 375 "/>
</clipPath>
<clipPath id="clip5">
  <path d="M 373.03125 288.574219 L 696.503906 288.574219 L 696.503906 621.890625 L 373.03125 621.890625 Z M 373.03125 288.574219 L 531.605469 477.609375 C 531.605469 488.765625 522.5625 497.8125 511.402344 497.8125 C 500.246094 497.8125 491.199219 488.765625 491.199219 477.609375 C 491.199219 466.449219 500.246094 457.40625 511.402344 457.40625 C 522.5625 457.40625 531.605469 466.449219 531.605469 477.609375 Z M 373.03125 288.574219 "/>
</clipPath>
<clipPath id="clip6">
  <path d="M 373.03125 288.574219 L 696.503906 288.574219 L 696.503906 621.890625 L 373.03125 621.890625 Z M 373.03125 288.574219 L 578.332031 432.851562 C 578.332031 444.011719 569.289062 453.054688 558.128906 453.054688 C 546.972656 453.054688 537.925781 444.011719 537.925781 432.851562 C 537.925781 421.695312 546.972656 412.648438 558.128906 412.648438 C 569.289062 412.648438 578.332031 421.695312 578.332031 432.851562 Z M 373.03125 288.574219 "/>
</clipPath>
<clipPath id="clip7">
  <path d="M 293 471 L 497 471 L 497 600 L 293 600 Z M 293 471 "/>
</clipPath>
<clipPath id="clip8">
  <path d="M 286.132812 339.804688 L 503.769531 339.804688 L 503.769531 745.804688 L 286.132812 745.804688 Z M 286.132812 339.804688 L 371.101562 557.304688 C 371.101562 568.460938 362.058594 577.507812 350.898438 577.507812 C 339.742188 577.507812 330.695312 568.460938 330.695312 557.304688 C 330.695312 546.144531 339.742188 537.101562 350.898438 537.101562 C 362.058594 537.101562 371.101562 546.144531 371.101562 557.304688 Z M 286.132812 339.804688 "/>
</clipPath>
<clipPath id="clip9">
  <path d="M 286.132812 339.804688 L 503.769531 339.804688 L 503.769531 745.804688 L 286.132812 745.804688 Z M 286.132812 339.804688 L 459.203125 528.300781 C 459.203125 539.457031 450.15625 548.503906 439 548.503906 C 427.839844 548.503906 418.796875 539.457031 418.796875 528.300781 C 418.796875 517.144531 427.839844 508.097656 439 508.097656 C 450.15625 508.097656 459.203125 517.144531 459.203125 528.300781 Z M 286.132812 339.804688 "/>
</clipPath>
<clipPath id="clip10">
  <path d="M 218.363281 481 L 396.367188 481 L 396.367188 600 L 218.363281 600 Z M 218.363281 481 "/>
</clipPath>
<clipPath id="clip11">
  <path d="M 218.363281 344.527344 L 396.367188 344.527344 L 396.367188 751.074219 L 218.363281 751.074219 Z M 218.363281 344.527344 L 371.101562 557.304688 C 371.101562 568.460938 362.058594 577.507812 350.898438 577.507812 C 339.742188 577.507812 330.695312 568.460938 330.695312 557.304688 C 330.695312 546.144531 339.742188 537.101562 350.898438 537.101562 C 362.058594 537.101562 371.101562 546.144531 371.101562 557.304688 Z M 218.363281 344.527344 "/>
</clipPath>
<clipPath id="clip12">
  <path d="M 218.363281 344.527344 L 396.367188 344.527344 L 396.367188 751.074219 L 218.363281 751.074219 Z M 218.363281 344.527344 L 284.03125 538.292969 C 284.03125 549.453125 274.984375 558.496094 263.828125 558.496094 C 252.667969 558.496094 243.625 549.453125 243.625 538.292969 C 243.625 527.136719 252.667969 518.089844 263.828125 518.089844 C 274.984375 518.089844 284.03125 527.136719 284.03125 538.292969 Z M 218.363281 344.527344 "/>
</clipPath>
<clipPath id="clip13">
  <path d="M 99 118.171875 L 219 118.171875 L 219 309.800781 L 99 309.800781 Z M 99 118.171875 "/>
</clipPath>
<clipPath id="clip14">
  <path d="M -41.757812 118.171875 L 359.835938 118.171875 L 359.835938 309.800781 L -41.757812 309.800781 Z M -41.757812 118.171875 L 181.894531 128.21875 C 181.894531 139.378906 172.851562 148.421875 161.691406 148.421875 C 150.535156 148.421875 141.488281 139.378906 141.488281 128.21875 C 141.488281 117.0625 150.535156 108.015625 161.691406 108.015625 C 172.851562 108.015625 181.894531 117.0625 181.894531 128.21875 Z M -41.757812 118.171875 "/>
</clipPath>
<clipPath id="clip15">
  <path d="M -41.757812 118.171875 L 359.835938 118.171875 L 359.835938 309.800781 L -41.757812 309.800781 Z M -41.757812 118.171875 L 176.585938 299.75 C 176.585938 310.910156 167.539062 319.953125 156.382812 319.953125 C 145.226562 319.953125 136.179688 310.910156 136.179688 299.75 C 136.179688 288.59375 145.226562 279.546875 156.382812 279.546875 C 167.539062 279.546875 176.585938 288.59375 176.585938 299.75 Z M -41.757812 118.171875 "/>
</clipPath>
<clipPath id="clip16">
  <path d="M 104 14.820312 L 230 14.820312 L 230 156.097656 L 104 156.097656 Z M 104 14.820312 "/>
</clipPath>
<clipPath id="clip17">
  <path d="M -35.074219 14.820312 L 369.039062 14.820312 L 369.039062 156.097656 L -35.074219 156.097656 Z M -35.074219 14.820312 L 181.894531 128.21875 C 181.894531 139.378906 172.851562 148.421875 161.691406 148.421875 C 150.535156 148.421875 141.488281 139.378906 141.488281 128.21875 C 141.488281 117.0625 150.535156 108.015625 161.691406 108.015625 C 172.851562 108.015625 181.894531 117.0625 181.894531 128.21875 Z M -35.074219 14.820312 "/>
</clipPath>
<clipPath id="clip18">
  <path d="M -35.074219 14.820312 L 369.039062 14.820312 L 369.039062 156.097656 L -35.074219 156.097656 Z M -35.074219 14.820312 L 192.472656 42.695312 C 192.472656 53.855469 183.425781 62.898438 172.269531 62.898438 C 161.109375 62.898438 152.066406 53.855469 152.066406 42.695312 C 152.066406 31.539062 161.109375 22.492188 172.269531 22.492188 C 183.425781 22.492188 192.472656 31.539062 192.472656 42.695312 Z M -35.074219 14.820312 "/>
</clipPath>
<clipPath id="clip19">
  <path d="M 145 397 L 321 397 L 321 596 L 145 596 Z M 145 397 "/>
</clipPath>
<clipPath id="clip20">
  <path d="M 41.980469 336.492188 L 424.921875 336.492188 L 424.921875 656.558594 L 41.980469 656.558594 Z M 41.980469 336.492188 L 223.273438 454.753906 C 223.273438 465.910156 214.230469 474.957031 203.070312 474.957031 C 191.914062 474.957031 182.867188 465.910156 182.867188 454.753906 C 182.867188 443.59375 191.914062 434.550781 203.070312 434.550781 C 214.230469 434.550781 223.273438 443.59375 223.273438 454.753906 Z M 41.980469 336.492188 "/>
</clipPath>
<clipPath id="clip21">
  <path d="M 41.980469 336.492188 L 424.921875 336.492188 L 424.921875 656.558594 L 41.980469 656.558594 Z M 41.980469 336.492188 L 284.03125 538.292969 C 284.03125 549.453125 274.984375 558.496094 263.828125 558.496094 C 252.667969 558.496094 243.625 549.453125 243.625 538.292969 C 243.625 527.136719 252.667969 518.089844 263.828125 518.089844 C 274.984375 518.089844 284.03125 527.136719 284.03125 538.292969 Z M 41.980469 336.492188 "/>
</clipPath>
<clipPath id="clip22">
  <path d="M 99 242 L 261 242 L 261 512 L 99 512 Z M 99 242 "/>
</clipPath>
<clipPath id="clip23">
  <path d="M -33.601562 239.703125 L 393.058594 239.703125 L 393.058594 514.804688 L -33.601562 514.804688 Z M -33.601562 239.703125 L 223.273438 454.753906 C 223.273438 465.910156 214.230469 474.957031 203.070312 474.957031 C 191.914062 474.957031 182.867188 465.910156 182.867188 454.753906 C 182.867188 443.59375 191.914062 434.550781 203.070312 434.550781 C 214.230469 434.550781 223.273438 443.59375 223.273438 454.753906 Z M -33.601562 239.703125 "/>
</clipPath>
<clipPath id="clip24">
  <path d="M -33.601562 239.703125 L 393.058594 239.703125 L 393.058594 514.804688 L -33.601562 514.804688 Z M -33.601562 239.703125 L 176.585938 299.75 C 176.585938 310.910156 167.539062 319.953125 156.382812 319.953125 C 145.226562 319.953125 136.179688 310.910156 136.179688 299.75 C 136.179688 288.59375 145.226562 279.546875 156.382812 279.546875 C 167.539062 279.546875 176.585938 288.59375 176.585938 299.75 Z M -33.601562 239.703125 "/>
</clipPath>
<clipPath id="clip25">
  <path d="M 30 242 L 214 242 L 214 457 L 30 457 Z M 30 242 "/>
</clipPath>
<clipPath id="clip26">
  <path d="M -76.203125 185.308594 L 320.1875 185.308594 L 320.1875 513.734375 L -76.203125 513.734375 Z M -76.203125 185.308594 L 176.585938 299.75 C 176.585938 310.910156 167.539062 319.953125 156.382812 319.953125 C 145.226562 319.953125 136.179688 310.910156 136.179688 299.75 C 136.179688 288.59375 145.226562 279.546875 156.382812 279.546875 C 167.539062 279.546875 176.585938 288.59375 176.585938 299.75 Z M -76.203125 185.308594 "/>
</clipPath>
<clipPath id="clip27">
  <path d="M -76.203125 185.308594 L 320.1875 185.308594 L 320.1875 513.734375 L -76.203125 513.734375 Z M -76.203125 185.308594 L 107.800781 399.289062 C 107.800781 410.449219 98.757812 419.492188 87.597656 419.492188 C 76.441406 419.492188 67.394531 410.449219 67.394531 399.289062 C 67.394531 388.132812 76.441406 379.085938 87.597656 379.085938 C 98.757812 379.085938 107.800781 388.132812 107.800781 399.289062 Z M -76.203125 185.308594 "/>
</clipPath>
<clipPath id="clip28">
  <path d="M 72 196 L 214 196 L 214 357 L 72 357 Z M 72 196 "/>
</clipPath>
<clipPath id="clip29">
  <path d="M -42.3125 152.523438 L 328.507812 152.523438 L 328.507812 401.058594 L -42.3125 401.058594 Z M -42.3125 152.523438 L 176.585938 299.75 C 176.585938 310.910156 167.539062 319.953125 156.382812 319.953125 C 145.226562 319.953125 136.179688 310.910156 136.179688 299.75 C 136.179688 288.59375 145.226562 279.546875 156.382812 279.546875 C 167.539062 279.546875 176.585938 288.59375 176.585938 299.75 Z M -42.3125 152.523438 "/>
</clipPath>
<clipPath id="clip30">
  <path d="M -42.3125 152.523438 L 328.507812 152.523438 L 328.507812 401.058594 L -42.3125 401.058594 Z M -42.3125 152.523438 L 150.011719 253.828125 C 150.011719 264.984375 140.964844 274.03125 129.808594 274.03125 C 118.648438 274.03125 109.605469 264.984375 109.605469 253.828125 C 109.605469 242.667969 118.648438 233.625 129.808594 233.625 C 140.964844 233.625 150.011719 242.667969 150.011719 253.828125 Z M -42.3125 152.523438 "/>
</clipPath>
<clipPath id="clip31">
  <path d="M 22 216 L 214 216 L 214 357 L 22 357 Z M 22 216 "/>
</clipPath>
<clipPath id="clip32">
  <path d="M 13.082031 85.820312 L 223.242188 85.820312 L 223.242188 487.550781 L 13.082031 487.550781 Z M 13.082031 85.820312 L 176.585938 299.75 C 176.585938 310.910156 167.539062 319.953125 156.382812 319.953125 C 145.226562 319.953125 136.179688 310.910156 136.179688 299.75 C 136.179688 288.59375 145.226562 279.546875 156.382812 279.546875 C 167.539062 279.546875 176.585938 288.59375 176.585938 299.75 Z M 13.082031 85.820312 "/>
</clipPath>
<clipPath id="clip33">
  <path d="M 13.082031 85.820312 L 223.242188 85.820312 L 223.242188 487.550781 L 13.082031 487.550781 Z M 13.082031 85.820312 L 100.140625 273.617188 C 100.140625 284.773438 91.097656 293.820312 79.9375 293.820312 C 68.78125 293.820312 59.734375 284.773438 59.734375 273.617188 C 59.734375 262.460938 68.78125 253.414062 79.9375 253.414062 C 91.097656 253.414062 100.140625 262.460938 100.140625 273.617188 Z M 13.082031 85.820312 "/>
</clipPath>
<clipPath id="clip34">
  <path d="M 99 178 L 311 178 L 311 357 L 99 357 Z M 99 178 "/>
</clipPath>
<clipPath id="clip35">
  <path d="M 45.503906 69.476562 L 364.511719 69.476562 L 364.511719 465.957031 L 45.503906 465.957031 Z M 45.503906 69.476562 L 176.585938 299.75 C 176.585938 310.910156 167.539062 319.953125 156.382812 319.953125 C 145.226562 319.953125 136.179688 310.910156 136.179688 299.75 C 136.179688 288.59375 145.226562 279.546875 156.382812 279.546875 C 167.539062 279.546875 176.585938 288.59375 176.585938 299.75 Z M 45.503906 69.476562 "/>
</clipPath>
<clipPath id="clip36">
  <path d="M 45.503906 69.476562 L 364.511719 69.476562 L 364.511719 465.957031 L 45.503906 465.957031 Z M 45.503906 69.476562 L 273.832031 235.679688 C 273.832031 246.835938 264.785156 255.882812 253.628906 255.882812 C 242.472656 255.882812 233.425781 246.835938 233.425781 235.679688 C 233.425781 224.523438 242.472656 215.476562 253.628906 215.476562 C 264.785156 215.476562 273.832031 224.523438 273.832031 235.679688 Z M 45.503906 69.476562 "/>
</clipPath>
<clipPath id="clip37">
  <path d="M 401 0 L 546 0 L 546 158 L 401 158 Z M 401 0 "/>
</clipPath>
<clipPath id="clip38">
  <path d="M 290.804688 -54.109375 L 655.582031 -54.109375 L 655.582031 208.992188 L 290.804688 208.992188 Z M 290.804688 -54.109375 L 508.074219 54.453125 C 508.074219 65.609375 499.027344 74.65625 487.871094 74.65625 C 476.710938 74.65625 467.667969 65.609375 467.667969 54.453125 C 467.667969 43.292969 476.710938 34.25 487.871094 34.25 C 499.027344 34.25 508.074219 43.292969 508.074219 54.453125 Z M 290.804688 -54.109375 "/>
</clipPath>
<clipPath id="clip39">
  <path d="M 290.804688 -54.109375 L 655.582031 -54.109375 L 655.582031 208.992188 L 290.804688 208.992188 Z M 290.804688 -54.109375 L 478.714844 100.425781 C 478.714844 111.585938 469.667969 120.628906 458.511719 120.628906 C 447.351562 120.628906 438.308594 111.585938 438.308594 100.425781 C 438.308594 89.269531 447.351562 80.222656 458.511719 80.222656 C 469.667969 80.222656 478.714844 89.269531 478.714844 100.425781 Z M 290.804688 -54.109375 "/>
</clipPath>
<clipPath id="clip40">
  <path d="M 350 43 L 516 43 L 516 234 L 350 234 Z M 350 43 "/>
</clipPath>
<clipPath id="clip41">
  <path d="M 242.078125 -11.550781 L 623.992188 -11.550781 L 623.992188 288.621094 L 242.078125 288.621094 Z M 242.078125 -11.550781 L 478.714844 100.425781 C 478.714844 111.585938 469.667969 120.628906 458.511719 120.628906 C 447.351562 120.628906 438.308594 111.585938 438.308594 100.425781 C 438.308594 89.269531 447.351562 80.222656 458.511719 80.222656 C 469.667969 80.222656 478.714844 89.269531 478.714844 100.425781 Z M 242.078125 -11.550781 "/>
</clipPath>
<clipPath id="clip42">
  <path d="M 242.078125 -11.550781 L 623.992188 -11.550781 L 623.992188 288.621094 L 242.078125 288.621094 Z M 242.078125 -11.550781 L 427.757812 176.640625 C 427.757812 187.796875 418.710938 196.84375 407.554688 196.84375 C 396.398438 196.84375 387.351562 187.796875 387.351562 176.640625 C 387.351562 165.480469 396.398438 156.4375 407.554688 156.4375 C 418.710938 156.4375 427.757812 165.480469 427.757812 176.640625 Z M 242.078125 -11.550781 "/>
</clipPath>
<clipPath id="clip43">
  <path d="M 350 119 L 546 119 L 546 260 L 350 260 Z M 350 119 "/>
</clipPath>
<clipPath id="clip44">
  <path d="M 344.75 -12.488281 L 551.480469 -12.488281 L 551.480469 391.527344 L 344.75 391.527344 Z M 344.75 -12.488281 L 427.757812 176.640625 C 427.757812 187.796875 418.710938 196.84375 407.554688 196.84375 C 396.398438 196.84375 387.351562 187.796875 387.351562 176.640625 C 387.351562 165.480469 396.398438 156.4375 407.554688 156.4375 C 418.710938 156.4375 427.757812 165.480469 427.757812 176.640625 Z M 344.75 -12.488281 "/>
</clipPath>
<clipPath id="clip45">
  <path d="M 344.75 -12.488281 L 551.480469 -12.488281 L 551.480469 391.527344 L 344.75 391.527344 Z M 344.75 -12.488281 L 508.875 202.394531 C 508.875 213.550781 499.828125 222.597656 488.671875 222.597656 C 477.515625 222.597656 468.46875 213.550781 468.46875 202.394531 C 468.46875 191.238281 477.515625 182.191406 488.671875 182.191406 C 499.828125 182.191406 508.875 191.238281 508.875 202.394531 Z M 344.75 -12.488281 "/>
</clipPath>
<clipPath id="clip46">
  <path d="M 196 119 L 465 119 L 465 293 L 196 293 Z M 196 119 "/>
</clipPath>
<clipPath id="clip47">
  <path d="M 180.042969 -8.714844 L 481.144531 -8.714844 L 481.144531 421.039062 L 180.042969 421.039062 Z M 180.042969 -8.714844 L 427.757812 176.640625 C 427.757812 187.796875 418.710938 196.84375 407.554688 196.84375 C 396.398438 196.84375 387.351562 187.796875 387.351562 176.640625 C 387.351562 165.480469 396.398438 156.4375 407.554688 156.4375 C 418.710938 156.4375 427.757812 165.480469 427.757812 176.640625 Z M 180.042969 -8.714844 "/>
</clipPath>
<clipPath id="clip48">
  <path d="M 180.042969 -8.714844 L 481.144531 -8.714844 L 481.144531 421.039062 L 180.042969 421.039062 Z M 180.042969 -8.714844 L 273.832031 235.679688 C 273.832031 246.835938 264.785156 255.882812 253.628906 255.882812 C 242.472656 255.882812 233.425781 246.835938 233.425781 235.679688 C 233.425781 224.523438 242.472656 215.476562 253.628906 215.476562 C 264.785156 215.476562 273.832031 224.523438 273.832031 235.679688 Z M 180.042969 -8.714844 "/>
</clipPath>
<clipPath id="clip49">
  <path d="M 22.199219 189 L 149.484375 189 L 149.484375 311 L 22.199219 311 Z M 22.199219 189 "/>
</clipPath>
<clipPath id="clip50">
  <path d="M 22.199219 49.121094 L 149.484375 49.121094 L 149.484375 451.4375 L 22.199219 451.4375 Z M 22.199219 49.121094 L 62.074219 246.726562 C 62.074219 257.882812 53.027344 266.929688 41.871094 266.929688 C 30.710938 266.929688 21.667969 257.882812 21.667969 246.726562 C 21.667969 235.566406 30.710938 226.523438 41.871094 226.523438 C 53.027344 226.523438 62.074219 235.566406 62.074219 246.726562 Z M 22.199219 49.121094 "/>
</clipPath>
<clipPath id="clip51">
  <path d="M 22.199219 49.121094 L 149.484375 49.121094 L 149.484375 451.4375 L 22.199219 451.4375 Z M 22.199219 49.121094 L 150.011719 253.828125 C 150.011719 264.984375 140.964844 274.03125 129.808594 274.03125 C 118.648438 274.03125 109.605469 264.984375 109.605469 253.828125 C 109.605469 242.667969 118.648438 233.625 129.808594 233.625 C 140.964844 233.625 150.011719 242.667969 150.011719 253.828125 Z M 22.199219 49.121094 "/>
</clipPath>
<clipPath id="clip52">
  <path d="M 0 189 L 138 189 L 138 331 L 0 331 Z M 0 189 "/>
</clipPath>
<clipPath id="clip53">
  <path d="M -74.214844 84.074219 L 196.027344 84.074219 L 196.027344 436.273438 L -74.214844 436.273438 Z M -74.214844 84.074219 L 62.074219 246.726562 C 62.074219 257.882812 53.027344 266.929688 41.871094 266.929688 C 30.710938 266.929688 21.667969 257.882812 21.667969 246.726562 C 21.667969 235.566406 30.710938 226.523438 41.871094 226.523438 C 53.027344 226.523438 62.074219 235.566406 62.074219 246.726562 Z M -74.214844 84.074219 "/>
</clipPath>
<clipPath id="clip54">
  <path d="M -74.214844 84.074219 L 196.027344 84.074219 L 196.027344 436.273438 L -74.214844 436.273438 Z M -74.214844 84.074219 L 100.140625 273.617188 C 100.140625 284.773438 91.097656 293.820312 79.9375 293.820312 C 68.78125 293.820312 59.734375 284.773438 59.734375 273.617188 C 59.734375 262.460938 68.78125 253.414062 79.9375 253.414062 C 91.097656 253.414062 100.140625 262.460938 100.140625 273.617188 Z M -74.214844 84.074219 "/>
</clipPath>
<clipPath id="clip55">
  <path d="M 22 196 L 187 196 L 187 331 L 22 331 Z M 22 196 "/>
</clipPath>
<clipPath id="clip56">
  <path d="M 4.273438 69.285156 L 205.476562 69.285156 L 205.476562 458.164062 L 4.273438 458.164062 Z M 4.273438 69.285156 L 150.011719 253.828125 C 150.011719 264.984375 140.964844 274.03125 129.808594 274.03125 C 118.648438 274.03125 109.605469 264.984375 109.605469 253.828125 C 109.605469 242.667969 118.648438 233.625 129.808594 233.625 C 140.964844 233.625 150.011719 242.667969 150.011719 253.828125 Z M 4.273438 69.285156 "/>
</clipPath>
<clipPath id="clip57">
  <path d="M 4.273438 69.285156 L 205.476562 69.285156 L 205.476562 458.164062 L 4.273438 458.164062 Z M 4.273438 69.285156 L 100.140625 273.617188 C 100.140625 284.773438 91.097656 293.820312 79.9375 293.820312 C 68.78125 293.820312 59.734375 284.773438 59.734375 273.617188 C 59.734375 262.460938 68.78125 253.414062 79.9375 253.414062 C 91.097656 253.414062 100.140625 262.460938 100.140625 273.617188 Z M 4.273438 69.285156 "/>
</clipPath>
<clipPath id="clip58">
  <path d="M 97.605469 178 L 285.835938 178 L 285.835938 311 L 97.605469 311 Z M 97.605469 178 "/>
</clipPath>
<clipPath id="clip59">
  <path d="M 97.605469 39.496094 L 285.835938 39.496094 L 285.835938 450.015625 L 97.605469 450.015625 Z M 97.605469 39.496094 L 150.011719 253.828125 C 150.011719 264.984375 140.964844 274.03125 129.808594 274.03125 C 118.648438 274.03125 109.605469 264.984375 109.605469 253.828125 C 109.605469 242.667969 118.648438 233.625 129.808594 233.625 C 140.964844 233.625 150.011719 242.667969 150.011719 253.828125 Z M 97.605469 39.496094 "/>
</clipPath>
<clipPath id="clip60">
  <path d="M 97.605469 39.496094 L 285.835938 39.496094 L 285.835938 450.015625 L 97.605469 450.015625 Z M 97.605469 39.496094 L 273.832031 235.679688 C 273.832031 246.835938 264.785156 255.882812 253.628906 255.882812 C 242.472656 255.882812 233.425781 246.835938 233.425781 235.679688 C 233.425781 224.523438 242.472656 215.476562 253.628906 215.476562 C 264.785156 215.476562 273.832031 224.523438 273.832031 235.679688 Z M 97.605469 39.496094 "/>
</clipPath>
</defs>
<g id="surface391">
<g clip-path="url(#clip1)" clip-rule="nonzero">
<g clip-path="url(#clip2)" clip-rule="evenodd">
<g clip-path="url(#clip3)" clip-rule="evenodd">
<path style="fill:none;stroke-width:0.0208068;stroke-linecap:butt;stroke-linejoin:miter;stroke:rgb(17.96875%,20.3125%,21.09375%);stroke-opacity:0.8;stroke-miterlimit:10;" d="M 3.461117 3.248291 L 3.088286 3.509323 " transform="matrix(194.196312,0,0,194.196312,-160.733824,-153.196712)"/>
</g>
</g>
</g>
<g clip-path="url(#clip4)" clip-rule="nonzero">
<g clip-path="url(#clip5)" clip-rule="evenodd">
<g clip-path="url(#clip6)" clip-rule="evenodd">
<path style="fill:none;stroke-width:0.0208068;stroke-linecap:butt;stroke-linejoin:miter;stroke:rgb(17.96875%,20.3125%,21.09375%);stroke-opacity:0.8;stroke-miterlimit:10;" d="M 3.461117 3.248291 L 3.701732 3.017814 " transform="matrix(194.196312,0,0,194.196312,-160.733824,-153.196712)"/>
</g>
</g>
</g>
<g clip-path="url(#clip7)" clip-rule="nonzero">
<g clip-path="url(#clip8)" clip-rule="evenodd">
<g clip-path="url(#clip9)" clip-rule="evenodd">
<path style="fill:none;stroke-width:0.0208068;stroke-linecap:butt;stroke-linejoin:miter;stroke:rgb(17.96875%,20.3125%,21.09375%);stroke-opacity:0.8;stroke-miterlimit:10;" d="M 2.634614 3.658676 L 3.088286 3.509323 " transform="matrix(194.196312,0,0,194.196312,-160.733824,-153.196712)"/>
</g>
</g>
</g>
<g clip-path="url(#clip10)" clip-rule="nonzero">
<g clip-path="url(#clip11)" clip-rule="evenodd">
<g clip-path="url(#clip12)" clip-rule="evenodd">
<path style="fill:none;stroke-width:0.0208068;stroke-linecap:butt;stroke-linejoin:miter;stroke:rgb(17.96875%,20.3125%,21.09375%);stroke-opacity:0.8;stroke-miterlimit:10;" d="M 2.634614 3.658676 L 2.186251 3.560777 " transform="matrix(194.196312,0,0,194.196312,-160.733824,-153.196712)"/>
</g>
</g>
</g>
<g clip-path="url(#clip13)" clip-rule="nonzero">
<g clip-path="url(#clip14)" clip-rule="evenodd">
<g clip-path="url(#clip15)" clip-rule="evenodd">
<path style="fill:none;stroke-width:0.0208068;stroke-linecap:butt;stroke-linejoin:miter;stroke:rgb(17.96875%,20.3125%,21.09375%);stroke-opacity:0.8;stroke-miterlimit:10;" d="M 1.660306 1.449129 L 1.632969 2.332417 " transform="matrix(194.196312,0,0,194.196312,-160.733824,-153.196712)"/>
</g>
</g>
</g>
<g clip-path="url(#clip16)" clip-rule="nonzero">
<g clip-path="url(#clip17)" clip-rule="evenodd">
<g clip-path="url(#clip18)" clip-rule="evenodd">
<path style="fill:none;stroke-width:0.0208068;stroke-linecap:butt;stroke-linejoin:miter;stroke:rgb(17.96875%,20.3125%,21.09375%);stroke-opacity:0.8;stroke-miterlimit:10;" d="M 1.660306 1.449129 L 1.714777 1.008732 " transform="matrix(194.196312,0,0,194.196312,-160.733824,-153.196712)"/>
</g>
</g>
</g>
<g clip-path="url(#clip19)" clip-rule="nonzero">
<g clip-path="url(#clip20)" clip-rule="evenodd">
<g clip-path="url(#clip21)" clip-rule="evenodd">
<path style="fill:none;stroke-width:0.0208068;stroke-linecap:butt;stroke-linejoin:miter;stroke:rgb(17.96875%,20.3125%,21.09375%);stroke-opacity:0.8;stroke-miterlimit:10;" d="M 1.873383 3.130598 L 2.186251 3.560777 " transform="matrix(194.196312,0,0,194.196312,-160.733824,-153.196712)"/>
</g>
</g>
</g>
<g clip-path="url(#clip22)" clip-rule="nonzero">
<g clip-path="url(#clip23)" clip-rule="evenodd">
<g clip-path="url(#clip24)" clip-rule="evenodd">
<path style="fill:none;stroke-width:0.0208068;stroke-linecap:butt;stroke-linejoin:miter;stroke:rgb(17.96875%,20.3125%,21.09375%);stroke-opacity:0.8;stroke-miterlimit:10;" d="M 1.873383 3.130598 L 1.632969 2.332417 " transform="matrix(194.196312,0,0,194.196312,-160.733824,-153.196712)"/>
</g>
</g>
</g>
<g clip-path="url(#clip25)" clip-rule="nonzero">
<g clip-path="url(#clip26)" clip-rule="evenodd">
<g clip-path="url(#clip27)" clip-rule="evenodd">
<path style="fill:none;stroke-width:0.0208068;stroke-linecap:butt;stroke-linejoin:miter;stroke:rgb(17.96875%,20.3125%,21.09375%);stroke-opacity:0.8;stroke-miterlimit:10;" d="M 1.632969 2.332417 L 1.278765 2.844986 " transform="matrix(194.196312,0,0,194.196312,-160.733824,-153.196712)"/>
</g>
</g>
</g>
<g clip-path="url(#clip28)" clip-rule="nonzero">
<g clip-path="url(#clip29)" clip-rule="evenodd">
<g clip-path="url(#clip30)" clip-rule="evenodd">
<path style="fill:none;stroke-width:0.0208068;stroke-linecap:butt;stroke-linejoin:miter;stroke:rgb(17.96875%,20.3125%,21.09375%);stroke-opacity:0.8;stroke-miterlimit:10;" d="M 1.632969 2.332417 L 1.496127 2.095945 " transform="matrix(194.196312,0,0,194.196312,-160.733824,-153.196712)"/>
</g>
</g>
</g>
<g clip-path="url(#clip31)" clip-rule="nonzero">
<g clip-path="url(#clip32)" clip-rule="evenodd">
<g clip-path="url(#clip33)" clip-rule="evenodd">
<path style="fill:none;stroke-width:0.0208068;stroke-linecap:butt;stroke-linejoin:miter;stroke:rgb(17.96875%,20.3125%,21.09375%);stroke-opacity:0.8;stroke-miterlimit:10;" d="M 1.632969 2.332417 L 1.23932 2.197848 " transform="matrix(194.196312,0,0,194.196312,-160.733824,-153.196712)"/>
</g>
</g>
</g>
<g clip-path="url(#clip34)" clip-rule="nonzero">
<g clip-path="url(#clip35)" clip-rule="evenodd">
<g clip-path="url(#clip36)" clip-rule="evenodd">
<path style="fill:none;stroke-width:0.0208068;stroke-linecap:butt;stroke-linejoin:miter;stroke:rgb(17.96875%,20.3125%,21.09375%);stroke-opacity:0.8;stroke-miterlimit:10;" d="M 1.632969 2.332417 L 2.133731 2.002491 " transform="matrix(194.196312,0,0,194.196312,-160.733824,-153.196712)"/>
</g>
</g>
</g>
<g clip-path="url(#clip37)" clip-rule="nonzero">
<g clip-path="url(#clip38)" clip-rule="evenodd">
<g clip-path="url(#clip39)" clip-rule="evenodd">
<path style="fill:none;stroke-width:0.0208068;stroke-linecap:butt;stroke-linejoin:miter;stroke:rgb(17.96875%,20.3125%,21.09375%);stroke-opacity:0.8;stroke-miterlimit:10;" d="M 3.339945 1.069278 L 3.188761 1.306011 " transform="matrix(194.196312,0,0,194.196312,-160.733824,-153.196712)"/>
</g>
</g>
</g>
<g clip-path="url(#clip40)" clip-rule="nonzero">
<g clip-path="url(#clip41)" clip-rule="evenodd">
<g clip-path="url(#clip42)" clip-rule="evenodd">
<path style="fill:none;stroke-width:0.0208068;stroke-linecap:butt;stroke-linejoin:miter;stroke:rgb(17.96875%,20.3125%,21.09375%);stroke-opacity:0.8;stroke-miterlimit:10;" d="M 3.188761 1.306011 L 2.926361 1.698474 " transform="matrix(194.196312,0,0,194.196312,-160.733824,-153.196712)"/>
</g>
</g>
</g>
<g clip-path="url(#clip43)" clip-rule="nonzero">
<g clip-path="url(#clip44)" clip-rule="evenodd">
<g clip-path="url(#clip45)" clip-rule="evenodd">
<path style="fill:none;stroke-width:0.0208068;stroke-linecap:butt;stroke-linejoin:miter;stroke:rgb(17.96875%,20.3125%,21.09375%);stroke-opacity:0.8;stroke-miterlimit:10;" d="M 2.926361 1.698474 L 3.344068 1.831092 " transform="matrix(194.196312,0,0,194.196312,-160.733824,-153.196712)"/>
</g>
</g>
</g>
<g clip-path="url(#clip46)" clip-rule="nonzero">
<g clip-path="url(#clip47)" clip-rule="evenodd">
<g clip-path="url(#clip48)" clip-rule="evenodd">
<path style="fill:none;stroke-width:0.0208068;stroke-linecap:butt;stroke-linejoin:miter;stroke:rgb(17.96875%,20.3125%,21.09375%);stroke-opacity:0.8;stroke-miterlimit:10;" d="M 2.926361 1.698474 L 2.133731 2.002491 " transform="matrix(194.196312,0,0,194.196312,-160.733824,-153.196712)"/>
</g>
</g>
</g>
<g clip-path="url(#clip49)" clip-rule="nonzero">
<g clip-path="url(#clip50)" clip-rule="evenodd">
<g clip-path="url(#clip51)" clip-rule="evenodd">
<path style="fill:none;stroke-width:0.0208068;stroke-linecap:butt;stroke-linejoin:miter;stroke:rgb(17.96875%,20.3125%,21.09375%);stroke-opacity:0.8;stroke-miterlimit:10;" d="M 1.0433 2.059376 L 1.496127 2.095945 " transform="matrix(194.196312,0,0,194.196312,-160.733824,-153.196712)"/>
</g>
</g>
</g>
<g clip-path="url(#clip52)" clip-rule="nonzero">
<g clip-path="url(#clip53)" clip-rule="evenodd">
<g clip-path="url(#clip54)" clip-rule="evenodd">
<path style="fill:none;stroke-width:0.0208068;stroke-linecap:butt;stroke-linejoin:miter;stroke:rgb(17.96875%,20.3125%,21.09375%);stroke-opacity:0.8;stroke-miterlimit:10;" d="M 1.0433 2.059376 L 1.23932 2.197848 " transform="matrix(194.196312,0,0,194.196312,-160.733824,-153.196712)"/>
</g>
</g>
</g>
<g clip-path="url(#clip55)" clip-rule="nonzero">
<g clip-path="url(#clip56)" clip-rule="evenodd">
<g clip-path="url(#clip57)" clip-rule="evenodd">
<path style="fill:none;stroke-width:0.0208068;stroke-linecap:butt;stroke-linejoin:miter;stroke:rgb(17.96875%,20.3125%,21.09375%);stroke-opacity:0.8;stroke-miterlimit:10;" d="M 1.496127 2.095945 L 1.23932 2.197848 " transform="matrix(194.196312,0,0,194.196312,-160.733824,-153.196712)"/>
</g>
</g>
</g>
<g clip-path="url(#clip58)" clip-rule="nonzero">
<g clip-path="url(#clip59)" clip-rule="evenodd">
<g clip-path="url(#clip60)" clip-rule="evenodd">
<path style="fill:none;stroke-width:0.0208068;stroke-linecap:butt;stroke-linejoin:miter;stroke:rgb(17.96875%,20.3125%,21.09375%);stroke-opacity:0.8;stroke-miterlimit:10;" d="M 1.496127 2.095945 L 2.133731 2.002491 " transform="matrix(194.196312,0,0,194.196312,-160.733824,-153.196712)"/>
</g>
</g>
</g>
<path style="fill-rule:nonzero;fill:rgb(100%,92.941176%,43.529412%);fill-opacity:1;stroke-width:0.0208068;stroke-linecap:butt;stroke-linejoin:miter;stroke:rgb(60%,60%,60%);stroke-opacity:0.8;stroke-miterlimit:10;" d="M 0.104031 0.0000073717 C 0.104031 0.0574557 0.0574648 0.104042 -0.00000367059 0.104042 C -0.057452 0.104042 -0.104038 0.0574557 -0.104038 0.0000073717 C -0.104038 -0.0574611 -0.057452 -0.104027 -0.00000367059 -0.104027 C 0.0574648 -0.104027 0.104031 -0.0574611 0.104031 0.0000073717 Z M 0.104031 0.0000073717 " transform="matrix(194.196312,0,0,194.196312,511.403057,477.607943)"/>
<path style="fill-rule:nonzero;fill:rgb(100%,92.941176%,43.529412%);fill-opacity:1;stroke-width:0.0208068;stroke-linecap:butt;stroke-linejoin:miter;stroke:rgb(60%,60%,60%);stroke-opacity:0.8;stroke-miterlimit:10;" d="M 0.104029 0.0000042714 C 0.104029 0.0574526 0.0574626 0.104039 -0.00000583004 0.104039 C -0.0574541 0.104039 -0.10404 0.0574526 -0.10404 0.0000042714 C -0.10404 -0.0574642 -0.0574541 -0.10403 -0.00000583004 -0.10403 C 0.0574626 -0.10403 0.104029 -0.0574642 0.104029 0.0000042714 Z M 0.104029 0.0000042714 " transform="matrix(194.196312,0,0,194.196312,350.89957,557.303858)"/>
<path style="fill-rule:nonzero;fill:rgb(100%,92.941176%,43.529412%);fill-opacity:1;stroke-width:0.0208068;stroke-linecap:butt;stroke-linejoin:miter;stroke:rgb(60%,60%,60%);stroke-opacity:0.8;stroke-miterlimit:10;" d="M 0.104038 -0.000000154917 C 0.104038 0.0574482 0.0574519 0.104034 0.00000359943 0.104034 C -0.0574648 0.104034 -0.104031 0.0574482 -0.104031 -0.000000154917 C -0.104031 -0.0574485 -0.0574648 -0.104035 0.00000359943 -0.104035 C 0.0574519 -0.104035 0.104038 -0.0574485 0.104038 -0.000000154917 Z M 0.104038 -0.000000154917 " transform="matrix(194.196312,0,0,194.196312,438.999301,528.300811)"/>
<path style="fill-rule:nonzero;fill:rgb(100%,92.941176%,43.529412%);fill-opacity:1;stroke-width:0.0208068;stroke-linecap:butt;stroke-linejoin:miter;stroke:rgb(60%,60%,60%);stroke-opacity:0.8;stroke-miterlimit:10;" d="M 0.104029 -0.00000845314 C 0.104029 0.05746 0.0574631 0.104026 -0.00000533514 0.104026 C -0.0574536 0.104026 -0.10404 0.05746 -0.10404 -0.00000845314 C -0.10404 -0.0574568 -0.0574536 -0.104043 -0.00000533514 -0.104043 C 0.0574631 -0.104043 0.104029 -0.0574568 0.104029 -0.00000845314 Z M 0.104029 -0.00000845314 " transform="matrix(194.196312,0,0,194.196312,558.129942,432.853204)"/>
<path style="fill-rule:nonzero;fill:rgb(100%,92.941176%,43.529412%);fill-opacity:1;stroke-width:0.0208068;stroke-linecap:butt;stroke-linejoin:miter;stroke:rgb(60%,60%,60%);stroke-opacity:0.8;stroke-miterlimit:10;" d="M 0.104027 -0.00000778237 C 0.104027 0.0574606 0.0574612 0.104027 -0.00000721035 0.104027 C -0.0574555 0.104027 -0.104042 0.0574606 -0.104042 -0.00000778237 C -0.104042 -0.0574561 -0.0574555 -0.104042 -0.00000721035 -0.104042 C 0.0574612 -0.104042 0.104027 -0.0574561 0.104027 -0.00000778237 Z M 0.104027 -0.00000778237 " transform="matrix(194.196312,0,0,194.196312,161.692806,128.220261)"/>
<path style="fill-rule:nonzero;fill:rgb(100%,92.941176%,43.529412%);fill-opacity:1;stroke-width:0.0208068;stroke-linecap:butt;stroke-linejoin:miter;stroke:rgb(60%,60%,60%);stroke-opacity:0.8;stroke-miterlimit:10;" d="M 0.104032 0.00000284908 C 0.104032 0.0574512 0.057466 0.104037 -0.00000241383 0.104037 C -0.0574507 0.104037 -0.104037 0.0574512 -0.104037 0.00000284908 C -0.104037 -0.0574656 -0.0574507 -0.104032 -0.00000241383 -0.104032 C 0.057466 -0.104032 0.104032 -0.0574656 0.104032 0.00000284908 Z M 0.104032 0.00000284908 " transform="matrix(194.196312,0,0,194.196312,203.070781,454.753353)"/>
<path style="fill-rule:nonzero;fill:rgb(100%,92.941176%,43.529412%);fill-opacity:1;stroke-width:0.0208068;stroke-linecap:butt;stroke-linejoin:miter;stroke:rgb(60%,60%,60%);stroke-opacity:0.8;stroke-miterlimit:10;" d="M 0.104041 -0.00000523195 C 0.104041 0.0574632 0.0574552 0.104029 0.00000693021 0.104029 C -0.0574615 0.104029 -0.104028 0.0574632 -0.104028 -0.00000523195 C -0.104028 -0.0574535 -0.0574615 -0.10404 0.00000693021 -0.10404 C 0.0574552 -0.10404 0.104041 -0.0574535 0.104041 -0.00000523195 Z M 0.104041 -0.00000523195 " transform="matrix(194.196312,0,0,194.196312,263.826779,538.293985)"/>
<path style="fill-rule:nonzero;fill:rgb(100%,92.941176%,43.529412%);fill-opacity:1;stroke-width:0.0208068;stroke-linecap:butt;stroke-linejoin:miter;stroke:rgb(60%,60%,60%);stroke-opacity:0.8;stroke-miterlimit:10;" d="M 0.104035 -0.00000189024 C 0.104035 0.0574665 0.0574485 0.104033 0.000000177569 0.104033 C -0.0574481 0.104033 -0.104034 0.0574665 -0.104034 -0.00000189024 C -0.104034 -0.0574502 -0.0574481 -0.104036 0.000000177569 -0.104036 C 0.0574485 -0.104036 0.104035 -0.0574502 0.104035 -0.00000189024 Z M 0.104035 -0.00000189024 " transform="matrix(194.196312,0,0,194.196312,156.382778,299.750367)"/>
<path style="fill-rule:nonzero;fill:rgb(100%,92.941176%,43.529412%);fill-opacity:1;stroke-width:0.0208068;stroke-linecap:butt;stroke-linejoin:miter;stroke:rgb(60%,60%,60%);stroke-opacity:0.8;stroke-miterlimit:10;" d="M 0.10404 -0.0000042714 C 0.10404 0.0574642 0.0574541 0.10403 0.00000576324 0.10403 C -0.0574627 0.10403 -0.104029 0.0574642 -0.104029 -0.0000042714 C -0.104029 -0.0574526 -0.0574627 -0.104039 0.00000576324 -0.104039 C 0.0574541 -0.104039 0.10404 -0.0574526 0.10404 -0.0000042714 Z M 0.10404 -0.0000042714 " transform="matrix(194.196312,0,0,194.196312,172.268412,42.696142)"/>
<path style="fill-rule:nonzero;fill:rgb(100%,92.941176%,43.529412%);fill-opacity:1;stroke-width:0.0208068;stroke-linecap:butt;stroke-linejoin:miter;stroke:rgb(60%,60%,60%);stroke-opacity:0.8;stroke-miterlimit:10;" d="M 0.10403 -0.00000680776 C 0.10403 0.0574616 0.0574637 0.104028 -0.00000468006 0.104028 C -0.057453 0.104028 -0.104039 0.0574616 -0.104039 -0.00000680776 C -0.104039 -0.0574551 -0.057453 -0.104041 -0.00000468006 -0.104041 C 0.0574637 -0.104041 0.10403 -0.0574551 0.10403 -0.00000680776 Z M 0.10403 -0.00000680776 " transform="matrix(194.196312,0,0,194.196312,87.598565,399.290385)"/>
<path style="fill-rule:nonzero;fill:rgb(55.294118%,82.745098%,78.039216%);fill-opacity:1;stroke-width:0.0208068;stroke-linecap:butt;stroke-linejoin:miter;stroke:rgb(60%,60%,60%);stroke-opacity:0.8;stroke-miterlimit:10;" d="M 0.104039 0.00000965485 C 0.104039 0.057458 0.0574526 0.104044 0.00000430588 0.104044 C -0.0574641 0.104044 -0.10403 0.057458 -0.10403 0.00000965485 C -0.10403 -0.0574588 -0.0574641 -0.104025 0.00000430588 -0.104025 C 0.0574526 -0.104025 0.104039 -0.0574588 0.104039 0.00000965485 Z M 0.104039 0.00000965485 " transform="matrix(194.196312,0,0,194.196312,487.870258,54.45125)"/>
<path style="fill-rule:nonzero;fill:rgb(55.294118%,82.745098%,78.039216%);fill-opacity:1;stroke-width:0.0208068;stroke-linecap:butt;stroke-linejoin:miter;stroke:rgb(60%,60%,60%);stroke-opacity:0.8;stroke-miterlimit:10;" d="M 0.104038 -0.00000522667 C 0.104038 0.0574632 0.0574519 0.104029 0.00000360499 0.104029 C -0.0574648 0.104029 -0.104031 0.0574632 -0.104031 -0.00000522667 C -0.104031 -0.0574535 -0.0574648 -0.10404 0.00000360499 -0.10404 C 0.0574519 -0.10404 0.104038 -0.0574535 0.104038 -0.00000522667 Z M 0.104038 -0.00000522667 " transform="matrix(194.196312,0,0,194.196312,458.511019,100.426796)"/>
<path style="fill-rule:nonzero;fill:rgb(55.294118%,82.745098%,78.039216%);fill-opacity:1;stroke-width:0.0208068;stroke-linecap:butt;stroke-linejoin:miter;stroke:rgb(60%,60%,60%);stroke-opacity:0.8;stroke-miterlimit:10;" d="M 0.104035 0.0000055268 C 0.104035 0.0574538 0.0574485 0.10404 0.000000146779 0.10404 C -0.0574482 0.10404 -0.104034 0.0574538 -0.104034 0.0000055268 C -0.104034 -0.0574629 -0.0574482 -0.104029 0.000000146779 -0.104029 C 0.0574485 -0.104029 0.104035 -0.0574629 0.104035 0.0000055268 Z M 0.104035 0.0000055268 " transform="matrix(194.196312,0,0,194.196312,407.554659,176.639552)"/>
<path style="fill-rule:nonzero;fill:rgb(55.294118%,82.745098%,78.039216%);fill-opacity:1;stroke-width:0.0208068;stroke-linecap:butt;stroke-linejoin:miter;stroke:rgb(60%,60%,60%);stroke-opacity:0.8;stroke-miterlimit:10;" d="M 0.104036 0.0000012715 C 0.104036 0.0574496 0.0574499 0.104036 0.00000155935 0.104036 C -0.0574468 0.104036 -0.104033 0.0574496 -0.104033 0.0000012715 C -0.104033 -0.057447 -0.0574468 -0.104033 0.00000155935 -0.104033 C 0.0574499 -0.104033 0.104036 -0.057447 0.104036 0.0000012715 Z M 0.104036 0.0000012715 " transform="matrix(194.196312,0,0,194.196312,488.671572,202.394284)"/>
<path style="fill-rule:nonzero;fill:rgb(55.294118%,82.745098%,78.039216%);fill-opacity:1;stroke-width:0.0208068;stroke-linecap:butt;stroke-linejoin:miter;stroke:rgb(60%,60%,60%);stroke-opacity:0.8;stroke-miterlimit:10;" d="M 0.10404 0.00000543593 C 0.10404 0.0574537 0.0574536 0.10404 0.00000533514 0.10404 C -0.0574631 0.10404 -0.104029 0.0574537 -0.104029 0.00000543593 C -0.104029 -0.057463 -0.0574631 -0.104029 0.00000533514 -0.104029 C 0.0574536 -0.104029 0.10404 -0.057463 0.10404 0.00000543593 Z M 0.10404 0.00000543593 " transform="matrix(194.196312,0,0,194.196312,41.870058,246.725507)"/>
<path style="fill-rule:nonzero;fill:rgb(55.294118%,82.745098%,78.039216%);fill-opacity:1;stroke-width:0.0208068;stroke-linecap:butt;stroke-linejoin:miter;stroke:rgb(60%,60%,60%);stroke-opacity:0.8;stroke-miterlimit:10;" d="M 0.104038 0.00000398053 C 0.104038 0.0574523 0.0574521 0.104039 0.00000380655 0.104039 C -0.0574646 0.104039 -0.104031 0.0574523 -0.104031 0.00000398053 C -0.104031 -0.0574644 -0.0574646 -0.104031 0.00000380655 -0.104031 C 0.0574521 -0.104031 0.104038 -0.0574644 0.104038 0.00000398053 Z M 0.104038 0.00000398053 " transform="matrix(194.196312,0,0,194.196312,129.807855,253.827352)"/>
<path style="fill-rule:nonzero;fill:rgb(100%,92.941176%,43.529412%);fill-opacity:1;stroke-width:0.0208068;stroke-linecap:butt;stroke-linejoin:miter;stroke:rgb(60%,60%,60%);stroke-opacity:0.8;stroke-miterlimit:10;" d="M 0.104028 0.00000154069 C 0.104028 0.0574499 0.057462 0.104036 -0.00000642462 0.104036 C -0.0574547 0.104036 -0.104041 0.0574499 -0.104041 0.00000154069 C -0.104041 -0.0574468 -0.0574547 -0.104033 -0.00000642462 -0.104033 C 0.057462 -0.104033 0.104028 -0.0574468 0.104028 0.00000154069 Z M 0.104028 0.00000154069 " transform="matrix(194.196312,0,0,194.196312,79.938748,273.616888)"/>
<path style="fill-rule:nonzero;fill:rgb(55.294118%,82.745098%,78.039216%);fill-opacity:1;stroke-width:0.0208068;stroke-linecap:butt;stroke-linejoin:miter;stroke:rgb(60%,60%,60%);stroke-opacity:0.8;stroke-miterlimit:10;" d="M 0.104033 0.000000945311 C 0.104033 0.0574493 0.0574468 0.104035 -0.00000152049 0.104035 C -0.0574498 0.104035 -0.104036 0.0574493 -0.104036 0.000000945311 C -0.104036 -0.0574474 -0.0574498 -0.104034 -0.00000152049 -0.104034 C 0.0574468 -0.104034 0.104033 -0.0574474 0.104033 0.000000945311 Z M 0.104033 0.000000945311 " transform="matrix(194.196312,0,0,194.196312,253.629202,235.679504)"/>
</g>
</svg>
