<?xml version="1.0" encoding="UTF-8"?>
<svg xmlns="http://www.w3.org/2000/svg" xmlns:xlink="http://www.w3.org/1999/xlink" width="600pt" height="600pt" viewBox="0 0 600 600" version="1.1">
<defs>
<clipPath id="clip1">
  <path d="M 255 0 L 446 0 L 446 131 L 255 131 Z M 255 0 "/>
</clipPath>
<clipPath id="clip2">
  <path d="M 236.660156 -153.441406 L 464.078125 -153.441406 L 464.078125 267.105469 L 236.660156 267.105469 Z M 236.660156 -153.441406 L 337.699219 70.164062 C 337.699219 81.996094 328.105469 91.589844 316.269531 91.589844 C 304.4375 91.589844 294.84375 81.996094 294.84375 70.164062 C 294.84375 58.328125 304.4375 48.734375 316.269531 48.734375 C 328.105469 48.734375 337.699219 58.328125 337.699219 70.164062 Z M 236.660156 -153.441406 "/>
</clipPath>
<clipPath id="clip3">
  <path d="M 236.660156 -153.441406 L 464.078125 -153.441406 L 464.078125 267.105469 L 236.660156 267.105469 Z M 236.660156 -153.441406 L 405.894531 43.5 C 405.894531 55.335938 396.300781 64.929688 384.46875 64.929688 C 372.632812 64.929688 363.039062 55.335938 363.039062 43.5 C 363.039062 31.664062 372.632812 22.070312 384.46875 22.070312 C 396.300781 22.070312 405.894531 31.664062 405.894531 43.5 Z M 236.660156 -153.441406 "/>
</clipPath>
<clipPath id="clip4">
  <path d="M 151 9 L 377 9 L 377 190 L 151 190 Z M 151 9 "/>
</clipPath>
<clipPath id="clip5">
  <path d="M 105.84375 -114.160156 L 422.421875 -114.160156 L 422.421875 313.488281 L 105.84375 313.488281 Z M 105.84375 -114.160156 L 337.699219 70.164062 C 337.699219 81.996094 328.105469 91.589844 316.269531 91.589844 C 304.4375 91.589844 294.84375 81.996094 294.84375 70.164062 C 294.84375 58.328125 304.4375 48.734375 316.269531 48.734375 C 328.105469 48.734375 337.699219 58.328125 337.699219 70.164062 Z M 105.84375 -114.160156 "/>
</clipPath>
<clipPath id="clip6">
  <path d="M 105.84375 -114.160156 L 422.421875 -114.160156 L 422.421875 313.488281 L 105.84375 313.488281 Z M 105.84375 -114.160156 L 233.421875 129.164062 C 233.421875 141 223.828125 150.59375 211.996094 150.59375 C 200.160156 150.59375 190.566406 141 190.566406 129.164062 C 190.566406 117.328125 200.160156 107.734375 211.996094 107.734375 C 223.828125 107.734375 233.421875 117.328125 233.421875 129.164062 Z M 105.84375 -114.160156 "/>
</clipPath>
<clipPath id="clip7">
  <path d="M 105 68 L 273 68 L 273 314 L 105 314 Z M 105 68 "/>
</clipPath>
<clipPath id="clip8">
  <path d="M -32.359375 52.433594 L 410.039062 52.433594 L 410.039062 329.761719 L -32.359375 329.761719 Z M -32.359375 52.433594 L 233.421875 129.164062 C 233.421875 141 223.828125 150.59375 211.996094 150.59375 C 200.160156 150.59375 190.566406 141 190.566406 129.164062 C 190.566406 117.328125 200.160156 107.734375 211.996094 107.734375 C 223.828125 107.734375 233.421875 117.328125 233.421875 129.164062 Z M -32.359375 52.433594 "/>
</clipPath>
<clipPath id="clip9">
  <path d="M -32.359375 52.433594 L 410.039062 52.433594 L 410.039062 329.761719 L -32.359375 329.761719 Z M -32.359375 52.433594 L 187.113281 253.03125 C 187.113281 264.867188 177.519531 274.460938 165.683594 274.460938 C 153.847656 274.460938 144.253906 264.867188 144.253906 253.03125 C 144.253906 241.195312 153.847656 231.601562 165.683594 231.601562 C 177.519531 231.601562 187.113281 241.195312 187.113281 253.03125 Z M -32.359375 52.433594 "/>
</clipPath>
<clipPath id="clip10">
  <path d="M 75 24 L 273 24 L 273 190 L 75 190 Z M 75 24 "/>
</clipPath>
<clipPath id="clip11">
  <path d="M 28.644531 -98.085938 L 319.457031 -98.085938 L 319.457031 312.742188 L 28.644531 312.742188 Z M 28.644531 -98.085938 L 233.421875 129.164062 C 233.421875 141 223.828125 150.59375 211.996094 150.59375 C 200.160156 150.59375 190.566406 141 190.566406 129.164062 C 190.566406 117.328125 200.160156 107.734375 211.996094 107.734375 C 223.828125 107.734375 233.421875 117.328125 233.421875 129.164062 Z M 28.644531 -98.085938 "/>
</clipPath>
<clipPath id="clip12">
  <path d="M 28.644531 -98.085938 L 319.457031 -98.085938 L 319.457031 312.742188 L 28.644531 312.742188 Z M 28.644531 -98.085938 L 157.53125 85.492188 C 157.53125 97.324219 147.9375 106.917969 136.105469 106.917969 C 124.269531 106.917969 114.675781 97.324219 114.675781 85.492188 C 114.675781 73.65625 124.269531 64.0625 136.105469 64.0625 C 147.9375 64.0625 157.53125 73.65625 157.53125 85.492188 Z M 28.644531 -98.085938 "/>
</clipPath>
<clipPath id="clip13">
  <path d="M 39 450.714844 L 173 450.714844 L 173 598.472656 L 39 598.472656 Z M 39 450.714844 "/>
</clipPath>
<clipPath id="clip14">
  <path d="M -107.769531 450.714844 L 319.421875 450.714844 L 319.421875 598.472656 L -107.769531 598.472656 Z M -107.769531 450.714844 L 133.167969 492.6875 C 133.167969 504.523438 123.574219 514.117188 111.738281 514.117188 C 99.90625 514.117188 90.3125 504.523438 90.3125 492.6875 C 90.3125 480.851562 99.90625 471.257812 111.738281 471.257812 C 123.574219 471.257812 133.167969 480.851562 133.167969 492.6875 Z M -107.769531 450.714844 "/>
</clipPath>
<clipPath id="clip15">
  <path d="M -107.769531 450.714844 L 319.421875 450.714844 L 319.421875 598.472656 L -107.769531 598.472656 Z M -107.769531 450.714844 L 121.34375 556.5 C 121.34375 568.335938 111.75 577.929688 99.914062 577.929688 C 88.082031 577.929688 78.488281 568.335938 78.488281 556.5 C 78.488281 544.664062 88.082031 535.070312 99.914062 535.070312 C 111.75 535.070312 121.34375 544.664062 121.34375 556.5 Z M -107.769531 450.714844 "/>
</clipPath>
<clipPath id="clip16">
  <path d="M 51 328 L 211 328 L 211 554 L 51 554 Z M 51 328 "/>
</clipPath>
<clipPath id="clip17">
  <path d="M -86.796875 314.171875 L 348.023438 314.171875 L 348.023438 568.089844 L -86.796875 568.089844 Z M -86.796875 314.171875 L 133.167969 492.6875 C 133.167969 504.523438 123.574219 514.117188 111.738281 514.117188 C 99.90625 514.117188 90.3125 504.523438 90.3125 492.6875 C 90.3125 480.851562 99.90625 471.257812 111.738281 471.257812 C 123.574219 471.257812 133.167969 480.851562 133.167969 492.6875 Z M -86.796875 314.171875 "/>
</clipPath>
<clipPath id="clip18">
  <path d="M -86.796875 314.171875 L 348.023438 314.171875 L 348.023438 568.089844 L -86.796875 568.089844 Z M -86.796875 314.171875 L 170.917969 389.574219 C 170.917969 401.410156 161.324219 411.003906 149.488281 411.003906 C 137.652344 411.003906 128.058594 401.410156 128.058594 389.574219 C 128.058594 377.738281 137.652344 368.144531 149.488281 368.144531 C 161.324219 368.144531 170.917969 377.738281 170.917969 389.574219 Z M -86.796875 314.171875 "/>
</clipPath>
<clipPath id="clip19">
  <path d="M 88 224.382812 L 227 224.382812 L 227 418.222656 L 88 418.222656 Z M 88 224.382812 "/>
</clipPath>
<clipPath id="clip20">
  <path d="M -60.214844 224.382812 L 375.386719 224.382812 L 375.386719 418.222656 L -60.214844 418.222656 Z M -60.214844 224.382812 L 187.113281 253.03125 C 187.113281 264.867188 177.519531 274.460938 165.683594 274.460938 C 153.847656 274.460938 144.253906 264.867188 144.253906 253.03125 C 144.253906 241.195312 153.847656 231.601562 165.683594 231.601562 C 177.519531 231.601562 187.113281 241.195312 187.113281 253.03125 Z M -60.214844 224.382812 "/>
</clipPath>
<clipPath id="clip21">
  <path d="M -60.214844 224.382812 L 375.386719 224.382812 L 375.386719 418.222656 L -60.214844 418.222656 Z M -60.214844 224.382812 L 170.917969 389.574219 C 170.917969 401.410156 161.324219 411.003906 149.488281 411.003906 C 137.652344 411.003906 128.058594 401.410156 128.058594 389.574219 C 128.058594 377.738281 137.652344 368.144531 149.488281 368.144531 C 161.324219 368.144531 170.917969 377.738281 170.917969 389.574219 Z M -60.214844 224.382812 "/>
</clipPath>
<clipPath id="clip22">
  <path d="M 92.570312 328 L 341.867188 328 L 341.867188 486 L 92.570312 486 Z M 92.570312 328 "/>
</clipPath>
<clipPath id="clip23">
  <path d="M 92.570312 185.238281 L 341.867188 185.238281 L 341.867188 629.550781 L 92.570312 629.550781 Z M 92.570312 185.238281 L 170.917969 389.574219 C 170.917969 401.410156 161.324219 411.003906 149.488281 411.003906 C 137.652344 411.003906 128.058594 401.410156 128.058594 389.574219 C 128.058594 377.738281 137.652344 368.144531 149.488281 368.144531 C 161.324219 368.144531 170.917969 377.738281 170.917969 389.574219 Z M 92.570312 185.238281 "/>
</clipPath>
<clipPath id="clip24">
  <path d="M 92.570312 185.238281 L 341.867188 185.238281 L 341.867188 629.550781 L 92.570312 629.550781 Z M 92.570312 185.238281 L 306.378906 425.214844 C 306.378906 437.050781 296.785156 446.644531 284.949219 446.644531 C 273.117188 446.644531 263.523438 437.050781 263.523438 425.214844 C 263.523438 413.382812 273.117188 403.789062 284.949219 403.789062 C 296.785156 403.789062 306.378906 413.382812 306.378906 425.214844 Z M 92.570312 185.238281 "/>
</clipPath>
<clipPath id="clip25">
  <path d="M 30.734375 318 L 177.03125 318 L 177.03125 451 L 30.734375 451 Z M 30.734375 318 "/>
</clipPath>
<clipPath id="clip26">
  <path d="M 30.734375 169.421875 L 177.03125 169.421875 L 177.03125 599.40625 L 30.734375 599.40625 Z M 30.734375 169.421875 L 170.917969 389.574219 C 170.917969 401.410156 161.324219 411.003906 149.488281 411.003906 C 137.652344 411.003906 128.058594 401.410156 128.058594 389.574219 C 128.058594 377.738281 137.652344 368.144531 149.488281 368.144531 C 161.324219 368.144531 170.917969 377.738281 170.917969 389.574219 Z M 30.734375 169.421875 "/>
</clipPath>
<clipPath id="clip27">
  <path d="M 30.734375 169.421875 L 177.03125 169.421875 L 177.03125 599.40625 L 30.734375 599.40625 Z M 30.734375 169.421875 L 79.703125 379.253906 C 79.703125 391.089844 70.109375 400.683594 58.277344 400.683594 C 46.441406 400.683594 36.847656 391.089844 36.847656 379.253906 C 36.847656 367.421875 46.441406 357.824219 58.277344 357.824219 C 70.109375 357.824219 79.703125 367.421875 79.703125 379.253906 Z M 30.734375 169.421875 "/>
</clipPath>
<clipPath id="clip28">
  <path d="M 28.417969 11 L 184.371094 11 L 184.371094 147 L 28.417969 147 Z M 28.417969 11 "/>
</clipPath>
<clipPath id="clip29">
  <path d="M 28.417969 -133.851562 L 184.371094 -133.851562 L 184.371094 291.90625 L 28.417969 291.90625 Z M 28.417969 -133.851562 L 157.53125 85.492188 C 157.53125 97.324219 147.9375 106.917969 136.105469 106.917969 C 124.269531 106.917969 114.675781 97.324219 114.675781 85.492188 C 114.675781 73.65625 124.269531 64.0625 136.105469 64.0625 C 147.9375 64.0625 157.53125 73.65625 157.53125 85.492188 Z M 28.417969 -133.851562 "/>
</clipPath>
<clipPath id="clip30">
  <path d="M 28.417969 -133.851562 L 184.371094 -133.851562 L 184.371094 291.90625 L 28.417969 291.90625 Z M 28.417969 -133.851562 L 98.109375 72.5625 C 98.109375 84.398438 88.515625 93.992188 76.683594 93.992188 C 64.847656 93.992188 55.253906 84.398438 55.253906 72.5625 C 55.253906 60.726562 64.847656 51.132812 76.683594 51.132812 C 88.515625 51.132812 98.109375 60.726562 98.109375 72.5625 Z M 28.417969 -133.851562 "/>
</clipPath>
<clipPath id="clip31">
  <path d="M 273.367188 359 L 437.527344 359 L 437.527344 486 L 273.367188 486 Z M 273.367188 359 "/>
</clipPath>
<clipPath id="clip32">
  <path d="M 273.367188 209.222656 L 437.527344 209.222656 L 437.527344 636.230469 L 273.367188 636.230469 Z M 273.367188 209.222656 L 306.378906 425.214844 C 306.378906 437.050781 296.785156 446.644531 284.949219 446.644531 C 273.117188 446.644531 263.523438 437.050781 263.523438 425.214844 C 263.523438 413.382812 273.117188 403.789062 284.949219 403.789062 C 296.785156 403.789062 306.378906 413.382812 306.378906 425.214844 Z M 273.367188 209.222656 "/>
</clipPath>
<clipPath id="clip33">
  <path d="M 273.367188 209.222656 L 437.527344 209.222656 L 437.527344 636.230469 L 273.367188 636.230469 Z M 273.367188 209.222656 L 447.375 420.238281 C 447.375 432.074219 437.78125 441.667969 425.945312 441.667969 C 414.109375 441.667969 404.515625 432.074219 404.515625 420.238281 C 404.515625 408.40625 414.109375 398.8125 425.945312 398.8125 C 437.78125 398.8125 447.375 408.40625 447.375 420.238281 Z M 273.367188 209.222656 "/>
</clipPath>
<clipPath id="clip34">
  <path d="M 365 280 L 556 280 L 556 481 L 365 481 Z M 365 280 "/>
</clipPath>
<clipPath id="clip35">
  <path d="M 265.433594 200.988281 L 655.347656 200.988281 L 655.347656 560.113281 L 265.433594 560.113281 Z M 265.433594 200.988281 L 516.265625 340.863281 C 516.265625 352.695312 506.667969 362.289062 494.835938 362.289062 C 483 362.289062 473.40625 352.695312 473.40625 340.863281 C 473.40625 329.027344 483 319.433594 494.835938 319.433594 C 506.667969 319.433594 516.265625 329.027344 516.265625 340.863281 Z M 265.433594 200.988281 "/>
</clipPath>
<clipPath id="clip36">
  <path d="M 265.433594 200.988281 L 655.347656 200.988281 L 655.347656 560.113281 L 265.433594 560.113281 Z M 265.433594 200.988281 L 447.375 420.238281 C 447.375 432.074219 437.78125 441.667969 425.945312 441.667969 C 414.109375 441.667969 404.515625 432.074219 404.515625 420.238281 C 404.515625 408.40625 414.109375 398.8125 425.945312 398.8125 C 437.78125 398.8125 447.375 408.40625 447.375 420.238281 Z M 265.433594 200.988281 "/>
</clipPath>
<clipPath id="clip37">
  <path d="M 439.324219 280 L 597.234375 280 L 597.234375 414 L 439.324219 414 Z M 439.324219 280 "/>
</clipPath>
<clipPath id="clip38">
  <path d="M 439.324219 136.164062 L 597.234375 136.164062 L 597.234375 557.546875 L 439.324219 557.546875 Z M 439.324219 136.164062 L 516.265625 340.863281 C 516.265625 352.695312 506.667969 362.289062 494.835938 362.289062 C 483 362.289062 473.40625 352.695312 473.40625 340.863281 C 473.40625 329.027344 483 319.433594 494.835938 319.433594 C 506.667969 319.433594 516.265625 329.027344 516.265625 340.863281 Z M 439.324219 136.164062 "/>
</clipPath>
<clipPath id="clip39">
  <path d="M 439.324219 136.164062 L 597.234375 136.164062 L 597.234375 557.546875 L 439.324219 557.546875 Z M 439.324219 136.164062 L 563.152344 352.847656 C 563.152344 364.679688 553.558594 374.273438 541.722656 374.273438 C 529.890625 374.273438 520.296875 364.679688 520.296875 352.847656 C 520.296875 341.011719 529.890625 331.417969 541.722656 331.417969 C 553.558594 331.417969 563.152344 341.011719 563.152344 352.847656 Z M 439.324219 136.164062 "/>
</clipPath>
<clipPath id="clip40">
  <path d="M 403 364 L 557 364 L 557 536 L 403 536 Z M 403 364 "/>
</clipPath>
<clipPath id="clip41">
  <path d="M 285.726562 309.089844 L 674.671875 309.089844 L 674.671875 591.101562 L 285.726562 591.101562 Z M 285.726562 309.089844 L 517.6875 425.050781 C 517.6875 436.886719 508.09375 446.480469 496.261719 446.480469 C 484.425781 446.480469 474.832031 436.886719 474.832031 425.050781 C 474.832031 413.21875 484.425781 403.625 496.261719 403.625 C 508.09375 403.625 517.6875 413.21875 517.6875 425.050781 Z M 285.726562 309.089844 "/>
</clipPath>
<clipPath id="clip42">
  <path d="M 285.726562 309.089844 L 674.671875 309.089844 L 674.671875 591.101562 L 285.726562 591.101562 Z M 285.726562 309.089844 L 485.566406 475.140625 C 485.566406 486.976562 475.972656 496.570312 464.136719 496.570312 C 452.300781 496.570312 442.707031 486.976562 442.707031 475.140625 C 442.707031 463.308594 452.300781 453.714844 464.136719 453.714844 C 475.972656 453.714844 485.566406 463.308594 485.566406 475.140625 Z M 285.726562 309.089844 "/>
</clipPath>
<clipPath id="clip43">
  <path d="M 407.535156 359 L 514.671875 359 L 514.671875 486 L 407.535156 486 Z M 407.535156 359 "/>
</clipPath>
<clipPath id="clip44">
  <path d="M 407.535156 209.578125 L 514.671875 209.578125 L 514.671875 635.710938 L 407.535156 635.710938 Z M 407.535156 209.578125 L 517.6875 425.050781 C 517.6875 436.886719 508.09375 446.480469 496.261719 446.480469 C 484.425781 446.480469 474.832031 436.886719 474.832031 425.050781 C 474.832031 413.21875 484.425781 403.625 496.261719 403.625 C 508.09375 403.625 517.6875 413.21875 517.6875 425.050781 Z M 407.535156 209.578125 "/>
</clipPath>
<clipPath id="clip45">
  <path d="M 407.535156 209.578125 L 514.671875 209.578125 L 514.671875 635.710938 L 407.535156 635.710938 Z M 407.535156 209.578125 L 447.375 420.238281 C 447.375 432.074219 437.78125 441.667969 425.945312 441.667969 C 414.109375 441.667969 404.515625 432.074219 404.515625 420.238281 C 404.515625 408.40625 414.109375 398.8125 425.945312 398.8125 C 437.78125 398.8125 447.375 408.40625 447.375 420.238281 Z M 407.535156 209.578125 "/>
</clipPath>
<clipPath id="clip46">
  <path d="M 435 292 L 600 292 L 600 486 L 435 486 Z M 435 292 "/>
</clipPath>
<clipPath id="clip47">
  <path d="M 316.925781 238.347656 L 721.058594 238.347656 L 721.058594 539.550781 L 316.925781 539.550781 Z M 316.925781 238.347656 L 517.6875 425.050781 C 517.6875 436.886719 508.09375 446.480469 496.261719 446.480469 C 484.425781 446.480469 474.832031 436.886719 474.832031 425.050781 C 474.832031 413.21875 484.425781 403.625 496.261719 403.625 C 508.09375 403.625 517.6875 413.21875 517.6875 425.050781 Z M 316.925781 238.347656 "/>
</clipPath>
<clipPath id="clip48">
  <path d="M 316.925781 238.347656 L 721.058594 238.347656 L 721.058594 539.550781 L 316.925781 539.550781 Z M 316.925781 238.347656 L 563.152344 352.847656 C 563.152344 364.679688 553.558594 374.273438 541.722656 374.273438 C 529.890625 374.273438 520.296875 364.679688 520.296875 352.847656 C 520.296875 341.011719 529.890625 331.417969 541.722656 331.417969 C 553.558594 331.417969 563.152344 341.011719 563.152344 352.847656 Z M 316.925781 238.347656 "/>
</clipPath>
<clipPath id="clip49">
  <path d="M 365 359 L 525 359 L 525 536 L 365 536 Z M 365 359 "/>
</clipPath>
<clipPath id="clip50">
  <path d="M 251.847656 297.828125 L 638.234375 297.828125 L 638.234375 597.550781 L 251.847656 597.550781 Z M 251.847656 297.828125 L 485.566406 475.140625 C 485.566406 486.976562 475.972656 496.570312 464.136719 496.570312 C 452.300781 496.570312 442.707031 486.976562 442.707031 475.140625 C 442.707031 463.308594 452.300781 453.714844 464.136719 453.714844 C 475.972656 453.714844 485.566406 463.308594 485.566406 475.140625 Z M 251.847656 297.828125 "/>
</clipPath>
<clipPath id="clip51">
  <path d="M 251.847656 297.828125 L 638.234375 297.828125 L 638.234375 597.550781 L 251.847656 597.550781 Z M 251.847656 297.828125 L 447.375 420.238281 C 447.375 432.074219 437.78125 441.667969 425.945312 441.667969 C 414.109375 441.667969 404.515625 432.074219 404.515625 420.238281 C 404.515625 408.40625 414.109375 398.8125 425.945312 398.8125 C 437.78125 398.8125 447.375 408.40625 447.375 420.238281 Z M 251.847656 297.828125 "/>
</clipPath>
</defs>
<g id="surface326">
<g clip-path="url(#clip1)" clip-rule="nonzero">
<g clip-path="url(#clip2)" clip-rule="evenodd">
<g clip-path="url(#clip3)" clip-rule="evenodd">
<path style="fill:none;stroke-width:0.020718;stroke-linecap:butt;stroke-linejoin:miter;stroke:rgb(17.96875%,20.3125%,21.09375%);stroke-opacity:0.8;stroke-miterlimit:10;" d="M 2.92039 0.900601 L 3.250079 0.771701 " transform="matrix(206.85912,0,0,206.85912,-287.839696,-116.133475)"/>
</g>
</g>
</g>
<g clip-path="url(#clip4)" clip-rule="nonzero">
<g clip-path="url(#clip5)" clip-rule="evenodd">
<g clip-path="url(#clip6)" clip-rule="evenodd">
<path style="fill:none;stroke-width:0.020718;stroke-linecap:butt;stroke-linejoin:miter;stroke:rgb(17.96875%,20.3125%,21.09375%);stroke-opacity:0.8;stroke-miterlimit:10;" d="M 2.92039 0.900601 L 2.41631 1.185819 " transform="matrix(206.85912,0,0,206.85912,-287.839696,-116.133475)"/>
</g>
</g>
</g>
<g clip-path="url(#clip7)" clip-rule="nonzero">
<g clip-path="url(#clip8)" clip-rule="evenodd">
<g clip-path="url(#clip9)" clip-rule="evenodd">
<path style="fill:none;stroke-width:0.020718;stroke-linecap:butt;stroke-linejoin:miter;stroke:rgb(17.96875%,20.3125%,21.09375%);stroke-opacity:0.8;stroke-miterlimit:10;" d="M 2.41631 1.185819 L 2.192426 1.784619 " transform="matrix(206.85912,0,0,206.85912,-287.839696,-116.133475)"/>
</g>
</g>
</g>
<g clip-path="url(#clip10)" clip-rule="nonzero">
<g clip-path="url(#clip11)" clip-rule="evenodd">
<g clip-path="url(#clip12)" clip-rule="evenodd">
<path style="fill:none;stroke-width:0.020718;stroke-linecap:butt;stroke-linejoin:miter;stroke:rgb(17.96875%,20.3125%,21.09375%);stroke-opacity:0.8;stroke-miterlimit:10;" d="M 2.41631 1.185819 L 2.049439 0.9747 " transform="matrix(206.85912,0,0,206.85912,-287.839696,-116.133475)"/>
</g>
</g>
</g>
<g clip-path="url(#clip13)" clip-rule="nonzero">
<g clip-path="url(#clip14)" clip-rule="evenodd">
<g clip-path="url(#clip15)" clip-rule="evenodd">
<path style="fill:none;stroke-width:0.020718;stroke-linecap:butt;stroke-linejoin:miter;stroke:rgb(17.96875%,20.3125%,21.09375%);stroke-opacity:0.8;stroke-miterlimit:10;" d="M 1.931643 2.943167 L 1.874482 3.25165 " transform="matrix(206.85912,0,0,206.85912,-287.839696,-116.133475)"/>
</g>
</g>
</g>
<g clip-path="url(#clip16)" clip-rule="nonzero">
<g clip-path="url(#clip17)" clip-rule="evenodd">
<g clip-path="url(#clip18)" clip-rule="evenodd">
<path style="fill:none;stroke-width:0.020718;stroke-linecap:butt;stroke-linejoin:miter;stroke:rgb(17.96875%,20.3125%,21.09375%);stroke-opacity:0.8;stroke-miterlimit:10;" d="M 1.931643 2.943167 L 2.114134 2.444696 " transform="matrix(206.85912,0,0,206.85912,-287.839696,-116.133475)"/>
</g>
</g>
</g>
<g clip-path="url(#clip19)" clip-rule="nonzero">
<g clip-path="url(#clip20)" clip-rule="evenodd">
<g clip-path="url(#clip21)" clip-rule="evenodd">
<path style="fill:none;stroke-width:0.020718;stroke-linecap:butt;stroke-linejoin:miter;stroke:rgb(17.96875%,20.3125%,21.09375%);stroke-opacity:0.8;stroke-miterlimit:10;" d="M 2.192426 1.784619 L 2.114134 2.444696 " transform="matrix(206.85912,0,0,206.85912,-287.839696,-116.133475)"/>
</g>
</g>
</g>
<g clip-path="url(#clip22)" clip-rule="nonzero">
<g clip-path="url(#clip23)" clip-rule="evenodd">
<g clip-path="url(#clip24)" clip-rule="evenodd">
<path style="fill:none;stroke-width:0.020718;stroke-linecap:butt;stroke-linejoin:miter;stroke:rgb(17.96875%,20.3125%,21.09375%);stroke-opacity:0.8;stroke-miterlimit:10;" d="M 2.114134 2.444696 L 2.768981 2.61699 " transform="matrix(206.85912,0,0,206.85912,-287.839696,-116.133475)"/>
</g>
</g>
</g>
<g clip-path="url(#clip25)" clip-rule="nonzero">
<g clip-path="url(#clip26)" clip-rule="evenodd">
<g clip-path="url(#clip27)" clip-rule="evenodd">
<path style="fill:none;stroke-width:0.020718;stroke-linecap:butt;stroke-linejoin:miter;stroke:rgb(17.96875%,20.3125%,21.09375%);stroke-opacity:0.8;stroke-miterlimit:10;" d="M 2.114134 2.444696 L 1.673202 2.394806 " transform="matrix(206.85912,0,0,206.85912,-287.839696,-116.133475)"/>
</g>
</g>
</g>
<g clip-path="url(#clip28)" clip-rule="nonzero">
<g clip-path="url(#clip29)" clip-rule="evenodd">
<g clip-path="url(#clip30)" clip-rule="evenodd">
<path style="fill:none;stroke-width:0.020718;stroke-linecap:butt;stroke-linejoin:miter;stroke:rgb(17.96875%,20.3125%,21.09375%);stroke-opacity:0.8;stroke-miterlimit:10;" d="M 2.049439 0.9747 L 1.762181 0.912196 " transform="matrix(206.85912,0,0,206.85912,-287.839696,-116.133475)"/>
</g>
</g>
</g>
<g clip-path="url(#clip31)" clip-rule="nonzero">
<g clip-path="url(#clip32)" clip-rule="evenodd">
<g clip-path="url(#clip33)" clip-rule="evenodd">
<path style="fill:none;stroke-width:0.020718;stroke-linecap:butt;stroke-linejoin:miter;stroke:rgb(17.96875%,20.3125%,21.09375%);stroke-opacity:0.8;stroke-miterlimit:10;" d="M 2.768981 2.61699 L 3.450585 2.592933 " transform="matrix(206.85912,0,0,206.85912,-287.839696,-116.133475)"/>
</g>
</g>
</g>
<g clip-path="url(#clip34)" clip-rule="nonzero">
<g clip-path="url(#clip35)" clip-rule="evenodd">
<g clip-path="url(#clip36)" clip-rule="evenodd">
<path style="fill:none;stroke-width:0.020718;stroke-linecap:butt;stroke-linejoin:miter;stroke:rgb(17.96875%,20.3125%,21.09375%);stroke-opacity:0.8;stroke-miterlimit:10;" d="M 3.783617 2.209217 L 3.450585 2.592933 " transform="matrix(206.85912,0,0,206.85912,-287.839696,-116.133475)"/>
</g>
</g>
</g>
<g clip-path="url(#clip37)" clip-rule="nonzero">
<g clip-path="url(#clip38)" clip-rule="evenodd">
<g clip-path="url(#clip39)" clip-rule="evenodd">
<path style="fill:none;stroke-width:0.020718;stroke-linecap:butt;stroke-linejoin:miter;stroke:rgb(17.96875%,20.3125%,21.09375%);stroke-opacity:0.8;stroke-miterlimit:10;" d="M 3.783617 2.209217 L 4.010277 2.267152 " transform="matrix(206.85912,0,0,206.85912,-287.839696,-116.133475)"/>
</g>
</g>
</g>
<g clip-path="url(#clip40)" clip-rule="nonzero">
<g clip-path="url(#clip41)" clip-rule="evenodd">
<g clip-path="url(#clip42)" clip-rule="evenodd">
<path style="fill:none;stroke-width:0.020718;stroke-linecap:butt;stroke-linejoin:miter;stroke:rgb(17.96875%,20.3125%,21.09375%);stroke-opacity:0.8;stroke-miterlimit:10;" d="M 3.790509 2.616197 L 3.63521 2.858342 " transform="matrix(206.85912,0,0,206.85912,-287.839696,-116.133475)"/>
</g>
</g>
</g>
<g clip-path="url(#clip43)" clip-rule="nonzero">
<g clip-path="url(#clip44)" clip-rule="evenodd">
<g clip-path="url(#clip45)" clip-rule="evenodd">
<path style="fill:none;stroke-width:0.020718;stroke-linecap:butt;stroke-linejoin:miter;stroke:rgb(17.96875%,20.3125%,21.09375%);stroke-opacity:0.8;stroke-miterlimit:10;" d="M 3.790509 2.616197 L 3.450585 2.592933 " transform="matrix(206.85912,0,0,206.85912,-287.839696,-116.133475)"/>
</g>
</g>
</g>
<g clip-path="url(#clip46)" clip-rule="nonzero">
<g clip-path="url(#clip47)" clip-rule="evenodd">
<g clip-path="url(#clip48)" clip-rule="evenodd">
<path style="fill:none;stroke-width:0.020718;stroke-linecap:butt;stroke-linejoin:miter;stroke:rgb(17.96875%,20.3125%,21.09375%);stroke-opacity:0.8;stroke-miterlimit:10;" d="M 3.790509 2.616197 L 4.010277 2.267152 " transform="matrix(206.85912,0,0,206.85912,-287.839696,-116.133475)"/>
</g>
</g>
</g>
<g clip-path="url(#clip49)" clip-rule="nonzero">
<g clip-path="url(#clip50)" clip-rule="evenodd">
<g clip-path="url(#clip51)" clip-rule="evenodd">
<path style="fill:none;stroke-width:0.020718;stroke-linecap:butt;stroke-linejoin:miter;stroke:rgb(17.96875%,20.3125%,21.09375%);stroke-opacity:0.8;stroke-miterlimit:10;" d="M 3.63521 2.858342 L 3.450585 2.592933 " transform="matrix(206.85912,0,0,206.85912,-287.839696,-116.133475)"/>
</g>
</g>
</g>
<path style="fill-rule:nonzero;fill:rgb(100%,92.941176%,43.529412%);fill-opacity:1;stroke-width:0.020718;stroke-linecap:butt;stroke-linejoin:miter;stroke:rgb(60%,60%,60%);stroke-opacity:0.8;stroke-miterlimit:10;" d="M 0.10359 0.00000573505 C 0.10359 0.0572042 0.0572114 0.103582 -0.00000600799 0.103582 C -0.0572045 0.103582 -0.103583 0.0572042 -0.103583 0.00000573505 C -0.103583 -0.0572116 -0.0572045 -0.10359 -0.00000600799 -0.10359 C 0.0572114 -0.10359 0.10359 -0.0572116 0.10359 0.00000573505 Z M 0.10359 0.00000573505 " transform="matrix(206.85912,0,0,206.85912,316.270774,70.162876)"/>
<path style="fill-rule:nonzero;fill:rgb(100%,92.941176%,43.529412%);fill-opacity:1;stroke-width:0.020718;stroke-linecap:butt;stroke-linejoin:miter;stroke:rgb(60%,60%,60%);stroke-opacity:0.8;stroke-miterlimit:10;" d="M 0.103584 -0.000000000000000028 C 0.103584 0.0572174 0.0572058 0.103596 0.00000733256 0.103596 C -0.0572101 0.103596 -0.103588 0.0572174 -0.103588 -0.000000000000000028 C -0.103588 -0.0572174 -0.0572101 -0.103596 0.00000733256 -0.103596 C 0.0572058 -0.103596 0.103584 -0.0572174 0.103584 -0.000000000000000028 Z M 0.103584 -0.000000000000000028 " transform="matrix(206.85912,0,0,206.85912,384.467233,43.5)"/>
<path style="fill-rule:nonzero;fill:rgb(100%,92.941176%,43.529412%);fill-opacity:1;stroke-width:0.020718;stroke-linecap:butt;stroke-linejoin:miter;stroke:rgb(60%,60%,60%);stroke-opacity:0.8;stroke-miterlimit:10;" d="M 0.103581 0.00000269354 C 0.103581 0.0572201 0.0572027 0.103598 0.00000417028 0.103598 C -0.0572132 0.103598 -0.103591 0.0572201 -0.103591 0.00000269354 C -0.103591 -0.0572147 -0.0572132 -0.103593 0.00000417028 -0.103593 C 0.0572027 -0.103593 0.103581 -0.0572147 0.103581 0.00000269354 Z M 0.103581 0.00000269354 " transform="matrix(206.85912,0,0,206.85912,211.995231,129.163505)"/>
<path style="fill-rule:nonzero;fill:rgb(100%,92.941176%,43.529412%);fill-opacity:1;stroke-width:0.020718;stroke-linecap:butt;stroke-linejoin:miter;stroke:rgb(60%,60%,60%);stroke-opacity:0.8;stroke-miterlimit:10;" d="M 0.103586 -0.00000259506 C 0.103586 0.0572148 0.0572082 0.103593 -0.00000919505 0.103593 C -0.0572077 0.103593 -0.103586 0.0572148 -0.103586 -0.00000259506 C -0.103586 -0.05722 -0.0572077 -0.103598 -0.00000919505 -0.103598 C 0.0572082 -0.103598 0.103586 -0.05722 0.103586 -0.00000259506 Z M 0.103586 -0.00000259506 " transform="matrix(206.85912,0,0,206.85912,111.740183,492.688037)"/>
<path style="fill-rule:nonzero;fill:rgb(100%,92.941176%,43.529412%);fill-opacity:1;stroke-width:0.020718;stroke-linecap:butt;stroke-linejoin:miter;stroke:rgb(60%,60%,60%);stroke-opacity:0.8;stroke-miterlimit:10;" d="M 0.103588 0 C 0.103588 0.0572174 0.0572101 0.103596 -0.00000730622 0.103596 C -0.0572058 0.103596 -0.103584 0.0572174 -0.103584 0 C -0.103584 -0.0572174 -0.0572058 -0.103596 -0.00000730622 -0.103596 C 0.0572101 -0.103596 0.103588 -0.0572174 0.103588 0 Z M 0.103588 0 " transform="matrix(206.85912,0,0,206.85912,99.915574,556.5)"/>
<path style="fill-rule:nonzero;fill:rgb(100%,92.941176%,43.529412%);fill-opacity:1;stroke-width:0.020718;stroke-linecap:butt;stroke-linejoin:miter;stroke:rgb(60%,60%,60%);stroke-opacity:0.8;stroke-miterlimit:10;" d="M 0.103596 -0.00000124242 C 0.103596 0.0572161 0.0572177 0.103594 0.00000028131 0.103594 C -0.0572171 0.103594 -0.103595 0.0572161 -0.103595 -0.00000124242 C -0.103595 -0.0572186 -0.0572171 -0.103597 0.00000028131 -0.103597 C 0.0572177 -0.103597 0.103596 -0.0572186 0.103596 -0.00000124242 Z M 0.103596 -0.00000124242 " transform="matrix(206.85912,0,0,206.85912,165.683536,253.031507)"/>
<path style="fill-rule:nonzero;fill:rgb(100%,92.941176%,43.529412%);fill-opacity:1;stroke-width:0.020718;stroke-linecap:butt;stroke-linejoin:miter;stroke:rgb(60%,60%,60%);stroke-opacity:0.8;stroke-miterlimit:10;" d="M 0.103598 -0.00000293853 C 0.103598 0.0572144 0.0572203 0.103593 0.00000286725 0.103593 C -0.0572145 0.103593 -0.103593 0.0572144 -0.103593 -0.00000293853 C -0.103593 -0.0572203 -0.0572145 -0.103599 0.00000286725 -0.103599 C 0.0572203 -0.103599 0.103598 -0.0572203 0.103598 -0.00000293853 Z M 0.103598 -0.00000293853 " transform="matrix(206.85912,0,0,206.85912,149.487688,389.574827)"/>
<path style="fill-rule:nonzero;fill:rgb(100%,92.941176%,43.529412%);fill-opacity:1;stroke-width:0.020718;stroke-linecap:butt;stroke-linejoin:miter;stroke:rgb(60%,60%,60%);stroke-opacity:0.8;stroke-miterlimit:10;" d="M 0.103583 0.00000521741 C 0.103583 0.0572037 0.0572045 0.103582 0.00000601382 0.103582 C -0.0572114 0.103582 -0.10359 0.0572037 -0.10359 0.00000521741 C -0.10359 -0.0572122 -0.0572114 -0.10359 0.00000601382 -0.10359 C 0.0572045 -0.10359 0.103583 -0.0572122 0.103583 0.00000521741 Z M 0.103583 0.00000521741 " transform="matrix(206.85912,0,0,206.85912,136.104225,85.491108)"/>
<path style="fill-rule:nonzero;fill:rgb(100%,92.941176%,43.529412%);fill-opacity:1;stroke-width:0.020718;stroke-linecap:butt;stroke-linejoin:miter;stroke:rgb(60%,60%,60%);stroke-opacity:0.8;stroke-miterlimit:10;" d="M 0.103585 -0.000000448839 C 0.103585 0.0572169 0.0572063 0.103595 0.00000783879 0.103595 C -0.0572095 0.103595 -0.103588 0.0572169 -0.103588 -0.000000448839 C -0.103588 -0.0572178 -0.0572095 -0.103596 0.00000783879 -0.103596 C 0.0572063 -0.103596 0.103585 -0.0572178 0.103585 -0.000000448839 Z M 0.103585 -0.000000448839 " transform="matrix(206.85912,0,0,206.85912,76.681972,72.562593)"/>
<path style="fill-rule:nonzero;fill:rgb(100%,92.941176%,43.529412%);fill-opacity:1;stroke-width:0.020718;stroke-linecap:butt;stroke-linejoin:miter;stroke:rgb(60%,60%,60%);stroke-opacity:0.8;stroke-miterlimit:10;" d="M 0.10359 -0.00000553968 C 0.10359 0.0572118 0.0572123 0.10359 -0.00000512324 0.10359 C -0.0572036 0.10359 -0.103582 0.0572118 -0.103582 -0.00000553968 C -0.103582 -0.057204 -0.0572036 -0.103582 -0.00000512324 -0.103582 C 0.0572123 -0.103582 0.10359 -0.057204 0.10359 -0.00000553968 Z M 0.10359 -0.00000553968 " transform="matrix(206.85912,0,0,206.85912,284.950279,425.21599)"/>
<path style="fill-rule:nonzero;fill:rgb(100%,92.941176%,43.529412%);fill-opacity:1;stroke-width:0.020718;stroke-linecap:butt;stroke-linejoin:miter;stroke:rgb(60%,60%,60%);stroke-opacity:0.8;stroke-miterlimit:10;" d="M 0.1036 0.00000575778 C 0.1036 0.0572043 0.0572025 0.103582 0.00000396017 0.103582 C -0.0572134 0.103582 -0.103592 0.0572043 -0.103592 0.00000575778 C -0.103592 -0.0572116 -0.0572134 -0.10359 0.00000396017 -0.10359 C 0.0572025 -0.10359 0.1036 -0.0572116 0.1036 0.00000575778 Z M 0.1036 0.00000575778 " transform="matrix(206.85912,0,0,206.85912,494.835118,340.86209)"/>
<path style="fill-rule:nonzero;fill:rgb(55.294118%,82.745098%,78.039216%);fill-opacity:1;stroke-width:0.020718;stroke-linecap:butt;stroke-linejoin:miter;stroke:rgb(60%,60%,60%);stroke-opacity:0.8;stroke-miterlimit:10;" d="M 0.103586 -0.00000748117 C 0.103586 0.0572099 0.0572079 0.103588 0.00000937537 0.103588 C -0.057208 0.103588 -0.103586 0.0572099 -0.103586 -0.00000748117 C -0.103586 -0.057206 -0.057208 -0.103584 0.00000937537 -0.103584 C 0.0572079 -0.103584 0.103586 -0.057206 0.103586 -0.00000748117 Z M 0.103586 -0.00000748117 " transform="matrix(206.85912,0,0,206.85912,496.259779,425.052329)"/>
<path style="fill-rule:nonzero;fill:rgb(55.294118%,82.745098%,78.039216%);fill-opacity:1;stroke-width:0.020718;stroke-linecap:butt;stroke-linejoin:miter;stroke:rgb(60%,60%,60%);stroke-opacity:0.8;stroke-miterlimit:10;" d="M 0.103597 -0.00000590085 C 0.103597 0.0572115 0.0572187 0.10359 0.00000135678 0.10359 C -0.057216 0.10359 -0.103594 0.0572115 -0.103594 -0.00000590085 C -0.103594 -0.0572044 -0.057216 -0.103583 0.00000135678 -0.103583 C 0.0572187 -0.103583 0.103597 -0.0572044 0.103597 -0.00000590085 Z M 0.103597 -0.00000590085 " transform="matrix(206.85912,0,0,206.85912,464.136438,475.141846)"/>
<path style="fill-rule:nonzero;fill:rgb(100%,92.941176%,43.529412%);fill-opacity:1;stroke-width:0.020718;stroke-linecap:butt;stroke-linejoin:miter;stroke:rgb(60%,60%,60%);stroke-opacity:0.8;stroke-miterlimit:10;" d="M 0.103597 -0.00000591005 C 0.103597 0.0572115 0.0572188 0.10359 0.00000142024 0.10359 C -0.057216 0.10359 -0.103594 0.0572115 -0.103594 -0.00000591005 C -0.103594 -0.0572044 -0.057216 -0.103583 0.00000142024 -0.103583 C 0.0572188 -0.103583 0.103597 -0.0572044 0.103597 -0.00000591005 Z M 0.103597 -0.00000591005 " transform="matrix(206.85912,0,0,206.85912,425.945019,420.239504)"/>
<path style="fill-rule:nonzero;fill:rgb(55.294118%,82.745098%,78.039216%);fill-opacity:1;stroke-width:0.020718;stroke-linecap:butt;stroke-linejoin:miter;stroke:rgb(60%,60%,60%);stroke-opacity:0.8;stroke-miterlimit:10;" d="M 0.103588 0.00000773226 C 0.103588 0.0572062 0.0572096 0.103584 -0.00000779411 0.103584 C -0.0572063 0.103584 -0.103584 0.0572062 -0.103584 0.00000773226 C -0.103584 -0.0572097 -0.0572063 -0.103588 -0.00000779411 -0.103588 C 0.0572096 -0.103588 0.103588 -0.0572097 0.103588 0.00000773226 Z M 0.103588 0.00000773226 " transform="matrix(206.85912,0,0,206.85912,541.724269,352.846057)"/>
<path style="fill-rule:nonzero;fill:rgb(100%,92.941176%,43.529412%);fill-opacity:1;stroke-width:0.020718;stroke-linecap:butt;stroke-linejoin:miter;stroke:rgb(60%,60%,60%);stroke-opacity:0.8;stroke-miterlimit:10;" d="M 0.103584 -0.00000333978 C 0.103584 0.057214 0.0572063 0.103592 0.00000779411 0.103592 C -0.0572096 0.103592 -0.103588 0.057214 -0.103588 -0.00000333978 C -0.103588 -0.0572018 -0.0572096 -0.103599 0.00000779411 -0.103599 C 0.0572063 -0.103599 0.103584 -0.0572018 0.103584 -0.00000333978 Z M 0.103584 -0.00000333978 " transform="matrix(206.85912,0,0,206.85912,58.275731,379.254597)"/>
</g>
</svg>
