<?xml version="1.0" encoding="UTF-8"?>
<svg xmlns="http://www.w3.org/2000/svg" xmlns:xlink="http://www.w3.org/1999/xlink" width="600pt" height="600pt" viewBox="0 0 600 600" version="1.1">
<defs>
<clipPath id="clip1">
  <path d="M 147 45 L 307 45 L 307 288 L 147 288 Z M 147 45 "/>
</clipPath>
<clipPath id="clip2">
  <path d="M 24.957031 42.019531 L 428.734375 42.019531 L 428.734375 291.351562 L 24.957031 291.351562 Z M 24.957031 42.019531 L 268.09375 228.765625 C 268.09375 240.246094 258.785156 249.554688 247.304688 249.554688 C 235.824219 249.554688 226.515625 240.246094 226.515625 228.765625 C 226.515625 217.28125 235.824219 207.976562 247.304688 207.976562 C 258.785156 207.976562 268.09375 217.28125 268.09375 228.765625 Z M 24.957031 42.019531 "/>
</clipPath>
<clipPath id="clip3">
  <path d="M 24.957031 42.019531 L 428.734375 42.019531 L 428.734375 291.351562 L 24.957031 291.351562 Z M 24.957031 42.019531 L 227.171875 104.601562 C 227.171875 116.085938 217.863281 125.390625 206.382812 125.390625 C 194.902344 125.390625 185.59375 116.085938 185.59375 104.601562 C 185.59375 93.121094 194.902344 83.8125 206.382812 83.8125 C 217.863281 83.8125 227.171875 93.121094 227.171875 104.601562 Z M 24.957031 42.019531 "/>
</clipPath>
<clipPath id="clip4">
  <path d="M 171 69.699219 L 307 69.699219 L 307 257.414062 L 171 257.414062 Z M 171 69.699219 "/>
</clipPath>
<clipPath id="clip5">
  <path d="M 40.851562 69.699219 L 436.5 69.699219 L 436.5 257.414062 L 40.851562 257.414062 Z M 40.851562 69.699219 L 268.09375 228.765625 C 268.09375 240.246094 258.785156 249.554688 247.304688 249.554688 C 235.824219 249.554688 226.515625 240.246094 226.515625 228.765625 C 226.515625 217.28125 235.824219 207.976562 247.304688 207.976562 C 258.785156 207.976562 268.09375 217.28125 268.09375 228.765625 Z M 40.851562 69.699219 "/>
</clipPath>
<clipPath id="clip6">
  <path d="M 40.851562 69.699219 L 436.5 69.699219 L 436.5 257.414062 L 40.851562 257.414062 Z M 40.851562 69.699219 L 250.832031 98.34375 C 250.832031 109.828125 241.523438 119.132812 230.042969 119.132812 C 218.5625 119.132812 209.253906 109.828125 209.253906 98.34375 C 209.253906 86.863281 218.5625 77.554688 230.042969 77.554688 C 241.523438 77.554688 250.832031 86.863281 250.832031 98.34375 Z M 40.851562 69.699219 "/>
</clipPath>
<clipPath id="clip7">
  <path d="M 188 169 L 429 169 L 429 382 L 188 382 Z M 188 169 "/>
</clipPath>
<clipPath id="clip8">
  <path d="M 129.578125 76.488281 L 487.59375 76.488281 L 487.59375 475.015625 L 129.578125 475.015625 Z M 129.578125 76.488281 L 268.09375 228.765625 C 268.09375 240.246094 258.785156 249.554688 247.304688 249.554688 C 235.824219 249.554688 226.515625 240.246094 226.515625 228.765625 C 226.515625 217.28125 235.824219 207.976562 247.304688 207.976562 C 258.785156 207.976562 268.09375 217.28125 268.09375 228.765625 Z M 129.578125 76.488281 "/>
</clipPath>
<clipPath id="clip9">
  <path d="M 129.578125 76.488281 L 487.59375 76.488281 L 487.59375 475.015625 L 129.578125 475.015625 Z M 129.578125 76.488281 L 390.652344 322.734375 C 390.652344 334.21875 381.347656 343.523438 369.863281 343.523438 C 358.382812 343.523438 349.074219 334.21875 349.074219 322.734375 C 349.074219 311.253906 358.382812 301.949219 369.863281 301.949219 C 381.347656 301.949219 390.652344 311.253906 390.652344 322.734375 Z M 129.578125 76.488281 "/>
</clipPath>
<clipPath id="clip10">
  <path d="M 188 210.5 L 314 210.5 L 314 346.730469 L 188 346.730469 Z M 188 210.5 "/>
</clipPath>
<clipPath id="clip11">
  <path d="M 57.03125 210.5 L 445.140625 210.5 L 445.140625 346.730469 L 57.03125 346.730469 Z M 57.03125 210.5 L 268.09375 228.765625 C 268.09375 240.246094 258.785156 249.554688 247.304688 249.554688 C 235.824219 249.554688 226.515625 240.246094 226.515625 228.765625 C 226.515625 217.28125 235.824219 207.976562 247.304688 207.976562 C 258.785156 207.976562 268.09375 217.28125 268.09375 228.765625 Z M 57.03125 210.5 "/>
</clipPath>
<clipPath id="clip12">
  <path d="M 57.03125 210.5 L 445.140625 210.5 L 445.140625 346.730469 L 57.03125 346.730469 Z M 57.03125 210.5 L 275.652344 328.460938 C 275.652344 339.941406 266.347656 349.25 254.863281 349.25 C 243.382812 349.25 234.074219 339.941406 234.074219 328.460938 C 234.074219 316.976562 243.382812 307.671875 254.863281 307.671875 C 266.347656 307.671875 275.652344 316.976562 275.652344 328.460938 Z M 57.03125 210.5 "/>
</clipPath>
<clipPath id="clip13">
  <path d="M 230.007812 169 L 351.007812 169 L 351.007812 294 L 230.007812 294 Z M 230.007812 169 "/>
</clipPath>
<clipPath id="clip14">
  <path d="M 230.007812 38.421875 L 351.007812 38.421875 L 351.007812 425.210938 L 230.007812 425.210938 Z M 230.007812 38.421875 L 268.09375 228.765625 C 268.09375 240.246094 258.785156 249.554688 247.304688 249.554688 C 235.824219 249.554688 226.515625 240.246094 226.515625 228.765625 C 226.515625 217.28125 235.824219 207.976562 247.304688 207.976562 C 258.785156 207.976562 268.09375 217.28125 268.09375 228.765625 Z M 230.007812 38.421875 "/>
</clipPath>
<clipPath id="clip15">
  <path d="M 230.007812 38.421875 L 351.007812 38.421875 L 351.007812 425.210938 L 230.007812 425.210938 Z M 230.007812 38.421875 L 354.496094 234.863281 C 354.496094 246.347656 345.1875 255.652344 333.707031 255.652344 C 322.222656 255.652344 312.917969 246.347656 312.917969 234.863281 C 312.917969 223.382812 322.222656 214.074219 333.707031 214.074219 C 345.1875 214.074219 354.496094 223.382812 354.496094 234.863281 Z M 230.007812 38.421875 "/>
</clipPath>
<clipPath id="clip16">
  <path d="M 69 169 L 307 169 L 307 402 L 69 402 Z M 69 169 "/>
</clipPath>
<clipPath id="clip17">
  <path d="M -5.332031 89.894531 L 380.652344 89.894531 L 380.652344 482.039062 L -5.332031 482.039062 Z M -5.332031 89.894531 L 268.09375 228.765625 C 268.09375 240.246094 258.785156 249.554688 247.304688 249.554688 C 235.824219 249.554688 226.515625 240.246094 226.515625 228.765625 C 226.515625 217.28125 235.824219 207.976562 247.304688 207.976562 C 258.785156 207.976562 268.09375 217.28125 268.09375 228.765625 Z M -5.332031 89.894531 "/>
</clipPath>
<clipPath id="clip18">
  <path d="M -5.332031 89.894531 L 380.652344 89.894531 L 380.652344 482.039062 L -5.332031 482.039062 Z M -5.332031 89.894531 L 148.800781 343.164062 C 148.800781 354.644531 139.496094 363.953125 128.011719 363.953125 C 116.53125 363.953125 107.222656 354.644531 107.222656 343.164062 C 107.222656 331.683594 116.53125 322.375 128.011719 322.375 C 139.496094 322.375 148.800781 331.683594 148.800781 343.164062 Z M -5.332031 89.894531 "/>
</clipPath>
<clipPath id="clip19">
  <path d="M 147 32.730469 L 268 32.730469 L 268 116.582031 L 147 116.582031 Z M 147 32.730469 "/>
</clipPath>
<clipPath id="clip20">
  <path d="M 15.738281 32.730469 L 399.542969 32.730469 L 399.542969 116.582031 L 15.738281 116.582031 Z M 15.738281 32.730469 L 227.171875 104.601562 C 227.171875 116.085938 217.863281 125.390625 206.382812 125.390625 C 194.902344 125.390625 185.59375 116.085938 185.59375 104.601562 C 185.59375 93.121094 194.902344 83.8125 206.382812 83.8125 C 217.863281 83.8125 227.171875 93.121094 227.171875 104.601562 Z M 15.738281 32.730469 "/>
</clipPath>
<clipPath id="clip21">
  <path d="M 15.738281 32.730469 L 399.542969 32.730469 L 399.542969 116.582031 L 15.738281 116.582031 Z M 15.738281 32.730469 L 229.683594 44.707031 C 229.683594 56.1875 220.375 65.496094 208.894531 65.496094 C 197.414062 65.496094 188.105469 56.1875 188.105469 44.707031 C 188.105469 33.226562 197.414062 23.917969 208.894531 23.917969 C 220.375 23.917969 229.683594 33.226562 229.683594 44.707031 Z M 15.738281 32.730469 "/>
</clipPath>
<clipPath id="clip22">
  <path d="M 154.5 39 L 281.929688 39 L 281.929688 164 L 154.5 164 Z M 154.5 39 "/>
</clipPath>
<clipPath id="clip23">
  <path d="M 154.5 -86.257812 L 281.929688 -86.257812 L 281.929688 289.207031 L 154.5 289.207031 Z M 154.5 -86.257812 L 227.171875 104.601562 C 227.171875 116.085938 217.863281 125.390625 206.382812 125.390625 C 194.902344 125.390625 185.59375 116.085938 185.59375 104.601562 C 185.59375 93.121094 194.902344 83.8125 206.382812 83.8125 C 217.863281 83.8125 227.171875 93.121094 227.171875 104.601562 Z M 154.5 -86.257812 "/>
</clipPath>
<clipPath id="clip24">
  <path d="M 154.5 -86.257812 L 281.929688 -86.257812 L 281.929688 289.207031 L 154.5 289.207031 Z M 154.5 -86.257812 L 250.832031 98.34375 C 250.832031 109.828125 241.523438 119.132812 230.042969 119.132812 C 218.5625 119.132812 209.253906 109.828125 209.253906 98.34375 C 209.253906 86.863281 218.5625 77.554688 230.042969 77.554688 C 241.523438 77.554688 250.832031 86.863281 250.832031 98.34375 Z M 154.5 -86.257812 "/>
</clipPath>
<clipPath id="clip25">
  <path d="M 150 0 L 289 0 L 289 158 L 150 158 Z M 150 0 "/>
</clipPath>
<clipPath id="clip26">
  <path d="M 31.097656 -27.914062 L 407.84375 -27.914062 L 407.84375 170.96875 L 31.097656 170.96875 Z M 31.097656 -27.914062 L 229.683594 44.707031 C 229.683594 56.1875 220.375 65.496094 208.894531 65.496094 C 197.414062 65.496094 188.105469 56.1875 188.105469 44.707031 C 188.105469 33.226562 197.414062 23.917969 208.894531 23.917969 C 220.375 23.917969 229.683594 33.226562 229.683594 44.707031 Z M 31.097656 -27.914062 "/>
</clipPath>
<clipPath id="clip27">
  <path d="M 31.097656 -27.914062 L 407.84375 -27.914062 L 407.84375 170.96875 L 31.097656 170.96875 Z M 31.097656 -27.914062 L 250.832031 98.34375 C 250.832031 109.828125 241.523438 119.132812 230.042969 119.132812 C 218.5625 119.132812 209.253906 109.828125 209.253906 98.34375 C 209.253906 86.863281 218.5625 77.554688 230.042969 77.554688 C 241.523438 77.554688 250.832031 86.863281 250.832031 98.34375 Z M 31.097656 -27.914062 "/>
</clipPath>
<clipPath id="clip28">
  <path d="M 311 278.65625 L 463 278.65625 L 463 523.382812 L 311 523.382812 Z M 311 278.65625 "/>
</clipPath>
<clipPath id="clip29">
  <path d="M 183.375 278.65625 L 590.636719 278.65625 L 590.636719 523.382812 L 183.375 523.382812 Z M 183.375 278.65625 L 424.933594 479.300781 C 424.933594 490.78125 415.625 500.089844 404.144531 500.089844 C 392.664062 500.089844 383.355469 490.78125 383.355469 479.300781 C 383.355469 467.820312 392.664062 458.511719 404.144531 458.511719 C 415.625 458.511719 424.933594 467.820312 424.933594 479.300781 Z M 183.375 278.65625 "/>
</clipPath>
<clipPath id="clip30">
  <path d="M 183.375 278.65625 L 590.636719 278.65625 L 590.636719 523.382812 L 183.375 523.382812 Z M 183.375 278.65625 L 390.652344 322.734375 C 390.652344 334.21875 381.347656 343.523438 369.863281 343.523438 C 358.382812 343.523438 349.074219 334.21875 349.074219 322.734375 C 349.074219 311.253906 358.382812 301.949219 369.863281 301.949219 C 381.347656 301.949219 390.652344 311.253906 390.652344 322.734375 Z M 183.375 278.65625 "/>
</clipPath>
<clipPath id="clip31">
  <path d="M 345 472.640625 L 464 472.640625 L 464 561.957031 L 345 561.957031 Z M 345 472.640625 "/>
</clipPath>
<clipPath id="clip32">
  <path d="M 213.355469 472.640625 L 595.957031 472.640625 L 595.957031 561.957031 L 213.355469 561.957031 Z M 213.355469 472.640625 L 424.933594 479.300781 C 424.933594 490.78125 415.625 500.089844 404.144531 500.089844 C 392.664062 500.089844 383.355469 490.78125 383.355469 479.300781 C 383.355469 467.820312 392.664062 458.511719 404.144531 458.511719 C 415.625 458.511719 424.933594 467.820312 424.933594 479.300781 Z M 213.355469 472.640625 "/>
</clipPath>
<clipPath id="clip33">
  <path d="M 213.355469 472.640625 L 595.957031 472.640625 L 595.957031 561.957031 L 213.355469 561.957031 Z M 213.355469 472.640625 L 425.953125 555.292969 C 425.953125 566.773438 416.644531 576.082031 405.164062 576.082031 C 393.683594 576.082031 384.375 566.773438 384.375 555.292969 C 384.375 543.8125 393.683594 534.503906 405.164062 534.503906 C 416.644531 534.503906 425.953125 543.8125 425.953125 555.292969 Z M 213.355469 472.640625 "/>
</clipPath>
<clipPath id="clip34">
  <path d="M 255 263 L 429 263 L 429 437 L 255 437 Z M 255 263 "/>
</clipPath>
<clipPath id="clip35">
  <path d="M 178.523438 186.71875 L 506.125 186.71875 L 506.125 513.9375 L 178.523438 513.9375 Z M 178.523438 186.71875 L 390.652344 322.734375 C 390.652344 334.21875 381.347656 343.523438 369.863281 343.523438 C 358.382812 343.523438 349.074219 334.21875 349.074219 322.734375 C 349.074219 311.253906 358.382812 301.949219 369.863281 301.949219 C 381.347656 301.949219 390.652344 311.253906 390.652344 322.734375 Z M 178.523438 186.71875 "/>
</clipPath>
<clipPath id="clip36">
  <path d="M 178.523438 186.71875 L 506.125 186.71875 L 506.125 513.9375 L 178.523438 513.9375 Z M 178.523438 186.71875 L 335.570312 377.917969 C 335.570312 389.398438 326.265625 398.707031 314.78125 398.707031 C 303.300781 398.707031 293.992188 389.398438 293.992188 377.917969 C 293.992188 366.4375 303.300781 357.128906 314.78125 357.128906 C 326.265625 357.128906 335.570312 366.4375 335.570312 377.917969 Z M 178.523438 186.71875 "/>
</clipPath>
<clipPath id="clip37">
  <path d="M 241.425781 263 L 383.304688 263 L 383.304688 388 L 241.425781 388 Z M 241.425781 263 "/>
</clipPath>
<clipPath id="clip38">
  <path d="M 241.425781 132.160156 L 383.304688 132.160156 L 383.304688 519.039062 L 241.425781 519.039062 Z M 241.425781 132.160156 L 390.652344 322.734375 C 390.652344 334.21875 381.347656 343.523438 369.863281 343.523438 C 358.382812 343.523438 349.074219 334.21875 349.074219 322.734375 C 349.074219 311.253906 358.382812 301.949219 369.863281 301.949219 C 381.347656 301.949219 390.652344 311.253906 390.652344 322.734375 Z M 241.425781 132.160156 "/>
</clipPath>
<clipPath id="clip39">
  <path d="M 241.425781 132.160156 L 383.304688 132.160156 L 383.304688 519.039062 L 241.425781 519.039062 Z M 241.425781 132.160156 L 275.652344 328.460938 C 275.652344 339.941406 266.347656 349.25 254.863281 349.25 C 243.382812 349.25 234.074219 339.941406 234.074219 328.460938 C 234.074219 316.976562 243.382812 307.671875 254.863281 307.671875 C 266.347656 307.671875 275.652344 316.976562 275.652344 328.460938 Z M 241.425781 132.160156 "/>
</clipPath>
<clipPath id="clip40">
  <path d="M 274 176 L 429 176 L 429 382 L 274 382 Z M 274 176 "/>
</clipPath>
<clipPath id="clip41">
  <path d="M 156.941406 159.683594 L 546.632812 159.683594 L 546.632812 397.917969 L 156.941406 397.917969 Z M 156.941406 159.683594 L 390.652344 322.734375 C 390.652344 334.21875 381.347656 343.523438 369.863281 343.523438 C 358.382812 343.523438 349.074219 334.21875 349.074219 322.734375 C 349.074219 311.253906 358.382812 301.949219 369.863281 301.949219 C 381.347656 301.949219 390.652344 311.253906 390.652344 322.734375 Z M 156.941406 159.683594 "/>
</clipPath>
<clipPath id="clip42">
  <path d="M 156.941406 159.683594 L 546.632812 159.683594 L 546.632812 397.917969 L 156.941406 397.917969 Z M 156.941406 159.683594 L 354.496094 234.863281 C 354.496094 246.347656 345.1875 255.652344 333.707031 255.652344 C 322.222656 255.652344 312.917969 246.347656 312.917969 234.863281 C 312.917969 223.382812 322.222656 214.074219 333.707031 214.074219 C 345.1875 214.074219 354.496094 223.382812 354.496094 234.863281 Z M 156.941406 159.683594 "/>
</clipPath>
<clipPath id="clip43">
  <path d="M 352.628906 256 L 493.324219 256 L 493.324219 382 L 352.628906 382 Z M 352.628906 256 "/>
</clipPath>
<clipPath id="clip44">
  <path d="M 352.628906 124.925781 L 493.324219 124.925781 L 493.324219 513.085938 L 352.628906 513.085938 Z M 352.628906 124.925781 L 390.652344 322.734375 C 390.652344 334.21875 381.347656 343.523438 369.863281 343.523438 C 358.382812 343.523438 349.074219 334.21875 349.074219 322.734375 C 349.074219 311.253906 358.382812 301.949219 369.863281 301.949219 C 381.347656 301.949219 390.652344 311.253906 390.652344 322.734375 Z M 352.628906 124.925781 "/>
</clipPath>
<clipPath id="clip45">
  <path d="M 352.628906 124.925781 L 493.324219 124.925781 L 493.324219 513.085938 L 352.628906 513.085938 Z M 352.628906 124.925781 L 496.871094 315.273438 C 496.871094 326.753906 487.566406 336.0625 476.085938 336.0625 C 464.601562 336.0625 455.296875 326.753906 455.296875 315.273438 C 455.296875 303.792969 464.601562 294.484375 476.085938 294.484375 C 487.566406 294.484375 496.871094 303.792969 496.871094 315.273438 Z M 352.628906 124.925781 "/>
</clipPath>
<clipPath id="clip46">
  <path d="M 311 213 L 556 213 L 556 382 L 311 382 Z M 311 213 "/>
</clipPath>
<clipPath id="clip47">
  <path d="M 297.285156 94.785156 L 569.691406 94.785156 L 569.691406 500.550781 L 297.285156 500.550781 Z M 297.285156 94.785156 L 390.652344 322.734375 C 390.652344 334.21875 381.347656 343.523438 369.863281 343.523438 C 358.382812 343.523438 349.074219 334.21875 349.074219 322.734375 C 349.074219 311.253906 358.382812 301.949219 369.863281 301.949219 C 381.347656 301.949219 390.652344 311.253906 390.652344 322.734375 Z M 297.285156 94.785156 "/>
</clipPath>
<clipPath id="clip48">
  <path d="M 297.285156 94.785156 L 569.691406 94.785156 L 569.691406 500.550781 L 297.285156 500.550781 Z M 297.285156 94.785156 L 517.898438 272.597656 C 517.898438 284.078125 508.59375 293.386719 497.109375 293.386719 C 485.628906 293.386719 476.320312 284.078125 476.320312 272.597656 C 476.320312 261.113281 485.628906 251.808594 497.109375 251.808594 C 508.59375 251.808594 517.898438 261.113281 517.898438 272.597656 Z M 297.285156 94.785156 "/>
</clipPath>
<clipPath id="clip49">
  <path d="M 196 269 L 374 269 L 374 437 L 196 437 Z M 196 269 "/>
</clipPath>
<clipPath id="clip50">
  <path d="M 131.890625 180.355469 L 437.757812 180.355469 L 437.757812 526.027344 L 131.890625 526.027344 Z M 131.890625 180.355469 L 335.570312 377.917969 C 335.570312 389.398438 326.265625 398.707031 314.78125 398.707031 C 303.300781 398.707031 293.992188 389.398438 293.992188 377.917969 C 293.992188 366.4375 303.300781 357.128906 314.78125 357.128906 C 326.265625 357.128906 335.570312 366.4375 335.570312 377.917969 Z M 131.890625 180.355469 "/>
</clipPath>
<clipPath id="clip51">
  <path d="M 131.890625 180.355469 L 437.757812 180.355469 L 437.757812 526.027344 L 131.890625 526.027344 Z M 131.890625 180.355469 L 275.652344 328.460938 C 275.652344 339.941406 266.347656 349.25 254.863281 349.25 C 243.382812 349.25 234.074219 339.941406 234.074219 328.460938 C 234.074219 316.976562 243.382812 307.671875 254.863281 307.671875 C 266.347656 307.671875 275.652344 316.976562 275.652344 328.460938 Z M 131.890625 180.355469 "/>
</clipPath>
<clipPath id="clip52">
  <path d="M 102.363281 269 L 280.515625 269 L 280.515625 402 L 102.363281 402 Z M 102.363281 269 "/>
</clipPath>
<clipPath id="clip53">
  <path d="M 102.363281 138.894531 L 280.515625 138.894531 L 280.515625 532.734375 L 102.363281 532.734375 Z M 102.363281 138.894531 L 275.652344 328.460938 C 275.652344 339.941406 266.347656 349.25 254.863281 349.25 C 243.382812 349.25 234.074219 339.941406 234.074219 328.460938 C 234.074219 316.976562 243.382812 307.671875 254.863281 307.671875 C 266.347656 307.671875 275.652344 316.976562 275.652344 328.460938 Z M 102.363281 138.894531 "/>
</clipPath>
<clipPath id="clip54">
  <path d="M 102.363281 138.894531 L 280.515625 138.894531 L 280.515625 532.734375 L 102.363281 532.734375 Z M 102.363281 138.894531 L 148.800781 343.164062 C 148.800781 354.644531 139.496094 363.953125 128.011719 363.953125 C 116.53125 363.953125 107.222656 354.644531 107.222656 343.164062 C 107.222656 331.683594 116.53125 322.375 128.011719 322.375 C 139.496094 322.375 148.800781 331.683594 148.800781 343.164062 Z M 102.363281 138.894531 "/>
</clipPath>
<clipPath id="clip55">
  <path d="M 18 284 L 187 284 L 187 481 L 18 481 Z M 18 284 "/>
</clipPath>
<clipPath id="clip56">
  <path d="M -83.679688 237.410156 L 288.75 237.410156 L 288.75 527.453125 L -83.679688 527.453125 Z M -83.679688 237.410156 L 148.800781 343.164062 C 148.800781 354.644531 139.496094 363.953125 128.011719 363.953125 C 116.53125 363.953125 107.222656 354.644531 107.222656 343.164062 C 107.222656 331.683594 116.53125 322.375 128.011719 322.375 C 139.496094 322.375 148.800781 331.683594 148.800781 343.164062 Z M -83.679688 237.410156 "/>
</clipPath>
<clipPath id="clip57">
  <path d="M -83.679688 237.410156 L 288.75 237.410156 L 288.75 527.453125 L -83.679688 527.453125 Z M -83.679688 237.410156 L 97.84375 421.695312 C 97.84375 433.175781 88.535156 442.484375 77.054688 442.484375 C 65.574219 442.484375 56.265625 433.175781 56.265625 421.695312 C 56.265625 410.214844 65.574219 400.90625 77.054688 400.90625 C 88.535156 400.90625 97.84375 410.214844 97.84375 421.695312 Z M -83.679688 237.410156 "/>
</clipPath>
<clipPath id="clip58">
  <path d="M 0 284 L 187 284 L 187 444 L 0 444 Z M 0 284 "/>
</clipPath>
<clipPath id="clip59">
  <path d="M -41.324219 178.03125 L 226.644531 178.03125 L 226.644531 549.796875 L -41.324219 549.796875 Z M -41.324219 178.03125 L 148.800781 343.164062 C 148.800781 354.644531 139.496094 363.953125 128.011719 363.953125 C 116.53125 363.953125 107.222656 354.644531 107.222656 343.164062 C 107.222656 331.683594 116.53125 322.375 128.011719 322.375 C 139.496094 322.375 148.800781 331.683594 148.800781 343.164062 Z M -41.324219 178.03125 "/>
</clipPath>
<clipPath id="clip60">
  <path d="M -41.324219 178.03125 L 226.644531 178.03125 L 226.644531 549.796875 L -41.324219 549.796875 Z M -41.324219 178.03125 L 78.09375 384.660156 C 78.09375 396.144531 68.785156 405.449219 57.304688 405.449219 C 45.820312 405.449219 36.515625 396.144531 36.515625 384.660156 C 36.515625 373.179688 45.820312 363.871094 57.304688 363.871094 C 68.785156 363.871094 78.09375 373.179688 78.09375 384.660156 Z M -41.324219 178.03125 "/>
</clipPath>
<clipPath id="clip61">
  <path d="M 35.007812 284 L 135.65625 284 L 135.65625 404 L 35.007812 404 Z M 35.007812 284 "/>
</clipPath>
<clipPath id="clip62">
  <path d="M 35.007812 152.390625 L 135.65625 152.390625 L 135.65625 535.535156 L 35.007812 535.535156 Z M 35.007812 152.390625 L 148.800781 343.164062 C 148.800781 354.644531 139.496094 363.953125 128.011719 363.953125 C 116.53125 363.953125 107.222656 354.644531 107.222656 343.164062 C 107.222656 331.683594 116.53125 322.375 128.011719 322.375 C 139.496094 322.375 148.800781 331.683594 148.800781 343.164062 Z M 35.007812 152.390625 "/>
</clipPath>
<clipPath id="clip63">
  <path d="M 35.007812 152.390625 L 135.65625 152.390625 L 135.65625 535.535156 L 35.007812 535.535156 Z M 35.007812 152.390625 L 63.4375 344.757812 C 63.4375 356.238281 54.128906 365.546875 42.648438 365.546875 C 31.167969 365.546875 21.859375 356.238281 21.859375 344.757812 C 21.859375 333.277344 31.167969 323.96875 42.648438 323.96875 C 54.128906 323.96875 63.4375 333.277344 63.4375 344.757812 Z M 35.007812 152.390625 "/>
</clipPath>
<clipPath id="clip64">
  <path d="M 0 325 L 136 325 L 136 481 L 0 481 Z M 0 325 "/>
</clipPath>
<clipPath id="clip65">
  <path d="M -111.546875 292.675781 L 245.910156 292.675781 L 245.910156 513.683594 L -111.546875 513.683594 Z M -111.546875 292.675781 L 97.84375 421.695312 C 97.84375 433.175781 88.535156 442.484375 77.054688 442.484375 C 65.574219 442.484375 56.265625 433.175781 56.265625 421.695312 C 56.265625 410.214844 65.574219 400.90625 77.054688 400.90625 C 88.535156 400.90625 97.84375 410.214844 97.84375 421.695312 Z M -111.546875 292.675781 "/>
</clipPath>
<clipPath id="clip66">
  <path d="M -111.546875 292.675781 L 245.910156 292.675781 L 245.910156 513.683594 L -111.546875 513.683594 Z M -111.546875 292.675781 L 78.09375 384.660156 C 78.09375 396.144531 68.785156 405.449219 57.304688 405.449219 C 45.820312 405.449219 36.515625 396.144531 36.515625 384.660156 C 36.515625 373.179688 45.820312 363.871094 57.304688 363.871094 C 68.785156 363.871094 78.09375 373.179688 78.09375 384.660156 Z M -111.546875 292.675781 "/>
</clipPath>
<clipPath id="clip67">
  <path d="M 0 285 L 117 285 L 117 444 L 0 444 Z M 0 285 "/>
</clipPath>
<clipPath id="clip68">
  <path d="M -136.714844 276.246094 L 236.671875 276.246094 L 236.671875 453.175781 L -136.714844 453.175781 Z M -136.714844 276.246094 L 78.09375 384.660156 C 78.09375 396.144531 68.785156 405.449219 57.304688 405.449219 C 45.820312 405.449219 36.515625 396.144531 36.515625 384.660156 C 36.515625 373.179688 45.820312 363.871094 57.304688 363.871094 C 68.785156 363.871094 78.09375 373.179688 78.09375 384.660156 Z M -136.714844 276.246094 "/>
</clipPath>
<clipPath id="clip69">
  <path d="M -136.714844 276.246094 L 236.671875 276.246094 L 236.671875 453.175781 L -136.714844 453.175781 Z M -136.714844 276.246094 L 63.4375 344.757812 C 63.4375 356.238281 54.128906 365.546875 42.648438 365.546875 C 31.167969 365.546875 21.859375 356.238281 21.859375 344.757812 C 21.859375 333.277344 31.167969 323.96875 42.648438 323.96875 C 54.128906 323.96875 63.4375 333.277344 63.4375 344.757812 Z M -136.714844 276.246094 "/>
</clipPath>
<clipPath id="clip70">
  <path d="M 417 213 L 556 213 L 556 375 L 417 375 Z M 417 213 "/>
</clipPath>
<clipPath id="clip71">
  <path d="M 304.492188 185.957031 L 668.707031 185.957031 L 668.707031 401.917969 L 304.492188 401.917969 Z M 304.492188 185.957031 L 496.871094 315.273438 C 496.871094 326.753906 487.566406 336.0625 476.085938 336.0625 C 464.601562 336.0625 455.296875 326.753906 455.296875 315.273438 C 455.296875 303.792969 464.601562 294.484375 476.085938 294.484375 C 487.566406 294.484375 496.871094 303.792969 496.871094 315.273438 Z M 304.492188 185.957031 "/>
</clipPath>
<clipPath id="clip72">
  <path d="M 304.492188 185.957031 L 668.707031 185.957031 L 668.707031 401.917969 L 304.492188 401.917969 Z M 304.492188 185.957031 L 517.898438 272.597656 C 517.898438 284.078125 508.59375 293.386719 497.109375 293.386719 C 485.628906 293.386719 476.320312 284.078125 476.320312 272.597656 C 476.320312 261.113281 485.628906 251.808594 497.109375 251.808594 C 508.59375 251.808594 517.898438 261.113281 517.898438 272.597656 Z M 304.492188 185.957031 "/>
</clipPath>
<clipPath id="clip73">
  <path d="M 438 159 L 600 159 L 600 332 L 438 332 Z M 438 159 "/>
</clipPath>
<clipPath id="clip74">
  <path d="M 367.6875 75.53125 L 686.777344 75.53125 L 686.777344 415.132812 L 367.6875 415.132812 Z M 367.6875 75.53125 L 517.898438 272.597656 C 517.898438 284.078125 508.59375 293.386719 497.109375 293.386719 C 485.628906 293.386719 476.320312 284.078125 476.320312 272.597656 C 476.320312 261.113281 485.628906 251.808594 497.109375 251.808594 C 508.59375 251.808594 517.898438 261.113281 517.898438 272.597656 Z M 367.6875 75.53125 "/>
</clipPath>
<clipPath id="clip75">
  <path d="M 367.6875 75.53125 L 686.777344 75.53125 L 686.777344 415.132812 L 367.6875 415.132812 Z M 367.6875 75.53125 L 578.140625 218.0625 C 578.140625 229.542969 568.832031 238.851562 557.351562 238.851562 C 545.871094 238.851562 536.5625 229.542969 536.5625 218.0625 C 536.5625 206.582031 545.871094 197.273438 557.351562 197.273438 C 568.832031 197.273438 578.140625 206.582031 578.140625 218.0625 Z M 367.6875 75.53125 "/>
</clipPath>
</defs>
<g id="surface411">
<g clip-path="url(#clip1)" clip-rule="nonzero">
<g clip-path="url(#clip2)" clip-rule="evenodd">
<g clip-path="url(#clip3)" clip-rule="evenodd">
<path style="fill:none;stroke-width:0.0222756;stroke-linecap:butt;stroke-linejoin:miter;stroke:rgb(17.96875%,20.3125%,21.09375%);stroke-opacity:0.8;stroke-miterlimit:10;" d="M 2.071545 1.366764 L 1.852302 0.701542 " transform="matrix(186.650504,0,0,186.650504,-139.350319,-26.341582)"/>
</g>
</g>
</g>
<g clip-path="url(#clip4)" clip-rule="nonzero">
<g clip-path="url(#clip5)" clip-rule="evenodd">
<g clip-path="url(#clip6)" clip-rule="evenodd">
<path style="fill:none;stroke-width:0.0222756;stroke-linecap:butt;stroke-linejoin:miter;stroke:rgb(17.96875%,20.3125%,21.09375%);stroke-opacity:0.8;stroke-miterlimit:10;" d="M 2.071545 1.366764 L 1.979064 0.668015 " transform="matrix(186.650504,0,0,186.650504,-139.350319,-26.341582)"/>
</g>
</g>
</g>
<g clip-path="url(#clip7)" clip-rule="nonzero">
<g clip-path="url(#clip8)" clip-rule="evenodd">
<g clip-path="url(#clip9)" clip-rule="evenodd">
<path style="fill:none;stroke-width:0.0222756;stroke-linecap:butt;stroke-linejoin:miter;stroke:rgb(17.96875%,20.3125%,21.09375%);stroke-opacity:0.8;stroke-miterlimit:10;" d="M 2.071545 1.366764 L 2.728166 1.870212 " transform="matrix(186.650504,0,0,186.650504,-139.350319,-26.341582)"/>
</g>
</g>
</g>
<g clip-path="url(#clip10)" clip-rule="nonzero">
<g clip-path="url(#clip11)" clip-rule="evenodd">
<g clip-path="url(#clip12)" clip-rule="evenodd">
<path style="fill:none;stroke-width:0.0222756;stroke-linecap:butt;stroke-linejoin:miter;stroke:rgb(17.96875%,20.3125%,21.09375%);stroke-opacity:0.8;stroke-miterlimit:10;" d="M 2.071545 1.366764 L 2.112041 1.900892 " transform="matrix(186.650504,0,0,186.650504,-139.350319,-26.341582)"/>
</g>
</g>
</g>
<g clip-path="url(#clip13)" clip-rule="nonzero">
<g clip-path="url(#clip14)" clip-rule="evenodd">
<g clip-path="url(#clip15)" clip-rule="evenodd">
<path style="fill:none;stroke-width:0.0222756;stroke-linecap:butt;stroke-linejoin:miter;stroke:rgb(17.96875%,20.3125%,21.09375%);stroke-opacity:0.8;stroke-miterlimit:10;" d="M 2.071545 1.366764 L 2.534455 1.399433 " transform="matrix(186.650504,0,0,186.650504,-139.350319,-26.341582)"/>
</g>
</g>
</g>
<g clip-path="url(#clip16)" clip-rule="nonzero">
<g clip-path="url(#clip17)" clip-rule="evenodd">
<g clip-path="url(#clip18)" clip-rule="evenodd">
<path style="fill:none;stroke-width:0.0222756;stroke-linecap:butt;stroke-linejoin:miter;stroke:rgb(17.96875%,20.3125%,21.09375%);stroke-opacity:0.8;stroke-miterlimit:10;" d="M 2.071545 1.366764 L 1.432421 1.979666 " transform="matrix(186.650504,0,0,186.650504,-139.350319,-26.341582)"/>
</g>
</g>
</g>
<g clip-path="url(#clip19)" clip-rule="nonzero">
<g clip-path="url(#clip20)" clip-rule="evenodd">
<g clip-path="url(#clip21)" clip-rule="evenodd">
<path style="fill:none;stroke-width:0.0222756;stroke-linecap:butt;stroke-linejoin:miter;stroke:rgb(17.96875%,20.3125%,21.09375%);stroke-opacity:0.8;stroke-miterlimit:10;" d="M 1.852302 0.701542 L 1.865759 0.380651 " transform="matrix(186.650504,0,0,186.650504,-139.350319,-26.341582)"/>
</g>
</g>
</g>
<g clip-path="url(#clip22)" clip-rule="nonzero">
<g clip-path="url(#clip23)" clip-rule="evenodd">
<g clip-path="url(#clip24)" clip-rule="evenodd">
<path style="fill:none;stroke-width:0.0222756;stroke-linecap:butt;stroke-linejoin:miter;stroke:rgb(17.96875%,20.3125%,21.09375%);stroke-opacity:0.8;stroke-miterlimit:10;" d="M 1.852302 0.701542 L 1.979064 0.668015 " transform="matrix(186.650504,0,0,186.650504,-139.350319,-26.341582)"/>
</g>
</g>
</g>
<g clip-path="url(#clip25)" clip-rule="nonzero">
<g clip-path="url(#clip26)" clip-rule="evenodd">
<g clip-path="url(#clip27)" clip-rule="evenodd">
<path style="fill:none;stroke-width:0.0222756;stroke-linecap:butt;stroke-linejoin:miter;stroke:rgb(17.96875%,20.3125%,21.09375%);stroke-opacity:0.8;stroke-miterlimit:10;" d="M 1.865759 0.380651 L 1.979064 0.668015 " transform="matrix(186.650504,0,0,186.650504,-139.350319,-26.341582)"/>
</g>
</g>
</g>
<g clip-path="url(#clip28)" clip-rule="nonzero">
<g clip-path="url(#clip29)" clip-rule="evenodd">
<g clip-path="url(#clip30)" clip-rule="evenodd">
<path style="fill:none;stroke-width:0.0222756;stroke-linecap:butt;stroke-linejoin:miter;stroke:rgb(17.96875%,20.3125%,21.09375%);stroke-opacity:0.8;stroke-miterlimit:10;" d="M 2.911832 2.709033 L 2.728166 1.870212 " transform="matrix(186.650504,0,0,186.650504,-139.350319,-26.341582)"/>
</g>
</g>
</g>
<g clip-path="url(#clip31)" clip-rule="nonzero">
<g clip-path="url(#clip32)" clip-rule="evenodd">
<g clip-path="url(#clip33)" clip-rule="evenodd">
<path style="fill:none;stroke-width:0.0222756;stroke-linecap:butt;stroke-linejoin:miter;stroke:rgb(17.96875%,20.3125%,21.09375%);stroke-opacity:0.8;stroke-miterlimit:10;" d="M 2.911832 2.709033 L 2.917294 3.116169 " transform="matrix(186.650504,0,0,186.650504,-139.350319,-26.341582)"/>
</g>
</g>
</g>
<g clip-path="url(#clip34)" clip-rule="nonzero">
<g clip-path="url(#clip35)" clip-rule="evenodd">
<g clip-path="url(#clip36)" clip-rule="evenodd">
<path style="fill:none;stroke-width:0.0222756;stroke-linecap:butt;stroke-linejoin:miter;stroke:rgb(17.96875%,20.3125%,21.09375%);stroke-opacity:0.8;stroke-miterlimit:10;" d="M 2.728166 1.870212 L 2.433058 2.165864 " transform="matrix(186.650504,0,0,186.650504,-139.350319,-26.341582)"/>
</g>
</g>
</g>
<g clip-path="url(#clip37)" clip-rule="nonzero">
<g clip-path="url(#clip38)" clip-rule="evenodd">
<g clip-path="url(#clip39)" clip-rule="evenodd">
<path style="fill:none;stroke-width:0.0222756;stroke-linecap:butt;stroke-linejoin:miter;stroke:rgb(17.96875%,20.3125%,21.09375%);stroke-opacity:0.8;stroke-miterlimit:10;" d="M 2.728166 1.870212 L 2.112041 1.900892 " transform="matrix(186.650504,0,0,186.650504,-139.350319,-26.341582)"/>
</g>
</g>
</g>
<g clip-path="url(#clip40)" clip-rule="nonzero">
<g clip-path="url(#clip41)" clip-rule="evenodd">
<g clip-path="url(#clip42)" clip-rule="evenodd">
<path style="fill:none;stroke-width:0.0222756;stroke-linecap:butt;stroke-linejoin:miter;stroke:rgb(17.96875%,20.3125%,21.09375%);stroke-opacity:0.8;stroke-miterlimit:10;" d="M 2.728166 1.870212 L 2.534455 1.399433 " transform="matrix(186.650504,0,0,186.650504,-139.350319,-26.341582)"/>
</g>
</g>
</g>
<g clip-path="url(#clip43)" clip-rule="nonzero">
<g clip-path="url(#clip44)" clip-rule="evenodd">
<g clip-path="url(#clip45)" clip-rule="evenodd">
<path style="fill:none;stroke-width:0.0222756;stroke-linecap:butt;stroke-linejoin:miter;stroke:rgb(17.96875%,20.3125%,21.09375%);stroke-opacity:0.8;stroke-miterlimit:10;" d="M 2.728166 1.870212 L 3.297265 1.830239 " transform="matrix(186.650504,0,0,186.650504,-139.350319,-26.341582)"/>
</g>
</g>
</g>
<g clip-path="url(#clip46)" clip-rule="nonzero">
<g clip-path="url(#clip47)" clip-rule="evenodd">
<g clip-path="url(#clip48)" clip-rule="evenodd">
<path style="fill:none;stroke-width:0.0222756;stroke-linecap:butt;stroke-linejoin:miter;stroke:rgb(17.96875%,20.3125%,21.09375%);stroke-opacity:0.8;stroke-miterlimit:10;" d="M 2.728166 1.870212 L 3.409901 1.601599 " transform="matrix(186.650504,0,0,186.650504,-139.350319,-26.341582)"/>
</g>
</g>
</g>
<g clip-path="url(#clip49)" clip-rule="nonzero">
<g clip-path="url(#clip50)" clip-rule="evenodd">
<g clip-path="url(#clip51)" clip-rule="evenodd">
<path style="fill:none;stroke-width:0.0222756;stroke-linecap:butt;stroke-linejoin:miter;stroke:rgb(17.96875%,20.3125%,21.09375%);stroke-opacity:0.8;stroke-miterlimit:10;" d="M 2.433058 2.165864 L 2.112041 1.900892 " transform="matrix(186.650504,0,0,186.650504,-139.350319,-26.341582)"/>
</g>
</g>
</g>
<g clip-path="url(#clip52)" clip-rule="nonzero">
<g clip-path="url(#clip53)" clip-rule="evenodd">
<g clip-path="url(#clip54)" clip-rule="evenodd">
<path style="fill:none;stroke-width:0.0222756;stroke-linecap:butt;stroke-linejoin:miter;stroke:rgb(17.96875%,20.3125%,21.09375%);stroke-opacity:0.8;stroke-miterlimit:10;" d="M 2.112041 1.900892 L 1.432421 1.979666 " transform="matrix(186.650504,0,0,186.650504,-139.350319,-26.341582)"/>
</g>
</g>
</g>
<g clip-path="url(#clip55)" clip-rule="nonzero">
<g clip-path="url(#clip56)" clip-rule="evenodd">
<g clip-path="url(#clip57)" clip-rule="evenodd">
<path style="fill:none;stroke-width:0.0222756;stroke-linecap:butt;stroke-linejoin:miter;stroke:rgb(17.96875%,20.3125%,21.09375%);stroke-opacity:0.8;stroke-miterlimit:10;" d="M 1.432421 1.979666 L 1.159413 2.400405 " transform="matrix(186.650504,0,0,186.650504,-139.350319,-26.341582)"/>
</g>
</g>
</g>
<g clip-path="url(#clip58)" clip-rule="nonzero">
<g clip-path="url(#clip59)" clip-rule="evenodd">
<g clip-path="url(#clip60)" clip-rule="evenodd">
<path style="fill:none;stroke-width:0.0222756;stroke-linecap:butt;stroke-linejoin:miter;stroke:rgb(17.96875%,20.3125%,21.09375%);stroke-opacity:0.8;stroke-miterlimit:10;" d="M 1.432421 1.979666 L 1.0536 2.201986 " transform="matrix(186.650504,0,0,186.650504,-139.350319,-26.341582)"/>
</g>
</g>
</g>
<g clip-path="url(#clip61)" clip-rule="nonzero">
<g clip-path="url(#clip62)" clip-rule="evenodd">
<g clip-path="url(#clip63)" clip-rule="evenodd">
<path style="fill:none;stroke-width:0.0222756;stroke-linecap:butt;stroke-linejoin:miter;stroke:rgb(17.96875%,20.3125%,21.09375%);stroke-opacity:0.8;stroke-miterlimit:10;" d="M 1.432421 1.979666 L 0.975078 1.988205 " transform="matrix(186.650504,0,0,186.650504,-139.350319,-26.341582)"/>
</g>
</g>
</g>
<g clip-path="url(#clip64)" clip-rule="nonzero">
<g clip-path="url(#clip65)" clip-rule="evenodd">
<g clip-path="url(#clip66)" clip-rule="evenodd">
<path style="fill:none;stroke-width:0.0222756;stroke-linecap:butt;stroke-linejoin:miter;stroke:rgb(17.96875%,20.3125%,21.09375%);stroke-opacity:0.8;stroke-miterlimit:10;" d="M 1.159413 2.400405 L 1.0536 2.201986 " transform="matrix(186.650504,0,0,186.650504,-139.350319,-26.341582)"/>
</g>
</g>
</g>
<g clip-path="url(#clip67)" clip-rule="nonzero">
<g clip-path="url(#clip68)" clip-rule="evenodd">
<g clip-path="url(#clip69)" clip-rule="evenodd">
<path style="fill:none;stroke-width:0.0222756;stroke-linecap:butt;stroke-linejoin:miter;stroke:rgb(17.96875%,20.3125%,21.09375%);stroke-opacity:0.8;stroke-miterlimit:10;" d="M 1.0536 2.201986 L 0.975078 1.988205 " transform="matrix(186.650504,0,0,186.650504,-139.350319,-26.341582)"/>
</g>
</g>
</g>
<g clip-path="url(#clip70)" clip-rule="nonzero">
<g clip-path="url(#clip71)" clip-rule="evenodd">
<g clip-path="url(#clip72)" clip-rule="evenodd">
<path style="fill:none;stroke-width:0.0222756;stroke-linecap:butt;stroke-linejoin:miter;stroke:rgb(17.96875%,20.3125%,21.09375%);stroke-opacity:0.8;stroke-miterlimit:10;" d="M 3.297265 1.830239 L 3.409901 1.601599 " transform="matrix(186.650504,0,0,186.650504,-139.350319,-26.341582)"/>
</g>
</g>
</g>
<g clip-path="url(#clip73)" clip-rule="nonzero">
<g clip-path="url(#clip74)" clip-rule="evenodd">
<g clip-path="url(#clip75)" clip-rule="evenodd">
<path style="fill:none;stroke-width:0.0222756;stroke-linecap:butt;stroke-linejoin:miter;stroke:rgb(17.96875%,20.3125%,21.09375%);stroke-opacity:0.8;stroke-miterlimit:10;" d="M 3.409901 1.601599 L 3.732655 1.309421 " transform="matrix(186.650504,0,0,186.650504,-139.350319,-26.341582)"/>
</g>
</g>
</g>
<path style="fill-rule:nonzero;fill:rgb(100%,92.941176%,43.529412%);fill-opacity:1;stroke-width:0.0222756;stroke-linecap:butt;stroke-linejoin:miter;stroke:rgb(60%,60%,60%);stroke-opacity:0.8;stroke-miterlimit:10;" d="M 0.111378 0.00000660108 C 0.111378 0.0615144 0.0615058 0.111386 -0.00000204492 0.111386 C -0.0615099 0.111386 -0.111382 0.0615144 -0.111382 0.00000660108 C -0.111382 -0.0615222 -0.0615099 -0.111373 -0.00000204492 -0.111373 C 0.0615058 -0.111373 0.111378 -0.0615222 0.111378 0.00000660108 Z M 0.111378 0.00000660108 " transform="matrix(186.650504,0,0,186.650504,247.305069,228.764393)"/>
<path style="fill-rule:nonzero;fill:rgb(100%,92.941176%,43.529412%);fill-opacity:1;stroke-width:0.0222756;stroke-linecap:butt;stroke-linejoin:miter;stroke:rgb(60%,60%,60%);stroke-opacity:0.8;stroke-miterlimit:10;" d="M 0.111381 -0.00000666178 C 0.111381 0.0615221 0.0615095 0.111373 0.00000166084 0.111373 C -0.0615062 0.111373 -0.111378 0.0615221 -0.111378 -0.00000666178 C -0.111378 -0.0615145 -0.0615062 -0.111386 0.00000166084 -0.111386 C 0.0615095 -0.111386 0.111381 -0.0615145 0.111381 -0.00000666178 Z M 0.111381 -0.00000666178 " transform="matrix(186.650504,0,0,186.650504,206.382503,104.602806)"/>
<path style="fill-rule:nonzero;fill:rgb(100%,92.941176%,43.529412%);fill-opacity:1;stroke-width:0.0222756;stroke-linecap:butt;stroke-linejoin:miter;stroke:rgb(60%,60%,60%);stroke-opacity:0.8;stroke-miterlimit:10;" d="M 0.111384 -0.00000350897 C 0.111384 0.0615043 0.0615126 0.111376 0.00000478264 0.111376 C -0.0615031 0.111376 -0.111375 0.0615043 -0.111375 -0.00000350897 C -0.111375 -0.0615113 -0.0615031 -0.111383 0.00000478264 -0.111383 C 0.0615126 -0.111383 0.111384 -0.0615113 0.111384 -0.00000350897 Z M 0.111384 -0.00000350897 " transform="matrix(186.650504,0,0,186.650504,208.893639,44.707686)"/>
<path style="fill-rule:nonzero;fill:rgb(100%,92.941176%,43.529412%);fill-opacity:1;stroke-width:0.0222756;stroke-linecap:butt;stroke-linejoin:miter;stroke:rgb(60%,60%,60%);stroke-opacity:0.8;stroke-miterlimit:10;" d="M 0.111375 -0.00000861005 C 0.111375 0.0615202 0.0615033 0.111371 -0.00000449505 0.111371 C -0.0615123 0.111371 -0.111384 0.0615202 -0.111384 -0.00000861005 C -0.111384 -0.0615164 -0.0615123 -0.111388 -0.00000449505 -0.111388 C 0.0615033 -0.111388 0.111375 -0.0615164 0.111375 -0.00000861005 Z M 0.111375 -0.00000861005 " transform="matrix(186.650504,0,0,186.650504,230.043808,98.345357)"/>
<path style="fill-rule:nonzero;fill:rgb(55.294118%,82.745098%,78.039216%);fill-opacity:1;stroke-width:0.0222756;stroke-linecap:butt;stroke-linejoin:miter;stroke:rgb(60%,60%,60%);stroke-opacity:0.8;stroke-miterlimit:10;" d="M 0.111377 -0.00000494979 C 0.111377 0.0615029 0.0615057 0.111375 -0.00000216837 0.111375 C -0.06151 0.111375 -0.111382 0.0615029 -0.111382 -0.00000494979 C -0.111382 -0.0615128 -0.06151 -0.111385 -0.00000216837 -0.111385 C 0.0615057 -0.111385 0.111377 -0.0615128 0.111377 -0.00000494979 Z M 0.111377 -0.00000494979 " transform="matrix(186.650504,0,0,186.650504,404.144936,479.301705)"/>
<path style="fill-rule:nonzero;fill:rgb(55.294118%,82.745098%,78.039216%);fill-opacity:1;stroke-width:0.0222756;stroke-linecap:butt;stroke-linejoin:miter;stroke:rgb(60%,60%,60%);stroke-opacity:0.8;stroke-miterlimit:10;" d="M 0.111372 -0.00000931229 C 0.111372 0.0615195 0.0615214 0.11137 -0.00000731713 0.11137 C -0.0615152 0.11137 -0.111387 0.0615195 -0.111387 -0.00000931229 C -0.111387 -0.0615171 -0.0615152 -0.111368 -0.00000731713 -0.111368 C 0.0615214 -0.111368 0.111372 -0.0615171 0.111372 -0.00000931229 Z M 0.111372 -0.00000931229 " transform="matrix(186.650504,0,0,186.650504,369.864647,322.736113)"/>
<path style="fill-rule:nonzero;fill:rgb(55.294118%,82.745098%,78.039216%);fill-opacity:1;stroke-width:0.0222756;stroke-linecap:butt;stroke-linejoin:miter;stroke:rgb(60%,60%,60%);stroke-opacity:0.8;stroke-miterlimit:10;" d="M 0.111377 0.00000350897 C 0.111377 0.0615113 0.0615049 0.111383 -0.00000292045 0.111383 C -0.0615108 0.111383 -0.111383 0.0615113 -0.111383 0.00000350897 C -0.111383 -0.0615043 -0.0615108 -0.111376 -0.00000292045 -0.111376 C 0.0615049 -0.111376 0.111377 -0.0615043 0.111377 0.00000350897 Z M 0.111377 0.00000350897 " transform="matrix(186.650504,0,0,186.650504,405.164608,555.292314)"/>
<path style="fill-rule:nonzero;fill:rgb(55.294118%,82.745098%,78.039216%);fill-opacity:1;stroke-width:0.0222756;stroke-linecap:butt;stroke-linejoin:miter;stroke:rgb(60%,60%,60%);stroke-opacity:0.8;stroke-miterlimit:10;" d="M 0.111373 0.00000177681 C 0.111373 0.0615096 0.0615226 0.111381 -0.00000618652 0.111381 C -0.061514 0.111381 -0.111386 0.0615096 -0.111386 0.00000177681 C -0.111386 -0.0615061 -0.061514 -0.111378 -0.00000618652 -0.111378 C 0.0615226 -0.111378 0.111373 -0.0615061 0.111373 0.00000177681 Z M 0.111373 0.00000177681 " transform="matrix(186.650504,0,0,186.650504,314.782405,377.917637)"/>
<path style="fill-rule:nonzero;fill:rgb(100%,92.941176%,43.529412%);fill-opacity:1;stroke-width:0.0222756;stroke-linecap:butt;stroke-linejoin:miter;stroke:rgb(60%,60%,60%);stroke-opacity:0.8;stroke-miterlimit:10;" d="M 0.111372 0.00000874021 C 0.111372 0.0615166 0.0615213 0.111388 -0.00000746342 0.111388 C -0.0615153 0.111388 -0.111387 0.0615166 -0.111387 0.00000874021 C -0.111387 -0.06152 -0.0615153 -0.111371 -0.00000746342 -0.111371 C 0.0615213 -0.111371 0.111372 -0.06152 0.111372 0.00000874021 Z M 0.111372 0.00000874021 " transform="matrix(186.650504,0,0,186.650504,254.864674,328.459306)"/>
<path style="fill-rule:nonzero;fill:rgb(55.294118%,82.745098%,78.039216%);fill-opacity:1;stroke-width:0.0222756;stroke-linecap:butt;stroke-linejoin:miter;stroke:rgb(60%,60%,60%);stroke-opacity:0.8;stroke-miterlimit:10;" d="M 0.111388 -0.0000066299 C 0.111388 0.0615221 0.0615162 0.111373 0.00000832011 0.111373 C -0.0615204 0.111373 -0.111371 0.0615221 -0.111371 -0.0000066299 C -0.111371 -0.0615145 -0.0615204 -0.111386 0.00000832011 -0.111386 C 0.0615162 -0.111386 0.111388 -0.0615145 0.111388 -0.0000066299 Z M 0.111388 -0.0000066299 " transform="matrix(186.650504,0,0,186.650504,333.705478,234.864519)"/>
<path style="fill-rule:nonzero;fill:rgb(100%,92.941176%,43.529412%);fill-opacity:1;stroke-width:0.0222756;stroke-linecap:butt;stroke-linejoin:miter;stroke:rgb(60%,60%,60%);stroke-opacity:0.8;stroke-miterlimit:10;" d="M 0.111372 0.000000591117 C 0.111372 0.0615084 0.0615212 0.11138 -0.00000753708 0.11138 C -0.0615154 0.11138 -0.111387 0.0615084 -0.111387 0.000000591117 C -0.111387 -0.0615072 -0.0615154 -0.111379 -0.00000753708 -0.111379 C 0.0615212 -0.111379 0.111372 -0.0615072 0.111372 0.000000591117 Z M 0.111372 0.000000591117 " transform="matrix(186.650504,0,0,186.650504,128.013126,343.163952)"/>
<path style="fill-rule:nonzero;fill:rgb(100%,92.941176%,43.529412%);fill-opacity:1;stroke-width:0.0222756;stroke-linecap:butt;stroke-linejoin:miter;stroke:rgb(60%,60%,60%);stroke-opacity:0.8;stroke-miterlimit:10;" d="M 0.111382 0.00000343883 C 0.111382 0.0615113 0.0615104 0.111383 0.00000256349 0.111383 C -0.0615053 0.111383 -0.111377 0.0615113 -0.111377 0.00000343883 C -0.111377 -0.0615044 -0.0615053 -0.111376 0.00000256349 -0.111376 C 0.0615104 -0.111376 0.111382 -0.0615044 0.111382 0.00000343883 Z M 0.111382 0.00000343883 " transform="matrix(186.650504,0,0,186.650504,77.054209,421.694671)"/>
<path style="fill-rule:nonzero;fill:rgb(100%,92.941176%,43.529412%);fill-opacity:1;stroke-width:0.0222756;stroke-linecap:butt;stroke-linejoin:miter;stroke:rgb(60%,60%,60%);stroke-opacity:0.8;stroke-miterlimit:10;" d="M 0.111386 -0.00000747528 C 0.111386 0.0615213 0.0615138 0.111372 0.00000592136 0.111372 C -0.0615228 0.111372 -0.111374 0.0615213 -0.111374 -0.00000747528 C -0.111374 -0.0615153 -0.0615228 -0.111387 0.00000592136 -0.111387 C 0.0615138 -0.111387 0.111386 -0.0615153 0.111386 -0.00000747528 Z M 0.111386 -0.00000747528 " transform="matrix(186.650504,0,0,186.650504,57.303582,384.661552)"/>
<path style="fill-rule:nonzero;fill:rgb(100%,92.941176%,43.529412%);fill-opacity:1;stroke-width:0.0222756;stroke-linecap:butt;stroke-linejoin:miter;stroke:rgb(60%,60%,60%);stroke-opacity:0.8;stroke-miterlimit:10;" d="M 0.111376 0.00000261768 C 0.111376 0.0615105 0.0615045 0.111382 -0.00000334183 0.111382 C -0.0615112 0.111382 -0.111383 0.0615105 -0.111383 0.00000261768 C -0.111383 -0.0615052 -0.0615112 -0.111377 -0.00000334183 -0.111377 C 0.0615045 -0.111377 0.111376 -0.0615052 0.111376 0.00000261768 Z M 0.111376 0.00000261768 " transform="matrix(186.650504,0,0,186.650504,42.649061,344.757324)"/>
<path style="fill-rule:nonzero;fill:rgb(55.294118%,82.745098%,78.039216%);fill-opacity:1;stroke-width:0.0222756;stroke-linecap:butt;stroke-linejoin:miter;stroke:rgb(60%,60%,60%);stroke-opacity:0.8;stroke-miterlimit:10;" d="M 0.111369 0.00000377085 C 0.111369 0.0615116 0.0615177 0.111383 0.0000098768 0.111383 C -0.0615189 0.111383 -0.11137 0.0615116 -0.11137 0.00000377085 C -0.11137 -0.0615041 -0.0615189 -0.111376 0.0000098768 -0.111376 C 0.0615177 -0.111376 0.111369 -0.0615041 0.111369 0.00000377085 Z M 0.111369 0.00000377085 " transform="matrix(186.650504,0,0,186.650504,476.084094,315.272734)"/>
<path style="fill-rule:nonzero;fill:rgb(55.294118%,82.745098%,78.039216%);fill-opacity:1;stroke-width:0.0222756;stroke-linecap:butt;stroke-linejoin:miter;stroke:rgb(60%,60%,60%);stroke-opacity:0.8;stroke-miterlimit:10;" d="M 0.111372 0.00000598029 C 0.111372 0.0615138 0.0615212 0.111386 -0.00000760443 0.111386 C -0.0615154 0.111386 -0.111387 0.0615138 -0.111387 0.00000598029 C -0.111387 -0.0615228 -0.0615154 -0.111374 -0.00000760443 -0.111374 C 0.0615212 -0.111374 0.111372 -0.0615228 0.111372 0.00000598029 Z M 0.111372 0.00000598029 " transform="matrix(186.650504,0,0,186.650504,497.110794,272.59654)"/>
<path style="fill-rule:nonzero;fill:rgb(55.294118%,82.745098%,78.039216%);fill-opacity:1;stroke-width:0.0222756;stroke-linecap:butt;stroke-linejoin:miter;stroke:rgb(60%,60%,60%);stroke-opacity:0.8;stroke-miterlimit:10;" d="M 0.111383 0.00000549281 C 0.111383 0.0615133 0.0615112 0.111385 0.00000334183 0.111385 C -0.0615045 0.111385 -0.111376 0.0615133 -0.111376 0.00000549281 C -0.111376 -0.0615023 -0.0615045 -0.111374 0.00000334183 -0.111374 C 0.0615112 -0.111374 0.111383 -0.0615023 0.111383 0.00000549281 Z M 0.111383 0.00000549281 " transform="matrix(186.650504,0,0,186.650504,557.350939,218.061475)"/>
</g>
</svg>
