<?xml version="1.0" encoding="UTF-8"?>
<svg xmlns="http://www.w3.org/2000/svg" xmlns:xlink="http://www.w3.org/1999/xlink" width="600pt" height="600pt" viewBox="0 0 600 600" version="1.1">
<defs>
<clipPath id="clip1">
  <path d="M 397 40.121094 L 529 40.121094 L 529 167.585938 L 397 167.585938 Z M 397 40.121094 "/>
</clipPath>
<clipPath id="clip2">
  <path d="M 255.609375 40.121094 L 670.484375 40.121094 L 670.484375 167.585938 L 255.609375 167.585938 Z M 255.609375 40.121094 L 480.035156 132.617188 C 480.035156 144.449219 470.441406 154.042969 458.605469 154.042969 C 446.769531 154.042969 437.175781 144.449219 437.175781 132.617188 C 437.175781 120.78125 446.769531 111.1875 458.605469 111.1875 C 470.441406 111.1875 480.035156 120.78125 480.035156 132.617188 Z M 255.609375 40.121094 "/>
</clipPath>
<clipPath id="clip3">
  <path d="M 255.609375 40.121094 L 670.484375 40.121094 L 670.484375 167.585938 L 255.609375 167.585938 Z M 255.609375 40.121094 L 488.917969 75.089844 C 488.917969 86.925781 479.324219 96.519531 467.488281 96.519531 C 455.652344 96.519531 446.058594 86.925781 446.058594 75.089844 C 446.058594 63.253906 455.652344 53.660156 467.488281 53.660156 C 479.324219 53.660156 488.917969 63.253906 488.917969 75.089844 Z M 255.609375 40.121094 "/>
</clipPath>
<clipPath id="clip4">
  <path d="M 363 72 L 520 72 L 520 273 L 363 273 Z M 363 72 "/>
</clipPath>
<clipPath id="clip5">
  <path d="M 235.570312 48.636719 L 647.488281 48.636719 L 647.488281 295.703125 L 235.570312 295.703125 Z M 235.570312 48.636719 L 480.035156 132.617188 C 480.035156 144.449219 470.441406 154.042969 458.605469 154.042969 C 446.769531 154.042969 437.175781 144.449219 437.175781 132.617188 C 437.175781 120.78125 446.769531 111.1875 458.605469 111.1875 C 470.441406 111.1875 480.035156 120.78125 480.035156 132.617188 Z M 235.570312 48.636719 "/>
</clipPath>
<clipPath id="clip6">
  <path d="M 235.570312 48.636719 L 647.488281 48.636719 L 647.488281 295.703125 L 235.570312 295.703125 Z M 235.570312 48.636719 L 445.882812 211.722656 C 445.882812 223.558594 436.289062 233.152344 424.453125 233.152344 C 412.617188 233.152344 403.023438 223.558594 403.023438 211.722656 C 403.023438 199.886719 412.617188 190.292969 424.453125 190.292969 C 436.289062 190.292969 445.882812 199.886719 445.882812 211.722656 Z M 235.570312 48.636719 "/>
</clipPath>
<clipPath id="clip7">
  <path d="M 263.667969 134 L 453.304688 134 L 453.304688 273 L 263.667969 273 Z M 263.667969 134 "/>
</clipPath>
<clipPath id="clip8">
  <path d="M 263.667969 -8.363281 L 453.304688 -8.363281 L 453.304688 415.566406 L 263.667969 415.566406 Z M 263.667969 -8.363281 L 445.882812 211.722656 C 445.882812 223.558594 436.289062 233.152344 424.453125 233.152344 C 412.617188 233.152344 403.023438 223.558594 403.023438 211.722656 C 403.023438 199.886719 412.617188 190.292969 424.453125 190.292969 C 436.289062 190.292969 445.882812 199.886719 445.882812 211.722656 Z M 263.667969 -8.363281 "/>
</clipPath>
<clipPath id="clip9">
  <path d="M 263.667969 -8.363281 L 453.304688 -8.363281 L 453.304688 415.566406 L 263.667969 415.566406 Z M 263.667969 -8.363281 L 313.949219 195.480469 C 313.949219 207.316406 304.355469 216.910156 292.519531 216.910156 C 280.6875 216.910156 271.09375 207.316406 271.09375 195.480469 C 271.09375 183.644531 280.6875 174.050781 292.519531 174.050781 C 304.355469 174.050781 313.949219 183.644531 313.949219 195.480469 Z M 263.667969 -8.363281 "/>
</clipPath>
<clipPath id="clip10">
  <path d="M 363 151 L 563 151 L 563 358 L 363 358 Z M 363 151 "/>
</clipPath>
<clipPath id="clip11">
  <path d="M 270.980469 72.640625 L 655.203125 72.640625 L 655.203125 436.332031 L 270.980469 436.332031 Z M 270.980469 72.640625 L 445.882812 211.722656 C 445.882812 223.558594 436.289062 233.152344 424.453125 233.152344 C 412.617188 233.152344 403.023438 223.558594 403.023438 211.722656 C 403.023438 199.886719 412.617188 190.292969 424.453125 190.292969 C 436.289062 190.292969 445.882812 199.886719 445.882812 211.722656 Z M 270.980469 72.640625 "/>
</clipPath>
<clipPath id="clip12">
  <path d="M 270.980469 72.640625 L 655.203125 72.640625 L 655.203125 436.332031 L 270.980469 436.332031 Z M 270.980469 72.640625 L 523.160156 297.25 C 523.160156 309.085938 513.566406 318.679688 501.730469 318.679688 C 489.894531 318.679688 480.300781 309.085938 480.300781 297.25 C 480.300781 285.414062 489.894531 275.820312 501.730469 275.820312 C 513.566406 275.820312 523.160156 285.414062 523.160156 297.25 Z M 270.980469 72.640625 "/>
</clipPath>
<clipPath id="clip13">
  <path d="M 58 21.699219 L 186 21.699219 L 186 127.710938 L 58 127.710938 Z M 58 21.699219 "/>
</clipPath>
<clipPath id="clip14">
  <path d="M -85.105469 21.699219 L 329.523438 21.699219 L 329.523438 127.710938 L -85.105469 127.710938 Z M -85.105469 21.699219 L 146.367188 105.910156 C 146.367188 117.746094 136.773438 127.339844 124.9375 127.339844 C 113.101562 127.339844 103.507812 117.746094 103.507812 105.910156 C 103.507812 94.074219 113.101562 84.480469 124.9375 84.480469 C 136.773438 84.480469 146.367188 94.074219 146.367188 105.910156 Z M -85.105469 21.699219 "/>
</clipPath>
<clipPath id="clip15">
  <path d="M -85.105469 21.699219 L 329.523438 21.699219 L 329.523438 127.710938 L -85.105469 127.710938 Z M -85.105469 21.699219 L 140.90625 43.5 C 140.90625 55.335938 131.3125 64.929688 119.480469 64.929688 C 107.644531 64.929688 98.050781 55.335938 98.050781 43.5 C 98.050781 31.664062 107.644531 22.070312 119.480469 22.070312 C 131.3125 22.070312 140.90625 31.664062 140.90625 43.5 Z M -85.105469 21.699219 "/>
</clipPath>
<clipPath id="clip16">
  <path d="M 64 54.761719 L 210 54.761719 L 210 258.9375 L 64 258.9375 Z M 64 54.761719 "/>
</clipPath>
<clipPath id="clip17">
  <path d="M -74.875 54.761719 L 349.167969 54.761719 L 349.167969 258.9375 L -74.875 258.9375 Z M -74.875 54.761719 L 146.367188 105.910156 C 146.367188 117.746094 136.773438 127.339844 124.9375 127.339844 C 113.101562 127.339844 103.507812 117.746094 103.507812 105.910156 C 103.507812 94.074219 113.101562 84.480469 124.9375 84.480469 C 136.773438 84.480469 146.367188 94.074219 146.367188 105.910156 Z M -74.875 54.761719 "/>
</clipPath>
<clipPath id="clip18">
  <path d="M -74.875 54.761719 L 349.167969 54.761719 L 349.167969 258.9375 L -74.875 258.9375 Z M -74.875 54.761719 L 170.785156 207.789062 C 170.785156 219.621094 161.191406 229.214844 149.355469 229.214844 C 137.523438 229.214844 127.929688 219.621094 127.929688 207.789062 C 127.929688 195.953125 137.523438 186.359375 149.355469 186.359375 C 161.191406 186.359375 170.785156 195.953125 170.785156 207.789062 Z M -74.875 54.761719 "/>
</clipPath>
<clipPath id="clip19">
  <path d="M 127.847656 134 L 314.027344 134 L 314.027344 269 L 127.847656 269 Z M 127.847656 134 "/>
</clipPath>
<clipPath id="clip20">
  <path d="M 127.847656 -9.128906 L 314.027344 -9.128906 L 314.027344 412.398438 L 127.847656 412.398438 Z M 127.847656 -9.128906 L 313.949219 195.480469 C 313.949219 207.316406 304.355469 216.910156 292.519531 216.910156 C 280.6875 216.910156 271.09375 207.316406 271.09375 195.480469 C 271.09375 183.644531 280.6875 174.050781 292.519531 174.050781 C 304.355469 174.050781 313.949219 183.644531 313.949219 195.480469 Z M 127.847656 -9.128906 "/>
</clipPath>
<clipPath id="clip21">
  <path d="M 127.847656 -9.128906 L 314.027344 -9.128906 L 314.027344 412.398438 L 127.847656 412.398438 Z M 127.847656 -9.128906 L 170.785156 207.789062 C 170.785156 219.621094 161.191406 229.214844 149.355469 229.214844 C 137.523438 229.214844 127.929688 219.621094 127.929688 207.789062 C 127.929688 195.953125 137.523438 186.359375 149.355469 186.359375 C 161.191406 186.359375 170.785156 195.953125 170.785156 207.789062 Z M 127.847656 -9.128906 "/>
</clipPath>
<clipPath id="clip22">
  <path d="M 78 186.910156 L 210 186.910156 L 210 355.699219 L 78 355.699219 Z M 78 186.910156 "/>
</clipPath>
<clipPath id="clip23">
  <path d="M -65.828125 186.910156 L 354.019531 186.910156 L 354.019531 355.699219 L -65.828125 355.699219 Z M -65.828125 186.910156 L 170.785156 207.789062 C 170.785156 219.621094 161.191406 229.214844 149.355469 229.214844 C 137.523438 229.214844 127.929688 219.621094 127.929688 207.789062 C 127.929688 195.953125 137.523438 186.359375 149.355469 186.359375 C 161.191406 186.359375 170.785156 195.953125 170.785156 207.789062 Z M -65.828125 186.910156 "/>
</clipPath>
<clipPath id="clip24">
  <path d="M -65.828125 186.910156 L 354.019531 186.910156 L 354.019531 355.699219 L -65.828125 355.699219 Z M -65.828125 186.910156 L 160.261719 334.820312 C 160.261719 346.65625 150.667969 356.25 138.835938 356.25 C 127 356.25 117.40625 346.65625 117.40625 334.820312 C 117.40625 322.988281 127 313.394531 138.835938 313.394531 C 150.667969 313.394531 160.261719 322.988281 160.261719 334.820312 Z M -65.828125 186.910156 "/>
</clipPath>
<clipPath id="clip25">
  <path d="M 53.0625 147 L 155.035156 147 L 155.035156 270 L 53.0625 270 Z M 53.0625 147 "/>
</clipPath>
<clipPath id="clip26">
  <path d="M 53.0625 2.445312 L 155.035156 2.445312 L 155.035156 413.761719 L 53.0625 413.761719 Z M 53.0625 2.445312 L 170.785156 207.789062 C 170.785156 219.621094 161.191406 229.214844 149.355469 229.214844 C 137.523438 229.214844 127.929688 219.621094 127.929688 207.789062 C 127.929688 195.953125 137.523438 186.359375 149.355469 186.359375 C 161.191406 186.359375 170.785156 195.953125 170.785156 207.789062 Z M 53.0625 2.445312 "/>
</clipPath>
<clipPath id="clip27">
  <path d="M 53.0625 2.445312 L 155.035156 2.445312 L 155.035156 413.761719 L 53.0625 413.761719 Z M 53.0625 2.445312 L 80.171875 208.417969 C 80.171875 220.25 70.578125 229.84375 58.742188 229.84375 C 46.910156 229.84375 37.316406 220.25 37.316406 208.417969 C 37.316406 196.582031 46.910156 186.988281 58.742188 186.988281 C 70.578125 186.988281 80.171875 196.582031 80.171875 208.417969 Z M 53.0625 2.445312 "/>
</clipPath>
<clipPath id="clip28">
  <path d="M 441 236 L 600 236 L 600 417 L 441 417 Z M 441 236 "/>
</clipPath>
<clipPath id="clip29">
  <path d="M 331.128906 179.976562 L 711.859375 179.976562 L 711.859375 472.707031 L 331.128906 472.707031 Z M 331.128906 179.976562 L 523.160156 297.25 C 523.160156 309.085938 513.566406 318.679688 501.730469 318.679688 C 489.894531 318.679688 480.300781 309.085938 480.300781 297.25 C 480.300781 285.414062 489.894531 275.820312 501.730469 275.820312 C 513.566406 275.820312 523.160156 285.414062 523.160156 297.25 Z M 331.128906 179.976562 "/>
</clipPath>
<clipPath id="clip30">
  <path d="M 331.128906 179.976562 L 711.859375 179.976562 L 711.859375 472.707031 L 331.128906 472.707031 Z M 331.128906 179.976562 L 562.683594 355.433594 C 562.683594 367.265625 553.089844 376.859375 541.257812 376.859375 C 529.421875 376.859375 519.828125 367.265625 519.828125 355.433594 C 519.828125 343.597656 529.421875 334.003906 541.257812 334.003906 C 553.089844 334.003906 562.683594 343.597656 562.683594 355.433594 Z M 331.128906 179.976562 "/>
</clipPath>
<clipPath id="clip31">
  <path d="M 78 274 L 241 274 L 241 523 L 78 523 Z M 78 274 "/>
</clipPath>
<clipPath id="clip32">
  <path d="M -57.023438 269.488281 L 375.273438 269.488281 L 375.273438 527.496094 L -57.023438 527.496094 Z M -57.023438 269.488281 L 160.261719 334.820312 C 160.261719 346.65625 150.667969 356.25 138.835938 356.25 C 127 356.25 117.40625 346.65625 117.40625 334.820312 C 117.40625 322.988281 127 313.394531 138.835938 313.394531 C 150.667969 313.394531 160.261719 322.988281 160.261719 334.820312 Z M -57.023438 269.488281 "/>
</clipPath>
<clipPath id="clip33">
  <path d="M -57.023438 269.488281 L 375.273438 269.488281 L 375.273438 527.496094 L -57.023438 527.496094 Z M -57.023438 269.488281 L 200.84375 462.164062 C 200.84375 474 191.25 483.59375 179.414062 483.59375 C 167.578125 483.59375 157.984375 474 157.984375 462.164062 C 157.984375 450.328125 167.578125 440.734375 179.414062 440.734375 C 191.25 440.734375 200.84375 450.328125 200.84375 462.164062 Z M -57.023438 269.488281 "/>
</clipPath>
<clipPath id="clip34">
  <path d="M 118 401 L 333 401 L 333 571 L 118 571 Z M 118 401 "/>
</clipPath>
<clipPath id="clip35">
  <path d="M 82.609375 279.363281 L 368.253906 279.363281 L 368.253906 692.664062 L 82.609375 692.664062 Z M 82.609375 279.363281 L 292.875 509.863281 C 292.875 521.695312 283.28125 531.289062 271.449219 531.289062 C 259.613281 531.289062 250.019531 521.695312 250.019531 509.863281 C 250.019531 498.027344 259.613281 488.433594 271.449219 488.433594 C 283.28125 488.433594 292.875 498.027344 292.875 509.863281 Z M 82.609375 279.363281 "/>
</clipPath>
<clipPath id="clip36">
  <path d="M 82.609375 279.363281 L 368.253906 279.363281 L 368.253906 692.664062 L 82.609375 692.664062 Z M 82.609375 279.363281 L 200.84375 462.164062 C 200.84375 474 191.25 483.59375 179.414062 483.59375 C 167.578125 483.59375 157.984375 474 157.984375 462.164062 C 157.984375 450.328125 167.578125 440.734375 179.414062 440.734375 C 191.25 440.734375 200.84375 450.328125 200.84375 462.164062 Z M 82.609375 279.363281 "/>
</clipPath>
<clipPath id="clip37">
  <path d="M 210 498.777344 L 334 498.777344 L 334 567.585938 L 210 567.585938 Z M 210 498.777344 "/>
</clipPath>
<clipPath id="clip38">
  <path d="M 66.214844 498.777344 L 478.261719 498.777344 L 478.261719 567.585938 L 66.214844 567.585938 Z M 66.214844 498.777344 L 292.875 509.863281 C 292.875 521.695312 283.28125 531.289062 271.449219 531.289062 C 259.613281 531.289062 250.019531 521.695312 250.019531 509.863281 C 250.019531 498.027344 259.613281 488.433594 271.449219 488.433594 C 283.28125 488.433594 292.875 498.027344 292.875 509.863281 Z M 66.214844 498.777344 "/>
</clipPath>
<clipPath id="clip39">
  <path d="M 66.214844 498.777344 L 478.261719 498.777344 L 478.261719 567.585938 L 66.214844 567.585938 Z M 66.214844 498.777344 L 294.457031 556.5 C 294.457031 568.335938 284.863281 577.929688 273.027344 577.929688 C 261.195312 577.929688 251.601562 568.335938 251.601562 556.5 C 251.601562 544.664062 261.195312 535.070312 273.027344 535.070312 C 284.863281 535.070312 294.457031 544.664062 294.457031 556.5 Z M 66.214844 498.777344 "/>
</clipPath>
<clipPath id="clip40">
  <path d="M 77 448 L 255 448 L 255 590 L 77 590 Z M 77 448 "/>
</clipPath>
<clipPath id="clip41">
  <path d="M 65.585938 315.175781 L 265.742188 315.175781 L 265.742188 722.089844 L 65.585938 722.089844 Z M 65.585938 315.175781 L 214.824219 528.609375 C 214.824219 540.441406 205.230469 550.035156 193.398438 550.035156 C 181.5625 550.035156 171.96875 540.441406 171.96875 528.609375 C 171.96875 516.773438 181.5625 507.179688 193.398438 507.179688 C 205.230469 507.179688 214.824219 516.773438 214.824219 528.609375 Z M 65.585938 315.175781 "/>
</clipPath>
<clipPath id="clip42">
  <path d="M 65.585938 315.175781 L 265.742188 315.175781 L 265.742188 722.089844 L 65.585938 722.089844 Z M 65.585938 315.175781 L 159.359375 508.65625 C 159.359375 520.492188 149.765625 530.085938 137.929688 530.085938 C 126.09375 530.085938 116.5 520.492188 116.5 508.65625 C 116.5 496.820312 126.09375 487.226562 137.929688 487.226562 C 149.765625 487.226562 159.359375 496.820312 159.359375 508.65625 Z M 65.585938 315.175781 "/>
</clipPath>
<clipPath id="clip43">
  <path d="M 118 416.46875 L 255 416.46875 L 255 574.304688 L 118 574.304688 Z M 118 416.46875 "/>
</clipPath>
<clipPath id="clip44">
  <path d="M -21.625 416.46875 L 394.4375 416.46875 L 394.4375 574.304688 L -21.625 574.304688 Z M -21.625 416.46875 L 214.824219 528.609375 C 214.824219 540.441406 205.230469 550.035156 193.398438 550.035156 C 181.5625 550.035156 171.96875 540.441406 171.96875 528.609375 C 171.96875 516.773438 181.5625 507.179688 193.398438 507.179688 C 205.230469 507.179688 214.824219 516.773438 214.824219 528.609375 Z M -21.625 416.46875 "/>
</clipPath>
<clipPath id="clip45">
  <path d="M -21.625 416.46875 L 394.4375 416.46875 L 394.4375 574.304688 L -21.625 574.304688 Z M -21.625 416.46875 L 200.84375 462.164062 C 200.84375 474 191.25 483.59375 179.414062 483.59375 C 167.578125 483.59375 157.984375 474 157.984375 462.164062 C 157.984375 450.328125 167.578125 440.734375 179.414062 440.734375 C 191.25 440.734375 200.84375 450.328125 200.84375 462.164062 Z M -21.625 416.46875 "/>
</clipPath>
<clipPath id="clip46">
  <path d="M 132 468 L 334 468 L 334 600 L 132 600 Z M 132 468 "/>
</clipPath>
<clipPath id="clip47">
  <path d="M 122.648438 334.5625 L 343.777344 334.5625 L 343.777344 750.546875 L 122.648438 750.546875 Z M 122.648438 334.5625 L 214.824219 528.609375 C 214.824219 540.441406 205.230469 550.035156 193.398438 550.035156 C 181.5625 550.035156 171.96875 540.441406 171.96875 528.609375 C 171.96875 516.773438 181.5625 507.179688 193.398438 507.179688 C 205.230469 507.179688 214.824219 516.773438 214.824219 528.609375 Z M 122.648438 334.5625 "/>
</clipPath>
<clipPath id="clip48">
  <path d="M 122.648438 334.5625 L 343.777344 334.5625 L 343.777344 750.546875 L 122.648438 750.546875 Z M 122.648438 334.5625 L 294.457031 556.5 C 294.457031 568.335938 284.863281 577.929688 273.027344 577.929688 C 261.195312 577.929688 251.601562 568.335938 251.601562 556.5 C 251.601562 544.664062 261.195312 535.070312 273.027344 535.070312 C 284.863281 535.070312 294.457031 544.664062 294.457031 556.5 Z M 122.648438 334.5625 "/>
</clipPath>
<clipPath id="clip49">
  <path d="M 77 401 L 241 401 L 241 570 L 77 570 Z M 77 401 "/>
</clipPath>
<clipPath id="clip50">
  <path d="M -16.378906 324.015625 L 333.722656 324.015625 L 333.722656 646.804688 L -16.378906 646.804688 Z M -16.378906 324.015625 L 159.359375 508.65625 C 159.359375 520.492188 149.765625 530.085938 137.929688 530.085938 C 126.09375 530.085938 116.5 520.492188 116.5 508.65625 C 116.5 496.820312 126.09375 487.226562 137.929688 487.226562 C 149.765625 487.226562 159.359375 496.820312 159.359375 508.65625 Z M -16.378906 324.015625 "/>
</clipPath>
<clipPath id="clip51">
  <path d="M -16.378906 324.015625 L 333.722656 324.015625 L 333.722656 646.804688 L -16.378906 646.804688 Z M -16.378906 324.015625 L 200.84375 462.164062 C 200.84375 474 191.25 483.59375 179.414062 483.59375 C 167.578125 483.59375 157.984375 474 157.984375 462.164062 C 157.984375 450.328125 167.578125 440.734375 179.414062 440.734375 C 191.25 440.734375 200.84375 450.328125 200.84375 462.164062 Z M -16.378906 324.015625 "/>
</clipPath>
</defs>
<g id="surface341">
<g clip-path="url(#clip1)" clip-rule="nonzero">
<g clip-path="url(#clip2)" clip-rule="evenodd">
<g clip-path="url(#clip3)" clip-rule="evenodd">
<path style="fill:none;stroke-width:0.0213151;stroke-linecap:butt;stroke-linejoin:miter;stroke:rgb(17.96875%,20.3125%,21.09375%);stroke-opacity:0.8;stroke-miterlimit:10;" d="M 3.358374 1.485126 L 3.402553 1.199013 " transform="matrix(201.064722,0,0,201.064722,-216.645062,-165.989293)"/>
</g>
</g>
</g>
<g clip-path="url(#clip4)" clip-rule="nonzero">
<g clip-path="url(#clip5)" clip-rule="evenodd">
<g clip-path="url(#clip6)" clip-rule="evenodd">
<path style="fill:none;stroke-width:0.0213151;stroke-linecap:butt;stroke-linejoin:miter;stroke:rgb(17.96875%,20.3125%,21.09375%);stroke-opacity:0.8;stroke-miterlimit:10;" d="M 3.358374 1.485126 L 3.188517 1.878559 " transform="matrix(201.064722,0,0,201.064722,-216.645062,-165.989293)"/>
</g>
</g>
</g>
<g clip-path="url(#clip7)" clip-rule="nonzero">
<g clip-path="url(#clip8)" clip-rule="evenodd">
<g clip-path="url(#clip9)" clip-rule="evenodd">
<path style="fill:none;stroke-width:0.0213151;stroke-linecap:butt;stroke-linejoin:miter;stroke:rgb(17.96875%,20.3125%,21.09375%);stroke-opacity:0.8;stroke-miterlimit:10;" d="M 3.188517 1.878559 L 2.532342 1.797778 " transform="matrix(201.064722,0,0,201.064722,-216.645062,-165.989293)"/>
</g>
</g>
</g>
<g clip-path="url(#clip10)" clip-rule="nonzero">
<g clip-path="url(#clip11)" clip-rule="evenodd">
<g clip-path="url(#clip12)" clip-rule="evenodd">
<path style="fill:none;stroke-width:0.0213151;stroke-linecap:butt;stroke-linejoin:miter;stroke:rgb(17.96875%,20.3125%,21.09375%);stroke-opacity:0.8;stroke-miterlimit:10;" d="M 3.188517 1.878559 L 3.572857 2.303931 " transform="matrix(201.064722,0,0,201.064722,-216.645062,-165.989293)"/>
</g>
</g>
</g>
<g clip-path="url(#clip13)" clip-rule="nonzero">
<g clip-path="url(#clip14)" clip-rule="evenodd">
<g clip-path="url(#clip15)" clip-rule="evenodd">
<path style="fill:none;stroke-width:0.0213151;stroke-linecap:butt;stroke-linejoin:miter;stroke:rgb(17.96875%,20.3125%,21.09375%);stroke-opacity:0.8;stroke-miterlimit:10;" d="M 1.698869 1.352298 L 1.671728 1.0419 " transform="matrix(201.064722,0,0,201.064722,-216.645062,-165.989293)"/>
</g>
</g>
</g>
<g clip-path="url(#clip16)" clip-rule="nonzero">
<g clip-path="url(#clip17)" clip-rule="evenodd">
<g clip-path="url(#clip18)" clip-rule="evenodd">
<path style="fill:none;stroke-width:0.0213151;stroke-linecap:butt;stroke-linejoin:miter;stroke:rgb(17.96875%,20.3125%,21.09375%);stroke-opacity:0.8;stroke-miterlimit:10;" d="M 1.698869 1.352298 L 1.820312 1.858995 " transform="matrix(201.064722,0,0,201.064722,-216.645062,-165.989293)"/>
</g>
</g>
</g>
<g clip-path="url(#clip19)" clip-rule="nonzero">
<g clip-path="url(#clip20)" clip-rule="evenodd">
<g clip-path="url(#clip21)" clip-rule="evenodd">
<path style="fill:none;stroke-width:0.0213151;stroke-linecap:butt;stroke-linejoin:miter;stroke:rgb(17.96875%,20.3125%,21.09375%);stroke-opacity:0.8;stroke-miterlimit:10;" d="M 2.532342 1.797778 L 1.820312 1.858995 " transform="matrix(201.064722,0,0,201.064722,-216.645062,-165.989293)"/>
</g>
</g>
</g>
<g clip-path="url(#clip22)" clip-rule="nonzero">
<g clip-path="url(#clip23)" clip-rule="evenodd">
<g clip-path="url(#clip24)" clip-rule="evenodd">
<path style="fill:none;stroke-width:0.0213151;stroke-linecap:butt;stroke-linejoin:miter;stroke:rgb(17.96875%,20.3125%,21.09375%);stroke-opacity:0.8;stroke-miterlimit:10;" d="M 1.820312 1.858995 L 1.767993 2.490788 " transform="matrix(201.064722,0,0,201.064722,-216.645062,-165.989293)"/>
</g>
</g>
</g>
<g clip-path="url(#clip25)" clip-rule="nonzero">
<g clip-path="url(#clip26)" clip-rule="evenodd">
<g clip-path="url(#clip27)" clip-rule="evenodd">
<path style="fill:none;stroke-width:0.0213151;stroke-linecap:butt;stroke-linejoin:miter;stroke:rgb(17.96875%,20.3125%,21.09375%);stroke-opacity:0.8;stroke-miterlimit:10;" d="M 1.820312 1.858995 L 1.369645 1.862123 " transform="matrix(201.064722,0,0,201.064722,-216.645062,-165.989293)"/>
</g>
</g>
</g>
<g clip-path="url(#clip28)" clip-rule="nonzero">
<g clip-path="url(#clip29)" clip-rule="evenodd">
<g clip-path="url(#clip30)" clip-rule="evenodd">
<path style="fill:none;stroke-width:0.0213151;stroke-linecap:butt;stroke-linejoin:miter;stroke:rgb(17.96875%,20.3125%,21.09375%);stroke-opacity:0.8;stroke-miterlimit:10;" d="M 3.572857 2.303931 L 3.769447 2.593309 " transform="matrix(201.064722,0,0,201.064722,-216.645062,-165.989293)"/>
</g>
</g>
</g>
<g clip-path="url(#clip31)" clip-rule="nonzero">
<g clip-path="url(#clip32)" clip-rule="evenodd">
<g clip-path="url(#clip33)" clip-rule="evenodd">
<path style="fill:none;stroke-width:0.0213151;stroke-linecap:butt;stroke-linejoin:miter;stroke:rgb(17.96875%,20.3125%,21.09375%);stroke-opacity:0.8;stroke-miterlimit:10;" d="M 1.767993 2.490788 L 1.969809 3.124135 " transform="matrix(201.064722,0,0,201.064722,-216.645062,-165.989293)"/>
</g>
</g>
</g>
<g clip-path="url(#clip34)" clip-rule="nonzero">
<g clip-path="url(#clip35)" clip-rule="evenodd">
<g clip-path="url(#clip36)" clip-rule="evenodd">
<path style="fill:none;stroke-width:0.0213151;stroke-linecap:butt;stroke-linejoin:miter;stroke:rgb(17.96875%,20.3125%,21.09375%);stroke-opacity:0.8;stroke-miterlimit:10;" d="M 2.427548 3.361368 L 1.969809 3.124135 " transform="matrix(201.064722,0,0,201.064722,-216.645062,-165.989293)"/>
</g>
</g>
</g>
<g clip-path="url(#clip37)" clip-rule="nonzero">
<g clip-path="url(#clip38)" clip-rule="evenodd">
<g clip-path="url(#clip39)" clip-rule="evenodd">
<path style="fill:none;stroke-width:0.0213151;stroke-linecap:butt;stroke-linejoin:miter;stroke:rgb(17.96875%,20.3125%,21.09375%);stroke-opacity:0.8;stroke-miterlimit:10;" d="M 2.427548 3.361368 L 2.435397 3.593317 " transform="matrix(201.064722,0,0,201.064722,-216.645062,-165.989293)"/>
</g>
</g>
</g>
<g clip-path="url(#clip40)" clip-rule="nonzero">
<g clip-path="url(#clip41)" clip-rule="evenodd">
<g clip-path="url(#clip42)" clip-rule="evenodd">
<path style="fill:none;stroke-width:0.0213151;stroke-linecap:butt;stroke-linejoin:miter;stroke:rgb(17.96875%,20.3125%,21.09375%);stroke-opacity:0.8;stroke-miterlimit:10;" d="M 2.039361 3.454602 L 1.763486 3.355365 " transform="matrix(201.064722,0,0,201.064722,-216.645062,-165.989293)"/>
</g>
</g>
</g>
<g clip-path="url(#clip43)" clip-rule="nonzero">
<g clip-path="url(#clip44)" clip-rule="evenodd">
<g clip-path="url(#clip45)" clip-rule="evenodd">
<path style="fill:none;stroke-width:0.0213151;stroke-linecap:butt;stroke-linejoin:miter;stroke:rgb(17.96875%,20.3125%,21.09375%);stroke-opacity:0.8;stroke-miterlimit:10;" d="M 2.039361 3.454602 L 1.969809 3.124135 " transform="matrix(201.064722,0,0,201.064722,-216.645062,-165.989293)"/>
</g>
</g>
</g>
<g clip-path="url(#clip46)" clip-rule="nonzero">
<g clip-path="url(#clip47)" clip-rule="evenodd">
<g clip-path="url(#clip48)" clip-rule="evenodd">
<path style="fill:none;stroke-width:0.0213151;stroke-linecap:butt;stroke-linejoin:miter;stroke:rgb(17.96875%,20.3125%,21.09375%);stroke-opacity:0.8;stroke-miterlimit:10;" d="M 2.039361 3.454602 L 2.435397 3.593317 " transform="matrix(201.064722,0,0,201.064722,-216.645062,-165.989293)"/>
</g>
</g>
</g>
<g clip-path="url(#clip49)" clip-rule="nonzero">
<g clip-path="url(#clip50)" clip-rule="evenodd">
<g clip-path="url(#clip51)" clip-rule="evenodd">
<path style="fill:none;stroke-width:0.0213151;stroke-linecap:butt;stroke-linejoin:miter;stroke:rgb(17.96875%,20.3125%,21.09375%);stroke-opacity:0.8;stroke-miterlimit:10;" d="M 1.763486 3.355365 L 1.969809 3.124135 " transform="matrix(201.064722,0,0,201.064722,-216.645062,-165.989293)"/>
</g>
</g>
</g>
<path style="fill-rule:nonzero;fill:rgb(100%,92.941176%,43.529412%);fill-opacity:1;stroke-width:0.0213151;stroke-linecap:butt;stroke-linejoin:miter;stroke:rgb(60%,60%,60%);stroke-opacity:0.8;stroke-miterlimit:10;" d="M 0.106582 0.00000930327 C 0.106582 0.0588562 0.0588677 0.106571 0.00000140221 0.106571 C -0.0588649 0.106571 -0.10658 0.0588562 -0.10658 0.00000930327 C -0.10658 -0.058857 -0.0588649 -0.106572 0.00000140221 -0.106572 C 0.0588677 -0.106572 0.106582 -0.058857 0.106582 0.00000930327 Z M 0.106582 0.00000930327 " transform="matrix(201.064722,0,0,201.064722,458.605187,132.615317)"/>
<path style="fill-rule:nonzero;fill:rgb(55.294118%,82.745098%,78.039216%);fill-opacity:1;stroke-width:0.0213151;stroke-linecap:butt;stroke-linejoin:miter;stroke:rgb(60%,60%,60%);stroke-opacity:0.8;stroke-miterlimit:10;" d="M 0.106579 0.00000181579 C 0.106579 0.0588681 0.0588645 0.106583 -0.00000177772 0.106583 C -0.0588681 0.106583 -0.106583 0.0588681 -0.106583 0.00000181579 C -0.106583 -0.0588645 -0.0588681 -0.106579 -0.00000177772 -0.106579 C 0.0588645 -0.106579 0.106579 -0.0588645 0.106579 0.00000181579 Z M 0.106579 0.00000181579 " transform="matrix(201.064722,0,0,201.064722,467.488639,75.089479)"/>
<path style="fill-rule:nonzero;fill:rgb(100%,92.941176%,43.529412%);fill-opacity:1;stroke-width:0.0213151;stroke-linecap:butt;stroke-linejoin:miter;stroke:rgb(60%,60%,60%);stroke-opacity:0.8;stroke-miterlimit:10;" d="M 0.10658 -0.00000209226 C 0.10658 0.0588642 0.0588655 0.106579 -0.000000853842 0.106579 C -0.0588672 0.106579 -0.106582 0.0588642 -0.106582 -0.00000209226 C -0.106582 -0.0588684 -0.0588672 -0.106583 -0.000000853842 -0.106583 C 0.0588655 -0.106583 0.10658 -0.0588684 0.10658 -0.00000209226 Z M 0.10658 -0.00000209226 " transform="matrix(201.064722,0,0,201.064722,424.453297,211.723077)"/>
<path style="fill-rule:nonzero;fill:rgb(100%,92.941176%,43.529412%);fill-opacity:1;stroke-width:0.0213151;stroke-linecap:butt;stroke-linejoin:miter;stroke:rgb(60%,60%,60%);stroke-opacity:0.8;stroke-miterlimit:10;" d="M 0.106582 -0.000000258009 C 0.106582 0.058866 0.0588669 0.106581 0.000000624983 0.106581 C -0.0588657 0.106581 -0.10658 0.058866 -0.10658 -0.000000258009 C -0.10658 -0.0588666 -0.0588657 -0.106581 0.000000624983 -0.106581 C 0.0588669 -0.106581 0.106582 -0.0588666 0.106582 -0.000000258009 Z M 0.106582 -0.000000258009 " transform="matrix(201.064722,0,0,201.064722,124.937374,105.910208)"/>
<path style="fill-rule:nonzero;fill:rgb(100%,92.941176%,43.529412%);fill-opacity:1;stroke-width:0.0213151;stroke-linecap:butt;stroke-linejoin:miter;stroke:rgb(60%,60%,60%);stroke-opacity:0.8;stroke-miterlimit:10;" d="M 0.106569 -0.000000000000000028 C 0.106569 0.0588663 0.0588545 0.106581 0.00000758687 0.106581 C -0.0588587 0.106581 -0.106573 0.0588663 -0.106573 -0.000000000000000028 C -0.106573 -0.0588663 -0.0588587 -0.106581 0.00000758687 -0.106581 C 0.0588545 -0.106581 0.106569 -0.0588663 0.106569 -0.000000000000000028 Z M 0.106569 -0.000000000000000028 " transform="matrix(201.064722,0,0,201.064722,119.478943,43.5)"/>
<path style="fill-rule:nonzero;fill:rgb(100%,92.941176%,43.529412%);fill-opacity:1;stroke-width:0.0213151;stroke-linecap:butt;stroke-linejoin:miter;stroke:rgb(60%,60%,60%);stroke-opacity:0.8;stroke-miterlimit:10;" d="M 0.106573 0.00000316893 C 0.106573 0.0588695 0.0588583 0.106584 -0.00000795768 0.106584 C -0.0588548 0.106584 -0.10657 0.0588695 -0.10657 0.00000316893 C -0.10657 -0.0588631 -0.0588548 -0.106578 -0.00000795768 -0.106578 C 0.0588583 -0.106578 0.106573 -0.0588631 0.106573 0.00000316893 Z M 0.106573 0.00000316893 " transform="matrix(201.064722,0,0,201.064722,292.521131,195.479832)"/>
<path style="fill-rule:nonzero;fill:rgb(100%,92.941176%,43.529412%);fill-opacity:1;stroke-width:0.0213151;stroke-linecap:butt;stroke-linejoin:miter;stroke:rgb(60%,60%,60%);stroke-opacity:0.8;stroke-miterlimit:10;" d="M 0.106577 0.00000631093 C 0.106577 0.0588532 0.058862 0.106568 -0.00000427466 0.106568 C -0.0588512 0.106568 -0.106566 0.0588532 -0.106566 0.00000631093 C -0.106566 -0.05886 -0.0588512 -0.106575 -0.00000427466 -0.106575 C 0.058862 -0.106575 0.106577 -0.05886 0.106577 0.00000631093 Z M 0.106577 0.00000631093 " transform="matrix(201.064722,0,0,201.064722,149.356328,207.787794)"/>
<path style="fill-rule:nonzero;fill:rgb(100%,92.941176%,43.529412%);fill-opacity:1;stroke-width:0.0213151;stroke-linecap:butt;stroke-linejoin:miter;stroke:rgb(60%,60%,60%);stroke-opacity:0.8;stroke-miterlimit:10;" d="M 0.106583 0.00000281786 C 0.106583 0.0588691 0.0588684 0.106584 0.00000211628 0.106584 C -0.0588642 0.106584 -0.106579 0.0588691 -0.106579 0.00000281786 C -0.106579 -0.0588635 -0.0588642 -0.106578 0.00000211628 -0.106578 C 0.0588684 -0.106578 0.106583 -0.0588635 0.106583 0.00000281786 Z M 0.106583 0.00000281786 " transform="matrix(201.064722,0,0,201.064722,501.730043,297.249433)"/>
<path style="fill-rule:nonzero;fill:rgb(100%,92.941176%,43.529412%);fill-opacity:1;stroke-width:0.0213151;stroke-linecap:butt;stroke-linejoin:miter;stroke:rgb(60%,60%,60%);stroke-opacity:0.8;stroke-miterlimit:10;" d="M 0.106571 0.00000533309 C 0.106571 0.0588522 0.0588563 0.106567 0.00000944872 0.106567 C -0.0588569 0.106567 -0.106572 0.0588522 -0.106572 0.00000533309 C -0.106572 -0.058861 -0.0588569 -0.106576 0.00000944872 -0.106576 C 0.0588563 -0.106576 0.106571 -0.058861 0.106571 0.00000533309 Z M 0.106571 0.00000533309 " transform="matrix(201.064722,0,0,201.064722,541.255913,355.432521)"/>
<path style="fill-rule:nonzero;fill:rgb(100%,92.941176%,43.529412%);fill-opacity:1;stroke-width:0.0213151;stroke-linecap:butt;stroke-linejoin:miter;stroke:rgb(60%,60%,60%);stroke-opacity:0.8;stroke-miterlimit:10;" d="M 0.10657 -0.00000894743 C 0.10657 0.0588574 0.0588556 0.106572 0.00000875329 0.106572 C -0.0588576 0.106572 -0.106572 0.0588574 -0.106572 -0.00000894743 C -0.106572 -0.0588558 -0.0588576 -0.106571 0.00000875329 -0.106571 C 0.0588556 -0.106571 0.10657 -0.0588558 0.10657 -0.00000894743 Z M 0.10657 -0.00000894743 " transform="matrix(201.064722,0,0,201.064722,138.834178,334.822112)"/>
<path style="fill-rule:nonzero;fill:rgb(100%,92.941176%,43.529412%);fill-opacity:1;stroke-width:0.0213151;stroke-linecap:butt;stroke-linejoin:miter;stroke:rgb(60%,60%,60%);stroke-opacity:0.8;stroke-miterlimit:10;" d="M 0.106567 0.00000488545 C 0.106567 0.0588518 0.0588524 0.106566 0.0000055048 0.106566 C -0.0588608 0.106566 -0.106576 0.0588518 -0.106576 0.00000488545 C -0.106576 -0.0588614 -0.0588608 -0.106576 0.0000055048 -0.106576 C 0.0588524 -0.106576 0.106567 -0.0588614 0.106567 0.00000488545 Z M 0.106567 0.00000488545 " transform="matrix(201.064722,0,0,201.064722,271.448112,509.862299)"/>
<path style="fill-rule:nonzero;fill:rgb(100%,92.941176%,43.529412%);fill-opacity:1;stroke-width:0.0213151;stroke-linecap:butt;stroke-linejoin:miter;stroke:rgb(60%,60%,60%);stroke-opacity:0.8;stroke-miterlimit:10;" d="M 0.106569 0.00000537492 C 0.106569 0.0588523 0.0588542 0.106567 0.00000732931 0.106567 C -0.058859 0.106567 -0.106574 0.0588523 -0.106574 0.00000537492 C -0.106574 -0.0588609 -0.058859 -0.106576 0.00000732931 -0.106576 C 0.0588542 -0.106576 0.106569 -0.0588609 0.106569 0.00000537492 Z M 0.106569 0.00000537492 " transform="matrix(201.064722,0,0,201.064722,193.396964,528.608294)"/>
<path style="fill-rule:nonzero;fill:rgb(100%,92.941176%,43.529412%);fill-opacity:1;stroke-width:0.0213151;stroke-linecap:butt;stroke-linejoin:miter;stroke:rgb(60%,60%,60%);stroke-opacity:0.8;stroke-miterlimit:10;" d="M 0.106578 0.00000066631 C 0.106578 0.058867 0.0588636 0.106582 -0.00000266364 0.106582 C -0.058869 0.106582 -0.106584 0.058867 -0.106584 0.00000066631 C -0.106584 -0.0588656 -0.058869 -0.10658 -0.00000266364 -0.10658 C 0.0588636 -0.10658 0.106578 -0.0588656 0.106578 0.00000066631 Z M 0.106578 0.00000066631 " transform="matrix(201.064722,0,0,201.064722,137.930223,508.656116)"/>
<path style="fill-rule:nonzero;fill:rgb(100%,92.941176%,43.529412%);fill-opacity:1;stroke-width:0.0213151;stroke-linecap:butt;stroke-linejoin:miter;stroke:rgb(60%,60%,60%);stroke-opacity:0.8;stroke-miterlimit:10;" d="M 0.10658 -0.00000226069 C 0.10658 0.058864 0.0588656 0.106579 -0.000000698314 0.106579 C -0.058867 0.106579 -0.106582 0.058864 -0.106582 -0.00000226069 C -0.106582 -0.0588686 -0.058867 -0.106583 -0.000000698314 -0.106583 C 0.0588656 -0.106583 0.10658 -0.0588686 0.10658 -0.00000226069 Z M 0.10658 -0.00000226069 " transform="matrix(201.064722,0,0,201.064722,179.414203,462.164517)"/>
<path style="fill-rule:nonzero;fill:rgb(100%,92.941176%,43.529412%);fill-opacity:1;stroke-width:0.0213151;stroke-linecap:butt;stroke-linejoin:miter;stroke:rgb(60%,60%,60%);stroke-opacity:0.8;stroke-miterlimit:10;" d="M 0.106577 0 C 0.106577 0.0588663 0.0588618 0.106581 -0.00000446128 0.106581 C -0.0588513 0.106581 -0.106566 0.0588663 -0.106566 0 C -0.106566 -0.0588663 -0.0588513 -0.106581 -0.00000446128 -0.106581 C 0.0588618 -0.106581 0.106577 -0.0588663 0.106577 0 Z M 0.106577 0 " transform="matrix(201.064722,0,0,201.064722,273.028241,556.5)"/>
<path style="fill-rule:nonzero;fill:rgb(100%,92.941176%,43.529412%);fill-opacity:1;stroke-width:0.0213151;stroke-linecap:butt;stroke-linejoin:miter;stroke:rgb(60%,60%,60%);stroke-opacity:0.8;stroke-miterlimit:10;" d="M 0.106572 0.00000886967 C 0.106572 0.0588557 0.0588569 0.10657 -0.00000944872 0.10657 C -0.0588563 0.10657 -0.106571 0.0588557 -0.106571 0.00000886967 C -0.106571 -0.0588574 -0.0588563 -0.106572 -0.00000944872 -0.106572 C 0.0588569 -0.106572 0.106572 -0.0588574 0.106572 0.00000886967 Z M 0.106572 0.00000886967 " transform="matrix(201.064722,0,0,201.064722,58.744087,208.416185)"/>
</g>
</svg>
