<?xml version="1.0" encoding="UTF-8"?>
<svg xmlns="http://www.w3.org/2000/svg" xmlns:xlink="http://www.w3.org/1999/xlink" width="600pt" height="600pt" viewBox="0 0 600 600" version="1.1">
<defs>
<clipPath id="clip1">
  <path d="M 0 331 L 169.390625 331 L 169.390625 485 L 0 485 Z M 0 331 "/>
</clipPath>
<clipPath id="clip2">
  <path d="M -6.847656 151.613281 L 169.390625 151.613281 L 169.390625 664.75 L -6.847656 664.75 Z M -6.847656 151.613281 L 72.652344 414.96875 C 72.652344 428.632812 61.574219 439.710938 47.910156 439.710938 C 34.242188 439.710938 23.164062 428.632812 23.164062 414.96875 C 23.164062 401.300781 34.242188 390.222656 47.910156 390.222656 C 61.574219 390.222656 72.652344 401.300781 72.652344 414.96875 Z M -6.847656 151.613281 "/>
</clipPath>
<clipPath id="clip3">
  <path d="M -6.847656 151.613281 L 169.390625 151.613281 L 169.390625 664.75 L -6.847656 664.75 Z M -6.847656 151.613281 L 139.375 401.394531 C 139.375 415.058594 128.296875 426.136719 114.632812 426.136719 C 100.964844 426.136719 89.886719 415.058594 89.886719 401.394531 C 89.886719 387.726562 100.964844 376.648438 114.632812 376.648438 C 128.296875 376.648438 139.375 387.726562 139.375 401.394531 Z M -6.847656 151.613281 "/>
</clipPath>
<clipPath id="clip4">
  <path d="M 55.011719 305 L 290.839844 305 L 290.839844 472 L 55.011719 472 Z M 55.011719 305 "/>
</clipPath>
<clipPath id="clip5">
  <path d="M 55.011719 126.507812 L 290.839844 126.507812 L 290.839844 650.136719 L 55.011719 650.136719 Z M 55.011719 126.507812 L 139.375 401.394531 C 139.375 415.058594 128.296875 426.136719 114.632812 426.136719 C 100.964844 426.136719 89.886719 415.058594 89.886719 401.394531 C 89.886719 387.726562 100.964844 376.648438 114.632812 376.648438 C 128.296875 376.648438 139.375 387.726562 139.375 401.394531 Z M 55.011719 126.507812 "/>
</clipPath>
<clipPath id="clip6">
  <path d="M 55.011719 126.507812 L 290.839844 126.507812 L 290.839844 650.136719 L 55.011719 650.136719 Z M 55.011719 126.507812 L 255.960938 375.25 C 255.960938 388.917969 244.882812 399.996094 231.21875 399.996094 C 217.554688 399.996094 206.476562 388.917969 206.476562 375.25 C 206.476562 361.585938 217.554688 350.507812 231.21875 350.507812 C 244.882812 350.507812 255.960938 361.585938 255.960938 375.25 Z M 55.011719 126.507812 "/>
</clipPath>
<clipPath id="clip7">
  <path d="M 167.65625 259 L 484.65625 259 L 484.65625 446 L 167.65625 446 Z M 167.65625 259 "/>
</clipPath>
<clipPath id="clip8">
  <path d="M 167.65625 81.601562 L 484.65625 81.601562 L 484.65625 623.074219 L 167.65625 623.074219 Z M 167.65625 81.601562 L 445.835938 329.425781 C 445.835938 343.089844 434.757812 354.167969 421.09375 354.167969 C 407.429688 354.167969 396.351562 343.089844 396.351562 329.425781 C 396.351562 315.761719 407.429688 304.683594 421.09375 304.683594 C 434.757812 304.683594 445.835938 315.761719 445.835938 329.425781 Z M 167.65625 81.601562 "/>
</clipPath>
<clipPath id="clip9">
  <path d="M 167.65625 81.601562 L 484.65625 81.601562 L 484.65625 623.074219 L 167.65625 623.074219 Z M 167.65625 81.601562 L 255.960938 375.25 C 255.960938 388.917969 244.882812 399.996094 231.21875 399.996094 C 217.554688 399.996094 206.476562 388.917969 206.476562 375.25 C 206.476562 361.585938 217.554688 350.507812 231.21875 350.507812 C 244.882812 350.507812 255.960938 361.585938 255.960938 375.25 Z M 167.65625 81.601562 "/>
</clipPath>
<clipPath id="clip10">
  <path d="M 294 73 L 492 73 L 492 400 L 294 400 Z M 294 73 "/>
</clipPath>
<clipPath id="clip11">
  <path d="M 120.480469 65.613281 L 665.066406 65.613281 L 665.066406 407.113281 L 120.480469 407.113281 Z M 120.480469 65.613281 L 445.835938 329.425781 C 445.835938 343.089844 434.757812 354.167969 421.09375 354.167969 C 407.429688 354.167969 396.351562 343.089844 396.351562 329.425781 C 396.351562 315.761719 407.429688 304.683594 421.09375 304.683594 C 434.757812 304.683594 445.835938 315.761719 445.835938 329.425781 Z M 120.480469 65.613281 "/>
</clipPath>
<clipPath id="clip12">
  <path d="M 120.480469 65.613281 L 665.066406 65.613281 L 665.066406 407.113281 L 120.480469 407.113281 Z M 120.480469 65.613281 L 389.195312 143.300781 C 389.195312 156.964844 378.117188 168.042969 364.453125 168.042969 C 350.785156 168.042969 339.707031 156.964844 339.707031 143.300781 C 339.707031 129.632812 350.785156 118.554688 364.453125 118.554688 C 378.117188 118.554688 389.195312 129.632812 389.195312 143.300781 Z M 120.480469 65.613281 "/>
</clipPath>
<clipPath id="clip13">
  <path d="M 290 207 L 492 207 L 492 400 L 290 400 Z M 290 207 "/>
</clipPath>
<clipPath id="clip14">
  <path d="M 192.578125 83.214844 L 589.238281 83.214844 L 589.238281 523.558594 L 192.578125 523.558594 Z M 192.578125 83.214844 L 445.835938 329.425781 C 445.835938 343.089844 434.757812 354.167969 421.09375 354.167969 C 407.429688 354.167969 396.351562 343.089844 396.351562 329.425781 C 396.351562 315.761719 407.429688 304.683594 421.09375 304.683594 C 434.757812 304.683594 445.835938 315.761719 445.835938 329.425781 Z M 192.578125 83.214844 "/>
</clipPath>
<clipPath id="clip15">
  <path d="M 192.578125 83.214844 L 589.238281 83.214844 L 589.238281 523.558594 L 192.578125 523.558594 Z M 192.578125 83.214844 L 385.46875 277.347656 C 385.46875 291.015625 374.390625 302.09375 360.722656 302.09375 C 347.058594 302.09375 335.980469 291.015625 335.980469 277.347656 C 335.980469 263.683594 347.058594 252.605469 360.722656 252.605469 C 374.390625 252.605469 385.46875 263.683594 385.46875 277.347656 Z M 192.578125 83.214844 "/>
</clipPath>
<clipPath id="clip16">
  <path d="M 351 165 L 580 165 L 580 400 L 351 400 Z M 351 165 "/>
</clipPath>
<clipPath id="clip17">
  <path d="M 234.363281 59.15625 L 696.378906 59.15625 L 696.378906 505.777344 L 234.363281 505.777344 Z M 234.363281 59.15625 L 445.835938 329.425781 C 445.835938 343.089844 434.757812 354.167969 421.09375 354.167969 C 407.429688 354.167969 396.351562 343.089844 396.351562 329.425781 C 396.351562 315.761719 407.429688 304.683594 421.09375 304.683594 C 434.757812 304.683594 445.835938 315.761719 445.835938 329.425781 Z M 234.363281 59.15625 "/>
</clipPath>
<clipPath id="clip18">
  <path d="M 234.363281 59.15625 L 696.378906 59.15625 L 696.378906 505.777344 L 234.363281 505.777344 Z M 234.363281 59.15625 L 534.390625 235.507812 C 534.390625 249.171875 523.3125 260.25 509.648438 260.25 C 495.984375 260.25 484.90625 249.171875 484.90625 235.507812 C 484.90625 221.839844 495.984375 210.761719 509.648438 210.761719 C 523.3125 210.761719 534.390625 221.839844 534.390625 235.507812 Z M 234.363281 59.15625 "/>
</clipPath>
<clipPath id="clip19">
  <path d="M 351 308.960938 L 501 308.960938 L 501 506.074219 L 351 506.074219 Z M 351 308.960938 "/>
</clipPath>
<clipPath id="clip20">
  <path d="M 166.78125 308.960938 L 685.125 308.960938 L 685.125 506.074219 L 166.78125 506.074219 Z M 166.78125 308.960938 L 445.835938 329.425781 C 445.835938 343.089844 434.757812 354.167969 421.09375 354.167969 C 407.429688 354.167969 396.351562 343.089844 396.351562 329.425781 C 396.351562 315.761719 407.429688 304.683594 421.09375 304.683594 C 434.757812 304.683594 445.835938 315.761719 445.835938 329.425781 Z M 166.78125 308.960938 "/>
</clipPath>
<clipPath id="clip21">
  <path d="M 166.78125 308.960938 L 685.125 308.960938 L 685.125 506.074219 L 166.78125 506.074219 Z M 166.78125 308.960938 L 455.554688 485.609375 C 455.554688 499.273438 444.476562 510.351562 430.8125 510.351562 C 417.148438 510.351562 406.070312 499.273438 406.070312 485.609375 C 406.070312 471.941406 417.148438 460.863281 430.8125 460.863281 C 444.476562 460.863281 455.554688 471.941406 455.554688 485.609375 Z M 166.78125 308.960938 "/>
</clipPath>
<clipPath id="clip22">
  <path d="M 351 259 L 561 259 L 561 539 L 351 539 Z M 351 259 "/>
</clipPath>
<clipPath id="clip23">
  <path d="M 192.464844 213.167969 L 719.058594 213.167969 L 719.058594 585.015625 L 192.464844 585.015625 Z M 192.464844 213.167969 L 445.835938 329.425781 C 445.835938 343.089844 434.757812 354.167969 421.09375 354.167969 C 407.429688 354.167969 396.351562 343.089844 396.351562 329.425781 C 396.351562 315.761719 407.429688 304.683594 421.09375 304.683594 C 434.757812 304.683594 445.835938 315.761719 445.835938 329.425781 Z M 192.464844 213.167969 "/>
</clipPath>
<clipPath id="clip24">
  <path d="M 192.464844 213.167969 L 719.058594 213.167969 L 719.058594 585.015625 L 192.464844 585.015625 Z M 192.464844 213.167969 L 515.175781 468.757812 C 515.175781 482.421875 504.097656 493.5 490.429688 493.5 C 476.765625 493.5 465.6875 482.421875 465.6875 468.757812 C 465.6875 455.089844 476.765625 444.011719 490.429688 444.011719 C 504.097656 444.011719 515.175781 455.089844 515.175781 468.757812 Z M 192.464844 213.167969 "/>
</clipPath>
<clipPath id="clip25">
  <path d="M 394.167969 247 L 579.015625 247 L 579.015625 400 L 394.167969 400 Z M 394.167969 247 "/>
</clipPath>
<clipPath id="clip26">
  <path d="M 394.167969 64.03125 L 579.015625 64.03125 L 579.015625 583.253906 L 394.167969 583.253906 Z M 394.167969 64.03125 L 445.835938 329.425781 C 445.835938 343.089844 434.757812 354.167969 421.09375 354.167969 C 407.429688 354.167969 396.351562 343.089844 396.351562 329.425781 C 396.351562 315.761719 407.429688 304.683594 421.09375 304.683594 C 434.757812 304.683594 445.835938 315.761719 445.835938 329.425781 Z M 394.167969 64.03125 "/>
</clipPath>
<clipPath id="clip27">
  <path d="M 394.167969 64.03125 L 579.015625 64.03125 L 579.015625 583.253906 L 394.167969 583.253906 Z M 394.167969 64.03125 L 576.835938 317.859375 C 576.835938 331.527344 565.757812 342.605469 552.089844 342.605469 C 538.425781 342.605469 527.347656 331.527344 527.347656 317.859375 C 527.347656 304.195312 538.425781 293.117188 552.089844 293.117188 C 565.757812 293.117188 576.835938 304.195312 576.835938 317.859375 Z M 394.167969 64.03125 "/>
</clipPath>
<clipPath id="clip28">
  <path d="M 259 0 L 435 0 L 435 214 L 259 214 Z M 259 0 "/>
</clipPath>
<clipPath id="clip29">
  <path d="M 91.1875 -42.359375 L 602.734375 -42.359375 L 602.734375 237.574219 L 91.1875 237.574219 Z M 91.1875 -42.359375 L 354.214844 51.914062 C 354.214844 65.578125 343.136719 76.65625 329.46875 76.65625 C 315.804688 76.65625 304.726562 65.578125 304.726562 51.914062 C 304.726562 38.25 315.804688 27.171875 329.46875 27.171875 C 343.136719 27.171875 354.214844 38.25 354.214844 51.914062 Z M 91.1875 -42.359375 "/>
</clipPath>
<clipPath id="clip30">
  <path d="M 91.1875 -42.359375 L 602.734375 -42.359375 L 602.734375 237.574219 L 91.1875 237.574219 Z M 91.1875 -42.359375 L 389.195312 143.300781 C 389.195312 156.964844 378.117188 168.042969 364.453125 168.042969 C 350.785156 168.042969 339.707031 156.964844 339.707031 143.300781 C 339.707031 129.632812 350.785156 118.554688 364.453125 118.554688 C 378.117188 118.554688 389.195312 129.632812 389.195312 143.300781 Z M 91.1875 -42.359375 "/>
</clipPath>
<clipPath id="clip31">
  <path d="M 360 415 L 548 415 L 548 600 L 360 600 Z M 360 415 "/>
</clipPath>
<clipPath id="clip32">
  <path d="M 225.246094 331.746094 L 682.753906 331.746094 L 682.753906 701.949219 L 225.246094 701.949219 Z M 225.246094 331.746094 L 455.554688 485.609375 C 455.554688 499.273438 444.476562 510.351562 430.8125 510.351562 C 417.148438 510.351562 406.070312 499.273438 406.070312 485.609375 C 406.070312 471.941406 417.148438 460.863281 430.8125 460.863281 C 444.476562 460.863281 455.554688 471.941406 455.554688 485.609375 Z M 225.246094 331.746094 "/>
</clipPath>
<clipPath id="clip33">
  <path d="M 225.246094 331.746094 L 682.753906 331.746094 L 682.753906 701.949219 L 225.246094 701.949219 Z M 225.246094 331.746094 L 501.929688 548.085938 C 501.929688 561.75 490.851562 572.828125 477.1875 572.828125 C 463.523438 572.828125 452.445312 561.75 452.445312 548.085938 C 452.445312 534.421875 463.523438 523.34375 477.1875 523.34375 C 490.851562 523.34375 501.929688 534.421875 501.929688 548.085938 Z M 225.246094 331.746094 "/>
</clipPath>
<clipPath id="clip34">
  <path d="M 407 422.671875 L 561 422.671875 L 561 594.171875 L 407 594.171875 Z M 407 422.671875 "/>
</clipPath>
<clipPath id="clip35">
  <path d="M 225.800781 422.671875 L 741.816406 422.671875 L 741.816406 594.171875 L 225.800781 594.171875 Z M 225.800781 422.671875 L 501.929688 548.085938 C 501.929688 561.75 490.851562 572.828125 477.1875 572.828125 C 463.523438 572.828125 452.445312 561.75 452.445312 548.085938 C 452.445312 534.421875 463.523438 523.34375 477.1875 523.34375 C 490.851562 523.34375 501.929688 534.421875 501.929688 548.085938 Z M 225.800781 422.671875 "/>
</clipPath>
<clipPath id="clip36">
  <path d="M 225.800781 422.671875 L 741.816406 422.671875 L 741.816406 594.171875 L 225.800781 594.171875 Z M 225.800781 422.671875 L 515.175781 468.757812 C 515.175781 482.421875 504.097656 493.5 490.429688 493.5 C 476.765625 493.5 465.6875 482.421875 465.6875 468.757812 C 465.6875 455.089844 476.765625 444.011719 490.429688 444.011719 C 504.097656 444.011719 515.175781 455.089844 515.175781 468.757812 Z M 225.800781 422.671875 "/>
</clipPath>
</defs>
<g id="surface481">
<g clip-path="url(#clip1)" clip-rule="nonzero">
<g clip-path="url(#clip2)" clip-rule="evenodd">
<g clip-path="url(#clip3)" clip-rule="evenodd">
<path style="fill:none;stroke-width:0.019807;stroke-linecap:butt;stroke-linejoin:miter;stroke:rgb(17.96875%,20.3125%,21.09375%);stroke-opacity:0.8;stroke-miterlimit:10;" d="M 0.710404 2.317731 L 0.977459 2.263401 " transform="matrix(249.846261,0,0,249.846261,-129.581542,-164.107637)"/>
</g>
</g>
</g>
<g clip-path="url(#clip4)" clip-rule="nonzero">
<g clip-path="url(#clip5)" clip-rule="evenodd">
<g clip-path="url(#clip6)" clip-rule="evenodd">
<path style="fill:none;stroke-width:0.019807;stroke-linecap:butt;stroke-linejoin:miter;stroke:rgb(17.96875%,20.3125%,21.09375%);stroke-opacity:0.8;stroke-miterlimit:10;" d="M 0.977459 2.263401 L 1.444089 2.158758 " transform="matrix(249.846261,0,0,249.846261,-129.581542,-164.107637)"/>
</g>
</g>
</g>
<g clip-path="url(#clip7)" clip-rule="nonzero">
<g clip-path="url(#clip8)" clip-rule="evenodd">
<g clip-path="url(#clip9)" clip-rule="evenodd">
<path style="fill:none;stroke-width:0.019807;stroke-linecap:butt;stroke-linejoin:miter;stroke:rgb(17.96875%,20.3125%,21.09375%);stroke-opacity:0.8;stroke-miterlimit:10;" d="M 2.204057 1.975348 L 1.444089 2.158758 " transform="matrix(249.846261,0,0,249.846261,-129.581542,-164.107637)"/>
</g>
</g>
</g>
<g clip-path="url(#clip10)" clip-rule="nonzero">
<g clip-path="url(#clip11)" clip-rule="evenodd">
<g clip-path="url(#clip12)" clip-rule="evenodd">
<path style="fill:none;stroke-width:0.019807;stroke-linecap:butt;stroke-linejoin:miter;stroke:rgb(17.96875%,20.3125%,21.09375%);stroke-opacity:0.8;stroke-miterlimit:10;" d="M 2.204057 1.975348 L 1.977355 1.23039 " transform="matrix(249.846261,0,0,249.846261,-129.581542,-164.107637)"/>
</g>
</g>
</g>
<g clip-path="url(#clip13)" clip-rule="nonzero">
<g clip-path="url(#clip14)" clip-rule="evenodd">
<g clip-path="url(#clip15)" clip-rule="evenodd">
<path style="fill:none;stroke-width:0.019807;stroke-linecap:butt;stroke-linejoin:miter;stroke:rgb(17.96875%,20.3125%,21.09375%);stroke-opacity:0.8;stroke-miterlimit:10;" d="M 2.204057 1.975348 L 1.962424 1.766908 " transform="matrix(249.846261,0,0,249.846261,-129.581542,-164.107637)"/>
</g>
</g>
</g>
<g clip-path="url(#clip16)" clip-rule="nonzero">
<g clip-path="url(#clip17)" clip-rule="evenodd">
<g clip-path="url(#clip18)" clip-rule="evenodd">
<path style="fill:none;stroke-width:0.019807;stroke-linecap:butt;stroke-linejoin:miter;stroke:rgb(17.96875%,20.3125%,21.09375%);stroke-opacity:0.8;stroke-miterlimit:10;" d="M 2.204057 1.975348 L 2.558493 1.599445 " transform="matrix(249.846261,0,0,249.846261,-129.581542,-164.107637)"/>
</g>
</g>
</g>
<g clip-path="url(#clip19)" clip-rule="nonzero">
<g clip-path="url(#clip20)" clip-rule="evenodd">
<g clip-path="url(#clip21)" clip-rule="evenodd">
<path style="fill:none;stroke-width:0.019807;stroke-linecap:butt;stroke-linejoin:miter;stroke:rgb(17.96875%,20.3125%,21.09375%);stroke-opacity:0.8;stroke-miterlimit:10;" d="M 2.204057 1.975348 L 2.242955 2.600467 " transform="matrix(249.846261,0,0,249.846261,-129.581542,-164.107637)"/>
</g>
</g>
</g>
<g clip-path="url(#clip22)" clip-rule="nonzero">
<g clip-path="url(#clip23)" clip-rule="evenodd">
<g clip-path="url(#clip24)" clip-rule="evenodd">
<path style="fill:none;stroke-width:0.019807;stroke-linecap:butt;stroke-linejoin:miter;stroke:rgb(17.96875%,20.3125%,21.09375%);stroke-opacity:0.8;stroke-miterlimit:10;" d="M 2.204057 1.975348 L 2.481571 2.533019 " transform="matrix(249.846261,0,0,249.846261,-129.581542,-164.107637)"/>
</g>
</g>
</g>
<g clip-path="url(#clip25)" clip-rule="nonzero">
<g clip-path="url(#clip26)" clip-rule="evenodd">
<g clip-path="url(#clip27)" clip-rule="evenodd">
<path style="fill:none;stroke-width:0.019807;stroke-linecap:butt;stroke-linejoin:miter;stroke:rgb(17.96875%,20.3125%,21.09375%);stroke-opacity:0.8;stroke-miterlimit:10;" d="M 2.204057 1.975348 L 2.728363 1.929054 " transform="matrix(249.846261,0,0,249.846261,-129.581542,-164.107637)"/>
</g>
</g>
</g>
<g clip-path="url(#clip28)" clip-rule="nonzero">
<g clip-path="url(#clip29)" clip-rule="evenodd">
<g clip-path="url(#clip30)" clip-rule="evenodd">
<path style="fill:none;stroke-width:0.019807;stroke-linecap:butt;stroke-linejoin:miter;stroke:rgb(17.96875%,20.3125%,21.09375%);stroke-opacity:0.8;stroke-miterlimit:10;" d="M 1.837331 0.864619 L 1.977355 1.23039 " transform="matrix(249.846261,0,0,249.846261,-129.581542,-164.107637)"/>
</g>
</g>
</g>
<g clip-path="url(#clip31)" clip-rule="nonzero">
<g clip-path="url(#clip32)" clip-rule="evenodd">
<g clip-path="url(#clip33)" clip-rule="evenodd">
<path style="fill:none;stroke-width:0.019807;stroke-linecap:butt;stroke-linejoin:miter;stroke:rgb(17.96875%,20.3125%,21.09375%);stroke-opacity:0.8;stroke-miterlimit:10;" d="M 2.242955 2.600467 L 2.42857 2.850527 " transform="matrix(249.846261,0,0,249.846261,-129.581542,-164.107637)"/>
</g>
</g>
</g>
<g clip-path="url(#clip34)" clip-rule="nonzero">
<g clip-path="url(#clip35)" clip-rule="evenodd">
<g clip-path="url(#clip36)" clip-rule="evenodd">
<path style="fill:none;stroke-width:0.019807;stroke-linecap:butt;stroke-linejoin:miter;stroke:rgb(17.96875%,20.3125%,21.09375%);stroke-opacity:0.8;stroke-miterlimit:10;" d="M 2.42857 2.850527 L 2.481571 2.533019 " transform="matrix(249.846261,0,0,249.846261,-129.581542,-164.107637)"/>
</g>
</g>
</g>
<path style="fill-rule:nonzero;fill:rgb(55.294118%,82.745098%,78.039216%);fill-opacity:1;stroke-width:0.019807;stroke-linecap:butt;stroke-linejoin:miter;stroke:rgb(60%,60%,60%);stroke-opacity:0.8;stroke-miterlimit:10;" d="M 0.0990344 0.00000579129 C 0.0990344 0.0546957 0.0546946 0.0990354 0.00000476656 0.0990354 C -0.0547007 0.0990354 -0.0990405 0.0546957 -0.0990405 0.00000579129 C -0.0990405 -0.0546997 -0.0547007 -0.0990395 0.00000476656 -0.0990395 C 0.0546946 -0.0990395 0.0990344 -0.0546997 0.0990344 0.00000579129 Z M 0.0990344 0.00000579129 " transform="matrix(249.846261,0,0,249.846261,47.908965,414.967303)"/>
<path style="fill-rule:nonzero;fill:rgb(55.294118%,82.745098%,78.039216%);fill-opacity:1;stroke-width:0.019807;stroke-linecap:butt;stroke-linejoin:miter;stroke:rgb(60%,60%,60%);stroke-opacity:0.8;stroke-miterlimit:10;" d="M 0.0990335 0.00000689963 C 0.0990335 0.0546968 0.0546938 0.0990365 0.00000386879 0.0990365 C -0.0547016 0.0990365 -0.0990414 0.0546968 -0.0990414 0.00000689963 C -0.0990414 -0.0546986 -0.0547016 -0.0990384 0.00000386879 -0.0990384 C 0.0546938 -0.0990384 0.0990335 -0.0546986 0.0990335 0.00000689963 Z M 0.0990335 0.00000689963 " transform="matrix(249.846261,0,0,249.846261,114.631846,401.392807)"/>
<path style="fill-rule:nonzero;fill:rgb(100%,92.941176%,43.529412%);fill-opacity:1;stroke-width:0.019807;stroke-linecap:butt;stroke-linejoin:miter;stroke:rgb(60%,60%,60%);stroke-opacity:0.8;stroke-miterlimit:10;" d="M 0.0990306 -0.00000124612 C 0.0990306 0.0546886 0.0546908 0.0990284 0.000000901139 0.0990284 C -0.054689 0.0990284 -0.0990287 0.0546886 -0.0990287 -0.00000124612 C -0.0990287 -0.0546911 -0.054689 -0.0990309 0.000000901139 -0.0990309 C 0.0546908 -0.0990309 0.0990306 -0.0546911 0.0990306 -0.00000124612 Z M 0.0990306 -0.00000124612 " transform="matrix(249.846261,0,0,249.846261,421.093525,329.426093)"/>
<path style="fill-rule:nonzero;fill:rgb(100%,92.941176%,43.529412%);fill-opacity:1;stroke-width:0.019807;stroke-linecap:butt;stroke-linejoin:miter;stroke:rgb(60%,60%,60%);stroke-opacity:0.8;stroke-miterlimit:10;" d="M 0.0990316 -0.00000597514 C 0.0990316 0.0546995 0.0546918 0.0990393 0.00000192824 0.0990393 C -0.054688 0.0990393 -0.0990277 0.0546995 -0.0990277 -0.00000597514 C -0.0990277 -0.0546959 -0.054688 -0.0990356 0.00000192824 -0.0990356 C 0.0546918 -0.0990356 0.0990316 -0.0546959 0.0990316 -0.00000597514 Z M 0.0990316 -0.00000597514 " transform="matrix(249.846261,0,0,249.846261,231.218268,375.251493)"/>
<path style="fill-rule:nonzero;fill:rgb(100%,92.941176%,43.529412%);fill-opacity:1;stroke-width:0.019807;stroke-linecap:butt;stroke-linejoin:miter;stroke:rgb(60%,60%,60%);stroke-opacity:0.8;stroke-miterlimit:10;" d="M 0.0990429 0.00000127063 C 0.0990429 0.0546912 0.0547031 0.0990309 -0.0000023976 0.0990309 C -0.0546923 0.0990309 -0.099032 0.0546912 -0.099032 0.00000127063 C -0.099032 -0.0546886 -0.0546923 -0.0990284 -0.0000023976 -0.0990284 C 0.0547031 -0.0990284 0.0990429 -0.0546886 0.0990429 0.00000127063 Z M 0.0990429 0.00000127063 " transform="matrix(249.846261,0,0,249.846261,329.469349,51.913745)"/>
<path style="fill-rule:nonzero;fill:rgb(100%,92.941176%,43.529412%);fill-opacity:1;stroke-width:0.019807;stroke-linecap:butt;stroke-linejoin:miter;stroke:rgb(60%,60%,60%);stroke-opacity:0.8;stroke-miterlimit:10;" d="M 0.0990331 0.0000044928 C 0.0990331 0.0546944 0.0546933 0.0990341 0.00000341404 0.0990341 C -0.0547021 0.0990341 -0.0990419 0.0546944 -0.0990419 0.0000044928 C -0.0990419 -0.054701 -0.0547021 -0.0990408 0.00000341404 -0.0990408 C 0.0546933 -0.0990408 0.0990331 -0.054701 0.0990331 0.0000044928 Z M 0.0990331 0.0000044928 " transform="matrix(249.846261,0,0,249.846261,364.452272,143.299659)"/>
<path style="fill-rule:nonzero;fill:rgb(100%,92.941176%,43.529412%);fill-opacity:1;stroke-width:0.019807;stroke-linecap:butt;stroke-linejoin:miter;stroke:rgb(60%,60%,60%);stroke-opacity:0.8;stroke-miterlimit:10;" d="M 0.0990395 -0.00000314515 C 0.0990395 0.0547024 0.0546998 0.0990421 -0.00000573753 0.0990421 C -0.0546956 0.0990421 -0.0990354 0.0547024 -0.0990354 -0.00000314515 C -0.0990354 -0.054693 -0.0546956 -0.0990328 -0.00000573753 -0.0990328 C 0.0546998 -0.0990328 0.0990395 -0.054693 0.0990395 -0.00000314515 Z M 0.0990395 -0.00000314515 " transform="matrix(249.846261,0,0,249.846261,360.72409,277.348442)"/>
<path style="fill-rule:nonzero;fill:rgb(100%,92.941176%,43.529412%);fill-opacity:1;stroke-width:0.019807;stroke-linecap:butt;stroke-linejoin:miter;stroke:rgb(60%,60%,60%);stroke-opacity:0.8;stroke-miterlimit:10;" d="M 0.0990295 0.00000669644 C 0.0990295 0.0546966 0.0546897 0.0990363 -0.000000136903 0.0990363 C -0.05469 0.0990363 -0.0990298 0.0546966 -0.0990298 0.00000669644 C -0.0990298 -0.0546988 -0.05469 -0.0990386 -0.000000136903 -0.0990386 C 0.0546897 -0.0990386 0.0990295 -0.0546988 0.0990295 0.00000669644 Z M 0.0990295 0.00000669644 " transform="matrix(249.846261,0,0,249.846261,509.648472,235.506139)"/>
<path style="fill-rule:nonzero;fill:rgb(100%,92.941176%,43.529412%);fill-opacity:1;stroke-width:0.019807;stroke-linecap:butt;stroke-linejoin:miter;stroke:rgb(60%,60%,60%);stroke-opacity:0.8;stroke-miterlimit:10;" d="M 0.0990277 0.00000709862 C 0.0990277 0.054697 0.0546879 0.0990367 -0.00000193661 0.0990367 C -0.0546918 0.0990367 -0.0990316 0.054697 -0.0990316 0.00000709862 C -0.0990316 -0.0546984 -0.0546918 -0.0990382 -0.00000193661 -0.0990382 C 0.0546879 -0.0990382 0.0990277 -0.0546984 0.0990277 0.00000709862 Z M 0.0990277 0.00000709862 " transform="matrix(249.846261,0,0,249.846261,430.812984,485.607601)"/>
<path style="fill-rule:nonzero;fill:rgb(100%,92.941176%,43.529412%);fill-opacity:1;stroke-width:0.019807;stroke-linecap:butt;stroke-linejoin:miter;stroke:rgb(60%,60%,60%);stroke-opacity:0.8;stroke-miterlimit:10;" d="M 0.0990311 -0.00000127063 C 0.0990311 0.0546886 0.0546913 0.0990284 0.00000140115 0.0990284 C -0.0546885 0.0990284 -0.0990282 0.0546886 -0.0990282 -0.00000127063 C -0.0990282 -0.0546912 -0.0546885 -0.0990309 0.00000140115 -0.0990309 C 0.0546913 -0.0990309 0.0990311 -0.0546912 0.0990311 -0.00000127063 Z M 0.0990311 -0.00000127063 " transform="matrix(249.846261,0,0,249.846261,477.18715,548.086255)"/>
<path style="fill-rule:nonzero;fill:rgb(100%,92.941176%,43.529412%);fill-opacity:1;stroke-width:0.019807;stroke-linecap:butt;stroke-linejoin:miter;stroke:rgb(60%,60%,60%);stroke-opacity:0.8;stroke-miterlimit:10;" d="M 0.0990393 0.00000367482 C 0.0990393 0.0546936 0.0546996 0.0990333 -0.00000596588 0.0990333 C -0.0546958 0.0990333 -0.0990356 0.0546936 -0.0990356 0.00000367482 C -0.0990356 -0.0547018 -0.0546958 -0.0990416 -0.00000596588 -0.0990416 C 0.0546996 -0.0990416 0.0990393 -0.0547018 0.0990393 0.00000367482 Z M 0.0990393 0.00000367482 " transform="matrix(249.846261,0,0,249.846261,490.431178,468.756894)"/>
<path style="fill-rule:nonzero;fill:rgb(100%,92.941176%,43.529412%);fill-opacity:1;stroke-width:0.019807;stroke-linecap:butt;stroke-linejoin:miter;stroke:rgb(60%,60%,60%);stroke-opacity:0.8;stroke-miterlimit:10;" d="M 0.0990405 -0.00000597744 C 0.0990405 0.0546995 0.0547007 0.0990393 -0.00000476656 0.0990393 C -0.0546946 0.0990393 -0.0990344 0.0546995 -0.0990344 -0.00000597744 C -0.0990344 -0.0546959 -0.0546946 -0.0990356 -0.00000476656 -0.0990356 C 0.0547007 -0.0990356 0.0990405 -0.0546959 0.0990405 -0.00000597744 Z M 0.0990405 -0.00000597744 " transform="matrix(249.846261,0,0,249.846261,552.091035,317.860868)"/>
</g>
</svg>
