<?xml version="1.0" encoding="UTF-8"?>
<svg xmlns="http://www.w3.org/2000/svg" xmlns:xlink="http://www.w3.org/1999/xlink" width="600pt" height="600pt" viewBox="0 0 600 600" version="1.1">
<defs>
<clipPath id="clip1">
  <path d="M 403 379 L 579 379 L 579 539 L 403 539 Z M 403 379 "/>
</clipPath>
<clipPath id="clip2">
  <path d="M 351.65625 289.722656 L 629.730469 289.722656 L 629.730469 627.824219 L 351.65625 627.824219 Z M 351.65625 289.722656 L 541.296875 436.492188 C 541.296875 447.648438 532.25 456.695312 521.09375 456.695312 C 509.9375 456.695312 500.890625 447.648438 500.890625 436.492188 C 500.890625 425.335938 509.9375 416.289062 521.09375 416.289062 C 532.25 416.289062 541.296875 425.335938 541.296875 436.492188 Z M 351.65625 289.722656 "/>
</clipPath>
<clipPath id="clip3">
  <path d="M 351.65625 289.722656 L 629.730469 289.722656 L 629.730469 627.824219 L 351.65625 627.824219 Z M 351.65625 289.722656 L 480.492188 481.050781 C 480.492188 492.207031 471.445312 501.253906 460.289062 501.253906 C 449.128906 501.253906 440.085938 492.207031 440.085938 481.050781 C 440.085938 469.890625 449.128906 460.847656 460.289062 460.847656 C 471.445312 460.847656 480.492188 469.890625 480.492188 481.050781 Z M 351.65625 289.722656 "/>
</clipPath>
<clipPath id="clip4">
  <path d="M 463 331 L 600 331 L 600 494 L 463 494 Z M 463 331 "/>
</clipPath>
<clipPath id="clip5">
  <path d="M 377.457031 276.171875 L 701.769531 276.171875 L 701.769531 549.269531 L 377.457031 549.269531 Z M 377.457031 276.171875 L 541.296875 436.492188 C 541.296875 447.648438 532.25 456.695312 521.09375 456.695312 C 509.9375 456.695312 500.890625 447.648438 500.890625 436.492188 C 500.890625 425.335938 509.9375 416.289062 521.09375 416.289062 C 532.25 416.289062 541.296875 425.335938 541.296875 436.492188 Z M 377.457031 276.171875 "/>
</clipPath>
<clipPath id="clip6">
  <path d="M 377.457031 276.171875 L 701.769531 276.171875 L 701.769531 549.269531 L 377.457031 549.269531 Z M 377.457031 276.171875 L 578.332031 388.945312 C 578.332031 400.105469 569.289062 409.148438 558.128906 409.148438 C 546.972656 409.148438 537.925781 400.105469 537.925781 388.945312 C 537.925781 377.789062 546.972656 368.742188 558.128906 368.742188 C 569.289062 368.742188 578.332031 377.789062 578.332031 388.945312 Z M 377.457031 276.171875 "/>
</clipPath>
<clipPath id="clip7">
  <path d="M 370.8125 416 L 485.199219 416 L 485.199219 539 L 370.8125 539 Z M 370.8125 416 "/>
</clipPath>
<clipPath id="clip8">
  <path d="M 370.8125 293.628906 L 485.199219 293.628906 L 485.199219 660.808594 L 370.8125 660.808594 Z M 370.8125 293.628906 L 415.921875 473.382812 C 415.921875 484.539062 406.878906 493.585938 395.71875 493.585938 C 384.5625 493.585938 375.515625 484.539062 375.515625 473.382812 C 375.515625 462.226562 384.5625 453.179688 395.71875 453.179688 C 406.878906 453.179688 415.921875 462.226562 415.921875 473.382812 Z M 370.8125 293.628906 "/>
</clipPath>
<clipPath id="clip9">
  <path d="M 370.8125 293.628906 L 485.199219 293.628906 L 485.199219 660.808594 L 370.8125 660.808594 Z M 370.8125 293.628906 L 480.492188 481.050781 C 480.492188 492.207031 471.445312 501.253906 460.289062 501.253906 C 449.128906 501.253906 440.085938 492.207031 440.085938 481.050781 C 440.085938 469.890625 449.128906 460.847656 460.289062 460.847656 C 471.445312 460.847656 480.492188 469.890625 480.492188 481.050781 Z M 370.8125 293.628906 "/>
</clipPath>
<clipPath id="clip10">
  <path d="M 306 341 L 453 341 L 453 531 L 306 531 Z M 306 341 "/>
</clipPath>
<clipPath id="clip11">
  <path d="M 197.046875 324.046875 L 561.851562 324.046875 L 561.851562 548.40625 L 197.046875 548.40625 Z M 197.046875 324.046875 L 415.921875 473.382812 C 415.921875 484.539062 406.878906 493.585938 395.71875 493.585938 C 384.5625 493.585938 375.515625 484.539062 375.515625 473.382812 C 375.515625 462.226562 384.5625 453.179688 395.71875 453.179688 C 406.878906 453.179688 415.921875 462.226562 415.921875 473.382812 Z M 197.046875 324.046875 "/>
</clipPath>
<clipPath id="clip12">
  <path d="M 197.046875 324.046875 L 561.851562 324.046875 L 561.851562 548.40625 L 197.046875 548.40625 Z M 197.046875 324.046875 L 383.378906 399.066406 C 383.378906 410.226562 374.332031 419.269531 363.175781 419.269531 C 352.019531 419.269531 342.972656 410.226562 342.972656 399.066406 C 342.972656 387.910156 352.019531 378.863281 363.175781 378.863281 C 374.332031 378.863281 383.378906 387.910156 383.378906 399.066406 Z M 197.046875 324.046875 "/>
</clipPath>
<clipPath id="clip13">
  <path d="M 235.320312 75 L 468.28125 75 L 468.28125 225 L 235.320312 225 Z M 235.320312 75 "/>
</clipPath>
<clipPath id="clip14">
  <path d="M 235.320312 -42.929688 L 468.28125 -42.929688 L 468.28125 342.941406 L 235.320312 342.941406 Z M 235.320312 -42.929688 L 439.730469 132.316406 C 439.730469 143.472656 430.6875 152.519531 419.527344 152.519531 C 408.371094 152.519531 399.324219 143.472656 399.324219 132.316406 C 399.324219 121.160156 408.371094 112.113281 419.527344 112.113281 C 430.6875 112.113281 439.730469 121.160156 439.730469 132.316406 Z M 235.320312 -42.929688 "/>
</clipPath>
<clipPath id="clip15">
  <path d="M 235.320312 -42.929688 L 468.28125 -42.929688 L 468.28125 342.941406 L 235.320312 342.941406 Z M 235.320312 -42.929688 L 304.273438 167.691406 C 304.273438 178.847656 295.230469 187.894531 284.070312 187.894531 C 272.914062 187.894531 263.867188 178.847656 263.867188 167.691406 C 263.867188 156.535156 272.914062 147.488281 284.070312 147.488281 C 295.230469 147.488281 304.273438 156.535156 304.273438 167.691406 Z M 235.320312 -42.929688 "/>
</clipPath>
<clipPath id="clip16">
  <path d="M 383.78125 62 L 525.949219 62 L 525.949219 190 L 383.78125 190 Z M 383.78125 62 "/>
</clipPath>
<clipPath id="clip17">
  <path d="M 383.78125 -58.679688 L 525.949219 -58.679688 L 525.949219 310.445312 L 383.78125 310.445312 Z M 383.78125 -58.679688 L 439.730469 132.316406 C 439.730469 143.472656 430.6875 152.519531 419.527344 152.519531 C 408.371094 152.519531 399.324219 143.472656 399.324219 132.316406 C 399.324219 121.160156 408.371094 112.113281 419.527344 112.113281 C 430.6875 112.113281 439.730469 121.160156 439.730469 132.316406 Z M 383.78125 -58.679688 "/>
</clipPath>
<clipPath id="clip18">
  <path d="M 383.78125 -58.679688 L 525.949219 -58.679688 L 525.949219 310.445312 L 383.78125 310.445312 Z M 383.78125 -58.679688 L 510.402344 119.445312 C 510.402344 130.605469 501.359375 139.648438 490.199219 139.648438 C 479.042969 139.648438 469.996094 130.605469 469.996094 119.445312 C 469.996094 108.289062 479.042969 99.242188 490.199219 99.242188 C 501.359375 99.242188 510.402344 108.289062 510.402344 119.445312 Z M 383.78125 -58.679688 "/>
</clipPath>
<clipPath id="clip19">
  <path d="M 282 251.359375 L 421 251.359375 L 421 441.304688 L 282 441.304688 Z M 282 251.359375 "/>
</clipPath>
<clipPath id="clip20">
  <path d="M 163.042969 251.359375 L 539.996094 251.359375 L 539.996094 441.304688 L 163.042969 441.304688 Z M 163.042969 251.359375 L 360.0625 293.59375 C 360.0625 304.753906 351.015625 313.796875 339.859375 313.796875 C 328.699219 313.796875 319.65625 304.753906 319.65625 293.59375 C 319.65625 282.4375 328.699219 273.390625 339.859375 273.390625 C 351.015625 273.390625 360.0625 282.4375 360.0625 293.59375 Z M 163.042969 251.359375 "/>
</clipPath>
<clipPath id="clip21">
  <path d="M 163.042969 251.359375 L 539.996094 251.359375 L 539.996094 441.304688 L 163.042969 441.304688 Z M 163.042969 251.359375 L 383.378906 399.066406 C 383.378906 410.226562 374.332031 419.269531 363.175781 419.269531 C 352.019531 419.269531 342.972656 410.226562 342.972656 399.066406 C 342.972656 387.910156 352.019531 378.863281 363.175781 378.863281 C 374.332031 378.863281 383.378906 387.910156 383.378906 399.066406 Z M 163.042969 251.359375 "/>
</clipPath>
<clipPath id="clip22">
  <path d="M 226 110 L 398 110 L 398 351 L 226 351 Z M 226 110 "/>
</clipPath>
<clipPath id="clip23">
  <path d="M 118.253906 91.964844 L 505.679688 91.964844 L 505.679688 369.324219 L 118.253906 369.324219 Z M 118.253906 91.964844 L 360.0625 293.59375 C 360.0625 304.753906 351.015625 313.796875 339.859375 313.796875 C 328.699219 313.796875 319.65625 304.753906 319.65625 293.59375 C 319.65625 282.4375 328.699219 273.390625 339.859375 273.390625 C 351.015625 273.390625 360.0625 282.4375 360.0625 293.59375 Z M 118.253906 91.964844 "/>
</clipPath>
<clipPath id="clip24">
  <path d="M 118.253906 91.964844 L 505.679688 91.964844 L 505.679688 369.324219 L 118.253906 369.324219 Z M 118.253906 91.964844 L 304.273438 167.691406 C 304.273438 178.847656 295.230469 187.894531 284.070312 187.894531 C 272.914062 187.894531 263.867188 178.847656 263.867188 167.691406 C 263.867188 156.535156 272.914062 147.488281 284.070312 147.488281 C 295.230469 147.488281 304.273438 156.535156 304.273438 167.691406 Z M 118.253906 91.964844 "/>
</clipPath>
<clipPath id="clip25">
  <path d="M 226 31 L 388 31 L 388 225 L 226 225 Z M 226 31 "/>
</clipPath>
<clipPath id="clip26">
  <path d="M 127.085938 -4.578125 L 487.164062 -4.578125 L 487.164062 260.726562 L 127.085938 260.726562 Z M 127.085938 -4.578125 L 304.273438 167.691406 C 304.273438 178.847656 295.230469 187.894531 284.070312 187.894531 C 272.914062 187.894531 263.867188 178.847656 263.867188 167.691406 C 263.867188 156.535156 272.914062 147.488281 284.070312 147.488281 C 295.230469 147.488281 304.273438 156.535156 304.273438 167.691406 Z M 127.085938 -4.578125 "/>
</clipPath>
<clipPath id="clip27">
  <path d="M 127.085938 -4.578125 L 487.164062 -4.578125 L 487.164062 260.726562 L 127.085938 260.726562 Z M 127.085938 -4.578125 L 350.378906 88.453125 C 350.378906 99.609375 341.335938 108.65625 330.175781 108.65625 C 319.019531 108.65625 309.972656 99.609375 309.972656 88.453125 C 309.972656 77.296875 319.019531 68.25 330.175781 68.25 C 341.335938 68.25 350.378906 77.296875 350.378906 88.453125 Z M 127.085938 -4.578125 "/>
</clipPath>
<clipPath id="clip28">
  <path d="M 157.464844 94 L 319.488281 94 L 319.488281 225 L 157.464844 225 Z M 157.464844 94 "/>
</clipPath>
<clipPath id="clip29">
  <path d="M 157.464844 -26.921875 L 319.488281 -26.921875 L 319.488281 345.878906 L 157.464844 345.878906 Z M 157.464844 -26.921875 L 304.273438 167.691406 C 304.273438 178.847656 295.230469 187.894531 284.070312 187.894531 C 272.914062 187.894531 263.867188 178.847656 263.867188 167.691406 C 263.867188 156.535156 272.914062 147.488281 284.070312 147.488281 C 295.230469 147.488281 304.273438 156.535156 304.273438 167.691406 Z M 157.464844 -26.921875 "/>
</clipPath>
<clipPath id="clip30">
  <path d="M 157.464844 -26.921875 L 319.488281 -26.921875 L 319.488281 345.878906 L 157.464844 345.878906 Z M 157.464844 -26.921875 L 213.082031 151.261719 C 213.082031 162.421875 204.035156 171.464844 192.878906 171.464844 C 181.71875 171.464844 172.675781 162.421875 172.675781 151.261719 C 172.675781 140.105469 181.71875 131.058594 192.878906 131.058594 C 204.035156 131.058594 213.082031 140.105469 213.082031 151.261719 Z M 157.464844 -26.921875 "/>
</clipPath>
<clipPath id="clip31">
  <path d="M 150 53 L 342 53 L 342 225 L 150 225 Z M 150 53 "/>
</clipPath>
<clipPath id="clip32">
  <path d="M 98.03125 -34.863281 L 394.160156 -34.863281 L 394.160156 313.386719 L 98.03125 313.386719 Z M 98.03125 -34.863281 L 304.273438 167.691406 C 304.273438 178.847656 295.230469 187.894531 284.070312 187.894531 C 272.914062 187.894531 263.867188 178.847656 263.867188 167.691406 C 263.867188 156.535156 272.914062 147.488281 284.070312 147.488281 C 295.230469 147.488281 304.273438 156.535156 304.273438 167.691406 Z M 98.03125 -34.863281 "/>
</clipPath>
<clipPath id="clip33">
  <path d="M 98.03125 -34.863281 L 394.160156 -34.863281 L 394.160156 313.386719 L 98.03125 313.386719 Z M 98.03125 -34.863281 L 228.320312 110.828125 C 228.320312 121.988281 219.273438 131.03125 208.117188 131.03125 C 196.960938 131.03125 187.914062 121.988281 187.914062 110.828125 C 187.914062 99.671875 196.960938 90.628906 208.117188 90.628906 C 219.273438 90.628906 228.320312 99.671875 228.320312 110.828125 Z M 98.03125 -34.863281 "/>
</clipPath>
<clipPath id="clip34">
  <path d="M 117 110 L 342 110 L 342 293 L 117 293 Z M 117 110 "/>
</clipPath>
<clipPath id="clip35">
  <path d="M 77.742188 13.257812 L 381.347656 13.257812 L 381.347656 389.734375 L 77.742188 389.734375 Z M 77.742188 13.257812 L 304.273438 167.691406 C 304.273438 178.847656 295.230469 187.894531 284.070312 187.894531 C 272.914062 187.894531 263.867188 178.847656 263.867188 167.691406 C 263.867188 156.535156 272.914062 147.488281 284.070312 147.488281 C 295.230469 147.488281 304.273438 156.535156 304.273438 167.691406 Z M 77.742188 13.257812 "/>
</clipPath>
<clipPath id="clip36">
  <path d="M 77.742188 13.257812 L 381.347656 13.257812 L 381.347656 389.734375 L 77.742188 389.734375 Z M 77.742188 13.257812 L 195.21875 235.296875 C 195.21875 246.457031 186.171875 255.5 175.015625 255.5 C 163.855469 255.5 154.8125 246.457031 154.8125 235.296875 C 154.8125 224.140625 163.855469 215.09375 175.015625 215.09375 C 186.171875 215.09375 195.21875 224.140625 195.21875 235.296875 Z M 77.742188 13.257812 "/>
</clipPath>
<clipPath id="clip37">
  <path d="M 59 394 L 195 394 L 195 569 L 59 569 Z M 59 394 "/>
</clipPath>
<clipPath id="clip38">
  <path d="M -55.046875 390.492188 L 308.445312 390.492188 L 308.445312 572.664062 L -55.046875 572.664062 Z M -55.046875 390.492188 L 157.113281 511.546875 C 157.113281 522.703125 148.066406 531.75 136.910156 531.75 C 125.75 531.75 116.707031 522.703125 116.707031 511.546875 C 116.707031 500.390625 125.75 491.34375 136.910156 491.34375 C 148.066406 491.34375 157.113281 500.390625 157.113281 511.546875 Z M -55.046875 390.492188 "/>
</clipPath>
<clipPath id="clip39">
  <path d="M -55.046875 390.492188 L 308.445312 390.492188 L 308.445312 572.664062 L -55.046875 572.664062 Z M -55.046875 390.492188 L 136.6875 451.605469 C 136.6875 462.761719 127.644531 471.808594 116.484375 471.808594 C 105.328125 471.808594 96.28125 462.761719 96.28125 451.605469 C 96.28125 440.449219 105.328125 431.402344 116.484375 431.402344 C 127.644531 431.402344 136.6875 440.449219 136.6875 451.605469 Z M -55.046875 390.492188 "/>
</clipPath>
<clipPath id="clip40">
  <path d="M 46 324.964844 L 174 324.964844 L 174 478.574219 L 46 478.574219 Z M 46 324.964844 "/>
</clipPath>
<clipPath id="clip41">
  <path d="M -76.035156 324.964844 L 295.984375 324.964844 L 295.984375 478.574219 L -76.035156 478.574219 Z M -76.035156 324.964844 L 136.6875 451.605469 C 136.6875 462.761719 127.644531 471.808594 116.484375 471.808594 C 105.328125 471.808594 96.28125 462.761719 96.28125 451.605469 C 96.28125 440.449219 105.328125 431.402344 116.484375 431.402344 C 127.644531 431.402344 136.6875 440.449219 136.6875 451.605469 Z M -76.035156 324.964844 "/>
</clipPath>
<clipPath id="clip42">
  <path d="M -76.035156 324.964844 L 295.984375 324.964844 L 295.984375 478.574219 L -76.035156 478.574219 Z M -76.035156 324.964844 L 123.664062 351.929688 C 123.664062 363.089844 114.617188 372.132812 103.460938 372.132812 C 92.300781 372.132812 83.257812 363.089844 83.257812 351.929688 C 83.257812 340.773438 92.300781 331.726562 103.460938 331.726562 C 114.617188 331.726562 123.664062 340.773438 123.664062 351.929688 Z M -76.035156 324.964844 "/>
</clipPath>
<clipPath id="clip43">
  <path d="M 32.492188 294 L 112.84375 294 L 112.84375 411 L 32.492188 411 Z M 32.492188 294 "/>
</clipPath>
<clipPath id="clip44">
  <path d="M 32.492188 171.019531 L 112.84375 171.019531 L 112.84375 534.703125 L 32.492188 534.703125 Z M 32.492188 171.019531 L 123.664062 351.929688 C 123.664062 363.089844 114.617188 372.132812 103.460938 372.132812 C 92.300781 372.132812 83.257812 363.089844 83.257812 351.929688 C 83.257812 340.773438 92.300781 331.726562 103.460938 331.726562 C 114.617188 331.726562 123.664062 340.773438 123.664062 351.929688 Z M 32.492188 171.019531 "/>
</clipPath>
<clipPath id="clip45">
  <path d="M 32.492188 171.019531 L 112.84375 171.019531 L 112.84375 534.703125 L 32.492188 534.703125 Z M 32.492188 171.019531 L 62.074219 353.789062 C 62.074219 364.949219 53.027344 373.992188 41.871094 373.992188 C 30.710938 373.992188 21.667969 364.949219 21.667969 353.789062 C 21.667969 342.632812 30.710938 333.585938 41.871094 333.585938 C 53.027344 333.585938 62.074219 342.632812 62.074219 353.789062 Z M 32.492188 171.019531 "/>
</clipPath>
<clipPath id="clip46">
  <path d="M 46 178 L 233 178 L 233 410 L 46 410 Z M 46 178 "/>
</clipPath>
<clipPath id="clip47">
  <path d="M -51.40625 138.722656 L 329.886719 138.722656 L 329.886719 448.507812 L -51.40625 448.507812 Z M -51.40625 138.722656 L 123.664062 351.929688 C 123.664062 363.089844 114.617188 372.132812 103.460938 372.132812 C 92.300781 372.132812 83.257812 363.089844 83.257812 351.929688 C 83.257812 340.773438 92.300781 331.726562 103.460938 331.726562 C 114.617188 331.726562 123.664062 340.773438 123.664062 351.929688 Z M -51.40625 138.722656 "/>
</clipPath>
<clipPath id="clip48">
  <path d="M -51.40625 138.722656 L 329.886719 138.722656 L 329.886719 448.507812 L -51.40625 448.507812 Z M -51.40625 138.722656 L 195.21875 235.296875 C 195.21875 246.457031 186.171875 255.5 175.015625 255.5 C 163.855469 255.5 154.8125 246.457031 154.8125 235.296875 C 154.8125 224.140625 163.855469 215.09375 175.015625 215.09375 C 186.171875 215.09375 195.21875 224.140625 195.21875 235.296875 Z M -51.40625 138.722656 "/>
</clipPath>
<clipPath id="clip49">
  <path d="M 100 36 L 251 36 L 251 209 L 100 209 Z M 100 36 "/>
</clipPath>
<clipPath id="clip50">
  <path d="M 2.914062 -2.160156 L 347.941406 -2.160156 L 347.941406 247.523438 L 2.914062 247.523438 Z M 2.914062 -2.160156 L 178.175781 94.097656 C 178.175781 105.257812 169.128906 114.300781 157.972656 114.300781 C 146.8125 114.300781 137.769531 105.257812 137.769531 94.097656 C 137.769531 82.941406 146.8125 73.894531 157.972656 73.894531 C 169.128906 73.894531 178.175781 82.941406 178.175781 94.097656 Z M 2.914062 -2.160156 "/>
</clipPath>
<clipPath id="clip51">
  <path d="M 2.914062 -2.160156 L 347.941406 -2.160156 L 347.941406 247.523438 L 2.914062 247.523438 Z M 2.914062 -2.160156 L 213.082031 151.261719 C 213.082031 162.421875 204.035156 171.464844 192.878906 171.464844 C 181.71875 171.464844 172.675781 162.421875 172.675781 151.261719 C 172.675781 140.105469 181.71875 131.058594 192.878906 131.058594 C 204.035156 131.058594 213.082031 140.105469 213.082031 151.261719 Z M 2.914062 -2.160156 "/>
</clipPath>
<clipPath id="clip52">
  <path d="M 100 36 L 266 36 L 266 168 L 100 168 Z M 100 36 "/>
</clipPath>
<clipPath id="clip53">
  <path d="M 97.929688 -77.796875 L 268.164062 -77.796875 L 268.164062 282.726562 L 97.929688 282.726562 Z M 97.929688 -77.796875 L 178.175781 94.097656 C 178.175781 105.257812 169.128906 114.300781 157.972656 114.300781 C 146.8125 114.300781 137.769531 105.257812 137.769531 94.097656 C 137.769531 82.941406 146.8125 73.894531 157.972656 73.894531 C 169.128906 73.894531 178.175781 82.941406 178.175781 94.097656 Z M 97.929688 -77.796875 "/>
</clipPath>
<clipPath id="clip54">
  <path d="M 97.929688 -77.796875 L 268.164062 -77.796875 L 268.164062 282.726562 L 97.929688 282.726562 Z M 97.929688 -77.796875 L 228.320312 110.828125 C 228.320312 121.988281 219.273438 131.03125 208.117188 131.03125 C 196.960938 131.03125 187.914062 121.988281 187.914062 110.828125 C 187.914062 99.671875 196.960938 90.628906 208.117188 90.628906 C 219.273438 90.628906 228.320312 99.671875 228.320312 110.828125 Z M 97.929688 -77.796875 "/>
</clipPath>
<clipPath id="clip55">
  <path d="M 135 53 L 266 53 L 266 209 L 135 209 Z M 135 53 "/>
</clipPath>
<clipPath id="clip56">
  <path d="M 23.257812 44.386719 L 377.742188 44.386719 L 377.742188 217.707031 L 23.257812 217.707031 Z M 23.257812 44.386719 L 213.082031 151.261719 C 213.082031 162.421875 204.035156 171.464844 192.878906 171.464844 C 181.71875 171.464844 172.675781 162.421875 172.675781 151.261719 C 172.675781 140.105469 181.71875 131.058594 192.878906 131.058594 C 204.035156 131.058594 213.082031 140.105469 213.082031 151.261719 Z M 23.257812 44.386719 "/>
</clipPath>
<clipPath id="clip57">
  <path d="M 23.257812 44.386719 L 377.742188 44.386719 L 377.742188 217.707031 L 23.257812 217.707031 Z M 23.257812 44.386719 L 228.320312 110.828125 C 228.320312 121.988281 219.273438 131.03125 208.117188 131.03125 C 196.960938 131.03125 187.914062 121.988281 187.914062 110.828125 C 187.914062 99.671875 196.960938 90.628906 208.117188 90.628906 C 219.273438 90.628906 228.320312 99.671875 228.320312 110.828125 Z M 23.257812 44.386719 "/>
</clipPath>
<clipPath id="clip58">
  <path d="M 117 110.429688 L 251 110.429688 L 251 276.132812 L 117 276.132812 Z M 117 110.429688 "/>
</clipPath>
<clipPath id="clip59">
  <path d="M -2.105469 110.429688 L 370.003906 110.429688 L 370.003906 276.132812 L -2.105469 276.132812 Z M -2.105469 110.429688 L 213.082031 151.261719 C 213.082031 162.421875 204.035156 171.464844 192.878906 171.464844 C 181.71875 171.464844 172.675781 162.421875 172.675781 151.261719 C 172.675781 140.105469 181.71875 131.058594 192.878906 131.058594 C 204.035156 131.058594 213.082031 140.105469 213.082031 151.261719 Z M -2.105469 110.429688 "/>
</clipPath>
<clipPath id="clip60">
  <path d="M -2.105469 110.429688 L 370.003906 110.429688 L 370.003906 276.132812 L -2.105469 276.132812 Z M -2.105469 110.429688 L 195.21875 235.296875 C 195.21875 246.457031 186.171875 255.5 175.015625 255.5 C 163.855469 255.5 154.8125 246.457031 154.8125 235.296875 C 154.8125 224.140625 163.855469 215.09375 175.015625 215.09375 C 186.171875 215.09375 195.21875 224.140625 195.21875 235.296875 Z M -2.105469 110.429688 "/>
</clipPath>
</defs>
<g id="surface351">
<g clip-path="url(#clip1)" clip-rule="nonzero">
<g clip-path="url(#clip2)" clip-rule="evenodd">
<g clip-path="url(#clip3)" clip-rule="evenodd">
<path style="fill:none;stroke-width:0.0228347;stroke-linecap:butt;stroke-linejoin:miter;stroke:rgb(17.96875%,20.3125%,21.09375%);stroke-opacity:0.8;stroke-miterlimit:10;" d="M 3.644455 2.669202 L 3.300829 2.921017 " transform="matrix(176.950125,0,0,176.950125,-123.792997,-35.823525)"/>
</g>
</g>
</g>
<g clip-path="url(#clip4)" clip-rule="nonzero">
<g clip-path="url(#clip5)" clip-rule="evenodd">
<g clip-path="url(#clip6)" clip-rule="evenodd">
<path style="fill:none;stroke-width:0.0228347;stroke-linecap:butt;stroke-linejoin:miter;stroke:rgb(17.96875%,20.3125%,21.09375%);stroke-opacity:0.8;stroke-miterlimit:10;" d="M 3.644455 2.669202 L 3.853752 2.4005 " transform="matrix(176.950125,0,0,176.950125,-123.792997,-35.823525)"/>
</g>
</g>
</g>
<g clip-path="url(#clip7)" clip-rule="nonzero">
<g clip-path="url(#clip8)" clip-rule="evenodd">
<g clip-path="url(#clip9)" clip-rule="evenodd">
<path style="fill:none;stroke-width:0.0228347;stroke-linecap:butt;stroke-linejoin:miter;stroke:rgb(17.96875%,20.3125%,21.09375%);stroke-opacity:0.8;stroke-miterlimit:10;" d="M 2.935922 2.877683 L 3.300829 2.921017 " transform="matrix(176.950125,0,0,176.950125,-123.792997,-35.823525)"/>
</g>
</g>
</g>
<g clip-path="url(#clip10)" clip-rule="nonzero">
<g clip-path="url(#clip11)" clip-rule="evenodd">
<g clip-path="url(#clip12)" clip-rule="evenodd">
<path style="fill:none;stroke-width:0.0228347;stroke-linecap:butt;stroke-linejoin:miter;stroke:rgb(17.96875%,20.3125%,21.09375%);stroke-opacity:0.8;stroke-miterlimit:10;" d="M 2.935922 2.877683 L 2.752011 2.457698 " transform="matrix(176.950125,0,0,176.950125,-123.792997,-35.823525)"/>
</g>
</g>
</g>
<g clip-path="url(#clip13)" clip-rule="nonzero">
<g clip-path="url(#clip14)" clip-rule="evenodd">
<g clip-path="url(#clip15)" clip-rule="evenodd">
<path style="fill:none;stroke-width:0.0228347;stroke-linecap:butt;stroke-linejoin:miter;stroke:rgb(17.96875%,20.3125%,21.09375%);stroke-opacity:0.8;stroke-miterlimit:10;" d="M 3.070472 0.950211 L 2.304962 1.150126 " transform="matrix(176.950125,0,0,176.950125,-123.792997,-35.823525)"/>
</g>
</g>
</g>
<g clip-path="url(#clip16)" clip-rule="nonzero">
<g clip-path="url(#clip17)" clip-rule="evenodd">
<g clip-path="url(#clip18)" clip-rule="evenodd">
<path style="fill:none;stroke-width:0.0228347;stroke-linecap:butt;stroke-linejoin:miter;stroke:rgb(17.96875%,20.3125%,21.09375%);stroke-opacity:0.8;stroke-miterlimit:10;" d="M 3.070472 0.950211 L 3.46986 0.877472 " transform="matrix(176.950125,0,0,176.950125,-123.792997,-35.823525)"/>
</g>
</g>
</g>
<g clip-path="url(#clip19)" clip-rule="nonzero">
<g clip-path="url(#clip20)" clip-rule="evenodd">
<g clip-path="url(#clip21)" clip-rule="evenodd">
<path style="fill:none;stroke-width:0.0228347;stroke-linecap:butt;stroke-linejoin:miter;stroke:rgb(17.96875%,20.3125%,21.09375%);stroke-opacity:0.8;stroke-miterlimit:10;" d="M 2.620243 1.861639 L 2.752011 2.457698 " transform="matrix(176.950125,0,0,176.950125,-123.792997,-35.823525)"/>
</g>
</g>
</g>
<g clip-path="url(#clip22)" clip-rule="nonzero">
<g clip-path="url(#clip23)" clip-rule="evenodd">
<g clip-path="url(#clip24)" clip-rule="evenodd">
<path style="fill:none;stroke-width:0.0228347;stroke-linecap:butt;stroke-linejoin:miter;stroke:rgb(17.96875%,20.3125%,21.09375%);stroke-opacity:0.8;stroke-miterlimit:10;" d="M 2.620243 1.861639 L 2.304962 1.150126 " transform="matrix(176.950125,0,0,176.950125,-123.792997,-35.823525)"/>
</g>
</g>
</g>
<g clip-path="url(#clip25)" clip-rule="nonzero">
<g clip-path="url(#clip26)" clip-rule="evenodd">
<g clip-path="url(#clip27)" clip-rule="evenodd">
<path style="fill:none;stroke-width:0.0228347;stroke-linecap:butt;stroke-linejoin:miter;stroke:rgb(17.96875%,20.3125%,21.09375%);stroke-opacity:0.8;stroke-miterlimit:10;" d="M 2.304962 1.150126 L 2.565518 0.702326 " transform="matrix(176.950125,0,0,176.950125,-123.792997,-35.823525)"/>
</g>
</g>
</g>
<g clip-path="url(#clip28)" clip-rule="nonzero">
<g clip-path="url(#clip29)" clip-rule="evenodd">
<g clip-path="url(#clip30)" clip-rule="evenodd">
<path style="fill:none;stroke-width:0.0228347;stroke-linecap:butt;stroke-linejoin:miter;stroke:rgb(17.96875%,20.3125%,21.09375%);stroke-opacity:0.8;stroke-miterlimit:10;" d="M 2.304962 1.150126 L 1.789611 1.057277 " transform="matrix(176.950125,0,0,176.950125,-123.792997,-35.823525)"/>
</g>
</g>
</g>
<g clip-path="url(#clip31)" clip-rule="nonzero">
<g clip-path="url(#clip32)" clip-rule="evenodd">
<g clip-path="url(#clip33)" clip-rule="evenodd">
<path style="fill:none;stroke-width:0.0228347;stroke-linecap:butt;stroke-linejoin:miter;stroke:rgb(17.96875%,20.3125%,21.09375%);stroke-opacity:0.8;stroke-miterlimit:10;" d="M 2.304962 1.150126 L 1.875727 0.828774 " transform="matrix(176.950125,0,0,176.950125,-123.792997,-35.823525)"/>
</g>
</g>
</g>
<g clip-path="url(#clip34)" clip-rule="nonzero">
<g clip-path="url(#clip35)" clip-rule="evenodd">
<g clip-path="url(#clip36)" clip-rule="evenodd">
<path style="fill:none;stroke-width:0.0228347;stroke-linecap:butt;stroke-linejoin:miter;stroke:rgb(17.96875%,20.3125%,21.09375%);stroke-opacity:0.8;stroke-miterlimit:10;" d="M 2.304962 1.150126 L 1.68866 1.532185 " transform="matrix(176.950125,0,0,176.950125,-123.792997,-35.823525)"/>
</g>
</g>
</g>
<g clip-path="url(#clip37)" clip-rule="nonzero">
<g clip-path="url(#clip38)" clip-rule="evenodd">
<g clip-path="url(#clip39)" clip-rule="evenodd">
<path style="fill:none;stroke-width:0.0228347;stroke-linecap:butt;stroke-linejoin:miter;stroke:rgb(17.96875%,20.3125%,21.09375%);stroke-opacity:0.8;stroke-miterlimit:10;" d="M 1.473314 3.09336 L 1.357882 2.754612 " transform="matrix(176.950125,0,0,176.950125,-123.792997,-35.823525)"/>
</g>
</g>
</g>
<g clip-path="url(#clip40)" clip-rule="nonzero">
<g clip-path="url(#clip41)" clip-rule="evenodd">
<g clip-path="url(#clip42)" clip-rule="evenodd">
<path style="fill:none;stroke-width:0.0228347;stroke-linecap:butt;stroke-linejoin:miter;stroke:rgb(17.96875%,20.3125%,21.09375%);stroke-opacity:0.8;stroke-miterlimit:10;" d="M 1.357882 2.754612 L 1.284282 2.191314 " transform="matrix(176.950125,0,0,176.950125,-123.792997,-35.823525)"/>
</g>
</g>
</g>
<g clip-path="url(#clip43)" clip-rule="nonzero">
<g clip-path="url(#clip44)" clip-rule="evenodd">
<g clip-path="url(#clip45)" clip-rule="evenodd">
<path style="fill:none;stroke-width:0.0228347;stroke-linecap:butt;stroke-linejoin:miter;stroke:rgb(17.96875%,20.3125%,21.09375%);stroke-opacity:0.8;stroke-miterlimit:10;" d="M 1.284282 2.191314 L 0.936219 2.201821 " transform="matrix(176.950125,0,0,176.950125,-123.792997,-35.823525)"/>
</g>
</g>
</g>
<g clip-path="url(#clip46)" clip-rule="nonzero">
<g clip-path="url(#clip47)" clip-rule="evenodd">
<g clip-path="url(#clip48)" clip-rule="evenodd">
<path style="fill:none;stroke-width:0.0228347;stroke-linecap:butt;stroke-linejoin:miter;stroke:rgb(17.96875%,20.3125%,21.09375%);stroke-opacity:0.8;stroke-miterlimit:10;" d="M 1.284282 2.191314 L 1.68866 1.532185 " transform="matrix(176.950125,0,0,176.950125,-123.792997,-35.823525)"/>
</g>
</g>
</g>
<g clip-path="url(#clip49)" clip-rule="nonzero">
<g clip-path="url(#clip50)" clip-rule="evenodd">
<g clip-path="url(#clip51)" clip-rule="evenodd">
<path style="fill:none;stroke-width:0.0228347;stroke-linecap:butt;stroke-linejoin:miter;stroke:rgb(17.96875%,20.3125%,21.09375%);stroke-opacity:0.8;stroke-miterlimit:10;" d="M 1.592345 0.734225 L 1.789611 1.057277 " transform="matrix(176.950125,0,0,176.950125,-123.792997,-35.823525)"/>
</g>
</g>
</g>
<g clip-path="url(#clip52)" clip-rule="nonzero">
<g clip-path="url(#clip53)" clip-rule="evenodd">
<g clip-path="url(#clip54)" clip-rule="evenodd">
<path style="fill:none;stroke-width:0.0228347;stroke-linecap:butt;stroke-linejoin:miter;stroke:rgb(17.96875%,20.3125%,21.09375%);stroke-opacity:0.8;stroke-miterlimit:10;" d="M 1.592345 0.734225 L 1.875727 0.828774 " transform="matrix(176.950125,0,0,176.950125,-123.792997,-35.823525)"/>
</g>
</g>
</g>
<g clip-path="url(#clip55)" clip-rule="nonzero">
<g clip-path="url(#clip56)" clip-rule="evenodd">
<g clip-path="url(#clip57)" clip-rule="evenodd">
<path style="fill:none;stroke-width:0.0228347;stroke-linecap:butt;stroke-linejoin:miter;stroke:rgb(17.96875%,20.3125%,21.09375%);stroke-opacity:0.8;stroke-miterlimit:10;" d="M 1.789611 1.057277 L 1.875727 0.828774 " transform="matrix(176.950125,0,0,176.950125,-123.792997,-35.823525)"/>
</g>
</g>
</g>
<g clip-path="url(#clip58)" clip-rule="nonzero">
<g clip-path="url(#clip59)" clip-rule="evenodd">
<g clip-path="url(#clip60)" clip-rule="evenodd">
<path style="fill:none;stroke-width:0.0228347;stroke-linecap:butt;stroke-linejoin:miter;stroke:rgb(17.96875%,20.3125%,21.09375%);stroke-opacity:0.8;stroke-miterlimit:10;" d="M 1.789611 1.057277 L 1.68866 1.532185 " transform="matrix(176.950125,0,0,176.950125,-123.792997,-35.823525)"/>
</g>
</g>
</g>
<path style="fill-rule:nonzero;fill:rgb(100%,92.941176%,43.529412%);fill-opacity:1;stroke-width:0.0228347;stroke-linecap:butt;stroke-linejoin:miter;stroke:rgb(60%,60%,60%);stroke-opacity:0.8;stroke-miterlimit:10;" d="M 0.114173 0.000000210326 C 0.114173 0.0630476 0.0630465 0.114174 -0.000000962945 0.114174 C -0.0630484 0.114174 -0.114175 0.0630476 -0.114175 0.000000210326 C -0.114175 -0.0630472 -0.0630484 -0.114174 -0.000000962945 -0.114174 C 0.0630465 -0.114174 0.114173 -0.0630472 0.114173 0.000000210326 Z M 0.114173 0.000000210326 " transform="matrix(176.950125,0,0,176.950125,521.09392,436.49215)"/>
<path style="fill-rule:nonzero;fill:rgb(100%,92.941176%,43.529412%);fill-opacity:1;stroke-width:0.0228347;stroke-linecap:butt;stroke-linejoin:miter;stroke:rgb(60%,60%,60%);stroke-opacity:0.8;stroke-miterlimit:10;" d="M 0.114169 0.00000120352 C 0.114169 0.0630486 0.0630646 0.114175 -0.00000494601 0.114175 C -0.0630524 0.114175 -0.114179 0.0630486 -0.114179 0.00000120352 C -0.114179 -0.0630462 -0.0630524 -0.114173 -0.00000494601 -0.114173 C 0.0630646 -0.114173 0.114169 -0.0630462 0.114169 0.00000120352 Z M 0.114169 0.00000120352 " transform="matrix(176.950125,0,0,176.950125,395.719625,473.3826)"/>
<path style="fill-rule:nonzero;fill:rgb(100%,92.941176%,43.529412%);fill-opacity:1;stroke-width:0.0228347;stroke-linecap:butt;stroke-linejoin:miter;stroke:rgb(60%,60%,60%);stroke-opacity:0.8;stroke-miterlimit:10;" d="M 0.114179 0.00000762371 C 0.114179 0.0630551 0.0630525 0.114182 0.00000510673 0.114182 C -0.0630644 0.114182 -0.114169 0.0630551 -0.114169 0.00000762371 C -0.114169 -0.0630619 -0.0630644 -0.114166 0.00000510673 -0.114166 C 0.0630525 -0.114166 0.114179 -0.0630619 0.114179 0.00000762371 Z M 0.114179 0.00000762371 " transform="matrix(176.950125,0,0,176.950125,460.288159,481.049432)"/>
<path style="fill-rule:nonzero;fill:rgb(100%,92.941176%,43.529412%);fill-opacity:1;stroke-width:0.0228347;stroke-linecap:butt;stroke-linejoin:miter;stroke:rgb(60%,60%,60%);stroke-opacity:0.8;stroke-miterlimit:10;" d="M 0.114168 -0.00000823395 C 0.114168 0.0630613 0.0630636 0.114166 -0.00000585512 0.114166 C -0.0630533 0.114166 -0.11418 0.0630613 -0.11418 -0.00000823395 C -0.11418 -0.0630557 -0.0630533 -0.114182 -0.00000585512 -0.114182 C 0.0630636 -0.114182 0.114168 -0.0630557 0.114168 -0.00000823395 Z M 0.114168 -0.00000823395 " transform="matrix(176.950125,0,0,176.950125,558.129942,388.946769)"/>
<path style="fill-rule:nonzero;fill:rgb(100%,92.941176%,43.529412%);fill-opacity:1;stroke-width:0.0228347;stroke-linecap:butt;stroke-linejoin:miter;stroke:rgb(60%,60%,60%);stroke-opacity:0.8;stroke-miterlimit:10;" d="M 0.11417 -0.000000887104 C 0.11417 0.0630465 0.0630651 0.114173 -0.00000444681 0.114173 C -0.0630519 0.114173 -0.114179 0.0630465 -0.114179 -0.000000887104 C -0.114179 -0.0630483 -0.0630519 -0.114175 -0.00000444681 -0.114175 C 0.0630651 -0.114175 0.11417 -0.0630483 0.11417 -0.000000887104 Z M 0.11417 -0.000000887104 " transform="matrix(176.950125,0,0,176.950125,419.528131,132.316563)"/>
<path style="fill-rule:nonzero;fill:rgb(100%,92.941176%,43.529412%);fill-opacity:1;stroke-width:0.0228347;stroke-linecap:butt;stroke-linejoin:miter;stroke:rgb(60%,60%,60%);stroke-opacity:0.8;stroke-miterlimit:10;" d="M 0.114176 -0.00000481301 C 0.114176 0.0630647 0.0630496 0.114169 0.00000221242 0.114169 C -0.0630673 0.114169 -0.114172 0.0630647 -0.114172 -0.00000481301 C -0.114172 -0.0630522 -0.0630673 -0.114179 0.00000221242 -0.114179 C 0.0630496 -0.114179 0.114176 -0.0630522 0.114176 -0.00000481301 Z M 0.114176 -0.00000481301 " transform="matrix(176.950125,0,0,176.950125,339.858984,293.594602)"/>
<path style="fill-rule:nonzero;fill:rgb(100%,92.941176%,43.529412%);fill-opacity:1;stroke-width:0.0228347;stroke-linecap:butt;stroke-linejoin:miter;stroke:rgb(60%,60%,60%);stroke-opacity:0.8;stroke-miterlimit:10;" d="M 0.114173 -0.00000683348 C 0.114173 0.0630627 0.0630466 0.114167 -0.000000845531 0.114167 C -0.0630483 0.114167 -0.114175 0.0630627 -0.114175 -0.00000683348 C -0.114175 -0.0630543 -0.0630483 -0.114181 -0.000000845531 -0.114181 C 0.0630466 -0.114181 0.114173 -0.0630543 0.114173 -0.00000683348 Z M 0.114173 -0.00000683348 " transform="matrix(176.950125,0,0,176.950125,363.175931,399.067615)"/>
<path style="fill-rule:nonzero;fill:rgb(100%,92.941176%,43.529412%);fill-opacity:1;stroke-width:0.0228347;stroke-linecap:butt;stroke-linejoin:miter;stroke:rgb(60%,60%,60%);stroke-opacity:0.8;stroke-miterlimit:10;" d="M 0.114167 -0.000000699058 C 0.114167 0.0630467 0.0630628 0.114173 -0.00000665626 0.114173 C -0.0630541 0.114173 -0.114181 0.0630467 -0.114181 -0.000000699058 C -0.114181 -0.0630481 -0.0630541 -0.114175 -0.00000665626 -0.114175 C 0.0630628 -0.114175 0.114167 -0.0630481 0.114167 -0.000000699058 Z M 0.114167 -0.000000699058 " transform="matrix(176.950125,0,0,176.950125,284.07149,167.69153)"/>
<path style="fill-rule:nonzero;fill:rgb(100%,92.941176%,43.529412%);fill-opacity:1;stroke-width:0.0228347;stroke-linecap:butt;stroke-linejoin:miter;stroke:rgb(60%,60%,60%);stroke-opacity:0.8;stroke-miterlimit:10;" d="M 0.11417 -0.0000094728 C 0.11417 0.06306 0.0630655 0.114165 -0.00000396603 0.114165 C -0.0630514 0.114165 -0.114178 0.06306 -0.114178 -0.0000094728 C -0.114178 -0.0630569 -0.0630514 -0.114184 -0.00000396603 -0.114184 C 0.0630655 -0.114184 0.11417 -0.0630569 0.11417 -0.0000094728 Z M 0.11417 -0.0000094728 " transform="matrix(176.950125,0,0,176.950125,490.199921,119.446989)"/>
<path style="fill-rule:nonzero;fill:rgb(100%,92.941176%,43.529412%);fill-opacity:1;stroke-width:0.0228347;stroke-linecap:butt;stroke-linejoin:miter;stroke:rgb(60%,60%,60%);stroke-opacity:0.8;stroke-miterlimit:10;" d="M 0.114165 0.000000155165 C 0.114165 0.0630476 0.0630602 0.114174 -0.00000932365 0.114174 C -0.0630568 0.114174 -0.114183 0.0630476 -0.114183 0.000000155165 C -0.114183 -0.0630473 -0.0630568 -0.114174 -0.00000932365 -0.114174 C 0.0630602 -0.114174 0.114165 -0.0630473 0.114165 0.000000155165 Z M 0.114165 0.000000155165 " transform="matrix(176.950125,0,0,176.950125,330.177431,88.453098)"/>
<path style="fill-rule:nonzero;fill:rgb(55.294118%,82.745098%,78.039216%);fill-opacity:1;stroke-width:0.0228347;stroke-linecap:butt;stroke-linejoin:miter;stroke:rgb(60%,60%,60%);stroke-opacity:0.8;stroke-miterlimit:10;" d="M 0.114184 -0.000000155165 C 0.114184 0.0630473 0.0630569 0.114174 0.00000951929 0.114174 C -0.06306 0.114174 -0.114165 0.0630473 -0.114165 -0.000000155165 C -0.114165 -0.0630476 -0.06306 -0.114174 0.00000951929 -0.114174 C 0.0630569 -0.114174 0.114184 -0.0630476 0.114184 -0.000000155165 Z M 0.114184 -0.000000155165 " transform="matrix(176.950125,0,0,176.950125,136.908472,511.546902)"/>
<path style="fill-rule:nonzero;fill:rgb(55.294118%,82.745098%,78.039216%);fill-opacity:1;stroke-width:0.0228347;stroke-linecap:butt;stroke-linejoin:miter;stroke:rgb(60%,60%,60%);stroke-opacity:0.8;stroke-miterlimit:10;" d="M 0.114167 -0.00000172112 C 0.114167 0.0630457 0.0630624 0.114172 -0.00000714912 0.114172 C -0.0630546 0.114172 -0.114181 0.0630457 -0.114181 -0.00000172112 C -0.114181 -0.0630491 -0.0630546 -0.114176 -0.00000714912 -0.114176 C 0.0630624 -0.114176 0.114167 -0.0630491 0.114167 -0.00000172112 Z M 0.114167 -0.00000172112 " transform="matrix(176.950125,0,0,176.950125,116.48564,451.605773)"/>
<path style="fill-rule:nonzero;fill:rgb(55.294118%,82.745098%,78.039216%);fill-opacity:1;stroke-width:0.0228347;stroke-linecap:butt;stroke-linejoin:miter;stroke:rgb(60%,60%,60%);stroke-opacity:0.8;stroke-miterlimit:10;" d="M 0.114182 -0.00000397529 C 0.114182 0.0630655 0.0630554 0.11417 0.00000792428 0.11417 C -0.0630616 0.11417 -0.114166 0.0630655 -0.114166 -0.00000397529 C -0.114166 -0.0630514 -0.0630616 -0.114178 0.00000792428 -0.114178 C 0.0630554 -0.114178 0.114182 -0.0630514 0.114182 -0.00000397529 Z M 0.114182 -0.00000397529 " transform="matrix(176.950125,0,0,176.950125,103.459535,351.930391)"/>
<path style="fill-rule:nonzero;fill:rgb(55.294118%,82.745098%,78.039216%);fill-opacity:1;stroke-width:0.0228347;stroke-linecap:butt;stroke-linejoin:miter;stroke:rgb(60%,60%,60%);stroke-opacity:0.8;stroke-miterlimit:10;" d="M 0.11418 -0.00000651319 C 0.11418 0.063063 0.0630533 0.114168 0.00000585512 0.114168 C -0.0630636 0.114168 -0.114168 0.063063 -0.114168 -0.00000651319 C -0.114168 -0.0630539 -0.0630636 -0.114181 0.00000585512 -0.114181 C 0.0630533 -0.114181 0.11418 -0.0630539 0.11418 -0.00000651319 Z M 0.11418 -0.00000651319 " transform="matrix(176.950125,0,0,176.950125,41.870058,353.790215)"/>
<path style="fill-rule:nonzero;fill:rgb(100%,92.941176%,43.529412%);fill-opacity:1;stroke-width:0.0228347;stroke-linecap:butt;stroke-linejoin:miter;stroke:rgb(60%,60%,60%);stroke-opacity:0.8;stroke-miterlimit:10;" d="M 0.114178 -0.00000440548 C 0.114178 0.0630651 0.0630511 0.11417 0.00000371222 0.11417 C -0.0630658 0.11417 -0.11417 0.0630651 -0.11417 -0.00000440548 C -0.11417 -0.0630518 -0.0630658 -0.114179 0.00000371222 -0.114179 C 0.0630511 -0.114179 0.114178 -0.0630518 0.114178 -0.00000440548 Z M 0.114178 -0.00000440548 " transform="matrix(176.950125,0,0,176.950125,157.971999,94.098436)"/>
<path style="fill-rule:nonzero;fill:rgb(100%,92.941176%,43.529412%);fill-opacity:1;stroke-width:0.0228347;stroke-linecap:butt;stroke-linejoin:miter;stroke:rgb(60%,60%,60%);stroke-opacity:0.8;stroke-miterlimit:10;" d="M 0.114178 -0.00000521034 C 0.114178 0.0630643 0.0630511 0.114169 0.00000362896 0.114169 C -0.0630659 0.114169 -0.11417 0.0630643 -0.11417 -0.00000521034 C -0.11417 -0.0630526 -0.0630659 -0.114179 0.00000362896 -0.114179 C 0.0630511 -0.114179 0.114178 -0.0630526 0.114178 -0.00000521034 Z M 0.114178 -0.00000521034 " transform="matrix(176.950125,0,0,176.950125,192.878264,151.262641)"/>
<path style="fill-rule:nonzero;fill:rgb(100%,92.941176%,43.529412%);fill-opacity:1;stroke-width:0.0228347;stroke-linecap:butt;stroke-linejoin:miter;stroke:rgb(60%,60%,60%);stroke-opacity:0.8;stroke-miterlimit:10;" d="M 0.114173 -0.000010947 C 0.114173 0.0630586 0.0630459 0.114163 -0.00000147671 0.114163 C -0.0630489 0.114163 -0.114176 0.0630586 -0.114176 -0.000010947 C -0.114176 -0.0630584 -0.0630489 -0.114163 -0.00000147671 -0.114163 C 0.0630459 -0.114163 0.114173 -0.0630584 0.114173 -0.000010947 Z M 0.114173 -0.000010947 " transform="matrix(176.950125,0,0,176.950125,208.117449,110.830062)"/>
<path style="fill-rule:nonzero;fill:rgb(55.294118%,82.745098%,78.039216%);fill-opacity:1;stroke-width:0.0228347;stroke-linecap:butt;stroke-linejoin:miter;stroke:rgb(60%,60%,60%);stroke-opacity:0.8;stroke-miterlimit:10;" d="M 0.114177 -0.00000729065 C 0.114177 0.0630622 0.0630499 0.114167 0.00000243746 0.114167 C -0.0630671 0.114167 -0.114172 0.0630622 -0.114172 -0.00000729065 C -0.114172 -0.0630547 -0.0630671 -0.114181 0.00000243746 -0.114181 C 0.0630499 -0.114181 0.114177 -0.0630547 0.114177 -0.00000729065 Z M 0.114177 -0.00000729065 " transform="matrix(176.950125,0,0,176.950125,175.015194,235.298165)"/>
</g>
</svg>
