<?xml version="1.0" encoding="UTF-8"?>
<svg xmlns="http://www.w3.org/2000/svg" xmlns:xlink="http://www.w3.org/1999/xlink" width="600pt" height="600pt" viewBox="0 0 600 600" version="1.1">
<defs>
<clipPath id="clip1">
  <path d="M 325 218 L 561.628906 218 L 561.628906 376 L 325 376 Z M 325 218 "/>
</clipPath>
<clipPath id="clip2">
  <path d="M 324.703125 104.929688 L 561.628906 104.929688 L 561.628906 488.945312 L 324.703125 488.945312 Z M 324.703125 104.929688 L 404.605469 277.578125 C 404.605469 289.058594 395.300781 298.367188 383.816406 298.367188 C 372.335938 298.367188 363.027344 289.058594 363.027344 277.578125 C 363.027344 266.09375 372.335938 256.789062 383.816406 256.789062 C 395.300781 256.789062 404.605469 266.09375 404.605469 277.578125 Z M 324.703125 104.929688 "/>
</clipPath>
<clipPath id="clip3">
  <path d="M 324.703125 104.929688 L 561.628906 104.929688 L 561.628906 488.945312 L 324.703125 488.945312 Z M 324.703125 104.929688 L 523.300781 316.292969 C 523.300781 327.777344 513.992188 337.082031 502.511719 337.082031 C 491.027344 337.082031 481.722656 327.777344 481.722656 316.292969 C 481.722656 304.8125 491.027344 295.503906 502.511719 295.503906 C 513.992188 295.503906 523.300781 304.8125 523.300781 316.292969 Z M 324.703125 104.929688 "/>
</clipPath>
<clipPath id="clip4">
  <path d="M 356.882812 218 L 533.890625 218 L 533.890625 353 L 356.882812 353 Z M 356.882812 218 "/>
</clipPath>
<clipPath id="clip5">
  <path d="M 356.882812 97.664062 L 533.890625 97.664062 L 533.890625 473.453125 L 356.882812 473.453125 Z M 356.882812 97.664062 L 404.605469 277.578125 C 404.605469 289.058594 395.300781 298.367188 383.816406 298.367188 C 372.335938 298.367188 363.027344 289.058594 363.027344 277.578125 C 363.027344 266.09375 372.335938 256.789062 383.816406 256.789062 C 395.300781 256.789062 404.605469 266.09375 404.605469 277.578125 Z M 356.882812 97.664062 "/>
</clipPath>
<clipPath id="clip6">
  <path d="M 356.882812 97.664062 L 533.890625 97.664062 L 533.890625 473.453125 L 356.882812 473.453125 Z M 356.882812 97.664062 L 527.742188 293.535156 C 527.742188 305.015625 518.433594 314.324219 506.953125 314.324219 C 495.472656 314.324219 486.164062 305.015625 486.164062 293.535156 C 486.164062 282.054688 495.472656 272.746094 506.953125 272.746094 C 518.433594 272.746094 527.742188 282.054688 527.742188 293.535156 Z M 356.882812 97.664062 "/>
</clipPath>
<clipPath id="clip7">
  <path d="M 193 218 L 443 218 L 443 401 L 193 401 Z M 193 218 "/>
</clipPath>
<clipPath id="clip8">
  <path d="M 170.089844 114.113281 L 465.632812 114.113281 L 465.632812 505.347656 L 170.089844 505.347656 Z M 170.089844 114.113281 L 404.605469 277.578125 C 404.605469 289.058594 395.300781 298.367188 383.816406 298.367188 C 372.335938 298.367188 363.027344 289.058594 363.027344 277.578125 C 363.027344 266.09375 372.335938 256.789062 383.816406 256.789062 C 395.300781 256.789062 404.605469 266.09375 404.605469 277.578125 Z M 170.089844 114.113281 "/>
</clipPath>
<clipPath id="clip9">
  <path d="M 170.089844 114.113281 L 465.632812 114.113281 L 465.632812 505.347656 L 170.089844 505.347656 Z M 170.089844 114.113281 L 272.691406 341.878906 C 272.691406 353.359375 263.382812 362.667969 251.902344 362.667969 C 240.421875 362.667969 231.113281 353.359375 231.113281 341.878906 C 231.113281 330.398438 240.421875 321.089844 251.902344 321.089844 C 263.382812 321.089844 272.691406 330.398438 272.691406 341.878906 Z M 170.089844 114.113281 "/>
</clipPath>
<clipPath id="clip10">
  <path d="M 239 182 L 443 182 L 443 337 L 239 337 Z M 239 182 "/>
</clipPath>
<clipPath id="clip11">
  <path d="M 224.507812 73.800781 L 457.152344 73.800781 L 457.152344 444.910156 L 224.507812 444.910156 Z M 224.507812 73.800781 L 404.605469 277.578125 C 404.605469 289.058594 395.300781 298.367188 383.816406 298.367188 C 372.335938 298.367188 363.027344 289.058594 363.027344 277.578125 C 363.027344 266.09375 372.335938 256.789062 383.816406 256.789062 C 395.300781 256.789062 404.605469 266.09375 404.605469 277.578125 Z M 224.507812 73.800781 "/>
</clipPath>
<clipPath id="clip12">
  <path d="M 224.507812 73.800781 L 457.152344 73.800781 L 457.152344 444.910156 L 224.507812 444.910156 Z M 224.507812 73.800781 L 318.628906 241.128906 C 318.628906 252.609375 309.320312 261.917969 297.839844 261.917969 C 286.359375 261.917969 277.050781 252.609375 277.050781 241.128906 C 277.050781 229.648438 286.359375 220.339844 297.839844 220.339844 C 309.320312 220.339844 318.628906 229.648438 318.628906 241.128906 Z M 224.507812 73.800781 "/>
</clipPath>
<clipPath id="clip13">
  <path d="M 281 218 L 443 218 L 443 410 L 281 410 Z M 281 218 "/>
</clipPath>
<clipPath id="clip14">
  <path d="M 183.792969 183.023438 L 540.414062 183.023438 L 540.414062 445.371094 L 183.792969 445.371094 Z M 183.792969 183.023438 L 404.605469 277.578125 C 404.605469 289.058594 395.300781 298.367188 383.816406 298.367188 C 372.335938 298.367188 363.027344 289.058594 363.027344 277.578125 C 363.027344 266.09375 372.335938 256.789062 383.816406 256.789062 C 395.300781 256.789062 404.605469 266.09375 404.605469 277.578125 Z M 183.792969 183.023438 "/>
</clipPath>
<clipPath id="clip15">
  <path d="M 183.792969 183.023438 L 540.414062 183.023438 L 540.414062 445.371094 L 183.792969 445.371094 Z M 183.792969 183.023438 L 361.171875 350.8125 C 361.171875 362.292969 351.867188 371.601562 340.386719 371.601562 C 328.902344 371.601562 319.597656 362.292969 319.597656 350.8125 C 319.597656 339.332031 328.902344 330.023438 340.386719 330.023438 C 351.867188 330.023438 361.171875 339.332031 361.171875 350.8125 Z M 183.792969 183.023438 "/>
</clipPath>
<clipPath id="clip16">
  <path d="M 277 69.367188 L 443 69.367188 L 443 335.515625 L 277 335.515625 Z M 277 69.367188 "/>
</clipPath>
<clipPath id="clip17">
  <path d="M 162.933594 69.367188 L 556.847656 69.367188 L 556.847656 335.515625 L 162.933594 335.515625 Z M 162.933594 69.367188 L 404.605469 277.578125 C 404.605469 289.058594 395.300781 298.367188 383.816406 298.367188 C 372.335938 298.367188 363.027344 289.058594 363.027344 277.578125 C 363.027344 266.09375 372.335938 256.789062 383.816406 256.789062 C 395.300781 256.789062 404.605469 266.09375 404.605469 277.578125 Z M 162.933594 69.367188 "/>
</clipPath>
<clipPath id="clip18">
  <path d="M 162.933594 69.367188 L 556.847656 69.367188 L 556.847656 335.515625 L 162.933594 335.515625 Z M 162.933594 69.367188 L 356.75 127.300781 C 356.75 138.78125 347.441406 148.089844 335.960938 148.089844 C 324.476562 148.089844 315.171875 138.78125 315.171875 127.300781 C 315.171875 115.820312 324.476562 106.511719 335.960938 106.511719 C 347.441406 106.511719 356.75 115.820312 356.75 127.300781 Z M 162.933594 69.367188 "/>
</clipPath>
<clipPath id="clip19">
  <path d="M 486.691406 257 L 573.175781 257 L 573.175781 379 L 486.691406 379 Z M 486.691406 257 "/>
</clipPath>
<clipPath id="clip20">
  <path d="M 486.691406 135.292969 L 573.175781 135.292969 L 573.175781 500.914062 L 486.691406 500.914062 Z M 486.691406 135.292969 L 523.300781 316.292969 C 523.300781 327.777344 513.992188 337.082031 502.511719 337.082031 C 491.027344 337.082031 481.722656 327.777344 481.722656 316.292969 C 481.722656 304.8125 491.027344 295.503906 502.511719 295.503906 C 513.992188 295.503906 523.300781 304.8125 523.300781 316.292969 Z M 486.691406 135.292969 "/>
</clipPath>
<clipPath id="clip21">
  <path d="M 486.691406 135.292969 L 573.175781 135.292969 L 573.175781 500.914062 L 486.691406 500.914062 Z M 486.691406 135.292969 L 578.140625 319.910156 C 578.140625 331.390625 568.832031 340.699219 557.351562 340.699219 C 545.871094 340.699219 536.5625 331.390625 536.5625 319.910156 C 536.5625 308.429688 545.871094 299.121094 557.351562 299.121094 C 568.832031 299.121094 578.140625 308.429688 578.140625 319.910156 Z M 486.691406 135.292969 "/>
</clipPath>
<clipPath id="clip22">
  <path d="M 443 255.429688 L 566 255.429688 L 566 354.402344 L 443 354.402344 Z M 443 255.429688 "/>
</clipPath>
<clipPath id="clip23">
  <path d="M 324.410156 255.429688 L 685.058594 255.429688 L 685.058594 354.402344 L 324.410156 354.402344 Z M 324.410156 255.429688 L 523.300781 316.292969 C 523.300781 327.777344 513.992188 337.082031 502.511719 337.082031 C 491.027344 337.082031 481.722656 327.777344 481.722656 316.292969 C 481.722656 304.8125 491.027344 295.503906 502.511719 295.503906 C 513.992188 295.503906 523.300781 304.8125 523.300781 316.292969 Z M 324.410156 255.429688 "/>
</clipPath>
<clipPath id="clip24">
  <path d="M 324.410156 255.429688 L 685.058594 255.429688 L 685.058594 354.402344 L 324.410156 354.402344 Z M 324.410156 255.429688 L 527.742188 293.535156 C 527.742188 305.015625 518.433594 314.324219 506.953125 314.324219 C 495.472656 314.324219 486.164062 305.015625 486.164062 293.535156 C 486.164062 282.054688 495.472656 272.746094 506.953125 272.746094 C 518.433594 272.746094 527.742188 282.054688 527.742188 293.535156 Z M 324.410156 255.429688 "/>
</clipPath>
<clipPath id="clip25">
  <path d="M 448 234 L 600 234 L 600 379 L 448 379 Z M 448 234 "/>
</clipPath>
<clipPath id="clip26">
  <path d="M 420.621094 132.355469 L 643.6875 132.355469 L 643.6875 481.09375 L 420.621094 481.09375 Z M 420.621094 132.355469 L 578.140625 319.910156 C 578.140625 331.390625 568.832031 340.699219 557.351562 340.699219 C 545.871094 340.699219 536.5625 331.390625 536.5625 319.910156 C 536.5625 308.429688 545.871094 299.121094 557.351562 299.121094 C 568.832031 299.121094 578.140625 308.429688 578.140625 319.910156 Z M 420.621094 132.355469 "/>
</clipPath>
<clipPath id="clip27">
  <path d="M 420.621094 132.355469 L 643.6875 132.355469 L 643.6875 481.09375 L 420.621094 481.09375 Z M 420.621094 132.355469 L 527.742188 293.535156 C 527.742188 305.015625 518.433594 314.324219 506.953125 314.324219 C 495.472656 314.324219 486.164062 305.015625 486.164062 293.535156 C 486.164062 282.054688 495.472656 272.746094 506.953125 272.746094 C 518.433594 272.746094 527.742188 282.054688 527.742188 293.535156 Z M 420.621094 132.355469 "/>
</clipPath>
<clipPath id="clip28">
  <path d="M 193 310.457031 L 333 310.457031 L 333 515.902344 L 193 515.902344 Z M 193 310.457031 "/>
</clipPath>
<clipPath id="clip29">
  <path d="M 72.628906 310.457031 L 453.382812 310.457031 L 453.382812 515.902344 L 72.628906 515.902344 Z M 72.628906 310.457031 L 294.894531 484.476562 C 294.894531 495.957031 285.589844 505.261719 274.105469 505.261719 C 262.625 505.261719 253.320312 495.957031 253.320312 484.476562 C 253.320312 472.992188 262.625 463.6875 274.105469 463.6875 C 285.589844 463.6875 294.894531 472.992188 294.894531 484.476562 Z M 72.628906 310.457031 "/>
</clipPath>
<clipPath id="clip30">
  <path d="M 72.628906 310.457031 L 453.382812 310.457031 L 453.382812 515.902344 L 72.628906 515.902344 Z M 72.628906 310.457031 L 272.691406 341.878906 C 272.691406 353.359375 263.382812 362.667969 251.902344 362.667969 C 240.421875 362.667969 231.113281 353.359375 231.113281 341.878906 C 231.113281 330.398438 240.421875 321.089844 251.902344 321.089844 C 263.382812 321.089844 272.691406 330.398438 272.691406 341.878906 Z M 72.628906 310.457031 "/>
</clipPath>
<clipPath id="clip31">
  <path d="M 215 425 L 356 425 L 356 600 L 215 600 Z M 215 425 "/>
</clipPath>
<clipPath id="clip32">
  <path d="M 102.476562 422.328125 L 468.496094 422.328125 L 468.496094 612.351562 L 102.476562 612.351562 Z M 102.476562 422.328125 L 294.894531 484.476562 C 294.894531 495.957031 285.589844 505.261719 274.105469 505.261719 C 262.625 505.261719 253.320312 495.957031 253.320312 484.476562 C 253.320312 472.992188 262.625 463.6875 274.105469 463.6875 C 285.589844 463.6875 294.894531 472.992188 294.894531 484.476562 Z M 102.476562 422.328125 "/>
</clipPath>
<clipPath id="clip33">
  <path d="M 102.476562 422.328125 L 468.496094 422.328125 L 468.496094 612.351562 L 102.476562 612.351562 Z M 102.476562 422.328125 L 317.652344 550.199219 C 317.652344 561.683594 308.34375 570.988281 296.863281 570.988281 C 285.382812 570.988281 276.074219 561.683594 276.074219 550.199219 C 276.074219 538.71875 285.382812 529.414062 296.863281 529.414062 C 308.34375 529.414062 317.652344 538.71875 317.652344 550.199219 Z M 102.476562 422.328125 "/>
</clipPath>
<clipPath id="clip34">
  <path d="M 174 220.304688 L 311 220.304688 L 311 390.558594 L 174 390.558594 Z M 174 220.304688 "/>
</clipPath>
<clipPath id="clip35">
  <path d="M 57.28125 220.304688 L 427.609375 220.304688 L 427.609375 390.558594 L 57.28125 390.558594 Z M 57.28125 220.304688 L 272.691406 341.878906 C 272.691406 353.359375 263.382812 362.667969 251.902344 362.667969 C 240.421875 362.667969 231.113281 353.359375 231.113281 341.878906 C 231.113281 330.398438 240.421875 321.089844 251.902344 321.089844 C 263.382812 321.089844 272.691406 330.398438 272.691406 341.878906 Z M 57.28125 220.304688 "/>
</clipPath>
<clipPath id="clip36">
  <path d="M 57.28125 220.304688 L 427.609375 220.304688 L 427.609375 390.558594 L 57.28125 390.558594 Z M 57.28125 220.304688 L 253.773438 268.980469 C 253.773438 280.460938 244.464844 289.765625 232.984375 289.765625 C 221.503906 289.765625 212.195312 280.460938 212.195312 268.980469 C 212.195312 257.496094 221.503906 248.191406 232.984375 248.191406 C 244.464844 248.191406 253.773438 257.496094 253.773438 268.980469 Z M 57.28125 220.304688 "/>
</clipPath>
<clipPath id="clip37">
  <path d="M 193 182 L 357 182 L 357 401 L 193 401 Z M 193 182 "/>
</clipPath>
<clipPath id="clip38">
  <path d="M 86.488281 163.445312 L 463.257812 163.445312 L 463.257812 419.566406 L 86.488281 419.566406 Z M 86.488281 163.445312 L 272.691406 341.878906 C 272.691406 353.359375 263.382812 362.667969 251.902344 362.667969 C 240.421875 362.667969 231.113281 353.359375 231.113281 341.878906 C 231.113281 330.398438 240.421875 321.089844 251.902344 321.089844 C 263.382812 321.089844 272.691406 330.398438 272.691406 341.878906 Z M 86.488281 163.445312 "/>
</clipPath>
<clipPath id="clip39">
  <path d="M 86.488281 163.445312 L 463.257812 163.445312 L 463.257812 419.566406 L 86.488281 419.566406 Z M 86.488281 163.445312 L 318.628906 241.128906 C 318.628906 252.609375 309.320312 261.917969 297.839844 261.917969 C 286.359375 261.917969 277.050781 252.609375 277.050781 241.128906 C 277.050781 229.648438 286.359375 220.339844 297.839844 220.339844 C 309.320312 220.339844 318.628906 229.648438 318.628906 241.128906 Z M 86.488281 163.445312 "/>
</clipPath>
<clipPath id="clip40">
  <path d="M 229.941406 283 L 362.351562 283 L 362.351562 410 L 229.941406 410 Z M 229.941406 283 "/>
</clipPath>
<clipPath id="clip41">
  <path d="M 229.941406 161.390625 L 362.351562 161.390625 L 362.351562 531.304688 L 229.941406 531.304688 Z M 229.941406 161.390625 L 272.691406 341.878906 C 272.691406 353.359375 263.382812 362.667969 251.902344 362.667969 C 240.421875 362.667969 231.113281 353.359375 231.113281 341.878906 C 231.113281 330.398438 240.421875 321.089844 251.902344 321.089844 C 263.382812 321.089844 272.691406 330.398438 272.691406 341.878906 Z M 229.941406 161.390625 "/>
</clipPath>
<clipPath id="clip42">
  <path d="M 229.941406 161.390625 L 362.351562 161.390625 L 362.351562 531.304688 L 229.941406 531.304688 Z M 229.941406 161.390625 L 361.171875 350.8125 C 361.171875 362.292969 351.867188 371.601562 340.386719 371.601562 C 328.902344 371.601562 319.597656 362.292969 319.597656 350.8125 C 319.597656 339.332031 328.902344 330.023438 340.386719 330.023438 C 351.867188 330.023438 361.171875 339.332031 361.171875 350.8125 Z M 229.941406 161.390625 "/>
</clipPath>
<clipPath id="clip43">
  <path d="M 94.792969 283 L 308.902344 283 L 308.902344 432 L 94.792969 432 Z M 94.792969 283 "/>
</clipPath>
<clipPath id="clip44">
  <path d="M 94.792969 168.554688 L 308.902344 168.554688 L 308.902344 546.476562 L 94.792969 546.476562 Z M 94.792969 168.554688 L 272.691406 341.878906 C 272.691406 353.359375 263.382812 362.667969 251.902344 362.667969 C 240.421875 362.667969 231.113281 353.359375 231.113281 341.878906 C 231.113281 330.398438 240.421875 321.089844 251.902344 321.089844 C 263.382812 321.089844 272.691406 330.398438 272.691406 341.878906 Z M 94.792969 168.554688 "/>
</clipPath>
<clipPath id="clip45">
  <path d="M 94.792969 168.554688 L 308.902344 168.554688 L 308.902344 546.476562 L 94.792969 546.476562 Z M 94.792969 168.554688 L 172.578125 373.148438 C 172.578125 384.628906 163.269531 393.9375 151.789062 393.9375 C 140.304688 393.9375 131 384.628906 131 373.148438 C 131 361.664062 140.304688 352.359375 151.789062 352.359375 C 163.269531 352.359375 172.578125 361.664062 172.578125 373.148438 Z M 94.792969 168.554688 "/>
</clipPath>
<clipPath id="clip46">
  <path d="M 111.472656 282 L 257.324219 282 L 257.324219 401 L 111.472656 401 Z M 111.472656 282 "/>
</clipPath>
<clipPath id="clip47">
  <path d="M 111.472656 159.539062 L 257.324219 159.539062 L 257.324219 523.261719 L 111.472656 523.261719 Z M 111.472656 159.539062 L 272.691406 341.878906 C 272.691406 353.359375 263.382812 362.667969 251.902344 362.667969 C 240.421875 362.667969 231.113281 353.359375 231.113281 341.878906 C 231.113281 330.398438 240.421875 321.089844 251.902344 321.089844 C 263.382812 321.089844 272.691406 330.398438 272.691406 341.878906 Z M 111.472656 159.539062 "/>
</clipPath>
<clipPath id="clip48">
  <path d="M 111.472656 159.539062 L 257.324219 159.539062 L 257.324219 523.261719 L 111.472656 523.261719 Z M 111.472656 159.539062 L 137.679688 340.917969 C 137.679688 352.398438 128.371094 361.707031 116.890625 361.707031 C 105.40625 361.707031 96.101562 352.398438 96.101562 340.917969 C 96.101562 329.4375 105.40625 320.128906 116.890625 320.128906 C 128.371094 320.128906 137.679688 329.4375 137.679688 340.917969 Z M 111.472656 159.539062 "/>
</clipPath>
<clipPath id="clip49">
  <path d="M 174 182 L 357 182 L 357 328 L 174 328 Z M 174 182 "/>
</clipPath>
<clipPath id="clip50">
  <path d="M 158.894531 74.125 L 371.933594 74.125 L 371.933594 435.988281 L 158.894531 435.988281 Z M 158.894531 74.125 L 253.773438 268.980469 C 253.773438 280.460938 244.464844 289.765625 232.984375 289.765625 C 221.503906 289.765625 212.195312 280.460938 212.195312 268.980469 C 212.195312 257.496094 221.503906 248.191406 232.984375 248.191406 C 244.464844 248.191406 253.773438 257.496094 253.773438 268.980469 Z M 158.894531 74.125 "/>
</clipPath>
<clipPath id="clip51">
  <path d="M 158.894531 74.125 L 371.933594 74.125 L 371.933594 435.988281 L 158.894531 435.988281 Z M 158.894531 74.125 L 318.628906 241.128906 C 318.628906 252.609375 309.320312 261.917969 297.839844 261.917969 C 286.359375 261.917969 277.050781 252.609375 277.050781 241.128906 C 277.050781 229.648438 286.359375 220.339844 297.839844 220.339844 C 309.320312 220.339844 318.628906 229.648438 318.628906 241.128906 Z M 158.894531 74.125 "/>
</clipPath>
<clipPath id="clip52">
  <path d="M 239 68 L 395 68 L 395 300 L 239 300 Z M 239 68 "/>
</clipPath>
<clipPath id="clip53">
  <path d="M 125.628906 66.863281 L 508.175781 66.863281 L 508.175781 301.570312 L 125.628906 301.570312 Z M 125.628906 66.863281 L 318.628906 241.128906 C 318.628906 252.609375 309.320312 261.917969 297.839844 261.917969 C 286.359375 261.917969 277.050781 252.609375 277.050781 241.128906 C 277.050781 229.648438 286.359375 220.339844 297.839844 220.339844 C 309.320312 220.339844 318.628906 229.648438 318.628906 241.128906 Z M 125.628906 66.863281 "/>
</clipPath>
<clipPath id="clip54">
  <path d="M 125.628906 66.863281 L 508.175781 66.863281 L 508.175781 301.570312 L 125.628906 301.570312 Z M 125.628906 66.863281 L 356.75 127.300781 C 356.75 138.78125 347.441406 148.089844 335.960938 148.089844 C 324.476562 148.089844 315.171875 138.78125 315.171875 127.300781 C 315.171875 115.820312 324.476562 106.511719 335.960938 106.511719 C 347.441406 106.511719 356.75 115.820312 356.75 127.300781 Z M 125.628906 66.863281 "/>
</clipPath>
<clipPath id="clip55">
  <path d="M 277 0 L 429 0 L 429 187 L 277 187 Z M 277 0 "/>
</clipPath>
<clipPath id="clip56">
  <path d="M 170.460938 -23.789062 L 534.917969 -23.789062 L 534.917969 204.796875 L 170.460938 204.796875 Z M 170.460938 -23.789062 L 356.75 127.300781 C 356.75 138.78125 347.441406 148.089844 335.960938 148.089844 C 324.476562 148.089844 315.171875 138.78125 315.171875 127.300781 C 315.171875 115.820312 324.476562 106.511719 335.960938 106.511719 C 347.441406 106.511719 356.75 115.820312 356.75 127.300781 Z M 170.460938 -23.789062 "/>
</clipPath>
<clipPath id="clip57">
  <path d="M 170.460938 -23.789062 L 534.917969 -23.789062 L 534.917969 204.796875 L 170.460938 204.796875 Z M 170.460938 -23.789062 L 390.199219 53.703125 C 390.199219 65.183594 380.894531 74.492188 369.414062 74.492188 C 357.929688 74.492188 348.625 65.183594 348.625 53.703125 C 348.625 42.222656 357.929688 32.914062 369.414062 32.914062 C 380.894531 32.914062 390.199219 42.222656 390.199219 53.703125 Z M 170.460938 -23.789062 "/>
</clipPath>
<clipPath id="clip58">
  <path d="M 270 29.914062 L 395 29.914062 L 395 147.191406 L 270 147.191406 Z M 270 29.914062 "/>
</clipPath>
<clipPath id="clip59">
  <path d="M 148.371094 29.914062 L 516.648438 29.914062 L 516.648438 147.191406 L 148.371094 147.191406 Z M 148.371094 29.914062 L 356.75 127.300781 C 356.75 138.78125 347.441406 148.089844 335.960938 148.089844 C 324.476562 148.089844 315.171875 138.78125 315.171875 127.300781 C 315.171875 115.820312 324.476562 106.511719 335.960938 106.511719 C 347.441406 106.511719 356.75 115.820312 356.75 127.300781 Z M 148.371094 29.914062 "/>
</clipPath>
<clipPath id="clip60">
  <path d="M 148.371094 29.914062 L 516.648438 29.914062 L 516.648438 147.191406 L 148.371094 147.191406 Z M 148.371094 29.914062 L 349.84375 49.800781 C 349.84375 61.28125 340.535156 70.585938 329.054688 70.585938 C 317.574219 70.585938 308.265625 61.28125 308.265625 49.800781 C 308.265625 38.316406 317.574219 29.011719 329.054688 29.011719 C 340.535156 29.011719 349.84375 38.316406 349.84375 49.800781 Z M 148.371094 29.914062 "/>
</clipPath>
<clipPath id="clip61">
  <path d="M 230 0 L 395 0 L 395 187 L 230 187 Z M 230 0 "/>
</clipPath>
<clipPath id="clip62">
  <path d="M 134.175781 -45.890625 L 490.863281 -45.890625 L 490.863281 224.660156 L 134.175781 224.660156 Z M 134.175781 -45.890625 L 356.75 127.300781 C 356.75 138.78125 347.441406 148.089844 335.960938 148.089844 C 324.476562 148.089844 315.171875 138.78125 315.171875 127.300781 C 315.171875 115.820312 324.476562 106.511719 335.960938 106.511719 C 347.441406 106.511719 356.75 115.820312 356.75 127.300781 Z M 134.175781 -45.890625 "/>
</clipPath>
<clipPath id="clip63">
  <path d="M 134.175781 -45.890625 L 490.863281 -45.890625 L 490.863281 224.660156 L 134.175781 224.660156 Z M 134.175781 -45.890625 L 309.863281 51.464844 C 309.863281 62.949219 300.554688 72.253906 289.074219 72.253906 C 277.59375 72.253906 268.285156 62.949219 268.285156 51.464844 C 268.285156 39.984375 277.59375 30.679688 289.074219 30.679688 C 300.554688 30.679688 309.863281 39.984375 309.863281 51.464844 Z M 134.175781 -45.890625 "/>
</clipPath>
<clipPath id="clip64">
  <path d="M 307.84375 0 L 390.628906 0 L 390.628906 113 L 307.84375 113 Z M 307.84375 0 "/>
</clipPath>
<clipPath id="clip65">
  <path d="M 307.84375 -130.761719 L 390.628906 -130.761719 L 390.628906 234.269531 L 307.84375 234.269531 Z M 307.84375 -130.761719 L 390.199219 53.703125 C 390.199219 65.183594 380.894531 74.492188 369.414062 74.492188 C 357.929688 74.492188 348.625 65.183594 348.625 53.703125 C 348.625 42.222656 357.929688 32.914062 369.414062 32.914062 C 380.894531 32.914062 390.199219 42.222656 390.199219 53.703125 Z M 307.84375 -130.761719 "/>
</clipPath>
<clipPath id="clip66">
  <path d="M 307.84375 -130.761719 L 390.628906 -130.761719 L 390.628906 234.269531 L 307.84375 234.269531 Z M 307.84375 -130.761719 L 349.84375 49.800781 C 349.84375 61.28125 340.535156 70.585938 329.054688 70.585938 C 317.574219 70.585938 308.265625 61.28125 308.265625 49.800781 C 308.265625 38.316406 317.574219 29.011719 329.054688 29.011719 C 340.535156 29.011719 349.84375 38.316406 349.84375 49.800781 Z M 307.84375 -130.761719 "/>
</clipPath>
<clipPath id="clip67">
  <path d="M 277.546875 0 L 340.585938 0 L 340.585938 111 L 277.546875 111 Z M 277.546875 0 "/>
</clipPath>
<clipPath id="clip68">
  <path d="M 277.546875 -131.429688 L 340.585938 -131.429688 L 340.585938 232.699219 L 277.546875 232.699219 Z M 277.546875 -131.429688 L 349.84375 49.800781 C 349.84375 61.28125 340.535156 70.585938 329.054688 70.585938 C 317.574219 70.585938 308.265625 61.28125 308.265625 49.800781 C 308.265625 38.316406 317.574219 29.011719 329.054688 29.011719 C 340.535156 29.011719 349.84375 38.316406 349.84375 49.800781 Z M 277.546875 -131.429688 "/>
</clipPath>
<clipPath id="clip69">
  <path d="M 277.546875 -131.429688 L 340.585938 -131.429688 L 340.585938 232.699219 L 277.546875 232.699219 Z M 277.546875 -131.429688 L 309.863281 51.464844 C 309.863281 62.949219 300.554688 72.253906 289.074219 72.253906 C 277.59375 72.253906 268.285156 62.949219 268.285156 51.464844 C 268.285156 39.984375 277.59375 30.679688 289.074219 30.679688 C 300.554688 30.679688 309.863281 39.984375 309.863281 51.464844 Z M 277.546875 -131.429688 "/>
</clipPath>
<clipPath id="clip70">
  <path d="M 58 282 L 211 282 L 211 432 L 58 432 Z M 58 282 "/>
</clipPath>
<clipPath id="clip71">
  <path d="M -7.507812 206.566406 L 276.191406 206.566406 L 276.191406 507.503906 L -7.507812 507.503906 Z M -7.507812 206.566406 L 172.578125 373.148438 C 172.578125 384.628906 163.269531 393.9375 151.789062 393.9375 C 140.304688 393.9375 131 384.628906 131 373.148438 C 131 361.664062 140.304688 352.359375 151.789062 352.359375 C 163.269531 352.359375 172.578125 361.664062 172.578125 373.148438 Z M -7.507812 206.566406 "/>
</clipPath>
<clipPath id="clip72">
  <path d="M -7.507812 206.566406 L 276.191406 206.566406 L 276.191406 507.503906 L -7.507812 507.503906 Z M -7.507812 206.566406 L 137.679688 340.917969 C 137.679688 352.398438 128.371094 361.707031 116.890625 361.707031 C 105.40625 361.707031 96.101562 352.398438 96.101562 340.917969 C 96.101562 329.4375 105.40625 320.128906 116.890625 320.128906 C 128.371094 320.128906 137.679688 329.4375 137.679688 340.917969 Z M -7.507812 206.566406 "/>
</clipPath>
<clipPath id="clip73">
  <path d="M 0 250 L 176 250 L 176 400 L 0 400 Z M 0 250 "/>
</clipPath>
<clipPath id="clip74">
  <path d="M -30.605469 142.125 L 190.148438 142.125 L 190.148438 508.28125 L -30.605469 508.28125 Z M -30.605469 142.125 L 137.679688 340.917969 C 137.679688 352.398438 128.371094 361.707031 116.890625 361.707031 C 105.40625 361.707031 96.101562 352.398438 96.101562 340.917969 C 96.101562 329.4375 105.40625 320.128906 116.890625 320.128906 C 128.371094 320.128906 137.679688 329.4375 137.679688 340.917969 Z M -30.605469 142.125 "/>
</clipPath>
<clipPath id="clip75">
  <path d="M -30.605469 142.125 L 190.148438 142.125 L 190.148438 508.28125 L -30.605469 508.28125 Z M -30.605469 142.125 L 63.4375 309.484375 C 63.4375 320.964844 54.128906 330.273438 42.648438 330.273438 C 31.167969 330.273438 21.859375 320.964844 21.859375 309.484375 C 21.859375 298.003906 31.167969 288.695312 42.648438 288.695312 C 54.128906 288.695312 63.4375 298.003906 63.4375 309.484375 Z M -30.605469 142.125 "/>
</clipPath>
</defs>
<g id="surface406">
<g clip-path="url(#clip1)" clip-rule="nonzero">
<g clip-path="url(#clip2)" clip-rule="evenodd">
<g clip-path="url(#clip3)" clip-rule="evenodd">
<path style="fill:none;stroke-width:0.0234599;stroke-linecap:butt;stroke-linejoin:miter;stroke:rgb(17.96875%,20.3125%,21.09375%);stroke-opacity:0.8;stroke-miterlimit:10;" d="M 2.87534 2.824523 L 3.545072 3.04297 " transform="matrix(177.228109,0,0,177.228109,-125.774642,-223.00678)"/>
</g>
</g>
</g>
<g clip-path="url(#clip4)" clip-rule="nonzero">
<g clip-path="url(#clip5)" clip-rule="evenodd">
<g clip-path="url(#clip6)" clip-rule="evenodd">
<path style="fill:none;stroke-width:0.0234599;stroke-linecap:butt;stroke-linejoin:miter;stroke:rgb(17.96875%,20.3125%,21.09375%);stroke-opacity:0.8;stroke-miterlimit:10;" d="M 2.87534 2.824523 L 3.570132 2.91456 " transform="matrix(177.228109,0,0,177.228109,-125.774642,-223.00678)"/>
</g>
</g>
</g>
<g clip-path="url(#clip7)" clip-rule="nonzero">
<g clip-path="url(#clip8)" clip-rule="evenodd">
<g clip-path="url(#clip9)" clip-rule="evenodd">
<path style="fill:none;stroke-width:0.0234599;stroke-linecap:butt;stroke-linejoin:miter;stroke:rgb(17.96875%,20.3125%,21.09375%);stroke-opacity:0.8;stroke-miterlimit:10;" d="M 2.87534 2.824523 L 2.131022 3.187337 " transform="matrix(177.228109,0,0,177.228109,-125.774642,-223.00678)"/>
</g>
</g>
</g>
<g clip-path="url(#clip10)" clip-rule="nonzero">
<g clip-path="url(#clip11)" clip-rule="evenodd">
<g clip-path="url(#clip12)" clip-rule="evenodd">
<path style="fill:none;stroke-width:0.0234599;stroke-linecap:butt;stroke-linejoin:miter;stroke:rgb(17.96875%,20.3125%,21.09375%);stroke-opacity:0.8;stroke-miterlimit:10;" d="M 2.87534 2.824523 L 2.390222 2.61886 " transform="matrix(177.228109,0,0,177.228109,-125.774642,-223.00678)"/>
</g>
</g>
</g>
<g clip-path="url(#clip13)" clip-rule="nonzero">
<g clip-path="url(#clip14)" clip-rule="evenodd">
<g clip-path="url(#clip15)" clip-rule="evenodd">
<path style="fill:none;stroke-width:0.0234599;stroke-linecap:butt;stroke-linejoin:miter;stroke:rgb(17.96875%,20.3125%,21.09375%);stroke-opacity:0.8;stroke-miterlimit:10;" d="M 2.87534 2.824523 L 2.63029 3.237744 " transform="matrix(177.228109,0,0,177.228109,-125.774642,-223.00678)"/>
</g>
</g>
</g>
<g clip-path="url(#clip16)" clip-rule="nonzero">
<g clip-path="url(#clip17)" clip-rule="evenodd">
<g clip-path="url(#clip18)" clip-rule="evenodd">
<path style="fill:none;stroke-width:0.0234599;stroke-linecap:butt;stroke-linejoin:miter;stroke:rgb(17.96875%,20.3125%,21.09375%);stroke-opacity:0.8;stroke-miterlimit:10;" d="M 2.87534 2.824523 L 2.605318 1.976591 " transform="matrix(177.228109,0,0,177.228109,-125.774642,-223.00678)"/>
</g>
</g>
</g>
<g clip-path="url(#clip19)" clip-rule="nonzero">
<g clip-path="url(#clip20)" clip-rule="evenodd">
<g clip-path="url(#clip21)" clip-rule="evenodd">
<path style="fill:none;stroke-width:0.0234599;stroke-linecap:butt;stroke-linejoin:miter;stroke:rgb(17.96875%,20.3125%,21.09375%);stroke-opacity:0.8;stroke-miterlimit:10;" d="M 3.545072 3.04297 L 3.854503 3.063379 " transform="matrix(177.228109,0,0,177.228109,-125.774642,-223.00678)"/>
</g>
</g>
</g>
<g clip-path="url(#clip22)" clip-rule="nonzero">
<g clip-path="url(#clip23)" clip-rule="evenodd">
<g clip-path="url(#clip24)" clip-rule="evenodd">
<path style="fill:none;stroke-width:0.0234599;stroke-linecap:butt;stroke-linejoin:miter;stroke:rgb(17.96875%,20.3125%,21.09375%);stroke-opacity:0.8;stroke-miterlimit:10;" d="M 3.545072 3.04297 L 3.570132 2.91456 " transform="matrix(177.228109,0,0,177.228109,-125.774642,-223.00678)"/>
</g>
</g>
</g>
<g clip-path="url(#clip25)" clip-rule="nonzero">
<g clip-path="url(#clip26)" clip-rule="evenodd">
<g clip-path="url(#clip27)" clip-rule="evenodd">
<path style="fill:none;stroke-width:0.0234599;stroke-linecap:butt;stroke-linejoin:miter;stroke:rgb(17.96875%,20.3125%,21.09375%);stroke-opacity:0.8;stroke-miterlimit:10;" d="M 3.854503 3.063379 L 3.570132 2.91456 " transform="matrix(177.228109,0,0,177.228109,-125.774642,-223.00678)"/>
</g>
</g>
</g>
<g clip-path="url(#clip28)" clip-rule="nonzero">
<g clip-path="url(#clip29)" clip-rule="evenodd">
<g clip-path="url(#clip30)" clip-rule="evenodd">
<path style="fill:none;stroke-width:0.0234599;stroke-linecap:butt;stroke-linejoin:miter;stroke:rgb(17.96875%,20.3125%,21.09375%);stroke-opacity:0.8;stroke-miterlimit:10;" d="M 2.256302 3.991936 L 2.131022 3.187337 " transform="matrix(177.228109,0,0,177.228109,-125.774642,-223.00678)"/>
</g>
</g>
</g>
<g clip-path="url(#clip31)" clip-rule="nonzero">
<g clip-path="url(#clip32)" clip-rule="evenodd">
<g clip-path="url(#clip33)" clip-rule="evenodd">
<path style="fill:none;stroke-width:0.0234599;stroke-linecap:butt;stroke-linejoin:miter;stroke:rgb(17.96875%,20.3125%,21.09375%);stroke-opacity:0.8;stroke-miterlimit:10;" d="M 2.256302 3.991936 L 2.384712 4.362773 " transform="matrix(177.228109,0,0,177.228109,-125.774642,-223.00678)"/>
</g>
</g>
</g>
<g clip-path="url(#clip34)" clip-rule="nonzero">
<g clip-path="url(#clip35)" clip-rule="evenodd">
<g clip-path="url(#clip36)" clip-rule="evenodd">
<path style="fill:none;stroke-width:0.0234599;stroke-linecap:butt;stroke-linejoin:miter;stroke:rgb(17.96875%,20.3125%,21.09375%);stroke-opacity:0.8;stroke-miterlimit:10;" d="M 2.131022 3.187337 L 2.024278 2.776011 " transform="matrix(177.228109,0,0,177.228109,-125.774642,-223.00678)"/>
</g>
</g>
</g>
<g clip-path="url(#clip37)" clip-rule="nonzero">
<g clip-path="url(#clip38)" clip-rule="evenodd">
<g clip-path="url(#clip39)" clip-rule="evenodd">
<path style="fill:none;stroke-width:0.0234599;stroke-linecap:butt;stroke-linejoin:miter;stroke:rgb(17.96875%,20.3125%,21.09375%);stroke-opacity:0.8;stroke-miterlimit:10;" d="M 2.131022 3.187337 L 2.390222 2.61886 " transform="matrix(177.228109,0,0,177.228109,-125.774642,-223.00678)"/>
</g>
</g>
</g>
<g clip-path="url(#clip40)" clip-rule="nonzero">
<g clip-path="url(#clip41)" clip-rule="evenodd">
<g clip-path="url(#clip42)" clip-rule="evenodd">
<path style="fill:none;stroke-width:0.0234599;stroke-linecap:butt;stroke-linejoin:miter;stroke:rgb(17.96875%,20.3125%,21.09375%);stroke-opacity:0.8;stroke-miterlimit:10;" d="M 2.131022 3.187337 L 2.63029 3.237744 " transform="matrix(177.228109,0,0,177.228109,-125.774642,-223.00678)"/>
</g>
</g>
</g>
<g clip-path="url(#clip43)" clip-rule="nonzero">
<g clip-path="url(#clip44)" clip-rule="evenodd">
<g clip-path="url(#clip45)" clip-rule="evenodd">
<path style="fill:none;stroke-width:0.0234599;stroke-linecap:butt;stroke-linejoin:miter;stroke:rgb(17.96875%,20.3125%,21.09375%);stroke-opacity:0.8;stroke-miterlimit:10;" d="M 2.131022 3.187337 L 1.566138 3.363774 " transform="matrix(177.228109,0,0,177.228109,-125.774642,-223.00678)"/>
</g>
</g>
</g>
<g clip-path="url(#clip46)" clip-rule="nonzero">
<g clip-path="url(#clip47)" clip-rule="evenodd">
<g clip-path="url(#clip48)" clip-rule="evenodd">
<path style="fill:none;stroke-width:0.0234599;stroke-linecap:butt;stroke-linejoin:miter;stroke:rgb(17.96875%,20.3125%,21.09375%);stroke-opacity:0.8;stroke-miterlimit:10;" d="M 2.131022 3.187337 L 1.369226 3.181915 " transform="matrix(177.228109,0,0,177.228109,-125.774642,-223.00678)"/>
</g>
</g>
</g>
<g clip-path="url(#clip49)" clip-rule="nonzero">
<g clip-path="url(#clip50)" clip-rule="evenodd">
<g clip-path="url(#clip51)" clip-rule="evenodd">
<path style="fill:none;stroke-width:0.0234599;stroke-linecap:butt;stroke-linejoin:miter;stroke:rgb(17.96875%,20.3125%,21.09375%);stroke-opacity:0.8;stroke-miterlimit:10;" d="M 2.024278 2.776011 L 2.390222 2.61886 " transform="matrix(177.228109,0,0,177.228109,-125.774642,-223.00678)"/>
</g>
</g>
</g>
<g clip-path="url(#clip52)" clip-rule="nonzero">
<g clip-path="url(#clip53)" clip-rule="evenodd">
<g clip-path="url(#clip54)" clip-rule="evenodd">
<path style="fill:none;stroke-width:0.0234599;stroke-linecap:butt;stroke-linejoin:miter;stroke:rgb(17.96875%,20.3125%,21.09375%);stroke-opacity:0.8;stroke-miterlimit:10;" d="M 2.390222 2.61886 L 2.605318 1.976591 " transform="matrix(177.228109,0,0,177.228109,-125.774642,-223.00678)"/>
</g>
</g>
</g>
<g clip-path="url(#clip55)" clip-rule="nonzero">
<g clip-path="url(#clip56)" clip-rule="evenodd">
<g clip-path="url(#clip57)" clip-rule="evenodd">
<path style="fill:none;stroke-width:0.0234599;stroke-linecap:butt;stroke-linejoin:miter;stroke:rgb(17.96875%,20.3125%,21.09375%);stroke-opacity:0.8;stroke-miterlimit:10;" d="M 2.605318 1.976591 L 2.794075 1.561321 " transform="matrix(177.228109,0,0,177.228109,-125.774642,-223.00678)"/>
</g>
</g>
</g>
<g clip-path="url(#clip58)" clip-rule="nonzero">
<g clip-path="url(#clip59)" clip-rule="evenodd">
<g clip-path="url(#clip60)" clip-rule="evenodd">
<path style="fill:none;stroke-width:0.0234599;stroke-linecap:butt;stroke-linejoin:miter;stroke:rgb(17.96875%,20.3125%,21.09375%);stroke-opacity:0.8;stroke-miterlimit:10;" d="M 2.605318 1.976591 L 2.56635 1.539302 " transform="matrix(177.228109,0,0,177.228109,-125.774642,-223.00678)"/>
</g>
</g>
</g>
<g clip-path="url(#clip61)" clip-rule="nonzero">
<g clip-path="url(#clip62)" clip-rule="evenodd">
<g clip-path="url(#clip63)" clip-rule="evenodd">
<path style="fill:none;stroke-width:0.0234599;stroke-linecap:butt;stroke-linejoin:miter;stroke:rgb(17.96875%,20.3125%,21.09375%);stroke-opacity:0.8;stroke-miterlimit:10;" d="M 2.605318 1.976591 L 2.340762 1.548691 " transform="matrix(177.228109,0,0,177.228109,-125.774642,-223.00678)"/>
</g>
</g>
</g>
<g clip-path="url(#clip64)" clip-rule="nonzero">
<g clip-path="url(#clip65)" clip-rule="evenodd">
<g clip-path="url(#clip66)" clip-rule="evenodd">
<path style="fill:none;stroke-width:0.0234599;stroke-linecap:butt;stroke-linejoin:miter;stroke:rgb(17.96875%,20.3125%,21.09375%);stroke-opacity:0.8;stroke-miterlimit:10;" d="M 2.794075 1.561321 L 2.56635 1.539302 " transform="matrix(177.228109,0,0,177.228109,-125.774642,-223.00678)"/>
</g>
</g>
</g>
<g clip-path="url(#clip67)" clip-rule="nonzero">
<g clip-path="url(#clip68)" clip-rule="evenodd">
<g clip-path="url(#clip69)" clip-rule="evenodd">
<path style="fill:none;stroke-width:0.0234599;stroke-linecap:butt;stroke-linejoin:miter;stroke:rgb(17.96875%,20.3125%,21.09375%);stroke-opacity:0.8;stroke-miterlimit:10;" d="M 2.56635 1.539302 L 2.340762 1.548691 " transform="matrix(177.228109,0,0,177.228109,-125.774642,-223.00678)"/>
</g>
</g>
</g>
<g clip-path="url(#clip70)" clip-rule="nonzero">
<g clip-path="url(#clip71)" clip-rule="evenodd">
<g clip-path="url(#clip72)" clip-rule="evenodd">
<path style="fill:none;stroke-width:0.0234599;stroke-linecap:butt;stroke-linejoin:miter;stroke:rgb(17.96875%,20.3125%,21.09375%);stroke-opacity:0.8;stroke-miterlimit:10;" d="M 1.566138 3.363774 L 1.369226 3.181915 " transform="matrix(177.228109,0,0,177.228109,-125.774642,-223.00678)"/>
</g>
</g>
</g>
<g clip-path="url(#clip73)" clip-rule="nonzero">
<g clip-path="url(#clip74)" clip-rule="evenodd">
<g clip-path="url(#clip75)" clip-rule="evenodd">
<path style="fill:none;stroke-width:0.0234599;stroke-linecap:butt;stroke-linejoin:miter;stroke:rgb(17.96875%,20.3125%,21.09375%);stroke-opacity:0.8;stroke-miterlimit:10;" d="M 1.369226 3.181915 L 0.950318 3.004552 " transform="matrix(177.228109,0,0,177.228109,-125.774642,-223.00678)"/>
</g>
</g>
</g>
<path style="fill-rule:nonzero;fill:rgb(100%,92.941176%,43.529412%);fill-opacity:1;stroke-width:0.0234599;stroke-linecap:butt;stroke-linejoin:miter;stroke:rgb(60%,60%,60%);stroke-opacity:0.8;stroke-miterlimit:10;" d="M 0.117295 0.00000793625 C 0.117295 0.0647859 0.0647936 0.117309 -0.00000638346 0.117309 C -0.0647843 0.117309 -0.117308 0.0647859 -0.117308 0.00000793625 C -0.117308 -0.064792 -0.0647843 -0.117293 -0.00000638346 -0.117293 C 0.0647936 -0.117293 0.117295 -0.064792 0.117295 0.00000793625 Z M 0.117295 0.00000793625 " transform="matrix(177.228109,0,0,177.228109,383.817538,277.576718)"/>
<path style="fill-rule:nonzero;fill:rgb(100%,92.941176%,43.529412%);fill-opacity:1;stroke-width:0.0234599;stroke-linecap:butt;stroke-linejoin:miter;stroke:rgb(60%,60%,60%);stroke-opacity:0.8;stroke-miterlimit:10;" d="M 0.117308 -0.00000797549 C 0.117308 0.064792 0.0647847 0.117293 0.00000678564 0.117293 C -0.0647932 0.117293 -0.117294 0.064792 -0.117294 -0.00000797549 C -0.117294 -0.0647859 -0.0647932 -0.117309 0.00000678564 -0.117309 C 0.0647847 -0.117309 0.117308 -0.0647859 0.117308 -0.00000797549 Z M 0.117308 -0.00000797549 " transform="matrix(177.228109,0,0,177.228109,502.510516,316.294382)"/>
<path style="fill-rule:nonzero;fill:rgb(100%,92.941176%,43.529412%);fill-opacity:1;stroke-width:0.0234599;stroke-linecap:butt;stroke-linejoin:miter;stroke:rgb(60%,60%,60%);stroke-opacity:0.8;stroke-miterlimit:10;" d="M 0.117305 -0.00000490917 C 0.117305 0.064773 0.0647814 0.117296 0.0000035195 0.117296 C -0.0647744 0.117296 -0.117298 0.064773 -0.117298 -0.00000490917 C -0.117298 -0.0647828 -0.0647744 -0.117306 0.0000035195 -0.117306 C 0.0647814 -0.117306 0.117305 -0.0647828 0.117305 -0.00000490917 Z M 0.117305 -0.00000490917 " transform="matrix(177.228109,0,0,177.228109,557.350939,319.911026)"/>
<path style="fill-rule:nonzero;fill:rgb(100%,92.941176%,43.529412%);fill-opacity:1;stroke-width:0.0234599;stroke-linecap:butt;stroke-linejoin:miter;stroke:rgb(60%,60%,60%);stroke-opacity:0.8;stroke-miterlimit:10;" d="M 0.1173 -0.00000492031 C 0.1173 0.064773 0.0647769 0.117296 -0.00000102936 0.117296 C -0.064779 0.117296 -0.117302 0.064773 -0.117302 -0.00000492031 C -0.117302 -0.0647828 -0.064779 -0.117306 -0.00000102936 -0.117306 C 0.0647769 -0.117306 0.1173 -0.0647828 0.1173 -0.00000492031 Z M 0.1173 -0.00000492031 " transform="matrix(177.228109,0,0,177.228109,506.953307,293.536028)"/>
<path style="fill-rule:nonzero;fill:rgb(55.294118%,82.745098%,78.039216%);fill-opacity:1;stroke-width:0.0234599;stroke-linecap:butt;stroke-linejoin:miter;stroke:rgb(60%,60%,60%);stroke-opacity:0.8;stroke-miterlimit:10;" d="M 0.117291 0.0000108565 C 0.117291 0.0647888 0.0647903 0.11729 -0.00000967496 0.11729 C -0.0647876 0.11729 -0.117289 0.0647888 -0.117289 0.0000108565 C -0.117289 -0.0647891 -0.0647876 -0.11729 -0.00000967496 -0.11729 C 0.0647903 -0.11729 0.117291 -0.0647891 0.117291 0.0000108565 Z M 0.117291 0.0000108565 " transform="matrix(177.228109,0,0,177.228109,274.107183,484.474638)"/>
<path style="fill-rule:nonzero;fill:rgb(55.294118%,82.745098%,78.039216%);fill-opacity:1;stroke-width:0.0234599;stroke-linecap:butt;stroke-linejoin:miter;stroke:rgb(60%,60%,60%);stroke-opacity:0.8;stroke-miterlimit:10;" d="M 0.117301 -0.00000504768 C 0.117301 0.0647729 0.064778 0.117296 0.0000000321294 0.117296 C -0.0647779 0.117296 -0.117301 0.0647729 -0.117301 -0.00000504768 C -0.117301 -0.064783 -0.0647779 -0.117306 0.0000000321294 -0.117306 C 0.064778 -0.117306 0.117301 -0.064783 0.117301 -0.00000504768 Z M 0.117301 -0.00000504768 " transform="matrix(177.228109,0,0,177.228109,251.902338,341.879801)"/>
<path style="fill-rule:nonzero;fill:rgb(55.294118%,82.745098%,78.039216%);fill-opacity:1;stroke-width:0.0234599;stroke-linecap:butt;stroke-linejoin:miter;stroke:rgb(60%,60%,60%);stroke-opacity:0.8;stroke-miterlimit:10;" d="M 0.117307 -0.00000971307 C 0.117307 0.0647903 0.0647833 0.117291 0.00000542359 0.117291 C -0.0647725 0.117291 -0.117296 0.0647903 -0.117296 -0.00000971307 C -0.117296 -0.0647876 -0.0647725 -0.117289 0.00000542359 -0.117289 C 0.0647833 -0.117289 0.117307 -0.0647876 0.117307 -0.00000971307 Z M 0.117307 -0.00000971307 " transform="matrix(177.228109,0,0,177.228109,296.86232,550.20094)"/>
<path style="fill-rule:nonzero;fill:rgb(55.294118%,82.745098%,78.039216%);fill-opacity:1;stroke-width:0.0234599;stroke-linecap:butt;stroke-linejoin:miter;stroke:rgb(60%,60%,60%);stroke-opacity:0.8;stroke-miterlimit:10;" d="M 0.117296 0.0000106394 C 0.117296 0.0647886 0.0647723 0.11729 -0.00000558048 0.11729 C -0.0647835 0.11729 -0.117307 0.0647886 -0.117307 0.0000106394 C -0.117307 -0.0647893 -0.0647835 -0.117291 -0.00000558048 -0.117291 C 0.0647723 -0.117291 0.117296 -0.0647893 0.117296 0.0000106394 Z M 0.117296 0.0000106394 " transform="matrix(177.228109,0,0,177.228109,232.985364,268.978583)"/>
<path style="fill-rule:nonzero;fill:rgb(100%,92.941176%,43.529412%);fill-opacity:1;stroke-width:0.0234599;stroke-linecap:butt;stroke-linejoin:miter;stroke:rgb(60%,60%,60%);stroke-opacity:0.8;stroke-miterlimit:10;" d="M 0.117298 -0.00000562527 C 0.117298 0.0647723 0.0647748 0.117296 -0.00000316643 0.117296 C -0.0647811 0.117296 -0.117304 0.0647723 -0.117304 -0.00000562527 C -0.117304 -0.0647835 -0.0647811 -0.117307 -0.00000316643 -0.117307 C 0.0647748 -0.117307 0.117298 -0.0647835 0.117298 -0.00000562527 Z M 0.117298 -0.00000562527 " transform="matrix(177.228109,0,0,177.228109,297.840405,241.129903)"/>
<path style="fill-rule:nonzero;fill:rgb(55.294118%,82.745098%,78.039216%);fill-opacity:1;stroke-width:0.0234599;stroke-linecap:butt;stroke-linejoin:miter;stroke:rgb(60%,60%,60%);stroke-opacity:0.8;stroke-miterlimit:10;" d="M 0.11729 -0.00000161935 C 0.11729 0.0647763 0.0647889 0.1173 0.0000109474 0.1173 C -0.064789 0.1173 -0.11729 0.0647763 -0.11729 -0.00000161935 C -0.11729 -0.0647795 -0.064789 -0.117303 0.0000109474 -0.117303 C 0.0647889 -0.117303 0.11729 -0.0647795 0.11729 -0.00000161935 Z M 0.11729 -0.00000161935 " transform="matrix(177.228109,0,0,177.228109,340.384779,350.812787)"/>
<path style="fill-rule:nonzero;fill:rgb(100%,92.941176%,43.529412%);fill-opacity:1;stroke-width:0.0234599;stroke-linecap:butt;stroke-linejoin:miter;stroke:rgb(60%,60%,60%);stroke-opacity:0.8;stroke-miterlimit:10;" d="M 0.117308 -0.00000311896 C 0.117308 0.0647748 0.0647847 0.117298 0.00000680347 0.117298 C -0.0647932 0.117298 -0.117294 0.0647748 -0.117294 -0.00000311896 C -0.117294 -0.064781 -0.0647932 -0.117304 0.00000680347 -0.117304 C 0.0647847 -0.117304 0.117308 -0.064781 0.117308 -0.00000311896 Z M 0.117308 -0.00000311896 " transform="matrix(177.228109,0,0,177.228109,335.959732,127.301334)"/>
<path style="fill-rule:nonzero;fill:rgb(100%,92.941176%,43.529412%);fill-opacity:1;stroke-width:0.0234599;stroke-linecap:butt;stroke-linejoin:miter;stroke:rgb(60%,60%,60%);stroke-opacity:0.8;stroke-miterlimit:10;" d="M 0.117289 -0.00000170832 C 0.117289 0.0647762 0.0647882 0.117299 0.0000102284 0.117299 C -0.0647897 0.117299 -0.117291 0.0647762 -0.117291 -0.00000170832 C -0.117291 -0.0647796 -0.0647897 -0.117303 0.0000102284 -0.117303 C 0.0647882 -0.117303 0.117289 -0.0647796 0.117289 -0.00000170832 Z M 0.117289 -0.00000170832 " transform="matrix(177.228109,0,0,177.228109,369.41225,53.703428)"/>
<path style="fill-rule:nonzero;fill:rgb(100%,92.941176%,43.529412%);fill-opacity:1;stroke-width:0.0234599;stroke-linecap:butt;stroke-linejoin:miter;stroke:rgb(60%,60%,60%);stroke-opacity:0.8;stroke-miterlimit:10;" d="M 0.117305 0.00000971307 C 0.117305 0.0647876 0.0647813 0.117289 0.00000336556 0.117289 C -0.0647746 0.117289 -0.117298 0.0647876 -0.117298 0.00000971307 C -0.117298 -0.0647903 -0.0647746 -0.117291 0.00000336556 -0.117291 C 0.0647813 -0.117291 0.117305 -0.0647903 0.117305 0.00000971307 Z M 0.117305 0.00000971307 " transform="matrix(177.228109,0,0,177.228109,329.054091,49.79906)"/>
<path style="fill-rule:nonzero;fill:rgb(100%,92.941176%,43.529412%);fill-opacity:1;stroke-width:0.0234599;stroke-linecap:butt;stroke-linejoin:miter;stroke:rgb(60%,60%,60%);stroke-opacity:0.8;stroke-miterlimit:10;" d="M 0.117305 -0.0000106286 C 0.117305 0.0647893 0.0647813 0.117291 0.00000340412 0.117291 C -0.0647745 0.117291 -0.117298 0.0647893 -0.117298 -0.0000106286 C -0.117298 -0.0647886 -0.0647745 -0.11729 0.00000340412 -0.11729 C 0.0647813 -0.11729 0.117305 -0.0647886 0.117305 -0.0000106286 Z M 0.117305 -0.0000106286 " transform="matrix(177.228109,0,0,177.228109,289.073615,51.466727)"/>
<path style="fill-rule:nonzero;fill:rgb(55.294118%,82.745098%,78.039216%);fill-opacity:1;stroke-width:0.0234599;stroke-linecap:butt;stroke-linejoin:miter;stroke:rgb(60%,60%,60%);stroke-opacity:0.8;stroke-miterlimit:10;" d="M 0.117309 0.00000904975 C 0.117309 0.064787 0.064786 0.11731 0.00000810355 0.11731 C -0.0647919 0.11731 -0.117293 0.064787 -0.117293 0.00000904975 C -0.117293 -0.0647909 -0.0647919 -0.117292 0.00000810355 -0.117292 C 0.064786 -0.117292 0.117309 -0.0647909 0.117309 0.00000904975 Z M 0.117309 0.00000904975 " transform="matrix(177.228109,0,0,177.228109,151.787626,373.146834)"/>
<path style="fill-rule:nonzero;fill:rgb(55.294118%,82.745098%,78.039216%);fill-opacity:1;stroke-width:0.0234599;stroke-linecap:butt;stroke-linejoin:miter;stroke:rgb(60%,60%,60%);stroke-opacity:0.8;stroke-miterlimit:10;" d="M 0.117307 0.00000579531 C 0.117307 0.0647837 0.0647842 0.117307 0.00000623227 0.117307 C -0.0647937 0.117307 -0.117295 0.0647837 -0.117295 0.00000579531 C -0.117295 -0.0647721 -0.0647937 -0.117295 0.00000623227 -0.117295 C 0.0647842 -0.117295 0.117307 -0.0647721 0.117307 0.00000579531 Z M 0.117307 0.00000579531 " transform="matrix(177.228109,0,0,177.228109,116.88952,340.916942)"/>
<path style="fill-rule:nonzero;fill:rgb(55.294118%,82.745098%,78.039216%);fill-opacity:1;stroke-width:0.0234599;stroke-linecap:butt;stroke-linejoin:miter;stroke:rgb(60%,60%,60%);stroke-opacity:0.8;stroke-miterlimit:10;" d="M 0.117298 -0.00000064051 C 0.117298 0.0647773 0.0647744 0.117301 -0.0000035195 0.117301 C -0.0647814 0.117301 -0.117305 0.0647773 -0.117305 -0.00000064051 C -0.117305 -0.0647786 -0.0647814 -0.117302 -0.0000035195 -0.117302 C 0.0647744 -0.117302 0.117298 -0.0647786 0.117298 -0.00000064051 Z M 0.117298 -0.00000064051 " transform="matrix(177.228109,0,0,177.228109,42.649061,309.484489)"/>
</g>
</svg>
