<?xml version="1.0" encoding="UTF-8"?>
<svg xmlns="http://www.w3.org/2000/svg" xmlns:xlink="http://www.w3.org/1999/xlink" width="600pt" height="600pt" viewBox="0 0 600 600" version="1.1">
<defs>
<clipPath id="clip1">
  <path d="M 446 162 L 600 162 L 600 302 L 446 302 Z M 446 162 "/>
</clipPath>
<clipPath id="clip2">
  <path d="M 439.5625 46.605469 L 623.59375 46.605469 L 623.59375 416.859375 L 439.5625 416.859375 Z M 439.5625 46.605469 L 528.085938 222.617188 C 528.085938 234.453125 518.492188 244.046875 506.65625 244.046875 C 494.824219 244.046875 485.230469 234.453125 485.230469 222.617188 C 485.230469 210.785156 494.824219 201.191406 506.65625 201.191406 C 518.492188 201.191406 528.085938 210.785156 528.085938 222.617188 Z M 439.5625 46.605469 "/>
</clipPath>
<clipPath id="clip3">
  <path d="M 439.5625 46.605469 L 623.59375 46.605469 L 623.59375 416.859375 L 439.5625 416.859375 Z M 439.5625 46.605469 L 577.929688 240.847656 C 577.929688 252.683594 568.335938 262.277344 556.5 262.277344 C 544.664062 262.277344 535.070312 252.683594 535.070312 240.847656 C 535.070312 229.011719 544.664062 219.417969 556.5 219.417969 C 568.335938 219.417969 577.929688 229.011719 577.929688 240.847656 Z M 439.5625 46.605469 "/>
</clipPath>
<clipPath id="clip4">
  <path d="M 409.394531 155 L 525.996094 155 L 525.996094 284 L 409.394531 284 Z M 409.394531 155 "/>
</clipPath>
<clipPath id="clip5">
  <path d="M 409.394531 29.664062 L 525.996094 29.664062 L 525.996094 409.132812 L 409.394531 409.132812 Z M 409.394531 29.664062 L 528.085938 222.617188 C 528.085938 234.453125 518.492188 244.046875 506.65625 244.046875 C 494.824219 244.046875 485.230469 234.453125 485.230469 222.617188 C 485.230469 210.785156 494.824219 201.191406 506.65625 201.191406 C 518.492188 201.191406 528.085938 210.785156 528.085938 222.617188 Z M 409.394531 29.664062 "/>
</clipPath>
<clipPath id="clip6">
  <path d="M 409.394531 29.664062 L 525.996094 29.664062 L 525.996094 409.132812 L 409.394531 409.132812 Z M 409.394531 29.664062 L 450.164062 216.179688 C 450.164062 228.015625 440.570312 237.609375 428.734375 237.609375 C 416.898438 237.609375 407.304688 228.015625 407.304688 216.179688 C 407.304688 204.34375 416.898438 194.75 428.734375 194.75 C 440.570312 194.75 450.164062 204.34375 450.164062 216.179688 Z M 409.394531 29.664062 "/>
</clipPath>
<clipPath id="clip7">
  <path d="M 327 155 L 490 155 L 490 391 L 327 391 Z M 327 155 "/>
</clipPath>
<clipPath id="clip8">
  <path d="M 211.636719 150.640625 L 605.304688 150.640625 L 605.304688 395.707031 L 211.636719 395.707031 Z M 211.636719 150.640625 L 450.164062 216.179688 C 450.164062 228.015625 440.570312 237.609375 428.734375 237.609375 C 416.898438 237.609375 407.304688 228.015625 407.304688 216.179688 C 407.304688 204.34375 416.898438 194.75 428.734375 194.75 C 440.570312 194.75 450.164062 204.34375 450.164062 216.179688 Z M 211.636719 150.640625 "/>
</clipPath>
<clipPath id="clip9">
  <path d="M 211.636719 150.640625 L 605.304688 150.640625 L 605.304688 395.707031 L 211.636719 395.707031 Z M 211.636719 150.640625 L 409.632812 330.167969 C 409.632812 342.003906 400.039062 351.597656 388.207031 351.597656 C 376.371094 351.597656 366.777344 342.003906 366.777344 330.167969 C 366.777344 318.335938 376.371094 308.742188 388.207031 308.742188 C 400.039062 308.742188 409.632812 318.335938 409.632812 330.167969 Z M 211.636719 150.640625 "/>
</clipPath>
<clipPath id="clip10">
  <path d="M 329 57 L 490 57 L 490 277 L 329 277 Z M 329 57 "/>
</clipPath>
<clipPath id="clip11">
  <path d="M 215.613281 46.746094 L 603.316406 46.746094 L 603.316406 287.050781 L 215.613281 287.050781 Z M 215.613281 46.746094 L 450.164062 216.179688 C 450.164062 228.015625 440.570312 237.609375 428.734375 237.609375 C 416.898438 237.609375 407.304688 228.015625 407.304688 216.179688 C 407.304688 204.34375 416.898438 194.75 428.734375 194.75 C 440.570312 194.75 450.164062 204.34375 450.164062 216.179688 Z M 215.613281 46.746094 "/>
</clipPath>
<clipPath id="clip12">
  <path d="M 215.613281 46.746094 L 603.316406 46.746094 L 603.316406 287.050781 L 215.613281 287.050781 Z M 215.613281 46.746094 L 411.621094 117.617188 C 411.621094 129.449219 402.027344 139.042969 390.195312 139.042969 C 378.359375 139.042969 368.765625 129.449219 368.765625 117.617188 C 368.765625 105.78125 378.359375 96.1875 390.195312 96.1875 C 402.027344 96.1875 411.621094 105.78125 411.621094 117.617188 Z M 215.613281 46.746094 "/>
</clipPath>
<clipPath id="clip13">
  <path d="M 325 444 L 493 444 L 493 599 L 325 599 Z M 325 444 "/>
</clipPath>
<clipPath id="clip14">
  <path d="M 274.660156 352.988281 L 543.820312 352.988281 L 543.820312 690.570312 L 274.660156 690.570312 Z M 274.660156 352.988281 L 407.855469 505.203125 C 407.855469 517.035156 398.261719 526.628906 386.425781 526.628906 C 374.59375 526.628906 365 517.035156 365 505.203125 C 365 493.367188 374.59375 483.773438 386.425781 483.773438 C 398.261719 483.773438 407.855469 493.367188 407.855469 505.203125 Z M 274.660156 352.988281 "/>
</clipPath>
<clipPath id="clip15">
  <path d="M 274.660156 352.988281 L 543.820312 352.988281 L 543.820312 690.570312 L 274.660156 690.570312 Z M 274.660156 352.988281 L 453.484375 538.355469 C 453.484375 550.191406 443.890625 559.785156 432.054688 559.785156 C 420.21875 559.785156 410.625 550.191406 410.625 538.355469 C 410.625 526.519531 420.21875 516.925781 432.054688 516.925781 C 443.890625 516.925781 453.484375 526.519531 453.484375 538.355469 Z M 274.660156 352.988281 "/>
</clipPath>
<clipPath id="clip16">
  <path d="M 257 378 L 448 378 L 448 566 L 257 566 Z M 257 378 "/>
</clipPath>
<clipPath id="clip17">
  <path d="M 186.8125 303.074219 L 517.355469 303.074219 L 517.355469 641.382812 L 186.8125 641.382812 Z M 186.8125 303.074219 L 407.855469 505.203125 C 407.855469 517.035156 398.261719 526.628906 386.425781 526.628906 C 374.59375 526.628906 365 517.035156 365 505.203125 C 365 493.367188 374.59375 483.773438 386.425781 483.773438 C 398.261719 483.773438 407.855469 493.367188 407.855469 505.203125 Z M 186.8125 303.074219 "/>
</clipPath>
<clipPath id="clip18">
  <path d="M 186.8125 303.074219 L 517.355469 303.074219 L 517.355469 641.382812 L 186.8125 641.382812 Z M 186.8125 303.074219 L 339.167969 439.253906 C 339.167969 451.089844 329.574219 460.683594 317.742188 460.683594 C 305.90625 460.683594 296.3125 451.089844 296.3125 439.253906 C 296.3125 427.421875 305.90625 417.828125 317.742188 417.828125 C 329.574219 417.828125 339.167969 427.421875 339.167969 439.253906 Z M 186.8125 303.074219 "/>
</clipPath>
<clipPath id="clip19">
  <path d="M 257 269 L 449 269 L 449 500 L 257 500 Z M 257 269 "/>
</clipPath>
<clipPath id="clip20">
  <path d="M 159.863281 226.667969 L 546.085938 226.667969 L 546.085938 542.753906 L 159.863281 542.753906 Z M 159.863281 226.667969 L 409.632812 330.167969 C 409.632812 342.003906 400.039062 351.597656 388.207031 351.597656 C 376.371094 351.597656 366.777344 342.003906 366.777344 330.167969 C 366.777344 318.335938 376.371094 308.742188 388.207031 308.742188 C 400.039062 308.742188 409.632812 318.335938 409.632812 330.167969 Z M 159.863281 226.667969 "/>
</clipPath>
<clipPath id="clip21">
  <path d="M 159.863281 226.667969 L 546.085938 226.667969 L 546.085938 542.753906 L 159.863281 542.753906 Z M 159.863281 226.667969 L 339.167969 439.253906 C 339.167969 451.089844 329.574219 460.683594 317.742188 460.683594 C 305.90625 460.683594 296.3125 451.089844 296.3125 439.253906 C 296.3125 427.421875 305.90625 417.828125 317.742188 417.828125 C 329.574219 417.828125 339.167969 427.421875 339.167969 439.253906 Z M 159.863281 226.667969 "/>
</clipPath>
<clipPath id="clip22">
  <path d="M 155 326 L 379 326 L 379 500 L 155 500 Z M 155 326 "/>
</clipPath>
<clipPath id="clip23">
  <path d="M 127.882812 219.898438 L 405.515625 219.898438 L 405.515625 606.21875 L 127.882812 606.21875 Z M 127.882812 219.898438 L 339.167969 439.253906 C 339.167969 451.089844 329.574219 460.683594 317.742188 460.683594 C 305.90625 460.683594 296.3125 451.089844 296.3125 439.253906 C 296.3125 427.421875 305.90625 417.828125 317.742188 417.828125 C 329.574219 417.828125 339.167969 427.421875 339.167969 439.253906 Z M 127.882812 219.898438 "/>
</clipPath>
<clipPath id="clip24">
  <path d="M 127.882812 219.898438 L 405.515625 219.898438 L 405.515625 606.21875 L 127.882812 606.21875 Z M 127.882812 219.898438 L 237.085938 386.863281 C 237.085938 398.699219 227.492188 408.292969 215.65625 408.292969 C 203.820312 408.292969 194.226562 398.699219 194.226562 386.863281 C 194.226562 375.027344 203.820312 365.433594 215.65625 365.433594 C 227.492188 365.433594 237.085938 375.027344 237.085938 386.863281 Z M 127.882812 219.898438 "/>
</clipPath>
<clipPath id="clip25">
  <path d="M 215 378 L 379 378 L 379 574 L 215 574 Z M 215 378 "/>
</clipPath>
<clipPath id="clip26">
  <path d="M 112.867188 345.101562 L 481.269531 345.101562 L 481.269531 606.671875 L 112.867188 606.671875 Z M 112.867188 345.101562 L 339.167969 439.253906 C 339.167969 451.089844 329.574219 460.683594 317.742188 460.683594 C 305.90625 460.683594 296.3125 451.089844 296.3125 439.253906 C 296.3125 427.421875 305.90625 417.828125 317.742188 417.828125 C 329.574219 417.828125 339.167969 427.421875 339.167969 439.253906 Z M 112.867188 345.101562 "/>
</clipPath>
<clipPath id="clip27">
  <path d="M 112.867188 345.101562 L 481.269531 345.101562 L 481.269531 606.671875 L 112.867188 606.671875 Z M 112.867188 345.101562 L 297.824219 512.519531 C 297.824219 524.351562 288.230469 533.945312 276.394531 533.945312 C 264.5625 533.945312 254.96875 524.351562 254.96875 512.519531 C 254.96875 500.683594 264.5625 491.089844 276.394531 491.089844 C 288.230469 491.089844 297.824219 500.683594 297.824219 512.519531 Z M 112.867188 345.101562 "/>
</clipPath>
<clipPath id="clip28">
  <path d="M 297 1 L 451 1 L 451 179 L 297 179 Z M 297 1 "/>
</clipPath>
<clipPath id="clip29">
  <path d="M 195.195312 -33.625 L 553.085938 -33.625 L 553.085938 212.886719 L 195.195312 212.886719 Z M 195.195312 -33.625 L 411.621094 117.617188 C 411.621094 129.449219 402.027344 139.042969 390.195312 139.042969 C 378.359375 139.042969 368.765625 129.449219 368.765625 117.617188 C 368.765625 105.78125 378.359375 96.1875 390.195312 96.1875 C 402.027344 96.1875 411.621094 105.78125 411.621094 117.617188 Z M 195.195312 -33.625 "/>
</clipPath>
<clipPath id="clip30">
  <path d="M 195.195312 -33.625 L 553.085938 -33.625 L 553.085938 212.886719 L 195.195312 212.886719 Z M 195.195312 -33.625 L 379.511719 61.644531 C 379.511719 73.480469 369.917969 83.074219 358.085938 83.074219 C 346.25 83.074219 336.65625 73.480469 336.65625 61.644531 C 336.65625 49.808594 346.25 40.214844 358.085938 40.214844 C 369.917969 40.214844 379.511719 49.808594 379.511719 61.644531 Z M 195.195312 -33.625 "/>
</clipPath>
<clipPath id="clip31">
  <path d="M 71 234 L 277 234 L 277 448 L 71 448 Z M 71 234 "/>
</clipPath>
<clipPath id="clip32">
  <path d="M -7.054688 168.097656 L 355.183594 168.097656 L 355.183594 514.210938 L -7.054688 514.210938 Z M -7.054688 168.097656 L 237.085938 386.863281 C 237.085938 398.699219 227.492188 408.292969 215.65625 408.292969 C 203.820312 408.292969 194.226562 398.699219 194.226562 386.863281 C 194.226562 375.027344 203.820312 365.433594 215.65625 365.433594 C 227.492188 365.433594 237.085938 375.027344 237.085938 386.863281 Z M -7.054688 168.097656 "/>
</clipPath>
<clipPath id="clip33">
  <path d="M -7.054688 168.097656 L 355.183594 168.097656 L 355.183594 514.210938 L -7.054688 514.210938 Z M -7.054688 168.097656 L 153.898438 295.445312 C 153.898438 307.28125 144.304688 316.875 132.472656 316.875 C 120.636719 316.875 111.042969 307.28125 111.042969 295.445312 C 111.042969 283.609375 120.636719 274.015625 132.472656 274.015625 C 144.304688 274.015625 153.898438 283.609375 153.898438 295.445312 Z M -7.054688 168.097656 "/>
</clipPath>
<clipPath id="clip34">
  <path d="M 3 234 L 194 234 L 194 380 L 3 380 Z M 3 234 "/>
</clipPath>
<clipPath id="clip35">
  <path d="M 0.863281 118.230469 L 196.175781 118.230469 L 196.175781 495.992188 L 0.863281 495.992188 Z M 0.863281 118.230469 L 85.996094 318.777344 C 85.996094 330.613281 76.402344 340.207031 64.566406 340.207031 C 52.730469 340.207031 43.136719 330.613281 43.136719 318.777344 C 43.136719 306.941406 52.730469 297.347656 64.566406 297.347656 C 76.402344 297.347656 85.996094 306.941406 85.996094 318.777344 Z M 0.863281 118.230469 "/>
</clipPath>
<clipPath id="clip36">
  <path d="M 0.863281 118.230469 L 196.175781 118.230469 L 196.175781 495.992188 L 0.863281 495.992188 Z M 0.863281 118.230469 L 153.898438 295.445312 C 153.898438 307.28125 144.304688 316.875 132.472656 316.875 C 120.636719 316.875 111.042969 307.28125 111.042969 295.445312 C 111.042969 283.609375 120.636719 274.015625 132.472656 274.015625 C 144.304688 274.015625 153.898438 283.609375 153.898438 295.445312 Z M 0.863281 118.230469 "/>
</clipPath>
<clipPath id="clip37">
  <path d="M 0 210 L 126 210 L 126 380 L 0 380 Z M 0 210 "/>
</clipPath>
<clipPath id="clip38">
  <path d="M -128.234375 193.015625 L 236.300781 193.015625 L 236.300781 396.511719 L -128.234375 396.511719 Z M -128.234375 193.015625 L 85.996094 318.777344 C 85.996094 330.613281 76.402344 340.207031 64.566406 340.207031 C 52.730469 340.207031 43.136719 330.613281 43.136719 318.777344 C 43.136719 306.941406 52.730469 297.347656 64.566406 297.347656 C 76.402344 297.347656 85.996094 306.941406 85.996094 318.777344 Z M -128.234375 193.015625 "/>
</clipPath>
<clipPath id="clip39">
  <path d="M -128.234375 193.015625 L 236.300781 193.015625 L 236.300781 396.511719 L -128.234375 396.511719 Z M -128.234375 193.015625 L 64.929688 270.75 C 64.929688 282.582031 55.335938 292.175781 43.5 292.175781 C 31.664062 292.175781 22.070312 282.582031 22.070312 270.75 C 22.070312 258.914062 31.664062 249.320312 43.5 249.320312 C 55.335938 249.320312 64.929688 258.914062 64.929688 270.75 Z M -128.234375 193.015625 "/>
</clipPath>
<clipPath id="clip40">
  <path d="M 34 154 L 192 154 L 192 299 L 34 299 Z M 34 154 "/>
</clipPath>
<clipPath id="clip41">
  <path d="M -6.164062 56.039062 L 232.140625 56.039062 L 232.140625 397.523438 L -6.164062 397.523438 Z M -6.164062 56.039062 L 116.296875 238.078125 C 116.296875 249.914062 106.703125 259.507812 94.871094 259.507812 C 83.035156 259.507812 73.441406 249.914062 73.441406 238.078125 C 73.441406 226.242188 83.035156 216.648438 94.871094 216.648438 C 106.703125 216.648438 116.296875 226.242188 116.296875 238.078125 Z M -6.164062 56.039062 "/>
</clipPath>
<clipPath id="clip42">
  <path d="M -6.164062 56.039062 L 232.140625 56.039062 L 232.140625 397.523438 L -6.164062 397.523438 Z M -6.164062 56.039062 L 152.535156 215.484375 C 152.535156 227.320312 142.941406 236.914062 131.105469 236.914062 C 119.273438 236.914062 109.675781 227.320312 109.675781 215.484375 C 109.675781 203.652344 119.273438 194.058594 131.105469 194.058594 C 142.941406 194.058594 152.535156 203.652344 152.535156 215.484375 Z M -6.164062 56.039062 "/>
</clipPath>
<clipPath id="clip43">
  <path d="M 34 177 L 194 177 L 194 357 L 34 357 Z M 34 177 "/>
</clipPath>
<clipPath id="clip44">
  <path d="M -62.34375 133.554688 L 289.6875 133.554688 L 289.6875 399.96875 L -62.34375 399.96875 Z M -62.34375 133.554688 L 116.296875 238.078125 C 116.296875 249.914062 106.703125 259.507812 94.871094 259.507812 C 83.035156 259.507812 73.441406 249.914062 73.441406 238.078125 C 73.441406 226.242188 83.035156 216.648438 94.871094 216.648438 C 106.703125 216.648438 116.296875 226.242188 116.296875 238.078125 Z M -62.34375 133.554688 "/>
</clipPath>
<clipPath id="clip45">
  <path d="M -62.34375 133.554688 L 289.6875 133.554688 L 289.6875 399.96875 L -62.34375 399.96875 Z M -62.34375 133.554688 L 153.898438 295.445312 C 153.898438 307.28125 144.304688 316.875 132.472656 316.875 C 120.636719 316.875 111.042969 307.28125 111.042969 295.445312 C 111.042969 283.609375 120.636719 274.015625 132.472656 274.015625 C 144.304688 274.015625 153.898438 283.609375 153.898438 295.445312 Z M -62.34375 133.554688 "/>
</clipPath>
<clipPath id="clip46">
  <path d="M 0 177 L 156 177 L 156 332 L 0 332 Z M 0 177 "/>
</clipPath>
<clipPath id="clip47">
  <path d="M -58.914062 79.503906 L 197.285156 79.503906 L 197.285156 429.324219 L -58.914062 429.324219 Z M -58.914062 79.503906 L 116.296875 238.078125 C 116.296875 249.914062 106.703125 259.507812 94.871094 259.507812 C 83.035156 259.507812 73.441406 249.914062 73.441406 238.078125 C 73.441406 226.242188 83.035156 216.648438 94.871094 216.648438 C 106.703125 216.648438 116.296875 226.242188 116.296875 238.078125 Z M -58.914062 79.503906 "/>
</clipPath>
<clipPath id="clip48">
  <path d="M -58.914062 79.503906 L 197.285156 79.503906 L 197.285156 429.324219 L -58.914062 429.324219 Z M -58.914062 79.503906 L 64.929688 270.75 C 64.929688 282.582031 55.335938 292.175781 43.5 292.175781 C 31.664062 292.175781 22.070312 282.582031 22.070312 270.75 C 22.070312 258.914062 31.664062 249.320312 43.5 249.320312 C 55.335938 249.320312 64.929688 258.914062 64.929688 270.75 Z M -58.914062 79.503906 "/>
</clipPath>
<clipPath id="clip49">
  <path d="M 70 208.074219 L 194 208.074219 L 194 302.855469 L 70 302.855469 Z M 70 208.074219 "/>
</clipPath>
<clipPath id="clip50">
  <path d="M -56.003906 208.074219 L 319.582031 208.074219 L 319.582031 302.855469 L -56.003906 302.855469 Z M -56.003906 208.074219 L 152.535156 215.484375 C 152.535156 227.320312 142.941406 236.914062 131.105469 236.914062 C 119.273438 236.914062 109.675781 227.320312 109.675781 215.484375 C 109.675781 203.652344 119.273438 194.058594 131.105469 194.058594 C 142.941406 194.058594 152.535156 203.652344 152.535156 215.484375 Z M -56.003906 208.074219 "/>
</clipPath>
<clipPath id="clip51">
  <path d="M -56.003906 208.074219 L 319.582031 208.074219 L 319.582031 302.855469 L -56.003906 302.855469 Z M -56.003906 208.074219 L 153.898438 295.445312 C 153.898438 307.28125 144.304688 316.875 132.472656 316.875 C 120.636719 316.875 111.042969 307.28125 111.042969 295.445312 C 111.042969 283.609375 120.636719 274.015625 132.472656 274.015625 C 144.304688 274.015625 153.898438 283.609375 153.898438 295.445312 Z M -56.003906 208.074219 "/>
</clipPath>
</defs>
<g id="surface321">
<g clip-path="url(#clip1)" clip-rule="nonzero">
<g clip-path="url(#clip2)" clip-rule="evenodd">
<g clip-path="url(#clip3)" clip-rule="evenodd">
<path style="fill:none;stroke-width:0.0234383;stroke-linecap:butt;stroke-linejoin:miter;stroke:rgb(17.96875%,20.3125%,21.09375%);stroke-opacity:0.8;stroke-miterlimit:10;" d="M 2.940498 1.533392 L 3.213091 1.633094 " transform="matrix(182.850808,0,0,182.850808,-31.01625,-57.764864)"/>
</g>
</g>
</g>
<g clip-path="url(#clip4)" clip-rule="nonzero">
<g clip-path="url(#clip5)" clip-rule="evenodd">
<g clip-path="url(#clip6)" clip-rule="evenodd">
<path style="fill:none;stroke-width:0.0234383;stroke-linecap:butt;stroke-linejoin:miter;stroke:rgb(17.96875%,20.3125%,21.09375%);stroke-opacity:0.8;stroke-miterlimit:10;" d="M 2.940498 1.533392 L 2.514348 1.498186 " transform="matrix(182.850808,0,0,182.850808,-31.01625,-57.764864)"/>
</g>
</g>
</g>
<g clip-path="url(#clip7)" clip-rule="nonzero">
<g clip-path="url(#clip8)" clip-rule="evenodd">
<g clip-path="url(#clip9)" clip-rule="evenodd">
<path style="fill:none;stroke-width:0.0234383;stroke-linecap:butt;stroke-linejoin:miter;stroke:rgb(17.96875%,20.3125%,21.09375%);stroke-opacity:0.8;stroke-miterlimit:10;" d="M 2.514348 1.498186 L 2.292707 2.121581 " transform="matrix(182.850808,0,0,182.850808,-31.01625,-57.764864)"/>
</g>
</g>
</g>
<g clip-path="url(#clip10)" clip-rule="nonzero">
<g clip-path="url(#clip11)" clip-rule="evenodd">
<g clip-path="url(#clip12)" clip-rule="evenodd">
<path style="fill:none;stroke-width:0.0234383;stroke-linecap:butt;stroke-linejoin:miter;stroke:rgb(17.96875%,20.3125%,21.09375%);stroke-opacity:0.8;stroke-miterlimit:10;" d="M 2.514348 1.498186 L 2.303581 0.959154 " transform="matrix(182.850808,0,0,182.850808,-31.01625,-57.764864)"/>
</g>
</g>
</g>
<g clip-path="url(#clip13)" clip-rule="nonzero">
<g clip-path="url(#clip14)" clip-rule="evenodd">
<g clip-path="url(#clip15)" clip-rule="evenodd">
<path style="fill:none;stroke-width:0.0234383;stroke-linecap:butt;stroke-linejoin:miter;stroke:rgb(17.96875%,20.3125%,21.09375%);stroke-opacity:0.8;stroke-miterlimit:10;" d="M 2.282965 3.078838 L 2.532507 3.260146 " transform="matrix(182.850808,0,0,182.850808,-31.01625,-57.764864)"/>
</g>
</g>
</g>
<g clip-path="url(#clip16)" clip-rule="nonzero">
<g clip-path="url(#clip17)" clip-rule="evenodd">
<g clip-path="url(#clip18)" clip-rule="evenodd">
<path style="fill:none;stroke-width:0.0234383;stroke-linecap:butt;stroke-linejoin:miter;stroke:rgb(17.96875%,20.3125%,21.09375%);stroke-opacity:0.8;stroke-miterlimit:10;" d="M 2.282965 3.078838 L 1.907339 2.718166 " transform="matrix(182.850808,0,0,182.850808,-31.01625,-57.764864)"/>
</g>
</g>
</g>
<g clip-path="url(#clip19)" clip-rule="nonzero">
<g clip-path="url(#clip20)" clip-rule="evenodd">
<g clip-path="url(#clip21)" clip-rule="evenodd">
<path style="fill:none;stroke-width:0.0234383;stroke-linecap:butt;stroke-linejoin:miter;stroke:rgb(17.96875%,20.3125%,21.09375%);stroke-opacity:0.8;stroke-miterlimit:10;" d="M 2.292707 2.121581 L 1.907339 2.718166 " transform="matrix(182.850808,0,0,182.850808,-31.01625,-57.764864)"/>
</g>
</g>
</g>
<g clip-path="url(#clip22)" clip-rule="nonzero">
<g clip-path="url(#clip23)" clip-rule="evenodd">
<g clip-path="url(#clip24)" clip-rule="evenodd">
<path style="fill:none;stroke-width:0.0234383;stroke-linecap:butt;stroke-linejoin:miter;stroke:rgb(17.96875%,20.3125%,21.09375%);stroke-opacity:0.8;stroke-miterlimit:10;" d="M 1.907339 2.718166 L 1.349037 2.431644 " transform="matrix(182.850808,0,0,182.850808,-31.01625,-57.764864)"/>
</g>
</g>
</g>
<g clip-path="url(#clip25)" clip-rule="nonzero">
<g clip-path="url(#clip26)" clip-rule="evenodd">
<g clip-path="url(#clip27)" clip-rule="evenodd">
<path style="fill:none;stroke-width:0.0234383;stroke-linecap:butt;stroke-linejoin:miter;stroke:rgb(17.96875%,20.3125%,21.09375%);stroke-opacity:0.8;stroke-miterlimit:10;" d="M 1.907339 2.718166 L 1.681211 3.118851 " transform="matrix(182.850808,0,0,182.850808,-31.01625,-57.764864)"/>
</g>
</g>
</g>
<g clip-path="url(#clip28)" clip-rule="nonzero">
<g clip-path="url(#clip29)" clip-rule="evenodd">
<g clip-path="url(#clip30)" clip-rule="evenodd">
<path style="fill:none;stroke-width:0.0234383;stroke-linecap:butt;stroke-linejoin:miter;stroke:rgb(17.96875%,20.3125%,21.09375%);stroke-opacity:0.8;stroke-miterlimit:10;" d="M 2.303581 0.959154 L 2.127976 0.653043 " transform="matrix(182.850808,0,0,182.850808,-31.01625,-57.764864)"/>
</g>
</g>
</g>
<g clip-path="url(#clip31)" clip-rule="nonzero">
<g clip-path="url(#clip32)" clip-rule="evenodd">
<g clip-path="url(#clip33)" clip-rule="evenodd">
<path style="fill:none;stroke-width:0.0234383;stroke-linecap:butt;stroke-linejoin:miter;stroke:rgb(17.96875%,20.3125%,21.09375%);stroke-opacity:0.8;stroke-miterlimit:10;" d="M 1.349037 2.431644 L 0.894111 1.931685 " transform="matrix(182.850808,0,0,182.850808,-31.01625,-57.764864)"/>
</g>
</g>
</g>
<g clip-path="url(#clip34)" clip-rule="nonzero">
<g clip-path="url(#clip35)" clip-rule="evenodd">
<g clip-path="url(#clip36)" clip-rule="evenodd">
<path style="fill:none;stroke-width:0.0234383;stroke-linecap:butt;stroke-linejoin:miter;stroke:rgb(17.96875%,20.3125%,21.09375%);stroke-opacity:0.8;stroke-miterlimit:10;" d="M 0.522736 2.059287 L 0.894111 1.931685 " transform="matrix(182.850808,0,0,182.850808,-31.01625,-57.764864)"/>
</g>
</g>
</g>
<g clip-path="url(#clip37)" clip-rule="nonzero">
<g clip-path="url(#clip38)" clip-rule="evenodd">
<g clip-path="url(#clip39)" clip-rule="evenodd">
<path style="fill:none;stroke-width:0.0234383;stroke-linecap:butt;stroke-linejoin:miter;stroke:rgb(17.96875%,20.3125%,21.09375%);stroke-opacity:0.8;stroke-miterlimit:10;" d="M 0.522736 2.059287 L 0.407525 1.796628 " transform="matrix(182.850808,0,0,182.850808,-31.01625,-57.764864)"/>
</g>
</g>
</g>
<g clip-path="url(#clip40)" clip-rule="nonzero">
<g clip-path="url(#clip41)" clip-rule="evenodd">
<g clip-path="url(#clip42)" clip-rule="evenodd">
<path style="fill:none;stroke-width:0.0234383;stroke-linecap:butt;stroke-linejoin:miter;stroke:rgb(17.96875%,20.3125%,21.09375%);stroke-opacity:0.8;stroke-miterlimit:10;" d="M 0.68847 1.617947 L 0.886634 1.494384 " transform="matrix(182.850808,0,0,182.850808,-31.01625,-57.764864)"/>
</g>
</g>
</g>
<g clip-path="url(#clip43)" clip-rule="nonzero">
<g clip-path="url(#clip44)" clip-rule="evenodd">
<g clip-path="url(#clip45)" clip-rule="evenodd">
<path style="fill:none;stroke-width:0.0234383;stroke-linecap:butt;stroke-linejoin:miter;stroke:rgb(17.96875%,20.3125%,21.09375%);stroke-opacity:0.8;stroke-miterlimit:10;" d="M 0.68847 1.617947 L 0.894111 1.931685 " transform="matrix(182.850808,0,0,182.850808,-31.01625,-57.764864)"/>
</g>
</g>
</g>
<g clip-path="url(#clip46)" clip-rule="nonzero">
<g clip-path="url(#clip47)" clip-rule="evenodd">
<g clip-path="url(#clip48)" clip-rule="evenodd">
<path style="fill:none;stroke-width:0.0234383;stroke-linecap:butt;stroke-linejoin:miter;stroke:rgb(17.96875%,20.3125%,21.09375%);stroke-opacity:0.8;stroke-miterlimit:10;" d="M 0.68847 1.617947 L 0.407525 1.796628 " transform="matrix(182.850808,0,0,182.850808,-31.01625,-57.764864)"/>
</g>
</g>
</g>
<g clip-path="url(#clip49)" clip-rule="nonzero">
<g clip-path="url(#clip50)" clip-rule="evenodd">
<g clip-path="url(#clip51)" clip-rule="evenodd">
<path style="fill:none;stroke-width:0.0234383;stroke-linecap:butt;stroke-linejoin:miter;stroke:rgb(17.96875%,20.3125%,21.09375%);stroke-opacity:0.8;stroke-miterlimit:10;" d="M 0.886634 1.494384 L 0.894111 1.931685 " transform="matrix(182.850808,0,0,182.850808,-31.01625,-57.764864)"/>
</g>
</g>
</g>
<path style="fill-rule:nonzero;fill:rgb(100%,92.941176%,43.529412%);fill-opacity:1;stroke-width:0.0234383;stroke-linecap:butt;stroke-linejoin:miter;stroke:rgb(60%,60%,60%);stroke-opacity:0.8;stroke-miterlimit:10;" d="M 0.11719 -0.00000543807 C 0.11719 0.0647246 0.0647221 0.117192 -0.00000791691 0.117192 C -0.0647166 0.117192 -0.117184 0.0647246 -0.117184 -0.00000543807 C -0.117184 -0.0647141 -0.0647166 -0.117182 -0.00000791691 -0.117182 C 0.0647221 -0.117182 0.11719 -0.0647141 0.11719 -0.00000543807 Z M 0.11719 -0.00000543807 " transform="matrix(182.850808,0,0,182.850808,506.657698,222.618182)"/>
<path style="fill-rule:nonzero;fill:rgb(100%,92.941176%,43.529412%);fill-opacity:1;stroke-width:0.0234383;stroke-linecap:butt;stroke-linejoin:miter;stroke:rgb(60%,60%,60%);stroke-opacity:0.8;stroke-miterlimit:10;" d="M 0.117198 -0.00000346621 C 0.117198 0.0647266 0.06473 0.117194 0.000000000000000444 0.117194 C -0.06473 0.117194 -0.117198 0.0647266 -0.117198 -0.00000346621 C -0.117198 -0.0647335 -0.06473 -0.117201 0.000000000000000444 -0.117201 C 0.06473 -0.117201 0.117198 -0.0647335 0.117198 -0.00000346621 Z M 0.117198 -0.00000346621 " transform="matrix(182.850808,0,0,182.850808,556.5,240.84829)"/>
<path style="fill-rule:nonzero;fill:rgb(100%,92.941176%,43.529412%);fill-opacity:1;stroke-width:0.0234383;stroke-linecap:butt;stroke-linejoin:miter;stroke:rgb(60%,60%,60%);stroke-opacity:0.8;stroke-miterlimit:10;" d="M 0.117195 0.00000137981 C 0.117195 0.0647314 0.0647272 0.117199 -0.00000283902 0.117199 C -0.0647329 0.117199 -0.117201 0.0647314 -0.117201 0.00000137981 C -0.117201 -0.0647286 -0.0647329 -0.117196 -0.00000283902 -0.117196 C 0.0647272 -0.117196 0.117195 -0.0647286 0.117195 0.00000137981 Z M 0.117195 0.00000137981 " transform="matrix(182.850808,0,0,182.850808,428.734894,216.179435)"/>
<path style="fill-rule:nonzero;fill:rgb(100%,92.941176%,43.529412%);fill-opacity:1;stroke-width:0.0234383;stroke-linecap:butt;stroke-linejoin:miter;stroke:rgb(60%,60%,60%);stroke-opacity:0.8;stroke-miterlimit:10;" d="M 0.117187 0.00000909252 C 0.117187 0.0647178 0.0647194 0.117185 -0.0000106233 0.117185 C -0.0647193 0.117185 -0.117187 0.0647178 -0.117187 0.00000909252 C -0.117187 -0.0647209 -0.0647193 -0.117189 -0.0000106233 -0.117189 C 0.0647194 -0.117189 0.117187 -0.0647209 0.117187 0.00000909252 Z M 0.117187 0.00000909252 " transform="matrix(182.850808,0,0,182.850808,386.427724,505.201462)"/>
<path style="fill-rule:nonzero;fill:rgb(100%,92.941176%,43.529412%);fill-opacity:1;stroke-width:0.0234383;stroke-linecap:butt;stroke-linejoin:miter;stroke:rgb(60%,60%,60%);stroke-opacity:0.8;stroke-miterlimit:10;" d="M 0.1172 -0.00000341191 C 0.1172 0.0647266 0.0647326 0.117194 0.00000254143 0.117194 C -0.0647275 0.117194 -0.117195 0.0647266 -0.117195 -0.00000341191 C -0.117195 -0.0647334 -0.0647275 -0.117201 0.00000254143 -0.117201 C 0.0647326 -0.117201 0.1172 -0.0647334 0.1172 -0.00000341191 Z M 0.1172 -0.00000341191 " transform="matrix(182.850808,0,0,182.850808,432.054223,538.356093)"/>
<path style="fill-rule:nonzero;fill:rgb(100%,92.941176%,43.529412%);fill-opacity:1;stroke-width:0.0234383;stroke-linecap:butt;stroke-linejoin:miter;stroke:rgb(60%,60%,60%);stroke-opacity:0.8;stroke-miterlimit:10;" d="M 0.117183 -0.00000543521 C 0.117183 0.0647246 0.0647149 0.117192 0.00000620551 0.117192 C -0.0647238 0.117192 -0.117191 0.0647246 -0.117191 -0.00000543521 C -0.117191 -0.0647141 -0.0647238 -0.117182 0.00000620551 -0.117182 C 0.0647149 -0.117182 0.117183 -0.0647141 0.117183 -0.00000543521 Z M 0.117183 -0.00000543521 " transform="matrix(182.850808,0,0,182.850808,388.205897,330.168963)"/>
<path style="fill-rule:nonzero;fill:rgb(100%,92.941176%,43.529412%);fill-opacity:1;stroke-width:0.0234383;stroke-linecap:butt;stroke-linejoin:miter;stroke:rgb(60%,60%,60%);stroke-opacity:0.8;stroke-miterlimit:10;" d="M 0.117185 -0.0000104812 C 0.117185 0.0647195 0.0647169 0.117187 0.00000820885 0.117187 C -0.0647218 0.117187 -0.117189 0.0647195 -0.117189 -0.0000104812 C -0.117189 -0.0647191 -0.0647218 -0.117187 0.00000820885 -0.117187 C 0.0647169 -0.117187 0.117185 -0.0647191 0.117185 -0.0000104812 Z M 0.117185 -0.0000104812 " transform="matrix(182.850808,0,0,182.850808,317.740687,439.255823)"/>
<path style="fill-rule:nonzero;fill:rgb(55.294118%,82.745098%,78.039216%);fill-opacity:1;stroke-width:0.0234383;stroke-linecap:butt;stroke-linejoin:miter;stroke:rgb(60%,60%,60%);stroke-opacity:0.8;stroke-miterlimit:10;" d="M 0.117186 0.00000995593 C 0.117186 0.0647186 0.0647185 0.117186 0.00000986846 0.117186 C -0.0647202 0.117186 -0.117188 0.0647186 -0.117188 0.00000995593 C -0.117188 -0.0647201 -0.0647202 -0.117188 0.00000986846 -0.117188 C 0.0647185 -0.117188 0.117186 -0.0647201 0.117186 0.00000995593 Z M 0.117186 0.00000995593 " transform="matrix(182.850808,0,0,182.850808,390.193508,117.615367)"/>
<path style="fill-rule:nonzero;fill:rgb(55.294118%,82.745098%,78.039216%);fill-opacity:1;stroke-width:0.0234383;stroke-linecap:butt;stroke-linejoin:miter;stroke:rgb(60%,60%,60%);stroke-opacity:0.8;stroke-miterlimit:10;" d="M 0.117186 0.00000341191 C 0.117186 0.0647334 0.0647183 0.117201 0.0000096787 0.117201 C -0.0647203 0.117201 -0.117188 0.0647334 -0.117188 0.00000341191 C -0.117188 -0.0647266 -0.0647203 -0.117194 0.0000096787 -0.117194 C 0.0647183 -0.117194 0.117186 -0.0647266 0.117186 0.00000341191 Z M 0.117186 0.00000341191 " transform="matrix(182.850808,0,0,182.850808,358.084168,61.643907)"/>
<path style="fill-rule:nonzero;fill:rgb(100%,92.941176%,43.529412%);fill-opacity:1;stroke-width:0.0234383;stroke-linecap:butt;stroke-linejoin:miter;stroke:rgb(60%,60%,60%);stroke-opacity:0.8;stroke-miterlimit:10;" d="M 0.117201 -0.00000106052 C 0.117201 0.064729 0.0647329 0.117197 0.00000288764 0.117197 C -0.0647271 0.117197 -0.117195 0.064729 -0.117195 -0.00000106052 C -0.117195 -0.0647311 -0.0647271 -0.117199 0.00000288764 -0.117199 C 0.0647329 -0.117199 0.117201 -0.0647311 0.117201 -0.00000106052 Z M 0.117201 -0.00000106052 " transform="matrix(182.850808,0,0,182.850808,215.655722,386.863475)"/>
<path style="fill-rule:nonzero;fill:rgb(100%,92.941176%,43.529412%);fill-opacity:1;stroke-width:0.0234383;stroke-linecap:butt;stroke-linejoin:miter;stroke:rgb(60%,60%,60%);stroke-opacity:0.8;stroke-miterlimit:10;" d="M 0.117197 -0.00000346616 C 0.117197 0.0647266 0.0647293 0.117194 -0.000000714425 0.117194 C -0.0647307 0.117194 -0.117198 0.0647266 -0.117198 -0.00000346616 C -0.117198 -0.0647335 -0.0647307 -0.117201 -0.000000714425 -0.117201 C 0.0647293 -0.117201 0.117197 -0.0647335 0.117197 -0.00000346616 Z M 0.117197 -0.00000346616 " transform="matrix(182.850808,0,0,182.850808,64.566537,318.777978)"/>
<path style="fill-rule:nonzero;fill:rgb(100%,92.941176%,43.529412%);fill-opacity:1;stroke-width:0.0234383;stroke-linecap:butt;stroke-linejoin:miter;stroke:rgb(60%,60%,60%);stroke-opacity:0.8;stroke-miterlimit:10;" d="M 0.117185 -0.000000663533 C 0.117185 0.0647294 0.0647174 0.117197 0.0000086952 0.117197 C -0.0647213 0.117197 -0.117189 0.0647294 -0.117189 -0.000000663533 C -0.117189 -0.0647307 -0.0647213 -0.117198 0.0000086952 -0.117198 C 0.0647174 -0.117198 0.117185 -0.0647307 0.117185 -0.000000663533 Z M 0.117185 -0.000000663533 " transform="matrix(182.850808,0,0,182.850808,94.869504,238.078246)"/>
<path style="fill-rule:nonzero;fill:rgb(100%,92.941176%,43.529412%);fill-opacity:1;stroke-width:0.0234383;stroke-linecap:butt;stroke-linejoin:miter;stroke:rgb(60%,60%,60%);stroke-opacity:0.8;stroke-miterlimit:10;" d="M 0.117193 -0.0000103464 C 0.117193 0.0647197 0.0647258 0.117187 -0.00000424713 0.117187 C -0.0647129 0.117187 -0.117202 0.0647197 -0.117202 -0.0000103464 C -0.117202 -0.064719 -0.0647129 -0.117187 -0.00000424713 -0.117187 C 0.0647258 -0.117187 0.117193 -0.064719 0.117193 -0.0000103464 Z M 0.117193 -0.0000103464 " transform="matrix(182.850808,0,0,182.850808,131.106245,215.486267)"/>
<path style="fill-rule:nonzero;fill:rgb(100%,92.941176%,43.529412%);fill-opacity:1;stroke-width:0.0234383;stroke-linecap:butt;stroke-linejoin:miter;stroke:rgb(60%,60%,60%);stroke-opacity:0.8;stroke-miterlimit:10;" d="M 0.117182 0.00000248679 C 0.117182 0.0647325 0.0647143 0.1172 0.00000558858 0.1172 C -0.0647244 0.1172 -0.117192 0.0647325 -0.117192 0.00000248679 C -0.117192 -0.0647275 -0.0647244 -0.117195 0.00000558858 -0.117195 C 0.0647143 -0.117195 0.117182 -0.0647275 0.117182 0.00000248679 Z M 0.117182 0.00000248679 " transform="matrix(182.850808,0,0,182.850808,132.471634,295.444858)"/>
<path style="fill-rule:nonzero;fill:rgb(100%,92.941176%,43.529412%);fill-opacity:1;stroke-width:0.0234383;stroke-linecap:butt;stroke-linejoin:miter;stroke:rgb(60%,60%,60%);stroke-opacity:0.8;stroke-miterlimit:10;" d="M 0.117198 0.00000646252 C 0.117198 0.0647151 0.06473 0.117183 0 0.117183 C -0.06473 0.117183 -0.117198 0.0647151 -0.117198 0.00000646252 C -0.117198 -0.0647236 -0.06473 -0.117191 0 -0.117191 C 0.06473 -0.117191 0.117198 -0.0647236 0.117198 0.00000646252 Z M 0.117198 0.00000646252 " transform="matrix(182.850808,0,0,182.850808,43.5,270.748818)"/>
<path style="fill-rule:nonzero;fill:rgb(100%,92.941176%,43.529412%);fill-opacity:1;stroke-width:0.0234383;stroke-linecap:butt;stroke-linejoin:miter;stroke:rgb(60%,60%,60%);stroke-opacity:0.8;stroke-miterlimit:10;" d="M 0.117189 0.00000818733 C 0.117189 0.0647169 0.0647209 0.117184 -0.000009098 0.117184 C -0.0647178 0.117184 -0.117185 0.0647169 -0.117185 0.00000818733 C -0.117185 -0.0647218 -0.0647178 -0.117189 -0.000009098 -0.117189 C 0.0647209 -0.117189 0.117189 -0.0647218 0.117189 0.00000818733 Z M 0.117189 0.00000818733 " transform="matrix(182.850808,0,0,182.850808,276.396195,512.518034)"/>
</g>
</svg>
