<?xml version="1.0" encoding="UTF-8"?>
<svg xmlns="http://www.w3.org/2000/svg" xmlns:xlink="http://www.w3.org/1999/xlink" width="600pt" height="600pt" viewBox="0 0 600 600" version="1.1">
<defs>
<clipPath id="clip1">
  <path d="M 231.960938 67 L 380 67 L 380 198 L 231.960938 198 Z M 231.960938 67 "/>
</clipPath>
<clipPath id="clip2">
  <path d="M 231.960938 -100.402344 L 380 -100.402344 L 380 365.320312 L 231.960938 365.320312 Z M 231.960938 -100.402344 L 269.285156 135.265625 C 269.285156 147.488281 259.375 157.398438 247.152344 157.398438 C 234.929688 157.398438 225.023438 147.488281 225.023438 135.265625 C 225.023438 123.042969 234.929688 113.132812 247.152344 113.132812 C 259.375 113.132812 269.285156 123.042969 269.285156 135.265625 Z M 231.960938 -100.402344 "/>
</clipPath>
<clipPath id="clip3">
  <path d="M 231.960938 -100.402344 L 380 -100.402344 L 380 365.320312 L 231.960938 365.320312 Z M 231.960938 -100.402344 L 386.941406 129.652344 C 386.941406 141.875 377.03125 151.785156 364.808594 151.785156 C 352.585938 151.785156 342.679688 141.875 342.679688 129.652344 C 342.679688 117.429688 352.585938 107.519531 364.808594 107.519531 C 377.03125 107.519531 386.941406 117.429688 386.941406 129.652344 Z M 231.960938 -100.402344 "/>
</clipPath>
<clipPath id="clip4">
  <path d="M 184 72 L 454 72 L 454 283 L 184 283 Z M 184 72 "/>
</clipPath>
<clipPath id="clip5">
  <path d="M 128.285156 -63.910156 L 510.117188 -63.910156 L 510.117188 419.117188 L 128.285156 419.117188 Z M 128.285156 -63.910156 L 269.285156 135.265625 C 269.285156 147.488281 259.375 157.398438 247.152344 157.398438 C 234.929688 157.398438 225.023438 147.488281 225.023438 135.265625 C 225.023438 123.042969 234.929688 113.132812 247.152344 113.132812 C 259.375 113.132812 269.285156 123.042969 269.285156 135.265625 Z M 128.285156 -63.910156 "/>
</clipPath>
<clipPath id="clip6">
  <path d="M 128.285156 -63.910156 L 510.117188 -63.910156 L 510.117188 419.117188 L 128.285156 419.117188 Z M 128.285156 -63.910156 L 413.382812 219.941406 C 413.382812 232.164062 403.472656 242.070312 391.25 242.070312 C 379.027344 242.070312 369.121094 232.164062 369.121094 219.941406 C 369.121094 207.71875 379.027344 197.808594 391.25 197.808594 C 403.472656 197.808594 413.382812 207.71875 413.382812 219.941406 Z M 128.285156 -63.910156 "/>
</clipPath>
<clipPath id="clip7">
  <path d="M 60 72 L 310 72 L 310 267 L 60 267 Z M 60 72 "/>
</clipPath>
<clipPath id="clip8">
  <path d="M 8.882812 -66.390625 L 361.6875 -66.390625 L 361.6875 406 L 8.882812 406 Z M 8.882812 -66.390625 L 269.285156 135.265625 C 269.285156 147.488281 259.375 157.398438 247.152344 157.398438 C 234.929688 157.398438 225.023438 147.488281 225.023438 135.265625 C 225.023438 123.042969 234.929688 113.132812 247.152344 113.132812 C 259.375 113.132812 269.285156 123.042969 269.285156 135.265625 Z M 8.882812 -66.390625 "/>
</clipPath>
<clipPath id="clip9">
  <path d="M 8.882812 -66.390625 L 361.6875 -66.390625 L 361.6875 406 L 8.882812 406 Z M 8.882812 -66.390625 L 145.546875 204.34375 C 145.546875 216.566406 135.640625 226.472656 123.417969 226.472656 C 111.195312 226.472656 101.285156 216.566406 101.285156 204.34375 C 101.285156 192.121094 111.195312 182.210938 123.417969 182.210938 C 135.640625 182.210938 145.546875 192.121094 145.546875 204.34375 Z M 8.882812 -66.390625 "/>
</clipPath>
<clipPath id="clip10">
  <path d="M 117 0 L 310 0 L 310 198 L 117 198 Z M 117 0 "/>
</clipPath>
<clipPath id="clip11">
  <path d="M 5.703125 -94.660156 L 421.453125 -94.660156 L 421.453125 288.574219 L 5.703125 288.574219 Z M 5.703125 -94.660156 L 269.285156 135.265625 C 269.285156 147.488281 259.375 157.398438 247.152344 157.398438 C 234.929688 157.398438 225.023438 147.488281 225.023438 135.265625 C 225.023438 123.042969 234.929688 113.132812 247.152344 113.132812 C 259.375 113.132812 269.285156 123.042969 269.285156 135.265625 Z M 5.703125 -94.660156 "/>
</clipPath>
<clipPath id="clip12">
  <path d="M 5.703125 -94.660156 L 421.453125 -94.660156 L 421.453125 288.574219 L 5.703125 288.574219 Z M 5.703125 -94.660156 L 202.132812 58.648438 C 202.132812 70.871094 192.226562 80.78125 180.003906 80.78125 C 167.78125 80.78125 157.871094 70.871094 157.871094 58.648438 C 157.871094 46.425781 167.78125 36.519531 180.003906 36.519531 C 192.226562 36.519531 202.132812 46.425781 202.132812 58.648438 Z M 5.703125 -94.660156 "/>
</clipPath>
<clipPath id="clip13">
  <path d="M 97 17 L 310 17 L 310 198 L 97 198 Z M 97 17 "/>
</clipPath>
<clipPath id="clip14">
  <path d="M 34.578125 -115.148438 L 372.640625 -115.148438 L 372.640625 330.394531 L 34.578125 330.394531 Z M 34.578125 -115.148438 L 269.285156 135.265625 C 269.285156 147.488281 259.375 157.398438 247.152344 157.398438 C 234.929688 157.398438 225.023438 147.488281 225.023438 135.265625 C 225.023438 123.042969 234.929688 113.132812 247.152344 113.132812 C 259.375 113.132812 269.285156 123.042969 269.285156 135.265625 Z M 34.578125 -115.148438 "/>
</clipPath>
<clipPath id="clip15">
  <path d="M 34.578125 -115.148438 L 372.640625 -115.148438 L 372.640625 330.394531 L 34.578125 330.394531 Z M 34.578125 -115.148438 L 182.195312 79.980469 C 182.195312 92.203125 172.289062 102.109375 160.066406 102.109375 C 147.84375 102.109375 137.933594 92.203125 137.933594 79.980469 C 137.933594 67.757812 147.84375 57.847656 160.066406 57.847656 C 172.289062 57.847656 182.195312 67.757812 182.195312 79.980469 Z M 34.578125 -115.148438 "/>
</clipPath>
<clipPath id="clip16">
  <path d="M 302 67 L 454 67 L 454 283 L 302 283 Z M 302 67 "/>
</clipPath>
<clipPath id="clip17">
  <path d="M 143.605469 61.742188 L 612.453125 61.742188 L 612.453125 287.851562 L 143.605469 287.851562 Z M 143.605469 61.742188 L 386.941406 129.652344 C 386.941406 141.875 377.03125 151.785156 364.808594 151.785156 C 352.585938 151.785156 342.679688 141.875 342.679688 129.652344 C 342.679688 117.429688 352.585938 107.519531 364.808594 107.519531 C 377.03125 107.519531 386.941406 117.429688 386.941406 129.652344 Z M 143.605469 61.742188 "/>
</clipPath>
<clipPath id="clip18">
  <path d="M 143.605469 61.742188 L 612.453125 61.742188 L 612.453125 287.851562 L 143.605469 287.851562 Z M 143.605469 61.742188 L 413.382812 219.941406 C 413.382812 232.164062 403.472656 242.070312 391.25 242.070312 C 379.027344 242.070312 369.121094 232.164062 369.121094 219.941406 C 369.121094 207.71875 379.027344 197.808594 391.25 197.808594 C 403.472656 197.808594 413.382812 207.71875 413.382812 219.941406 Z M 143.605469 61.742188 "/>
</clipPath>
<clipPath id="clip19">
  <path d="M 328 157 L 512 157 L 512 417 L 328 417 Z M 328 157 "/>
</clipPath>
<clipPath id="clip20">
  <path d="M 179.613281 125.585938 L 661.035156 125.585938 L 661.035156 448.277344 L 179.613281 448.277344 Z M 179.613281 125.585938 L 413.382812 219.941406 C 413.382812 232.164062 403.472656 242.070312 391.25 242.070312 C 379.027344 242.070312 369.121094 232.164062 369.121094 219.941406 C 369.121094 207.71875 379.027344 197.808594 391.25 197.808594 C 403.472656 197.808594 413.382812 207.71875 413.382812 219.941406 Z M 179.613281 125.585938 "/>
</clipPath>
<clipPath id="clip21">
  <path d="M 179.613281 125.585938 L 661.035156 125.585938 L 661.035156 448.277344 L 179.613281 448.277344 Z M 179.613281 125.585938 L 471.53125 353.921875 C 471.53125 366.144531 461.621094 376.050781 449.398438 376.050781 C 437.175781 376.050781 427.269531 366.144531 427.269531 353.921875 C 427.269531 341.699219 437.175781 331.789062 449.398438 331.789062 C 461.621094 331.789062 471.53125 341.699219 471.53125 353.921875 Z M 179.613281 125.585938 "/>
</clipPath>
<clipPath id="clip22">
  <path d="M 328 157 L 490 157 L 490 386 L 328 386 Z M 328 157 "/>
</clipPath>
<clipPath id="clip23">
  <path d="M 173.402344 141.527344 L 644.804688 141.527344 L 644.804688 401.351562 L 173.402344 401.351562 Z M 173.402344 141.527344 L 413.382812 219.941406 C 413.382812 232.164062 403.472656 242.070312 391.25 242.070312 C 379.027344 242.070312 369.121094 232.164062 369.121094 219.941406 C 369.121094 207.71875 379.027344 197.808594 391.25 197.808594 C 403.472656 197.808594 413.382812 207.71875 413.382812 219.941406 Z M 173.402344 141.527344 "/>
</clipPath>
<clipPath id="clip24">
  <path d="M 173.402344 141.527344 L 644.804688 141.527344 L 644.804688 401.351562 L 173.402344 401.351562 Z M 173.402344 141.527344 L 449.085938 322.9375 C 449.085938 335.160156 439.179688 345.070312 426.957031 345.070312 C 414.730469 345.070312 404.824219 335.160156 404.824219 322.9375 C 404.824219 310.714844 414.730469 300.808594 426.957031 300.808594 C 439.179688 300.808594 449.085938 310.714844 449.085938 322.9375 Z M 173.402344 141.527344 "/>
</clipPath>
<clipPath id="clip25">
  <path d="M 311 364 L 547 364 L 547 520 L 311 520 Z M 311 364 "/>
</clipPath>
<clipPath id="clip26">
  <path d="M 309.25 204.746094 L 548.601562 204.746094 L 548.601562 679.542969 L 309.25 679.542969 Z M 309.25 204.746094 L 506.238281 426.921875 C 506.238281 439.144531 496.328125 449.050781 484.105469 449.050781 C 471.882812 449.050781 461.976562 439.144531 461.976562 426.921875 C 461.976562 414.699219 471.882812 404.789062 484.105469 404.789062 C 496.328125 404.789062 506.238281 414.699219 506.238281 426.921875 Z M 309.25 204.746094 "/>
</clipPath>
<clipPath id="clip27">
  <path d="M 309.25 204.746094 L 548.601562 204.746094 L 548.601562 679.542969 L 309.25 679.542969 Z M 309.25 204.746094 L 395.875 457.367188 C 395.875 469.589844 385.96875 479.496094 373.746094 479.496094 C 361.523438 479.496094 351.613281 469.589844 351.613281 457.367188 C 351.613281 445.144531 361.523438 435.234375 373.746094 435.234375 C 385.96875 435.234375 395.875 445.144531 395.875 457.367188 Z M 309.25 204.746094 "/>
</clipPath>
<clipPath id="clip28">
  <path d="M 386 291 L 547 291 L 547 490 L 386 490 Z M 386 291 "/>
</clipPath>
<clipPath id="clip29">
  <path d="M 240.972656 252.507812 L 692.53125 252.507812 L 692.53125 528.335938 L 240.972656 528.335938 Z M 240.972656 252.507812 L 506.238281 426.921875 C 506.238281 439.144531 496.328125 449.050781 484.105469 449.050781 C 471.882812 449.050781 461.976562 439.144531 461.976562 426.921875 C 461.976562 414.699219 471.882812 404.789062 484.105469 404.789062 C 496.328125 404.789062 506.238281 414.699219 506.238281 426.921875 Z M 240.972656 252.507812 "/>
</clipPath>
<clipPath id="clip30">
  <path d="M 240.972656 252.507812 L 692.53125 252.507812 L 692.53125 528.335938 L 240.972656 528.335938 Z M 240.972656 252.507812 L 471.53125 353.921875 C 471.53125 366.144531 461.621094 376.050781 449.398438 376.050781 C 437.175781 376.050781 427.269531 366.144531 427.269531 353.921875 C 427.269531 341.699219 437.175781 331.789062 449.398438 331.789062 C 461.621094 331.789062 471.53125 341.699219 471.53125 353.921875 Z M 240.972656 252.507812 "/>
</clipPath>
<clipPath id="clip31">
  <path d="M 311 291 L 512 291 L 512 520 L 311 520 Z M 311 291 "/>
</clipPath>
<clipPath id="clip32">
  <path d="M 186.992188 216.15625 L 636.152344 216.15625 L 636.152344 595.132812 L 186.992188 595.132812 Z M 186.992188 216.15625 L 395.875 457.367188 C 395.875 469.589844 385.96875 479.496094 373.746094 479.496094 C 361.523438 479.496094 351.613281 469.589844 351.613281 457.367188 C 351.613281 445.144531 361.523438 435.234375 373.746094 435.234375 C 385.96875 435.234375 395.875 445.144531 395.875 457.367188 Z M 186.992188 216.15625 "/>
</clipPath>
<clipPath id="clip33">
  <path d="M 186.992188 216.15625 L 636.152344 216.15625 L 636.152344 595.132812 L 186.992188 595.132812 Z M 186.992188 216.15625 L 471.53125 353.921875 C 471.53125 366.144531 461.621094 376.050781 449.398438 376.050781 C 437.175781 376.050781 427.269531 366.144531 427.269531 353.921875 C 427.269531 341.699219 437.175781 331.789062 449.398438 331.789062 C 461.621094 331.789062 471.53125 341.699219 471.53125 353.921875 Z M 186.992188 216.15625 "/>
</clipPath>
<clipPath id="clip34">
  <path d="M 311 260 L 490 260 L 490 520 L 311 520 Z M 311 260 "/>
</clipPath>
<clipPath id="clip35">
  <path d="M 159.292969 235.375 L 641.410156 235.375 L 641.410156 544.929688 L 159.292969 544.929688 Z M 159.292969 235.375 L 395.875 457.367188 C 395.875 469.589844 385.96875 479.496094 373.746094 479.496094 C 361.523438 479.496094 351.613281 469.589844 351.613281 457.367188 C 351.613281 445.144531 361.523438 435.234375 373.746094 435.234375 C 385.96875 435.234375 395.875 445.144531 395.875 457.367188 Z M 159.292969 235.375 "/>
</clipPath>
<clipPath id="clip36">
  <path d="M 159.292969 235.375 L 641.410156 235.375 L 641.410156 544.929688 L 159.292969 544.929688 Z M 159.292969 235.375 L 449.085938 322.9375 C 449.085938 335.160156 439.179688 345.070312 426.957031 345.070312 C 414.730469 345.070312 404.824219 335.160156 404.824219 322.9375 C 404.824219 310.714844 414.730469 300.808594 426.957031 300.808594 C 439.179688 300.808594 449.085938 310.714844 449.085938 322.9375 Z M 159.292969 235.375 "/>
</clipPath>
<clipPath id="clip37">
  <path d="M 173 394 L 437 394 L 437 586 L 173 586 Z M 173 394 "/>
</clipPath>
<clipPath id="clip38">
  <path d="M 134.730469 248.894531 L 475.0625 248.894531 L 475.0625 731.226562 L 134.730469 731.226562 Z M 134.730469 248.894531 L 395.875 457.367188 C 395.875 469.589844 385.96875 479.496094 373.746094 479.496094 C 361.523438 479.496094 351.613281 469.589844 351.613281 457.367188 C 351.613281 445.144531 361.523438 435.234375 373.746094 435.234375 C 385.96875 435.234375 395.875 445.144531 395.875 457.367188 Z M 134.730469 248.894531 "/>
</clipPath>
<clipPath id="clip39">
  <path d="M 134.730469 248.894531 L 475.0625 248.894531 L 475.0625 731.226562 L 134.730469 731.226562 Z M 134.730469 248.894531 L 258.179688 522.753906 C 258.179688 534.976562 248.269531 544.882812 236.046875 544.882812 C 223.824219 544.882812 213.917969 534.976562 213.917969 522.753906 C 213.917969 510.53125 223.824219 500.621094 236.046875 500.621094 C 248.269531 500.621094 258.179688 510.53125 258.179688 522.753906 Z M 134.730469 248.894531 "/>
</clipPath>
<clipPath id="clip40">
  <path d="M 282 394 L 437 394 L 437 600 L 282 600 Z M 282 394 "/>
</clipPath>
<clipPath id="clip41">
  <path d="M 125.363281 385.386719 L 593.71875 385.386719 L 593.71875 619.996094 L 125.363281 619.996094 Z M 125.363281 385.386719 L 395.875 457.367188 C 395.875 469.589844 385.96875 479.496094 373.746094 479.496094 C 361.523438 479.496094 351.613281 469.589844 351.613281 457.367188 C 351.613281 445.144531 361.523438 435.234375 373.746094 435.234375 C 385.96875 435.234375 395.875 445.144531 395.875 457.367188 Z M 125.363281 385.386719 "/>
</clipPath>
<clipPath id="clip42">
  <path d="M 125.363281 385.386719 L 593.71875 385.386719 L 593.71875 619.996094 L 125.363281 619.996094 Z M 125.363281 385.386719 L 367.464844 548.015625 C 367.464844 560.238281 357.558594 570.144531 345.335938 570.144531 C 333.113281 570.144531 323.203125 560.238281 323.203125 548.015625 C 323.203125 535.792969 333.113281 525.882812 345.335938 525.882812 C 357.558594 525.882812 367.464844 535.792969 367.464844 548.015625 Z M 125.363281 385.386719 "/>
</clipPath>
<clipPath id="clip43">
  <path d="M 210 394 L 437 394 L 437 600 L 210 600 Z M 210 394 "/>
</clipPath>
<clipPath id="clip44">
  <path d="M 126.15625 278.023438 L 521.09375 278.023438 L 521.09375 718.617188 L 126.15625 718.617188 Z M 126.15625 278.023438 L 395.875 457.367188 C 395.875 469.589844 385.96875 479.496094 373.746094 479.496094 C 361.523438 479.496094 351.613281 469.589844 351.613281 457.367188 C 351.613281 445.144531 361.523438 435.234375 373.746094 435.234375 C 385.96875 435.234375 395.875 445.144531 395.875 457.367188 Z M 126.15625 278.023438 "/>
</clipPath>
<clipPath id="clip45">
  <path d="M 126.15625 278.023438 L 521.09375 278.023438 L 521.09375 718.617188 L 126.15625 718.617188 Z M 126.15625 278.023438 L 295.636719 539.273438 C 295.636719 551.496094 285.726562 561.40625 273.503906 561.40625 C 261.28125 561.40625 251.371094 551.496094 251.371094 539.273438 C 251.371094 527.050781 261.28125 517.144531 273.503906 517.144531 C 285.726562 517.144531 295.636719 527.050781 295.636719 539.273438 Z M 126.15625 278.023438 "/>
</clipPath>
<clipPath id="clip46">
  <path d="M 364 260 L 512 260 L 512 417 L 364 417 Z M 364 260 "/>
</clipPath>
<clipPath id="clip47">
  <path d="M 239.589844 186.011719 L 636.765625 186.011719 L 636.765625 490.847656 L 239.589844 490.847656 Z M 239.589844 186.011719 L 471.53125 353.921875 C 471.53125 366.144531 461.621094 376.050781 449.398438 376.050781 C 437.175781 376.050781 427.269531 366.144531 427.269531 353.921875 C 427.269531 341.699219 437.175781 331.789062 449.398438 331.789062 C 461.621094 331.789062 471.53125 341.699219 471.53125 353.921875 Z M 239.589844 186.011719 "/>
</clipPath>
<clipPath id="clip48">
  <path d="M 239.589844 186.011719 L 636.765625 186.011719 L 636.765625 490.847656 L 239.589844 490.847656 Z M 239.589844 186.011719 L 449.085938 322.9375 C 449.085938 335.160156 439.179688 345.070312 426.957031 345.070312 C 414.730469 345.070312 404.824219 335.160156 404.824219 322.9375 C 404.824219 310.714844 414.730469 300.808594 426.957031 300.808594 C 439.179688 300.808594 449.085938 310.714844 449.085938 322.9375 Z M 239.589844 186.011719 "/>
</clipPath>
<clipPath id="clip49">
  <path d="M 97 0 L 243 0 L 243 143 L 97 143 Z M 97 0 "/>
</clipPath>
<clipPath id="clip50">
  <path d="M -9.386719 -100.015625 L 349.457031 -100.015625 L 349.457031 238.644531 L -9.386719 238.644531 Z M -9.386719 -100.015625 L 202.132812 58.648438 C 202.132812 70.871094 192.226562 80.78125 180.003906 80.78125 C 167.78125 80.78125 157.871094 70.871094 157.871094 58.648438 C 157.871094 46.425781 167.78125 36.519531 180.003906 36.519531 C 192.226562 36.519531 202.132812 46.425781 202.132812 58.648438 Z M -9.386719 -100.015625 "/>
</clipPath>
<clipPath id="clip51">
  <path d="M -9.386719 -100.015625 L 349.457031 -100.015625 L 349.457031 238.644531 L -9.386719 238.644531 Z M -9.386719 -100.015625 L 182.195312 79.980469 C 182.195312 92.203125 172.289062 102.109375 160.066406 102.109375 C 147.84375 102.109375 137.933594 92.203125 137.933594 79.980469 C 137.933594 67.757812 147.84375 57.847656 160.066406 57.847656 C 172.289062 57.847656 182.195312 67.757812 182.195312 79.980469 Z M -9.386719 -100.015625 "/>
</clipPath>
<clipPath id="clip52">
  <path d="M 62.570312 0 L 233.328125 0 L 233.328125 122 L 62.570312 122 Z M 62.570312 0 "/>
</clipPath>
<clipPath id="clip53">
  <path d="M 62.570312 -180.519531 L 233.328125 -180.519531 L 233.328125 283.601562 L 62.570312 283.601562 Z M 62.570312 -180.519531 L 202.132812 58.648438 C 202.132812 70.871094 192.226562 80.78125 180.003906 80.78125 C 167.78125 80.78125 157.871094 70.871094 157.871094 58.648438 C 157.871094 46.425781 167.78125 36.519531 180.003906 36.519531 C 192.226562 36.519531 202.132812 46.425781 202.132812 58.648438 Z M 62.570312 -180.519531 "/>
</clipPath>
<clipPath id="clip54">
  <path d="M 62.570312 -180.519531 L 233.328125 -180.519531 L 233.328125 283.601562 L 62.570312 283.601562 Z M 62.570312 -180.519531 L 138.023438 44.433594 C 138.023438 56.65625 128.117188 66.566406 115.894531 66.566406 C 103.671875 66.566406 93.761719 56.65625 93.761719 44.433594 C 93.761719 32.210938 103.671875 22.304688 115.894531 22.304688 C 128.117188 22.304688 138.023438 32.210938 138.023438 44.433594 Z M 62.570312 -180.519531 "/>
</clipPath>
<clipPath id="clip55">
  <path d="M 53 0 L 223 0 L 223 143 L 53 143 Z M 53 0 "/>
</clipPath>
<clipPath id="clip56">
  <path d="M -30.148438 -135.96875 L 306.109375 -135.96875 L 306.109375 260.382812 L -30.148438 260.382812 Z M -30.148438 -135.96875 L 182.195312 79.980469 C 182.195312 92.203125 172.289062 102.109375 160.066406 102.109375 C 147.84375 102.109375 137.933594 92.203125 137.933594 79.980469 C 137.933594 67.757812 147.84375 57.847656 160.066406 57.847656 C 172.289062 57.847656 182.195312 67.757812 182.195312 79.980469 Z M -30.148438 -135.96875 "/>
</clipPath>
<clipPath id="clip57">
  <path d="M -30.148438 -135.96875 L 306.109375 -135.96875 L 306.109375 260.382812 L -30.148438 260.382812 Z M -30.148438 -135.96875 L 138.023438 44.433594 C 138.023438 56.65625 128.117188 66.566406 115.894531 66.566406 C 103.671875 66.566406 93.761719 56.65625 93.761719 44.433594 C 93.761719 32.210938 103.671875 22.304688 115.894531 22.304688 C 128.117188 22.304688 138.023438 32.210938 138.023438 44.433594 Z M -30.148438 -135.96875 "/>
</clipPath>
<clipPath id="clip58">
  <path d="M 115 460 L 299 460 L 299 600 L 115 600 Z M 115 460 "/>
</clipPath>
<clipPath id="clip59">
  <path d="M 62.398438 321.726562 L 351.695312 321.726562 L 351.695312 756.59375 L 62.398438 756.59375 Z M 62.398438 321.726562 L 258.179688 522.753906 C 258.179688 534.976562 248.269531 544.882812 236.046875 544.882812 C 223.824219 544.882812 213.917969 534.976562 213.917969 522.753906 C 213.917969 510.53125 223.824219 500.621094 236.046875 500.621094 C 248.269531 500.621094 258.179688 510.53125 258.179688 522.753906 Z M 62.398438 321.726562 "/>
</clipPath>
<clipPath id="clip60">
  <path d="M 62.398438 321.726562 L 351.695312 321.726562 L 351.695312 756.59375 L 62.398438 756.59375 Z M 62.398438 321.726562 L 200.179688 555.566406 C 200.179688 567.789062 190.269531 577.695312 178.046875 577.695312 C 165.824219 577.695312 155.917969 567.789062 155.917969 555.566406 C 155.917969 543.34375 165.824219 533.433594 178.046875 533.433594 C 190.269531 533.433594 200.179688 543.34375 200.179688 555.566406 Z M 62.398438 321.726562 "/>
</clipPath>
<clipPath id="clip61">
  <path d="M 173 460 L 337 460 L 337 600 L 173 600 Z M 173 460 "/>
</clipPath>
<clipPath id="clip62">
  <path d="M 140.472656 311.652344 L 369.078125 311.652344 L 369.078125 750.375 L 140.472656 750.375 Z M 140.472656 311.652344 L 258.179688 522.753906 C 258.179688 534.976562 248.269531 544.882812 236.046875 544.882812 C 223.824219 544.882812 213.917969 534.976562 213.917969 522.753906 C 213.917969 510.53125 223.824219 500.621094 236.046875 500.621094 C 248.269531 500.621094 258.179688 510.53125 258.179688 522.753906 Z M 140.472656 311.652344 "/>
</clipPath>
<clipPath id="clip63">
  <path d="M 140.472656 311.652344 L 369.078125 311.652344 L 369.078125 750.375 L 140.472656 750.375 Z M 140.472656 311.652344 L 295.636719 539.273438 C 295.636719 551.496094 285.726562 561.40625 273.503906 561.40625 C 261.28125 561.40625 251.371094 551.496094 251.371094 539.273438 C 251.371094 527.050781 261.28125 517.144531 273.503906 517.144531 C 285.726562 517.144531 295.636719 527.050781 295.636719 539.273438 Z M 140.472656 311.652344 "/>
</clipPath>
<clipPath id="clip64">
  <path d="M 135.617188 476 L 315.933594 476 L 315.933594 600 L 135.617188 600 Z M 135.617188 476 "/>
</clipPath>
<clipPath id="clip65">
  <path d="M 135.617188 312.183594 L 315.933594 312.183594 L 315.933594 782.65625 L 135.617188 782.65625 Z M 135.617188 312.183594 L 200.179688 555.566406 C 200.179688 567.789062 190.269531 577.695312 178.046875 577.695312 C 165.824219 577.695312 155.917969 567.789062 155.917969 555.566406 C 155.917969 543.34375 165.824219 533.433594 178.046875 533.433594 C 190.269531 533.433594 200.179688 543.34375 200.179688 555.566406 Z M 135.617188 312.183594 "/>
</clipPath>
<clipPath id="clip66">
  <path d="M 135.617188 312.183594 L 315.933594 312.183594 L 315.933594 782.65625 L 135.617188 782.65625 Z M 135.617188 312.183594 L 295.636719 539.273438 C 295.636719 551.496094 285.726562 561.40625 273.503906 561.40625 C 261.28125 561.40625 251.371094 551.496094 251.371094 539.273438 C 251.371094 527.050781 261.28125 517.144531 273.503906 517.144531 C 285.726562 517.144531 295.636719 527.050781 295.636719 539.273438 Z M 135.617188 312.183594 "/>
</clipPath>
<clipPath id="clip67">
  <path d="M 241.789062 476 L 377.050781 476 L 377.050781 600 L 241.789062 600 Z M 241.789062 476 "/>
</clipPath>
<clipPath id="clip68">
  <path d="M 241.789062 310.617188 L 377.050781 310.617188 L 377.050781 776.671875 L 241.789062 776.671875 Z M 241.789062 310.617188 L 367.464844 548.015625 C 367.464844 560.238281 357.558594 570.144531 345.335938 570.144531 C 333.113281 570.144531 323.203125 560.238281 323.203125 548.015625 C 323.203125 535.792969 333.113281 525.882812 345.335938 525.882812 C 357.558594 525.882812 367.464844 535.792969 367.464844 548.015625 Z M 241.789062 310.617188 "/>
</clipPath>
<clipPath id="clip69">
  <path d="M 241.789062 310.617188 L 377.050781 310.617188 L 377.050781 776.671875 L 241.789062 776.671875 Z M 241.789062 310.617188 L 295.636719 539.273438 C 295.636719 551.496094 285.726562 561.40625 273.503906 561.40625 C 261.28125 561.40625 251.371094 551.496094 251.371094 539.273438 C 251.371094 527.050781 261.28125 517.144531 273.503906 517.144531 C 285.726562 517.144531 295.636719 527.050781 295.636719 539.273438 Z M 241.789062 310.617188 "/>
</clipPath>
</defs>
<g id="surface251">
<g clip-path="url(#clip1)" clip-rule="nonzero">
<g clip-path="url(#clip2)" clip-rule="evenodd">
<g clip-path="url(#clip3)" clip-rule="evenodd">
<path style="fill:none;stroke-width:0.0195953;stroke-linecap:butt;stroke-linejoin:miter;stroke:rgb(17.96875%,20.3125%,21.09375%);stroke-opacity:0.8;stroke-miterlimit:10;" d="M 1.720105 1.589794 L 2.240976 1.564944 " transform="matrix(225.883895,0,0,225.883895,-141.391685,-223.843289)"/>
</g>
</g>
</g>
<g clip-path="url(#clip4)" clip-rule="nonzero">
<g clip-path="url(#clip5)" clip-rule="evenodd">
<g clip-path="url(#clip6)" clip-rule="evenodd">
<path style="fill:none;stroke-width:0.0195953;stroke-linecap:butt;stroke-linejoin:miter;stroke:rgb(17.96875%,20.3125%,21.09375%);stroke-opacity:0.8;stroke-miterlimit:10;" d="M 1.720105 1.589794 L 2.358033 1.964658 " transform="matrix(225.883895,0,0,225.883895,-141.391685,-223.843289)"/>
</g>
</g>
</g>
<g clip-path="url(#clip7)" clip-rule="nonzero">
<g clip-path="url(#clip8)" clip-rule="evenodd">
<g clip-path="url(#clip9)" clip-rule="evenodd">
<path style="fill:none;stroke-width:0.0195953;stroke-linecap:butt;stroke-linejoin:miter;stroke:rgb(17.96875%,20.3125%,21.09375%);stroke-opacity:0.8;stroke-miterlimit:10;" d="M 1.720105 1.589794 L 1.172326 1.895607 " transform="matrix(225.883895,0,0,225.883895,-141.391685,-223.843289)"/>
</g>
</g>
</g>
<g clip-path="url(#clip10)" clip-rule="nonzero">
<g clip-path="url(#clip11)" clip-rule="evenodd">
<g clip-path="url(#clip12)" clip-rule="evenodd">
<path style="fill:none;stroke-width:0.0195953;stroke-linecap:butt;stroke-linejoin:miter;stroke:rgb(17.96875%,20.3125%,21.09375%);stroke-opacity:0.8;stroke-miterlimit:10;" d="M 1.720105 1.589794 L 1.422835 1.250606 " transform="matrix(225.883895,0,0,225.883895,-141.391685,-223.843289)"/>
</g>
</g>
</g>
<g clip-path="url(#clip13)" clip-rule="nonzero">
<g clip-path="url(#clip14)" clip-rule="evenodd">
<g clip-path="url(#clip15)" clip-rule="evenodd">
<path style="fill:none;stroke-width:0.0195953;stroke-linecap:butt;stroke-linejoin:miter;stroke:rgb(17.96875%,20.3125%,21.09375%);stroke-opacity:0.8;stroke-miterlimit:10;" d="M 1.720105 1.589794 L 1.334571 1.345044 " transform="matrix(225.883895,0,0,225.883895,-141.391685,-223.843289)"/>
</g>
</g>
</g>
<g clip-path="url(#clip16)" clip-rule="nonzero">
<g clip-path="url(#clip17)" clip-rule="evenodd">
<g clip-path="url(#clip18)" clip-rule="evenodd">
<path style="fill:none;stroke-width:0.0195953;stroke-linecap:butt;stroke-linejoin:miter;stroke:rgb(17.96875%,20.3125%,21.09375%);stroke-opacity:0.8;stroke-miterlimit:10;" d="M 2.240976 1.564944 L 2.358033 1.964658 " transform="matrix(225.883895,0,0,225.883895,-141.391685,-223.843289)"/>
</g>
</g>
</g>
<g clip-path="url(#clip19)" clip-rule="nonzero">
<g clip-path="url(#clip20)" clip-rule="evenodd">
<g clip-path="url(#clip21)" clip-rule="evenodd">
<path style="fill:none;stroke-width:0.0195953;stroke-linecap:butt;stroke-linejoin:miter;stroke:rgb(17.96875%,20.3125%,21.09375%);stroke-opacity:0.8;stroke-miterlimit:10;" d="M 2.358033 1.964658 L 2.615459 2.557797 " transform="matrix(225.883895,0,0,225.883895,-141.391685,-223.843289)"/>
</g>
</g>
</g>
<g clip-path="url(#clip22)" clip-rule="nonzero">
<g clip-path="url(#clip23)" clip-rule="evenodd">
<g clip-path="url(#clip24)" clip-rule="evenodd">
<path style="fill:none;stroke-width:0.0195953;stroke-linecap:butt;stroke-linejoin:miter;stroke:rgb(17.96875%,20.3125%,21.09375%);stroke-opacity:0.8;stroke-miterlimit:10;" d="M 2.358033 1.964658 L 2.51611 2.420628 " transform="matrix(225.883895,0,0,225.883895,-141.391685,-223.843289)"/>
</g>
</g>
</g>
<g clip-path="url(#clip25)" clip-rule="nonzero">
<g clip-path="url(#clip26)" clip-rule="evenodd">
<g clip-path="url(#clip27)" clip-rule="evenodd">
<path style="fill:none;stroke-width:0.0195953;stroke-linecap:butt;stroke-linejoin:miter;stroke:rgb(17.96875%,20.3125%,21.09375%);stroke-opacity:0.8;stroke-miterlimit:10;" d="M 2.769109 2.880972 L 2.280542 3.015755 " transform="matrix(225.883895,0,0,225.883895,-141.391685,-223.843289)"/>
</g>
</g>
</g>
<g clip-path="url(#clip28)" clip-rule="nonzero">
<g clip-path="url(#clip29)" clip-rule="evenodd">
<g clip-path="url(#clip30)" clip-rule="evenodd">
<path style="fill:none;stroke-width:0.0195953;stroke-linecap:butt;stroke-linejoin:miter;stroke:rgb(17.96875%,20.3125%,21.09375%);stroke-opacity:0.8;stroke-miterlimit:10;" d="M 2.769109 2.880972 L 2.615459 2.557797 " transform="matrix(225.883895,0,0,225.883895,-141.391685,-223.843289)"/>
</g>
</g>
</g>
<g clip-path="url(#clip31)" clip-rule="nonzero">
<g clip-path="url(#clip32)" clip-rule="evenodd">
<g clip-path="url(#clip33)" clip-rule="evenodd">
<path style="fill:none;stroke-width:0.0195953;stroke-linecap:butt;stroke-linejoin:miter;stroke:rgb(17.96875%,20.3125%,21.09375%);stroke-opacity:0.8;stroke-miterlimit:10;" d="M 2.280542 3.015755 L 2.615459 2.557797 " transform="matrix(225.883895,0,0,225.883895,-141.391685,-223.843289)"/>
</g>
</g>
</g>
<g clip-path="url(#clip34)" clip-rule="nonzero">
<g clip-path="url(#clip35)" clip-rule="evenodd">
<g clip-path="url(#clip36)" clip-rule="evenodd">
<path style="fill:none;stroke-width:0.0195953;stroke-linecap:butt;stroke-linejoin:miter;stroke:rgb(17.96875%,20.3125%,21.09375%);stroke-opacity:0.8;stroke-miterlimit:10;" d="M 2.280542 3.015755 L 2.51611 2.420628 " transform="matrix(225.883895,0,0,225.883895,-141.391685,-223.843289)"/>
</g>
</g>
</g>
<g clip-path="url(#clip37)" clip-rule="nonzero">
<g clip-path="url(#clip38)" clip-rule="evenodd">
<g clip-path="url(#clip39)" clip-rule="evenodd">
<path style="fill:none;stroke-width:0.0195953;stroke-linecap:butt;stroke-linejoin:miter;stroke:rgb(17.96875%,20.3125%,21.09375%);stroke-opacity:0.8;stroke-miterlimit:10;" d="M 2.280542 3.015755 L 1.670941 3.305225 " transform="matrix(225.883895,0,0,225.883895,-141.391685,-223.843289)"/>
</g>
</g>
</g>
<g clip-path="url(#clip40)" clip-rule="nonzero">
<g clip-path="url(#clip41)" clip-rule="evenodd">
<g clip-path="url(#clip42)" clip-rule="evenodd">
<path style="fill:none;stroke-width:0.0195953;stroke-linecap:butt;stroke-linejoin:miter;stroke:rgb(17.96875%,20.3125%,21.09375%);stroke-opacity:0.8;stroke-miterlimit:10;" d="M 2.280542 3.015755 L 2.154769 3.41706 " transform="matrix(225.883895,0,0,225.883895,-141.391685,-223.843289)"/>
</g>
</g>
</g>
<g clip-path="url(#clip43)" clip-rule="nonzero">
<g clip-path="url(#clip44)" clip-rule="evenodd">
<g clip-path="url(#clip45)" clip-rule="evenodd">
<path style="fill:none;stroke-width:0.0195953;stroke-linecap:butt;stroke-linejoin:miter;stroke:rgb(17.96875%,20.3125%,21.09375%);stroke-opacity:0.8;stroke-miterlimit:10;" d="M 2.280542 3.015755 L 1.836765 3.378358 " transform="matrix(225.883895,0,0,225.883895,-141.391685,-223.843289)"/>
</g>
</g>
</g>
<g clip-path="url(#clip46)" clip-rule="nonzero">
<g clip-path="url(#clip47)" clip-rule="evenodd">
<g clip-path="url(#clip48)" clip-rule="evenodd">
<path style="fill:none;stroke-width:0.0195953;stroke-linecap:butt;stroke-linejoin:miter;stroke:rgb(17.96875%,20.3125%,21.09375%);stroke-opacity:0.8;stroke-miterlimit:10;" d="M 2.615459 2.557797 L 2.51611 2.420628 " transform="matrix(225.883895,0,0,225.883895,-141.391685,-223.843289)"/>
</g>
</g>
</g>
<g clip-path="url(#clip49)" clip-rule="nonzero">
<g clip-path="url(#clip50)" clip-rule="evenodd">
<g clip-path="url(#clip51)" clip-rule="evenodd">
<path style="fill:none;stroke-width:0.0195953;stroke-linecap:butt;stroke-linejoin:miter;stroke:rgb(17.96875%,20.3125%,21.09375%);stroke-opacity:0.8;stroke-miterlimit:10;" d="M 1.422835 1.250606 L 1.334571 1.345044 " transform="matrix(225.883895,0,0,225.883895,-141.391685,-223.843289)"/>
</g>
</g>
</g>
<g clip-path="url(#clip52)" clip-rule="nonzero">
<g clip-path="url(#clip53)" clip-rule="evenodd">
<g clip-path="url(#clip54)" clip-rule="evenodd">
<path style="fill:none;stroke-width:0.0195953;stroke-linecap:butt;stroke-linejoin:miter;stroke:rgb(17.96875%,20.3125%,21.09375%);stroke-opacity:0.8;stroke-miterlimit:10;" d="M 1.422835 1.250606 L 1.13902 1.187676 " transform="matrix(225.883895,0,0,225.883895,-141.391685,-223.843289)"/>
</g>
</g>
</g>
<g clip-path="url(#clip55)" clip-rule="nonzero">
<g clip-path="url(#clip56)" clip-rule="evenodd">
<g clip-path="url(#clip57)" clip-rule="evenodd">
<path style="fill:none;stroke-width:0.0195953;stroke-linecap:butt;stroke-linejoin:miter;stroke:rgb(17.96875%,20.3125%,21.09375%);stroke-opacity:0.8;stroke-miterlimit:10;" d="M 1.334571 1.345044 L 1.13902 1.187676 " transform="matrix(225.883895,0,0,225.883895,-141.391685,-223.843289)"/>
</g>
</g>
</g>
<g clip-path="url(#clip58)" clip-rule="nonzero">
<g clip-path="url(#clip59)" clip-rule="evenodd">
<g clip-path="url(#clip60)" clip-rule="evenodd">
<path style="fill:none;stroke-width:0.0195953;stroke-linecap:butt;stroke-linejoin:miter;stroke:rgb(17.96875%,20.3125%,21.09375%);stroke-opacity:0.8;stroke-miterlimit:10;" d="M 1.670941 3.305225 L 1.414171 3.450488 " transform="matrix(225.883895,0,0,225.883895,-141.391685,-223.843289)"/>
</g>
</g>
</g>
<g clip-path="url(#clip61)" clip-rule="nonzero">
<g clip-path="url(#clip62)" clip-rule="evenodd">
<g clip-path="url(#clip63)" clip-rule="evenodd">
<path style="fill:none;stroke-width:0.0195953;stroke-linecap:butt;stroke-linejoin:miter;stroke:rgb(17.96875%,20.3125%,21.09375%);stroke-opacity:0.8;stroke-miterlimit:10;" d="M 1.670941 3.305225 L 1.836765 3.378358 " transform="matrix(225.883895,0,0,225.883895,-141.391685,-223.843289)"/>
</g>
</g>
</g>
<g clip-path="url(#clip64)" clip-rule="nonzero">
<g clip-path="url(#clip65)" clip-rule="evenodd">
<g clip-path="url(#clip66)" clip-rule="evenodd">
<path style="fill:none;stroke-width:0.0195953;stroke-linecap:butt;stroke-linejoin:miter;stroke:rgb(17.96875%,20.3125%,21.09375%);stroke-opacity:0.8;stroke-miterlimit:10;" d="M 1.414171 3.450488 L 1.836765 3.378358 " transform="matrix(225.883895,0,0,225.883895,-141.391685,-223.843289)"/>
</g>
</g>
</g>
<g clip-path="url(#clip67)" clip-rule="nonzero">
<g clip-path="url(#clip68)" clip-rule="evenodd">
<g clip-path="url(#clip69)" clip-rule="evenodd">
<path style="fill:none;stroke-width:0.0195953;stroke-linecap:butt;stroke-linejoin:miter;stroke:rgb(17.96875%,20.3125%,21.09375%);stroke-opacity:0.8;stroke-miterlimit:10;" d="M 2.154769 3.41706 L 1.836765 3.378358 " transform="matrix(225.883895,0,0,225.883895,-141.391685,-223.843289)"/>
</g>
</g>
</g>
<path style="fill-rule:nonzero;fill:rgb(100%,92.941176%,43.529412%);fill-opacity:1;stroke-width:0.0195953;stroke-linecap:butt;stroke-linejoin:miter;stroke:rgb(60%,60%,60%);stroke-opacity:0.8;stroke-miterlimit:10;" d="M 0.0979792 0.0000013071 C 0.0979792 0.0541117 0.0541065 0.0979844 -0.00000389451 0.0979844 C -0.0541142 0.0979844 -0.0979697 0.0541117 -0.0979697 0.0000013071 C -0.0979697 -0.054109 -0.0541142 -0.0979818 -0.00000389451 -0.0979818 C 0.0541065 -0.0979818 0.0979792 -0.054109 0.0979792 0.0000013071 Z M 0.0979792 0.0000013071 " transform="matrix(225.883895,0,0,225.883895,247.153223,135.26533)"/>
<path style="fill-rule:nonzero;fill:rgb(55.294118%,82.745098%,78.039216%);fill-opacity:1;stroke-width:0.0195953;stroke-linecap:butt;stroke-linejoin:miter;stroke:rgb(60%,60%,60%);stroke-opacity:0.8;stroke-miterlimit:10;" d="M 0.0979765 0.0000015103 C 0.0979765 0.0541119 0.0541037 0.0979846 -0.00000667179 0.0979846 C -0.054117 0.0979846 -0.0979725 0.0541119 -0.0979725 0.0000015103 C -0.0979725 -0.0541088 -0.054117 -0.0979816 -0.00000667179 -0.0979816 C 0.0541037 -0.0979816 0.0979765 -0.0541088 0.0979765 0.0000015103 Z M 0.0979765 0.0000015103 " transform="matrix(225.883895,0,0,225.883895,364.810101,129.652003)"/>
<path style="fill-rule:nonzero;fill:rgb(55.294118%,82.745098%,78.039216%);fill-opacity:1;stroke-width:0.0195953;stroke-linecap:butt;stroke-linejoin:miter;stroke:rgb(60%,60%,60%);stroke-opacity:0.8;stroke-miterlimit:10;" d="M 0.0979785 0.00000618966 C 0.0979785 0.0541165 0.0541057 0.097972 -0.00000466413 0.097972 C -0.054115 0.097972 -0.0979705 0.0541165 -0.0979705 0.00000618966 C -0.0979705 -0.0541042 -0.054115 -0.0979769 -0.00000466413 -0.0979769 C 0.0541057 -0.0979769 0.0979785 -0.0541042 0.0979785 0.00000618966 Z M 0.0979785 0.00000618966 " transform="matrix(225.883895,0,0,225.883895,391.251054,219.940008)"/>
<path style="fill-rule:nonzero;fill:rgb(100%,92.941176%,43.529412%);fill-opacity:1;stroke-width:0.0195953;stroke-linecap:butt;stroke-linejoin:miter;stroke:rgb(60%,60%,60%);stroke-opacity:0.8;stroke-miterlimit:10;" d="M 0.0979682 0.00000284878 C 0.0979682 0.0541132 0.0541127 0.0979687 0.00000232947 0.0979687 C -0.054108 0.0979687 -0.0979808 0.0541132 -0.0979808 0.00000284878 C -0.0979808 -0.0541075 -0.054108 -0.0979803 0.00000232947 -0.0979803 C 0.0541127 -0.0979803 0.0979682 -0.0541075 0.0979682 0.00000284878 Z M 0.0979682 0.00000284878 " transform="matrix(225.883895,0,0,225.883895,123.417443,204.343107)"/>
<path style="fill-rule:nonzero;fill:rgb(55.294118%,82.745098%,78.039216%);fill-opacity:1;stroke-width:0.0195953;stroke-linecap:butt;stroke-linejoin:miter;stroke:rgb(60%,60%,60%);stroke-opacity:0.8;stroke-miterlimit:10;" d="M 0.0979785 0.00000250001 C 0.0979785 0.0541128 0.0541057 0.0979683 -0.00000464785 0.0979683 C -0.054115 0.0979683 -0.0979705 0.0541128 -0.0979705 0.00000250001 C -0.0979705 -0.0541078 -0.054115 -0.0979806 -0.00000464785 -0.0979806 C 0.0541057 -0.0979806 0.0979785 -0.0541078 0.0979785 0.00000250001 Z M 0.0979785 0.00000250001 " transform="matrix(225.883895,0,0,225.883895,484.106519,426.92131)"/>
<path style="fill-rule:nonzero;fill:rgb(55.294118%,82.745098%,78.039216%);fill-opacity:1;stroke-width:0.0195953;stroke-linecap:butt;stroke-linejoin:miter;stroke:rgb(60%,60%,60%);stroke-opacity:0.8;stroke-miterlimit:10;" d="M 0.0979708 0.00000774864 C 0.0979708 0.0541181 0.0541153 0.0979736 0.00000490935 0.0979736 C -0.0541054 0.0979736 -0.0979782 0.0541181 -0.0979782 0.00000774864 C -0.0979782 -0.0541026 -0.0541054 -0.0979754 0.00000490935 -0.0979754 C 0.0541153 -0.0979754 0.0979708 -0.0541026 0.0979708 0.00000774864 Z M 0.0979708 0.00000774864 " transform="matrix(225.883895,0,0,225.883895,373.744985,457.365437)"/>
<path style="fill-rule:nonzero;fill:rgb(55.294118%,82.745098%,78.039216%);fill-opacity:1;stroke-width:0.0195953;stroke-linecap:butt;stroke-linejoin:miter;stroke:rgb(60%,60%,60%);stroke-opacity:0.8;stroke-miterlimit:10;" d="M 0.0979773 0.00000217685 C 0.0979773 0.0541125 0.0541045 0.097968 -0.00000581982 0.097968 C -0.0541162 0.097968 -0.0979717 0.0541125 -0.0979717 0.00000217685 C -0.0979717 -0.0541082 -0.0541162 -0.097981 -0.00000581982 -0.097981 C 0.0541045 -0.097981 0.0979773 -0.0541082 0.0979773 0.00000217685 Z M 0.0979773 0.00000217685 " transform="matrix(225.883895,0,0,225.883895,449.399752,353.921383)"/>
<path style="fill-rule:nonzero;fill:rgb(55.294118%,82.745098%,78.039216%);fill-opacity:1;stroke-width:0.0195953;stroke-linecap:butt;stroke-linejoin:miter;stroke:rgb(60%,60%,60%);stroke-opacity:0.8;stroke-miterlimit:10;" d="M 0.0979745 -0.00000667243 C 0.0979745 0.0541037 0.054119 0.0979765 0.00000862572 0.0979765 C -0.054119 0.0979765 -0.0979745 0.0541037 -0.0979745 -0.00000667243 C -0.0979745 -0.054117 -0.054119 -0.0979725 0.00000862572 -0.0979725 C 0.054119 -0.0979725 0.0979745 -0.054117 0.0979745 -0.00000667243 Z M 0.0979745 -0.00000667243 " transform="matrix(225.883895,0,0,225.883895,426.955083,322.939007)"/>
<path style="fill-rule:nonzero;fill:rgb(100%,92.941176%,43.529412%);fill-opacity:1;stroke-width:0.0195953;stroke-linecap:butt;stroke-linejoin:miter;stroke:rgb(60%,60%,60%);stroke-opacity:0.8;stroke-miterlimit:10;" d="M 0.0979693 -0.00000741532 C 0.0979693 0.0541029 0.0541138 0.0979757 0.00000344532 0.0979757 C -0.0541069 0.0979757 -0.0979797 0.0541029 -0.0979797 -0.00000741532 C -0.0979797 -0.0541178 -0.0541069 -0.0979733 0.00000344532 -0.0979733 C 0.0541138 -0.0979733 0.0979693 -0.0541178 0.0979693 -0.00000741532 Z M 0.0979693 -0.00000741532 " transform="matrix(225.883895,0,0,225.883895,180.003128,58.650113)"/>
<path style="fill-rule:nonzero;fill:rgb(100%,92.941176%,43.529412%);fill-opacity:1;stroke-width:0.0195953;stroke-linecap:butt;stroke-linejoin:miter;stroke:rgb(60%,60%,60%);stroke-opacity:0.8;stroke-miterlimit:10;" d="M 0.0979709 0.0000043039 C 0.0979709 0.0541147 0.0541154 0.0979701 0.00000505008 0.0979701 C -0.0541053 0.0979701 -0.0979781 0.0541147 -0.0979781 0.0000043039 C -0.0979781 -0.054106 -0.0541053 -0.0979788 0.00000505008 -0.0979788 C 0.0541154 -0.0979788 0.0979709 -0.054106 0.0979709 0.0000043039 Z M 0.0979709 0.0000043039 " transform="matrix(225.883895,0,0,225.883895,160.065266,79.979497)"/>
<path style="fill-rule:nonzero;fill:rgb(100%,92.941176%,43.529412%);fill-opacity:1;stroke-width:0.0195953;stroke-linecap:butt;stroke-linejoin:miter;stroke:rgb(60%,60%,60%);stroke-opacity:0.8;stroke-miterlimit:10;" d="M 0.0979705 -0.00000477981 C 0.0979705 0.0541056 0.054115 0.0979784 0.00000464785 0.0979784 C -0.0541057 0.0979784 -0.0979785 0.0541056 -0.0979785 -0.00000477981 C -0.0979785 -0.0541151 -0.0541057 -0.0979706 0.00000464785 -0.0979706 C 0.054115 -0.0979706 0.0979705 -0.0541151 0.0979705 -0.00000477981 Z M 0.0979705 -0.00000477981 " transform="matrix(225.883895,0,0,225.883895,115.893481,44.434673)"/>
<path style="fill-rule:nonzero;fill:rgb(55.294118%,82.745098%,78.039216%);fill-opacity:1;stroke-width:0.0195953;stroke-linecap:butt;stroke-linejoin:miter;stroke:rgb(60%,60%,60%);stroke-opacity:0.8;stroke-miterlimit:10;" d="M 0.0979758 0.00000223991 C 0.0979758 0.0541126 0.054103 0.0979681 -0.00000734258 0.0979681 C -0.0541177 0.0979681 -0.0979732 0.0541126 -0.0979732 0.00000223991 C -0.0979732 -0.0541081 -0.0541177 -0.0979809 -0.00000734258 -0.0979809 C 0.054103 -0.0979809 0.0979758 -0.0541081 0.0979758 0.00000223991 Z M 0.0979758 0.00000223991 " transform="matrix(225.883895,0,0,225.883895,236.048534,522.7534)"/>
<path style="fill-rule:nonzero;fill:rgb(55.294118%,82.745098%,78.039216%);fill-opacity:1;stroke-width:0.0195953;stroke-linecap:butt;stroke-linejoin:miter;stroke:rgb(60%,60%,60%);stroke-opacity:0.8;stroke-miterlimit:10;" d="M 0.0979758 0.00000477981 C 0.0979758 0.0541151 0.054103 0.0979706 -0.00000730615 0.0979706 C -0.0541177 0.0979706 -0.0979731 0.0541151 -0.0979731 0.00000477981 C -0.0979731 -0.0541056 -0.0541177 -0.0979784 -0.00000730615 -0.0979784 C 0.054103 -0.0979784 0.0979758 -0.0541056 0.0979758 0.00000477981 Z M 0.0979758 0.00000477981 " transform="matrix(225.883895,0,0,225.883895,178.048525,555.565327)"/>
<path style="fill-rule:nonzero;fill:rgb(55.294118%,82.745098%,78.039216%);fill-opacity:1;stroke-width:0.0195953;stroke-linecap:butt;stroke-linejoin:miter;stroke:rgb(60%,60%,60%);stroke-opacity:0.8;stroke-miterlimit:10;" d="M 0.0979714 0.0000057852 C 0.0979714 0.0541161 0.0541159 0.0979716 0.00000559566 0.0979716 C -0.0541048 0.0979716 -0.0979775 0.0541161 -0.0979775 0.0000057852 C -0.0979775 -0.0541046 -0.0541048 -0.0979774 0.00000559566 -0.0979774 C 0.0541159 -0.0979774 0.0979714 -0.0541046 0.0979714 0.0000057852 Z M 0.0979714 0.0000057852 " transform="matrix(225.883895,0,0,225.883895,345.334674,548.014318)"/>
<path style="fill-rule:nonzero;fill:rgb(55.294118%,82.745098%,78.039216%);fill-opacity:1;stroke-width:0.0195953;stroke-linecap:butt;stroke-linejoin:miter;stroke:rgb(60%,60%,60%);stroke-opacity:0.8;stroke-miterlimit:10;" d="M 0.097984 -0.00000680754 C 0.097984 0.0541035 0.0541112 0.0979763 0.000000831486 0.0979763 C -0.0541095 0.0979763 -0.0979823 0.0541035 -0.0979823 -0.00000680754 C -0.0979823 -0.0541172 -0.0541095 -0.0979727 0.000000831486 -0.0979727 C 0.0541112 -0.0979727 0.097984 -0.0541172 0.097984 -0.00000680754 Z M 0.097984 -0.00000680754 " transform="matrix(225.883895,0,0,225.883895,273.503718,539.274975)"/>
</g>
</svg>
