<?xml version="1.0" encoding="UTF-8"?>
<svg xmlns="http://www.w3.org/2000/svg" xmlns:xlink="http://www.w3.org/1999/xlink" width="600pt" height="600pt" viewBox="0 0 600 600" version="1.1">
<defs>
<clipPath id="clip1">
  <path d="M 9 344 L 169 344 L 169 521 L 9 521 Z M 9 344 "/>
</clipPath>
<clipPath id="clip2">
  <path d="M -71.359375 301.761719 L 248.371094 301.761719 L 248.371094 563.300781 L -71.359375 563.300781 Z M -71.359375 301.761719 L 86.351562 401.277344 C 86.351562 412.433594 77.308594 421.480469 66.148438 421.480469 C 54.992188 421.480469 45.945312 412.433594 45.945312 401.277344 C 45.945312 390.117188 54.992188 381.074219 66.148438 381.074219 C 77.308594 381.074219 86.351562 390.117188 86.351562 401.277344 Z M -71.359375 301.761719 "/>
</clipPath>
<clipPath id="clip3">
  <path d="M -71.359375 301.761719 L 248.371094 301.761719 L 248.371094 563.300781 L -71.359375 563.300781 Z M -71.359375 301.761719 L 131.0625 463.78125 C 131.0625 474.9375 122.015625 483.984375 110.859375 483.984375 C 99.703125 483.984375 90.65625 474.9375 90.65625 463.78125 C 90.65625 452.625 99.703125 443.578125 110.859375 443.578125 C 122.015625 443.578125 131.0625 452.625 131.0625 463.78125 Z M -71.359375 301.761719 "/>
</clipPath>
<clipPath id="clip4">
  <path d="M 0 294 L 124 294 L 124 459 L 0 459 Z M 0 294 "/>
</clipPath>
<clipPath id="clip5">
  <path d="M -109.636719 275.515625 L 217.660156 275.515625 L 217.660156 477.316406 L -109.636719 477.316406 Z M -109.636719 275.515625 L 86.351562 401.277344 C 86.351562 412.433594 77.308594 421.480469 66.148438 421.480469 C 54.992188 421.480469 45.945312 412.433594 45.945312 401.277344 C 45.945312 390.117188 54.992188 381.074219 66.148438 381.074219 C 77.308594 381.074219 86.351562 390.117188 86.351562 401.277344 Z M -109.636719 275.515625 "/>
</clipPath>
<clipPath id="clip6">
  <path d="M -109.636719 275.515625 L 217.660156 275.515625 L 217.660156 477.316406 L -109.636719 477.316406 Z M -109.636719 275.515625 L 62.074219 351.550781 C 62.074219 362.707031 53.027344 371.753906 41.871094 371.753906 C 30.710938 371.753906 21.667969 362.707031 21.667969 351.550781 C 21.667969 340.390625 30.710938 331.347656 41.871094 331.347656 C 53.027344 331.347656 62.074219 340.390625 62.074219 351.550781 Z M -109.636719 275.515625 "/>
</clipPath>
<clipPath id="clip7">
  <path d="M 53 406 L 234 406 L 234 572 L 53 572 Z M 53 406 "/>
</clipPath>
<clipPath id="clip8">
  <path d="M 7.234375 329.308594 L 280.097656 329.308594 L 280.097656 648.351562 L 7.234375 648.351562 Z M 7.234375 329.308594 L 196.671875 513.875 C 196.671875 525.035156 187.625 534.078125 176.46875 534.078125 C 165.3125 534.078125 156.265625 525.035156 156.265625 513.875 C 156.265625 502.71875 165.3125 493.671875 176.46875 493.671875 C 187.625 493.671875 196.671875 502.71875 196.671875 513.875 Z M 7.234375 329.308594 "/>
</clipPath>
<clipPath id="clip9">
  <path d="M 7.234375 329.308594 L 280.097656 329.308594 L 280.097656 648.351562 L 7.234375 648.351562 Z M 7.234375 329.308594 L 131.0625 463.78125 C 131.0625 474.9375 122.015625 483.984375 110.859375 483.984375 C 99.703125 483.984375 90.65625 474.9375 90.65625 463.78125 C 90.65625 452.625 99.703125 443.578125 110.859375 443.578125 C 122.015625 443.578125 131.0625 452.625 131.0625 463.78125 Z M 7.234375 329.308594 "/>
</clipPath>
<clipPath id="clip10">
  <path d="M 146.441406 456 L 286.847656 456 L 286.847656 584 L 146.441406 584 Z M 146.441406 456 "/>
</clipPath>
<clipPath id="clip11">
  <path d="M 146.441406 347.804688 L 286.847656 347.804688 L 286.847656 692.835938 L 146.441406 692.835938 Z M 146.441406 347.804688 L 196.671875 513.875 C 196.671875 525.035156 187.625 534.078125 176.46875 534.078125 C 165.3125 534.078125 156.265625 525.035156 156.265625 513.875 C 156.265625 502.71875 165.3125 493.671875 176.46875 493.671875 C 187.625 493.671875 196.671875 502.71875 196.671875 513.875 Z M 146.441406 347.804688 "/>
</clipPath>
<clipPath id="clip12">
  <path d="M 146.441406 347.804688 L 286.847656 347.804688 L 286.847656 692.835938 L 146.441406 692.835938 Z M 146.441406 347.804688 L 277.019531 526.761719 C 277.019531 537.917969 267.972656 546.964844 256.816406 546.964844 C 245.65625 546.964844 236.613281 537.917969 236.613281 526.761719 C 236.613281 515.605469 245.65625 506.558594 256.816406 506.558594 C 267.972656 506.558594 277.019531 515.605469 277.019531 526.761719 Z M 146.441406 347.804688 "/>
</clipPath>
<clipPath id="clip13">
  <path d="M 358.476562 270 L 557.46875 270 L 557.46875 414 L 358.476562 414 Z M 358.476562 270 "/>
</clipPath>
<clipPath id="clip14">
  <path d="M 358.476562 165.832031 L 557.46875 165.832031 L 557.46875 518.953125 L 358.476562 518.953125 Z M 358.476562 165.832031 L 530.152344 328.109375 C 530.152344 339.265625 521.105469 348.3125 509.949219 348.3125 C 498.789062 348.3125 489.746094 339.265625 489.746094 328.109375 C 489.746094 316.953125 498.789062 307.90625 509.949219 307.90625 C 521.105469 307.90625 530.152344 316.953125 530.152344 328.109375 Z M 358.476562 165.832031 "/>
</clipPath>
<clipPath id="clip15">
  <path d="M 358.476562 165.832031 L 557.46875 165.832031 L 557.46875 518.953125 L 358.476562 518.953125 Z M 358.476562 165.832031 L 426.195312 356.671875 C 426.195312 367.828125 417.152344 376.875 405.992188 376.875 C 394.835938 376.875 385.789062 367.828125 385.789062 356.671875 C 385.789062 345.511719 394.835938 336.46875 405.992188 336.46875 C 417.152344 336.46875 426.195312 345.511719 426.195312 356.671875 Z M 358.476562 165.832031 "/>
</clipPath>
<clipPath id="clip16">
  <path d="M 452 241 L 600 241 L 600 386 L 452 386 Z M 452 241 "/>
</clipPath>
<clipPath id="clip17">
  <path d="M 420.382812 154.59375 L 647.699219 154.59375 L 647.699219 472.207031 L 420.382812 472.207031 Z M 420.382812 154.59375 L 530.152344 328.109375 C 530.152344 339.265625 521.105469 348.3125 509.949219 348.3125 C 498.789062 348.3125 489.746094 339.265625 489.746094 328.109375 C 489.746094 316.953125 498.789062 307.90625 509.949219 307.90625 C 521.105469 307.90625 530.152344 316.953125 530.152344 328.109375 Z M 420.382812 154.59375 "/>
</clipPath>
<clipPath id="clip18">
  <path d="M 420.382812 154.59375 L 647.699219 154.59375 L 647.699219 472.207031 L 420.382812 472.207031 Z M 420.382812 154.59375 L 578.332031 298.6875 C 578.332031 309.847656 569.289062 318.890625 558.128906 318.890625 C 546.972656 318.890625 537.925781 309.847656 537.925781 298.6875 C 537.925781 287.53125 546.972656 278.484375 558.128906 278.484375 C 569.289062 278.484375 578.332031 287.53125 578.332031 298.6875 Z M 420.382812 154.59375 "/>
</clipPath>
<clipPath id="clip19">
  <path d="M 199 422 L 393 422 L 393 584 L 199 584 Z M 199 422 "/>
</clipPath>
<clipPath id="clip20">
  <path d="M 167.894531 335.101562 L 423.796875 335.101562 L 423.796875 671.25 L 167.894531 671.25 Z M 167.894531 335.101562 L 355.074219 479.585938 C 355.074219 490.746094 346.03125 499.789062 334.871094 499.789062 C 323.714844 499.789062 314.667969 490.746094 314.667969 479.585938 C 314.667969 468.429688 323.714844 459.382812 334.871094 459.382812 C 346.03125 459.382812 355.074219 468.429688 355.074219 479.585938 Z M 167.894531 335.101562 "/>
</clipPath>
<clipPath id="clip21">
  <path d="M 167.894531 335.101562 L 423.796875 335.101562 L 423.796875 671.25 L 167.894531 671.25 Z M 167.894531 335.101562 L 277.019531 526.761719 C 277.019531 537.917969 267.972656 546.964844 256.816406 546.964844 C 245.65625 546.964844 236.613281 537.917969 236.613281 526.761719 C 236.613281 515.605469 245.65625 506.558594 256.816406 506.558594 C 267.972656 506.558594 277.019531 515.605469 277.019531 526.761719 Z M 167.894531 335.101562 "/>
</clipPath>
<clipPath id="clip22">
  <path d="M 277 299 L 464 299 L 464 537 L 277 537 Z M 277 299 "/>
</clipPath>
<clipPath id="clip23">
  <path d="M 188.792969 270.445312 L 552.074219 270.445312 L 552.074219 565.816406 L 188.792969 565.816406 Z M 188.792969 270.445312 L 355.074219 479.585938 C 355.074219 490.746094 346.03125 499.789062 334.871094 499.789062 C 323.714844 499.789062 314.667969 490.746094 314.667969 479.585938 C 314.667969 468.429688 323.714844 459.382812 334.871094 459.382812 C 346.03125 459.382812 355.074219 468.429688 355.074219 479.585938 Z M 188.792969 270.445312 "/>
</clipPath>
<clipPath id="clip24">
  <path d="M 188.792969 270.445312 L 552.074219 270.445312 L 552.074219 565.816406 L 188.792969 565.816406 Z M 188.792969 270.445312 L 426.195312 356.671875 C 426.195312 367.828125 417.152344 376.875 405.992188 376.875 C 394.835938 376.875 385.789062 367.828125 385.789062 356.671875 C 385.789062 345.511719 394.835938 336.46875 405.992188 336.46875 C 417.152344 336.46875 426.195312 345.511719 426.195312 356.671875 Z M 188.792969 270.445312 "/>
</clipPath>
<clipPath id="clip25">
  <path d="M 348 299 L 512 299 L 512 497 L 348 497 Z M 348 299 "/>
</clipPath>
<clipPath id="clip26">
  <path d="M 260.628906 269.222656 L 600.164062 269.222656 L 600.164062 526.816406 L 260.628906 526.816406 Z M 260.628906 269.222656 L 426.195312 356.671875 C 426.195312 367.828125 417.152344 376.875 405.992188 376.875 C 394.835938 376.875 385.789062 367.828125 385.789062 356.671875 C 385.789062 345.511719 394.835938 336.46875 405.992188 336.46875 C 417.152344 336.46875 426.195312 345.511719 426.195312 356.671875 Z M 260.628906 269.222656 "/>
</clipPath>
<clipPath id="clip27">
  <path d="M 260.628906 269.222656 L 600.164062 269.222656 L 600.164062 526.816406 L 260.628906 526.816406 Z M 260.628906 269.222656 L 475 439.363281 C 475 450.523438 465.953125 459.566406 454.796875 459.566406 C 443.640625 459.566406 434.59375 450.523438 434.59375 439.363281 C 434.59375 428.207031 443.640625 419.160156 454.796875 419.160156 C 465.953125 419.160156 475 428.207031 475 439.363281 Z M 260.628906 269.222656 "/>
</clipPath>
<clipPath id="clip28">
  <path d="M 309 232 L 464 232 L 464 414 L 309 414 Z M 309 232 "/>
</clipPath>
<clipPath id="clip29">
  <path d="M 221.101562 203 L 551.839844 203 L 551.839844 443.308594 L 221.101562 443.308594 Z M 221.101562 203 L 426.195312 356.671875 C 426.195312 367.828125 417.152344 376.875 405.992188 376.875 C 394.835938 376.875 385.789062 367.828125 385.789062 356.671875 C 385.789062 345.511719 394.835938 336.46875 405.992188 336.46875 C 417.152344 336.46875 426.195312 345.511719 426.195312 356.671875 Z M 221.101562 203 "/>
</clipPath>
<clipPath id="clip30">
  <path d="M 221.101562 203 L 551.839844 203 L 551.839844 443.308594 L 221.101562 443.308594 Z M 221.101562 203 L 387.148438 289.632812 C 387.148438 300.792969 378.105469 309.835938 366.945312 309.835938 C 355.789062 309.835938 346.742188 300.792969 346.742188 289.632812 C 346.742188 278.476562 355.789062 269.429688 366.945312 269.429688 C 378.105469 269.429688 387.148438 278.476562 387.148438 289.632812 Z M 221.101562 203 "/>
</clipPath>
<clipPath id="clip31">
  <path d="M 305 270 L 464 270 L 464 414 L 305 414 Z M 305 270 "/>
</clipPath>
<clipPath id="clip32">
  <path d="M 267.367188 186.933594 L 500.925781 186.933594 L 500.925781 497.347656 L 267.367188 497.347656 Z M 267.367188 186.933594 L 426.195312 356.671875 C 426.195312 367.828125 417.152344 376.875 405.992188 376.875 C 394.835938 376.875 385.789062 367.828125 385.789062 356.671875 C 385.789062 345.511719 394.835938 336.46875 405.992188 336.46875 C 417.152344 336.46875 426.195312 345.511719 426.195312 356.671875 Z M 267.367188 186.933594 "/>
</clipPath>
<clipPath id="clip33">
  <path d="M 267.367188 186.933594 L 500.925781 186.933594 L 500.925781 497.347656 L 267.367188 497.347656 Z M 267.367188 186.933594 L 382.5 327.605469 C 382.5 338.761719 373.457031 347.808594 362.296875 347.808594 C 351.140625 347.808594 342.09375 338.761719 342.09375 327.605469 C 342.09375 316.445312 351.140625 307.402344 362.296875 307.402344 C 373.457031 307.402344 382.5 316.445312 382.5 327.605469 Z M 267.367188 186.933594 "/>
</clipPath>
<clipPath id="clip34">
  <path d="M 298 168 L 464 168 L 464 414 L 298 414 Z M 298 168 "/>
</clipPath>
<clipPath id="clip35">
  <path d="M 198.417969 162.902344 L 563.097656 162.902344 L 563.097656 419.886719 L 198.417969 419.886719 Z M 198.417969 162.902344 L 426.195312 356.671875 C 426.195312 367.828125 417.152344 376.875 405.992188 376.875 C 394.835938 376.875 385.789062 367.828125 385.789062 356.671875 C 385.789062 345.511719 394.835938 336.46875 405.992188 336.46875 C 417.152344 336.46875 426.195312 345.511719 426.195312 356.671875 Z M 198.417969 162.902344 "/>
</clipPath>
<clipPath id="clip36">
  <path d="M 198.417969 162.902344 L 563.097656 162.902344 L 563.097656 419.886719 L 198.417969 419.886719 Z M 198.417969 162.902344 L 375.722656 226.113281 C 375.722656 237.269531 366.675781 246.316406 355.519531 246.316406 C 344.359375 246.316406 335.316406 237.269531 335.316406 226.113281 C 335.316406 214.957031 344.359375 205.910156 355.519531 205.910156 C 366.675781 205.910156 375.722656 214.957031 375.722656 226.113281 Z M 198.417969 162.902344 "/>
</clipPath>
<clipPath id="clip37">
  <path d="M 105.855469 61 L 214.34375 61 L 214.34375 184 L 105.855469 184 Z M 105.855469 61 "/>
</clipPath>
<clipPath id="clip38">
  <path d="M 105.855469 -48.113281 L 214.34375 -48.113281 L 214.34375 292.957031 L 105.855469 292.957031 Z M 105.855469 -48.113281 L 151.464844 126.207031 C 151.464844 137.363281 142.417969 146.410156 131.261719 146.410156 C 120.101562 146.410156 111.058594 137.363281 111.058594 126.207031 C 111.058594 115.046875 120.101562 106.003906 131.261719 106.003906 C 142.417969 106.003906 151.464844 115.046875 151.464844 126.207031 Z M 105.855469 -48.113281 "/>
</clipPath>
<clipPath id="clip39">
  <path d="M 105.855469 -48.113281 L 214.34375 -48.113281 L 214.34375 292.957031 L 105.855469 292.957031 Z M 105.855469 -48.113281 L 209.136719 118.632812 C 209.136719 129.789062 200.09375 138.835938 188.933594 138.835938 C 177.777344 138.835938 168.730469 129.789062 168.730469 118.632812 C 168.730469 107.476562 177.777344 98.429688 188.933594 98.429688 C 200.09375 98.429688 209.136719 107.476562 209.136719 118.632812 Z M 105.855469 -48.113281 "/>
</clipPath>
<clipPath id="clip40">
  <path d="M 168.226562 61 L 301.132812 61 L 301.132812 186 L 168.226562 186 Z M 168.226562 61 "/>
</clipPath>
<clipPath id="clip41">
  <path d="M 168.226562 -48.660156 L 301.132812 -48.660156 L 301.132812 295.269531 L 168.226562 295.269531 Z M 168.226562 -48.660156 L 209.136719 118.632812 C 209.136719 129.789062 200.09375 138.835938 188.933594 138.835938 C 177.777344 138.835938 168.730469 129.789062 168.730469 118.632812 C 168.730469 107.476562 177.777344 98.429688 188.933594 98.429688 C 200.09375 98.429688 209.136719 107.476562 209.136719 118.632812 Z M 168.226562 -48.660156 "/>
</clipPath>
<clipPath id="clip42">
  <path d="M 168.226562 -48.660156 L 301.132812 -48.660156 L 301.132812 295.269531 L 168.226562 295.269531 Z M 168.226562 -48.660156 L 300.625 127.972656 C 300.625 139.128906 291.578125 148.175781 280.421875 148.175781 C 269.261719 148.175781 260.21875 139.128906 260.21875 127.972656 C 260.21875 116.8125 269.261719 107.769531 280.421875 107.769531 C 291.578125 107.769531 300.625 116.8125 300.625 127.972656 Z M 168.226562 -48.660156 "/>
</clipPath>
<clipPath id="clip43">
  <path d="M 223 16 L 361 16 L 361 186 L 223 186 Z M 223 16 "/>
</clipPath>
<clipPath id="clip44">
  <path d="M 125.515625 4.628906 L 458.757812 4.628906 L 458.757812 196.585938 L 125.515625 196.585938 Z M 125.515625 4.628906 L 300.625 127.972656 C 300.625 139.128906 291.578125 148.175781 280.421875 148.175781 C 269.261719 148.175781 260.21875 139.128906 260.21875 127.972656 C 260.21875 116.8125 269.261719 107.769531 280.421875 107.769531 C 291.578125 107.769531 300.625 116.8125 300.625 127.972656 Z M 125.515625 4.628906 "/>
</clipPath>
<clipPath id="clip45">
  <path d="M 125.515625 4.628906 L 458.757812 4.628906 L 458.757812 196.585938 L 125.515625 196.585938 Z M 125.515625 4.628906 L 324.050781 73.238281 C 324.050781 84.394531 315.003906 93.441406 303.847656 93.441406 C 292.6875 93.441406 283.644531 84.394531 283.644531 73.238281 C 283.644531 62.082031 292.6875 53.035156 303.847656 53.035156 C 315.003906 53.035156 324.050781 62.082031 324.050781 73.238281 Z M 125.515625 4.628906 "/>
</clipPath>
<clipPath id="clip46">
  <path d="M 223 70 L 413 70 L 413 284 L 223 284 Z M 223 70 "/>
</clipPath>
<clipPath id="clip47">
  <path d="M 146.058594 24.207031 L 489.886719 24.207031 L 489.886719 329.882812 L 146.058594 329.882812 Z M 146.058594 24.207031 L 300.625 127.972656 C 300.625 139.128906 291.578125 148.175781 280.421875 148.175781 C 269.261719 148.175781 260.21875 139.128906 260.21875 127.972656 C 260.21875 116.8125 269.261719 107.769531 280.421875 107.769531 C 291.578125 107.769531 300.625 116.8125 300.625 127.972656 Z M 146.058594 24.207031 "/>
</clipPath>
<clipPath id="clip48">
  <path d="M 146.058594 24.207031 L 489.886719 24.207031 L 489.886719 329.882812 L 146.058594 329.882812 Z M 146.058594 24.207031 L 375.722656 226.113281 C 375.722656 237.269531 366.675781 246.316406 355.519531 246.316406 C 344.359375 246.316406 335.316406 237.269531 335.316406 226.113281 C 335.316406 214.957031 344.359375 205.910156 355.519531 205.910156 C 366.675781 205.910156 375.722656 214.957031 375.722656 226.113281 Z M 146.058594 24.207031 "/>
</clipPath>
<clipPath id="clip49">
  <path d="M 270.011719 232 L 417.769531 232 L 417.769531 361 L 270.011719 361 Z M 270.011719 232 "/>
</clipPath>
<clipPath id="clip50">
  <path d="M 270.011719 128.300781 L 417.769531 128.300781 L 417.769531 464.683594 L 270.011719 464.683594 Z M 270.011719 128.300781 L 341.035156 303.347656 C 341.035156 314.503906 331.992188 323.550781 320.832031 323.550781 C 309.675781 323.550781 300.628906 314.503906 300.628906 303.347656 C 300.628906 292.1875 309.675781 283.144531 320.832031 283.144531 C 331.992188 283.144531 341.035156 292.1875 341.035156 303.347656 Z M 270.011719 128.300781 "/>
</clipPath>
<clipPath id="clip51">
  <path d="M 270.011719 128.300781 L 417.769531 128.300781 L 417.769531 464.683594 L 270.011719 464.683594 Z M 270.011719 128.300781 L 387.148438 289.632812 C 387.148438 300.792969 378.105469 309.835938 366.945312 309.835938 C 355.789062 309.835938 346.742188 300.792969 346.742188 289.632812 C 346.742188 278.476562 355.789062 269.429688 366.945312 269.429688 C 378.105469 269.429688 387.148438 278.476562 387.148438 289.632812 Z M 270.011719 128.300781 "/>
</clipPath>
<clipPath id="clip52">
  <path d="M 263 246 L 420 246 L 420 385 L 263 385 Z M 263 246 "/>
</clipPath>
<clipPath id="clip53">
  <path d="M 233.925781 157.664062 L 449.207031 157.664062 L 449.207031 473.292969 L 233.925781 473.292969 Z M 233.925781 157.664062 L 341.035156 303.347656 C 341.035156 314.503906 331.992188 323.550781 320.832031 323.550781 C 309.675781 323.550781 300.628906 314.503906 300.628906 303.347656 C 300.628906 292.1875 309.675781 283.144531 320.832031 283.144531 C 331.992188 283.144531 341.035156 292.1875 341.035156 303.347656 Z M 233.925781 157.664062 "/>
</clipPath>
<clipPath id="clip54">
  <path d="M 233.925781 157.664062 L 449.207031 157.664062 L 449.207031 473.292969 L 233.925781 473.292969 Z M 233.925781 157.664062 L 382.5 327.605469 C 382.5 338.761719 373.457031 347.808594 362.296875 347.808594 C 351.140625 347.808594 342.09375 338.761719 342.09375 327.605469 C 342.09375 316.445312 351.140625 307.402344 362.296875 307.402344 C 373.457031 307.402344 382.5 316.445312 382.5 327.605469 Z M 233.925781 157.664062 "/>
</clipPath>
<clipPath id="clip55">
  <path d="M 305 265.652344 L 425 265.652344 L 425 351.589844 L 305 351.589844 Z M 305 265.652344 "/>
</clipPath>
<clipPath id="clip56">
  <path d="M 195.371094 265.652344 L 533.875 265.652344 L 533.875 351.589844 L 195.371094 351.589844 Z M 195.371094 265.652344 L 387.148438 289.632812 C 387.148438 300.792969 378.105469 309.835938 366.945312 309.835938 C 355.789062 309.835938 346.742188 300.792969 346.742188 289.632812 C 346.742188 278.476562 355.789062 269.429688 366.945312 269.429688 C 378.105469 269.429688 387.148438 278.476562 387.148438 289.632812 Z M 195.371094 265.652344 "/>
</clipPath>
<clipPath id="clip57">
  <path d="M 195.371094 265.652344 L 533.875 265.652344 L 533.875 351.589844 L 195.371094 351.589844 Z M 195.371094 265.652344 L 382.5 327.605469 C 382.5 338.761719 373.457031 347.808594 362.296875 347.808594 C 351.140625 347.808594 342.09375 338.761719 342.09375 327.605469 C 342.09375 316.445312 351.140625 307.402344 362.296875 307.402344 C 373.457031 307.402344 382.5 316.445312 382.5 327.605469 Z M 195.371094 265.652344 "/>
</clipPath>
<clipPath id="clip58">
  <path d="M 298 193.023438 L 425 193.023438 L 425 322.726562 L 298 322.726562 Z M 298 193.023438 "/>
</clipPath>
<clipPath id="clip59">
  <path d="M 189.96875 193.023438 L 532.5 193.023438 L 532.5 322.726562 L 189.96875 322.726562 Z M 189.96875 193.023438 L 387.148438 289.632812 C 387.148438 300.792969 378.105469 309.835938 366.945312 309.835938 C 355.789062 309.835938 346.742188 300.792969 346.742188 289.632812 C 346.742188 278.476562 355.789062 269.429688 366.945312 269.429688 C 378.105469 269.429688 387.148438 278.476562 387.148438 289.632812 Z M 189.96875 193.023438 "/>
</clipPath>
<clipPath id="clip60">
  <path d="M 189.96875 193.023438 L 532.5 193.023438 L 532.5 322.726562 L 189.96875 322.726562 Z M 189.96875 193.023438 L 375.722656 226.113281 C 375.722656 237.269531 366.675781 246.316406 355.519531 246.316406 C 344.359375 246.316406 335.316406 237.269531 335.316406 226.113281 C 335.316406 214.957031 344.359375 205.910156 355.519531 205.910156 C 366.675781 205.910156 375.722656 214.957031 375.722656 226.113281 Z M 189.96875 193.023438 "/>
</clipPath>
</defs>
<g id="surface376">
<g clip-path="url(#clip1)" clip-rule="nonzero">
<g clip-path="url(#clip2)" clip-rule="evenodd">
<g clip-path="url(#clip3)" clip-rule="evenodd">
<path style="fill:none;stroke-width:0.0246223;stroke-linecap:butt;stroke-linejoin:miter;stroke:rgb(17.96875%,20.3125%,21.09375%);stroke-opacity:0.8;stroke-miterlimit:10;" d="M 0.983758 2.247556 L 1.256214 2.628437 " transform="matrix(164.103469,0,0,164.103469,-95.289695,32.445581)"/>
</g>
</g>
</g>
<g clip-path="url(#clip4)" clip-rule="nonzero">
<g clip-path="url(#clip5)" clip-rule="evenodd">
<g clip-path="url(#clip6)" clip-rule="evenodd">
<path style="fill:none;stroke-width:0.0246223;stroke-linecap:butt;stroke-linejoin:miter;stroke:rgb(17.96875%,20.3125%,21.09375%);stroke-opacity:0.8;stroke-miterlimit:10;" d="M 0.983758 2.247556 L 0.835819 1.944537 " transform="matrix(164.103469,0,0,164.103469,-95.289695,32.445581)"/>
</g>
</g>
</g>
<g clip-path="url(#clip7)" clip-rule="nonzero">
<g clip-path="url(#clip8)" clip-rule="evenodd">
<g clip-path="url(#clip9)" clip-rule="evenodd">
<path style="fill:none;stroke-width:0.0246223;stroke-linecap:butt;stroke-linejoin:miter;stroke:rgb(17.96875%,20.3125%,21.09375%);stroke-opacity:0.8;stroke-miterlimit:10;" d="M 1.656019 2.933694 L 1.256214 2.628437 " transform="matrix(164.103469,0,0,164.103469,-95.289695,32.445581)"/>
</g>
</g>
</g>
<g clip-path="url(#clip10)" clip-rule="nonzero">
<g clip-path="url(#clip11)" clip-rule="evenodd">
<g clip-path="url(#clip12)" clip-rule="evenodd">
<path style="fill:none;stroke-width:0.0246223;stroke-linecap:butt;stroke-linejoin:miter;stroke:rgb(17.96875%,20.3125%,21.09375%);stroke-opacity:0.8;stroke-miterlimit:10;" d="M 1.656019 2.933694 L 2.145635 3.012222 " transform="matrix(164.103469,0,0,164.103469,-95.289695,32.445581)"/>
</g>
</g>
</g>
<g clip-path="url(#clip13)" clip-rule="nonzero">
<g clip-path="url(#clip14)" clip-rule="evenodd">
<g clip-path="url(#clip15)" clip-rule="evenodd">
<path style="fill:none;stroke-width:0.0246223;stroke-linecap:butt;stroke-linejoin:miter;stroke:rgb(17.96875%,20.3125%,21.09375%);stroke-opacity:0.8;stroke-miterlimit:10;" d="M 3.688154 1.801691 L 3.05467 1.975743 " transform="matrix(164.103469,0,0,164.103469,-95.289695,32.445581)"/>
</g>
</g>
</g>
<g clip-path="url(#clip16)" clip-rule="nonzero">
<g clip-path="url(#clip17)" clip-rule="evenodd">
<g clip-path="url(#clip18)" clip-rule="evenodd">
<path style="fill:none;stroke-width:0.0246223;stroke-linecap:butt;stroke-linejoin:miter;stroke:rgb(17.96875%,20.3125%,21.09375%);stroke-opacity:0.8;stroke-miterlimit:10;" d="M 3.688154 1.801691 L 3.981748 1.622403 " transform="matrix(164.103469,0,0,164.103469,-95.289695,32.445581)"/>
</g>
</g>
</g>
<g clip-path="url(#clip19)" clip-rule="nonzero">
<g clip-path="url(#clip20)" clip-rule="evenodd">
<g clip-path="url(#clip21)" clip-rule="evenodd">
<path style="fill:none;stroke-width:0.0246223;stroke-linecap:butt;stroke-linejoin:miter;stroke:rgb(17.96875%,20.3125%,21.09375%);stroke-opacity:0.8;stroke-miterlimit:10;" d="M 2.621278 2.724747 L 2.145635 3.012222 " transform="matrix(164.103469,0,0,164.103469,-95.289695,32.445581)"/>
</g>
</g>
</g>
<g clip-path="url(#clip22)" clip-rule="nonzero">
<g clip-path="url(#clip23)" clip-rule="evenodd">
<g clip-path="url(#clip24)" clip-rule="evenodd">
<path style="fill:none;stroke-width:0.0246223;stroke-linecap:butt;stroke-linejoin:miter;stroke:rgb(17.96875%,20.3125%,21.09375%);stroke-opacity:0.8;stroke-miterlimit:10;" d="M 2.621278 2.724747 L 3.05467 1.975743 " transform="matrix(164.103469,0,0,164.103469,-95.289695,32.445581)"/>
</g>
</g>
</g>
<g clip-path="url(#clip25)" clip-rule="nonzero">
<g clip-path="url(#clip26)" clip-rule="evenodd">
<g clip-path="url(#clip27)" clip-rule="evenodd">
<path style="fill:none;stroke-width:0.0246223;stroke-linecap:butt;stroke-linejoin:miter;stroke:rgb(17.96875%,20.3125%,21.09375%);stroke-opacity:0.8;stroke-miterlimit:10;" d="M 3.05467 1.975743 L 3.352072 2.479641 " transform="matrix(164.103469,0,0,164.103469,-95.289695,32.445581)"/>
</g>
</g>
</g>
<g clip-path="url(#clip28)" clip-rule="nonzero">
<g clip-path="url(#clip29)" clip-rule="evenodd">
<g clip-path="url(#clip30)" clip-rule="evenodd">
<path style="fill:none;stroke-width:0.0246223;stroke-linecap:butt;stroke-linejoin:miter;stroke:rgb(17.96875%,20.3125%,21.09375%);stroke-opacity:0.8;stroke-miterlimit:10;" d="M 3.05467 1.975743 L 2.816729 1.567226 " transform="matrix(164.103469,0,0,164.103469,-95.289695,32.445581)"/>
</g>
</g>
</g>
<g clip-path="url(#clip31)" clip-rule="nonzero">
<g clip-path="url(#clip32)" clip-rule="evenodd">
<g clip-path="url(#clip33)" clip-rule="evenodd">
<path style="fill:none;stroke-width:0.0246223;stroke-linecap:butt;stroke-linejoin:miter;stroke:rgb(17.96875%,20.3125%,21.09375%);stroke-opacity:0.8;stroke-miterlimit:10;" d="M 3.05467 1.975743 L 2.788403 1.798621 " transform="matrix(164.103469,0,0,164.103469,-95.289695,32.445581)"/>
</g>
</g>
</g>
<g clip-path="url(#clip34)" clip-rule="nonzero">
<g clip-path="url(#clip35)" clip-rule="evenodd">
<g clip-path="url(#clip36)" clip-rule="evenodd">
<path style="fill:none;stroke-width:0.0246223;stroke-linecap:butt;stroke-linejoin:miter;stroke:rgb(17.96875%,20.3125%,21.09375%);stroke-opacity:0.8;stroke-miterlimit:10;" d="M 3.05467 1.975743 L 2.747104 1.180156 " transform="matrix(164.103469,0,0,164.103469,-95.289695,32.445581)"/>
</g>
</g>
</g>
<g clip-path="url(#clip37)" clip-rule="nonzero">
<g clip-path="url(#clip38)" clip-rule="evenodd">
<g clip-path="url(#clip39)" clip-rule="evenodd">
<path style="fill:none;stroke-width:0.0246223;stroke-linecap:butt;stroke-linejoin:miter;stroke:rgb(17.96875%,20.3125%,21.09375%);stroke-opacity:0.8;stroke-miterlimit:10;" d="M 1.38054 0.571356 L 1.731976 0.525201 " transform="matrix(164.103469,0,0,164.103469,-95.289695,32.445581)"/>
</g>
</g>
</g>
<g clip-path="url(#clip40)" clip-rule="nonzero">
<g clip-path="url(#clip41)" clip-rule="evenodd">
<g clip-path="url(#clip42)" clip-rule="evenodd">
<path style="fill:none;stroke-width:0.0246223;stroke-linecap:butt;stroke-linejoin:miter;stroke:rgb(17.96875%,20.3125%,21.09375%);stroke-opacity:0.8;stroke-miterlimit:10;" d="M 1.731976 0.525201 L 2.28948 0.582115 " transform="matrix(164.103469,0,0,164.103469,-95.289695,32.445581)"/>
</g>
</g>
</g>
<g clip-path="url(#clip43)" clip-rule="nonzero">
<g clip-path="url(#clip44)" clip-rule="evenodd">
<g clip-path="url(#clip45)" clip-rule="evenodd">
<path style="fill:none;stroke-width:0.0246223;stroke-linecap:butt;stroke-linejoin:miter;stroke:rgb(17.96875%,20.3125%,21.09375%);stroke-opacity:0.8;stroke-miterlimit:10;" d="M 2.28948 0.582115 L 2.43223 0.248579 " transform="matrix(164.103469,0,0,164.103469,-95.289695,32.445581)"/>
</g>
</g>
</g>
<g clip-path="url(#clip46)" clip-rule="nonzero">
<g clip-path="url(#clip47)" clip-rule="evenodd">
<g clip-path="url(#clip48)" clip-rule="evenodd">
<path style="fill:none;stroke-width:0.0246223;stroke-linecap:butt;stroke-linejoin:miter;stroke:rgb(17.96875%,20.3125%,21.09375%);stroke-opacity:0.8;stroke-miterlimit:10;" d="M 2.28948 0.582115 L 2.747104 1.180156 " transform="matrix(164.103469,0,0,164.103469,-95.289695,32.445581)"/>
</g>
</g>
</g>
<g clip-path="url(#clip49)" clip-rule="nonzero">
<g clip-path="url(#clip50)" clip-rule="evenodd">
<g clip-path="url(#clip51)" clip-rule="evenodd">
<path style="fill:none;stroke-width:0.0246223;stroke-linecap:butt;stroke-linejoin:miter;stroke:rgb(17.96875%,20.3125%,21.09375%);stroke-opacity:0.8;stroke-miterlimit:10;" d="M 2.535728 1.6508 L 2.816729 1.567226 " transform="matrix(164.103469,0,0,164.103469,-95.289695,32.445581)"/>
</g>
</g>
</g>
<g clip-path="url(#clip52)" clip-rule="nonzero">
<g clip-path="url(#clip53)" clip-rule="evenodd">
<g clip-path="url(#clip54)" clip-rule="evenodd">
<path style="fill:none;stroke-width:0.0246223;stroke-linecap:butt;stroke-linejoin:miter;stroke:rgb(17.96875%,20.3125%,21.09375%);stroke-opacity:0.8;stroke-miterlimit:10;" d="M 2.535728 1.6508 L 2.788403 1.798621 " transform="matrix(164.103469,0,0,164.103469,-95.289695,32.445581)"/>
</g>
</g>
</g>
<g clip-path="url(#clip55)" clip-rule="nonzero">
<g clip-path="url(#clip56)" clip-rule="evenodd">
<g clip-path="url(#clip57)" clip-rule="evenodd">
<path style="fill:none;stroke-width:0.0246223;stroke-linecap:butt;stroke-linejoin:miter;stroke:rgb(17.96875%,20.3125%,21.09375%);stroke-opacity:0.8;stroke-miterlimit:10;" d="M 2.816729 1.567226 L 2.788403 1.798621 " transform="matrix(164.103469,0,0,164.103469,-95.289695,32.445581)"/>
</g>
</g>
</g>
<g clip-path="url(#clip58)" clip-rule="nonzero">
<g clip-path="url(#clip59)" clip-rule="evenodd">
<g clip-path="url(#clip60)" clip-rule="evenodd">
<path style="fill:none;stroke-width:0.0246223;stroke-linecap:butt;stroke-linejoin:miter;stroke:rgb(17.96875%,20.3125%,21.09375%);stroke-opacity:0.8;stroke-miterlimit:10;" d="M 2.816729 1.567226 L 2.747104 1.180156 " transform="matrix(164.103469,0,0,164.103469,-95.289695,32.445581)"/>
</g>
</g>
</g>
<path style="fill-rule:nonzero;fill:rgb(100%,92.941176%,43.529412%);fill-opacity:1;stroke-width:0.0246223;stroke-linecap:butt;stroke-linejoin:miter;stroke:rgb(60%,60%,60%);stroke-opacity:0.8;stroke-miterlimit:10;" d="M 0.123103 0.0000072147 C 0.123103 0.0679902 0.067998 0.123119 -0.00000886233 0.123119 C -0.0679919 0.123119 -0.123121 0.0679902 -0.123121 0.0000072147 C -0.123121 -0.0679996 -0.0679919 -0.123105 -0.00000886233 -0.123105 C 0.067998 -0.123105 0.123103 -0.0679996 0.123103 0.0000072147 Z M 0.123103 0.0000072147 " transform="matrix(164.103469,0,0,164.103469,66.149892,401.27616)"/>
<path style="fill-rule:nonzero;fill:rgb(55.294118%,82.745098%,78.039216%);fill-opacity:1;stroke-width:0.0246223;stroke-linecap:butt;stroke-linejoin:miter;stroke:rgb(60%,60%,60%);stroke-opacity:0.8;stroke-miterlimit:10;" d="M 0.123113 -0.00000915074 C 0.123113 0.0679977 0.067984 0.123103 0.000000987841 0.123103 C -0.067982 0.123103 -0.123111 0.0679977 -0.123111 -0.00000915074 C -0.123111 -0.0679922 -0.067982 -0.123121 0.000000987841 -0.123121 C 0.067984 -0.123121 0.123113 -0.0679922 0.123113 -0.00000915074 Z M 0.123113 -0.00000915074 " transform="matrix(164.103469,0,0,164.103469,176.468588,513.876502)"/>
<path style="fill-rule:nonzero;fill:rgb(100%,92.941176%,43.529412%);fill-opacity:1;stroke-width:0.0246223;stroke-linecap:butt;stroke-linejoin:miter;stroke:rgb(60%,60%,60%);stroke-opacity:0.8;stroke-miterlimit:10;" d="M 0.123112 0.00000102474 C 0.123112 0.067984 0.0679833 0.123113 0.000000241703 0.123113 C -0.0679828 0.123113 -0.123112 0.067984 -0.123112 0.00000102474 C -0.123112 -0.067982 -0.0679828 -0.123111 0.000000241703 -0.123111 C 0.0679833 -0.123111 0.123112 -0.067982 0.123112 0.00000102474 Z M 0.123112 0.00000102474 " transform="matrix(164.103469,0,0,164.103469,110.859335,463.781082)"/>
<path style="fill-rule:nonzero;fill:rgb(100%,92.941176%,43.529412%);fill-opacity:1;stroke-width:0.0246223;stroke-linecap:butt;stroke-linejoin:miter;stroke:rgb(60%,60%,60%);stroke-opacity:0.8;stroke-miterlimit:10;" d="M 0.123118 0.00000440959 C 0.123118 0.0679874 0.0679893 0.123117 0.00000631349 0.123117 C -0.0680005 0.123117 -0.123106 0.0679874 -0.123106 0.00000440959 C -0.123106 -0.0680024 -0.0680005 -0.123108 0.00000631349 -0.123108 C 0.0679893 -0.123108 0.123118 -0.0680024 0.123118 0.00000440959 Z M 0.123118 0.00000440959 " transform="matrix(164.103469,0,0,164.103469,41.870058,351.550058)"/>
<path style="fill-rule:nonzero;fill:rgb(55.294118%,82.745098%,78.039216%);fill-opacity:1;stroke-width:0.0246223;stroke-linecap:butt;stroke-linejoin:miter;stroke:rgb(60%,60%,60%);stroke-opacity:0.8;stroke-miterlimit:10;" d="M 0.123117 -0.000000761217 C 0.123117 0.0679823 0.0679878 0.123111 0.00000480315 0.123111 C -0.068002 0.123111 -0.123107 0.0679823 -0.123107 -0.000000761217 C -0.123107 -0.0679838 -0.068002 -0.123113 0.00000480315 -0.123113 C 0.0679878 -0.123113 0.123117 -0.0679838 0.123117 -0.000000761217 Z M 0.123117 -0.000000761217 " transform="matrix(164.103469,0,0,164.103469,509.948431,328.1095)"/>
<path style="fill-rule:nonzero;fill:rgb(55.294118%,82.745098%,78.039216%);fill-opacity:1;stroke-width:0.0246223;stroke-linecap:butt;stroke-linejoin:miter;stroke:rgb(60%,60%,60%);stroke-opacity:0.8;stroke-miterlimit:10;" d="M 0.123106 -0.00000523219 C 0.123106 0.0680016 0.0680009 0.123107 -0.00000590991 0.123107 C -0.0679889 0.123107 -0.123118 0.0680016 -0.123118 -0.00000523219 C -0.123118 -0.0679883 -0.0679889 -0.123117 -0.00000590991 -0.123117 C 0.0680009 -0.123117 0.123106 -0.0679883 0.123106 -0.00000523219 Z M 0.123106 -0.00000523219 " transform="matrix(164.103469,0,0,164.103469,334.872064,479.586796)"/>
<path style="fill-rule:nonzero;fill:rgb(55.294118%,82.745098%,78.039216%);fill-opacity:1;stroke-width:0.0246223;stroke-linecap:butt;stroke-linejoin:miter;stroke:rgb(60%,60%,60%);stroke-opacity:0.8;stroke-miterlimit:10;" d="M 0.123119 -0.00000182222 C 0.123119 0.0679812 0.0679894 0.12311 0.00000639974 0.12311 C -0.0680004 0.12311 -0.123106 0.0679812 -0.123106 -0.00000182222 C -0.123106 -0.0679848 -0.0680004 -0.123114 0.00000639974 -0.123114 C 0.0679894 -0.123114 0.123119 -0.0679848 0.123119 -0.00000182222 Z M 0.123119 -0.00000182222 " transform="matrix(164.103469,0,0,164.103469,256.815356,526.762018)"/>
<path style="fill-rule:nonzero;fill:rgb(55.294118%,82.745098%,78.039216%);fill-opacity:1;stroke-width:0.0246223;stroke-linecap:butt;stroke-linejoin:miter;stroke:rgb(60%,60%,60%);stroke-opacity:0.8;stroke-miterlimit:10;" d="M 0.123106 0.0000100503 C 0.123106 0.0679931 0.068001 0.123122 -0.00000584433 0.123122 C -0.0679889 0.123122 -0.123118 0.0679931 -0.123118 0.0000100503 C -0.123118 -0.0679968 -0.0679889 -0.123102 -0.00000584433 -0.123102 C 0.068001 -0.123102 0.123106 -0.0679968 0.123106 0.0000100503 Z M 0.123106 0.0000100503 " transform="matrix(164.103469,0,0,164.103469,405.993147,356.670226)"/>
<path style="fill-rule:nonzero;fill:rgb(55.294118%,82.745098%,78.039216%);fill-opacity:1;stroke-width:0.0246223;stroke-linecap:butt;stroke-linejoin:miter;stroke:rgb(60%,60%,60%);stroke-opacity:0.8;stroke-miterlimit:10;" d="M 0.123106 -0.0000105564 C 0.123106 0.0679963 0.0680005 0.123102 -0.00000631349 0.123102 C -0.0679893 0.123102 -0.123118 0.0679963 -0.123118 -0.0000105564 C -0.123118 -0.0679936 -0.0679893 -0.123123 -0.00000631349 -0.123123 C 0.0680005 -0.123123 0.123106 -0.0679936 0.123106 -0.0000105564 Z M 0.123106 -0.0000105564 " transform="matrix(164.103469,0,0,164.103469,558.129942,298.689232)"/>
<path style="fill-rule:nonzero;fill:rgb(55.294118%,82.745098%,78.039216%);fill-opacity:1;stroke-width:0.0246223;stroke-linecap:butt;stroke-linejoin:miter;stroke:rgb(60%,60%,60%);stroke-opacity:0.8;stroke-miterlimit:10;" d="M 0.123114 -0.00000777504 C 0.123114 0.0679991 0.0679848 0.123104 0.00000178797 0.123104 C -0.0679812 0.123104 -0.12311 0.0679991 -0.12311 -0.00000777504 C -0.12311 -0.0679908 -0.0679812 -0.12312 0.00000178797 -0.12312 C 0.0679848 -0.12312 0.123114 -0.0679908 0.123114 -0.00000777504 Z M 0.123114 -0.00000777504 " transform="matrix(164.103469,0,0,164.103469,454.796582,439.364557)"/>
<path style="fill-rule:nonzero;fill:rgb(55.294118%,82.745098%,78.039216%);fill-opacity:1;stroke-width:0.0246223;stroke-linecap:butt;stroke-linejoin:miter;stroke:rgb(60%,60%,60%);stroke-opacity:0.8;stroke-miterlimit:10;" d="M 0.123121 0.00000889974 C 0.123121 0.0679919 0.0679915 0.123121 0.00000845711 0.123121 C -0.0679984 0.123121 -0.123104 0.0679919 -0.123104 0.00000889974 C -0.123104 -0.0679979 -0.0679984 -0.123103 0.00000845711 -0.123103 C 0.0679915 -0.123103 0.123121 -0.0679979 0.123121 0.00000889974 Z M 0.123121 0.00000889974 " transform="matrix(164.103469,0,0,164.103469,131.260331,126.205571)"/>
<path style="fill-rule:nonzero;fill:rgb(55.294118%,82.745098%,78.039216%);fill-opacity:1;stroke-width:0.0246223;stroke-linecap:butt;stroke-linejoin:miter;stroke:rgb(60%,60%,60%);stroke-opacity:0.8;stroke-miterlimit:10;" d="M 0.12311 -0.000000976422 C 0.12311 0.067982 0.0680046 0.123111 -0.0000022405 0.123111 C -0.0679853 0.123111 -0.123114 0.067982 -0.123114 -0.000000976422 C -0.123114 -0.067984 -0.0679853 -0.123113 -0.0000022405 -0.123113 C 0.0680046 -0.123113 0.12311 -0.067984 0.12311 -0.000000976422 Z M 0.12311 -0.000000976422 " transform="matrix(164.103469,0,0,164.103469,188.933961,118.632973)"/>
<path style="fill-rule:nonzero;fill:rgb(55.294118%,82.745098%,78.039216%);fill-opacity:1;stroke-width:0.0246223;stroke-linecap:butt;stroke-linejoin:miter;stroke:rgb(60%,60%,60%);stroke-opacity:0.8;stroke-miterlimit:10;" d="M 0.123115 0.0000110803 C 0.123115 0.0679941 0.0679859 0.123123 0.00000288323 0.123123 C -0.0680039 0.123123 -0.123109 0.0679941 -0.123109 0.0000110803 C -0.123109 -0.0679957 -0.0680039 -0.123101 0.00000288323 -0.123101 C 0.0679859 -0.123101 0.123115 -0.0679957 0.123115 0.0000110803 Z M 0.123115 0.0000110803 " transform="matrix(164.103469,0,0,164.103469,280.421402,127.970838)"/>
<path style="fill-rule:nonzero;fill:rgb(55.294118%,82.745098%,78.039216%);fill-opacity:1;stroke-width:0.0246223;stroke-linecap:butt;stroke-linejoin:miter;stroke:rgb(60%,60%,60%);stroke-opacity:0.8;stroke-miterlimit:10;" d="M 0.123119 0.00000182222 C 0.123119 0.0679848 0.0679899 0.123114 0.0000068402 0.123114 C -0.068 0.123114 -0.123105 0.0679848 -0.123105 0.00000182222 C -0.123105 -0.0679812 -0.068 -0.12311 0.0000068402 -0.12311 C 0.0679899 -0.12311 0.123119 -0.0679812 0.123119 0.00000182222 Z M 0.123119 0.00000182222 " transform="matrix(164.103469,0,0,164.103469,303.846534,73.237982)"/>
<path style="fill-rule:nonzero;fill:rgb(55.294118%,82.745098%,78.039216%);fill-opacity:1;stroke-width:0.0246223;stroke-linecap:butt;stroke-linejoin:miter;stroke:rgb(60%,60%,60%);stroke-opacity:0.8;stroke-miterlimit:10;" d="M 0.123105 0.0000113883 C 0.123105 0.0679944 0.0679998 0.123124 -0.00000705276 0.123124 C -0.0679901 0.123124 -0.123119 0.0679944 -0.123119 0.0000113883 C -0.123119 -0.0679954 -0.0679901 -0.123101 -0.00000705276 -0.123101 C 0.0679998 -0.123101 0.123105 -0.0679954 0.123105 0.0000113883 Z M 0.123105 0.0000113883 " transform="matrix(164.103469,0,0,164.103469,320.833189,303.345787)"/>
<path style="fill-rule:nonzero;fill:rgb(55.294118%,82.745098%,78.039216%);fill-opacity:1;stroke-width:0.0246223;stroke-linecap:butt;stroke-linejoin:miter;stroke:rgb(60%,60%,60%);stroke-opacity:0.8;stroke-miterlimit:10;" d="M 0.123108 -0.00000434252 C 0.123108 0.0680025 0.0680023 0.123108 -0.00000448413 0.123108 C -0.0679875 0.123108 -0.123117 0.0680025 -0.123117 -0.00000434252 C -0.123117 -0.0679874 -0.0679875 -0.123116 -0.00000448413 -0.123116 C 0.0680023 -0.123116 0.123108 -0.0679874 0.123108 -0.00000434252 Z M 0.123108 -0.00000434252 " transform="matrix(164.103469,0,0,164.103469,366.946048,289.633525)"/>
<path style="fill-rule:nonzero;fill:rgb(55.294118%,82.745098%,78.039216%);fill-opacity:1;stroke-width:0.0246223;stroke-linecap:butt;stroke-linejoin:miter;stroke:rgb(60%,60%,60%);stroke-opacity:0.8;stroke-miterlimit:10;" d="M 0.123102 0.00000846018 C 0.123102 0.0679915 0.0679966 0.123121 -0.000010236 0.123121 C -0.0679933 0.123121 -0.123122 0.0679915 -0.123122 0.00000846018 C -0.123122 -0.0679984 -0.0679933 -0.123104 -0.000010236 -0.123104 C 0.0679966 -0.123104 0.123102 -0.0679984 0.123102 0.00000846018 Z M 0.123102 0.00000846018 " transform="matrix(164.103469,0,0,164.103469,362.298555,327.60408)"/>
<path style="fill-rule:nonzero;fill:rgb(55.294118%,82.745098%,78.039216%);fill-opacity:1;stroke-width:0.0246223;stroke-linecap:butt;stroke-linejoin:miter;stroke:rgb(60%,60%,60%);stroke-opacity:0.8;stroke-miterlimit:10;" d="M 0.12312 0.000000405203 C 0.12312 0.0679834 0.0679911 0.123113 0.00000808993 0.123113 C -0.0679987 0.123113 -0.123104 0.0679834 -0.123104 0.000000405203 C -0.123104 -0.0679826 -0.0679987 -0.123112 0.00000808993 -0.123112 C 0.0679911 -0.123112 0.12312 -0.0679826 0.12312 0.000000405203 Z M 0.12312 0.000000405203 " transform="matrix(164.103469,0,0,164.103469,355.518204,226.113215)"/>
</g>
</svg>
