<?xml version="1.0" encoding="UTF-8"?>
<svg xmlns="http://www.w3.org/2000/svg" xmlns:xlink="http://www.w3.org/1999/xlink" width="600pt" height="600pt" viewBox="0 0 600 600" version="1.1">
<defs>
<clipPath id="clip1">
  <path d="M 480 345.125 L 600 345.125 L 600 521.035156 L 480 521.035156 Z M 480 345.125 "/>
</clipPath>
<clipPath id="clip2">
  <path d="M 361.210938 345.125 L 734.679688 345.125 L 734.679688 521.035156 L 361.210938 521.035156 Z M 361.210938 345.125 L 557.960938 473.238281 C 557.960938 484.394531 548.917969 493.441406 537.757812 493.441406 C 526.601562 493.441406 517.554688 484.394531 517.554688 473.238281 C 517.554688 462.078125 526.601562 453.035156 537.757812 453.035156 C 548.917969 453.035156 557.960938 462.078125 557.960938 473.238281 Z M 361.210938 345.125 "/>
</clipPath>
<clipPath id="clip3">
  <path d="M 361.210938 345.125 L 734.679688 345.125 L 734.679688 521.035156 L 361.210938 521.035156 Z M 361.210938 345.125 L 578.332031 392.917969 C 578.332031 404.074219 569.289062 413.121094 558.128906 413.121094 C 546.972656 413.121094 537.925781 404.074219 537.925781 392.917969 C 537.925781 381.761719 546.972656 372.714844 558.128906 372.714844 C 569.289062 372.714844 578.332031 381.761719 578.332031 392.917969 Z M 361.210938 345.125 "/>
</clipPath>
<clipPath id="clip4">
  <path d="M 451 416 L 595 416 L 595 588 L 451 588 Z M 451 416 "/>
</clipPath>
<clipPath id="clip5">
  <path d="M 346.222656 388.945312 L 700.648438 388.945312 L 700.648438 614.238281 L 346.222656 614.238281 Z M 346.222656 388.945312 L 557.960938 473.238281 C 557.960938 484.394531 548.917969 493.441406 537.757812 493.441406 C 526.601562 493.441406 517.554688 484.394531 517.554688 473.238281 C 517.554688 462.078125 526.601562 453.035156 537.757812 453.035156 C 548.917969 453.035156 557.960938 462.078125 557.960938 473.238281 Z M 346.222656 388.945312 "/>
</clipPath>
<clipPath id="clip6">
  <path d="M 346.222656 388.945312 L 700.648438 388.945312 L 700.648438 614.238281 L 346.222656 614.238281 Z M 346.222656 388.945312 L 529.3125 529.941406 C 529.3125 541.097656 520.265625 550.144531 509.109375 550.144531 C 497.953125 550.144531 488.90625 541.097656 488.90625 529.941406 C 488.90625 518.78125 497.953125 509.738281 509.109375 509.738281 C 520.265625 509.738281 529.3125 518.78125 529.3125 529.941406 Z M 346.222656 388.945312 "/>
</clipPath>
<clipPath id="clip7">
  <path d="M 480 268.449219 L 600 268.449219 L 600 446.6875 L 480 446.6875 Z M 480 268.449219 "/>
</clipPath>
<clipPath id="clip8">
  <path d="M 362.632812 268.449219 L 733.054688 268.449219 L 733.054688 446.6875 L 362.632812 446.6875 Z M 362.632812 268.449219 L 557.757812 322.214844 C 557.757812 333.371094 548.710938 342.417969 537.554688 342.417969 C 526.394531 342.417969 517.351562 333.371094 517.351562 322.214844 C 517.351562 311.054688 526.394531 302.011719 537.554688 302.011719 C 548.710938 302.011719 557.757812 311.054688 557.757812 322.214844 Z M 362.632812 268.449219 "/>
</clipPath>
<clipPath id="clip9">
  <path d="M 362.632812 268.449219 L 733.054688 268.449219 L 733.054688 446.6875 L 362.632812 446.6875 Z M 362.632812 268.449219 L 578.332031 392.917969 C 578.332031 404.074219 569.289062 413.121094 558.128906 413.121094 C 546.972656 413.121094 537.925781 404.074219 537.925781 392.917969 C 537.925781 381.761719 546.972656 372.714844 558.128906 372.714844 C 569.289062 372.714844 578.332031 381.761719 578.332031 392.917969 Z M 362.632812 268.449219 "/>
</clipPath>
<clipPath id="clip10">
  <path d="M 432.578125 253 L 569.632812 253 L 569.632812 380 L 432.578125 380 Z M 432.578125 253 "/>
</clipPath>
<clipPath id="clip11">
  <path d="M 432.578125 130.796875 L 569.632812 130.796875 L 569.632812 502.007812 L 432.578125 502.007812 Z M 432.578125 130.796875 L 557.757812 322.214844 C 557.757812 333.371094 548.710938 342.417969 537.554688 342.417969 C 526.394531 342.417969 517.351562 333.371094 517.351562 322.214844 C 517.351562 311.054688 526.394531 302.011719 537.554688 302.011719 C 548.710938 302.011719 557.757812 311.054688 557.757812 322.214844 Z M 432.578125 130.796875 "/>
</clipPath>
<clipPath id="clip12">
  <path d="M 432.578125 130.796875 L 569.632812 130.796875 L 569.632812 502.007812 L 432.578125 502.007812 Z M 432.578125 130.796875 L 484.855469 310.585938 C 484.855469 321.746094 475.808594 330.789062 464.652344 330.789062 C 453.492188 330.789062 444.449219 321.746094 444.449219 310.585938 C 444.449219 299.429688 453.492188 290.382812 464.652344 290.382812 C 475.808594 290.382812 484.855469 299.429688 484.855469 310.585938 Z M 432.578125 130.796875 "/>
</clipPath>
<clipPath id="clip13">
  <path d="M 41 259 L 278 259 L 278 448 L 41 448 Z M 41 259 "/>
</clipPath>
<clipPath id="clip14">
  <path d="M 1.566406 160.433594 L 316.855469 160.433594 L 316.855469 546.777344 L 1.566406 546.777344 Z M 1.566406 160.433594 L 118.441406 316.4375 C 118.441406 327.597656 109.394531 336.640625 98.238281 336.640625 C 87.078125 336.640625 78.035156 327.597656 78.035156 316.4375 C 78.035156 305.28125 87.078125 296.234375 98.238281 296.234375 C 109.394531 296.234375 118.441406 305.28125 118.441406 316.4375 Z M 1.566406 160.433594 "/>
</clipPath>
<clipPath id="clip15">
  <path d="M 1.566406 160.433594 L 316.855469 160.433594 L 316.855469 546.777344 L 1.566406 546.777344 Z M 1.566406 160.433594 L 240.382812 390.769531 C 240.382812 401.929688 231.335938 410.972656 220.179688 410.972656 C 209.019531 410.972656 199.976562 401.929688 199.976562 390.769531 C 199.976562 379.613281 209.019531 370.570312 220.179688 370.570312 C 231.335938 370.570312 240.382812 379.613281 240.382812 390.769531 Z M 1.566406 160.433594 "/>
</clipPath>
<clipPath id="clip16">
  <path d="M 0 214 L 156 214 L 156 374 L 0 374 Z M 0 214 "/>
</clipPath>
<clipPath id="clip17">
  <path d="M -73.558594 128.359375 L 213.671875 128.359375 L 213.671875 459.285156 L -73.558594 459.285156 Z M -73.558594 128.359375 L 118.441406 316.4375 C 118.441406 327.597656 109.394531 336.640625 98.238281 336.640625 C 87.078125 336.640625 78.035156 327.597656 78.035156 316.4375 C 78.035156 305.28125 87.078125 296.234375 98.238281 296.234375 C 109.394531 296.234375 118.441406 305.28125 118.441406 316.4375 Z M -73.558594 128.359375 "/>
</clipPath>
<clipPath id="clip18">
  <path d="M -73.558594 128.359375 L 213.671875 128.359375 L 213.671875 459.285156 L -73.558594 459.285156 Z M -73.558594 128.359375 L 62.074219 271.203125 C 62.074219 282.359375 53.027344 291.40625 41.871094 291.40625 C 30.710938 291.40625 21.667969 282.359375 21.667969 271.203125 C 21.667969 260.042969 30.710938 251 41.871094 251 C 53.027344 251 62.074219 260.042969 62.074219 271.203125 Z M -73.558594 128.359375 "/>
</clipPath>
<clipPath id="clip19">
  <path d="M 304 253 L 522 253 L 522 407 L 304 407 Z M 304 253 "/>
</clipPath>
<clipPath id="clip20">
  <path d="M 295.21875 139.960938 L 531.332031 139.960938 L 531.332031 519.851562 L 295.21875 519.851562 Z M 295.21875 139.960938 L 382.097656 349.222656 C 382.097656 360.378906 373.054688 369.425781 361.894531 369.425781 C 350.738281 369.425781 341.691406 360.378906 341.691406 349.222656 C 341.691406 338.066406 350.738281 329.019531 361.894531 329.019531 C 373.054688 329.019531 382.097656 338.066406 382.097656 349.222656 Z M 295.21875 139.960938 "/>
</clipPath>
<clipPath id="clip21">
  <path d="M 295.21875 139.960938 L 531.332031 139.960938 L 531.332031 519.851562 L 295.21875 519.851562 Z M 295.21875 139.960938 L 484.855469 310.585938 C 484.855469 321.746094 475.808594 330.789062 464.652344 330.789062 C 453.492188 330.789062 444.449219 321.746094 444.449219 310.585938 C 444.449219 299.429688 453.492188 290.382812 464.652344 290.382812 C 475.808594 290.382812 484.855469 299.429688 484.855469 310.585938 Z M 295.21875 139.960938 "/>
</clipPath>
<clipPath id="clip22">
  <path d="M 166.070312 292 L 416.007812 292 L 416.007812 448 L 166.070312 448 Z M 166.070312 292 "/>
</clipPath>
<clipPath id="clip23">
  <path d="M 166.070312 174.402344 L 416.007812 174.402344 L 416.007812 565.59375 L 166.070312 565.59375 Z M 166.070312 174.402344 L 382.097656 349.222656 C 382.097656 360.378906 373.054688 369.425781 361.894531 369.425781 C 350.738281 369.425781 341.691406 360.378906 341.691406 349.222656 C 341.691406 338.066406 350.738281 329.019531 361.894531 329.019531 C 373.054688 329.019531 382.097656 338.066406 382.097656 349.222656 Z M 166.070312 174.402344 "/>
</clipPath>
<clipPath id="clip24">
  <path d="M 166.070312 174.402344 L 416.007812 174.402344 L 416.007812 565.59375 L 166.070312 565.59375 Z M 166.070312 174.402344 L 240.382812 390.769531 C 240.382812 401.929688 231.335938 410.972656 220.179688 410.972656 C 209.019531 410.972656 199.976562 401.929688 199.976562 390.769531 C 199.976562 379.613281 209.019531 370.570312 220.179688 370.570312 C 231.335938 370.570312 240.382812 379.613281 240.382812 390.769531 Z M 166.070312 174.402344 "/>
</clipPath>
<clipPath id="clip25">
  <path d="M 163 333 L 328 333 L 328 558 L 163 558 Z M 163 333 "/>
</clipPath>
<clipPath id="clip26">
  <path d="M 54.292969 312.710938 L 435.992188 312.710938 L 435.992188 577.992188 L 54.292969 577.992188 Z M 54.292969 312.710938 L 240.382812 390.769531 C 240.382812 401.929688 231.335938 410.972656 220.179688 410.972656 C 209.019531 410.972656 199.976562 401.929688 199.976562 390.769531 C 199.976562 379.613281 209.019531 370.570312 220.179688 370.570312 C 231.335938 370.570312 240.382812 379.613281 240.382812 390.769531 Z M 54.292969 312.710938 "/>
</clipPath>
<clipPath id="clip27">
  <path d="M 54.292969 312.710938 L 435.992188 312.710938 L 435.992188 577.992188 L 54.292969 577.992188 Z M 54.292969 312.710938 L 290.304688 499.929688 C 290.304688 511.089844 281.261719 520.132812 270.101562 520.132812 C 258.945312 520.132812 249.898438 511.089844 249.898438 499.929688 C 249.898438 488.773438 258.945312 479.726562 270.101562 479.726562 C 281.261719 479.726562 290.304688 488.773438 290.304688 499.929688 Z M 54.292969 312.710938 "/>
</clipPath>
<clipPath id="clip28">
  <path d="M 118 333 L 278 333 L 278 474 L 118 474 Z M 118 333 "/>
</clipPath>
<clipPath id="clip29">
  <path d="M 82.957031 232.246094 L 312.585938 232.246094 L 312.585938 574.933594 L 82.957031 574.933594 Z M 82.957031 232.246094 L 240.382812 390.769531 C 240.382812 401.929688 231.335938 410.972656 220.179688 410.972656 C 209.019531 410.972656 199.976562 401.929688 199.976562 390.769531 C 199.976562 379.613281 209.019531 370.570312 220.179688 370.570312 C 231.335938 370.570312 240.382812 379.613281 240.382812 390.769531 Z M 82.957031 232.246094 "/>
</clipPath>
<clipPath id="clip30">
  <path d="M 82.957031 232.246094 L 312.585938 232.246094 L 312.585938 574.933594 L 82.957031 574.933594 Z M 82.957031 232.246094 L 195.5625 416.40625 C 195.5625 427.5625 186.515625 436.609375 175.359375 436.609375 C 164.199219 436.609375 155.15625 427.5625 155.15625 416.40625 C 155.15625 405.25 164.199219 396.203125 175.359375 396.203125 C 186.515625 396.203125 195.5625 405.25 195.5625 416.40625 Z M 82.957031 232.246094 "/>
</clipPath>
<clipPath id="clip31">
  <path d="M 111 333 L 278 333 L 278 520 L 111 520 Z M 111 333 "/>
</clipPath>
<clipPath id="clip32">
  <path d="M 19.898438 282.753906 L 368.660156 282.753906 L 368.660156 570.753906 L 19.898438 570.753906 Z M 19.898438 282.753906 L 240.382812 390.769531 C 240.382812 401.929688 231.335938 410.972656 220.179688 410.972656 C 209.019531 410.972656 199.976562 401.929688 199.976562 390.769531 C 199.976562 379.613281 209.019531 370.570312 220.179688 370.570312 C 231.335938 370.570312 240.382812 379.613281 240.382812 390.769531 Z M 19.898438 282.753906 "/>
</clipPath>
<clipPath id="clip33">
  <path d="M 19.898438 282.753906 L 368.660156 282.753906 L 368.660156 570.753906 L 19.898438 570.753906 Z M 19.898438 282.753906 L 188.578125 462.734375 C 188.578125 473.890625 179.535156 482.9375 168.375 482.9375 C 157.21875 482.9375 148.175781 473.890625 148.175781 462.734375 C 148.175781 451.574219 157.21875 442.53125 168.375 442.53125 C 179.535156 442.53125 188.578125 451.574219 188.578125 462.734375 Z M 19.898438 282.753906 "/>
</clipPath>
<clipPath id="clip34">
  <path d="M 160 289.132812 L 278 289.132812 L 278 399.40625 L 160 399.40625 Z M 160 289.132812 "/>
</clipPath>
<clipPath id="clip35">
  <path d="M 35.828125 289.132812 L 402.132812 289.132812 L 402.132812 399.40625 L 35.828125 399.40625 Z M 35.828125 289.132812 L 240.382812 390.769531 C 240.382812 401.929688 231.335938 410.972656 220.179688 410.972656 C 209.019531 410.972656 199.976562 401.929688 199.976562 390.769531 C 199.976562 379.613281 209.019531 370.570312 220.179688 370.570312 C 231.335938 370.570312 240.382812 379.613281 240.382812 390.769531 Z M 35.828125 289.132812 "/>
</clipPath>
<clipPath id="clip36">
  <path d="M 35.828125 289.132812 L 402.132812 289.132812 L 402.132812 399.40625 L 35.828125 399.40625 Z M 35.828125 289.132812 L 237.980469 297.765625 C 237.980469 308.921875 228.9375 317.96875 217.777344 317.96875 C 206.621094 317.96875 197.574219 308.921875 197.574219 297.765625 C 197.574219 286.609375 206.621094 277.5625 217.777344 277.5625 C 228.9375 277.5625 237.980469 286.609375 237.980469 297.765625 Z M 35.828125 289.132812 "/>
</clipPath>
<clipPath id="clip37">
  <path d="M 285 12 L 458 12 L 458 151 L 285 151 Z M 285 12 "/>
</clipPath>
<clipPath id="clip38">
  <path d="M 273.171875 -99.308594 L 470.683594 -99.308594 L 470.683594 262.410156 L 273.171875 262.410156 Z M 273.171875 -99.308594 L 420.964844 70.058594 C 420.964844 81.21875 411.917969 90.261719 400.761719 90.261719 C 389.601562 90.261719 380.558594 81.21875 380.558594 70.058594 C 380.558594 58.902344 389.601562 49.855469 400.761719 49.855469 C 411.917969 49.855469 420.964844 58.902344 420.964844 70.058594 Z M 273.171875 -99.308594 "/>
</clipPath>
<clipPath id="clip39">
  <path d="M 273.171875 -99.308594 L 470.683594 -99.308594 L 470.683594 262.410156 L 273.171875 262.410156 Z M 273.171875 -99.308594 L 363.292969 93.039062 C 363.292969 104.199219 354.25 113.242188 343.089844 113.242188 C 331.933594 113.242188 322.886719 104.199219 322.886719 93.039062 C 322.886719 81.882812 331.933594 72.835938 343.089844 72.835938 C 354.25 72.835938 363.292969 81.882812 363.292969 93.039062 Z M 273.171875 -99.308594 "/>
</clipPath>
<clipPath id="clip40">
  <path d="M 203 35 L 401 35 L 401 208 L 203 208 Z M 203 35 "/>
</clipPath>
<clipPath id="clip41">
  <path d="M 155.316406 -57.535156 L 448.132812 -57.535156 L 448.132812 300.640625 L 155.316406 300.640625 Z M 155.316406 -57.535156 L 363.292969 93.039062 C 363.292969 104.199219 354.25 113.242188 343.089844 113.242188 C 331.933594 113.242188 322.886719 104.199219 322.886719 93.039062 C 322.886719 81.882812 331.933594 72.835938 343.089844 72.835938 C 354.25 72.835938 363.292969 81.882812 363.292969 93.039062 Z M 155.316406 -57.535156 "/>
</clipPath>
<clipPath id="clip42">
  <path d="M 155.316406 -57.535156 L 448.132812 -57.535156 L 448.132812 300.640625 L 155.316406 300.640625 Z M 155.316406 -57.535156 L 280.558594 150.0625 C 280.558594 161.222656 271.515625 170.265625 260.355469 170.265625 C 249.199219 170.265625 240.152344 161.222656 240.152344 150.0625 C 240.152344 138.90625 249.199219 129.859375 260.355469 129.859375 C 271.515625 129.859375 280.558594 138.90625 280.558594 150.0625 Z M 155.316406 -57.535156 "/>
</clipPath>
<clipPath id="clip43">
  <path d="M 166 35 L 318 35 L 318 208 L 166 208 Z M 166 35 "/>
</clipPath>
<clipPath id="clip44">
  <path d="M 69.828125 -7.203125 L 414.230469 -7.203125 L 414.230469 250.144531 L 69.828125 250.144531 Z M 69.828125 -7.203125 L 280.558594 150.0625 C 280.558594 161.222656 271.515625 170.265625 260.355469 170.265625 C 249.199219 170.265625 240.152344 161.222656 240.152344 150.0625 C 240.152344 138.90625 249.199219 129.859375 260.355469 129.859375 C 271.515625 129.859375 280.558594 138.90625 280.558594 150.0625 Z M 69.828125 -7.203125 "/>
</clipPath>
<clipPath id="clip45">
  <path d="M 69.828125 -7.203125 L 414.230469 -7.203125 L 414.230469 250.144531 L 69.828125 250.144531 Z M 69.828125 -7.203125 L 243.902344 92.875 C 243.902344 104.035156 234.859375 113.078125 223.699219 113.078125 C 212.542969 113.078125 203.496094 104.035156 203.496094 92.875 C 203.496094 81.71875 212.542969 72.671875 223.699219 72.671875 C 234.859375 72.671875 243.902344 81.71875 243.902344 92.875 Z M 69.828125 -7.203125 "/>
</clipPath>
<clipPath id="clip46">
  <path d="M 160 96.726562 L 318 96.726562 L 318 351.105469 L 160 351.105469 Z M 160 96.726562 "/>
</clipPath>
<clipPath id="clip47">
  <path d="M 42.730469 96.726562 L 435.40625 96.726562 L 435.40625 351.105469 L 42.730469 351.105469 Z M 42.730469 96.726562 L 280.558594 150.0625 C 280.558594 161.222656 271.515625 170.265625 260.355469 170.265625 C 249.199219 170.265625 240.152344 161.222656 240.152344 150.0625 C 240.152344 138.90625 249.199219 129.859375 260.355469 129.859375 C 271.515625 129.859375 280.558594 138.90625 280.558594 150.0625 Z M 42.730469 96.726562 "/>
</clipPath>
<clipPath id="clip48">
  <path d="M 42.730469 96.726562 L 435.40625 96.726562 L 435.40625 351.105469 L 42.730469 351.105469 Z M 42.730469 96.726562 L 237.980469 297.765625 C 237.980469 308.921875 228.9375 317.96875 217.777344 317.96875 C 206.621094 317.96875 197.574219 308.921875 197.574219 297.765625 C 197.574219 286.609375 206.621094 277.5625 217.777344 277.5625 C 228.9375 277.5625 237.980469 286.609375 237.980469 297.765625 Z M 42.730469 96.726562 "/>
</clipPath>
<clipPath id="clip49">
  <path d="M 82 359 L 233 359 L 233 553 L 82 553 Z M 82 359 "/>
</clipPath>
<clipPath id="clip50">
  <path d="M -26.5 338.714844 L 341.417969 338.714844 L 341.417969 572.863281 L -26.5 572.863281 Z M -26.5 338.714844 L 159.757812 495.167969 C 159.757812 506.324219 150.714844 515.371094 139.554688 515.371094 C 128.398438 515.371094 119.351562 506.324219 119.351562 495.167969 C 119.351562 484.011719 128.398438 474.964844 139.554688 474.964844 C 150.714844 474.964844 159.757812 484.011719 159.757812 495.167969 Z M -26.5 338.714844 "/>
</clipPath>
<clipPath id="clip51">
  <path d="M -26.5 338.714844 L 341.417969 338.714844 L 341.417969 572.863281 L -26.5 572.863281 Z M -26.5 338.714844 L 195.5625 416.40625 C 195.5625 427.5625 186.515625 436.609375 175.359375 436.609375 C 164.199219 436.609375 155.15625 427.5625 155.15625 416.40625 C 155.15625 405.25 164.199219 396.203125 175.359375 396.203125 C 186.515625 396.203125 195.5625 405.25 195.5625 416.40625 Z M -26.5 338.714844 "/>
</clipPath>
<clipPath id="clip52">
  <path d="M 82 405 L 226 405 L 226 553 L 82 553 Z M 82 405 "/>
</clipPath>
<clipPath id="clip53">
  <path d="M 2.480469 340.480469 L 305.453125 340.480469 L 305.453125 617.425781 L 2.480469 617.425781 Z M 2.480469 340.480469 L 159.757812 495.167969 C 159.757812 506.324219 150.714844 515.371094 139.554688 515.371094 C 128.398438 515.371094 119.351562 506.324219 119.351562 495.167969 C 119.351562 484.011719 128.398438 474.964844 139.554688 474.964844 C 150.714844 474.964844 159.757812 484.011719 159.757812 495.167969 Z M 2.480469 340.480469 "/>
</clipPath>
<clipPath id="clip54">
  <path d="M 2.480469 340.480469 L 305.453125 340.480469 L 305.453125 617.425781 L 2.480469 617.425781 Z M 2.480469 340.480469 L 188.578125 462.734375 C 188.578125 473.890625 179.535156 482.9375 168.375 482.9375 C 157.21875 482.9375 148.175781 473.890625 148.175781 462.734375 C 148.175781 451.574219 157.21875 442.53125 168.375 442.53125 C 179.535156 442.53125 188.578125 451.574219 188.578125 462.734375 Z M 2.480469 340.480469 "/>
</clipPath>
<clipPath id="clip55">
  <path d="M 111 385.835938 L 233 385.835938 L 233 493.308594 L 111 493.308594 Z M 111 385.835938 "/>
</clipPath>
<clipPath id="clip56">
  <path d="M -11.648438 385.835938 L 355.386719 385.835938 L 355.386719 493.308594 L -11.648438 493.308594 Z M -11.648438 385.835938 L 195.5625 416.40625 C 195.5625 427.5625 186.515625 436.609375 175.359375 436.609375 C 164.199219 436.609375 155.15625 427.5625 155.15625 416.40625 C 155.15625 405.25 164.199219 396.203125 175.359375 396.203125 C 186.515625 396.203125 195.5625 405.25 195.5625 416.40625 Z M -11.648438 385.835938 "/>
</clipPath>
<clipPath id="clip57">
  <path d="M -11.648438 385.835938 L 355.386719 385.835938 L 355.386719 493.308594 L -11.648438 493.308594 Z M -11.648438 385.835938 L 188.578125 462.734375 C 188.578125 473.890625 179.535156 482.9375 168.375 482.9375 C 157.21875 482.9375 148.175781 473.890625 148.175781 462.734375 C 148.175781 451.574219 157.21875 442.53125 168.375 442.53125 C 179.535156 442.53125 188.578125 451.574219 188.578125 462.734375 Z M -11.648438 385.835938 "/>
</clipPath>
<clipPath id="clip58">
  <path d="M 118 240 L 275 240 L 275 474 L 118 474 Z M 118 240 "/>
</clipPath>
<clipPath id="clip59">
  <path d="M 3.738281 233.808594 L 389.402344 233.808594 L 389.402344 480.367188 L 3.738281 480.367188 Z M 3.738281 233.808594 L 195.5625 416.40625 C 195.5625 427.5625 186.515625 436.609375 175.359375 436.609375 C 164.199219 436.609375 155.15625 427.5625 155.15625 416.40625 C 155.15625 405.25 164.199219 396.203125 175.359375 396.203125 C 186.515625 396.203125 195.5625 405.25 195.5625 416.40625 Z M 3.738281 233.808594 "/>
</clipPath>
<clipPath id="clip60">
  <path d="M 3.738281 233.808594 L 389.402344 233.808594 L 389.402344 480.367188 L 3.738281 480.367188 Z M 3.738281 233.808594 L 237.980469 297.765625 C 237.980469 308.921875 228.9375 317.96875 217.777344 317.96875 C 206.621094 317.96875 197.574219 308.921875 197.574219 297.765625 C 197.574219 286.609375 206.621094 277.5625 217.777344 277.5625 C 228.9375 277.5625 237.980469 286.609375 237.980469 297.765625 Z M 3.738281 233.808594 "/>
</clipPath>
</defs>
<g id="surface371">
<g clip-path="url(#clip1)" clip-rule="nonzero">
<g clip-path="url(#clip2)" clip-rule="evenodd">
<g clip-path="url(#clip3)" clip-rule="evenodd">
<path style="fill:none;stroke-width:0.0227037;stroke-linecap:butt;stroke-linejoin:miter;stroke:rgb(17.96875%,20.3125%,21.09375%);stroke-opacity:0.8;stroke-miterlimit:10;" d="M 3.500632 3.176321 L 3.615094 2.72501 " transform="matrix(177.971097,0,0,177.971097,-85.253418,-92.054982)"/>
</g>
</g>
</g>
<g clip-path="url(#clip4)" clip-rule="nonzero">
<g clip-path="url(#clip5)" clip-rule="evenodd">
<g clip-path="url(#clip6)" clip-rule="evenodd">
<path style="fill:none;stroke-width:0.0227037;stroke-linecap:butt;stroke-linejoin:miter;stroke:rgb(17.96875%,20.3125%,21.09375%);stroke-opacity:0.8;stroke-miterlimit:10;" d="M 3.500632 3.176321 L 3.339659 3.494929 " transform="matrix(177.971097,0,0,177.971097,-85.253418,-92.054982)"/>
</g>
</g>
</g>
<g clip-path="url(#clip7)" clip-rule="nonzero">
<g clip-path="url(#clip8)" clip-rule="evenodd">
<g clip-path="url(#clip9)" clip-rule="evenodd">
<path style="fill:none;stroke-width:0.0227037;stroke-linecap:butt;stroke-linejoin:miter;stroke:rgb(17.96875%,20.3125%,21.09375%);stroke-opacity:0.8;stroke-miterlimit:10;" d="M 3.49949 2.327737 L 3.615094 2.72501 " transform="matrix(177.971097,0,0,177.971097,-85.253418,-92.054982)"/>
</g>
</g>
</g>
<g clip-path="url(#clip10)" clip-rule="nonzero">
<g clip-path="url(#clip11)" clip-rule="evenodd">
<g clip-path="url(#clip12)" clip-rule="evenodd">
<path style="fill:none;stroke-width:0.0227037;stroke-linecap:butt;stroke-linejoin:miter;stroke:rgb(17.96875%,20.3125%,21.09375%);stroke-opacity:0.8;stroke-miterlimit:10;" d="M 3.49949 2.327737 L 3.08986 2.262395 " transform="matrix(177.971097,0,0,177.971097,-85.253418,-92.054982)"/>
</g>
</g>
</g>
<g clip-path="url(#clip13)" clip-rule="nonzero">
<g clip-path="url(#clip14)" clip-rule="evenodd">
<g clip-path="url(#clip15)" clip-rule="evenodd">
<path style="fill:none;stroke-width:0.0227037;stroke-linecap:butt;stroke-linejoin:miter;stroke:rgb(17.96875%,20.3125%,21.09375%);stroke-opacity:0.8;stroke-miterlimit:10;" d="M 1.03102 2.295274 L 1.716195 2.712938 " transform="matrix(177.971097,0,0,177.971097,-85.253418,-92.054982)"/>
</g>
</g>
</g>
<g clip-path="url(#clip16)" clip-rule="nonzero">
<g clip-path="url(#clip17)" clip-rule="evenodd">
<g clip-path="url(#clip18)" clip-rule="evenodd">
<path style="fill:none;stroke-width:0.0227037;stroke-linecap:butt;stroke-linejoin:miter;stroke:rgb(17.96875%,20.3125%,21.09375%);stroke-opacity:0.8;stroke-miterlimit:10;" d="M 1.03102 2.295274 L 0.714299 2.041107 " transform="matrix(177.971097,0,0,177.971097,-85.253418,-92.054982)"/>
</g>
</g>
</g>
<g clip-path="url(#clip19)" clip-rule="nonzero">
<g clip-path="url(#clip20)" clip-rule="evenodd">
<g clip-path="url(#clip21)" clip-rule="evenodd">
<path style="fill:none;stroke-width:0.0227037;stroke-linecap:butt;stroke-linejoin:miter;stroke:rgb(17.96875%,20.3125%,21.09375%);stroke-opacity:0.8;stroke-miterlimit:10;" d="M 2.512475 2.47949 L 3.08986 2.262395 " transform="matrix(177.971097,0,0,177.971097,-85.253418,-92.054982)"/>
</g>
</g>
</g>
<g clip-path="url(#clip22)" clip-rule="nonzero">
<g clip-path="url(#clip23)" clip-rule="evenodd">
<g clip-path="url(#clip24)" clip-rule="evenodd">
<path style="fill:none;stroke-width:0.0227037;stroke-linecap:butt;stroke-linejoin:miter;stroke:rgb(17.96875%,20.3125%,21.09375%);stroke-opacity:0.8;stroke-miterlimit:10;" d="M 2.512475 2.47949 L 1.716195 2.712938 " transform="matrix(177.971097,0,0,177.971097,-85.253418,-92.054982)"/>
</g>
</g>
</g>
<g clip-path="url(#clip25)" clip-rule="nonzero">
<g clip-path="url(#clip26)" clip-rule="evenodd">
<g clip-path="url(#clip27)" clip-rule="evenodd">
<path style="fill:none;stroke-width:0.0227037;stroke-linecap:butt;stroke-linejoin:miter;stroke:rgb(17.96875%,20.3125%,21.09375%);stroke-opacity:0.8;stroke-miterlimit:10;" d="M 1.716195 2.712938 L 1.996701 3.326297 " transform="matrix(177.971097,0,0,177.971097,-85.253418,-92.054982)"/>
</g>
</g>
</g>
<g clip-path="url(#clip28)" clip-rule="nonzero">
<g clip-path="url(#clip29)" clip-rule="evenodd">
<g clip-path="url(#clip30)" clip-rule="evenodd">
<path style="fill:none;stroke-width:0.0227037;stroke-linecap:butt;stroke-linejoin:miter;stroke:rgb(17.96875%,20.3125%,21.09375%);stroke-opacity:0.8;stroke-miterlimit:10;" d="M 1.716195 2.712938 L 1.464355 2.856988 " transform="matrix(177.971097,0,0,177.971097,-85.253418,-92.054982)"/>
</g>
</g>
</g>
<g clip-path="url(#clip31)" clip-rule="nonzero">
<g clip-path="url(#clip32)" clip-rule="evenodd">
<g clip-path="url(#clip33)" clip-rule="evenodd">
<path style="fill:none;stroke-width:0.0227037;stroke-linecap:butt;stroke-linejoin:miter;stroke:rgb(17.96875%,20.3125%,21.09375%);stroke-opacity:0.8;stroke-miterlimit:10;" d="M 1.716195 2.712938 L 1.42511 3.1173 " transform="matrix(177.971097,0,0,177.971097,-85.253418,-92.054982)"/>
</g>
</g>
</g>
<g clip-path="url(#clip34)" clip-rule="nonzero">
<g clip-path="url(#clip35)" clip-rule="evenodd">
<g clip-path="url(#clip36)" clip-rule="evenodd">
<path style="fill:none;stroke-width:0.0227037;stroke-linecap:butt;stroke-linejoin:miter;stroke:rgb(17.96875%,20.3125%,21.09375%);stroke-opacity:0.8;stroke-miterlimit:10;" d="M 1.716195 2.712938 L 1.702696 2.190359 " transform="matrix(177.971097,0,0,177.971097,-85.253418,-92.054982)"/>
</g>
</g>
</g>
<g clip-path="url(#clip37)" clip-rule="nonzero">
<g clip-path="url(#clip38)" clip-rule="evenodd">
<g clip-path="url(#clip39)" clip-rule="evenodd">
<path style="fill:none;stroke-width:0.0227037;stroke-linecap:butt;stroke-linejoin:miter;stroke:rgb(17.96875%,20.3125%,21.09375%);stroke-opacity:0.8;stroke-miterlimit:10;" d="M 2.730866 0.910898 L 2.406814 1.040023 " transform="matrix(177.971097,0,0,177.971097,-85.253418,-92.054982)"/>
</g>
</g>
</g>
<g clip-path="url(#clip40)" clip-rule="nonzero">
<g clip-path="url(#clip41)" clip-rule="evenodd">
<g clip-path="url(#clip42)" clip-rule="evenodd">
<path style="fill:none;stroke-width:0.0227037;stroke-linecap:butt;stroke-linejoin:miter;stroke:rgb(17.96875%,20.3125%,21.09375%);stroke-opacity:0.8;stroke-miterlimit:10;" d="M 2.406814 1.040023 L 1.941938 1.360431 " transform="matrix(177.971097,0,0,177.971097,-85.253418,-92.054982)"/>
</g>
</g>
</g>
<g clip-path="url(#clip43)" clip-rule="nonzero">
<g clip-path="url(#clip44)" clip-rule="evenodd">
<g clip-path="url(#clip45)" clip-rule="evenodd">
<path style="fill:none;stroke-width:0.0227037;stroke-linecap:butt;stroke-linejoin:miter;stroke:rgb(17.96875%,20.3125%,21.09375%);stroke-opacity:0.8;stroke-miterlimit:10;" d="M 1.941938 1.360431 L 1.735971 1.039101 " transform="matrix(177.971097,0,0,177.971097,-85.253418,-92.054982)"/>
</g>
</g>
</g>
<g clip-path="url(#clip46)" clip-rule="nonzero">
<g clip-path="url(#clip47)" clip-rule="evenodd">
<g clip-path="url(#clip48)" clip-rule="evenodd">
<path style="fill:none;stroke-width:0.0227037;stroke-linecap:butt;stroke-linejoin:miter;stroke:rgb(17.96875%,20.3125%,21.09375%);stroke-opacity:0.8;stroke-miterlimit:10;" d="M 1.941938 1.360431 L 1.702696 2.190359 " transform="matrix(177.971097,0,0,177.971097,-85.253418,-92.054982)"/>
</g>
</g>
</g>
<g clip-path="url(#clip49)" clip-rule="nonzero">
<g clip-path="url(#clip50)" clip-rule="evenodd">
<g clip-path="url(#clip51)" clip-rule="evenodd">
<path style="fill:none;stroke-width:0.0227037;stroke-linecap:butt;stroke-linejoin:miter;stroke:rgb(17.96875%,20.3125%,21.09375%);stroke-opacity:0.8;stroke-miterlimit:10;" d="M 1.263172 3.299541 L 1.464355 2.856988 " transform="matrix(177.971097,0,0,177.971097,-85.253418,-92.054982)"/>
</g>
</g>
</g>
<g clip-path="url(#clip52)" clip-rule="nonzero">
<g clip-path="url(#clip53)" clip-rule="evenodd">
<g clip-path="url(#clip54)" clip-rule="evenodd">
<path style="fill:none;stroke-width:0.0227037;stroke-linecap:butt;stroke-linejoin:miter;stroke:rgb(17.96875%,20.3125%,21.09375%);stroke-opacity:0.8;stroke-miterlimit:10;" d="M 1.263172 3.299541 L 1.42511 3.1173 " transform="matrix(177.971097,0,0,177.971097,-85.253418,-92.054982)"/>
</g>
</g>
</g>
<g clip-path="url(#clip55)" clip-rule="nonzero">
<g clip-path="url(#clip56)" clip-rule="evenodd">
<g clip-path="url(#clip57)" clip-rule="evenodd">
<path style="fill:none;stroke-width:0.0227037;stroke-linecap:butt;stroke-linejoin:miter;stroke:rgb(17.96875%,20.3125%,21.09375%);stroke-opacity:0.8;stroke-miterlimit:10;" d="M 1.464355 2.856988 L 1.42511 3.1173 " transform="matrix(177.971097,0,0,177.971097,-85.253418,-92.054982)"/>
</g>
</g>
</g>
<g clip-path="url(#clip58)" clip-rule="nonzero">
<g clip-path="url(#clip59)" clip-rule="evenodd">
<g clip-path="url(#clip60)" clip-rule="evenodd">
<path style="fill:none;stroke-width:0.0227037;stroke-linecap:butt;stroke-linejoin:miter;stroke:rgb(17.96875%,20.3125%,21.09375%);stroke-opacity:0.8;stroke-miterlimit:10;" d="M 1.464355 2.856988 L 1.702696 2.190359 " transform="matrix(177.971097,0,0,177.971097,-85.253418,-92.054982)"/>
</g>
</g>
</g>
<path style="fill-rule:nonzero;fill:rgb(100%,92.941176%,43.529412%);fill-opacity:1;stroke-width:0.0227037;stroke-linecap:butt;stroke-linejoin:miter;stroke:rgb(60%,60%,60%);stroke-opacity:0.8;stroke-miterlimit:10;" d="M 0.113511 0.00000561565 C 0.113511 0.0626914 0.0626992 0.113525 -0.00000851942 0.113525 C -0.0626943 0.113525 -0.113528 0.0626914 -0.113528 0.00000561565 C -0.113528 -0.0627021 -0.0626943 -0.113514 -0.00000851942 -0.113514 C 0.0626992 -0.113514 0.113511 -0.0627021 0.113511 0.00000561565 Z M 0.113511 0.00000561565 " transform="matrix(177.971097,0,0,177.971097,537.759329,473.237282)"/>
<path style="fill-rule:nonzero;fill:rgb(55.294118%,82.745098%,78.039216%);fill-opacity:1;stroke-width:0.0227037;stroke-linecap:butt;stroke-linejoin:miter;stroke:rgb(60%,60%,60%);stroke-opacity:0.8;stroke-miterlimit:10;" d="M 0.113523 0.00000256698 C 0.113523 0.0626883 0.0626895 0.113522 0.00000372488 0.113522 C -0.062704 0.113522 -0.113515 0.0626883 -0.113515 0.00000256698 C -0.113515 -0.0627051 -0.062704 -0.113517 0.00000372488 -0.113517 C 0.0626895 -0.113517 0.113523 -0.0627051 0.113523 0.00000256698 Z M 0.113523 0.00000256698 " transform="matrix(177.971097,0,0,177.971097,537.554025,322.214387)"/>
<path style="fill-rule:nonzero;fill:rgb(100%,92.941176%,43.529412%);fill-opacity:1;stroke-width:0.0227037;stroke-linecap:butt;stroke-linejoin:miter;stroke:rgb(60%,60%,60%);stroke-opacity:0.8;stroke-miterlimit:10;" d="M 0.113513 -0.000000309192 C 0.113513 0.0626854 0.0627019 0.113519 -0.00000582153 0.113519 C -0.0626916 0.113519 -0.113525 0.0626854 -0.113525 -0.000000309192 C -0.113525 -0.062686 -0.0626916 -0.113519 -0.00000582153 -0.113519 C 0.0627019 -0.113519 0.113513 -0.062686 0.113513 -0.000000309192 Z M 0.113513 -0.000000309192 " transform="matrix(177.971097,0,0,177.971097,558.129942,392.918024)"/>
<path style="fill-rule:nonzero;fill:rgb(100%,92.941176%,43.529412%);fill-opacity:1;stroke-width:0.0227037;stroke-linecap:butt;stroke-linejoin:miter;stroke:rgb(60%,60%,60%);stroke-opacity:0.8;stroke-miterlimit:10;" d="M 0.113519 0.0000088069 C 0.113519 0.0626945 0.0626858 0.113528 0.0000000171943 0.113528 C -0.0626857 0.113528 -0.113519 0.0626945 -0.113519 0.0000088069 C -0.113519 -0.0626989 -0.0626857 -0.11351 0.0000000171943 -0.11351 C 0.0626858 -0.11351 0.113519 -0.0626989 0.113519 0.0000088069 Z M 0.113519 0.0000088069 " transform="matrix(177.971097,0,0,177.971097,509.109372,529.939839)"/>
<path style="fill-rule:nonzero;fill:rgb(55.294118%,82.745098%,78.039216%);fill-opacity:1;stroke-width:0.0227037;stroke-linecap:butt;stroke-linejoin:miter;stroke:rgb(60%,60%,60%);stroke-opacity:0.8;stroke-miterlimit:10;" d="M 0.11353 -0.00000464306 C 0.11353 0.062703 0.0626962 0.113514 0.0000105087 0.113514 C -0.0626972 0.113514 -0.113509 0.062703 -0.113509 -0.00000464306 C -0.113509 -0.0626904 -0.0626972 -0.113524 0.0000105087 -0.113524 C 0.0626962 -0.113524 0.11353 -0.0626904 0.11353 -0.00000464306 Z M 0.11353 -0.00000464306 " transform="matrix(177.971097,0,0,177.971097,98.236411,316.438326)"/>
<path style="fill-rule:nonzero;fill:rgb(55.294118%,82.745098%,78.039216%);fill-opacity:1;stroke-width:0.0227037;stroke-linecap:butt;stroke-linejoin:miter;stroke:rgb(60%,60%,60%);stroke-opacity:0.8;stroke-miterlimit:10;" d="M 0.113509 0.000000808447 C 0.113509 0.0626865 0.062698 0.11352 -0.00000969784 0.11352 C -0.0626954 0.11352 -0.113529 0.0626865 -0.113529 0.000000808447 C -0.113529 -0.0626849 -0.0626954 -0.113518 -0.00000969784 -0.113518 C 0.062698 -0.113518 0.113509 -0.0626849 0.113509 0.000000808447 Z M 0.113509 0.000000808447 " transform="matrix(177.971097,0,0,177.971097,361.896257,349.222512)"/>
<path style="fill-rule:nonzero;fill:rgb(55.294118%,82.745098%,78.039216%);fill-opacity:1;stroke-width:0.0227037;stroke-linecap:butt;stroke-linejoin:miter;stroke:rgb(60%,60%,60%);stroke-opacity:0.8;stroke-miterlimit:10;" d="M 0.113523 -0.00000711443 C 0.113523 0.0627006 0.0626894 0.113512 0.0000036636 0.113512 C -0.062704 0.113512 -0.113515 0.0627006 -0.113515 -0.00000711443 C -0.113515 -0.0626929 -0.062704 -0.113526 0.0000036636 -0.113526 C 0.0626894 -0.113526 0.113523 -0.0626929 0.113523 -0.00000711443 Z M 0.113523 -0.00000711443 " transform="matrix(177.971097,0,0,177.971097,464.651692,310.587204)"/>
<path style="fill-rule:nonzero;fill:rgb(55.294118%,82.745098%,78.039216%);fill-opacity:1;stroke-width:0.0227037;stroke-linecap:butt;stroke-linejoin:miter;stroke:rgb(60%,60%,60%);stroke-opacity:0.8;stroke-miterlimit:10;" d="M 0.113524 -0.0000109095 C 0.113524 0.0626968 0.0626907 0.113508 0.00000495513 0.113508 C -0.0627027 0.113508 -0.113514 0.0626968 -0.113514 -0.0000109095 C -0.113514 -0.0626966 -0.0627027 -0.113508 0.00000495513 -0.113508 C 0.0626907 -0.113508 0.113524 -0.0626966 0.113524 -0.0000109095 Z M 0.113524 -0.0000109095 " transform="matrix(177.971097,0,0,177.971097,220.178806,390.771473)"/>
<path style="fill-rule:nonzero;fill:rgb(55.294118%,82.745098%,78.039216%);fill-opacity:1;stroke-width:0.0227037;stroke-linecap:butt;stroke-linejoin:miter;stroke:rgb(60%,60%,60%);stroke-opacity:0.8;stroke-miterlimit:10;" d="M 0.113525 0.00000293303 C 0.113525 0.0626887 0.0626916 0.113522 0.00000582153 0.113522 C -0.0627019 0.113522 -0.113513 0.0626887 -0.113513 0.00000293303 C -0.113513 -0.0627048 -0.0627019 -0.113516 0.00000582153 -0.113516 C 0.0626916 -0.113516 0.113525 -0.0627048 0.113525 0.00000293303 Z M 0.113525 0.00000293303 " transform="matrix(177.971097,0,0,177.971097,41.870058,271.202603)"/>
<path style="fill-rule:nonzero;fill:rgb(55.294118%,82.745098%,78.039216%);fill-opacity:1;stroke-width:0.0227037;stroke-linecap:butt;stroke-linejoin:miter;stroke:rgb(60%,60%,60%);stroke-opacity:0.8;stroke-miterlimit:10;" d="M 0.113509 -0.0000021732 C 0.113509 0.0627055 0.0626976 0.113517 -0.0000100906 0.113517 C -0.0626958 0.113517 -0.113529 0.0627055 -0.113529 -0.0000021732 C -0.113529 -0.0626879 -0.0626958 -0.113521 -0.0000100906 -0.113521 C 0.0626976 -0.113521 0.113509 -0.0626879 0.113509 -0.0000021732 Z M 0.113509 -0.0000021732 " transform="matrix(177.971097,0,0,177.971097,270.103358,499.930074)"/>
<path style="fill-rule:nonzero;fill:rgb(55.294118%,82.745098%,78.039216%);fill-opacity:1;stroke-width:0.0227037;stroke-linecap:butt;stroke-linejoin:miter;stroke:rgb(60%,60%,60%);stroke-opacity:0.8;stroke-miterlimit:10;" d="M 0.113526 -0.0000088069 C 0.113526 0.0626989 0.0626922 0.11351 0.00000648876 0.11351 C -0.0627012 0.11351 -0.113513 0.0626989 -0.113513 -0.0000088069 C -0.113513 -0.0626945 -0.0627012 -0.113528 0.00000648876 -0.113528 C 0.0626922 -0.113528 0.113526 -0.0626945 0.113526 -0.0000088069 Z M 0.113526 -0.0000088069 " transform="matrix(177.971097,0,0,177.971097,400.760564,70.060161)"/>
<path style="fill-rule:nonzero;fill:rgb(55.294118%,82.745098%,78.039216%);fill-opacity:1;stroke-width:0.0227037;stroke-linecap:butt;stroke-linejoin:miter;stroke:rgb(60%,60%,60%);stroke-opacity:0.8;stroke-miterlimit:10;" d="M 0.113517 -0.00000661287 C 0.113517 0.0627011 0.0627053 0.113513 -0.00000238761 0.113513 C -0.0626881 0.113513 -0.113522 0.0627011 -0.113522 -0.00000661287 C -0.113522 -0.0626924 -0.0626881 -0.113526 -0.00000238761 -0.113526 C 0.0627053 -0.113526 0.113517 -0.0626924 0.113517 -0.00000661287 Z M 0.113517 -0.00000661287 " transform="matrix(177.971097,0,0,177.971097,343.090269,93.040239)"/>
<path style="fill-rule:nonzero;fill:rgb(55.294118%,82.745098%,78.039216%);fill-opacity:1;stroke-width:0.0227037;stroke-linecap:butt;stroke-linejoin:miter;stroke:rgb(60%,60%,60%);stroke-opacity:0.8;stroke-miterlimit:10;" d="M 0.113515 -0.00000269135 C 0.113515 0.062705 0.0627036 0.113516 -0.00000407787 0.113516 C -0.0626898 0.113516 -0.113523 0.062705 -0.113523 -0.00000269135 C -0.113523 -0.0626884 -0.0626898 -0.113522 -0.00000407787 -0.113522 C 0.0627036 -0.113522 0.113515 -0.0626884 0.113515 -0.00000269135 Z M 0.113515 -0.00000269135 " transform="matrix(177.971097,0,0,177.971097,260.356194,150.062979)"/>
<path style="fill-rule:nonzero;fill:rgb(55.294118%,82.745098%,78.039216%);fill-opacity:1;stroke-width:0.0227037;stroke-linecap:butt;stroke-linejoin:miter;stroke:rgb(60%,60%,60%);stroke-opacity:0.8;stroke-miterlimit:10;" d="M 0.113512 -0.000003838 C 0.113512 0.0627039 0.0627009 0.113515 -0.0000068118 0.113515 C -0.0626926 0.113515 -0.113526 0.0627039 -0.113526 -0.000003838 C -0.113526 -0.0626896 -0.0626926 -0.113523 -0.0000068118 -0.113523 C 0.0627009 -0.113523 0.113512 -0.0626896 0.113512 -0.000003838 Z M 0.113512 -0.000003838 " transform="matrix(177.971097,0,0,177.971097,223.700431,92.875683)"/>
<path style="fill-rule:nonzero;fill:rgb(55.294118%,82.745098%,78.039216%);fill-opacity:1;stroke-width:0.0227037;stroke-linecap:butt;stroke-linejoin:miter;stroke:rgb(60%,60%,60%);stroke-opacity:0.8;stroke-miterlimit:10;" d="M 0.113512 -0.000000733426 C 0.113512 0.062685 0.0627001 0.113518 -0.00000755592 0.113518 C -0.0626933 0.113518 -0.113527 0.062685 -0.113527 -0.000000733426 C -0.113527 -0.0626865 -0.0626933 -0.11352 -0.00000755592 -0.11352 C 0.0627001 -0.11352 0.113512 -0.0626865 0.113512 -0.000000733426 Z M 0.113512 -0.000000733426 " transform="matrix(177.971097,0,0,177.971097,139.556032,495.168099)"/>
<path style="fill-rule:nonzero;fill:rgb(55.294118%,82.745098%,78.039216%);fill-opacity:1;stroke-width:0.0227037;stroke-linecap:butt;stroke-linejoin:miter;stroke:rgb(60%,60%,60%);stroke-opacity:0.8;stroke-miterlimit:10;" d="M 0.113522 -0.000000274424 C 0.113522 0.0626855 0.0626884 0.113519 0.00000264086 0.113519 C -0.062705 0.113519 -0.113516 0.0626855 -0.113516 -0.000000274424 C -0.113516 -0.062686 -0.062705 -0.113519 0.00000264086 -0.113519 C 0.0626884 -0.113519 0.113522 -0.062686 0.113522 -0.000000274424 Z M 0.113522 -0.000000274424 " transform="matrix(177.971097,0,0,177.971097,175.358905,416.406299)"/>
<path style="fill-rule:nonzero;fill:rgb(55.294118%,82.745098%,78.039216%);fill-opacity:1;stroke-width:0.0227037;stroke-linecap:butt;stroke-linejoin:miter;stroke:rgb(60%,60%,60%);stroke-opacity:0.8;stroke-miterlimit:10;" d="M 0.113509 0.00000315104 C 0.113509 0.0626889 0.0626971 0.113522 -0.0000105946 0.113522 C -0.0626963 0.113522 -0.113508 0.0626889 -0.113508 0.00000315104 C -0.113508 -0.0627045 -0.0626963 -0.113516 -0.0000105946 -0.113516 C 0.0626971 -0.113516 0.113509 -0.0627045 0.113509 0.00000315104 Z M 0.113509 0.00000315104 " transform="matrix(177.971097,0,0,177.971097,168.376886,462.733814)"/>
<path style="fill-rule:nonzero;fill:rgb(55.294118%,82.745098%,78.039216%);fill-opacity:1;stroke-width:0.0227037;stroke-linecap:butt;stroke-linejoin:miter;stroke:rgb(60%,60%,60%);stroke-opacity:0.8;stroke-miterlimit:10;" d="M 0.113511 -0.000000113841 C 0.113511 0.0626856 0.0626993 0.113519 -0.00000840138 0.113519 C -0.0626941 0.113519 -0.113528 0.0626856 -0.113528 -0.000000113841 C -0.113528 -0.0626859 -0.0626941 -0.113519 -0.00000840138 -0.113519 C 0.0626993 -0.113519 0.113511 -0.0626859 0.113511 -0.000000113841 Z M 0.113511 -0.000000113841 " transform="matrix(177.971097,0,0,177.971097,217.778839,297.765645)"/>
</g>
</svg>
