<?xml version="1.0" encoding="UTF-8"?>
<svg xmlns="http://www.w3.org/2000/svg" xmlns:xlink="http://www.w3.org/1999/xlink" width="600pt" height="600pt" viewBox="0 0 600 600" version="1.1">
<defs>
<clipPath id="clip1">
  <path d="M 0 294 L 151 294 L 151 442 L 0 442 Z M 0 294 "/>
</clipPath>
<clipPath id="clip2">
  <path d="M -49.3125 192.417969 L 183.023438 192.417969 L 183.023438 544.164062 L -49.3125 544.164062 Z M -49.3125 192.417969 L 111.640625 381.332031 C 111.640625 393.167969 102.046875 402.761719 90.210938 402.761719 C 78.378906 402.761719 68.785156 393.167969 68.785156 381.332031 C 68.785156 369.496094 78.378906 359.902344 90.210938 359.902344 C 102.046875 359.902344 111.640625 369.496094 111.640625 381.332031 Z M -49.3125 192.417969 "/>
</clipPath>
<clipPath id="clip3">
  <path d="M -49.3125 192.417969 L 183.023438 192.417969 L 183.023438 544.164062 L -49.3125 544.164062 Z M -49.3125 192.417969 L 64.929688 355.25 C 64.929688 367.082031 55.335938 376.675781 43.5 376.675781 C 31.664062 376.675781 22.070312 367.082031 22.070312 355.25 C 22.070312 343.414062 31.664062 333.820312 43.5 333.820312 C 55.335938 333.820312 64.929688 343.414062 64.929688 355.25 Z M -49.3125 192.417969 "/>
</clipPath>
<clipPath id="clip4">
  <path d="M 51.078125 320 L 204.621094 320 L 204.621094 457 L 51.078125 457 Z M 51.078125 320 "/>
</clipPath>
<clipPath id="clip5">
  <path d="M 51.078125 198.832031 L 204.621094 198.832031 L 204.621094 578.550781 L 51.078125 578.550781 Z M 51.078125 198.832031 L 111.640625 381.332031 C 111.640625 393.167969 102.046875 402.761719 90.210938 402.761719 C 78.378906 402.761719 68.785156 393.167969 68.785156 381.332031 C 68.785156 369.496094 78.378906 359.902344 90.210938 359.902344 C 102.046875 359.902344 111.640625 369.496094 111.640625 381.332031 Z M 51.078125 198.832031 "/>
</clipPath>
<clipPath id="clip6">
  <path d="M 51.078125 198.832031 L 204.621094 198.832031 L 204.621094 578.550781 L 51.078125 578.550781 Z M 51.078125 198.832031 L 186.914062 396.050781 C 186.914062 407.882812 177.320312 417.476562 165.488281 417.476562 C 153.652344 417.476562 144.058594 407.882812 144.058594 396.050781 C 144.058594 384.214844 153.652344 374.621094 165.488281 374.621094 C 177.320312 374.621094 186.914062 384.214844 186.914062 396.050781 Z M 51.078125 198.832031 "/>
</clipPath>
<clipPath id="clip7">
  <path d="M 104 225 L 265 225 L 265 457 L 104 457 Z M 104 225 "/>
</clipPath>
<clipPath id="clip8">
  <path d="M -10.121094 221.511719 L 379.765625 221.511719 L 379.765625 460.527344 L -10.121094 460.527344 Z M -10.121094 221.511719 L 186.914062 396.050781 C 186.914062 407.882812 177.320312 417.476562 165.488281 417.476562 C 153.652344 417.476562 144.058594 407.882812 144.058594 396.050781 C 144.058594 384.214844 153.652344 374.621094 165.488281 374.621094 C 177.320312 374.621094 186.914062 384.214844 186.914062 396.050781 Z M -10.121094 221.511719 "/>
</clipPath>
<clipPath id="clip9">
  <path d="M -10.121094 221.511719 L 379.765625 221.511719 L 379.765625 460.527344 L -10.121094 460.527344 Z M -10.121094 221.511719 L 225.585938 285.988281 C 225.585938 297.824219 215.992188 307.417969 204.15625 307.417969 C 192.320312 307.417969 182.726562 297.824219 182.726562 285.988281 C 182.726562 274.15625 192.320312 264.5625 204.15625 264.5625 C 215.992188 264.5625 225.585938 274.15625 225.585938 285.988281 Z M -10.121094 221.511719 "/>
</clipPath>
<clipPath id="clip10">
  <path d="M 104 335 L 264 335 L 264 557 L 104 557 Z M 104 335 "/>
</clipPath>
<clipPath id="clip11">
  <path d="M -8.957031 328.363281 L 377.054688 328.363281 L 377.054688 563.363281 L -8.957031 563.363281 Z M -8.957031 328.363281 L 186.914062 396.050781 C 186.914062 407.882812 177.320312 417.476562 165.488281 417.476562 C 153.652344 417.476562 144.058594 407.882812 144.058594 396.050781 C 144.058594 384.214844 153.652344 374.621094 165.488281 374.621094 C 177.320312 374.621094 186.914062 384.214844 186.914062 396.050781 Z M -8.957031 328.363281 "/>
</clipPath>
<clipPath id="clip12">
  <path d="M -8.957031 328.363281 L 377.054688 328.363281 L 377.054688 563.363281 L -8.957031 563.363281 Z M -8.957031 328.363281 L 224.039062 495.675781 C 224.039062 507.507812 214.445312 517.101562 202.609375 517.101562 C 190.777344 517.101562 181.183594 507.507812 181.183594 495.675781 C 181.183594 483.839844 190.777344 474.246094 202.609375 474.246094 C 214.445312 474.246094 224.039062 483.839844 224.039062 495.675781 Z M -8.957031 328.363281 "/>
</clipPath>
<clipPath id="clip13">
  <path d="M 248 0 L 401 0 L 401 157 L 248 157 Z M 248 0 "/>
</clipPath>
<clipPath id="clip14">
  <path d="M 151.1875 -53.519531 L 497.730469 -53.519531 L 497.730469 197.359375 L 151.1875 197.359375 Z M 151.1875 -53.519531 L 330.539062 96.277344 C 330.539062 108.113281 320.945312 117.707031 309.113281 117.707031 C 297.277344 117.707031 287.683594 108.113281 287.683594 96.277344 C 287.683594 84.445312 297.277344 74.851562 309.113281 74.851562 C 320.945312 74.851562 330.539062 84.445312 330.539062 96.277344 Z M 151.1875 -53.519531 "/>
</clipPath>
<clipPath id="clip15">
  <path d="M 151.1875 -53.519531 L 497.730469 -53.519531 L 497.730469 197.359375 L 151.1875 197.359375 Z M 151.1875 -53.519531 L 361.234375 47.5625 C 361.234375 59.398438 351.640625 68.992188 339.804688 68.992188 C 327.972656 68.992188 318.378906 59.398438 318.378906 47.5625 C 318.378906 35.726562 327.972656 26.132812 339.804688 26.132812 C 351.640625 26.132812 361.234375 35.726562 361.234375 47.5625 Z M 151.1875 -53.519531 "/>
</clipPath>
<clipPath id="clip16">
  <path d="M 211 35 L 370 35 L 370 248 L 211 248 Z M 211 35 "/>
</clipPath>
<clipPath id="clip17">
  <path d="M 99.539062 22.65625 L 481.230469 22.65625 L 481.230469 260.5625 L 99.539062 260.5625 Z M 99.539062 22.65625 L 330.539062 96.277344 C 330.539062 108.113281 320.945312 117.707031 309.113281 117.707031 C 297.277344 117.707031 287.683594 108.113281 287.683594 96.277344 C 287.683594 84.445312 297.277344 74.851562 309.113281 74.851562 C 320.945312 74.851562 330.539062 84.445312 330.539062 96.277344 Z M 99.539062 22.65625 "/>
</clipPath>
<clipPath id="clip18">
  <path d="M 99.539062 22.65625 L 481.230469 22.65625 L 481.230469 260.5625 L 99.539062 260.5625 Z M 99.539062 22.65625 L 293.085938 186.941406 C 293.085938 198.777344 283.488281 208.371094 271.65625 208.371094 C 259.820312 208.371094 250.226562 198.777344 250.226562 186.941406 C 250.226562 175.105469 259.820312 165.511719 271.65625 165.511719 C 283.488281 165.511719 293.085938 175.105469 293.085938 186.941406 Z M 99.539062 22.65625 "/>
</clipPath>
<clipPath id="clip19">
  <path d="M 143 126 L 333 126 L 333 347 L 143 347 Z M 143 126 "/>
</clipPath>
<clipPath id="clip20">
  <path d="M 49.8125 80.394531 L 426 80.394531 L 426 392.535156 L 49.8125 392.535156 Z M 49.8125 80.394531 L 225.585938 285.988281 C 225.585938 297.824219 215.992188 307.417969 204.15625 307.417969 C 192.320312 307.417969 182.726562 297.824219 182.726562 285.988281 C 182.726562 274.15625 192.320312 264.5625 204.15625 264.5625 C 215.992188 264.5625 225.585938 274.15625 225.585938 285.988281 Z M 49.8125 80.394531 "/>
</clipPath>
<clipPath id="clip21">
  <path d="M 49.8125 80.394531 L 426 80.394531 L 426 392.535156 L 49.8125 392.535156 Z M 49.8125 80.394531 L 293.085938 186.941406 C 293.085938 198.777344 283.488281 208.371094 271.65625 208.371094 C 259.820312 208.371094 250.226562 198.777344 250.226562 186.941406 C 250.226562 175.105469 259.820312 165.511719 271.65625 165.511719 C 283.488281 165.511719 293.085938 175.105469 293.085938 186.941406 Z M 49.8125 80.394531 "/>
</clipPath>
<clipPath id="clip22">
  <path d="M 211 126 L 438 126 L 438 310 L 211 310 Z M 211 126 "/>
</clipPath>
<clipPath id="clip23">
  <path d="M 176.085938 25.679688 L 472.910156 25.679688 L 472.910156 409.660156 L 176.085938 409.660156 Z M 176.085938 25.679688 L 293.085938 186.941406 C 293.085938 198.777344 283.488281 208.371094 271.65625 208.371094 C 259.820312 208.371094 250.226562 198.777344 250.226562 186.941406 C 250.226562 175.105469 259.820312 165.511719 271.65625 165.511719 C 283.488281 165.511719 293.085938 175.105469 293.085938 186.941406 Z M 176.085938 25.679688 "/>
</clipPath>
<clipPath id="clip24">
  <path d="M 176.085938 25.679688 L 472.910156 25.679688 L 472.910156 409.660156 L 176.085938 409.660156 Z M 176.085938 25.679688 L 398.769531 248.398438 C 398.769531 260.234375 389.175781 269.828125 377.339844 269.828125 C 365.503906 269.828125 355.910156 260.234375 355.910156 248.398438 C 355.910156 236.566406 365.503906 226.972656 377.339844 226.972656 C 389.175781 226.972656 398.769531 236.566406 398.769531 248.398438 Z M 176.085938 25.679688 "/>
</clipPath>
<clipPath id="clip25">
  <path d="M 146 78 L 333 78 L 333 248 L 146 248 Z M 146 78 "/>
</clipPath>
<clipPath id="clip26">
  <path d="M 94.367188 -11.339844 L 384.039062 -11.339844 L 384.039062 337.136719 L 94.367188 337.136719 Z M 94.367188 -11.339844 L 293.085938 186.941406 C 293.085938 198.777344 283.488281 208.371094 271.65625 208.371094 C 259.820312 208.371094 250.226562 198.777344 250.226562 186.941406 C 250.226562 175.105469 259.820312 165.511719 271.65625 165.511719 C 283.488281 165.511719 293.085938 175.105469 293.085938 186.941406 Z M 94.367188 -11.339844 "/>
</clipPath>
<clipPath id="clip27">
  <path d="M 94.367188 -11.339844 L 384.039062 -11.339844 L 384.039062 337.136719 L 94.367188 337.136719 Z M 94.367188 -11.339844 L 228.175781 138.855469 C 228.175781 150.691406 218.582031 160.285156 206.75 160.285156 C 194.914062 160.285156 185.320312 150.691406 185.320312 138.855469 C 185.320312 127.023438 194.914062 117.429688 206.75 117.429688 C 218.582031 117.429688 228.175781 127.023438 228.175781 138.855469 Z M 94.367188 -11.339844 "/>
</clipPath>
<clipPath id="clip28">
  <path d="M 142 435 L 295 435 L 295 600 L 142 600 Z M 142 435 "/>
</clipPath>
<clipPath id="clip29">
  <path d="M 39.539062 403.285156 L 397.175781 403.285156 L 397.175781 644.828125 L 39.539062 644.828125 Z M 39.539062 403.285156 L 224.039062 495.675781 C 224.039062 507.507812 214.445312 517.101562 202.609375 517.101562 C 190.777344 517.101562 181.183594 507.507812 181.183594 495.675781 C 181.183594 483.839844 190.777344 474.246094 202.609375 474.246094 C 214.445312 474.246094 224.039062 483.839844 224.039062 495.675781 Z M 39.539062 403.285156 "/>
</clipPath>
<clipPath id="clip30">
  <path d="M 39.539062 403.285156 L 397.175781 403.285156 L 397.175781 644.828125 L 39.539062 644.828125 Z M 39.539062 403.285156 L 255.535156 552.4375 C 255.535156 564.273438 245.941406 573.867188 234.105469 573.867188 C 222.273438 573.867188 212.679688 564.273438 212.679688 552.4375 C 212.679688 540.601562 222.273438 531.007812 234.105469 531.007812 C 245.941406 531.007812 255.535156 540.601562 255.535156 552.4375 Z M 39.539062 403.285156 "/>
</clipPath>
<clipPath id="clip31">
  <path d="M 316 187 L 526 187 L 526 400 L 316 400 Z M 316 187 "/>
</clipPath>
<clipPath id="clip32">
  <path d="M 243.078125 117.304688 L 599.636719 117.304688 L 599.636719 469.726562 L 243.078125 469.726562 Z M 243.078125 117.304688 L 398.769531 248.398438 C 398.769531 260.234375 389.175781 269.828125 377.339844 269.828125 C 365.503906 269.828125 355.910156 260.234375 355.910156 248.398438 C 355.910156 236.566406 365.503906 226.972656 377.339844 226.972656 C 389.175781 226.972656 398.769531 236.566406 398.769531 248.398438 Z M 243.078125 117.304688 "/>
</clipPath>
<clipPath id="clip33">
  <path d="M 243.078125 117.304688 L 599.636719 117.304688 L 599.636719 469.726562 L 243.078125 469.726562 Z M 243.078125 117.304688 L 486.804688 338.632812 C 486.804688 350.46875 477.210938 360.0625 465.375 360.0625 C 453.539062 360.0625 443.945312 350.46875 443.945312 338.632812 C 443.945312 326.796875 453.539062 317.203125 465.375 317.203125 C 477.210938 317.203125 486.804688 326.796875 486.804688 338.632812 Z M 243.078125 117.304688 "/>
</clipPath>
<clipPath id="clip34">
  <path d="M 404 254 L 596 254 L 596 400 L 404 400 Z M 404 254 "/>
</clipPath>
<clipPath id="clip35">
  <path d="M 403.6875 138.824219 L 596.832031 138.824219 L 596.832031 515.195312 L 403.6875 515.195312 Z M 403.6875 138.824219 L 556.574219 315.386719 C 556.574219 327.21875 546.976562 336.8125 535.144531 336.8125 C 523.308594 336.8125 513.714844 327.21875 513.714844 315.386719 C 513.714844 303.550781 523.308594 293.957031 535.144531 293.957031 C 546.976562 293.957031 556.574219 303.550781 556.574219 315.386719 Z M 403.6875 138.824219 "/>
</clipPath>
<clipPath id="clip36">
  <path d="M 403.6875 138.824219 L 596.832031 138.824219 L 596.832031 515.195312 L 403.6875 515.195312 Z M 403.6875 138.824219 L 486.804688 338.632812 C 486.804688 350.46875 477.210938 360.0625 465.375 360.0625 C 453.539062 360.0625 443.945312 350.46875 443.945312 338.632812 C 443.945312 326.796875 453.539062 317.203125 465.375 317.203125 C 477.210938 317.203125 486.804688 326.796875 486.804688 338.632812 Z M 403.6875 138.824219 "/>
</clipPath>
<clipPath id="clip37">
  <path d="M 474 254 L 600 254 L 600 423 L 474 423 Z M 474 254 "/>
</clipPath>
<clipPath id="clip38">
  <path d="M 365.957031 235.0625 L 725.6875 235.0625 L 725.6875 442.023438 L 365.957031 442.023438 Z M 365.957031 235.0625 L 556.574219 315.386719 C 556.574219 327.21875 546.976562 336.8125 535.144531 336.8125 C 523.308594 336.8125 513.714844 327.21875 513.714844 315.386719 C 513.714844 303.550781 523.308594 293.957031 535.144531 293.957031 C 546.976562 293.957031 556.574219 303.550781 556.574219 315.386719 Z M 365.957031 235.0625 "/>
</clipPath>
<clipPath id="clip39">
  <path d="M 365.957031 235.0625 L 725.6875 235.0625 L 725.6875 442.023438 L 365.957031 442.023438 Z M 365.957031 235.0625 L 577.929688 361.699219 C 577.929688 373.535156 568.335938 383.128906 556.5 383.128906 C 544.664062 383.128906 535.070312 373.535156 535.070312 361.699219 C 535.070312 349.863281 544.664062 340.269531 556.5 340.269531 C 568.335938 340.269531 577.929688 349.863281 577.929688 361.699219 Z M 365.957031 235.0625 "/>
</clipPath>
<clipPath id="clip40">
  <path d="M 406 333 L 565 333 L 565 478 L 406 478 Z M 406 333 "/>
</clipPath>
<clipPath id="clip41">
  <path d="M 368.085938 235.25 L 603.675781 235.25 L 603.675781 575.699219 L 368.085938 575.699219 Z M 368.085938 235.25 L 525.652344 394.1875 C 525.652344 406.023438 516.058594 415.617188 504.222656 415.617188 C 492.390625 415.617188 482.796875 406.023438 482.796875 394.1875 C 482.796875 382.355469 492.390625 372.761719 504.222656 372.761719 C 516.058594 372.761719 525.652344 382.355469 525.652344 394.1875 Z M 368.085938 235.25 "/>
</clipPath>
<clipPath id="clip42">
  <path d="M 368.085938 235.25 L 603.675781 235.25 L 603.675781 575.699219 L 368.085938 575.699219 Z M 368.085938 235.25 L 488.96875 416.761719 C 488.96875 428.597656 479.375 438.191406 467.539062 438.191406 C 455.707031 438.191406 446.109375 428.597656 446.109375 416.761719 C 446.109375 404.929688 455.707031 395.335938 467.539062 395.335938 C 479.375 395.335938 488.96875 404.929688 488.96875 416.761719 Z M 368.085938 235.25 "/>
</clipPath>
<clipPath id="clip43">
  <path d="M 404 278 L 565 278 L 565 455 L 404 455 Z M 404 278 "/>
</clipPath>
<clipPath id="clip44">
  <path d="M 312.273438 230.285156 L 657.324219 230.285156 L 657.324219 502.535156 L 312.273438 502.535156 Z M 312.273438 230.285156 L 525.652344 394.1875 C 525.652344 406.023438 516.058594 415.617188 504.222656 415.617188 C 492.390625 415.617188 482.796875 406.023438 482.796875 394.1875 C 482.796875 382.355469 492.390625 372.761719 504.222656 372.761719 C 516.058594 372.761719 525.652344 382.355469 525.652344 394.1875 Z M 312.273438 230.285156 "/>
</clipPath>
<clipPath id="clip45">
  <path d="M 312.273438 230.285156 L 657.324219 230.285156 L 657.324219 502.535156 L 312.273438 502.535156 Z M 312.273438 230.285156 L 486.804688 338.632812 C 486.804688 350.46875 477.210938 360.0625 465.375 360.0625 C 453.539062 360.0625 443.945312 350.46875 443.945312 338.632812 C 443.945312 326.796875 453.539062 317.203125 465.375 317.203125 C 477.210938 317.203125 486.804688 326.796875 486.804688 338.632812 Z M 312.273438 230.285156 "/>
</clipPath>
<clipPath id="clip46">
  <path d="M 443 301 L 600 301 L 600 455 L 443 455 Z M 443 301 "/>
</clipPath>
<clipPath id="clip47">
  <path d="M 404.089844 203.179688 L 656.632812 203.179688 L 656.632812 552.707031 L 404.089844 552.707031 Z M 404.089844 203.179688 L 525.652344 394.1875 C 525.652344 406.023438 516.058594 415.617188 504.222656 415.617188 C 492.390625 415.617188 482.796875 406.023438 482.796875 394.1875 C 482.796875 382.355469 492.390625 372.761719 504.222656 372.761719 C 516.058594 372.761719 525.652344 382.355469 525.652344 394.1875 Z M 404.089844 203.179688 "/>
</clipPath>
<clipPath id="clip48">
  <path d="M 404.089844 203.179688 L 656.632812 203.179688 L 656.632812 552.707031 L 404.089844 552.707031 Z M 404.089844 203.179688 L 577.929688 361.699219 C 577.929688 373.535156 568.335938 383.128906 556.5 383.128906 C 544.664062 383.128906 535.070312 373.535156 535.070312 361.699219 C 535.070312 349.863281 544.664062 340.269531 556.5 340.269531 C 568.335938 340.269531 577.929688 349.863281 577.929688 361.699219 Z M 404.089844 203.179688 "/>
</clipPath>
<clipPath id="clip49">
  <path d="M 404 329.320312 L 529 329.320312 L 529 426.074219 L 404 426.074219 Z M 404 329.320312 "/>
</clipPath>
<clipPath id="clip50">
  <path d="M 279.570312 329.320312 L 653.34375 329.320312 L 653.34375 426.074219 L 279.570312 426.074219 Z M 279.570312 329.320312 L 488.96875 416.761719 C 488.96875 428.597656 479.375 438.191406 467.539062 438.191406 C 455.707031 438.191406 446.109375 428.597656 446.109375 416.761719 C 446.109375 404.929688 455.707031 395.335938 467.539062 395.335938 C 479.375 395.335938 488.96875 404.929688 488.96875 416.761719 Z M 279.570312 329.320312 "/>
</clipPath>
<clipPath id="clip51">
  <path d="M 279.570312 329.320312 L 653.34375 329.320312 L 653.34375 426.074219 L 279.570312 426.074219 Z M 279.570312 329.320312 L 486.804688 338.632812 C 486.804688 350.46875 477.210938 360.0625 465.375 360.0625 C 453.539062 360.0625 443.945312 350.46875 443.945312 338.632812 C 443.945312 326.796875 453.539062 317.203125 465.375 317.203125 C 477.210938 317.203125 486.804688 326.796875 486.804688 338.632812 Z M 279.570312 329.320312 "/>
</clipPath>
</defs>
<g id="surface306">
<g clip-path="url(#clip1)" clip-rule="nonzero">
<g clip-path="url(#clip2)" clip-rule="evenodd">
<g clip-path="url(#clip3)" clip-rule="evenodd">
<path style="fill:none;stroke-width:0.0236011;stroke-linecap:butt;stroke-linejoin:miter;stroke:rgb(17.96875%,20.3125%,21.09375%);stroke-opacity:0.8;stroke-miterlimit:10;" d="M 1.411182 2.71267 L 1.153949 2.569038 " transform="matrix(181.589749,0,0,181.589749,-166.045225,-111.261033)"/>
</g>
</g>
</g>
<g clip-path="url(#clip4)" clip-rule="nonzero">
<g clip-path="url(#clip5)" clip-rule="evenodd">
<g clip-path="url(#clip6)" clip-rule="evenodd">
<path style="fill:none;stroke-width:0.0236011;stroke-linecap:butt;stroke-linejoin:miter;stroke:rgb(17.96875%,20.3125%,21.09375%);stroke-opacity:0.8;stroke-miterlimit:10;" d="M 1.411182 2.71267 L 1.825728 2.793725 " transform="matrix(181.589749,0,0,181.589749,-166.045225,-111.261033)"/>
</g>
</g>
</g>
<g clip-path="url(#clip7)" clip-rule="nonzero">
<g clip-path="url(#clip8)" clip-rule="evenodd">
<g clip-path="url(#clip9)" clip-rule="evenodd">
<path style="fill:none;stroke-width:0.0236011;stroke-linecap:butt;stroke-linejoin:miter;stroke:rgb(17.96875%,20.3125%,21.09375%);stroke-opacity:0.8;stroke-miterlimit:10;" d="M 1.825728 2.793725 L 2.038669 2.18762 " transform="matrix(181.589749,0,0,181.589749,-166.045225,-111.261033)"/>
</g>
</g>
</g>
<g clip-path="url(#clip10)" clip-rule="nonzero">
<g clip-path="url(#clip11)" clip-rule="evenodd">
<g clip-path="url(#clip12)" clip-rule="evenodd">
<path style="fill:none;stroke-width:0.0236011;stroke-linecap:butt;stroke-linejoin:miter;stroke:rgb(17.96875%,20.3125%,21.09375%);stroke-opacity:0.8;stroke-miterlimit:10;" d="M 1.825728 2.793725 L 2.030151 3.342352 " transform="matrix(181.589749,0,0,181.589749,-166.045225,-111.261033)"/>
</g>
</g>
</g>
<g clip-path="url(#clip13)" clip-rule="nonzero">
<g clip-path="url(#clip14)" clip-rule="evenodd">
<g clip-path="url(#clip15)" clip-rule="evenodd">
<path style="fill:none;stroke-width:0.0236011;stroke-linecap:butt;stroke-linejoin:miter;stroke:rgb(17.96875%,20.3125%,21.09375%);stroke-opacity:0.8;stroke-miterlimit:10;" d="M 2.616659 1.142897 L 2.785674 0.874628 " transform="matrix(181.589749,0,0,181.589749,-166.045225,-111.261033)"/>
</g>
</g>
</g>
<g clip-path="url(#clip16)" clip-rule="nonzero">
<g clip-path="url(#clip17)" clip-rule="evenodd">
<g clip-path="url(#clip18)" clip-rule="evenodd">
<path style="fill:none;stroke-width:0.0236011;stroke-linecap:butt;stroke-linejoin:miter;stroke:rgb(17.96875%,20.3125%,21.09375%);stroke-opacity:0.8;stroke-miterlimit:10;" d="M 2.616659 1.142897 L 2.410386 1.642177 " transform="matrix(181.589749,0,0,181.589749,-166.045225,-111.261033)"/>
</g>
</g>
</g>
<g clip-path="url(#clip19)" clip-rule="nonzero">
<g clip-path="url(#clip20)" clip-rule="evenodd">
<g clip-path="url(#clip21)" clip-rule="evenodd">
<path style="fill:none;stroke-width:0.0236011;stroke-linecap:butt;stroke-linejoin:miter;stroke:rgb(17.96875%,20.3125%,21.09375%);stroke-opacity:0.8;stroke-miterlimit:10;" d="M 2.038669 2.18762 L 2.410386 1.642177 " transform="matrix(181.589749,0,0,181.589749,-166.045225,-111.261033)"/>
</g>
</g>
</g>
<g clip-path="url(#clip22)" clip-rule="nonzero">
<g clip-path="url(#clip23)" clip-rule="evenodd">
<g clip-path="url(#clip24)" clip-rule="evenodd">
<path style="fill:none;stroke-width:0.0236011;stroke-linecap:butt;stroke-linejoin:miter;stroke:rgb(17.96875%,20.3125%,21.09375%);stroke-opacity:0.8;stroke-miterlimit:10;" d="M 2.410386 1.642177 L 2.992377 1.980615 " transform="matrix(181.589749,0,0,181.589749,-166.045225,-111.261033)"/>
</g>
</g>
</g>
<g clip-path="url(#clip25)" clip-rule="nonzero">
<g clip-path="url(#clip26)" clip-rule="evenodd">
<g clip-path="url(#clip27)" clip-rule="evenodd">
<path style="fill:none;stroke-width:0.0236011;stroke-linecap:butt;stroke-linejoin:miter;stroke:rgb(17.96875%,20.3125%,21.09375%);stroke-opacity:0.8;stroke-miterlimit:10;" d="M 2.410386 1.642177 L 2.052953 1.377371 " transform="matrix(181.589749,0,0,181.589749,-166.045225,-111.261033)"/>
</g>
</g>
</g>
<g clip-path="url(#clip28)" clip-rule="nonzero">
<g clip-path="url(#clip29)" clip-rule="evenodd">
<g clip-path="url(#clip30)" clip-rule="evenodd">
<path style="fill:none;stroke-width:0.0236011;stroke-linecap:butt;stroke-linejoin:miter;stroke:rgb(17.96875%,20.3125%,21.09375%);stroke-opacity:0.8;stroke-miterlimit:10;" d="M 2.030151 3.342352 L 2.203597 3.654934 " transform="matrix(181.589749,0,0,181.589749,-166.045225,-111.261033)"/>
</g>
</g>
</g>
<g clip-path="url(#clip31)" clip-rule="nonzero">
<g clip-path="url(#clip32)" clip-rule="evenodd">
<g clip-path="url(#clip33)" clip-rule="evenodd">
<path style="fill:none;stroke-width:0.0236011;stroke-linecap:butt;stroke-linejoin:miter;stroke:rgb(17.96875%,20.3125%,21.09375%);stroke-opacity:0.8;stroke-miterlimit:10;" d="M 2.992377 1.980615 L 3.47718 2.477529 " transform="matrix(181.589749,0,0,181.589749,-166.045225,-111.261033)"/>
</g>
</g>
</g>
<g clip-path="url(#clip34)" clip-rule="nonzero">
<g clip-path="url(#clip35)" clip-rule="evenodd">
<g clip-path="url(#clip36)" clip-rule="evenodd">
<path style="fill:none;stroke-width:0.0236011;stroke-linecap:butt;stroke-linejoin:miter;stroke:rgb(17.96875%,20.3125%,21.09375%);stroke-opacity:0.8;stroke-miterlimit:10;" d="M 3.861395 2.349515 L 3.47718 2.477529 " transform="matrix(181.589749,0,0,181.589749,-166.045225,-111.261033)"/>
</g>
</g>
</g>
<g clip-path="url(#clip37)" clip-rule="nonzero">
<g clip-path="url(#clip38)" clip-rule="evenodd">
<g clip-path="url(#clip39)" clip-rule="evenodd">
<path style="fill:none;stroke-width:0.0236011;stroke-linecap:butt;stroke-linejoin:miter;stroke:rgb(17.96875%,20.3125%,21.09375%);stroke-opacity:0.8;stroke-miterlimit:10;" d="M 3.861395 2.349515 L 3.978998 2.604554 " transform="matrix(181.589749,0,0,181.589749,-166.045225,-111.261033)"/>
</g>
</g>
</g>
<g clip-path="url(#clip40)" clip-rule="nonzero">
<g clip-path="url(#clip41)" clip-rule="evenodd">
<g clip-path="url(#clip42)" clip-rule="evenodd">
<path style="fill:none;stroke-width:0.0236011;stroke-linecap:butt;stroke-linejoin:miter;stroke:rgb(17.96875%,20.3125%,21.09375%);stroke-opacity:0.8;stroke-miterlimit:10;" d="M 3.691111 2.783464 L 3.489097 2.907778 " transform="matrix(181.589749,0,0,181.589749,-166.045225,-111.261033)"/>
</g>
</g>
</g>
<g clip-path="url(#clip43)" clip-rule="nonzero">
<g clip-path="url(#clip44)" clip-rule="evenodd">
<g clip-path="url(#clip45)" clip-rule="evenodd">
<path style="fill:none;stroke-width:0.0236011;stroke-linecap:butt;stroke-linejoin:miter;stroke:rgb(17.96875%,20.3125%,21.09375%);stroke-opacity:0.8;stroke-miterlimit:10;" d="M 3.691111 2.783464 L 3.47718 2.477529 " transform="matrix(181.589749,0,0,181.589749,-166.045225,-111.261033)"/>
</g>
</g>
</g>
<g clip-path="url(#clip46)" clip-rule="nonzero">
<g clip-path="url(#clip47)" clip-rule="evenodd">
<g clip-path="url(#clip48)" clip-rule="evenodd">
<path style="fill:none;stroke-width:0.0236011;stroke-linecap:butt;stroke-linejoin:miter;stroke:rgb(17.96875%,20.3125%,21.09375%);stroke-opacity:0.8;stroke-miterlimit:10;" d="M 3.691111 2.783464 L 3.978998 2.604554 " transform="matrix(181.589749,0,0,181.589749,-166.045225,-111.261033)"/>
</g>
</g>
</g>
<g clip-path="url(#clip49)" clip-rule="nonzero">
<g clip-path="url(#clip50)" clip-rule="evenodd">
<g clip-path="url(#clip51)" clip-rule="evenodd">
<path style="fill:none;stroke-width:0.0236011;stroke-linecap:butt;stroke-linejoin:miter;stroke:rgb(17.96875%,20.3125%,21.09375%);stroke-opacity:0.8;stroke-miterlimit:10;" d="M 3.489097 2.907778 L 3.47718 2.477529 " transform="matrix(181.589749,0,0,181.589749,-166.045225,-111.261033)"/>
</g>
</g>
</g>
<path style="fill-rule:nonzero;fill:rgb(55.294118%,82.745098%,78.039216%);fill-opacity:1;stroke-width:0.0236011;stroke-linecap:butt;stroke-linejoin:miter;stroke:rgb(60%,60%,60%);stroke-opacity:0.8;stroke-miterlimit:10;" d="M 0.118004 0.00000267 C 0.118004 0.0651822 0.0651717 0.118014 -0.0000078823 0.118014 C -0.0651659 0.118014 -0.117998 0.0651822 -0.117998 0.00000267 C -0.117998 -0.0651769 -0.0651659 -0.118009 -0.0000078823 -0.118009 C 0.0651717 -0.118009 0.118004 -0.0651769 0.118004 0.00000267 Z M 0.118004 0.00000267 " transform="matrix(181.589749,0,0,181.589749,90.212369,381.331546)"/>
<path style="fill-rule:nonzero;fill:rgb(55.294118%,82.745098%,78.039216%);fill-opacity:1;stroke-width:0.0236011;stroke-linecap:butt;stroke-linejoin:miter;stroke:rgb(60%,60%,60%);stroke-opacity:0.8;stroke-miterlimit:10;" d="M 0.118012 0.00000951204 C 0.118012 0.0651675 0.0651795 0.118 0.000000000000000028 0.118 C -0.0651795 0.118 -0.118012 0.0651675 -0.118012 0.00000951204 C -0.118012 -0.06517 -0.0651795 -0.118002 0.000000000000000028 -0.118002 C 0.0651795 -0.118002 0.118012 -0.06517 0.118012 0.00000951204 Z M 0.118012 0.00000951204 " transform="matrix(181.589749,0,0,181.589749,43.5,355.248273)"/>
<path style="fill-rule:nonzero;fill:rgb(55.294118%,82.745098%,78.039216%);fill-opacity:1;stroke-width:0.0236011;stroke-linecap:butt;stroke-linejoin:miter;stroke:rgb(60%,60%,60%);stroke-opacity:0.8;stroke-miterlimit:10;" d="M 0.117998 0.00000983999 C 0.117998 0.0651679 0.065166 0.118 0.00000797427 0.118 C -0.0651716 0.118 -0.118004 0.0651679 -0.118004 0.00000983999 C -0.118004 -0.0651697 -0.0651716 -0.118002 0.00000797427 -0.118002 C 0.065166 -0.118002 0.117998 -0.0651697 0.117998 0.00000983999 Z M 0.117998 0.00000983999 " transform="matrix(181.589749,0,0,181.589749,165.486833,396.048994)"/>
<path style="fill-rule:nonzero;fill:rgb(100%,92.941176%,43.529412%);fill-opacity:1;stroke-width:0.0236011;stroke-linecap:butt;stroke-linejoin:miter;stroke:rgb(60%,60%,60%);stroke-opacity:0.8;stroke-miterlimit:10;" d="M 0.118 -0.00000896802 C 0.118 0.0651706 0.0651685 0.118003 0.0000104581 0.118003 C -0.0651691 0.118003 -0.118001 0.0651706 -0.118001 -0.00000896802 C -0.118001 -0.065167 -0.0651691 -0.117999 0.0000104581 -0.117999 C 0.0651685 -0.117999 0.118 -0.065167 0.118 -0.00000896802 Z M 0.118 -0.00000896802 " transform="matrix(181.589749,0,0,181.589749,309.111382,96.278972)"/>
<path style="fill-rule:nonzero;fill:rgb(100%,92.941176%,43.529412%);fill-opacity:1;stroke-width:0.0236011;stroke-linecap:butt;stroke-linejoin:miter;stroke:rgb(60%,60%,60%);stroke-opacity:0.8;stroke-miterlimit:10;" d="M 0.118003 -0.00000286894 C 0.118003 0.0651767 0.0651706 0.118009 -0.00000890869 0.118009 C -0.0651669 0.118009 -0.117999 0.0651767 -0.117999 -0.00000286894 C -0.117999 -0.0651824 -0.0651669 -0.118014 -0.00000890869 -0.118014 C 0.0651706 -0.118014 0.118003 -0.0651824 0.118003 -0.00000286894 Z M 0.118003 -0.00000286894 " transform="matrix(181.589749,0,0,181.589749,339.806305,47.563021)"/>
<path style="fill-rule:nonzero;fill:rgb(100%,92.941176%,43.529412%);fill-opacity:1;stroke-width:0.0236011;stroke-linecap:butt;stroke-linejoin:miter;stroke:rgb(60%,60%,60%);stroke-opacity:0.8;stroke-miterlimit:10;" d="M 0.118014 -0.00000766584 C 0.118014 0.0651719 0.0651816 0.118004 0.00000201655 0.118004 C -0.0651775 0.118004 -0.11801 0.0651719 -0.11801 -0.00000766584 C -0.11801 -0.0651657 -0.0651775 -0.117998 0.00000201655 -0.117998 C 0.0651816 -0.117998 0.118014 -0.0651657 0.118014 -0.00000766584 Z M 0.118014 -0.00000766584 " transform="matrix(181.589749,0,0,181.589749,204.155884,285.989673)"/>
<path style="fill-rule:nonzero;fill:rgb(100%,92.941176%,43.529412%);fill-opacity:1;stroke-width:0.0236011;stroke-linecap:butt;stroke-linejoin:miter;stroke:rgb(60%,60%,60%);stroke-opacity:0.8;stroke-miterlimit:10;" d="M 0.118016 -0.00000312069 C 0.118016 0.0651764 0.0651622 0.118008 0.0000041751 0.118008 C -0.0651754 0.118008 -0.118007 0.0651764 -0.118007 -0.00000312069 C -0.118007 -0.0651827 -0.0651754 -0.118015 0.0000041751 -0.118015 C 0.0651622 -0.118015 0.118016 -0.0651827 0.118016 -0.00000312069 Z M 0.118016 -0.00000312069 " transform="matrix(181.589749,0,0,181.589749,271.655492,186.941973)"/>
<path style="fill-rule:nonzero;fill:rgb(55.294118%,82.745098%,78.039216%);fill-opacity:1;stroke-width:0.0236011;stroke-linecap:butt;stroke-linejoin:miter;stroke:rgb(60%,60%,60%);stroke-opacity:0.8;stroke-miterlimit:10;" d="M 0.118003 0.00000989004 C 0.118003 0.0651679 0.0651714 0.118 -0.00000809832 0.118 C -0.0651661 0.118 -0.117998 0.0651679 -0.117998 0.00000989004 C -0.117998 -0.0651697 -0.0651661 -0.118002 -0.00000809832 -0.118002 C 0.0651714 -0.118002 0.118003 -0.0651697 0.118003 0.00000989004 Z M 0.118003 0.00000989004 " transform="matrix(181.589749,0,0,181.589749,202.610846,495.673985)"/>
<path style="fill-rule:nonzero;fill:rgb(55.294118%,82.745098%,78.039216%);fill-opacity:1;stroke-width:0.0236011;stroke-linecap:butt;stroke-linejoin:miter;stroke:rgb(60%,60%,60%);stroke-opacity:0.8;stroke-miterlimit:10;" d="M 0.118005 0.00000286894 C 0.118005 0.0651824 0.0651728 0.118014 -0.00000674688 0.118014 C -0.0651648 0.118014 -0.117997 0.0651824 -0.117997 0.00000286894 C -0.117997 -0.0651767 -0.0651648 -0.118009 -0.00000674688 -0.118009 C 0.0651728 -0.118009 0.118005 -0.0651767 0.118005 0.00000286894 Z M 0.118005 0.00000286894 " transform="matrix(181.589749,0,0,181.589749,234.106694,552.436979)"/>
<path style="fill-rule:nonzero;fill:rgb(100%,92.941176%,43.529412%);fill-opacity:1;stroke-width:0.0236011;stroke-linecap:butt;stroke-linejoin:miter;stroke:rgb(60%,60%,60%);stroke-opacity:0.8;stroke-miterlimit:10;" d="M 0.118008 -0.00000972956 C 0.118008 0.0651698 0.0651762 0.118002 -0.00000336006 0.118002 C -0.0651829 0.118002 -0.118015 0.0651698 -0.118015 -0.00000972956 C -0.118015 -0.0651678 -0.0651829 -0.118 -0.00000336006 -0.118 C 0.0651762 -0.118 0.118008 -0.0651678 0.118008 -0.00000972956 Z M 0.118008 -0.00000972956 " transform="matrix(181.589749,0,0,181.589749,377.340454,248.400204)"/>
<path style="fill-rule:nonzero;fill:rgb(100%,92.941176%,43.529412%);fill-opacity:1;stroke-width:0.0236011;stroke-linecap:butt;stroke-linejoin:miter;stroke:rgb(60%,60%,60%);stroke-opacity:0.8;stroke-miterlimit:10;" d="M 0.118016 0.00000764218 C 0.118016 0.0651657 0.0651625 0.117998 0.00000443707 0.117998 C -0.0651751 0.117998 -0.118007 0.0651657 -0.118007 0.00000764218 C -0.118007 -0.0651719 -0.0651751 -0.118004 0.00000443707 -0.118004 C 0.0651625 -0.118004 0.118016 -0.0651719 0.118016 0.00000764218 Z M 0.118016 0.00000764218 " transform="matrix(181.589749,0,0,181.589749,535.143726,315.385331)"/>
<path style="fill-rule:nonzero;fill:rgb(100%,92.941176%,43.529412%);fill-opacity:1;stroke-width:0.0236011;stroke-linecap:butt;stroke-linejoin:miter;stroke:rgb(60%,60%,60%);stroke-opacity:0.8;stroke-miterlimit:10;" d="M 0.118001 -0.00000579211 C 0.118001 0.0651738 0.0651694 0.118006 -0.0000101267 0.118006 C -0.0651682 0.118006 -0.118 0.0651738 -0.118 -0.00000579211 C -0.118 -0.0651638 -0.0651682 -0.117996 -0.0000101267 -0.117996 C 0.0651694 -0.117996 0.118001 -0.0651638 0.118001 -0.00000579211 Z M 0.118001 -0.00000579211 " transform="matrix(181.589749,0,0,181.589749,504.224495,394.188552)"/>
<path style="fill-rule:nonzero;fill:rgb(100%,92.941176%,43.529412%);fill-opacity:1;stroke-width:0.0236011;stroke-linecap:butt;stroke-linejoin:miter;stroke:rgb(60%,60%,60%);stroke-opacity:0.8;stroke-miterlimit:10;" d="M 0.118008 -0.00000859752 C 0.118008 0.0651709 0.0651758 0.118003 -0.00000379352 0.118003 C -0.0651618 0.118003 -0.118015 0.0651709 -0.118015 -0.00000859752 C -0.118015 -0.0651666 -0.0651618 -0.117999 -0.00000379352 -0.117999 C 0.0651758 -0.117999 0.118008 -0.0651666 0.118008 -0.00000859752 Z M 0.118008 -0.00000859752 " transform="matrix(181.589749,0,0,181.589749,467.539751,416.76328)"/>
<path style="fill-rule:nonzero;fill:rgb(100%,92.941176%,43.529412%);fill-opacity:1;stroke-width:0.0236011;stroke-linecap:butt;stroke-linejoin:miter;stroke:rgb(60%,60%,60%);stroke-opacity:0.8;stroke-miterlimit:10;" d="M 0.118014 -0.00000139636 C 0.118014 0.0651782 0.0651824 0.11801 0.00000281419 0.11801 C -0.0651767 0.11801 -0.118009 0.0651782 -0.118009 -0.00000139636 C -0.118009 -0.0651809 -0.0651767 -0.118013 0.00000281419 -0.118013 C 0.0651824 -0.118013 0.118014 -0.0651809 0.118014 -0.00000139636 Z M 0.118014 -0.00000139636 " transform="matrix(181.589749,0,0,181.589749,465.374489,338.633066)"/>
<path style="fill-rule:nonzero;fill:rgb(100%,92.941176%,43.529412%);fill-opacity:1;stroke-width:0.0236011;stroke-linecap:butt;stroke-linejoin:miter;stroke:rgb(60%,60%,60%);stroke-opacity:0.8;stroke-miterlimit:10;" d="M 0.118012 -0.00000232319 C 0.118012 0.0651772 0.0651795 0.118009 0.000000000000000444 0.118009 C -0.0651795 0.118009 -0.118012 0.0651772 -0.118012 -0.00000232319 C -0.118012 -0.0651819 -0.0651795 -0.118014 0.000000000000000444 -0.118014 C 0.0651795 -0.118014 0.118012 -0.0651819 0.118012 -0.00000232319 Z M 0.118012 -0.00000232319 " transform="matrix(181.589749,0,0,181.589749,556.5,361.699641)"/>
<path style="fill-rule:nonzero;fill:rgb(100%,92.941176%,43.529412%);fill-opacity:1;stroke-width:0.0236011;stroke-linecap:butt;stroke-linejoin:miter;stroke:rgb(60%,60%,60%);stroke-opacity:0.8;stroke-miterlimit:10;" d="M 0.118001 -0.00000591948 C 0.118001 0.0651736 0.0651685 0.118006 0.0000104633 0.118006 C -0.0651691 0.118006 -0.118001 0.0651736 -0.118001 -0.00000591948 C -0.118001 -0.065164 -0.0651691 -0.117996 0.0000104633 -0.117996 C 0.0651685 -0.117996 0.118001 -0.065164 0.118001 -0.00000591948 Z M 0.118001 -0.00000591948 " transform="matrix(181.589749,0,0,181.589749,206.7481,138.856544)"/>
</g>
</svg>
