<?xml version="1.0" encoding="UTF-8"?>
<svg xmlns="http://www.w3.org/2000/svg" xmlns:xlink="http://www.w3.org/1999/xlink" width="600pt" height="600pt" viewBox="0 0 600 600" version="1.1">
<defs>
<clipPath id="clip1">
  <path d="M 260.335938 398 L 380.566406 398 L 380.566406 526 L 260.335938 526 Z M 260.335938 398 "/>
</clipPath>
<clipPath id="clip2">
  <path d="M 260.335938 245.546875 L 380.566406 245.546875 L 380.566406 678.757812 L 260.335938 678.757812 Z M 260.335938 245.546875 L 291.757812 460.980469 C 291.757812 473.203125 281.847656 483.113281 269.625 483.113281 C 257.402344 483.113281 247.492188 473.203125 247.492188 460.980469 C 247.492188 448.757812 257.402344 438.851562 269.625 438.851562 C 281.847656 438.851562 291.757812 448.757812 291.757812 460.980469 Z M 260.335938 245.546875 "/>
</clipPath>
<clipPath id="clip3">
  <path d="M 260.335938 245.546875 L 380.566406 245.546875 L 380.566406 678.757812 L 260.335938 678.757812 Z M 260.335938 245.546875 L 393.40625 463.324219 C 393.40625 475.546875 383.5 485.453125 371.277344 485.453125 C 359.054688 485.453125 349.144531 475.546875 349.144531 463.324219 C 349.144531 451.101562 359.054688 441.191406 371.277344 441.191406 C 383.5 441.191406 393.40625 451.101562 393.40625 463.324219 Z M 260.335938 245.546875 "/>
</clipPath>
<clipPath id="clip4">
  <path d="M 207 320 L 468 320 L 468 524 L 207 524 Z M 207 320 "/>
</clipPath>
<clipPath id="clip5">
  <path d="M 159.679688 195.730469 L 514.746094 195.730469 L 514.746094 648.199219 L 159.679688 648.199219 Z M 159.679688 195.730469 L 291.757812 460.980469 C 291.757812 473.203125 281.847656 483.113281 269.625 483.113281 C 257.402344 483.113281 247.492188 473.203125 247.492188 460.980469 C 247.492188 448.757812 257.402344 438.851562 269.625 438.851562 C 281.847656 438.851562 291.757812 448.757812 291.757812 460.980469 Z M 159.679688 195.730469 "/>
</clipPath>
<clipPath id="clip6">
  <path d="M 159.679688 195.730469 L 514.746094 195.730469 L 514.746094 648.199219 L 159.679688 648.199219 Z M 159.679688 195.730469 L 426.929688 382.949219 C 426.929688 395.171875 417.023438 405.078125 404.800781 405.078125 C 392.578125 405.078125 382.667969 395.171875 382.667969 382.949219 C 382.667969 370.726562 392.578125 360.816406 404.800781 360.816406 C 417.023438 360.816406 426.929688 370.726562 426.929688 382.949219 Z M 159.679688 195.730469 "/>
</clipPath>
<clipPath id="clip7">
  <path d="M 207 415.421875 L 352 415.421875 L 352 600 L 207 600 Z M 207 415.421875 "/>
</clipPath>
<clipPath id="clip8">
  <path d="M 58.183594 415.421875 L 499.859375 415.421875 L 499.859375 601.125 L 58.183594 601.125 Z M 58.183594 415.421875 L 291.757812 460.980469 C 291.757812 473.203125 281.847656 483.113281 269.625 483.113281 C 257.402344 483.113281 247.492188 473.203125 247.492188 460.980469 C 247.492188 448.757812 257.402344 438.851562 269.625 438.851562 C 281.847656 438.851562 291.757812 448.757812 291.757812 460.980469 Z M 58.183594 415.421875 "/>
</clipPath>
<clipPath id="clip9">
  <path d="M 58.183594 415.421875 L 499.859375 415.421875 L 499.859375 601.125 L 58.183594 601.125 Z M 58.183594 415.421875 L 310.550781 555.566406 C 310.550781 567.789062 300.640625 577.695312 288.417969 577.695312 C 276.195312 577.695312 266.285156 567.789062 266.285156 555.566406 C 266.285156 543.34375 276.195312 533.433594 288.417969 533.433594 C 300.640625 533.433594 310.550781 543.34375 310.550781 555.566406 Z M 58.183594 415.421875 "/>
</clipPath>
<clipPath id="clip10">
  <path d="M 85 358 L 333 358 L 333 524 L 85 524 Z M 85 358 "/>
</clipPath>
<clipPath id="clip11">
  <path d="M 78.167969 216.238281 L 339.523438 216.238281 L 339.523438 666.058594 L 78.167969 666.058594 Z M 78.167969 216.238281 L 291.757812 460.980469 C 291.757812 473.203125 281.847656 483.113281 269.625 483.113281 C 257.402344 483.113281 247.492188 473.203125 247.492188 460.980469 C 247.492188 448.757812 257.402344 438.851562 269.625 438.851562 C 281.847656 438.851562 291.757812 448.757812 291.757812 460.980469 Z M 78.167969 216.238281 "/>
</clipPath>
<clipPath id="clip12">
  <path d="M 78.167969 216.238281 L 339.523438 216.238281 L 339.523438 666.058594 L 78.167969 666.058594 Z M 78.167969 216.238281 L 170.195312 421.316406 C 170.195312 433.539062 160.289062 443.449219 148.066406 443.449219 C 135.84375 443.449219 125.933594 433.539062 125.933594 421.316406 C 125.933594 409.09375 135.84375 399.1875 148.066406 399.1875 C 160.289062 399.1875 170.195312 409.09375 170.195312 421.316406 Z M 78.167969 216.238281 "/>
</clipPath>
<clipPath id="clip13">
  <path d="M 115.3125 382 L 301.195312 382 L 301.195312 524 L 115.3125 524 Z M 115.3125 382 "/>
</clipPath>
<clipPath id="clip14">
  <path d="M 115.3125 231.328125 L 301.195312 231.328125 L 301.195312 674.714844 L 115.3125 674.714844 Z M 115.3125 231.328125 L 291.757812 460.980469 C 291.757812 473.203125 281.847656 483.113281 269.625 483.113281 C 257.402344 483.113281 247.492188 473.203125 247.492188 460.980469 C 247.492188 448.757812 257.402344 438.851562 269.625 438.851562 C 281.847656 438.851562 291.757812 448.757812 291.757812 460.980469 Z M 115.3125 231.328125 "/>
</clipPath>
<clipPath id="clip15">
  <path d="M 115.3125 231.328125 L 301.195312 231.328125 L 301.195312 674.714844 L 115.3125 674.714844 Z M 115.3125 231.328125 L 169.011719 445.0625 C 169.011719 457.285156 159.105469 467.191406 146.882812 467.191406 C 134.660156 467.191406 124.75 457.285156 124.75 445.0625 C 124.75 432.839844 134.660156 422.929688 146.882812 422.929688 C 159.105469 422.929688 169.011719 432.839844 169.011719 445.0625 Z M 115.3125 231.328125 "/>
</clipPath>
<clipPath id="clip16">
  <path d="M 308 320 L 468 320 L 468 526 L 308 526 Z M 308 320 "/>
</clipPath>
<clipPath id="clip17">
  <path d="M 172.054688 297.277344 L 604.023438 297.277344 L 604.023438 548.996094 L 172.054688 548.996094 Z M 172.054688 297.277344 L 393.40625 463.324219 C 393.40625 475.546875 383.5 485.453125 371.277344 485.453125 C 359.054688 485.453125 349.144531 475.546875 349.144531 463.324219 C 349.144531 451.101562 359.054688 441.191406 371.277344 441.191406 C 383.5 441.191406 393.40625 451.101562 393.40625 463.324219 Z M 172.054688 297.277344 "/>
</clipPath>
<clipPath id="clip18">
  <path d="M 172.054688 297.277344 L 604.023438 297.277344 L 604.023438 548.996094 L 172.054688 548.996094 Z M 172.054688 297.277344 L 426.929688 382.949219 C 426.929688 395.171875 417.023438 405.078125 404.800781 405.078125 C 392.578125 405.078125 382.667969 395.171875 382.667969 382.949219 C 382.667969 370.726562 392.578125 360.816406 404.800781 360.816406 C 417.023438 360.816406 426.929688 370.726562 426.929688 382.949219 Z M 172.054688 297.277344 "/>
</clipPath>
<clipPath id="clip19">
  <path d="M 342 199 L 536 199 L 536 446 L 342 446 Z M 342 199 "/>
</clipPath>
<clipPath id="clip20">
  <path d="M 216.367188 154.738281 L 660.882812 154.738281 L 660.882812 490.761719 L 216.367188 490.761719 Z M 216.367188 154.738281 L 426.929688 382.949219 C 426.929688 395.171875 417.023438 405.078125 404.800781 405.078125 C 392.578125 405.078125 382.667969 395.171875 382.667969 382.949219 C 382.667969 370.726562 392.578125 360.816406 404.800781 360.816406 C 417.023438 360.816406 426.929688 370.726562 426.929688 382.949219 Z M 216.367188 154.738281 "/>
</clipPath>
<clipPath id="clip21">
  <path d="M 216.367188 154.738281 L 660.882812 154.738281 L 660.882812 490.761719 L 216.367188 490.761719 Z M 216.367188 154.738281 L 494.582031 262.550781 C 494.582031 274.773438 484.671875 284.679688 472.449219 284.679688 C 460.226562 284.679688 450.316406 274.773438 450.316406 262.550781 C 450.316406 250.328125 460.226562 240.417969 472.449219 240.417969 C 484.671875 240.417969 494.582031 250.328125 494.582031 262.550781 Z M 216.367188 154.738281 "/>
</clipPath>
<clipPath id="clip22">
  <path d="M 342 225 L 510 225 L 510 446 L 342 446 Z M 342 225 "/>
</clipPath>
<clipPath id="clip23">
  <path d="M 207.136719 198.578125 L 644.222656 198.578125 L 644.222656 472.261719 L 207.136719 472.261719 Z M 207.136719 198.578125 L 426.929688 382.949219 C 426.929688 395.171875 417.023438 405.078125 404.800781 405.078125 C 392.578125 405.078125 382.667969 395.171875 382.667969 382.949219 C 382.667969 370.726562 392.578125 360.816406 404.800781 360.816406 C 417.023438 360.816406 426.929688 370.726562 426.929688 382.949219 Z M 207.136719 198.578125 "/>
</clipPath>
<clipPath id="clip24">
  <path d="M 207.136719 198.578125 L 644.222656 198.578125 L 644.222656 472.261719 L 207.136719 472.261719 Z M 207.136719 198.578125 L 468.691406 287.890625 C 468.691406 300.113281 458.78125 310.019531 446.558594 310.019531 C 434.335938 310.019531 424.425781 300.113281 424.425781 287.890625 C 424.425781 275.667969 434.335938 265.757812 446.558594 265.757812 C 458.78125 265.757812 468.691406 275.667969 468.691406 287.890625 Z M 207.136719 198.578125 "/>
</clipPath>
<clipPath id="clip25">
  <path d="M 352 95 L 577 95 L 577 261 L 352 261 Z M 352 95 "/>
</clipPath>
<clipPath id="clip26">
  <path d="M 330.734375 -41.628906 L 598.457031 -41.628906 L 598.457031 397.921875 L 330.734375 397.921875 Z M 330.734375 -41.628906 L 535.757812 198.347656 C 535.757812 210.570312 525.847656 220.480469 513.625 220.480469 C 501.402344 220.480469 491.496094 210.570312 491.496094 198.347656 C 491.496094 186.125 501.402344 176.21875 513.625 176.21875 C 525.847656 176.21875 535.757812 186.125 535.757812 198.347656 Z M 330.734375 -41.628906 "/>
</clipPath>
<clipPath id="clip27">
  <path d="M 330.734375 -41.628906 L 598.457031 -41.628906 L 598.457031 397.921875 L 330.734375 397.921875 Z M 330.734375 -41.628906 L 437.699219 157.945312 C 437.699219 170.167969 427.789062 180.078125 415.566406 180.078125 C 403.34375 180.078125 393.4375 170.167969 393.4375 157.945312 C 393.4375 145.722656 403.34375 135.8125 415.566406 135.8125 C 427.789062 135.8125 437.699219 145.722656 437.699219 157.945312 Z M 330.734375 -41.628906 "/>
</clipPath>
<clipPath id="clip28">
  <path d="M 409 135 L 577 135 L 577 326 L 409 326 Z M 409 135 "/>
</clipPath>
<clipPath id="clip29">
  <path d="M 290.359375 79.980469 L 695.714844 79.980469 L 695.714844 380.917969 L 290.359375 380.917969 Z M 290.359375 79.980469 L 535.757812 198.347656 C 535.757812 210.570312 525.847656 220.480469 513.625 220.480469 C 501.402344 220.480469 491.496094 210.570312 491.496094 198.347656 C 491.496094 186.125 501.402344 176.21875 513.625 176.21875 C 525.847656 176.21875 535.757812 186.125 535.757812 198.347656 Z M 290.359375 79.980469 "/>
</clipPath>
<clipPath id="clip30">
  <path d="M 290.359375 79.980469 L 695.714844 79.980469 L 695.714844 380.917969 L 290.359375 380.917969 Z M 290.359375 79.980469 L 494.582031 262.550781 C 494.582031 274.773438 484.671875 284.679688 472.449219 284.679688 C 460.226562 284.679688 450.316406 274.773438 450.316406 262.550781 C 450.316406 250.328125 460.226562 240.417969 472.449219 240.417969 C 484.671875 240.417969 494.582031 250.328125 494.582031 262.550781 Z M 290.359375 79.980469 "/>
</clipPath>
<clipPath id="clip31">
  <path d="M 352 95 L 536 95 L 536 326 L 352 326 Z M 352 95 "/>
</clipPath>
<clipPath id="clip32">
  <path d="M 225.71875 52.691406 L 662.296875 52.691406 L 662.296875 367.804688 L 225.71875 367.804688 Z M 225.71875 52.691406 L 437.699219 157.945312 C 437.699219 170.167969 427.789062 180.078125 415.566406 180.078125 C 403.34375 180.078125 393.4375 170.167969 393.4375 157.945312 C 393.4375 145.722656 403.34375 135.8125 415.566406 135.8125 C 427.789062 135.8125 437.699219 145.722656 437.699219 157.945312 Z M 225.71875 52.691406 "/>
</clipPath>
<clipPath id="clip33">
  <path d="M 225.71875 52.691406 L 662.296875 52.691406 L 662.296875 367.804688 L 225.71875 367.804688 Z M 225.71875 52.691406 L 494.582031 262.550781 C 494.582031 274.773438 484.671875 284.679688 472.449219 284.679688 C 460.226562 284.679688 450.316406 274.773438 450.316406 262.550781 C 450.316406 250.328125 460.226562 240.417969 472.449219 240.417969 C 484.671875 240.417969 494.582031 250.328125 494.582031 262.550781 Z M 225.71875 52.691406 "/>
</clipPath>
<clipPath id="clip34">
  <path d="M 352 104.554688 L 510 104.554688 L 510 341.28125 L 352 341.28125 Z M 352 104.554688 "/>
</clipPath>
<clipPath id="clip35">
  <path d="M 205.835938 104.554688 L 656.289062 104.554688 L 656.289062 341.28125 L 205.835938 341.28125 Z M 205.835938 104.554688 L 437.699219 157.945312 C 437.699219 170.167969 427.789062 180.078125 415.566406 180.078125 C 403.34375 180.078125 393.4375 170.167969 393.4375 157.945312 C 393.4375 145.722656 403.34375 135.8125 415.566406 135.8125 C 427.789062 135.8125 437.699219 145.722656 437.699219 157.945312 Z M 205.835938 104.554688 "/>
</clipPath>
<clipPath id="clip36">
  <path d="M 205.835938 104.554688 L 656.289062 104.554688 L 656.289062 341.28125 L 205.835938 341.28125 Z M 205.835938 104.554688 L 468.691406 287.890625 C 468.691406 300.113281 458.78125 310.019531 446.558594 310.019531 C 434.335938 310.019531 424.425781 300.113281 424.425781 287.890625 C 424.425781 275.667969 434.335938 265.757812 446.558594 265.757812 C 458.78125 265.757812 468.691406 275.667969 468.691406 287.890625 Z M 205.835938 104.554688 "/>
</clipPath>
<clipPath id="clip37">
  <path d="M 235 19 L 479 19 L 479 221 L 235 221 Z M 235 19 "/>
</clipPath>
<clipPath id="clip38">
  <path d="M 179.066406 -99.839844 L 534.132812 -99.839844 L 534.132812 339.910156 L 179.066406 339.910156 Z M 179.066406 -99.839844 L 437.699219 157.945312 C 437.699219 170.167969 427.789062 180.078125 415.566406 180.078125 C 403.34375 180.078125 393.4375 170.167969 393.4375 157.945312 C 393.4375 145.722656 403.34375 135.8125 415.566406 135.8125 C 427.789062 135.8125 437.699219 145.722656 437.699219 157.945312 Z M 179.066406 -99.839844 "/>
</clipPath>
<clipPath id="clip39">
  <path d="M 179.066406 -99.839844 L 534.132812 -99.839844 L 534.132812 339.910156 L 179.066406 339.910156 Z M 179.066406 -99.839844 L 319.761719 82.125 C 319.761719 94.347656 309.855469 104.257812 297.632812 104.257812 C 285.410156 104.257812 275.5 94.347656 275.5 82.125 C 275.5 69.902344 285.410156 59.992188 297.632812 59.992188 C 309.855469 59.992188 319.761719 69.902344 319.761719 82.125 Z M 179.066406 -99.839844 "/>
</clipPath>
<clipPath id="clip40">
  <path d="M 339 32.875 L 479 32.875 L 479 195.574219 L 339 195.574219 Z M 339 32.875 "/>
</clipPath>
<clipPath id="clip41">
  <path d="M 188.777344 32.875 L 628.425781 32.875 L 628.425781 195.574219 L 188.777344 195.574219 Z M 188.777344 32.875 L 437.699219 157.945312 C 437.699219 170.167969 427.789062 180.078125 415.566406 180.078125 C 403.34375 180.078125 393.4375 170.167969 393.4375 157.945312 C 393.4375 145.722656 403.34375 135.8125 415.566406 135.8125 C 427.789062 135.8125 437.699219 145.722656 437.699219 157.945312 Z M 188.777344 32.875 "/>
</clipPath>
<clipPath id="clip42">
  <path d="M 188.777344 32.875 L 628.425781 32.875 L 628.425781 195.574219 L 188.777344 195.574219 Z M 188.777344 32.875 L 423.769531 70.503906 C 423.769531 82.726562 413.859375 92.636719 401.636719 92.636719 C 389.414062 92.636719 379.503906 82.726562 379.503906 70.503906 C 379.503906 58.28125 389.414062 48.375 401.636719 48.375 C 413.859375 48.375 423.769531 58.28125 423.769531 70.503906 Z M 188.777344 32.875 "/>
</clipPath>
<clipPath id="clip43">
  <path d="M 271 8 L 479 8 L 479 221 L 271 221 Z M 271 8 "/>
</clipPath>
<clipPath id="clip44">
  <path d="M 175.351562 -77.660156 L 574.445312 -77.660156 L 574.445312 306.21875 L 175.351562 306.21875 Z M 175.351562 -77.660156 L 437.699219 157.945312 C 437.699219 170.167969 427.789062 180.078125 415.566406 180.078125 C 403.34375 180.078125 393.4375 170.167969 393.4375 157.945312 C 393.4375 145.722656 403.34375 135.8125 415.566406 135.8125 C 427.789062 135.8125 437.699219 145.722656 437.699219 157.945312 Z M 175.351562 -77.660156 "/>
</clipPath>
<clipPath id="clip45">
  <path d="M 175.351562 -77.660156 L 574.445312 -77.660156 L 574.445312 306.21875 L 175.351562 306.21875 Z M 175.351562 -77.660156 L 356.363281 70.613281 C 356.363281 82.835938 346.453125 92.746094 334.230469 92.746094 C 322.007812 92.746094 312.097656 82.835938 312.097656 70.613281 C 312.097656 58.390625 322.007812 48.480469 334.230469 48.480469 C 346.453125 48.480469 356.363281 58.390625 356.363281 70.613281 Z M 175.351562 -77.660156 "/>
</clipPath>
<clipPath id="clip46">
  <path d="M 383 199 L 536 199 L 536 351 L 383 351 Z M 383 199 "/>
</clipPath>
<clipPath id="clip47">
  <path d="M 294.503906 107.285156 L 624.503906 107.285156 L 624.503906 443.15625 L 294.503906 443.15625 Z M 294.503906 107.285156 L 494.582031 262.550781 C 494.582031 274.773438 484.671875 284.679688 472.449219 284.679688 C 460.226562 284.679688 450.316406 274.773438 450.316406 262.550781 C 450.316406 250.328125 460.226562 240.417969 472.449219 240.417969 C 484.671875 240.417969 494.582031 250.328125 494.582031 262.550781 Z M 294.503906 107.285156 "/>
</clipPath>
<clipPath id="clip48">
  <path d="M 294.503906 107.285156 L 624.503906 107.285156 L 624.503906 443.15625 L 294.503906 443.15625 Z M 294.503906 107.285156 L 468.691406 287.890625 C 468.691406 300.113281 458.78125 310.019531 446.558594 310.019531 C 434.335938 310.019531 424.425781 300.113281 424.425781 287.890625 C 424.425781 275.667969 434.335938 265.757812 446.558594 265.757812 C 458.78125 265.757812 468.691406 275.667969 468.691406 287.890625 Z M 294.503906 107.285156 "/>
</clipPath>
<clipPath id="clip49">
  <path d="M 84 406.382812 L 211 406.382812 L 211 459.996094 L 84 459.996094 Z M 84 406.382812 "/>
</clipPath>
<clipPath id="clip50">
  <path d="M -68.34375 406.382812 L 363.292969 406.382812 L 363.292969 459.996094 L -68.34375 459.996094 Z M -68.34375 406.382812 L 170.195312 421.316406 C 170.195312 433.539062 160.289062 443.449219 148.066406 443.449219 C 135.84375 443.449219 125.933594 433.539062 125.933594 421.316406 C 125.933594 409.09375 135.84375 399.1875 148.066406 399.1875 C 160.289062 399.1875 170.195312 409.09375 170.195312 421.316406 Z M -68.34375 406.382812 "/>
</clipPath>
<clipPath id="clip51">
  <path d="M -68.34375 406.382812 L 363.292969 406.382812 L 363.292969 459.996094 L -68.34375 459.996094 Z M -68.34375 406.382812 L 169.011719 445.0625 C 169.011719 457.285156 159.105469 467.191406 146.882812 467.191406 C 134.660156 467.191406 124.75 457.285156 124.75 445.0625 C 124.75 432.839844 134.660156 422.929688 146.882812 422.929688 C 159.105469 422.929688 169.011719 432.839844 169.011719 445.0625 Z M -68.34375 406.382812 "/>
</clipPath>
<clipPath id="clip52">
  <path d="M 34.609375 344 L 199.832031 344 L 199.832031 484 L 34.609375 484 Z M 34.609375 344 "/>
</clipPath>
<clipPath id="clip53">
  <path d="M 34.609375 197.007812 L 199.832031 197.007812 L 199.832031 631.425781 L 34.609375 631.425781 Z M 34.609375 197.007812 L 170.195312 421.316406 C 170.195312 433.539062 160.289062 443.449219 148.066406 443.449219 C 135.84375 443.449219 125.933594 433.539062 125.933594 421.316406 C 125.933594 409.09375 135.84375 399.1875 148.066406 399.1875 C 160.289062 399.1875 170.195312 409.09375 170.195312 421.316406 Z M 34.609375 197.007812 "/>
</clipPath>
<clipPath id="clip54">
  <path d="M 34.609375 197.007812 L 199.832031 197.007812 L 199.832031 631.425781 L 34.609375 631.425781 Z M 34.609375 197.007812 L 108.503906 407.117188 C 108.503906 419.339844 98.597656 429.25 86.375 429.25 C 74.152344 429.25 64.242188 419.339844 64.242188 407.117188 C 64.242188 394.894531 74.152344 384.988281 86.375 384.988281 C 98.597656 384.988281 108.503906 394.894531 108.503906 407.117188 Z M 34.609375 197.007812 "/>
</clipPath>
<clipPath id="clip55">
  <path d="M 23 344 L 210 344 L 210 508 L 23 508 Z M 23 344 "/>
</clipPath>
<clipPath id="clip56">
  <path d="M -30.183594 223.882812 L 263.441406 223.882812 L 263.441406 628.296875 L -30.183594 628.296875 Z M -30.183594 223.882812 L 169.011719 445.0625 C 169.011719 457.285156 159.105469 467.191406 146.882812 467.191406 C 134.660156 467.191406 124.75 457.285156 124.75 445.0625 C 124.75 432.839844 134.660156 422.929688 146.882812 422.929688 C 159.105469 422.929688 169.011719 432.839844 169.011719 445.0625 Z M -30.183594 223.882812 "/>
</clipPath>
<clipPath id="clip57">
  <path d="M -30.183594 223.882812 L 263.441406 223.882812 L 263.441406 628.296875 L -30.183594 628.296875 Z M -30.183594 223.882812 L 108.503906 407.117188 C 108.503906 419.339844 98.597656 429.25 86.375 429.25 C 74.152344 429.25 64.242188 419.339844 64.242188 407.117188 C 64.242188 394.894531 74.152344 384.988281 86.375 384.988281 C 98.597656 384.988281 108.503906 394.894531 108.503906 407.117188 Z M -30.183594 223.882812 "/>
</clipPath>
<clipPath id="clip58">
  <path d="M 186 0 L 361 0 L 361 145 L 186 145 Z M 186 0 "/>
</clipPath>
<clipPath id="clip59">
  <path d="M 115.441406 -127.128906 L 430.949219 -127.128906 L 430.949219 253.6875 L 115.441406 253.6875 Z M 115.441406 -127.128906 L 319.761719 82.125 C 319.761719 94.347656 309.855469 104.257812 297.632812 104.257812 C 285.410156 104.257812 275.5 94.347656 275.5 82.125 C 275.5 69.902344 285.410156 59.992188 297.632812 59.992188 C 309.855469 59.992188 319.761719 69.902344 319.761719 82.125 Z M 115.441406 -127.128906 "/>
</clipPath>
<clipPath id="clip60">
  <path d="M 115.441406 -127.128906 L 430.949219 -127.128906 L 430.949219 253.6875 L 115.441406 253.6875 Z M 115.441406 -127.128906 L 270.886719 44.433594 C 270.886719 56.65625 260.980469 66.566406 248.757812 66.566406 C 236.535156 66.566406 226.625 56.65625 226.625 44.433594 C 226.625 32.210938 236.535156 22.304688 248.757812 22.304688 C 260.980469 22.304688 270.886719 32.210938 270.886719 44.433594 Z M 115.441406 -127.128906 "/>
</clipPath>
<clipPath id="clip61">
  <path d="M 235 8 L 397 8 L 397 145 L 235 145 Z M 235 8 "/>
</clipPath>
<clipPath id="clip62">
  <path d="M 229.875 -135.148438 L 401.988281 -135.148438 L 401.988281 287.886719 L 229.875 287.886719 Z M 229.875 -135.148438 L 319.761719 82.125 C 319.761719 94.347656 309.855469 104.257812 297.632812 104.257812 C 285.410156 104.257812 275.5 94.347656 275.5 82.125 C 275.5 69.902344 285.410156 59.992188 297.632812 59.992188 C 309.855469 59.992188 319.761719 69.902344 319.761719 82.125 Z M 229.875 -135.148438 "/>
</clipPath>
<clipPath id="clip63">
  <path d="M 229.875 -135.148438 L 401.988281 -135.148438 L 401.988281 287.886719 L 229.875 287.886719 Z M 229.875 -135.148438 L 356.363281 70.613281 C 356.363281 82.835938 346.453125 92.746094 334.230469 92.746094 C 322.007812 92.746094 312.097656 82.835938 312.097656 70.613281 C 312.097656 58.390625 322.007812 48.480469 334.230469 48.480469 C 346.453125 48.480469 356.363281 58.390625 356.363281 70.613281 Z M 229.875 -135.148438 "/>
</clipPath>
<clipPath id="clip64">
  <path d="M 186 0 L 397 0 L 397 134 L 186 134 Z M 186 0 "/>
</clipPath>
<clipPath id="clip65">
  <path d="M 182.519531 -161.800781 L 400.46875 -161.800781 L 400.46875 276.847656 L 182.519531 276.847656 Z M 182.519531 -161.800781 L 270.886719 44.433594 C 270.886719 56.65625 260.980469 66.566406 248.757812 66.566406 C 236.535156 66.566406 226.625 56.65625 226.625 44.433594 C 226.625 32.210938 236.535156 22.304688 248.757812 22.304688 C 260.980469 22.304688 270.886719 32.210938 270.886719 44.433594 Z M 182.519531 -161.800781 "/>
</clipPath>
<clipPath id="clip66">
  <path d="M 182.519531 -161.800781 L 400.46875 -161.800781 L 400.46875 276.847656 L 182.519531 276.847656 Z M 182.519531 -161.800781 L 356.363281 70.613281 C 356.363281 82.835938 346.453125 92.746094 334.230469 92.746094 C 322.007812 92.746094 312.097656 82.835938 312.097656 70.613281 C 312.097656 58.390625 322.007812 48.480469 334.230469 48.480469 C 346.453125 48.480469 356.363281 58.390625 356.363281 70.613281 Z M 182.519531 -161.800781 "/>
</clipPath>
<clipPath id="clip67">
  <path d="M 329.460938 7 L 406.40625 7 L 406.40625 134 L 329.460938 134 Z M 329.460938 7 "/>
</clipPath>
<clipPath id="clip68">
  <path d="M 329.460938 -144.984375 L 406.40625 -144.984375 L 406.40625 286.101562 L 329.460938 286.101562 Z M 329.460938 -144.984375 L 423.769531 70.503906 C 423.769531 82.726562 413.859375 92.636719 401.636719 92.636719 C 389.414062 92.636719 379.503906 82.726562 379.503906 70.503906 C 379.503906 58.28125 389.414062 48.375 401.636719 48.375 C 413.859375 48.375 423.769531 58.28125 423.769531 70.503906 Z M 329.460938 -144.984375 "/>
</clipPath>
<clipPath id="clip69">
  <path d="M 329.460938 -144.984375 L 406.40625 -144.984375 L 406.40625 286.101562 L 329.460938 286.101562 Z M 329.460938 -144.984375 L 356.363281 70.613281 C 356.363281 82.835938 346.453125 92.746094 334.230469 92.746094 C 322.007812 92.746094 312.097656 82.835938 312.097656 70.613281 C 312.097656 58.390625 322.007812 48.480469 334.230469 48.480469 C 346.453125 48.480469 356.363281 58.390625 356.363281 70.613281 Z M 329.460938 -144.984375 "/>
</clipPath>
</defs>
<g id="surface296">
<g clip-path="url(#clip1)" clip-rule="nonzero">
<g clip-path="url(#clip2)" clip-rule="evenodd">
<g clip-path="url(#clip3)" clip-rule="evenodd">
<path style="fill:none;stroke-width:0.0209714;stroke-linecap:butt;stroke-linejoin:miter;stroke:rgb(17.96875%,20.3125%,21.09375%);stroke-opacity:0.8;stroke-miterlimit:10;" d="M 1.965396 3.352557 L 2.447018 3.363662 " transform="matrix(211.062413,0,0,211.062413,-145.196256,-246.618309)"/>
</g>
</g>
</g>
<g clip-path="url(#clip4)" clip-rule="nonzero">
<g clip-path="url(#clip5)" clip-rule="evenodd">
<g clip-path="url(#clip6)" clip-rule="evenodd">
<path style="fill:none;stroke-width:0.0209714;stroke-linecap:butt;stroke-linejoin:miter;stroke:rgb(17.96875%,20.3125%,21.09375%);stroke-opacity:0.8;stroke-miterlimit:10;" d="M 1.965396 3.352557 L 2.60585 2.98285 " transform="matrix(211.062413,0,0,211.062413,-145.196256,-246.618309)"/>
</g>
</g>
</g>
<g clip-path="url(#clip7)" clip-rule="nonzero">
<g clip-path="url(#clip8)" clip-rule="evenodd">
<g clip-path="url(#clip9)" clip-rule="evenodd">
<path style="fill:none;stroke-width:0.0209714;stroke-linecap:butt;stroke-linejoin:miter;stroke:rgb(17.96875%,20.3125%,21.09375%);stroke-opacity:0.8;stroke-miterlimit:10;" d="M 1.965396 3.352557 L 2.054436 3.800699 " transform="matrix(211.062413,0,0,211.062413,-145.196256,-246.618309)"/>
</g>
</g>
</g>
<g clip-path="url(#clip10)" clip-rule="nonzero">
<g clip-path="url(#clip11)" clip-rule="evenodd">
<g clip-path="url(#clip12)" clip-rule="evenodd">
<path style="fill:none;stroke-width:0.0209714;stroke-linecap:butt;stroke-linejoin:miter;stroke:rgb(17.96875%,20.3125%,21.09375%);stroke-opacity:0.8;stroke-miterlimit:10;" d="M 1.965396 3.352557 L 1.389459 3.164631 " transform="matrix(211.062413,0,0,211.062413,-145.196256,-246.618309)"/>
</g>
</g>
</g>
<g clip-path="url(#clip13)" clip-rule="nonzero">
<g clip-path="url(#clip14)" clip-rule="evenodd">
<g clip-path="url(#clip15)" clip-rule="evenodd">
<path style="fill:none;stroke-width:0.0209714;stroke-linecap:butt;stroke-linejoin:miter;stroke:rgb(17.96875%,20.3125%,21.09375%);stroke-opacity:0.8;stroke-miterlimit:10;" d="M 1.965396 3.352557 L 1.383852 3.277139 " transform="matrix(211.062413,0,0,211.062413,-145.196256,-246.618309)"/>
</g>
</g>
</g>
<g clip-path="url(#clip16)" clip-rule="nonzero">
<g clip-path="url(#clip17)" clip-rule="evenodd">
<g clip-path="url(#clip18)" clip-rule="evenodd">
<path style="fill:none;stroke-width:0.0209714;stroke-linecap:butt;stroke-linejoin:miter;stroke:rgb(17.96875%,20.3125%,21.09375%);stroke-opacity:0.8;stroke-miterlimit:10;" d="M 2.447018 3.363662 L 2.60585 2.98285 " transform="matrix(211.062413,0,0,211.062413,-145.196256,-246.618309)"/>
</g>
</g>
</g>
<g clip-path="url(#clip19)" clip-rule="nonzero">
<g clip-path="url(#clip20)" clip-rule="evenodd">
<g clip-path="url(#clip21)" clip-rule="evenodd">
<path style="fill:none;stroke-width:0.0209714;stroke-linecap:butt;stroke-linejoin:miter;stroke:rgb(17.96875%,20.3125%,21.09375%);stroke-opacity:0.8;stroke-miterlimit:10;" d="M 2.60585 2.98285 L 2.926364 2.41241 " transform="matrix(211.062413,0,0,211.062413,-145.196256,-246.618309)"/>
</g>
</g>
</g>
<g clip-path="url(#clip22)" clip-rule="nonzero">
<g clip-path="url(#clip23)" clip-rule="evenodd">
<g clip-path="url(#clip24)" clip-rule="evenodd">
<path style="fill:none;stroke-width:0.0209714;stroke-linecap:butt;stroke-linejoin:miter;stroke:rgb(17.96875%,20.3125%,21.09375%);stroke-opacity:0.8;stroke-miterlimit:10;" d="M 2.60585 2.98285 L 2.803696 2.532469 " transform="matrix(211.062413,0,0,211.062413,-145.196256,-246.618309)"/>
</g>
</g>
</g>
<g clip-path="url(#clip25)" clip-rule="nonzero">
<g clip-path="url(#clip26)" clip-rule="evenodd">
<g clip-path="url(#clip27)" clip-rule="evenodd">
<path style="fill:none;stroke-width:0.0209714;stroke-linecap:butt;stroke-linejoin:miter;stroke:rgb(17.96875%,20.3125%,21.09375%);stroke-opacity:0.8;stroke-miterlimit:10;" d="M 3.121452 2.10822 L 2.656857 1.916796 " transform="matrix(211.062413,0,0,211.062413,-145.196256,-246.618309)"/>
</g>
</g>
</g>
<g clip-path="url(#clip28)" clip-rule="nonzero">
<g clip-path="url(#clip29)" clip-rule="evenodd">
<g clip-path="url(#clip30)" clip-rule="evenodd">
<path style="fill:none;stroke-width:0.0209714;stroke-linecap:butt;stroke-linejoin:miter;stroke:rgb(17.96875%,20.3125%,21.09375%);stroke-opacity:0.8;stroke-miterlimit:10;" d="M 3.121452 2.10822 L 2.926364 2.41241 " transform="matrix(211.062413,0,0,211.062413,-145.196256,-246.618309)"/>
</g>
</g>
</g>
<g clip-path="url(#clip31)" clip-rule="nonzero">
<g clip-path="url(#clip32)" clip-rule="evenodd">
<g clip-path="url(#clip33)" clip-rule="evenodd">
<path style="fill:none;stroke-width:0.0209714;stroke-linecap:butt;stroke-linejoin:miter;stroke:rgb(17.96875%,20.3125%,21.09375%);stroke-opacity:0.8;stroke-miterlimit:10;" d="M 2.656857 1.916796 L 2.926364 2.41241 " transform="matrix(211.062413,0,0,211.062413,-145.196256,-246.618309)"/>
</g>
</g>
</g>
<g clip-path="url(#clip34)" clip-rule="nonzero">
<g clip-path="url(#clip35)" clip-rule="evenodd">
<g clip-path="url(#clip36)" clip-rule="evenodd">
<path style="fill:none;stroke-width:0.0209714;stroke-linecap:butt;stroke-linejoin:miter;stroke:rgb(17.96875%,20.3125%,21.09375%);stroke-opacity:0.8;stroke-miterlimit:10;" d="M 2.656857 1.916796 L 2.803696 2.532469 " transform="matrix(211.062413,0,0,211.062413,-145.196256,-246.618309)"/>
</g>
</g>
</g>
<g clip-path="url(#clip37)" clip-rule="nonzero">
<g clip-path="url(#clip38)" clip-rule="evenodd">
<g clip-path="url(#clip39)" clip-rule="evenodd">
<path style="fill:none;stroke-width:0.0209714;stroke-linecap:butt;stroke-linejoin:miter;stroke:rgb(17.96875%,20.3125%,21.09375%);stroke-opacity:0.8;stroke-miterlimit:10;" d="M 2.656857 1.916796 L 2.098095 1.557564 " transform="matrix(211.062413,0,0,211.062413,-145.196256,-246.618309)"/>
</g>
</g>
</g>
<g clip-path="url(#clip40)" clip-rule="nonzero">
<g clip-path="url(#clip41)" clip-rule="evenodd">
<g clip-path="url(#clip42)" clip-rule="evenodd">
<path style="fill:none;stroke-width:0.0209714;stroke-linecap:butt;stroke-linejoin:miter;stroke:rgb(17.96875%,20.3125%,21.09375%);stroke-opacity:0.8;stroke-miterlimit:10;" d="M 2.656857 1.916796 L 2.590859 1.502504 " transform="matrix(211.062413,0,0,211.062413,-145.196256,-246.618309)"/>
</g>
</g>
</g>
<g clip-path="url(#clip43)" clip-rule="nonzero">
<g clip-path="url(#clip44)" clip-rule="evenodd">
<g clip-path="url(#clip45)" clip-rule="evenodd">
<path style="fill:none;stroke-width:0.0209714;stroke-linecap:butt;stroke-linejoin:miter;stroke:rgb(17.96875%,20.3125%,21.09375%);stroke-opacity:0.8;stroke-miterlimit:10;" d="M 2.656857 1.916796 L 2.271493 1.503023 " transform="matrix(211.062413,0,0,211.062413,-145.196256,-246.618309)"/>
</g>
</g>
</g>
<g clip-path="url(#clip46)" clip-rule="nonzero">
<g clip-path="url(#clip47)" clip-rule="evenodd">
<g clip-path="url(#clip48)" clip-rule="evenodd">
<path style="fill:none;stroke-width:0.0209714;stroke-linecap:butt;stroke-linejoin:miter;stroke:rgb(17.96875%,20.3125%,21.09375%);stroke-opacity:0.8;stroke-miterlimit:10;" d="M 2.926364 2.41241 L 2.803696 2.532469 " transform="matrix(211.062413,0,0,211.062413,-145.196256,-246.618309)"/>
</g>
</g>
</g>
<g clip-path="url(#clip49)" clip-rule="nonzero">
<g clip-path="url(#clip50)" clip-rule="evenodd">
<g clip-path="url(#clip51)" clip-rule="evenodd">
<path style="fill:none;stroke-width:0.0209714;stroke-linecap:butt;stroke-linejoin:miter;stroke:rgb(17.96875%,20.3125%,21.09375%);stroke-opacity:0.8;stroke-miterlimit:10;" d="M 1.389459 3.164631 L 1.383852 3.277139 " transform="matrix(211.062413,0,0,211.062413,-145.196256,-246.618309)"/>
</g>
</g>
</g>
<g clip-path="url(#clip52)" clip-rule="nonzero">
<g clip-path="url(#clip53)" clip-rule="evenodd">
<g clip-path="url(#clip54)" clip-rule="evenodd">
<path style="fill:none;stroke-width:0.0209714;stroke-linecap:butt;stroke-linejoin:miter;stroke:rgb(17.96875%,20.3125%,21.09375%);stroke-opacity:0.8;stroke-miterlimit:10;" d="M 1.389459 3.164631 L 1.09717 3.097356 " transform="matrix(211.062413,0,0,211.062413,-145.196256,-246.618309)"/>
</g>
</g>
</g>
<g clip-path="url(#clip55)" clip-rule="nonzero">
<g clip-path="url(#clip56)" clip-rule="evenodd">
<g clip-path="url(#clip57)" clip-rule="evenodd">
<path style="fill:none;stroke-width:0.0209714;stroke-linecap:butt;stroke-linejoin:miter;stroke:rgb(17.96875%,20.3125%,21.09375%);stroke-opacity:0.8;stroke-miterlimit:10;" d="M 1.383852 3.277139 L 1.09717 3.097356 " transform="matrix(211.062413,0,0,211.062413,-145.196256,-246.618309)"/>
</g>
</g>
</g>
<g clip-path="url(#clip58)" clip-rule="nonzero">
<g clip-path="url(#clip59)" clip-rule="evenodd">
<g clip-path="url(#clip60)" clip-rule="evenodd">
<path style="fill:none;stroke-width:0.0209714;stroke-linecap:butt;stroke-linejoin:miter;stroke:rgb(17.96875%,20.3125%,21.09375%);stroke-opacity:0.8;stroke-miterlimit:10;" d="M 2.098095 1.557564 L 1.866529 1.378985 " transform="matrix(211.062413,0,0,211.062413,-145.196256,-246.618309)"/>
</g>
</g>
</g>
<g clip-path="url(#clip61)" clip-rule="nonzero">
<g clip-path="url(#clip62)" clip-rule="evenodd">
<g clip-path="url(#clip63)" clip-rule="evenodd">
<path style="fill:none;stroke-width:0.0209714;stroke-linecap:butt;stroke-linejoin:miter;stroke:rgb(17.96875%,20.3125%,21.09375%);stroke-opacity:0.8;stroke-miterlimit:10;" d="M 2.098095 1.557564 L 2.271493 1.503023 " transform="matrix(211.062413,0,0,211.062413,-145.196256,-246.618309)"/>
</g>
</g>
</g>
<g clip-path="url(#clip64)" clip-rule="nonzero">
<g clip-path="url(#clip65)" clip-rule="evenodd">
<g clip-path="url(#clip66)" clip-rule="evenodd">
<path style="fill:none;stroke-width:0.0209714;stroke-linecap:butt;stroke-linejoin:miter;stroke:rgb(17.96875%,20.3125%,21.09375%);stroke-opacity:0.8;stroke-miterlimit:10;" d="M 1.866529 1.378985 L 2.271493 1.503023 " transform="matrix(211.062413,0,0,211.062413,-145.196256,-246.618309)"/>
</g>
</g>
</g>
<g clip-path="url(#clip67)" clip-rule="nonzero">
<g clip-path="url(#clip68)" clip-rule="evenodd">
<g clip-path="url(#clip69)" clip-rule="evenodd">
<path style="fill:none;stroke-width:0.0209714;stroke-linecap:butt;stroke-linejoin:miter;stroke:rgb(17.96875%,20.3125%,21.09375%);stroke-opacity:0.8;stroke-miterlimit:10;" d="M 2.590859 1.502504 L 2.271493 1.503023 " transform="matrix(211.062413,0,0,211.062413,-145.196256,-246.618309)"/>
</g>
</g>
</g>
<path style="fill-rule:nonzero;fill:rgb(100%,92.941176%,43.529412%);fill-opacity:1;stroke-width:0.0209714;stroke-linecap:butt;stroke-linejoin:miter;stroke:rgb(60%,60%,60%);stroke-opacity:0.8;stroke-miterlimit:10;" d="M 0.104865 -0.00000575507 C 0.104865 0.0579044 0.0579118 0.104858 0.0000016335 0.104858 C -0.0579085 0.104858 -0.104862 0.0579044 -0.104862 -0.00000575507 C -0.104862 -0.0579159 -0.0579085 -0.104851 0.0000016335 -0.104851 C 0.0579118 -0.104851 0.104865 -0.0579159 0.104865 -0.00000575507 Z M 0.104865 -0.00000575507 " transform="matrix(211.062413,0,0,211.062413,269.624655,460.981683)"/>
<path style="fill-rule:nonzero;fill:rgb(100%,92.941176%,43.529412%);fill-opacity:1;stroke-width:0.0209714;stroke-linecap:butt;stroke-linejoin:miter;stroke:rgb(60%,60%,60%);stroke-opacity:0.8;stroke-miterlimit:10;" d="M 0.104851 0.0000056019 C 0.104851 0.0579158 0.0579156 0.104851 0.00000542652 0.104851 C -0.0579047 0.104851 -0.104858 0.0579158 -0.104858 0.0000056019 C -0.104858 -0.0579045 -0.0579047 -0.104858 0.00000542652 -0.104858 C 0.0579156 -0.104858 0.104851 -0.0579045 0.104851 0.0000056019 Z M 0.104851 0.0000056019 " transform="matrix(211.062413,0,0,211.062413,371.276198,463.323036)"/>
<path style="fill-rule:nonzero;fill:rgb(100%,92.941176%,43.529412%);fill-opacity:1;stroke-width:0.0209714;stroke-linecap:butt;stroke-linejoin:miter;stroke:rgb(60%,60%,60%);stroke-opacity:0.8;stroke-miterlimit:10;" d="M 0.10485 0.00000413141 C 0.10485 0.0579143 0.0579145 0.104849 0.00000435243 0.104849 C -0.0579058 0.104849 -0.104859 0.0579143 -0.104859 0.00000413141 C -0.104859 -0.057906 -0.0579058 -0.10486 0.00000435243 -0.10486 C 0.0579145 -0.10486 0.10485 -0.057906 0.10485 0.00000413141 Z M 0.10485 0.00000413141 " transform="matrix(211.062413,0,0,211.062413,404.799863,382.948347)"/>
<path style="fill-rule:nonzero;fill:rgb(55.294118%,82.745098%,78.039216%);fill-opacity:1;stroke-width:0.0209714;stroke-linecap:butt;stroke-linejoin:miter;stroke:rgb(60%,60%,60%);stroke-opacity:0.8;stroke-miterlimit:10;" d="M 0.104862 0.00000511546 C 0.104862 0.0579153 0.0579082 0.10485 -0.00000194933 0.10485 C -0.0579121 0.10485 -0.104866 0.0579153 -0.104866 0.00000511546 C -0.104866 -0.057905 -0.0579121 -0.104859 -0.00000194933 -0.104859 C 0.0579082 -0.104859 0.104862 -0.057905 0.104862 0.00000511546 Z M 0.104862 0.00000511546 " transform="matrix(211.062413,0,0,211.062413,288.41838,555.565327)"/>
<path style="fill-rule:nonzero;fill:rgb(100%,92.941176%,43.529412%);fill-opacity:1;stroke-width:0.0209714;stroke-linecap:butt;stroke-linejoin:miter;stroke:rgb(60%,60%,60%);stroke-opacity:0.8;stroke-miterlimit:10;" d="M 0.10486 -0.00000717193 C 0.10486 0.057903 0.0579066 0.104857 -0.00000357372 0.104857 C -0.0579137 0.104857 -0.104849 0.057903 -0.104849 -0.00000717193 C -0.104849 -0.0579173 -0.0579137 -0.104852 -0.00000357372 -0.104852 C 0.0579066 -0.104852 0.10486 -0.0579173 0.10486 -0.00000717193 Z M 0.10486 -0.00000717193 " transform="matrix(211.062413,0,0,211.062413,513.625754,198.34917)"/>
<path style="fill-rule:nonzero;fill:rgb(100%,92.941176%,43.529412%);fill-opacity:1;stroke-width:0.0209714;stroke-linecap:butt;stroke-linejoin:miter;stroke:rgb(60%,60%,60%);stroke-opacity:0.8;stroke-miterlimit:10;" d="M 0.10486 0.00000154469 C 0.10486 0.0579117 0.0579065 0.104865 -0.00000362526 0.104865 C -0.0579138 0.104865 -0.104849 0.0579117 -0.104849 0.00000154469 C -0.104849 -0.0579086 -0.0579138 -0.104862 -0.00000362526 -0.104862 C 0.0579065 -0.104862 0.10486 -0.0579086 0.10486 0.00000154469 Z M 0.10486 0.00000154469 " transform="matrix(211.062413,0,0,211.062413,415.567171,157.944986)"/>
<path style="fill-rule:nonzero;fill:rgb(100%,92.941176%,43.529412%);fill-opacity:1;stroke-width:0.0209714;stroke-linecap:butt;stroke-linejoin:miter;stroke:rgb(60%,60%,60%);stroke-opacity:0.8;stroke-miterlimit:10;" d="M 0.104863 0.00000739464 C 0.104863 0.0579175 0.0579091 0.104853 -0.00000105136 0.104853 C -0.0579112 0.104853 -0.104865 0.0579175 -0.104865 0.00000739464 C -0.104865 -0.0579028 -0.0579112 -0.104856 -0.00000105136 -0.104856 C 0.0579091 -0.104856 0.104863 -0.0579028 0.104863 0.00000739464 Z M 0.104863 0.00000739464 " transform="matrix(211.062413,0,0,211.062413,472.449441,262.549221)"/>
<path style="fill-rule:nonzero;fill:rgb(100%,92.941176%,43.529412%);fill-opacity:1;stroke-width:0.0209714;stroke-linecap:butt;stroke-linejoin:miter;stroke:rgb(60%,60%,60%);stroke-opacity:0.8;stroke-miterlimit:10;" d="M 0.104864 0.00000672233 C 0.104864 0.0579169 0.0579101 0.104852 -0.0000000459157 0.104852 C -0.0579102 0.104852 -0.104864 0.0579169 -0.104864 0.00000672233 C -0.104864 -0.0579034 -0.0579102 -0.104857 -0.0000000459157 -0.104857 C 0.0579101 -0.104857 0.104864 -0.0579034 0.104864 0.00000672233 Z M 0.104864 0.00000672233 " transform="matrix(211.062413,0,0,211.062413,446.558603,287.889206)"/>
<path style="fill-rule:nonzero;fill:rgb(100%,92.941176%,43.529412%);fill-opacity:1;stroke-width:0.0209714;stroke-linecap:butt;stroke-linejoin:miter;stroke:rgb(60%,60%,60%);stroke-opacity:0.8;stroke-miterlimit:10;" d="M 0.104848 -0.00000427265 C 0.104848 0.0579059 0.0579126 0.10486 0.00000240459 0.10486 C -0.0579077 0.10486 -0.104861 0.0579059 -0.104861 -0.00000427265 C -0.104861 -0.0579144 -0.0579077 -0.10485 0.00000240459 -0.10485 C 0.0579126 -0.10485 0.104848 -0.0579144 0.104848 -0.00000427265 Z M 0.104848 -0.00000427265 " transform="matrix(211.062413,0,0,211.062413,148.065899,421.317308)"/>
<path style="fill-rule:nonzero;fill:rgb(100%,92.941176%,43.529412%);fill-opacity:1;stroke-width:0.0209714;stroke-linecap:butt;stroke-linejoin:miter;stroke:rgb(60%,60%,60%);stroke-opacity:0.8;stroke-miterlimit:10;" d="M 0.104849 0.00000319923 C 0.104849 0.0579134 0.0579135 0.104849 0.00000334221 0.104849 C -0.0579068 0.104849 -0.10486 0.0579134 -0.10486 0.00000319923 C -0.10486 -0.057907 -0.0579068 -0.104861 0.00000334221 -0.104861 C 0.0579135 -0.104861 0.104849 -0.057907 0.104849 0.00000319923 Z M 0.104849 0.00000319923 " transform="matrix(211.062413,0,0,211.062413,146.882107,445.061825)"/>
<path style="fill-rule:nonzero;fill:rgb(100%,92.941176%,43.529412%);fill-opacity:1;stroke-width:0.0209714;stroke-linecap:butt;stroke-linejoin:miter;stroke:rgb(60%,60%,60%);stroke-opacity:0.8;stroke-miterlimit:10;" d="M 0.104849 -0.0000027725 C 0.104849 0.0579074 0.0579137 0.104861 0.00000357372 0.104861 C -0.0579066 0.104861 -0.10486 0.0579074 -0.10486 -0.0000027725 C -0.10486 -0.0579129 -0.0579066 -0.104848 0.00000357372 -0.104848 C 0.0579137 -0.104848 0.104849 -0.0579129 0.104849 -0.0000027725 Z M 0.104849 -0.0000027725 " transform="matrix(211.062413,0,0,211.062413,86.374246,407.117773)"/>
<path style="fill-rule:nonzero;fill:rgb(100%,92.941176%,43.529412%);fill-opacity:1;stroke-width:0.0209714;stroke-linecap:butt;stroke-linejoin:miter;stroke:rgb(60%,60%,60%);stroke-opacity:0.8;stroke-miterlimit:10;" d="M 0.104852 -0.00000195215 C 0.104852 0.0579082 0.0579173 0.104862 0.0000071745 0.104862 C -0.057903 0.104862 -0.104857 0.0579082 -0.104857 -0.00000195215 C -0.104857 -0.0579121 -0.057903 -0.104866 0.0000071745 -0.104866 C 0.0579173 -0.104866 0.104852 -0.0579121 0.104852 -0.00000195215 Z M 0.104852 -0.00000195215 " transform="matrix(211.062413,0,0,211.062413,297.631298,82.125412)"/>
<path style="fill-rule:nonzero;fill:rgb(100%,92.941176%,43.529412%);fill-opacity:1;stroke-width:0.0209714;stroke-linecap:butt;stroke-linejoin:miter;stroke:rgb(60%,60%,60%);stroke-opacity:0.8;stroke-miterlimit:10;" d="M 0.104853 -0.00000511546 C 0.104853 0.057905 0.0579182 0.104859 0.00000809621 0.104859 C -0.0579021 0.104859 -0.104856 0.057905 -0.104856 -0.00000511546 C -0.104856 -0.0579153 -0.0579021 -0.10485 0.00000809621 -0.10485 C 0.0579182 -0.10485 0.104853 -0.0579153 0.104853 -0.00000511546 Z M 0.104853 -0.00000511546 " transform="matrix(211.062413,0,0,211.062413,248.756104,44.434673)"/>
<path style="fill-rule:nonzero;fill:rgb(100%,92.941176%,43.529412%);fill-opacity:1;stroke-width:0.0209714;stroke-linecap:butt;stroke-linejoin:miter;stroke:rgb(60%,60%,60%);stroke-opacity:0.8;stroke-miterlimit:10;" d="M 0.104865 -0.00000269855 C 0.104865 0.0579075 0.057911 0.104861 0.000000871542 0.104861 C -0.0579093 0.104861 -0.104863 0.0579075 -0.104863 -0.00000269855 C -0.104863 -0.0579128 -0.0579093 -0.104848 0.000000871542 -0.104848 C 0.057911 -0.104848 0.104865 -0.0579128 0.104865 -0.00000269855 Z M 0.104865 -0.00000269855 " transform="matrix(211.062413,0,0,211.062413,401.636535,70.504476)"/>
<path style="fill-rule:nonzero;fill:rgb(100%,92.941176%,43.529412%);fill-opacity:1;stroke-width:0.0209714;stroke-linecap:butt;stroke-linejoin:miter;stroke:rgb(60%,60%,60%);stroke-opacity:0.8;stroke-miterlimit:10;" d="M 0.104863 0.00000042342 C 0.104863 0.0579106 0.0579097 0.104864 -0.000000487087 0.104864 C -0.0579106 0.104864 -0.104864 0.0579106 -0.104864 0.00000042342 C -0.104864 -0.0579097 -0.0579106 -0.104863 -0.000000487087 -0.104863 C 0.0579097 -0.104863 0.104863 -0.0579097 0.104863 0.00000042342 Z M 0.104863 0.00000042342 " transform="matrix(211.062413,0,0,211.062413,334.230572,70.613192)"/>
</g>
</svg>
