<?xml version="1.0" encoding="UTF-8"?>
<svg xmlns="http://www.w3.org/2000/svg" xmlns:xlink="http://www.w3.org/1999/xlink" width="600pt" height="600pt" viewBox="0 0 600 600" version="1.1">
<defs>
<clipPath id="clip1">
  <path d="M 3 237 L 146 237 L 146 421 L 3 421 Z M 3 237 "/>
</clipPath>
<clipPath id="clip2">
  <path d="M -106.796875 223.839844 L 255.53125 223.839844 L 255.53125 433.898438 L -106.796875 433.898438 Z M -106.796875 223.839844 L 80.453125 294.144531 C 80.453125 305.304688 71.410156 314.347656 60.25 314.347656 C 49.09375 314.347656 40.046875 305.304688 40.046875 294.144531 C 40.046875 282.988281 49.09375 273.941406 60.25 273.941406 C 71.410156 273.941406 80.453125 282.988281 80.453125 294.144531 Z M -106.796875 223.839844 "/>
</clipPath>
<clipPath id="clip3">
  <path d="M -106.796875 223.839844 L 255.53125 223.839844 L 255.53125 433.898438 L -106.796875 433.898438 Z M -106.796875 223.839844 L 108.683594 363.589844 C 108.683594 374.75 99.636719 383.792969 88.480469 383.792969 C 77.320312 383.792969 68.277344 374.75 68.277344 363.589844 C 68.277344 352.433594 77.320312 343.386719 88.480469 343.386719 C 99.636719 343.386719 108.683594 352.433594 108.683594 363.589844 Z M -106.796875 223.839844 "/>
</clipPath>
<clipPath id="clip4">
  <path d="M 0 211.324219 L 118 211.324219 L 118 317.398438 L 0 317.398438 Z M 0 211.324219 "/>
</clipPath>
<clipPath id="clip5">
  <path d="M -125.242188 211.324219 L 239.203125 211.324219 L 239.203125 317.398438 L -125.242188 317.398438 Z M -125.242188 211.324219 L 80.453125 294.144531 C 80.453125 305.304688 71.410156 314.347656 60.25 314.347656 C 49.09375 314.347656 40.046875 305.304688 40.046875 294.144531 C 40.046875 282.988281 49.09375 273.941406 60.25 273.941406 C 71.410156 273.941406 80.453125 282.988281 80.453125 294.144531 Z M -125.242188 211.324219 "/>
</clipPath>
<clipPath id="clip6">
  <path d="M -125.242188 211.324219 L 239.203125 211.324219 L 239.203125 317.398438 L -125.242188 317.398438 Z M -125.242188 211.324219 L 73.910156 234.574219 C 73.910156 245.730469 64.863281 254.777344 53.707031 254.777344 C 42.546875 254.777344 33.503906 245.730469 33.503906 234.574219 C 33.503906 223.414062 42.546875 214.371094 53.707031 214.371094 C 64.863281 214.371094 73.910156 223.414062 73.910156 234.574219 Z M -125.242188 211.324219 "/>
</clipPath>
<clipPath id="clip7">
  <path d="M 31 306 L 205 306 L 205 448 L 31 448 Z M 31 306 "/>
</clipPath>
<clipPath id="clip8">
  <path d="M 10.421875 199.914062 L 225.203125 199.914062 L 225.203125 554.46875 L 10.421875 554.46875 Z M 10.421875 199.914062 L 167.34375 390.789062 C 167.34375 401.945312 158.296875 410.992188 147.140625 410.992188 C 135.980469 410.992188 126.9375 401.945312 126.9375 390.789062 C 126.9375 379.632812 135.980469 370.585938 147.140625 370.585938 C 158.296875 370.585938 167.34375 379.632812 167.34375 390.789062 Z M 10.421875 199.914062 "/>
</clipPath>
<clipPath id="clip9">
  <path d="M 10.421875 199.914062 L 225.203125 199.914062 L 225.203125 554.46875 L 10.421875 554.46875 Z M 10.421875 199.914062 L 108.683594 363.589844 C 108.683594 374.75 99.636719 383.792969 88.480469 383.792969 C 77.320312 383.792969 68.277344 374.75 68.277344 363.589844 C 68.277344 352.433594 77.320312 343.386719 88.480469 343.386719 C 99.636719 343.386719 108.683594 352.433594 108.683594 363.589844 Z M 10.421875 199.914062 "/>
</clipPath>
<clipPath id="clip10">
  <path d="M 89 287 L 271 287 L 271 448 L 89 448 Z M 89 287 "/>
</clipPath>
<clipPath id="clip11">
  <path d="M 42.917969 196.160156 L 317.691406 196.160156 L 317.691406 539.488281 L 42.917969 539.488281 Z M 42.917969 196.160156 L 167.34375 390.789062 C 167.34375 401.945312 158.296875 410.992188 147.140625 410.992188 C 135.980469 410.992188 126.9375 401.945312 126.9375 390.789062 C 126.9375 379.632812 135.980469 370.585938 147.140625 370.585938 C 158.296875 370.585938 167.34375 379.632812 167.34375 390.789062 Z M 42.917969 196.160156 "/>
</clipPath>
<clipPath id="clip12">
  <path d="M 42.917969 196.160156 L 317.691406 196.160156 L 317.691406 539.488281 L 42.917969 539.488281 Z M 42.917969 196.160156 L 233.667969 344.855469 C 233.667969 356.015625 224.621094 365.058594 213.464844 365.058594 C 202.304688 365.058594 193.261719 356.015625 193.261719 344.855469 C 193.261719 333.699219 202.304688 324.652344 213.464844 324.652344 C 224.621094 324.652344 233.667969 333.699219 233.667969 344.855469 Z M 42.917969 196.160156 "/>
</clipPath>
<clipPath id="clip13">
  <path d="M 247 32 L 459 32 L 459 248 L 247 248 Z M 247 32 "/>
</clipPath>
<clipPath id="clip14">
  <path d="M 173.71875 -36.011719 L 532.367188 -36.011719 L 532.367188 315.910156 L 173.71875 315.910156 Z M 173.71875 -36.011719 L 325.136719 89.636719 C 325.136719 100.796875 316.09375 109.839844 304.933594 109.839844 C 293.777344 109.839844 284.730469 100.796875 284.730469 89.636719 C 284.730469 78.480469 293.777344 69.433594 304.933594 69.433594 C 316.09375 69.433594 325.136719 78.480469 325.136719 89.636719 Z M 173.71875 -36.011719 "/>
</clipPath>
<clipPath id="clip15">
  <path d="M 173.71875 -36.011719 L 532.367188 -36.011719 L 532.367188 315.910156 L 173.71875 315.910156 Z M 173.71875 -36.011719 L 421.351562 190.257812 C 421.351562 201.414062 412.304688 210.460938 401.148438 210.460938 C 389.992188 210.460938 380.945312 201.414062 380.945312 190.257812 C 380.945312 179.101562 389.992188 170.054688 401.148438 170.054688 C 412.304688 170.054688 421.351562 179.101562 421.351562 190.257812 Z M 173.71875 -36.011719 "/>
</clipPath>
<clipPath id="clip16">
  <path d="M 194 0 L 363 0 L 363 147 L 194 147 Z M 194 0 "/>
</clipPath>
<clipPath id="clip17">
  <path d="M 130.117188 -93.003906 L 426.640625 -93.003906 L 426.640625 224.515625 L 130.117188 224.515625 Z M 130.117188 -93.003906 L 325.136719 89.636719 C 325.136719 100.796875 316.09375 109.839844 304.933594 109.839844 C 293.777344 109.839844 284.730469 100.796875 284.730469 89.636719 C 284.730469 78.480469 293.777344 69.433594 304.933594 69.433594 C 316.09375 69.433594 325.136719 78.480469 325.136719 89.636719 Z M 130.117188 -93.003906 "/>
</clipPath>
<clipPath id="clip18">
  <path d="M 130.117188 -93.003906 L 426.640625 -93.003906 L 426.640625 224.515625 L 130.117188 224.515625 Z M 130.117188 -93.003906 L 272.023438 41.871094 C 272.023438 53.027344 262.980469 62.074219 251.820312 62.074219 C 240.664062 62.074219 231.617188 53.027344 231.617188 41.871094 C 231.617188 30.710938 240.664062 21.667969 251.820312 21.667969 C 262.980469 21.667969 272.023438 30.710938 272.023438 41.871094 Z M 130.117188 -93.003906 "/>
</clipPath>
<clipPath id="clip19">
  <path d="M 156 210 L 346 210 L 346 402 L 156 402 Z M 156 210 "/>
</clipPath>
<clipPath id="clip20">
  <path d="M 83.085938 141.214844 L 418.613281 141.214844 L 418.613281 471.378906 L 83.085938 471.378906 Z M 83.085938 141.214844 L 308.433594 267.734375 C 308.433594 278.890625 299.390625 287.9375 288.230469 287.9375 C 277.074219 287.9375 268.027344 278.890625 268.027344 267.734375 C 268.027344 256.578125 277.074219 247.53125 288.230469 247.53125 C 299.390625 247.53125 308.433594 256.578125 308.433594 267.734375 Z M 83.085938 141.214844 "/>
</clipPath>
<clipPath id="clip21">
  <path d="M 83.085938 141.214844 L 418.613281 141.214844 L 418.613281 471.378906 L 83.085938 471.378906 Z M 83.085938 141.214844 L 233.667969 344.855469 C 233.667969 356.015625 224.621094 365.058594 213.464844 365.058594 C 202.304688 365.058594 193.261719 356.015625 193.261719 344.855469 C 193.261719 333.699219 202.304688 324.652344 213.464844 324.652344 C 224.621094 324.652344 233.667969 333.699219 233.667969 344.855469 Z M 83.085938 141.214844 "/>
</clipPath>
<clipPath id="clip22">
  <path d="M 231 133 L 459 133 L 459 325 L 231 325 Z M 231 133 "/>
</clipPath>
<clipPath id="clip23">
  <path d="M 184.640625 41.125 L 504.742188 41.125 L 504.742188 416.871094 L 184.640625 416.871094 Z M 184.640625 41.125 L 308.433594 267.734375 C 308.433594 278.890625 299.390625 287.9375 288.230469 287.9375 C 277.074219 287.9375 268.027344 278.890625 268.027344 267.734375 C 268.027344 256.578125 277.074219 247.53125 288.230469 247.53125 C 299.390625 247.53125 308.433594 256.578125 308.433594 267.734375 Z M 184.640625 41.125 "/>
</clipPath>
<clipPath id="clip24">
  <path d="M 184.640625 41.125 L 504.742188 41.125 L 504.742188 416.871094 L 184.640625 416.871094 Z M 184.640625 41.125 L 421.351562 190.257812 C 421.351562 201.414062 412.304688 210.460938 401.148438 210.460938 C 389.992188 210.460938 380.945312 201.414062 380.945312 190.257812 C 380.945312 179.101562 389.992188 170.054688 401.148438 170.054688 C 412.304688 170.054688 421.351562 179.101562 421.351562 190.257812 Z M 184.640625 41.125 "/>
</clipPath>
<clipPath id="clip25">
  <path d="M 344 90.617188 L 461 90.617188 L 461 198.765625 L 344 198.765625 Z M 344 90.617188 "/>
</clipPath>
<clipPath id="clip26">
  <path d="M 221.203125 90.617188 L 583.410156 90.617188 L 583.410156 198.765625 L 221.203125 198.765625 Z M 221.203125 90.617188 L 421.351562 190.257812 C 421.351562 201.414062 412.304688 210.460938 401.148438 210.460938 C 389.992188 210.460938 380.945312 201.414062 380.945312 190.257812 C 380.945312 179.101562 389.992188 170.054688 401.148438 170.054688 C 412.304688 170.054688 421.351562 179.101562 421.351562 190.257812 Z M 221.203125 90.617188 "/>
</clipPath>
<clipPath id="clip27">
  <path d="M 221.203125 90.617188 L 583.410156 90.617188 L 583.410156 198.765625 L 221.203125 198.765625 Z M 221.203125 90.617188 L 423.664062 99.121094 C 423.664062 110.28125 414.617188 119.324219 403.460938 119.324219 C 392.300781 119.324219 383.257812 110.28125 383.257812 99.121094 C 383.257812 87.964844 392.300781 78.917969 403.460938 78.917969 C 414.617188 78.917969 423.664062 87.964844 423.664062 99.121094 Z M 221.203125 90.617188 "/>
</clipPath>
<clipPath id="clip28">
  <path d="M 344 133 L 545 133 L 545 282 L 344 282 Z M 344 133 "/>
</clipPath>
<clipPath id="clip29">
  <path d="M 332.808594 22.425781 L 555.261719 22.425781 L 555.261719 391.765625 L 332.808594 391.765625 Z M 332.808594 22.425781 L 421.351562 190.257812 C 421.351562 201.414062 412.304688 210.460938 401.148438 210.460938 C 389.992188 210.460938 380.945312 201.414062 380.945312 190.257812 C 380.945312 179.101562 389.992188 170.054688 401.148438 170.054688 C 412.304688 170.054688 421.351562 179.101562 421.351562 190.257812 Z M 332.808594 22.425781 "/>
</clipPath>
<clipPath id="clip30">
  <path d="M 332.808594 22.425781 L 555.261719 22.425781 L 555.261719 391.765625 L 332.808594 391.765625 Z M 332.808594 22.425781 L 507.121094 223.929688 C 507.121094 235.085938 498.078125 244.132812 486.917969 244.132812 C 475.761719 244.132812 466.714844 235.085938 466.714844 223.929688 C 466.714844 212.769531 475.761719 203.726562 486.917969 203.726562 C 498.078125 203.726562 507.121094 212.769531 507.121094 223.929688 Z M 332.808594 22.425781 "/>
</clipPath>
<clipPath id="clip31">
  <path d="M 381.242188 124 L 515.023438 124 L 515.023438 248 L 381.242188 248 Z M 381.242188 124 "/>
</clipPath>
<clipPath id="clip32">
  <path d="M 381.242188 2.464844 L 515.023438 2.464844 L 515.023438 369.546875 L 381.242188 369.546875 Z M 381.242188 2.464844 L 421.351562 190.257812 C 421.351562 201.414062 412.304688 210.460938 401.148438 210.460938 C 389.992188 210.460938 380.945312 201.414062 380.945312 190.257812 C 380.945312 179.101562 389.992188 170.054688 401.148438 170.054688 C 412.304688 170.054688 421.351562 179.101562 421.351562 190.257812 Z M 381.242188 2.464844 "/>
</clipPath>
<clipPath id="clip33">
  <path d="M 381.242188 2.464844 L 515.023438 2.464844 L 515.023438 369.546875 L 381.242188 369.546875 Z M 381.242188 2.464844 L 515.316406 181.75 C 515.316406 192.90625 506.273438 201.953125 495.113281 201.953125 C 483.957031 201.953125 474.910156 192.90625 474.910156 181.75 C 474.910156 170.59375 483.957031 161.546875 495.113281 161.546875 C 506.273438 161.546875 515.316406 170.59375 515.316406 181.75 Z M 381.242188 2.464844 "/>
</clipPath>
<clipPath id="clip34">
  <path d="M 344 133 L 516 133 L 516 362 L 344 362 Z M 344 133 "/>
</clipPath>
<clipPath id="clip35">
  <path d="M 239.714844 107.546875 L 619.632812 107.546875 L 619.632812 387.105469 L 239.714844 387.105469 Z M 239.714844 107.546875 L 421.351562 190.257812 C 421.351562 201.414062 412.304688 210.460938 401.148438 210.460938 C 389.992188 210.460938 380.945312 201.414062 380.945312 190.257812 C 380.945312 179.101562 389.992188 170.054688 401.148438 170.054688 C 412.304688 170.054688 421.351562 179.101562 421.351562 190.257812 Z M 239.714844 107.546875 "/>
</clipPath>
<clipPath id="clip36">
  <path d="M 239.714844 107.546875 L 619.632812 107.546875 L 619.632812 387.105469 L 239.714844 387.105469 Z M 239.714844 107.546875 L 478.398438 304.390625 C 478.398438 315.546875 469.355469 324.59375 458.195312 324.59375 C 447.039062 324.59375 437.992188 315.546875 437.992188 304.390625 C 437.992188 293.230469 447.039062 284.1875 458.195312 284.1875 C 469.355469 284.1875 478.398438 293.230469 478.398438 304.390625 Z M 239.714844 107.546875 "/>
</clipPath>
<clipPath id="clip37">
  <path d="M 289 460 L 453 460 L 453 600 L 289 600 Z M 289 460 "/>
</clipPath>
<clipPath id="clip38">
  <path d="M 230.269531 378.300781 L 510.945312 378.300781 L 510.945312 697.875 L 230.269531 697.875 Z M 230.269531 378.300781 L 366.527344 558.128906 C 366.527344 569.289062 357.484375 578.332031 346.324219 578.332031 C 335.167969 578.332031 326.121094 569.289062 326.121094 558.128906 C 326.121094 546.972656 335.167969 537.925781 346.324219 537.925781 C 357.484375 537.925781 366.527344 546.972656 366.527344 558.128906 Z M 230.269531 378.300781 "/>
</clipPath>
<clipPath id="clip39">
  <path d="M 230.269531 378.300781 L 510.945312 378.300781 L 510.945312 697.875 L 230.269531 697.875 Z M 230.269531 378.300781 L 415.089844 518.042969 C 415.089844 529.199219 406.046875 538.246094 394.886719 538.246094 C 383.730469 538.246094 374.683594 529.199219 374.683594 518.042969 C 374.683594 506.882812 383.730469 497.839844 394.886719 497.839844 C 406.046875 497.839844 415.089844 506.882812 415.089844 518.042969 Z M 230.269531 378.300781 "/>
</clipPath>
<clipPath id="clip40">
  <path d="M 337 383 L 516 383 L 516 576 L 337 576 Z M 337 383 "/>
</clipPath>
<clipPath id="clip41">
  <path d="M 254.273438 325.464844 L 598.535156 325.464844 L 598.535156 633.039062 L 254.273438 633.039062 Z M 254.273438 325.464844 L 415.089844 518.042969 C 415.089844 529.199219 406.046875 538.246094 394.886719 538.246094 C 383.730469 538.246094 374.683594 529.199219 374.683594 518.042969 C 374.683594 506.882812 383.730469 497.839844 394.886719 497.839844 C 406.046875 497.839844 415.089844 506.882812 415.089844 518.042969 Z M 254.273438 325.464844 "/>
</clipPath>
<clipPath id="clip42">
  <path d="M 254.273438 325.464844 L 598.535156 325.464844 L 598.535156 633.039062 L 254.273438 633.039062 Z M 254.273438 325.464844 L 478.121094 440.457031 C 478.121094 451.617188 469.078125 460.660156 457.917969 460.660156 C 446.761719 460.660156 437.71875 451.617188 437.71875 440.457031 C 437.71875 429.300781 446.761719 420.253906 457.917969 420.253906 C 469.078125 420.253906 478.121094 429.300781 478.121094 440.457031 Z M 254.273438 325.464844 "/>
</clipPath>
<clipPath id="clip43">
  <path d="M 400 383 L 567 383 L 567 532 L 400 532 Z M 400 383 "/>
</clipPath>
<clipPath id="clip44">
  <path d="M 357.078125 289.476562 L 609.933594 289.476562 L 609.933594 625.152344 L 357.078125 625.152344 Z M 357.078125 289.476562 L 478.121094 440.457031 C 478.121094 451.617188 469.078125 460.660156 457.917969 460.660156 C 446.761719 460.660156 437.71875 451.617188 437.71875 440.457031 C 437.71875 429.300781 446.761719 420.253906 457.917969 420.253906 C 469.078125 420.253906 478.121094 429.300781 478.121094 440.457031 Z M 357.078125 289.476562 "/>
</clipPath>
<clipPath id="clip45">
  <path d="M 357.078125 289.476562 L 609.933594 289.476562 L 609.933594 625.152344 L 357.078125 625.152344 Z M 357.078125 289.476562 L 529.292969 474.167969 C 529.292969 485.324219 520.246094 494.371094 509.089844 494.371094 C 497.929688 494.371094 488.886719 485.324219 488.886719 474.167969 C 488.886719 463.007812 497.929688 453.964844 509.089844 453.964844 C 520.246094 453.964844 529.292969 463.007812 529.292969 474.167969 Z M 357.078125 289.476562 "/>
</clipPath>
<clipPath id="clip46">
  <path d="M 400 299.992188 L 516 299.992188 L 516 444.859375 L 400 444.859375 Z M 400 299.992188 "/>
</clipPath>
<clipPath id="clip47">
  <path d="M 277.917969 299.992188 L 638.199219 299.992188 L 638.199219 444.859375 L 277.917969 444.859375 Z M 277.917969 299.992188 L 478.121094 440.457031 C 478.121094 451.617188 469.078125 460.660156 457.917969 460.660156 C 446.761719 460.660156 437.71875 451.617188 437.71875 440.457031 C 437.71875 429.300781 446.761719 420.253906 457.917969 420.253906 C 469.078125 420.253906 478.121094 429.300781 478.121094 440.457031 Z M 277.917969 299.992188 "/>
</clipPath>
<clipPath id="clip48">
  <path d="M 277.917969 299.992188 L 638.199219 299.992188 L 638.199219 444.859375 L 277.917969 444.859375 Z M 277.917969 299.992188 L 478.398438 304.390625 C 478.398438 315.546875 469.355469 324.59375 458.195312 324.59375 C 447.039062 324.59375 437.992188 315.546875 437.992188 304.390625 C 437.992188 293.230469 447.039062 284.1875 458.195312 284.1875 C 469.355469 284.1875 478.398438 293.230469 478.398438 304.390625 Z M 277.917969 299.992188 "/>
</clipPath>
<clipPath id="clip49">
  <path d="M 429 136 L 600 136 L 600 282 L 429 282 Z M 429 136 "/>
</clipPath>
<clipPath id="clip50">
  <path d="M 403.148438 32.847656 L 630.066406 32.847656 L 630.066406 384.835938 L 403.148438 384.835938 Z M 403.148438 32.847656 L 566.496094 193.75 C 566.496094 204.90625 557.453125 213.953125 546.292969 213.953125 C 535.136719 213.953125 526.089844 204.90625 526.089844 193.75 C 526.089844 182.589844 535.136719 173.546875 546.292969 173.546875 C 557.453125 173.546875 566.496094 182.589844 566.496094 193.75 Z M 403.148438 32.847656 "/>
</clipPath>
<clipPath id="clip51">
  <path d="M 403.148438 32.847656 L 630.066406 32.847656 L 630.066406 384.835938 L 403.148438 384.835938 Z M 403.148438 32.847656 L 507.121094 223.929688 C 507.121094 235.085938 498.078125 244.132812 486.917969 244.132812 C 475.761719 244.132812 466.714844 235.085938 466.714844 223.929688 C 466.714844 212.769531 475.761719 203.726562 486.917969 203.726562 C 498.078125 203.726562 507.121094 212.769531 507.121094 223.929688 Z M 403.148438 32.847656 "/>
</clipPath>
<clipPath id="clip52">
  <path d="M 450.90625 124 L 590.503906 124 L 590.503906 251 L 450.90625 251 Z M 450.90625 124 "/>
</clipPath>
<clipPath id="clip53">
  <path d="M 450.90625 6.394531 L 590.503906 6.394531 L 590.503906 369.109375 L 450.90625 369.109375 Z M 450.90625 6.394531 L 566.496094 193.75 C 566.496094 204.90625 557.453125 213.953125 546.292969 213.953125 C 535.136719 213.953125 526.089844 204.90625 526.089844 193.75 C 526.089844 182.589844 535.136719 173.546875 546.292969 173.546875 C 557.453125 173.546875 566.496094 182.589844 566.496094 193.75 Z M 450.90625 6.394531 "/>
</clipPath>
<clipPath id="clip54">
  <path d="M 450.90625 6.394531 L 590.503906 6.394531 L 590.503906 369.109375 L 450.90625 369.109375 Z M 450.90625 6.394531 L 515.316406 181.75 C 515.316406 192.90625 506.273438 201.953125 495.113281 201.953125 C 483.957031 201.953125 474.910156 192.90625 474.910156 181.75 C 474.910156 170.59375 483.957031 161.546875 495.113281 161.546875 C 506.273438 161.546875 515.316406 170.59375 515.316406 181.75 Z M 450.90625 6.394531 "/>
</clipPath>
<clipPath id="clip55">
  <path d="M 429 144.148438 L 553 144.148438 L 553 261.535156 L 429 261.535156 Z M 429 144.148438 "/>
</clipPath>
<clipPath id="clip56">
  <path d="M 310.148438 144.148438 L 671.886719 144.148438 L 671.886719 261.535156 L 310.148438 261.535156 Z M 310.148438 144.148438 L 507.121094 223.929688 C 507.121094 235.085938 498.078125 244.132812 486.917969 244.132812 C 475.761719 244.132812 466.714844 235.085938 466.714844 223.929688 C 466.714844 212.769531 475.761719 203.726562 486.917969 203.726562 C 498.078125 203.726562 507.121094 212.769531 507.121094 223.929688 Z M 310.148438 144.148438 "/>
</clipPath>
<clipPath id="clip57">
  <path d="M 310.148438 144.148438 L 671.886719 144.148438 L 671.886719 261.535156 L 310.148438 261.535156 Z M 310.148438 144.148438 L 515.316406 181.75 C 515.316406 192.90625 506.273438 201.953125 495.113281 201.953125 C 483.957031 201.953125 474.910156 192.90625 474.910156 181.75 C 474.910156 170.59375 483.957031 161.546875 495.113281 161.546875 C 506.273438 161.546875 515.316406 170.59375 515.316406 181.75 Z M 310.148438 144.148438 "/>
</clipPath>
<clipPath id="clip58">
  <path d="M 401 166 L 545 166 L 545 362 L 401 362 Z M 401 166 "/>
</clipPath>
<clipPath id="clip59">
  <path d="M 288.4375 160.734375 L 656.679688 160.734375 L 656.679688 367.589844 L 288.4375 367.589844 Z M 288.4375 160.734375 L 507.121094 223.929688 C 507.121094 235.085938 498.078125 244.132812 486.917969 244.132812 C 475.761719 244.132812 466.714844 235.085938 466.714844 223.929688 C 466.714844 212.769531 475.761719 203.726562 486.917969 203.726562 C 498.078125 203.726562 507.121094 212.769531 507.121094 223.929688 Z M 288.4375 160.734375 "/>
</clipPath>
<clipPath id="clip60">
  <path d="M 288.4375 160.734375 L 656.679688 160.734375 L 656.679688 367.589844 L 288.4375 367.589844 Z M 288.4375 160.734375 L 478.398438 304.390625 C 478.398438 315.546875 469.355469 324.59375 458.195312 324.59375 C 447.039062 324.59375 437.992188 315.546875 437.992188 304.390625 C 437.992188 293.230469 447.039062 284.1875 458.195312 284.1875 C 469.355469 284.1875 478.398438 293.230469 478.398438 304.390625 Z M 288.4375 160.734375 "/>
</clipPath>
</defs>
<g id="surface396">
<g clip-path="url(#clip1)" clip-rule="nonzero">
<g clip-path="url(#clip2)" clip-rule="evenodd">
<g clip-path="url(#clip3)" clip-rule="evenodd">
<path style="fill:none;stroke-width:0.022963;stroke-linecap:butt;stroke-linejoin:miter;stroke:rgb(17.96875%,20.3125%,21.09375%);stroke-opacity:0.8;stroke-miterlimit:10;" d="M 0.264778 1.601112 L 0.425213 1.995773 " transform="matrix(175.962097,0,0,175.962097,13.659162,12.409515)"/>
</g>
</g>
</g>
<g clip-path="url(#clip4)" clip-rule="nonzero">
<g clip-path="url(#clip5)" clip-rule="evenodd">
<g clip-path="url(#clip6)" clip-rule="evenodd">
<path style="fill:none;stroke-width:0.022963;stroke-linecap:butt;stroke-linejoin:miter;stroke:rgb(17.96875%,20.3125%,21.09375%);stroke-opacity:0.8;stroke-miterlimit:10;" d="M 0.264778 1.601112 L 0.227594 1.262571 " transform="matrix(175.962097,0,0,175.962097,13.659162,12.409515)"/>
</g>
</g>
</g>
<g clip-path="url(#clip7)" clip-rule="nonzero">
<g clip-path="url(#clip8)" clip-rule="evenodd">
<g clip-path="url(#clip9)" clip-rule="evenodd">
<path style="fill:none;stroke-width:0.022963;stroke-linecap:butt;stroke-linejoin:miter;stroke:rgb(17.96875%,20.3125%,21.09375%);stroke-opacity:0.8;stroke-miterlimit:10;" d="M 0.758581 2.150347 L 0.425213 1.995773 " transform="matrix(175.962097,0,0,175.962097,13.659162,12.409515)"/>
</g>
</g>
</g>
<g clip-path="url(#clip10)" clip-rule="nonzero">
<g clip-path="url(#clip11)" clip-rule="evenodd">
<g clip-path="url(#clip12)" clip-rule="evenodd">
<path style="fill:none;stroke-width:0.022963;stroke-linecap:butt;stroke-linejoin:miter;stroke:rgb(17.96875%,20.3125%,21.09375%);stroke-opacity:0.8;stroke-miterlimit:10;" d="M 0.758581 2.150347 L 1.135504 1.889304 " transform="matrix(175.962097,0,0,175.962097,13.659162,12.409515)"/>
</g>
</g>
</g>
<g clip-path="url(#clip13)" clip-rule="nonzero">
<g clip-path="url(#clip14)" clip-rule="evenodd">
<g clip-path="url(#clip15)" clip-rule="evenodd">
<path style="fill:none;stroke-width:0.022963;stroke-linecap:butt;stroke-linejoin:miter;stroke:rgb(17.96875%,20.3125%,21.09375%);stroke-opacity:0.8;stroke-miterlimit:10;" d="M 1.655325 0.438885 L 2.202118 1.010719 " transform="matrix(175.962097,0,0,175.962097,13.659162,12.409515)"/>
</g>
</g>
</g>
<g clip-path="url(#clip16)" clip-rule="nonzero">
<g clip-path="url(#clip17)" clip-rule="evenodd">
<g clip-path="url(#clip18)" clip-rule="evenodd">
<path style="fill:none;stroke-width:0.022963;stroke-linecap:butt;stroke-linejoin:miter;stroke:rgb(17.96875%,20.3125%,21.09375%);stroke-opacity:0.8;stroke-miterlimit:10;" d="M 1.655325 0.438885 L 1.35348 0.167431 " transform="matrix(175.962097,0,0,175.962097,13.659162,12.409515)"/>
</g>
</g>
</g>
<g clip-path="url(#clip19)" clip-rule="nonzero">
<g clip-path="url(#clip20)" clip-rule="evenodd">
<g clip-path="url(#clip21)" clip-rule="evenodd">
<path style="fill:none;stroke-width:0.022963;stroke-linecap:butt;stroke-linejoin:miter;stroke:rgb(17.96875%,20.3125%,21.09375%);stroke-opacity:0.8;stroke-miterlimit:10;" d="M 1.5604 1.451022 L 1.135504 1.889304 " transform="matrix(175.962097,0,0,175.962097,13.659162,12.409515)"/>
</g>
</g>
</g>
<g clip-path="url(#clip22)" clip-rule="nonzero">
<g clip-path="url(#clip23)" clip-rule="evenodd">
<g clip-path="url(#clip24)" clip-rule="evenodd">
<path style="fill:none;stroke-width:0.022963;stroke-linecap:butt;stroke-linejoin:miter;stroke:rgb(17.96875%,20.3125%,21.09375%);stroke-opacity:0.8;stroke-miterlimit:10;" d="M 1.5604 1.451022 L 2.202118 1.010719 " transform="matrix(175.962097,0,0,175.962097,13.659162,12.409515)"/>
</g>
</g>
</g>
<g clip-path="url(#clip25)" clip-rule="nonzero">
<g clip-path="url(#clip26)" clip-rule="evenodd">
<g clip-path="url(#clip27)" clip-rule="evenodd">
<path style="fill:none;stroke-width:0.022963;stroke-linecap:butt;stroke-linejoin:miter;stroke:rgb(17.96875%,20.3125%,21.09375%);stroke-opacity:0.8;stroke-miterlimit:10;" d="M 2.202118 1.010719 L 2.21526 0.492786 " transform="matrix(175.962097,0,0,175.962097,13.659162,12.409515)"/>
</g>
</g>
</g>
<g clip-path="url(#clip28)" clip-rule="nonzero">
<g clip-path="url(#clip29)" clip-rule="evenodd">
<g clip-path="url(#clip30)" clip-rule="evenodd">
<path style="fill:none;stroke-width:0.022963;stroke-linecap:butt;stroke-linejoin:miter;stroke:rgb(17.96875%,20.3125%,21.09375%);stroke-opacity:0.8;stroke-miterlimit:10;" d="M 2.202118 1.010719 L 2.68955 1.202078 " transform="matrix(175.962097,0,0,175.962097,13.659162,12.409515)"/>
</g>
</g>
</g>
<g clip-path="url(#clip31)" clip-rule="nonzero">
<g clip-path="url(#clip32)" clip-rule="evenodd">
<g clip-path="url(#clip33)" clip-rule="evenodd">
<path style="fill:none;stroke-width:0.022963;stroke-linecap:butt;stroke-linejoin:miter;stroke:rgb(17.96875%,20.3125%,21.09375%);stroke-opacity:0.8;stroke-miterlimit:10;" d="M 2.202118 1.010719 L 2.736124 0.962369 " transform="matrix(175.962097,0,0,175.962097,13.659162,12.409515)"/>
</g>
</g>
</g>
<g clip-path="url(#clip34)" clip-rule="nonzero">
<g clip-path="url(#clip35)" clip-rule="evenodd">
<g clip-path="url(#clip36)" clip-rule="evenodd">
<path style="fill:none;stroke-width:0.022963;stroke-linecap:butt;stroke-linejoin:miter;stroke:rgb(17.96875%,20.3125%,21.09375%);stroke-opacity:0.8;stroke-miterlimit:10;" d="M 2.202118 1.010719 L 2.526318 1.659341 " transform="matrix(175.962097,0,0,175.962097,13.659162,12.409515)"/>
</g>
</g>
</g>
<g clip-path="url(#clip37)" clip-rule="nonzero">
<g clip-path="url(#clip38)" clip-rule="evenodd">
<g clip-path="url(#clip39)" clip-rule="evenodd">
<path style="fill:none;stroke-width:0.022963;stroke-linecap:butt;stroke-linejoin:miter;stroke:rgb(17.96875%,20.3125%,21.09375%);stroke-opacity:0.8;stroke-miterlimit:10;" d="M 1.89055 3.101346 L 2.166532 2.873536 " transform="matrix(175.962097,0,0,175.962097,13.659162,12.409515)"/>
</g>
</g>
</g>
<g clip-path="url(#clip40)" clip-rule="nonzero">
<g clip-path="url(#clip41)" clip-rule="evenodd">
<g clip-path="url(#clip42)" clip-rule="evenodd">
<path style="fill:none;stroke-width:0.022963;stroke-linecap:butt;stroke-linejoin:miter;stroke:rgb(17.96875%,20.3125%,21.09375%);stroke-opacity:0.8;stroke-miterlimit:10;" d="M 2.166532 2.873536 L 2.524741 2.432612 " transform="matrix(175.962097,0,0,175.962097,13.659162,12.409515)"/>
</g>
</g>
</g>
<g clip-path="url(#clip43)" clip-rule="nonzero">
<g clip-path="url(#clip44)" clip-rule="evenodd">
<g clip-path="url(#clip45)" clip-rule="evenodd">
<path style="fill:none;stroke-width:0.022963;stroke-linecap:butt;stroke-linejoin:miter;stroke:rgb(17.96875%,20.3125%,21.09375%);stroke-opacity:0.8;stroke-miterlimit:10;" d="M 2.524741 2.432612 L 2.815553 2.624193 " transform="matrix(175.962097,0,0,175.962097,13.659162,12.409515)"/>
</g>
</g>
</g>
<g clip-path="url(#clip46)" clip-rule="nonzero">
<g clip-path="url(#clip47)" clip-rule="evenodd">
<g clip-path="url(#clip48)" clip-rule="evenodd">
<path style="fill:none;stroke-width:0.022963;stroke-linecap:butt;stroke-linejoin:miter;stroke:rgb(17.96875%,20.3125%,21.09375%);stroke-opacity:0.8;stroke-miterlimit:10;" d="M 2.524741 2.432612 L 2.526318 1.659341 " transform="matrix(175.962097,0,0,175.962097,13.659162,12.409515)"/>
</g>
</g>
</g>
<g clip-path="url(#clip49)" clip-rule="nonzero">
<g clip-path="url(#clip50)" clip-rule="evenodd">
<g clip-path="url(#clip51)" clip-rule="evenodd">
<path style="fill:none;stroke-width:0.022963;stroke-linecap:butt;stroke-linejoin:miter;stroke:rgb(17.96875%,20.3125%,21.09375%);stroke-opacity:0.8;stroke-miterlimit:10;" d="M 3.02698 1.030566 L 2.68955 1.202078 " transform="matrix(175.962097,0,0,175.962097,13.659162,12.409515)"/>
</g>
</g>
</g>
<g clip-path="url(#clip52)" clip-rule="nonzero">
<g clip-path="url(#clip53)" clip-rule="evenodd">
<g clip-path="url(#clip54)" clip-rule="evenodd">
<path style="fill:none;stroke-width:0.022963;stroke-linecap:butt;stroke-linejoin:miter;stroke:rgb(17.96875%,20.3125%,21.09375%);stroke-opacity:0.8;stroke-miterlimit:10;" d="M 3.02698 1.030566 L 2.736124 0.962369 " transform="matrix(175.962097,0,0,175.962097,13.659162,12.409515)"/>
</g>
</g>
</g>
<g clip-path="url(#clip55)" clip-rule="nonzero">
<g clip-path="url(#clip56)" clip-rule="evenodd">
<g clip-path="url(#clip57)" clip-rule="evenodd">
<path style="fill:none;stroke-width:0.022963;stroke-linecap:butt;stroke-linejoin:miter;stroke:rgb(17.96875%,20.3125%,21.09375%);stroke-opacity:0.8;stroke-miterlimit:10;" d="M 2.68955 1.202078 L 2.736124 0.962369 " transform="matrix(175.962097,0,0,175.962097,13.659162,12.409515)"/>
</g>
</g>
</g>
<g clip-path="url(#clip58)" clip-rule="nonzero">
<g clip-path="url(#clip59)" clip-rule="evenodd">
<g clip-path="url(#clip60)" clip-rule="evenodd">
<path style="fill:none;stroke-width:0.022963;stroke-linecap:butt;stroke-linejoin:miter;stroke:rgb(17.96875%,20.3125%,21.09375%);stroke-opacity:0.8;stroke-miterlimit:10;" d="M 2.68955 1.202078 L 2.526318 1.659341 " transform="matrix(175.962097,0,0,175.962097,13.659162,12.409515)"/>
</g>
</g>
</g>
<path style="fill-rule:nonzero;fill:rgb(100%,92.941176%,43.529412%);fill-opacity:1;stroke-width:0.022963;stroke-linecap:butt;stroke-linejoin:miter;stroke:rgb(60%,60%,60%);stroke-opacity:0.8;stroke-miterlimit:10;" d="M 0.114805 -0.00000800903 C 0.114805 0.0634156 0.0634134 0.114807 -0.000010275 0.114807 C -0.0634117 0.114807 -0.114825 0.0634156 -0.114825 -0.00000800903 C -0.114825 -0.0634094 -0.0634117 -0.114823 -0.000010275 -0.114823 C 0.0634134 -0.114823 0.114805 -0.0634094 0.114805 -0.00000800903 Z M 0.114805 -0.00000800903 " transform="matrix(175.962097,0,0,175.962097,60.251808,294.145941)"/>
<path style="fill-rule:nonzero;fill:rgb(100%,92.941176%,43.529412%);fill-opacity:1;stroke-width:0.022963;stroke-linecap:butt;stroke-linejoin:miter;stroke:rgb(60%,60%,60%);stroke-opacity:0.8;stroke-miterlimit:10;" d="M 0.114818 0.00000119746 C 0.114818 0.0634026 0.0634046 0.114816 0.00000314944 0.114816 C -0.0634205 0.114816 -0.114812 0.0634026 -0.114812 0.00000119746 C -0.114812 -0.0634002 -0.0634205 -0.114814 0.00000314944 -0.114814 C 0.0634046 -0.114814 0.114818 -0.0634002 0.114818 0.00000119746 Z M 0.114818 0.00000119746 " transform="matrix(175.962097,0,0,175.962097,147.140071,390.788852)"/>
<path style="fill-rule:nonzero;fill:rgb(100%,92.941176%,43.529412%);fill-opacity:1;stroke-width:0.022963;stroke-linecap:butt;stroke-linejoin:miter;stroke:rgb(60%,60%,60%);stroke-opacity:0.8;stroke-miterlimit:10;" d="M 0.114821 -0.000006313 C 0.114821 0.0634173 0.0634072 0.114809 0.00000580911 0.114809 C -0.0634178 0.114809 -0.114809 0.0634173 -0.114809 -0.000006313 C -0.114809 -0.0634078 -0.0634178 -0.114822 0.00000580911 -0.114822 C 0.0634072 -0.114822 0.114821 -0.0634078 0.114821 -0.000006313 Z M 0.114821 -0.000006313 " transform="matrix(175.962097,0,0,175.962097,88.479447,363.590955)"/>
<path style="fill-rule:nonzero;fill:rgb(100%,92.941176%,43.529412%);fill-opacity:1;stroke-width:0.022963;stroke-linecap:butt;stroke-linejoin:miter;stroke:rgb(60%,60%,60%);stroke-opacity:0.8;stroke-miterlimit:10;" d="M 0.114824 0.00000651693 C 0.114824 0.063408 0.0634103 0.114822 0.00000889441 0.114822 C -0.0634147 0.114822 -0.114806 0.063408 -0.114806 0.00000651693 C -0.114806 -0.0634171 -0.0634147 -0.114809 0.00000889441 -0.114809 C 0.0634103 -0.114809 0.114824 -0.0634171 0.114824 0.00000651693 Z M 0.114824 0.00000651693 " transform="matrix(175.962097,0,0,175.962097,53.705466,234.573072)"/>
<path style="fill-rule:nonzero;fill:rgb(100%,92.941176%,43.529412%);fill-opacity:1;stroke-width:0.022963;stroke-linecap:butt;stroke-linejoin:miter;stroke:rgb(60%,60%,60%);stroke-opacity:0.8;stroke-miterlimit:10;" d="M 0.114813 -0.00000368671 C 0.114813 0.06342 0.063421 0.114812 -0.00000264623 0.114812 C -0.0634041 0.114812 -0.114818 0.06342 -0.114818 -0.00000368671 C -0.114818 -0.0634051 -0.0634041 -0.114819 -0.00000264623 -0.114819 C 0.063421 -0.114819 0.114813 -0.0634051 0.114813 -0.00000368671 Z M 0.114813 -0.00000368671 " transform="matrix(175.962097,0,0,175.962097,304.934059,89.637367)"/>
<path style="fill-rule:nonzero;fill:rgb(100%,92.941176%,43.529412%);fill-opacity:1;stroke-width:0.022963;stroke-linecap:butt;stroke-linejoin:miter;stroke:rgb(60%,60%,60%);stroke-opacity:0.8;stroke-miterlimit:10;" d="M 0.114805 0.000000809664 C 0.114805 0.0634022 0.0634139 0.114816 -0.00000976321 0.114816 C -0.0634112 0.114816 -0.114825 0.0634022 -0.114825 0.000000809664 C -0.114825 -0.0634006 -0.0634112 -0.114814 -0.00000976321 -0.114814 C 0.0634139 -0.114814 0.114805 -0.0634006 0.114805 0.000000809664 Z M 0.114805 0.000000809664 " transform="matrix(175.962097,0,0,175.962097,288.232187,267.734233)"/>
<path style="fill-rule:nonzero;fill:rgb(100%,92.941176%,43.529412%);fill-opacity:1;stroke-width:0.022963;stroke-linecap:butt;stroke-linejoin:miter;stroke:rgb(60%,60%,60%);stroke-opacity:0.8;stroke-miterlimit:10;" d="M 0.114824 -0.00000854661 C 0.114824 0.0634151 0.06341 0.114807 0.00000860237 0.114807 C -0.063415 0.114807 -0.114807 0.0634151 -0.114807 -0.00000854661 C -0.114807 -0.06341 -0.063415 -0.114824 0.00000860237 -0.114824 C 0.06341 -0.114824 0.114824 -0.06341 0.114824 -0.00000854661 Z M 0.114824 -0.00000854661 " transform="matrix(175.962097,0,0,175.962097,213.46333,344.856973)"/>
<path style="fill-rule:nonzero;fill:rgb(100%,92.941176%,43.529412%);fill-opacity:1;stroke-width:0.022963;stroke-linecap:butt;stroke-linejoin:miter;stroke:rgb(60%,60%,60%);stroke-opacity:0.8;stroke-miterlimit:10;" d="M 0.114816 0.000000575429 C 0.114816 0.063402 0.0634026 0.114816 0.00000111238 0.114816 C -0.0634003 0.114816 -0.114814 0.063402 -0.114814 0.000000575429 C -0.114814 -0.0634009 -0.0634003 -0.114815 0.00000111238 -0.114815 C 0.0634026 -0.114815 0.114816 -0.0634009 0.114816 0.000000575429 Z M 0.114816 0.000000575429 " transform="matrix(175.962097,0,0,175.962097,401.148242,190.257711)"/>
<path style="fill-rule:nonzero;fill:rgb(100%,92.941176%,43.529412%);fill-opacity:1;stroke-width:0.022963;stroke-linecap:butt;stroke-linejoin:miter;stroke:rgb(60%,60%,60%);stroke-opacity:0.8;stroke-miterlimit:10;" d="M 0.114809 0.000005888 C 0.114809 0.0634073 0.0634171 0.114821 -0.00000653351 0.114821 C -0.063408 0.114821 -0.114822 0.0634073 -0.114822 0.000005888 C -0.114822 -0.0634177 -0.063408 -0.114809 -0.00000653351 -0.114809 C 0.0634171 -0.114809 0.114809 -0.0634177 0.114809 0.000005888 Z M 0.114809 0.000005888 " transform="matrix(175.962097,0,0,175.962097,251.821462,41.870058)"/>
<path style="fill-rule:nonzero;fill:rgb(100%,92.941176%,43.529412%);fill-opacity:1;stroke-width:0.022963;stroke-linecap:butt;stroke-linejoin:miter;stroke:rgb(60%,60%,60%);stroke-opacity:0.8;stroke-miterlimit:10;" d="M 0.114824 -0.0000103265 C 0.114824 0.0634133 0.0634102 0.114805 0.00000874924 0.114805 C -0.0634149 0.114805 -0.114806 0.0634133 -0.114806 -0.0000103265 C -0.114806 -0.0634118 -0.0634149 -0.114826 0.00000874924 -0.114826 C 0.0634102 -0.114826 0.114824 -0.0634118 0.114824 -0.0000103265 Z M 0.114824 -0.0000103265 " transform="matrix(175.962097,0,0,175.962097,403.459398,99.122911)"/>
<path style="fill-rule:nonzero;fill:rgb(100%,92.941176%,43.529412%);fill-opacity:1;stroke-width:0.022963;stroke-linecap:butt;stroke-linejoin:miter;stroke:rgb(60%,60%,60%);stroke-opacity:0.8;stroke-miterlimit:10;" d="M 0.114812 -0.000005888 C 0.114812 0.0634177 0.0634206 0.114809 -0.00000302991 0.114809 C -0.0634045 0.114809 -0.114818 0.0634177 -0.114818 -0.000005888 C -0.114818 -0.0634073 -0.0634045 -0.114821 -0.00000302991 -0.114821 C 0.0634206 -0.114821 0.114812 -0.0634073 0.114812 -0.000005888 Z M 0.114812 -0.000005888 " transform="matrix(175.962097,0,0,175.962097,346.324752,558.129942)"/>
<path style="fill-rule:nonzero;fill:rgb(100%,92.941176%,43.529412%);fill-opacity:1;stroke-width:0.022963;stroke-linecap:butt;stroke-linejoin:miter;stroke:rgb(60%,60%,60%);stroke-opacity:0.8;stroke-miterlimit:10;" d="M 0.11481 0.0000040961 C 0.11481 0.0634055 0.0634185 0.114819 -0.00000508977 0.114819 C -0.0634065 0.114819 -0.11482 0.0634055 -0.11482 0.0000040961 C -0.11482 -0.0634195 -0.0634065 -0.114811 -0.00000508977 -0.114811 C 0.0634185 -0.114811 0.11481 -0.0634195 0.11481 0.0000040961 Z M 0.11481 0.0000040961 " transform="matrix(175.962097,0,0,175.962097,394.887614,518.042248)"/>
<path style="fill-rule:nonzero;fill:rgb(100%,92.941176%,43.529412%);fill-opacity:1;stroke-width:0.022963;stroke-linecap:butt;stroke-linejoin:miter;stroke:rgb(60%,60%,60%);stroke-opacity:0.8;stroke-miterlimit:10;" d="M 0.114804 -0.00000729505 C 0.114804 0.0634163 0.0634128 0.114808 -0.0000108205 0.114808 C -0.0634123 0.114808 -0.114804 0.0634163 -0.114804 -0.00000729505 C -0.114804 -0.0634087 -0.0634123 -0.114823 -0.0000108205 -0.114823 C 0.0634128 -0.114823 0.114804 -0.0634087 0.114804 -0.00000729505 Z M 0.114804 -0.00000729505 " transform="matrix(175.962097,0,0,175.962097,457.919873,440.458315)"/>
<path style="fill-rule:nonzero;fill:rgb(100%,92.941176%,43.529412%);fill-opacity:1;stroke-width:0.022963;stroke-linecap:butt;stroke-linejoin:miter;stroke:rgb(60%,60%,60%);stroke-opacity:0.8;stroke-miterlimit:10;" d="M 0.114825 0.0000073755 C 0.114825 0.0634088 0.0634113 0.114823 0.0000098468 0.114823 C -0.0634138 0.114823 -0.114805 0.0634088 -0.114805 0.0000073755 C -0.114805 -0.0634163 -0.0634138 -0.114808 0.0000098468 -0.114808 C 0.0634113 -0.114808 0.114825 -0.0634163 0.114825 0.0000073755 Z M 0.114825 0.0000073755 " transform="matrix(175.962097,0,0,175.962097,509.088111,474.166671)"/>
<path style="fill-rule:nonzero;fill:rgb(55.294118%,82.745098%,78.039216%);fill-opacity:1;stroke-width:0.022963;stroke-linecap:butt;stroke-linejoin:miter;stroke:rgb(60%,60%,60%);stroke-opacity:0.8;stroke-miterlimit:10;" d="M 0.114806 0.00000531693 C 0.114806 0.0634068 0.0634147 0.114821 -0.00000889441 0.114821 C -0.0634103 0.114821 -0.114824 0.0634068 -0.114824 0.00000531693 C -0.114824 -0.0634183 -0.0634103 -0.11481 -0.00000889441 -0.11481 C 0.0634147 -0.11481 0.114806 -0.0634183 0.114806 0.00000531693 Z M 0.114806 0.00000531693 " transform="matrix(175.962097,0,0,175.962097,546.294534,193.749064)"/>
<path style="fill-rule:nonzero;fill:rgb(100%,92.941176%,43.529412%);fill-opacity:1;stroke-width:0.022963;stroke-linecap:butt;stroke-linejoin:miter;stroke:rgb(60%,60%,60%);stroke-opacity:0.8;stroke-miterlimit:10;" d="M 0.114806 0.0000021014 C 0.114806 0.0634035 0.0634146 0.114817 -0.0000090552 0.114817 C -0.0634105 0.114817 -0.114824 0.0634035 -0.114824 0.0000021014 C -0.114824 -0.0634215 -0.0634105 -0.114813 -0.0000090552 -0.114813 C 0.0634146 -0.114813 0.114806 -0.0634215 0.114806 0.0000021014 Z M 0.114806 0.0000021014 " transform="matrix(175.962097,0,0,175.962097,486.919562,223.929318)"/>
<path style="fill-rule:nonzero;fill:rgb(55.294118%,82.745098%,78.039216%);fill-opacity:1;stroke-width:0.022963;stroke-linecap:butt;stroke-linejoin:miter;stroke:rgb(60%,60%,60%);stroke-opacity:0.8;stroke-miterlimit:10;" d="M 0.11481 -0.000000899332 C 0.11481 0.0634005 0.063418 0.114814 -0.0000056145 0.114814 C -0.0634071 0.114814 -0.114821 0.0634005 -0.114821 -0.000000899332 C -0.114821 -0.0634023 -0.0634071 -0.114816 -0.0000056145 -0.114816 C 0.063418 -0.114816 0.11481 -0.0634023 0.11481 -0.000000899332 Z M 0.11481 -0.000000899332 " transform="matrix(175.962097,0,0,175.962097,495.114269,181.750158)"/>
<path style="fill-rule:nonzero;fill:rgb(100%,92.941176%,43.529412%);fill-opacity:1;stroke-width:0.022963;stroke-linecap:butt;stroke-linejoin:miter;stroke:rgb(60%,60%,60%);stroke-opacity:0.8;stroke-miterlimit:10;" d="M 0.114808 0.00000605761 C 0.114808 0.0634075 0.0634166 0.114821 -0.0000069895 0.114821 C -0.0634084 0.114821 -0.114822 0.0634075 -0.114822 0.00000605761 C -0.114822 -0.0634176 -0.0634084 -0.114809 -0.0000069895 -0.114809 C 0.0634166 -0.114809 0.114808 -0.0634176 0.114808 0.00000605761 Z M 0.114808 0.00000605761 " transform="matrix(175.962097,0,0,175.962097,458.196542,304.389559)"/>
</g>
</svg>
