<?xml version="1.0" encoding="UTF-8"?>
<svg xmlns="http://www.w3.org/2000/svg" xmlns:xlink="http://www.w3.org/1999/xlink" width="600pt" height="600pt" viewBox="0 0 600 600" version="1.1">
<defs>
<clipPath id="clip1">
  <path d="M 426 72.828125 L 553 72.828125 L 553 182.839844 L 426 182.839844 Z M 426 72.828125 "/>
</clipPath>
<clipPath id="clip2">
  <path d="M 269.726562 72.828125 L 708.992188 72.828125 L 708.992188 182.839844 L 269.726562 182.839844 Z M 269.726562 72.828125 L 508.53125 165.921875 C 508.53125 177.757812 498.933594 187.351562 487.101562 187.351562 C 475.265625 187.351562 465.671875 177.757812 465.671875 165.921875 C 465.671875 154.085938 475.265625 144.492188 487.101562 144.492188 C 498.933594 144.492188 508.53125 154.085938 508.53125 165.921875 Z M 269.726562 72.828125 "/>
</clipPath>
<clipPath id="clip3">
  <path d="M 269.726562 72.828125 L 708.992188 72.828125 L 708.992188 182.839844 L 269.726562 182.839844 Z M 269.726562 72.828125 L 513.046875 89.746094 C 513.046875 101.578125 503.453125 111.171875 491.617188 111.171875 C 479.78125 111.171875 470.1875 101.578125 470.1875 89.746094 C 470.1875 77.910156 479.78125 68.316406 491.617188 68.316406 C 503.453125 68.316406 513.046875 77.910156 513.046875 89.746094 Z M 269.726562 72.828125 "/>
</clipPath>
<clipPath id="clip4">
  <path d="M 400 117.328125 L 548 117.328125 L 548 336.773438 L 400 336.773438 Z M 400 117.328125 "/>
</clipPath>
<clipPath id="clip5">
  <path d="M 248.058594 117.328125 L 700.203125 117.328125 L 700.203125 336.773438 L 248.058594 336.773438 Z M 248.058594 117.328125 L 508.53125 165.921875 C 508.53125 177.757812 498.933594 187.351562 487.101562 187.351562 C 475.265625 187.351562 465.671875 177.757812 465.671875 165.921875 C 465.671875 154.085938 475.265625 144.492188 487.101562 144.492188 C 498.933594 144.492188 508.53125 154.085938 508.53125 165.921875 Z M 248.058594 117.328125 "/>
</clipPath>
<clipPath id="clip6">
  <path d="M 248.058594 117.328125 L 700.203125 117.328125 L 700.203125 336.773438 L 248.058594 336.773438 Z M 248.058594 117.328125 L 482.585938 288.179688 C 482.585938 300.011719 472.992188 309.605469 461.160156 309.605469 C 449.324219 309.605469 439.730469 300.011719 439.730469 288.179688 C 439.730469 276.34375 449.324219 266.75 461.160156 266.75 C 472.992188 266.75 482.585938 276.34375 482.585938 288.179688 Z M 248.058594 117.328125 "/>
</clipPath>
<clipPath id="clip7">
  <path d="M 292 227 L 522 227 L 522 434 L 292 434 Z M 292 227 "/>
</clipPath>
<clipPath id="clip8">
  <path d="M 217.066406 116.195312 L 597.523438 116.195312 L 597.523438 545.011719 L 217.066406 545.011719 Z M 217.066406 116.195312 L 482.585938 288.179688 C 482.585938 300.011719 472.992188 309.605469 461.160156 309.605469 C 449.324219 309.605469 439.730469 300.011719 439.730469 288.179688 C 439.730469 276.34375 449.324219 266.75 461.160156 266.75 C 472.992188 266.75 482.585938 276.34375 482.585938 288.179688 Z M 217.066406 116.195312 "/>
</clipPath>
<clipPath id="clip9">
  <path d="M 217.066406 116.195312 L 597.523438 116.195312 L 597.523438 545.011719 L 217.066406 545.011719 Z M 217.066406 116.195312 L 374.859375 373.027344 C 374.859375 384.863281 365.261719 394.457031 353.429688 394.457031 C 341.59375 394.457031 332 384.863281 332 373.027344 C 332 361.191406 341.59375 351.597656 353.429688 351.597656 C 365.261719 351.597656 374.859375 361.191406 374.859375 373.027344 Z M 217.066406 116.195312 "/>
</clipPath>
<clipPath id="clip10">
  <path d="M 400 227 L 588 227 L 588 411 L 400 411 Z M 400 227 "/>
</clipPath>
<clipPath id="clip11">
  <path d="M 309.992188 129 L 677.75 129 L 677.75 509.398438 L 309.992188 509.398438 Z M 309.992188 129 L 482.585938 288.179688 C 482.585938 300.011719 472.992188 309.605469 461.160156 309.605469 C 449.324219 309.605469 439.730469 300.011719 439.730469 288.179688 C 439.730469 276.34375 449.324219 266.75 461.160156 266.75 C 472.992188 266.75 482.585938 276.34375 482.585938 288.179688 Z M 309.992188 129 "/>
</clipPath>
<clipPath id="clip12">
  <path d="M 309.992188 129 L 677.75 129 L 677.75 509.398438 L 309.992188 509.398438 Z M 309.992188 129 L 548.011719 350.21875 C 548.011719 362.054688 538.417969 371.648438 526.582031 371.648438 C 514.746094 371.648438 505.152344 362.054688 505.152344 350.21875 C 505.152344 338.386719 514.746094 328.792969 526.582031 328.792969 C 538.417969 328.792969 548.011719 338.386719 548.011719 350.21875 Z M 309.992188 129 "/>
</clipPath>
<clipPath id="clip13">
  <path d="M 7 434 L 191 434 L 191 585 L 7 585 Z M 7 434 "/>
</clipPath>
<clipPath id="clip14">
  <path d="M -27.175781 297.980469 L 225.46875 297.980469 L 225.46875 721.308594 L -27.175781 721.308594 Z M -27.175781 297.980469 L 151.152344 495.144531 C 151.152344 506.980469 141.558594 516.574219 129.726562 516.574219 C 117.890625 516.574219 108.296875 506.980469 108.296875 495.144531 C 108.296875 483.308594 117.890625 473.714844 129.726562 473.714844 C 141.558594 473.714844 151.152344 483.308594 151.152344 495.144531 Z M -27.175781 297.980469 "/>
</clipPath>
<clipPath id="clip15">
  <path d="M -27.175781 297.980469 L 225.46875 297.980469 L 225.46875 721.308594 L -27.175781 721.308594 Z M -27.175781 297.980469 L 89.996094 524.144531 C 89.996094 535.976562 80.398438 545.570312 68.566406 545.570312 C 56.730469 545.570312 47.136719 535.976562 47.136719 524.144531 C 47.136719 512.308594 56.730469 502.714844 68.566406 502.714844 C 80.398438 502.714844 89.996094 512.308594 89.996094 524.144531 Z M -27.175781 297.980469 "/>
</clipPath>
<clipPath id="clip16">
  <path d="M 69 368 L 285 368 L 285 556 L 69 556 Z M 69 368 "/>
</clipPath>
<clipPath id="clip17">
  <path d="M 2.585938 249.925781 L 351.167969 249.925781 L 351.167969 673.996094 L 2.585938 673.996094 Z M 2.585938 249.925781 L 151.152344 495.144531 C 151.152344 506.980469 141.558594 516.574219 129.726562 516.574219 C 117.890625 516.574219 108.296875 506.980469 108.296875 495.144531 C 108.296875 483.308594 117.890625 473.714844 129.726562 473.714844 C 141.558594 473.714844 151.152344 483.308594 151.152344 495.144531 Z M 2.585938 249.925781 "/>
</clipPath>
<clipPath id="clip18">
  <path d="M 2.585938 249.925781 L 351.167969 249.925781 L 351.167969 673.996094 L 2.585938 673.996094 Z M 2.585938 249.925781 L 245.457031 428.777344 C 245.457031 440.613281 235.863281 450.207031 224.027344 450.207031 C 212.195312 450.207031 202.601562 440.613281 202.601562 428.777344 C 202.601562 416.945312 212.195312 407.351562 224.027344 407.351562 C 235.863281 407.351562 245.457031 416.945312 245.457031 428.777344 Z M 2.585938 249.925781 "/>
</clipPath>
<clipPath id="clip19">
  <path d="M 163 312 L 415 312 L 415 490 L 163 490 Z M 163 312 "/>
</clipPath>
<clipPath id="clip20">
  <path d="M 135.28125 172.699219 L 442.175781 172.699219 L 442.175781 629.105469 L 135.28125 629.105469 Z M 135.28125 172.699219 L 374.859375 373.027344 C 374.859375 384.863281 365.261719 394.457031 353.429688 394.457031 C 341.59375 394.457031 332 384.863281 332 373.027344 C 332 361.191406 341.59375 351.597656 353.429688 351.597656 C 365.261719 351.597656 374.859375 361.191406 374.859375 373.027344 Z M 135.28125 172.699219 "/>
</clipPath>
<clipPath id="clip21">
  <path d="M 135.28125 172.699219 L 442.175781 172.699219 L 442.175781 629.105469 L 135.28125 629.105469 Z M 135.28125 172.699219 L 245.457031 428.777344 C 245.457031 440.613281 235.863281 450.207031 224.027344 450.207031 C 212.195312 450.207031 202.601562 440.613281 202.601562 428.777344 C 202.601562 416.945312 212.195312 407.351562 224.027344 407.351562 C 235.863281 407.351562 245.457031 416.945312 245.457031 428.777344 Z M 135.28125 172.699219 "/>
</clipPath>
<clipPath id="clip22">
  <path d="M 97 240 L 285 240 L 285 490 L 97 490 Z M 97 240 "/>
</clipPath>
<clipPath id="clip23">
  <path d="M -35.914062 198.65625 L 417.824219 198.65625 L 417.824219 531.3125 L -35.914062 531.3125 Z M -35.914062 198.65625 L 245.457031 428.777344 C 245.457031 440.613281 235.863281 450.207031 224.027344 450.207031 C 212.195312 450.207031 202.601562 440.613281 202.601562 428.777344 C 202.601562 416.945312 212.195312 407.351562 224.027344 407.351562 C 235.863281 407.351562 245.457031 416.945312 245.457031 428.777344 Z M -35.914062 198.65625 "/>
</clipPath>
<clipPath id="clip24">
  <path d="M -35.914062 198.65625 L 417.824219 198.65625 L 417.824219 531.3125 L -35.914062 531.3125 Z M -35.914062 198.65625 L 179.3125 301.191406 C 179.3125 313.027344 169.71875 322.621094 157.882812 322.621094 C 146.046875 322.621094 136.453125 313.027344 136.453125 301.191406 C 136.453125 289.355469 146.046875 279.761719 157.882812 279.761719 C 169.71875 279.761719 179.3125 289.355469 179.3125 301.191406 Z M -35.914062 198.65625 "/>
</clipPath>
<clipPath id="clip25">
  <path d="M 163 368 L 319 368 L 319 579 L 163 579 Z M 163 368 "/>
</clipPath>
<clipPath id="clip26">
  <path d="M 20.523438 347.816406 L 461.640625 347.816406 L 461.640625 598.359375 L 20.523438 598.359375 Z M 20.523438 347.816406 L 245.457031 428.777344 C 245.457031 440.613281 235.863281 450.207031 224.027344 450.207031 C 212.195312 450.207031 202.601562 440.613281 202.601562 428.777344 C 202.601562 416.945312 212.195312 407.351562 224.027344 407.351562 C 235.863281 407.351562 245.457031 416.945312 245.457031 428.777344 Z M 20.523438 347.816406 "/>
</clipPath>
<clipPath id="clip27">
  <path d="M 20.523438 347.816406 L 461.640625 347.816406 L 461.640625 598.359375 L 20.523438 598.359375 Z M 20.523438 347.816406 L 279.566406 517.398438 C 279.566406 529.234375 269.972656 538.828125 258.136719 538.828125 C 246.300781 538.828125 236.707031 529.234375 236.707031 517.398438 C 236.707031 505.566406 246.300781 495.972656 258.136719 495.972656 C 269.972656 495.972656 279.566406 505.566406 279.566406 517.398438 Z M 20.523438 347.816406 "/>
</clipPath>
<clipPath id="clip28">
  <path d="M 465 289 L 600 289 L 600 467 L 465 467 Z M 465 289 "/>
</clipPath>
<clipPath id="clip29">
  <path d="M 334.53125 244.386719 L 748.550781 244.386719 L 748.550781 511.371094 L 334.53125 511.371094 Z M 334.53125 244.386719 L 548.011719 350.21875 C 548.011719 362.054688 538.417969 371.648438 526.582031 371.648438 C 514.746094 371.648438 505.152344 362.054688 505.152344 350.21875 C 505.152344 338.386719 514.746094 328.792969 526.582031 328.792969 C 538.417969 328.792969 548.011719 338.386719 548.011719 350.21875 Z M 334.53125 244.386719 "/>
</clipPath>
<clipPath id="clip30">
  <path d="M 334.53125 244.386719 L 748.550781 244.386719 L 748.550781 511.371094 L 334.53125 511.371094 Z M 334.53125 244.386719 L 577.929688 405.539062 C 577.929688 417.375 568.335938 426.96875 556.5 426.96875 C 544.664062 426.96875 535.070312 417.375 535.070312 405.539062 C 535.070312 393.707031 544.664062 384.113281 556.5 384.113281 C 568.335938 384.113281 577.929688 393.707031 577.929688 405.539062 Z M 334.53125 244.386719 "/>
</clipPath>
<clipPath id="clip31">
  <path d="M 66 107.957031 L 219 107.957031 L 219 349.40625 L 66 349.40625 Z M 66 107.957031 "/>
</clipPath>
<clipPath id="clip32">
  <path d="M -85.792969 107.957031 L 371.0625 107.957031 L 371.0625 349.40625 L -85.792969 349.40625 Z M -85.792969 107.957031 L 179.3125 301.191406 C 179.3125 313.027344 169.71875 322.621094 157.882812 322.621094 C 146.046875 322.621094 136.453125 313.027344 136.453125 301.191406 C 136.453125 289.355469 146.046875 279.761719 157.882812 279.761719 C 169.71875 279.761719 179.3125 289.355469 179.3125 301.191406 Z M -85.792969 107.957031 "/>
</clipPath>
<clipPath id="clip33">
  <path d="M -85.792969 107.957031 L 371.0625 107.957031 L 371.0625 349.40625 L -85.792969 349.40625 Z M -85.792969 107.957031 L 148.8125 156.171875 C 148.8125 168.007812 139.21875 177.601562 127.386719 177.601562 C 115.550781 177.601562 105.957031 168.007812 105.957031 156.171875 C 105.957031 144.335938 115.550781 134.742188 127.386719 134.742188 C 139.21875 134.742188 148.8125 144.335938 148.8125 156.171875 Z M -85.792969 107.957031 "/>
</clipPath>
<clipPath id="clip34">
  <path d="M 0 74 L 183.273438 74 L 183.273438 217 L 0 217 Z M 0 74 "/>
</clipPath>
<clipPath id="clip35">
  <path d="M -12.386719 -76.144531 L 183.273438 -76.144531 L 183.273438 367.589844 L -12.386719 367.589844 Z M -12.386719 -76.144531 L 64.929688 135.273438 C 64.929688 147.109375 55.335938 156.703125 43.5 156.703125 C 31.664062 156.703125 22.070312 147.109375 22.070312 135.273438 C 22.070312 123.441406 31.664062 113.847656 43.5 113.847656 C 55.335938 113.847656 64.929688 123.441406 64.929688 135.273438 Z M -12.386719 -76.144531 "/>
</clipPath>
<clipPath id="clip36">
  <path d="M -12.386719 -76.144531 L 183.273438 -76.144531 L 183.273438 367.589844 L -12.386719 367.589844 Z M -12.386719 -76.144531 L 148.8125 156.171875 C 148.8125 168.007812 139.21875 177.601562 127.386719 177.601562 C 115.550781 177.601562 105.957031 168.007812 105.957031 156.171875 C 105.957031 144.335938 115.550781 134.742188 127.386719 134.742188 C 139.21875 134.742188 148.8125 144.335938 148.8125 156.171875 Z M -12.386719 -76.144531 "/>
</clipPath>
<clipPath id="clip37">
  <path d="M 0 43.113281 L 113 43.113281 L 113 168.015625 L 0 168.015625 Z M 0 43.113281 "/>
</clipPath>
<clipPath id="clip38">
  <path d="M -172.34375 43.113281 L 267.335938 43.113281 L 267.335938 168.015625 L -172.34375 168.015625 Z M -172.34375 43.113281 L 64.929688 135.273438 C 64.929688 147.109375 55.335938 156.703125 43.5 156.703125 C 31.664062 156.703125 22.070312 147.109375 22.070312 135.273438 C 22.070312 123.441406 31.664062 113.847656 43.5 113.847656 C 55.335938 113.847656 64.929688 123.441406 64.929688 135.273438 Z M -172.34375 43.113281 "/>
</clipPath>
<clipPath id="clip39">
  <path d="M -172.34375 43.113281 L 267.335938 43.113281 L 267.335938 168.015625 L -172.34375 168.015625 Z M -172.34375 43.113281 L 72.921875 75.855469 C 72.921875 87.691406 63.328125 97.285156 51.492188 97.285156 C 39.660156 97.285156 30.066406 87.691406 30.066406 75.855469 C 30.066406 64.023438 39.660156 54.429688 51.492188 54.429688 C 63.328125 54.429688 72.921875 64.023438 72.921875 75.855469 Z M -172.34375 43.113281 "/>
</clipPath>
<clipPath id="clip40">
  <path d="M 116.546875 15 L 181.769531 15 L 181.769531 138 L 116.546875 138 Z M 116.546875 15 "/>
</clipPath>
<clipPath id="clip41">
  <path d="M 116.546875 -141.167969 L 181.769531 -141.167969 L 181.769531 295 L 116.546875 295 Z M 116.546875 -141.167969 L 145.269531 76.558594 C 145.269531 88.394531 135.675781 97.988281 123.84375 97.988281 C 112.007812 97.988281 102.414062 88.394531 102.414062 76.558594 C 102.414062 64.722656 112.007812 55.128906 123.84375 55.128906 C 135.675781 55.128906 145.269531 64.722656 145.269531 76.558594 Z M 116.546875 -141.167969 "/>
</clipPath>
<clipPath id="clip42">
  <path d="M 116.546875 -141.167969 L 181.769531 -141.167969 L 181.769531 295 L 116.546875 295 Z M 116.546875 -141.167969 L 195.902344 77.273438 C 195.902344 89.109375 186.308594 98.703125 174.472656 98.703125 C 162.636719 98.703125 153.042969 89.109375 153.042969 77.273438 C 153.042969 65.441406 162.636719 55.847656 174.472656 55.847656 C 186.308594 55.847656 195.902344 65.441406 195.902344 77.273438 Z M 116.546875 -141.167969 "/>
</clipPath>
<clipPath id="clip43">
  <path d="M 63 62.78125 L 188 62.78125 L 188 169.949219 L 63 169.949219 Z M 63 62.78125 "/>
</clipPath>
<clipPath id="clip44">
  <path d="M -93.695312 62.78125 L 344.925781 62.78125 L 344.925781 169.949219 L -93.695312 169.949219 Z M -93.695312 62.78125 L 145.269531 76.558594 C 145.269531 88.394531 135.675781 97.988281 123.84375 97.988281 C 112.007812 97.988281 102.414062 88.394531 102.414062 76.558594 C 102.414062 64.722656 112.007812 55.128906 123.84375 55.128906 C 135.675781 55.128906 145.269531 64.722656 145.269531 76.558594 Z M -93.695312 62.78125 "/>
</clipPath>
<clipPath id="clip45">
  <path d="M -93.695312 62.78125 L 344.925781 62.78125 L 344.925781 169.949219 L -93.695312 169.949219 Z M -93.695312 62.78125 L 148.8125 156.171875 C 148.8125 168.007812 139.21875 177.601562 127.386719 177.601562 C 115.550781 177.601562 105.957031 168.007812 105.957031 156.171875 C 105.957031 144.335938 115.550781 134.742188 127.386719 134.742188 C 139.21875 134.742188 148.8125 144.335938 148.8125 156.171875 Z M -93.695312 62.78125 "/>
</clipPath>
<clipPath id="clip46">
  <path d="M 45.132812 15 L 130.203125 15 L 130.203125 138 L 45.132812 138 Z M 45.132812 15 "/>
</clipPath>
<clipPath id="clip47">
  <path d="M 45.132812 -141.882812 L 130.203125 -141.882812 L 130.203125 294.296875 L 45.132812 294.296875 Z M 45.132812 -141.882812 L 145.269531 76.558594 C 145.269531 88.394531 135.675781 97.988281 123.84375 97.988281 C 112.007812 97.988281 102.414062 88.394531 102.414062 76.558594 C 102.414062 64.722656 112.007812 55.128906 123.84375 55.128906 C 135.675781 55.128906 145.269531 64.722656 145.269531 76.558594 Z M 45.132812 -141.882812 "/>
</clipPath>
<clipPath id="clip48">
  <path d="M 45.132812 -141.882812 L 130.203125 -141.882812 L 130.203125 294.296875 L 45.132812 294.296875 Z M 45.132812 -141.882812 L 72.921875 75.855469 C 72.921875 87.691406 63.328125 97.285156 51.492188 97.285156 C 39.660156 97.285156 30.066406 87.691406 30.066406 75.855469 C 30.066406 64.023438 39.660156 54.429688 51.492188 54.429688 C 63.328125 54.429688 72.921875 64.023438 72.921875 75.855469 Z M 45.132812 -141.882812 "/>
</clipPath>
<clipPath id="clip49">
  <path d="M 66 16 L 236 16 L 236 217 L 66 217 Z M 66 16 "/>
</clipPath>
<clipPath id="clip50">
  <path d="M -60.203125 -36.40625 L 362.0625 -36.40625 L 362.0625 269.851562 L -60.203125 269.851562 Z M -60.203125 -36.40625 L 195.902344 77.273438 C 195.902344 89.109375 186.308594 98.703125 174.472656 98.703125 C 162.636719 98.703125 153.042969 89.109375 153.042969 77.273438 C 153.042969 65.441406 162.636719 55.847656 174.472656 55.847656 C 186.308594 55.847656 195.902344 65.441406 195.902344 77.273438 Z M -60.203125 -36.40625 "/>
</clipPath>
<clipPath id="clip51">
  <path d="M -60.203125 -36.40625 L 362.0625 -36.40625 L 362.0625 269.851562 L -60.203125 269.851562 Z M -60.203125 -36.40625 L 148.8125 156.171875 C 148.8125 168.007812 139.21875 177.601562 127.386719 177.601562 C 115.550781 177.601562 105.957031 168.007812 105.957031 156.171875 C 105.957031 144.335938 115.550781 134.742188 127.386719 134.742188 C 139.21875 134.742188 148.8125 144.335938 148.8125 156.171875 Z M -60.203125 -36.40625 "/>
</clipPath>
</defs>
<g id="surface301">
<g clip-path="url(#clip1)" clip-rule="nonzero">
<g clip-path="url(#clip2)" clip-rule="evenodd">
<g clip-path="url(#clip3)" clip-rule="evenodd">
<path style="fill:none;stroke-width:0.020077;stroke-linecap:butt;stroke-linejoin:miter;stroke:rgb(17.96875%,20.3125%,21.09375%);stroke-opacity:0.8;stroke-miterlimit:10;" d="M 3.282121 1.362389 L 3.303275 1.005534 " transform="matrix(213.464186,0,0,213.464186,-213.513699,-124.899421)"/>
</g>
</g>
</g>
<g clip-path="url(#clip4)" clip-rule="nonzero">
<g clip-path="url(#clip5)" clip-rule="evenodd">
<g clip-path="url(#clip6)" clip-rule="evenodd">
<path style="fill:none;stroke-width:0.020077;stroke-linecap:butt;stroke-linejoin:miter;stroke:rgb(17.96875%,20.3125%,21.09375%);stroke-opacity:0.8;stroke-miterlimit:10;" d="M 3.282121 1.362389 L 3.160595 1.935121 " transform="matrix(213.464186,0,0,213.464186,-213.513699,-124.899421)"/>
</g>
</g>
</g>
<g clip-path="url(#clip7)" clip-rule="nonzero">
<g clip-path="url(#clip8)" clip-rule="evenodd">
<g clip-path="url(#clip9)" clip-rule="evenodd">
<path style="fill:none;stroke-width:0.020077;stroke-linecap:butt;stroke-linejoin:miter;stroke:rgb(17.96875%,20.3125%,21.09375%);stroke-opacity:0.8;stroke-miterlimit:10;" d="M 3.160595 1.935121 L 2.655918 2.332601 " transform="matrix(213.464186,0,0,213.464186,-213.513699,-124.899421)"/>
</g>
</g>
</g>
<g clip-path="url(#clip10)" clip-rule="nonzero">
<g clip-path="url(#clip11)" clip-rule="evenodd">
<g clip-path="url(#clip12)" clip-rule="evenodd">
<path style="fill:none;stroke-width:0.020077;stroke-linecap:butt;stroke-linejoin:miter;stroke:rgb(17.96875%,20.3125%,21.09375%);stroke-opacity:0.8;stroke-miterlimit:10;" d="M 3.160595 1.935121 L 3.467072 2.225751 " transform="matrix(213.464186,0,0,213.464186,-213.513699,-124.899421)"/>
</g>
</g>
</g>
<g clip-path="url(#clip13)" clip-rule="nonzero">
<g clip-path="url(#clip14)" clip-rule="evenodd">
<g clip-path="url(#clip15)" clip-rule="evenodd">
<path style="fill:none;stroke-width:0.020077;stroke-linecap:butt;stroke-linejoin:miter;stroke:rgb(17.96875%,20.3125%,21.09375%);stroke-opacity:0.8;stroke-miterlimit:10;" d="M 1.607952 2.904674 L 1.32144 3.040529 " transform="matrix(213.464186,0,0,213.464186,-213.513699,-124.899421)"/>
</g>
</g>
</g>
<g clip-path="url(#clip16)" clip-rule="nonzero">
<g clip-path="url(#clip17)" clip-rule="evenodd">
<g clip-path="url(#clip18)" clip-rule="evenodd">
<path style="fill:none;stroke-width:0.020077;stroke-linecap:butt;stroke-linejoin:miter;stroke:rgb(17.96875%,20.3125%,21.09375%);stroke-opacity:0.8;stroke-miterlimit:10;" d="M 1.607952 2.904674 L 2.049716 2.593769 " transform="matrix(213.464186,0,0,213.464186,-213.513699,-124.899421)"/>
</g>
</g>
</g>
<g clip-path="url(#clip19)" clip-rule="nonzero">
<g clip-path="url(#clip20)" clip-rule="evenodd">
<g clip-path="url(#clip21)" clip-rule="evenodd">
<path style="fill:none;stroke-width:0.020077;stroke-linecap:butt;stroke-linejoin:miter;stroke:rgb(17.96875%,20.3125%,21.09375%);stroke-opacity:0.8;stroke-miterlimit:10;" d="M 2.655918 2.332601 L 2.049716 2.593769 " transform="matrix(213.464186,0,0,213.464186,-213.513699,-124.899421)"/>
</g>
</g>
</g>
<g clip-path="url(#clip22)" clip-rule="nonzero">
<g clip-path="url(#clip23)" clip-rule="evenodd">
<g clip-path="url(#clip24)" clip-rule="evenodd">
<path style="fill:none;stroke-width:0.020077;stroke-linecap:butt;stroke-linejoin:miter;stroke:rgb(17.96875%,20.3125%,21.09375%);stroke-opacity:0.8;stroke-miterlimit:10;" d="M 2.049716 2.593769 L 1.739854 1.996076 " transform="matrix(213.464186,0,0,213.464186,-213.513699,-124.899421)"/>
</g>
</g>
</g>
<g clip-path="url(#clip25)" clip-rule="nonzero">
<g clip-path="url(#clip26)" clip-rule="evenodd">
<g clip-path="url(#clip27)" clip-rule="evenodd">
<path style="fill:none;stroke-width:0.020077;stroke-linecap:butt;stroke-linejoin:miter;stroke:rgb(17.96875%,20.3125%,21.09375%);stroke-opacity:0.8;stroke-miterlimit:10;" d="M 2.049716 2.593769 L 2.209506 3.008926 " transform="matrix(213.464186,0,0,213.464186,-213.513699,-124.899421)"/>
</g>
</g>
</g>
<g clip-path="url(#clip28)" clip-rule="nonzero">
<g clip-path="url(#clip29)" clip-rule="evenodd">
<g clip-path="url(#clip30)" clip-rule="evenodd">
<path style="fill:none;stroke-width:0.020077;stroke-linecap:butt;stroke-linejoin:miter;stroke:rgb(17.96875%,20.3125%,21.09375%);stroke-opacity:0.8;stroke-miterlimit:10;" d="M 3.467072 2.225751 L 3.607227 2.484906 " transform="matrix(213.464186,0,0,213.464186,-213.513699,-124.899421)"/>
</g>
</g>
</g>
<g clip-path="url(#clip31)" clip-rule="nonzero">
<g clip-path="url(#clip32)" clip-rule="evenodd">
<g clip-path="url(#clip33)" clip-rule="evenodd">
<path style="fill:none;stroke-width:0.020077;stroke-linecap:butt;stroke-linejoin:miter;stroke:rgb(17.96875%,20.3125%,21.09375%);stroke-opacity:0.8;stroke-miterlimit:10;" d="M 1.739854 1.996076 L 1.596991 1.316714 " transform="matrix(213.464186,0,0,213.464186,-213.513699,-124.899421)"/>
</g>
</g>
</g>
<g clip-path="url(#clip34)" clip-rule="nonzero">
<g clip-path="url(#clip35)" clip-rule="evenodd">
<g clip-path="url(#clip36)" clip-rule="evenodd">
<path style="fill:none;stroke-width:0.020077;stroke-linecap:butt;stroke-linejoin:miter;stroke:rgb(17.96875%,20.3125%,21.09375%);stroke-opacity:0.8;stroke-miterlimit:10;" d="M 1.204013 1.218813 L 1.596991 1.316714 " transform="matrix(213.464186,0,0,213.464186,-213.513699,-124.899421)"/>
</g>
</g>
</g>
<g clip-path="url(#clip37)" clip-rule="nonzero">
<g clip-path="url(#clip38)" clip-rule="evenodd">
<g clip-path="url(#clip39)" clip-rule="evenodd">
<path style="fill:none;stroke-width:0.020077;stroke-linecap:butt;stroke-linejoin:miter;stroke:rgb(17.96875%,20.3125%,21.09375%);stroke-opacity:0.8;stroke-miterlimit:10;" d="M 1.204013 1.218813 L 1.241454 0.940462 " transform="matrix(213.464186,0,0,213.464186,-213.513699,-124.899421)"/>
</g>
</g>
</g>
<g clip-path="url(#clip40)" clip-rule="nonzero">
<g clip-path="url(#clip41)" clip-rule="evenodd">
<g clip-path="url(#clip42)" clip-rule="evenodd">
<path style="fill:none;stroke-width:0.020077;stroke-linecap:butt;stroke-linejoin:miter;stroke:rgb(17.96875%,20.3125%,21.09375%);stroke-opacity:0.8;stroke-miterlimit:10;" d="M 1.580394 0.943756 L 1.817571 0.947104 " transform="matrix(213.464186,0,0,213.464186,-213.513699,-124.899421)"/>
</g>
</g>
</g>
<g clip-path="url(#clip43)" clip-rule="nonzero">
<g clip-path="url(#clip44)" clip-rule="evenodd">
<g clip-path="url(#clip45)" clip-rule="evenodd">
<path style="fill:none;stroke-width:0.020077;stroke-linecap:butt;stroke-linejoin:miter;stroke:rgb(17.96875%,20.3125%,21.09375%);stroke-opacity:0.8;stroke-miterlimit:10;" d="M 1.580394 0.943756 L 1.596991 1.316714 " transform="matrix(213.464186,0,0,213.464186,-213.513699,-124.899421)"/>
</g>
</g>
</g>
<g clip-path="url(#clip46)" clip-rule="nonzero">
<g clip-path="url(#clip47)" clip-rule="evenodd">
<g clip-path="url(#clip48)" clip-rule="evenodd">
<path style="fill:none;stroke-width:0.020077;stroke-linecap:butt;stroke-linejoin:miter;stroke:rgb(17.96875%,20.3125%,21.09375%);stroke-opacity:0.8;stroke-miterlimit:10;" d="M 1.580394 0.943756 L 1.241454 0.940462 " transform="matrix(213.464186,0,0,213.464186,-213.513699,-124.899421)"/>
</g>
</g>
</g>
<g clip-path="url(#clip49)" clip-rule="nonzero">
<g clip-path="url(#clip50)" clip-rule="evenodd">
<g clip-path="url(#clip51)" clip-rule="evenodd">
<path style="fill:none;stroke-width:0.020077;stroke-linecap:butt;stroke-linejoin:miter;stroke:rgb(17.96875%,20.3125%,21.09375%);stroke-opacity:0.8;stroke-miterlimit:10;" d="M 1.817571 0.947104 L 1.596991 1.316714 " transform="matrix(213.464186,0,0,213.464186,-213.513699,-124.899421)"/>
</g>
</g>
</g>
<path style="fill-rule:nonzero;fill:rgb(100%,92.941176%,43.529412%);fill-opacity:1;stroke-width:0.020077;stroke-linecap:butt;stroke-linejoin:miter;stroke:rgb(60%,60%,60%);stroke-opacity:0.8;stroke-miterlimit:10;" d="M 0.100393 0.00000145267 C 0.100393 0.0554484 0.0554319 0.100392 0.0000032988 0.100392 C -0.0554436 0.100392 -0.100387 0.0554484 -0.100387 0.00000145267 C -0.100387 -0.0554455 -0.0554436 -0.100389 0.0000032988 -0.100389 C 0.0554319 -0.100389 0.100393 -0.0554455 0.100393 0.00000145267 Z M 0.100393 0.00000145267 " transform="matrix(213.464186,0,0,213.464186,487.100858,165.921565)"/>
<path style="fill-rule:nonzero;fill:rgb(100%,92.941176%,43.529412%);fill-opacity:1;stroke-width:0.020077;stroke-linecap:butt;stroke-linejoin:miter;stroke:rgb(60%,60%,60%);stroke-opacity:0.8;stroke-miterlimit:10;" d="M 0.100391 0.00000431385 C 0.100391 0.055433 0.0554476 0.100376 0.000000679237 0.100376 C -0.0554463 0.100376 -0.100389 0.055433 -0.100389 0.00000431385 C -0.100389 -0.0554426 -0.0554463 -0.100386 0.000000679237 -0.100386 C 0.0554476 -0.100386 0.100391 -0.0554426 0.100391 0.00000431385 Z M 0.100391 0.00000431385 " transform="matrix(213.464186,0,0,213.464186,491.617043,89.745173)"/>
<path style="fill-rule:nonzero;fill:rgb(100%,92.941176%,43.529412%);fill-opacity:1;stroke-width:0.020077;stroke-linecap:butt;stroke-linejoin:miter;stroke:rgb(60%,60%,60%);stroke-opacity:0.8;stroke-miterlimit:10;" d="M 0.100377 0.00000550889 C 0.100377 0.0554342 0.0554341 0.100377 0.00000543286 0.100377 C -0.0554415 0.100377 -0.100385 0.0554342 -0.100385 0.00000550889 C -0.100385 -0.0554414 -0.0554415 -0.100385 0.00000543286 -0.100385 C 0.0554341 -0.100385 0.100377 -0.0554414 0.100377 0.00000550889 Z M 0.100377 0.00000550889 " transform="matrix(213.464186,0,0,213.464186,461.158997,288.178512)"/>
<path style="fill-rule:nonzero;fill:rgb(100%,92.941176%,43.529412%);fill-opacity:1;stroke-width:0.020077;stroke-linecap:butt;stroke-linejoin:miter;stroke:rgb(60%,60%,60%);stroke-opacity:0.8;stroke-miterlimit:10;" d="M 0.100378 0.0000026866 C 0.100378 0.0554496 0.0554346 0.100393 0.00000591904 0.100393 C -0.055441 0.100393 -0.100384 0.0554496 -0.100384 0.0000026866 C -0.100384 -0.0554443 -0.055441 -0.100387 0.00000591904 -0.100387 C 0.0554346 -0.100387 0.100378 -0.0554443 0.100378 0.0000026866 Z M 0.100378 0.0000026866 " transform="matrix(213.464186,0,0,213.464186,129.725299,495.143958)"/>
<path style="fill-rule:nonzero;fill:rgb(100%,92.941176%,43.529412%);fill-opacity:1;stroke-width:0.020077;stroke-linecap:butt;stroke-linejoin:miter;stroke:rgb(60%,60%,60%);stroke-opacity:0.8;stroke-miterlimit:10;" d="M 0.100394 0.00000444664 C 0.100394 0.0554331 0.0554323 0.100376 0.00000368382 0.100376 C -0.0554433 0.100376 -0.100386 0.0554331 -0.100386 0.00000444664 C -0.100386 -0.0554425 -0.0554433 -0.100386 0.00000368382 -0.100386 C 0.0554323 -0.100386 0.100394 -0.0554425 0.100394 0.00000444664 Z M 0.100394 0.00000444664 " transform="matrix(213.464186,0,0,213.464186,68.56562,524.143582)"/>
<path style="fill-rule:nonzero;fill:rgb(100%,92.941176%,43.529412%);fill-opacity:1;stroke-width:0.020077;stroke-linecap:butt;stroke-linejoin:miter;stroke:rgb(60%,60%,60%);stroke-opacity:0.8;stroke-miterlimit:10;" d="M 0.100394 0.00000316865 C 0.100394 0.0554501 0.0554322 0.100393 0.00000358797 0.100393 C -0.0554434 0.100393 -0.100386 0.0554501 -0.100386 0.00000316865 C -0.100386 -0.0554438 -0.0554434 -0.100387 0.00000358797 -0.100387 C 0.0554322 -0.100387 0.100394 -0.0554438 0.100394 0.00000316865 Z M 0.100394 0.00000316865 " transform="matrix(213.464186,0,0,213.464186,353.428922,373.026667)"/>
<path style="fill-rule:nonzero;fill:rgb(100%,92.941176%,43.529412%);fill-opacity:1;stroke-width:0.020077;stroke-linecap:butt;stroke-linejoin:miter;stroke:rgb(60%,60%,60%);stroke-opacity:0.8;stroke-miterlimit:10;" d="M 0.100385 -0.00000820794 C 0.100385 0.0554387 0.0554423 0.100382 -0.00000467585 0.100382 C -0.0554333 0.100382 -0.100376 0.0554387 -0.100376 -0.00000820794 C -0.100376 -0.0554369 -0.0554333 -0.10038 -0.00000467585 -0.10038 C 0.0554423 -0.10038 0.100385 -0.0554369 0.100385 -0.00000820794 Z M 0.100385 -0.00000820794 " transform="matrix(213.464186,0,0,213.464186,224.028342,428.779096)"/>
<path style="fill-rule:nonzero;fill:rgb(55.294118%,82.745098%,78.039216%);fill-opacity:1;stroke-width:0.020077;stroke-linecap:butt;stroke-linejoin:miter;stroke:rgb(60%,60%,60%);stroke-opacity:0.8;stroke-miterlimit:10;" d="M 0.100388 -0.00000436872 C 0.100388 0.0554426 0.055445 0.100386 -0.00000196223 0.100386 C -0.0554489 0.100386 -0.100392 0.0554426 -0.100392 -0.00000436872 C -0.100392 -0.055433 -0.0554489 -0.100376 -0.00000196223 -0.100376 C 0.055445 -0.100376 0.100388 -0.055433 0.100388 -0.00000436872 Z M 0.100388 -0.00000436872 " transform="matrix(213.464186,0,0,213.464186,526.58245,350.219683)"/>
<path style="fill-rule:nonzero;fill:rgb(55.294118%,82.745098%,78.039216%);fill-opacity:1;stroke-width:0.020077;stroke-linecap:butt;stroke-linejoin:miter;stroke:rgb(60%,60%,60%);stroke-opacity:0.8;stroke-miterlimit:10;" d="M 0.10039 -0.00000629999 C 0.10039 0.0554406 0.0554469 0.100384 0 0.100384 C -0.0554469 0.100384 -0.10039 0.0554406 -0.10039 -0.00000629999 C -0.10039 -0.0554349 -0.0554469 -0.100378 0 -0.100378 C 0.0554469 -0.100378 0.10039 -0.0554349 0.10039 -0.00000629999 Z M 0.10039 -0.00000629999 " transform="matrix(213.464186,0,0,213.464186,556.5,405.540407)"/>
<path style="fill-rule:nonzero;fill:rgb(100%,92.941176%,43.529412%);fill-opacity:1;stroke-width:0.020077;stroke-linecap:butt;stroke-linejoin:miter;stroke:rgb(60%,60%,60%);stroke-opacity:0.8;stroke-miterlimit:10;" d="M 0.100392 0.00000205163 C 0.100392 0.055449 0.0554492 0.100392 0.0000022958 0.100392 C -0.0554447 0.100392 -0.100388 0.055449 -0.100388 0.00000205163 C -0.100388 -0.0554449 -0.0554447 -0.100388 0.0000022958 -0.100388 C 0.0554492 -0.100388 0.100392 -0.0554449 0.100392 0.00000205163 Z M 0.100392 0.00000205163 " transform="matrix(213.464186,0,0,213.464186,157.882322,301.190968)"/>
<path style="fill-rule:nonzero;fill:rgb(100%,92.941176%,43.529412%);fill-opacity:1;stroke-width:0.020077;stroke-linecap:butt;stroke-linejoin:miter;stroke:rgb(60%,60%,60%);stroke-opacity:0.8;stroke-miterlimit:10;" d="M 0.10039 -0.00000442156 C 0.10039 0.0554425 0.0554469 0.100386 0.000000000000000222 0.100386 C -0.0554469 0.100386 -0.10039 0.0554425 -0.10039 -0.00000442156 C -0.10039 -0.0554331 -0.0554469 -0.100376 0.000000000000000222 -0.100376 C 0.0554469 -0.100376 0.10039 -0.0554331 0.10039 -0.00000442156 Z M 0.10039 -0.00000442156 " transform="matrix(213.464186,0,0,213.464186,43.5,135.274381)"/>
<path style="fill-rule:nonzero;fill:rgb(100%,92.941176%,43.529412%);fill-opacity:1;stroke-width:0.020077;stroke-linecap:butt;stroke-linejoin:miter;stroke:rgb(60%,60%,60%);stroke-opacity:0.8;stroke-miterlimit:10;" d="M 0.100377 -0.00000293443 C 0.100377 0.055444 0.0554338 0.100387 0.00000517445 0.100387 C -0.0554418 0.100387 -0.100385 0.055444 -0.100385 -0.00000293443 C -0.100385 -0.0554499 -0.0554418 -0.100393 0.00000517445 -0.100393 C 0.0554338 -0.100393 0.100377 -0.0554499 0.100377 -0.00000293443 Z M 0.100377 -0.00000293443 " transform="matrix(213.464186,0,0,213.464186,123.842645,76.55922)"/>
<path style="fill-rule:nonzero;fill:rgb(100%,92.941176%,43.529412%);fill-opacity:1;stroke-width:0.020077;stroke-linecap:butt;stroke-linejoin:miter;stroke:rgb(60%,60%,60%);stroke-opacity:0.8;stroke-miterlimit:10;" d="M 0.10039 -0.00000880069 C 0.10039 0.0554381 0.0554471 0.100381 0.000000163693 0.100381 C -0.0554468 0.100381 -0.10039 0.0554381 -0.10039 -0.00000880069 C -0.10039 -0.0554374 -0.0554468 -0.100381 0.000000163693 -0.100381 C 0.0554471 -0.100381 0.10039 -0.0554374 0.10039 -0.00000880069 Z M 0.10039 -0.00000880069 " transform="matrix(213.464186,0,0,213.464186,174.472621,77.275316)"/>
<path style="fill-rule:nonzero;fill:rgb(100%,92.941176%,43.529412%);fill-opacity:1;stroke-width:0.020077;stroke-linecap:butt;stroke-linejoin:miter;stroke:rgb(60%,60%,60%);stroke-opacity:0.8;stroke-miterlimit:10;" d="M 0.100379 0.000000404478 C 0.100379 0.0554474 0.0554355 0.10039 0.00000685788 0.10039 C -0.0554401 0.10039 -0.100383 0.0554474 -0.100383 0.000000404478 C -0.100383 -0.0554465 -0.0554401 -0.10039 0.00000685788 -0.10039 C 0.0554355 -0.10039 0.100379 -0.0554465 0.100379 0.000000404478 Z M 0.100379 0.000000404478 " transform="matrix(213.464186,0,0,213.464186,127.385255,156.171789)"/>
<path style="fill-rule:nonzero;fill:rgb(100%,92.941176%,43.529412%);fill-opacity:1;stroke-width:0.020077;stroke-linecap:butt;stroke-linejoin:miter;stroke:rgb(60%,60%,60%);stroke-opacity:0.8;stroke-miterlimit:10;" d="M 0.100384 -0.00000444664 C 0.100384 0.0554425 0.0554405 0.100386 -0.000006494 0.100386 C -0.0554351 0.100386 -0.100378 0.0554425 -0.100378 -0.00000444664 C -0.100378 -0.0554331 -0.0554351 -0.100376 -0.000006494 -0.100376 C 0.0554405 -0.100376 0.100384 -0.0554331 0.100384 -0.00000444664 Z M 0.100384 -0.00000444664 " transform="matrix(213.464186,0,0,213.464186,51.493574,75.856418)"/>
<path style="fill-rule:nonzero;fill:rgb(100%,92.941176%,43.529412%);fill-opacity:1;stroke-width:0.020077;stroke-linecap:butt;stroke-linejoin:miter;stroke:rgb(60%,60%,60%);stroke-opacity:0.8;stroke-miterlimit:10;" d="M 0.100392 -0.00000560266 C 0.100392 0.0554413 0.055449 0.100384 0.00000200752 0.100384 C -0.0554449 0.100384 -0.100388 0.0554413 -0.100388 -0.00000560266 C -0.100388 -0.0554343 -0.0554449 -0.100377 0.00000200752 -0.100377 C 0.055449 -0.100377 0.100392 -0.0554343 0.100392 -0.00000560266 Z M 0.100392 -0.00000560266 " transform="matrix(213.464186,0,0,213.464186,258.13629,517.399633)"/>
</g>
</svg>
