<?xml version="1.0" encoding="UTF-8"?>
<svg xmlns="http://www.w3.org/2000/svg" xmlns:xlink="http://www.w3.org/1999/xlink" width="600pt" height="600pt" viewBox="0 0 600 600" version="1.1">
<defs>
<clipPath id="clip1">
  <path d="M 73 259.167969 L 217 259.167969 L 217 446.796875 L 73 446.796875 Z M 73 259.167969 "/>
</clipPath>
<clipPath id="clip2">
  <path d="M -81.957031 259.167969 L 371.851562 259.167969 L 371.851562 446.796875 L -81.957031 446.796875 Z M -81.957031 259.167969 L 157.925781 301.597656 C 157.925781 313.824219 148.015625 323.730469 135.792969 323.730469 C 123.570312 323.730469 113.664062 313.824219 113.664062 301.597656 C 113.664062 289.375 123.570312 279.46875 135.792969 279.46875 C 148.015625 279.46875 157.925781 289.375 157.925781 301.597656 Z M -81.957031 259.167969 "/>
</clipPath>
<clipPath id="clip3">
  <path d="M -81.957031 259.167969 L 371.851562 259.167969 L 371.851562 446.796875 L -81.957031 446.796875 Z M -81.957031 259.167969 L 176.230469 404.367188 C 176.230469 416.589844 166.324219 426.5 154.101562 426.5 C 141.878906 426.5 131.96875 416.589844 131.96875 404.367188 C 131.96875 392.144531 141.878906 382.234375 154.101562 382.234375 C 166.324219 382.234375 176.230469 392.144531 176.230469 404.367188 Z M -81.957031 259.167969 "/>
</clipPath>
<clipPath id="clip4">
  <path d="M 73 239 L 305 239 L 305 485 L 73 485 Z M 73 239 "/>
</clipPath>
<clipPath id="clip5">
  <path d="M -31.128906 153.832031 L 408.71875 153.832031 L 408.71875 569.53125 L -31.128906 569.53125 Z M -31.128906 153.832031 L 157.925781 301.597656 C 157.925781 313.824219 148.015625 323.730469 135.792969 323.730469 C 123.570312 323.730469 113.664062 313.824219 113.664062 301.597656 C 113.664062 289.375 123.570312 279.46875 135.792969 279.46875 C 148.015625 279.46875 157.925781 289.375 157.925781 301.597656 Z M -31.128906 153.832031 "/>
</clipPath>
<clipPath id="clip6">
  <path d="M -31.128906 153.832031 L 408.71875 153.832031 L 408.71875 569.53125 L -31.128906 569.53125 Z M -31.128906 153.832031 L 263.925781 421.765625 C 263.925781 433.988281 254.019531 443.894531 241.796875 443.894531 C 229.574219 443.894531 219.664062 433.988281 219.664062 421.765625 C 219.664062 409.542969 229.574219 399.632812 241.796875 399.632812 C 254.019531 399.632812 263.925781 409.542969 263.925781 421.765625 Z M -31.128906 153.832031 "/>
</clipPath>
<clipPath id="clip7">
  <path d="M 0 239 L 199 239 L 199 403 L 0 403 Z M 0 239 "/>
</clipPath>
<clipPath id="clip8">
  <path d="M -43.46875 97.214844 L 223.695312 97.214844 L 223.695312 544.121094 L -43.46875 544.121094 Z M -43.46875 97.214844 L 157.925781 301.597656 C 157.925781 313.824219 148.015625 323.730469 135.792969 323.730469 C 123.570312 323.730469 113.664062 313.824219 113.664062 301.597656 C 113.664062 289.375 123.570312 279.46875 135.792969 279.46875 C 148.015625 279.46875 157.925781 289.375 157.925781 301.597656 Z M -43.46875 97.214844 "/>
</clipPath>
<clipPath id="clip9">
  <path d="M -43.46875 97.214844 L 223.695312 97.214844 L 223.695312 544.121094 L -43.46875 544.121094 Z M -43.46875 97.214844 L 66.566406 339.738281 C 66.566406 351.960938 56.65625 361.867188 44.433594 361.867188 C 32.210938 361.867188 22.304688 351.960938 22.304688 339.738281 C 22.304688 327.515625 32.210938 317.605469 44.433594 317.605469 C 56.65625 317.605469 66.566406 327.515625 66.566406 339.738281 Z M -43.46875 97.214844 "/>
</clipPath>
<clipPath id="clip10">
  <path d="M 64 155.195312 L 199 155.195312 L 199 321.25 L 64 321.25 Z M 64 155.195312 "/>
</clipPath>
<clipPath id="clip11">
  <path d="M -93.707031 155.195312 L 356.363281 155.195312 L 356.363281 321.25 L -93.707031 321.25 Z M -93.707031 155.195312 L 157.925781 301.597656 C 157.925781 313.824219 148.015625 323.730469 135.792969 323.730469 C 123.570312 323.730469 113.664062 313.824219 113.664062 301.597656 C 113.664062 289.375 123.570312 279.46875 135.792969 279.46875 C 148.015625 279.46875 157.925781 289.375 157.925781 301.597656 Z M -93.707031 155.195312 "/>
</clipPath>
<clipPath id="clip12">
  <path d="M -93.707031 155.195312 L 356.363281 155.195312 L 356.363281 321.25 L -93.707031 321.25 Z M -93.707031 155.195312 L 148.996094 174.847656 C 148.996094 187.070312 139.089844 196.980469 126.863281 196.980469 C 114.640625 196.980469 104.734375 187.070312 104.734375 174.847656 C 104.734375 162.625 114.640625 152.714844 126.863281 152.714844 C 139.089844 152.714844 148.996094 162.625 148.996094 174.847656 Z M -93.707031 155.195312 "/>
</clipPath>
<clipPath id="clip13">
  <path d="M 73 141.683594 L 214 141.683594 L 214 331.125 L 73 331.125 Z M 73 141.683594 "/>
</clipPath>
<clipPath id="clip14">
  <path d="M -83.855469 141.683594 L 370.648438 141.683594 L 370.648438 331.125 L -83.855469 331.125 Z M -83.855469 141.683594 L 157.925781 301.597656 C 157.925781 313.824219 148.015625 323.730469 135.792969 323.730469 C 123.570312 323.730469 113.664062 313.824219 113.664062 301.597656 C 113.664062 289.375 123.570312 279.46875 135.792969 279.46875 C 148.015625 279.46875 157.925781 289.375 157.925781 301.597656 Z M -83.855469 141.683594 "/>
</clipPath>
<clipPath id="clip15">
  <path d="M -83.855469 141.683594 L 370.648438 141.683594 L 370.648438 331.125 L -83.855469 331.125 Z M -83.855469 141.683594 L 173.132812 171.210938 C 173.132812 183.433594 163.222656 193.34375 151 193.34375 C 138.777344 193.34375 128.867188 183.433594 128.867188 171.210938 C 128.867188 158.988281 138.777344 149.082031 151 149.082031 C 163.222656 149.082031 173.132812 158.988281 173.132812 171.210938 Z M -83.855469 141.683594 "/>
</clipPath>
<clipPath id="clip16">
  <path d="M 107.507812 341 L 288.390625 341 L 288.390625 485 L 107.507812 485 Z M 107.507812 341 "/>
</clipPath>
<clipPath id="clip17">
  <path d="M 107.507812 187.402344 L 288.390625 187.402344 L 288.390625 638.730469 L 107.507812 638.730469 Z M 107.507812 187.402344 L 176.230469 404.367188 C 176.230469 416.589844 166.324219 426.5 154.101562 426.5 C 141.878906 426.5 131.96875 416.589844 131.96875 404.367188 C 131.96875 392.144531 141.878906 382.234375 154.101562 382.234375 C 166.324219 382.234375 176.230469 392.144531 176.230469 404.367188 Z M 107.507812 187.402344 "/>
</clipPath>
<clipPath id="clip18">
  <path d="M 107.507812 187.402344 L 288.390625 187.402344 L 288.390625 638.730469 L 107.507812 638.730469 Z M 107.507812 187.402344 L 263.925781 421.765625 C 263.925781 433.988281 254.019531 443.894531 241.796875 443.894531 C 229.574219 443.894531 219.664062 433.988281 219.664062 421.765625 C 219.664062 409.542969 229.574219 399.632812 241.796875 399.632812 C 254.019531 399.632812 263.925781 409.542969 263.925781 421.765625 Z M 107.507812 187.402344 "/>
</clipPath>
<clipPath id="clip19">
  <path d="M 179 359 L 440 359 L 440 528 L 179 528 Z M 179 359 "/>
</clipPath>
<clipPath id="clip20">
  <path d="M 170.734375 211.160156 L 447.765625 211.160156 L 447.765625 675.972656 L 170.734375 675.972656 Z M 170.734375 211.160156 L 263.925781 421.765625 C 263.925781 433.988281 254.019531 443.894531 241.796875 443.894531 C 229.574219 443.894531 219.664062 433.988281 219.664062 421.765625 C 219.664062 409.542969 229.574219 399.632812 241.796875 399.632812 C 254.019531 399.632812 263.925781 409.542969 263.925781 421.765625 Z M 170.734375 211.160156 "/>
</clipPath>
<clipPath id="clip21">
  <path d="M 170.734375 211.160156 L 447.765625 211.160156 L 447.765625 675.972656 L 170.734375 675.972656 Z M 170.734375 211.160156 L 398.835938 465.367188 C 398.835938 477.589844 388.925781 487.5 376.703125 487.5 C 364.480469 487.5 354.574219 477.589844 354.574219 465.367188 C 354.574219 453.144531 364.480469 443.238281 376.703125 443.238281 C 388.925781 443.238281 398.835938 453.144531 398.835938 465.367188 Z M 170.734375 211.160156 "/>
</clipPath>
<clipPath id="clip22">
  <path d="M 191.226562 359 L 396.511719 359 L 396.511719 508 L 191.226562 508 Z M 191.226562 359 "/>
</clipPath>
<clipPath id="clip23">
  <path d="M 191.226562 205.628906 L 396.511719 205.628906 L 396.511719 660.601562 L 191.226562 660.601562 Z M 191.226562 205.628906 L 263.925781 421.765625 C 263.925781 433.988281 254.019531 443.894531 241.796875 443.894531 C 229.574219 443.894531 219.664062 433.988281 219.664062 421.765625 C 219.664062 409.542969 229.574219 399.632812 241.796875 399.632812 C 254.019531 399.632812 263.925781 409.542969 263.925781 421.765625 Z M 191.226562 205.628906 "/>
</clipPath>
<clipPath id="clip24">
  <path d="M 191.226562 205.628906 L 396.511719 205.628906 L 396.511719 660.601562 L 191.226562 660.601562 Z M 191.226562 205.628906 L 368.074219 444.464844 C 368.074219 456.6875 358.164062 466.597656 345.941406 466.597656 C 333.71875 466.597656 323.8125 456.6875 323.8125 444.464844 C 323.8125 432.242188 333.71875 422.332031 345.941406 422.332031 C 358.164062 422.332031 368.074219 432.242188 368.074219 444.464844 Z M 191.226562 205.628906 "/>
</clipPath>
<clipPath id="clip25">
  <path d="M 387 341.191406 L 534 341.191406 L 534 539.425781 L 387 539.425781 Z M 387 341.191406 "/>
</clipPath>
<clipPath id="clip26">
  <path d="M 232.535156 341.191406 L 687.550781 341.191406 L 687.550781 539.425781 L 232.535156 539.425781 Z M 232.535156 341.191406 L 471.808594 493.753906 C 471.808594 505.976562 461.902344 515.886719 449.679688 515.886719 C 437.457031 515.886719 427.546875 505.976562 427.546875 493.753906 C 427.546875 481.53125 437.457031 471.621094 449.679688 471.621094 C 461.902344 471.621094 471.808594 481.53125 471.808594 493.753906 Z M 232.535156 341.191406 "/>
</clipPath>
<clipPath id="clip27">
  <path d="M 232.535156 341.191406 L 687.550781 341.191406 L 687.550781 539.425781 L 232.535156 539.425781 Z M 232.535156 341.191406 L 492.535156 386.863281 C 492.535156 399.085938 482.628906 408.996094 470.40625 408.996094 C 458.183594 408.996094 448.273438 399.085938 448.273438 386.863281 C 448.273438 374.640625 458.183594 364.734375 470.40625 364.734375 C 482.628906 364.734375 492.535156 374.640625 492.535156 386.863281 Z M 232.535156 341.191406 "/>
</clipPath>
<clipPath id="clip28">
  <path d="M 314 402 L 513 402 L 513 557 L 314 557 Z M 314 402 "/>
</clipPath>
<clipPath id="clip29">
  <path d="M 293.726562 259 L 532.65625 259 L 532.65625 700.121094 L 293.726562 700.121094 Z M 293.726562 259 L 471.808594 493.753906 C 471.808594 505.976562 461.902344 515.886719 449.679688 515.886719 C 437.457031 515.886719 427.546875 505.976562 427.546875 493.753906 C 427.546875 481.53125 437.457031 471.621094 449.679688 471.621094 C 461.902344 471.621094 471.808594 481.53125 471.808594 493.753906 Z M 293.726562 259 "/>
</clipPath>
<clipPath id="clip30">
  <path d="M 293.726562 259 L 532.65625 259 L 532.65625 700.121094 L 293.726562 700.121094 Z M 293.726562 259 L 398.835938 465.367188 C 398.835938 477.589844 388.925781 487.5 376.703125 487.5 C 364.480469 487.5 354.574219 477.589844 354.574219 465.367188 C 354.574219 453.144531 364.480469 443.238281 376.703125 443.238281 C 388.925781 443.238281 398.835938 453.144531 398.835938 465.367188 Z M 293.726562 259 "/>
</clipPath>
<clipPath id="clip31">
  <path d="M 314 324 L 534 324 L 534 528 L 314 528 Z M 314 324 "/>
</clipPath>
<clipPath id="clip32">
  <path d="M 233.125 216.34375 L 613.984375 216.34375 L 613.984375 635.886719 L 233.125 635.886719 Z M 233.125 216.34375 L 492.535156 386.863281 C 492.535156 399.085938 482.628906 408.996094 470.40625 408.996094 C 458.183594 408.996094 448.273438 399.085938 448.273438 386.863281 C 448.273438 374.640625 458.183594 364.734375 470.40625 364.734375 C 482.628906 364.734375 492.535156 374.640625 492.535156 386.863281 Z M 233.125 216.34375 "/>
</clipPath>
<clipPath id="clip33">
  <path d="M 233.125 216.34375 L 613.984375 216.34375 L 613.984375 635.886719 L 233.125 635.886719 Z M 233.125 216.34375 L 398.835938 465.367188 C 398.835938 477.589844 388.925781 487.5 376.703125 487.5 C 364.480469 487.5 354.574219 477.589844 354.574219 465.367188 C 354.574219 453.144531 364.480469 443.238281 376.703125 443.238281 C 388.925781 443.238281 398.835938 453.144531 398.835938 465.367188 Z M 233.125 216.34375 "/>
</clipPath>
<clipPath id="clip34">
  <path d="M 283 324 L 534 324 L 534 508 L 283 508 Z M 283 324 "/>
</clipPath>
<clipPath id="clip35">
  <path d="M 250.511719 185.792969 L 565.835938 185.792969 L 565.835938 645.535156 L 250.511719 645.535156 Z M 250.511719 185.792969 L 492.535156 386.863281 C 492.535156 399.085938 482.628906 408.996094 470.40625 408.996094 C 458.183594 408.996094 448.273438 399.085938 448.273438 386.863281 C 448.273438 374.640625 458.183594 364.734375 470.40625 364.734375 C 482.628906 364.734375 492.535156 374.640625 492.535156 386.863281 Z M 250.511719 185.792969 "/>
</clipPath>
<clipPath id="clip36">
  <path d="M 250.511719 185.792969 L 565.835938 185.792969 L 565.835938 645.535156 L 250.511719 645.535156 Z M 250.511719 185.792969 L 368.074219 444.464844 C 368.074219 456.6875 358.164062 466.597656 345.941406 466.597656 C 333.71875 466.597656 323.8125 456.6875 323.8125 444.464844 C 323.8125 432.242188 333.71875 422.332031 345.941406 422.332031 C 358.164062 422.332031 368.074219 432.242188 368.074219 444.464844 Z M 250.511719 185.792969 "/>
</clipPath>
<clipPath id="clip37">
  <path d="M 407 190 L 586 190 L 586 450 L 407 450 Z M 407 190 "/>
</clipPath>
<clipPath id="clip38">
  <path d="M 264.121094 169.578125 L 729.015625 169.578125 L 729.015625 470.058594 L 264.121094 470.058594 Z M 264.121094 169.578125 L 492.535156 386.863281 C 492.535156 399.085938 482.628906 408.996094 470.40625 408.996094 C 458.183594 408.996094 448.273438 399.085938 448.273438 386.863281 C 448.273438 374.640625 458.183594 364.734375 470.40625 364.734375 C 482.628906 364.734375 492.535156 374.640625 492.535156 386.863281 Z M 264.121094 169.578125 "/>
</clipPath>
<clipPath id="clip39">
  <path d="M 264.121094 169.578125 L 729.015625 169.578125 L 729.015625 470.058594 L 264.121094 470.058594 Z M 264.121094 169.578125 L 544.863281 252.773438 C 544.863281 264.996094 534.953125 274.90625 522.730469 274.90625 C 510.507812 274.90625 500.597656 264.996094 500.597656 252.773438 C 500.597656 240.550781 510.507812 230.644531 522.730469 230.644531 C 534.953125 230.644531 544.863281 240.550781 544.863281 252.773438 Z M 264.121094 169.578125 "/>
</clipPath>
<clipPath id="clip40">
  <path d="M 407 292 L 600 292 L 600 450 L 407 450 Z M 407 292 "/>
</clipPath>
<clipPath id="clip41">
  <path d="M 390.203125 147.648438 L 635.769531 147.648438 L 635.769531 594.289062 L 390.203125 594.289062 Z M 390.203125 147.648438 L 492.535156 386.863281 C 492.535156 399.085938 482.628906 408.996094 470.40625 408.996094 C 458.183594 408.996094 448.273438 399.085938 448.273438 386.863281 C 448.273438 374.640625 458.183594 364.734375 470.40625 364.734375 C 482.628906 364.734375 492.535156 374.640625 492.535156 386.863281 Z M 390.203125 147.648438 "/>
</clipPath>
<clipPath id="clip42">
  <path d="M 390.203125 147.648438 L 635.769531 147.648438 L 635.769531 594.289062 L 390.203125 594.289062 Z M 390.203125 147.648438 L 577.695312 355.074219 C 577.695312 367.296875 567.789062 377.203125 555.566406 377.203125 C 543.34375 377.203125 533.433594 367.296875 533.433594 355.074219 C 533.433594 342.851562 543.34375 332.941406 555.566406 332.941406 C 567.789062 332.941406 577.695312 342.851562 577.695312 355.074219 Z M 390.203125 147.648438 "/>
</clipPath>
<clipPath id="clip43">
  <path d="M 407 224 L 600 224 L 600 450 L 407 450 Z M 407 224 "/>
</clipPath>
<clipPath id="clip44">
  <path d="M 289.832031 156.65625 L 722.328125 156.65625 L 722.328125 517.472656 L 289.832031 517.472656 Z M 289.832031 156.65625 L 492.535156 386.863281 C 492.535156 399.085938 482.628906 408.996094 470.40625 408.996094 C 458.183594 408.996094 448.273438 399.085938 448.273438 386.863281 C 448.273438 374.640625 458.183594 364.734375 470.40625 364.734375 C 482.628906 364.734375 492.535156 374.640625 492.535156 386.863281 Z M 289.832031 156.65625 "/>
</clipPath>
<clipPath id="clip45">
  <path d="M 289.832031 156.65625 L 722.328125 156.65625 L 722.328125 517.472656 L 289.832031 517.472656 Z M 289.832031 156.65625 L 563.886719 287.265625 C 563.886719 299.488281 553.976562 309.394531 541.753906 309.394531 C 529.53125 309.394531 519.625 299.488281 519.625 287.265625 C 519.625 275.042969 529.53125 265.132812 541.753906 265.132812 C 553.976562 265.132812 563.886719 275.042969 563.886719 287.265625 Z M 289.832031 156.65625 "/>
</clipPath>
<clipPath id="clip46">
  <path d="M 283 381 L 440 381 L 440 528 L 283 528 Z M 283 381 "/>
</clipPath>
<clipPath id="clip47">
  <path d="M 219.734375 260.816406 L 502.910156 260.816406 L 502.910156 649.015625 L 219.734375 649.015625 Z M 219.734375 260.816406 L 398.835938 465.367188 C 398.835938 477.589844 388.925781 487.5 376.703125 487.5 C 364.480469 487.5 354.574219 477.589844 354.574219 465.367188 C 354.574219 453.144531 364.480469 443.238281 376.703125 443.238281 C 388.925781 443.238281 398.835938 453.144531 398.835938 465.367188 Z M 219.734375 260.816406 "/>
</clipPath>
<clipPath id="clip48">
  <path d="M 219.734375 260.816406 L 502.910156 260.816406 L 502.910156 649.015625 L 219.734375 649.015625 Z M 219.734375 260.816406 L 368.074219 444.464844 C 368.074219 456.6875 358.164062 466.597656 345.941406 466.597656 C 333.71875 466.597656 323.8125 456.6875 323.8125 444.464844 C 323.8125 432.242188 333.71875 422.332031 345.941406 422.332031 C 358.164062 422.332031 368.074219 432.242188 368.074219 444.464844 Z M 219.734375 260.816406 "/>
</clipPath>
<clipPath id="clip49">
  <path d="M 90.152344 108 L 187.710938 108 L 187.710938 238 L 90.152344 238 Z M 90.152344 108 "/>
</clipPath>
<clipPath id="clip50">
  <path d="M 90.152344 -47.476562 L 187.710938 -47.476562 L 187.710938 393.535156 L 90.152344 393.535156 Z M 90.152344 -47.476562 L 148.996094 174.847656 C 148.996094 187.070312 139.089844 196.980469 126.863281 196.980469 C 114.640625 196.980469 104.734375 187.070312 104.734375 174.847656 C 104.734375 162.625 114.640625 152.714844 126.863281 152.714844 C 139.089844 152.714844 148.996094 162.625 148.996094 174.847656 Z M 90.152344 -47.476562 "/>
</clipPath>
<clipPath id="clip51">
  <path d="M 90.152344 -47.476562 L 187.710938 -47.476562 L 187.710938 393.535156 L 90.152344 393.535156 Z M 90.152344 -47.476562 L 173.132812 171.210938 C 173.132812 183.433594 163.222656 193.34375 151 193.34375 C 138.777344 193.34375 128.867188 183.433594 128.867188 171.210938 C 128.867188 158.988281 138.777344 149.082031 151 149.082031 C 163.222656 149.082031 173.132812 158.988281 173.132812 171.210938 Z M 90.152344 -47.476562 "/>
</clipPath>
<clipPath id="clip52">
  <path d="M 64 43 L 216 43 L 216 238 L 64 238 Z M 64 43 "/>
</clipPath>
<clipPath id="clip53">
  <path d="M -80.292969 25.320312 L 359.90625 25.320312 L 359.90625 255.773438 L -80.292969 255.773438 Z M -80.292969 25.320312 L 148.996094 174.847656 C 148.996094 187.070312 139.089844 196.980469 126.863281 196.980469 C 114.640625 196.980469 104.734375 187.070312 104.734375 174.847656 C 104.734375 162.625 114.640625 152.714844 126.863281 152.714844 C 139.089844 152.714844 148.996094 162.625 148.996094 174.847656 Z M -80.292969 25.320312 "/>
</clipPath>
<clipPath id="clip54">
  <path d="M -80.292969 25.320312 L 359.90625 25.320312 L 359.90625 255.773438 L -80.292969 255.773438 Z M -80.292969 25.320312 L 174.878906 106.246094 C 174.878906 118.46875 164.972656 128.378906 152.75 128.378906 C 140.527344 128.378906 130.617188 118.46875 130.617188 106.246094 C 130.617188 94.023438 140.527344 84.113281 152.75 84.113281 C 164.972656 84.113281 174.878906 94.023438 174.878906 106.246094 Z M -80.292969 25.320312 "/>
</clipPath>
<clipPath id="clip55">
  <path d="M 88 95.984375 L 216 95.984375 L 216 181.472656 L 88 181.472656 Z M 88 95.984375 "/>
</clipPath>
<clipPath id="clip56">
  <path d="M -70.027344 95.984375 L 373.777344 95.984375 L 373.777344 181.472656 L -70.027344 181.472656 Z M -70.027344 95.984375 L 173.132812 171.210938 C 173.132812 183.433594 163.222656 193.34375 151 193.34375 C 138.777344 193.34375 128.867188 183.433594 128.867188 171.210938 C 128.867188 158.988281 138.777344 149.082031 151 149.082031 C 163.222656 149.082031 173.132812 158.988281 173.132812 171.210938 Z M -70.027344 95.984375 "/>
</clipPath>
<clipPath id="clip57">
  <path d="M -70.027344 95.984375 L 373.777344 95.984375 L 373.777344 181.472656 L -70.027344 181.472656 Z M -70.027344 95.984375 L 174.878906 106.246094 C 174.878906 118.46875 164.972656 128.378906 152.75 128.378906 C 140.527344 128.378906 130.617188 118.46875 130.617188 106.246094 C 130.617188 94.023438 140.527344 84.113281 152.75 84.113281 C 164.972656 84.113281 174.878906 94.023438 174.878906 106.246094 Z M -70.027344 95.984375 "/>
</clipPath>
<clipPath id="clip58">
  <path d="M 460 133 L 600 133 L 600 316 L 460 316 Z M 460 133 "/>
</clipPath>
<clipPath id="clip59">
  <path d="M 323.914062 95.777344 L 749.539062 95.777344 L 749.539062 352.925781 L 323.914062 352.925781 Z M 323.914062 95.777344 L 544.863281 252.773438 C 544.863281 264.996094 534.953125 274.90625 522.730469 274.90625 C 510.507812 274.90625 500.597656 264.996094 500.597656 252.773438 C 500.597656 240.550781 510.507812 230.644531 522.730469 230.644531 C 534.953125 230.644531 544.863281 240.550781 544.863281 252.773438 Z M 323.914062 95.777344 "/>
</clipPath>
<clipPath id="clip60">
  <path d="M 323.914062 95.777344 L 749.539062 95.777344 L 749.539062 352.925781 L 323.914062 352.925781 Z M 323.914062 95.777344 L 572.855469 195.929688 C 572.855469 208.152344 562.945312 218.0625 550.722656 218.0625 C 538.5 218.0625 528.59375 208.152344 528.59375 195.929688 C 528.59375 183.707031 538.5 173.796875 550.722656 173.796875 C 562.945312 173.796875 572.855469 183.707031 572.855469 195.929688 Z M 323.914062 95.777344 "/>
</clipPath>
<clipPath id="clip61">
  <path d="M 460 190 L 600 190 L 600 350 L 460 350 Z M 460 190 "/>
</clipPath>
<clipPath id="clip62">
  <path d="M 328.566406 143.703125 L 735.917969 143.703125 L 735.917969 396.335938 L 328.566406 396.335938 Z M 328.566406 143.703125 L 544.863281 252.773438 C 544.863281 264.996094 534.953125 274.90625 522.730469 274.90625 C 510.507812 274.90625 500.597656 264.996094 500.597656 252.773438 C 500.597656 240.550781 510.507812 230.644531 522.730469 230.644531 C 534.953125 230.644531 544.863281 240.550781 544.863281 252.773438 Z M 328.566406 143.703125 "/>
</clipPath>
<clipPath id="clip63">
  <path d="M 328.566406 143.703125 L 735.917969 143.703125 L 735.917969 396.335938 L 328.566406 396.335938 Z M 328.566406 143.703125 L 563.886719 287.265625 C 563.886719 299.488281 553.976562 309.394531 541.753906 309.394531 C 529.53125 309.394531 519.625 299.488281 519.625 287.265625 C 519.625 275.042969 529.53125 265.132812 541.753906 265.132812 C 553.976562 265.132812 563.886719 275.042969 563.886719 287.265625 Z M 328.566406 143.703125 "/>
</clipPath>
<clipPath id="clip64">
  <path d="M 479 170.328125 L 600 170.328125 L 600 312.867188 L 479 312.867188 Z M 479 170.328125 "/>
</clipPath>
<clipPath id="clip65">
  <path d="M 321.683594 170.328125 L 770.792969 170.328125 L 770.792969 312.867188 L 321.683594 312.867188 Z M 321.683594 170.328125 L 572.855469 195.929688 C 572.855469 208.152344 562.945312 218.0625 550.722656 218.0625 C 538.5 218.0625 528.59375 208.152344 528.59375 195.929688 C 528.59375 183.707031 538.5 173.796875 550.722656 173.796875 C 562.945312 173.796875 572.855469 183.707031 572.855469 195.929688 Z M 321.683594 170.328125 "/>
</clipPath>
<clipPath id="clip66">
  <path d="M 321.683594 170.328125 L 770.792969 170.328125 L 770.792969 312.867188 L 321.683594 312.867188 Z M 321.683594 170.328125 L 563.886719 287.265625 C 563.886719 299.488281 553.976562 309.394531 541.753906 309.394531 C 529.53125 309.394531 519.625 299.488281 519.625 287.265625 C 519.625 275.042969 529.53125 265.132812 541.753906 265.132812 C 553.976562 265.132812 563.886719 275.042969 563.886719 287.265625 Z M 321.683594 170.328125 "/>
</clipPath>
<clipPath id="clip67">
  <path d="M 479 239.589844 L 600 239.589844 L 600 402.75 L 479 402.75 Z M 479 239.589844 "/>
</clipPath>
<clipPath id="clip68">
  <path d="M 325.007812 239.589844 L 772.3125 239.589844 L 772.3125 402.75 L 325.007812 402.75 Z M 325.007812 239.589844 L 577.695312 355.074219 C 577.695312 367.296875 567.789062 377.203125 555.566406 377.203125 C 543.34375 377.203125 533.433594 367.296875 533.433594 355.074219 C 533.433594 342.851562 543.34375 332.941406 555.566406 332.941406 C 567.789062 332.941406 577.695312 342.851562 577.695312 355.074219 Z M 325.007812 239.589844 "/>
</clipPath>
<clipPath id="clip69">
  <path d="M 325.007812 239.589844 L 772.3125 239.589844 L 772.3125 402.75 L 325.007812 402.75 Z M 325.007812 239.589844 L 563.886719 287.265625 C 563.886719 299.488281 553.976562 309.394531 541.753906 309.394531 C 529.53125 309.394531 519.625 299.488281 519.625 287.265625 C 519.625 275.042969 529.53125 265.132812 541.753906 265.132812 C 553.976562 265.132812 563.886719 275.042969 563.886719 287.265625 Z M 325.007812 239.589844 "/>
</clipPath>
</defs>
<g id="surface266">
<g clip-path="url(#clip1)" clip-rule="nonzero">
<g clip-path="url(#clip2)" clip-rule="evenodd">
<g clip-path="url(#clip3)" clip-rule="evenodd">
<path style="fill:none;stroke-width:0.0204275;stroke-linecap:butt;stroke-linejoin:miter;stroke:rgb(17.96875%,20.3125%,21.09375%);stroke-opacity:0.8;stroke-miterlimit:10;" d="M 0.984725 1.910808 L 1.06922 2.385095 " transform="matrix(216.681957,0,0,216.681957,-77.579085,-112.43997)"/>
</g>
</g>
</g>
<g clip-path="url(#clip4)" clip-rule="nonzero">
<g clip-path="url(#clip5)" clip-rule="evenodd">
<g clip-path="url(#clip6)" clip-rule="evenodd">
<path style="fill:none;stroke-width:0.0204275;stroke-linecap:butt;stroke-linejoin:miter;stroke:rgb(17.96875%,20.3125%,21.09375%);stroke-opacity:0.8;stroke-miterlimit:10;" d="M 0.984725 1.910808 L 1.473939 2.46539 " transform="matrix(216.681957,0,0,216.681957,-77.579085,-112.43997)"/>
</g>
</g>
</g>
<g clip-path="url(#clip7)" clip-rule="nonzero">
<g clip-path="url(#clip8)" clip-rule="evenodd">
<g clip-path="url(#clip9)" clip-rule="evenodd">
<path style="fill:none;stroke-width:0.0204275;stroke-linecap:butt;stroke-linejoin:miter;stroke:rgb(17.96875%,20.3125%,21.09375%);stroke-opacity:0.8;stroke-miterlimit:10;" d="M 0.984725 1.910808 L 0.563096 2.086829 " transform="matrix(216.681957,0,0,216.681957,-77.579085,-112.43997)"/>
</g>
</g>
</g>
<g clip-path="url(#clip10)" clip-rule="nonzero">
<g clip-path="url(#clip11)" clip-rule="evenodd">
<g clip-path="url(#clip12)" clip-rule="evenodd">
<path style="fill:none;stroke-width:0.0204275;stroke-linecap:butt;stroke-linejoin:miter;stroke:rgb(17.96875%,20.3125%,21.09375%);stroke-opacity:0.8;stroke-miterlimit:10;" d="M 0.984725 1.910808 L 0.943514 1.325849 " transform="matrix(216.681957,0,0,216.681957,-77.579085,-112.43997)"/>
</g>
</g>
</g>
<g clip-path="url(#clip13)" clip-rule="nonzero">
<g clip-path="url(#clip14)" clip-rule="evenodd">
<g clip-path="url(#clip15)" clip-rule="evenodd">
<path style="fill:none;stroke-width:0.0204275;stroke-linecap:butt;stroke-linejoin:miter;stroke:rgb(17.96875%,20.3125%,21.09375%);stroke-opacity:0.8;stroke-miterlimit:10;" d="M 0.984725 1.910808 L 1.054906 1.309066 " transform="matrix(216.681957,0,0,216.681957,-77.579085,-112.43997)"/>
</g>
</g>
</g>
<g clip-path="url(#clip16)" clip-rule="nonzero">
<g clip-path="url(#clip17)" clip-rule="evenodd">
<g clip-path="url(#clip18)" clip-rule="evenodd">
<path style="fill:none;stroke-width:0.0204275;stroke-linecap:butt;stroke-linejoin:miter;stroke:rgb(17.96875%,20.3125%,21.09375%);stroke-opacity:0.8;stroke-miterlimit:10;" d="M 1.06922 2.385095 L 1.473939 2.46539 " transform="matrix(216.681957,0,0,216.681957,-77.579085,-112.43997)"/>
</g>
</g>
</g>
<g clip-path="url(#clip19)" clip-rule="nonzero">
<g clip-path="url(#clip20)" clip-rule="evenodd">
<g clip-path="url(#clip21)" clip-rule="evenodd">
<path style="fill:none;stroke-width:0.0204275;stroke-linecap:butt;stroke-linejoin:miter;stroke:rgb(17.96875%,20.3125%,21.09375%);stroke-opacity:0.8;stroke-miterlimit:10;" d="M 1.473939 2.46539 L 2.096539 2.666614 " transform="matrix(216.681957,0,0,216.681957,-77.579085,-112.43997)"/>
</g>
</g>
</g>
<g clip-path="url(#clip22)" clip-rule="nonzero">
<g clip-path="url(#clip23)" clip-rule="evenodd">
<g clip-path="url(#clip24)" clip-rule="evenodd">
<path style="fill:none;stroke-width:0.0204275;stroke-linecap:butt;stroke-linejoin:miter;stroke:rgb(17.96875%,20.3125%,21.09375%);stroke-opacity:0.8;stroke-miterlimit:10;" d="M 1.473939 2.46539 L 1.954572 2.570149 " transform="matrix(216.681957,0,0,216.681957,-77.579085,-112.43997)"/>
</g>
</g>
</g>
<g clip-path="url(#clip25)" clip-rule="nonzero">
<g clip-path="url(#clip26)" clip-rule="evenodd">
<g clip-path="url(#clip27)" clip-rule="evenodd">
<path style="fill:none;stroke-width:0.0204275;stroke-linecap:butt;stroke-linejoin:miter;stroke:rgb(17.96875%,20.3125%,21.09375%);stroke-opacity:0.8;stroke-miterlimit:10;" d="M 2.43333 2.79762 L 2.528985 2.304314 " transform="matrix(216.681957,0,0,216.681957,-77.579085,-112.43997)"/>
</g>
</g>
</g>
<g clip-path="url(#clip28)" clip-rule="nonzero">
<g clip-path="url(#clip29)" clip-rule="evenodd">
<g clip-path="url(#clip30)" clip-rule="evenodd">
<path style="fill:none;stroke-width:0.0204275;stroke-linecap:butt;stroke-linejoin:miter;stroke:rgb(17.96875%,20.3125%,21.09375%);stroke-opacity:0.8;stroke-miterlimit:10;" d="M 2.43333 2.79762 L 2.096539 2.666614 " transform="matrix(216.681957,0,0,216.681957,-77.579085,-112.43997)"/>
</g>
</g>
</g>
<g clip-path="url(#clip31)" clip-rule="nonzero">
<g clip-path="url(#clip32)" clip-rule="evenodd">
<g clip-path="url(#clip33)" clip-rule="evenodd">
<path style="fill:none;stroke-width:0.0204275;stroke-linecap:butt;stroke-linejoin:miter;stroke:rgb(17.96875%,20.3125%,21.09375%);stroke-opacity:0.8;stroke-miterlimit:10;" d="M 2.528985 2.304314 L 2.096539 2.666614 " transform="matrix(216.681957,0,0,216.681957,-77.579085,-112.43997)"/>
</g>
</g>
</g>
<g clip-path="url(#clip34)" clip-rule="nonzero">
<g clip-path="url(#clip35)" clip-rule="evenodd">
<g clip-path="url(#clip36)" clip-rule="evenodd">
<path style="fill:none;stroke-width:0.0204275;stroke-linecap:butt;stroke-linejoin:miter;stroke:rgb(17.96875%,20.3125%,21.09375%);stroke-opacity:0.8;stroke-miterlimit:10;" d="M 2.528985 2.304314 L 1.954572 2.570149 " transform="matrix(216.681957,0,0,216.681957,-77.579085,-112.43997)"/>
</g>
</g>
</g>
<g clip-path="url(#clip37)" clip-rule="nonzero">
<g clip-path="url(#clip38)" clip-rule="evenodd">
<g clip-path="url(#clip39)" clip-rule="evenodd">
<path style="fill:none;stroke-width:0.0204275;stroke-linecap:butt;stroke-linejoin:miter;stroke:rgb(17.96875%,20.3125%,21.09375%);stroke-opacity:0.8;stroke-miterlimit:10;" d="M 2.528985 2.304314 L 2.770464 1.685481 " transform="matrix(216.681957,0,0,216.681957,-77.579085,-112.43997)"/>
</g>
</g>
</g>
<g clip-path="url(#clip40)" clip-rule="nonzero">
<g clip-path="url(#clip41)" clip-rule="evenodd">
<g clip-path="url(#clip42)" clip-rule="evenodd">
<path style="fill:none;stroke-width:0.0204275;stroke-linecap:butt;stroke-linejoin:miter;stroke:rgb(17.96875%,20.3125%,21.09375%);stroke-opacity:0.8;stroke-miterlimit:10;" d="M 2.528985 2.304314 L 2.922004 2.157606 " transform="matrix(216.681957,0,0,216.681957,-77.579085,-112.43997)"/>
</g>
</g>
</g>
<g clip-path="url(#clip43)" clip-rule="nonzero">
<g clip-path="url(#clip44)" clip-rule="evenodd">
<g clip-path="url(#clip45)" clip-rule="evenodd">
<path style="fill:none;stroke-width:0.0204275;stroke-linecap:butt;stroke-linejoin:miter;stroke:rgb(17.96875%,20.3125%,21.09375%);stroke-opacity:0.8;stroke-miterlimit:10;" d="M 2.528985 2.304314 L 2.858258 1.844665 " transform="matrix(216.681957,0,0,216.681957,-77.579085,-112.43997)"/>
</g>
</g>
</g>
<g clip-path="url(#clip46)" clip-rule="nonzero">
<g clip-path="url(#clip47)" clip-rule="evenodd">
<g clip-path="url(#clip48)" clip-rule="evenodd">
<path style="fill:none;stroke-width:0.0204275;stroke-linecap:butt;stroke-linejoin:miter;stroke:rgb(17.96875%,20.3125%,21.09375%);stroke-opacity:0.8;stroke-miterlimit:10;" d="M 2.096539 2.666614 L 1.954572 2.570149 " transform="matrix(216.681957,0,0,216.681957,-77.579085,-112.43997)"/>
</g>
</g>
</g>
<g clip-path="url(#clip49)" clip-rule="nonzero">
<g clip-path="url(#clip50)" clip-rule="evenodd">
<g clip-path="url(#clip51)" clip-rule="evenodd">
<path style="fill:none;stroke-width:0.0204275;stroke-linecap:butt;stroke-linejoin:miter;stroke:rgb(17.96875%,20.3125%,21.09375%);stroke-opacity:0.8;stroke-miterlimit:10;" d="M 0.943514 1.325849 L 1.054906 1.309066 " transform="matrix(216.681957,0,0,216.681957,-77.579085,-112.43997)"/>
</g>
</g>
</g>
<g clip-path="url(#clip52)" clip-rule="nonzero">
<g clip-path="url(#clip53)" clip-rule="evenodd">
<g clip-path="url(#clip54)" clip-rule="evenodd">
<path style="fill:none;stroke-width:0.0204275;stroke-linecap:butt;stroke-linejoin:miter;stroke:rgb(17.96875%,20.3125%,21.09375%);stroke-opacity:0.8;stroke-miterlimit:10;" d="M 0.943514 1.325849 L 1.062982 1.009249 " transform="matrix(216.681957,0,0,216.681957,-77.579085,-112.43997)"/>
</g>
</g>
</g>
<g clip-path="url(#clip55)" clip-rule="nonzero">
<g clip-path="url(#clip56)" clip-rule="evenodd">
<g clip-path="url(#clip57)" clip-rule="evenodd">
<path style="fill:none;stroke-width:0.0204275;stroke-linecap:butt;stroke-linejoin:miter;stroke:rgb(17.96875%,20.3125%,21.09375%);stroke-opacity:0.8;stroke-miterlimit:10;" d="M 1.054906 1.309066 L 1.062982 1.009249 " transform="matrix(216.681957,0,0,216.681957,-77.579085,-112.43997)"/>
</g>
</g>
</g>
<g clip-path="url(#clip58)" clip-rule="nonzero">
<g clip-path="url(#clip59)" clip-rule="evenodd">
<g clip-path="url(#clip60)" clip-rule="evenodd">
<path style="fill:none;stroke-width:0.0204275;stroke-linecap:butt;stroke-linejoin:miter;stroke:rgb(17.96875%,20.3125%,21.09375%);stroke-opacity:0.8;stroke-miterlimit:10;" d="M 2.770464 1.685481 L 2.89965 1.423144 " transform="matrix(216.681957,0,0,216.681957,-77.579085,-112.43997)"/>
</g>
</g>
</g>
<g clip-path="url(#clip61)" clip-rule="nonzero">
<g clip-path="url(#clip62)" clip-rule="evenodd">
<g clip-path="url(#clip63)" clip-rule="evenodd">
<path style="fill:none;stroke-width:0.0204275;stroke-linecap:butt;stroke-linejoin:miter;stroke:rgb(17.96875%,20.3125%,21.09375%);stroke-opacity:0.8;stroke-miterlimit:10;" d="M 2.770464 1.685481 L 2.858258 1.844665 " transform="matrix(216.681957,0,0,216.681957,-77.579085,-112.43997)"/>
</g>
</g>
</g>
<g clip-path="url(#clip64)" clip-rule="nonzero">
<g clip-path="url(#clip65)" clip-rule="evenodd">
<g clip-path="url(#clip66)" clip-rule="evenodd">
<path style="fill:none;stroke-width:0.0204275;stroke-linecap:butt;stroke-linejoin:miter;stroke:rgb(17.96875%,20.3125%,21.09375%);stroke-opacity:0.8;stroke-miterlimit:10;" d="M 2.89965 1.423144 L 2.858258 1.844665 " transform="matrix(216.681957,0,0,216.681957,-77.579085,-112.43997)"/>
</g>
</g>
</g>
<g clip-path="url(#clip67)" clip-rule="nonzero">
<g clip-path="url(#clip68)" clip-rule="evenodd">
<g clip-path="url(#clip69)" clip-rule="evenodd">
<path style="fill:none;stroke-width:0.0204275;stroke-linecap:butt;stroke-linejoin:miter;stroke:rgb(17.96875%,20.3125%,21.09375%);stroke-opacity:0.8;stroke-miterlimit:10;" d="M 2.922004 2.157606 L 2.858258 1.844665 " transform="matrix(216.681957,0,0,216.681957,-77.579085,-112.43997)"/>
</g>
</g>
</g>
<path style="fill-rule:nonzero;fill:rgb(100%,92.941176%,43.529412%);fill-opacity:1;stroke-width:0.0204275;stroke-linecap:butt;stroke-linejoin:miter;stroke:rgb(60%,60%,60%);stroke-opacity:0.8;stroke-miterlimit:10;" d="M 0.102139 -0.00000889927 C 0.102139 0.0564174 0.0564026 0.102135 -0.00000570716 0.102135 C -0.056414 0.102135 -0.102132 0.0564174 -0.102132 -0.00000889927 C -0.102132 -0.0564172 -0.056414 -0.102135 -0.00000570716 -0.102135 C 0.0564026 -0.102135 0.102139 -0.0564172 0.102139 -0.00000889927 Z M 0.102139 -0.00000889927 " transform="matrix(216.681957,0,0,216.681957,135.794205,301.599585)"/>
<path style="fill-rule:nonzero;fill:rgb(100%,92.941176%,43.529412%);fill-opacity:1;stroke-width:0.0204275;stroke-linecap:butt;stroke-linejoin:miter;stroke:rgb(60%,60%,60%);stroke-opacity:0.8;stroke-miterlimit:10;" d="M 0.102132 -0.0000017771 C 0.102132 0.0564065 0.0564141 0.102142 0.00000577511 0.102142 C -0.0564025 0.102142 -0.102138 0.0564065 -0.102138 -0.0000017771 C -0.102138 -0.0564101 -0.0564025 -0.102146 0.00000577511 -0.102146 C 0.0564141 -0.102146 0.102132 -0.0564101 0.102132 -0.0000017771 Z M 0.102132 -0.0000017771 " transform="matrix(216.681957,0,0,216.681957,154.100311,404.367573)"/>
<path style="fill-rule:nonzero;fill:rgb(100%,92.941176%,43.529412%);fill-opacity:1;stroke-width:0.0204275;stroke-linecap:butt;stroke-linejoin:miter;stroke:rgb(60%,60%,60%);stroke-opacity:0.8;stroke-miterlimit:10;" d="M 0.102132 0.0000023671 C 0.102132 0.0564106 0.0564139 0.102129 0.0000056409 0.102129 C -0.0564026 0.102129 -0.102139 0.0564106 -0.102139 0.0000023671 C -0.102139 -0.0564059 -0.0564026 -0.102142 0.0000056409 -0.102142 C 0.0564139 -0.102142 0.102132 -0.0564059 0.102132 0.0000023671 Z M 0.102132 0.0000023671 " transform="matrix(216.681957,0,0,216.681957,241.795653,421.765112)"/>
<path style="fill-rule:nonzero;fill:rgb(100%,92.941176%,43.529412%);fill-opacity:1;stroke-width:0.0204275;stroke-linecap:butt;stroke-linejoin:miter;stroke:rgb(60%,60%,60%);stroke-opacity:0.8;stroke-miterlimit:10;" d="M 0.102139 0.00000453447 C 0.102139 0.0564128 0.0564033 0.102131 -0.00000498279 0.102131 C -0.0564133 0.102131 -0.102131 0.0564128 -0.102131 0.00000453447 C -0.102131 -0.0564037 -0.0564133 -0.10214 -0.00000498279 -0.10214 C 0.0564033 -0.10214 0.102139 -0.0564037 0.102139 0.00000453447 Z M 0.102139 0.00000453447 " transform="matrix(216.681957,0,0,216.681957,44.434673,339.737299)"/>
<path style="fill-rule:nonzero;fill:rgb(55.294118%,82.745098%,78.039216%);fill-opacity:1;stroke-width:0.0204275;stroke-linecap:butt;stroke-linejoin:miter;stroke:rgb(60%,60%,60%);stroke-opacity:0.8;stroke-miterlimit:10;" d="M 0.102132 -0.00000130163 C 0.102132 0.056407 0.0564136 0.102143 0.00000529956 0.102143 C -0.056403 0.102143 -0.102139 0.056407 -0.102139 -0.00000130163 C -0.102139 -0.0564096 -0.056403 -0.102146 0.00000529956 -0.102146 C 0.0564136 -0.102146 0.102132 -0.0564096 0.102132 -0.00000130163 Z M 0.102132 -0.00000130163 " transform="matrix(216.681957,0,0,216.681957,449.678539,493.754188)"/>
<path style="fill-rule:nonzero;fill:rgb(55.294118%,82.745098%,78.039216%);fill-opacity:1;stroke-width:0.0204275;stroke-linecap:butt;stroke-linejoin:miter;stroke:rgb(60%,60%,60%);stroke-opacity:0.8;stroke-miterlimit:10;" d="M 0.10213 -0.00000770296 C 0.10213 0.0564006 0.056412 0.102137 0.000003739 0.102137 C -0.0564045 0.102137 -0.10214 0.0564006 -0.10214 -0.00000770296 C -0.10214 -0.056416 -0.0564045 -0.102134 0.000003739 -0.102134 C 0.056412 -0.102134 0.10213 -0.056416 0.10213 -0.00000770296 Z M 0.10213 -0.00000770296 " transform="matrix(216.681957,0,0,216.681957,470.40544,386.86495)"/>
<path style="fill-rule:nonzero;fill:rgb(55.294118%,82.745098%,78.039216%);fill-opacity:1;stroke-width:0.0204275;stroke-linecap:butt;stroke-linejoin:miter;stroke:rgb(60%,60%,60%);stroke-opacity:0.8;stroke-miterlimit:10;" d="M 0.102139 -0.00000391237 C 0.102139 0.0564044 0.0564031 0.10214 -0.00000515366 0.10214 C -0.0564134 0.10214 -0.102131 0.0564044 -0.102131 -0.00000391237 C -0.102131 -0.0564122 -0.0564134 -0.10213 -0.00000515366 -0.10213 C 0.0564031 -0.10213 0.102139 -0.0564122 0.102139 -0.00000391237 Z M 0.102139 -0.00000391237 " transform="matrix(216.681957,0,0,216.681957,376.704242,465.368035)"/>
<path style="fill-rule:nonzero;fill:rgb(100%,92.941176%,43.529412%);fill-opacity:1;stroke-width:0.0204275;stroke-linecap:butt;stroke-linejoin:miter;stroke:rgb(60%,60%,60%);stroke-opacity:0.8;stroke-miterlimit:10;" d="M 0.102142 0.000000287026 C 0.102142 0.0564086 0.0564061 0.102145 -0.00000219323 0.102145 C -0.0564105 0.102145 -0.102128 0.0564086 -0.102128 0.000000287026 C -0.102128 -0.056408 -0.0564105 -0.102144 -0.00000219323 -0.102144 C 0.0564061 -0.102144 0.102142 -0.056408 0.102142 0.000000287026 Z M 0.102142 0.000000287026 " transform="matrix(216.681957,0,0,216.681957,345.941881,444.464782)"/>
<path style="fill-rule:nonzero;fill:rgb(100%,92.941176%,43.529412%);fill-opacity:1;stroke-width:0.0204275;stroke-linecap:butt;stroke-linejoin:miter;stroke:rgb(60%,60%,60%);stroke-opacity:0.8;stroke-miterlimit:10;" d="M 0.102136 0.0000000237156 C 0.102136 0.0564083 0.0564179 0.102144 -0.00000841154 0.102144 C -0.0564167 0.102144 -0.102135 0.0564083 -0.102135 0.0000000237156 C -0.102135 -0.0564083 -0.0564167 -0.102144 -0.00000841154 -0.102144 C 0.0564179 -0.102144 0.102136 -0.0564083 0.102136 0.0000000237156 Z M 0.102136 0.0000000237156 " transform="matrix(216.681957,0,0,216.681957,126.865104,174.847651)"/>
<path style="fill-rule:nonzero;fill:rgb(100%,92.941176%,43.529412%);fill-opacity:1;stroke-width:0.0204275;stroke-linecap:butt;stroke-linejoin:miter;stroke:rgb(60%,60%,60%);stroke-opacity:0.8;stroke-miterlimit:10;" d="M 0.102145 -0.00000707175 C 0.102145 0.0564012 0.0564089 0.102137 0.000000623337 0.102137 C -0.0564077 0.102137 -0.102144 0.0564012 -0.102144 -0.00000707175 C -0.102144 -0.0564154 -0.0564077 -0.102133 0.000000623337 -0.102133 C 0.0564089 -0.102133 0.102145 -0.0564154 0.102145 -0.00000707175 Z M 0.102145 -0.00000707175 " transform="matrix(216.681957,0,0,216.681957,150.999865,171.21247)"/>
<path style="fill-rule:nonzero;fill:rgb(100%,92.941176%,43.529412%);fill-opacity:1;stroke-width:0.0204275;stroke-linecap:butt;stroke-linejoin:miter;stroke:rgb(60%,60%,60%);stroke-opacity:0.8;stroke-miterlimit:10;" d="M 0.10213 0.00000130163 C 0.10213 0.0564096 0.0564124 0.102146 0.00000407926 0.102146 C -0.0564042 0.102146 -0.10214 0.0564096 -0.10214 0.00000130163 C -0.10214 -0.056407 -0.0564042 -0.102143 0.00000407926 -0.102143 C 0.0564124 -0.102143 0.10213 -0.056407 0.10213 0.00000130163 Z M 0.10213 0.00000130163 " transform="matrix(216.681957,0,0,216.681957,152.749116,106.245812)"/>
<path style="fill-rule:nonzero;fill:rgb(55.294118%,82.745098%,78.039216%);fill-opacity:1;stroke-width:0.0204275;stroke-linecap:butt;stroke-linejoin:miter;stroke:rgb(60%,60%,60%);stroke-opacity:0.8;stroke-miterlimit:10;" d="M 0.102144 -0.00000472366 C 0.102144 0.0564036 0.056408 0.10214 -0.000000299813 0.10214 C -0.0564086 0.10214 -0.102145 0.0564036 -0.102145 -0.00000472366 C -0.102145 -0.056413 -0.0564086 -0.102131 -0.000000299813 -0.102131 C 0.056408 -0.102131 0.102144 -0.056413 0.102144 -0.00000472366 Z M 0.102144 -0.00000472366 " transform="matrix(216.681957,0,0,216.681957,522.730534,252.774461)"/>
<path style="fill-rule:nonzero;fill:rgb(55.294118%,82.745098%,78.039216%);fill-opacity:1;stroke-width:0.0204275;stroke-linecap:butt;stroke-linejoin:miter;stroke:rgb(60%,60%,60%);stroke-opacity:0.8;stroke-miterlimit:10;" d="M 0.102137 -0.0000018149 C 0.102137 0.0564065 0.0564014 0.102142 -0.00000691015 0.102142 C -0.0564152 0.102142 -0.102133 0.0564065 -0.102133 -0.0000018149 C -0.102133 -0.0564101 -0.0564152 -0.102146 -0.00000691015 -0.102146 C 0.0564014 -0.102146 0.102137 -0.0564101 0.102137 -0.0000018149 Z M 0.102137 -0.0000018149 " transform="matrix(216.681957,0,0,216.681957,550.724154,195.930081)"/>
<path style="fill-rule:nonzero;fill:rgb(55.294118%,82.745098%,78.039216%);fill-opacity:1;stroke-width:0.0204275;stroke-linecap:butt;stroke-linejoin:miter;stroke:rgb(60%,60%,60%);stroke-opacity:0.8;stroke-miterlimit:10;" d="M 0.102131 0.00000592363 C 0.102131 0.0564142 0.0564133 0.102132 0.00000498279 0.102132 C -0.0564033 0.102132 -0.102139 0.0564142 -0.102139 0.00000592363 C -0.102139 -0.0564024 -0.0564033 -0.102138 0.00000498279 -0.102138 C 0.0564133 -0.102138 0.102131 -0.0564024 0.102131 0.00000592363 Z M 0.102131 0.00000592363 " transform="matrix(216.681957,0,0,216.681957,555.565327,355.072935)"/>
<path style="fill-rule:nonzero;fill:rgb(55.294118%,82.745098%,78.039216%);fill-opacity:1;stroke-width:0.0204275;stroke-linecap:butt;stroke-linejoin:miter;stroke:rgb(60%,60%,60%);stroke-opacity:0.8;stroke-miterlimit:10;" d="M 0.102141 0.00000599849 C 0.102141 0.0564143 0.0564049 0.102132 -0.00000342716 0.102132 C -0.0564117 0.102132 -0.10213 0.0564143 -0.10213 0.00000599849 C -0.10213 -0.0564023 -0.0564117 -0.102138 -0.00000342716 -0.102138 C 0.0564049 -0.102138 0.102141 -0.0564023 0.102141 0.00000599849 Z M 0.102141 0.00000599849 " transform="matrix(216.681957,0,0,216.681957,541.754649,287.264325)"/>
</g>
</svg>
