<?xml version="1.0" encoding="UTF-8"?>
<svg xmlns="http://www.w3.org/2000/svg" xmlns:xlink="http://www.w3.org/1999/xlink" width="600pt" height="600pt" viewBox="0 0 600 600" version="1.1">
<defs>
<clipPath id="clip1">
  <path d="M 246 65.703125 L 381 65.703125 L 381 241.863281 L 246 241.863281 Z M 246 65.703125 "/>
</clipPath>
<clipPath id="clip2">
  <path d="M 126.59375 65.703125 L 500.292969 65.703125 L 500.292969 241.863281 L 126.59375 241.863281 Z M 126.59375 65.703125 L 342.191406 214.972656 C 342.191406 226.453125 332.886719 235.761719 321.402344 235.761719 C 309.921875 235.761719 300.613281 226.453125 300.613281 214.972656 C 300.613281 203.488281 309.921875 194.183594 321.402344 194.183594 C 332.886719 194.183594 342.191406 203.488281 342.191406 214.972656 Z M 126.59375 65.703125 "/>
</clipPath>
<clipPath id="clip3">
  <path d="M 126.59375 65.703125 L 500.292969 65.703125 L 500.292969 241.863281 L 126.59375 241.863281 Z M 126.59375 65.703125 L 326.269531 92.589844 C 326.269531 104.070312 316.960938 113.378906 305.480469 113.378906 C 293.996094 113.378906 284.691406 104.070312 284.691406 92.589844 C 284.691406 81.109375 293.996094 71.800781 305.480469 71.800781 C 316.960938 71.800781 326.269531 81.109375 326.269531 92.589844 Z M 126.59375 65.703125 "/>
</clipPath>
<clipPath id="clip4">
  <path d="M 223 38 L 381 38 L 381 273.921875 L 223 273.921875 Z M 223 38 "/>
</clipPath>
<clipPath id="clip5">
  <path d="M 111.164062 37.992188 L 493.027344 37.992188 L 493.027344 273.921875 L 111.164062 273.921875 Z M 111.164062 37.992188 L 342.191406 214.972656 C 342.191406 226.453125 332.886719 235.761719 321.402344 235.761719 C 309.921875 235.761719 300.613281 226.453125 300.613281 214.972656 C 300.613281 203.488281 309.921875 194.183594 321.402344 194.183594 C 332.886719 194.183594 342.191406 203.488281 342.191406 214.972656 Z M 111.164062 37.992188 "/>
</clipPath>
<clipPath id="clip6">
  <path d="M 111.164062 37.992188 L 493.027344 37.992188 L 493.027344 273.921875 L 111.164062 273.921875 Z M 111.164062 37.992188 L 303.574219 96.9375 C 303.574219 108.417969 294.269531 117.726562 282.785156 117.726562 C 271.304688 117.726562 262 108.417969 262 96.9375 C 262 85.457031 271.304688 76.148438 282.785156 76.148438 C 294.269531 76.148438 303.574219 85.457031 303.574219 96.9375 Z M 111.164062 37.992188 "/>
</clipPath>
<clipPath id="clip7">
  <path d="M 196 156 L 381 156 L 381 404 L 196 404 Z M 196 156 "/>
</clipPath>
<clipPath id="clip8">
  <path d="M 94.179688 131.191406 L 482.746094 131.191406 L 482.746094 428.816406 L 94.179688 428.816406 Z M 94.179688 131.191406 L 342.191406 214.972656 C 342.191406 226.453125 332.886719 235.761719 321.402344 235.761719 C 309.921875 235.761719 300.613281 226.453125 300.613281 214.972656 C 300.613281 203.488281 309.921875 194.183594 321.402344 194.183594 C 332.886719 194.183594 342.191406 203.488281 342.191406 214.972656 Z M 94.179688 131.191406 "/>
</clipPath>
<clipPath id="clip9">
  <path d="M 94.179688 131.191406 L 482.746094 131.191406 L 482.746094 428.816406 L 94.179688 428.816406 Z M 94.179688 131.191406 L 276.308594 345.03125 C 276.308594 356.511719 267 365.816406 255.519531 365.816406 C 244.039062 365.816406 234.730469 356.511719 234.730469 345.03125 C 234.730469 333.546875 244.039062 324.242188 255.519531 324.242188 C 267 324.242188 276.308594 333.546875 276.308594 345.03125 Z M 94.179688 131.191406 "/>
</clipPath>
<clipPath id="clip10">
  <path d="M 262 156 L 415 156 L 415 362 L 262 362 Z M 262 156 "/>
</clipPath>
<clipPath id="clip11">
  <path d="M 153.101562 146.753906 L 524.023438 146.753906 L 524.023438 371.121094 L 153.101562 371.121094 Z M 153.101562 146.753906 L 342.191406 214.972656 C 342.191406 226.453125 332.886719 235.761719 321.402344 235.761719 C 309.921875 235.761719 300.613281 226.453125 300.613281 214.972656 C 300.613281 203.488281 309.921875 194.183594 321.402344 194.183594 C 332.886719 194.183594 342.191406 203.488281 342.191406 214.972656 Z M 153.101562 146.753906 "/>
</clipPath>
<clipPath id="clip12">
  <path d="M 153.101562 146.753906 L 524.023438 146.753906 L 524.023438 371.121094 L 153.101562 371.121094 Z M 153.101562 146.753906 L 376.507812 302.898438 C 376.507812 314.378906 367.199219 323.683594 355.71875 323.683594 C 344.238281 323.683594 334.929688 314.378906 334.929688 302.898438 C 334.929688 291.414062 344.238281 282.109375 355.71875 282.109375 C 367.199219 282.109375 376.507812 291.414062 376.507812 302.898438 Z M 153.101562 146.753906 "/>
</clipPath>
<clipPath id="clip13">
  <path d="M 191 156 L 381 156 L 381 315 L 191 315 Z M 191 156 "/>
</clipPath>
<clipPath id="clip14">
  <path d="M 158.933594 57.753906 L 412.847656 57.753906 L 412.847656 412.699219 L 158.933594 412.699219 Z M 158.933594 57.753906 L 342.191406 214.972656 C 342.191406 226.453125 332.886719 235.761719 321.402344 235.761719 C 309.921875 235.761719 300.613281 226.453125 300.613281 214.972656 C 300.613281 203.488281 309.921875 194.183594 321.402344 194.183594 C 332.886719 194.183594 342.191406 203.488281 342.191406 214.972656 Z M 158.933594 57.753906 "/>
</clipPath>
<clipPath id="clip15">
  <path d="M 158.933594 57.753906 L 412.847656 57.753906 L 412.847656 412.699219 L 158.933594 412.699219 Z M 158.933594 57.753906 L 271.164062 255.476562 C 271.164062 266.957031 261.855469 276.265625 250.375 276.265625 C 238.894531 276.265625 229.585938 266.957031 229.585938 255.476562 C 229.585938 243.996094 238.894531 234.6875 250.375 234.6875 C 261.855469 234.6875 271.164062 243.996094 271.164062 255.476562 Z M 158.933594 57.753906 "/>
</clipPath>
<clipPath id="clip16">
  <path d="M 262.375 156 L 528.703125 156 L 528.703125 323 L 262.375 323 Z M 262.375 156 "/>
</clipPath>
<clipPath id="clip17">
  <path d="M 262.375 43.378906 L 528.703125 43.378906 L 528.703125 435.160156 L 262.375 435.160156 Z M 262.375 43.378906 L 342.191406 214.972656 C 342.191406 226.453125 332.886719 235.761719 321.402344 235.761719 C 309.921875 235.761719 300.613281 226.453125 300.613281 214.972656 C 300.613281 203.488281 309.921875 194.183594 321.402344 194.183594 C 332.886719 194.183594 342.191406 203.488281 342.191406 214.972656 Z M 262.375 43.378906 "/>
</clipPath>
<clipPath id="clip18">
  <path d="M 262.375 43.378906 L 528.703125 43.378906 L 528.703125 435.160156 L 262.375 435.160156 Z M 262.375 43.378906 L 490.460938 263.5625 C 490.460938 275.042969 481.152344 284.351562 469.671875 284.351562 C 458.191406 284.351562 448.882812 275.042969 448.882812 263.5625 C 448.882812 252.082031 458.191406 242.773438 469.671875 242.773438 C 481.152344 242.773438 490.460938 252.082031 490.460938 263.5625 Z M 262.375 43.378906 "/>
</clipPath>
<clipPath id="clip19">
  <path d="M 220 0 L 365 0 L 365 152 L 220 152 Z M 220 0 "/>
</clipPath>
<clipPath id="clip20">
  <path d="M 119.210938 -44.382812 L 465.136719 -44.382812 L 465.136719 179.625 L 119.210938 179.625 Z M 119.210938 -44.382812 L 326.269531 92.589844 C 326.269531 104.070312 316.960938 113.378906 305.480469 113.378906 C 293.996094 113.378906 284.691406 104.070312 284.691406 92.589844 C 284.691406 81.109375 293.996094 71.800781 305.480469 71.800781 C 316.960938 71.800781 326.269531 81.109375 326.269531 92.589844 Z M 119.210938 -44.382812 "/>
</clipPath>
<clipPath id="clip21">
  <path d="M 119.210938 -44.382812 L 465.136719 -44.382812 L 465.136719 179.625 L 119.210938 179.625 Z M 119.210938 -44.382812 L 299.652344 42.648438 C 299.652344 54.128906 290.34375 63.4375 278.863281 63.4375 C 267.378906 63.4375 258.074219 54.128906 258.074219 42.648438 C 258.074219 31.167969 267.378906 21.859375 278.863281 21.859375 C 290.34375 21.859375 299.652344 31.167969 299.652344 42.648438 Z M 119.210938 -44.382812 "/>
</clipPath>
<clipPath id="clip22">
  <path d="M 245.476562 33 L 342.792969 33 L 342.792969 156 L 245.476562 156 Z M 245.476562 33 "/>
</clipPath>
<clipPath id="clip23">
  <path d="M 245.476562 -84.621094 L 342.792969 -84.621094 L 342.792969 274.152344 L 245.476562 274.152344 Z M 245.476562 -84.621094 L 326.269531 92.589844 C 326.269531 104.070312 316.960938 113.378906 305.480469 113.378906 C 293.996094 113.378906 284.691406 104.070312 284.691406 92.589844 C 284.691406 81.109375 293.996094 71.800781 305.480469 71.800781 C 316.960938 71.800781 326.269531 81.109375 326.269531 92.589844 Z M 245.476562 -84.621094 "/>
</clipPath>
<clipPath id="clip24">
  <path d="M 245.476562 -84.621094 L 342.792969 -84.621094 L 342.792969 274.152344 L 245.476562 274.152344 Z M 245.476562 -84.621094 L 303.574219 96.9375 C 303.574219 108.417969 294.269531 117.726562 282.785156 117.726562 C 271.304688 117.726562 262 108.417969 262 96.9375 C 262 85.457031 271.304688 76.148438 282.785156 76.148438 C 294.269531 76.148438 303.574219 85.457031 303.574219 96.9375 Z M 245.476562 -84.621094 "/>
</clipPath>
<clipPath id="clip25">
  <path d="M 220 25.796875 L 342 25.796875 L 342 113.792969 L 220 113.792969 Z M 220 25.796875 "/>
</clipPath>
<clipPath id="clip26">
  <path d="M 98.964844 25.796875 L 462.6875 25.796875 L 462.6875 113.792969 L 98.964844 113.792969 Z M 98.964844 25.796875 L 299.652344 42.648438 C 299.652344 54.128906 290.34375 63.4375 278.863281 63.4375 C 267.378906 63.4375 258.074219 54.128906 258.074219 42.648438 C 258.074219 31.167969 267.378906 21.859375 278.863281 21.859375 C 290.34375 21.859375 299.652344 31.167969 299.652344 42.648438 Z M 98.964844 25.796875 "/>
</clipPath>
<clipPath id="clip27">
  <path d="M 98.964844 25.796875 L 462.6875 25.796875 L 462.6875 113.792969 L 98.964844 113.792969 Z M 98.964844 25.796875 L 303.574219 96.9375 C 303.574219 108.417969 294.269531 117.726562 282.785156 117.726562 C 271.304688 117.726562 262 108.417969 262 96.9375 C 262 85.457031 271.304688 76.148438 282.785156 76.148438 C 294.269531 76.148438 303.574219 85.457031 303.574219 96.9375 Z M 98.964844 25.796875 "/>
</clipPath>
<clipPath id="clip28">
  <path d="M 196 300.324219 L 350 300.324219 L 350 536.980469 L 196 536.980469 Z M 196 300.324219 "/>
</clipPath>
<clipPath id="clip29">
  <path d="M 79.890625 300.324219 L 465.972656 300.324219 L 465.972656 536.980469 L 79.890625 536.980469 Z M 79.890625 300.324219 L 311.128906 492.269531 C 311.128906 503.75 301.824219 513.058594 290.339844 513.058594 C 278.859375 513.058594 269.550781 503.75 269.550781 492.269531 C 269.550781 480.789062 278.859375 471.480469 290.339844 471.480469 C 301.824219 471.480469 311.128906 480.789062 311.128906 492.269531 Z M 79.890625 300.324219 "/>
</clipPath>
<clipPath id="clip30">
  <path d="M 79.890625 300.324219 L 465.972656 300.324219 L 465.972656 536.980469 L 79.890625 536.980469 Z M 79.890625 300.324219 L 276.308594 345.03125 C 276.308594 356.511719 267 365.816406 255.519531 365.816406 C 244.039062 365.816406 234.730469 356.511719 234.730469 345.03125 C 234.730469 333.546875 244.039062 324.242188 255.519531 324.242188 C 267 324.242188 276.308594 333.546875 276.308594 345.03125 Z M 79.890625 300.324219 "/>
</clipPath>
<clipPath id="clip31">
  <path d="M 231 433 L 380 433 L 380 600 L 231 600 Z M 231 433 "/>
</clipPath>
<clipPath id="clip32">
  <path d="M 126.34375 413.964844 L 484.53125 413.964844 L 484.53125 635.660156 L 126.34375 635.660156 Z M 126.34375 413.964844 L 311.128906 492.269531 C 311.128906 503.75 301.824219 513.058594 290.339844 513.058594 C 278.859375 513.058594 269.550781 503.75 269.550781 492.269531 C 269.550781 480.789062 278.859375 471.480469 290.339844 471.480469 C 301.824219 471.480469 311.128906 480.789062 311.128906 492.269531 Z M 126.34375 413.964844 "/>
</clipPath>
<clipPath id="clip33">
  <path d="M 126.34375 413.964844 L 484.53125 413.964844 L 484.53125 635.660156 L 126.34375 635.660156 Z M 126.34375 413.964844 L 341.320312 557.351562 C 341.320312 568.832031 332.015625 578.140625 320.53125 578.140625 C 309.050781 578.140625 299.742188 568.832031 299.742188 557.351562 C 299.742188 545.871094 309.050781 536.5625 320.53125 536.5625 C 332.015625 536.5625 341.320312 545.871094 341.320312 557.351562 Z M 126.34375 413.964844 "/>
</clipPath>
<clipPath id="clip34">
  <path d="M 196 286 L 384 286 L 384 429 L 196 429 Z M 196 286 "/>
</clipPath>
<clipPath id="clip35">
  <path d="M 192.851562 174.671875 L 387.617188 174.671875 L 387.617188 539.835938 L 192.851562 539.835938 Z M 192.851562 174.671875 L 276.308594 345.03125 C 276.308594 356.511719 267 365.816406 255.519531 365.816406 C 244.039062 365.816406 234.730469 356.511719 234.730469 345.03125 C 234.730469 333.546875 244.039062 324.242188 255.519531 324.242188 C 267 324.242188 276.308594 333.546875 276.308594 345.03125 Z M 192.851562 174.671875 "/>
</clipPath>
<clipPath id="clip36">
  <path d="M 192.851562 174.671875 L 387.617188 174.671875 L 387.617188 539.835938 L 192.851562 539.835938 Z M 192.851562 174.671875 L 345.734375 369.472656 C 345.734375 380.953125 336.425781 390.261719 324.945312 390.261719 C 313.464844 390.261719 304.15625 380.953125 304.15625 369.472656 C 304.15625 357.992188 313.464844 348.683594 324.945312 348.683594 C 336.425781 348.683594 345.734375 357.992188 345.734375 369.472656 Z M 192.851562 174.671875 "/>
</clipPath>
<clipPath id="clip37">
  <path d="M 196 244 L 415 244 L 415 404 L 196 404 Z M 196 244 "/>
</clipPath>
<clipPath id="clip38">
  <path d="M 183.066406 136.316406 L 428.175781 136.316406 L 428.175781 511.617188 L 183.066406 511.617188 Z M 183.066406 136.316406 L 276.308594 345.03125 C 276.308594 356.511719 267 365.816406 255.519531 365.816406 C 244.039062 365.816406 234.730469 356.511719 234.730469 345.03125 C 234.730469 333.546875 244.039062 324.242188 255.519531 324.242188 C 267 324.242188 276.308594 333.546875 276.308594 345.03125 Z M 183.066406 136.316406 "/>
</clipPath>
<clipPath id="clip39">
  <path d="M 183.066406 136.316406 L 428.175781 136.316406 L 428.175781 511.617188 L 183.066406 511.617188 Z M 183.066406 136.316406 L 376.507812 302.898438 C 376.507812 314.378906 367.199219 323.683594 355.71875 323.683594 C 344.238281 323.683594 334.929688 314.378906 334.929688 302.898438 C 334.929688 291.414062 344.238281 282.109375 355.71875 282.109375 C 367.199219 282.109375 376.507812 291.414062 376.507812 302.898438 Z M 183.066406 136.316406 "/>
</clipPath>
<clipPath id="clip40">
  <path d="M 191 241.214844 L 315 241.214844 L 315 359.296875 L 191 359.296875 Z M 191 241.214844 "/>
</clipPath>
<clipPath id="clip41">
  <path d="M 70.308594 241.214844 L 435.589844 241.214844 L 435.589844 359.296875 L 70.308594 359.296875 Z M 70.308594 241.214844 L 276.308594 345.03125 C 276.308594 356.511719 267 365.816406 255.519531 365.816406 C 244.039062 365.816406 234.730469 356.511719 234.730469 345.03125 C 234.730469 333.546875 244.039062 324.242188 255.519531 324.242188 C 267 324.242188 276.308594 333.546875 276.308594 345.03125 Z M 70.308594 241.214844 "/>
</clipPath>
<clipPath id="clip42">
  <path d="M 70.308594 241.214844 L 435.589844 241.214844 L 435.589844 359.296875 L 70.308594 359.296875 Z M 70.308594 241.214844 L 271.164062 255.476562 C 271.164062 266.957031 261.855469 276.265625 250.375 276.265625 C 238.894531 276.265625 229.585938 266.957031 229.585938 255.476562 C 229.585938 243.996094 238.894531 234.6875 250.375 234.6875 C 261.855469 234.6875 271.164062 243.996094 271.164062 255.476562 Z M 70.308594 241.214844 "/>
</clipPath>
<clipPath id="clip43">
  <path d="M 103 286 L 315 286 L 315 441 L 103 441 Z M 103 286 "/>
</clipPath>
<clipPath id="clip44">
  <path d="M 92.957031 177.089844 L 324.648438 177.089844 L 324.648438 550.039062 L 92.957031 550.039062 Z M 92.957031 177.089844 L 276.308594 345.03125 C 276.308594 356.511719 267 365.816406 255.519531 365.816406 C 244.039062 365.816406 234.730469 356.511719 234.730469 345.03125 C 234.730469 333.546875 244.039062 324.242188 255.519531 324.242188 C 267 324.242188 276.308594 333.546875 276.308594 345.03125 Z M 92.957031 177.089844 "/>
</clipPath>
<clipPath id="clip45">
  <path d="M 92.957031 177.089844 L 324.648438 177.089844 L 324.648438 550.039062 L 92.957031 550.039062 Z M 92.957031 177.089844 L 182.871094 382.09375 C 182.871094 393.574219 173.5625 402.882812 162.082031 402.882812 C 150.601562 402.882812 141.292969 393.574219 141.292969 382.09375 C 141.292969 370.613281 150.601562 361.304688 162.082031 361.304688 C 173.5625 361.304688 182.871094 370.613281 182.871094 382.09375 Z M 92.957031 177.089844 "/>
</clipPath>
<clipPath id="clip46">
  <path d="M 109.84375 286 L 272.425781 286 L 272.425781 414 L 109.84375 414 Z M 109.84375 286 "/>
</clipPath>
<clipPath id="clip47">
  <path d="M 109.84375 165.136719 L 272.425781 165.136719 L 272.425781 534.269531 L 109.84375 534.269531 Z M 109.84375 165.136719 L 276.308594 345.03125 C 276.308594 356.511719 267 365.816406 255.519531 365.816406 C 244.039062 365.816406 234.730469 356.511719 234.730469 345.03125 C 234.730469 333.546875 244.039062 324.242188 255.519531 324.242188 C 267 324.242188 276.308594 333.546875 276.308594 345.03125 Z M 109.84375 165.136719 "/>
</clipPath>
<clipPath id="clip48">
  <path d="M 109.84375 165.136719 L 272.425781 165.136719 L 272.425781 534.269531 L 109.84375 534.269531 Z M 109.84375 165.136719 L 147.535156 354.371094 C 147.535156 365.851562 138.226562 375.160156 126.746094 375.160156 C 115.265625 375.160156 105.957031 365.851562 105.957031 354.371094 C 105.957031 342.890625 115.265625 333.582031 126.746094 333.582031 C 138.226562 333.582031 147.535156 342.890625 147.535156 354.371094 Z M 109.84375 165.136719 "/>
</clipPath>
<clipPath id="clip49">
  <path d="M 266 244 L 415 244 L 415 429 L 266 429 Z M 266 244 "/>
</clipPath>
<clipPath id="clip50">
  <path d="M 160.847656 224.8125 L 519.820312 224.8125 L 519.820312 447.5625 L 160.847656 447.5625 Z M 160.847656 224.8125 L 345.734375 369.472656 C 345.734375 380.953125 336.425781 390.261719 324.945312 390.261719 C 313.464844 390.261719 304.15625 380.953125 304.15625 369.472656 C 304.15625 357.992188 313.464844 348.683594 324.945312 348.683594 C 336.425781 348.683594 345.734375 357.992188 345.734375 369.472656 Z M 160.847656 224.8125 "/>
</clipPath>
<clipPath id="clip51">
  <path d="M 160.847656 224.8125 L 519.820312 224.8125 L 519.820312 447.5625 L 160.847656 447.5625 Z M 160.847656 224.8125 L 376.507812 302.898438 C 376.507812 314.378906 367.199219 323.683594 355.71875 323.683594 C 344.238281 323.683594 334.929688 314.378906 334.929688 302.898438 C 334.929688 291.414062 344.238281 282.109375 355.71875 282.109375 C 367.199219 282.109375 376.507812 291.414062 376.507812 302.898438 Z M 160.847656 224.8125 "/>
</clipPath>
<clipPath id="clip52">
  <path d="M 296 204 L 529 204 L 529 362 L 296 362 Z M 296 204 "/>
</clipPath>
<clipPath id="clip53">
  <path d="M 294.066406 92.847656 L 531.328125 92.847656 L 531.328125 473.617188 L 294.066406 473.617188 Z M 294.066406 92.847656 L 376.507812 302.898438 C 376.507812 314.378906 367.199219 323.683594 355.71875 323.683594 C 344.238281 323.683594 334.929688 314.378906 334.929688 302.898438 C 334.929688 291.414062 344.238281 282.109375 355.71875 282.109375 C 367.199219 282.109375 376.507812 291.414062 376.507812 302.898438 Z M 294.066406 92.847656 "/>
</clipPath>
<clipPath id="clip54">
  <path d="M 294.066406 92.847656 L 531.328125 92.847656 L 531.328125 473.617188 L 294.066406 473.617188 Z M 294.066406 92.847656 L 490.460938 263.5625 C 490.460938 275.042969 481.152344 284.351562 469.671875 284.351562 C 458.191406 284.351562 448.882812 275.042969 448.882812 263.5625 C 448.882812 252.082031 458.191406 242.773438 469.671875 242.773438 C 481.152344 242.773438 490.460938 252.082031 490.460938 263.5625 Z M 294.066406 92.847656 "/>
</clipPath>
<clipPath id="clip55">
  <path d="M 410 204 L 600 204 L 600 369 L 410 369 Z M 410 204 "/>
</clipPath>
<clipPath id="clip56">
  <path d="M 373.808594 108.953125 L 641 108.953125 L 641 464.171875 L 373.808594 464.171875 Z M 373.808594 108.953125 L 490.460938 263.5625 C 490.460938 275.042969 481.152344 284.351562 469.671875 284.351562 C 458.191406 284.351562 448.882812 275.042969 448.882812 263.5625 C 448.882812 252.082031 458.191406 242.773438 469.671875 242.773438 C 481.152344 242.773438 490.460938 252.082031 490.460938 263.5625 Z M 373.808594 108.953125 "/>
</clipPath>
<clipPath id="clip57">
  <path d="M 373.808594 108.953125 L 641 108.953125 L 641 464.171875 L 373.808594 464.171875 Z M 373.808594 108.953125 L 565.921875 309.558594 C 565.921875 321.042969 556.613281 330.347656 545.132812 330.347656 C 533.652344 330.347656 524.34375 321.042969 524.34375 309.558594 C 524.34375 298.078125 533.652344 288.769531 545.132812 288.769531 C 556.613281 288.769531 565.921875 298.078125 565.921875 309.558594 Z M 373.808594 108.953125 "/>
</clipPath>
<clipPath id="clip58">
  <path d="M 450.921875 204 L 565.558594 204 L 565.558594 329 L 450.921875 329 Z M 450.921875 204 "/>
</clipPath>
<clipPath id="clip59">
  <path d="M 450.921875 83.808594 L 565.558594 83.808594 L 565.558594 449.730469 L 450.921875 449.730469 Z M 450.921875 83.808594 L 490.460938 263.5625 C 490.460938 275.042969 481.152344 284.351562 469.671875 284.351562 C 458.191406 284.351562 448.882812 275.042969 448.882812 263.5625 C 448.882812 252.082031 458.191406 242.773438 469.671875 242.773438 C 481.152344 242.773438 490.460938 252.082031 490.460938 263.5625 Z M 450.921875 83.808594 "/>
</clipPath>
<clipPath id="clip60">
  <path d="M 450.921875 83.808594 L 565.558594 83.808594 L 565.558594 449.730469 L 450.921875 449.730469 Z M 450.921875 83.808594 L 567.59375 269.972656 C 567.59375 281.457031 558.285156 290.761719 546.804688 290.761719 C 535.324219 290.761719 526.015625 281.457031 526.015625 269.972656 C 526.015625 258.492188 535.324219 249.183594 546.804688 249.183594 C 558.285156 249.183594 567.59375 258.492188 567.59375 269.972656 Z M 450.921875 83.808594 "/>
</clipPath>
<clipPath id="clip61">
  <path d="M 410 171 L 600 171 L 600 323 L 410 323 Z M 410 171 "/>
</clipPath>
<clipPath id="clip62">
  <path d="M 392.203125 65.644531 L 620.4375 65.644531 L 620.4375 427.949219 L 392.203125 427.949219 Z M 392.203125 65.644531 L 490.460938 263.5625 C 490.460938 275.042969 481.152344 284.351562 469.671875 284.351562 C 458.191406 284.351562 448.882812 275.042969 448.882812 263.5625 C 448.882812 252.082031 458.191406 242.773438 469.671875 242.773438 C 481.152344 242.773438 490.460938 252.082031 490.460938 263.5625 Z M 392.203125 65.644531 "/>
</clipPath>
<clipPath id="clip63">
  <path d="M 392.203125 65.644531 L 620.4375 65.644531 L 620.4375 427.949219 L 392.203125 427.949219 Z M 392.203125 65.644531 L 563.753906 230.027344 C 563.753906 241.507812 554.445312 250.816406 542.964844 250.816406 C 531.484375 250.816406 522.175781 241.507812 522.175781 230.027344 C 522.175781 218.546875 531.484375 209.238281 542.964844 209.238281 C 554.445312 209.238281 563.753906 218.546875 563.753906 230.027344 Z M 392.203125 65.644531 "/>
</clipPath>
<clipPath id="clip64">
  <path d="M 486 258.382812 L 600 258.382812 L 600 321.152344 L 486 321.152344 Z M 486 258.382812 "/>
</clipPath>
<clipPath id="clip65">
  <path d="M 364.933594 258.382812 L 727.007812 258.382812 L 727.007812 321.152344 L 364.933594 321.152344 Z M 364.933594 258.382812 L 565.921875 309.558594 C 565.921875 321.042969 556.613281 330.347656 545.132812 330.347656 C 533.652344 330.347656 524.34375 321.042969 524.34375 309.558594 C 524.34375 298.078125 533.652344 288.769531 545.132812 288.769531 C 556.613281 288.769531 565.921875 298.078125 565.921875 309.558594 Z M 364.933594 258.382812 "/>
</clipPath>
<clipPath id="clip66">
  <path d="M 364.933594 258.382812 L 727.007812 258.382812 L 727.007812 321.152344 L 364.933594 321.152344 Z M 364.933594 258.382812 L 567.59375 269.972656 C 567.59375 281.457031 558.285156 290.761719 546.804688 290.761719 C 535.324219 290.761719 526.015625 281.457031 526.015625 269.972656 C 526.015625 258.492188 535.324219 249.183594 546.804688 249.183594 C 558.285156 249.183594 567.59375 258.492188 567.59375 269.972656 Z M 364.933594 258.382812 "/>
</clipPath>
<clipPath id="clip67">
  <path d="M 484 209.011719 L 600 209.011719 L 600 290.992188 L 484 290.992188 Z M 484 209.011719 "/>
</clipPath>
<clipPath id="clip68">
  <path d="M 363.414062 209.011719 L 726.359375 209.011719 L 726.359375 290.992188 L 363.414062 290.992188 Z M 363.414062 209.011719 L 567.59375 269.972656 C 567.59375 281.457031 558.285156 290.761719 546.804688 290.761719 C 535.324219 290.761719 526.015625 281.457031 526.015625 269.972656 C 526.015625 258.492188 535.324219 249.183594 546.804688 249.183594 C 558.285156 249.183594 567.59375 258.492188 567.59375 269.972656 Z M 363.414062 209.011719 "/>
</clipPath>
<clipPath id="clip69">
  <path d="M 363.414062 209.011719 L 726.359375 209.011719 L 726.359375 290.992188 L 363.414062 290.992188 Z M 363.414062 209.011719 L 563.753906 230.027344 C 563.753906 241.507812 554.445312 250.816406 542.964844 250.816406 C 531.484375 250.816406 522.175781 241.507812 522.175781 230.027344 C 522.175781 218.546875 531.484375 209.238281 542.964844 209.238281 C 554.445312 209.238281 563.753906 218.546875 563.753906 230.027344 Z M 363.414062 209.011719 "/>
</clipPath>
<clipPath id="clip70">
  <path d="M 67 295 L 221 295 L 221 441 L 67 441 Z M 67 295 "/>
</clipPath>
<clipPath id="clip71">
  <path d="M 13.828125 211.585938 L 275.003906 211.585938 L 275.003906 524.882812 L 13.828125 524.882812 Z M 13.828125 211.585938 L 182.871094 382.09375 C 182.871094 393.574219 173.5625 402.882812 162.082031 402.882812 C 150.601562 402.882812 141.292969 393.574219 141.292969 382.09375 C 141.292969 370.613281 150.601562 361.304688 162.082031 361.304688 C 173.5625 361.304688 182.871094 370.613281 182.871094 382.09375 Z M 13.828125 211.585938 "/>
</clipPath>
<clipPath id="clip72">
  <path d="M 13.828125 211.585938 L 275.003906 211.585938 L 275.003906 524.882812 L 13.828125 524.882812 Z M 13.828125 211.585938 L 147.535156 354.371094 C 147.535156 365.851562 138.226562 375.160156 126.746094 375.160156 C 115.265625 375.160156 105.957031 365.851562 105.957031 354.371094 C 105.957031 342.890625 115.265625 333.582031 126.746094 333.582031 C 138.226562 333.582031 147.535156 342.890625 147.535156 354.371094 Z M 13.828125 211.585938 "/>
</clipPath>
<clipPath id="clip73">
  <path d="M 0 273 L 180.945312 273 L 180.945312 414 L 0 414 Z M 0 273 "/>
</clipPath>
<clipPath id="clip74">
  <path d="M -1 159.484375 L 180.945312 159.484375 L 180.945312 527.476562 L -1 527.476562 Z M -1 159.484375 L 147.535156 354.371094 C 147.535156 365.851562 138.226562 375.160156 126.746094 375.160156 C 115.265625 375.160156 105.957031 365.851562 105.957031 354.371094 C 105.957031 342.890625 115.265625 333.582031 126.746094 333.582031 C 138.226562 333.582031 147.535156 342.890625 147.535156 354.371094 Z M -1 159.484375 "/>
</clipPath>
<clipPath id="clip75">
  <path d="M -1 159.484375 L 180.945312 159.484375 L 180.945312 527.476562 L -1 527.476562 Z M -1 159.484375 L 73.984375 332.585938 C 73.984375 344.066406 64.675781 353.375 53.195312 353.375 C 41.714844 353.375 32.40625 344.066406 32.40625 332.585938 C 32.40625 321.105469 41.714844 311.796875 53.195312 311.796875 C 64.675781 311.796875 73.984375 321.105469 73.984375 332.585938 Z M -1 159.484375 "/>
</clipPath>
</defs>
<g id="surface426">
<g clip-path="url(#clip1)" clip-rule="nonzero">
<g clip-path="url(#clip2)" clip-rule="evenodd">
<g clip-path="url(#clip3)" clip-rule="evenodd">
<path style="fill:none;stroke-width:0.0235966;stroke-linecap:butt;stroke-linejoin:miter;stroke:rgb(17.96875%,20.3125%,21.09375%);stroke-opacity:0.8;stroke-miterlimit:10;" d="M 2.474974 1.928312 L 2.384612 1.233749 " transform="matrix(176.201287,0,0,176.201287,-114.691301,-124.798312)"/>
</g>
</g>
</g>
<g clip-path="url(#clip4)" clip-rule="nonzero">
<g clip-path="url(#clip5)" clip-rule="evenodd">
<g clip-path="url(#clip6)" clip-rule="evenodd">
<path style="fill:none;stroke-width:0.0235966;stroke-linecap:butt;stroke-linejoin:miter;stroke:rgb(17.96875%,20.3125%,21.09375%);stroke-opacity:0.8;stroke-miterlimit:10;" d="M 2.474974 1.928312 L 2.255809 1.258423 " transform="matrix(176.201287,0,0,176.201287,-114.691301,-124.798312)"/>
</g>
</g>
</g>
<g clip-path="url(#clip7)" clip-rule="nonzero">
<g clip-path="url(#clip8)" clip-rule="evenodd">
<g clip-path="url(#clip9)" clip-rule="evenodd">
<path style="fill:none;stroke-width:0.0235966;stroke-linecap:butt;stroke-linejoin:miter;stroke:rgb(17.96875%,20.3125%,21.09375%);stroke-opacity:0.8;stroke-miterlimit:10;" d="M 2.474974 1.928312 L 2.101068 2.666437 " transform="matrix(176.201287,0,0,176.201287,-114.691301,-124.798312)"/>
</g>
</g>
</g>
<g clip-path="url(#clip10)" clip-rule="nonzero">
<g clip-path="url(#clip11)" clip-rule="evenodd">
<g clip-path="url(#clip12)" clip-rule="evenodd">
<path style="fill:none;stroke-width:0.0235966;stroke-linecap:butt;stroke-linejoin:miter;stroke:rgb(17.96875%,20.3125%,21.09375%);stroke-opacity:0.8;stroke-miterlimit:10;" d="M 2.474974 1.928312 L 2.669731 2.427319 " transform="matrix(176.201287,0,0,176.201287,-114.691301,-124.798312)"/>
</g>
</g>
</g>
<g clip-path="url(#clip13)" clip-rule="nonzero">
<g clip-path="url(#clip14)" clip-rule="evenodd">
<g clip-path="url(#clip15)" clip-rule="evenodd">
<path style="fill:none;stroke-width:0.0235966;stroke-linecap:butt;stroke-linejoin:miter;stroke:rgb(17.96875%,20.3125%,21.09375%);stroke-opacity:0.8;stroke-miterlimit:10;" d="M 2.474974 1.928312 L 2.071871 2.158184 " transform="matrix(176.201287,0,0,176.201287,-114.691301,-124.798312)"/>
</g>
</g>
</g>
<g clip-path="url(#clip16)" clip-rule="nonzero">
<g clip-path="url(#clip17)" clip-rule="evenodd">
<g clip-path="url(#clip18)" clip-rule="evenodd">
<path style="fill:none;stroke-width:0.0235966;stroke-linecap:butt;stroke-linejoin:miter;stroke:rgb(17.96875%,20.3125%,21.09375%);stroke-opacity:0.8;stroke-miterlimit:10;" d="M 2.474974 1.928312 L 3.316452 2.204075 " transform="matrix(176.201287,0,0,176.201287,-114.691301,-124.798312)"/>
</g>
</g>
</g>
<g clip-path="url(#clip19)" clip-rule="nonzero">
<g clip-path="url(#clip20)" clip-rule="evenodd">
<g clip-path="url(#clip21)" clip-rule="evenodd">
<path style="fill:none;stroke-width:0.0235966;stroke-linecap:butt;stroke-linejoin:miter;stroke:rgb(17.96875%,20.3125%,21.09375%);stroke-opacity:0.8;stroke-miterlimit:10;" d="M 2.384612 1.233749 L 2.233551 0.950315 " transform="matrix(176.201287,0,0,176.201287,-114.691301,-124.798312)"/>
</g>
</g>
</g>
<g clip-path="url(#clip22)" clip-rule="nonzero">
<g clip-path="url(#clip23)" clip-rule="evenodd">
<g clip-path="url(#clip24)" clip-rule="evenodd">
<path style="fill:none;stroke-width:0.0235966;stroke-linecap:butt;stroke-linejoin:miter;stroke:rgb(17.96875%,20.3125%,21.09375%);stroke-opacity:0.8;stroke-miterlimit:10;" d="M 2.384612 1.233749 L 2.255809 1.258423 " transform="matrix(176.201287,0,0,176.201287,-114.691301,-124.798312)"/>
</g>
</g>
</g>
<g clip-path="url(#clip25)" clip-rule="nonzero">
<g clip-path="url(#clip26)" clip-rule="evenodd">
<g clip-path="url(#clip27)" clip-rule="evenodd">
<path style="fill:none;stroke-width:0.0235966;stroke-linecap:butt;stroke-linejoin:miter;stroke:rgb(17.96875%,20.3125%,21.09375%);stroke-opacity:0.8;stroke-miterlimit:10;" d="M 2.233551 0.950315 L 2.255809 1.258423 " transform="matrix(176.201287,0,0,176.201287,-114.691301,-124.798312)"/>
</g>
</g>
</g>
<g clip-path="url(#clip28)" clip-rule="nonzero">
<g clip-path="url(#clip29)" clip-rule="evenodd">
<g clip-path="url(#clip30)" clip-rule="evenodd">
<path style="fill:none;stroke-width:0.0235966;stroke-linecap:butt;stroke-linejoin:miter;stroke:rgb(17.96875%,20.3125%,21.09375%);stroke-opacity:0.8;stroke-miterlimit:10;" d="M 2.298684 3.502062 L 2.101068 2.666437 " transform="matrix(176.201287,0,0,176.201287,-114.691301,-124.798312)"/>
</g>
</g>
</g>
<g clip-path="url(#clip31)" clip-rule="nonzero">
<g clip-path="url(#clip32)" clip-rule="evenodd">
<g clip-path="url(#clip33)" clip-rule="evenodd">
<path style="fill:none;stroke-width:0.0235966;stroke-linecap:butt;stroke-linejoin:miter;stroke:rgb(17.96875%,20.3125%,21.09375%);stroke-opacity:0.8;stroke-miterlimit:10;" d="M 2.298684 3.502062 L 2.47003 3.871424 " transform="matrix(176.201287,0,0,176.201287,-114.691301,-124.798312)"/>
</g>
</g>
</g>
<g clip-path="url(#clip34)" clip-rule="nonzero">
<g clip-path="url(#clip35)" clip-rule="evenodd">
<g clip-path="url(#clip36)" clip-rule="evenodd">
<path style="fill:none;stroke-width:0.0235966;stroke-linecap:butt;stroke-linejoin:miter;stroke:rgb(17.96875%,20.3125%,21.09375%);stroke-opacity:0.8;stroke-miterlimit:10;" d="M 2.101068 2.666437 L 2.495082 2.80515 " transform="matrix(176.201287,0,0,176.201287,-114.691301,-124.798312)"/>
</g>
</g>
</g>
<g clip-path="url(#clip37)" clip-rule="nonzero">
<g clip-path="url(#clip38)" clip-rule="evenodd">
<g clip-path="url(#clip39)" clip-rule="evenodd">
<path style="fill:none;stroke-width:0.0235966;stroke-linecap:butt;stroke-linejoin:miter;stroke:rgb(17.96875%,20.3125%,21.09375%);stroke-opacity:0.8;stroke-miterlimit:10;" d="M 2.101068 2.666437 L 2.669731 2.427319 " transform="matrix(176.201287,0,0,176.201287,-114.691301,-124.798312)"/>
</g>
</g>
</g>
<g clip-path="url(#clip40)" clip-rule="nonzero">
<g clip-path="url(#clip41)" clip-rule="evenodd">
<g clip-path="url(#clip42)" clip-rule="evenodd">
<path style="fill:none;stroke-width:0.0235966;stroke-linecap:butt;stroke-linejoin:miter;stroke:rgb(17.96875%,20.3125%,21.09375%);stroke-opacity:0.8;stroke-miterlimit:10;" d="M 2.101068 2.666437 L 2.071871 2.158184 " transform="matrix(176.201287,0,0,176.201287,-114.691301,-124.798312)"/>
</g>
</g>
</g>
<g clip-path="url(#clip43)" clip-rule="nonzero">
<g clip-path="url(#clip44)" clip-rule="evenodd">
<g clip-path="url(#clip45)" clip-rule="evenodd">
<path style="fill:none;stroke-width:0.0235966;stroke-linecap:butt;stroke-linejoin:miter;stroke:rgb(17.96875%,20.3125%,21.09375%);stroke-opacity:0.8;stroke-miterlimit:10;" d="M 2.101068 2.666437 L 1.570779 2.876778 " transform="matrix(176.201287,0,0,176.201287,-114.691301,-124.798312)"/>
</g>
</g>
</g>
<g clip-path="url(#clip46)" clip-rule="nonzero">
<g clip-path="url(#clip47)" clip-rule="evenodd">
<g clip-path="url(#clip48)" clip-rule="evenodd">
<path style="fill:none;stroke-width:0.0235966;stroke-linecap:butt;stroke-linejoin:miter;stroke:rgb(17.96875%,20.3125%,21.09375%);stroke-opacity:0.8;stroke-miterlimit:10;" d="M 2.101068 2.666437 L 1.370236 2.719443 " transform="matrix(176.201287,0,0,176.201287,-114.691301,-124.798312)"/>
</g>
</g>
</g>
<g clip-path="url(#clip49)" clip-rule="nonzero">
<g clip-path="url(#clip50)" clip-rule="evenodd">
<g clip-path="url(#clip51)" clip-rule="evenodd">
<path style="fill:none;stroke-width:0.0235966;stroke-linecap:butt;stroke-linejoin:miter;stroke:rgb(17.96875%,20.3125%,21.09375%);stroke-opacity:0.8;stroke-miterlimit:10;" d="M 2.495082 2.80515 L 2.669731 2.427319 " transform="matrix(176.201287,0,0,176.201287,-114.691301,-124.798312)"/>
</g>
</g>
</g>
<g clip-path="url(#clip52)" clip-rule="nonzero">
<g clip-path="url(#clip53)" clip-rule="evenodd">
<g clip-path="url(#clip54)" clip-rule="evenodd">
<path style="fill:none;stroke-width:0.0235966;stroke-linecap:butt;stroke-linejoin:miter;stroke:rgb(17.96875%,20.3125%,21.09375%);stroke-opacity:0.8;stroke-miterlimit:10;" d="M 2.669731 2.427319 L 3.316452 2.204075 " transform="matrix(176.201287,0,0,176.201287,-114.691301,-124.798312)"/>
</g>
</g>
</g>
<g clip-path="url(#clip55)" clip-rule="nonzero">
<g clip-path="url(#clip56)" clip-rule="evenodd">
<g clip-path="url(#clip57)" clip-rule="evenodd">
<path style="fill:none;stroke-width:0.0235966;stroke-linecap:butt;stroke-linejoin:miter;stroke:rgb(17.96875%,20.3125%,21.09375%);stroke-opacity:0.8;stroke-miterlimit:10;" d="M 3.316452 2.204075 L 3.744718 2.465118 " transform="matrix(176.201287,0,0,176.201287,-114.691301,-124.798312)"/>
</g>
</g>
</g>
<g clip-path="url(#clip58)" clip-rule="nonzero">
<g clip-path="url(#clip59)" clip-rule="evenodd">
<g clip-path="url(#clip60)" clip-rule="evenodd">
<path style="fill:none;stroke-width:0.0235966;stroke-linecap:butt;stroke-linejoin:miter;stroke:rgb(17.96875%,20.3125%,21.09375%);stroke-opacity:0.8;stroke-miterlimit:10;" d="M 3.316452 2.204075 L 3.754206 2.240455 " transform="matrix(176.201287,0,0,176.201287,-114.691301,-124.798312)"/>
</g>
</g>
</g>
<g clip-path="url(#clip61)" clip-rule="nonzero">
<g clip-path="url(#clip62)" clip-rule="evenodd">
<g clip-path="url(#clip63)" clip-rule="evenodd">
<path style="fill:none;stroke-width:0.0235966;stroke-linecap:butt;stroke-linejoin:miter;stroke:rgb(17.96875%,20.3125%,21.09375%);stroke-opacity:0.8;stroke-miterlimit:10;" d="M 3.316452 2.204075 L 3.732414 2.013752 " transform="matrix(176.201287,0,0,176.201287,-114.691301,-124.798312)"/>
</g>
</g>
</g>
<g clip-path="url(#clip64)" clip-rule="nonzero">
<g clip-path="url(#clip65)" clip-rule="evenodd">
<g clip-path="url(#clip66)" clip-rule="evenodd">
<path style="fill:none;stroke-width:0.0235966;stroke-linecap:butt;stroke-linejoin:miter;stroke:rgb(17.96875%,20.3125%,21.09375%);stroke-opacity:0.8;stroke-miterlimit:10;" d="M 3.744718 2.465118 L 3.754206 2.240455 " transform="matrix(176.201287,0,0,176.201287,-114.691301,-124.798312)"/>
</g>
</g>
</g>
<g clip-path="url(#clip67)" clip-rule="nonzero">
<g clip-path="url(#clip68)" clip-rule="evenodd">
<g clip-path="url(#clip69)" clip-rule="evenodd">
<path style="fill:none;stroke-width:0.0235966;stroke-linecap:butt;stroke-linejoin:miter;stroke:rgb(17.96875%,20.3125%,21.09375%);stroke-opacity:0.8;stroke-miterlimit:10;" d="M 3.754206 2.240455 L 3.732414 2.013752 " transform="matrix(176.201287,0,0,176.201287,-114.691301,-124.798312)"/>
</g>
</g>
</g>
<g clip-path="url(#clip70)" clip-rule="nonzero">
<g clip-path="url(#clip71)" clip-rule="evenodd">
<g clip-path="url(#clip72)" clip-rule="evenodd">
<path style="fill:none;stroke-width:0.0235966;stroke-linecap:butt;stroke-linejoin:miter;stroke:rgb(17.96875%,20.3125%,21.09375%);stroke-opacity:0.8;stroke-miterlimit:10;" d="M 1.570779 2.876778 L 1.370236 2.719443 " transform="matrix(176.201287,0,0,176.201287,-114.691301,-124.798312)"/>
</g>
</g>
</g>
<g clip-path="url(#clip73)" clip-rule="nonzero">
<g clip-path="url(#clip74)" clip-rule="evenodd">
<g clip-path="url(#clip75)" clip-rule="evenodd">
<path style="fill:none;stroke-width:0.0235966;stroke-linecap:butt;stroke-linejoin:miter;stroke:rgb(17.96875%,20.3125%,21.09375%);stroke-opacity:0.8;stroke-miterlimit:10;" d="M 1.370236 2.719443 L 0.952812 2.595805 " transform="matrix(176.201287,0,0,176.201287,-114.691301,-124.798312)"/>
</g>
</g>
</g>
<path style="fill-rule:nonzero;fill:rgb(100%,92.941176%,43.529412%);fill-opacity:1;stroke-width:0.0235966;stroke-linecap:butt;stroke-linejoin:miter;stroke:rgb(60%,60%,60%);stroke-opacity:0.8;stroke-miterlimit:10;" d="M 0.117977 0.00000629454 C 0.117977 0.0651617 0.0651698 0.117991 -0.00000775044 0.117991 C -0.0651632 0.117991 -0.117992 0.0651617 -0.117992 0.00000629454 C -0.117992 -0.0651713 -0.0651632 -0.117978 -0.00000775044 -0.117978 C 0.0651698 -0.117978 0.117977 -0.0651713 0.117977 0.00000629454 Z M 0.117977 0.00000629454 " transform="matrix(176.201287,0,0,176.201287,321.403709,214.971547)"/>
<path style="fill-rule:nonzero;fill:rgb(55.294118%,82.745098%,78.039216%);fill-opacity:1;stroke-width:0.0235966;stroke-linecap:butt;stroke-linejoin:miter;stroke:rgb(60%,60%,60%);stroke-opacity:0.8;stroke-miterlimit:10;" d="M 0.117993 -0.00000309371 C 0.117993 0.0651523 0.0651636 0.117982 0.00000814481 0.117982 C -0.0651694 0.117982 -0.117977 0.0651523 -0.117977 -0.00000309371 C -0.117977 -0.0651585 -0.0651694 -0.117988 0.00000814481 -0.117988 C 0.0651636 -0.117988 0.117993 -0.0651585 0.117993 -0.00000309371 Z M 0.117993 -0.00000309371 " transform="matrix(176.201287,0,0,176.201287,305.479034,92.590389)"/>
<path style="fill-rule:nonzero;fill:rgb(55.294118%,82.745098%,78.039216%);fill-opacity:1;stroke-width:0.0235966;stroke-linecap:butt;stroke-linejoin:miter;stroke:rgb(60%,60%,60%);stroke-opacity:0.8;stroke-miterlimit:10;" d="M 0.117994 -0.00000354001 C 0.117994 0.0651519 0.0651645 0.117981 0.00000911243 0.117981 C -0.0651685 0.117981 -0.117976 0.0651519 -0.117976 -0.00000354001 C -0.117976 -0.065159 -0.0651685 -0.117988 0.00000911243 -0.117988 C 0.0651645 -0.117988 0.117994 -0.065159 0.117994 -0.00000354001 Z M 0.117994 -0.00000354001 " transform="matrix(176.201287,0,0,176.201287,278.861676,42.649061)"/>
<path style="fill-rule:nonzero;fill:rgb(100%,92.941176%,43.529412%);fill-opacity:1;stroke-width:0.0235966;stroke-linecap:butt;stroke-linejoin:miter;stroke:rgb(60%,60%,60%);stroke-opacity:0.8;stroke-miterlimit:10;" d="M 0.117975 0.00000546024 C 0.117975 0.0651609 0.0651676 0.11799 -0.00000994702 0.11799 C -0.0651654 0.11799 -0.117973 0.0651609 -0.117973 0.00000546024 C -0.117973 -0.06515 -0.0651654 -0.117979 -0.00000994702 -0.117979 C 0.0651676 -0.117979 0.117975 -0.06515 0.117975 0.00000546024 Z M 0.117975 0.00000546024 " transform="matrix(176.201287,0,0,176.201287,282.786909,96.936538)"/>
<path style="fill-rule:nonzero;fill:rgb(100%,92.941176%,43.529412%);fill-opacity:1;stroke-width:0.0235966;stroke-linecap:butt;stroke-linejoin:miter;stroke:rgb(60%,60%,60%);stroke-opacity:0.8;stroke-miterlimit:10;" d="M 0.117976 -0.00000294607 C 0.117976 0.0651525 0.0651691 0.117982 -0.00000851426 0.117982 C -0.0651639 0.117982 -0.117993 0.0651525 -0.117993 -0.00000294607 C -0.117993 -0.0651584 -0.0651639 -0.117988 -0.00000851426 -0.117988 C 0.0651691 -0.117988 0.117976 -0.0651584 0.117976 -0.00000294607 Z M 0.117976 -0.00000294607 " transform="matrix(176.201287,0,0,176.201287,290.341344,492.27005)"/>
<path style="fill-rule:nonzero;fill:rgb(100%,92.941176%,43.529412%);fill-opacity:1;stroke-width:0.0235966;stroke-linecap:butt;stroke-linejoin:miter;stroke:rgb(60%,60%,60%);stroke-opacity:0.8;stroke-miterlimit:10;" d="M 0.117981 0.00000941671 C 0.117981 0.0651648 0.0651518 0.117972 -0.00000361858 0.117972 C -0.065159 0.117972 -0.117988 0.0651648 -0.117988 0.00000941671 C -0.117988 -0.0651682 -0.065159 -0.117975 -0.00000361858 -0.117975 C 0.0651518 -0.117975 0.117981 -0.0651682 0.117981 0.00000941671 Z M 0.117981 0.00000941671 " transform="matrix(176.201287,0,0,176.201287,255.520169,345.029591)"/>
<path style="fill-rule:nonzero;fill:rgb(100%,92.941176%,43.529412%);fill-opacity:1;stroke-width:0.0235966;stroke-linecap:butt;stroke-linejoin:miter;stroke:rgb(60%,60%,60%);stroke-opacity:0.8;stroke-miterlimit:10;" d="M 0.117976 0.00000354001 C 0.117976 0.065159 0.065169 0.117988 -0.00000857384 0.117988 C -0.065164 0.117988 -0.117993 0.065159 -0.117993 0.00000354001 C -0.117993 -0.0651519 -0.065164 -0.117981 -0.00000857384 -0.117981 C 0.065169 -0.117981 0.117976 -0.0651519 0.117976 0.00000354001 Z M 0.117976 0.00000354001 " transform="matrix(176.201287,0,0,176.201287,320.532761,557.350939)"/>
<path style="fill-rule:nonzero;fill:rgb(100%,92.941176%,43.529412%);fill-opacity:1;stroke-width:0.0235966;stroke-linecap:butt;stroke-linejoin:miter;stroke:rgb(60%,60%,60%);stroke-opacity:0.8;stroke-miterlimit:10;" d="M 0.117979 -0.00000122423 C 0.117979 0.0651542 0.0651498 0.117984 -0.00000558929 0.117984 C -0.065161 0.117984 -0.11799 0.0651542 -0.11799 -0.00000122423 C -0.11799 -0.0651566 -0.065161 -0.117986 -0.00000558929 -0.117986 C 0.0651498 -0.117986 0.117979 -0.0651566 0.117979 -0.00000122423 Z M 0.117979 -0.00000122423 " transform="matrix(176.201287,0,0,176.201287,324.946297,369.472872)"/>
<path style="fill-rule:nonzero;fill:rgb(100%,92.941176%,43.529412%);fill-opacity:1;stroke-width:0.0235966;stroke-linecap:butt;stroke-linejoin:miter;stroke:rgb(60%,60%,60%);stroke-opacity:0.8;stroke-miterlimit:10;" d="M 0.117986 0.0000103808 C 0.117986 0.0651658 0.065157 0.117973 0.00000158964 0.117973 C -0.0651538 0.117973 -0.117983 0.0651658 -0.117983 0.0000103808 C -0.117983 -0.0651672 -0.0651538 -0.117974 0.00000158964 -0.117974 C 0.065157 -0.117974 0.117986 -0.0651672 0.117986 0.0000103808 Z M 0.117986 0.0000103808 " transform="matrix(176.201287,0,0,176.201287,355.71847,302.896608)"/>
<path style="fill-rule:nonzero;fill:rgb(100%,92.941176%,43.529412%);fill-opacity:1;stroke-width:0.0235966;stroke-linecap:butt;stroke-linejoin:miter;stroke:rgb(60%,60%,60%);stroke-opacity:0.8;stroke-miterlimit:10;" d="M 0.117987 0.00000164936 C 0.117987 0.0651571 0.0651575 0.117986 0.00000205903 0.117986 C -0.0651534 0.117986 -0.117983 0.0651571 -0.117983 0.00000164936 C -0.117983 -0.0651538 -0.0651534 -0.117983 0.00000205903 -0.117983 C 0.0651575 -0.117983 0.117987 -0.0651538 0.117987 0.00000164936 Z M 0.117987 0.00000164936 " transform="matrix(176.201287,0,0,176.201287,250.374637,255.476272)"/>
<path style="fill-rule:nonzero;fill:rgb(100%,92.941176%,43.529412%);fill-opacity:1;stroke-width:0.0235966;stroke-linecap:butt;stroke-linejoin:miter;stroke:rgb(60%,60%,60%);stroke-opacity:0.8;stroke-miterlimit:10;" d="M 0.11798 0.000000722461 C 0.11798 0.0651561 0.0651503 0.117985 -0.00000515086 0.117985 C -0.0651606 0.117985 -0.11799 0.0651561 -0.11799 0.000000722461 C -0.11799 -0.0651547 -0.0651606 -0.117984 -0.00000515086 -0.117984 C 0.0651503 -0.117984 0.11798 -0.0651547 0.11798 0.000000722461 Z M 0.11798 0.000000722461 " transform="matrix(176.201287,0,0,176.201287,469.672783,263.562373)"/>
<path style="fill-rule:nonzero;fill:rgb(100%,92.941176%,43.529412%);fill-opacity:1;stroke-width:0.0235966;stroke-linecap:butt;stroke-linejoin:miter;stroke:rgb(60%,60%,60%);stroke-opacity:0.8;stroke-miterlimit:10;" d="M 0.117981 -0.00000754585 C 0.117981 0.06517 0.0651514 0.117977 -0.00000403269 0.117977 C -0.0651595 0.117977 -0.117989 0.06517 -0.117989 -0.00000754585 C -0.117989 -0.065163 -0.0651595 -0.117992 -0.00000403269 -0.117992 C 0.0651514 -0.117992 0.117981 -0.065163 0.117981 -0.00000754585 Z M 0.117981 -0.00000754585 " transform="matrix(176.201287,0,0,176.201287,545.133523,309.559923)"/>
<path style="fill-rule:nonzero;fill:rgb(100%,92.941176%,43.529412%);fill-opacity:1;stroke-width:0.0235966;stroke-linecap:butt;stroke-linejoin:miter;stroke:rgb(60%,60%,60%);stroke-opacity:0.8;stroke-miterlimit:10;" d="M 0.117989 -0.00000817626 C 0.117989 0.0651694 0.0651593 0.117977 0.00000383434 0.117977 C -0.0651516 0.117977 -0.117981 0.0651694 -0.117981 -0.00000817626 C -0.117981 -0.0651636 -0.0651516 -0.117993 0.00000383434 -0.117993 C 0.0651593 -0.117993 0.117989 -0.0651636 0.117989 -0.00000817626 Z M 0.117989 -0.00000817626 " transform="matrix(176.201287,0,0,176.201287,546.804012,269.974097)"/>
<path style="fill-rule:nonzero;fill:rgb(100%,92.941176%,43.529412%);fill-opacity:1;stroke-width:0.0235966;stroke-linecap:butt;stroke-linejoin:miter;stroke:rgb(60%,60%,60%);stroke-opacity:0.8;stroke-miterlimit:10;" d="M 0.117987 -0.0000037199 C 0.117987 0.0651517 0.0651574 0.117981 0.00000202344 0.117981 C -0.0651534 0.117981 -0.117983 0.0651517 -0.117983 -0.0000037199 C -0.117983 -0.0651591 -0.0651534 -0.117988 0.00000202344 -0.117988 C 0.0651574 -0.117988 0.117987 -0.0651591 0.117987 -0.0000037199 Z M 0.117987 -0.0000037199 " transform="matrix(176.201287,0,0,176.201287,542.964487,230.027999)"/>
<path style="fill-rule:nonzero;fill:rgb(100%,92.941176%,43.529412%);fill-opacity:1;stroke-width:0.0235966;stroke-linecap:butt;stroke-linejoin:miter;stroke:rgb(60%,60%,60%);stroke-opacity:0.8;stroke-miterlimit:10;" d="M 0.117983 0.00000447723 C 0.117983 0.0651599 0.0651534 0.117989 -0.00000204969 0.117989 C -0.0651575 0.117989 -0.117987 0.0651599 -0.117987 0.00000447723 C -0.117987 -0.0651509 -0.0651575 -0.11798 -0.00000204969 -0.11798 C 0.0651534 -0.11798 0.117983 -0.0651509 0.117983 0.00000447723 Z M 0.117983 0.00000447723 " transform="matrix(176.201287,0,0,176.201287,162.082392,382.092961)"/>
<path style="fill-rule:nonzero;fill:rgb(100%,92.941176%,43.529412%);fill-opacity:1;stroke-width:0.0235966;stroke-linecap:butt;stroke-linejoin:miter;stroke:rgb(60%,60%,60%);stroke-opacity:0.8;stroke-miterlimit:10;" d="M 0.11798 -0.00000398428 C 0.11798 0.0651514 0.0651502 0.117981 -0.0000051734 0.117981 C -0.0651606 0.117981 -0.11799 0.0651514 -0.11799 -0.00000398428 C -0.11799 -0.0651594 -0.0651606 -0.117989 -0.0000051734 -0.117989 C 0.0651502 -0.117989 0.11798 -0.0651594 0.11798 -0.00000398428 Z M 0.11798 -0.00000398428 " transform="matrix(176.201287,0,0,176.201287,126.747005,354.371796)"/>
<path style="fill-rule:nonzero;fill:rgb(100%,92.941176%,43.529412%);fill-opacity:1;stroke-width:0.0235966;stroke-linecap:butt;stroke-linejoin:miter;stroke:rgb(60%,60%,60%);stroke-opacity:0.8;stroke-miterlimit:10;" d="M 0.117981 -0.00000472993 C 0.117981 0.0651507 0.0651516 0.11798 -0.00000383434 0.11798 C -0.0651593 0.11798 -0.117989 0.0651507 -0.117989 -0.00000472993 C -0.117989 -0.0651601 -0.0651593 -0.117989 -0.00000383434 -0.117989 C 0.0651516 -0.117989 0.117981 -0.0651601 0.117981 -0.00000472993 Z M 0.117981 -0.00000472993 " transform="matrix(176.201287,0,0,176.201287,53.195988,332.586771)"/>
</g>
</svg>
