<?xml version="1.0" encoding="UTF-8"?>
<svg xmlns="http://www.w3.org/2000/svg" xmlns:xlink="http://www.w3.org/1999/xlink" width="600pt" height="600pt" viewBox="0 0 600 600" version="1.1">
<defs>
<clipPath id="clip1">
  <path d="M 371 0 L 535 0 L 535 185 L 371 185 Z M 371 0 "/>
</clipPath>
<clipPath id="clip2">
  <path d="M 192.253906 -40.101562 L 713.765625 -40.101562 L 713.765625 202.550781 L 192.253906 202.550781 Z M 192.253906 -40.101562 L 489.074219 47.910156 C 489.074219 61.574219 477.996094 72.652344 464.328125 72.652344 C 450.664062 72.652344 439.585938 61.574219 439.585938 47.910156 C 439.585938 34.242188 450.664062 23.164062 464.328125 23.164062 C 477.996094 23.164062 489.074219 34.242188 489.074219 47.910156 Z M 192.253906 -40.101562 "/>
</clipPath>
<clipPath id="clip3">
  <path d="M 192.253906 -40.101562 L 713.765625 -40.101562 L 713.765625 202.550781 L 192.253906 202.550781 Z M 192.253906 -40.101562 L 466.433594 114.539062 C 466.433594 128.203125 455.355469 139.28125 441.691406 139.28125 C 428.023438 139.28125 416.945312 128.203125 416.945312 114.539062 C 416.945312 100.871094 428.023438 89.792969 441.691406 89.792969 C 455.355469 89.792969 466.433594 100.871094 466.433594 114.539062 Z M 192.253906 -40.101562 "/>
</clipPath>
<clipPath id="clip4">
  <path d="M 329 44 L 512 44 L 512 301 L 329 301 Z M 329 44 "/>
</clipPath>
<clipPath id="clip5">
  <path d="M 151.914062 21.671875 L 689.425781 21.671875 L 689.425781 323.507812 L 151.914062 323.507812 Z M 151.914062 21.671875 L 466.433594 114.539062 C 466.433594 128.203125 455.355469 139.28125 441.691406 139.28125 C 428.023438 139.28125 416.945312 128.203125 416.945312 114.539062 C 416.945312 100.871094 428.023438 89.792969 441.691406 89.792969 C 455.355469 89.792969 466.433594 100.871094 466.433594 114.539062 Z M 151.914062 21.671875 "/>
</clipPath>
<clipPath id="clip6">
  <path d="M 151.914062 21.671875 L 689.425781 21.671875 L 689.425781 323.507812 L 151.914062 323.507812 Z M 151.914062 21.671875 L 424.390625 230.640625 C 424.390625 244.308594 413.3125 255.386719 399.648438 255.386719 C 385.984375 255.386719 374.90625 244.308594 374.90625 230.640625 C 374.90625 216.976562 385.984375 205.898438 399.648438 205.898438 C 413.3125 205.898438 424.390625 216.976562 424.390625 230.640625 Z M 151.914062 21.671875 "/>
</clipPath>
<clipPath id="clip7">
  <path d="M 257 160 L 470 160 L 470 490 L 257 490 Z M 257 160 "/>
</clipPath>
<clipPath id="clip8">
  <path d="M 81.570312 133.847656 L 645.921875 133.847656 L 645.921875 516.101562 L 81.570312 516.101562 Z M 81.570312 133.847656 L 352.589844 419.308594 C 352.589844 432.972656 341.511719 444.050781 327.84375 444.050781 C 314.179688 444.050781 303.101562 432.972656 303.101562 419.308594 C 303.101562 405.640625 314.179688 394.5625 327.84375 394.5625 C 341.511719 394.5625 352.589844 405.640625 352.589844 419.308594 Z M 81.570312 133.847656 "/>
</clipPath>
<clipPath id="clip9">
  <path d="M 81.570312 133.847656 L 645.921875 133.847656 L 645.921875 516.101562 L 81.570312 516.101562 Z M 81.570312 133.847656 L 424.390625 230.640625 C 424.390625 244.308594 413.3125 255.386719 399.648438 255.386719 C 385.984375 255.386719 374.90625 244.308594 374.90625 230.640625 C 374.90625 216.976562 385.984375 205.898438 399.648438 205.898438 C 413.3125 205.898438 424.390625 216.976562 424.390625 230.640625 Z M 81.570312 133.847656 "/>
</clipPath>
<clipPath id="clip10">
  <path d="M 74 266 L 398 266 L 398 490 L 74 490 Z M 74 266 "/>
</clipPath>
<clipPath id="clip11">
  <path d="M 33.667969 96.425781 L 438.613281 96.425781 L 438.613281 659.789062 L 33.667969 659.789062 Z M 33.667969 96.425781 L 352.589844 419.308594 C 352.589844 432.972656 341.511719 444.050781 327.84375 444.050781 C 314.179688 444.050781 303.101562 432.972656 303.101562 419.308594 C 303.101562 405.640625 314.179688 394.5625 327.84375 394.5625 C 341.511719 394.5625 352.589844 405.640625 352.589844 419.308594 Z M 33.667969 96.425781 "/>
</clipPath>
<clipPath id="clip12">
  <path d="M 33.667969 96.425781 L 438.613281 96.425781 L 438.613281 659.789062 L 33.667969 659.789062 Z M 33.667969 96.425781 L 169.179688 336.90625 C 169.179688 350.570312 158.101562 361.648438 144.4375 361.648438 C 130.769531 361.648438 119.691406 350.570312 119.691406 336.90625 C 119.691406 323.238281 130.769531 312.160156 144.4375 312.160156 C 158.101562 312.160156 169.179688 323.238281 169.179688 336.90625 Z M 33.667969 96.425781 "/>
</clipPath>
<clipPath id="clip13">
  <path d="M 212 280 L 398 280 L 398 490 L 212 490 Z M 212 280 "/>
</clipPath>
<clipPath id="clip14">
  <path d="M 62.113281 203.089844 L 548.078125 203.089844 L 548.078125 566.828125 L 62.113281 566.828125 Z M 62.113281 203.089844 L 352.589844 419.308594 C 352.589844 432.972656 341.511719 444.050781 327.84375 444.050781 C 314.179688 444.050781 303.101562 432.972656 303.101562 419.308594 C 303.101562 405.640625 314.179688 394.5625 327.84375 394.5625 C 341.511719 394.5625 352.589844 405.640625 352.589844 419.308594 Z M 62.113281 203.089844 "/>
</clipPath>
<clipPath id="clip15">
  <path d="M 62.113281 203.089844 L 548.078125 203.089844 L 548.078125 566.828125 L 62.113281 566.828125 Z M 62.113281 203.089844 L 307.089844 350.609375 C 307.089844 364.273438 296.011719 375.351562 282.347656 375.351562 C 268.683594 375.351562 257.605469 364.273438 257.605469 350.609375 C 257.605469 336.941406 268.683594 325.863281 282.347656 325.863281 C 296.011719 325.863281 307.089844 336.941406 307.089844 350.609375 Z M 62.113281 203.089844 "/>
</clipPath>
<clipPath id="clip16">
  <path d="M 149 349 L 398 349 L 398 568 L 149 568 Z M 149 349 "/>
</clipPath>
<clipPath id="clip17">
  <path d="M 63.085938 205.585938 L 484.738281 205.585938 L 484.738281 711.535156 L 63.085938 711.535156 Z M 63.085938 205.585938 L 352.589844 419.308594 C 352.589844 432.972656 341.511719 444.050781 327.84375 444.050781 C 314.179688 444.050781 303.101562 432.972656 303.101562 419.308594 C 303.101562 405.640625 314.179688 394.5625 327.84375 394.5625 C 341.511719 394.5625 352.589844 405.640625 352.589844 419.308594 Z M 63.085938 205.585938 "/>
</clipPath>
<clipPath id="clip18">
  <path d="M 63.085938 205.585938 L 484.738281 205.585938 L 484.738281 711.535156 L 63.085938 711.535156 Z M 63.085938 205.585938 L 244.726562 497.8125 C 244.726562 511.476562 233.648438 522.554688 219.980469 522.554688 C 206.316406 522.554688 195.238281 511.476562 195.238281 497.8125 C 195.238281 484.148438 206.316406 473.070312 219.980469 473.070312 C 233.648438 473.070312 244.726562 484.148438 244.726562 497.8125 Z M 63.085938 205.585938 "/>
</clipPath>
<clipPath id="clip19">
  <path d="M 274.382812 349 L 540.148438 349 L 540.148438 520 L 274.382812 520 Z M 274.382812 349 "/>
</clipPath>
<clipPath id="clip20">
  <path d="M 274.382812 160.746094 L 540.148438 160.746094 L 540.148438 708.253906 L 274.382812 708.253906 Z M 274.382812 160.746094 L 352.589844 419.308594 C 352.589844 432.972656 341.511719 444.050781 327.84375 444.050781 C 314.179688 444.050781 303.101562 432.972656 303.101562 419.308594 C 303.101562 405.640625 314.179688 394.5625 327.84375 394.5625 C 341.511719 394.5625 352.589844 405.640625 352.589844 419.308594 Z M 274.382812 160.746094 "/>
</clipPath>
<clipPath id="clip21">
  <path d="M 274.382812 160.746094 L 540.148438 160.746094 L 540.148438 708.253906 L 274.382812 708.253906 Z M 274.382812 160.746094 L 511.429688 449.691406 C 511.429688 463.355469 500.351562 474.433594 486.6875 474.433594 C 473.023438 474.433594 461.945312 463.355469 461.945312 449.691406 C 461.945312 436.023438 473.023438 424.945312 486.6875 424.945312 C 500.351562 424.945312 511.429688 436.023438 511.429688 449.691406 Z M 274.382812 160.746094 "/>
</clipPath>
<clipPath id="clip22">
  <path d="M 257 349 L 532 349 L 532 579 L 257 579 Z M 257 349 "/>
</clipPath>
<clipPath id="clip23">
  <path d="M 179.535156 199.597656 L 609.925781 199.597656 L 609.925781 728.316406 L 179.535156 728.316406 Z M 179.535156 199.597656 L 352.589844 419.308594 C 352.589844 432.972656 341.511719 444.050781 327.84375 444.050781 C 314.179688 444.050781 303.101562 432.972656 303.101562 419.308594 C 303.101562 405.640625 314.179688 394.5625 327.84375 394.5625 C 341.511719 394.5625 352.589844 405.640625 352.589844 419.308594 Z M 179.535156 199.597656 "/>
</clipPath>
<clipPath id="clip24">
  <path d="M 179.535156 199.597656 L 609.925781 199.597656 L 609.925781 728.316406 L 179.535156 728.316406 Z M 179.535156 199.597656 L 486.363281 508.605469 C 486.363281 522.273438 475.285156 533.351562 461.617188 533.351562 C 447.953125 533.351562 436.875 522.273438 436.875 508.605469 C 436.875 494.941406 447.953125 483.863281 461.617188 483.863281 C 475.285156 483.863281 486.363281 494.941406 486.363281 508.605469 Z M 179.535156 199.597656 "/>
</clipPath>
<clipPath id="clip25">
  <path d="M 228 359.300781 L 398 359.300781 L 398 600 L 228 600 Z M 228 359.300781 "/>
</clipPath>
<clipPath id="clip26">
  <path d="M 41.640625 359.300781 L 585.066406 359.300781 L 585.066406 612.097656 L 41.640625 612.097656 Z M 41.640625 359.300781 L 352.589844 419.308594 C 352.589844 432.972656 341.511719 444.050781 327.84375 444.050781 C 314.179688 444.050781 303.101562 432.972656 303.101562 419.308594 C 303.101562 405.640625 314.179688 394.5625 327.84375 394.5625 C 341.511719 394.5625 352.589844 405.640625 352.589844 419.308594 Z M 41.640625 359.300781 "/>
</clipPath>
<clipPath id="clip27">
  <path d="M 41.640625 359.300781 L 585.066406 359.300781 L 585.066406 612.097656 L 41.640625 612.097656 Z M 41.640625 359.300781 L 323.605469 552.089844 C 323.605469 565.757812 312.527344 576.835938 298.863281 576.835938 C 285.195312 576.835938 274.117188 565.757812 274.117188 552.089844 C 274.117188 538.425781 285.195312 527.347656 298.863281 527.347656 C 312.527344 527.347656 323.605469 538.425781 323.605469 552.089844 Z M 41.640625 359.300781 "/>
</clipPath>
<clipPath id="clip28">
  <path d="M 0 219 L 215 219 L 215 407 L 0 407 Z M 0 219 "/>
</clipPath>
<clipPath id="clip29">
  <path d="M -71.703125 56.613281 L 271.464844 56.613281 L 271.464844 569.386719 L -71.703125 569.386719 Z M -71.703125 56.613281 L 80.066406 289.09375 C 80.066406 302.757812 68.988281 313.835938 55.324219 313.835938 C 41.65625 313.835938 30.578125 302.757812 30.578125 289.09375 C 30.578125 275.429688 41.65625 264.351562 55.324219 264.351562 C 68.988281 264.351562 80.066406 275.429688 80.066406 289.09375 Z M -71.703125 56.613281 "/>
</clipPath>
<clipPath id="clip30">
  <path d="M -71.703125 56.613281 L 271.464844 56.613281 L 271.464844 569.386719 L -71.703125 569.386719 Z M -71.703125 56.613281 L 169.179688 336.90625 C 169.179688 350.570312 158.101562 361.648438 144.4375 361.648438 C 130.769531 361.648438 119.691406 350.570312 119.691406 336.90625 C 119.691406 323.238281 130.769531 312.160156 144.4375 312.160156 C 158.101562 312.160156 169.179688 323.238281 169.179688 336.90625 Z M -71.703125 56.613281 "/>
</clipPath>
<clipPath id="clip31">
  <path d="M 416 379 L 600 379 L 600 576 L 416 576 Z M 416 379 "/>
</clipPath>
<clipPath id="clip32">
  <path d="M 302.847656 258.539062 L 728.515625 258.539062 L 728.515625 696.554688 L 302.847656 696.554688 Z M 302.847656 258.539062 L 511.429688 449.691406 C 511.429688 463.355469 500.351562 474.433594 486.6875 474.433594 C 473.023438 474.433594 461.945312 463.355469 461.945312 449.691406 C 461.945312 436.023438 473.023438 424.945312 486.6875 424.945312 C 500.351562 424.945312 511.429688 436.023438 511.429688 449.691406 Z M 302.847656 258.539062 "/>
</clipPath>
<clipPath id="clip33">
  <path d="M 302.847656 258.539062 L 728.515625 258.539062 L 728.515625 696.554688 L 302.847656 696.554688 Z M 302.847656 258.539062 L 569.421875 505.402344 C 569.421875 519.066406 558.34375 530.144531 544.675781 530.144531 C 531.011719 530.144531 519.933594 519.066406 519.933594 505.402344 C 519.933594 491.734375 531.011719 480.65625 544.675781 480.65625 C 558.34375 480.65625 569.421875 491.734375 569.421875 505.402344 Z M 302.847656 258.539062 "/>
</clipPath>
<clipPath id="clip34">
  <path d="M 446.71875 435 L 559.574219 435 L 559.574219 579 L 446.71875 579 Z M 446.71875 435 "/>
</clipPath>
<clipPath id="clip35">
  <path d="M 446.71875 242.433594 L 559.574219 242.433594 L 559.574219 771.574219 L 446.71875 771.574219 Z M 446.71875 242.433594 L 569.421875 505.402344 C 569.421875 519.066406 558.34375 530.144531 544.675781 530.144531 C 531.011719 530.144531 519.933594 519.066406 519.933594 505.402344 C 519.933594 491.734375 531.011719 480.65625 544.675781 480.65625 C 558.34375 480.65625 569.421875 491.734375 569.421875 505.402344 Z M 446.71875 242.433594 "/>
</clipPath>
<clipPath id="clip36">
  <path d="M 446.71875 242.433594 L 559.574219 242.433594 L 559.574219 771.574219 L 446.71875 771.574219 Z M 446.71875 242.433594 L 486.363281 508.605469 C 486.363281 522.273438 475.285156 533.351562 461.617188 533.351562 C 447.953125 533.351562 436.875 522.273438 436.875 508.605469 C 436.875 494.941406 447.953125 483.863281 461.617188 483.863281 C 475.285156 483.863281 486.363281 494.941406 486.363281 508.605469 Z M 446.71875 242.433594 "/>
</clipPath>
</defs>
<g id="surface451">
<g clip-path="url(#clip1)" clip-rule="nonzero">
<g clip-path="url(#clip2)" clip-rule="evenodd">
<g clip-path="url(#clip3)" clip-rule="evenodd">
<path style="fill:none;stroke-width:0.0191653;stroke-linecap:butt;stroke-linejoin:miter;stroke:rgb(17.96875%,20.3125%,21.09375%);stroke-opacity:0.8;stroke-miterlimit:10;" d="M 2.418477 0.893316 L 2.33081 1.151356 " transform="matrix(258.212061,0,0,258.212061,-160.151727,-182.754886)"/>
</g>
</g>
</g>
<g clip-path="url(#clip4)" clip-rule="nonzero">
<g clip-path="url(#clip5)" clip-rule="evenodd">
<g clip-path="url(#clip6)" clip-rule="evenodd">
<path style="fill:none;stroke-width:0.0191653;stroke-linecap:butt;stroke-linejoin:miter;stroke:rgb(17.96875%,20.3125%,21.09375%);stroke-opacity:0.8;stroke-miterlimit:10;" d="M 2.33081 1.151356 L 2.167986 1.600992 " transform="matrix(258.212061,0,0,258.212061,-160.151727,-182.754886)"/>
</g>
</g>
</g>
<g clip-path="url(#clip7)" clip-rule="nonzero">
<g clip-path="url(#clip8)" clip-rule="evenodd">
<g clip-path="url(#clip9)" clip-rule="evenodd">
<path style="fill:none;stroke-width:0.0191653;stroke-linecap:butt;stroke-linejoin:miter;stroke:rgb(17.96875%,20.3125%,21.09375%);stroke-opacity:0.8;stroke-miterlimit:10;" d="M 1.889902 2.331663 L 2.167986 1.600992 " transform="matrix(258.212061,0,0,258.212061,-160.151727,-182.754886)"/>
</g>
</g>
</g>
<g clip-path="url(#clip10)" clip-rule="nonzero">
<g clip-path="url(#clip11)" clip-rule="evenodd">
<g clip-path="url(#clip12)" clip-rule="evenodd">
<path style="fill:none;stroke-width:0.0191653;stroke-linecap:butt;stroke-linejoin:miter;stroke:rgb(17.96875%,20.3125%,21.09375%);stroke-opacity:0.8;stroke-miterlimit:10;" d="M 1.889902 2.331663 L 1.179609 2.012536 " transform="matrix(258.212061,0,0,258.212061,-160.151727,-182.754886)"/>
</g>
</g>
</g>
<g clip-path="url(#clip13)" clip-rule="nonzero">
<g clip-path="url(#clip14)" clip-rule="evenodd">
<g clip-path="url(#clip15)" clip-rule="evenodd">
<path style="fill:none;stroke-width:0.0191653;stroke-linecap:butt;stroke-linejoin:miter;stroke:rgb(17.96875%,20.3125%,21.09375%);stroke-opacity:0.8;stroke-miterlimit:10;" d="M 1.889902 2.331663 L 1.713705 2.065606 " transform="matrix(258.212061,0,0,258.212061,-160.151727,-182.754886)"/>
</g>
</g>
</g>
<g clip-path="url(#clip16)" clip-rule="nonzero">
<g clip-path="url(#clip17)" clip-rule="evenodd">
<g clip-path="url(#clip18)" clip-rule="evenodd">
<path style="fill:none;stroke-width:0.0191653;stroke-linecap:butt;stroke-linejoin:miter;stroke:rgb(17.96875%,20.3125%,21.09375%);stroke-opacity:0.8;stroke-miterlimit:10;" d="M 1.889902 2.331663 L 1.472171 2.635692 " transform="matrix(258.212061,0,0,258.212061,-160.151727,-182.754886)"/>
</g>
</g>
</g>
<g clip-path="url(#clip19)" clip-rule="nonzero">
<g clip-path="url(#clip20)" clip-rule="evenodd">
<g clip-path="url(#clip21)" clip-rule="evenodd">
<path style="fill:none;stroke-width:0.0191653;stroke-linecap:butt;stroke-linejoin:miter;stroke:rgb(17.96875%,20.3125%,21.09375%);stroke-opacity:0.8;stroke-miterlimit:10;" d="M 1.889902 2.331663 L 2.50507 2.449329 " transform="matrix(258.212061,0,0,258.212061,-160.151727,-182.754886)"/>
</g>
</g>
</g>
<g clip-path="url(#clip22)" clip-rule="nonzero">
<g clip-path="url(#clip23)" clip-rule="evenodd">
<g clip-path="url(#clip24)" clip-rule="evenodd">
<path style="fill:none;stroke-width:0.0191653;stroke-linecap:butt;stroke-linejoin:miter;stroke:rgb(17.96875%,20.3125%,21.09375%);stroke-opacity:0.8;stroke-miterlimit:10;" d="M 1.889902 2.331663 L 2.407978 2.677491 " transform="matrix(258.212061,0,0,258.212061,-160.151727,-182.754886)"/>
</g>
</g>
</g>
<g clip-path="url(#clip25)" clip-rule="nonzero">
<g clip-path="url(#clip26)" clip-rule="evenodd">
<g clip-path="url(#clip27)" clip-rule="evenodd">
<path style="fill:none;stroke-width:0.0191653;stroke-linecap:butt;stroke-linejoin:miter;stroke:rgb(17.96875%,20.3125%,21.09375%);stroke-opacity:0.8;stroke-miterlimit:10;" d="M 1.889902 2.331663 L 1.777667 2.845896 " transform="matrix(258.212061,0,0,258.212061,-160.151727,-182.754886)"/>
</g>
</g>
</g>
<g clip-path="url(#clip28)" clip-rule="nonzero">
<g clip-path="url(#clip29)" clip-rule="evenodd">
<g clip-path="url(#clip30)" clip-rule="evenodd">
<path style="fill:none;stroke-width:0.0191653;stroke-linecap:butt;stroke-linejoin:miter;stroke:rgb(17.96875%,20.3125%,21.09375%);stroke-opacity:0.8;stroke-miterlimit:10;" d="M 0.834492 1.827369 L 1.179609 2.012536 " transform="matrix(258.212061,0,0,258.212061,-160.151727,-182.754886)"/>
</g>
</g>
</g>
<g clip-path="url(#clip31)" clip-rule="nonzero">
<g clip-path="url(#clip32)" clip-rule="evenodd">
<g clip-path="url(#clip33)" clip-rule="evenodd">
<path style="fill:none;stroke-width:0.0191653;stroke-linecap:butt;stroke-linejoin:miter;stroke:rgb(17.96875%,20.3125%,21.09375%);stroke-opacity:0.8;stroke-miterlimit:10;" d="M 2.50507 2.449329 L 2.729646 2.665086 " transform="matrix(258.212061,0,0,258.212061,-160.151727,-182.754886)"/>
</g>
</g>
</g>
<g clip-path="url(#clip34)" clip-rule="nonzero">
<g clip-path="url(#clip35)" clip-rule="evenodd">
<g clip-path="url(#clip36)" clip-rule="evenodd">
<path style="fill:none;stroke-width:0.0191653;stroke-linecap:butt;stroke-linejoin:miter;stroke:rgb(17.96875%,20.3125%,21.09375%);stroke-opacity:0.8;stroke-miterlimit:10;" d="M 2.729646 2.665086 L 2.407978 2.677491 " transform="matrix(258.212061,0,0,258.212061,-160.151727,-182.754886)"/>
</g>
</g>
</g>
<path style="fill-rule:nonzero;fill:rgb(100%,92.941176%,43.529412%);fill-opacity:1;stroke-width:0.0191653;stroke-linecap:butt;stroke-linejoin:miter;stroke:rgb(60%,60%,60%);stroke-opacity:0.8;stroke-miterlimit:10;" d="M 0.0958295 0.00000461212 C 0.0958295 0.0529226 0.0529263 0.0958258 -0.00000683675 0.0958258 C -0.0529248 0.0958258 -0.095828 0.0529226 -0.095828 0.00000461212 C -0.095828 -0.0529285 -0.0529248 -0.0958317 -0.00000683675 -0.0958317 C 0.0529263 -0.0958317 0.0958295 -0.0529285 0.0958295 0.00000461212 Z M 0.0958295 0.00000461212 " transform="matrix(258.212061,0,0,258.212061,464.32989,47.908965)"/>
<path style="fill-rule:nonzero;fill:rgb(100%,92.941176%,43.529412%);fill-opacity:1;stroke-width:0.0191653;stroke-linecap:butt;stroke-linejoin:miter;stroke:rgb(60%,60%,60%);stroke-opacity:0.8;stroke-miterlimit:10;" d="M 0.0958258 0.00000701955 C 0.0958258 0.052925 0.0529226 0.0958282 0.00000463446 0.0958282 C -0.0529285 0.0958282 -0.0958317 0.052925 -0.0958317 0.00000701955 C -0.0958317 -0.0529261 -0.0529285 -0.0958293 0.00000463446 -0.0958293 C 0.0529226 -0.0958293 0.0958258 -0.0529261 0.0958258 0.00000701955 Z M 0.0958258 0.00000701955 " transform="matrix(258.212061,0,0,258.212061,441.69021,114.53725)"/>
<path style="fill-rule:nonzero;fill:rgb(100%,92.941176%,43.529412%);fill-opacity:1;stroke-width:0.0191653;stroke-linecap:butt;stroke-linejoin:miter;stroke:rgb(60%,60%,60%);stroke-opacity:0.8;stroke-miterlimit:10;" d="M 0.0958337 0.000006406 C 0.0958337 0.0529244 0.0529305 0.0958276 -0.00000262756 0.0958276 C -0.0529206 0.0958276 -0.0958238 0.0529244 -0.0958238 0.000006406 C -0.0958238 -0.0529267 -0.0529206 -0.0958299 -0.00000262756 -0.0958299 C 0.0529305 -0.0958299 0.0958337 -0.0529267 0.0958337 0.000006406 Z M 0.0958337 0.000006406 " transform="matrix(258.212061,0,0,258.212061,327.844428,419.30694)"/>
<path style="fill-rule:nonzero;fill:rgb(100%,92.941176%,43.529412%);fill-opacity:1;stroke-width:0.0191653;stroke-linecap:butt;stroke-linejoin:miter;stroke:rgb(60%,60%,60%);stroke-opacity:0.8;stroke-miterlimit:10;" d="M 0.0958225 -0.00000413352 C 0.0958225 0.052929 0.0529193 0.0958322 0.00000133103 0.0958322 C -0.0529167 0.0958322 -0.0958199 0.052929 -0.0958199 -0.00000413352 C -0.0958199 -0.0529221 -0.0529167 -0.0958253 0.00000133103 -0.0958253 C 0.0529193 -0.0958253 0.0958225 -0.0529221 0.0958225 -0.00000413352 Z M 0.0958225 -0.00000413352 " transform="matrix(258.212061,0,0,258.212061,399.648094,230.641692)"/>
<path style="fill-rule:nonzero;fill:rgb(100%,92.941176%,43.529412%);fill-opacity:1;stroke-width:0.0191653;stroke-linecap:butt;stroke-linejoin:miter;stroke:rgb(60%,60%,60%);stroke-opacity:0.8;stroke-miterlimit:10;" d="M 0.0958257 0.000000781903 C 0.0958257 0.0529188 0.0529225 0.095822 0.00000448405 0.095822 C -0.0529286 0.095822 -0.0958318 0.0529188 -0.0958318 0.000000781903 C -0.0958318 -0.0529172 -0.0529286 -0.0958204 0.00000448405 -0.0958204 C 0.0529225 -0.0958204 0.0958257 -0.0529172 0.0958257 0.000000781903 Z M 0.0958257 0.000000781903 " transform="matrix(258.212061,0,0,258.212061,55.323061,289.093548)"/>
<path style="fill-rule:nonzero;fill:rgb(100%,92.941176%,43.529412%);fill-opacity:1;stroke-width:0.0191653;stroke-linecap:butt;stroke-linejoin:miter;stroke:rgb(60%,60%,60%);stroke-opacity:0.8;stroke-miterlimit:10;" d="M 0.0958252 0.0000041036 C 0.0958252 0.0529221 0.052922 0.0958253 0.00000398783 0.0958253 C -0.0529291 0.0958253 -0.0958323 0.0529221 -0.0958323 0.0000041036 C -0.0958323 -0.052929 -0.0529291 -0.0958322 0.00000398783 -0.0958322 C 0.052922 -0.0958322 0.0958252 -0.052929 0.0958252 0.0000041036 Z M 0.0958252 0.0000041036 " transform="matrix(258.212061,0,0,258.212061,144.43647,336.90519)"/>
<path style="fill-rule:nonzero;fill:rgb(100%,92.941176%,43.529412%);fill-opacity:1;stroke-width:0.0191653;stroke-linecap:butt;stroke-linejoin:miter;stroke:rgb(60%,60%,60%);stroke-opacity:0.8;stroke-miterlimit:10;" d="M 0.0958193 0.00000258624 C 0.0958193 0.0529206 0.0529161 0.0958238 -0.00000185498 0.0958238 C -0.0529198 0.0958238 -0.095823 0.0529206 -0.095823 0.00000258624 C -0.095823 -0.0529305 -0.0529198 -0.0958337 -0.00000185498 -0.0958337 C 0.0529161 -0.0958337 0.0958193 -0.0529305 0.0958193 0.00000258624 Z M 0.0958193 0.00000258624 " transform="matrix(258.212061,0,0,258.212061,282.348135,350.608707)"/>
<path style="fill-rule:nonzero;fill:rgb(100%,92.941176%,43.529412%);fill-opacity:1;stroke-width:0.0191653;stroke-linecap:butt;stroke-linejoin:miter;stroke:rgb(60%,60%,60%);stroke-opacity:0.8;stroke-miterlimit:10;" d="M 0.0958312 -0.000000593619 C 0.0958312 0.0529174 0.052928 0.0958206 -0.00000513436 0.0958206 C -0.0529231 0.0958206 -0.0958263 0.0529174 -0.0958263 -0.000000593619 C -0.0958263 -0.0529186 -0.0529231 -0.0958218 -0.00000513436 -0.0958218 C 0.052928 -0.0958218 0.0958312 -0.0529186 0.0958312 -0.000000593619 Z M 0.0958312 -0.000000593619 " transform="matrix(258.212061,0,0,258.212061,219.981795,497.812653)"/>
<path style="fill-rule:nonzero;fill:rgb(55.294118%,82.745098%,78.039216%);fill-opacity:1;stroke-width:0.0191653;stroke-linecap:butt;stroke-linejoin:miter;stroke:rgb(60%,60%,60%);stroke-opacity:0.8;stroke-miterlimit:10;" d="M 0.0958193 0.00000406784 C 0.0958193 0.0529221 0.0529161 0.0958253 -0.0000019069 0.0958253 C -0.0529199 0.0958253 -0.0958231 0.0529221 -0.0958231 0.00000406784 C -0.0958231 -0.052929 -0.0529199 -0.0958323 -0.0000019069 -0.0958323 C 0.0529161 -0.0958323 0.0958193 -0.052929 0.0958193 0.00000406784 Z M 0.0958193 0.00000406784 " transform="matrix(258.212061,0,0,258.212061,486.687992,449.690356)"/>
<path style="fill-rule:nonzero;fill:rgb(55.294118%,82.745098%,78.039216%);fill-opacity:1;stroke-width:0.0191653;stroke-linecap:butt;stroke-linejoin:miter;stroke:rgb(60%,60%,60%);stroke-opacity:0.8;stroke-miterlimit:10;" d="M 0.0958318 0.00000621828 C 0.0958318 0.0529242 0.0529286 0.0958274 -0.00000448405 0.0958274 C -0.0529225 0.0958274 -0.0958257 0.0529242 -0.0958257 0.00000621828 C -0.0958257 -0.0529269 -0.0529225 -0.0958301 -0.00000448405 -0.0958301 C 0.0529286 -0.0958301 0.0958318 -0.0529269 0.0958318 0.00000621828 Z M 0.0958318 0.00000621828 " transform="matrix(258.212061,0,0,258.212061,544.676939,505.400738)"/>
<path style="fill-rule:nonzero;fill:rgb(100%,92.941176%,43.529412%);fill-opacity:1;stroke-width:0.0191653;stroke-linecap:butt;stroke-linejoin:miter;stroke:rgb(60%,60%,60%);stroke-opacity:0.8;stroke-miterlimit:10;" d="M 0.0958313 -0.00000484412 C 0.0958313 0.0529283 0.0529281 0.0958315 -0.00000497294 0.0958315 C -0.052923 0.0958315 -0.0958262 0.0529283 -0.0958262 -0.00000484412 C -0.0958262 -0.0529228 -0.052923 -0.095826 -0.00000497294 -0.095826 C 0.0529281 -0.095826 0.0958313 -0.0529228 0.0958313 -0.00000484412 Z M 0.0958313 -0.00000484412 " transform="matrix(258.212061,0,0,258.212061,461.618472,508.60672)"/>
<path style="fill-rule:nonzero;fill:rgb(100%,92.941176%,43.529412%);fill-opacity:1;stroke-width:0.0191653;stroke-linecap:butt;stroke-linejoin:miter;stroke:rgb(60%,60%,60%);stroke-opacity:0.8;stroke-miterlimit:10;" d="M 0.0958287 -0.00000461212 C 0.0958287 0.0529285 0.0529255 0.0958317 0.00000754877 0.0958317 C -0.0529256 0.0958317 -0.0958288 0.0529285 -0.0958288 -0.00000461212 C -0.0958288 -0.0529226 -0.0529256 -0.0958258 0.00000754877 -0.0958258 C 0.0529255 -0.0958258 0.0958287 -0.0529226 0.0958287 -0.00000461212 Z M 0.0958287 -0.00000461212 " transform="matrix(258.212061,0,0,258.212061,298.861332,552.091035)"/>
</g>
</svg>
