<?xml version="1.0" encoding="UTF-8"?>
<svg xmlns="http://www.w3.org/2000/svg" xmlns:xlink="http://www.w3.org/1999/xlink" width="600pt" height="600pt" viewBox="0 0 600 600" version="1.1">
<defs>
<clipPath id="clip1">
  <path d="M 458 59 L 597 59 L 597 249 L 458 249 Z M 458 59 "/>
</clipPath>
<clipPath id="clip2">
  <path d="M 337.703125 58.195312 L 717.789062 58.195312 L 717.789062 250.183594 L 337.703125 250.183594 Z M 337.703125 58.195312 L 536.269531 117.054688 C 536.269531 128.214844 527.226562 137.257812 516.066406 137.257812 C 504.910156 137.257812 495.863281 128.214844 495.863281 117.054688 C 495.863281 105.898438 504.910156 96.851562 516.066406 96.851562 C 527.226562 96.851562 536.269531 105.898438 536.269531 117.054688 Z M 337.703125 58.195312 "/>
</clipPath>
<clipPath id="clip3">
  <path d="M 337.703125 58.195312 L 717.789062 58.195312 L 717.789062 250.183594 L 337.703125 250.183594 Z M 337.703125 58.195312 L 559.625 191.320312 C 559.625 202.480469 550.578125 211.523438 539.421875 211.523438 C 528.261719 211.523438 519.21875 202.480469 519.21875 191.320312 C 519.21875 180.164062 528.261719 171.117188 539.421875 171.117188 C 550.578125 171.117188 559.625 180.164062 559.625 191.320312 Z M 337.703125 58.195312 "/>
</clipPath>
<clipPath id="clip4">
  <path d="M 424 7 L 574 7 L 574 175 L 424 175 Z M 424 7 "/>
</clipPath>
<clipPath id="clip5">
  <path d="M 325.125 -39.34375 L 672.835938 -39.34375 L 672.835938 221.441406 L 325.125 221.441406 Z M 325.125 -39.34375 L 536.269531 117.054688 C 536.269531 128.214844 527.226562 137.257812 516.066406 137.257812 C 504.910156 137.257812 495.863281 128.214844 495.863281 117.054688 C 495.863281 105.898438 504.910156 96.851562 516.066406 96.851562 C 527.226562 96.851562 536.269531 105.898438 536.269531 117.054688 Z M 325.125 -39.34375 "/>
</clipPath>
<clipPath id="clip6">
  <path d="M 325.125 -39.34375 L 672.835938 -39.34375 L 672.835938 221.441406 L 325.125 221.441406 Z M 325.125 -39.34375 L 502.09375 65.039062 C 502.09375 76.195312 493.050781 85.242188 481.890625 85.242188 C 470.734375 85.242188 461.6875 76.195312 461.6875 65.039062 C 461.6875 53.878906 470.734375 44.835938 481.890625 44.835938 C 493.050781 44.835938 502.09375 53.878906 502.09375 65.039062 Z M 325.125 -39.34375 "/>
</clipPath>
<clipPath id="clip7">
  <path d="M 453 134 L 597 134 L 597 310 L 453 310 Z M 453 134 "/>
</clipPath>
<clipPath id="clip8">
  <path d="M 341.550781 108.46875 L 708.335938 108.46875 L 708.335938 334.761719 L 341.550781 334.761719 Z M 341.550781 108.46875 L 530.664062 251.90625 C 530.664062 263.0625 521.617188 272.109375 510.460938 272.109375 C 499.304688 272.109375 490.257812 263.0625 490.257812 251.90625 C 490.257812 240.746094 499.304688 231.703125 510.460938 231.703125 C 521.617188 231.703125 530.664062 240.746094 530.664062 251.90625 Z M 341.550781 108.46875 "/>
</clipPath>
<clipPath id="clip9">
  <path d="M 341.550781 108.46875 L 708.335938 108.46875 L 708.335938 334.761719 L 341.550781 334.761719 Z M 341.550781 108.46875 L 559.625 191.320312 C 559.625 202.480469 550.578125 211.523438 539.421875 211.523438 C 528.261719 211.523438 519.21875 202.480469 519.21875 191.320312 C 519.21875 180.164062 528.261719 171.117188 539.421875 171.117188 C 550.578125 171.117188 559.625 180.164062 559.625 191.320312 Z M 341.550781 108.46875 "/>
</clipPath>
<clipPath id="clip10">
  <path d="M 407.425781 194 L 530.019531 194 L 530.019531 317 L 407.425781 317 Z M 407.425781 194 "/>
</clipPath>
<clipPath id="clip11">
  <path d="M 407.425781 65.785156 L 530.019531 65.785156 L 530.019531 445.144531 L 407.425781 445.144531 Z M 407.425781 65.785156 L 530.664062 251.90625 C 530.664062 263.0625 521.617188 272.109375 510.460938 272.109375 C 499.304688 272.109375 490.257812 263.0625 490.257812 251.90625 C 490.257812 240.746094 499.304688 231.703125 510.460938 231.703125 C 521.617188 231.703125 530.664062 240.746094 530.664062 251.90625 Z M 407.425781 65.785156 "/>
</clipPath>
<clipPath id="clip12">
  <path d="M 407.425781 65.785156 L 530.019531 65.785156 L 530.019531 445.144531 L 407.425781 445.144531 Z M 407.425781 65.785156 L 447.183594 259.019531 C 447.183594 270.179688 438.136719 279.222656 426.980469 279.222656 C 415.824219 279.222656 406.777344 270.179688 406.777344 259.019531 C 406.777344 247.863281 415.824219 238.816406 426.980469 238.816406 C 438.136719 238.816406 447.183594 247.863281 447.183594 259.019531 Z M 407.425781 65.785156 "/>
</clipPath>
<clipPath id="clip13">
  <path d="M 117 98.011719 L 243 98.011719 L 243 276.695312 L 117 276.695312 Z M 117 98.011719 "/>
</clipPath>
<clipPath id="clip14">
  <path d="M -11.847656 98.011719 L 371.199219 98.011719 L 371.199219 276.695312 L -11.847656 276.695312 Z M -11.847656 98.011719 L 205.097656 115.25 C 205.097656 126.40625 196.050781 135.453125 184.894531 135.453125 C 173.738281 135.453125 164.691406 126.40625 164.691406 115.25 C 164.691406 104.089844 173.738281 95.046875 184.894531 95.046875 C 196.050781 95.046875 205.097656 104.089844 205.097656 115.25 Z M -11.847656 98.011719 "/>
</clipPath>
<clipPath id="clip15">
  <path d="M -11.847656 98.011719 L 371.199219 98.011719 L 371.199219 276.695312 L -11.847656 276.695312 Z M -11.847656 98.011719 L 194.65625 259.453125 C 194.65625 270.609375 185.613281 279.65625 174.453125 279.65625 C 163.296875 279.65625 154.25 270.609375 154.25 259.453125 C 154.25 248.292969 163.296875 239.25 174.453125 239.25 C 185.613281 239.25 194.65625 248.292969 194.65625 259.453125 Z M -11.847656 98.011719 "/>
</clipPath>
<clipPath id="clip16">
  <path d="M 127 10.957031 L 253 10.957031 L 253 146.167969 L 127 146.167969 Z M 127 10.957031 "/>
</clipPath>
<clipPath id="clip17">
  <path d="M 0.101562 10.957031 L 380.601562 10.957031 L 380.601562 146.167969 L 0.101562 146.167969 Z M 0.101562 10.957031 L 205.097656 115.25 C 205.097656 126.40625 196.050781 135.453125 184.894531 135.453125 C 173.738281 135.453125 164.691406 126.40625 164.691406 115.25 C 164.691406 104.089844 173.738281 95.046875 184.894531 95.046875 C 196.050781 95.046875 205.097656 104.089844 205.097656 115.25 Z M 0.101562 10.957031 "/>
</clipPath>
<clipPath id="clip18">
  <path d="M 0.101562 10.957031 L 380.601562 10.957031 L 380.601562 146.167969 L 0.101562 146.167969 Z M 0.101562 10.957031 L 216.007812 41.871094 C 216.007812 53.027344 206.960938 62.074219 195.804688 62.074219 C 184.644531 62.074219 175.601562 53.027344 175.601562 41.871094 C 175.601562 30.710938 184.644531 21.667969 195.804688 21.667969 C 206.960938 21.667969 216.007812 30.710938 216.007812 41.871094 Z M 0.101562 10.957031 "/>
</clipPath>
<clipPath id="clip19">
  <path d="M 291.976562 189 L 451.109375 189 L 451.109375 317 L 291.976562 317 Z M 291.976562 189 "/>
</clipPath>
<clipPath id="clip20">
  <path d="M 291.976562 61.085938 L 451.109375 61.085938 L 451.109375 444.695312 L 291.976562 444.695312 Z M 291.976562 61.085938 L 336.304688 246.757812 C 336.304688 257.914062 327.257812 266.960938 316.101562 266.960938 C 304.945312 266.960938 295.898438 257.914062 295.898438 246.757812 C 295.898438 235.601562 304.945312 226.554688 316.101562 226.554688 C 327.257812 226.554688 336.304688 235.601562 336.304688 246.757812 Z M 291.976562 61.085938 "/>
</clipPath>
<clipPath id="clip21">
  <path d="M 291.976562 61.085938 L 451.109375 61.085938 L 451.109375 444.695312 L 291.976562 444.695312 Z M 291.976562 61.085938 L 447.183594 259.019531 C 447.183594 270.179688 438.136719 279.222656 426.980469 279.222656 C 415.824219 279.222656 406.777344 270.179688 406.777344 259.019531 C 406.777344 247.863281 415.824219 238.816406 426.980469 238.816406 C 438.136719 238.816406 447.183594 247.863281 447.183594 259.019531 Z M 291.976562 61.085938 "/>
</clipPath>
<clipPath id="clip22">
  <path d="M 154.101562 189 L 336.457031 189 L 336.457031 317 L 154.101562 317 Z M 154.101562 189 "/>
</clipPath>
<clipPath id="clip23">
  <path d="M 154.101562 60.707031 L 336.457031 60.707031 L 336.457031 445.507812 L 154.101562 445.507812 Z M 154.101562 60.707031 L 336.304688 246.757812 C 336.304688 257.914062 327.257812 266.960938 316.101562 266.960938 C 304.945312 266.960938 295.898438 257.914062 295.898438 246.757812 C 295.898438 235.601562 304.945312 226.554688 316.101562 226.554688 C 327.257812 226.554688 336.304688 235.601562 336.304688 246.757812 Z M 154.101562 60.707031 "/>
</clipPath>
<clipPath id="clip24">
  <path d="M 154.101562 60.707031 L 336.457031 60.707031 L 336.457031 445.507812 L 154.101562 445.507812 Z M 154.101562 60.707031 L 194.65625 259.453125 C 194.65625 270.609375 185.613281 279.65625 174.453125 279.65625 C 163.296875 279.65625 154.25 270.609375 154.25 259.453125 C 154.25 248.292969 163.296875 239.25 174.453125 239.25 C 185.613281 239.25 194.65625 248.292969 194.65625 259.453125 Z M 154.101562 60.707031 "/>
</clipPath>
<clipPath id="clip25">
  <path d="M 55 130 L 232 130 L 232 317 L 55 317 Z M 55 130 "/>
</clipPath>
<clipPath id="clip26">
  <path d="M -29.589844 64.035156 L 316.351562 64.035156 L 316.351562 383.453125 L -29.589844 383.453125 Z M -29.589844 64.035156 L 194.65625 259.453125 C 194.65625 270.609375 185.613281 279.65625 174.453125 279.65625 C 163.296875 279.65625 154.25 270.609375 154.25 259.453125 C 154.25 248.292969 163.296875 239.25 174.453125 239.25 C 185.613281 239.25 194.65625 248.292969 194.65625 259.453125 Z M -29.589844 64.035156 "/>
</clipPath>
<clipPath id="clip27">
  <path d="M -29.589844 64.035156 L 316.351562 64.035156 L 316.351562 383.453125 L -29.589844 383.453125 Z M -29.589844 64.035156 L 132.507812 188.03125 C 132.507812 199.1875 123.460938 208.234375 112.304688 208.234375 C 101.144531 208.234375 92.101562 199.1875 92.101562 188.03125 C 92.101562 176.871094 101.144531 167.828125 112.304688 167.828125 C 123.460938 167.828125 132.507812 176.871094 132.507812 188.03125 Z M -29.589844 64.035156 "/>
</clipPath>
<clipPath id="clip28">
  <path d="M 70 202 L 232 202 L 232 401 L 70 401 Z M 70 202 "/>
</clipPath>
<clipPath id="clip29">
  <path d="M -35.808594 166.847656 L 338.339844 166.847656 L 338.339844 435.765625 L -35.808594 435.765625 Z M -35.808594 166.847656 L 194.65625 259.453125 C 194.65625 270.609375 185.613281 279.65625 174.453125 279.65625 C 163.296875 279.65625 154.25 270.609375 154.25 259.453125 C 154.25 248.292969 163.296875 239.25 174.453125 239.25 C 185.613281 239.25 194.65625 248.292969 194.65625 259.453125 Z M -35.808594 166.847656 "/>
</clipPath>
<clipPath id="clip30">
  <path d="M -35.808594 166.847656 L 338.339844 166.847656 L 338.339844 435.765625 L -35.808594 435.765625 Z M -35.808594 166.847656 L 148.277344 343.15625 C 148.277344 354.3125 139.234375 363.359375 128.074219 363.359375 C 116.917969 363.359375 107.871094 354.3125 107.871094 343.15625 C 107.871094 331.996094 116.917969 322.953125 128.074219 322.953125 C 139.234375 322.953125 148.277344 331.996094 148.277344 343.15625 Z M -35.808594 166.847656 "/>
</clipPath>
<clipPath id="clip31">
  <path d="M 36 202 L 232 202 L 232 372 L 36 372 Z M 36 202 "/>
</clipPath>
<clipPath id="clip32">
  <path d="M -13.683594 104.640625 L 281.75 104.640625 L 281.75 469.632812 L -13.683594 469.632812 Z M -13.683594 104.640625 L 194.65625 259.453125 C 194.65625 270.609375 185.613281 279.65625 174.453125 279.65625 C 163.296875 279.65625 154.25 270.609375 154.25 259.453125 C 154.25 248.292969 163.296875 239.25 174.453125 239.25 C 185.613281 239.25 194.65625 248.292969 194.65625 259.453125 Z M -13.683594 104.640625 "/>
</clipPath>
<clipPath id="clip33">
  <path d="M -13.683594 104.640625 L 281.75 104.640625 L 281.75 469.632812 L -13.683594 469.632812 Z M -13.683594 104.640625 L 113.8125 314.816406 C 113.8125 325.972656 104.765625 335.015625 93.609375 335.015625 C 82.449219 335.015625 73.40625 325.972656 73.40625 314.816406 C 73.40625 303.65625 82.449219 294.613281 93.609375 294.613281 C 104.765625 294.613281 113.8125 303.65625 113.8125 314.816406 Z M -13.683594 104.640625 "/>
</clipPath>
<clipPath id="clip34">
  <path d="M 117 214.246094 L 262 214.246094 L 262 433.765625 L 117 433.765625 Z M 117 214.246094 "/>
</clipPath>
<clipPath id="clip35">
  <path d="M -7.628906 214.246094 L 386.390625 214.246094 L 386.390625 433.765625 L -7.628906 433.765625 Z M -7.628906 214.246094 L 194.65625 259.453125 C 194.65625 270.609375 185.613281 279.65625 174.453125 279.65625 C 163.296875 279.65625 154.25 270.609375 154.25 259.453125 C 154.25 248.292969 163.296875 239.25 174.453125 239.25 C 185.613281 239.25 194.65625 248.292969 194.65625 259.453125 Z M -7.628906 214.246094 "/>
</clipPath>
<clipPath id="clip36">
  <path d="M -7.628906 214.246094 L 386.390625 214.246094 L 386.390625 433.765625 L -7.628906 433.765625 Z M -7.628906 214.246094 L 224.507812 388.554688 C 224.507812 399.714844 215.460938 408.757812 204.304688 408.757812 C 193.144531 408.757812 184.101562 399.714844 184.101562 388.554688 C 184.101562 377.398438 193.144531 368.351562 204.304688 368.351562 C 215.460938 368.351562 224.507812 377.398438 224.507812 388.554688 Z M -7.628906 214.246094 "/>
</clipPath>
<clipPath id="clip37">
  <path d="M 392.183594 460 L 465.90625 460 L 465.90625 575 L 392.183594 575 Z M 392.183594 460 "/>
</clipPath>
<clipPath id="clip38">
  <path d="M 392.183594 330.867188 L 465.90625 330.867188 L 465.90625 704.476562 L 392.183594 704.476562 Z M 392.183594 330.867188 L 481.945312 517.648438 C 481.945312 528.804688 472.898438 537.851562 461.742188 537.851562 C 450.582031 537.851562 441.539062 528.804688 441.539062 517.648438 C 441.539062 506.488281 450.582031 497.445312 461.742188 497.445312 C 472.898438 497.445312 481.945312 506.488281 481.945312 517.648438 Z M 392.183594 330.867188 "/>
</clipPath>
<clipPath id="clip39">
  <path d="M 392.183594 330.867188 L 465.90625 330.867188 L 465.90625 704.476562 L 392.183594 704.476562 Z M 392.183594 330.867188 L 416.546875 517.691406 C 416.546875 528.847656 407.503906 537.894531 396.34375 537.894531 C 385.1875 537.894531 376.140625 528.847656 376.140625 517.691406 C 376.140625 506.53125 385.1875 497.488281 396.34375 497.488281 C 407.503906 497.488281 416.546875 506.53125 416.546875 517.691406 Z M 392.183594 330.867188 "/>
</clipPath>
<clipPath id="clip40">
  <path d="M 254.609375 440 L 436.292969 440 L 436.292969 575 L 254.609375 575 Z M 254.609375 440 "/>
</clipPath>
<clipPath id="clip41">
  <path d="M 254.609375 314.074219 L 436.292969 314.074219 L 436.292969 700.914062 L 254.609375 700.914062 Z M 254.609375 314.074219 L 416.546875 517.691406 C 416.546875 528.847656 407.503906 537.894531 396.34375 537.894531 C 385.1875 537.894531 376.140625 528.847656 376.140625 517.691406 C 376.140625 506.53125 385.1875 497.488281 396.34375 497.488281 C 407.503906 497.488281 416.546875 506.53125 416.546875 517.691406 Z M 254.609375 314.074219 "/>
</clipPath>
<clipPath id="clip42">
  <path d="M 254.609375 314.074219 L 436.292969 314.074219 L 436.292969 700.914062 L 254.609375 700.914062 Z M 254.609375 314.074219 L 314.757812 497.292969 C 314.757812 508.449219 305.714844 517.496094 294.554688 517.496094 C 283.398438 517.496094 274.351562 508.449219 274.351562 497.292969 C 274.351562 486.132812 283.398438 477.089844 294.554688 477.089844 C 305.714844 477.089844 314.757812 486.132812 314.757812 497.292969 Z M 254.609375 314.074219 "/>
</clipPath>
<clipPath id="clip43">
  <path d="M 218 440 L 352 440 L 352 600 L 218 600 Z M 218 440 "/>
</clipPath>
<clipPath id="clip44">
  <path d="M 97.148438 439.675781 L 473.308594 439.675781 L 473.308594 615.75 L 97.148438 615.75 Z M 97.148438 439.675781 L 314.757812 497.292969 C 314.757812 508.449219 305.714844 517.496094 294.554688 517.496094 C 283.398438 517.496094 274.351562 508.449219 274.351562 497.292969 C 274.351562 486.132812 283.398438 477.089844 294.554688 477.089844 C 305.714844 477.089844 314.757812 486.132812 314.757812 497.292969 Z M 97.148438 439.675781 "/>
</clipPath>
<clipPath id="clip45">
  <path d="M 97.148438 439.675781 L 473.308594 439.675781 L 473.308594 615.75 L 97.148438 615.75 Z M 97.148438 439.675781 L 296.101562 558.128906 C 296.101562 569.289062 287.058594 578.332031 275.898438 578.332031 C 264.742188 578.332031 255.699219 569.289062 255.699219 558.128906 C 255.699219 546.972656 264.742188 537.925781 275.898438 537.925781 C 287.058594 537.925781 296.101562 546.972656 296.101562 558.128906 Z M 97.148438 439.675781 "/>
</clipPath>
<clipPath id="clip46">
  <path d="M 147 331 L 352 331 L 352 555 L 147 555 Z M 147 331 "/>
</clipPath>
<clipPath id="clip47">
  <path d="M 59.648438 267.808594 L 439.214844 267.808594 L 439.214844 618.042969 L 59.648438 618.042969 Z M 59.648438 267.808594 L 314.757812 497.292969 C 314.757812 508.449219 305.714844 517.496094 294.554688 517.496094 C 283.398438 517.496094 274.351562 508.449219 274.351562 497.292969 C 274.351562 486.132812 283.398438 477.089844 294.554688 477.089844 C 305.714844 477.089844 314.757812 486.132812 314.757812 497.292969 Z M 59.648438 267.808594 "/>
</clipPath>
<clipPath id="clip48">
  <path d="M 59.648438 267.808594 L 439.214844 267.808594 L 439.214844 618.042969 L 59.648438 618.042969 Z M 59.648438 267.808594 L 224.507812 388.554688 C 224.507812 399.714844 215.460938 408.757812 204.304688 408.757812 C 193.144531 408.757812 184.101562 399.714844 184.101562 388.554688 C 184.101562 377.398438 193.144531 368.351562 204.304688 368.351562 C 215.460938 368.351562 224.507812 377.398438 224.507812 388.554688 Z M 59.648438 267.808594 "/>
</clipPath>
<clipPath id="clip49">
  <path d="M 16.582031 286 L 172.074219 286 L 172.074219 416 L 16.582031 416 Z M 16.582031 286 "/>
</clipPath>
<clipPath id="clip50">
  <path d="M 16.582031 160.796875 L 172.074219 160.796875 L 172.074219 540.644531 L 16.582031 540.644531 Z M 16.582031 160.796875 L 80.78125 358.28125 C 80.78125 369.441406 71.738281 378.484375 60.578125 378.484375 C 49.421875 378.484375 40.375 369.441406 40.375 358.28125 C 40.375 347.125 49.421875 338.078125 60.578125 338.078125 C 71.738281 338.078125 80.78125 347.125 80.78125 358.28125 Z M 16.582031 160.796875 "/>
</clipPath>
<clipPath id="clip51">
  <path d="M 16.582031 160.796875 L 172.074219 160.796875 L 172.074219 540.644531 L 16.582031 540.644531 Z M 16.582031 160.796875 L 148.277344 343.15625 C 148.277344 354.3125 139.234375 363.359375 128.074219 363.359375 C 116.917969 363.359375 107.871094 354.3125 107.871094 343.15625 C 107.871094 331.996094 116.917969 322.953125 128.074219 322.953125 C 139.234375 322.953125 148.277344 331.996094 148.277344 343.15625 Z M 16.582031 160.796875 "/>
</clipPath>
<clipPath id="clip52">
  <path d="M 3 257 L 151 257 L 151 416 L 3 416 Z M 3 257 "/>
</clipPath>
<clipPath id="clip53">
  <path d="M -88.957031 200.207031 L 243.148438 200.207031 L 243.148438 472.894531 L -88.957031 472.894531 Z M -88.957031 200.207031 L 80.78125 358.28125 C 80.78125 369.441406 71.738281 378.484375 60.578125 378.484375 C 49.421875 378.484375 40.375 369.441406 40.375 358.28125 C 40.375 347.125 49.421875 338.078125 60.578125 338.078125 C 71.738281 338.078125 80.78125 347.125 80.78125 358.28125 Z M -88.957031 200.207031 "/>
</clipPath>
<clipPath id="clip54">
  <path d="M -88.957031 200.207031 L 243.148438 200.207031 L 243.148438 472.894531 L -88.957031 472.894531 Z M -88.957031 200.207031 L 113.8125 314.816406 C 113.8125 325.972656 104.765625 335.015625 93.609375 335.015625 C 82.449219 335.015625 73.40625 325.972656 73.40625 314.816406 C 73.40625 303.65625 82.449219 294.613281 93.609375 294.613281 C 104.765625 294.613281 113.8125 303.65625 113.8125 314.816406 Z M -88.957031 200.207031 "/>
</clipPath>
<clipPath id="clip55">
  <path d="M 36 257 L 186 257 L 186 401 L 36 401 Z M 36 257 "/>
</clipPath>
<clipPath id="clip56">
  <path d="M -26.496094 169.628906 L 248.183594 169.628906 L 248.183594 488.347656 L -26.496094 488.347656 Z M -26.496094 169.628906 L 148.277344 343.15625 C 148.277344 354.3125 139.234375 363.359375 128.074219 363.359375 C 116.917969 363.359375 107.871094 354.3125 107.871094 343.15625 C 107.871094 331.996094 116.917969 322.953125 128.074219 322.953125 C 139.234375 322.953125 148.277344 331.996094 148.277344 343.15625 Z M -26.496094 169.628906 "/>
</clipPath>
<clipPath id="clip57">
  <path d="M -26.496094 169.628906 L 248.183594 169.628906 L 248.183594 488.347656 L -26.496094 488.347656 Z M -26.496094 169.628906 L 113.8125 314.816406 C 113.8125 325.972656 104.765625 335.015625 93.609375 335.015625 C 82.449219 335.015625 73.40625 325.972656 73.40625 314.816406 C 73.40625 303.65625 82.449219 294.613281 93.609375 294.613281 C 104.765625 294.613281 113.8125 303.65625 113.8125 314.816406 Z M -26.496094 169.628906 "/>
</clipPath>
<clipPath id="clip58">
  <path d="M 70 286 L 262 286 L 262 446 L 70 446 Z M 70 286 "/>
</clipPath>
<clipPath id="clip59">
  <path d="M 30.53125 182.109375 L 301.851562 182.109375 L 301.851562 549.605469 L 30.53125 549.605469 Z M 30.53125 182.109375 L 148.277344 343.15625 C 148.277344 354.3125 139.234375 363.359375 128.074219 363.359375 C 116.917969 363.359375 107.871094 354.3125 107.871094 343.15625 C 107.871094 331.996094 116.917969 322.953125 128.074219 322.953125 C 139.234375 322.953125 148.277344 331.996094 148.277344 343.15625 Z M 30.53125 182.109375 "/>
</clipPath>
<clipPath id="clip60">
  <path d="M 30.53125 182.109375 L 301.851562 182.109375 L 301.851562 549.605469 L 30.53125 549.605469 Z M 30.53125 182.109375 L 224.507812 388.554688 C 224.507812 399.714844 215.460938 408.757812 204.304688 408.757812 C 193.144531 408.757812 184.101562 399.714844 184.101562 388.554688 C 184.101562 377.398438 193.144531 368.351562 204.304688 368.351562 C 215.460938 368.351562 224.507812 377.398438 224.507812 388.554688 Z M 30.53125 182.109375 "/>
</clipPath>
</defs>
<g id="surface381">
<g clip-path="url(#clip1)" clip-rule="nonzero">
<g clip-path="url(#clip2)" clip-rule="evenodd">
<g clip-path="url(#clip3)" clip-rule="evenodd">
<path style="fill:none;stroke-width:0.0221112;stroke-linecap:butt;stroke-linejoin:miter;stroke:rgb(17.96875%,20.3125%,21.09375%);stroke-opacity:0.8;stroke-miterlimit:10;" d="M 3.641533 0.784206 L 3.76934 1.190605 " transform="matrix(182.740651,0,0,182.740651,-149.389702,-26.251636)"/>
</g>
</g>
</g>
<g clip-path="url(#clip4)" clip-rule="nonzero">
<g clip-path="url(#clip5)" clip-rule="evenodd">
<g clip-path="url(#clip6)" clip-rule="evenodd">
<path style="fill:none;stroke-width:0.0221112;stroke-linecap:butt;stroke-linejoin:miter;stroke:rgb(17.96875%,20.3125%,21.09375%);stroke-opacity:0.8;stroke-miterlimit:10;" d="M 3.641533 0.784206 L 3.454515 0.499564 " transform="matrix(182.740651,0,0,182.740651,-149.389702,-26.251636)"/>
</g>
</g>
</g>
<g clip-path="url(#clip7)" clip-rule="nonzero">
<g clip-path="url(#clip8)" clip-rule="evenodd">
<g clip-path="url(#clip9)" clip-rule="evenodd">
<path style="fill:none;stroke-width:0.0221112;stroke-linecap:butt;stroke-linejoin:miter;stroke:rgb(17.96875%,20.3125%,21.09375%);stroke-opacity:0.8;stroke-miterlimit:10;" d="M 3.610859 1.522146 L 3.76934 1.190605 " transform="matrix(182.740651,0,0,182.740651,-149.389702,-26.251636)"/>
</g>
</g>
</g>
<g clip-path="url(#clip10)" clip-rule="nonzero">
<g clip-path="url(#clip11)" clip-rule="evenodd">
<g clip-path="url(#clip12)" clip-rule="evenodd">
<path style="fill:none;stroke-width:0.0221112;stroke-linecap:butt;stroke-linejoin:miter;stroke:rgb(17.96875%,20.3125%,21.09375%);stroke-opacity:0.8;stroke-miterlimit:10;" d="M 3.610859 1.522146 L 3.154034 1.561071 " transform="matrix(182.740651,0,0,182.740651,-149.389702,-26.251636)"/>
</g>
</g>
</g>
<g clip-path="url(#clip13)" clip-rule="nonzero">
<g clip-path="url(#clip14)" clip-rule="evenodd">
<g clip-path="url(#clip15)" clip-rule="evenodd">
<path style="fill:none;stroke-width:0.0221112;stroke-linecap:butt;stroke-linejoin:miter;stroke:rgb(17.96875%,20.3125%,21.09375%);stroke-opacity:0.8;stroke-miterlimit:10;" d="M 1.829282 0.77433 L 1.772144 1.563444 " transform="matrix(182.740651,0,0,182.740651,-149.389702,-26.251636)"/>
</g>
</g>
</g>
<g clip-path="url(#clip16)" clip-rule="nonzero">
<g clip-path="url(#clip17)" clip-rule="evenodd">
<g clip-path="url(#clip18)" clip-rule="evenodd">
<path style="fill:none;stroke-width:0.0221112;stroke-linecap:butt;stroke-linejoin:miter;stroke:rgb(17.96875%,20.3125%,21.09375%);stroke-opacity:0.8;stroke-miterlimit:10;" d="M 1.829282 0.77433 L 1.888985 0.372784 " transform="matrix(182.740651,0,0,182.740651,-149.389702,-26.251636)"/>
</g>
</g>
</g>
<g clip-path="url(#clip19)" clip-rule="nonzero">
<g clip-path="url(#clip20)" clip-rule="evenodd">
<g clip-path="url(#clip21)" clip-rule="evenodd">
<path style="fill:none;stroke-width:0.0221112;stroke-linecap:butt;stroke-linejoin:miter;stroke:rgb(17.96875%,20.3125%,21.09375%);stroke-opacity:0.8;stroke-miterlimit:10;" d="M 2.547278 1.493972 L 3.154034 1.561071 " transform="matrix(182.740651,0,0,182.740651,-149.389702,-26.251636)"/>
</g>
</g>
</g>
<g clip-path="url(#clip22)" clip-rule="nonzero">
<g clip-path="url(#clip23)" clip-rule="evenodd">
<g clip-path="url(#clip24)" clip-rule="evenodd">
<path style="fill:none;stroke-width:0.0221112;stroke-linecap:butt;stroke-linejoin:miter;stroke:rgb(17.96875%,20.3125%,21.09375%);stroke-opacity:0.8;stroke-miterlimit:10;" d="M 2.547278 1.493972 L 1.772144 1.563444 " transform="matrix(182.740651,0,0,182.740651,-149.389702,-26.251636)"/>
</g>
</g>
</g>
<g clip-path="url(#clip25)" clip-rule="nonzero">
<g clip-path="url(#clip26)" clip-rule="evenodd">
<g clip-path="url(#clip27)" clip-rule="evenodd">
<path style="fill:none;stroke-width:0.0221112;stroke-linecap:butt;stroke-linejoin:miter;stroke:rgb(17.96875%,20.3125%,21.09375%);stroke-opacity:0.8;stroke-miterlimit:10;" d="M 1.772144 1.563444 L 1.432054 1.172607 " transform="matrix(182.740651,0,0,182.740651,-149.389702,-26.251636)"/>
</g>
</g>
</g>
<g clip-path="url(#clip28)" clip-rule="nonzero">
<g clip-path="url(#clip29)" clip-rule="evenodd">
<g clip-path="url(#clip30)" clip-rule="evenodd">
<path style="fill:none;stroke-width:0.0221112;stroke-linecap:butt;stroke-linejoin:miter;stroke:rgb(17.96875%,20.3125%,21.09375%);stroke-opacity:0.8;stroke-miterlimit:10;" d="M 1.772144 1.563444 L 1.518348 2.021487 " transform="matrix(182.740651,0,0,182.740651,-149.389702,-26.251636)"/>
</g>
</g>
</g>
<g clip-path="url(#clip31)" clip-rule="nonzero">
<g clip-path="url(#clip32)" clip-rule="evenodd">
<g clip-path="url(#clip33)" clip-rule="evenodd">
<path style="fill:none;stroke-width:0.0221112;stroke-linecap:butt;stroke-linejoin:miter;stroke:rgb(17.96875%,20.3125%,21.09375%);stroke-opacity:0.8;stroke-miterlimit:10;" d="M 1.772144 1.563444 L 1.329748 1.866405 " transform="matrix(182.740651,0,0,182.740651,-149.389702,-26.251636)"/>
</g>
</g>
</g>
<g clip-path="url(#clip34)" clip-rule="nonzero">
<g clip-path="url(#clip35)" clip-rule="evenodd">
<g clip-path="url(#clip36)" clip-rule="evenodd">
<path style="fill:none;stroke-width:0.0221112;stroke-linecap:butt;stroke-linejoin:miter;stroke:rgb(17.96875%,20.3125%,21.09375%);stroke-opacity:0.8;stroke-miterlimit:10;" d="M 1.772144 1.563444 L 1.935499 2.269918 " transform="matrix(182.740651,0,0,182.740651,-149.389702,-26.251636)"/>
</g>
</g>
</g>
<g clip-path="url(#clip37)" clip-rule="nonzero">
<g clip-path="url(#clip38)" clip-rule="evenodd">
<g clip-path="url(#clip39)" clip-rule="evenodd">
<path style="fill:none;stroke-width:0.0221112;stroke-linecap:butt;stroke-linejoin:miter;stroke:rgb(17.96875%,20.3125%,21.09375%);stroke-opacity:0.8;stroke-miterlimit:10;" d="M 3.344258 2.97635 L 2.986382 2.976585 " transform="matrix(182.740651,0,0,182.740651,-149.389702,-26.251636)"/>
</g>
</g>
</g>
<g clip-path="url(#clip40)" clip-rule="nonzero">
<g clip-path="url(#clip41)" clip-rule="evenodd">
<g clip-path="url(#clip42)" clip-rule="evenodd">
<path style="fill:none;stroke-width:0.0221112;stroke-linecap:butt;stroke-linejoin:miter;stroke:rgb(17.96875%,20.3125%,21.09375%);stroke-opacity:0.8;stroke-miterlimit:10;" d="M 2.986382 2.976585 L 2.429369 2.86496 " transform="matrix(182.740651,0,0,182.740651,-149.389702,-26.251636)"/>
</g>
</g>
</g>
<g clip-path="url(#clip43)" clip-rule="nonzero">
<g clip-path="url(#clip44)" clip-rule="evenodd">
<g clip-path="url(#clip45)" clip-rule="evenodd">
<path style="fill:none;stroke-width:0.0221112;stroke-linecap:butt;stroke-linejoin:miter;stroke:rgb(17.96875%,20.3125%,21.09375%);stroke-opacity:0.8;stroke-miterlimit:10;" d="M 2.429369 2.86496 L 2.327277 3.197868 " transform="matrix(182.740651,0,0,182.740651,-149.389702,-26.251636)"/>
</g>
</g>
</g>
<g clip-path="url(#clip46)" clip-rule="nonzero">
<g clip-path="url(#clip47)" clip-rule="evenodd">
<g clip-path="url(#clip48)" clip-rule="evenodd">
<path style="fill:none;stroke-width:0.0221112;stroke-linecap:butt;stroke-linejoin:miter;stroke:rgb(17.96875%,20.3125%,21.09375%);stroke-opacity:0.8;stroke-miterlimit:10;" d="M 2.429369 2.86496 L 1.935499 2.269918 " transform="matrix(182.740651,0,0,182.740651,-149.389702,-26.251636)"/>
</g>
</g>
</g>
<g clip-path="url(#clip49)" clip-rule="nonzero">
<g clip-path="url(#clip50)" clip-rule="evenodd">
<g clip-path="url(#clip51)" clip-rule="evenodd">
<path style="fill:none;stroke-width:0.0221112;stroke-linecap:butt;stroke-linejoin:miter;stroke:rgb(17.96875%,20.3125%,21.09375%);stroke-opacity:0.8;stroke-miterlimit:10;" d="M 1.148994 2.104255 L 1.518348 2.021487 " transform="matrix(182.740651,0,0,182.740651,-149.389702,-26.251636)"/>
</g>
</g>
</g>
<g clip-path="url(#clip52)" clip-rule="nonzero">
<g clip-path="url(#clip53)" clip-rule="evenodd">
<g clip-path="url(#clip54)" clip-rule="evenodd">
<path style="fill:none;stroke-width:0.0221112;stroke-linecap:butt;stroke-linejoin:miter;stroke:rgb(17.96875%,20.3125%,21.09375%);stroke-opacity:0.8;stroke-miterlimit:10;" d="M 1.148994 2.104255 L 1.329748 1.866405 " transform="matrix(182.740651,0,0,182.740651,-149.389702,-26.251636)"/>
</g>
</g>
</g>
<g clip-path="url(#clip55)" clip-rule="nonzero">
<g clip-path="url(#clip56)" clip-rule="evenodd">
<g clip-path="url(#clip57)" clip-rule="evenodd">
<path style="fill:none;stroke-width:0.0221112;stroke-linecap:butt;stroke-linejoin:miter;stroke:rgb(17.96875%,20.3125%,21.09375%);stroke-opacity:0.8;stroke-miterlimit:10;" d="M 1.518348 2.021487 L 1.329748 1.866405 " transform="matrix(182.740651,0,0,182.740651,-149.389702,-26.251636)"/>
</g>
</g>
</g>
<g clip-path="url(#clip58)" clip-rule="nonzero">
<g clip-path="url(#clip59)" clip-rule="evenodd">
<g clip-path="url(#clip60)" clip-rule="evenodd">
<path style="fill:none;stroke-width:0.0221112;stroke-linecap:butt;stroke-linejoin:miter;stroke:rgb(17.96875%,20.3125%,21.09375%);stroke-opacity:0.8;stroke-miterlimit:10;" d="M 1.518348 2.021487 L 1.935499 2.269918 " transform="matrix(182.740651,0,0,182.740651,-149.389702,-26.251636)"/>
</g>
</g>
</g>
<path style="fill-rule:nonzero;fill:rgb(100%,92.941176%,43.529412%);fill-opacity:1;stroke-width:0.0221112;stroke-linecap:butt;stroke-linejoin:miter;stroke:rgb(60%,60%,60%);stroke-opacity:0.8;stroke-miterlimit:10;" d="M 0.110549 -0.00000760546 C 0.110549 0.0610634 0.0610635 0.110549 -0.00000754748 0.110549 C -0.0610572 0.110549 -0.110564 0.0610634 -0.110564 -0.00000760546 C -0.110564 -0.0610572 -0.0610572 -0.110564 -0.00000754748 -0.110564 C 0.0610635 -0.110564 0.110549 -0.0610572 0.110549 -0.00000760546 Z M 0.110549 -0.00000760546 " transform="matrix(182.740651,0,0,182.740651,516.067785,117.056077)"/>
<path style="fill-rule:nonzero;fill:rgb(100%,92.941176%,43.529412%);fill-opacity:1;stroke-width:0.0221112;stroke-linecap:butt;stroke-linejoin:miter;stroke:rgb(60%,60%,60%);stroke-opacity:0.8;stroke-miterlimit:10;" d="M 0.110558 0.00000542436 C 0.110558 0.0610551 0.0610516 0.110562 0.00000194366 0.110562 C -0.0610477 0.110562 -0.110554 0.0610551 -0.110554 0.00000542436 C -0.110554 -0.0610656 -0.0610477 -0.110551 0.00000194366 -0.110551 C 0.0610516 -0.110551 0.110558 -0.0610656 0.110558 0.00000542436 Z M 0.110558 0.00000542436 " transform="matrix(182.740651,0,0,182.740651,510.460582,251.905259)"/>
<path style="fill-rule:nonzero;fill:rgb(100%,92.941176%,43.529412%);fill-opacity:1;stroke-width:0.0221112;stroke-linecap:butt;stroke-linejoin:miter;stroke:rgb(60%,60%,60%);stroke-opacity:0.8;stroke-miterlimit:10;" d="M 0.110562 -0.00000568766 C 0.110562 0.0610653 0.0610549 0.110551 0.00000525171 0.110551 C -0.0610658 0.110551 -0.110551 0.0610653 -0.110551 -0.00000568766 C -0.110551 -0.0610553 -0.0610658 -0.110562 0.00000525171 -0.110562 C 0.0610549 -0.110562 0.110562 -0.0610553 0.110562 -0.00000568766 Z M 0.110562 -0.00000568766 " transform="matrix(182.740651,0,0,182.740651,539.420915,191.321352)"/>
<path style="fill-rule:nonzero;fill:rgb(100%,92.941176%,43.529412%);fill-opacity:1;stroke-width:0.0221112;stroke-linecap:butt;stroke-linejoin:miter;stroke:rgb(60%,60%,60%);stroke-opacity:0.8;stroke-miterlimit:10;" d="M 0.110552 0.00000257859 C 0.110552 0.0610522 0.0610666 0.110559 -0.00000437578 0.110559 C -0.061054 0.110559 -0.110561 0.0610522 -0.110561 0.00000257859 C -0.110561 -0.0610684 -0.061054 -0.110554 -0.00000437578 -0.110554 C 0.0610666 -0.110554 0.110552 -0.0610684 0.110552 0.00000257859 Z M 0.110552 0.00000257859 " transform="matrix(182.740651,0,0,182.740651,481.891425,65.038591)"/>
<path style="fill-rule:nonzero;fill:rgb(100%,92.941176%,43.529412%);fill-opacity:1;stroke-width:0.0221112;stroke-linecap:butt;stroke-linejoin:miter;stroke:rgb(60%,60%,60%);stroke-opacity:0.8;stroke-miterlimit:10;" d="M 0.110557 0.00000968551 C 0.110557 0.0610593 0.0610504 0.110566 0.00000077889 0.110566 C -0.0610489 0.110566 -0.110555 0.0610593 -0.110555 0.00000968551 C -0.110555 -0.0610613 -0.0610489 -0.110547 0.00000077889 -0.110547 C 0.0610504 -0.110547 0.110557 -0.0610613 0.110557 0.00000968551 Z M 0.110557 0.00000968551 " transform="matrix(182.740651,0,0,182.740651,184.894389,115.24823)"/>
<path style="fill-rule:nonzero;fill:rgb(100%,92.941176%,43.529412%);fill-opacity:1;stroke-width:0.0221112;stroke-linecap:butt;stroke-linejoin:miter;stroke:rgb(60%,60%,60%);stroke-opacity:0.8;stroke-miterlimit:10;" d="M 0.110555 -0.000000964521 C 0.110555 0.0610487 0.0610485 0.110555 -0.00000112966 0.110555 C -0.0610508 0.110555 -0.110557 0.0610487 -0.110557 -0.000000964521 C -0.110557 -0.0610506 -0.0610508 -0.110557 -0.00000112966 -0.110557 C 0.0610485 -0.110557 0.110555 -0.0610506 0.110555 -0.000000964521 Z M 0.110555 -0.000000964521 " transform="matrix(182.740651,0,0,182.740651,316.101769,246.757989)"/>
<path style="fill-rule:nonzero;fill:rgb(100%,92.941176%,43.529412%);fill-opacity:1;stroke-width:0.0221112;stroke-linecap:butt;stroke-linejoin:miter;stroke:rgb(60%,60%,60%);stroke-opacity:0.8;stroke-miterlimit:10;" d="M 0.110558 -0.00000925157 C 0.110558 0.0610618 0.0610515 0.110547 0.00000186834 0.110547 C -0.0610478 0.110547 -0.110554 0.0610618 -0.110554 -0.00000925157 C -0.110554 -0.0610589 -0.0610478 -0.110566 0.00000186834 -0.110566 C 0.0610515 -0.110566 0.110558 -0.0610589 0.110558 -0.00000925157 Z M 0.110558 -0.00000925157 " transform="matrix(182.740651,0,0,182.740651,426.980127,259.021222)"/>
<path style="fill-rule:nonzero;fill:rgb(100%,92.941176%,43.529412%);fill-opacity:1;stroke-width:0.0221112;stroke-linecap:butt;stroke-linejoin:miter;stroke:rgb(60%,60%,60%);stroke-opacity:0.8;stroke-miterlimit:10;" d="M 0.110553 0.00000766708 C 0.110553 0.0610573 0.0610675 0.110564 -0.00000355617 0.110564 C -0.0610532 0.110564 -0.11056 0.0610573 -0.11056 0.00000766708 C -0.11056 -0.0610633 -0.0610532 -0.110549 -0.00000355617 -0.110549 C 0.0610675 -0.110549 0.110553 -0.0610633 0.110553 0.00000766708 Z M 0.110553 0.00000766708 " transform="matrix(182.740651,0,0,182.740651,174.453775,259.451724)"/>
<path style="fill-rule:nonzero;fill:rgb(100%,92.941176%,43.529412%);fill-opacity:1;stroke-width:0.0221112;stroke-linecap:butt;stroke-linejoin:miter;stroke:rgb(60%,60%,60%);stroke-opacity:0.8;stroke-miterlimit:10;" d="M 0.11056 0.00000566959 C 0.11056 0.0610553 0.0610538 0.110562 0.00000417192 0.110562 C -0.0610668 0.110562 -0.110552 0.0610553 -0.110552 0.00000566959 C -0.110552 -0.0610653 -0.0610668 -0.110551 0.00000417192 -0.110551 C 0.0610538 -0.110551 0.11056 -0.0610653 0.11056 0.00000566959 Z M 0.11056 0.00000566959 " transform="matrix(182.740651,0,0,182.740651,195.803925,41.870058)"/>
<path style="fill-rule:nonzero;fill:rgb(100%,92.941176%,43.529412%);fill-opacity:1;stroke-width:0.0221112;stroke-linecap:butt;stroke-linejoin:miter;stroke:rgb(60%,60%,60%);stroke-opacity:0.8;stroke-miterlimit:10;" d="M 0.110559 0.00000385205 C 0.110559 0.0610535 0.0610519 0.11056 0.00000224268 0.11056 C -0.0610688 0.11056 -0.110554 0.0610535 -0.110554 0.00000385205 C -0.110554 -0.0610672 -0.0610688 -0.110552 0.00000224268 -0.110552 C 0.0610519 -0.110552 0.110559 -0.0610672 0.110559 0.00000385205 Z M 0.110559 0.00000385205 " transform="matrix(182.740651,0,0,182.740651,112.304278,188.030546)"/>
<path style="fill-rule:nonzero;fill:rgb(55.294118%,82.745098%,78.039216%);fill-opacity:1;stroke-width:0.0221112;stroke-linecap:butt;stroke-linejoin:miter;stroke:rgb(60%,60%,60%);stroke-opacity:0.8;stroke-miterlimit:10;" d="M 0.11056 0.00000742166 C 0.11056 0.0610571 0.0610538 0.110564 0.0000041761 0.110564 C -0.0610668 0.110564 -0.110552 0.0610571 -0.110552 0.00000742166 C -0.110552 -0.0610636 -0.0610668 -0.110549 0.0000041761 -0.110549 C 0.0610538 -0.110549 0.11056 -0.0610636 0.11056 0.00000742166 Z M 0.11056 0.00000742166 " transform="matrix(182.740651,0,0,182.740651,461.741424,517.647081)"/>
<path style="fill-rule:nonzero;fill:rgb(55.294118%,82.745098%,78.039216%);fill-opacity:1;stroke-width:0.0221112;stroke-linecap:butt;stroke-linejoin:miter;stroke:rgb(60%,60%,60%);stroke-opacity:0.8;stroke-miterlimit:10;" d="M 0.110553 0.0000081171 C 0.110553 0.0610578 0.0610675 0.110564 -0.00000348909 0.110564 C -0.0610531 0.110564 -0.11056 0.0610578 -0.11056 0.0000081171 C -0.11056 -0.0610629 -0.0610531 -0.110548 -0.00000348909 -0.110548 C 0.0610675 -0.110548 0.110553 -0.0610629 0.110553 0.0000081171 Z M 0.110553 0.0000081171 " transform="matrix(182.740651,0,0,182.740651,396.344388,517.689923)"/>
<path style="fill-rule:nonzero;fill:rgb(55.294118%,82.745098%,78.039216%);fill-opacity:1;stroke-width:0.0221112;stroke-linecap:butt;stroke-linejoin:miter;stroke:rgb(60%,60%,60%);stroke-opacity:0.8;stroke-miterlimit:10;" d="M 0.110551 0.0000054091 C 0.110551 0.061055 0.0610658 0.110562 -0.0000051802 0.110562 C -0.0610548 0.110562 -0.110561 0.061055 -0.110561 0.0000054091 C -0.110561 -0.0610656 -0.0610548 -0.110551 -0.0000051802 -0.110551 C 0.0610658 -0.110551 0.110551 -0.0610656 0.110551 0.0000054091 Z M 0.110551 0.0000054091 " transform="matrix(182.740651,0,0,182.740651,294.555634,497.29198)"/>
<path style="fill-rule:nonzero;fill:rgb(55.294118%,82.745098%,78.039216%);fill-opacity:1;stroke-width:0.0221112;stroke-linecap:butt;stroke-linejoin:miter;stroke:rgb(60%,60%,60%);stroke-opacity:0.8;stroke-miterlimit:10;" d="M 0.110546 -0.00000566959 C 0.110546 0.0610653 0.0610605 0.110551 -0.0000105313 0.110551 C -0.0610602 0.110551 -0.110545 0.0610653 -0.110545 -0.00000566959 C -0.110545 -0.0610553 -0.0610602 -0.110562 -0.0000105313 -0.110562 C 0.0610605 -0.110562 0.110546 -0.0610553 0.110546 -0.00000566959 Z M 0.110546 -0.00000566959 " transform="matrix(182.740651,0,0,182.740651,275.900362,558.129942)"/>
<path style="fill-rule:nonzero;fill:rgb(100%,92.941176%,43.529412%);fill-opacity:1;stroke-width:0.0221112;stroke-linecap:butt;stroke-linejoin:miter;stroke:rgb(60%,60%,60%);stroke-opacity:0.8;stroke-miterlimit:10;" d="M 0.110551 -0.00000806445 C 0.110551 0.0610629 0.0610658 0.110548 -0.00000525171 0.110548 C -0.0610549 0.110548 -0.110562 0.0610629 -0.110562 -0.00000806445 C -0.110562 -0.0610577 -0.0610549 -0.110564 -0.00000525171 -0.110564 C 0.0610658 -0.110564 0.110551 -0.0610577 0.110551 -0.00000806445 Z M 0.110551 -0.00000806445 " transform="matrix(182.740651,0,0,182.740651,60.579085,358.282724)"/>
<path style="fill-rule:nonzero;fill:rgb(100%,92.941176%,43.529412%);fill-opacity:1;stroke-width:0.0221112;stroke-linecap:butt;stroke-linejoin:miter;stroke:rgb(60%,60%,60%);stroke-opacity:0.8;stroke-miterlimit:10;" d="M 0.110549 0.00000434144 C 0.110549 0.061054 0.0610636 0.110561 -0.00000743859 0.110561 C -0.0610571 0.110561 -0.110564 0.061054 -0.110564 0.00000434144 C -0.110564 -0.0610667 -0.0610571 -0.110552 -0.00000743859 -0.110552 C 0.0610636 -0.110552 0.110549 -0.0610667 0.110549 0.00000434144 Z M 0.110549 0.00000434144 " transform="matrix(182.740651,0,0,182.740651,128.075578,343.155457)"/>
<path style="fill-rule:nonzero;fill:rgb(100%,92.941176%,43.529412%);fill-opacity:1;stroke-width:0.0221112;stroke-linecap:butt;stroke-linejoin:miter;stroke:rgb(60%,60%,60%);stroke-opacity:0.8;stroke-miterlimit:10;" d="M 0.110563 0.0000104721 C 0.110563 0.0610601 0.0610567 0.110545 0.00000710038 0.110545 C -0.0610639 0.110545 -0.110549 0.0610601 -0.110549 0.0000104721 C -0.110549 -0.0610605 -0.0610639 -0.110546 0.00000710038 -0.110546 C 0.0610567 -0.110546 0.110563 -0.0610605 0.110563 0.0000104721 Z M 0.110563 0.0000104721 " transform="matrix(182.740651,0,0,182.740651,93.608077,314.814493)"/>
<path style="fill-rule:nonzero;fill:rgb(55.294118%,82.745098%,78.039216%);fill-opacity:1;stroke-width:0.0221112;stroke-linecap:butt;stroke-linejoin:miter;stroke:rgb(60%,60%,60%);stroke-opacity:0.8;stroke-miterlimit:10;" d="M 0.11056 -0.0000102096 C 0.11056 0.0610608 0.0610531 0.110546 0.00000349814 0.110546 C -0.0610675 0.110546 -0.110553 0.0610608 -0.110553 -0.0000102096 C -0.110553 -0.0610598 -0.0610675 -0.110566 0.00000349814 -0.110566 C 0.0610531 -0.110566 0.11056 -0.0610598 0.11056 -0.0000102096 Z M 0.11056 -0.0000102096 " transform="matrix(182.740651,0,0,182.740651,204.304048,388.556553)"/>
</g>
</svg>
